<?xml version="1.0" encoding="UTF-8" standalone="no"?>
<!DOCTYPE svg PUBLIC "-//W3C//DTD SVG 1.1//EN"
 "http://www.w3.org/Graphics/SVG/1.1/DTD/svg11.dtd">
<!-- Generated by graphviz version 2.43.0 (0)
 -->
<!-- Title: %3 Pages: 1 -->
<svg width="526pt" height="388pt"
 viewBox="0.00 0.00 526.22 388.00" xmlns="http://www.w3.org/2000/svg" xmlns:xlink="http://www.w3.org/1999/xlink">
<g id="graph0" class="graph" transform="scale(1 1) rotate(0) translate(4 384)">
<title>%3</title>
<polygon fill="white" stroke="#000000" points="-4,4 -4,-384 522.22,-384 522.22,4 -4,4"/>
<g id="clust1" class="cluster">
<title>outer_cluster_Imm&#45;2</title>
</g>
<g id="clust2" class="cluster">
<title>cluster_Imm&#45;2</title>
<path fill="#ffffb3" stroke="black" stroke-dasharray="5,2" d="M88,-169C88,-169 132,-169 132,-169 138,-169 144,-175 144,-181 144,-181 144,-199 144,-199 144,-205 138,-211 132,-211 132,-211 88,-211 88,-211 82,-211 76,-205 76,-199 76,-199 76,-181 76,-181 76,-175 82,-169 88,-169"/>
</g>
<g id="clust4" class="cluster">
<title>outer_cluster_Imm&#45;4</title>
</g>
<g id="clust5" class="cluster">
<title>cluster_Imm&#45;4</title>
<path fill="#ffffb3" stroke="black" stroke-dasharray="5,2" d="M288,-90C288,-90 332,-90 332,-90 338,-90 344,-96 344,-102 344,-102 344,-120 344,-120 344,-126 338,-132 332,-132 332,-132 288,-132 288,-132 282,-132 276,-126 276,-120 276,-120 276,-102 276,-102 276,-96 282,-90 288,-90"/>
</g>
<g id="clust7" class="cluster">
<title>outer_cluster_Inst&#45;6</title>
</g>
<g id="clust8" class="cluster">
<title>cluster_Inst&#45;6</title>
<path fill="#bebada" stroke="black" stroke-dasharray="5,2" d="M37,-248C37,-248 73,-248 73,-248 79,-248 85,-254 85,-260 85,-260 85,-278 85,-278 85,-284 79,-290 73,-290 73,-290 37,-290 37,-290 31,-290 25,-284 25,-278 25,-278 25,-260 25,-260 25,-254 31,-248 37,-248"/>
</g>
<g id="clust10" class="cluster">
<title>outer_cluster_Inst&#45;7</title>
</g>
<g id="clust11" class="cluster">
<title>cluster_Inst&#45;7</title>
<path fill="#bebada" stroke="black" stroke-dasharray="5,2" d="M151,-248C151,-248 303,-248 303,-248 309,-248 315,-254 315,-260 315,-260 315,-278 315,-278 315,-284 309,-290 303,-290 303,-290 151,-290 151,-290 145,-290 139,-284 139,-278 139,-278 139,-260 139,-260 139,-254 145,-248 151,-248"/>
</g>
<g id="clust13" class="cluster">
<title>outer_cluster_Inst&#45;8</title>
</g>
<g id="clust14" class="cluster">
<title>cluster_Inst&#45;8</title>
<path fill="#bebada" stroke="black" stroke-dasharray="5,2" d="M292,-169C292,-169 328,-169 328,-169 334,-169 340,-175 340,-181 340,-181 340,-199 340,-199 340,-205 334,-211 328,-211 328,-211 292,-211 292,-211 286,-211 280,-205 280,-199 280,-199 280,-181 280,-181 280,-175 286,-169 292,-169"/>
</g>
<g id="clust16" class="cluster">
<title>outer_cluster_Inst&#45;5</title>
</g>
<g id="clust17" class="cluster">
<title>cluster_Inst&#45;5</title>
<path fill="#bebada" stroke="black" stroke-dasharray="5,2" d="M333,-248C333,-248 485,-248 485,-248 491,-248 497,-254 497,-260 497,-260 497,-278 497,-278 497,-284 491,-290 485,-290 485,-290 333,-290 333,-290 327,-290 321,-284 321,-278 321,-278 321,-260 321,-260 321,-254 327,-248 333,-248"/>
</g>
<g id="clust19" class="cluster">
<title>outer_cluster_Inst&#45;3</title>
</g>
<g id="clust20" class="cluster">
<title>cluster_Inst&#45;3</title>
<path fill="#bebada" stroke="black" stroke-dasharray="5,2" d="M23,-327C23,-327 175,-327 175,-327 181,-327 187,-333 187,-339 187,-339 187,-357 187,-357 187,-363 181,-369 175,-369 175,-369 23,-369 23,-369 17,-369 11,-363 11,-357 11,-357 11,-339 11,-339 11,-333 17,-327 23,-327"/>
</g>
<g id="clust22" class="cluster">
<title>outer_cluster_Inst&#45;1</title>
</g>
<g id="clust23" class="cluster">
<title>cluster_Inst&#45;1</title>
<path fill="#bebada" stroke="black" stroke-dasharray="5,2" d="M416,-169C416,-169 456,-169 456,-169 462,-169 468,-175 468,-181 468,-181 468,-199 468,-199 468,-205 462,-211 456,-211 456,-211 416,-211 416,-211 410,-211 404,-205 404,-199 404,-199 404,-181 404,-181 404,-175 410,-169 416,-169"/>
</g>
<g id="clust25" class="cluster">
<title>outer_cluster_Inst&#45;0</title>
</g>
<g id="clust26" class="cluster">
<title>cluster_Inst&#45;0</title>
<path fill="#bebada" stroke="black" stroke-dasharray="5,2" d="M179,-169C179,-169 219,-169 219,-169 225,-169 231,-175 231,-181 231,-181 231,-199 231,-199 231,-205 225,-211 219,-211 219,-211 179,-211 179,-211 173,-211 167,-205 167,-199 167,-199 167,-181 167,-181 167,-175 173,-169 179,-169"/>
</g>
<g id="clust28" class="cluster">
<title>outer_cluster_String&#45;0</title>
</g>
<g id="clust29" class="cluster">
<title>cluster_String&#45;0</title>
<path fill="#fb8072" stroke="black" stroke-dasharray="5,2" d="M180,-90C180,-90 220,-90 220,-90 226,-90 232,-96 232,-102 232,-102 232,-120 232,-120 232,-126 226,-132 220,-132 220,-132 180,-132 180,-132 174,-132 168,-126 168,-120 168,-120 168,-102 168,-102 168,-96 174,-90 180,-90"/>
</g>
<g id="clust31" class="cluster">
<title>outer_cluster_String&#45;1</title>
</g>
<g id="clust32" class="cluster">
<title>cluster_String&#45;1</title>
<path fill="#fb8072" stroke="black" stroke-dasharray="5,2" d="M411,-90C411,-90 463,-90 463,-90 469,-90 475,-96 475,-102 475,-102 475,-120 475,-120 475,-126 469,-132 463,-132 463,-132 411,-132 411,-132 405,-132 399,-126 399,-120 399,-120 399,-102 399,-102 399,-96 405,-90 411,-90"/>
</g>
<g id="clust34" class="cluster">
<title>outer_cluster_i64&#45;0</title>
</g>
<g id="clust35" class="cluster">
<title>cluster_i64&#45;0</title>
<path fill="#80b1d3" stroke="black" stroke-dasharray="5,2" d="M92,-90C92,-90 128,-90 128,-90 134,-90 140,-96 140,-102 140,-102 140,-120 140,-120 140,-126 134,-132 128,-132 128,-132 92,-132 92,-132 86,-132 80,-126 80,-120 80,-120 80,-102 80,-102 80,-96 86,-90 92,-90"/>
</g>
<g id="clust37" class="cluster">
<title>outer_cluster_i64&#45;4</title>
</g>
<g id="clust38" class="cluster">
<title>cluster_i64&#45;4</title>
<path fill="#80b1d3" stroke="black" stroke-dasharray="5,2" d="M292,-11C292,-11 328,-11 328,-11 334,-11 340,-17 340,-23 340,-23 340,-41 340,-41 340,-47 334,-53 328,-53 328,-53 292,-53 292,-53 286,-53 280,-47 280,-41 280,-41 280,-23 280,-23 280,-17 286,-11 292,-11"/>
</g>
<!-- function&#45;0&#45;ImmVal&#45;&gt;primitive&#45;i64&#45;0 -->
<g id="edge1" class="edge">
<title>function&#45;0&#45;ImmVal:s&#45;&gt;primitive&#45;i64&#45;0</title>
<path fill="none" stroke="black" d="M110,-174C110,-160.84 110,-146.11 110,-134.3"/>
<polygon fill="black" stroke="black" points="111.75,-137 110,-132 108.25,-137 111.75,-137"/>
</g>
<!-- function&#45;1&#45;ImmVal&#45;&gt;primitive&#45;i64&#45;4 -->
<g id="edge2" class="edge">
<title>function&#45;1&#45;ImmVal:s&#45;&gt;primitive&#45;i64&#45;4</title>
<path fill="none" stroke="black" d="M310,-95C310,-81.84 310,-67.11 310,-55.3"/>
<polygon fill="black" stroke="black" points="311.75,-58 310,-53 308.25,-58 311.75,-58"/>
</g>
<!-- function&#45;0&#45;Jal&#45;&gt;function&#45;0&#45;ImmVal -->
<g id="edge3" class="edge">
<title>function&#45;0&#45;Jal:s&#45;&gt;function&#45;0&#45;ImmVal</title>
<path fill="none" stroke="black" d="M55,-253C55,-236.31 66.29,-222.01 78.64,-211.37"/>
<polygon fill="black" stroke="black" points="75.61,-214.6 79.5,-211 74.22,-211.38 75.61,-214.6"/>
</g>
<!-- function&#45;2&#45;Bne&#45;&gt;function&#45;1&#45;ImmVal -->
<g id="edge6" class="edge">
<title>function&#45;2&#45;Bne:s&#45;&gt;function&#45;1&#45;ImmVal</title>
<path fill="none" stroke="black" d="M183,-253C183,-225.17 215.63,-236.51 232,-214 245.4,-195.57 237.17,-184.83 250,-166 258.65,-153.32 270.88,-141.6 282.05,-132.34"/>
<polygon fill="black" stroke="black" points="278.89,-135.21 283.11,-132 277.81,-131.88 278.89,-135.21"/>
</g>
<!-- function&#45;2&#45;Bne&#45;&gt;function&#45;0&#45;RegVal -->
<g id="edge4" class="edge">
<title>function&#45;2&#45;Bne:s&#45;&gt;function&#45;0&#45;RegVal</title>
<path fill="none" stroke="black" d="M160,-253C160,-237.82 168.48,-223.32 177.52,-212.17"/>
<polygon fill="black" stroke="black" points="176.24,-215.6 178.87,-211 173.95,-212.95 176.24,-215.6"/>
</g>
<!-- function&#45;2&#45;Bne&#45;&gt;function&#45;1&#45;RegVal -->
<g id="edge5" class="edge">
<title>function&#45;2&#45;Bne:s&#45;&gt;function&#45;1&#45;RegVal</title>
<path fill="none" stroke="black" d="M174,-253C174,-240.91 188.31,-248.08 200,-245 262.05,-228.66 278.48,-228.44 341,-214 361.4,-209.29 384.21,-203.77 402.36,-199.33"/>
<polygon fill="black" stroke="black" points="401.04,-202.5 404,-198.1 398.95,-199.69 401.04,-202.5"/>
</g>
<!-- function&#45;0&#45;RegVal&#45;&gt;primitive&#45;String&#45;0 -->
<g id="edge30" class="edge">
<title>function&#45;0&#45;RegVal:s&#45;&gt;primitive&#45;String&#45;0</title>
<path fill="none" stroke="black" d="M200,-174C200,-160.84 200,-146.11 200,-134.3"/>
<polygon fill="black" stroke="black" points="201.75,-137 200,-132 198.25,-137 201.75,-137"/>
</g>
<!-- function&#45;1&#45;RegVal&#45;&gt;primitive&#45;String&#45;1 -->
<g id="edge29" class="edge">
<title>function&#45;1&#45;RegVal:s&#45;&gt;primitive&#45;String&#45;1</title>
<path fill="none" stroke="black" d="M437,-174C437,-160.84 437,-146.11 437,-134.3"/>
<polygon fill="black" stroke="black" points="438.75,-137 437,-132 435.25,-137 438.75,-137"/>
</g>
<!-- function&#45;3&#45;Bne&#45;&gt;function&#45;1&#45;ImmVal -->
<g id="edge9" class="edge">
<title>function&#45;3&#45;Bne:s&#45;&gt;function&#45;1&#45;ImmVal</title>
<path fill="none" stroke="black" d="M241,-253C241,-206.69 271.4,-159.74 291.84,-133.4"/>
<polygon fill="black" stroke="black" points="291.13,-136.95 293.03,-132 288.46,-134.68 291.13,-136.95"/>
</g>
<!-- function&#45;3&#45;Bne&#45;&gt;function&#45;0&#45;RegVal -->
<g id="edge8" class="edge">
<title>function&#45;3&#45;Bne:s&#45;&gt;function&#45;0&#45;RegVal</title>
<path fill="none" stroke="black" d="M232,-253C232,-238.36 224.74,-223.81 217.03,-212.5"/>
<polygon fill="black" stroke="black" points="220.3,-214.03 215.96,-211 217.46,-216.08 220.3,-214.03"/>
</g>
<!-- function&#45;3&#45;Bne&#45;&gt;function&#45;1&#45;RegVal -->
<g id="edge7" class="edge">
<title>function&#45;3&#45;Bne:s&#45;&gt;function&#45;1&#45;RegVal</title>
<path fill="none" stroke="black" d="M218,-253C218,-248.28 340.75,-215.73 402.03,-199.78"/>
<polygon fill="black" stroke="black" points="400.8,-202.69 404,-198.47 398.87,-199.78 400.8,-202.69"/>
</g>
<!-- function&#45;2&#45;Seq2&#45;&gt;function&#45;1&#45;Seq2 -->
<g id="edge10" class="edge">
<title>function&#45;2&#45;Seq2:s&#45;&gt;function&#45;1&#45;Seq2</title>
<path fill="none" stroke="black" d="M274,-253C274,-232.44 298.08,-239.47 319.13,-249.89"/>
<polygon fill="black" stroke="black" points="315.96,-249.68 321,-251.3 318.07,-246.89 315.96,-249.68"/>
</g>
<!-- function&#45;2&#45;Seq2&#45;&gt;function&#45;1&#45;Jal -->
<g id="edge11" class="edge">
<title>function&#45;2&#45;Seq2:s&#45;&gt;function&#45;1&#45;Jal</title>
<path fill="none" stroke="black" d="M296,-253C296,-239.48 299.21,-224.7 302.55,-212.97"/>
<polygon fill="black" stroke="black" points="302.45,-216.07 303.98,-211 299.62,-214.01 302.45,-216.07"/>
</g>
<!-- function&#45;1&#45;Seq2&#45;&gt;function&#45;2&#45;Bne -->
<g id="edge19" class="edge">
<title>function&#45;1&#45;Seq2:s&#45;&gt;function&#45;2&#45;Bne</title>
<path fill="none" stroke="black" d="M340,-253C340,-190.28 257.87,-195 202,-223.5 192.47,-228.36 185.04,-237.41 179.67,-246.17"/>
<polygon fill="black" stroke="black" points="180.12,-243.19 177.9,-248 182.63,-245.62 180.12,-243.19"/>
</g>
<!-- function&#45;1&#45;Seq2&#45;&gt;function&#45;1&#45;Jal -->
<g id="edge20" class="edge">
<title>function&#45;1&#45;Seq2:s&#45;&gt;function&#45;1&#45;Jal</title>
<path fill="none" stroke="black" d="M362,-253C362,-236.59 351.18,-222.25 339.4,-211.5"/>
<polygon fill="black" stroke="black" points="343.65,-211.66 338.39,-211 342.09,-214.8 343.65,-211.66"/>
</g>
<!-- function&#45;1&#45;Jal&#45;&gt;function&#45;1&#45;ImmVal -->
<g id="edge12" class="edge">
<title>function&#45;1&#45;Jal:s&#45;&gt;function&#45;1&#45;ImmVal</title>
<path fill="none" stroke="black" d="M310,-174C310,-160.84 310,-146.11 310,-134.3"/>
<polygon fill="black" stroke="black" points="311.75,-137 310,-132 308.25,-137 311.75,-137"/>
</g>
<!-- function&#45;0&#45;Beq&#45;&gt;function&#45;1&#45;ImmVal -->
<g id="edge15" class="edge">
<title>function&#45;0&#45;Beq:s&#45;&gt;function&#45;1&#45;ImmVal</title>
<path fill="none" stroke="black" d="M423,-253C423,-228.49 399.91,-232.65 384,-214 361.46,-187.59 338.42,-154.72 324.17,-133.55"/>
<polygon fill="black" stroke="black" points="327.25,-133.81 322.27,-132 325.04,-136.52 327.25,-133.81"/>
</g>
<!-- function&#45;0&#45;Beq&#45;&gt;function&#45;0&#45;RegVal -->
<g id="edge13" class="edge">
<title>function&#45;0&#45;Beq:s&#45;&gt;function&#45;0&#45;RegVal</title>
<path fill="none" stroke="black" d="M400,-253C400,-242.6 387.87,-248.28 378,-245 327.8,-228.31 268.96,-210.99 232.84,-200.6"/>
<polygon fill="black" stroke="black" points="235.99,-200.89 231,-199.12 233.79,-203.62 235.99,-200.89"/>
</g>
<!-- function&#45;0&#45;Beq&#45;&gt;function&#45;1&#45;RegVal -->
<g id="edge14" class="edge">
<title>function&#45;0&#45;Beq:s&#45;&gt;function&#45;1&#45;RegVal</title>
<path fill="none" stroke="black" d="M414,-253C414,-239.11 418.97,-224.42 424.18,-212.83"/>
<polygon fill="black" stroke="black" points="424.07,-216.12 425.41,-211 421.17,-214.17 424.07,-216.12"/>
</g>
<!-- function&#45;1&#45;Beq&#45;&gt;function&#45;1&#45;ImmVal -->
<g id="edge18" class="edge">
<title>function&#45;1&#45;Beq:s&#45;&gt;function&#45;1&#45;ImmVal</title>
<path fill="none" stroke="black" d="M481,-253C481,-214.24 432.42,-239.24 403,-214 383.16,-196.98 386.3,-185.6 369,-166 358.53,-154.13 345.68,-142.12 334.65,-132.46"/>
<polygon fill="black" stroke="black" points="338.95,-132.54 333.68,-132 337.47,-135.71 338.95,-132.54"/>
</g>
<!-- function&#45;1&#45;Beq&#45;&gt;function&#45;0&#45;RegVal -->
<g id="edge17" class="edge">
<title>function&#45;1&#45;Beq:s&#45;&gt;function&#45;0&#45;RegVal</title>
<path fill="none" stroke="black" d="M472,-253C472,-209.24 321.53,-224.29 279,-214 263.74,-210.31 247.02,-205.6 232.83,-201.42"/>
<polygon fill="black" stroke="black" points="235.97,-201.74 231,-199.9 233.73,-204.44 235.97,-201.74"/>
</g>
<!-- function&#45;1&#45;Beq&#45;&gt;function&#45;1&#45;RegVal -->
<g id="edge16" class="edge">
<title>function&#45;1&#45;Beq:s&#45;&gt;function&#45;1&#45;RegVal</title>
<path fill="none" stroke="black" d="M458,-253C458,-239.11 453.03,-224.42 447.82,-212.83"/>
<polygon fill="black" stroke="black" points="450.83,-214.17 446.59,-211 447.93,-216.12 450.83,-214.17"/>
</g>
<!-- function&#45;0&#45;Bne&#45;&gt;function&#45;0&#45;ImmVal -->
<g id="edge23" class="edge">
<title>function&#45;0&#45;Bne:s&#45;&gt;function&#45;0&#45;ImmVal</title>
<path fill="none" stroke="black" d="M171,-332C171,-309.29 148.59,-313.09 138,-293 124.5,-267.39 117.01,-234.64 113.25,-213.26"/>
<polygon fill="black" stroke="black" points="115.81,-215.03 112.37,-211 112.55,-216.29 115.81,-215.03"/>
</g>
<!-- function&#45;0&#45;Bne&#45;&gt;function&#45;0&#45;RegVal -->
<g id="edge21" class="edge">
<title>function&#45;0&#45;Bne:s&#45;&gt;function&#45;0&#45;RegVal</title>
<path fill="none" stroke="black" d="M148,-332C148,-314.11 140.24,-310.75 138,-293 135.33,-271.83 129.24,-264.45 138,-245 144.05,-231.56 155.28,-220.12 166.48,-211.27"/>
<polygon fill="black" stroke="black" points="166.5,-215.4 167,-210.13 163.32,-213.94 166.5,-215.4"/>
</g>
<!-- function&#45;0&#45;Bne&#45;&gt;function&#45;1&#45;RegVal -->
<g id="edge22" class="edge">
<title>function&#45;0&#45;Bne:s&#45;&gt;function&#45;1&#45;RegVal</title>
<path fill="none" stroke="black" d="M162,-332C162,-254.4 457.29,-350.85 509,-293 523.22,-277.09 518.6,-264.05 509,-245 500.58,-228.29 484.26,-215.46 469.19,-206.51"/>
<polygon fill="black" stroke="black" points="472.35,-207.89 468,-204.86 469.51,-209.94 472.35,-207.89"/>
</g>
<!-- function&#45;1&#45;Bne&#45;&gt;function&#45;0&#45;ImmVal -->
<g id="edge26" class="edge">
<title>function&#45;1&#45;Bne:s&#45;&gt;function&#45;0&#45;ImmVal</title>
<path fill="none" stroke="black" d="M113,-332C113,-290.22 111.67,-241.5 110.78,-213.65"/>
<polygon fill="black" stroke="black" points="112.68,-215.88 110.61,-211 109.18,-216.1 112.68,-215.88"/>
</g>
<!-- function&#45;1&#45;Bne&#45;&gt;function&#45;0&#45;RegVal -->
<g id="edge25" class="edge">
<title>function&#45;1&#45;Bne:s&#45;&gt;function&#45;0&#45;RegVal</title>
<path fill="none" stroke="black" d="M104,-332C104,-291.38 109,-278.48 132,-245 141.12,-231.72 154.44,-220.05 166.81,-210.99"/>
<polygon fill="black" stroke="black" points="167.75,-215.26 167,-210.02 164.31,-214.58 167.75,-215.26"/>
</g>
<!-- function&#45;1&#45;Bne&#45;&gt;function&#45;1&#45;RegVal -->
<g id="edge24" class="edge">
<title>function&#45;1&#45;Bne:s&#45;&gt;function&#45;1&#45;RegVal</title>
<path fill="none" stroke="black" d="M90,-332C90,-240.92 436.36,-360.05 498,-293 512.44,-277.29 506.84,-264.42 498,-245 491.79,-231.35 480.22,-219.8 468.75,-210.94"/>
<polygon fill="black" stroke="black" points="472.21,-213 468,-209.79 469.29,-214.93 472.21,-213"/>
</g>
<!-- function&#45;0&#45;Seq2&#45;&gt;function&#45;0&#45;Jal -->
<g id="edge28" class="edge">
<title>function&#45;0&#45;Seq2:s&#45;&gt;function&#45;0&#45;Jal</title>
<path fill="none" stroke="black" d="M52,-332C52,-318.82 52.68,-304.09 53.4,-292.29"/>
<polygon fill="black" stroke="black" points="54.75,-295.2 53.73,-290 51.29,-294.7 54.75,-295.2"/>
</g>
<!-- function&#45;0&#45;Seq2&#45;&gt;function&#45;0&#45;Beq -->
<g id="edge27" class="edge">
<title>function&#45;0&#45;Seq2:s&#45;&gt;function&#45;0&#45;Beq</title>
<path fill="none" stroke="black" d="M30,-332C30,-293.09 341.72,-307.06 378,-293 378.54,-292.79 379.07,-292.57 379.61,-292.34"/>
<polygon fill="black" stroke="black" points="380.65,-293.78 384.36,-290 379.1,-290.64 380.65,-293.78"/>
</g>
<!-- function&#45;0&#45;ImmVal -->
<g id="node1" class="node">
<title>function&#45;0&#45;ImmVal</title>
<g id="a_node1"><a xlink:title="Imm&#45;2: function&#45;0&#45;ImmVal">
<path fill="white" stroke="transparent" d="M89.67,-174C89.67,-174 130.33,-174 130.33,-174 135.67,-174 141,-179.33 141,-184.67 141,-184.67 141,-195.33 141,-195.33 141,-200.67 135.67,-206 130.33,-206 130.33,-206 89.67,-206 89.67,-206 84.33,-206 79,-200.67 79,-195.33 79,-195.33 79,-184.67 79,-184.67 79,-179.33 84.33,-174 89.67,-174"/>
<text text-anchor="start" x="84" y="-186.3" font-family="Helvetica,sans-Serif" font-size="14.00">ImmVal</text>
<path fill="none" stroke="black" d="M89.67,-174C89.67,-174 130.33,-174 130.33,-174 135.67,-174 141,-179.33 141,-184.67 141,-184.67 141,-195.33 141,-195.33 141,-200.67 135.67,-206 130.33,-206 130.33,-206 89.67,-206 89.67,-206 84.33,-206 79,-200.67 79,-195.33 79,-195.33 79,-184.67 79,-184.67 79,-179.33 84.33,-174 89.67,-174"/>
</a>
</g>
</g>
<!-- primitive&#45;i64&#45;0 -->
<g id="node2" class="node">
<title>primitive&#45;i64&#45;0</title>
<g id="a_node2"><a xlink:title="i64&#45;0: primitive&#45;i64&#45;0">
<path fill="white" stroke="transparent" d="M104.67,-95C104.67,-95 115.33,-95 115.33,-95 120.67,-95 126,-100.33 126,-105.67 126,-105.67 126,-116.33 126,-116.33 126,-121.67 120.67,-127 115.33,-127 115.33,-127 104.67,-127 104.67,-127 99.33,-127 94,-121.67 94,-116.33 94,-116.33 94,-105.67 94,-105.67 94,-100.33 99.33,-95 104.67,-95"/>
<text text-anchor="start" x="105" y="-107.3" font-family="Helvetica,sans-Serif" font-size="14.00">0</text>
<path fill="none" stroke="black" d="M104.67,-95C104.67,-95 115.33,-95 115.33,-95 120.67,-95 126,-100.33 126,-105.67 126,-105.67 126,-116.33 126,-116.33 126,-121.67 120.67,-127 115.33,-127 115.33,-127 104.67,-127 104.67,-127 99.33,-127 94,-121.67 94,-116.33 94,-116.33 94,-105.67 94,-105.67 94,-100.33 99.33,-95 104.67,-95"/>
</a>
</g>
</g>
<!-- function&#45;1&#45;ImmVal -->
<g id="node3" class="node">
<title>function&#45;1&#45;ImmVal</title>
<g id="a_node3"><a xlink:title="Imm&#45;4: function&#45;1&#45;ImmVal">
<path fill="white" stroke="transparent" d="M289.67,-95C289.67,-95 330.33,-95 330.33,-95 335.67,-95 341,-100.33 341,-105.67 341,-105.67 341,-116.33 341,-116.33 341,-121.67 335.67,-127 330.33,-127 330.33,-127 289.67,-127 289.67,-127 284.33,-127 279,-121.67 279,-116.33 279,-116.33 279,-105.67 279,-105.67 279,-100.33 284.33,-95 289.67,-95"/>
<text text-anchor="start" x="284" y="-107.3" font-family="Helvetica,sans-Serif" font-size="14.00">ImmVal</text>
<path fill="none" stroke="black" d="M289.67,-95C289.67,-95 330.33,-95 330.33,-95 335.67,-95 341,-100.33 341,-105.67 341,-105.67 341,-116.33 341,-116.33 341,-121.67 335.67,-127 330.33,-127 330.33,-127 289.67,-127 289.67,-127 284.33,-127 279,-121.67 279,-116.33 279,-116.33 279,-105.67 279,-105.67 279,-100.33 284.33,-95 289.67,-95"/>
</a>
</g>
</g>
<!-- primitive&#45;i64&#45;4 -->
<g id="node4" class="node">
<title>primitive&#45;i64&#45;4</title>
<g id="a_node4"><a xlink:title="i64&#45;4: primitive&#45;i64&#45;4">
<path fill="white" stroke="transparent" d="M304.67,-16C304.67,-16 315.33,-16 315.33,-16 320.67,-16 326,-21.33 326,-26.67 326,-26.67 326,-37.33 326,-37.33 326,-42.67 320.67,-48 315.33,-48 315.33,-48 304.67,-48 304.67,-48 299.33,-48 294,-42.67 294,-37.33 294,-37.33 294,-26.67 294,-26.67 294,-21.33 299.33,-16 304.67,-16"/>
<text text-anchor="start" x="305" y="-28.3" font-family="Helvetica,sans-Serif" font-size="14.00">4</text>
<path fill="none" stroke="black" d="M304.67,-16C304.67,-16 315.33,-16 315.33,-16 320.67,-16 326,-21.33 326,-26.67 326,-26.67 326,-37.33 326,-37.33 326,-42.67 320.67,-48 315.33,-48 315.33,-48 304.67,-48 304.67,-48 299.33,-48 294,-42.67 294,-37.33 294,-37.33 294,-26.67 294,-26.67 294,-21.33 299.33,-16 304.67,-16"/>
</a>
</g>
</g>
<!-- function&#45;0&#45;Jal -->
<g id="node5" class="node">
<title>function&#45;0&#45;Jal</title>
<g id="a_node5"><a xlink:title="Inst&#45;6: function&#45;0&#45;Jal">
<path fill="white" stroke="transparent" d="M49.67,-253C49.67,-253 60.33,-253 60.33,-253 65.67,-253 71,-258.33 71,-263.67 71,-263.67 71,-274.33 71,-274.33 71,-279.67 65.67,-285 60.33,-285 60.33,-285 49.67,-285 49.67,-285 44.33,-285 39,-279.67 39,-274.33 39,-274.33 39,-263.67 39,-263.67 39,-258.33 44.33,-253 49.67,-253"/>
<text text-anchor="start" x="46.5" y="-265.3" font-family="Helvetica,sans-Serif" font-size="14.00">Jal</text>
<path fill="none" stroke="black" d="M49.67,-253C49.67,-253 60.33,-253 60.33,-253 65.67,-253 71,-258.33 71,-263.67 71,-263.67 71,-274.33 71,-274.33 71,-279.67 65.67,-285 60.33,-285 60.33,-285 49.67,-285 49.67,-285 44.33,-285 39,-279.67 39,-274.33 39,-274.33 39,-263.67 39,-263.67 39,-258.33 44.33,-253 49.67,-253"/>
</a>
</g>
</g>
<!-- function&#45;2&#45;Bne -->
<g id="node6" class="node">
<title>function&#45;2&#45;Bne</title>
<g id="a_node6"><a xlink:title="Inst&#45;7: function&#45;2&#45;Bne">
<path fill="white" stroke="transparent" d="M160.67,-253C160.67,-253 177.33,-253 177.33,-253 182.67,-253 188,-258.33 188,-263.67 188,-263.67 188,-274.33 188,-274.33 188,-279.67 182.67,-285 177.33,-285 177.33,-285 160.67,-285 160.67,-285 155.33,-285 150,-279.67 150,-274.33 150,-274.33 150,-263.67 150,-263.67 150,-258.33 155.33,-253 160.67,-253"/>
<text text-anchor="start" x="155" y="-265.3" font-family="Helvetica,sans-Serif" font-size="14.00">Bne</text>
<path fill="none" stroke="black" d="M160.67,-253C160.67,-253 177.33,-253 177.33,-253 182.67,-253 188,-258.33 188,-263.67 188,-263.67 188,-274.33 188,-274.33 188,-279.67 182.67,-285 177.33,-285 177.33,-285 160.67,-285 160.67,-285 155.33,-285 150,-279.67 150,-274.33 150,-274.33 150,-263.67 150,-263.67 150,-258.33 155.33,-253 160.67,-253"/>
</a>
</g>
</g>
<!-- function&#45;0&#45;RegVal -->
<g id="node7" class="node">
<title>function&#45;0&#45;RegVal</title>
<g id="a_node7"><a xlink:title="Inst&#45;0: function&#45;0&#45;RegVal">
<path fill="white" stroke="transparent" d="M181.17,-174C181.17,-174 216.83,-174 216.83,-174 222.17,-174 227.5,-179.33 227.5,-184.67 227.5,-184.67 227.5,-195.33 227.5,-195.33 227.5,-200.67 222.17,-206 216.83,-206 216.83,-206 181.17,-206 181.17,-206 175.83,-206 170.5,-200.67 170.5,-195.33 170.5,-195.33 170.5,-184.67 170.5,-184.67 170.5,-179.33 175.83,-174 181.17,-174"/>
<text text-anchor="start" x="176" y="-186.3" font-family="Helvetica,sans-Serif" font-size="14.00">RegVal</text>
<path fill="none" stroke="black" d="M181.17,-174C181.17,-174 216.83,-174 216.83,-174 222.17,-174 227.5,-179.33 227.5,-184.67 227.5,-184.67 227.5,-195.33 227.5,-195.33 227.5,-200.67 222.17,-206 216.83,-206 216.83,-206 181.17,-206 181.17,-206 175.83,-206 170.5,-200.67 170.5,-195.33 170.5,-195.33 170.5,-184.67 170.5,-184.67 170.5,-179.33 175.83,-174 181.17,-174"/>
</a>
</g>
</g>
<!-- function&#45;1&#45;RegVal -->
<g id="node8" class="node">
<title>function&#45;1&#45;RegVal</title>
<g id="a_node8"><a xlink:title="Inst&#45;1: function&#45;1&#45;RegVal">
<path fill="white" stroke="transparent" d="M418.17,-174C418.17,-174 453.83,-174 453.83,-174 459.17,-174 464.5,-179.33 464.5,-184.67 464.5,-184.67 464.5,-195.33 464.5,-195.33 464.5,-200.67 459.17,-206 453.83,-206 453.83,-206 418.17,-206 418.17,-206 412.83,-206 407.5,-200.67 407.5,-195.33 407.5,-195.33 407.5,-184.67 407.5,-184.67 407.5,-179.33 412.83,-174 418.17,-174"/>
<text text-anchor="start" x="413" y="-186.3" font-family="Helvetica,sans-Serif" font-size="14.00">RegVal</text>
<path fill="none" stroke="black" d="M418.17,-174C418.17,-174 453.83,-174 453.83,-174 459.17,-174 464.5,-179.33 464.5,-184.67 464.5,-184.67 464.5,-195.33 464.5,-195.33 464.5,-200.67 459.17,-206 453.83,-206 453.83,-206 418.17,-206 418.17,-206 412.83,-206 407.5,-200.67 407.5,-195.33 407.5,-195.33 407.5,-184.67 407.5,-184.67 407.5,-179.33 412.83,-174 418.17,-174"/>
</a>
</g>
</g>
<!-- function&#45;3&#45;Bne -->
<g id="node9" class="node">
<title>function&#45;3&#45;Bne</title>
<g id="a_node9"><a xlink:title="Inst&#45;7: function&#45;3&#45;Bne">
<path fill="white" stroke="transparent" d="M218.67,-253C218.67,-253 235.33,-253 235.33,-253 240.67,-253 246,-258.33 246,-263.67 246,-263.67 246,-274.33 246,-274.33 246,-279.67 240.67,-285 235.33,-285 235.33,-285 218.67,-285 218.67,-285 213.33,-285 208,-279.67 208,-274.33 208,-274.33 208,-263.67 208,-263.67 208,-258.33 213.33,-253 218.67,-253"/>
<text text-anchor="start" x="213" y="-265.3" font-family="Helvetica,sans-Serif" font-size="14.00">Bne</text>
<path fill="none" stroke="black" d="M218.67,-253C218.67,-253 235.33,-253 235.33,-253 240.67,-253 246,-258.33 246,-263.67 246,-263.67 246,-274.33 246,-274.33 246,-279.67 240.67,-285 235.33,-285 235.33,-285 218.67,-285 218.67,-285 213.33,-285 208,-279.67 208,-274.33 208,-274.33 208,-263.67 208,-263.67 208,-258.33 213.33,-253 218.67,-253"/>
</a>
</g>
</g>
<!-- function&#45;2&#45;Seq2 -->
<g id="node10" class="node">
<title>function&#45;2&#45;Seq2</title>
<g id="a_node10"><a xlink:title="Inst&#45;7: function&#45;2&#45;Seq2">
<path fill="white" stroke="transparent" d="M272.67,-253C272.67,-253 297.33,-253 297.33,-253 302.67,-253 308,-258.33 308,-263.67 308,-263.67 308,-274.33 308,-274.33 308,-279.67 302.67,-285 297.33,-285 297.33,-285 272.67,-285 272.67,-285 267.33,-285 262,-279.67 262,-274.33 262,-274.33 262,-263.67 262,-263.67 262,-258.33 267.33,-253 272.67,-253"/>
<text text-anchor="start" x="267" y="-265.3" font-family="Helvetica,sans-Serif" font-size="14.00">Seq2</text>
<path fill="none" stroke="black" d="M272.67,-253C272.67,-253 297.33,-253 297.33,-253 302.67,-253 308,-258.33 308,-263.67 308,-263.67 308,-274.33 308,-274.33 308,-279.67 302.67,-285 297.33,-285 297.33,-285 272.67,-285 272.67,-285 267.33,-285 262,-279.67 262,-274.33 262,-274.33 262,-263.67 262,-263.67 262,-258.33 267.33,-253 272.67,-253"/>
</a>
</g>
</g>
<!-- function&#45;1&#45;Seq2 -->
<g id="node11" class="node">
<title>function&#45;1&#45;Seq2</title>
<g id="a_node11"><a xlink:title="Inst&#45;5: function&#45;1&#45;Seq2">
<path fill="white" stroke="transparent" d="M338.67,-253C338.67,-253 363.33,-253 363.33,-253 368.67,-253 374,-258.33 374,-263.67 374,-263.67 374,-274.33 374,-274.33 374,-279.67 368.67,-285 363.33,-285 363.33,-285 338.67,-285 338.67,-285 333.33,-285 328,-279.67 328,-274.33 328,-274.33 328,-263.67 328,-263.67 328,-258.33 333.33,-253 338.67,-253"/>
<text text-anchor="start" x="333" y="-265.3" font-family="Helvetica,sans-Serif" font-size="14.00">Seq2</text>
<path fill="none" stroke="black" d="M338.67,-253C338.67,-253 363.33,-253 363.33,-253 368.67,-253 374,-258.33 374,-263.67 374,-263.67 374,-274.33 374,-274.33 374,-279.67 368.67,-285 363.33,-285 363.33,-285 338.67,-285 338.67,-285 333.33,-285 328,-279.67 328,-274.33 328,-274.33 328,-263.67 328,-263.67 328,-258.33 333.33,-253 338.67,-253"/>
</a>
</g>
</g>
<!-- function&#45;1&#45;Jal -->
<g id="node12" class="node">
<title>function&#45;1&#45;Jal</title>
<g id="a_node12"><a xlink:title="Inst&#45;8: function&#45;1&#45;Jal">
<path fill="white" stroke="transparent" d="M304.67,-174C304.67,-174 315.33,-174 315.33,-174 320.67,-174 326,-179.33 326,-184.67 326,-184.67 326,-195.33 326,-195.33 326,-200.67 320.67,-206 315.33,-206 315.33,-206 304.67,-206 304.67,-206 299.33,-206 294,-200.67 294,-195.33 294,-195.33 294,-184.67 294,-184.67 294,-179.33 299.33,-174 304.67,-174"/>
<text text-anchor="start" x="301.5" y="-186.3" font-family="Helvetica,sans-Serif" font-size="14.00">Jal</text>
<path fill="none" stroke="black" d="M304.67,-174C304.67,-174 315.33,-174 315.33,-174 320.67,-174 326,-179.33 326,-184.67 326,-184.67 326,-195.33 326,-195.33 326,-200.67 320.67,-206 315.33,-206 315.33,-206 304.67,-206 304.67,-206 299.33,-206 294,-200.67 294,-195.33 294,-195.33 294,-184.67 294,-184.67 294,-179.33 299.33,-174 304.67,-174"/>
</a>
</g>
</g>
<!-- function&#45;0&#45;Beq -->
<g id="node13" class="node">
<title>function&#45;0&#45;Beq</title>
<g id="a_node13"><a xlink:title="Inst&#45;5: function&#45;0&#45;Beq">
<path fill="white" stroke="transparent" d="M400.67,-253C400.67,-253 417.33,-253 417.33,-253 422.67,-253 428,-258.33 428,-263.67 428,-263.67 428,-274.33 428,-274.33 428,-279.67 422.67,-285 417.33,-285 417.33,-285 400.67,-285 400.67,-285 395.33,-285 390,-279.67 390,-274.33 390,-274.33 390,-263.67 390,-263.67 390,-258.33 395.33,-253 400.67,-253"/>
<text text-anchor="start" x="395" y="-265.3" font-family="Helvetica,sans-Serif" font-size="14.00">Beq</text>
<path fill="none" stroke="black" d="M400.67,-253C400.67,-253 417.33,-253 417.33,-253 422.67,-253 428,-258.33 428,-263.67 428,-263.67 428,-274.33 428,-274.33 428,-279.67 422.67,-285 417.33,-285 417.33,-285 400.67,-285 400.67,-285 395.33,-285 390,-279.67 390,-274.33 390,-274.33 390,-263.67 390,-263.67 390,-258.33 395.33,-253 400.67,-253"/>
</a>
</g>
</g>
<!-- function&#45;1&#45;Beq -->
<g id="node14" class="node">
<title>function&#45;1&#45;Beq</title>
<g id="a_node14"><a xlink:title="Inst&#45;5: function&#45;1&#45;Beq">
<path fill="white" stroke="transparent" d="M458.67,-253C458.67,-253 475.33,-253 475.33,-253 480.67,-253 486,-258.33 486,-263.67 486,-263.67 486,-274.33 486,-274.33 486,-279.67 480.67,-285 475.33,-285 475.33,-285 458.67,-285 458.67,-285 453.33,-285 448,-279.67 448,-274.33 448,-274.33 448,-263.67 448,-263.67 448,-258.33 453.33,-253 458.67,-253"/>
<text text-anchor="start" x="453" y="-265.3" font-family="Helvetica,sans-Serif" font-size="14.00">Beq</text>
<path fill="none" stroke="black" d="M458.67,-253C458.67,-253 475.33,-253 475.33,-253 480.67,-253 486,-258.33 486,-263.67 486,-263.67 486,-274.33 486,-274.33 486,-279.67 480.67,-285 475.33,-285 475.33,-285 458.67,-285 458.67,-285 453.33,-285 448,-279.67 448,-274.33 448,-274.33 448,-263.67 448,-263.67 448,-258.33 453.33,-253 458.67,-253"/>
</a>
</g>
</g>
<!-- function&#45;0&#45;Bne -->
<g id="node15" class="node">
<title>function&#45;0&#45;Bne</title>
<g id="a_node15"><a xlink:title="Inst&#45;3: function&#45;0&#45;Bne">
<path fill="white" stroke="transparent" d="M148.67,-332C148.67,-332 165.33,-332 165.33,-332 170.67,-332 176,-337.33 176,-342.67 176,-342.67 176,-353.33 176,-353.33 176,-358.67 170.67,-364 165.33,-364 165.33,-364 148.67,-364 148.67,-364 143.33,-364 138,-358.67 138,-353.33 138,-353.33 138,-342.67 138,-342.67 138,-337.33 143.33,-332 148.67,-332"/>
<text text-anchor="start" x="143" y="-344.3" font-family="Helvetica,sans-Serif" font-size="14.00">Bne</text>
<path fill="none" stroke="black" d="M148.67,-332C148.67,-332 165.33,-332 165.33,-332 170.67,-332 176,-337.33 176,-342.67 176,-342.67 176,-353.33 176,-353.33 176,-358.67 170.67,-364 165.33,-364 165.33,-364 148.67,-364 148.67,-364 143.33,-364 138,-358.67 138,-353.33 138,-353.33 138,-342.67 138,-342.67 138,-337.33 143.33,-332 148.67,-332"/>
</a>
</g>
</g>
<!-- function&#45;1&#45;Bne -->
<g id="node16" class="node">
<title>function&#45;1&#45;Bne</title>
<g id="a_node16"><a xlink:title="Inst&#45;3: function&#45;1&#45;Bne">
<path fill="white" stroke="transparent" d="M90.67,-332C90.67,-332 107.33,-332 107.33,-332 112.67,-332 118,-337.33 118,-342.67 118,-342.67 118,-353.33 118,-353.33 118,-358.67 112.67,-364 107.33,-364 107.33,-364 90.67,-364 90.67,-364 85.33,-364 80,-358.67 80,-353.33 80,-353.33 80,-342.67 80,-342.67 80,-337.33 85.33,-332 90.67,-332"/>
<text text-anchor="start" x="85" y="-344.3" font-family="Helvetica,sans-Serif" font-size="14.00">Bne</text>
<path fill="none" stroke="black" d="M90.67,-332C90.67,-332 107.33,-332 107.33,-332 112.67,-332 118,-337.33 118,-342.67 118,-342.67 118,-353.33 118,-353.33 118,-358.67 112.67,-364 107.33,-364 107.33,-364 90.67,-364 90.67,-364 85.33,-364 80,-358.67 80,-353.33 80,-353.33 80,-342.67 80,-342.67 80,-337.33 85.33,-332 90.67,-332"/>
</a>
</g>
</g>
<!-- function&#45;0&#45;Seq2 -->
<g id="node17" class="node">
<title>function&#45;0&#45;Seq2</title>
<g id="a_node17"><a xlink:title="Inst&#45;3: function&#45;0&#45;Seq2">
<path fill="white" stroke="transparent" d="M28.67,-332C28.67,-332 53.33,-332 53.33,-332 58.67,-332 64,-337.33 64,-342.67 64,-342.67 64,-353.33 64,-353.33 64,-358.67 58.67,-364 53.33,-364 53.33,-364 28.67,-364 28.67,-364 23.33,-364 18,-358.67 18,-353.33 18,-353.33 18,-342.67 18,-342.67 18,-337.33 23.33,-332 28.67,-332"/>
<text text-anchor="start" x="23" y="-344.3" font-family="Helvetica,sans-Serif" font-size="14.00">Seq2</text>
<path fill="none" stroke="black" d="M28.67,-332C28.67,-332 53.33,-332 53.33,-332 58.67,-332 64,-337.33 64,-342.67 64,-342.67 64,-353.33 64,-353.33 64,-358.67 58.67,-364 53.33,-364 53.33,-364 28.67,-364 28.67,-364 23.33,-364 18,-358.67 18,-353.33 18,-353.33 18,-342.67 18,-342.67 18,-337.33 23.33,-332 28.67,-332"/>
</a>
</g>
</g>
<!-- primitive&#45;String&#45;1 -->
<g id="node18" class="node">
<title>primitive&#45;String&#45;1</title>
<g id="a_node18"><a xlink:title="String&#45;1: primitive&#45;String&#45;1">
<path fill="white" stroke="transparent" d="M413.17,-95C413.17,-95 460.83,-95 460.83,-95 466.17,-95 471.5,-100.33 471.5,-105.67 471.5,-105.67 471.5,-116.33 471.5,-116.33 471.5,-121.67 466.17,-127 460.83,-127 460.83,-127 413.17,-127 413.17,-127 407.83,-127 402.5,-121.67 402.5,-116.33 402.5,-116.33 402.5,-105.67 402.5,-105.67 402.5,-100.33 407.83,-95 413.17,-95"/>
<text text-anchor="start" x="408" y="-107.3" font-family="Helvetica,sans-Serif" font-size="14.00">&quot;zero_0&quot;</text>
<path fill="none" stroke="black" d="M413.17,-95C413.17,-95 460.83,-95 460.83,-95 466.17,-95 471.5,-100.33 471.5,-105.67 471.5,-105.67 471.5,-116.33 471.5,-116.33 471.5,-121.67 466.17,-127 460.83,-127 460.83,-127 413.17,-127 413.17,-127 407.83,-127 402.5,-121.67 402.5,-116.33 402.5,-116.33 402.5,-105.67 402.5,-105.67 402.5,-100.33 407.83,-95 413.17,-95"/>
</a>
</g>
</g>
<!-- primitive&#45;String&#45;0 -->
<g id="node19" class="node">
<title>primitive&#45;String&#45;0</title>
<g id="a_node19"><a xlink:title="String&#45;0: primitive&#45;String&#45;0">
<path fill="white" stroke="transparent" d="M182.17,-95C182.17,-95 217.83,-95 217.83,-95 223.17,-95 228.5,-100.33 228.5,-105.67 228.5,-105.67 228.5,-116.33 228.5,-116.33 228.5,-121.67 223.17,-127 217.83,-127 217.83,-127 182.17,-127 182.17,-127 176.83,-127 171.5,-121.67 171.5,-116.33 171.5,-116.33 171.5,-105.67 171.5,-105.67 171.5,-100.33 176.83,-95 182.17,-95"/>
<text text-anchor="start" x="177" y="-107.3" font-family="Helvetica,sans-Serif" font-size="14.00">&quot;a7_0&quot;</text>
<path fill="none" stroke="black" d="M182.17,-95C182.17,-95 217.83,-95 217.83,-95 223.17,-95 228.5,-100.33 228.5,-105.67 228.5,-105.67 228.5,-116.33 228.5,-116.33 228.5,-121.67 223.17,-127 217.83,-127 217.83,-127 182.17,-127 182.17,-127 176.83,-127 171.5,-121.67 171.5,-116.33 171.5,-116.33 171.5,-105.67 171.5,-105.67 171.5,-100.33 176.83,-95 182.17,-95"/>
</a>
</g>
</g>
</g>
</svg>
