<?xml version="1.0" encoding="UTF-8" standalone="no"?>
<!DOCTYPE svg PUBLIC "-//W3C//DTD SVG 1.1//EN"
 "http://www.w3.org/Graphics/SVG/1.1/DTD/svg11.dtd">
<!-- Generated by graphviz version 2.43.0 (0)
 -->
<!-- Title: %3 Pages: 1 -->
<svg width="526pt" height="388pt"
 viewBox="0.00 0.00 526.22 388.00" xmlns="http://www.w3.org/2000/svg" xmlns:xlink="http://www.w3.org/1999/xlink">
<g id="graph0" class="graph" transform="scale(1 1) rotate(0) translate(4 384)">
<title>%3</title>
<polygon fill="white" stroke="#000000" points="-4,4 -4,-384 522.22,-384 522.22,4 -4,4"/>
<g id="clust1" class="cluster">
<title>outer_cluster_Imm&#45;4</title>
</g>
<g id="clust2" class="cluster">
<title>cluster_Imm&#45;4</title>
<path fill="#ffffb3" stroke="black" stroke-dasharray="5,2" d="M88,-169C88,-169 132,-169 132,-169 138,-169 144,-175 144,-181 144,-181 144,-199 144,-199 144,-205 138,-211 132,-211 132,-211 88,-211 88,-211 82,-211 76,-205 76,-199 76,-199 76,-181 76,-181 76,-175 82,-169 88,-169"/>
</g>
<g id="clust4" class="cluster">
<title>outer_cluster_Imm&#45;2</title>
</g>
<g id="clust5" class="cluster">
<title>cluster_Imm&#45;2</title>
<path fill="#ffffb3" stroke="black" stroke-dasharray="5,2" d="M158,-90C158,-90 202,-90 202,-90 208,-90 214,-96 214,-102 214,-102 214,-120 214,-120 214,-126 208,-132 202,-132 202,-132 158,-132 158,-132 152,-132 146,-126 146,-120 146,-120 146,-102 146,-102 146,-96 152,-90 158,-90"/>
</g>
<g id="clust7" class="cluster">
<title>outer_cluster_Imm&#45;6</title>
</g>
<g id="clust8" class="cluster">
<title>cluster_Imm&#45;6</title>
<path fill="#ffffb3" stroke="black" stroke-dasharray="5,2" d="M302,-90C302,-90 346,-90 346,-90 352,-90 358,-96 358,-102 358,-102 358,-120 358,-120 358,-126 352,-132 346,-132 346,-132 302,-132 302,-132 296,-132 290,-126 290,-120 290,-120 290,-102 290,-102 290,-96 296,-90 302,-90"/>
</g>
<g id="clust10" class="cluster">
<title>outer_cluster_Inst&#45;0</title>
</g>
<g id="clust11" class="cluster">
<title>cluster_Inst&#45;0</title>
<path fill="#bebada" stroke="black" stroke-dasharray="5,2" d="M232,-90C232,-90 272,-90 272,-90 278,-90 284,-96 284,-102 284,-102 284,-120 284,-120 284,-126 278,-132 272,-132 272,-132 232,-132 232,-132 226,-132 220,-126 220,-120 220,-120 220,-102 220,-102 220,-96 226,-90 232,-90"/>
</g>
<g id="clust13" class="cluster">
<title>outer_cluster_Inst&#45;8</title>
</g>
<g id="clust14" class="cluster">
<title>cluster_Inst&#45;8</title>
<path fill="#bebada" stroke="black" stroke-dasharray="5,2" d="M37,-248C37,-248 73,-248 73,-248 79,-248 85,-254 85,-260 85,-260 85,-278 85,-278 85,-284 79,-290 73,-290 73,-290 37,-290 37,-290 31,-290 25,-284 25,-278 25,-278 25,-260 25,-260 25,-254 31,-248 37,-248"/>
</g>
<g id="clust16" class="cluster">
<title>outer_cluster_Inst&#45;10</title>
</g>
<g id="clust17" class="cluster">
<title>cluster_Inst&#45;10</title>
<path fill="#bebada" stroke="black" stroke-dasharray="5,2" d="M151,-248C151,-248 303,-248 303,-248 309,-248 315,-254 315,-260 315,-260 315,-278 315,-278 315,-284 309,-290 303,-290 303,-290 151,-290 151,-290 145,-290 139,-284 139,-278 139,-278 139,-260 139,-260 139,-254 145,-248 151,-248"/>
</g>
<g id="clust19" class="cluster">
<title>outer_cluster_Inst&#45;3</title>
</g>
<g id="clust20" class="cluster">
<title>cluster_Inst&#45;3</title>
<path fill="#bebada" stroke="black" stroke-dasharray="5,2" d="M168,-169C168,-169 204,-169 204,-169 210,-169 216,-175 216,-181 216,-181 216,-199 216,-199 216,-205 210,-211 204,-211 204,-211 168,-211 168,-211 162,-211 156,-205 156,-199 156,-199 156,-181 156,-181 156,-175 162,-169 168,-169"/>
</g>
<g id="clust22" class="cluster">
<title>outer_cluster_Inst&#45;1</title>
</g>
<g id="clust23" class="cluster">
<title>cluster_Inst&#45;1</title>
<path fill="#bebada" stroke="black" stroke-dasharray="5,2" d="M416,-169C416,-169 456,-169 456,-169 462,-169 468,-175 468,-181 468,-181 468,-199 468,-199 468,-205 462,-211 456,-211 456,-211 416,-211 416,-211 410,-211 404,-205 404,-199 404,-199 404,-181 404,-181 404,-175 410,-169 416,-169"/>
</g>
<g id="clust25" class="cluster">
<title>outer_cluster_Inst&#45;11</title>
</g>
<g id="clust26" class="cluster">
<title>cluster_Inst&#45;11</title>
<path fill="#bebada" stroke="black" stroke-dasharray="5,2" d="M306,-169C306,-169 342,-169 342,-169 348,-169 354,-175 354,-181 354,-181 354,-199 354,-199 354,-205 348,-211 342,-211 342,-211 306,-211 306,-211 300,-211 294,-205 294,-199 294,-199 294,-181 294,-181 294,-175 300,-169 306,-169"/>
</g>
<g id="clust28" class="cluster">
<title>outer_cluster_Inst&#45;7</title>
</g>
<g id="clust29" class="cluster">
<title>cluster_Inst&#45;7</title>
<path fill="#bebada" stroke="black" stroke-dasharray="5,2" d="M333,-248C333,-248 485,-248 485,-248 491,-248 497,-254 497,-260 497,-260 497,-278 497,-278 497,-284 491,-290 485,-290 485,-290 333,-290 333,-290 327,-290 321,-284 321,-278 321,-278 321,-260 321,-260 321,-254 327,-248 333,-248"/>
</g>
<g id="clust31" class="cluster">
<title>outer_cluster_Inst&#45;5</title>
</g>
<g id="clust32" class="cluster">
<title>cluster_Inst&#45;5</title>
<path fill="#bebada" stroke="black" stroke-dasharray="5,2" d="M23,-327C23,-327 175,-327 175,-327 181,-327 187,-333 187,-339 187,-339 187,-357 187,-357 187,-363 181,-369 175,-369 175,-369 23,-369 23,-369 17,-369 11,-363 11,-357 11,-357 11,-339 11,-339 11,-333 17,-327 23,-327"/>
</g>
<g id="clust34" class="cluster">
<title>outer_cluster_String&#45;1</title>
</g>
<g id="clust35" class="cluster">
<title>cluster_String&#45;1</title>
<path fill="#fb8072" stroke="black" stroke-dasharray="5,2" d="M411,-90C411,-90 463,-90 463,-90 469,-90 475,-96 475,-102 475,-102 475,-120 475,-120 475,-126 469,-132 463,-132 463,-132 411,-132 411,-132 405,-132 399,-126 399,-120 399,-120 399,-102 399,-102 399,-96 405,-90 411,-90"/>
</g>
<g id="clust37" class="cluster">
<title>outer_cluster_String&#45;0</title>
</g>
<g id="clust38" class="cluster">
<title>cluster_String&#45;0</title>
<path fill="#fb8072" stroke="black" stroke-dasharray="5,2" d="M233,-11C233,-11 273,-11 273,-11 279,-11 285,-17 285,-23 285,-23 285,-41 285,-41 285,-47 279,-53 273,-53 273,-53 233,-53 233,-53 227,-53 221,-47 221,-41 221,-41 221,-23 221,-23 221,-17 227,-11 233,-11"/>
</g>
<g id="clust40" class="cluster">
<title>outer_cluster_i64&#45;2147483648</title>
</g>
<g id="clust41" class="cluster">
<title>cluster_i64&#45;2147483648</title>
<path fill="#80b1d3" stroke="black" stroke-dasharray="5,2" d="M162,-11C162,-11 198,-11 198,-11 204,-11 210,-17 210,-23 210,-23 210,-41 210,-41 210,-47 204,-53 198,-53 198,-53 162,-53 162,-53 156,-53 150,-47 150,-41 150,-41 150,-23 150,-23 150,-17 156,-11 162,-11"/>
</g>
<g id="clust43" class="cluster">
<title>outer_cluster_i64&#45;0</title>
</g>
<g id="clust44" class="cluster">
<title>cluster_i64&#45;0</title>
<path fill="#80b1d3" stroke="black" stroke-dasharray="5,2" d="M92,-90C92,-90 128,-90 128,-90 134,-90 140,-96 140,-102 140,-102 140,-120 140,-120 140,-126 134,-132 128,-132 128,-132 92,-132 92,-132 86,-132 80,-126 80,-120 80,-120 80,-102 80,-102 80,-96 86,-90 92,-90"/>
</g>
<g id="clust46" class="cluster">
<title>outer_cluster_i64&#45;4</title>
</g>
<g id="clust47" class="cluster">
<title>cluster_i64&#45;4</title>
<path fill="#80b1d3" stroke="black" stroke-dasharray="5,2" d="M306,-11C306,-11 342,-11 342,-11 348,-11 354,-17 354,-23 354,-23 354,-41 354,-41 354,-47 348,-53 342,-53 342,-53 306,-53 306,-53 300,-53 294,-47 294,-41 294,-41 294,-23 294,-23 294,-17 300,-11 306,-11"/>
</g>
<!-- function&#45;1&#45;ImmVal&#45;&gt;primitive&#45;i64&#45;0 -->
<g id="edge1" class="edge">
<title>function&#45;1&#45;ImmVal:s&#45;&gt;primitive&#45;i64&#45;0</title>
<path fill="none" stroke="black" d="M110,-174C110,-160.84 110,-146.11 110,-134.3"/>
<polygon fill="black" stroke="black" points="111.75,-137 110,-132 108.25,-137 111.75,-137"/>
</g>
<!-- function&#45;0&#45;ImmVal&#45;&gt;primitive&#45;i64&#45;2147483648 -->
<g id="edge2" class="edge">
<title>function&#45;0&#45;ImmVal:s&#45;&gt;primitive&#45;i64&#45;2147483648</title>
<path fill="none" stroke="black" d="M180,-95C180,-81.84 180,-67.11 180,-55.3"/>
<polygon fill="black" stroke="black" points="181.75,-58 180,-53 178.25,-58 181.75,-58"/>
</g>
<!-- function&#45;2&#45;ImmVal&#45;&gt;primitive&#45;i64&#45;4 -->
<g id="edge3" class="edge">
<title>function&#45;2&#45;ImmVal:s&#45;&gt;primitive&#45;i64&#45;4</title>
<path fill="none" stroke="black" d="M324,-95C324,-81.84 324,-67.11 324,-55.3"/>
<polygon fill="black" stroke="black" points="325.75,-58 324,-53 322.25,-58 325.75,-58"/>
</g>
<!-- function&#45;0&#45;RegVal&#45;&gt;primitive&#45;String&#45;0 -->
<g id="edge4" class="edge">
<title>function&#45;0&#45;RegVal:s&#45;&gt;primitive&#45;String&#45;0</title>
<path fill="none" stroke="black" d="M253,-95C253,-81.84 253,-67.11 253,-55.3"/>
<polygon fill="black" stroke="black" points="254.75,-58 253,-53 251.25,-58 254.75,-58"/>
</g>
<!-- function&#45;0&#45;Jal&#45;&gt;function&#45;1&#45;ImmVal -->
<g id="edge5" class="edge">
<title>function&#45;0&#45;Jal:s&#45;&gt;function&#45;1&#45;ImmVal</title>
<path fill="none" stroke="black" d="M55,-253C55,-236.31 66.29,-222.01 78.64,-211.37"/>
<polygon fill="black" stroke="black" points="75.61,-214.6 79.5,-211 74.22,-211.38 75.61,-214.6"/>
</g>
<!-- function&#45;2&#45;Beq&#45;&gt;function&#45;2&#45;ImmVal -->
<g id="edge8" class="edge">
<title>function&#45;2&#45;Beq:s&#45;&gt;function&#45;2&#45;ImmVal</title>
<path fill="none" stroke="black" d="M183,-253C183,-230 202.08,-231.5 217,-214 235.01,-192.87 237.2,-185.47 257,-166 269.15,-154.05 283.78,-142.02 296.27,-132.36"/>
<polygon fill="black" stroke="black" points="293.17,-135.17 297.41,-132 292.12,-131.84 293.17,-135.17"/>
</g>
<!-- function&#45;2&#45;Beq&#45;&gt;function&#45;0&#45;Addi -->
<g id="edge6" class="edge">
<title>function&#45;2&#45;Beq:s&#45;&gt;function&#45;0&#45;Addi</title>
<path fill="none" stroke="black" d="M160,-253C160,-238.78 165.89,-224.05 172.06,-212.52"/>
<polygon fill="black" stroke="black" points="171.32,-215.82 173.52,-211 168.8,-213.4 171.32,-215.82"/>
</g>
<!-- function&#45;2&#45;Beq&#45;&gt;function&#45;1&#45;RegVal -->
<g id="edge7" class="edge">
<title>function&#45;2&#45;Beq:s&#45;&gt;function&#45;1&#45;RegVal</title>
<path fill="none" stroke="black" d="M174,-253C174,-240.91 188.28,-247.97 200,-245 268.1,-227.76 286.71,-230.5 355,-214 370.7,-210.21 387.94,-205.4 402.47,-201.17"/>
<polygon fill="black" stroke="black" points="401.51,-204.43 404,-199.75 399.14,-201.85 401.51,-204.43"/>
</g>
<!-- function&#45;0&#45;Addi&#45;&gt;function&#45;0&#45;ImmVal -->
<g id="edge15" class="edge">
<title>function&#45;0&#45;Addi:s&#45;&gt;function&#45;0&#45;ImmVal</title>
<path fill="none" stroke="black" d="M196,-174C196,-160.38 192.34,-145.6 188.52,-133.89"/>
<polygon fill="black" stroke="black" points="191.48,-134.63 186.88,-132 188.83,-136.92 191.48,-134.63"/>
</g>
<!-- function&#45;0&#45;Addi&#45;&gt;function&#45;0&#45;RegVal -->
<g id="edge14" class="edge">
<title>function&#45;0&#45;Addi:s&#45;&gt;function&#45;0&#45;RegVal</title>
<path fill="none" stroke="black" d="M176,-174C176,-167.65 201.77,-147.68 223.29,-132.1"/>
<polygon fill="black" stroke="black" points="219.54,-135.48 223.53,-132 218.24,-132.23 219.54,-135.48"/>
</g>
<!-- function&#45;1&#45;RegVal&#45;&gt;primitive&#45;String&#45;1 -->
<g id="edge16" class="edge">
<title>function&#45;1&#45;RegVal:s&#45;&gt;primitive&#45;String&#45;1</title>
<path fill="none" stroke="black" d="M437,-174C437,-160.84 437,-146.11 437,-134.3"/>
<polygon fill="black" stroke="black" points="438.75,-137 437,-132 435.25,-137 438.75,-137"/>
</g>
<!-- function&#45;3&#45;Beq&#45;&gt;function&#45;2&#45;ImmVal -->
<g id="edge11" class="edge">
<title>function&#45;3&#45;Beq:s&#45;&gt;function&#45;2&#45;ImmVal</title>
<path fill="none" stroke="black" d="M241,-253C241,-227.04 283.32,-166.26 307.52,-133.63"/>
<polygon fill="black" stroke="black" points="306.74,-136.42 309.66,-132 304.62,-133.63 306.74,-136.42"/>
</g>
<!-- function&#45;3&#45;Beq&#45;&gt;function&#45;0&#45;Addi -->
<g id="edge10" class="edge">
<title>function&#45;3&#45;Beq:s&#45;&gt;function&#45;0&#45;Addi</title>
<path fill="none" stroke="black" d="M232,-253C232,-237.1 222.13,-222.63 211.53,-211.67"/>
<polygon fill="black" stroke="black" points="215.21,-211.32 209.92,-211 213.86,-214.54 215.21,-211.32"/>
</g>
<!-- function&#45;3&#45;Beq&#45;&gt;function&#45;1&#45;RegVal -->
<g id="edge9" class="edge">
<title>function&#45;3&#45;Beq:s&#45;&gt;function&#45;1&#45;RegVal</title>
<path fill="none" stroke="black" d="M218,-253C218,-253 340.75,-218.09 402.03,-200.66"/>
<polygon fill="black" stroke="black" points="400.98,-203.59 404,-199.23 398.93,-200.75 400.98,-203.59"/>
</g>
<!-- function&#45;2&#45;Seq2&#45;&gt;function&#45;1&#45;Seq2 -->
<g id="edge12" class="edge">
<title>function&#45;2&#45;Seq2:s&#45;&gt;function&#45;1&#45;Seq2</title>
<path fill="none" stroke="black" d="M274,-253C274,-232.44 298.08,-239.47 319.13,-249.89"/>
<polygon fill="black" stroke="black" points="315.96,-249.68 321,-251.3 318.07,-246.89 315.96,-249.68"/>
</g>
<!-- function&#45;2&#45;Seq2&#45;&gt;function&#45;1&#45;Jal -->
<g id="edge13" class="edge">
<title>function&#45;2&#45;Seq2:s&#45;&gt;function&#45;1&#45;Jal</title>
<path fill="none" stroke="black" d="M296,-253C296,-238.72 302.25,-224.09 308.84,-212.63"/>
<polygon fill="black" stroke="black" points="308.18,-215.78 310.47,-211 305.7,-213.3 308.18,-215.78"/>
</g>
<!-- function&#45;1&#45;Seq2&#45;&gt;function&#45;2&#45;Beq -->
<g id="edge24" class="edge">
<title>function&#45;1&#45;Seq2:s&#45;&gt;function&#45;2&#45;Beq</title>
<path fill="none" stroke="black" d="M340,-253C340,-190.28 257.87,-195 202,-223.5 192.47,-228.36 185.04,-237.41 179.67,-246.17"/>
<polygon fill="black" stroke="black" points="180.12,-243.19 177.9,-248 182.63,-245.62 180.12,-243.19"/>
</g>
<!-- function&#45;1&#45;Seq2&#45;&gt;function&#45;1&#45;Jal -->
<g id="edge25" class="edge">
<title>function&#45;1&#45;Seq2:s&#45;&gt;function&#45;1&#45;Jal</title>
<path fill="none" stroke="black" d="M362,-253C362,-237.82 353.62,-223.22 344.73,-212.01"/>
<polygon fill="black" stroke="black" points="348.45,-212.72 343.44,-211 346.29,-215.47 348.45,-212.72"/>
</g>
<!-- function&#45;1&#45;Jal&#45;&gt;function&#45;2&#45;ImmVal -->
<g id="edge17" class="edge">
<title>function&#45;1&#45;Jal:s&#45;&gt;function&#45;2&#45;ImmVal</title>
<path fill="none" stroke="black" d="M324,-174C324,-160.84 324,-146.11 324,-134.3"/>
<polygon fill="black" stroke="black" points="325.75,-137 324,-132 322.25,-137 325.75,-137"/>
</g>
<!-- function&#45;0&#45;Bne&#45;&gt;function&#45;2&#45;ImmVal -->
<g id="edge20" class="edge">
<title>function&#45;0&#45;Bne:s&#45;&gt;function&#45;2&#45;ImmVal</title>
<path fill="none" stroke="black" d="M423,-253C423,-230.86 405.04,-231.89 392,-214 372.22,-186.86 350.99,-154.43 337.62,-133.54"/>
<polygon fill="black" stroke="black" points="340.78,-134.01 335.88,-132 338.46,-136.63 340.78,-134.01"/>
</g>
<!-- function&#45;0&#45;Bne&#45;&gt;function&#45;0&#45;Addi -->
<g id="edge18" class="edge">
<title>function&#45;0&#45;Bne:s&#45;&gt;function&#45;0&#45;Addi</title>
<path fill="none" stroke="black" d="M400,-253C400,-243.64 277.66,-212.99 217.98,-198.6"/>
<polygon fill="black" stroke="black" points="221.19,-198.46 216,-197.42 219.41,-201.47 221.19,-198.46"/>
</g>
<!-- function&#45;0&#45;Bne&#45;&gt;function&#45;1&#45;RegVal -->
<g id="edge19" class="edge">
<title>function&#45;0&#45;Bne:s&#45;&gt;function&#45;1&#45;RegVal</title>
<path fill="none" stroke="black" d="M414,-253C414,-239.11 418.97,-224.42 424.18,-212.83"/>
<polygon fill="black" stroke="black" points="424.07,-216.12 425.41,-211 421.17,-214.17 424.07,-216.12"/>
</g>
<!-- function&#45;1&#45;Bne&#45;&gt;function&#45;2&#45;ImmVal -->
<g id="edge23" class="edge">
<title>function&#45;1&#45;Bne:s&#45;&gt;function&#45;2&#45;ImmVal</title>
<path fill="none" stroke="black" d="M481,-253C481,-214.24 430.41,-241.41 403,-214 386.13,-197.13 393.03,-185.29 379,-166 370.16,-153.86 358.51,-141.98 348.2,-132.48"/>
<polygon fill="black" stroke="black" points="352.61,-133.28 347.47,-132 350.69,-136.21 352.61,-133.28"/>
</g>
<!-- function&#45;1&#45;Bne&#45;&gt;function&#45;0&#45;Addi -->
<g id="edge22" class="edge">
<title>function&#45;1&#45;Bne:s&#45;&gt;function&#45;0&#45;Addi</title>
<path fill="none" stroke="black" d="M472,-253C472,-252.6 293.24,-214.08 218.37,-197.96"/>
<polygon fill="black" stroke="black" points="221.27,-197.4 216,-196.84 219.77,-200.56 221.27,-197.4"/>
</g>
<!-- function&#45;1&#45;Bne&#45;&gt;function&#45;1&#45;RegVal -->
<g id="edge21" class="edge">
<title>function&#45;1&#45;Bne:s&#45;&gt;function&#45;1&#45;RegVal</title>
<path fill="none" stroke="black" d="M458,-253C458,-239.11 453.03,-224.42 447.82,-212.83"/>
<polygon fill="black" stroke="black" points="450.83,-214.17 446.59,-211 447.93,-216.12 450.83,-214.17"/>
</g>
<!-- function&#45;0&#45;Beq&#45;&gt;function&#45;1&#45;ImmVal -->
<g id="edge28" class="edge">
<title>function&#45;0&#45;Beq:s&#45;&gt;function&#45;1&#45;ImmVal</title>
<path fill="none" stroke="black" d="M171,-332C171,-309.29 148.59,-313.09 138,-293 124.5,-267.39 117.01,-234.64 113.25,-213.26"/>
<polygon fill="black" stroke="black" points="115.81,-215.03 112.37,-211 112.55,-216.29 115.81,-215.03"/>
</g>
<!-- function&#45;0&#45;Beq&#45;&gt;function&#45;0&#45;Addi -->
<g id="edge26" class="edge">
<title>function&#45;0&#45;Beq:s&#45;&gt;function&#45;0&#45;Addi</title>
<path fill="none" stroke="black" d="M148,-332C148,-314.11 140.24,-310.75 138,-293 135.33,-271.83 130.42,-264.94 138,-245 142.76,-232.48 151.89,-221.02 160.93,-211.9"/>
<polygon fill="black" stroke="black" points="159.05,-214.76 162.78,-211 157.52,-211.61 159.05,-214.76"/>
</g>
<!-- function&#45;0&#45;Beq&#45;&gt;function&#45;1&#45;RegVal -->
<g id="edge27" class="edge">
<title>function&#45;0&#45;Beq:s&#45;&gt;function&#45;1&#45;RegVal</title>
<path fill="none" stroke="black" d="M162,-332C162,-254.4 457.29,-350.85 509,-293 523.22,-277.09 518.6,-264.05 509,-245 500.58,-228.29 484.26,-215.46 469.19,-206.51"/>
<polygon fill="black" stroke="black" points="472.35,-207.89 468,-204.86 469.51,-209.94 472.35,-207.89"/>
</g>
<!-- function&#45;1&#45;Beq&#45;&gt;function&#45;1&#45;ImmVal -->
<g id="edge31" class="edge">
<title>function&#45;1&#45;Beq:s&#45;&gt;function&#45;1&#45;ImmVal</title>
<path fill="none" stroke="black" d="M113,-332C113,-290.22 111.67,-241.5 110.78,-213.65"/>
<polygon fill="black" stroke="black" points="112.68,-215.88 110.61,-211 109.18,-216.1 112.68,-215.88"/>
</g>
<!-- function&#45;1&#45;Beq&#45;&gt;function&#45;0&#45;Addi -->
<g id="edge30" class="edge">
<title>function&#45;1&#45;Beq:s&#45;&gt;function&#45;0&#45;Addi</title>
<path fill="none" stroke="black" d="M104,-332C104,-291.38 110.82,-279.66 132,-245 139.57,-232.61 150.54,-220.95 160.61,-211.65"/>
<polygon fill="black" stroke="black" points="158.42,-215.26 161.57,-211 156.45,-212.36 158.42,-215.26"/>
</g>
<!-- function&#45;1&#45;Beq&#45;&gt;function&#45;1&#45;RegVal -->
<g id="edge29" class="edge">
<title>function&#45;1&#45;Beq:s&#45;&gt;function&#45;1&#45;RegVal</title>
<path fill="none" stroke="black" d="M90,-332C90,-240.92 436.36,-360.05 498,-293 512.44,-277.29 506.84,-264.42 498,-245 491.79,-231.35 480.22,-219.8 468.75,-210.94"/>
<polygon fill="black" stroke="black" points="472.21,-213 468,-209.79 469.29,-214.93 472.21,-213"/>
</g>
<!-- function&#45;0&#45;Seq2&#45;&gt;function&#45;0&#45;Jal -->
<g id="edge33" class="edge">
<title>function&#45;0&#45;Seq2:s&#45;&gt;function&#45;0&#45;Jal</title>
<path fill="none" stroke="black" d="M52,-332C52,-318.82 52.68,-304.09 53.4,-292.29"/>
<polygon fill="black" stroke="black" points="54.75,-295.2 53.73,-290 51.29,-294.7 54.75,-295.2"/>
</g>
<!-- function&#45;0&#45;Seq2&#45;&gt;function&#45;0&#45;Bne -->
<g id="edge32" class="edge">
<title>function&#45;0&#45;Seq2:s&#45;&gt;function&#45;0&#45;Bne</title>
<path fill="none" stroke="black" d="M30,-332C30,-293.09 341.72,-307.06 378,-293 378.54,-292.79 379.07,-292.57 379.61,-292.34"/>
<polygon fill="black" stroke="black" points="380.65,-293.78 384.36,-290 379.1,-290.64 380.65,-293.78"/>
</g>
<!-- function&#45;1&#45;ImmVal -->
<g id="node1" class="node">
<title>function&#45;1&#45;ImmVal</title>
<g id="a_node1"><a xlink:title="Imm&#45;4: function&#45;1&#45;ImmVal">
<path fill="white" stroke="transparent" d="M89.67,-174C89.67,-174 130.33,-174 130.33,-174 135.67,-174 141,-179.33 141,-184.67 141,-184.67 141,-195.33 141,-195.33 141,-200.67 135.67,-206 130.33,-206 130.33,-206 89.67,-206 89.67,-206 84.33,-206 79,-200.67 79,-195.33 79,-195.33 79,-184.67 79,-184.67 79,-179.33 84.33,-174 89.67,-174"/>
<text text-anchor="start" x="84" y="-186.3" font-family="Helvetica,sans-Serif" font-size="14.00">ImmVal</text>
<path fill="none" stroke="black" d="M89.67,-174C89.67,-174 130.33,-174 130.33,-174 135.67,-174 141,-179.33 141,-184.67 141,-184.67 141,-195.33 141,-195.33 141,-200.67 135.67,-206 130.33,-206 130.33,-206 89.67,-206 89.67,-206 84.33,-206 79,-200.67 79,-195.33 79,-195.33 79,-184.67 79,-184.67 79,-179.33 84.33,-174 89.67,-174"/>
</a>
</g>
</g>
<!-- primitive&#45;i64&#45;0 -->
<g id="node2" class="node">
<title>primitive&#45;i64&#45;0</title>
<g id="a_node2"><a xlink:title="i64&#45;0: primitive&#45;i64&#45;0">
<path fill="white" stroke="transparent" d="M104.67,-95C104.67,-95 115.33,-95 115.33,-95 120.67,-95 126,-100.33 126,-105.67 126,-105.67 126,-116.33 126,-116.33 126,-121.67 120.67,-127 115.33,-127 115.33,-127 104.67,-127 104.67,-127 99.33,-127 94,-121.67 94,-116.33 94,-116.33 94,-105.67 94,-105.67 94,-100.33 99.33,-95 104.67,-95"/>
<text text-anchor="start" x="105" y="-107.3" font-family="Helvetica,sans-Serif" font-size="14.00">0</text>
<path fill="none" stroke="black" d="M104.67,-95C104.67,-95 115.33,-95 115.33,-95 120.67,-95 126,-100.33 126,-105.67 126,-105.67 126,-116.33 126,-116.33 126,-121.67 120.67,-127 115.33,-127 115.33,-127 104.67,-127 104.67,-127 99.33,-127 94,-121.67 94,-116.33 94,-116.33 94,-105.67 94,-105.67 94,-100.33 99.33,-95 104.67,-95"/>
</a>
</g>
</g>
<!-- function&#45;0&#45;ImmVal -->
<g id="node3" class="node">
<title>function&#45;0&#45;ImmVal</title>
<g id="a_node3"><a xlink:title="Imm&#45;2: function&#45;0&#45;ImmVal">
<path fill="white" stroke="transparent" d="M159.67,-95C159.67,-95 200.33,-95 200.33,-95 205.67,-95 211,-100.33 211,-105.67 211,-105.67 211,-116.33 211,-116.33 211,-121.67 205.67,-127 200.33,-127 200.33,-127 159.67,-127 159.67,-127 154.33,-127 149,-121.67 149,-116.33 149,-116.33 149,-105.67 149,-105.67 149,-100.33 154.33,-95 159.67,-95"/>
<text text-anchor="start" x="154" y="-107.3" font-family="Helvetica,sans-Serif" font-size="14.00">ImmVal</text>
<path fill="none" stroke="black" d="M159.67,-95C159.67,-95 200.33,-95 200.33,-95 205.67,-95 211,-100.33 211,-105.67 211,-105.67 211,-116.33 211,-116.33 211,-121.67 205.67,-127 200.33,-127 200.33,-127 159.67,-127 159.67,-127 154.33,-127 149,-121.67 149,-116.33 149,-116.33 149,-105.67 149,-105.67 149,-100.33 154.33,-95 159.67,-95"/>
</a>
</g>
</g>
<!-- primitive&#45;i64&#45;2147483648 -->
<g id="node4" class="node">
<title>primitive&#45;i64&#45;2147483648</title>
<g id="a_node4"><a xlink:title="i64&#45;2147483648: primitive&#45;i64&#45;2147483648">
<path fill="white" stroke="transparent" d="M174.67,-16C174.67,-16 185.33,-16 185.33,-16 190.67,-16 196,-21.33 196,-26.67 196,-26.67 196,-37.33 196,-37.33 196,-42.67 190.67,-48 185.33,-48 185.33,-48 174.67,-48 174.67,-48 169.33,-48 164,-42.67 164,-37.33 164,-37.33 164,-26.67 164,-26.67 164,-21.33 169.33,-16 174.67,-16"/>
<text text-anchor="start" x="172.5" y="-28.3" font-family="Helvetica,sans-Serif" font-size="14.00">&#45;1</text>
<path fill="none" stroke="black" d="M174.67,-16C174.67,-16 185.33,-16 185.33,-16 190.67,-16 196,-21.33 196,-26.67 196,-26.67 196,-37.33 196,-37.33 196,-42.67 190.67,-48 185.33,-48 185.33,-48 174.67,-48 174.67,-48 169.33,-48 164,-42.67 164,-37.33 164,-37.33 164,-26.67 164,-26.67 164,-21.33 169.33,-16 174.67,-16"/>
</a>
</g>
</g>
<!-- function&#45;2&#45;ImmVal -->
<g id="node5" class="node">
<title>function&#45;2&#45;ImmVal</title>
<g id="a_node5"><a xlink:title="Imm&#45;6: function&#45;2&#45;ImmVal">
<path fill="white" stroke="transparent" d="M303.67,-95C303.67,-95 344.33,-95 344.33,-95 349.67,-95 355,-100.33 355,-105.67 355,-105.67 355,-116.33 355,-116.33 355,-121.67 349.67,-127 344.33,-127 344.33,-127 303.67,-127 303.67,-127 298.33,-127 293,-121.67 293,-116.33 293,-116.33 293,-105.67 293,-105.67 293,-100.33 298.33,-95 303.67,-95"/>
<text text-anchor="start" x="298" y="-107.3" font-family="Helvetica,sans-Serif" font-size="14.00">ImmVal</text>
<path fill="none" stroke="black" d="M303.67,-95C303.67,-95 344.33,-95 344.33,-95 349.67,-95 355,-100.33 355,-105.67 355,-105.67 355,-116.33 355,-116.33 355,-121.67 349.67,-127 344.33,-127 344.33,-127 303.67,-127 303.67,-127 298.33,-127 293,-121.67 293,-116.33 293,-116.33 293,-105.67 293,-105.67 293,-100.33 298.33,-95 303.67,-95"/>
</a>
</g>
</g>
<!-- primitive&#45;i64&#45;4 -->
<g id="node6" class="node">
<title>primitive&#45;i64&#45;4</title>
<g id="a_node6"><a xlink:title="i64&#45;4: primitive&#45;i64&#45;4">
<path fill="white" stroke="transparent" d="M318.67,-16C318.67,-16 329.33,-16 329.33,-16 334.67,-16 340,-21.33 340,-26.67 340,-26.67 340,-37.33 340,-37.33 340,-42.67 334.67,-48 329.33,-48 329.33,-48 318.67,-48 318.67,-48 313.33,-48 308,-42.67 308,-37.33 308,-37.33 308,-26.67 308,-26.67 308,-21.33 313.33,-16 318.67,-16"/>
<text text-anchor="start" x="319" y="-28.3" font-family="Helvetica,sans-Serif" font-size="14.00">4</text>
<path fill="none" stroke="black" d="M318.67,-16C318.67,-16 329.33,-16 329.33,-16 334.67,-16 340,-21.33 340,-26.67 340,-26.67 340,-37.33 340,-37.33 340,-42.67 334.67,-48 329.33,-48 329.33,-48 318.67,-48 318.67,-48 313.33,-48 308,-42.67 308,-37.33 308,-37.33 308,-26.67 308,-26.67 308,-21.33 313.33,-16 318.67,-16"/>
</a>
</g>
</g>
<!-- function&#45;0&#45;RegVal -->
<g id="node7" class="node">
<title>function&#45;0&#45;RegVal</title>
<g id="a_node7"><a xlink:title="Inst&#45;0: function&#45;0&#45;RegVal">
<path fill="white" stroke="transparent" d="M234.17,-95C234.17,-95 269.83,-95 269.83,-95 275.17,-95 280.5,-100.33 280.5,-105.67 280.5,-105.67 280.5,-116.33 280.5,-116.33 280.5,-121.67 275.17,-127 269.83,-127 269.83,-127 234.17,-127 234.17,-127 228.83,-127 223.5,-121.67 223.5,-116.33 223.5,-116.33 223.5,-105.67 223.5,-105.67 223.5,-100.33 228.83,-95 234.17,-95"/>
<text text-anchor="start" x="229" y="-107.3" font-family="Helvetica,sans-Serif" font-size="14.00">RegVal</text>
<path fill="none" stroke="black" d="M234.17,-95C234.17,-95 269.83,-95 269.83,-95 275.17,-95 280.5,-100.33 280.5,-105.67 280.5,-105.67 280.5,-116.33 280.5,-116.33 280.5,-121.67 275.17,-127 269.83,-127 269.83,-127 234.17,-127 234.17,-127 228.83,-127 223.5,-121.67 223.5,-116.33 223.5,-116.33 223.5,-105.67 223.5,-105.67 223.5,-100.33 228.83,-95 234.17,-95"/>
</a>
</g>
</g>
<!-- primitive&#45;String&#45;0 -->
<g id="node8" class="node">
<title>primitive&#45;String&#45;0</title>
<g id="a_node8"><a xlink:title="String&#45;0: primitive&#45;String&#45;0">
<path fill="white" stroke="transparent" d="M235.17,-16C235.17,-16 270.83,-16 270.83,-16 276.17,-16 281.5,-21.33 281.5,-26.67 281.5,-26.67 281.5,-37.33 281.5,-37.33 281.5,-42.67 276.17,-48 270.83,-48 270.83,-48 235.17,-48 235.17,-48 229.83,-48 224.5,-42.67 224.5,-37.33 224.5,-37.33 224.5,-26.67 224.5,-26.67 224.5,-21.33 229.83,-16 235.17,-16"/>
<text text-anchor="start" x="230" y="-28.3" font-family="Helvetica,sans-Serif" font-size="14.00">&quot;a4_0&quot;</text>
<path fill="none" stroke="black" d="M235.17,-16C235.17,-16 270.83,-16 270.83,-16 276.17,-16 281.5,-21.33 281.5,-26.67 281.5,-26.67 281.5,-37.33 281.5,-37.33 281.5,-42.67 276.17,-48 270.83,-48 270.83,-48 235.17,-48 235.17,-48 229.83,-48 224.5,-42.67 224.5,-37.33 224.5,-37.33 224.5,-26.67 224.5,-26.67 224.5,-21.33 229.83,-16 235.17,-16"/>
</a>
</g>
</g>
<!-- function&#45;0&#45;Jal -->
<g id="node9" class="node">
<title>function&#45;0&#45;Jal</title>
<g id="a_node9"><a xlink:title="Inst&#45;8: function&#45;0&#45;Jal">
<path fill="white" stroke="transparent" d="M49.67,-253C49.67,-253 60.33,-253 60.33,-253 65.67,-253 71,-258.33 71,-263.67 71,-263.67 71,-274.33 71,-274.33 71,-279.67 65.67,-285 60.33,-285 60.33,-285 49.67,-285 49.67,-285 44.33,-285 39,-279.67 39,-274.33 39,-274.33 39,-263.67 39,-263.67 39,-258.33 44.33,-253 49.67,-253"/>
<text text-anchor="start" x="46.5" y="-265.3" font-family="Helvetica,sans-Serif" font-size="14.00">Jal</text>
<path fill="none" stroke="black" d="M49.67,-253C49.67,-253 60.33,-253 60.33,-253 65.67,-253 71,-258.33 71,-263.67 71,-263.67 71,-274.33 71,-274.33 71,-279.67 65.67,-285 60.33,-285 60.33,-285 49.67,-285 49.67,-285 44.33,-285 39,-279.67 39,-274.33 39,-274.33 39,-263.67 39,-263.67 39,-258.33 44.33,-253 49.67,-253"/>
</a>
</g>
</g>
<!-- function&#45;2&#45;Beq -->
<g id="node10" class="node">
<title>function&#45;2&#45;Beq</title>
<g id="a_node10"><a xlink:title="Inst&#45;10: function&#45;2&#45;Beq">
<path fill="white" stroke="transparent" d="M160.67,-253C160.67,-253 177.33,-253 177.33,-253 182.67,-253 188,-258.33 188,-263.67 188,-263.67 188,-274.33 188,-274.33 188,-279.67 182.67,-285 177.33,-285 177.33,-285 160.67,-285 160.67,-285 155.33,-285 150,-279.67 150,-274.33 150,-274.33 150,-263.67 150,-263.67 150,-258.33 155.33,-253 160.67,-253"/>
<text text-anchor="start" x="155" y="-265.3" font-family="Helvetica,sans-Serif" font-size="14.00">Beq</text>
<path fill="none" stroke="black" d="M160.67,-253C160.67,-253 177.33,-253 177.33,-253 182.67,-253 188,-258.33 188,-263.67 188,-263.67 188,-274.33 188,-274.33 188,-279.67 182.67,-285 177.33,-285 177.33,-285 160.67,-285 160.67,-285 155.33,-285 150,-279.67 150,-274.33 150,-274.33 150,-263.67 150,-263.67 150,-258.33 155.33,-253 160.67,-253"/>
</a>
</g>
</g>
<!-- function&#45;0&#45;Addi -->
<g id="node11" class="node">
<title>function&#45;0&#45;Addi</title>
<g id="a_node11"><a xlink:title="Inst&#45;3: function&#45;0&#45;Addi">
<path fill="white" stroke="transparent" d="M176.17,-174C176.17,-174 195.83,-174 195.83,-174 201.17,-174 206.5,-179.33 206.5,-184.67 206.5,-184.67 206.5,-195.33 206.5,-195.33 206.5,-200.67 201.17,-206 195.83,-206 195.83,-206 176.17,-206 176.17,-206 170.83,-206 165.5,-200.67 165.5,-195.33 165.5,-195.33 165.5,-184.67 165.5,-184.67 165.5,-179.33 170.83,-174 176.17,-174"/>
<text text-anchor="start" x="171" y="-186.3" font-family="Helvetica,sans-Serif" font-size="14.00">Addi</text>
<path fill="none" stroke="black" d="M176.17,-174C176.17,-174 195.83,-174 195.83,-174 201.17,-174 206.5,-179.33 206.5,-184.67 206.5,-184.67 206.5,-195.33 206.5,-195.33 206.5,-200.67 201.17,-206 195.83,-206 195.83,-206 176.17,-206 176.17,-206 170.83,-206 165.5,-200.67 165.5,-195.33 165.5,-195.33 165.5,-184.67 165.5,-184.67 165.5,-179.33 170.83,-174 176.17,-174"/>
</a>
</g>
</g>
<!-- function&#45;1&#45;RegVal -->
<g id="node12" class="node">
<title>function&#45;1&#45;RegVal</title>
<g id="a_node12"><a xlink:title="Inst&#45;1: function&#45;1&#45;RegVal">
<path fill="white" stroke="transparent" d="M418.17,-174C418.17,-174 453.83,-174 453.83,-174 459.17,-174 464.5,-179.33 464.5,-184.67 464.5,-184.67 464.5,-195.33 464.5,-195.33 464.5,-200.67 459.17,-206 453.83,-206 453.83,-206 418.17,-206 418.17,-206 412.83,-206 407.5,-200.67 407.5,-195.33 407.5,-195.33 407.5,-184.67 407.5,-184.67 407.5,-179.33 412.83,-174 418.17,-174"/>
<text text-anchor="start" x="413" y="-186.3" font-family="Helvetica,sans-Serif" font-size="14.00">RegVal</text>
<path fill="none" stroke="black" d="M418.17,-174C418.17,-174 453.83,-174 453.83,-174 459.17,-174 464.5,-179.33 464.5,-184.67 464.5,-184.67 464.5,-195.33 464.5,-195.33 464.5,-200.67 459.17,-206 453.83,-206 453.83,-206 418.17,-206 418.17,-206 412.83,-206 407.5,-200.67 407.5,-195.33 407.5,-195.33 407.5,-184.67 407.5,-184.67 407.5,-179.33 412.83,-174 418.17,-174"/>
</a>
</g>
</g>
<!-- function&#45;3&#45;Beq -->
<g id="node13" class="node">
<title>function&#45;3&#45;Beq</title>
<g id="a_node13"><a xlink:title="Inst&#45;10: function&#45;3&#45;Beq">
<path fill="white" stroke="transparent" d="M218.67,-253C218.67,-253 235.33,-253 235.33,-253 240.67,-253 246,-258.33 246,-263.67 246,-263.67 246,-274.33 246,-274.33 246,-279.67 240.67,-285 235.33,-285 235.33,-285 218.67,-285 218.67,-285 213.33,-285 208,-279.67 208,-274.33 208,-274.33 208,-263.67 208,-263.67 208,-258.33 213.33,-253 218.67,-253"/>
<text text-anchor="start" x="213" y="-265.3" font-family="Helvetica,sans-Serif" font-size="14.00">Beq</text>
<path fill="none" stroke="black" d="M218.67,-253C218.67,-253 235.33,-253 235.33,-253 240.67,-253 246,-258.33 246,-263.67 246,-263.67 246,-274.33 246,-274.33 246,-279.67 240.67,-285 235.33,-285 235.33,-285 218.67,-285 218.67,-285 213.33,-285 208,-279.67 208,-274.33 208,-274.33 208,-263.67 208,-263.67 208,-258.33 213.33,-253 218.67,-253"/>
</a>
</g>
</g>
<!-- function&#45;2&#45;Seq2 -->
<g id="node14" class="node">
<title>function&#45;2&#45;Seq2</title>
<g id="a_node14"><a xlink:title="Inst&#45;10: function&#45;2&#45;Seq2">
<path fill="white" stroke="transparent" d="M272.67,-253C272.67,-253 297.33,-253 297.33,-253 302.67,-253 308,-258.33 308,-263.67 308,-263.67 308,-274.33 308,-274.33 308,-279.67 302.67,-285 297.33,-285 297.33,-285 272.67,-285 272.67,-285 267.33,-285 262,-279.67 262,-274.33 262,-274.33 262,-263.67 262,-263.67 262,-258.33 267.33,-253 272.67,-253"/>
<text text-anchor="start" x="267" y="-265.3" font-family="Helvetica,sans-Serif" font-size="14.00">Seq2</text>
<path fill="none" stroke="black" d="M272.67,-253C272.67,-253 297.33,-253 297.33,-253 302.67,-253 308,-258.33 308,-263.67 308,-263.67 308,-274.33 308,-274.33 308,-279.67 302.67,-285 297.33,-285 297.33,-285 272.67,-285 272.67,-285 267.33,-285 262,-279.67 262,-274.33 262,-274.33 262,-263.67 262,-263.67 262,-258.33 267.33,-253 272.67,-253"/>
</a>
</g>
</g>
<!-- function&#45;1&#45;Seq2 -->
<g id="node15" class="node">
<title>function&#45;1&#45;Seq2</title>
<g id="a_node15"><a xlink:title="Inst&#45;7: function&#45;1&#45;Seq2">
<path fill="white" stroke="transparent" d="M338.67,-253C338.67,-253 363.33,-253 363.33,-253 368.67,-253 374,-258.33 374,-263.67 374,-263.67 374,-274.33 374,-274.33 374,-279.67 368.67,-285 363.33,-285 363.33,-285 338.67,-285 338.67,-285 333.33,-285 328,-279.67 328,-274.33 328,-274.33 328,-263.67 328,-263.67 328,-258.33 333.33,-253 338.67,-253"/>
<text text-anchor="start" x="333" y="-265.3" font-family="Helvetica,sans-Serif" font-size="14.00">Seq2</text>
<path fill="none" stroke="black" d="M338.67,-253C338.67,-253 363.33,-253 363.33,-253 368.67,-253 374,-258.33 374,-263.67 374,-263.67 374,-274.33 374,-274.33 374,-279.67 368.67,-285 363.33,-285 363.33,-285 338.67,-285 338.67,-285 333.33,-285 328,-279.67 328,-274.33 328,-274.33 328,-263.67 328,-263.67 328,-258.33 333.33,-253 338.67,-253"/>
</a>
</g>
</g>
<!-- function&#45;1&#45;Jal -->
<g id="node16" class="node">
<title>function&#45;1&#45;Jal</title>
<g id="a_node16"><a xlink:title="Inst&#45;11: function&#45;1&#45;Jal">
<path fill="white" stroke="transparent" d="M318.67,-174C318.67,-174 329.33,-174 329.33,-174 334.67,-174 340,-179.33 340,-184.67 340,-184.67 340,-195.33 340,-195.33 340,-200.67 334.67,-206 329.33,-206 329.33,-206 318.67,-206 318.67,-206 313.33,-206 308,-200.67 308,-195.33 308,-195.33 308,-184.67 308,-184.67 308,-179.33 313.33,-174 318.67,-174"/>
<text text-anchor="start" x="315.5" y="-186.3" font-family="Helvetica,sans-Serif" font-size="14.00">Jal</text>
<path fill="none" stroke="black" d="M318.67,-174C318.67,-174 329.33,-174 329.33,-174 334.67,-174 340,-179.33 340,-184.67 340,-184.67 340,-195.33 340,-195.33 340,-200.67 334.67,-206 329.33,-206 329.33,-206 318.67,-206 318.67,-206 313.33,-206 308,-200.67 308,-195.33 308,-195.33 308,-184.67 308,-184.67 308,-179.33 313.33,-174 318.67,-174"/>
</a>
</g>
</g>
<!-- primitive&#45;String&#45;1 -->
<g id="node17" class="node">
<title>primitive&#45;String&#45;1</title>
<g id="a_node17"><a xlink:title="String&#45;1: primitive&#45;String&#45;1">
<path fill="white" stroke="transparent" d="M413.17,-95C413.17,-95 460.83,-95 460.83,-95 466.17,-95 471.5,-100.33 471.5,-105.67 471.5,-105.67 471.5,-116.33 471.5,-116.33 471.5,-121.67 466.17,-127 460.83,-127 460.83,-127 413.17,-127 413.17,-127 407.83,-127 402.5,-121.67 402.5,-116.33 402.5,-116.33 402.5,-105.67 402.5,-105.67 402.5,-100.33 407.83,-95 413.17,-95"/>
<text text-anchor="start" x="408" y="-107.3" font-family="Helvetica,sans-Serif" font-size="14.00">&quot;zero_0&quot;</text>
<path fill="none" stroke="black" d="M413.17,-95C413.17,-95 460.83,-95 460.83,-95 466.17,-95 471.5,-100.33 471.5,-105.67 471.5,-105.67 471.5,-116.33 471.5,-116.33 471.5,-121.67 466.17,-127 460.83,-127 460.83,-127 413.17,-127 413.17,-127 407.83,-127 402.5,-121.67 402.5,-116.33 402.5,-116.33 402.5,-105.67 402.5,-105.67 402.5,-100.33 407.83,-95 413.17,-95"/>
</a>
</g>
</g>
<!-- function&#45;0&#45;Bne -->
<g id="node18" class="node">
<title>function&#45;0&#45;Bne</title>
<g id="a_node18"><a xlink:title="Inst&#45;7: function&#45;0&#45;Bne">
<path fill="white" stroke="transparent" d="M400.67,-253C400.67,-253 417.33,-253 417.33,-253 422.67,-253 428,-258.33 428,-263.67 428,-263.67 428,-274.33 428,-274.33 428,-279.67 422.67,-285 417.33,-285 417.33,-285 400.67,-285 400.67,-285 395.33,-285 390,-279.67 390,-274.33 390,-274.33 390,-263.67 390,-263.67 390,-258.33 395.33,-253 400.67,-253"/>
<text text-anchor="start" x="395" y="-265.3" font-family="Helvetica,sans-Serif" font-size="14.00">Bne</text>
<path fill="none" stroke="black" d="M400.67,-253C400.67,-253 417.33,-253 417.33,-253 422.67,-253 428,-258.33 428,-263.67 428,-263.67 428,-274.33 428,-274.33 428,-279.67 422.67,-285 417.33,-285 417.33,-285 400.67,-285 400.67,-285 395.33,-285 390,-279.67 390,-274.33 390,-274.33 390,-263.67 390,-263.67 390,-258.33 395.33,-253 400.67,-253"/>
</a>
</g>
</g>
<!-- function&#45;1&#45;Bne -->
<g id="node19" class="node">
<title>function&#45;1&#45;Bne</title>
<g id="a_node19"><a xlink:title="Inst&#45;7: function&#45;1&#45;Bne">
<path fill="white" stroke="transparent" d="M458.67,-253C458.67,-253 475.33,-253 475.33,-253 480.67,-253 486,-258.33 486,-263.67 486,-263.67 486,-274.33 486,-274.33 486,-279.67 480.67,-285 475.33,-285 475.33,-285 458.67,-285 458.67,-285 453.33,-285 448,-279.67 448,-274.33 448,-274.33 448,-263.67 448,-263.67 448,-258.33 453.33,-253 458.67,-253"/>
<text text-anchor="start" x="453" y="-265.3" font-family="Helvetica,sans-Serif" font-size="14.00">Bne</text>
<path fill="none" stroke="black" d="M458.67,-253C458.67,-253 475.33,-253 475.33,-253 480.67,-253 486,-258.33 486,-263.67 486,-263.67 486,-274.33 486,-274.33 486,-279.67 480.67,-285 475.33,-285 475.33,-285 458.67,-285 458.67,-285 453.33,-285 448,-279.67 448,-274.33 448,-274.33 448,-263.67 448,-263.67 448,-258.33 453.33,-253 458.67,-253"/>
</a>
</g>
</g>
<!-- function&#45;0&#45;Beq -->
<g id="node20" class="node">
<title>function&#45;0&#45;Beq</title>
<g id="a_node20"><a xlink:title="Inst&#45;5: function&#45;0&#45;Beq">
<path fill="white" stroke="transparent" d="M148.67,-332C148.67,-332 165.33,-332 165.33,-332 170.67,-332 176,-337.33 176,-342.67 176,-342.67 176,-353.33 176,-353.33 176,-358.67 170.67,-364 165.33,-364 165.33,-364 148.67,-364 148.67,-364 143.33,-364 138,-358.67 138,-353.33 138,-353.33 138,-342.67 138,-342.67 138,-337.33 143.33,-332 148.67,-332"/>
<text text-anchor="start" x="143" y="-344.3" font-family="Helvetica,sans-Serif" font-size="14.00">Beq</text>
<path fill="none" stroke="black" d="M148.67,-332C148.67,-332 165.33,-332 165.33,-332 170.67,-332 176,-337.33 176,-342.67 176,-342.67 176,-353.33 176,-353.33 176,-358.67 170.67,-364 165.33,-364 165.33,-364 148.67,-364 148.67,-364 143.33,-364 138,-358.67 138,-353.33 138,-353.33 138,-342.67 138,-342.67 138,-337.33 143.33,-332 148.67,-332"/>
</a>
</g>
</g>
<!-- function&#45;1&#45;Beq -->
<g id="node21" class="node">
<title>function&#45;1&#45;Beq</title>
<g id="a_node21"><a xlink:title="Inst&#45;5: function&#45;1&#45;Beq">
<path fill="white" stroke="transparent" d="M90.67,-332C90.67,-332 107.33,-332 107.33,-332 112.67,-332 118,-337.33 118,-342.67 118,-342.67 118,-353.33 118,-353.33 118,-358.67 112.67,-364 107.33,-364 107.33,-364 90.67,-364 90.67,-364 85.33,-364 80,-358.67 80,-353.33 80,-353.33 80,-342.67 80,-342.67 80,-337.33 85.33,-332 90.67,-332"/>
<text text-anchor="start" x="85" y="-344.3" font-family="Helvetica,sans-Serif" font-size="14.00">Beq</text>
<path fill="none" stroke="black" d="M90.67,-332C90.67,-332 107.33,-332 107.33,-332 112.67,-332 118,-337.33 118,-342.67 118,-342.67 118,-353.33 118,-353.33 118,-358.67 112.67,-364 107.33,-364 107.33,-364 90.67,-364 90.67,-364 85.33,-364 80,-358.67 80,-353.33 80,-353.33 80,-342.67 80,-342.67 80,-337.33 85.33,-332 90.67,-332"/>
</a>
</g>
</g>
<!-- function&#45;0&#45;Seq2 -->
<g id="node22" class="node">
<title>function&#45;0&#45;Seq2</title>
<g id="a_node22"><a xlink:title="Inst&#45;5: function&#45;0&#45;Seq2">
<path fill="white" stroke="transparent" d="M28.67,-332C28.67,-332 53.33,-332 53.33,-332 58.67,-332 64,-337.33 64,-342.67 64,-342.67 64,-353.33 64,-353.33 64,-358.67 58.67,-364 53.33,-364 53.33,-364 28.67,-364 28.67,-364 23.33,-364 18,-358.67 18,-353.33 18,-353.33 18,-342.67 18,-342.67 18,-337.33 23.33,-332 28.67,-332"/>
<text text-anchor="start" x="23" y="-344.3" font-family="Helvetica,sans-Serif" font-size="14.00">Seq2</text>
<path fill="none" stroke="black" d="M28.67,-332C28.67,-332 53.33,-332 53.33,-332 58.67,-332 64,-337.33 64,-342.67 64,-342.67 64,-353.33 64,-353.33 64,-358.67 58.67,-364 53.33,-364 53.33,-364 28.67,-364 28.67,-364 23.33,-364 18,-358.67 18,-353.33 18,-353.33 18,-342.67 18,-342.67 18,-337.33 23.33,-332 28.67,-332"/>
</a>
</g>
</g>
</g>
</svg>
