<?xml version="1.0" encoding="UTF-8" standalone="no"?>
<!DOCTYPE svg PUBLIC "-//W3C//DTD SVG 1.1//EN"
 "http://www.w3.org/Graphics/SVG/1.1/DTD/svg11.dtd">
<!-- Generated by graphviz version 2.43.0 (0)
 -->
<!-- Title: %3 Pages: 1 -->
<svg width="311pt" height="230pt"
 viewBox="0.00 0.00 311.00 230.00" xmlns="http://www.w3.org/2000/svg" xmlns:xlink="http://www.w3.org/1999/xlink">
<g id="graph0" class="graph" transform="scale(1 1) rotate(0) translate(4 226)">
<title>%3</title>
<polygon fill="white" stroke="#000000" points="-4,4 -4,-226 307,-226 307,4 -4,4"/>
<g id="clust1" class="cluster">
<title>outer_cluster_Imm&#45;3</title>
</g>
<g id="clust2" class="cluster">
<title>cluster_Imm&#45;3</title>
<path fill="#ffffb3" stroke="black" stroke-dasharray="5,2" d="M96,-90C96,-90 140,-90 140,-90 146,-90 152,-96 152,-102 152,-102 152,-120 152,-120 152,-126 146,-132 140,-132 140,-132 96,-132 96,-132 90,-132 84,-126 84,-120 84,-120 84,-102 84,-102 84,-96 90,-90 96,-90"/>
</g>
<g id="clust4" class="cluster">
<title>outer_cluster_Inst&#45;1</title>
</g>
<g id="clust5" class="cluster">
<title>cluster_Inst&#45;1</title>
<path fill="#bebada" stroke="black" stroke-dasharray="5,2" d="M23,-90C23,-90 63,-90 63,-90 69,-90 75,-96 75,-102 75,-102 75,-120 75,-120 75,-126 69,-132 63,-132 63,-132 23,-132 23,-132 17,-132 11,-126 11,-120 11,-120 11,-102 11,-102 11,-96 17,-90 23,-90"/>
</g>
<g id="clust7" class="cluster">
<title>outer_cluster_Inst&#45;5</title>
</g>
<g id="clust8" class="cluster">
<title>cluster_Inst&#45;5</title>
<path fill="#bebada" stroke="black" stroke-dasharray="5,2" d="M35,-169C35,-169 71,-169 71,-169 77,-169 83,-175 83,-181 83,-181 83,-199 83,-199 83,-205 77,-211 71,-211 71,-211 35,-211 35,-211 29,-211 23,-205 23,-199 23,-199 23,-181 23,-181 23,-175 29,-169 35,-169"/>
</g>
<g id="clust10" class="cluster">
<title>outer_cluster_Inst&#45;7</title>
</g>
<g id="clust11" class="cluster">
<title>cluster_Inst&#45;7</title>
<path fill="#bebada" stroke="black" stroke-dasharray="5,2" d="M101,-169C101,-169 137,-169 137,-169 143,-169 149,-175 149,-181 149,-181 149,-199 149,-199 149,-205 143,-211 137,-211 137,-211 101,-211 101,-211 95,-211 89,-205 89,-199 89,-199 89,-181 89,-181 89,-175 95,-169 101,-169"/>
</g>
<g id="clust13" class="cluster">
<title>outer_cluster_Inst&#45;4</title>
</g>
<g id="clust14" class="cluster">
<title>cluster_Inst&#45;4</title>
<path fill="#bebada" stroke="black" stroke-dasharray="5,2" d="M173,-169C173,-169 209,-169 209,-169 215,-169 221,-175 221,-181 221,-181 221,-199 221,-199 221,-205 215,-211 209,-211 209,-211 173,-211 173,-211 167,-211 161,-205 161,-199 161,-199 161,-181 161,-181 161,-175 167,-169 173,-169"/>
</g>
<g id="clust16" class="cluster">
<title>outer_cluster_Inst&#45;6</title>
</g>
<g id="clust17" class="cluster">
<title>cluster_Inst&#45;6</title>
<path fill="#bebada" stroke="black" stroke-dasharray="5,2" d="M242,-169C242,-169 278,-169 278,-169 284,-169 290,-175 290,-181 290,-181 290,-199 290,-199 290,-205 284,-211 278,-211 278,-211 242,-211 242,-211 236,-211 230,-205 230,-199 230,-199 230,-181 230,-181 230,-175 236,-169 242,-169"/>
</g>
<g id="clust19" class="cluster">
<title>outer_cluster_Inst&#45;0</title>
</g>
<g id="clust20" class="cluster">
<title>cluster_Inst&#45;0</title>
<path fill="#bebada" stroke="black" stroke-dasharray="5,2" d="M170,-90C170,-90 210,-90 210,-90 216,-90 222,-96 222,-102 222,-102 222,-120 222,-120 222,-126 216,-132 210,-132 210,-132 170,-132 170,-132 164,-132 158,-126 158,-120 158,-120 158,-102 158,-102 158,-96 164,-90 170,-90"/>
</g>
<g id="clust22" class="cluster">
<title>outer_cluster_Inst&#45;2</title>
</g>
<g id="clust23" class="cluster">
<title>cluster_Inst&#45;2</title>
<path fill="#bebada" stroke="black" stroke-dasharray="5,2" d="M240,-90C240,-90 280,-90 280,-90 286,-90 292,-96 292,-102 292,-102 292,-120 292,-120 292,-126 286,-132 280,-132 280,-132 240,-132 240,-132 234,-132 228,-126 228,-120 228,-120 228,-102 228,-102 228,-96 234,-90 240,-90"/>
</g>
<g id="clust25" class="cluster">
<title>outer_cluster_String&#45;1</title>
</g>
<g id="clust26" class="cluster">
<title>cluster_String&#45;1</title>
<path fill="#fb8072" stroke="black" stroke-dasharray="5,2" d="M24,-11C24,-11 64,-11 64,-11 70,-11 76,-17 76,-23 76,-23 76,-41 76,-41 76,-47 70,-53 64,-53 64,-53 24,-53 24,-53 18,-53 12,-47 12,-41 12,-41 12,-23 12,-23 12,-17 18,-11 24,-11"/>
</g>
<g id="clust28" class="cluster">
<title>outer_cluster_String&#45;0</title>
</g>
<g id="clust29" class="cluster">
<title>cluster_String&#45;0</title>
<path fill="#fb8072" stroke="black" stroke-dasharray="5,2" d="M171,-11C171,-11 211,-11 211,-11 217,-11 223,-17 223,-23 223,-23 223,-41 223,-41 223,-47 217,-53 211,-53 211,-53 171,-53 171,-53 165,-53 159,-47 159,-41 159,-41 159,-23 159,-23 159,-17 165,-11 171,-11"/>
</g>
<g id="clust31" class="cluster">
<title>outer_cluster_String&#45;2</title>
</g>
<g id="clust32" class="cluster">
<title>cluster_String&#45;2</title>
<path fill="#fb8072" stroke="black" stroke-dasharray="5,2" d="M243,-11C243,-11 279,-11 279,-11 285,-11 291,-17 291,-23 291,-23 291,-41 291,-41 291,-47 285,-53 279,-53 279,-53 243,-53 243,-53 237,-53 231,-47 231,-41 231,-41 231,-23 231,-23 231,-17 237,-11 243,-11"/>
</g>
<g id="clust34" class="cluster">
<title>outer_cluster_i64&#45;0</title>
</g>
<g id="clust35" class="cluster">
<title>cluster_i64&#45;0</title>
<path fill="#80b1d3" stroke="black" stroke-dasharray="5,2" d="M100,-11C100,-11 136,-11 136,-11 142,-11 148,-17 148,-23 148,-23 148,-41 148,-41 148,-47 142,-53 136,-53 136,-53 100,-53 100,-53 94,-53 88,-47 88,-41 88,-41 88,-23 88,-23 88,-17 94,-11 100,-11"/>
</g>
<!-- function&#45;0&#45;ImmVal&#45;&gt;primitive&#45;i64&#45;0 -->
<g id="edge1" class="edge">
<title>function&#45;0&#45;ImmVal:s&#45;&gt;primitive&#45;i64&#45;0</title>
<path fill="none" stroke="black" d="M118,-95C118,-81.84 118,-67.11 118,-55.3"/>
<polygon fill="black" stroke="black" points="119.75,-58 118,-53 116.25,-58 119.75,-58"/>
</g>
<!-- function&#45;1&#45;RegVal&#45;&gt;primitive&#45;String&#45;1 -->
<g id="edge2" class="edge">
<title>function&#45;1&#45;RegVal:s&#45;&gt;primitive&#45;String&#45;1</title>
<path fill="none" stroke="black" d="M44,-95C44,-81.84 44,-67.11 44,-55.3"/>
<polygon fill="black" stroke="black" points="45.75,-58 44,-53 42.25,-58 45.75,-58"/>
</g>
<!-- function&#45;1&#45;Addi&#45;&gt;function&#45;0&#45;ImmVal -->
<g id="edge4" class="edge">
<title>function&#45;1&#45;Addi:s&#45;&gt;function&#45;0&#45;ImmVal</title>
<path fill="none" stroke="black" d="M63,-174C63,-157.31 74.29,-143.01 86.64,-132.37"/>
<polygon fill="black" stroke="black" points="83.61,-135.6 87.5,-132 82.22,-132.38 83.61,-135.6"/>
</g>
<!-- function&#45;1&#45;Addi&#45;&gt;function&#45;1&#45;RegVal -->
<g id="edge3" class="edge">
<title>function&#45;1&#45;Addi:s&#45;&gt;function&#45;1&#45;RegVal</title>
<path fill="none" stroke="black" d="M43,-174C43,-160.84 43,-146.11 43,-134.3"/>
<polygon fill="black" stroke="black" points="44.75,-137 43,-132 41.25,-137 44.75,-137"/>
</g>
<!-- function&#45;0&#45;Jal&#45;&gt;function&#45;0&#45;ImmVal -->
<g id="edge5" class="edge">
<title>function&#45;0&#45;Jal:s&#45;&gt;function&#45;0&#45;ImmVal</title>
<path fill="none" stroke="black" d="M119,-174C119,-160.84 118.77,-146.1 118.53,-134.3"/>
<polygon fill="black" stroke="black" points="120.41,-136.91 118.42,-132 116.91,-137.08 120.41,-136.91"/>
</g>
<!-- function&#45;0&#45;Addi&#45;&gt;function&#45;0&#45;ImmVal -->
<g id="edge7" class="edge">
<title>function&#45;0&#45;Addi:s&#45;&gt;function&#45;0&#45;ImmVal</title>
<path fill="none" stroke="black" d="M201,-174C201,-167.31 172.98,-147.47 149.5,-132.01"/>
<polygon fill="black" stroke="black" points="154.22,-130.38 149.18,-132 154.13,-133.88 154.22,-130.38"/>
</g>
<!-- function&#45;0&#45;Addi&#45;&gt;function&#45;0&#45;RegVal -->
<g id="edge6" class="edge">
<title>function&#45;0&#45;Addi:s&#45;&gt;function&#45;0&#45;RegVal</title>
<path fill="none" stroke="black" d="M181,-174C181,-160.7 183.05,-145.96 185.2,-134.19"/>
<polygon fill="black" stroke="black" points="185.73,-137.28 186.18,-132 182.54,-135.84 185.73,-137.28"/>
</g>
<!-- function&#45;0&#45;RegVal&#45;&gt;primitive&#45;String&#45;0 -->
<g id="edge10" class="edge">
<title>function&#45;0&#45;RegVal:s&#45;&gt;primitive&#45;String&#45;0</title>
<path fill="none" stroke="black" d="M191,-95C191,-81.84 191,-67.11 191,-55.3"/>
<polygon fill="black" stroke="black" points="192.75,-58 191,-53 189.25,-58 192.75,-58"/>
</g>
<!-- function&#45;2&#45;Addi&#45;&gt;function&#45;0&#45;ImmVal -->
<g id="edge9" class="edge">
<title>function&#45;2&#45;Addi:s&#45;&gt;function&#45;0&#45;ImmVal</title>
<path fill="none" stroke="black" d="M270,-174C270,-120.87 205.24,-157.27 157,-135 156.49,-134.77 155.99,-134.53 155.48,-134.29"/>
<polygon fill="black" stroke="black" points="156.12,-132.65 150.87,-132 154.57,-135.79 156.12,-132.65"/>
</g>
<!-- function&#45;2&#45;Addi&#45;&gt;function&#45;2&#45;RegVal -->
<g id="edge8" class="edge">
<title>function&#45;2&#45;Addi:s&#45;&gt;function&#45;2&#45;RegVal</title>
<path fill="none" stroke="black" d="M250,-174C250,-160.76 252.25,-146.14 254.61,-134.42"/>
<polygon fill="black" stroke="black" points="255.25,-137.28 255.7,-132 252.05,-135.84 255.25,-137.28"/>
</g>
<!-- function&#45;2&#45;RegVal&#45;&gt;primitive&#45;String&#45;2 -->
<g id="edge11" class="edge">
<title>function&#45;2&#45;RegVal:s&#45;&gt;primitive&#45;String&#45;2</title>
<path fill="none" stroke="black" d="M261,-95C261,-81.84 261,-67.11 261,-55.3"/>
<polygon fill="black" stroke="black" points="262.75,-58 261,-53 259.25,-58 262.75,-58"/>
</g>
<!-- function&#45;0&#45;ImmVal -->
<g id="node1" class="node">
<title>function&#45;0&#45;ImmVal</title>
<g id="a_node1"><a xlink:title="Imm&#45;3: function&#45;0&#45;ImmVal">
<path fill="white" stroke="transparent" d="M97.67,-95C97.67,-95 138.33,-95 138.33,-95 143.67,-95 149,-100.33 149,-105.67 149,-105.67 149,-116.33 149,-116.33 149,-121.67 143.67,-127 138.33,-127 138.33,-127 97.67,-127 97.67,-127 92.33,-127 87,-121.67 87,-116.33 87,-116.33 87,-105.67 87,-105.67 87,-100.33 92.33,-95 97.67,-95"/>
<text text-anchor="start" x="92" y="-107.3" font-family="Helvetica,sans-Serif" font-size="14.00">ImmVal</text>
<path fill="none" stroke="black" d="M97.67,-95C97.67,-95 138.33,-95 138.33,-95 143.67,-95 149,-100.33 149,-105.67 149,-105.67 149,-116.33 149,-116.33 149,-121.67 143.67,-127 138.33,-127 138.33,-127 97.67,-127 97.67,-127 92.33,-127 87,-121.67 87,-116.33 87,-116.33 87,-105.67 87,-105.67 87,-100.33 92.33,-95 97.67,-95"/>
</a>
</g>
</g>
<!-- primitive&#45;i64&#45;0 -->
<g id="node2" class="node">
<title>primitive&#45;i64&#45;0</title>
<g id="a_node2"><a xlink:title="i64&#45;0: primitive&#45;i64&#45;0">
<path fill="white" stroke="transparent" d="M112.67,-16C112.67,-16 123.33,-16 123.33,-16 128.67,-16 134,-21.33 134,-26.67 134,-26.67 134,-37.33 134,-37.33 134,-42.67 128.67,-48 123.33,-48 123.33,-48 112.67,-48 112.67,-48 107.33,-48 102,-42.67 102,-37.33 102,-37.33 102,-26.67 102,-26.67 102,-21.33 107.33,-16 112.67,-16"/>
<text text-anchor="start" x="113" y="-28.3" font-family="Helvetica,sans-Serif" font-size="14.00">0</text>
<path fill="none" stroke="black" d="M112.67,-16C112.67,-16 123.33,-16 123.33,-16 128.67,-16 134,-21.33 134,-26.67 134,-26.67 134,-37.33 134,-37.33 134,-42.67 128.67,-48 123.33,-48 123.33,-48 112.67,-48 112.67,-48 107.33,-48 102,-42.67 102,-37.33 102,-37.33 102,-26.67 102,-26.67 102,-21.33 107.33,-16 112.67,-16"/>
</a>
</g>
</g>
<!-- function&#45;1&#45;RegVal -->
<g id="node3" class="node">
<title>function&#45;1&#45;RegVal</title>
<g id="a_node3"><a xlink:title="Inst&#45;1: function&#45;1&#45;RegVal">
<path fill="white" stroke="transparent" d="M25.17,-95C25.17,-95 60.83,-95 60.83,-95 66.17,-95 71.5,-100.33 71.5,-105.67 71.5,-105.67 71.5,-116.33 71.5,-116.33 71.5,-121.67 66.17,-127 60.83,-127 60.83,-127 25.17,-127 25.17,-127 19.83,-127 14.5,-121.67 14.5,-116.33 14.5,-116.33 14.5,-105.67 14.5,-105.67 14.5,-100.33 19.83,-95 25.17,-95"/>
<text text-anchor="start" x="20" y="-107.3" font-family="Helvetica,sans-Serif" font-size="14.00">RegVal</text>
<path fill="none" stroke="black" d="M25.17,-95C25.17,-95 60.83,-95 60.83,-95 66.17,-95 71.5,-100.33 71.5,-105.67 71.5,-105.67 71.5,-116.33 71.5,-116.33 71.5,-121.67 66.17,-127 60.83,-127 60.83,-127 25.17,-127 25.17,-127 19.83,-127 14.5,-121.67 14.5,-116.33 14.5,-116.33 14.5,-105.67 14.5,-105.67 14.5,-100.33 19.83,-95 25.17,-95"/>
</a>
</g>
</g>
<!-- primitive&#45;String&#45;1 -->
<g id="node4" class="node">
<title>primitive&#45;String&#45;1</title>
<g id="a_node4"><a xlink:title="String&#45;1: primitive&#45;String&#45;1">
<path fill="white" stroke="transparent" d="M26.17,-16C26.17,-16 61.83,-16 61.83,-16 67.17,-16 72.5,-21.33 72.5,-26.67 72.5,-26.67 72.5,-37.33 72.5,-37.33 72.5,-42.67 67.17,-48 61.83,-48 61.83,-48 26.17,-48 26.17,-48 20.83,-48 15.5,-42.67 15.5,-37.33 15.5,-37.33 15.5,-26.67 15.5,-26.67 15.5,-21.33 20.83,-16 26.17,-16"/>
<text text-anchor="start" x="21" y="-28.3" font-family="Helvetica,sans-Serif" font-size="14.00">&quot;a6_0&quot;</text>
<path fill="none" stroke="black" d="M26.17,-16C26.17,-16 61.83,-16 61.83,-16 67.17,-16 72.5,-21.33 72.5,-26.67 72.5,-26.67 72.5,-37.33 72.5,-37.33 72.5,-42.67 67.17,-48 61.83,-48 61.83,-48 26.17,-48 26.17,-48 20.83,-48 15.5,-42.67 15.5,-37.33 15.5,-37.33 15.5,-26.67 15.5,-26.67 15.5,-21.33 20.83,-16 26.17,-16"/>
</a>
</g>
</g>
<!-- function&#45;1&#45;Addi -->
<g id="node5" class="node">
<title>function&#45;1&#45;Addi</title>
<g id="a_node5"><a xlink:title="Inst&#45;5: function&#45;1&#45;Addi">
<path fill="white" stroke="transparent" d="M43.17,-174C43.17,-174 62.83,-174 62.83,-174 68.17,-174 73.5,-179.33 73.5,-184.67 73.5,-184.67 73.5,-195.33 73.5,-195.33 73.5,-200.67 68.17,-206 62.83,-206 62.83,-206 43.17,-206 43.17,-206 37.83,-206 32.5,-200.67 32.5,-195.33 32.5,-195.33 32.5,-184.67 32.5,-184.67 32.5,-179.33 37.83,-174 43.17,-174"/>
<text text-anchor="start" x="38" y="-186.3" font-family="Helvetica,sans-Serif" font-size="14.00">Addi</text>
<path fill="none" stroke="black" d="M43.17,-174C43.17,-174 62.83,-174 62.83,-174 68.17,-174 73.5,-179.33 73.5,-184.67 73.5,-184.67 73.5,-195.33 73.5,-195.33 73.5,-200.67 68.17,-206 62.83,-206 62.83,-206 43.17,-206 43.17,-206 37.83,-206 32.5,-200.67 32.5,-195.33 32.5,-195.33 32.5,-184.67 32.5,-184.67 32.5,-179.33 37.83,-174 43.17,-174"/>
</a>
</g>
</g>
<!-- function&#45;0&#45;Jal -->
<g id="node6" class="node">
<title>function&#45;0&#45;Jal</title>
<g id="a_node6"><a xlink:title="Inst&#45;7: function&#45;0&#45;Jal">
<path fill="white" stroke="transparent" d="M113.67,-174C113.67,-174 124.33,-174 124.33,-174 129.67,-174 135,-179.33 135,-184.67 135,-184.67 135,-195.33 135,-195.33 135,-200.67 129.67,-206 124.33,-206 124.33,-206 113.67,-206 113.67,-206 108.33,-206 103,-200.67 103,-195.33 103,-195.33 103,-184.67 103,-184.67 103,-179.33 108.33,-174 113.67,-174"/>
<text text-anchor="start" x="110.5" y="-186.3" font-family="Helvetica,sans-Serif" font-size="14.00">Jal</text>
<path fill="none" stroke="black" d="M113.67,-174C113.67,-174 124.33,-174 124.33,-174 129.67,-174 135,-179.33 135,-184.67 135,-184.67 135,-195.33 135,-195.33 135,-200.67 129.67,-206 124.33,-206 124.33,-206 113.67,-206 113.67,-206 108.33,-206 103,-200.67 103,-195.33 103,-195.33 103,-184.67 103,-184.67 103,-179.33 108.33,-174 113.67,-174"/>
</a>
</g>
</g>
<!-- function&#45;0&#45;Addi -->
<g id="node7" class="node">
<title>function&#45;0&#45;Addi</title>
<g id="a_node7"><a xlink:title="Inst&#45;4: function&#45;0&#45;Addi">
<path fill="white" stroke="transparent" d="M181.17,-174C181.17,-174 200.83,-174 200.83,-174 206.17,-174 211.5,-179.33 211.5,-184.67 211.5,-184.67 211.5,-195.33 211.5,-195.33 211.5,-200.67 206.17,-206 200.83,-206 200.83,-206 181.17,-206 181.17,-206 175.83,-206 170.5,-200.67 170.5,-195.33 170.5,-195.33 170.5,-184.67 170.5,-184.67 170.5,-179.33 175.83,-174 181.17,-174"/>
<text text-anchor="start" x="176" y="-186.3" font-family="Helvetica,sans-Serif" font-size="14.00">Addi</text>
<path fill="none" stroke="black" d="M181.17,-174C181.17,-174 200.83,-174 200.83,-174 206.17,-174 211.5,-179.33 211.5,-184.67 211.5,-184.67 211.5,-195.33 211.5,-195.33 211.5,-200.67 206.17,-206 200.83,-206 200.83,-206 181.17,-206 181.17,-206 175.83,-206 170.5,-200.67 170.5,-195.33 170.5,-195.33 170.5,-184.67 170.5,-184.67 170.5,-179.33 175.83,-174 181.17,-174"/>
</a>
</g>
</g>
<!-- function&#45;0&#45;RegVal -->
<g id="node8" class="node">
<title>function&#45;0&#45;RegVal</title>
<g id="a_node8"><a xlink:title="Inst&#45;0: function&#45;0&#45;RegVal">
<path fill="white" stroke="transparent" d="M172.17,-95C172.17,-95 207.83,-95 207.83,-95 213.17,-95 218.5,-100.33 218.5,-105.67 218.5,-105.67 218.5,-116.33 218.5,-116.33 218.5,-121.67 213.17,-127 207.83,-127 207.83,-127 172.17,-127 172.17,-127 166.83,-127 161.5,-121.67 161.5,-116.33 161.5,-116.33 161.5,-105.67 161.5,-105.67 161.5,-100.33 166.83,-95 172.17,-95"/>
<text text-anchor="start" x="167" y="-107.3" font-family="Helvetica,sans-Serif" font-size="14.00">RegVal</text>
<path fill="none" stroke="black" d="M172.17,-95C172.17,-95 207.83,-95 207.83,-95 213.17,-95 218.5,-100.33 218.5,-105.67 218.5,-105.67 218.5,-116.33 218.5,-116.33 218.5,-121.67 213.17,-127 207.83,-127 207.83,-127 172.17,-127 172.17,-127 166.83,-127 161.5,-121.67 161.5,-116.33 161.5,-116.33 161.5,-105.67 161.5,-105.67 161.5,-100.33 166.83,-95 172.17,-95"/>
</a>
</g>
</g>
<!-- function&#45;2&#45;Addi -->
<g id="node9" class="node">
<title>function&#45;2&#45;Addi</title>
<g id="a_node9"><a xlink:title="Inst&#45;6: function&#45;2&#45;Addi">
<path fill="white" stroke="transparent" d="M250.17,-174C250.17,-174 269.83,-174 269.83,-174 275.17,-174 280.5,-179.33 280.5,-184.67 280.5,-184.67 280.5,-195.33 280.5,-195.33 280.5,-200.67 275.17,-206 269.83,-206 269.83,-206 250.17,-206 250.17,-206 244.83,-206 239.5,-200.67 239.5,-195.33 239.5,-195.33 239.5,-184.67 239.5,-184.67 239.5,-179.33 244.83,-174 250.17,-174"/>
<text text-anchor="start" x="245" y="-186.3" font-family="Helvetica,sans-Serif" font-size="14.00">Addi</text>
<path fill="none" stroke="black" d="M250.17,-174C250.17,-174 269.83,-174 269.83,-174 275.17,-174 280.5,-179.33 280.5,-184.67 280.5,-184.67 280.5,-195.33 280.5,-195.33 280.5,-200.67 275.17,-206 269.83,-206 269.83,-206 250.17,-206 250.17,-206 244.83,-206 239.5,-200.67 239.5,-195.33 239.5,-195.33 239.5,-184.67 239.5,-184.67 239.5,-179.33 244.83,-174 250.17,-174"/>
</a>
</g>
</g>
<!-- function&#45;2&#45;RegVal -->
<g id="node10" class="node">
<title>function&#45;2&#45;RegVal</title>
<g id="a_node10"><a xlink:title="Inst&#45;2: function&#45;2&#45;RegVal">
<path fill="white" stroke="transparent" d="M242.17,-95C242.17,-95 277.83,-95 277.83,-95 283.17,-95 288.5,-100.33 288.5,-105.67 288.5,-105.67 288.5,-116.33 288.5,-116.33 288.5,-121.67 283.17,-127 277.83,-127 277.83,-127 242.17,-127 242.17,-127 236.83,-127 231.5,-121.67 231.5,-116.33 231.5,-116.33 231.5,-105.67 231.5,-105.67 231.5,-100.33 236.83,-95 242.17,-95"/>
<text text-anchor="start" x="237" y="-107.3" font-family="Helvetica,sans-Serif" font-size="14.00">RegVal</text>
<path fill="none" stroke="black" d="M242.17,-95C242.17,-95 277.83,-95 277.83,-95 283.17,-95 288.5,-100.33 288.5,-105.67 288.5,-105.67 288.5,-116.33 288.5,-116.33 288.5,-121.67 283.17,-127 277.83,-127 277.83,-127 242.17,-127 242.17,-127 236.83,-127 231.5,-121.67 231.5,-116.33 231.5,-116.33 231.5,-105.67 231.5,-105.67 231.5,-100.33 236.83,-95 242.17,-95"/>
</a>
</g>
</g>
<!-- primitive&#45;String&#45;0 -->
<g id="node11" class="node">
<title>primitive&#45;String&#45;0</title>
<g id="a_node11"><a xlink:title="String&#45;0: primitive&#45;String&#45;0">
<path fill="white" stroke="transparent" d="M173.17,-16C173.17,-16 208.83,-16 208.83,-16 214.17,-16 219.5,-21.33 219.5,-26.67 219.5,-26.67 219.5,-37.33 219.5,-37.33 219.5,-42.67 214.17,-48 208.83,-48 208.83,-48 173.17,-48 173.17,-48 167.83,-48 162.5,-42.67 162.5,-37.33 162.5,-37.33 162.5,-26.67 162.5,-26.67 162.5,-21.33 167.83,-16 173.17,-16"/>
<text text-anchor="start" x="168" y="-28.3" font-family="Helvetica,sans-Serif" font-size="14.00">&quot;a3_0&quot;</text>
<path fill="none" stroke="black" d="M173.17,-16C173.17,-16 208.83,-16 208.83,-16 214.17,-16 219.5,-21.33 219.5,-26.67 219.5,-26.67 219.5,-37.33 219.5,-37.33 219.5,-42.67 214.17,-48 208.83,-48 208.83,-48 173.17,-48 173.17,-48 167.83,-48 162.5,-42.67 162.5,-37.33 162.5,-37.33 162.5,-26.67 162.5,-26.67 162.5,-21.33 167.83,-16 173.17,-16"/>
</a>
</g>
</g>
<!-- primitive&#45;String&#45;2 -->
<g id="node12" class="node">
<title>primitive&#45;String&#45;2</title>
<g id="a_node12"><a xlink:title="String&#45;2: primitive&#45;String&#45;2">
<path fill="white" stroke="transparent" d="M244.67,-16C244.67,-16 277.33,-16 277.33,-16 282.67,-16 288,-21.33 288,-26.67 288,-26.67 288,-37.33 288,-37.33 288,-42.67 282.67,-48 277.33,-48 277.33,-48 244.67,-48 244.67,-48 239.33,-48 234,-42.67 234,-37.33 234,-37.33 234,-26.67 234,-26.67 234,-21.33 239.33,-16 244.67,-16"/>
<text text-anchor="start" x="239" y="-28.3" font-family="Helvetica,sans-Serif" font-size="14.00">&quot;t1_0&quot;</text>
<path fill="none" stroke="black" d="M244.67,-16C244.67,-16 277.33,-16 277.33,-16 282.67,-16 288,-21.33 288,-26.67 288,-26.67 288,-37.33 288,-37.33 288,-42.67 282.67,-48 277.33,-48 277.33,-48 244.67,-48 244.67,-48 239.33,-48 234,-42.67 234,-37.33 234,-37.33 234,-26.67 234,-26.67 234,-21.33 239.33,-16 244.67,-16"/>
</a>
</g>
</g>
</g>
</svg>
