<?xml version="1.0" encoding="UTF-8" standalone="no"?>
<!DOCTYPE svg PUBLIC "-//W3C//DTD SVG 1.1//EN"
 "http://www.w3.org/Graphics/SVG/1.1/DTD/svg11.dtd">
<!-- Generated by graphviz version 2.43.0 (0)
 -->
<!-- Title: %3 Pages: 1 -->
<svg width="249pt" height="230pt"
 viewBox="0.00 0.00 249.00 230.00" xmlns="http://www.w3.org/2000/svg" xmlns:xlink="http://www.w3.org/1999/xlink">
<g id="graph0" class="graph" transform="scale(1 1) rotate(0) translate(4 226)">
<title>%3</title>
<polygon fill="white" stroke="#000000" points="-4,4 -4,-226 245,-226 245,4 -4,4"/>
<g id="clust1" class="cluster">
<title>outer_cluster_Imm&#45;1</title>
</g>
<g id="clust2" class="cluster">
<title>cluster_Imm&#45;1</title>
<path fill="#ffffb3" stroke="black" stroke-dasharray="5,2" d="M23,-90C23,-90 67,-90 67,-90 73,-90 79,-96 79,-102 79,-102 79,-120 79,-120 79,-126 73,-132 67,-132 67,-132 23,-132 23,-132 17,-132 11,-126 11,-120 11,-120 11,-102 11,-102 11,-96 17,-90 23,-90"/>
</g>
<g id="clust4" class="cluster">
<title>outer_cluster_Imm&#45;3</title>
</g>
<g id="clust5" class="cluster">
<title>cluster_Imm&#45;3</title>
<path fill="#ffffb3" stroke="black" stroke-dasharray="5,2" d="M174,-90C174,-90 218,-90 218,-90 224,-90 230,-96 230,-102 230,-102 230,-120 230,-120 230,-126 224,-132 218,-132 218,-132 174,-132 174,-132 168,-132 162,-126 162,-120 162,-120 162,-102 162,-102 162,-96 168,-90 174,-90"/>
</g>
<g id="clust7" class="cluster">
<title>outer_cluster_Inst&#45;4</title>
</g>
<g id="clust8" class="cluster">
<title>cluster_Inst&#45;4</title>
<path fill="#bebada" stroke="black" stroke-dasharray="5,2" d="M178,-169C178,-169 214,-169 214,-169 220,-169 226,-175 226,-181 226,-181 226,-199 226,-199 226,-205 220,-211 214,-211 214,-211 178,-211 178,-211 172,-211 166,-205 166,-199 166,-199 166,-181 166,-181 166,-175 172,-169 178,-169"/>
</g>
<g id="clust10" class="cluster">
<title>outer_cluster_Inst&#45;5</title>
</g>
<g id="clust11" class="cluster">
<title>cluster_Inst&#45;5</title>
<path fill="#bebada" stroke="black" stroke-dasharray="5,2" d="M27,-169C27,-169 63,-169 63,-169 69,-169 75,-175 75,-181 75,-181 75,-199 75,-199 75,-205 69,-211 63,-211 63,-211 27,-211 27,-211 21,-211 15,-205 15,-199 15,-199 15,-181 15,-181 15,-175 21,-169 27,-169"/>
</g>
<g id="clust13" class="cluster">
<title>outer_cluster_Inst&#45;2</title>
</g>
<g id="clust14" class="cluster">
<title>cluster_Inst&#45;2</title>
<path fill="#bebada" stroke="black" stroke-dasharray="5,2" d="M105,-169C105,-169 141,-169 141,-169 147,-169 153,-175 153,-181 153,-181 153,-199 153,-199 153,-205 147,-211 141,-211 141,-211 105,-211 105,-211 99,-211 93,-205 93,-199 93,-199 93,-181 93,-181 93,-175 99,-169 105,-169"/>
</g>
<g id="clust16" class="cluster">
<title>outer_cluster_Inst&#45;0</title>
</g>
<g id="clust17" class="cluster">
<title>cluster_Inst&#45;0</title>
<path fill="#bebada" stroke="black" stroke-dasharray="5,2" d="M97,-90C97,-90 137,-90 137,-90 143,-90 149,-96 149,-102 149,-102 149,-120 149,-120 149,-126 143,-132 137,-132 137,-132 97,-132 97,-132 91,-132 85,-126 85,-120 85,-120 85,-102 85,-102 85,-96 91,-90 97,-90"/>
</g>
<g id="clust19" class="cluster">
<title>outer_cluster_String&#45;0</title>
</g>
<g id="clust20" class="cluster">
<title>cluster_String&#45;0</title>
<path fill="#fb8072" stroke="black" stroke-dasharray="5,2" d="M92,-11C92,-11 144,-11 144,-11 150,-11 156,-17 156,-23 156,-23 156,-41 156,-41 156,-47 150,-53 144,-53 144,-53 92,-53 92,-53 86,-53 80,-47 80,-41 80,-41 80,-23 80,-23 80,-17 86,-11 92,-11"/>
</g>
<g id="clust22" class="cluster">
<title>outer_cluster_i64&#45;1024</title>
</g>
<g id="clust23" class="cluster">
<title>cluster_i64&#45;1024</title>
<path fill="#80b1d3" stroke="black" stroke-dasharray="5,2" d="M178,-11C178,-11 214,-11 214,-11 220,-11 226,-17 226,-23 226,-23 226,-41 226,-41 226,-47 220,-53 214,-53 214,-53 178,-53 178,-53 172,-53 166,-47 166,-41 166,-41 166,-23 166,-23 166,-17 172,-11 178,-11"/>
</g>
<g id="clust25" class="cluster">
<title>outer_cluster_i64&#45;0</title>
</g>
<g id="clust26" class="cluster">
<title>cluster_i64&#45;0</title>
<path fill="#80b1d3" stroke="black" stroke-dasharray="5,2" d="M26,-11C26,-11 62,-11 62,-11 68,-11 74,-17 74,-23 74,-23 74,-41 74,-41 74,-47 68,-53 62,-53 62,-53 26,-53 26,-53 20,-53 14,-47 14,-41 14,-41 14,-23 14,-23 14,-17 20,-11 26,-11"/>
</g>
<!-- function&#45;0&#45;ImmVal&#45;&gt;primitive&#45;i64&#45;0 -->
<g id="edge1" class="edge">
<title>function&#45;0&#45;ImmVal:s&#45;&gt;primitive&#45;i64&#45;0</title>
<path fill="none" stroke="black" d="M45,-95C45,-81.84 44.77,-67.1 44.53,-55.3"/>
<polygon fill="black" stroke="black" points="46.41,-57.91 44.42,-53 42.91,-58.08 46.41,-57.91"/>
</g>
<!-- function&#45;1&#45;ImmVal&#45;&gt;primitive&#45;i64&#45;1024 -->
<g id="edge2" class="edge">
<title>function&#45;1&#45;ImmVal:s&#45;&gt;primitive&#45;i64&#45;1024</title>
<path fill="none" stroke="black" d="M196,-95C196,-81.84 196,-67.11 196,-55.3"/>
<polygon fill="black" stroke="black" points="197.75,-58 196,-53 194.25,-58 197.75,-58"/>
</g>
<!-- function&#45;0&#45;Lui&#45;&gt;function&#45;1&#45;ImmVal -->
<g id="edge3" class="edge">
<title>function&#45;0&#45;Lui:s&#45;&gt;function&#45;1&#45;ImmVal</title>
<path fill="none" stroke="black" d="M196,-174C196,-160.84 196,-146.11 196,-134.3"/>
<polygon fill="black" stroke="black" points="197.75,-137 196,-132 194.25,-137 197.75,-137"/>
</g>
<!-- function&#45;0&#45;Jal&#45;&gt;function&#45;0&#45;ImmVal -->
<g id="edge4" class="edge">
<title>function&#45;0&#45;Jal:s&#45;&gt;function&#45;0&#45;ImmVal</title>
<path fill="none" stroke="black" d="M45,-174C45,-160.84 45,-146.11 45,-134.3"/>
<polygon fill="black" stroke="black" points="46.75,-137 45,-132 43.25,-137 46.75,-137"/>
</g>
<!-- function&#45;0&#45;Addi&#45;&gt;function&#45;0&#45;ImmVal -->
<g id="edge6" class="edge">
<title>function&#45;0&#45;Addi:s&#45;&gt;function&#45;0&#45;ImmVal</title>
<path fill="none" stroke="black" d="M133,-174C133,-167.48 106.81,-149.62 83.01,-134.74"/>
<polygon fill="black" stroke="black" points="83.77,-133.15 78.6,-132 81.92,-136.12 83.77,-133.15"/>
</g>
<!-- function&#45;0&#45;Addi&#45;&gt;function&#45;0&#45;RegVal -->
<g id="edge5" class="edge">
<title>function&#45;0&#45;Addi:s&#45;&gt;function&#45;0&#45;RegVal</title>
<path fill="none" stroke="black" d="M113,-174C113,-160.81 113.91,-146.08 114.87,-134.28"/>
<polygon fill="black" stroke="black" points="116.08,-137.24 115.3,-132 112.64,-136.58 116.08,-137.24"/>
</g>
<!-- function&#45;0&#45;RegVal&#45;&gt;primitive&#45;String&#45;0 -->
<g id="edge7" class="edge">
<title>function&#45;0&#45;RegVal:s&#45;&gt;primitive&#45;String&#45;0</title>
<path fill="none" stroke="black" d="M118,-95C118,-81.84 118,-67.11 118,-55.3"/>
<polygon fill="black" stroke="black" points="119.75,-58 118,-53 116.25,-58 119.75,-58"/>
</g>
<!-- function&#45;0&#45;ImmVal -->
<g id="node1" class="node">
<title>function&#45;0&#45;ImmVal</title>
<g id="a_node1"><a xlink:title="Imm&#45;1: function&#45;0&#45;ImmVal">
<path fill="white" stroke="transparent" d="M24.67,-95C24.67,-95 65.33,-95 65.33,-95 70.67,-95 76,-100.33 76,-105.67 76,-105.67 76,-116.33 76,-116.33 76,-121.67 70.67,-127 65.33,-127 65.33,-127 24.67,-127 24.67,-127 19.33,-127 14,-121.67 14,-116.33 14,-116.33 14,-105.67 14,-105.67 14,-100.33 19.33,-95 24.67,-95"/>
<text text-anchor="start" x="19" y="-107.3" font-family="Helvetica,sans-Serif" font-size="14.00">ImmVal</text>
<path fill="none" stroke="black" d="M24.67,-95C24.67,-95 65.33,-95 65.33,-95 70.67,-95 76,-100.33 76,-105.67 76,-105.67 76,-116.33 76,-116.33 76,-121.67 70.67,-127 65.33,-127 65.33,-127 24.67,-127 24.67,-127 19.33,-127 14,-121.67 14,-116.33 14,-116.33 14,-105.67 14,-105.67 14,-100.33 19.33,-95 24.67,-95"/>
</a>
</g>
</g>
<!-- primitive&#45;i64&#45;0 -->
<g id="node2" class="node">
<title>primitive&#45;i64&#45;0</title>
<g id="a_node2"><a xlink:title="i64&#45;0: primitive&#45;i64&#45;0">
<path fill="white" stroke="transparent" d="M38.67,-16C38.67,-16 49.33,-16 49.33,-16 54.67,-16 60,-21.33 60,-26.67 60,-26.67 60,-37.33 60,-37.33 60,-42.67 54.67,-48 49.33,-48 49.33,-48 38.67,-48 38.67,-48 33.33,-48 28,-42.67 28,-37.33 28,-37.33 28,-26.67 28,-26.67 28,-21.33 33.33,-16 38.67,-16"/>
<text text-anchor="start" x="39" y="-28.3" font-family="Helvetica,sans-Serif" font-size="14.00">0</text>
<path fill="none" stroke="black" d="M38.67,-16C38.67,-16 49.33,-16 49.33,-16 54.67,-16 60,-21.33 60,-26.67 60,-26.67 60,-37.33 60,-37.33 60,-42.67 54.67,-48 49.33,-48 49.33,-48 38.67,-48 38.67,-48 33.33,-48 28,-42.67 28,-37.33 28,-37.33 28,-26.67 28,-26.67 28,-21.33 33.33,-16 38.67,-16"/>
</a>
</g>
</g>
<!-- function&#45;1&#45;ImmVal -->
<g id="node3" class="node">
<title>function&#45;1&#45;ImmVal</title>
<g id="a_node3"><a xlink:title="Imm&#45;3: function&#45;1&#45;ImmVal">
<path fill="white" stroke="transparent" d="M175.67,-95C175.67,-95 216.33,-95 216.33,-95 221.67,-95 227,-100.33 227,-105.67 227,-105.67 227,-116.33 227,-116.33 227,-121.67 221.67,-127 216.33,-127 216.33,-127 175.67,-127 175.67,-127 170.33,-127 165,-121.67 165,-116.33 165,-116.33 165,-105.67 165,-105.67 165,-100.33 170.33,-95 175.67,-95"/>
<text text-anchor="start" x="170" y="-107.3" font-family="Helvetica,sans-Serif" font-size="14.00">ImmVal</text>
<path fill="none" stroke="black" d="M175.67,-95C175.67,-95 216.33,-95 216.33,-95 221.67,-95 227,-100.33 227,-105.67 227,-105.67 227,-116.33 227,-116.33 227,-121.67 221.67,-127 216.33,-127 216.33,-127 175.67,-127 175.67,-127 170.33,-127 165,-121.67 165,-116.33 165,-116.33 165,-105.67 165,-105.67 165,-100.33 170.33,-95 175.67,-95"/>
</a>
</g>
</g>
<!-- primitive&#45;i64&#45;1024 -->
<g id="node4" class="node">
<title>primitive&#45;i64&#45;1024</title>
<g id="a_node4"><a xlink:title="i64&#45;1024: primitive&#45;i64&#45;1024">
<path fill="white" stroke="transparent" d="M183.17,-16C183.17,-16 208.83,-16 208.83,-16 214.17,-16 219.5,-21.33 219.5,-26.67 219.5,-26.67 219.5,-37.33 219.5,-37.33 219.5,-42.67 214.17,-48 208.83,-48 208.83,-48 183.17,-48 183.17,-48 177.83,-48 172.5,-42.67 172.5,-37.33 172.5,-37.33 172.5,-26.67 172.5,-26.67 172.5,-21.33 177.83,-16 183.17,-16"/>
<text text-anchor="start" x="178" y="-28.3" font-family="Helvetica,sans-Serif" font-size="14.00">1024</text>
<path fill="none" stroke="black" d="M183.17,-16C183.17,-16 208.83,-16 208.83,-16 214.17,-16 219.5,-21.33 219.5,-26.67 219.5,-26.67 219.5,-37.33 219.5,-37.33 219.5,-42.67 214.17,-48 208.83,-48 208.83,-48 183.17,-48 183.17,-48 177.83,-48 172.5,-42.67 172.5,-37.33 172.5,-37.33 172.5,-26.67 172.5,-26.67 172.5,-21.33 177.83,-16 183.17,-16"/>
</a>
</g>
</g>
<!-- function&#45;0&#45;Lui -->
<g id="node5" class="node">
<title>function&#45;0&#45;Lui</title>
<g id="a_node5"><a xlink:title="Inst&#45;4: function&#45;0&#45;Lui">
<path fill="white" stroke="transparent" d="M190.67,-174C190.67,-174 201.33,-174 201.33,-174 206.67,-174 212,-179.33 212,-184.67 212,-184.67 212,-195.33 212,-195.33 212,-200.67 206.67,-206 201.33,-206 201.33,-206 190.67,-206 190.67,-206 185.33,-206 180,-200.67 180,-195.33 180,-195.33 180,-184.67 180,-184.67 180,-179.33 185.33,-174 190.67,-174"/>
<text text-anchor="start" x="185.5" y="-186.3" font-family="Helvetica,sans-Serif" font-size="14.00">Lui</text>
<path fill="none" stroke="black" d="M190.67,-174C190.67,-174 201.33,-174 201.33,-174 206.67,-174 212,-179.33 212,-184.67 212,-184.67 212,-195.33 212,-195.33 212,-200.67 206.67,-206 201.33,-206 201.33,-206 190.67,-206 190.67,-206 185.33,-206 180,-200.67 180,-195.33 180,-195.33 180,-184.67 180,-184.67 180,-179.33 185.33,-174 190.67,-174"/>
</a>
</g>
</g>
<!-- function&#45;0&#45;Jal -->
<g id="node6" class="node">
<title>function&#45;0&#45;Jal</title>
<g id="a_node6"><a xlink:title="Inst&#45;5: function&#45;0&#45;Jal">
<path fill="white" stroke="transparent" d="M39.67,-174C39.67,-174 50.33,-174 50.33,-174 55.67,-174 61,-179.33 61,-184.67 61,-184.67 61,-195.33 61,-195.33 61,-200.67 55.67,-206 50.33,-206 50.33,-206 39.67,-206 39.67,-206 34.33,-206 29,-200.67 29,-195.33 29,-195.33 29,-184.67 29,-184.67 29,-179.33 34.33,-174 39.67,-174"/>
<text text-anchor="start" x="36.5" y="-186.3" font-family="Helvetica,sans-Serif" font-size="14.00">Jal</text>
<path fill="none" stroke="black" d="M39.67,-174C39.67,-174 50.33,-174 50.33,-174 55.67,-174 61,-179.33 61,-184.67 61,-184.67 61,-195.33 61,-195.33 61,-200.67 55.67,-206 50.33,-206 50.33,-206 39.67,-206 39.67,-206 34.33,-206 29,-200.67 29,-195.33 29,-195.33 29,-184.67 29,-184.67 29,-179.33 34.33,-174 39.67,-174"/>
</a>
</g>
</g>
<!-- function&#45;0&#45;Addi -->
<g id="node7" class="node">
<title>function&#45;0&#45;Addi</title>
<g id="a_node7"><a xlink:title="Inst&#45;2: function&#45;0&#45;Addi">
<path fill="white" stroke="transparent" d="M113.17,-174C113.17,-174 132.83,-174 132.83,-174 138.17,-174 143.5,-179.33 143.5,-184.67 143.5,-184.67 143.5,-195.33 143.5,-195.33 143.5,-200.67 138.17,-206 132.83,-206 132.83,-206 113.17,-206 113.17,-206 107.83,-206 102.5,-200.67 102.5,-195.33 102.5,-195.33 102.5,-184.67 102.5,-184.67 102.5,-179.33 107.83,-174 113.17,-174"/>
<text text-anchor="start" x="108" y="-186.3" font-family="Helvetica,sans-Serif" font-size="14.00">Addi</text>
<path fill="none" stroke="black" d="M113.17,-174C113.17,-174 132.83,-174 132.83,-174 138.17,-174 143.5,-179.33 143.5,-184.67 143.5,-184.67 143.5,-195.33 143.5,-195.33 143.5,-200.67 138.17,-206 132.83,-206 132.83,-206 113.17,-206 113.17,-206 107.83,-206 102.5,-200.67 102.5,-195.33 102.5,-195.33 102.5,-184.67 102.5,-184.67 102.5,-179.33 107.83,-174 113.17,-174"/>
</a>
</g>
</g>
<!-- function&#45;0&#45;RegVal -->
<g id="node8" class="node">
<title>function&#45;0&#45;RegVal</title>
<g id="a_node8"><a xlink:title="Inst&#45;0: function&#45;0&#45;RegVal">
<path fill="white" stroke="transparent" d="M99.17,-95C99.17,-95 134.83,-95 134.83,-95 140.17,-95 145.5,-100.33 145.5,-105.67 145.5,-105.67 145.5,-116.33 145.5,-116.33 145.5,-121.67 140.17,-127 134.83,-127 134.83,-127 99.17,-127 99.17,-127 93.83,-127 88.5,-121.67 88.5,-116.33 88.5,-116.33 88.5,-105.67 88.5,-105.67 88.5,-100.33 93.83,-95 99.17,-95"/>
<text text-anchor="start" x="94" y="-107.3" font-family="Helvetica,sans-Serif" font-size="14.00">RegVal</text>
<path fill="none" stroke="black" d="M99.17,-95C99.17,-95 134.83,-95 134.83,-95 140.17,-95 145.5,-100.33 145.5,-105.67 145.5,-105.67 145.5,-116.33 145.5,-116.33 145.5,-121.67 140.17,-127 134.83,-127 134.83,-127 99.17,-127 99.17,-127 93.83,-127 88.5,-121.67 88.5,-116.33 88.5,-116.33 88.5,-105.67 88.5,-105.67 88.5,-100.33 93.83,-95 99.17,-95"/>
</a>
</g>
</g>
<!-- primitive&#45;String&#45;0 -->
<g id="node9" class="node">
<title>primitive&#45;String&#45;0</title>
<g id="a_node9"><a xlink:title="String&#45;0: primitive&#45;String&#45;0">
<path fill="white" stroke="transparent" d="M94.17,-16C94.17,-16 141.83,-16 141.83,-16 147.17,-16 152.5,-21.33 152.5,-26.67 152.5,-26.67 152.5,-37.33 152.5,-37.33 152.5,-42.67 147.17,-48 141.83,-48 141.83,-48 94.17,-48 94.17,-48 88.83,-48 83.5,-42.67 83.5,-37.33 83.5,-37.33 83.5,-26.67 83.5,-26.67 83.5,-21.33 88.83,-16 94.17,-16"/>
<text text-anchor="start" x="89" y="-28.3" font-family="Helvetica,sans-Serif" font-size="14.00">&quot;zero_0&quot;</text>
<path fill="none" stroke="black" d="M94.17,-16C94.17,-16 141.83,-16 141.83,-16 147.17,-16 152.5,-21.33 152.5,-26.67 152.5,-26.67 152.5,-37.33 152.5,-37.33 152.5,-42.67 147.17,-48 141.83,-48 141.83,-48 94.17,-48 94.17,-48 88.83,-48 83.5,-42.67 83.5,-37.33 83.5,-37.33 83.5,-26.67 83.5,-26.67 83.5,-21.33 88.83,-16 94.17,-16"/>
</a>
</g>
</g>
</g>
</svg>
