<?xml version="1.0" encoding="UTF-8" standalone="no"?>
<!DOCTYPE svg PUBLIC "-//W3C//DTD SVG 1.1//EN"
 "http://www.w3.org/Graphics/SVG/1.1/DTD/svg11.dtd">
<!-- Generated by graphviz version 2.43.0 (0)
 -->
<!-- Title: %3 Pages: 1 -->
<svg width="238pt" height="309pt"
 viewBox="0.00 0.00 238.00 309.00" xmlns="http://www.w3.org/2000/svg" xmlns:xlink="http://www.w3.org/1999/xlink">
<g id="graph0" class="graph" transform="scale(1 1) rotate(0) translate(4 305)">
<title>%3</title>
<polygon fill="white" stroke="#000000" points="-4,4 -4,-305 234,-305 234,4 -4,4"/>
<g id="clust1" class="cluster">
<title>outer_cluster_Imm&#45;1</title>
</g>
<g id="clust2" class="cluster">
<title>cluster_Imm&#45;1</title>
<path fill="#ffffb3" stroke="black" stroke-dasharray="5,2" d="M93,-90C93,-90 137,-90 137,-90 143,-90 149,-96 149,-102 149,-102 149,-120 149,-120 149,-126 143,-132 137,-132 137,-132 93,-132 93,-132 87,-132 81,-126 81,-120 81,-120 81,-102 81,-102 81,-96 87,-90 93,-90"/>
</g>
<g id="clust4" class="cluster">
<title>outer_cluster_Imm&#45;4</title>
</g>
<g id="clust5" class="cluster">
<title>cluster_Imm&#45;4</title>
<path fill="#ffffb3" stroke="black" stroke-dasharray="5,2" d="M163,-169C163,-169 207,-169 207,-169 213,-169 219,-175 219,-181 219,-181 219,-199 219,-199 219,-205 213,-211 207,-211 207,-211 163,-211 163,-211 157,-211 151,-205 151,-199 151,-199 151,-181 151,-181 151,-175 157,-169 163,-169"/>
</g>
<g id="clust7" class="cluster">
<title>outer_cluster_Inst&#45;5</title>
</g>
<g id="clust8" class="cluster">
<title>cluster_Inst&#45;5</title>
<path fill="#bebada" stroke="black" stroke-dasharray="5,2" d="M167,-248C167,-248 203,-248 203,-248 209,-248 215,-254 215,-260 215,-260 215,-278 215,-278 215,-284 209,-290 203,-290 203,-290 167,-290 167,-290 161,-290 155,-284 155,-278 155,-278 155,-260 155,-260 155,-254 161,-248 167,-248"/>
</g>
<g id="clust10" class="cluster">
<title>outer_cluster_Inst&#45;3</title>
</g>
<g id="clust11" class="cluster">
<title>cluster_Inst&#45;3</title>
<path fill="#bebada" stroke="black" stroke-dasharray="5,2" d="M26,-248C26,-248 120,-248 120,-248 126,-248 132,-254 132,-260 132,-260 132,-278 132,-278 132,-284 126,-290 120,-290 120,-290 26,-290 26,-290 20,-290 14,-284 14,-278 14,-278 14,-260 14,-260 14,-254 20,-248 26,-248"/>
</g>
<g id="clust13" class="cluster">
<title>outer_cluster_Inst&#45;2</title>
</g>
<g id="clust14" class="cluster">
<title>cluster_Inst&#45;2</title>
<path fill="#bebada" stroke="black" stroke-dasharray="5,2" d="M95,-169C95,-169 131,-169 131,-169 137,-169 143,-175 143,-181 143,-181 143,-199 143,-199 143,-205 137,-211 131,-211 131,-211 95,-211 95,-211 89,-211 83,-205 83,-199 83,-199 83,-181 83,-181 83,-175 89,-169 95,-169"/>
</g>
<g id="clust16" class="cluster">
<title>outer_cluster_Inst&#45;0</title>
</g>
<g id="clust17" class="cluster">
<title>cluster_Inst&#45;0</title>
<path fill="#bebada" stroke="black" stroke-dasharray="5,2" d="M25,-169C25,-169 65,-169 65,-169 71,-169 77,-175 77,-181 77,-181 77,-199 77,-199 77,-205 71,-211 65,-211 65,-211 25,-211 25,-211 19,-211 13,-205 13,-199 13,-199 13,-181 13,-181 13,-175 19,-169 25,-169"/>
</g>
<g id="clust19" class="cluster">
<title>outer_cluster_String&#45;0</title>
</g>
<g id="clust20" class="cluster">
<title>cluster_String&#45;0</title>
<path fill="#fb8072" stroke="black" stroke-dasharray="5,2" d="M23,-90C23,-90 63,-90 63,-90 69,-90 75,-96 75,-102 75,-102 75,-120 75,-120 75,-126 69,-132 63,-132 63,-132 23,-132 23,-132 17,-132 11,-126 11,-120 11,-120 11,-102 11,-102 11,-96 17,-90 23,-90"/>
</g>
<g id="clust22" class="cluster">
<title>outer_cluster_i64&#45;2048</title>
</g>
<g id="clust23" class="cluster">
<title>cluster_i64&#45;2048</title>
<path fill="#80b1d3" stroke="black" stroke-dasharray="5,2" d="M97,-11C97,-11 133,-11 133,-11 139,-11 145,-17 145,-23 145,-23 145,-41 145,-41 145,-47 139,-53 133,-53 133,-53 97,-53 97,-53 91,-53 85,-47 85,-41 85,-41 85,-23 85,-23 85,-17 91,-11 97,-11"/>
</g>
<g id="clust25" class="cluster">
<title>outer_cluster_i64&#45;0</title>
</g>
<g id="clust26" class="cluster">
<title>cluster_i64&#45;0</title>
<path fill="#80b1d3" stroke="black" stroke-dasharray="5,2" d="M167,-90C167,-90 203,-90 203,-90 209,-90 215,-96 215,-102 215,-102 215,-120 215,-120 215,-126 209,-132 203,-132 203,-132 167,-132 167,-132 161,-132 155,-126 155,-120 155,-120 155,-102 155,-102 155,-96 161,-90 167,-90"/>
</g>
<!-- function&#45;0&#45;ImmVal&#45;&gt;primitive&#45;i64&#45;2048 -->
<g id="edge1" class="edge">
<title>function&#45;0&#45;ImmVal:s&#45;&gt;primitive&#45;i64&#45;2048</title>
<path fill="none" stroke="black" d="M115,-95C115,-81.84 115,-67.11 115,-55.3"/>
<polygon fill="black" stroke="black" points="116.75,-58 115,-53 113.25,-58 116.75,-58"/>
</g>
<!-- function&#45;1&#45;ImmVal&#45;&gt;primitive&#45;i64&#45;0 -->
<g id="edge2" class="edge">
<title>function&#45;1&#45;ImmVal:s&#45;&gt;primitive&#45;i64&#45;0</title>
<path fill="none" stroke="black" d="M185,-174C185,-160.84 185,-146.11 185,-134.3"/>
<polygon fill="black" stroke="black" points="186.75,-137 185,-132 183.25,-137 186.75,-137"/>
</g>
<!-- function&#45;0&#45;Jal&#45;&gt;function&#45;1&#45;ImmVal -->
<g id="edge3" class="edge">
<title>function&#45;0&#45;Jal:s&#45;&gt;function&#45;1&#45;ImmVal</title>
<path fill="none" stroke="black" d="M185,-253C185,-239.84 185,-225.11 185,-213.3"/>
<polygon fill="black" stroke="black" points="186.75,-216 185,-211 183.25,-216 186.75,-216"/>
</g>
<!-- function&#45;0&#45;Or&#45;&gt;function&#45;0&#45;RegVal -->
<g id="edge4" class="edge">
<title>function&#45;0&#45;Or:s&#45;&gt;function&#45;0&#45;RegVal</title>
<path fill="none" stroke="black" d="M94,-253C94,-236.85 83.64,-222.45 72.45,-211.6"/>
<polygon fill="black" stroke="black" points="76.71,-212.55 71.64,-211 74.64,-215.37 76.71,-212.55"/>
</g>
<!-- function&#45;0&#45;Or&#45;&gt;function&#45;0&#45;Lui -->
<g id="edge5" class="edge">
<title>function&#45;0&#45;Or:s&#45;&gt;function&#45;0&#45;Lui</title>
<path fill="none" stroke="black" d="M110,-253C110,-239.82 110.68,-225.09 111.4,-213.29"/>
<polygon fill="black" stroke="black" points="112.75,-216.2 111.73,-211 109.29,-215.7 112.75,-216.2"/>
</g>
<!-- function&#45;0&#45;RegVal&#45;&gt;primitive&#45;String&#45;0 -->
<g id="edge9" class="edge">
<title>function&#45;0&#45;RegVal:s&#45;&gt;primitive&#45;String&#45;0</title>
<path fill="none" stroke="black" d="M46,-174C46,-160.82 45.32,-146.09 44.6,-134.29"/>
<polygon fill="black" stroke="black" points="46.71,-136.7 44.27,-132 43.25,-137.2 46.71,-136.7"/>
</g>
<!-- function&#45;0&#45;Lui&#45;&gt;function&#45;0&#45;ImmVal -->
<g id="edge8" class="edge">
<title>function&#45;0&#45;Lui:s&#45;&gt;function&#45;0&#45;ImmVal</title>
<path fill="none" stroke="black" d="M113,-174C113,-160.83 113.46,-146.1 113.93,-134.3"/>
<polygon fill="black" stroke="black" points="115.42,-137.14 114.15,-132 111.94,-136.81 115.42,-137.14"/>
</g>
<!-- function&#45;1&#45;Or&#45;&gt;function&#45;0&#45;RegVal -->
<g id="edge7" class="edge">
<title>function&#45;1&#45;Or:s&#45;&gt;function&#45;0&#45;RegVal</title>
<path fill="none" stroke="black" d="M52,-253C52,-239.76 50.4,-225.02 48.73,-213.24"/>
<polygon fill="black" stroke="black" points="51.24,-215.16 47.97,-211 47.93,-216.3 51.24,-215.16"/>
</g>
<!-- function&#45;1&#45;Or&#45;&gt;function&#45;0&#45;Lui -->
<g id="edge6" class="edge">
<title>function&#45;1&#45;Or:s&#45;&gt;function&#45;0&#45;Lui</title>
<path fill="none" stroke="black" d="M36,-253C36,-246.6 62.11,-226.64 83.92,-211.07"/>
<polygon fill="black" stroke="black" points="79.74,-213.85 84.21,-211 78.94,-210.44 79.74,-213.85"/>
</g>
<!-- function&#45;0&#45;ImmVal -->
<g id="node1" class="node">
<title>function&#45;0&#45;ImmVal</title>
<g id="a_node1"><a xlink:title="Imm&#45;1: function&#45;0&#45;ImmVal">
<path fill="white" stroke="transparent" d="M94.67,-95C94.67,-95 135.33,-95 135.33,-95 140.67,-95 146,-100.33 146,-105.67 146,-105.67 146,-116.33 146,-116.33 146,-121.67 140.67,-127 135.33,-127 135.33,-127 94.67,-127 94.67,-127 89.33,-127 84,-121.67 84,-116.33 84,-116.33 84,-105.67 84,-105.67 84,-100.33 89.33,-95 94.67,-95"/>
<text text-anchor="start" x="89" y="-107.3" font-family="Helvetica,sans-Serif" font-size="14.00">ImmVal</text>
<path fill="none" stroke="black" d="M94.67,-95C94.67,-95 135.33,-95 135.33,-95 140.67,-95 146,-100.33 146,-105.67 146,-105.67 146,-116.33 146,-116.33 146,-121.67 140.67,-127 135.33,-127 135.33,-127 94.67,-127 94.67,-127 89.33,-127 84,-121.67 84,-116.33 84,-116.33 84,-105.67 84,-105.67 84,-100.33 89.33,-95 94.67,-95"/>
</a>
</g>
</g>
<!-- primitive&#45;i64&#45;2048 -->
<g id="node2" class="node">
<title>primitive&#45;i64&#45;2048</title>
<g id="a_node2"><a xlink:title="i64&#45;2048: primitive&#45;i64&#45;2048">
<path fill="white" stroke="transparent" d="M102.17,-16C102.17,-16 127.83,-16 127.83,-16 133.17,-16 138.5,-21.33 138.5,-26.67 138.5,-26.67 138.5,-37.33 138.5,-37.33 138.5,-42.67 133.17,-48 127.83,-48 127.83,-48 102.17,-48 102.17,-48 96.83,-48 91.5,-42.67 91.5,-37.33 91.5,-37.33 91.5,-26.67 91.5,-26.67 91.5,-21.33 96.83,-16 102.17,-16"/>
<text text-anchor="start" x="97" y="-28.3" font-family="Helvetica,sans-Serif" font-size="14.00">2048</text>
<path fill="none" stroke="black" d="M102.17,-16C102.17,-16 127.83,-16 127.83,-16 133.17,-16 138.5,-21.33 138.5,-26.67 138.5,-26.67 138.5,-37.33 138.5,-37.33 138.5,-42.67 133.17,-48 127.83,-48 127.83,-48 102.17,-48 102.17,-48 96.83,-48 91.5,-42.67 91.5,-37.33 91.5,-37.33 91.5,-26.67 91.5,-26.67 91.5,-21.33 96.83,-16 102.17,-16"/>
</a>
</g>
</g>
<!-- function&#45;1&#45;ImmVal -->
<g id="node3" class="node">
<title>function&#45;1&#45;ImmVal</title>
<g id="a_node3"><a xlink:title="Imm&#45;4: function&#45;1&#45;ImmVal">
<path fill="white" stroke="transparent" d="M164.67,-174C164.67,-174 205.33,-174 205.33,-174 210.67,-174 216,-179.33 216,-184.67 216,-184.67 216,-195.33 216,-195.33 216,-200.67 210.67,-206 205.33,-206 205.33,-206 164.67,-206 164.67,-206 159.33,-206 154,-200.67 154,-195.33 154,-195.33 154,-184.67 154,-184.67 154,-179.33 159.33,-174 164.67,-174"/>
<text text-anchor="start" x="159" y="-186.3" font-family="Helvetica,sans-Serif" font-size="14.00">ImmVal</text>
<path fill="none" stroke="black" d="M164.67,-174C164.67,-174 205.33,-174 205.33,-174 210.67,-174 216,-179.33 216,-184.67 216,-184.67 216,-195.33 216,-195.33 216,-200.67 210.67,-206 205.33,-206 205.33,-206 164.67,-206 164.67,-206 159.33,-206 154,-200.67 154,-195.33 154,-195.33 154,-184.67 154,-184.67 154,-179.33 159.33,-174 164.67,-174"/>
</a>
</g>
</g>
<!-- primitive&#45;i64&#45;0 -->
<g id="node4" class="node">
<title>primitive&#45;i64&#45;0</title>
<g id="a_node4"><a xlink:title="i64&#45;0: primitive&#45;i64&#45;0">
<path fill="white" stroke="transparent" d="M179.67,-95C179.67,-95 190.33,-95 190.33,-95 195.67,-95 201,-100.33 201,-105.67 201,-105.67 201,-116.33 201,-116.33 201,-121.67 195.67,-127 190.33,-127 190.33,-127 179.67,-127 179.67,-127 174.33,-127 169,-121.67 169,-116.33 169,-116.33 169,-105.67 169,-105.67 169,-100.33 174.33,-95 179.67,-95"/>
<text text-anchor="start" x="180" y="-107.3" font-family="Helvetica,sans-Serif" font-size="14.00">0</text>
<path fill="none" stroke="black" d="M179.67,-95C179.67,-95 190.33,-95 190.33,-95 195.67,-95 201,-100.33 201,-105.67 201,-105.67 201,-116.33 201,-116.33 201,-121.67 195.67,-127 190.33,-127 190.33,-127 179.67,-127 179.67,-127 174.33,-127 169,-121.67 169,-116.33 169,-116.33 169,-105.67 169,-105.67 169,-100.33 174.33,-95 179.67,-95"/>
</a>
</g>
</g>
<!-- function&#45;0&#45;Jal -->
<g id="node5" class="node">
<title>function&#45;0&#45;Jal</title>
<g id="a_node5"><a xlink:title="Inst&#45;5: function&#45;0&#45;Jal">
<path fill="white" stroke="transparent" d="M179.67,-253C179.67,-253 190.33,-253 190.33,-253 195.67,-253 201,-258.33 201,-263.67 201,-263.67 201,-274.33 201,-274.33 201,-279.67 195.67,-285 190.33,-285 190.33,-285 179.67,-285 179.67,-285 174.33,-285 169,-279.67 169,-274.33 169,-274.33 169,-263.67 169,-263.67 169,-258.33 174.33,-253 179.67,-253"/>
<text text-anchor="start" x="176.5" y="-265.3" font-family="Helvetica,sans-Serif" font-size="14.00">Jal</text>
<path fill="none" stroke="black" d="M179.67,-253C179.67,-253 190.33,-253 190.33,-253 195.67,-253 201,-258.33 201,-263.67 201,-263.67 201,-274.33 201,-274.33 201,-279.67 195.67,-285 190.33,-285 190.33,-285 179.67,-285 179.67,-285 174.33,-285 169,-279.67 169,-274.33 169,-274.33 169,-263.67 169,-263.67 169,-258.33 174.33,-253 179.67,-253"/>
</a>
</g>
</g>
<!-- function&#45;0&#45;Or -->
<g id="node6" class="node">
<title>function&#45;0&#45;Or</title>
<g id="a_node6"><a xlink:title="Inst&#45;3: function&#45;0&#45;Or">
<path fill="white" stroke="transparent" d="M96.67,-253C96.67,-253 107.33,-253 107.33,-253 112.67,-253 118,-258.33 118,-263.67 118,-263.67 118,-274.33 118,-274.33 118,-279.67 112.67,-285 107.33,-285 107.33,-285 96.67,-285 96.67,-285 91.33,-285 86,-279.67 86,-274.33 86,-274.33 86,-263.67 86,-263.67 86,-258.33 91.33,-253 96.67,-253"/>
<text text-anchor="start" x="93" y="-265.3" font-family="Helvetica,sans-Serif" font-size="14.00">Or</text>
<path fill="none" stroke="black" d="M96.67,-253C96.67,-253 107.33,-253 107.33,-253 112.67,-253 118,-258.33 118,-263.67 118,-263.67 118,-274.33 118,-274.33 118,-279.67 112.67,-285 107.33,-285 107.33,-285 96.67,-285 96.67,-285 91.33,-285 86,-279.67 86,-274.33 86,-274.33 86,-263.67 86,-263.67 86,-258.33 91.33,-253 96.67,-253"/>
</a>
</g>
</g>
<!-- function&#45;0&#45;RegVal -->
<g id="node7" class="node">
<title>function&#45;0&#45;RegVal</title>
<g id="a_node7"><a xlink:title="Inst&#45;0: function&#45;0&#45;RegVal">
<path fill="white" stroke="transparent" d="M27.17,-174C27.17,-174 62.83,-174 62.83,-174 68.17,-174 73.5,-179.33 73.5,-184.67 73.5,-184.67 73.5,-195.33 73.5,-195.33 73.5,-200.67 68.17,-206 62.83,-206 62.83,-206 27.17,-206 27.17,-206 21.83,-206 16.5,-200.67 16.5,-195.33 16.5,-195.33 16.5,-184.67 16.5,-184.67 16.5,-179.33 21.83,-174 27.17,-174"/>
<text text-anchor="start" x="22" y="-186.3" font-family="Helvetica,sans-Serif" font-size="14.00">RegVal</text>
<path fill="none" stroke="black" d="M27.17,-174C27.17,-174 62.83,-174 62.83,-174 68.17,-174 73.5,-179.33 73.5,-184.67 73.5,-184.67 73.5,-195.33 73.5,-195.33 73.5,-200.67 68.17,-206 62.83,-206 62.83,-206 27.17,-206 27.17,-206 21.83,-206 16.5,-200.67 16.5,-195.33 16.5,-195.33 16.5,-184.67 16.5,-184.67 16.5,-179.33 21.83,-174 27.17,-174"/>
</a>
</g>
</g>
<!-- function&#45;0&#45;Lui -->
<g id="node8" class="node">
<title>function&#45;0&#45;Lui</title>
<g id="a_node8"><a xlink:title="Inst&#45;2: function&#45;0&#45;Lui">
<path fill="white" stroke="transparent" d="M107.67,-174C107.67,-174 118.33,-174 118.33,-174 123.67,-174 129,-179.33 129,-184.67 129,-184.67 129,-195.33 129,-195.33 129,-200.67 123.67,-206 118.33,-206 118.33,-206 107.67,-206 107.67,-206 102.33,-206 97,-200.67 97,-195.33 97,-195.33 97,-184.67 97,-184.67 97,-179.33 102.33,-174 107.67,-174"/>
<text text-anchor="start" x="102.5" y="-186.3" font-family="Helvetica,sans-Serif" font-size="14.00">Lui</text>
<path fill="none" stroke="black" d="M107.67,-174C107.67,-174 118.33,-174 118.33,-174 123.67,-174 129,-179.33 129,-184.67 129,-184.67 129,-195.33 129,-195.33 129,-200.67 123.67,-206 118.33,-206 118.33,-206 107.67,-206 107.67,-206 102.33,-206 97,-200.67 97,-195.33 97,-195.33 97,-184.67 97,-184.67 97,-179.33 102.33,-174 107.67,-174"/>
</a>
</g>
</g>
<!-- function&#45;1&#45;Or -->
<g id="node9" class="node">
<title>function&#45;1&#45;Or</title>
<g id="a_node9"><a xlink:title="Inst&#45;3: function&#45;1&#45;Or">
<path fill="white" stroke="transparent" d="M38.67,-253C38.67,-253 49.33,-253 49.33,-253 54.67,-253 60,-258.33 60,-263.67 60,-263.67 60,-274.33 60,-274.33 60,-279.67 54.67,-285 49.33,-285 49.33,-285 38.67,-285 38.67,-285 33.33,-285 28,-279.67 28,-274.33 28,-274.33 28,-263.67 28,-263.67 28,-258.33 33.33,-253 38.67,-253"/>
<text text-anchor="start" x="35" y="-265.3" font-family="Helvetica,sans-Serif" font-size="14.00">Or</text>
<path fill="none" stroke="black" d="M38.67,-253C38.67,-253 49.33,-253 49.33,-253 54.67,-253 60,-258.33 60,-263.67 60,-263.67 60,-274.33 60,-274.33 60,-279.67 54.67,-285 49.33,-285 49.33,-285 38.67,-285 38.67,-285 33.33,-285 28,-279.67 28,-274.33 28,-274.33 28,-263.67 28,-263.67 28,-258.33 33.33,-253 38.67,-253"/>
</a>
</g>
</g>
<!-- primitive&#45;String&#45;0 -->
<g id="node10" class="node">
<title>primitive&#45;String&#45;0</title>
<g id="a_node10"><a xlink:title="String&#45;0: primitive&#45;String&#45;0">
<path fill="white" stroke="transparent" d="M25.17,-95C25.17,-95 60.83,-95 60.83,-95 66.17,-95 71.5,-100.33 71.5,-105.67 71.5,-105.67 71.5,-116.33 71.5,-116.33 71.5,-121.67 66.17,-127 60.83,-127 60.83,-127 25.17,-127 25.17,-127 19.83,-127 14.5,-121.67 14.5,-116.33 14.5,-116.33 14.5,-105.67 14.5,-105.67 14.5,-100.33 19.83,-95 25.17,-95"/>
<text text-anchor="start" x="20" y="-107.3" font-family="Helvetica,sans-Serif" font-size="14.00">&quot;a6_0&quot;</text>
<path fill="none" stroke="black" d="M25.17,-95C25.17,-95 60.83,-95 60.83,-95 66.17,-95 71.5,-100.33 71.5,-105.67 71.5,-105.67 71.5,-116.33 71.5,-116.33 71.5,-121.67 66.17,-127 60.83,-127 60.83,-127 25.17,-127 25.17,-127 19.83,-127 14.5,-121.67 14.5,-116.33 14.5,-116.33 14.5,-105.67 14.5,-105.67 14.5,-100.33 19.83,-95 25.17,-95"/>
</a>
</g>
</g>
</g>
</svg>
