<?xml version="1.0" encoding="UTF-8" standalone="no"?>
<!DOCTYPE svg PUBLIC "-//W3C//DTD SVG 1.1//EN"
 "http://www.w3.org/Graphics/SVG/1.1/DTD/svg11.dtd">
<!-- Generated by graphviz version 2.43.0 (0)
 -->
<!-- Title: %3 Pages: 1 -->
<svg width="173pt" height="230pt"
 viewBox="0.00 0.00 173.00 230.00" xmlns="http://www.w3.org/2000/svg" xmlns:xlink="http://www.w3.org/1999/xlink">
<g id="graph0" class="graph" transform="scale(1 1) rotate(0) translate(4 226)">
<title>%3</title>
<polygon fill="white" stroke="#000000" points="-4,4 -4,-226 169,-226 169,4 -4,4"/>
<g id="clust1" class="cluster">
<title>outer_cluster_Imm&#45;1</title>
</g>
<g id="clust2" class="cluster">
<title>cluster_Imm&#45;1</title>
<path fill="#ffffb3" stroke="black" stroke-dasharray="5,2" d="M23,-90C23,-90 67,-90 67,-90 73,-90 79,-96 79,-102 79,-102 79,-120 79,-120 79,-126 73,-132 67,-132 67,-132 23,-132 23,-132 17,-132 11,-126 11,-120 11,-120 11,-102 11,-102 11,-96 17,-90 23,-90"/>
</g>
<g id="clust4" class="cluster">
<title>outer_cluster_Inst&#45;0</title>
</g>
<g id="clust5" class="cluster">
<title>cluster_Inst&#45;0</title>
<path fill="#bebada" stroke="black" stroke-dasharray="5,2" d="M97,-90C97,-90 137,-90 137,-90 143,-90 149,-96 149,-102 149,-102 149,-120 149,-120 149,-126 143,-132 137,-132 137,-132 97,-132 97,-132 91,-132 85,-126 85,-120 85,-120 85,-102 85,-102 85,-96 91,-90 97,-90"/>
</g>
<g id="clust7" class="cluster">
<title>outer_cluster_Inst&#45;2</title>
</g>
<g id="clust8" class="cluster">
<title>cluster_Inst&#45;2</title>
<path fill="#bebada" stroke="black" stroke-dasharray="5,2" d="M63,-169C63,-169 99,-169 99,-169 105,-169 111,-175 111,-181 111,-181 111,-199 111,-199 111,-205 105,-211 99,-211 99,-211 63,-211 63,-211 57,-211 51,-205 51,-199 51,-199 51,-181 51,-181 51,-175 57,-169 63,-169"/>
</g>
<g id="clust10" class="cluster">
<title>outer_cluster_String&#45;0</title>
</g>
<g id="clust11" class="cluster">
<title>cluster_String&#45;0</title>
<path fill="#fb8072" stroke="black" stroke-dasharray="5,2" d="M94,-11C94,-11 142,-11 142,-11 148,-11 154,-17 154,-23 154,-23 154,-41 154,-41 154,-47 148,-53 142,-53 142,-53 94,-53 94,-53 88,-53 82,-47 82,-41 82,-41 82,-23 82,-23 82,-17 88,-11 94,-11"/>
</g>
<g id="clust13" class="cluster">
<title>outer_cluster_i64&#45;0</title>
</g>
<g id="clust14" class="cluster">
<title>cluster_i64&#45;0</title>
<path fill="#80b1d3" stroke="black" stroke-dasharray="5,2" d="M27,-11C27,-11 63,-11 63,-11 69,-11 75,-17 75,-23 75,-23 75,-41 75,-41 75,-47 69,-53 63,-53 63,-53 27,-53 27,-53 21,-53 15,-47 15,-41 15,-41 15,-23 15,-23 15,-17 21,-11 27,-11"/>
</g>
<!-- function&#45;0&#45;ImmVal&#45;&gt;primitive&#45;i64&#45;0 -->
<g id="edge1" class="edge">
<title>function&#45;0&#45;ImmVal:s&#45;&gt;primitive&#45;i64&#45;0</title>
<path fill="none" stroke="black" d="M45,-95C45,-81.84 45,-67.11 45,-55.3"/>
<polygon fill="black" stroke="black" points="46.75,-58 45,-53 43.25,-58 46.75,-58"/>
</g>
<!-- function&#45;0&#45;RegVal&#45;&gt;primitive&#45;String&#45;0 -->
<g id="edge2" class="edge">
<title>function&#45;0&#45;RegVal:s&#45;&gt;primitive&#45;String&#45;0</title>
<path fill="none" stroke="black" d="M118,-95C118,-81.84 118,-67.11 118,-55.3"/>
<polygon fill="black" stroke="black" points="119.75,-58 118,-53 116.25,-58 119.75,-58"/>
</g>
<!-- function&#45;0&#45;Addi&#45;&gt;function&#45;0&#45;ImmVal -->
<g id="edge4" class="edge">
<title>function&#45;0&#45;Addi:s&#45;&gt;function&#45;0&#45;ImmVal</title>
<path fill="none" stroke="black" d="M91,-174C91,-158.1 81.13,-143.63 70.53,-132.67"/>
<polygon fill="black" stroke="black" points="74.21,-132.32 68.92,-132 72.86,-135.54 74.21,-132.32"/>
</g>
<!-- function&#45;0&#45;Addi&#45;&gt;function&#45;0&#45;RegVal -->
<g id="edge3" class="edge">
<title>function&#45;0&#45;Addi:s&#45;&gt;function&#45;0&#45;RegVal</title>
<path fill="none" stroke="black" d="M71,-174C71,-158.1 80.87,-143.63 91.47,-132.67"/>
<polygon fill="black" stroke="black" points="89.14,-135.54 93.08,-132 87.79,-132.32 89.14,-135.54"/>
</g>
<!-- function&#45;0&#45;ImmVal -->
<g id="node1" class="node">
<title>function&#45;0&#45;ImmVal</title>
<g id="a_node1"><a xlink:title="Imm&#45;1: function&#45;0&#45;ImmVal">
<path fill="white" stroke="transparent" d="M24.67,-95C24.67,-95 65.33,-95 65.33,-95 70.67,-95 76,-100.33 76,-105.67 76,-105.67 76,-116.33 76,-116.33 76,-121.67 70.67,-127 65.33,-127 65.33,-127 24.67,-127 24.67,-127 19.33,-127 14,-121.67 14,-116.33 14,-116.33 14,-105.67 14,-105.67 14,-100.33 19.33,-95 24.67,-95"/>
<text text-anchor="start" x="19" y="-107.3" font-family="Helvetica,sans-Serif" font-size="14.00">ImmVal</text>
<path fill="none" stroke="black" d="M24.67,-95C24.67,-95 65.33,-95 65.33,-95 70.67,-95 76,-100.33 76,-105.67 76,-105.67 76,-116.33 76,-116.33 76,-121.67 70.67,-127 65.33,-127 65.33,-127 24.67,-127 24.67,-127 19.33,-127 14,-121.67 14,-116.33 14,-116.33 14,-105.67 14,-105.67 14,-100.33 19.33,-95 24.67,-95"/>
</a>
</g>
</g>
<!-- primitive&#45;i64&#45;0 -->
<g id="node2" class="node">
<title>primitive&#45;i64&#45;0</title>
<g id="a_node2"><a xlink:title="i64&#45;0: primitive&#45;i64&#45;0">
<path fill="white" stroke="transparent" d="M39.67,-16C39.67,-16 50.33,-16 50.33,-16 55.67,-16 61,-21.33 61,-26.67 61,-26.67 61,-37.33 61,-37.33 61,-42.67 55.67,-48 50.33,-48 50.33,-48 39.67,-48 39.67,-48 34.33,-48 29,-42.67 29,-37.33 29,-37.33 29,-26.67 29,-26.67 29,-21.33 34.33,-16 39.67,-16"/>
<text text-anchor="start" x="40" y="-28.3" font-family="Helvetica,sans-Serif" font-size="14.00">0</text>
<path fill="none" stroke="black" d="M39.67,-16C39.67,-16 50.33,-16 50.33,-16 55.67,-16 61,-21.33 61,-26.67 61,-26.67 61,-37.33 61,-37.33 61,-42.67 55.67,-48 50.33,-48 50.33,-48 39.67,-48 39.67,-48 34.33,-48 29,-42.67 29,-37.33 29,-37.33 29,-26.67 29,-26.67 29,-21.33 34.33,-16 39.67,-16"/>
</a>
</g>
</g>
<!-- function&#45;0&#45;RegVal -->
<g id="node3" class="node">
<title>function&#45;0&#45;RegVal</title>
<g id="a_node3"><a xlink:title="Inst&#45;0: function&#45;0&#45;RegVal">
<path fill="white" stroke="transparent" d="M99.17,-95C99.17,-95 134.83,-95 134.83,-95 140.17,-95 145.5,-100.33 145.5,-105.67 145.5,-105.67 145.5,-116.33 145.5,-116.33 145.5,-121.67 140.17,-127 134.83,-127 134.83,-127 99.17,-127 99.17,-127 93.83,-127 88.5,-121.67 88.5,-116.33 88.5,-116.33 88.5,-105.67 88.5,-105.67 88.5,-100.33 93.83,-95 99.17,-95"/>
<text text-anchor="start" x="94" y="-107.3" font-family="Helvetica,sans-Serif" font-size="14.00">RegVal</text>
<path fill="none" stroke="black" d="M99.17,-95C99.17,-95 134.83,-95 134.83,-95 140.17,-95 145.5,-100.33 145.5,-105.67 145.5,-105.67 145.5,-116.33 145.5,-116.33 145.5,-121.67 140.17,-127 134.83,-127 134.83,-127 99.17,-127 99.17,-127 93.83,-127 88.5,-121.67 88.5,-116.33 88.5,-116.33 88.5,-105.67 88.5,-105.67 88.5,-100.33 93.83,-95 99.17,-95"/>
</a>
</g>
</g>
<!-- primitive&#45;String&#45;0 -->
<g id="node4" class="node">
<title>primitive&#45;String&#45;0</title>
<g id="a_node4"><a xlink:title="String&#45;0: primitive&#45;String&#45;0">
<path fill="white" stroke="transparent" d="M96.17,-16C96.17,-16 139.83,-16 139.83,-16 145.17,-16 150.5,-21.33 150.5,-26.67 150.5,-26.67 150.5,-37.33 150.5,-37.33 150.5,-42.67 145.17,-48 139.83,-48 139.83,-48 96.17,-48 96.17,-48 90.83,-48 85.5,-42.67 85.5,-37.33 85.5,-37.33 85.5,-26.67 85.5,-26.67 85.5,-21.33 90.83,-16 96.17,-16"/>
<text text-anchor="start" x="91" y="-28.3" font-family="Helvetica,sans-Serif" font-size="14.00">&quot;s11_0&quot;</text>
<path fill="none" stroke="black" d="M96.17,-16C96.17,-16 139.83,-16 139.83,-16 145.17,-16 150.5,-21.33 150.5,-26.67 150.5,-26.67 150.5,-37.33 150.5,-37.33 150.5,-42.67 145.17,-48 139.83,-48 139.83,-48 96.17,-48 96.17,-48 90.83,-48 85.5,-42.67 85.5,-37.33 85.5,-37.33 85.5,-26.67 85.5,-26.67 85.5,-21.33 90.83,-16 96.17,-16"/>
</a>
</g>
</g>
<!-- function&#45;0&#45;Addi -->
<g id="node5" class="node">
<title>function&#45;0&#45;Addi</title>
<g id="a_node5"><a xlink:title="Inst&#45;2: function&#45;0&#45;Addi">
<path fill="white" stroke="transparent" d="M71.17,-174C71.17,-174 90.83,-174 90.83,-174 96.17,-174 101.5,-179.33 101.5,-184.67 101.5,-184.67 101.5,-195.33 101.5,-195.33 101.5,-200.67 96.17,-206 90.83,-206 90.83,-206 71.17,-206 71.17,-206 65.83,-206 60.5,-200.67 60.5,-195.33 60.5,-195.33 60.5,-184.67 60.5,-184.67 60.5,-179.33 65.83,-174 71.17,-174"/>
<text text-anchor="start" x="66" y="-186.3" font-family="Helvetica,sans-Serif" font-size="14.00">Addi</text>
<path fill="none" stroke="black" d="M71.17,-174C71.17,-174 90.83,-174 90.83,-174 96.17,-174 101.5,-179.33 101.5,-184.67 101.5,-184.67 101.5,-195.33 101.5,-195.33 101.5,-200.67 96.17,-206 90.83,-206 90.83,-206 71.17,-206 71.17,-206 65.83,-206 60.5,-200.67 60.5,-195.33 60.5,-195.33 60.5,-184.67 60.5,-184.67 60.5,-179.33 65.83,-174 71.17,-174"/>
</a>
</g>
</g>
</g>
</svg>
