<?xml version="1.0" encoding="UTF-8" standalone="no"?>
<!DOCTYPE svg PUBLIC "-//W3C//DTD SVG 1.1//EN"
 "http://www.w3.org/Graphics/SVG/1.1/DTD/svg11.dtd">
<!-- Generated by graphviz version 2.43.0 (0)
 -->
<!-- Title: %3 Pages: 1 -->
<svg width="322pt" height="230pt"
 viewBox="0.00 0.00 322.00 230.00" xmlns="http://www.w3.org/2000/svg" xmlns:xlink="http://www.w3.org/1999/xlink">
<g id="graph0" class="graph" transform="scale(1 1) rotate(0) translate(4 226)">
<title>%3</title>
<polygon fill="white" stroke="#000000" points="-4,4 -4,-226 318,-226 318,4 -4,4"/>
<g id="clust1" class="cluster">
<title>outer_cluster_Imm&#45;4</title>
</g>
<g id="clust2" class="cluster">
<title>cluster_Imm&#45;4</title>
<path fill="#ffffb3" stroke="black" stroke-dasharray="5,2" d="M23,-90C23,-90 67,-90 67,-90 73,-90 79,-96 79,-102 79,-102 79,-120 79,-120 79,-126 73,-132 67,-132 67,-132 23,-132 23,-132 17,-132 11,-126 11,-120 11,-120 11,-102 11,-102 11,-96 17,-90 23,-90"/>
</g>
<g id="clust4" class="cluster">
<title>outer_cluster_Imm&#45;2</title>
</g>
<g id="clust5" class="cluster">
<title>cluster_Imm&#45;2</title>
<path fill="#ffffb3" stroke="black" stroke-dasharray="5,2" d="M176,-90C176,-90 220,-90 220,-90 226,-90 232,-96 232,-102 232,-102 232,-120 232,-120 232,-126 226,-132 220,-132 220,-132 176,-132 176,-132 170,-132 164,-126 164,-120 164,-120 164,-102 164,-102 164,-96 170,-90 176,-90"/>
</g>
<g id="clust7" class="cluster">
<title>outer_cluster_Inst&#45;3</title>
</g>
<g id="clust8" class="cluster">
<title>cluster_Inst&#45;3</title>
<path fill="#bebada" stroke="black" stroke-dasharray="5,2" d="M175,-169C175,-169 211,-169 211,-169 217,-169 223,-175 223,-181 223,-181 223,-199 223,-199 223,-205 217,-211 211,-211 211,-211 175,-211 175,-211 169,-211 163,-205 163,-199 163,-199 163,-181 163,-181 163,-175 169,-169 175,-169"/>
</g>
<g id="clust10" class="cluster">
<title>outer_cluster_Inst&#45;0</title>
</g>
<g id="clust11" class="cluster">
<title>cluster_Inst&#45;0</title>
<path fill="#bebada" stroke="black" stroke-dasharray="5,2" d="M250,-90C250,-90 290,-90 290,-90 296,-90 302,-96 302,-102 302,-102 302,-120 302,-120 302,-126 296,-132 290,-132 290,-132 250,-132 250,-132 244,-132 238,-126 238,-120 238,-120 238,-102 238,-102 238,-96 244,-90 250,-90"/>
</g>
<g id="clust13" class="cluster">
<title>outer_cluster_Inst&#45;1</title>
</g>
<g id="clust14" class="cluster">
<title>cluster_Inst&#45;1</title>
<path fill="#bebada" stroke="black" stroke-dasharray="5,2" d="M97,-90C97,-90 137,-90 137,-90 143,-90 149,-96 149,-102 149,-102 149,-120 149,-120 149,-126 143,-132 137,-132 137,-132 97,-132 97,-132 91,-132 85,-126 85,-120 85,-120 85,-102 85,-102 85,-96 91,-90 97,-90"/>
</g>
<g id="clust16" class="cluster">
<title>outer_cluster_Inst&#45;6</title>
</g>
<g id="clust17" class="cluster">
<title>cluster_Inst&#45;6</title>
<path fill="#bebada" stroke="black" stroke-dasharray="5,2" d="M27,-169C27,-169 63,-169 63,-169 69,-169 75,-175 75,-181 75,-181 75,-199 75,-199 75,-205 69,-211 63,-211 63,-211 27,-211 27,-211 21,-211 15,-205 15,-199 15,-199 15,-181 15,-181 15,-175 21,-169 27,-169"/>
</g>
<g id="clust19" class="cluster">
<title>outer_cluster_Inst&#45;5</title>
</g>
<g id="clust20" class="cluster">
<title>cluster_Inst&#45;5</title>
<path fill="#bebada" stroke="black" stroke-dasharray="5,2" d="M106,-169C106,-169 142,-169 142,-169 148,-169 154,-175 154,-181 154,-181 154,-199 154,-199 154,-205 148,-211 142,-211 142,-211 106,-211 106,-211 100,-211 94,-205 94,-199 94,-199 94,-181 94,-181 94,-175 100,-169 106,-169"/>
</g>
<g id="clust22" class="cluster">
<title>outer_cluster_String&#45;0</title>
</g>
<g id="clust23" class="cluster">
<title>cluster_String&#45;0</title>
<path fill="#fb8072" stroke="black" stroke-dasharray="5,2" d="M251,-11C251,-11 291,-11 291,-11 297,-11 303,-17 303,-23 303,-23 303,-41 303,-41 303,-47 297,-53 291,-53 291,-53 251,-53 251,-53 245,-53 239,-47 239,-41 239,-41 239,-23 239,-23 239,-17 245,-11 251,-11"/>
</g>
<g id="clust25" class="cluster">
<title>outer_cluster_String&#45;1</title>
</g>
<g id="clust26" class="cluster">
<title>cluster_String&#45;1</title>
<path fill="#fb8072" stroke="black" stroke-dasharray="5,2" d="M92,-11C92,-11 144,-11 144,-11 150,-11 156,-17 156,-23 156,-23 156,-41 156,-41 156,-47 150,-53 144,-53 144,-53 92,-53 92,-53 86,-53 80,-47 80,-41 80,-41 80,-23 80,-23 80,-17 86,-11 92,-11"/>
</g>
<g id="clust28" class="cluster">
<title>outer_cluster_i64&#45;0</title>
</g>
<g id="clust29" class="cluster">
<title>cluster_i64&#45;0</title>
<path fill="#80b1d3" stroke="black" stroke-dasharray="5,2" d="M26,-11C26,-11 62,-11 62,-11 68,-11 74,-17 74,-23 74,-23 74,-41 74,-41 74,-47 68,-53 62,-53 62,-53 26,-53 26,-53 20,-53 14,-47 14,-41 14,-41 14,-23 14,-23 14,-17 20,-11 26,-11"/>
</g>
<g id="clust31" class="cluster">
<title>outer_cluster_i64&#45;4</title>
</g>
<g id="clust32" class="cluster">
<title>cluster_i64&#45;4</title>
<path fill="#80b1d3" stroke="black" stroke-dasharray="5,2" d="M180,-11C180,-11 216,-11 216,-11 222,-11 228,-17 228,-23 228,-23 228,-41 228,-41 228,-47 222,-53 216,-53 216,-53 180,-53 180,-53 174,-53 168,-47 168,-41 168,-41 168,-23 168,-23 168,-17 174,-11 180,-11"/>
</g>
<!-- function&#45;1&#45;ImmVal&#45;&gt;primitive&#45;i64&#45;0 -->
<g id="edge1" class="edge">
<title>function&#45;1&#45;ImmVal:s&#45;&gt;primitive&#45;i64&#45;0</title>
<path fill="none" stroke="black" d="M45,-95C45,-81.84 44.77,-67.1 44.53,-55.3"/>
<polygon fill="black" stroke="black" points="46.41,-57.91 44.42,-53 42.91,-58.08 46.41,-57.91"/>
</g>
<!-- function&#45;0&#45;ImmVal&#45;&gt;primitive&#45;i64&#45;4 -->
<g id="edge2" class="edge">
<title>function&#45;0&#45;ImmVal:s&#45;&gt;primitive&#45;i64&#45;4</title>
<path fill="none" stroke="black" d="M198,-95C198,-81.84 198,-67.11 198,-55.3"/>
<polygon fill="black" stroke="black" points="199.75,-58 198,-53 196.25,-58 199.75,-58"/>
</g>
<!-- function&#45;0&#45;Lw&#45;&gt;function&#45;0&#45;ImmVal -->
<g id="edge4" class="edge">
<title>function&#45;0&#45;Lw:s&#45;&gt;function&#45;0&#45;ImmVal</title>
<path fill="none" stroke="black" d="M201,-174C201,-160.82 200.32,-146.09 199.6,-134.29"/>
<polygon fill="black" stroke="black" points="201.71,-136.7 199.27,-132 198.25,-137.2 201.71,-136.7"/>
</g>
<!-- function&#45;0&#45;Lw&#45;&gt;function&#45;0&#45;RegVal -->
<g id="edge3" class="edge">
<title>function&#45;0&#45;Lw:s&#45;&gt;function&#45;0&#45;RegVal</title>
<path fill="none" stroke="black" d="M185,-174C185,-167.21 213.7,-147.38 237.74,-131.95"/>
<polygon fill="black" stroke="black" points="238.17,-136.42 238,-131.13 234.83,-135.37 238.17,-136.42"/>
</g>
<!-- function&#45;0&#45;RegVal&#45;&gt;primitive&#45;String&#45;0 -->
<g id="edge5" class="edge">
<title>function&#45;0&#45;RegVal:s&#45;&gt;primitive&#45;String&#45;0</title>
<path fill="none" stroke="black" d="M271,-95C271,-81.84 271,-67.11 271,-55.3"/>
<polygon fill="black" stroke="black" points="272.75,-58 271,-53 269.25,-58 272.75,-58"/>
</g>
<!-- function&#45;1&#45;RegVal&#45;&gt;primitive&#45;String&#45;1 -->
<g id="edge6" class="edge">
<title>function&#45;1&#45;RegVal:s&#45;&gt;primitive&#45;String&#45;1</title>
<path fill="none" stroke="black" d="M118,-95C118,-81.84 118,-67.11 118,-55.3"/>
<polygon fill="black" stroke="black" points="119.75,-58 118,-53 116.25,-58 119.75,-58"/>
</g>
<!-- function&#45;0&#45;Jal&#45;&gt;function&#45;1&#45;ImmVal -->
<g id="edge7" class="edge">
<title>function&#45;0&#45;Jal:s&#45;&gt;function&#45;1&#45;ImmVal</title>
<path fill="none" stroke="black" d="M45,-174C45,-160.84 45,-146.11 45,-134.3"/>
<polygon fill="black" stroke="black" points="46.75,-137 45,-132 43.25,-137 46.75,-137"/>
</g>
<!-- function&#45;0&#45;Addi&#45;&gt;function&#45;1&#45;ImmVal -->
<g id="edge9" class="edge">
<title>function&#45;0&#45;Addi:s&#45;&gt;function&#45;1&#45;ImmVal</title>
<path fill="none" stroke="black" d="M134,-174C134,-167.43 107.53,-149.58 83.46,-134.71"/>
<polygon fill="black" stroke="black" points="84.17,-133.1 79,-131.98 82.34,-136.08 84.17,-133.1"/>
</g>
<!-- function&#45;0&#45;Addi&#45;&gt;function&#45;1&#45;RegVal -->
<g id="edge8" class="edge">
<title>function&#45;0&#45;Addi:s&#45;&gt;function&#45;1&#45;RegVal</title>
<path fill="none" stroke="black" d="M114,-174C114,-160.82 114.68,-146.09 115.4,-134.29"/>
<polygon fill="black" stroke="black" points="116.75,-137.2 115.73,-132 113.29,-136.7 116.75,-137.2"/>
</g>
<!-- function&#45;1&#45;ImmVal -->
<g id="node1" class="node">
<title>function&#45;1&#45;ImmVal</title>
<g id="a_node1"><a xlink:title="Imm&#45;4: function&#45;1&#45;ImmVal">
<path fill="white" stroke="transparent" d="M24.67,-95C24.67,-95 65.33,-95 65.33,-95 70.67,-95 76,-100.33 76,-105.67 76,-105.67 76,-116.33 76,-116.33 76,-121.67 70.67,-127 65.33,-127 65.33,-127 24.67,-127 24.67,-127 19.33,-127 14,-121.67 14,-116.33 14,-116.33 14,-105.67 14,-105.67 14,-100.33 19.33,-95 24.67,-95"/>
<text text-anchor="start" x="19" y="-107.3" font-family="Helvetica,sans-Serif" font-size="14.00">ImmVal</text>
<path fill="none" stroke="black" d="M24.67,-95C24.67,-95 65.33,-95 65.33,-95 70.67,-95 76,-100.33 76,-105.67 76,-105.67 76,-116.33 76,-116.33 76,-121.67 70.67,-127 65.33,-127 65.33,-127 24.67,-127 24.67,-127 19.33,-127 14,-121.67 14,-116.33 14,-116.33 14,-105.67 14,-105.67 14,-100.33 19.33,-95 24.67,-95"/>
</a>
</g>
</g>
<!-- primitive&#45;i64&#45;0 -->
<g id="node2" class="node">
<title>primitive&#45;i64&#45;0</title>
<g id="a_node2"><a xlink:title="i64&#45;0: primitive&#45;i64&#45;0">
<path fill="white" stroke="transparent" d="M38.67,-16C38.67,-16 49.33,-16 49.33,-16 54.67,-16 60,-21.33 60,-26.67 60,-26.67 60,-37.33 60,-37.33 60,-42.67 54.67,-48 49.33,-48 49.33,-48 38.67,-48 38.67,-48 33.33,-48 28,-42.67 28,-37.33 28,-37.33 28,-26.67 28,-26.67 28,-21.33 33.33,-16 38.67,-16"/>
<text text-anchor="start" x="39" y="-28.3" font-family="Helvetica,sans-Serif" font-size="14.00">0</text>
<path fill="none" stroke="black" d="M38.67,-16C38.67,-16 49.33,-16 49.33,-16 54.67,-16 60,-21.33 60,-26.67 60,-26.67 60,-37.33 60,-37.33 60,-42.67 54.67,-48 49.33,-48 49.33,-48 38.67,-48 38.67,-48 33.33,-48 28,-42.67 28,-37.33 28,-37.33 28,-26.67 28,-26.67 28,-21.33 33.33,-16 38.67,-16"/>
</a>
</g>
</g>
<!-- function&#45;0&#45;ImmVal -->
<g id="node3" class="node">
<title>function&#45;0&#45;ImmVal</title>
<g id="a_node3"><a xlink:title="Imm&#45;2: function&#45;0&#45;ImmVal">
<path fill="white" stroke="transparent" d="M177.67,-95C177.67,-95 218.33,-95 218.33,-95 223.67,-95 229,-100.33 229,-105.67 229,-105.67 229,-116.33 229,-116.33 229,-121.67 223.67,-127 218.33,-127 218.33,-127 177.67,-127 177.67,-127 172.33,-127 167,-121.67 167,-116.33 167,-116.33 167,-105.67 167,-105.67 167,-100.33 172.33,-95 177.67,-95"/>
<text text-anchor="start" x="172" y="-107.3" font-family="Helvetica,sans-Serif" font-size="14.00">ImmVal</text>
<path fill="none" stroke="black" d="M177.67,-95C177.67,-95 218.33,-95 218.33,-95 223.67,-95 229,-100.33 229,-105.67 229,-105.67 229,-116.33 229,-116.33 229,-121.67 223.67,-127 218.33,-127 218.33,-127 177.67,-127 177.67,-127 172.33,-127 167,-121.67 167,-116.33 167,-116.33 167,-105.67 167,-105.67 167,-100.33 172.33,-95 177.67,-95"/>
</a>
</g>
</g>
<!-- primitive&#45;i64&#45;4 -->
<g id="node4" class="node">
<title>primitive&#45;i64&#45;4</title>
<g id="a_node4"><a xlink:title="i64&#45;4: primitive&#45;i64&#45;4">
<path fill="white" stroke="transparent" d="M192.67,-16C192.67,-16 203.33,-16 203.33,-16 208.67,-16 214,-21.33 214,-26.67 214,-26.67 214,-37.33 214,-37.33 214,-42.67 208.67,-48 203.33,-48 203.33,-48 192.67,-48 192.67,-48 187.33,-48 182,-42.67 182,-37.33 182,-37.33 182,-26.67 182,-26.67 182,-21.33 187.33,-16 192.67,-16"/>
<text text-anchor="start" x="193" y="-28.3" font-family="Helvetica,sans-Serif" font-size="14.00">4</text>
<path fill="none" stroke="black" d="M192.67,-16C192.67,-16 203.33,-16 203.33,-16 208.67,-16 214,-21.33 214,-26.67 214,-26.67 214,-37.33 214,-37.33 214,-42.67 208.67,-48 203.33,-48 203.33,-48 192.67,-48 192.67,-48 187.33,-48 182,-42.67 182,-37.33 182,-37.33 182,-26.67 182,-26.67 182,-21.33 187.33,-16 192.67,-16"/>
</a>
</g>
</g>
<!-- function&#45;0&#45;Lw -->
<g id="node5" class="node">
<title>function&#45;0&#45;Lw</title>
<g id="a_node5"><a xlink:title="Inst&#45;3: function&#45;0&#45;Lw">
<path fill="white" stroke="transparent" d="M187.67,-174C187.67,-174 198.33,-174 198.33,-174 203.67,-174 209,-179.33 209,-184.67 209,-184.67 209,-195.33 209,-195.33 209,-200.67 203.67,-206 198.33,-206 198.33,-206 187.67,-206 187.67,-206 182.33,-206 177,-200.67 177,-195.33 177,-195.33 177,-184.67 177,-184.67 177,-179.33 182.33,-174 187.67,-174"/>
<text text-anchor="start" x="183.5" y="-186.3" font-family="Helvetica,sans-Serif" font-size="14.00">Lw</text>
<path fill="none" stroke="black" d="M187.67,-174C187.67,-174 198.33,-174 198.33,-174 203.67,-174 209,-179.33 209,-184.67 209,-184.67 209,-195.33 209,-195.33 209,-200.67 203.67,-206 198.33,-206 198.33,-206 187.67,-206 187.67,-206 182.33,-206 177,-200.67 177,-195.33 177,-195.33 177,-184.67 177,-184.67 177,-179.33 182.33,-174 187.67,-174"/>
</a>
</g>
</g>
<!-- function&#45;0&#45;RegVal -->
<g id="node6" class="node">
<title>function&#45;0&#45;RegVal</title>
<g id="a_node6"><a xlink:title="Inst&#45;0: function&#45;0&#45;RegVal">
<path fill="white" stroke="transparent" d="M252.17,-95C252.17,-95 287.83,-95 287.83,-95 293.17,-95 298.5,-100.33 298.5,-105.67 298.5,-105.67 298.5,-116.33 298.5,-116.33 298.5,-121.67 293.17,-127 287.83,-127 287.83,-127 252.17,-127 252.17,-127 246.83,-127 241.5,-121.67 241.5,-116.33 241.5,-116.33 241.5,-105.67 241.5,-105.67 241.5,-100.33 246.83,-95 252.17,-95"/>
<text text-anchor="start" x="247" y="-107.3" font-family="Helvetica,sans-Serif" font-size="14.00">RegVal</text>
<path fill="none" stroke="black" d="M252.17,-95C252.17,-95 287.83,-95 287.83,-95 293.17,-95 298.5,-100.33 298.5,-105.67 298.5,-105.67 298.5,-116.33 298.5,-116.33 298.5,-121.67 293.17,-127 287.83,-127 287.83,-127 252.17,-127 252.17,-127 246.83,-127 241.5,-121.67 241.5,-116.33 241.5,-116.33 241.5,-105.67 241.5,-105.67 241.5,-100.33 246.83,-95 252.17,-95"/>
</a>
</g>
</g>
<!-- primitive&#45;String&#45;0 -->
<g id="node7" class="node">
<title>primitive&#45;String&#45;0</title>
<g id="a_node7"><a xlink:title="String&#45;0: primitive&#45;String&#45;0">
<path fill="white" stroke="transparent" d="M253.17,-16C253.17,-16 288.83,-16 288.83,-16 294.17,-16 299.5,-21.33 299.5,-26.67 299.5,-26.67 299.5,-37.33 299.5,-37.33 299.5,-42.67 294.17,-48 288.83,-48 288.83,-48 253.17,-48 253.17,-48 247.83,-48 242.5,-42.67 242.5,-37.33 242.5,-37.33 242.5,-26.67 242.5,-26.67 242.5,-21.33 247.83,-16 253.17,-16"/>
<text text-anchor="start" x="248" y="-28.3" font-family="Helvetica,sans-Serif" font-size="14.00">&quot;a1_0&quot;</text>
<path fill="none" stroke="black" d="M253.17,-16C253.17,-16 288.83,-16 288.83,-16 294.17,-16 299.5,-21.33 299.5,-26.67 299.5,-26.67 299.5,-37.33 299.5,-37.33 299.5,-42.67 294.17,-48 288.83,-48 288.83,-48 253.17,-48 253.17,-48 247.83,-48 242.5,-42.67 242.5,-37.33 242.5,-37.33 242.5,-26.67 242.5,-26.67 242.5,-21.33 247.83,-16 253.17,-16"/>
</a>
</g>
</g>
<!-- function&#45;1&#45;RegVal -->
<g id="node8" class="node">
<title>function&#45;1&#45;RegVal</title>
<g id="a_node8"><a xlink:title="Inst&#45;1: function&#45;1&#45;RegVal">
<path fill="white" stroke="transparent" d="M99.17,-95C99.17,-95 134.83,-95 134.83,-95 140.17,-95 145.5,-100.33 145.5,-105.67 145.5,-105.67 145.5,-116.33 145.5,-116.33 145.5,-121.67 140.17,-127 134.83,-127 134.83,-127 99.17,-127 99.17,-127 93.83,-127 88.5,-121.67 88.5,-116.33 88.5,-116.33 88.5,-105.67 88.5,-105.67 88.5,-100.33 93.83,-95 99.17,-95"/>
<text text-anchor="start" x="94" y="-107.3" font-family="Helvetica,sans-Serif" font-size="14.00">RegVal</text>
<path fill="none" stroke="black" d="M99.17,-95C99.17,-95 134.83,-95 134.83,-95 140.17,-95 145.5,-100.33 145.5,-105.67 145.5,-105.67 145.5,-116.33 145.5,-116.33 145.5,-121.67 140.17,-127 134.83,-127 134.83,-127 99.17,-127 99.17,-127 93.83,-127 88.5,-121.67 88.5,-116.33 88.5,-116.33 88.5,-105.67 88.5,-105.67 88.5,-100.33 93.83,-95 99.17,-95"/>
</a>
</g>
</g>
<!-- primitive&#45;String&#45;1 -->
<g id="node9" class="node">
<title>primitive&#45;String&#45;1</title>
<g id="a_node9"><a xlink:title="String&#45;1: primitive&#45;String&#45;1">
<path fill="white" stroke="transparent" d="M94.17,-16C94.17,-16 141.83,-16 141.83,-16 147.17,-16 152.5,-21.33 152.5,-26.67 152.5,-26.67 152.5,-37.33 152.5,-37.33 152.5,-42.67 147.17,-48 141.83,-48 141.83,-48 94.17,-48 94.17,-48 88.83,-48 83.5,-42.67 83.5,-37.33 83.5,-37.33 83.5,-26.67 83.5,-26.67 83.5,-21.33 88.83,-16 94.17,-16"/>
<text text-anchor="start" x="89" y="-28.3" font-family="Helvetica,sans-Serif" font-size="14.00">&quot;zero_0&quot;</text>
<path fill="none" stroke="black" d="M94.17,-16C94.17,-16 141.83,-16 141.83,-16 147.17,-16 152.5,-21.33 152.5,-26.67 152.5,-26.67 152.5,-37.33 152.5,-37.33 152.5,-42.67 147.17,-48 141.83,-48 141.83,-48 94.17,-48 94.17,-48 88.83,-48 83.5,-42.67 83.5,-37.33 83.5,-37.33 83.5,-26.67 83.5,-26.67 83.5,-21.33 88.83,-16 94.17,-16"/>
</a>
</g>
</g>
<!-- function&#45;0&#45;Jal -->
<g id="node10" class="node">
<title>function&#45;0&#45;Jal</title>
<g id="a_node10"><a xlink:title="Inst&#45;6: function&#45;0&#45;Jal">
<path fill="white" stroke="transparent" d="M39.67,-174C39.67,-174 50.33,-174 50.33,-174 55.67,-174 61,-179.33 61,-184.67 61,-184.67 61,-195.33 61,-195.33 61,-200.67 55.67,-206 50.33,-206 50.33,-206 39.67,-206 39.67,-206 34.33,-206 29,-200.67 29,-195.33 29,-195.33 29,-184.67 29,-184.67 29,-179.33 34.33,-174 39.67,-174"/>
<text text-anchor="start" x="36.5" y="-186.3" font-family="Helvetica,sans-Serif" font-size="14.00">Jal</text>
<path fill="none" stroke="black" d="M39.67,-174C39.67,-174 50.33,-174 50.33,-174 55.67,-174 61,-179.33 61,-184.67 61,-184.67 61,-195.33 61,-195.33 61,-200.67 55.67,-206 50.33,-206 50.33,-206 39.67,-206 39.67,-206 34.33,-206 29,-200.67 29,-195.33 29,-195.33 29,-184.67 29,-184.67 29,-179.33 34.33,-174 39.67,-174"/>
</a>
</g>
</g>
<!-- function&#45;0&#45;Addi -->
<g id="node11" class="node">
<title>function&#45;0&#45;Addi</title>
<g id="a_node11"><a xlink:title="Inst&#45;5: function&#45;0&#45;Addi">
<path fill="white" stroke="transparent" d="M114.17,-174C114.17,-174 133.83,-174 133.83,-174 139.17,-174 144.5,-179.33 144.5,-184.67 144.5,-184.67 144.5,-195.33 144.5,-195.33 144.5,-200.67 139.17,-206 133.83,-206 133.83,-206 114.17,-206 114.17,-206 108.83,-206 103.5,-200.67 103.5,-195.33 103.5,-195.33 103.5,-184.67 103.5,-184.67 103.5,-179.33 108.83,-174 114.17,-174"/>
<text text-anchor="start" x="109" y="-186.3" font-family="Helvetica,sans-Serif" font-size="14.00">Addi</text>
<path fill="none" stroke="black" d="M114.17,-174C114.17,-174 133.83,-174 133.83,-174 139.17,-174 144.5,-179.33 144.5,-184.67 144.5,-184.67 144.5,-195.33 144.5,-195.33 144.5,-200.67 139.17,-206 133.83,-206 133.83,-206 114.17,-206 114.17,-206 108.83,-206 103.5,-200.67 103.5,-195.33 103.5,-195.33 103.5,-184.67 103.5,-184.67 103.5,-179.33 108.83,-174 114.17,-174"/>
</a>
</g>
</g>
</g>
</svg>
