<?xml version="1.0" encoding="UTF-8" standalone="no"?>
<!DOCTYPE svg PUBLIC "-//W3C//DTD SVG 1.1//EN"
 "http://www.w3.org/Graphics/SVG/1.1/DTD/svg11.dtd">
<!-- Generated by graphviz version 2.43.0 (0)
 -->
<!-- Title: %3 Pages: 1 -->
<svg width="452pt" height="230pt"
 viewBox="0.00 0.00 452.00 230.00" xmlns="http://www.w3.org/2000/svg" xmlns:xlink="http://www.w3.org/1999/xlink">
<g id="graph0" class="graph" transform="scale(1 1) rotate(0) translate(4 226)">
<title>%3</title>
<polygon fill="white" stroke="#000000" points="-4,4 -4,-226 448,-226 448,4 -4,4"/>
<g id="clust1" class="cluster">
<title>outer_cluster_Imm&#45;6</title>
</g>
<g id="clust2" class="cluster">
<title>cluster_Imm&#45;6</title>
<path fill="#ffffb3" stroke="black" stroke-dasharray="5,2" d="M93,-90C93,-90 137,-90 137,-90 143,-90 149,-96 149,-102 149,-102 149,-120 149,-120 149,-126 143,-132 137,-132 137,-132 93,-132 93,-132 87,-132 81,-126 81,-120 81,-120 81,-102 81,-102 81,-96 87,-90 93,-90"/>
</g>
<g id="clust4" class="cluster">
<title>outer_cluster_Imm&#45;4</title>
</g>
<g id="clust5" class="cluster">
<title>cluster_Imm&#45;4</title>
<path fill="#ffffb3" stroke="black" stroke-dasharray="5,2" d="M237,-90C237,-90 281,-90 281,-90 287,-90 293,-96 293,-102 293,-102 293,-120 293,-120 293,-126 287,-132 281,-132 281,-132 237,-132 237,-132 231,-132 225,-126 225,-120 225,-120 225,-102 225,-102 225,-96 231,-90 237,-90"/>
</g>
<g id="clust7" class="cluster">
<title>outer_cluster_Inst&#45;3</title>
</g>
<g id="clust8" class="cluster">
<title>cluster_Inst&#45;3</title>
<path fill="#bebada" stroke="black" stroke-dasharray="5,2" d="M311,-90C311,-90 351,-90 351,-90 357,-90 363,-96 363,-102 363,-102 363,-120 363,-120 363,-126 357,-132 351,-132 351,-132 311,-132 311,-132 305,-132 299,-126 299,-120 299,-120 299,-102 299,-102 299,-96 305,-90 311,-90"/>
</g>
<g id="clust10" class="cluster">
<title>outer_cluster_Inst&#45;8</title>
</g>
<g id="clust11" class="cluster">
<title>cluster_Inst&#45;8</title>
<path fill="#bebada" stroke="black" stroke-dasharray="5,2" d="M61,-169C61,-169 97,-169 97,-169 103,-169 109,-175 109,-181 109,-181 109,-199 109,-199 109,-205 103,-211 97,-211 97,-211 61,-211 61,-211 55,-211 49,-205 49,-199 49,-199 49,-181 49,-181 49,-175 55,-169 61,-169"/>
</g>
<g id="clust13" class="cluster">
<title>outer_cluster_Inst&#45;7</title>
</g>
<g id="clust14" class="cluster">
<title>cluster_Inst&#45;7</title>
<path fill="#bebada" stroke="black" stroke-dasharray="5,2" d="M153,-169C153,-169 189,-169 189,-169 195,-169 201,-175 201,-181 201,-181 201,-199 201,-199 201,-205 195,-211 189,-211 189,-211 153,-211 153,-211 147,-211 141,-205 141,-199 141,-199 141,-181 141,-181 141,-175 147,-169 153,-169"/>
</g>
<g id="clust16" class="cluster">
<title>outer_cluster_Inst&#45;0</title>
</g>
<g id="clust17" class="cluster">
<title>cluster_Inst&#45;0</title>
<path fill="#bebada" stroke="black" stroke-dasharray="5,2" d="M23,-90C23,-90 63,-90 63,-90 69,-90 75,-96 75,-102 75,-102 75,-120 75,-120 75,-126 69,-132 63,-132 63,-132 23,-132 23,-132 17,-132 11,-126 11,-120 11,-120 11,-102 11,-102 11,-96 17,-90 23,-90"/>
</g>
<g id="clust19" class="cluster">
<title>outer_cluster_Inst&#45;5</title>
</g>
<g id="clust20" class="cluster">
<title>cluster_Inst&#45;5</title>
<path fill="#bebada" stroke="black" stroke-dasharray="5,2" d="M321,-169C321,-169 357,-169 357,-169 363,-169 369,-175 369,-181 369,-181 369,-199 369,-199 369,-205 363,-211 357,-211 357,-211 321,-211 321,-211 315,-211 309,-205 309,-199 309,-199 309,-181 309,-181 309,-175 315,-169 321,-169"/>
</g>
<g id="clust22" class="cluster">
<title>outer_cluster_Inst&#45;1</title>
</g>
<g id="clust23" class="cluster">
<title>cluster_Inst&#45;1</title>
<path fill="#bebada" stroke="black" stroke-dasharray="5,2" d="M167,-90C167,-90 207,-90 207,-90 213,-90 219,-96 219,-102 219,-102 219,-120 219,-120 219,-126 213,-132 207,-132 207,-132 167,-132 167,-132 161,-132 155,-126 155,-120 155,-120 155,-102 155,-102 155,-96 161,-90 167,-90"/>
</g>
<g id="clust25" class="cluster">
<title>outer_cluster_Inst&#45;2</title>
</g>
<g id="clust26" class="cluster">
<title>cluster_Inst&#45;2</title>
<path fill="#bebada" stroke="black" stroke-dasharray="5,2" d="M381,-90C381,-90 421,-90 421,-90 427,-90 433,-96 433,-102 433,-102 433,-120 433,-120 433,-126 427,-132 421,-132 421,-132 381,-132 381,-132 375,-132 369,-126 369,-120 369,-120 369,-102 369,-102 369,-96 375,-90 381,-90"/>
</g>
<g id="clust28" class="cluster">
<title>outer_cluster_String&#45;2</title>
</g>
<g id="clust29" class="cluster">
<title>cluster_String&#45;2</title>
<path fill="#fb8072" stroke="black" stroke-dasharray="5,2" d="M383,-11C383,-11 421,-11 421,-11 427,-11 433,-17 433,-23 433,-23 433,-41 433,-41 433,-47 427,-53 421,-53 421,-53 383,-53 383,-53 377,-53 371,-47 371,-41 371,-41 371,-23 371,-23 371,-17 377,-11 383,-11"/>
</g>
<g id="clust31" class="cluster">
<title>outer_cluster_String&#45;1</title>
</g>
<g id="clust32" class="cluster">
<title>cluster_String&#45;1</title>
<path fill="#fb8072" stroke="black" stroke-dasharray="5,2" d="M169,-11C169,-11 207,-11 207,-11 213,-11 219,-17 219,-23 219,-23 219,-41 219,-41 219,-47 213,-53 207,-53 207,-53 169,-53 169,-53 163,-53 157,-47 157,-41 157,-41 157,-23 157,-23 157,-17 163,-11 169,-11"/>
</g>
<g id="clust34" class="cluster">
<title>outer_cluster_String&#45;0</title>
</g>
<g id="clust35" class="cluster">
<title>cluster_String&#45;0</title>
<path fill="#fb8072" stroke="black" stroke-dasharray="5,2" d="M25,-11C25,-11 63,-11 63,-11 69,-11 75,-17 75,-23 75,-23 75,-41 75,-41 75,-47 69,-53 63,-53 63,-53 25,-53 25,-53 19,-53 13,-47 13,-41 13,-41 13,-23 13,-23 13,-17 19,-11 25,-11"/>
</g>
<g id="clust37" class="cluster">
<title>outer_cluster_String&#45;3</title>
</g>
<g id="clust38" class="cluster">
<title>cluster_String&#45;3</title>
<path fill="#fb8072" stroke="black" stroke-dasharray="5,2" d="M313,-11C313,-11 351,-11 351,-11 357,-11 363,-17 363,-23 363,-23 363,-41 363,-41 363,-47 357,-53 351,-53 351,-53 313,-53 313,-53 307,-53 301,-47 301,-41 301,-41 301,-23 301,-23 301,-17 307,-11 313,-11"/>
</g>
<g id="clust40" class="cluster">
<title>outer_cluster_i64&#45;20</title>
</g>
<g id="clust41" class="cluster">
<title>cluster_i64&#45;20</title>
<path fill="#80b1d3" stroke="black" stroke-dasharray="5,2" d="M241,-11C241,-11 277,-11 277,-11 283,-11 289,-17 289,-23 289,-23 289,-41 289,-41 289,-47 283,-53 277,-53 277,-53 241,-53 241,-53 235,-53 229,-47 229,-41 229,-41 229,-23 229,-23 229,-17 235,-11 241,-11"/>
</g>
<g id="clust43" class="cluster">
<title>outer_cluster_i64&#45;0</title>
</g>
<g id="clust44" class="cluster">
<title>cluster_i64&#45;0</title>
<path fill="#80b1d3" stroke="black" stroke-dasharray="5,2" d="M97,-11C97,-11 133,-11 133,-11 139,-11 145,-17 145,-23 145,-23 145,-41 145,-41 145,-47 139,-53 133,-53 133,-53 97,-53 97,-53 91,-53 85,-47 85,-41 85,-41 85,-23 85,-23 85,-17 91,-11 97,-11"/>
</g>
<!-- function&#45;1&#45;ImmVal&#45;&gt;primitive&#45;i64&#45;0 -->
<g id="edge1" class="edge">
<title>function&#45;1&#45;ImmVal:s&#45;&gt;primitive&#45;i64&#45;0</title>
<path fill="none" stroke="black" d="M115,-95C115,-81.84 115,-67.11 115,-55.3"/>
<polygon fill="black" stroke="black" points="116.75,-58 115,-53 113.25,-58 116.75,-58"/>
</g>
<!-- function&#45;0&#45;ImmVal&#45;&gt;primitive&#45;i64&#45;20 -->
<g id="edge2" class="edge">
<title>function&#45;0&#45;ImmVal:s&#45;&gt;primitive&#45;i64&#45;20</title>
<path fill="none" stroke="black" d="M259,-95C259,-81.84 259,-67.11 259,-55.3"/>
<polygon fill="black" stroke="black" points="260.75,-58 259,-53 257.25,-58 260.75,-58"/>
</g>
<!-- function&#45;3&#45;RegVal&#45;&gt;primitive&#45;String&#45;3 -->
<g id="edge3" class="edge">
<title>function&#45;3&#45;RegVal:s&#45;&gt;primitive&#45;String&#45;3</title>
<path fill="none" stroke="black" d="M332,-95C332,-81.84 332,-67.11 332,-55.3"/>
<polygon fill="black" stroke="black" points="333.75,-58 332,-53 330.25,-58 333.75,-58"/>
</g>
<!-- function&#45;1&#45;Addi&#45;&gt;function&#45;1&#45;ImmVal -->
<g id="edge5" class="edge">
<title>function&#45;1&#45;Addi:s&#45;&gt;function&#45;1&#45;ImmVal</title>
<path fill="none" stroke="black" d="M89,-174C89,-159.78 94.89,-145.05 101.06,-133.52"/>
<polygon fill="black" stroke="black" points="100.32,-136.82 102.52,-132 97.8,-134.4 100.32,-136.82"/>
</g>
<!-- function&#45;1&#45;Addi&#45;&gt;function&#45;0&#45;RegVal -->
<g id="edge4" class="edge">
<title>function&#45;1&#45;Addi:s&#45;&gt;function&#45;0&#45;RegVal</title>
<path fill="none" stroke="black" d="M69,-174C69,-159.78 63.11,-145.05 56.94,-133.52"/>
<polygon fill="black" stroke="black" points="60.2,-134.4 55.48,-132 57.68,-136.82 60.2,-134.4"/>
</g>
<!-- function&#45;0&#45;RegVal&#45;&gt;primitive&#45;String&#45;0 -->
<g id="edge8" class="edge">
<title>function&#45;0&#45;RegVal:s&#45;&gt;primitive&#45;String&#45;0</title>
<path fill="none" stroke="black" d="M44,-95C44,-81.84 44,-67.11 44,-55.3"/>
<polygon fill="black" stroke="black" points="45.75,-58 44,-53 42.25,-58 45.75,-58"/>
</g>
<!-- function&#45;0&#45;Addi&#45;&gt;function&#45;1&#45;ImmVal -->
<g id="edge7" class="edge">
<title>function&#45;0&#45;Addi:s&#45;&gt;function&#45;1&#45;ImmVal</title>
<path fill="none" stroke="black" d="M181,-174C181,-163.04 161.42,-145.62 143.58,-132.03"/>
<polygon fill="black" stroke="black" points="147.63,-130.42 142.58,-132 147.51,-133.92 147.63,-130.42"/>
</g>
<!-- function&#45;0&#45;Addi&#45;&gt;function&#45;1&#45;RegVal -->
<g id="edge6" class="edge">
<title>function&#45;0&#45;Addi:s&#45;&gt;function&#45;1&#45;RegVal</title>
<path fill="none" stroke="black" d="M161,-174C161,-159.78 166.89,-145.05 173.06,-133.52"/>
<polygon fill="black" stroke="black" points="172.32,-136.82 174.52,-132 169.8,-134.4 172.32,-136.82"/>
</g>
<!-- function&#45;1&#45;RegVal&#45;&gt;primitive&#45;String&#45;1 -->
<g id="edge12" class="edge">
<title>function&#45;1&#45;RegVal:s&#45;&gt;primitive&#45;String&#45;1</title>
<path fill="none" stroke="black" d="M188,-95C188,-81.84 188,-67.11 188,-55.3"/>
<polygon fill="black" stroke="black" points="189.75,-58 188,-53 186.25,-58 189.75,-58"/>
</g>
<!-- function&#45;0&#45;Sw&#45;&gt;function&#45;0&#45;ImmVal -->
<g id="edge11" class="edge">
<title>function&#45;0&#45;Sw:s&#45;&gt;function&#45;0&#45;ImmVal</title>
<path fill="none" stroke="black" d="M350,-174C350,-170.53 320.65,-151 295.28,-134.77"/>
<polygon fill="black" stroke="black" points="296.08,-133.21 290.93,-132 294.2,-136.16 296.08,-133.21"/>
</g>
<!-- function&#45;0&#45;Sw&#45;&gt;function&#45;3&#45;RegVal -->
<g id="edge9" class="edge">
<title>function&#45;0&#45;Sw:s&#45;&gt;function&#45;3&#45;RegVal</title>
<path fill="none" stroke="black" d="M331,-174C331,-160.84 331,-146.11 331,-134.3"/>
<polygon fill="black" stroke="black" points="332.75,-137 331,-132 329.25,-137 332.75,-137"/>
</g>
<!-- function&#45;0&#45;Sw&#45;&gt;function&#45;2&#45;RegVal -->
<g id="edge10" class="edge">
<title>function&#45;0&#45;Sw:s&#45;&gt;function&#45;2&#45;RegVal</title>
<path fill="none" stroke="black" d="M343,-174C343,-156.77 355.1,-142.35 368.24,-131.76"/>
<polygon fill="black" stroke="black" points="367.72,-135.74 369,-130.6 364.8,-133.82 367.72,-135.74"/>
</g>
<!-- function&#45;2&#45;RegVal&#45;&gt;primitive&#45;String&#45;2 -->
<g id="edge13" class="edge">
<title>function&#45;2&#45;RegVal:s&#45;&gt;primitive&#45;String&#45;2</title>
<path fill="none" stroke="black" d="M402,-95C402,-81.84 402,-67.11 402,-55.3"/>
<polygon fill="black" stroke="black" points="403.75,-58 402,-53 400.25,-58 403.75,-58"/>
</g>
<!-- function&#45;1&#45;ImmVal -->
<g id="node1" class="node">
<title>function&#45;1&#45;ImmVal</title>
<g id="a_node1"><a xlink:title="Imm&#45;6: function&#45;1&#45;ImmVal">
<path fill="white" stroke="transparent" d="M94.67,-95C94.67,-95 135.33,-95 135.33,-95 140.67,-95 146,-100.33 146,-105.67 146,-105.67 146,-116.33 146,-116.33 146,-121.67 140.67,-127 135.33,-127 135.33,-127 94.67,-127 94.67,-127 89.33,-127 84,-121.67 84,-116.33 84,-116.33 84,-105.67 84,-105.67 84,-100.33 89.33,-95 94.67,-95"/>
<text text-anchor="start" x="89" y="-107.3" font-family="Helvetica,sans-Serif" font-size="14.00">ImmVal</text>
<path fill="none" stroke="black" d="M94.67,-95C94.67,-95 135.33,-95 135.33,-95 140.67,-95 146,-100.33 146,-105.67 146,-105.67 146,-116.33 146,-116.33 146,-121.67 140.67,-127 135.33,-127 135.33,-127 94.67,-127 94.67,-127 89.33,-127 84,-121.67 84,-116.33 84,-116.33 84,-105.67 84,-105.67 84,-100.33 89.33,-95 94.67,-95"/>
</a>
</g>
</g>
<!-- primitive&#45;i64&#45;0 -->
<g id="node2" class="node">
<title>primitive&#45;i64&#45;0</title>
<g id="a_node2"><a xlink:title="i64&#45;0: primitive&#45;i64&#45;0">
<path fill="white" stroke="transparent" d="M109.67,-16C109.67,-16 120.33,-16 120.33,-16 125.67,-16 131,-21.33 131,-26.67 131,-26.67 131,-37.33 131,-37.33 131,-42.67 125.67,-48 120.33,-48 120.33,-48 109.67,-48 109.67,-48 104.33,-48 99,-42.67 99,-37.33 99,-37.33 99,-26.67 99,-26.67 99,-21.33 104.33,-16 109.67,-16"/>
<text text-anchor="start" x="110" y="-28.3" font-family="Helvetica,sans-Serif" font-size="14.00">0</text>
<path fill="none" stroke="black" d="M109.67,-16C109.67,-16 120.33,-16 120.33,-16 125.67,-16 131,-21.33 131,-26.67 131,-26.67 131,-37.33 131,-37.33 131,-42.67 125.67,-48 120.33,-48 120.33,-48 109.67,-48 109.67,-48 104.33,-48 99,-42.67 99,-37.33 99,-37.33 99,-26.67 99,-26.67 99,-21.33 104.33,-16 109.67,-16"/>
</a>
</g>
</g>
<!-- function&#45;0&#45;ImmVal -->
<g id="node3" class="node">
<title>function&#45;0&#45;ImmVal</title>
<g id="a_node3"><a xlink:title="Imm&#45;4: function&#45;0&#45;ImmVal">
<path fill="white" stroke="transparent" d="M238.67,-95C238.67,-95 279.33,-95 279.33,-95 284.67,-95 290,-100.33 290,-105.67 290,-105.67 290,-116.33 290,-116.33 290,-121.67 284.67,-127 279.33,-127 279.33,-127 238.67,-127 238.67,-127 233.33,-127 228,-121.67 228,-116.33 228,-116.33 228,-105.67 228,-105.67 228,-100.33 233.33,-95 238.67,-95"/>
<text text-anchor="start" x="233" y="-107.3" font-family="Helvetica,sans-Serif" font-size="14.00">ImmVal</text>
<path fill="none" stroke="black" d="M238.67,-95C238.67,-95 279.33,-95 279.33,-95 284.67,-95 290,-100.33 290,-105.67 290,-105.67 290,-116.33 290,-116.33 290,-121.67 284.67,-127 279.33,-127 279.33,-127 238.67,-127 238.67,-127 233.33,-127 228,-121.67 228,-116.33 228,-116.33 228,-105.67 228,-105.67 228,-100.33 233.33,-95 238.67,-95"/>
</a>
</g>
</g>
<!-- primitive&#45;i64&#45;20 -->
<g id="node4" class="node">
<title>primitive&#45;i64&#45;20</title>
<g id="a_node4"><a xlink:title="i64&#45;20: primitive&#45;i64&#45;20">
<path fill="white" stroke="transparent" d="M253.67,-16C253.67,-16 264.33,-16 264.33,-16 269.67,-16 275,-21.33 275,-26.67 275,-26.67 275,-37.33 275,-37.33 275,-42.67 269.67,-48 264.33,-48 264.33,-48 253.67,-48 253.67,-48 248.33,-48 243,-42.67 243,-37.33 243,-37.33 243,-26.67 243,-26.67 243,-21.33 248.33,-16 253.67,-16"/>
<text text-anchor="start" x="249.5" y="-28.3" font-family="Helvetica,sans-Serif" font-size="14.00">20</text>
<path fill="none" stroke="black" d="M253.67,-16C253.67,-16 264.33,-16 264.33,-16 269.67,-16 275,-21.33 275,-26.67 275,-26.67 275,-37.33 275,-37.33 275,-42.67 269.67,-48 264.33,-48 264.33,-48 253.67,-48 253.67,-48 248.33,-48 243,-42.67 243,-37.33 243,-37.33 243,-26.67 243,-26.67 243,-21.33 248.33,-16 253.67,-16"/>
</a>
</g>
</g>
<!-- function&#45;3&#45;RegVal -->
<g id="node5" class="node">
<title>function&#45;3&#45;RegVal</title>
<g id="a_node5"><a xlink:title="Inst&#45;3: function&#45;3&#45;RegVal">
<path fill="white" stroke="transparent" d="M313.17,-95C313.17,-95 348.83,-95 348.83,-95 354.17,-95 359.5,-100.33 359.5,-105.67 359.5,-105.67 359.5,-116.33 359.5,-116.33 359.5,-121.67 354.17,-127 348.83,-127 348.83,-127 313.17,-127 313.17,-127 307.83,-127 302.5,-121.67 302.5,-116.33 302.5,-116.33 302.5,-105.67 302.5,-105.67 302.5,-100.33 307.83,-95 313.17,-95"/>
<text text-anchor="start" x="308" y="-107.3" font-family="Helvetica,sans-Serif" font-size="14.00">RegVal</text>
<path fill="none" stroke="black" d="M313.17,-95C313.17,-95 348.83,-95 348.83,-95 354.17,-95 359.5,-100.33 359.5,-105.67 359.5,-105.67 359.5,-116.33 359.5,-116.33 359.5,-121.67 354.17,-127 348.83,-127 348.83,-127 313.17,-127 313.17,-127 307.83,-127 302.5,-121.67 302.5,-116.33 302.5,-116.33 302.5,-105.67 302.5,-105.67 302.5,-100.33 307.83,-95 313.17,-95"/>
</a>
</g>
</g>
<!-- primitive&#45;String&#45;3 -->
<g id="node6" class="node">
<title>primitive&#45;String&#45;3</title>
<g id="a_node6"><a xlink:title="String&#45;3: primitive&#45;String&#45;3">
<path fill="white" stroke="transparent" d="M314.67,-16C314.67,-16 349.33,-16 349.33,-16 354.67,-16 360,-21.33 360,-26.67 360,-26.67 360,-37.33 360,-37.33 360,-42.67 354.67,-48 349.33,-48 349.33,-48 314.67,-48 314.67,-48 309.33,-48 304,-42.67 304,-37.33 304,-37.33 304,-26.67 304,-26.67 304,-21.33 309.33,-16 314.67,-16"/>
<text text-anchor="start" x="309" y="-28.3" font-family="Helvetica,sans-Serif" font-size="14.00">&quot;sp_0&quot;</text>
<path fill="none" stroke="black" d="M314.67,-16C314.67,-16 349.33,-16 349.33,-16 354.67,-16 360,-21.33 360,-26.67 360,-26.67 360,-37.33 360,-37.33 360,-42.67 354.67,-48 349.33,-48 349.33,-48 314.67,-48 314.67,-48 309.33,-48 304,-42.67 304,-37.33 304,-37.33 304,-26.67 304,-26.67 304,-21.33 309.33,-16 314.67,-16"/>
</a>
</g>
</g>
<!-- function&#45;1&#45;Addi -->
<g id="node7" class="node">
<title>function&#45;1&#45;Addi</title>
<g id="a_node7"><a xlink:title="Inst&#45;8: function&#45;1&#45;Addi">
<path fill="white" stroke="transparent" d="M69.17,-174C69.17,-174 88.83,-174 88.83,-174 94.17,-174 99.5,-179.33 99.5,-184.67 99.5,-184.67 99.5,-195.33 99.5,-195.33 99.5,-200.67 94.17,-206 88.83,-206 88.83,-206 69.17,-206 69.17,-206 63.83,-206 58.5,-200.67 58.5,-195.33 58.5,-195.33 58.5,-184.67 58.5,-184.67 58.5,-179.33 63.83,-174 69.17,-174"/>
<text text-anchor="start" x="64" y="-186.3" font-family="Helvetica,sans-Serif" font-size="14.00">Addi</text>
<path fill="none" stroke="black" d="M69.17,-174C69.17,-174 88.83,-174 88.83,-174 94.17,-174 99.5,-179.33 99.5,-184.67 99.5,-184.67 99.5,-195.33 99.5,-195.33 99.5,-200.67 94.17,-206 88.83,-206 88.83,-206 69.17,-206 69.17,-206 63.83,-206 58.5,-200.67 58.5,-195.33 58.5,-195.33 58.5,-184.67 58.5,-184.67 58.5,-179.33 63.83,-174 69.17,-174"/>
</a>
</g>
</g>
<!-- function&#45;0&#45;RegVal -->
<g id="node8" class="node">
<title>function&#45;0&#45;RegVal</title>
<g id="a_node8"><a xlink:title="Inst&#45;0: function&#45;0&#45;RegVal">
<path fill="white" stroke="transparent" d="M25.17,-95C25.17,-95 60.83,-95 60.83,-95 66.17,-95 71.5,-100.33 71.5,-105.67 71.5,-105.67 71.5,-116.33 71.5,-116.33 71.5,-121.67 66.17,-127 60.83,-127 60.83,-127 25.17,-127 25.17,-127 19.83,-127 14.5,-121.67 14.5,-116.33 14.5,-116.33 14.5,-105.67 14.5,-105.67 14.5,-100.33 19.83,-95 25.17,-95"/>
<text text-anchor="start" x="20" y="-107.3" font-family="Helvetica,sans-Serif" font-size="14.00">RegVal</text>
<path fill="none" stroke="black" d="M25.17,-95C25.17,-95 60.83,-95 60.83,-95 66.17,-95 71.5,-100.33 71.5,-105.67 71.5,-105.67 71.5,-116.33 71.5,-116.33 71.5,-121.67 66.17,-127 60.83,-127 60.83,-127 25.17,-127 25.17,-127 19.83,-127 14.5,-121.67 14.5,-116.33 14.5,-116.33 14.5,-105.67 14.5,-105.67 14.5,-100.33 19.83,-95 25.17,-95"/>
</a>
</g>
</g>
<!-- function&#45;0&#45;Addi -->
<g id="node9" class="node">
<title>function&#45;0&#45;Addi</title>
<g id="a_node9"><a xlink:title="Inst&#45;7: function&#45;0&#45;Addi">
<path fill="white" stroke="transparent" d="M161.17,-174C161.17,-174 180.83,-174 180.83,-174 186.17,-174 191.5,-179.33 191.5,-184.67 191.5,-184.67 191.5,-195.33 191.5,-195.33 191.5,-200.67 186.17,-206 180.83,-206 180.83,-206 161.17,-206 161.17,-206 155.83,-206 150.5,-200.67 150.5,-195.33 150.5,-195.33 150.5,-184.67 150.5,-184.67 150.5,-179.33 155.83,-174 161.17,-174"/>
<text text-anchor="start" x="156" y="-186.3" font-family="Helvetica,sans-Serif" font-size="14.00">Addi</text>
<path fill="none" stroke="black" d="M161.17,-174C161.17,-174 180.83,-174 180.83,-174 186.17,-174 191.5,-179.33 191.5,-184.67 191.5,-184.67 191.5,-195.33 191.5,-195.33 191.5,-200.67 186.17,-206 180.83,-206 180.83,-206 161.17,-206 161.17,-206 155.83,-206 150.5,-200.67 150.5,-195.33 150.5,-195.33 150.5,-184.67 150.5,-184.67 150.5,-179.33 155.83,-174 161.17,-174"/>
</a>
</g>
</g>
<!-- function&#45;1&#45;RegVal -->
<g id="node10" class="node">
<title>function&#45;1&#45;RegVal</title>
<g id="a_node10"><a xlink:title="Inst&#45;1: function&#45;1&#45;RegVal">
<path fill="white" stroke="transparent" d="M169.17,-95C169.17,-95 204.83,-95 204.83,-95 210.17,-95 215.5,-100.33 215.5,-105.67 215.5,-105.67 215.5,-116.33 215.5,-116.33 215.5,-121.67 210.17,-127 204.83,-127 204.83,-127 169.17,-127 169.17,-127 163.83,-127 158.5,-121.67 158.5,-116.33 158.5,-116.33 158.5,-105.67 158.5,-105.67 158.5,-100.33 163.83,-95 169.17,-95"/>
<text text-anchor="start" x="164" y="-107.3" font-family="Helvetica,sans-Serif" font-size="14.00">RegVal</text>
<path fill="none" stroke="black" d="M169.17,-95C169.17,-95 204.83,-95 204.83,-95 210.17,-95 215.5,-100.33 215.5,-105.67 215.5,-105.67 215.5,-116.33 215.5,-116.33 215.5,-121.67 210.17,-127 204.83,-127 204.83,-127 169.17,-127 169.17,-127 163.83,-127 158.5,-121.67 158.5,-116.33 158.5,-116.33 158.5,-105.67 158.5,-105.67 158.5,-100.33 163.83,-95 169.17,-95"/>
</a>
</g>
</g>
<!-- primitive&#45;String&#45;0 -->
<g id="node11" class="node">
<title>primitive&#45;String&#45;0</title>
<g id="a_node11"><a xlink:title="String&#45;0: primitive&#45;String&#45;0">
<path fill="white" stroke="transparent" d="M26.67,-16C26.67,-16 61.33,-16 61.33,-16 66.67,-16 72,-21.33 72,-26.67 72,-26.67 72,-37.33 72,-37.33 72,-42.67 66.67,-48 61.33,-48 61.33,-48 26.67,-48 26.67,-48 21.33,-48 16,-42.67 16,-37.33 16,-37.33 16,-26.67 16,-26.67 16,-21.33 21.33,-16 26.67,-16"/>
<text text-anchor="start" x="21" y="-28.3" font-family="Helvetica,sans-Serif" font-size="14.00">&quot;s1_0&quot;</text>
<path fill="none" stroke="black" d="M26.67,-16C26.67,-16 61.33,-16 61.33,-16 66.67,-16 72,-21.33 72,-26.67 72,-26.67 72,-37.33 72,-37.33 72,-42.67 66.67,-48 61.33,-48 61.33,-48 26.67,-48 26.67,-48 21.33,-48 16,-42.67 16,-37.33 16,-37.33 16,-26.67 16,-26.67 16,-21.33 21.33,-16 26.67,-16"/>
</a>
</g>
</g>
<!-- function&#45;0&#45;Sw -->
<g id="node12" class="node">
<title>function&#45;0&#45;Sw</title>
<g id="a_node12"><a xlink:title="Inst&#45;5: function&#45;0&#45;Sw">
<path fill="white" stroke="transparent" d="M333.67,-174C333.67,-174 344.33,-174 344.33,-174 349.67,-174 355,-179.33 355,-184.67 355,-184.67 355,-195.33 355,-195.33 355,-200.67 349.67,-206 344.33,-206 344.33,-206 333.67,-206 333.67,-206 328.33,-206 323,-200.67 323,-195.33 323,-195.33 323,-184.67 323,-184.67 323,-179.33 328.33,-174 333.67,-174"/>
<text text-anchor="start" x="328.5" y="-186.3" font-family="Helvetica,sans-Serif" font-size="14.00">Sw</text>
<path fill="none" stroke="black" d="M333.67,-174C333.67,-174 344.33,-174 344.33,-174 349.67,-174 355,-179.33 355,-184.67 355,-184.67 355,-195.33 355,-195.33 355,-200.67 349.67,-206 344.33,-206 344.33,-206 333.67,-206 333.67,-206 328.33,-206 323,-200.67 323,-195.33 323,-195.33 323,-184.67 323,-184.67 323,-179.33 328.33,-174 333.67,-174"/>
</a>
</g>
</g>
<!-- function&#45;2&#45;RegVal -->
<g id="node13" class="node">
<title>function&#45;2&#45;RegVal</title>
<g id="a_node13"><a xlink:title="Inst&#45;2: function&#45;2&#45;RegVal">
<path fill="white" stroke="transparent" d="M383.17,-95C383.17,-95 418.83,-95 418.83,-95 424.17,-95 429.5,-100.33 429.5,-105.67 429.5,-105.67 429.5,-116.33 429.5,-116.33 429.5,-121.67 424.17,-127 418.83,-127 418.83,-127 383.17,-127 383.17,-127 377.83,-127 372.5,-121.67 372.5,-116.33 372.5,-116.33 372.5,-105.67 372.5,-105.67 372.5,-100.33 377.83,-95 383.17,-95"/>
<text text-anchor="start" x="378" y="-107.3" font-family="Helvetica,sans-Serif" font-size="14.00">RegVal</text>
<path fill="none" stroke="black" d="M383.17,-95C383.17,-95 418.83,-95 418.83,-95 424.17,-95 429.5,-100.33 429.5,-105.67 429.5,-105.67 429.5,-116.33 429.5,-116.33 429.5,-121.67 424.17,-127 418.83,-127 418.83,-127 383.17,-127 383.17,-127 377.83,-127 372.5,-121.67 372.5,-116.33 372.5,-116.33 372.5,-105.67 372.5,-105.67 372.5,-100.33 377.83,-95 383.17,-95"/>
</a>
</g>
</g>
<!-- primitive&#45;String&#45;1 -->
<g id="node14" class="node">
<title>primitive&#45;String&#45;1</title>
<g id="a_node14"><a xlink:title="String&#45;1: primitive&#45;String&#45;1">
<path fill="white" stroke="transparent" d="M170.67,-16C170.67,-16 205.33,-16 205.33,-16 210.67,-16 216,-21.33 216,-26.67 216,-26.67 216,-37.33 216,-37.33 216,-42.67 210.67,-48 205.33,-48 205.33,-48 170.67,-48 170.67,-48 165.33,-48 160,-42.67 160,-37.33 160,-37.33 160,-26.67 160,-26.67 160,-21.33 165.33,-16 170.67,-16"/>
<text text-anchor="start" x="165" y="-28.3" font-family="Helvetica,sans-Serif" font-size="14.00">&quot;s2_0&quot;</text>
<path fill="none" stroke="black" d="M170.67,-16C170.67,-16 205.33,-16 205.33,-16 210.67,-16 216,-21.33 216,-26.67 216,-26.67 216,-37.33 216,-37.33 216,-42.67 210.67,-48 205.33,-48 205.33,-48 170.67,-48 170.67,-48 165.33,-48 160,-42.67 160,-37.33 160,-37.33 160,-26.67 160,-26.67 160,-21.33 165.33,-16 170.67,-16"/>
</a>
</g>
</g>
<!-- primitive&#45;String&#45;2 -->
<g id="node15" class="node">
<title>primitive&#45;String&#45;2</title>
<g id="a_node15"><a xlink:title="String&#45;2: primitive&#45;String&#45;2">
<path fill="white" stroke="transparent" d="M384.67,-16C384.67,-16 419.33,-16 419.33,-16 424.67,-16 430,-21.33 430,-26.67 430,-26.67 430,-37.33 430,-37.33 430,-42.67 424.67,-48 419.33,-48 419.33,-48 384.67,-48 384.67,-48 379.33,-48 374,-42.67 374,-37.33 374,-37.33 374,-26.67 374,-26.67 374,-21.33 379.33,-16 384.67,-16"/>
<text text-anchor="start" x="379" y="-28.3" font-family="Helvetica,sans-Serif" font-size="14.00">&quot;s3_0&quot;</text>
<path fill="none" stroke="black" d="M384.67,-16C384.67,-16 419.33,-16 419.33,-16 424.67,-16 430,-21.33 430,-26.67 430,-26.67 430,-37.33 430,-37.33 430,-42.67 424.67,-48 419.33,-48 419.33,-48 384.67,-48 384.67,-48 379.33,-48 374,-42.67 374,-37.33 374,-37.33 374,-26.67 374,-26.67 374,-21.33 379.33,-16 384.67,-16"/>
</a>
</g>
</g>
</g>
</svg>
