<?xml version="1.0" encoding="UTF-8" standalone="no"?>
<!DOCTYPE svg PUBLIC "-//W3C//DTD SVG 1.1//EN"
 "http://www.w3.org/Graphics/SVG/1.1/DTD/svg11.dtd">
<!-- Generated by graphviz version 2.43.0 (0)
 -->
<!-- Title: %3 Pages: 1 -->
<svg width="1281pt" height="230pt"
 viewBox="0.00 0.00 1281.00 230.00" xmlns="http://www.w3.org/2000/svg" xmlns:xlink="http://www.w3.org/1999/xlink">
<g id="graph0" class="graph" transform="scale(1 1) rotate(0) translate(4 226)">
<title>%3</title>
<polygon fill="white" stroke="#000000" points="-4,4 -4,-226 1277,-226 1277,4 -4,4"/>
<g id="clust1" class="cluster">
<title>outer_cluster_Imm&#45;8</title>
</g>
<g id="clust2" class="cluster">
<title>cluster_Imm&#45;8</title>
<path fill="#ffffb3" stroke="black" stroke-dasharray="5,2" d="M23,-90C23,-90 67,-90 67,-90 73,-90 79,-96 79,-102 79,-102 79,-120 79,-120 79,-126 73,-132 67,-132 67,-132 23,-132 23,-132 17,-132 11,-126 11,-120 11,-120 11,-102 11,-102 11,-96 17,-90 23,-90"/>
</g>
<g id="clust4" class="cluster">
<title>outer_cluster_Imm&#45;4</title>
</g>
<g id="clust5" class="cluster">
<title>cluster_Imm&#45;4</title>
<path fill="#ffffb3" stroke="black" stroke-dasharray="5,2" d="M833,-90C833,-90 877,-90 877,-90 883,-90 889,-96 889,-102 889,-102 889,-120 889,-120 889,-126 883,-132 877,-132 877,-132 833,-132 833,-132 827,-132 821,-126 821,-120 821,-120 821,-102 821,-102 821,-96 827,-90 833,-90"/>
</g>
<g id="clust7" class="cluster">
<title>outer_cluster_Imm&#45;12</title>
</g>
<g id="clust8" class="cluster">
<title>cluster_Imm&#45;12</title>
<path fill="#ffffb3" stroke="black" stroke-dasharray="5,2" d="M981,-90C981,-90 1025,-90 1025,-90 1031,-90 1037,-96 1037,-102 1037,-102 1037,-120 1037,-120 1037,-126 1031,-132 1025,-132 1025,-132 981,-132 981,-132 975,-132 969,-126 969,-120 969,-120 969,-102 969,-102 969,-96 975,-90 981,-90"/>
</g>
<g id="clust10" class="cluster">
<title>outer_cluster_Imm&#45;18</title>
</g>
<g id="clust11" class="cluster">
<title>cluster_Imm&#45;18</title>
<path fill="#ffffb3" stroke="black" stroke-dasharray="5,2" d="M685,-90C685,-90 729,-90 729,-90 735,-90 741,-96 741,-102 741,-102 741,-120 741,-120 741,-126 735,-132 729,-132 729,-132 685,-132 685,-132 679,-132 673,-126 673,-120 673,-120 673,-102 673,-102 673,-96 679,-90 685,-90"/>
</g>
<g id="clust13" class="cluster">
<title>outer_cluster_Imm&#45;22</title>
</g>
<g id="clust14" class="cluster">
<title>cluster_Imm&#45;22</title>
<path fill="#ffffb3" stroke="black" stroke-dasharray="5,2" d="M759,-90C759,-90 803,-90 803,-90 809,-90 815,-96 815,-102 815,-102 815,-120 815,-120 815,-126 809,-132 803,-132 803,-132 759,-132 759,-132 753,-132 747,-126 747,-120 747,-120 747,-102 747,-102 747,-96 753,-90 759,-90"/>
</g>
<g id="clust16" class="cluster">
<title>outer_cluster_Imm&#45;24</title>
</g>
<g id="clust17" class="cluster">
<title>cluster_Imm&#45;24</title>
<path fill="#ffffb3" stroke="black" stroke-dasharray="5,2" d="M467,-90C467,-90 511,-90 511,-90 517,-90 523,-96 523,-102 523,-102 523,-120 523,-120 523,-126 517,-132 511,-132 511,-132 467,-132 467,-132 461,-132 455,-126 455,-120 455,-120 455,-102 455,-102 455,-96 461,-90 467,-90"/>
</g>
<g id="clust19" class="cluster">
<title>outer_cluster_Imm&#45;20</title>
</g>
<g id="clust20" class="cluster">
<title>cluster_Imm&#45;20</title>
<path fill="#ffffb3" stroke="black" stroke-dasharray="5,2" d="M611,-90C611,-90 655,-90 655,-90 661,-90 667,-96 667,-102 667,-102 667,-120 667,-120 667,-126 661,-132 655,-132 655,-132 611,-132 611,-132 605,-132 599,-126 599,-120 599,-120 599,-102 599,-102 599,-96 605,-90 611,-90"/>
</g>
<g id="clust22" class="cluster">
<title>outer_cluster_Imm&#45;10</title>
</g>
<g id="clust23" class="cluster">
<title>cluster_Imm&#45;10</title>
<path fill="#ffffb3" stroke="black" stroke-dasharray="5,2" d="M907,-90C907,-90 951,-90 951,-90 957,-90 963,-96 963,-102 963,-102 963,-120 963,-120 963,-126 957,-132 951,-132 951,-132 907,-132 907,-132 901,-132 895,-126 895,-120 895,-120 895,-102 895,-102 895,-96 901,-90 907,-90"/>
</g>
<g id="clust25" class="cluster">
<title>outer_cluster_Imm&#45;16</title>
</g>
<g id="clust26" class="cluster">
<title>cluster_Imm&#45;16</title>
<path fill="#ffffb3" stroke="black" stroke-dasharray="5,2" d="M319,-90C319,-90 363,-90 363,-90 369,-90 375,-96 375,-102 375,-102 375,-120 375,-120 375,-126 369,-132 363,-132 363,-132 319,-132 319,-132 313,-132 307,-126 307,-120 307,-120 307,-102 307,-102 307,-96 313,-90 319,-90"/>
</g>
<g id="clust28" class="cluster">
<title>outer_cluster_Imm&#45;6</title>
</g>
<g id="clust29" class="cluster">
<title>cluster_Imm&#45;6</title>
<path fill="#ffffb3" stroke="black" stroke-dasharray="5,2" d="M97,-90C97,-90 141,-90 141,-90 147,-90 153,-96 153,-102 153,-102 153,-120 153,-120 153,-126 147,-132 141,-132 141,-132 97,-132 97,-132 91,-132 85,-126 85,-120 85,-120 85,-102 85,-102 85,-96 91,-90 97,-90"/>
</g>
<g id="clust31" class="cluster">
<title>outer_cluster_Imm&#45;26</title>
</g>
<g id="clust32" class="cluster">
<title>cluster_Imm&#45;26</title>
<path fill="#ffffb3" stroke="black" stroke-dasharray="5,2" d="M1055,-90C1055,-90 1099,-90 1099,-90 1105,-90 1111,-96 1111,-102 1111,-102 1111,-120 1111,-120 1111,-126 1105,-132 1099,-132 1099,-132 1055,-132 1055,-132 1049,-132 1043,-126 1043,-120 1043,-120 1043,-102 1043,-102 1043,-96 1049,-90 1055,-90"/>
</g>
<g id="clust34" class="cluster">
<title>outer_cluster_Imm&#45;2</title>
</g>
<g id="clust35" class="cluster">
<title>cluster_Imm&#45;2</title>
<path fill="#ffffb3" stroke="black" stroke-dasharray="5,2" d="M393,-90C393,-90 437,-90 437,-90 443,-90 449,-96 449,-102 449,-102 449,-120 449,-120 449,-126 443,-132 437,-132 437,-132 393,-132 393,-132 387,-132 381,-126 381,-120 381,-120 381,-102 381,-102 381,-96 387,-90 393,-90"/>
</g>
<g id="clust37" class="cluster">
<title>outer_cluster_Imm&#45;28</title>
</g>
<g id="clust38" class="cluster">
<title>cluster_Imm&#45;28</title>
<path fill="#ffffb3" stroke="black" stroke-dasharray="5,2" d="M1129,-90C1129,-90 1173,-90 1173,-90 1179,-90 1185,-96 1185,-102 1185,-102 1185,-120 1185,-120 1185,-126 1179,-132 1173,-132 1173,-132 1129,-132 1129,-132 1123,-132 1117,-126 1117,-120 1117,-120 1117,-102 1117,-102 1117,-96 1123,-90 1129,-90"/>
</g>
<g id="clust40" class="cluster">
<title>outer_cluster_Imm&#45;30</title>
</g>
<g id="clust41" class="cluster">
<title>cluster_Imm&#45;30</title>
<path fill="#ffffb3" stroke="black" stroke-dasharray="5,2" d="M171,-90C171,-90 215,-90 215,-90 221,-90 227,-96 227,-102 227,-102 227,-120 227,-120 227,-126 221,-132 215,-132 215,-132 171,-132 171,-132 165,-132 159,-126 159,-120 159,-120 159,-102 159,-102 159,-96 165,-90 171,-90"/>
</g>
<g id="clust43" class="cluster">
<title>outer_cluster_Imm&#45;14</title>
</g>
<g id="clust44" class="cluster">
<title>cluster_Imm&#45;14</title>
<path fill="#ffffb3" stroke="black" stroke-dasharray="5,2" d="M245,-90C245,-90 289,-90 289,-90 295,-90 301,-96 301,-102 301,-102 301,-120 301,-120 301,-126 295,-132 289,-132 289,-132 245,-132 245,-132 239,-132 233,-126 233,-120 233,-120 233,-102 233,-102 233,-96 239,-90 245,-90"/>
</g>
<g id="clust46" class="cluster">
<title>outer_cluster_Inst&#45;7</title>
</g>
<g id="clust47" class="cluster">
<title>cluster_Inst&#45;7</title>
<path fill="#bebada" stroke="black" stroke-dasharray="5,2" d="M151,-169C151,-169 187,-169 187,-169 193,-169 199,-175 199,-181 199,-181 199,-199 199,-199 199,-205 193,-211 187,-211 187,-211 151,-211 151,-211 145,-211 139,-205 139,-199 139,-199 139,-181 139,-181 139,-175 145,-169 151,-169"/>
</g>
<g id="clust49" class="cluster">
<title>outer_cluster_Inst&#45;9</title>
</g>
<g id="clust50" class="cluster">
<title>cluster_Inst&#45;9</title>
<path fill="#bebada" stroke="black" stroke-dasharray="5,2" d="M24,-169C24,-169 60,-169 60,-169 66,-169 72,-175 72,-181 72,-181 72,-199 72,-199 72,-205 66,-211 60,-211 60,-211 24,-211 24,-211 18,-211 12,-205 12,-199 12,-199 12,-181 12,-181 12,-175 18,-169 24,-169"/>
</g>
<g id="clust52" class="cluster">
<title>outer_cluster_Inst&#45;29</title>
</g>
<g id="clust53" class="cluster">
<title>cluster_Inst&#45;29</title>
<path fill="#bebada" stroke="black" stroke-dasharray="5,2" d="M1168,-169C1168,-169 1204,-169 1204,-169 1210,-169 1216,-175 1216,-181 1216,-181 1216,-199 1216,-199 1216,-205 1210,-211 1204,-211 1204,-211 1168,-211 1168,-211 1162,-211 1156,-205 1156,-199 1156,-199 1156,-181 1156,-181 1156,-175 1162,-169 1168,-169"/>
</g>
<g id="clust55" class="cluster">
<title>outer_cluster_Inst&#45;0</title>
</g>
<g id="clust56" class="cluster">
<title>cluster_Inst&#45;0</title>
<path fill="#bebada" stroke="black" stroke-dasharray="5,2" d="M541,-90C541,-90 581,-90 581,-90 587,-90 593,-96 593,-102 593,-102 593,-120 593,-120 593,-126 587,-132 581,-132 581,-132 541,-132 541,-132 535,-132 529,-126 529,-120 529,-120 529,-102 529,-102 529,-96 535,-90 541,-90"/>
</g>
<g id="clust58" class="cluster">
<title>outer_cluster_Inst&#45;31</title>
</g>
<g id="clust59" class="cluster">
<title>cluster_Inst&#45;31</title>
<path fill="#bebada" stroke="black" stroke-dasharray="5,2" d="M247,-169C247,-169 283,-169 283,-169 289,-169 295,-175 295,-181 295,-181 295,-199 295,-199 295,-205 289,-211 283,-211 283,-211 247,-211 247,-211 241,-211 235,-205 235,-199 235,-199 235,-181 235,-181 235,-175 241,-169 247,-169"/>
</g>
<g id="clust61" class="cluster">
<title>outer_cluster_Inst&#45;15</title>
</g>
<g id="clust62" class="cluster">
<title>cluster_Inst&#45;15</title>
<path fill="#bebada" stroke="black" stroke-dasharray="5,2" d="M328,-169C328,-169 364,-169 364,-169 370,-169 376,-175 376,-181 376,-181 376,-199 376,-199 376,-205 370,-211 364,-211 364,-211 328,-211 328,-211 322,-211 316,-205 316,-199 316,-199 316,-181 316,-181 316,-175 322,-169 328,-169"/>
</g>
<g id="clust64" class="cluster">
<title>outer_cluster_Inst&#45;17</title>
</g>
<g id="clust65" class="cluster">
<title>cluster_Inst&#45;17</title>
<path fill="#bebada" stroke="black" stroke-dasharray="5,2" d="M402,-169C402,-169 438,-169 438,-169 444,-169 450,-175 450,-181 450,-181 450,-199 450,-199 450,-205 444,-211 438,-211 438,-211 402,-211 402,-211 396,-211 390,-205 390,-199 390,-199 390,-181 390,-181 390,-175 396,-169 402,-169"/>
</g>
<g id="clust67" class="cluster">
<title>outer_cluster_Inst&#45;3</title>
</g>
<g id="clust68" class="cluster">
<title>cluster_Inst&#45;3</title>
<path fill="#bebada" stroke="black" stroke-dasharray="5,2" d="M472,-169C472,-169 508,-169 508,-169 514,-169 520,-175 520,-181 520,-181 520,-199 520,-199 520,-205 514,-211 508,-211 508,-211 472,-211 472,-211 466,-211 460,-205 460,-199 460,-199 460,-181 460,-181 460,-175 466,-169 472,-169"/>
</g>
<g id="clust70" class="cluster">
<title>outer_cluster_Inst&#45;25</title>
</g>
<g id="clust71" class="cluster">
<title>cluster_Inst&#45;25</title>
<path fill="#bebada" stroke="black" stroke-dasharray="5,2" d="M540,-169C540,-169 576,-169 576,-169 582,-169 588,-175 588,-181 588,-181 588,-199 588,-199 588,-205 582,-211 576,-211 576,-211 540,-211 540,-211 534,-211 528,-205 528,-199 528,-199 528,-181 528,-181 528,-175 534,-169 540,-169"/>
</g>
<g id="clust73" class="cluster">
<title>outer_cluster_Inst&#45;21</title>
</g>
<g id="clust74" class="cluster">
<title>cluster_Inst&#45;21</title>
<path fill="#bebada" stroke="black" stroke-dasharray="5,2" d="M607,-169C607,-169 643,-169 643,-169 649,-169 655,-175 655,-181 655,-181 655,-199 655,-199 655,-205 649,-211 643,-211 643,-211 607,-211 607,-211 601,-211 595,-205 595,-199 595,-199 595,-181 595,-181 595,-175 601,-169 607,-169"/>
</g>
<g id="clust76" class="cluster">
<title>outer_cluster_Inst&#45;19</title>
</g>
<g id="clust77" class="cluster">
<title>cluster_Inst&#45;19</title>
<path fill="#bebada" stroke="black" stroke-dasharray="5,2" d="M677,-169C677,-169 713,-169 713,-169 719,-169 725,-175 725,-181 725,-181 725,-199 725,-199 725,-205 719,-211 713,-211 713,-211 677,-211 677,-211 671,-211 665,-205 665,-199 665,-199 665,-181 665,-181 665,-175 671,-169 677,-169"/>
</g>
<g id="clust79" class="cluster">
<title>outer_cluster_Inst&#45;23</title>
</g>
<g id="clust80" class="cluster">
<title>cluster_Inst&#45;23</title>
<path fill="#bebada" stroke="black" stroke-dasharray="5,2" d="M749,-169C749,-169 785,-169 785,-169 791,-169 797,-175 797,-181 797,-181 797,-199 797,-199 797,-205 791,-211 785,-211 785,-211 749,-211 749,-211 743,-211 737,-205 737,-199 737,-199 737,-181 737,-181 737,-175 743,-169 749,-169"/>
</g>
<g id="clust82" class="cluster">
<title>outer_cluster_Inst&#45;1</title>
</g>
<g id="clust83" class="cluster">
<title>cluster_Inst&#45;1</title>
<path fill="#bebada" stroke="black" stroke-dasharray="5,2" d="M1203,-90C1203,-90 1243,-90 1243,-90 1249,-90 1255,-96 1255,-102 1255,-102 1255,-120 1255,-120 1255,-126 1249,-132 1243,-132 1243,-132 1203,-132 1203,-132 1197,-132 1191,-126 1191,-120 1191,-120 1191,-102 1191,-102 1191,-96 1197,-90 1203,-90"/>
</g>
<g id="clust85" class="cluster">
<title>outer_cluster_Inst&#45;5</title>
</g>
<g id="clust86" class="cluster">
<title>cluster_Inst&#45;5</title>
<path fill="#bebada" stroke="black" stroke-dasharray="5,2" d="M822,-169C822,-169 858,-169 858,-169 864,-169 870,-175 870,-181 870,-181 870,-199 870,-199 870,-205 864,-211 858,-211 858,-211 822,-211 822,-211 816,-211 810,-205 810,-199 810,-199 810,-181 810,-181 810,-175 816,-169 822,-169"/>
</g>
<g id="clust88" class="cluster">
<title>outer_cluster_Inst&#45;11</title>
</g>
<g id="clust89" class="cluster">
<title>cluster_Inst&#45;11</title>
<path fill="#bebada" stroke="black" stroke-dasharray="5,2" d="M896,-169C896,-169 932,-169 932,-169 938,-169 944,-175 944,-181 944,-181 944,-199 944,-199 944,-205 938,-211 932,-211 932,-211 896,-211 896,-211 890,-211 884,-205 884,-199 884,-199 884,-181 884,-181 884,-175 890,-169 896,-169"/>
</g>
<g id="clust91" class="cluster">
<title>outer_cluster_Inst&#45;13</title>
</g>
<g id="clust92" class="cluster">
<title>cluster_Inst&#45;13</title>
<path fill="#bebada" stroke="black" stroke-dasharray="5,2" d="M970,-169C970,-169 1006,-169 1006,-169 1012,-169 1018,-175 1018,-181 1018,-181 1018,-199 1018,-199 1018,-205 1012,-211 1006,-211 1006,-211 970,-211 970,-211 964,-211 958,-205 958,-199 958,-199 958,-181 958,-181 958,-175 964,-169 970,-169"/>
</g>
<g id="clust94" class="cluster">
<title>outer_cluster_Inst&#45;27</title>
</g>
<g id="clust95" class="cluster">
<title>cluster_Inst&#45;27</title>
<path fill="#bebada" stroke="black" stroke-dasharray="5,2" d="M1044,-169C1044,-169 1080,-169 1080,-169 1086,-169 1092,-175 1092,-181 1092,-181 1092,-199 1092,-199 1092,-205 1086,-211 1080,-211 1080,-211 1044,-211 1044,-211 1038,-211 1032,-205 1032,-199 1032,-199 1032,-181 1032,-181 1032,-175 1038,-169 1044,-169"/>
</g>
<g id="clust97" class="cluster">
<title>outer_cluster_String&#45;1</title>
</g>
<g id="clust98" class="cluster">
<title>cluster_String&#45;1</title>
<path fill="#fb8072" stroke="black" stroke-dasharray="5,2" d="M1198,-11C1198,-11 1250,-11 1250,-11 1256,-11 1262,-17 1262,-23 1262,-23 1262,-41 1262,-41 1262,-47 1256,-53 1250,-53 1250,-53 1198,-53 1198,-53 1192,-53 1186,-47 1186,-41 1186,-41 1186,-23 1186,-23 1186,-17 1192,-11 1198,-11"/>
</g>
<g id="clust100" class="cluster">
<title>outer_cluster_String&#45;0</title>
</g>
<g id="clust101" class="cluster">
<title>cluster_String&#45;0</title>
<path fill="#fb8072" stroke="black" stroke-dasharray="5,2" d="M543,-11C543,-11 581,-11 581,-11 587,-11 593,-17 593,-23 593,-23 593,-41 593,-41 593,-47 587,-53 581,-53 581,-53 543,-53 543,-53 537,-53 531,-47 531,-41 531,-41 531,-23 531,-23 531,-17 537,-11 543,-11"/>
</g>
<g id="clust103" class="cluster">
<title>outer_cluster_i64&#45;84</title>
</g>
<g id="clust104" class="cluster">
<title>cluster_i64&#45;84</title>
<path fill="#80b1d3" stroke="black" stroke-dasharray="5,2" d="M101,-11C101,-11 137,-11 137,-11 143,-11 149,-17 149,-23 149,-23 149,-41 149,-41 149,-47 143,-53 137,-53 137,-53 101,-53 101,-53 95,-53 89,-47 89,-41 89,-41 89,-23 89,-23 89,-17 95,-11 101,-11"/>
</g>
<g id="clust106" class="cluster">
<title>outer_cluster_i64&#45;96</title>
</g>
<g id="clust107" class="cluster">
<title>cluster_i64&#45;96</title>
<path fill="#80b1d3" stroke="black" stroke-dasharray="5,2" d="M175,-11C175,-11 211,-11 211,-11 217,-11 223,-17 223,-23 223,-23 223,-41 223,-41 223,-47 217,-53 211,-53 211,-53 175,-53 175,-53 169,-53 163,-47 163,-41 163,-41 163,-23 163,-23 163,-17 169,-11 175,-11"/>
</g>
<g id="clust109" class="cluster">
<title>outer_cluster_i64&#45;52</title>
</g>
<g id="clust110" class="cluster">
<title>cluster_i64&#45;52</title>
<path fill="#80b1d3" stroke="black" stroke-dasharray="5,2" d="M763,-11C763,-11 799,-11 799,-11 805,-11 811,-17 811,-23 811,-23 811,-41 811,-41 811,-47 805,-53 799,-53 799,-53 763,-53 763,-53 757,-53 751,-47 751,-41 751,-41 751,-23 751,-23 751,-17 757,-11 763,-11"/>
</g>
<g id="clust112" class="cluster">
<title>outer_cluster_i64&#45;92</title>
</g>
<g id="clust113" class="cluster">
<title>cluster_i64&#45;92</title>
<path fill="#80b1d3" stroke="black" stroke-dasharray="5,2" d="M397,-11C397,-11 433,-11 433,-11 439,-11 445,-17 445,-23 445,-23 445,-41 445,-41 445,-47 439,-53 433,-53 433,-53 397,-53 397,-53 391,-53 385,-47 385,-41 385,-41 385,-23 385,-23 385,-17 391,-11 397,-11"/>
</g>
<g id="clust115" class="cluster">
<title>outer_cluster_i64&#45;88</title>
</g>
<g id="clust116" class="cluster">
<title>cluster_i64&#45;88</title>
<path fill="#80b1d3" stroke="black" stroke-dasharray="5,2" d="M837,-11C837,-11 873,-11 873,-11 879,-11 885,-17 885,-23 885,-23 885,-41 885,-41 885,-47 879,-53 873,-53 873,-53 837,-53 837,-53 831,-53 825,-47 825,-41 825,-41 825,-23 825,-23 825,-17 831,-11 837,-11"/>
</g>
<g id="clust118" class="cluster">
<title>outer_cluster_i64&#45;0</title>
</g>
<g id="clust119" class="cluster">
<title>cluster_i64&#45;0</title>
<path fill="#80b1d3" stroke="black" stroke-dasharray="5,2" d="M1132,-11C1132,-11 1168,-11 1168,-11 1174,-11 1180,-17 1180,-23 1180,-23 1180,-41 1180,-41 1180,-47 1174,-53 1168,-53 1168,-53 1132,-53 1132,-53 1126,-53 1120,-47 1120,-41 1120,-41 1120,-23 1120,-23 1120,-17 1126,-11 1132,-11"/>
</g>
<g id="clust121" class="cluster">
<title>outer_cluster_i64&#45;48</title>
</g>
<g id="clust122" class="cluster">
<title>cluster_i64&#45;48</title>
<path fill="#80b1d3" stroke="black" stroke-dasharray="5,2" d="M471,-11C471,-11 507,-11 507,-11 513,-11 519,-17 519,-23 519,-23 519,-41 519,-41 519,-47 513,-53 507,-53 507,-53 471,-53 471,-53 465,-53 459,-47 459,-41 459,-41 459,-23 459,-23 459,-17 465,-11 471,-11"/>
</g>
<g id="clust124" class="cluster">
<title>outer_cluster_i64&#45;80</title>
</g>
<g id="clust125" class="cluster">
<title>cluster_i64&#45;80</title>
<path fill="#80b1d3" stroke="black" stroke-dasharray="5,2" d="M27,-11C27,-11 63,-11 63,-11 69,-11 75,-17 75,-23 75,-23 75,-41 75,-41 75,-47 69,-53 63,-53 63,-53 27,-53 27,-53 21,-53 15,-47 15,-41 15,-41 15,-23 15,-23 15,-17 21,-11 27,-11"/>
</g>
<g id="clust127" class="cluster">
<title>outer_cluster_i64&#45;44</title>
</g>
<g id="clust128" class="cluster">
<title>cluster_i64&#45;44</title>
<path fill="#80b1d3" stroke="black" stroke-dasharray="5,2" d="M1059,-11C1059,-11 1095,-11 1095,-11 1101,-11 1107,-17 1107,-23 1107,-23 1107,-41 1107,-41 1107,-47 1101,-53 1095,-53 1095,-53 1059,-53 1059,-53 1053,-53 1047,-47 1047,-41 1047,-41 1047,-23 1047,-23 1047,-17 1053,-11 1059,-11"/>
</g>
<g id="clust130" class="cluster">
<title>outer_cluster_i64&#45;72</title>
</g>
<g id="clust131" class="cluster">
<title>cluster_i64&#45;72</title>
<path fill="#80b1d3" stroke="black" stroke-dasharray="5,2" d="M985,-11C985,-11 1021,-11 1021,-11 1027,-11 1033,-17 1033,-23 1033,-23 1033,-41 1033,-41 1033,-47 1027,-53 1021,-53 1021,-53 985,-53 985,-53 979,-53 973,-47 973,-41 973,-41 973,-23 973,-23 973,-17 979,-11 985,-11"/>
</g>
<g id="clust133" class="cluster">
<title>outer_cluster_i64&#45;76</title>
</g>
<g id="clust134" class="cluster">
<title>cluster_i64&#45;76</title>
<path fill="#80b1d3" stroke="black" stroke-dasharray="5,2" d="M911,-11C911,-11 947,-11 947,-11 953,-11 959,-17 959,-23 959,-23 959,-41 959,-41 959,-47 953,-53 947,-53 947,-53 911,-53 911,-53 905,-53 899,-47 899,-41 899,-41 899,-23 899,-23 899,-17 905,-11 911,-11"/>
</g>
<g id="clust136" class="cluster">
<title>outer_cluster_i64&#45;68</title>
</g>
<g id="clust137" class="cluster">
<title>cluster_i64&#45;68</title>
<path fill="#80b1d3" stroke="black" stroke-dasharray="5,2" d="M249,-11C249,-11 285,-11 285,-11 291,-11 297,-17 297,-23 297,-23 297,-41 297,-41 297,-47 291,-53 285,-53 285,-53 249,-53 249,-53 243,-53 237,-47 237,-41 237,-41 237,-23 237,-23 237,-17 243,-11 249,-11"/>
</g>
<g id="clust139" class="cluster">
<title>outer_cluster_i64&#45;64</title>
</g>
<g id="clust140" class="cluster">
<title>cluster_i64&#45;64</title>
<path fill="#80b1d3" stroke="black" stroke-dasharray="5,2" d="M323,-11C323,-11 359,-11 359,-11 365,-11 371,-17 371,-23 371,-23 371,-41 371,-41 371,-47 365,-53 359,-53 359,-53 323,-53 323,-53 317,-53 311,-47 311,-41 311,-41 311,-23 311,-23 311,-17 317,-11 323,-11"/>
</g>
<g id="clust142" class="cluster">
<title>outer_cluster_i64&#45;56</title>
</g>
<g id="clust143" class="cluster">
<title>cluster_i64&#45;56</title>
<path fill="#80b1d3" stroke="black" stroke-dasharray="5,2" d="M615,-11C615,-11 651,-11 651,-11 657,-11 663,-17 663,-23 663,-23 663,-41 663,-41 663,-47 657,-53 651,-53 651,-53 615,-53 615,-53 609,-53 603,-47 603,-41 603,-41 603,-23 603,-23 603,-17 609,-11 615,-11"/>
</g>
<g id="clust145" class="cluster">
<title>outer_cluster_i64&#45;60</title>
</g>
<g id="clust146" class="cluster">
<title>cluster_i64&#45;60</title>
<path fill="#80b1d3" stroke="black" stroke-dasharray="5,2" d="M689,-11C689,-11 725,-11 725,-11 731,-11 737,-17 737,-23 737,-23 737,-41 737,-41 737,-47 731,-53 725,-53 725,-53 689,-53 689,-53 683,-53 677,-47 677,-41 677,-41 677,-23 677,-23 677,-17 683,-11 689,-11"/>
</g>
<!-- function&#45;3&#45;ImmVal&#45;&gt;primitive&#45;i64&#45;80 -->
<g id="edge1" class="edge">
<title>function&#45;3&#45;ImmVal:s&#45;&gt;primitive&#45;i64&#45;80</title>
<path fill="none" stroke="black" d="M45,-95C45,-81.84 45,-67.11 45,-55.3"/>
<polygon fill="black" stroke="black" points="46.75,-58 45,-53 43.25,-58 46.75,-58"/>
</g>
<!-- function&#45;1&#45;ImmVal&#45;&gt;primitive&#45;i64&#45;88 -->
<g id="edge2" class="edge">
<title>function&#45;1&#45;ImmVal:s&#45;&gt;primitive&#45;i64&#45;88</title>
<path fill="none" stroke="black" d="M855,-95C855,-81.84 855,-67.11 855,-55.3"/>
<polygon fill="black" stroke="black" points="856.75,-58 855,-53 853.25,-58 856.75,-58"/>
</g>
<!-- function&#45;5&#45;ImmVal&#45;&gt;primitive&#45;i64&#45;72 -->
<g id="edge3" class="edge">
<title>function&#45;5&#45;ImmVal:s&#45;&gt;primitive&#45;i64&#45;72</title>
<path fill="none" stroke="black" d="M1003,-95C1003,-81.84 1003,-67.11 1003,-55.3"/>
<polygon fill="black" stroke="black" points="1004.75,-58 1003,-53 1001.25,-58 1004.75,-58"/>
</g>
<!-- function&#45;8&#45;ImmVal&#45;&gt;primitive&#45;i64&#45;60 -->
<g id="edge4" class="edge">
<title>function&#45;8&#45;ImmVal:s&#45;&gt;primitive&#45;i64&#45;60</title>
<path fill="none" stroke="black" d="M707,-95C707,-81.84 707,-67.11 707,-55.3"/>
<polygon fill="black" stroke="black" points="708.75,-58 707,-53 705.25,-58 708.75,-58"/>
</g>
<!-- function&#45;10&#45;ImmVal&#45;&gt;primitive&#45;i64&#45;52 -->
<g id="edge5" class="edge">
<title>function&#45;10&#45;ImmVal:s&#45;&gt;primitive&#45;i64&#45;52</title>
<path fill="none" stroke="black" d="M781,-95C781,-81.84 781,-67.11 781,-55.3"/>
<polygon fill="black" stroke="black" points="782.75,-58 781,-53 779.25,-58 782.75,-58"/>
</g>
<!-- function&#45;11&#45;ImmVal&#45;&gt;primitive&#45;i64&#45;48 -->
<g id="edge6" class="edge">
<title>function&#45;11&#45;ImmVal:s&#45;&gt;primitive&#45;i64&#45;48</title>
<path fill="none" stroke="black" d="M489,-95C489,-81.84 489,-67.11 489,-55.3"/>
<polygon fill="black" stroke="black" points="490.75,-58 489,-53 487.25,-58 490.75,-58"/>
</g>
<!-- function&#45;9&#45;ImmVal&#45;&gt;primitive&#45;i64&#45;56 -->
<g id="edge7" class="edge">
<title>function&#45;9&#45;ImmVal:s&#45;&gt;primitive&#45;i64&#45;56</title>
<path fill="none" stroke="black" d="M633,-95C633,-81.84 633,-67.11 633,-55.3"/>
<polygon fill="black" stroke="black" points="634.75,-58 633,-53 631.25,-58 634.75,-58"/>
</g>
<!-- function&#45;4&#45;ImmVal&#45;&gt;primitive&#45;i64&#45;76 -->
<g id="edge8" class="edge">
<title>function&#45;4&#45;ImmVal:s&#45;&gt;primitive&#45;i64&#45;76</title>
<path fill="none" stroke="black" d="M929,-95C929,-81.84 929,-67.11 929,-55.3"/>
<polygon fill="black" stroke="black" points="930.75,-58 929,-53 927.25,-58 930.75,-58"/>
</g>
<!-- function&#45;7&#45;ImmVal&#45;&gt;primitive&#45;i64&#45;64 -->
<g id="edge9" class="edge">
<title>function&#45;7&#45;ImmVal:s&#45;&gt;primitive&#45;i64&#45;64</title>
<path fill="none" stroke="black" d="M341,-95C341,-81.84 341,-67.11 341,-55.3"/>
<polygon fill="black" stroke="black" points="342.75,-58 341,-53 339.25,-58 342.75,-58"/>
</g>
<!-- function&#45;2&#45;ImmVal&#45;&gt;primitive&#45;i64&#45;84 -->
<g id="edge10" class="edge">
<title>function&#45;2&#45;ImmVal:s&#45;&gt;primitive&#45;i64&#45;84</title>
<path fill="none" stroke="black" d="M119,-95C119,-81.84 119,-67.11 119,-55.3"/>
<polygon fill="black" stroke="black" points="120.75,-58 119,-53 117.25,-58 120.75,-58"/>
</g>
<!-- function&#45;12&#45;ImmVal&#45;&gt;primitive&#45;i64&#45;44 -->
<g id="edge11" class="edge">
<title>function&#45;12&#45;ImmVal:s&#45;&gt;primitive&#45;i64&#45;44</title>
<path fill="none" stroke="black" d="M1077,-95C1077,-81.84 1077,-67.11 1077,-55.3"/>
<polygon fill="black" stroke="black" points="1078.75,-58 1077,-53 1075.25,-58 1078.75,-58"/>
</g>
<!-- function&#45;0&#45;ImmVal&#45;&gt;primitive&#45;i64&#45;92 -->
<g id="edge12" class="edge">
<title>function&#45;0&#45;ImmVal:s&#45;&gt;primitive&#45;i64&#45;92</title>
<path fill="none" stroke="black" d="M415,-95C415,-81.84 415,-67.11 415,-55.3"/>
<polygon fill="black" stroke="black" points="416.75,-58 415,-53 413.25,-58 416.75,-58"/>
</g>
<!-- function&#45;13&#45;ImmVal&#45;&gt;primitive&#45;i64&#45;0 -->
<g id="edge13" class="edge">
<title>function&#45;13&#45;ImmVal:s&#45;&gt;primitive&#45;i64&#45;0</title>
<path fill="none" stroke="black" d="M1151,-95C1151,-81.84 1150.77,-67.1 1150.53,-55.3"/>
<polygon fill="black" stroke="black" points="1152.41,-57.91 1150.42,-53 1148.91,-58.08 1152.41,-57.91"/>
</g>
<!-- function&#45;14&#45;ImmVal&#45;&gt;primitive&#45;i64&#45;96 -->
<g id="edge14" class="edge">
<title>function&#45;14&#45;ImmVal:s&#45;&gt;primitive&#45;i64&#45;96</title>
<path fill="none" stroke="black" d="M193,-95C193,-81.84 193,-67.11 193,-55.3"/>
<polygon fill="black" stroke="black" points="194.75,-58 193,-53 191.25,-58 194.75,-58"/>
</g>
<!-- function&#45;6&#45;ImmVal&#45;&gt;primitive&#45;i64&#45;68 -->
<g id="edge15" class="edge">
<title>function&#45;6&#45;ImmVal:s&#45;&gt;primitive&#45;i64&#45;68</title>
<path fill="none" stroke="black" d="M267,-95C267,-81.84 267,-67.11 267,-55.3"/>
<polygon fill="black" stroke="black" points="268.75,-58 267,-53 265.25,-58 268.75,-58"/>
</g>
<!-- function&#45;2&#45;Lw&#45;&gt;function&#45;2&#45;ImmVal -->
<g id="edge17" class="edge">
<title>function&#45;2&#45;Lw:s&#45;&gt;function&#45;2&#45;ImmVal</title>
<path fill="none" stroke="black" d="M177,-174C177,-157.04 165.28,-142.79 152.37,-132.25"/>
<polygon fill="black" stroke="black" points="156.61,-131.5 151.34,-132 155.78,-134.9 156.61,-131.5"/>
</g>
<!-- function&#45;2&#45;Lw&#45;&gt;function&#45;0&#45;RegVal -->
<g id="edge16" class="edge">
<title>function&#45;2&#45;Lw:s&#45;&gt;function&#45;0&#45;RegVal</title>
<path fill="none" stroke="black" d="M161,-174C161,-141.36 201.55,-169.51 234,-166 362.87,-152.05 401.43,-177.17 524,-135 524.76,-134.74 525.52,-134.46 526.28,-134.16"/>
<polygon fill="black" stroke="black" points="527.39,-135.59 531.28,-132 526,-132.38 527.39,-135.59"/>
</g>
<!-- function&#45;0&#45;RegVal&#45;&gt;primitive&#45;String&#45;0 -->
<g id="edge22" class="edge">
<title>function&#45;0&#45;RegVal:s&#45;&gt;primitive&#45;String&#45;0</title>
<path fill="none" stroke="black" d="M562,-95C562,-81.84 562,-67.11 562,-55.3"/>
<polygon fill="black" stroke="black" points="563.75,-58 562,-53 560.25,-58 563.75,-58"/>
</g>
<!-- function&#45;3&#45;Lw&#45;&gt;function&#45;3&#45;ImmVal -->
<g id="edge19" class="edge">
<title>function&#45;3&#45;Lw:s&#45;&gt;function&#45;3&#45;ImmVal</title>
<path fill="none" stroke="black" d="M50,-174C50,-160.8 48.86,-146.06 47.67,-134.27"/>
<polygon fill="black" stroke="black" points="49.99,-136.45 47.12,-132 46.59,-137.27 49.99,-136.45"/>
</g>
<!-- function&#45;3&#45;Lw&#45;&gt;function&#45;0&#45;RegVal -->
<g id="edge18" class="edge">
<title>function&#45;3&#45;Lw:s&#45;&gt;function&#45;0&#45;RegVal</title>
<path fill="none" stroke="black" d="M34,-174C34,-119.38 472.12,-152.07 524,-135 524.94,-134.69 525.88,-134.35 526.81,-133.99"/>
<polygon fill="black" stroke="black" points="527.56,-135.58 531.47,-132 526.18,-132.36 527.56,-135.58"/>
</g>
<!-- function&#45;0&#45;Addi&#45;&gt;function&#45;13&#45;ImmVal -->
<g id="edge21" class="edge">
<title>function&#45;0&#45;Addi:s&#45;&gt;function&#45;13&#45;ImmVal</title>
<path fill="none" stroke="black" d="M1196,-174C1196,-158.23 1186.34,-143.76 1175.98,-132.78"/>
<polygon fill="black" stroke="black" points="1179.7,-132.71 1174.45,-132 1178.11,-135.83 1179.7,-132.71"/>
</g>
<!-- function&#45;0&#45;Addi&#45;&gt;function&#45;1&#45;RegVal -->
<g id="edge20" class="edge">
<title>function&#45;0&#45;Addi:s&#45;&gt;function&#45;1&#45;RegVal</title>
<path fill="none" stroke="black" d="M1176,-174C1176,-158.1 1185.93,-143.72 1196.67,-132.82"/>
<polygon fill="black" stroke="black" points="1194.61,-135.78 1198.33,-132 1193.07,-132.64 1194.61,-135.78"/>
</g>
<!-- function&#45;1&#45;RegVal&#45;&gt;primitive&#45;String&#45;1 -->
<g id="edge39" class="edge">
<title>function&#45;1&#45;RegVal:s&#45;&gt;primitive&#45;String&#45;1</title>
<path fill="none" stroke="black" d="M1224,-95C1224,-81.84 1224,-67.11 1224,-55.3"/>
<polygon fill="black" stroke="black" points="1225.75,-58 1224,-53 1222.25,-58 1225.75,-58"/>
</g>
<!-- function&#45;1&#45;Addi&#45;&gt;function&#45;14&#45;ImmVal -->
<g id="edge24" class="edge">
<title>function&#45;1&#45;Addi:s&#45;&gt;function&#45;14&#45;ImmVal</title>
<path fill="none" stroke="black" d="M275,-174C275,-167.36 247.32,-147.51 224.12,-132.04"/>
<polygon fill="black" stroke="black" points="229.04,-130.92 223.85,-132 228.58,-134.39 229.04,-130.92"/>
</g>
<!-- function&#45;1&#45;Addi&#45;&gt;function&#45;0&#45;RegVal -->
<g id="edge23" class="edge">
<title>function&#45;1&#45;Addi:s&#45;&gt;function&#45;0&#45;RegVal</title>
<path fill="none" stroke="black" d="M255,-174C255,-113.6 467.26,-155.72 524,-135 524.73,-134.73 525.47,-134.45 526.2,-134.15"/>
<polygon fill="black" stroke="black" points="527.17,-135.63 531.03,-132 525.75,-132.44 527.17,-135.63"/>
</g>
<!-- function&#45;6&#45;Lw&#45;&gt;function&#45;6&#45;ImmVal -->
<g id="edge26" class="edge">
<title>function&#45;6&#45;Lw:s&#45;&gt;function&#45;6&#45;ImmVal</title>
<path fill="none" stroke="black" d="M354,-174C354,-167.52 328.08,-149.64 304.54,-134.74"/>
<polygon fill="black" stroke="black" points="305.34,-133.18 300.18,-132 303.48,-136.14 305.34,-133.18"/>
</g>
<!-- function&#45;6&#45;Lw&#45;&gt;function&#45;0&#45;RegVal -->
<g id="edge25" class="edge">
<title>function&#45;6&#45;Lw:s&#45;&gt;function&#45;0&#45;RegVal</title>
<path fill="none" stroke="black" d="M338,-174C338,-131.77 484.8,-150.72 524,-135 524.69,-134.72 525.38,-134.43 526.07,-134.13"/>
<polygon fill="black" stroke="black" points="526.85,-135.7 530.64,-132 525.37,-132.53 526.85,-135.7"/>
</g>
<!-- function&#45;7&#45;Lw&#45;&gt;function&#45;7&#45;ImmVal -->
<g id="edge28" class="edge">
<title>function&#45;7&#45;Lw:s&#45;&gt;function&#45;7&#45;ImmVal</title>
<path fill="none" stroke="black" d="M428,-174C428,-167.52 402.08,-149.64 378.54,-134.74"/>
<polygon fill="black" stroke="black" points="379.34,-133.18 374.18,-132 377.48,-136.14 379.34,-133.18"/>
</g>
<!-- function&#45;7&#45;Lw&#45;&gt;function&#45;0&#45;RegVal -->
<g id="edge27" class="edge">
<title>function&#45;7&#45;Lw:s&#45;&gt;function&#45;0&#45;RegVal</title>
<path fill="none" stroke="black" d="M412,-174C412,-121.29 476.44,-157.72 524,-135 524.37,-134.83 524.73,-134.65 525.1,-134.47"/>
<polygon fill="black" stroke="black" points="526.26,-135.84 529.9,-132 524.65,-132.73 526.26,-135.84"/>
</g>
<!-- function&#45;0&#45;Lw&#45;&gt;function&#45;0&#45;ImmVal -->
<g id="edge30" class="edge">
<title>function&#45;0&#45;Lw:s&#45;&gt;function&#45;0&#45;ImmVal</title>
<path fill="none" stroke="black" d="M498,-174C498,-167.31 469.98,-147.47 446.5,-132.01"/>
<polygon fill="black" stroke="black" points="451.22,-130.38 446.18,-132 451.13,-133.88 451.22,-130.38"/>
</g>
<!-- function&#45;0&#45;Lw&#45;&gt;function&#45;0&#45;RegVal -->
<g id="edge29" class="edge">
<title>function&#45;0&#45;Lw:s&#45;&gt;function&#45;0&#45;RegVal</title>
<path fill="none" stroke="black" d="M482,-174C482,-167.52 508.67,-147.64 531.02,-132.12"/>
<polygon fill="black" stroke="black" points="527.34,-134.26 532.13,-132 526.98,-130.78 527.34,-134.26"/>
</g>
<!-- function&#45;11&#45;Lw&#45;&gt;function&#45;11&#45;ImmVal -->
<g id="edge32" class="edge">
<title>function&#45;11&#45;Lw:s&#45;&gt;function&#45;11&#45;ImmVal</title>
<path fill="none" stroke="black" d="M566,-174C566,-162.99 546.66,-147.44 527.36,-134.67"/>
<polygon fill="black" stroke="black" points="528.14,-133.09 523,-131.83 526.23,-136.02 528.14,-133.09"/>
</g>
<!-- function&#45;11&#45;Lw&#45;&gt;function&#45;0&#45;RegVal -->
<g id="edge31" class="edge">
<title>function&#45;11&#45;Lw:s&#45;&gt;function&#45;0&#45;RegVal</title>
<path fill="none" stroke="black" d="M550,-174C550,-160.73 552.47,-146.1 555.08,-134.39"/>
<polygon fill="black" stroke="black" points="555.6,-137.25 556.27,-132 552.47,-135.69 555.6,-137.25"/>
</g>
<!-- function&#45;9&#45;Lw&#45;&gt;function&#45;9&#45;ImmVal -->
<g id="edge34" class="edge">
<title>function&#45;9&#45;Lw:s&#45;&gt;function&#45;9&#45;ImmVal</title>
<path fill="none" stroke="black" d="M633,-174C633,-160.84 633,-146.11 633,-134.3"/>
<polygon fill="black" stroke="black" points="634.75,-137 633,-132 631.25,-137 634.75,-137"/>
</g>
<!-- function&#45;9&#45;Lw&#45;&gt;function&#45;0&#45;RegVal -->
<g id="edge33" class="edge">
<title>function&#45;9&#45;Lw:s&#45;&gt;function&#45;0&#45;RegVal</title>
<path fill="none" stroke="black" d="M617,-174C617,-157.17 605.5,-142.87 592.93,-132.25"/>
<polygon fill="black" stroke="black" points="597.28,-131.62 592,-132 596.37,-135 597.28,-131.62"/>
</g>
<!-- function&#45;8&#45;Lw&#45;&gt;function&#45;8&#45;ImmVal -->
<g id="edge36" class="edge">
<title>function&#45;8&#45;Lw:s&#45;&gt;function&#45;8&#45;ImmVal</title>
<path fill="none" stroke="black" d="M703,-174C703,-160.81 703.91,-146.08 704.87,-134.28"/>
<polygon fill="black" stroke="black" points="706.08,-137.24 705.3,-132 702.64,-136.58 706.08,-137.24"/>
</g>
<!-- function&#45;8&#45;Lw&#45;&gt;function&#45;0&#45;RegVal -->
<g id="edge35" class="edge">
<title>function&#45;8&#45;Lw:s&#45;&gt;function&#45;0&#45;RegVal</title>
<path fill="none" stroke="black" d="M687,-174C687,-130.81 636.21,-155.12 598,-135 597.66,-134.82 597.32,-134.64 596.98,-134.46"/>
<polygon fill="black" stroke="black" points="597.73,-132.87 592.5,-132 596.04,-135.94 597.73,-132.87"/>
</g>
<!-- function&#45;10&#45;Lw&#45;&gt;function&#45;10&#45;ImmVal -->
<g id="edge38" class="edge">
<title>function&#45;10&#45;Lw:s&#45;&gt;function&#45;10&#45;ImmVal</title>
<path fill="none" stroke="black" d="M775,-174C775,-160.78 776.37,-146.04 777.8,-134.25"/>
<polygon fill="black" stroke="black" points="778.74,-137.29 778.46,-132 775.38,-136.31 778.74,-137.29"/>
</g>
<!-- function&#45;10&#45;Lw&#45;&gt;function&#45;0&#45;RegVal -->
<g id="edge37" class="edge">
<title>function&#45;10&#45;Lw:s&#45;&gt;function&#45;0&#45;RegVal</title>
<path fill="none" stroke="black" d="M759,-174C759,-100.37 665.9,-163.46 598,-135 597.46,-134.78 596.93,-134.54 596.39,-134.31"/>
<polygon fill="black" stroke="black" points="596.82,-132.57 591.55,-132 595.31,-135.73 596.82,-132.57"/>
</g>
<!-- function&#45;1&#45;Lw&#45;&gt;function&#45;1&#45;ImmVal -->
<g id="edge41" class="edge">
<title>function&#45;1&#45;Lw:s&#45;&gt;function&#45;1&#45;ImmVal</title>
<path fill="none" stroke="black" d="M848,-174C848,-160.76 849.6,-146.02 851.27,-134.24"/>
<polygon fill="black" stroke="black" points="852.07,-137.3 852.03,-132 848.76,-136.16 852.07,-137.3"/>
</g>
<!-- function&#45;1&#45;Lw&#45;&gt;function&#45;0&#45;RegVal -->
<g id="edge40" class="edge">
<title>function&#45;1&#45;Lw:s&#45;&gt;function&#45;0&#45;RegVal</title>
<path fill="none" stroke="black" d="M832,-174C832,-121.28 647.43,-153.32 598,-135 597.27,-134.73 596.54,-134.45 595.82,-134.15"/>
<polygon fill="black" stroke="black" points="596.3,-132.45 591.03,-132 594.87,-135.64 596.3,-132.45"/>
</g>
<!-- function&#45;4&#45;Lw&#45;&gt;function&#45;4&#45;ImmVal -->
<g id="edge43" class="edge">
<title>function&#45;4&#45;Lw:s&#45;&gt;function&#45;4&#45;ImmVal</title>
<path fill="none" stroke="black" d="M922,-174C922,-160.76 923.6,-146.02 925.27,-134.24"/>
<polygon fill="black" stroke="black" points="926.07,-137.3 926.03,-132 922.76,-136.16 926.07,-137.3"/>
</g>
<!-- function&#45;4&#45;Lw&#45;&gt;function&#45;0&#45;RegVal -->
<g id="edge42" class="edge">
<title>function&#45;4&#45;Lw:s&#45;&gt;function&#45;0&#45;RegVal</title>
<path fill="none" stroke="black" d="M906,-174C906,-105.01 663.16,-157.66 598,-135 597.24,-134.74 596.49,-134.46 595.73,-134.16"/>
<polygon fill="black" stroke="black" points="596.05,-132.39 590.76,-132 594.65,-135.6 596.05,-132.39"/>
</g>
<!-- function&#45;5&#45;Lw&#45;&gt;function&#45;5&#45;ImmVal -->
<g id="edge45" class="edge">
<title>function&#45;5&#45;Lw:s&#45;&gt;function&#45;5&#45;ImmVal</title>
<path fill="none" stroke="black" d="M996,-174C996,-160.76 997.6,-146.02 999.27,-134.24"/>
<polygon fill="black" stroke="black" points="1000.07,-137.3 1000.03,-132 996.76,-136.16 1000.07,-137.3"/>
</g>
<!-- function&#45;5&#45;Lw&#45;&gt;function&#45;0&#45;RegVal -->
<g id="edge44" class="edge">
<title>function&#45;5&#45;Lw:s&#45;&gt;function&#45;0&#45;RegVal</title>
<path fill="none" stroke="black" d="M980,-174C980,-131.33 638.46,-148.53 598,-135 597.07,-134.69 596.14,-134.35 595.21,-133.99"/>
<polygon fill="black" stroke="black" points="595.88,-132.37 590.6,-132 594.49,-135.58 595.88,-132.37"/>
</g>
<!-- function&#45;12&#45;Lw&#45;&gt;function&#45;12&#45;ImmVal -->
<g id="edge47" class="edge">
<title>function&#45;12&#45;Lw:s&#45;&gt;function&#45;12&#45;ImmVal</title>
<path fill="none" stroke="black" d="M1070,-174C1070,-160.76 1071.6,-146.02 1073.27,-134.24"/>
<polygon fill="black" stroke="black" points="1074.07,-137.3 1074.03,-132 1070.76,-136.16 1074.07,-137.3"/>
</g>
<!-- function&#45;12&#45;Lw&#45;&gt;function&#45;0&#45;RegVal -->
<g id="edge46" class="edge">
<title>function&#45;12&#45;Lw:s&#45;&gt;function&#45;0&#45;RegVal</title>
<path fill="none" stroke="black" d="M1054,-174C1054,-123.15 646.35,-150.75 598,-135 597.06,-134.69 596.11,-134.36 595.17,-134"/>
<polygon fill="black" stroke="black" points="595.78,-132.35 590.49,-132 594.41,-135.57 595.78,-132.35"/>
</g>
<!-- function&#45;3&#45;ImmVal -->
<g id="node1" class="node">
<title>function&#45;3&#45;ImmVal</title>
<g id="a_node1"><a xlink:title="Imm&#45;8: function&#45;3&#45;ImmVal">
<path fill="white" stroke="transparent" d="M24.67,-95C24.67,-95 65.33,-95 65.33,-95 70.67,-95 76,-100.33 76,-105.67 76,-105.67 76,-116.33 76,-116.33 76,-121.67 70.67,-127 65.33,-127 65.33,-127 24.67,-127 24.67,-127 19.33,-127 14,-121.67 14,-116.33 14,-116.33 14,-105.67 14,-105.67 14,-100.33 19.33,-95 24.67,-95"/>
<text text-anchor="start" x="19" y="-107.3" font-family="Helvetica,sans-Serif" font-size="14.00">ImmVal</text>
<path fill="none" stroke="black" d="M24.67,-95C24.67,-95 65.33,-95 65.33,-95 70.67,-95 76,-100.33 76,-105.67 76,-105.67 76,-116.33 76,-116.33 76,-121.67 70.67,-127 65.33,-127 65.33,-127 24.67,-127 24.67,-127 19.33,-127 14,-121.67 14,-116.33 14,-116.33 14,-105.67 14,-105.67 14,-100.33 19.33,-95 24.67,-95"/>
</a>
</g>
</g>
<!-- primitive&#45;i64&#45;80 -->
<g id="node2" class="node">
<title>primitive&#45;i64&#45;80</title>
<g id="a_node2"><a xlink:title="i64&#45;80: primitive&#45;i64&#45;80">
<path fill="white" stroke="transparent" d="M39.67,-16C39.67,-16 50.33,-16 50.33,-16 55.67,-16 61,-21.33 61,-26.67 61,-26.67 61,-37.33 61,-37.33 61,-42.67 55.67,-48 50.33,-48 50.33,-48 39.67,-48 39.67,-48 34.33,-48 29,-42.67 29,-37.33 29,-37.33 29,-26.67 29,-26.67 29,-21.33 34.33,-16 39.67,-16"/>
<text text-anchor="start" x="35.5" y="-28.3" font-family="Helvetica,sans-Serif" font-size="14.00">80</text>
<path fill="none" stroke="black" d="M39.67,-16C39.67,-16 50.33,-16 50.33,-16 55.67,-16 61,-21.33 61,-26.67 61,-26.67 61,-37.33 61,-37.33 61,-42.67 55.67,-48 50.33,-48 50.33,-48 39.67,-48 39.67,-48 34.33,-48 29,-42.67 29,-37.33 29,-37.33 29,-26.67 29,-26.67 29,-21.33 34.33,-16 39.67,-16"/>
</a>
</g>
</g>
<!-- function&#45;1&#45;ImmVal -->
<g id="node3" class="node">
<title>function&#45;1&#45;ImmVal</title>
<g id="a_node3"><a xlink:title="Imm&#45;4: function&#45;1&#45;ImmVal">
<path fill="white" stroke="transparent" d="M834.67,-95C834.67,-95 875.33,-95 875.33,-95 880.67,-95 886,-100.33 886,-105.67 886,-105.67 886,-116.33 886,-116.33 886,-121.67 880.67,-127 875.33,-127 875.33,-127 834.67,-127 834.67,-127 829.33,-127 824,-121.67 824,-116.33 824,-116.33 824,-105.67 824,-105.67 824,-100.33 829.33,-95 834.67,-95"/>
<text text-anchor="start" x="829" y="-107.3" font-family="Helvetica,sans-Serif" font-size="14.00">ImmVal</text>
<path fill="none" stroke="black" d="M834.67,-95C834.67,-95 875.33,-95 875.33,-95 880.67,-95 886,-100.33 886,-105.67 886,-105.67 886,-116.33 886,-116.33 886,-121.67 880.67,-127 875.33,-127 875.33,-127 834.67,-127 834.67,-127 829.33,-127 824,-121.67 824,-116.33 824,-116.33 824,-105.67 824,-105.67 824,-100.33 829.33,-95 834.67,-95"/>
</a>
</g>
</g>
<!-- primitive&#45;i64&#45;88 -->
<g id="node4" class="node">
<title>primitive&#45;i64&#45;88</title>
<g id="a_node4"><a xlink:title="i64&#45;88: primitive&#45;i64&#45;88">
<path fill="white" stroke="transparent" d="M849.67,-16C849.67,-16 860.33,-16 860.33,-16 865.67,-16 871,-21.33 871,-26.67 871,-26.67 871,-37.33 871,-37.33 871,-42.67 865.67,-48 860.33,-48 860.33,-48 849.67,-48 849.67,-48 844.33,-48 839,-42.67 839,-37.33 839,-37.33 839,-26.67 839,-26.67 839,-21.33 844.33,-16 849.67,-16"/>
<text text-anchor="start" x="845.5" y="-28.3" font-family="Helvetica,sans-Serif" font-size="14.00">88</text>
<path fill="none" stroke="black" d="M849.67,-16C849.67,-16 860.33,-16 860.33,-16 865.67,-16 871,-21.33 871,-26.67 871,-26.67 871,-37.33 871,-37.33 871,-42.67 865.67,-48 860.33,-48 860.33,-48 849.67,-48 849.67,-48 844.33,-48 839,-42.67 839,-37.33 839,-37.33 839,-26.67 839,-26.67 839,-21.33 844.33,-16 849.67,-16"/>
</a>
</g>
</g>
<!-- function&#45;5&#45;ImmVal -->
<g id="node5" class="node">
<title>function&#45;5&#45;ImmVal</title>
<g id="a_node5"><a xlink:title="Imm&#45;12: function&#45;5&#45;ImmVal">
<path fill="white" stroke="transparent" d="M982.67,-95C982.67,-95 1023.33,-95 1023.33,-95 1028.67,-95 1034,-100.33 1034,-105.67 1034,-105.67 1034,-116.33 1034,-116.33 1034,-121.67 1028.67,-127 1023.33,-127 1023.33,-127 982.67,-127 982.67,-127 977.33,-127 972,-121.67 972,-116.33 972,-116.33 972,-105.67 972,-105.67 972,-100.33 977.33,-95 982.67,-95"/>
<text text-anchor="start" x="977" y="-107.3" font-family="Helvetica,sans-Serif" font-size="14.00">ImmVal</text>
<path fill="none" stroke="black" d="M982.67,-95C982.67,-95 1023.33,-95 1023.33,-95 1028.67,-95 1034,-100.33 1034,-105.67 1034,-105.67 1034,-116.33 1034,-116.33 1034,-121.67 1028.67,-127 1023.33,-127 1023.33,-127 982.67,-127 982.67,-127 977.33,-127 972,-121.67 972,-116.33 972,-116.33 972,-105.67 972,-105.67 972,-100.33 977.33,-95 982.67,-95"/>
</a>
</g>
</g>
<!-- primitive&#45;i64&#45;72 -->
<g id="node6" class="node">
<title>primitive&#45;i64&#45;72</title>
<g id="a_node6"><a xlink:title="i64&#45;72: primitive&#45;i64&#45;72">
<path fill="white" stroke="transparent" d="M997.67,-16C997.67,-16 1008.33,-16 1008.33,-16 1013.67,-16 1019,-21.33 1019,-26.67 1019,-26.67 1019,-37.33 1019,-37.33 1019,-42.67 1013.67,-48 1008.33,-48 1008.33,-48 997.67,-48 997.67,-48 992.33,-48 987,-42.67 987,-37.33 987,-37.33 987,-26.67 987,-26.67 987,-21.33 992.33,-16 997.67,-16"/>
<text text-anchor="start" x="993.5" y="-28.3" font-family="Helvetica,sans-Serif" font-size="14.00">72</text>
<path fill="none" stroke="black" d="M997.67,-16C997.67,-16 1008.33,-16 1008.33,-16 1013.67,-16 1019,-21.33 1019,-26.67 1019,-26.67 1019,-37.33 1019,-37.33 1019,-42.67 1013.67,-48 1008.33,-48 1008.33,-48 997.67,-48 997.67,-48 992.33,-48 987,-42.67 987,-37.33 987,-37.33 987,-26.67 987,-26.67 987,-21.33 992.33,-16 997.67,-16"/>
</a>
</g>
</g>
<!-- function&#45;8&#45;ImmVal -->
<g id="node7" class="node">
<title>function&#45;8&#45;ImmVal</title>
<g id="a_node7"><a xlink:title="Imm&#45;18: function&#45;8&#45;ImmVal">
<path fill="white" stroke="transparent" d="M686.67,-95C686.67,-95 727.33,-95 727.33,-95 732.67,-95 738,-100.33 738,-105.67 738,-105.67 738,-116.33 738,-116.33 738,-121.67 732.67,-127 727.33,-127 727.33,-127 686.67,-127 686.67,-127 681.33,-127 676,-121.67 676,-116.33 676,-116.33 676,-105.67 676,-105.67 676,-100.33 681.33,-95 686.67,-95"/>
<text text-anchor="start" x="681" y="-107.3" font-family="Helvetica,sans-Serif" font-size="14.00">ImmVal</text>
<path fill="none" stroke="black" d="M686.67,-95C686.67,-95 727.33,-95 727.33,-95 732.67,-95 738,-100.33 738,-105.67 738,-105.67 738,-116.33 738,-116.33 738,-121.67 732.67,-127 727.33,-127 727.33,-127 686.67,-127 686.67,-127 681.33,-127 676,-121.67 676,-116.33 676,-116.33 676,-105.67 676,-105.67 676,-100.33 681.33,-95 686.67,-95"/>
</a>
</g>
</g>
<!-- primitive&#45;i64&#45;60 -->
<g id="node8" class="node">
<title>primitive&#45;i64&#45;60</title>
<g id="a_node8"><a xlink:title="i64&#45;60: primitive&#45;i64&#45;60">
<path fill="white" stroke="transparent" d="M701.67,-16C701.67,-16 712.33,-16 712.33,-16 717.67,-16 723,-21.33 723,-26.67 723,-26.67 723,-37.33 723,-37.33 723,-42.67 717.67,-48 712.33,-48 712.33,-48 701.67,-48 701.67,-48 696.33,-48 691,-42.67 691,-37.33 691,-37.33 691,-26.67 691,-26.67 691,-21.33 696.33,-16 701.67,-16"/>
<text text-anchor="start" x="697.5" y="-28.3" font-family="Helvetica,sans-Serif" font-size="14.00">60</text>
<path fill="none" stroke="black" d="M701.67,-16C701.67,-16 712.33,-16 712.33,-16 717.67,-16 723,-21.33 723,-26.67 723,-26.67 723,-37.33 723,-37.33 723,-42.67 717.67,-48 712.33,-48 712.33,-48 701.67,-48 701.67,-48 696.33,-48 691,-42.67 691,-37.33 691,-37.33 691,-26.67 691,-26.67 691,-21.33 696.33,-16 701.67,-16"/>
</a>
</g>
</g>
<!-- function&#45;10&#45;ImmVal -->
<g id="node9" class="node">
<title>function&#45;10&#45;ImmVal</title>
<g id="a_node9"><a xlink:title="Imm&#45;22: function&#45;10&#45;ImmVal">
<path fill="white" stroke="transparent" d="M760.67,-95C760.67,-95 801.33,-95 801.33,-95 806.67,-95 812,-100.33 812,-105.67 812,-105.67 812,-116.33 812,-116.33 812,-121.67 806.67,-127 801.33,-127 801.33,-127 760.67,-127 760.67,-127 755.33,-127 750,-121.67 750,-116.33 750,-116.33 750,-105.67 750,-105.67 750,-100.33 755.33,-95 760.67,-95"/>
<text text-anchor="start" x="755" y="-107.3" font-family="Helvetica,sans-Serif" font-size="14.00">ImmVal</text>
<path fill="none" stroke="black" d="M760.67,-95C760.67,-95 801.33,-95 801.33,-95 806.67,-95 812,-100.33 812,-105.67 812,-105.67 812,-116.33 812,-116.33 812,-121.67 806.67,-127 801.33,-127 801.33,-127 760.67,-127 760.67,-127 755.33,-127 750,-121.67 750,-116.33 750,-116.33 750,-105.67 750,-105.67 750,-100.33 755.33,-95 760.67,-95"/>
</a>
</g>
</g>
<!-- primitive&#45;i64&#45;52 -->
<g id="node10" class="node">
<title>primitive&#45;i64&#45;52</title>
<g id="a_node10"><a xlink:title="i64&#45;52: primitive&#45;i64&#45;52">
<path fill="white" stroke="transparent" d="M775.67,-16C775.67,-16 786.33,-16 786.33,-16 791.67,-16 797,-21.33 797,-26.67 797,-26.67 797,-37.33 797,-37.33 797,-42.67 791.67,-48 786.33,-48 786.33,-48 775.67,-48 775.67,-48 770.33,-48 765,-42.67 765,-37.33 765,-37.33 765,-26.67 765,-26.67 765,-21.33 770.33,-16 775.67,-16"/>
<text text-anchor="start" x="771.5" y="-28.3" font-family="Helvetica,sans-Serif" font-size="14.00">52</text>
<path fill="none" stroke="black" d="M775.67,-16C775.67,-16 786.33,-16 786.33,-16 791.67,-16 797,-21.33 797,-26.67 797,-26.67 797,-37.33 797,-37.33 797,-42.67 791.67,-48 786.33,-48 786.33,-48 775.67,-48 775.67,-48 770.33,-48 765,-42.67 765,-37.33 765,-37.33 765,-26.67 765,-26.67 765,-21.33 770.33,-16 775.67,-16"/>
</a>
</g>
</g>
<!-- function&#45;11&#45;ImmVal -->
<g id="node11" class="node">
<title>function&#45;11&#45;ImmVal</title>
<g id="a_node11"><a xlink:title="Imm&#45;24: function&#45;11&#45;ImmVal">
<path fill="white" stroke="transparent" d="M468.67,-95C468.67,-95 509.33,-95 509.33,-95 514.67,-95 520,-100.33 520,-105.67 520,-105.67 520,-116.33 520,-116.33 520,-121.67 514.67,-127 509.33,-127 509.33,-127 468.67,-127 468.67,-127 463.33,-127 458,-121.67 458,-116.33 458,-116.33 458,-105.67 458,-105.67 458,-100.33 463.33,-95 468.67,-95"/>
<text text-anchor="start" x="463" y="-107.3" font-family="Helvetica,sans-Serif" font-size="14.00">ImmVal</text>
<path fill="none" stroke="black" d="M468.67,-95C468.67,-95 509.33,-95 509.33,-95 514.67,-95 520,-100.33 520,-105.67 520,-105.67 520,-116.33 520,-116.33 520,-121.67 514.67,-127 509.33,-127 509.33,-127 468.67,-127 468.67,-127 463.33,-127 458,-121.67 458,-116.33 458,-116.33 458,-105.67 458,-105.67 458,-100.33 463.33,-95 468.67,-95"/>
</a>
</g>
</g>
<!-- primitive&#45;i64&#45;48 -->
<g id="node12" class="node">
<title>primitive&#45;i64&#45;48</title>
<g id="a_node12"><a xlink:title="i64&#45;48: primitive&#45;i64&#45;48">
<path fill="white" stroke="transparent" d="M483.67,-16C483.67,-16 494.33,-16 494.33,-16 499.67,-16 505,-21.33 505,-26.67 505,-26.67 505,-37.33 505,-37.33 505,-42.67 499.67,-48 494.33,-48 494.33,-48 483.67,-48 483.67,-48 478.33,-48 473,-42.67 473,-37.33 473,-37.33 473,-26.67 473,-26.67 473,-21.33 478.33,-16 483.67,-16"/>
<text text-anchor="start" x="479.5" y="-28.3" font-family="Helvetica,sans-Serif" font-size="14.00">48</text>
<path fill="none" stroke="black" d="M483.67,-16C483.67,-16 494.33,-16 494.33,-16 499.67,-16 505,-21.33 505,-26.67 505,-26.67 505,-37.33 505,-37.33 505,-42.67 499.67,-48 494.33,-48 494.33,-48 483.67,-48 483.67,-48 478.33,-48 473,-42.67 473,-37.33 473,-37.33 473,-26.67 473,-26.67 473,-21.33 478.33,-16 483.67,-16"/>
</a>
</g>
</g>
<!-- function&#45;9&#45;ImmVal -->
<g id="node13" class="node">
<title>function&#45;9&#45;ImmVal</title>
<g id="a_node13"><a xlink:title="Imm&#45;20: function&#45;9&#45;ImmVal">
<path fill="white" stroke="transparent" d="M612.67,-95C612.67,-95 653.33,-95 653.33,-95 658.67,-95 664,-100.33 664,-105.67 664,-105.67 664,-116.33 664,-116.33 664,-121.67 658.67,-127 653.33,-127 653.33,-127 612.67,-127 612.67,-127 607.33,-127 602,-121.67 602,-116.33 602,-116.33 602,-105.67 602,-105.67 602,-100.33 607.33,-95 612.67,-95"/>
<text text-anchor="start" x="607" y="-107.3" font-family="Helvetica,sans-Serif" font-size="14.00">ImmVal</text>
<path fill="none" stroke="black" d="M612.67,-95C612.67,-95 653.33,-95 653.33,-95 658.67,-95 664,-100.33 664,-105.67 664,-105.67 664,-116.33 664,-116.33 664,-121.67 658.67,-127 653.33,-127 653.33,-127 612.67,-127 612.67,-127 607.33,-127 602,-121.67 602,-116.33 602,-116.33 602,-105.67 602,-105.67 602,-100.33 607.33,-95 612.67,-95"/>
</a>
</g>
</g>
<!-- primitive&#45;i64&#45;56 -->
<g id="node14" class="node">
<title>primitive&#45;i64&#45;56</title>
<g id="a_node14"><a xlink:title="i64&#45;56: primitive&#45;i64&#45;56">
<path fill="white" stroke="transparent" d="M627.67,-16C627.67,-16 638.33,-16 638.33,-16 643.67,-16 649,-21.33 649,-26.67 649,-26.67 649,-37.33 649,-37.33 649,-42.67 643.67,-48 638.33,-48 638.33,-48 627.67,-48 627.67,-48 622.33,-48 617,-42.67 617,-37.33 617,-37.33 617,-26.67 617,-26.67 617,-21.33 622.33,-16 627.67,-16"/>
<text text-anchor="start" x="623.5" y="-28.3" font-family="Helvetica,sans-Serif" font-size="14.00">56</text>
<path fill="none" stroke="black" d="M627.67,-16C627.67,-16 638.33,-16 638.33,-16 643.67,-16 649,-21.33 649,-26.67 649,-26.67 649,-37.33 649,-37.33 649,-42.67 643.67,-48 638.33,-48 638.33,-48 627.67,-48 627.67,-48 622.33,-48 617,-42.67 617,-37.33 617,-37.33 617,-26.67 617,-26.67 617,-21.33 622.33,-16 627.67,-16"/>
</a>
</g>
</g>
<!-- function&#45;4&#45;ImmVal -->
<g id="node15" class="node">
<title>function&#45;4&#45;ImmVal</title>
<g id="a_node15"><a xlink:title="Imm&#45;10: function&#45;4&#45;ImmVal">
<path fill="white" stroke="transparent" d="M908.67,-95C908.67,-95 949.33,-95 949.33,-95 954.67,-95 960,-100.33 960,-105.67 960,-105.67 960,-116.33 960,-116.33 960,-121.67 954.67,-127 949.33,-127 949.33,-127 908.67,-127 908.67,-127 903.33,-127 898,-121.67 898,-116.33 898,-116.33 898,-105.67 898,-105.67 898,-100.33 903.33,-95 908.67,-95"/>
<text text-anchor="start" x="903" y="-107.3" font-family="Helvetica,sans-Serif" font-size="14.00">ImmVal</text>
<path fill="none" stroke="black" d="M908.67,-95C908.67,-95 949.33,-95 949.33,-95 954.67,-95 960,-100.33 960,-105.67 960,-105.67 960,-116.33 960,-116.33 960,-121.67 954.67,-127 949.33,-127 949.33,-127 908.67,-127 908.67,-127 903.33,-127 898,-121.67 898,-116.33 898,-116.33 898,-105.67 898,-105.67 898,-100.33 903.33,-95 908.67,-95"/>
</a>
</g>
</g>
<!-- primitive&#45;i64&#45;76 -->
<g id="node16" class="node">
<title>primitive&#45;i64&#45;76</title>
<g id="a_node16"><a xlink:title="i64&#45;76: primitive&#45;i64&#45;76">
<path fill="white" stroke="transparent" d="M923.67,-16C923.67,-16 934.33,-16 934.33,-16 939.67,-16 945,-21.33 945,-26.67 945,-26.67 945,-37.33 945,-37.33 945,-42.67 939.67,-48 934.33,-48 934.33,-48 923.67,-48 923.67,-48 918.33,-48 913,-42.67 913,-37.33 913,-37.33 913,-26.67 913,-26.67 913,-21.33 918.33,-16 923.67,-16"/>
<text text-anchor="start" x="919.5" y="-28.3" font-family="Helvetica,sans-Serif" font-size="14.00">76</text>
<path fill="none" stroke="black" d="M923.67,-16C923.67,-16 934.33,-16 934.33,-16 939.67,-16 945,-21.33 945,-26.67 945,-26.67 945,-37.33 945,-37.33 945,-42.67 939.67,-48 934.33,-48 934.33,-48 923.67,-48 923.67,-48 918.33,-48 913,-42.67 913,-37.33 913,-37.33 913,-26.67 913,-26.67 913,-21.33 918.33,-16 923.67,-16"/>
</a>
</g>
</g>
<!-- function&#45;7&#45;ImmVal -->
<g id="node17" class="node">
<title>function&#45;7&#45;ImmVal</title>
<g id="a_node17"><a xlink:title="Imm&#45;16: function&#45;7&#45;ImmVal">
<path fill="white" stroke="transparent" d="M320.67,-95C320.67,-95 361.33,-95 361.33,-95 366.67,-95 372,-100.33 372,-105.67 372,-105.67 372,-116.33 372,-116.33 372,-121.67 366.67,-127 361.33,-127 361.33,-127 320.67,-127 320.67,-127 315.33,-127 310,-121.67 310,-116.33 310,-116.33 310,-105.67 310,-105.67 310,-100.33 315.33,-95 320.67,-95"/>
<text text-anchor="start" x="315" y="-107.3" font-family="Helvetica,sans-Serif" font-size="14.00">ImmVal</text>
<path fill="none" stroke="black" d="M320.67,-95C320.67,-95 361.33,-95 361.33,-95 366.67,-95 372,-100.33 372,-105.67 372,-105.67 372,-116.33 372,-116.33 372,-121.67 366.67,-127 361.33,-127 361.33,-127 320.67,-127 320.67,-127 315.33,-127 310,-121.67 310,-116.33 310,-116.33 310,-105.67 310,-105.67 310,-100.33 315.33,-95 320.67,-95"/>
</a>
</g>
</g>
<!-- primitive&#45;i64&#45;64 -->
<g id="node18" class="node">
<title>primitive&#45;i64&#45;64</title>
<g id="a_node18"><a xlink:title="i64&#45;64: primitive&#45;i64&#45;64">
<path fill="white" stroke="transparent" d="M335.67,-16C335.67,-16 346.33,-16 346.33,-16 351.67,-16 357,-21.33 357,-26.67 357,-26.67 357,-37.33 357,-37.33 357,-42.67 351.67,-48 346.33,-48 346.33,-48 335.67,-48 335.67,-48 330.33,-48 325,-42.67 325,-37.33 325,-37.33 325,-26.67 325,-26.67 325,-21.33 330.33,-16 335.67,-16"/>
<text text-anchor="start" x="331.5" y="-28.3" font-family="Helvetica,sans-Serif" font-size="14.00">64</text>
<path fill="none" stroke="black" d="M335.67,-16C335.67,-16 346.33,-16 346.33,-16 351.67,-16 357,-21.33 357,-26.67 357,-26.67 357,-37.33 357,-37.33 357,-42.67 351.67,-48 346.33,-48 346.33,-48 335.67,-48 335.67,-48 330.33,-48 325,-42.67 325,-37.33 325,-37.33 325,-26.67 325,-26.67 325,-21.33 330.33,-16 335.67,-16"/>
</a>
</g>
</g>
<!-- function&#45;2&#45;ImmVal -->
<g id="node19" class="node">
<title>function&#45;2&#45;ImmVal</title>
<g id="a_node19"><a xlink:title="Imm&#45;6: function&#45;2&#45;ImmVal">
<path fill="white" stroke="transparent" d="M98.67,-95C98.67,-95 139.33,-95 139.33,-95 144.67,-95 150,-100.33 150,-105.67 150,-105.67 150,-116.33 150,-116.33 150,-121.67 144.67,-127 139.33,-127 139.33,-127 98.67,-127 98.67,-127 93.33,-127 88,-121.67 88,-116.33 88,-116.33 88,-105.67 88,-105.67 88,-100.33 93.33,-95 98.67,-95"/>
<text text-anchor="start" x="93" y="-107.3" font-family="Helvetica,sans-Serif" font-size="14.00">ImmVal</text>
<path fill="none" stroke="black" d="M98.67,-95C98.67,-95 139.33,-95 139.33,-95 144.67,-95 150,-100.33 150,-105.67 150,-105.67 150,-116.33 150,-116.33 150,-121.67 144.67,-127 139.33,-127 139.33,-127 98.67,-127 98.67,-127 93.33,-127 88,-121.67 88,-116.33 88,-116.33 88,-105.67 88,-105.67 88,-100.33 93.33,-95 98.67,-95"/>
</a>
</g>
</g>
<!-- primitive&#45;i64&#45;84 -->
<g id="node20" class="node">
<title>primitive&#45;i64&#45;84</title>
<g id="a_node20"><a xlink:title="i64&#45;84: primitive&#45;i64&#45;84">
<path fill="white" stroke="transparent" d="M113.67,-16C113.67,-16 124.33,-16 124.33,-16 129.67,-16 135,-21.33 135,-26.67 135,-26.67 135,-37.33 135,-37.33 135,-42.67 129.67,-48 124.33,-48 124.33,-48 113.67,-48 113.67,-48 108.33,-48 103,-42.67 103,-37.33 103,-37.33 103,-26.67 103,-26.67 103,-21.33 108.33,-16 113.67,-16"/>
<text text-anchor="start" x="109.5" y="-28.3" font-family="Helvetica,sans-Serif" font-size="14.00">84</text>
<path fill="none" stroke="black" d="M113.67,-16C113.67,-16 124.33,-16 124.33,-16 129.67,-16 135,-21.33 135,-26.67 135,-26.67 135,-37.33 135,-37.33 135,-42.67 129.67,-48 124.33,-48 124.33,-48 113.67,-48 113.67,-48 108.33,-48 103,-42.67 103,-37.33 103,-37.33 103,-26.67 103,-26.67 103,-21.33 108.33,-16 113.67,-16"/>
</a>
</g>
</g>
<!-- function&#45;12&#45;ImmVal -->
<g id="node21" class="node">
<title>function&#45;12&#45;ImmVal</title>
<g id="a_node21"><a xlink:title="Imm&#45;26: function&#45;12&#45;ImmVal">
<path fill="white" stroke="transparent" d="M1056.67,-95C1056.67,-95 1097.33,-95 1097.33,-95 1102.67,-95 1108,-100.33 1108,-105.67 1108,-105.67 1108,-116.33 1108,-116.33 1108,-121.67 1102.67,-127 1097.33,-127 1097.33,-127 1056.67,-127 1056.67,-127 1051.33,-127 1046,-121.67 1046,-116.33 1046,-116.33 1046,-105.67 1046,-105.67 1046,-100.33 1051.33,-95 1056.67,-95"/>
<text text-anchor="start" x="1051" y="-107.3" font-family="Helvetica,sans-Serif" font-size="14.00">ImmVal</text>
<path fill="none" stroke="black" d="M1056.67,-95C1056.67,-95 1097.33,-95 1097.33,-95 1102.67,-95 1108,-100.33 1108,-105.67 1108,-105.67 1108,-116.33 1108,-116.33 1108,-121.67 1102.67,-127 1097.33,-127 1097.33,-127 1056.67,-127 1056.67,-127 1051.33,-127 1046,-121.67 1046,-116.33 1046,-116.33 1046,-105.67 1046,-105.67 1046,-100.33 1051.33,-95 1056.67,-95"/>
</a>
</g>
</g>
<!-- primitive&#45;i64&#45;44 -->
<g id="node22" class="node">
<title>primitive&#45;i64&#45;44</title>
<g id="a_node22"><a xlink:title="i64&#45;44: primitive&#45;i64&#45;44">
<path fill="white" stroke="transparent" d="M1071.67,-16C1071.67,-16 1082.33,-16 1082.33,-16 1087.67,-16 1093,-21.33 1093,-26.67 1093,-26.67 1093,-37.33 1093,-37.33 1093,-42.67 1087.67,-48 1082.33,-48 1082.33,-48 1071.67,-48 1071.67,-48 1066.33,-48 1061,-42.67 1061,-37.33 1061,-37.33 1061,-26.67 1061,-26.67 1061,-21.33 1066.33,-16 1071.67,-16"/>
<text text-anchor="start" x="1067.5" y="-28.3" font-family="Helvetica,sans-Serif" font-size="14.00">44</text>
<path fill="none" stroke="black" d="M1071.67,-16C1071.67,-16 1082.33,-16 1082.33,-16 1087.67,-16 1093,-21.33 1093,-26.67 1093,-26.67 1093,-37.33 1093,-37.33 1093,-42.67 1087.67,-48 1082.33,-48 1082.33,-48 1071.67,-48 1071.67,-48 1066.33,-48 1061,-42.67 1061,-37.33 1061,-37.33 1061,-26.67 1061,-26.67 1061,-21.33 1066.33,-16 1071.67,-16"/>
</a>
</g>
</g>
<!-- function&#45;0&#45;ImmVal -->
<g id="node23" class="node">
<title>function&#45;0&#45;ImmVal</title>
<g id="a_node23"><a xlink:title="Imm&#45;2: function&#45;0&#45;ImmVal">
<path fill="white" stroke="transparent" d="M394.67,-95C394.67,-95 435.33,-95 435.33,-95 440.67,-95 446,-100.33 446,-105.67 446,-105.67 446,-116.33 446,-116.33 446,-121.67 440.67,-127 435.33,-127 435.33,-127 394.67,-127 394.67,-127 389.33,-127 384,-121.67 384,-116.33 384,-116.33 384,-105.67 384,-105.67 384,-100.33 389.33,-95 394.67,-95"/>
<text text-anchor="start" x="389" y="-107.3" font-family="Helvetica,sans-Serif" font-size="14.00">ImmVal</text>
<path fill="none" stroke="black" d="M394.67,-95C394.67,-95 435.33,-95 435.33,-95 440.67,-95 446,-100.33 446,-105.67 446,-105.67 446,-116.33 446,-116.33 446,-121.67 440.67,-127 435.33,-127 435.33,-127 394.67,-127 394.67,-127 389.33,-127 384,-121.67 384,-116.33 384,-116.33 384,-105.67 384,-105.67 384,-100.33 389.33,-95 394.67,-95"/>
</a>
</g>
</g>
<!-- primitive&#45;i64&#45;92 -->
<g id="node24" class="node">
<title>primitive&#45;i64&#45;92</title>
<g id="a_node24"><a xlink:title="i64&#45;92: primitive&#45;i64&#45;92">
<path fill="white" stroke="transparent" d="M409.67,-16C409.67,-16 420.33,-16 420.33,-16 425.67,-16 431,-21.33 431,-26.67 431,-26.67 431,-37.33 431,-37.33 431,-42.67 425.67,-48 420.33,-48 420.33,-48 409.67,-48 409.67,-48 404.33,-48 399,-42.67 399,-37.33 399,-37.33 399,-26.67 399,-26.67 399,-21.33 404.33,-16 409.67,-16"/>
<text text-anchor="start" x="405.5" y="-28.3" font-family="Helvetica,sans-Serif" font-size="14.00">92</text>
<path fill="none" stroke="black" d="M409.67,-16C409.67,-16 420.33,-16 420.33,-16 425.67,-16 431,-21.33 431,-26.67 431,-26.67 431,-37.33 431,-37.33 431,-42.67 425.67,-48 420.33,-48 420.33,-48 409.67,-48 409.67,-48 404.33,-48 399,-42.67 399,-37.33 399,-37.33 399,-26.67 399,-26.67 399,-21.33 404.33,-16 409.67,-16"/>
</a>
</g>
</g>
<!-- function&#45;13&#45;ImmVal -->
<g id="node25" class="node">
<title>function&#45;13&#45;ImmVal</title>
<g id="a_node25"><a xlink:title="Imm&#45;28: function&#45;13&#45;ImmVal">
<path fill="white" stroke="transparent" d="M1130.67,-95C1130.67,-95 1171.33,-95 1171.33,-95 1176.67,-95 1182,-100.33 1182,-105.67 1182,-105.67 1182,-116.33 1182,-116.33 1182,-121.67 1176.67,-127 1171.33,-127 1171.33,-127 1130.67,-127 1130.67,-127 1125.33,-127 1120,-121.67 1120,-116.33 1120,-116.33 1120,-105.67 1120,-105.67 1120,-100.33 1125.33,-95 1130.67,-95"/>
<text text-anchor="start" x="1125" y="-107.3" font-family="Helvetica,sans-Serif" font-size="14.00">ImmVal</text>
<path fill="none" stroke="black" d="M1130.67,-95C1130.67,-95 1171.33,-95 1171.33,-95 1176.67,-95 1182,-100.33 1182,-105.67 1182,-105.67 1182,-116.33 1182,-116.33 1182,-121.67 1176.67,-127 1171.33,-127 1171.33,-127 1130.67,-127 1130.67,-127 1125.33,-127 1120,-121.67 1120,-116.33 1120,-116.33 1120,-105.67 1120,-105.67 1120,-100.33 1125.33,-95 1130.67,-95"/>
</a>
</g>
</g>
<!-- primitive&#45;i64&#45;0 -->
<g id="node26" class="node">
<title>primitive&#45;i64&#45;0</title>
<g id="a_node26"><a xlink:title="i64&#45;0: primitive&#45;i64&#45;0">
<path fill="white" stroke="transparent" d="M1144.67,-16C1144.67,-16 1155.33,-16 1155.33,-16 1160.67,-16 1166,-21.33 1166,-26.67 1166,-26.67 1166,-37.33 1166,-37.33 1166,-42.67 1160.67,-48 1155.33,-48 1155.33,-48 1144.67,-48 1144.67,-48 1139.33,-48 1134,-42.67 1134,-37.33 1134,-37.33 1134,-26.67 1134,-26.67 1134,-21.33 1139.33,-16 1144.67,-16"/>
<text text-anchor="start" x="1145" y="-28.3" font-family="Helvetica,sans-Serif" font-size="14.00">0</text>
<path fill="none" stroke="black" d="M1144.67,-16C1144.67,-16 1155.33,-16 1155.33,-16 1160.67,-16 1166,-21.33 1166,-26.67 1166,-26.67 1166,-37.33 1166,-37.33 1166,-42.67 1160.67,-48 1155.33,-48 1155.33,-48 1144.67,-48 1144.67,-48 1139.33,-48 1134,-42.67 1134,-37.33 1134,-37.33 1134,-26.67 1134,-26.67 1134,-21.33 1139.33,-16 1144.67,-16"/>
</a>
</g>
</g>
<!-- function&#45;14&#45;ImmVal -->
<g id="node27" class="node">
<title>function&#45;14&#45;ImmVal</title>
<g id="a_node27"><a xlink:title="Imm&#45;30: function&#45;14&#45;ImmVal">
<path fill="white" stroke="transparent" d="M172.67,-95C172.67,-95 213.33,-95 213.33,-95 218.67,-95 224,-100.33 224,-105.67 224,-105.67 224,-116.33 224,-116.33 224,-121.67 218.67,-127 213.33,-127 213.33,-127 172.67,-127 172.67,-127 167.33,-127 162,-121.67 162,-116.33 162,-116.33 162,-105.67 162,-105.67 162,-100.33 167.33,-95 172.67,-95"/>
<text text-anchor="start" x="167" y="-107.3" font-family="Helvetica,sans-Serif" font-size="14.00">ImmVal</text>
<path fill="none" stroke="black" d="M172.67,-95C172.67,-95 213.33,-95 213.33,-95 218.67,-95 224,-100.33 224,-105.67 224,-105.67 224,-116.33 224,-116.33 224,-121.67 218.67,-127 213.33,-127 213.33,-127 172.67,-127 172.67,-127 167.33,-127 162,-121.67 162,-116.33 162,-116.33 162,-105.67 162,-105.67 162,-100.33 167.33,-95 172.67,-95"/>
</a>
</g>
</g>
<!-- primitive&#45;i64&#45;96 -->
<g id="node28" class="node">
<title>primitive&#45;i64&#45;96</title>
<g id="a_node28"><a xlink:title="i64&#45;96: primitive&#45;i64&#45;96">
<path fill="white" stroke="transparent" d="M187.67,-16C187.67,-16 198.33,-16 198.33,-16 203.67,-16 209,-21.33 209,-26.67 209,-26.67 209,-37.33 209,-37.33 209,-42.67 203.67,-48 198.33,-48 198.33,-48 187.67,-48 187.67,-48 182.33,-48 177,-42.67 177,-37.33 177,-37.33 177,-26.67 177,-26.67 177,-21.33 182.33,-16 187.67,-16"/>
<text text-anchor="start" x="183.5" y="-28.3" font-family="Helvetica,sans-Serif" font-size="14.00">96</text>
<path fill="none" stroke="black" d="M187.67,-16C187.67,-16 198.33,-16 198.33,-16 203.67,-16 209,-21.33 209,-26.67 209,-26.67 209,-37.33 209,-37.33 209,-42.67 203.67,-48 198.33,-48 198.33,-48 187.67,-48 187.67,-48 182.33,-48 177,-42.67 177,-37.33 177,-37.33 177,-26.67 177,-26.67 177,-21.33 182.33,-16 187.67,-16"/>
</a>
</g>
</g>
<!-- function&#45;6&#45;ImmVal -->
<g id="node29" class="node">
<title>function&#45;6&#45;ImmVal</title>
<g id="a_node29"><a xlink:title="Imm&#45;14: function&#45;6&#45;ImmVal">
<path fill="white" stroke="transparent" d="M246.67,-95C246.67,-95 287.33,-95 287.33,-95 292.67,-95 298,-100.33 298,-105.67 298,-105.67 298,-116.33 298,-116.33 298,-121.67 292.67,-127 287.33,-127 287.33,-127 246.67,-127 246.67,-127 241.33,-127 236,-121.67 236,-116.33 236,-116.33 236,-105.67 236,-105.67 236,-100.33 241.33,-95 246.67,-95"/>
<text text-anchor="start" x="241" y="-107.3" font-family="Helvetica,sans-Serif" font-size="14.00">ImmVal</text>
<path fill="none" stroke="black" d="M246.67,-95C246.67,-95 287.33,-95 287.33,-95 292.67,-95 298,-100.33 298,-105.67 298,-105.67 298,-116.33 298,-116.33 298,-121.67 292.67,-127 287.33,-127 287.33,-127 246.67,-127 246.67,-127 241.33,-127 236,-121.67 236,-116.33 236,-116.33 236,-105.67 236,-105.67 236,-100.33 241.33,-95 246.67,-95"/>
</a>
</g>
</g>
<!-- primitive&#45;i64&#45;68 -->
<g id="node30" class="node">
<title>primitive&#45;i64&#45;68</title>
<g id="a_node30"><a xlink:title="i64&#45;68: primitive&#45;i64&#45;68">
<path fill="white" stroke="transparent" d="M261.67,-16C261.67,-16 272.33,-16 272.33,-16 277.67,-16 283,-21.33 283,-26.67 283,-26.67 283,-37.33 283,-37.33 283,-42.67 277.67,-48 272.33,-48 272.33,-48 261.67,-48 261.67,-48 256.33,-48 251,-42.67 251,-37.33 251,-37.33 251,-26.67 251,-26.67 251,-21.33 256.33,-16 261.67,-16"/>
<text text-anchor="start" x="257.5" y="-28.3" font-family="Helvetica,sans-Serif" font-size="14.00">68</text>
<path fill="none" stroke="black" d="M261.67,-16C261.67,-16 272.33,-16 272.33,-16 277.67,-16 283,-21.33 283,-26.67 283,-26.67 283,-37.33 283,-37.33 283,-42.67 277.67,-48 272.33,-48 272.33,-48 261.67,-48 261.67,-48 256.33,-48 251,-42.67 251,-37.33 251,-37.33 251,-26.67 251,-26.67 251,-21.33 256.33,-16 261.67,-16"/>
</a>
</g>
</g>
<!-- function&#45;2&#45;Lw -->
<g id="node31" class="node">
<title>function&#45;2&#45;Lw</title>
<g id="a_node31"><a xlink:title="Inst&#45;7: function&#45;2&#45;Lw">
<path fill="white" stroke="transparent" d="M163.67,-174C163.67,-174 174.33,-174 174.33,-174 179.67,-174 185,-179.33 185,-184.67 185,-184.67 185,-195.33 185,-195.33 185,-200.67 179.67,-206 174.33,-206 174.33,-206 163.67,-206 163.67,-206 158.33,-206 153,-200.67 153,-195.33 153,-195.33 153,-184.67 153,-184.67 153,-179.33 158.33,-174 163.67,-174"/>
<text text-anchor="start" x="159.5" y="-186.3" font-family="Helvetica,sans-Serif" font-size="14.00">Lw</text>
<path fill="none" stroke="black" d="M163.67,-174C163.67,-174 174.33,-174 174.33,-174 179.67,-174 185,-179.33 185,-184.67 185,-184.67 185,-195.33 185,-195.33 185,-200.67 179.67,-206 174.33,-206 174.33,-206 163.67,-206 163.67,-206 158.33,-206 153,-200.67 153,-195.33 153,-195.33 153,-184.67 153,-184.67 153,-179.33 158.33,-174 163.67,-174"/>
</a>
</g>
</g>
<!-- function&#45;0&#45;RegVal -->
<g id="node32" class="node">
<title>function&#45;0&#45;RegVal</title>
<g id="a_node32"><a xlink:title="Inst&#45;0: function&#45;0&#45;RegVal">
<path fill="white" stroke="transparent" d="M543.17,-95C543.17,-95 578.83,-95 578.83,-95 584.17,-95 589.5,-100.33 589.5,-105.67 589.5,-105.67 589.5,-116.33 589.5,-116.33 589.5,-121.67 584.17,-127 578.83,-127 578.83,-127 543.17,-127 543.17,-127 537.83,-127 532.5,-121.67 532.5,-116.33 532.5,-116.33 532.5,-105.67 532.5,-105.67 532.5,-100.33 537.83,-95 543.17,-95"/>
<text text-anchor="start" x="538" y="-107.3" font-family="Helvetica,sans-Serif" font-size="14.00">RegVal</text>
<path fill="none" stroke="black" d="M543.17,-95C543.17,-95 578.83,-95 578.83,-95 584.17,-95 589.5,-100.33 589.5,-105.67 589.5,-105.67 589.5,-116.33 589.5,-116.33 589.5,-121.67 584.17,-127 578.83,-127 578.83,-127 543.17,-127 543.17,-127 537.83,-127 532.5,-121.67 532.5,-116.33 532.5,-116.33 532.5,-105.67 532.5,-105.67 532.5,-100.33 537.83,-95 543.17,-95"/>
</a>
</g>
</g>
<!-- function&#45;3&#45;Lw -->
<g id="node33" class="node">
<title>function&#45;3&#45;Lw</title>
<g id="a_node33"><a xlink:title="Inst&#45;9: function&#45;3&#45;Lw">
<path fill="white" stroke="transparent" d="M36.67,-174C36.67,-174 47.33,-174 47.33,-174 52.67,-174 58,-179.33 58,-184.67 58,-184.67 58,-195.33 58,-195.33 58,-200.67 52.67,-206 47.33,-206 47.33,-206 36.67,-206 36.67,-206 31.33,-206 26,-200.67 26,-195.33 26,-195.33 26,-184.67 26,-184.67 26,-179.33 31.33,-174 36.67,-174"/>
<text text-anchor="start" x="32.5" y="-186.3" font-family="Helvetica,sans-Serif" font-size="14.00">Lw</text>
<path fill="none" stroke="black" d="M36.67,-174C36.67,-174 47.33,-174 47.33,-174 52.67,-174 58,-179.33 58,-184.67 58,-184.67 58,-195.33 58,-195.33 58,-200.67 52.67,-206 47.33,-206 47.33,-206 36.67,-206 36.67,-206 31.33,-206 26,-200.67 26,-195.33 26,-195.33 26,-184.67 26,-184.67 26,-179.33 31.33,-174 36.67,-174"/>
</a>
</g>
</g>
<!-- function&#45;0&#45;Addi -->
<g id="node34" class="node">
<title>function&#45;0&#45;Addi</title>
<g id="a_node34"><a xlink:title="Inst&#45;29: function&#45;0&#45;Addi">
<path fill="white" stroke="transparent" d="M1176.17,-174C1176.17,-174 1195.83,-174 1195.83,-174 1201.17,-174 1206.5,-179.33 1206.5,-184.67 1206.5,-184.67 1206.5,-195.33 1206.5,-195.33 1206.5,-200.67 1201.17,-206 1195.83,-206 1195.83,-206 1176.17,-206 1176.17,-206 1170.83,-206 1165.5,-200.67 1165.5,-195.33 1165.5,-195.33 1165.5,-184.67 1165.5,-184.67 1165.5,-179.33 1170.83,-174 1176.17,-174"/>
<text text-anchor="start" x="1171" y="-186.3" font-family="Helvetica,sans-Serif" font-size="14.00">Addi</text>
<path fill="none" stroke="black" d="M1176.17,-174C1176.17,-174 1195.83,-174 1195.83,-174 1201.17,-174 1206.5,-179.33 1206.5,-184.67 1206.5,-184.67 1206.5,-195.33 1206.5,-195.33 1206.5,-200.67 1201.17,-206 1195.83,-206 1195.83,-206 1176.17,-206 1176.17,-206 1170.83,-206 1165.5,-200.67 1165.5,-195.33 1165.5,-195.33 1165.5,-184.67 1165.5,-184.67 1165.5,-179.33 1170.83,-174 1176.17,-174"/>
</a>
</g>
</g>
<!-- function&#45;1&#45;RegVal -->
<g id="node35" class="node">
<title>function&#45;1&#45;RegVal</title>
<g id="a_node35"><a xlink:title="Inst&#45;1: function&#45;1&#45;RegVal">
<path fill="white" stroke="transparent" d="M1205.17,-95C1205.17,-95 1240.83,-95 1240.83,-95 1246.17,-95 1251.5,-100.33 1251.5,-105.67 1251.5,-105.67 1251.5,-116.33 1251.5,-116.33 1251.5,-121.67 1246.17,-127 1240.83,-127 1240.83,-127 1205.17,-127 1205.17,-127 1199.83,-127 1194.5,-121.67 1194.5,-116.33 1194.5,-116.33 1194.5,-105.67 1194.5,-105.67 1194.5,-100.33 1199.83,-95 1205.17,-95"/>
<text text-anchor="start" x="1200" y="-107.3" font-family="Helvetica,sans-Serif" font-size="14.00">RegVal</text>
<path fill="none" stroke="black" d="M1205.17,-95C1205.17,-95 1240.83,-95 1240.83,-95 1246.17,-95 1251.5,-100.33 1251.5,-105.67 1251.5,-105.67 1251.5,-116.33 1251.5,-116.33 1251.5,-121.67 1246.17,-127 1240.83,-127 1240.83,-127 1205.17,-127 1205.17,-127 1199.83,-127 1194.5,-121.67 1194.5,-116.33 1194.5,-116.33 1194.5,-105.67 1194.5,-105.67 1194.5,-100.33 1199.83,-95 1205.17,-95"/>
</a>
</g>
</g>
<!-- primitive&#45;String&#45;0 -->
<g id="node36" class="node">
<title>primitive&#45;String&#45;0</title>
<g id="a_node36"><a xlink:title="String&#45;0: primitive&#45;String&#45;0">
<path fill="white" stroke="transparent" d="M544.67,-16C544.67,-16 579.33,-16 579.33,-16 584.67,-16 590,-21.33 590,-26.67 590,-26.67 590,-37.33 590,-37.33 590,-42.67 584.67,-48 579.33,-48 579.33,-48 544.67,-48 544.67,-48 539.33,-48 534,-42.67 534,-37.33 534,-37.33 534,-26.67 534,-26.67 534,-21.33 539.33,-16 544.67,-16"/>
<text text-anchor="start" x="539" y="-28.3" font-family="Helvetica,sans-Serif" font-size="14.00">&quot;sp_0&quot;</text>
<path fill="none" stroke="black" d="M544.67,-16C544.67,-16 579.33,-16 579.33,-16 584.67,-16 590,-21.33 590,-26.67 590,-26.67 590,-37.33 590,-37.33 590,-42.67 584.67,-48 579.33,-48 579.33,-48 544.67,-48 544.67,-48 539.33,-48 534,-42.67 534,-37.33 534,-37.33 534,-26.67 534,-26.67 534,-21.33 539.33,-16 544.67,-16"/>
</a>
</g>
</g>
<!-- function&#45;1&#45;Addi -->
<g id="node37" class="node">
<title>function&#45;1&#45;Addi</title>
<g id="a_node37"><a xlink:title="Inst&#45;31: function&#45;1&#45;Addi">
<path fill="white" stroke="transparent" d="M255.17,-174C255.17,-174 274.83,-174 274.83,-174 280.17,-174 285.5,-179.33 285.5,-184.67 285.5,-184.67 285.5,-195.33 285.5,-195.33 285.5,-200.67 280.17,-206 274.83,-206 274.83,-206 255.17,-206 255.17,-206 249.83,-206 244.5,-200.67 244.5,-195.33 244.5,-195.33 244.5,-184.67 244.5,-184.67 244.5,-179.33 249.83,-174 255.17,-174"/>
<text text-anchor="start" x="250" y="-186.3" font-family="Helvetica,sans-Serif" font-size="14.00">Addi</text>
<path fill="none" stroke="black" d="M255.17,-174C255.17,-174 274.83,-174 274.83,-174 280.17,-174 285.5,-179.33 285.5,-184.67 285.5,-184.67 285.5,-195.33 285.5,-195.33 285.5,-200.67 280.17,-206 274.83,-206 274.83,-206 255.17,-206 255.17,-206 249.83,-206 244.5,-200.67 244.5,-195.33 244.5,-195.33 244.5,-184.67 244.5,-184.67 244.5,-179.33 249.83,-174 255.17,-174"/>
</a>
</g>
</g>
<!-- function&#45;6&#45;Lw -->
<g id="node38" class="node">
<title>function&#45;6&#45;Lw</title>
<g id="a_node38"><a xlink:title="Inst&#45;15: function&#45;6&#45;Lw">
<path fill="white" stroke="transparent" d="M340.67,-174C340.67,-174 351.33,-174 351.33,-174 356.67,-174 362,-179.33 362,-184.67 362,-184.67 362,-195.33 362,-195.33 362,-200.67 356.67,-206 351.33,-206 351.33,-206 340.67,-206 340.67,-206 335.33,-206 330,-200.67 330,-195.33 330,-195.33 330,-184.67 330,-184.67 330,-179.33 335.33,-174 340.67,-174"/>
<text text-anchor="start" x="336.5" y="-186.3" font-family="Helvetica,sans-Serif" font-size="14.00">Lw</text>
<path fill="none" stroke="black" d="M340.67,-174C340.67,-174 351.33,-174 351.33,-174 356.67,-174 362,-179.33 362,-184.67 362,-184.67 362,-195.33 362,-195.33 362,-200.67 356.67,-206 351.33,-206 351.33,-206 340.67,-206 340.67,-206 335.33,-206 330,-200.67 330,-195.33 330,-195.33 330,-184.67 330,-184.67 330,-179.33 335.33,-174 340.67,-174"/>
</a>
</g>
</g>
<!-- function&#45;7&#45;Lw -->
<g id="node39" class="node">
<title>function&#45;7&#45;Lw</title>
<g id="a_node39"><a xlink:title="Inst&#45;17: function&#45;7&#45;Lw">
<path fill="white" stroke="transparent" d="M414.67,-174C414.67,-174 425.33,-174 425.33,-174 430.67,-174 436,-179.33 436,-184.67 436,-184.67 436,-195.33 436,-195.33 436,-200.67 430.67,-206 425.33,-206 425.33,-206 414.67,-206 414.67,-206 409.33,-206 404,-200.67 404,-195.33 404,-195.33 404,-184.67 404,-184.67 404,-179.33 409.33,-174 414.67,-174"/>
<text text-anchor="start" x="410.5" y="-186.3" font-family="Helvetica,sans-Serif" font-size="14.00">Lw</text>
<path fill="none" stroke="black" d="M414.67,-174C414.67,-174 425.33,-174 425.33,-174 430.67,-174 436,-179.33 436,-184.67 436,-184.67 436,-195.33 436,-195.33 436,-200.67 430.67,-206 425.33,-206 425.33,-206 414.67,-206 414.67,-206 409.33,-206 404,-200.67 404,-195.33 404,-195.33 404,-184.67 404,-184.67 404,-179.33 409.33,-174 414.67,-174"/>
</a>
</g>
</g>
<!-- function&#45;0&#45;Lw -->
<g id="node40" class="node">
<title>function&#45;0&#45;Lw</title>
<g id="a_node40"><a xlink:title="Inst&#45;3: function&#45;0&#45;Lw">
<path fill="white" stroke="transparent" d="M484.67,-174C484.67,-174 495.33,-174 495.33,-174 500.67,-174 506,-179.33 506,-184.67 506,-184.67 506,-195.33 506,-195.33 506,-200.67 500.67,-206 495.33,-206 495.33,-206 484.67,-206 484.67,-206 479.33,-206 474,-200.67 474,-195.33 474,-195.33 474,-184.67 474,-184.67 474,-179.33 479.33,-174 484.67,-174"/>
<text text-anchor="start" x="480.5" y="-186.3" font-family="Helvetica,sans-Serif" font-size="14.00">Lw</text>
<path fill="none" stroke="black" d="M484.67,-174C484.67,-174 495.33,-174 495.33,-174 500.67,-174 506,-179.33 506,-184.67 506,-184.67 506,-195.33 506,-195.33 506,-200.67 500.67,-206 495.33,-206 495.33,-206 484.67,-206 484.67,-206 479.33,-206 474,-200.67 474,-195.33 474,-195.33 474,-184.67 474,-184.67 474,-179.33 479.33,-174 484.67,-174"/>
</a>
</g>
</g>
<!-- function&#45;11&#45;Lw -->
<g id="node41" class="node">
<title>function&#45;11&#45;Lw</title>
<g id="a_node41"><a xlink:title="Inst&#45;25: function&#45;11&#45;Lw">
<path fill="white" stroke="transparent" d="M552.67,-174C552.67,-174 563.33,-174 563.33,-174 568.67,-174 574,-179.33 574,-184.67 574,-184.67 574,-195.33 574,-195.33 574,-200.67 568.67,-206 563.33,-206 563.33,-206 552.67,-206 552.67,-206 547.33,-206 542,-200.67 542,-195.33 542,-195.33 542,-184.67 542,-184.67 542,-179.33 547.33,-174 552.67,-174"/>
<text text-anchor="start" x="548.5" y="-186.3" font-family="Helvetica,sans-Serif" font-size="14.00">Lw</text>
<path fill="none" stroke="black" d="M552.67,-174C552.67,-174 563.33,-174 563.33,-174 568.67,-174 574,-179.33 574,-184.67 574,-184.67 574,-195.33 574,-195.33 574,-200.67 568.67,-206 563.33,-206 563.33,-206 552.67,-206 552.67,-206 547.33,-206 542,-200.67 542,-195.33 542,-195.33 542,-184.67 542,-184.67 542,-179.33 547.33,-174 552.67,-174"/>
</a>
</g>
</g>
<!-- function&#45;9&#45;Lw -->
<g id="node42" class="node">
<title>function&#45;9&#45;Lw</title>
<g id="a_node42"><a xlink:title="Inst&#45;21: function&#45;9&#45;Lw">
<path fill="white" stroke="transparent" d="M619.67,-174C619.67,-174 630.33,-174 630.33,-174 635.67,-174 641,-179.33 641,-184.67 641,-184.67 641,-195.33 641,-195.33 641,-200.67 635.67,-206 630.33,-206 630.33,-206 619.67,-206 619.67,-206 614.33,-206 609,-200.67 609,-195.33 609,-195.33 609,-184.67 609,-184.67 609,-179.33 614.33,-174 619.67,-174"/>
<text text-anchor="start" x="615.5" y="-186.3" font-family="Helvetica,sans-Serif" font-size="14.00">Lw</text>
<path fill="none" stroke="black" d="M619.67,-174C619.67,-174 630.33,-174 630.33,-174 635.67,-174 641,-179.33 641,-184.67 641,-184.67 641,-195.33 641,-195.33 641,-200.67 635.67,-206 630.33,-206 630.33,-206 619.67,-206 619.67,-206 614.33,-206 609,-200.67 609,-195.33 609,-195.33 609,-184.67 609,-184.67 609,-179.33 614.33,-174 619.67,-174"/>
</a>
</g>
</g>
<!-- function&#45;8&#45;Lw -->
<g id="node43" class="node">
<title>function&#45;8&#45;Lw</title>
<g id="a_node43"><a xlink:title="Inst&#45;19: function&#45;8&#45;Lw">
<path fill="white" stroke="transparent" d="M689.67,-174C689.67,-174 700.33,-174 700.33,-174 705.67,-174 711,-179.33 711,-184.67 711,-184.67 711,-195.33 711,-195.33 711,-200.67 705.67,-206 700.33,-206 700.33,-206 689.67,-206 689.67,-206 684.33,-206 679,-200.67 679,-195.33 679,-195.33 679,-184.67 679,-184.67 679,-179.33 684.33,-174 689.67,-174"/>
<text text-anchor="start" x="685.5" y="-186.3" font-family="Helvetica,sans-Serif" font-size="14.00">Lw</text>
<path fill="none" stroke="black" d="M689.67,-174C689.67,-174 700.33,-174 700.33,-174 705.67,-174 711,-179.33 711,-184.67 711,-184.67 711,-195.33 711,-195.33 711,-200.67 705.67,-206 700.33,-206 700.33,-206 689.67,-206 689.67,-206 684.33,-206 679,-200.67 679,-195.33 679,-195.33 679,-184.67 679,-184.67 679,-179.33 684.33,-174 689.67,-174"/>
</a>
</g>
</g>
<!-- function&#45;10&#45;Lw -->
<g id="node44" class="node">
<title>function&#45;10&#45;Lw</title>
<g id="a_node44"><a xlink:title="Inst&#45;23: function&#45;10&#45;Lw">
<path fill="white" stroke="transparent" d="M761.67,-174C761.67,-174 772.33,-174 772.33,-174 777.67,-174 783,-179.33 783,-184.67 783,-184.67 783,-195.33 783,-195.33 783,-200.67 777.67,-206 772.33,-206 772.33,-206 761.67,-206 761.67,-206 756.33,-206 751,-200.67 751,-195.33 751,-195.33 751,-184.67 751,-184.67 751,-179.33 756.33,-174 761.67,-174"/>
<text text-anchor="start" x="757.5" y="-186.3" font-family="Helvetica,sans-Serif" font-size="14.00">Lw</text>
<path fill="none" stroke="black" d="M761.67,-174C761.67,-174 772.33,-174 772.33,-174 777.67,-174 783,-179.33 783,-184.67 783,-184.67 783,-195.33 783,-195.33 783,-200.67 777.67,-206 772.33,-206 772.33,-206 761.67,-206 761.67,-206 756.33,-206 751,-200.67 751,-195.33 751,-195.33 751,-184.67 751,-184.67 751,-179.33 756.33,-174 761.67,-174"/>
</a>
</g>
</g>
<!-- primitive&#45;String&#45;1 -->
<g id="node45" class="node">
<title>primitive&#45;String&#45;1</title>
<g id="a_node45"><a xlink:title="String&#45;1: primitive&#45;String&#45;1">
<path fill="white" stroke="transparent" d="M1200.17,-16C1200.17,-16 1247.83,-16 1247.83,-16 1253.17,-16 1258.5,-21.33 1258.5,-26.67 1258.5,-26.67 1258.5,-37.33 1258.5,-37.33 1258.5,-42.67 1253.17,-48 1247.83,-48 1247.83,-48 1200.17,-48 1200.17,-48 1194.83,-48 1189.5,-42.67 1189.5,-37.33 1189.5,-37.33 1189.5,-26.67 1189.5,-26.67 1189.5,-21.33 1194.83,-16 1200.17,-16"/>
<text text-anchor="start" x="1195" y="-28.3" font-family="Helvetica,sans-Serif" font-size="14.00">&quot;zero_0&quot;</text>
<path fill="none" stroke="black" d="M1200.17,-16C1200.17,-16 1247.83,-16 1247.83,-16 1253.17,-16 1258.5,-21.33 1258.5,-26.67 1258.5,-26.67 1258.5,-37.33 1258.5,-37.33 1258.5,-42.67 1253.17,-48 1247.83,-48 1247.83,-48 1200.17,-48 1200.17,-48 1194.83,-48 1189.5,-42.67 1189.5,-37.33 1189.5,-37.33 1189.5,-26.67 1189.5,-26.67 1189.5,-21.33 1194.83,-16 1200.17,-16"/>
</a>
</g>
</g>
<!-- function&#45;1&#45;Lw -->
<g id="node46" class="node">
<title>function&#45;1&#45;Lw</title>
<g id="a_node46"><a xlink:title="Inst&#45;5: function&#45;1&#45;Lw">
<path fill="white" stroke="transparent" d="M834.67,-174C834.67,-174 845.33,-174 845.33,-174 850.67,-174 856,-179.33 856,-184.67 856,-184.67 856,-195.33 856,-195.33 856,-200.67 850.67,-206 845.33,-206 845.33,-206 834.67,-206 834.67,-206 829.33,-206 824,-200.67 824,-195.33 824,-195.33 824,-184.67 824,-184.67 824,-179.33 829.33,-174 834.67,-174"/>
<text text-anchor="start" x="830.5" y="-186.3" font-family="Helvetica,sans-Serif" font-size="14.00">Lw</text>
<path fill="none" stroke="black" d="M834.67,-174C834.67,-174 845.33,-174 845.33,-174 850.67,-174 856,-179.33 856,-184.67 856,-184.67 856,-195.33 856,-195.33 856,-200.67 850.67,-206 845.33,-206 845.33,-206 834.67,-206 834.67,-206 829.33,-206 824,-200.67 824,-195.33 824,-195.33 824,-184.67 824,-184.67 824,-179.33 829.33,-174 834.67,-174"/>
</a>
</g>
</g>
<!-- function&#45;4&#45;Lw -->
<g id="node47" class="node">
<title>function&#45;4&#45;Lw</title>
<g id="a_node47"><a xlink:title="Inst&#45;11: function&#45;4&#45;Lw">
<path fill="white" stroke="transparent" d="M908.67,-174C908.67,-174 919.33,-174 919.33,-174 924.67,-174 930,-179.33 930,-184.67 930,-184.67 930,-195.33 930,-195.33 930,-200.67 924.67,-206 919.33,-206 919.33,-206 908.67,-206 908.67,-206 903.33,-206 898,-200.67 898,-195.33 898,-195.33 898,-184.67 898,-184.67 898,-179.33 903.33,-174 908.67,-174"/>
<text text-anchor="start" x="904.5" y="-186.3" font-family="Helvetica,sans-Serif" font-size="14.00">Lw</text>
<path fill="none" stroke="black" d="M908.67,-174C908.67,-174 919.33,-174 919.33,-174 924.67,-174 930,-179.33 930,-184.67 930,-184.67 930,-195.33 930,-195.33 930,-200.67 924.67,-206 919.33,-206 919.33,-206 908.67,-206 908.67,-206 903.33,-206 898,-200.67 898,-195.33 898,-195.33 898,-184.67 898,-184.67 898,-179.33 903.33,-174 908.67,-174"/>
</a>
</g>
</g>
<!-- function&#45;5&#45;Lw -->
<g id="node48" class="node">
<title>function&#45;5&#45;Lw</title>
<g id="a_node48"><a xlink:title="Inst&#45;13: function&#45;5&#45;Lw">
<path fill="white" stroke="transparent" d="M982.67,-174C982.67,-174 993.33,-174 993.33,-174 998.67,-174 1004,-179.33 1004,-184.67 1004,-184.67 1004,-195.33 1004,-195.33 1004,-200.67 998.67,-206 993.33,-206 993.33,-206 982.67,-206 982.67,-206 977.33,-206 972,-200.67 972,-195.33 972,-195.33 972,-184.67 972,-184.67 972,-179.33 977.33,-174 982.67,-174"/>
<text text-anchor="start" x="978.5" y="-186.3" font-family="Helvetica,sans-Serif" font-size="14.00">Lw</text>
<path fill="none" stroke="black" d="M982.67,-174C982.67,-174 993.33,-174 993.33,-174 998.67,-174 1004,-179.33 1004,-184.67 1004,-184.67 1004,-195.33 1004,-195.33 1004,-200.67 998.67,-206 993.33,-206 993.33,-206 982.67,-206 982.67,-206 977.33,-206 972,-200.67 972,-195.33 972,-195.33 972,-184.67 972,-184.67 972,-179.33 977.33,-174 982.67,-174"/>
</a>
</g>
</g>
<!-- function&#45;12&#45;Lw -->
<g id="node49" class="node">
<title>function&#45;12&#45;Lw</title>
<g id="a_node49"><a xlink:title="Inst&#45;27: function&#45;12&#45;Lw">
<path fill="white" stroke="transparent" d="M1056.67,-174C1056.67,-174 1067.33,-174 1067.33,-174 1072.67,-174 1078,-179.33 1078,-184.67 1078,-184.67 1078,-195.33 1078,-195.33 1078,-200.67 1072.67,-206 1067.33,-206 1067.33,-206 1056.67,-206 1056.67,-206 1051.33,-206 1046,-200.67 1046,-195.33 1046,-195.33 1046,-184.67 1046,-184.67 1046,-179.33 1051.33,-174 1056.67,-174"/>
<text text-anchor="start" x="1052.5" y="-186.3" font-family="Helvetica,sans-Serif" font-size="14.00">Lw</text>
<path fill="none" stroke="black" d="M1056.67,-174C1056.67,-174 1067.33,-174 1067.33,-174 1072.67,-174 1078,-179.33 1078,-184.67 1078,-184.67 1078,-195.33 1078,-195.33 1078,-200.67 1072.67,-206 1067.33,-206 1067.33,-206 1056.67,-206 1056.67,-206 1051.33,-206 1046,-200.67 1046,-195.33 1046,-195.33 1046,-184.67 1046,-184.67 1046,-179.33 1051.33,-174 1056.67,-174"/>
</a>
</g>
</g>
</g>
</svg>
