<?xml version="1.0" encoding="UTF-8" standalone="no"?>
<!DOCTYPE svg PUBLIC "-//W3C//DTD SVG 1.1//EN"
 "http://www.w3.org/Graphics/SVG/1.1/DTD/svg11.dtd">
<!-- Generated by graphviz version 2.43.0 (0)
 -->
<!-- Title: %3 Pages: 1 -->
<svg width="599pt" height="388pt"
 viewBox="0.00 0.00 599.22 388.00" xmlns="http://www.w3.org/2000/svg" xmlns:xlink="http://www.w3.org/1999/xlink">
<g id="graph0" class="graph" transform="scale(1 1) rotate(0) translate(4 384)">
<title>%3</title>
<polygon fill="white" stroke="#000000" points="-4,4 -4,-384 595.22,-384 595.22,4 -4,4"/>
<g id="clust1" class="cluster">
<title>outer_cluster_Imm&#45;3</title>
</g>
<g id="clust2" class="cluster">
<title>cluster_Imm&#45;3</title>
<path fill="#ffffb3" stroke="black" stroke-dasharray="5,2" d="M197,-90C197,-90 241,-90 241,-90 247,-90 253,-96 253,-102 253,-102 253,-120 253,-120 253,-126 247,-132 241,-132 241,-132 197,-132 197,-132 191,-132 185,-126 185,-120 185,-120 185,-102 185,-102 185,-96 191,-90 197,-90"/>
</g>
<g id="clust4" class="cluster">
<title>outer_cluster_Imm&#45;5</title>
</g>
<g id="clust5" class="cluster">
<title>cluster_Imm&#45;5</title>
<path fill="#ffffb3" stroke="black" stroke-dasharray="5,2" d="M93,-169C93,-169 137,-169 137,-169 143,-169 149,-175 149,-181 149,-181 149,-199 149,-199 149,-205 143,-211 137,-211 137,-211 93,-211 93,-211 87,-211 81,-205 81,-199 81,-199 81,-181 81,-181 81,-175 87,-169 93,-169"/>
</g>
<g id="clust7" class="cluster">
<title>outer_cluster_Imm&#45;8</title>
</g>
<g id="clust8" class="cluster">
<title>cluster_Imm&#45;8</title>
<path fill="#ffffb3" stroke="black" stroke-dasharray="5,2" d="M361,-90C361,-90 405,-90 405,-90 411,-90 417,-96 417,-102 417,-102 417,-120 417,-120 417,-126 411,-132 405,-132 405,-132 361,-132 361,-132 355,-132 349,-126 349,-120 349,-120 349,-102 349,-102 349,-96 355,-90 361,-90"/>
</g>
<g id="clust10" class="cluster">
<title>outer_cluster_Inst&#45;10</title>
</g>
<g id="clust11" class="cluster">
<title>cluster_Inst&#45;10</title>
<path fill="#bebada" stroke="black" stroke-dasharray="5,2" d="M136,-248C136,-248 172,-248 172,-248 178,-248 184,-254 184,-260 184,-260 184,-278 184,-278 184,-284 178,-290 172,-290 172,-290 136,-290 136,-290 130,-290 124,-284 124,-278 124,-278 124,-260 124,-260 124,-254 130,-248 136,-248"/>
</g>
<g id="clust13" class="cluster">
<title>outer_cluster_Inst&#45;6</title>
</g>
<g id="clust14" class="cluster">
<title>cluster_Inst&#45;6</title>
<path fill="#bebada" stroke="black" stroke-dasharray="5,2" d="M41,-248C41,-248 77,-248 77,-248 83,-248 89,-254 89,-260 89,-260 89,-278 89,-278 89,-284 83,-290 77,-290 77,-290 41,-290 41,-290 35,-290 29,-284 29,-278 29,-278 29,-260 29,-260 29,-254 35,-248 41,-248"/>
</g>
<g id="clust16" class="cluster">
<title>outer_cluster_Inst&#45;0</title>
</g>
<g id="clust17" class="cluster">
<title>cluster_Inst&#45;0</title>
<path fill="#bebada" stroke="black" stroke-dasharray="5,2" d="M23,-169C23,-169 63,-169 63,-169 69,-169 75,-175 75,-181 75,-181 75,-199 75,-199 75,-205 69,-211 63,-211 63,-211 23,-211 23,-211 17,-211 11,-205 11,-199 11,-199 11,-181 11,-181 11,-175 17,-169 23,-169"/>
</g>
<g id="clust19" class="cluster">
<title>outer_cluster_Inst&#45;7</title>
</g>
<g id="clust20" class="cluster">
<title>cluster_Inst&#45;7</title>
<path fill="#bebada" stroke="black" stroke-dasharray="5,2" d="M118,-327C118,-327 270,-327 270,-327 276,-327 282,-333 282,-339 282,-339 282,-357 282,-357 282,-363 276,-369 270,-369 270,-369 118,-369 118,-369 112,-369 106,-363 106,-357 106,-357 106,-339 106,-339 106,-333 112,-327 118,-327"/>
</g>
<g id="clust22" class="cluster">
<title>outer_cluster_Inst&#45;4</title>
</g>
<g id="clust23" class="cluster">
<title>cluster_Inst&#45;4</title>
<path fill="#bebada" stroke="black" stroke-dasharray="5,2" d="M227,-169C227,-169 263,-169 263,-169 269,-169 275,-175 275,-181 275,-181 275,-199 275,-199 275,-205 269,-211 263,-211 263,-211 227,-211 227,-211 221,-211 215,-205 215,-199 215,-199 215,-181 215,-181 215,-175 221,-169 227,-169"/>
</g>
<g id="clust25" class="cluster">
<title>outer_cluster_Inst&#45;2</title>
</g>
<g id="clust26" class="cluster">
<title>cluster_Inst&#45;2</title>
<path fill="#bebada" stroke="black" stroke-dasharray="5,2" d="M488,-169C488,-169 528,-169 528,-169 534,-169 540,-175 540,-181 540,-181 540,-199 540,-199 540,-205 534,-211 528,-211 528,-211 488,-211 488,-211 482,-211 476,-205 476,-199 476,-199 476,-181 476,-181 476,-175 482,-169 488,-169"/>
</g>
<g id="clust28" class="cluster">
<title>outer_cluster_Inst&#45;9</title>
</g>
<g id="clust29" class="cluster">
<title>cluster_Inst&#45;9</title>
<path fill="#bebada" stroke="black" stroke-dasharray="5,2" d="M224,-248C224,-248 376,-248 376,-248 382,-248 388,-254 388,-260 388,-260 388,-278 388,-278 388,-284 382,-290 376,-290 376,-290 224,-290 224,-290 218,-290 212,-284 212,-278 212,-278 212,-260 212,-260 212,-254 218,-248 224,-248"/>
</g>
<g id="clust31" class="cluster">
<title>outer_cluster_Inst&#45;11</title>
</g>
<g id="clust32" class="cluster">
<title>cluster_Inst&#45;11</title>
<path fill="#bebada" stroke="black" stroke-dasharray="5,2" d="M406,-248C406,-248 558,-248 558,-248 564,-248 570,-254 570,-260 570,-260 570,-278 570,-278 570,-284 564,-290 558,-290 558,-290 406,-290 406,-290 400,-290 394,-284 394,-278 394,-278 394,-260 394,-260 394,-254 400,-248 406,-248"/>
</g>
<g id="clust34" class="cluster">
<title>outer_cluster_Inst&#45;1</title>
</g>
<g id="clust35" class="cluster">
<title>cluster_Inst&#45;1</title>
<path fill="#bebada" stroke="black" stroke-dasharray="5,2" d="M271,-90C271,-90 311,-90 311,-90 317,-90 323,-96 323,-102 323,-102 323,-120 323,-120 323,-126 317,-132 311,-132 311,-132 271,-132 271,-132 265,-132 259,-126 259,-120 259,-120 259,-102 259,-102 259,-96 265,-90 271,-90"/>
</g>
<g id="clust37" class="cluster">
<title>outer_cluster_Inst&#45;12</title>
</g>
<g id="clust38" class="cluster">
<title>cluster_Inst&#45;12</title>
<path fill="#bebada" stroke="black" stroke-dasharray="5,2" d="M365,-169C365,-169 401,-169 401,-169 407,-169 413,-175 413,-181 413,-181 413,-199 413,-199 413,-205 407,-211 401,-211 401,-211 365,-211 365,-211 359,-211 353,-205 353,-199 353,-199 353,-181 353,-181 353,-175 359,-169 365,-169"/>
</g>
<g id="clust40" class="cluster">
<title>outer_cluster_String&#45;2</title>
</g>
<g id="clust41" class="cluster">
<title>cluster_String&#45;2</title>
<path fill="#fb8072" stroke="black" stroke-dasharray="5,2" d="M483,-90C483,-90 535,-90 535,-90 541,-90 547,-96 547,-102 547,-102 547,-120 547,-120 547,-126 541,-132 535,-132 535,-132 483,-132 483,-132 477,-132 471,-126 471,-120 471,-120 471,-102 471,-102 471,-96 477,-90 483,-90"/>
</g>
<g id="clust43" class="cluster">
<title>outer_cluster_String&#45;1</title>
</g>
<g id="clust44" class="cluster">
<title>cluster_String&#45;1</title>
<path fill="#fb8072" stroke="black" stroke-dasharray="5,2" d="M273,-11C273,-11 311,-11 311,-11 317,-11 323,-17 323,-23 323,-23 323,-41 323,-41 323,-47 317,-53 311,-53 311,-53 273,-53 273,-53 267,-53 261,-47 261,-41 261,-41 261,-23 261,-23 261,-17 267,-11 273,-11"/>
</g>
<g id="clust46" class="cluster">
<title>outer_cluster_String&#45;0</title>
</g>
<g id="clust47" class="cluster">
<title>cluster_String&#45;0</title>
<path fill="#fb8072" stroke="black" stroke-dasharray="5,2" d="M24,-90C24,-90 64,-90 64,-90 70,-90 76,-96 76,-102 76,-102 76,-120 76,-120 76,-126 70,-132 64,-132 64,-132 24,-132 24,-132 18,-132 12,-126 12,-120 12,-120 12,-102 12,-102 12,-96 18,-90 24,-90"/>
</g>
<g id="clust49" class="cluster">
<title>outer_cluster_i64&#45;0</title>
</g>
<g id="clust50" class="cluster">
<title>cluster_i64&#45;0</title>
<path fill="#80b1d3" stroke="black" stroke-dasharray="5,2" d="M97,-90C97,-90 133,-90 133,-90 139,-90 145,-96 145,-102 145,-102 145,-120 145,-120 145,-126 139,-132 133,-132 133,-132 97,-132 97,-132 91,-132 85,-126 85,-120 85,-120 85,-102 85,-102 85,-96 91,-90 97,-90"/>
</g>
<g id="clust52" class="cluster">
<title>outer_cluster_i64&#45;4</title>
</g>
<g id="clust53" class="cluster">
<title>cluster_i64&#45;4</title>
<path fill="#80b1d3" stroke="black" stroke-dasharray="5,2" d="M365,-11C365,-11 401,-11 401,-11 407,-11 413,-17 413,-23 413,-23 413,-41 413,-41 413,-47 407,-53 401,-53 401,-53 365,-53 365,-53 359,-53 353,-47 353,-41 353,-41 353,-23 353,-23 353,-17 359,-11 365,-11"/>
</g>
<g id="clust55" class="cluster">
<title>outer_cluster_i64&#45;8</title>
</g>
<g id="clust56" class="cluster">
<title>cluster_i64&#45;8</title>
<path fill="#80b1d3" stroke="black" stroke-dasharray="5,2" d="M201,-11C201,-11 237,-11 237,-11 243,-11 249,-17 249,-23 249,-23 249,-41 249,-41 249,-47 243,-53 237,-53 237,-53 201,-53 201,-53 195,-53 189,-47 189,-41 189,-41 189,-23 189,-23 189,-17 195,-11 201,-11"/>
</g>
<!-- function&#45;0&#45;ImmVal&#45;&gt;primitive&#45;i64&#45;8 -->
<g id="edge1" class="edge">
<title>function&#45;0&#45;ImmVal:s&#45;&gt;primitive&#45;i64&#45;8</title>
<path fill="none" stroke="black" d="M219,-95C219,-81.84 219,-67.11 219,-55.3"/>
<polygon fill="black" stroke="black" points="220.75,-58 219,-53 217.25,-58 220.75,-58"/>
</g>
<!-- function&#45;1&#45;ImmVal&#45;&gt;primitive&#45;i64&#45;0 -->
<g id="edge2" class="edge">
<title>function&#45;1&#45;ImmVal:s&#45;&gt;primitive&#45;i64&#45;0</title>
<path fill="none" stroke="black" d="M115,-174C115,-160.84 115,-146.11 115,-134.3"/>
<polygon fill="black" stroke="black" points="116.75,-137 115,-132 113.25,-137 116.75,-137"/>
</g>
<!-- function&#45;2&#45;ImmVal&#45;&gt;primitive&#45;i64&#45;4 -->
<g id="edge3" class="edge">
<title>function&#45;2&#45;ImmVal:s&#45;&gt;primitive&#45;i64&#45;4</title>
<path fill="none" stroke="black" d="M383,-95C383,-81.84 383,-67.11 383,-55.3"/>
<polygon fill="black" stroke="black" points="384.75,-58 383,-53 381.25,-58 384.75,-58"/>
</g>
<!-- function&#45;0&#45;Jal&#45;&gt;function&#45;1&#45;ImmVal -->
<g id="edge4" class="edge">
<title>function&#45;0&#45;Jal:s&#45;&gt;function&#45;1&#45;ImmVal</title>
<path fill="none" stroke="black" d="M154,-253C154,-237.82 145.52,-223.32 136.48,-212.17"/>
<polygon fill="black" stroke="black" points="140.05,-212.95 135.13,-211 137.76,-215.6 140.05,-212.95"/>
</g>
<!-- function&#45;0&#45;Addi&#45;&gt;function&#45;1&#45;ImmVal -->
<g id="edge6" class="edge">
<title>function&#45;0&#45;Addi:s&#45;&gt;function&#45;1&#45;ImmVal</title>
<path fill="none" stroke="black" d="M69,-253C69,-237.1 78.87,-222.63 89.47,-211.67"/>
<polygon fill="black" stroke="black" points="87.14,-214.54 91.08,-211 85.79,-211.32 87.14,-214.54"/>
</g>
<!-- function&#45;0&#45;Addi&#45;&gt;function&#45;0&#45;RegVal -->
<g id="edge5" class="edge">
<title>function&#45;0&#45;Addi:s&#45;&gt;function&#45;0&#45;RegVal</title>
<path fill="none" stroke="black" d="M49,-253C49,-239.78 47.63,-225.04 46.2,-213.25"/>
<polygon fill="black" stroke="black" points="48.62,-215.31 45.54,-211 45.26,-216.29 48.62,-215.31"/>
</g>
<!-- function&#45;0&#45;RegVal&#45;&gt;primitive&#45;String&#45;0 -->
<g id="edge7" class="edge">
<title>function&#45;0&#45;RegVal:s&#45;&gt;primitive&#45;String&#45;0</title>
<path fill="none" stroke="black" d="M44,-174C44,-160.84 44,-146.11 44,-134.3"/>
<polygon fill="black" stroke="black" points="45.75,-137 44,-132 42.25,-137 45.75,-137"/>
</g>
<!-- function&#45;1&#45;Blt&#45;&gt;function&#45;1&#45;ImmVal -->
<g id="edge10" class="edge">
<title>function&#45;1&#45;Blt:s&#45;&gt;function&#45;1&#45;ImmVal</title>
<path fill="none" stroke="black" d="M263,-332C263,-267.41 164.05,-342.87 123,-293 113.32,-281.24 113.02,-239.43 113.88,-213.13"/>
<polygon fill="black" stroke="black" points="115.37,-216.13 114.06,-211 111.89,-215.83 115.37,-216.13"/>
</g>
<!-- function&#45;1&#45;Blt&#45;&gt;function&#45;0&#45;Lw -->
<g id="edge8" class="edge">
<title>function&#45;1&#45;Blt:s&#45;&gt;function&#45;0&#45;Lw</title>
<path fill="none" stroke="black" d="M244,-332C244,-309.29 218.81,-314.32 211,-293 203.66,-272.97 205.08,-265.5 211,-245 214.36,-233.37 221.04,-221.83 227.6,-212.42"/>
<polygon fill="black" stroke="black" points="226.54,-215.33 229.6,-211 224.51,-212.48 226.54,-215.33"/>
</g>
<!-- function&#45;1&#45;Blt&#45;&gt;function&#45;2&#45;RegVal -->
<g id="edge9" class="edge">
<title>function&#45;1&#45;Blt:s&#45;&gt;function&#45;2&#45;RegVal</title>
<path fill="none" stroke="black" d="M256,-332C256,-259.04 533.57,-347.57 582,-293 596.16,-277.04 591.67,-264.02 582,-245 573.38,-228.04 556.66,-215.14 541.29,-206.21"/>
<polygon fill="black" stroke="black" points="544.46,-207.42 540,-204.56 541.7,-209.58 544.46,-207.42"/>
</g>
<!-- function&#45;0&#45;Lw&#45;&gt;function&#45;0&#45;ImmVal -->
<g id="edge17" class="edge">
<title>function&#45;0&#45;Lw:s&#45;&gt;function&#45;0&#45;ImmVal</title>
<path fill="none" stroke="black" d="M253,-174C253,-159.26 245.52,-144.71 237.58,-133.41"/>
<polygon fill="black" stroke="black" points="240.95,-134.73 236.41,-132 238.25,-136.97 240.95,-134.73"/>
</g>
<!-- function&#45;0&#45;Lw&#45;&gt;function&#45;1&#45;RegVal -->
<g id="edge16" class="edge">
<title>function&#45;0&#45;Lw:s&#45;&gt;function&#45;1&#45;RegVal</title>
<path fill="none" stroke="black" d="M237,-174C237,-157.46 248.07,-143.18 260.18,-132.52"/>
<polygon fill="black" stroke="black" points="257.5,-135.67 261.32,-132 256.04,-132.49 257.5,-135.67"/>
</g>
<!-- function&#45;2&#45;RegVal&#45;&gt;primitive&#45;String&#45;2 -->
<g id="edge18" class="edge">
<title>function&#45;2&#45;RegVal:s&#45;&gt;primitive&#45;String&#45;2</title>
<path fill="none" stroke="black" d="M509,-174C509,-160.84 509,-146.11 509,-134.3"/>
<polygon fill="black" stroke="black" points="510.75,-137 509,-132 507.25,-137 510.75,-137"/>
</g>
<!-- function&#45;0&#45;Bge&#45;&gt;function&#45;1&#45;ImmVal -->
<g id="edge13" class="edge">
<title>function&#45;0&#45;Bge:s&#45;&gt;function&#45;1&#45;ImmVal</title>
<path fill="none" stroke="black" d="M208,-332C208,-285.95 137.72,-331.2 112,-293 96.09,-269.36 101.35,-235.17 107.47,-213.01"/>
<polygon fill="black" stroke="black" points="107.45,-216.11 108.86,-211 104.57,-214.11 107.45,-216.11"/>
</g>
<!-- function&#45;0&#45;Bge&#45;&gt;function&#45;0&#45;Lw -->
<g id="edge12" class="edge">
<title>function&#45;0&#45;Bge:s&#45;&gt;function&#45;0&#45;Lw</title>
<path fill="none" stroke="black" d="M199,-332C199,-293.24 191.59,-281.37 205,-245 209.38,-233.12 217.23,-221.61 224.83,-212.29"/>
<polygon fill="black" stroke="black" points="223.88,-215.83 226.05,-211 221.34,-213.42 223.88,-215.83"/>
</g>
<!-- function&#45;0&#45;Bge&#45;&gt;function&#45;2&#45;RegVal -->
<g id="edge11" class="edge">
<title>function&#45;0&#45;Bge:s&#45;&gt;function&#45;2&#45;RegVal</title>
<path fill="none" stroke="black" d="M185,-332C185,-245.79 512.82,-356.62 571,-293 585.4,-277.26 579.91,-264.38 571,-245 564.62,-231.13 552.73,-219.49 540.97,-210.61"/>
<polygon fill="black" stroke="black" points="544.57,-212.14 540,-209.46 541.91,-214.4 544.57,-212.14"/>
</g>
<!-- function&#45;0&#45;Seq2&#45;&gt;function&#45;0&#45;Jal -->
<g id="edge15" class="edge">
<title>function&#45;0&#45;Seq2:s&#45;&gt;function&#45;0&#45;Jal</title>
<path fill="none" stroke="black" d="M147,-332C147,-318.76 148.6,-304.02 150.27,-292.24"/>
<polygon fill="black" stroke="black" points="151.07,-295.3 151.03,-290 147.76,-294.16 151.07,-295.3"/>
</g>
<!-- function&#45;0&#45;Seq2&#45;&gt;function&#45;0&#45;Blt -->
<g id="edge14" class="edge">
<title>function&#45;0&#45;Seq2:s&#45;&gt;function&#45;0&#45;Blt</title>
<path fill="none" stroke="black" d="M125,-332C125,-265.69 209.34,-321.92 269,-293 269.35,-292.83 269.7,-292.66 270.04,-292.48"/>
<polygon fill="black" stroke="black" points="271.01,-293.95 274.54,-290 269.32,-290.88 271.01,-293.95"/>
</g>
<!-- function&#45;0&#45;Blt&#45;&gt;function&#45;2&#45;ImmVal -->
<g id="edge21" class="edge">
<title>function&#45;0&#45;Blt:s&#45;&gt;function&#45;2&#45;ImmVal</title>
<path fill="none" stroke="black" d="M311,-253C311,-206.3 342.72,-159.48 364.05,-133.27"/>
<polygon fill="black" stroke="black" points="362.97,-136.72 365.38,-132 360.55,-134.19 362.97,-136.72"/>
</g>
<!-- function&#45;0&#45;Blt&#45;&gt;function&#45;0&#45;Lw -->
<g id="edge20" class="edge">
<title>function&#45;0&#45;Blt:s&#45;&gt;function&#45;0&#45;Lw</title>
<path fill="none" stroke="black" d="M304,-253C304,-234.82 290.52,-219.86 276.45,-209.19"/>
<polygon fill="black" stroke="black" points="279.99,-209.79 275,-208.02 277.79,-212.52 279.99,-209.79"/>
</g>
<!-- function&#45;0&#45;Blt&#45;&gt;function&#45;2&#45;RegVal -->
<g id="edge19" class="edge">
<title>function&#45;0&#45;Blt:s&#45;&gt;function&#45;2&#45;RegVal</title>
<path fill="none" stroke="black" d="M292,-253C292,-248.32 413.63,-215.75 474.34,-199.78"/>
<polygon fill="black" stroke="black" points="473.16,-202.95 476,-198.48 470.99,-200.2 473.16,-202.95"/>
</g>
<!-- function&#45;1&#45;RegVal&#45;&gt;primitive&#45;String&#45;1 -->
<g id="edge35" class="edge">
<title>function&#45;1&#45;RegVal:s&#45;&gt;primitive&#45;String&#45;1</title>
<path fill="none" stroke="black" d="M292,-95C292,-81.84 292,-67.11 292,-55.3"/>
<polygon fill="black" stroke="black" points="293.75,-58 292,-53 290.25,-58 293.75,-58"/>
</g>
<!-- function&#45;1&#45;Bge&#45;&gt;function&#45;2&#45;ImmVal -->
<g id="edge24" class="edge">
<title>function&#45;1&#45;Bge:s&#45;&gt;function&#45;2&#45;ImmVal</title>
<path fill="none" stroke="black" d="M256,-253C256,-241.19 308.97,-174.65 317,-166 328.4,-153.72 342.63,-141.74 354.95,-132.2"/>
<polygon fill="black" stroke="black" points="351.43,-134.6 356.05,-132 350.82,-131.16 351.43,-134.6"/>
</g>
<!-- function&#45;1&#45;Bge&#45;&gt;function&#45;0&#45;Lw -->
<g id="edge22" class="edge">
<title>function&#45;1&#45;Bge:s&#45;&gt;function&#45;0&#45;Lw</title>
<path fill="none" stroke="black" d="M233,-253C233,-239.69 235.7,-225.06 238.54,-213.36"/>
<polygon fill="black" stroke="black" points="238.95,-216.22 239.84,-211 235.89,-214.53 238.95,-216.22"/>
</g>
<!-- function&#45;1&#45;Bge&#45;&gt;function&#45;2&#45;RegVal -->
<g id="edge23" class="edge">
<title>function&#45;1&#45;Bge:s&#45;&gt;function&#45;2&#45;RegVal</title>
<path fill="none" stroke="black" d="M247,-253C247,-240.91 261.31,-248.08 273,-245 335.05,-228.66 351.5,-228.51 414,-214 434.04,-209.34 456.43,-203.88 474.32,-199.44"/>
<polygon fill="black" stroke="black" points="472.99,-202.58 476,-198.22 470.93,-199.75 472.99,-202.58"/>
</g>
<!-- function&#45;1&#45;Seq2&#45;&gt;function&#45;2&#45;Blt -->
<g id="edge25" class="edge">
<title>function&#45;1&#45;Seq2:s&#45;&gt;function&#45;2&#45;Blt</title>
<path fill="none" stroke="black" d="M347,-253C347,-205.81 406.96,-202.06 449,-223.5 458.53,-228.36 465.96,-237.41 471.33,-246.17"/>
<polygon fill="black" stroke="black" points="468.37,-245.62 473.1,-248 470.88,-243.19 468.37,-245.62"/>
</g>
<!-- function&#45;1&#45;Seq2&#45;&gt;function&#45;1&#45;Jal -->
<g id="edge26" class="edge">
<title>function&#45;1&#45;Seq2:s&#45;&gt;function&#45;1&#45;Jal</title>
<path fill="none" stroke="black" d="M369,-253C369,-239.48 372.21,-224.7 375.55,-212.97"/>
<polygon fill="black" stroke="black" points="375.45,-216.07 376.98,-211 372.62,-214.01 375.45,-216.07"/>
</g>
<!-- function&#45;2&#45;Blt&#45;&gt;function&#45;2&#45;ImmVal -->
<g id="edge29" class="edge">
<title>function&#45;2&#45;Blt:s&#45;&gt;function&#45;2&#45;ImmVal</title>
<path fill="none" stroke="black" d="M493,-253C493,-229.11 471.21,-232.43 456,-214 434,-187.35 411.22,-154.54 397.08,-133.45"/>
<polygon fill="black" stroke="black" points="400.23,-133.67 395.2,-132 398.09,-136.44 400.23,-133.67"/>
</g>
<!-- function&#45;2&#45;Blt&#45;&gt;function&#45;0&#45;Lw -->
<g id="edge27" class="edge">
<title>function&#45;2&#45;Blt:s&#45;&gt;function&#45;0&#45;Lw</title>
<path fill="none" stroke="black" d="M474,-253C474,-242.93 340.44,-212.08 277.32,-198.06"/>
<polygon fill="black" stroke="black" points="280.26,-197.56 275,-196.92 278.71,-200.7 280.26,-197.56"/>
</g>
<!-- function&#45;2&#45;Blt&#45;&gt;function&#45;2&#45;RegVal -->
<g id="edge28" class="edge">
<title>function&#45;2&#45;Blt:s&#45;&gt;function&#45;2&#45;RegVal</title>
<path fill="none" stroke="black" d="M486,-253C486,-239.11 490.97,-224.42 496.18,-212.83"/>
<polygon fill="black" stroke="black" points="496.07,-216.12 497.41,-211 493.17,-214.17 496.07,-216.12"/>
</g>
<!-- function&#45;1&#45;Jal&#45;&gt;function&#45;2&#45;ImmVal -->
<g id="edge36" class="edge">
<title>function&#45;1&#45;Jal:s&#45;&gt;function&#45;2&#45;ImmVal</title>
<path fill="none" stroke="black" d="M383,-174C383,-160.84 383,-146.11 383,-134.3"/>
<polygon fill="black" stroke="black" points="384.75,-137 383,-132 381.25,-137 384.75,-137"/>
</g>
<!-- function&#45;2&#45;Bge&#45;&gt;function&#45;2&#45;ImmVal -->
<g id="edge32" class="edge">
<title>function&#45;2&#45;Bge:s&#45;&gt;function&#45;2&#45;ImmVal</title>
<path fill="none" stroke="black" d="M554,-253C554,-213.84 504.6,-239.63 475,-214 455.43,-197.06 458.99,-185.53 442,-166 431.69,-154.15 418.97,-142.23 407.99,-132.61"/>
<polygon fill="black" stroke="black" points="412.18,-133.22 407.03,-132 410.3,-136.17 412.18,-133.22"/>
</g>
<!-- function&#45;2&#45;Bge&#45;&gt;function&#45;0&#45;Lw -->
<g id="edge31" class="edge">
<title>function&#45;2&#45;Bge:s&#45;&gt;function&#45;0&#45;Lw</title>
<path fill="none" stroke="black" d="M545,-253C545,-236.61 525.04,-248.37 509,-245 439.39,-230.4 421.66,-228.36 352,-214 326.85,-208.81 298.43,-202.69 277.2,-198.07"/>
<polygon fill="black" stroke="black" points="280.26,-197.62 275,-196.99 278.72,-200.76 280.26,-197.62"/>
</g>
<!-- function&#45;2&#45;Bge&#45;&gt;function&#45;2&#45;RegVal -->
<g id="edge30" class="edge">
<title>function&#45;2&#45;Bge:s&#45;&gt;function&#45;2&#45;RegVal</title>
<path fill="none" stroke="black" d="M531,-253C531,-239.04 525.81,-224.35 520.36,-212.77"/>
<polygon fill="black" stroke="black" points="523.43,-213.94 519.02,-211 520.64,-216.05 523.43,-213.94"/>
</g>
<!-- function&#45;2&#45;Seq2&#45;&gt;function&#45;1&#45;Seq2 -->
<g id="edge33" class="edge">
<title>function&#45;2&#45;Seq2:s&#45;&gt;function&#45;1&#45;Seq2</title>
<path fill="none" stroke="black" d="M413,-253C413,-241.59 401.78,-243.91 389.57,-249.8"/>
<polygon fill="black" stroke="black" points="390.71,-246.57 388,-251.12 392.96,-249.26 390.71,-246.57"/>
</g>
<!-- function&#45;2&#45;Seq2&#45;&gt;function&#45;1&#45;Jal -->
<g id="edge34" class="edge">
<title>function&#45;2&#45;Seq2:s&#45;&gt;function&#45;1&#45;Jal</title>
<path fill="none" stroke="black" d="M435,-253C435,-236.59 424.18,-222.25 412.4,-211.5"/>
<polygon fill="black" stroke="black" points="416.65,-211.66 411.39,-211 415.09,-214.8 416.65,-211.66"/>
</g>
<!-- function&#45;0&#45;ImmVal -->
<g id="node1" class="node">
<title>function&#45;0&#45;ImmVal</title>
<g id="a_node1"><a xlink:title="Imm&#45;3: function&#45;0&#45;ImmVal">
<path fill="white" stroke="transparent" d="M198.67,-95C198.67,-95 239.33,-95 239.33,-95 244.67,-95 250,-100.33 250,-105.67 250,-105.67 250,-116.33 250,-116.33 250,-121.67 244.67,-127 239.33,-127 239.33,-127 198.67,-127 198.67,-127 193.33,-127 188,-121.67 188,-116.33 188,-116.33 188,-105.67 188,-105.67 188,-100.33 193.33,-95 198.67,-95"/>
<text text-anchor="start" x="193" y="-107.3" font-family="Helvetica,sans-Serif" font-size="14.00">ImmVal</text>
<path fill="none" stroke="black" d="M198.67,-95C198.67,-95 239.33,-95 239.33,-95 244.67,-95 250,-100.33 250,-105.67 250,-105.67 250,-116.33 250,-116.33 250,-121.67 244.67,-127 239.33,-127 239.33,-127 198.67,-127 198.67,-127 193.33,-127 188,-121.67 188,-116.33 188,-116.33 188,-105.67 188,-105.67 188,-100.33 193.33,-95 198.67,-95"/>
</a>
</g>
</g>
<!-- primitive&#45;i64&#45;8 -->
<g id="node2" class="node">
<title>primitive&#45;i64&#45;8</title>
<g id="a_node2"><a xlink:title="i64&#45;8: primitive&#45;i64&#45;8">
<path fill="white" stroke="transparent" d="M213.67,-16C213.67,-16 224.33,-16 224.33,-16 229.67,-16 235,-21.33 235,-26.67 235,-26.67 235,-37.33 235,-37.33 235,-42.67 229.67,-48 224.33,-48 224.33,-48 213.67,-48 213.67,-48 208.33,-48 203,-42.67 203,-37.33 203,-37.33 203,-26.67 203,-26.67 203,-21.33 208.33,-16 213.67,-16"/>
<text text-anchor="start" x="214" y="-28.3" font-family="Helvetica,sans-Serif" font-size="14.00">8</text>
<path fill="none" stroke="black" d="M213.67,-16C213.67,-16 224.33,-16 224.33,-16 229.67,-16 235,-21.33 235,-26.67 235,-26.67 235,-37.33 235,-37.33 235,-42.67 229.67,-48 224.33,-48 224.33,-48 213.67,-48 213.67,-48 208.33,-48 203,-42.67 203,-37.33 203,-37.33 203,-26.67 203,-26.67 203,-21.33 208.33,-16 213.67,-16"/>
</a>
</g>
</g>
<!-- function&#45;1&#45;ImmVal -->
<g id="node3" class="node">
<title>function&#45;1&#45;ImmVal</title>
<g id="a_node3"><a xlink:title="Imm&#45;5: function&#45;1&#45;ImmVal">
<path fill="white" stroke="transparent" d="M94.67,-174C94.67,-174 135.33,-174 135.33,-174 140.67,-174 146,-179.33 146,-184.67 146,-184.67 146,-195.33 146,-195.33 146,-200.67 140.67,-206 135.33,-206 135.33,-206 94.67,-206 94.67,-206 89.33,-206 84,-200.67 84,-195.33 84,-195.33 84,-184.67 84,-184.67 84,-179.33 89.33,-174 94.67,-174"/>
<text text-anchor="start" x="89" y="-186.3" font-family="Helvetica,sans-Serif" font-size="14.00">ImmVal</text>
<path fill="none" stroke="black" d="M94.67,-174C94.67,-174 135.33,-174 135.33,-174 140.67,-174 146,-179.33 146,-184.67 146,-184.67 146,-195.33 146,-195.33 146,-200.67 140.67,-206 135.33,-206 135.33,-206 94.67,-206 94.67,-206 89.33,-206 84,-200.67 84,-195.33 84,-195.33 84,-184.67 84,-184.67 84,-179.33 89.33,-174 94.67,-174"/>
</a>
</g>
</g>
<!-- primitive&#45;i64&#45;0 -->
<g id="node4" class="node">
<title>primitive&#45;i64&#45;0</title>
<g id="a_node4"><a xlink:title="i64&#45;0: primitive&#45;i64&#45;0">
<path fill="white" stroke="transparent" d="M109.67,-95C109.67,-95 120.33,-95 120.33,-95 125.67,-95 131,-100.33 131,-105.67 131,-105.67 131,-116.33 131,-116.33 131,-121.67 125.67,-127 120.33,-127 120.33,-127 109.67,-127 109.67,-127 104.33,-127 99,-121.67 99,-116.33 99,-116.33 99,-105.67 99,-105.67 99,-100.33 104.33,-95 109.67,-95"/>
<text text-anchor="start" x="110" y="-107.3" font-family="Helvetica,sans-Serif" font-size="14.00">0</text>
<path fill="none" stroke="black" d="M109.67,-95C109.67,-95 120.33,-95 120.33,-95 125.67,-95 131,-100.33 131,-105.67 131,-105.67 131,-116.33 131,-116.33 131,-121.67 125.67,-127 120.33,-127 120.33,-127 109.67,-127 109.67,-127 104.33,-127 99,-121.67 99,-116.33 99,-116.33 99,-105.67 99,-105.67 99,-100.33 104.33,-95 109.67,-95"/>
</a>
</g>
</g>
<!-- function&#45;2&#45;ImmVal -->
<g id="node5" class="node">
<title>function&#45;2&#45;ImmVal</title>
<g id="a_node5"><a xlink:title="Imm&#45;8: function&#45;2&#45;ImmVal">
<path fill="white" stroke="transparent" d="M362.67,-95C362.67,-95 403.33,-95 403.33,-95 408.67,-95 414,-100.33 414,-105.67 414,-105.67 414,-116.33 414,-116.33 414,-121.67 408.67,-127 403.33,-127 403.33,-127 362.67,-127 362.67,-127 357.33,-127 352,-121.67 352,-116.33 352,-116.33 352,-105.67 352,-105.67 352,-100.33 357.33,-95 362.67,-95"/>
<text text-anchor="start" x="357" y="-107.3" font-family="Helvetica,sans-Serif" font-size="14.00">ImmVal</text>
<path fill="none" stroke="black" d="M362.67,-95C362.67,-95 403.33,-95 403.33,-95 408.67,-95 414,-100.33 414,-105.67 414,-105.67 414,-116.33 414,-116.33 414,-121.67 408.67,-127 403.33,-127 403.33,-127 362.67,-127 362.67,-127 357.33,-127 352,-121.67 352,-116.33 352,-116.33 352,-105.67 352,-105.67 352,-100.33 357.33,-95 362.67,-95"/>
</a>
</g>
</g>
<!-- primitive&#45;i64&#45;4 -->
<g id="node6" class="node">
<title>primitive&#45;i64&#45;4</title>
<g id="a_node6"><a xlink:title="i64&#45;4: primitive&#45;i64&#45;4">
<path fill="white" stroke="transparent" d="M377.67,-16C377.67,-16 388.33,-16 388.33,-16 393.67,-16 399,-21.33 399,-26.67 399,-26.67 399,-37.33 399,-37.33 399,-42.67 393.67,-48 388.33,-48 388.33,-48 377.67,-48 377.67,-48 372.33,-48 367,-42.67 367,-37.33 367,-37.33 367,-26.67 367,-26.67 367,-21.33 372.33,-16 377.67,-16"/>
<text text-anchor="start" x="378" y="-28.3" font-family="Helvetica,sans-Serif" font-size="14.00">4</text>
<path fill="none" stroke="black" d="M377.67,-16C377.67,-16 388.33,-16 388.33,-16 393.67,-16 399,-21.33 399,-26.67 399,-26.67 399,-37.33 399,-37.33 399,-42.67 393.67,-48 388.33,-48 388.33,-48 377.67,-48 377.67,-48 372.33,-48 367,-42.67 367,-37.33 367,-37.33 367,-26.67 367,-26.67 367,-21.33 372.33,-16 377.67,-16"/>
</a>
</g>
</g>
<!-- function&#45;0&#45;Jal -->
<g id="node7" class="node">
<title>function&#45;0&#45;Jal</title>
<g id="a_node7"><a xlink:title="Inst&#45;10: function&#45;0&#45;Jal">
<path fill="white" stroke="transparent" d="M148.67,-253C148.67,-253 159.33,-253 159.33,-253 164.67,-253 170,-258.33 170,-263.67 170,-263.67 170,-274.33 170,-274.33 170,-279.67 164.67,-285 159.33,-285 159.33,-285 148.67,-285 148.67,-285 143.33,-285 138,-279.67 138,-274.33 138,-274.33 138,-263.67 138,-263.67 138,-258.33 143.33,-253 148.67,-253"/>
<text text-anchor="start" x="145.5" y="-265.3" font-family="Helvetica,sans-Serif" font-size="14.00">Jal</text>
<path fill="none" stroke="black" d="M148.67,-253C148.67,-253 159.33,-253 159.33,-253 164.67,-253 170,-258.33 170,-263.67 170,-263.67 170,-274.33 170,-274.33 170,-279.67 164.67,-285 159.33,-285 159.33,-285 148.67,-285 148.67,-285 143.33,-285 138,-279.67 138,-274.33 138,-274.33 138,-263.67 138,-263.67 138,-258.33 143.33,-253 148.67,-253"/>
</a>
</g>
</g>
<!-- function&#45;0&#45;Addi -->
<g id="node8" class="node">
<title>function&#45;0&#45;Addi</title>
<g id="a_node8"><a xlink:title="Inst&#45;6: function&#45;0&#45;Addi">
<path fill="white" stroke="transparent" d="M49.17,-253C49.17,-253 68.83,-253 68.83,-253 74.17,-253 79.5,-258.33 79.5,-263.67 79.5,-263.67 79.5,-274.33 79.5,-274.33 79.5,-279.67 74.17,-285 68.83,-285 68.83,-285 49.17,-285 49.17,-285 43.83,-285 38.5,-279.67 38.5,-274.33 38.5,-274.33 38.5,-263.67 38.5,-263.67 38.5,-258.33 43.83,-253 49.17,-253"/>
<text text-anchor="start" x="44" y="-265.3" font-family="Helvetica,sans-Serif" font-size="14.00">Addi</text>
<path fill="none" stroke="black" d="M49.17,-253C49.17,-253 68.83,-253 68.83,-253 74.17,-253 79.5,-258.33 79.5,-263.67 79.5,-263.67 79.5,-274.33 79.5,-274.33 79.5,-279.67 74.17,-285 68.83,-285 68.83,-285 49.17,-285 49.17,-285 43.83,-285 38.5,-279.67 38.5,-274.33 38.5,-274.33 38.5,-263.67 38.5,-263.67 38.5,-258.33 43.83,-253 49.17,-253"/>
</a>
</g>
</g>
<!-- function&#45;0&#45;RegVal -->
<g id="node9" class="node">
<title>function&#45;0&#45;RegVal</title>
<g id="a_node9"><a xlink:title="Inst&#45;0: function&#45;0&#45;RegVal">
<path fill="white" stroke="transparent" d="M25.17,-174C25.17,-174 60.83,-174 60.83,-174 66.17,-174 71.5,-179.33 71.5,-184.67 71.5,-184.67 71.5,-195.33 71.5,-195.33 71.5,-200.67 66.17,-206 60.83,-206 60.83,-206 25.17,-206 25.17,-206 19.83,-206 14.5,-200.67 14.5,-195.33 14.5,-195.33 14.5,-184.67 14.5,-184.67 14.5,-179.33 19.83,-174 25.17,-174"/>
<text text-anchor="start" x="20" y="-186.3" font-family="Helvetica,sans-Serif" font-size="14.00">RegVal</text>
<path fill="none" stroke="black" d="M25.17,-174C25.17,-174 60.83,-174 60.83,-174 66.17,-174 71.5,-179.33 71.5,-184.67 71.5,-184.67 71.5,-195.33 71.5,-195.33 71.5,-200.67 66.17,-206 60.83,-206 60.83,-206 25.17,-206 25.17,-206 19.83,-206 14.5,-200.67 14.5,-195.33 14.5,-195.33 14.5,-184.67 14.5,-184.67 14.5,-179.33 19.83,-174 25.17,-174"/>
</a>
</g>
</g>
<!-- primitive&#45;String&#45;0 -->
<g id="node10" class="node">
<title>primitive&#45;String&#45;0</title>
<g id="a_node10"><a xlink:title="String&#45;0: primitive&#45;String&#45;0">
<path fill="white" stroke="transparent" d="M26.17,-95C26.17,-95 61.83,-95 61.83,-95 67.17,-95 72.5,-100.33 72.5,-105.67 72.5,-105.67 72.5,-116.33 72.5,-116.33 72.5,-121.67 67.17,-127 61.83,-127 61.83,-127 26.17,-127 26.17,-127 20.83,-127 15.5,-121.67 15.5,-116.33 15.5,-116.33 15.5,-105.67 15.5,-105.67 15.5,-100.33 20.83,-95 26.17,-95"/>
<text text-anchor="start" x="21" y="-107.3" font-family="Helvetica,sans-Serif" font-size="14.00">&quot;a0_0&quot;</text>
<path fill="none" stroke="black" d="M26.17,-95C26.17,-95 61.83,-95 61.83,-95 67.17,-95 72.5,-100.33 72.5,-105.67 72.5,-105.67 72.5,-116.33 72.5,-116.33 72.5,-121.67 67.17,-127 61.83,-127 61.83,-127 26.17,-127 26.17,-127 20.83,-127 15.5,-121.67 15.5,-116.33 15.5,-116.33 15.5,-105.67 15.5,-105.67 15.5,-100.33 20.83,-95 26.17,-95"/>
</a>
</g>
</g>
<!-- function&#45;1&#45;Blt -->
<g id="node11" class="node">
<title>function&#45;1&#45;Blt</title>
<g id="a_node11"><a xlink:title="Inst&#45;7: function&#45;1&#45;Blt">
<path fill="white" stroke="transparent" d="M246.67,-332C246.67,-332 257.33,-332 257.33,-332 262.67,-332 268,-337.33 268,-342.67 268,-342.67 268,-353.33 268,-353.33 268,-358.67 262.67,-364 257.33,-364 257.33,-364 246.67,-364 246.67,-364 241.33,-364 236,-358.67 236,-353.33 236,-353.33 236,-342.67 236,-342.67 236,-337.33 241.33,-332 246.67,-332"/>
<text text-anchor="start" x="242.5" y="-344.3" font-family="Helvetica,sans-Serif" font-size="14.00">Blt</text>
<path fill="none" stroke="black" d="M246.67,-332C246.67,-332 257.33,-332 257.33,-332 262.67,-332 268,-337.33 268,-342.67 268,-342.67 268,-353.33 268,-353.33 268,-358.67 262.67,-364 257.33,-364 257.33,-364 246.67,-364 246.67,-364 241.33,-364 236,-358.67 236,-353.33 236,-353.33 236,-342.67 236,-342.67 236,-337.33 241.33,-332 246.67,-332"/>
</a>
</g>
</g>
<!-- function&#45;0&#45;Lw -->
<g id="node12" class="node">
<title>function&#45;0&#45;Lw</title>
<g id="a_node12"><a xlink:title="Inst&#45;4: function&#45;0&#45;Lw">
<path fill="white" stroke="transparent" d="M239.67,-174C239.67,-174 250.33,-174 250.33,-174 255.67,-174 261,-179.33 261,-184.67 261,-184.67 261,-195.33 261,-195.33 261,-200.67 255.67,-206 250.33,-206 250.33,-206 239.67,-206 239.67,-206 234.33,-206 229,-200.67 229,-195.33 229,-195.33 229,-184.67 229,-184.67 229,-179.33 234.33,-174 239.67,-174"/>
<text text-anchor="start" x="235.5" y="-186.3" font-family="Helvetica,sans-Serif" font-size="14.00">Lw</text>
<path fill="none" stroke="black" d="M239.67,-174C239.67,-174 250.33,-174 250.33,-174 255.67,-174 261,-179.33 261,-184.67 261,-184.67 261,-195.33 261,-195.33 261,-200.67 255.67,-206 250.33,-206 250.33,-206 239.67,-206 239.67,-206 234.33,-206 229,-200.67 229,-195.33 229,-195.33 229,-184.67 229,-184.67 229,-179.33 234.33,-174 239.67,-174"/>
</a>
</g>
</g>
<!-- function&#45;2&#45;RegVal -->
<g id="node13" class="node">
<title>function&#45;2&#45;RegVal</title>
<g id="a_node13"><a xlink:title="Inst&#45;2: function&#45;2&#45;RegVal">
<path fill="white" stroke="transparent" d="M490.17,-174C490.17,-174 525.83,-174 525.83,-174 531.17,-174 536.5,-179.33 536.5,-184.67 536.5,-184.67 536.5,-195.33 536.5,-195.33 536.5,-200.67 531.17,-206 525.83,-206 525.83,-206 490.17,-206 490.17,-206 484.83,-206 479.5,-200.67 479.5,-195.33 479.5,-195.33 479.5,-184.67 479.5,-184.67 479.5,-179.33 484.83,-174 490.17,-174"/>
<text text-anchor="start" x="485" y="-186.3" font-family="Helvetica,sans-Serif" font-size="14.00">RegVal</text>
<path fill="none" stroke="black" d="M490.17,-174C490.17,-174 525.83,-174 525.83,-174 531.17,-174 536.5,-179.33 536.5,-184.67 536.5,-184.67 536.5,-195.33 536.5,-195.33 536.5,-200.67 531.17,-206 525.83,-206 525.83,-206 490.17,-206 490.17,-206 484.83,-206 479.5,-200.67 479.5,-195.33 479.5,-195.33 479.5,-184.67 479.5,-184.67 479.5,-179.33 484.83,-174 490.17,-174"/>
</a>
</g>
</g>
<!-- function&#45;0&#45;Bge -->
<g id="node14" class="node">
<title>function&#45;0&#45;Bge</title>
<g id="a_node14"><a xlink:title="Inst&#45;7: function&#45;0&#45;Bge">
<path fill="white" stroke="transparent" d="M185.67,-332C185.67,-332 202.33,-332 202.33,-332 207.67,-332 213,-337.33 213,-342.67 213,-342.67 213,-353.33 213,-353.33 213,-358.67 207.67,-364 202.33,-364 202.33,-364 185.67,-364 185.67,-364 180.33,-364 175,-358.67 175,-353.33 175,-353.33 175,-342.67 175,-342.67 175,-337.33 180.33,-332 185.67,-332"/>
<text text-anchor="start" x="180" y="-344.3" font-family="Helvetica,sans-Serif" font-size="14.00">Bge</text>
<path fill="none" stroke="black" d="M185.67,-332C185.67,-332 202.33,-332 202.33,-332 207.67,-332 213,-337.33 213,-342.67 213,-342.67 213,-353.33 213,-353.33 213,-358.67 207.67,-364 202.33,-364 202.33,-364 185.67,-364 185.67,-364 180.33,-364 175,-358.67 175,-353.33 175,-353.33 175,-342.67 175,-342.67 175,-337.33 180.33,-332 185.67,-332"/>
</a>
</g>
</g>
<!-- function&#45;0&#45;Seq2 -->
<g id="node15" class="node">
<title>function&#45;0&#45;Seq2</title>
<g id="a_node15"><a xlink:title="Inst&#45;7: function&#45;0&#45;Seq2">
<path fill="white" stroke="transparent" d="M123.67,-332C123.67,-332 148.33,-332 148.33,-332 153.67,-332 159,-337.33 159,-342.67 159,-342.67 159,-353.33 159,-353.33 159,-358.67 153.67,-364 148.33,-364 148.33,-364 123.67,-364 123.67,-364 118.33,-364 113,-358.67 113,-353.33 113,-353.33 113,-342.67 113,-342.67 113,-337.33 118.33,-332 123.67,-332"/>
<text text-anchor="start" x="118" y="-344.3" font-family="Helvetica,sans-Serif" font-size="14.00">Seq2</text>
<path fill="none" stroke="black" d="M123.67,-332C123.67,-332 148.33,-332 148.33,-332 153.67,-332 159,-337.33 159,-342.67 159,-342.67 159,-353.33 159,-353.33 159,-358.67 153.67,-364 148.33,-364 148.33,-364 123.67,-364 123.67,-364 118.33,-364 113,-358.67 113,-353.33 113,-353.33 113,-342.67 113,-342.67 113,-337.33 118.33,-332 123.67,-332"/>
</a>
</g>
</g>
<!-- function&#45;0&#45;Blt -->
<g id="node16" class="node">
<title>function&#45;0&#45;Blt</title>
<g id="a_node16"><a xlink:title="Inst&#45;9: function&#45;0&#45;Blt">
<path fill="white" stroke="transparent" d="M294.67,-253C294.67,-253 305.33,-253 305.33,-253 310.67,-253 316,-258.33 316,-263.67 316,-263.67 316,-274.33 316,-274.33 316,-279.67 310.67,-285 305.33,-285 305.33,-285 294.67,-285 294.67,-285 289.33,-285 284,-279.67 284,-274.33 284,-274.33 284,-263.67 284,-263.67 284,-258.33 289.33,-253 294.67,-253"/>
<text text-anchor="start" x="290.5" y="-265.3" font-family="Helvetica,sans-Serif" font-size="14.00">Blt</text>
<path fill="none" stroke="black" d="M294.67,-253C294.67,-253 305.33,-253 305.33,-253 310.67,-253 316,-258.33 316,-263.67 316,-263.67 316,-274.33 316,-274.33 316,-279.67 310.67,-285 305.33,-285 305.33,-285 294.67,-285 294.67,-285 289.33,-285 284,-279.67 284,-274.33 284,-274.33 284,-263.67 284,-263.67 284,-258.33 289.33,-253 294.67,-253"/>
</a>
</g>
</g>
<!-- function&#45;1&#45;RegVal -->
<g id="node17" class="node">
<title>function&#45;1&#45;RegVal</title>
<g id="a_node17"><a xlink:title="Inst&#45;1: function&#45;1&#45;RegVal">
<path fill="white" stroke="transparent" d="M273.17,-95C273.17,-95 308.83,-95 308.83,-95 314.17,-95 319.5,-100.33 319.5,-105.67 319.5,-105.67 319.5,-116.33 319.5,-116.33 319.5,-121.67 314.17,-127 308.83,-127 308.83,-127 273.17,-127 273.17,-127 267.83,-127 262.5,-121.67 262.5,-116.33 262.5,-116.33 262.5,-105.67 262.5,-105.67 262.5,-100.33 267.83,-95 273.17,-95"/>
<text text-anchor="start" x="268" y="-107.3" font-family="Helvetica,sans-Serif" font-size="14.00">RegVal</text>
<path fill="none" stroke="black" d="M273.17,-95C273.17,-95 308.83,-95 308.83,-95 314.17,-95 319.5,-100.33 319.5,-105.67 319.5,-105.67 319.5,-116.33 319.5,-116.33 319.5,-121.67 314.17,-127 308.83,-127 308.83,-127 273.17,-127 273.17,-127 267.83,-127 262.5,-121.67 262.5,-116.33 262.5,-116.33 262.5,-105.67 262.5,-105.67 262.5,-100.33 267.83,-95 273.17,-95"/>
</a>
</g>
</g>
<!-- primitive&#45;String&#45;2 -->
<g id="node18" class="node">
<title>primitive&#45;String&#45;2</title>
<g id="a_node18"><a xlink:title="String&#45;2: primitive&#45;String&#45;2">
<path fill="white" stroke="transparent" d="M485.17,-95C485.17,-95 532.83,-95 532.83,-95 538.17,-95 543.5,-100.33 543.5,-105.67 543.5,-105.67 543.5,-116.33 543.5,-116.33 543.5,-121.67 538.17,-127 532.83,-127 532.83,-127 485.17,-127 485.17,-127 479.83,-127 474.5,-121.67 474.5,-116.33 474.5,-116.33 474.5,-105.67 474.5,-105.67 474.5,-100.33 479.83,-95 485.17,-95"/>
<text text-anchor="start" x="480" y="-107.3" font-family="Helvetica,sans-Serif" font-size="14.00">&quot;zero_0&quot;</text>
<path fill="none" stroke="black" d="M485.17,-95C485.17,-95 532.83,-95 532.83,-95 538.17,-95 543.5,-100.33 543.5,-105.67 543.5,-105.67 543.5,-116.33 543.5,-116.33 543.5,-121.67 538.17,-127 532.83,-127 532.83,-127 485.17,-127 485.17,-127 479.83,-127 474.5,-121.67 474.5,-116.33 474.5,-116.33 474.5,-105.67 474.5,-105.67 474.5,-100.33 479.83,-95 485.17,-95"/>
</a>
</g>
</g>
<!-- function&#45;1&#45;Bge -->
<g id="node19" class="node">
<title>function&#45;1&#45;Bge</title>
<g id="a_node19"><a xlink:title="Inst&#45;9: function&#45;1&#45;Bge">
<path fill="white" stroke="transparent" d="M233.67,-253C233.67,-253 250.33,-253 250.33,-253 255.67,-253 261,-258.33 261,-263.67 261,-263.67 261,-274.33 261,-274.33 261,-279.67 255.67,-285 250.33,-285 250.33,-285 233.67,-285 233.67,-285 228.33,-285 223,-279.67 223,-274.33 223,-274.33 223,-263.67 223,-263.67 223,-258.33 228.33,-253 233.67,-253"/>
<text text-anchor="start" x="228" y="-265.3" font-family="Helvetica,sans-Serif" font-size="14.00">Bge</text>
<path fill="none" stroke="black" d="M233.67,-253C233.67,-253 250.33,-253 250.33,-253 255.67,-253 261,-258.33 261,-263.67 261,-263.67 261,-274.33 261,-274.33 261,-279.67 255.67,-285 250.33,-285 250.33,-285 233.67,-285 233.67,-285 228.33,-285 223,-279.67 223,-274.33 223,-274.33 223,-263.67 223,-263.67 223,-258.33 228.33,-253 233.67,-253"/>
</a>
</g>
</g>
<!-- function&#45;1&#45;Seq2 -->
<g id="node20" class="node">
<title>function&#45;1&#45;Seq2</title>
<g id="a_node20"><a xlink:title="Inst&#45;9: function&#45;1&#45;Seq2">
<path fill="white" stroke="transparent" d="M345.67,-253C345.67,-253 370.33,-253 370.33,-253 375.67,-253 381,-258.33 381,-263.67 381,-263.67 381,-274.33 381,-274.33 381,-279.67 375.67,-285 370.33,-285 370.33,-285 345.67,-285 345.67,-285 340.33,-285 335,-279.67 335,-274.33 335,-274.33 335,-263.67 335,-263.67 335,-258.33 340.33,-253 345.67,-253"/>
<text text-anchor="start" x="340" y="-265.3" font-family="Helvetica,sans-Serif" font-size="14.00">Seq2</text>
<path fill="none" stroke="black" d="M345.67,-253C345.67,-253 370.33,-253 370.33,-253 375.67,-253 381,-258.33 381,-263.67 381,-263.67 381,-274.33 381,-274.33 381,-279.67 375.67,-285 370.33,-285 370.33,-285 345.67,-285 345.67,-285 340.33,-285 335,-279.67 335,-274.33 335,-274.33 335,-263.67 335,-263.67 335,-258.33 340.33,-253 345.67,-253"/>
</a>
</g>
</g>
<!-- function&#45;2&#45;Blt -->
<g id="node21" class="node">
<title>function&#45;2&#45;Blt</title>
<g id="a_node21"><a xlink:title="Inst&#45;11: function&#45;2&#45;Blt">
<path fill="white" stroke="transparent" d="M476.67,-253C476.67,-253 487.33,-253 487.33,-253 492.67,-253 498,-258.33 498,-263.67 498,-263.67 498,-274.33 498,-274.33 498,-279.67 492.67,-285 487.33,-285 487.33,-285 476.67,-285 476.67,-285 471.33,-285 466,-279.67 466,-274.33 466,-274.33 466,-263.67 466,-263.67 466,-258.33 471.33,-253 476.67,-253"/>
<text text-anchor="start" x="472.5" y="-265.3" font-family="Helvetica,sans-Serif" font-size="14.00">Blt</text>
<path fill="none" stroke="black" d="M476.67,-253C476.67,-253 487.33,-253 487.33,-253 492.67,-253 498,-258.33 498,-263.67 498,-263.67 498,-274.33 498,-274.33 498,-279.67 492.67,-285 487.33,-285 487.33,-285 476.67,-285 476.67,-285 471.33,-285 466,-279.67 466,-274.33 466,-274.33 466,-263.67 466,-263.67 466,-258.33 471.33,-253 476.67,-253"/>
</a>
</g>
</g>
<!-- function&#45;1&#45;Jal -->
<g id="node22" class="node">
<title>function&#45;1&#45;Jal</title>
<g id="a_node22"><a xlink:title="Inst&#45;12: function&#45;1&#45;Jal">
<path fill="white" stroke="transparent" d="M377.67,-174C377.67,-174 388.33,-174 388.33,-174 393.67,-174 399,-179.33 399,-184.67 399,-184.67 399,-195.33 399,-195.33 399,-200.67 393.67,-206 388.33,-206 388.33,-206 377.67,-206 377.67,-206 372.33,-206 367,-200.67 367,-195.33 367,-195.33 367,-184.67 367,-184.67 367,-179.33 372.33,-174 377.67,-174"/>
<text text-anchor="start" x="374.5" y="-186.3" font-family="Helvetica,sans-Serif" font-size="14.00">Jal</text>
<path fill="none" stroke="black" d="M377.67,-174C377.67,-174 388.33,-174 388.33,-174 393.67,-174 399,-179.33 399,-184.67 399,-184.67 399,-195.33 399,-195.33 399,-200.67 393.67,-206 388.33,-206 388.33,-206 377.67,-206 377.67,-206 372.33,-206 367,-200.67 367,-195.33 367,-195.33 367,-184.67 367,-184.67 367,-179.33 372.33,-174 377.67,-174"/>
</a>
</g>
</g>
<!-- function&#45;2&#45;Bge -->
<g id="node23" class="node">
<title>function&#45;2&#45;Bge</title>
<g id="a_node23"><a xlink:title="Inst&#45;11: function&#45;2&#45;Bge">
<path fill="white" stroke="transparent" d="M531.67,-253C531.67,-253 548.33,-253 548.33,-253 553.67,-253 559,-258.33 559,-263.67 559,-263.67 559,-274.33 559,-274.33 559,-279.67 553.67,-285 548.33,-285 548.33,-285 531.67,-285 531.67,-285 526.33,-285 521,-279.67 521,-274.33 521,-274.33 521,-263.67 521,-263.67 521,-258.33 526.33,-253 531.67,-253"/>
<text text-anchor="start" x="526" y="-265.3" font-family="Helvetica,sans-Serif" font-size="14.00">Bge</text>
<path fill="none" stroke="black" d="M531.67,-253C531.67,-253 548.33,-253 548.33,-253 553.67,-253 559,-258.33 559,-263.67 559,-263.67 559,-274.33 559,-274.33 559,-279.67 553.67,-285 548.33,-285 548.33,-285 531.67,-285 531.67,-285 526.33,-285 521,-279.67 521,-274.33 521,-274.33 521,-263.67 521,-263.67 521,-258.33 526.33,-253 531.67,-253"/>
</a>
</g>
</g>
<!-- function&#45;2&#45;Seq2 -->
<g id="node24" class="node">
<title>function&#45;2&#45;Seq2</title>
<g id="a_node24"><a xlink:title="Inst&#45;11: function&#45;2&#45;Seq2">
<path fill="white" stroke="transparent" d="M411.67,-253C411.67,-253 436.33,-253 436.33,-253 441.67,-253 447,-258.33 447,-263.67 447,-263.67 447,-274.33 447,-274.33 447,-279.67 441.67,-285 436.33,-285 436.33,-285 411.67,-285 411.67,-285 406.33,-285 401,-279.67 401,-274.33 401,-274.33 401,-263.67 401,-263.67 401,-258.33 406.33,-253 411.67,-253"/>
<text text-anchor="start" x="406" y="-265.3" font-family="Helvetica,sans-Serif" font-size="14.00">Seq2</text>
<path fill="none" stroke="black" d="M411.67,-253C411.67,-253 436.33,-253 436.33,-253 441.67,-253 447,-258.33 447,-263.67 447,-263.67 447,-274.33 447,-274.33 447,-279.67 441.67,-285 436.33,-285 436.33,-285 411.67,-285 411.67,-285 406.33,-285 401,-279.67 401,-274.33 401,-274.33 401,-263.67 401,-263.67 401,-258.33 406.33,-253 411.67,-253"/>
</a>
</g>
</g>
<!-- primitive&#45;String&#45;1 -->
<g id="node25" class="node">
<title>primitive&#45;String&#45;1</title>
<g id="a_node25"><a xlink:title="String&#45;1: primitive&#45;String&#45;1">
<path fill="white" stroke="transparent" d="M274.67,-16C274.67,-16 309.33,-16 309.33,-16 314.67,-16 320,-21.33 320,-26.67 320,-26.67 320,-37.33 320,-37.33 320,-42.67 314.67,-48 309.33,-48 309.33,-48 274.67,-48 274.67,-48 269.33,-48 264,-42.67 264,-37.33 264,-37.33 264,-26.67 264,-26.67 264,-21.33 269.33,-16 274.67,-16"/>
<text text-anchor="start" x="269" y="-28.3" font-family="Helvetica,sans-Serif" font-size="14.00">&quot;sp_0&quot;</text>
<path fill="none" stroke="black" d="M274.67,-16C274.67,-16 309.33,-16 309.33,-16 314.67,-16 320,-21.33 320,-26.67 320,-26.67 320,-37.33 320,-37.33 320,-42.67 314.67,-48 309.33,-48 309.33,-48 274.67,-48 274.67,-48 269.33,-48 264,-42.67 264,-37.33 264,-37.33 264,-26.67 264,-26.67 264,-21.33 269.33,-16 274.67,-16"/>
</a>
</g>
</g>
</g>
</svg>
