<?xml version="1.0" encoding="UTF-8" standalone="no"?>
<!DOCTYPE svg PUBLIC "-//W3C//DTD SVG 1.1//EN"
 "http://www.w3.org/Graphics/SVG/1.1/DTD/svg11.dtd">
<!-- Generated by graphviz version 2.43.0 (0)
 -->
<!-- Title: %3 Pages: 1 -->
<svg width="98pt" height="230pt"
 viewBox="0.00 0.00 98.00 230.00" xmlns="http://www.w3.org/2000/svg" xmlns:xlink="http://www.w3.org/1999/xlink">
<g id="graph0" class="graph" transform="scale(1 1) rotate(0) translate(4 226)">
<title>%3</title>
<polygon fill="white" stroke="#000000" points="-4,4 -4,-226 94,-226 94,4 -4,4"/>
<g id="clust1" class="cluster">
<title>outer_cluster_Imm&#45;0</title>
</g>
<g id="clust2" class="cluster">
<title>cluster_Imm&#45;0</title>
<path fill="#ffffb3" stroke="black" stroke-dasharray="5,2" d="M23,-90C23,-90 67,-90 67,-90 73,-90 79,-96 79,-102 79,-102 79,-120 79,-120 79,-126 73,-132 67,-132 67,-132 23,-132 23,-132 17,-132 11,-126 11,-120 11,-120 11,-102 11,-102 11,-96 17,-90 23,-90"/>
</g>
<g id="clust4" class="cluster">
<title>outer_cluster_Inst&#45;1</title>
</g>
<g id="clust5" class="cluster">
<title>cluster_Inst&#45;1</title>
<path fill="#bebada" stroke="black" stroke-dasharray="5,2" d="M27,-169C27,-169 63,-169 63,-169 69,-169 75,-175 75,-181 75,-181 75,-199 75,-199 75,-205 69,-211 63,-211 63,-211 27,-211 27,-211 21,-211 15,-205 15,-199 15,-199 15,-181 15,-181 15,-175 21,-169 27,-169"/>
</g>
<g id="clust7" class="cluster">
<title>outer_cluster_i64&#45;0</title>
</g>
<g id="clust8" class="cluster">
<title>cluster_i64&#45;0</title>
<path fill="#fb8072" stroke="black" stroke-dasharray="5,2" d="M27,-11C27,-11 63,-11 63,-11 69,-11 75,-17 75,-23 75,-23 75,-41 75,-41 75,-47 69,-53 63,-53 63,-53 27,-53 27,-53 21,-53 15,-47 15,-41 15,-41 15,-23 15,-23 15,-17 21,-11 27,-11"/>
</g>
<!-- function&#45;0&#45;ImmVal&#45;&gt;primitive&#45;i64&#45;0 -->
<g id="edge1" class="edge">
<title>function&#45;0&#45;ImmVal:s&#45;&gt;primitive&#45;i64&#45;0</title>
<path fill="none" stroke="black" d="M45,-95C45,-81.84 45,-67.11 45,-55.3"/>
<polygon fill="black" stroke="black" points="46.75,-58 45,-53 43.25,-58 46.75,-58"/>
</g>
<!-- function&#45;0&#45;Jal&#45;&gt;function&#45;0&#45;ImmVal -->
<g id="edge2" class="edge">
<title>function&#45;0&#45;Jal:s&#45;&gt;function&#45;0&#45;ImmVal</title>
<path fill="none" stroke="black" d="M45,-174C45,-160.84 45,-146.11 45,-134.3"/>
<polygon fill="black" stroke="black" points="46.75,-137 45,-132 43.25,-137 46.75,-137"/>
</g>
<!-- function&#45;0&#45;ImmVal -->
<g id="node1" class="node">
<title>function&#45;0&#45;ImmVal</title>
<g id="a_node1"><a xlink:title="Imm&#45;0: function&#45;0&#45;ImmVal">
<path fill="white" stroke="transparent" d="M24.67,-95C24.67,-95 65.33,-95 65.33,-95 70.67,-95 76,-100.33 76,-105.67 76,-105.67 76,-116.33 76,-116.33 76,-121.67 70.67,-127 65.33,-127 65.33,-127 24.67,-127 24.67,-127 19.33,-127 14,-121.67 14,-116.33 14,-116.33 14,-105.67 14,-105.67 14,-100.33 19.33,-95 24.67,-95"/>
<text text-anchor="start" x="19" y="-107.3" font-family="Helvetica,sans-Serif" font-size="14.00">ImmVal</text>
<path fill="none" stroke="black" d="M24.67,-95C24.67,-95 65.33,-95 65.33,-95 70.67,-95 76,-100.33 76,-105.67 76,-105.67 76,-116.33 76,-116.33 76,-121.67 70.67,-127 65.33,-127 65.33,-127 24.67,-127 24.67,-127 19.33,-127 14,-121.67 14,-116.33 14,-116.33 14,-105.67 14,-105.67 14,-100.33 19.33,-95 24.67,-95"/>
</a>
</g>
</g>
<!-- primitive&#45;i64&#45;0 -->
<g id="node2" class="node">
<title>primitive&#45;i64&#45;0</title>
<g id="a_node2"><a xlink:title="i64&#45;0: primitive&#45;i64&#45;0">
<path fill="white" stroke="transparent" d="M39.67,-16C39.67,-16 50.33,-16 50.33,-16 55.67,-16 61,-21.33 61,-26.67 61,-26.67 61,-37.33 61,-37.33 61,-42.67 55.67,-48 50.33,-48 50.33,-48 39.67,-48 39.67,-48 34.33,-48 29,-42.67 29,-37.33 29,-37.33 29,-26.67 29,-26.67 29,-21.33 34.33,-16 39.67,-16"/>
<text text-anchor="start" x="40" y="-28.3" font-family="Helvetica,sans-Serif" font-size="14.00">0</text>
<path fill="none" stroke="black" d="M39.67,-16C39.67,-16 50.33,-16 50.33,-16 55.67,-16 61,-21.33 61,-26.67 61,-26.67 61,-37.33 61,-37.33 61,-42.67 55.67,-48 50.33,-48 50.33,-48 39.67,-48 39.67,-48 34.33,-48 29,-42.67 29,-37.33 29,-37.33 29,-26.67 29,-26.67 29,-21.33 34.33,-16 39.67,-16"/>
</a>
</g>
</g>
<!-- function&#45;0&#45;Jal -->
<g id="node3" class="node">
<title>function&#45;0&#45;Jal</title>
<g id="a_node3"><a xlink:title="Inst&#45;1: function&#45;0&#45;Jal">
<path fill="white" stroke="transparent" d="M39.67,-174C39.67,-174 50.33,-174 50.33,-174 55.67,-174 61,-179.33 61,-184.67 61,-184.67 61,-195.33 61,-195.33 61,-200.67 55.67,-206 50.33,-206 50.33,-206 39.67,-206 39.67,-206 34.33,-206 29,-200.67 29,-195.33 29,-195.33 29,-184.67 29,-184.67 29,-179.33 34.33,-174 39.67,-174"/>
<text text-anchor="start" x="36.5" y="-186.3" font-family="Helvetica,sans-Serif" font-size="14.00">Jal</text>
<path fill="none" stroke="black" d="M39.67,-174C39.67,-174 50.33,-174 50.33,-174 55.67,-174 61,-179.33 61,-184.67 61,-184.67 61,-195.33 61,-195.33 61,-200.67 55.67,-206 50.33,-206 50.33,-206 39.67,-206 39.67,-206 34.33,-206 29,-200.67 29,-195.33 29,-195.33 29,-184.67 29,-184.67 29,-179.33 34.33,-174 39.67,-174"/>
</a>
</g>
</g>
</g>
</svg>
