<?xml version="1.0" encoding="UTF-8" standalone="no"?>
<!DOCTYPE svg PUBLIC "-//W3C//DTD SVG 1.1//EN"
 "http://www.w3.org/Graphics/SVG/1.1/DTD/svg11.dtd">
<!-- Generated by graphviz version 2.43.0 (0)
 -->
<!-- Title: %3 Pages: 1 -->
<svg width="508pt" height="388pt"
 viewBox="0.00 0.00 507.61 388.00" xmlns="http://www.w3.org/2000/svg" xmlns:xlink="http://www.w3.org/1999/xlink">
<g id="graph0" class="graph" transform="scale(1 1) rotate(0) translate(4 384)">
<title>%3</title>
<polygon fill="white" stroke="#000000" points="-4,4 -4,-384 503.61,-384 503.61,4 -4,4"/>
<g id="clust1" class="cluster">
<title>outer_cluster_Imm&#45;4</title>
</g>
<g id="clust2" class="cluster">
<title>cluster_Imm&#45;4</title>
<path fill="#ffffb3" stroke="black" stroke-dasharray="5,2" d="M220.61,-90C220.61,-90 264.61,-90 264.61,-90 270.61,-90 276.61,-96 276.61,-102 276.61,-102 276.61,-120 276.61,-120 276.61,-126 270.61,-132 264.61,-132 264.61,-132 220.61,-132 220.61,-132 214.61,-132 208.61,-126 208.61,-120 208.61,-120 208.61,-102 208.61,-102 208.61,-96 214.61,-90 220.61,-90"/>
</g>
<g id="clust4" class="cluster">
<title>outer_cluster_Imm&#45;2</title>
</g>
<g id="clust5" class="cluster">
<title>cluster_Imm&#45;2</title>
<path fill="#ffffb3" stroke="black" stroke-dasharray="5,2" d="M364.61,-90C364.61,-90 408.61,-90 408.61,-90 414.61,-90 420.61,-96 420.61,-102 420.61,-102 420.61,-120 420.61,-120 420.61,-126 414.61,-132 408.61,-132 408.61,-132 364.61,-132 364.61,-132 358.61,-132 352.61,-126 352.61,-120 352.61,-120 352.61,-102 352.61,-102 352.61,-96 358.61,-90 364.61,-90"/>
</g>
<g id="clust7" class="cluster">
<title>outer_cluster_Imm&#45;8</title>
</g>
<g id="clust8" class="cluster">
<title>cluster_Imm&#45;8</title>
<path fill="#ffffb3" stroke="black" stroke-dasharray="5,2" d="M146.61,-90C146.61,-90 190.61,-90 190.61,-90 196.61,-90 202.61,-96 202.61,-102 202.61,-102 202.61,-120 202.61,-120 202.61,-126 196.61,-132 190.61,-132 190.61,-132 146.61,-132 146.61,-132 140.61,-132 134.61,-126 134.61,-120 134.61,-120 134.61,-102 134.61,-102 134.61,-96 140.61,-90 146.61,-90"/>
</g>
<g id="clust10" class="cluster">
<title>outer_cluster_Imm&#45;6</title>
</g>
<g id="clust11" class="cluster">
<title>cluster_Imm&#45;6</title>
<path fill="#ffffb3" stroke="black" stroke-dasharray="5,2" d="M432.61,-169C432.61,-169 476.61,-169 476.61,-169 482.61,-169 488.61,-175 488.61,-181 488.61,-181 488.61,-199 488.61,-199 488.61,-205 482.61,-211 476.61,-211 476.61,-211 432.61,-211 432.61,-211 426.61,-211 420.61,-205 420.61,-199 420.61,-199 420.61,-181 420.61,-181 420.61,-175 426.61,-169 432.61,-169"/>
</g>
<g id="clust13" class="cluster">
<title>outer_cluster_Inst&#45;9</title>
</g>
<g id="clust14" class="cluster">
<title>cluster_Inst&#45;9</title>
<path fill="#bebada" stroke="black" stroke-dasharray="5,2" d="M214.61,-248C214.61,-248 366.61,-248 366.61,-248 372.61,-248 378.61,-254 378.61,-260 378.61,-260 378.61,-278 378.61,-278 378.61,-284 372.61,-290 366.61,-290 366.61,-290 214.61,-290 214.61,-290 208.61,-290 202.61,-284 202.61,-278 202.61,-278 202.61,-260 202.61,-260 202.61,-254 208.61,-248 214.61,-248"/>
</g>
<g id="clust16" class="cluster">
<title>outer_cluster_Inst&#45;0</title>
</g>
<g id="clust17" class="cluster">
<title>cluster_Inst&#45;0</title>
<path fill="#bebada" stroke="black" stroke-dasharray="5,2" d="M38.61,-169C38.61,-169 78.61,-169 78.61,-169 84.61,-169 90.61,-175 90.61,-181 90.61,-181 90.61,-199 90.61,-199 90.61,-205 84.61,-211 78.61,-211 78.61,-211 38.61,-211 38.61,-211 32.61,-211 26.61,-205 26.61,-199 26.61,-199 26.61,-181 26.61,-181 26.61,-175 32.61,-169 38.61,-169"/>
</g>
<g id="clust19" class="cluster">
<title>outer_cluster_Inst&#45;10</title>
</g>
<g id="clust20" class="cluster">
<title>cluster_Inst&#45;10</title>
<path fill="#bebada" stroke="black" stroke-dasharray="5,2" d="M428.61,-248C428.61,-248 464.61,-248 464.61,-248 470.61,-248 476.61,-254 476.61,-260 476.61,-260 476.61,-278 476.61,-278 476.61,-284 470.61,-290 464.61,-290 464.61,-290 428.61,-290 428.61,-290 422.61,-290 416.61,-284 416.61,-278 416.61,-278 416.61,-260 416.61,-260 416.61,-254 422.61,-248 428.61,-248"/>
</g>
<g id="clust22" class="cluster">
<title>outer_cluster_Inst&#45;3</title>
</g>
<g id="clust23" class="cluster">
<title>cluster_Inst&#45;3</title>
<path fill="#bebada" stroke="black" stroke-dasharray="5,2" d="M333.61,-169C333.61,-169 369.61,-169 369.61,-169 375.61,-169 381.61,-175 381.61,-181 381.61,-181 381.61,-199 381.61,-199 381.61,-205 375.61,-211 369.61,-211 369.61,-211 333.61,-211 333.61,-211 327.61,-211 321.61,-205 321.61,-199 321.61,-199 321.61,-181 321.61,-181 321.61,-175 327.61,-169 333.61,-169"/>
</g>
<g id="clust25" class="cluster">
<title>outer_cluster_Inst&#45;12</title>
</g>
<g id="clust26" class="cluster">
<title>cluster_Inst&#45;12</title>
<path fill="#bebada" stroke="black" stroke-dasharray="5,2" d="M32.61,-248C32.61,-248 184.61,-248 184.61,-248 190.61,-248 196.61,-254 196.61,-260 196.61,-260 196.61,-278 196.61,-278 196.61,-284 190.61,-290 184.61,-290 184.61,-290 32.61,-290 32.61,-290 26.61,-290 20.61,-284 20.61,-278 20.61,-278 20.61,-260 20.61,-260 20.61,-254 26.61,-248 32.61,-248"/>
</g>
<g id="clust28" class="cluster">
<title>outer_cluster_Inst&#45;13</title>
</g>
<g id="clust29" class="cluster">
<title>cluster_Inst&#45;13</title>
<path fill="#bebada" stroke="black" stroke-dasharray="5,2" d="M159.61,-169C159.61,-169 195.61,-169 195.61,-169 201.61,-169 207.61,-175 207.61,-181 207.61,-181 207.61,-199 207.61,-199 207.61,-205 201.61,-211 195.61,-211 195.61,-211 159.61,-211 159.61,-211 153.61,-211 147.61,-205 147.61,-199 147.61,-199 147.61,-181 147.61,-181 147.61,-175 153.61,-169 159.61,-169"/>
</g>
<g id="clust31" class="cluster">
<title>outer_cluster_Inst&#45;7</title>
</g>
<g id="clust32" class="cluster">
<title>cluster_Inst&#45;7</title>
<path fill="#bebada" stroke="black" stroke-dasharray="5,2" d="M299.61,-327C299.61,-327 451.61,-327 451.61,-327 457.61,-327 463.61,-333 463.61,-339 463.61,-339 463.61,-357 463.61,-357 463.61,-363 457.61,-369 451.61,-369 451.61,-369 299.61,-369 299.61,-369 293.61,-369 287.61,-363 287.61,-357 287.61,-357 287.61,-339 287.61,-339 287.61,-333 293.61,-327 299.61,-327"/>
</g>
<g id="clust34" class="cluster">
<title>outer_cluster_Inst&#45;1</title>
</g>
<g id="clust35" class="cluster">
<title>cluster_Inst&#45;1</title>
<path fill="#bebada" stroke="black" stroke-dasharray="5,2" d="M294.61,-90C294.61,-90 334.61,-90 334.61,-90 340.61,-90 346.61,-96 346.61,-102 346.61,-102 346.61,-120 346.61,-120 346.61,-126 340.61,-132 334.61,-132 334.61,-132 294.61,-132 294.61,-132 288.61,-132 282.61,-126 282.61,-120 282.61,-120 282.61,-102 282.61,-102 282.61,-96 288.61,-90 294.61,-90"/>
</g>
<g id="clust37" class="cluster">
<title>outer_cluster_Inst&#45;5</title>
</g>
<g id="clust38" class="cluster">
<title>cluster_Inst&#45;5</title>
<path fill="#bebada" stroke="black" stroke-dasharray="5,2" d="M264.61,-169C264.61,-169 300.61,-169 300.61,-169 306.61,-169 312.61,-175 312.61,-181 312.61,-181 312.61,-199 312.61,-199 312.61,-205 306.61,-211 300.61,-211 300.61,-211 264.61,-211 264.61,-211 258.61,-211 252.61,-205 252.61,-199 252.61,-199 252.61,-181 252.61,-181 252.61,-175 258.61,-169 264.61,-169"/>
</g>
<g id="clust40" class="cluster">
<title>outer_cluster_String&#45;1</title>
</g>
<g id="clust41" class="cluster">
<title>cluster_String&#45;1</title>
<path fill="#fb8072" stroke="black" stroke-dasharray="5,2" d="M289.61,-11C289.61,-11 341.61,-11 341.61,-11 347.61,-11 353.61,-17 353.61,-23 353.61,-23 353.61,-41 353.61,-41 353.61,-47 347.61,-53 341.61,-53 341.61,-53 289.61,-53 289.61,-53 283.61,-53 277.61,-47 277.61,-41 277.61,-41 277.61,-23 277.61,-23 277.61,-17 283.61,-11 289.61,-11"/>
</g>
<g id="clust43" class="cluster">
<title>outer_cluster_String&#45;0</title>
</g>
<g id="clust44" class="cluster">
<title>cluster_String&#45;0</title>
<path fill="#fb8072" stroke="black" stroke-dasharray="5,2" d="M39.61,-90C39.61,-90 79.61,-90 79.61,-90 85.61,-90 91.61,-96 91.61,-102 91.61,-102 91.61,-120 91.61,-120 91.61,-126 85.61,-132 79.61,-132 79.61,-132 39.61,-132 39.61,-132 33.61,-132 27.61,-126 27.61,-120 27.61,-120 27.61,-102 27.61,-102 27.61,-96 33.61,-90 39.61,-90"/>
</g>
<g id="clust46" class="cluster">
<title>outer_cluster_i64&#45;32</title>
</g>
<g id="clust47" class="cluster">
<title>cluster_i64&#45;32</title>
<path fill="#80b1d3" stroke="black" stroke-dasharray="5,2" d="M223.61,-11C223.61,-11 259.61,-11 259.61,-11 265.61,-11 271.61,-17 271.61,-23 271.61,-23 271.61,-41 271.61,-41 271.61,-47 265.61,-53 259.61,-53 259.61,-53 223.61,-53 223.61,-53 217.61,-53 211.61,-47 211.61,-41 211.61,-41 211.61,-23 211.61,-23 211.61,-17 217.61,-11 223.61,-11"/>
</g>
<g id="clust49" class="cluster">
<title>outer_cluster_i64&#45;0</title>
</g>
<g id="clust50" class="cluster">
<title>cluster_i64&#45;0</title>
<path fill="#80b1d3" stroke="black" stroke-dasharray="5,2" d="M438.61,-90C438.61,-90 474.61,-90 474.61,-90 480.61,-90 486.61,-96 486.61,-102 486.61,-102 486.61,-120 486.61,-120 486.61,-126 480.61,-132 474.61,-132 474.61,-132 438.61,-132 438.61,-132 432.61,-132 426.61,-126 426.61,-120 426.61,-120 426.61,-102 426.61,-102 426.61,-96 432.61,-90 438.61,-90"/>
</g>
<g id="clust52" class="cluster">
<title>outer_cluster_i64&#45;4</title>
</g>
<g id="clust53" class="cluster">
<title>cluster_i64&#45;4</title>
<path fill="#80b1d3" stroke="black" stroke-dasharray="5,2" d="M150.61,-11C150.61,-11 186.61,-11 186.61,-11 192.61,-11 198.61,-17 198.61,-23 198.61,-23 198.61,-41 198.61,-41 198.61,-47 192.61,-53 186.61,-53 186.61,-53 150.61,-53 150.61,-53 144.61,-53 138.61,-47 138.61,-41 138.61,-41 138.61,-23 138.61,-23 138.61,-17 144.61,-11 150.61,-11"/>
</g>
<g id="clust55" class="cluster">
<title>outer_cluster_i64&#45;31</title>
</g>
<g id="clust56" class="cluster">
<title>cluster_i64&#45;31</title>
<path fill="#80b1d3" stroke="black" stroke-dasharray="5,2" d="M371.61,-11C371.61,-11 407.61,-11 407.61,-11 413.61,-11 419.61,-17 419.61,-23 419.61,-23 419.61,-41 419.61,-41 419.61,-47 413.61,-53 407.61,-53 407.61,-53 371.61,-53 371.61,-53 365.61,-53 359.61,-47 359.61,-41 359.61,-41 359.61,-23 359.61,-23 359.61,-17 365.61,-11 371.61,-11"/>
</g>
<!-- function&#45;1&#45;ImmVal&#45;&gt;primitive&#45;i64&#45;32 -->
<g id="edge1" class="edge">
<title>function&#45;1&#45;ImmVal:s&#45;&gt;primitive&#45;i64&#45;32</title>
<path fill="none" stroke="black" d="M242.61,-95C242.61,-81.84 242.38,-67.1 242.14,-55.3"/>
<polygon fill="black" stroke="black" points="244.02,-57.91 242.03,-53 240.52,-58.08 244.02,-57.91"/>
</g>
<!-- function&#45;0&#45;ImmVal&#45;&gt;primitive&#45;i64&#45;31 -->
<g id="edge2" class="edge">
<title>function&#45;0&#45;ImmVal:s&#45;&gt;primitive&#45;i64&#45;31</title>
<path fill="none" stroke="black" d="M386.61,-95C386.61,-81.82 387.29,-67.09 388.01,-55.29"/>
<polygon fill="black" stroke="black" points="389.36,-58.2 388.34,-53 385.9,-57.7 389.36,-58.2"/>
</g>
<!-- function&#45;3&#45;ImmVal&#45;&gt;primitive&#45;i64&#45;4 -->
<g id="edge3" class="edge">
<title>function&#45;3&#45;ImmVal:s&#45;&gt;primitive&#45;i64&#45;4</title>
<path fill="none" stroke="black" d="M168.61,-95C168.61,-81.84 168.61,-67.11 168.61,-55.3"/>
<polygon fill="black" stroke="black" points="170.36,-58 168.61,-53 166.86,-58 170.36,-58"/>
</g>
<!-- function&#45;2&#45;ImmVal&#45;&gt;primitive&#45;i64&#45;0 -->
<g id="edge4" class="edge">
<title>function&#45;2&#45;ImmVal:s&#45;&gt;primitive&#45;i64&#45;0</title>
<path fill="none" stroke="black" d="M454.61,-174C454.61,-160.83 455.07,-146.1 455.54,-134.3"/>
<polygon fill="black" stroke="black" points="457.03,-137.14 455.76,-132 453.55,-136.81 457.03,-137.14"/>
</g>
<!-- function&#45;2&#45;Blt&#45;&gt;function&#45;3&#45;ImmVal -->
<g id="edge7" class="edge">
<title>function&#45;2&#45;Blt:s&#45;&gt;function&#45;3&#45;ImmVal</title>
<path fill="none" stroke="black" d="M359.61,-253C359.61,-201.97 290.3,-247.28 251.61,-214 233.22,-198.18 240.38,-185.25 225.61,-166 216.3,-153.86 204.2,-141.99 193.54,-132.48"/>
<polygon fill="black" stroke="black" points="197.9,-132.94 192.69,-132 196.18,-135.99 197.9,-132.94"/>
</g>
<!-- function&#45;2&#45;Blt&#45;&gt;function&#45;0&#45;RegVal -->
<g id="edge5" class="edge">
<title>function&#45;2&#45;Blt:s&#45;&gt;function&#45;0&#45;RegVal</title>
<path fill="none" stroke="black" d="M340.61,-253C340.61,-242.18 328.08,-247.75 317.61,-245 242.91,-225.36 222.03,-230.67 146.61,-214 128.58,-210.02 108.67,-204.87 92.35,-200.46"/>
<polygon fill="black" stroke="black" points="95.64,-200.79 90.61,-199.12 93.5,-203.56 95.64,-200.79"/>
</g>
<!-- function&#45;2&#45;Blt&#45;&gt;function&#45;0&#45;Addi -->
<g id="edge6" class="edge">
<title>function&#45;2&#45;Blt:s&#45;&gt;function&#45;0&#45;Addi</title>
<path fill="none" stroke="black" d="M352.61,-253C352.61,-239.84 352.38,-225.1 352.14,-213.3"/>
<polygon fill="black" stroke="black" points="354.02,-215.91 352.03,-211 350.52,-216.08 354.02,-215.91"/>
</g>
<!-- function&#45;0&#45;RegVal&#45;&gt;primitive&#45;String&#45;0 -->
<g id="edge13" class="edge">
<title>function&#45;0&#45;RegVal:s&#45;&gt;primitive&#45;String&#45;0</title>
<path fill="none" stroke="black" d="M59.61,-174C59.61,-160.84 59.61,-146.11 59.61,-134.3"/>
<polygon fill="black" stroke="black" points="61.36,-137 59.61,-132 57.86,-137 61.36,-137"/>
</g>
<!-- function&#45;0&#45;Addi&#45;&gt;function&#45;0&#45;ImmVal -->
<g id="edge16" class="edge">
<title>function&#45;0&#45;Addi:s&#45;&gt;function&#45;0&#45;ImmVal</title>
<path fill="none" stroke="black" d="M361.61,-174C361.61,-159.86 367.27,-145.14 373.21,-133.59"/>
<polygon fill="black" stroke="black" points="372.64,-136.93 374.57,-132 369.99,-134.65 372.64,-136.93"/>
</g>
<!-- function&#45;0&#45;Addi&#45;&gt;function&#45;1&#45;RegVal -->
<g id="edge15" class="edge">
<title>function&#45;0&#45;Addi:s&#45;&gt;function&#45;1&#45;RegVal</title>
<path fill="none" stroke="black" d="M341.61,-174C341.61,-159.7 335.5,-144.97 329.09,-133.45"/>
<polygon fill="black" stroke="black" points="332.38,-134.14 327.53,-132 329.99,-136.69 332.38,-134.14"/>
</g>
<!-- function&#45;1&#45;Bge&#45;&gt;function&#45;3&#45;ImmVal -->
<g id="edge10" class="edge">
<title>function&#45;1&#45;Bge:s&#45;&gt;function&#45;3&#45;ImmVal</title>
<path fill="none" stroke="black" d="M304.61,-253C304.61,-217.39 259.64,-239.33 234.61,-214 217.56,-196.74 221.64,-186.47 208.61,-166 201.48,-154.81 192.79,-142.9 185.33,-133.12"/>
<polygon fill="black" stroke="black" points="188.99,-134.32 184.22,-132 186.5,-136.78 188.99,-134.32"/>
</g>
<!-- function&#45;1&#45;Bge&#45;&gt;function&#45;0&#45;RegVal -->
<g id="edge9" class="edge">
<title>function&#45;1&#45;Bge:s&#45;&gt;function&#45;0&#45;RegVal</title>
<path fill="none" stroke="black" d="M295.61,-253C295.61,-253 157.52,-216.88 92.16,-199.78"/>
<polygon fill="black" stroke="black" points="95.57,-200.35 90.61,-198.48 93.31,-203.03 95.57,-200.35"/>
</g>
<!-- function&#45;1&#45;Bge&#45;&gt;function&#45;0&#45;Addi -->
<g id="edge8" class="edge">
<title>function&#45;1&#45;Bge:s&#45;&gt;function&#45;0&#45;Addi</title>
<path fill="none" stroke="black" d="M281.61,-253C281.61,-241.76 302.11,-224.53 320.92,-211.08"/>
<polygon fill="black" stroke="black" points="320.15,-215.19 321.61,-210.1 317.3,-213.17 320.15,-215.19"/>
</g>
<!-- function&#45;1&#45;Seq2&#45;&gt;function&#45;1&#45;Blt -->
<g id="edge11" class="edge">
<title>function&#45;1&#45;Seq2:s&#45;&gt;function&#45;1&#45;Blt</title>
<path fill="none" stroke="black" d="M221.61,-253C221.61,-190.28 139.48,-195 83.61,-223.5 74.08,-228.36 66.65,-237.41 61.28,-246.17"/>
<polygon fill="black" stroke="black" points="61.73,-243.19 59.51,-248 64.24,-245.62 61.73,-243.19"/>
</g>
<!-- function&#45;1&#45;Seq2&#45;&gt;function&#45;1&#45;Jal -->
<g id="edge12" class="edge">
<title>function&#45;1&#45;Seq2:s&#45;&gt;function&#45;1&#45;Jal</title>
<path fill="none" stroke="black" d="M243.61,-253C243.61,-242.04 224.03,-224.62 206.19,-211.03"/>
<polygon fill="black" stroke="black" points="210.24,-209.42 205.19,-211 210.12,-212.92 210.24,-209.42"/>
</g>
<!-- function&#45;1&#45;Blt&#45;&gt;function&#45;3&#45;ImmVal -->
<g id="edge19" class="edge">
<title>function&#45;1&#45;Blt:s&#45;&gt;function&#45;3&#45;ImmVal</title>
<path fill="none" stroke="black" d="M61.61,-253C61.61,-231.13 78.62,-231.59 91.61,-214 107.14,-192.97 109.91,-186.9 125.61,-166 133.8,-155.1 143.2,-143.23 151.12,-133.4"/>
<polygon fill="black" stroke="black" points="150.3,-136.85 152.42,-132 147.73,-134.47 150.3,-136.85"/>
</g>
<!-- function&#45;1&#45;Blt&#45;&gt;function&#45;0&#45;RegVal -->
<g id="edge18" class="edge">
<title>function&#45;1&#45;Blt:s&#45;&gt;function&#45;0&#45;RegVal</title>
<path fill="none" stroke="black" d="M54.61,-253C54.61,-239.81 55.52,-225.08 56.48,-213.28"/>
<polygon fill="black" stroke="black" points="57.69,-216.24 56.91,-211 54.25,-215.58 57.69,-216.24"/>
</g>
<!-- function&#45;1&#45;Blt&#45;&gt;function&#45;0&#45;Addi -->
<g id="edge17" class="edge">
<title>function&#45;1&#45;Blt:s&#45;&gt;function&#45;0&#45;Addi</title>
<path fill="none" stroke="black" d="M42.61,-253C42.61,-192.16 256.22,-234.21 313.61,-214 314.7,-213.62 315.78,-213.2 316.87,-212.76"/>
<polygon fill="black" stroke="black" points="317.76,-214.28 321.61,-210.64 316.33,-211.08 317.76,-214.28"/>
</g>
<!-- function&#45;1&#45;Jal&#45;&gt;function&#45;3&#45;ImmVal -->
<g id="edge25" class="edge">
<title>function&#45;1&#45;Jal:s&#45;&gt;function&#45;3&#45;ImmVal</title>
<path fill="none" stroke="black" d="M177.61,-174C177.61,-160.7 175.56,-145.96 173.41,-134.19"/>
<polygon fill="black" stroke="black" points="176.07,-135.84 172.43,-132 172.88,-137.28 176.07,-135.84"/>
</g>
<!-- function&#45;0&#45;Jal&#45;&gt;function&#45;2&#45;ImmVal -->
<g id="edge14" class="edge">
<title>function&#45;0&#45;Jal:s&#45;&gt;function&#45;2&#45;ImmVal</title>
<path fill="none" stroke="black" d="M446.61,-253C446.61,-239.73 448.44,-224.99 450.34,-213.22"/>
<polygon fill="black" stroke="black" points="451.01,-216.29 451.22,-211 447.75,-215.01 451.01,-216.29"/>
</g>
<!-- function&#45;1&#45;RegVal&#45;&gt;primitive&#45;String&#45;1 -->
<g id="edge34" class="edge">
<title>function&#45;1&#45;RegVal:s&#45;&gt;primitive&#45;String&#45;1</title>
<path fill="none" stroke="black" d="M315.61,-95C315.61,-81.84 315.61,-67.11 315.61,-55.3"/>
<polygon fill="black" stroke="black" points="317.36,-58 315.61,-53 313.86,-58 317.36,-58"/>
</g>
<!-- function&#45;2&#45;Bge&#45;&gt;function&#45;3&#45;ImmVal -->
<g id="edge22" class="edge">
<title>function&#45;2&#45;Bge:s&#45;&gt;function&#45;3&#45;ImmVal</title>
<path fill="none" stroke="black" d="M122.61,-253C122.61,-208.94 143.16,-160.79 156.79,-133.7"/>
<polygon fill="black" stroke="black" points="156.45,-137.04 158.08,-132 153.66,-134.92 156.45,-137.04"/>
</g>
<!-- function&#45;2&#45;Bge&#45;&gt;function&#45;0&#45;RegVal -->
<g id="edge20" class="edge">
<title>function&#45;2&#45;Bge:s&#45;&gt;function&#45;0&#45;RegVal</title>
<path fill="none" stroke="black" d="M99.61,-253C99.61,-237.6 90.7,-223.08 81.19,-211.97"/>
<polygon fill="black" stroke="black" points="84.82,-212.23 79.67,-211 82.93,-215.17 84.82,-212.23"/>
</g>
<!-- function&#45;2&#45;Bge&#45;&gt;function&#45;0&#45;Addi -->
<g id="edge21" class="edge">
<title>function&#45;2&#45;Bge:s&#45;&gt;function&#45;0&#45;Addi</title>
<path fill="none" stroke="black" d="M113.61,-253C113.61,-207.72 271.24,-229.96 313.61,-214 316.23,-213.01 318.86,-211.85 321.46,-210.57"/>
<polygon fill="black" stroke="black" points="321.55,-215.46 321.61,-210.16 318.26,-214.26 321.55,-215.46"/>
</g>
<!-- function&#45;2&#45;Seq2&#45;&gt;function&#45;1&#45;Seq2 -->
<g id="edge23" class="edge">
<title>function&#45;2&#45;Seq2:s&#45;&gt;function&#45;1&#45;Seq2</title>
<path fill="none" stroke="black" d="M155.61,-253C155.61,-232.44 179.69,-239.47 200.74,-249.89"/>
<polygon fill="black" stroke="black" points="197.57,-249.68 202.61,-251.3 199.68,-246.89 197.57,-249.68"/>
</g>
<!-- function&#45;2&#45;Seq2&#45;&gt;function&#45;1&#45;Jal -->
<g id="edge24" class="edge">
<title>function&#45;2&#45;Seq2:s&#45;&gt;function&#45;1&#45;Jal</title>
<path fill="none" stroke="black" d="M177.61,-253C177.61,-239.84 177.61,-225.11 177.61,-213.3"/>
<polygon fill="black" stroke="black" points="179.36,-216 177.61,-211 175.86,-216 179.36,-216"/>
</g>
<!-- function&#45;0&#45;Blt&#45;&gt;function&#45;2&#45;ImmVal -->
<g id="edge28" class="edge">
<title>function&#45;0&#45;Blt:s&#45;&gt;function&#45;2&#45;ImmVal</title>
<path fill="none" stroke="black" d="M328.61,-332C328.61,-300.94 365.18,-315.49 386.61,-293 403.8,-274.95 401.86,-265.79 415.61,-245 422.87,-234.03 431.38,-222.15 438.59,-212.33"/>
<polygon fill="black" stroke="black" points="437.97,-216.04 439.6,-211 435.18,-213.93 437.97,-216.04"/>
</g>
<!-- function&#45;0&#45;Blt&#45;&gt;function&#45;0&#45;RegVal -->
<g id="edge27" class="edge">
<title>function&#45;0&#45;Blt:s&#45;&gt;function&#45;0&#45;RegVal</title>
<path fill="none" stroke="black" d="M321.61,-332C321.61,-261.91 55.01,-345.54 8.61,-293 -5.51,-277.01 0.83,-264.86 8.61,-245 13.55,-232.41 22.95,-220.99 32.29,-211.94"/>
<polygon fill="black" stroke="black" points="30.49,-214.72 34.27,-211 29,-211.55 30.49,-214.72"/>
</g>
<!-- function&#45;0&#45;Blt&#45;&gt;function&#45;0&#45;Addi -->
<g id="edge26" class="edge">
<title>function&#45;0&#45;Blt:s&#45;&gt;function&#45;0&#45;Addi</title>
<path fill="none" stroke="black" d="M309.61,-332C309.61,-296.39 361.57,-323.71 379.61,-293 394.46,-267.72 379.9,-234.31 366.84,-212.73"/>
<polygon fill="black" stroke="black" points="369.87,-213.27 365.08,-211 367.41,-215.76 369.87,-213.27"/>
</g>
<!-- function&#45;0&#45;Bge&#45;&gt;function&#45;2&#45;ImmVal -->
<g id="edge31" class="edge">
<title>function&#45;0&#45;Bge:s&#45;&gt;function&#45;2&#45;ImmVal</title>
<path fill="none" stroke="black" d="M447.61,-332C447.61,-310.13 470.57,-313.7 477.61,-293 484.48,-272.8 481.88,-265.9 477.61,-245 475.37,-234.02 470.81,-222.5 466.33,-212.94"/>
<polygon fill="black" stroke="black" points="469.25,-214.37 465.15,-211 466.25,-216.18 469.25,-214.37"/>
</g>
<!-- function&#45;0&#45;Bge&#45;&gt;function&#45;0&#45;RegVal -->
<g id="edge29" class="edge">
<title>function&#45;0&#45;Bge:s&#45;&gt;function&#45;0&#45;RegVal</title>
<path fill="none" stroke="black" d="M424.61,-332C424.61,-241.58 80.91,-359.46 19.61,-293 -1.44,-270.17 20.41,-234.8 38.89,-212.28"/>
<polygon fill="black" stroke="black" points="37.77,-215.66 40.29,-211 35.41,-213.08 37.77,-215.66"/>
</g>
<!-- function&#45;0&#45;Bge&#45;&gt;function&#45;0&#45;Addi -->
<g id="edge30" class="edge">
<title>function&#45;0&#45;Bge:s&#45;&gt;function&#45;0&#45;Addi</title>
<path fill="none" stroke="black" d="M438.61,-332C438.61,-331.3 386.98,-245.6 386.61,-245 379.95,-234.31 372.37,-222.56 365.97,-212.76"/>
<polygon fill="black" stroke="black" points="368.95,-213.18 364.12,-211 366.54,-215.72 368.95,-213.18"/>
</g>
<!-- function&#45;0&#45;Seq2&#45;&gt;function&#45;2&#45;Blt -->
<g id="edge32" class="edge">
<title>function&#45;0&#45;Seq2:s&#45;&gt;function&#45;2&#45;Blt</title>
<path fill="none" stroke="black" d="M364.61,-332C364.61,-318.38 360.95,-303.6 357.13,-291.89"/>
<polygon fill="black" stroke="black" points="360.09,-292.63 355.49,-290 357.44,-294.92 360.09,-292.63"/>
</g>
<!-- function&#45;0&#45;Seq2&#45;&gt;function&#45;0&#45;Jal -->
<g id="edge33" class="edge">
<title>function&#45;0&#45;Seq2:s&#45;&gt;function&#45;0&#45;Jal</title>
<path fill="none" stroke="black" d="M386.61,-332C386.61,-313.38 400.76,-298.22 415.31,-287.56"/>
<polygon fill="black" stroke="black" points="415.22,-290.78 416.61,-285.67 412.34,-288.8 415.22,-290.78"/>
</g>
<!-- function&#45;1&#45;Addi&#45;&gt;function&#45;1&#45;ImmVal -->
<g id="edge36" class="edge">
<title>function&#45;1&#45;Addi:s&#45;&gt;function&#45;1&#45;ImmVal</title>
<path fill="none" stroke="black" d="M292.61,-174C292.61,-157.85 282.2,-143.53 270.88,-132.73"/>
<polygon fill="black" stroke="black" points="274.96,-133.91 270.02,-132 272.69,-136.58 274.96,-133.91"/>
</g>
<!-- function&#45;1&#45;Addi&#45;&gt;function&#45;1&#45;RegVal -->
<g id="edge35" class="edge">
<title>function&#45;1&#45;Addi:s&#45;&gt;function&#45;1&#45;RegVal</title>
<path fill="none" stroke="black" d="M272.61,-174C272.61,-158.6 281.6,-144.18 291.27,-133.12"/>
<polygon fill="black" stroke="black" points="289.79,-136.33 292.84,-132 287.75,-133.48 289.79,-136.33"/>
</g>
<!-- function&#45;1&#45;ImmVal -->
<g id="node1" class="node">
<title>function&#45;1&#45;ImmVal</title>
<g id="a_node1"><a xlink:title="Imm&#45;4: function&#45;1&#45;ImmVal">
<path fill="white" stroke="transparent" d="M222.28,-95C222.28,-95 262.94,-95 262.94,-95 268.28,-95 273.61,-100.33 273.61,-105.67 273.61,-105.67 273.61,-116.33 273.61,-116.33 273.61,-121.67 268.28,-127 262.94,-127 262.94,-127 222.28,-127 222.28,-127 216.94,-127 211.61,-121.67 211.61,-116.33 211.61,-116.33 211.61,-105.67 211.61,-105.67 211.61,-100.33 216.94,-95 222.28,-95"/>
<text text-anchor="start" x="216.61" y="-107.3" font-family="Helvetica,sans-Serif" font-size="14.00">ImmVal</text>
<path fill="none" stroke="black" d="M222.28,-95C222.28,-95 262.94,-95 262.94,-95 268.28,-95 273.61,-100.33 273.61,-105.67 273.61,-105.67 273.61,-116.33 273.61,-116.33 273.61,-121.67 268.28,-127 262.94,-127 262.94,-127 222.28,-127 222.28,-127 216.94,-127 211.61,-121.67 211.61,-116.33 211.61,-116.33 211.61,-105.67 211.61,-105.67 211.61,-100.33 216.94,-95 222.28,-95"/>
</a>
</g>
</g>
<!-- primitive&#45;i64&#45;32 -->
<g id="node2" class="node">
<title>primitive&#45;i64&#45;32</title>
<g id="a_node2"><a xlink:title="i64&#45;32: primitive&#45;i64&#45;32">
<path fill="white" stroke="transparent" d="M236.28,-16C236.28,-16 246.94,-16 246.94,-16 252.28,-16 257.61,-21.33 257.61,-26.67 257.61,-26.67 257.61,-37.33 257.61,-37.33 257.61,-42.67 252.28,-48 246.94,-48 246.94,-48 236.28,-48 236.28,-48 230.94,-48 225.61,-42.67 225.61,-37.33 225.61,-37.33 225.61,-26.67 225.61,-26.67 225.61,-21.33 230.94,-16 236.28,-16"/>
<text text-anchor="start" x="232.11" y="-28.3" font-family="Helvetica,sans-Serif" font-size="14.00">32</text>
<path fill="none" stroke="black" d="M236.28,-16C236.28,-16 246.94,-16 246.94,-16 252.28,-16 257.61,-21.33 257.61,-26.67 257.61,-26.67 257.61,-37.33 257.61,-37.33 257.61,-42.67 252.28,-48 246.94,-48 246.94,-48 236.28,-48 236.28,-48 230.94,-48 225.61,-42.67 225.61,-37.33 225.61,-37.33 225.61,-26.67 225.61,-26.67 225.61,-21.33 230.94,-16 236.28,-16"/>
</a>
</g>
</g>
<!-- function&#45;0&#45;ImmVal -->
<g id="node3" class="node">
<title>function&#45;0&#45;ImmVal</title>
<g id="a_node3"><a xlink:title="Imm&#45;2: function&#45;0&#45;ImmVal">
<path fill="white" stroke="transparent" d="M366.28,-95C366.28,-95 406.94,-95 406.94,-95 412.28,-95 417.61,-100.33 417.61,-105.67 417.61,-105.67 417.61,-116.33 417.61,-116.33 417.61,-121.67 412.28,-127 406.94,-127 406.94,-127 366.28,-127 366.28,-127 360.94,-127 355.61,-121.67 355.61,-116.33 355.61,-116.33 355.61,-105.67 355.61,-105.67 355.61,-100.33 360.94,-95 366.28,-95"/>
<text text-anchor="start" x="360.61" y="-107.3" font-family="Helvetica,sans-Serif" font-size="14.00">ImmVal</text>
<path fill="none" stroke="black" d="M366.28,-95C366.28,-95 406.94,-95 406.94,-95 412.28,-95 417.61,-100.33 417.61,-105.67 417.61,-105.67 417.61,-116.33 417.61,-116.33 417.61,-121.67 412.28,-127 406.94,-127 406.94,-127 366.28,-127 366.28,-127 360.94,-127 355.61,-121.67 355.61,-116.33 355.61,-116.33 355.61,-105.67 355.61,-105.67 355.61,-100.33 360.94,-95 366.28,-95"/>
</a>
</g>
</g>
<!-- primitive&#45;i64&#45;31 -->
<g id="node4" class="node">
<title>primitive&#45;i64&#45;31</title>
<g id="a_node4"><a xlink:title="i64&#45;31: primitive&#45;i64&#45;31">
<path fill="white" stroke="transparent" d="M384.28,-16C384.28,-16 394.94,-16 394.94,-16 400.28,-16 405.61,-21.33 405.61,-26.67 405.61,-26.67 405.61,-37.33 405.61,-37.33 405.61,-42.67 400.28,-48 394.94,-48 394.94,-48 384.28,-48 384.28,-48 378.94,-48 373.61,-42.67 373.61,-37.33 373.61,-37.33 373.61,-26.67 373.61,-26.67 373.61,-21.33 378.94,-16 384.28,-16"/>
<text text-anchor="start" x="380.11" y="-28.3" font-family="Helvetica,sans-Serif" font-size="14.00">31</text>
<path fill="none" stroke="black" d="M384.28,-16C384.28,-16 394.94,-16 394.94,-16 400.28,-16 405.61,-21.33 405.61,-26.67 405.61,-26.67 405.61,-37.33 405.61,-37.33 405.61,-42.67 400.28,-48 394.94,-48 394.94,-48 384.28,-48 384.28,-48 378.94,-48 373.61,-42.67 373.61,-37.33 373.61,-37.33 373.61,-26.67 373.61,-26.67 373.61,-21.33 378.94,-16 384.28,-16"/>
</a>
</g>
</g>
<!-- function&#45;3&#45;ImmVal -->
<g id="node5" class="node">
<title>function&#45;3&#45;ImmVal</title>
<g id="a_node5"><a xlink:title="Imm&#45;8: function&#45;3&#45;ImmVal">
<path fill="white" stroke="transparent" d="M148.28,-95C148.28,-95 188.94,-95 188.94,-95 194.28,-95 199.61,-100.33 199.61,-105.67 199.61,-105.67 199.61,-116.33 199.61,-116.33 199.61,-121.67 194.28,-127 188.94,-127 188.94,-127 148.28,-127 148.28,-127 142.94,-127 137.61,-121.67 137.61,-116.33 137.61,-116.33 137.61,-105.67 137.61,-105.67 137.61,-100.33 142.94,-95 148.28,-95"/>
<text text-anchor="start" x="142.61" y="-107.3" font-family="Helvetica,sans-Serif" font-size="14.00">ImmVal</text>
<path fill="none" stroke="black" d="M148.28,-95C148.28,-95 188.94,-95 188.94,-95 194.28,-95 199.61,-100.33 199.61,-105.67 199.61,-105.67 199.61,-116.33 199.61,-116.33 199.61,-121.67 194.28,-127 188.94,-127 188.94,-127 148.28,-127 148.28,-127 142.94,-127 137.61,-121.67 137.61,-116.33 137.61,-116.33 137.61,-105.67 137.61,-105.67 137.61,-100.33 142.94,-95 148.28,-95"/>
</a>
</g>
</g>
<!-- primitive&#45;i64&#45;4 -->
<g id="node6" class="node">
<title>primitive&#45;i64&#45;4</title>
<g id="a_node6"><a xlink:title="i64&#45;4: primitive&#45;i64&#45;4">
<path fill="white" stroke="transparent" d="M163.28,-16C163.28,-16 173.94,-16 173.94,-16 179.28,-16 184.61,-21.33 184.61,-26.67 184.61,-26.67 184.61,-37.33 184.61,-37.33 184.61,-42.67 179.28,-48 173.94,-48 173.94,-48 163.28,-48 163.28,-48 157.94,-48 152.61,-42.67 152.61,-37.33 152.61,-37.33 152.61,-26.67 152.61,-26.67 152.61,-21.33 157.94,-16 163.28,-16"/>
<text text-anchor="start" x="163.61" y="-28.3" font-family="Helvetica,sans-Serif" font-size="14.00">4</text>
<path fill="none" stroke="black" d="M163.28,-16C163.28,-16 173.94,-16 173.94,-16 179.28,-16 184.61,-21.33 184.61,-26.67 184.61,-26.67 184.61,-37.33 184.61,-37.33 184.61,-42.67 179.28,-48 173.94,-48 173.94,-48 163.28,-48 163.28,-48 157.94,-48 152.61,-42.67 152.61,-37.33 152.61,-37.33 152.61,-26.67 152.61,-26.67 152.61,-21.33 157.94,-16 163.28,-16"/>
</a>
</g>
</g>
<!-- function&#45;2&#45;ImmVal -->
<g id="node7" class="node">
<title>function&#45;2&#45;ImmVal</title>
<g id="a_node7"><a xlink:title="Imm&#45;6: function&#45;2&#45;ImmVal">
<path fill="white" stroke="transparent" d="M434.28,-174C434.28,-174 474.94,-174 474.94,-174 480.28,-174 485.61,-179.33 485.61,-184.67 485.61,-184.67 485.61,-195.33 485.61,-195.33 485.61,-200.67 480.28,-206 474.94,-206 474.94,-206 434.28,-206 434.28,-206 428.94,-206 423.61,-200.67 423.61,-195.33 423.61,-195.33 423.61,-184.67 423.61,-184.67 423.61,-179.33 428.94,-174 434.28,-174"/>
<text text-anchor="start" x="428.61" y="-186.3" font-family="Helvetica,sans-Serif" font-size="14.00">ImmVal</text>
<path fill="none" stroke="black" d="M434.28,-174C434.28,-174 474.94,-174 474.94,-174 480.28,-174 485.61,-179.33 485.61,-184.67 485.61,-184.67 485.61,-195.33 485.61,-195.33 485.61,-200.67 480.28,-206 474.94,-206 474.94,-206 434.28,-206 434.28,-206 428.94,-206 423.61,-200.67 423.61,-195.33 423.61,-195.33 423.61,-184.67 423.61,-184.67 423.61,-179.33 428.94,-174 434.28,-174"/>
</a>
</g>
</g>
<!-- primitive&#45;i64&#45;0 -->
<g id="node8" class="node">
<title>primitive&#45;i64&#45;0</title>
<g id="a_node8"><a xlink:title="i64&#45;0: primitive&#45;i64&#45;0">
<path fill="white" stroke="transparent" d="M451.28,-95C451.28,-95 461.94,-95 461.94,-95 467.28,-95 472.61,-100.33 472.61,-105.67 472.61,-105.67 472.61,-116.33 472.61,-116.33 472.61,-121.67 467.28,-127 461.94,-127 461.94,-127 451.28,-127 451.28,-127 445.94,-127 440.61,-121.67 440.61,-116.33 440.61,-116.33 440.61,-105.67 440.61,-105.67 440.61,-100.33 445.94,-95 451.28,-95"/>
<text text-anchor="start" x="451.61" y="-107.3" font-family="Helvetica,sans-Serif" font-size="14.00">0</text>
<path fill="none" stroke="black" d="M451.28,-95C451.28,-95 461.94,-95 461.94,-95 467.28,-95 472.61,-100.33 472.61,-105.67 472.61,-105.67 472.61,-116.33 472.61,-116.33 472.61,-121.67 467.28,-127 461.94,-127 461.94,-127 451.28,-127 451.28,-127 445.94,-127 440.61,-121.67 440.61,-116.33 440.61,-116.33 440.61,-105.67 440.61,-105.67 440.61,-100.33 445.94,-95 451.28,-95"/>
</a>
</g>
</g>
<!-- function&#45;2&#45;Blt -->
<g id="node9" class="node">
<title>function&#45;2&#45;Blt</title>
<g id="a_node9"><a xlink:title="Inst&#45;9: function&#45;2&#45;Blt">
<path fill="white" stroke="transparent" d="M343.28,-253C343.28,-253 353.94,-253 353.94,-253 359.28,-253 364.61,-258.33 364.61,-263.67 364.61,-263.67 364.61,-274.33 364.61,-274.33 364.61,-279.67 359.28,-285 353.94,-285 353.94,-285 343.28,-285 343.28,-285 337.94,-285 332.61,-279.67 332.61,-274.33 332.61,-274.33 332.61,-263.67 332.61,-263.67 332.61,-258.33 337.94,-253 343.28,-253"/>
<text text-anchor="start" x="339.11" y="-265.3" font-family="Helvetica,sans-Serif" font-size="14.00">Blt</text>
<path fill="none" stroke="black" d="M343.28,-253C343.28,-253 353.94,-253 353.94,-253 359.28,-253 364.61,-258.33 364.61,-263.67 364.61,-263.67 364.61,-274.33 364.61,-274.33 364.61,-279.67 359.28,-285 353.94,-285 353.94,-285 343.28,-285 343.28,-285 337.94,-285 332.61,-279.67 332.61,-274.33 332.61,-274.33 332.61,-263.67 332.61,-263.67 332.61,-258.33 337.94,-253 343.28,-253"/>
</a>
</g>
</g>
<!-- function&#45;0&#45;RegVal -->
<g id="node10" class="node">
<title>function&#45;0&#45;RegVal</title>
<g id="a_node10"><a xlink:title="Inst&#45;0: function&#45;0&#45;RegVal">
<path fill="white" stroke="transparent" d="M40.78,-174C40.78,-174 76.44,-174 76.44,-174 81.78,-174 87.11,-179.33 87.11,-184.67 87.11,-184.67 87.11,-195.33 87.11,-195.33 87.11,-200.67 81.78,-206 76.44,-206 76.44,-206 40.78,-206 40.78,-206 35.44,-206 30.11,-200.67 30.11,-195.33 30.11,-195.33 30.11,-184.67 30.11,-184.67 30.11,-179.33 35.44,-174 40.78,-174"/>
<text text-anchor="start" x="35.61" y="-186.3" font-family="Helvetica,sans-Serif" font-size="14.00">RegVal</text>
<path fill="none" stroke="black" d="M40.78,-174C40.78,-174 76.44,-174 76.44,-174 81.78,-174 87.11,-179.33 87.11,-184.67 87.11,-184.67 87.11,-195.33 87.11,-195.33 87.11,-200.67 81.78,-206 76.44,-206 76.44,-206 40.78,-206 40.78,-206 35.44,-206 30.11,-200.67 30.11,-195.33 30.11,-195.33 30.11,-184.67 30.11,-184.67 30.11,-179.33 35.44,-174 40.78,-174"/>
</a>
</g>
</g>
<!-- function&#45;0&#45;Addi -->
<g id="node11" class="node">
<title>function&#45;0&#45;Addi</title>
<g id="a_node11"><a xlink:title="Inst&#45;3: function&#45;0&#45;Addi">
<path fill="white" stroke="transparent" d="M341.78,-174C341.78,-174 361.44,-174 361.44,-174 366.78,-174 372.11,-179.33 372.11,-184.67 372.11,-184.67 372.11,-195.33 372.11,-195.33 372.11,-200.67 366.78,-206 361.44,-206 361.44,-206 341.78,-206 341.78,-206 336.44,-206 331.11,-200.67 331.11,-195.33 331.11,-195.33 331.11,-184.67 331.11,-184.67 331.11,-179.33 336.44,-174 341.78,-174"/>
<text text-anchor="start" x="336.61" y="-186.3" font-family="Helvetica,sans-Serif" font-size="14.00">Addi</text>
<path fill="none" stroke="black" d="M341.78,-174C341.78,-174 361.44,-174 361.44,-174 366.78,-174 372.11,-179.33 372.11,-184.67 372.11,-184.67 372.11,-195.33 372.11,-195.33 372.11,-200.67 366.78,-206 361.44,-206 361.44,-206 341.78,-206 341.78,-206 336.44,-206 331.11,-200.67 331.11,-195.33 331.11,-195.33 331.11,-184.67 331.11,-184.67 331.11,-179.33 336.44,-174 341.78,-174"/>
</a>
</g>
</g>
<!-- function&#45;1&#45;Bge -->
<g id="node12" class="node">
<title>function&#45;1&#45;Bge</title>
<g id="a_node12"><a xlink:title="Inst&#45;9: function&#45;1&#45;Bge">
<path fill="white" stroke="transparent" d="M282.28,-253C282.28,-253 298.94,-253 298.94,-253 304.28,-253 309.61,-258.33 309.61,-263.67 309.61,-263.67 309.61,-274.33 309.61,-274.33 309.61,-279.67 304.28,-285 298.94,-285 298.94,-285 282.28,-285 282.28,-285 276.94,-285 271.61,-279.67 271.61,-274.33 271.61,-274.33 271.61,-263.67 271.61,-263.67 271.61,-258.33 276.94,-253 282.28,-253"/>
<text text-anchor="start" x="276.61" y="-265.3" font-family="Helvetica,sans-Serif" font-size="14.00">Bge</text>
<path fill="none" stroke="black" d="M282.28,-253C282.28,-253 298.94,-253 298.94,-253 304.28,-253 309.61,-258.33 309.61,-263.67 309.61,-263.67 309.61,-274.33 309.61,-274.33 309.61,-279.67 304.28,-285 298.94,-285 298.94,-285 282.28,-285 282.28,-285 276.94,-285 271.61,-279.67 271.61,-274.33 271.61,-274.33 271.61,-263.67 271.61,-263.67 271.61,-258.33 276.94,-253 282.28,-253"/>
</a>
</g>
</g>
<!-- function&#45;1&#45;Seq2 -->
<g id="node13" class="node">
<title>function&#45;1&#45;Seq2</title>
<g id="a_node13"><a xlink:title="Inst&#45;9: function&#45;1&#45;Seq2">
<path fill="white" stroke="transparent" d="M220.28,-253C220.28,-253 244.94,-253 244.94,-253 250.28,-253 255.61,-258.33 255.61,-263.67 255.61,-263.67 255.61,-274.33 255.61,-274.33 255.61,-279.67 250.28,-285 244.94,-285 244.94,-285 220.28,-285 220.28,-285 214.94,-285 209.61,-279.67 209.61,-274.33 209.61,-274.33 209.61,-263.67 209.61,-263.67 209.61,-258.33 214.94,-253 220.28,-253"/>
<text text-anchor="start" x="214.61" y="-265.3" font-family="Helvetica,sans-Serif" font-size="14.00">Seq2</text>
<path fill="none" stroke="black" d="M220.28,-253C220.28,-253 244.94,-253 244.94,-253 250.28,-253 255.61,-258.33 255.61,-263.67 255.61,-263.67 255.61,-274.33 255.61,-274.33 255.61,-279.67 250.28,-285 244.94,-285 244.94,-285 220.28,-285 220.28,-285 214.94,-285 209.61,-279.67 209.61,-274.33 209.61,-274.33 209.61,-263.67 209.61,-263.67 209.61,-258.33 214.94,-253 220.28,-253"/>
</a>
</g>
</g>
<!-- function&#45;1&#45;Blt -->
<g id="node14" class="node">
<title>function&#45;1&#45;Blt</title>
<g id="a_node14"><a xlink:title="Inst&#45;12: function&#45;1&#45;Blt">
<path fill="white" stroke="transparent" d="M45.28,-253C45.28,-253 55.94,-253 55.94,-253 61.28,-253 66.61,-258.33 66.61,-263.67 66.61,-263.67 66.61,-274.33 66.61,-274.33 66.61,-279.67 61.28,-285 55.94,-285 55.94,-285 45.28,-285 45.28,-285 39.94,-285 34.61,-279.67 34.61,-274.33 34.61,-274.33 34.61,-263.67 34.61,-263.67 34.61,-258.33 39.94,-253 45.28,-253"/>
<text text-anchor="start" x="41.11" y="-265.3" font-family="Helvetica,sans-Serif" font-size="14.00">Blt</text>
<path fill="none" stroke="black" d="M45.28,-253C45.28,-253 55.94,-253 55.94,-253 61.28,-253 66.61,-258.33 66.61,-263.67 66.61,-263.67 66.61,-274.33 66.61,-274.33 66.61,-279.67 61.28,-285 55.94,-285 55.94,-285 45.28,-285 45.28,-285 39.94,-285 34.61,-279.67 34.61,-274.33 34.61,-274.33 34.61,-263.67 34.61,-263.67 34.61,-258.33 39.94,-253 45.28,-253"/>
</a>
</g>
</g>
<!-- function&#45;1&#45;Jal -->
<g id="node15" class="node">
<title>function&#45;1&#45;Jal</title>
<g id="a_node15"><a xlink:title="Inst&#45;13: function&#45;1&#45;Jal">
<path fill="white" stroke="transparent" d="M172.28,-174C172.28,-174 182.94,-174 182.94,-174 188.28,-174 193.61,-179.33 193.61,-184.67 193.61,-184.67 193.61,-195.33 193.61,-195.33 193.61,-200.67 188.28,-206 182.94,-206 182.94,-206 172.28,-206 172.28,-206 166.94,-206 161.61,-200.67 161.61,-195.33 161.61,-195.33 161.61,-184.67 161.61,-184.67 161.61,-179.33 166.94,-174 172.28,-174"/>
<text text-anchor="start" x="169.11" y="-186.3" font-family="Helvetica,sans-Serif" font-size="14.00">Jal</text>
<path fill="none" stroke="black" d="M172.28,-174C172.28,-174 182.94,-174 182.94,-174 188.28,-174 193.61,-179.33 193.61,-184.67 193.61,-184.67 193.61,-195.33 193.61,-195.33 193.61,-200.67 188.28,-206 182.94,-206 182.94,-206 172.28,-206 172.28,-206 166.94,-206 161.61,-200.67 161.61,-195.33 161.61,-195.33 161.61,-184.67 161.61,-184.67 161.61,-179.33 166.94,-174 172.28,-174"/>
</a>
</g>
</g>
<!-- primitive&#45;String&#45;0 -->
<g id="node16" class="node">
<title>primitive&#45;String&#45;0</title>
<g id="a_node16"><a xlink:title="String&#45;0: primitive&#45;String&#45;0">
<path fill="white" stroke="transparent" d="M41.78,-95C41.78,-95 77.44,-95 77.44,-95 82.78,-95 88.11,-100.33 88.11,-105.67 88.11,-105.67 88.11,-116.33 88.11,-116.33 88.11,-121.67 82.78,-127 77.44,-127 77.44,-127 41.78,-127 41.78,-127 36.44,-127 31.11,-121.67 31.11,-116.33 31.11,-116.33 31.11,-105.67 31.11,-105.67 31.11,-100.33 36.44,-95 41.78,-95"/>
<text text-anchor="start" x="36.61" y="-107.3" font-family="Helvetica,sans-Serif" font-size="14.00">&quot;a4_0&quot;</text>
<path fill="none" stroke="black" d="M41.78,-95C41.78,-95 77.44,-95 77.44,-95 82.78,-95 88.11,-100.33 88.11,-105.67 88.11,-105.67 88.11,-116.33 88.11,-116.33 88.11,-121.67 82.78,-127 77.44,-127 77.44,-127 41.78,-127 41.78,-127 36.44,-127 31.11,-121.67 31.11,-116.33 31.11,-116.33 31.11,-105.67 31.11,-105.67 31.11,-100.33 36.44,-95 41.78,-95"/>
</a>
</g>
</g>
<!-- function&#45;0&#45;Jal -->
<g id="node17" class="node">
<title>function&#45;0&#45;Jal</title>
<g id="a_node17"><a xlink:title="Inst&#45;10: function&#45;0&#45;Jal">
<path fill="white" stroke="transparent" d="M441.28,-253C441.28,-253 451.94,-253 451.94,-253 457.28,-253 462.61,-258.33 462.61,-263.67 462.61,-263.67 462.61,-274.33 462.61,-274.33 462.61,-279.67 457.28,-285 451.94,-285 451.94,-285 441.28,-285 441.28,-285 435.94,-285 430.61,-279.67 430.61,-274.33 430.61,-274.33 430.61,-263.67 430.61,-263.67 430.61,-258.33 435.94,-253 441.28,-253"/>
<text text-anchor="start" x="438.11" y="-265.3" font-family="Helvetica,sans-Serif" font-size="14.00">Jal</text>
<path fill="none" stroke="black" d="M441.28,-253C441.28,-253 451.94,-253 451.94,-253 457.28,-253 462.61,-258.33 462.61,-263.67 462.61,-263.67 462.61,-274.33 462.61,-274.33 462.61,-279.67 457.28,-285 451.94,-285 451.94,-285 441.28,-285 441.28,-285 435.94,-285 430.61,-279.67 430.61,-274.33 430.61,-274.33 430.61,-263.67 430.61,-263.67 430.61,-258.33 435.94,-253 441.28,-253"/>
</a>
</g>
</g>
<!-- function&#45;1&#45;RegVal -->
<g id="node18" class="node">
<title>function&#45;1&#45;RegVal</title>
<g id="a_node18"><a xlink:title="Inst&#45;1: function&#45;1&#45;RegVal">
<path fill="white" stroke="transparent" d="M296.78,-95C296.78,-95 332.44,-95 332.44,-95 337.78,-95 343.11,-100.33 343.11,-105.67 343.11,-105.67 343.11,-116.33 343.11,-116.33 343.11,-121.67 337.78,-127 332.44,-127 332.44,-127 296.78,-127 296.78,-127 291.44,-127 286.11,-121.67 286.11,-116.33 286.11,-116.33 286.11,-105.67 286.11,-105.67 286.11,-100.33 291.44,-95 296.78,-95"/>
<text text-anchor="start" x="291.61" y="-107.3" font-family="Helvetica,sans-Serif" font-size="14.00">RegVal</text>
<path fill="none" stroke="black" d="M296.78,-95C296.78,-95 332.44,-95 332.44,-95 337.78,-95 343.11,-100.33 343.11,-105.67 343.11,-105.67 343.11,-116.33 343.11,-116.33 343.11,-121.67 337.78,-127 332.44,-127 332.44,-127 296.78,-127 296.78,-127 291.44,-127 286.11,-121.67 286.11,-116.33 286.11,-116.33 286.11,-105.67 286.11,-105.67 286.11,-100.33 291.44,-95 296.78,-95"/>
</a>
</g>
</g>
<!-- function&#45;2&#45;Bge -->
<g id="node19" class="node">
<title>function&#45;2&#45;Bge</title>
<g id="a_node19"><a xlink:title="Inst&#45;12: function&#45;2&#45;Bge">
<path fill="white" stroke="transparent" d="M100.28,-253C100.28,-253 116.94,-253 116.94,-253 122.28,-253 127.61,-258.33 127.61,-263.67 127.61,-263.67 127.61,-274.33 127.61,-274.33 127.61,-279.67 122.28,-285 116.94,-285 116.94,-285 100.28,-285 100.28,-285 94.94,-285 89.61,-279.67 89.61,-274.33 89.61,-274.33 89.61,-263.67 89.61,-263.67 89.61,-258.33 94.94,-253 100.28,-253"/>
<text text-anchor="start" x="94.61" y="-265.3" font-family="Helvetica,sans-Serif" font-size="14.00">Bge</text>
<path fill="none" stroke="black" d="M100.28,-253C100.28,-253 116.94,-253 116.94,-253 122.28,-253 127.61,-258.33 127.61,-263.67 127.61,-263.67 127.61,-274.33 127.61,-274.33 127.61,-279.67 122.28,-285 116.94,-285 116.94,-285 100.28,-285 100.28,-285 94.94,-285 89.61,-279.67 89.61,-274.33 89.61,-274.33 89.61,-263.67 89.61,-263.67 89.61,-258.33 94.94,-253 100.28,-253"/>
</a>
</g>
</g>
<!-- function&#45;2&#45;Seq2 -->
<g id="node20" class="node">
<title>function&#45;2&#45;Seq2</title>
<g id="a_node20"><a xlink:title="Inst&#45;12: function&#45;2&#45;Seq2">
<path fill="white" stroke="transparent" d="M154.28,-253C154.28,-253 178.94,-253 178.94,-253 184.28,-253 189.61,-258.33 189.61,-263.67 189.61,-263.67 189.61,-274.33 189.61,-274.33 189.61,-279.67 184.28,-285 178.94,-285 178.94,-285 154.28,-285 154.28,-285 148.94,-285 143.61,-279.67 143.61,-274.33 143.61,-274.33 143.61,-263.67 143.61,-263.67 143.61,-258.33 148.94,-253 154.28,-253"/>
<text text-anchor="start" x="148.61" y="-265.3" font-family="Helvetica,sans-Serif" font-size="14.00">Seq2</text>
<path fill="none" stroke="black" d="M154.28,-253C154.28,-253 178.94,-253 178.94,-253 184.28,-253 189.61,-258.33 189.61,-263.67 189.61,-263.67 189.61,-274.33 189.61,-274.33 189.61,-279.67 184.28,-285 178.94,-285 178.94,-285 154.28,-285 154.28,-285 148.94,-285 143.61,-279.67 143.61,-274.33 143.61,-274.33 143.61,-263.67 143.61,-263.67 143.61,-258.33 148.94,-253 154.28,-253"/>
</a>
</g>
</g>
<!-- function&#45;0&#45;Blt -->
<g id="node21" class="node">
<title>function&#45;0&#45;Blt</title>
<g id="a_node21"><a xlink:title="Inst&#45;7: function&#45;0&#45;Blt">
<path fill="white" stroke="transparent" d="M312.28,-332C312.28,-332 322.94,-332 322.94,-332 328.28,-332 333.61,-337.33 333.61,-342.67 333.61,-342.67 333.61,-353.33 333.61,-353.33 333.61,-358.67 328.28,-364 322.94,-364 322.94,-364 312.28,-364 312.28,-364 306.94,-364 301.61,-358.67 301.61,-353.33 301.61,-353.33 301.61,-342.67 301.61,-342.67 301.61,-337.33 306.94,-332 312.28,-332"/>
<text text-anchor="start" x="308.11" y="-344.3" font-family="Helvetica,sans-Serif" font-size="14.00">Blt</text>
<path fill="none" stroke="black" d="M312.28,-332C312.28,-332 322.94,-332 322.94,-332 328.28,-332 333.61,-337.33 333.61,-342.67 333.61,-342.67 333.61,-353.33 333.61,-353.33 333.61,-358.67 328.28,-364 322.94,-364 322.94,-364 312.28,-364 312.28,-364 306.94,-364 301.61,-358.67 301.61,-353.33 301.61,-353.33 301.61,-342.67 301.61,-342.67 301.61,-337.33 306.94,-332 312.28,-332"/>
</a>
</g>
</g>
<!-- function&#45;0&#45;Bge -->
<g id="node22" class="node">
<title>function&#45;0&#45;Bge</title>
<g id="a_node22"><a xlink:title="Inst&#45;7: function&#45;0&#45;Bge">
<path fill="white" stroke="transparent" d="M425.28,-332C425.28,-332 441.94,-332 441.94,-332 447.28,-332 452.61,-337.33 452.61,-342.67 452.61,-342.67 452.61,-353.33 452.61,-353.33 452.61,-358.67 447.28,-364 441.94,-364 441.94,-364 425.28,-364 425.28,-364 419.94,-364 414.61,-358.67 414.61,-353.33 414.61,-353.33 414.61,-342.67 414.61,-342.67 414.61,-337.33 419.94,-332 425.28,-332"/>
<text text-anchor="start" x="419.61" y="-344.3" font-family="Helvetica,sans-Serif" font-size="14.00">Bge</text>
<path fill="none" stroke="black" d="M425.28,-332C425.28,-332 441.94,-332 441.94,-332 447.28,-332 452.61,-337.33 452.61,-342.67 452.61,-342.67 452.61,-353.33 452.61,-353.33 452.61,-358.67 447.28,-364 441.94,-364 441.94,-364 425.28,-364 425.28,-364 419.94,-364 414.61,-358.67 414.61,-353.33 414.61,-353.33 414.61,-342.67 414.61,-342.67 414.61,-337.33 419.94,-332 425.28,-332"/>
</a>
</g>
</g>
<!-- function&#45;0&#45;Seq2 -->
<g id="node23" class="node">
<title>function&#45;0&#45;Seq2</title>
<g id="a_node23"><a xlink:title="Inst&#45;7: function&#45;0&#45;Seq2">
<path fill="white" stroke="transparent" d="M363.28,-332C363.28,-332 387.94,-332 387.94,-332 393.28,-332 398.61,-337.33 398.61,-342.67 398.61,-342.67 398.61,-353.33 398.61,-353.33 398.61,-358.67 393.28,-364 387.94,-364 387.94,-364 363.28,-364 363.28,-364 357.94,-364 352.61,-358.67 352.61,-353.33 352.61,-353.33 352.61,-342.67 352.61,-342.67 352.61,-337.33 357.94,-332 363.28,-332"/>
<text text-anchor="start" x="357.61" y="-344.3" font-family="Helvetica,sans-Serif" font-size="14.00">Seq2</text>
<path fill="none" stroke="black" d="M363.28,-332C363.28,-332 387.94,-332 387.94,-332 393.28,-332 398.61,-337.33 398.61,-342.67 398.61,-342.67 398.61,-353.33 398.61,-353.33 398.61,-358.67 393.28,-364 387.94,-364 387.94,-364 363.28,-364 363.28,-364 357.94,-364 352.61,-358.67 352.61,-353.33 352.61,-353.33 352.61,-342.67 352.61,-342.67 352.61,-337.33 357.94,-332 363.28,-332"/>
</a>
</g>
</g>
<!-- primitive&#45;String&#45;1 -->
<g id="node24" class="node">
<title>primitive&#45;String&#45;1</title>
<g id="a_node24"><a xlink:title="String&#45;1: primitive&#45;String&#45;1">
<path fill="white" stroke="transparent" d="M291.78,-16C291.78,-16 339.44,-16 339.44,-16 344.78,-16 350.11,-21.33 350.11,-26.67 350.11,-26.67 350.11,-37.33 350.11,-37.33 350.11,-42.67 344.78,-48 339.44,-48 339.44,-48 291.78,-48 291.78,-48 286.44,-48 281.11,-42.67 281.11,-37.33 281.11,-37.33 281.11,-26.67 281.11,-26.67 281.11,-21.33 286.44,-16 291.78,-16"/>
<text text-anchor="start" x="286.61" y="-28.3" font-family="Helvetica,sans-Serif" font-size="14.00">&quot;zero_0&quot;</text>
<path fill="none" stroke="black" d="M291.78,-16C291.78,-16 339.44,-16 339.44,-16 344.78,-16 350.11,-21.33 350.11,-26.67 350.11,-26.67 350.11,-37.33 350.11,-37.33 350.11,-42.67 344.78,-48 339.44,-48 339.44,-48 291.78,-48 291.78,-48 286.44,-48 281.11,-42.67 281.11,-37.33 281.11,-37.33 281.11,-26.67 281.11,-26.67 281.11,-21.33 286.44,-16 291.78,-16"/>
</a>
</g>
</g>
<!-- function&#45;1&#45;Addi -->
<g id="node25" class="node">
<title>function&#45;1&#45;Addi</title>
<g id="a_node25"><a xlink:title="Inst&#45;5: function&#45;1&#45;Addi">
<path fill="white" stroke="transparent" d="M272.78,-174C272.78,-174 292.44,-174 292.44,-174 297.78,-174 303.11,-179.33 303.11,-184.67 303.11,-184.67 303.11,-195.33 303.11,-195.33 303.11,-200.67 297.78,-206 292.44,-206 292.44,-206 272.78,-206 272.78,-206 267.44,-206 262.11,-200.67 262.11,-195.33 262.11,-195.33 262.11,-184.67 262.11,-184.67 262.11,-179.33 267.44,-174 272.78,-174"/>
<text text-anchor="start" x="267.61" y="-186.3" font-family="Helvetica,sans-Serif" font-size="14.00">Addi</text>
<path fill="none" stroke="black" d="M272.78,-174C272.78,-174 292.44,-174 292.44,-174 297.78,-174 303.11,-179.33 303.11,-184.67 303.11,-184.67 303.11,-195.33 303.11,-195.33 303.11,-200.67 297.78,-206 292.44,-206 292.44,-206 272.78,-206 272.78,-206 267.44,-206 262.11,-200.67 262.11,-195.33 262.11,-195.33 262.11,-184.67 262.11,-184.67 262.11,-179.33 267.44,-174 272.78,-174"/>
</a>
</g>
</g>
</g>
</svg>
