<?xml version="1.0" encoding="UTF-8" standalone="no"?>
<!DOCTYPE svg PUBLIC "-//W3C//DTD SVG 1.1//EN"
 "http://www.w3.org/Graphics/SVG/1.1/DTD/svg11.dtd">
<!-- Generated by graphviz version 2.43.0 (0)
 -->
<!-- Title: %3 Pages: 1 -->
<svg width="576pt" height="625pt"
 viewBox="0.00 0.00 576.00 625.00" xmlns="http://www.w3.org/2000/svg" xmlns:xlink="http://www.w3.org/1999/xlink">
<g id="graph0" class="graph" transform="scale(1 1) rotate(0) translate(4 621)">
<title>%3</title>
<polygon fill="white" stroke="#000000" points="-4,4 -4,-621 572,-621 572,4 -4,4"/>
<g id="clust1" class="cluster">
<title>outer_cluster_Imm&#45;4</title>
</g>
<g id="clust2" class="cluster">
<title>cluster_Imm&#45;4</title>
<path fill="#ffffb3" stroke="black" stroke-dasharray="5,2" d="M171,-169C171,-169 215,-169 215,-169 221,-169 227,-175 227,-181 227,-181 227,-199 227,-199 227,-205 221,-211 215,-211 215,-211 171,-211 171,-211 165,-211 159,-205 159,-199 159,-199 159,-181 159,-181 159,-175 165,-169 171,-169"/>
</g>
<g id="clust4" class="cluster">
<title>outer_cluster_Imm&#45;11</title>
</g>
<g id="clust5" class="cluster">
<title>cluster_Imm&#45;11</title>
<path fill="#ffffb3" stroke="black" stroke-dasharray="5,2" d="M23,-327C23,-327 67,-327 67,-327 73,-327 79,-333 79,-339 79,-339 79,-357 79,-357 79,-363 73,-369 67,-369 67,-369 23,-369 23,-369 17,-369 11,-363 11,-357 11,-357 11,-339 11,-339 11,-333 17,-327 23,-327"/>
</g>
<g id="clust7" class="cluster">
<title>outer_cluster_Imm&#45;15</title>
</g>
<g id="clust8" class="cluster">
<title>cluster_Imm&#45;15</title>
<path fill="#ffffb3" stroke="black" stroke-dasharray="5,2" d="M501,-485C501,-485 545,-485 545,-485 551,-485 557,-491 557,-497 557,-497 557,-515 557,-515 557,-521 551,-527 545,-527 545,-527 501,-527 501,-527 495,-527 489,-521 489,-515 489,-515 489,-497 489,-497 489,-491 495,-485 501,-485"/>
</g>
<g id="clust10" class="cluster">
<title>outer_cluster_Imm&#45;2</title>
</g>
<g id="clust11" class="cluster">
<title>cluster_Imm&#45;2</title>
<path fill="#ffffb3" stroke="black" stroke-dasharray="5,2" d="M241,-90C241,-90 285,-90 285,-90 291,-90 297,-96 297,-102 297,-102 297,-120 297,-120 297,-126 291,-132 285,-132 285,-132 241,-132 241,-132 235,-132 229,-126 229,-120 229,-120 229,-102 229,-102 229,-96 235,-90 241,-90"/>
</g>
<g id="clust13" class="cluster">
<title>outer_cluster_Imm&#45;7</title>
</g>
<g id="clust14" class="cluster">
<title>cluster_Imm&#45;7</title>
<path fill="#ffffb3" stroke="black" stroke-dasharray="5,2" d="M235,-327C235,-327 279,-327 279,-327 285,-327 291,-333 291,-339 291,-339 291,-357 291,-357 291,-363 285,-369 279,-369 279,-369 235,-369 235,-369 229,-369 223,-363 223,-357 223,-357 223,-339 223,-339 223,-333 229,-327 235,-327"/>
</g>
<g id="clust16" class="cluster">
<title>outer_cluster_Inst&#45;1</title>
</g>
<g id="clust17" class="cluster">
<title>cluster_Inst&#45;1</title>
<path fill="#bebada" stroke="black" stroke-dasharray="5,2" d="M98,-248C98,-248 138,-248 138,-248 144,-248 150,-254 150,-260 150,-260 150,-278 150,-278 150,-284 144,-290 138,-290 138,-290 98,-290 98,-290 92,-290 86,-284 86,-278 86,-278 86,-260 86,-260 86,-254 92,-248 98,-248"/>
</g>
<g id="clust19" class="cluster">
<title>outer_cluster_Inst&#45;3</title>
</g>
<g id="clust20" class="cluster">
<title>cluster_Inst&#45;3</title>
<path fill="#bebada" stroke="black" stroke-dasharray="5,2" d="M245,-169C245,-169 281,-169 281,-169 287,-169 293,-175 293,-181 293,-181 293,-199 293,-199 293,-205 287,-211 281,-211 281,-211 245,-211 245,-211 239,-211 233,-205 233,-199 233,-199 233,-181 233,-181 233,-175 239,-169 245,-169"/>
</g>
<g id="clust22" class="cluster">
<title>outer_cluster_Inst&#45;13</title>
</g>
<g id="clust23" class="cluster">
<title>cluster_Inst&#45;13</title>
<path fill="#bebada" stroke="black" stroke-dasharray="5,2" d="M132,-564C132,-564 458,-564 458,-564 464,-564 470,-570 470,-576 470,-576 470,-594 470,-594 470,-600 464,-606 458,-606 458,-606 132,-606 132,-606 126,-606 120,-600 120,-594 120,-594 120,-576 120,-576 120,-570 126,-564 132,-564"/>
</g>
<g id="clust25" class="cluster">
<title>outer_cluster_Inst&#45;17</title>
</g>
<g id="clust26" class="cluster">
<title>cluster_Inst&#45;17</title>
<path fill="#bebada" stroke="black" stroke-dasharray="5,2" d="M231,-485C231,-485 325,-485 325,-485 331,-485 337,-491 337,-497 337,-497 337,-515 337,-515 337,-521 331,-527 325,-527 325,-527 231,-527 231,-527 225,-527 219,-521 219,-515 219,-515 219,-497 219,-497 219,-491 225,-485 231,-485"/>
</g>
<g id="clust28" class="cluster">
<title>outer_cluster_Inst&#45;5</title>
</g>
<g id="clust29" class="cluster">
<title>cluster_Inst&#45;5</title>
<path fill="#bebada" stroke="black" stroke-dasharray="5,2" d="M168,-248C168,-248 204,-248 204,-248 210,-248 216,-254 216,-260 216,-260 216,-278 216,-278 216,-284 210,-290 204,-290 204,-290 168,-290 168,-290 162,-290 156,-284 156,-278 156,-278 156,-260 156,-260 156,-254 162,-248 168,-248"/>
</g>
<g id="clust31" class="cluster">
<title>outer_cluster_Inst&#45;12</title>
</g>
<g id="clust32" class="cluster">
<title>cluster_Inst&#45;12</title>
<path fill="#bebada" stroke="black" stroke-dasharray="5,2" d="M81,-406C81,-406 117,-406 117,-406 123,-406 129,-412 129,-418 129,-418 129,-436 129,-436 129,-442 123,-448 117,-448 117,-448 81,-448 81,-448 75,-448 69,-442 69,-436 69,-436 69,-418 69,-418 69,-412 75,-406 81,-406"/>
</g>
<g id="clust34" class="cluster">
<title>outer_cluster_Inst&#45;9</title>
</g>
<g id="clust35" class="cluster">
<title>cluster_Inst&#45;9</title>
<path fill="#bebada" stroke="black" stroke-dasharray="5,2" d="M229,-406C229,-406 265,-406 265,-406 271,-406 277,-412 277,-418 277,-418 277,-436 277,-436 277,-442 271,-448 265,-448 265,-448 229,-448 229,-448 223,-448 217,-442 217,-436 217,-436 217,-418 217,-418 217,-412 223,-406 229,-406"/>
</g>
<g id="clust37" class="cluster">
<title>outer_cluster_Inst&#45;16</title>
</g>
<g id="clust38" class="cluster">
<title>cluster_Inst&#45;16</title>
<path fill="#bebada" stroke="black" stroke-dasharray="5,2" d="M505,-564C505,-564 541,-564 541,-564 547,-564 553,-570 553,-576 553,-576 553,-594 553,-594 553,-600 547,-606 541,-606 541,-606 505,-606 505,-606 499,-606 493,-600 493,-594 493,-594 493,-576 493,-576 493,-570 499,-564 505,-564"/>
</g>
<g id="clust40" class="cluster">
<title>outer_cluster_Inst&#45;8</title>
</g>
<g id="clust41" class="cluster">
<title>cluster_Inst&#45;8</title>
<path fill="#bebada" stroke="black" stroke-dasharray="5,2" d="M355,-406C355,-406 391,-406 391,-406 397,-406 403,-412 403,-418 403,-418 403,-436 403,-436 403,-442 397,-448 391,-448 391,-448 355,-448 355,-448 349,-448 343,-442 343,-436 343,-436 343,-418 343,-418 343,-412 349,-406 355,-406"/>
</g>
<g id="clust43" class="cluster">
<title>outer_cluster_Inst&#45;10</title>
</g>
<g id="clust44" class="cluster">
<title>cluster_Inst&#45;10</title>
<path fill="#bebada" stroke="black" stroke-dasharray="5,2" d="M355,-485C355,-485 449,-485 449,-485 455,-485 461,-491 461,-497 461,-497 461,-515 461,-515 461,-521 455,-527 449,-527 449,-527 355,-527 355,-527 349,-527 343,-521 343,-515 343,-515 343,-497 343,-497 343,-491 349,-485 355,-485"/>
</g>
<g id="clust46" class="cluster">
<title>outer_cluster_Inst&#45;18</title>
</g>
<g id="clust47" class="cluster">
<title>cluster_Inst&#45;18</title>
<path fill="#bebada" stroke="black" stroke-dasharray="5,2" d="M85,-485C85,-485 179,-485 179,-485 185,-485 191,-491 191,-497 191,-497 191,-515 191,-515 191,-521 185,-527 179,-527 179,-527 85,-527 85,-527 79,-527 73,-521 73,-515 73,-515 73,-497 73,-497 73,-491 79,-485 85,-485"/>
</g>
<g id="clust49" class="cluster">
<title>outer_cluster_Inst&#45;6</title>
</g>
<g id="clust50" class="cluster">
<title>cluster_Inst&#45;6</title>
<path fill="#bebada" stroke="black" stroke-dasharray="5,2" d="M97,-327C97,-327 191,-327 191,-327 197,-327 203,-333 203,-339 203,-339 203,-357 203,-357 203,-363 197,-369 191,-369 191,-369 97,-369 97,-369 91,-369 85,-363 85,-357 85,-357 85,-339 85,-339 85,-333 91,-327 97,-327"/>
</g>
<g id="clust52" class="cluster">
<title>outer_cluster_Inst&#45;0</title>
</g>
<g id="clust53" class="cluster">
<title>cluster_Inst&#45;0</title>
<path fill="#bebada" stroke="black" stroke-dasharray="5,2" d="M341,-327C341,-327 381,-327 381,-327 387,-327 393,-333 393,-339 393,-339 393,-357 393,-357 393,-363 387,-369 381,-369 381,-369 341,-369 341,-369 335,-369 329,-363 329,-357 329,-357 329,-339 329,-339 329,-333 335,-327 341,-327"/>
</g>
<g id="clust55" class="cluster">
<title>outer_cluster_Inst&#45;14</title>
</g>
<g id="clust56" class="cluster">
<title>cluster_Inst&#45;14</title>
<path fill="#bebada" stroke="black" stroke-dasharray="5,2" d="M163,-406C163,-406 199,-406 199,-406 205,-406 211,-412 211,-418 211,-418 211,-436 211,-436 211,-442 205,-448 199,-448 199,-448 163,-448 163,-448 157,-448 151,-442 151,-436 151,-436 151,-418 151,-418 151,-412 157,-406 163,-406"/>
</g>
<g id="clust58" class="cluster">
<title>outer_cluster_String&#45;0</title>
</g>
<g id="clust59" class="cluster">
<title>cluster_String&#45;0</title>
<path fill="#fb8072" stroke="black" stroke-dasharray="5,2" d="M342,-248C342,-248 382,-248 382,-248 388,-248 394,-254 394,-260 394,-260 394,-278 394,-278 394,-284 388,-290 382,-290 382,-290 342,-290 342,-290 336,-290 330,-284 330,-278 330,-278 330,-260 330,-260 330,-254 336,-248 342,-248"/>
</g>
<g id="clust61" class="cluster">
<title>outer_cluster_String&#45;1</title>
</g>
<g id="clust62" class="cluster">
<title>cluster_String&#45;1</title>
<path fill="#fb8072" stroke="black" stroke-dasharray="5,2" d="M99,-169C99,-169 139,-169 139,-169 145,-169 151,-175 151,-181 151,-181 151,-199 151,-199 151,-205 145,-211 139,-211 139,-211 99,-211 99,-211 93,-211 87,-205 87,-199 87,-199 87,-181 87,-181 87,-175 93,-169 99,-169"/>
</g>
<g id="clust64" class="cluster">
<title>outer_cluster_i64&#45;31</title>
</g>
<g id="clust65" class="cluster">
<title>cluster_i64&#45;31</title>
<path fill="#80b1d3" stroke="black" stroke-dasharray="5,2" d="M27,-248C27,-248 63,-248 63,-248 69,-248 75,-254 75,-260 75,-260 75,-278 75,-278 75,-284 69,-290 63,-290 63,-290 27,-290 27,-290 21,-290 15,-284 15,-278 15,-278 15,-260 15,-260 15,-254 21,-248 27,-248"/>
</g>
<g id="clust67" class="cluster">
<title>outer_cluster_i64&#45;0</title>
</g>
<g id="clust68" class="cluster">
<title>cluster_i64&#45;0</title>
<path fill="#80b1d3" stroke="black" stroke-dasharray="5,2" d="M505,-406C505,-406 541,-406 541,-406 547,-406 553,-412 553,-418 553,-418 553,-436 553,-436 553,-442 547,-448 541,-448 541,-448 505,-448 505,-448 499,-448 493,-442 493,-436 493,-436 493,-418 493,-418 493,-412 499,-406 505,-406"/>
</g>
<g id="clust70" class="cluster">
<title>outer_cluster_i64&#45;1</title>
</g>
<g id="clust71" class="cluster">
<title>cluster_i64&#45;1</title>
<path fill="#80b1d3" stroke="black" stroke-dasharray="5,2" d="M239,-248C239,-248 275,-248 275,-248 281,-248 287,-254 287,-260 287,-260 287,-278 287,-278 287,-284 281,-290 275,-290 275,-290 239,-290 239,-290 233,-290 227,-284 227,-278 227,-278 227,-260 227,-260 227,-254 233,-248 239,-248"/>
</g>
<g id="clust73" class="cluster">
<title>outer_cluster_i64&#45;1046528</title>
</g>
<g id="clust74" class="cluster">
<title>cluster_i64&#45;1046528</title>
<path fill="#80b1d3" stroke="black" stroke-dasharray="5,2" d="M235,-11C235,-11 291,-11 291,-11 297,-11 303,-17 303,-23 303,-23 303,-41 303,-41 303,-47 297,-53 291,-53 291,-53 235,-53 235,-53 229,-53 223,-47 223,-41 223,-41 223,-23 223,-23 223,-17 229,-11 235,-11"/>
</g>
<g id="clust76" class="cluster">
<title>outer_cluster_i64&#45;2147483648</title>
</g>
<g id="clust77" class="cluster">
<title>cluster_i64&#45;2147483648</title>
<path fill="#80b1d3" stroke="black" stroke-dasharray="5,2" d="M175,-90C175,-90 211,-90 211,-90 217,-90 223,-96 223,-102 223,-102 223,-120 223,-120 223,-126 217,-132 211,-132 211,-132 175,-132 175,-132 169,-132 163,-126 163,-120 163,-120 163,-102 163,-102 163,-96 169,-90 175,-90"/>
</g>
<!-- function&#45;1&#45;ImmVal&#45;&gt;primitive&#45;i64&#45;2147483648 -->
<g id="edge1" class="edge">
<title>function&#45;1&#45;ImmVal:s&#45;&gt;primitive&#45;i64&#45;2147483648</title>
<path fill="none" stroke="black" d="M193,-174C193,-160.84 193,-146.11 193,-134.3"/>
<polygon fill="black" stroke="black" points="194.75,-137 193,-132 191.25,-137 194.75,-137"/>
</g>
<!-- function&#45;3&#45;ImmVal&#45;&gt;primitive&#45;i64&#45;31 -->
<g id="edge2" class="edge">
<title>function&#45;3&#45;ImmVal:s&#45;&gt;primitive&#45;i64&#45;31</title>
<path fill="none" stroke="black" d="M45,-332C45,-318.84 45,-304.11 45,-292.3"/>
<polygon fill="black" stroke="black" points="46.75,-295 45,-290 43.25,-295 46.75,-295"/>
</g>
<!-- function&#45;4&#45;ImmVal&#45;&gt;primitive&#45;i64&#45;0 -->
<g id="edge3" class="edge">
<title>function&#45;4&#45;ImmVal:s&#45;&gt;primitive&#45;i64&#45;0</title>
<path fill="none" stroke="black" d="M523,-490C523,-476.84 523,-462.11 523,-450.3"/>
<polygon fill="black" stroke="black" points="524.75,-453 523,-448 521.25,-453 524.75,-453"/>
</g>
<!-- function&#45;0&#45;ImmVal&#45;&gt;primitive&#45;i64&#45;1046528 -->
<g id="edge4" class="edge">
<title>function&#45;0&#45;ImmVal:s&#45;&gt;primitive&#45;i64&#45;1046528</title>
<path fill="none" stroke="black" d="M263,-95C263,-81.84 263,-67.11 263,-55.3"/>
<polygon fill="black" stroke="black" points="264.75,-58 263,-53 261.25,-58 264.75,-58"/>
</g>
<!-- function&#45;2&#45;ImmVal&#45;&gt;primitive&#45;i64&#45;1 -->
<g id="edge5" class="edge">
<title>function&#45;2&#45;ImmVal:s&#45;&gt;primitive&#45;i64&#45;1</title>
<path fill="none" stroke="black" d="M257,-332C257,-318.84 257,-304.11 257,-292.3"/>
<polygon fill="black" stroke="black" points="258.75,-295 257,-290 255.25,-295 258.75,-295"/>
</g>
<!-- function&#45;1&#45;RegVal&#45;&gt;primitive&#45;String&#45;1 -->
<g id="edge6" class="edge">
<title>function&#45;1&#45;RegVal:s&#45;&gt;primitive&#45;String&#45;1</title>
<path fill="none" stroke="black" d="M119,-253C119,-239.84 119,-225.11 119,-213.3"/>
<polygon fill="black" stroke="black" points="120.75,-216 119,-211 117.25,-216 120.75,-216"/>
</g>
<!-- function&#45;0&#45;Lui&#45;&gt;function&#45;0&#45;ImmVal -->
<g id="edge7" class="edge">
<title>function&#45;0&#45;Lui:s&#45;&gt;function&#45;0&#45;ImmVal</title>
<path fill="none" stroke="black" d="M263,-174C263,-160.84 263,-146.11 263,-134.3"/>
<polygon fill="black" stroke="black" points="264.75,-137 263,-132 261.25,-137 264.75,-137"/>
</g>
<!-- function&#45;1&#45;Or&#45;&gt;function&#45;0&#45;Slli -->
<g id="edge8" class="edge">
<title>function&#45;1&#45;Or:s&#45;&gt;function&#45;0&#45;Slli</title>
<path fill="none" stroke="black" d="M316,-569C316,-514.09 108.03,-571.44 72,-530 52.39,-507.45 68.74,-472.22 83.18,-449.63"/>
<polygon fill="black" stroke="black" points="82.43,-452.62 85.03,-448 80.12,-449.99 82.43,-452.62"/>
</g>
<!-- function&#45;1&#45;Or&#45;&gt;function&#45;0&#45;Or -->
<g id="edge9" class="edge">
<title>function&#45;1&#45;Or:s&#45;&gt;function&#45;0&#45;Or</title>
<path fill="none" stroke="black" d="M332,-569C332,-534.16 370.85,-549.08 400,-530 401.4,-529.08 402.83,-528.12 404.25,-527.14"/>
<polygon fill="black" stroke="black" points="400.89,-530.85 404.53,-527 399.29,-527.74 400.89,-530.85"/>
</g>
<!-- function&#45;0&#45;Slli&#45;&gt;function&#45;3&#45;ImmVal -->
<g id="edge27" class="edge">
<title>function&#45;0&#45;Slli:s&#45;&gt;function&#45;3&#45;ImmVal</title>
<path fill="none" stroke="black" d="M107,-411C107,-400.48 88.91,-383.23 72.27,-369.6"/>
<polygon fill="black" stroke="black" points="76.34,-369.68 71.09,-369 74.77,-372.81 76.34,-369.68"/>
</g>
<!-- function&#45;0&#45;Slli&#45;&gt;function&#45;1&#45;And -->
<g id="edge26" class="edge">
<title>function&#45;0&#45;Slli:s&#45;&gt;function&#45;1&#45;And</title>
<path fill="none" stroke="black" d="M91,-411C91,-397.06 96.34,-382.48 101.98,-370.96"/>
<polygon fill="black" stroke="black" points="101.88,-374.08 103.4,-369 99.05,-372.02 101.88,-374.08"/>
</g>
<!-- function&#45;0&#45;Or&#45;&gt;function&#45;0&#45;Andi -->
<g id="edge34" class="edge">
<title>function&#45;0&#45;Or:s&#45;&gt;function&#45;0&#45;Andi</title>
<path fill="none" stroke="black" d="M439,-490C439,-481.71 333.92,-451.75 279.23,-436.72"/>
<polygon fill="black" stroke="black" points="282.16,-436.5 277,-435.32 280.3,-439.46 282.16,-436.5"/>
</g>
<!-- function&#45;0&#45;Or&#45;&gt;function&#45;0&#45;Srli -->
<g id="edge33" class="edge">
<title>function&#45;0&#45;Or:s&#45;&gt;function&#45;0&#45;Srli</title>
<path fill="none" stroke="black" d="M423,-490C423,-473.85 412.59,-459.53 401.27,-448.73"/>
<polygon fill="black" stroke="black" points="405.35,-449.91 400.41,-448 403.08,-452.58 405.35,-449.91"/>
</g>
<!-- function&#45;3&#45;Or&#45;&gt;function&#45;0&#45;Slli -->
<g id="edge11" class="edge">
<title>function&#45;3&#45;Or:s&#45;&gt;function&#45;0&#45;Slli</title>
<path fill="none" stroke="black" d="M158,-569C158,-522.53 87.02,-568.5 61,-530 43.94,-504.75 63.45,-470.84 80.23,-449.2"/>
<polygon fill="black" stroke="black" points="79.03,-452.67 81.53,-448 76.66,-450.09 79.03,-452.67"/>
</g>
<!-- function&#45;3&#45;Or&#45;&gt;function&#45;0&#45;Or -->
<g id="edge10" class="edge">
<title>function&#45;3&#45;Or:s&#45;&gt;function&#45;0&#45;Or</title>
<path fill="none" stroke="black" d="M142,-569C142,-511.02 346.36,-552.02 400,-530 400.52,-529.79 401.04,-529.56 401.55,-529.33"/>
<polygon fill="black" stroke="black" points="402.48,-530.82 406.15,-527 400.9,-527.7 402.48,-530.82"/>
</g>
<!-- function&#45;5&#45;Or&#45;&gt;function&#45;0&#45;Andi -->
<g id="edge12" class="edge">
<title>function&#45;5&#45;Or:s&#45;&gt;function&#45;0&#45;Andi</title>
<path fill="none" stroke="black" d="M258,-569C258,-544.17 227.65,-552.88 218,-530 209.71,-510.34 212.8,-502.69 218,-482 220.86,-470.65 226.61,-459.08 232.25,-449.58"/>
<polygon fill="black" stroke="black" points="231.46,-452.65 233.99,-448 229.11,-450.06 231.46,-452.65"/>
</g>
<!-- function&#45;5&#45;Or&#45;&gt;function&#45;4&#45;Or -->
<g id="edge13" class="edge">
<title>function&#45;5&#45;Or:s&#45;&gt;function&#45;4&#45;Or</title>
<path fill="none" stroke="black" d="M274,-569C274,-554.36 281.26,-539.81 288.97,-528.5"/>
<polygon fill="black" stroke="black" points="288.54,-532.08 290.04,-527 285.7,-530.03 288.54,-532.08"/>
</g>
<!-- function&#45;0&#45;Andi&#45;&gt;function&#45;2&#45;ImmVal -->
<g id="edge29" class="edge">
<title>function&#45;0&#45;Andi:s&#45;&gt;function&#45;2&#45;ImmVal</title>
<path fill="none" stroke="black" d="M257,-411C257,-397.84 257,-383.11 257,-371.3"/>
<polygon fill="black" stroke="black" points="258.75,-374 257,-369 255.25,-374 258.75,-374"/>
</g>
<!-- function&#45;0&#45;Andi&#45;&gt;function&#45;0&#45;RegVal -->
<g id="edge28" class="edge">
<title>function&#45;0&#45;Andi:s&#45;&gt;function&#45;0&#45;RegVal</title>
<path fill="none" stroke="black" d="M237,-411C237,-400.86 290.68,-377.23 327.4,-362.24"/>
<polygon fill="black" stroke="black" points="325.62,-365.36 329,-361.28 323.81,-362.36 325.62,-365.36"/>
</g>
<!-- function&#45;4&#45;Or&#45;&gt;function&#45;0&#45;Slli -->
<g id="edge21" class="edge">
<title>function&#45;4&#45;Or:s&#45;&gt;function&#45;0&#45;Slli</title>
<path fill="none" stroke="black" d="M315,-490C315,-452.32 185.67,-463.13 150,-451 143.7,-448.86 137.12,-446.21 130.85,-443.49"/>
<polygon fill="black" stroke="black" points="134.2,-443.43 129,-442.4 132.42,-446.44 134.2,-443.43"/>
</g>
<!-- function&#45;4&#45;Or&#45;&gt;function&#45;0&#45;Srli -->
<g id="edge20" class="edge">
<title>function&#45;4&#45;Or:s&#45;&gt;function&#45;0&#45;Srli</title>
<path fill="none" stroke="black" d="M299,-490C299,-466.47 321.25,-450.1 341.35,-440.12"/>
<polygon fill="black" stroke="black" points="339.91,-443.27 343,-438.96 337.9,-440.4 339.91,-443.27"/>
</g>
<!-- function&#45;7&#45;Or&#45;&gt;function&#45;0&#45;Srli -->
<g id="edge14" class="edge">
<title>function&#45;7&#45;Or:s&#45;&gt;function&#45;0&#45;Srli</title>
<path fill="none" stroke="black" d="M432,-569C432,-544.8 460.88,-552.42 470,-530 478.04,-510.24 480.81,-500.39 470,-482 456.11,-458.37 427.71,-444.32 405.21,-436.51"/>
<polygon fill="black" stroke="black" points="408.05,-436.46 403,-434.84 405.94,-439.25 408.05,-436.46"/>
</g>
<!-- function&#45;7&#45;Or&#45;&gt;function&#45;6&#45;Or -->
<g id="edge15" class="edge">
<title>function&#45;7&#45;Or:s&#45;&gt;function&#45;6&#45;Or</title>
<path fill="none" stroke="black" d="M448,-569C448,-517.16 267.93,-543.94 218,-530 209.74,-527.7 201.06,-524.57 193.02,-521.37"/>
<polygon fill="black" stroke="black" points="196.26,-521.02 191,-520.38 194.71,-524.16 196.26,-521.02"/>
</g>
<!-- function&#45;0&#45;Srli&#45;&gt;function&#45;2&#45;ImmVal -->
<g id="edge32" class="edge">
<title>function&#45;0&#45;Srli:s&#45;&gt;function&#45;2&#45;ImmVal</title>
<path fill="none" stroke="black" d="M381,-411C381,-401.1 329.73,-378.29 293.13,-363.28"/>
<polygon fill="black" stroke="black" points="296.27,-362.79 291,-362.3 294.82,-365.98 296.27,-362.79"/>
</g>
<!-- function&#45;0&#45;Srli&#45;&gt;function&#45;0&#45;RegVal -->
<g id="edge31" class="edge">
<title>function&#45;0&#45;Srli:s&#45;&gt;function&#45;0&#45;RegVal</title>
<path fill="none" stroke="black" d="M365,-411C365,-397.81 364.09,-383.08 363.13,-371.28"/>
<polygon fill="black" stroke="black" points="365.36,-373.58 362.7,-369 361.92,-374.24 365.36,-373.58"/>
</g>
<!-- function&#45;6&#45;Or&#45;&gt;function&#45;0&#45;Slli -->
<g id="edge38" class="edge">
<title>function&#45;6&#45;Or:s&#45;&gt;function&#45;0&#45;Slli</title>
<path fill="none" stroke="black" d="M169,-490C169,-468 149.38,-451.92 130.92,-441.65"/>
<polygon fill="black" stroke="black" points="134.03,-441.84 129,-440.17 131.89,-444.61 134.03,-441.84"/>
</g>
<!-- function&#45;6&#45;Or&#45;&gt;function&#45;0&#45;Andi -->
<g id="edge37" class="edge">
<title>function&#45;6&#45;Or:s&#45;&gt;function&#45;0&#45;Andi</title>
<path fill="none" stroke="black" d="M153,-490C153,-489.88 189.26,-465.99 216.74,-447.91"/>
<polygon fill="black" stroke="black" points="217.19,-452.35 217,-447.06 213.85,-451.32 217.19,-452.35"/>
</g>
<!-- function&#45;9&#45;Or&#45;&gt;function&#45;0&#45;Andi -->
<g id="edge17" class="edge">
<title>function&#45;9&#45;Or:s&#45;&gt;function&#45;0&#45;Andi</title>
<path fill="none" stroke="black" d="M216,-569C216,-530.27 199.78,-519.07 211,-482 214.57,-470.22 221.65,-458.65 228.59,-449.27"/>
<polygon fill="black" stroke="black" points="227.67,-452.87 229.76,-448 225.09,-450.5 227.67,-452.87"/>
</g>
<!-- function&#45;9&#45;Or&#45;&gt;function&#45;4&#45;Or -->
<g id="edge16" class="edge">
<title>function&#45;9&#45;Or:s&#45;&gt;function&#45;4&#45;Or</title>
<path fill="none" stroke="black" d="M200,-569C200,-531.03 243.76,-550.05 276,-530 276.1,-529.94 276.19,-529.88 276.29,-529.82"/>
<polygon fill="black" stroke="black" points="277.4,-531.18 280.65,-527 275.5,-528.25 277.4,-531.18"/>
</g>
<!-- function&#45;11&#45;Or&#45;&gt;function&#45;0&#45;Srli -->
<g id="edge19" class="edge">
<title>function&#45;11&#45;Or:s&#45;&gt;function&#45;0&#45;Srli</title>
<path fill="none" stroke="black" d="M390,-569C390,-532.61 443.38,-561.27 462,-530 472.92,-511.67 472.47,-500.59 462,-482 449.85,-460.42 425.21,-446.47 404.93,-438.17"/>
<polygon fill="black" stroke="black" points="408.27,-437.78 403,-437.28 406.81,-440.96 408.27,-437.78"/>
</g>
<!-- function&#45;11&#45;Or&#45;&gt;function&#45;6&#45;Or -->
<g id="edge18" class="edge">
<title>function&#45;11&#45;Or:s&#45;&gt;function&#45;6&#45;Or</title>
<path fill="none" stroke="black" d="M374,-569C374,-558.18 361.4,-564.01 351,-561 292.7,-544.12 275.87,-548.3 218,-530 209.83,-527.42 201.17,-524.19 193.14,-520.98"/>
<polygon fill="black" stroke="black" points="196.27,-520.5 191,-519.98 194.8,-523.68 196.27,-520.5"/>
</g>
<!-- function&#45;8&#45;Or&#45;&gt;function&#45;0&#45;Slli -->
<g id="edge22" class="edge">
<title>function&#45;8&#45;Or:s&#45;&gt;function&#45;0&#45;Slli</title>
<path fill="none" stroke="black" d="M241,-490C241,-446 190.28,-468.71 150,-451 143.84,-448.29 137.27,-445.36 130.97,-442.53"/>
<polygon fill="black" stroke="black" points="134.2,-442.38 129,-441.39 132.45,-445.41 134.2,-442.38"/>
</g>
<!-- function&#45;8&#45;Or&#45;&gt;function&#45;0&#45;Srli -->
<g id="edge23" class="edge">
<title>function&#45;8&#45;Or:s&#45;&gt;function&#45;0&#45;Srli</title>
<path fill="none" stroke="black" d="M257,-490C257,-451.8 306.53,-437.05 340.86,-431.42"/>
<polygon fill="black" stroke="black" points="338.88,-433.98 343,-430.65 337.7,-430.69 338.88,-433.98"/>
</g>
<!-- function&#45;0&#45;Addi&#45;&gt;function&#45;1&#45;ImmVal -->
<g id="edge25" class="edge">
<title>function&#45;0&#45;Addi:s&#45;&gt;function&#45;1&#45;ImmVal</title>
<path fill="none" stroke="black" d="M196,-253C196,-239.82 195.32,-225.09 194.6,-213.29"/>
<polygon fill="black" stroke="black" points="196.71,-215.7 194.27,-211 193.25,-216.2 196.71,-215.7"/>
</g>
<!-- function&#45;0&#45;Addi&#45;&gt;function&#45;0&#45;Lui -->
<g id="edge24" class="edge">
<title>function&#45;0&#45;Addi:s&#45;&gt;function&#45;0&#45;Lui</title>
<path fill="none" stroke="black" d="M176,-253C176,-249.43 207.52,-227.69 232.61,-210.96"/>
<polygon fill="black" stroke="black" points="232.52,-215.38 233,-210.11 229.34,-213.93 232.52,-215.38"/>
</g>
<!-- function&#45;1&#45;And&#45;&gt;function&#45;1&#45;RegVal -->
<g id="edge44" class="edge">
<title>function&#45;1&#45;And:s&#45;&gt;function&#45;1&#45;RegVal</title>
<path fill="none" stroke="black" d="M124,-332C124,-318.78 122.63,-304.04 121.2,-292.25"/>
<polygon fill="black" stroke="black" points="123.62,-294.31 120.54,-290 120.26,-295.29 123.62,-294.31"/>
</g>
<!-- function&#45;1&#45;And&#45;&gt;function&#45;0&#45;Addi -->
<g id="edge43" class="edge">
<title>function&#45;1&#45;And:s&#45;&gt;function&#45;0&#45;Addi</title>
<path fill="none" stroke="black" d="M106,-332C106,-325.47 133.01,-305.59 155.64,-290.09"/>
<polygon fill="black" stroke="black" points="155.63,-294.53 156,-289.25 152.41,-293.15 155.63,-294.53"/>
</g>
<!-- function&#45;0&#45;RegVal&#45;&gt;primitive&#45;String&#45;0 -->
<g id="edge45" class="edge">
<title>function&#45;0&#45;RegVal:s&#45;&gt;primitive&#45;String&#45;0</title>
<path fill="none" stroke="black" d="M362,-332C362,-318.84 362,-304.11 362,-292.3"/>
<polygon fill="black" stroke="black" points="363.75,-295 362,-290 360.25,-295 363.75,-295"/>
</g>
<!-- function&#45;0&#45;Jal&#45;&gt;function&#45;4&#45;ImmVal -->
<g id="edge30" class="edge">
<title>function&#45;0&#45;Jal:s&#45;&gt;function&#45;4&#45;ImmVal</title>
<path fill="none" stroke="black" d="M523,-569C523,-555.84 523,-541.11 523,-529.3"/>
<polygon fill="black" stroke="black" points="524.75,-532 523,-527 521.25,-532 524.75,-532"/>
</g>
<!-- function&#45;2&#45;Or&#45;&gt;function&#45;0&#45;Andi -->
<g id="edge35" class="edge">
<title>function&#45;2&#45;Or:s&#45;&gt;function&#45;0&#45;Andi</title>
<path fill="none" stroke="black" d="M365,-490C365,-451.07 314.04,-436.53 279.1,-431.14"/>
<polygon fill="black" stroke="black" points="282.3,-430.4 277,-430.41 281.15,-433.7 282.3,-430.4"/>
</g>
<!-- function&#45;2&#45;Or&#45;&gt;function&#45;0&#45;Srli -->
<g id="edge36" class="edge">
<title>function&#45;2&#45;Or:s&#45;&gt;function&#45;0&#45;Srli</title>
<path fill="none" stroke="black" d="M381,-490C381,-476.73 379.17,-461.99 377.27,-450.22"/>
<polygon fill="black" stroke="black" points="379.86,-452.01 376.39,-448 376.6,-453.29 379.86,-452.01"/>
</g>
<!-- function&#45;10&#45;Or&#45;&gt;function&#45;0&#45;Slli -->
<g id="edge39" class="edge">
<title>function&#45;10&#45;Or:s&#45;&gt;function&#45;0&#45;Slli</title>
<path fill="none" stroke="black" d="M95,-490C95,-476.81 95.91,-462.08 96.87,-450.28"/>
<polygon fill="black" stroke="black" points="98.08,-453.24 97.3,-448 94.64,-452.58 98.08,-453.24"/>
</g>
<!-- function&#45;10&#45;Or&#45;&gt;function&#45;0&#45;Andi -->
<g id="edge40" class="edge">
<title>function&#45;10&#45;Or:s&#45;&gt;function&#45;0&#45;Andi</title>
<path fill="none" stroke="black" d="M111,-490C111,-441.88 169.21,-473 212,-451 212.34,-450.82 212.68,-450.65 213.03,-450.47"/>
<polygon fill="black" stroke="black" points="213.97,-451.94 217.51,-448 212.28,-448.88 213.97,-451.94"/>
</g>
<!-- function&#45;0&#45;And&#45;&gt;function&#45;1&#45;RegVal -->
<g id="edge41" class="edge">
<title>function&#45;0&#45;And:s&#45;&gt;function&#45;1&#45;RegVal</title>
<path fill="none" stroke="black" d="M164,-332C164,-316.1 154.13,-301.63 143.53,-290.67"/>
<polygon fill="black" stroke="black" points="147.21,-290.32 141.92,-290 145.86,-293.54 147.21,-290.32"/>
</g>
<!-- function&#45;0&#45;And&#45;&gt;function&#45;0&#45;Addi -->
<g id="edge42" class="edge">
<title>function&#45;0&#45;And:s&#45;&gt;function&#45;0&#45;Addi</title>
<path fill="none" stroke="black" d="M182,-332C182,-318.81 182.91,-304.08 183.87,-292.28"/>
<polygon fill="black" stroke="black" points="185.08,-295.24 184.3,-290 181.64,-294.58 185.08,-295.24"/>
</g>
<!-- function&#45;1&#45;Srli&#45;&gt;function&#45;2&#45;ImmVal -->
<g id="edge47" class="edge">
<title>function&#45;1&#45;Srli:s&#45;&gt;function&#45;2&#45;ImmVal</title>
<path fill="none" stroke="black" d="M189,-411C189,-391.29 204.8,-376.17 221.17,-365.8"/>
<polygon fill="black" stroke="black" points="220.66,-368.76 223,-364 218.21,-366.26 220.66,-368.76"/>
</g>
<!-- function&#45;1&#45;Srli&#45;&gt;function&#45;0&#45;And -->
<g id="edge46" class="edge">
<title>function&#45;1&#45;Srli:s&#45;&gt;function&#45;0&#45;And</title>
<path fill="none" stroke="black" d="M173,-411C173,-397.84 173,-383.11 173,-371.3"/>
<polygon fill="black" stroke="black" points="174.75,-374 173,-369 171.25,-374 174.75,-374"/>
</g>
<!-- function&#45;1&#45;ImmVal -->
<g id="node1" class="node">
<title>function&#45;1&#45;ImmVal</title>
<g id="a_node1"><a xlink:title="Imm&#45;4: function&#45;1&#45;ImmVal">
<path fill="white" stroke="transparent" d="M172.67,-174C172.67,-174 213.33,-174 213.33,-174 218.67,-174 224,-179.33 224,-184.67 224,-184.67 224,-195.33 224,-195.33 224,-200.67 218.67,-206 213.33,-206 213.33,-206 172.67,-206 172.67,-206 167.33,-206 162,-200.67 162,-195.33 162,-195.33 162,-184.67 162,-184.67 162,-179.33 167.33,-174 172.67,-174"/>
<text text-anchor="start" x="167" y="-186.3" font-family="Helvetica,sans-Serif" font-size="14.00">ImmVal</text>
<path fill="none" stroke="black" d="M172.67,-174C172.67,-174 213.33,-174 213.33,-174 218.67,-174 224,-179.33 224,-184.67 224,-184.67 224,-195.33 224,-195.33 224,-200.67 218.67,-206 213.33,-206 213.33,-206 172.67,-206 172.67,-206 167.33,-206 162,-200.67 162,-195.33 162,-195.33 162,-184.67 162,-184.67 162,-179.33 167.33,-174 172.67,-174"/>
</a>
</g>
</g>
<!-- primitive&#45;i64&#45;2147483648 -->
<g id="node2" class="node">
<title>primitive&#45;i64&#45;2147483648</title>
<g id="a_node2"><a xlink:title="i64&#45;2147483648: primitive&#45;i64&#45;2147483648">
<path fill="white" stroke="transparent" d="M187.67,-95C187.67,-95 198.33,-95 198.33,-95 203.67,-95 209,-100.33 209,-105.67 209,-105.67 209,-116.33 209,-116.33 209,-121.67 203.67,-127 198.33,-127 198.33,-127 187.67,-127 187.67,-127 182.33,-127 177,-121.67 177,-116.33 177,-116.33 177,-105.67 177,-105.67 177,-100.33 182.33,-95 187.67,-95"/>
<text text-anchor="start" x="185.5" y="-107.3" font-family="Helvetica,sans-Serif" font-size="14.00">&#45;1</text>
<path fill="none" stroke="black" d="M187.67,-95C187.67,-95 198.33,-95 198.33,-95 203.67,-95 209,-100.33 209,-105.67 209,-105.67 209,-116.33 209,-116.33 209,-121.67 203.67,-127 198.33,-127 198.33,-127 187.67,-127 187.67,-127 182.33,-127 177,-121.67 177,-116.33 177,-116.33 177,-105.67 177,-105.67 177,-100.33 182.33,-95 187.67,-95"/>
</a>
</g>
</g>
<!-- function&#45;3&#45;ImmVal -->
<g id="node3" class="node">
<title>function&#45;3&#45;ImmVal</title>
<g id="a_node3"><a xlink:title="Imm&#45;11: function&#45;3&#45;ImmVal">
<path fill="white" stroke="transparent" d="M24.67,-332C24.67,-332 65.33,-332 65.33,-332 70.67,-332 76,-337.33 76,-342.67 76,-342.67 76,-353.33 76,-353.33 76,-358.67 70.67,-364 65.33,-364 65.33,-364 24.67,-364 24.67,-364 19.33,-364 14,-358.67 14,-353.33 14,-353.33 14,-342.67 14,-342.67 14,-337.33 19.33,-332 24.67,-332"/>
<text text-anchor="start" x="19" y="-344.3" font-family="Helvetica,sans-Serif" font-size="14.00">ImmVal</text>
<path fill="none" stroke="black" d="M24.67,-332C24.67,-332 65.33,-332 65.33,-332 70.67,-332 76,-337.33 76,-342.67 76,-342.67 76,-353.33 76,-353.33 76,-358.67 70.67,-364 65.33,-364 65.33,-364 24.67,-364 24.67,-364 19.33,-364 14,-358.67 14,-353.33 14,-353.33 14,-342.67 14,-342.67 14,-337.33 19.33,-332 24.67,-332"/>
</a>
</g>
</g>
<!-- primitive&#45;i64&#45;31 -->
<g id="node4" class="node">
<title>primitive&#45;i64&#45;31</title>
<g id="a_node4"><a xlink:title="i64&#45;31: primitive&#45;i64&#45;31">
<path fill="white" stroke="transparent" d="M39.67,-253C39.67,-253 50.33,-253 50.33,-253 55.67,-253 61,-258.33 61,-263.67 61,-263.67 61,-274.33 61,-274.33 61,-279.67 55.67,-285 50.33,-285 50.33,-285 39.67,-285 39.67,-285 34.33,-285 29,-279.67 29,-274.33 29,-274.33 29,-263.67 29,-263.67 29,-258.33 34.33,-253 39.67,-253"/>
<text text-anchor="start" x="35.5" y="-265.3" font-family="Helvetica,sans-Serif" font-size="14.00">31</text>
<path fill="none" stroke="black" d="M39.67,-253C39.67,-253 50.33,-253 50.33,-253 55.67,-253 61,-258.33 61,-263.67 61,-263.67 61,-274.33 61,-274.33 61,-279.67 55.67,-285 50.33,-285 50.33,-285 39.67,-285 39.67,-285 34.33,-285 29,-279.67 29,-274.33 29,-274.33 29,-263.67 29,-263.67 29,-258.33 34.33,-253 39.67,-253"/>
</a>
</g>
</g>
<!-- function&#45;4&#45;ImmVal -->
<g id="node5" class="node">
<title>function&#45;4&#45;ImmVal</title>
<g id="a_node5"><a xlink:title="Imm&#45;15: function&#45;4&#45;ImmVal">
<path fill="white" stroke="transparent" d="M502.67,-490C502.67,-490 543.33,-490 543.33,-490 548.67,-490 554,-495.33 554,-500.67 554,-500.67 554,-511.33 554,-511.33 554,-516.67 548.67,-522 543.33,-522 543.33,-522 502.67,-522 502.67,-522 497.33,-522 492,-516.67 492,-511.33 492,-511.33 492,-500.67 492,-500.67 492,-495.33 497.33,-490 502.67,-490"/>
<text text-anchor="start" x="497" y="-502.3" font-family="Helvetica,sans-Serif" font-size="14.00">ImmVal</text>
<path fill="none" stroke="black" d="M502.67,-490C502.67,-490 543.33,-490 543.33,-490 548.67,-490 554,-495.33 554,-500.67 554,-500.67 554,-511.33 554,-511.33 554,-516.67 548.67,-522 543.33,-522 543.33,-522 502.67,-522 502.67,-522 497.33,-522 492,-516.67 492,-511.33 492,-511.33 492,-500.67 492,-500.67 492,-495.33 497.33,-490 502.67,-490"/>
</a>
</g>
</g>
<!-- primitive&#45;i64&#45;0 -->
<g id="node6" class="node">
<title>primitive&#45;i64&#45;0</title>
<g id="a_node6"><a xlink:title="i64&#45;0: primitive&#45;i64&#45;0">
<path fill="white" stroke="transparent" d="M517.67,-411C517.67,-411 528.33,-411 528.33,-411 533.67,-411 539,-416.33 539,-421.67 539,-421.67 539,-432.33 539,-432.33 539,-437.67 533.67,-443 528.33,-443 528.33,-443 517.67,-443 517.67,-443 512.33,-443 507,-437.67 507,-432.33 507,-432.33 507,-421.67 507,-421.67 507,-416.33 512.33,-411 517.67,-411"/>
<text text-anchor="start" x="518" y="-423.3" font-family="Helvetica,sans-Serif" font-size="14.00">0</text>
<path fill="none" stroke="black" d="M517.67,-411C517.67,-411 528.33,-411 528.33,-411 533.67,-411 539,-416.33 539,-421.67 539,-421.67 539,-432.33 539,-432.33 539,-437.67 533.67,-443 528.33,-443 528.33,-443 517.67,-443 517.67,-443 512.33,-443 507,-437.67 507,-432.33 507,-432.33 507,-421.67 507,-421.67 507,-416.33 512.33,-411 517.67,-411"/>
</a>
</g>
</g>
<!-- function&#45;0&#45;ImmVal -->
<g id="node7" class="node">
<title>function&#45;0&#45;ImmVal</title>
<g id="a_node7"><a xlink:title="Imm&#45;2: function&#45;0&#45;ImmVal">
<path fill="white" stroke="transparent" d="M242.67,-95C242.67,-95 283.33,-95 283.33,-95 288.67,-95 294,-100.33 294,-105.67 294,-105.67 294,-116.33 294,-116.33 294,-121.67 288.67,-127 283.33,-127 283.33,-127 242.67,-127 242.67,-127 237.33,-127 232,-121.67 232,-116.33 232,-116.33 232,-105.67 232,-105.67 232,-100.33 237.33,-95 242.67,-95"/>
<text text-anchor="start" x="237" y="-107.3" font-family="Helvetica,sans-Serif" font-size="14.00">ImmVal</text>
<path fill="none" stroke="black" d="M242.67,-95C242.67,-95 283.33,-95 283.33,-95 288.67,-95 294,-100.33 294,-105.67 294,-105.67 294,-116.33 294,-116.33 294,-121.67 288.67,-127 283.33,-127 283.33,-127 242.67,-127 242.67,-127 237.33,-127 232,-121.67 232,-116.33 232,-116.33 232,-105.67 232,-105.67 232,-100.33 237.33,-95 242.67,-95"/>
</a>
</g>
</g>
<!-- primitive&#45;i64&#45;1046528 -->
<g id="node8" class="node">
<title>primitive&#45;i64&#45;1046528</title>
<g id="a_node8"><a xlink:title="i64&#45;1046528: primitive&#45;i64&#45;1046528">
<path fill="white" stroke="transparent" d="M236.67,-16C236.67,-16 289.33,-16 289.33,-16 294.67,-16 300,-21.33 300,-26.67 300,-26.67 300,-37.33 300,-37.33 300,-42.67 294.67,-48 289.33,-48 289.33,-48 236.67,-48 236.67,-48 231.33,-48 226,-42.67 226,-37.33 226,-37.33 226,-26.67 226,-26.67 226,-21.33 231.33,-16 236.67,-16"/>
<text text-anchor="start" x="231" y="-28.3" font-family="Helvetica,sans-Serif" font-size="14.00">1046528</text>
<path fill="none" stroke="black" d="M236.67,-16C236.67,-16 289.33,-16 289.33,-16 294.67,-16 300,-21.33 300,-26.67 300,-26.67 300,-37.33 300,-37.33 300,-42.67 294.67,-48 289.33,-48 289.33,-48 236.67,-48 236.67,-48 231.33,-48 226,-42.67 226,-37.33 226,-37.33 226,-26.67 226,-26.67 226,-21.33 231.33,-16 236.67,-16"/>
</a>
</g>
</g>
<!-- function&#45;2&#45;ImmVal -->
<g id="node9" class="node">
<title>function&#45;2&#45;ImmVal</title>
<g id="a_node9"><a xlink:title="Imm&#45;7: function&#45;2&#45;ImmVal">
<path fill="white" stroke="transparent" d="M236.67,-332C236.67,-332 277.33,-332 277.33,-332 282.67,-332 288,-337.33 288,-342.67 288,-342.67 288,-353.33 288,-353.33 288,-358.67 282.67,-364 277.33,-364 277.33,-364 236.67,-364 236.67,-364 231.33,-364 226,-358.67 226,-353.33 226,-353.33 226,-342.67 226,-342.67 226,-337.33 231.33,-332 236.67,-332"/>
<text text-anchor="start" x="231" y="-344.3" font-family="Helvetica,sans-Serif" font-size="14.00">ImmVal</text>
<path fill="none" stroke="black" d="M236.67,-332C236.67,-332 277.33,-332 277.33,-332 282.67,-332 288,-337.33 288,-342.67 288,-342.67 288,-353.33 288,-353.33 288,-358.67 282.67,-364 277.33,-364 277.33,-364 236.67,-364 236.67,-364 231.33,-364 226,-358.67 226,-353.33 226,-353.33 226,-342.67 226,-342.67 226,-337.33 231.33,-332 236.67,-332"/>
</a>
</g>
</g>
<!-- primitive&#45;i64&#45;1 -->
<g id="node10" class="node">
<title>primitive&#45;i64&#45;1</title>
<g id="a_node10"><a xlink:title="i64&#45;1: primitive&#45;i64&#45;1">
<path fill="white" stroke="transparent" d="M251.67,-253C251.67,-253 262.33,-253 262.33,-253 267.67,-253 273,-258.33 273,-263.67 273,-263.67 273,-274.33 273,-274.33 273,-279.67 267.67,-285 262.33,-285 262.33,-285 251.67,-285 251.67,-285 246.33,-285 241,-279.67 241,-274.33 241,-274.33 241,-263.67 241,-263.67 241,-258.33 246.33,-253 251.67,-253"/>
<text text-anchor="start" x="252" y="-265.3" font-family="Helvetica,sans-Serif" font-size="14.00">1</text>
<path fill="none" stroke="black" d="M251.67,-253C251.67,-253 262.33,-253 262.33,-253 267.67,-253 273,-258.33 273,-263.67 273,-263.67 273,-274.33 273,-274.33 273,-279.67 267.67,-285 262.33,-285 262.33,-285 251.67,-285 251.67,-285 246.33,-285 241,-279.67 241,-274.33 241,-274.33 241,-263.67 241,-263.67 241,-258.33 246.33,-253 251.67,-253"/>
</a>
</g>
</g>
<!-- function&#45;1&#45;RegVal -->
<g id="node11" class="node">
<title>function&#45;1&#45;RegVal</title>
<g id="a_node11"><a xlink:title="Inst&#45;1: function&#45;1&#45;RegVal">
<path fill="white" stroke="transparent" d="M100.17,-253C100.17,-253 135.83,-253 135.83,-253 141.17,-253 146.5,-258.33 146.5,-263.67 146.5,-263.67 146.5,-274.33 146.5,-274.33 146.5,-279.67 141.17,-285 135.83,-285 135.83,-285 100.17,-285 100.17,-285 94.83,-285 89.5,-279.67 89.5,-274.33 89.5,-274.33 89.5,-263.67 89.5,-263.67 89.5,-258.33 94.83,-253 100.17,-253"/>
<text text-anchor="start" x="95" y="-265.3" font-family="Helvetica,sans-Serif" font-size="14.00">RegVal</text>
<path fill="none" stroke="black" d="M100.17,-253C100.17,-253 135.83,-253 135.83,-253 141.17,-253 146.5,-258.33 146.5,-263.67 146.5,-263.67 146.5,-274.33 146.5,-274.33 146.5,-279.67 141.17,-285 135.83,-285 135.83,-285 100.17,-285 100.17,-285 94.83,-285 89.5,-279.67 89.5,-274.33 89.5,-274.33 89.5,-263.67 89.5,-263.67 89.5,-258.33 94.83,-253 100.17,-253"/>
</a>
</g>
</g>
<!-- primitive&#45;String&#45;1 -->
<g id="node12" class="node">
<title>primitive&#45;String&#45;1</title>
<g id="a_node12"><a xlink:title="String&#45;1: primitive&#45;String&#45;1">
<path fill="white" stroke="transparent" d="M101.17,-174C101.17,-174 136.83,-174 136.83,-174 142.17,-174 147.5,-179.33 147.5,-184.67 147.5,-184.67 147.5,-195.33 147.5,-195.33 147.5,-200.67 142.17,-206 136.83,-206 136.83,-206 101.17,-206 101.17,-206 95.83,-206 90.5,-200.67 90.5,-195.33 90.5,-195.33 90.5,-184.67 90.5,-184.67 90.5,-179.33 95.83,-174 101.17,-174"/>
<text text-anchor="start" x="96" y="-186.3" font-family="Helvetica,sans-Serif" font-size="14.00">&quot;a5_0&quot;</text>
<path fill="none" stroke="black" d="M101.17,-174C101.17,-174 136.83,-174 136.83,-174 142.17,-174 147.5,-179.33 147.5,-184.67 147.5,-184.67 147.5,-195.33 147.5,-195.33 147.5,-200.67 142.17,-206 136.83,-206 136.83,-206 101.17,-206 101.17,-206 95.83,-206 90.5,-200.67 90.5,-195.33 90.5,-195.33 90.5,-184.67 90.5,-184.67 90.5,-179.33 95.83,-174 101.17,-174"/>
</a>
</g>
</g>
<!-- function&#45;0&#45;Lui -->
<g id="node13" class="node">
<title>function&#45;0&#45;Lui</title>
<g id="a_node13"><a xlink:title="Inst&#45;3: function&#45;0&#45;Lui">
<path fill="white" stroke="transparent" d="M257.67,-174C257.67,-174 268.33,-174 268.33,-174 273.67,-174 279,-179.33 279,-184.67 279,-184.67 279,-195.33 279,-195.33 279,-200.67 273.67,-206 268.33,-206 268.33,-206 257.67,-206 257.67,-206 252.33,-206 247,-200.67 247,-195.33 247,-195.33 247,-184.67 247,-184.67 247,-179.33 252.33,-174 257.67,-174"/>
<text text-anchor="start" x="252.5" y="-186.3" font-family="Helvetica,sans-Serif" font-size="14.00">Lui</text>
<path fill="none" stroke="black" d="M257.67,-174C257.67,-174 268.33,-174 268.33,-174 273.67,-174 279,-179.33 279,-184.67 279,-184.67 279,-195.33 279,-195.33 279,-200.67 273.67,-206 268.33,-206 268.33,-206 257.67,-206 257.67,-206 252.33,-206 247,-200.67 247,-195.33 247,-195.33 247,-184.67 247,-184.67 247,-179.33 252.33,-174 257.67,-174"/>
</a>
</g>
</g>
<!-- function&#45;1&#45;Or -->
<g id="node14" class="node">
<title>function&#45;1&#45;Or</title>
<g id="a_node14"><a xlink:title="Inst&#45;13: function&#45;1&#45;Or">
<path fill="white" stroke="transparent" d="M318.67,-569C318.67,-569 329.33,-569 329.33,-569 334.67,-569 340,-574.33 340,-579.67 340,-579.67 340,-590.33 340,-590.33 340,-595.67 334.67,-601 329.33,-601 329.33,-601 318.67,-601 318.67,-601 313.33,-601 308,-595.67 308,-590.33 308,-590.33 308,-579.67 308,-579.67 308,-574.33 313.33,-569 318.67,-569"/>
<text text-anchor="start" x="315" y="-581.3" font-family="Helvetica,sans-Serif" font-size="14.00">Or</text>
<path fill="none" stroke="black" d="M318.67,-569C318.67,-569 329.33,-569 329.33,-569 334.67,-569 340,-574.33 340,-579.67 340,-579.67 340,-590.33 340,-590.33 340,-595.67 334.67,-601 329.33,-601 329.33,-601 318.67,-601 318.67,-601 313.33,-601 308,-595.67 308,-590.33 308,-590.33 308,-579.67 308,-579.67 308,-574.33 313.33,-569 318.67,-569"/>
</a>
</g>
</g>
<!-- function&#45;0&#45;Slli -->
<g id="node15" class="node">
<title>function&#45;0&#45;Slli</title>
<g id="a_node15"><a xlink:title="Inst&#45;12: function&#45;0&#45;Slli">
<path fill="white" stroke="transparent" d="M93.67,-411C93.67,-411 104.33,-411 104.33,-411 109.67,-411 115,-416.33 115,-421.67 115,-421.67 115,-432.33 115,-432.33 115,-437.67 109.67,-443 104.33,-443 104.33,-443 93.67,-443 93.67,-443 88.33,-443 83,-437.67 83,-432.33 83,-432.33 83,-421.67 83,-421.67 83,-416.33 88.33,-411 93.67,-411"/>
<text text-anchor="start" x="88.5" y="-423.3" font-family="Helvetica,sans-Serif" font-size="14.00">Slli</text>
<path fill="none" stroke="black" d="M93.67,-411C93.67,-411 104.33,-411 104.33,-411 109.67,-411 115,-416.33 115,-421.67 115,-421.67 115,-432.33 115,-432.33 115,-437.67 109.67,-443 104.33,-443 104.33,-443 93.67,-443 93.67,-443 88.33,-443 83,-437.67 83,-432.33 83,-432.33 83,-421.67 83,-421.67 83,-416.33 88.33,-411 93.67,-411"/>
</a>
</g>
</g>
<!-- function&#45;0&#45;Or -->
<g id="node16" class="node">
<title>function&#45;0&#45;Or</title>
<g id="a_node16"><a xlink:title="Inst&#45;10: function&#45;0&#45;Or">
<path fill="white" stroke="transparent" d="M425.67,-490C425.67,-490 436.33,-490 436.33,-490 441.67,-490 447,-495.33 447,-500.67 447,-500.67 447,-511.33 447,-511.33 447,-516.67 441.67,-522 436.33,-522 436.33,-522 425.67,-522 425.67,-522 420.33,-522 415,-516.67 415,-511.33 415,-511.33 415,-500.67 415,-500.67 415,-495.33 420.33,-490 425.67,-490"/>
<text text-anchor="start" x="422" y="-502.3" font-family="Helvetica,sans-Serif" font-size="14.00">Or</text>
<path fill="none" stroke="black" d="M425.67,-490C425.67,-490 436.33,-490 436.33,-490 441.67,-490 447,-495.33 447,-500.67 447,-500.67 447,-511.33 447,-511.33 447,-516.67 441.67,-522 436.33,-522 436.33,-522 425.67,-522 425.67,-522 420.33,-522 415,-516.67 415,-511.33 415,-511.33 415,-500.67 415,-500.67 415,-495.33 420.33,-490 425.67,-490"/>
</a>
</g>
</g>
<!-- function&#45;3&#45;Or -->
<g id="node17" class="node">
<title>function&#45;3&#45;Or</title>
<g id="a_node17"><a xlink:title="Inst&#45;13: function&#45;3&#45;Or">
<path fill="white" stroke="transparent" d="M144.67,-569C144.67,-569 155.33,-569 155.33,-569 160.67,-569 166,-574.33 166,-579.67 166,-579.67 166,-590.33 166,-590.33 166,-595.67 160.67,-601 155.33,-601 155.33,-601 144.67,-601 144.67,-601 139.33,-601 134,-595.67 134,-590.33 134,-590.33 134,-579.67 134,-579.67 134,-574.33 139.33,-569 144.67,-569"/>
<text text-anchor="start" x="141" y="-581.3" font-family="Helvetica,sans-Serif" font-size="14.00">Or</text>
<path fill="none" stroke="black" d="M144.67,-569C144.67,-569 155.33,-569 155.33,-569 160.67,-569 166,-574.33 166,-579.67 166,-579.67 166,-590.33 166,-590.33 166,-595.67 160.67,-601 155.33,-601 155.33,-601 144.67,-601 144.67,-601 139.33,-601 134,-595.67 134,-590.33 134,-590.33 134,-579.67 134,-579.67 134,-574.33 139.33,-569 144.67,-569"/>
</a>
</g>
</g>
<!-- function&#45;5&#45;Or -->
<g id="node18" class="node">
<title>function&#45;5&#45;Or</title>
<g id="a_node18"><a xlink:title="Inst&#45;13: function&#45;5&#45;Or">
<path fill="white" stroke="transparent" d="M260.67,-569C260.67,-569 271.33,-569 271.33,-569 276.67,-569 282,-574.33 282,-579.67 282,-579.67 282,-590.33 282,-590.33 282,-595.67 276.67,-601 271.33,-601 271.33,-601 260.67,-601 260.67,-601 255.33,-601 250,-595.67 250,-590.33 250,-590.33 250,-579.67 250,-579.67 250,-574.33 255.33,-569 260.67,-569"/>
<text text-anchor="start" x="257" y="-581.3" font-family="Helvetica,sans-Serif" font-size="14.00">Or</text>
<path fill="none" stroke="black" d="M260.67,-569C260.67,-569 271.33,-569 271.33,-569 276.67,-569 282,-574.33 282,-579.67 282,-579.67 282,-590.33 282,-590.33 282,-595.67 276.67,-601 271.33,-601 271.33,-601 260.67,-601 260.67,-601 255.33,-601 250,-595.67 250,-590.33 250,-590.33 250,-579.67 250,-579.67 250,-574.33 255.33,-569 260.67,-569"/>
</a>
</g>
</g>
<!-- function&#45;0&#45;Andi -->
<g id="node19" class="node">
<title>function&#45;0&#45;Andi</title>
<g id="a_node19"><a xlink:title="Inst&#45;9: function&#45;0&#45;Andi">
<path fill="white" stroke="transparent" d="M236.67,-411C236.67,-411 257.33,-411 257.33,-411 262.67,-411 268,-416.33 268,-421.67 268,-421.67 268,-432.33 268,-432.33 268,-437.67 262.67,-443 257.33,-443 257.33,-443 236.67,-443 236.67,-443 231.33,-443 226,-437.67 226,-432.33 226,-432.33 226,-421.67 226,-421.67 226,-416.33 231.33,-411 236.67,-411"/>
<text text-anchor="start" x="231" y="-423.3" font-family="Helvetica,sans-Serif" font-size="14.00">Andi</text>
<path fill="none" stroke="black" d="M236.67,-411C236.67,-411 257.33,-411 257.33,-411 262.67,-411 268,-416.33 268,-421.67 268,-421.67 268,-432.33 268,-432.33 268,-437.67 262.67,-443 257.33,-443 257.33,-443 236.67,-443 236.67,-443 231.33,-443 226,-437.67 226,-432.33 226,-432.33 226,-421.67 226,-421.67 226,-416.33 231.33,-411 236.67,-411"/>
</a>
</g>
</g>
<!-- function&#45;4&#45;Or -->
<g id="node20" class="node">
<title>function&#45;4&#45;Or</title>
<g id="a_node20"><a xlink:title="Inst&#45;17: function&#45;4&#45;Or">
<path fill="white" stroke="transparent" d="M301.67,-490C301.67,-490 312.33,-490 312.33,-490 317.67,-490 323,-495.33 323,-500.67 323,-500.67 323,-511.33 323,-511.33 323,-516.67 317.67,-522 312.33,-522 312.33,-522 301.67,-522 301.67,-522 296.33,-522 291,-516.67 291,-511.33 291,-511.33 291,-500.67 291,-500.67 291,-495.33 296.33,-490 301.67,-490"/>
<text text-anchor="start" x="298" y="-502.3" font-family="Helvetica,sans-Serif" font-size="14.00">Or</text>
<path fill="none" stroke="black" d="M301.67,-490C301.67,-490 312.33,-490 312.33,-490 317.67,-490 323,-495.33 323,-500.67 323,-500.67 323,-511.33 323,-511.33 323,-516.67 317.67,-522 312.33,-522 312.33,-522 301.67,-522 301.67,-522 296.33,-522 291,-516.67 291,-511.33 291,-511.33 291,-500.67 291,-500.67 291,-495.33 296.33,-490 301.67,-490"/>
</a>
</g>
</g>
<!-- function&#45;7&#45;Or -->
<g id="node21" class="node">
<title>function&#45;7&#45;Or</title>
<g id="a_node21"><a xlink:title="Inst&#45;13: function&#45;7&#45;Or">
<path fill="white" stroke="transparent" d="M434.67,-569C434.67,-569 445.33,-569 445.33,-569 450.67,-569 456,-574.33 456,-579.67 456,-579.67 456,-590.33 456,-590.33 456,-595.67 450.67,-601 445.33,-601 445.33,-601 434.67,-601 434.67,-601 429.33,-601 424,-595.67 424,-590.33 424,-590.33 424,-579.67 424,-579.67 424,-574.33 429.33,-569 434.67,-569"/>
<text text-anchor="start" x="431" y="-581.3" font-family="Helvetica,sans-Serif" font-size="14.00">Or</text>
<path fill="none" stroke="black" d="M434.67,-569C434.67,-569 445.33,-569 445.33,-569 450.67,-569 456,-574.33 456,-579.67 456,-579.67 456,-590.33 456,-590.33 456,-595.67 450.67,-601 445.33,-601 445.33,-601 434.67,-601 434.67,-601 429.33,-601 424,-595.67 424,-590.33 424,-590.33 424,-579.67 424,-579.67 424,-574.33 429.33,-569 434.67,-569"/>
</a>
</g>
</g>
<!-- function&#45;0&#45;Srli -->
<g id="node22" class="node">
<title>function&#45;0&#45;Srli</title>
<g id="a_node22"><a xlink:title="Inst&#45;8: function&#45;0&#45;Srli">
<path fill="white" stroke="transparent" d="M367.17,-411C367.17,-411 378.83,-411 378.83,-411 384.17,-411 389.5,-416.33 389.5,-421.67 389.5,-421.67 389.5,-432.33 389.5,-432.33 389.5,-437.67 384.17,-443 378.83,-443 378.83,-443 367.17,-443 367.17,-443 361.83,-443 356.5,-437.67 356.5,-432.33 356.5,-432.33 356.5,-421.67 356.5,-421.67 356.5,-416.33 361.83,-411 367.17,-411"/>
<text text-anchor="start" x="362" y="-423.3" font-family="Helvetica,sans-Serif" font-size="14.00">Srli</text>
<path fill="none" stroke="black" d="M367.17,-411C367.17,-411 378.83,-411 378.83,-411 384.17,-411 389.5,-416.33 389.5,-421.67 389.5,-421.67 389.5,-432.33 389.5,-432.33 389.5,-437.67 384.17,-443 378.83,-443 378.83,-443 367.17,-443 367.17,-443 361.83,-443 356.5,-437.67 356.5,-432.33 356.5,-432.33 356.5,-421.67 356.5,-421.67 356.5,-416.33 361.83,-411 367.17,-411"/>
</a>
</g>
</g>
<!-- function&#45;6&#45;Or -->
<g id="node23" class="node">
<title>function&#45;6&#45;Or</title>
<g id="a_node23"><a xlink:title="Inst&#45;18: function&#45;6&#45;Or">
<path fill="white" stroke="transparent" d="M155.67,-490C155.67,-490 166.33,-490 166.33,-490 171.67,-490 177,-495.33 177,-500.67 177,-500.67 177,-511.33 177,-511.33 177,-516.67 171.67,-522 166.33,-522 166.33,-522 155.67,-522 155.67,-522 150.33,-522 145,-516.67 145,-511.33 145,-511.33 145,-500.67 145,-500.67 145,-495.33 150.33,-490 155.67,-490"/>
<text text-anchor="start" x="152" y="-502.3" font-family="Helvetica,sans-Serif" font-size="14.00">Or</text>
<path fill="none" stroke="black" d="M155.67,-490C155.67,-490 166.33,-490 166.33,-490 171.67,-490 177,-495.33 177,-500.67 177,-500.67 177,-511.33 177,-511.33 177,-516.67 171.67,-522 166.33,-522 166.33,-522 155.67,-522 155.67,-522 150.33,-522 145,-516.67 145,-511.33 145,-511.33 145,-500.67 145,-500.67 145,-495.33 150.33,-490 155.67,-490"/>
</a>
</g>
</g>
<!-- function&#45;9&#45;Or -->
<g id="node24" class="node">
<title>function&#45;9&#45;Or</title>
<g id="a_node24"><a xlink:title="Inst&#45;13: function&#45;9&#45;Or">
<path fill="white" stroke="transparent" d="M202.67,-569C202.67,-569 213.33,-569 213.33,-569 218.67,-569 224,-574.33 224,-579.67 224,-579.67 224,-590.33 224,-590.33 224,-595.67 218.67,-601 213.33,-601 213.33,-601 202.67,-601 202.67,-601 197.33,-601 192,-595.67 192,-590.33 192,-590.33 192,-579.67 192,-579.67 192,-574.33 197.33,-569 202.67,-569"/>
<text text-anchor="start" x="199" y="-581.3" font-family="Helvetica,sans-Serif" font-size="14.00">Or</text>
<path fill="none" stroke="black" d="M202.67,-569C202.67,-569 213.33,-569 213.33,-569 218.67,-569 224,-574.33 224,-579.67 224,-579.67 224,-590.33 224,-590.33 224,-595.67 218.67,-601 213.33,-601 213.33,-601 202.67,-601 202.67,-601 197.33,-601 192,-595.67 192,-590.33 192,-590.33 192,-579.67 192,-579.67 192,-574.33 197.33,-569 202.67,-569"/>
</a>
</g>
</g>
<!-- function&#45;11&#45;Or -->
<g id="node25" class="node">
<title>function&#45;11&#45;Or</title>
<g id="a_node25"><a xlink:title="Inst&#45;13: function&#45;11&#45;Or">
<path fill="white" stroke="transparent" d="M376.67,-569C376.67,-569 387.33,-569 387.33,-569 392.67,-569 398,-574.33 398,-579.67 398,-579.67 398,-590.33 398,-590.33 398,-595.67 392.67,-601 387.33,-601 387.33,-601 376.67,-601 376.67,-601 371.33,-601 366,-595.67 366,-590.33 366,-590.33 366,-579.67 366,-579.67 366,-574.33 371.33,-569 376.67,-569"/>
<text text-anchor="start" x="373" y="-581.3" font-family="Helvetica,sans-Serif" font-size="14.00">Or</text>
<path fill="none" stroke="black" d="M376.67,-569C376.67,-569 387.33,-569 387.33,-569 392.67,-569 398,-574.33 398,-579.67 398,-579.67 398,-590.33 398,-590.33 398,-595.67 392.67,-601 387.33,-601 387.33,-601 376.67,-601 376.67,-601 371.33,-601 366,-595.67 366,-590.33 366,-590.33 366,-579.67 366,-579.67 366,-574.33 371.33,-569 376.67,-569"/>
</a>
</g>
</g>
<!-- function&#45;8&#45;Or -->
<g id="node26" class="node">
<title>function&#45;8&#45;Or</title>
<g id="a_node26"><a xlink:title="Inst&#45;17: function&#45;8&#45;Or">
<path fill="white" stroke="transparent" d="M243.67,-490C243.67,-490 254.33,-490 254.33,-490 259.67,-490 265,-495.33 265,-500.67 265,-500.67 265,-511.33 265,-511.33 265,-516.67 259.67,-522 254.33,-522 254.33,-522 243.67,-522 243.67,-522 238.33,-522 233,-516.67 233,-511.33 233,-511.33 233,-500.67 233,-500.67 233,-495.33 238.33,-490 243.67,-490"/>
<text text-anchor="start" x="240" y="-502.3" font-family="Helvetica,sans-Serif" font-size="14.00">Or</text>
<path fill="none" stroke="black" d="M243.67,-490C243.67,-490 254.33,-490 254.33,-490 259.67,-490 265,-495.33 265,-500.67 265,-500.67 265,-511.33 265,-511.33 265,-516.67 259.67,-522 254.33,-522 254.33,-522 243.67,-522 243.67,-522 238.33,-522 233,-516.67 233,-511.33 233,-511.33 233,-500.67 233,-500.67 233,-495.33 238.33,-490 243.67,-490"/>
</a>
</g>
</g>
<!-- function&#45;0&#45;Addi -->
<g id="node27" class="node">
<title>function&#45;0&#45;Addi</title>
<g id="a_node27"><a xlink:title="Inst&#45;5: function&#45;0&#45;Addi">
<path fill="white" stroke="transparent" d="M176.17,-253C176.17,-253 195.83,-253 195.83,-253 201.17,-253 206.5,-258.33 206.5,-263.67 206.5,-263.67 206.5,-274.33 206.5,-274.33 206.5,-279.67 201.17,-285 195.83,-285 195.83,-285 176.17,-285 176.17,-285 170.83,-285 165.5,-279.67 165.5,-274.33 165.5,-274.33 165.5,-263.67 165.5,-263.67 165.5,-258.33 170.83,-253 176.17,-253"/>
<text text-anchor="start" x="171" y="-265.3" font-family="Helvetica,sans-Serif" font-size="14.00">Addi</text>
<path fill="none" stroke="black" d="M176.17,-253C176.17,-253 195.83,-253 195.83,-253 201.17,-253 206.5,-258.33 206.5,-263.67 206.5,-263.67 206.5,-274.33 206.5,-274.33 206.5,-279.67 201.17,-285 195.83,-285 195.83,-285 176.17,-285 176.17,-285 170.83,-285 165.5,-279.67 165.5,-274.33 165.5,-274.33 165.5,-263.67 165.5,-263.67 165.5,-258.33 170.83,-253 176.17,-253"/>
</a>
</g>
</g>
<!-- function&#45;1&#45;And -->
<g id="node28" class="node">
<title>function&#45;1&#45;And</title>
<g id="a_node28"><a xlink:title="Inst&#45;6: function&#45;1&#45;And">
<path fill="white" stroke="transparent" d="M106.67,-332C106.67,-332 123.33,-332 123.33,-332 128.67,-332 134,-337.33 134,-342.67 134,-342.67 134,-353.33 134,-353.33 134,-358.67 128.67,-364 123.33,-364 123.33,-364 106.67,-364 106.67,-364 101.33,-364 96,-358.67 96,-353.33 96,-353.33 96,-342.67 96,-342.67 96,-337.33 101.33,-332 106.67,-332"/>
<text text-anchor="start" x="101" y="-344.3" font-family="Helvetica,sans-Serif" font-size="14.00">And</text>
<path fill="none" stroke="black" d="M106.67,-332C106.67,-332 123.33,-332 123.33,-332 128.67,-332 134,-337.33 134,-342.67 134,-342.67 134,-353.33 134,-353.33 134,-358.67 128.67,-364 123.33,-364 123.33,-364 106.67,-364 106.67,-364 101.33,-364 96,-358.67 96,-353.33 96,-353.33 96,-342.67 96,-342.67 96,-337.33 101.33,-332 106.67,-332"/>
</a>
</g>
</g>
<!-- function&#45;0&#45;RegVal -->
<g id="node29" class="node">
<title>function&#45;0&#45;RegVal</title>
<g id="a_node29"><a xlink:title="Inst&#45;0: function&#45;0&#45;RegVal">
<path fill="white" stroke="transparent" d="M343.17,-332C343.17,-332 378.83,-332 378.83,-332 384.17,-332 389.5,-337.33 389.5,-342.67 389.5,-342.67 389.5,-353.33 389.5,-353.33 389.5,-358.67 384.17,-364 378.83,-364 378.83,-364 343.17,-364 343.17,-364 337.83,-364 332.5,-358.67 332.5,-353.33 332.5,-353.33 332.5,-342.67 332.5,-342.67 332.5,-337.33 337.83,-332 343.17,-332"/>
<text text-anchor="start" x="338" y="-344.3" font-family="Helvetica,sans-Serif" font-size="14.00">RegVal</text>
<path fill="none" stroke="black" d="M343.17,-332C343.17,-332 378.83,-332 378.83,-332 384.17,-332 389.5,-337.33 389.5,-342.67 389.5,-342.67 389.5,-353.33 389.5,-353.33 389.5,-358.67 384.17,-364 378.83,-364 378.83,-364 343.17,-364 343.17,-364 337.83,-364 332.5,-358.67 332.5,-353.33 332.5,-353.33 332.5,-342.67 332.5,-342.67 332.5,-337.33 337.83,-332 343.17,-332"/>
</a>
</g>
</g>
<!-- function&#45;0&#45;Jal -->
<g id="node30" class="node">
<title>function&#45;0&#45;Jal</title>
<g id="a_node30"><a xlink:title="Inst&#45;16: function&#45;0&#45;Jal">
<path fill="white" stroke="transparent" d="M517.67,-569C517.67,-569 528.33,-569 528.33,-569 533.67,-569 539,-574.33 539,-579.67 539,-579.67 539,-590.33 539,-590.33 539,-595.67 533.67,-601 528.33,-601 528.33,-601 517.67,-601 517.67,-601 512.33,-601 507,-595.67 507,-590.33 507,-590.33 507,-579.67 507,-579.67 507,-574.33 512.33,-569 517.67,-569"/>
<text text-anchor="start" x="514.5" y="-581.3" font-family="Helvetica,sans-Serif" font-size="14.00">Jal</text>
<path fill="none" stroke="black" d="M517.67,-569C517.67,-569 528.33,-569 528.33,-569 533.67,-569 539,-574.33 539,-579.67 539,-579.67 539,-590.33 539,-590.33 539,-595.67 533.67,-601 528.33,-601 528.33,-601 517.67,-601 517.67,-601 512.33,-601 507,-595.67 507,-590.33 507,-590.33 507,-579.67 507,-579.67 507,-574.33 512.33,-569 517.67,-569"/>
</a>
</g>
</g>
<!-- function&#45;2&#45;Or -->
<g id="node31" class="node">
<title>function&#45;2&#45;Or</title>
<g id="a_node31"><a xlink:title="Inst&#45;10: function&#45;2&#45;Or">
<path fill="white" stroke="transparent" d="M367.67,-490C367.67,-490 378.33,-490 378.33,-490 383.67,-490 389,-495.33 389,-500.67 389,-500.67 389,-511.33 389,-511.33 389,-516.67 383.67,-522 378.33,-522 378.33,-522 367.67,-522 367.67,-522 362.33,-522 357,-516.67 357,-511.33 357,-511.33 357,-500.67 357,-500.67 357,-495.33 362.33,-490 367.67,-490"/>
<text text-anchor="start" x="364" y="-502.3" font-family="Helvetica,sans-Serif" font-size="14.00">Or</text>
<path fill="none" stroke="black" d="M367.67,-490C367.67,-490 378.33,-490 378.33,-490 383.67,-490 389,-495.33 389,-500.67 389,-500.67 389,-511.33 389,-511.33 389,-516.67 383.67,-522 378.33,-522 378.33,-522 367.67,-522 367.67,-522 362.33,-522 357,-516.67 357,-511.33 357,-511.33 357,-500.67 357,-500.67 357,-495.33 362.33,-490 367.67,-490"/>
</a>
</g>
</g>
<!-- function&#45;10&#45;Or -->
<g id="node32" class="node">
<title>function&#45;10&#45;Or</title>
<g id="a_node32"><a xlink:title="Inst&#45;18: function&#45;10&#45;Or">
<path fill="white" stroke="transparent" d="M97.67,-490C97.67,-490 108.33,-490 108.33,-490 113.67,-490 119,-495.33 119,-500.67 119,-500.67 119,-511.33 119,-511.33 119,-516.67 113.67,-522 108.33,-522 108.33,-522 97.67,-522 97.67,-522 92.33,-522 87,-516.67 87,-511.33 87,-511.33 87,-500.67 87,-500.67 87,-495.33 92.33,-490 97.67,-490"/>
<text text-anchor="start" x="94" y="-502.3" font-family="Helvetica,sans-Serif" font-size="14.00">Or</text>
<path fill="none" stroke="black" d="M97.67,-490C97.67,-490 108.33,-490 108.33,-490 113.67,-490 119,-495.33 119,-500.67 119,-500.67 119,-511.33 119,-511.33 119,-516.67 113.67,-522 108.33,-522 108.33,-522 97.67,-522 97.67,-522 92.33,-522 87,-516.67 87,-511.33 87,-511.33 87,-500.67 87,-500.67 87,-495.33 92.33,-490 97.67,-490"/>
</a>
</g>
</g>
<!-- function&#45;0&#45;And -->
<g id="node33" class="node">
<title>function&#45;0&#45;And</title>
<g id="a_node33"><a xlink:title="Inst&#45;6: function&#45;0&#45;And">
<path fill="white" stroke="transparent" d="M164.67,-332C164.67,-332 181.33,-332 181.33,-332 186.67,-332 192,-337.33 192,-342.67 192,-342.67 192,-353.33 192,-353.33 192,-358.67 186.67,-364 181.33,-364 181.33,-364 164.67,-364 164.67,-364 159.33,-364 154,-358.67 154,-353.33 154,-353.33 154,-342.67 154,-342.67 154,-337.33 159.33,-332 164.67,-332"/>
<text text-anchor="start" x="159" y="-344.3" font-family="Helvetica,sans-Serif" font-size="14.00">And</text>
<path fill="none" stroke="black" d="M164.67,-332C164.67,-332 181.33,-332 181.33,-332 186.67,-332 192,-337.33 192,-342.67 192,-342.67 192,-353.33 192,-353.33 192,-358.67 186.67,-364 181.33,-364 181.33,-364 164.67,-364 164.67,-364 159.33,-364 154,-358.67 154,-353.33 154,-353.33 154,-342.67 154,-342.67 154,-337.33 159.33,-332 164.67,-332"/>
</a>
</g>
</g>
<!-- primitive&#45;String&#45;0 -->
<g id="node34" class="node">
<title>primitive&#45;String&#45;0</title>
<g id="a_node34"><a xlink:title="String&#45;0: primitive&#45;String&#45;0">
<path fill="white" stroke="transparent" d="M344.17,-253C344.17,-253 379.83,-253 379.83,-253 385.17,-253 390.5,-258.33 390.5,-263.67 390.5,-263.67 390.5,-274.33 390.5,-274.33 390.5,-279.67 385.17,-285 379.83,-285 379.83,-285 344.17,-285 344.17,-285 338.83,-285 333.5,-279.67 333.5,-274.33 333.5,-274.33 333.5,-263.67 333.5,-263.67 333.5,-258.33 338.83,-253 344.17,-253"/>
<text text-anchor="start" x="339" y="-265.3" font-family="Helvetica,sans-Serif" font-size="14.00">&quot;a2_0&quot;</text>
<path fill="none" stroke="black" d="M344.17,-253C344.17,-253 379.83,-253 379.83,-253 385.17,-253 390.5,-258.33 390.5,-263.67 390.5,-263.67 390.5,-274.33 390.5,-274.33 390.5,-279.67 385.17,-285 379.83,-285 379.83,-285 344.17,-285 344.17,-285 338.83,-285 333.5,-279.67 333.5,-274.33 333.5,-274.33 333.5,-263.67 333.5,-263.67 333.5,-258.33 338.83,-253 344.17,-253"/>
</a>
</g>
</g>
<!-- function&#45;1&#45;Srli -->
<g id="node35" class="node">
<title>function&#45;1&#45;Srli</title>
<g id="a_node35"><a xlink:title="Inst&#45;14: function&#45;1&#45;Srli">
<path fill="white" stroke="transparent" d="M175.17,-411C175.17,-411 186.83,-411 186.83,-411 192.17,-411 197.5,-416.33 197.5,-421.67 197.5,-421.67 197.5,-432.33 197.5,-432.33 197.5,-437.67 192.17,-443 186.83,-443 186.83,-443 175.17,-443 175.17,-443 169.83,-443 164.5,-437.67 164.5,-432.33 164.5,-432.33 164.5,-421.67 164.5,-421.67 164.5,-416.33 169.83,-411 175.17,-411"/>
<text text-anchor="start" x="170" y="-423.3" font-family="Helvetica,sans-Serif" font-size="14.00">Srli</text>
<path fill="none" stroke="black" d="M175.17,-411C175.17,-411 186.83,-411 186.83,-411 192.17,-411 197.5,-416.33 197.5,-421.67 197.5,-421.67 197.5,-432.33 197.5,-432.33 197.5,-437.67 192.17,-443 186.83,-443 186.83,-443 175.17,-443 175.17,-443 169.83,-443 164.5,-437.67 164.5,-432.33 164.5,-432.33 164.5,-421.67 164.5,-421.67 164.5,-416.33 169.83,-411 175.17,-411"/>
</a>
</g>
</g>
</g>
</svg>
