<?xml version="1.0" encoding="UTF-8" standalone="no"?>
<!DOCTYPE svg PUBLIC "-//W3C//DTD SVG 1.1//EN"
 "http://www.w3.org/Graphics/SVG/1.1/DTD/svg11.dtd">
<!-- Generated by graphviz version 2.43.0 (0)
 -->
<!-- Title: %3 Pages: 1 -->
<svg width="733pt" height="388pt"
 viewBox="0.00 0.00 733.17 388.00" xmlns="http://www.w3.org/2000/svg" xmlns:xlink="http://www.w3.org/1999/xlink">
<g id="graph0" class="graph" transform="scale(1 1) rotate(0) translate(4 384)">
<title>%3</title>
<polygon fill="white" stroke="#000000" points="-4,4 -4,-384 729.17,-384 729.17,4 -4,4"/>
<g id="clust1" class="cluster">
<title>outer_cluster_Imm&#45;4</title>
</g>
<g id="clust2" class="cluster">
<title>cluster_Imm&#45;4</title>
<path fill="#ffffb3" stroke="black" stroke-dasharray="5,2" d="M37.17,-169C37.17,-169 81.17,-169 81.17,-169 87.17,-169 93.17,-175 93.17,-181 93.17,-181 93.17,-199 93.17,-199 93.17,-205 87.17,-211 81.17,-211 81.17,-211 37.17,-211 37.17,-211 31.17,-211 25.17,-205 25.17,-199 25.17,-199 25.17,-181 25.17,-181 25.17,-175 31.17,-169 37.17,-169"/>
</g>
<g id="clust4" class="cluster">
<title>outer_cluster_Imm&#45;7</title>
</g>
<g id="clust5" class="cluster">
<title>cluster_Imm&#45;7</title>
<path fill="#ffffb3" stroke="black" stroke-dasharray="5,2" d="M518.17,-169C518.17,-169 562.17,-169 562.17,-169 568.17,-169 574.17,-175 574.17,-181 574.17,-181 574.17,-199 574.17,-199 574.17,-205 568.17,-211 562.17,-211 562.17,-211 518.17,-211 518.17,-211 512.17,-211 506.17,-205 506.17,-199 506.17,-199 506.17,-181 506.17,-181 506.17,-175 512.17,-169 518.17,-169"/>
</g>
<g id="clust7" class="cluster">
<title>outer_cluster_Imm&#45;10</title>
</g>
<g id="clust8" class="cluster">
<title>cluster_Imm&#45;10</title>
<path fill="#ffffb3" stroke="black" stroke-dasharray="5,2" d="M243.17,-90C243.17,-90 287.17,-90 287.17,-90 293.17,-90 299.17,-96 299.17,-102 299.17,-102 299.17,-120 299.17,-120 299.17,-126 293.17,-132 287.17,-132 287.17,-132 243.17,-132 243.17,-132 237.17,-132 231.17,-126 231.17,-120 231.17,-120 231.17,-102 231.17,-102 231.17,-96 237.17,-90 243.17,-90"/>
</g>
<g id="clust10" class="cluster">
<title>outer_cluster_Inst&#45;15</title>
</g>
<g id="clust11" class="cluster">
<title>cluster_Inst&#45;15</title>
<path fill="#bebada" stroke="black" stroke-dasharray="5,2" d="M247.17,-169C247.17,-169 283.17,-169 283.17,-169 289.17,-169 295.17,-175 295.17,-181 295.17,-181 295.17,-199 295.17,-199 295.17,-205 289.17,-211 283.17,-211 283.17,-211 247.17,-211 247.17,-211 241.17,-211 235.17,-205 235.17,-199 235.17,-199 235.17,-181 235.17,-181 235.17,-175 241.17,-169 247.17,-169"/>
</g>
<g id="clust13" class="cluster">
<title>outer_cluster_Inst&#45;14</title>
</g>
<g id="clust14" class="cluster">
<title>cluster_Inst&#45;14</title>
<path fill="#bebada" stroke="black" stroke-dasharray="5,2" d="M100.17,-248C100.17,-248 252.17,-248 252.17,-248 258.17,-248 264.17,-254 264.17,-260 264.17,-260 264.17,-278 264.17,-278 264.17,-284 258.17,-290 252.17,-290 252.17,-290 100.17,-290 100.17,-290 94.17,-290 88.17,-284 88.17,-278 88.17,-278 88.17,-260 88.17,-260 88.17,-254 94.17,-248 100.17,-248"/>
</g>
<g id="clust16" class="cluster">
<title>outer_cluster_Inst&#45;9</title>
</g>
<g id="clust17" class="cluster">
<title>cluster_Inst&#45;9</title>
<path fill="#bebada" stroke="black" stroke-dasharray="5,2" d="M389.17,-327C389.17,-327 541.17,-327 541.17,-327 547.17,-327 553.17,-333 553.17,-339 553.17,-339 553.17,-357 553.17,-357 553.17,-363 547.17,-369 541.17,-369 541.17,-369 389.17,-369 389.17,-369 383.17,-369 377.17,-363 377.17,-357 377.17,-357 377.17,-339 377.17,-339 377.17,-333 383.17,-327 389.17,-327"/>
</g>
<g id="clust19" class="cluster">
<title>outer_cluster_Inst&#45;5</title>
</g>
<g id="clust20" class="cluster">
<title>cluster_Inst&#45;5</title>
<path fill="#bebada" stroke="black" stroke-dasharray="5,2" d="M34.17,-248C34.17,-248 70.17,-248 70.17,-248 76.17,-248 82.17,-254 82.17,-260 82.17,-260 82.17,-278 82.17,-278 82.17,-284 76.17,-290 70.17,-290 70.17,-290 34.17,-290 34.17,-290 28.17,-290 22.17,-284 22.17,-278 22.17,-278 22.17,-260 22.17,-260 22.17,-254 28.17,-248 34.17,-248"/>
</g>
<g id="clust22" class="cluster">
<title>outer_cluster_Inst&#45;2</title>
</g>
<g id="clust23" class="cluster">
<title>cluster_Inst&#45;2</title>
<path fill="#bebada" stroke="black" stroke-dasharray="5,2" d="M365.17,-169C365.17,-169 405.17,-169 405.17,-169 411.17,-169 417.17,-175 417.17,-181 417.17,-181 417.17,-199 417.17,-199 417.17,-205 411.17,-211 405.17,-211 405.17,-211 365.17,-211 365.17,-211 359.17,-211 353.17,-205 353.17,-199 353.17,-199 353.17,-181 353.17,-181 353.17,-175 359.17,-169 365.17,-169"/>
</g>
<g id="clust25" class="cluster">
<title>outer_cluster_Inst&#45;0</title>
</g>
<g id="clust26" class="cluster">
<title>cluster_Inst&#45;0</title>
<path fill="#bebada" stroke="black" stroke-dasharray="5,2" d="M111.17,-169C111.17,-169 151.17,-169 151.17,-169 157.17,-169 163.17,-175 163.17,-181 163.17,-181 163.17,-199 163.17,-199 163.17,-205 157.17,-211 151.17,-211 151.17,-211 111.17,-211 111.17,-211 105.17,-211 99.17,-205 99.17,-199 99.17,-199 99.17,-181 99.17,-181 99.17,-175 105.17,-169 111.17,-169"/>
</g>
<g id="clust28" class="cluster">
<title>outer_cluster_Inst&#45;8</title>
</g>
<g id="clust29" class="cluster">
<title>cluster_Inst&#45;8</title>
<path fill="#bebada" stroke="black" stroke-dasharray="5,2" d="M580.17,-248C580.17,-248 616.17,-248 616.17,-248 622.17,-248 628.17,-254 628.17,-260 628.17,-260 628.17,-278 628.17,-278 628.17,-284 622.17,-290 616.17,-290 616.17,-290 580.17,-290 580.17,-290 574.17,-290 568.17,-284 568.17,-278 568.17,-278 568.17,-260 568.17,-260 568.17,-254 574.17,-248 580.17,-248"/>
</g>
<g id="clust31" class="cluster">
<title>outer_cluster_Inst&#45;6</title>
</g>
<g id="clust32" class="cluster">
<title>cluster_Inst&#45;6</title>
<path fill="#bebada" stroke="black" stroke-dasharray="5,2" d="M624.17,-327C624.17,-327 660.17,-327 660.17,-327 666.17,-327 672.17,-333 672.17,-339 672.17,-339 672.17,-357 672.17,-357 672.17,-363 666.17,-369 660.17,-369 660.17,-369 624.17,-369 624.17,-369 618.17,-369 612.17,-363 612.17,-357 612.17,-357 612.17,-339 612.17,-339 612.17,-333 618.17,-327 624.17,-327"/>
</g>
<g id="clust34" class="cluster">
<title>outer_cluster_Inst&#45;1</title>
</g>
<g id="clust35" class="cluster">
<title>cluster_Inst&#45;1</title>
<path fill="#bebada" stroke="black" stroke-dasharray="5,2" d="M658.17,-248C658.17,-248 698.17,-248 698.17,-248 704.17,-248 710.17,-254 710.17,-260 710.17,-260 710.17,-278 710.17,-278 710.17,-284 704.17,-290 698.17,-290 698.17,-290 658.17,-290 658.17,-290 652.17,-290 646.17,-284 646.17,-278 646.17,-278 646.17,-260 646.17,-260 646.17,-254 652.17,-248 658.17,-248"/>
</g>
<g id="clust37" class="cluster">
<title>outer_cluster_Inst&#45;12</title>
</g>
<g id="clust38" class="cluster">
<title>cluster_Inst&#45;12</title>
<path fill="#bebada" stroke="black" stroke-dasharray="5,2" d="M486.17,-248C486.17,-248 522.17,-248 522.17,-248 528.17,-248 534.17,-254 534.17,-260 534.17,-260 534.17,-278 534.17,-278 534.17,-284 528.17,-290 522.17,-290 522.17,-290 486.17,-290 486.17,-290 480.17,-290 474.17,-284 474.17,-278 474.17,-278 474.17,-260 474.17,-260 474.17,-254 480.17,-248 486.17,-248"/>
</g>
<g id="clust40" class="cluster">
<title>outer_cluster_Inst&#45;3</title>
</g>
<g id="clust41" class="cluster">
<title>cluster_Inst&#45;3</title>
<path fill="#bebada" stroke="black" stroke-dasharray="5,2" d="M592.17,-169C592.17,-169 632.17,-169 632.17,-169 638.17,-169 644.17,-175 644.17,-181 644.17,-181 644.17,-199 644.17,-199 644.17,-205 638.17,-211 632.17,-211 632.17,-211 592.17,-211 592.17,-211 586.17,-211 580.17,-205 580.17,-199 580.17,-199 580.17,-181 580.17,-181 580.17,-175 586.17,-169 592.17,-169"/>
</g>
<g id="clust43" class="cluster">
<title>outer_cluster_Inst&#45;11</title>
</g>
<g id="clust44" class="cluster">
<title>cluster_Inst&#45;11</title>
<path fill="#bebada" stroke="black" stroke-dasharray="5,2" d="M282.17,-248C282.17,-248 434.17,-248 434.17,-248 440.17,-248 446.17,-254 446.17,-260 446.17,-260 446.17,-278 446.17,-278 446.17,-284 440.17,-290 434.17,-290 434.17,-290 282.17,-290 282.17,-290 276.17,-290 270.17,-284 270.17,-278 270.17,-278 270.17,-260 270.17,-260 270.17,-254 276.17,-248 282.17,-248"/>
</g>
<g id="clust46" class="cluster">
<title>outer_cluster_String&#45;0</title>
</g>
<g id="clust47" class="cluster">
<title>cluster_String&#45;0</title>
<path fill="#fb8072" stroke="black" stroke-dasharray="5,2" d="M112.17,-90C112.17,-90 152.17,-90 152.17,-90 158.17,-90 164.17,-96 164.17,-102 164.17,-102 164.17,-120 164.17,-120 164.17,-126 158.17,-132 152.17,-132 152.17,-132 112.17,-132 112.17,-132 106.17,-132 100.17,-126 100.17,-120 100.17,-120 100.17,-102 100.17,-102 100.17,-96 106.17,-90 112.17,-90"/>
</g>
<g id="clust49" class="cluster">
<title>outer_cluster_String&#45;1</title>
</g>
<g id="clust50" class="cluster">
<title>cluster_String&#45;1</title>
<path fill="#fb8072" stroke="black" stroke-dasharray="5,2" d="M662.17,-169C662.17,-169 702.17,-169 702.17,-169 708.17,-169 714.17,-175 714.17,-181 714.17,-181 714.17,-199 714.17,-199 714.17,-205 708.17,-211 702.17,-211 702.17,-211 662.17,-211 662.17,-211 656.17,-211 650.17,-205 650.17,-199 650.17,-199 650.17,-181 650.17,-181 650.17,-175 656.17,-169 662.17,-169"/>
</g>
<g id="clust52" class="cluster">
<title>outer_cluster_String&#45;3</title>
</g>
<g id="clust53" class="cluster">
<title>cluster_String&#45;3</title>
<path fill="#fb8072" stroke="black" stroke-dasharray="5,2" d="M587.17,-90C587.17,-90 639.17,-90 639.17,-90 645.17,-90 651.17,-96 651.17,-102 651.17,-102 651.17,-120 651.17,-120 651.17,-126 645.17,-132 639.17,-132 639.17,-132 587.17,-132 587.17,-132 581.17,-132 575.17,-126 575.17,-120 575.17,-120 575.17,-102 575.17,-102 575.17,-96 581.17,-90 587.17,-90"/>
</g>
<g id="clust55" class="cluster">
<title>outer_cluster_String&#45;2</title>
</g>
<g id="clust56" class="cluster">
<title>cluster_String&#45;2</title>
<path fill="#fb8072" stroke="black" stroke-dasharray="5,2" d="M366.17,-90C366.17,-90 406.17,-90 406.17,-90 412.17,-90 418.17,-96 418.17,-102 418.17,-102 418.17,-120 418.17,-120 418.17,-126 412.17,-132 406.17,-132 406.17,-132 366.17,-132 366.17,-132 360.17,-132 354.17,-126 354.17,-120 354.17,-120 354.17,-102 354.17,-102 354.17,-96 360.17,-90 366.17,-90"/>
</g>
<g id="clust58" class="cluster">
<title>outer_cluster_i64&#45;0</title>
</g>
<g id="clust59" class="cluster">
<title>cluster_i64&#45;0</title>
<path fill="#80b1d3" stroke="black" stroke-dasharray="5,2" d="M521.17,-90C521.17,-90 557.17,-90 557.17,-90 563.17,-90 569.17,-96 569.17,-102 569.17,-102 569.17,-120 569.17,-120 569.17,-126 563.17,-132 557.17,-132 557.17,-132 521.17,-132 521.17,-132 515.17,-132 509.17,-126 509.17,-120 509.17,-120 509.17,-102 509.17,-102 509.17,-96 515.17,-90 521.17,-90"/>
</g>
<g id="clust61" class="cluster">
<title>outer_cluster_i64&#45;4</title>
</g>
<g id="clust62" class="cluster">
<title>cluster_i64&#45;4</title>
<path fill="#80b1d3" stroke="black" stroke-dasharray="5,2" d="M247.17,-11C247.17,-11 283.17,-11 283.17,-11 289.17,-11 295.17,-17 295.17,-23 295.17,-23 295.17,-41 295.17,-41 295.17,-47 289.17,-53 283.17,-53 283.17,-53 247.17,-53 247.17,-53 241.17,-53 235.17,-47 235.17,-41 235.17,-41 235.17,-23 235.17,-23 235.17,-17 241.17,-11 247.17,-11"/>
</g>
<g id="clust64" class="cluster">
<title>outer_cluster_i64&#45;2147483649</title>
</g>
<g id="clust65" class="cluster">
<title>cluster_i64&#45;2147483649</title>
<path fill="#80b1d3" stroke="black" stroke-dasharray="5,2" d="M41.17,-90C41.17,-90 77.17,-90 77.17,-90 83.17,-90 89.17,-96 89.17,-102 89.17,-102 89.17,-120 89.17,-120 89.17,-126 83.17,-132 77.17,-132 77.17,-132 41.17,-132 41.17,-132 35.17,-132 29.17,-126 29.17,-120 29.17,-120 29.17,-102 29.17,-102 29.17,-96 35.17,-90 41.17,-90"/>
</g>
<!-- function&#45;0&#45;ImmVal&#45;&gt;primitive&#45;i64&#45;2147483649 -->
<g id="edge1" class="edge">
<title>function&#45;0&#45;ImmVal:s&#45;&gt;primitive&#45;i64&#45;2147483649</title>
<path fill="none" stroke="black" d="M59.17,-174C59.17,-160.84 59.17,-146.11 59.17,-134.3"/>
<polygon fill="black" stroke="black" points="60.92,-137 59.17,-132 57.42,-137 60.92,-137"/>
</g>
<!-- function&#45;1&#45;ImmVal&#45;&gt;primitive&#45;i64&#45;0 -->
<g id="edge2" class="edge">
<title>function&#45;1&#45;ImmVal:s&#45;&gt;primitive&#45;i64&#45;0</title>
<path fill="none" stroke="black" d="M540.17,-174C540.17,-160.84 539.94,-146.1 539.7,-134.3"/>
<polygon fill="black" stroke="black" points="541.58,-136.91 539.59,-132 538.08,-137.08 541.58,-136.91"/>
</g>
<!-- function&#45;2&#45;ImmVal&#45;&gt;primitive&#45;i64&#45;4 -->
<g id="edge3" class="edge">
<title>function&#45;2&#45;ImmVal:s&#45;&gt;primitive&#45;i64&#45;4</title>
<path fill="none" stroke="black" d="M265.17,-95C265.17,-81.84 265.17,-67.11 265.17,-55.3"/>
<polygon fill="black" stroke="black" points="266.92,-58 265.17,-53 263.42,-58 266.92,-58"/>
</g>
<!-- function&#45;1&#45;Jal&#45;&gt;function&#45;2&#45;ImmVal -->
<g id="edge4" class="edge">
<title>function&#45;1&#45;Jal:s&#45;&gt;function&#45;2&#45;ImmVal</title>
<path fill="none" stroke="black" d="M265.17,-174C265.17,-160.84 265.17,-146.11 265.17,-134.3"/>
<polygon fill="black" stroke="black" points="266.92,-137 265.17,-132 263.42,-137 266.92,-137"/>
</g>
<!-- function&#45;2&#45;Beq&#45;&gt;function&#45;2&#45;ImmVal -->
<g id="edge7" class="edge">
<title>function&#45;2&#45;Beq:s&#45;&gt;function&#45;2&#45;ImmVal</title>
<path fill="none" stroke="black" d="M132.17,-253C132.17,-230.58 150.82,-232.02 164.17,-214 179.43,-193.4 178.74,-184.81 196.17,-166 207.68,-153.57 222.25,-141.73 235.02,-132.32"/>
<polygon fill="black" stroke="black" points="231.87,-134.95 236.28,-132 231,-131.56 231.87,-134.95"/>
</g>
<!-- function&#45;2&#45;Beq&#45;&gt;function&#45;0&#45;RegVal -->
<g id="edge5" class="edge">
<title>function&#45;2&#45;Beq:s&#45;&gt;function&#45;0&#45;RegVal</title>
<path fill="none" stroke="black" d="M109.17,-253C109.17,-239.11 114.13,-224.42 119.35,-212.83"/>
<polygon fill="black" stroke="black" points="119.24,-216.12 120.58,-211 116.33,-214.17 119.24,-216.12"/>
</g>
<!-- function&#45;2&#45;Beq&#45;&gt;function&#45;2&#45;RegVal -->
<g id="edge6" class="edge">
<title>function&#45;2&#45;Beq:s&#45;&gt;function&#45;2&#45;RegVal</title>
<path fill="none" stroke="black" d="M123.17,-253C123.17,-240.91 137.46,-248.03 149.17,-245 213.81,-228.28 231.16,-229.25 296.17,-214 314.47,-209.71 334.78,-204.49 351.37,-200.12"/>
<polygon fill="black" stroke="black" points="350.18,-203.17 353.17,-198.79 348.1,-200.35 350.18,-203.17"/>
</g>
<!-- function&#45;0&#45;RegVal&#45;&gt;primitive&#45;String&#45;0 -->
<g id="edge24" class="edge">
<title>function&#45;0&#45;RegVal:s&#45;&gt;primitive&#45;String&#45;0</title>
<path fill="none" stroke="black" d="M132.17,-174C132.17,-160.84 132.17,-146.11 132.17,-134.3"/>
<polygon fill="black" stroke="black" points="133.92,-137 132.17,-132 130.42,-137 133.92,-137"/>
</g>
<!-- function&#45;2&#45;RegVal&#45;&gt;primitive&#45;String&#45;2 -->
<g id="edge23" class="edge">
<title>function&#45;2&#45;RegVal:s&#45;&gt;primitive&#45;String&#45;2</title>
<path fill="none" stroke="black" d="M386.17,-174C386.17,-160.84 386.17,-146.11 386.17,-134.3"/>
<polygon fill="black" stroke="black" points="387.92,-137 386.17,-132 384.42,-137 387.92,-137"/>
</g>
<!-- function&#45;3&#45;Beq&#45;&gt;function&#45;2&#45;ImmVal -->
<g id="edge10" class="edge">
<title>function&#45;3&#45;Beq:s&#45;&gt;function&#45;2&#45;ImmVal</title>
<path fill="none" stroke="black" d="M190.17,-253C190.17,-205.89 223.2,-159.2 245.43,-133.13"/>
<polygon fill="black" stroke="black" points="244,-136.44 246.89,-132 241.86,-133.66 244,-136.44"/>
</g>
<!-- function&#45;3&#45;Beq&#45;&gt;function&#45;0&#45;RegVal -->
<g id="edge9" class="edge">
<title>function&#45;3&#45;Beq:s&#45;&gt;function&#45;0&#45;RegVal</title>
<path fill="none" stroke="black" d="M181.17,-253C181.17,-236.85 170.76,-222.53 159.44,-211.73"/>
<polygon fill="black" stroke="black" points="163.52,-212.91 158.58,-211 161.25,-215.58 163.52,-212.91"/>
</g>
<!-- function&#45;3&#45;Beq&#45;&gt;function&#45;2&#45;RegVal -->
<g id="edge8" class="edge">
<title>function&#45;3&#45;Beq:s&#45;&gt;function&#45;2&#45;RegVal</title>
<path fill="none" stroke="black" d="M167.17,-253C167.17,-248.28 289.92,-215.73 351.2,-199.78"/>
<polygon fill="black" stroke="black" points="349.97,-202.69 353.17,-198.47 348.03,-199.78 349.97,-202.69"/>
</g>
<!-- function&#45;2&#45;Seq2&#45;&gt;function&#45;1&#45;Jal -->
<g id="edge12" class="edge">
<title>function&#45;2&#45;Seq2:s&#45;&gt;function&#45;1&#45;Jal</title>
<path fill="none" stroke="black" d="M245.17,-253C245.17,-239.24 249.68,-224.56 254.42,-212.94"/>
<polygon fill="black" stroke="black" points="254.65,-216.24 255.45,-211 251.56,-214.6 254.65,-216.24"/>
</g>
<!-- function&#45;2&#45;Seq2&#45;&gt;function&#45;1&#45;Seq2 -->
<g id="edge11" class="edge">
<title>function&#45;2&#45;Seq2:s&#45;&gt;function&#45;1&#45;Seq2</title>
<path fill="none" stroke="black" d="M223.17,-253C223.17,-232.44 247.25,-239.47 268.3,-249.89"/>
<polygon fill="black" stroke="black" points="265.12,-249.68 270.17,-251.3 267.23,-246.89 265.12,-249.68"/>
</g>
<!-- function&#45;1&#45;Seq2&#45;&gt;function&#45;1&#45;Jal -->
<g id="edge39" class="edge">
<title>function&#45;1&#45;Seq2:s&#45;&gt;function&#45;1&#45;Jal</title>
<path fill="none" stroke="black" d="M311.17,-253C311.17,-237.1 301.29,-222.63 290.7,-211.67"/>
<polygon fill="black" stroke="black" points="294.38,-211.32 289.09,-211 293.03,-214.54 294.38,-211.32"/>
</g>
<!-- function&#45;1&#45;Seq2&#45;&gt;function&#45;2&#45;Beq -->
<g id="edge38" class="edge">
<title>function&#45;1&#45;Seq2:s&#45;&gt;function&#45;2&#45;Beq</title>
<path fill="none" stroke="black" d="M289.17,-253C289.17,-190.28 207.04,-195 151.17,-223.5 141.63,-228.36 134.21,-237.41 128.84,-246.17"/>
<polygon fill="black" stroke="black" points="129.28,-243.19 127.07,-248 131.8,-245.62 129.28,-243.19"/>
</g>
<!-- function&#45;0&#45;Beq&#45;&gt;function&#45;1&#45;ImmVal -->
<g id="edge15" class="edge">
<title>function&#45;0&#45;Beq:s&#45;&gt;function&#45;1&#45;ImmVal</title>
<path fill="none" stroke="black" d="M479.17,-332C479.17,-301.67 520.47,-319.53 535.17,-293 548.84,-268.3 547.44,-234.87 544.43,-213.12"/>
<polygon fill="black" stroke="black" points="546.99,-215.13 543.68,-211 543.69,-216.3 546.99,-215.13"/>
</g>
<!-- function&#45;0&#45;Beq&#45;&gt;function&#45;0&#45;RegVal -->
<g id="edge13" class="edge">
<title>function&#45;0&#45;Beq:s&#45;&gt;function&#45;0&#45;RegVal</title>
<path fill="none" stroke="black" d="M456.17,-332C456.17,-232.51 77.9,-365.87 10.17,-293 -4.36,-277.37 -2.03,-262.5 10.17,-245 32.92,-212.35 58.42,-231.48 94.17,-214 94.53,-213.82 94.89,-213.65 95.25,-213.47"/>
<polygon fill="black" stroke="black" points="96.35,-214.86 99.97,-211 94.73,-211.76 96.35,-214.86"/>
</g>
<!-- function&#45;0&#45;Beq&#45;&gt;function&#45;2&#45;RegVal -->
<g id="edge14" class="edge">
<title>function&#45;0&#45;Beq:s&#45;&gt;function&#45;2&#45;RegVal</title>
<path fill="none" stroke="black" d="M470.17,-332C470.17,-322 452.45,-253.49 447.17,-245 439.11,-232.05 426.97,-220.5 415.57,-211.44"/>
<polygon fill="black" stroke="black" points="419.71,-211.12 414.41,-211 418.48,-214.4 419.71,-211.12"/>
</g>
<!-- function&#45;1&#45;Beq&#45;&gt;function&#45;1&#45;ImmVal -->
<g id="edge18" class="edge">
<title>function&#45;1&#45;Beq:s&#45;&gt;function&#45;1&#45;ImmVal</title>
<path fill="none" stroke="black" d="M537.17,-332C537.17,-314.21 544.15,-310.67 546.17,-293 548.58,-271.8 547.35,-266.3 546.17,-245 545.59,-234.67 544.41,-223.28 543.24,-213.63"/>
<polygon fill="black" stroke="black" points="545.49,-215.44 542.6,-211 542.09,-216.27 545.49,-215.44"/>
</g>
<!-- function&#45;1&#45;Beq&#45;&gt;function&#45;0&#45;RegVal -->
<g id="edge17" class="edge">
<title>function&#45;1&#45;Beq:s&#45;&gt;function&#45;0&#45;RegVal</title>
<path fill="none" stroke="black" d="M528.17,-332C528.17,-275.5 59.78,-334.24 21.17,-293 6.58,-277.43 9.39,-262.79 21.17,-245 40.62,-215.61 62.88,-230.24 94.17,-214 94.51,-213.82 94.85,-213.64 95.2,-213.46"/>
<polygon fill="black" stroke="black" points="96.16,-214.93 99.72,-211 94.49,-211.85 96.16,-214.93"/>
</g>
<!-- function&#45;1&#45;Beq&#45;&gt;function&#45;2&#45;RegVal -->
<g id="edge16" class="edge">
<title>function&#45;1&#45;Beq:s&#45;&gt;function&#45;2&#45;RegVal</title>
<path fill="none" stroke="black" d="M514.17,-332C514.17,-306.85 486.45,-314.35 473.17,-293 461.36,-274.02 471.12,-263.21 458.17,-245 447.81,-230.45 432.33,-218.2 418.28,-209.07"/>
<polygon fill="black" stroke="black" points="422.31,-209.62 417.17,-208.34 420.38,-212.55 422.31,-209.62"/>
</g>
<!-- function&#45;0&#45;Seq2&#45;&gt;function&#45;0&#45;Bne -->
<g id="edge19" class="edge">
<title>function&#45;0&#45;Seq2:s&#45;&gt;function&#45;0&#45;Bne</title>
<path fill="none" stroke="black" d="M396.17,-332C396.17,-318.24 400.68,-303.56 405.42,-291.94"/>
<polygon fill="black" stroke="black" points="405.65,-295.24 406.45,-290 402.56,-293.6 405.65,-295.24"/>
</g>
<!-- function&#45;0&#45;Seq2&#45;&gt;function&#45;0&#45;Jal -->
<g id="edge20" class="edge">
<title>function&#45;0&#45;Seq2:s&#45;&gt;function&#45;0&#45;Jal</title>
<path fill="none" stroke="black" d="M418.17,-332C418.17,-318.14 447.94,-299.12 472.45,-285.82"/>
<polygon fill="black" stroke="black" points="471.42,-288.94 474.17,-284.41 469.19,-286.23 471.42,-288.94"/>
</g>
<!-- function&#45;0&#45;Bne&#45;&gt;function&#45;2&#45;ImmVal -->
<g id="edge34" class="edge">
<title>function&#45;0&#45;Bne:s&#45;&gt;function&#45;2&#45;ImmVal</title>
<path fill="none" stroke="black" d="M430.17,-253C430.17,-214.24 380.64,-240.29 352.17,-214 333.85,-197.09 338.88,-185.34 323.17,-166 313.43,-154.02 301.09,-142.16 290.29,-132.63"/>
<polygon fill="black" stroke="black" points="294.49,-133.43 289.39,-132 292.49,-136.3 294.49,-133.43"/>
</g>
<!-- function&#45;0&#45;Bne&#45;&gt;function&#45;0&#45;RegVal -->
<g id="edge32" class="edge">
<title>function&#45;0&#45;Bne:s&#45;&gt;function&#45;0&#45;RegVal</title>
<path fill="none" stroke="black" d="M407.17,-253C407.17,-245.86 436.97,-257.46 234.17,-214 211.04,-209.05 185.06,-203.24 164.97,-198.7"/>
<polygon fill="black" stroke="black" points="168.33,-198.74 163.17,-197.58 166.48,-201.71 168.33,-198.74"/>
</g>
<!-- function&#45;0&#45;Bne&#45;&gt;function&#45;2&#45;RegVal -->
<g id="edge33" class="edge">
<title>function&#45;0&#45;Bne:s&#45;&gt;function&#45;2&#45;RegVal</title>
<path fill="none" stroke="black" d="M421.17,-253C421.17,-238.03 413.23,-223.45 404.8,-212.19"/>
<polygon fill="black" stroke="black" points="408.38,-213.46 403.69,-211 405.82,-215.85 408.38,-213.46"/>
</g>
<!-- function&#45;0&#45;Jal&#45;&gt;function&#45;1&#45;ImmVal -->
<g id="edge30" class="edge">
<title>function&#45;0&#45;Jal:s&#45;&gt;function&#45;1&#45;ImmVal</title>
<path fill="none" stroke="black" d="M504.17,-253C504.17,-238.03 512.11,-223.45 520.53,-212.19"/>
<polygon fill="black" stroke="black" points="519.51,-215.85 521.64,-211 516.95,-213.46 519.51,-215.85"/>
</g>
<!-- function&#45;0&#45;Addi&#45;&gt;function&#45;0&#45;ImmVal -->
<g id="edge22" class="edge">
<title>function&#45;0&#45;Addi:s&#45;&gt;function&#45;0&#45;ImmVal</title>
<path fill="none" stroke="black" d="M62.17,-253C62.17,-239.82 61.48,-225.09 60.77,-213.29"/>
<polygon fill="black" stroke="black" points="62.88,-215.7 60.44,-211 59.42,-216.2 62.88,-215.7"/>
</g>
<!-- function&#45;0&#45;Addi&#45;&gt;function&#45;0&#45;RegVal -->
<g id="edge21" class="edge">
<title>function&#45;0&#45;Addi:s&#45;&gt;function&#45;0&#45;RegVal</title>
<path fill="none" stroke="black" d="M42.17,-253C42.17,-249.58 70.9,-230.03 95.72,-213.78"/>
<polygon fill="black" stroke="black" points="96.75,-215.2 99.98,-211 94.83,-212.27 96.75,-215.2"/>
</g>
<!-- function&#45;1&#45;Addi&#45;&gt;function&#45;1&#45;ImmVal -->
<g id="edge26" class="edge">
<title>function&#45;1&#45;Addi:s&#45;&gt;function&#45;1&#45;ImmVal</title>
<path fill="none" stroke="black" d="M608.17,-253C608.17,-241.93 588.26,-224.69 569.98,-211.2"/>
<polygon fill="black" stroke="black" points="574.1,-210.14 568.87,-211 573.49,-213.59 574.1,-210.14"/>
</g>
<!-- function&#45;1&#45;Addi&#45;&gt;function&#45;3&#45;RegVal -->
<g id="edge25" class="edge">
<title>function&#45;1&#45;Addi:s&#45;&gt;function&#45;3&#45;RegVal</title>
<path fill="none" stroke="black" d="M588.17,-253C588.17,-239.06 593.51,-224.48 599.15,-212.96"/>
<polygon fill="black" stroke="black" points="599.05,-216.08 600.57,-211 596.22,-214.02 599.05,-216.08"/>
</g>
<!-- function&#45;3&#45;RegVal&#45;&gt;primitive&#45;String&#45;3 -->
<g id="edge31" class="edge">
<title>function&#45;3&#45;RegVal:s&#45;&gt;primitive&#45;String&#45;3</title>
<path fill="none" stroke="black" d="M613.17,-174C613.17,-160.84 613.17,-146.11 613.17,-134.3"/>
<polygon fill="black" stroke="black" points="614.92,-137 613.17,-132 611.42,-137 614.92,-137"/>
</g>
<!-- function&#45;0&#45;Srl&#45;&gt;function&#45;0&#45;Addi -->
<g id="edge28" class="edge">
<title>function&#45;0&#45;Srl:s&#45;&gt;function&#45;0&#45;Addi</title>
<path fill="none" stroke="black" d="M650.17,-332C650.17,-289.19 596.86,-327.2 554.17,-324 450.45,-316.24 185.77,-326.09 87.17,-293 86.41,-292.75 85.65,-292.47 84.89,-292.18"/>
<polygon fill="black" stroke="black" points="85.23,-290.41 79.95,-290 83.82,-293.62 85.23,-290.41"/>
</g>
<!-- function&#45;0&#45;Srl&#45;&gt;function&#45;1&#45;RegVal -->
<g id="edge27" class="edge">
<title>function&#45;0&#45;Srl:s&#45;&gt;function&#45;1&#45;RegVal</title>
<path fill="none" stroke="black" d="M634.17,-332C634.17,-316.23 643.75,-301.67 653.98,-290.63"/>
<polygon fill="black" stroke="black" points="651.55,-293.58 655.45,-290 650.17,-290.36 651.55,-293.58"/>
</g>
<!-- function&#45;1&#45;RegVal&#45;&gt;primitive&#45;String&#45;1 -->
<g id="edge29" class="edge">
<title>function&#45;1&#45;RegVal:s&#45;&gt;primitive&#45;String&#45;1</title>
<path fill="none" stroke="black" d="M679.17,-253C679.17,-239.82 679.85,-225.09 680.57,-213.29"/>
<polygon fill="black" stroke="black" points="681.92,-216.2 680.89,-211 678.45,-215.7 681.92,-216.2"/>
</g>
<!-- function&#45;1&#45;Bne&#45;&gt;function&#45;2&#45;ImmVal -->
<g id="edge37" class="edge">
<title>function&#45;1&#45;Bne:s&#45;&gt;function&#45;2&#45;ImmVal</title>
<path fill="none" stroke="black" d="M372.17,-253C372.17,-229.71 351.68,-232.21 337.17,-214 315.72,-187.1 293.19,-154.35 279.17,-133.34"/>
<polygon fill="black" stroke="black" points="282.39,-133.51 277.31,-132 280.34,-136.34 282.39,-133.51"/>
</g>
<!-- function&#45;1&#45;Bne&#45;&gt;function&#45;0&#45;RegVal -->
<g id="edge36" class="edge">
<title>function&#45;1&#45;Bne:s&#45;&gt;function&#45;0&#45;RegVal</title>
<path fill="none" stroke="black" d="M363.17,-253C363.17,-247.93 229.34,-214.8 164.97,-199.15"/>
<polygon fill="black" stroke="black" points="168.3,-199.26 163.17,-197.97 166.38,-202.18 168.3,-199.26"/>
</g>
<!-- function&#45;1&#45;Bne&#45;&gt;function&#45;2&#45;RegVal -->
<g id="edge35" class="edge">
<title>function&#45;1&#45;Bne:s&#45;&gt;function&#45;2&#45;RegVal</title>
<path fill="none" stroke="black" d="M349.17,-253C349.17,-238.03 357.11,-223.45 365.53,-212.19"/>
<polygon fill="black" stroke="black" points="364.51,-215.85 366.64,-211 361.95,-213.46 364.51,-215.85"/>
</g>
<!-- function&#45;0&#45;ImmVal -->
<g id="node1" class="node">
<title>function&#45;0&#45;ImmVal</title>
<g id="a_node1"><a xlink:title="Imm&#45;4: function&#45;0&#45;ImmVal">
<path fill="white" stroke="transparent" d="M38.83,-174C38.83,-174 79.5,-174 79.5,-174 84.83,-174 90.17,-179.33 90.17,-184.67 90.17,-184.67 90.17,-195.33 90.17,-195.33 90.17,-200.67 84.83,-206 79.5,-206 79.5,-206 38.83,-206 38.83,-206 33.5,-206 28.17,-200.67 28.17,-195.33 28.17,-195.33 28.17,-184.67 28.17,-184.67 28.17,-179.33 33.5,-174 38.83,-174"/>
<text text-anchor="start" x="33.17" y="-186.3" font-family="Helvetica,sans-Serif" font-size="14.00">ImmVal</text>
<path fill="none" stroke="black" d="M38.83,-174C38.83,-174 79.5,-174 79.5,-174 84.83,-174 90.17,-179.33 90.17,-184.67 90.17,-184.67 90.17,-195.33 90.17,-195.33 90.17,-200.67 84.83,-206 79.5,-206 79.5,-206 38.83,-206 38.83,-206 33.5,-206 28.17,-200.67 28.17,-195.33 28.17,-195.33 28.17,-184.67 28.17,-184.67 28.17,-179.33 33.5,-174 38.83,-174"/>
</a>
</g>
</g>
<!-- primitive&#45;i64&#45;2147483649 -->
<g id="node2" class="node">
<title>primitive&#45;i64&#45;2147483649</title>
<g id="a_node2"><a xlink:title="i64&#45;2147483649: primitive&#45;i64&#45;2147483649">
<path fill="white" stroke="transparent" d="M52.83,-95C52.83,-95 65.5,-95 65.5,-95 70.83,-95 76.17,-100.33 76.17,-105.67 76.17,-105.67 76.17,-116.33 76.17,-116.33 76.17,-121.67 70.83,-127 65.5,-127 65.5,-127 52.83,-127 52.83,-127 47.5,-127 42.17,-121.67 42.17,-116.33 42.17,-116.33 42.17,-105.67 42.17,-105.67 42.17,-100.33 47.5,-95 52.83,-95"/>
<text text-anchor="start" x="47.17" y="-107.3" font-family="Helvetica,sans-Serif" font-size="14.00">&#45;32</text>
<path fill="none" stroke="black" d="M52.83,-95C52.83,-95 65.5,-95 65.5,-95 70.83,-95 76.17,-100.33 76.17,-105.67 76.17,-105.67 76.17,-116.33 76.17,-116.33 76.17,-121.67 70.83,-127 65.5,-127 65.5,-127 52.83,-127 52.83,-127 47.5,-127 42.17,-121.67 42.17,-116.33 42.17,-116.33 42.17,-105.67 42.17,-105.67 42.17,-100.33 47.5,-95 52.83,-95"/>
</a>
</g>
</g>
<!-- function&#45;1&#45;ImmVal -->
<g id="node3" class="node">
<title>function&#45;1&#45;ImmVal</title>
<g id="a_node3"><a xlink:title="Imm&#45;7: function&#45;1&#45;ImmVal">
<path fill="white" stroke="transparent" d="M519.83,-174C519.83,-174 560.5,-174 560.5,-174 565.83,-174 571.17,-179.33 571.17,-184.67 571.17,-184.67 571.17,-195.33 571.17,-195.33 571.17,-200.67 565.83,-206 560.5,-206 560.5,-206 519.83,-206 519.83,-206 514.5,-206 509.17,-200.67 509.17,-195.33 509.17,-195.33 509.17,-184.67 509.17,-184.67 509.17,-179.33 514.5,-174 519.83,-174"/>
<text text-anchor="start" x="514.17" y="-186.3" font-family="Helvetica,sans-Serif" font-size="14.00">ImmVal</text>
<path fill="none" stroke="black" d="M519.83,-174C519.83,-174 560.5,-174 560.5,-174 565.83,-174 571.17,-179.33 571.17,-184.67 571.17,-184.67 571.17,-195.33 571.17,-195.33 571.17,-200.67 565.83,-206 560.5,-206 560.5,-206 519.83,-206 519.83,-206 514.5,-206 509.17,-200.67 509.17,-195.33 509.17,-195.33 509.17,-184.67 509.17,-184.67 509.17,-179.33 514.5,-174 519.83,-174"/>
</a>
</g>
</g>
<!-- primitive&#45;i64&#45;0 -->
<g id="node4" class="node">
<title>primitive&#45;i64&#45;0</title>
<g id="a_node4"><a xlink:title="i64&#45;0: primitive&#45;i64&#45;0">
<path fill="white" stroke="transparent" d="M533.83,-95C533.83,-95 544.5,-95 544.5,-95 549.83,-95 555.17,-100.33 555.17,-105.67 555.17,-105.67 555.17,-116.33 555.17,-116.33 555.17,-121.67 549.83,-127 544.5,-127 544.5,-127 533.83,-127 533.83,-127 528.5,-127 523.17,-121.67 523.17,-116.33 523.17,-116.33 523.17,-105.67 523.17,-105.67 523.17,-100.33 528.5,-95 533.83,-95"/>
<text text-anchor="start" x="534.17" y="-107.3" font-family="Helvetica,sans-Serif" font-size="14.00">0</text>
<path fill="none" stroke="black" d="M533.83,-95C533.83,-95 544.5,-95 544.5,-95 549.83,-95 555.17,-100.33 555.17,-105.67 555.17,-105.67 555.17,-116.33 555.17,-116.33 555.17,-121.67 549.83,-127 544.5,-127 544.5,-127 533.83,-127 533.83,-127 528.5,-127 523.17,-121.67 523.17,-116.33 523.17,-116.33 523.17,-105.67 523.17,-105.67 523.17,-100.33 528.5,-95 533.83,-95"/>
</a>
</g>
</g>
<!-- function&#45;2&#45;ImmVal -->
<g id="node5" class="node">
<title>function&#45;2&#45;ImmVal</title>
<g id="a_node5"><a xlink:title="Imm&#45;10: function&#45;2&#45;ImmVal">
<path fill="white" stroke="transparent" d="M244.83,-95C244.83,-95 285.5,-95 285.5,-95 290.83,-95 296.17,-100.33 296.17,-105.67 296.17,-105.67 296.17,-116.33 296.17,-116.33 296.17,-121.67 290.83,-127 285.5,-127 285.5,-127 244.83,-127 244.83,-127 239.5,-127 234.17,-121.67 234.17,-116.33 234.17,-116.33 234.17,-105.67 234.17,-105.67 234.17,-100.33 239.5,-95 244.83,-95"/>
<text text-anchor="start" x="239.17" y="-107.3" font-family="Helvetica,sans-Serif" font-size="14.00">ImmVal</text>
<path fill="none" stroke="black" d="M244.83,-95C244.83,-95 285.5,-95 285.5,-95 290.83,-95 296.17,-100.33 296.17,-105.67 296.17,-105.67 296.17,-116.33 296.17,-116.33 296.17,-121.67 290.83,-127 285.5,-127 285.5,-127 244.83,-127 244.83,-127 239.5,-127 234.17,-121.67 234.17,-116.33 234.17,-116.33 234.17,-105.67 234.17,-105.67 234.17,-100.33 239.5,-95 244.83,-95"/>
</a>
</g>
</g>
<!-- primitive&#45;i64&#45;4 -->
<g id="node6" class="node">
<title>primitive&#45;i64&#45;4</title>
<g id="a_node6"><a xlink:title="i64&#45;4: primitive&#45;i64&#45;4">
<path fill="white" stroke="transparent" d="M259.83,-16C259.83,-16 270.5,-16 270.5,-16 275.83,-16 281.17,-21.33 281.17,-26.67 281.17,-26.67 281.17,-37.33 281.17,-37.33 281.17,-42.67 275.83,-48 270.5,-48 270.5,-48 259.83,-48 259.83,-48 254.5,-48 249.17,-42.67 249.17,-37.33 249.17,-37.33 249.17,-26.67 249.17,-26.67 249.17,-21.33 254.5,-16 259.83,-16"/>
<text text-anchor="start" x="260.17" y="-28.3" font-family="Helvetica,sans-Serif" font-size="14.00">4</text>
<path fill="none" stroke="black" d="M259.83,-16C259.83,-16 270.5,-16 270.5,-16 275.83,-16 281.17,-21.33 281.17,-26.67 281.17,-26.67 281.17,-37.33 281.17,-37.33 281.17,-42.67 275.83,-48 270.5,-48 270.5,-48 259.83,-48 259.83,-48 254.5,-48 249.17,-42.67 249.17,-37.33 249.17,-37.33 249.17,-26.67 249.17,-26.67 249.17,-21.33 254.5,-16 259.83,-16"/>
</a>
</g>
</g>
<!-- function&#45;1&#45;Jal -->
<g id="node7" class="node">
<title>function&#45;1&#45;Jal</title>
<g id="a_node7"><a xlink:title="Inst&#45;15: function&#45;1&#45;Jal">
<path fill="white" stroke="transparent" d="M259.83,-174C259.83,-174 270.5,-174 270.5,-174 275.83,-174 281.17,-179.33 281.17,-184.67 281.17,-184.67 281.17,-195.33 281.17,-195.33 281.17,-200.67 275.83,-206 270.5,-206 270.5,-206 259.83,-206 259.83,-206 254.5,-206 249.17,-200.67 249.17,-195.33 249.17,-195.33 249.17,-184.67 249.17,-184.67 249.17,-179.33 254.5,-174 259.83,-174"/>
<text text-anchor="start" x="256.67" y="-186.3" font-family="Helvetica,sans-Serif" font-size="14.00">Jal</text>
<path fill="none" stroke="black" d="M259.83,-174C259.83,-174 270.5,-174 270.5,-174 275.83,-174 281.17,-179.33 281.17,-184.67 281.17,-184.67 281.17,-195.33 281.17,-195.33 281.17,-200.67 275.83,-206 270.5,-206 270.5,-206 259.83,-206 259.83,-206 254.5,-206 249.17,-200.67 249.17,-195.33 249.17,-195.33 249.17,-184.67 249.17,-184.67 249.17,-179.33 254.5,-174 259.83,-174"/>
</a>
</g>
</g>
<!-- function&#45;2&#45;Beq -->
<g id="node8" class="node">
<title>function&#45;2&#45;Beq</title>
<g id="a_node8"><a xlink:title="Inst&#45;14: function&#45;2&#45;Beq">
<path fill="white" stroke="transparent" d="M109.83,-253C109.83,-253 126.5,-253 126.5,-253 131.83,-253 137.17,-258.33 137.17,-263.67 137.17,-263.67 137.17,-274.33 137.17,-274.33 137.17,-279.67 131.83,-285 126.5,-285 126.5,-285 109.83,-285 109.83,-285 104.5,-285 99.17,-279.67 99.17,-274.33 99.17,-274.33 99.17,-263.67 99.17,-263.67 99.17,-258.33 104.5,-253 109.83,-253"/>
<text text-anchor="start" x="104.17" y="-265.3" font-family="Helvetica,sans-Serif" font-size="14.00">Beq</text>
<path fill="none" stroke="black" d="M109.83,-253C109.83,-253 126.5,-253 126.5,-253 131.83,-253 137.17,-258.33 137.17,-263.67 137.17,-263.67 137.17,-274.33 137.17,-274.33 137.17,-279.67 131.83,-285 126.5,-285 126.5,-285 109.83,-285 109.83,-285 104.5,-285 99.17,-279.67 99.17,-274.33 99.17,-274.33 99.17,-263.67 99.17,-263.67 99.17,-258.33 104.5,-253 109.83,-253"/>
</a>
</g>
</g>
<!-- function&#45;0&#45;RegVal -->
<g id="node9" class="node">
<title>function&#45;0&#45;RegVal</title>
<g id="a_node9"><a xlink:title="Inst&#45;0: function&#45;0&#45;RegVal">
<path fill="white" stroke="transparent" d="M113.33,-174C113.33,-174 149,-174 149,-174 154.33,-174 159.67,-179.33 159.67,-184.67 159.67,-184.67 159.67,-195.33 159.67,-195.33 159.67,-200.67 154.33,-206 149,-206 149,-206 113.33,-206 113.33,-206 108,-206 102.67,-200.67 102.67,-195.33 102.67,-195.33 102.67,-184.67 102.67,-184.67 102.67,-179.33 108,-174 113.33,-174"/>
<text text-anchor="start" x="108.17" y="-186.3" font-family="Helvetica,sans-Serif" font-size="14.00">RegVal</text>
<path fill="none" stroke="black" d="M113.33,-174C113.33,-174 149,-174 149,-174 154.33,-174 159.67,-179.33 159.67,-184.67 159.67,-184.67 159.67,-195.33 159.67,-195.33 159.67,-200.67 154.33,-206 149,-206 149,-206 113.33,-206 113.33,-206 108,-206 102.67,-200.67 102.67,-195.33 102.67,-195.33 102.67,-184.67 102.67,-184.67 102.67,-179.33 108,-174 113.33,-174"/>
</a>
</g>
</g>
<!-- function&#45;2&#45;RegVal -->
<g id="node10" class="node">
<title>function&#45;2&#45;RegVal</title>
<g id="a_node10"><a xlink:title="Inst&#45;2: function&#45;2&#45;RegVal">
<path fill="white" stroke="transparent" d="M367.33,-174C367.33,-174 403,-174 403,-174 408.33,-174 413.67,-179.33 413.67,-184.67 413.67,-184.67 413.67,-195.33 413.67,-195.33 413.67,-200.67 408.33,-206 403,-206 403,-206 367.33,-206 367.33,-206 362,-206 356.67,-200.67 356.67,-195.33 356.67,-195.33 356.67,-184.67 356.67,-184.67 356.67,-179.33 362,-174 367.33,-174"/>
<text text-anchor="start" x="362.17" y="-186.3" font-family="Helvetica,sans-Serif" font-size="14.00">RegVal</text>
<path fill="none" stroke="black" d="M367.33,-174C367.33,-174 403,-174 403,-174 408.33,-174 413.67,-179.33 413.67,-184.67 413.67,-184.67 413.67,-195.33 413.67,-195.33 413.67,-200.67 408.33,-206 403,-206 403,-206 367.33,-206 367.33,-206 362,-206 356.67,-200.67 356.67,-195.33 356.67,-195.33 356.67,-184.67 356.67,-184.67 356.67,-179.33 362,-174 367.33,-174"/>
</a>
</g>
</g>
<!-- function&#45;3&#45;Beq -->
<g id="node11" class="node">
<title>function&#45;3&#45;Beq</title>
<g id="a_node11"><a xlink:title="Inst&#45;14: function&#45;3&#45;Beq">
<path fill="white" stroke="transparent" d="M167.83,-253C167.83,-253 184.5,-253 184.5,-253 189.83,-253 195.17,-258.33 195.17,-263.67 195.17,-263.67 195.17,-274.33 195.17,-274.33 195.17,-279.67 189.83,-285 184.5,-285 184.5,-285 167.83,-285 167.83,-285 162.5,-285 157.17,-279.67 157.17,-274.33 157.17,-274.33 157.17,-263.67 157.17,-263.67 157.17,-258.33 162.5,-253 167.83,-253"/>
<text text-anchor="start" x="162.17" y="-265.3" font-family="Helvetica,sans-Serif" font-size="14.00">Beq</text>
<path fill="none" stroke="black" d="M167.83,-253C167.83,-253 184.5,-253 184.5,-253 189.83,-253 195.17,-258.33 195.17,-263.67 195.17,-263.67 195.17,-274.33 195.17,-274.33 195.17,-279.67 189.83,-285 184.5,-285 184.5,-285 167.83,-285 167.83,-285 162.5,-285 157.17,-279.67 157.17,-274.33 157.17,-274.33 157.17,-263.67 157.17,-263.67 157.17,-258.33 162.5,-253 167.83,-253"/>
</a>
</g>
</g>
<!-- function&#45;2&#45;Seq2 -->
<g id="node12" class="node">
<title>function&#45;2&#45;Seq2</title>
<g id="a_node12"><a xlink:title="Inst&#45;14: function&#45;2&#45;Seq2">
<path fill="white" stroke="transparent" d="M221.83,-253C221.83,-253 246.5,-253 246.5,-253 251.83,-253 257.17,-258.33 257.17,-263.67 257.17,-263.67 257.17,-274.33 257.17,-274.33 257.17,-279.67 251.83,-285 246.5,-285 246.5,-285 221.83,-285 221.83,-285 216.5,-285 211.17,-279.67 211.17,-274.33 211.17,-274.33 211.17,-263.67 211.17,-263.67 211.17,-258.33 216.5,-253 221.83,-253"/>
<text text-anchor="start" x="216.17" y="-265.3" font-family="Helvetica,sans-Serif" font-size="14.00">Seq2</text>
<path fill="none" stroke="black" d="M221.83,-253C221.83,-253 246.5,-253 246.5,-253 251.83,-253 257.17,-258.33 257.17,-263.67 257.17,-263.67 257.17,-274.33 257.17,-274.33 257.17,-279.67 251.83,-285 246.5,-285 246.5,-285 221.83,-285 221.83,-285 216.5,-285 211.17,-279.67 211.17,-274.33 211.17,-274.33 211.17,-263.67 211.17,-263.67 211.17,-258.33 216.5,-253 221.83,-253"/>
</a>
</g>
</g>
<!-- function&#45;1&#45;Seq2 -->
<g id="node13" class="node">
<title>function&#45;1&#45;Seq2</title>
<g id="a_node13"><a xlink:title="Inst&#45;11: function&#45;1&#45;Seq2">
<path fill="white" stroke="transparent" d="M287.83,-253C287.83,-253 312.5,-253 312.5,-253 317.83,-253 323.17,-258.33 323.17,-263.67 323.17,-263.67 323.17,-274.33 323.17,-274.33 323.17,-279.67 317.83,-285 312.5,-285 312.5,-285 287.83,-285 287.83,-285 282.5,-285 277.17,-279.67 277.17,-274.33 277.17,-274.33 277.17,-263.67 277.17,-263.67 277.17,-258.33 282.5,-253 287.83,-253"/>
<text text-anchor="start" x="282.17" y="-265.3" font-family="Helvetica,sans-Serif" font-size="14.00">Seq2</text>
<path fill="none" stroke="black" d="M287.83,-253C287.83,-253 312.5,-253 312.5,-253 317.83,-253 323.17,-258.33 323.17,-263.67 323.17,-263.67 323.17,-274.33 323.17,-274.33 323.17,-279.67 317.83,-285 312.5,-285 312.5,-285 287.83,-285 287.83,-285 282.5,-285 277.17,-279.67 277.17,-274.33 277.17,-274.33 277.17,-263.67 277.17,-263.67 277.17,-258.33 282.5,-253 287.83,-253"/>
</a>
</g>
</g>
<!-- function&#45;0&#45;Beq -->
<g id="node14" class="node">
<title>function&#45;0&#45;Beq</title>
<g id="a_node14"><a xlink:title="Inst&#45;9: function&#45;0&#45;Beq">
<path fill="white" stroke="transparent" d="M456.83,-332C456.83,-332 473.5,-332 473.5,-332 478.83,-332 484.17,-337.33 484.17,-342.67 484.17,-342.67 484.17,-353.33 484.17,-353.33 484.17,-358.67 478.83,-364 473.5,-364 473.5,-364 456.83,-364 456.83,-364 451.5,-364 446.17,-358.67 446.17,-353.33 446.17,-353.33 446.17,-342.67 446.17,-342.67 446.17,-337.33 451.5,-332 456.83,-332"/>
<text text-anchor="start" x="451.17" y="-344.3" font-family="Helvetica,sans-Serif" font-size="14.00">Beq</text>
<path fill="none" stroke="black" d="M456.83,-332C456.83,-332 473.5,-332 473.5,-332 478.83,-332 484.17,-337.33 484.17,-342.67 484.17,-342.67 484.17,-353.33 484.17,-353.33 484.17,-358.67 478.83,-364 473.5,-364 473.5,-364 456.83,-364 456.83,-364 451.5,-364 446.17,-358.67 446.17,-353.33 446.17,-353.33 446.17,-342.67 446.17,-342.67 446.17,-337.33 451.5,-332 456.83,-332"/>
</a>
</g>
</g>
<!-- function&#45;1&#45;Beq -->
<g id="node15" class="node">
<title>function&#45;1&#45;Beq</title>
<g id="a_node15"><a xlink:title="Inst&#45;9: function&#45;1&#45;Beq">
<path fill="white" stroke="transparent" d="M514.83,-332C514.83,-332 531.5,-332 531.5,-332 536.83,-332 542.17,-337.33 542.17,-342.67 542.17,-342.67 542.17,-353.33 542.17,-353.33 542.17,-358.67 536.83,-364 531.5,-364 531.5,-364 514.83,-364 514.83,-364 509.5,-364 504.17,-358.67 504.17,-353.33 504.17,-353.33 504.17,-342.67 504.17,-342.67 504.17,-337.33 509.5,-332 514.83,-332"/>
<text text-anchor="start" x="509.17" y="-344.3" font-family="Helvetica,sans-Serif" font-size="14.00">Beq</text>
<path fill="none" stroke="black" d="M514.83,-332C514.83,-332 531.5,-332 531.5,-332 536.83,-332 542.17,-337.33 542.17,-342.67 542.17,-342.67 542.17,-353.33 542.17,-353.33 542.17,-358.67 536.83,-364 531.5,-364 531.5,-364 514.83,-364 514.83,-364 509.5,-364 504.17,-358.67 504.17,-353.33 504.17,-353.33 504.17,-342.67 504.17,-342.67 504.17,-337.33 509.5,-332 514.83,-332"/>
</a>
</g>
</g>
<!-- function&#45;0&#45;Seq2 -->
<g id="node16" class="node">
<title>function&#45;0&#45;Seq2</title>
<g id="a_node16"><a xlink:title="Inst&#45;9: function&#45;0&#45;Seq2">
<path fill="white" stroke="transparent" d="M394.83,-332C394.83,-332 419.5,-332 419.5,-332 424.83,-332 430.17,-337.33 430.17,-342.67 430.17,-342.67 430.17,-353.33 430.17,-353.33 430.17,-358.67 424.83,-364 419.5,-364 419.5,-364 394.83,-364 394.83,-364 389.5,-364 384.17,-358.67 384.17,-353.33 384.17,-353.33 384.17,-342.67 384.17,-342.67 384.17,-337.33 389.5,-332 394.83,-332"/>
<text text-anchor="start" x="389.17" y="-344.3" font-family="Helvetica,sans-Serif" font-size="14.00">Seq2</text>
<path fill="none" stroke="black" d="M394.83,-332C394.83,-332 419.5,-332 419.5,-332 424.83,-332 430.17,-337.33 430.17,-342.67 430.17,-342.67 430.17,-353.33 430.17,-353.33 430.17,-358.67 424.83,-364 419.5,-364 419.5,-364 394.83,-364 394.83,-364 389.5,-364 384.17,-358.67 384.17,-353.33 384.17,-353.33 384.17,-342.67 384.17,-342.67 384.17,-337.33 389.5,-332 394.83,-332"/>
</a>
</g>
</g>
<!-- function&#45;0&#45;Bne -->
<g id="node17" class="node">
<title>function&#45;0&#45;Bne</title>
<g id="a_node17"><a xlink:title="Inst&#45;11: function&#45;0&#45;Bne">
<path fill="white" stroke="transparent" d="M407.83,-253C407.83,-253 424.5,-253 424.5,-253 429.83,-253 435.17,-258.33 435.17,-263.67 435.17,-263.67 435.17,-274.33 435.17,-274.33 435.17,-279.67 429.83,-285 424.5,-285 424.5,-285 407.83,-285 407.83,-285 402.5,-285 397.17,-279.67 397.17,-274.33 397.17,-274.33 397.17,-263.67 397.17,-263.67 397.17,-258.33 402.5,-253 407.83,-253"/>
<text text-anchor="start" x="402.17" y="-265.3" font-family="Helvetica,sans-Serif" font-size="14.00">Bne</text>
<path fill="none" stroke="black" d="M407.83,-253C407.83,-253 424.5,-253 424.5,-253 429.83,-253 435.17,-258.33 435.17,-263.67 435.17,-263.67 435.17,-274.33 435.17,-274.33 435.17,-279.67 429.83,-285 424.5,-285 424.5,-285 407.83,-285 407.83,-285 402.5,-285 397.17,-279.67 397.17,-274.33 397.17,-274.33 397.17,-263.67 397.17,-263.67 397.17,-258.33 402.5,-253 407.83,-253"/>
</a>
</g>
</g>
<!-- function&#45;0&#45;Jal -->
<g id="node18" class="node">
<title>function&#45;0&#45;Jal</title>
<g id="a_node18"><a xlink:title="Inst&#45;12: function&#45;0&#45;Jal">
<path fill="white" stroke="transparent" d="M498.83,-253C498.83,-253 509.5,-253 509.5,-253 514.83,-253 520.17,-258.33 520.17,-263.67 520.17,-263.67 520.17,-274.33 520.17,-274.33 520.17,-279.67 514.83,-285 509.5,-285 509.5,-285 498.83,-285 498.83,-285 493.5,-285 488.17,-279.67 488.17,-274.33 488.17,-274.33 488.17,-263.67 488.17,-263.67 488.17,-258.33 493.5,-253 498.83,-253"/>
<text text-anchor="start" x="495.67" y="-265.3" font-family="Helvetica,sans-Serif" font-size="14.00">Jal</text>
<path fill="none" stroke="black" d="M498.83,-253C498.83,-253 509.5,-253 509.5,-253 514.83,-253 520.17,-258.33 520.17,-263.67 520.17,-263.67 520.17,-274.33 520.17,-274.33 520.17,-279.67 514.83,-285 509.5,-285 509.5,-285 498.83,-285 498.83,-285 493.5,-285 488.17,-279.67 488.17,-274.33 488.17,-274.33 488.17,-263.67 488.17,-263.67 488.17,-258.33 493.5,-253 498.83,-253"/>
</a>
</g>
</g>
<!-- function&#45;0&#45;Addi -->
<g id="node19" class="node">
<title>function&#45;0&#45;Addi</title>
<g id="a_node19"><a xlink:title="Inst&#45;5: function&#45;0&#45;Addi">
<path fill="white" stroke="transparent" d="M42.33,-253C42.33,-253 62,-253 62,-253 67.33,-253 72.67,-258.33 72.67,-263.67 72.67,-263.67 72.67,-274.33 72.67,-274.33 72.67,-279.67 67.33,-285 62,-285 62,-285 42.33,-285 42.33,-285 37,-285 31.67,-279.67 31.67,-274.33 31.67,-274.33 31.67,-263.67 31.67,-263.67 31.67,-258.33 37,-253 42.33,-253"/>
<text text-anchor="start" x="37.17" y="-265.3" font-family="Helvetica,sans-Serif" font-size="14.00">Addi</text>
<path fill="none" stroke="black" d="M42.33,-253C42.33,-253 62,-253 62,-253 67.33,-253 72.67,-258.33 72.67,-263.67 72.67,-263.67 72.67,-274.33 72.67,-274.33 72.67,-279.67 67.33,-285 62,-285 62,-285 42.33,-285 42.33,-285 37,-285 31.67,-279.67 31.67,-274.33 31.67,-274.33 31.67,-263.67 31.67,-263.67 31.67,-258.33 37,-253 42.33,-253"/>
</a>
</g>
</g>
<!-- primitive&#45;String&#45;2 -->
<g id="node20" class="node">
<title>primitive&#45;String&#45;2</title>
<g id="a_node20"><a xlink:title="String&#45;2: primitive&#45;String&#45;2">
<path fill="white" stroke="transparent" d="M368.33,-95C368.33,-95 404,-95 404,-95 409.33,-95 414.67,-100.33 414.67,-105.67 414.67,-105.67 414.67,-116.33 414.67,-116.33 414.67,-121.67 409.33,-127 404,-127 404,-127 368.33,-127 368.33,-127 363,-127 357.67,-121.67 357.67,-116.33 357.67,-116.33 357.67,-105.67 357.67,-105.67 357.67,-100.33 363,-95 368.33,-95"/>
<text text-anchor="start" x="363.17" y="-107.3" font-family="Helvetica,sans-Serif" font-size="14.00">&quot;a7_0&quot;</text>
<path fill="none" stroke="black" d="M368.33,-95C368.33,-95 404,-95 404,-95 409.33,-95 414.67,-100.33 414.67,-105.67 414.67,-105.67 414.67,-116.33 414.67,-116.33 414.67,-121.67 409.33,-127 404,-127 404,-127 368.33,-127 368.33,-127 363,-127 357.67,-121.67 357.67,-116.33 357.67,-116.33 357.67,-105.67 357.67,-105.67 357.67,-100.33 363,-95 368.33,-95"/>
</a>
</g>
</g>
<!-- primitive&#45;String&#45;0 -->
<g id="node21" class="node">
<title>primitive&#45;String&#45;0</title>
<g id="a_node21"><a xlink:title="String&#45;0: primitive&#45;String&#45;0">
<path fill="white" stroke="transparent" d="M114.33,-95C114.33,-95 150,-95 150,-95 155.33,-95 160.67,-100.33 160.67,-105.67 160.67,-105.67 160.67,-116.33 160.67,-116.33 160.67,-121.67 155.33,-127 150,-127 150,-127 114.33,-127 114.33,-127 109,-127 103.67,-121.67 103.67,-116.33 103.67,-116.33 103.67,-105.67 103.67,-105.67 103.67,-100.33 109,-95 114.33,-95"/>
<text text-anchor="start" x="109.17" y="-107.3" font-family="Helvetica,sans-Serif" font-size="14.00">&quot;a4_0&quot;</text>
<path fill="none" stroke="black" d="M114.33,-95C114.33,-95 150,-95 150,-95 155.33,-95 160.67,-100.33 160.67,-105.67 160.67,-105.67 160.67,-116.33 160.67,-116.33 160.67,-121.67 155.33,-127 150,-127 150,-127 114.33,-127 114.33,-127 109,-127 103.67,-121.67 103.67,-116.33 103.67,-116.33 103.67,-105.67 103.67,-105.67 103.67,-100.33 109,-95 114.33,-95"/>
</a>
</g>
</g>
<!-- function&#45;1&#45;Addi -->
<g id="node22" class="node">
<title>function&#45;1&#45;Addi</title>
<g id="a_node22"><a xlink:title="Inst&#45;8: function&#45;1&#45;Addi">
<path fill="white" stroke="transparent" d="M588.33,-253C588.33,-253 608,-253 608,-253 613.33,-253 618.67,-258.33 618.67,-263.67 618.67,-263.67 618.67,-274.33 618.67,-274.33 618.67,-279.67 613.33,-285 608,-285 608,-285 588.33,-285 588.33,-285 583,-285 577.67,-279.67 577.67,-274.33 577.67,-274.33 577.67,-263.67 577.67,-263.67 577.67,-258.33 583,-253 588.33,-253"/>
<text text-anchor="start" x="583.17" y="-265.3" font-family="Helvetica,sans-Serif" font-size="14.00">Addi</text>
<path fill="none" stroke="black" d="M588.33,-253C588.33,-253 608,-253 608,-253 613.33,-253 618.67,-258.33 618.67,-263.67 618.67,-263.67 618.67,-274.33 618.67,-274.33 618.67,-279.67 613.33,-285 608,-285 608,-285 588.33,-285 588.33,-285 583,-285 577.67,-279.67 577.67,-274.33 577.67,-274.33 577.67,-263.67 577.67,-263.67 577.67,-258.33 583,-253 588.33,-253"/>
</a>
</g>
</g>
<!-- function&#45;3&#45;RegVal -->
<g id="node23" class="node">
<title>function&#45;3&#45;RegVal</title>
<g id="a_node23"><a xlink:title="Inst&#45;3: function&#45;3&#45;RegVal">
<path fill="white" stroke="transparent" d="M594.33,-174C594.33,-174 630,-174 630,-174 635.33,-174 640.67,-179.33 640.67,-184.67 640.67,-184.67 640.67,-195.33 640.67,-195.33 640.67,-200.67 635.33,-206 630,-206 630,-206 594.33,-206 594.33,-206 589,-206 583.67,-200.67 583.67,-195.33 583.67,-195.33 583.67,-184.67 583.67,-184.67 583.67,-179.33 589,-174 594.33,-174"/>
<text text-anchor="start" x="589.17" y="-186.3" font-family="Helvetica,sans-Serif" font-size="14.00">RegVal</text>
<path fill="none" stroke="black" d="M594.33,-174C594.33,-174 630,-174 630,-174 635.33,-174 640.67,-179.33 640.67,-184.67 640.67,-184.67 640.67,-195.33 640.67,-195.33 640.67,-200.67 635.33,-206 630,-206 630,-206 594.33,-206 594.33,-206 589,-206 583.67,-200.67 583.67,-195.33 583.67,-195.33 583.67,-184.67 583.67,-184.67 583.67,-179.33 589,-174 594.33,-174"/>
</a>
</g>
</g>
<!-- function&#45;0&#45;Srl -->
<g id="node24" class="node">
<title>function&#45;0&#45;Srl</title>
<g id="a_node24"><a xlink:title="Inst&#45;6: function&#45;0&#45;Srl">
<path fill="white" stroke="transparent" d="M636.83,-332C636.83,-332 647.5,-332 647.5,-332 652.83,-332 658.17,-337.33 658.17,-342.67 658.17,-342.67 658.17,-353.33 658.17,-353.33 658.17,-358.67 652.83,-364 647.5,-364 647.5,-364 636.83,-364 636.83,-364 631.5,-364 626.17,-358.67 626.17,-353.33 626.17,-353.33 626.17,-342.67 626.17,-342.67 626.17,-337.33 631.5,-332 636.83,-332"/>
<text text-anchor="start" x="632.67" y="-344.3" font-family="Helvetica,sans-Serif" font-size="14.00">Srl</text>
<path fill="none" stroke="black" d="M636.83,-332C636.83,-332 647.5,-332 647.5,-332 652.83,-332 658.17,-337.33 658.17,-342.67 658.17,-342.67 658.17,-353.33 658.17,-353.33 658.17,-358.67 652.83,-364 647.5,-364 647.5,-364 636.83,-364 636.83,-364 631.5,-364 626.17,-358.67 626.17,-353.33 626.17,-353.33 626.17,-342.67 626.17,-342.67 626.17,-337.33 631.5,-332 636.83,-332"/>
</a>
</g>
</g>
<!-- function&#45;1&#45;RegVal -->
<g id="node25" class="node">
<title>function&#45;1&#45;RegVal</title>
<g id="a_node25"><a xlink:title="Inst&#45;1: function&#45;1&#45;RegVal">
<path fill="white" stroke="transparent" d="M660.33,-253C660.33,-253 696,-253 696,-253 701.33,-253 706.67,-258.33 706.67,-263.67 706.67,-263.67 706.67,-274.33 706.67,-274.33 706.67,-279.67 701.33,-285 696,-285 696,-285 660.33,-285 660.33,-285 655,-285 649.67,-279.67 649.67,-274.33 649.67,-274.33 649.67,-263.67 649.67,-263.67 649.67,-258.33 655,-253 660.33,-253"/>
<text text-anchor="start" x="655.17" y="-265.3" font-family="Helvetica,sans-Serif" font-size="14.00">RegVal</text>
<path fill="none" stroke="black" d="M660.33,-253C660.33,-253 696,-253 696,-253 701.33,-253 706.67,-258.33 706.67,-263.67 706.67,-263.67 706.67,-274.33 706.67,-274.33 706.67,-279.67 701.33,-285 696,-285 696,-285 660.33,-285 660.33,-285 655,-285 649.67,-279.67 649.67,-274.33 649.67,-274.33 649.67,-263.67 649.67,-263.67 649.67,-258.33 655,-253 660.33,-253"/>
</a>
</g>
</g>
<!-- primitive&#45;String&#45;1 -->
<g id="node26" class="node">
<title>primitive&#45;String&#45;1</title>
<g id="a_node26"><a xlink:title="String&#45;1: primitive&#45;String&#45;1">
<path fill="white" stroke="transparent" d="M664.33,-174C664.33,-174 700,-174 700,-174 705.33,-174 710.67,-179.33 710.67,-184.67 710.67,-184.67 710.67,-195.33 710.67,-195.33 710.67,-200.67 705.33,-206 700,-206 700,-206 664.33,-206 664.33,-206 659,-206 653.67,-200.67 653.67,-195.33 653.67,-195.33 653.67,-184.67 653.67,-184.67 653.67,-179.33 659,-174 664.33,-174"/>
<text text-anchor="start" x="659.17" y="-186.3" font-family="Helvetica,sans-Serif" font-size="14.00">&quot;a6_0&quot;</text>
<path fill="none" stroke="black" d="M664.33,-174C664.33,-174 700,-174 700,-174 705.33,-174 710.67,-179.33 710.67,-184.67 710.67,-184.67 710.67,-195.33 710.67,-195.33 710.67,-200.67 705.33,-206 700,-206 700,-206 664.33,-206 664.33,-206 659,-206 653.67,-200.67 653.67,-195.33 653.67,-195.33 653.67,-184.67 653.67,-184.67 653.67,-179.33 659,-174 664.33,-174"/>
</a>
</g>
</g>
<!-- primitive&#45;String&#45;3 -->
<g id="node27" class="node">
<title>primitive&#45;String&#45;3</title>
<g id="a_node27"><a xlink:title="String&#45;3: primitive&#45;String&#45;3">
<path fill="white" stroke="transparent" d="M589.33,-95C589.33,-95 637,-95 637,-95 642.33,-95 647.67,-100.33 647.67,-105.67 647.67,-105.67 647.67,-116.33 647.67,-116.33 647.67,-121.67 642.33,-127 637,-127 637,-127 589.33,-127 589.33,-127 584,-127 578.67,-121.67 578.67,-116.33 578.67,-116.33 578.67,-105.67 578.67,-105.67 578.67,-100.33 584,-95 589.33,-95"/>
<text text-anchor="start" x="584.17" y="-107.3" font-family="Helvetica,sans-Serif" font-size="14.00">&quot;zero_0&quot;</text>
<path fill="none" stroke="black" d="M589.33,-95C589.33,-95 637,-95 637,-95 642.33,-95 647.67,-100.33 647.67,-105.67 647.67,-105.67 647.67,-116.33 647.67,-116.33 647.67,-121.67 642.33,-127 637,-127 637,-127 589.33,-127 589.33,-127 584,-127 578.67,-121.67 578.67,-116.33 578.67,-116.33 578.67,-105.67 578.67,-105.67 578.67,-100.33 584,-95 589.33,-95"/>
</a>
</g>
</g>
<!-- function&#45;1&#45;Bne -->
<g id="node28" class="node">
<title>function&#45;1&#45;Bne</title>
<g id="a_node28"><a xlink:title="Inst&#45;11: function&#45;1&#45;Bne">
<path fill="white" stroke="transparent" d="M349.83,-253C349.83,-253 366.5,-253 366.5,-253 371.83,-253 377.17,-258.33 377.17,-263.67 377.17,-263.67 377.17,-274.33 377.17,-274.33 377.17,-279.67 371.83,-285 366.5,-285 366.5,-285 349.83,-285 349.83,-285 344.5,-285 339.17,-279.67 339.17,-274.33 339.17,-274.33 339.17,-263.67 339.17,-263.67 339.17,-258.33 344.5,-253 349.83,-253"/>
<text text-anchor="start" x="344.17" y="-265.3" font-family="Helvetica,sans-Serif" font-size="14.00">Bne</text>
<path fill="none" stroke="black" d="M349.83,-253C349.83,-253 366.5,-253 366.5,-253 371.83,-253 377.17,-258.33 377.17,-263.67 377.17,-263.67 377.17,-274.33 377.17,-274.33 377.17,-279.67 371.83,-285 366.5,-285 366.5,-285 349.83,-285 349.83,-285 344.5,-285 339.17,-279.67 339.17,-274.33 339.17,-274.33 339.17,-263.67 339.17,-263.67 339.17,-258.33 344.5,-253 349.83,-253"/>
</a>
</g>
</g>
</g>
</svg>
