<?xml version="1.0" encoding="UTF-8" standalone="no"?>
<!DOCTYPE svg PUBLIC "-//W3C//DTD SVG 1.1//EN"
 "http://www.w3.org/Graphics/SVG/1.1/DTD/svg11.dtd">
<!-- Generated by graphviz version 2.43.0 (0)
 -->
<!-- Title: %3 Pages: 1 -->
<svg width="738pt" height="467pt"
 viewBox="0.00 0.00 738.00 467.00" xmlns="http://www.w3.org/2000/svg" xmlns:xlink="http://www.w3.org/1999/xlink">
<g id="graph0" class="graph" transform="scale(1 1) rotate(0) translate(4 463)">
<title>%3</title>
<polygon fill="white" stroke="#000000" points="-4,4 -4,-463 734,-463 734,4 -4,4"/>
<g id="clust1" class="cluster">
<title>outer_cluster_Imm&#45;8</title>
</g>
<g id="clust2" class="cluster">
<title>cluster_Imm&#45;8</title>
<path fill="#ffffb3" stroke="black" stroke-dasharray="5,2" d="M23,-248C23,-248 67,-248 67,-248 73,-248 79,-254 79,-260 79,-260 79,-278 79,-278 79,-284 73,-290 67,-290 67,-290 23,-290 23,-290 17,-290 11,-284 11,-278 11,-278 11,-260 11,-260 11,-254 17,-248 23,-248"/>
</g>
<g id="clust4" class="cluster">
<title>outer_cluster_Imm&#45;4</title>
</g>
<g id="clust5" class="cluster">
<title>cluster_Imm&#45;4</title>
<path fill="#ffffb3" stroke="black" stroke-dasharray="5,2" d="M558,-169C558,-169 602,-169 602,-169 608,-169 614,-175 614,-181 614,-181 614,-199 614,-199 614,-205 608,-211 602,-211 602,-211 558,-211 558,-211 552,-211 546,-205 546,-199 546,-199 546,-181 546,-181 546,-175 552,-169 558,-169"/>
</g>
<g id="clust7" class="cluster">
<title>outer_cluster_Imm&#45;10</title>
</g>
<g id="clust8" class="cluster">
<title>cluster_Imm&#45;10</title>
<path fill="#ffffb3" stroke="black" stroke-dasharray="5,2" d="M325,-90C325,-90 369,-90 369,-90 375,-90 381,-96 381,-102 381,-102 381,-120 381,-120 381,-126 375,-132 369,-132 369,-132 325,-132 325,-132 319,-132 313,-126 313,-120 313,-120 313,-102 313,-102 313,-96 319,-90 325,-90"/>
</g>
<g id="clust10" class="cluster">
<title>outer_cluster_Imm&#45;6</title>
</g>
<g id="clust11" class="cluster">
<title>cluster_Imm&#45;6</title>
<path fill="#ffffb3" stroke="black" stroke-dasharray="5,2" d="M102,-169C102,-169 146,-169 146,-169 152,-169 158,-175 158,-181 158,-181 158,-199 158,-199 158,-205 152,-211 146,-211 146,-211 102,-211 102,-211 96,-211 90,-205 90,-199 90,-199 90,-181 90,-181 90,-175 96,-169 102,-169"/>
</g>
<g id="clust13" class="cluster">
<title>outer_cluster_Inst&#45;11</title>
</g>
<g id="clust14" class="cluster">
<title>cluster_Inst&#45;11</title>
<path fill="#bebada" stroke="black" stroke-dasharray="5,2" d="M195,-248C195,-248 347,-248 347,-248 353,-248 359,-254 359,-260 359,-260 359,-278 359,-278 359,-284 353,-290 347,-290 347,-290 195,-290 195,-290 189,-290 183,-284 183,-278 183,-278 183,-260 183,-260 183,-254 189,-248 195,-248"/>
</g>
<g id="clust16" class="cluster">
<title>outer_cluster_Inst&#45;3</title>
</g>
<g id="clust17" class="cluster">
<title>cluster_Inst&#45;3</title>
<path fill="#bebada" stroke="black" stroke-dasharray="5,2" d="M253,-406C253,-406 405,-406 405,-406 411,-406 417,-412 417,-418 417,-418 417,-436 417,-436 417,-442 411,-448 405,-448 405,-448 253,-448 253,-448 247,-448 241,-442 241,-436 241,-436 241,-418 241,-418 241,-412 247,-406 253,-406"/>
</g>
<g id="clust19" class="cluster">
<title>outer_cluster_Inst&#45;13</title>
</g>
<g id="clust20" class="cluster">
<title>cluster_Inst&#45;13</title>
<path fill="#bebada" stroke="black" stroke-dasharray="5,2" d="M377,-248C377,-248 529,-248 529,-248 535,-248 541,-254 541,-260 541,-260 541,-278 541,-278 541,-284 535,-290 529,-290 529,-290 377,-290 377,-290 371,-290 365,-284 365,-278 365,-278 365,-260 365,-260 365,-254 371,-248 377,-248"/>
</g>
<g id="clust22" class="cluster">
<title>outer_cluster_Inst&#45;7</title>
</g>
<g id="clust23" class="cluster">
<title>cluster_Inst&#45;7</title>
<path fill="#bebada" stroke="black" stroke-dasharray="5,2" d="M97,-248C97,-248 133,-248 133,-248 139,-248 145,-254 145,-260 145,-260 145,-278 145,-278 145,-284 139,-290 133,-290 133,-290 97,-290 97,-290 91,-290 85,-284 85,-278 85,-278 85,-260 85,-260 85,-254 91,-248 97,-248"/>
</g>
<g id="clust25" class="cluster">
<title>outer_cluster_Inst&#45;5</title>
</g>
<g id="clust26" class="cluster">
<title>cluster_Inst&#45;5</title>
<path fill="#bebada" stroke="black" stroke-dasharray="5,2" d="M324,-327C324,-327 476,-327 476,-327 482,-327 488,-333 488,-339 488,-339 488,-357 488,-357 488,-363 482,-369 476,-369 476,-369 324,-369 324,-369 318,-369 312,-363 312,-357 312,-357 312,-339 312,-339 312,-333 318,-327 324,-327"/>
</g>
<g id="clust28" class="cluster">
<title>outer_cluster_Inst&#45;2</title>
</g>
<g id="clust29" class="cluster">
<title>cluster_Inst&#45;2</title>
<path fill="#bebada" stroke="black" stroke-dasharray="5,2" d="M454,-169C454,-169 494,-169 494,-169 500,-169 506,-175 506,-181 506,-181 506,-199 506,-199 506,-205 500,-211 494,-211 494,-211 454,-211 454,-211 448,-211 442,-205 442,-199 442,-199 442,-181 442,-181 442,-175 448,-169 454,-169"/>
</g>
<g id="clust31" class="cluster">
<title>outer_cluster_Inst&#45;14</title>
</g>
<g id="clust32" class="cluster">
<title>cluster_Inst&#45;14</title>
<path fill="#bebada" stroke="black" stroke-dasharray="5,2" d="M329,-169C329,-169 365,-169 365,-169 371,-169 377,-175 377,-181 377,-181 377,-199 377,-199 377,-205 371,-211 365,-211 365,-211 329,-211 329,-211 323,-211 317,-205 317,-199 317,-199 317,-181 317,-181 317,-175 323,-169 329,-169"/>
</g>
<g id="clust34" class="cluster">
<title>outer_cluster_Inst&#45;9</title>
</g>
<g id="clust35" class="cluster">
<title>cluster_Inst&#45;9</title>
<path fill="#bebada" stroke="black" stroke-dasharray="5,2" d="M97,-327C97,-327 133,-327 133,-327 139,-327 145,-333 145,-339 145,-339 145,-357 145,-357 145,-363 139,-369 133,-369 133,-369 97,-369 97,-369 91,-369 85,-363 85,-357 85,-357 85,-339 85,-339 85,-333 91,-327 97,-327"/>
</g>
<g id="clust37" class="cluster">
<title>outer_cluster_Inst&#45;12</title>
</g>
<g id="clust38" class="cluster">
<title>cluster_Inst&#45;12</title>
<path fill="#bebada" stroke="black" stroke-dasharray="5,2" d="M601,-248C601,-248 637,-248 637,-248 643,-248 649,-254 649,-260 649,-260 649,-278 649,-278 649,-284 643,-290 637,-290 637,-290 601,-290 601,-290 595,-290 589,-284 589,-278 589,-278 589,-260 589,-260 589,-254 595,-248 601,-248"/>
</g>
<g id="clust40" class="cluster">
<title>outer_cluster_Inst&#45;0</title>
</g>
<g id="clust41" class="cluster">
<title>cluster_Inst&#45;0</title>
<path fill="#bebada" stroke="black" stroke-dasharray="5,2" d="M506,-327C506,-327 546,-327 546,-327 552,-327 558,-333 558,-339 558,-339 558,-357 558,-357 558,-363 552,-369 546,-369 546,-369 506,-369 506,-369 500,-369 494,-363 494,-357 494,-357 494,-339 494,-339 494,-333 500,-327 506,-327"/>
</g>
<g id="clust43" class="cluster">
<title>outer_cluster_Inst&#45;1</title>
</g>
<g id="clust44" class="cluster">
<title>cluster_Inst&#45;1</title>
<path fill="#bebada" stroke="black" stroke-dasharray="5,2" d="M180,-169C180,-169 220,-169 220,-169 226,-169 232,-175 232,-181 232,-181 232,-199 232,-199 232,-205 226,-211 220,-211 220,-211 180,-211 180,-211 174,-211 168,-205 168,-199 168,-199 168,-181 168,-181 168,-175 174,-169 180,-169"/>
</g>
<g id="clust46" class="cluster">
<title>outer_cluster_String&#45;0</title>
</g>
<g id="clust47" class="cluster">
<title>cluster_String&#45;0</title>
<path fill="#fb8072" stroke="black" stroke-dasharray="5,2" d="M667,-248C667,-248 707,-248 707,-248 713,-248 719,-254 719,-260 719,-260 719,-278 719,-278 719,-284 713,-290 707,-290 707,-290 667,-290 667,-290 661,-290 655,-284 655,-278 655,-278 655,-260 655,-260 655,-254 661,-248 667,-248"/>
</g>
<g id="clust49" class="cluster">
<title>outer_cluster_String&#45;1</title>
</g>
<g id="clust50" class="cluster">
<title>cluster_String&#45;1</title>
<path fill="#fb8072" stroke="black" stroke-dasharray="5,2" d="M182,-90C182,-90 220,-90 220,-90 226,-90 232,-96 232,-102 232,-102 232,-120 232,-120 232,-126 226,-132 220,-132 220,-132 182,-132 182,-132 176,-132 170,-126 170,-120 170,-120 170,-102 170,-102 170,-96 176,-90 182,-90"/>
</g>
<g id="clust52" class="cluster">
<title>outer_cluster_String&#45;2</title>
</g>
<g id="clust53" class="cluster">
<title>cluster_String&#45;2</title>
<path fill="#fb8072" stroke="black" stroke-dasharray="5,2" d="M449,-90C449,-90 501,-90 501,-90 507,-90 513,-96 513,-102 513,-102 513,-120 513,-120 513,-126 507,-132 501,-132 501,-132 449,-132 449,-132 443,-132 437,-126 437,-120 437,-120 437,-102 437,-102 437,-96 443,-90 449,-90"/>
</g>
<g id="clust55" class="cluster">
<title>outer_cluster_i64&#45;1</title>
</g>
<g id="clust56" class="cluster">
<title>cluster_i64&#45;1</title>
<path fill="#80b1d3" stroke="black" stroke-dasharray="5,2" d="M27,-169C27,-169 63,-169 63,-169 69,-169 75,-175 75,-181 75,-181 75,-199 75,-199 75,-205 69,-211 63,-211 63,-211 27,-211 27,-211 21,-211 15,-205 15,-199 15,-199 15,-181 15,-181 15,-175 21,-169 27,-169"/>
</g>
<g id="clust58" class="cluster">
<title>outer_cluster_i64&#45;0</title>
</g>
<g id="clust59" class="cluster">
<title>cluster_i64&#45;0</title>
<path fill="#80b1d3" stroke="black" stroke-dasharray="5,2" d="M562,-90C562,-90 598,-90 598,-90 604,-90 610,-96 610,-102 610,-102 610,-120 610,-120 610,-126 604,-132 598,-132 598,-132 562,-132 562,-132 556,-132 550,-126 550,-120 550,-120 550,-102 550,-102 550,-96 556,-90 562,-90"/>
</g>
<g id="clust61" class="cluster">
<title>outer_cluster_i64&#45;4</title>
</g>
<g id="clust62" class="cluster">
<title>cluster_i64&#45;4</title>
<path fill="#80b1d3" stroke="black" stroke-dasharray="5,2" d="M329,-11C329,-11 365,-11 365,-11 371,-11 377,-17 377,-23 377,-23 377,-41 377,-41 377,-47 371,-53 365,-53 365,-53 329,-53 329,-53 323,-53 317,-47 317,-41 317,-41 317,-23 317,-23 317,-17 323,-11 329,-11"/>
</g>
<g id="clust64" class="cluster">
<title>outer_cluster_i64&#45;2147483648</title>
</g>
<g id="clust65" class="cluster">
<title>cluster_i64&#45;2147483648</title>
<path fill="#80b1d3" stroke="black" stroke-dasharray="5,2" d="M106,-90C106,-90 142,-90 142,-90 148,-90 154,-96 154,-102 154,-102 154,-120 154,-120 154,-126 148,-132 142,-132 142,-132 106,-132 106,-132 100,-132 94,-126 94,-120 94,-120 94,-102 94,-102 94,-96 100,-90 106,-90"/>
</g>
<!-- function&#45;2&#45;ImmVal&#45;&gt;primitive&#45;i64&#45;1 -->
<g id="edge1" class="edge">
<title>function&#45;2&#45;ImmVal:s&#45;&gt;primitive&#45;i64&#45;1</title>
<path fill="none" stroke="black" d="M45,-253C45,-239.84 45,-225.11 45,-213.3"/>
<polygon fill="black" stroke="black" points="46.75,-216 45,-211 43.25,-216 46.75,-216"/>
</g>
<!-- function&#45;0&#45;ImmVal&#45;&gt;primitive&#45;i64&#45;0 -->
<g id="edge2" class="edge">
<title>function&#45;0&#45;ImmVal:s&#45;&gt;primitive&#45;i64&#45;0</title>
<path fill="none" stroke="black" d="M580,-174C580,-160.84 580,-146.11 580,-134.3"/>
<polygon fill="black" stroke="black" points="581.75,-137 580,-132 578.25,-137 581.75,-137"/>
</g>
<!-- function&#45;3&#45;ImmVal&#45;&gt;primitive&#45;i64&#45;4 -->
<g id="edge3" class="edge">
<title>function&#45;3&#45;ImmVal:s&#45;&gt;primitive&#45;i64&#45;4</title>
<path fill="none" stroke="black" d="M347,-95C347,-81.84 347,-67.11 347,-55.3"/>
<polygon fill="black" stroke="black" points="348.75,-58 347,-53 345.25,-58 348.75,-58"/>
</g>
<!-- function&#45;1&#45;ImmVal&#45;&gt;primitive&#45;i64&#45;2147483648 -->
<g id="edge4" class="edge">
<title>function&#45;1&#45;ImmVal:s&#45;&gt;primitive&#45;i64&#45;2147483648</title>
<path fill="none" stroke="black" d="M124,-174C124,-160.84 124,-146.11 124,-134.3"/>
<polygon fill="black" stroke="black" points="125.75,-137 124,-132 122.25,-137 125.75,-137"/>
</g>
<!-- function&#45;0&#45;Beq&#45;&gt;function&#45;3&#45;ImmVal -->
<g id="edge7" class="edge">
<title>function&#45;0&#45;Beq:s&#45;&gt;function&#45;3&#45;ImmVal</title>
<path fill="none" stroke="black" d="M227,-253C227,-201.55 273.91,-159.32 309.07,-134.89"/>
<polygon fill="black" stroke="black" points="310.16,-136.26 313.3,-132 308.18,-133.37 310.16,-136.26"/>
</g>
<!-- function&#45;0&#45;Beq&#45;&gt;function&#45;1&#45;RegVal -->
<g id="edge5" class="edge">
<title>function&#45;0&#45;Beq:s&#45;&gt;function&#45;1&#45;RegVal</title>
<path fill="none" stroke="black" d="M204,-253C204,-239.81 203.09,-225.08 202.13,-213.28"/>
<polygon fill="black" stroke="black" points="204.36,-215.58 201.7,-211 200.92,-216.24 204.36,-215.58"/>
</g>
<!-- function&#45;0&#45;Beq&#45;&gt;function&#45;2&#45;RegVal -->
<g id="edge6" class="edge">
<title>function&#45;0&#45;Beq:s&#45;&gt;function&#45;2&#45;RegVal</title>
<path fill="none" stroke="black" d="M218,-253C218,-246.12 97.77,-279.98 378,-214 398.74,-209.12 421.97,-203.55 440.39,-199.12"/>
<polygon fill="black" stroke="black" points="439.07,-202.31 442,-197.9 436.96,-199.52 439.07,-202.31"/>
</g>
<!-- function&#45;1&#45;RegVal&#45;&gt;primitive&#45;String&#45;1 -->
<g id="edge43" class="edge">
<title>function&#45;1&#45;RegVal:s&#45;&gt;primitive&#45;String&#45;1</title>
<path fill="none" stroke="black" d="M201,-174C201,-160.84 201,-146.11 201,-134.3"/>
<polygon fill="black" stroke="black" points="202.75,-137 201,-132 199.25,-137 202.75,-137"/>
</g>
<!-- function&#45;2&#45;RegVal&#45;&gt;primitive&#45;String&#45;2 -->
<g id="edge37" class="edge">
<title>function&#45;2&#45;RegVal:s&#45;&gt;primitive&#45;String&#45;2</title>
<path fill="none" stroke="black" d="M475,-174C475,-160.84 475,-146.11 475,-134.3"/>
<polygon fill="black" stroke="black" points="476.75,-137 475,-132 473.25,-137 476.75,-137"/>
</g>
<!-- function&#45;1&#45;Beq&#45;&gt;function&#45;3&#45;ImmVal -->
<g id="edge10" class="edge">
<title>function&#45;1&#45;Beq:s&#45;&gt;function&#45;3&#45;ImmVal</title>
<path fill="none" stroke="black" d="M285,-253C285,-207.5 312.39,-160.19 330.76,-133.58"/>
<polygon fill="black" stroke="black" points="329.92,-136.41 332.85,-132 327.81,-133.62 329.92,-136.41"/>
</g>
<!-- function&#45;1&#45;Beq&#45;&gt;function&#45;1&#45;RegVal -->
<g id="edge9" class="edge">
<title>function&#45;1&#45;Beq:s&#45;&gt;function&#45;1&#45;RegVal</title>
<path fill="none" stroke="black" d="M276,-253C276,-229.41 253.75,-213.2 233.32,-203.28"/>
<polygon fill="black" stroke="black" points="236.93,-204.08 232,-202.14 234.64,-206.73 236.93,-204.08"/>
</g>
<!-- function&#45;1&#45;Beq&#45;&gt;function&#45;2&#45;RegVal -->
<g id="edge8" class="edge">
<title>function&#45;1&#45;Beq:s&#45;&gt;function&#45;2&#45;RegVal</title>
<path fill="none" stroke="black" d="M262,-253C262,-243.82 380.77,-213.65 440.51,-199.05"/>
<polygon fill="black" stroke="black" points="439.2,-202.35 442,-197.86 437.01,-199.62 439.2,-202.35"/>
</g>
<!-- function&#45;1&#45;Seq2&#45;&gt;function&#45;2&#45;Bne -->
<g id="edge11" class="edge">
<title>function&#45;1&#45;Seq2:s&#45;&gt;function&#45;2&#45;Bne</title>
<path fill="none" stroke="black" d="M318,-253C318,-178.07 440.84,-204.55 478,-223.5 487.53,-228.36 494.96,-237.41 500.33,-246.17"/>
<polygon fill="black" stroke="black" points="497.37,-245.62 502.1,-248 499.88,-243.19 497.37,-245.62"/>
</g>
<!-- function&#45;1&#45;Seq2&#45;&gt;function&#45;1&#45;Jal -->
<g id="edge12" class="edge">
<title>function&#45;1&#45;Seq2:s&#45;&gt;function&#45;1&#45;Jal</title>
<path fill="none" stroke="black" d="M340,-253C340,-239.76 341.6,-225.02 343.27,-213.24"/>
<polygon fill="black" stroke="black" points="344.07,-216.3 344.03,-211 340.76,-215.16 344.07,-216.3"/>
</g>
<!-- function&#45;2&#45;Bne&#45;&gt;function&#45;3&#45;ImmVal -->
<g id="edge21" class="edge">
<title>function&#45;2&#45;Bne:s&#45;&gt;function&#45;3&#45;ImmVal</title>
<path fill="none" stroke="black" d="M525,-253C525,-211.84 471.85,-241.25 441,-214 422.14,-197.35 427.48,-185.01 411,-166 400.3,-153.66 386.68,-141.76 374.75,-132.28"/>
<polygon fill="black" stroke="black" points="379.06,-131.71 373.77,-132 378.09,-135.07 379.06,-131.71"/>
</g>
<!-- function&#45;2&#45;Bne&#45;&gt;function&#45;1&#45;RegVal -->
<g id="edge19" class="edge">
<title>function&#45;2&#45;Bne:s&#45;&gt;function&#45;1&#45;RegVal</title>
<path fill="none" stroke="black" d="M502,-253C502,-244.51 554.65,-260.21 316,-214 288.27,-208.63 256.83,-202.39 233.69,-197.76"/>
<polygon fill="black" stroke="black" points="237.19,-197.83 232,-196.74 235.38,-200.82 237.19,-197.83"/>
</g>
<!-- function&#45;2&#45;Bne&#45;&gt;function&#45;2&#45;RegVal -->
<g id="edge20" class="edge">
<title>function&#45;2&#45;Bne:s&#45;&gt;function&#45;2&#45;RegVal</title>
<path fill="none" stroke="black" d="M516,-253C516,-237.6 507.01,-223.18 497.35,-212.12"/>
<polygon fill="black" stroke="black" points="500.86,-212.48 495.77,-211 498.82,-215.33 500.86,-212.48"/>
</g>
<!-- function&#45;1&#45;Jal&#45;&gt;function&#45;3&#45;ImmVal -->
<g id="edge38" class="edge">
<title>function&#45;1&#45;Jal:s&#45;&gt;function&#45;3&#45;ImmVal</title>
<path fill="none" stroke="black" d="M347,-174C347,-160.84 347,-146.11 347,-134.3"/>
<polygon fill="black" stroke="black" points="348.75,-137 347,-132 345.25,-137 348.75,-137"/>
</g>
<!-- function&#45;0&#45;Add&#45;&gt;function&#45;0&#45;RegVal -->
<g id="edge13" class="edge">
<title>function&#45;0&#45;Add:s&#45;&gt;function&#45;0&#45;RegVal</title>
<path fill="none" stroke="black" d="M320,-411C320,-333.91 417.75,-401.41 489,-372 489.54,-371.78 490.08,-371.55 490.63,-371.31"/>
<polygon fill="black" stroke="black" points="491.74,-372.72 495.51,-369 490.25,-369.55 491.74,-372.72"/>
</g>
<!-- function&#45;0&#45;Add&#45;&gt;function&#45;0&#45;Addi -->
<g id="edge14" class="edge">
<title>function&#45;0&#45;Add:s&#45;&gt;function&#45;0&#45;Addi</title>
<path fill="none" stroke="black" d="M338,-411C338,-368.33 189.42,-388.34 150,-372 149.47,-371.78 148.94,-371.55 148.4,-371.31"/>
<polygon fill="black" stroke="black" points="148.89,-369.6 143.62,-369 147.36,-372.75 148.89,-369.6"/>
</g>
<!-- function&#45;0&#45;RegVal&#45;&gt;primitive&#45;String&#45;0 -->
<g id="edge42" class="edge">
<title>function&#45;0&#45;RegVal:s&#45;&gt;primitive&#45;String&#45;0</title>
<path fill="none" stroke="black" d="M527,-332C527,-274.65 597.91,-316.99 650,-293 650.5,-292.77 651,-292.53 651.51,-292.29"/>
<polygon fill="black" stroke="black" points="652.38,-293.81 656.05,-290 650.8,-290.69 652.38,-293.81"/>
</g>
<!-- function&#45;0&#45;Addi&#45;&gt;function&#45;2&#45;ImmVal -->
<g id="edge40" class="edge">
<title>function&#45;0&#45;Addi:s&#45;&gt;function&#45;2&#45;ImmVal</title>
<path fill="none" stroke="black" d="M125,-332C125,-325.47 97.99,-305.59 75.36,-290.09"/>
<polygon fill="black" stroke="black" points="80.43,-290.82 75.19,-290 78.77,-293.91 80.43,-290.82"/>
</g>
<!-- function&#45;0&#45;Addi&#45;&gt;function&#45;0&#45;Xori -->
<g id="edge39" class="edge">
<title>function&#45;0&#45;Addi:s&#45;&gt;function&#45;0&#45;Xori</title>
<path fill="none" stroke="black" d="M105,-332C105,-318.76 107.25,-304.14 109.61,-292.42"/>
<polygon fill="black" stroke="black" points="110.25,-295.28 110.7,-290 107.05,-293.84 110.25,-295.28"/>
</g>
<!-- function&#45;1&#45;Add&#45;&gt;function&#45;0&#45;RegVal -->
<g id="edge16" class="edge">
<title>function&#45;1&#45;Add:s&#45;&gt;function&#45;0&#45;RegVal</title>
<path fill="none" stroke="black" d="M280,-411C280,-400.6 291.94,-405.64 302,-403 383.49,-381.63 410.16,-401.7 489,-372 489.72,-371.73 490.44,-371.44 491.16,-371.14"/>
<polygon fill="black" stroke="black" points="492.07,-372.65 495.9,-369 490.63,-369.46 492.07,-372.65"/>
</g>
<!-- function&#45;1&#45;Add&#45;&gt;function&#45;0&#45;Addi -->
<g id="edge15" class="edge">
<title>function&#45;1&#45;Add:s&#45;&gt;function&#45;0&#45;Addi</title>
<path fill="none" stroke="black" d="M262,-411C262,-358.29 197.27,-395.32 150,-372 149.65,-371.83 149.29,-371.65 148.94,-371.47"/>
<polygon fill="black" stroke="black" points="149.56,-369.82 144.33,-369 147.91,-372.9 149.56,-369.82"/>
</g>
<!-- function&#45;0&#45;Sub&#45;&gt;function&#45;1&#45;RegVal -->
<g id="edge18" class="edge">
<title>function&#45;0&#45;Sub:s&#45;&gt;function&#45;1&#45;RegVal</title>
<path fill="none" stroke="black" d="M396,-411C396,-369.44 348.29,-390.36 311,-372 243.4,-338.72 199.93,-357.51 161,-293 149.98,-274.74 154.44,-265.3 161,-245 164.83,-233.17 172.32,-221.75 179.72,-212.48"/>
<polygon fill="black" stroke="black" points="178.97,-215.85 181.11,-211 176.42,-213.46 178.97,-215.85"/>
</g>
<!-- function&#45;0&#45;Sub&#45;&gt;function&#45;0&#45;RegVal -->
<g id="edge17" class="edge">
<title>function&#45;0&#45;Sub:s&#45;&gt;function&#45;0&#45;RegVal</title>
<path fill="none" stroke="black" d="M378,-411C378,-358.71 441.85,-394.6 489,-372 489.36,-371.83 489.73,-371.65 490.1,-371.47"/>
<polygon fill="black" stroke="black" points="491.24,-372.85 494.88,-369 489.64,-369.73 491.24,-372.85"/>
</g>
<!-- function&#45;3&#45;Bne&#45;&gt;function&#45;3&#45;ImmVal -->
<g id="edge24" class="edge">
<title>function&#45;3&#45;Bne:s&#45;&gt;function&#45;3&#45;ImmVal</title>
<path fill="none" stroke="black" d="M467,-253C467,-228.17 443.59,-232.48 427,-214 403.04,-187.31 377.91,-154.32 362.35,-133.22"/>
<polygon fill="black" stroke="black" points="365.87,-134.79 361.37,-132 363.14,-136.99 365.87,-134.79"/>
</g>
<!-- function&#45;3&#45;Bne&#45;&gt;function&#45;1&#45;RegVal -->
<g id="edge23" class="edge">
<title>function&#45;3&#45;Bne:s&#45;&gt;function&#45;1&#45;RegVal</title>
<path fill="none" stroke="black" d="M458,-253C458,-247.3 303.9,-213.38 233.89,-198.26"/>
<polygon fill="black" stroke="black" points="237.19,-198.21 232,-197.12 235.38,-201.2 237.19,-198.21"/>
</g>
<!-- function&#45;3&#45;Bne&#45;&gt;function&#45;2&#45;RegVal -->
<g id="edge22" class="edge">
<title>function&#45;3&#45;Bne:s&#45;&gt;function&#45;2&#45;RegVal</title>
<path fill="none" stroke="black" d="M444,-253C444,-238.54 450.7,-223.9 457.76,-212.48"/>
<polygon fill="black" stroke="black" points="456.81,-215.52 459.58,-211 454.6,-212.81 456.81,-215.52"/>
</g>
<!-- function&#45;2&#45;Seq2&#45;&gt;function&#45;1&#45;Seq2 -->
<g id="edge25" class="edge">
<title>function&#45;2&#45;Seq2:s&#45;&gt;function&#45;1&#45;Seq2</title>
<path fill="none" stroke="black" d="M384,-253C384,-241.59 372.78,-243.91 360.57,-249.8"/>
<polygon fill="black" stroke="black" points="361.71,-246.57 359,-251.12 363.96,-249.26 361.71,-246.57"/>
</g>
<!-- function&#45;2&#45;Seq2&#45;&gt;function&#45;1&#45;Jal -->
<g id="edge26" class="edge">
<title>function&#45;2&#45;Seq2:s&#45;&gt;function&#45;1&#45;Jal</title>
<path fill="none" stroke="black" d="M406,-253C406,-234.82 392.52,-219.86 378.45,-209.19"/>
<polygon fill="black" stroke="black" points="381.99,-209.79 377,-208.02 379.79,-212.52 381.99,-209.79"/>
</g>
<!-- function&#45;0&#45;Xori&#45;&gt;function&#45;1&#45;ImmVal -->
<g id="edge28" class="edge">
<title>function&#45;0&#45;Xori:s&#45;&gt;function&#45;1&#45;ImmVal</title>
<path fill="none" stroke="black" d="M124,-253C124,-239.84 124,-225.11 124,-213.3"/>
<polygon fill="black" stroke="black" points="125.75,-216 124,-211 122.25,-216 125.75,-216"/>
</g>
<!-- function&#45;0&#45;Xori&#45;&gt;function&#45;1&#45;RegVal -->
<g id="edge27" class="edge">
<title>function&#45;0&#45;Xori:s&#45;&gt;function&#45;1&#45;RegVal</title>
<path fill="none" stroke="black" d="M106,-253C106,-249.22 140.34,-227.36 167.5,-210.66"/>
<polygon fill="black" stroke="black" points="166.3,-215.04 168,-210.03 163.54,-212.88 166.3,-215.04"/>
</g>
<!-- function&#45;0&#45;Bne&#45;&gt;function&#45;0&#45;ImmVal -->
<g id="edge31" class="edge">
<title>function&#45;0&#45;Bne:s&#45;&gt;function&#45;0&#45;ImmVal</title>
<path fill="none" stroke="black" d="M414,-332C414,-259.24 525.45,-348.08 573,-293 582.95,-281.47 582.71,-239.59 581.47,-213.21"/>
<polygon fill="black" stroke="black" points="583.53,-215.76 581.21,-211 580.05,-216.17 583.53,-215.76"/>
</g>
<!-- function&#45;0&#45;Bne&#45;&gt;function&#45;1&#45;RegVal -->
<g id="edge29" class="edge">
<title>function&#45;0&#45;Bne:s&#45;&gt;function&#45;1&#45;RegVal</title>
<path fill="none" stroke="black" d="M391,-332C391,-237.51 243.11,-365.07 182,-293 163.11,-270.72 175.44,-235.64 186.98,-212.98"/>
<polygon fill="black" stroke="black" points="186.9,-216.08 188.41,-211 184.06,-214.02 186.9,-216.08"/>
</g>
<!-- function&#45;0&#45;Bne&#45;&gt;function&#45;2&#45;RegVal -->
<g id="edge30" class="edge">
<title>function&#45;0&#45;Bne:s&#45;&gt;function&#45;2&#45;RegVal</title>
<path fill="none" stroke="black" d="M405,-332C405,-263.98 511.24,-346.7 553,-293 566.1,-276.16 562.96,-263.87 553,-245 543.36,-226.74 524.45,-213.48 507.55,-204.67"/>
<polygon fill="black" stroke="black" points="510.91,-205.29 506,-203.3 508.6,-207.92 510.91,-205.29"/>
</g>
<!-- function&#45;1&#45;Bne&#45;&gt;function&#45;0&#45;ImmVal -->
<g id="edge34" class="edge">
<title>function&#45;1&#45;Bne:s&#45;&gt;function&#45;0&#45;ImmVal</title>
<path fill="none" stroke="black" d="M356,-332C356,-244.05 484.41,-351.59 550,-293 572.52,-272.88 578.51,-236.81 579.9,-213.4"/>
<polygon fill="black" stroke="black" points="581.38,-216.15 580.14,-211 577.9,-215.8 581.38,-216.15"/>
</g>
<!-- function&#45;1&#45;Bne&#45;&gt;function&#45;1&#45;RegVal -->
<g id="edge33" class="edge">
<title>function&#45;1&#45;Bne:s&#45;&gt;function&#45;1&#45;RegVal</title>
<path fill="none" stroke="black" d="M347,-332C347,-251.88 221.15,-355.48 171,-293 152.2,-269.58 169.13,-234.59 183.9,-212.29"/>
<polygon fill="black" stroke="black" points="183.34,-216.09 184.81,-211 180.49,-214.07 183.34,-216.09"/>
</g>
<!-- function&#45;1&#45;Bne&#45;&gt;function&#45;2&#45;RegVal -->
<g id="edge32" class="edge">
<title>function&#45;1&#45;Bne:s&#45;&gt;function&#45;2&#45;RegVal</title>
<path fill="none" stroke="black" d="M333,-332C333,-237.51 481.51,-365.59 542,-293 555.66,-276.61 551.28,-264.21 542,-245 534.64,-229.75 520.65,-217.49 507.26,-208.53"/>
<polygon fill="black" stroke="black" points="511.08,-209.13 506,-207.62 509.03,-211.96 511.08,-209.13"/>
</g>
<!-- function&#45;0&#45;Seq2&#45;&gt;function&#45;0&#45;Beq -->
<g id="edge35" class="edge">
<title>function&#45;0&#45;Seq2:s&#45;&gt;function&#45;0&#45;Beq</title>
<path fill="none" stroke="black" d="M447,-332C447,-322.43 436.22,-326.59 427,-324 347.59,-301.67 319.88,-325.36 244,-293 243.49,-292.78 242.99,-292.56 242.49,-292.32"/>
<polygon fill="black" stroke="black" points="243.24,-290.74 237.99,-290 241.63,-293.85 243.24,-290.74"/>
</g>
<!-- function&#45;0&#45;Seq2&#45;&gt;function&#45;0&#45;Jal -->
<g id="edge36" class="edge">
<title>function&#45;0&#45;Seq2:s&#45;&gt;function&#45;0&#45;Jal</title>
<path fill="none" stroke="black" d="M469,-332C469,-278.03 535.5,-316.68 584,-293 584.36,-292.83 584.71,-292.65 585.07,-292.47"/>
<polygon fill="black" stroke="black" points="586.12,-293.89 589.72,-290 584.48,-290.8 586.12,-293.89"/>
</g>
<!-- function&#45;0&#45;Jal&#45;&gt;function&#45;0&#45;ImmVal -->
<g id="edge41" class="edge">
<title>function&#45;0&#45;Jal:s&#45;&gt;function&#45;0&#45;ImmVal</title>
<path fill="none" stroke="black" d="M619,-253C619,-237.82 610.52,-223.32 601.48,-212.17"/>
<polygon fill="black" stroke="black" points="605.05,-212.95 600.13,-211 602.76,-215.6 605.05,-212.95"/>
</g>
<!-- function&#45;2&#45;ImmVal -->
<g id="node1" class="node">
<title>function&#45;2&#45;ImmVal</title>
<g id="a_node1"><a xlink:title="Imm&#45;8: function&#45;2&#45;ImmVal">
<path fill="white" stroke="transparent" d="M24.67,-253C24.67,-253 65.33,-253 65.33,-253 70.67,-253 76,-258.33 76,-263.67 76,-263.67 76,-274.33 76,-274.33 76,-279.67 70.67,-285 65.33,-285 65.33,-285 24.67,-285 24.67,-285 19.33,-285 14,-279.67 14,-274.33 14,-274.33 14,-263.67 14,-263.67 14,-258.33 19.33,-253 24.67,-253"/>
<text text-anchor="start" x="19" y="-265.3" font-family="Helvetica,sans-Serif" font-size="14.00">ImmVal</text>
<path fill="none" stroke="black" d="M24.67,-253C24.67,-253 65.33,-253 65.33,-253 70.67,-253 76,-258.33 76,-263.67 76,-263.67 76,-274.33 76,-274.33 76,-279.67 70.67,-285 65.33,-285 65.33,-285 24.67,-285 24.67,-285 19.33,-285 14,-279.67 14,-274.33 14,-274.33 14,-263.67 14,-263.67 14,-258.33 19.33,-253 24.67,-253"/>
</a>
</g>
</g>
<!-- primitive&#45;i64&#45;1 -->
<g id="node2" class="node">
<title>primitive&#45;i64&#45;1</title>
<g id="a_node2"><a xlink:title="i64&#45;1: primitive&#45;i64&#45;1">
<path fill="white" stroke="transparent" d="M39.67,-174C39.67,-174 50.33,-174 50.33,-174 55.67,-174 61,-179.33 61,-184.67 61,-184.67 61,-195.33 61,-195.33 61,-200.67 55.67,-206 50.33,-206 50.33,-206 39.67,-206 39.67,-206 34.33,-206 29,-200.67 29,-195.33 29,-195.33 29,-184.67 29,-184.67 29,-179.33 34.33,-174 39.67,-174"/>
<text text-anchor="start" x="40" y="-186.3" font-family="Helvetica,sans-Serif" font-size="14.00">1</text>
<path fill="none" stroke="black" d="M39.67,-174C39.67,-174 50.33,-174 50.33,-174 55.67,-174 61,-179.33 61,-184.67 61,-184.67 61,-195.33 61,-195.33 61,-200.67 55.67,-206 50.33,-206 50.33,-206 39.67,-206 39.67,-206 34.33,-206 29,-200.67 29,-195.33 29,-195.33 29,-184.67 29,-184.67 29,-179.33 34.33,-174 39.67,-174"/>
</a>
</g>
</g>
<!-- function&#45;0&#45;ImmVal -->
<g id="node3" class="node">
<title>function&#45;0&#45;ImmVal</title>
<g id="a_node3"><a xlink:title="Imm&#45;4: function&#45;0&#45;ImmVal">
<path fill="white" stroke="transparent" d="M559.67,-174C559.67,-174 600.33,-174 600.33,-174 605.67,-174 611,-179.33 611,-184.67 611,-184.67 611,-195.33 611,-195.33 611,-200.67 605.67,-206 600.33,-206 600.33,-206 559.67,-206 559.67,-206 554.33,-206 549,-200.67 549,-195.33 549,-195.33 549,-184.67 549,-184.67 549,-179.33 554.33,-174 559.67,-174"/>
<text text-anchor="start" x="554" y="-186.3" font-family="Helvetica,sans-Serif" font-size="14.00">ImmVal</text>
<path fill="none" stroke="black" d="M559.67,-174C559.67,-174 600.33,-174 600.33,-174 605.67,-174 611,-179.33 611,-184.67 611,-184.67 611,-195.33 611,-195.33 611,-200.67 605.67,-206 600.33,-206 600.33,-206 559.67,-206 559.67,-206 554.33,-206 549,-200.67 549,-195.33 549,-195.33 549,-184.67 549,-184.67 549,-179.33 554.33,-174 559.67,-174"/>
</a>
</g>
</g>
<!-- primitive&#45;i64&#45;0 -->
<g id="node4" class="node">
<title>primitive&#45;i64&#45;0</title>
<g id="a_node4"><a xlink:title="i64&#45;0: primitive&#45;i64&#45;0">
<path fill="white" stroke="transparent" d="M574.67,-95C574.67,-95 585.33,-95 585.33,-95 590.67,-95 596,-100.33 596,-105.67 596,-105.67 596,-116.33 596,-116.33 596,-121.67 590.67,-127 585.33,-127 585.33,-127 574.67,-127 574.67,-127 569.33,-127 564,-121.67 564,-116.33 564,-116.33 564,-105.67 564,-105.67 564,-100.33 569.33,-95 574.67,-95"/>
<text text-anchor="start" x="575" y="-107.3" font-family="Helvetica,sans-Serif" font-size="14.00">0</text>
<path fill="none" stroke="black" d="M574.67,-95C574.67,-95 585.33,-95 585.33,-95 590.67,-95 596,-100.33 596,-105.67 596,-105.67 596,-116.33 596,-116.33 596,-121.67 590.67,-127 585.33,-127 585.33,-127 574.67,-127 574.67,-127 569.33,-127 564,-121.67 564,-116.33 564,-116.33 564,-105.67 564,-105.67 564,-100.33 569.33,-95 574.67,-95"/>
</a>
</g>
</g>
<!-- function&#45;3&#45;ImmVal -->
<g id="node5" class="node">
<title>function&#45;3&#45;ImmVal</title>
<g id="a_node5"><a xlink:title="Imm&#45;10: function&#45;3&#45;ImmVal">
<path fill="white" stroke="transparent" d="M326.67,-95C326.67,-95 367.33,-95 367.33,-95 372.67,-95 378,-100.33 378,-105.67 378,-105.67 378,-116.33 378,-116.33 378,-121.67 372.67,-127 367.33,-127 367.33,-127 326.67,-127 326.67,-127 321.33,-127 316,-121.67 316,-116.33 316,-116.33 316,-105.67 316,-105.67 316,-100.33 321.33,-95 326.67,-95"/>
<text text-anchor="start" x="321" y="-107.3" font-family="Helvetica,sans-Serif" font-size="14.00">ImmVal</text>
<path fill="none" stroke="black" d="M326.67,-95C326.67,-95 367.33,-95 367.33,-95 372.67,-95 378,-100.33 378,-105.67 378,-105.67 378,-116.33 378,-116.33 378,-121.67 372.67,-127 367.33,-127 367.33,-127 326.67,-127 326.67,-127 321.33,-127 316,-121.67 316,-116.33 316,-116.33 316,-105.67 316,-105.67 316,-100.33 321.33,-95 326.67,-95"/>
</a>
</g>
</g>
<!-- primitive&#45;i64&#45;4 -->
<g id="node6" class="node">
<title>primitive&#45;i64&#45;4</title>
<g id="a_node6"><a xlink:title="i64&#45;4: primitive&#45;i64&#45;4">
<path fill="white" stroke="transparent" d="M341.67,-16C341.67,-16 352.33,-16 352.33,-16 357.67,-16 363,-21.33 363,-26.67 363,-26.67 363,-37.33 363,-37.33 363,-42.67 357.67,-48 352.33,-48 352.33,-48 341.67,-48 341.67,-48 336.33,-48 331,-42.67 331,-37.33 331,-37.33 331,-26.67 331,-26.67 331,-21.33 336.33,-16 341.67,-16"/>
<text text-anchor="start" x="342" y="-28.3" font-family="Helvetica,sans-Serif" font-size="14.00">4</text>
<path fill="none" stroke="black" d="M341.67,-16C341.67,-16 352.33,-16 352.33,-16 357.67,-16 363,-21.33 363,-26.67 363,-26.67 363,-37.33 363,-37.33 363,-42.67 357.67,-48 352.33,-48 352.33,-48 341.67,-48 341.67,-48 336.33,-48 331,-42.67 331,-37.33 331,-37.33 331,-26.67 331,-26.67 331,-21.33 336.33,-16 341.67,-16"/>
</a>
</g>
</g>
<!-- function&#45;1&#45;ImmVal -->
<g id="node7" class="node">
<title>function&#45;1&#45;ImmVal</title>
<g id="a_node7"><a xlink:title="Imm&#45;6: function&#45;1&#45;ImmVal">
<path fill="white" stroke="transparent" d="M103.67,-174C103.67,-174 144.33,-174 144.33,-174 149.67,-174 155,-179.33 155,-184.67 155,-184.67 155,-195.33 155,-195.33 155,-200.67 149.67,-206 144.33,-206 144.33,-206 103.67,-206 103.67,-206 98.33,-206 93,-200.67 93,-195.33 93,-195.33 93,-184.67 93,-184.67 93,-179.33 98.33,-174 103.67,-174"/>
<text text-anchor="start" x="98" y="-186.3" font-family="Helvetica,sans-Serif" font-size="14.00">ImmVal</text>
<path fill="none" stroke="black" d="M103.67,-174C103.67,-174 144.33,-174 144.33,-174 149.67,-174 155,-179.33 155,-184.67 155,-184.67 155,-195.33 155,-195.33 155,-200.67 149.67,-206 144.33,-206 144.33,-206 103.67,-206 103.67,-206 98.33,-206 93,-200.67 93,-195.33 93,-195.33 93,-184.67 93,-184.67 93,-179.33 98.33,-174 103.67,-174"/>
</a>
</g>
</g>
<!-- primitive&#45;i64&#45;2147483648 -->
<g id="node8" class="node">
<title>primitive&#45;i64&#45;2147483648</title>
<g id="a_node8"><a xlink:title="i64&#45;2147483648: primitive&#45;i64&#45;2147483648">
<path fill="white" stroke="transparent" d="M118.67,-95C118.67,-95 129.33,-95 129.33,-95 134.67,-95 140,-100.33 140,-105.67 140,-105.67 140,-116.33 140,-116.33 140,-121.67 134.67,-127 129.33,-127 129.33,-127 118.67,-127 118.67,-127 113.33,-127 108,-121.67 108,-116.33 108,-116.33 108,-105.67 108,-105.67 108,-100.33 113.33,-95 118.67,-95"/>
<text text-anchor="start" x="116.5" y="-107.3" font-family="Helvetica,sans-Serif" font-size="14.00">&#45;1</text>
<path fill="none" stroke="black" d="M118.67,-95C118.67,-95 129.33,-95 129.33,-95 134.67,-95 140,-100.33 140,-105.67 140,-105.67 140,-116.33 140,-116.33 140,-121.67 134.67,-127 129.33,-127 129.33,-127 118.67,-127 118.67,-127 113.33,-127 108,-121.67 108,-116.33 108,-116.33 108,-105.67 108,-105.67 108,-100.33 113.33,-95 118.67,-95"/>
</a>
</g>
</g>
<!-- function&#45;0&#45;Beq -->
<g id="node9" class="node">
<title>function&#45;0&#45;Beq</title>
<g id="a_node9"><a xlink:title="Inst&#45;11: function&#45;0&#45;Beq">
<path fill="white" stroke="transparent" d="M204.67,-253C204.67,-253 221.33,-253 221.33,-253 226.67,-253 232,-258.33 232,-263.67 232,-263.67 232,-274.33 232,-274.33 232,-279.67 226.67,-285 221.33,-285 221.33,-285 204.67,-285 204.67,-285 199.33,-285 194,-279.67 194,-274.33 194,-274.33 194,-263.67 194,-263.67 194,-258.33 199.33,-253 204.67,-253"/>
<text text-anchor="start" x="199" y="-265.3" font-family="Helvetica,sans-Serif" font-size="14.00">Beq</text>
<path fill="none" stroke="black" d="M204.67,-253C204.67,-253 221.33,-253 221.33,-253 226.67,-253 232,-258.33 232,-263.67 232,-263.67 232,-274.33 232,-274.33 232,-279.67 226.67,-285 221.33,-285 221.33,-285 204.67,-285 204.67,-285 199.33,-285 194,-279.67 194,-274.33 194,-274.33 194,-263.67 194,-263.67 194,-258.33 199.33,-253 204.67,-253"/>
</a>
</g>
</g>
<!-- function&#45;1&#45;RegVal -->
<g id="node10" class="node">
<title>function&#45;1&#45;RegVal</title>
<g id="a_node10"><a xlink:title="Inst&#45;1: function&#45;1&#45;RegVal">
<path fill="white" stroke="transparent" d="M182.17,-174C182.17,-174 217.83,-174 217.83,-174 223.17,-174 228.5,-179.33 228.5,-184.67 228.5,-184.67 228.5,-195.33 228.5,-195.33 228.5,-200.67 223.17,-206 217.83,-206 217.83,-206 182.17,-206 182.17,-206 176.83,-206 171.5,-200.67 171.5,-195.33 171.5,-195.33 171.5,-184.67 171.5,-184.67 171.5,-179.33 176.83,-174 182.17,-174"/>
<text text-anchor="start" x="177" y="-186.3" font-family="Helvetica,sans-Serif" font-size="14.00">RegVal</text>
<path fill="none" stroke="black" d="M182.17,-174C182.17,-174 217.83,-174 217.83,-174 223.17,-174 228.5,-179.33 228.5,-184.67 228.5,-184.67 228.5,-195.33 228.5,-195.33 228.5,-200.67 223.17,-206 217.83,-206 217.83,-206 182.17,-206 182.17,-206 176.83,-206 171.5,-200.67 171.5,-195.33 171.5,-195.33 171.5,-184.67 171.5,-184.67 171.5,-179.33 176.83,-174 182.17,-174"/>
</a>
</g>
</g>
<!-- function&#45;2&#45;RegVal -->
<g id="node11" class="node">
<title>function&#45;2&#45;RegVal</title>
<g id="a_node11"><a xlink:title="Inst&#45;2: function&#45;2&#45;RegVal">
<path fill="white" stroke="transparent" d="M456.17,-174C456.17,-174 491.83,-174 491.83,-174 497.17,-174 502.5,-179.33 502.5,-184.67 502.5,-184.67 502.5,-195.33 502.5,-195.33 502.5,-200.67 497.17,-206 491.83,-206 491.83,-206 456.17,-206 456.17,-206 450.83,-206 445.5,-200.67 445.5,-195.33 445.5,-195.33 445.5,-184.67 445.5,-184.67 445.5,-179.33 450.83,-174 456.17,-174"/>
<text text-anchor="start" x="451" y="-186.3" font-family="Helvetica,sans-Serif" font-size="14.00">RegVal</text>
<path fill="none" stroke="black" d="M456.17,-174C456.17,-174 491.83,-174 491.83,-174 497.17,-174 502.5,-179.33 502.5,-184.67 502.5,-184.67 502.5,-195.33 502.5,-195.33 502.5,-200.67 497.17,-206 491.83,-206 491.83,-206 456.17,-206 456.17,-206 450.83,-206 445.5,-200.67 445.5,-195.33 445.5,-195.33 445.5,-184.67 445.5,-184.67 445.5,-179.33 450.83,-174 456.17,-174"/>
</a>
</g>
</g>
<!-- function&#45;1&#45;Beq -->
<g id="node12" class="node">
<title>function&#45;1&#45;Beq</title>
<g id="a_node12"><a xlink:title="Inst&#45;11: function&#45;1&#45;Beq">
<path fill="white" stroke="transparent" d="M262.67,-253C262.67,-253 279.33,-253 279.33,-253 284.67,-253 290,-258.33 290,-263.67 290,-263.67 290,-274.33 290,-274.33 290,-279.67 284.67,-285 279.33,-285 279.33,-285 262.67,-285 262.67,-285 257.33,-285 252,-279.67 252,-274.33 252,-274.33 252,-263.67 252,-263.67 252,-258.33 257.33,-253 262.67,-253"/>
<text text-anchor="start" x="257" y="-265.3" font-family="Helvetica,sans-Serif" font-size="14.00">Beq</text>
<path fill="none" stroke="black" d="M262.67,-253C262.67,-253 279.33,-253 279.33,-253 284.67,-253 290,-258.33 290,-263.67 290,-263.67 290,-274.33 290,-274.33 290,-279.67 284.67,-285 279.33,-285 279.33,-285 262.67,-285 262.67,-285 257.33,-285 252,-279.67 252,-274.33 252,-274.33 252,-263.67 252,-263.67 252,-258.33 257.33,-253 262.67,-253"/>
</a>
</g>
</g>
<!-- function&#45;1&#45;Seq2 -->
<g id="node13" class="node">
<title>function&#45;1&#45;Seq2</title>
<g id="a_node13"><a xlink:title="Inst&#45;11: function&#45;1&#45;Seq2">
<path fill="white" stroke="transparent" d="M316.67,-253C316.67,-253 341.33,-253 341.33,-253 346.67,-253 352,-258.33 352,-263.67 352,-263.67 352,-274.33 352,-274.33 352,-279.67 346.67,-285 341.33,-285 341.33,-285 316.67,-285 316.67,-285 311.33,-285 306,-279.67 306,-274.33 306,-274.33 306,-263.67 306,-263.67 306,-258.33 311.33,-253 316.67,-253"/>
<text text-anchor="start" x="311" y="-265.3" font-family="Helvetica,sans-Serif" font-size="14.00">Seq2</text>
<path fill="none" stroke="black" d="M316.67,-253C316.67,-253 341.33,-253 341.33,-253 346.67,-253 352,-258.33 352,-263.67 352,-263.67 352,-274.33 352,-274.33 352,-279.67 346.67,-285 341.33,-285 341.33,-285 316.67,-285 316.67,-285 311.33,-285 306,-279.67 306,-274.33 306,-274.33 306,-263.67 306,-263.67 306,-258.33 311.33,-253 316.67,-253"/>
</a>
</g>
</g>
<!-- function&#45;2&#45;Bne -->
<g id="node14" class="node">
<title>function&#45;2&#45;Bne</title>
<g id="a_node14"><a xlink:title="Inst&#45;13: function&#45;2&#45;Bne">
<path fill="white" stroke="transparent" d="M502.67,-253C502.67,-253 519.33,-253 519.33,-253 524.67,-253 530,-258.33 530,-263.67 530,-263.67 530,-274.33 530,-274.33 530,-279.67 524.67,-285 519.33,-285 519.33,-285 502.67,-285 502.67,-285 497.33,-285 492,-279.67 492,-274.33 492,-274.33 492,-263.67 492,-263.67 492,-258.33 497.33,-253 502.67,-253"/>
<text text-anchor="start" x="497" y="-265.3" font-family="Helvetica,sans-Serif" font-size="14.00">Bne</text>
<path fill="none" stroke="black" d="M502.67,-253C502.67,-253 519.33,-253 519.33,-253 524.67,-253 530,-258.33 530,-263.67 530,-263.67 530,-274.33 530,-274.33 530,-279.67 524.67,-285 519.33,-285 519.33,-285 502.67,-285 502.67,-285 497.33,-285 492,-279.67 492,-274.33 492,-274.33 492,-263.67 492,-263.67 492,-258.33 497.33,-253 502.67,-253"/>
</a>
</g>
</g>
<!-- function&#45;1&#45;Jal -->
<g id="node15" class="node">
<title>function&#45;1&#45;Jal</title>
<g id="a_node15"><a xlink:title="Inst&#45;14: function&#45;1&#45;Jal">
<path fill="white" stroke="transparent" d="M341.67,-174C341.67,-174 352.33,-174 352.33,-174 357.67,-174 363,-179.33 363,-184.67 363,-184.67 363,-195.33 363,-195.33 363,-200.67 357.67,-206 352.33,-206 352.33,-206 341.67,-206 341.67,-206 336.33,-206 331,-200.67 331,-195.33 331,-195.33 331,-184.67 331,-184.67 331,-179.33 336.33,-174 341.67,-174"/>
<text text-anchor="start" x="338.5" y="-186.3" font-family="Helvetica,sans-Serif" font-size="14.00">Jal</text>
<path fill="none" stroke="black" d="M341.67,-174C341.67,-174 352.33,-174 352.33,-174 357.67,-174 363,-179.33 363,-184.67 363,-184.67 363,-195.33 363,-195.33 363,-200.67 357.67,-206 352.33,-206 352.33,-206 341.67,-206 341.67,-206 336.33,-206 331,-200.67 331,-195.33 331,-195.33 331,-184.67 331,-184.67 331,-179.33 336.33,-174 341.67,-174"/>
</a>
</g>
</g>
<!-- function&#45;0&#45;Add -->
<g id="node16" class="node">
<title>function&#45;0&#45;Add</title>
<g id="a_node16"><a xlink:title="Inst&#45;3: function&#45;0&#45;Add">
<path fill="white" stroke="transparent" d="M320.67,-411C320.67,-411 337.33,-411 337.33,-411 342.67,-411 348,-416.33 348,-421.67 348,-421.67 348,-432.33 348,-432.33 348,-437.67 342.67,-443 337.33,-443 337.33,-443 320.67,-443 320.67,-443 315.33,-443 310,-437.67 310,-432.33 310,-432.33 310,-421.67 310,-421.67 310,-416.33 315.33,-411 320.67,-411"/>
<text text-anchor="start" x="315" y="-423.3" font-family="Helvetica,sans-Serif" font-size="14.00">Add</text>
<path fill="none" stroke="black" d="M320.67,-411C320.67,-411 337.33,-411 337.33,-411 342.67,-411 348,-416.33 348,-421.67 348,-421.67 348,-432.33 348,-432.33 348,-437.67 342.67,-443 337.33,-443 337.33,-443 320.67,-443 320.67,-443 315.33,-443 310,-437.67 310,-432.33 310,-432.33 310,-421.67 310,-421.67 310,-416.33 315.33,-411 320.67,-411"/>
</a>
</g>
</g>
<!-- function&#45;0&#45;RegVal -->
<g id="node17" class="node">
<title>function&#45;0&#45;RegVal</title>
<g id="a_node17"><a xlink:title="Inst&#45;0: function&#45;0&#45;RegVal">
<path fill="white" stroke="transparent" d="M508.17,-332C508.17,-332 543.83,-332 543.83,-332 549.17,-332 554.5,-337.33 554.5,-342.67 554.5,-342.67 554.5,-353.33 554.5,-353.33 554.5,-358.67 549.17,-364 543.83,-364 543.83,-364 508.17,-364 508.17,-364 502.83,-364 497.5,-358.67 497.5,-353.33 497.5,-353.33 497.5,-342.67 497.5,-342.67 497.5,-337.33 502.83,-332 508.17,-332"/>
<text text-anchor="start" x="503" y="-344.3" font-family="Helvetica,sans-Serif" font-size="14.00">RegVal</text>
<path fill="none" stroke="black" d="M508.17,-332C508.17,-332 543.83,-332 543.83,-332 549.17,-332 554.5,-337.33 554.5,-342.67 554.5,-342.67 554.5,-353.33 554.5,-353.33 554.5,-358.67 549.17,-364 543.83,-364 543.83,-364 508.17,-364 508.17,-364 502.83,-364 497.5,-358.67 497.5,-353.33 497.5,-353.33 497.5,-342.67 497.5,-342.67 497.5,-337.33 502.83,-332 508.17,-332"/>
</a>
</g>
</g>
<!-- function&#45;0&#45;Addi -->
<g id="node18" class="node">
<title>function&#45;0&#45;Addi</title>
<g id="a_node18"><a xlink:title="Inst&#45;9: function&#45;0&#45;Addi">
<path fill="white" stroke="transparent" d="M105.17,-332C105.17,-332 124.83,-332 124.83,-332 130.17,-332 135.5,-337.33 135.5,-342.67 135.5,-342.67 135.5,-353.33 135.5,-353.33 135.5,-358.67 130.17,-364 124.83,-364 124.83,-364 105.17,-364 105.17,-364 99.83,-364 94.5,-358.67 94.5,-353.33 94.5,-353.33 94.5,-342.67 94.5,-342.67 94.5,-337.33 99.83,-332 105.17,-332"/>
<text text-anchor="start" x="100" y="-344.3" font-family="Helvetica,sans-Serif" font-size="14.00">Addi</text>
<path fill="none" stroke="black" d="M105.17,-332C105.17,-332 124.83,-332 124.83,-332 130.17,-332 135.5,-337.33 135.5,-342.67 135.5,-342.67 135.5,-353.33 135.5,-353.33 135.5,-358.67 130.17,-364 124.83,-364 124.83,-364 105.17,-364 105.17,-364 99.83,-364 94.5,-358.67 94.5,-353.33 94.5,-353.33 94.5,-342.67 94.5,-342.67 94.5,-337.33 99.83,-332 105.17,-332"/>
</a>
</g>
</g>
<!-- function&#45;1&#45;Add -->
<g id="node19" class="node">
<title>function&#45;1&#45;Add</title>
<g id="a_node19"><a xlink:title="Inst&#45;3: function&#45;1&#45;Add">
<path fill="white" stroke="transparent" d="M262.67,-411C262.67,-411 279.33,-411 279.33,-411 284.67,-411 290,-416.33 290,-421.67 290,-421.67 290,-432.33 290,-432.33 290,-437.67 284.67,-443 279.33,-443 279.33,-443 262.67,-443 262.67,-443 257.33,-443 252,-437.67 252,-432.33 252,-432.33 252,-421.67 252,-421.67 252,-416.33 257.33,-411 262.67,-411"/>
<text text-anchor="start" x="257" y="-423.3" font-family="Helvetica,sans-Serif" font-size="14.00">Add</text>
<path fill="none" stroke="black" d="M262.67,-411C262.67,-411 279.33,-411 279.33,-411 284.67,-411 290,-416.33 290,-421.67 290,-421.67 290,-432.33 290,-432.33 290,-437.67 284.67,-443 279.33,-443 279.33,-443 262.67,-443 262.67,-443 257.33,-443 252,-437.67 252,-432.33 252,-432.33 252,-421.67 252,-421.67 252,-416.33 257.33,-411 262.67,-411"/>
</a>
</g>
</g>
<!-- function&#45;0&#45;Sub -->
<g id="node20" class="node">
<title>function&#45;0&#45;Sub</title>
<g id="a_node20"><a xlink:title="Inst&#45;3: function&#45;0&#45;Sub">
<path fill="white" stroke="transparent" d="M378.67,-411C378.67,-411 395.33,-411 395.33,-411 400.67,-411 406,-416.33 406,-421.67 406,-421.67 406,-432.33 406,-432.33 406,-437.67 400.67,-443 395.33,-443 395.33,-443 378.67,-443 378.67,-443 373.33,-443 368,-437.67 368,-432.33 368,-432.33 368,-421.67 368,-421.67 368,-416.33 373.33,-411 378.67,-411"/>
<text text-anchor="start" x="373" y="-423.3" font-family="Helvetica,sans-Serif" font-size="14.00">Sub</text>
<path fill="none" stroke="black" d="M378.67,-411C378.67,-411 395.33,-411 395.33,-411 400.67,-411 406,-416.33 406,-421.67 406,-421.67 406,-432.33 406,-432.33 406,-437.67 400.67,-443 395.33,-443 395.33,-443 378.67,-443 378.67,-443 373.33,-443 368,-437.67 368,-432.33 368,-432.33 368,-421.67 368,-421.67 368,-416.33 373.33,-411 378.67,-411"/>
</a>
</g>
</g>
<!-- function&#45;3&#45;Bne -->
<g id="node21" class="node">
<title>function&#45;3&#45;Bne</title>
<g id="a_node21"><a xlink:title="Inst&#45;13: function&#45;3&#45;Bne">
<path fill="white" stroke="transparent" d="M444.67,-253C444.67,-253 461.33,-253 461.33,-253 466.67,-253 472,-258.33 472,-263.67 472,-263.67 472,-274.33 472,-274.33 472,-279.67 466.67,-285 461.33,-285 461.33,-285 444.67,-285 444.67,-285 439.33,-285 434,-279.67 434,-274.33 434,-274.33 434,-263.67 434,-263.67 434,-258.33 439.33,-253 444.67,-253"/>
<text text-anchor="start" x="439" y="-265.3" font-family="Helvetica,sans-Serif" font-size="14.00">Bne</text>
<path fill="none" stroke="black" d="M444.67,-253C444.67,-253 461.33,-253 461.33,-253 466.67,-253 472,-258.33 472,-263.67 472,-263.67 472,-274.33 472,-274.33 472,-279.67 466.67,-285 461.33,-285 461.33,-285 444.67,-285 444.67,-285 439.33,-285 434,-279.67 434,-274.33 434,-274.33 434,-263.67 434,-263.67 434,-258.33 439.33,-253 444.67,-253"/>
</a>
</g>
</g>
<!-- function&#45;2&#45;Seq2 -->
<g id="node22" class="node">
<title>function&#45;2&#45;Seq2</title>
<g id="a_node22"><a xlink:title="Inst&#45;13: function&#45;2&#45;Seq2">
<path fill="white" stroke="transparent" d="M382.67,-253C382.67,-253 407.33,-253 407.33,-253 412.67,-253 418,-258.33 418,-263.67 418,-263.67 418,-274.33 418,-274.33 418,-279.67 412.67,-285 407.33,-285 407.33,-285 382.67,-285 382.67,-285 377.33,-285 372,-279.67 372,-274.33 372,-274.33 372,-263.67 372,-263.67 372,-258.33 377.33,-253 382.67,-253"/>
<text text-anchor="start" x="377" y="-265.3" font-family="Helvetica,sans-Serif" font-size="14.00">Seq2</text>
<path fill="none" stroke="black" d="M382.67,-253C382.67,-253 407.33,-253 407.33,-253 412.67,-253 418,-258.33 418,-263.67 418,-263.67 418,-274.33 418,-274.33 418,-279.67 412.67,-285 407.33,-285 407.33,-285 382.67,-285 382.67,-285 377.33,-285 372,-279.67 372,-274.33 372,-274.33 372,-263.67 372,-263.67 372,-258.33 377.33,-253 382.67,-253"/>
</a>
</g>
</g>
<!-- function&#45;0&#45;Xori -->
<g id="node23" class="node">
<title>function&#45;0&#45;Xori</title>
<g id="a_node23"><a xlink:title="Inst&#45;7: function&#45;0&#45;Xori">
<path fill="white" stroke="transparent" d="M106.67,-253C106.67,-253 123.33,-253 123.33,-253 128.67,-253 134,-258.33 134,-263.67 134,-263.67 134,-274.33 134,-274.33 134,-279.67 128.67,-285 123.33,-285 123.33,-285 106.67,-285 106.67,-285 101.33,-285 96,-279.67 96,-274.33 96,-274.33 96,-263.67 96,-263.67 96,-258.33 101.33,-253 106.67,-253"/>
<text text-anchor="start" x="101" y="-265.3" font-family="Helvetica,sans-Serif" font-size="14.00">Xori</text>
<path fill="none" stroke="black" d="M106.67,-253C106.67,-253 123.33,-253 123.33,-253 128.67,-253 134,-258.33 134,-263.67 134,-263.67 134,-274.33 134,-274.33 134,-279.67 128.67,-285 123.33,-285 123.33,-285 106.67,-285 106.67,-285 101.33,-285 96,-279.67 96,-274.33 96,-274.33 96,-263.67 96,-263.67 96,-258.33 101.33,-253 106.67,-253"/>
</a>
</g>
</g>
<!-- function&#45;0&#45;Bne -->
<g id="node24" class="node">
<title>function&#45;0&#45;Bne</title>
<g id="a_node24"><a xlink:title="Inst&#45;5: function&#45;0&#45;Bne">
<path fill="white" stroke="transparent" d="M391.67,-332C391.67,-332 408.33,-332 408.33,-332 413.67,-332 419,-337.33 419,-342.67 419,-342.67 419,-353.33 419,-353.33 419,-358.67 413.67,-364 408.33,-364 408.33,-364 391.67,-364 391.67,-364 386.33,-364 381,-358.67 381,-353.33 381,-353.33 381,-342.67 381,-342.67 381,-337.33 386.33,-332 391.67,-332"/>
<text text-anchor="start" x="386" y="-344.3" font-family="Helvetica,sans-Serif" font-size="14.00">Bne</text>
<path fill="none" stroke="black" d="M391.67,-332C391.67,-332 408.33,-332 408.33,-332 413.67,-332 419,-337.33 419,-342.67 419,-342.67 419,-353.33 419,-353.33 419,-358.67 413.67,-364 408.33,-364 408.33,-364 391.67,-364 391.67,-364 386.33,-364 381,-358.67 381,-353.33 381,-353.33 381,-342.67 381,-342.67 381,-337.33 386.33,-332 391.67,-332"/>
</a>
</g>
</g>
<!-- function&#45;1&#45;Bne -->
<g id="node25" class="node">
<title>function&#45;1&#45;Bne</title>
<g id="a_node25"><a xlink:title="Inst&#45;5: function&#45;1&#45;Bne">
<path fill="white" stroke="transparent" d="M333.67,-332C333.67,-332 350.33,-332 350.33,-332 355.67,-332 361,-337.33 361,-342.67 361,-342.67 361,-353.33 361,-353.33 361,-358.67 355.67,-364 350.33,-364 350.33,-364 333.67,-364 333.67,-364 328.33,-364 323,-358.67 323,-353.33 323,-353.33 323,-342.67 323,-342.67 323,-337.33 328.33,-332 333.67,-332"/>
<text text-anchor="start" x="328" y="-344.3" font-family="Helvetica,sans-Serif" font-size="14.00">Bne</text>
<path fill="none" stroke="black" d="M333.67,-332C333.67,-332 350.33,-332 350.33,-332 355.67,-332 361,-337.33 361,-342.67 361,-342.67 361,-353.33 361,-353.33 361,-358.67 355.67,-364 350.33,-364 350.33,-364 333.67,-364 333.67,-364 328.33,-364 323,-358.67 323,-353.33 323,-353.33 323,-342.67 323,-342.67 323,-337.33 328.33,-332 333.67,-332"/>
</a>
</g>
</g>
<!-- function&#45;0&#45;Seq2 -->
<g id="node26" class="node">
<title>function&#45;0&#45;Seq2</title>
<g id="a_node26"><a xlink:title="Inst&#45;5: function&#45;0&#45;Seq2">
<path fill="white" stroke="transparent" d="M445.67,-332C445.67,-332 470.33,-332 470.33,-332 475.67,-332 481,-337.33 481,-342.67 481,-342.67 481,-353.33 481,-353.33 481,-358.67 475.67,-364 470.33,-364 470.33,-364 445.67,-364 445.67,-364 440.33,-364 435,-358.67 435,-353.33 435,-353.33 435,-342.67 435,-342.67 435,-337.33 440.33,-332 445.67,-332"/>
<text text-anchor="start" x="440" y="-344.3" font-family="Helvetica,sans-Serif" font-size="14.00">Seq2</text>
<path fill="none" stroke="black" d="M445.67,-332C445.67,-332 470.33,-332 470.33,-332 475.67,-332 481,-337.33 481,-342.67 481,-342.67 481,-353.33 481,-353.33 481,-358.67 475.67,-364 470.33,-364 470.33,-364 445.67,-364 445.67,-364 440.33,-364 435,-358.67 435,-353.33 435,-353.33 435,-342.67 435,-342.67 435,-337.33 440.33,-332 445.67,-332"/>
</a>
</g>
</g>
<!-- function&#45;0&#45;Jal -->
<g id="node27" class="node">
<title>function&#45;0&#45;Jal</title>
<g id="a_node27"><a xlink:title="Inst&#45;12: function&#45;0&#45;Jal">
<path fill="white" stroke="transparent" d="M613.67,-253C613.67,-253 624.33,-253 624.33,-253 629.67,-253 635,-258.33 635,-263.67 635,-263.67 635,-274.33 635,-274.33 635,-279.67 629.67,-285 624.33,-285 624.33,-285 613.67,-285 613.67,-285 608.33,-285 603,-279.67 603,-274.33 603,-274.33 603,-263.67 603,-263.67 603,-258.33 608.33,-253 613.67,-253"/>
<text text-anchor="start" x="610.5" y="-265.3" font-family="Helvetica,sans-Serif" font-size="14.00">Jal</text>
<path fill="none" stroke="black" d="M613.67,-253C613.67,-253 624.33,-253 624.33,-253 629.67,-253 635,-258.33 635,-263.67 635,-263.67 635,-274.33 635,-274.33 635,-279.67 629.67,-285 624.33,-285 624.33,-285 613.67,-285 613.67,-285 608.33,-285 603,-279.67 603,-274.33 603,-274.33 603,-263.67 603,-263.67 603,-258.33 608.33,-253 613.67,-253"/>
</a>
</g>
</g>
<!-- primitive&#45;String&#45;2 -->
<g id="node28" class="node">
<title>primitive&#45;String&#45;2</title>
<g id="a_node28"><a xlink:title="String&#45;2: primitive&#45;String&#45;2">
<path fill="white" stroke="transparent" d="M451.17,-95C451.17,-95 498.83,-95 498.83,-95 504.17,-95 509.5,-100.33 509.5,-105.67 509.5,-105.67 509.5,-116.33 509.5,-116.33 509.5,-121.67 504.17,-127 498.83,-127 498.83,-127 451.17,-127 451.17,-127 445.83,-127 440.5,-121.67 440.5,-116.33 440.5,-116.33 440.5,-105.67 440.5,-105.67 440.5,-100.33 445.83,-95 451.17,-95"/>
<text text-anchor="start" x="446" y="-107.3" font-family="Helvetica,sans-Serif" font-size="14.00">&quot;zero_0&quot;</text>
<path fill="none" stroke="black" d="M451.17,-95C451.17,-95 498.83,-95 498.83,-95 504.17,-95 509.5,-100.33 509.5,-105.67 509.5,-105.67 509.5,-116.33 509.5,-116.33 509.5,-121.67 504.17,-127 498.83,-127 498.83,-127 451.17,-127 451.17,-127 445.83,-127 440.5,-121.67 440.5,-116.33 440.5,-116.33 440.5,-105.67 440.5,-105.67 440.5,-100.33 445.83,-95 451.17,-95"/>
</a>
</g>
</g>
<!-- primitive&#45;String&#45;0 -->
<g id="node29" class="node">
<title>primitive&#45;String&#45;0</title>
<g id="a_node29"><a xlink:title="String&#45;0: primitive&#45;String&#45;0">
<path fill="white" stroke="transparent" d="M669.17,-253C669.17,-253 704.83,-253 704.83,-253 710.17,-253 715.5,-258.33 715.5,-263.67 715.5,-263.67 715.5,-274.33 715.5,-274.33 715.5,-279.67 710.17,-285 704.83,-285 704.83,-285 669.17,-285 669.17,-285 663.83,-285 658.5,-279.67 658.5,-274.33 658.5,-274.33 658.5,-263.67 658.5,-263.67 658.5,-258.33 663.83,-253 669.17,-253"/>
<text text-anchor="start" x="664" y="-265.3" font-family="Helvetica,sans-Serif" font-size="14.00">&quot;a7_0&quot;</text>
<path fill="none" stroke="black" d="M669.17,-253C669.17,-253 704.83,-253 704.83,-253 710.17,-253 715.5,-258.33 715.5,-263.67 715.5,-263.67 715.5,-274.33 715.5,-274.33 715.5,-279.67 710.17,-285 704.83,-285 704.83,-285 669.17,-285 669.17,-285 663.83,-285 658.5,-279.67 658.5,-274.33 658.5,-274.33 658.5,-263.67 658.5,-263.67 658.5,-258.33 663.83,-253 669.17,-253"/>
</a>
</g>
</g>
<!-- primitive&#45;String&#45;1 -->
<g id="node30" class="node">
<title>primitive&#45;String&#45;1</title>
<g id="a_node30"><a xlink:title="String&#45;1: primitive&#45;String&#45;1">
<path fill="white" stroke="transparent" d="M183.67,-95C183.67,-95 218.33,-95 218.33,-95 223.67,-95 229,-100.33 229,-105.67 229,-105.67 229,-116.33 229,-116.33 229,-121.67 223.67,-127 218.33,-127 218.33,-127 183.67,-127 183.67,-127 178.33,-127 173,-121.67 173,-116.33 173,-116.33 173,-105.67 173,-105.67 173,-100.33 178.33,-95 183.67,-95"/>
<text text-anchor="start" x="178" y="-107.3" font-family="Helvetica,sans-Serif" font-size="14.00">&quot;s0_0&quot;</text>
<path fill="none" stroke="black" d="M183.67,-95C183.67,-95 218.33,-95 218.33,-95 223.67,-95 229,-100.33 229,-105.67 229,-105.67 229,-116.33 229,-116.33 229,-121.67 223.67,-127 218.33,-127 218.33,-127 183.67,-127 183.67,-127 178.33,-127 173,-121.67 173,-116.33 173,-116.33 173,-105.67 173,-105.67 173,-100.33 178.33,-95 183.67,-95"/>
</a>
</g>
</g>
</g>
</svg>
