<?xml version="1.0" encoding="UTF-8" standalone="no"?>
<!DOCTYPE svg PUBLIC "-//W3C//DTD SVG 1.1//EN"
 "http://www.w3.org/Graphics/SVG/1.1/DTD/svg11.dtd">
<!-- Generated by graphviz version 2.43.0 (0)
 -->
<!-- Title: %3 Pages: 1 -->
<svg width="317pt" height="309pt"
 viewBox="0.00 0.00 317.00 309.00" xmlns="http://www.w3.org/2000/svg" xmlns:xlink="http://www.w3.org/1999/xlink">
<g id="graph0" class="graph" transform="scale(1 1) rotate(0) translate(4 305)">
<title>%3</title>
<polygon fill="white" stroke="#000000" points="-4,4 -4,-305 313,-305 313,4 -4,4"/>
<g id="clust1" class="cluster">
<title>outer_cluster_Imm&#45;5</title>
</g>
<g id="clust2" class="cluster">
<title>cluster_Imm&#45;5</title>
<path fill="#ffffb3" stroke="black" stroke-dasharray="5,2" d="M23,-169C23,-169 67,-169 67,-169 73,-169 79,-175 79,-181 79,-181 79,-199 79,-199 79,-205 73,-211 67,-211 67,-211 23,-211 23,-211 17,-211 11,-205 11,-199 11,-199 11,-181 11,-181 11,-175 17,-169 23,-169"/>
</g>
<g id="clust4" class="cluster">
<title>outer_cluster_Imm&#45;2</title>
</g>
<g id="clust5" class="cluster">
<title>cluster_Imm&#45;2</title>
<path fill="#ffffb3" stroke="black" stroke-dasharray="5,2" d="M242,-90C242,-90 286,-90 286,-90 292,-90 298,-96 298,-102 298,-102 298,-120 298,-120 298,-126 292,-132 286,-132 286,-132 242,-132 242,-132 236,-132 230,-126 230,-120 230,-120 230,-102 230,-102 230,-96 236,-90 242,-90"/>
</g>
<g id="clust7" class="cluster">
<title>outer_cluster_Inst&#45;4</title>
</g>
<g id="clust8" class="cluster">
<title>cluster_Inst&#45;4</title>
<path fill="#bebada" stroke="black" stroke-dasharray="5,2" d="M173,-248C173,-248 267,-248 267,-248 273,-248 279,-254 279,-260 279,-260 279,-278 279,-278 279,-284 273,-290 267,-290 267,-290 173,-290 173,-290 167,-290 161,-284 161,-278 161,-278 161,-260 161,-260 161,-254 167,-248 173,-248"/>
</g>
<g id="clust10" class="cluster">
<title>outer_cluster_Inst&#45;6</title>
</g>
<g id="clust11" class="cluster">
<title>cluster_Inst&#45;6</title>
<path fill="#bebada" stroke="black" stroke-dasharray="5,2" d="M67,-248C67,-248 103,-248 103,-248 109,-248 115,-254 115,-260 115,-260 115,-278 115,-278 115,-284 109,-290 103,-290 103,-290 67,-290 67,-290 61,-290 55,-284 55,-278 55,-278 55,-260 55,-260 55,-254 61,-248 67,-248"/>
</g>
<g id="clust13" class="cluster">
<title>outer_cluster_Inst&#45;3</title>
</g>
<g id="clust14" class="cluster">
<title>cluster_Inst&#45;3</title>
<path fill="#bebada" stroke="black" stroke-dasharray="5,2" d="M244,-169C244,-169 280,-169 280,-169 286,-169 292,-175 292,-181 292,-181 292,-199 292,-199 292,-205 286,-211 280,-211 280,-211 244,-211 244,-211 238,-211 232,-205 232,-199 232,-199 232,-181 232,-181 232,-175 238,-169 244,-169"/>
</g>
<g id="clust16" class="cluster">
<title>outer_cluster_Inst&#45;0</title>
</g>
<g id="clust17" class="cluster">
<title>cluster_Inst&#45;0</title>
<path fill="#bebada" stroke="black" stroke-dasharray="5,2" d="M97,-169C97,-169 137,-169 137,-169 143,-169 149,-175 149,-181 149,-181 149,-199 149,-199 149,-205 143,-211 137,-211 137,-211 97,-211 97,-211 91,-211 85,-205 85,-199 85,-199 85,-181 85,-181 85,-175 91,-169 97,-169"/>
</g>
<g id="clust19" class="cluster">
<title>outer_cluster_Inst&#45;1</title>
</g>
<g id="clust20" class="cluster">
<title>cluster_Inst&#45;1</title>
<path fill="#bebada" stroke="black" stroke-dasharray="5,2" d="M174,-169C174,-169 214,-169 214,-169 220,-169 226,-175 226,-181 226,-181 226,-199 226,-199 226,-205 220,-211 214,-211 214,-211 174,-211 174,-211 168,-211 162,-205 162,-199 162,-199 162,-181 162,-181 162,-175 168,-169 174,-169"/>
</g>
<g id="clust22" class="cluster">
<title>outer_cluster_String&#45;0</title>
</g>
<g id="clust23" class="cluster">
<title>cluster_String&#45;0</title>
<path fill="#fb8072" stroke="black" stroke-dasharray="5,2" d="M98,-90C98,-90 138,-90 138,-90 144,-90 150,-96 150,-102 150,-102 150,-120 150,-120 150,-126 144,-132 138,-132 138,-132 98,-132 98,-132 92,-132 86,-126 86,-120 86,-120 86,-102 86,-102 86,-96 92,-90 98,-90"/>
</g>
<g id="clust25" class="cluster">
<title>outer_cluster_String&#45;1</title>
</g>
<g id="clust26" class="cluster">
<title>cluster_String&#45;1</title>
<path fill="#fb8072" stroke="black" stroke-dasharray="5,2" d="M172,-90C172,-90 212,-90 212,-90 218,-90 224,-96 224,-102 224,-102 224,-120 224,-120 224,-126 218,-132 212,-132 212,-132 172,-132 172,-132 166,-132 160,-126 160,-120 160,-120 160,-102 160,-102 160,-96 166,-90 172,-90"/>
</g>
<g id="clust28" class="cluster">
<title>outer_cluster_i64&#45;2048</title>
</g>
<g id="clust29" class="cluster">
<title>cluster_i64&#45;2048</title>
<path fill="#80b1d3" stroke="black" stroke-dasharray="5,2" d="M246,-11C246,-11 282,-11 282,-11 288,-11 294,-17 294,-23 294,-23 294,-41 294,-41 294,-47 288,-53 282,-53 282,-53 246,-53 246,-53 240,-53 234,-47 234,-41 234,-41 234,-23 234,-23 234,-17 240,-11 246,-11"/>
</g>
<g id="clust31" class="cluster">
<title>outer_cluster_i64&#45;0</title>
</g>
<g id="clust32" class="cluster">
<title>cluster_i64&#45;0</title>
<path fill="#80b1d3" stroke="black" stroke-dasharray="5,2" d="M27,-90C27,-90 63,-90 63,-90 69,-90 75,-96 75,-102 75,-102 75,-120 75,-120 75,-126 69,-132 63,-132 63,-132 27,-132 27,-132 21,-132 15,-126 15,-120 15,-120 15,-102 15,-102 15,-96 21,-90 27,-90"/>
</g>
<!-- function&#45;1&#45;ImmVal&#45;&gt;primitive&#45;i64&#45;0 -->
<g id="edge1" class="edge">
<title>function&#45;1&#45;ImmVal:s&#45;&gt;primitive&#45;i64&#45;0</title>
<path fill="none" stroke="black" d="M45,-174C45,-160.84 45,-146.11 45,-134.3"/>
<polygon fill="black" stroke="black" points="46.75,-137 45,-132 43.25,-137 46.75,-137"/>
</g>
<!-- function&#45;0&#45;ImmVal&#45;&gt;primitive&#45;i64&#45;2048 -->
<g id="edge2" class="edge">
<title>function&#45;0&#45;ImmVal:s&#45;&gt;primitive&#45;i64&#45;2048</title>
<path fill="none" stroke="black" d="M264,-95C264,-81.84 264,-67.11 264,-55.3"/>
<polygon fill="black" stroke="black" points="265.75,-58 264,-53 262.25,-58 265.75,-58"/>
</g>
<!-- function&#45;0&#45;Or&#45;&gt;function&#45;1&#45;RegVal -->
<g id="edge3" class="edge">
<title>function&#45;0&#45;Or:s&#45;&gt;function&#45;1&#45;RegVal</title>
<path fill="none" stroke="black" d="M241,-253C241,-237.1 231.07,-222.72 220.33,-211.82"/>
<polygon fill="black" stroke="black" points="223.93,-211.64 218.67,-211 222.39,-214.78 223.93,-211.64"/>
</g>
<!-- function&#45;0&#45;Or&#45;&gt;function&#45;0&#45;Lui -->
<g id="edge4" class="edge">
<title>function&#45;0&#45;Or:s&#45;&gt;function&#45;0&#45;Lui</title>
<path fill="none" stroke="black" d="M257,-253C257,-239.8 258.14,-225.06 259.33,-213.27"/>
<polygon fill="black" stroke="black" points="260.41,-216.27 259.88,-211 257.01,-215.45 260.41,-216.27"/>
</g>
<!-- function&#45;1&#45;RegVal&#45;&gt;primitive&#45;String&#45;1 -->
<g id="edge11" class="edge">
<title>function&#45;1&#45;RegVal:s&#45;&gt;primitive&#45;String&#45;1</title>
<path fill="none" stroke="black" d="M195,-174C195,-160.82 194.32,-146.09 193.6,-134.29"/>
<polygon fill="black" stroke="black" points="195.71,-136.7 193.27,-132 192.25,-137.2 195.71,-136.7"/>
</g>
<!-- function&#45;0&#45;Lui&#45;&gt;function&#45;0&#45;ImmVal -->
<g id="edge9" class="edge">
<title>function&#45;0&#45;Lui:s&#45;&gt;function&#45;0&#45;ImmVal</title>
<path fill="none" stroke="black" d="M262,-174C262,-160.83 262.46,-146.1 262.93,-134.3"/>
<polygon fill="black" stroke="black" points="264.42,-137.14 263.15,-132 260.94,-136.81 264.42,-137.14"/>
</g>
<!-- function&#45;1&#45;Or&#45;&gt;function&#45;1&#45;RegVal -->
<g id="edge6" class="edge">
<title>function&#45;1&#45;Or:s&#45;&gt;function&#45;1&#45;RegVal</title>
<path fill="none" stroke="black" d="M199,-253C199,-239.8 197.86,-225.06 196.67,-213.27"/>
<polygon fill="black" stroke="black" points="198.99,-215.45 196.12,-211 195.59,-216.27 198.99,-215.45"/>
</g>
<!-- function&#45;1&#45;Or&#45;&gt;function&#45;0&#45;Lui -->
<g id="edge5" class="edge">
<title>function&#45;1&#45;Or:s&#45;&gt;function&#45;0&#45;Lui</title>
<path fill="none" stroke="black" d="M183,-253C183,-246.52 209.67,-226.64 232.02,-211.12"/>
<polygon fill="black" stroke="black" points="228.34,-213.26 233.13,-211 227.98,-209.78 228.34,-213.26"/>
</g>
<!-- function&#45;0&#45;Addi&#45;&gt;function&#45;1&#45;ImmVal -->
<g id="edge8" class="edge">
<title>function&#45;0&#45;Addi:s&#45;&gt;function&#45;1&#45;ImmVal</title>
<path fill="none" stroke="black" d="M95,-253C95,-236.85 84.59,-222.53 73.27,-211.73"/>
<polygon fill="black" stroke="black" points="77.35,-212.91 72.41,-211 75.08,-215.58 77.35,-212.91"/>
</g>
<!-- function&#45;0&#45;Addi&#45;&gt;function&#45;0&#45;RegVal -->
<g id="edge7" class="edge">
<title>function&#45;0&#45;Addi:s&#45;&gt;function&#45;0&#45;RegVal</title>
<path fill="none" stroke="black" d="M75,-253C75,-237.6 83.99,-223.18 93.65,-212.12"/>
<polygon fill="black" stroke="black" points="92.18,-215.33 95.23,-211 90.14,-212.48 92.18,-215.33"/>
</g>
<!-- function&#45;0&#45;RegVal&#45;&gt;primitive&#45;String&#45;0 -->
<g id="edge10" class="edge">
<title>function&#45;0&#45;RegVal:s&#45;&gt;primitive&#45;String&#45;0</title>
<path fill="none" stroke="black" d="M118,-174C118,-160.84 118,-146.11 118,-134.3"/>
<polygon fill="black" stroke="black" points="119.75,-137 118,-132 116.25,-137 119.75,-137"/>
</g>
<!-- function&#45;1&#45;ImmVal -->
<g id="node1" class="node">
<title>function&#45;1&#45;ImmVal</title>
<g id="a_node1"><a xlink:title="Imm&#45;5: function&#45;1&#45;ImmVal">
<path fill="white" stroke="transparent" d="M24.67,-174C24.67,-174 65.33,-174 65.33,-174 70.67,-174 76,-179.33 76,-184.67 76,-184.67 76,-195.33 76,-195.33 76,-200.67 70.67,-206 65.33,-206 65.33,-206 24.67,-206 24.67,-206 19.33,-206 14,-200.67 14,-195.33 14,-195.33 14,-184.67 14,-184.67 14,-179.33 19.33,-174 24.67,-174"/>
<text text-anchor="start" x="19" y="-186.3" font-family="Helvetica,sans-Serif" font-size="14.00">ImmVal</text>
<path fill="none" stroke="black" d="M24.67,-174C24.67,-174 65.33,-174 65.33,-174 70.67,-174 76,-179.33 76,-184.67 76,-184.67 76,-195.33 76,-195.33 76,-200.67 70.67,-206 65.33,-206 65.33,-206 24.67,-206 24.67,-206 19.33,-206 14,-200.67 14,-195.33 14,-195.33 14,-184.67 14,-184.67 14,-179.33 19.33,-174 24.67,-174"/>
</a>
</g>
</g>
<!-- primitive&#45;i64&#45;0 -->
<g id="node2" class="node">
<title>primitive&#45;i64&#45;0</title>
<g id="a_node2"><a xlink:title="i64&#45;0: primitive&#45;i64&#45;0">
<path fill="white" stroke="transparent" d="M39.67,-95C39.67,-95 50.33,-95 50.33,-95 55.67,-95 61,-100.33 61,-105.67 61,-105.67 61,-116.33 61,-116.33 61,-121.67 55.67,-127 50.33,-127 50.33,-127 39.67,-127 39.67,-127 34.33,-127 29,-121.67 29,-116.33 29,-116.33 29,-105.67 29,-105.67 29,-100.33 34.33,-95 39.67,-95"/>
<text text-anchor="start" x="40" y="-107.3" font-family="Helvetica,sans-Serif" font-size="14.00">0</text>
<path fill="none" stroke="black" d="M39.67,-95C39.67,-95 50.33,-95 50.33,-95 55.67,-95 61,-100.33 61,-105.67 61,-105.67 61,-116.33 61,-116.33 61,-121.67 55.67,-127 50.33,-127 50.33,-127 39.67,-127 39.67,-127 34.33,-127 29,-121.67 29,-116.33 29,-116.33 29,-105.67 29,-105.67 29,-100.33 34.33,-95 39.67,-95"/>
</a>
</g>
</g>
<!-- function&#45;0&#45;ImmVal -->
<g id="node3" class="node">
<title>function&#45;0&#45;ImmVal</title>
<g id="a_node3"><a xlink:title="Imm&#45;2: function&#45;0&#45;ImmVal">
<path fill="white" stroke="transparent" d="M243.67,-95C243.67,-95 284.33,-95 284.33,-95 289.67,-95 295,-100.33 295,-105.67 295,-105.67 295,-116.33 295,-116.33 295,-121.67 289.67,-127 284.33,-127 284.33,-127 243.67,-127 243.67,-127 238.33,-127 233,-121.67 233,-116.33 233,-116.33 233,-105.67 233,-105.67 233,-100.33 238.33,-95 243.67,-95"/>
<text text-anchor="start" x="238" y="-107.3" font-family="Helvetica,sans-Serif" font-size="14.00">ImmVal</text>
<path fill="none" stroke="black" d="M243.67,-95C243.67,-95 284.33,-95 284.33,-95 289.67,-95 295,-100.33 295,-105.67 295,-105.67 295,-116.33 295,-116.33 295,-121.67 289.67,-127 284.33,-127 284.33,-127 243.67,-127 243.67,-127 238.33,-127 233,-121.67 233,-116.33 233,-116.33 233,-105.67 233,-105.67 233,-100.33 238.33,-95 243.67,-95"/>
</a>
</g>
</g>
<!-- primitive&#45;i64&#45;2048 -->
<g id="node4" class="node">
<title>primitive&#45;i64&#45;2048</title>
<g id="a_node4"><a xlink:title="i64&#45;2048: primitive&#45;i64&#45;2048">
<path fill="white" stroke="transparent" d="M251.17,-16C251.17,-16 276.83,-16 276.83,-16 282.17,-16 287.5,-21.33 287.5,-26.67 287.5,-26.67 287.5,-37.33 287.5,-37.33 287.5,-42.67 282.17,-48 276.83,-48 276.83,-48 251.17,-48 251.17,-48 245.83,-48 240.5,-42.67 240.5,-37.33 240.5,-37.33 240.5,-26.67 240.5,-26.67 240.5,-21.33 245.83,-16 251.17,-16"/>
<text text-anchor="start" x="246" y="-28.3" font-family="Helvetica,sans-Serif" font-size="14.00">2048</text>
<path fill="none" stroke="black" d="M251.17,-16C251.17,-16 276.83,-16 276.83,-16 282.17,-16 287.5,-21.33 287.5,-26.67 287.5,-26.67 287.5,-37.33 287.5,-37.33 287.5,-42.67 282.17,-48 276.83,-48 276.83,-48 251.17,-48 251.17,-48 245.83,-48 240.5,-42.67 240.5,-37.33 240.5,-37.33 240.5,-26.67 240.5,-26.67 240.5,-21.33 245.83,-16 251.17,-16"/>
</a>
</g>
</g>
<!-- function&#45;0&#45;Or -->
<g id="node5" class="node">
<title>function&#45;0&#45;Or</title>
<g id="a_node5"><a xlink:title="Inst&#45;4: function&#45;0&#45;Or">
<path fill="white" stroke="transparent" d="M243.67,-253C243.67,-253 254.33,-253 254.33,-253 259.67,-253 265,-258.33 265,-263.67 265,-263.67 265,-274.33 265,-274.33 265,-279.67 259.67,-285 254.33,-285 254.33,-285 243.67,-285 243.67,-285 238.33,-285 233,-279.67 233,-274.33 233,-274.33 233,-263.67 233,-263.67 233,-258.33 238.33,-253 243.67,-253"/>
<text text-anchor="start" x="240" y="-265.3" font-family="Helvetica,sans-Serif" font-size="14.00">Or</text>
<path fill="none" stroke="black" d="M243.67,-253C243.67,-253 254.33,-253 254.33,-253 259.67,-253 265,-258.33 265,-263.67 265,-263.67 265,-274.33 265,-274.33 265,-279.67 259.67,-285 254.33,-285 254.33,-285 243.67,-285 243.67,-285 238.33,-285 233,-279.67 233,-274.33 233,-274.33 233,-263.67 233,-263.67 233,-258.33 238.33,-253 243.67,-253"/>
</a>
</g>
</g>
<!-- function&#45;1&#45;RegVal -->
<g id="node6" class="node">
<title>function&#45;1&#45;RegVal</title>
<g id="a_node6"><a xlink:title="Inst&#45;1: function&#45;1&#45;RegVal">
<path fill="white" stroke="transparent" d="M176.17,-174C176.17,-174 211.83,-174 211.83,-174 217.17,-174 222.5,-179.33 222.5,-184.67 222.5,-184.67 222.5,-195.33 222.5,-195.33 222.5,-200.67 217.17,-206 211.83,-206 211.83,-206 176.17,-206 176.17,-206 170.83,-206 165.5,-200.67 165.5,-195.33 165.5,-195.33 165.5,-184.67 165.5,-184.67 165.5,-179.33 170.83,-174 176.17,-174"/>
<text text-anchor="start" x="171" y="-186.3" font-family="Helvetica,sans-Serif" font-size="14.00">RegVal</text>
<path fill="none" stroke="black" d="M176.17,-174C176.17,-174 211.83,-174 211.83,-174 217.17,-174 222.5,-179.33 222.5,-184.67 222.5,-184.67 222.5,-195.33 222.5,-195.33 222.5,-200.67 217.17,-206 211.83,-206 211.83,-206 176.17,-206 176.17,-206 170.83,-206 165.5,-200.67 165.5,-195.33 165.5,-195.33 165.5,-184.67 165.5,-184.67 165.5,-179.33 170.83,-174 176.17,-174"/>
</a>
</g>
</g>
<!-- function&#45;0&#45;Lui -->
<g id="node7" class="node">
<title>function&#45;0&#45;Lui</title>
<g id="a_node7"><a xlink:title="Inst&#45;3: function&#45;0&#45;Lui">
<path fill="white" stroke="transparent" d="M256.67,-174C256.67,-174 267.33,-174 267.33,-174 272.67,-174 278,-179.33 278,-184.67 278,-184.67 278,-195.33 278,-195.33 278,-200.67 272.67,-206 267.33,-206 267.33,-206 256.67,-206 256.67,-206 251.33,-206 246,-200.67 246,-195.33 246,-195.33 246,-184.67 246,-184.67 246,-179.33 251.33,-174 256.67,-174"/>
<text text-anchor="start" x="251.5" y="-186.3" font-family="Helvetica,sans-Serif" font-size="14.00">Lui</text>
<path fill="none" stroke="black" d="M256.67,-174C256.67,-174 267.33,-174 267.33,-174 272.67,-174 278,-179.33 278,-184.67 278,-184.67 278,-195.33 278,-195.33 278,-200.67 272.67,-206 267.33,-206 267.33,-206 256.67,-206 256.67,-206 251.33,-206 246,-200.67 246,-195.33 246,-195.33 246,-184.67 246,-184.67 246,-179.33 251.33,-174 256.67,-174"/>
</a>
</g>
</g>
<!-- function&#45;1&#45;Or -->
<g id="node8" class="node">
<title>function&#45;1&#45;Or</title>
<g id="a_node8"><a xlink:title="Inst&#45;4: function&#45;1&#45;Or">
<path fill="white" stroke="transparent" d="M185.67,-253C185.67,-253 196.33,-253 196.33,-253 201.67,-253 207,-258.33 207,-263.67 207,-263.67 207,-274.33 207,-274.33 207,-279.67 201.67,-285 196.33,-285 196.33,-285 185.67,-285 185.67,-285 180.33,-285 175,-279.67 175,-274.33 175,-274.33 175,-263.67 175,-263.67 175,-258.33 180.33,-253 185.67,-253"/>
<text text-anchor="start" x="182" y="-265.3" font-family="Helvetica,sans-Serif" font-size="14.00">Or</text>
<path fill="none" stroke="black" d="M185.67,-253C185.67,-253 196.33,-253 196.33,-253 201.67,-253 207,-258.33 207,-263.67 207,-263.67 207,-274.33 207,-274.33 207,-279.67 201.67,-285 196.33,-285 196.33,-285 185.67,-285 185.67,-285 180.33,-285 175,-279.67 175,-274.33 175,-274.33 175,-263.67 175,-263.67 175,-258.33 180.33,-253 185.67,-253"/>
</a>
</g>
</g>
<!-- function&#45;0&#45;Addi -->
<g id="node9" class="node">
<title>function&#45;0&#45;Addi</title>
<g id="a_node9"><a xlink:title="Inst&#45;6: function&#45;0&#45;Addi">
<path fill="white" stroke="transparent" d="M75.17,-253C75.17,-253 94.83,-253 94.83,-253 100.17,-253 105.5,-258.33 105.5,-263.67 105.5,-263.67 105.5,-274.33 105.5,-274.33 105.5,-279.67 100.17,-285 94.83,-285 94.83,-285 75.17,-285 75.17,-285 69.83,-285 64.5,-279.67 64.5,-274.33 64.5,-274.33 64.5,-263.67 64.5,-263.67 64.5,-258.33 69.83,-253 75.17,-253"/>
<text text-anchor="start" x="70" y="-265.3" font-family="Helvetica,sans-Serif" font-size="14.00">Addi</text>
<path fill="none" stroke="black" d="M75.17,-253C75.17,-253 94.83,-253 94.83,-253 100.17,-253 105.5,-258.33 105.5,-263.67 105.5,-263.67 105.5,-274.33 105.5,-274.33 105.5,-279.67 100.17,-285 94.83,-285 94.83,-285 75.17,-285 75.17,-285 69.83,-285 64.5,-279.67 64.5,-274.33 64.5,-274.33 64.5,-263.67 64.5,-263.67 64.5,-258.33 69.83,-253 75.17,-253"/>
</a>
</g>
</g>
<!-- function&#45;0&#45;RegVal -->
<g id="node10" class="node">
<title>function&#45;0&#45;RegVal</title>
<g id="a_node10"><a xlink:title="Inst&#45;0: function&#45;0&#45;RegVal">
<path fill="white" stroke="transparent" d="M99.17,-174C99.17,-174 134.83,-174 134.83,-174 140.17,-174 145.5,-179.33 145.5,-184.67 145.5,-184.67 145.5,-195.33 145.5,-195.33 145.5,-200.67 140.17,-206 134.83,-206 134.83,-206 99.17,-206 99.17,-206 93.83,-206 88.5,-200.67 88.5,-195.33 88.5,-195.33 88.5,-184.67 88.5,-184.67 88.5,-179.33 93.83,-174 99.17,-174"/>
<text text-anchor="start" x="94" y="-186.3" font-family="Helvetica,sans-Serif" font-size="14.00">RegVal</text>
<path fill="none" stroke="black" d="M99.17,-174C99.17,-174 134.83,-174 134.83,-174 140.17,-174 145.5,-179.33 145.5,-184.67 145.5,-184.67 145.5,-195.33 145.5,-195.33 145.5,-200.67 140.17,-206 134.83,-206 134.83,-206 99.17,-206 99.17,-206 93.83,-206 88.5,-200.67 88.5,-195.33 88.5,-195.33 88.5,-184.67 88.5,-184.67 88.5,-179.33 93.83,-174 99.17,-174"/>
</a>
</g>
</g>
<!-- primitive&#45;String&#45;0 -->
<g id="node11" class="node">
<title>primitive&#45;String&#45;0</title>
<g id="a_node11"><a xlink:title="String&#45;0: primitive&#45;String&#45;0">
<path fill="white" stroke="transparent" d="M100.17,-95C100.17,-95 135.83,-95 135.83,-95 141.17,-95 146.5,-100.33 146.5,-105.67 146.5,-105.67 146.5,-116.33 146.5,-116.33 146.5,-121.67 141.17,-127 135.83,-127 135.83,-127 100.17,-127 100.17,-127 94.83,-127 89.5,-121.67 89.5,-116.33 89.5,-116.33 89.5,-105.67 89.5,-105.67 89.5,-100.33 94.83,-95 100.17,-95"/>
<text text-anchor="start" x="95" y="-107.3" font-family="Helvetica,sans-Serif" font-size="14.00">&quot;a4_0&quot;</text>
<path fill="none" stroke="black" d="M100.17,-95C100.17,-95 135.83,-95 135.83,-95 141.17,-95 146.5,-100.33 146.5,-105.67 146.5,-105.67 146.5,-116.33 146.5,-116.33 146.5,-121.67 141.17,-127 135.83,-127 135.83,-127 100.17,-127 100.17,-127 94.83,-127 89.5,-121.67 89.5,-116.33 89.5,-116.33 89.5,-105.67 89.5,-105.67 89.5,-100.33 94.83,-95 100.17,-95"/>
</a>
</g>
</g>
<!-- primitive&#45;String&#45;1 -->
<g id="node12" class="node">
<title>primitive&#45;String&#45;1</title>
<g id="a_node12"><a xlink:title="String&#45;1: primitive&#45;String&#45;1">
<path fill="white" stroke="transparent" d="M174.17,-95C174.17,-95 209.83,-95 209.83,-95 215.17,-95 220.5,-100.33 220.5,-105.67 220.5,-105.67 220.5,-116.33 220.5,-116.33 220.5,-121.67 215.17,-127 209.83,-127 209.83,-127 174.17,-127 174.17,-127 168.83,-127 163.5,-121.67 163.5,-116.33 163.5,-116.33 163.5,-105.67 163.5,-105.67 163.5,-100.33 168.83,-95 174.17,-95"/>
<text text-anchor="start" x="169" y="-107.3" font-family="Helvetica,sans-Serif" font-size="14.00">&quot;a5_0&quot;</text>
<path fill="none" stroke="black" d="M174.17,-95C174.17,-95 209.83,-95 209.83,-95 215.17,-95 220.5,-100.33 220.5,-105.67 220.5,-105.67 220.5,-116.33 220.5,-116.33 220.5,-121.67 215.17,-127 209.83,-127 209.83,-127 174.17,-127 174.17,-127 168.83,-127 163.5,-121.67 163.5,-116.33 163.5,-116.33 163.5,-105.67 163.5,-105.67 163.5,-100.33 168.83,-95 174.17,-95"/>
</a>
</g>
</g>
</g>
</svg>
