<?xml version="1.0" encoding="UTF-8" standalone="no"?>
<!DOCTYPE svg PUBLIC "-//W3C//DTD SVG 1.1//EN"
 "http://www.w3.org/Graphics/SVG/1.1/DTD/svg11.dtd">
<!-- Generated by graphviz version 2.43.0 (0)
 -->
<!-- Title: %3 Pages: 1 -->
<svg width="530pt" height="388pt"
 viewBox="0.00 0.00 529.51 388.00" xmlns="http://www.w3.org/2000/svg" xmlns:xlink="http://www.w3.org/1999/xlink">
<g id="graph0" class="graph" transform="scale(1 1) rotate(0) translate(4 384)">
<title>%3</title>
<polygon fill="white" stroke="#000000" points="-4,4 -4,-384 525.51,-384 525.51,4 -4,4"/>
<g id="clust1" class="cluster">
<title>outer_cluster_Imm&#45;4</title>
</g>
<g id="clust2" class="cluster">
<title>cluster_Imm&#45;4</title>
<path fill="#ffffb3" stroke="black" stroke-dasharray="5,2" d="M23,-169C23,-169 67,-169 67,-169 73,-169 79,-175 79,-181 79,-181 79,-199 79,-199 79,-205 73,-211 67,-211 67,-211 23,-211 23,-211 17,-211 11,-205 11,-199 11,-199 11,-181 11,-181 11,-175 17,-169 23,-169"/>
</g>
<g id="clust4" class="cluster">
<title>outer_cluster_Imm&#45;6</title>
</g>
<g id="clust5" class="cluster">
<title>cluster_Imm&#45;6</title>
<path fill="#ffffb3" stroke="black" stroke-dasharray="5,2" d="M308,-90C308,-90 352,-90 352,-90 358,-90 364,-96 364,-102 364,-102 364,-120 364,-120 364,-126 358,-132 352,-132 352,-132 308,-132 308,-132 302,-132 296,-126 296,-120 296,-120 296,-102 296,-102 296,-96 302,-90 308,-90"/>
</g>
<g id="clust7" class="cluster">
<title>outer_cluster_Inst&#45;11</title>
</g>
<g id="clust8" class="cluster">
<title>cluster_Inst&#45;11</title>
<path fill="#bebada" stroke="black" stroke-dasharray="5,2" d="M312,-169C312,-169 348,-169 348,-169 354,-169 360,-175 360,-181 360,-181 360,-199 360,-199 360,-205 354,-211 348,-211 348,-211 312,-211 312,-211 306,-211 300,-205 300,-199 300,-199 300,-181 300,-181 300,-175 306,-169 312,-169"/>
</g>
<g id="clust10" class="cluster">
<title>outer_cluster_Inst&#45;1</title>
</g>
<g id="clust11" class="cluster">
<title>cluster_Inst&#45;1</title>
<path fill="#bebada" stroke="black" stroke-dasharray="5,2" d="M162,-90C162,-90 202,-90 202,-90 208,-90 214,-96 214,-102 214,-102 214,-120 214,-120 214,-126 208,-132 202,-132 202,-132 162,-132 162,-132 156,-132 150,-126 150,-120 150,-120 150,-102 150,-102 150,-96 156,-90 162,-90"/>
</g>
<g id="clust13" class="cluster">
<title>outer_cluster_Inst&#45;3</title>
</g>
<g id="clust14" class="cluster">
<title>cluster_Inst&#45;3</title>
<path fill="#bebada" stroke="black" stroke-dasharray="5,2" d="M158,-169C158,-169 252,-169 252,-169 258,-169 264,-175 264,-181 264,-181 264,-199 264,-199 264,-205 258,-211 252,-211 252,-211 158,-211 158,-211 152,-211 146,-205 146,-199 146,-199 146,-181 146,-181 146,-175 152,-169 158,-169"/>
</g>
<g id="clust16" class="cluster">
<title>outer_cluster_Inst&#45;5</title>
</g>
<g id="clust17" class="cluster">
<title>cluster_Inst&#45;5</title>
<path fill="#bebada" stroke="black" stroke-dasharray="5,2" d="M56,-327C56,-327 208,-327 208,-327 214,-327 220,-333 220,-339 220,-339 220,-357 220,-357 220,-363 214,-369 208,-369 208,-369 56,-369 56,-369 50,-369 44,-363 44,-357 44,-357 44,-339 44,-339 44,-333 50,-327 56,-327"/>
</g>
<g id="clust19" class="cluster">
<title>outer_cluster_Inst&#45;7</title>
</g>
<g id="clust20" class="cluster">
<title>cluster_Inst&#45;7</title>
<path fill="#bebada" stroke="black" stroke-dasharray="5,2" d="M154,-248C154,-248 306,-248 306,-248 312,-248 318,-254 318,-260 318,-260 318,-278 318,-278 318,-284 312,-290 306,-290 306,-290 154,-290 154,-290 148,-290 142,-284 142,-278 142,-278 142,-260 142,-260 142,-254 148,-248 154,-248"/>
</g>
<g id="clust22" class="cluster">
<title>outer_cluster_Inst&#45;2</title>
</g>
<g id="clust23" class="cluster">
<title>cluster_Inst&#45;2</title>
<path fill="#bebada" stroke="black" stroke-dasharray="5,2" d="M400,-169C400,-169 440,-169 440,-169 446,-169 452,-175 452,-181 452,-181 452,-199 452,-199 452,-205 446,-211 440,-211 440,-211 400,-211 400,-211 394,-211 388,-205 388,-199 388,-199 388,-181 388,-181 388,-175 394,-169 400,-169"/>
</g>
<g id="clust25" class="cluster">
<title>outer_cluster_Inst&#45;8</title>
</g>
<g id="clust26" class="cluster">
<title>cluster_Inst&#45;8</title>
<path fill="#bebada" stroke="black" stroke-dasharray="5,2" d="M66,-248C66,-248 102,-248 102,-248 108,-248 114,-254 114,-260 114,-260 114,-278 114,-278 114,-284 108,-290 102,-290 102,-290 66,-290 66,-290 60,-290 54,-284 54,-278 54,-278 54,-260 54,-260 54,-254 60,-248 66,-248"/>
</g>
<g id="clust28" class="cluster">
<title>outer_cluster_Inst&#45;0</title>
</g>
<g id="clust29" class="cluster">
<title>cluster_Inst&#45;0</title>
<path fill="#bebada" stroke="black" stroke-dasharray="5,2" d="M232,-90C232,-90 272,-90 272,-90 278,-90 284,-96 284,-102 284,-102 284,-120 284,-120 284,-126 278,-132 272,-132 272,-132 232,-132 232,-132 226,-132 220,-126 220,-120 220,-120 220,-102 220,-102 220,-96 226,-90 232,-90"/>
</g>
<g id="clust31" class="cluster">
<title>outer_cluster_Inst&#45;10</title>
</g>
<g id="clust32" class="cluster">
<title>cluster_Inst&#45;10</title>
<path fill="#bebada" stroke="black" stroke-dasharray="5,2" d="M336,-248C336,-248 488,-248 488,-248 494,-248 500,-254 500,-260 500,-260 500,-278 500,-278 500,-284 494,-290 488,-290 488,-290 336,-290 336,-290 330,-290 324,-284 324,-278 324,-278 324,-260 324,-260 324,-254 330,-248 336,-248"/>
</g>
<g id="clust34" class="cluster">
<title>outer_cluster_String&#45;1</title>
</g>
<g id="clust35" class="cluster">
<title>cluster_String&#45;1</title>
<path fill="#fb8072" stroke="black" stroke-dasharray="5,2" d="M163,-11C163,-11 203,-11 203,-11 209,-11 215,-17 215,-23 215,-23 215,-41 215,-41 215,-47 209,-53 203,-53 203,-53 163,-53 163,-53 157,-53 151,-47 151,-41 151,-41 151,-23 151,-23 151,-17 157,-11 163,-11"/>
</g>
<g id="clust37" class="cluster">
<title>outer_cluster_String&#45;0</title>
</g>
<g id="clust38" class="cluster">
<title>cluster_String&#45;0</title>
<path fill="#fb8072" stroke="black" stroke-dasharray="5,2" d="M233,-11C233,-11 273,-11 273,-11 279,-11 285,-17 285,-23 285,-23 285,-41 285,-41 285,-47 279,-53 273,-53 273,-53 233,-53 233,-53 227,-53 221,-47 221,-41 221,-41 221,-23 221,-23 221,-17 227,-11 233,-11"/>
</g>
<g id="clust40" class="cluster">
<title>outer_cluster_String&#45;2</title>
</g>
<g id="clust41" class="cluster">
<title>cluster_String&#45;2</title>
<path fill="#fb8072" stroke="black" stroke-dasharray="5,2" d="M395,-90C395,-90 447,-90 447,-90 453,-90 459,-96 459,-102 459,-102 459,-120 459,-120 459,-126 453,-132 447,-132 447,-132 395,-132 395,-132 389,-132 383,-126 383,-120 383,-120 383,-102 383,-102 383,-96 389,-90 395,-90"/>
</g>
<g id="clust43" class="cluster">
<title>outer_cluster_i64&#45;0</title>
</g>
<g id="clust44" class="cluster">
<title>cluster_i64&#45;0</title>
<path fill="#80b1d3" stroke="black" stroke-dasharray="5,2" d="M27,-90C27,-90 63,-90 63,-90 69,-90 75,-96 75,-102 75,-102 75,-120 75,-120 75,-126 69,-132 63,-132 63,-132 27,-132 27,-132 21,-132 15,-126 15,-120 15,-120 15,-102 15,-102 15,-96 21,-90 27,-90"/>
</g>
<g id="clust46" class="cluster">
<title>outer_cluster_i64&#45;4</title>
</g>
<g id="clust47" class="cluster">
<title>cluster_i64&#45;4</title>
<path fill="#80b1d3" stroke="black" stroke-dasharray="5,2" d="M312,-11C312,-11 348,-11 348,-11 354,-11 360,-17 360,-23 360,-23 360,-41 360,-41 360,-47 354,-53 348,-53 348,-53 312,-53 312,-53 306,-53 300,-47 300,-41 300,-41 300,-23 300,-23 300,-17 306,-11 312,-11"/>
</g>
<!-- function&#45;0&#45;ImmVal&#45;&gt;primitive&#45;i64&#45;0 -->
<g id="edge1" class="edge">
<title>function&#45;0&#45;ImmVal:s&#45;&gt;primitive&#45;i64&#45;0</title>
<path fill="none" stroke="black" d="M45,-174C45,-160.84 45,-146.11 45,-134.3"/>
<polygon fill="black" stroke="black" points="46.75,-137 45,-132 43.25,-137 46.75,-137"/>
</g>
<!-- function&#45;1&#45;ImmVal&#45;&gt;primitive&#45;i64&#45;4 -->
<g id="edge2" class="edge">
<title>function&#45;1&#45;ImmVal:s&#45;&gt;primitive&#45;i64&#45;4</title>
<path fill="none" stroke="black" d="M330,-95C330,-81.84 330,-67.11 330,-55.3"/>
<polygon fill="black" stroke="black" points="331.75,-58 330,-53 328.25,-58 331.75,-58"/>
</g>
<!-- function&#45;1&#45;Jal&#45;&gt;function&#45;1&#45;ImmVal -->
<g id="edge3" class="edge">
<title>function&#45;1&#45;Jal:s&#45;&gt;function&#45;1&#45;ImmVal</title>
<path fill="none" stroke="black" d="M330,-174C330,-160.84 330,-146.11 330,-134.3"/>
<polygon fill="black" stroke="black" points="331.75,-137 330,-132 328.25,-137 331.75,-137"/>
</g>
<!-- function&#45;1&#45;RegVal&#45;&gt;primitive&#45;String&#45;1 -->
<g id="edge4" class="edge">
<title>function&#45;1&#45;RegVal:s&#45;&gt;primitive&#45;String&#45;1</title>
<path fill="none" stroke="black" d="M183,-95C183,-81.84 183,-67.11 183,-55.3"/>
<polygon fill="black" stroke="black" points="184.75,-58 183,-53 181.25,-58 184.75,-58"/>
</g>
<!-- function&#45;0&#45;Or&#45;&gt;function&#45;1&#45;RegVal -->
<g id="edge5" class="edge">
<title>function&#45;0&#45;Or:s&#45;&gt;function&#45;1&#45;RegVal</title>
<path fill="none" stroke="black" d="M226,-174C226,-158.23 216.41,-143.67 206.19,-132.63"/>
<polygon fill="black" stroke="black" points="210,-132.36 204.71,-132 208.62,-135.58 210,-132.36"/>
</g>
<!-- function&#45;0&#45;Or&#45;&gt;function&#45;0&#45;RegVal -->
<g id="edge6" class="edge">
<title>function&#45;0&#45;Or:s&#45;&gt;function&#45;0&#45;RegVal</title>
<path fill="none" stroke="black" d="M242,-174C242,-160.76 244.25,-146.14 246.61,-134.42"/>
<polygon fill="black" stroke="black" points="247.25,-137.28 247.7,-132 244.05,-135.84 247.25,-137.28"/>
</g>
<!-- function&#45;0&#45;RegVal&#45;&gt;primitive&#45;String&#45;0 -->
<g id="edge27" class="edge">
<title>function&#45;0&#45;RegVal:s&#45;&gt;primitive&#45;String&#45;0</title>
<path fill="none" stroke="black" d="M253,-95C253,-81.84 253,-67.11 253,-55.3"/>
<polygon fill="black" stroke="black" points="254.75,-58 253,-53 251.25,-58 254.75,-58"/>
</g>
<!-- function&#45;1&#45;Or&#45;&gt;function&#45;1&#45;RegVal -->
<g id="edge8" class="edge">
<title>function&#45;1&#45;Or:s&#45;&gt;function&#45;1&#45;RegVal</title>
<path fill="none" stroke="black" d="M184,-174C184,-160.83 183.54,-146.1 183.07,-134.3"/>
<polygon fill="black" stroke="black" points="185.06,-136.81 182.85,-132 181.58,-137.14 185.06,-136.81"/>
</g>
<!-- function&#45;1&#45;Or&#45;&gt;function&#45;0&#45;RegVal -->
<g id="edge7" class="edge">
<title>function&#45;1&#45;Or:s&#45;&gt;function&#45;0&#45;RegVal</title>
<path fill="none" stroke="black" d="M168,-174C168,-167.66 193.11,-149.71 215.88,-134.75"/>
<polygon fill="black" stroke="black" points="216.87,-136.2 220.09,-132 214.95,-133.27 216.87,-136.2"/>
</g>
<!-- function&#45;0&#45;Beq&#45;&gt;function&#45;0&#45;ImmVal -->
<g id="edge11" class="edge">
<title>function&#45;0&#45;Beq:s&#45;&gt;function&#45;0&#45;ImmVal</title>
<path fill="none" stroke="black" d="M146,-332C146,-282.63 70.12,-333.57 42,-293 25.77,-269.58 31.12,-235.33 37.34,-213.1"/>
<polygon fill="black" stroke="black" points="37.4,-216.12 38.75,-211 34.5,-214.16 37.4,-216.12"/>
</g>
<!-- function&#45;0&#45;Beq&#45;&gt;function&#45;1&#45;Or -->
<g id="edge9" class="edge">
<title>function&#45;0&#45;Beq:s&#45;&gt;function&#45;1&#45;Or</title>
<path fill="none" stroke="black" d="M123,-332C123,-293.21 115.15,-280.84 130,-245 135.12,-232.66 144.16,-221.08 152.88,-211.83"/>
<polygon fill="black" stroke="black" points="150.85,-214.76 154.59,-211 149.32,-211.61 150.85,-214.76"/>
</g>
<!-- function&#45;0&#45;Beq&#45;&gt;function&#45;2&#45;RegVal -->
<g id="edge10" class="edge">
<title>function&#45;0&#45;Beq:s&#45;&gt;function&#45;2&#45;RegVal</title>
<path fill="none" stroke="black" d="M137,-332C137,-250.65 446.17,-353.09 501,-293 515.38,-277.24 511.07,-263.81 501,-245 490.94,-226.2 471.13,-212.82 453.62,-204.08"/>
<polygon fill="black" stroke="black" points="456.96,-204.58 452,-202.74 454.73,-207.28 456.96,-204.58"/>
</g>
<!-- function&#45;2&#45;RegVal&#45;&gt;primitive&#45;String&#45;2 -->
<g id="edge25" class="edge">
<title>function&#45;2&#45;RegVal:s&#45;&gt;primitive&#45;String&#45;2</title>
<path fill="none" stroke="black" d="M421,-174C421,-160.84 421,-146.11 421,-134.3"/>
<polygon fill="black" stroke="black" points="422.75,-137 421,-132 419.25,-137 422.75,-137"/>
</g>
<!-- function&#45;1&#45;Beq&#45;&gt;function&#45;0&#45;ImmVal -->
<g id="edge14" class="edge">
<title>function&#45;1&#45;Beq:s&#45;&gt;function&#45;0&#45;ImmVal</title>
<path fill="none" stroke="black" d="M204,-332C204,-262.69 97.56,-346.1 53,-293 43.21,-281.33 42.95,-239.49 43.84,-213.16"/>
<polygon fill="black" stroke="black" points="45.33,-216.14 44.03,-211 41.85,-215.83 45.33,-216.14"/>
</g>
<!-- function&#45;1&#45;Beq&#45;&gt;function&#45;0&#45;Or -->
<g id="edge13" class="edge">
<title>function&#45;1&#45;Beq:s&#45;&gt;function&#45;0&#45;Or</title>
<path fill="none" stroke="black" d="M195,-332C195,-302.4 154.48,-319.36 141,-293 131.29,-274.01 129.78,-263.15 141,-245 157.2,-218.79 176.75,-230.13 203,-214 203.1,-213.94 203.19,-213.88 203.29,-213.82"/>
<polygon fill="black" stroke="black" points="204.43,-215.17 207.69,-211 202.53,-212.23 204.43,-215.17"/>
</g>
<!-- function&#45;1&#45;Beq&#45;&gt;function&#45;2&#45;RegVal -->
<g id="edge12" class="edge">
<title>function&#45;1&#45;Beq:s&#45;&gt;function&#45;2&#45;RegVal</title>
<path fill="none" stroke="black" d="M181,-332C181,-257.94 462.79,-348.35 512,-293 526.17,-277.06 522.6,-263.51 512,-245 499.56,-223.28 474.61,-209.44 453.83,-201.22"/>
<polygon fill="black" stroke="black" points="457.27,-200.91 452,-200.34 455.76,-204.07 457.27,-200.91"/>
</g>
<!-- function&#45;0&#45;Seq2&#45;&gt;function&#45;0&#45;Bne -->
<g id="edge15" class="edge">
<title>function&#45;0&#45;Seq2:s&#45;&gt;function&#45;0&#45;Bne</title>
<path fill="none" stroke="black" d="M63,-332C63,-323.05 107.96,-300.02 140.13,-284.69"/>
<polygon fill="black" stroke="black" points="138.74,-287.67 142,-283.49 136.85,-284.72 138.74,-287.67"/>
</g>
<!-- function&#45;0&#45;Seq2&#45;&gt;function&#45;0&#45;Jal -->
<g id="edge16" class="edge">
<title>function&#45;0&#45;Seq2:s&#45;&gt;function&#45;0&#45;Jal</title>
<path fill="none" stroke="black" d="M85,-332C85,-318.84 84.77,-304.1 84.53,-292.3"/>
<polygon fill="black" stroke="black" points="86.41,-294.91 84.42,-290 82.91,-295.08 86.41,-294.91"/>
</g>
<!-- function&#45;0&#45;Bne&#45;&gt;function&#45;1&#45;ImmVal -->
<g id="edge19" class="edge">
<title>function&#45;0&#45;Bne:s&#45;&gt;function&#45;1&#45;ImmVal</title>
<path fill="none" stroke="black" d="M186,-253C186,-213.84 238.21,-242.56 265,-214 280.81,-197.15 273.02,-185.77 285,-166 291.97,-154.49 301.29,-142.88 309.63,-133.39"/>
<polygon fill="black" stroke="black" points="308.65,-136.68 311.14,-132 306.28,-134.1 308.65,-136.68"/>
</g>
<!-- function&#45;0&#45;Bne&#45;&gt;function&#45;1&#45;Or -->
<g id="edge17" class="edge">
<title>function&#45;0&#45;Bne:s&#45;&gt;function&#45;1&#45;Or</title>
<path fill="none" stroke="black" d="M163,-253C163,-239.53 165.98,-224.75 169.08,-213.01"/>
<polygon fill="black" stroke="black" points="169.11,-216.13 170.41,-211 166.19,-214.2 169.11,-216.13"/>
</g>
<!-- function&#45;0&#45;Bne&#45;&gt;function&#45;2&#45;RegVal -->
<g id="edge18" class="edge">
<title>function&#45;0&#45;Bne:s&#45;&gt;function&#45;2&#45;RegVal</title>
<path fill="none" stroke="black" d="M177,-253C177,-240.91 191.27,-247.95 203,-245 272.4,-227.56 292.28,-233.96 361,-214 369.31,-211.59 378.08,-208.49 386.25,-205.35"/>
<polygon fill="black" stroke="black" points="384.44,-208.32 388,-204.39 382.77,-205.24 384.44,-208.32"/>
</g>
<!-- function&#45;0&#45;Jal&#45;&gt;function&#45;0&#45;ImmVal -->
<g id="edge26" class="edge">
<title>function&#45;0&#45;Jal:s&#45;&gt;function&#45;0&#45;ImmVal</title>
<path fill="none" stroke="black" d="M84,-253C84,-237.82 75.52,-223.32 66.48,-212.17"/>
<polygon fill="black" stroke="black" points="70.05,-212.95 65.13,-211 67.76,-215.6 70.05,-212.95"/>
</g>
<!-- function&#45;1&#45;Bne&#45;&gt;function&#45;1&#45;ImmVal -->
<g id="edge22" class="edge">
<title>function&#45;1&#45;Bne:s&#45;&gt;function&#45;1&#45;ImmVal</title>
<path fill="none" stroke="black" d="M244,-253C244,-228.8 269.22,-234.55 282,-214 293.95,-194.78 289.55,-186.56 299,-166 304.09,-154.93 310.71,-143.13 316.52,-133.4"/>
<polygon fill="black" stroke="black" points="315.51,-136.61 318.13,-132 313.21,-133.97 315.51,-136.61"/>
</g>
<!-- function&#45;1&#45;Bne&#45;&gt;function&#45;0&#45;Or -->
<g id="edge21" class="edge">
<title>function&#45;1&#45;Bne:s&#45;&gt;function&#45;0&#45;Or</title>
<path fill="none" stroke="black" d="M235,-253C235,-239.84 234.77,-225.1 234.53,-213.3"/>
<polygon fill="black" stroke="black" points="236.41,-215.91 234.42,-211 232.91,-216.08 236.41,-215.91"/>
</g>
<!-- function&#45;1&#45;Bne&#45;&gt;function&#45;2&#45;RegVal -->
<g id="edge20" class="edge">
<title>function&#45;1&#45;Bne:s&#45;&gt;function&#45;2&#45;RegVal</title>
<path fill="none" stroke="black" d="M221,-253C221,-188.41 299.72,-234.42 361,-214 369.29,-211.24 378.12,-207.97 386.36,-204.78"/>
<polygon fill="black" stroke="black" points="384.59,-207.86 388,-203.81 382.81,-204.85 384.59,-207.86"/>
</g>
<!-- function&#45;1&#45;Seq2&#45;&gt;function&#45;1&#45;Jal -->
<g id="edge24" class="edge">
<title>function&#45;1&#45;Seq2:s&#45;&gt;function&#45;1&#45;Jal</title>
<path fill="none" stroke="black" d="M299,-253C299,-238.44 305.92,-223.8 313.22,-212.41"/>
<polygon fill="black" stroke="black" points="312.14,-215.37 315.13,-211 310.07,-212.55 312.14,-215.37"/>
</g>
<!-- function&#45;1&#45;Seq2&#45;&gt;function&#45;2&#45;Beq -->
<g id="edge23" class="edge">
<title>function&#45;1&#45;Seq2:s&#45;&gt;function&#45;2&#45;Beq</title>
<path fill="none" stroke="black" d="M277,-253C277,-205.81 336.96,-202.06 379,-223.5 388.53,-228.36 395.96,-237.41 401.33,-246.17"/>
<polygon fill="black" stroke="black" points="398.37,-245.62 403.1,-248 400.88,-243.19 398.37,-245.62"/>
</g>
<!-- function&#45;2&#45;Beq&#45;&gt;function&#45;1&#45;ImmVal -->
<g id="edge30" class="edge">
<title>function&#45;2&#45;Beq:s&#45;&gt;function&#45;1&#45;ImmVal</title>
<path fill="none" stroke="black" d="M426,-253C426,-224.82 392.04,-237.17 376,-214 363.28,-195.62 369.95,-186.48 361,-166 356.12,-154.83 349.53,-143.03 343.67,-133.32"/>
<polygon fill="black" stroke="black" points="347.04,-133.78 342.05,-132 344.84,-136.5 347.04,-133.78"/>
</g>
<!-- function&#45;2&#45;Beq&#45;&gt;function&#45;1&#45;Or -->
<g id="edge28" class="edge">
<title>function&#45;2&#45;Beq:s&#45;&gt;function&#45;1&#45;Or</title>
<path fill="none" stroke="black" d="M403,-253C403,-242.6 391.05,-247.7 381,-245 305.14,-224.61 279.12,-245.12 207,-214 206.5,-213.78 206,-213.56 205.5,-213.32"/>
<polygon fill="black" stroke="black" points="206.27,-211.75 201.03,-211 204.66,-214.86 206.27,-211.75"/>
</g>
<!-- function&#45;2&#45;Beq&#45;&gt;function&#45;2&#45;RegVal -->
<g id="edge29" class="edge">
<title>function&#45;2&#45;Beq:s&#45;&gt;function&#45;2&#45;RegVal</title>
<path fill="none" stroke="black" d="M417,-253C417,-239.82 417.68,-225.09 418.4,-213.29"/>
<polygon fill="black" stroke="black" points="419.75,-216.2 418.73,-211 416.29,-215.7 419.75,-216.2"/>
</g>
<!-- function&#45;3&#45;Beq&#45;&gt;function&#45;1&#45;ImmVal -->
<g id="edge33" class="edge">
<title>function&#45;3&#45;Beq:s&#45;&gt;function&#45;1&#45;ImmVal</title>
<path fill="none" stroke="black" d="M484,-253C484,-206.53 418.53,-248.13 387,-214 371.84,-197.58 382.36,-185.8 372,-166 365.93,-154.4 357.3,-142.77 349.44,-133.3"/>
<polygon fill="black" stroke="black" points="352.91,-134.27 348.13,-132 350.45,-136.76 352.91,-134.27"/>
</g>
<!-- function&#45;3&#45;Beq&#45;&gt;function&#45;0&#45;Or -->
<g id="edge32" class="edge">
<title>function&#45;3&#45;Beq:s&#45;&gt;function&#45;0&#45;Or</title>
<path fill="none" stroke="black" d="M475,-253C475,-212.94 337.51,-225.03 299,-214 288.22,-210.91 276.63,-207 266.26,-203.29"/>
<polygon fill="black" stroke="black" points="269,-203.24 264,-201.49 266.82,-205.97 269,-203.24"/>
</g>
<!-- function&#45;3&#45;Beq&#45;&gt;function&#45;2&#45;RegVal -->
<g id="edge31" class="edge">
<title>function&#45;3&#45;Beq:s&#45;&gt;function&#45;2&#45;RegVal</title>
<path fill="none" stroke="black" d="M461,-253C461,-237.6 452.09,-223.08 442.58,-211.97"/>
<polygon fill="black" stroke="black" points="446.21,-212.23 441.06,-211 444.32,-215.17 446.21,-212.23"/>
</g>
<!-- function&#45;2&#45;Seq2&#45;&gt;function&#45;1&#45;Jal -->
<g id="edge35" class="edge">
<title>function&#45;2&#45;Seq2:s&#45;&gt;function&#45;1&#45;Jal</title>
<path fill="none" stroke="black" d="M365,-253C365,-238.03 357.16,-223.34 348.91,-212.03"/>
<polygon fill="black" stroke="black" points="352.66,-213.25 347.86,-211 350.2,-215.75 352.66,-213.25"/>
</g>
<!-- function&#45;2&#45;Seq2&#45;&gt;function&#45;1&#45;Seq2 -->
<g id="edge34" class="edge">
<title>function&#45;2&#45;Seq2:s&#45;&gt;function&#45;1&#45;Seq2</title>
<path fill="none" stroke="black" d="M343,-253C343,-241.59 331.78,-243.91 319.57,-249.8"/>
<polygon fill="black" stroke="black" points="320.71,-246.57 318,-251.12 322.96,-249.26 320.71,-246.57"/>
</g>
<!-- function&#45;0&#45;ImmVal -->
<g id="node1" class="node">
<title>function&#45;0&#45;ImmVal</title>
<g id="a_node1"><a xlink:title="Imm&#45;4: function&#45;0&#45;ImmVal">
<path fill="white" stroke="transparent" d="M24.67,-174C24.67,-174 65.33,-174 65.33,-174 70.67,-174 76,-179.33 76,-184.67 76,-184.67 76,-195.33 76,-195.33 76,-200.67 70.67,-206 65.33,-206 65.33,-206 24.67,-206 24.67,-206 19.33,-206 14,-200.67 14,-195.33 14,-195.33 14,-184.67 14,-184.67 14,-179.33 19.33,-174 24.67,-174"/>
<text text-anchor="start" x="19" y="-186.3" font-family="Helvetica,sans-Serif" font-size="14.00">ImmVal</text>
<path fill="none" stroke="black" d="M24.67,-174C24.67,-174 65.33,-174 65.33,-174 70.67,-174 76,-179.33 76,-184.67 76,-184.67 76,-195.33 76,-195.33 76,-200.67 70.67,-206 65.33,-206 65.33,-206 24.67,-206 24.67,-206 19.33,-206 14,-200.67 14,-195.33 14,-195.33 14,-184.67 14,-184.67 14,-179.33 19.33,-174 24.67,-174"/>
</a>
</g>
</g>
<!-- primitive&#45;i64&#45;0 -->
<g id="node2" class="node">
<title>primitive&#45;i64&#45;0</title>
<g id="a_node2"><a xlink:title="i64&#45;0: primitive&#45;i64&#45;0">
<path fill="white" stroke="transparent" d="M39.67,-95C39.67,-95 50.33,-95 50.33,-95 55.67,-95 61,-100.33 61,-105.67 61,-105.67 61,-116.33 61,-116.33 61,-121.67 55.67,-127 50.33,-127 50.33,-127 39.67,-127 39.67,-127 34.33,-127 29,-121.67 29,-116.33 29,-116.33 29,-105.67 29,-105.67 29,-100.33 34.33,-95 39.67,-95"/>
<text text-anchor="start" x="40" y="-107.3" font-family="Helvetica,sans-Serif" font-size="14.00">0</text>
<path fill="none" stroke="black" d="M39.67,-95C39.67,-95 50.33,-95 50.33,-95 55.67,-95 61,-100.33 61,-105.67 61,-105.67 61,-116.33 61,-116.33 61,-121.67 55.67,-127 50.33,-127 50.33,-127 39.67,-127 39.67,-127 34.33,-127 29,-121.67 29,-116.33 29,-116.33 29,-105.67 29,-105.67 29,-100.33 34.33,-95 39.67,-95"/>
</a>
</g>
</g>
<!-- function&#45;1&#45;ImmVal -->
<g id="node3" class="node">
<title>function&#45;1&#45;ImmVal</title>
<g id="a_node3"><a xlink:title="Imm&#45;6: function&#45;1&#45;ImmVal">
<path fill="white" stroke="transparent" d="M309.67,-95C309.67,-95 350.33,-95 350.33,-95 355.67,-95 361,-100.33 361,-105.67 361,-105.67 361,-116.33 361,-116.33 361,-121.67 355.67,-127 350.33,-127 350.33,-127 309.67,-127 309.67,-127 304.33,-127 299,-121.67 299,-116.33 299,-116.33 299,-105.67 299,-105.67 299,-100.33 304.33,-95 309.67,-95"/>
<text text-anchor="start" x="304" y="-107.3" font-family="Helvetica,sans-Serif" font-size="14.00">ImmVal</text>
<path fill="none" stroke="black" d="M309.67,-95C309.67,-95 350.33,-95 350.33,-95 355.67,-95 361,-100.33 361,-105.67 361,-105.67 361,-116.33 361,-116.33 361,-121.67 355.67,-127 350.33,-127 350.33,-127 309.67,-127 309.67,-127 304.33,-127 299,-121.67 299,-116.33 299,-116.33 299,-105.67 299,-105.67 299,-100.33 304.33,-95 309.67,-95"/>
</a>
</g>
</g>
<!-- primitive&#45;i64&#45;4 -->
<g id="node4" class="node">
<title>primitive&#45;i64&#45;4</title>
<g id="a_node4"><a xlink:title="i64&#45;4: primitive&#45;i64&#45;4">
<path fill="white" stroke="transparent" d="M324.67,-16C324.67,-16 335.33,-16 335.33,-16 340.67,-16 346,-21.33 346,-26.67 346,-26.67 346,-37.33 346,-37.33 346,-42.67 340.67,-48 335.33,-48 335.33,-48 324.67,-48 324.67,-48 319.33,-48 314,-42.67 314,-37.33 314,-37.33 314,-26.67 314,-26.67 314,-21.33 319.33,-16 324.67,-16"/>
<text text-anchor="start" x="325" y="-28.3" font-family="Helvetica,sans-Serif" font-size="14.00">4</text>
<path fill="none" stroke="black" d="M324.67,-16C324.67,-16 335.33,-16 335.33,-16 340.67,-16 346,-21.33 346,-26.67 346,-26.67 346,-37.33 346,-37.33 346,-42.67 340.67,-48 335.33,-48 335.33,-48 324.67,-48 324.67,-48 319.33,-48 314,-42.67 314,-37.33 314,-37.33 314,-26.67 314,-26.67 314,-21.33 319.33,-16 324.67,-16"/>
</a>
</g>
</g>
<!-- function&#45;1&#45;Jal -->
<g id="node5" class="node">
<title>function&#45;1&#45;Jal</title>
<g id="a_node5"><a xlink:title="Inst&#45;11: function&#45;1&#45;Jal">
<path fill="white" stroke="transparent" d="M324.67,-174C324.67,-174 335.33,-174 335.33,-174 340.67,-174 346,-179.33 346,-184.67 346,-184.67 346,-195.33 346,-195.33 346,-200.67 340.67,-206 335.33,-206 335.33,-206 324.67,-206 324.67,-206 319.33,-206 314,-200.67 314,-195.33 314,-195.33 314,-184.67 314,-184.67 314,-179.33 319.33,-174 324.67,-174"/>
<text text-anchor="start" x="321.5" y="-186.3" font-family="Helvetica,sans-Serif" font-size="14.00">Jal</text>
<path fill="none" stroke="black" d="M324.67,-174C324.67,-174 335.33,-174 335.33,-174 340.67,-174 346,-179.33 346,-184.67 346,-184.67 346,-195.33 346,-195.33 346,-200.67 340.67,-206 335.33,-206 335.33,-206 324.67,-206 324.67,-206 319.33,-206 314,-200.67 314,-195.33 314,-195.33 314,-184.67 314,-184.67 314,-179.33 319.33,-174 324.67,-174"/>
</a>
</g>
</g>
<!-- function&#45;1&#45;RegVal -->
<g id="node6" class="node">
<title>function&#45;1&#45;RegVal</title>
<g id="a_node6"><a xlink:title="Inst&#45;1: function&#45;1&#45;RegVal">
<path fill="white" stroke="transparent" d="M164.17,-95C164.17,-95 199.83,-95 199.83,-95 205.17,-95 210.5,-100.33 210.5,-105.67 210.5,-105.67 210.5,-116.33 210.5,-116.33 210.5,-121.67 205.17,-127 199.83,-127 199.83,-127 164.17,-127 164.17,-127 158.83,-127 153.5,-121.67 153.5,-116.33 153.5,-116.33 153.5,-105.67 153.5,-105.67 153.5,-100.33 158.83,-95 164.17,-95"/>
<text text-anchor="start" x="159" y="-107.3" font-family="Helvetica,sans-Serif" font-size="14.00">RegVal</text>
<path fill="none" stroke="black" d="M164.17,-95C164.17,-95 199.83,-95 199.83,-95 205.17,-95 210.5,-100.33 210.5,-105.67 210.5,-105.67 210.5,-116.33 210.5,-116.33 210.5,-121.67 205.17,-127 199.83,-127 199.83,-127 164.17,-127 164.17,-127 158.83,-127 153.5,-121.67 153.5,-116.33 153.5,-116.33 153.5,-105.67 153.5,-105.67 153.5,-100.33 158.83,-95 164.17,-95"/>
</a>
</g>
</g>
<!-- primitive&#45;String&#45;1 -->
<g id="node7" class="node">
<title>primitive&#45;String&#45;1</title>
<g id="a_node7"><a xlink:title="String&#45;1: primitive&#45;String&#45;1">
<path fill="white" stroke="transparent" d="M165.17,-16C165.17,-16 200.83,-16 200.83,-16 206.17,-16 211.5,-21.33 211.5,-26.67 211.5,-26.67 211.5,-37.33 211.5,-37.33 211.5,-42.67 206.17,-48 200.83,-48 200.83,-48 165.17,-48 165.17,-48 159.83,-48 154.5,-42.67 154.5,-37.33 154.5,-37.33 154.5,-26.67 154.5,-26.67 154.5,-21.33 159.83,-16 165.17,-16"/>
<text text-anchor="start" x="160" y="-28.3" font-family="Helvetica,sans-Serif" font-size="14.00">&quot;a6_0&quot;</text>
<path fill="none" stroke="black" d="M165.17,-16C165.17,-16 200.83,-16 200.83,-16 206.17,-16 211.5,-21.33 211.5,-26.67 211.5,-26.67 211.5,-37.33 211.5,-37.33 211.5,-42.67 206.17,-48 200.83,-48 200.83,-48 165.17,-48 165.17,-48 159.83,-48 154.5,-42.67 154.5,-37.33 154.5,-37.33 154.5,-26.67 154.5,-26.67 154.5,-21.33 159.83,-16 165.17,-16"/>
</a>
</g>
</g>
<!-- function&#45;0&#45;Or -->
<g id="node8" class="node">
<title>function&#45;0&#45;Or</title>
<g id="a_node8"><a xlink:title="Inst&#45;3: function&#45;0&#45;Or">
<path fill="white" stroke="transparent" d="M228.67,-174C228.67,-174 239.33,-174 239.33,-174 244.67,-174 250,-179.33 250,-184.67 250,-184.67 250,-195.33 250,-195.33 250,-200.67 244.67,-206 239.33,-206 239.33,-206 228.67,-206 228.67,-206 223.33,-206 218,-200.67 218,-195.33 218,-195.33 218,-184.67 218,-184.67 218,-179.33 223.33,-174 228.67,-174"/>
<text text-anchor="start" x="225" y="-186.3" font-family="Helvetica,sans-Serif" font-size="14.00">Or</text>
<path fill="none" stroke="black" d="M228.67,-174C228.67,-174 239.33,-174 239.33,-174 244.67,-174 250,-179.33 250,-184.67 250,-184.67 250,-195.33 250,-195.33 250,-200.67 244.67,-206 239.33,-206 239.33,-206 228.67,-206 228.67,-206 223.33,-206 218,-200.67 218,-195.33 218,-195.33 218,-184.67 218,-184.67 218,-179.33 223.33,-174 228.67,-174"/>
</a>
</g>
</g>
<!-- function&#45;0&#45;RegVal -->
<g id="node9" class="node">
<title>function&#45;0&#45;RegVal</title>
<g id="a_node9"><a xlink:title="Inst&#45;0: function&#45;0&#45;RegVal">
<path fill="white" stroke="transparent" d="M234.17,-95C234.17,-95 269.83,-95 269.83,-95 275.17,-95 280.5,-100.33 280.5,-105.67 280.5,-105.67 280.5,-116.33 280.5,-116.33 280.5,-121.67 275.17,-127 269.83,-127 269.83,-127 234.17,-127 234.17,-127 228.83,-127 223.5,-121.67 223.5,-116.33 223.5,-116.33 223.5,-105.67 223.5,-105.67 223.5,-100.33 228.83,-95 234.17,-95"/>
<text text-anchor="start" x="229" y="-107.3" font-family="Helvetica,sans-Serif" font-size="14.00">RegVal</text>
<path fill="none" stroke="black" d="M234.17,-95C234.17,-95 269.83,-95 269.83,-95 275.17,-95 280.5,-100.33 280.5,-105.67 280.5,-105.67 280.5,-116.33 280.5,-116.33 280.5,-121.67 275.17,-127 269.83,-127 269.83,-127 234.17,-127 234.17,-127 228.83,-127 223.5,-121.67 223.5,-116.33 223.5,-116.33 223.5,-105.67 223.5,-105.67 223.5,-100.33 228.83,-95 234.17,-95"/>
</a>
</g>
</g>
<!-- function&#45;1&#45;Or -->
<g id="node10" class="node">
<title>function&#45;1&#45;Or</title>
<g id="a_node10"><a xlink:title="Inst&#45;3: function&#45;1&#45;Or">
<path fill="white" stroke="transparent" d="M170.67,-174C170.67,-174 181.33,-174 181.33,-174 186.67,-174 192,-179.33 192,-184.67 192,-184.67 192,-195.33 192,-195.33 192,-200.67 186.67,-206 181.33,-206 181.33,-206 170.67,-206 170.67,-206 165.33,-206 160,-200.67 160,-195.33 160,-195.33 160,-184.67 160,-184.67 160,-179.33 165.33,-174 170.67,-174"/>
<text text-anchor="start" x="167" y="-186.3" font-family="Helvetica,sans-Serif" font-size="14.00">Or</text>
<path fill="none" stroke="black" d="M170.67,-174C170.67,-174 181.33,-174 181.33,-174 186.67,-174 192,-179.33 192,-184.67 192,-184.67 192,-195.33 192,-195.33 192,-200.67 186.67,-206 181.33,-206 181.33,-206 170.67,-206 170.67,-206 165.33,-206 160,-200.67 160,-195.33 160,-195.33 160,-184.67 160,-184.67 160,-179.33 165.33,-174 170.67,-174"/>
</a>
</g>
</g>
<!-- function&#45;0&#45;Beq -->
<g id="node11" class="node">
<title>function&#45;0&#45;Beq</title>
<g id="a_node11"><a xlink:title="Inst&#45;5: function&#45;0&#45;Beq">
<path fill="white" stroke="transparent" d="M123.67,-332C123.67,-332 140.33,-332 140.33,-332 145.67,-332 151,-337.33 151,-342.67 151,-342.67 151,-353.33 151,-353.33 151,-358.67 145.67,-364 140.33,-364 140.33,-364 123.67,-364 123.67,-364 118.33,-364 113,-358.67 113,-353.33 113,-353.33 113,-342.67 113,-342.67 113,-337.33 118.33,-332 123.67,-332"/>
<text text-anchor="start" x="118" y="-344.3" font-family="Helvetica,sans-Serif" font-size="14.00">Beq</text>
<path fill="none" stroke="black" d="M123.67,-332C123.67,-332 140.33,-332 140.33,-332 145.67,-332 151,-337.33 151,-342.67 151,-342.67 151,-353.33 151,-353.33 151,-358.67 145.67,-364 140.33,-364 140.33,-364 123.67,-364 123.67,-364 118.33,-364 113,-358.67 113,-353.33 113,-353.33 113,-342.67 113,-342.67 113,-337.33 118.33,-332 123.67,-332"/>
</a>
</g>
</g>
<!-- function&#45;2&#45;RegVal -->
<g id="node12" class="node">
<title>function&#45;2&#45;RegVal</title>
<g id="a_node12"><a xlink:title="Inst&#45;2: function&#45;2&#45;RegVal">
<path fill="white" stroke="transparent" d="M402.17,-174C402.17,-174 437.83,-174 437.83,-174 443.17,-174 448.5,-179.33 448.5,-184.67 448.5,-184.67 448.5,-195.33 448.5,-195.33 448.5,-200.67 443.17,-206 437.83,-206 437.83,-206 402.17,-206 402.17,-206 396.83,-206 391.5,-200.67 391.5,-195.33 391.5,-195.33 391.5,-184.67 391.5,-184.67 391.5,-179.33 396.83,-174 402.17,-174"/>
<text text-anchor="start" x="397" y="-186.3" font-family="Helvetica,sans-Serif" font-size="14.00">RegVal</text>
<path fill="none" stroke="black" d="M402.17,-174C402.17,-174 437.83,-174 437.83,-174 443.17,-174 448.5,-179.33 448.5,-184.67 448.5,-184.67 448.5,-195.33 448.5,-195.33 448.5,-200.67 443.17,-206 437.83,-206 437.83,-206 402.17,-206 402.17,-206 396.83,-206 391.5,-200.67 391.5,-195.33 391.5,-195.33 391.5,-184.67 391.5,-184.67 391.5,-179.33 396.83,-174 402.17,-174"/>
</a>
</g>
</g>
<!-- function&#45;1&#45;Beq -->
<g id="node13" class="node">
<title>function&#45;1&#45;Beq</title>
<g id="a_node13"><a xlink:title="Inst&#45;5: function&#45;1&#45;Beq">
<path fill="white" stroke="transparent" d="M181.67,-332C181.67,-332 198.33,-332 198.33,-332 203.67,-332 209,-337.33 209,-342.67 209,-342.67 209,-353.33 209,-353.33 209,-358.67 203.67,-364 198.33,-364 198.33,-364 181.67,-364 181.67,-364 176.33,-364 171,-358.67 171,-353.33 171,-353.33 171,-342.67 171,-342.67 171,-337.33 176.33,-332 181.67,-332"/>
<text text-anchor="start" x="176" y="-344.3" font-family="Helvetica,sans-Serif" font-size="14.00">Beq</text>
<path fill="none" stroke="black" d="M181.67,-332C181.67,-332 198.33,-332 198.33,-332 203.67,-332 209,-337.33 209,-342.67 209,-342.67 209,-353.33 209,-353.33 209,-358.67 203.67,-364 198.33,-364 198.33,-364 181.67,-364 181.67,-364 176.33,-364 171,-358.67 171,-353.33 171,-353.33 171,-342.67 171,-342.67 171,-337.33 176.33,-332 181.67,-332"/>
</a>
</g>
</g>
<!-- function&#45;0&#45;Seq2 -->
<g id="node14" class="node">
<title>function&#45;0&#45;Seq2</title>
<g id="a_node14"><a xlink:title="Inst&#45;5: function&#45;0&#45;Seq2">
<path fill="white" stroke="transparent" d="M61.67,-332C61.67,-332 86.33,-332 86.33,-332 91.67,-332 97,-337.33 97,-342.67 97,-342.67 97,-353.33 97,-353.33 97,-358.67 91.67,-364 86.33,-364 86.33,-364 61.67,-364 61.67,-364 56.33,-364 51,-358.67 51,-353.33 51,-353.33 51,-342.67 51,-342.67 51,-337.33 56.33,-332 61.67,-332"/>
<text text-anchor="start" x="56" y="-344.3" font-family="Helvetica,sans-Serif" font-size="14.00">Seq2</text>
<path fill="none" stroke="black" d="M61.67,-332C61.67,-332 86.33,-332 86.33,-332 91.67,-332 97,-337.33 97,-342.67 97,-342.67 97,-353.33 97,-353.33 97,-358.67 91.67,-364 86.33,-364 86.33,-364 61.67,-364 61.67,-364 56.33,-364 51,-358.67 51,-353.33 51,-353.33 51,-342.67 51,-342.67 51,-337.33 56.33,-332 61.67,-332"/>
</a>
</g>
</g>
<!-- function&#45;0&#45;Bne -->
<g id="node15" class="node">
<title>function&#45;0&#45;Bne</title>
<g id="a_node15"><a xlink:title="Inst&#45;7: function&#45;0&#45;Bne">
<path fill="white" stroke="transparent" d="M163.67,-253C163.67,-253 180.33,-253 180.33,-253 185.67,-253 191,-258.33 191,-263.67 191,-263.67 191,-274.33 191,-274.33 191,-279.67 185.67,-285 180.33,-285 180.33,-285 163.67,-285 163.67,-285 158.33,-285 153,-279.67 153,-274.33 153,-274.33 153,-263.67 153,-263.67 153,-258.33 158.33,-253 163.67,-253"/>
<text text-anchor="start" x="158" y="-265.3" font-family="Helvetica,sans-Serif" font-size="14.00">Bne</text>
<path fill="none" stroke="black" d="M163.67,-253C163.67,-253 180.33,-253 180.33,-253 185.67,-253 191,-258.33 191,-263.67 191,-263.67 191,-274.33 191,-274.33 191,-279.67 185.67,-285 180.33,-285 180.33,-285 163.67,-285 163.67,-285 158.33,-285 153,-279.67 153,-274.33 153,-274.33 153,-263.67 153,-263.67 153,-258.33 158.33,-253 163.67,-253"/>
</a>
</g>
</g>
<!-- function&#45;0&#45;Jal -->
<g id="node16" class="node">
<title>function&#45;0&#45;Jal</title>
<g id="a_node16"><a xlink:title="Inst&#45;8: function&#45;0&#45;Jal">
<path fill="white" stroke="transparent" d="M78.67,-253C78.67,-253 89.33,-253 89.33,-253 94.67,-253 100,-258.33 100,-263.67 100,-263.67 100,-274.33 100,-274.33 100,-279.67 94.67,-285 89.33,-285 89.33,-285 78.67,-285 78.67,-285 73.33,-285 68,-279.67 68,-274.33 68,-274.33 68,-263.67 68,-263.67 68,-258.33 73.33,-253 78.67,-253"/>
<text text-anchor="start" x="75.5" y="-265.3" font-family="Helvetica,sans-Serif" font-size="14.00">Jal</text>
<path fill="none" stroke="black" d="M78.67,-253C78.67,-253 89.33,-253 89.33,-253 94.67,-253 100,-258.33 100,-263.67 100,-263.67 100,-274.33 100,-274.33 100,-279.67 94.67,-285 89.33,-285 89.33,-285 78.67,-285 78.67,-285 73.33,-285 68,-279.67 68,-274.33 68,-274.33 68,-263.67 68,-263.67 68,-258.33 73.33,-253 78.67,-253"/>
</a>
</g>
</g>
<!-- function&#45;1&#45;Bne -->
<g id="node17" class="node">
<title>function&#45;1&#45;Bne</title>
<g id="a_node17"><a xlink:title="Inst&#45;7: function&#45;1&#45;Bne">
<path fill="white" stroke="transparent" d="M221.67,-253C221.67,-253 238.33,-253 238.33,-253 243.67,-253 249,-258.33 249,-263.67 249,-263.67 249,-274.33 249,-274.33 249,-279.67 243.67,-285 238.33,-285 238.33,-285 221.67,-285 221.67,-285 216.33,-285 211,-279.67 211,-274.33 211,-274.33 211,-263.67 211,-263.67 211,-258.33 216.33,-253 221.67,-253"/>
<text text-anchor="start" x="216" y="-265.3" font-family="Helvetica,sans-Serif" font-size="14.00">Bne</text>
<path fill="none" stroke="black" d="M221.67,-253C221.67,-253 238.33,-253 238.33,-253 243.67,-253 249,-258.33 249,-263.67 249,-263.67 249,-274.33 249,-274.33 249,-279.67 243.67,-285 238.33,-285 238.33,-285 221.67,-285 221.67,-285 216.33,-285 211,-279.67 211,-274.33 211,-274.33 211,-263.67 211,-263.67 211,-258.33 216.33,-253 221.67,-253"/>
</a>
</g>
</g>
<!-- function&#45;1&#45;Seq2 -->
<g id="node18" class="node">
<title>function&#45;1&#45;Seq2</title>
<g id="a_node18"><a xlink:title="Inst&#45;7: function&#45;1&#45;Seq2">
<path fill="white" stroke="transparent" d="M275.67,-253C275.67,-253 300.33,-253 300.33,-253 305.67,-253 311,-258.33 311,-263.67 311,-263.67 311,-274.33 311,-274.33 311,-279.67 305.67,-285 300.33,-285 300.33,-285 275.67,-285 275.67,-285 270.33,-285 265,-279.67 265,-274.33 265,-274.33 265,-263.67 265,-263.67 265,-258.33 270.33,-253 275.67,-253"/>
<text text-anchor="start" x="270" y="-265.3" font-family="Helvetica,sans-Serif" font-size="14.00">Seq2</text>
<path fill="none" stroke="black" d="M275.67,-253C275.67,-253 300.33,-253 300.33,-253 305.67,-253 311,-258.33 311,-263.67 311,-263.67 311,-274.33 311,-274.33 311,-279.67 305.67,-285 300.33,-285 300.33,-285 275.67,-285 275.67,-285 270.33,-285 265,-279.67 265,-274.33 265,-274.33 265,-263.67 265,-263.67 265,-258.33 270.33,-253 275.67,-253"/>
</a>
</g>
</g>
<!-- function&#45;2&#45;Beq -->
<g id="node19" class="node">
<title>function&#45;2&#45;Beq</title>
<g id="a_node19"><a xlink:title="Inst&#45;10: function&#45;2&#45;Beq">
<path fill="white" stroke="transparent" d="M403.67,-253C403.67,-253 420.33,-253 420.33,-253 425.67,-253 431,-258.33 431,-263.67 431,-263.67 431,-274.33 431,-274.33 431,-279.67 425.67,-285 420.33,-285 420.33,-285 403.67,-285 403.67,-285 398.33,-285 393,-279.67 393,-274.33 393,-274.33 393,-263.67 393,-263.67 393,-258.33 398.33,-253 403.67,-253"/>
<text text-anchor="start" x="398" y="-265.3" font-family="Helvetica,sans-Serif" font-size="14.00">Beq</text>
<path fill="none" stroke="black" d="M403.67,-253C403.67,-253 420.33,-253 420.33,-253 425.67,-253 431,-258.33 431,-263.67 431,-263.67 431,-274.33 431,-274.33 431,-279.67 425.67,-285 420.33,-285 420.33,-285 403.67,-285 403.67,-285 398.33,-285 393,-279.67 393,-274.33 393,-274.33 393,-263.67 393,-263.67 393,-258.33 398.33,-253 403.67,-253"/>
</a>
</g>
</g>
<!-- primitive&#45;String&#45;2 -->
<g id="node20" class="node">
<title>primitive&#45;String&#45;2</title>
<g id="a_node20"><a xlink:title="String&#45;2: primitive&#45;String&#45;2">
<path fill="white" stroke="transparent" d="M397.17,-95C397.17,-95 444.83,-95 444.83,-95 450.17,-95 455.5,-100.33 455.5,-105.67 455.5,-105.67 455.5,-116.33 455.5,-116.33 455.5,-121.67 450.17,-127 444.83,-127 444.83,-127 397.17,-127 397.17,-127 391.83,-127 386.5,-121.67 386.5,-116.33 386.5,-116.33 386.5,-105.67 386.5,-105.67 386.5,-100.33 391.83,-95 397.17,-95"/>
<text text-anchor="start" x="392" y="-107.3" font-family="Helvetica,sans-Serif" font-size="14.00">&quot;zero_0&quot;</text>
<path fill="none" stroke="black" d="M397.17,-95C397.17,-95 444.83,-95 444.83,-95 450.17,-95 455.5,-100.33 455.5,-105.67 455.5,-105.67 455.5,-116.33 455.5,-116.33 455.5,-121.67 450.17,-127 444.83,-127 444.83,-127 397.17,-127 397.17,-127 391.83,-127 386.5,-121.67 386.5,-116.33 386.5,-116.33 386.5,-105.67 386.5,-105.67 386.5,-100.33 391.83,-95 397.17,-95"/>
</a>
</g>
</g>
<!-- primitive&#45;String&#45;0 -->
<g id="node21" class="node">
<title>primitive&#45;String&#45;0</title>
<g id="a_node21"><a xlink:title="String&#45;0: primitive&#45;String&#45;0">
<path fill="white" stroke="transparent" d="M235.17,-16C235.17,-16 270.83,-16 270.83,-16 276.17,-16 281.5,-21.33 281.5,-26.67 281.5,-26.67 281.5,-37.33 281.5,-37.33 281.5,-42.67 276.17,-48 270.83,-48 270.83,-48 235.17,-48 235.17,-48 229.83,-48 224.5,-42.67 224.5,-37.33 224.5,-37.33 224.5,-26.67 224.5,-26.67 224.5,-21.33 229.83,-16 235.17,-16"/>
<text text-anchor="start" x="230" y="-28.3" font-family="Helvetica,sans-Serif" font-size="14.00">&quot;a2_0&quot;</text>
<path fill="none" stroke="black" d="M235.17,-16C235.17,-16 270.83,-16 270.83,-16 276.17,-16 281.5,-21.33 281.5,-26.67 281.5,-26.67 281.5,-37.33 281.5,-37.33 281.5,-42.67 276.17,-48 270.83,-48 270.83,-48 235.17,-48 235.17,-48 229.83,-48 224.5,-42.67 224.5,-37.33 224.5,-37.33 224.5,-26.67 224.5,-26.67 224.5,-21.33 229.83,-16 235.17,-16"/>
</a>
</g>
</g>
<!-- function&#45;3&#45;Beq -->
<g id="node22" class="node">
<title>function&#45;3&#45;Beq</title>
<g id="a_node22"><a xlink:title="Inst&#45;10: function&#45;3&#45;Beq">
<path fill="white" stroke="transparent" d="M461.67,-253C461.67,-253 478.33,-253 478.33,-253 483.67,-253 489,-258.33 489,-263.67 489,-263.67 489,-274.33 489,-274.33 489,-279.67 483.67,-285 478.33,-285 478.33,-285 461.67,-285 461.67,-285 456.33,-285 451,-279.67 451,-274.33 451,-274.33 451,-263.67 451,-263.67 451,-258.33 456.33,-253 461.67,-253"/>
<text text-anchor="start" x="456" y="-265.3" font-family="Helvetica,sans-Serif" font-size="14.00">Beq</text>
<path fill="none" stroke="black" d="M461.67,-253C461.67,-253 478.33,-253 478.33,-253 483.67,-253 489,-258.33 489,-263.67 489,-263.67 489,-274.33 489,-274.33 489,-279.67 483.67,-285 478.33,-285 478.33,-285 461.67,-285 461.67,-285 456.33,-285 451,-279.67 451,-274.33 451,-274.33 451,-263.67 451,-263.67 451,-258.33 456.33,-253 461.67,-253"/>
</a>
</g>
</g>
<!-- function&#45;2&#45;Seq2 -->
<g id="node23" class="node">
<title>function&#45;2&#45;Seq2</title>
<g id="a_node23"><a xlink:title="Inst&#45;10: function&#45;2&#45;Seq2">
<path fill="white" stroke="transparent" d="M341.67,-253C341.67,-253 366.33,-253 366.33,-253 371.67,-253 377,-258.33 377,-263.67 377,-263.67 377,-274.33 377,-274.33 377,-279.67 371.67,-285 366.33,-285 366.33,-285 341.67,-285 341.67,-285 336.33,-285 331,-279.67 331,-274.33 331,-274.33 331,-263.67 331,-263.67 331,-258.33 336.33,-253 341.67,-253"/>
<text text-anchor="start" x="336" y="-265.3" font-family="Helvetica,sans-Serif" font-size="14.00">Seq2</text>
<path fill="none" stroke="black" d="M341.67,-253C341.67,-253 366.33,-253 366.33,-253 371.67,-253 377,-258.33 377,-263.67 377,-263.67 377,-274.33 377,-274.33 377,-279.67 371.67,-285 366.33,-285 366.33,-285 341.67,-285 341.67,-285 336.33,-285 331,-279.67 331,-274.33 331,-274.33 331,-263.67 331,-263.67 331,-258.33 336.33,-253 341.67,-253"/>
</a>
</g>
</g>
</g>
</svg>
