<?xml version="1.0" encoding="UTF-8" standalone="no"?>
<!DOCTYPE svg PUBLIC "-//W3C//DTD SVG 1.1//EN"
 "http://www.w3.org/Graphics/SVG/1.1/DTD/svg11.dtd">
<!-- Generated by graphviz version 2.43.0 (0)
 -->
<!-- Title: %3 Pages: 1 -->
<svg width="917pt" height="546pt"
 viewBox="0.00 0.00 917.00 546.00" xmlns="http://www.w3.org/2000/svg" xmlns:xlink="http://www.w3.org/1999/xlink">
<g id="graph0" class="graph" transform="scale(1 1) rotate(0) translate(4 542)">
<title>%3</title>
<polygon fill="white" stroke="#000000" points="-4,4 -4,-542 913,-542 913,4 -4,4"/>
<g id="clust1" class="cluster">
<title>outer_cluster_Imm&#45;11</title>
</g>
<g id="clust2" class="cluster">
<title>cluster_Imm&#45;11</title>
<path fill="#ffffb3" stroke="black" stroke-dasharray="5,2" d="M23,-327C23,-327 67,-327 67,-327 73,-327 79,-333 79,-339 79,-339 79,-357 79,-357 79,-363 73,-369 67,-369 67,-369 23,-369 23,-369 17,-369 11,-363 11,-357 11,-357 11,-339 11,-339 11,-333 17,-327 23,-327"/>
</g>
<g id="clust4" class="cluster">
<title>outer_cluster_Imm&#45;9</title>
</g>
<g id="clust5" class="cluster">
<title>cluster_Imm&#45;9</title>
<path fill="#ffffb3" stroke="black" stroke-dasharray="5,2" d="M416,-248C416,-248 460,-248 460,-248 466,-248 472,-254 472,-260 472,-260 472,-278 472,-278 472,-284 466,-290 460,-290 460,-290 416,-290 416,-290 410,-290 404,-284 404,-278 404,-278 404,-260 404,-260 404,-254 410,-248 416,-248"/>
</g>
<g id="clust7" class="cluster">
<title>outer_cluster_Imm&#45;14</title>
</g>
<g id="clust8" class="cluster">
<title>cluster_Imm&#45;14</title>
<path fill="#ffffb3" stroke="black" stroke-dasharray="5,2" d="M298,-248C298,-248 342,-248 342,-248 348,-248 354,-254 354,-260 354,-260 354,-278 354,-278 354,-284 348,-290 342,-290 342,-290 298,-290 298,-290 292,-290 286,-284 286,-278 286,-278 286,-260 286,-260 286,-254 292,-248 298,-248"/>
</g>
<g id="clust10" class="cluster">
<title>outer_cluster_Inst&#45;12</title>
</g>
<g id="clust11" class="cluster">
<title>cluster_Inst&#45;12</title>
<path fill="#bebada" stroke="black" stroke-dasharray="5,2" d="M68,-485C68,-485 220,-485 220,-485 226,-485 232,-491 232,-497 232,-497 232,-515 232,-515 232,-521 226,-527 220,-527 220,-527 68,-527 68,-527 62,-527 56,-521 56,-515 56,-515 56,-497 56,-497 56,-491 62,-485 68,-485"/>
</g>
<g id="clust13" class="cluster">
<title>outer_cluster_Inst&#45;10</title>
</g>
<g id="clust14" class="cluster">
<title>cluster_Inst&#45;10</title>
<path fill="#bebada" stroke="black" stroke-dasharray="5,2" d="M456,-327C456,-327 492,-327 492,-327 498,-327 504,-333 504,-339 504,-339 504,-357 504,-357 504,-363 498,-369 492,-369 492,-369 456,-369 456,-369 450,-369 444,-363 444,-357 444,-357 444,-339 444,-339 444,-333 450,-327 456,-327"/>
</g>
<g id="clust16" class="cluster">
<title>outer_cluster_Inst&#45;3</title>
</g>
<g id="clust17" class="cluster">
<title>cluster_Inst&#45;3</title>
<path fill="#bebada" stroke="black" stroke-dasharray="5,2" d="M706,-90C706,-90 746,-90 746,-90 752,-90 758,-96 758,-102 758,-102 758,-120 758,-120 758,-126 752,-132 746,-132 746,-132 706,-132 706,-132 700,-132 694,-126 694,-120 694,-120 694,-102 694,-102 694,-96 700,-90 706,-90"/>
</g>
<g id="clust19" class="cluster">
<title>outer_cluster_Inst&#45;13</title>
</g>
<g id="clust20" class="cluster">
<title>cluster_Inst&#45;13</title>
<path fill="#bebada" stroke="black" stroke-dasharray="5,2" d="M482,-169C482,-169 576,-169 576,-169 582,-169 588,-175 588,-181 588,-181 588,-199 588,-199 588,-205 582,-211 576,-211 576,-211 482,-211 482,-211 476,-211 470,-205 470,-199 470,-199 470,-181 470,-181 470,-175 476,-169 482,-169"/>
</g>
<g id="clust22" class="cluster">
<title>outer_cluster_Inst&#45;17</title>
</g>
<g id="clust23" class="cluster">
<title>cluster_Inst&#45;17</title>
<path fill="#bebada" stroke="black" stroke-dasharray="5,2" d="M606,-169C606,-169 700,-169 700,-169 706,-169 712,-175 712,-181 712,-181 712,-199 712,-199 712,-205 706,-211 700,-211 700,-211 606,-211 606,-211 600,-211 594,-205 594,-199 594,-199 594,-181 594,-181 594,-175 600,-169 606,-169"/>
</g>
<g id="clust25" class="cluster">
<title>outer_cluster_Inst&#45;6</title>
</g>
<g id="clust26" class="cluster">
<title>cluster_Inst&#45;6</title>
<path fill="#bebada" stroke="black" stroke-dasharray="5,2" d="M752,-169C752,-169 846,-169 846,-169 852,-169 858,-175 858,-181 858,-181 858,-199 858,-199 858,-205 852,-211 846,-211 846,-211 752,-211 752,-211 746,-211 740,-205 740,-199 740,-199 740,-181 740,-181 740,-175 746,-169 752,-169"/>
</g>
<g id="clust28" class="cluster">
<title>outer_cluster_Inst&#45;8</title>
</g>
<g id="clust29" class="cluster">
<title>cluster_Inst&#45;8</title>
<path fill="#bebada" stroke="black" stroke-dasharray="5,2" d="M560,-248C560,-248 886,-248 886,-248 892,-248 898,-254 898,-260 898,-260 898,-278 898,-278 898,-284 892,-290 886,-290 886,-290 560,-290 560,-290 554,-290 548,-284 548,-278 548,-278 548,-260 548,-260 548,-254 554,-248 560,-248"/>
</g>
<g id="clust31" class="cluster">
<title>outer_cluster_Inst&#45;18</title>
</g>
<g id="clust32" class="cluster">
<title>cluster_Inst&#45;18</title>
<path fill="#bebada" stroke="black" stroke-dasharray="5,2" d="M154,-406C154,-406 306,-406 306,-406 312,-406 318,-412 318,-418 318,-418 318,-436 318,-436 318,-442 312,-448 306,-448 306,-448 154,-448 154,-448 148,-448 142,-442 142,-436 142,-436 142,-418 142,-418 142,-412 148,-406 154,-406"/>
</g>
<g id="clust34" class="cluster">
<title>outer_cluster_Inst&#45;7</title>
</g>
<g id="clust35" class="cluster">
<title>cluster_Inst&#45;7</title>
<path fill="#bebada" stroke="black" stroke-dasharray="5,2" d="M509,-90C509,-90 549,-90 549,-90 555,-90 561,-96 561,-102 561,-102 561,-120 561,-120 561,-126 555,-132 549,-132 549,-132 509,-132 509,-132 503,-132 497,-126 497,-120 497,-120 497,-102 497,-102 497,-96 503,-90 509,-90"/>
</g>
<g id="clust37" class="cluster">
<title>outer_cluster_Inst&#45;19</title>
</g>
<g id="clust38" class="cluster">
<title>cluster_Inst&#45;19</title>
<path fill="#bebada" stroke="black" stroke-dasharray="5,2" d="M302,-327C302,-327 338,-327 338,-327 344,-327 350,-333 350,-339 350,-339 350,-357 350,-357 350,-363 344,-369 338,-369 338,-369 302,-369 302,-369 296,-369 290,-363 290,-357 290,-357 290,-339 290,-339 290,-333 296,-327 302,-327"/>
</g>
<g id="clust40" class="cluster">
<title>outer_cluster_Inst&#45;0</title>
</g>
<g id="clust41" class="cluster">
<title>cluster_Inst&#45;0</title>
<path fill="#bebada" stroke="black" stroke-dasharray="5,2" d="M647,-406C647,-406 687,-406 687,-406 693,-406 699,-412 699,-418 699,-418 699,-436 699,-436 699,-442 693,-448 687,-448 687,-448 647,-448 647,-448 641,-448 635,-442 635,-436 635,-436 635,-418 635,-418 635,-412 641,-406 647,-406"/>
</g>
<g id="clust43" class="cluster">
<title>outer_cluster_Inst&#45;1</title>
</g>
<g id="clust44" class="cluster">
<title>cluster_Inst&#45;1</title>
<path fill="#bebada" stroke="black" stroke-dasharray="5,2" d="M717,-406C717,-406 757,-406 757,-406 763,-406 769,-412 769,-418 769,-418 769,-436 769,-436 769,-442 763,-448 757,-448 757,-448 717,-448 717,-448 711,-448 705,-442 705,-436 705,-436 705,-418 705,-418 705,-412 711,-406 717,-406"/>
</g>
<g id="clust46" class="cluster">
<title>outer_cluster_Inst&#45;4</title>
</g>
<g id="clust47" class="cluster">
<title>cluster_Inst&#45;4</title>
<path fill="#bebada" stroke="black" stroke-dasharray="5,2" d="M151,-327C151,-327 191,-327 191,-327 197,-327 203,-333 203,-339 203,-339 203,-357 203,-357 203,-363 197,-369 191,-369 191,-369 151,-369 151,-369 145,-369 139,-363 139,-357 139,-357 139,-339 139,-339 139,-333 145,-327 151,-327"/>
</g>
<g id="clust49" class="cluster">
<title>outer_cluster_Inst&#45;5</title>
</g>
<g id="clust50" class="cluster">
<title>cluster_Inst&#45;5</title>
<path fill="#bebada" stroke="black" stroke-dasharray="5,2" d="M646,-485C646,-485 740,-485 740,-485 746,-485 752,-491 752,-497 752,-497 752,-515 752,-515 752,-521 746,-527 740,-527 740,-527 646,-527 646,-527 640,-527 634,-521 634,-515 634,-515 634,-497 634,-497 634,-491 640,-485 646,-485"/>
</g>
<g id="clust52" class="cluster">
<title>outer_cluster_Inst&#45;16</title>
</g>
<g id="clust53" class="cluster">
<title>cluster_Inst&#45;16</title>
<path fill="#bebada" stroke="black" stroke-dasharray="5,2" d="M66,-406C66,-406 102,-406 102,-406 108,-406 114,-412 114,-418 114,-418 114,-436 114,-436 114,-442 108,-448 102,-448 102,-448 66,-448 66,-448 60,-448 54,-442 54,-436 54,-436 54,-418 54,-418 54,-412 60,-406 66,-406"/>
</g>
<g id="clust55" class="cluster">
<title>outer_cluster_Inst&#45;2</title>
</g>
<g id="clust56" class="cluster">
<title>cluster_Inst&#45;2</title>
<path fill="#bebada" stroke="black" stroke-dasharray="5,2" d="M790,-90C790,-90 830,-90 830,-90 836,-90 842,-96 842,-102 842,-102 842,-120 842,-120 842,-126 836,-132 830,-132 830,-132 790,-132 790,-132 784,-132 778,-126 778,-120 778,-120 778,-102 778,-102 778,-96 784,-90 790,-90"/>
</g>
<g id="clust58" class="cluster">
<title>outer_cluster_Inst&#45;15</title>
</g>
<g id="clust59" class="cluster">
<title>cluster_Inst&#45;15</title>
<path fill="#bebada" stroke="black" stroke-dasharray="5,2" d="M336,-406C336,-406 488,-406 488,-406 494,-406 500,-412 500,-418 500,-418 500,-436 500,-436 500,-442 494,-448 488,-448 488,-448 336,-448 336,-448 330,-448 324,-442 324,-436 324,-436 324,-418 324,-418 324,-412 330,-406 336,-406"/>
</g>
<g id="clust61" class="cluster">
<title>outer_cluster_String&#45;2</title>
</g>
<g id="clust62" class="cluster">
<title>cluster_String&#45;2</title>
<path fill="#fb8072" stroke="black" stroke-dasharray="5,2" d="M791,-11C791,-11 831,-11 831,-11 837,-11 843,-17 843,-23 843,-23 843,-41 843,-41 843,-47 837,-53 831,-53 831,-53 791,-53 791,-53 785,-53 779,-47 779,-41 779,-41 779,-23 779,-23 779,-17 785,-11 791,-11"/>
</g>
<g id="clust64" class="cluster">
<title>outer_cluster_String&#45;4</title>
</g>
<g id="clust65" class="cluster">
<title>cluster_String&#45;4</title>
<path fill="#fb8072" stroke="black" stroke-dasharray="5,2" d="M146,-248C146,-248 198,-248 198,-248 204,-248 210,-254 210,-260 210,-260 210,-278 210,-278 210,-284 204,-290 198,-290 198,-290 146,-290 146,-290 140,-290 134,-284 134,-278 134,-278 134,-260 134,-260 134,-254 140,-248 146,-248"/>
</g>
<g id="clust67" class="cluster">
<title>outer_cluster_String&#45;5</title>
</g>
<g id="clust68" class="cluster">
<title>cluster_String&#45;5</title>
<path fill="#fb8072" stroke="black" stroke-dasharray="5,2" d="M510,-11C510,-11 550,-11 550,-11 556,-11 562,-17 562,-23 562,-23 562,-41 562,-41 562,-47 556,-53 550,-53 550,-53 510,-53 510,-53 504,-53 498,-47 498,-41 498,-41 498,-23 498,-23 498,-17 504,-11 510,-11"/>
</g>
<g id="clust70" class="cluster">
<title>outer_cluster_String&#45;1</title>
</g>
<g id="clust71" class="cluster">
<title>cluster_String&#45;1</title>
<path fill="#fb8072" stroke="black" stroke-dasharray="5,2" d="M718,-327C718,-327 758,-327 758,-327 764,-327 770,-333 770,-339 770,-339 770,-357 770,-357 770,-363 764,-369 758,-369 758,-369 718,-369 718,-369 712,-369 706,-363 706,-357 706,-357 706,-339 706,-339 706,-333 712,-327 718,-327"/>
</g>
<g id="clust73" class="cluster">
<title>outer_cluster_String&#45;3</title>
</g>
<g id="clust74" class="cluster">
<title>cluster_String&#45;3</title>
<path fill="#fb8072" stroke="black" stroke-dasharray="5,2" d="M707,-11C707,-11 747,-11 747,-11 753,-11 759,-17 759,-23 759,-23 759,-41 759,-41 759,-47 753,-53 747,-53 747,-53 707,-53 707,-53 701,-53 695,-47 695,-41 695,-41 695,-23 695,-23 695,-17 701,-11 707,-11"/>
</g>
<g id="clust76" class="cluster">
<title>outer_cluster_String&#45;0</title>
</g>
<g id="clust77" class="cluster">
<title>cluster_String&#45;0</title>
<path fill="#fb8072" stroke="black" stroke-dasharray="5,2" d="M648,-327C648,-327 688,-327 688,-327 694,-327 700,-333 700,-339 700,-339 700,-357 700,-357 700,-363 694,-369 688,-369 688,-369 648,-369 648,-369 642,-369 636,-363 636,-357 636,-357 636,-339 636,-339 636,-333 642,-327 648,-327"/>
</g>
<g id="clust79" class="cluster">
<title>outer_cluster_i64&#45;8</title>
</g>
<g id="clust80" class="cluster">
<title>cluster_i64&#45;8</title>
<path fill="#80b1d3" stroke="black" stroke-dasharray="5,2" d="M394,-169C394,-169 430,-169 430,-169 436,-169 442,-175 442,-181 442,-181 442,-199 442,-199 442,-205 436,-211 430,-211 430,-211 394,-211 394,-211 388,-211 382,-205 382,-199 382,-199 382,-181 382,-181 382,-175 388,-169 394,-169"/>
</g>
<g id="clust82" class="cluster">
<title>outer_cluster_i64&#45;0</title>
</g>
<g id="clust83" class="cluster">
<title>cluster_i64&#45;0</title>
<path fill="#80b1d3" stroke="black" stroke-dasharray="5,2" d="M27,-248C27,-248 63,-248 63,-248 69,-248 75,-254 75,-260 75,-260 75,-278 75,-278 75,-284 69,-290 63,-290 63,-290 27,-290 27,-290 21,-290 15,-284 15,-278 15,-278 15,-260 15,-260 15,-254 21,-248 27,-248"/>
</g>
<g id="clust85" class="cluster">
<title>outer_cluster_i64&#45;4</title>
</g>
<g id="clust86" class="cluster">
<title>cluster_i64&#45;4</title>
<path fill="#80b1d3" stroke="black" stroke-dasharray="5,2" d="M302,-169C302,-169 338,-169 338,-169 344,-169 350,-175 350,-181 350,-181 350,-199 350,-199 350,-205 344,-211 338,-211 338,-211 302,-211 302,-211 296,-211 290,-205 290,-199 290,-199 290,-181 290,-181 290,-175 296,-169 302,-169"/>
</g>
<!-- function&#45;1&#45;ImmVal&#45;&gt;primitive&#45;i64&#45;0 -->
<g id="edge1" class="edge">
<title>function&#45;1&#45;ImmVal:s&#45;&gt;primitive&#45;i64&#45;0</title>
<path fill="none" stroke="black" d="M45,-332C45,-318.84 45,-304.11 45,-292.3"/>
<polygon fill="black" stroke="black" points="46.75,-295 45,-290 43.25,-295 46.75,-295"/>
</g>
<!-- function&#45;0&#45;ImmVal&#45;&gt;primitive&#45;i64&#45;8 -->
<g id="edge2" class="edge">
<title>function&#45;0&#45;ImmVal:s&#45;&gt;primitive&#45;i64&#45;8</title>
<path fill="none" stroke="black" d="M438,-253C438,-238.78 432.11,-224.05 425.94,-212.52"/>
<polygon fill="black" stroke="black" points="429.2,-213.4 424.48,-211 426.68,-215.82 429.2,-213.4"/>
</g>
<!-- function&#45;2&#45;ImmVal&#45;&gt;primitive&#45;i64&#45;4 -->
<g id="edge3" class="edge">
<title>function&#45;2&#45;ImmVal:s&#45;&gt;primitive&#45;i64&#45;4</title>
<path fill="none" stroke="black" d="M320,-253C320,-239.84 320,-225.11 320,-213.3"/>
<polygon fill="black" stroke="black" points="321.75,-216 320,-211 318.25,-216 321.75,-216"/>
</g>
<!-- function&#45;1&#45;Blt&#45;&gt;function&#45;1&#45;ImmVal -->
<g id="edge6" class="edge">
<title>function&#45;1&#45;Blt:s&#45;&gt;function&#45;1&#45;ImmVal</title>
<path fill="none" stroke="black" d="M97,-490C97,-460.03 55.76,-477.62 42,-451 29.12,-426.08 33.32,-392.98 38.4,-371.34"/>
<polygon fill="black" stroke="black" points="38.85,-374.24 39.63,-369 35.75,-372.61 38.85,-374.24"/>
</g>
<!-- function&#45;1&#45;Blt&#45;&gt;function&#45;4&#45;RegVal -->
<g id="edge4" class="edge">
<title>function&#45;1&#45;Blt:s&#45;&gt;function&#45;4&#45;RegVal</title>
<path fill="none" stroke="black" d="M78,-490C78,-466.11 101.97,-471.03 115,-451 127.61,-431.63 124.09,-423.38 135,-403 140.9,-391.97 148.45,-380.36 155.11,-370.73"/>
<polygon fill="black" stroke="black" points="154.49,-373.61 157.1,-369 152.19,-370.97 154.49,-373.61"/>
</g>
<!-- function&#45;1&#45;Blt&#45;&gt;function&#45;0&#45;Slli -->
<g id="edge5" class="edge">
<title>function&#45;1&#45;Blt:s&#45;&gt;function&#45;0&#45;Slli</title>
<path fill="none" stroke="black" d="M90,-490C90,-398.26 438.79,-518.43 501,-451 521.38,-428.91 504.55,-393.24 489.83,-370.47"/>
<polygon fill="black" stroke="black" points="492.95,-370.67 487.93,-369 490.81,-373.44 492.95,-370.67"/>
</g>
<!-- function&#45;4&#45;RegVal&#45;&gt;primitive&#45;String&#45;4 -->
<g id="edge51" class="edge">
<title>function&#45;4&#45;RegVal:s&#45;&gt;primitive&#45;String&#45;4</title>
<path fill="none" stroke="black" d="M172,-332C172,-318.84 172,-304.11 172,-292.3"/>
<polygon fill="black" stroke="black" points="173.75,-295 172,-290 170.25,-295 173.75,-295"/>
</g>
<!-- function&#45;0&#45;Slli&#45;&gt;function&#45;0&#45;ImmVal -->
<g id="edge13" class="edge">
<title>function&#45;0&#45;Slli:s&#45;&gt;function&#45;0&#45;ImmVal</title>
<path fill="none" stroke="black" d="M482,-332C482,-316.23 472.41,-301.67 462.19,-290.63"/>
<polygon fill="black" stroke="black" points="466,-290.36 460.71,-290 464.62,-293.58 466,-290.36"/>
</g>
<!-- function&#45;0&#45;Slli&#45;&gt;function&#45;5&#45;Add -->
<g id="edge12" class="edge">
<title>function&#45;0&#45;Slli:s&#45;&gt;function&#45;5&#45;Add</title>
<path fill="none" stroke="black" d="M466,-332C466,-295.29 512.62,-280.14 545.7,-274.01"/>
<polygon fill="black" stroke="black" points="543.99,-276.57 548,-273.11 542.71,-273.32 543.99,-276.57"/>
</g>
<!-- function&#45;0&#45;Bge&#45;&gt;function&#45;1&#45;ImmVal -->
<g id="edge9" class="edge">
<title>function&#45;0&#45;Bge:s&#45;&gt;function&#45;1&#45;ImmVal</title>
<path fill="none" stroke="black" d="M216,-490C216,-415.51 101.39,-507.63 53,-451 43.1,-439.42 42.88,-397.55 43.81,-371.19"/>
<polygon fill="black" stroke="black" points="45.3,-374.14 44,-369 41.81,-373.82 45.3,-374.14"/>
</g>
<!-- function&#45;0&#45;Bge&#45;&gt;function&#45;4&#45;RegVal -->
<g id="edge8" class="edge">
<title>function&#45;0&#45;Bge:s&#45;&gt;function&#45;4&#45;RegVal</title>
<path fill="none" stroke="black" d="M207,-490C207,-455.93 157.89,-480.59 141,-451 126.4,-425.41 141.67,-392.07 155.24,-370.6"/>
<polygon fill="black" stroke="black" points="154.45,-373.58 157.1,-369 152.17,-370.93 154.45,-373.58"/>
</g>
<!-- function&#45;0&#45;Bge&#45;&gt;function&#45;0&#45;Slli -->
<g id="edge7" class="edge">
<title>function&#45;0&#45;Bge:s&#45;&gt;function&#45;0&#45;Slli</title>
<path fill="none" stroke="black" d="M193,-490C193,-418.58 464.66,-504.48 512,-451 532.52,-427.82 511.22,-392.54 493.22,-370.14"/>
<polygon fill="black" stroke="black" points="496.83,-370.96 491.91,-369 494.53,-373.6 496.83,-370.96"/>
</g>
<!-- function&#45;0&#45;Seq2&#45;&gt;function&#45;0&#45;Blt -->
<g id="edge10" class="edge">
<title>function&#45;0&#45;Seq2:s&#45;&gt;function&#45;0&#45;Blt</title>
<path fill="none" stroke="black" d="M133,-490C133,-434.21 329.48,-472.41 381,-451 381.51,-450.79 382.03,-450.56 382.54,-450.33"/>
<polygon fill="black" stroke="black" points="383.45,-451.83 387.1,-448 381.85,-448.71 383.45,-451.83"/>
</g>
<!-- function&#45;0&#45;Seq2&#45;&gt;function&#45;0&#45;Jal -->
<g id="edge11" class="edge">
<title>function&#45;0&#45;Seq2:s&#45;&gt;function&#45;0&#45;Jal</title>
<path fill="none" stroke="black" d="M155,-490C155,-478.67 134.21,-461.44 115.13,-448.03"/>
<polygon fill="black" stroke="black" points="118.93,-448.99 114,-447.05 116.65,-451.64 118.93,-448.99"/>
</g>
<!-- function&#45;0&#45;Blt&#45;&gt;function&#45;2&#45;ImmVal -->
<g id="edge60" class="edge">
<title>function&#45;0&#45;Blt:s&#45;&gt;function&#45;2&#45;ImmVal</title>
<path fill="none" stroke="black" d="M423,-411C423,-359.94 378.41,-315.03 347.91,-290.28"/>
<polygon fill="black" stroke="black" points="352.17,-289.65 346.89,-290 351.24,-293.02 352.17,-289.65"/>
</g>
<!-- function&#45;0&#45;Blt&#45;&gt;function&#45;4&#45;RegVal -->
<g id="edge59" class="edge">
<title>function&#45;0&#45;Blt:s&#45;&gt;function&#45;4&#45;RegVal</title>
<path fill="none" stroke="black" d="M416,-411C416,-400.23 271.82,-369.5 204.67,-355.77"/>
<polygon fill="black" stroke="black" points="208.17,-355.88 203,-354.73 206.32,-358.86 208.17,-355.88"/>
</g>
<!-- function&#45;0&#45;Blt&#45;&gt;function&#45;0&#45;Slli -->
<g id="edge58" class="edge">
<title>function&#45;0&#45;Blt:s&#45;&gt;function&#45;0&#45;Slli</title>
<path fill="none" stroke="black" d="M404,-411C404,-389 423.62,-372.92 442.08,-362.65"/>
<polygon fill="black" stroke="black" points="441.11,-365.61 444,-361.17 438.97,-362.84 441.11,-365.61"/>
</g>
<!-- function&#45;0&#45;Jal&#45;&gt;function&#45;1&#45;ImmVal -->
<g id="edge56" class="edge">
<title>function&#45;0&#45;Jal:s&#45;&gt;function&#45;1&#45;ImmVal</title>
<path fill="none" stroke="black" d="M84,-411C84,-395.82 75.52,-381.32 66.48,-370.17"/>
<polygon fill="black" stroke="black" points="70.05,-370.95 65.13,-369 67.76,-373.6 70.05,-370.95"/>
</g>
<!-- function&#45;5&#45;Add&#45;&gt;function&#45;5&#45;RegVal -->
<g id="edge29" class="edge">
<title>function&#45;5&#45;Add:s&#45;&gt;function&#45;5&#45;RegVal</title>
<path fill="none" stroke="black" d="M569,-253C569,-200.71 488.23,-256.66 458,-214 445.67,-196.59 448.52,-185.11 458,-166 466.04,-149.78 481.55,-137.11 496.02,-128.14"/>
<polygon fill="black" stroke="black" points="493.85,-131.73 497,-127.47 491.88,-128.83 493.85,-131.73"/>
</g>
<!-- function&#45;5&#45;Add&#45;&gt;function&#45;1&#45;Add -->
<g id="edge30" class="edge">
<title>function&#45;5&#45;Add:s&#45;&gt;function&#45;1&#45;Add</title>
<path fill="none" stroke="black" d="M587,-253C587,-242.6 598.94,-247.64 609,-245 690.92,-223.55 719.03,-247.05 797,-214 797.51,-213.78 798.01,-213.56 798.52,-213.33"/>
<polygon fill="black" stroke="black" points="799.39,-214.85 803.03,-211 797.79,-211.74 799.39,-214.85"/>
</g>
<!-- function&#45;3&#45;RegVal&#45;&gt;primitive&#45;String&#45;3 -->
<g id="edge14" class="edge">
<title>function&#45;3&#45;RegVal:s&#45;&gt;primitive&#45;String&#45;3</title>
<path fill="none" stroke="black" d="M727,-95C727,-81.84 727,-67.11 727,-55.3"/>
<polygon fill="black" stroke="black" points="728.75,-58 727,-53 725.25,-58 728.75,-58"/>
</g>
<!-- function&#45;6&#45;Add&#45;&gt;function&#45;3&#45;RegVal -->
<g id="edge15" class="edge">
<title>function&#45;6&#45;Add:s&#45;&gt;function&#45;3&#45;RegVal</title>
<path fill="none" stroke="black" d="M549,-174C549,-144.02 640.61,-125.09 692.02,-116.82"/>
<polygon fill="black" stroke="black" points="690.04,-119.53 694,-116.01 688.71,-116.29 690.04,-119.53"/>
</g>
<!-- function&#45;6&#45;Add&#45;&gt;function&#45;5&#45;RegVal -->
<g id="edge16" class="edge">
<title>function&#45;6&#45;Add:s&#45;&gt;function&#45;5&#45;RegVal</title>
<path fill="none" stroke="black" d="M567,-174C567,-158.82 558.62,-144.22 549.73,-133.01"/>
<polygon fill="black" stroke="black" points="553.45,-133.72 548.44,-132 551.29,-136.47 553.45,-133.72"/>
</g>
<!-- function&#45;5&#45;RegVal&#45;&gt;primitive&#45;String&#45;5 -->
<g id="edge47" class="edge">
<title>function&#45;5&#45;RegVal:s&#45;&gt;primitive&#45;String&#45;5</title>
<path fill="none" stroke="black" d="M530,-95C530,-81.84 530,-67.11 530,-55.3"/>
<polygon fill="black" stroke="black" points="531.75,-58 530,-53 528.25,-58 531.75,-58"/>
</g>
<!-- function&#45;8&#45;Add&#45;&gt;function&#45;3&#45;RegVal -->
<g id="edge18" class="edge">
<title>function&#45;8&#45;Add:s&#45;&gt;function&#45;3&#45;RegVal</title>
<path fill="none" stroke="black" d="M509,-174C509,-136.37 631.19,-120.3 692.19,-114.63"/>
<polygon fill="black" stroke="black" points="689.58,-117.09 694,-114.17 688.72,-113.69 689.58,-117.09"/>
</g>
<!-- function&#45;8&#45;Add&#45;&gt;function&#45;5&#45;RegVal -->
<g id="edge17" class="edge">
<title>function&#45;8&#45;Add:s&#45;&gt;function&#45;5&#45;RegVal</title>
<path fill="none" stroke="black" d="M491,-174C491,-158.82 499.38,-144.22 508.27,-133.01"/>
<polygon fill="black" stroke="black" points="506.71,-136.47 509.56,-132 504.55,-133.72 506.71,-136.47"/>
</g>
<!-- function&#45;10&#45;Add&#45;&gt;function&#45;5&#45;RegVal -->
<g id="edge20" class="edge">
<title>function&#45;10&#45;Add:s&#45;&gt;function&#45;5&#45;RegVal</title>
<path fill="none" stroke="black" d="M691,-174C691,-146.76 610.1,-127.06 562.64,-117.84"/>
<polygon fill="black" stroke="black" points="566.2,-117.91 561,-116.88 564.42,-120.92 566.2,-117.91"/>
</g>
<!-- function&#45;10&#45;Add&#45;&gt;function&#45;2&#45;RegVal -->
<g id="edge19" class="edge">
<title>function&#45;10&#45;Add:s&#45;&gt;function&#45;2&#45;RegVal</title>
<path fill="none" stroke="black" d="M673,-174C673,-173.82 735.89,-145.42 776.45,-127.13"/>
<polygon fill="black" stroke="black" points="775.08,-130.37 778,-125.95 772.96,-127.58 775.08,-130.37"/>
</g>
<!-- function&#45;2&#45;RegVal&#45;&gt;primitive&#45;String&#45;2 -->
<g id="edge57" class="edge">
<title>function&#45;2&#45;RegVal:s&#45;&gt;primitive&#45;String&#45;2</title>
<path fill="none" stroke="black" d="M811,-95C811,-81.84 811,-67.11 811,-55.3"/>
<polygon fill="black" stroke="black" points="812.75,-58 811,-53 809.25,-58 812.75,-58"/>
</g>
<!-- function&#45;12&#45;Add&#45;&gt;function&#45;5&#45;RegVal -->
<g id="edge21" class="edge">
<title>function&#45;12&#45;Add:s&#45;&gt;function&#45;5&#45;RegVal</title>
<path fill="none" stroke="black" d="M615,-174C615,-146.91 586.57,-130.47 562.4,-121.4"/>
<polygon fill="black" stroke="black" points="566.25,-121.4 561,-120.68 564.65,-124.52 566.25,-121.4"/>
</g>
<!-- function&#45;12&#45;Add&#45;&gt;function&#45;2&#45;RegVal -->
<g id="edge22" class="edge">
<title>function&#45;12&#45;Add:s&#45;&gt;function&#45;2&#45;RegVal</title>
<path fill="none" stroke="black" d="M633,-174C633,-163.6 645.12,-169.27 655,-166 700.8,-150.86 713.8,-151.84 759,-135 764.76,-132.85 770.79,-130.36 776.6,-127.83"/>
<polygon fill="black" stroke="black" points="775.21,-131.2 778,-126.7 773.01,-128.48 775.21,-131.2"/>
</g>
<!-- function&#45;1&#45;Add&#45;&gt;function&#45;3&#45;RegVal -->
<g id="edge24" class="edge">
<title>function&#45;1&#45;Add:s&#45;&gt;function&#45;3&#45;RegVal</title>
<path fill="none" stroke="black" d="M837,-174C837,-165.01 792.01,-142.33 759.31,-127.05"/>
<polygon fill="black" stroke="black" points="762.87,-127.93 758,-125.85 760.51,-130.51 762.87,-127.93"/>
</g>
<!-- function&#45;1&#45;Add&#45;&gt;function&#45;2&#45;RegVal -->
<g id="edge23" class="edge">
<title>function&#45;1&#45;Add:s&#45;&gt;function&#45;2&#45;RegVal</title>
<path fill="none" stroke="black" d="M819,-174C819,-160.7 816.95,-145.96 814.8,-134.19"/>
<polygon fill="black" stroke="black" points="817.46,-135.84 813.82,-132 814.27,-137.28 817.46,-135.84"/>
</g>
<!-- function&#45;4&#45;Add&#45;&gt;function&#45;3&#45;RegVal -->
<g id="edge25" class="edge">
<title>function&#45;4&#45;Add:s&#45;&gt;function&#45;3&#45;RegVal</title>
<path fill="none" stroke="black" d="M761,-174C761,-159.03 753.16,-144.34 744.91,-133.03"/>
<polygon fill="black" stroke="black" points="748.66,-134.25 743.86,-132 746.2,-136.75 748.66,-134.25"/>
</g>
<!-- function&#45;4&#45;Add&#45;&gt;function&#45;2&#45;RegVal -->
<g id="edge26" class="edge">
<title>function&#45;4&#45;Add:s&#45;&gt;function&#45;2&#45;RegVal</title>
<path fill="none" stroke="black" d="M779,-174C779,-159.44 785.92,-144.8 793.22,-133.41"/>
<polygon fill="black" stroke="black" points="792.14,-136.37 795.13,-132 790.07,-133.55 792.14,-136.37"/>
</g>
<!-- function&#45;2&#45;Add&#45;&gt;function&#45;5&#45;RegVal -->
<g id="edge28" class="edge">
<title>function&#45;2&#45;Add:s&#45;&gt;function&#45;5&#45;RegVal</title>
<path fill="none" stroke="black" d="M761,-253C761,-187.53 512.37,-263.04 469,-214 454.87,-198.02 460.32,-185.49 469,-166 474.94,-152.66 485.99,-141.23 497,-132.37"/>
<polygon fill="black" stroke="black" points="493.92,-135.32 498.04,-132 492.74,-132.03 493.92,-135.32"/>
</g>
<!-- function&#45;2&#45;Add&#45;&gt;function&#45;1&#45;Add -->
<g id="edge27" class="edge">
<title>function&#45;2&#45;Add:s&#45;&gt;function&#45;1&#45;Add</title>
<path fill="none" stroke="black" d="M743,-253C743,-223.4 773.11,-231.49 797,-214 798.3,-213.05 799.62,-212.08 800.96,-211.09"/>
<polygon fill="black" stroke="black" points="797.17,-213.18 802,-211 796.87,-209.69 797.17,-213.18"/>
</g>
<!-- function&#45;7&#45;Add&#45;&gt;function&#45;6&#45;Add -->
<g id="edge32" class="edge">
<title>function&#45;7&#45;Add:s&#45;&gt;function&#45;6&#45;Add</title>
<path fill="none" stroke="black" d="M819,-253C819,-202.04 640.46,-232.58 593,-214 592.31,-213.73 591.62,-213.44 590.93,-213.15"/>
<polygon fill="black" stroke="black" points="591.66,-211.56 586.39,-211 590.16,-214.72 591.66,-211.56"/>
</g>
<!-- function&#45;7&#45;Add&#45;&gt;function&#45;2&#45;RegVal -->
<g id="edge31" class="edge">
<title>function&#45;7&#45;Add:s&#45;&gt;function&#45;2&#45;RegVal</title>
<path fill="none" stroke="black" d="M801,-253C801,-221.94 844.4,-241.42 859,-214 869.03,-195.17 866.68,-185.9 859,-166 854.13,-153.39 844.8,-141.91 835.58,-132.81"/>
<polygon fill="black" stroke="black" points="839.58,-133.95 834.65,-132 837.29,-136.59 839.58,-133.95"/>
</g>
<!-- function&#45;9&#45;Add&#45;&gt;function&#45;6&#45;Add -->
<g id="edge33" class="edge">
<title>function&#45;9&#45;Add:s&#45;&gt;function&#45;6&#45;Add</title>
<path fill="none" stroke="black" d="M859,-253C859,-242.6 847.11,-247.45 837,-245 730.75,-219.27 695.54,-251.88 593,-214 592.28,-213.74 591.57,-213.45 590.85,-213.16"/>
<polygon fill="black" stroke="black" points="591.43,-211.5 586.16,-211 589.97,-214.68 591.43,-211.5"/>
</g>
<!-- function&#45;9&#45;Add&#45;&gt;function&#45;2&#45;RegVal -->
<g id="edge34" class="edge">
<title>function&#45;9&#45;Add:s&#45;&gt;function&#45;2&#45;RegVal</title>
<path fill="none" stroke="black" d="M877,-253C877,-214.03 883.47,-200.84 866,-166 859.48,-152.99 848.52,-141.36 838.02,-132.26"/>
<polygon fill="black" stroke="black" points="842.48,-131.82 837.18,-132 841.44,-135.16 842.48,-131.82"/>
</g>
<!-- function&#45;11&#45;Add&#45;&gt;function&#45;3&#45;RegVal -->
<g id="edge35" class="edge">
<title>function&#45;11&#45;Add:s&#45;&gt;function&#45;3&#45;RegVal</title>
<path fill="none" stroke="black" d="M627,-253C627,-211.03 688.07,-247.77 713,-214 722.04,-201.75 724.81,-160.52 725.64,-134.38"/>
<polygon fill="black" stroke="black" points="727.23,-137.1 725.79,-132 723.74,-136.89 727.23,-137.1"/>
</g>
<!-- function&#45;11&#45;Add&#45;&gt;function&#45;10&#45;Add -->
<g id="edge36" class="edge">
<title>function&#45;11&#45;Add:s&#45;&gt;function&#45;10&#45;Add</title>
<path fill="none" stroke="black" d="M645,-253C645,-237.93 653.16,-223.34 661.82,-212.1"/>
<polygon fill="black" stroke="black" points="660.52,-215.67 663.02,-211 658.15,-213.1 660.52,-215.67"/>
</g>
<!-- function&#45;13&#45;Add&#45;&gt;function&#45;3&#45;RegVal -->
<g id="edge38" class="edge">
<title>function&#45;13&#45;Add:s&#45;&gt;function&#45;3&#45;RegVal</title>
<path fill="none" stroke="black" d="M703,-253C703,-233.31 719,-233.04 724,-214 731.01,-187.31 730.23,-155.33 728.54,-134.38"/>
<polygon fill="black" stroke="black" points="730.73,-136.59 728.1,-132 727.29,-137.24 730.73,-136.59"/>
</g>
<!-- function&#45;13&#45;Add&#45;&gt;function&#45;10&#45;Add -->
<g id="edge37" class="edge">
<title>function&#45;13&#45;Add:s&#45;&gt;function&#45;10&#45;Add</title>
<path fill="none" stroke="black" d="M685,-253C685,-239.82 684.32,-225.09 683.6,-213.29"/>
<polygon fill="black" stroke="black" points="685.71,-215.7 683.27,-211 682.25,-216.2 685.71,-215.7"/>
</g>
<!-- function&#45;2&#45;Blt&#45;&gt;function&#45;2&#45;ImmVal -->
<g id="edge41" class="edge">
<title>function&#45;2&#45;Blt:s&#45;&gt;function&#45;2&#45;ImmVal</title>
<path fill="none" stroke="black" d="M183,-411C183,-398.8 241.38,-332.63 250,-324 262.28,-311.71 277.39,-299.73 290.42,-290.19"/>
<polygon fill="black" stroke="black" points="287.26,-293.98 290.75,-290 285.54,-290.93 287.26,-293.98"/>
</g>
<!-- function&#45;2&#45;Blt&#45;&gt;function&#45;4&#45;RegVal -->
<g id="edge39" class="edge">
<title>function&#45;2&#45;Blt:s&#45;&gt;function&#45;4&#45;RegVal</title>
<path fill="none" stroke="black" d="M164,-411C164,-397.76 165.6,-383.02 167.27,-371.24"/>
<polygon fill="black" stroke="black" points="168.07,-374.3 168.03,-369 164.76,-373.16 168.07,-374.3"/>
</g>
<!-- function&#45;2&#45;Blt&#45;&gt;function&#45;0&#45;Slli -->
<g id="edge40" class="edge">
<title>function&#45;2&#45;Blt:s&#45;&gt;function&#45;0&#45;Slli</title>
<path fill="none" stroke="black" d="M176,-411C176,-398.48 190.85,-406 203,-403 248.07,-391.86 379.91,-366.69 441.54,-355.08"/>
<polygon fill="black" stroke="black" points="439.96,-357.57 444,-354.14 438.71,-354.3 439.96,-357.57"/>
</g>
<!-- function&#45;2&#45;Bge&#45;&gt;function&#45;2&#45;ImmVal -->
<g id="edge44" class="edge">
<title>function&#45;2&#45;Bge:s&#45;&gt;function&#45;2&#45;ImmVal</title>
<path fill="none" stroke="black" d="M244,-411C244,-363.75 277.48,-317.11 300,-291.08"/>
<polygon fill="black" stroke="black" points="298.46,-294.33 301.51,-290 296.42,-291.49 298.46,-294.33"/>
</g>
<!-- function&#45;2&#45;Bge&#45;&gt;function&#45;4&#45;RegVal -->
<g id="edge43" class="edge">
<title>function&#45;2&#45;Bge:s&#45;&gt;function&#45;4&#45;RegVal</title>
<path fill="none" stroke="black" d="M235,-411C235,-391.63 219.69,-376.37 204.04,-365.84"/>
<polygon fill="black" stroke="black" points="207.98,-366.79 203,-365 205.78,-369.51 207.98,-366.79"/>
</g>
<!-- function&#45;2&#45;Bge&#45;&gt;function&#45;0&#45;Slli -->
<g id="edge42" class="edge">
<title>function&#45;2&#45;Bge:s&#45;&gt;function&#45;0&#45;Slli</title>
<path fill="none" stroke="black" d="M221,-411C221,-399.76 373.6,-368.58 441.77,-355.22"/>
<polygon fill="black" stroke="black" points="440.17,-357.86 444,-354.21 438.72,-354.67 440.17,-357.86"/>
</g>
<!-- function&#45;2&#45;Seq2&#45;&gt;function&#45;1&#45;Seq2 -->
<g id="edge45" class="edge">
<title>function&#45;2&#45;Seq2:s&#45;&gt;function&#45;1&#45;Seq2</title>
<path fill="none" stroke="black" d="M277,-411C277,-390.44 301.08,-397.47 322.13,-407.89"/>
<polygon fill="black" stroke="black" points="318.96,-407.68 324,-409.3 321.07,-404.89 318.96,-407.68"/>
</g>
<!-- function&#45;2&#45;Seq2&#45;&gt;function&#45;1&#45;Jal -->
<g id="edge46" class="edge">
<title>function&#45;2&#45;Seq2:s&#45;&gt;function&#45;1&#45;Jal</title>
<path fill="none" stroke="black" d="M299,-411C299,-397.18 303.74,-382.49 308.72,-370.89"/>
<polygon fill="black" stroke="black" points="308.78,-374.19 309.85,-369 305.78,-372.39 308.78,-374.19"/>
</g>
<!-- function&#45;1&#45;Seq2&#45;&gt;function&#45;2&#45;Blt -->
<g id="edge64" class="edge">
<title>function&#45;1&#45;Seq2:s&#45;&gt;function&#45;2&#45;Blt</title>
<path fill="none" stroke="black" d="M343,-411C343,-348.28 260.87,-353 205,-381.5 195.47,-386.36 188.04,-395.41 182.67,-404.17"/>
<polygon fill="black" stroke="black" points="183.12,-401.19 180.9,-406 185.63,-403.62 183.12,-401.19"/>
</g>
<!-- function&#45;1&#45;Seq2&#45;&gt;function&#45;1&#45;Jal -->
<g id="edge65" class="edge">
<title>function&#45;1&#45;Seq2:s&#45;&gt;function&#45;1&#45;Jal</title>
<path fill="none" stroke="black" d="M365,-411C365,-395.23 355.34,-380.76 344.98,-369.78"/>
<polygon fill="black" stroke="black" points="348.7,-369.71 343.45,-369 347.11,-372.83 348.7,-369.71"/>
</g>
<!-- function&#45;1&#45;Jal&#45;&gt;function&#45;2&#45;ImmVal -->
<g id="edge48" class="edge">
<title>function&#45;1&#45;Jal:s&#45;&gt;function&#45;2&#45;ImmVal</title>
<path fill="none" stroke="black" d="M320,-332C320,-318.84 320,-304.11 320,-292.3"/>
<polygon fill="black" stroke="black" points="321.75,-295 320,-290 318.25,-295 321.75,-295"/>
</g>
<!-- function&#45;0&#45;RegVal&#45;&gt;primitive&#45;String&#45;0 -->
<g id="edge49" class="edge">
<title>function&#45;0&#45;RegVal:s&#45;&gt;primitive&#45;String&#45;0</title>
<path fill="none" stroke="black" d="M668,-411C668,-397.84 668,-383.11 668,-371.3"/>
<polygon fill="black" stroke="black" points="669.75,-374 668,-369 666.25,-374 669.75,-374"/>
</g>
<!-- function&#45;1&#45;RegVal&#45;&gt;primitive&#45;String&#45;1 -->
<g id="edge50" class="edge">
<title>function&#45;1&#45;RegVal:s&#45;&gt;primitive&#45;String&#45;1</title>
<path fill="none" stroke="black" d="M738,-411C738,-397.84 738,-383.11 738,-371.3"/>
<polygon fill="black" stroke="black" points="739.75,-374 738,-369 736.25,-374 739.75,-374"/>
</g>
<!-- function&#45;0&#45;Add&#45;&gt;function&#45;0&#45;RegVal -->
<g id="edge52" class="edge">
<title>function&#45;0&#45;Add:s&#45;&gt;function&#45;0&#45;RegVal</title>
<path fill="none" stroke="black" d="M713,-490C713,-474.1 703.13,-459.63 692.53,-448.67"/>
<polygon fill="black" stroke="black" points="696.21,-448.32 690.92,-448 694.86,-451.54 696.21,-448.32"/>
</g>
<!-- function&#45;0&#45;Add&#45;&gt;function&#45;1&#45;RegVal -->
<g id="edge53" class="edge">
<title>function&#45;0&#45;Add:s&#45;&gt;function&#45;1&#45;RegVal</title>
<path fill="none" stroke="black" d="M731,-490C731,-476.78 732.37,-462.04 733.8,-450.25"/>
<polygon fill="black" stroke="black" points="734.74,-453.29 734.46,-448 731.38,-452.31 734.74,-453.29"/>
</g>
<!-- function&#45;3&#45;Add&#45;&gt;function&#45;0&#45;RegVal -->
<g id="edge55" class="edge">
<title>function&#45;3&#45;Add:s&#45;&gt;function&#45;0&#45;RegVal</title>
<path fill="none" stroke="black" d="M673,-490C673,-476.78 671.63,-462.04 670.2,-450.25"/>
<polygon fill="black" stroke="black" points="672.62,-452.31 669.54,-448 669.26,-453.29 672.62,-452.31"/>
</g>
<!-- function&#45;3&#45;Add&#45;&gt;function&#45;1&#45;RegVal -->
<g id="edge54" class="edge">
<title>function&#45;3&#45;Add:s&#45;&gt;function&#45;1&#45;RegVal</title>
<path fill="none" stroke="black" d="M655,-490C655,-483.36 682.68,-463.51 705.88,-448.04"/>
<polygon fill="black" stroke="black" points="701.42,-450.39 706.15,-448 700.96,-446.92 701.42,-450.39"/>
</g>
<!-- function&#45;1&#45;Bge&#45;&gt;function&#45;2&#45;ImmVal -->
<g id="edge63" class="edge">
<title>function&#45;1&#45;Bge:s&#45;&gt;function&#45;2&#45;ImmVal</title>
<path fill="none" stroke="black" d="M484,-411C484,-385.85 460.3,-390.25 443,-372 423.7,-351.64 423.04,-342.57 402,-324 387.64,-311.32 370.08,-299.37 354.91,-289.95"/>
<polygon fill="black" stroke="black" points="358.86,-291.22 354,-289.11 356.48,-293.79 358.86,-291.22"/>
</g>
<!-- function&#45;1&#45;Bge&#45;&gt;function&#45;4&#45;RegVal -->
<g id="edge61" class="edge">
<title>function&#45;1&#45;Bge:s&#45;&gt;function&#45;4&#45;RegVal</title>
<path fill="none" stroke="black" d="M461,-411C461,-400.6 449.02,-405.81 439,-403 427.73,-399.83 274.55,-369.46 204.97,-355.7"/>
<polygon fill="black" stroke="black" points="208.24,-355.45 203,-354.66 206.61,-358.55 208.24,-355.45"/>
</g>
<!-- function&#45;1&#45;Bge&#45;&gt;function&#45;0&#45;Slli -->
<g id="edge62" class="edge">
<title>function&#45;1&#45;Bge:s&#45;&gt;function&#45;0&#45;Slli</title>
<path fill="none" stroke="black" d="M475,-411C475,-397.84 474.77,-383.1 474.53,-371.3"/>
<polygon fill="black" stroke="black" points="476.41,-373.91 474.42,-369 472.91,-374.08 476.41,-373.91"/>
</g>
<!-- function&#45;1&#45;ImmVal -->
<g id="node1" class="node">
<title>function&#45;1&#45;ImmVal</title>
<g id="a_node1"><a xlink:title="Imm&#45;11: function&#45;1&#45;ImmVal">
<path fill="white" stroke="transparent" d="M24.67,-332C24.67,-332 65.33,-332 65.33,-332 70.67,-332 76,-337.33 76,-342.67 76,-342.67 76,-353.33 76,-353.33 76,-358.67 70.67,-364 65.33,-364 65.33,-364 24.67,-364 24.67,-364 19.33,-364 14,-358.67 14,-353.33 14,-353.33 14,-342.67 14,-342.67 14,-337.33 19.33,-332 24.67,-332"/>
<text text-anchor="start" x="19" y="-344.3" font-family="Helvetica,sans-Serif" font-size="14.00">ImmVal</text>
<path fill="none" stroke="black" d="M24.67,-332C24.67,-332 65.33,-332 65.33,-332 70.67,-332 76,-337.33 76,-342.67 76,-342.67 76,-353.33 76,-353.33 76,-358.67 70.67,-364 65.33,-364 65.33,-364 24.67,-364 24.67,-364 19.33,-364 14,-358.67 14,-353.33 14,-353.33 14,-342.67 14,-342.67 14,-337.33 19.33,-332 24.67,-332"/>
</a>
</g>
</g>
<!-- primitive&#45;i64&#45;0 -->
<g id="node2" class="node">
<title>primitive&#45;i64&#45;0</title>
<g id="a_node2"><a xlink:title="i64&#45;0: primitive&#45;i64&#45;0">
<path fill="white" stroke="transparent" d="M39.67,-253C39.67,-253 50.33,-253 50.33,-253 55.67,-253 61,-258.33 61,-263.67 61,-263.67 61,-274.33 61,-274.33 61,-279.67 55.67,-285 50.33,-285 50.33,-285 39.67,-285 39.67,-285 34.33,-285 29,-279.67 29,-274.33 29,-274.33 29,-263.67 29,-263.67 29,-258.33 34.33,-253 39.67,-253"/>
<text text-anchor="start" x="40" y="-265.3" font-family="Helvetica,sans-Serif" font-size="14.00">0</text>
<path fill="none" stroke="black" d="M39.67,-253C39.67,-253 50.33,-253 50.33,-253 55.67,-253 61,-258.33 61,-263.67 61,-263.67 61,-274.33 61,-274.33 61,-279.67 55.67,-285 50.33,-285 50.33,-285 39.67,-285 39.67,-285 34.33,-285 29,-279.67 29,-274.33 29,-274.33 29,-263.67 29,-263.67 29,-258.33 34.33,-253 39.67,-253"/>
</a>
</g>
</g>
<!-- function&#45;0&#45;ImmVal -->
<g id="node3" class="node">
<title>function&#45;0&#45;ImmVal</title>
<g id="a_node3"><a xlink:title="Imm&#45;9: function&#45;0&#45;ImmVal">
<path fill="white" stroke="transparent" d="M417.67,-253C417.67,-253 458.33,-253 458.33,-253 463.67,-253 469,-258.33 469,-263.67 469,-263.67 469,-274.33 469,-274.33 469,-279.67 463.67,-285 458.33,-285 458.33,-285 417.67,-285 417.67,-285 412.33,-285 407,-279.67 407,-274.33 407,-274.33 407,-263.67 407,-263.67 407,-258.33 412.33,-253 417.67,-253"/>
<text text-anchor="start" x="412" y="-265.3" font-family="Helvetica,sans-Serif" font-size="14.00">ImmVal</text>
<path fill="none" stroke="black" d="M417.67,-253C417.67,-253 458.33,-253 458.33,-253 463.67,-253 469,-258.33 469,-263.67 469,-263.67 469,-274.33 469,-274.33 469,-279.67 463.67,-285 458.33,-285 458.33,-285 417.67,-285 417.67,-285 412.33,-285 407,-279.67 407,-274.33 407,-274.33 407,-263.67 407,-263.67 407,-258.33 412.33,-253 417.67,-253"/>
</a>
</g>
</g>
<!-- primitive&#45;i64&#45;8 -->
<g id="node4" class="node">
<title>primitive&#45;i64&#45;8</title>
<g id="a_node4"><a xlink:title="i64&#45;8: primitive&#45;i64&#45;8">
<path fill="white" stroke="transparent" d="M406.67,-174C406.67,-174 417.33,-174 417.33,-174 422.67,-174 428,-179.33 428,-184.67 428,-184.67 428,-195.33 428,-195.33 428,-200.67 422.67,-206 417.33,-206 417.33,-206 406.67,-206 406.67,-206 401.33,-206 396,-200.67 396,-195.33 396,-195.33 396,-184.67 396,-184.67 396,-179.33 401.33,-174 406.67,-174"/>
<text text-anchor="start" x="407" y="-186.3" font-family="Helvetica,sans-Serif" font-size="14.00">8</text>
<path fill="none" stroke="black" d="M406.67,-174C406.67,-174 417.33,-174 417.33,-174 422.67,-174 428,-179.33 428,-184.67 428,-184.67 428,-195.33 428,-195.33 428,-200.67 422.67,-206 417.33,-206 417.33,-206 406.67,-206 406.67,-206 401.33,-206 396,-200.67 396,-195.33 396,-195.33 396,-184.67 396,-184.67 396,-179.33 401.33,-174 406.67,-174"/>
</a>
</g>
</g>
<!-- function&#45;2&#45;ImmVal -->
<g id="node5" class="node">
<title>function&#45;2&#45;ImmVal</title>
<g id="a_node5"><a xlink:title="Imm&#45;14: function&#45;2&#45;ImmVal">
<path fill="white" stroke="transparent" d="M299.67,-253C299.67,-253 340.33,-253 340.33,-253 345.67,-253 351,-258.33 351,-263.67 351,-263.67 351,-274.33 351,-274.33 351,-279.67 345.67,-285 340.33,-285 340.33,-285 299.67,-285 299.67,-285 294.33,-285 289,-279.67 289,-274.33 289,-274.33 289,-263.67 289,-263.67 289,-258.33 294.33,-253 299.67,-253"/>
<text text-anchor="start" x="294" y="-265.3" font-family="Helvetica,sans-Serif" font-size="14.00">ImmVal</text>
<path fill="none" stroke="black" d="M299.67,-253C299.67,-253 340.33,-253 340.33,-253 345.67,-253 351,-258.33 351,-263.67 351,-263.67 351,-274.33 351,-274.33 351,-279.67 345.67,-285 340.33,-285 340.33,-285 299.67,-285 299.67,-285 294.33,-285 289,-279.67 289,-274.33 289,-274.33 289,-263.67 289,-263.67 289,-258.33 294.33,-253 299.67,-253"/>
</a>
</g>
</g>
<!-- primitive&#45;i64&#45;4 -->
<g id="node6" class="node">
<title>primitive&#45;i64&#45;4</title>
<g id="a_node6"><a xlink:title="i64&#45;4: primitive&#45;i64&#45;4">
<path fill="white" stroke="transparent" d="M314.67,-174C314.67,-174 325.33,-174 325.33,-174 330.67,-174 336,-179.33 336,-184.67 336,-184.67 336,-195.33 336,-195.33 336,-200.67 330.67,-206 325.33,-206 325.33,-206 314.67,-206 314.67,-206 309.33,-206 304,-200.67 304,-195.33 304,-195.33 304,-184.67 304,-184.67 304,-179.33 309.33,-174 314.67,-174"/>
<text text-anchor="start" x="315" y="-186.3" font-family="Helvetica,sans-Serif" font-size="14.00">4</text>
<path fill="none" stroke="black" d="M314.67,-174C314.67,-174 325.33,-174 325.33,-174 330.67,-174 336,-179.33 336,-184.67 336,-184.67 336,-195.33 336,-195.33 336,-200.67 330.67,-206 325.33,-206 325.33,-206 314.67,-206 314.67,-206 309.33,-206 304,-200.67 304,-195.33 304,-195.33 304,-184.67 304,-184.67 304,-179.33 309.33,-174 314.67,-174"/>
</a>
</g>
</g>
<!-- function&#45;1&#45;Blt -->
<g id="node7" class="node">
<title>function&#45;1&#45;Blt</title>
<g id="a_node7"><a xlink:title="Inst&#45;12: function&#45;1&#45;Blt">
<path fill="white" stroke="transparent" d="M80.67,-490C80.67,-490 91.33,-490 91.33,-490 96.67,-490 102,-495.33 102,-500.67 102,-500.67 102,-511.33 102,-511.33 102,-516.67 96.67,-522 91.33,-522 91.33,-522 80.67,-522 80.67,-522 75.33,-522 70,-516.67 70,-511.33 70,-511.33 70,-500.67 70,-500.67 70,-495.33 75.33,-490 80.67,-490"/>
<text text-anchor="start" x="76.5" y="-502.3" font-family="Helvetica,sans-Serif" font-size="14.00">Blt</text>
<path fill="none" stroke="black" d="M80.67,-490C80.67,-490 91.33,-490 91.33,-490 96.67,-490 102,-495.33 102,-500.67 102,-500.67 102,-511.33 102,-511.33 102,-516.67 96.67,-522 91.33,-522 91.33,-522 80.67,-522 80.67,-522 75.33,-522 70,-516.67 70,-511.33 70,-511.33 70,-500.67 70,-500.67 70,-495.33 75.33,-490 80.67,-490"/>
</a>
</g>
</g>
<!-- function&#45;4&#45;RegVal -->
<g id="node8" class="node">
<title>function&#45;4&#45;RegVal</title>
<g id="a_node8"><a xlink:title="Inst&#45;4: function&#45;4&#45;RegVal">
<path fill="white" stroke="transparent" d="M153.17,-332C153.17,-332 188.83,-332 188.83,-332 194.17,-332 199.5,-337.33 199.5,-342.67 199.5,-342.67 199.5,-353.33 199.5,-353.33 199.5,-358.67 194.17,-364 188.83,-364 188.83,-364 153.17,-364 153.17,-364 147.83,-364 142.5,-358.67 142.5,-353.33 142.5,-353.33 142.5,-342.67 142.5,-342.67 142.5,-337.33 147.83,-332 153.17,-332"/>
<text text-anchor="start" x="148" y="-344.3" font-family="Helvetica,sans-Serif" font-size="14.00">RegVal</text>
<path fill="none" stroke="black" d="M153.17,-332C153.17,-332 188.83,-332 188.83,-332 194.17,-332 199.5,-337.33 199.5,-342.67 199.5,-342.67 199.5,-353.33 199.5,-353.33 199.5,-358.67 194.17,-364 188.83,-364 188.83,-364 153.17,-364 153.17,-364 147.83,-364 142.5,-358.67 142.5,-353.33 142.5,-353.33 142.5,-342.67 142.5,-342.67 142.5,-337.33 147.83,-332 153.17,-332"/>
</a>
</g>
</g>
<!-- function&#45;0&#45;Slli -->
<g id="node9" class="node">
<title>function&#45;0&#45;Slli</title>
<g id="a_node9"><a xlink:title="Inst&#45;10: function&#45;0&#45;Slli">
<path fill="white" stroke="transparent" d="M468.67,-332C468.67,-332 479.33,-332 479.33,-332 484.67,-332 490,-337.33 490,-342.67 490,-342.67 490,-353.33 490,-353.33 490,-358.67 484.67,-364 479.33,-364 479.33,-364 468.67,-364 468.67,-364 463.33,-364 458,-358.67 458,-353.33 458,-353.33 458,-342.67 458,-342.67 458,-337.33 463.33,-332 468.67,-332"/>
<text text-anchor="start" x="463.5" y="-344.3" font-family="Helvetica,sans-Serif" font-size="14.00">Slli</text>
<path fill="none" stroke="black" d="M468.67,-332C468.67,-332 479.33,-332 479.33,-332 484.67,-332 490,-337.33 490,-342.67 490,-342.67 490,-353.33 490,-353.33 490,-358.67 484.67,-364 479.33,-364 479.33,-364 468.67,-364 468.67,-364 463.33,-364 458,-358.67 458,-353.33 458,-353.33 458,-342.67 458,-342.67 458,-337.33 463.33,-332 468.67,-332"/>
</a>
</g>
</g>
<!-- function&#45;0&#45;Bge -->
<g id="node10" class="node">
<title>function&#45;0&#45;Bge</title>
<g id="a_node10"><a xlink:title="Inst&#45;12: function&#45;0&#45;Bge">
<path fill="white" stroke="transparent" d="M193.67,-490C193.67,-490 210.33,-490 210.33,-490 215.67,-490 221,-495.33 221,-500.67 221,-500.67 221,-511.33 221,-511.33 221,-516.67 215.67,-522 210.33,-522 210.33,-522 193.67,-522 193.67,-522 188.33,-522 183,-516.67 183,-511.33 183,-511.33 183,-500.67 183,-500.67 183,-495.33 188.33,-490 193.67,-490"/>
<text text-anchor="start" x="188" y="-502.3" font-family="Helvetica,sans-Serif" font-size="14.00">Bge</text>
<path fill="none" stroke="black" d="M193.67,-490C193.67,-490 210.33,-490 210.33,-490 215.67,-490 221,-495.33 221,-500.67 221,-500.67 221,-511.33 221,-511.33 221,-516.67 215.67,-522 210.33,-522 210.33,-522 193.67,-522 193.67,-522 188.33,-522 183,-516.67 183,-511.33 183,-511.33 183,-500.67 183,-500.67 183,-495.33 188.33,-490 193.67,-490"/>
</a>
</g>
</g>
<!-- function&#45;0&#45;Seq2 -->
<g id="node11" class="node">
<title>function&#45;0&#45;Seq2</title>
<g id="a_node11"><a xlink:title="Inst&#45;12: function&#45;0&#45;Seq2">
<path fill="white" stroke="transparent" d="M131.67,-490C131.67,-490 156.33,-490 156.33,-490 161.67,-490 167,-495.33 167,-500.67 167,-500.67 167,-511.33 167,-511.33 167,-516.67 161.67,-522 156.33,-522 156.33,-522 131.67,-522 131.67,-522 126.33,-522 121,-516.67 121,-511.33 121,-511.33 121,-500.67 121,-500.67 121,-495.33 126.33,-490 131.67,-490"/>
<text text-anchor="start" x="126" y="-502.3" font-family="Helvetica,sans-Serif" font-size="14.00">Seq2</text>
<path fill="none" stroke="black" d="M131.67,-490C131.67,-490 156.33,-490 156.33,-490 161.67,-490 167,-495.33 167,-500.67 167,-500.67 167,-511.33 167,-511.33 167,-516.67 161.67,-522 156.33,-522 156.33,-522 131.67,-522 131.67,-522 126.33,-522 121,-516.67 121,-511.33 121,-511.33 121,-500.67 121,-500.67 121,-495.33 126.33,-490 131.67,-490"/>
</a>
</g>
</g>
<!-- function&#45;0&#45;Blt -->
<g id="node12" class="node">
<title>function&#45;0&#45;Blt</title>
<g id="a_node12"><a xlink:title="Inst&#45;15: function&#45;0&#45;Blt">
<path fill="white" stroke="transparent" d="M406.67,-411C406.67,-411 417.33,-411 417.33,-411 422.67,-411 428,-416.33 428,-421.67 428,-421.67 428,-432.33 428,-432.33 428,-437.67 422.67,-443 417.33,-443 417.33,-443 406.67,-443 406.67,-443 401.33,-443 396,-437.67 396,-432.33 396,-432.33 396,-421.67 396,-421.67 396,-416.33 401.33,-411 406.67,-411"/>
<text text-anchor="start" x="402.5" y="-423.3" font-family="Helvetica,sans-Serif" font-size="14.00">Blt</text>
<path fill="none" stroke="black" d="M406.67,-411C406.67,-411 417.33,-411 417.33,-411 422.67,-411 428,-416.33 428,-421.67 428,-421.67 428,-432.33 428,-432.33 428,-437.67 422.67,-443 417.33,-443 417.33,-443 406.67,-443 406.67,-443 401.33,-443 396,-437.67 396,-432.33 396,-432.33 396,-421.67 396,-421.67 396,-416.33 401.33,-411 406.67,-411"/>
</a>
</g>
</g>
<!-- function&#45;0&#45;Jal -->
<g id="node13" class="node">
<title>function&#45;0&#45;Jal</title>
<g id="a_node13"><a xlink:title="Inst&#45;16: function&#45;0&#45;Jal">
<path fill="white" stroke="transparent" d="M78.67,-411C78.67,-411 89.33,-411 89.33,-411 94.67,-411 100,-416.33 100,-421.67 100,-421.67 100,-432.33 100,-432.33 100,-437.67 94.67,-443 89.33,-443 89.33,-443 78.67,-443 78.67,-443 73.33,-443 68,-437.67 68,-432.33 68,-432.33 68,-421.67 68,-421.67 68,-416.33 73.33,-411 78.67,-411"/>
<text text-anchor="start" x="75.5" y="-423.3" font-family="Helvetica,sans-Serif" font-size="14.00">Jal</text>
<path fill="none" stroke="black" d="M78.67,-411C78.67,-411 89.33,-411 89.33,-411 94.67,-411 100,-416.33 100,-421.67 100,-421.67 100,-432.33 100,-432.33 100,-437.67 94.67,-443 89.33,-443 89.33,-443 78.67,-443 78.67,-443 73.33,-443 68,-437.67 68,-432.33 68,-432.33 68,-421.67 68,-421.67 68,-416.33 73.33,-411 78.67,-411"/>
</a>
</g>
</g>
<!-- function&#45;5&#45;Add -->
<g id="node14" class="node">
<title>function&#45;5&#45;Add</title>
<g id="a_node14"><a xlink:title="Inst&#45;8: function&#45;5&#45;Add">
<path fill="white" stroke="transparent" d="M569.67,-253C569.67,-253 586.33,-253 586.33,-253 591.67,-253 597,-258.33 597,-263.67 597,-263.67 597,-274.33 597,-274.33 597,-279.67 591.67,-285 586.33,-285 586.33,-285 569.67,-285 569.67,-285 564.33,-285 559,-279.67 559,-274.33 559,-274.33 559,-263.67 559,-263.67 559,-258.33 564.33,-253 569.67,-253"/>
<text text-anchor="start" x="564" y="-265.3" font-family="Helvetica,sans-Serif" font-size="14.00">Add</text>
<path fill="none" stroke="black" d="M569.67,-253C569.67,-253 586.33,-253 586.33,-253 591.67,-253 597,-258.33 597,-263.67 597,-263.67 597,-274.33 597,-274.33 597,-279.67 591.67,-285 586.33,-285 586.33,-285 569.67,-285 569.67,-285 564.33,-285 559,-279.67 559,-274.33 559,-274.33 559,-263.67 559,-263.67 559,-258.33 564.33,-253 569.67,-253"/>
</a>
</g>
</g>
<!-- function&#45;3&#45;RegVal -->
<g id="node15" class="node">
<title>function&#45;3&#45;RegVal</title>
<g id="a_node15"><a xlink:title="Inst&#45;3: function&#45;3&#45;RegVal">
<path fill="white" stroke="transparent" d="M708.17,-95C708.17,-95 743.83,-95 743.83,-95 749.17,-95 754.5,-100.33 754.5,-105.67 754.5,-105.67 754.5,-116.33 754.5,-116.33 754.5,-121.67 749.17,-127 743.83,-127 743.83,-127 708.17,-127 708.17,-127 702.83,-127 697.5,-121.67 697.5,-116.33 697.5,-116.33 697.5,-105.67 697.5,-105.67 697.5,-100.33 702.83,-95 708.17,-95"/>
<text text-anchor="start" x="703" y="-107.3" font-family="Helvetica,sans-Serif" font-size="14.00">RegVal</text>
<path fill="none" stroke="black" d="M708.17,-95C708.17,-95 743.83,-95 743.83,-95 749.17,-95 754.5,-100.33 754.5,-105.67 754.5,-105.67 754.5,-116.33 754.5,-116.33 754.5,-121.67 749.17,-127 743.83,-127 743.83,-127 708.17,-127 708.17,-127 702.83,-127 697.5,-121.67 697.5,-116.33 697.5,-116.33 697.5,-105.67 697.5,-105.67 697.5,-100.33 702.83,-95 708.17,-95"/>
</a>
</g>
</g>
<!-- primitive&#45;String&#45;3 -->
<g id="node16" class="node">
<title>primitive&#45;String&#45;3</title>
<g id="a_node16"><a xlink:title="String&#45;3: primitive&#45;String&#45;3">
<path fill="white" stroke="transparent" d="M709.17,-16C709.17,-16 744.83,-16 744.83,-16 750.17,-16 755.5,-21.33 755.5,-26.67 755.5,-26.67 755.5,-37.33 755.5,-37.33 755.5,-42.67 750.17,-48 744.83,-48 744.83,-48 709.17,-48 709.17,-48 703.83,-48 698.5,-42.67 698.5,-37.33 698.5,-37.33 698.5,-26.67 698.5,-26.67 698.5,-21.33 703.83,-16 709.17,-16"/>
<text text-anchor="start" x="704" y="-28.3" font-family="Helvetica,sans-Serif" font-size="14.00">&quot;a6_0&quot;</text>
<path fill="none" stroke="black" d="M709.17,-16C709.17,-16 744.83,-16 744.83,-16 750.17,-16 755.5,-21.33 755.5,-26.67 755.5,-26.67 755.5,-37.33 755.5,-37.33 755.5,-42.67 750.17,-48 744.83,-48 744.83,-48 709.17,-48 709.17,-48 703.83,-48 698.5,-42.67 698.5,-37.33 698.5,-37.33 698.5,-26.67 698.5,-26.67 698.5,-21.33 703.83,-16 709.17,-16"/>
</a>
</g>
</g>
<!-- function&#45;6&#45;Add -->
<g id="node17" class="node">
<title>function&#45;6&#45;Add</title>
<g id="a_node17"><a xlink:title="Inst&#45;13: function&#45;6&#45;Add">
<path fill="white" stroke="transparent" d="M549.67,-174C549.67,-174 566.33,-174 566.33,-174 571.67,-174 577,-179.33 577,-184.67 577,-184.67 577,-195.33 577,-195.33 577,-200.67 571.67,-206 566.33,-206 566.33,-206 549.67,-206 549.67,-206 544.33,-206 539,-200.67 539,-195.33 539,-195.33 539,-184.67 539,-184.67 539,-179.33 544.33,-174 549.67,-174"/>
<text text-anchor="start" x="544" y="-186.3" font-family="Helvetica,sans-Serif" font-size="14.00">Add</text>
<path fill="none" stroke="black" d="M549.67,-174C549.67,-174 566.33,-174 566.33,-174 571.67,-174 577,-179.33 577,-184.67 577,-184.67 577,-195.33 577,-195.33 577,-200.67 571.67,-206 566.33,-206 566.33,-206 549.67,-206 549.67,-206 544.33,-206 539,-200.67 539,-195.33 539,-195.33 539,-184.67 539,-184.67 539,-179.33 544.33,-174 549.67,-174"/>
</a>
</g>
</g>
<!-- function&#45;5&#45;RegVal -->
<g id="node18" class="node">
<title>function&#45;5&#45;RegVal</title>
<g id="a_node18"><a xlink:title="Inst&#45;7: function&#45;5&#45;RegVal">
<path fill="white" stroke="transparent" d="M511.17,-95C511.17,-95 546.83,-95 546.83,-95 552.17,-95 557.5,-100.33 557.5,-105.67 557.5,-105.67 557.5,-116.33 557.5,-116.33 557.5,-121.67 552.17,-127 546.83,-127 546.83,-127 511.17,-127 511.17,-127 505.83,-127 500.5,-121.67 500.5,-116.33 500.5,-116.33 500.5,-105.67 500.5,-105.67 500.5,-100.33 505.83,-95 511.17,-95"/>
<text text-anchor="start" x="506" y="-107.3" font-family="Helvetica,sans-Serif" font-size="14.00">RegVal</text>
<path fill="none" stroke="black" d="M511.17,-95C511.17,-95 546.83,-95 546.83,-95 552.17,-95 557.5,-100.33 557.5,-105.67 557.5,-105.67 557.5,-116.33 557.5,-116.33 557.5,-121.67 552.17,-127 546.83,-127 546.83,-127 511.17,-127 511.17,-127 505.83,-127 500.5,-121.67 500.5,-116.33 500.5,-116.33 500.5,-105.67 500.5,-105.67 500.5,-100.33 505.83,-95 511.17,-95"/>
</a>
</g>
</g>
<!-- function&#45;8&#45;Add -->
<g id="node19" class="node">
<title>function&#45;8&#45;Add</title>
<g id="a_node19"><a xlink:title="Inst&#45;13: function&#45;8&#45;Add">
<path fill="white" stroke="transparent" d="M491.67,-174C491.67,-174 508.33,-174 508.33,-174 513.67,-174 519,-179.33 519,-184.67 519,-184.67 519,-195.33 519,-195.33 519,-200.67 513.67,-206 508.33,-206 508.33,-206 491.67,-206 491.67,-206 486.33,-206 481,-200.67 481,-195.33 481,-195.33 481,-184.67 481,-184.67 481,-179.33 486.33,-174 491.67,-174"/>
<text text-anchor="start" x="486" y="-186.3" font-family="Helvetica,sans-Serif" font-size="14.00">Add</text>
<path fill="none" stroke="black" d="M491.67,-174C491.67,-174 508.33,-174 508.33,-174 513.67,-174 519,-179.33 519,-184.67 519,-184.67 519,-195.33 519,-195.33 519,-200.67 513.67,-206 508.33,-206 508.33,-206 491.67,-206 491.67,-206 486.33,-206 481,-200.67 481,-195.33 481,-195.33 481,-184.67 481,-184.67 481,-179.33 486.33,-174 491.67,-174"/>
</a>
</g>
</g>
<!-- function&#45;10&#45;Add -->
<g id="node20" class="node">
<title>function&#45;10&#45;Add</title>
<g id="a_node20"><a xlink:title="Inst&#45;17: function&#45;10&#45;Add">
<path fill="white" stroke="transparent" d="M673.67,-174C673.67,-174 690.33,-174 690.33,-174 695.67,-174 701,-179.33 701,-184.67 701,-184.67 701,-195.33 701,-195.33 701,-200.67 695.67,-206 690.33,-206 690.33,-206 673.67,-206 673.67,-206 668.33,-206 663,-200.67 663,-195.33 663,-195.33 663,-184.67 663,-184.67 663,-179.33 668.33,-174 673.67,-174"/>
<text text-anchor="start" x="668" y="-186.3" font-family="Helvetica,sans-Serif" font-size="14.00">Add</text>
<path fill="none" stroke="black" d="M673.67,-174C673.67,-174 690.33,-174 690.33,-174 695.67,-174 701,-179.33 701,-184.67 701,-184.67 701,-195.33 701,-195.33 701,-200.67 695.67,-206 690.33,-206 690.33,-206 673.67,-206 673.67,-206 668.33,-206 663,-200.67 663,-195.33 663,-195.33 663,-184.67 663,-184.67 663,-179.33 668.33,-174 673.67,-174"/>
</a>
</g>
</g>
<!-- function&#45;2&#45;RegVal -->
<g id="node21" class="node">
<title>function&#45;2&#45;RegVal</title>
<g id="a_node21"><a xlink:title="Inst&#45;2: function&#45;2&#45;RegVal">
<path fill="white" stroke="transparent" d="M792.17,-95C792.17,-95 827.83,-95 827.83,-95 833.17,-95 838.5,-100.33 838.5,-105.67 838.5,-105.67 838.5,-116.33 838.5,-116.33 838.5,-121.67 833.17,-127 827.83,-127 827.83,-127 792.17,-127 792.17,-127 786.83,-127 781.5,-121.67 781.5,-116.33 781.5,-116.33 781.5,-105.67 781.5,-105.67 781.5,-100.33 786.83,-95 792.17,-95"/>
<text text-anchor="start" x="787" y="-107.3" font-family="Helvetica,sans-Serif" font-size="14.00">RegVal</text>
<path fill="none" stroke="black" d="M792.17,-95C792.17,-95 827.83,-95 827.83,-95 833.17,-95 838.5,-100.33 838.5,-105.67 838.5,-105.67 838.5,-116.33 838.5,-116.33 838.5,-121.67 833.17,-127 827.83,-127 827.83,-127 792.17,-127 792.17,-127 786.83,-127 781.5,-121.67 781.5,-116.33 781.5,-116.33 781.5,-105.67 781.5,-105.67 781.5,-100.33 786.83,-95 792.17,-95"/>
</a>
</g>
</g>
<!-- function&#45;12&#45;Add -->
<g id="node22" class="node">
<title>function&#45;12&#45;Add</title>
<g id="a_node22"><a xlink:title="Inst&#45;17: function&#45;12&#45;Add">
<path fill="white" stroke="transparent" d="M615.67,-174C615.67,-174 632.33,-174 632.33,-174 637.67,-174 643,-179.33 643,-184.67 643,-184.67 643,-195.33 643,-195.33 643,-200.67 637.67,-206 632.33,-206 632.33,-206 615.67,-206 615.67,-206 610.33,-206 605,-200.67 605,-195.33 605,-195.33 605,-184.67 605,-184.67 605,-179.33 610.33,-174 615.67,-174"/>
<text text-anchor="start" x="610" y="-186.3" font-family="Helvetica,sans-Serif" font-size="14.00">Add</text>
<path fill="none" stroke="black" d="M615.67,-174C615.67,-174 632.33,-174 632.33,-174 637.67,-174 643,-179.33 643,-184.67 643,-184.67 643,-195.33 643,-195.33 643,-200.67 637.67,-206 632.33,-206 632.33,-206 615.67,-206 615.67,-206 610.33,-206 605,-200.67 605,-195.33 605,-195.33 605,-184.67 605,-184.67 605,-179.33 610.33,-174 615.67,-174"/>
</a>
</g>
</g>
<!-- function&#45;1&#45;Add -->
<g id="node23" class="node">
<title>function&#45;1&#45;Add</title>
<g id="a_node23"><a xlink:title="Inst&#45;6: function&#45;1&#45;Add">
<path fill="white" stroke="transparent" d="M819.67,-174C819.67,-174 836.33,-174 836.33,-174 841.67,-174 847,-179.33 847,-184.67 847,-184.67 847,-195.33 847,-195.33 847,-200.67 841.67,-206 836.33,-206 836.33,-206 819.67,-206 819.67,-206 814.33,-206 809,-200.67 809,-195.33 809,-195.33 809,-184.67 809,-184.67 809,-179.33 814.33,-174 819.67,-174"/>
<text text-anchor="start" x="814" y="-186.3" font-family="Helvetica,sans-Serif" font-size="14.00">Add</text>
<path fill="none" stroke="black" d="M819.67,-174C819.67,-174 836.33,-174 836.33,-174 841.67,-174 847,-179.33 847,-184.67 847,-184.67 847,-195.33 847,-195.33 847,-200.67 841.67,-206 836.33,-206 836.33,-206 819.67,-206 819.67,-206 814.33,-206 809,-200.67 809,-195.33 809,-195.33 809,-184.67 809,-184.67 809,-179.33 814.33,-174 819.67,-174"/>
</a>
</g>
</g>
<!-- function&#45;4&#45;Add -->
<g id="node24" class="node">
<title>function&#45;4&#45;Add</title>
<g id="a_node24"><a xlink:title="Inst&#45;6: function&#45;4&#45;Add">
<path fill="white" stroke="transparent" d="M761.67,-174C761.67,-174 778.33,-174 778.33,-174 783.67,-174 789,-179.33 789,-184.67 789,-184.67 789,-195.33 789,-195.33 789,-200.67 783.67,-206 778.33,-206 778.33,-206 761.67,-206 761.67,-206 756.33,-206 751,-200.67 751,-195.33 751,-195.33 751,-184.67 751,-184.67 751,-179.33 756.33,-174 761.67,-174"/>
<text text-anchor="start" x="756" y="-186.3" font-family="Helvetica,sans-Serif" font-size="14.00">Add</text>
<path fill="none" stroke="black" d="M761.67,-174C761.67,-174 778.33,-174 778.33,-174 783.67,-174 789,-179.33 789,-184.67 789,-184.67 789,-195.33 789,-195.33 789,-200.67 783.67,-206 778.33,-206 778.33,-206 761.67,-206 761.67,-206 756.33,-206 751,-200.67 751,-195.33 751,-195.33 751,-184.67 751,-184.67 751,-179.33 756.33,-174 761.67,-174"/>
</a>
</g>
</g>
<!-- function&#45;2&#45;Add -->
<g id="node25" class="node">
<title>function&#45;2&#45;Add</title>
<g id="a_node25"><a xlink:title="Inst&#45;8: function&#45;2&#45;Add">
<path fill="white" stroke="transparent" d="M743.67,-253C743.67,-253 760.33,-253 760.33,-253 765.67,-253 771,-258.33 771,-263.67 771,-263.67 771,-274.33 771,-274.33 771,-279.67 765.67,-285 760.33,-285 760.33,-285 743.67,-285 743.67,-285 738.33,-285 733,-279.67 733,-274.33 733,-274.33 733,-263.67 733,-263.67 733,-258.33 738.33,-253 743.67,-253"/>
<text text-anchor="start" x="738" y="-265.3" font-family="Helvetica,sans-Serif" font-size="14.00">Add</text>
<path fill="none" stroke="black" d="M743.67,-253C743.67,-253 760.33,-253 760.33,-253 765.67,-253 771,-258.33 771,-263.67 771,-263.67 771,-274.33 771,-274.33 771,-279.67 765.67,-285 760.33,-285 760.33,-285 743.67,-285 743.67,-285 738.33,-285 733,-279.67 733,-274.33 733,-274.33 733,-263.67 733,-263.67 733,-258.33 738.33,-253 743.67,-253"/>
</a>
</g>
</g>
<!-- function&#45;7&#45;Add -->
<g id="node26" class="node">
<title>function&#45;7&#45;Add</title>
<g id="a_node26"><a xlink:title="Inst&#45;8: function&#45;7&#45;Add">
<path fill="white" stroke="transparent" d="M801.67,-253C801.67,-253 818.33,-253 818.33,-253 823.67,-253 829,-258.33 829,-263.67 829,-263.67 829,-274.33 829,-274.33 829,-279.67 823.67,-285 818.33,-285 818.33,-285 801.67,-285 801.67,-285 796.33,-285 791,-279.67 791,-274.33 791,-274.33 791,-263.67 791,-263.67 791,-258.33 796.33,-253 801.67,-253"/>
<text text-anchor="start" x="796" y="-265.3" font-family="Helvetica,sans-Serif" font-size="14.00">Add</text>
<path fill="none" stroke="black" d="M801.67,-253C801.67,-253 818.33,-253 818.33,-253 823.67,-253 829,-258.33 829,-263.67 829,-263.67 829,-274.33 829,-274.33 829,-279.67 823.67,-285 818.33,-285 818.33,-285 801.67,-285 801.67,-285 796.33,-285 791,-279.67 791,-274.33 791,-274.33 791,-263.67 791,-263.67 791,-258.33 796.33,-253 801.67,-253"/>
</a>
</g>
</g>
<!-- function&#45;9&#45;Add -->
<g id="node27" class="node">
<title>function&#45;9&#45;Add</title>
<g id="a_node27"><a xlink:title="Inst&#45;8: function&#45;9&#45;Add">
<path fill="white" stroke="transparent" d="M859.67,-253C859.67,-253 876.33,-253 876.33,-253 881.67,-253 887,-258.33 887,-263.67 887,-263.67 887,-274.33 887,-274.33 887,-279.67 881.67,-285 876.33,-285 876.33,-285 859.67,-285 859.67,-285 854.33,-285 849,-279.67 849,-274.33 849,-274.33 849,-263.67 849,-263.67 849,-258.33 854.33,-253 859.67,-253"/>
<text text-anchor="start" x="854" y="-265.3" font-family="Helvetica,sans-Serif" font-size="14.00">Add</text>
<path fill="none" stroke="black" d="M859.67,-253C859.67,-253 876.33,-253 876.33,-253 881.67,-253 887,-258.33 887,-263.67 887,-263.67 887,-274.33 887,-274.33 887,-279.67 881.67,-285 876.33,-285 876.33,-285 859.67,-285 859.67,-285 854.33,-285 849,-279.67 849,-274.33 849,-274.33 849,-263.67 849,-263.67 849,-258.33 854.33,-253 859.67,-253"/>
</a>
</g>
</g>
<!-- function&#45;11&#45;Add -->
<g id="node28" class="node">
<title>function&#45;11&#45;Add</title>
<g id="a_node28"><a xlink:title="Inst&#45;8: function&#45;11&#45;Add">
<path fill="white" stroke="transparent" d="M627.67,-253C627.67,-253 644.33,-253 644.33,-253 649.67,-253 655,-258.33 655,-263.67 655,-263.67 655,-274.33 655,-274.33 655,-279.67 649.67,-285 644.33,-285 644.33,-285 627.67,-285 627.67,-285 622.33,-285 617,-279.67 617,-274.33 617,-274.33 617,-263.67 617,-263.67 617,-258.33 622.33,-253 627.67,-253"/>
<text text-anchor="start" x="622" y="-265.3" font-family="Helvetica,sans-Serif" font-size="14.00">Add</text>
<path fill="none" stroke="black" d="M627.67,-253C627.67,-253 644.33,-253 644.33,-253 649.67,-253 655,-258.33 655,-263.67 655,-263.67 655,-274.33 655,-274.33 655,-279.67 649.67,-285 644.33,-285 644.33,-285 627.67,-285 627.67,-285 622.33,-285 617,-279.67 617,-274.33 617,-274.33 617,-263.67 617,-263.67 617,-258.33 622.33,-253 627.67,-253"/>
</a>
</g>
</g>
<!-- function&#45;13&#45;Add -->
<g id="node29" class="node">
<title>function&#45;13&#45;Add</title>
<g id="a_node29"><a xlink:title="Inst&#45;8: function&#45;13&#45;Add">
<path fill="white" stroke="transparent" d="M685.67,-253C685.67,-253 702.33,-253 702.33,-253 707.67,-253 713,-258.33 713,-263.67 713,-263.67 713,-274.33 713,-274.33 713,-279.67 707.67,-285 702.33,-285 702.33,-285 685.67,-285 685.67,-285 680.33,-285 675,-279.67 675,-274.33 675,-274.33 675,-263.67 675,-263.67 675,-258.33 680.33,-253 685.67,-253"/>
<text text-anchor="start" x="680" y="-265.3" font-family="Helvetica,sans-Serif" font-size="14.00">Add</text>
<path fill="none" stroke="black" d="M685.67,-253C685.67,-253 702.33,-253 702.33,-253 707.67,-253 713,-258.33 713,-263.67 713,-263.67 713,-274.33 713,-274.33 713,-279.67 707.67,-285 702.33,-285 702.33,-285 685.67,-285 685.67,-285 680.33,-285 675,-279.67 675,-274.33 675,-274.33 675,-263.67 675,-263.67 675,-258.33 680.33,-253 685.67,-253"/>
</a>
</g>
</g>
<!-- function&#45;2&#45;Blt -->
<g id="node30" class="node">
<title>function&#45;2&#45;Blt</title>
<g id="a_node30"><a xlink:title="Inst&#45;18: function&#45;2&#45;Blt">
<path fill="white" stroke="transparent" d="M166.67,-411C166.67,-411 177.33,-411 177.33,-411 182.67,-411 188,-416.33 188,-421.67 188,-421.67 188,-432.33 188,-432.33 188,-437.67 182.67,-443 177.33,-443 177.33,-443 166.67,-443 166.67,-443 161.33,-443 156,-437.67 156,-432.33 156,-432.33 156,-421.67 156,-421.67 156,-416.33 161.33,-411 166.67,-411"/>
<text text-anchor="start" x="162.5" y="-423.3" font-family="Helvetica,sans-Serif" font-size="14.00">Blt</text>
<path fill="none" stroke="black" d="M166.67,-411C166.67,-411 177.33,-411 177.33,-411 182.67,-411 188,-416.33 188,-421.67 188,-421.67 188,-432.33 188,-432.33 188,-437.67 182.67,-443 177.33,-443 177.33,-443 166.67,-443 166.67,-443 161.33,-443 156,-437.67 156,-432.33 156,-432.33 156,-421.67 156,-421.67 156,-416.33 161.33,-411 166.67,-411"/>
</a>
</g>
</g>
<!-- function&#45;2&#45;Bge -->
<g id="node31" class="node">
<title>function&#45;2&#45;Bge</title>
<g id="a_node31"><a xlink:title="Inst&#45;18: function&#45;2&#45;Bge">
<path fill="white" stroke="transparent" d="M221.67,-411C221.67,-411 238.33,-411 238.33,-411 243.67,-411 249,-416.33 249,-421.67 249,-421.67 249,-432.33 249,-432.33 249,-437.67 243.67,-443 238.33,-443 238.33,-443 221.67,-443 221.67,-443 216.33,-443 211,-437.67 211,-432.33 211,-432.33 211,-421.67 211,-421.67 211,-416.33 216.33,-411 221.67,-411"/>
<text text-anchor="start" x="216" y="-423.3" font-family="Helvetica,sans-Serif" font-size="14.00">Bge</text>
<path fill="none" stroke="black" d="M221.67,-411C221.67,-411 238.33,-411 238.33,-411 243.67,-411 249,-416.33 249,-421.67 249,-421.67 249,-432.33 249,-432.33 249,-437.67 243.67,-443 238.33,-443 238.33,-443 221.67,-443 221.67,-443 216.33,-443 211,-437.67 211,-432.33 211,-432.33 211,-421.67 211,-421.67 211,-416.33 216.33,-411 221.67,-411"/>
</a>
</g>
</g>
<!-- function&#45;2&#45;Seq2 -->
<g id="node32" class="node">
<title>function&#45;2&#45;Seq2</title>
<g id="a_node32"><a xlink:title="Inst&#45;18: function&#45;2&#45;Seq2">
<path fill="white" stroke="transparent" d="M275.67,-411C275.67,-411 300.33,-411 300.33,-411 305.67,-411 311,-416.33 311,-421.67 311,-421.67 311,-432.33 311,-432.33 311,-437.67 305.67,-443 300.33,-443 300.33,-443 275.67,-443 275.67,-443 270.33,-443 265,-437.67 265,-432.33 265,-432.33 265,-421.67 265,-421.67 265,-416.33 270.33,-411 275.67,-411"/>
<text text-anchor="start" x="270" y="-423.3" font-family="Helvetica,sans-Serif" font-size="14.00">Seq2</text>
<path fill="none" stroke="black" d="M275.67,-411C275.67,-411 300.33,-411 300.33,-411 305.67,-411 311,-416.33 311,-421.67 311,-421.67 311,-432.33 311,-432.33 311,-437.67 305.67,-443 300.33,-443 300.33,-443 275.67,-443 275.67,-443 270.33,-443 265,-437.67 265,-432.33 265,-432.33 265,-421.67 265,-421.67 265,-416.33 270.33,-411 275.67,-411"/>
</a>
</g>
</g>
<!-- function&#45;1&#45;Seq2 -->
<g id="node33" class="node">
<title>function&#45;1&#45;Seq2</title>
<g id="a_node33"><a xlink:title="Inst&#45;15: function&#45;1&#45;Seq2">
<path fill="white" stroke="transparent" d="M341.67,-411C341.67,-411 366.33,-411 366.33,-411 371.67,-411 377,-416.33 377,-421.67 377,-421.67 377,-432.33 377,-432.33 377,-437.67 371.67,-443 366.33,-443 366.33,-443 341.67,-443 341.67,-443 336.33,-443 331,-437.67 331,-432.33 331,-432.33 331,-421.67 331,-421.67 331,-416.33 336.33,-411 341.67,-411"/>
<text text-anchor="start" x="336" y="-423.3" font-family="Helvetica,sans-Serif" font-size="14.00">Seq2</text>
<path fill="none" stroke="black" d="M341.67,-411C341.67,-411 366.33,-411 366.33,-411 371.67,-411 377,-416.33 377,-421.67 377,-421.67 377,-432.33 377,-432.33 377,-437.67 371.67,-443 366.33,-443 366.33,-443 341.67,-443 341.67,-443 336.33,-443 331,-437.67 331,-432.33 331,-432.33 331,-421.67 331,-421.67 331,-416.33 336.33,-411 341.67,-411"/>
</a>
</g>
</g>
<!-- function&#45;1&#45;Jal -->
<g id="node34" class="node">
<title>function&#45;1&#45;Jal</title>
<g id="a_node34"><a xlink:title="Inst&#45;19: function&#45;1&#45;Jal">
<path fill="white" stroke="transparent" d="M314.67,-332C314.67,-332 325.33,-332 325.33,-332 330.67,-332 336,-337.33 336,-342.67 336,-342.67 336,-353.33 336,-353.33 336,-358.67 330.67,-364 325.33,-364 325.33,-364 314.67,-364 314.67,-364 309.33,-364 304,-358.67 304,-353.33 304,-353.33 304,-342.67 304,-342.67 304,-337.33 309.33,-332 314.67,-332"/>
<text text-anchor="start" x="311.5" y="-344.3" font-family="Helvetica,sans-Serif" font-size="14.00">Jal</text>
<path fill="none" stroke="black" d="M314.67,-332C314.67,-332 325.33,-332 325.33,-332 330.67,-332 336,-337.33 336,-342.67 336,-342.67 336,-353.33 336,-353.33 336,-358.67 330.67,-364 325.33,-364 325.33,-364 314.67,-364 314.67,-364 309.33,-364 304,-358.67 304,-353.33 304,-353.33 304,-342.67 304,-342.67 304,-337.33 309.33,-332 314.67,-332"/>
</a>
</g>
</g>
<!-- primitive&#45;String&#45;5 -->
<g id="node35" class="node">
<title>primitive&#45;String&#45;5</title>
<g id="a_node35"><a xlink:title="String&#45;5: primitive&#45;String&#45;5">
<path fill="white" stroke="transparent" d="M512.17,-16C512.17,-16 547.83,-16 547.83,-16 553.17,-16 558.5,-21.33 558.5,-26.67 558.5,-26.67 558.5,-37.33 558.5,-37.33 558.5,-42.67 553.17,-48 547.83,-48 547.83,-48 512.17,-48 512.17,-48 506.83,-48 501.5,-42.67 501.5,-37.33 501.5,-37.33 501.5,-26.67 501.5,-26.67 501.5,-21.33 506.83,-16 512.17,-16"/>
<text text-anchor="start" x="507" y="-28.3" font-family="Helvetica,sans-Serif" font-size="14.00">&quot;a0_1&quot;</text>
<path fill="none" stroke="black" d="M512.17,-16C512.17,-16 547.83,-16 547.83,-16 553.17,-16 558.5,-21.33 558.5,-26.67 558.5,-26.67 558.5,-37.33 558.5,-37.33 558.5,-42.67 553.17,-48 547.83,-48 547.83,-48 512.17,-48 512.17,-48 506.83,-48 501.5,-42.67 501.5,-37.33 501.5,-37.33 501.5,-26.67 501.5,-26.67 501.5,-21.33 506.83,-16 512.17,-16"/>
</a>
</g>
</g>
<!-- function&#45;0&#45;RegVal -->
<g id="node36" class="node">
<title>function&#45;0&#45;RegVal</title>
<g id="a_node36"><a xlink:title="Inst&#45;0: function&#45;0&#45;RegVal">
<path fill="white" stroke="transparent" d="M649.17,-411C649.17,-411 684.83,-411 684.83,-411 690.17,-411 695.5,-416.33 695.5,-421.67 695.5,-421.67 695.5,-432.33 695.5,-432.33 695.5,-437.67 690.17,-443 684.83,-443 684.83,-443 649.17,-443 649.17,-443 643.83,-443 638.5,-437.67 638.5,-432.33 638.5,-432.33 638.5,-421.67 638.5,-421.67 638.5,-416.33 643.83,-411 649.17,-411"/>
<text text-anchor="start" x="644" y="-423.3" font-family="Helvetica,sans-Serif" font-size="14.00">RegVal</text>
<path fill="none" stroke="black" d="M649.17,-411C649.17,-411 684.83,-411 684.83,-411 690.17,-411 695.5,-416.33 695.5,-421.67 695.5,-421.67 695.5,-432.33 695.5,-432.33 695.5,-437.67 690.17,-443 684.83,-443 684.83,-443 649.17,-443 649.17,-443 643.83,-443 638.5,-437.67 638.5,-432.33 638.5,-432.33 638.5,-421.67 638.5,-421.67 638.5,-416.33 643.83,-411 649.17,-411"/>
</a>
</g>
</g>
<!-- primitive&#45;String&#45;0 -->
<g id="node37" class="node">
<title>primitive&#45;String&#45;0</title>
<g id="a_node37"><a xlink:title="String&#45;0: primitive&#45;String&#45;0">
<path fill="white" stroke="transparent" d="M650.17,-332C650.17,-332 685.83,-332 685.83,-332 691.17,-332 696.5,-337.33 696.5,-342.67 696.5,-342.67 696.5,-353.33 696.5,-353.33 696.5,-358.67 691.17,-364 685.83,-364 685.83,-364 650.17,-364 650.17,-364 644.83,-364 639.5,-358.67 639.5,-353.33 639.5,-353.33 639.5,-342.67 639.5,-342.67 639.5,-337.33 644.83,-332 650.17,-332"/>
<text text-anchor="start" x="645" y="-344.3" font-family="Helvetica,sans-Serif" font-size="14.00">&quot;a0_0&quot;</text>
<path fill="none" stroke="black" d="M650.17,-332C650.17,-332 685.83,-332 685.83,-332 691.17,-332 696.5,-337.33 696.5,-342.67 696.5,-342.67 696.5,-353.33 696.5,-353.33 696.5,-358.67 691.17,-364 685.83,-364 685.83,-364 650.17,-364 650.17,-364 644.83,-364 639.5,-358.67 639.5,-353.33 639.5,-353.33 639.5,-342.67 639.5,-342.67 639.5,-337.33 644.83,-332 650.17,-332"/>
</a>
</g>
</g>
<!-- function&#45;1&#45;RegVal -->
<g id="node38" class="node">
<title>function&#45;1&#45;RegVal</title>
<g id="a_node38"><a xlink:title="Inst&#45;1: function&#45;1&#45;RegVal">
<path fill="white" stroke="transparent" d="M719.17,-411C719.17,-411 754.83,-411 754.83,-411 760.17,-411 765.5,-416.33 765.5,-421.67 765.5,-421.67 765.5,-432.33 765.5,-432.33 765.5,-437.67 760.17,-443 754.83,-443 754.83,-443 719.17,-443 719.17,-443 713.83,-443 708.5,-437.67 708.5,-432.33 708.5,-432.33 708.5,-421.67 708.5,-421.67 708.5,-416.33 713.83,-411 719.17,-411"/>
<text text-anchor="start" x="714" y="-423.3" font-family="Helvetica,sans-Serif" font-size="14.00">RegVal</text>
<path fill="none" stroke="black" d="M719.17,-411C719.17,-411 754.83,-411 754.83,-411 760.17,-411 765.5,-416.33 765.5,-421.67 765.5,-421.67 765.5,-432.33 765.5,-432.33 765.5,-437.67 760.17,-443 754.83,-443 754.83,-443 719.17,-443 719.17,-443 713.83,-443 708.5,-437.67 708.5,-432.33 708.5,-432.33 708.5,-421.67 708.5,-421.67 708.5,-416.33 713.83,-411 719.17,-411"/>
</a>
</g>
</g>
<!-- primitive&#45;String&#45;1 -->
<g id="node39" class="node">
<title>primitive&#45;String&#45;1</title>
<g id="a_node39"><a xlink:title="String&#45;1: primitive&#45;String&#45;1">
<path fill="white" stroke="transparent" d="M720.17,-332C720.17,-332 755.83,-332 755.83,-332 761.17,-332 766.5,-337.33 766.5,-342.67 766.5,-342.67 766.5,-353.33 766.5,-353.33 766.5,-358.67 761.17,-364 755.83,-364 755.83,-364 720.17,-364 720.17,-364 714.83,-364 709.5,-358.67 709.5,-353.33 709.5,-353.33 709.5,-342.67 709.5,-342.67 709.5,-337.33 714.83,-332 720.17,-332"/>
<text text-anchor="start" x="715" y="-344.3" font-family="Helvetica,sans-Serif" font-size="14.00">&quot;a2_0&quot;</text>
<path fill="none" stroke="black" d="M720.17,-332C720.17,-332 755.83,-332 755.83,-332 761.17,-332 766.5,-337.33 766.5,-342.67 766.5,-342.67 766.5,-353.33 766.5,-353.33 766.5,-358.67 761.17,-364 755.83,-364 755.83,-364 720.17,-364 720.17,-364 714.83,-364 709.5,-358.67 709.5,-353.33 709.5,-353.33 709.5,-342.67 709.5,-342.67 709.5,-337.33 714.83,-332 720.17,-332"/>
</a>
</g>
</g>
<!-- primitive&#45;String&#45;4 -->
<g id="node40" class="node">
<title>primitive&#45;String&#45;4</title>
<g id="a_node40"><a xlink:title="String&#45;4: primitive&#45;String&#45;4">
<path fill="white" stroke="transparent" d="M148.17,-253C148.17,-253 195.83,-253 195.83,-253 201.17,-253 206.5,-258.33 206.5,-263.67 206.5,-263.67 206.5,-274.33 206.5,-274.33 206.5,-279.67 201.17,-285 195.83,-285 195.83,-285 148.17,-285 148.17,-285 142.83,-285 137.5,-279.67 137.5,-274.33 137.5,-274.33 137.5,-263.67 137.5,-263.67 137.5,-258.33 142.83,-253 148.17,-253"/>
<text text-anchor="start" x="143" y="-265.3" font-family="Helvetica,sans-Serif" font-size="14.00">&quot;zero_0&quot;</text>
<path fill="none" stroke="black" d="M148.17,-253C148.17,-253 195.83,-253 195.83,-253 201.17,-253 206.5,-258.33 206.5,-263.67 206.5,-263.67 206.5,-274.33 206.5,-274.33 206.5,-279.67 201.17,-285 195.83,-285 195.83,-285 148.17,-285 148.17,-285 142.83,-285 137.5,-279.67 137.5,-274.33 137.5,-274.33 137.5,-263.67 137.5,-263.67 137.5,-258.33 142.83,-253 148.17,-253"/>
</a>
</g>
</g>
<!-- function&#45;0&#45;Add -->
<g id="node41" class="node">
<title>function&#45;0&#45;Add</title>
<g id="a_node41"><a xlink:title="Inst&#45;5: function&#45;0&#45;Add">
<path fill="white" stroke="transparent" d="M713.67,-490C713.67,-490 730.33,-490 730.33,-490 735.67,-490 741,-495.33 741,-500.67 741,-500.67 741,-511.33 741,-511.33 741,-516.67 735.67,-522 730.33,-522 730.33,-522 713.67,-522 713.67,-522 708.33,-522 703,-516.67 703,-511.33 703,-511.33 703,-500.67 703,-500.67 703,-495.33 708.33,-490 713.67,-490"/>
<text text-anchor="start" x="708" y="-502.3" font-family="Helvetica,sans-Serif" font-size="14.00">Add</text>
<path fill="none" stroke="black" d="M713.67,-490C713.67,-490 730.33,-490 730.33,-490 735.67,-490 741,-495.33 741,-500.67 741,-500.67 741,-511.33 741,-511.33 741,-516.67 735.67,-522 730.33,-522 730.33,-522 713.67,-522 713.67,-522 708.33,-522 703,-516.67 703,-511.33 703,-511.33 703,-500.67 703,-500.67 703,-495.33 708.33,-490 713.67,-490"/>
</a>
</g>
</g>
<!-- function&#45;3&#45;Add -->
<g id="node42" class="node">
<title>function&#45;3&#45;Add</title>
<g id="a_node42"><a xlink:title="Inst&#45;5: function&#45;3&#45;Add">
<path fill="white" stroke="transparent" d="M655.67,-490C655.67,-490 672.33,-490 672.33,-490 677.67,-490 683,-495.33 683,-500.67 683,-500.67 683,-511.33 683,-511.33 683,-516.67 677.67,-522 672.33,-522 672.33,-522 655.67,-522 655.67,-522 650.33,-522 645,-516.67 645,-511.33 645,-511.33 645,-500.67 645,-500.67 645,-495.33 650.33,-490 655.67,-490"/>
<text text-anchor="start" x="650" y="-502.3" font-family="Helvetica,sans-Serif" font-size="14.00">Add</text>
<path fill="none" stroke="black" d="M655.67,-490C655.67,-490 672.33,-490 672.33,-490 677.67,-490 683,-495.33 683,-500.67 683,-500.67 683,-511.33 683,-511.33 683,-516.67 677.67,-522 672.33,-522 672.33,-522 655.67,-522 655.67,-522 650.33,-522 645,-516.67 645,-511.33 645,-511.33 645,-500.67 645,-500.67 645,-495.33 650.33,-490 655.67,-490"/>
</a>
</g>
</g>
<!-- primitive&#45;String&#45;2 -->
<g id="node43" class="node">
<title>primitive&#45;String&#45;2</title>
<g id="a_node43"><a xlink:title="String&#45;2: primitive&#45;String&#45;2">
<path fill="white" stroke="transparent" d="M793.17,-16C793.17,-16 828.83,-16 828.83,-16 834.17,-16 839.5,-21.33 839.5,-26.67 839.5,-26.67 839.5,-37.33 839.5,-37.33 839.5,-42.67 834.17,-48 828.83,-48 828.83,-48 793.17,-48 793.17,-48 787.83,-48 782.5,-42.67 782.5,-37.33 782.5,-37.33 782.5,-26.67 782.5,-26.67 782.5,-21.33 787.83,-16 793.17,-16"/>
<text text-anchor="start" x="788" y="-28.3" font-family="Helvetica,sans-Serif" font-size="14.00">&quot;a5_0&quot;</text>
<path fill="none" stroke="black" d="M793.17,-16C793.17,-16 828.83,-16 828.83,-16 834.17,-16 839.5,-21.33 839.5,-26.67 839.5,-26.67 839.5,-37.33 839.5,-37.33 839.5,-42.67 834.17,-48 828.83,-48 828.83,-48 793.17,-48 793.17,-48 787.83,-48 782.5,-42.67 782.5,-37.33 782.5,-37.33 782.5,-26.67 782.5,-26.67 782.5,-21.33 787.83,-16 793.17,-16"/>
</a>
</g>
</g>
<!-- function&#45;1&#45;Bge -->
<g id="node44" class="node">
<title>function&#45;1&#45;Bge</title>
<g id="a_node44"><a xlink:title="Inst&#45;15: function&#45;1&#45;Bge">
<path fill="white" stroke="transparent" d="M461.67,-411C461.67,-411 478.33,-411 478.33,-411 483.67,-411 489,-416.33 489,-421.67 489,-421.67 489,-432.33 489,-432.33 489,-437.67 483.67,-443 478.33,-443 478.33,-443 461.67,-443 461.67,-443 456.33,-443 451,-437.67 451,-432.33 451,-432.33 451,-421.67 451,-421.67 451,-416.33 456.33,-411 461.67,-411"/>
<text text-anchor="start" x="456" y="-423.3" font-family="Helvetica,sans-Serif" font-size="14.00">Bge</text>
<path fill="none" stroke="black" d="M461.67,-411C461.67,-411 478.33,-411 478.33,-411 483.67,-411 489,-416.33 489,-421.67 489,-421.67 489,-432.33 489,-432.33 489,-437.67 483.67,-443 478.33,-443 478.33,-443 461.67,-443 461.67,-443 456.33,-443 451,-437.67 451,-432.33 451,-432.33 451,-421.67 451,-421.67 451,-416.33 456.33,-411 461.67,-411"/>
</a>
</g>
</g>
</g>
</svg>
