<?xml version="1.0" encoding="UTF-8" standalone="no"?>
<!DOCTYPE svg PUBLIC "-//W3C//DTD SVG 1.1//EN"
 "http://www.w3.org/Graphics/SVG/1.1/DTD/svg11.dtd">
<!-- Generated by graphviz version 2.43.0 (0)
 -->
<!-- Title: %3 Pages: 1 -->
<svg width="817pt" height="388pt"
 viewBox="0.00 0.00 817.20 388.00" xmlns="http://www.w3.org/2000/svg" xmlns:xlink="http://www.w3.org/1999/xlink">
<g id="graph0" class="graph" transform="scale(1 1) rotate(0) translate(4 384)">
<title>%3</title>
<polygon fill="white" stroke="#000000" points="-4,4 -4,-384 813.2,-384 813.2,4 -4,4"/>
<g id="clust1" class="cluster">
<title>outer_cluster_Imm&#45;6</title>
</g>
<g id="clust2" class="cluster">
<title>cluster_Imm&#45;6</title>
<path fill="#ffffb3" stroke="black" stroke-dasharray="5,2" d="M167,-169C167,-169 211,-169 211,-169 217,-169 223,-175 223,-181 223,-181 223,-199 223,-199 223,-205 217,-211 211,-211 211,-211 167,-211 167,-211 161,-211 155,-205 155,-199 155,-199 155,-181 155,-181 155,-175 161,-169 167,-169"/>
</g>
<g id="clust4" class="cluster">
<title>outer_cluster_Imm&#45;8</title>
</g>
<g id="clust5" class="cluster">
<title>cluster_Imm&#45;8</title>
<path fill="#ffffb3" stroke="black" stroke-dasharray="5,2" d="M412,-90C412,-90 456,-90 456,-90 462,-90 468,-96 468,-102 468,-102 468,-120 468,-120 468,-126 462,-132 456,-132 456,-132 412,-132 412,-132 406,-132 400,-126 400,-120 400,-120 400,-102 400,-102 400,-96 406,-90 412,-90"/>
</g>
<g id="clust7" class="cluster">
<title>outer_cluster_Imm&#45;4</title>
</g>
<g id="clust8" class="cluster">
<title>cluster_Imm&#45;4</title>
<path fill="#ffffb3" stroke="black" stroke-dasharray="5,2" d="M23,-169C23,-169 67,-169 67,-169 73,-169 79,-175 79,-181 79,-181 79,-199 79,-199 79,-205 73,-211 67,-211 67,-211 23,-211 23,-211 17,-211 11,-205 11,-199 11,-199 11,-181 11,-181 11,-175 17,-169 23,-169"/>
</g>
<g id="clust10" class="cluster">
<title>outer_cluster_Imm&#45;12</title>
</g>
<g id="clust11" class="cluster">
<title>cluster_Imm&#45;12</title>
<path fill="#ffffb3" stroke="black" stroke-dasharray="5,2" d="M311,-169C311,-169 355,-169 355,-169 361,-169 367,-175 367,-181 367,-181 367,-199 367,-199 367,-205 361,-211 355,-211 355,-211 311,-211 311,-211 305,-211 299,-205 299,-199 299,-199 299,-181 299,-181 299,-175 305,-169 311,-169"/>
</g>
<g id="clust13" class="cluster">
<title>outer_cluster_Imm&#45;14</title>
</g>
<g id="clust14" class="cluster">
<title>cluster_Imm&#45;14</title>
<path fill="#ffffb3" stroke="black" stroke-dasharray="5,2" d="M578,-90C578,-90 622,-90 622,-90 628,-90 634,-96 634,-102 634,-102 634,-120 634,-120 634,-126 628,-132 622,-132 622,-132 578,-132 578,-132 572,-132 566,-126 566,-120 566,-120 566,-102 566,-102 566,-96 572,-90 578,-90"/>
</g>
<g id="clust16" class="cluster">
<title>outer_cluster_Inst&#45;17</title>
</g>
<g id="clust17" class="cluster">
<title>cluster_Inst&#45;17</title>
<path fill="#bebada" stroke="black" stroke-dasharray="5,2" d="M624,-248C624,-248 776,-248 776,-248 782,-248 788,-254 788,-260 788,-260 788,-278 788,-278 788,-284 782,-290 776,-290 776,-290 624,-290 624,-290 618,-290 612,-284 612,-278 612,-278 612,-260 612,-260 612,-254 618,-248 624,-248"/>
</g>
<g id="clust19" class="cluster">
<title>outer_cluster_Inst&#45;9</title>
</g>
<g id="clust20" class="cluster">
<title>cluster_Inst&#45;9</title>
<path fill="#bebada" stroke="black" stroke-dasharray="5,2" d="M479,-169C479,-169 515,-169 515,-169 521,-169 527,-175 527,-181 527,-181 527,-199 527,-199 527,-205 521,-211 515,-211 515,-211 479,-211 479,-211 473,-211 467,-205 467,-199 467,-199 467,-181 467,-181 467,-175 473,-169 479,-169"/>
</g>
<g id="clust22" class="cluster">
<title>outer_cluster_Inst&#45;11</title>
</g>
<g id="clust23" class="cluster">
<title>cluster_Inst&#45;11</title>
<path fill="#bebada" stroke="black" stroke-dasharray="5,2" d="M135,-248C135,-248 171,-248 171,-248 177,-248 183,-254 183,-260 183,-260 183,-278 183,-278 183,-284 177,-290 171,-290 171,-290 135,-290 135,-290 129,-290 123,-284 123,-278 123,-278 123,-260 123,-260 123,-254 129,-248 135,-248"/>
</g>
<g id="clust25" class="cluster">
<title>outer_cluster_Inst&#45;2</title>
</g>
<g id="clust26" class="cluster">
<title>cluster_Inst&#45;2</title>
<path fill="#bebada" stroke="black" stroke-dasharray="5,2" d="M707,-169C707,-169 747,-169 747,-169 753,-169 759,-175 759,-181 759,-181 759,-199 759,-199 759,-205 753,-211 747,-211 747,-211 707,-211 707,-211 701,-211 695,-205 695,-199 695,-199 695,-181 695,-181 695,-175 701,-169 707,-169"/>
</g>
<g id="clust28" class="cluster">
<title>outer_cluster_Inst&#45;15</title>
</g>
<g id="clust29" class="cluster">
<title>cluster_Inst&#45;15</title>
<path fill="#bebada" stroke="black" stroke-dasharray="5,2" d="M442,-248C442,-248 594,-248 594,-248 600,-248 606,-254 606,-260 606,-260 606,-278 606,-278 606,-284 600,-290 594,-290 594,-290 442,-290 442,-290 436,-290 430,-284 430,-278 430,-278 430,-260 430,-260 430,-254 436,-248 442,-248"/>
</g>
<g id="clust31" class="cluster">
<title>outer_cluster_Inst&#45;7</title>
</g>
<g id="clust32" class="cluster">
<title>cluster_Inst&#45;7</title>
<path fill="#bebada" stroke="black" stroke-dasharray="5,2" d="M201,-248C201,-248 237,-248 237,-248 243,-248 249,-254 249,-260 249,-260 249,-278 249,-278 249,-284 243,-290 237,-290 237,-290 201,-290 201,-290 195,-290 189,-284 189,-278 189,-278 189,-260 189,-260 189,-254 195,-248 201,-248"/>
</g>
<g id="clust34" class="cluster">
<title>outer_cluster_Inst&#45;3</title>
</g>
<g id="clust35" class="cluster">
<title>cluster_Inst&#45;3</title>
<path fill="#bebada" stroke="black" stroke-dasharray="5,2" d="M486,-90C486,-90 526,-90 526,-90 532,-90 538,-96 538,-102 538,-102 538,-120 538,-120 538,-126 532,-132 526,-132 526,-132 486,-132 486,-132 480,-132 474,-126 474,-120 474,-120 474,-102 474,-102 474,-96 480,-90 486,-90"/>
</g>
<g id="clust37" class="cluster">
<title>outer_cluster_Inst&#45;13</title>
</g>
<g id="clust38" class="cluster">
<title>cluster_Inst&#45;13</title>
<path fill="#bebada" stroke="black" stroke-dasharray="5,2" d="M343,-327C343,-327 495,-327 495,-327 501,-327 507,-333 507,-339 507,-339 507,-357 507,-357 507,-363 501,-369 495,-369 495,-369 343,-369 343,-369 337,-369 331,-363 331,-357 331,-357 331,-339 331,-339 331,-333 337,-327 343,-327"/>
</g>
<g id="clust40" class="cluster">
<title>outer_cluster_Inst&#45;16</title>
</g>
<g id="clust41" class="cluster">
<title>cluster_Inst&#45;16</title>
<path fill="#bebada" stroke="black" stroke-dasharray="5,2" d="M354,-248C354,-248 390,-248 390,-248 396,-248 402,-254 402,-260 402,-260 402,-278 402,-278 402,-284 396,-290 390,-290 390,-290 354,-290 354,-290 348,-290 342,-284 342,-278 342,-278 342,-260 342,-260 342,-254 348,-248 354,-248"/>
</g>
<g id="clust43" class="cluster">
<title>outer_cluster_Inst&#45;10</title>
</g>
<g id="clust44" class="cluster">
<title>cluster_Inst&#45;10</title>
<path fill="#bebada" stroke="black" stroke-dasharray="5,2" d="M98,-327C98,-327 192,-327 192,-327 198,-327 204,-333 204,-339 204,-339 204,-357 204,-357 204,-363 198,-369 192,-369 192,-369 98,-369 98,-369 92,-369 86,-363 86,-357 86,-357 86,-339 86,-339 86,-333 92,-327 98,-327"/>
</g>
<g id="clust46" class="cluster">
<title>outer_cluster_Inst&#45;1</title>
</g>
<g id="clust47" class="cluster">
<title>cluster_Inst&#45;1</title>
<path fill="#bebada" stroke="black" stroke-dasharray="5,2" d="M97,-169C97,-169 137,-169 137,-169 143,-169 149,-175 149,-181 149,-181 149,-199 149,-199 149,-205 143,-211 137,-211 137,-211 97,-211 97,-211 91,-211 85,-205 85,-199 85,-199 85,-181 85,-181 85,-175 91,-169 97,-169"/>
</g>
<g id="clust49" class="cluster">
<title>outer_cluster_Inst&#45;18</title>
</g>
<g id="clust50" class="cluster">
<title>cluster_Inst&#45;18</title>
<path fill="#bebada" stroke="black" stroke-dasharray="5,2" d="M582,-169C582,-169 618,-169 618,-169 624,-169 630,-175 630,-181 630,-181 630,-199 630,-199 630,-205 624,-211 618,-211 618,-211 582,-211 582,-211 576,-211 570,-205 570,-199 570,-199 570,-181 570,-181 570,-175 576,-169 582,-169"/>
</g>
<g id="clust52" class="cluster">
<title>outer_cluster_Inst&#45;0</title>
</g>
<g id="clust53" class="cluster">
<title>cluster_Inst&#45;0</title>
<path fill="#bebada" stroke="black" stroke-dasharray="5,2" d="M241,-169C241,-169 281,-169 281,-169 287,-169 293,-175 293,-181 293,-181 293,-199 293,-199 293,-205 287,-211 281,-211 281,-211 241,-211 241,-211 235,-211 229,-205 229,-199 229,-199 229,-181 229,-181 229,-175 235,-169 241,-169"/>
</g>
<g id="clust55" class="cluster">
<title>outer_cluster_Inst&#45;5</title>
</g>
<g id="clust56" class="cluster">
<title>cluster_Inst&#45;5</title>
<path fill="#bebada" stroke="black" stroke-dasharray="5,2" d="M69,-248C69,-248 105,-248 105,-248 111,-248 117,-254 117,-260 117,-260 117,-278 117,-278 117,-284 111,-290 105,-290 105,-290 69,-290 69,-290 63,-290 57,-284 57,-278 57,-278 57,-260 57,-260 57,-254 63,-248 69,-248"/>
</g>
<g id="clust58" class="cluster">
<title>outer_cluster_String&#45;0</title>
</g>
<g id="clust59" class="cluster">
<title>cluster_String&#45;0</title>
<path fill="#fb8072" stroke="black" stroke-dasharray="5,2" d="M242,-90C242,-90 282,-90 282,-90 288,-90 294,-96 294,-102 294,-102 294,-120 294,-120 294,-126 288,-132 282,-132 282,-132 242,-132 242,-132 236,-132 230,-126 230,-120 230,-120 230,-102 230,-102 230,-96 236,-90 242,-90"/>
</g>
<g id="clust61" class="cluster">
<title>outer_cluster_String&#45;1</title>
</g>
<g id="clust62" class="cluster">
<title>cluster_String&#45;1</title>
<path fill="#fb8072" stroke="black" stroke-dasharray="5,2" d="M98,-90C98,-90 138,-90 138,-90 144,-90 150,-96 150,-102 150,-102 150,-120 150,-120 150,-126 144,-132 138,-132 138,-132 98,-132 98,-132 92,-132 86,-126 86,-120 86,-120 86,-102 86,-102 86,-96 92,-90 98,-90"/>
</g>
<g id="clust64" class="cluster">
<title>outer_cluster_String&#45;2</title>
</g>
<g id="clust65" class="cluster">
<title>cluster_String&#45;2</title>
<path fill="#fb8072" stroke="black" stroke-dasharray="5,2" d="M709,-90C709,-90 747,-90 747,-90 753,-90 759,-96 759,-102 759,-102 759,-120 759,-120 759,-126 753,-132 747,-132 747,-132 709,-132 709,-132 703,-132 697,-126 697,-120 697,-120 697,-102 697,-102 697,-96 703,-90 709,-90"/>
</g>
<g id="clust67" class="cluster">
<title>outer_cluster_String&#45;3</title>
</g>
<g id="clust68" class="cluster">
<title>cluster_String&#45;3</title>
<path fill="#fb8072" stroke="black" stroke-dasharray="5,2" d="M481,-11C481,-11 533,-11 533,-11 539,-11 545,-17 545,-23 545,-23 545,-41 545,-41 545,-47 539,-53 533,-53 533,-53 481,-53 481,-53 475,-53 469,-47 469,-41 469,-41 469,-23 469,-23 469,-17 475,-11 481,-11"/>
</g>
<g id="clust70" class="cluster">
<title>outer_cluster_i64&#45;2047</title>
</g>
<g id="clust71" class="cluster">
<title>cluster_i64&#45;2047</title>
<path fill="#80b1d3" stroke="black" stroke-dasharray="5,2" d="M415,-11C415,-11 451,-11 451,-11 457,-11 463,-17 463,-23 463,-23 463,-41 463,-41 463,-47 457,-53 451,-53 451,-53 415,-53 415,-53 409,-53 403,-47 403,-41 403,-41 403,-23 403,-23 403,-17 409,-11 415,-11"/>
</g>
<g id="clust73" class="cluster">
<title>outer_cluster_i64&#45;3</title>
</g>
<g id="clust74" class="cluster">
<title>cluster_i64&#45;3</title>
<path fill="#80b1d3" stroke="black" stroke-dasharray="5,2" d="M171,-90C171,-90 207,-90 207,-90 213,-90 219,-96 219,-102 219,-102 219,-120 219,-120 219,-126 213,-132 207,-132 207,-132 171,-132 171,-132 165,-132 159,-126 159,-120 159,-120 159,-102 159,-102 159,-96 165,-90 171,-90"/>
</g>
<g id="clust76" class="cluster">
<title>outer_cluster_i64&#45;0</title>
</g>
<g id="clust77" class="cluster">
<title>cluster_i64&#45;0</title>
<path fill="#80b1d3" stroke="black" stroke-dasharray="5,2" d="M315,-90C315,-90 351,-90 351,-90 357,-90 363,-96 363,-102 363,-102 363,-120 363,-120 363,-126 357,-132 351,-132 351,-132 315,-132 315,-132 309,-132 303,-126 303,-120 303,-120 303,-102 303,-102 303,-96 309,-90 315,-90"/>
</g>
<g id="clust79" class="cluster">
<title>outer_cluster_i64&#45;29</title>
</g>
<g id="clust80" class="cluster">
<title>cluster_i64&#45;29</title>
<path fill="#80b1d3" stroke="black" stroke-dasharray="5,2" d="M27,-90C27,-90 63,-90 63,-90 69,-90 75,-96 75,-102 75,-102 75,-120 75,-120 75,-126 69,-132 63,-132 63,-132 27,-132 27,-132 21,-132 15,-126 15,-120 15,-120 15,-102 15,-102 15,-96 21,-90 27,-90"/>
</g>
<g id="clust82" class="cluster">
<title>outer_cluster_i64&#45;4</title>
</g>
<g id="clust83" class="cluster">
<title>cluster_i64&#45;4</title>
<path fill="#80b1d3" stroke="black" stroke-dasharray="5,2" d="M582,-11C582,-11 618,-11 618,-11 624,-11 630,-17 630,-23 630,-23 630,-41 630,-41 630,-47 624,-53 618,-53 618,-53 582,-53 582,-53 576,-53 570,-47 570,-41 570,-41 570,-23 570,-23 570,-17 576,-11 582,-11"/>
</g>
<!-- function&#45;1&#45;ImmVal&#45;&gt;primitive&#45;i64&#45;3 -->
<g id="edge1" class="edge">
<title>function&#45;1&#45;ImmVal:s&#45;&gt;primitive&#45;i64&#45;3</title>
<path fill="none" stroke="black" d="M189,-174C189,-160.84 189,-146.11 189,-134.3"/>
<polygon fill="black" stroke="black" points="190.75,-137 189,-132 187.25,-137 190.75,-137"/>
</g>
<!-- function&#45;2&#45;ImmVal&#45;&gt;primitive&#45;i64&#45;2047 -->
<g id="edge2" class="edge">
<title>function&#45;2&#45;ImmVal:s&#45;&gt;primitive&#45;i64&#45;2047</title>
<path fill="none" stroke="black" d="M434,-95C434,-81.84 433.77,-67.1 433.53,-55.3"/>
<polygon fill="black" stroke="black" points="435.41,-57.91 433.42,-53 431.91,-58.08 435.41,-57.91"/>
</g>
<!-- function&#45;0&#45;ImmVal&#45;&gt;primitive&#45;i64&#45;29 -->
<g id="edge3" class="edge">
<title>function&#45;0&#45;ImmVal:s&#45;&gt;primitive&#45;i64&#45;29</title>
<path fill="none" stroke="black" d="M45,-174C45,-160.84 45,-146.11 45,-134.3"/>
<polygon fill="black" stroke="black" points="46.75,-137 45,-132 43.25,-137 46.75,-137"/>
</g>
<!-- function&#45;3&#45;ImmVal&#45;&gt;primitive&#45;i64&#45;0 -->
<g id="edge4" class="edge">
<title>function&#45;3&#45;ImmVal:s&#45;&gt;primitive&#45;i64&#45;0</title>
<path fill="none" stroke="black" d="M333,-174C333,-160.84 333,-146.11 333,-134.3"/>
<polygon fill="black" stroke="black" points="334.75,-137 333,-132 331.25,-137 334.75,-137"/>
</g>
<!-- function&#45;4&#45;ImmVal&#45;&gt;primitive&#45;i64&#45;4 -->
<g id="edge5" class="edge">
<title>function&#45;4&#45;ImmVal:s&#45;&gt;primitive&#45;i64&#45;4</title>
<path fill="none" stroke="black" d="M600,-95C600,-81.84 600,-67.11 600,-55.3"/>
<polygon fill="black" stroke="black" points="601.75,-58 600,-53 598.25,-58 601.75,-58"/>
</g>
<!-- function&#45;2&#45;Bne&#45;&gt;function&#45;4&#45;ImmVal -->
<g id="edge8" class="edge">
<title>function&#45;2&#45;Bne:s&#45;&gt;function&#45;4&#45;ImmVal</title>
<path fill="none" stroke="black" d="M772,-253C772,-214.24 722.48,-240.29 694,-214 675.69,-197.09 681.26,-184.89 665,-166 654.25,-153.51 640.43,-141.59 628.29,-132.14"/>
<polygon fill="black" stroke="black" points="632.43,-130.91 627.25,-132 631.98,-134.38 632.43,-130.91"/>
</g>
<!-- function&#45;2&#45;Bne&#45;&gt;function&#45;2&#45;RegVal -->
<g id="edge6" class="edge">
<title>function&#45;2&#45;Bne:s&#45;&gt;function&#45;2&#45;RegVal</title>
<path fill="none" stroke="black" d="M749,-253C749,-239.11 744.03,-224.42 738.82,-212.83"/>
<polygon fill="black" stroke="black" points="741.83,-214.17 737.59,-211 738.93,-216.12 741.83,-214.17"/>
</g>
<!-- function&#45;2&#45;Bne&#45;&gt;function&#45;0&#45;Addi -->
<g id="edge7" class="edge">
<title>function&#45;2&#45;Bne:s&#45;&gt;function&#45;0&#45;Addi</title>
<path fill="none" stroke="black" d="M763,-253C763,-209.03 611.59,-224.94 569,-214 555.76,-210.6 541.37,-206.16 528.97,-202.08"/>
<polygon fill="black" stroke="black" points="531.98,-202.28 527,-200.49 529.77,-205 531.98,-202.28"/>
</g>
<!-- function&#45;2&#45;RegVal&#45;&gt;primitive&#45;String&#45;2 -->
<g id="edge18" class="edge">
<title>function&#45;2&#45;RegVal:s&#45;&gt;primitive&#45;String&#45;2</title>
<path fill="none" stroke="black" d="M728,-174C728,-160.84 728,-146.11 728,-134.3"/>
<polygon fill="black" stroke="black" points="729.75,-137 728,-132 726.25,-137 729.75,-137"/>
</g>
<!-- function&#45;0&#45;Addi&#45;&gt;function&#45;2&#45;ImmVal -->
<g id="edge15" class="edge">
<title>function&#45;0&#45;Addi:s&#45;&gt;function&#45;2&#45;ImmVal</title>
<path fill="none" stroke="black" d="M507,-174C507,-162.56 485.91,-145.51 466.4,-132.18"/>
<polygon fill="black" stroke="black" points="471.29,-132.51 466.01,-132 469.82,-135.69 471.29,-132.51"/>
</g>
<!-- function&#45;0&#45;Addi&#45;&gt;function&#45;3&#45;RegVal -->
<g id="edge14" class="edge">
<title>function&#45;0&#45;Addi:s&#45;&gt;function&#45;3&#45;RegVal</title>
<path fill="none" stroke="black" d="M487,-174C487,-160.31 491.29,-145.63 495.79,-134"/>
<polygon fill="black" stroke="black" points="496.19,-137.27 496.72,-132 493.02,-135.79 496.19,-137.27"/>
</g>
<!-- function&#45;3&#45;Bne&#45;&gt;function&#45;4&#45;ImmVal -->
<g id="edge11" class="edge">
<title>function&#45;3&#45;Bne:s&#45;&gt;function&#45;4&#45;ImmVal</title>
<path fill="none" stroke="black" d="M714,-253C714,-230.29 695.4,-231.56 681,-214 658.29,-186.29 632.66,-153.81 616.43,-133.08"/>
<polygon fill="black" stroke="black" points="620.12,-134.21 615.31,-132 617.69,-136.73 620.12,-134.21"/>
</g>
<!-- function&#45;3&#45;Bne&#45;&gt;function&#45;2&#45;RegVal -->
<g id="edge10" class="edge">
<title>function&#45;3&#45;Bne:s&#45;&gt;function&#45;2&#45;RegVal</title>
<path fill="none" stroke="black" d="M705,-253C705,-239.11 709.97,-224.42 715.18,-212.83"/>
<polygon fill="black" stroke="black" points="715.07,-216.12 716.41,-211 712.17,-214.17 715.07,-216.12"/>
</g>
<!-- function&#45;3&#45;Bne&#45;&gt;function&#45;0&#45;Addi -->
<g id="edge9" class="edge">
<title>function&#45;3&#45;Bne:s&#45;&gt;function&#45;0&#45;Addi</title>
<path fill="none" stroke="black" d="M691,-253C691,-249.27 752.49,-271.75 569,-214 555.96,-209.9 541.61,-205.32 529.18,-201.34"/>
<polygon fill="black" stroke="black" points="532.09,-201.27 527,-199.79 530.06,-204.12 532.09,-201.27"/>
</g>
<!-- function&#45;2&#45;Seq2&#45;&gt;function&#45;1&#45;Seq2 -->
<g id="edge12" class="edge">
<title>function&#45;2&#45;Seq2:s&#45;&gt;function&#45;1&#45;Seq2</title>
<path fill="none" stroke="black" d="M631,-253C631,-241.59 619.78,-243.91 607.57,-249.8"/>
<polygon fill="black" stroke="black" points="608.71,-246.57 606,-251.12 610.96,-249.26 608.71,-246.57"/>
</g>
<!-- function&#45;2&#45;Seq2&#45;&gt;function&#45;1&#45;Jal -->
<g id="edge13" class="edge">
<title>function&#45;2&#45;Seq2:s&#45;&gt;function&#45;1&#45;Jal</title>
<path fill="none" stroke="black" d="M653,-253C653,-236.59 642.14,-222.33 630.25,-211.64"/>
<polygon fill="black" stroke="black" points="634.38,-212.08 629.19,-211 632.57,-215.08 634.38,-212.08"/>
</g>
<!-- function&#45;1&#45;Seq2&#45;&gt;function&#45;2&#45;Bne -->
<g id="edge25" class="edge">
<title>function&#45;1&#45;Seq2:s&#45;&gt;function&#45;2&#45;Bne</title>
<path fill="none" stroke="black" d="M565,-253C565,-178.07 687.84,-204.55 725,-223.5 734.53,-228.36 741.96,-237.41 747.33,-246.17"/>
<polygon fill="black" stroke="black" points="744.37,-245.62 749.1,-248 746.88,-243.19 744.37,-245.62"/>
</g>
<!-- function&#45;1&#45;Seq2&#45;&gt;function&#45;1&#45;Jal -->
<g id="edge26" class="edge">
<title>function&#45;1&#45;Seq2:s&#45;&gt;function&#45;1&#45;Jal</title>
<path fill="none" stroke="black" d="M587,-253C587,-239.53 589.98,-224.75 593.08,-213.01"/>
<polygon fill="black" stroke="black" points="593.11,-216.13 594.41,-211 590.19,-214.2 593.11,-216.13"/>
</g>
<!-- function&#45;1&#45;Jal&#45;&gt;function&#45;4&#45;ImmVal -->
<g id="edge44" class="edge">
<title>function&#45;1&#45;Jal:s&#45;&gt;function&#45;4&#45;ImmVal</title>
<path fill="none" stroke="black" d="M600,-174C600,-160.84 600,-146.11 600,-134.3"/>
<polygon fill="black" stroke="black" points="601.75,-137 600,-132 598.25,-137 601.75,-137"/>
</g>
<!-- function&#45;3&#45;RegVal&#45;&gt;primitive&#45;String&#45;3 -->
<g id="edge29" class="edge">
<title>function&#45;3&#45;RegVal:s&#45;&gt;primitive&#45;String&#45;3</title>
<path fill="none" stroke="black" d="M507,-95C507,-81.84 507,-67.11 507,-55.3"/>
<polygon fill="black" stroke="black" points="508.75,-58 507,-53 505.25,-58 508.75,-58"/>
</g>
<!-- function&#45;1&#45;Srli&#45;&gt;function&#45;1&#45;ImmVal -->
<g id="edge17" class="edge">
<title>function&#45;1&#45;Srli:s&#45;&gt;function&#45;1&#45;ImmVal</title>
<path fill="none" stroke="black" d="M161,-253C161,-238.72 167.25,-224.09 173.84,-212.63"/>
<polygon fill="black" stroke="black" points="173.18,-215.78 175.47,-211 170.7,-213.3 173.18,-215.78"/>
</g>
<!-- function&#45;1&#45;Srli&#45;&gt;function&#45;1&#45;RegVal -->
<g id="edge16" class="edge">
<title>function&#45;1&#45;Srli:s&#45;&gt;function&#45;1&#45;RegVal</title>
<path fill="none" stroke="black" d="M145,-253C145,-238.72 138.75,-224.09 132.16,-212.63"/>
<polygon fill="black" stroke="black" points="135.3,-213.3 130.53,-211 132.82,-215.78 135.3,-213.3"/>
</g>
<!-- function&#45;1&#45;RegVal&#45;&gt;primitive&#45;String&#45;1 -->
<g id="edge43" class="edge">
<title>function&#45;1&#45;RegVal:s&#45;&gt;primitive&#45;String&#45;1</title>
<path fill="none" stroke="black" d="M118,-174C118,-160.84 118,-146.11 118,-134.3"/>
<polygon fill="black" stroke="black" points="119.75,-137 118,-132 116.25,-137 119.75,-137"/>
</g>
<!-- function&#45;0&#45;Beq&#45;&gt;function&#45;4&#45;ImmVal -->
<g id="edge21" class="edge">
<title>function&#45;0&#45;Beq:s&#45;&gt;function&#45;4&#45;ImmVal</title>
<path fill="none" stroke="black" d="M474,-253C474,-223.4 510.25,-237.7 528,-214 541.57,-195.89 532.84,-185.08 545,-166 552.94,-153.54 564.27,-141.78 574.58,-132.43"/>
<polygon fill="black" stroke="black" points="571.89,-136.03 575.33,-132 570.12,-133.01 571.89,-136.03"/>
</g>
<!-- function&#45;0&#45;Beq&#45;&gt;function&#45;2&#45;RegVal -->
<g id="edge19" class="edge">
<title>function&#45;0&#45;Beq:s&#45;&gt;function&#45;2&#45;RegVal</title>
<path fill="none" stroke="black" d="M451,-253C451,-212.07 591.1,-223.1 631,-214 651.77,-209.26 675.01,-203.7 693.42,-199.24"/>
<polygon fill="black" stroke="black" points="692.12,-202.45 695,-198.01 689.98,-199.69 692.12,-202.45"/>
</g>
<!-- function&#45;0&#45;Beq&#45;&gt;function&#45;0&#45;Addi -->
<g id="edge20" class="edge">
<title>function&#45;0&#45;Beq:s&#45;&gt;function&#45;0&#45;Addi</title>
<path fill="none" stroke="black" d="M465,-253C465,-238.46 472.04,-223.92 479.51,-212.58"/>
<polygon fill="black" stroke="black" points="478.67,-215.48 481.5,-211 476.5,-212.74 478.67,-215.48"/>
</g>
<!-- function&#45;1&#45;Beq&#45;&gt;function&#45;4&#45;ImmVal -->
<g id="edge24" class="edge">
<title>function&#45;1&#45;Beq:s&#45;&gt;function&#45;4&#45;ImmVal</title>
<path fill="none" stroke="black" d="M532,-253C532,-228.13 566.75,-166.77 586.57,-133.79"/>
<polygon fill="black" stroke="black" points="586.05,-136.76 588.38,-132 583.59,-134.27 586.05,-136.76"/>
</g>
<!-- function&#45;1&#45;Beq&#45;&gt;function&#45;2&#45;RegVal -->
<g id="edge23" class="edge">
<title>function&#45;1&#45;Beq:s&#45;&gt;function&#45;2&#45;RegVal</title>
<path fill="none" stroke="black" d="M523,-253C523,-244.22 635.1,-214.39 693.11,-199.54"/>
<polygon fill="black" stroke="black" points="691.87,-202.51 695,-198.24 689.89,-199.63 691.87,-202.51"/>
</g>
<!-- function&#45;1&#45;Beq&#45;&gt;function&#45;0&#45;Addi -->
<g id="edge22" class="edge">
<title>function&#45;1&#45;Beq:s&#45;&gt;function&#45;0&#45;Addi</title>
<path fill="none" stroke="black" d="M509,-253C509,-239.69 506.3,-225.06 503.46,-213.36"/>
<polygon fill="black" stroke="black" points="506.11,-214.53 502.16,-211 503.05,-216.22 506.11,-214.53"/>
</g>
<!-- function&#45;0&#45;Srli&#45;&gt;function&#45;1&#45;ImmVal -->
<g id="edge28" class="edge">
<title>function&#45;0&#45;Srli:s&#45;&gt;function&#45;1&#45;ImmVal</title>
<path fill="none" stroke="black" d="M227,-253C227,-237.82 218.62,-223.22 209.73,-212.01"/>
<polygon fill="black" stroke="black" points="213.45,-212.72 208.44,-211 211.29,-215.47 213.45,-212.72"/>
</g>
<!-- function&#45;0&#45;Srli&#45;&gt;function&#45;0&#45;RegVal -->
<g id="edge27" class="edge">
<title>function&#45;0&#45;Srli:s&#45;&gt;function&#45;0&#45;RegVal</title>
<path fill="none" stroke="black" d="M211,-253C211,-236.85 221.41,-222.53 232.73,-211.73"/>
<polygon fill="black" stroke="black" points="230.92,-215.58 233.59,-211 228.65,-212.91 230.92,-215.58"/>
</g>
<!-- function&#45;0&#45;RegVal&#45;&gt;primitive&#45;String&#45;0 -->
<g id="edge45" class="edge">
<title>function&#45;0&#45;RegVal:s&#45;&gt;primitive&#45;String&#45;0</title>
<path fill="none" stroke="black" d="M262,-174C262,-160.84 262,-146.11 262,-134.3"/>
<polygon fill="black" stroke="black" points="263.75,-137 262,-132 260.25,-137 263.75,-137"/>
</g>
<!-- function&#45;0&#45;Bne&#45;&gt;function&#45;3&#45;ImmVal -->
<g id="edge32" class="edge">
<title>function&#45;0&#45;Bne:s&#45;&gt;function&#45;3&#45;ImmVal</title>
<path fill="none" stroke="black" d="M491,-332C491,-263.12 385.24,-345.8 341,-293 331.21,-281.32 330.95,-239.48 331.84,-213.16"/>
<polygon fill="black" stroke="black" points="333.34,-216.13 332.03,-211 329.85,-215.83 333.34,-216.13"/>
</g>
<!-- function&#45;0&#45;Bne&#45;&gt;function&#45;2&#45;RegVal -->
<g id="edge30" class="edge">
<title>function&#45;0&#45;Bne:s&#45;&gt;function&#45;2&#45;RegVal</title>
<path fill="none" stroke="black" d="M468,-332C468,-257.71 750.63,-348.51 800,-293 814.18,-277.06 809.6,-264.05 800,-245 791.58,-228.29 775.26,-215.46 760.19,-206.51"/>
<polygon fill="black" stroke="black" points="763.35,-207.89 759,-204.86 760.51,-209.94 763.35,-207.89"/>
</g>
<!-- function&#45;0&#45;Bne&#45;&gt;function&#45;0&#45;Addi -->
<g id="edge31" class="edge">
<title>function&#45;0&#45;Bne:s&#45;&gt;function&#45;0&#45;Addi</title>
<path fill="none" stroke="black" d="M482,-332C482,-302.75 442.2,-319.1 429,-293 419.37,-273.96 419.72,-264.21 429,-245 436.72,-229.01 451.74,-216.3 465.7,-207.24"/>
<polygon fill="black" stroke="black" points="465.34,-210.57 467,-205.54 462.57,-208.44 465.34,-210.57"/>
</g>
<!-- function&#45;1&#45;Bne&#45;&gt;function&#45;3&#45;ImmVal -->
<g id="edge35" class="edge">
<title>function&#45;1&#45;Bne:s&#45;&gt;function&#45;3&#45;ImmVal</title>
<path fill="none" stroke="black" d="M433,-332C433,-283.05 357.82,-333.28 330,-293 313.81,-269.55 319.15,-235.31 325.35,-213.09"/>
<polygon fill="black" stroke="black" points="325.41,-216.12 326.77,-211 322.51,-214.16 325.41,-216.12"/>
</g>
<!-- function&#45;1&#45;Bne&#45;&gt;function&#45;2&#45;RegVal -->
<g id="edge34" class="edge">
<title>function&#45;1&#45;Bne:s&#45;&gt;function&#45;2&#45;RegVal</title>
<path fill="none" stroke="black" d="M424,-332C424,-250.43 734.01,-353.25 789,-293 803.38,-277.24 797.84,-264.42 789,-245 782.79,-231.35 771.22,-219.8 759.75,-210.94"/>
<polygon fill="black" stroke="black" points="763.21,-213 759,-209.79 760.29,-214.93 763.21,-213"/>
</g>
<!-- function&#45;1&#45;Bne&#45;&gt;function&#45;0&#45;Addi -->
<g id="edge33" class="edge">
<title>function&#45;1&#45;Bne:s&#45;&gt;function&#45;0&#45;Addi</title>
<path fill="none" stroke="black" d="M410,-332C410,-293.03 400.98,-278.44 421,-245 431.26,-227.86 449.29,-214.7 465.21,-205.66"/>
<polygon fill="black" stroke="black" points="464.2,-208.72 467,-204.22 462.01,-205.99 464.2,-208.72"/>
</g>
<!-- function&#45;0&#45;Seq2&#45;&gt;function&#45;0&#45;Beq -->
<g id="edge36" class="edge">
<title>function&#45;0&#45;Seq2:s&#45;&gt;function&#45;0&#45;Beq</title>
<path fill="none" stroke="black" d="M350,-332C350,-322.96 395.64,-299.85 428.12,-284.54"/>
<polygon fill="black" stroke="black" points="426.73,-287.5 430,-283.34 424.84,-284.55 426.73,-287.5"/>
</g>
<!-- function&#45;0&#45;Seq2&#45;&gt;function&#45;0&#45;Jal -->
<g id="edge37" class="edge">
<title>function&#45;0&#45;Seq2:s&#45;&gt;function&#45;0&#45;Jal</title>
<path fill="none" stroke="black" d="M372,-332C372,-318.84 372,-304.11 372,-292.3"/>
<polygon fill="black" stroke="black" points="373.75,-295 372,-290 370.25,-295 373.75,-295"/>
</g>
<!-- function&#45;0&#45;Jal&#45;&gt;function&#45;3&#45;ImmVal -->
<g id="edge38" class="edge">
<title>function&#45;0&#45;Jal:s&#45;&gt;function&#45;3&#45;ImmVal</title>
<path fill="none" stroke="black" d="M372,-253C372,-237.82 363.52,-223.32 354.48,-212.17"/>
<polygon fill="black" stroke="black" points="358.05,-212.95 353.13,-211 355.76,-215.6 358.05,-212.95"/>
</g>
<!-- function&#45;0&#45;Or&#45;&gt;function&#45;0&#45;Srli -->
<g id="edge40" class="edge">
<title>function&#45;0&#45;Or:s&#45;&gt;function&#45;0&#45;Srli</title>
<path fill="none" stroke="black" d="M182,-332C182,-316.93 190.16,-302.34 198.82,-291.1"/>
<polygon fill="black" stroke="black" points="197.52,-294.67 200.02,-290 195.15,-292.1 197.52,-294.67"/>
</g>
<!-- function&#45;0&#45;Or&#45;&gt;function&#45;0&#45;Slli -->
<g id="edge39" class="edge">
<title>function&#45;0&#45;Or:s&#45;&gt;function&#45;0&#45;Slli</title>
<path fill="none" stroke="black" d="M166,-332C166,-325.52 139.33,-305.64 116.98,-290.12"/>
<polygon fill="black" stroke="black" points="121.02,-288.78 115.87,-290 120.66,-292.26 121.02,-288.78"/>
</g>
<!-- function&#45;0&#45;Slli&#45;&gt;function&#45;0&#45;ImmVal -->
<g id="edge47" class="edge">
<title>function&#45;0&#45;Slli:s&#45;&gt;function&#45;0&#45;ImmVal</title>
<path fill="none" stroke="black" d="M95,-253C95,-236.85 84.59,-222.53 73.27,-211.73"/>
<polygon fill="black" stroke="black" points="77.35,-212.91 72.41,-211 75.08,-215.58 77.35,-212.91"/>
</g>
<!-- function&#45;0&#45;Slli&#45;&gt;function&#45;1&#45;RegVal -->
<g id="edge46" class="edge">
<title>function&#45;0&#45;Slli:s&#45;&gt;function&#45;1&#45;RegVal</title>
<path fill="none" stroke="black" d="M79,-253C79,-237.82 87.38,-223.22 96.27,-212.01"/>
<polygon fill="black" stroke="black" points="94.71,-215.47 97.56,-211 92.55,-212.72 94.71,-215.47"/>
</g>
<!-- function&#45;1&#45;Or&#45;&gt;function&#45;0&#45;Srli -->
<g id="edge41" class="edge">
<title>function&#45;1&#45;Or:s&#45;&gt;function&#45;0&#45;Srli</title>
<path fill="none" stroke="black" d="M108,-332C108,-294.03 151.2,-312.12 184,-293 184.21,-292.88 184.41,-292.76 184.62,-292.64"/>
<polygon fill="black" stroke="black" points="185.64,-294.07 189.02,-290 183.84,-291.07 185.64,-294.07"/>
</g>
<!-- function&#45;1&#45;Or&#45;&gt;function&#45;0&#45;Slli -->
<g id="edge42" class="edge">
<title>function&#45;1&#45;Or:s&#45;&gt;function&#45;0&#45;Slli</title>
<path fill="none" stroke="black" d="M124,-332C124,-316.93 115.84,-302.34 107.18,-291.1"/>
<polygon fill="black" stroke="black" points="110.85,-292.1 105.98,-290 108.48,-294.67 110.85,-292.1"/>
</g>
<!-- function&#45;1&#45;ImmVal -->
<g id="node1" class="node">
<title>function&#45;1&#45;ImmVal</title>
<g id="a_node1"><a xlink:title="Imm&#45;6: function&#45;1&#45;ImmVal">
<path fill="white" stroke="transparent" d="M168.67,-174C168.67,-174 209.33,-174 209.33,-174 214.67,-174 220,-179.33 220,-184.67 220,-184.67 220,-195.33 220,-195.33 220,-200.67 214.67,-206 209.33,-206 209.33,-206 168.67,-206 168.67,-206 163.33,-206 158,-200.67 158,-195.33 158,-195.33 158,-184.67 158,-184.67 158,-179.33 163.33,-174 168.67,-174"/>
<text text-anchor="start" x="163" y="-186.3" font-family="Helvetica,sans-Serif" font-size="14.00">ImmVal</text>
<path fill="none" stroke="black" d="M168.67,-174C168.67,-174 209.33,-174 209.33,-174 214.67,-174 220,-179.33 220,-184.67 220,-184.67 220,-195.33 220,-195.33 220,-200.67 214.67,-206 209.33,-206 209.33,-206 168.67,-206 168.67,-206 163.33,-206 158,-200.67 158,-195.33 158,-195.33 158,-184.67 158,-184.67 158,-179.33 163.33,-174 168.67,-174"/>
</a>
</g>
</g>
<!-- primitive&#45;i64&#45;3 -->
<g id="node2" class="node">
<title>primitive&#45;i64&#45;3</title>
<g id="a_node2"><a xlink:title="i64&#45;3: primitive&#45;i64&#45;3">
<path fill="white" stroke="transparent" d="M183.67,-95C183.67,-95 194.33,-95 194.33,-95 199.67,-95 205,-100.33 205,-105.67 205,-105.67 205,-116.33 205,-116.33 205,-121.67 199.67,-127 194.33,-127 194.33,-127 183.67,-127 183.67,-127 178.33,-127 173,-121.67 173,-116.33 173,-116.33 173,-105.67 173,-105.67 173,-100.33 178.33,-95 183.67,-95"/>
<text text-anchor="start" x="184" y="-107.3" font-family="Helvetica,sans-Serif" font-size="14.00">3</text>
<path fill="none" stroke="black" d="M183.67,-95C183.67,-95 194.33,-95 194.33,-95 199.67,-95 205,-100.33 205,-105.67 205,-105.67 205,-116.33 205,-116.33 205,-121.67 199.67,-127 194.33,-127 194.33,-127 183.67,-127 183.67,-127 178.33,-127 173,-121.67 173,-116.33 173,-116.33 173,-105.67 173,-105.67 173,-100.33 178.33,-95 183.67,-95"/>
</a>
</g>
</g>
<!-- function&#45;2&#45;ImmVal -->
<g id="node3" class="node">
<title>function&#45;2&#45;ImmVal</title>
<g id="a_node3"><a xlink:title="Imm&#45;8: function&#45;2&#45;ImmVal">
<path fill="white" stroke="transparent" d="M413.67,-95C413.67,-95 454.33,-95 454.33,-95 459.67,-95 465,-100.33 465,-105.67 465,-105.67 465,-116.33 465,-116.33 465,-121.67 459.67,-127 454.33,-127 454.33,-127 413.67,-127 413.67,-127 408.33,-127 403,-121.67 403,-116.33 403,-116.33 403,-105.67 403,-105.67 403,-100.33 408.33,-95 413.67,-95"/>
<text text-anchor="start" x="408" y="-107.3" font-family="Helvetica,sans-Serif" font-size="14.00">ImmVal</text>
<path fill="none" stroke="black" d="M413.67,-95C413.67,-95 454.33,-95 454.33,-95 459.67,-95 465,-100.33 465,-105.67 465,-105.67 465,-116.33 465,-116.33 465,-121.67 459.67,-127 454.33,-127 454.33,-127 413.67,-127 413.67,-127 408.33,-127 403,-121.67 403,-116.33 403,-116.33 403,-105.67 403,-105.67 403,-100.33 408.33,-95 413.67,-95"/>
</a>
</g>
</g>
<!-- primitive&#45;i64&#45;2047 -->
<g id="node4" class="node">
<title>primitive&#45;i64&#45;2047</title>
<g id="a_node4"><a xlink:title="i64&#45;2047: primitive&#45;i64&#45;2047">
<path fill="white" stroke="transparent" d="M420.17,-16C420.17,-16 445.83,-16 445.83,-16 451.17,-16 456.5,-21.33 456.5,-26.67 456.5,-26.67 456.5,-37.33 456.5,-37.33 456.5,-42.67 451.17,-48 445.83,-48 445.83,-48 420.17,-48 420.17,-48 414.83,-48 409.5,-42.67 409.5,-37.33 409.5,-37.33 409.5,-26.67 409.5,-26.67 409.5,-21.33 414.83,-16 420.17,-16"/>
<text text-anchor="start" x="415" y="-28.3" font-family="Helvetica,sans-Serif" font-size="14.00">2047</text>
<path fill="none" stroke="black" d="M420.17,-16C420.17,-16 445.83,-16 445.83,-16 451.17,-16 456.5,-21.33 456.5,-26.67 456.5,-26.67 456.5,-37.33 456.5,-37.33 456.5,-42.67 451.17,-48 445.83,-48 445.83,-48 420.17,-48 420.17,-48 414.83,-48 409.5,-42.67 409.5,-37.33 409.5,-37.33 409.5,-26.67 409.5,-26.67 409.5,-21.33 414.83,-16 420.17,-16"/>
</a>
</g>
</g>
<!-- function&#45;0&#45;ImmVal -->
<g id="node5" class="node">
<title>function&#45;0&#45;ImmVal</title>
<g id="a_node5"><a xlink:title="Imm&#45;4: function&#45;0&#45;ImmVal">
<path fill="white" stroke="transparent" d="M24.67,-174C24.67,-174 65.33,-174 65.33,-174 70.67,-174 76,-179.33 76,-184.67 76,-184.67 76,-195.33 76,-195.33 76,-200.67 70.67,-206 65.33,-206 65.33,-206 24.67,-206 24.67,-206 19.33,-206 14,-200.67 14,-195.33 14,-195.33 14,-184.67 14,-184.67 14,-179.33 19.33,-174 24.67,-174"/>
<text text-anchor="start" x="19" y="-186.3" font-family="Helvetica,sans-Serif" font-size="14.00">ImmVal</text>
<path fill="none" stroke="black" d="M24.67,-174C24.67,-174 65.33,-174 65.33,-174 70.67,-174 76,-179.33 76,-184.67 76,-184.67 76,-195.33 76,-195.33 76,-200.67 70.67,-206 65.33,-206 65.33,-206 24.67,-206 24.67,-206 19.33,-206 14,-200.67 14,-195.33 14,-195.33 14,-184.67 14,-184.67 14,-179.33 19.33,-174 24.67,-174"/>
</a>
</g>
</g>
<!-- primitive&#45;i64&#45;29 -->
<g id="node6" class="node">
<title>primitive&#45;i64&#45;29</title>
<g id="a_node6"><a xlink:title="i64&#45;29: primitive&#45;i64&#45;29">
<path fill="white" stroke="transparent" d="M39.67,-95C39.67,-95 50.33,-95 50.33,-95 55.67,-95 61,-100.33 61,-105.67 61,-105.67 61,-116.33 61,-116.33 61,-121.67 55.67,-127 50.33,-127 50.33,-127 39.67,-127 39.67,-127 34.33,-127 29,-121.67 29,-116.33 29,-116.33 29,-105.67 29,-105.67 29,-100.33 34.33,-95 39.67,-95"/>
<text text-anchor="start" x="35.5" y="-107.3" font-family="Helvetica,sans-Serif" font-size="14.00">29</text>
<path fill="none" stroke="black" d="M39.67,-95C39.67,-95 50.33,-95 50.33,-95 55.67,-95 61,-100.33 61,-105.67 61,-105.67 61,-116.33 61,-116.33 61,-121.67 55.67,-127 50.33,-127 50.33,-127 39.67,-127 39.67,-127 34.33,-127 29,-121.67 29,-116.33 29,-116.33 29,-105.67 29,-105.67 29,-100.33 34.33,-95 39.67,-95"/>
</a>
</g>
</g>
<!-- function&#45;3&#45;ImmVal -->
<g id="node7" class="node">
<title>function&#45;3&#45;ImmVal</title>
<g id="a_node7"><a xlink:title="Imm&#45;12: function&#45;3&#45;ImmVal">
<path fill="white" stroke="transparent" d="M312.67,-174C312.67,-174 353.33,-174 353.33,-174 358.67,-174 364,-179.33 364,-184.67 364,-184.67 364,-195.33 364,-195.33 364,-200.67 358.67,-206 353.33,-206 353.33,-206 312.67,-206 312.67,-206 307.33,-206 302,-200.67 302,-195.33 302,-195.33 302,-184.67 302,-184.67 302,-179.33 307.33,-174 312.67,-174"/>
<text text-anchor="start" x="307" y="-186.3" font-family="Helvetica,sans-Serif" font-size="14.00">ImmVal</text>
<path fill="none" stroke="black" d="M312.67,-174C312.67,-174 353.33,-174 353.33,-174 358.67,-174 364,-179.33 364,-184.67 364,-184.67 364,-195.33 364,-195.33 364,-200.67 358.67,-206 353.33,-206 353.33,-206 312.67,-206 312.67,-206 307.33,-206 302,-200.67 302,-195.33 302,-195.33 302,-184.67 302,-184.67 302,-179.33 307.33,-174 312.67,-174"/>
</a>
</g>
</g>
<!-- primitive&#45;i64&#45;0 -->
<g id="node8" class="node">
<title>primitive&#45;i64&#45;0</title>
<g id="a_node8"><a xlink:title="i64&#45;0: primitive&#45;i64&#45;0">
<path fill="white" stroke="transparent" d="M327.67,-95C327.67,-95 338.33,-95 338.33,-95 343.67,-95 349,-100.33 349,-105.67 349,-105.67 349,-116.33 349,-116.33 349,-121.67 343.67,-127 338.33,-127 338.33,-127 327.67,-127 327.67,-127 322.33,-127 317,-121.67 317,-116.33 317,-116.33 317,-105.67 317,-105.67 317,-100.33 322.33,-95 327.67,-95"/>
<text text-anchor="start" x="328" y="-107.3" font-family="Helvetica,sans-Serif" font-size="14.00">0</text>
<path fill="none" stroke="black" d="M327.67,-95C327.67,-95 338.33,-95 338.33,-95 343.67,-95 349,-100.33 349,-105.67 349,-105.67 349,-116.33 349,-116.33 349,-121.67 343.67,-127 338.33,-127 338.33,-127 327.67,-127 327.67,-127 322.33,-127 317,-121.67 317,-116.33 317,-116.33 317,-105.67 317,-105.67 317,-100.33 322.33,-95 327.67,-95"/>
</a>
</g>
</g>
<!-- function&#45;4&#45;ImmVal -->
<g id="node9" class="node">
<title>function&#45;4&#45;ImmVal</title>
<g id="a_node9"><a xlink:title="Imm&#45;14: function&#45;4&#45;ImmVal">
<path fill="white" stroke="transparent" d="M579.67,-95C579.67,-95 620.33,-95 620.33,-95 625.67,-95 631,-100.33 631,-105.67 631,-105.67 631,-116.33 631,-116.33 631,-121.67 625.67,-127 620.33,-127 620.33,-127 579.67,-127 579.67,-127 574.33,-127 569,-121.67 569,-116.33 569,-116.33 569,-105.67 569,-105.67 569,-100.33 574.33,-95 579.67,-95"/>
<text text-anchor="start" x="574" y="-107.3" font-family="Helvetica,sans-Serif" font-size="14.00">ImmVal</text>
<path fill="none" stroke="black" d="M579.67,-95C579.67,-95 620.33,-95 620.33,-95 625.67,-95 631,-100.33 631,-105.67 631,-105.67 631,-116.33 631,-116.33 631,-121.67 625.67,-127 620.33,-127 620.33,-127 579.67,-127 579.67,-127 574.33,-127 569,-121.67 569,-116.33 569,-116.33 569,-105.67 569,-105.67 569,-100.33 574.33,-95 579.67,-95"/>
</a>
</g>
</g>
<!-- primitive&#45;i64&#45;4 -->
<g id="node10" class="node">
<title>primitive&#45;i64&#45;4</title>
<g id="a_node10"><a xlink:title="i64&#45;4: primitive&#45;i64&#45;4">
<path fill="white" stroke="transparent" d="M594.67,-16C594.67,-16 605.33,-16 605.33,-16 610.67,-16 616,-21.33 616,-26.67 616,-26.67 616,-37.33 616,-37.33 616,-42.67 610.67,-48 605.33,-48 605.33,-48 594.67,-48 594.67,-48 589.33,-48 584,-42.67 584,-37.33 584,-37.33 584,-26.67 584,-26.67 584,-21.33 589.33,-16 594.67,-16"/>
<text text-anchor="start" x="595" y="-28.3" font-family="Helvetica,sans-Serif" font-size="14.00">4</text>
<path fill="none" stroke="black" d="M594.67,-16C594.67,-16 605.33,-16 605.33,-16 610.67,-16 616,-21.33 616,-26.67 616,-26.67 616,-37.33 616,-37.33 616,-42.67 610.67,-48 605.33,-48 605.33,-48 594.67,-48 594.67,-48 589.33,-48 584,-42.67 584,-37.33 584,-37.33 584,-26.67 584,-26.67 584,-21.33 589.33,-16 594.67,-16"/>
</a>
</g>
</g>
<!-- function&#45;2&#45;Bne -->
<g id="node11" class="node">
<title>function&#45;2&#45;Bne</title>
<g id="a_node11"><a xlink:title="Inst&#45;17: function&#45;2&#45;Bne">
<path fill="white" stroke="transparent" d="M749.67,-253C749.67,-253 766.33,-253 766.33,-253 771.67,-253 777,-258.33 777,-263.67 777,-263.67 777,-274.33 777,-274.33 777,-279.67 771.67,-285 766.33,-285 766.33,-285 749.67,-285 749.67,-285 744.33,-285 739,-279.67 739,-274.33 739,-274.33 739,-263.67 739,-263.67 739,-258.33 744.33,-253 749.67,-253"/>
<text text-anchor="start" x="744" y="-265.3" font-family="Helvetica,sans-Serif" font-size="14.00">Bne</text>
<path fill="none" stroke="black" d="M749.67,-253C749.67,-253 766.33,-253 766.33,-253 771.67,-253 777,-258.33 777,-263.67 777,-263.67 777,-274.33 777,-274.33 777,-279.67 771.67,-285 766.33,-285 766.33,-285 749.67,-285 749.67,-285 744.33,-285 739,-279.67 739,-274.33 739,-274.33 739,-263.67 739,-263.67 739,-258.33 744.33,-253 749.67,-253"/>
</a>
</g>
</g>
<!-- function&#45;2&#45;RegVal -->
<g id="node12" class="node">
<title>function&#45;2&#45;RegVal</title>
<g id="a_node12"><a xlink:title="Inst&#45;2: function&#45;2&#45;RegVal">
<path fill="white" stroke="transparent" d="M709.17,-174C709.17,-174 744.83,-174 744.83,-174 750.17,-174 755.5,-179.33 755.5,-184.67 755.5,-184.67 755.5,-195.33 755.5,-195.33 755.5,-200.67 750.17,-206 744.83,-206 744.83,-206 709.17,-206 709.17,-206 703.83,-206 698.5,-200.67 698.5,-195.33 698.5,-195.33 698.5,-184.67 698.5,-184.67 698.5,-179.33 703.83,-174 709.17,-174"/>
<text text-anchor="start" x="704" y="-186.3" font-family="Helvetica,sans-Serif" font-size="14.00">RegVal</text>
<path fill="none" stroke="black" d="M709.17,-174C709.17,-174 744.83,-174 744.83,-174 750.17,-174 755.5,-179.33 755.5,-184.67 755.5,-184.67 755.5,-195.33 755.5,-195.33 755.5,-200.67 750.17,-206 744.83,-206 744.83,-206 709.17,-206 709.17,-206 703.83,-206 698.5,-200.67 698.5,-195.33 698.5,-195.33 698.5,-184.67 698.5,-184.67 698.5,-179.33 703.83,-174 709.17,-174"/>
</a>
</g>
</g>
<!-- function&#45;0&#45;Addi -->
<g id="node13" class="node">
<title>function&#45;0&#45;Addi</title>
<g id="a_node13"><a xlink:title="Inst&#45;9: function&#45;0&#45;Addi">
<path fill="white" stroke="transparent" d="M487.17,-174C487.17,-174 506.83,-174 506.83,-174 512.17,-174 517.5,-179.33 517.5,-184.67 517.5,-184.67 517.5,-195.33 517.5,-195.33 517.5,-200.67 512.17,-206 506.83,-206 506.83,-206 487.17,-206 487.17,-206 481.83,-206 476.5,-200.67 476.5,-195.33 476.5,-195.33 476.5,-184.67 476.5,-184.67 476.5,-179.33 481.83,-174 487.17,-174"/>
<text text-anchor="start" x="482" y="-186.3" font-family="Helvetica,sans-Serif" font-size="14.00">Addi</text>
<path fill="none" stroke="black" d="M487.17,-174C487.17,-174 506.83,-174 506.83,-174 512.17,-174 517.5,-179.33 517.5,-184.67 517.5,-184.67 517.5,-195.33 517.5,-195.33 517.5,-200.67 512.17,-206 506.83,-206 506.83,-206 487.17,-206 487.17,-206 481.83,-206 476.5,-200.67 476.5,-195.33 476.5,-195.33 476.5,-184.67 476.5,-184.67 476.5,-179.33 481.83,-174 487.17,-174"/>
</a>
</g>
</g>
<!-- function&#45;3&#45;Bne -->
<g id="node14" class="node">
<title>function&#45;3&#45;Bne</title>
<g id="a_node14"><a xlink:title="Inst&#45;17: function&#45;3&#45;Bne">
<path fill="white" stroke="transparent" d="M691.67,-253C691.67,-253 708.33,-253 708.33,-253 713.67,-253 719,-258.33 719,-263.67 719,-263.67 719,-274.33 719,-274.33 719,-279.67 713.67,-285 708.33,-285 708.33,-285 691.67,-285 691.67,-285 686.33,-285 681,-279.67 681,-274.33 681,-274.33 681,-263.67 681,-263.67 681,-258.33 686.33,-253 691.67,-253"/>
<text text-anchor="start" x="686" y="-265.3" font-family="Helvetica,sans-Serif" font-size="14.00">Bne</text>
<path fill="none" stroke="black" d="M691.67,-253C691.67,-253 708.33,-253 708.33,-253 713.67,-253 719,-258.33 719,-263.67 719,-263.67 719,-274.33 719,-274.33 719,-279.67 713.67,-285 708.33,-285 708.33,-285 691.67,-285 691.67,-285 686.33,-285 681,-279.67 681,-274.33 681,-274.33 681,-263.67 681,-263.67 681,-258.33 686.33,-253 691.67,-253"/>
</a>
</g>
</g>
<!-- function&#45;2&#45;Seq2 -->
<g id="node15" class="node">
<title>function&#45;2&#45;Seq2</title>
<g id="a_node15"><a xlink:title="Inst&#45;17: function&#45;2&#45;Seq2">
<path fill="white" stroke="transparent" d="M629.67,-253C629.67,-253 654.33,-253 654.33,-253 659.67,-253 665,-258.33 665,-263.67 665,-263.67 665,-274.33 665,-274.33 665,-279.67 659.67,-285 654.33,-285 654.33,-285 629.67,-285 629.67,-285 624.33,-285 619,-279.67 619,-274.33 619,-274.33 619,-263.67 619,-263.67 619,-258.33 624.33,-253 629.67,-253"/>
<text text-anchor="start" x="624" y="-265.3" font-family="Helvetica,sans-Serif" font-size="14.00">Seq2</text>
<path fill="none" stroke="black" d="M629.67,-253C629.67,-253 654.33,-253 654.33,-253 659.67,-253 665,-258.33 665,-263.67 665,-263.67 665,-274.33 665,-274.33 665,-279.67 659.67,-285 654.33,-285 654.33,-285 629.67,-285 629.67,-285 624.33,-285 619,-279.67 619,-274.33 619,-274.33 619,-263.67 619,-263.67 619,-258.33 624.33,-253 629.67,-253"/>
</a>
</g>
</g>
<!-- function&#45;1&#45;Seq2 -->
<g id="node16" class="node">
<title>function&#45;1&#45;Seq2</title>
<g id="a_node16"><a xlink:title="Inst&#45;15: function&#45;1&#45;Seq2">
<path fill="white" stroke="transparent" d="M563.67,-253C563.67,-253 588.33,-253 588.33,-253 593.67,-253 599,-258.33 599,-263.67 599,-263.67 599,-274.33 599,-274.33 599,-279.67 593.67,-285 588.33,-285 588.33,-285 563.67,-285 563.67,-285 558.33,-285 553,-279.67 553,-274.33 553,-274.33 553,-263.67 553,-263.67 553,-258.33 558.33,-253 563.67,-253"/>
<text text-anchor="start" x="558" y="-265.3" font-family="Helvetica,sans-Serif" font-size="14.00">Seq2</text>
<path fill="none" stroke="black" d="M563.67,-253C563.67,-253 588.33,-253 588.33,-253 593.67,-253 599,-258.33 599,-263.67 599,-263.67 599,-274.33 599,-274.33 599,-279.67 593.67,-285 588.33,-285 588.33,-285 563.67,-285 563.67,-285 558.33,-285 553,-279.67 553,-274.33 553,-274.33 553,-263.67 553,-263.67 553,-258.33 558.33,-253 563.67,-253"/>
</a>
</g>
</g>
<!-- function&#45;1&#45;Jal -->
<g id="node17" class="node">
<title>function&#45;1&#45;Jal</title>
<g id="a_node17"><a xlink:title="Inst&#45;18: function&#45;1&#45;Jal">
<path fill="white" stroke="transparent" d="M594.67,-174C594.67,-174 605.33,-174 605.33,-174 610.67,-174 616,-179.33 616,-184.67 616,-184.67 616,-195.33 616,-195.33 616,-200.67 610.67,-206 605.33,-206 605.33,-206 594.67,-206 594.67,-206 589.33,-206 584,-200.67 584,-195.33 584,-195.33 584,-184.67 584,-184.67 584,-179.33 589.33,-174 594.67,-174"/>
<text text-anchor="start" x="591.5" y="-186.3" font-family="Helvetica,sans-Serif" font-size="14.00">Jal</text>
<path fill="none" stroke="black" d="M594.67,-174C594.67,-174 605.33,-174 605.33,-174 610.67,-174 616,-179.33 616,-184.67 616,-184.67 616,-195.33 616,-195.33 616,-200.67 610.67,-206 605.33,-206 605.33,-206 594.67,-206 594.67,-206 589.33,-206 584,-200.67 584,-195.33 584,-195.33 584,-184.67 584,-184.67 584,-179.33 589.33,-174 594.67,-174"/>
</a>
</g>
</g>
<!-- function&#45;3&#45;RegVal -->
<g id="node18" class="node">
<title>function&#45;3&#45;RegVal</title>
<g id="a_node18"><a xlink:title="Inst&#45;3: function&#45;3&#45;RegVal">
<path fill="white" stroke="transparent" d="M488.17,-95C488.17,-95 523.83,-95 523.83,-95 529.17,-95 534.5,-100.33 534.5,-105.67 534.5,-105.67 534.5,-116.33 534.5,-116.33 534.5,-121.67 529.17,-127 523.83,-127 523.83,-127 488.17,-127 488.17,-127 482.83,-127 477.5,-121.67 477.5,-116.33 477.5,-116.33 477.5,-105.67 477.5,-105.67 477.5,-100.33 482.83,-95 488.17,-95"/>
<text text-anchor="start" x="483" y="-107.3" font-family="Helvetica,sans-Serif" font-size="14.00">RegVal</text>
<path fill="none" stroke="black" d="M488.17,-95C488.17,-95 523.83,-95 523.83,-95 529.17,-95 534.5,-100.33 534.5,-105.67 534.5,-105.67 534.5,-116.33 534.5,-116.33 534.5,-121.67 529.17,-127 523.83,-127 523.83,-127 488.17,-127 488.17,-127 482.83,-127 477.5,-121.67 477.5,-116.33 477.5,-116.33 477.5,-105.67 477.5,-105.67 477.5,-100.33 482.83,-95 488.17,-95"/>
</a>
</g>
</g>
<!-- function&#45;1&#45;Srli -->
<g id="node19" class="node">
<title>function&#45;1&#45;Srli</title>
<g id="a_node19"><a xlink:title="Inst&#45;11: function&#45;1&#45;Srli">
<path fill="white" stroke="transparent" d="M147.17,-253C147.17,-253 158.83,-253 158.83,-253 164.17,-253 169.5,-258.33 169.5,-263.67 169.5,-263.67 169.5,-274.33 169.5,-274.33 169.5,-279.67 164.17,-285 158.83,-285 158.83,-285 147.17,-285 147.17,-285 141.83,-285 136.5,-279.67 136.5,-274.33 136.5,-274.33 136.5,-263.67 136.5,-263.67 136.5,-258.33 141.83,-253 147.17,-253"/>
<text text-anchor="start" x="142" y="-265.3" font-family="Helvetica,sans-Serif" font-size="14.00">Srli</text>
<path fill="none" stroke="black" d="M147.17,-253C147.17,-253 158.83,-253 158.83,-253 164.17,-253 169.5,-258.33 169.5,-263.67 169.5,-263.67 169.5,-274.33 169.5,-274.33 169.5,-279.67 164.17,-285 158.83,-285 158.83,-285 147.17,-285 147.17,-285 141.83,-285 136.5,-279.67 136.5,-274.33 136.5,-274.33 136.5,-263.67 136.5,-263.67 136.5,-258.33 141.83,-253 147.17,-253"/>
</a>
</g>
</g>
<!-- function&#45;1&#45;RegVal -->
<g id="node20" class="node">
<title>function&#45;1&#45;RegVal</title>
<g id="a_node20"><a xlink:title="Inst&#45;1: function&#45;1&#45;RegVal">
<path fill="white" stroke="transparent" d="M99.17,-174C99.17,-174 134.83,-174 134.83,-174 140.17,-174 145.5,-179.33 145.5,-184.67 145.5,-184.67 145.5,-195.33 145.5,-195.33 145.5,-200.67 140.17,-206 134.83,-206 134.83,-206 99.17,-206 99.17,-206 93.83,-206 88.5,-200.67 88.5,-195.33 88.5,-195.33 88.5,-184.67 88.5,-184.67 88.5,-179.33 93.83,-174 99.17,-174"/>
<text text-anchor="start" x="94" y="-186.3" font-family="Helvetica,sans-Serif" font-size="14.00">RegVal</text>
<path fill="none" stroke="black" d="M99.17,-174C99.17,-174 134.83,-174 134.83,-174 140.17,-174 145.5,-179.33 145.5,-184.67 145.5,-184.67 145.5,-195.33 145.5,-195.33 145.5,-200.67 140.17,-206 134.83,-206 134.83,-206 99.17,-206 99.17,-206 93.83,-206 88.5,-200.67 88.5,-195.33 88.5,-195.33 88.5,-184.67 88.5,-184.67 88.5,-179.33 93.83,-174 99.17,-174"/>
</a>
</g>
</g>
<!-- primitive&#45;String&#45;2 -->
<g id="node21" class="node">
<title>primitive&#45;String&#45;2</title>
<g id="a_node21"><a xlink:title="String&#45;2: primitive&#45;String&#45;2">
<path fill="white" stroke="transparent" d="M710.67,-95C710.67,-95 745.33,-95 745.33,-95 750.67,-95 756,-100.33 756,-105.67 756,-105.67 756,-116.33 756,-116.33 756,-121.67 750.67,-127 745.33,-127 745.33,-127 710.67,-127 710.67,-127 705.33,-127 700,-121.67 700,-116.33 700,-116.33 700,-105.67 700,-105.67 700,-100.33 705.33,-95 710.67,-95"/>
<text text-anchor="start" x="705" y="-107.3" font-family="Helvetica,sans-Serif" font-size="14.00">&quot;s0_0&quot;</text>
<path fill="none" stroke="black" d="M710.67,-95C710.67,-95 745.33,-95 745.33,-95 750.67,-95 756,-100.33 756,-105.67 756,-105.67 756,-116.33 756,-116.33 756,-121.67 750.67,-127 745.33,-127 745.33,-127 710.67,-127 710.67,-127 705.33,-127 700,-121.67 700,-116.33 700,-116.33 700,-105.67 700,-105.67 700,-100.33 705.33,-95 710.67,-95"/>
</a>
</g>
</g>
<!-- function&#45;0&#45;Beq -->
<g id="node22" class="node">
<title>function&#45;0&#45;Beq</title>
<g id="a_node22"><a xlink:title="Inst&#45;15: function&#45;0&#45;Beq">
<path fill="white" stroke="transparent" d="M451.67,-253C451.67,-253 468.33,-253 468.33,-253 473.67,-253 479,-258.33 479,-263.67 479,-263.67 479,-274.33 479,-274.33 479,-279.67 473.67,-285 468.33,-285 468.33,-285 451.67,-285 451.67,-285 446.33,-285 441,-279.67 441,-274.33 441,-274.33 441,-263.67 441,-263.67 441,-258.33 446.33,-253 451.67,-253"/>
<text text-anchor="start" x="446" y="-265.3" font-family="Helvetica,sans-Serif" font-size="14.00">Beq</text>
<path fill="none" stroke="black" d="M451.67,-253C451.67,-253 468.33,-253 468.33,-253 473.67,-253 479,-258.33 479,-263.67 479,-263.67 479,-274.33 479,-274.33 479,-279.67 473.67,-285 468.33,-285 468.33,-285 451.67,-285 451.67,-285 446.33,-285 441,-279.67 441,-274.33 441,-274.33 441,-263.67 441,-263.67 441,-258.33 446.33,-253 451.67,-253"/>
</a>
</g>
</g>
<!-- function&#45;1&#45;Beq -->
<g id="node23" class="node">
<title>function&#45;1&#45;Beq</title>
<g id="a_node23"><a xlink:title="Inst&#45;15: function&#45;1&#45;Beq">
<path fill="white" stroke="transparent" d="M509.67,-253C509.67,-253 526.33,-253 526.33,-253 531.67,-253 537,-258.33 537,-263.67 537,-263.67 537,-274.33 537,-274.33 537,-279.67 531.67,-285 526.33,-285 526.33,-285 509.67,-285 509.67,-285 504.33,-285 499,-279.67 499,-274.33 499,-274.33 499,-263.67 499,-263.67 499,-258.33 504.33,-253 509.67,-253"/>
<text text-anchor="start" x="504" y="-265.3" font-family="Helvetica,sans-Serif" font-size="14.00">Beq</text>
<path fill="none" stroke="black" d="M509.67,-253C509.67,-253 526.33,-253 526.33,-253 531.67,-253 537,-258.33 537,-263.67 537,-263.67 537,-274.33 537,-274.33 537,-279.67 531.67,-285 526.33,-285 526.33,-285 509.67,-285 509.67,-285 504.33,-285 499,-279.67 499,-274.33 499,-274.33 499,-263.67 499,-263.67 499,-258.33 504.33,-253 509.67,-253"/>
</a>
</g>
</g>
<!-- function&#45;0&#45;Srli -->
<g id="node24" class="node">
<title>function&#45;0&#45;Srli</title>
<g id="a_node24"><a xlink:title="Inst&#45;7: function&#45;0&#45;Srli">
<path fill="white" stroke="transparent" d="M213.17,-253C213.17,-253 224.83,-253 224.83,-253 230.17,-253 235.5,-258.33 235.5,-263.67 235.5,-263.67 235.5,-274.33 235.5,-274.33 235.5,-279.67 230.17,-285 224.83,-285 224.83,-285 213.17,-285 213.17,-285 207.83,-285 202.5,-279.67 202.5,-274.33 202.5,-274.33 202.5,-263.67 202.5,-263.67 202.5,-258.33 207.83,-253 213.17,-253"/>
<text text-anchor="start" x="208" y="-265.3" font-family="Helvetica,sans-Serif" font-size="14.00">Srli</text>
<path fill="none" stroke="black" d="M213.17,-253C213.17,-253 224.83,-253 224.83,-253 230.17,-253 235.5,-258.33 235.5,-263.67 235.5,-263.67 235.5,-274.33 235.5,-274.33 235.5,-279.67 230.17,-285 224.83,-285 224.83,-285 213.17,-285 213.17,-285 207.83,-285 202.5,-279.67 202.5,-274.33 202.5,-274.33 202.5,-263.67 202.5,-263.67 202.5,-258.33 207.83,-253 213.17,-253"/>
</a>
</g>
</g>
<!-- function&#45;0&#45;RegVal -->
<g id="node25" class="node">
<title>function&#45;0&#45;RegVal</title>
<g id="a_node25"><a xlink:title="Inst&#45;0: function&#45;0&#45;RegVal">
<path fill="white" stroke="transparent" d="M243.17,-174C243.17,-174 278.83,-174 278.83,-174 284.17,-174 289.5,-179.33 289.5,-184.67 289.5,-184.67 289.5,-195.33 289.5,-195.33 289.5,-200.67 284.17,-206 278.83,-206 278.83,-206 243.17,-206 243.17,-206 237.83,-206 232.5,-200.67 232.5,-195.33 232.5,-195.33 232.5,-184.67 232.5,-184.67 232.5,-179.33 237.83,-174 243.17,-174"/>
<text text-anchor="start" x="238" y="-186.3" font-family="Helvetica,sans-Serif" font-size="14.00">RegVal</text>
<path fill="none" stroke="black" d="M243.17,-174C243.17,-174 278.83,-174 278.83,-174 284.17,-174 289.5,-179.33 289.5,-184.67 289.5,-184.67 289.5,-195.33 289.5,-195.33 289.5,-200.67 284.17,-206 278.83,-206 278.83,-206 243.17,-206 243.17,-206 237.83,-206 232.5,-200.67 232.5,-195.33 232.5,-195.33 232.5,-184.67 232.5,-184.67 232.5,-179.33 237.83,-174 243.17,-174"/>
</a>
</g>
</g>
<!-- primitive&#45;String&#45;3 -->
<g id="node26" class="node">
<title>primitive&#45;String&#45;3</title>
<g id="a_node26"><a xlink:title="String&#45;3: primitive&#45;String&#45;3">
<path fill="white" stroke="transparent" d="M483.17,-16C483.17,-16 530.83,-16 530.83,-16 536.17,-16 541.5,-21.33 541.5,-26.67 541.5,-26.67 541.5,-37.33 541.5,-37.33 541.5,-42.67 536.17,-48 530.83,-48 530.83,-48 483.17,-48 483.17,-48 477.83,-48 472.5,-42.67 472.5,-37.33 472.5,-37.33 472.5,-26.67 472.5,-26.67 472.5,-21.33 477.83,-16 483.17,-16"/>
<text text-anchor="start" x="478" y="-28.3" font-family="Helvetica,sans-Serif" font-size="14.00">&quot;zero_0&quot;</text>
<path fill="none" stroke="black" d="M483.17,-16C483.17,-16 530.83,-16 530.83,-16 536.17,-16 541.5,-21.33 541.5,-26.67 541.5,-26.67 541.5,-37.33 541.5,-37.33 541.5,-42.67 536.17,-48 530.83,-48 530.83,-48 483.17,-48 483.17,-48 477.83,-48 472.5,-42.67 472.5,-37.33 472.5,-37.33 472.5,-26.67 472.5,-26.67 472.5,-21.33 477.83,-16 483.17,-16"/>
</a>
</g>
</g>
<!-- function&#45;0&#45;Bne -->
<g id="node27" class="node">
<title>function&#45;0&#45;Bne</title>
<g id="a_node27"><a xlink:title="Inst&#45;13: function&#45;0&#45;Bne">
<path fill="white" stroke="transparent" d="M468.67,-332C468.67,-332 485.33,-332 485.33,-332 490.67,-332 496,-337.33 496,-342.67 496,-342.67 496,-353.33 496,-353.33 496,-358.67 490.67,-364 485.33,-364 485.33,-364 468.67,-364 468.67,-364 463.33,-364 458,-358.67 458,-353.33 458,-353.33 458,-342.67 458,-342.67 458,-337.33 463.33,-332 468.67,-332"/>
<text text-anchor="start" x="463" y="-344.3" font-family="Helvetica,sans-Serif" font-size="14.00">Bne</text>
<path fill="none" stroke="black" d="M468.67,-332C468.67,-332 485.33,-332 485.33,-332 490.67,-332 496,-337.33 496,-342.67 496,-342.67 496,-353.33 496,-353.33 496,-358.67 490.67,-364 485.33,-364 485.33,-364 468.67,-364 468.67,-364 463.33,-364 458,-358.67 458,-353.33 458,-353.33 458,-342.67 458,-342.67 458,-337.33 463.33,-332 468.67,-332"/>
</a>
</g>
</g>
<!-- function&#45;1&#45;Bne -->
<g id="node28" class="node">
<title>function&#45;1&#45;Bne</title>
<g id="a_node28"><a xlink:title="Inst&#45;13: function&#45;1&#45;Bne">
<path fill="white" stroke="transparent" d="M410.67,-332C410.67,-332 427.33,-332 427.33,-332 432.67,-332 438,-337.33 438,-342.67 438,-342.67 438,-353.33 438,-353.33 438,-358.67 432.67,-364 427.33,-364 427.33,-364 410.67,-364 410.67,-364 405.33,-364 400,-358.67 400,-353.33 400,-353.33 400,-342.67 400,-342.67 400,-337.33 405.33,-332 410.67,-332"/>
<text text-anchor="start" x="405" y="-344.3" font-family="Helvetica,sans-Serif" font-size="14.00">Bne</text>
<path fill="none" stroke="black" d="M410.67,-332C410.67,-332 427.33,-332 427.33,-332 432.67,-332 438,-337.33 438,-342.67 438,-342.67 438,-353.33 438,-353.33 438,-358.67 432.67,-364 427.33,-364 427.33,-364 410.67,-364 410.67,-364 405.33,-364 400,-358.67 400,-353.33 400,-353.33 400,-342.67 400,-342.67 400,-337.33 405.33,-332 410.67,-332"/>
</a>
</g>
</g>
<!-- function&#45;0&#45;Seq2 -->
<g id="node29" class="node">
<title>function&#45;0&#45;Seq2</title>
<g id="a_node29"><a xlink:title="Inst&#45;13: function&#45;0&#45;Seq2">
<path fill="white" stroke="transparent" d="M348.67,-332C348.67,-332 373.33,-332 373.33,-332 378.67,-332 384,-337.33 384,-342.67 384,-342.67 384,-353.33 384,-353.33 384,-358.67 378.67,-364 373.33,-364 373.33,-364 348.67,-364 348.67,-364 343.33,-364 338,-358.67 338,-353.33 338,-353.33 338,-342.67 338,-342.67 338,-337.33 343.33,-332 348.67,-332"/>
<text text-anchor="start" x="343" y="-344.3" font-family="Helvetica,sans-Serif" font-size="14.00">Seq2</text>
<path fill="none" stroke="black" d="M348.67,-332C348.67,-332 373.33,-332 373.33,-332 378.67,-332 384,-337.33 384,-342.67 384,-342.67 384,-353.33 384,-353.33 384,-358.67 378.67,-364 373.33,-364 373.33,-364 348.67,-364 348.67,-364 343.33,-364 338,-358.67 338,-353.33 338,-353.33 338,-342.67 338,-342.67 338,-337.33 343.33,-332 348.67,-332"/>
</a>
</g>
</g>
<!-- function&#45;0&#45;Jal -->
<g id="node30" class="node">
<title>function&#45;0&#45;Jal</title>
<g id="a_node30"><a xlink:title="Inst&#45;16: function&#45;0&#45;Jal">
<path fill="white" stroke="transparent" d="M366.67,-253C366.67,-253 377.33,-253 377.33,-253 382.67,-253 388,-258.33 388,-263.67 388,-263.67 388,-274.33 388,-274.33 388,-279.67 382.67,-285 377.33,-285 377.33,-285 366.67,-285 366.67,-285 361.33,-285 356,-279.67 356,-274.33 356,-274.33 356,-263.67 356,-263.67 356,-258.33 361.33,-253 366.67,-253"/>
<text text-anchor="start" x="363.5" y="-265.3" font-family="Helvetica,sans-Serif" font-size="14.00">Jal</text>
<path fill="none" stroke="black" d="M366.67,-253C366.67,-253 377.33,-253 377.33,-253 382.67,-253 388,-258.33 388,-263.67 388,-263.67 388,-274.33 388,-274.33 388,-279.67 382.67,-285 377.33,-285 377.33,-285 366.67,-285 366.67,-285 361.33,-285 356,-279.67 356,-274.33 356,-274.33 356,-263.67 356,-263.67 356,-258.33 361.33,-253 366.67,-253"/>
</a>
</g>
</g>
<!-- function&#45;0&#45;Or -->
<g id="node31" class="node">
<title>function&#45;0&#45;Or</title>
<g id="a_node31"><a xlink:title="Inst&#45;10: function&#45;0&#45;Or">
<path fill="white" stroke="transparent" d="M168.67,-332C168.67,-332 179.33,-332 179.33,-332 184.67,-332 190,-337.33 190,-342.67 190,-342.67 190,-353.33 190,-353.33 190,-358.67 184.67,-364 179.33,-364 179.33,-364 168.67,-364 168.67,-364 163.33,-364 158,-358.67 158,-353.33 158,-353.33 158,-342.67 158,-342.67 158,-337.33 163.33,-332 168.67,-332"/>
<text text-anchor="start" x="165" y="-344.3" font-family="Helvetica,sans-Serif" font-size="14.00">Or</text>
<path fill="none" stroke="black" d="M168.67,-332C168.67,-332 179.33,-332 179.33,-332 184.67,-332 190,-337.33 190,-342.67 190,-342.67 190,-353.33 190,-353.33 190,-358.67 184.67,-364 179.33,-364 179.33,-364 168.67,-364 168.67,-364 163.33,-364 158,-358.67 158,-353.33 158,-353.33 158,-342.67 158,-342.67 158,-337.33 163.33,-332 168.67,-332"/>
</a>
</g>
</g>
<!-- function&#45;0&#45;Slli -->
<g id="node32" class="node">
<title>function&#45;0&#45;Slli</title>
<g id="a_node32"><a xlink:title="Inst&#45;5: function&#45;0&#45;Slli">
<path fill="white" stroke="transparent" d="M81.67,-253C81.67,-253 92.33,-253 92.33,-253 97.67,-253 103,-258.33 103,-263.67 103,-263.67 103,-274.33 103,-274.33 103,-279.67 97.67,-285 92.33,-285 92.33,-285 81.67,-285 81.67,-285 76.33,-285 71,-279.67 71,-274.33 71,-274.33 71,-263.67 71,-263.67 71,-258.33 76.33,-253 81.67,-253"/>
<text text-anchor="start" x="76.5" y="-265.3" font-family="Helvetica,sans-Serif" font-size="14.00">Slli</text>
<path fill="none" stroke="black" d="M81.67,-253C81.67,-253 92.33,-253 92.33,-253 97.67,-253 103,-258.33 103,-263.67 103,-263.67 103,-274.33 103,-274.33 103,-279.67 97.67,-285 92.33,-285 92.33,-285 81.67,-285 81.67,-285 76.33,-285 71,-279.67 71,-274.33 71,-274.33 71,-263.67 71,-263.67 71,-258.33 76.33,-253 81.67,-253"/>
</a>
</g>
</g>
<!-- function&#45;1&#45;Or -->
<g id="node33" class="node">
<title>function&#45;1&#45;Or</title>
<g id="a_node33"><a xlink:title="Inst&#45;10: function&#45;1&#45;Or">
<path fill="white" stroke="transparent" d="M110.67,-332C110.67,-332 121.33,-332 121.33,-332 126.67,-332 132,-337.33 132,-342.67 132,-342.67 132,-353.33 132,-353.33 132,-358.67 126.67,-364 121.33,-364 121.33,-364 110.67,-364 110.67,-364 105.33,-364 100,-358.67 100,-353.33 100,-353.33 100,-342.67 100,-342.67 100,-337.33 105.33,-332 110.67,-332"/>
<text text-anchor="start" x="107" y="-344.3" font-family="Helvetica,sans-Serif" font-size="14.00">Or</text>
<path fill="none" stroke="black" d="M110.67,-332C110.67,-332 121.33,-332 121.33,-332 126.67,-332 132,-337.33 132,-342.67 132,-342.67 132,-353.33 132,-353.33 132,-358.67 126.67,-364 121.33,-364 121.33,-364 110.67,-364 110.67,-364 105.33,-364 100,-358.67 100,-353.33 100,-353.33 100,-342.67 100,-342.67 100,-337.33 105.33,-332 110.67,-332"/>
</a>
</g>
</g>
<!-- primitive&#45;String&#45;1 -->
<g id="node34" class="node">
<title>primitive&#45;String&#45;1</title>
<g id="a_node34"><a xlink:title="String&#45;1: primitive&#45;String&#45;1">
<path fill="white" stroke="transparent" d="M100.17,-95C100.17,-95 135.83,-95 135.83,-95 141.17,-95 146.5,-100.33 146.5,-105.67 146.5,-105.67 146.5,-116.33 146.5,-116.33 146.5,-121.67 141.17,-127 135.83,-127 135.83,-127 100.17,-127 100.17,-127 94.83,-127 89.5,-121.67 89.5,-116.33 89.5,-116.33 89.5,-105.67 89.5,-105.67 89.5,-100.33 94.83,-95 100.17,-95"/>
<text text-anchor="start" x="95" y="-107.3" font-family="Helvetica,sans-Serif" font-size="14.00">&quot;a5_0&quot;</text>
<path fill="none" stroke="black" d="M100.17,-95C100.17,-95 135.83,-95 135.83,-95 141.17,-95 146.5,-100.33 146.5,-105.67 146.5,-105.67 146.5,-116.33 146.5,-116.33 146.5,-121.67 141.17,-127 135.83,-127 135.83,-127 100.17,-127 100.17,-127 94.83,-127 89.5,-121.67 89.5,-116.33 89.5,-116.33 89.5,-105.67 89.5,-105.67 89.5,-100.33 94.83,-95 100.17,-95"/>
</a>
</g>
</g>
<!-- primitive&#45;String&#45;0 -->
<g id="node35" class="node">
<title>primitive&#45;String&#45;0</title>
<g id="a_node35"><a xlink:title="String&#45;0: primitive&#45;String&#45;0">
<path fill="white" stroke="transparent" d="M244.17,-95C244.17,-95 279.83,-95 279.83,-95 285.17,-95 290.5,-100.33 290.5,-105.67 290.5,-105.67 290.5,-116.33 290.5,-116.33 290.5,-121.67 285.17,-127 279.83,-127 279.83,-127 244.17,-127 244.17,-127 238.83,-127 233.5,-121.67 233.5,-116.33 233.5,-116.33 233.5,-105.67 233.5,-105.67 233.5,-100.33 238.83,-95 244.17,-95"/>
<text text-anchor="start" x="239" y="-107.3" font-family="Helvetica,sans-Serif" font-size="14.00">&quot;a2_0&quot;</text>
<path fill="none" stroke="black" d="M244.17,-95C244.17,-95 279.83,-95 279.83,-95 285.17,-95 290.5,-100.33 290.5,-105.67 290.5,-105.67 290.5,-116.33 290.5,-116.33 290.5,-121.67 285.17,-127 279.83,-127 279.83,-127 244.17,-127 244.17,-127 238.83,-127 233.5,-121.67 233.5,-116.33 233.5,-116.33 233.5,-105.67 233.5,-105.67 233.5,-100.33 238.83,-95 244.17,-95"/>
</a>
</g>
</g>
</g>
</svg>
