<?xml version="1.0" encoding="UTF-8" standalone="no"?>
<!DOCTYPE svg PUBLIC "-//W3C//DTD SVG 1.1//EN"
 "http://www.w3.org/Graphics/SVG/1.1/DTD/svg11.dtd">
<!-- Generated by graphviz version 2.43.0 (0)
 -->
<!-- Title: %3 Pages: 1 -->
<svg width="861pt" height="309pt"
 viewBox="0.00 0.00 861.00 309.00" xmlns="http://www.w3.org/2000/svg" xmlns:xlink="http://www.w3.org/1999/xlink">
<g id="graph0" class="graph" transform="scale(1 1) rotate(0) translate(4 305)">
<title>%3</title>
<polygon fill="white" stroke="#000000" points="-4,4 -4,-305 857,-305 857,4 -4,4"/>
<g id="clust1" class="cluster">
<title>outer_cluster_Imm&#45;11</title>
</g>
<g id="clust2" class="cluster">
<title>cluster_Imm&#45;11</title>
<path fill="#ffffb3" stroke="black" stroke-dasharray="5,2" d="M23,-169C23,-169 67,-169 67,-169 73,-169 79,-175 79,-181 79,-181 79,-199 79,-199 79,-205 73,-211 67,-211 67,-211 23,-211 23,-211 17,-211 11,-205 11,-199 11,-199 11,-181 11,-181 11,-175 17,-169 23,-169"/>
</g>
<g id="clust4" class="cluster">
<title>outer_cluster_Imm&#45;9</title>
</g>
<g id="clust5" class="cluster">
<title>cluster_Imm&#45;9</title>
<path fill="#ffffb3" stroke="black" stroke-dasharray="5,2" d="M97,-169C97,-169 141,-169 141,-169 147,-169 153,-175 153,-181 153,-181 153,-199 153,-199 153,-205 147,-211 141,-211 141,-211 97,-211 97,-211 91,-211 85,-205 85,-199 85,-199 85,-181 85,-181 85,-175 91,-169 97,-169"/>
</g>
<g id="clust7" class="cluster">
<title>outer_cluster_Inst&#45;14</title>
</g>
<g id="clust8" class="cluster">
<title>cluster_Inst&#45;14</title>
<path fill="#bebada" stroke="black" stroke-dasharray="5,2" d="M387,-169C387,-169 481,-169 481,-169 487,-169 493,-175 493,-181 493,-181 493,-199 493,-199 493,-205 487,-211 481,-211 481,-211 387,-211 387,-211 381,-211 375,-205 375,-199 375,-199 375,-181 375,-181 375,-175 381,-169 387,-169"/>
</g>
<g id="clust10" class="cluster">
<title>outer_cluster_Inst&#45;5</title>
</g>
<g id="clust11" class="cluster">
<title>cluster_Inst&#45;5</title>
<path fill="#bebada" stroke="black" stroke-dasharray="5,2" d="M718,-248C718,-248 812,-248 812,-248 818,-248 824,-254 824,-260 824,-260 824,-278 824,-278 824,-284 818,-290 812,-290 812,-290 718,-290 718,-290 712,-290 706,-284 706,-278 706,-278 706,-260 706,-260 706,-254 712,-248 718,-248"/>
</g>
<g id="clust13" class="cluster">
<title>outer_cluster_Inst&#45;12</title>
</g>
<g id="clust14" class="cluster">
<title>cluster_Inst&#45;12</title>
<path fill="#bebada" stroke="black" stroke-dasharray="5,2" d="M27,-248C27,-248 63,-248 63,-248 69,-248 75,-254 75,-260 75,-260 75,-278 75,-278 75,-284 69,-290 63,-290 63,-290 27,-290 27,-290 21,-290 15,-284 15,-278 15,-278 15,-260 15,-260 15,-254 21,-248 27,-248"/>
</g>
<g id="clust16" class="cluster">
<title>outer_cluster_Inst&#45;13</title>
</g>
<g id="clust17" class="cluster">
<title>cluster_Inst&#45;13</title>
<path fill="#bebada" stroke="black" stroke-dasharray="5,2" d="M533,-169C533,-169 627,-169 627,-169 633,-169 639,-175 639,-181 639,-181 639,-199 639,-199 639,-205 633,-211 627,-211 627,-211 533,-211 533,-211 527,-211 521,-205 521,-199 521,-199 521,-181 521,-181 521,-175 527,-169 533,-169"/>
</g>
<g id="clust19" class="cluster">
<title>outer_cluster_Inst&#45;2</title>
</g>
<g id="clust20" class="cluster">
<title>cluster_Inst&#45;2</title>
<path fill="#bebada" stroke="black" stroke-dasharray="5,2" d="M290,-90C290,-90 330,-90 330,-90 336,-90 342,-96 342,-102 342,-102 342,-120 342,-120 342,-126 336,-132 330,-132 330,-132 290,-132 290,-132 284,-132 278,-126 278,-120 278,-120 278,-102 278,-102 278,-96 284,-90 290,-90"/>
</g>
<g id="clust22" class="cluster">
<title>outer_cluster_Inst&#45;3</title>
</g>
<g id="clust23" class="cluster">
<title>cluster_Inst&#45;3</title>
<path fill="#bebada" stroke="black" stroke-dasharray="5,2" d="M487,-90C487,-90 527,-90 527,-90 533,-90 539,-96 539,-102 539,-102 539,-120 539,-120 539,-126 533,-132 527,-132 527,-132 487,-132 487,-132 481,-132 475,-126 475,-120 475,-120 475,-102 475,-102 475,-96 481,-90 487,-90"/>
</g>
<g id="clust25" class="cluster">
<title>outer_cluster_Inst&#45;7</title>
</g>
<g id="clust26" class="cluster">
<title>cluster_Inst&#45;7</title>
<path fill="#bebada" stroke="black" stroke-dasharray="5,2" d="M575,-90C575,-90 615,-90 615,-90 621,-90 627,-96 627,-102 627,-102 627,-120 627,-120 627,-126 621,-132 615,-132 615,-132 575,-132 575,-132 569,-132 563,-126 563,-120 563,-120 563,-102 563,-102 563,-96 569,-90 575,-90"/>
</g>
<g id="clust28" class="cluster">
<title>outer_cluster_Inst&#45;4</title>
</g>
<g id="clust29" class="cluster">
<title>cluster_Inst&#45;4</title>
<path fill="#bebada" stroke="black" stroke-dasharray="5,2" d="M171,-169C171,-169 211,-169 211,-169 217,-169 223,-175 223,-181 223,-181 223,-199 223,-199 223,-205 217,-211 211,-211 211,-211 171,-211 171,-211 165,-211 159,-205 159,-199 159,-199 159,-181 159,-181 159,-175 165,-169 171,-169"/>
</g>
<g id="clust31" class="cluster">
<title>outer_cluster_Inst&#45;1</title>
</g>
<g id="clust32" class="cluster">
<title>cluster_Inst&#45;1</title>
<path fill="#bebada" stroke="black" stroke-dasharray="5,2" d="M789,-169C789,-169 829,-169 829,-169 835,-169 841,-175 841,-181 841,-181 841,-199 841,-199 841,-205 835,-211 829,-211 829,-211 789,-211 789,-211 783,-211 777,-205 777,-199 777,-199 777,-181 777,-181 777,-175 783,-169 789,-169"/>
</g>
<g id="clust34" class="cluster">
<title>outer_cluster_Inst&#45;8</title>
</g>
<g id="clust35" class="cluster">
<title>cluster_Inst&#45;8</title>
<path fill="#bebada" stroke="black" stroke-dasharray="5,2" d="M362,-248C362,-248 688,-248 688,-248 694,-248 700,-254 700,-260 700,-260 700,-278 700,-278 700,-284 694,-290 688,-290 688,-290 362,-290 362,-290 356,-290 350,-284 350,-278 350,-278 350,-260 350,-260 350,-254 356,-248 362,-248"/>
</g>
<g id="clust37" class="cluster">
<title>outer_cluster_Inst&#45;0</title>
</g>
<g id="clust38" class="cluster">
<title>cluster_Inst&#45;0</title>
<path fill="#bebada" stroke="black" stroke-dasharray="5,2" d="M719,-169C719,-169 759,-169 759,-169 765,-169 771,-175 771,-181 771,-181 771,-199 771,-199 771,-205 765,-211 759,-211 759,-211 719,-211 719,-211 713,-211 707,-205 707,-199 707,-199 707,-181 707,-181 707,-175 713,-169 719,-169"/>
</g>
<g id="clust40" class="cluster">
<title>outer_cluster_Inst&#45;6</title>
</g>
<g id="clust41" class="cluster">
<title>cluster_Inst&#45;6</title>
<path fill="#bebada" stroke="black" stroke-dasharray="5,2" d="M263,-169C263,-169 357,-169 357,-169 363,-169 369,-175 369,-181 369,-181 369,-199 369,-199 369,-205 363,-211 357,-211 357,-211 263,-211 263,-211 257,-211 251,-205 251,-199 251,-199 251,-181 251,-181 251,-175 257,-169 263,-169"/>
</g>
<g id="clust43" class="cluster">
<title>outer_cluster_Inst&#45;10</title>
</g>
<g id="clust44" class="cluster">
<title>cluster_Inst&#45;10</title>
<path fill="#bebada" stroke="black" stroke-dasharray="5,2" d="M138,-248C138,-248 174,-248 174,-248 180,-248 186,-254 186,-260 186,-260 186,-278 186,-278 186,-284 180,-290 174,-290 174,-290 138,-290 138,-290 132,-290 126,-284 126,-278 126,-278 126,-260 126,-260 126,-254 132,-248 138,-248"/>
</g>
<g id="clust46" class="cluster">
<title>outer_cluster_String&#45;3</title>
</g>
<g id="clust47" class="cluster">
<title>cluster_String&#45;3</title>
<path fill="#fb8072" stroke="black" stroke-dasharray="5,2" d="M488,-11C488,-11 528,-11 528,-11 534,-11 540,-17 540,-23 540,-23 540,-41 540,-41 540,-47 534,-53 528,-53 528,-53 488,-53 488,-53 482,-53 476,-47 476,-41 476,-41 476,-23 476,-23 476,-17 482,-11 488,-11"/>
</g>
<g id="clust49" class="cluster">
<title>outer_cluster_String&#45;0</title>
</g>
<g id="clust50" class="cluster">
<title>cluster_String&#45;0</title>
<path fill="#fb8072" stroke="black" stroke-dasharray="5,2" d="M720,-90C720,-90 760,-90 760,-90 766,-90 772,-96 772,-102 772,-102 772,-120 772,-120 772,-126 766,-132 760,-132 760,-132 720,-132 720,-132 714,-132 708,-126 708,-120 708,-120 708,-102 708,-102 708,-96 714,-90 720,-90"/>
</g>
<g id="clust52" class="cluster">
<title>outer_cluster_String&#45;1</title>
</g>
<g id="clust53" class="cluster">
<title>cluster_String&#45;1</title>
<path fill="#fb8072" stroke="black" stroke-dasharray="5,2" d="M790,-90C790,-90 830,-90 830,-90 836,-90 842,-96 842,-102 842,-102 842,-120 842,-120 842,-126 836,-132 830,-132 830,-132 790,-132 790,-132 784,-132 778,-126 778,-120 778,-120 778,-102 778,-102 778,-96 784,-90 790,-90"/>
</g>
<g id="clust55" class="cluster">
<title>outer_cluster_String&#45;2</title>
</g>
<g id="clust56" class="cluster">
<title>cluster_String&#45;2</title>
<path fill="#fb8072" stroke="black" stroke-dasharray="5,2" d="M291,-11C291,-11 331,-11 331,-11 337,-11 343,-17 343,-23 343,-23 343,-41 343,-41 343,-47 337,-53 331,-53 331,-53 291,-53 291,-53 285,-53 279,-47 279,-41 279,-41 279,-23 279,-23 279,-17 285,-11 291,-11"/>
</g>
<g id="clust58" class="cluster">
<title>outer_cluster_String&#45;5</title>
</g>
<g id="clust59" class="cluster">
<title>cluster_String&#45;5</title>
<path fill="#fb8072" stroke="black" stroke-dasharray="5,2" d="M576,-11C576,-11 616,-11 616,-11 622,-11 628,-17 628,-23 628,-23 628,-41 628,-41 628,-47 622,-53 616,-53 616,-53 576,-53 576,-53 570,-53 564,-47 564,-41 564,-41 564,-23 564,-23 564,-17 570,-11 576,-11"/>
</g>
<g id="clust61" class="cluster">
<title>outer_cluster_String&#45;4</title>
</g>
<g id="clust62" class="cluster">
<title>cluster_String&#45;4</title>
<path fill="#fb8072" stroke="black" stroke-dasharray="5,2" d="M166,-90C166,-90 218,-90 218,-90 224,-90 230,-96 230,-102 230,-102 230,-120 230,-120 230,-126 224,-132 218,-132 218,-132 166,-132 166,-132 160,-132 154,-126 154,-120 154,-120 154,-102 154,-102 154,-96 160,-90 166,-90"/>
</g>
<g id="clust64" class="cluster">
<title>outer_cluster_i64&#45;1</title>
</g>
<g id="clust65" class="cluster">
<title>cluster_i64&#45;1</title>
<path fill="#80b1d3" stroke="black" stroke-dasharray="5,2" d="M100,-90C100,-90 136,-90 136,-90 142,-90 148,-96 148,-102 148,-102 148,-120 148,-120 148,-126 142,-132 136,-132 136,-132 100,-132 100,-132 94,-132 88,-126 88,-120 88,-120 88,-102 88,-102 88,-96 94,-90 100,-90"/>
</g>
<g id="clust67" class="cluster">
<title>outer_cluster_i64&#45;0</title>
</g>
<g id="clust68" class="cluster">
<title>cluster_i64&#45;0</title>
<path fill="#80b1d3" stroke="black" stroke-dasharray="5,2" d="M27,-90C27,-90 63,-90 63,-90 69,-90 75,-96 75,-102 75,-102 75,-120 75,-120 75,-126 69,-132 63,-132 63,-132 27,-132 27,-132 21,-132 15,-126 15,-120 15,-120 15,-102 15,-102 15,-96 21,-90 27,-90"/>
</g>
<!-- function&#45;1&#45;ImmVal&#45;&gt;primitive&#45;i64&#45;0 -->
<g id="edge1" class="edge">
<title>function&#45;1&#45;ImmVal:s&#45;&gt;primitive&#45;i64&#45;0</title>
<path fill="none" stroke="black" d="M45,-174C45,-160.84 45,-146.11 45,-134.3"/>
<polygon fill="black" stroke="black" points="46.75,-137 45,-132 43.25,-137 46.75,-137"/>
</g>
<!-- function&#45;0&#45;ImmVal&#45;&gt;primitive&#45;i64&#45;1 -->
<g id="edge2" class="edge">
<title>function&#45;0&#45;ImmVal:s&#45;&gt;primitive&#45;i64&#45;1</title>
<path fill="none" stroke="black" d="M119,-174C119,-160.84 118.77,-146.1 118.53,-134.3"/>
<polygon fill="black" stroke="black" points="120.41,-136.91 118.42,-132 116.91,-137.08 120.41,-136.91"/>
</g>
<!-- function&#45;10&#45;Add&#45;&gt;function&#45;2&#45;RegVal -->
<g id="edge3" class="edge">
<title>function&#45;10&#45;Add:s&#45;&gt;function&#45;2&#45;RegVal</title>
<path fill="none" stroke="black" d="M454,-174C454,-126.27 386.42,-114.84 343.86,-112.37"/>
<polygon fill="black" stroke="black" points="347.19,-111.07 342,-112.11 346.71,-114.54 347.19,-111.07"/>
</g>
<!-- function&#45;10&#45;Add&#45;&gt;function&#45;5&#45;RegVal -->
<g id="edge4" class="edge">
<title>function&#45;10&#45;Add:s&#45;&gt;function&#45;5&#45;RegVal</title>
<path fill="none" stroke="black" d="M472,-174C472,-168.97 525.25,-143.72 561.67,-127.03"/>
<polygon fill="black" stroke="black" points="560.45,-130.48 563,-125.84 558.11,-127.88 560.45,-130.48"/>
</g>
<!-- function&#45;2&#45;RegVal&#45;&gt;primitive&#45;String&#45;2 -->
<g id="edge16" class="edge">
<title>function&#45;2&#45;RegVal:s&#45;&gt;primitive&#45;String&#45;2</title>
<path fill="none" stroke="black" d="M311,-95C311,-81.84 311,-67.11 311,-55.3"/>
<polygon fill="black" stroke="black" points="312.75,-58 311,-53 309.25,-58 312.75,-58"/>
</g>
<!-- function&#45;5&#45;RegVal&#45;&gt;primitive&#45;String&#45;5 -->
<g id="edge18" class="edge">
<title>function&#45;5&#45;RegVal:s&#45;&gt;primitive&#45;String&#45;5</title>
<path fill="none" stroke="black" d="M596,-95C596,-81.84 596,-67.11 596,-55.3"/>
<polygon fill="black" stroke="black" points="597.75,-58 596,-53 594.25,-58 597.75,-58"/>
</g>
<!-- function&#45;12&#45;Add&#45;&gt;function&#45;2&#45;RegVal -->
<g id="edge6" class="edge">
<title>function&#45;12&#45;Add:s&#45;&gt;function&#45;2&#45;RegVal</title>
<path fill="none" stroke="black" d="M414,-174C414,-140.72 374.21,-124.89 343.86,-117.65"/>
<polygon fill="black" stroke="black" points="347.16,-117.67 342,-116.48 345.3,-120.63 347.16,-117.67"/>
</g>
<!-- function&#45;12&#45;Add&#45;&gt;function&#45;5&#45;RegVal -->
<g id="edge5" class="edge">
<title>function&#45;12&#45;Add:s&#45;&gt;function&#45;5&#45;RegVal</title>
<path fill="none" stroke="black" d="M396,-174C396,-107.69 477.28,-156.5 540,-135 547.08,-132.57 554.55,-129.68 561.62,-126.78"/>
<polygon fill="black" stroke="black" points="559.99,-130.14 563,-125.78 557.93,-127.31 559.99,-130.14"/>
</g>
<!-- function&#45;0&#45;Add&#45;&gt;function&#45;0&#45;RegVal -->
<g id="edge7" class="edge">
<title>function&#45;0&#45;Add:s&#45;&gt;function&#45;0&#45;RegVal</title>
<path fill="none" stroke="black" d="M785,-253C785,-237.1 775.13,-222.63 764.53,-211.67"/>
<polygon fill="black" stroke="black" points="768.21,-211.32 762.92,-211 766.86,-214.54 768.21,-211.32"/>
</g>
<!-- function&#45;0&#45;Add&#45;&gt;function&#45;1&#45;RegVal -->
<g id="edge8" class="edge">
<title>function&#45;0&#45;Add:s&#45;&gt;function&#45;1&#45;RegVal</title>
<path fill="none" stroke="black" d="M803,-253C803,-239.78 804.37,-225.04 805.8,-213.25"/>
<polygon fill="black" stroke="black" points="806.74,-216.29 806.46,-211 803.38,-215.31 806.74,-216.29"/>
</g>
<!-- function&#45;0&#45;RegVal&#45;&gt;primitive&#45;String&#45;0 -->
<g id="edge33" class="edge">
<title>function&#45;0&#45;RegVal:s&#45;&gt;primitive&#45;String&#45;0</title>
<path fill="none" stroke="black" d="M740,-174C740,-160.84 740,-146.11 740,-134.3"/>
<polygon fill="black" stroke="black" points="741.75,-137 740,-132 738.25,-137 741.75,-137"/>
</g>
<!-- function&#45;1&#45;RegVal&#45;&gt;primitive&#45;String&#45;1 -->
<g id="edge20" class="edge">
<title>function&#45;1&#45;RegVal:s&#45;&gt;primitive&#45;String&#45;1</title>
<path fill="none" stroke="black" d="M810,-174C810,-160.84 810,-146.11 810,-134.3"/>
<polygon fill="black" stroke="black" points="811.75,-137 810,-132 808.25,-137 811.75,-137"/>
</g>
<!-- function&#45;3&#45;Add&#45;&gt;function&#45;0&#45;RegVal -->
<g id="edge10" class="edge">
<title>function&#45;3&#45;Add:s&#45;&gt;function&#45;0&#45;RegVal</title>
<path fill="none" stroke="black" d="M745,-253C745,-239.78 743.63,-225.04 742.2,-213.25"/>
<polygon fill="black" stroke="black" points="744.62,-215.31 741.54,-211 741.26,-216.29 744.62,-215.31"/>
</g>
<!-- function&#45;3&#45;Add&#45;&gt;function&#45;1&#45;RegVal -->
<g id="edge9" class="edge">
<title>function&#45;3&#45;Add:s&#45;&gt;function&#45;1&#45;RegVal</title>
<path fill="none" stroke="black" d="M727,-253C727,-246.36 754.68,-226.51 777.88,-211.04"/>
<polygon fill="black" stroke="black" points="773.42,-213.39 778.15,-211 772.96,-209.92 773.42,-213.39"/>
</g>
<!-- function&#45;0&#45;Jal&#45;&gt;function&#45;1&#45;ImmVal -->
<g id="edge11" class="edge">
<title>function&#45;0&#45;Jal:s&#45;&gt;function&#45;1&#45;ImmVal</title>
<path fill="none" stroke="black" d="M45,-253C45,-239.84 45,-225.11 45,-213.3"/>
<polygon fill="black" stroke="black" points="46.75,-216 45,-211 43.25,-216 46.75,-216"/>
</g>
<!-- function&#45;6&#45;Add&#45;&gt;function&#45;5&#45;RegVal -->
<g id="edge13" class="edge">
<title>function&#45;6&#45;Add:s&#45;&gt;function&#45;5&#45;RegVal</title>
<path fill="none" stroke="black" d="M618,-174C618,-160.04 612.81,-145.35 607.36,-133.77"/>
<polygon fill="black" stroke="black" points="610.43,-134.94 606.02,-132 607.64,-137.05 610.43,-134.94"/>
</g>
<!-- function&#45;6&#45;Add&#45;&gt;function&#45;3&#45;RegVal -->
<g id="edge12" class="edge">
<title>function&#45;6&#45;Add:s&#45;&gt;function&#45;3&#45;RegVal</title>
<path fill="none" stroke="black" d="M600,-174C600,-159.19 566.93,-139.99 540.22,-126.91"/>
<polygon fill="black" stroke="black" points="543.79,-127.97 539,-125.7 541.33,-130.46 543.79,-127.97"/>
</g>
<!-- function&#45;3&#45;RegVal&#45;&gt;primitive&#45;String&#45;3 -->
<g id="edge17" class="edge">
<title>function&#45;3&#45;RegVal:s&#45;&gt;primitive&#45;String&#45;3</title>
<path fill="none" stroke="black" d="M508,-95C508,-81.84 508,-67.11 508,-55.3"/>
<polygon fill="black" stroke="black" points="509.75,-58 508,-53 506.25,-58 509.75,-58"/>
</g>
<!-- function&#45;8&#45;Add&#45;&gt;function&#45;5&#45;RegVal -->
<g id="edge14" class="edge">
<title>function&#45;8&#45;Add:s&#45;&gt;function&#45;5&#45;RegVal</title>
<path fill="none" stroke="black" d="M542,-174C542,-157.59 552.86,-143.33 564.75,-132.64"/>
<polygon fill="black" stroke="black" points="562.43,-136.08 565.81,-132 560.62,-133.08 562.43,-136.08"/>
</g>
<!-- function&#45;8&#45;Add&#45;&gt;function&#45;3&#45;RegVal -->
<g id="edge15" class="edge">
<title>function&#45;8&#45;Add:s&#45;&gt;function&#45;3&#45;RegVal</title>
<path fill="none" stroke="black" d="M560,-174C560,-157.59 549.14,-143.33 537.25,-132.64"/>
<polygon fill="black" stroke="black" points="541.38,-133.08 536.19,-132 539.57,-136.08 541.38,-133.08"/>
</g>
<!-- function&#45;4&#45;RegVal&#45;&gt;primitive&#45;String&#45;4 -->
<g id="edge19" class="edge">
<title>function&#45;4&#45;RegVal:s&#45;&gt;primitive&#45;String&#45;4</title>
<path fill="none" stroke="black" d="M192,-174C192,-160.84 192,-146.11 192,-134.3"/>
<polygon fill="black" stroke="black" points="193.75,-137 192,-132 190.25,-137 193.75,-137"/>
</g>
<!-- function&#45;2&#45;Add&#45;&gt;function&#45;5&#45;RegVal -->
<g id="edge22" class="edge">
<title>function&#45;2&#45;Add:s&#45;&gt;function&#45;5&#45;RegVal</title>
<path fill="none" stroke="black" d="M679,-253C679,-211.65 667.96,-201.04 646,-166 638.51,-154.04 628.09,-142.43 618.63,-133.06"/>
<polygon fill="black" stroke="black" points="622.09,-133.16 616.92,-132 620.24,-136.13 622.09,-133.16"/>
</g>
<!-- function&#45;2&#45;Add&#45;&gt;function&#45;1&#45;Add -->
<g id="edge21" class="edge">
<title>function&#45;2&#45;Add:s&#45;&gt;function&#45;1&#45;Add</title>
<path fill="none" stroke="black" d="M661,-253C661,-242.6 649.12,-247.4 639,-245 523.61,-217.66 485.44,-254.54 374,-214 373.28,-213.74 372.55,-213.46 371.83,-213.16"/>
<polygon fill="black" stroke="black" points="372.37,-211.48 367.1,-211 370.92,-214.67 372.37,-211.48"/>
</g>
<!-- function&#45;1&#45;Add&#45;&gt;function&#45;2&#45;RegVal -->
<g id="edge34" class="edge">
<title>function&#45;1&#45;Add:s&#45;&gt;function&#45;2&#45;RegVal</title>
<path fill="none" stroke="black" d="M330,-174C330,-160.24 325.49,-145.56 320.75,-133.94"/>
<polygon fill="black" stroke="black" points="323.6,-135.6 319.71,-132 320.51,-137.24 323.6,-135.6"/>
</g>
<!-- function&#45;1&#45;Add&#45;&gt;function&#45;3&#45;RegVal -->
<g id="edge35" class="edge">
<title>function&#45;1&#45;Add:s&#45;&gt;function&#45;3&#45;RegVal</title>
<path fill="none" stroke="black" d="M348,-174C348,-120.79 426.24,-111.72 472.95,-111.05"/>
<polygon fill="black" stroke="black" points="470.04,-112.86 475,-111.01 469.96,-109.36 470.04,-112.86"/>
</g>
<!-- function&#45;5&#45;Add&#45;&gt;function&#45;5&#45;RegVal -->
<g id="edge23" class="edge">
<title>function&#45;5&#45;Add:s&#45;&gt;function&#45;5&#45;RegVal</title>
<path fill="none" stroke="black" d="M603,-253C603,-229.11 631.15,-236.19 640,-214 647.9,-194.18 647.26,-186.06 640,-166 635.57,-153.75 627,-142.33 618.53,-133.17"/>
<polygon fill="black" stroke="black" points="621.99,-133.52 616.91,-132 619.93,-136.35 621.99,-133.52"/>
</g>
<!-- function&#45;5&#45;Add&#45;&gt;function&#45;1&#45;Add -->
<g id="edge24" class="edge">
<title>function&#45;5&#45;Add:s&#45;&gt;function&#45;1&#45;Add</title>
<path fill="none" stroke="black" d="M621,-253C621,-197.43 425.91,-233.84 374,-214 373.3,-213.73 372.6,-213.45 371.9,-213.15"/>
<polygon fill="black" stroke="black" points="372.57,-211.53 367.3,-211 371.08,-214.7 372.57,-211.53"/>
</g>
<!-- function&#45;7&#45;Add&#45;&gt;function&#45;2&#45;RegVal -->
<g id="edge25" class="edge">
<title>function&#45;7&#45;Add:s&#45;&gt;function&#45;2&#45;RegVal</title>
<path fill="none" stroke="black" d="M545,-253C545,-186.87 294.04,-263.33 250,-214 235.79,-198.09 241.32,-185.49 250,-166 255.94,-152.66 266.99,-141.23 278,-132.37"/>
<polygon fill="black" stroke="black" points="274.92,-135.32 279.04,-132 273.74,-132.03 274.92,-135.32"/>
</g>
<!-- function&#45;7&#45;Add&#45;&gt;function&#45;6&#45;Add -->
<g id="edge26" class="edge">
<title>function&#45;7&#45;Add:s&#45;&gt;function&#45;6&#45;Add</title>
<path fill="none" stroke="black" d="M563,-253C563,-237.1 572.87,-222.63 583.47,-211.67"/>
<polygon fill="black" stroke="black" points="581.14,-214.54 585.08,-211 579.79,-211.32 581.14,-214.54"/>
</g>
<!-- function&#45;9&#45;Add&#45;&gt;function&#45;2&#45;RegVal -->
<g id="edge28" class="edge">
<title>function&#45;9&#45;Add:s&#45;&gt;function&#45;2&#45;RegVal</title>
<path fill="none" stroke="black" d="M389,-253C389,-184.12 281.14,-268.49 239,-214 225.95,-197.12 229.52,-185.11 239,-166 247.04,-149.78 262.55,-137.11 277.02,-128.14"/>
<polygon fill="black" stroke="black" points="274.85,-131.73 278,-127.47 272.88,-128.83 274.85,-131.73"/>
</g>
<!-- function&#45;9&#45;Add&#45;&gt;function&#45;6&#45;Add -->
<g id="edge27" class="edge">
<title>function&#45;9&#45;Add:s&#45;&gt;function&#45;6&#45;Add</title>
<path fill="none" stroke="black" d="M371,-253C371,-206.19 535.09,-232.7 578,-214 578.5,-213.78 579,-213.56 579.49,-213.32"/>
<polygon fill="black" stroke="black" points="580.31,-214.87 583.93,-211 578.68,-211.77 580.31,-214.87"/>
</g>
<!-- function&#45;11&#45;Add&#45;&gt;function&#45;10&#45;Add -->
<g id="edge30" class="edge">
<title>function&#45;11&#45;Add:s&#45;&gt;function&#45;10&#45;Add</title>
<path fill="none" stroke="black" d="M447,-253C447,-239.38 450.66,-224.6 454.48,-212.89"/>
<polygon fill="black" stroke="black" points="454.17,-215.92 456.12,-211 451.52,-213.63 454.17,-215.92"/>
</g>
<!-- function&#45;11&#45;Add&#45;&gt;function&#45;3&#45;RegVal -->
<g id="edge29" class="edge">
<title>function&#45;11&#45;Add:s&#45;&gt;function&#45;3&#45;RegVal</title>
<path fill="none" stroke="black" d="M429,-253C429,-219.31 475.58,-242.21 494,-214 509.63,-190.06 510.79,-156.15 509.47,-134.12"/>
<polygon fill="black" stroke="black" points="511.67,-136.64 509.11,-132 508.22,-137.22 511.67,-136.64"/>
</g>
<!-- function&#45;13&#45;Add&#45;&gt;function&#45;10&#45;Add -->
<g id="edge31" class="edge">
<title>function&#45;13&#45;Add:s&#45;&gt;function&#45;10&#45;Add</title>
<path fill="none" stroke="black" d="M487,-253C487,-239.06 481.66,-224.48 476.02,-212.96"/>
<polygon fill="black" stroke="black" points="478.95,-214.02 474.6,-211 476.12,-216.08 478.95,-214.02"/>
</g>
<!-- function&#45;13&#45;Add&#45;&gt;function&#45;3&#45;RegVal -->
<g id="edge32" class="edge">
<title>function&#45;13&#45;Add:s&#45;&gt;function&#45;3&#45;RegVal</title>
<path fill="none" stroke="black" d="M505,-253C505,-211.23 505.89,-162.5 506.48,-134.65"/>
<polygon fill="black" stroke="black" points="508.13,-137.07 506.6,-132 504.63,-136.92 508.13,-137.07"/>
</g>
<!-- function&#45;4&#45;Add&#45;&gt;function&#45;2&#45;RegVal -->
<g id="edge37" class="edge">
<title>function&#45;4&#45;Add:s&#45;&gt;function&#45;2&#45;RegVal</title>
<path fill="none" stroke="black" d="M290,-174C290,-160.24 294.51,-145.56 299.25,-133.94"/>
<polygon fill="black" stroke="black" points="299.49,-137.24 300.29,-132 296.4,-135.6 299.49,-137.24"/>
</g>
<!-- function&#45;4&#45;Add&#45;&gt;function&#45;3&#45;RegVal -->
<g id="edge36" class="edge">
<title>function&#45;4&#45;Add:s&#45;&gt;function&#45;3&#45;RegVal</title>
<path fill="none" stroke="black" d="M272,-174C272,-153.48 407.7,-128.34 472.86,-117.46"/>
<polygon fill="black" stroke="black" points="471.05,-120.1 475,-116.57 469.71,-116.87 471.05,-120.1"/>
</g>
<!-- function&#45;0&#45;Addi&#45;&gt;function&#45;0&#45;ImmVal -->
<g id="edge39" class="edge">
<title>function&#45;0&#45;Addi:s&#45;&gt;function&#45;0&#45;ImmVal</title>
<path fill="none" stroke="black" d="M166,-253C166,-237.1 156.07,-222.72 145.33,-211.82"/>
<polygon fill="black" stroke="black" points="148.93,-211.64 143.67,-211 147.39,-214.78 148.93,-211.64"/>
</g>
<!-- function&#45;0&#45;Addi&#45;&gt;function&#45;4&#45;RegVal -->
<g id="edge38" class="edge">
<title>function&#45;0&#45;Addi:s&#45;&gt;function&#45;4&#45;RegVal</title>
<path fill="none" stroke="black" d="M146,-253C146,-237.23 155.66,-222.76 166.02,-211.78"/>
<polygon fill="black" stroke="black" points="163.89,-214.83 167.55,-211 162.3,-211.71 163.89,-214.83"/>
</g>
<!-- function&#45;1&#45;ImmVal -->
<g id="node1" class="node">
<title>function&#45;1&#45;ImmVal</title>
<g id="a_node1"><a xlink:title="Imm&#45;11: function&#45;1&#45;ImmVal">
<path fill="white" stroke="transparent" d="M24.67,-174C24.67,-174 65.33,-174 65.33,-174 70.67,-174 76,-179.33 76,-184.67 76,-184.67 76,-195.33 76,-195.33 76,-200.67 70.67,-206 65.33,-206 65.33,-206 24.67,-206 24.67,-206 19.33,-206 14,-200.67 14,-195.33 14,-195.33 14,-184.67 14,-184.67 14,-179.33 19.33,-174 24.67,-174"/>
<text text-anchor="start" x="19" y="-186.3" font-family="Helvetica,sans-Serif" font-size="14.00">ImmVal</text>
<path fill="none" stroke="black" d="M24.67,-174C24.67,-174 65.33,-174 65.33,-174 70.67,-174 76,-179.33 76,-184.67 76,-184.67 76,-195.33 76,-195.33 76,-200.67 70.67,-206 65.33,-206 65.33,-206 24.67,-206 24.67,-206 19.33,-206 14,-200.67 14,-195.33 14,-195.33 14,-184.67 14,-184.67 14,-179.33 19.33,-174 24.67,-174"/>
</a>
</g>
</g>
<!-- primitive&#45;i64&#45;0 -->
<g id="node2" class="node">
<title>primitive&#45;i64&#45;0</title>
<g id="a_node2"><a xlink:title="i64&#45;0: primitive&#45;i64&#45;0">
<path fill="white" stroke="transparent" d="M39.67,-95C39.67,-95 50.33,-95 50.33,-95 55.67,-95 61,-100.33 61,-105.67 61,-105.67 61,-116.33 61,-116.33 61,-121.67 55.67,-127 50.33,-127 50.33,-127 39.67,-127 39.67,-127 34.33,-127 29,-121.67 29,-116.33 29,-116.33 29,-105.67 29,-105.67 29,-100.33 34.33,-95 39.67,-95"/>
<text text-anchor="start" x="40" y="-107.3" font-family="Helvetica,sans-Serif" font-size="14.00">0</text>
<path fill="none" stroke="black" d="M39.67,-95C39.67,-95 50.33,-95 50.33,-95 55.67,-95 61,-100.33 61,-105.67 61,-105.67 61,-116.33 61,-116.33 61,-121.67 55.67,-127 50.33,-127 50.33,-127 39.67,-127 39.67,-127 34.33,-127 29,-121.67 29,-116.33 29,-116.33 29,-105.67 29,-105.67 29,-100.33 34.33,-95 39.67,-95"/>
</a>
</g>
</g>
<!-- function&#45;0&#45;ImmVal -->
<g id="node3" class="node">
<title>function&#45;0&#45;ImmVal</title>
<g id="a_node3"><a xlink:title="Imm&#45;9: function&#45;0&#45;ImmVal">
<path fill="white" stroke="transparent" d="M98.67,-174C98.67,-174 139.33,-174 139.33,-174 144.67,-174 150,-179.33 150,-184.67 150,-184.67 150,-195.33 150,-195.33 150,-200.67 144.67,-206 139.33,-206 139.33,-206 98.67,-206 98.67,-206 93.33,-206 88,-200.67 88,-195.33 88,-195.33 88,-184.67 88,-184.67 88,-179.33 93.33,-174 98.67,-174"/>
<text text-anchor="start" x="93" y="-186.3" font-family="Helvetica,sans-Serif" font-size="14.00">ImmVal</text>
<path fill="none" stroke="black" d="M98.67,-174C98.67,-174 139.33,-174 139.33,-174 144.67,-174 150,-179.33 150,-184.67 150,-184.67 150,-195.33 150,-195.33 150,-200.67 144.67,-206 139.33,-206 139.33,-206 98.67,-206 98.67,-206 93.33,-206 88,-200.67 88,-195.33 88,-195.33 88,-184.67 88,-184.67 88,-179.33 93.33,-174 98.67,-174"/>
</a>
</g>
</g>
<!-- primitive&#45;i64&#45;1 -->
<g id="node4" class="node">
<title>primitive&#45;i64&#45;1</title>
<g id="a_node4"><a xlink:title="i64&#45;1: primitive&#45;i64&#45;1">
<path fill="white" stroke="transparent" d="M112.67,-95C112.67,-95 123.33,-95 123.33,-95 128.67,-95 134,-100.33 134,-105.67 134,-105.67 134,-116.33 134,-116.33 134,-121.67 128.67,-127 123.33,-127 123.33,-127 112.67,-127 112.67,-127 107.33,-127 102,-121.67 102,-116.33 102,-116.33 102,-105.67 102,-105.67 102,-100.33 107.33,-95 112.67,-95"/>
<text text-anchor="start" x="113" y="-107.3" font-family="Helvetica,sans-Serif" font-size="14.00">1</text>
<path fill="none" stroke="black" d="M112.67,-95C112.67,-95 123.33,-95 123.33,-95 128.67,-95 134,-100.33 134,-105.67 134,-105.67 134,-116.33 134,-116.33 134,-121.67 128.67,-127 123.33,-127 123.33,-127 112.67,-127 112.67,-127 107.33,-127 102,-121.67 102,-116.33 102,-116.33 102,-105.67 102,-105.67 102,-100.33 107.33,-95 112.67,-95"/>
</a>
</g>
</g>
<!-- function&#45;10&#45;Add -->
<g id="node5" class="node">
<title>function&#45;10&#45;Add</title>
<g id="a_node5"><a xlink:title="Inst&#45;14: function&#45;10&#45;Add">
<path fill="white" stroke="transparent" d="M454.67,-174C454.67,-174 471.33,-174 471.33,-174 476.67,-174 482,-179.33 482,-184.67 482,-184.67 482,-195.33 482,-195.33 482,-200.67 476.67,-206 471.33,-206 471.33,-206 454.67,-206 454.67,-206 449.33,-206 444,-200.67 444,-195.33 444,-195.33 444,-184.67 444,-184.67 444,-179.33 449.33,-174 454.67,-174"/>
<text text-anchor="start" x="449" y="-186.3" font-family="Helvetica,sans-Serif" font-size="14.00">Add</text>
<path fill="none" stroke="black" d="M454.67,-174C454.67,-174 471.33,-174 471.33,-174 476.67,-174 482,-179.33 482,-184.67 482,-184.67 482,-195.33 482,-195.33 482,-200.67 476.67,-206 471.33,-206 471.33,-206 454.67,-206 454.67,-206 449.33,-206 444,-200.67 444,-195.33 444,-195.33 444,-184.67 444,-184.67 444,-179.33 449.33,-174 454.67,-174"/>
</a>
</g>
</g>
<!-- function&#45;2&#45;RegVal -->
<g id="node6" class="node">
<title>function&#45;2&#45;RegVal</title>
<g id="a_node6"><a xlink:title="Inst&#45;2: function&#45;2&#45;RegVal">
<path fill="white" stroke="transparent" d="M292.17,-95C292.17,-95 327.83,-95 327.83,-95 333.17,-95 338.5,-100.33 338.5,-105.67 338.5,-105.67 338.5,-116.33 338.5,-116.33 338.5,-121.67 333.17,-127 327.83,-127 327.83,-127 292.17,-127 292.17,-127 286.83,-127 281.5,-121.67 281.5,-116.33 281.5,-116.33 281.5,-105.67 281.5,-105.67 281.5,-100.33 286.83,-95 292.17,-95"/>
<text text-anchor="start" x="287" y="-107.3" font-family="Helvetica,sans-Serif" font-size="14.00">RegVal</text>
<path fill="none" stroke="black" d="M292.17,-95C292.17,-95 327.83,-95 327.83,-95 333.17,-95 338.5,-100.33 338.5,-105.67 338.5,-105.67 338.5,-116.33 338.5,-116.33 338.5,-121.67 333.17,-127 327.83,-127 327.83,-127 292.17,-127 292.17,-127 286.83,-127 281.5,-121.67 281.5,-116.33 281.5,-116.33 281.5,-105.67 281.5,-105.67 281.5,-100.33 286.83,-95 292.17,-95"/>
</a>
</g>
</g>
<!-- function&#45;5&#45;RegVal -->
<g id="node7" class="node">
<title>function&#45;5&#45;RegVal</title>
<g id="a_node7"><a xlink:title="Inst&#45;7: function&#45;5&#45;RegVal">
<path fill="white" stroke="transparent" d="M577.17,-95C577.17,-95 612.83,-95 612.83,-95 618.17,-95 623.5,-100.33 623.5,-105.67 623.5,-105.67 623.5,-116.33 623.5,-116.33 623.5,-121.67 618.17,-127 612.83,-127 612.83,-127 577.17,-127 577.17,-127 571.83,-127 566.5,-121.67 566.5,-116.33 566.5,-116.33 566.5,-105.67 566.5,-105.67 566.5,-100.33 571.83,-95 577.17,-95"/>
<text text-anchor="start" x="572" y="-107.3" font-family="Helvetica,sans-Serif" font-size="14.00">RegVal</text>
<path fill="none" stroke="black" d="M577.17,-95C577.17,-95 612.83,-95 612.83,-95 618.17,-95 623.5,-100.33 623.5,-105.67 623.5,-105.67 623.5,-116.33 623.5,-116.33 623.5,-121.67 618.17,-127 612.83,-127 612.83,-127 577.17,-127 577.17,-127 571.83,-127 566.5,-121.67 566.5,-116.33 566.5,-116.33 566.5,-105.67 566.5,-105.67 566.5,-100.33 571.83,-95 577.17,-95"/>
</a>
</g>
</g>
<!-- function&#45;12&#45;Add -->
<g id="node8" class="node">
<title>function&#45;12&#45;Add</title>
<g id="a_node8"><a xlink:title="Inst&#45;14: function&#45;12&#45;Add">
<path fill="white" stroke="transparent" d="M396.67,-174C396.67,-174 413.33,-174 413.33,-174 418.67,-174 424,-179.33 424,-184.67 424,-184.67 424,-195.33 424,-195.33 424,-200.67 418.67,-206 413.33,-206 413.33,-206 396.67,-206 396.67,-206 391.33,-206 386,-200.67 386,-195.33 386,-195.33 386,-184.67 386,-184.67 386,-179.33 391.33,-174 396.67,-174"/>
<text text-anchor="start" x="391" y="-186.3" font-family="Helvetica,sans-Serif" font-size="14.00">Add</text>
<path fill="none" stroke="black" d="M396.67,-174C396.67,-174 413.33,-174 413.33,-174 418.67,-174 424,-179.33 424,-184.67 424,-184.67 424,-195.33 424,-195.33 424,-200.67 418.67,-206 413.33,-206 413.33,-206 396.67,-206 396.67,-206 391.33,-206 386,-200.67 386,-195.33 386,-195.33 386,-184.67 386,-184.67 386,-179.33 391.33,-174 396.67,-174"/>
</a>
</g>
</g>
<!-- function&#45;0&#45;Add -->
<g id="node9" class="node">
<title>function&#45;0&#45;Add</title>
<g id="a_node9"><a xlink:title="Inst&#45;5: function&#45;0&#45;Add">
<path fill="white" stroke="transparent" d="M785.67,-253C785.67,-253 802.33,-253 802.33,-253 807.67,-253 813,-258.33 813,-263.67 813,-263.67 813,-274.33 813,-274.33 813,-279.67 807.67,-285 802.33,-285 802.33,-285 785.67,-285 785.67,-285 780.33,-285 775,-279.67 775,-274.33 775,-274.33 775,-263.67 775,-263.67 775,-258.33 780.33,-253 785.67,-253"/>
<text text-anchor="start" x="780" y="-265.3" font-family="Helvetica,sans-Serif" font-size="14.00">Add</text>
<path fill="none" stroke="black" d="M785.67,-253C785.67,-253 802.33,-253 802.33,-253 807.67,-253 813,-258.33 813,-263.67 813,-263.67 813,-274.33 813,-274.33 813,-279.67 807.67,-285 802.33,-285 802.33,-285 785.67,-285 785.67,-285 780.33,-285 775,-279.67 775,-274.33 775,-274.33 775,-263.67 775,-263.67 775,-258.33 780.33,-253 785.67,-253"/>
</a>
</g>
</g>
<!-- function&#45;0&#45;RegVal -->
<g id="node10" class="node">
<title>function&#45;0&#45;RegVal</title>
<g id="a_node10"><a xlink:title="Inst&#45;0: function&#45;0&#45;RegVal">
<path fill="white" stroke="transparent" d="M721.17,-174C721.17,-174 756.83,-174 756.83,-174 762.17,-174 767.5,-179.33 767.5,-184.67 767.5,-184.67 767.5,-195.33 767.5,-195.33 767.5,-200.67 762.17,-206 756.83,-206 756.83,-206 721.17,-206 721.17,-206 715.83,-206 710.5,-200.67 710.5,-195.33 710.5,-195.33 710.5,-184.67 710.5,-184.67 710.5,-179.33 715.83,-174 721.17,-174"/>
<text text-anchor="start" x="716" y="-186.3" font-family="Helvetica,sans-Serif" font-size="14.00">RegVal</text>
<path fill="none" stroke="black" d="M721.17,-174C721.17,-174 756.83,-174 756.83,-174 762.17,-174 767.5,-179.33 767.5,-184.67 767.5,-184.67 767.5,-195.33 767.5,-195.33 767.5,-200.67 762.17,-206 756.83,-206 756.83,-206 721.17,-206 721.17,-206 715.83,-206 710.5,-200.67 710.5,-195.33 710.5,-195.33 710.5,-184.67 710.5,-184.67 710.5,-179.33 715.83,-174 721.17,-174"/>
</a>
</g>
</g>
<!-- function&#45;1&#45;RegVal -->
<g id="node11" class="node">
<title>function&#45;1&#45;RegVal</title>
<g id="a_node11"><a xlink:title="Inst&#45;1: function&#45;1&#45;RegVal">
<path fill="white" stroke="transparent" d="M791.17,-174C791.17,-174 826.83,-174 826.83,-174 832.17,-174 837.5,-179.33 837.5,-184.67 837.5,-184.67 837.5,-195.33 837.5,-195.33 837.5,-200.67 832.17,-206 826.83,-206 826.83,-206 791.17,-206 791.17,-206 785.83,-206 780.5,-200.67 780.5,-195.33 780.5,-195.33 780.5,-184.67 780.5,-184.67 780.5,-179.33 785.83,-174 791.17,-174"/>
<text text-anchor="start" x="786" y="-186.3" font-family="Helvetica,sans-Serif" font-size="14.00">RegVal</text>
<path fill="none" stroke="black" d="M791.17,-174C791.17,-174 826.83,-174 826.83,-174 832.17,-174 837.5,-179.33 837.5,-184.67 837.5,-184.67 837.5,-195.33 837.5,-195.33 837.5,-200.67 832.17,-206 826.83,-206 826.83,-206 791.17,-206 791.17,-206 785.83,-206 780.5,-200.67 780.5,-195.33 780.5,-195.33 780.5,-184.67 780.5,-184.67 780.5,-179.33 785.83,-174 791.17,-174"/>
</a>
</g>
</g>
<!-- function&#45;3&#45;Add -->
<g id="node12" class="node">
<title>function&#45;3&#45;Add</title>
<g id="a_node12"><a xlink:title="Inst&#45;5: function&#45;3&#45;Add">
<path fill="white" stroke="transparent" d="M727.67,-253C727.67,-253 744.33,-253 744.33,-253 749.67,-253 755,-258.33 755,-263.67 755,-263.67 755,-274.33 755,-274.33 755,-279.67 749.67,-285 744.33,-285 744.33,-285 727.67,-285 727.67,-285 722.33,-285 717,-279.67 717,-274.33 717,-274.33 717,-263.67 717,-263.67 717,-258.33 722.33,-253 727.67,-253"/>
<text text-anchor="start" x="722" y="-265.3" font-family="Helvetica,sans-Serif" font-size="14.00">Add</text>
<path fill="none" stroke="black" d="M727.67,-253C727.67,-253 744.33,-253 744.33,-253 749.67,-253 755,-258.33 755,-263.67 755,-263.67 755,-274.33 755,-274.33 755,-279.67 749.67,-285 744.33,-285 744.33,-285 727.67,-285 727.67,-285 722.33,-285 717,-279.67 717,-274.33 717,-274.33 717,-263.67 717,-263.67 717,-258.33 722.33,-253 727.67,-253"/>
</a>
</g>
</g>
<!-- function&#45;0&#45;Jal -->
<g id="node13" class="node">
<title>function&#45;0&#45;Jal</title>
<g id="a_node13"><a xlink:title="Inst&#45;12: function&#45;0&#45;Jal">
<path fill="white" stroke="transparent" d="M39.67,-253C39.67,-253 50.33,-253 50.33,-253 55.67,-253 61,-258.33 61,-263.67 61,-263.67 61,-274.33 61,-274.33 61,-279.67 55.67,-285 50.33,-285 50.33,-285 39.67,-285 39.67,-285 34.33,-285 29,-279.67 29,-274.33 29,-274.33 29,-263.67 29,-263.67 29,-258.33 34.33,-253 39.67,-253"/>
<text text-anchor="start" x="36.5" y="-265.3" font-family="Helvetica,sans-Serif" font-size="14.00">Jal</text>
<path fill="none" stroke="black" d="M39.67,-253C39.67,-253 50.33,-253 50.33,-253 55.67,-253 61,-258.33 61,-263.67 61,-263.67 61,-274.33 61,-274.33 61,-279.67 55.67,-285 50.33,-285 50.33,-285 39.67,-285 39.67,-285 34.33,-285 29,-279.67 29,-274.33 29,-274.33 29,-263.67 29,-263.67 29,-258.33 34.33,-253 39.67,-253"/>
</a>
</g>
</g>
<!-- function&#45;6&#45;Add -->
<g id="node14" class="node">
<title>function&#45;6&#45;Add</title>
<g id="a_node14"><a xlink:title="Inst&#45;13: function&#45;6&#45;Add">
<path fill="white" stroke="transparent" d="M600.67,-174C600.67,-174 617.33,-174 617.33,-174 622.67,-174 628,-179.33 628,-184.67 628,-184.67 628,-195.33 628,-195.33 628,-200.67 622.67,-206 617.33,-206 617.33,-206 600.67,-206 600.67,-206 595.33,-206 590,-200.67 590,-195.33 590,-195.33 590,-184.67 590,-184.67 590,-179.33 595.33,-174 600.67,-174"/>
<text text-anchor="start" x="595" y="-186.3" font-family="Helvetica,sans-Serif" font-size="14.00">Add</text>
<path fill="none" stroke="black" d="M600.67,-174C600.67,-174 617.33,-174 617.33,-174 622.67,-174 628,-179.33 628,-184.67 628,-184.67 628,-195.33 628,-195.33 628,-200.67 622.67,-206 617.33,-206 617.33,-206 600.67,-206 600.67,-206 595.33,-206 590,-200.67 590,-195.33 590,-195.33 590,-184.67 590,-184.67 590,-179.33 595.33,-174 600.67,-174"/>
</a>
</g>
</g>
<!-- function&#45;3&#45;RegVal -->
<g id="node15" class="node">
<title>function&#45;3&#45;RegVal</title>
<g id="a_node15"><a xlink:title="Inst&#45;3: function&#45;3&#45;RegVal">
<path fill="white" stroke="transparent" d="M489.17,-95C489.17,-95 524.83,-95 524.83,-95 530.17,-95 535.5,-100.33 535.5,-105.67 535.5,-105.67 535.5,-116.33 535.5,-116.33 535.5,-121.67 530.17,-127 524.83,-127 524.83,-127 489.17,-127 489.17,-127 483.83,-127 478.5,-121.67 478.5,-116.33 478.5,-116.33 478.5,-105.67 478.5,-105.67 478.5,-100.33 483.83,-95 489.17,-95"/>
<text text-anchor="start" x="484" y="-107.3" font-family="Helvetica,sans-Serif" font-size="14.00">RegVal</text>
<path fill="none" stroke="black" d="M489.17,-95C489.17,-95 524.83,-95 524.83,-95 530.17,-95 535.5,-100.33 535.5,-105.67 535.5,-105.67 535.5,-116.33 535.5,-116.33 535.5,-121.67 530.17,-127 524.83,-127 524.83,-127 489.17,-127 489.17,-127 483.83,-127 478.5,-121.67 478.5,-116.33 478.5,-116.33 478.5,-105.67 478.5,-105.67 478.5,-100.33 483.83,-95 489.17,-95"/>
</a>
</g>
</g>
<!-- function&#45;8&#45;Add -->
<g id="node16" class="node">
<title>function&#45;8&#45;Add</title>
<g id="a_node16"><a xlink:title="Inst&#45;13: function&#45;8&#45;Add">
<path fill="white" stroke="transparent" d="M542.67,-174C542.67,-174 559.33,-174 559.33,-174 564.67,-174 570,-179.33 570,-184.67 570,-184.67 570,-195.33 570,-195.33 570,-200.67 564.67,-206 559.33,-206 559.33,-206 542.67,-206 542.67,-206 537.33,-206 532,-200.67 532,-195.33 532,-195.33 532,-184.67 532,-184.67 532,-179.33 537.33,-174 542.67,-174"/>
<text text-anchor="start" x="537" y="-186.3" font-family="Helvetica,sans-Serif" font-size="14.00">Add</text>
<path fill="none" stroke="black" d="M542.67,-174C542.67,-174 559.33,-174 559.33,-174 564.67,-174 570,-179.33 570,-184.67 570,-184.67 570,-195.33 570,-195.33 570,-200.67 564.67,-206 559.33,-206 559.33,-206 542.67,-206 542.67,-206 537.33,-206 532,-200.67 532,-195.33 532,-195.33 532,-184.67 532,-184.67 532,-179.33 537.33,-174 542.67,-174"/>
</a>
</g>
</g>
<!-- primitive&#45;String&#45;2 -->
<g id="node17" class="node">
<title>primitive&#45;String&#45;2</title>
<g id="a_node17"><a xlink:title="String&#45;2: primitive&#45;String&#45;2">
<path fill="white" stroke="transparent" d="M293.17,-16C293.17,-16 328.83,-16 328.83,-16 334.17,-16 339.5,-21.33 339.5,-26.67 339.5,-26.67 339.5,-37.33 339.5,-37.33 339.5,-42.67 334.17,-48 328.83,-48 328.83,-48 293.17,-48 293.17,-48 287.83,-48 282.5,-42.67 282.5,-37.33 282.5,-37.33 282.5,-26.67 282.5,-26.67 282.5,-21.33 287.83,-16 293.17,-16"/>
<text text-anchor="start" x="288" y="-28.3" font-family="Helvetica,sans-Serif" font-size="14.00">&quot;a5_0&quot;</text>
<path fill="none" stroke="black" d="M293.17,-16C293.17,-16 328.83,-16 328.83,-16 334.17,-16 339.5,-21.33 339.5,-26.67 339.5,-26.67 339.5,-37.33 339.5,-37.33 339.5,-42.67 334.17,-48 328.83,-48 328.83,-48 293.17,-48 293.17,-48 287.83,-48 282.5,-42.67 282.5,-37.33 282.5,-37.33 282.5,-26.67 282.5,-26.67 282.5,-21.33 287.83,-16 293.17,-16"/>
</a>
</g>
</g>
<!-- primitive&#45;String&#45;3 -->
<g id="node18" class="node">
<title>primitive&#45;String&#45;3</title>
<g id="a_node18"><a xlink:title="String&#45;3: primitive&#45;String&#45;3">
<path fill="white" stroke="transparent" d="M490.17,-16C490.17,-16 525.83,-16 525.83,-16 531.17,-16 536.5,-21.33 536.5,-26.67 536.5,-26.67 536.5,-37.33 536.5,-37.33 536.5,-42.67 531.17,-48 525.83,-48 525.83,-48 490.17,-48 490.17,-48 484.83,-48 479.5,-42.67 479.5,-37.33 479.5,-37.33 479.5,-26.67 479.5,-26.67 479.5,-21.33 484.83,-16 490.17,-16"/>
<text text-anchor="start" x="485" y="-28.3" font-family="Helvetica,sans-Serif" font-size="14.00">&quot;a6_0&quot;</text>
<path fill="none" stroke="black" d="M490.17,-16C490.17,-16 525.83,-16 525.83,-16 531.17,-16 536.5,-21.33 536.5,-26.67 536.5,-26.67 536.5,-37.33 536.5,-37.33 536.5,-42.67 531.17,-48 525.83,-48 525.83,-48 490.17,-48 490.17,-48 484.83,-48 479.5,-42.67 479.5,-37.33 479.5,-37.33 479.5,-26.67 479.5,-26.67 479.5,-21.33 484.83,-16 490.17,-16"/>
</a>
</g>
</g>
<!-- primitive&#45;String&#45;5 -->
<g id="node19" class="node">
<title>primitive&#45;String&#45;5</title>
<g id="a_node19"><a xlink:title="String&#45;5: primitive&#45;String&#45;5">
<path fill="white" stroke="transparent" d="M578.17,-16C578.17,-16 613.83,-16 613.83,-16 619.17,-16 624.5,-21.33 624.5,-26.67 624.5,-26.67 624.5,-37.33 624.5,-37.33 624.5,-42.67 619.17,-48 613.83,-48 613.83,-48 578.17,-48 578.17,-48 572.83,-48 567.5,-42.67 567.5,-37.33 567.5,-37.33 567.5,-26.67 567.5,-26.67 567.5,-21.33 572.83,-16 578.17,-16"/>
<text text-anchor="start" x="573" y="-28.3" font-family="Helvetica,sans-Serif" font-size="14.00">&quot;a0_1&quot;</text>
<path fill="none" stroke="black" d="M578.17,-16C578.17,-16 613.83,-16 613.83,-16 619.17,-16 624.5,-21.33 624.5,-26.67 624.5,-26.67 624.5,-37.33 624.5,-37.33 624.5,-42.67 619.17,-48 613.83,-48 613.83,-48 578.17,-48 578.17,-48 572.83,-48 567.5,-42.67 567.5,-37.33 567.5,-37.33 567.5,-26.67 567.5,-26.67 567.5,-21.33 572.83,-16 578.17,-16"/>
</a>
</g>
</g>
<!-- function&#45;4&#45;RegVal -->
<g id="node20" class="node">
<title>function&#45;4&#45;RegVal</title>
<g id="a_node20"><a xlink:title="Inst&#45;4: function&#45;4&#45;RegVal">
<path fill="white" stroke="transparent" d="M173.17,-174C173.17,-174 208.83,-174 208.83,-174 214.17,-174 219.5,-179.33 219.5,-184.67 219.5,-184.67 219.5,-195.33 219.5,-195.33 219.5,-200.67 214.17,-206 208.83,-206 208.83,-206 173.17,-206 173.17,-206 167.83,-206 162.5,-200.67 162.5,-195.33 162.5,-195.33 162.5,-184.67 162.5,-184.67 162.5,-179.33 167.83,-174 173.17,-174"/>
<text text-anchor="start" x="168" y="-186.3" font-family="Helvetica,sans-Serif" font-size="14.00">RegVal</text>
<path fill="none" stroke="black" d="M173.17,-174C173.17,-174 208.83,-174 208.83,-174 214.17,-174 219.5,-179.33 219.5,-184.67 219.5,-184.67 219.5,-195.33 219.5,-195.33 219.5,-200.67 214.17,-206 208.83,-206 208.83,-206 173.17,-206 173.17,-206 167.83,-206 162.5,-200.67 162.5,-195.33 162.5,-195.33 162.5,-184.67 162.5,-184.67 162.5,-179.33 167.83,-174 173.17,-174"/>
</a>
</g>
</g>
<!-- primitive&#45;String&#45;4 -->
<g id="node21" class="node">
<title>primitive&#45;String&#45;4</title>
<g id="a_node21"><a xlink:title="String&#45;4: primitive&#45;String&#45;4">
<path fill="white" stroke="transparent" d="M168.17,-95C168.17,-95 215.83,-95 215.83,-95 221.17,-95 226.5,-100.33 226.5,-105.67 226.5,-105.67 226.5,-116.33 226.5,-116.33 226.5,-121.67 221.17,-127 215.83,-127 215.83,-127 168.17,-127 168.17,-127 162.83,-127 157.5,-121.67 157.5,-116.33 157.5,-116.33 157.5,-105.67 157.5,-105.67 157.5,-100.33 162.83,-95 168.17,-95"/>
<text text-anchor="start" x="163" y="-107.3" font-family="Helvetica,sans-Serif" font-size="14.00">&quot;zero_0&quot;</text>
<path fill="none" stroke="black" d="M168.17,-95C168.17,-95 215.83,-95 215.83,-95 221.17,-95 226.5,-100.33 226.5,-105.67 226.5,-105.67 226.5,-116.33 226.5,-116.33 226.5,-121.67 221.17,-127 215.83,-127 215.83,-127 168.17,-127 168.17,-127 162.83,-127 157.5,-121.67 157.5,-116.33 157.5,-116.33 157.5,-105.67 157.5,-105.67 157.5,-100.33 162.83,-95 168.17,-95"/>
</a>
</g>
</g>
<!-- primitive&#45;String&#45;1 -->
<g id="node22" class="node">
<title>primitive&#45;String&#45;1</title>
<g id="a_node22"><a xlink:title="String&#45;1: primitive&#45;String&#45;1">
<path fill="white" stroke="transparent" d="M792.17,-95C792.17,-95 827.83,-95 827.83,-95 833.17,-95 838.5,-100.33 838.5,-105.67 838.5,-105.67 838.5,-116.33 838.5,-116.33 838.5,-121.67 833.17,-127 827.83,-127 827.83,-127 792.17,-127 792.17,-127 786.83,-127 781.5,-121.67 781.5,-116.33 781.5,-116.33 781.5,-105.67 781.5,-105.67 781.5,-100.33 786.83,-95 792.17,-95"/>
<text text-anchor="start" x="787" y="-107.3" font-family="Helvetica,sans-Serif" font-size="14.00">&quot;a2_0&quot;</text>
<path fill="none" stroke="black" d="M792.17,-95C792.17,-95 827.83,-95 827.83,-95 833.17,-95 838.5,-100.33 838.5,-105.67 838.5,-105.67 838.5,-116.33 838.5,-116.33 838.5,-121.67 833.17,-127 827.83,-127 827.83,-127 792.17,-127 792.17,-127 786.83,-127 781.5,-121.67 781.5,-116.33 781.5,-116.33 781.5,-105.67 781.5,-105.67 781.5,-100.33 786.83,-95 792.17,-95"/>
</a>
</g>
</g>
<!-- function&#45;2&#45;Add -->
<g id="node23" class="node">
<title>function&#45;2&#45;Add</title>
<g id="a_node23"><a xlink:title="Inst&#45;8: function&#45;2&#45;Add">
<path fill="white" stroke="transparent" d="M661.67,-253C661.67,-253 678.33,-253 678.33,-253 683.67,-253 689,-258.33 689,-263.67 689,-263.67 689,-274.33 689,-274.33 689,-279.67 683.67,-285 678.33,-285 678.33,-285 661.67,-285 661.67,-285 656.33,-285 651,-279.67 651,-274.33 651,-274.33 651,-263.67 651,-263.67 651,-258.33 656.33,-253 661.67,-253"/>
<text text-anchor="start" x="656" y="-265.3" font-family="Helvetica,sans-Serif" font-size="14.00">Add</text>
<path fill="none" stroke="black" d="M661.67,-253C661.67,-253 678.33,-253 678.33,-253 683.67,-253 689,-258.33 689,-263.67 689,-263.67 689,-274.33 689,-274.33 689,-279.67 683.67,-285 678.33,-285 678.33,-285 661.67,-285 661.67,-285 656.33,-285 651,-279.67 651,-274.33 651,-274.33 651,-263.67 651,-263.67 651,-258.33 656.33,-253 661.67,-253"/>
</a>
</g>
</g>
<!-- function&#45;1&#45;Add -->
<g id="node24" class="node">
<title>function&#45;1&#45;Add</title>
<g id="a_node24"><a xlink:title="Inst&#45;6: function&#45;1&#45;Add">
<path fill="white" stroke="transparent" d="M330.67,-174C330.67,-174 347.33,-174 347.33,-174 352.67,-174 358,-179.33 358,-184.67 358,-184.67 358,-195.33 358,-195.33 358,-200.67 352.67,-206 347.33,-206 347.33,-206 330.67,-206 330.67,-206 325.33,-206 320,-200.67 320,-195.33 320,-195.33 320,-184.67 320,-184.67 320,-179.33 325.33,-174 330.67,-174"/>
<text text-anchor="start" x="325" y="-186.3" font-family="Helvetica,sans-Serif" font-size="14.00">Add</text>
<path fill="none" stroke="black" d="M330.67,-174C330.67,-174 347.33,-174 347.33,-174 352.67,-174 358,-179.33 358,-184.67 358,-184.67 358,-195.33 358,-195.33 358,-200.67 352.67,-206 347.33,-206 347.33,-206 330.67,-206 330.67,-206 325.33,-206 320,-200.67 320,-195.33 320,-195.33 320,-184.67 320,-184.67 320,-179.33 325.33,-174 330.67,-174"/>
</a>
</g>
</g>
<!-- function&#45;5&#45;Add -->
<g id="node25" class="node">
<title>function&#45;5&#45;Add</title>
<g id="a_node25"><a xlink:title="Inst&#45;8: function&#45;5&#45;Add">
<path fill="white" stroke="transparent" d="M603.67,-253C603.67,-253 620.33,-253 620.33,-253 625.67,-253 631,-258.33 631,-263.67 631,-263.67 631,-274.33 631,-274.33 631,-279.67 625.67,-285 620.33,-285 620.33,-285 603.67,-285 603.67,-285 598.33,-285 593,-279.67 593,-274.33 593,-274.33 593,-263.67 593,-263.67 593,-258.33 598.33,-253 603.67,-253"/>
<text text-anchor="start" x="598" y="-265.3" font-family="Helvetica,sans-Serif" font-size="14.00">Add</text>
<path fill="none" stroke="black" d="M603.67,-253C603.67,-253 620.33,-253 620.33,-253 625.67,-253 631,-258.33 631,-263.67 631,-263.67 631,-274.33 631,-274.33 631,-279.67 625.67,-285 620.33,-285 620.33,-285 603.67,-285 603.67,-285 598.33,-285 593,-279.67 593,-274.33 593,-274.33 593,-263.67 593,-263.67 593,-258.33 598.33,-253 603.67,-253"/>
</a>
</g>
</g>
<!-- function&#45;7&#45;Add -->
<g id="node26" class="node">
<title>function&#45;7&#45;Add</title>
<g id="a_node26"><a xlink:title="Inst&#45;8: function&#45;7&#45;Add">
<path fill="white" stroke="transparent" d="M545.67,-253C545.67,-253 562.33,-253 562.33,-253 567.67,-253 573,-258.33 573,-263.67 573,-263.67 573,-274.33 573,-274.33 573,-279.67 567.67,-285 562.33,-285 562.33,-285 545.67,-285 545.67,-285 540.33,-285 535,-279.67 535,-274.33 535,-274.33 535,-263.67 535,-263.67 535,-258.33 540.33,-253 545.67,-253"/>
<text text-anchor="start" x="540" y="-265.3" font-family="Helvetica,sans-Serif" font-size="14.00">Add</text>
<path fill="none" stroke="black" d="M545.67,-253C545.67,-253 562.33,-253 562.33,-253 567.67,-253 573,-258.33 573,-263.67 573,-263.67 573,-274.33 573,-274.33 573,-279.67 567.67,-285 562.33,-285 562.33,-285 545.67,-285 545.67,-285 540.33,-285 535,-279.67 535,-274.33 535,-274.33 535,-263.67 535,-263.67 535,-258.33 540.33,-253 545.67,-253"/>
</a>
</g>
</g>
<!-- function&#45;9&#45;Add -->
<g id="node27" class="node">
<title>function&#45;9&#45;Add</title>
<g id="a_node27"><a xlink:title="Inst&#45;8: function&#45;9&#45;Add">
<path fill="white" stroke="transparent" d="M371.67,-253C371.67,-253 388.33,-253 388.33,-253 393.67,-253 399,-258.33 399,-263.67 399,-263.67 399,-274.33 399,-274.33 399,-279.67 393.67,-285 388.33,-285 388.33,-285 371.67,-285 371.67,-285 366.33,-285 361,-279.67 361,-274.33 361,-274.33 361,-263.67 361,-263.67 361,-258.33 366.33,-253 371.67,-253"/>
<text text-anchor="start" x="366" y="-265.3" font-family="Helvetica,sans-Serif" font-size="14.00">Add</text>
<path fill="none" stroke="black" d="M371.67,-253C371.67,-253 388.33,-253 388.33,-253 393.67,-253 399,-258.33 399,-263.67 399,-263.67 399,-274.33 399,-274.33 399,-279.67 393.67,-285 388.33,-285 388.33,-285 371.67,-285 371.67,-285 366.33,-285 361,-279.67 361,-274.33 361,-274.33 361,-263.67 361,-263.67 361,-258.33 366.33,-253 371.67,-253"/>
</a>
</g>
</g>
<!-- function&#45;11&#45;Add -->
<g id="node28" class="node">
<title>function&#45;11&#45;Add</title>
<g id="a_node28"><a xlink:title="Inst&#45;8: function&#45;11&#45;Add">
<path fill="white" stroke="transparent" d="M429.67,-253C429.67,-253 446.33,-253 446.33,-253 451.67,-253 457,-258.33 457,-263.67 457,-263.67 457,-274.33 457,-274.33 457,-279.67 451.67,-285 446.33,-285 446.33,-285 429.67,-285 429.67,-285 424.33,-285 419,-279.67 419,-274.33 419,-274.33 419,-263.67 419,-263.67 419,-258.33 424.33,-253 429.67,-253"/>
<text text-anchor="start" x="424" y="-265.3" font-family="Helvetica,sans-Serif" font-size="14.00">Add</text>
<path fill="none" stroke="black" d="M429.67,-253C429.67,-253 446.33,-253 446.33,-253 451.67,-253 457,-258.33 457,-263.67 457,-263.67 457,-274.33 457,-274.33 457,-279.67 451.67,-285 446.33,-285 446.33,-285 429.67,-285 429.67,-285 424.33,-285 419,-279.67 419,-274.33 419,-274.33 419,-263.67 419,-263.67 419,-258.33 424.33,-253 429.67,-253"/>
</a>
</g>
</g>
<!-- function&#45;13&#45;Add -->
<g id="node29" class="node">
<title>function&#45;13&#45;Add</title>
<g id="a_node29"><a xlink:title="Inst&#45;8: function&#45;13&#45;Add">
<path fill="white" stroke="transparent" d="M487.67,-253C487.67,-253 504.33,-253 504.33,-253 509.67,-253 515,-258.33 515,-263.67 515,-263.67 515,-274.33 515,-274.33 515,-279.67 509.67,-285 504.33,-285 504.33,-285 487.67,-285 487.67,-285 482.33,-285 477,-279.67 477,-274.33 477,-274.33 477,-263.67 477,-263.67 477,-258.33 482.33,-253 487.67,-253"/>
<text text-anchor="start" x="482" y="-265.3" font-family="Helvetica,sans-Serif" font-size="14.00">Add</text>
<path fill="none" stroke="black" d="M487.67,-253C487.67,-253 504.33,-253 504.33,-253 509.67,-253 515,-258.33 515,-263.67 515,-263.67 515,-274.33 515,-274.33 515,-279.67 509.67,-285 504.33,-285 504.33,-285 487.67,-285 487.67,-285 482.33,-285 477,-279.67 477,-274.33 477,-274.33 477,-263.67 477,-263.67 477,-258.33 482.33,-253 487.67,-253"/>
</a>
</g>
</g>
<!-- primitive&#45;String&#45;0 -->
<g id="node30" class="node">
<title>primitive&#45;String&#45;0</title>
<g id="a_node30"><a xlink:title="String&#45;0: primitive&#45;String&#45;0">
<path fill="white" stroke="transparent" d="M722.17,-95C722.17,-95 757.83,-95 757.83,-95 763.17,-95 768.5,-100.33 768.5,-105.67 768.5,-105.67 768.5,-116.33 768.5,-116.33 768.5,-121.67 763.17,-127 757.83,-127 757.83,-127 722.17,-127 722.17,-127 716.83,-127 711.5,-121.67 711.5,-116.33 711.5,-116.33 711.5,-105.67 711.5,-105.67 711.5,-100.33 716.83,-95 722.17,-95"/>
<text text-anchor="start" x="717" y="-107.3" font-family="Helvetica,sans-Serif" font-size="14.00">&quot;a0_0&quot;</text>
<path fill="none" stroke="black" d="M722.17,-95C722.17,-95 757.83,-95 757.83,-95 763.17,-95 768.5,-100.33 768.5,-105.67 768.5,-105.67 768.5,-116.33 768.5,-116.33 768.5,-121.67 763.17,-127 757.83,-127 757.83,-127 722.17,-127 722.17,-127 716.83,-127 711.5,-121.67 711.5,-116.33 711.5,-116.33 711.5,-105.67 711.5,-105.67 711.5,-100.33 716.83,-95 722.17,-95"/>
</a>
</g>
</g>
<!-- function&#45;4&#45;Add -->
<g id="node31" class="node">
<title>function&#45;4&#45;Add</title>
<g id="a_node31"><a xlink:title="Inst&#45;6: function&#45;4&#45;Add">
<path fill="white" stroke="transparent" d="M272.67,-174C272.67,-174 289.33,-174 289.33,-174 294.67,-174 300,-179.33 300,-184.67 300,-184.67 300,-195.33 300,-195.33 300,-200.67 294.67,-206 289.33,-206 289.33,-206 272.67,-206 272.67,-206 267.33,-206 262,-200.67 262,-195.33 262,-195.33 262,-184.67 262,-184.67 262,-179.33 267.33,-174 272.67,-174"/>
<text text-anchor="start" x="267" y="-186.3" font-family="Helvetica,sans-Serif" font-size="14.00">Add</text>
<path fill="none" stroke="black" d="M272.67,-174C272.67,-174 289.33,-174 289.33,-174 294.67,-174 300,-179.33 300,-184.67 300,-184.67 300,-195.33 300,-195.33 300,-200.67 294.67,-206 289.33,-206 289.33,-206 272.67,-206 272.67,-206 267.33,-206 262,-200.67 262,-195.33 262,-195.33 262,-184.67 262,-184.67 262,-179.33 267.33,-174 272.67,-174"/>
</a>
</g>
</g>
<!-- function&#45;0&#45;Addi -->
<g id="node32" class="node">
<title>function&#45;0&#45;Addi</title>
<g id="a_node32"><a xlink:title="Inst&#45;10: function&#45;0&#45;Addi">
<path fill="white" stroke="transparent" d="M146.17,-253C146.17,-253 165.83,-253 165.83,-253 171.17,-253 176.5,-258.33 176.5,-263.67 176.5,-263.67 176.5,-274.33 176.5,-274.33 176.5,-279.67 171.17,-285 165.83,-285 165.83,-285 146.17,-285 146.17,-285 140.83,-285 135.5,-279.67 135.5,-274.33 135.5,-274.33 135.5,-263.67 135.5,-263.67 135.5,-258.33 140.83,-253 146.17,-253"/>
<text text-anchor="start" x="141" y="-265.3" font-family="Helvetica,sans-Serif" font-size="14.00">Addi</text>
<path fill="none" stroke="black" d="M146.17,-253C146.17,-253 165.83,-253 165.83,-253 171.17,-253 176.5,-258.33 176.5,-263.67 176.5,-263.67 176.5,-274.33 176.5,-274.33 176.5,-279.67 171.17,-285 165.83,-285 165.83,-285 146.17,-285 146.17,-285 140.83,-285 135.5,-279.67 135.5,-274.33 135.5,-274.33 135.5,-263.67 135.5,-263.67 135.5,-258.33 140.83,-253 146.17,-253"/>
</a>
</g>
</g>
</g>
</svg>
