<?xml version="1.0" encoding="UTF-8" standalone="no"?>
<!DOCTYPE svg PUBLIC "-//W3C//DTD SVG 1.1//EN"
 "http://www.w3.org/Graphics/SVG/1.1/DTD/svg11.dtd">
<!-- Generated by graphviz version 2.43.0 (0)
 -->
<!-- Title: %3 Pages: 1 -->
<svg width="378pt" height="309pt"
 viewBox="0.00 0.00 378.00 309.00" xmlns="http://www.w3.org/2000/svg" xmlns:xlink="http://www.w3.org/1999/xlink">
<g id="graph0" class="graph" transform="scale(1 1) rotate(0) translate(4 305)">
<title>%3</title>
<polygon fill="white" stroke="#000000" points="-4,4 -4,-305 374,-305 374,4 -4,4"/>
<g id="clust1" class="cluster">
<title>outer_cluster_Imm&#45;6</title>
</g>
<g id="clust2" class="cluster">
<title>cluster_Imm&#45;6</title>
<path fill="#ffffb3" stroke="black" stroke-dasharray="5,2" d="M23,-169C23,-169 67,-169 67,-169 73,-169 79,-175 79,-181 79,-181 79,-199 79,-199 79,-205 73,-211 67,-211 67,-211 23,-211 23,-211 17,-211 11,-205 11,-199 11,-199 11,-181 11,-181 11,-175 17,-169 23,-169"/>
</g>
<g id="clust4" class="cluster">
<title>outer_cluster_Inst&#45;7</title>
</g>
<g id="clust5" class="cluster">
<title>cluster_Inst&#45;7</title>
<path fill="#bebada" stroke="black" stroke-dasharray="5,2" d="M99,-248C99,-248 135,-248 135,-248 141,-248 147,-254 147,-260 147,-260 147,-278 147,-278 147,-284 141,-290 135,-290 135,-290 99,-290 99,-290 93,-290 87,-284 87,-278 87,-278 87,-260 87,-260 87,-254 93,-248 99,-248"/>
</g>
<g id="clust7" class="cluster">
<title>outer_cluster_Inst&#45;1</title>
</g>
<g id="clust8" class="cluster">
<title>cluster_Inst&#45;1</title>
<path fill="#bebada" stroke="black" stroke-dasharray="5,2" d="M94,-90C94,-90 134,-90 134,-90 140,-90 146,-96 146,-102 146,-102 146,-120 146,-120 146,-126 140,-132 134,-132 134,-132 94,-132 94,-132 88,-132 82,-126 82,-120 82,-120 82,-102 82,-102 82,-96 88,-90 94,-90"/>
</g>
<g id="clust10" class="cluster">
<title>outer_cluster_Inst&#45;3</title>
</g>
<g id="clust11" class="cluster">
<title>cluster_Inst&#45;3</title>
<path fill="#bebada" stroke="black" stroke-dasharray="5,2" d="M97,-169C97,-169 191,-169 191,-169 197,-169 203,-175 203,-181 203,-181 203,-199 203,-199 203,-205 197,-211 191,-211 191,-211 97,-211 97,-211 91,-211 85,-205 85,-199 85,-199 85,-181 85,-181 85,-175 91,-169 97,-169"/>
</g>
<g id="clust13" class="cluster">
<title>outer_cluster_Inst&#45;0</title>
</g>
<g id="clust14" class="cluster">
<title>cluster_Inst&#45;0</title>
<path fill="#bebada" stroke="black" stroke-dasharray="5,2" d="M164,-90C164,-90 204,-90 204,-90 210,-90 216,-96 216,-102 216,-102 216,-120 216,-120 216,-126 210,-132 204,-132 204,-132 164,-132 164,-132 158,-132 152,-126 152,-120 152,-120 152,-102 152,-102 152,-96 158,-90 164,-90"/>
</g>
<g id="clust16" class="cluster">
<title>outer_cluster_Inst&#45;5</title>
</g>
<g id="clust17" class="cluster">
<title>cluster_Inst&#45;5</title>
<path fill="#bebada" stroke="black" stroke-dasharray="5,2" d="M235,-248C235,-248 329,-248 329,-248 335,-248 341,-254 341,-260 341,-260 341,-278 341,-278 341,-284 335,-290 329,-290 329,-290 235,-290 235,-290 229,-290 223,-284 223,-278 223,-278 223,-260 223,-260 223,-254 229,-248 235,-248"/>
</g>
<g id="clust19" class="cluster">
<title>outer_cluster_Inst&#45;2</title>
</g>
<g id="clust20" class="cluster">
<title>cluster_Inst&#45;2</title>
<path fill="#bebada" stroke="black" stroke-dasharray="5,2" d="M236,-169C236,-169 276,-169 276,-169 282,-169 288,-175 288,-181 288,-181 288,-199 288,-199 288,-205 282,-211 276,-211 276,-211 236,-211 236,-211 230,-211 224,-205 224,-199 224,-199 224,-181 224,-181 224,-175 230,-169 236,-169"/>
</g>
<g id="clust22" class="cluster">
<title>outer_cluster_Inst&#45;4</title>
</g>
<g id="clust23" class="cluster">
<title>cluster_Inst&#45;4</title>
<path fill="#bebada" stroke="black" stroke-dasharray="5,2" d="M306,-169C306,-169 346,-169 346,-169 352,-169 358,-175 358,-181 358,-181 358,-199 358,-199 358,-205 352,-211 346,-211 346,-211 306,-211 306,-211 300,-211 294,-205 294,-199 294,-199 294,-181 294,-181 294,-175 300,-169 306,-169"/>
</g>
<g id="clust25" class="cluster">
<title>outer_cluster_String&#45;0</title>
</g>
<g id="clust26" class="cluster">
<title>cluster_String&#45;0</title>
<path fill="#fb8072" stroke="black" stroke-dasharray="5,2" d="M165,-11C165,-11 205,-11 205,-11 211,-11 217,-17 217,-23 217,-23 217,-41 217,-41 217,-47 211,-53 205,-53 205,-53 165,-53 165,-53 159,-53 153,-47 153,-41 153,-41 153,-23 153,-23 153,-17 159,-11 165,-11"/>
</g>
<g id="clust28" class="cluster">
<title>outer_cluster_String&#45;1</title>
</g>
<g id="clust29" class="cluster">
<title>cluster_String&#45;1</title>
<path fill="#fb8072" stroke="black" stroke-dasharray="5,2" d="M95,-11C95,-11 135,-11 135,-11 141,-11 147,-17 147,-23 147,-23 147,-41 147,-41 147,-47 141,-53 135,-53 135,-53 95,-53 95,-53 89,-53 83,-47 83,-41 83,-41 83,-23 83,-23 83,-17 89,-11 95,-11"/>
</g>
<g id="clust31" class="cluster">
<title>outer_cluster_String&#45;2</title>
</g>
<g id="clust32" class="cluster">
<title>cluster_String&#45;2</title>
<path fill="#fb8072" stroke="black" stroke-dasharray="5,2" d="M237,-90C237,-90 277,-90 277,-90 283,-90 289,-96 289,-102 289,-102 289,-120 289,-120 289,-126 283,-132 277,-132 277,-132 237,-132 237,-132 231,-132 225,-126 225,-120 225,-120 225,-102 225,-102 225,-96 231,-90 237,-90"/>
</g>
<g id="clust34" class="cluster">
<title>outer_cluster_String&#45;3</title>
</g>
<g id="clust35" class="cluster">
<title>cluster_String&#45;3</title>
<path fill="#fb8072" stroke="black" stroke-dasharray="5,2" d="M307,-90C307,-90 347,-90 347,-90 353,-90 359,-96 359,-102 359,-102 359,-120 359,-120 359,-126 353,-132 347,-132 347,-132 307,-132 307,-132 301,-132 295,-126 295,-120 295,-120 295,-102 295,-102 295,-96 301,-90 307,-90"/>
</g>
<g id="clust37" class="cluster">
<title>outer_cluster_i64&#45;0</title>
</g>
<g id="clust38" class="cluster">
<title>cluster_i64&#45;0</title>
<path fill="#80b1d3" stroke="black" stroke-dasharray="5,2" d="M27,-90C27,-90 63,-90 63,-90 69,-90 75,-96 75,-102 75,-102 75,-120 75,-120 75,-126 69,-132 63,-132 63,-132 27,-132 27,-132 21,-132 15,-126 15,-120 15,-120 15,-102 15,-102 15,-96 21,-90 27,-90"/>
</g>
<!-- function&#45;0&#45;ImmVal&#45;&gt;primitive&#45;i64&#45;0 -->
<g id="edge1" class="edge">
<title>function&#45;0&#45;ImmVal:s&#45;&gt;primitive&#45;i64&#45;0</title>
<path fill="none" stroke="black" d="M45,-174C45,-160.84 45,-146.11 45,-134.3"/>
<polygon fill="black" stroke="black" points="46.75,-137 45,-132 43.25,-137 46.75,-137"/>
</g>
<!-- function&#45;0&#45;Addi&#45;&gt;function&#45;0&#45;ImmVal -->
<g id="edge3" class="edge">
<title>function&#45;0&#45;Addi:s&#45;&gt;function&#45;0&#45;ImmVal</title>
<path fill="none" stroke="black" d="M127,-253C127,-246.36 99.32,-226.51 76.12,-211.04"/>
<polygon fill="black" stroke="black" points="81.04,-209.92 75.85,-211 80.58,-213.39 81.04,-209.92"/>
</g>
<!-- function&#45;0&#45;Addi&#45;&gt;function&#45;2&#45;Add -->
<g id="edge2" class="edge">
<title>function&#45;0&#45;Addi:s&#45;&gt;function&#45;2&#45;Add</title>
<path fill="none" stroke="black" d="M107,-253C107,-247.19 129.01,-227.42 147.6,-211.74"/>
<polygon fill="black" stroke="black" points="145.51,-215.19 148.75,-211 143.61,-212.25 145.51,-215.19"/>
</g>
<!-- function&#45;2&#45;Add&#45;&gt;function&#45;1&#45;RegVal -->
<g id="edge7" class="edge">
<title>function&#45;2&#45;Add:s&#45;&gt;function&#45;1&#45;RegVal</title>
<path fill="none" stroke="black" d="M164,-174C164,-157.85 153.59,-143.53 142.27,-132.73"/>
<polygon fill="black" stroke="black" points="146.35,-133.91 141.41,-132 144.08,-136.58 146.35,-133.91"/>
</g>
<!-- function&#45;2&#45;Add&#45;&gt;function&#45;0&#45;RegVal -->
<g id="edge8" class="edge">
<title>function&#45;2&#45;Add:s&#45;&gt;function&#45;0&#45;RegVal</title>
<path fill="none" stroke="black" d="M182,-174C182,-160.83 182.46,-146.1 182.93,-134.3"/>
<polygon fill="black" stroke="black" points="184.42,-137.14 183.15,-132 180.94,-136.81 184.42,-137.14"/>
</g>
<!-- function&#45;1&#45;RegVal&#45;&gt;primitive&#45;String&#45;1 -->
<g id="edge4" class="edge">
<title>function&#45;1&#45;RegVal:s&#45;&gt;primitive&#45;String&#45;1</title>
<path fill="none" stroke="black" d="M115,-95C115,-81.84 115,-67.11 115,-55.3"/>
<polygon fill="black" stroke="black" points="116.75,-58 115,-53 113.25,-58 116.75,-58"/>
</g>
<!-- function&#45;0&#45;Add&#45;&gt;function&#45;1&#45;RegVal -->
<g id="edge6" class="edge">
<title>function&#45;0&#45;Add:s&#45;&gt;function&#45;1&#45;RegVal</title>
<path fill="none" stroke="black" d="M124,-174C124,-160.76 121.75,-146.14 119.39,-134.42"/>
<polygon fill="black" stroke="black" points="121.95,-135.84 118.3,-132 118.75,-137.28 121.95,-135.84"/>
</g>
<!-- function&#45;0&#45;Add&#45;&gt;function&#45;0&#45;RegVal -->
<g id="edge5" class="edge">
<title>function&#45;0&#45;Add:s&#45;&gt;function&#45;0&#45;RegVal</title>
<path fill="none" stroke="black" d="M106,-174C106,-167.59 132.11,-147.84 154.12,-132.34"/>
<polygon fill="black" stroke="black" points="151.04,-134.92 155.46,-132 150.18,-131.52 151.04,-134.92"/>
</g>
<!-- function&#45;0&#45;RegVal&#45;&gt;primitive&#45;String&#45;0 -->
<g id="edge9" class="edge">
<title>function&#45;0&#45;RegVal:s&#45;&gt;primitive&#45;String&#45;0</title>
<path fill="none" stroke="black" d="M185,-95C185,-81.84 185,-67.11 185,-55.3"/>
<polygon fill="black" stroke="black" points="186.75,-58 185,-53 183.25,-58 186.75,-58"/>
</g>
<!-- function&#45;1&#45;Add&#45;&gt;function&#45;2&#45;RegVal -->
<g id="edge10" class="edge">
<title>function&#45;1&#45;Add:s&#45;&gt;function&#45;2&#45;RegVal</title>
<path fill="none" stroke="black" d="M302,-253C302,-237.1 292.13,-222.63 281.53,-211.67"/>
<polygon fill="black" stroke="black" points="285.21,-211.32 279.92,-211 283.86,-214.54 285.21,-211.32"/>
</g>
<!-- function&#45;1&#45;Add&#45;&gt;function&#45;3&#45;RegVal -->
<g id="edge11" class="edge">
<title>function&#45;1&#45;Add:s&#45;&gt;function&#45;3&#45;RegVal</title>
<path fill="none" stroke="black" d="M320,-253C320,-239.78 321.37,-225.04 322.8,-213.25"/>
<polygon fill="black" stroke="black" points="323.74,-216.29 323.46,-211 320.38,-215.31 323.74,-216.29"/>
</g>
<!-- function&#45;2&#45;RegVal&#45;&gt;primitive&#45;String&#45;2 -->
<g id="edge14" class="edge">
<title>function&#45;2&#45;RegVal:s&#45;&gt;primitive&#45;String&#45;2</title>
<path fill="none" stroke="black" d="M257,-174C257,-160.84 257,-146.11 257,-134.3"/>
<polygon fill="black" stroke="black" points="258.75,-137 257,-132 255.25,-137 258.75,-137"/>
</g>
<!-- function&#45;3&#45;RegVal&#45;&gt;primitive&#45;String&#45;3 -->
<g id="edge15" class="edge">
<title>function&#45;3&#45;RegVal:s&#45;&gt;primitive&#45;String&#45;3</title>
<path fill="none" stroke="black" d="M327,-174C327,-160.84 327,-146.11 327,-134.3"/>
<polygon fill="black" stroke="black" points="328.75,-137 327,-132 325.25,-137 328.75,-137"/>
</g>
<!-- function&#45;3&#45;Add&#45;&gt;function&#45;2&#45;RegVal -->
<g id="edge13" class="edge">
<title>function&#45;3&#45;Add:s&#45;&gt;function&#45;2&#45;RegVal</title>
<path fill="none" stroke="black" d="M262,-253C262,-239.78 260.63,-225.04 259.2,-213.25"/>
<polygon fill="black" stroke="black" points="261.62,-215.31 258.54,-211 258.26,-216.29 261.62,-215.31"/>
</g>
<!-- function&#45;3&#45;Add&#45;&gt;function&#45;3&#45;RegVal -->
<g id="edge12" class="edge">
<title>function&#45;3&#45;Add:s&#45;&gt;function&#45;3&#45;RegVal</title>
<path fill="none" stroke="black" d="M244,-253C244,-246.36 271.68,-226.51 294.88,-211.04"/>
<polygon fill="black" stroke="black" points="290.42,-213.39 295.15,-211 289.96,-209.92 290.42,-213.39"/>
</g>
<!-- function&#45;0&#45;ImmVal -->
<g id="node1" class="node">
<title>function&#45;0&#45;ImmVal</title>
<g id="a_node1"><a xlink:title="Imm&#45;6: function&#45;0&#45;ImmVal">
<path fill="white" stroke="transparent" d="M24.67,-174C24.67,-174 65.33,-174 65.33,-174 70.67,-174 76,-179.33 76,-184.67 76,-184.67 76,-195.33 76,-195.33 76,-200.67 70.67,-206 65.33,-206 65.33,-206 24.67,-206 24.67,-206 19.33,-206 14,-200.67 14,-195.33 14,-195.33 14,-184.67 14,-184.67 14,-179.33 19.33,-174 24.67,-174"/>
<text text-anchor="start" x="19" y="-186.3" font-family="Helvetica,sans-Serif" font-size="14.00">ImmVal</text>
<path fill="none" stroke="black" d="M24.67,-174C24.67,-174 65.33,-174 65.33,-174 70.67,-174 76,-179.33 76,-184.67 76,-184.67 76,-195.33 76,-195.33 76,-200.67 70.67,-206 65.33,-206 65.33,-206 24.67,-206 24.67,-206 19.33,-206 14,-200.67 14,-195.33 14,-195.33 14,-184.67 14,-184.67 14,-179.33 19.33,-174 24.67,-174"/>
</a>
</g>
</g>
<!-- primitive&#45;i64&#45;0 -->
<g id="node2" class="node">
<title>primitive&#45;i64&#45;0</title>
<g id="a_node2"><a xlink:title="i64&#45;0: primitive&#45;i64&#45;0">
<path fill="white" stroke="transparent" d="M39.67,-95C39.67,-95 50.33,-95 50.33,-95 55.67,-95 61,-100.33 61,-105.67 61,-105.67 61,-116.33 61,-116.33 61,-121.67 55.67,-127 50.33,-127 50.33,-127 39.67,-127 39.67,-127 34.33,-127 29,-121.67 29,-116.33 29,-116.33 29,-105.67 29,-105.67 29,-100.33 34.33,-95 39.67,-95"/>
<text text-anchor="start" x="40" y="-107.3" font-family="Helvetica,sans-Serif" font-size="14.00">0</text>
<path fill="none" stroke="black" d="M39.67,-95C39.67,-95 50.33,-95 50.33,-95 55.67,-95 61,-100.33 61,-105.67 61,-105.67 61,-116.33 61,-116.33 61,-121.67 55.67,-127 50.33,-127 50.33,-127 39.67,-127 39.67,-127 34.33,-127 29,-121.67 29,-116.33 29,-116.33 29,-105.67 29,-105.67 29,-100.33 34.33,-95 39.67,-95"/>
</a>
</g>
</g>
<!-- function&#45;0&#45;Addi -->
<g id="node3" class="node">
<title>function&#45;0&#45;Addi</title>
<g id="a_node3"><a xlink:title="Inst&#45;7: function&#45;0&#45;Addi">
<path fill="white" stroke="transparent" d="M107.17,-253C107.17,-253 126.83,-253 126.83,-253 132.17,-253 137.5,-258.33 137.5,-263.67 137.5,-263.67 137.5,-274.33 137.5,-274.33 137.5,-279.67 132.17,-285 126.83,-285 126.83,-285 107.17,-285 107.17,-285 101.83,-285 96.5,-279.67 96.5,-274.33 96.5,-274.33 96.5,-263.67 96.5,-263.67 96.5,-258.33 101.83,-253 107.17,-253"/>
<text text-anchor="start" x="102" y="-265.3" font-family="Helvetica,sans-Serif" font-size="14.00">Addi</text>
<path fill="none" stroke="black" d="M107.17,-253C107.17,-253 126.83,-253 126.83,-253 132.17,-253 137.5,-258.33 137.5,-263.67 137.5,-263.67 137.5,-274.33 137.5,-274.33 137.5,-279.67 132.17,-285 126.83,-285 126.83,-285 107.17,-285 107.17,-285 101.83,-285 96.5,-279.67 96.5,-274.33 96.5,-274.33 96.5,-263.67 96.5,-263.67 96.5,-258.33 101.83,-253 107.17,-253"/>
</a>
</g>
</g>
<!-- function&#45;2&#45;Add -->
<g id="node4" class="node">
<title>function&#45;2&#45;Add</title>
<g id="a_node4"><a xlink:title="Inst&#45;3: function&#45;2&#45;Add">
<path fill="white" stroke="transparent" d="M164.67,-174C164.67,-174 181.33,-174 181.33,-174 186.67,-174 192,-179.33 192,-184.67 192,-184.67 192,-195.33 192,-195.33 192,-200.67 186.67,-206 181.33,-206 181.33,-206 164.67,-206 164.67,-206 159.33,-206 154,-200.67 154,-195.33 154,-195.33 154,-184.67 154,-184.67 154,-179.33 159.33,-174 164.67,-174"/>
<text text-anchor="start" x="159" y="-186.3" font-family="Helvetica,sans-Serif" font-size="14.00">Add</text>
<path fill="none" stroke="black" d="M164.67,-174C164.67,-174 181.33,-174 181.33,-174 186.67,-174 192,-179.33 192,-184.67 192,-184.67 192,-195.33 192,-195.33 192,-200.67 186.67,-206 181.33,-206 181.33,-206 164.67,-206 164.67,-206 159.33,-206 154,-200.67 154,-195.33 154,-195.33 154,-184.67 154,-184.67 154,-179.33 159.33,-174 164.67,-174"/>
</a>
</g>
</g>
<!-- function&#45;1&#45;RegVal -->
<g id="node5" class="node">
<title>function&#45;1&#45;RegVal</title>
<g id="a_node5"><a xlink:title="Inst&#45;1: function&#45;1&#45;RegVal">
<path fill="white" stroke="transparent" d="M96.17,-95C96.17,-95 131.83,-95 131.83,-95 137.17,-95 142.5,-100.33 142.5,-105.67 142.5,-105.67 142.5,-116.33 142.5,-116.33 142.5,-121.67 137.17,-127 131.83,-127 131.83,-127 96.17,-127 96.17,-127 90.83,-127 85.5,-121.67 85.5,-116.33 85.5,-116.33 85.5,-105.67 85.5,-105.67 85.5,-100.33 90.83,-95 96.17,-95"/>
<text text-anchor="start" x="91" y="-107.3" font-family="Helvetica,sans-Serif" font-size="14.00">RegVal</text>
<path fill="none" stroke="black" d="M96.17,-95C96.17,-95 131.83,-95 131.83,-95 137.17,-95 142.5,-100.33 142.5,-105.67 142.5,-105.67 142.5,-116.33 142.5,-116.33 142.5,-121.67 137.17,-127 131.83,-127 131.83,-127 96.17,-127 96.17,-127 90.83,-127 85.5,-121.67 85.5,-116.33 85.5,-116.33 85.5,-105.67 85.5,-105.67 85.5,-100.33 90.83,-95 96.17,-95"/>
</a>
</g>
</g>
<!-- primitive&#45;String&#45;1 -->
<g id="node6" class="node">
<title>primitive&#45;String&#45;1</title>
<g id="a_node6"><a xlink:title="String&#45;1: primitive&#45;String&#45;1">
<path fill="white" stroke="transparent" d="M97.17,-16C97.17,-16 132.83,-16 132.83,-16 138.17,-16 143.5,-21.33 143.5,-26.67 143.5,-26.67 143.5,-37.33 143.5,-37.33 143.5,-42.67 138.17,-48 132.83,-48 132.83,-48 97.17,-48 97.17,-48 91.83,-48 86.5,-42.67 86.5,-37.33 86.5,-37.33 86.5,-26.67 86.5,-26.67 86.5,-21.33 91.83,-16 97.17,-16"/>
<text text-anchor="start" x="92" y="-28.3" font-family="Helvetica,sans-Serif" font-size="14.00">&quot;a3_0&quot;</text>
<path fill="none" stroke="black" d="M97.17,-16C97.17,-16 132.83,-16 132.83,-16 138.17,-16 143.5,-21.33 143.5,-26.67 143.5,-26.67 143.5,-37.33 143.5,-37.33 143.5,-42.67 138.17,-48 132.83,-48 132.83,-48 97.17,-48 97.17,-48 91.83,-48 86.5,-42.67 86.5,-37.33 86.5,-37.33 86.5,-26.67 86.5,-26.67 86.5,-21.33 91.83,-16 97.17,-16"/>
</a>
</g>
</g>
<!-- function&#45;0&#45;Add -->
<g id="node7" class="node">
<title>function&#45;0&#45;Add</title>
<g id="a_node7"><a xlink:title="Inst&#45;3: function&#45;0&#45;Add">
<path fill="white" stroke="transparent" d="M106.67,-174C106.67,-174 123.33,-174 123.33,-174 128.67,-174 134,-179.33 134,-184.67 134,-184.67 134,-195.33 134,-195.33 134,-200.67 128.67,-206 123.33,-206 123.33,-206 106.67,-206 106.67,-206 101.33,-206 96,-200.67 96,-195.33 96,-195.33 96,-184.67 96,-184.67 96,-179.33 101.33,-174 106.67,-174"/>
<text text-anchor="start" x="101" y="-186.3" font-family="Helvetica,sans-Serif" font-size="14.00">Add</text>
<path fill="none" stroke="black" d="M106.67,-174C106.67,-174 123.33,-174 123.33,-174 128.67,-174 134,-179.33 134,-184.67 134,-184.67 134,-195.33 134,-195.33 134,-200.67 128.67,-206 123.33,-206 123.33,-206 106.67,-206 106.67,-206 101.33,-206 96,-200.67 96,-195.33 96,-195.33 96,-184.67 96,-184.67 96,-179.33 101.33,-174 106.67,-174"/>
</a>
</g>
</g>
<!-- function&#45;0&#45;RegVal -->
<g id="node8" class="node">
<title>function&#45;0&#45;RegVal</title>
<g id="a_node8"><a xlink:title="Inst&#45;0: function&#45;0&#45;RegVal">
<path fill="white" stroke="transparent" d="M166.17,-95C166.17,-95 201.83,-95 201.83,-95 207.17,-95 212.5,-100.33 212.5,-105.67 212.5,-105.67 212.5,-116.33 212.5,-116.33 212.5,-121.67 207.17,-127 201.83,-127 201.83,-127 166.17,-127 166.17,-127 160.83,-127 155.5,-121.67 155.5,-116.33 155.5,-116.33 155.5,-105.67 155.5,-105.67 155.5,-100.33 160.83,-95 166.17,-95"/>
<text text-anchor="start" x="161" y="-107.3" font-family="Helvetica,sans-Serif" font-size="14.00">RegVal</text>
<path fill="none" stroke="black" d="M166.17,-95C166.17,-95 201.83,-95 201.83,-95 207.17,-95 212.5,-100.33 212.5,-105.67 212.5,-105.67 212.5,-116.33 212.5,-116.33 212.5,-121.67 207.17,-127 201.83,-127 201.83,-127 166.17,-127 166.17,-127 160.83,-127 155.5,-121.67 155.5,-116.33 155.5,-116.33 155.5,-105.67 155.5,-105.67 155.5,-100.33 160.83,-95 166.17,-95"/>
</a>
</g>
</g>
<!-- primitive&#45;String&#45;0 -->
<g id="node9" class="node">
<title>primitive&#45;String&#45;0</title>
<g id="a_node9"><a xlink:title="String&#45;0: primitive&#45;String&#45;0">
<path fill="white" stroke="transparent" d="M167.17,-16C167.17,-16 202.83,-16 202.83,-16 208.17,-16 213.5,-21.33 213.5,-26.67 213.5,-26.67 213.5,-37.33 213.5,-37.33 213.5,-42.67 208.17,-48 202.83,-48 202.83,-48 167.17,-48 167.17,-48 161.83,-48 156.5,-42.67 156.5,-37.33 156.5,-37.33 156.5,-26.67 156.5,-26.67 156.5,-21.33 161.83,-16 167.17,-16"/>
<text text-anchor="start" x="162" y="-28.3" font-family="Helvetica,sans-Serif" font-size="14.00">&quot;a2_0&quot;</text>
<path fill="none" stroke="black" d="M167.17,-16C167.17,-16 202.83,-16 202.83,-16 208.17,-16 213.5,-21.33 213.5,-26.67 213.5,-26.67 213.5,-37.33 213.5,-37.33 213.5,-42.67 208.17,-48 202.83,-48 202.83,-48 167.17,-48 167.17,-48 161.83,-48 156.5,-42.67 156.5,-37.33 156.5,-37.33 156.5,-26.67 156.5,-26.67 156.5,-21.33 161.83,-16 167.17,-16"/>
</a>
</g>
</g>
<!-- function&#45;1&#45;Add -->
<g id="node10" class="node">
<title>function&#45;1&#45;Add</title>
<g id="a_node10"><a xlink:title="Inst&#45;5: function&#45;1&#45;Add">
<path fill="white" stroke="transparent" d="M302.67,-253C302.67,-253 319.33,-253 319.33,-253 324.67,-253 330,-258.33 330,-263.67 330,-263.67 330,-274.33 330,-274.33 330,-279.67 324.67,-285 319.33,-285 319.33,-285 302.67,-285 302.67,-285 297.33,-285 292,-279.67 292,-274.33 292,-274.33 292,-263.67 292,-263.67 292,-258.33 297.33,-253 302.67,-253"/>
<text text-anchor="start" x="297" y="-265.3" font-family="Helvetica,sans-Serif" font-size="14.00">Add</text>
<path fill="none" stroke="black" d="M302.67,-253C302.67,-253 319.33,-253 319.33,-253 324.67,-253 330,-258.33 330,-263.67 330,-263.67 330,-274.33 330,-274.33 330,-279.67 324.67,-285 319.33,-285 319.33,-285 302.67,-285 302.67,-285 297.33,-285 292,-279.67 292,-274.33 292,-274.33 292,-263.67 292,-263.67 292,-258.33 297.33,-253 302.67,-253"/>
</a>
</g>
</g>
<!-- function&#45;2&#45;RegVal -->
<g id="node11" class="node">
<title>function&#45;2&#45;RegVal</title>
<g id="a_node11"><a xlink:title="Inst&#45;2: function&#45;2&#45;RegVal">
<path fill="white" stroke="transparent" d="M238.17,-174C238.17,-174 273.83,-174 273.83,-174 279.17,-174 284.5,-179.33 284.5,-184.67 284.5,-184.67 284.5,-195.33 284.5,-195.33 284.5,-200.67 279.17,-206 273.83,-206 273.83,-206 238.17,-206 238.17,-206 232.83,-206 227.5,-200.67 227.5,-195.33 227.5,-195.33 227.5,-184.67 227.5,-184.67 227.5,-179.33 232.83,-174 238.17,-174"/>
<text text-anchor="start" x="233" y="-186.3" font-family="Helvetica,sans-Serif" font-size="14.00">RegVal</text>
<path fill="none" stroke="black" d="M238.17,-174C238.17,-174 273.83,-174 273.83,-174 279.17,-174 284.5,-179.33 284.5,-184.67 284.5,-184.67 284.5,-195.33 284.5,-195.33 284.5,-200.67 279.17,-206 273.83,-206 273.83,-206 238.17,-206 238.17,-206 232.83,-206 227.5,-200.67 227.5,-195.33 227.5,-195.33 227.5,-184.67 227.5,-184.67 227.5,-179.33 232.83,-174 238.17,-174"/>
</a>
</g>
</g>
<!-- function&#45;3&#45;RegVal -->
<g id="node12" class="node">
<title>function&#45;3&#45;RegVal</title>
<g id="a_node12"><a xlink:title="Inst&#45;4: function&#45;3&#45;RegVal">
<path fill="white" stroke="transparent" d="M308.17,-174C308.17,-174 343.83,-174 343.83,-174 349.17,-174 354.5,-179.33 354.5,-184.67 354.5,-184.67 354.5,-195.33 354.5,-195.33 354.5,-200.67 349.17,-206 343.83,-206 343.83,-206 308.17,-206 308.17,-206 302.83,-206 297.5,-200.67 297.5,-195.33 297.5,-195.33 297.5,-184.67 297.5,-184.67 297.5,-179.33 302.83,-174 308.17,-174"/>
<text text-anchor="start" x="303" y="-186.3" font-family="Helvetica,sans-Serif" font-size="14.00">RegVal</text>
<path fill="none" stroke="black" d="M308.17,-174C308.17,-174 343.83,-174 343.83,-174 349.17,-174 354.5,-179.33 354.5,-184.67 354.5,-184.67 354.5,-195.33 354.5,-195.33 354.5,-200.67 349.17,-206 343.83,-206 343.83,-206 308.17,-206 308.17,-206 302.83,-206 297.5,-200.67 297.5,-195.33 297.5,-195.33 297.5,-184.67 297.5,-184.67 297.5,-179.33 302.83,-174 308.17,-174"/>
</a>
</g>
</g>
<!-- function&#45;3&#45;Add -->
<g id="node13" class="node">
<title>function&#45;3&#45;Add</title>
<g id="a_node13"><a xlink:title="Inst&#45;5: function&#45;3&#45;Add">
<path fill="white" stroke="transparent" d="M244.67,-253C244.67,-253 261.33,-253 261.33,-253 266.67,-253 272,-258.33 272,-263.67 272,-263.67 272,-274.33 272,-274.33 272,-279.67 266.67,-285 261.33,-285 261.33,-285 244.67,-285 244.67,-285 239.33,-285 234,-279.67 234,-274.33 234,-274.33 234,-263.67 234,-263.67 234,-258.33 239.33,-253 244.67,-253"/>
<text text-anchor="start" x="239" y="-265.3" font-family="Helvetica,sans-Serif" font-size="14.00">Add</text>
<path fill="none" stroke="black" d="M244.67,-253C244.67,-253 261.33,-253 261.33,-253 266.67,-253 272,-258.33 272,-263.67 272,-263.67 272,-274.33 272,-274.33 272,-279.67 266.67,-285 261.33,-285 261.33,-285 244.67,-285 244.67,-285 239.33,-285 234,-279.67 234,-274.33 234,-274.33 234,-263.67 234,-263.67 234,-258.33 239.33,-253 244.67,-253"/>
</a>
</g>
</g>
<!-- primitive&#45;String&#45;2 -->
<g id="node14" class="node">
<title>primitive&#45;String&#45;2</title>
<g id="a_node14"><a xlink:title="String&#45;2: primitive&#45;String&#45;2">
<path fill="white" stroke="transparent" d="M239.17,-95C239.17,-95 274.83,-95 274.83,-95 280.17,-95 285.5,-100.33 285.5,-105.67 285.5,-105.67 285.5,-116.33 285.5,-116.33 285.5,-121.67 280.17,-127 274.83,-127 274.83,-127 239.17,-127 239.17,-127 233.83,-127 228.5,-121.67 228.5,-116.33 228.5,-116.33 228.5,-105.67 228.5,-105.67 228.5,-100.33 233.83,-95 239.17,-95"/>
<text text-anchor="start" x="234" y="-107.3" font-family="Helvetica,sans-Serif" font-size="14.00">&quot;a5_0&quot;</text>
<path fill="none" stroke="black" d="M239.17,-95C239.17,-95 274.83,-95 274.83,-95 280.17,-95 285.5,-100.33 285.5,-105.67 285.5,-105.67 285.5,-116.33 285.5,-116.33 285.5,-121.67 280.17,-127 274.83,-127 274.83,-127 239.17,-127 239.17,-127 233.83,-127 228.5,-121.67 228.5,-116.33 228.5,-116.33 228.5,-105.67 228.5,-105.67 228.5,-100.33 233.83,-95 239.17,-95"/>
</a>
</g>
</g>
<!-- primitive&#45;String&#45;3 -->
<g id="node15" class="node">
<title>primitive&#45;String&#45;3</title>
<g id="a_node15"><a xlink:title="String&#45;3: primitive&#45;String&#45;3">
<path fill="white" stroke="transparent" d="M309.17,-95C309.17,-95 344.83,-95 344.83,-95 350.17,-95 355.5,-100.33 355.5,-105.67 355.5,-105.67 355.5,-116.33 355.5,-116.33 355.5,-121.67 350.17,-127 344.83,-127 344.83,-127 309.17,-127 309.17,-127 303.83,-127 298.5,-121.67 298.5,-116.33 298.5,-116.33 298.5,-105.67 298.5,-105.67 298.5,-100.33 303.83,-95 309.17,-95"/>
<text text-anchor="start" x="304" y="-107.3" font-family="Helvetica,sans-Serif" font-size="14.00">&quot;a3_1&quot;</text>
<path fill="none" stroke="black" d="M309.17,-95C309.17,-95 344.83,-95 344.83,-95 350.17,-95 355.5,-100.33 355.5,-105.67 355.5,-105.67 355.5,-116.33 355.5,-116.33 355.5,-121.67 350.17,-127 344.83,-127 344.83,-127 309.17,-127 309.17,-127 303.83,-127 298.5,-121.67 298.5,-116.33 298.5,-116.33 298.5,-105.67 298.5,-105.67 298.5,-100.33 303.83,-95 309.17,-95"/>
</a>
</g>
</g>
</g>
</svg>
