<?xml version="1.0" encoding="UTF-8" standalone="no"?>
<!DOCTYPE svg PUBLIC "-//W3C//DTD SVG 1.1//EN"
 "http://www.w3.org/Graphics/SVG/1.1/DTD/svg11.dtd">
<!-- Generated by graphviz version 2.43.0 (0)
 -->
<!-- Title: %3 Pages: 1 -->
<svg width="518pt" height="388pt"
 viewBox="0.00 0.00 517.73 388.00" xmlns="http://www.w3.org/2000/svg" xmlns:xlink="http://www.w3.org/1999/xlink">
<g id="graph0" class="graph" transform="scale(1 1) rotate(0) translate(4 384)">
<title>%3</title>
<polygon fill="white" stroke="#000000" points="-4,4 -4,-384 513.73,-384 513.73,4 -4,4"/>
<g id="clust1" class="cluster">
<title>outer_cluster_Imm&#45;4</title>
</g>
<g id="clust2" class="cluster">
<title>cluster_Imm&#45;4</title>
<path fill="#ffffb3" stroke="black" stroke-dasharray="5,2" d="M70,-169C70,-169 114,-169 114,-169 120,-169 126,-175 126,-181 126,-181 126,-199 126,-199 126,-205 120,-211 114,-211 114,-211 70,-211 70,-211 64,-211 58,-205 58,-199 58,-199 58,-181 58,-181 58,-175 64,-169 70,-169"/>
</g>
<g id="clust4" class="cluster">
<title>outer_cluster_Imm&#45;6</title>
</g>
<g id="clust5" class="cluster">
<title>cluster_Imm&#45;6</title>
<path fill="#ffffb3" stroke="black" stroke-dasharray="5,2" d="M294,-90C294,-90 338,-90 338,-90 344,-90 350,-96 350,-102 350,-102 350,-120 350,-120 350,-126 344,-132 338,-132 338,-132 294,-132 294,-132 288,-132 282,-126 282,-120 282,-120 282,-102 282,-102 282,-96 288,-90 294,-90"/>
</g>
<g id="clust7" class="cluster">
<title>outer_cluster_Imm&#45;2</title>
</g>
<g id="clust8" class="cluster">
<title>cluster_Imm&#45;2</title>
<path fill="#ffffb3" stroke="black" stroke-dasharray="5,2" d="M143,-90C143,-90 187,-90 187,-90 193,-90 199,-96 199,-102 199,-102 199,-120 199,-120 199,-126 193,-132 187,-132 187,-132 143,-132 143,-132 137,-132 131,-126 131,-120 131,-120 131,-102 131,-102 131,-96 137,-90 143,-90"/>
</g>
<g id="clust10" class="cluster">
<title>outer_cluster_Inst&#45;0</title>
</g>
<g id="clust11" class="cluster">
<title>cluster_Inst&#45;0</title>
<path fill="#bebada" stroke="black" stroke-dasharray="5,2" d="M217,-90C217,-90 257,-90 257,-90 263,-90 269,-96 269,-102 269,-102 269,-120 269,-120 269,-126 263,-132 257,-132 257,-132 217,-132 217,-132 211,-132 205,-126 205,-120 205,-120 205,-102 205,-102 205,-96 211,-90 217,-90"/>
</g>
<g id="clust13" class="cluster">
<title>outer_cluster_Inst&#45;10</title>
</g>
<g id="clust14" class="cluster">
<title>cluster_Inst&#45;10</title>
<path fill="#bebada" stroke="black" stroke-dasharray="5,2" d="M298,-169C298,-169 334,-169 334,-169 340,-169 346,-175 346,-181 346,-181 346,-199 346,-199 346,-205 340,-211 334,-211 334,-211 298,-211 298,-211 292,-211 286,-205 286,-199 286,-199 286,-181 286,-181 286,-175 292,-169 298,-169"/>
</g>
<g id="clust16" class="cluster">
<title>outer_cluster_Inst&#45;8</title>
</g>
<g id="clust17" class="cluster">
<title>cluster_Inst&#45;8</title>
<path fill="#bebada" stroke="black" stroke-dasharray="5,2" d="M34,-248C34,-248 70,-248 70,-248 76,-248 82,-254 82,-260 82,-260 82,-278 82,-278 82,-284 76,-290 70,-290 70,-290 34,-290 34,-290 28,-290 22,-284 22,-278 22,-278 22,-260 22,-260 22,-254 28,-248 34,-248"/>
</g>
<g id="clust19" class="cluster">
<title>outer_cluster_Inst&#45;7</title>
</g>
<g id="clust20" class="cluster">
<title>cluster_Inst&#45;7</title>
<path fill="#bebada" stroke="black" stroke-dasharray="5,2" d="M143,-248C143,-248 295,-248 295,-248 301,-248 307,-254 307,-260 307,-260 307,-278 307,-278 307,-284 301,-290 295,-290 295,-290 143,-290 143,-290 137,-290 131,-284 131,-278 131,-278 131,-260 131,-260 131,-254 137,-248 143,-248"/>
</g>
<g id="clust22" class="cluster">
<title>outer_cluster_Inst&#45;5</title>
</g>
<g id="clust23" class="cluster">
<title>cluster_Inst&#45;5</title>
<path fill="#bebada" stroke="black" stroke-dasharray="5,2" d="M23,-327C23,-327 175,-327 175,-327 181,-327 187,-333 187,-339 187,-339 187,-357 187,-357 187,-363 181,-369 175,-369 175,-369 23,-369 23,-369 17,-369 11,-363 11,-357 11,-357 11,-339 11,-339 11,-333 17,-327 23,-327"/>
</g>
<g id="clust25" class="cluster">
<title>outer_cluster_Inst&#45;9</title>
</g>
<g id="clust26" class="cluster">
<title>cluster_Inst&#45;9</title>
<path fill="#bebada" stroke="black" stroke-dasharray="5,2" d="M325,-248C325,-248 477,-248 477,-248 483,-248 489,-254 489,-260 489,-260 489,-278 489,-278 489,-284 483,-290 477,-290 477,-290 325,-290 325,-290 319,-290 313,-284 313,-278 313,-278 313,-260 313,-260 313,-254 319,-248 325,-248"/>
</g>
<g id="clust28" class="cluster">
<title>outer_cluster_Inst&#45;3</title>
</g>
<g id="clust29" class="cluster">
<title>cluster_Inst&#45;3</title>
<path fill="#bebada" stroke="black" stroke-dasharray="5,2" d="M155,-169C155,-169 191,-169 191,-169 197,-169 203,-175 203,-181 203,-181 203,-199 203,-199 203,-205 197,-211 191,-211 191,-211 155,-211 155,-211 149,-211 143,-205 143,-199 143,-199 143,-181 143,-181 143,-175 149,-169 155,-169"/>
</g>
<g id="clust31" class="cluster">
<title>outer_cluster_Inst&#45;1</title>
</g>
<g id="clust32" class="cluster">
<title>cluster_Inst&#45;1</title>
<path fill="#bebada" stroke="black" stroke-dasharray="5,2" d="M428,-169C428,-169 468,-169 468,-169 474,-169 480,-175 480,-181 480,-181 480,-199 480,-199 480,-205 474,-211 468,-211 468,-211 428,-211 428,-211 422,-211 416,-205 416,-199 416,-199 416,-181 416,-181 416,-175 422,-169 428,-169"/>
</g>
<g id="clust34" class="cluster">
<title>outer_cluster_String&#45;1</title>
</g>
<g id="clust35" class="cluster">
<title>cluster_String&#45;1</title>
<path fill="#fb8072" stroke="black" stroke-dasharray="5,2" d="M423,-90C423,-90 475,-90 475,-90 481,-90 487,-96 487,-102 487,-102 487,-120 487,-120 487,-126 481,-132 475,-132 475,-132 423,-132 423,-132 417,-132 411,-126 411,-120 411,-120 411,-102 411,-102 411,-96 417,-90 423,-90"/>
</g>
<g id="clust37" class="cluster">
<title>outer_cluster_String&#45;0</title>
</g>
<g id="clust38" class="cluster">
<title>cluster_String&#45;0</title>
<path fill="#fb8072" stroke="black" stroke-dasharray="5,2" d="M218,-11C218,-11 258,-11 258,-11 264,-11 270,-17 270,-23 270,-23 270,-41 270,-41 270,-47 264,-53 258,-53 258,-53 218,-53 218,-53 212,-53 206,-47 206,-41 206,-41 206,-23 206,-23 206,-17 212,-11 218,-11"/>
</g>
<g id="clust40" class="cluster">
<title>outer_cluster_i64&#45;0</title>
</g>
<g id="clust41" class="cluster">
<title>cluster_i64&#45;0</title>
<path fill="#80b1d3" stroke="black" stroke-dasharray="5,2" d="M74,-90C74,-90 110,-90 110,-90 116,-90 122,-96 122,-102 122,-102 122,-120 122,-120 122,-126 116,-132 110,-132 110,-132 74,-132 74,-132 68,-132 62,-126 62,-120 62,-120 62,-102 62,-102 62,-96 68,-90 74,-90"/>
</g>
<g id="clust43" class="cluster">
<title>outer_cluster_i64&#45;8</title>
</g>
<g id="clust44" class="cluster">
<title>cluster_i64&#45;8</title>
<path fill="#80b1d3" stroke="black" stroke-dasharray="5,2" d="M147,-11C147,-11 183,-11 183,-11 189,-11 195,-17 195,-23 195,-23 195,-41 195,-41 195,-47 189,-53 183,-53 183,-53 147,-53 147,-53 141,-53 135,-47 135,-41 135,-41 135,-23 135,-23 135,-17 141,-11 147,-11"/>
</g>
<g id="clust46" class="cluster">
<title>outer_cluster_i64&#45;4</title>
</g>
<g id="clust47" class="cluster">
<title>cluster_i64&#45;4</title>
<path fill="#80b1d3" stroke="black" stroke-dasharray="5,2" d="M298,-11C298,-11 334,-11 334,-11 340,-11 346,-17 346,-23 346,-23 346,-41 346,-41 346,-47 340,-53 334,-53 334,-53 298,-53 298,-53 292,-53 286,-47 286,-41 286,-41 286,-23 286,-23 286,-17 292,-11 298,-11"/>
</g>
<!-- function&#45;1&#45;ImmVal&#45;&gt;primitive&#45;i64&#45;0 -->
<g id="edge1" class="edge">
<title>function&#45;1&#45;ImmVal:s&#45;&gt;primitive&#45;i64&#45;0</title>
<path fill="none" stroke="black" d="M92,-174C92,-160.84 92,-146.11 92,-134.3"/>
<polygon fill="black" stroke="black" points="93.75,-137 92,-132 90.25,-137 93.75,-137"/>
</g>
<!-- function&#45;2&#45;ImmVal&#45;&gt;primitive&#45;i64&#45;4 -->
<g id="edge2" class="edge">
<title>function&#45;2&#45;ImmVal:s&#45;&gt;primitive&#45;i64&#45;4</title>
<path fill="none" stroke="black" d="M316,-95C316,-81.84 316,-67.11 316,-55.3"/>
<polygon fill="black" stroke="black" points="317.75,-58 316,-53 314.25,-58 317.75,-58"/>
</g>
<!-- function&#45;0&#45;ImmVal&#45;&gt;primitive&#45;i64&#45;8 -->
<g id="edge3" class="edge">
<title>function&#45;0&#45;ImmVal:s&#45;&gt;primitive&#45;i64&#45;8</title>
<path fill="none" stroke="black" d="M165,-95C165,-81.84 165,-67.11 165,-55.3"/>
<polygon fill="black" stroke="black" points="166.75,-58 165,-53 163.25,-58 166.75,-58"/>
</g>
<!-- function&#45;0&#45;RegVal&#45;&gt;primitive&#45;String&#45;0 -->
<g id="edge4" class="edge">
<title>function&#45;0&#45;RegVal:s&#45;&gt;primitive&#45;String&#45;0</title>
<path fill="none" stroke="black" d="M238,-95C238,-81.84 238,-67.11 238,-55.3"/>
<polygon fill="black" stroke="black" points="239.75,-58 238,-53 236.25,-58 239.75,-58"/>
</g>
<!-- function&#45;1&#45;Jal&#45;&gt;function&#45;2&#45;ImmVal -->
<g id="edge5" class="edge">
<title>function&#45;1&#45;Jal:s&#45;&gt;function&#45;2&#45;ImmVal</title>
<path fill="none" stroke="black" d="M316,-174C316,-160.84 316,-146.11 316,-134.3"/>
<polygon fill="black" stroke="black" points="317.75,-137 316,-132 314.25,-137 317.75,-137"/>
</g>
<!-- function&#45;0&#45;Jal&#45;&gt;function&#45;1&#45;ImmVal -->
<g id="edge6" class="edge">
<title>function&#45;0&#45;Jal:s&#45;&gt;function&#45;1&#45;ImmVal</title>
<path fill="none" stroke="black" d="M52,-253C52,-237.71 60.69,-223.2 69.97,-212.07"/>
<polygon fill="black" stroke="black" points="68.45,-215.4 71.41,-211 66.35,-212.6 68.45,-215.4"/>
</g>
<!-- function&#45;0&#45;Blt&#45;&gt;function&#45;2&#45;ImmVal -->
<g id="edge9" class="edge">
<title>function&#45;0&#45;Blt:s&#45;&gt;function&#45;2&#45;ImmVal</title>
<path fill="none" stroke="black" d="M172,-253C172,-249.81 244.69,-168.2 247,-166 259.56,-154.02 274.63,-141.99 287.48,-132.34"/>
<polygon fill="black" stroke="black" points="284.37,-134.99 288.75,-132 283.46,-131.61 284.37,-134.99"/>
</g>
<!-- function&#45;0&#45;Blt&#45;&gt;function&#45;0&#45;Slli -->
<g id="edge7" class="edge">
<title>function&#45;0&#45;Blt:s&#45;&gt;function&#45;0&#45;Slli</title>
<path fill="none" stroke="black" d="M153,-253C153,-239.24 157.51,-224.56 162.25,-212.94"/>
<polygon fill="black" stroke="black" points="162.49,-216.24 163.29,-211 159.4,-214.6 162.49,-216.24"/>
</g>
<!-- function&#45;0&#45;Blt&#45;&gt;function&#45;1&#45;RegVal -->
<g id="edge8" class="edge">
<title>function&#45;0&#45;Blt:s&#45;&gt;function&#45;1&#45;RegVal</title>
<path fill="none" stroke="black" d="M165,-253C165,-240.48 179.85,-248.01 192,-245 260.19,-228.11 278.3,-228.69 347,-214 369.44,-209.2 394.6,-203.47 414.2,-198.93"/>
<polygon fill="black" stroke="black" points="412.79,-201.96 416,-197.75 410.86,-199.03 412.79,-201.96"/>
</g>
<!-- function&#45;0&#45;Slli&#45;&gt;function&#45;0&#45;ImmVal -->
<g id="edge32" class="edge">
<title>function&#45;0&#45;Slli:s&#45;&gt;function&#45;0&#45;ImmVal</title>
<path fill="none" stroke="black" d="M181,-174C181,-160.38 177.34,-145.6 173.52,-133.89"/>
<polygon fill="black" stroke="black" points="176.48,-134.63 171.88,-132 173.83,-136.92 176.48,-134.63"/>
</g>
<!-- function&#45;0&#45;Slli&#45;&gt;function&#45;0&#45;RegVal -->
<g id="edge31" class="edge">
<title>function&#45;0&#45;Slli:s&#45;&gt;function&#45;0&#45;RegVal</title>
<path fill="none" stroke="black" d="M165,-174C165,-162.65 185.8,-145.59 205.04,-132.24"/>
<polygon fill="black" stroke="black" points="201.76,-134.6 206.37,-132 201.14,-131.16 201.76,-134.6"/>
</g>
<!-- function&#45;1&#45;RegVal&#45;&gt;primitive&#45;String&#45;1 -->
<g id="edge33" class="edge">
<title>function&#45;1&#45;RegVal:s&#45;&gt;primitive&#45;String&#45;1</title>
<path fill="none" stroke="black" d="M449,-174C449,-160.84 449,-146.11 449,-134.3"/>
<polygon fill="black" stroke="black" points="450.75,-137 449,-132 447.25,-137 450.75,-137"/>
</g>
<!-- function&#45;1&#45;Bge&#45;&gt;function&#45;2&#45;ImmVal -->
<g id="edge12" class="edge">
<title>function&#45;1&#45;Bge:s&#45;&gt;function&#45;2&#45;ImmVal</title>
<path fill="none" stroke="black" d="M233,-253C233,-227.04 275.32,-166.26 299.52,-133.63"/>
<polygon fill="black" stroke="black" points="298.74,-136.42 301.66,-132 296.62,-133.63 298.74,-136.42"/>
</g>
<!-- function&#45;1&#45;Bge&#45;&gt;function&#45;0&#45;Slli -->
<g id="edge11" class="edge">
<title>function&#45;1&#45;Bge:s&#45;&gt;function&#45;0&#45;Slli</title>
<path fill="none" stroke="black" d="M224,-253C224,-236.72 213.38,-222.39 201.84,-211.62"/>
<polygon fill="black" stroke="black" points="206.04,-212.3 200.9,-211 204.11,-215.22 206.04,-212.3"/>
</g>
<!-- function&#45;1&#45;Bge&#45;&gt;function&#45;1&#45;RegVal -->
<g id="edge10" class="edge">
<title>function&#45;1&#45;Bge:s&#45;&gt;function&#45;1&#45;RegVal</title>
<path fill="none" stroke="black" d="M210,-253C210,-247.79 348.67,-214.41 414.31,-198.9"/>
<polygon fill="black" stroke="black" points="412.9,-202.02 416,-197.72 410.9,-199.15 412.9,-202.02"/>
</g>
<!-- function&#45;1&#45;Seq2&#45;&gt;function&#45;1&#45;Jal -->
<g id="edge14" class="edge">
<title>function&#45;1&#45;Seq2:s&#45;&gt;function&#45;1&#45;Jal</title>
<path fill="none" stroke="black" d="M288,-253C288,-238.72 294.25,-224.09 300.84,-212.63"/>
<polygon fill="black" stroke="black" points="300.18,-215.78 302.47,-211 297.7,-213.3 300.18,-215.78"/>
</g>
<!-- function&#45;1&#45;Seq2&#45;&gt;function&#45;2&#45;Blt -->
<g id="edge13" class="edge">
<title>function&#45;1&#45;Seq2:s&#45;&gt;function&#45;2&#45;Blt</title>
<path fill="none" stroke="black" d="M266,-253C266,-205.81 325.96,-202.06 368,-223.5 377.53,-228.36 384.96,-237.41 390.33,-246.17"/>
<polygon fill="black" stroke="black" points="387.37,-245.62 392.1,-248 389.88,-243.19 387.37,-245.62"/>
</g>
<!-- function&#45;2&#45;Blt&#45;&gt;function&#45;2&#45;ImmVal -->
<g id="edge25" class="edge">
<title>function&#45;2&#45;Blt:s&#45;&gt;function&#45;2&#45;ImmVal</title>
<path fill="none" stroke="black" d="M412,-253C412,-245.94 358.7,-171.12 331.53,-133.44"/>
<polygon fill="black" stroke="black" points="334.88,-134.76 330.35,-132 332.17,-136.98 334.88,-134.76"/>
</g>
<!-- function&#45;2&#45;Blt&#45;&gt;function&#45;0&#45;Slli -->
<g id="edge24" class="edge">
<title>function&#45;2&#45;Blt:s&#45;&gt;function&#45;0&#45;Slli</title>
<path fill="none" stroke="black" d="M405,-253C405,-242.79 269.02,-211.87 205.27,-197.94"/>
<polygon fill="black" stroke="black" points="208.25,-197.48 203,-196.81 206.69,-200.61 208.25,-197.48"/>
</g>
<!-- function&#45;2&#45;Blt&#45;&gt;function&#45;1&#45;RegVal -->
<g id="edge23" class="edge">
<title>function&#45;2&#45;Blt:s&#45;&gt;function&#45;1&#45;RegVal</title>
<path fill="none" stroke="black" d="M393,-253C393,-236.31 404.29,-222.01 416.64,-211.37"/>
<polygon fill="black" stroke="black" points="413.61,-214.6 417.5,-211 412.22,-211.38 413.61,-214.6"/>
</g>
<!-- function&#45;1&#45;Blt&#45;&gt;function&#45;1&#45;ImmVal -->
<g id="edge17" class="edge">
<title>function&#45;1&#45;Blt:s&#45;&gt;function&#45;1&#45;ImmVal</title>
<path fill="none" stroke="black" d="M110,-332C110,-313.99 102.08,-310.74 99,-293 94.27,-265.75 92.71,-233.89 92.21,-213.12"/>
<polygon fill="black" stroke="black" points="94.1,-215.91 92.1,-211 90.6,-216.08 94.1,-215.91"/>
</g>
<!-- function&#45;1&#45;Blt&#45;&gt;function&#45;0&#45;Slli -->
<g id="edge16" class="edge">
<title>function&#45;1&#45;Blt:s&#45;&gt;function&#45;0&#45;Slli</title>
<path fill="none" stroke="black" d="M103,-332C103,-292.22 105.39,-280.16 124,-245 130.43,-232.86 140.21,-221.31 149.34,-212.03"/>
<polygon fill="black" stroke="black" points="147.68,-214.95 151.21,-211 145.99,-211.89 147.68,-214.95"/>
</g>
<!-- function&#45;1&#45;Blt&#45;&gt;function&#45;1&#45;RegVal -->
<g id="edge15" class="edge">
<title>function&#45;1&#45;Blt:s&#45;&gt;function&#45;1&#45;RegVal</title>
<path fill="none" stroke="black" d="M91,-332C91,-242.91 429.77,-358.64 490,-293 511.3,-269.79 487.89,-234.3 468.43,-211.89"/>
<polygon fill="black" stroke="black" points="472.23,-212.32 467.1,-211 470.29,-215.23 472.23,-212.32"/>
</g>
<!-- function&#45;0&#45;Bge&#45;&gt;function&#45;1&#45;ImmVal -->
<g id="edge20" class="edge">
<title>function&#45;0&#45;Bge:s&#45;&gt;function&#45;1&#45;ImmVal</title>
<path fill="none" stroke="black" d="M171,-332C171,-306.85 143.86,-313.99 130,-293 113.52,-268.03 102.89,-234.94 97.18,-213.32"/>
<polygon fill="black" stroke="black" points="99.85,-214.53 95.9,-211 96.78,-216.22 99.85,-214.53"/>
</g>
<!-- function&#45;0&#45;Bge&#45;&gt;function&#45;0&#45;Slli -->
<g id="edge18" class="edge">
<title>function&#45;0&#45;Bge:s&#45;&gt;function&#45;0&#45;Slli</title>
<path fill="none" stroke="black" d="M148,-332C148,-312.91 134.1,-311.65 130,-293 125.42,-272.16 122.96,-265.14 130,-245 134.29,-232.73 142.67,-221.16 150.9,-211.9"/>
<polygon fill="black" stroke="black" points="149,-215.06 152.4,-211 147.21,-212.06 149,-215.06"/>
</g>
<!-- function&#45;0&#45;Bge&#45;&gt;function&#45;1&#45;RegVal -->
<g id="edge19" class="edge">
<title>function&#45;0&#45;Bge:s&#45;&gt;function&#45;1&#45;RegVal</title>
<path fill="none" stroke="black" d="M162,-332C162,-256.17 450.54,-349.6 501,-293 515.2,-277.08 509.07,-264.75 501,-245 495.73,-232.12 485.75,-220.65 475.86,-211.63"/>
<polygon fill="black" stroke="black" points="480.05,-212.38 474.93,-211 478.07,-215.27 480.05,-212.38"/>
</g>
<!-- function&#45;0&#45;Seq2&#45;&gt;function&#45;0&#45;Jal -->
<g id="edge22" class="edge">
<title>function&#45;0&#45;Seq2:s&#45;&gt;function&#45;0&#45;Jal</title>
<path fill="none" stroke="black" d="M52,-332C52,-318.84 52,-304.11 52,-292.3"/>
<polygon fill="black" stroke="black" points="53.75,-295 52,-290 50.25,-295 53.75,-295"/>
</g>
<!-- function&#45;0&#45;Seq2&#45;&gt;function&#45;0&#45;Blt -->
<g id="edge21" class="edge">
<title>function&#45;0&#45;Seq2:s&#45;&gt;function&#45;0&#45;Blt</title>
<path fill="none" stroke="black" d="M30,-332C30,-310.21 89.98,-289.52 128.77,-278.42"/>
<polygon fill="black" stroke="black" points="127.74,-281.16 131,-276.98 125.85,-278.22 127.74,-281.16"/>
</g>
<!-- function&#45;2&#45;Bge&#45;&gt;function&#45;2&#45;ImmVal -->
<g id="edge28" class="edge">
<title>function&#45;2&#45;Bge:s&#45;&gt;function&#45;2&#45;ImmVal</title>
<path fill="none" stroke="black" d="M473,-253C473,-221.94 438.19,-234.67 415,-214 394.05,-195.33 393.41,-186.26 374,-166 363.06,-154.59 350.26,-142.54 339.47,-132.73"/>
<polygon fill="black" stroke="black" points="343.56,-133.85 338.59,-132 341.32,-136.54 343.56,-133.85"/>
</g>
<!-- function&#45;2&#45;Bge&#45;&gt;function&#45;0&#45;Slli -->
<g id="edge26" class="edge">
<title>function&#45;2&#45;Bge:s&#45;&gt;function&#45;0&#45;Slli</title>
<path fill="none" stroke="black" d="M450,-253C450,-242.6 438,-247.86 428,-245 417.27,-241.93 271.53,-211.5 205.32,-197.72"/>
<polygon fill="black" stroke="black" points="208.28,-197.13 203,-196.68 206.84,-200.32 208.28,-197.13"/>
</g>
<!-- function&#45;2&#45;Bge&#45;&gt;function&#45;1&#45;RegVal -->
<g id="edge27" class="edge">
<title>function&#45;2&#45;Bge:s&#45;&gt;function&#45;1&#45;RegVal</title>
<path fill="none" stroke="black" d="M464,-253C464,-239.38 460.34,-224.6 456.52,-212.89"/>
<polygon fill="black" stroke="black" points="459.48,-213.63 454.88,-211 456.83,-215.92 459.48,-213.63"/>
</g>
<!-- function&#45;2&#45;Seq2&#45;&gt;function&#45;1&#45;Jal -->
<g id="edge30" class="edge">
<title>function&#45;2&#45;Seq2:s&#45;&gt;function&#45;1&#45;Jal</title>
<path fill="none" stroke="black" d="M354,-253C354,-237.82 345.62,-223.22 336.73,-212.01"/>
<polygon fill="black" stroke="black" points="340.45,-212.72 335.44,-211 338.29,-215.47 340.45,-212.72"/>
</g>
<!-- function&#45;2&#45;Seq2&#45;&gt;function&#45;1&#45;Seq2 -->
<g id="edge29" class="edge">
<title>function&#45;2&#45;Seq2:s&#45;&gt;function&#45;1&#45;Seq2</title>
<path fill="none" stroke="black" d="M332,-253C332,-241.59 320.78,-243.91 308.57,-249.8"/>
<polygon fill="black" stroke="black" points="309.71,-246.57 307,-251.12 311.96,-249.26 309.71,-246.57"/>
</g>
<!-- function&#45;1&#45;ImmVal -->
<g id="node1" class="node">
<title>function&#45;1&#45;ImmVal</title>
<g id="a_node1"><a xlink:title="Imm&#45;4: function&#45;1&#45;ImmVal">
<path fill="white" stroke="transparent" d="M71.67,-174C71.67,-174 112.33,-174 112.33,-174 117.67,-174 123,-179.33 123,-184.67 123,-184.67 123,-195.33 123,-195.33 123,-200.67 117.67,-206 112.33,-206 112.33,-206 71.67,-206 71.67,-206 66.33,-206 61,-200.67 61,-195.33 61,-195.33 61,-184.67 61,-184.67 61,-179.33 66.33,-174 71.67,-174"/>
<text text-anchor="start" x="66" y="-186.3" font-family="Helvetica,sans-Serif" font-size="14.00">ImmVal</text>
<path fill="none" stroke="black" d="M71.67,-174C71.67,-174 112.33,-174 112.33,-174 117.67,-174 123,-179.33 123,-184.67 123,-184.67 123,-195.33 123,-195.33 123,-200.67 117.67,-206 112.33,-206 112.33,-206 71.67,-206 71.67,-206 66.33,-206 61,-200.67 61,-195.33 61,-195.33 61,-184.67 61,-184.67 61,-179.33 66.33,-174 71.67,-174"/>
</a>
</g>
</g>
<!-- primitive&#45;i64&#45;0 -->
<g id="node2" class="node">
<title>primitive&#45;i64&#45;0</title>
<g id="a_node2"><a xlink:title="i64&#45;0: primitive&#45;i64&#45;0">
<path fill="white" stroke="transparent" d="M86.67,-95C86.67,-95 97.33,-95 97.33,-95 102.67,-95 108,-100.33 108,-105.67 108,-105.67 108,-116.33 108,-116.33 108,-121.67 102.67,-127 97.33,-127 97.33,-127 86.67,-127 86.67,-127 81.33,-127 76,-121.67 76,-116.33 76,-116.33 76,-105.67 76,-105.67 76,-100.33 81.33,-95 86.67,-95"/>
<text text-anchor="start" x="87" y="-107.3" font-family="Helvetica,sans-Serif" font-size="14.00">0</text>
<path fill="none" stroke="black" d="M86.67,-95C86.67,-95 97.33,-95 97.33,-95 102.67,-95 108,-100.33 108,-105.67 108,-105.67 108,-116.33 108,-116.33 108,-121.67 102.67,-127 97.33,-127 97.33,-127 86.67,-127 86.67,-127 81.33,-127 76,-121.67 76,-116.33 76,-116.33 76,-105.67 76,-105.67 76,-100.33 81.33,-95 86.67,-95"/>
</a>
</g>
</g>
<!-- function&#45;2&#45;ImmVal -->
<g id="node3" class="node">
<title>function&#45;2&#45;ImmVal</title>
<g id="a_node3"><a xlink:title="Imm&#45;6: function&#45;2&#45;ImmVal">
<path fill="white" stroke="transparent" d="M295.67,-95C295.67,-95 336.33,-95 336.33,-95 341.67,-95 347,-100.33 347,-105.67 347,-105.67 347,-116.33 347,-116.33 347,-121.67 341.67,-127 336.33,-127 336.33,-127 295.67,-127 295.67,-127 290.33,-127 285,-121.67 285,-116.33 285,-116.33 285,-105.67 285,-105.67 285,-100.33 290.33,-95 295.67,-95"/>
<text text-anchor="start" x="290" y="-107.3" font-family="Helvetica,sans-Serif" font-size="14.00">ImmVal</text>
<path fill="none" stroke="black" d="M295.67,-95C295.67,-95 336.33,-95 336.33,-95 341.67,-95 347,-100.33 347,-105.67 347,-105.67 347,-116.33 347,-116.33 347,-121.67 341.67,-127 336.33,-127 336.33,-127 295.67,-127 295.67,-127 290.33,-127 285,-121.67 285,-116.33 285,-116.33 285,-105.67 285,-105.67 285,-100.33 290.33,-95 295.67,-95"/>
</a>
</g>
</g>
<!-- primitive&#45;i64&#45;4 -->
<g id="node4" class="node">
<title>primitive&#45;i64&#45;4</title>
<g id="a_node4"><a xlink:title="i64&#45;4: primitive&#45;i64&#45;4">
<path fill="white" stroke="transparent" d="M310.67,-16C310.67,-16 321.33,-16 321.33,-16 326.67,-16 332,-21.33 332,-26.67 332,-26.67 332,-37.33 332,-37.33 332,-42.67 326.67,-48 321.33,-48 321.33,-48 310.67,-48 310.67,-48 305.33,-48 300,-42.67 300,-37.33 300,-37.33 300,-26.67 300,-26.67 300,-21.33 305.33,-16 310.67,-16"/>
<text text-anchor="start" x="311" y="-28.3" font-family="Helvetica,sans-Serif" font-size="14.00">4</text>
<path fill="none" stroke="black" d="M310.67,-16C310.67,-16 321.33,-16 321.33,-16 326.67,-16 332,-21.33 332,-26.67 332,-26.67 332,-37.33 332,-37.33 332,-42.67 326.67,-48 321.33,-48 321.33,-48 310.67,-48 310.67,-48 305.33,-48 300,-42.67 300,-37.33 300,-37.33 300,-26.67 300,-26.67 300,-21.33 305.33,-16 310.67,-16"/>
</a>
</g>
</g>
<!-- function&#45;0&#45;ImmVal -->
<g id="node5" class="node">
<title>function&#45;0&#45;ImmVal</title>
<g id="a_node5"><a xlink:title="Imm&#45;2: function&#45;0&#45;ImmVal">
<path fill="white" stroke="transparent" d="M144.67,-95C144.67,-95 185.33,-95 185.33,-95 190.67,-95 196,-100.33 196,-105.67 196,-105.67 196,-116.33 196,-116.33 196,-121.67 190.67,-127 185.33,-127 185.33,-127 144.67,-127 144.67,-127 139.33,-127 134,-121.67 134,-116.33 134,-116.33 134,-105.67 134,-105.67 134,-100.33 139.33,-95 144.67,-95"/>
<text text-anchor="start" x="139" y="-107.3" font-family="Helvetica,sans-Serif" font-size="14.00">ImmVal</text>
<path fill="none" stroke="black" d="M144.67,-95C144.67,-95 185.33,-95 185.33,-95 190.67,-95 196,-100.33 196,-105.67 196,-105.67 196,-116.33 196,-116.33 196,-121.67 190.67,-127 185.33,-127 185.33,-127 144.67,-127 144.67,-127 139.33,-127 134,-121.67 134,-116.33 134,-116.33 134,-105.67 134,-105.67 134,-100.33 139.33,-95 144.67,-95"/>
</a>
</g>
</g>
<!-- primitive&#45;i64&#45;8 -->
<g id="node6" class="node">
<title>primitive&#45;i64&#45;8</title>
<g id="a_node6"><a xlink:title="i64&#45;8: primitive&#45;i64&#45;8">
<path fill="white" stroke="transparent" d="M159.67,-16C159.67,-16 170.33,-16 170.33,-16 175.67,-16 181,-21.33 181,-26.67 181,-26.67 181,-37.33 181,-37.33 181,-42.67 175.67,-48 170.33,-48 170.33,-48 159.67,-48 159.67,-48 154.33,-48 149,-42.67 149,-37.33 149,-37.33 149,-26.67 149,-26.67 149,-21.33 154.33,-16 159.67,-16"/>
<text text-anchor="start" x="160" y="-28.3" font-family="Helvetica,sans-Serif" font-size="14.00">8</text>
<path fill="none" stroke="black" d="M159.67,-16C159.67,-16 170.33,-16 170.33,-16 175.67,-16 181,-21.33 181,-26.67 181,-26.67 181,-37.33 181,-37.33 181,-42.67 175.67,-48 170.33,-48 170.33,-48 159.67,-48 159.67,-48 154.33,-48 149,-42.67 149,-37.33 149,-37.33 149,-26.67 149,-26.67 149,-21.33 154.33,-16 159.67,-16"/>
</a>
</g>
</g>
<!-- function&#45;0&#45;RegVal -->
<g id="node7" class="node">
<title>function&#45;0&#45;RegVal</title>
<g id="a_node7"><a xlink:title="Inst&#45;0: function&#45;0&#45;RegVal">
<path fill="white" stroke="transparent" d="M219.17,-95C219.17,-95 254.83,-95 254.83,-95 260.17,-95 265.5,-100.33 265.5,-105.67 265.5,-105.67 265.5,-116.33 265.5,-116.33 265.5,-121.67 260.17,-127 254.83,-127 254.83,-127 219.17,-127 219.17,-127 213.83,-127 208.5,-121.67 208.5,-116.33 208.5,-116.33 208.5,-105.67 208.5,-105.67 208.5,-100.33 213.83,-95 219.17,-95"/>
<text text-anchor="start" x="214" y="-107.3" font-family="Helvetica,sans-Serif" font-size="14.00">RegVal</text>
<path fill="none" stroke="black" d="M219.17,-95C219.17,-95 254.83,-95 254.83,-95 260.17,-95 265.5,-100.33 265.5,-105.67 265.5,-105.67 265.5,-116.33 265.5,-116.33 265.5,-121.67 260.17,-127 254.83,-127 254.83,-127 219.17,-127 219.17,-127 213.83,-127 208.5,-121.67 208.5,-116.33 208.5,-116.33 208.5,-105.67 208.5,-105.67 208.5,-100.33 213.83,-95 219.17,-95"/>
</a>
</g>
</g>
<!-- primitive&#45;String&#45;0 -->
<g id="node8" class="node">
<title>primitive&#45;String&#45;0</title>
<g id="a_node8"><a xlink:title="String&#45;0: primitive&#45;String&#45;0">
<path fill="white" stroke="transparent" d="M220.17,-16C220.17,-16 255.83,-16 255.83,-16 261.17,-16 266.5,-21.33 266.5,-26.67 266.5,-26.67 266.5,-37.33 266.5,-37.33 266.5,-42.67 261.17,-48 255.83,-48 255.83,-48 220.17,-48 220.17,-48 214.83,-48 209.5,-42.67 209.5,-37.33 209.5,-37.33 209.5,-26.67 209.5,-26.67 209.5,-21.33 214.83,-16 220.17,-16"/>
<text text-anchor="start" x="215" y="-28.3" font-family="Helvetica,sans-Serif" font-size="14.00">&quot;a5_0&quot;</text>
<path fill="none" stroke="black" d="M220.17,-16C220.17,-16 255.83,-16 255.83,-16 261.17,-16 266.5,-21.33 266.5,-26.67 266.5,-26.67 266.5,-37.33 266.5,-37.33 266.5,-42.67 261.17,-48 255.83,-48 255.83,-48 220.17,-48 220.17,-48 214.83,-48 209.5,-42.67 209.5,-37.33 209.5,-37.33 209.5,-26.67 209.5,-26.67 209.5,-21.33 214.83,-16 220.17,-16"/>
</a>
</g>
</g>
<!-- function&#45;1&#45;Jal -->
<g id="node9" class="node">
<title>function&#45;1&#45;Jal</title>
<g id="a_node9"><a xlink:title="Inst&#45;10: function&#45;1&#45;Jal">
<path fill="white" stroke="transparent" d="M310.67,-174C310.67,-174 321.33,-174 321.33,-174 326.67,-174 332,-179.33 332,-184.67 332,-184.67 332,-195.33 332,-195.33 332,-200.67 326.67,-206 321.33,-206 321.33,-206 310.67,-206 310.67,-206 305.33,-206 300,-200.67 300,-195.33 300,-195.33 300,-184.67 300,-184.67 300,-179.33 305.33,-174 310.67,-174"/>
<text text-anchor="start" x="307.5" y="-186.3" font-family="Helvetica,sans-Serif" font-size="14.00">Jal</text>
<path fill="none" stroke="black" d="M310.67,-174C310.67,-174 321.33,-174 321.33,-174 326.67,-174 332,-179.33 332,-184.67 332,-184.67 332,-195.33 332,-195.33 332,-200.67 326.67,-206 321.33,-206 321.33,-206 310.67,-206 310.67,-206 305.33,-206 300,-200.67 300,-195.33 300,-195.33 300,-184.67 300,-184.67 300,-179.33 305.33,-174 310.67,-174"/>
</a>
</g>
</g>
<!-- function&#45;0&#45;Jal -->
<g id="node10" class="node">
<title>function&#45;0&#45;Jal</title>
<g id="a_node10"><a xlink:title="Inst&#45;8: function&#45;0&#45;Jal">
<path fill="white" stroke="transparent" d="M46.67,-253C46.67,-253 57.33,-253 57.33,-253 62.67,-253 68,-258.33 68,-263.67 68,-263.67 68,-274.33 68,-274.33 68,-279.67 62.67,-285 57.33,-285 57.33,-285 46.67,-285 46.67,-285 41.33,-285 36,-279.67 36,-274.33 36,-274.33 36,-263.67 36,-263.67 36,-258.33 41.33,-253 46.67,-253"/>
<text text-anchor="start" x="43.5" y="-265.3" font-family="Helvetica,sans-Serif" font-size="14.00">Jal</text>
<path fill="none" stroke="black" d="M46.67,-253C46.67,-253 57.33,-253 57.33,-253 62.67,-253 68,-258.33 68,-263.67 68,-263.67 68,-274.33 68,-274.33 68,-279.67 62.67,-285 57.33,-285 57.33,-285 46.67,-285 46.67,-285 41.33,-285 36,-279.67 36,-274.33 36,-274.33 36,-263.67 36,-263.67 36,-258.33 41.33,-253 46.67,-253"/>
</a>
</g>
</g>
<!-- function&#45;0&#45;Blt -->
<g id="node11" class="node">
<title>function&#45;0&#45;Blt</title>
<g id="a_node11"><a xlink:title="Inst&#45;7: function&#45;0&#45;Blt">
<path fill="white" stroke="transparent" d="M155.67,-253C155.67,-253 166.33,-253 166.33,-253 171.67,-253 177,-258.33 177,-263.67 177,-263.67 177,-274.33 177,-274.33 177,-279.67 171.67,-285 166.33,-285 166.33,-285 155.67,-285 155.67,-285 150.33,-285 145,-279.67 145,-274.33 145,-274.33 145,-263.67 145,-263.67 145,-258.33 150.33,-253 155.67,-253"/>
<text text-anchor="start" x="151.5" y="-265.3" font-family="Helvetica,sans-Serif" font-size="14.00">Blt</text>
<path fill="none" stroke="black" d="M155.67,-253C155.67,-253 166.33,-253 166.33,-253 171.67,-253 177,-258.33 177,-263.67 177,-263.67 177,-274.33 177,-274.33 177,-279.67 171.67,-285 166.33,-285 166.33,-285 155.67,-285 155.67,-285 150.33,-285 145,-279.67 145,-274.33 145,-274.33 145,-263.67 145,-263.67 145,-258.33 150.33,-253 155.67,-253"/>
</a>
</g>
</g>
<!-- function&#45;0&#45;Slli -->
<g id="node12" class="node">
<title>function&#45;0&#45;Slli</title>
<g id="a_node12"><a xlink:title="Inst&#45;3: function&#45;0&#45;Slli">
<path fill="white" stroke="transparent" d="M167.67,-174C167.67,-174 178.33,-174 178.33,-174 183.67,-174 189,-179.33 189,-184.67 189,-184.67 189,-195.33 189,-195.33 189,-200.67 183.67,-206 178.33,-206 178.33,-206 167.67,-206 167.67,-206 162.33,-206 157,-200.67 157,-195.33 157,-195.33 157,-184.67 157,-184.67 157,-179.33 162.33,-174 167.67,-174"/>
<text text-anchor="start" x="162.5" y="-186.3" font-family="Helvetica,sans-Serif" font-size="14.00">Slli</text>
<path fill="none" stroke="black" d="M167.67,-174C167.67,-174 178.33,-174 178.33,-174 183.67,-174 189,-179.33 189,-184.67 189,-184.67 189,-195.33 189,-195.33 189,-200.67 183.67,-206 178.33,-206 178.33,-206 167.67,-206 167.67,-206 162.33,-206 157,-200.67 157,-195.33 157,-195.33 157,-184.67 157,-184.67 157,-179.33 162.33,-174 167.67,-174"/>
</a>
</g>
</g>
<!-- function&#45;1&#45;RegVal -->
<g id="node13" class="node">
<title>function&#45;1&#45;RegVal</title>
<g id="a_node13"><a xlink:title="Inst&#45;1: function&#45;1&#45;RegVal">
<path fill="white" stroke="transparent" d="M430.17,-174C430.17,-174 465.83,-174 465.83,-174 471.17,-174 476.5,-179.33 476.5,-184.67 476.5,-184.67 476.5,-195.33 476.5,-195.33 476.5,-200.67 471.17,-206 465.83,-206 465.83,-206 430.17,-206 430.17,-206 424.83,-206 419.5,-200.67 419.5,-195.33 419.5,-195.33 419.5,-184.67 419.5,-184.67 419.5,-179.33 424.83,-174 430.17,-174"/>
<text text-anchor="start" x="425" y="-186.3" font-family="Helvetica,sans-Serif" font-size="14.00">RegVal</text>
<path fill="none" stroke="black" d="M430.17,-174C430.17,-174 465.83,-174 465.83,-174 471.17,-174 476.5,-179.33 476.5,-184.67 476.5,-184.67 476.5,-195.33 476.5,-195.33 476.5,-200.67 471.17,-206 465.83,-206 465.83,-206 430.17,-206 430.17,-206 424.83,-206 419.5,-200.67 419.5,-195.33 419.5,-195.33 419.5,-184.67 419.5,-184.67 419.5,-179.33 424.83,-174 430.17,-174"/>
</a>
</g>
</g>
<!-- function&#45;1&#45;Bge -->
<g id="node14" class="node">
<title>function&#45;1&#45;Bge</title>
<g id="a_node14"><a xlink:title="Inst&#45;7: function&#45;1&#45;Bge">
<path fill="white" stroke="transparent" d="M210.67,-253C210.67,-253 227.33,-253 227.33,-253 232.67,-253 238,-258.33 238,-263.67 238,-263.67 238,-274.33 238,-274.33 238,-279.67 232.67,-285 227.33,-285 227.33,-285 210.67,-285 210.67,-285 205.33,-285 200,-279.67 200,-274.33 200,-274.33 200,-263.67 200,-263.67 200,-258.33 205.33,-253 210.67,-253"/>
<text text-anchor="start" x="205" y="-265.3" font-family="Helvetica,sans-Serif" font-size="14.00">Bge</text>
<path fill="none" stroke="black" d="M210.67,-253C210.67,-253 227.33,-253 227.33,-253 232.67,-253 238,-258.33 238,-263.67 238,-263.67 238,-274.33 238,-274.33 238,-279.67 232.67,-285 227.33,-285 227.33,-285 210.67,-285 210.67,-285 205.33,-285 200,-279.67 200,-274.33 200,-274.33 200,-263.67 200,-263.67 200,-258.33 205.33,-253 210.67,-253"/>
</a>
</g>
</g>
<!-- function&#45;1&#45;Seq2 -->
<g id="node15" class="node">
<title>function&#45;1&#45;Seq2</title>
<g id="a_node15"><a xlink:title="Inst&#45;7: function&#45;1&#45;Seq2">
<path fill="white" stroke="transparent" d="M264.67,-253C264.67,-253 289.33,-253 289.33,-253 294.67,-253 300,-258.33 300,-263.67 300,-263.67 300,-274.33 300,-274.33 300,-279.67 294.67,-285 289.33,-285 289.33,-285 264.67,-285 264.67,-285 259.33,-285 254,-279.67 254,-274.33 254,-274.33 254,-263.67 254,-263.67 254,-258.33 259.33,-253 264.67,-253"/>
<text text-anchor="start" x="259" y="-265.3" font-family="Helvetica,sans-Serif" font-size="14.00">Seq2</text>
<path fill="none" stroke="black" d="M264.67,-253C264.67,-253 289.33,-253 289.33,-253 294.67,-253 300,-258.33 300,-263.67 300,-263.67 300,-274.33 300,-274.33 300,-279.67 294.67,-285 289.33,-285 289.33,-285 264.67,-285 264.67,-285 259.33,-285 254,-279.67 254,-274.33 254,-274.33 254,-263.67 254,-263.67 254,-258.33 259.33,-253 264.67,-253"/>
</a>
</g>
</g>
<!-- function&#45;2&#45;Blt -->
<g id="node16" class="node">
<title>function&#45;2&#45;Blt</title>
<g id="a_node16"><a xlink:title="Inst&#45;9: function&#45;2&#45;Blt">
<path fill="white" stroke="transparent" d="M395.67,-253C395.67,-253 406.33,-253 406.33,-253 411.67,-253 417,-258.33 417,-263.67 417,-263.67 417,-274.33 417,-274.33 417,-279.67 411.67,-285 406.33,-285 406.33,-285 395.67,-285 395.67,-285 390.33,-285 385,-279.67 385,-274.33 385,-274.33 385,-263.67 385,-263.67 385,-258.33 390.33,-253 395.67,-253"/>
<text text-anchor="start" x="391.5" y="-265.3" font-family="Helvetica,sans-Serif" font-size="14.00">Blt</text>
<path fill="none" stroke="black" d="M395.67,-253C395.67,-253 406.33,-253 406.33,-253 411.67,-253 417,-258.33 417,-263.67 417,-263.67 417,-274.33 417,-274.33 417,-279.67 411.67,-285 406.33,-285 406.33,-285 395.67,-285 395.67,-285 390.33,-285 385,-279.67 385,-274.33 385,-274.33 385,-263.67 385,-263.67 385,-258.33 390.33,-253 395.67,-253"/>
</a>
</g>
</g>
<!-- function&#45;1&#45;Blt -->
<g id="node17" class="node">
<title>function&#45;1&#45;Blt</title>
<g id="a_node17"><a xlink:title="Inst&#45;5: function&#45;1&#45;Blt">
<path fill="white" stroke="transparent" d="M93.67,-332C93.67,-332 104.33,-332 104.33,-332 109.67,-332 115,-337.33 115,-342.67 115,-342.67 115,-353.33 115,-353.33 115,-358.67 109.67,-364 104.33,-364 104.33,-364 93.67,-364 93.67,-364 88.33,-364 83,-358.67 83,-353.33 83,-353.33 83,-342.67 83,-342.67 83,-337.33 88.33,-332 93.67,-332"/>
<text text-anchor="start" x="89.5" y="-344.3" font-family="Helvetica,sans-Serif" font-size="14.00">Blt</text>
<path fill="none" stroke="black" d="M93.67,-332C93.67,-332 104.33,-332 104.33,-332 109.67,-332 115,-337.33 115,-342.67 115,-342.67 115,-353.33 115,-353.33 115,-358.67 109.67,-364 104.33,-364 104.33,-364 93.67,-364 93.67,-364 88.33,-364 83,-358.67 83,-353.33 83,-353.33 83,-342.67 83,-342.67 83,-337.33 88.33,-332 93.67,-332"/>
</a>
</g>
</g>
<!-- function&#45;0&#45;Bge -->
<g id="node18" class="node">
<title>function&#45;0&#45;Bge</title>
<g id="a_node18"><a xlink:title="Inst&#45;5: function&#45;0&#45;Bge">
<path fill="white" stroke="transparent" d="M148.67,-332C148.67,-332 165.33,-332 165.33,-332 170.67,-332 176,-337.33 176,-342.67 176,-342.67 176,-353.33 176,-353.33 176,-358.67 170.67,-364 165.33,-364 165.33,-364 148.67,-364 148.67,-364 143.33,-364 138,-358.67 138,-353.33 138,-353.33 138,-342.67 138,-342.67 138,-337.33 143.33,-332 148.67,-332"/>
<text text-anchor="start" x="143" y="-344.3" font-family="Helvetica,sans-Serif" font-size="14.00">Bge</text>
<path fill="none" stroke="black" d="M148.67,-332C148.67,-332 165.33,-332 165.33,-332 170.67,-332 176,-337.33 176,-342.67 176,-342.67 176,-353.33 176,-353.33 176,-358.67 170.67,-364 165.33,-364 165.33,-364 148.67,-364 148.67,-364 143.33,-364 138,-358.67 138,-353.33 138,-353.33 138,-342.67 138,-342.67 138,-337.33 143.33,-332 148.67,-332"/>
</a>
</g>
</g>
<!-- function&#45;0&#45;Seq2 -->
<g id="node19" class="node">
<title>function&#45;0&#45;Seq2</title>
<g id="a_node19"><a xlink:title="Inst&#45;5: function&#45;0&#45;Seq2">
<path fill="white" stroke="transparent" d="M28.67,-332C28.67,-332 53.33,-332 53.33,-332 58.67,-332 64,-337.33 64,-342.67 64,-342.67 64,-353.33 64,-353.33 64,-358.67 58.67,-364 53.33,-364 53.33,-364 28.67,-364 28.67,-364 23.33,-364 18,-358.67 18,-353.33 18,-353.33 18,-342.67 18,-342.67 18,-337.33 23.33,-332 28.67,-332"/>
<text text-anchor="start" x="23" y="-344.3" font-family="Helvetica,sans-Serif" font-size="14.00">Seq2</text>
<path fill="none" stroke="black" d="M28.67,-332C28.67,-332 53.33,-332 53.33,-332 58.67,-332 64,-337.33 64,-342.67 64,-342.67 64,-353.33 64,-353.33 64,-358.67 58.67,-364 53.33,-364 53.33,-364 28.67,-364 28.67,-364 23.33,-364 18,-358.67 18,-353.33 18,-353.33 18,-342.67 18,-342.67 18,-337.33 23.33,-332 28.67,-332"/>
</a>
</g>
</g>
<!-- function&#45;2&#45;Bge -->
<g id="node20" class="node">
<title>function&#45;2&#45;Bge</title>
<g id="a_node20"><a xlink:title="Inst&#45;9: function&#45;2&#45;Bge">
<path fill="white" stroke="transparent" d="M450.67,-253C450.67,-253 467.33,-253 467.33,-253 472.67,-253 478,-258.33 478,-263.67 478,-263.67 478,-274.33 478,-274.33 478,-279.67 472.67,-285 467.33,-285 467.33,-285 450.67,-285 450.67,-285 445.33,-285 440,-279.67 440,-274.33 440,-274.33 440,-263.67 440,-263.67 440,-258.33 445.33,-253 450.67,-253"/>
<text text-anchor="start" x="445" y="-265.3" font-family="Helvetica,sans-Serif" font-size="14.00">Bge</text>
<path fill="none" stroke="black" d="M450.67,-253C450.67,-253 467.33,-253 467.33,-253 472.67,-253 478,-258.33 478,-263.67 478,-263.67 478,-274.33 478,-274.33 478,-279.67 472.67,-285 467.33,-285 467.33,-285 450.67,-285 450.67,-285 445.33,-285 440,-279.67 440,-274.33 440,-274.33 440,-263.67 440,-263.67 440,-258.33 445.33,-253 450.67,-253"/>
</a>
</g>
</g>
<!-- function&#45;2&#45;Seq2 -->
<g id="node21" class="node">
<title>function&#45;2&#45;Seq2</title>
<g id="a_node21"><a xlink:title="Inst&#45;9: function&#45;2&#45;Seq2">
<path fill="white" stroke="transparent" d="M330.67,-253C330.67,-253 355.33,-253 355.33,-253 360.67,-253 366,-258.33 366,-263.67 366,-263.67 366,-274.33 366,-274.33 366,-279.67 360.67,-285 355.33,-285 355.33,-285 330.67,-285 330.67,-285 325.33,-285 320,-279.67 320,-274.33 320,-274.33 320,-263.67 320,-263.67 320,-258.33 325.33,-253 330.67,-253"/>
<text text-anchor="start" x="325" y="-265.3" font-family="Helvetica,sans-Serif" font-size="14.00">Seq2</text>
<path fill="none" stroke="black" d="M330.67,-253C330.67,-253 355.33,-253 355.33,-253 360.67,-253 366,-258.33 366,-263.67 366,-263.67 366,-274.33 366,-274.33 366,-279.67 360.67,-285 355.33,-285 355.33,-285 330.67,-285 330.67,-285 325.33,-285 320,-279.67 320,-274.33 320,-274.33 320,-263.67 320,-263.67 320,-258.33 325.33,-253 330.67,-253"/>
</a>
</g>
</g>
<!-- primitive&#45;String&#45;1 -->
<g id="node22" class="node">
<title>primitive&#45;String&#45;1</title>
<g id="a_node22"><a xlink:title="String&#45;1: primitive&#45;String&#45;1">
<path fill="white" stroke="transparent" d="M425.17,-95C425.17,-95 472.83,-95 472.83,-95 478.17,-95 483.5,-100.33 483.5,-105.67 483.5,-105.67 483.5,-116.33 483.5,-116.33 483.5,-121.67 478.17,-127 472.83,-127 472.83,-127 425.17,-127 425.17,-127 419.83,-127 414.5,-121.67 414.5,-116.33 414.5,-116.33 414.5,-105.67 414.5,-105.67 414.5,-100.33 419.83,-95 425.17,-95"/>
<text text-anchor="start" x="420" y="-107.3" font-family="Helvetica,sans-Serif" font-size="14.00">&quot;zero_0&quot;</text>
<path fill="none" stroke="black" d="M425.17,-95C425.17,-95 472.83,-95 472.83,-95 478.17,-95 483.5,-100.33 483.5,-105.67 483.5,-105.67 483.5,-116.33 483.5,-116.33 483.5,-121.67 478.17,-127 472.83,-127 472.83,-127 425.17,-127 425.17,-127 419.83,-127 414.5,-121.67 414.5,-116.33 414.5,-116.33 414.5,-105.67 414.5,-105.67 414.5,-100.33 419.83,-95 425.17,-95"/>
</a>
</g>
</g>
</g>
</svg>
