<?xml version="1.0" encoding="UTF-8" standalone="no"?>
<!DOCTYPE svg PUBLIC "-//W3C//DTD SVG 1.1//EN"
 "http://www.w3.org/Graphics/SVG/1.1/DTD/svg11.dtd">
<!-- Generated by graphviz version 2.43.0 (0)
 -->
<!-- Title: %3 Pages: 1 -->
<svg width="384pt" height="388pt"
 viewBox="0.00 0.00 384.00 388.00" xmlns="http://www.w3.org/2000/svg" xmlns:xlink="http://www.w3.org/1999/xlink">
<g id="graph0" class="graph" transform="scale(1 1) rotate(0) translate(4 384)">
<title>%3</title>
<polygon fill="white" stroke="#000000" points="-4,4 -4,-384 380,-384 380,4 -4,4"/>
<g id="clust1" class="cluster">
<title>outer_cluster_Imm&#45;7</title>
</g>
<g id="clust2" class="cluster">
<title>cluster_Imm&#45;7</title>
<path fill="#ffffb3" stroke="black" stroke-dasharray="5,2" d="M23,-248C23,-248 67,-248 67,-248 73,-248 79,-254 79,-260 79,-260 79,-278 79,-278 79,-284 73,-290 67,-290 67,-290 23,-290 23,-290 17,-290 11,-284 11,-278 11,-278 11,-260 11,-260 11,-254 17,-248 23,-248"/>
</g>
<g id="clust4" class="cluster">
<title>outer_cluster_Imm&#45;2</title>
</g>
<g id="clust5" class="cluster">
<title>cluster_Imm&#45;2</title>
<path fill="#ffffb3" stroke="black" stroke-dasharray="5,2" d="M238,-90C238,-90 282,-90 282,-90 288,-90 294,-96 294,-102 294,-102 294,-120 294,-120 294,-126 288,-132 282,-132 282,-132 238,-132 238,-132 232,-132 226,-126 226,-120 226,-120 226,-102 226,-102 226,-96 232,-90 238,-90"/>
</g>
<g id="clust7" class="cluster">
<title>outer_cluster_Imm&#45;4</title>
</g>
<g id="clust8" class="cluster">
<title>cluster_Imm&#45;4</title>
<path fill="#ffffb3" stroke="black" stroke-dasharray="5,2" d="M168,-169C168,-169 212,-169 212,-169 218,-169 224,-175 224,-181 224,-181 224,-199 224,-199 224,-205 218,-211 212,-211 212,-211 168,-211 168,-211 162,-211 156,-205 156,-199 156,-199 156,-181 156,-181 156,-175 162,-169 168,-169"/>
</g>
<g id="clust10" class="cluster">
<title>outer_cluster_Inst&#45;0</title>
</g>
<g id="clust11" class="cluster">
<title>cluster_Inst&#45;0</title>
<path fill="#bebada" stroke="black" stroke-dasharray="5,2" d="M97,-248C97,-248 137,-248 137,-248 143,-248 149,-254 149,-260 149,-260 149,-278 149,-278 149,-284 143,-290 137,-290 137,-290 97,-290 97,-290 91,-290 85,-284 85,-278 85,-278 85,-260 85,-260 85,-254 91,-248 97,-248"/>
</g>
<g id="clust13" class="cluster">
<title>outer_cluster_Inst&#45;5</title>
</g>
<g id="clust14" class="cluster">
<title>cluster_Inst&#45;5</title>
<path fill="#bebada" stroke="black" stroke-dasharray="5,2" d="M246,-248C246,-248 282,-248 282,-248 288,-248 294,-254 294,-260 294,-260 294,-278 294,-278 294,-284 288,-290 282,-290 282,-290 246,-290 246,-290 240,-290 234,-284 234,-278 234,-278 234,-260 234,-260 234,-254 240,-248 246,-248"/>
</g>
<g id="clust16" class="cluster">
<title>outer_cluster_Inst&#45;6</title>
</g>
<g id="clust17" class="cluster">
<title>cluster_Inst&#45;6</title>
<path fill="#bebada" stroke="black" stroke-dasharray="5,2" d="M257,-327C257,-327 351,-327 351,-327 357,-327 363,-333 363,-339 363,-339 363,-357 363,-357 363,-363 357,-369 351,-369 351,-369 257,-369 257,-369 251,-369 245,-363 245,-357 245,-357 245,-339 245,-339 245,-333 251,-327 257,-327"/>
</g>
<g id="clust19" class="cluster">
<title>outer_cluster_Inst&#45;9</title>
</g>
<g id="clust20" class="cluster">
<title>cluster_Inst&#45;9</title>
<path fill="#bebada" stroke="black" stroke-dasharray="5,2" d="M27,-327C27,-327 63,-327 63,-327 69,-327 75,-333 75,-339 75,-339 75,-357 75,-357 75,-363 69,-369 63,-369 63,-369 27,-369 27,-369 21,-369 15,-363 15,-357 15,-357 15,-339 15,-339 15,-333 21,-327 27,-327"/>
</g>
<g id="clust22" class="cluster">
<title>outer_cluster_Inst&#45;8</title>
</g>
<g id="clust23" class="cluster">
<title>cluster_Inst&#45;8</title>
<path fill="#bebada" stroke="black" stroke-dasharray="5,2" d="M101,-327C101,-327 137,-327 137,-327 143,-327 149,-333 149,-339 149,-339 149,-357 149,-357 149,-363 143,-369 137,-369 137,-369 101,-369 101,-369 95,-369 89,-363 89,-357 89,-357 89,-339 89,-339 89,-333 95,-327 101,-327"/>
</g>
<g id="clust25" class="cluster">
<title>outer_cluster_Inst&#45;3</title>
</g>
<g id="clust26" class="cluster">
<title>cluster_Inst&#45;3</title>
<path fill="#bebada" stroke="black" stroke-dasharray="5,2" d="M242,-169C242,-169 278,-169 278,-169 284,-169 290,-175 290,-181 290,-181 290,-199 290,-199 290,-205 284,-211 278,-211 278,-211 242,-211 242,-211 236,-211 230,-205 230,-199 230,-199 230,-181 230,-181 230,-175 236,-169 242,-169"/>
</g>
<g id="clust28" class="cluster">
<title>outer_cluster_Inst&#45;1</title>
</g>
<g id="clust29" class="cluster">
<title>cluster_Inst&#45;1</title>
<path fill="#bebada" stroke="black" stroke-dasharray="5,2" d="M312,-248C312,-248 352,-248 352,-248 358,-248 364,-254 364,-260 364,-260 364,-278 364,-278 364,-284 358,-290 352,-290 352,-290 312,-290 312,-290 306,-290 300,-284 300,-278 300,-278 300,-260 300,-260 300,-254 306,-248 312,-248"/>
</g>
<g id="clust31" class="cluster">
<title>outer_cluster_String&#45;0</title>
</g>
<g id="clust32" class="cluster">
<title>cluster_String&#45;0</title>
<path fill="#fb8072" stroke="black" stroke-dasharray="5,2" d="M98,-169C98,-169 138,-169 138,-169 144,-169 150,-175 150,-181 150,-181 150,-199 150,-199 150,-205 144,-211 138,-211 138,-211 98,-211 98,-211 92,-211 86,-205 86,-199 86,-199 86,-181 86,-181 86,-175 92,-169 98,-169"/>
</g>
<g id="clust34" class="cluster">
<title>outer_cluster_String&#45;1</title>
</g>
<g id="clust35" class="cluster">
<title>cluster_String&#45;1</title>
<path fill="#fb8072" stroke="black" stroke-dasharray="5,2" d="M313,-169C313,-169 353,-169 353,-169 359,-169 365,-175 365,-181 365,-181 365,-199 365,-199 365,-205 359,-211 353,-211 353,-211 313,-211 313,-211 307,-211 301,-205 301,-199 301,-199 301,-181 301,-181 301,-175 307,-169 313,-169"/>
</g>
<g id="clust37" class="cluster">
<title>outer_cluster_i64&#45;2147483648</title>
</g>
<g id="clust38" class="cluster">
<title>cluster_i64&#45;2147483648</title>
<path fill="#80b1d3" stroke="black" stroke-dasharray="5,2" d="M172,-90C172,-90 208,-90 208,-90 214,-90 220,-96 220,-102 220,-102 220,-120 220,-120 220,-126 214,-132 208,-132 208,-132 172,-132 172,-132 166,-132 160,-126 160,-120 160,-120 160,-102 160,-102 160,-96 166,-90 172,-90"/>
</g>
<g id="clust40" class="cluster">
<title>outer_cluster_i64&#45;2048</title>
</g>
<g id="clust41" class="cluster">
<title>cluster_i64&#45;2048</title>
<path fill="#80b1d3" stroke="black" stroke-dasharray="5,2" d="M242,-11C242,-11 278,-11 278,-11 284,-11 290,-17 290,-23 290,-23 290,-41 290,-41 290,-47 284,-53 278,-53 278,-53 242,-53 242,-53 236,-53 230,-47 230,-41 230,-41 230,-23 230,-23 230,-17 236,-11 242,-11"/>
</g>
<g id="clust43" class="cluster">
<title>outer_cluster_i64&#45;0</title>
</g>
<g id="clust44" class="cluster">
<title>cluster_i64&#45;0</title>
<path fill="#80b1d3" stroke="black" stroke-dasharray="5,2" d="M27,-169C27,-169 63,-169 63,-169 69,-169 75,-175 75,-181 75,-181 75,-199 75,-199 75,-205 69,-211 63,-211 63,-211 27,-211 27,-211 21,-211 15,-205 15,-199 15,-199 15,-181 15,-181 15,-175 21,-169 27,-169"/>
</g>
<!-- function&#45;2&#45;ImmVal&#45;&gt;primitive&#45;i64&#45;0 -->
<g id="edge1" class="edge">
<title>function&#45;2&#45;ImmVal:s&#45;&gt;primitive&#45;i64&#45;0</title>
<path fill="none" stroke="black" d="M45,-253C45,-239.84 45,-225.11 45,-213.3"/>
<polygon fill="black" stroke="black" points="46.75,-216 45,-211 43.25,-216 46.75,-216"/>
</g>
<!-- function&#45;0&#45;ImmVal&#45;&gt;primitive&#45;i64&#45;2048 -->
<g id="edge2" class="edge">
<title>function&#45;0&#45;ImmVal:s&#45;&gt;primitive&#45;i64&#45;2048</title>
<path fill="none" stroke="black" d="M260,-95C260,-81.84 260,-67.11 260,-55.3"/>
<polygon fill="black" stroke="black" points="261.75,-58 260,-53 258.25,-58 261.75,-58"/>
</g>
<!-- function&#45;1&#45;ImmVal&#45;&gt;primitive&#45;i64&#45;2147483648 -->
<g id="edge3" class="edge">
<title>function&#45;1&#45;ImmVal:s&#45;&gt;primitive&#45;i64&#45;2147483648</title>
<path fill="none" stroke="black" d="M190,-174C190,-160.84 190,-146.11 190,-134.3"/>
<polygon fill="black" stroke="black" points="191.75,-137 190,-132 188.25,-137 191.75,-137"/>
</g>
<!-- function&#45;0&#45;RegVal&#45;&gt;primitive&#45;String&#45;0 -->
<g id="edge4" class="edge">
<title>function&#45;0&#45;RegVal:s&#45;&gt;primitive&#45;String&#45;0</title>
<path fill="none" stroke="black" d="M118,-253C118,-239.84 118,-225.11 118,-213.3"/>
<polygon fill="black" stroke="black" points="119.75,-216 118,-211 116.25,-216 119.75,-216"/>
</g>
<!-- function&#45;0&#45;Addi&#45;&gt;function&#45;1&#45;ImmVal -->
<g id="edge6" class="edge">
<title>function&#45;0&#45;Addi:s&#45;&gt;function&#45;1&#45;ImmVal</title>
<path fill="none" stroke="black" d="M274,-253C274,-246.66 248.89,-228.71 226.12,-213.75"/>
<polygon fill="black" stroke="black" points="227.05,-212.27 221.91,-211 225.13,-215.2 227.05,-212.27"/>
</g>
<!-- function&#45;0&#45;Addi&#45;&gt;function&#45;0&#45;Lui -->
<g id="edge5" class="edge">
<title>function&#45;0&#45;Addi:s&#45;&gt;function&#45;0&#45;Lui</title>
<path fill="none" stroke="black" d="M254,-253C254,-239.78 255.37,-225.04 256.8,-213.25"/>
<polygon fill="black" stroke="black" points="257.74,-216.29 257.46,-211 254.38,-215.31 257.74,-216.29"/>
</g>
<!-- function&#45;0&#45;Lui&#45;&gt;function&#45;0&#45;ImmVal -->
<g id="edge14" class="edge">
<title>function&#45;0&#45;Lui:s&#45;&gt;function&#45;0&#45;ImmVal</title>
<path fill="none" stroke="black" d="M260,-174C260,-160.84 260,-146.11 260,-134.3"/>
<polygon fill="black" stroke="black" points="261.75,-137 260,-132 258.25,-137 261.75,-137"/>
</g>
<!-- function&#45;0&#45;And&#45;&gt;function&#45;0&#45;Addi -->
<g id="edge8" class="edge">
<title>function&#45;0&#45;And:s&#45;&gt;function&#45;0&#45;Addi</title>
<path fill="none" stroke="black" d="M342,-332C342,-325.59 315.89,-305.84 293.88,-290.34"/>
<polygon fill="black" stroke="black" points="297.82,-289.52 292.54,-290 296.96,-292.92 297.82,-289.52"/>
</g>
<!-- function&#45;0&#45;And&#45;&gt;function&#45;1&#45;RegVal -->
<g id="edge7" class="edge">
<title>function&#45;0&#45;And:s&#45;&gt;function&#45;1&#45;RegVal</title>
<path fill="none" stroke="black" d="M324,-332C324,-318.73 325.83,-303.99 327.73,-292.22"/>
<polygon fill="black" stroke="black" points="328.4,-295.29 328.61,-290 325.14,-294.01 328.4,-295.29"/>
</g>
<!-- function&#45;1&#45;RegVal&#45;&gt;primitive&#45;String&#45;1 -->
<g id="edge15" class="edge">
<title>function&#45;1&#45;RegVal:s&#45;&gt;primitive&#45;String&#45;1</title>
<path fill="none" stroke="black" d="M333,-253C333,-239.84 333,-225.11 333,-213.3"/>
<polygon fill="black" stroke="black" points="334.75,-216 333,-211 331.25,-216 334.75,-216"/>
</g>
<!-- function&#45;1&#45;And&#45;&gt;function&#45;0&#45;Addi -->
<g id="edge9" class="edge">
<title>function&#45;1&#45;And:s&#45;&gt;function&#45;0&#45;Addi</title>
<path fill="none" stroke="black" d="M266,-332C266,-318.83 265.54,-304.1 265.07,-292.3"/>
<polygon fill="black" stroke="black" points="267.06,-294.81 264.85,-290 263.58,-295.14 267.06,-294.81"/>
</g>
<!-- function&#45;1&#45;And&#45;&gt;function&#45;1&#45;RegVal -->
<g id="edge10" class="edge">
<title>function&#45;1&#45;And:s&#45;&gt;function&#45;1&#45;RegVal</title>
<path fill="none" stroke="black" d="M284,-332C284,-315.98 294.15,-301.58 305.11,-290.71"/>
<polygon fill="black" stroke="black" points="302.87,-293.51 306.84,-290 301.55,-290.26 302.87,-293.51"/>
</g>
<!-- function&#45;0&#45;Jal&#45;&gt;function&#45;2&#45;ImmVal -->
<g id="edge11" class="edge">
<title>function&#45;0&#45;Jal:s&#45;&gt;function&#45;2&#45;ImmVal</title>
<path fill="none" stroke="black" d="M45,-332C45,-318.84 45,-304.11 45,-292.3"/>
<polygon fill="black" stroke="black" points="46.75,-295 45,-290 43.25,-295 46.75,-295"/>
</g>
<!-- function&#45;1&#45;Addi&#45;&gt;function&#45;2&#45;ImmVal -->
<g id="edge13" class="edge">
<title>function&#45;1&#45;Addi:s&#45;&gt;function&#45;2&#45;ImmVal</title>
<path fill="none" stroke="black" d="M129,-332C129,-325.66 103.89,-307.71 81.12,-292.75"/>
<polygon fill="black" stroke="black" points="82.05,-291.27 76.91,-290 80.13,-294.2 82.05,-291.27"/>
</g>
<!-- function&#45;1&#45;Addi&#45;&gt;function&#45;0&#45;RegVal -->
<g id="edge12" class="edge">
<title>function&#45;1&#45;Addi:s&#45;&gt;function&#45;0&#45;RegVal</title>
<path fill="none" stroke="black" d="M109,-332C109,-318.73 110.83,-303.99 112.73,-292.22"/>
<polygon fill="black" stroke="black" points="113.4,-295.29 113.61,-290 110.14,-294.01 113.4,-295.29"/>
</g>
<!-- function&#45;2&#45;ImmVal -->
<g id="node1" class="node">
<title>function&#45;2&#45;ImmVal</title>
<g id="a_node1"><a xlink:title="Imm&#45;7: function&#45;2&#45;ImmVal">
<path fill="white" stroke="transparent" d="M24.67,-253C24.67,-253 65.33,-253 65.33,-253 70.67,-253 76,-258.33 76,-263.67 76,-263.67 76,-274.33 76,-274.33 76,-279.67 70.67,-285 65.33,-285 65.33,-285 24.67,-285 24.67,-285 19.33,-285 14,-279.67 14,-274.33 14,-274.33 14,-263.67 14,-263.67 14,-258.33 19.33,-253 24.67,-253"/>
<text text-anchor="start" x="19" y="-265.3" font-family="Helvetica,sans-Serif" font-size="14.00">ImmVal</text>
<path fill="none" stroke="black" d="M24.67,-253C24.67,-253 65.33,-253 65.33,-253 70.67,-253 76,-258.33 76,-263.67 76,-263.67 76,-274.33 76,-274.33 76,-279.67 70.67,-285 65.33,-285 65.33,-285 24.67,-285 24.67,-285 19.33,-285 14,-279.67 14,-274.33 14,-274.33 14,-263.67 14,-263.67 14,-258.33 19.33,-253 24.67,-253"/>
</a>
</g>
</g>
<!-- primitive&#45;i64&#45;0 -->
<g id="node2" class="node">
<title>primitive&#45;i64&#45;0</title>
<g id="a_node2"><a xlink:title="i64&#45;0: primitive&#45;i64&#45;0">
<path fill="white" stroke="transparent" d="M39.67,-174C39.67,-174 50.33,-174 50.33,-174 55.67,-174 61,-179.33 61,-184.67 61,-184.67 61,-195.33 61,-195.33 61,-200.67 55.67,-206 50.33,-206 50.33,-206 39.67,-206 39.67,-206 34.33,-206 29,-200.67 29,-195.33 29,-195.33 29,-184.67 29,-184.67 29,-179.33 34.33,-174 39.67,-174"/>
<text text-anchor="start" x="40" y="-186.3" font-family="Helvetica,sans-Serif" font-size="14.00">0</text>
<path fill="none" stroke="black" d="M39.67,-174C39.67,-174 50.33,-174 50.33,-174 55.67,-174 61,-179.33 61,-184.67 61,-184.67 61,-195.33 61,-195.33 61,-200.67 55.67,-206 50.33,-206 50.33,-206 39.67,-206 39.67,-206 34.33,-206 29,-200.67 29,-195.33 29,-195.33 29,-184.67 29,-184.67 29,-179.33 34.33,-174 39.67,-174"/>
</a>
</g>
</g>
<!-- function&#45;0&#45;ImmVal -->
<g id="node3" class="node">
<title>function&#45;0&#45;ImmVal</title>
<g id="a_node3"><a xlink:title="Imm&#45;2: function&#45;0&#45;ImmVal">
<path fill="white" stroke="transparent" d="M239.67,-95C239.67,-95 280.33,-95 280.33,-95 285.67,-95 291,-100.33 291,-105.67 291,-105.67 291,-116.33 291,-116.33 291,-121.67 285.67,-127 280.33,-127 280.33,-127 239.67,-127 239.67,-127 234.33,-127 229,-121.67 229,-116.33 229,-116.33 229,-105.67 229,-105.67 229,-100.33 234.33,-95 239.67,-95"/>
<text text-anchor="start" x="234" y="-107.3" font-family="Helvetica,sans-Serif" font-size="14.00">ImmVal</text>
<path fill="none" stroke="black" d="M239.67,-95C239.67,-95 280.33,-95 280.33,-95 285.67,-95 291,-100.33 291,-105.67 291,-105.67 291,-116.33 291,-116.33 291,-121.67 285.67,-127 280.33,-127 280.33,-127 239.67,-127 239.67,-127 234.33,-127 229,-121.67 229,-116.33 229,-116.33 229,-105.67 229,-105.67 229,-100.33 234.33,-95 239.67,-95"/>
</a>
</g>
</g>
<!-- primitive&#45;i64&#45;2048 -->
<g id="node4" class="node">
<title>primitive&#45;i64&#45;2048</title>
<g id="a_node4"><a xlink:title="i64&#45;2048: primitive&#45;i64&#45;2048">
<path fill="white" stroke="transparent" d="M247.17,-16C247.17,-16 272.83,-16 272.83,-16 278.17,-16 283.5,-21.33 283.5,-26.67 283.5,-26.67 283.5,-37.33 283.5,-37.33 283.5,-42.67 278.17,-48 272.83,-48 272.83,-48 247.17,-48 247.17,-48 241.83,-48 236.5,-42.67 236.5,-37.33 236.5,-37.33 236.5,-26.67 236.5,-26.67 236.5,-21.33 241.83,-16 247.17,-16"/>
<text text-anchor="start" x="242" y="-28.3" font-family="Helvetica,sans-Serif" font-size="14.00">2048</text>
<path fill="none" stroke="black" d="M247.17,-16C247.17,-16 272.83,-16 272.83,-16 278.17,-16 283.5,-21.33 283.5,-26.67 283.5,-26.67 283.5,-37.33 283.5,-37.33 283.5,-42.67 278.17,-48 272.83,-48 272.83,-48 247.17,-48 247.17,-48 241.83,-48 236.5,-42.67 236.5,-37.33 236.5,-37.33 236.5,-26.67 236.5,-26.67 236.5,-21.33 241.83,-16 247.17,-16"/>
</a>
</g>
</g>
<!-- function&#45;1&#45;ImmVal -->
<g id="node5" class="node">
<title>function&#45;1&#45;ImmVal</title>
<g id="a_node5"><a xlink:title="Imm&#45;4: function&#45;1&#45;ImmVal">
<path fill="white" stroke="transparent" d="M169.67,-174C169.67,-174 210.33,-174 210.33,-174 215.67,-174 221,-179.33 221,-184.67 221,-184.67 221,-195.33 221,-195.33 221,-200.67 215.67,-206 210.33,-206 210.33,-206 169.67,-206 169.67,-206 164.33,-206 159,-200.67 159,-195.33 159,-195.33 159,-184.67 159,-184.67 159,-179.33 164.33,-174 169.67,-174"/>
<text text-anchor="start" x="164" y="-186.3" font-family="Helvetica,sans-Serif" font-size="14.00">ImmVal</text>
<path fill="none" stroke="black" d="M169.67,-174C169.67,-174 210.33,-174 210.33,-174 215.67,-174 221,-179.33 221,-184.67 221,-184.67 221,-195.33 221,-195.33 221,-200.67 215.67,-206 210.33,-206 210.33,-206 169.67,-206 169.67,-206 164.33,-206 159,-200.67 159,-195.33 159,-195.33 159,-184.67 159,-184.67 159,-179.33 164.33,-174 169.67,-174"/>
</a>
</g>
</g>
<!-- primitive&#45;i64&#45;2147483648 -->
<g id="node6" class="node">
<title>primitive&#45;i64&#45;2147483648</title>
<g id="a_node6"><a xlink:title="i64&#45;2147483648: primitive&#45;i64&#45;2147483648">
<path fill="white" stroke="transparent" d="M184.67,-95C184.67,-95 195.33,-95 195.33,-95 200.67,-95 206,-100.33 206,-105.67 206,-105.67 206,-116.33 206,-116.33 206,-121.67 200.67,-127 195.33,-127 195.33,-127 184.67,-127 184.67,-127 179.33,-127 174,-121.67 174,-116.33 174,-116.33 174,-105.67 174,-105.67 174,-100.33 179.33,-95 184.67,-95"/>
<text text-anchor="start" x="182.5" y="-107.3" font-family="Helvetica,sans-Serif" font-size="14.00">&#45;1</text>
<path fill="none" stroke="black" d="M184.67,-95C184.67,-95 195.33,-95 195.33,-95 200.67,-95 206,-100.33 206,-105.67 206,-105.67 206,-116.33 206,-116.33 206,-121.67 200.67,-127 195.33,-127 195.33,-127 184.67,-127 184.67,-127 179.33,-127 174,-121.67 174,-116.33 174,-116.33 174,-105.67 174,-105.67 174,-100.33 179.33,-95 184.67,-95"/>
</a>
</g>
</g>
<!-- function&#45;0&#45;RegVal -->
<g id="node7" class="node">
<title>function&#45;0&#45;RegVal</title>
<g id="a_node7"><a xlink:title="Inst&#45;0: function&#45;0&#45;RegVal">
<path fill="white" stroke="transparent" d="M99.17,-253C99.17,-253 134.83,-253 134.83,-253 140.17,-253 145.5,-258.33 145.5,-263.67 145.5,-263.67 145.5,-274.33 145.5,-274.33 145.5,-279.67 140.17,-285 134.83,-285 134.83,-285 99.17,-285 99.17,-285 93.83,-285 88.5,-279.67 88.5,-274.33 88.5,-274.33 88.5,-263.67 88.5,-263.67 88.5,-258.33 93.83,-253 99.17,-253"/>
<text text-anchor="start" x="94" y="-265.3" font-family="Helvetica,sans-Serif" font-size="14.00">RegVal</text>
<path fill="none" stroke="black" d="M99.17,-253C99.17,-253 134.83,-253 134.83,-253 140.17,-253 145.5,-258.33 145.5,-263.67 145.5,-263.67 145.5,-274.33 145.5,-274.33 145.5,-279.67 140.17,-285 134.83,-285 134.83,-285 99.17,-285 99.17,-285 93.83,-285 88.5,-279.67 88.5,-274.33 88.5,-274.33 88.5,-263.67 88.5,-263.67 88.5,-258.33 93.83,-253 99.17,-253"/>
</a>
</g>
</g>
<!-- primitive&#45;String&#45;0 -->
<g id="node8" class="node">
<title>primitive&#45;String&#45;0</title>
<g id="a_node8"><a xlink:title="String&#45;0: primitive&#45;String&#45;0">
<path fill="white" stroke="transparent" d="M100.17,-174C100.17,-174 135.83,-174 135.83,-174 141.17,-174 146.5,-179.33 146.5,-184.67 146.5,-184.67 146.5,-195.33 146.5,-195.33 146.5,-200.67 141.17,-206 135.83,-206 135.83,-206 100.17,-206 100.17,-206 94.83,-206 89.5,-200.67 89.5,-195.33 89.5,-195.33 89.5,-184.67 89.5,-184.67 89.5,-179.33 94.83,-174 100.17,-174"/>
<text text-anchor="start" x="95" y="-186.3" font-family="Helvetica,sans-Serif" font-size="14.00">&quot;a2_0&quot;</text>
<path fill="none" stroke="black" d="M100.17,-174C100.17,-174 135.83,-174 135.83,-174 141.17,-174 146.5,-179.33 146.5,-184.67 146.5,-184.67 146.5,-195.33 146.5,-195.33 146.5,-200.67 141.17,-206 135.83,-206 135.83,-206 100.17,-206 100.17,-206 94.83,-206 89.5,-200.67 89.5,-195.33 89.5,-195.33 89.5,-184.67 89.5,-184.67 89.5,-179.33 94.83,-174 100.17,-174"/>
</a>
</g>
</g>
<!-- function&#45;0&#45;Addi -->
<g id="node9" class="node">
<title>function&#45;0&#45;Addi</title>
<g id="a_node9"><a xlink:title="Inst&#45;5: function&#45;0&#45;Addi">
<path fill="white" stroke="transparent" d="M254.17,-253C254.17,-253 273.83,-253 273.83,-253 279.17,-253 284.5,-258.33 284.5,-263.67 284.5,-263.67 284.5,-274.33 284.5,-274.33 284.5,-279.67 279.17,-285 273.83,-285 273.83,-285 254.17,-285 254.17,-285 248.83,-285 243.5,-279.67 243.5,-274.33 243.5,-274.33 243.5,-263.67 243.5,-263.67 243.5,-258.33 248.83,-253 254.17,-253"/>
<text text-anchor="start" x="249" y="-265.3" font-family="Helvetica,sans-Serif" font-size="14.00">Addi</text>
<path fill="none" stroke="black" d="M254.17,-253C254.17,-253 273.83,-253 273.83,-253 279.17,-253 284.5,-258.33 284.5,-263.67 284.5,-263.67 284.5,-274.33 284.5,-274.33 284.5,-279.67 279.17,-285 273.83,-285 273.83,-285 254.17,-285 254.17,-285 248.83,-285 243.5,-279.67 243.5,-274.33 243.5,-274.33 243.5,-263.67 243.5,-263.67 243.5,-258.33 248.83,-253 254.17,-253"/>
</a>
</g>
</g>
<!-- function&#45;0&#45;Lui -->
<g id="node10" class="node">
<title>function&#45;0&#45;Lui</title>
<g id="a_node10"><a xlink:title="Inst&#45;3: function&#45;0&#45;Lui">
<path fill="white" stroke="transparent" d="M254.67,-174C254.67,-174 265.33,-174 265.33,-174 270.67,-174 276,-179.33 276,-184.67 276,-184.67 276,-195.33 276,-195.33 276,-200.67 270.67,-206 265.33,-206 265.33,-206 254.67,-206 254.67,-206 249.33,-206 244,-200.67 244,-195.33 244,-195.33 244,-184.67 244,-184.67 244,-179.33 249.33,-174 254.67,-174"/>
<text text-anchor="start" x="249.5" y="-186.3" font-family="Helvetica,sans-Serif" font-size="14.00">Lui</text>
<path fill="none" stroke="black" d="M254.67,-174C254.67,-174 265.33,-174 265.33,-174 270.67,-174 276,-179.33 276,-184.67 276,-184.67 276,-195.33 276,-195.33 276,-200.67 270.67,-206 265.33,-206 265.33,-206 254.67,-206 254.67,-206 249.33,-206 244,-200.67 244,-195.33 244,-195.33 244,-184.67 244,-184.67 244,-179.33 249.33,-174 254.67,-174"/>
</a>
</g>
</g>
<!-- function&#45;0&#45;And -->
<g id="node11" class="node">
<title>function&#45;0&#45;And</title>
<g id="a_node11"><a xlink:title="Inst&#45;6: function&#45;0&#45;And">
<path fill="white" stroke="transparent" d="M324.67,-332C324.67,-332 341.33,-332 341.33,-332 346.67,-332 352,-337.33 352,-342.67 352,-342.67 352,-353.33 352,-353.33 352,-358.67 346.67,-364 341.33,-364 341.33,-364 324.67,-364 324.67,-364 319.33,-364 314,-358.67 314,-353.33 314,-353.33 314,-342.67 314,-342.67 314,-337.33 319.33,-332 324.67,-332"/>
<text text-anchor="start" x="319" y="-344.3" font-family="Helvetica,sans-Serif" font-size="14.00">And</text>
<path fill="none" stroke="black" d="M324.67,-332C324.67,-332 341.33,-332 341.33,-332 346.67,-332 352,-337.33 352,-342.67 352,-342.67 352,-353.33 352,-353.33 352,-358.67 346.67,-364 341.33,-364 341.33,-364 324.67,-364 324.67,-364 319.33,-364 314,-358.67 314,-353.33 314,-353.33 314,-342.67 314,-342.67 314,-337.33 319.33,-332 324.67,-332"/>
</a>
</g>
</g>
<!-- function&#45;1&#45;RegVal -->
<g id="node12" class="node">
<title>function&#45;1&#45;RegVal</title>
<g id="a_node12"><a xlink:title="Inst&#45;1: function&#45;1&#45;RegVal">
<path fill="white" stroke="transparent" d="M314.17,-253C314.17,-253 349.83,-253 349.83,-253 355.17,-253 360.5,-258.33 360.5,-263.67 360.5,-263.67 360.5,-274.33 360.5,-274.33 360.5,-279.67 355.17,-285 349.83,-285 349.83,-285 314.17,-285 314.17,-285 308.83,-285 303.5,-279.67 303.5,-274.33 303.5,-274.33 303.5,-263.67 303.5,-263.67 303.5,-258.33 308.83,-253 314.17,-253"/>
<text text-anchor="start" x="309" y="-265.3" font-family="Helvetica,sans-Serif" font-size="14.00">RegVal</text>
<path fill="none" stroke="black" d="M314.17,-253C314.17,-253 349.83,-253 349.83,-253 355.17,-253 360.5,-258.33 360.5,-263.67 360.5,-263.67 360.5,-274.33 360.5,-274.33 360.5,-279.67 355.17,-285 349.83,-285 349.83,-285 314.17,-285 314.17,-285 308.83,-285 303.5,-279.67 303.5,-274.33 303.5,-274.33 303.5,-263.67 303.5,-263.67 303.5,-258.33 308.83,-253 314.17,-253"/>
</a>
</g>
</g>
<!-- function&#45;1&#45;And -->
<g id="node13" class="node">
<title>function&#45;1&#45;And</title>
<g id="a_node13"><a xlink:title="Inst&#45;6: function&#45;1&#45;And">
<path fill="white" stroke="transparent" d="M266.67,-332C266.67,-332 283.33,-332 283.33,-332 288.67,-332 294,-337.33 294,-342.67 294,-342.67 294,-353.33 294,-353.33 294,-358.67 288.67,-364 283.33,-364 283.33,-364 266.67,-364 266.67,-364 261.33,-364 256,-358.67 256,-353.33 256,-353.33 256,-342.67 256,-342.67 256,-337.33 261.33,-332 266.67,-332"/>
<text text-anchor="start" x="261" y="-344.3" font-family="Helvetica,sans-Serif" font-size="14.00">And</text>
<path fill="none" stroke="black" d="M266.67,-332C266.67,-332 283.33,-332 283.33,-332 288.67,-332 294,-337.33 294,-342.67 294,-342.67 294,-353.33 294,-353.33 294,-358.67 288.67,-364 283.33,-364 283.33,-364 266.67,-364 266.67,-364 261.33,-364 256,-358.67 256,-353.33 256,-353.33 256,-342.67 256,-342.67 256,-337.33 261.33,-332 266.67,-332"/>
</a>
</g>
</g>
<!-- function&#45;0&#45;Jal -->
<g id="node14" class="node">
<title>function&#45;0&#45;Jal</title>
<g id="a_node14"><a xlink:title="Inst&#45;9: function&#45;0&#45;Jal">
<path fill="white" stroke="transparent" d="M39.67,-332C39.67,-332 50.33,-332 50.33,-332 55.67,-332 61,-337.33 61,-342.67 61,-342.67 61,-353.33 61,-353.33 61,-358.67 55.67,-364 50.33,-364 50.33,-364 39.67,-364 39.67,-364 34.33,-364 29,-358.67 29,-353.33 29,-353.33 29,-342.67 29,-342.67 29,-337.33 34.33,-332 39.67,-332"/>
<text text-anchor="start" x="36.5" y="-344.3" font-family="Helvetica,sans-Serif" font-size="14.00">Jal</text>
<path fill="none" stroke="black" d="M39.67,-332C39.67,-332 50.33,-332 50.33,-332 55.67,-332 61,-337.33 61,-342.67 61,-342.67 61,-353.33 61,-353.33 61,-358.67 55.67,-364 50.33,-364 50.33,-364 39.67,-364 39.67,-364 34.33,-364 29,-358.67 29,-353.33 29,-353.33 29,-342.67 29,-342.67 29,-337.33 34.33,-332 39.67,-332"/>
</a>
</g>
</g>
<!-- function&#45;1&#45;Addi -->
<g id="node15" class="node">
<title>function&#45;1&#45;Addi</title>
<g id="a_node15"><a xlink:title="Inst&#45;8: function&#45;1&#45;Addi">
<path fill="white" stroke="transparent" d="M109.17,-332C109.17,-332 128.83,-332 128.83,-332 134.17,-332 139.5,-337.33 139.5,-342.67 139.5,-342.67 139.5,-353.33 139.5,-353.33 139.5,-358.67 134.17,-364 128.83,-364 128.83,-364 109.17,-364 109.17,-364 103.83,-364 98.5,-358.67 98.5,-353.33 98.5,-353.33 98.5,-342.67 98.5,-342.67 98.5,-337.33 103.83,-332 109.17,-332"/>
<text text-anchor="start" x="104" y="-344.3" font-family="Helvetica,sans-Serif" font-size="14.00">Addi</text>
<path fill="none" stroke="black" d="M109.17,-332C109.17,-332 128.83,-332 128.83,-332 134.17,-332 139.5,-337.33 139.5,-342.67 139.5,-342.67 139.5,-353.33 139.5,-353.33 139.5,-358.67 134.17,-364 128.83,-364 128.83,-364 109.17,-364 109.17,-364 103.83,-364 98.5,-358.67 98.5,-353.33 98.5,-353.33 98.5,-342.67 98.5,-342.67 98.5,-337.33 103.83,-332 109.17,-332"/>
</a>
</g>
</g>
<!-- primitive&#45;String&#45;1 -->
<g id="node16" class="node">
<title>primitive&#45;String&#45;1</title>
<g id="a_node16"><a xlink:title="String&#45;1: primitive&#45;String&#45;1">
<path fill="white" stroke="transparent" d="M315.17,-174C315.17,-174 350.83,-174 350.83,-174 356.17,-174 361.5,-179.33 361.5,-184.67 361.5,-184.67 361.5,-195.33 361.5,-195.33 361.5,-200.67 356.17,-206 350.83,-206 350.83,-206 315.17,-206 315.17,-206 309.83,-206 304.5,-200.67 304.5,-195.33 304.5,-195.33 304.5,-184.67 304.5,-184.67 304.5,-179.33 309.83,-174 315.17,-174"/>
<text text-anchor="start" x="310" y="-186.3" font-family="Helvetica,sans-Serif" font-size="14.00">&quot;a5_0&quot;</text>
<path fill="none" stroke="black" d="M315.17,-174C315.17,-174 350.83,-174 350.83,-174 356.17,-174 361.5,-179.33 361.5,-184.67 361.5,-184.67 361.5,-195.33 361.5,-195.33 361.5,-200.67 356.17,-206 350.83,-206 350.83,-206 315.17,-206 315.17,-206 309.83,-206 304.5,-200.67 304.5,-195.33 304.5,-195.33 304.5,-184.67 304.5,-184.67 304.5,-179.33 309.83,-174 315.17,-174"/>
</a>
</g>
</g>
</g>
</svg>
