<?xml version="1.0" encoding="UTF-8" standalone="no"?>
<!DOCTYPE svg PUBLIC "-//W3C//DTD SVG 1.1//EN"
 "http://www.w3.org/Graphics/SVG/1.1/DTD/svg11.dtd">
<!-- Generated by graphviz version 2.43.0 (0)
 -->
<!-- Title: %3 Pages: 1 -->
<svg width="390pt" height="230pt"
 viewBox="0.00 0.00 390.00 230.00" xmlns="http://www.w3.org/2000/svg" xmlns:xlink="http://www.w3.org/1999/xlink">
<g id="graph0" class="graph" transform="scale(1 1) rotate(0) translate(4 226)">
<title>%3</title>
<polygon fill="white" stroke="#000000" points="-4,4 -4,-226 386,-226 386,4 -4,4"/>
<g id="clust1" class="cluster">
<title>outer_cluster_Inst&#45;3</title>
</g>
<g id="clust2" class="cluster">
<title>cluster_Inst&#45;3</title>
<path fill="#ffffb3" stroke="black" stroke-dasharray="5,2" d="M28,-169C28,-169 68,-169 68,-169 74,-169 80,-175 80,-181 80,-181 80,-199 80,-199 80,-205 74,-211 68,-211 68,-211 28,-211 28,-211 22,-211 16,-205 16,-199 16,-199 16,-181 16,-181 16,-175 22,-169 28,-169"/>
</g>
<g id="clust4" class="cluster">
<title>outer_cluster_Inst&#45;1</title>
</g>
<g id="clust5" class="cluster">
<title>cluster_Inst&#45;1</title>
<path fill="#ffffb3" stroke="black" stroke-dasharray="5,2" d="M105,-90C105,-90 145,-90 145,-90 151,-90 157,-96 157,-102 157,-102 157,-120 157,-120 157,-126 151,-132 145,-132 145,-132 105,-132 105,-132 99,-132 93,-126 93,-120 93,-120 93,-102 93,-102 93,-96 99,-90 105,-90"/>
</g>
<g id="clust7" class="cluster">
<title>outer_cluster_Inst&#45;0</title>
</g>
<g id="clust8" class="cluster">
<title>cluster_Inst&#45;0</title>
<path fill="#ffffb3" stroke="black" stroke-dasharray="5,2" d="M175,-90C175,-90 215,-90 215,-90 221,-90 227,-96 227,-102 227,-102 227,-120 227,-120 227,-126 221,-132 215,-132 215,-132 175,-132 175,-132 169,-132 163,-126 163,-120 163,-120 163,-102 163,-102 163,-96 169,-90 175,-90"/>
</g>
<g id="clust10" class="cluster">
<title>outer_cluster_Inst&#45;6</title>
</g>
<g id="clust11" class="cluster">
<title>cluster_Inst&#45;6</title>
<path fill="#ffffb3" stroke="black" stroke-dasharray="5,2" d="M245,-169C245,-169 339,-169 339,-169 345,-169 351,-175 351,-181 351,-181 351,-199 351,-199 351,-205 345,-211 339,-211 339,-211 245,-211 245,-211 239,-211 233,-205 233,-199 233,-199 233,-181 233,-181 233,-175 239,-169 245,-169"/>
</g>
<g id="clust13" class="cluster">
<title>outer_cluster_Inst&#45;2</title>
</g>
<g id="clust14" class="cluster">
<title>cluster_Inst&#45;2</title>
<path fill="#ffffb3" stroke="black" stroke-dasharray="5,2" d="M248,-90C248,-90 288,-90 288,-90 294,-90 300,-96 300,-102 300,-102 300,-120 300,-120 300,-126 294,-132 288,-132 288,-132 248,-132 248,-132 242,-132 236,-126 236,-120 236,-120 236,-102 236,-102 236,-96 242,-90 248,-90"/>
</g>
<g id="clust16" class="cluster">
<title>outer_cluster_Inst&#45;5</title>
</g>
<g id="clust17" class="cluster">
<title>cluster_Inst&#45;5</title>
<path fill="#ffffb3" stroke="black" stroke-dasharray="5,2" d="M318,-90C318,-90 358,-90 358,-90 364,-90 370,-96 370,-102 370,-102 370,-120 370,-120 370,-126 364,-132 358,-132 358,-132 318,-132 318,-132 312,-132 306,-126 306,-120 306,-120 306,-102 306,-102 306,-96 312,-90 318,-90"/>
</g>
<g id="clust19" class="cluster">
<title>outer_cluster_Inst&#45;4</title>
</g>
<g id="clust20" class="cluster">
<title>cluster_Inst&#45;4</title>
<path fill="#ffffb3" stroke="black" stroke-dasharray="5,2" d="M121,-169C121,-169 215,-169 215,-169 221,-169 227,-175 227,-181 227,-181 227,-199 227,-199 227,-205 221,-211 215,-211 215,-211 121,-211 121,-211 115,-211 109,-205 109,-199 109,-199 109,-181 109,-181 109,-175 115,-169 121,-169"/>
</g>
<g id="clust22" class="cluster">
<title>outer_cluster_String&#45;2</title>
</g>
<g id="clust23" class="cluster">
<title>cluster_String&#45;2</title>
<path fill="#bebada" stroke="black" stroke-dasharray="5,2" d="M249,-11C249,-11 289,-11 289,-11 295,-11 301,-17 301,-23 301,-23 301,-41 301,-41 301,-47 295,-53 289,-53 289,-53 249,-53 249,-53 243,-53 237,-47 237,-41 237,-41 237,-23 237,-23 237,-17 243,-11 249,-11"/>
</g>
<g id="clust25" class="cluster">
<title>outer_cluster_String&#45;0</title>
</g>
<g id="clust26" class="cluster">
<title>cluster_String&#45;0</title>
<path fill="#bebada" stroke="black" stroke-dasharray="5,2" d="M176,-11C176,-11 216,-11 216,-11 222,-11 228,-17 228,-23 228,-23 228,-41 228,-41 228,-47 222,-53 216,-53 216,-53 176,-53 176,-53 170,-53 164,-47 164,-41 164,-41 164,-23 164,-23 164,-17 170,-11 176,-11"/>
</g>
<g id="clust28" class="cluster">
<title>outer_cluster_String&#45;1</title>
</g>
<g id="clust29" class="cluster">
<title>cluster_String&#45;1</title>
<path fill="#bebada" stroke="black" stroke-dasharray="5,2" d="M106,-11C106,-11 146,-11 146,-11 152,-11 158,-17 158,-23 158,-23 158,-41 158,-41 158,-47 152,-53 146,-53 146,-53 106,-53 106,-53 100,-53 94,-47 94,-41 94,-41 94,-23 94,-23 94,-17 100,-11 106,-11"/>
</g>
<g id="clust31" class="cluster">
<title>outer_cluster_String&#45;4</title>
</g>
<g id="clust32" class="cluster">
<title>cluster_String&#45;4</title>
<path fill="#bebada" stroke="black" stroke-dasharray="5,2" d="M319,-11C319,-11 359,-11 359,-11 365,-11 371,-17 371,-23 371,-23 371,-41 371,-41 371,-47 365,-53 359,-53 359,-53 319,-53 319,-53 313,-53 307,-47 307,-41 307,-41 307,-23 307,-23 307,-17 313,-11 319,-11"/>
</g>
<g id="clust34" class="cluster">
<title>outer_cluster_String&#45;3</title>
</g>
<g id="clust35" class="cluster">
<title>cluster_String&#45;3</title>
<path fill="#bebada" stroke="black" stroke-dasharray="5,2" d="M23,-90C23,-90 75,-90 75,-90 81,-90 87,-96 87,-102 87,-102 87,-120 87,-120 87,-126 81,-132 75,-132 75,-132 23,-132 23,-132 17,-132 11,-126 11,-120 11,-120 11,-102 11,-102 11,-96 17,-90 23,-90"/>
</g>
<!-- function&#45;3&#45;RegVal&#45;&gt;primitive&#45;String&#45;3 -->
<g id="edge1" class="edge">
<title>function&#45;3&#45;RegVal:s&#45;&gt;primitive&#45;String&#45;3</title>
<path fill="none" stroke="black" d="M49,-174C49,-160.84 49,-146.11 49,-134.3"/>
<polygon fill="black" stroke="black" points="50.75,-137 49,-132 47.25,-137 50.75,-137"/>
</g>
<!-- function&#45;1&#45;RegVal&#45;&gt;primitive&#45;String&#45;1 -->
<g id="edge2" class="edge">
<title>function&#45;1&#45;RegVal:s&#45;&gt;primitive&#45;String&#45;1</title>
<path fill="none" stroke="black" d="M126,-95C126,-81.84 126,-67.11 126,-55.3"/>
<polygon fill="black" stroke="black" points="127.75,-58 126,-53 124.25,-58 127.75,-58"/>
</g>
<!-- function&#45;0&#45;RegVal&#45;&gt;primitive&#45;String&#45;0 -->
<g id="edge3" class="edge">
<title>function&#45;0&#45;RegVal:s&#45;&gt;primitive&#45;String&#45;0</title>
<path fill="none" stroke="black" d="M196,-95C196,-81.84 196,-67.11 196,-55.3"/>
<polygon fill="black" stroke="black" points="197.75,-58 196,-53 194.25,-58 197.75,-58"/>
</g>
<!-- function&#45;1&#45;Or&#45;&gt;function&#45;2&#45;RegVal -->
<g id="edge4" class="edge">
<title>function&#45;1&#45;Or:s&#45;&gt;function&#45;2&#45;RegVal</title>
<path fill="none" stroke="black" d="M313,-174C313,-158.23 303.34,-143.76 292.98,-132.78"/>
<polygon fill="black" stroke="black" points="296.7,-132.71 291.45,-132 295.11,-135.83 296.7,-132.71"/>
</g>
<!-- function&#45;1&#45;Or&#45;&gt;function&#45;4&#45;RegVal -->
<g id="edge5" class="edge">
<title>function&#45;1&#45;Or:s&#45;&gt;function&#45;4&#45;RegVal</title>
<path fill="none" stroke="black" d="M329,-174C329,-160.7 331.05,-145.96 333.2,-134.19"/>
<polygon fill="black" stroke="black" points="333.73,-137.28 334.18,-132 330.54,-135.84 333.73,-137.28"/>
</g>
<!-- function&#45;2&#45;RegVal&#45;&gt;primitive&#45;String&#45;2 -->
<g id="edge8" class="edge">
<title>function&#45;2&#45;RegVal:s&#45;&gt;primitive&#45;String&#45;2</title>
<path fill="none" stroke="black" d="M269,-95C269,-81.84 269,-67.11 269,-55.3"/>
<polygon fill="black" stroke="black" points="270.75,-58 269,-53 267.25,-58 270.75,-58"/>
</g>
<!-- function&#45;4&#45;RegVal&#45;&gt;primitive&#45;String&#45;4 -->
<g id="edge9" class="edge">
<title>function&#45;4&#45;RegVal:s&#45;&gt;primitive&#45;String&#45;4</title>
<path fill="none" stroke="black" d="M339,-95C339,-81.84 339,-67.11 339,-55.3"/>
<polygon fill="black" stroke="black" points="340.75,-58 339,-53 337.25,-58 340.75,-58"/>
</g>
<!-- function&#45;3&#45;Or&#45;&gt;function&#45;2&#45;RegVal -->
<g id="edge7" class="edge">
<title>function&#45;3&#45;Or:s&#45;&gt;function&#45;2&#45;RegVal</title>
<path fill="none" stroke="black" d="M271,-174C271,-160.82 270.32,-146.09 269.6,-134.29"/>
<polygon fill="black" stroke="black" points="271.71,-136.7 269.27,-132 268.25,-137.2 271.71,-136.7"/>
</g>
<!-- function&#45;3&#45;Or&#45;&gt;function&#45;4&#45;RegVal -->
<g id="edge6" class="edge">
<title>function&#45;3&#45;Or:s&#45;&gt;function&#45;4&#45;RegVal</title>
<path fill="none" stroke="black" d="M255,-174C255,-167.31 283.02,-147.47 306.5,-132.01"/>
<polygon fill="black" stroke="black" points="301.87,-133.88 306.82,-132 301.78,-130.38 301.87,-133.88"/>
</g>
<!-- function&#45;0&#45;Or&#45;&gt;function&#45;1&#45;RegVal -->
<g id="edge11" class="edge">
<title>function&#45;0&#45;Or:s&#45;&gt;function&#45;1&#45;RegVal</title>
<path fill="none" stroke="black" d="M205,-174C205,-167.47 177.99,-147.59 155.36,-132.09"/>
<polygon fill="black" stroke="black" points="160.43,-132.82 155.19,-132 158.77,-135.91 160.43,-132.82"/>
</g>
<!-- function&#45;0&#45;Or&#45;&gt;function&#45;0&#45;RegVal -->
<g id="edge10" class="edge">
<title>function&#45;0&#45;Or:s&#45;&gt;function&#45;0&#45;RegVal</title>
<path fill="none" stroke="black" d="M189,-174C189,-160.78 190.37,-146.04 191.8,-134.25"/>
<polygon fill="black" stroke="black" points="192.74,-137.29 192.46,-132 189.38,-136.31 192.74,-137.29"/>
</g>
<!-- function&#45;2&#45;Or&#45;&gt;function&#45;1&#45;RegVal -->
<g id="edge12" class="edge">
<title>function&#45;2&#45;Or:s&#45;&gt;function&#45;1&#45;RegVal</title>
<path fill="none" stroke="black" d="M131,-174C131,-160.78 129.63,-146.04 128.2,-134.25"/>
<polygon fill="black" stroke="black" points="130.62,-136.31 127.54,-132 127.26,-137.29 130.62,-136.31"/>
</g>
<!-- function&#45;2&#45;Or&#45;&gt;function&#45;0&#45;RegVal -->
<g id="edge13" class="edge">
<title>function&#45;2&#45;Or:s&#45;&gt;function&#45;0&#45;RegVal</title>
<path fill="none" stroke="black" d="M147,-174C147,-157.98 157.15,-143.58 168.11,-132.71"/>
<polygon fill="black" stroke="black" points="165.87,-135.51 169.84,-132 164.55,-132.26 165.87,-135.51"/>
</g>
<!-- function&#45;3&#45;RegVal -->
<g id="node1" class="node">
<title>function&#45;3&#45;RegVal</title>
<g id="a_node1"><a xlink:title="Inst&#45;3: function&#45;3&#45;RegVal">
<path fill="white" stroke="transparent" d="M30.17,-174C30.17,-174 65.83,-174 65.83,-174 71.17,-174 76.5,-179.33 76.5,-184.67 76.5,-184.67 76.5,-195.33 76.5,-195.33 76.5,-200.67 71.17,-206 65.83,-206 65.83,-206 30.17,-206 30.17,-206 24.83,-206 19.5,-200.67 19.5,-195.33 19.5,-195.33 19.5,-184.67 19.5,-184.67 19.5,-179.33 24.83,-174 30.17,-174"/>
<text text-anchor="start" x="25" y="-186.3" font-family="Helvetica,sans-Serif" font-size="14.00">RegVal</text>
<path fill="none" stroke="black" d="M30.17,-174C30.17,-174 65.83,-174 65.83,-174 71.17,-174 76.5,-179.33 76.5,-184.67 76.5,-184.67 76.5,-195.33 76.5,-195.33 76.5,-200.67 71.17,-206 65.83,-206 65.83,-206 30.17,-206 30.17,-206 24.83,-206 19.5,-200.67 19.5,-195.33 19.5,-195.33 19.5,-184.67 19.5,-184.67 19.5,-179.33 24.83,-174 30.17,-174"/>
</a>
</g>
</g>
<!-- primitive&#45;String&#45;3 -->
<g id="node2" class="node">
<title>primitive&#45;String&#45;3</title>
<g id="a_node2"><a xlink:title="String&#45;3: primitive&#45;String&#45;3">
<path fill="white" stroke="transparent" d="M25.17,-95C25.17,-95 72.83,-95 72.83,-95 78.17,-95 83.5,-100.33 83.5,-105.67 83.5,-105.67 83.5,-116.33 83.5,-116.33 83.5,-121.67 78.17,-127 72.83,-127 72.83,-127 25.17,-127 25.17,-127 19.83,-127 14.5,-121.67 14.5,-116.33 14.5,-116.33 14.5,-105.67 14.5,-105.67 14.5,-100.33 19.83,-95 25.17,-95"/>
<text text-anchor="start" x="20" y="-107.3" font-family="Helvetica,sans-Serif" font-size="14.00">&quot;zero_0&quot;</text>
<path fill="none" stroke="black" d="M25.17,-95C25.17,-95 72.83,-95 72.83,-95 78.17,-95 83.5,-100.33 83.5,-105.67 83.5,-105.67 83.5,-116.33 83.5,-116.33 83.5,-121.67 78.17,-127 72.83,-127 72.83,-127 25.17,-127 25.17,-127 19.83,-127 14.5,-121.67 14.5,-116.33 14.5,-116.33 14.5,-105.67 14.5,-105.67 14.5,-100.33 19.83,-95 25.17,-95"/>
</a>
</g>
</g>
<!-- function&#45;1&#45;RegVal -->
<g id="node3" class="node">
<title>function&#45;1&#45;RegVal</title>
<g id="a_node3"><a xlink:title="Inst&#45;1: function&#45;1&#45;RegVal">
<path fill="white" stroke="transparent" d="M107.17,-95C107.17,-95 142.83,-95 142.83,-95 148.17,-95 153.5,-100.33 153.5,-105.67 153.5,-105.67 153.5,-116.33 153.5,-116.33 153.5,-121.67 148.17,-127 142.83,-127 142.83,-127 107.17,-127 107.17,-127 101.83,-127 96.5,-121.67 96.5,-116.33 96.5,-116.33 96.5,-105.67 96.5,-105.67 96.5,-100.33 101.83,-95 107.17,-95"/>
<text text-anchor="start" x="102" y="-107.3" font-family="Helvetica,sans-Serif" font-size="14.00">RegVal</text>
<path fill="none" stroke="black" d="M107.17,-95C107.17,-95 142.83,-95 142.83,-95 148.17,-95 153.5,-100.33 153.5,-105.67 153.5,-105.67 153.5,-116.33 153.5,-116.33 153.5,-121.67 148.17,-127 142.83,-127 142.83,-127 107.17,-127 107.17,-127 101.83,-127 96.5,-121.67 96.5,-116.33 96.5,-116.33 96.5,-105.67 96.5,-105.67 96.5,-100.33 101.83,-95 107.17,-95"/>
</a>
</g>
</g>
<!-- primitive&#45;String&#45;1 -->
<g id="node4" class="node">
<title>primitive&#45;String&#45;1</title>
<g id="a_node4"><a xlink:title="String&#45;1: primitive&#45;String&#45;1">
<path fill="white" stroke="transparent" d="M108.17,-16C108.17,-16 143.83,-16 143.83,-16 149.17,-16 154.5,-21.33 154.5,-26.67 154.5,-26.67 154.5,-37.33 154.5,-37.33 154.5,-42.67 149.17,-48 143.83,-48 143.83,-48 108.17,-48 108.17,-48 102.83,-48 97.5,-42.67 97.5,-37.33 97.5,-37.33 97.5,-26.67 97.5,-26.67 97.5,-21.33 102.83,-16 108.17,-16"/>
<text text-anchor="start" x="103" y="-28.3" font-family="Helvetica,sans-Serif" font-size="14.00">&quot;a2_0&quot;</text>
<path fill="none" stroke="black" d="M108.17,-16C108.17,-16 143.83,-16 143.83,-16 149.17,-16 154.5,-21.33 154.5,-26.67 154.5,-26.67 154.5,-37.33 154.5,-37.33 154.5,-42.67 149.17,-48 143.83,-48 143.83,-48 108.17,-48 108.17,-48 102.83,-48 97.5,-42.67 97.5,-37.33 97.5,-37.33 97.5,-26.67 97.5,-26.67 97.5,-21.33 102.83,-16 108.17,-16"/>
</a>
</g>
</g>
<!-- function&#45;0&#45;RegVal -->
<g id="node5" class="node">
<title>function&#45;0&#45;RegVal</title>
<g id="a_node5"><a xlink:title="Inst&#45;0: function&#45;0&#45;RegVal">
<path fill="white" stroke="transparent" d="M177.17,-95C177.17,-95 212.83,-95 212.83,-95 218.17,-95 223.5,-100.33 223.5,-105.67 223.5,-105.67 223.5,-116.33 223.5,-116.33 223.5,-121.67 218.17,-127 212.83,-127 212.83,-127 177.17,-127 177.17,-127 171.83,-127 166.5,-121.67 166.5,-116.33 166.5,-116.33 166.5,-105.67 166.5,-105.67 166.5,-100.33 171.83,-95 177.17,-95"/>
<text text-anchor="start" x="172" y="-107.3" font-family="Helvetica,sans-Serif" font-size="14.00">RegVal</text>
<path fill="none" stroke="black" d="M177.17,-95C177.17,-95 212.83,-95 212.83,-95 218.17,-95 223.5,-100.33 223.5,-105.67 223.5,-105.67 223.5,-116.33 223.5,-116.33 223.5,-121.67 218.17,-127 212.83,-127 212.83,-127 177.17,-127 177.17,-127 171.83,-127 166.5,-121.67 166.5,-116.33 166.5,-116.33 166.5,-105.67 166.5,-105.67 166.5,-100.33 171.83,-95 177.17,-95"/>
</a>
</g>
</g>
<!-- primitive&#45;String&#45;0 -->
<g id="node6" class="node">
<title>primitive&#45;String&#45;0</title>
<g id="a_node6"><a xlink:title="String&#45;0: primitive&#45;String&#45;0">
<path fill="white" stroke="transparent" d="M178.17,-16C178.17,-16 213.83,-16 213.83,-16 219.17,-16 224.5,-21.33 224.5,-26.67 224.5,-26.67 224.5,-37.33 224.5,-37.33 224.5,-42.67 219.17,-48 213.83,-48 213.83,-48 178.17,-48 178.17,-48 172.83,-48 167.5,-42.67 167.5,-37.33 167.5,-37.33 167.5,-26.67 167.5,-26.67 167.5,-21.33 172.83,-16 178.17,-16"/>
<text text-anchor="start" x="173" y="-28.3" font-family="Helvetica,sans-Serif" font-size="14.00">&quot;a1_0&quot;</text>
<path fill="none" stroke="black" d="M178.17,-16C178.17,-16 213.83,-16 213.83,-16 219.17,-16 224.5,-21.33 224.5,-26.67 224.5,-26.67 224.5,-37.33 224.5,-37.33 224.5,-42.67 219.17,-48 213.83,-48 213.83,-48 178.17,-48 178.17,-48 172.83,-48 167.5,-42.67 167.5,-37.33 167.5,-37.33 167.5,-26.67 167.5,-26.67 167.5,-21.33 172.83,-16 178.17,-16"/>
</a>
</g>
</g>
<!-- function&#45;1&#45;Or -->
<g id="node7" class="node">
<title>function&#45;1&#45;Or</title>
<g id="a_node7"><a xlink:title="Inst&#45;6: function&#45;1&#45;Or">
<path fill="white" stroke="transparent" d="M315.67,-174C315.67,-174 326.33,-174 326.33,-174 331.67,-174 337,-179.33 337,-184.67 337,-184.67 337,-195.33 337,-195.33 337,-200.67 331.67,-206 326.33,-206 326.33,-206 315.67,-206 315.67,-206 310.33,-206 305,-200.67 305,-195.33 305,-195.33 305,-184.67 305,-184.67 305,-179.33 310.33,-174 315.67,-174"/>
<text text-anchor="start" x="312" y="-186.3" font-family="Helvetica,sans-Serif" font-size="14.00">Or</text>
<path fill="none" stroke="black" d="M315.67,-174C315.67,-174 326.33,-174 326.33,-174 331.67,-174 337,-179.33 337,-184.67 337,-184.67 337,-195.33 337,-195.33 337,-200.67 331.67,-206 326.33,-206 326.33,-206 315.67,-206 315.67,-206 310.33,-206 305,-200.67 305,-195.33 305,-195.33 305,-184.67 305,-184.67 305,-179.33 310.33,-174 315.67,-174"/>
</a>
</g>
</g>
<!-- function&#45;2&#45;RegVal -->
<g id="node8" class="node">
<title>function&#45;2&#45;RegVal</title>
<g id="a_node8"><a xlink:title="Inst&#45;2: function&#45;2&#45;RegVal">
<path fill="white" stroke="transparent" d="M250.17,-95C250.17,-95 285.83,-95 285.83,-95 291.17,-95 296.5,-100.33 296.5,-105.67 296.5,-105.67 296.5,-116.33 296.5,-116.33 296.5,-121.67 291.17,-127 285.83,-127 285.83,-127 250.17,-127 250.17,-127 244.83,-127 239.5,-121.67 239.5,-116.33 239.5,-116.33 239.5,-105.67 239.5,-105.67 239.5,-100.33 244.83,-95 250.17,-95"/>
<text text-anchor="start" x="245" y="-107.3" font-family="Helvetica,sans-Serif" font-size="14.00">RegVal</text>
<path fill="none" stroke="black" d="M250.17,-95C250.17,-95 285.83,-95 285.83,-95 291.17,-95 296.5,-100.33 296.5,-105.67 296.5,-105.67 296.5,-116.33 296.5,-116.33 296.5,-121.67 291.17,-127 285.83,-127 285.83,-127 250.17,-127 250.17,-127 244.83,-127 239.5,-121.67 239.5,-116.33 239.5,-116.33 239.5,-105.67 239.5,-105.67 239.5,-100.33 244.83,-95 250.17,-95"/>
</a>
</g>
</g>
<!-- function&#45;4&#45;RegVal -->
<g id="node9" class="node">
<title>function&#45;4&#45;RegVal</title>
<g id="a_node9"><a xlink:title="Inst&#45;5: function&#45;4&#45;RegVal">
<path fill="white" stroke="transparent" d="M320.17,-95C320.17,-95 355.83,-95 355.83,-95 361.17,-95 366.5,-100.33 366.5,-105.67 366.5,-105.67 366.5,-116.33 366.5,-116.33 366.5,-121.67 361.17,-127 355.83,-127 355.83,-127 320.17,-127 320.17,-127 314.83,-127 309.5,-121.67 309.5,-116.33 309.5,-116.33 309.5,-105.67 309.5,-105.67 309.5,-100.33 314.83,-95 320.17,-95"/>
<text text-anchor="start" x="315" y="-107.3" font-family="Helvetica,sans-Serif" font-size="14.00">RegVal</text>
<path fill="none" stroke="black" d="M320.17,-95C320.17,-95 355.83,-95 355.83,-95 361.17,-95 366.5,-100.33 366.5,-105.67 366.5,-105.67 366.5,-116.33 366.5,-116.33 366.5,-121.67 361.17,-127 355.83,-127 355.83,-127 320.17,-127 320.17,-127 314.83,-127 309.5,-121.67 309.5,-116.33 309.5,-116.33 309.5,-105.67 309.5,-105.67 309.5,-100.33 314.83,-95 320.17,-95"/>
</a>
</g>
</g>
<!-- function&#45;3&#45;Or -->
<g id="node10" class="node">
<title>function&#45;3&#45;Or</title>
<g id="a_node10"><a xlink:title="Inst&#45;6: function&#45;3&#45;Or">
<path fill="white" stroke="transparent" d="M257.67,-174C257.67,-174 268.33,-174 268.33,-174 273.67,-174 279,-179.33 279,-184.67 279,-184.67 279,-195.33 279,-195.33 279,-200.67 273.67,-206 268.33,-206 268.33,-206 257.67,-206 257.67,-206 252.33,-206 247,-200.67 247,-195.33 247,-195.33 247,-184.67 247,-184.67 247,-179.33 252.33,-174 257.67,-174"/>
<text text-anchor="start" x="254" y="-186.3" font-family="Helvetica,sans-Serif" font-size="14.00">Or</text>
<path fill="none" stroke="black" d="M257.67,-174C257.67,-174 268.33,-174 268.33,-174 273.67,-174 279,-179.33 279,-184.67 279,-184.67 279,-195.33 279,-195.33 279,-200.67 273.67,-206 268.33,-206 268.33,-206 257.67,-206 257.67,-206 252.33,-206 247,-200.67 247,-195.33 247,-195.33 247,-184.67 247,-184.67 247,-179.33 252.33,-174 257.67,-174"/>
</a>
</g>
</g>
<!-- primitive&#45;String&#45;2 -->
<g id="node11" class="node">
<title>primitive&#45;String&#45;2</title>
<g id="a_node11"><a xlink:title="String&#45;2: primitive&#45;String&#45;2">
<path fill="white" stroke="transparent" d="M251.17,-16C251.17,-16 286.83,-16 286.83,-16 292.17,-16 297.5,-21.33 297.5,-26.67 297.5,-26.67 297.5,-37.33 297.5,-37.33 297.5,-42.67 292.17,-48 286.83,-48 286.83,-48 251.17,-48 251.17,-48 245.83,-48 240.5,-42.67 240.5,-37.33 240.5,-37.33 240.5,-26.67 240.5,-26.67 240.5,-21.33 245.83,-16 251.17,-16"/>
<text text-anchor="start" x="246" y="-28.3" font-family="Helvetica,sans-Serif" font-size="14.00">&quot;a3_0&quot;</text>
<path fill="none" stroke="black" d="M251.17,-16C251.17,-16 286.83,-16 286.83,-16 292.17,-16 297.5,-21.33 297.5,-26.67 297.5,-26.67 297.5,-37.33 297.5,-37.33 297.5,-42.67 292.17,-48 286.83,-48 286.83,-48 251.17,-48 251.17,-48 245.83,-48 240.5,-42.67 240.5,-37.33 240.5,-37.33 240.5,-26.67 240.5,-26.67 240.5,-21.33 245.83,-16 251.17,-16"/>
</a>
</g>
</g>
<!-- primitive&#45;String&#45;4 -->
<g id="node12" class="node">
<title>primitive&#45;String&#45;4</title>
<g id="a_node12"><a xlink:title="String&#45;4: primitive&#45;String&#45;4">
<path fill="white" stroke="transparent" d="M321.17,-16C321.17,-16 356.83,-16 356.83,-16 362.17,-16 367.5,-21.33 367.5,-26.67 367.5,-26.67 367.5,-37.33 367.5,-37.33 367.5,-42.67 362.17,-48 356.83,-48 356.83,-48 321.17,-48 321.17,-48 315.83,-48 310.5,-42.67 310.5,-37.33 310.5,-37.33 310.5,-26.67 310.5,-26.67 310.5,-21.33 315.83,-16 321.17,-16"/>
<text text-anchor="start" x="316" y="-28.3" font-family="Helvetica,sans-Serif" font-size="14.00">&quot;a1_2&quot;</text>
<path fill="none" stroke="black" d="M321.17,-16C321.17,-16 356.83,-16 356.83,-16 362.17,-16 367.5,-21.33 367.5,-26.67 367.5,-26.67 367.5,-37.33 367.5,-37.33 367.5,-42.67 362.17,-48 356.83,-48 356.83,-48 321.17,-48 321.17,-48 315.83,-48 310.5,-42.67 310.5,-37.33 310.5,-37.33 310.5,-26.67 310.5,-26.67 310.5,-21.33 315.83,-16 321.17,-16"/>
</a>
</g>
</g>
<!-- function&#45;0&#45;Or -->
<g id="node13" class="node">
<title>function&#45;0&#45;Or</title>
<g id="a_node13"><a xlink:title="Inst&#45;4: function&#45;0&#45;Or">
<path fill="white" stroke="transparent" d="M191.67,-174C191.67,-174 202.33,-174 202.33,-174 207.67,-174 213,-179.33 213,-184.67 213,-184.67 213,-195.33 213,-195.33 213,-200.67 207.67,-206 202.33,-206 202.33,-206 191.67,-206 191.67,-206 186.33,-206 181,-200.67 181,-195.33 181,-195.33 181,-184.67 181,-184.67 181,-179.33 186.33,-174 191.67,-174"/>
<text text-anchor="start" x="188" y="-186.3" font-family="Helvetica,sans-Serif" font-size="14.00">Or</text>
<path fill="none" stroke="black" d="M191.67,-174C191.67,-174 202.33,-174 202.33,-174 207.67,-174 213,-179.33 213,-184.67 213,-184.67 213,-195.33 213,-195.33 213,-200.67 207.67,-206 202.33,-206 202.33,-206 191.67,-206 191.67,-206 186.33,-206 181,-200.67 181,-195.33 181,-195.33 181,-184.67 181,-184.67 181,-179.33 186.33,-174 191.67,-174"/>
</a>
</g>
</g>
<!-- function&#45;2&#45;Or -->
<g id="node14" class="node">
<title>function&#45;2&#45;Or</title>
<g id="a_node14"><a xlink:title="Inst&#45;4: function&#45;2&#45;Or">
<path fill="white" stroke="transparent" d="M133.67,-174C133.67,-174 144.33,-174 144.33,-174 149.67,-174 155,-179.33 155,-184.67 155,-184.67 155,-195.33 155,-195.33 155,-200.67 149.67,-206 144.33,-206 144.33,-206 133.67,-206 133.67,-206 128.33,-206 123,-200.67 123,-195.33 123,-195.33 123,-184.67 123,-184.67 123,-179.33 128.33,-174 133.67,-174"/>
<text text-anchor="start" x="130" y="-186.3" font-family="Helvetica,sans-Serif" font-size="14.00">Or</text>
<path fill="none" stroke="black" d="M133.67,-174C133.67,-174 144.33,-174 144.33,-174 149.67,-174 155,-179.33 155,-184.67 155,-184.67 155,-195.33 155,-195.33 155,-200.67 149.67,-206 144.33,-206 144.33,-206 133.67,-206 133.67,-206 128.33,-206 123,-200.67 123,-195.33 123,-195.33 123,-184.67 123,-184.67 123,-179.33 128.33,-174 133.67,-174"/>
</a>
</g>
</g>
</g>
</svg>
