<?xml version="1.0" encoding="UTF-8" standalone="no"?>
<!DOCTYPE svg PUBLIC "-//W3C//DTD SVG 1.1//EN"
 "http://www.w3.org/Graphics/SVG/1.1/DTD/svg11.dtd">
<!-- Generated by graphviz version 2.43.0 (0)
 -->
<!-- Title: %3 Pages: 1 -->
<svg width="529pt" height="388pt"
 viewBox="0.00 0.00 529.20 388.00" xmlns="http://www.w3.org/2000/svg" xmlns:xlink="http://www.w3.org/1999/xlink">
<g id="graph0" class="graph" transform="scale(1 1) rotate(0) translate(4 384)">
<title>%3</title>
<polygon fill="white" stroke="#000000" points="-4,4 -4,-384 525.2,-384 525.2,4 -4,4"/>
<g id="clust1" class="cluster">
<title>outer_cluster_Imm&#45;2</title>
</g>
<g id="clust2" class="cluster">
<title>cluster_Imm&#45;2</title>
<path fill="#ffffb3" stroke="black" stroke-dasharray="5,2" d="M23,-169C23,-169 67,-169 67,-169 73,-169 79,-175 79,-181 79,-181 79,-199 79,-199 79,-205 73,-211 67,-211 67,-211 23,-211 23,-211 17,-211 11,-205 11,-199 11,-199 11,-181 11,-181 11,-175 17,-169 23,-169"/>
</g>
<g id="clust4" class="cluster">
<title>outer_cluster_Imm&#45;4</title>
</g>
<g id="clust5" class="cluster">
<title>cluster_Imm&#45;4</title>
<path fill="#ffffb3" stroke="black" stroke-dasharray="5,2" d="M280,-90C280,-90 324,-90 324,-90 330,-90 336,-96 336,-102 336,-102 336,-120 336,-120 336,-126 330,-132 324,-132 324,-132 280,-132 280,-132 274,-132 268,-126 268,-120 268,-120 268,-102 268,-102 268,-96 274,-90 280,-90"/>
</g>
<g id="clust7" class="cluster">
<title>outer_cluster_Inst&#45;1</title>
</g>
<g id="clust8" class="cluster">
<title>cluster_Inst&#45;1</title>
<path fill="#bebada" stroke="black" stroke-dasharray="5,2" d="M150,-169C150,-169 190,-169 190,-169 196,-169 202,-175 202,-181 202,-181 202,-199 202,-199 202,-205 196,-211 190,-211 190,-211 150,-211 150,-211 144,-211 138,-205 138,-199 138,-199 138,-181 138,-181 138,-175 144,-169 150,-169"/>
</g>
<g id="clust10" class="cluster">
<title>outer_cluster_Inst&#45;9</title>
</g>
<g id="clust11" class="cluster">
<title>cluster_Inst&#45;9</title>
<path fill="#bebada" stroke="black" stroke-dasharray="5,2" d="M284,-169C284,-169 320,-169 320,-169 326,-169 332,-175 332,-181 332,-181 332,-199 332,-199 332,-205 326,-211 320,-211 320,-211 284,-211 284,-211 278,-211 272,-205 272,-199 272,-199 272,-181 272,-181 272,-175 278,-169 284,-169"/>
</g>
<g id="clust13" class="cluster">
<title>outer_cluster_Inst&#45;3</title>
</g>
<g id="clust14" class="cluster">
<title>cluster_Inst&#45;3</title>
<path fill="#bebada" stroke="black" stroke-dasharray="5,2" d="M56,-327C56,-327 208,-327 208,-327 214,-327 220,-333 220,-339 220,-339 220,-357 220,-357 220,-363 214,-369 208,-369 208,-369 56,-369 56,-369 50,-369 44,-363 44,-357 44,-357 44,-339 44,-339 44,-333 50,-327 56,-327"/>
</g>
<g id="clust16" class="cluster">
<title>outer_cluster_Inst&#45;8</title>
</g>
<g id="clust17" class="cluster">
<title>cluster_Inst&#45;8</title>
<path fill="#bebada" stroke="black" stroke-dasharray="5,2" d="M336,-248C336,-248 488,-248 488,-248 494,-248 500,-254 500,-260 500,-260 500,-278 500,-278 500,-284 494,-290 488,-290 488,-290 336,-290 336,-290 330,-290 324,-284 324,-278 324,-278 324,-260 324,-260 324,-254 330,-248 336,-248"/>
</g>
<g id="clust19" class="cluster">
<title>outer_cluster_Inst&#45;5</title>
</g>
<g id="clust20" class="cluster">
<title>cluster_Inst&#45;5</title>
<path fill="#bebada" stroke="black" stroke-dasharray="5,2" d="M154,-248C154,-248 306,-248 306,-248 312,-248 318,-254 318,-260 318,-260 318,-278 318,-278 318,-284 312,-290 306,-290 306,-290 154,-290 154,-290 148,-290 142,-284 142,-278 142,-278 142,-260 142,-260 142,-254 148,-248 154,-248"/>
</g>
<g id="clust22" class="cluster">
<title>outer_cluster_Inst&#45;0</title>
</g>
<g id="clust23" class="cluster">
<title>cluster_Inst&#45;0</title>
<path fill="#bebada" stroke="black" stroke-dasharray="5,2" d="M419,-169C419,-169 459,-169 459,-169 465,-169 471,-175 471,-181 471,-181 471,-199 471,-199 471,-205 465,-211 459,-211 459,-211 419,-211 419,-211 413,-211 407,-205 407,-199 407,-199 407,-181 407,-181 407,-175 413,-169 419,-169"/>
</g>
<g id="clust25" class="cluster">
<title>outer_cluster_Inst&#45;6</title>
</g>
<g id="clust26" class="cluster">
<title>cluster_Inst&#45;6</title>
<path fill="#bebada" stroke="black" stroke-dasharray="5,2" d="M66,-248C66,-248 102,-248 102,-248 108,-248 114,-254 114,-260 114,-260 114,-278 114,-278 114,-284 108,-290 102,-290 102,-290 66,-290 66,-290 60,-290 54,-284 54,-278 54,-278 54,-260 54,-260 54,-254 60,-248 66,-248"/>
</g>
<g id="clust28" class="cluster">
<title>outer_cluster_String&#45;1</title>
</g>
<g id="clust29" class="cluster">
<title>cluster_String&#45;1</title>
<path fill="#fb8072" stroke="black" stroke-dasharray="5,2" d="M152,-90C152,-90 190,-90 190,-90 196,-90 202,-96 202,-102 202,-102 202,-120 202,-120 202,-126 196,-132 190,-132 190,-132 152,-132 152,-132 146,-132 140,-126 140,-120 140,-120 140,-102 140,-102 140,-96 146,-90 152,-90"/>
</g>
<g id="clust31" class="cluster">
<title>outer_cluster_String&#45;0</title>
</g>
<g id="clust32" class="cluster">
<title>cluster_String&#45;0</title>
<path fill="#fb8072" stroke="black" stroke-dasharray="5,2" d="M420,-90C420,-90 460,-90 460,-90 466,-90 472,-96 472,-102 472,-102 472,-120 472,-120 472,-126 466,-132 460,-132 460,-132 420,-132 420,-132 414,-132 408,-126 408,-120 408,-120 408,-102 408,-102 408,-96 414,-90 420,-90"/>
</g>
<g id="clust34" class="cluster">
<title>outer_cluster_i64&#45;0</title>
</g>
<g id="clust35" class="cluster">
<title>cluster_i64&#45;0</title>
<path fill="#80b1d3" stroke="black" stroke-dasharray="5,2" d="M27,-90C27,-90 63,-90 63,-90 69,-90 75,-96 75,-102 75,-102 75,-120 75,-120 75,-126 69,-132 63,-132 63,-132 27,-132 27,-132 21,-132 15,-126 15,-120 15,-120 15,-102 15,-102 15,-96 21,-90 27,-90"/>
</g>
<g id="clust37" class="cluster">
<title>outer_cluster_i64&#45;4</title>
</g>
<g id="clust38" class="cluster">
<title>cluster_i64&#45;4</title>
<path fill="#80b1d3" stroke="black" stroke-dasharray="5,2" d="M284,-11C284,-11 320,-11 320,-11 326,-11 332,-17 332,-23 332,-23 332,-41 332,-41 332,-47 326,-53 320,-53 320,-53 284,-53 284,-53 278,-53 272,-47 272,-41 272,-41 272,-23 272,-23 272,-17 278,-11 284,-11"/>
</g>
<!-- function&#45;0&#45;ImmVal&#45;&gt;primitive&#45;i64&#45;0 -->
<g id="edge1" class="edge">
<title>function&#45;0&#45;ImmVal:s&#45;&gt;primitive&#45;i64&#45;0</title>
<path fill="none" stroke="black" d="M45,-174C45,-160.84 45,-146.11 45,-134.3"/>
<polygon fill="black" stroke="black" points="46.75,-137 45,-132 43.25,-137 46.75,-137"/>
</g>
<!-- function&#45;1&#45;ImmVal&#45;&gt;primitive&#45;i64&#45;4 -->
<g id="edge2" class="edge">
<title>function&#45;1&#45;ImmVal:s&#45;&gt;primitive&#45;i64&#45;4</title>
<path fill="none" stroke="black" d="M302,-95C302,-81.84 302,-67.11 302,-55.3"/>
<polygon fill="black" stroke="black" points="303.75,-58 302,-53 300.25,-58 303.75,-58"/>
</g>
<!-- function&#45;1&#45;RegVal&#45;&gt;primitive&#45;String&#45;1 -->
<g id="edge3" class="edge">
<title>function&#45;1&#45;RegVal:s&#45;&gt;primitive&#45;String&#45;1</title>
<path fill="none" stroke="black" d="M171,-174C171,-160.84 171,-146.11 171,-134.3"/>
<polygon fill="black" stroke="black" points="172.75,-137 171,-132 169.25,-137 172.75,-137"/>
</g>
<!-- function&#45;1&#45;Jal&#45;&gt;function&#45;1&#45;ImmVal -->
<g id="edge4" class="edge">
<title>function&#45;1&#45;Jal:s&#45;&gt;function&#45;1&#45;ImmVal</title>
<path fill="none" stroke="black" d="M302,-174C302,-160.84 302,-146.11 302,-134.3"/>
<polygon fill="black" stroke="black" points="303.75,-137 302,-132 300.25,-137 303.75,-137"/>
</g>
<!-- function&#45;0&#45;Beq&#45;&gt;function&#45;0&#45;ImmVal -->
<g id="edge7" class="edge">
<title>function&#45;0&#45;Beq:s&#45;&gt;function&#45;0&#45;ImmVal</title>
<path fill="none" stroke="black" d="M146,-332C146,-282.63 70.12,-333.57 42,-293 25.77,-269.58 31.12,-235.33 37.34,-213.1"/>
<polygon fill="black" stroke="black" points="37.4,-216.12 38.75,-211 34.5,-214.16 37.4,-216.12"/>
</g>
<!-- function&#45;0&#45;Beq&#45;&gt;function&#45;1&#45;RegVal -->
<g id="edge5" class="edge">
<title>function&#45;0&#45;Beq:s&#45;&gt;function&#45;1&#45;RegVal</title>
<path fill="none" stroke="black" d="M123,-332C123,-293.03 120.38,-281.52 134,-245 138.3,-233.46 145.49,-221.94 152.32,-212.52"/>
<polygon fill="black" stroke="black" points="151.39,-215.35 154.42,-211 149.34,-212.51 151.39,-215.35"/>
</g>
<!-- function&#45;0&#45;Beq&#45;&gt;function&#45;0&#45;RegVal -->
<g id="edge6" class="edge">
<title>function&#45;0&#45;Beq:s&#45;&gt;function&#45;0&#45;RegVal</title>
<path fill="none" stroke="black" d="M137,-332C137,-250.65 446.17,-353.09 501,-293 515.38,-277.24 509.84,-264.42 501,-245 494.79,-231.35 483.22,-219.8 471.75,-210.94"/>
<polygon fill="black" stroke="black" points="475.21,-213 471,-209.79 472.29,-214.93 475.21,-213"/>
</g>
<!-- function&#45;0&#45;RegVal&#45;&gt;primitive&#45;String&#45;0 -->
<g id="edge29" class="edge">
<title>function&#45;0&#45;RegVal:s&#45;&gt;primitive&#45;String&#45;0</title>
<path fill="none" stroke="black" d="M440,-174C440,-160.84 440,-146.11 440,-134.3"/>
<polygon fill="black" stroke="black" points="441.75,-137 440,-132 438.25,-137 441.75,-137"/>
</g>
<!-- function&#45;1&#45;Beq&#45;&gt;function&#45;0&#45;ImmVal -->
<g id="edge10" class="edge">
<title>function&#45;1&#45;Beq:s&#45;&gt;function&#45;0&#45;ImmVal</title>
<path fill="none" stroke="black" d="M204,-332C204,-262.69 97.56,-346.1 53,-293 43.21,-281.33 42.95,-239.49 43.84,-213.16"/>
<polygon fill="black" stroke="black" points="45.33,-216.14 44.03,-211 41.85,-215.83 45.33,-216.14"/>
</g>
<!-- function&#45;1&#45;Beq&#45;&gt;function&#45;1&#45;RegVal -->
<g id="edge9" class="edge">
<title>function&#45;1&#45;Beq:s&#45;&gt;function&#45;1&#45;RegVal</title>
<path fill="none" stroke="black" d="M195,-332C195,-302.4 154.48,-319.36 141,-293 127.7,-266.98 142.04,-234.02 154.85,-212.73"/>
<polygon fill="black" stroke="black" points="154.29,-215.79 156.56,-211 151.8,-213.33 154.29,-215.79"/>
</g>
<!-- function&#45;1&#45;Beq&#45;&gt;function&#45;0&#45;RegVal -->
<g id="edge8" class="edge">
<title>function&#45;1&#45;Beq:s&#45;&gt;function&#45;0&#45;RegVal</title>
<path fill="none" stroke="black" d="M181,-332C181,-257.94 462.79,-348.35 512,-293 526.17,-277.06 521.6,-264.05 512,-245 503.58,-228.29 487.26,-215.46 472.19,-206.51"/>
<polygon fill="black" stroke="black" points="475.35,-207.89 471,-204.86 472.51,-209.94 475.35,-207.89"/>
</g>
<!-- function&#45;0&#45;Seq2&#45;&gt;function&#45;0&#45;Bne -->
<g id="edge11" class="edge">
<title>function&#45;0&#45;Seq2:s&#45;&gt;function&#45;0&#45;Bne</title>
<path fill="none" stroke="black" d="M63,-332C63,-323.05 107.96,-300.02 140.13,-284.69"/>
<polygon fill="black" stroke="black" points="138.74,-287.67 142,-283.49 136.85,-284.72 138.74,-287.67"/>
</g>
<!-- function&#45;0&#45;Seq2&#45;&gt;function&#45;0&#45;Jal -->
<g id="edge12" class="edge">
<title>function&#45;0&#45;Seq2:s&#45;&gt;function&#45;0&#45;Jal</title>
<path fill="none" stroke="black" d="M85,-332C85,-318.84 84.77,-304.1 84.53,-292.3"/>
<polygon fill="black" stroke="black" points="86.41,-294.91 84.42,-290 82.91,-295.08 86.41,-294.91"/>
</g>
<!-- function&#45;0&#45;Bne&#45;&gt;function&#45;1&#45;ImmVal -->
<g id="edge23" class="edge">
<title>function&#45;0&#45;Bne:s&#45;&gt;function&#45;1&#45;ImmVal</title>
<path fill="none" stroke="black" d="M186,-253C186,-223.99 245.31,-164.37 279.11,-132.75"/>
<polygon fill="black" stroke="black" points="277.18,-136.42 280.1,-132 275.06,-133.63 277.18,-136.42"/>
</g>
<!-- function&#45;0&#45;Bne&#45;&gt;function&#45;1&#45;RegVal -->
<g id="edge21" class="edge">
<title>function&#45;0&#45;Bne:s&#45;&gt;function&#45;1&#45;RegVal</title>
<path fill="none" stroke="black" d="M163,-253C163,-239.76 164.6,-225.02 166.27,-213.24"/>
<polygon fill="black" stroke="black" points="167.07,-216.3 167.03,-211 163.76,-215.16 167.07,-216.3"/>
</g>
<!-- function&#45;0&#45;Bne&#45;&gt;function&#45;0&#45;RegVal -->
<g id="edge22" class="edge">
<title>function&#45;0&#45;Bne:s&#45;&gt;function&#45;0&#45;RegVal</title>
<path fill="none" stroke="black" d="M177,-253C177,-240.91 191.32,-248.13 203,-245 241.03,-234.81 349.79,-210.62 405.39,-198.37"/>
<polygon fill="black" stroke="black" points="403.81,-201.53 407,-197.29 401.87,-198.62 403.81,-201.53"/>
</g>
<!-- function&#45;0&#45;Jal&#45;&gt;function&#45;0&#45;ImmVal -->
<g id="edge30" class="edge">
<title>function&#45;0&#45;Jal:s&#45;&gt;function&#45;0&#45;ImmVal</title>
<path fill="none" stroke="black" d="M84,-253C84,-237.82 75.52,-223.32 66.48,-212.17"/>
<polygon fill="black" stroke="black" points="70.05,-212.95 65.13,-211 67.76,-215.6 70.05,-212.95"/>
</g>
<!-- function&#45;2&#45;Beq&#45;&gt;function&#45;1&#45;ImmVal -->
<g id="edge15" class="edge">
<title>function&#45;2&#45;Beq:s&#45;&gt;function&#45;1&#45;ImmVal</title>
<path fill="none" stroke="black" d="M426,-253C426,-228.49 403.53,-232.1 387,-214 362.23,-186.87 335.35,-153.99 318.6,-133.03"/>
<polygon fill="black" stroke="black" points="322.33,-133.9 317.39,-132 320.06,-136.57 322.33,-133.9"/>
</g>
<!-- function&#45;2&#45;Beq&#45;&gt;function&#45;1&#45;RegVal -->
<g id="edge13" class="edge">
<title>function&#45;2&#45;Beq:s&#45;&gt;function&#45;1&#45;RegVal</title>
<path fill="none" stroke="black" d="M403,-253C403,-247.9 267.92,-214.62 203.46,-199.03"/>
<polygon fill="black" stroke="black" points="206.99,-199.64 202,-197.85 204.79,-202.36 206.99,-199.64"/>
</g>
<!-- function&#45;2&#45;Beq&#45;&gt;function&#45;0&#45;RegVal -->
<g id="edge14" class="edge">
<title>function&#45;2&#45;Beq:s&#45;&gt;function&#45;0&#45;RegVal</title>
<path fill="none" stroke="black" d="M417,-253C417,-239.11 421.97,-224.42 427.18,-212.83"/>
<polygon fill="black" stroke="black" points="427.07,-216.12 428.41,-211 424.17,-214.17 427.07,-216.12"/>
</g>
<!-- function&#45;3&#45;Beq&#45;&gt;function&#45;1&#45;ImmVal -->
<g id="edge18" class="edge">
<title>function&#45;3&#45;Beq:s&#45;&gt;function&#45;1&#45;ImmVal</title>
<path fill="none" stroke="black" d="M484,-253C484,-214.24 435.76,-238.83 406,-214 385.53,-196.91 388.59,-185.11 370,-166 358.1,-153.77 343.43,-141.79 330.76,-132.24"/>
<polygon fill="black" stroke="black" points="334.8,-131.27 329.55,-132 334.11,-134.7 334.8,-131.27"/>
</g>
<!-- function&#45;3&#45;Beq&#45;&gt;function&#45;1&#45;RegVal -->
<g id="edge17" class="edge">
<title>function&#45;3&#45;Beq:s&#45;&gt;function&#45;1&#45;RegVal</title>
<path fill="none" stroke="black" d="M475,-253C475,-236.61 455.06,-248.27 439,-245 364.59,-229.87 345.37,-229.32 271,-214 248.53,-209.37 223.36,-203.64 203.78,-199.06"/>
<polygon fill="black" stroke="black" points="207.12,-199.21 202,-197.86 205.16,-202.11 207.12,-199.21"/>
</g>
<!-- function&#45;3&#45;Beq&#45;&gt;function&#45;0&#45;RegVal -->
<g id="edge16" class="edge">
<title>function&#45;3&#45;Beq:s&#45;&gt;function&#45;0&#45;RegVal</title>
<path fill="none" stroke="black" d="M461,-253C461,-239.11 456.03,-224.42 450.82,-212.83"/>
<polygon fill="black" stroke="black" points="453.83,-214.17 449.59,-211 450.93,-216.12 453.83,-214.17"/>
</g>
<!-- function&#45;2&#45;Seq2&#45;&gt;function&#45;1&#45;Jal -->
<g id="edge20" class="edge">
<title>function&#45;2&#45;Seq2:s&#45;&gt;function&#45;1&#45;Jal</title>
<path fill="none" stroke="black" d="M365,-253C365,-233.36 349.26,-217.87 333.51,-207.28"/>
<polygon fill="black" stroke="black" points="336.51,-208.19 332,-205.42 333.8,-210.4 336.51,-208.19"/>
</g>
<!-- function&#45;2&#45;Seq2&#45;&gt;function&#45;1&#45;Seq2 -->
<g id="edge19" class="edge">
<title>function&#45;2&#45;Seq2:s&#45;&gt;function&#45;1&#45;Seq2</title>
<path fill="none" stroke="black" d="M343,-253C343,-241.59 331.78,-243.91 319.57,-249.8"/>
<polygon fill="black" stroke="black" points="320.71,-246.57 318,-251.12 322.96,-249.26 320.71,-246.57"/>
</g>
<!-- function&#45;1&#45;Seq2&#45;&gt;function&#45;1&#45;Jal -->
<g id="edge28" class="edge">
<title>function&#45;1&#45;Seq2:s&#45;&gt;function&#45;1&#45;Jal</title>
<path fill="none" stroke="black" d="M299,-253C299,-239.82 299.68,-225.09 300.4,-213.29"/>
<polygon fill="black" stroke="black" points="301.75,-216.2 300.73,-211 298.29,-215.7 301.75,-216.2"/>
</g>
<!-- function&#45;1&#45;Seq2&#45;&gt;function&#45;2&#45;Beq -->
<g id="edge27" class="edge">
<title>function&#45;1&#45;Seq2:s&#45;&gt;function&#45;2&#45;Beq</title>
<path fill="none" stroke="black" d="M277,-253C277,-205.81 336.96,-202.06 379,-223.5 388.53,-228.36 395.96,-237.41 401.33,-246.17"/>
<polygon fill="black" stroke="black" points="398.37,-245.62 403.1,-248 400.88,-243.19 398.37,-245.62"/>
</g>
<!-- function&#45;1&#45;Bne&#45;&gt;function&#45;1&#45;ImmVal -->
<g id="edge26" class="edge">
<title>function&#45;1&#45;Bne:s&#45;&gt;function&#45;1&#45;ImmVal</title>
<path fill="none" stroke="black" d="M244,-253C244,-207.96 269.62,-160.5 286.81,-133.74"/>
<polygon fill="black" stroke="black" points="286.2,-136.67 288.7,-132 283.83,-134.09 286.2,-136.67"/>
</g>
<!-- function&#45;1&#45;Bne&#45;&gt;function&#45;1&#45;RegVal -->
<g id="edge25" class="edge">
<title>function&#45;1&#45;Bne:s&#45;&gt;function&#45;1&#45;RegVal</title>
<path fill="none" stroke="black" d="M235,-253C235,-233.33 219.22,-217.99 203.21,-207.49"/>
<polygon fill="black" stroke="black" points="207.11,-208.05 202,-206.66 205.12,-210.94 207.11,-208.05"/>
</g>
<!-- function&#45;1&#45;Bne&#45;&gt;function&#45;0&#45;RegVal -->
<g id="edge24" class="edge">
<title>function&#45;1&#45;Bne:s&#45;&gt;function&#45;0&#45;RegVal</title>
<path fill="none" stroke="black" d="M221,-253C221,-243.55 343.75,-213.37 405.03,-198.89"/>
<polygon fill="black" stroke="black" points="403.62,-201.79 407,-197.71 401.81,-198.79 403.62,-201.79"/>
</g>
<!-- function&#45;0&#45;ImmVal -->
<g id="node1" class="node">
<title>function&#45;0&#45;ImmVal</title>
<g id="a_node1"><a xlink:title="Imm&#45;2: function&#45;0&#45;ImmVal">
<path fill="white" stroke="transparent" d="M24.67,-174C24.67,-174 65.33,-174 65.33,-174 70.67,-174 76,-179.33 76,-184.67 76,-184.67 76,-195.33 76,-195.33 76,-200.67 70.67,-206 65.33,-206 65.33,-206 24.67,-206 24.67,-206 19.33,-206 14,-200.67 14,-195.33 14,-195.33 14,-184.67 14,-184.67 14,-179.33 19.33,-174 24.67,-174"/>
<text text-anchor="start" x="19" y="-186.3" font-family="Helvetica,sans-Serif" font-size="14.00">ImmVal</text>
<path fill="none" stroke="black" d="M24.67,-174C24.67,-174 65.33,-174 65.33,-174 70.67,-174 76,-179.33 76,-184.67 76,-184.67 76,-195.33 76,-195.33 76,-200.67 70.67,-206 65.33,-206 65.33,-206 24.67,-206 24.67,-206 19.33,-206 14,-200.67 14,-195.33 14,-195.33 14,-184.67 14,-184.67 14,-179.33 19.33,-174 24.67,-174"/>
</a>
</g>
</g>
<!-- primitive&#45;i64&#45;0 -->
<g id="node2" class="node">
<title>primitive&#45;i64&#45;0</title>
<g id="a_node2"><a xlink:title="i64&#45;0: primitive&#45;i64&#45;0">
<path fill="white" stroke="transparent" d="M39.67,-95C39.67,-95 50.33,-95 50.33,-95 55.67,-95 61,-100.33 61,-105.67 61,-105.67 61,-116.33 61,-116.33 61,-121.67 55.67,-127 50.33,-127 50.33,-127 39.67,-127 39.67,-127 34.33,-127 29,-121.67 29,-116.33 29,-116.33 29,-105.67 29,-105.67 29,-100.33 34.33,-95 39.67,-95"/>
<text text-anchor="start" x="40" y="-107.3" font-family="Helvetica,sans-Serif" font-size="14.00">0</text>
<path fill="none" stroke="black" d="M39.67,-95C39.67,-95 50.33,-95 50.33,-95 55.67,-95 61,-100.33 61,-105.67 61,-105.67 61,-116.33 61,-116.33 61,-121.67 55.67,-127 50.33,-127 50.33,-127 39.67,-127 39.67,-127 34.33,-127 29,-121.67 29,-116.33 29,-116.33 29,-105.67 29,-105.67 29,-100.33 34.33,-95 39.67,-95"/>
</a>
</g>
</g>
<!-- function&#45;1&#45;ImmVal -->
<g id="node3" class="node">
<title>function&#45;1&#45;ImmVal</title>
<g id="a_node3"><a xlink:title="Imm&#45;4: function&#45;1&#45;ImmVal">
<path fill="white" stroke="transparent" d="M281.67,-95C281.67,-95 322.33,-95 322.33,-95 327.67,-95 333,-100.33 333,-105.67 333,-105.67 333,-116.33 333,-116.33 333,-121.67 327.67,-127 322.33,-127 322.33,-127 281.67,-127 281.67,-127 276.33,-127 271,-121.67 271,-116.33 271,-116.33 271,-105.67 271,-105.67 271,-100.33 276.33,-95 281.67,-95"/>
<text text-anchor="start" x="276" y="-107.3" font-family="Helvetica,sans-Serif" font-size="14.00">ImmVal</text>
<path fill="none" stroke="black" d="M281.67,-95C281.67,-95 322.33,-95 322.33,-95 327.67,-95 333,-100.33 333,-105.67 333,-105.67 333,-116.33 333,-116.33 333,-121.67 327.67,-127 322.33,-127 322.33,-127 281.67,-127 281.67,-127 276.33,-127 271,-121.67 271,-116.33 271,-116.33 271,-105.67 271,-105.67 271,-100.33 276.33,-95 281.67,-95"/>
</a>
</g>
</g>
<!-- primitive&#45;i64&#45;4 -->
<g id="node4" class="node">
<title>primitive&#45;i64&#45;4</title>
<g id="a_node4"><a xlink:title="i64&#45;4: primitive&#45;i64&#45;4">
<path fill="white" stroke="transparent" d="M296.67,-16C296.67,-16 307.33,-16 307.33,-16 312.67,-16 318,-21.33 318,-26.67 318,-26.67 318,-37.33 318,-37.33 318,-42.67 312.67,-48 307.33,-48 307.33,-48 296.67,-48 296.67,-48 291.33,-48 286,-42.67 286,-37.33 286,-37.33 286,-26.67 286,-26.67 286,-21.33 291.33,-16 296.67,-16"/>
<text text-anchor="start" x="297" y="-28.3" font-family="Helvetica,sans-Serif" font-size="14.00">4</text>
<path fill="none" stroke="black" d="M296.67,-16C296.67,-16 307.33,-16 307.33,-16 312.67,-16 318,-21.33 318,-26.67 318,-26.67 318,-37.33 318,-37.33 318,-42.67 312.67,-48 307.33,-48 307.33,-48 296.67,-48 296.67,-48 291.33,-48 286,-42.67 286,-37.33 286,-37.33 286,-26.67 286,-26.67 286,-21.33 291.33,-16 296.67,-16"/>
</a>
</g>
</g>
<!-- function&#45;1&#45;RegVal -->
<g id="node5" class="node">
<title>function&#45;1&#45;RegVal</title>
<g id="a_node5"><a xlink:title="Inst&#45;1: function&#45;1&#45;RegVal">
<path fill="white" stroke="transparent" d="M152.17,-174C152.17,-174 187.83,-174 187.83,-174 193.17,-174 198.5,-179.33 198.5,-184.67 198.5,-184.67 198.5,-195.33 198.5,-195.33 198.5,-200.67 193.17,-206 187.83,-206 187.83,-206 152.17,-206 152.17,-206 146.83,-206 141.5,-200.67 141.5,-195.33 141.5,-195.33 141.5,-184.67 141.5,-184.67 141.5,-179.33 146.83,-174 152.17,-174"/>
<text text-anchor="start" x="147" y="-186.3" font-family="Helvetica,sans-Serif" font-size="14.00">RegVal</text>
<path fill="none" stroke="black" d="M152.17,-174C152.17,-174 187.83,-174 187.83,-174 193.17,-174 198.5,-179.33 198.5,-184.67 198.5,-184.67 198.5,-195.33 198.5,-195.33 198.5,-200.67 193.17,-206 187.83,-206 187.83,-206 152.17,-206 152.17,-206 146.83,-206 141.5,-200.67 141.5,-195.33 141.5,-195.33 141.5,-184.67 141.5,-184.67 141.5,-179.33 146.83,-174 152.17,-174"/>
</a>
</g>
</g>
<!-- primitive&#45;String&#45;1 -->
<g id="node6" class="node">
<title>primitive&#45;String&#45;1</title>
<g id="a_node6"><a xlink:title="String&#45;1: primitive&#45;String&#45;1">
<path fill="white" stroke="transparent" d="M153.67,-95C153.67,-95 188.33,-95 188.33,-95 193.67,-95 199,-100.33 199,-105.67 199,-105.67 199,-116.33 199,-116.33 199,-121.67 193.67,-127 188.33,-127 188.33,-127 153.67,-127 153.67,-127 148.33,-127 143,-121.67 143,-116.33 143,-116.33 143,-105.67 143,-105.67 143,-100.33 148.33,-95 153.67,-95"/>
<text text-anchor="start" x="148" y="-107.3" font-family="Helvetica,sans-Serif" font-size="14.00">&quot;s0_0&quot;</text>
<path fill="none" stroke="black" d="M153.67,-95C153.67,-95 188.33,-95 188.33,-95 193.67,-95 199,-100.33 199,-105.67 199,-105.67 199,-116.33 199,-116.33 199,-121.67 193.67,-127 188.33,-127 188.33,-127 153.67,-127 153.67,-127 148.33,-127 143,-121.67 143,-116.33 143,-116.33 143,-105.67 143,-105.67 143,-100.33 148.33,-95 153.67,-95"/>
</a>
</g>
</g>
<!-- function&#45;1&#45;Jal -->
<g id="node7" class="node">
<title>function&#45;1&#45;Jal</title>
<g id="a_node7"><a xlink:title="Inst&#45;9: function&#45;1&#45;Jal">
<path fill="white" stroke="transparent" d="M296.67,-174C296.67,-174 307.33,-174 307.33,-174 312.67,-174 318,-179.33 318,-184.67 318,-184.67 318,-195.33 318,-195.33 318,-200.67 312.67,-206 307.33,-206 307.33,-206 296.67,-206 296.67,-206 291.33,-206 286,-200.67 286,-195.33 286,-195.33 286,-184.67 286,-184.67 286,-179.33 291.33,-174 296.67,-174"/>
<text text-anchor="start" x="293.5" y="-186.3" font-family="Helvetica,sans-Serif" font-size="14.00">Jal</text>
<path fill="none" stroke="black" d="M296.67,-174C296.67,-174 307.33,-174 307.33,-174 312.67,-174 318,-179.33 318,-184.67 318,-184.67 318,-195.33 318,-195.33 318,-200.67 312.67,-206 307.33,-206 307.33,-206 296.67,-206 296.67,-206 291.33,-206 286,-200.67 286,-195.33 286,-195.33 286,-184.67 286,-184.67 286,-179.33 291.33,-174 296.67,-174"/>
</a>
</g>
</g>
<!-- function&#45;0&#45;Beq -->
<g id="node8" class="node">
<title>function&#45;0&#45;Beq</title>
<g id="a_node8"><a xlink:title="Inst&#45;3: function&#45;0&#45;Beq">
<path fill="white" stroke="transparent" d="M123.67,-332C123.67,-332 140.33,-332 140.33,-332 145.67,-332 151,-337.33 151,-342.67 151,-342.67 151,-353.33 151,-353.33 151,-358.67 145.67,-364 140.33,-364 140.33,-364 123.67,-364 123.67,-364 118.33,-364 113,-358.67 113,-353.33 113,-353.33 113,-342.67 113,-342.67 113,-337.33 118.33,-332 123.67,-332"/>
<text text-anchor="start" x="118" y="-344.3" font-family="Helvetica,sans-Serif" font-size="14.00">Beq</text>
<path fill="none" stroke="black" d="M123.67,-332C123.67,-332 140.33,-332 140.33,-332 145.67,-332 151,-337.33 151,-342.67 151,-342.67 151,-353.33 151,-353.33 151,-358.67 145.67,-364 140.33,-364 140.33,-364 123.67,-364 123.67,-364 118.33,-364 113,-358.67 113,-353.33 113,-353.33 113,-342.67 113,-342.67 113,-337.33 118.33,-332 123.67,-332"/>
</a>
</g>
</g>
<!-- function&#45;0&#45;RegVal -->
<g id="node9" class="node">
<title>function&#45;0&#45;RegVal</title>
<g id="a_node9"><a xlink:title="Inst&#45;0: function&#45;0&#45;RegVal">
<path fill="white" stroke="transparent" d="M421.17,-174C421.17,-174 456.83,-174 456.83,-174 462.17,-174 467.5,-179.33 467.5,-184.67 467.5,-184.67 467.5,-195.33 467.5,-195.33 467.5,-200.67 462.17,-206 456.83,-206 456.83,-206 421.17,-206 421.17,-206 415.83,-206 410.5,-200.67 410.5,-195.33 410.5,-195.33 410.5,-184.67 410.5,-184.67 410.5,-179.33 415.83,-174 421.17,-174"/>
<text text-anchor="start" x="416" y="-186.3" font-family="Helvetica,sans-Serif" font-size="14.00">RegVal</text>
<path fill="none" stroke="black" d="M421.17,-174C421.17,-174 456.83,-174 456.83,-174 462.17,-174 467.5,-179.33 467.5,-184.67 467.5,-184.67 467.5,-195.33 467.5,-195.33 467.5,-200.67 462.17,-206 456.83,-206 456.83,-206 421.17,-206 421.17,-206 415.83,-206 410.5,-200.67 410.5,-195.33 410.5,-195.33 410.5,-184.67 410.5,-184.67 410.5,-179.33 415.83,-174 421.17,-174"/>
</a>
</g>
</g>
<!-- function&#45;1&#45;Beq -->
<g id="node10" class="node">
<title>function&#45;1&#45;Beq</title>
<g id="a_node10"><a xlink:title="Inst&#45;3: function&#45;1&#45;Beq">
<path fill="white" stroke="transparent" d="M181.67,-332C181.67,-332 198.33,-332 198.33,-332 203.67,-332 209,-337.33 209,-342.67 209,-342.67 209,-353.33 209,-353.33 209,-358.67 203.67,-364 198.33,-364 198.33,-364 181.67,-364 181.67,-364 176.33,-364 171,-358.67 171,-353.33 171,-353.33 171,-342.67 171,-342.67 171,-337.33 176.33,-332 181.67,-332"/>
<text text-anchor="start" x="176" y="-344.3" font-family="Helvetica,sans-Serif" font-size="14.00">Beq</text>
<path fill="none" stroke="black" d="M181.67,-332C181.67,-332 198.33,-332 198.33,-332 203.67,-332 209,-337.33 209,-342.67 209,-342.67 209,-353.33 209,-353.33 209,-358.67 203.67,-364 198.33,-364 198.33,-364 181.67,-364 181.67,-364 176.33,-364 171,-358.67 171,-353.33 171,-353.33 171,-342.67 171,-342.67 171,-337.33 176.33,-332 181.67,-332"/>
</a>
</g>
</g>
<!-- function&#45;0&#45;Seq2 -->
<g id="node11" class="node">
<title>function&#45;0&#45;Seq2</title>
<g id="a_node11"><a xlink:title="Inst&#45;3: function&#45;0&#45;Seq2">
<path fill="white" stroke="transparent" d="M61.67,-332C61.67,-332 86.33,-332 86.33,-332 91.67,-332 97,-337.33 97,-342.67 97,-342.67 97,-353.33 97,-353.33 97,-358.67 91.67,-364 86.33,-364 86.33,-364 61.67,-364 61.67,-364 56.33,-364 51,-358.67 51,-353.33 51,-353.33 51,-342.67 51,-342.67 51,-337.33 56.33,-332 61.67,-332"/>
<text text-anchor="start" x="56" y="-344.3" font-family="Helvetica,sans-Serif" font-size="14.00">Seq2</text>
<path fill="none" stroke="black" d="M61.67,-332C61.67,-332 86.33,-332 86.33,-332 91.67,-332 97,-337.33 97,-342.67 97,-342.67 97,-353.33 97,-353.33 97,-358.67 91.67,-364 86.33,-364 86.33,-364 61.67,-364 61.67,-364 56.33,-364 51,-358.67 51,-353.33 51,-353.33 51,-342.67 51,-342.67 51,-337.33 56.33,-332 61.67,-332"/>
</a>
</g>
</g>
<!-- function&#45;0&#45;Bne -->
<g id="node12" class="node">
<title>function&#45;0&#45;Bne</title>
<g id="a_node12"><a xlink:title="Inst&#45;5: function&#45;0&#45;Bne">
<path fill="white" stroke="transparent" d="M163.67,-253C163.67,-253 180.33,-253 180.33,-253 185.67,-253 191,-258.33 191,-263.67 191,-263.67 191,-274.33 191,-274.33 191,-279.67 185.67,-285 180.33,-285 180.33,-285 163.67,-285 163.67,-285 158.33,-285 153,-279.67 153,-274.33 153,-274.33 153,-263.67 153,-263.67 153,-258.33 158.33,-253 163.67,-253"/>
<text text-anchor="start" x="158" y="-265.3" font-family="Helvetica,sans-Serif" font-size="14.00">Bne</text>
<path fill="none" stroke="black" d="M163.67,-253C163.67,-253 180.33,-253 180.33,-253 185.67,-253 191,-258.33 191,-263.67 191,-263.67 191,-274.33 191,-274.33 191,-279.67 185.67,-285 180.33,-285 180.33,-285 163.67,-285 163.67,-285 158.33,-285 153,-279.67 153,-274.33 153,-274.33 153,-263.67 153,-263.67 153,-258.33 158.33,-253 163.67,-253"/>
</a>
</g>
</g>
<!-- function&#45;0&#45;Jal -->
<g id="node13" class="node">
<title>function&#45;0&#45;Jal</title>
<g id="a_node13"><a xlink:title="Inst&#45;6: function&#45;0&#45;Jal">
<path fill="white" stroke="transparent" d="M78.67,-253C78.67,-253 89.33,-253 89.33,-253 94.67,-253 100,-258.33 100,-263.67 100,-263.67 100,-274.33 100,-274.33 100,-279.67 94.67,-285 89.33,-285 89.33,-285 78.67,-285 78.67,-285 73.33,-285 68,-279.67 68,-274.33 68,-274.33 68,-263.67 68,-263.67 68,-258.33 73.33,-253 78.67,-253"/>
<text text-anchor="start" x="75.5" y="-265.3" font-family="Helvetica,sans-Serif" font-size="14.00">Jal</text>
<path fill="none" stroke="black" d="M78.67,-253C78.67,-253 89.33,-253 89.33,-253 94.67,-253 100,-258.33 100,-263.67 100,-263.67 100,-274.33 100,-274.33 100,-279.67 94.67,-285 89.33,-285 89.33,-285 78.67,-285 78.67,-285 73.33,-285 68,-279.67 68,-274.33 68,-274.33 68,-263.67 68,-263.67 68,-258.33 73.33,-253 78.67,-253"/>
</a>
</g>
</g>
<!-- function&#45;2&#45;Beq -->
<g id="node14" class="node">
<title>function&#45;2&#45;Beq</title>
<g id="a_node14"><a xlink:title="Inst&#45;8: function&#45;2&#45;Beq">
<path fill="white" stroke="transparent" d="M403.67,-253C403.67,-253 420.33,-253 420.33,-253 425.67,-253 431,-258.33 431,-263.67 431,-263.67 431,-274.33 431,-274.33 431,-279.67 425.67,-285 420.33,-285 420.33,-285 403.67,-285 403.67,-285 398.33,-285 393,-279.67 393,-274.33 393,-274.33 393,-263.67 393,-263.67 393,-258.33 398.33,-253 403.67,-253"/>
<text text-anchor="start" x="398" y="-265.3" font-family="Helvetica,sans-Serif" font-size="14.00">Beq</text>
<path fill="none" stroke="black" d="M403.67,-253C403.67,-253 420.33,-253 420.33,-253 425.67,-253 431,-258.33 431,-263.67 431,-263.67 431,-274.33 431,-274.33 431,-279.67 425.67,-285 420.33,-285 420.33,-285 403.67,-285 403.67,-285 398.33,-285 393,-279.67 393,-274.33 393,-274.33 393,-263.67 393,-263.67 393,-258.33 398.33,-253 403.67,-253"/>
</a>
</g>
</g>
<!-- function&#45;3&#45;Beq -->
<g id="node15" class="node">
<title>function&#45;3&#45;Beq</title>
<g id="a_node15"><a xlink:title="Inst&#45;8: function&#45;3&#45;Beq">
<path fill="white" stroke="transparent" d="M461.67,-253C461.67,-253 478.33,-253 478.33,-253 483.67,-253 489,-258.33 489,-263.67 489,-263.67 489,-274.33 489,-274.33 489,-279.67 483.67,-285 478.33,-285 478.33,-285 461.67,-285 461.67,-285 456.33,-285 451,-279.67 451,-274.33 451,-274.33 451,-263.67 451,-263.67 451,-258.33 456.33,-253 461.67,-253"/>
<text text-anchor="start" x="456" y="-265.3" font-family="Helvetica,sans-Serif" font-size="14.00">Beq</text>
<path fill="none" stroke="black" d="M461.67,-253C461.67,-253 478.33,-253 478.33,-253 483.67,-253 489,-258.33 489,-263.67 489,-263.67 489,-274.33 489,-274.33 489,-279.67 483.67,-285 478.33,-285 478.33,-285 461.67,-285 461.67,-285 456.33,-285 451,-279.67 451,-274.33 451,-274.33 451,-263.67 451,-263.67 451,-258.33 456.33,-253 461.67,-253"/>
</a>
</g>
</g>
<!-- function&#45;2&#45;Seq2 -->
<g id="node16" class="node">
<title>function&#45;2&#45;Seq2</title>
<g id="a_node16"><a xlink:title="Inst&#45;8: function&#45;2&#45;Seq2">
<path fill="white" stroke="transparent" d="M341.67,-253C341.67,-253 366.33,-253 366.33,-253 371.67,-253 377,-258.33 377,-263.67 377,-263.67 377,-274.33 377,-274.33 377,-279.67 371.67,-285 366.33,-285 366.33,-285 341.67,-285 341.67,-285 336.33,-285 331,-279.67 331,-274.33 331,-274.33 331,-263.67 331,-263.67 331,-258.33 336.33,-253 341.67,-253"/>
<text text-anchor="start" x="336" y="-265.3" font-family="Helvetica,sans-Serif" font-size="14.00">Seq2</text>
<path fill="none" stroke="black" d="M341.67,-253C341.67,-253 366.33,-253 366.33,-253 371.67,-253 377,-258.33 377,-263.67 377,-263.67 377,-274.33 377,-274.33 377,-279.67 371.67,-285 366.33,-285 366.33,-285 341.67,-285 341.67,-285 336.33,-285 331,-279.67 331,-274.33 331,-274.33 331,-263.67 331,-263.67 331,-258.33 336.33,-253 341.67,-253"/>
</a>
</g>
</g>
<!-- function&#45;1&#45;Seq2 -->
<g id="node17" class="node">
<title>function&#45;1&#45;Seq2</title>
<g id="a_node17"><a xlink:title="Inst&#45;5: function&#45;1&#45;Seq2">
<path fill="white" stroke="transparent" d="M275.67,-253C275.67,-253 300.33,-253 300.33,-253 305.67,-253 311,-258.33 311,-263.67 311,-263.67 311,-274.33 311,-274.33 311,-279.67 305.67,-285 300.33,-285 300.33,-285 275.67,-285 275.67,-285 270.33,-285 265,-279.67 265,-274.33 265,-274.33 265,-263.67 265,-263.67 265,-258.33 270.33,-253 275.67,-253"/>
<text text-anchor="start" x="270" y="-265.3" font-family="Helvetica,sans-Serif" font-size="14.00">Seq2</text>
<path fill="none" stroke="black" d="M275.67,-253C275.67,-253 300.33,-253 300.33,-253 305.67,-253 311,-258.33 311,-263.67 311,-263.67 311,-274.33 311,-274.33 311,-279.67 305.67,-285 300.33,-285 300.33,-285 275.67,-285 275.67,-285 270.33,-285 265,-279.67 265,-274.33 265,-274.33 265,-263.67 265,-263.67 265,-258.33 270.33,-253 275.67,-253"/>
</a>
</g>
</g>
<!-- function&#45;1&#45;Bne -->
<g id="node18" class="node">
<title>function&#45;1&#45;Bne</title>
<g id="a_node18"><a xlink:title="Inst&#45;5: function&#45;1&#45;Bne">
<path fill="white" stroke="transparent" d="M221.67,-253C221.67,-253 238.33,-253 238.33,-253 243.67,-253 249,-258.33 249,-263.67 249,-263.67 249,-274.33 249,-274.33 249,-279.67 243.67,-285 238.33,-285 238.33,-285 221.67,-285 221.67,-285 216.33,-285 211,-279.67 211,-274.33 211,-274.33 211,-263.67 211,-263.67 211,-258.33 216.33,-253 221.67,-253"/>
<text text-anchor="start" x="216" y="-265.3" font-family="Helvetica,sans-Serif" font-size="14.00">Bne</text>
<path fill="none" stroke="black" d="M221.67,-253C221.67,-253 238.33,-253 238.33,-253 243.67,-253 249,-258.33 249,-263.67 249,-263.67 249,-274.33 249,-274.33 249,-279.67 243.67,-285 238.33,-285 238.33,-285 221.67,-285 221.67,-285 216.33,-285 211,-279.67 211,-274.33 211,-274.33 211,-263.67 211,-263.67 211,-258.33 216.33,-253 221.67,-253"/>
</a>
</g>
</g>
<!-- primitive&#45;String&#45;0 -->
<g id="node19" class="node">
<title>primitive&#45;String&#45;0</title>
<g id="a_node19"><a xlink:title="String&#45;0: primitive&#45;String&#45;0">
<path fill="white" stroke="transparent" d="M422.17,-95C422.17,-95 457.83,-95 457.83,-95 463.17,-95 468.5,-100.33 468.5,-105.67 468.5,-105.67 468.5,-116.33 468.5,-116.33 468.5,-121.67 463.17,-127 457.83,-127 457.83,-127 422.17,-127 422.17,-127 416.83,-127 411.5,-121.67 411.5,-116.33 411.5,-116.33 411.5,-105.67 411.5,-105.67 411.5,-100.33 416.83,-95 422.17,-95"/>
<text text-anchor="start" x="417" y="-107.3" font-family="Helvetica,sans-Serif" font-size="14.00">&quot;a1_0&quot;</text>
<path fill="none" stroke="black" d="M422.17,-95C422.17,-95 457.83,-95 457.83,-95 463.17,-95 468.5,-100.33 468.5,-105.67 468.5,-105.67 468.5,-116.33 468.5,-116.33 468.5,-121.67 463.17,-127 457.83,-127 457.83,-127 422.17,-127 422.17,-127 416.83,-127 411.5,-121.67 411.5,-116.33 411.5,-116.33 411.5,-105.67 411.5,-105.67 411.5,-100.33 416.83,-95 422.17,-95"/>
</a>
</g>
</g>
</g>
</svg>
