<?xml version="1.0" encoding="UTF-8" standalone="no"?>
<!DOCTYPE svg PUBLIC "-//W3C//DTD SVG 1.1//EN"
 "http://www.w3.org/Graphics/SVG/1.1/DTD/svg11.dtd">
<!-- Generated by graphviz version 2.43.0 (0)
 -->
<!-- Title: %3 Pages: 1 -->
<svg width="313pt" height="309pt"
 viewBox="0.00 0.00 313.00 309.00" xmlns="http://www.w3.org/2000/svg" xmlns:xlink="http://www.w3.org/1999/xlink">
<g id="graph0" class="graph" transform="scale(1 1) rotate(0) translate(4 305)">
<title>%3</title>
<polygon fill="white" stroke="#000000" points="-4,4 -4,-305 309,-305 309,4 -4,4"/>
<g id="clust1" class="cluster">
<title>outer_cluster_Imm&#45;2</title>
</g>
<g id="clust2" class="cluster">
<title>cluster_Imm&#45;2</title>
<path fill="#ffffb3" stroke="black" stroke-dasharray="5,2" d="M23,-90C23,-90 67,-90 67,-90 73,-90 79,-96 79,-102 79,-102 79,-120 79,-120 79,-126 73,-132 67,-132 67,-132 23,-132 23,-132 17,-132 11,-126 11,-120 11,-120 11,-102 11,-102 11,-96 17,-90 23,-90"/>
</g>
<g id="clust4" class="cluster">
<title>outer_cluster_Imm&#45;5</title>
</g>
<g id="clust5" class="cluster">
<title>cluster_Imm&#45;5</title>
<path fill="#ffffb3" stroke="black" stroke-dasharray="5,2" d="M168,-169C168,-169 212,-169 212,-169 218,-169 224,-175 224,-181 224,-181 224,-199 224,-199 224,-205 218,-211 212,-211 212,-211 168,-211 168,-211 162,-211 156,-205 156,-199 156,-199 156,-181 156,-181 156,-175 162,-169 168,-169"/>
</g>
<g id="clust7" class="cluster">
<title>outer_cluster_Inst&#45;1</title>
</g>
<g id="clust8" class="cluster">
<title>cluster_Inst&#45;1</title>
<path fill="#bebada" stroke="black" stroke-dasharray="5,2" d="M242,-169C242,-169 282,-169 282,-169 288,-169 294,-175 294,-181 294,-181 294,-199 294,-199 294,-205 288,-211 282,-211 282,-211 242,-211 242,-211 236,-211 230,-205 230,-199 230,-199 230,-181 230,-181 230,-175 236,-169 242,-169"/>
</g>
<g id="clust10" class="cluster">
<title>outer_cluster_Inst&#45;3</title>
</g>
<g id="clust11" class="cluster">
<title>cluster_Inst&#45;3</title>
<path fill="#bebada" stroke="black" stroke-dasharray="5,2" d="M28,-169C28,-169 64,-169 64,-169 70,-169 76,-175 76,-181 76,-181 76,-199 76,-199 76,-205 70,-211 64,-211 64,-211 28,-211 28,-211 22,-211 16,-205 16,-199 16,-199 16,-181 16,-181 16,-175 22,-169 28,-169"/>
</g>
<g id="clust13" class="cluster">
<title>outer_cluster_Inst&#45;0</title>
</g>
<g id="clust14" class="cluster">
<title>cluster_Inst&#45;0</title>
<path fill="#bebada" stroke="black" stroke-dasharray="5,2" d="M94,-169C94,-169 134,-169 134,-169 140,-169 146,-175 146,-181 146,-181 146,-199 146,-199 146,-205 140,-211 134,-211 134,-211 94,-211 94,-211 88,-211 82,-205 82,-199 82,-199 82,-181 82,-181 82,-175 88,-169 94,-169"/>
</g>
<g id="clust16" class="cluster">
<title>outer_cluster_Inst&#45;6</title>
</g>
<g id="clust17" class="cluster">
<title>cluster_Inst&#45;6</title>
<path fill="#bebada" stroke="black" stroke-dasharray="5,2" d="M165,-248C165,-248 201,-248 201,-248 207,-248 213,-254 213,-260 213,-260 213,-278 213,-278 213,-284 207,-290 201,-290 201,-290 165,-290 165,-290 159,-290 153,-284 153,-278 153,-278 153,-260 153,-260 153,-254 159,-248 165,-248"/>
</g>
<g id="clust19" class="cluster">
<title>outer_cluster_Inst&#45;4</title>
</g>
<g id="clust20" class="cluster">
<title>cluster_Inst&#45;4</title>
<path fill="#bebada" stroke="black" stroke-dasharray="5,2" d="M41,-248C41,-248 135,-248 135,-248 141,-248 147,-254 147,-260 147,-260 147,-278 147,-278 147,-284 141,-290 135,-290 135,-290 41,-290 41,-290 35,-290 29,-284 29,-278 29,-278 29,-260 29,-260 29,-254 35,-248 41,-248"/>
</g>
<g id="clust22" class="cluster">
<title>outer_cluster_String&#45;1</title>
</g>
<g id="clust23" class="cluster">
<title>cluster_String&#45;1</title>
<path fill="#fb8072" stroke="black" stroke-dasharray="5,2" d="M245,-90C245,-90 281,-90 281,-90 287,-90 293,-96 293,-102 293,-102 293,-120 293,-120 293,-126 287,-132 281,-132 281,-132 245,-132 245,-132 239,-132 233,-126 233,-120 233,-120 233,-102 233,-102 233,-96 239,-90 245,-90"/>
</g>
<g id="clust25" class="cluster">
<title>outer_cluster_String&#45;0</title>
</g>
<g id="clust26" class="cluster">
<title>cluster_String&#45;0</title>
<path fill="#fb8072" stroke="black" stroke-dasharray="5,2" d="M97,-90C97,-90 137,-90 137,-90 143,-90 149,-96 149,-102 149,-102 149,-120 149,-120 149,-126 143,-132 137,-132 137,-132 97,-132 97,-132 91,-132 85,-126 85,-120 85,-120 85,-102 85,-102 85,-96 91,-90 97,-90"/>
</g>
<g id="clust28" class="cluster">
<title>outer_cluster_i64&#45;2048</title>
</g>
<g id="clust29" class="cluster">
<title>cluster_i64&#45;2048</title>
<path fill="#80b1d3" stroke="black" stroke-dasharray="5,2" d="M27,-11C27,-11 63,-11 63,-11 69,-11 75,-17 75,-23 75,-23 75,-41 75,-41 75,-47 69,-53 63,-53 63,-53 27,-53 27,-53 21,-53 15,-47 15,-41 15,-41 15,-23 15,-23 15,-17 21,-11 27,-11"/>
</g>
<g id="clust31" class="cluster">
<title>outer_cluster_i64&#45;0</title>
</g>
<g id="clust32" class="cluster">
<title>cluster_i64&#45;0</title>
<path fill="#80b1d3" stroke="black" stroke-dasharray="5,2" d="M172,-90C172,-90 208,-90 208,-90 214,-90 220,-96 220,-102 220,-102 220,-120 220,-120 220,-126 214,-132 208,-132 208,-132 172,-132 172,-132 166,-132 160,-126 160,-120 160,-120 160,-102 160,-102 160,-96 166,-90 172,-90"/>
</g>
<!-- function&#45;0&#45;ImmVal&#45;&gt;primitive&#45;i64&#45;2048 -->
<g id="edge1" class="edge">
<title>function&#45;0&#45;ImmVal:s&#45;&gt;primitive&#45;i64&#45;2048</title>
<path fill="none" stroke="black" d="M45,-95C45,-81.84 45,-67.11 45,-55.3"/>
<polygon fill="black" stroke="black" points="46.75,-58 45,-53 43.25,-58 46.75,-58"/>
</g>
<!-- function&#45;1&#45;ImmVal&#45;&gt;primitive&#45;i64&#45;0 -->
<g id="edge2" class="edge">
<title>function&#45;1&#45;ImmVal:s&#45;&gt;primitive&#45;i64&#45;0</title>
<path fill="none" stroke="black" d="M190,-174C190,-160.84 190,-146.11 190,-134.3"/>
<polygon fill="black" stroke="black" points="191.75,-137 190,-132 188.25,-137 191.75,-137"/>
</g>
<!-- function&#45;1&#45;RegVal&#45;&gt;primitive&#45;String&#45;1 -->
<g id="edge3" class="edge">
<title>function&#45;1&#45;RegVal:s&#45;&gt;primitive&#45;String&#45;1</title>
<path fill="none" stroke="black" d="M263,-174C263,-160.84 263,-146.11 263,-134.3"/>
<polygon fill="black" stroke="black" points="264.75,-137 263,-132 261.25,-137 264.75,-137"/>
</g>
<!-- function&#45;0&#45;Lui&#45;&gt;function&#45;0&#45;ImmVal -->
<g id="edge4" class="edge">
<title>function&#45;0&#45;Lui:s&#45;&gt;function&#45;0&#45;ImmVal</title>
<path fill="none" stroke="black" d="M46,-174C46,-160.84 45.77,-146.1 45.53,-134.3"/>
<polygon fill="black" stroke="black" points="47.41,-136.91 45.42,-132 43.91,-137.08 47.41,-136.91"/>
</g>
<!-- function&#45;0&#45;RegVal&#45;&gt;primitive&#45;String&#45;0 -->
<g id="edge5" class="edge">
<title>function&#45;0&#45;RegVal:s&#45;&gt;primitive&#45;String&#45;0</title>
<path fill="none" stroke="black" d="M115,-174C115,-160.83 115.46,-146.1 115.93,-134.3"/>
<polygon fill="black" stroke="black" points="117.42,-137.14 116.15,-132 113.94,-136.81 117.42,-137.14"/>
</g>
<!-- function&#45;0&#45;Addi&#45;&gt;function&#45;1&#45;ImmVal -->
<g id="edge7" class="edge">
<title>function&#45;0&#45;Addi:s&#45;&gt;function&#45;1&#45;ImmVal</title>
<path fill="none" stroke="black" d="M193,-253C193,-239.82 192.32,-225.09 191.6,-213.29"/>
<polygon fill="black" stroke="black" points="193.71,-215.7 191.27,-211 190.25,-216.2 193.71,-215.7"/>
</g>
<!-- function&#45;0&#45;Addi&#45;&gt;function&#45;1&#45;RegVal -->
<g id="edge6" class="edge">
<title>function&#45;0&#45;Addi:s&#45;&gt;function&#45;1&#45;RegVal</title>
<path fill="none" stroke="black" d="M173,-253C173,-249.58 201.74,-230.03 226.55,-213.78"/>
<polygon fill="black" stroke="black" points="227.58,-215.2 230.81,-211 225.67,-212.27 227.58,-215.2"/>
</g>
<!-- function&#45;0&#45;Or&#45;&gt;function&#45;0&#45;Lui -->
<g id="edge9" class="edge">
<title>function&#45;0&#45;Or:s&#45;&gt;function&#45;0&#45;Lui</title>
<path fill="none" stroke="black" d="M125,-253C125,-246.52 98.33,-226.64 75.98,-211.12"/>
<polygon fill="black" stroke="black" points="80.02,-209.78 74.87,-211 79.66,-213.26 80.02,-209.78"/>
</g>
<!-- function&#45;0&#45;Or&#45;&gt;function&#45;0&#45;RegVal -->
<g id="edge8" class="edge">
<title>function&#45;0&#45;Or:s&#45;&gt;function&#45;0&#45;RegVal</title>
<path fill="none" stroke="black" d="M109,-253C109,-239.8 110.14,-225.06 111.33,-213.27"/>
<polygon fill="black" stroke="black" points="112.41,-216.27 111.88,-211 109.01,-215.45 112.41,-216.27"/>
</g>
<!-- function&#45;1&#45;Or&#45;&gt;function&#45;0&#45;Lui -->
<g id="edge10" class="edge">
<title>function&#45;1&#45;Or:s&#45;&gt;function&#45;0&#45;Lui</title>
<path fill="none" stroke="black" d="M51,-253C51,-239.8 49.86,-225.06 48.67,-213.27"/>
<polygon fill="black" stroke="black" points="50.99,-215.45 48.12,-211 47.59,-216.27 50.99,-215.45"/>
</g>
<!-- function&#45;1&#45;Or&#45;&gt;function&#45;0&#45;RegVal -->
<g id="edge11" class="edge">
<title>function&#45;1&#45;Or:s&#45;&gt;function&#45;0&#45;RegVal</title>
<path fill="none" stroke="black" d="M67,-253C67,-237.1 76.93,-222.72 87.67,-211.82"/>
<polygon fill="black" stroke="black" points="85.61,-214.78 89.33,-211 84.07,-211.64 85.61,-214.78"/>
</g>
<!-- function&#45;0&#45;ImmVal -->
<g id="node1" class="node">
<title>function&#45;0&#45;ImmVal</title>
<g id="a_node1"><a xlink:title="Imm&#45;2: function&#45;0&#45;ImmVal">
<path fill="white" stroke="transparent" d="M24.67,-95C24.67,-95 65.33,-95 65.33,-95 70.67,-95 76,-100.33 76,-105.67 76,-105.67 76,-116.33 76,-116.33 76,-121.67 70.67,-127 65.33,-127 65.33,-127 24.67,-127 24.67,-127 19.33,-127 14,-121.67 14,-116.33 14,-116.33 14,-105.67 14,-105.67 14,-100.33 19.33,-95 24.67,-95"/>
<text text-anchor="start" x="19" y="-107.3" font-family="Helvetica,sans-Serif" font-size="14.00">ImmVal</text>
<path fill="none" stroke="black" d="M24.67,-95C24.67,-95 65.33,-95 65.33,-95 70.67,-95 76,-100.33 76,-105.67 76,-105.67 76,-116.33 76,-116.33 76,-121.67 70.67,-127 65.33,-127 65.33,-127 24.67,-127 24.67,-127 19.33,-127 14,-121.67 14,-116.33 14,-116.33 14,-105.67 14,-105.67 14,-100.33 19.33,-95 24.67,-95"/>
</a>
</g>
</g>
<!-- primitive&#45;i64&#45;2048 -->
<g id="node2" class="node">
<title>primitive&#45;i64&#45;2048</title>
<g id="a_node2"><a xlink:title="i64&#45;2048: primitive&#45;i64&#45;2048">
<path fill="white" stroke="transparent" d="M32.17,-16C32.17,-16 57.83,-16 57.83,-16 63.17,-16 68.5,-21.33 68.5,-26.67 68.5,-26.67 68.5,-37.33 68.5,-37.33 68.5,-42.67 63.17,-48 57.83,-48 57.83,-48 32.17,-48 32.17,-48 26.83,-48 21.5,-42.67 21.5,-37.33 21.5,-37.33 21.5,-26.67 21.5,-26.67 21.5,-21.33 26.83,-16 32.17,-16"/>
<text text-anchor="start" x="27" y="-28.3" font-family="Helvetica,sans-Serif" font-size="14.00">2048</text>
<path fill="none" stroke="black" d="M32.17,-16C32.17,-16 57.83,-16 57.83,-16 63.17,-16 68.5,-21.33 68.5,-26.67 68.5,-26.67 68.5,-37.33 68.5,-37.33 68.5,-42.67 63.17,-48 57.83,-48 57.83,-48 32.17,-48 32.17,-48 26.83,-48 21.5,-42.67 21.5,-37.33 21.5,-37.33 21.5,-26.67 21.5,-26.67 21.5,-21.33 26.83,-16 32.17,-16"/>
</a>
</g>
</g>
<!-- function&#45;1&#45;ImmVal -->
<g id="node3" class="node">
<title>function&#45;1&#45;ImmVal</title>
<g id="a_node3"><a xlink:title="Imm&#45;5: function&#45;1&#45;ImmVal">
<path fill="white" stroke="transparent" d="M169.67,-174C169.67,-174 210.33,-174 210.33,-174 215.67,-174 221,-179.33 221,-184.67 221,-184.67 221,-195.33 221,-195.33 221,-200.67 215.67,-206 210.33,-206 210.33,-206 169.67,-206 169.67,-206 164.33,-206 159,-200.67 159,-195.33 159,-195.33 159,-184.67 159,-184.67 159,-179.33 164.33,-174 169.67,-174"/>
<text text-anchor="start" x="164" y="-186.3" font-family="Helvetica,sans-Serif" font-size="14.00">ImmVal</text>
<path fill="none" stroke="black" d="M169.67,-174C169.67,-174 210.33,-174 210.33,-174 215.67,-174 221,-179.33 221,-184.67 221,-184.67 221,-195.33 221,-195.33 221,-200.67 215.67,-206 210.33,-206 210.33,-206 169.67,-206 169.67,-206 164.33,-206 159,-200.67 159,-195.33 159,-195.33 159,-184.67 159,-184.67 159,-179.33 164.33,-174 169.67,-174"/>
</a>
</g>
</g>
<!-- primitive&#45;i64&#45;0 -->
<g id="node4" class="node">
<title>primitive&#45;i64&#45;0</title>
<g id="a_node4"><a xlink:title="i64&#45;0: primitive&#45;i64&#45;0">
<path fill="white" stroke="transparent" d="M184.67,-95C184.67,-95 195.33,-95 195.33,-95 200.67,-95 206,-100.33 206,-105.67 206,-105.67 206,-116.33 206,-116.33 206,-121.67 200.67,-127 195.33,-127 195.33,-127 184.67,-127 184.67,-127 179.33,-127 174,-121.67 174,-116.33 174,-116.33 174,-105.67 174,-105.67 174,-100.33 179.33,-95 184.67,-95"/>
<text text-anchor="start" x="185" y="-107.3" font-family="Helvetica,sans-Serif" font-size="14.00">0</text>
<path fill="none" stroke="black" d="M184.67,-95C184.67,-95 195.33,-95 195.33,-95 200.67,-95 206,-100.33 206,-105.67 206,-105.67 206,-116.33 206,-116.33 206,-121.67 200.67,-127 195.33,-127 195.33,-127 184.67,-127 184.67,-127 179.33,-127 174,-121.67 174,-116.33 174,-116.33 174,-105.67 174,-105.67 174,-100.33 179.33,-95 184.67,-95"/>
</a>
</g>
</g>
<!-- function&#45;1&#45;RegVal -->
<g id="node5" class="node">
<title>function&#45;1&#45;RegVal</title>
<g id="a_node5"><a xlink:title="Inst&#45;1: function&#45;1&#45;RegVal">
<path fill="white" stroke="transparent" d="M244.17,-174C244.17,-174 279.83,-174 279.83,-174 285.17,-174 290.5,-179.33 290.5,-184.67 290.5,-184.67 290.5,-195.33 290.5,-195.33 290.5,-200.67 285.17,-206 279.83,-206 279.83,-206 244.17,-206 244.17,-206 238.83,-206 233.5,-200.67 233.5,-195.33 233.5,-195.33 233.5,-184.67 233.5,-184.67 233.5,-179.33 238.83,-174 244.17,-174"/>
<text text-anchor="start" x="239" y="-186.3" font-family="Helvetica,sans-Serif" font-size="14.00">RegVal</text>
<path fill="none" stroke="black" d="M244.17,-174C244.17,-174 279.83,-174 279.83,-174 285.17,-174 290.5,-179.33 290.5,-184.67 290.5,-184.67 290.5,-195.33 290.5,-195.33 290.5,-200.67 285.17,-206 279.83,-206 279.83,-206 244.17,-206 244.17,-206 238.83,-206 233.5,-200.67 233.5,-195.33 233.5,-195.33 233.5,-184.67 233.5,-184.67 233.5,-179.33 238.83,-174 244.17,-174"/>
</a>
</g>
</g>
<!-- primitive&#45;String&#45;1 -->
<g id="node6" class="node">
<title>primitive&#45;String&#45;1</title>
<g id="a_node6"><a xlink:title="String&#45;1: primitive&#45;String&#45;1">
<path fill="white" stroke="transparent" d="M246.67,-95C246.67,-95 279.33,-95 279.33,-95 284.67,-95 290,-100.33 290,-105.67 290,-105.67 290,-116.33 290,-116.33 290,-121.67 284.67,-127 279.33,-127 279.33,-127 246.67,-127 246.67,-127 241.33,-127 236,-121.67 236,-116.33 236,-116.33 236,-105.67 236,-105.67 236,-100.33 241.33,-95 246.67,-95"/>
<text text-anchor="start" x="241" y="-107.3" font-family="Helvetica,sans-Serif" font-size="14.00">&quot;t1_0&quot;</text>
<path fill="none" stroke="black" d="M246.67,-95C246.67,-95 279.33,-95 279.33,-95 284.67,-95 290,-100.33 290,-105.67 290,-105.67 290,-116.33 290,-116.33 290,-121.67 284.67,-127 279.33,-127 279.33,-127 246.67,-127 246.67,-127 241.33,-127 236,-121.67 236,-116.33 236,-116.33 236,-105.67 236,-105.67 236,-100.33 241.33,-95 246.67,-95"/>
</a>
</g>
</g>
<!-- function&#45;0&#45;Lui -->
<g id="node7" class="node">
<title>function&#45;0&#45;Lui</title>
<g id="a_node7"><a xlink:title="Inst&#45;3: function&#45;0&#45;Lui">
<path fill="white" stroke="transparent" d="M40.67,-174C40.67,-174 51.33,-174 51.33,-174 56.67,-174 62,-179.33 62,-184.67 62,-184.67 62,-195.33 62,-195.33 62,-200.67 56.67,-206 51.33,-206 51.33,-206 40.67,-206 40.67,-206 35.33,-206 30,-200.67 30,-195.33 30,-195.33 30,-184.67 30,-184.67 30,-179.33 35.33,-174 40.67,-174"/>
<text text-anchor="start" x="35.5" y="-186.3" font-family="Helvetica,sans-Serif" font-size="14.00">Lui</text>
<path fill="none" stroke="black" d="M40.67,-174C40.67,-174 51.33,-174 51.33,-174 56.67,-174 62,-179.33 62,-184.67 62,-184.67 62,-195.33 62,-195.33 62,-200.67 56.67,-206 51.33,-206 51.33,-206 40.67,-206 40.67,-206 35.33,-206 30,-200.67 30,-195.33 30,-195.33 30,-184.67 30,-184.67 30,-179.33 35.33,-174 40.67,-174"/>
</a>
</g>
</g>
<!-- function&#45;0&#45;RegVal -->
<g id="node8" class="node">
<title>function&#45;0&#45;RegVal</title>
<g id="a_node8"><a xlink:title="Inst&#45;0: function&#45;0&#45;RegVal">
<path fill="white" stroke="transparent" d="M96.17,-174C96.17,-174 131.83,-174 131.83,-174 137.17,-174 142.5,-179.33 142.5,-184.67 142.5,-184.67 142.5,-195.33 142.5,-195.33 142.5,-200.67 137.17,-206 131.83,-206 131.83,-206 96.17,-206 96.17,-206 90.83,-206 85.5,-200.67 85.5,-195.33 85.5,-195.33 85.5,-184.67 85.5,-184.67 85.5,-179.33 90.83,-174 96.17,-174"/>
<text text-anchor="start" x="91" y="-186.3" font-family="Helvetica,sans-Serif" font-size="14.00">RegVal</text>
<path fill="none" stroke="black" d="M96.17,-174C96.17,-174 131.83,-174 131.83,-174 137.17,-174 142.5,-179.33 142.5,-184.67 142.5,-184.67 142.5,-195.33 142.5,-195.33 142.5,-200.67 137.17,-206 131.83,-206 131.83,-206 96.17,-206 96.17,-206 90.83,-206 85.5,-200.67 85.5,-195.33 85.5,-195.33 85.5,-184.67 85.5,-184.67 85.5,-179.33 90.83,-174 96.17,-174"/>
</a>
</g>
</g>
<!-- primitive&#45;String&#45;0 -->
<g id="node9" class="node">
<title>primitive&#45;String&#45;0</title>
<g id="a_node9"><a xlink:title="String&#45;0: primitive&#45;String&#45;0">
<path fill="white" stroke="transparent" d="M99.17,-95C99.17,-95 134.83,-95 134.83,-95 140.17,-95 145.5,-100.33 145.5,-105.67 145.5,-105.67 145.5,-116.33 145.5,-116.33 145.5,-121.67 140.17,-127 134.83,-127 134.83,-127 99.17,-127 99.17,-127 93.83,-127 88.5,-121.67 88.5,-116.33 88.5,-116.33 88.5,-105.67 88.5,-105.67 88.5,-100.33 93.83,-95 99.17,-95"/>
<text text-anchor="start" x="94" y="-107.3" font-family="Helvetica,sans-Serif" font-size="14.00">&quot;a5_0&quot;</text>
<path fill="none" stroke="black" d="M99.17,-95C99.17,-95 134.83,-95 134.83,-95 140.17,-95 145.5,-100.33 145.5,-105.67 145.5,-105.67 145.5,-116.33 145.5,-116.33 145.5,-121.67 140.17,-127 134.83,-127 134.83,-127 99.17,-127 99.17,-127 93.83,-127 88.5,-121.67 88.5,-116.33 88.5,-116.33 88.5,-105.67 88.5,-105.67 88.5,-100.33 93.83,-95 99.17,-95"/>
</a>
</g>
</g>
<!-- function&#45;0&#45;Addi -->
<g id="node10" class="node">
<title>function&#45;0&#45;Addi</title>
<g id="a_node10"><a xlink:title="Inst&#45;6: function&#45;0&#45;Addi">
<path fill="white" stroke="transparent" d="M173.17,-253C173.17,-253 192.83,-253 192.83,-253 198.17,-253 203.5,-258.33 203.5,-263.67 203.5,-263.67 203.5,-274.33 203.5,-274.33 203.5,-279.67 198.17,-285 192.83,-285 192.83,-285 173.17,-285 173.17,-285 167.83,-285 162.5,-279.67 162.5,-274.33 162.5,-274.33 162.5,-263.67 162.5,-263.67 162.5,-258.33 167.83,-253 173.17,-253"/>
<text text-anchor="start" x="168" y="-265.3" font-family="Helvetica,sans-Serif" font-size="14.00">Addi</text>
<path fill="none" stroke="black" d="M173.17,-253C173.17,-253 192.83,-253 192.83,-253 198.17,-253 203.5,-258.33 203.5,-263.67 203.5,-263.67 203.5,-274.33 203.5,-274.33 203.5,-279.67 198.17,-285 192.83,-285 192.83,-285 173.17,-285 173.17,-285 167.83,-285 162.5,-279.67 162.5,-274.33 162.5,-274.33 162.5,-263.67 162.5,-263.67 162.5,-258.33 167.83,-253 173.17,-253"/>
</a>
</g>
</g>
<!-- function&#45;0&#45;Or -->
<g id="node11" class="node">
<title>function&#45;0&#45;Or</title>
<g id="a_node11"><a xlink:title="Inst&#45;4: function&#45;0&#45;Or">
<path fill="white" stroke="transparent" d="M111.67,-253C111.67,-253 122.33,-253 122.33,-253 127.67,-253 133,-258.33 133,-263.67 133,-263.67 133,-274.33 133,-274.33 133,-279.67 127.67,-285 122.33,-285 122.33,-285 111.67,-285 111.67,-285 106.33,-285 101,-279.67 101,-274.33 101,-274.33 101,-263.67 101,-263.67 101,-258.33 106.33,-253 111.67,-253"/>
<text text-anchor="start" x="108" y="-265.3" font-family="Helvetica,sans-Serif" font-size="14.00">Or</text>
<path fill="none" stroke="black" d="M111.67,-253C111.67,-253 122.33,-253 122.33,-253 127.67,-253 133,-258.33 133,-263.67 133,-263.67 133,-274.33 133,-274.33 133,-279.67 127.67,-285 122.33,-285 122.33,-285 111.67,-285 111.67,-285 106.33,-285 101,-279.67 101,-274.33 101,-274.33 101,-263.67 101,-263.67 101,-258.33 106.33,-253 111.67,-253"/>
</a>
</g>
</g>
<!-- function&#45;1&#45;Or -->
<g id="node12" class="node">
<title>function&#45;1&#45;Or</title>
<g id="a_node12"><a xlink:title="Inst&#45;4: function&#45;1&#45;Or">
<path fill="white" stroke="transparent" d="M53.67,-253C53.67,-253 64.33,-253 64.33,-253 69.67,-253 75,-258.33 75,-263.67 75,-263.67 75,-274.33 75,-274.33 75,-279.67 69.67,-285 64.33,-285 64.33,-285 53.67,-285 53.67,-285 48.33,-285 43,-279.67 43,-274.33 43,-274.33 43,-263.67 43,-263.67 43,-258.33 48.33,-253 53.67,-253"/>
<text text-anchor="start" x="50" y="-265.3" font-family="Helvetica,sans-Serif" font-size="14.00">Or</text>
<path fill="none" stroke="black" d="M53.67,-253C53.67,-253 64.33,-253 64.33,-253 69.67,-253 75,-258.33 75,-263.67 75,-263.67 75,-274.33 75,-274.33 75,-279.67 69.67,-285 64.33,-285 64.33,-285 53.67,-285 53.67,-285 48.33,-285 43,-279.67 43,-274.33 43,-274.33 43,-263.67 43,-263.67 43,-258.33 48.33,-253 53.67,-253"/>
</a>
</g>
</g>
</g>
</svg>
