<?xml version="1.0" encoding="UTF-8" standalone="no"?>
<!DOCTYPE svg PUBLIC "-//W3C//DTD SVG 1.1//EN"
 "http://www.w3.org/Graphics/SVG/1.1/DTD/svg11.dtd">
<!-- Generated by graphviz version 2.43.0 (0)
 -->
<!-- Title: %3 Pages: 1 -->
<svg width="529pt" height="388pt"
 viewBox="0.00 0.00 529.27 388.00" xmlns="http://www.w3.org/2000/svg" xmlns:xlink="http://www.w3.org/1999/xlink">
<g id="graph0" class="graph" transform="scale(1 1) rotate(0) translate(4 384)">
<title>%3</title>
<polygon fill="white" stroke="#000000" points="-4,4 -4,-384 525.27,-384 525.27,4 -4,4"/>
<g id="clust1" class="cluster">
<title>outer_cluster_Imm&#45;6</title>
</g>
<g id="clust2" class="cluster">
<title>cluster_Imm&#45;6</title>
<path fill="#ffffb3" stroke="black" stroke-dasharray="5,2" d="M279,-90C279,-90 323,-90 323,-90 329,-90 335,-96 335,-102 335,-102 335,-120 335,-120 335,-126 329,-132 323,-132 323,-132 279,-132 279,-132 273,-132 267,-126 267,-120 267,-120 267,-102 267,-102 267,-96 273,-90 279,-90"/>
</g>
<g id="clust4" class="cluster">
<title>outer_cluster_Imm&#45;4</title>
</g>
<g id="clust5" class="cluster">
<title>cluster_Imm&#45;4</title>
<path fill="#ffffb3" stroke="black" stroke-dasharray="5,2" d="M23,-169C23,-169 67,-169 67,-169 73,-169 79,-175 79,-181 79,-181 79,-199 79,-199 79,-205 73,-211 67,-211 67,-211 23,-211 23,-211 17,-211 11,-205 11,-199 11,-199 11,-181 11,-181 11,-175 17,-169 23,-169"/>
</g>
<g id="clust7" class="cluster">
<title>outer_cluster_Imm&#45;2</title>
</g>
<g id="clust8" class="cluster">
<title>cluster_Imm&#45;2</title>
<path fill="#ffffb3" stroke="black" stroke-dasharray="5,2" d="M111,-90C111,-90 155,-90 155,-90 161,-90 167,-96 167,-102 167,-102 167,-120 167,-120 167,-126 161,-132 155,-132 155,-132 111,-132 111,-132 105,-132 99,-126 99,-120 99,-120 99,-102 99,-102 99,-96 105,-90 111,-90"/>
</g>
<g id="clust10" class="cluster">
<title>outer_cluster_Inst&#45;10</title>
</g>
<g id="clust11" class="cluster">
<title>cluster_Inst&#45;10</title>
<path fill="#bebada" stroke="black" stroke-dasharray="5,2" d="M336,-248C336,-248 488,-248 488,-248 494,-248 500,-254 500,-260 500,-260 500,-278 500,-278 500,-284 494,-290 488,-290 488,-290 336,-290 336,-290 330,-290 324,-284 324,-278 324,-278 324,-260 324,-260 324,-254 330,-248 336,-248"/>
</g>
<g id="clust13" class="cluster">
<title>outer_cluster_Inst&#45;3</title>
</g>
<g id="clust14" class="cluster">
<title>cluster_Inst&#45;3</title>
<path fill="#bebada" stroke="black" stroke-dasharray="5,2" d="M163,-169C163,-169 199,-169 199,-169 205,-169 211,-175 211,-181 211,-181 211,-199 211,-199 211,-205 205,-211 199,-211 199,-211 163,-211 163,-211 157,-211 151,-205 151,-199 151,-199 151,-181 151,-181 151,-175 157,-169 163,-169"/>
</g>
<g id="clust16" class="cluster">
<title>outer_cluster_Inst&#45;0</title>
</g>
<g id="clust17" class="cluster">
<title>cluster_Inst&#45;0</title>
<path fill="#bebada" stroke="black" stroke-dasharray="5,2" d="M415,-169C415,-169 455,-169 455,-169 461,-169 467,-175 467,-181 467,-181 467,-199 467,-199 467,-205 461,-211 455,-211 455,-211 415,-211 415,-211 409,-211 403,-205 403,-199 403,-199 403,-181 403,-181 403,-175 409,-169 415,-169"/>
</g>
<g id="clust19" class="cluster">
<title>outer_cluster_Inst&#45;1</title>
</g>
<g id="clust20" class="cluster">
<title>cluster_Inst&#45;1</title>
<path fill="#bebada" stroke="black" stroke-dasharray="5,2" d="M185,-90C185,-90 225,-90 225,-90 231,-90 237,-96 237,-102 237,-102 237,-120 237,-120 237,-126 231,-132 225,-132 225,-132 185,-132 185,-132 179,-132 173,-126 173,-120 173,-120 173,-102 173,-102 173,-96 179,-90 185,-90"/>
</g>
<g id="clust22" class="cluster">
<title>outer_cluster_Inst&#45;11</title>
</g>
<g id="clust23" class="cluster">
<title>cluster_Inst&#45;11</title>
<path fill="#bebada" stroke="black" stroke-dasharray="5,2" d="M283,-169C283,-169 319,-169 319,-169 325,-169 331,-175 331,-181 331,-181 331,-199 331,-199 331,-205 325,-211 319,-211 319,-211 283,-211 283,-211 277,-211 271,-205 271,-199 271,-199 271,-181 271,-181 271,-175 277,-169 283,-169"/>
</g>
<g id="clust25" class="cluster">
<title>outer_cluster_Inst&#45;8</title>
</g>
<g id="clust26" class="cluster">
<title>cluster_Inst&#45;8</title>
<path fill="#bebada" stroke="black" stroke-dasharray="5,2" d="M66,-248C66,-248 102,-248 102,-248 108,-248 114,-254 114,-260 114,-260 114,-278 114,-278 114,-284 108,-290 102,-290 102,-290 66,-290 66,-290 60,-290 54,-284 54,-278 54,-278 54,-260 54,-260 54,-254 60,-248 66,-248"/>
</g>
<g id="clust28" class="cluster">
<title>outer_cluster_Inst&#45;5</title>
</g>
<g id="clust29" class="cluster">
<title>cluster_Inst&#45;5</title>
<path fill="#bebada" stroke="black" stroke-dasharray="5,2" d="M49,-327C49,-327 201,-327 201,-327 207,-327 213,-333 213,-339 213,-339 213,-357 213,-357 213,-363 207,-369 201,-369 201,-369 49,-369 49,-369 43,-369 37,-363 37,-357 37,-357 37,-339 37,-339 37,-333 43,-327 49,-327"/>
</g>
<g id="clust31" class="cluster">
<title>outer_cluster_Inst&#45;7</title>
</g>
<g id="clust32" class="cluster">
<title>cluster_Inst&#45;7</title>
<path fill="#bebada" stroke="black" stroke-dasharray="5,2" d="M154,-248C154,-248 306,-248 306,-248 312,-248 318,-254 318,-260 318,-260 318,-278 318,-278 318,-284 312,-290 306,-290 306,-290 154,-290 154,-290 148,-290 142,-284 142,-278 142,-278 142,-260 142,-260 142,-254 148,-248 154,-248"/>
</g>
<g id="clust34" class="cluster">
<title>outer_cluster_String&#45;0</title>
</g>
<g id="clust35" class="cluster">
<title>cluster_String&#45;0</title>
<path fill="#fb8072" stroke="black" stroke-dasharray="5,2" d="M416,-90C416,-90 456,-90 456,-90 462,-90 468,-96 468,-102 468,-102 468,-120 468,-120 468,-126 462,-132 456,-132 456,-132 416,-132 416,-132 410,-132 404,-126 404,-120 404,-120 404,-102 404,-102 404,-96 410,-90 416,-90"/>
</g>
<g id="clust37" class="cluster">
<title>outer_cluster_String&#45;1</title>
</g>
<g id="clust38" class="cluster">
<title>cluster_String&#45;1</title>
<path fill="#fb8072" stroke="black" stroke-dasharray="5,2" d="M180,-11C180,-11 232,-11 232,-11 238,-11 244,-17 244,-23 244,-23 244,-41 244,-41 244,-47 238,-53 232,-53 232,-53 180,-53 180,-53 174,-53 168,-47 168,-41 168,-41 168,-23 168,-23 168,-17 174,-11 180,-11"/>
</g>
<g id="clust40" class="cluster">
<title>outer_cluster_i64&#45;56</title>
</g>
<g id="clust41" class="cluster">
<title>cluster_i64&#45;56</title>
<path fill="#80b1d3" stroke="black" stroke-dasharray="5,2" d="M114,-11C114,-11 150,-11 150,-11 156,-11 162,-17 162,-23 162,-23 162,-41 162,-41 162,-47 156,-53 150,-53 150,-53 114,-53 114,-53 108,-53 102,-47 102,-41 102,-41 102,-23 102,-23 102,-17 108,-11 114,-11"/>
</g>
<g id="clust43" class="cluster">
<title>outer_cluster_i64&#45;0</title>
</g>
<g id="clust44" class="cluster">
<title>cluster_i64&#45;0</title>
<path fill="#80b1d3" stroke="black" stroke-dasharray="5,2" d="M27,-90C27,-90 63,-90 63,-90 69,-90 75,-96 75,-102 75,-102 75,-120 75,-120 75,-126 69,-132 63,-132 63,-132 27,-132 27,-132 21,-132 15,-126 15,-120 15,-120 15,-102 15,-102 15,-96 21,-90 27,-90"/>
</g>
<g id="clust46" class="cluster">
<title>outer_cluster_i64&#45;4</title>
</g>
<g id="clust47" class="cluster">
<title>cluster_i64&#45;4</title>
<path fill="#80b1d3" stroke="black" stroke-dasharray="5,2" d="M283,-11C283,-11 319,-11 319,-11 325,-11 331,-17 331,-23 331,-23 331,-41 331,-41 331,-47 325,-53 319,-53 319,-53 283,-53 283,-53 277,-53 271,-47 271,-41 271,-41 271,-23 271,-23 271,-17 277,-11 283,-11"/>
</g>
<!-- function&#45;2&#45;ImmVal&#45;&gt;primitive&#45;i64&#45;4 -->
<g id="edge1" class="edge">
<title>function&#45;2&#45;ImmVal:s&#45;&gt;primitive&#45;i64&#45;4</title>
<path fill="none" stroke="black" d="M301,-95C301,-81.84 301,-67.11 301,-55.3"/>
<polygon fill="black" stroke="black" points="302.75,-58 301,-53 299.25,-58 302.75,-58"/>
</g>
<!-- function&#45;1&#45;ImmVal&#45;&gt;primitive&#45;i64&#45;0 -->
<g id="edge2" class="edge">
<title>function&#45;1&#45;ImmVal:s&#45;&gt;primitive&#45;i64&#45;0</title>
<path fill="none" stroke="black" d="M45,-174C45,-160.84 45,-146.11 45,-134.3"/>
<polygon fill="black" stroke="black" points="46.75,-137 45,-132 43.25,-137 46.75,-137"/>
</g>
<!-- function&#45;0&#45;ImmVal&#45;&gt;primitive&#45;i64&#45;56 -->
<g id="edge3" class="edge">
<title>function&#45;0&#45;ImmVal:s&#45;&gt;primitive&#45;i64&#45;56</title>
<path fill="none" stroke="black" d="M133,-95C133,-81.84 132.77,-67.1 132.53,-55.3"/>
<polygon fill="black" stroke="black" points="134.41,-57.91 132.42,-53 130.91,-58.08 134.41,-57.91"/>
</g>
<!-- function&#45;1&#45;Blt&#45;&gt;function&#45;2&#45;ImmVal -->
<g id="edge6" class="edge">
<title>function&#45;1&#45;Blt:s&#45;&gt;function&#45;2&#45;ImmVal</title>
<path fill="none" stroke="black" d="M481,-253C481,-213.84 431.42,-239.84 402,-214 382.74,-197.08 387.43,-184.81 370,-166 358.48,-153.57 343.92,-141.73 331.15,-132.32"/>
<polygon fill="black" stroke="black" points="335.17,-131.56 329.89,-132 334.29,-134.95 335.17,-131.56"/>
</g>
<!-- function&#45;1&#45;Blt&#45;&gt;function&#45;0&#45;Addi -->
<g id="edge4" class="edge">
<title>function&#45;1&#45;Blt:s&#45;&gt;function&#45;0&#45;Addi</title>
<path fill="none" stroke="black" d="M462,-253C462,-242.18 449.46,-247.76 439,-245 365.16,-225.51 344.57,-230.45 270,-214 251.07,-209.82 230.08,-204.43 213.23,-199.92"/>
<polygon fill="black" stroke="black" points="216.18,-199.68 211,-198.55 214.35,-202.66 216.18,-199.68"/>
</g>
<!-- function&#45;1&#45;Blt&#45;&gt;function&#45;0&#45;RegVal -->
<g id="edge5" class="edge">
<title>function&#45;1&#45;Blt:s&#45;&gt;function&#45;0&#45;RegVal</title>
<path fill="none" stroke="black" d="M474,-253C474,-237.82 465.52,-223.32 456.48,-212.17"/>
<polygon fill="black" stroke="black" points="460.05,-212.95 455.13,-211 457.76,-215.6 460.05,-212.95"/>
</g>
<!-- function&#45;0&#45;Addi&#45;&gt;function&#45;0&#45;ImmVal -->
<g id="edge13" class="edge">
<title>function&#45;0&#45;Addi:s&#45;&gt;function&#45;0&#45;ImmVal</title>
<path fill="none" stroke="black" d="M191,-174C191,-157.04 179.28,-142.79 166.37,-132.25"/>
<polygon fill="black" stroke="black" points="170.61,-131.5 165.34,-132 169.78,-134.9 170.61,-131.5"/>
</g>
<!-- function&#45;0&#45;Addi&#45;&gt;function&#45;1&#45;RegVal -->
<g id="edge12" class="edge">
<title>function&#45;0&#45;Addi:s&#45;&gt;function&#45;1&#45;RegVal</title>
<path fill="none" stroke="black" d="M171,-174C171,-159.26 178.48,-144.71 186.42,-133.41"/>
<polygon fill="black" stroke="black" points="185.75,-136.97 187.59,-132 183.05,-134.73 185.75,-136.97"/>
</g>
<!-- function&#45;0&#45;RegVal&#45;&gt;primitive&#45;String&#45;0 -->
<g id="edge14" class="edge">
<title>function&#45;0&#45;RegVal:s&#45;&gt;primitive&#45;String&#45;0</title>
<path fill="none" stroke="black" d="M436,-174C436,-160.84 436,-146.11 436,-134.3"/>
<polygon fill="black" stroke="black" points="437.75,-137 436,-132 434.25,-137 437.75,-137"/>
</g>
<!-- function&#45;2&#45;Bge&#45;&gt;function&#45;2&#45;ImmVal -->
<g id="edge9" class="edge">
<title>function&#45;2&#45;Bge:s&#45;&gt;function&#45;2&#45;ImmVal</title>
<path fill="none" stroke="black" d="M426,-253C426,-228.49 403.58,-232.05 387,-214 362.18,-186.97 335.14,-154.33 318.13,-133.38"/>
<polygon fill="black" stroke="black" points="321.54,-134.5 316.87,-132 318.96,-136.87 321.54,-134.5"/>
</g>
<!-- function&#45;2&#45;Bge&#45;&gt;function&#45;0&#45;Addi -->
<g id="edge8" class="edge">
<title>function&#45;2&#45;Bge:s&#45;&gt;function&#45;0&#45;Addi</title>
<path fill="none" stroke="black" d="M417,-253C417,-252.35 277.43,-216.03 212.95,-199.29"/>
<polygon fill="black" stroke="black" points="216.15,-199.28 211,-198.02 214.24,-202.21 216.15,-199.28"/>
</g>
<!-- function&#45;2&#45;Bge&#45;&gt;function&#45;0&#45;RegVal -->
<g id="edge7" class="edge">
<title>function&#45;2&#45;Bge:s&#45;&gt;function&#45;0&#45;RegVal</title>
<path fill="none" stroke="black" d="M403,-253C403,-238.46 410.04,-223.92 417.51,-212.58"/>
<polygon fill="black" stroke="black" points="416.67,-215.48 419.5,-211 414.5,-212.74 416.67,-215.48"/>
</g>
<!-- function&#45;2&#45;Seq2&#45;&gt;function&#45;1&#45;Seq2 -->
<g id="edge10" class="edge">
<title>function&#45;2&#45;Seq2:s&#45;&gt;function&#45;1&#45;Seq2</title>
<path fill="none" stroke="black" d="M343,-253C343,-241.59 331.78,-243.91 319.57,-249.8"/>
<polygon fill="black" stroke="black" points="320.71,-246.57 318,-251.12 322.96,-249.26 320.71,-246.57"/>
</g>
<!-- function&#45;2&#45;Seq2&#45;&gt;function&#45;1&#45;Jal -->
<g id="edge11" class="edge">
<title>function&#45;2&#45;Seq2:s&#45;&gt;function&#45;1&#45;Jal</title>
<path fill="none" stroke="black" d="M365,-253C365,-233.06 348.78,-217.48 332.67,-206.93"/>
<polygon fill="black" stroke="black" points="335.65,-207.62 331,-205.09 333.06,-209.97 335.65,-207.62"/>
</g>
<!-- function&#45;1&#45;Seq2&#45;&gt;function&#45;1&#45;Blt -->
<g id="edge32" class="edge">
<title>function&#45;1&#45;Seq2:s&#45;&gt;function&#45;1&#45;Blt</title>
<path fill="none" stroke="black" d="M277,-253C277,-178.07 399.84,-204.55 437,-223.5 446.53,-228.36 453.96,-237.41 459.33,-246.17"/>
<polygon fill="black" stroke="black" points="456.37,-245.62 461.1,-248 458.88,-243.19 456.37,-245.62"/>
</g>
<!-- function&#45;1&#45;Seq2&#45;&gt;function&#45;1&#45;Jal -->
<g id="edge33" class="edge">
<title>function&#45;1&#45;Seq2:s&#45;&gt;function&#45;1&#45;Jal</title>
<path fill="none" stroke="black" d="M299,-253C299,-239.83 299.46,-225.1 299.93,-213.3"/>
<polygon fill="black" stroke="black" points="301.42,-216.14 300.15,-211 297.94,-215.81 301.42,-216.14"/>
</g>
<!-- function&#45;1&#45;Jal&#45;&gt;function&#45;2&#45;ImmVal -->
<g id="edge16" class="edge">
<title>function&#45;1&#45;Jal:s&#45;&gt;function&#45;2&#45;ImmVal</title>
<path fill="none" stroke="black" d="M301,-174C301,-160.84 301,-146.11 301,-134.3"/>
<polygon fill="black" stroke="black" points="302.75,-137 301,-132 299.25,-137 302.75,-137"/>
</g>
<!-- function&#45;1&#45;RegVal&#45;&gt;primitive&#45;String&#45;1 -->
<g id="edge15" class="edge">
<title>function&#45;1&#45;RegVal:s&#45;&gt;primitive&#45;String&#45;1</title>
<path fill="none" stroke="black" d="M206,-95C206,-81.84 206,-67.11 206,-55.3"/>
<polygon fill="black" stroke="black" points="207.75,-58 206,-53 204.25,-58 207.75,-58"/>
</g>
<!-- function&#45;0&#45;Jal&#45;&gt;function&#45;1&#45;ImmVal -->
<g id="edge17" class="edge">
<title>function&#45;0&#45;Jal:s&#45;&gt;function&#45;1&#45;ImmVal</title>
<path fill="none" stroke="black" d="M84,-253C84,-237.82 75.52,-223.32 66.48,-212.17"/>
<polygon fill="black" stroke="black" points="70.05,-212.95 65.13,-211 67.76,-215.6 70.05,-212.95"/>
</g>
<!-- function&#45;0&#45;Blt&#45;&gt;function&#45;1&#45;ImmVal -->
<g id="edge20" class="edge">
<title>function&#45;0&#45;Blt:s&#45;&gt;function&#45;1&#45;ImmVal</title>
<path fill="none" stroke="black" d="M194,-332C194,-266.98 94.37,-343.16 53,-293 43.31,-281.24 43.01,-239.43 43.87,-213.13"/>
<polygon fill="black" stroke="black" points="45.37,-216.13 44.06,-211 41.88,-215.83 45.37,-216.13"/>
</g>
<!-- function&#45;0&#45;Blt&#45;&gt;function&#45;0&#45;Addi -->
<g id="edge18" class="edge">
<title>function&#45;0&#45;Blt:s&#45;&gt;function&#45;0&#45;Addi</title>
<path fill="none" stroke="black" d="M175,-332C175,-309 149.07,-314.53 141,-293 133.51,-273.02 134.31,-265.26 141,-245 144.97,-232.98 152.76,-221.45 160.42,-212.15"/>
<polygon fill="black" stroke="black" points="159.16,-215.66 161.68,-211 156.8,-213.07 159.16,-215.66"/>
</g>
<!-- function&#45;0&#45;Blt&#45;&gt;function&#45;0&#45;RegVal -->
<g id="edge19" class="edge">
<title>function&#45;0&#45;Blt:s&#45;&gt;function&#45;0&#45;RegVal</title>
<path fill="none" stroke="black" d="M187,-332C187,-259.26 463.73,-347.41 512,-293 526.16,-277.04 521.84,-263.93 512,-245 502.7,-227.12 484.48,-213.94 468.09,-205.07"/>
<polygon fill="black" stroke="black" points="471.47,-206.53 467,-203.68 468.72,-208.69 471.47,-206.53"/>
</g>
<!-- function&#45;0&#45;Bge&#45;&gt;function&#45;1&#45;ImmVal -->
<g id="edge23" class="edge">
<title>function&#45;0&#45;Bge:s&#45;&gt;function&#45;1&#45;ImmVal</title>
<path fill="none" stroke="black" d="M139,-332C139,-285.53 68.02,-331.5 42,-293 26.05,-269.39 31.32,-235.19 37.45,-213.02"/>
<polygon fill="black" stroke="black" points="37.44,-216.11 38.85,-211 34.56,-214.12 37.44,-216.11"/>
</g>
<!-- function&#45;0&#45;Bge&#45;&gt;function&#45;0&#45;Addi -->
<g id="edge22" class="edge">
<title>function&#45;0&#45;Bge:s&#45;&gt;function&#45;0&#45;Addi</title>
<path fill="none" stroke="black" d="M130,-332C130,-293.29 119.6,-280.93 134,-245 138.93,-232.68 147.93,-221.25 156.73,-212.1"/>
<polygon fill="black" stroke="black" points="155.19,-215.15 158.48,-211 153.32,-212.19 155.19,-215.15"/>
</g>
<!-- function&#45;0&#45;Bge&#45;&gt;function&#45;0&#45;RegVal -->
<g id="edge21" class="edge">
<title>function&#45;0&#45;Bge:s&#45;&gt;function&#45;0&#45;RegVal</title>
<path fill="none" stroke="black" d="M116,-332C116,-246.01 442.98,-356.47 501,-293 515.39,-277.25 510.14,-264.28 501,-245 493.99,-230.22 480.74,-218.13 467.93,-209.17"/>
<polygon fill="black" stroke="black" points="471.79,-210.51 467,-208.26 469.34,-213.01 471.79,-210.51"/>
</g>
<!-- function&#45;0&#45;Seq2&#45;&gt;function&#45;0&#45;Jal -->
<g id="edge25" class="edge">
<title>function&#45;0&#45;Seq2:s&#45;&gt;function&#45;0&#45;Jal</title>
<path fill="none" stroke="black" d="M78,-332C78,-318.78 79.37,-304.04 80.8,-292.25"/>
<polygon fill="black" stroke="black" points="81.74,-295.29 81.46,-290 78.38,-294.31 81.74,-295.29"/>
</g>
<!-- function&#45;0&#45;Seq2&#45;&gt;function&#45;2&#45;Blt -->
<g id="edge24" class="edge">
<title>function&#45;0&#45;Seq2:s&#45;&gt;function&#45;2&#45;Blt</title>
<path fill="none" stroke="black" d="M56,-332C56,-322.45 105.53,-298.91 139.86,-283.74"/>
<polygon fill="black" stroke="black" points="138.46,-286.5 142,-282.56 136.77,-283.43 138.46,-286.5"/>
</g>
<!-- function&#45;2&#45;Blt&#45;&gt;function&#45;2&#45;ImmVal -->
<g id="edge28" class="edge">
<title>function&#45;2&#45;Blt:s&#45;&gt;function&#45;2&#45;ImmVal</title>
<path fill="none" stroke="black" d="M183,-253C183,-252.62 247.75,-166.29 248,-166 257.66,-154.73 269.12,-142.89 278.91,-133.18"/>
<polygon fill="black" stroke="black" points="277.48,-136.2 280.71,-132 275.57,-133.27 277.48,-136.2"/>
</g>
<!-- function&#45;2&#45;Blt&#45;&gt;function&#45;0&#45;Addi -->
<g id="edge27" class="edge">
<title>function&#45;2&#45;Blt:s&#45;&gt;function&#45;0&#45;Addi</title>
<path fill="none" stroke="black" d="M176,-253C176,-239.8 177.14,-225.06 178.33,-213.27"/>
<polygon fill="black" stroke="black" points="179.41,-216.27 178.88,-211 176.01,-215.45 179.41,-216.27"/>
</g>
<!-- function&#45;2&#45;Blt&#45;&gt;function&#45;0&#45;RegVal -->
<g id="edge26" class="edge">
<title>function&#45;2&#45;Blt:s&#45;&gt;function&#45;0&#45;RegVal</title>
<path fill="none" stroke="black" d="M164,-253C164,-252.25 328.52,-215.03 401.19,-198.63"/>
<polygon fill="black" stroke="black" points="399.7,-201.63 403,-197.48 397.84,-198.67 399.7,-201.63"/>
</g>
<!-- function&#45;1&#45;Bge&#45;&gt;function&#45;2&#45;ImmVal -->
<g id="edge31" class="edge">
<title>function&#45;1&#45;Bge:s&#45;&gt;function&#45;2&#45;ImmVal</title>
<path fill="none" stroke="black" d="M244,-253C244,-208.07 269.18,-160.58 286.07,-133.78"/>
<polygon fill="black" stroke="black" points="285.53,-136.73 287.91,-132 283.1,-134.21 285.53,-136.73"/>
</g>
<!-- function&#45;1&#45;Bge&#45;&gt;function&#45;0&#45;Addi -->
<g id="edge29" class="edge">
<title>function&#45;1&#45;Bge:s&#45;&gt;function&#45;0&#45;Addi</title>
<path fill="none" stroke="black" d="M221,-253C221,-237.71 212.31,-223.2 203.03,-212.07"/>
<polygon fill="black" stroke="black" points="206.65,-212.6 201.59,-211 204.55,-215.4 206.65,-212.6"/>
</g>
<!-- function&#45;1&#45;Bge&#45;&gt;function&#45;0&#45;RegVal -->
<g id="edge30" class="edge">
<title>function&#45;1&#45;Bge:s&#45;&gt;function&#45;0&#45;RegVal</title>
<path fill="none" stroke="black" d="M235,-253C235,-235.8 344.34,-210.14 401.33,-197.93"/>
<polygon fill="black" stroke="black" points="399.73,-201.03 403,-196.86 397.85,-198.09 399.73,-201.03"/>
</g>
<!-- function&#45;2&#45;ImmVal -->
<g id="node1" class="node">
<title>function&#45;2&#45;ImmVal</title>
<g id="a_node1"><a xlink:title="Imm&#45;6: function&#45;2&#45;ImmVal">
<path fill="white" stroke="transparent" d="M280.67,-95C280.67,-95 321.33,-95 321.33,-95 326.67,-95 332,-100.33 332,-105.67 332,-105.67 332,-116.33 332,-116.33 332,-121.67 326.67,-127 321.33,-127 321.33,-127 280.67,-127 280.67,-127 275.33,-127 270,-121.67 270,-116.33 270,-116.33 270,-105.67 270,-105.67 270,-100.33 275.33,-95 280.67,-95"/>
<text text-anchor="start" x="275" y="-107.3" font-family="Helvetica,sans-Serif" font-size="14.00">ImmVal</text>
<path fill="none" stroke="black" d="M280.67,-95C280.67,-95 321.33,-95 321.33,-95 326.67,-95 332,-100.33 332,-105.67 332,-105.67 332,-116.33 332,-116.33 332,-121.67 326.67,-127 321.33,-127 321.33,-127 280.67,-127 280.67,-127 275.33,-127 270,-121.67 270,-116.33 270,-116.33 270,-105.67 270,-105.67 270,-100.33 275.33,-95 280.67,-95"/>
</a>
</g>
</g>
<!-- primitive&#45;i64&#45;4 -->
<g id="node2" class="node">
<title>primitive&#45;i64&#45;4</title>
<g id="a_node2"><a xlink:title="i64&#45;4: primitive&#45;i64&#45;4">
<path fill="white" stroke="transparent" d="M295.67,-16C295.67,-16 306.33,-16 306.33,-16 311.67,-16 317,-21.33 317,-26.67 317,-26.67 317,-37.33 317,-37.33 317,-42.67 311.67,-48 306.33,-48 306.33,-48 295.67,-48 295.67,-48 290.33,-48 285,-42.67 285,-37.33 285,-37.33 285,-26.67 285,-26.67 285,-21.33 290.33,-16 295.67,-16"/>
<text text-anchor="start" x="296" y="-28.3" font-family="Helvetica,sans-Serif" font-size="14.00">4</text>
<path fill="none" stroke="black" d="M295.67,-16C295.67,-16 306.33,-16 306.33,-16 311.67,-16 317,-21.33 317,-26.67 317,-26.67 317,-37.33 317,-37.33 317,-42.67 311.67,-48 306.33,-48 306.33,-48 295.67,-48 295.67,-48 290.33,-48 285,-42.67 285,-37.33 285,-37.33 285,-26.67 285,-26.67 285,-21.33 290.33,-16 295.67,-16"/>
</a>
</g>
</g>
<!-- function&#45;1&#45;ImmVal -->
<g id="node3" class="node">
<title>function&#45;1&#45;ImmVal</title>
<g id="a_node3"><a xlink:title="Imm&#45;4: function&#45;1&#45;ImmVal">
<path fill="white" stroke="transparent" d="M24.67,-174C24.67,-174 65.33,-174 65.33,-174 70.67,-174 76,-179.33 76,-184.67 76,-184.67 76,-195.33 76,-195.33 76,-200.67 70.67,-206 65.33,-206 65.33,-206 24.67,-206 24.67,-206 19.33,-206 14,-200.67 14,-195.33 14,-195.33 14,-184.67 14,-184.67 14,-179.33 19.33,-174 24.67,-174"/>
<text text-anchor="start" x="19" y="-186.3" font-family="Helvetica,sans-Serif" font-size="14.00">ImmVal</text>
<path fill="none" stroke="black" d="M24.67,-174C24.67,-174 65.33,-174 65.33,-174 70.67,-174 76,-179.33 76,-184.67 76,-184.67 76,-195.33 76,-195.33 76,-200.67 70.67,-206 65.33,-206 65.33,-206 24.67,-206 24.67,-206 19.33,-206 14,-200.67 14,-195.33 14,-195.33 14,-184.67 14,-184.67 14,-179.33 19.33,-174 24.67,-174"/>
</a>
</g>
</g>
<!-- primitive&#45;i64&#45;0 -->
<g id="node4" class="node">
<title>primitive&#45;i64&#45;0</title>
<g id="a_node4"><a xlink:title="i64&#45;0: primitive&#45;i64&#45;0">
<path fill="white" stroke="transparent" d="M39.67,-95C39.67,-95 50.33,-95 50.33,-95 55.67,-95 61,-100.33 61,-105.67 61,-105.67 61,-116.33 61,-116.33 61,-121.67 55.67,-127 50.33,-127 50.33,-127 39.67,-127 39.67,-127 34.33,-127 29,-121.67 29,-116.33 29,-116.33 29,-105.67 29,-105.67 29,-100.33 34.33,-95 39.67,-95"/>
<text text-anchor="start" x="40" y="-107.3" font-family="Helvetica,sans-Serif" font-size="14.00">0</text>
<path fill="none" stroke="black" d="M39.67,-95C39.67,-95 50.33,-95 50.33,-95 55.67,-95 61,-100.33 61,-105.67 61,-105.67 61,-116.33 61,-116.33 61,-121.67 55.67,-127 50.33,-127 50.33,-127 39.67,-127 39.67,-127 34.33,-127 29,-121.67 29,-116.33 29,-116.33 29,-105.67 29,-105.67 29,-100.33 34.33,-95 39.67,-95"/>
</a>
</g>
</g>
<!-- function&#45;0&#45;ImmVal -->
<g id="node5" class="node">
<title>function&#45;0&#45;ImmVal</title>
<g id="a_node5"><a xlink:title="Imm&#45;2: function&#45;0&#45;ImmVal">
<path fill="white" stroke="transparent" d="M112.67,-95C112.67,-95 153.33,-95 153.33,-95 158.67,-95 164,-100.33 164,-105.67 164,-105.67 164,-116.33 164,-116.33 164,-121.67 158.67,-127 153.33,-127 153.33,-127 112.67,-127 112.67,-127 107.33,-127 102,-121.67 102,-116.33 102,-116.33 102,-105.67 102,-105.67 102,-100.33 107.33,-95 112.67,-95"/>
<text text-anchor="start" x="107" y="-107.3" font-family="Helvetica,sans-Serif" font-size="14.00">ImmVal</text>
<path fill="none" stroke="black" d="M112.67,-95C112.67,-95 153.33,-95 153.33,-95 158.67,-95 164,-100.33 164,-105.67 164,-105.67 164,-116.33 164,-116.33 164,-121.67 158.67,-127 153.33,-127 153.33,-127 112.67,-127 112.67,-127 107.33,-127 102,-121.67 102,-116.33 102,-116.33 102,-105.67 102,-105.67 102,-100.33 107.33,-95 112.67,-95"/>
</a>
</g>
</g>
<!-- primitive&#45;i64&#45;56 -->
<g id="node6" class="node">
<title>primitive&#45;i64&#45;56</title>
<g id="a_node6"><a xlink:title="i64&#45;56: primitive&#45;i64&#45;56">
<path fill="white" stroke="transparent" d="M126.67,-16C126.67,-16 137.33,-16 137.33,-16 142.67,-16 148,-21.33 148,-26.67 148,-26.67 148,-37.33 148,-37.33 148,-42.67 142.67,-48 137.33,-48 137.33,-48 126.67,-48 126.67,-48 121.33,-48 116,-42.67 116,-37.33 116,-37.33 116,-26.67 116,-26.67 116,-21.33 121.33,-16 126.67,-16"/>
<text text-anchor="start" x="122.5" y="-28.3" font-family="Helvetica,sans-Serif" font-size="14.00">56</text>
<path fill="none" stroke="black" d="M126.67,-16C126.67,-16 137.33,-16 137.33,-16 142.67,-16 148,-21.33 148,-26.67 148,-26.67 148,-37.33 148,-37.33 148,-42.67 142.67,-48 137.33,-48 137.33,-48 126.67,-48 126.67,-48 121.33,-48 116,-42.67 116,-37.33 116,-37.33 116,-26.67 116,-26.67 116,-21.33 121.33,-16 126.67,-16"/>
</a>
</g>
</g>
<!-- function&#45;1&#45;Blt -->
<g id="node7" class="node">
<title>function&#45;1&#45;Blt</title>
<g id="a_node7"><a xlink:title="Inst&#45;10: function&#45;1&#45;Blt">
<path fill="white" stroke="transparent" d="M464.67,-253C464.67,-253 475.33,-253 475.33,-253 480.67,-253 486,-258.33 486,-263.67 486,-263.67 486,-274.33 486,-274.33 486,-279.67 480.67,-285 475.33,-285 475.33,-285 464.67,-285 464.67,-285 459.33,-285 454,-279.67 454,-274.33 454,-274.33 454,-263.67 454,-263.67 454,-258.33 459.33,-253 464.67,-253"/>
<text text-anchor="start" x="460.5" y="-265.3" font-family="Helvetica,sans-Serif" font-size="14.00">Blt</text>
<path fill="none" stroke="black" d="M464.67,-253C464.67,-253 475.33,-253 475.33,-253 480.67,-253 486,-258.33 486,-263.67 486,-263.67 486,-274.33 486,-274.33 486,-279.67 480.67,-285 475.33,-285 475.33,-285 464.67,-285 464.67,-285 459.33,-285 454,-279.67 454,-274.33 454,-274.33 454,-263.67 454,-263.67 454,-258.33 459.33,-253 464.67,-253"/>
</a>
</g>
</g>
<!-- function&#45;0&#45;Addi -->
<g id="node8" class="node">
<title>function&#45;0&#45;Addi</title>
<g id="a_node8"><a xlink:title="Inst&#45;3: function&#45;0&#45;Addi">
<path fill="white" stroke="transparent" d="M171.17,-174C171.17,-174 190.83,-174 190.83,-174 196.17,-174 201.5,-179.33 201.5,-184.67 201.5,-184.67 201.5,-195.33 201.5,-195.33 201.5,-200.67 196.17,-206 190.83,-206 190.83,-206 171.17,-206 171.17,-206 165.83,-206 160.5,-200.67 160.5,-195.33 160.5,-195.33 160.5,-184.67 160.5,-184.67 160.5,-179.33 165.83,-174 171.17,-174"/>
<text text-anchor="start" x="166" y="-186.3" font-family="Helvetica,sans-Serif" font-size="14.00">Addi</text>
<path fill="none" stroke="black" d="M171.17,-174C171.17,-174 190.83,-174 190.83,-174 196.17,-174 201.5,-179.33 201.5,-184.67 201.5,-184.67 201.5,-195.33 201.5,-195.33 201.5,-200.67 196.17,-206 190.83,-206 190.83,-206 171.17,-206 171.17,-206 165.83,-206 160.5,-200.67 160.5,-195.33 160.5,-195.33 160.5,-184.67 160.5,-184.67 160.5,-179.33 165.83,-174 171.17,-174"/>
</a>
</g>
</g>
<!-- function&#45;0&#45;RegVal -->
<g id="node9" class="node">
<title>function&#45;0&#45;RegVal</title>
<g id="a_node9"><a xlink:title="Inst&#45;0: function&#45;0&#45;RegVal">
<path fill="white" stroke="transparent" d="M417.17,-174C417.17,-174 452.83,-174 452.83,-174 458.17,-174 463.5,-179.33 463.5,-184.67 463.5,-184.67 463.5,-195.33 463.5,-195.33 463.5,-200.67 458.17,-206 452.83,-206 452.83,-206 417.17,-206 417.17,-206 411.83,-206 406.5,-200.67 406.5,-195.33 406.5,-195.33 406.5,-184.67 406.5,-184.67 406.5,-179.33 411.83,-174 417.17,-174"/>
<text text-anchor="start" x="412" y="-186.3" font-family="Helvetica,sans-Serif" font-size="14.00">RegVal</text>
<path fill="none" stroke="black" d="M417.17,-174C417.17,-174 452.83,-174 452.83,-174 458.17,-174 463.5,-179.33 463.5,-184.67 463.5,-184.67 463.5,-195.33 463.5,-195.33 463.5,-200.67 458.17,-206 452.83,-206 452.83,-206 417.17,-206 417.17,-206 411.83,-206 406.5,-200.67 406.5,-195.33 406.5,-195.33 406.5,-184.67 406.5,-184.67 406.5,-179.33 411.83,-174 417.17,-174"/>
</a>
</g>
</g>
<!-- function&#45;2&#45;Bge -->
<g id="node10" class="node">
<title>function&#45;2&#45;Bge</title>
<g id="a_node10"><a xlink:title="Inst&#45;10: function&#45;2&#45;Bge">
<path fill="white" stroke="transparent" d="M403.67,-253C403.67,-253 420.33,-253 420.33,-253 425.67,-253 431,-258.33 431,-263.67 431,-263.67 431,-274.33 431,-274.33 431,-279.67 425.67,-285 420.33,-285 420.33,-285 403.67,-285 403.67,-285 398.33,-285 393,-279.67 393,-274.33 393,-274.33 393,-263.67 393,-263.67 393,-258.33 398.33,-253 403.67,-253"/>
<text text-anchor="start" x="398" y="-265.3" font-family="Helvetica,sans-Serif" font-size="14.00">Bge</text>
<path fill="none" stroke="black" d="M403.67,-253C403.67,-253 420.33,-253 420.33,-253 425.67,-253 431,-258.33 431,-263.67 431,-263.67 431,-274.33 431,-274.33 431,-279.67 425.67,-285 420.33,-285 420.33,-285 403.67,-285 403.67,-285 398.33,-285 393,-279.67 393,-274.33 393,-274.33 393,-263.67 393,-263.67 393,-258.33 398.33,-253 403.67,-253"/>
</a>
</g>
</g>
<!-- function&#45;2&#45;Seq2 -->
<g id="node11" class="node">
<title>function&#45;2&#45;Seq2</title>
<g id="a_node11"><a xlink:title="Inst&#45;10: function&#45;2&#45;Seq2">
<path fill="white" stroke="transparent" d="M341.67,-253C341.67,-253 366.33,-253 366.33,-253 371.67,-253 377,-258.33 377,-263.67 377,-263.67 377,-274.33 377,-274.33 377,-279.67 371.67,-285 366.33,-285 366.33,-285 341.67,-285 341.67,-285 336.33,-285 331,-279.67 331,-274.33 331,-274.33 331,-263.67 331,-263.67 331,-258.33 336.33,-253 341.67,-253"/>
<text text-anchor="start" x="336" y="-265.3" font-family="Helvetica,sans-Serif" font-size="14.00">Seq2</text>
<path fill="none" stroke="black" d="M341.67,-253C341.67,-253 366.33,-253 366.33,-253 371.67,-253 377,-258.33 377,-263.67 377,-263.67 377,-274.33 377,-274.33 377,-279.67 371.67,-285 366.33,-285 366.33,-285 341.67,-285 341.67,-285 336.33,-285 331,-279.67 331,-274.33 331,-274.33 331,-263.67 331,-263.67 331,-258.33 336.33,-253 341.67,-253"/>
</a>
</g>
</g>
<!-- function&#45;1&#45;Seq2 -->
<g id="node12" class="node">
<title>function&#45;1&#45;Seq2</title>
<g id="a_node12"><a xlink:title="Inst&#45;7: function&#45;1&#45;Seq2">
<path fill="white" stroke="transparent" d="M275.67,-253C275.67,-253 300.33,-253 300.33,-253 305.67,-253 311,-258.33 311,-263.67 311,-263.67 311,-274.33 311,-274.33 311,-279.67 305.67,-285 300.33,-285 300.33,-285 275.67,-285 275.67,-285 270.33,-285 265,-279.67 265,-274.33 265,-274.33 265,-263.67 265,-263.67 265,-258.33 270.33,-253 275.67,-253"/>
<text text-anchor="start" x="270" y="-265.3" font-family="Helvetica,sans-Serif" font-size="14.00">Seq2</text>
<path fill="none" stroke="black" d="M275.67,-253C275.67,-253 300.33,-253 300.33,-253 305.67,-253 311,-258.33 311,-263.67 311,-263.67 311,-274.33 311,-274.33 311,-279.67 305.67,-285 300.33,-285 300.33,-285 275.67,-285 275.67,-285 270.33,-285 265,-279.67 265,-274.33 265,-274.33 265,-263.67 265,-263.67 265,-258.33 270.33,-253 275.67,-253"/>
</a>
</g>
</g>
<!-- function&#45;1&#45;Jal -->
<g id="node13" class="node">
<title>function&#45;1&#45;Jal</title>
<g id="a_node13"><a xlink:title="Inst&#45;11: function&#45;1&#45;Jal">
<path fill="white" stroke="transparent" d="M295.67,-174C295.67,-174 306.33,-174 306.33,-174 311.67,-174 317,-179.33 317,-184.67 317,-184.67 317,-195.33 317,-195.33 317,-200.67 311.67,-206 306.33,-206 306.33,-206 295.67,-206 295.67,-206 290.33,-206 285,-200.67 285,-195.33 285,-195.33 285,-184.67 285,-184.67 285,-179.33 290.33,-174 295.67,-174"/>
<text text-anchor="start" x="292.5" y="-186.3" font-family="Helvetica,sans-Serif" font-size="14.00">Jal</text>
<path fill="none" stroke="black" d="M295.67,-174C295.67,-174 306.33,-174 306.33,-174 311.67,-174 317,-179.33 317,-184.67 317,-184.67 317,-195.33 317,-195.33 317,-200.67 311.67,-206 306.33,-206 306.33,-206 295.67,-206 295.67,-206 290.33,-206 285,-200.67 285,-195.33 285,-195.33 285,-184.67 285,-184.67 285,-179.33 290.33,-174 295.67,-174"/>
</a>
</g>
</g>
<!-- function&#45;1&#45;RegVal -->
<g id="node14" class="node">
<title>function&#45;1&#45;RegVal</title>
<g id="a_node14"><a xlink:title="Inst&#45;1: function&#45;1&#45;RegVal">
<path fill="white" stroke="transparent" d="M187.17,-95C187.17,-95 222.83,-95 222.83,-95 228.17,-95 233.5,-100.33 233.5,-105.67 233.5,-105.67 233.5,-116.33 233.5,-116.33 233.5,-121.67 228.17,-127 222.83,-127 222.83,-127 187.17,-127 187.17,-127 181.83,-127 176.5,-121.67 176.5,-116.33 176.5,-116.33 176.5,-105.67 176.5,-105.67 176.5,-100.33 181.83,-95 187.17,-95"/>
<text text-anchor="start" x="182" y="-107.3" font-family="Helvetica,sans-Serif" font-size="14.00">RegVal</text>
<path fill="none" stroke="black" d="M187.17,-95C187.17,-95 222.83,-95 222.83,-95 228.17,-95 233.5,-100.33 233.5,-105.67 233.5,-105.67 233.5,-116.33 233.5,-116.33 233.5,-121.67 228.17,-127 222.83,-127 222.83,-127 187.17,-127 187.17,-127 181.83,-127 176.5,-121.67 176.5,-116.33 176.5,-116.33 176.5,-105.67 176.5,-105.67 176.5,-100.33 181.83,-95 187.17,-95"/>
</a>
</g>
</g>
<!-- primitive&#45;String&#45;0 -->
<g id="node15" class="node">
<title>primitive&#45;String&#45;0</title>
<g id="a_node15"><a xlink:title="String&#45;0: primitive&#45;String&#45;0">
<path fill="white" stroke="transparent" d="M418.17,-95C418.17,-95 453.83,-95 453.83,-95 459.17,-95 464.5,-100.33 464.5,-105.67 464.5,-105.67 464.5,-116.33 464.5,-116.33 464.5,-121.67 459.17,-127 453.83,-127 453.83,-127 418.17,-127 418.17,-127 412.83,-127 407.5,-121.67 407.5,-116.33 407.5,-116.33 407.5,-105.67 407.5,-105.67 407.5,-100.33 412.83,-95 418.17,-95"/>
<text text-anchor="start" x="413" y="-107.3" font-family="Helvetica,sans-Serif" font-size="14.00">&quot;a4_0&quot;</text>
<path fill="none" stroke="black" d="M418.17,-95C418.17,-95 453.83,-95 453.83,-95 459.17,-95 464.5,-100.33 464.5,-105.67 464.5,-105.67 464.5,-116.33 464.5,-116.33 464.5,-121.67 459.17,-127 453.83,-127 453.83,-127 418.17,-127 418.17,-127 412.83,-127 407.5,-121.67 407.5,-116.33 407.5,-116.33 407.5,-105.67 407.5,-105.67 407.5,-100.33 412.83,-95 418.17,-95"/>
</a>
</g>
</g>
<!-- primitive&#45;String&#45;1 -->
<g id="node16" class="node">
<title>primitive&#45;String&#45;1</title>
<g id="a_node16"><a xlink:title="String&#45;1: primitive&#45;String&#45;1">
<path fill="white" stroke="transparent" d="M182.17,-16C182.17,-16 229.83,-16 229.83,-16 235.17,-16 240.5,-21.33 240.5,-26.67 240.5,-26.67 240.5,-37.33 240.5,-37.33 240.5,-42.67 235.17,-48 229.83,-48 229.83,-48 182.17,-48 182.17,-48 176.83,-48 171.5,-42.67 171.5,-37.33 171.5,-37.33 171.5,-26.67 171.5,-26.67 171.5,-21.33 176.83,-16 182.17,-16"/>
<text text-anchor="start" x="177" y="-28.3" font-family="Helvetica,sans-Serif" font-size="14.00">&quot;zero_0&quot;</text>
<path fill="none" stroke="black" d="M182.17,-16C182.17,-16 229.83,-16 229.83,-16 235.17,-16 240.5,-21.33 240.5,-26.67 240.5,-26.67 240.5,-37.33 240.5,-37.33 240.5,-42.67 235.17,-48 229.83,-48 229.83,-48 182.17,-48 182.17,-48 176.83,-48 171.5,-42.67 171.5,-37.33 171.5,-37.33 171.5,-26.67 171.5,-26.67 171.5,-21.33 176.83,-16 182.17,-16"/>
</a>
</g>
</g>
<!-- function&#45;0&#45;Jal -->
<g id="node17" class="node">
<title>function&#45;0&#45;Jal</title>
<g id="a_node17"><a xlink:title="Inst&#45;8: function&#45;0&#45;Jal">
<path fill="white" stroke="transparent" d="M78.67,-253C78.67,-253 89.33,-253 89.33,-253 94.67,-253 100,-258.33 100,-263.67 100,-263.67 100,-274.33 100,-274.33 100,-279.67 94.67,-285 89.33,-285 89.33,-285 78.67,-285 78.67,-285 73.33,-285 68,-279.67 68,-274.33 68,-274.33 68,-263.67 68,-263.67 68,-258.33 73.33,-253 78.67,-253"/>
<text text-anchor="start" x="75.5" y="-265.3" font-family="Helvetica,sans-Serif" font-size="14.00">Jal</text>
<path fill="none" stroke="black" d="M78.67,-253C78.67,-253 89.33,-253 89.33,-253 94.67,-253 100,-258.33 100,-263.67 100,-263.67 100,-274.33 100,-274.33 100,-279.67 94.67,-285 89.33,-285 89.33,-285 78.67,-285 78.67,-285 73.33,-285 68,-279.67 68,-274.33 68,-274.33 68,-263.67 68,-263.67 68,-258.33 73.33,-253 78.67,-253"/>
</a>
</g>
</g>
<!-- function&#45;0&#45;Blt -->
<g id="node18" class="node">
<title>function&#45;0&#45;Blt</title>
<g id="a_node18"><a xlink:title="Inst&#45;5: function&#45;0&#45;Blt">
<path fill="white" stroke="transparent" d="M177.67,-332C177.67,-332 188.33,-332 188.33,-332 193.67,-332 199,-337.33 199,-342.67 199,-342.67 199,-353.33 199,-353.33 199,-358.67 193.67,-364 188.33,-364 188.33,-364 177.67,-364 177.67,-364 172.33,-364 167,-358.67 167,-353.33 167,-353.33 167,-342.67 167,-342.67 167,-337.33 172.33,-332 177.67,-332"/>
<text text-anchor="start" x="173.5" y="-344.3" font-family="Helvetica,sans-Serif" font-size="14.00">Blt</text>
<path fill="none" stroke="black" d="M177.67,-332C177.67,-332 188.33,-332 188.33,-332 193.67,-332 199,-337.33 199,-342.67 199,-342.67 199,-353.33 199,-353.33 199,-358.67 193.67,-364 188.33,-364 188.33,-364 177.67,-364 177.67,-364 172.33,-364 167,-358.67 167,-353.33 167,-353.33 167,-342.67 167,-342.67 167,-337.33 172.33,-332 177.67,-332"/>
</a>
</g>
</g>
<!-- function&#45;0&#45;Bge -->
<g id="node19" class="node">
<title>function&#45;0&#45;Bge</title>
<g id="a_node19"><a xlink:title="Inst&#45;5: function&#45;0&#45;Bge">
<path fill="white" stroke="transparent" d="M116.67,-332C116.67,-332 133.33,-332 133.33,-332 138.67,-332 144,-337.33 144,-342.67 144,-342.67 144,-353.33 144,-353.33 144,-358.67 138.67,-364 133.33,-364 133.33,-364 116.67,-364 116.67,-364 111.33,-364 106,-358.67 106,-353.33 106,-353.33 106,-342.67 106,-342.67 106,-337.33 111.33,-332 116.67,-332"/>
<text text-anchor="start" x="111" y="-344.3" font-family="Helvetica,sans-Serif" font-size="14.00">Bge</text>
<path fill="none" stroke="black" d="M116.67,-332C116.67,-332 133.33,-332 133.33,-332 138.67,-332 144,-337.33 144,-342.67 144,-342.67 144,-353.33 144,-353.33 144,-358.67 138.67,-364 133.33,-364 133.33,-364 116.67,-364 116.67,-364 111.33,-364 106,-358.67 106,-353.33 106,-353.33 106,-342.67 106,-342.67 106,-337.33 111.33,-332 116.67,-332"/>
</a>
</g>
</g>
<!-- function&#45;0&#45;Seq2 -->
<g id="node20" class="node">
<title>function&#45;0&#45;Seq2</title>
<g id="a_node20"><a xlink:title="Inst&#45;5: function&#45;0&#45;Seq2">
<path fill="white" stroke="transparent" d="M54.67,-332C54.67,-332 79.33,-332 79.33,-332 84.67,-332 90,-337.33 90,-342.67 90,-342.67 90,-353.33 90,-353.33 90,-358.67 84.67,-364 79.33,-364 79.33,-364 54.67,-364 54.67,-364 49.33,-364 44,-358.67 44,-353.33 44,-353.33 44,-342.67 44,-342.67 44,-337.33 49.33,-332 54.67,-332"/>
<text text-anchor="start" x="49" y="-344.3" font-family="Helvetica,sans-Serif" font-size="14.00">Seq2</text>
<path fill="none" stroke="black" d="M54.67,-332C54.67,-332 79.33,-332 79.33,-332 84.67,-332 90,-337.33 90,-342.67 90,-342.67 90,-353.33 90,-353.33 90,-358.67 84.67,-364 79.33,-364 79.33,-364 54.67,-364 54.67,-364 49.33,-364 44,-358.67 44,-353.33 44,-353.33 44,-342.67 44,-342.67 44,-337.33 49.33,-332 54.67,-332"/>
</a>
</g>
</g>
<!-- function&#45;2&#45;Blt -->
<g id="node21" class="node">
<title>function&#45;2&#45;Blt</title>
<g id="a_node21"><a xlink:title="Inst&#45;7: function&#45;2&#45;Blt">
<path fill="white" stroke="transparent" d="M166.67,-253C166.67,-253 177.33,-253 177.33,-253 182.67,-253 188,-258.33 188,-263.67 188,-263.67 188,-274.33 188,-274.33 188,-279.67 182.67,-285 177.33,-285 177.33,-285 166.67,-285 166.67,-285 161.33,-285 156,-279.67 156,-274.33 156,-274.33 156,-263.67 156,-263.67 156,-258.33 161.33,-253 166.67,-253"/>
<text text-anchor="start" x="162.5" y="-265.3" font-family="Helvetica,sans-Serif" font-size="14.00">Blt</text>
<path fill="none" stroke="black" d="M166.67,-253C166.67,-253 177.33,-253 177.33,-253 182.67,-253 188,-258.33 188,-263.67 188,-263.67 188,-274.33 188,-274.33 188,-279.67 182.67,-285 177.33,-285 177.33,-285 166.67,-285 166.67,-285 161.33,-285 156,-279.67 156,-274.33 156,-274.33 156,-263.67 156,-263.67 156,-258.33 161.33,-253 166.67,-253"/>
</a>
</g>
</g>
<!-- function&#45;1&#45;Bge -->
<g id="node22" class="node">
<title>function&#45;1&#45;Bge</title>
<g id="a_node22"><a xlink:title="Inst&#45;7: function&#45;1&#45;Bge">
<path fill="white" stroke="transparent" d="M221.67,-253C221.67,-253 238.33,-253 238.33,-253 243.67,-253 249,-258.33 249,-263.67 249,-263.67 249,-274.33 249,-274.33 249,-279.67 243.67,-285 238.33,-285 238.33,-285 221.67,-285 221.67,-285 216.33,-285 211,-279.67 211,-274.33 211,-274.33 211,-263.67 211,-263.67 211,-258.33 216.33,-253 221.67,-253"/>
<text text-anchor="start" x="216" y="-265.3" font-family="Helvetica,sans-Serif" font-size="14.00">Bge</text>
<path fill="none" stroke="black" d="M221.67,-253C221.67,-253 238.33,-253 238.33,-253 243.67,-253 249,-258.33 249,-263.67 249,-263.67 249,-274.33 249,-274.33 249,-279.67 243.67,-285 238.33,-285 238.33,-285 221.67,-285 221.67,-285 216.33,-285 211,-279.67 211,-274.33 211,-274.33 211,-263.67 211,-263.67 211,-258.33 216.33,-253 221.67,-253"/>
</a>
</g>
</g>
</g>
</svg>
