<?xml version="1.0" encoding="UTF-8" standalone="no"?>
<!DOCTYPE svg PUBLIC "-//W3C//DTD SVG 1.1//EN"
 "http://www.w3.org/Graphics/SVG/1.1/DTD/svg11.dtd">
<!-- Generated by graphviz version 2.43.0 (0)
 -->
<!-- Title: %3 Pages: 1 -->
<svg width="168pt" height="309pt"
 viewBox="0.00 0.00 168.00 309.00" xmlns="http://www.w3.org/2000/svg" xmlns:xlink="http://www.w3.org/1999/xlink">
<g id="graph0" class="graph" transform="scale(1 1) rotate(0) translate(4 305)">
<title>%3</title>
<polygon fill="white" stroke="#000000" points="-4,4 -4,-305 164,-305 164,4 -4,4"/>
<g id="clust1" class="cluster">
<title>outer_cluster_Imm&#45;1</title>
</g>
<g id="clust2" class="cluster">
<title>cluster_Imm&#45;1</title>
<path fill="#ffffb3" stroke="black" stroke-dasharray="5,2" d="M93,-90C93,-90 137,-90 137,-90 143,-90 149,-96 149,-102 149,-102 149,-120 149,-120 149,-126 143,-132 137,-132 137,-132 93,-132 93,-132 87,-132 81,-126 81,-120 81,-120 81,-102 81,-102 81,-96 87,-90 93,-90"/>
</g>
<g id="clust4" class="cluster">
<title>outer_cluster_Inst&#45;3</title>
</g>
<g id="clust5" class="cluster">
<title>cluster_Inst&#45;3</title>
<path fill="#bebada" stroke="black" stroke-dasharray="5,2" d="M25,-248C25,-248 119,-248 119,-248 125,-248 131,-254 131,-260 131,-260 131,-278 131,-278 131,-284 125,-290 119,-290 119,-290 25,-290 25,-290 19,-290 13,-284 13,-278 13,-278 13,-260 13,-260 13,-254 19,-248 25,-248"/>
</g>
<g id="clust7" class="cluster">
<title>outer_cluster_Inst&#45;2</title>
</g>
<g id="clust8" class="cluster">
<title>cluster_Inst&#45;2</title>
<path fill="#bebada" stroke="black" stroke-dasharray="5,2" d="M95,-169C95,-169 131,-169 131,-169 137,-169 143,-175 143,-181 143,-181 143,-199 143,-199 143,-205 137,-211 131,-211 131,-211 95,-211 95,-211 89,-211 83,-205 83,-199 83,-199 83,-181 83,-181 83,-175 89,-169 95,-169"/>
</g>
<g id="clust10" class="cluster">
<title>outer_cluster_Inst&#45;0</title>
</g>
<g id="clust11" class="cluster">
<title>cluster_Inst&#45;0</title>
<path fill="#bebada" stroke="black" stroke-dasharray="5,2" d="M25,-169C25,-169 65,-169 65,-169 71,-169 77,-175 77,-181 77,-181 77,-199 77,-199 77,-205 71,-211 65,-211 65,-211 25,-211 25,-211 19,-211 13,-205 13,-199 13,-199 13,-181 13,-181 13,-175 19,-169 25,-169"/>
</g>
<g id="clust13" class="cluster">
<title>outer_cluster_String&#45;0</title>
</g>
<g id="clust14" class="cluster">
<title>cluster_String&#45;0</title>
<path fill="#fb8072" stroke="black" stroke-dasharray="5,2" d="M23,-90C23,-90 63,-90 63,-90 69,-90 75,-96 75,-102 75,-102 75,-120 75,-120 75,-126 69,-132 63,-132 63,-132 23,-132 23,-132 17,-132 11,-126 11,-120 11,-120 11,-102 11,-102 11,-96 17,-90 23,-90"/>
</g>
<g id="clust16" class="cluster">
<title>outer_cluster_i64&#45;2048</title>
</g>
<g id="clust17" class="cluster">
<title>cluster_i64&#45;2048</title>
<path fill="#80b1d3" stroke="black" stroke-dasharray="5,2" d="M97,-11C97,-11 133,-11 133,-11 139,-11 145,-17 145,-23 145,-23 145,-41 145,-41 145,-47 139,-53 133,-53 133,-53 97,-53 97,-53 91,-53 85,-47 85,-41 85,-41 85,-23 85,-23 85,-17 91,-11 97,-11"/>
</g>
<!-- function&#45;0&#45;ImmVal&#45;&gt;primitive&#45;i64&#45;2048 -->
<g id="edge1" class="edge">
<title>function&#45;0&#45;ImmVal:s&#45;&gt;primitive&#45;i64&#45;2048</title>
<path fill="none" stroke="black" d="M115,-95C115,-81.84 115,-67.11 115,-55.3"/>
<polygon fill="black" stroke="black" points="116.75,-58 115,-53 113.25,-58 116.75,-58"/>
</g>
<!-- function&#45;0&#45;Or&#45;&gt;function&#45;0&#45;RegVal -->
<g id="edge2" class="edge">
<title>function&#45;0&#45;Or:s&#45;&gt;function&#45;0&#45;RegVal</title>
<path fill="none" stroke="black" d="M93,-253C93,-236.98 82.85,-222.58 71.89,-211.71"/>
<polygon fill="black" stroke="black" points="75.45,-211.26 70.16,-211 74.13,-214.51 75.45,-211.26"/>
</g>
<!-- function&#45;0&#45;Or&#45;&gt;function&#45;0&#45;Lui -->
<g id="edge3" class="edge">
<title>function&#45;0&#45;Or:s&#45;&gt;function&#45;0&#45;Lui</title>
<path fill="none" stroke="black" d="M109,-253C109,-239.81 109.91,-225.08 110.87,-213.28"/>
<polygon fill="black" stroke="black" points="112.08,-216.24 111.3,-211 108.64,-215.58 112.08,-216.24"/>
</g>
<!-- function&#45;0&#45;RegVal&#45;&gt;primitive&#45;String&#45;0 -->
<g id="edge7" class="edge">
<title>function&#45;0&#45;RegVal:s&#45;&gt;primitive&#45;String&#45;0</title>
<path fill="none" stroke="black" d="M46,-174C46,-160.82 45.32,-146.09 44.6,-134.29"/>
<polygon fill="black" stroke="black" points="46.71,-136.7 44.27,-132 43.25,-137.2 46.71,-136.7"/>
</g>
<!-- function&#45;0&#45;Lui&#45;&gt;function&#45;0&#45;ImmVal -->
<g id="edge6" class="edge">
<title>function&#45;0&#45;Lui:s&#45;&gt;function&#45;0&#45;ImmVal</title>
<path fill="none" stroke="black" d="M113,-174C113,-160.83 113.46,-146.1 113.93,-134.3"/>
<polygon fill="black" stroke="black" points="115.42,-137.14 114.15,-132 111.94,-136.81 115.42,-137.14"/>
</g>
<!-- function&#45;1&#45;Or&#45;&gt;function&#45;0&#45;RegVal -->
<g id="edge5" class="edge">
<title>function&#45;1&#45;Or:s&#45;&gt;function&#45;0&#45;RegVal</title>
<path fill="none" stroke="black" d="M51,-253C51,-239.78 49.63,-225.04 48.2,-213.25"/>
<polygon fill="black" stroke="black" points="50.62,-215.31 47.54,-211 47.26,-216.29 50.62,-215.31"/>
</g>
<!-- function&#45;1&#45;Or&#45;&gt;function&#45;0&#45;Lui -->
<g id="edge4" class="edge">
<title>function&#45;1&#45;Or:s&#45;&gt;function&#45;0&#45;Lui</title>
<path fill="none" stroke="black" d="M35,-253C35,-246.59 61.11,-226.84 83.12,-211.34"/>
<polygon fill="black" stroke="black" points="80.04,-213.92 84.46,-211 79.18,-210.52 80.04,-213.92"/>
</g>
<!-- function&#45;0&#45;ImmVal -->
<g id="node1" class="node">
<title>function&#45;0&#45;ImmVal</title>
<g id="a_node1"><a xlink:title="Imm&#45;1: function&#45;0&#45;ImmVal">
<path fill="white" stroke="transparent" d="M94.67,-95C94.67,-95 135.33,-95 135.33,-95 140.67,-95 146,-100.33 146,-105.67 146,-105.67 146,-116.33 146,-116.33 146,-121.67 140.67,-127 135.33,-127 135.33,-127 94.67,-127 94.67,-127 89.33,-127 84,-121.67 84,-116.33 84,-116.33 84,-105.67 84,-105.67 84,-100.33 89.33,-95 94.67,-95"/>
<text text-anchor="start" x="89" y="-107.3" font-family="Helvetica,sans-Serif" font-size="14.00">ImmVal</text>
<path fill="none" stroke="black" d="M94.67,-95C94.67,-95 135.33,-95 135.33,-95 140.67,-95 146,-100.33 146,-105.67 146,-105.67 146,-116.33 146,-116.33 146,-121.67 140.67,-127 135.33,-127 135.33,-127 94.67,-127 94.67,-127 89.33,-127 84,-121.67 84,-116.33 84,-116.33 84,-105.67 84,-105.67 84,-100.33 89.33,-95 94.67,-95"/>
</a>
</g>
</g>
<!-- primitive&#45;i64&#45;2048 -->
<g id="node2" class="node">
<title>primitive&#45;i64&#45;2048</title>
<g id="a_node2"><a xlink:title="i64&#45;2048: primitive&#45;i64&#45;2048">
<path fill="white" stroke="transparent" d="M102.17,-16C102.17,-16 127.83,-16 127.83,-16 133.17,-16 138.5,-21.33 138.5,-26.67 138.5,-26.67 138.5,-37.33 138.5,-37.33 138.5,-42.67 133.17,-48 127.83,-48 127.83,-48 102.17,-48 102.17,-48 96.83,-48 91.5,-42.67 91.5,-37.33 91.5,-37.33 91.5,-26.67 91.5,-26.67 91.5,-21.33 96.83,-16 102.17,-16"/>
<text text-anchor="start" x="97" y="-28.3" font-family="Helvetica,sans-Serif" font-size="14.00">2048</text>
<path fill="none" stroke="black" d="M102.17,-16C102.17,-16 127.83,-16 127.83,-16 133.17,-16 138.5,-21.33 138.5,-26.67 138.5,-26.67 138.5,-37.33 138.5,-37.33 138.5,-42.67 133.17,-48 127.83,-48 127.83,-48 102.17,-48 102.17,-48 96.83,-48 91.5,-42.67 91.5,-37.33 91.5,-37.33 91.5,-26.67 91.5,-26.67 91.5,-21.33 96.83,-16 102.17,-16"/>
</a>
</g>
</g>
<!-- function&#45;0&#45;Or -->
<g id="node3" class="node">
<title>function&#45;0&#45;Or</title>
<g id="a_node3"><a xlink:title="Inst&#45;3: function&#45;0&#45;Or">
<path fill="white" stroke="transparent" d="M95.67,-253C95.67,-253 106.33,-253 106.33,-253 111.67,-253 117,-258.33 117,-263.67 117,-263.67 117,-274.33 117,-274.33 117,-279.67 111.67,-285 106.33,-285 106.33,-285 95.67,-285 95.67,-285 90.33,-285 85,-279.67 85,-274.33 85,-274.33 85,-263.67 85,-263.67 85,-258.33 90.33,-253 95.67,-253"/>
<text text-anchor="start" x="92" y="-265.3" font-family="Helvetica,sans-Serif" font-size="14.00">Or</text>
<path fill="none" stroke="black" d="M95.67,-253C95.67,-253 106.33,-253 106.33,-253 111.67,-253 117,-258.33 117,-263.67 117,-263.67 117,-274.33 117,-274.33 117,-279.67 111.67,-285 106.33,-285 106.33,-285 95.67,-285 95.67,-285 90.33,-285 85,-279.67 85,-274.33 85,-274.33 85,-263.67 85,-263.67 85,-258.33 90.33,-253 95.67,-253"/>
</a>
</g>
</g>
<!-- function&#45;0&#45;RegVal -->
<g id="node4" class="node">
<title>function&#45;0&#45;RegVal</title>
<g id="a_node4"><a xlink:title="Inst&#45;0: function&#45;0&#45;RegVal">
<path fill="white" stroke="transparent" d="M27.17,-174C27.17,-174 62.83,-174 62.83,-174 68.17,-174 73.5,-179.33 73.5,-184.67 73.5,-184.67 73.5,-195.33 73.5,-195.33 73.5,-200.67 68.17,-206 62.83,-206 62.83,-206 27.17,-206 27.17,-206 21.83,-206 16.5,-200.67 16.5,-195.33 16.5,-195.33 16.5,-184.67 16.5,-184.67 16.5,-179.33 21.83,-174 27.17,-174"/>
<text text-anchor="start" x="22" y="-186.3" font-family="Helvetica,sans-Serif" font-size="14.00">RegVal</text>
<path fill="none" stroke="black" d="M27.17,-174C27.17,-174 62.83,-174 62.83,-174 68.17,-174 73.5,-179.33 73.5,-184.67 73.5,-184.67 73.5,-195.33 73.5,-195.33 73.5,-200.67 68.17,-206 62.83,-206 62.83,-206 27.17,-206 27.17,-206 21.83,-206 16.5,-200.67 16.5,-195.33 16.5,-195.33 16.5,-184.67 16.5,-184.67 16.5,-179.33 21.83,-174 27.17,-174"/>
</a>
</g>
</g>
<!-- function&#45;0&#45;Lui -->
<g id="node5" class="node">
<title>function&#45;0&#45;Lui</title>
<g id="a_node5"><a xlink:title="Inst&#45;2: function&#45;0&#45;Lui">
<path fill="white" stroke="transparent" d="M107.67,-174C107.67,-174 118.33,-174 118.33,-174 123.67,-174 129,-179.33 129,-184.67 129,-184.67 129,-195.33 129,-195.33 129,-200.67 123.67,-206 118.33,-206 118.33,-206 107.67,-206 107.67,-206 102.33,-206 97,-200.67 97,-195.33 97,-195.33 97,-184.67 97,-184.67 97,-179.33 102.33,-174 107.67,-174"/>
<text text-anchor="start" x="102.5" y="-186.3" font-family="Helvetica,sans-Serif" font-size="14.00">Lui</text>
<path fill="none" stroke="black" d="M107.67,-174C107.67,-174 118.33,-174 118.33,-174 123.67,-174 129,-179.33 129,-184.67 129,-184.67 129,-195.33 129,-195.33 129,-200.67 123.67,-206 118.33,-206 118.33,-206 107.67,-206 107.67,-206 102.33,-206 97,-200.67 97,-195.33 97,-195.33 97,-184.67 97,-184.67 97,-179.33 102.33,-174 107.67,-174"/>
</a>
</g>
</g>
<!-- function&#45;1&#45;Or -->
<g id="node6" class="node">
<title>function&#45;1&#45;Or</title>
<g id="a_node6"><a xlink:title="Inst&#45;3: function&#45;1&#45;Or">
<path fill="white" stroke="transparent" d="M37.67,-253C37.67,-253 48.33,-253 48.33,-253 53.67,-253 59,-258.33 59,-263.67 59,-263.67 59,-274.33 59,-274.33 59,-279.67 53.67,-285 48.33,-285 48.33,-285 37.67,-285 37.67,-285 32.33,-285 27,-279.67 27,-274.33 27,-274.33 27,-263.67 27,-263.67 27,-258.33 32.33,-253 37.67,-253"/>
<text text-anchor="start" x="34" y="-265.3" font-family="Helvetica,sans-Serif" font-size="14.00">Or</text>
<path fill="none" stroke="black" d="M37.67,-253C37.67,-253 48.33,-253 48.33,-253 53.67,-253 59,-258.33 59,-263.67 59,-263.67 59,-274.33 59,-274.33 59,-279.67 53.67,-285 48.33,-285 48.33,-285 37.67,-285 37.67,-285 32.33,-285 27,-279.67 27,-274.33 27,-274.33 27,-263.67 27,-263.67 27,-258.33 32.33,-253 37.67,-253"/>
</a>
</g>
</g>
<!-- primitive&#45;String&#45;0 -->
<g id="node7" class="node">
<title>primitive&#45;String&#45;0</title>
<g id="a_node7"><a xlink:title="String&#45;0: primitive&#45;String&#45;0">
<path fill="white" stroke="transparent" d="M25.17,-95C25.17,-95 60.83,-95 60.83,-95 66.17,-95 71.5,-100.33 71.5,-105.67 71.5,-105.67 71.5,-116.33 71.5,-116.33 71.5,-121.67 66.17,-127 60.83,-127 60.83,-127 25.17,-127 25.17,-127 19.83,-127 14.5,-121.67 14.5,-116.33 14.5,-116.33 14.5,-105.67 14.5,-105.67 14.5,-100.33 19.83,-95 25.17,-95"/>
<text text-anchor="start" x="20" y="-107.3" font-family="Helvetica,sans-Serif" font-size="14.00">&quot;a6_0&quot;</text>
<path fill="none" stroke="black" d="M25.17,-95C25.17,-95 60.83,-95 60.83,-95 66.17,-95 71.5,-100.33 71.5,-105.67 71.5,-105.67 71.5,-116.33 71.5,-116.33 71.5,-121.67 66.17,-127 60.83,-127 60.83,-127 25.17,-127 25.17,-127 19.83,-127 14.5,-121.67 14.5,-116.33 14.5,-116.33 14.5,-105.67 14.5,-105.67 14.5,-100.33 19.83,-95 25.17,-95"/>
</a>
</g>
</g>
</g>
</svg>
