<?xml version="1.0" encoding="UTF-8" standalone="no"?>
<!DOCTYPE svg PUBLIC "-//W3C//DTD SVG 1.1//EN"
 "http://www.w3.org/Graphics/SVG/1.1/DTD/svg11.dtd">
<!-- Generated by graphviz version 2.43.0 (0)
 -->
<!-- Title: %3 Pages: 1 -->
<svg width="512pt" height="388pt"
 viewBox="0.00 0.00 512.24 388.00" xmlns="http://www.w3.org/2000/svg" xmlns:xlink="http://www.w3.org/1999/xlink">
<g id="graph0" class="graph" transform="scale(1 1) rotate(0) translate(4 384)">
<title>%3</title>
<polygon fill="white" stroke="#000000" points="-4,4 -4,-384 508.24,-384 508.24,4 -4,4"/>
<g id="clust1" class="cluster">
<title>outer_cluster_Imm&#45;2</title>
</g>
<g id="clust2" class="cluster">
<title>cluster_Imm&#45;2</title>
<path fill="#ffffb3" stroke="black" stroke-dasharray="5,2" d="M64,-169C64,-169 108,-169 108,-169 114,-169 120,-175 120,-181 120,-181 120,-199 120,-199 120,-205 114,-211 108,-211 108,-211 64,-211 64,-211 58,-211 52,-205 52,-199 52,-199 52,-181 52,-181 52,-175 58,-169 64,-169"/>
</g>
<g id="clust4" class="cluster">
<title>outer_cluster_Imm&#45;4</title>
</g>
<g id="clust5" class="cluster">
<title>cluster_Imm&#45;4</title>
<path fill="#ffffb3" stroke="black" stroke-dasharray="5,2" d="M274,-90C274,-90 318,-90 318,-90 324,-90 330,-96 330,-102 330,-102 330,-120 330,-120 330,-126 324,-132 318,-132 318,-132 274,-132 274,-132 268,-132 262,-126 262,-120 262,-120 262,-102 262,-102 262,-96 268,-90 274,-90"/>
</g>
<g id="clust7" class="cluster">
<title>outer_cluster_Inst&#45;0</title>
</g>
<g id="clust8" class="cluster">
<title>cluster_Inst&#45;0</title>
<path fill="#bebada" stroke="black" stroke-dasharray="5,2" d="M143,-169C143,-169 183,-169 183,-169 189,-169 195,-175 195,-181 195,-181 195,-199 195,-199 195,-205 189,-211 183,-211 183,-211 143,-211 143,-211 137,-211 131,-205 131,-199 131,-199 131,-181 131,-181 131,-175 137,-169 143,-169"/>
</g>
<g id="clust10" class="cluster">
<title>outer_cluster_Inst&#45;1</title>
</g>
<g id="clust11" class="cluster">
<title>cluster_Inst&#45;1</title>
<path fill="#bebada" stroke="black" stroke-dasharray="5,2" d="M401,-169C401,-169 441,-169 441,-169 447,-169 453,-175 453,-181 453,-181 453,-199 453,-199 453,-205 447,-211 441,-211 441,-211 401,-211 401,-211 395,-211 389,-205 389,-199 389,-199 389,-181 389,-181 389,-175 395,-169 401,-169"/>
</g>
<g id="clust13" class="cluster">
<title>outer_cluster_Inst&#45;8</title>
</g>
<g id="clust14" class="cluster">
<title>cluster_Inst&#45;8</title>
<path fill="#bebada" stroke="black" stroke-dasharray="5,2" d="M278,-169C278,-169 314,-169 314,-169 320,-169 326,-175 326,-181 326,-181 326,-199 326,-199 326,-205 320,-211 314,-211 314,-211 278,-211 278,-211 272,-211 266,-205 266,-199 266,-199 266,-181 266,-181 266,-175 272,-169 278,-169"/>
</g>
<g id="clust16" class="cluster">
<title>outer_cluster_Inst&#45;6</title>
</g>
<g id="clust17" class="cluster">
<title>cluster_Inst&#45;6</title>
<path fill="#bebada" stroke="black" stroke-dasharray="5,2" d="M29,-248C29,-248 65,-248 65,-248 71,-248 77,-254 77,-260 77,-260 77,-278 77,-278 77,-284 71,-290 65,-290 65,-290 29,-290 29,-290 23,-290 17,-284 17,-278 17,-278 17,-260 17,-260 17,-254 23,-248 29,-248"/>
</g>
<g id="clust19" class="cluster">
<title>outer_cluster_Inst&#45;3</title>
</g>
<g id="clust20" class="cluster">
<title>cluster_Inst&#45;3</title>
<path fill="#bebada" stroke="black" stroke-dasharray="5,2" d="M23,-327C23,-327 175,-327 175,-327 181,-327 187,-333 187,-339 187,-339 187,-357 187,-357 187,-363 181,-369 175,-369 175,-369 23,-369 23,-369 17,-369 11,-363 11,-357 11,-357 11,-339 11,-339 11,-333 17,-327 23,-327"/>
</g>
<g id="clust22" class="cluster">
<title>outer_cluster_Inst&#45;5</title>
</g>
<g id="clust23" class="cluster">
<title>cluster_Inst&#45;5</title>
<path fill="#bebada" stroke="black" stroke-dasharray="5,2" d="M137,-248C137,-248 289,-248 289,-248 295,-248 301,-254 301,-260 301,-260 301,-278 301,-278 301,-284 295,-290 289,-290 289,-290 137,-290 137,-290 131,-290 125,-284 125,-278 125,-278 125,-260 125,-260 125,-254 131,-248 137,-248"/>
</g>
<g id="clust25" class="cluster">
<title>outer_cluster_Inst&#45;7</title>
</g>
<g id="clust26" class="cluster">
<title>cluster_Inst&#45;7</title>
<path fill="#bebada" stroke="black" stroke-dasharray="5,2" d="M319,-248C319,-248 471,-248 471,-248 477,-248 483,-254 483,-260 483,-260 483,-278 483,-278 483,-284 477,-290 471,-290 471,-290 319,-290 319,-290 313,-290 307,-284 307,-278 307,-278 307,-260 307,-260 307,-254 313,-248 319,-248"/>
</g>
<g id="clust28" class="cluster">
<title>outer_cluster_String&#45;0</title>
</g>
<g id="clust29" class="cluster">
<title>cluster_String&#45;0</title>
<path fill="#fb8072" stroke="black" stroke-dasharray="5,2" d="M144,-90C144,-90 184,-90 184,-90 190,-90 196,-96 196,-102 196,-102 196,-120 196,-120 196,-126 190,-132 184,-132 184,-132 144,-132 144,-132 138,-132 132,-126 132,-120 132,-120 132,-102 132,-102 132,-96 138,-90 144,-90"/>
</g>
<g id="clust31" class="cluster">
<title>outer_cluster_String&#45;1</title>
</g>
<g id="clust32" class="cluster">
<title>cluster_String&#45;1</title>
<path fill="#fb8072" stroke="black" stroke-dasharray="5,2" d="M396,-90C396,-90 448,-90 448,-90 454,-90 460,-96 460,-102 460,-102 460,-120 460,-120 460,-126 454,-132 448,-132 448,-132 396,-132 396,-132 390,-132 384,-126 384,-120 384,-120 384,-102 384,-102 384,-96 390,-90 396,-90"/>
</g>
<g id="clust34" class="cluster">
<title>outer_cluster_i64&#45;0</title>
</g>
<g id="clust35" class="cluster">
<title>cluster_i64&#45;0</title>
<path fill="#80b1d3" stroke="black" stroke-dasharray="5,2" d="M68,-90C68,-90 104,-90 104,-90 110,-90 116,-96 116,-102 116,-102 116,-120 116,-120 116,-126 110,-132 104,-132 104,-132 68,-132 68,-132 62,-132 56,-126 56,-120 56,-120 56,-102 56,-102 56,-96 62,-90 68,-90"/>
</g>
<g id="clust37" class="cluster">
<title>outer_cluster_i64&#45;4</title>
</g>
<g id="clust38" class="cluster">
<title>cluster_i64&#45;4</title>
<path fill="#80b1d3" stroke="black" stroke-dasharray="5,2" d="M278,-11C278,-11 314,-11 314,-11 320,-11 326,-17 326,-23 326,-23 326,-41 326,-41 326,-47 320,-53 314,-53 314,-53 278,-53 278,-53 272,-53 266,-47 266,-41 266,-41 266,-23 266,-23 266,-17 272,-11 278,-11"/>
</g>
<!-- function&#45;0&#45;ImmVal&#45;&gt;primitive&#45;i64&#45;0 -->
<g id="edge1" class="edge">
<title>function&#45;0&#45;ImmVal:s&#45;&gt;primitive&#45;i64&#45;0</title>
<path fill="none" stroke="black" d="M86,-174C86,-160.84 86,-146.11 86,-134.3"/>
<polygon fill="black" stroke="black" points="87.75,-137 86,-132 84.25,-137 87.75,-137"/>
</g>
<!-- function&#45;1&#45;ImmVal&#45;&gt;primitive&#45;i64&#45;4 -->
<g id="edge2" class="edge">
<title>function&#45;1&#45;ImmVal:s&#45;&gt;primitive&#45;i64&#45;4</title>
<path fill="none" stroke="black" d="M296,-95C296,-81.84 296,-67.11 296,-55.3"/>
<polygon fill="black" stroke="black" points="297.75,-58 296,-53 294.25,-58 297.75,-58"/>
</g>
<!-- function&#45;0&#45;RegVal&#45;&gt;primitive&#45;String&#45;0 -->
<g id="edge3" class="edge">
<title>function&#45;0&#45;RegVal:s&#45;&gt;primitive&#45;String&#45;0</title>
<path fill="none" stroke="black" d="M164,-174C164,-160.84 164,-146.11 164,-134.3"/>
<polygon fill="black" stroke="black" points="165.75,-137 164,-132 162.25,-137 165.75,-137"/>
</g>
<!-- function&#45;1&#45;RegVal&#45;&gt;primitive&#45;String&#45;1 -->
<g id="edge4" class="edge">
<title>function&#45;1&#45;RegVal:s&#45;&gt;primitive&#45;String&#45;1</title>
<path fill="none" stroke="black" d="M422,-174C422,-160.84 422,-146.11 422,-134.3"/>
<polygon fill="black" stroke="black" points="423.75,-137 422,-132 420.25,-137 423.75,-137"/>
</g>
<!-- function&#45;1&#45;Jal&#45;&gt;function&#45;1&#45;ImmVal -->
<g id="edge5" class="edge">
<title>function&#45;1&#45;Jal:s&#45;&gt;function&#45;1&#45;ImmVal</title>
<path fill="none" stroke="black" d="M296,-174C296,-160.84 296,-146.11 296,-134.3"/>
<polygon fill="black" stroke="black" points="297.75,-137 296,-132 294.25,-137 297.75,-137"/>
</g>
<!-- function&#45;0&#45;Jal&#45;&gt;function&#45;0&#45;ImmVal -->
<g id="edge6" class="edge">
<title>function&#45;0&#45;Jal:s&#45;&gt;function&#45;0&#45;ImmVal</title>
<path fill="none" stroke="black" d="M47,-253C47,-237.82 55.48,-223.32 64.52,-212.17"/>
<polygon fill="black" stroke="black" points="63.24,-215.6 65.87,-211 60.95,-212.95 63.24,-215.6"/>
</g>
<!-- function&#45;1&#45;Blt&#45;&gt;function&#45;0&#45;ImmVal -->
<g id="edge9" class="edge">
<title>function&#45;1&#45;Blt:s&#45;&gt;function&#45;0&#45;ImmVal</title>
<path fill="none" stroke="black" d="M110,-332C110,-313.09 97.49,-311.37 93,-293 86.43,-266.14 85.27,-234.19 85.36,-213.3"/>
<polygon fill="black" stroke="black" points="87.05,-216.04 85.41,-211 83.55,-215.96 87.05,-216.04"/>
</g>
<!-- function&#45;1&#45;Blt&#45;&gt;function&#45;0&#45;RegVal -->
<g id="edge7" class="edge">
<title>function&#45;1&#45;Blt:s&#45;&gt;function&#45;0&#45;RegVal</title>
<path fill="none" stroke="black" d="M91,-332C91,-291.64 97.72,-280.46 117,-245 123.49,-233.07 132.92,-221.4 141.55,-211.98"/>
<polygon fill="black" stroke="black" points="139.8,-215.07 143.2,-211 138,-212.06 139.8,-215.07"/>
</g>
<!-- function&#45;1&#45;Blt&#45;&gt;function&#45;1&#45;RegVal -->
<g id="edge8" class="edge">
<title>function&#45;1&#45;Blt:s&#45;&gt;function&#45;1&#45;RegVal</title>
<path fill="none" stroke="black" d="M103,-332C103,-246.89 426.5,-355.75 484,-293 498.41,-277.27 492.91,-264.38 484,-245 477.62,-231.13 465.73,-219.49 453.97,-210.61"/>
<polygon fill="black" stroke="black" points="457.57,-212.14 453,-209.46 454.91,-214.4 457.57,-212.14"/>
</g>
<!-- function&#45;0&#45;Bge&#45;&gt;function&#45;0&#45;ImmVal -->
<g id="edge12" class="edge">
<title>function&#45;0&#45;Bge:s&#45;&gt;function&#45;0&#45;ImmVal</title>
<path fill="none" stroke="black" d="M171,-332C171,-304.86 139.71,-315.13 124,-293 106.58,-268.46 96.13,-234.99 90.72,-213.19"/>
<polygon fill="black" stroke="black" points="93.46,-214.53 89.51,-211 90.39,-216.22 93.46,-214.53"/>
</g>
<!-- function&#45;0&#45;Bge&#45;&gt;function&#45;0&#45;RegVal -->
<g id="edge11" class="edge">
<title>function&#45;0&#45;Bge:s&#45;&gt;function&#45;0&#45;RegVal</title>
<path fill="none" stroke="black" d="M162,-332C162,-307.8 133.12,-315.42 124,-293 115.96,-273.24 117.44,-265.3 124,-245 127.83,-233.17 135.32,-221.75 142.72,-212.48"/>
<polygon fill="black" stroke="black" points="141.97,-215.85 144.11,-211 139.42,-213.46 141.97,-215.85"/>
</g>
<!-- function&#45;0&#45;Bge&#45;&gt;function&#45;1&#45;RegVal -->
<g id="edge10" class="edge">
<title>function&#45;0&#45;Bge:s&#45;&gt;function&#45;1&#45;RegVal</title>
<path fill="none" stroke="black" d="M148,-332C148,-254.4 443.29,-350.85 495,-293 509.22,-277.09 504.67,-264.02 495,-245 486.38,-228.04 469.66,-215.14 454.29,-206.21"/>
<polygon fill="black" stroke="black" points="457.46,-207.42 453,-204.56 454.7,-209.58 457.46,-207.42"/>
</g>
<!-- function&#45;0&#45;Seq2&#45;&gt;function&#45;0&#45;Jal -->
<g id="edge14" class="edge">
<title>function&#45;0&#45;Seq2:s&#45;&gt;function&#45;0&#45;Jal</title>
<path fill="none" stroke="black" d="M52,-332C52,-318.8 50.86,-304.06 49.67,-292.27"/>
<polygon fill="black" stroke="black" points="51.99,-294.45 49.12,-290 48.59,-295.27 51.99,-294.45"/>
</g>
<!-- function&#45;0&#45;Seq2&#45;&gt;function&#45;0&#45;Blt -->
<g id="edge13" class="edge">
<title>function&#45;0&#45;Seq2:s&#45;&gt;function&#45;0&#45;Blt</title>
<path fill="none" stroke="black" d="M30,-332C30,-311.25 85.97,-290.51 123.01,-279.05"/>
<polygon fill="black" stroke="black" points="122.04,-281.96 125,-277.57 119.95,-279.16 122.04,-281.96"/>
</g>
<!-- function&#45;0&#45;Blt&#45;&gt;function&#45;1&#45;ImmVal -->
<g id="edge17" class="edge">
<title>function&#45;0&#45;Blt:s&#45;&gt;function&#45;1&#45;ImmVal</title>
<path fill="none" stroke="black" d="M166,-253C166,-252.9 232.93,-166.07 233,-166 244.31,-154.08 258.06,-142.05 269.82,-132.39"/>
<polygon fill="black" stroke="black" points="266.83,-135.59 270.72,-132 265.44,-132.37 266.83,-135.59"/>
</g>
<!-- function&#45;0&#45;Blt&#45;&gt;function&#45;0&#45;RegVal -->
<g id="edge16" class="edge">
<title>function&#45;0&#45;Blt:s&#45;&gt;function&#45;0&#45;RegVal</title>
<path fill="none" stroke="black" d="M159,-253C159,-239.81 159.91,-225.08 160.87,-213.28"/>
<polygon fill="black" stroke="black" points="162.08,-216.24 161.3,-211 158.64,-215.58 162.08,-216.24"/>
</g>
<!-- function&#45;0&#45;Blt&#45;&gt;function&#45;1&#45;RegVal -->
<g id="edge15" class="edge">
<title>function&#45;0&#45;Blt:s&#45;&gt;function&#45;1&#45;RegVal</title>
<path fill="none" stroke="black" d="M147,-253C147,-212.07 287.12,-223.2 327,-214 347.05,-209.38 369.43,-203.91 387.33,-199.47"/>
<polygon fill="black" stroke="black" points="386,-202.61 389,-198.24 383.93,-199.79 386,-202.61"/>
</g>
<!-- function&#45;1&#45;Bge&#45;&gt;function&#45;1&#45;ImmVal -->
<g id="edge20" class="edge">
<title>function&#45;1&#45;Bge:s&#45;&gt;function&#45;1&#45;ImmVal</title>
<path fill="none" stroke="black" d="M227,-253C227,-206.69 257.4,-159.74 277.84,-133.4"/>
<polygon fill="black" stroke="black" points="277.13,-136.95 279.03,-132 274.46,-134.68 277.13,-136.95"/>
</g>
<!-- function&#45;1&#45;Bge&#45;&gt;function&#45;0&#45;RegVal -->
<g id="edge18" class="edge">
<title>function&#45;1&#45;Bge:s&#45;&gt;function&#45;0&#45;RegVal</title>
<path fill="none" stroke="black" d="M204,-253C204,-237.6 195.09,-223.08 185.58,-211.97"/>
<polygon fill="black" stroke="black" points="189.21,-212.23 184.06,-211 187.32,-215.17 189.21,-212.23"/>
</g>
<!-- function&#45;1&#45;Bge&#45;&gt;function&#45;1&#45;RegVal -->
<g id="edge19" class="edge">
<title>function&#45;1&#45;Bge:s&#45;&gt;function&#45;1&#45;RegVal</title>
<path fill="none" stroke="black" d="M218,-253C218,-244.26 329.55,-214.41 387.27,-199.55"/>
<polygon fill="black" stroke="black" points="386.06,-202.65 389,-198.24 383.95,-199.86 386.06,-202.65"/>
</g>
<!-- function&#45;1&#45;Seq2&#45;&gt;function&#45;1&#45;Jal -->
<g id="edge22" class="edge">
<title>function&#45;1&#45;Seq2:s&#45;&gt;function&#45;1&#45;Jal</title>
<path fill="none" stroke="black" d="M282,-253C282,-239.48 285.21,-224.7 288.55,-212.97"/>
<polygon fill="black" stroke="black" points="288.45,-216.07 289.98,-211 285.62,-214.01 288.45,-216.07"/>
</g>
<!-- function&#45;1&#45;Seq2&#45;&gt;function&#45;2&#45;Blt -->
<g id="edge21" class="edge">
<title>function&#45;1&#45;Seq2:s&#45;&gt;function&#45;2&#45;Blt</title>
<path fill="none" stroke="black" d="M260,-253C260,-205.81 319.96,-202.06 362,-223.5 371.53,-228.36 378.96,-237.41 384.33,-246.17"/>
<polygon fill="black" stroke="black" points="381.37,-245.62 386.1,-248 383.88,-243.19 381.37,-245.62"/>
</g>
<!-- function&#45;2&#45;Blt&#45;&gt;function&#45;1&#45;ImmVal -->
<g id="edge25" class="edge">
<title>function&#45;2&#45;Blt:s&#45;&gt;function&#45;1&#45;ImmVal</title>
<path fill="none" stroke="black" d="M406,-253C406,-229.11 384.21,-232.43 369,-214 347,-187.35 324.22,-154.54 310.08,-133.45"/>
<polygon fill="black" stroke="black" points="313.23,-133.67 308.2,-132 311.09,-136.44 313.23,-133.67"/>
</g>
<!-- function&#45;2&#45;Blt&#45;&gt;function&#45;0&#45;RegVal -->
<g id="edge23" class="edge">
<title>function&#45;2&#45;Blt:s&#45;&gt;function&#45;0&#45;RegVal</title>
<path fill="none" stroke="black" d="M387,-253C387,-243.26 259.59,-212.95 196.95,-198.63"/>
<polygon fill="black" stroke="black" points="200.19,-198.53 195,-197.46 198.39,-201.53 200.19,-198.53"/>
</g>
<!-- function&#45;2&#45;Blt&#45;&gt;function&#45;1&#45;RegVal -->
<g id="edge24" class="edge">
<title>function&#45;2&#45;Blt:s&#45;&gt;function&#45;1&#45;RegVal</title>
<path fill="none" stroke="black" d="M399,-253C399,-239.11 403.97,-224.42 409.18,-212.83"/>
<polygon fill="black" stroke="black" points="409.07,-216.12 410.41,-211 406.17,-214.17 409.07,-216.12"/>
</g>
<!-- function&#45;2&#45;Bge&#45;&gt;function&#45;1&#45;ImmVal -->
<g id="edge28" class="edge">
<title>function&#45;2&#45;Bge:s&#45;&gt;function&#45;1&#45;ImmVal</title>
<path fill="none" stroke="black" d="M467,-253C467,-213.84 417.6,-239.63 388,-214 368.43,-197.06 371.99,-185.53 355,-166 344.69,-154.15 331.97,-142.23 320.99,-132.61"/>
<polygon fill="black" stroke="black" points="325.18,-133.22 320.03,-132 323.3,-136.17 325.18,-133.22"/>
</g>
<!-- function&#45;2&#45;Bge&#45;&gt;function&#45;0&#45;RegVal -->
<g id="edge27" class="edge">
<title>function&#45;2&#45;Bge:s&#45;&gt;function&#45;0&#45;RegVal</title>
<path fill="none" stroke="black" d="M458,-253C458,-236.61 438.04,-248.37 422,-245 352.39,-230.4 334.59,-228.71 265,-214 242.08,-209.15 216.34,-203.35 196.46,-198.78"/>
<polygon fill="black" stroke="black" points="200.02,-199.34 195,-197.65 197.87,-202.1 200.02,-199.34"/>
</g>
<!-- function&#45;2&#45;Bge&#45;&gt;function&#45;1&#45;RegVal -->
<g id="edge26" class="edge">
<title>function&#45;2&#45;Bge:s&#45;&gt;function&#45;1&#45;RegVal</title>
<path fill="none" stroke="black" d="M444,-253C444,-239.04 438.81,-224.35 433.36,-212.77"/>
<polygon fill="black" stroke="black" points="436.43,-213.94 432.02,-211 433.64,-216.05 436.43,-213.94"/>
</g>
<!-- function&#45;2&#45;Seq2&#45;&gt;function&#45;1&#45;Jal -->
<g id="edge30" class="edge">
<title>function&#45;2&#45;Seq2:s&#45;&gt;function&#45;1&#45;Jal</title>
<path fill="none" stroke="black" d="M348,-253C348,-236.59 337.18,-222.25 325.4,-211.5"/>
<polygon fill="black" stroke="black" points="329.65,-211.66 324.39,-211 328.09,-214.8 329.65,-211.66"/>
</g>
<!-- function&#45;2&#45;Seq2&#45;&gt;function&#45;1&#45;Seq2 -->
<g id="edge29" class="edge">
<title>function&#45;2&#45;Seq2:s&#45;&gt;function&#45;1&#45;Seq2</title>
<path fill="none" stroke="black" d="M326,-253C326,-241.59 314.78,-243.91 302.57,-249.8"/>
<polygon fill="black" stroke="black" points="303.71,-246.57 301,-251.12 305.96,-249.26 303.71,-246.57"/>
</g>
<!-- function&#45;0&#45;ImmVal -->
<g id="node1" class="node">
<title>function&#45;0&#45;ImmVal</title>
<g id="a_node1"><a xlink:title="Imm&#45;2: function&#45;0&#45;ImmVal">
<path fill="white" stroke="transparent" d="M65.67,-174C65.67,-174 106.33,-174 106.33,-174 111.67,-174 117,-179.33 117,-184.67 117,-184.67 117,-195.33 117,-195.33 117,-200.67 111.67,-206 106.33,-206 106.33,-206 65.67,-206 65.67,-206 60.33,-206 55,-200.67 55,-195.33 55,-195.33 55,-184.67 55,-184.67 55,-179.33 60.33,-174 65.67,-174"/>
<text text-anchor="start" x="60" y="-186.3" font-family="Helvetica,sans-Serif" font-size="14.00">ImmVal</text>
<path fill="none" stroke="black" d="M65.67,-174C65.67,-174 106.33,-174 106.33,-174 111.67,-174 117,-179.33 117,-184.67 117,-184.67 117,-195.33 117,-195.33 117,-200.67 111.67,-206 106.33,-206 106.33,-206 65.67,-206 65.67,-206 60.33,-206 55,-200.67 55,-195.33 55,-195.33 55,-184.67 55,-184.67 55,-179.33 60.33,-174 65.67,-174"/>
</a>
</g>
</g>
<!-- primitive&#45;i64&#45;0 -->
<g id="node2" class="node">
<title>primitive&#45;i64&#45;0</title>
<g id="a_node2"><a xlink:title="i64&#45;0: primitive&#45;i64&#45;0">
<path fill="white" stroke="transparent" d="M80.67,-95C80.67,-95 91.33,-95 91.33,-95 96.67,-95 102,-100.33 102,-105.67 102,-105.67 102,-116.33 102,-116.33 102,-121.67 96.67,-127 91.33,-127 91.33,-127 80.67,-127 80.67,-127 75.33,-127 70,-121.67 70,-116.33 70,-116.33 70,-105.67 70,-105.67 70,-100.33 75.33,-95 80.67,-95"/>
<text text-anchor="start" x="81" y="-107.3" font-family="Helvetica,sans-Serif" font-size="14.00">0</text>
<path fill="none" stroke="black" d="M80.67,-95C80.67,-95 91.33,-95 91.33,-95 96.67,-95 102,-100.33 102,-105.67 102,-105.67 102,-116.33 102,-116.33 102,-121.67 96.67,-127 91.33,-127 91.33,-127 80.67,-127 80.67,-127 75.33,-127 70,-121.67 70,-116.33 70,-116.33 70,-105.67 70,-105.67 70,-100.33 75.33,-95 80.67,-95"/>
</a>
</g>
</g>
<!-- function&#45;1&#45;ImmVal -->
<g id="node3" class="node">
<title>function&#45;1&#45;ImmVal</title>
<g id="a_node3"><a xlink:title="Imm&#45;4: function&#45;1&#45;ImmVal">
<path fill="white" stroke="transparent" d="M275.67,-95C275.67,-95 316.33,-95 316.33,-95 321.67,-95 327,-100.33 327,-105.67 327,-105.67 327,-116.33 327,-116.33 327,-121.67 321.67,-127 316.33,-127 316.33,-127 275.67,-127 275.67,-127 270.33,-127 265,-121.67 265,-116.33 265,-116.33 265,-105.67 265,-105.67 265,-100.33 270.33,-95 275.67,-95"/>
<text text-anchor="start" x="270" y="-107.3" font-family="Helvetica,sans-Serif" font-size="14.00">ImmVal</text>
<path fill="none" stroke="black" d="M275.67,-95C275.67,-95 316.33,-95 316.33,-95 321.67,-95 327,-100.33 327,-105.67 327,-105.67 327,-116.33 327,-116.33 327,-121.67 321.67,-127 316.33,-127 316.33,-127 275.67,-127 275.67,-127 270.33,-127 265,-121.67 265,-116.33 265,-116.33 265,-105.67 265,-105.67 265,-100.33 270.33,-95 275.67,-95"/>
</a>
</g>
</g>
<!-- primitive&#45;i64&#45;4 -->
<g id="node4" class="node">
<title>primitive&#45;i64&#45;4</title>
<g id="a_node4"><a xlink:title="i64&#45;4: primitive&#45;i64&#45;4">
<path fill="white" stroke="transparent" d="M290.67,-16C290.67,-16 301.33,-16 301.33,-16 306.67,-16 312,-21.33 312,-26.67 312,-26.67 312,-37.33 312,-37.33 312,-42.67 306.67,-48 301.33,-48 301.33,-48 290.67,-48 290.67,-48 285.33,-48 280,-42.67 280,-37.33 280,-37.33 280,-26.67 280,-26.67 280,-21.33 285.33,-16 290.67,-16"/>
<text text-anchor="start" x="291" y="-28.3" font-family="Helvetica,sans-Serif" font-size="14.00">4</text>
<path fill="none" stroke="black" d="M290.67,-16C290.67,-16 301.33,-16 301.33,-16 306.67,-16 312,-21.33 312,-26.67 312,-26.67 312,-37.33 312,-37.33 312,-42.67 306.67,-48 301.33,-48 301.33,-48 290.67,-48 290.67,-48 285.33,-48 280,-42.67 280,-37.33 280,-37.33 280,-26.67 280,-26.67 280,-21.33 285.33,-16 290.67,-16"/>
</a>
</g>
</g>
<!-- function&#45;0&#45;RegVal -->
<g id="node5" class="node">
<title>function&#45;0&#45;RegVal</title>
<g id="a_node5"><a xlink:title="Inst&#45;0: function&#45;0&#45;RegVal">
<path fill="white" stroke="transparent" d="M145.17,-174C145.17,-174 180.83,-174 180.83,-174 186.17,-174 191.5,-179.33 191.5,-184.67 191.5,-184.67 191.5,-195.33 191.5,-195.33 191.5,-200.67 186.17,-206 180.83,-206 180.83,-206 145.17,-206 145.17,-206 139.83,-206 134.5,-200.67 134.5,-195.33 134.5,-195.33 134.5,-184.67 134.5,-184.67 134.5,-179.33 139.83,-174 145.17,-174"/>
<text text-anchor="start" x="140" y="-186.3" font-family="Helvetica,sans-Serif" font-size="14.00">RegVal</text>
<path fill="none" stroke="black" d="M145.17,-174C145.17,-174 180.83,-174 180.83,-174 186.17,-174 191.5,-179.33 191.5,-184.67 191.5,-184.67 191.5,-195.33 191.5,-195.33 191.5,-200.67 186.17,-206 180.83,-206 180.83,-206 145.17,-206 145.17,-206 139.83,-206 134.5,-200.67 134.5,-195.33 134.5,-195.33 134.5,-184.67 134.5,-184.67 134.5,-179.33 139.83,-174 145.17,-174"/>
</a>
</g>
</g>
<!-- primitive&#45;String&#45;0 -->
<g id="node6" class="node">
<title>primitive&#45;String&#45;0</title>
<g id="a_node6"><a xlink:title="String&#45;0: primitive&#45;String&#45;0">
<path fill="white" stroke="transparent" d="M146.17,-95C146.17,-95 181.83,-95 181.83,-95 187.17,-95 192.5,-100.33 192.5,-105.67 192.5,-105.67 192.5,-116.33 192.5,-116.33 192.5,-121.67 187.17,-127 181.83,-127 181.83,-127 146.17,-127 146.17,-127 140.83,-127 135.5,-121.67 135.5,-116.33 135.5,-116.33 135.5,-105.67 135.5,-105.67 135.5,-100.33 140.83,-95 146.17,-95"/>
<text text-anchor="start" x="141" y="-107.3" font-family="Helvetica,sans-Serif" font-size="14.00">&quot;a0_0&quot;</text>
<path fill="none" stroke="black" d="M146.17,-95C146.17,-95 181.83,-95 181.83,-95 187.17,-95 192.5,-100.33 192.5,-105.67 192.5,-105.67 192.5,-116.33 192.5,-116.33 192.5,-121.67 187.17,-127 181.83,-127 181.83,-127 146.17,-127 146.17,-127 140.83,-127 135.5,-121.67 135.5,-116.33 135.5,-116.33 135.5,-105.67 135.5,-105.67 135.5,-100.33 140.83,-95 146.17,-95"/>
</a>
</g>
</g>
<!-- function&#45;1&#45;RegVal -->
<g id="node7" class="node">
<title>function&#45;1&#45;RegVal</title>
<g id="a_node7"><a xlink:title="Inst&#45;1: function&#45;1&#45;RegVal">
<path fill="white" stroke="transparent" d="M403.17,-174C403.17,-174 438.83,-174 438.83,-174 444.17,-174 449.5,-179.33 449.5,-184.67 449.5,-184.67 449.5,-195.33 449.5,-195.33 449.5,-200.67 444.17,-206 438.83,-206 438.83,-206 403.17,-206 403.17,-206 397.83,-206 392.5,-200.67 392.5,-195.33 392.5,-195.33 392.5,-184.67 392.5,-184.67 392.5,-179.33 397.83,-174 403.17,-174"/>
<text text-anchor="start" x="398" y="-186.3" font-family="Helvetica,sans-Serif" font-size="14.00">RegVal</text>
<path fill="none" stroke="black" d="M403.17,-174C403.17,-174 438.83,-174 438.83,-174 444.17,-174 449.5,-179.33 449.5,-184.67 449.5,-184.67 449.5,-195.33 449.5,-195.33 449.5,-200.67 444.17,-206 438.83,-206 438.83,-206 403.17,-206 403.17,-206 397.83,-206 392.5,-200.67 392.5,-195.33 392.5,-195.33 392.5,-184.67 392.5,-184.67 392.5,-179.33 397.83,-174 403.17,-174"/>
</a>
</g>
</g>
<!-- primitive&#45;String&#45;1 -->
<g id="node8" class="node">
<title>primitive&#45;String&#45;1</title>
<g id="a_node8"><a xlink:title="String&#45;1: primitive&#45;String&#45;1">
<path fill="white" stroke="transparent" d="M398.17,-95C398.17,-95 445.83,-95 445.83,-95 451.17,-95 456.5,-100.33 456.5,-105.67 456.5,-105.67 456.5,-116.33 456.5,-116.33 456.5,-121.67 451.17,-127 445.83,-127 445.83,-127 398.17,-127 398.17,-127 392.83,-127 387.5,-121.67 387.5,-116.33 387.5,-116.33 387.5,-105.67 387.5,-105.67 387.5,-100.33 392.83,-95 398.17,-95"/>
<text text-anchor="start" x="393" y="-107.3" font-family="Helvetica,sans-Serif" font-size="14.00">&quot;zero_0&quot;</text>
<path fill="none" stroke="black" d="M398.17,-95C398.17,-95 445.83,-95 445.83,-95 451.17,-95 456.5,-100.33 456.5,-105.67 456.5,-105.67 456.5,-116.33 456.5,-116.33 456.5,-121.67 451.17,-127 445.83,-127 445.83,-127 398.17,-127 398.17,-127 392.83,-127 387.5,-121.67 387.5,-116.33 387.5,-116.33 387.5,-105.67 387.5,-105.67 387.5,-100.33 392.83,-95 398.17,-95"/>
</a>
</g>
</g>
<!-- function&#45;1&#45;Jal -->
<g id="node9" class="node">
<title>function&#45;1&#45;Jal</title>
<g id="a_node9"><a xlink:title="Inst&#45;8: function&#45;1&#45;Jal">
<path fill="white" stroke="transparent" d="M290.67,-174C290.67,-174 301.33,-174 301.33,-174 306.67,-174 312,-179.33 312,-184.67 312,-184.67 312,-195.33 312,-195.33 312,-200.67 306.67,-206 301.33,-206 301.33,-206 290.67,-206 290.67,-206 285.33,-206 280,-200.67 280,-195.33 280,-195.33 280,-184.67 280,-184.67 280,-179.33 285.33,-174 290.67,-174"/>
<text text-anchor="start" x="287.5" y="-186.3" font-family="Helvetica,sans-Serif" font-size="14.00">Jal</text>
<path fill="none" stroke="black" d="M290.67,-174C290.67,-174 301.33,-174 301.33,-174 306.67,-174 312,-179.33 312,-184.67 312,-184.67 312,-195.33 312,-195.33 312,-200.67 306.67,-206 301.33,-206 301.33,-206 290.67,-206 290.67,-206 285.33,-206 280,-200.67 280,-195.33 280,-195.33 280,-184.67 280,-184.67 280,-179.33 285.33,-174 290.67,-174"/>
</a>
</g>
</g>
<!-- function&#45;0&#45;Jal -->
<g id="node10" class="node">
<title>function&#45;0&#45;Jal</title>
<g id="a_node10"><a xlink:title="Inst&#45;6: function&#45;0&#45;Jal">
<path fill="white" stroke="transparent" d="M41.67,-253C41.67,-253 52.33,-253 52.33,-253 57.67,-253 63,-258.33 63,-263.67 63,-263.67 63,-274.33 63,-274.33 63,-279.67 57.67,-285 52.33,-285 52.33,-285 41.67,-285 41.67,-285 36.33,-285 31,-279.67 31,-274.33 31,-274.33 31,-263.67 31,-263.67 31,-258.33 36.33,-253 41.67,-253"/>
<text text-anchor="start" x="38.5" y="-265.3" font-family="Helvetica,sans-Serif" font-size="14.00">Jal</text>
<path fill="none" stroke="black" d="M41.67,-253C41.67,-253 52.33,-253 52.33,-253 57.67,-253 63,-258.33 63,-263.67 63,-263.67 63,-274.33 63,-274.33 63,-279.67 57.67,-285 52.33,-285 52.33,-285 41.67,-285 41.67,-285 36.33,-285 31,-279.67 31,-274.33 31,-274.33 31,-263.67 31,-263.67 31,-258.33 36.33,-253 41.67,-253"/>
</a>
</g>
</g>
<!-- function&#45;1&#45;Blt -->
<g id="node11" class="node">
<title>function&#45;1&#45;Blt</title>
<g id="a_node11"><a xlink:title="Inst&#45;3: function&#45;1&#45;Blt">
<path fill="white" stroke="transparent" d="M93.67,-332C93.67,-332 104.33,-332 104.33,-332 109.67,-332 115,-337.33 115,-342.67 115,-342.67 115,-353.33 115,-353.33 115,-358.67 109.67,-364 104.33,-364 104.33,-364 93.67,-364 93.67,-364 88.33,-364 83,-358.67 83,-353.33 83,-353.33 83,-342.67 83,-342.67 83,-337.33 88.33,-332 93.67,-332"/>
<text text-anchor="start" x="89.5" y="-344.3" font-family="Helvetica,sans-Serif" font-size="14.00">Blt</text>
<path fill="none" stroke="black" d="M93.67,-332C93.67,-332 104.33,-332 104.33,-332 109.67,-332 115,-337.33 115,-342.67 115,-342.67 115,-353.33 115,-353.33 115,-358.67 109.67,-364 104.33,-364 104.33,-364 93.67,-364 93.67,-364 88.33,-364 83,-358.67 83,-353.33 83,-353.33 83,-342.67 83,-342.67 83,-337.33 88.33,-332 93.67,-332"/>
</a>
</g>
</g>
<!-- function&#45;0&#45;Bge -->
<g id="node12" class="node">
<title>function&#45;0&#45;Bge</title>
<g id="a_node12"><a xlink:title="Inst&#45;3: function&#45;0&#45;Bge">
<path fill="white" stroke="transparent" d="M148.67,-332C148.67,-332 165.33,-332 165.33,-332 170.67,-332 176,-337.33 176,-342.67 176,-342.67 176,-353.33 176,-353.33 176,-358.67 170.67,-364 165.33,-364 165.33,-364 148.67,-364 148.67,-364 143.33,-364 138,-358.67 138,-353.33 138,-353.33 138,-342.67 138,-342.67 138,-337.33 143.33,-332 148.67,-332"/>
<text text-anchor="start" x="143" y="-344.3" font-family="Helvetica,sans-Serif" font-size="14.00">Bge</text>
<path fill="none" stroke="black" d="M148.67,-332C148.67,-332 165.33,-332 165.33,-332 170.67,-332 176,-337.33 176,-342.67 176,-342.67 176,-353.33 176,-353.33 176,-358.67 170.67,-364 165.33,-364 165.33,-364 148.67,-364 148.67,-364 143.33,-364 138,-358.67 138,-353.33 138,-353.33 138,-342.67 138,-342.67 138,-337.33 143.33,-332 148.67,-332"/>
</a>
</g>
</g>
<!-- function&#45;0&#45;Seq2 -->
<g id="node13" class="node">
<title>function&#45;0&#45;Seq2</title>
<g id="a_node13"><a xlink:title="Inst&#45;3: function&#45;0&#45;Seq2">
<path fill="white" stroke="transparent" d="M28.67,-332C28.67,-332 53.33,-332 53.33,-332 58.67,-332 64,-337.33 64,-342.67 64,-342.67 64,-353.33 64,-353.33 64,-358.67 58.67,-364 53.33,-364 53.33,-364 28.67,-364 28.67,-364 23.33,-364 18,-358.67 18,-353.33 18,-353.33 18,-342.67 18,-342.67 18,-337.33 23.33,-332 28.67,-332"/>
<text text-anchor="start" x="23" y="-344.3" font-family="Helvetica,sans-Serif" font-size="14.00">Seq2</text>
<path fill="none" stroke="black" d="M28.67,-332C28.67,-332 53.33,-332 53.33,-332 58.67,-332 64,-337.33 64,-342.67 64,-342.67 64,-353.33 64,-353.33 64,-358.67 58.67,-364 53.33,-364 53.33,-364 28.67,-364 28.67,-364 23.33,-364 18,-358.67 18,-353.33 18,-353.33 18,-342.67 18,-342.67 18,-337.33 23.33,-332 28.67,-332"/>
</a>
</g>
</g>
<!-- function&#45;0&#45;Blt -->
<g id="node14" class="node">
<title>function&#45;0&#45;Blt</title>
<g id="a_node14"><a xlink:title="Inst&#45;5: function&#45;0&#45;Blt">
<path fill="white" stroke="transparent" d="M149.67,-253C149.67,-253 160.33,-253 160.33,-253 165.67,-253 171,-258.33 171,-263.67 171,-263.67 171,-274.33 171,-274.33 171,-279.67 165.67,-285 160.33,-285 160.33,-285 149.67,-285 149.67,-285 144.33,-285 139,-279.67 139,-274.33 139,-274.33 139,-263.67 139,-263.67 139,-258.33 144.33,-253 149.67,-253"/>
<text text-anchor="start" x="145.5" y="-265.3" font-family="Helvetica,sans-Serif" font-size="14.00">Blt</text>
<path fill="none" stroke="black" d="M149.67,-253C149.67,-253 160.33,-253 160.33,-253 165.67,-253 171,-258.33 171,-263.67 171,-263.67 171,-274.33 171,-274.33 171,-279.67 165.67,-285 160.33,-285 160.33,-285 149.67,-285 149.67,-285 144.33,-285 139,-279.67 139,-274.33 139,-274.33 139,-263.67 139,-263.67 139,-258.33 144.33,-253 149.67,-253"/>
</a>
</g>
</g>
<!-- function&#45;1&#45;Bge -->
<g id="node15" class="node">
<title>function&#45;1&#45;Bge</title>
<g id="a_node15"><a xlink:title="Inst&#45;5: function&#45;1&#45;Bge">
<path fill="white" stroke="transparent" d="M204.67,-253C204.67,-253 221.33,-253 221.33,-253 226.67,-253 232,-258.33 232,-263.67 232,-263.67 232,-274.33 232,-274.33 232,-279.67 226.67,-285 221.33,-285 221.33,-285 204.67,-285 204.67,-285 199.33,-285 194,-279.67 194,-274.33 194,-274.33 194,-263.67 194,-263.67 194,-258.33 199.33,-253 204.67,-253"/>
<text text-anchor="start" x="199" y="-265.3" font-family="Helvetica,sans-Serif" font-size="14.00">Bge</text>
<path fill="none" stroke="black" d="M204.67,-253C204.67,-253 221.33,-253 221.33,-253 226.67,-253 232,-258.33 232,-263.67 232,-263.67 232,-274.33 232,-274.33 232,-279.67 226.67,-285 221.33,-285 221.33,-285 204.67,-285 204.67,-285 199.33,-285 194,-279.67 194,-274.33 194,-274.33 194,-263.67 194,-263.67 194,-258.33 199.33,-253 204.67,-253"/>
</a>
</g>
</g>
<!-- function&#45;1&#45;Seq2 -->
<g id="node16" class="node">
<title>function&#45;1&#45;Seq2</title>
<g id="a_node16"><a xlink:title="Inst&#45;5: function&#45;1&#45;Seq2">
<path fill="white" stroke="transparent" d="M258.67,-253C258.67,-253 283.33,-253 283.33,-253 288.67,-253 294,-258.33 294,-263.67 294,-263.67 294,-274.33 294,-274.33 294,-279.67 288.67,-285 283.33,-285 283.33,-285 258.67,-285 258.67,-285 253.33,-285 248,-279.67 248,-274.33 248,-274.33 248,-263.67 248,-263.67 248,-258.33 253.33,-253 258.67,-253"/>
<text text-anchor="start" x="253" y="-265.3" font-family="Helvetica,sans-Serif" font-size="14.00">Seq2</text>
<path fill="none" stroke="black" d="M258.67,-253C258.67,-253 283.33,-253 283.33,-253 288.67,-253 294,-258.33 294,-263.67 294,-263.67 294,-274.33 294,-274.33 294,-279.67 288.67,-285 283.33,-285 283.33,-285 258.67,-285 258.67,-285 253.33,-285 248,-279.67 248,-274.33 248,-274.33 248,-263.67 248,-263.67 248,-258.33 253.33,-253 258.67,-253"/>
</a>
</g>
</g>
<!-- function&#45;2&#45;Blt -->
<g id="node17" class="node">
<title>function&#45;2&#45;Blt</title>
<g id="a_node17"><a xlink:title="Inst&#45;7: function&#45;2&#45;Blt">
<path fill="white" stroke="transparent" d="M389.67,-253C389.67,-253 400.33,-253 400.33,-253 405.67,-253 411,-258.33 411,-263.67 411,-263.67 411,-274.33 411,-274.33 411,-279.67 405.67,-285 400.33,-285 400.33,-285 389.67,-285 389.67,-285 384.33,-285 379,-279.67 379,-274.33 379,-274.33 379,-263.67 379,-263.67 379,-258.33 384.33,-253 389.67,-253"/>
<text text-anchor="start" x="385.5" y="-265.3" font-family="Helvetica,sans-Serif" font-size="14.00">Blt</text>
<path fill="none" stroke="black" d="M389.67,-253C389.67,-253 400.33,-253 400.33,-253 405.67,-253 411,-258.33 411,-263.67 411,-263.67 411,-274.33 411,-274.33 411,-279.67 405.67,-285 400.33,-285 400.33,-285 389.67,-285 389.67,-285 384.33,-285 379,-279.67 379,-274.33 379,-274.33 379,-263.67 379,-263.67 379,-258.33 384.33,-253 389.67,-253"/>
</a>
</g>
</g>
<!-- function&#45;2&#45;Bge -->
<g id="node18" class="node">
<title>function&#45;2&#45;Bge</title>
<g id="a_node18"><a xlink:title="Inst&#45;7: function&#45;2&#45;Bge">
<path fill="white" stroke="transparent" d="M444.67,-253C444.67,-253 461.33,-253 461.33,-253 466.67,-253 472,-258.33 472,-263.67 472,-263.67 472,-274.33 472,-274.33 472,-279.67 466.67,-285 461.33,-285 461.33,-285 444.67,-285 444.67,-285 439.33,-285 434,-279.67 434,-274.33 434,-274.33 434,-263.67 434,-263.67 434,-258.33 439.33,-253 444.67,-253"/>
<text text-anchor="start" x="439" y="-265.3" font-family="Helvetica,sans-Serif" font-size="14.00">Bge</text>
<path fill="none" stroke="black" d="M444.67,-253C444.67,-253 461.33,-253 461.33,-253 466.67,-253 472,-258.33 472,-263.67 472,-263.67 472,-274.33 472,-274.33 472,-279.67 466.67,-285 461.33,-285 461.33,-285 444.67,-285 444.67,-285 439.33,-285 434,-279.67 434,-274.33 434,-274.33 434,-263.67 434,-263.67 434,-258.33 439.33,-253 444.67,-253"/>
</a>
</g>
</g>
<!-- function&#45;2&#45;Seq2 -->
<g id="node19" class="node">
<title>function&#45;2&#45;Seq2</title>
<g id="a_node19"><a xlink:title="Inst&#45;7: function&#45;2&#45;Seq2">
<path fill="white" stroke="transparent" d="M324.67,-253C324.67,-253 349.33,-253 349.33,-253 354.67,-253 360,-258.33 360,-263.67 360,-263.67 360,-274.33 360,-274.33 360,-279.67 354.67,-285 349.33,-285 349.33,-285 324.67,-285 324.67,-285 319.33,-285 314,-279.67 314,-274.33 314,-274.33 314,-263.67 314,-263.67 314,-258.33 319.33,-253 324.67,-253"/>
<text text-anchor="start" x="319" y="-265.3" font-family="Helvetica,sans-Serif" font-size="14.00">Seq2</text>
<path fill="none" stroke="black" d="M324.67,-253C324.67,-253 349.33,-253 349.33,-253 354.67,-253 360,-258.33 360,-263.67 360,-263.67 360,-274.33 360,-274.33 360,-279.67 354.67,-285 349.33,-285 349.33,-285 324.67,-285 324.67,-285 319.33,-285 314,-279.67 314,-274.33 314,-274.33 314,-263.67 314,-263.67 314,-258.33 319.33,-253 324.67,-253"/>
</a>
</g>
</g>
</g>
</svg>
