<?xml version="1.0" encoding="UTF-8" standalone="no"?>
<!DOCTYPE svg PUBLIC "-//W3C//DTD SVG 1.1//EN"
 "http://www.w3.org/Graphics/SVG/1.1/DTD/svg11.dtd">
<!-- Generated by graphviz version 2.43.0 (0)
 -->
<!-- Title: %3 Pages: 1 -->
<svg width="529pt" height="388pt"
 viewBox="0.00 0.00 529.27 388.00" xmlns="http://www.w3.org/2000/svg" xmlns:xlink="http://www.w3.org/1999/xlink">
<g id="graph0" class="graph" transform="scale(1 1) rotate(0) translate(4 384)">
<title>%3</title>
<polygon fill="white" stroke="#000000" points="-4,4 -4,-384 525.27,-384 525.27,4 -4,4"/>
<g id="clust1" class="cluster">
<title>outer_cluster_Imm&#45;4</title>
</g>
<g id="clust2" class="cluster">
<title>cluster_Imm&#45;4</title>
<path fill="#ffffb3" stroke="black" stroke-dasharray="5,2" d="M279,-90C279,-90 323,-90 323,-90 329,-90 335,-96 335,-102 335,-102 335,-120 335,-120 335,-126 329,-132 323,-132 323,-132 279,-132 279,-132 273,-132 267,-126 267,-120 267,-120 267,-102 267,-102 267,-96 273,-90 279,-90"/>
</g>
<g id="clust4" class="cluster">
<title>outer_cluster_Imm&#45;2</title>
</g>
<g id="clust5" class="cluster">
<title>cluster_Imm&#45;2</title>
<path fill="#ffffb3" stroke="black" stroke-dasharray="5,2" d="M23,-169C23,-169 67,-169 67,-169 73,-169 79,-175 79,-181 79,-181 79,-199 79,-199 79,-205 73,-211 67,-211 67,-211 23,-211 23,-211 17,-211 11,-205 11,-199 11,-199 11,-181 11,-181 11,-175 17,-169 23,-169"/>
</g>
<g id="clust7" class="cluster">
<title>outer_cluster_Inst&#45;6</title>
</g>
<g id="clust8" class="cluster">
<title>cluster_Inst&#45;6</title>
<path fill="#bebada" stroke="black" stroke-dasharray="5,2" d="M66,-248C66,-248 102,-248 102,-248 108,-248 114,-254 114,-260 114,-260 114,-278 114,-278 114,-284 108,-290 102,-290 102,-290 66,-290 66,-290 60,-290 54,-284 54,-278 54,-278 54,-260 54,-260 54,-254 60,-248 66,-248"/>
</g>
<g id="clust10" class="cluster">
<title>outer_cluster_Inst&#45;7</title>
</g>
<g id="clust11" class="cluster">
<title>cluster_Inst&#45;7</title>
<path fill="#bebada" stroke="black" stroke-dasharray="5,2" d="M336,-248C336,-248 488,-248 488,-248 494,-248 500,-254 500,-260 500,-260 500,-278 500,-278 500,-284 494,-290 488,-290 488,-290 336,-290 336,-290 330,-290 324,-284 324,-278 324,-278 324,-260 324,-260 324,-254 330,-248 336,-248"/>
</g>
<g id="clust13" class="cluster">
<title>outer_cluster_Inst&#45;0</title>
</g>
<g id="clust14" class="cluster">
<title>cluster_Inst&#45;0</title>
<path fill="#bebada" stroke="black" stroke-dasharray="5,2" d="M415,-169C415,-169 455,-169 455,-169 461,-169 467,-175 467,-181 467,-181 467,-199 467,-199 467,-205 461,-211 455,-211 455,-211 415,-211 415,-211 409,-211 403,-205 403,-199 403,-199 403,-181 403,-181 403,-175 409,-169 415,-169"/>
</g>
<g id="clust16" class="cluster">
<title>outer_cluster_Inst&#45;1</title>
</g>
<g id="clust17" class="cluster">
<title>cluster_Inst&#45;1</title>
<path fill="#bebada" stroke="black" stroke-dasharray="5,2" d="M151,-169C151,-169 191,-169 191,-169 197,-169 203,-175 203,-181 203,-181 203,-199 203,-199 203,-205 197,-211 191,-211 191,-211 151,-211 151,-211 145,-211 139,-205 139,-199 139,-199 139,-181 139,-181 139,-175 145,-169 151,-169"/>
</g>
<g id="clust19" class="cluster">
<title>outer_cluster_Inst&#45;5</title>
</g>
<g id="clust20" class="cluster">
<title>cluster_Inst&#45;5</title>
<path fill="#bebada" stroke="black" stroke-dasharray="5,2" d="M154,-248C154,-248 306,-248 306,-248 312,-248 318,-254 318,-260 318,-260 318,-278 318,-278 318,-284 312,-290 306,-290 306,-290 154,-290 154,-290 148,-290 142,-284 142,-278 142,-278 142,-260 142,-260 142,-254 148,-248 154,-248"/>
</g>
<g id="clust22" class="cluster">
<title>outer_cluster_Inst&#45;8</title>
</g>
<g id="clust23" class="cluster">
<title>cluster_Inst&#45;8</title>
<path fill="#bebada" stroke="black" stroke-dasharray="5,2" d="M283,-169C283,-169 319,-169 319,-169 325,-169 331,-175 331,-181 331,-181 331,-199 331,-199 331,-205 325,-211 319,-211 319,-211 283,-211 283,-211 277,-211 271,-205 271,-199 271,-199 271,-181 271,-181 271,-175 277,-169 283,-169"/>
</g>
<g id="clust25" class="cluster">
<title>outer_cluster_Inst&#45;3</title>
</g>
<g id="clust26" class="cluster">
<title>cluster_Inst&#45;3</title>
<path fill="#bebada" stroke="black" stroke-dasharray="5,2" d="M49,-327C49,-327 201,-327 201,-327 207,-327 213,-333 213,-339 213,-339 213,-357 213,-357 213,-363 207,-369 201,-369 201,-369 49,-369 49,-369 43,-369 37,-363 37,-357 37,-357 37,-339 37,-339 37,-333 43,-327 49,-327"/>
</g>
<g id="clust28" class="cluster">
<title>outer_cluster_String&#45;0</title>
</g>
<g id="clust29" class="cluster">
<title>cluster_String&#45;0</title>
<path fill="#fb8072" stroke="black" stroke-dasharray="5,2" d="M416,-90C416,-90 456,-90 456,-90 462,-90 468,-96 468,-102 468,-102 468,-120 468,-120 468,-126 462,-132 456,-132 456,-132 416,-132 416,-132 410,-132 404,-126 404,-120 404,-120 404,-102 404,-102 404,-96 410,-90 416,-90"/>
</g>
<g id="clust31" class="cluster">
<title>outer_cluster_String&#45;1</title>
</g>
<g id="clust32" class="cluster">
<title>cluster_String&#45;1</title>
<path fill="#fb8072" stroke="black" stroke-dasharray="5,2" d="M152,-90C152,-90 192,-90 192,-90 198,-90 204,-96 204,-102 204,-102 204,-120 204,-120 204,-126 198,-132 192,-132 192,-132 152,-132 152,-132 146,-132 140,-126 140,-120 140,-120 140,-102 140,-102 140,-96 146,-90 152,-90"/>
</g>
<g id="clust34" class="cluster">
<title>outer_cluster_i64&#45;4</title>
</g>
<g id="clust35" class="cluster">
<title>cluster_i64&#45;4</title>
<path fill="#80b1d3" stroke="black" stroke-dasharray="5,2" d="M283,-11C283,-11 319,-11 319,-11 325,-11 331,-17 331,-23 331,-23 331,-41 331,-41 331,-47 325,-53 319,-53 319,-53 283,-53 283,-53 277,-53 271,-47 271,-41 271,-41 271,-23 271,-23 271,-17 277,-11 283,-11"/>
</g>
<g id="clust37" class="cluster">
<title>outer_cluster_i64&#45;0</title>
</g>
<g id="clust38" class="cluster">
<title>cluster_i64&#45;0</title>
<path fill="#80b1d3" stroke="black" stroke-dasharray="5,2" d="M27,-90C27,-90 63,-90 63,-90 69,-90 75,-96 75,-102 75,-102 75,-120 75,-120 75,-126 69,-132 63,-132 63,-132 27,-132 27,-132 21,-132 15,-126 15,-120 15,-120 15,-102 15,-102 15,-96 21,-90 27,-90"/>
</g>
<!-- function&#45;1&#45;ImmVal&#45;&gt;primitive&#45;i64&#45;4 -->
<g id="edge1" class="edge">
<title>function&#45;1&#45;ImmVal:s&#45;&gt;primitive&#45;i64&#45;4</title>
<path fill="none" stroke="black" d="M301,-95C301,-81.84 301,-67.11 301,-55.3"/>
<polygon fill="black" stroke="black" points="302.75,-58 301,-53 299.25,-58 302.75,-58"/>
</g>
<!-- function&#45;0&#45;ImmVal&#45;&gt;primitive&#45;i64&#45;0 -->
<g id="edge2" class="edge">
<title>function&#45;0&#45;ImmVal:s&#45;&gt;primitive&#45;i64&#45;0</title>
<path fill="none" stroke="black" d="M45,-174C45,-160.84 45,-146.11 45,-134.3"/>
<polygon fill="black" stroke="black" points="46.75,-137 45,-132 43.25,-137 46.75,-137"/>
</g>
<!-- function&#45;0&#45;Jal&#45;&gt;function&#45;0&#45;ImmVal -->
<g id="edge3" class="edge">
<title>function&#45;0&#45;Jal:s&#45;&gt;function&#45;0&#45;ImmVal</title>
<path fill="none" stroke="black" d="M84,-253C84,-237.82 75.52,-223.32 66.48,-212.17"/>
<polygon fill="black" stroke="black" points="70.05,-212.95 65.13,-211 67.76,-215.6 70.05,-212.95"/>
</g>
<!-- function&#45;2&#45;Bne&#45;&gt;function&#45;1&#45;ImmVal -->
<g id="edge6" class="edge">
<title>function&#45;2&#45;Bne:s&#45;&gt;function&#45;1&#45;ImmVal</title>
<path fill="none" stroke="black" d="M484,-253C484,-212.64 432.52,-240.41 402,-214 382.61,-197.22 387.43,-184.81 370,-166 358.48,-153.57 343.92,-141.73 331.15,-132.32"/>
<polygon fill="black" stroke="black" points="335.17,-131.56 329.89,-132 334.29,-134.95 335.17,-131.56"/>
</g>
<!-- function&#45;2&#45;Bne&#45;&gt;function&#45;1&#45;RegVal -->
<g id="edge4" class="edge">
<title>function&#45;2&#45;Bne:s&#45;&gt;function&#45;1&#45;RegVal</title>
<path fill="none" stroke="black" d="M461,-253C461,-242.6 449.04,-247.73 439,-245 365.3,-224.99 344.77,-229.53 270,-214 248.21,-209.47 223.85,-203.82 204.76,-199.26"/>
<polygon fill="black" stroke="black" points="208.08,-199.49 203,-198 206.05,-202.33 208.08,-199.49"/>
</g>
<!-- function&#45;2&#45;Bne&#45;&gt;function&#45;0&#45;RegVal -->
<g id="edge5" class="edge">
<title>function&#45;2&#45;Bne:s&#45;&gt;function&#45;0&#45;RegVal</title>
<path fill="none" stroke="black" d="M475,-253C475,-237.71 466.31,-223.2 457.03,-212.07"/>
<polygon fill="black" stroke="black" points="460.65,-212.6 455.59,-211 458.55,-215.4 460.65,-212.6"/>
</g>
<!-- function&#45;1&#45;RegVal&#45;&gt;primitive&#45;String&#45;1 -->
<g id="edge13" class="edge">
<title>function&#45;1&#45;RegVal:s&#45;&gt;primitive&#45;String&#45;1</title>
<path fill="none" stroke="black" d="M172,-174C172,-160.84 172,-146.11 172,-134.3"/>
<polygon fill="black" stroke="black" points="173.75,-137 172,-132 170.25,-137 173.75,-137"/>
</g>
<!-- function&#45;0&#45;RegVal&#45;&gt;primitive&#45;String&#45;0 -->
<g id="edge12" class="edge">
<title>function&#45;0&#45;RegVal:s&#45;&gt;primitive&#45;String&#45;0</title>
<path fill="none" stroke="black" d="M436,-174C436,-160.84 436,-146.11 436,-134.3"/>
<polygon fill="black" stroke="black" points="437.75,-137 436,-132 434.25,-137 437.75,-137"/>
</g>
<!-- function&#45;3&#45;Bne&#45;&gt;function&#45;1&#45;ImmVal -->
<g id="edge9" class="edge">
<title>function&#45;3&#45;Bne:s&#45;&gt;function&#45;1&#45;ImmVal</title>
<path fill="none" stroke="black" d="M426,-253C426,-228.49 403.58,-232.05 387,-214 362.18,-186.97 335.14,-154.33 318.13,-133.38"/>
<polygon fill="black" stroke="black" points="321.54,-134.5 316.87,-132 318.96,-136.87 321.54,-134.5"/>
</g>
<!-- function&#45;3&#45;Bne&#45;&gt;function&#45;1&#45;RegVal -->
<g id="edge8" class="edge">
<title>function&#45;3&#45;Bne:s&#45;&gt;function&#45;1&#45;RegVal</title>
<path fill="none" stroke="black" d="M417,-253C417,-250.3 272.23,-215.26 204.81,-199.08"/>
<polygon fill="black" stroke="black" points="208.12,-199.21 203,-197.86 206.16,-202.11 208.12,-199.21"/>
</g>
<!-- function&#45;3&#45;Bne&#45;&gt;function&#45;0&#45;RegVal -->
<g id="edge7" class="edge">
<title>function&#45;3&#45;Bne:s&#45;&gt;function&#45;0&#45;RegVal</title>
<path fill="none" stroke="black" d="M403,-253C403,-238.46 410.04,-223.92 417.51,-212.58"/>
<polygon fill="black" stroke="black" points="416.67,-215.48 419.5,-211 414.5,-212.74 416.67,-215.48"/>
</g>
<!-- function&#45;2&#45;Seq2&#45;&gt;function&#45;1&#45;Seq2 -->
<g id="edge10" class="edge">
<title>function&#45;2&#45;Seq2:s&#45;&gt;function&#45;1&#45;Seq2</title>
<path fill="none" stroke="black" d="M343,-253C343,-241.59 331.78,-243.91 319.57,-249.8"/>
<polygon fill="black" stroke="black" points="320.71,-246.57 318,-251.12 322.96,-249.26 320.71,-246.57"/>
</g>
<!-- function&#45;2&#45;Seq2&#45;&gt;function&#45;1&#45;Jal -->
<g id="edge11" class="edge">
<title>function&#45;2&#45;Seq2:s&#45;&gt;function&#45;1&#45;Jal</title>
<path fill="none" stroke="black" d="M365,-253C365,-233.06 348.78,-217.48 332.67,-206.93"/>
<polygon fill="black" stroke="black" points="335.65,-207.62 331,-205.09 333.06,-209.97 335.65,-207.62"/>
</g>
<!-- function&#45;1&#45;Seq2&#45;&gt;function&#45;2&#45;Bne -->
<g id="edge20" class="edge">
<title>function&#45;1&#45;Seq2:s&#45;&gt;function&#45;2&#45;Bne</title>
<path fill="none" stroke="black" d="M277,-253C277,-178.07 399.84,-204.55 437,-223.5 446.53,-228.36 453.96,-237.41 459.33,-246.17"/>
<polygon fill="black" stroke="black" points="456.37,-245.62 461.1,-248 458.88,-243.19 456.37,-245.62"/>
</g>
<!-- function&#45;1&#45;Seq2&#45;&gt;function&#45;1&#45;Jal -->
<g id="edge21" class="edge">
<title>function&#45;1&#45;Seq2:s&#45;&gt;function&#45;1&#45;Jal</title>
<path fill="none" stroke="black" d="M299,-253C299,-239.83 299.46,-225.1 299.93,-213.3"/>
<polygon fill="black" stroke="black" points="301.42,-216.14 300.15,-211 297.94,-215.81 301.42,-216.14"/>
</g>
<!-- function&#45;1&#45;Jal&#45;&gt;function&#45;1&#45;ImmVal -->
<g id="edge22" class="edge">
<title>function&#45;1&#45;Jal:s&#45;&gt;function&#45;1&#45;ImmVal</title>
<path fill="none" stroke="black" d="M301,-174C301,-160.84 301,-146.11 301,-134.3"/>
<polygon fill="black" stroke="black" points="302.75,-137 301,-132 299.25,-137 302.75,-137"/>
</g>
<!-- function&#45;0&#45;Beq&#45;&gt;function&#45;1&#45;ImmVal -->
<g id="edge16" class="edge">
<title>function&#45;0&#45;Beq:s&#45;&gt;function&#45;1&#45;ImmVal</title>
<path fill="none" stroke="black" d="M186,-253C186,-229.26 232.75,-184.19 248,-166 257.54,-154.62 268.98,-142.77 278.79,-133.08"/>
<polygon fill="black" stroke="black" points="277.19,-136.06 280.6,-132 275.41,-133.05 277.19,-136.06"/>
</g>
<!-- function&#45;0&#45;Beq&#45;&gt;function&#45;1&#45;RegVal -->
<g id="edge14" class="edge">
<title>function&#45;0&#45;Beq:s&#45;&gt;function&#45;1&#45;RegVal</title>
<path fill="none" stroke="black" d="M163,-253C163,-239.73 164.83,-224.99 166.73,-213.22"/>
<polygon fill="black" stroke="black" points="167.4,-216.29 167.61,-211 164.14,-215.01 167.4,-216.29"/>
</g>
<!-- function&#45;0&#45;Beq&#45;&gt;function&#45;0&#45;RegVal -->
<g id="edge15" class="edge">
<title>function&#45;0&#45;Beq:s&#45;&gt;function&#45;0&#45;RegVal</title>
<path fill="none" stroke="black" d="M177,-253C177,-240.91 191.33,-248.15 203,-245 240.23,-234.95 346.33,-210.89 401.2,-198.56"/>
<polygon fill="black" stroke="black" points="399.74,-201.58 403,-197.4 397.85,-198.64 399.74,-201.58"/>
</g>
<!-- function&#45;1&#45;Beq&#45;&gt;function&#45;1&#45;ImmVal -->
<g id="edge19" class="edge">
<title>function&#45;1&#45;Beq:s&#45;&gt;function&#45;1&#45;ImmVal</title>
<path fill="none" stroke="black" d="M244,-253C244,-208.07 269.18,-160.58 286.07,-133.78"/>
<polygon fill="black" stroke="black" points="285.53,-136.73 287.91,-132 283.1,-134.21 285.53,-136.73"/>
</g>
<!-- function&#45;1&#45;Beq&#45;&gt;function&#45;1&#45;RegVal -->
<g id="edge18" class="edge">
<title>function&#45;1&#45;Beq:s&#45;&gt;function&#45;1&#45;RegVal</title>
<path fill="none" stroke="black" d="M235,-253C235,-233.63 219.69,-218.37 204.04,-207.84"/>
<polygon fill="black" stroke="black" points="207.98,-208.79 203,-207 205.78,-211.51 207.98,-208.79"/>
</g>
<!-- function&#45;1&#45;Beq&#45;&gt;function&#45;0&#45;RegVal -->
<g id="edge17" class="edge">
<title>function&#45;1&#45;Beq:s&#45;&gt;function&#45;0&#45;RegVal</title>
<path fill="none" stroke="black" d="M221,-253C221,-243.74 340.89,-213.61 401.2,-199.03"/>
<polygon fill="black" stroke="black" points="399.79,-202.06 403,-197.84 397.86,-199.14 399.79,-202.06"/>
</g>
<!-- function&#45;0&#45;Bne&#45;&gt;function&#45;0&#45;ImmVal -->
<g id="edge25" class="edge">
<title>function&#45;0&#45;Bne:s&#45;&gt;function&#45;0&#45;ImmVal</title>
<path fill="none" stroke="black" d="M197,-332C197,-265.69 95.32,-344.04 53,-293 43.27,-281.27 42.99,-239.45 43.86,-213.14"/>
<polygon fill="black" stroke="black" points="45.36,-216.13 44.05,-211 41.87,-215.83 45.36,-216.13"/>
</g>
<!-- function&#45;0&#45;Bne&#45;&gt;function&#45;1&#45;RegVal -->
<g id="edge23" class="edge">
<title>function&#45;0&#45;Bne:s&#45;&gt;function&#45;1&#45;RegVal</title>
<path fill="none" stroke="black" d="M174,-332C174,-309.29 148.81,-314.32 141,-293 133.66,-272.97 135.65,-265.65 141,-245 143.99,-233.48 150.02,-221.79 155.9,-212.26"/>
<polygon fill="black" stroke="black" points="154.63,-215.4 157.58,-211 152.53,-212.59 154.63,-215.4"/>
</g>
<!-- function&#45;0&#45;Bne&#45;&gt;function&#45;0&#45;RegVal -->
<g id="edge24" class="edge">
<title>function&#45;0&#45;Bne:s&#45;&gt;function&#45;0&#45;RegVal</title>
<path fill="none" stroke="black" d="M188,-332C188,-259.48 463.88,-347.26 512,-293 526.15,-277.04 521.84,-263.93 512,-245 502.7,-227.12 484.48,-213.94 468.09,-205.07"/>
<polygon fill="black" stroke="black" points="471.47,-206.53 467,-203.68 468.72,-208.69 471.47,-206.53"/>
</g>
<!-- function&#45;1&#45;Bne&#45;&gt;function&#45;0&#45;ImmVal -->
<g id="edge28" class="edge">
<title>function&#45;1&#45;Bne:s&#45;&gt;function&#45;0&#45;ImmVal</title>
<path fill="none" stroke="black" d="M139,-332C139,-285.53 68.02,-331.5 42,-293 26.05,-269.39 31.32,-235.19 37.45,-213.02"/>
<polygon fill="black" stroke="black" points="37.44,-216.11 38.85,-211 34.56,-214.12 37.44,-216.11"/>
</g>
<!-- function&#45;1&#45;Bne&#45;&gt;function&#45;1&#45;RegVal -->
<g id="edge27" class="edge">
<title>function&#45;1&#45;Bne:s&#45;&gt;function&#45;1&#45;RegVal</title>
<path fill="none" stroke="black" d="M130,-332C130,-293.27 122.72,-281.73 135,-245 138.9,-233.32 146.03,-221.78 152.92,-212.38"/>
<polygon fill="black" stroke="black" points="152.23,-215.97 154.06,-211 149.53,-213.74 152.23,-215.97"/>
</g>
<!-- function&#45;1&#45;Bne&#45;&gt;function&#45;0&#45;RegVal -->
<g id="edge26" class="edge">
<title>function&#45;1&#45;Bne:s&#45;&gt;function&#45;0&#45;RegVal</title>
<path fill="none" stroke="black" d="M116,-332C116,-246.01 442.98,-356.47 501,-293 515.39,-277.25 510.14,-264.28 501,-245 493.99,-230.22 480.74,-218.13 467.93,-209.17"/>
<polygon fill="black" stroke="black" points="471.79,-210.51 467,-208.26 469.34,-213.01 471.79,-210.51"/>
</g>
<!-- function&#45;0&#45;Seq2&#45;&gt;function&#45;0&#45;Jal -->
<g id="edge30" class="edge">
<title>function&#45;0&#45;Seq2:s&#45;&gt;function&#45;0&#45;Jal</title>
<path fill="none" stroke="black" d="M78,-332C78,-318.78 79.37,-304.04 80.8,-292.25"/>
<polygon fill="black" stroke="black" points="81.74,-295.29 81.46,-290 78.38,-294.31 81.74,-295.29"/>
</g>
<!-- function&#45;0&#45;Seq2&#45;&gt;function&#45;0&#45;Beq -->
<g id="edge29" class="edge">
<title>function&#45;0&#45;Seq2:s&#45;&gt;function&#45;0&#45;Beq</title>
<path fill="none" stroke="black" d="M56,-332C56,-322.45 105.53,-298.91 139.86,-283.74"/>
<polygon fill="black" stroke="black" points="138.46,-286.5 142,-282.56 136.77,-283.43 138.46,-286.5"/>
</g>
<!-- function&#45;1&#45;ImmVal -->
<g id="node1" class="node">
<title>function&#45;1&#45;ImmVal</title>
<g id="a_node1"><a xlink:title="Imm&#45;4: function&#45;1&#45;ImmVal">
<path fill="white" stroke="transparent" d="M280.67,-95C280.67,-95 321.33,-95 321.33,-95 326.67,-95 332,-100.33 332,-105.67 332,-105.67 332,-116.33 332,-116.33 332,-121.67 326.67,-127 321.33,-127 321.33,-127 280.67,-127 280.67,-127 275.33,-127 270,-121.67 270,-116.33 270,-116.33 270,-105.67 270,-105.67 270,-100.33 275.33,-95 280.67,-95"/>
<text text-anchor="start" x="275" y="-107.3" font-family="Helvetica,sans-Serif" font-size="14.00">ImmVal</text>
<path fill="none" stroke="black" d="M280.67,-95C280.67,-95 321.33,-95 321.33,-95 326.67,-95 332,-100.33 332,-105.67 332,-105.67 332,-116.33 332,-116.33 332,-121.67 326.67,-127 321.33,-127 321.33,-127 280.67,-127 280.67,-127 275.33,-127 270,-121.67 270,-116.33 270,-116.33 270,-105.67 270,-105.67 270,-100.33 275.33,-95 280.67,-95"/>
</a>
</g>
</g>
<!-- primitive&#45;i64&#45;4 -->
<g id="node2" class="node">
<title>primitive&#45;i64&#45;4</title>
<g id="a_node2"><a xlink:title="i64&#45;4: primitive&#45;i64&#45;4">
<path fill="white" stroke="transparent" d="M295.67,-16C295.67,-16 306.33,-16 306.33,-16 311.67,-16 317,-21.33 317,-26.67 317,-26.67 317,-37.33 317,-37.33 317,-42.67 311.67,-48 306.33,-48 306.33,-48 295.67,-48 295.67,-48 290.33,-48 285,-42.67 285,-37.33 285,-37.33 285,-26.67 285,-26.67 285,-21.33 290.33,-16 295.67,-16"/>
<text text-anchor="start" x="296" y="-28.3" font-family="Helvetica,sans-Serif" font-size="14.00">4</text>
<path fill="none" stroke="black" d="M295.67,-16C295.67,-16 306.33,-16 306.33,-16 311.67,-16 317,-21.33 317,-26.67 317,-26.67 317,-37.33 317,-37.33 317,-42.67 311.67,-48 306.33,-48 306.33,-48 295.67,-48 295.67,-48 290.33,-48 285,-42.67 285,-37.33 285,-37.33 285,-26.67 285,-26.67 285,-21.33 290.33,-16 295.67,-16"/>
</a>
</g>
</g>
<!-- function&#45;0&#45;ImmVal -->
<g id="node3" class="node">
<title>function&#45;0&#45;ImmVal</title>
<g id="a_node3"><a xlink:title="Imm&#45;2: function&#45;0&#45;ImmVal">
<path fill="white" stroke="transparent" d="M24.67,-174C24.67,-174 65.33,-174 65.33,-174 70.67,-174 76,-179.33 76,-184.67 76,-184.67 76,-195.33 76,-195.33 76,-200.67 70.67,-206 65.33,-206 65.33,-206 24.67,-206 24.67,-206 19.33,-206 14,-200.67 14,-195.33 14,-195.33 14,-184.67 14,-184.67 14,-179.33 19.33,-174 24.67,-174"/>
<text text-anchor="start" x="19" y="-186.3" font-family="Helvetica,sans-Serif" font-size="14.00">ImmVal</text>
<path fill="none" stroke="black" d="M24.67,-174C24.67,-174 65.33,-174 65.33,-174 70.67,-174 76,-179.33 76,-184.67 76,-184.67 76,-195.33 76,-195.33 76,-200.67 70.67,-206 65.33,-206 65.33,-206 24.67,-206 24.67,-206 19.33,-206 14,-200.67 14,-195.33 14,-195.33 14,-184.67 14,-184.67 14,-179.33 19.33,-174 24.67,-174"/>
</a>
</g>
</g>
<!-- primitive&#45;i64&#45;0 -->
<g id="node4" class="node">
<title>primitive&#45;i64&#45;0</title>
<g id="a_node4"><a xlink:title="i64&#45;0: primitive&#45;i64&#45;0">
<path fill="white" stroke="transparent" d="M39.67,-95C39.67,-95 50.33,-95 50.33,-95 55.67,-95 61,-100.33 61,-105.67 61,-105.67 61,-116.33 61,-116.33 61,-121.67 55.67,-127 50.33,-127 50.33,-127 39.67,-127 39.67,-127 34.33,-127 29,-121.67 29,-116.33 29,-116.33 29,-105.67 29,-105.67 29,-100.33 34.33,-95 39.67,-95"/>
<text text-anchor="start" x="40" y="-107.3" font-family="Helvetica,sans-Serif" font-size="14.00">0</text>
<path fill="none" stroke="black" d="M39.67,-95C39.67,-95 50.33,-95 50.33,-95 55.67,-95 61,-100.33 61,-105.67 61,-105.67 61,-116.33 61,-116.33 61,-121.67 55.67,-127 50.33,-127 50.33,-127 39.67,-127 39.67,-127 34.33,-127 29,-121.67 29,-116.33 29,-116.33 29,-105.67 29,-105.67 29,-100.33 34.33,-95 39.67,-95"/>
</a>
</g>
</g>
<!-- function&#45;0&#45;Jal -->
<g id="node5" class="node">
<title>function&#45;0&#45;Jal</title>
<g id="a_node5"><a xlink:title="Inst&#45;6: function&#45;0&#45;Jal">
<path fill="white" stroke="transparent" d="M78.67,-253C78.67,-253 89.33,-253 89.33,-253 94.67,-253 100,-258.33 100,-263.67 100,-263.67 100,-274.33 100,-274.33 100,-279.67 94.67,-285 89.33,-285 89.33,-285 78.67,-285 78.67,-285 73.33,-285 68,-279.67 68,-274.33 68,-274.33 68,-263.67 68,-263.67 68,-258.33 73.33,-253 78.67,-253"/>
<text text-anchor="start" x="75.5" y="-265.3" font-family="Helvetica,sans-Serif" font-size="14.00">Jal</text>
<path fill="none" stroke="black" d="M78.67,-253C78.67,-253 89.33,-253 89.33,-253 94.67,-253 100,-258.33 100,-263.67 100,-263.67 100,-274.33 100,-274.33 100,-279.67 94.67,-285 89.33,-285 89.33,-285 78.67,-285 78.67,-285 73.33,-285 68,-279.67 68,-274.33 68,-274.33 68,-263.67 68,-263.67 68,-258.33 73.33,-253 78.67,-253"/>
</a>
</g>
</g>
<!-- function&#45;2&#45;Bne -->
<g id="node6" class="node">
<title>function&#45;2&#45;Bne</title>
<g id="a_node6"><a xlink:title="Inst&#45;7: function&#45;2&#45;Bne">
<path fill="white" stroke="transparent" d="M461.67,-253C461.67,-253 478.33,-253 478.33,-253 483.67,-253 489,-258.33 489,-263.67 489,-263.67 489,-274.33 489,-274.33 489,-279.67 483.67,-285 478.33,-285 478.33,-285 461.67,-285 461.67,-285 456.33,-285 451,-279.67 451,-274.33 451,-274.33 451,-263.67 451,-263.67 451,-258.33 456.33,-253 461.67,-253"/>
<text text-anchor="start" x="456" y="-265.3" font-family="Helvetica,sans-Serif" font-size="14.00">Bne</text>
<path fill="none" stroke="black" d="M461.67,-253C461.67,-253 478.33,-253 478.33,-253 483.67,-253 489,-258.33 489,-263.67 489,-263.67 489,-274.33 489,-274.33 489,-279.67 483.67,-285 478.33,-285 478.33,-285 461.67,-285 461.67,-285 456.33,-285 451,-279.67 451,-274.33 451,-274.33 451,-263.67 451,-263.67 451,-258.33 456.33,-253 461.67,-253"/>
</a>
</g>
</g>
<!-- function&#45;1&#45;RegVal -->
<g id="node7" class="node">
<title>function&#45;1&#45;RegVal</title>
<g id="a_node7"><a xlink:title="Inst&#45;1: function&#45;1&#45;RegVal">
<path fill="white" stroke="transparent" d="M153.17,-174C153.17,-174 188.83,-174 188.83,-174 194.17,-174 199.5,-179.33 199.5,-184.67 199.5,-184.67 199.5,-195.33 199.5,-195.33 199.5,-200.67 194.17,-206 188.83,-206 188.83,-206 153.17,-206 153.17,-206 147.83,-206 142.5,-200.67 142.5,-195.33 142.5,-195.33 142.5,-184.67 142.5,-184.67 142.5,-179.33 147.83,-174 153.17,-174"/>
<text text-anchor="start" x="148" y="-186.3" font-family="Helvetica,sans-Serif" font-size="14.00">RegVal</text>
<path fill="none" stroke="black" d="M153.17,-174C153.17,-174 188.83,-174 188.83,-174 194.17,-174 199.5,-179.33 199.5,-184.67 199.5,-184.67 199.5,-195.33 199.5,-195.33 199.5,-200.67 194.17,-206 188.83,-206 188.83,-206 153.17,-206 153.17,-206 147.83,-206 142.5,-200.67 142.5,-195.33 142.5,-195.33 142.5,-184.67 142.5,-184.67 142.5,-179.33 147.83,-174 153.17,-174"/>
</a>
</g>
</g>
<!-- function&#45;0&#45;RegVal -->
<g id="node8" class="node">
<title>function&#45;0&#45;RegVal</title>
<g id="a_node8"><a xlink:title="Inst&#45;0: function&#45;0&#45;RegVal">
<path fill="white" stroke="transparent" d="M417.17,-174C417.17,-174 452.83,-174 452.83,-174 458.17,-174 463.5,-179.33 463.5,-184.67 463.5,-184.67 463.5,-195.33 463.5,-195.33 463.5,-200.67 458.17,-206 452.83,-206 452.83,-206 417.17,-206 417.17,-206 411.83,-206 406.5,-200.67 406.5,-195.33 406.5,-195.33 406.5,-184.67 406.5,-184.67 406.5,-179.33 411.83,-174 417.17,-174"/>
<text text-anchor="start" x="412" y="-186.3" font-family="Helvetica,sans-Serif" font-size="14.00">RegVal</text>
<path fill="none" stroke="black" d="M417.17,-174C417.17,-174 452.83,-174 452.83,-174 458.17,-174 463.5,-179.33 463.5,-184.67 463.5,-184.67 463.5,-195.33 463.5,-195.33 463.5,-200.67 458.17,-206 452.83,-206 452.83,-206 417.17,-206 417.17,-206 411.83,-206 406.5,-200.67 406.5,-195.33 406.5,-195.33 406.5,-184.67 406.5,-184.67 406.5,-179.33 411.83,-174 417.17,-174"/>
</a>
</g>
</g>
<!-- function&#45;3&#45;Bne -->
<g id="node9" class="node">
<title>function&#45;3&#45;Bne</title>
<g id="a_node9"><a xlink:title="Inst&#45;7: function&#45;3&#45;Bne">
<path fill="white" stroke="transparent" d="M403.67,-253C403.67,-253 420.33,-253 420.33,-253 425.67,-253 431,-258.33 431,-263.67 431,-263.67 431,-274.33 431,-274.33 431,-279.67 425.67,-285 420.33,-285 420.33,-285 403.67,-285 403.67,-285 398.33,-285 393,-279.67 393,-274.33 393,-274.33 393,-263.67 393,-263.67 393,-258.33 398.33,-253 403.67,-253"/>
<text text-anchor="start" x="398" y="-265.3" font-family="Helvetica,sans-Serif" font-size="14.00">Bne</text>
<path fill="none" stroke="black" d="M403.67,-253C403.67,-253 420.33,-253 420.33,-253 425.67,-253 431,-258.33 431,-263.67 431,-263.67 431,-274.33 431,-274.33 431,-279.67 425.67,-285 420.33,-285 420.33,-285 403.67,-285 403.67,-285 398.33,-285 393,-279.67 393,-274.33 393,-274.33 393,-263.67 393,-263.67 393,-258.33 398.33,-253 403.67,-253"/>
</a>
</g>
</g>
<!-- function&#45;2&#45;Seq2 -->
<g id="node10" class="node">
<title>function&#45;2&#45;Seq2</title>
<g id="a_node10"><a xlink:title="Inst&#45;7: function&#45;2&#45;Seq2">
<path fill="white" stroke="transparent" d="M341.67,-253C341.67,-253 366.33,-253 366.33,-253 371.67,-253 377,-258.33 377,-263.67 377,-263.67 377,-274.33 377,-274.33 377,-279.67 371.67,-285 366.33,-285 366.33,-285 341.67,-285 341.67,-285 336.33,-285 331,-279.67 331,-274.33 331,-274.33 331,-263.67 331,-263.67 331,-258.33 336.33,-253 341.67,-253"/>
<text text-anchor="start" x="336" y="-265.3" font-family="Helvetica,sans-Serif" font-size="14.00">Seq2</text>
<path fill="none" stroke="black" d="M341.67,-253C341.67,-253 366.33,-253 366.33,-253 371.67,-253 377,-258.33 377,-263.67 377,-263.67 377,-274.33 377,-274.33 377,-279.67 371.67,-285 366.33,-285 366.33,-285 341.67,-285 341.67,-285 336.33,-285 331,-279.67 331,-274.33 331,-274.33 331,-263.67 331,-263.67 331,-258.33 336.33,-253 341.67,-253"/>
</a>
</g>
</g>
<!-- function&#45;1&#45;Seq2 -->
<g id="node11" class="node">
<title>function&#45;1&#45;Seq2</title>
<g id="a_node11"><a xlink:title="Inst&#45;5: function&#45;1&#45;Seq2">
<path fill="white" stroke="transparent" d="M275.67,-253C275.67,-253 300.33,-253 300.33,-253 305.67,-253 311,-258.33 311,-263.67 311,-263.67 311,-274.33 311,-274.33 311,-279.67 305.67,-285 300.33,-285 300.33,-285 275.67,-285 275.67,-285 270.33,-285 265,-279.67 265,-274.33 265,-274.33 265,-263.67 265,-263.67 265,-258.33 270.33,-253 275.67,-253"/>
<text text-anchor="start" x="270" y="-265.3" font-family="Helvetica,sans-Serif" font-size="14.00">Seq2</text>
<path fill="none" stroke="black" d="M275.67,-253C275.67,-253 300.33,-253 300.33,-253 305.67,-253 311,-258.33 311,-263.67 311,-263.67 311,-274.33 311,-274.33 311,-279.67 305.67,-285 300.33,-285 300.33,-285 275.67,-285 275.67,-285 270.33,-285 265,-279.67 265,-274.33 265,-274.33 265,-263.67 265,-263.67 265,-258.33 270.33,-253 275.67,-253"/>
</a>
</g>
</g>
<!-- function&#45;1&#45;Jal -->
<g id="node12" class="node">
<title>function&#45;1&#45;Jal</title>
<g id="a_node12"><a xlink:title="Inst&#45;8: function&#45;1&#45;Jal">
<path fill="white" stroke="transparent" d="M295.67,-174C295.67,-174 306.33,-174 306.33,-174 311.67,-174 317,-179.33 317,-184.67 317,-184.67 317,-195.33 317,-195.33 317,-200.67 311.67,-206 306.33,-206 306.33,-206 295.67,-206 295.67,-206 290.33,-206 285,-200.67 285,-195.33 285,-195.33 285,-184.67 285,-184.67 285,-179.33 290.33,-174 295.67,-174"/>
<text text-anchor="start" x="292.5" y="-186.3" font-family="Helvetica,sans-Serif" font-size="14.00">Jal</text>
<path fill="none" stroke="black" d="M295.67,-174C295.67,-174 306.33,-174 306.33,-174 311.67,-174 317,-179.33 317,-184.67 317,-184.67 317,-195.33 317,-195.33 317,-200.67 311.67,-206 306.33,-206 306.33,-206 295.67,-206 295.67,-206 290.33,-206 285,-200.67 285,-195.33 285,-195.33 285,-184.67 285,-184.67 285,-179.33 290.33,-174 295.67,-174"/>
</a>
</g>
</g>
<!-- primitive&#45;String&#45;0 -->
<g id="node13" class="node">
<title>primitive&#45;String&#45;0</title>
<g id="a_node13"><a xlink:title="String&#45;0: primitive&#45;String&#45;0">
<path fill="white" stroke="transparent" d="M418.17,-95C418.17,-95 453.83,-95 453.83,-95 459.17,-95 464.5,-100.33 464.5,-105.67 464.5,-105.67 464.5,-116.33 464.5,-116.33 464.5,-121.67 459.17,-127 453.83,-127 453.83,-127 418.17,-127 418.17,-127 412.83,-127 407.5,-121.67 407.5,-116.33 407.5,-116.33 407.5,-105.67 407.5,-105.67 407.5,-100.33 412.83,-95 418.17,-95"/>
<text text-anchor="start" x="413" y="-107.3" font-family="Helvetica,sans-Serif" font-size="14.00">&quot;a1_0&quot;</text>
<path fill="none" stroke="black" d="M418.17,-95C418.17,-95 453.83,-95 453.83,-95 459.17,-95 464.5,-100.33 464.5,-105.67 464.5,-105.67 464.5,-116.33 464.5,-116.33 464.5,-121.67 459.17,-127 453.83,-127 453.83,-127 418.17,-127 418.17,-127 412.83,-127 407.5,-121.67 407.5,-116.33 407.5,-116.33 407.5,-105.67 407.5,-105.67 407.5,-100.33 412.83,-95 418.17,-95"/>
</a>
</g>
</g>
<!-- primitive&#45;String&#45;1 -->
<g id="node14" class="node">
<title>primitive&#45;String&#45;1</title>
<g id="a_node14"><a xlink:title="String&#45;1: primitive&#45;String&#45;1">
<path fill="white" stroke="transparent" d="M154.17,-95C154.17,-95 189.83,-95 189.83,-95 195.17,-95 200.5,-100.33 200.5,-105.67 200.5,-105.67 200.5,-116.33 200.5,-116.33 200.5,-121.67 195.17,-127 189.83,-127 189.83,-127 154.17,-127 154.17,-127 148.83,-127 143.5,-121.67 143.5,-116.33 143.5,-116.33 143.5,-105.67 143.5,-105.67 143.5,-100.33 148.83,-95 154.17,-95"/>
<text text-anchor="start" x="149" y="-107.3" font-family="Helvetica,sans-Serif" font-size="14.00">&quot;a4_0&quot;</text>
<path fill="none" stroke="black" d="M154.17,-95C154.17,-95 189.83,-95 189.83,-95 195.17,-95 200.5,-100.33 200.5,-105.67 200.5,-105.67 200.5,-116.33 200.5,-116.33 200.5,-121.67 195.17,-127 189.83,-127 189.83,-127 154.17,-127 154.17,-127 148.83,-127 143.5,-121.67 143.5,-116.33 143.5,-116.33 143.5,-105.67 143.5,-105.67 143.5,-100.33 148.83,-95 154.17,-95"/>
</a>
</g>
</g>
<!-- function&#45;0&#45;Beq -->
<g id="node15" class="node">
<title>function&#45;0&#45;Beq</title>
<g id="a_node15"><a xlink:title="Inst&#45;5: function&#45;0&#45;Beq">
<path fill="white" stroke="transparent" d="M163.67,-253C163.67,-253 180.33,-253 180.33,-253 185.67,-253 191,-258.33 191,-263.67 191,-263.67 191,-274.33 191,-274.33 191,-279.67 185.67,-285 180.33,-285 180.33,-285 163.67,-285 163.67,-285 158.33,-285 153,-279.67 153,-274.33 153,-274.33 153,-263.67 153,-263.67 153,-258.33 158.33,-253 163.67,-253"/>
<text text-anchor="start" x="158" y="-265.3" font-family="Helvetica,sans-Serif" font-size="14.00">Beq</text>
<path fill="none" stroke="black" d="M163.67,-253C163.67,-253 180.33,-253 180.33,-253 185.67,-253 191,-258.33 191,-263.67 191,-263.67 191,-274.33 191,-274.33 191,-279.67 185.67,-285 180.33,-285 180.33,-285 163.67,-285 163.67,-285 158.33,-285 153,-279.67 153,-274.33 153,-274.33 153,-263.67 153,-263.67 153,-258.33 158.33,-253 163.67,-253"/>
</a>
</g>
</g>
<!-- function&#45;1&#45;Beq -->
<g id="node16" class="node">
<title>function&#45;1&#45;Beq</title>
<g id="a_node16"><a xlink:title="Inst&#45;5: function&#45;1&#45;Beq">
<path fill="white" stroke="transparent" d="M221.67,-253C221.67,-253 238.33,-253 238.33,-253 243.67,-253 249,-258.33 249,-263.67 249,-263.67 249,-274.33 249,-274.33 249,-279.67 243.67,-285 238.33,-285 238.33,-285 221.67,-285 221.67,-285 216.33,-285 211,-279.67 211,-274.33 211,-274.33 211,-263.67 211,-263.67 211,-258.33 216.33,-253 221.67,-253"/>
<text text-anchor="start" x="216" y="-265.3" font-family="Helvetica,sans-Serif" font-size="14.00">Beq</text>
<path fill="none" stroke="black" d="M221.67,-253C221.67,-253 238.33,-253 238.33,-253 243.67,-253 249,-258.33 249,-263.67 249,-263.67 249,-274.33 249,-274.33 249,-279.67 243.67,-285 238.33,-285 238.33,-285 221.67,-285 221.67,-285 216.33,-285 211,-279.67 211,-274.33 211,-274.33 211,-263.67 211,-263.67 211,-258.33 216.33,-253 221.67,-253"/>
</a>
</g>
</g>
<!-- function&#45;0&#45;Bne -->
<g id="node17" class="node">
<title>function&#45;0&#45;Bne</title>
<g id="a_node17"><a xlink:title="Inst&#45;3: function&#45;0&#45;Bne">
<path fill="white" stroke="transparent" d="M174.67,-332C174.67,-332 191.33,-332 191.33,-332 196.67,-332 202,-337.33 202,-342.67 202,-342.67 202,-353.33 202,-353.33 202,-358.67 196.67,-364 191.33,-364 191.33,-364 174.67,-364 174.67,-364 169.33,-364 164,-358.67 164,-353.33 164,-353.33 164,-342.67 164,-342.67 164,-337.33 169.33,-332 174.67,-332"/>
<text text-anchor="start" x="169" y="-344.3" font-family="Helvetica,sans-Serif" font-size="14.00">Bne</text>
<path fill="none" stroke="black" d="M174.67,-332C174.67,-332 191.33,-332 191.33,-332 196.67,-332 202,-337.33 202,-342.67 202,-342.67 202,-353.33 202,-353.33 202,-358.67 196.67,-364 191.33,-364 191.33,-364 174.67,-364 174.67,-364 169.33,-364 164,-358.67 164,-353.33 164,-353.33 164,-342.67 164,-342.67 164,-337.33 169.33,-332 174.67,-332"/>
</a>
</g>
</g>
<!-- function&#45;1&#45;Bne -->
<g id="node18" class="node">
<title>function&#45;1&#45;Bne</title>
<g id="a_node18"><a xlink:title="Inst&#45;3: function&#45;1&#45;Bne">
<path fill="white" stroke="transparent" d="M116.67,-332C116.67,-332 133.33,-332 133.33,-332 138.67,-332 144,-337.33 144,-342.67 144,-342.67 144,-353.33 144,-353.33 144,-358.67 138.67,-364 133.33,-364 133.33,-364 116.67,-364 116.67,-364 111.33,-364 106,-358.67 106,-353.33 106,-353.33 106,-342.67 106,-342.67 106,-337.33 111.33,-332 116.67,-332"/>
<text text-anchor="start" x="111" y="-344.3" font-family="Helvetica,sans-Serif" font-size="14.00">Bne</text>
<path fill="none" stroke="black" d="M116.67,-332C116.67,-332 133.33,-332 133.33,-332 138.67,-332 144,-337.33 144,-342.67 144,-342.67 144,-353.33 144,-353.33 144,-358.67 138.67,-364 133.33,-364 133.33,-364 116.67,-364 116.67,-364 111.33,-364 106,-358.67 106,-353.33 106,-353.33 106,-342.67 106,-342.67 106,-337.33 111.33,-332 116.67,-332"/>
</a>
</g>
</g>
<!-- function&#45;0&#45;Seq2 -->
<g id="node19" class="node">
<title>function&#45;0&#45;Seq2</title>
<g id="a_node19"><a xlink:title="Inst&#45;3: function&#45;0&#45;Seq2">
<path fill="white" stroke="transparent" d="M54.67,-332C54.67,-332 79.33,-332 79.33,-332 84.67,-332 90,-337.33 90,-342.67 90,-342.67 90,-353.33 90,-353.33 90,-358.67 84.67,-364 79.33,-364 79.33,-364 54.67,-364 54.67,-364 49.33,-364 44,-358.67 44,-353.33 44,-353.33 44,-342.67 44,-342.67 44,-337.33 49.33,-332 54.67,-332"/>
<text text-anchor="start" x="49" y="-344.3" font-family="Helvetica,sans-Serif" font-size="14.00">Seq2</text>
<path fill="none" stroke="black" d="M54.67,-332C54.67,-332 79.33,-332 79.33,-332 84.67,-332 90,-337.33 90,-342.67 90,-342.67 90,-353.33 90,-353.33 90,-358.67 84.67,-364 79.33,-364 79.33,-364 54.67,-364 54.67,-364 49.33,-364 44,-358.67 44,-353.33 44,-353.33 44,-342.67 44,-342.67 44,-337.33 49.33,-332 54.67,-332"/>
</a>
</g>
</g>
</g>
</svg>
