<?xml version="1.0" encoding="UTF-8" standalone="no"?>
<!DOCTYPE svg PUBLIC "-//W3C//DTD SVG 1.1//EN"
 "http://www.w3.org/Graphics/SVG/1.1/DTD/svg11.dtd">
<!-- Generated by graphviz version 2.43.0 (0)
 -->
<!-- Title: %3 Pages: 1 -->
<svg width="529pt" height="388pt"
 viewBox="0.00 0.00 529.47 388.00" xmlns="http://www.w3.org/2000/svg" xmlns:xlink="http://www.w3.org/1999/xlink">
<g id="graph0" class="graph" transform="scale(1 1) rotate(0) translate(4 384)">
<title>%3</title>
<polygon fill="white" stroke="#000000" points="-4,4 -4,-384 525.47,-384 525.47,4 -4,4"/>
<g id="clust1" class="cluster">
<title>outer_cluster_Imm&#45;2</title>
</g>
<g id="clust2" class="cluster">
<title>cluster_Imm&#45;2</title>
<path fill="#ffffb3" stroke="black" stroke-dasharray="5,2" d="M438,-90C438,-90 482,-90 482,-90 488,-90 494,-96 494,-102 494,-102 494,-120 494,-120 494,-126 488,-132 482,-132 482,-132 438,-132 438,-132 432,-132 426,-126 426,-120 426,-120 426,-102 426,-102 426,-96 432,-90 438,-90"/>
</g>
<g id="clust4" class="cluster">
<title>outer_cluster_Imm&#45;6</title>
</g>
<g id="clust5" class="cluster">
<title>cluster_Imm&#45;6</title>
<path fill="#ffffb3" stroke="black" stroke-dasharray="5,2" d="M283,-90C283,-90 327,-90 327,-90 333,-90 339,-96 339,-102 339,-102 339,-120 339,-120 339,-126 333,-132 327,-132 327,-132 283,-132 283,-132 277,-132 271,-126 271,-120 271,-120 271,-102 271,-102 271,-96 277,-90 283,-90"/>
</g>
<g id="clust7" class="cluster">
<title>outer_cluster_Imm&#45;4</title>
</g>
<g id="clust8" class="cluster">
<title>cluster_Imm&#45;4</title>
<path fill="#ffffb3" stroke="black" stroke-dasharray="5,2" d="M23,-169C23,-169 67,-169 67,-169 73,-169 79,-175 79,-181 79,-181 79,-199 79,-199 79,-205 73,-211 67,-211 67,-211 23,-211 23,-211 17,-211 11,-205 11,-199 11,-199 11,-181 11,-181 11,-175 17,-169 23,-169"/>
</g>
<g id="clust10" class="cluster">
<title>outer_cluster_Inst&#45;7</title>
</g>
<g id="clust11" class="cluster">
<title>cluster_Inst&#45;7</title>
<path fill="#bebada" stroke="black" stroke-dasharray="5,2" d="M154,-248C154,-248 306,-248 306,-248 312,-248 318,-254 318,-260 318,-260 318,-278 318,-278 318,-284 312,-290 306,-290 306,-290 154,-290 154,-290 148,-290 142,-284 142,-278 142,-278 142,-260 142,-260 142,-254 148,-248 154,-248"/>
</g>
<g id="clust13" class="cluster">
<title>outer_cluster_Inst&#45;1</title>
</g>
<g id="clust14" class="cluster">
<title>cluster_Inst&#45;1</title>
<path fill="#bebada" stroke="black" stroke-dasharray="5,2" d="M154,-169C154,-169 194,-169 194,-169 200,-169 206,-175 206,-181 206,-181 206,-199 206,-199 206,-205 200,-211 194,-211 194,-211 154,-211 154,-211 148,-211 142,-205 142,-199 142,-199 142,-181 142,-181 142,-175 148,-169 154,-169"/>
</g>
<g id="clust16" class="cluster">
<title>outer_cluster_Inst&#45;9</title>
</g>
<g id="clust17" class="cluster">
<title>cluster_Inst&#45;9</title>
<path fill="#bebada" stroke="black" stroke-dasharray="5,2" d="M336,-248C336,-248 488,-248 488,-248 494,-248 500,-254 500,-260 500,-260 500,-278 500,-278 500,-284 494,-290 488,-290 488,-290 336,-290 336,-290 330,-290 324,-284 324,-278 324,-278 324,-260 324,-260 324,-254 330,-248 336,-248"/>
</g>
<g id="clust19" class="cluster">
<title>outer_cluster_Inst&#45;10</title>
</g>
<g id="clust20" class="cluster">
<title>cluster_Inst&#45;10</title>
<path fill="#bebada" stroke="black" stroke-dasharray="5,2" d="M287,-169C287,-169 323,-169 323,-169 329,-169 335,-175 335,-181 335,-181 335,-199 335,-199 335,-205 329,-211 323,-211 323,-211 287,-211 287,-211 281,-211 275,-205 275,-199 275,-199 275,-181 275,-181 275,-175 281,-169 287,-169"/>
</g>
<g id="clust22" class="cluster">
<title>outer_cluster_Inst&#45;0</title>
</g>
<g id="clust23" class="cluster">
<title>cluster_Inst&#45;0</title>
<path fill="#bebada" stroke="black" stroke-dasharray="5,2" d="M368,-90C368,-90 408,-90 408,-90 414,-90 420,-96 420,-102 420,-102 420,-120 420,-120 420,-126 414,-132 408,-132 408,-132 368,-132 368,-132 362,-132 356,-126 356,-120 356,-120 356,-102 356,-102 356,-96 362,-90 368,-90"/>
</g>
<g id="clust25" class="cluster">
<title>outer_cluster_Inst&#45;5</title>
</g>
<g id="clust26" class="cluster">
<title>cluster_Inst&#45;5</title>
<path fill="#bebada" stroke="black" stroke-dasharray="5,2" d="M56,-327C56,-327 208,-327 208,-327 214,-327 220,-333 220,-339 220,-339 220,-357 220,-357 220,-363 214,-369 208,-369 208,-369 56,-369 56,-369 50,-369 44,-363 44,-357 44,-357 44,-339 44,-339 44,-333 50,-327 56,-327"/>
</g>
<g id="clust28" class="cluster">
<title>outer_cluster_Inst&#45;3</title>
</g>
<g id="clust29" class="cluster">
<title>cluster_Inst&#45;3</title>
<path fill="#bebada" stroke="black" stroke-dasharray="5,2" d="M405,-169C405,-169 441,-169 441,-169 447,-169 453,-175 453,-181 453,-181 453,-199 453,-199 453,-205 447,-211 441,-211 441,-211 405,-211 405,-211 399,-211 393,-205 393,-199 393,-199 393,-181 393,-181 393,-175 399,-169 405,-169"/>
</g>
<g id="clust31" class="cluster">
<title>outer_cluster_Inst&#45;8</title>
</g>
<g id="clust32" class="cluster">
<title>cluster_Inst&#45;8</title>
<path fill="#bebada" stroke="black" stroke-dasharray="5,2" d="M66,-248C66,-248 102,-248 102,-248 108,-248 114,-254 114,-260 114,-260 114,-278 114,-278 114,-284 108,-290 102,-290 102,-290 66,-290 66,-290 60,-290 54,-284 54,-278 54,-278 54,-260 54,-260 54,-254 60,-248 66,-248"/>
</g>
<g id="clust34" class="cluster">
<title>outer_cluster_String&#45;1</title>
</g>
<g id="clust35" class="cluster">
<title>cluster_String&#45;1</title>
<path fill="#fb8072" stroke="black" stroke-dasharray="5,2" d="M149,-90C149,-90 201,-90 201,-90 207,-90 213,-96 213,-102 213,-102 213,-120 213,-120 213,-126 207,-132 201,-132 201,-132 149,-132 149,-132 143,-132 137,-126 137,-120 137,-120 137,-102 137,-102 137,-96 143,-90 149,-90"/>
</g>
<g id="clust37" class="cluster">
<title>outer_cluster_String&#45;0</title>
</g>
<g id="clust38" class="cluster">
<title>cluster_String&#45;0</title>
<path fill="#fb8072" stroke="black" stroke-dasharray="5,2" d="M370,-11C370,-11 408,-11 408,-11 414,-11 420,-17 420,-23 420,-23 420,-41 420,-41 420,-47 414,-53 408,-53 408,-53 370,-53 370,-53 364,-53 358,-47 358,-41 358,-41 358,-23 358,-23 358,-17 364,-11 370,-11"/>
</g>
<g id="clust40" class="cluster">
<title>outer_cluster_i64&#45;0</title>
</g>
<g id="clust41" class="cluster">
<title>cluster_i64&#45;0</title>
<path fill="#80b1d3" stroke="black" stroke-dasharray="5,2" d="M27,-90C27,-90 63,-90 63,-90 69,-90 75,-96 75,-102 75,-102 75,-120 75,-120 75,-126 69,-132 63,-132 63,-132 27,-132 27,-132 21,-132 15,-126 15,-120 15,-120 15,-102 15,-102 15,-96 21,-90 27,-90"/>
</g>
<g id="clust43" class="cluster">
<title>outer_cluster_i64&#45;2147483648</title>
</g>
<g id="clust44" class="cluster">
<title>cluster_i64&#45;2147483648</title>
<path fill="#80b1d3" stroke="black" stroke-dasharray="5,2" d="M442,-11C442,-11 478,-11 478,-11 484,-11 490,-17 490,-23 490,-23 490,-41 490,-41 490,-47 484,-53 478,-53 478,-53 442,-53 442,-53 436,-53 430,-47 430,-41 430,-41 430,-23 430,-23 430,-17 436,-11 442,-11"/>
</g>
<g id="clust46" class="cluster">
<title>outer_cluster_i64&#45;4</title>
</g>
<g id="clust47" class="cluster">
<title>cluster_i64&#45;4</title>
<path fill="#80b1d3" stroke="black" stroke-dasharray="5,2" d="M287,-11C287,-11 323,-11 323,-11 329,-11 335,-17 335,-23 335,-23 335,-41 335,-41 335,-47 329,-53 323,-53 323,-53 287,-53 287,-53 281,-53 275,-47 275,-41 275,-41 275,-23 275,-23 275,-17 281,-11 287,-11"/>
</g>
<!-- function&#45;0&#45;ImmVal&#45;&gt;primitive&#45;i64&#45;2147483648 -->
<g id="edge1" class="edge">
<title>function&#45;0&#45;ImmVal:s&#45;&gt;primitive&#45;i64&#45;2147483648</title>
<path fill="none" stroke="black" d="M460,-95C460,-81.84 460,-67.11 460,-55.3"/>
<polygon fill="black" stroke="black" points="461.75,-58 460,-53 458.25,-58 461.75,-58"/>
</g>
<!-- function&#45;2&#45;ImmVal&#45;&gt;primitive&#45;i64&#45;4 -->
<g id="edge2" class="edge">
<title>function&#45;2&#45;ImmVal:s&#45;&gt;primitive&#45;i64&#45;4</title>
<path fill="none" stroke="black" d="M305,-95C305,-81.84 305,-67.11 305,-55.3"/>
<polygon fill="black" stroke="black" points="306.75,-58 305,-53 303.25,-58 306.75,-58"/>
</g>
<!-- function&#45;1&#45;ImmVal&#45;&gt;primitive&#45;i64&#45;0 -->
<g id="edge3" class="edge">
<title>function&#45;1&#45;ImmVal:s&#45;&gt;primitive&#45;i64&#45;0</title>
<path fill="none" stroke="black" d="M45,-174C45,-160.84 45,-146.11 45,-134.3"/>
<polygon fill="black" stroke="black" points="46.75,-137 45,-132 43.25,-137 46.75,-137"/>
</g>
<!-- function&#45;0&#45;Beq&#45;&gt;function&#45;2&#45;ImmVal -->
<g id="edge6" class="edge">
<title>function&#45;0&#45;Beq:s&#45;&gt;function&#45;2&#45;ImmVal</title>
<path fill="none" stroke="black" d="M244,-253C244,-207.62 270.95,-160.27 289.02,-133.62"/>
<polygon fill="black" stroke="black" points="288.24,-136.48 291.06,-132 286.06,-133.74 288.24,-136.48"/>
</g>
<!-- function&#45;0&#45;Beq&#45;&gt;function&#45;0&#45;Addi -->
<g id="edge4" class="edge">
<title>function&#45;0&#45;Beq:s&#45;&gt;function&#45;0&#45;Addi</title>
<path fill="none" stroke="black" d="M221,-253C221,-248.62 333.71,-216.19 390.75,-200.06"/>
<polygon fill="black" stroke="black" points="389.7,-202.78 393,-198.64 387.84,-199.82 389.7,-202.78"/>
</g>
<!-- function&#45;0&#45;Beq&#45;&gt;function&#45;1&#45;RegVal -->
<g id="edge5" class="edge">
<title>function&#45;0&#45;Beq:s&#45;&gt;function&#45;1&#45;RegVal</title>
<path fill="none" stroke="black" d="M235,-253C235,-234.8 221.48,-219.99 207.17,-209.42"/>
<polygon fill="black" stroke="black" points="210.79,-210.53 206,-208.28 208.34,-213.03 210.79,-210.53"/>
</g>
<!-- function&#45;0&#45;Addi&#45;&gt;function&#45;0&#45;ImmVal -->
<g id="edge32" class="edge">
<title>function&#45;0&#45;Addi:s&#45;&gt;function&#45;0&#45;ImmVal</title>
<path fill="none" stroke="black" d="M433,-174C433,-159.7 439.11,-144.97 445.52,-133.45"/>
<polygon fill="black" stroke="black" points="444.62,-136.69 447.08,-132 442.23,-134.14 444.62,-136.69"/>
</g>
<!-- function&#45;0&#45;Addi&#45;&gt;function&#45;0&#45;RegVal -->
<g id="edge31" class="edge">
<title>function&#45;0&#45;Addi:s&#45;&gt;function&#45;0&#45;RegVal</title>
<path fill="none" stroke="black" d="M413,-174C413,-159.86 407.34,-145.14 401.4,-133.59"/>
<polygon fill="black" stroke="black" points="404.62,-134.65 400.04,-132 401.97,-136.93 404.62,-134.65"/>
</g>
<!-- function&#45;1&#45;RegVal&#45;&gt;primitive&#45;String&#45;1 -->
<g id="edge12" class="edge">
<title>function&#45;1&#45;RegVal:s&#45;&gt;primitive&#45;String&#45;1</title>
<path fill="none" stroke="black" d="M175,-174C175,-160.84 175,-146.11 175,-134.3"/>
<polygon fill="black" stroke="black" points="176.75,-137 175,-132 173.25,-137 176.75,-137"/>
</g>
<!-- function&#45;1&#45;Beq&#45;&gt;function&#45;2&#45;ImmVal -->
<g id="edge9" class="edge">
<title>function&#45;1&#45;Beq:s&#45;&gt;function&#45;2&#45;ImmVal</title>
<path fill="none" stroke="black" d="M186,-253C186,-241.06 241.17,-175.01 249,-166 259.1,-154.38 271.31,-142.4 281.74,-132.68"/>
<polygon fill="black" stroke="black" points="279.96,-136.65 282.5,-132 277.61,-134.04 279.96,-136.65"/>
</g>
<!-- function&#45;1&#45;Beq&#45;&gt;function&#45;0&#45;Addi -->
<g id="edge8" class="edge">
<title>function&#45;1&#45;Beq:s&#45;&gt;function&#45;0&#45;Addi</title>
<path fill="none" stroke="black" d="M177,-253C177,-240.91 191.33,-248.15 203,-245 261.6,-229.18 277.1,-228.65 336,-214 354.14,-209.49 374.32,-204.17 390.68,-199.79"/>
<polygon fill="black" stroke="black" points="389.53,-202.46 393,-198.46 387.79,-199.42 389.53,-202.46"/>
</g>
<!-- function&#45;1&#45;Beq&#45;&gt;function&#45;1&#45;RegVal -->
<g id="edge7" class="edge">
<title>function&#45;1&#45;Beq:s&#45;&gt;function&#45;1&#45;RegVal</title>
<path fill="none" stroke="black" d="M163,-253C163,-239.73 165.47,-225.1 168.08,-213.39"/>
<polygon fill="black" stroke="black" points="168.6,-216.25 169.27,-211 165.47,-214.69 168.6,-216.25"/>
</g>
<!-- function&#45;1&#45;Seq2&#45;&gt;function&#45;2&#45;Bne -->
<g id="edge10" class="edge">
<title>function&#45;1&#45;Seq2:s&#45;&gt;function&#45;2&#45;Bne</title>
<path fill="none" stroke="black" d="M277,-253C277,-205.81 336.96,-202.06 379,-223.5 388.53,-228.36 395.96,-237.41 401.33,-246.17"/>
<polygon fill="black" stroke="black" points="398.37,-245.62 403.1,-248 400.88,-243.19 398.37,-245.62"/>
</g>
<!-- function&#45;1&#45;Seq2&#45;&gt;function&#45;1&#45;Jal -->
<g id="edge11" class="edge">
<title>function&#45;1&#45;Seq2:s&#45;&gt;function&#45;1&#45;Jal</title>
<path fill="none" stroke="black" d="M299,-253C299,-239.78 300.37,-225.04 301.8,-213.25"/>
<polygon fill="black" stroke="black" points="302.74,-216.29 302.46,-211 299.38,-215.31 302.74,-216.29"/>
</g>
<!-- function&#45;2&#45;Bne&#45;&gt;function&#45;2&#45;ImmVal -->
<g id="edge15" class="edge">
<title>function&#45;2&#45;Bne:s&#45;&gt;function&#45;2&#45;ImmVal</title>
<path fill="none" stroke="black" d="M426,-253C426,-224.82 395.38,-234.46 376,-214 352.18,-188.84 330.3,-155.12 317.31,-133.47"/>
<polygon fill="black" stroke="black" points="320.57,-134.03 315.67,-132 318.23,-136.64 320.57,-134.03"/>
</g>
<!-- function&#45;2&#45;Bne&#45;&gt;function&#45;0&#45;Addi -->
<g id="edge13" class="edge">
<title>function&#45;2&#45;Bne:s&#45;&gt;function&#45;0&#45;Addi</title>
<path fill="none" stroke="black" d="M403,-253C403,-239.24 407.51,-224.56 412.25,-212.94"/>
<polygon fill="black" stroke="black" points="412.49,-216.24 413.29,-211 409.4,-214.6 412.49,-216.24"/>
</g>
<!-- function&#45;2&#45;Bne&#45;&gt;function&#45;1&#45;RegVal -->
<g id="edge14" class="edge">
<title>function&#45;2&#45;Bne:s&#45;&gt;function&#45;1&#45;RegVal</title>
<path fill="none" stroke="black" d="M417,-253C417,-247.67 274.71,-214.19 207.89,-198.77"/>
<polygon fill="black" stroke="black" points="211.17,-198.73 206,-197.6 209.34,-201.71 211.17,-198.73"/>
</g>
<!-- function&#45;1&#45;Jal&#45;&gt;function&#45;2&#45;ImmVal -->
<g id="edge21" class="edge">
<title>function&#45;1&#45;Jal:s&#45;&gt;function&#45;2&#45;ImmVal</title>
<path fill="none" stroke="black" d="M305,-174C305,-160.84 305,-146.11 305,-134.3"/>
<polygon fill="black" stroke="black" points="306.75,-137 305,-132 303.25,-137 306.75,-137"/>
</g>
<!-- function&#45;3&#45;Bne&#45;&gt;function&#45;2&#45;ImmVal -->
<g id="edge18" class="edge">
<title>function&#45;3&#45;Bne:s&#45;&gt;function&#45;2&#45;ImmVal</title>
<path fill="none" stroke="black" d="M484,-253C484,-208.59 425.99,-242.58 392,-214 372.56,-197.66 377.14,-185.61 361,-166 351.29,-154.2 339.23,-142.29 328.79,-132.66"/>
<polygon fill="black" stroke="black" points="332.95,-133.96 328.03,-132 330.65,-136.6 332.95,-133.96"/>
</g>
<!-- function&#45;3&#45;Bne&#45;&gt;function&#45;0&#45;Addi -->
<g id="edge17" class="edge">
<title>function&#45;3&#45;Bne:s&#45;&gt;function&#45;0&#45;Addi</title>
<path fill="none" stroke="black" d="M475,-253C475,-236.59 464.18,-222.25 452.4,-211.5"/>
<polygon fill="black" stroke="black" points="456.65,-211.66 451.39,-211 455.09,-214.8 456.65,-211.66"/>
</g>
<!-- function&#45;3&#45;Bne&#45;&gt;function&#45;1&#45;RegVal -->
<g id="edge16" class="edge">
<title>function&#45;3&#45;Bne:s&#45;&gt;function&#45;1&#45;RegVal</title>
<path fill="none" stroke="black" d="M461,-253C461,-242.6 449.03,-247.75 439,-245 367.03,-225.3 347.04,-229.25 274,-214 252,-209.41 227.4,-203.76 208.11,-199.2"/>
<polygon fill="black" stroke="black" points="211.19,-199 206,-197.95 209.41,-202.01 211.19,-199"/>
</g>
<!-- function&#45;2&#45;Seq2&#45;&gt;function&#45;1&#45;Seq2 -->
<g id="edge19" class="edge">
<title>function&#45;2&#45;Seq2:s&#45;&gt;function&#45;1&#45;Seq2</title>
<path fill="none" stroke="black" d="M343,-253C343,-241.59 331.78,-243.91 319.57,-249.8"/>
<polygon fill="black" stroke="black" points="320.71,-246.57 318,-251.12 322.96,-249.26 320.71,-246.57"/>
</g>
<!-- function&#45;2&#45;Seq2&#45;&gt;function&#45;1&#45;Jal -->
<g id="edge20" class="edge">
<title>function&#45;2&#45;Seq2:s&#45;&gt;function&#45;1&#45;Jal</title>
<path fill="none" stroke="black" d="M365,-253C365,-234.38 350.85,-219.22 336.3,-208.56"/>
<polygon fill="black" stroke="black" points="339.27,-209.8 335,-206.67 336.39,-211.78 339.27,-209.8"/>
</g>
<!-- function&#45;0&#45;RegVal&#45;&gt;primitive&#45;String&#45;0 -->
<g id="edge22" class="edge">
<title>function&#45;0&#45;RegVal:s&#45;&gt;primitive&#45;String&#45;0</title>
<path fill="none" stroke="black" d="M389,-95C389,-81.84 389,-67.11 389,-55.3"/>
<polygon fill="black" stroke="black" points="390.75,-58 389,-53 387.25,-58 390.75,-58"/>
</g>
<!-- function&#45;0&#45;Bne&#45;&gt;function&#45;1&#45;ImmVal -->
<g id="edge25" class="edge">
<title>function&#45;0&#45;Bne:s&#45;&gt;function&#45;1&#45;ImmVal</title>
<path fill="none" stroke="black" d="M204,-332C204,-262.69 97.56,-346.1 53,-293 43.21,-281.33 42.95,-239.49 43.84,-213.16"/>
<polygon fill="black" stroke="black" points="45.33,-216.14 44.03,-211 41.85,-215.83 45.33,-216.14"/>
</g>
<!-- function&#45;0&#45;Bne&#45;&gt;function&#45;0&#45;Addi -->
<g id="edge23" class="edge">
<title>function&#45;0&#45;Bne:s&#45;&gt;function&#45;0&#45;Addi</title>
<path fill="none" stroke="black" d="M181,-332C181,-257.94 462.79,-348.35 512,-293 526.17,-277.06 522.47,-263.59 512,-245 499.85,-223.42 475.21,-209.47 454.93,-201.17"/>
<polygon fill="black" stroke="black" points="458.27,-200.78 453,-200.28 456.81,-203.96 458.27,-200.78"/>
</g>
<!-- function&#45;0&#45;Bne&#45;&gt;function&#45;1&#45;RegVal -->
<g id="edge24" class="edge">
<title>function&#45;0&#45;Bne:s&#45;&gt;function&#45;1&#45;RegVal</title>
<path fill="none" stroke="black" d="M195,-332C195,-302.4 154.48,-319.36 141,-293 127.55,-266.7 143.46,-233.81 157.5,-212.6"/>
<polygon fill="black" stroke="black" points="156.69,-215.52 159.45,-211 154.48,-212.82 156.69,-215.52"/>
</g>
<!-- function&#45;1&#45;Bne&#45;&gt;function&#45;1&#45;ImmVal -->
<g id="edge28" class="edge">
<title>function&#45;1&#45;Bne:s&#45;&gt;function&#45;1&#45;ImmVal</title>
<path fill="none" stroke="black" d="M146,-332C146,-282.63 70.12,-333.57 42,-293 25.77,-269.58 31.12,-235.33 37.34,-213.1"/>
<polygon fill="black" stroke="black" points="37.4,-216.12 38.75,-211 34.5,-214.16 37.4,-216.12"/>
</g>
<!-- function&#45;1&#45;Bne&#45;&gt;function&#45;0&#45;Addi -->
<g id="edge27" class="edge">
<title>function&#45;1&#45;Bne:s&#45;&gt;function&#45;0&#45;Addi</title>
<path fill="none" stroke="black" d="M137,-332C137,-250.65 446.17,-353.09 501,-293 515.38,-277.24 510.9,-263.9 501,-245 491.29,-226.46 472,-213.03 455.04,-204.19"/>
<polygon fill="black" stroke="black" points="458.13,-204.16 453,-202.82 456.17,-207.06 458.13,-204.16"/>
</g>
<!-- function&#45;1&#45;Bne&#45;&gt;function&#45;1&#45;RegVal -->
<g id="edge26" class="edge">
<title>function&#45;1&#45;Bne:s&#45;&gt;function&#45;1&#45;RegVal</title>
<path fill="none" stroke="black" d="M123,-332C123,-293.03 119.48,-281.17 134,-245 138.79,-233.06 146.87,-221.39 154.53,-211.97"/>
<polygon fill="black" stroke="black" points="152.91,-215.46 155.77,-211 150.75,-212.7 152.91,-215.46"/>
</g>
<!-- function&#45;0&#45;Seq2&#45;&gt;function&#45;0&#45;Beq -->
<g id="edge29" class="edge">
<title>function&#45;0&#45;Seq2:s&#45;&gt;function&#45;0&#45;Beq</title>
<path fill="none" stroke="black" d="M63,-332C63,-269.12 142.62,-320.85 199,-293 199.34,-292.83 199.69,-292.66 200.03,-292.48"/>
<polygon fill="black" stroke="black" points="200.96,-293.96 204.47,-290 199.25,-290.91 200.96,-293.96"/>
</g>
<!-- function&#45;0&#45;Seq2&#45;&gt;function&#45;0&#45;Jal -->
<g id="edge30" class="edge">
<title>function&#45;0&#45;Seq2:s&#45;&gt;function&#45;0&#45;Jal</title>
<path fill="none" stroke="black" d="M85,-332C85,-318.84 84.77,-304.1 84.53,-292.3"/>
<polygon fill="black" stroke="black" points="86.41,-294.91 84.42,-290 82.91,-295.08 86.41,-294.91"/>
</g>
<!-- function&#45;0&#45;Jal&#45;&gt;function&#45;1&#45;ImmVal -->
<g id="edge33" class="edge">
<title>function&#45;0&#45;Jal:s&#45;&gt;function&#45;1&#45;ImmVal</title>
<path fill="none" stroke="black" d="M84,-253C84,-237.82 75.52,-223.32 66.48,-212.17"/>
<polygon fill="black" stroke="black" points="70.05,-212.95 65.13,-211 67.76,-215.6 70.05,-212.95"/>
</g>
<!-- function&#45;0&#45;ImmVal -->
<g id="node1" class="node">
<title>function&#45;0&#45;ImmVal</title>
<g id="a_node1"><a xlink:title="Imm&#45;2: function&#45;0&#45;ImmVal">
<path fill="white" stroke="transparent" d="M439.67,-95C439.67,-95 480.33,-95 480.33,-95 485.67,-95 491,-100.33 491,-105.67 491,-105.67 491,-116.33 491,-116.33 491,-121.67 485.67,-127 480.33,-127 480.33,-127 439.67,-127 439.67,-127 434.33,-127 429,-121.67 429,-116.33 429,-116.33 429,-105.67 429,-105.67 429,-100.33 434.33,-95 439.67,-95"/>
<text text-anchor="start" x="434" y="-107.3" font-family="Helvetica,sans-Serif" font-size="14.00">ImmVal</text>
<path fill="none" stroke="black" d="M439.67,-95C439.67,-95 480.33,-95 480.33,-95 485.67,-95 491,-100.33 491,-105.67 491,-105.67 491,-116.33 491,-116.33 491,-121.67 485.67,-127 480.33,-127 480.33,-127 439.67,-127 439.67,-127 434.33,-127 429,-121.67 429,-116.33 429,-116.33 429,-105.67 429,-105.67 429,-100.33 434.33,-95 439.67,-95"/>
</a>
</g>
</g>
<!-- primitive&#45;i64&#45;2147483648 -->
<g id="node2" class="node">
<title>primitive&#45;i64&#45;2147483648</title>
<g id="a_node2"><a xlink:title="i64&#45;2147483648: primitive&#45;i64&#45;2147483648">
<path fill="white" stroke="transparent" d="M454.67,-16C454.67,-16 465.33,-16 465.33,-16 470.67,-16 476,-21.33 476,-26.67 476,-26.67 476,-37.33 476,-37.33 476,-42.67 470.67,-48 465.33,-48 465.33,-48 454.67,-48 454.67,-48 449.33,-48 444,-42.67 444,-37.33 444,-37.33 444,-26.67 444,-26.67 444,-21.33 449.33,-16 454.67,-16"/>
<text text-anchor="start" x="452.5" y="-28.3" font-family="Helvetica,sans-Serif" font-size="14.00">&#45;1</text>
<path fill="none" stroke="black" d="M454.67,-16C454.67,-16 465.33,-16 465.33,-16 470.67,-16 476,-21.33 476,-26.67 476,-26.67 476,-37.33 476,-37.33 476,-42.67 470.67,-48 465.33,-48 465.33,-48 454.67,-48 454.67,-48 449.33,-48 444,-42.67 444,-37.33 444,-37.33 444,-26.67 444,-26.67 444,-21.33 449.33,-16 454.67,-16"/>
</a>
</g>
</g>
<!-- function&#45;2&#45;ImmVal -->
<g id="node3" class="node">
<title>function&#45;2&#45;ImmVal</title>
<g id="a_node3"><a xlink:title="Imm&#45;6: function&#45;2&#45;ImmVal">
<path fill="white" stroke="transparent" d="M284.67,-95C284.67,-95 325.33,-95 325.33,-95 330.67,-95 336,-100.33 336,-105.67 336,-105.67 336,-116.33 336,-116.33 336,-121.67 330.67,-127 325.33,-127 325.33,-127 284.67,-127 284.67,-127 279.33,-127 274,-121.67 274,-116.33 274,-116.33 274,-105.67 274,-105.67 274,-100.33 279.33,-95 284.67,-95"/>
<text text-anchor="start" x="279" y="-107.3" font-family="Helvetica,sans-Serif" font-size="14.00">ImmVal</text>
<path fill="none" stroke="black" d="M284.67,-95C284.67,-95 325.33,-95 325.33,-95 330.67,-95 336,-100.33 336,-105.67 336,-105.67 336,-116.33 336,-116.33 336,-121.67 330.67,-127 325.33,-127 325.33,-127 284.67,-127 284.67,-127 279.33,-127 274,-121.67 274,-116.33 274,-116.33 274,-105.67 274,-105.67 274,-100.33 279.33,-95 284.67,-95"/>
</a>
</g>
</g>
<!-- primitive&#45;i64&#45;4 -->
<g id="node4" class="node">
<title>primitive&#45;i64&#45;4</title>
<g id="a_node4"><a xlink:title="i64&#45;4: primitive&#45;i64&#45;4">
<path fill="white" stroke="transparent" d="M299.67,-16C299.67,-16 310.33,-16 310.33,-16 315.67,-16 321,-21.33 321,-26.67 321,-26.67 321,-37.33 321,-37.33 321,-42.67 315.67,-48 310.33,-48 310.33,-48 299.67,-48 299.67,-48 294.33,-48 289,-42.67 289,-37.33 289,-37.33 289,-26.67 289,-26.67 289,-21.33 294.33,-16 299.67,-16"/>
<text text-anchor="start" x="300" y="-28.3" font-family="Helvetica,sans-Serif" font-size="14.00">4</text>
<path fill="none" stroke="black" d="M299.67,-16C299.67,-16 310.33,-16 310.33,-16 315.67,-16 321,-21.33 321,-26.67 321,-26.67 321,-37.33 321,-37.33 321,-42.67 315.67,-48 310.33,-48 310.33,-48 299.67,-48 299.67,-48 294.33,-48 289,-42.67 289,-37.33 289,-37.33 289,-26.67 289,-26.67 289,-21.33 294.33,-16 299.67,-16"/>
</a>
</g>
</g>
<!-- function&#45;1&#45;ImmVal -->
<g id="node5" class="node">
<title>function&#45;1&#45;ImmVal</title>
<g id="a_node5"><a xlink:title="Imm&#45;4: function&#45;1&#45;ImmVal">
<path fill="white" stroke="transparent" d="M24.67,-174C24.67,-174 65.33,-174 65.33,-174 70.67,-174 76,-179.33 76,-184.67 76,-184.67 76,-195.33 76,-195.33 76,-200.67 70.67,-206 65.33,-206 65.33,-206 24.67,-206 24.67,-206 19.33,-206 14,-200.67 14,-195.33 14,-195.33 14,-184.67 14,-184.67 14,-179.33 19.33,-174 24.67,-174"/>
<text text-anchor="start" x="19" y="-186.3" font-family="Helvetica,sans-Serif" font-size="14.00">ImmVal</text>
<path fill="none" stroke="black" d="M24.67,-174C24.67,-174 65.33,-174 65.33,-174 70.67,-174 76,-179.33 76,-184.67 76,-184.67 76,-195.33 76,-195.33 76,-200.67 70.67,-206 65.33,-206 65.33,-206 24.67,-206 24.67,-206 19.33,-206 14,-200.67 14,-195.33 14,-195.33 14,-184.67 14,-184.67 14,-179.33 19.33,-174 24.67,-174"/>
</a>
</g>
</g>
<!-- primitive&#45;i64&#45;0 -->
<g id="node6" class="node">
<title>primitive&#45;i64&#45;0</title>
<g id="a_node6"><a xlink:title="i64&#45;0: primitive&#45;i64&#45;0">
<path fill="white" stroke="transparent" d="M39.67,-95C39.67,-95 50.33,-95 50.33,-95 55.67,-95 61,-100.33 61,-105.67 61,-105.67 61,-116.33 61,-116.33 61,-121.67 55.67,-127 50.33,-127 50.33,-127 39.67,-127 39.67,-127 34.33,-127 29,-121.67 29,-116.33 29,-116.33 29,-105.67 29,-105.67 29,-100.33 34.33,-95 39.67,-95"/>
<text text-anchor="start" x="40" y="-107.3" font-family="Helvetica,sans-Serif" font-size="14.00">0</text>
<path fill="none" stroke="black" d="M39.67,-95C39.67,-95 50.33,-95 50.33,-95 55.67,-95 61,-100.33 61,-105.67 61,-105.67 61,-116.33 61,-116.33 61,-121.67 55.67,-127 50.33,-127 50.33,-127 39.67,-127 39.67,-127 34.33,-127 29,-121.67 29,-116.33 29,-116.33 29,-105.67 29,-105.67 29,-100.33 34.33,-95 39.67,-95"/>
</a>
</g>
</g>
<!-- function&#45;0&#45;Beq -->
<g id="node7" class="node">
<title>function&#45;0&#45;Beq</title>
<g id="a_node7"><a xlink:title="Inst&#45;7: function&#45;0&#45;Beq">
<path fill="white" stroke="transparent" d="M221.67,-253C221.67,-253 238.33,-253 238.33,-253 243.67,-253 249,-258.33 249,-263.67 249,-263.67 249,-274.33 249,-274.33 249,-279.67 243.67,-285 238.33,-285 238.33,-285 221.67,-285 221.67,-285 216.33,-285 211,-279.67 211,-274.33 211,-274.33 211,-263.67 211,-263.67 211,-258.33 216.33,-253 221.67,-253"/>
<text text-anchor="start" x="216" y="-265.3" font-family="Helvetica,sans-Serif" font-size="14.00">Beq</text>
<path fill="none" stroke="black" d="M221.67,-253C221.67,-253 238.33,-253 238.33,-253 243.67,-253 249,-258.33 249,-263.67 249,-263.67 249,-274.33 249,-274.33 249,-279.67 243.67,-285 238.33,-285 238.33,-285 221.67,-285 221.67,-285 216.33,-285 211,-279.67 211,-274.33 211,-274.33 211,-263.67 211,-263.67 211,-258.33 216.33,-253 221.67,-253"/>
</a>
</g>
</g>
<!-- function&#45;0&#45;Addi -->
<g id="node8" class="node">
<title>function&#45;0&#45;Addi</title>
<g id="a_node8"><a xlink:title="Inst&#45;3: function&#45;0&#45;Addi">
<path fill="white" stroke="transparent" d="M413.17,-174C413.17,-174 432.83,-174 432.83,-174 438.17,-174 443.5,-179.33 443.5,-184.67 443.5,-184.67 443.5,-195.33 443.5,-195.33 443.5,-200.67 438.17,-206 432.83,-206 432.83,-206 413.17,-206 413.17,-206 407.83,-206 402.5,-200.67 402.5,-195.33 402.5,-195.33 402.5,-184.67 402.5,-184.67 402.5,-179.33 407.83,-174 413.17,-174"/>
<text text-anchor="start" x="408" y="-186.3" font-family="Helvetica,sans-Serif" font-size="14.00">Addi</text>
<path fill="none" stroke="black" d="M413.17,-174C413.17,-174 432.83,-174 432.83,-174 438.17,-174 443.5,-179.33 443.5,-184.67 443.5,-184.67 443.5,-195.33 443.5,-195.33 443.5,-200.67 438.17,-206 432.83,-206 432.83,-206 413.17,-206 413.17,-206 407.83,-206 402.5,-200.67 402.5,-195.33 402.5,-195.33 402.5,-184.67 402.5,-184.67 402.5,-179.33 407.83,-174 413.17,-174"/>
</a>
</g>
</g>
<!-- function&#45;1&#45;RegVal -->
<g id="node9" class="node">
<title>function&#45;1&#45;RegVal</title>
<g id="a_node9"><a xlink:title="Inst&#45;1: function&#45;1&#45;RegVal">
<path fill="white" stroke="transparent" d="M156.17,-174C156.17,-174 191.83,-174 191.83,-174 197.17,-174 202.5,-179.33 202.5,-184.67 202.5,-184.67 202.5,-195.33 202.5,-195.33 202.5,-200.67 197.17,-206 191.83,-206 191.83,-206 156.17,-206 156.17,-206 150.83,-206 145.5,-200.67 145.5,-195.33 145.5,-195.33 145.5,-184.67 145.5,-184.67 145.5,-179.33 150.83,-174 156.17,-174"/>
<text text-anchor="start" x="151" y="-186.3" font-family="Helvetica,sans-Serif" font-size="14.00">RegVal</text>
<path fill="none" stroke="black" d="M156.17,-174C156.17,-174 191.83,-174 191.83,-174 197.17,-174 202.5,-179.33 202.5,-184.67 202.5,-184.67 202.5,-195.33 202.5,-195.33 202.5,-200.67 197.17,-206 191.83,-206 191.83,-206 156.17,-206 156.17,-206 150.83,-206 145.5,-200.67 145.5,-195.33 145.5,-195.33 145.5,-184.67 145.5,-184.67 145.5,-179.33 150.83,-174 156.17,-174"/>
</a>
</g>
</g>
<!-- function&#45;1&#45;Beq -->
<g id="node10" class="node">
<title>function&#45;1&#45;Beq</title>
<g id="a_node10"><a xlink:title="Inst&#45;7: function&#45;1&#45;Beq">
<path fill="white" stroke="transparent" d="M163.67,-253C163.67,-253 180.33,-253 180.33,-253 185.67,-253 191,-258.33 191,-263.67 191,-263.67 191,-274.33 191,-274.33 191,-279.67 185.67,-285 180.33,-285 180.33,-285 163.67,-285 163.67,-285 158.33,-285 153,-279.67 153,-274.33 153,-274.33 153,-263.67 153,-263.67 153,-258.33 158.33,-253 163.67,-253"/>
<text text-anchor="start" x="158" y="-265.3" font-family="Helvetica,sans-Serif" font-size="14.00">Beq</text>
<path fill="none" stroke="black" d="M163.67,-253C163.67,-253 180.33,-253 180.33,-253 185.67,-253 191,-258.33 191,-263.67 191,-263.67 191,-274.33 191,-274.33 191,-279.67 185.67,-285 180.33,-285 180.33,-285 163.67,-285 163.67,-285 158.33,-285 153,-279.67 153,-274.33 153,-274.33 153,-263.67 153,-263.67 153,-258.33 158.33,-253 163.67,-253"/>
</a>
</g>
</g>
<!-- function&#45;1&#45;Seq2 -->
<g id="node11" class="node">
<title>function&#45;1&#45;Seq2</title>
<g id="a_node11"><a xlink:title="Inst&#45;7: function&#45;1&#45;Seq2">
<path fill="white" stroke="transparent" d="M275.67,-253C275.67,-253 300.33,-253 300.33,-253 305.67,-253 311,-258.33 311,-263.67 311,-263.67 311,-274.33 311,-274.33 311,-279.67 305.67,-285 300.33,-285 300.33,-285 275.67,-285 275.67,-285 270.33,-285 265,-279.67 265,-274.33 265,-274.33 265,-263.67 265,-263.67 265,-258.33 270.33,-253 275.67,-253"/>
<text text-anchor="start" x="270" y="-265.3" font-family="Helvetica,sans-Serif" font-size="14.00">Seq2</text>
<path fill="none" stroke="black" d="M275.67,-253C275.67,-253 300.33,-253 300.33,-253 305.67,-253 311,-258.33 311,-263.67 311,-263.67 311,-274.33 311,-274.33 311,-279.67 305.67,-285 300.33,-285 300.33,-285 275.67,-285 275.67,-285 270.33,-285 265,-279.67 265,-274.33 265,-274.33 265,-263.67 265,-263.67 265,-258.33 270.33,-253 275.67,-253"/>
</a>
</g>
</g>
<!-- function&#45;2&#45;Bne -->
<g id="node12" class="node">
<title>function&#45;2&#45;Bne</title>
<g id="a_node12"><a xlink:title="Inst&#45;9: function&#45;2&#45;Bne">
<path fill="white" stroke="transparent" d="M403.67,-253C403.67,-253 420.33,-253 420.33,-253 425.67,-253 431,-258.33 431,-263.67 431,-263.67 431,-274.33 431,-274.33 431,-279.67 425.67,-285 420.33,-285 420.33,-285 403.67,-285 403.67,-285 398.33,-285 393,-279.67 393,-274.33 393,-274.33 393,-263.67 393,-263.67 393,-258.33 398.33,-253 403.67,-253"/>
<text text-anchor="start" x="398" y="-265.3" font-family="Helvetica,sans-Serif" font-size="14.00">Bne</text>
<path fill="none" stroke="black" d="M403.67,-253C403.67,-253 420.33,-253 420.33,-253 425.67,-253 431,-258.33 431,-263.67 431,-263.67 431,-274.33 431,-274.33 431,-279.67 425.67,-285 420.33,-285 420.33,-285 403.67,-285 403.67,-285 398.33,-285 393,-279.67 393,-274.33 393,-274.33 393,-263.67 393,-263.67 393,-258.33 398.33,-253 403.67,-253"/>
</a>
</g>
</g>
<!-- function&#45;1&#45;Jal -->
<g id="node13" class="node">
<title>function&#45;1&#45;Jal</title>
<g id="a_node13"><a xlink:title="Inst&#45;10: function&#45;1&#45;Jal">
<path fill="white" stroke="transparent" d="M299.67,-174C299.67,-174 310.33,-174 310.33,-174 315.67,-174 321,-179.33 321,-184.67 321,-184.67 321,-195.33 321,-195.33 321,-200.67 315.67,-206 310.33,-206 310.33,-206 299.67,-206 299.67,-206 294.33,-206 289,-200.67 289,-195.33 289,-195.33 289,-184.67 289,-184.67 289,-179.33 294.33,-174 299.67,-174"/>
<text text-anchor="start" x="296.5" y="-186.3" font-family="Helvetica,sans-Serif" font-size="14.00">Jal</text>
<path fill="none" stroke="black" d="M299.67,-174C299.67,-174 310.33,-174 310.33,-174 315.67,-174 321,-179.33 321,-184.67 321,-184.67 321,-195.33 321,-195.33 321,-200.67 315.67,-206 310.33,-206 310.33,-206 299.67,-206 299.67,-206 294.33,-206 289,-200.67 289,-195.33 289,-195.33 289,-184.67 289,-184.67 289,-179.33 294.33,-174 299.67,-174"/>
</a>
</g>
</g>
<!-- primitive&#45;String&#45;1 -->
<g id="node14" class="node">
<title>primitive&#45;String&#45;1</title>
<g id="a_node14"><a xlink:title="String&#45;1: primitive&#45;String&#45;1">
<path fill="white" stroke="transparent" d="M151.17,-95C151.17,-95 198.83,-95 198.83,-95 204.17,-95 209.5,-100.33 209.5,-105.67 209.5,-105.67 209.5,-116.33 209.5,-116.33 209.5,-121.67 204.17,-127 198.83,-127 198.83,-127 151.17,-127 151.17,-127 145.83,-127 140.5,-121.67 140.5,-116.33 140.5,-116.33 140.5,-105.67 140.5,-105.67 140.5,-100.33 145.83,-95 151.17,-95"/>
<text text-anchor="start" x="146" y="-107.3" font-family="Helvetica,sans-Serif" font-size="14.00">&quot;zero_0&quot;</text>
<path fill="none" stroke="black" d="M151.17,-95C151.17,-95 198.83,-95 198.83,-95 204.17,-95 209.5,-100.33 209.5,-105.67 209.5,-105.67 209.5,-116.33 209.5,-116.33 209.5,-121.67 204.17,-127 198.83,-127 198.83,-127 151.17,-127 151.17,-127 145.83,-127 140.5,-121.67 140.5,-116.33 140.5,-116.33 140.5,-105.67 140.5,-105.67 140.5,-100.33 145.83,-95 151.17,-95"/>
</a>
</g>
</g>
<!-- function&#45;3&#45;Bne -->
<g id="node15" class="node">
<title>function&#45;3&#45;Bne</title>
<g id="a_node15"><a xlink:title="Inst&#45;9: function&#45;3&#45;Bne">
<path fill="white" stroke="transparent" d="M461.67,-253C461.67,-253 478.33,-253 478.33,-253 483.67,-253 489,-258.33 489,-263.67 489,-263.67 489,-274.33 489,-274.33 489,-279.67 483.67,-285 478.33,-285 478.33,-285 461.67,-285 461.67,-285 456.33,-285 451,-279.67 451,-274.33 451,-274.33 451,-263.67 451,-263.67 451,-258.33 456.33,-253 461.67,-253"/>
<text text-anchor="start" x="456" y="-265.3" font-family="Helvetica,sans-Serif" font-size="14.00">Bne</text>
<path fill="none" stroke="black" d="M461.67,-253C461.67,-253 478.33,-253 478.33,-253 483.67,-253 489,-258.33 489,-263.67 489,-263.67 489,-274.33 489,-274.33 489,-279.67 483.67,-285 478.33,-285 478.33,-285 461.67,-285 461.67,-285 456.33,-285 451,-279.67 451,-274.33 451,-274.33 451,-263.67 451,-263.67 451,-258.33 456.33,-253 461.67,-253"/>
</a>
</g>
</g>
<!-- function&#45;2&#45;Seq2 -->
<g id="node16" class="node">
<title>function&#45;2&#45;Seq2</title>
<g id="a_node16"><a xlink:title="Inst&#45;9: function&#45;2&#45;Seq2">
<path fill="white" stroke="transparent" d="M341.67,-253C341.67,-253 366.33,-253 366.33,-253 371.67,-253 377,-258.33 377,-263.67 377,-263.67 377,-274.33 377,-274.33 377,-279.67 371.67,-285 366.33,-285 366.33,-285 341.67,-285 341.67,-285 336.33,-285 331,-279.67 331,-274.33 331,-274.33 331,-263.67 331,-263.67 331,-258.33 336.33,-253 341.67,-253"/>
<text text-anchor="start" x="336" y="-265.3" font-family="Helvetica,sans-Serif" font-size="14.00">Seq2</text>
<path fill="none" stroke="black" d="M341.67,-253C341.67,-253 366.33,-253 366.33,-253 371.67,-253 377,-258.33 377,-263.67 377,-263.67 377,-274.33 377,-274.33 377,-279.67 371.67,-285 366.33,-285 366.33,-285 341.67,-285 341.67,-285 336.33,-285 331,-279.67 331,-274.33 331,-274.33 331,-263.67 331,-263.67 331,-258.33 336.33,-253 341.67,-253"/>
</a>
</g>
</g>
<!-- function&#45;0&#45;RegVal -->
<g id="node17" class="node">
<title>function&#45;0&#45;RegVal</title>
<g id="a_node17"><a xlink:title="Inst&#45;0: function&#45;0&#45;RegVal">
<path fill="white" stroke="transparent" d="M370.17,-95C370.17,-95 405.83,-95 405.83,-95 411.17,-95 416.5,-100.33 416.5,-105.67 416.5,-105.67 416.5,-116.33 416.5,-116.33 416.5,-121.67 411.17,-127 405.83,-127 405.83,-127 370.17,-127 370.17,-127 364.83,-127 359.5,-121.67 359.5,-116.33 359.5,-116.33 359.5,-105.67 359.5,-105.67 359.5,-100.33 364.83,-95 370.17,-95"/>
<text text-anchor="start" x="365" y="-107.3" font-family="Helvetica,sans-Serif" font-size="14.00">RegVal</text>
<path fill="none" stroke="black" d="M370.17,-95C370.17,-95 405.83,-95 405.83,-95 411.17,-95 416.5,-100.33 416.5,-105.67 416.5,-105.67 416.5,-116.33 416.5,-116.33 416.5,-121.67 411.17,-127 405.83,-127 405.83,-127 370.17,-127 370.17,-127 364.83,-127 359.5,-121.67 359.5,-116.33 359.5,-116.33 359.5,-105.67 359.5,-105.67 359.5,-100.33 364.83,-95 370.17,-95"/>
</a>
</g>
</g>
<!-- primitive&#45;String&#45;0 -->
<g id="node18" class="node">
<title>primitive&#45;String&#45;0</title>
<g id="a_node18"><a xlink:title="String&#45;0: primitive&#45;String&#45;0">
<path fill="white" stroke="transparent" d="M371.67,-16C371.67,-16 406.33,-16 406.33,-16 411.67,-16 417,-21.33 417,-26.67 417,-26.67 417,-37.33 417,-37.33 417,-42.67 411.67,-48 406.33,-48 406.33,-48 371.67,-48 371.67,-48 366.33,-48 361,-42.67 361,-37.33 361,-37.33 361,-26.67 361,-26.67 361,-21.33 366.33,-16 371.67,-16"/>
<text text-anchor="start" x="366" y="-28.3" font-family="Helvetica,sans-Serif" font-size="14.00">&quot;s0_0&quot;</text>
<path fill="none" stroke="black" d="M371.67,-16C371.67,-16 406.33,-16 406.33,-16 411.67,-16 417,-21.33 417,-26.67 417,-26.67 417,-37.33 417,-37.33 417,-42.67 411.67,-48 406.33,-48 406.33,-48 371.67,-48 371.67,-48 366.33,-48 361,-42.67 361,-37.33 361,-37.33 361,-26.67 361,-26.67 361,-21.33 366.33,-16 371.67,-16"/>
</a>
</g>
</g>
<!-- function&#45;0&#45;Bne -->
<g id="node19" class="node">
<title>function&#45;0&#45;Bne</title>
<g id="a_node19"><a xlink:title="Inst&#45;5: function&#45;0&#45;Bne">
<path fill="white" stroke="transparent" d="M181.67,-332C181.67,-332 198.33,-332 198.33,-332 203.67,-332 209,-337.33 209,-342.67 209,-342.67 209,-353.33 209,-353.33 209,-358.67 203.67,-364 198.33,-364 198.33,-364 181.67,-364 181.67,-364 176.33,-364 171,-358.67 171,-353.33 171,-353.33 171,-342.67 171,-342.67 171,-337.33 176.33,-332 181.67,-332"/>
<text text-anchor="start" x="176" y="-344.3" font-family="Helvetica,sans-Serif" font-size="14.00">Bne</text>
<path fill="none" stroke="black" d="M181.67,-332C181.67,-332 198.33,-332 198.33,-332 203.67,-332 209,-337.33 209,-342.67 209,-342.67 209,-353.33 209,-353.33 209,-358.67 203.67,-364 198.33,-364 198.33,-364 181.67,-364 181.67,-364 176.33,-364 171,-358.67 171,-353.33 171,-353.33 171,-342.67 171,-342.67 171,-337.33 176.33,-332 181.67,-332"/>
</a>
</g>
</g>
<!-- function&#45;1&#45;Bne -->
<g id="node20" class="node">
<title>function&#45;1&#45;Bne</title>
<g id="a_node20"><a xlink:title="Inst&#45;5: function&#45;1&#45;Bne">
<path fill="white" stroke="transparent" d="M123.67,-332C123.67,-332 140.33,-332 140.33,-332 145.67,-332 151,-337.33 151,-342.67 151,-342.67 151,-353.33 151,-353.33 151,-358.67 145.67,-364 140.33,-364 140.33,-364 123.67,-364 123.67,-364 118.33,-364 113,-358.67 113,-353.33 113,-353.33 113,-342.67 113,-342.67 113,-337.33 118.33,-332 123.67,-332"/>
<text text-anchor="start" x="118" y="-344.3" font-family="Helvetica,sans-Serif" font-size="14.00">Bne</text>
<path fill="none" stroke="black" d="M123.67,-332C123.67,-332 140.33,-332 140.33,-332 145.67,-332 151,-337.33 151,-342.67 151,-342.67 151,-353.33 151,-353.33 151,-358.67 145.67,-364 140.33,-364 140.33,-364 123.67,-364 123.67,-364 118.33,-364 113,-358.67 113,-353.33 113,-353.33 113,-342.67 113,-342.67 113,-337.33 118.33,-332 123.67,-332"/>
</a>
</g>
</g>
<!-- function&#45;0&#45;Seq2 -->
<g id="node21" class="node">
<title>function&#45;0&#45;Seq2</title>
<g id="a_node21"><a xlink:title="Inst&#45;5: function&#45;0&#45;Seq2">
<path fill="white" stroke="transparent" d="M61.67,-332C61.67,-332 86.33,-332 86.33,-332 91.67,-332 97,-337.33 97,-342.67 97,-342.67 97,-353.33 97,-353.33 97,-358.67 91.67,-364 86.33,-364 86.33,-364 61.67,-364 61.67,-364 56.33,-364 51,-358.67 51,-353.33 51,-353.33 51,-342.67 51,-342.67 51,-337.33 56.33,-332 61.67,-332"/>
<text text-anchor="start" x="56" y="-344.3" font-family="Helvetica,sans-Serif" font-size="14.00">Seq2</text>
<path fill="none" stroke="black" d="M61.67,-332C61.67,-332 86.33,-332 86.33,-332 91.67,-332 97,-337.33 97,-342.67 97,-342.67 97,-353.33 97,-353.33 97,-358.67 91.67,-364 86.33,-364 86.33,-364 61.67,-364 61.67,-364 56.33,-364 51,-358.67 51,-353.33 51,-353.33 51,-342.67 51,-342.67 51,-337.33 56.33,-332 61.67,-332"/>
</a>
</g>
</g>
<!-- function&#45;0&#45;Jal -->
<g id="node22" class="node">
<title>function&#45;0&#45;Jal</title>
<g id="a_node22"><a xlink:title="Inst&#45;8: function&#45;0&#45;Jal">
<path fill="white" stroke="transparent" d="M78.67,-253C78.67,-253 89.33,-253 89.33,-253 94.67,-253 100,-258.33 100,-263.67 100,-263.67 100,-274.33 100,-274.33 100,-279.67 94.67,-285 89.33,-285 89.33,-285 78.67,-285 78.67,-285 73.33,-285 68,-279.67 68,-274.33 68,-274.33 68,-263.67 68,-263.67 68,-258.33 73.33,-253 78.67,-253"/>
<text text-anchor="start" x="75.5" y="-265.3" font-family="Helvetica,sans-Serif" font-size="14.00">Jal</text>
<path fill="none" stroke="black" d="M78.67,-253C78.67,-253 89.33,-253 89.33,-253 94.67,-253 100,-258.33 100,-263.67 100,-263.67 100,-274.33 100,-274.33 100,-279.67 94.67,-285 89.33,-285 89.33,-285 78.67,-285 78.67,-285 73.33,-285 68,-279.67 68,-274.33 68,-274.33 68,-263.67 68,-263.67 68,-258.33 73.33,-253 78.67,-253"/>
</a>
</g>
</g>
</g>
</svg>
