<?xml version="1.0" encoding="UTF-8" standalone="no"?>
<!DOCTYPE svg PUBLIC "-//W3C//DTD SVG 1.1//EN"
 "http://www.w3.org/Graphics/SVG/1.1/DTD/svg11.dtd">
<!-- Generated by graphviz version 2.43.0 (0)
 -->
<!-- Title: %3 Pages: 1 -->
<svg width="386pt" height="230pt"
 viewBox="0.00 0.00 386.00 230.00" xmlns="http://www.w3.org/2000/svg" xmlns:xlink="http://www.w3.org/1999/xlink">
<g id="graph0" class="graph" transform="scale(1 1) rotate(0) translate(4 226)">
<title>%3</title>
<polygon fill="white" stroke="#000000" points="-4,4 -4,-226 382,-226 382,4 -4,4"/>
<g id="clust1" class="cluster">
<title>outer_cluster_Inst&#45;1</title>
</g>
<g id="clust2" class="cluster">
<title>cluster_Inst&#45;1</title>
<path fill="#ffffb3" stroke="black" stroke-dasharray="5,2" d="M23,-90C23,-90 63,-90 63,-90 69,-90 75,-96 75,-102 75,-102 75,-120 75,-120 75,-126 69,-132 63,-132 63,-132 23,-132 23,-132 17,-132 11,-126 11,-120 11,-120 11,-102 11,-102 11,-96 17,-90 23,-90"/>
</g>
<g id="clust4" class="cluster">
<title>outer_cluster_Inst&#45;5</title>
</g>
<g id="clust5" class="cluster">
<title>cluster_Inst&#45;5</title>
<path fill="#ffffb3" stroke="black" stroke-dasharray="5,2" d="M93,-90C93,-90 133,-90 133,-90 139,-90 145,-96 145,-102 145,-102 145,-120 145,-120 145,-126 139,-132 133,-132 133,-132 93,-132 93,-132 87,-132 81,-126 81,-120 81,-120 81,-102 81,-102 81,-96 87,-90 93,-90"/>
</g>
<g id="clust7" class="cluster">
<title>outer_cluster_Inst&#45;0</title>
</g>
<g id="clust8" class="cluster">
<title>cluster_Inst&#45;0</title>
<path fill="#ffffb3" stroke="black" stroke-dasharray="5,2" d="M163,-90C163,-90 203,-90 203,-90 209,-90 215,-96 215,-102 215,-102 215,-120 215,-120 215,-126 209,-132 203,-132 203,-132 163,-132 163,-132 157,-132 151,-126 151,-120 151,-120 151,-102 151,-102 151,-96 157,-90 163,-90"/>
</g>
<g id="clust10" class="cluster">
<title>outer_cluster_Inst&#45;4</title>
</g>
<g id="clust11" class="cluster">
<title>cluster_Inst&#45;4</title>
<path fill="#ffffb3" stroke="black" stroke-dasharray="5,2" d="M178,-169C178,-169 272,-169 272,-169 278,-169 284,-175 284,-181 284,-181 284,-199 284,-199 284,-205 278,-211 272,-211 272,-211 178,-211 178,-211 172,-211 166,-205 166,-199 166,-199 166,-181 166,-181 166,-175 172,-169 178,-169"/>
</g>
<g id="clust13" class="cluster">
<title>outer_cluster_Inst&#45;6</title>
</g>
<g id="clust14" class="cluster">
<title>cluster_Inst&#45;6</title>
<path fill="#ffffb3" stroke="black" stroke-dasharray="5,2" d="M26,-169C26,-169 120,-169 120,-169 126,-169 132,-175 132,-181 132,-181 132,-199 132,-199 132,-205 126,-211 120,-211 120,-211 26,-211 26,-211 20,-211 14,-205 14,-199 14,-199 14,-181 14,-181 14,-175 20,-169 26,-169"/>
</g>
<g id="clust16" class="cluster">
<title>outer_cluster_Inst&#45;2</title>
</g>
<g id="clust17" class="cluster">
<title>cluster_Inst&#45;2</title>
<path fill="#ffffb3" stroke="black" stroke-dasharray="5,2" d="M233,-90C233,-90 273,-90 273,-90 279,-90 285,-96 285,-102 285,-102 285,-120 285,-120 285,-126 279,-132 273,-132 273,-132 233,-132 233,-132 227,-132 221,-126 221,-120 221,-120 221,-102 221,-102 221,-96 227,-90 233,-90"/>
</g>
<g id="clust19" class="cluster">
<title>outer_cluster_Inst&#45;3</title>
</g>
<g id="clust20" class="cluster">
<title>cluster_Inst&#45;3</title>
<path fill="#ffffb3" stroke="black" stroke-dasharray="5,2" d="M308,-169C308,-169 348,-169 348,-169 354,-169 360,-175 360,-181 360,-181 360,-199 360,-199 360,-205 354,-211 348,-211 348,-211 308,-211 308,-211 302,-211 296,-205 296,-199 296,-199 296,-181 296,-181 296,-175 302,-169 308,-169"/>
</g>
<g id="clust22" class="cluster">
<title>outer_cluster_String&#45;2</title>
</g>
<g id="clust23" class="cluster">
<title>cluster_String&#45;2</title>
<path fill="#bebada" stroke="black" stroke-dasharray="5,2" d="M236,-11C236,-11 272,-11 272,-11 278,-11 284,-17 284,-23 284,-23 284,-41 284,-41 284,-47 278,-53 272,-53 272,-53 236,-53 236,-53 230,-53 224,-47 224,-41 224,-41 224,-23 224,-23 224,-17 230,-11 236,-11"/>
</g>
<g id="clust25" class="cluster">
<title>outer_cluster_String&#45;3</title>
</g>
<g id="clust26" class="cluster">
<title>cluster_String&#45;3</title>
<path fill="#bebada" stroke="black" stroke-dasharray="5,2" d="M303,-90C303,-90 355,-90 355,-90 361,-90 367,-96 367,-102 367,-102 367,-120 367,-120 367,-126 361,-132 355,-132 355,-132 303,-132 303,-132 297,-132 291,-126 291,-120 291,-120 291,-102 291,-102 291,-96 297,-90 303,-90"/>
</g>
<g id="clust28" class="cluster">
<title>outer_cluster_String&#45;0</title>
</g>
<g id="clust29" class="cluster">
<title>cluster_String&#45;0</title>
<path fill="#bebada" stroke="black" stroke-dasharray="5,2" d="M164,-11C164,-11 204,-11 204,-11 210,-11 216,-17 216,-23 216,-23 216,-41 216,-41 216,-47 210,-53 204,-53 204,-53 164,-53 164,-53 158,-53 152,-47 152,-41 152,-41 152,-23 152,-23 152,-17 158,-11 164,-11"/>
</g>
<g id="clust31" class="cluster">
<title>outer_cluster_String&#45;1</title>
</g>
<g id="clust32" class="cluster">
<title>cluster_String&#45;1</title>
<path fill="#bebada" stroke="black" stroke-dasharray="5,2" d="M24,-11C24,-11 64,-11 64,-11 70,-11 76,-17 76,-23 76,-23 76,-41 76,-41 76,-47 70,-53 64,-53 64,-53 24,-53 24,-53 18,-53 12,-47 12,-41 12,-41 12,-23 12,-23 12,-17 18,-11 24,-11"/>
</g>
<g id="clust34" class="cluster">
<title>outer_cluster_String&#45;4</title>
</g>
<g id="clust35" class="cluster">
<title>cluster_String&#45;4</title>
<path fill="#bebada" stroke="black" stroke-dasharray="5,2" d="M96,-11C96,-11 132,-11 132,-11 138,-11 144,-17 144,-23 144,-23 144,-41 144,-41 144,-47 138,-53 132,-53 132,-53 96,-53 96,-53 90,-53 84,-47 84,-41 84,-41 84,-23 84,-23 84,-17 90,-11 96,-11"/>
</g>
<!-- function&#45;1&#45;RegVal&#45;&gt;primitive&#45;String&#45;1 -->
<g id="edge1" class="edge">
<title>function&#45;1&#45;RegVal:s&#45;&gt;primitive&#45;String&#45;1</title>
<path fill="none" stroke="black" d="M44,-95C44,-81.84 44,-67.11 44,-55.3"/>
<polygon fill="black" stroke="black" points="45.75,-58 44,-53 42.25,-58 45.75,-58"/>
</g>
<!-- function&#45;4&#45;RegVal&#45;&gt;primitive&#45;String&#45;4 -->
<g id="edge2" class="edge">
<title>function&#45;4&#45;RegVal:s&#45;&gt;primitive&#45;String&#45;4</title>
<path fill="none" stroke="black" d="M114,-95C114,-81.84 114,-67.11 114,-55.3"/>
<polygon fill="black" stroke="black" points="115.75,-58 114,-53 112.25,-58 115.75,-58"/>
</g>
<!-- function&#45;0&#45;RegVal&#45;&gt;primitive&#45;String&#45;0 -->
<g id="edge3" class="edge">
<title>function&#45;0&#45;RegVal:s&#45;&gt;primitive&#45;String&#45;0</title>
<path fill="none" stroke="black" d="M184,-95C184,-81.84 184,-67.11 184,-55.3"/>
<polygon fill="black" stroke="black" points="185.75,-58 184,-53 182.25,-58 185.75,-58"/>
</g>
<!-- function&#45;0&#45;Or&#45;&gt;function&#45;0&#45;RegVal -->
<g id="edge5" class="edge">
<title>function&#45;0&#45;Or:s&#45;&gt;function&#45;0&#45;RegVal</title>
<path fill="none" stroke="black" d="M262,-174C262,-167.52 235.33,-147.64 212.98,-132.12"/>
<polygon fill="black" stroke="black" points="217.02,-130.78 211.87,-132 216.66,-134.26 217.02,-130.78"/>
</g>
<!-- function&#45;0&#45;Or&#45;&gt;function&#45;2&#45;RegVal -->
<g id="edge4" class="edge">
<title>function&#45;0&#45;Or:s&#45;&gt;function&#45;2&#45;RegVal</title>
<path fill="none" stroke="black" d="M246,-174C246,-160.76 247.6,-146.02 249.27,-134.24"/>
<polygon fill="black" stroke="black" points="250.07,-137.3 250.03,-132 246.76,-136.16 250.07,-137.3"/>
</g>
<!-- function&#45;2&#45;RegVal&#45;&gt;primitive&#45;String&#45;2 -->
<g id="edge12" class="edge">
<title>function&#45;2&#45;RegVal:s&#45;&gt;primitive&#45;String&#45;2</title>
<path fill="none" stroke="black" d="M254,-95C254,-81.84 254,-67.11 254,-55.3"/>
<polygon fill="black" stroke="black" points="255.75,-58 254,-53 252.25,-58 255.75,-58"/>
</g>
<!-- function&#45;2&#45;Or&#45;&gt;function&#45;0&#45;RegVal -->
<g id="edge6" class="edge">
<title>function&#45;2&#45;Or:s&#45;&gt;function&#45;0&#45;RegVal</title>
<path fill="none" stroke="black" d="M188,-174C188,-160.8 186.86,-146.06 185.67,-134.27"/>
<polygon fill="black" stroke="black" points="187.99,-136.45 185.12,-132 184.59,-137.27 187.99,-136.45"/>
</g>
<!-- function&#45;2&#45;Or&#45;&gt;function&#45;2&#45;RegVal -->
<g id="edge7" class="edge">
<title>function&#45;2&#45;Or:s&#45;&gt;function&#45;2&#45;RegVal</title>
<path fill="none" stroke="black" d="M204,-174C204,-157.85 214.36,-143.45 225.55,-132.6"/>
<polygon fill="black" stroke="black" points="223.36,-136.37 226.36,-132 221.29,-133.55 223.36,-136.37"/>
</g>
<!-- function&#45;1&#45;Or&#45;&gt;function&#45;1&#45;RegVal -->
<g id="edge8" class="edge">
<title>function&#45;1&#45;Or:s&#45;&gt;function&#45;1&#45;RegVal</title>
<path fill="none" stroke="black" d="M94,-174C94,-157.72 83.38,-143.39 71.84,-132.62"/>
<polygon fill="black" stroke="black" points="76.04,-133.3 70.9,-132 74.11,-136.22 76.04,-133.3"/>
</g>
<!-- function&#45;1&#45;Or&#45;&gt;function&#45;4&#45;RegVal -->
<g id="edge9" class="edge">
<title>function&#45;1&#45;Or:s&#45;&gt;function&#45;4&#45;RegVal</title>
<path fill="none" stroke="black" d="M110,-174C110,-160.82 110.68,-146.09 111.4,-134.29"/>
<polygon fill="black" stroke="black" points="112.75,-137.2 111.73,-132 109.29,-136.7 112.75,-137.2"/>
</g>
<!-- function&#45;3&#45;Or&#45;&gt;function&#45;1&#45;RegVal -->
<g id="edge11" class="edge">
<title>function&#45;3&#45;Or:s&#45;&gt;function&#45;1&#45;RegVal</title>
<path fill="none" stroke="black" d="M52,-174C52,-160.7 49.95,-145.96 47.8,-134.19"/>
<polygon fill="black" stroke="black" points="50.46,-135.84 46.82,-132 47.27,-137.28 50.46,-135.84"/>
</g>
<!-- function&#45;3&#45;Or&#45;&gt;function&#45;4&#45;RegVal -->
<g id="edge10" class="edge">
<title>function&#45;3&#45;Or:s&#45;&gt;function&#45;4&#45;RegVal</title>
<path fill="none" stroke="black" d="M36,-174C36,-167.6 62.11,-147.64 83.92,-132.07"/>
<polygon fill="black" stroke="black" points="79.74,-134.85 84.21,-132 78.94,-131.44 79.74,-134.85"/>
</g>
<!-- function&#45;3&#45;RegVal&#45;&gt;primitive&#45;String&#45;3 -->
<g id="edge13" class="edge">
<title>function&#45;3&#45;RegVal:s&#45;&gt;primitive&#45;String&#45;3</title>
<path fill="none" stroke="black" d="M329,-174C329,-160.84 329,-146.11 329,-134.3"/>
<polygon fill="black" stroke="black" points="330.75,-137 329,-132 327.25,-137 330.75,-137"/>
</g>
<!-- function&#45;1&#45;RegVal -->
<g id="node1" class="node">
<title>function&#45;1&#45;RegVal</title>
<g id="a_node1"><a xlink:title="Inst&#45;1: function&#45;1&#45;RegVal">
<path fill="white" stroke="transparent" d="M25.17,-95C25.17,-95 60.83,-95 60.83,-95 66.17,-95 71.5,-100.33 71.5,-105.67 71.5,-105.67 71.5,-116.33 71.5,-116.33 71.5,-121.67 66.17,-127 60.83,-127 60.83,-127 25.17,-127 25.17,-127 19.83,-127 14.5,-121.67 14.5,-116.33 14.5,-116.33 14.5,-105.67 14.5,-105.67 14.5,-100.33 19.83,-95 25.17,-95"/>
<text text-anchor="start" x="20" y="-107.3" font-family="Helvetica,sans-Serif" font-size="14.00">RegVal</text>
<path fill="none" stroke="black" d="M25.17,-95C25.17,-95 60.83,-95 60.83,-95 66.17,-95 71.5,-100.33 71.5,-105.67 71.5,-105.67 71.5,-116.33 71.5,-116.33 71.5,-121.67 66.17,-127 60.83,-127 60.83,-127 25.17,-127 25.17,-127 19.83,-127 14.5,-121.67 14.5,-116.33 14.5,-116.33 14.5,-105.67 14.5,-105.67 14.5,-100.33 19.83,-95 25.17,-95"/>
</a>
</g>
</g>
<!-- primitive&#45;String&#45;1 -->
<g id="node2" class="node">
<title>primitive&#45;String&#45;1</title>
<g id="a_node2"><a xlink:title="String&#45;1: primitive&#45;String&#45;1">
<path fill="white" stroke="transparent" d="M26.17,-16C26.17,-16 61.83,-16 61.83,-16 67.17,-16 72.5,-21.33 72.5,-26.67 72.5,-26.67 72.5,-37.33 72.5,-37.33 72.5,-42.67 67.17,-48 61.83,-48 61.83,-48 26.17,-48 26.17,-48 20.83,-48 15.5,-42.67 15.5,-37.33 15.5,-37.33 15.5,-26.67 15.5,-26.67 15.5,-21.33 20.83,-16 26.17,-16"/>
<text text-anchor="start" x="21" y="-28.3" font-family="Helvetica,sans-Serif" font-size="14.00">&quot;a1_0&quot;</text>
<path fill="none" stroke="black" d="M26.17,-16C26.17,-16 61.83,-16 61.83,-16 67.17,-16 72.5,-21.33 72.5,-26.67 72.5,-26.67 72.5,-37.33 72.5,-37.33 72.5,-42.67 67.17,-48 61.83,-48 61.83,-48 26.17,-48 26.17,-48 20.83,-48 15.5,-42.67 15.5,-37.33 15.5,-37.33 15.5,-26.67 15.5,-26.67 15.5,-21.33 20.83,-16 26.17,-16"/>
</a>
</g>
</g>
<!-- function&#45;4&#45;RegVal -->
<g id="node3" class="node">
<title>function&#45;4&#45;RegVal</title>
<g id="a_node3"><a xlink:title="Inst&#45;5: function&#45;4&#45;RegVal">
<path fill="white" stroke="transparent" d="M95.17,-95C95.17,-95 130.83,-95 130.83,-95 136.17,-95 141.5,-100.33 141.5,-105.67 141.5,-105.67 141.5,-116.33 141.5,-116.33 141.5,-121.67 136.17,-127 130.83,-127 130.83,-127 95.17,-127 95.17,-127 89.83,-127 84.5,-121.67 84.5,-116.33 84.5,-116.33 84.5,-105.67 84.5,-105.67 84.5,-100.33 89.83,-95 95.17,-95"/>
<text text-anchor="start" x="90" y="-107.3" font-family="Helvetica,sans-Serif" font-size="14.00">RegVal</text>
<path fill="none" stroke="black" d="M95.17,-95C95.17,-95 130.83,-95 130.83,-95 136.17,-95 141.5,-100.33 141.5,-105.67 141.5,-105.67 141.5,-116.33 141.5,-116.33 141.5,-121.67 136.17,-127 130.83,-127 130.83,-127 95.17,-127 95.17,-127 89.83,-127 84.5,-121.67 84.5,-116.33 84.5,-116.33 84.5,-105.67 84.5,-105.67 84.5,-100.33 89.83,-95 95.17,-95"/>
</a>
</g>
</g>
<!-- primitive&#45;String&#45;4 -->
<g id="node4" class="node">
<title>primitive&#45;String&#45;4</title>
<g id="a_node4"><a xlink:title="String&#45;4: primitive&#45;String&#45;4">
<path fill="white" stroke="transparent" d="M97.67,-16C97.67,-16 130.33,-16 130.33,-16 135.67,-16 141,-21.33 141,-26.67 141,-26.67 141,-37.33 141,-37.33 141,-42.67 135.67,-48 130.33,-48 130.33,-48 97.67,-48 97.67,-48 92.33,-48 87,-42.67 87,-37.33 87,-37.33 87,-26.67 87,-26.67 87,-21.33 92.33,-16 97.67,-16"/>
<text text-anchor="start" x="92" y="-28.3" font-family="Helvetica,sans-Serif" font-size="14.00">&quot;t1_2&quot;</text>
<path fill="none" stroke="black" d="M97.67,-16C97.67,-16 130.33,-16 130.33,-16 135.67,-16 141,-21.33 141,-26.67 141,-26.67 141,-37.33 141,-37.33 141,-42.67 135.67,-48 130.33,-48 130.33,-48 97.67,-48 97.67,-48 92.33,-48 87,-42.67 87,-37.33 87,-37.33 87,-26.67 87,-26.67 87,-21.33 92.33,-16 97.67,-16"/>
</a>
</g>
</g>
<!-- function&#45;0&#45;RegVal -->
<g id="node5" class="node">
<title>function&#45;0&#45;RegVal</title>
<g id="a_node5"><a xlink:title="Inst&#45;0: function&#45;0&#45;RegVal">
<path fill="white" stroke="transparent" d="M165.17,-95C165.17,-95 200.83,-95 200.83,-95 206.17,-95 211.5,-100.33 211.5,-105.67 211.5,-105.67 211.5,-116.33 211.5,-116.33 211.5,-121.67 206.17,-127 200.83,-127 200.83,-127 165.17,-127 165.17,-127 159.83,-127 154.5,-121.67 154.5,-116.33 154.5,-116.33 154.5,-105.67 154.5,-105.67 154.5,-100.33 159.83,-95 165.17,-95"/>
<text text-anchor="start" x="160" y="-107.3" font-family="Helvetica,sans-Serif" font-size="14.00">RegVal</text>
<path fill="none" stroke="black" d="M165.17,-95C165.17,-95 200.83,-95 200.83,-95 206.17,-95 211.5,-100.33 211.5,-105.67 211.5,-105.67 211.5,-116.33 211.5,-116.33 211.5,-121.67 206.17,-127 200.83,-127 200.83,-127 165.17,-127 165.17,-127 159.83,-127 154.5,-121.67 154.5,-116.33 154.5,-116.33 154.5,-105.67 154.5,-105.67 154.5,-100.33 159.83,-95 165.17,-95"/>
</a>
</g>
</g>
<!-- primitive&#45;String&#45;0 -->
<g id="node6" class="node">
<title>primitive&#45;String&#45;0</title>
<g id="a_node6"><a xlink:title="String&#45;0: primitive&#45;String&#45;0">
<path fill="white" stroke="transparent" d="M166.17,-16C166.17,-16 201.83,-16 201.83,-16 207.17,-16 212.5,-21.33 212.5,-26.67 212.5,-26.67 212.5,-37.33 212.5,-37.33 212.5,-42.67 207.17,-48 201.83,-48 201.83,-48 166.17,-48 166.17,-48 160.83,-48 155.5,-42.67 155.5,-37.33 155.5,-37.33 155.5,-26.67 155.5,-26.67 155.5,-21.33 160.83,-16 166.17,-16"/>
<text text-anchor="start" x="161" y="-28.3" font-family="Helvetica,sans-Serif" font-size="14.00">&quot;a0_0&quot;</text>
<path fill="none" stroke="black" d="M166.17,-16C166.17,-16 201.83,-16 201.83,-16 207.17,-16 212.5,-21.33 212.5,-26.67 212.5,-26.67 212.5,-37.33 212.5,-37.33 212.5,-42.67 207.17,-48 201.83,-48 201.83,-48 166.17,-48 166.17,-48 160.83,-48 155.5,-42.67 155.5,-37.33 155.5,-37.33 155.5,-26.67 155.5,-26.67 155.5,-21.33 160.83,-16 166.17,-16"/>
</a>
</g>
</g>
<!-- function&#45;0&#45;Or -->
<g id="node7" class="node">
<title>function&#45;0&#45;Or</title>
<g id="a_node7"><a xlink:title="Inst&#45;4: function&#45;0&#45;Or">
<path fill="white" stroke="transparent" d="M248.67,-174C248.67,-174 259.33,-174 259.33,-174 264.67,-174 270,-179.33 270,-184.67 270,-184.67 270,-195.33 270,-195.33 270,-200.67 264.67,-206 259.33,-206 259.33,-206 248.67,-206 248.67,-206 243.33,-206 238,-200.67 238,-195.33 238,-195.33 238,-184.67 238,-184.67 238,-179.33 243.33,-174 248.67,-174"/>
<text text-anchor="start" x="245" y="-186.3" font-family="Helvetica,sans-Serif" font-size="14.00">Or</text>
<path fill="none" stroke="black" d="M248.67,-174C248.67,-174 259.33,-174 259.33,-174 264.67,-174 270,-179.33 270,-184.67 270,-184.67 270,-195.33 270,-195.33 270,-200.67 264.67,-206 259.33,-206 259.33,-206 248.67,-206 248.67,-206 243.33,-206 238,-200.67 238,-195.33 238,-195.33 238,-184.67 238,-184.67 238,-179.33 243.33,-174 248.67,-174"/>
</a>
</g>
</g>
<!-- function&#45;2&#45;RegVal -->
<g id="node8" class="node">
<title>function&#45;2&#45;RegVal</title>
<g id="a_node8"><a xlink:title="Inst&#45;2: function&#45;2&#45;RegVal">
<path fill="white" stroke="transparent" d="M235.17,-95C235.17,-95 270.83,-95 270.83,-95 276.17,-95 281.5,-100.33 281.5,-105.67 281.5,-105.67 281.5,-116.33 281.5,-116.33 281.5,-121.67 276.17,-127 270.83,-127 270.83,-127 235.17,-127 235.17,-127 229.83,-127 224.5,-121.67 224.5,-116.33 224.5,-116.33 224.5,-105.67 224.5,-105.67 224.5,-100.33 229.83,-95 235.17,-95"/>
<text text-anchor="start" x="230" y="-107.3" font-family="Helvetica,sans-Serif" font-size="14.00">RegVal</text>
<path fill="none" stroke="black" d="M235.17,-95C235.17,-95 270.83,-95 270.83,-95 276.17,-95 281.5,-100.33 281.5,-105.67 281.5,-105.67 281.5,-116.33 281.5,-116.33 281.5,-121.67 276.17,-127 270.83,-127 270.83,-127 235.17,-127 235.17,-127 229.83,-127 224.5,-121.67 224.5,-116.33 224.5,-116.33 224.5,-105.67 224.5,-105.67 224.5,-100.33 229.83,-95 235.17,-95"/>
</a>
</g>
</g>
<!-- function&#45;2&#45;Or -->
<g id="node9" class="node">
<title>function&#45;2&#45;Or</title>
<g id="a_node9"><a xlink:title="Inst&#45;4: function&#45;2&#45;Or">
<path fill="white" stroke="transparent" d="M190.67,-174C190.67,-174 201.33,-174 201.33,-174 206.67,-174 212,-179.33 212,-184.67 212,-184.67 212,-195.33 212,-195.33 212,-200.67 206.67,-206 201.33,-206 201.33,-206 190.67,-206 190.67,-206 185.33,-206 180,-200.67 180,-195.33 180,-195.33 180,-184.67 180,-184.67 180,-179.33 185.33,-174 190.67,-174"/>
<text text-anchor="start" x="187" y="-186.3" font-family="Helvetica,sans-Serif" font-size="14.00">Or</text>
<path fill="none" stroke="black" d="M190.67,-174C190.67,-174 201.33,-174 201.33,-174 206.67,-174 212,-179.33 212,-184.67 212,-184.67 212,-195.33 212,-195.33 212,-200.67 206.67,-206 201.33,-206 201.33,-206 190.67,-206 190.67,-206 185.33,-206 180,-200.67 180,-195.33 180,-195.33 180,-184.67 180,-184.67 180,-179.33 185.33,-174 190.67,-174"/>
</a>
</g>
</g>
<!-- function&#45;1&#45;Or -->
<g id="node10" class="node">
<title>function&#45;1&#45;Or</title>
<g id="a_node10"><a xlink:title="Inst&#45;6: function&#45;1&#45;Or">
<path fill="white" stroke="transparent" d="M96.67,-174C96.67,-174 107.33,-174 107.33,-174 112.67,-174 118,-179.33 118,-184.67 118,-184.67 118,-195.33 118,-195.33 118,-200.67 112.67,-206 107.33,-206 107.33,-206 96.67,-206 96.67,-206 91.33,-206 86,-200.67 86,-195.33 86,-195.33 86,-184.67 86,-184.67 86,-179.33 91.33,-174 96.67,-174"/>
<text text-anchor="start" x="93" y="-186.3" font-family="Helvetica,sans-Serif" font-size="14.00">Or</text>
<path fill="none" stroke="black" d="M96.67,-174C96.67,-174 107.33,-174 107.33,-174 112.67,-174 118,-179.33 118,-184.67 118,-184.67 118,-195.33 118,-195.33 118,-200.67 112.67,-206 107.33,-206 107.33,-206 96.67,-206 96.67,-206 91.33,-206 86,-200.67 86,-195.33 86,-195.33 86,-184.67 86,-184.67 86,-179.33 91.33,-174 96.67,-174"/>
</a>
</g>
</g>
<!-- function&#45;3&#45;Or -->
<g id="node11" class="node">
<title>function&#45;3&#45;Or</title>
<g id="a_node11"><a xlink:title="Inst&#45;6: function&#45;3&#45;Or">
<path fill="white" stroke="transparent" d="M38.67,-174C38.67,-174 49.33,-174 49.33,-174 54.67,-174 60,-179.33 60,-184.67 60,-184.67 60,-195.33 60,-195.33 60,-200.67 54.67,-206 49.33,-206 49.33,-206 38.67,-206 38.67,-206 33.33,-206 28,-200.67 28,-195.33 28,-195.33 28,-184.67 28,-184.67 28,-179.33 33.33,-174 38.67,-174"/>
<text text-anchor="start" x="35" y="-186.3" font-family="Helvetica,sans-Serif" font-size="14.00">Or</text>
<path fill="none" stroke="black" d="M38.67,-174C38.67,-174 49.33,-174 49.33,-174 54.67,-174 60,-179.33 60,-184.67 60,-184.67 60,-195.33 60,-195.33 60,-200.67 54.67,-206 49.33,-206 49.33,-206 38.67,-206 38.67,-206 33.33,-206 28,-200.67 28,-195.33 28,-195.33 28,-184.67 28,-184.67 28,-179.33 33.33,-174 38.67,-174"/>
</a>
</g>
</g>
<!-- primitive&#45;String&#45;2 -->
<g id="node12" class="node">
<title>primitive&#45;String&#45;2</title>
<g id="a_node12"><a xlink:title="String&#45;2: primitive&#45;String&#45;2">
<path fill="white" stroke="transparent" d="M237.67,-16C237.67,-16 270.33,-16 270.33,-16 275.67,-16 281,-21.33 281,-26.67 281,-26.67 281,-37.33 281,-37.33 281,-42.67 275.67,-48 270.33,-48 270.33,-48 237.67,-48 237.67,-48 232.33,-48 227,-42.67 227,-37.33 227,-37.33 227,-26.67 227,-26.67 227,-21.33 232.33,-16 237.67,-16"/>
<text text-anchor="start" x="232" y="-28.3" font-family="Helvetica,sans-Serif" font-size="14.00">&quot;t1_0&quot;</text>
<path fill="none" stroke="black" d="M237.67,-16C237.67,-16 270.33,-16 270.33,-16 275.67,-16 281,-21.33 281,-26.67 281,-26.67 281,-37.33 281,-37.33 281,-42.67 275.67,-48 270.33,-48 270.33,-48 237.67,-48 237.67,-48 232.33,-48 227,-42.67 227,-37.33 227,-37.33 227,-26.67 227,-26.67 227,-21.33 232.33,-16 237.67,-16"/>
</a>
</g>
</g>
<!-- function&#45;3&#45;RegVal -->
<g id="node13" class="node">
<title>function&#45;3&#45;RegVal</title>
<g id="a_node13"><a xlink:title="Inst&#45;3: function&#45;3&#45;RegVal">
<path fill="white" stroke="transparent" d="M310.17,-174C310.17,-174 345.83,-174 345.83,-174 351.17,-174 356.5,-179.33 356.5,-184.67 356.5,-184.67 356.5,-195.33 356.5,-195.33 356.5,-200.67 351.17,-206 345.83,-206 345.83,-206 310.17,-206 310.17,-206 304.83,-206 299.5,-200.67 299.5,-195.33 299.5,-195.33 299.5,-184.67 299.5,-184.67 299.5,-179.33 304.83,-174 310.17,-174"/>
<text text-anchor="start" x="305" y="-186.3" font-family="Helvetica,sans-Serif" font-size="14.00">RegVal</text>
<path fill="none" stroke="black" d="M310.17,-174C310.17,-174 345.83,-174 345.83,-174 351.17,-174 356.5,-179.33 356.5,-184.67 356.5,-184.67 356.5,-195.33 356.5,-195.33 356.5,-200.67 351.17,-206 345.83,-206 345.83,-206 310.17,-206 310.17,-206 304.83,-206 299.5,-200.67 299.5,-195.33 299.5,-195.33 299.5,-184.67 299.5,-184.67 299.5,-179.33 304.83,-174 310.17,-174"/>
</a>
</g>
</g>
<!-- primitive&#45;String&#45;3 -->
<g id="node14" class="node">
<title>primitive&#45;String&#45;3</title>
<g id="a_node14"><a xlink:title="String&#45;3: primitive&#45;String&#45;3">
<path fill="white" stroke="transparent" d="M305.17,-95C305.17,-95 352.83,-95 352.83,-95 358.17,-95 363.5,-100.33 363.5,-105.67 363.5,-105.67 363.5,-116.33 363.5,-116.33 363.5,-121.67 358.17,-127 352.83,-127 352.83,-127 305.17,-127 305.17,-127 299.83,-127 294.5,-121.67 294.5,-116.33 294.5,-116.33 294.5,-105.67 294.5,-105.67 294.5,-100.33 299.83,-95 305.17,-95"/>
<text text-anchor="start" x="300" y="-107.3" font-family="Helvetica,sans-Serif" font-size="14.00">&quot;zero_0&quot;</text>
<path fill="none" stroke="black" d="M305.17,-95C305.17,-95 352.83,-95 352.83,-95 358.17,-95 363.5,-100.33 363.5,-105.67 363.5,-105.67 363.5,-116.33 363.5,-116.33 363.5,-121.67 358.17,-127 352.83,-127 352.83,-127 305.17,-127 305.17,-127 299.83,-127 294.5,-121.67 294.5,-116.33 294.5,-116.33 294.5,-105.67 294.5,-105.67 294.5,-100.33 299.83,-95 305.17,-95"/>
</a>
</g>
</g>
</g>
</svg>
