<?xml version="1.0" encoding="UTF-8" standalone="no"?>
<!DOCTYPE svg PUBLIC "-//W3C//DTD SVG 1.1//EN"
 "http://www.w3.org/Graphics/SVG/1.1/DTD/svg11.dtd">
<!-- Generated by graphviz version 2.43.0 (0)
 -->
<!-- Title: %3 Pages: 1 -->
<svg width="541pt" height="388pt"
 viewBox="0.00 0.00 541.00 388.00" xmlns="http://www.w3.org/2000/svg" xmlns:xlink="http://www.w3.org/1999/xlink">
<g id="graph0" class="graph" transform="scale(1 1) rotate(0) translate(4 384)">
<title>%3</title>
<polygon fill="white" stroke="#000000" points="-4,4 -4,-384 537,-384 537,4 -4,4"/>
<g id="clust1" class="cluster">
<title>outer_cluster_Imm&#45;2</title>
</g>
<g id="clust2" class="cluster">
<title>cluster_Imm&#45;2</title>
<path fill="#ffffb3" stroke="black" stroke-dasharray="5,2" d="M91,-90C91,-90 135,-90 135,-90 141,-90 147,-96 147,-102 147,-102 147,-120 147,-120 147,-126 141,-132 135,-132 135,-132 91,-132 91,-132 85,-132 79,-126 79,-120 79,-120 79,-102 79,-102 79,-96 85,-90 91,-90"/>
</g>
<g id="clust4" class="cluster">
<title>outer_cluster_Imm&#45;4</title>
</g>
<g id="clust5" class="cluster">
<title>cluster_Imm&#45;4</title>
<path fill="#ffffb3" stroke="black" stroke-dasharray="5,2" d="M23,-169C23,-169 67,-169 67,-169 73,-169 79,-175 79,-181 79,-181 79,-199 79,-199 79,-205 73,-211 67,-211 67,-211 23,-211 23,-211 17,-211 11,-205 11,-199 11,-199 11,-181 11,-181 11,-175 17,-169 23,-169"/>
</g>
<g id="clust7" class="cluster">
<title>outer_cluster_Imm&#45;6</title>
</g>
<g id="clust8" class="cluster">
<title>cluster_Imm&#45;6</title>
<path fill="#ffffb3" stroke="black" stroke-dasharray="5,2" d="M326,-90C326,-90 370,-90 370,-90 376,-90 382,-96 382,-102 382,-102 382,-120 382,-120 382,-126 376,-132 370,-132 370,-132 326,-132 326,-132 320,-132 314,-126 314,-120 314,-120 314,-102 314,-102 314,-96 320,-90 326,-90"/>
</g>
<g id="clust10" class="cluster">
<title>outer_cluster_Inst&#45;10</title>
</g>
<g id="clust11" class="cluster">
<title>cluster_Inst&#45;10</title>
<path fill="#bebada" stroke="black" stroke-dasharray="5,2" d="M330,-169C330,-169 366,-169 366,-169 372,-169 378,-175 378,-181 378,-181 378,-199 378,-199 378,-205 372,-211 366,-211 366,-211 330,-211 330,-211 324,-211 318,-205 318,-199 318,-199 318,-181 318,-181 318,-175 324,-169 330,-169"/>
</g>
<g id="clust13" class="cluster">
<title>outer_cluster_Inst&#45;8</title>
</g>
<g id="clust14" class="cluster">
<title>cluster_Inst&#45;8</title>
<path fill="#bebada" stroke="black" stroke-dasharray="5,2" d="M68,-248C68,-248 104,-248 104,-248 110,-248 116,-254 116,-260 116,-260 116,-278 116,-278 116,-284 110,-290 104,-290 104,-290 68,-290 68,-290 62,-290 56,-284 56,-278 56,-278 56,-260 56,-260 56,-254 62,-248 68,-248"/>
</g>
<g id="clust16" class="cluster">
<title>outer_cluster_Inst&#45;5</title>
</g>
<g id="clust17" class="cluster">
<title>cluster_Inst&#45;5</title>
<path fill="#bebada" stroke="black" stroke-dasharray="5,2" d="M76,-327C76,-327 228,-327 228,-327 234,-327 240,-333 240,-339 240,-339 240,-357 240,-357 240,-363 234,-369 228,-369 228,-369 76,-369 76,-369 70,-369 64,-363 64,-357 64,-357 64,-339 64,-339 64,-333 70,-327 76,-327"/>
</g>
<g id="clust19" class="cluster">
<title>outer_cluster_Inst&#45;0</title>
</g>
<g id="clust20" class="cluster">
<title>cluster_Inst&#45;0</title>
<path fill="#bebada" stroke="black" stroke-dasharray="5,2" d="M165,-90C165,-90 205,-90 205,-90 211,-90 217,-96 217,-102 217,-102 217,-120 217,-120 217,-126 211,-132 205,-132 205,-132 165,-132 165,-132 159,-132 153,-126 153,-120 153,-120 153,-102 153,-102 153,-96 159,-90 165,-90"/>
</g>
<g id="clust22" class="cluster">
<title>outer_cluster_Inst&#45;3</title>
</g>
<g id="clust23" class="cluster">
<title>cluster_Inst&#45;3</title>
<path fill="#bebada" stroke="black" stroke-dasharray="5,2" d="M172,-169C172,-169 208,-169 208,-169 214,-169 220,-175 220,-181 220,-181 220,-199 220,-199 220,-205 214,-211 208,-211 208,-211 172,-211 172,-211 166,-211 160,-205 160,-199 160,-199 160,-181 160,-181 160,-175 166,-169 172,-169"/>
</g>
<g id="clust25" class="cluster">
<title>outer_cluster_Inst&#45;9</title>
</g>
<g id="clust26" class="cluster">
<title>cluster_Inst&#45;9</title>
<path fill="#bebada" stroke="black" stroke-dasharray="5,2" d="M176,-248C176,-248 328,-248 328,-248 334,-248 340,-254 340,-260 340,-260 340,-278 340,-278 340,-284 334,-290 328,-290 328,-290 176,-290 176,-290 170,-290 164,-284 164,-278 164,-278 164,-260 164,-260 164,-254 170,-248 176,-248"/>
</g>
<g id="clust28" class="cluster">
<title>outer_cluster_Inst&#45;1</title>
</g>
<g id="clust29" class="cluster">
<title>cluster_Inst&#45;1</title>
<path fill="#bebada" stroke="black" stroke-dasharray="5,2" d="M238,-169C238,-169 278,-169 278,-169 284,-169 290,-175 290,-181 290,-181 290,-199 290,-199 290,-205 284,-211 278,-211 278,-211 238,-211 238,-211 232,-211 226,-205 226,-199 226,-199 226,-181 226,-181 226,-175 232,-169 238,-169"/>
</g>
<g id="clust31" class="cluster">
<title>outer_cluster_Inst&#45;7</title>
</g>
<g id="clust32" class="cluster">
<title>cluster_Inst&#45;7</title>
<path fill="#bebada" stroke="black" stroke-dasharray="5,2" d="M358,-248C358,-248 510,-248 510,-248 516,-248 522,-254 522,-260 522,-260 522,-278 522,-278 522,-284 516,-290 510,-290 510,-290 358,-290 358,-290 352,-290 346,-284 346,-278 346,-278 346,-260 346,-260 346,-254 352,-248 358,-248"/>
</g>
<g id="clust34" class="cluster">
<title>outer_cluster_String&#45;0</title>
</g>
<g id="clust35" class="cluster">
<title>cluster_String&#45;0</title>
<path fill="#fb8072" stroke="black" stroke-dasharray="5,2" d="M166,-11C166,-11 206,-11 206,-11 212,-11 218,-17 218,-23 218,-23 218,-41 218,-41 218,-47 212,-53 206,-53 206,-53 166,-53 166,-53 160,-53 154,-47 154,-41 154,-41 154,-23 154,-23 154,-17 160,-11 166,-11"/>
</g>
<g id="clust37" class="cluster">
<title>outer_cluster_String&#45;1</title>
</g>
<g id="clust38" class="cluster">
<title>cluster_String&#45;1</title>
<path fill="#fb8072" stroke="black" stroke-dasharray="5,2" d="M235,-90C235,-90 287,-90 287,-90 293,-90 299,-96 299,-102 299,-102 299,-120 299,-120 299,-126 293,-132 287,-132 287,-132 235,-132 235,-132 229,-132 223,-126 223,-120 223,-120 223,-102 223,-102 223,-96 229,-90 235,-90"/>
</g>
<g id="clust40" class="cluster">
<title>outer_cluster_i64&#45;0</title>
</g>
<g id="clust41" class="cluster">
<title>cluster_i64&#45;0</title>
<path fill="#80b1d3" stroke="black" stroke-dasharray="5,2" d="M25,-90C25,-90 61,-90 61,-90 67,-90 73,-96 73,-102 73,-102 73,-120 73,-120 73,-126 67,-132 61,-132 61,-132 25,-132 25,-132 19,-132 13,-126 13,-120 13,-120 13,-102 13,-102 13,-96 19,-90 25,-90"/>
</g>
<g id="clust43" class="cluster">
<title>outer_cluster_i64&#45;8</title>
</g>
<g id="clust44" class="cluster">
<title>cluster_i64&#45;8</title>
<path fill="#80b1d3" stroke="black" stroke-dasharray="5,2" d="M95,-11C95,-11 131,-11 131,-11 137,-11 143,-17 143,-23 143,-23 143,-41 143,-41 143,-47 137,-53 131,-53 131,-53 95,-53 95,-53 89,-53 83,-47 83,-41 83,-41 83,-23 83,-23 83,-17 89,-11 95,-11"/>
</g>
<g id="clust46" class="cluster">
<title>outer_cluster_i64&#45;4</title>
</g>
<g id="clust47" class="cluster">
<title>cluster_i64&#45;4</title>
<path fill="#80b1d3" stroke="black" stroke-dasharray="5,2" d="M330,-11C330,-11 366,-11 366,-11 372,-11 378,-17 378,-23 378,-23 378,-41 378,-41 378,-47 372,-53 366,-53 366,-53 330,-53 330,-53 324,-53 318,-47 318,-41 318,-41 318,-23 318,-23 318,-17 324,-11 330,-11"/>
</g>
<!-- function&#45;0&#45;ImmVal&#45;&gt;primitive&#45;i64&#45;8 -->
<g id="edge1" class="edge">
<title>function&#45;0&#45;ImmVal:s&#45;&gt;primitive&#45;i64&#45;8</title>
<path fill="none" stroke="black" d="M113,-95C113,-81.84 113,-67.11 113,-55.3"/>
<polygon fill="black" stroke="black" points="114.75,-58 113,-53 111.25,-58 114.75,-58"/>
</g>
<!-- function&#45;1&#45;ImmVal&#45;&gt;primitive&#45;i64&#45;0 -->
<g id="edge2" class="edge">
<title>function&#45;1&#45;ImmVal:s&#45;&gt;primitive&#45;i64&#45;0</title>
<path fill="none" stroke="black" d="M45,-174C45,-160.83 44.54,-146.1 44.07,-134.3"/>
<polygon fill="black" stroke="black" points="46.06,-136.81 43.85,-132 42.58,-137.14 46.06,-136.81"/>
</g>
<!-- function&#45;2&#45;ImmVal&#45;&gt;primitive&#45;i64&#45;4 -->
<g id="edge3" class="edge">
<title>function&#45;2&#45;ImmVal:s&#45;&gt;primitive&#45;i64&#45;4</title>
<path fill="none" stroke="black" d="M348,-95C348,-81.84 348,-67.11 348,-55.3"/>
<polygon fill="black" stroke="black" points="349.75,-58 348,-53 346.25,-58 349.75,-58"/>
</g>
<!-- function&#45;1&#45;Jal&#45;&gt;function&#45;2&#45;ImmVal -->
<g id="edge4" class="edge">
<title>function&#45;1&#45;Jal:s&#45;&gt;function&#45;2&#45;ImmVal</title>
<path fill="none" stroke="black" d="M348,-174C348,-160.84 348,-146.11 348,-134.3"/>
<polygon fill="black" stroke="black" points="349.75,-137 348,-132 346.25,-137 349.75,-137"/>
</g>
<!-- function&#45;0&#45;Jal&#45;&gt;function&#45;1&#45;ImmVal -->
<g id="edge5" class="edge">
<title>function&#45;0&#45;Jal:s&#45;&gt;function&#45;1&#45;ImmVal</title>
<path fill="none" stroke="black" d="M86,-253C86,-237.6 77.09,-223.08 67.58,-211.97"/>
<polygon fill="black" stroke="black" points="71.21,-212.23 66.06,-211 69.32,-215.17 71.21,-212.23"/>
</g>
<!-- function&#45;1&#45;Blt&#45;&gt;function&#45;1&#45;ImmVal -->
<g id="edge8" class="edge">
<title>function&#45;1&#45;Blt:s&#45;&gt;function&#45;1&#45;ImmVal</title>
<path fill="none" stroke="black" d="M163,-332C163,-280.97 86.33,-333.29 55,-293 45.63,-280.95 44.33,-239.24 44.49,-213.04"/>
<polygon fill="black" stroke="black" points="46.17,-216.04 44.54,-211 42.67,-215.96 46.17,-216.04"/>
</g>
<!-- function&#45;1&#45;Blt&#45;&gt;function&#45;1&#45;RegVal -->
<g id="edge6" class="edge">
<title>function&#45;1&#45;Blt:s&#45;&gt;function&#45;1&#45;RegVal</title>
<path fill="none" stroke="black" d="M144,-332C144,-292.42 139.13,-276.57 163,-245 180.63,-221.69 195.69,-228.61 221,-214 221.21,-213.88 221.42,-213.76 221.63,-213.63"/>
<polygon fill="black" stroke="black" points="222.7,-215.04 226.12,-211 220.92,-212.02 222.7,-215.04"/>
</g>
<!-- function&#45;1&#45;Blt&#45;&gt;function&#45;0&#45;Slli -->
<g id="edge7" class="edge">
<title>function&#45;1&#45;Blt:s&#45;&gt;function&#45;0&#45;Slli</title>
<path fill="none" stroke="black" d="M156,-332C156,-293.21 152.58,-282.37 163,-245 166.1,-233.89 171.52,-222.36 176.69,-212.82"/>
<polygon fill="black" stroke="black" points="176.36,-215.97 178.2,-211 173.66,-213.73 176.36,-215.97"/>
</g>
<!-- function&#45;1&#45;RegVal&#45;&gt;primitive&#45;String&#45;1 -->
<g id="edge25" class="edge">
<title>function&#45;1&#45;RegVal:s&#45;&gt;primitive&#45;String&#45;1</title>
<path fill="none" stroke="black" d="M259,-174C259,-160.83 259.46,-146.1 259.93,-134.3"/>
<polygon fill="black" stroke="black" points="261.42,-137.14 260.15,-132 257.94,-136.81 261.42,-137.14"/>
</g>
<!-- function&#45;0&#45;Slli&#45;&gt;function&#45;0&#45;ImmVal -->
<g id="edge16" class="edge">
<title>function&#45;0&#45;Slli:s&#45;&gt;function&#45;0&#45;ImmVal</title>
<path fill="none" stroke="black" d="M198,-174C198,-167.61 172.62,-149.69 149.6,-134.75"/>
<polygon fill="black" stroke="black" points="150.48,-133.24 145.33,-132 148.58,-136.18 150.48,-133.24"/>
</g>
<!-- function&#45;0&#45;Slli&#45;&gt;function&#45;0&#45;RegVal -->
<g id="edge15" class="edge">
<title>function&#45;0&#45;Slli:s&#45;&gt;function&#45;0&#45;RegVal</title>
<path fill="none" stroke="black" d="M182,-174C182,-160.82 182.68,-146.09 183.4,-134.29"/>
<polygon fill="black" stroke="black" points="184.75,-137.2 183.73,-132 181.29,-136.7 184.75,-137.2"/>
</g>
<!-- function&#45;0&#45;Bge&#45;&gt;function&#45;1&#45;ImmVal -->
<g id="edge11" class="edge">
<title>function&#45;0&#45;Bge:s&#45;&gt;function&#45;1&#45;ImmVal</title>
<path fill="none" stroke="black" d="M108,-332C108,-298.69 60.31,-322.04 44,-293 30.19,-268.41 33.95,-234.95 38.76,-213.16"/>
<polygon fill="black" stroke="black" points="39.09,-216.23 39.93,-211 36.01,-214.57 39.09,-216.23"/>
</g>
<!-- function&#45;0&#45;Bge&#45;&gt;function&#45;1&#45;RegVal -->
<g id="edge10" class="edge">
<title>function&#45;0&#45;Bge:s&#45;&gt;function&#45;1&#45;RegVal</title>
<path fill="none" stroke="black" d="M99,-332C99,-310.4 118.38,-312.34 128,-293 137.9,-273.1 127.01,-261.41 142,-245 167.44,-217.15 187.29,-230.92 221,-214 221.35,-213.82 221.71,-213.64 222.06,-213.46"/>
<polygon fill="black" stroke="black" points="223.1,-214.89 226.69,-211 221.46,-211.8 223.1,-214.89"/>
</g>
<!-- function&#45;0&#45;Bge&#45;&gt;function&#45;0&#45;Slli -->
<g id="edge9" class="edge">
<title>function&#45;0&#45;Bge:s&#45;&gt;function&#45;0&#45;Slli</title>
<path fill="none" stroke="black" d="M85,-332C85,-309.58 106.35,-312.73 117,-293 127.62,-273.33 120.09,-263.91 132,-245 139.97,-232.35 151.62,-220.71 162.39,-211.5"/>
<polygon fill="black" stroke="black" points="159.76,-214.93 163.31,-211 158.09,-211.86 159.76,-214.93"/>
</g>
<!-- function&#45;0&#45;Seq2&#45;&gt;function&#45;0&#45;Jal -->
<g id="edge13" class="edge">
<title>function&#45;0&#45;Seq2:s&#45;&gt;function&#45;0&#45;Jal</title>
<path fill="none" stroke="black" d="M221,-332C221,-320.72 157.99,-295.92 118.07,-281.33"/>
<polygon fill="black" stroke="black" points="120.96,-281.47 116,-279.61 118.72,-284.15 120.96,-281.47"/>
</g>
<!-- function&#45;0&#45;Seq2&#45;&gt;function&#45;0&#45;Blt -->
<g id="edge12" class="edge">
<title>function&#45;0&#45;Seq2:s&#45;&gt;function&#45;0&#45;Blt</title>
<path fill="none" stroke="black" d="M199,-332C199,-266.55 281.37,-319.97 341,-293 341.5,-292.77 342,-292.54 342.51,-292.3"/>
<polygon fill="black" stroke="black" points="343.37,-293.83 347.03,-290 341.78,-290.71 343.37,-293.83"/>
</g>
<!-- function&#45;0&#45;Blt&#45;&gt;function&#45;2&#45;ImmVal -->
<g id="edge28" class="edge">
<title>function&#45;0&#45;Blt:s&#45;&gt;function&#45;2&#45;ImmVal</title>
<path fill="none" stroke="black" d="M387,-253C387,-214.17 390.71,-203.02 379,-166 375.38,-154.56 369.07,-142.89 363.09,-133.34"/>
<polygon fill="black" stroke="black" points="366.39,-133.69 361.37,-132 364.24,-136.45 366.39,-133.69"/>
</g>
<!-- function&#45;0&#45;Blt&#45;&gt;function&#45;1&#45;RegVal -->
<g id="edge27" class="edge">
<title>function&#45;0&#45;Blt:s&#45;&gt;function&#45;1&#45;RegVal</title>
<path fill="none" stroke="black" d="M380,-253C380,-243.02 327.48,-219.45 291.36,-204.42"/>
<polygon fill="black" stroke="black" points="295.09,-204.92 290,-203.44 293.06,-207.77 295.09,-204.92"/>
</g>
<!-- function&#45;0&#45;Blt&#45;&gt;function&#45;0&#45;Slli -->
<g id="edge26" class="edge">
<title>function&#45;0&#45;Blt:s&#45;&gt;function&#45;0&#45;Slli</title>
<path fill="none" stroke="black" d="M368,-253C368,-187.12 285.12,-240.94 225,-214 224.5,-213.77 223.99,-213.54 223.49,-213.3"/>
<polygon fill="black" stroke="black" points="224.19,-211.7 218.94,-211 222.61,-214.82 224.19,-211.7"/>
</g>
<!-- function&#45;0&#45;RegVal&#45;&gt;primitive&#45;String&#45;0 -->
<g id="edge14" class="edge">
<title>function&#45;0&#45;RegVal:s&#45;&gt;primitive&#45;String&#45;0</title>
<path fill="none" stroke="black" d="M186,-95C186,-81.84 186,-67.11 186,-55.3"/>
<polygon fill="black" stroke="black" points="187.75,-58 186,-53 184.25,-58 187.75,-58"/>
</g>
<!-- function&#45;2&#45;Blt&#45;&gt;function&#45;2&#45;ImmVal -->
<g id="edge19" class="edge">
<title>function&#45;2&#45;Blt:s&#45;&gt;function&#45;2&#45;ImmVal</title>
<path fill="none" stroke="black" d="M205,-253C205,-211.03 263.2,-245.44 291,-214 305.8,-197.26 295.64,-185.8 306,-166 312.07,-154.4 320.7,-142.77 328.56,-133.3"/>
<polygon fill="black" stroke="black" points="327.55,-136.76 329.87,-132 325.09,-134.27 327.55,-136.76"/>
</g>
<!-- function&#45;2&#45;Blt&#45;&gt;function&#45;1&#45;RegVal -->
<g id="edge17" class="edge">
<title>function&#45;2&#45;Blt:s&#45;&gt;function&#45;1&#45;RegVal</title>
<path fill="none" stroke="black" d="M186,-253C186,-241.65 206.8,-224.59 226.04,-211.24"/>
<polygon fill="black" stroke="black" points="222.76,-213.6 227.37,-211 222.14,-210.16 222.76,-213.6"/>
</g>
<!-- function&#45;2&#45;Blt&#45;&gt;function&#45;0&#45;Slli -->
<g id="edge18" class="edge">
<title>function&#45;2&#45;Blt:s&#45;&gt;function&#45;0&#45;Slli</title>
<path fill="none" stroke="black" d="M198,-253C198,-239.73 196.17,-224.99 194.27,-213.22"/>
<polygon fill="black" stroke="black" points="196.86,-215.01 193.39,-211 193.6,-216.29 196.86,-215.01"/>
</g>
<!-- function&#45;2&#45;Bge&#45;&gt;function&#45;2&#45;ImmVal -->
<g id="edge22" class="edge">
<title>function&#45;2&#45;Bge:s&#45;&gt;function&#45;2&#45;ImmVal</title>
<path fill="none" stroke="black" d="M266,-253C266,-229.41 290.19,-234.42 302,-214 313.19,-194.65 308.05,-186.48 317,-166 321.88,-154.83 328.47,-143.03 334.33,-133.32"/>
<polygon fill="black" stroke="black" points="333.16,-136.5 335.95,-132 330.96,-133.78 333.16,-136.5"/>
</g>
<!-- function&#45;2&#45;Bge&#45;&gt;function&#45;1&#45;RegVal -->
<g id="edge21" class="edge">
<title>function&#45;2&#45;Bge:s&#45;&gt;function&#45;1&#45;RegVal</title>
<path fill="none" stroke="black" d="M257,-253C257,-239.84 257.23,-225.1 257.47,-213.3"/>
<polygon fill="black" stroke="black" points="259.09,-216.08 257.58,-211 255.59,-215.91 259.09,-216.08"/>
</g>
<!-- function&#45;2&#45;Bge&#45;&gt;function&#45;0&#45;Slli -->
<g id="edge20" class="edge">
<title>function&#45;2&#45;Bge:s&#45;&gt;function&#45;0&#45;Slli</title>
<path fill="none" stroke="black" d="M243,-253C243,-236.59 232.14,-222.33 220.25,-211.64"/>
<polygon fill="black" stroke="black" points="224.38,-212.08 219.19,-211 222.57,-215.08 224.38,-212.08"/>
</g>
<!-- function&#45;2&#45;Seq2&#45;&gt;function&#45;1&#45;Jal -->
<g id="edge24" class="edge">
<title>function&#45;2&#45;Seq2:s&#45;&gt;function&#45;1&#45;Jal</title>
<path fill="none" stroke="black" d="M321,-253C321,-238.7 327.11,-223.97 333.52,-212.45"/>
<polygon fill="black" stroke="black" points="332.62,-215.69 335.08,-211 330.23,-213.14 332.62,-215.69"/>
</g>
<!-- function&#45;2&#45;Seq2&#45;&gt;function&#45;1&#45;Seq2 -->
<g id="edge23" class="edge">
<title>function&#45;2&#45;Seq2:s&#45;&gt;function&#45;1&#45;Seq2</title>
<path fill="none" stroke="black" d="M299,-253C299,-178.07 421.84,-204.55 459,-223.5 468.53,-228.36 475.96,-237.41 481.33,-246.17"/>
<polygon fill="black" stroke="black" points="478.37,-245.62 483.1,-248 480.88,-243.19 478.37,-245.62"/>
</g>
<!-- function&#45;1&#45;Seq2&#45;&gt;function&#45;1&#45;Jal -->
<g id="edge33" class="edge">
<title>function&#45;1&#45;Seq2:s&#45;&gt;function&#45;1&#45;Jal</title>
<path fill="none" stroke="black" d="M503,-253C503,-200.67 425.91,-191.32 380.46,-190.35"/>
<polygon fill="black" stroke="black" points="383.05,-188.68 378,-190.27 382.94,-192.17 383.05,-188.68"/>
</g>
<!-- function&#45;1&#45;Seq2&#45;&gt;function&#45;2&#45;Blt -->
<g id="edge32" class="edge">
<title>function&#45;1&#45;Seq2:s&#45;&gt;function&#45;2&#45;Blt</title>
<path fill="none" stroke="black" d="M481,-253C481,-236.64 473.62,-230.83 459,-223.5 412.92,-200.38 272.93,-200.08 227,-223.5 217.47,-228.36 210.04,-237.41 204.67,-246.17"/>
<polygon fill="black" stroke="black" points="205.12,-243.19 202.9,-248 207.63,-245.62 205.12,-243.19"/>
</g>
<!-- function&#45;1&#45;Bge&#45;&gt;function&#45;2&#45;ImmVal -->
<g id="edge31" class="edge">
<title>function&#45;1&#45;Bge:s&#45;&gt;function&#45;2&#45;ImmVal</title>
<path fill="none" stroke="black" d="M448,-253C448,-202.45 404.71,-157.38 375.09,-132.46"/>
<polygon fill="black" stroke="black" points="379.44,-132.72 374.19,-132 377.85,-135.84 379.44,-132.72"/>
</g>
<!-- function&#45;1&#45;Bge&#45;&gt;function&#45;1&#45;RegVal -->
<g id="edge29" class="edge">
<title>function&#45;1&#45;Bge:s&#45;&gt;function&#45;1&#45;RegVal</title>
<path fill="none" stroke="black" d="M425,-253C425,-201.97 364.78,-231.92 317,-214 308.82,-210.93 300.03,-207.55 291.79,-204.35"/>
<polygon fill="black" stroke="black" points="295.23,-204.21 290,-203.38 293.57,-207.29 295.23,-204.21"/>
</g>
<!-- function&#45;1&#45;Bge&#45;&gt;function&#45;0&#45;Slli -->
<g id="edge30" class="edge">
<title>function&#45;1&#45;Bge:s&#45;&gt;function&#45;0&#45;Slli</title>
<path fill="none" stroke="black" d="M439,-253C439,-204.66 269.95,-231.79 225,-214 224.45,-213.78 223.9,-213.56 223.35,-213.32"/>
<polygon fill="black" stroke="black" points="223.7,-211.55 218.44,-211 222.21,-214.72 223.7,-211.55"/>
</g>
<!-- function&#45;0&#45;ImmVal -->
<g id="node1" class="node">
<title>function&#45;0&#45;ImmVal</title>
<g id="a_node1"><a xlink:title="Imm&#45;2: function&#45;0&#45;ImmVal">
<path fill="white" stroke="transparent" d="M92.67,-95C92.67,-95 133.33,-95 133.33,-95 138.67,-95 144,-100.33 144,-105.67 144,-105.67 144,-116.33 144,-116.33 144,-121.67 138.67,-127 133.33,-127 133.33,-127 92.67,-127 92.67,-127 87.33,-127 82,-121.67 82,-116.33 82,-116.33 82,-105.67 82,-105.67 82,-100.33 87.33,-95 92.67,-95"/>
<text text-anchor="start" x="87" y="-107.3" font-family="Helvetica,sans-Serif" font-size="14.00">ImmVal</text>
<path fill="none" stroke="black" d="M92.67,-95C92.67,-95 133.33,-95 133.33,-95 138.67,-95 144,-100.33 144,-105.67 144,-105.67 144,-116.33 144,-116.33 144,-121.67 138.67,-127 133.33,-127 133.33,-127 92.67,-127 92.67,-127 87.33,-127 82,-121.67 82,-116.33 82,-116.33 82,-105.67 82,-105.67 82,-100.33 87.33,-95 92.67,-95"/>
</a>
</g>
</g>
<!-- primitive&#45;i64&#45;8 -->
<g id="node2" class="node">
<title>primitive&#45;i64&#45;8</title>
<g id="a_node2"><a xlink:title="i64&#45;8: primitive&#45;i64&#45;8">
<path fill="white" stroke="transparent" d="M107.67,-16C107.67,-16 118.33,-16 118.33,-16 123.67,-16 129,-21.33 129,-26.67 129,-26.67 129,-37.33 129,-37.33 129,-42.67 123.67,-48 118.33,-48 118.33,-48 107.67,-48 107.67,-48 102.33,-48 97,-42.67 97,-37.33 97,-37.33 97,-26.67 97,-26.67 97,-21.33 102.33,-16 107.67,-16"/>
<text text-anchor="start" x="108" y="-28.3" font-family="Helvetica,sans-Serif" font-size="14.00">8</text>
<path fill="none" stroke="black" d="M107.67,-16C107.67,-16 118.33,-16 118.33,-16 123.67,-16 129,-21.33 129,-26.67 129,-26.67 129,-37.33 129,-37.33 129,-42.67 123.67,-48 118.33,-48 118.33,-48 107.67,-48 107.67,-48 102.33,-48 97,-42.67 97,-37.33 97,-37.33 97,-26.67 97,-26.67 97,-21.33 102.33,-16 107.67,-16"/>
</a>
</g>
</g>
<!-- function&#45;1&#45;ImmVal -->
<g id="node3" class="node">
<title>function&#45;1&#45;ImmVal</title>
<g id="a_node3"><a xlink:title="Imm&#45;4: function&#45;1&#45;ImmVal">
<path fill="white" stroke="transparent" d="M24.67,-174C24.67,-174 65.33,-174 65.33,-174 70.67,-174 76,-179.33 76,-184.67 76,-184.67 76,-195.33 76,-195.33 76,-200.67 70.67,-206 65.33,-206 65.33,-206 24.67,-206 24.67,-206 19.33,-206 14,-200.67 14,-195.33 14,-195.33 14,-184.67 14,-184.67 14,-179.33 19.33,-174 24.67,-174"/>
<text text-anchor="start" x="19" y="-186.3" font-family="Helvetica,sans-Serif" font-size="14.00">ImmVal</text>
<path fill="none" stroke="black" d="M24.67,-174C24.67,-174 65.33,-174 65.33,-174 70.67,-174 76,-179.33 76,-184.67 76,-184.67 76,-195.33 76,-195.33 76,-200.67 70.67,-206 65.33,-206 65.33,-206 24.67,-206 24.67,-206 19.33,-206 14,-200.67 14,-195.33 14,-195.33 14,-184.67 14,-184.67 14,-179.33 19.33,-174 24.67,-174"/>
</a>
</g>
</g>
<!-- primitive&#45;i64&#45;0 -->
<g id="node4" class="node">
<title>primitive&#45;i64&#45;0</title>
<g id="a_node4"><a xlink:title="i64&#45;0: primitive&#45;i64&#45;0">
<path fill="white" stroke="transparent" d="M37.67,-95C37.67,-95 48.33,-95 48.33,-95 53.67,-95 59,-100.33 59,-105.67 59,-105.67 59,-116.33 59,-116.33 59,-121.67 53.67,-127 48.33,-127 48.33,-127 37.67,-127 37.67,-127 32.33,-127 27,-121.67 27,-116.33 27,-116.33 27,-105.67 27,-105.67 27,-100.33 32.33,-95 37.67,-95"/>
<text text-anchor="start" x="38" y="-107.3" font-family="Helvetica,sans-Serif" font-size="14.00">0</text>
<path fill="none" stroke="black" d="M37.67,-95C37.67,-95 48.33,-95 48.33,-95 53.67,-95 59,-100.33 59,-105.67 59,-105.67 59,-116.33 59,-116.33 59,-121.67 53.67,-127 48.33,-127 48.33,-127 37.67,-127 37.67,-127 32.33,-127 27,-121.67 27,-116.33 27,-116.33 27,-105.67 27,-105.67 27,-100.33 32.33,-95 37.67,-95"/>
</a>
</g>
</g>
<!-- function&#45;2&#45;ImmVal -->
<g id="node5" class="node">
<title>function&#45;2&#45;ImmVal</title>
<g id="a_node5"><a xlink:title="Imm&#45;6: function&#45;2&#45;ImmVal">
<path fill="white" stroke="transparent" d="M327.67,-95C327.67,-95 368.33,-95 368.33,-95 373.67,-95 379,-100.33 379,-105.67 379,-105.67 379,-116.33 379,-116.33 379,-121.67 373.67,-127 368.33,-127 368.33,-127 327.67,-127 327.67,-127 322.33,-127 317,-121.67 317,-116.33 317,-116.33 317,-105.67 317,-105.67 317,-100.33 322.33,-95 327.67,-95"/>
<text text-anchor="start" x="322" y="-107.3" font-family="Helvetica,sans-Serif" font-size="14.00">ImmVal</text>
<path fill="none" stroke="black" d="M327.67,-95C327.67,-95 368.33,-95 368.33,-95 373.67,-95 379,-100.33 379,-105.67 379,-105.67 379,-116.33 379,-116.33 379,-121.67 373.67,-127 368.33,-127 368.33,-127 327.67,-127 327.67,-127 322.33,-127 317,-121.67 317,-116.33 317,-116.33 317,-105.67 317,-105.67 317,-100.33 322.33,-95 327.67,-95"/>
</a>
</g>
</g>
<!-- primitive&#45;i64&#45;4 -->
<g id="node6" class="node">
<title>primitive&#45;i64&#45;4</title>
<g id="a_node6"><a xlink:title="i64&#45;4: primitive&#45;i64&#45;4">
<path fill="white" stroke="transparent" d="M342.67,-16C342.67,-16 353.33,-16 353.33,-16 358.67,-16 364,-21.33 364,-26.67 364,-26.67 364,-37.33 364,-37.33 364,-42.67 358.67,-48 353.33,-48 353.33,-48 342.67,-48 342.67,-48 337.33,-48 332,-42.67 332,-37.33 332,-37.33 332,-26.67 332,-26.67 332,-21.33 337.33,-16 342.67,-16"/>
<text text-anchor="start" x="343" y="-28.3" font-family="Helvetica,sans-Serif" font-size="14.00">4</text>
<path fill="none" stroke="black" d="M342.67,-16C342.67,-16 353.33,-16 353.33,-16 358.67,-16 364,-21.33 364,-26.67 364,-26.67 364,-37.33 364,-37.33 364,-42.67 358.67,-48 353.33,-48 353.33,-48 342.67,-48 342.67,-48 337.33,-48 332,-42.67 332,-37.33 332,-37.33 332,-26.67 332,-26.67 332,-21.33 337.33,-16 342.67,-16"/>
</a>
</g>
</g>
<!-- function&#45;1&#45;Jal -->
<g id="node7" class="node">
<title>function&#45;1&#45;Jal</title>
<g id="a_node7"><a xlink:title="Inst&#45;10: function&#45;1&#45;Jal">
<path fill="white" stroke="transparent" d="M342.67,-174C342.67,-174 353.33,-174 353.33,-174 358.67,-174 364,-179.33 364,-184.67 364,-184.67 364,-195.33 364,-195.33 364,-200.67 358.67,-206 353.33,-206 353.33,-206 342.67,-206 342.67,-206 337.33,-206 332,-200.67 332,-195.33 332,-195.33 332,-184.67 332,-184.67 332,-179.33 337.33,-174 342.67,-174"/>
<text text-anchor="start" x="339.5" y="-186.3" font-family="Helvetica,sans-Serif" font-size="14.00">Jal</text>
<path fill="none" stroke="black" d="M342.67,-174C342.67,-174 353.33,-174 353.33,-174 358.67,-174 364,-179.33 364,-184.67 364,-184.67 364,-195.33 364,-195.33 364,-200.67 358.67,-206 353.33,-206 353.33,-206 342.67,-206 342.67,-206 337.33,-206 332,-200.67 332,-195.33 332,-195.33 332,-184.67 332,-184.67 332,-179.33 337.33,-174 342.67,-174"/>
</a>
</g>
</g>
<!-- function&#45;0&#45;Jal -->
<g id="node8" class="node">
<title>function&#45;0&#45;Jal</title>
<g id="a_node8"><a xlink:title="Inst&#45;8: function&#45;0&#45;Jal">
<path fill="white" stroke="transparent" d="M80.67,-253C80.67,-253 91.33,-253 91.33,-253 96.67,-253 102,-258.33 102,-263.67 102,-263.67 102,-274.33 102,-274.33 102,-279.67 96.67,-285 91.33,-285 91.33,-285 80.67,-285 80.67,-285 75.33,-285 70,-279.67 70,-274.33 70,-274.33 70,-263.67 70,-263.67 70,-258.33 75.33,-253 80.67,-253"/>
<text text-anchor="start" x="77.5" y="-265.3" font-family="Helvetica,sans-Serif" font-size="14.00">Jal</text>
<path fill="none" stroke="black" d="M80.67,-253C80.67,-253 91.33,-253 91.33,-253 96.67,-253 102,-258.33 102,-263.67 102,-263.67 102,-274.33 102,-274.33 102,-279.67 96.67,-285 91.33,-285 91.33,-285 80.67,-285 80.67,-285 75.33,-285 70,-279.67 70,-274.33 70,-274.33 70,-263.67 70,-263.67 70,-258.33 75.33,-253 80.67,-253"/>
</a>
</g>
</g>
<!-- function&#45;1&#45;Blt -->
<g id="node9" class="node">
<title>function&#45;1&#45;Blt</title>
<g id="a_node9"><a xlink:title="Inst&#45;5: function&#45;1&#45;Blt">
<path fill="white" stroke="transparent" d="M146.67,-332C146.67,-332 157.33,-332 157.33,-332 162.67,-332 168,-337.33 168,-342.67 168,-342.67 168,-353.33 168,-353.33 168,-358.67 162.67,-364 157.33,-364 157.33,-364 146.67,-364 146.67,-364 141.33,-364 136,-358.67 136,-353.33 136,-353.33 136,-342.67 136,-342.67 136,-337.33 141.33,-332 146.67,-332"/>
<text text-anchor="start" x="142.5" y="-344.3" font-family="Helvetica,sans-Serif" font-size="14.00">Blt</text>
<path fill="none" stroke="black" d="M146.67,-332C146.67,-332 157.33,-332 157.33,-332 162.67,-332 168,-337.33 168,-342.67 168,-342.67 168,-353.33 168,-353.33 168,-358.67 162.67,-364 157.33,-364 157.33,-364 146.67,-364 146.67,-364 141.33,-364 136,-358.67 136,-353.33 136,-353.33 136,-342.67 136,-342.67 136,-337.33 141.33,-332 146.67,-332"/>
</a>
</g>
</g>
<!-- function&#45;1&#45;RegVal -->
<g id="node10" class="node">
<title>function&#45;1&#45;RegVal</title>
<g id="a_node10"><a xlink:title="Inst&#45;1: function&#45;1&#45;RegVal">
<path fill="white" stroke="transparent" d="M240.17,-174C240.17,-174 275.83,-174 275.83,-174 281.17,-174 286.5,-179.33 286.5,-184.67 286.5,-184.67 286.5,-195.33 286.5,-195.33 286.5,-200.67 281.17,-206 275.83,-206 275.83,-206 240.17,-206 240.17,-206 234.83,-206 229.5,-200.67 229.5,-195.33 229.5,-195.33 229.5,-184.67 229.5,-184.67 229.5,-179.33 234.83,-174 240.17,-174"/>
<text text-anchor="start" x="235" y="-186.3" font-family="Helvetica,sans-Serif" font-size="14.00">RegVal</text>
<path fill="none" stroke="black" d="M240.17,-174C240.17,-174 275.83,-174 275.83,-174 281.17,-174 286.5,-179.33 286.5,-184.67 286.5,-184.67 286.5,-195.33 286.5,-195.33 286.5,-200.67 281.17,-206 275.83,-206 275.83,-206 240.17,-206 240.17,-206 234.83,-206 229.5,-200.67 229.5,-195.33 229.5,-195.33 229.5,-184.67 229.5,-184.67 229.5,-179.33 234.83,-174 240.17,-174"/>
</a>
</g>
</g>
<!-- function&#45;0&#45;Slli -->
<g id="node11" class="node">
<title>function&#45;0&#45;Slli</title>
<g id="a_node11"><a xlink:title="Inst&#45;3: function&#45;0&#45;Slli">
<path fill="white" stroke="transparent" d="M184.67,-174C184.67,-174 195.33,-174 195.33,-174 200.67,-174 206,-179.33 206,-184.67 206,-184.67 206,-195.33 206,-195.33 206,-200.67 200.67,-206 195.33,-206 195.33,-206 184.67,-206 184.67,-206 179.33,-206 174,-200.67 174,-195.33 174,-195.33 174,-184.67 174,-184.67 174,-179.33 179.33,-174 184.67,-174"/>
<text text-anchor="start" x="179.5" y="-186.3" font-family="Helvetica,sans-Serif" font-size="14.00">Slli</text>
<path fill="none" stroke="black" d="M184.67,-174C184.67,-174 195.33,-174 195.33,-174 200.67,-174 206,-179.33 206,-184.67 206,-184.67 206,-195.33 206,-195.33 206,-200.67 200.67,-206 195.33,-206 195.33,-206 184.67,-206 184.67,-206 179.33,-206 174,-200.67 174,-195.33 174,-195.33 174,-184.67 174,-184.67 174,-179.33 179.33,-174 184.67,-174"/>
</a>
</g>
</g>
<!-- function&#45;0&#45;Bge -->
<g id="node12" class="node">
<title>function&#45;0&#45;Bge</title>
<g id="a_node12"><a xlink:title="Inst&#45;5: function&#45;0&#45;Bge">
<path fill="white" stroke="transparent" d="M85.67,-332C85.67,-332 102.33,-332 102.33,-332 107.67,-332 113,-337.33 113,-342.67 113,-342.67 113,-353.33 113,-353.33 113,-358.67 107.67,-364 102.33,-364 102.33,-364 85.67,-364 85.67,-364 80.33,-364 75,-358.67 75,-353.33 75,-353.33 75,-342.67 75,-342.67 75,-337.33 80.33,-332 85.67,-332"/>
<text text-anchor="start" x="80" y="-344.3" font-family="Helvetica,sans-Serif" font-size="14.00">Bge</text>
<path fill="none" stroke="black" d="M85.67,-332C85.67,-332 102.33,-332 102.33,-332 107.67,-332 113,-337.33 113,-342.67 113,-342.67 113,-353.33 113,-353.33 113,-358.67 107.67,-364 102.33,-364 102.33,-364 85.67,-364 85.67,-364 80.33,-364 75,-358.67 75,-353.33 75,-353.33 75,-342.67 75,-342.67 75,-337.33 80.33,-332 85.67,-332"/>
</a>
</g>
</g>
<!-- function&#45;0&#45;Seq2 -->
<g id="node13" class="node">
<title>function&#45;0&#45;Seq2</title>
<g id="a_node13"><a xlink:title="Inst&#45;5: function&#45;0&#45;Seq2">
<path fill="white" stroke="transparent" d="M197.67,-332C197.67,-332 222.33,-332 222.33,-332 227.67,-332 233,-337.33 233,-342.67 233,-342.67 233,-353.33 233,-353.33 233,-358.67 227.67,-364 222.33,-364 222.33,-364 197.67,-364 197.67,-364 192.33,-364 187,-358.67 187,-353.33 187,-353.33 187,-342.67 187,-342.67 187,-337.33 192.33,-332 197.67,-332"/>
<text text-anchor="start" x="192" y="-344.3" font-family="Helvetica,sans-Serif" font-size="14.00">Seq2</text>
<path fill="none" stroke="black" d="M197.67,-332C197.67,-332 222.33,-332 222.33,-332 227.67,-332 233,-337.33 233,-342.67 233,-342.67 233,-353.33 233,-353.33 233,-358.67 227.67,-364 222.33,-364 222.33,-364 197.67,-364 197.67,-364 192.33,-364 187,-358.67 187,-353.33 187,-353.33 187,-342.67 187,-342.67 187,-337.33 192.33,-332 197.67,-332"/>
</a>
</g>
</g>
<!-- function&#45;0&#45;Blt -->
<g id="node14" class="node">
<title>function&#45;0&#45;Blt</title>
<g id="a_node14"><a xlink:title="Inst&#45;7: function&#45;0&#45;Blt">
<path fill="white" stroke="transparent" d="M370.67,-253C370.67,-253 381.33,-253 381.33,-253 386.67,-253 392,-258.33 392,-263.67 392,-263.67 392,-274.33 392,-274.33 392,-279.67 386.67,-285 381.33,-285 381.33,-285 370.67,-285 370.67,-285 365.33,-285 360,-279.67 360,-274.33 360,-274.33 360,-263.67 360,-263.67 360,-258.33 365.33,-253 370.67,-253"/>
<text text-anchor="start" x="366.5" y="-265.3" font-family="Helvetica,sans-Serif" font-size="14.00">Blt</text>
<path fill="none" stroke="black" d="M370.67,-253C370.67,-253 381.33,-253 381.33,-253 386.67,-253 392,-258.33 392,-263.67 392,-263.67 392,-274.33 392,-274.33 392,-279.67 386.67,-285 381.33,-285 381.33,-285 370.67,-285 370.67,-285 365.33,-285 360,-279.67 360,-274.33 360,-274.33 360,-263.67 360,-263.67 360,-258.33 365.33,-253 370.67,-253"/>
</a>
</g>
</g>
<!-- function&#45;0&#45;RegVal -->
<g id="node15" class="node">
<title>function&#45;0&#45;RegVal</title>
<g id="a_node15"><a xlink:title="Inst&#45;0: function&#45;0&#45;RegVal">
<path fill="white" stroke="transparent" d="M167.17,-95C167.17,-95 202.83,-95 202.83,-95 208.17,-95 213.5,-100.33 213.5,-105.67 213.5,-105.67 213.5,-116.33 213.5,-116.33 213.5,-121.67 208.17,-127 202.83,-127 202.83,-127 167.17,-127 167.17,-127 161.83,-127 156.5,-121.67 156.5,-116.33 156.5,-116.33 156.5,-105.67 156.5,-105.67 156.5,-100.33 161.83,-95 167.17,-95"/>
<text text-anchor="start" x="162" y="-107.3" font-family="Helvetica,sans-Serif" font-size="14.00">RegVal</text>
<path fill="none" stroke="black" d="M167.17,-95C167.17,-95 202.83,-95 202.83,-95 208.17,-95 213.5,-100.33 213.5,-105.67 213.5,-105.67 213.5,-116.33 213.5,-116.33 213.5,-121.67 208.17,-127 202.83,-127 202.83,-127 167.17,-127 167.17,-127 161.83,-127 156.5,-121.67 156.5,-116.33 156.5,-116.33 156.5,-105.67 156.5,-105.67 156.5,-100.33 161.83,-95 167.17,-95"/>
</a>
</g>
</g>
<!-- primitive&#45;String&#45;0 -->
<g id="node16" class="node">
<title>primitive&#45;String&#45;0</title>
<g id="a_node16"><a xlink:title="String&#45;0: primitive&#45;String&#45;0">
<path fill="white" stroke="transparent" d="M168.17,-16C168.17,-16 203.83,-16 203.83,-16 209.17,-16 214.5,-21.33 214.5,-26.67 214.5,-26.67 214.5,-37.33 214.5,-37.33 214.5,-42.67 209.17,-48 203.83,-48 203.83,-48 168.17,-48 168.17,-48 162.83,-48 157.5,-42.67 157.5,-37.33 157.5,-37.33 157.5,-26.67 157.5,-26.67 157.5,-21.33 162.83,-16 168.17,-16"/>
<text text-anchor="start" x="163" y="-28.3" font-family="Helvetica,sans-Serif" font-size="14.00">&quot;a5_0&quot;</text>
<path fill="none" stroke="black" d="M168.17,-16C168.17,-16 203.83,-16 203.83,-16 209.17,-16 214.5,-21.33 214.5,-26.67 214.5,-26.67 214.5,-37.33 214.5,-37.33 214.5,-42.67 209.17,-48 203.83,-48 203.83,-48 168.17,-48 168.17,-48 162.83,-48 157.5,-42.67 157.5,-37.33 157.5,-37.33 157.5,-26.67 157.5,-26.67 157.5,-21.33 162.83,-16 168.17,-16"/>
</a>
</g>
</g>
<!-- function&#45;2&#45;Blt -->
<g id="node17" class="node">
<title>function&#45;2&#45;Blt</title>
<g id="a_node17"><a xlink:title="Inst&#45;9: function&#45;2&#45;Blt">
<path fill="white" stroke="transparent" d="M188.67,-253C188.67,-253 199.33,-253 199.33,-253 204.67,-253 210,-258.33 210,-263.67 210,-263.67 210,-274.33 210,-274.33 210,-279.67 204.67,-285 199.33,-285 199.33,-285 188.67,-285 188.67,-285 183.33,-285 178,-279.67 178,-274.33 178,-274.33 178,-263.67 178,-263.67 178,-258.33 183.33,-253 188.67,-253"/>
<text text-anchor="start" x="184.5" y="-265.3" font-family="Helvetica,sans-Serif" font-size="14.00">Blt</text>
<path fill="none" stroke="black" d="M188.67,-253C188.67,-253 199.33,-253 199.33,-253 204.67,-253 210,-258.33 210,-263.67 210,-263.67 210,-274.33 210,-274.33 210,-279.67 204.67,-285 199.33,-285 199.33,-285 188.67,-285 188.67,-285 183.33,-285 178,-279.67 178,-274.33 178,-274.33 178,-263.67 178,-263.67 178,-258.33 183.33,-253 188.67,-253"/>
</a>
</g>
</g>
<!-- function&#45;2&#45;Bge -->
<g id="node18" class="node">
<title>function&#45;2&#45;Bge</title>
<g id="a_node18"><a xlink:title="Inst&#45;9: function&#45;2&#45;Bge">
<path fill="white" stroke="transparent" d="M243.67,-253C243.67,-253 260.33,-253 260.33,-253 265.67,-253 271,-258.33 271,-263.67 271,-263.67 271,-274.33 271,-274.33 271,-279.67 265.67,-285 260.33,-285 260.33,-285 243.67,-285 243.67,-285 238.33,-285 233,-279.67 233,-274.33 233,-274.33 233,-263.67 233,-263.67 233,-258.33 238.33,-253 243.67,-253"/>
<text text-anchor="start" x="238" y="-265.3" font-family="Helvetica,sans-Serif" font-size="14.00">Bge</text>
<path fill="none" stroke="black" d="M243.67,-253C243.67,-253 260.33,-253 260.33,-253 265.67,-253 271,-258.33 271,-263.67 271,-263.67 271,-274.33 271,-274.33 271,-279.67 265.67,-285 260.33,-285 260.33,-285 243.67,-285 243.67,-285 238.33,-285 233,-279.67 233,-274.33 233,-274.33 233,-263.67 233,-263.67 233,-258.33 238.33,-253 243.67,-253"/>
</a>
</g>
</g>
<!-- function&#45;2&#45;Seq2 -->
<g id="node19" class="node">
<title>function&#45;2&#45;Seq2</title>
<g id="a_node19"><a xlink:title="Inst&#45;9: function&#45;2&#45;Seq2">
<path fill="white" stroke="transparent" d="M297.67,-253C297.67,-253 322.33,-253 322.33,-253 327.67,-253 333,-258.33 333,-263.67 333,-263.67 333,-274.33 333,-274.33 333,-279.67 327.67,-285 322.33,-285 322.33,-285 297.67,-285 297.67,-285 292.33,-285 287,-279.67 287,-274.33 287,-274.33 287,-263.67 287,-263.67 287,-258.33 292.33,-253 297.67,-253"/>
<text text-anchor="start" x="292" y="-265.3" font-family="Helvetica,sans-Serif" font-size="14.00">Seq2</text>
<path fill="none" stroke="black" d="M297.67,-253C297.67,-253 322.33,-253 322.33,-253 327.67,-253 333,-258.33 333,-263.67 333,-263.67 333,-274.33 333,-274.33 333,-279.67 327.67,-285 322.33,-285 322.33,-285 297.67,-285 297.67,-285 292.33,-285 287,-279.67 287,-274.33 287,-274.33 287,-263.67 287,-263.67 287,-258.33 292.33,-253 297.67,-253"/>
</a>
</g>
</g>
<!-- function&#45;1&#45;Seq2 -->
<g id="node20" class="node">
<title>function&#45;1&#45;Seq2</title>
<g id="a_node20"><a xlink:title="Inst&#45;7: function&#45;1&#45;Seq2">
<path fill="white" stroke="transparent" d="M479.67,-253C479.67,-253 504.33,-253 504.33,-253 509.67,-253 515,-258.33 515,-263.67 515,-263.67 515,-274.33 515,-274.33 515,-279.67 509.67,-285 504.33,-285 504.33,-285 479.67,-285 479.67,-285 474.33,-285 469,-279.67 469,-274.33 469,-274.33 469,-263.67 469,-263.67 469,-258.33 474.33,-253 479.67,-253"/>
<text text-anchor="start" x="474" y="-265.3" font-family="Helvetica,sans-Serif" font-size="14.00">Seq2</text>
<path fill="none" stroke="black" d="M479.67,-253C479.67,-253 504.33,-253 504.33,-253 509.67,-253 515,-258.33 515,-263.67 515,-263.67 515,-274.33 515,-274.33 515,-279.67 509.67,-285 504.33,-285 504.33,-285 479.67,-285 479.67,-285 474.33,-285 469,-279.67 469,-274.33 469,-274.33 469,-263.67 469,-263.67 469,-258.33 474.33,-253 479.67,-253"/>
</a>
</g>
</g>
<!-- primitive&#45;String&#45;1 -->
<g id="node21" class="node">
<title>primitive&#45;String&#45;1</title>
<g id="a_node21"><a xlink:title="String&#45;1: primitive&#45;String&#45;1">
<path fill="white" stroke="transparent" d="M237.17,-95C237.17,-95 284.83,-95 284.83,-95 290.17,-95 295.5,-100.33 295.5,-105.67 295.5,-105.67 295.5,-116.33 295.5,-116.33 295.5,-121.67 290.17,-127 284.83,-127 284.83,-127 237.17,-127 237.17,-127 231.83,-127 226.5,-121.67 226.5,-116.33 226.5,-116.33 226.5,-105.67 226.5,-105.67 226.5,-100.33 231.83,-95 237.17,-95"/>
<text text-anchor="start" x="232" y="-107.3" font-family="Helvetica,sans-Serif" font-size="14.00">&quot;zero_0&quot;</text>
<path fill="none" stroke="black" d="M237.17,-95C237.17,-95 284.83,-95 284.83,-95 290.17,-95 295.5,-100.33 295.5,-105.67 295.5,-105.67 295.5,-116.33 295.5,-116.33 295.5,-121.67 290.17,-127 284.83,-127 284.83,-127 237.17,-127 237.17,-127 231.83,-127 226.5,-121.67 226.5,-116.33 226.5,-116.33 226.5,-105.67 226.5,-105.67 226.5,-100.33 231.83,-95 237.17,-95"/>
</a>
</g>
</g>
<!-- function&#45;1&#45;Bge -->
<g id="node22" class="node">
<title>function&#45;1&#45;Bge</title>
<g id="a_node22"><a xlink:title="Inst&#45;7: function&#45;1&#45;Bge">
<path fill="white" stroke="transparent" d="M425.67,-253C425.67,-253 442.33,-253 442.33,-253 447.67,-253 453,-258.33 453,-263.67 453,-263.67 453,-274.33 453,-274.33 453,-279.67 447.67,-285 442.33,-285 442.33,-285 425.67,-285 425.67,-285 420.33,-285 415,-279.67 415,-274.33 415,-274.33 415,-263.67 415,-263.67 415,-258.33 420.33,-253 425.67,-253"/>
<text text-anchor="start" x="420" y="-265.3" font-family="Helvetica,sans-Serif" font-size="14.00">Bge</text>
<path fill="none" stroke="black" d="M425.67,-253C425.67,-253 442.33,-253 442.33,-253 447.67,-253 453,-258.33 453,-263.67 453,-263.67 453,-274.33 453,-274.33 453,-279.67 447.67,-285 442.33,-285 442.33,-285 425.67,-285 425.67,-285 420.33,-285 415,-279.67 415,-274.33 415,-274.33 415,-263.67 415,-263.67 415,-258.33 420.33,-253 425.67,-253"/>
</a>
</g>
</g>
</g>
</svg>
