<?xml version="1.0" encoding="UTF-8" standalone="no"?>
<!DOCTYPE svg PUBLIC "-//W3C//DTD SVG 1.1//EN"
 "http://www.w3.org/Graphics/SVG/1.1/DTD/svg11.dtd">
<!-- Generated by graphviz version 2.43.0 (0)
 -->
<!-- Title: %3 Pages: 1 -->
<svg width="615pt" height="388pt"
 viewBox="0.00 0.00 615.00 388.00" xmlns="http://www.w3.org/2000/svg" xmlns:xlink="http://www.w3.org/1999/xlink">
<g id="graph0" class="graph" transform="scale(1 1) rotate(0) translate(4 384)">
<title>%3</title>
<polygon fill="white" stroke="#000000" points="-4,4 -4,-384 611,-384 611,4 -4,4"/>
<g id="clust1" class="cluster">
<title>outer_cluster_Imm&#45;4</title>
</g>
<g id="clust2" class="cluster">
<title>cluster_Imm&#45;4</title>
<path fill="#ffffb3" stroke="black" stroke-dasharray="5,2" d="M23,-90C23,-90 67,-90 67,-90 73,-90 79,-96 79,-102 79,-102 79,-120 79,-120 79,-126 73,-132 67,-132 67,-132 23,-132 23,-132 17,-132 11,-126 11,-120 11,-120 11,-102 11,-102 11,-96 17,-90 23,-90"/>
</g>
<g id="clust4" class="cluster">
<title>outer_cluster_Imm&#45;2</title>
</g>
<g id="clust5" class="cluster">
<title>cluster_Imm&#45;2</title>
<path fill="#ffffb3" stroke="black" stroke-dasharray="5,2" d="M238,-90C238,-90 282,-90 282,-90 288,-90 294,-96 294,-102 294,-102 294,-120 294,-120 294,-126 288,-132 282,-132 282,-132 238,-132 238,-132 232,-132 226,-126 226,-120 226,-120 226,-102 226,-102 226,-96 232,-90 238,-90"/>
</g>
<g id="clust7" class="cluster">
<title>outer_cluster_Imm&#45;6</title>
</g>
<g id="clust8" class="cluster">
<title>cluster_Imm&#45;6</title>
<path fill="#ffffb3" stroke="black" stroke-dasharray="5,2" d="M157,-169C157,-169 201,-169 201,-169 207,-169 213,-175 213,-181 213,-181 213,-199 213,-199 213,-205 207,-211 201,-211 201,-211 157,-211 157,-211 151,-211 145,-205 145,-199 145,-199 145,-181 145,-181 145,-175 151,-169 157,-169"/>
</g>
<g id="clust10" class="cluster">
<title>outer_cluster_Imm&#45;8</title>
</g>
<g id="clust11" class="cluster">
<title>cluster_Imm&#45;8</title>
<path fill="#ffffb3" stroke="black" stroke-dasharray="5,2" d="M435,-90C435,-90 479,-90 479,-90 485,-90 491,-96 491,-102 491,-102 491,-120 491,-120 491,-126 485,-132 479,-132 479,-132 435,-132 435,-132 429,-132 423,-126 423,-120 423,-120 423,-102 423,-102 423,-96 429,-90 435,-90"/>
</g>
<g id="clust13" class="cluster">
<title>outer_cluster_Inst&#45;0</title>
</g>
<g id="clust14" class="cluster">
<title>cluster_Inst&#45;0</title>
<path fill="#bebada" stroke="black" stroke-dasharray="5,2" d="M366,-169C366,-169 406,-169 406,-169 412,-169 418,-175 418,-181 418,-181 418,-199 418,-199 418,-205 412,-211 406,-211 406,-211 366,-211 366,-211 360,-211 354,-205 354,-199 354,-199 354,-181 354,-181 354,-175 360,-169 366,-169"/>
</g>
<g id="clust16" class="cluster">
<title>outer_cluster_Inst&#45;7</title>
</g>
<g id="clust17" class="cluster">
<title>cluster_Inst&#45;7</title>
<path fill="#bebada" stroke="black" stroke-dasharray="5,2" d="M114,-327C114,-327 266,-327 266,-327 272,-327 278,-333 278,-339 278,-339 278,-357 278,-357 278,-363 272,-369 266,-369 266,-369 114,-369 114,-369 108,-369 102,-363 102,-357 102,-357 102,-339 102,-339 102,-333 108,-327 114,-327"/>
</g>
<g id="clust19" class="cluster">
<title>outer_cluster_Inst&#45;10</title>
</g>
<g id="clust20" class="cluster">
<title>cluster_Inst&#45;10</title>
<path fill="#bebada" stroke="black" stroke-dasharray="5,2" d="M120,-248C120,-248 156,-248 156,-248 162,-248 168,-254 168,-260 168,-260 168,-278 168,-278 168,-284 162,-290 156,-290 156,-290 120,-290 120,-290 114,-290 108,-284 108,-278 108,-278 108,-260 108,-260 108,-254 114,-248 120,-248"/>
</g>
<g id="clust22" class="cluster">
<title>outer_cluster_Inst&#45;3</title>
</g>
<g id="clust23" class="cluster">
<title>cluster_Inst&#45;3</title>
<path fill="#bebada" stroke="black" stroke-dasharray="5,2" d="M232,-169C232,-169 268,-169 268,-169 274,-169 280,-175 280,-181 280,-181 280,-199 280,-199 280,-205 274,-211 268,-211 268,-211 232,-211 232,-211 226,-211 220,-205 220,-199 220,-199 220,-181 220,-181 220,-175 226,-169 232,-169"/>
</g>
<g id="clust25" class="cluster">
<title>outer_cluster_Inst&#45;9</title>
</g>
<g id="clust26" class="cluster">
<title>cluster_Inst&#45;9</title>
<path fill="#bebada" stroke="black" stroke-dasharray="5,2" d="M228,-248C228,-248 380,-248 380,-248 386,-248 392,-254 392,-260 392,-260 392,-278 392,-278 392,-284 386,-290 380,-290 380,-290 228,-290 228,-290 222,-290 216,-284 216,-278 216,-278 216,-260 216,-260 216,-254 222,-248 228,-248"/>
</g>
<g id="clust28" class="cluster">
<title>outer_cluster_Inst&#45;1</title>
</g>
<g id="clust29" class="cluster">
<title>cluster_Inst&#45;1</title>
<path fill="#bebada" stroke="black" stroke-dasharray="5,2" d="M97,-90C97,-90 137,-90 137,-90 143,-90 149,-96 149,-102 149,-102 149,-120 149,-120 149,-126 143,-132 137,-132 137,-132 97,-132 97,-132 91,-132 85,-126 85,-120 85,-120 85,-102 85,-102 85,-96 91,-90 97,-90"/>
</g>
<g id="clust31" class="cluster">
<title>outer_cluster_Inst&#45;12</title>
</g>
<g id="clust32" class="cluster">
<title>cluster_Inst&#45;12</title>
<path fill="#bebada" stroke="black" stroke-dasharray="5,2" d="M432,-248C432,-248 584,-248 584,-248 590,-248 596,-254 596,-260 596,-260 596,-278 596,-278 596,-284 590,-290 584,-290 584,-290 432,-290 432,-290 426,-290 420,-284 420,-278 420,-278 420,-260 420,-260 420,-254 426,-248 432,-248"/>
</g>
<g id="clust34" class="cluster">
<title>outer_cluster_Inst&#45;5</title>
</g>
<g id="clust35" class="cluster">
<title>cluster_Inst&#45;5</title>
<path fill="#bebada" stroke="black" stroke-dasharray="5,2" d="M57,-169C57,-169 93,-169 93,-169 99,-169 105,-175 105,-181 105,-181 105,-199 105,-199 105,-205 99,-211 93,-211 93,-211 57,-211 57,-211 51,-211 45,-205 45,-199 45,-199 45,-181 45,-181 45,-175 51,-169 57,-169"/>
</g>
<g id="clust37" class="cluster">
<title>outer_cluster_Inst&#45;13</title>
</g>
<g id="clust38" class="cluster">
<title>cluster_Inst&#45;13</title>
<path fill="#bebada" stroke="black" stroke-dasharray="5,2" d="M436,-169C436,-169 472,-169 472,-169 478,-169 484,-175 484,-181 484,-181 484,-199 484,-199 484,-205 478,-211 472,-211 472,-211 436,-211 436,-211 430,-211 424,-205 424,-199 424,-199 424,-181 424,-181 424,-175 430,-169 436,-169"/>
</g>
<g id="clust40" class="cluster">
<title>outer_cluster_String&#45;0</title>
</g>
<g id="clust41" class="cluster">
<title>cluster_String&#45;0</title>
<path fill="#fb8072" stroke="black" stroke-dasharray="5,2" d="M365,-90C365,-90 405,-90 405,-90 411,-90 417,-96 417,-102 417,-102 417,-120 417,-120 417,-126 411,-132 405,-132 405,-132 365,-132 365,-132 359,-132 353,-126 353,-120 353,-120 353,-102 353,-102 353,-96 359,-90 365,-90"/>
</g>
<g id="clust43" class="cluster">
<title>outer_cluster_String&#45;1</title>
</g>
<g id="clust44" class="cluster">
<title>cluster_String&#45;1</title>
<path fill="#fb8072" stroke="black" stroke-dasharray="5,2" d="M92,-11C92,-11 144,-11 144,-11 150,-11 156,-17 156,-23 156,-23 156,-41 156,-41 156,-47 150,-53 144,-53 144,-53 92,-53 92,-53 86,-53 80,-47 80,-41 80,-41 80,-23 80,-23 80,-17 86,-11 92,-11"/>
</g>
<g id="clust46" class="cluster">
<title>outer_cluster_i64&#45;0</title>
</g>
<g id="clust47" class="cluster">
<title>cluster_i64&#45;0</title>
<path fill="#80b1d3" stroke="black" stroke-dasharray="5,2" d="M167,-90C167,-90 203,-90 203,-90 209,-90 215,-96 215,-102 215,-102 215,-120 215,-120 215,-126 209,-132 203,-132 203,-132 167,-132 167,-132 161,-132 155,-126 155,-120 155,-120 155,-102 155,-102 155,-96 161,-90 167,-90"/>
</g>
<g id="clust49" class="cluster">
<title>outer_cluster_i64&#45;4</title>
</g>
<g id="clust50" class="cluster">
<title>cluster_i64&#45;4</title>
<path fill="#80b1d3" stroke="black" stroke-dasharray="5,2" d="M439,-11C439,-11 475,-11 475,-11 481,-11 487,-17 487,-23 487,-23 487,-41 487,-41 487,-47 481,-53 475,-53 475,-53 439,-53 439,-53 433,-53 427,-47 427,-41 427,-41 427,-23 427,-23 427,-17 433,-11 439,-11"/>
</g>
<g id="clust52" class="cluster">
<title>outer_cluster_i64&#45;32</title>
</g>
<g id="clust53" class="cluster">
<title>cluster_i64&#45;32</title>
<path fill="#80b1d3" stroke="black" stroke-dasharray="5,2" d="M26,-11C26,-11 62,-11 62,-11 68,-11 74,-17 74,-23 74,-23 74,-41 74,-41 74,-47 68,-53 62,-53 62,-53 26,-53 26,-53 20,-53 14,-47 14,-41 14,-41 14,-23 14,-23 14,-17 20,-11 26,-11"/>
</g>
<g id="clust55" class="cluster">
<title>outer_cluster_i64&#45;31</title>
</g>
<g id="clust56" class="cluster">
<title>cluster_i64&#45;31</title>
<path fill="#80b1d3" stroke="black" stroke-dasharray="5,2" d="M242,-11C242,-11 278,-11 278,-11 284,-11 290,-17 290,-23 290,-23 290,-41 290,-41 290,-47 284,-53 278,-53 278,-53 242,-53 242,-53 236,-53 230,-47 230,-41 230,-41 230,-23 230,-23 230,-17 236,-11 242,-11"/>
</g>
<!-- function&#45;1&#45;ImmVal&#45;&gt;primitive&#45;i64&#45;32 -->
<g id="edge1" class="edge">
<title>function&#45;1&#45;ImmVal:s&#45;&gt;primitive&#45;i64&#45;32</title>
<path fill="none" stroke="black" d="M45,-95C45,-81.84 44.77,-67.1 44.53,-55.3"/>
<polygon fill="black" stroke="black" points="46.41,-57.91 44.42,-53 42.91,-58.08 46.41,-57.91"/>
</g>
<!-- function&#45;0&#45;ImmVal&#45;&gt;primitive&#45;i64&#45;31 -->
<g id="edge2" class="edge">
<title>function&#45;0&#45;ImmVal:s&#45;&gt;primitive&#45;i64&#45;31</title>
<path fill="none" stroke="black" d="M260,-95C260,-81.84 260,-67.11 260,-55.3"/>
<polygon fill="black" stroke="black" points="261.75,-58 260,-53 258.25,-58 261.75,-58"/>
</g>
<!-- function&#45;2&#45;ImmVal&#45;&gt;primitive&#45;i64&#45;0 -->
<g id="edge3" class="edge">
<title>function&#45;2&#45;ImmVal:s&#45;&gt;primitive&#45;i64&#45;0</title>
<path fill="none" stroke="black" d="M179,-174C179,-160.78 180.37,-146.04 181.8,-134.25"/>
<polygon fill="black" stroke="black" points="182.74,-137.29 182.46,-132 179.38,-136.31 182.74,-137.29"/>
</g>
<!-- function&#45;3&#45;ImmVal&#45;&gt;primitive&#45;i64&#45;4 -->
<g id="edge4" class="edge">
<title>function&#45;3&#45;ImmVal:s&#45;&gt;primitive&#45;i64&#45;4</title>
<path fill="none" stroke="black" d="M457,-95C457,-81.84 457,-67.11 457,-55.3"/>
<polygon fill="black" stroke="black" points="458.75,-58 457,-53 455.25,-58 458.75,-58"/>
</g>
<!-- function&#45;0&#45;RegVal&#45;&gt;primitive&#45;String&#45;0 -->
<g id="edge5" class="edge">
<title>function&#45;0&#45;RegVal:s&#45;&gt;primitive&#45;String&#45;0</title>
<path fill="none" stroke="black" d="M387,-174C387,-160.83 386.54,-146.1 386.07,-134.3"/>
<polygon fill="black" stroke="black" points="388.06,-136.81 385.85,-132 384.58,-137.14 388.06,-136.81"/>
</g>
<!-- function&#45;0&#45;Blt&#45;&gt;function&#45;2&#45;ImmVal -->
<g id="edge8" class="edge">
<title>function&#45;0&#45;Blt:s&#45;&gt;function&#45;2&#45;ImmVal</title>
<path fill="none" stroke="black" d="M201,-332C201,-313.09 188.31,-311.41 184,-293 177.7,-266.11 177.22,-234.17 177.8,-213.29"/>
<polygon fill="black" stroke="black" points="179.35,-216.12 177.97,-211 175.86,-215.86 179.35,-216.12"/>
</g>
<!-- function&#45;0&#45;Blt&#45;&gt;function&#45;0&#45;RegVal -->
<g id="edge7" class="edge">
<title>function&#45;0&#45;Blt:s&#45;&gt;function&#45;0&#45;RegVal</title>
<path fill="none" stroke="black" d="M194,-332C194,-241.87 335.2,-362.15 393,-293 411.52,-270.84 403.67,-235.65 395.49,-212.94"/>
<polygon fill="black" stroke="black" points="398.25,-214.88 394.64,-211 395.05,-216.28 398.25,-214.88"/>
</g>
<!-- function&#45;0&#45;Blt&#45;&gt;function&#45;0&#45;Addi -->
<g id="edge6" class="edge">
<title>function&#45;0&#45;Blt:s&#45;&gt;function&#45;0&#45;Addi</title>
<path fill="none" stroke="black" d="M182,-332C182,-291.64 189.52,-280.88 208,-245 214,-233.36 222.62,-221.73 230.49,-212.26"/>
<polygon fill="black" stroke="black" points="229.41,-215.72 231.81,-211 226.99,-213.19 229.41,-215.72"/>
</g>
<!-- function&#45;0&#45;Addi&#45;&gt;function&#45;0&#45;ImmVal -->
<g id="edge16" class="edge">
<title>function&#45;0&#45;Addi:s&#45;&gt;function&#45;0&#45;ImmVal</title>
<path fill="none" stroke="black" d="M260,-174C260,-160.84 260,-146.11 260,-134.3"/>
<polygon fill="black" stroke="black" points="261.75,-137 260,-132 258.25,-137 261.75,-137"/>
</g>
<!-- function&#45;0&#45;Addi&#45;&gt;function&#45;1&#45;RegVal -->
<g id="edge15" class="edge">
<title>function&#45;0&#45;Addi:s&#45;&gt;function&#45;1&#45;RegVal</title>
<path fill="none" stroke="black" d="M240,-174C240,-132.03 191.01,-154.79 154,-135 153.66,-134.82 153.33,-134.64 152.99,-134.46"/>
<polygon fill="black" stroke="black" points="153.79,-132.9 148.57,-132 152.09,-135.96 153.79,-132.9"/>
</g>
<!-- function&#45;0&#45;Bge&#45;&gt;function&#45;2&#45;ImmVal -->
<g id="edge11" class="edge">
<title>function&#45;0&#45;Bge:s&#45;&gt;function&#45;2&#45;ImmVal</title>
<path fill="none" stroke="black" d="M262,-332C262,-304.86 230.52,-315.27 215,-293 197.9,-268.47 188.15,-234.99 183.21,-213.19"/>
<polygon fill="black" stroke="black" points="185.92,-214.69 182.12,-211 182.79,-216.25 185.92,-214.69"/>
</g>
<!-- function&#45;0&#45;Bge&#45;&gt;function&#45;0&#45;RegVal -->
<g id="edge9" class="edge">
<title>function&#45;0&#45;Bge:s&#45;&gt;function&#45;0&#45;RegVal</title>
<path fill="none" stroke="black" d="M239,-332C239,-256.65 357.24,-352.09 404,-293 422.12,-270.09 410,-235.19 398.72,-212.73"/>
<polygon fill="black" stroke="black" points="401.82,-213.81 397.33,-211 399.09,-216 401.82,-213.81"/>
</g>
<!-- function&#45;0&#45;Bge&#45;&gt;function&#45;0&#45;Addi -->
<g id="edge10" class="edge">
<title>function&#45;0&#45;Bge:s&#45;&gt;function&#45;0&#45;Addi</title>
<path fill="none" stroke="black" d="M253,-332C253,-307.8 224.12,-315.42 215,-293 206.96,-273.24 208.95,-265.46 215,-245 218.46,-233.29 225.34,-221.74 232.1,-212.35"/>
<polygon fill="black" stroke="black" points="231.42,-216 233.18,-211 228.68,-213.81 231.42,-216"/>
</g>
<!-- function&#45;0&#45;Seq2&#45;&gt;function&#45;2&#45;Blt -->
<g id="edge12" class="edge">
<title>function&#45;0&#45;Seq2:s&#45;&gt;function&#45;2&#45;Blt</title>
<path fill="none" stroke="black" d="M121,-332C121,-311.25 176.97,-290.51 214.01,-279.05"/>
<polygon fill="black" stroke="black" points="213.04,-281.96 216,-277.57 210.95,-279.16 213.04,-281.96"/>
</g>
<!-- function&#45;0&#45;Seq2&#45;&gt;function&#45;0&#45;Jal -->
<g id="edge13" class="edge">
<title>function&#45;0&#45;Seq2:s&#45;&gt;function&#45;0&#45;Jal</title>
<path fill="none" stroke="black" d="M143,-332C143,-318.8 141.86,-304.06 140.67,-292.27"/>
<polygon fill="black" stroke="black" points="142.99,-294.45 140.12,-290 139.59,-295.27 142.99,-294.45"/>
</g>
<!-- function&#45;2&#45;Blt&#45;&gt;function&#45;3&#45;ImmVal -->
<g id="edge19" class="edge">
<title>function&#45;2&#45;Blt:s&#45;&gt;function&#45;3&#45;ImmVal</title>
<path fill="none" stroke="black" d="M257,-253C257,-247 316.13,-169.5 321,-166 357.76,-139.59 376.69,-153.5 418,-135 418.52,-134.77 419.04,-134.53 419.56,-134.29"/>
<polygon fill="black" stroke="black" points="420.54,-135.76 424.27,-132 419.01,-132.61 420.54,-135.76"/>
</g>
<!-- function&#45;2&#45;Blt&#45;&gt;function&#45;0&#45;RegVal -->
<g id="edge17" class="edge">
<title>function&#45;2&#45;Blt:s&#45;&gt;function&#45;0&#45;RegVal</title>
<path fill="none" stroke="black" d="M238,-253C238,-240.66 308.89,-215.7 352.54,-201.51"/>
<polygon fill="black" stroke="black" points="350.03,-204.42 354,-200.91 348.71,-201.18 350.03,-204.42"/>
</g>
<!-- function&#45;2&#45;Blt&#45;&gt;function&#45;0&#45;Addi -->
<g id="edge18" class="edge">
<title>function&#45;2&#45;Blt:s&#45;&gt;function&#45;0&#45;Addi</title>
<path fill="none" stroke="black" d="M250,-253C250,-239.84 250,-225.11 250,-213.3"/>
<polygon fill="black" stroke="black" points="251.75,-216 250,-211 248.25,-216 251.75,-216"/>
</g>
<!-- function&#45;0&#45;Jal&#45;&gt;function&#45;2&#45;ImmVal -->
<g id="edge14" class="edge">
<title>function&#45;0&#45;Jal:s&#45;&gt;function&#45;2&#45;ImmVal</title>
<path fill="none" stroke="black" d="M138,-253C138,-237.6 146.91,-223.08 156.42,-211.97"/>
<polygon fill="black" stroke="black" points="154.68,-215.17 157.94,-211 152.79,-212.23 154.68,-215.17"/>
</g>
<!-- function&#45;1&#45;RegVal&#45;&gt;primitive&#45;String&#45;1 -->
<g id="edge25" class="edge">
<title>function&#45;1&#45;RegVal:s&#45;&gt;primitive&#45;String&#45;1</title>
<path fill="none" stroke="black" d="M118,-95C118,-81.84 118,-67.11 118,-55.3"/>
<polygon fill="black" stroke="black" points="119.75,-58 118,-53 116.25,-58 119.75,-58"/>
</g>
<!-- function&#45;1&#45;Bge&#45;&gt;function&#45;3&#45;ImmVal -->
<g id="edge22" class="edge">
<title>function&#45;1&#45;Bge:s&#45;&gt;function&#45;3&#45;ImmVal</title>
<path fill="none" stroke="black" d="M318,-253C318,-211.32 324.46,-196.38 353,-166 374.91,-142.67 389.74,-150.03 418,-135 418.34,-134.82 418.68,-134.64 419.02,-134.45"/>
<polygon fill="black" stroke="black" points="419.97,-135.93 423.52,-132 418.29,-132.86 419.97,-135.93"/>
</g>
<!-- function&#45;1&#45;Bge&#45;&gt;function&#45;0&#45;RegVal -->
<g id="edge21" class="edge">
<title>function&#45;1&#45;Bge:s&#45;&gt;function&#45;0&#45;RegVal</title>
<path fill="none" stroke="black" d="M309,-253C309,-229.07 331.85,-212.81 352.65,-202.97"/>
<polygon fill="black" stroke="black" points="351.28,-206.39 354,-201.85 349.04,-203.7 351.28,-206.39"/>
</g>
<!-- function&#45;1&#45;Bge&#45;&gt;function&#45;0&#45;Addi -->
<g id="edge20" class="edge">
<title>function&#45;1&#45;Bge:s&#45;&gt;function&#45;0&#45;Addi</title>
<path fill="none" stroke="black" d="M295,-253C295,-237.23 285.34,-222.76 274.98,-211.78"/>
<polygon fill="black" stroke="black" points="278.7,-211.71 273.45,-211 277.11,-214.83 278.7,-211.71"/>
</g>
<!-- function&#45;1&#45;Seq2&#45;&gt;function&#45;1&#45;Blt -->
<g id="edge23" class="edge">
<title>function&#45;1&#45;Seq2:s&#45;&gt;function&#45;1&#45;Blt</title>
<path fill="none" stroke="black" d="M351,-253C351,-224.01 389.71,-236.99 418.47,-251.13"/>
<polygon fill="black" stroke="black" points="415.04,-250.55 420,-252.4 417.28,-247.86 415.04,-250.55"/>
</g>
<!-- function&#45;1&#45;Seq2&#45;&gt;function&#45;1&#45;Jal -->
<g id="edge24" class="edge">
<title>function&#45;1&#45;Seq2:s&#45;&gt;function&#45;1&#45;Jal</title>
<path fill="none" stroke="black" d="M373,-253C373,-249.6 402.1,-228 425.42,-211.24"/>
<polygon fill="black" stroke="black" points="422.11,-213.65 426.7,-211 421.46,-210.21 422.11,-213.65"/>
</g>
<!-- function&#45;1&#45;Blt&#45;&gt;function&#45;3&#45;ImmVal -->
<g id="edge28" class="edge">
<title>function&#45;1&#45;Blt:s&#45;&gt;function&#45;3&#45;ImmVal</title>
<path fill="none" stroke="black" d="M461,-253C461,-232.65 479.46,-233.58 485,-214 490.81,-193.47 490.05,-186.73 485,-166 482.25,-154.71 476.69,-143.16 471.25,-133.65"/>
<polygon fill="black" stroke="black" points="474.37,-134.29 469.6,-132 471.9,-136.77 474.37,-134.29"/>
</g>
<!-- function&#45;1&#45;Blt&#45;&gt;function&#45;0&#45;RegVal -->
<g id="edge27" class="edge">
<title>function&#45;1&#45;Blt:s&#45;&gt;function&#45;0&#45;RegVal</title>
<path fill="none" stroke="black" d="M454,-253C454,-241.93 434.09,-224.69 415.82,-211.2"/>
<polygon fill="black" stroke="black" points="419.94,-210.14 414.71,-211 419.33,-213.59 419.94,-210.14"/>
</g>
<!-- function&#45;1&#45;Blt&#45;&gt;function&#45;0&#45;Addi -->
<g id="edge26" class="edge">
<title>function&#45;1&#45;Blt:s&#45;&gt;function&#45;0&#45;Addi</title>
<path fill="none" stroke="black" d="M442,-253C442,-236.41 336.92,-210.44 282.23,-198.04"/>
<polygon fill="black" stroke="black" points="285.24,-197.63 280,-196.88 283.63,-200.74 285.24,-197.63"/>
</g>
<!-- function&#45;1&#45;Jal&#45;&gt;function&#45;3&#45;ImmVal -->
<g id="edge36" class="edge">
<title>function&#45;1&#45;Jal:s&#45;&gt;function&#45;3&#45;ImmVal</title>
<path fill="none" stroke="black" d="M454,-174C454,-160.82 454.68,-146.09 455.4,-134.29"/>
<polygon fill="black" stroke="black" points="456.75,-137.2 455.73,-132 453.29,-136.7 456.75,-137.2"/>
</g>
<!-- function&#45;2&#45;Bge&#45;&gt;function&#45;3&#45;ImmVal -->
<g id="edge31" class="edge">
<title>function&#45;2&#45;Bge:s&#45;&gt;function&#45;3&#45;ImmVal</title>
<path fill="none" stroke="black" d="M522,-253C522,-206.94 493.05,-159.56 473.79,-133.13"/>
<polygon fill="black" stroke="black" points="477.41,-134.58 472.78,-132 474.79,-136.9 477.41,-134.58"/>
</g>
<!-- function&#45;2&#45;Bge&#45;&gt;function&#45;0&#45;RegVal -->
<g id="edge29" class="edge">
<title>function&#45;2&#45;Bge:s&#45;&gt;function&#45;0&#45;RegVal</title>
<path fill="none" stroke="black" d="M499,-253C499,-215.03 456.04,-232.7 423,-214 422.79,-213.88 422.57,-213.76 422.36,-213.64"/>
<polygon fill="black" stroke="black" points="423.01,-211.99 417.8,-211 421.25,-215.02 423.01,-211.99"/>
</g>
<!-- function&#45;2&#45;Bge&#45;&gt;function&#45;0&#45;Addi -->
<g id="edge30" class="edge">
<title>function&#45;2&#45;Bge:s&#45;&gt;function&#45;0&#45;Addi</title>
<path fill="none" stroke="black" d="M513,-253C513,-250.07 352.16,-213.8 282.04,-198.14"/>
<polygon fill="black" stroke="black" points="285.23,-197.86 280,-197.04 283.59,-200.94 285.23,-197.86"/>
</g>
<!-- function&#45;2&#45;Seq2&#45;&gt;function&#45;1&#45;Seq2 -->
<g id="edge32" class="edge">
<title>function&#45;2&#45;Seq2:s&#45;&gt;function&#45;1&#45;Seq2</title>
<path fill="none" stroke="black" d="M555,-253C555,-192.02 478.72,-203.83 421,-223.5 406.82,-228.33 393.4,-238.1 382.95,-247.35"/>
<polygon fill="black" stroke="black" points="385.3,-244.59 381.24,-248 386.54,-247.86 385.3,-244.59"/>
</g>
<!-- function&#45;2&#45;Seq2&#45;&gt;function&#45;1&#45;Jal -->
<g id="edge33" class="edge">
<title>function&#45;2&#45;Seq2:s&#45;&gt;function&#45;1&#45;Jal</title>
<path fill="none" stroke="black" d="M577,-253C577,-212.43 522.98,-198.4 486.54,-193.56"/>
<polygon fill="black" stroke="black" points="489.28,-192.45 484,-192.9 488.41,-195.84 489.28,-192.45"/>
</g>
<!-- function&#45;1&#45;Addi&#45;&gt;function&#45;1&#45;ImmVal -->
<g id="edge35" class="edge">
<title>function&#45;1&#45;Addi:s&#45;&gt;function&#45;1&#45;ImmVal</title>
<path fill="none" stroke="black" d="M85,-174C85,-158.71 76.31,-144.2 67.03,-133.07"/>
<polygon fill="black" stroke="black" points="70.65,-133.6 65.59,-132 68.55,-136.4 70.65,-133.6"/>
</g>
<!-- function&#45;1&#45;Addi&#45;&gt;function&#45;1&#45;RegVal -->
<g id="edge34" class="edge">
<title>function&#45;1&#45;Addi:s&#45;&gt;function&#45;1&#45;RegVal</title>
<path fill="none" stroke="black" d="M65,-174C65,-157.59 75.82,-143.25 87.6,-132.5"/>
<polygon fill="black" stroke="black" points="84.91,-135.8 88.61,-132 83.35,-132.66 84.91,-135.8"/>
</g>
<!-- function&#45;1&#45;ImmVal -->
<g id="node1" class="node">
<title>function&#45;1&#45;ImmVal</title>
<g id="a_node1"><a xlink:title="Imm&#45;4: function&#45;1&#45;ImmVal">
<path fill="white" stroke="transparent" d="M24.67,-95C24.67,-95 65.33,-95 65.33,-95 70.67,-95 76,-100.33 76,-105.67 76,-105.67 76,-116.33 76,-116.33 76,-121.67 70.67,-127 65.33,-127 65.33,-127 24.67,-127 24.67,-127 19.33,-127 14,-121.67 14,-116.33 14,-116.33 14,-105.67 14,-105.67 14,-100.33 19.33,-95 24.67,-95"/>
<text text-anchor="start" x="19" y="-107.3" font-family="Helvetica,sans-Serif" font-size="14.00">ImmVal</text>
<path fill="none" stroke="black" d="M24.67,-95C24.67,-95 65.33,-95 65.33,-95 70.67,-95 76,-100.33 76,-105.67 76,-105.67 76,-116.33 76,-116.33 76,-121.67 70.67,-127 65.33,-127 65.33,-127 24.67,-127 24.67,-127 19.33,-127 14,-121.67 14,-116.33 14,-116.33 14,-105.67 14,-105.67 14,-100.33 19.33,-95 24.67,-95"/>
</a>
</g>
</g>
<!-- primitive&#45;i64&#45;32 -->
<g id="node2" class="node">
<title>primitive&#45;i64&#45;32</title>
<g id="a_node2"><a xlink:title="i64&#45;32: primitive&#45;i64&#45;32">
<path fill="white" stroke="transparent" d="M38.67,-16C38.67,-16 49.33,-16 49.33,-16 54.67,-16 60,-21.33 60,-26.67 60,-26.67 60,-37.33 60,-37.33 60,-42.67 54.67,-48 49.33,-48 49.33,-48 38.67,-48 38.67,-48 33.33,-48 28,-42.67 28,-37.33 28,-37.33 28,-26.67 28,-26.67 28,-21.33 33.33,-16 38.67,-16"/>
<text text-anchor="start" x="34.5" y="-28.3" font-family="Helvetica,sans-Serif" font-size="14.00">32</text>
<path fill="none" stroke="black" d="M38.67,-16C38.67,-16 49.33,-16 49.33,-16 54.67,-16 60,-21.33 60,-26.67 60,-26.67 60,-37.33 60,-37.33 60,-42.67 54.67,-48 49.33,-48 49.33,-48 38.67,-48 38.67,-48 33.33,-48 28,-42.67 28,-37.33 28,-37.33 28,-26.67 28,-26.67 28,-21.33 33.33,-16 38.67,-16"/>
</a>
</g>
</g>
<!-- function&#45;0&#45;ImmVal -->
<g id="node3" class="node">
<title>function&#45;0&#45;ImmVal</title>
<g id="a_node3"><a xlink:title="Imm&#45;2: function&#45;0&#45;ImmVal">
<path fill="white" stroke="transparent" d="M239.67,-95C239.67,-95 280.33,-95 280.33,-95 285.67,-95 291,-100.33 291,-105.67 291,-105.67 291,-116.33 291,-116.33 291,-121.67 285.67,-127 280.33,-127 280.33,-127 239.67,-127 239.67,-127 234.33,-127 229,-121.67 229,-116.33 229,-116.33 229,-105.67 229,-105.67 229,-100.33 234.33,-95 239.67,-95"/>
<text text-anchor="start" x="234" y="-107.3" font-family="Helvetica,sans-Serif" font-size="14.00">ImmVal</text>
<path fill="none" stroke="black" d="M239.67,-95C239.67,-95 280.33,-95 280.33,-95 285.67,-95 291,-100.33 291,-105.67 291,-105.67 291,-116.33 291,-116.33 291,-121.67 285.67,-127 280.33,-127 280.33,-127 239.67,-127 239.67,-127 234.33,-127 229,-121.67 229,-116.33 229,-116.33 229,-105.67 229,-105.67 229,-100.33 234.33,-95 239.67,-95"/>
</a>
</g>
</g>
<!-- primitive&#45;i64&#45;31 -->
<g id="node4" class="node">
<title>primitive&#45;i64&#45;31</title>
<g id="a_node4"><a xlink:title="i64&#45;31: primitive&#45;i64&#45;31">
<path fill="white" stroke="transparent" d="M254.67,-16C254.67,-16 265.33,-16 265.33,-16 270.67,-16 276,-21.33 276,-26.67 276,-26.67 276,-37.33 276,-37.33 276,-42.67 270.67,-48 265.33,-48 265.33,-48 254.67,-48 254.67,-48 249.33,-48 244,-42.67 244,-37.33 244,-37.33 244,-26.67 244,-26.67 244,-21.33 249.33,-16 254.67,-16"/>
<text text-anchor="start" x="250.5" y="-28.3" font-family="Helvetica,sans-Serif" font-size="14.00">31</text>
<path fill="none" stroke="black" d="M254.67,-16C254.67,-16 265.33,-16 265.33,-16 270.67,-16 276,-21.33 276,-26.67 276,-26.67 276,-37.33 276,-37.33 276,-42.67 270.67,-48 265.33,-48 265.33,-48 254.67,-48 254.67,-48 249.33,-48 244,-42.67 244,-37.33 244,-37.33 244,-26.67 244,-26.67 244,-21.33 249.33,-16 254.67,-16"/>
</a>
</g>
</g>
<!-- function&#45;2&#45;ImmVal -->
<g id="node5" class="node">
<title>function&#45;2&#45;ImmVal</title>
<g id="a_node5"><a xlink:title="Imm&#45;6: function&#45;2&#45;ImmVal">
<path fill="white" stroke="transparent" d="M158.67,-174C158.67,-174 199.33,-174 199.33,-174 204.67,-174 210,-179.33 210,-184.67 210,-184.67 210,-195.33 210,-195.33 210,-200.67 204.67,-206 199.33,-206 199.33,-206 158.67,-206 158.67,-206 153.33,-206 148,-200.67 148,-195.33 148,-195.33 148,-184.67 148,-184.67 148,-179.33 153.33,-174 158.67,-174"/>
<text text-anchor="start" x="153" y="-186.3" font-family="Helvetica,sans-Serif" font-size="14.00">ImmVal</text>
<path fill="none" stroke="black" d="M158.67,-174C158.67,-174 199.33,-174 199.33,-174 204.67,-174 210,-179.33 210,-184.67 210,-184.67 210,-195.33 210,-195.33 210,-200.67 204.67,-206 199.33,-206 199.33,-206 158.67,-206 158.67,-206 153.33,-206 148,-200.67 148,-195.33 148,-195.33 148,-184.67 148,-184.67 148,-179.33 153.33,-174 158.67,-174"/>
</a>
</g>
</g>
<!-- primitive&#45;i64&#45;0 -->
<g id="node6" class="node">
<title>primitive&#45;i64&#45;0</title>
<g id="a_node6"><a xlink:title="i64&#45;0: primitive&#45;i64&#45;0">
<path fill="white" stroke="transparent" d="M179.67,-95C179.67,-95 190.33,-95 190.33,-95 195.67,-95 201,-100.33 201,-105.67 201,-105.67 201,-116.33 201,-116.33 201,-121.67 195.67,-127 190.33,-127 190.33,-127 179.67,-127 179.67,-127 174.33,-127 169,-121.67 169,-116.33 169,-116.33 169,-105.67 169,-105.67 169,-100.33 174.33,-95 179.67,-95"/>
<text text-anchor="start" x="180" y="-107.3" font-family="Helvetica,sans-Serif" font-size="14.00">0</text>
<path fill="none" stroke="black" d="M179.67,-95C179.67,-95 190.33,-95 190.33,-95 195.67,-95 201,-100.33 201,-105.67 201,-105.67 201,-116.33 201,-116.33 201,-121.67 195.67,-127 190.33,-127 190.33,-127 179.67,-127 179.67,-127 174.33,-127 169,-121.67 169,-116.33 169,-116.33 169,-105.67 169,-105.67 169,-100.33 174.33,-95 179.67,-95"/>
</a>
</g>
</g>
<!-- function&#45;3&#45;ImmVal -->
<g id="node7" class="node">
<title>function&#45;3&#45;ImmVal</title>
<g id="a_node7"><a xlink:title="Imm&#45;8: function&#45;3&#45;ImmVal">
<path fill="white" stroke="transparent" d="M436.67,-95C436.67,-95 477.33,-95 477.33,-95 482.67,-95 488,-100.33 488,-105.67 488,-105.67 488,-116.33 488,-116.33 488,-121.67 482.67,-127 477.33,-127 477.33,-127 436.67,-127 436.67,-127 431.33,-127 426,-121.67 426,-116.33 426,-116.33 426,-105.67 426,-105.67 426,-100.33 431.33,-95 436.67,-95"/>
<text text-anchor="start" x="431" y="-107.3" font-family="Helvetica,sans-Serif" font-size="14.00">ImmVal</text>
<path fill="none" stroke="black" d="M436.67,-95C436.67,-95 477.33,-95 477.33,-95 482.67,-95 488,-100.33 488,-105.67 488,-105.67 488,-116.33 488,-116.33 488,-121.67 482.67,-127 477.33,-127 477.33,-127 436.67,-127 436.67,-127 431.33,-127 426,-121.67 426,-116.33 426,-116.33 426,-105.67 426,-105.67 426,-100.33 431.33,-95 436.67,-95"/>
</a>
</g>
</g>
<!-- primitive&#45;i64&#45;4 -->
<g id="node8" class="node">
<title>primitive&#45;i64&#45;4</title>
<g id="a_node8"><a xlink:title="i64&#45;4: primitive&#45;i64&#45;4">
<path fill="white" stroke="transparent" d="M451.67,-16C451.67,-16 462.33,-16 462.33,-16 467.67,-16 473,-21.33 473,-26.67 473,-26.67 473,-37.33 473,-37.33 473,-42.67 467.67,-48 462.33,-48 462.33,-48 451.67,-48 451.67,-48 446.33,-48 441,-42.67 441,-37.33 441,-37.33 441,-26.67 441,-26.67 441,-21.33 446.33,-16 451.67,-16"/>
<text text-anchor="start" x="452" y="-28.3" font-family="Helvetica,sans-Serif" font-size="14.00">4</text>
<path fill="none" stroke="black" d="M451.67,-16C451.67,-16 462.33,-16 462.33,-16 467.67,-16 473,-21.33 473,-26.67 473,-26.67 473,-37.33 473,-37.33 473,-42.67 467.67,-48 462.33,-48 462.33,-48 451.67,-48 451.67,-48 446.33,-48 441,-42.67 441,-37.33 441,-37.33 441,-26.67 441,-26.67 441,-21.33 446.33,-16 451.67,-16"/>
</a>
</g>
</g>
<!-- function&#45;0&#45;RegVal -->
<g id="node9" class="node">
<title>function&#45;0&#45;RegVal</title>
<g id="a_node9"><a xlink:title="Inst&#45;0: function&#45;0&#45;RegVal">
<path fill="white" stroke="transparent" d="M368.17,-174C368.17,-174 403.83,-174 403.83,-174 409.17,-174 414.5,-179.33 414.5,-184.67 414.5,-184.67 414.5,-195.33 414.5,-195.33 414.5,-200.67 409.17,-206 403.83,-206 403.83,-206 368.17,-206 368.17,-206 362.83,-206 357.5,-200.67 357.5,-195.33 357.5,-195.33 357.5,-184.67 357.5,-184.67 357.5,-179.33 362.83,-174 368.17,-174"/>
<text text-anchor="start" x="363" y="-186.3" font-family="Helvetica,sans-Serif" font-size="14.00">RegVal</text>
<path fill="none" stroke="black" d="M368.17,-174C368.17,-174 403.83,-174 403.83,-174 409.17,-174 414.5,-179.33 414.5,-184.67 414.5,-184.67 414.5,-195.33 414.5,-195.33 414.5,-200.67 409.17,-206 403.83,-206 403.83,-206 368.17,-206 368.17,-206 362.83,-206 357.5,-200.67 357.5,-195.33 357.5,-195.33 357.5,-184.67 357.5,-184.67 357.5,-179.33 362.83,-174 368.17,-174"/>
</a>
</g>
</g>
<!-- primitive&#45;String&#45;0 -->
<g id="node10" class="node">
<title>primitive&#45;String&#45;0</title>
<g id="a_node10"><a xlink:title="String&#45;0: primitive&#45;String&#45;0">
<path fill="white" stroke="transparent" d="M367.17,-95C367.17,-95 402.83,-95 402.83,-95 408.17,-95 413.5,-100.33 413.5,-105.67 413.5,-105.67 413.5,-116.33 413.5,-116.33 413.5,-121.67 408.17,-127 402.83,-127 402.83,-127 367.17,-127 367.17,-127 361.83,-127 356.5,-121.67 356.5,-116.33 356.5,-116.33 356.5,-105.67 356.5,-105.67 356.5,-100.33 361.83,-95 367.17,-95"/>
<text text-anchor="start" x="362" y="-107.3" font-family="Helvetica,sans-Serif" font-size="14.00">&quot;a3_0&quot;</text>
<path fill="none" stroke="black" d="M367.17,-95C367.17,-95 402.83,-95 402.83,-95 408.17,-95 413.5,-100.33 413.5,-105.67 413.5,-105.67 413.5,-116.33 413.5,-116.33 413.5,-121.67 408.17,-127 402.83,-127 402.83,-127 367.17,-127 367.17,-127 361.83,-127 356.5,-121.67 356.5,-116.33 356.5,-116.33 356.5,-105.67 356.5,-105.67 356.5,-100.33 361.83,-95 367.17,-95"/>
</a>
</g>
</g>
<!-- function&#45;0&#45;Blt -->
<g id="node11" class="node">
<title>function&#45;0&#45;Blt</title>
<g id="a_node11"><a xlink:title="Inst&#45;7: function&#45;0&#45;Blt">
<path fill="white" stroke="transparent" d="M184.67,-332C184.67,-332 195.33,-332 195.33,-332 200.67,-332 206,-337.33 206,-342.67 206,-342.67 206,-353.33 206,-353.33 206,-358.67 200.67,-364 195.33,-364 195.33,-364 184.67,-364 184.67,-364 179.33,-364 174,-358.67 174,-353.33 174,-353.33 174,-342.67 174,-342.67 174,-337.33 179.33,-332 184.67,-332"/>
<text text-anchor="start" x="180.5" y="-344.3" font-family="Helvetica,sans-Serif" font-size="14.00">Blt</text>
<path fill="none" stroke="black" d="M184.67,-332C184.67,-332 195.33,-332 195.33,-332 200.67,-332 206,-337.33 206,-342.67 206,-342.67 206,-353.33 206,-353.33 206,-358.67 200.67,-364 195.33,-364 195.33,-364 184.67,-364 184.67,-364 179.33,-364 174,-358.67 174,-353.33 174,-353.33 174,-342.67 174,-342.67 174,-337.33 179.33,-332 184.67,-332"/>
</a>
</g>
</g>
<!-- function&#45;0&#45;Addi -->
<g id="node12" class="node">
<title>function&#45;0&#45;Addi</title>
<g id="a_node12"><a xlink:title="Inst&#45;3: function&#45;0&#45;Addi">
<path fill="white" stroke="transparent" d="M240.17,-174C240.17,-174 259.83,-174 259.83,-174 265.17,-174 270.5,-179.33 270.5,-184.67 270.5,-184.67 270.5,-195.33 270.5,-195.33 270.5,-200.67 265.17,-206 259.83,-206 259.83,-206 240.17,-206 240.17,-206 234.83,-206 229.5,-200.67 229.5,-195.33 229.5,-195.33 229.5,-184.67 229.5,-184.67 229.5,-179.33 234.83,-174 240.17,-174"/>
<text text-anchor="start" x="235" y="-186.3" font-family="Helvetica,sans-Serif" font-size="14.00">Addi</text>
<path fill="none" stroke="black" d="M240.17,-174C240.17,-174 259.83,-174 259.83,-174 265.17,-174 270.5,-179.33 270.5,-184.67 270.5,-184.67 270.5,-195.33 270.5,-195.33 270.5,-200.67 265.17,-206 259.83,-206 259.83,-206 240.17,-206 240.17,-206 234.83,-206 229.5,-200.67 229.5,-195.33 229.5,-195.33 229.5,-184.67 229.5,-184.67 229.5,-179.33 234.83,-174 240.17,-174"/>
</a>
</g>
</g>
<!-- function&#45;0&#45;Bge -->
<g id="node13" class="node">
<title>function&#45;0&#45;Bge</title>
<g id="a_node13"><a xlink:title="Inst&#45;7: function&#45;0&#45;Bge">
<path fill="white" stroke="transparent" d="M239.67,-332C239.67,-332 256.33,-332 256.33,-332 261.67,-332 267,-337.33 267,-342.67 267,-342.67 267,-353.33 267,-353.33 267,-358.67 261.67,-364 256.33,-364 256.33,-364 239.67,-364 239.67,-364 234.33,-364 229,-358.67 229,-353.33 229,-353.33 229,-342.67 229,-342.67 229,-337.33 234.33,-332 239.67,-332"/>
<text text-anchor="start" x="234" y="-344.3" font-family="Helvetica,sans-Serif" font-size="14.00">Bge</text>
<path fill="none" stroke="black" d="M239.67,-332C239.67,-332 256.33,-332 256.33,-332 261.67,-332 267,-337.33 267,-342.67 267,-342.67 267,-353.33 267,-353.33 267,-358.67 261.67,-364 256.33,-364 256.33,-364 239.67,-364 239.67,-364 234.33,-364 229,-358.67 229,-353.33 229,-353.33 229,-342.67 229,-342.67 229,-337.33 234.33,-332 239.67,-332"/>
</a>
</g>
</g>
<!-- function&#45;0&#45;Seq2 -->
<g id="node14" class="node">
<title>function&#45;0&#45;Seq2</title>
<g id="a_node14"><a xlink:title="Inst&#45;7: function&#45;0&#45;Seq2">
<path fill="white" stroke="transparent" d="M119.67,-332C119.67,-332 144.33,-332 144.33,-332 149.67,-332 155,-337.33 155,-342.67 155,-342.67 155,-353.33 155,-353.33 155,-358.67 149.67,-364 144.33,-364 144.33,-364 119.67,-364 119.67,-364 114.33,-364 109,-358.67 109,-353.33 109,-353.33 109,-342.67 109,-342.67 109,-337.33 114.33,-332 119.67,-332"/>
<text text-anchor="start" x="114" y="-344.3" font-family="Helvetica,sans-Serif" font-size="14.00">Seq2</text>
<path fill="none" stroke="black" d="M119.67,-332C119.67,-332 144.33,-332 144.33,-332 149.67,-332 155,-337.33 155,-342.67 155,-342.67 155,-353.33 155,-353.33 155,-358.67 149.67,-364 144.33,-364 144.33,-364 119.67,-364 119.67,-364 114.33,-364 109,-358.67 109,-353.33 109,-353.33 109,-342.67 109,-342.67 109,-337.33 114.33,-332 119.67,-332"/>
</a>
</g>
</g>
<!-- function&#45;2&#45;Blt -->
<g id="node15" class="node">
<title>function&#45;2&#45;Blt</title>
<g id="a_node15"><a xlink:title="Inst&#45;9: function&#45;2&#45;Blt">
<path fill="white" stroke="transparent" d="M240.67,-253C240.67,-253 251.33,-253 251.33,-253 256.67,-253 262,-258.33 262,-263.67 262,-263.67 262,-274.33 262,-274.33 262,-279.67 256.67,-285 251.33,-285 251.33,-285 240.67,-285 240.67,-285 235.33,-285 230,-279.67 230,-274.33 230,-274.33 230,-263.67 230,-263.67 230,-258.33 235.33,-253 240.67,-253"/>
<text text-anchor="start" x="236.5" y="-265.3" font-family="Helvetica,sans-Serif" font-size="14.00">Blt</text>
<path fill="none" stroke="black" d="M240.67,-253C240.67,-253 251.33,-253 251.33,-253 256.67,-253 262,-258.33 262,-263.67 262,-263.67 262,-274.33 262,-274.33 262,-279.67 256.67,-285 251.33,-285 251.33,-285 240.67,-285 240.67,-285 235.33,-285 230,-279.67 230,-274.33 230,-274.33 230,-263.67 230,-263.67 230,-258.33 235.33,-253 240.67,-253"/>
</a>
</g>
</g>
<!-- function&#45;0&#45;Jal -->
<g id="node16" class="node">
<title>function&#45;0&#45;Jal</title>
<g id="a_node16"><a xlink:title="Inst&#45;10: function&#45;0&#45;Jal">
<path fill="white" stroke="transparent" d="M132.67,-253C132.67,-253 143.33,-253 143.33,-253 148.67,-253 154,-258.33 154,-263.67 154,-263.67 154,-274.33 154,-274.33 154,-279.67 148.67,-285 143.33,-285 143.33,-285 132.67,-285 132.67,-285 127.33,-285 122,-279.67 122,-274.33 122,-274.33 122,-263.67 122,-263.67 122,-258.33 127.33,-253 132.67,-253"/>
<text text-anchor="start" x="129.5" y="-265.3" font-family="Helvetica,sans-Serif" font-size="14.00">Jal</text>
<path fill="none" stroke="black" d="M132.67,-253C132.67,-253 143.33,-253 143.33,-253 148.67,-253 154,-258.33 154,-263.67 154,-263.67 154,-274.33 154,-274.33 154,-279.67 148.67,-285 143.33,-285 143.33,-285 132.67,-285 132.67,-285 127.33,-285 122,-279.67 122,-274.33 122,-274.33 122,-263.67 122,-263.67 122,-258.33 127.33,-253 132.67,-253"/>
</a>
</g>
</g>
<!-- function&#45;1&#45;RegVal -->
<g id="node17" class="node">
<title>function&#45;1&#45;RegVal</title>
<g id="a_node17"><a xlink:title="Inst&#45;1: function&#45;1&#45;RegVal">
<path fill="white" stroke="transparent" d="M99.17,-95C99.17,-95 134.83,-95 134.83,-95 140.17,-95 145.5,-100.33 145.5,-105.67 145.5,-105.67 145.5,-116.33 145.5,-116.33 145.5,-121.67 140.17,-127 134.83,-127 134.83,-127 99.17,-127 99.17,-127 93.83,-127 88.5,-121.67 88.5,-116.33 88.5,-116.33 88.5,-105.67 88.5,-105.67 88.5,-100.33 93.83,-95 99.17,-95"/>
<text text-anchor="start" x="94" y="-107.3" font-family="Helvetica,sans-Serif" font-size="14.00">RegVal</text>
<path fill="none" stroke="black" d="M99.17,-95C99.17,-95 134.83,-95 134.83,-95 140.17,-95 145.5,-100.33 145.5,-105.67 145.5,-105.67 145.5,-116.33 145.5,-116.33 145.5,-121.67 140.17,-127 134.83,-127 134.83,-127 99.17,-127 99.17,-127 93.83,-127 88.5,-121.67 88.5,-116.33 88.5,-116.33 88.5,-105.67 88.5,-105.67 88.5,-100.33 93.83,-95 99.17,-95"/>
</a>
</g>
</g>
<!-- function&#45;1&#45;Bge -->
<g id="node18" class="node">
<title>function&#45;1&#45;Bge</title>
<g id="a_node18"><a xlink:title="Inst&#45;9: function&#45;1&#45;Bge">
<path fill="white" stroke="transparent" d="M295.67,-253C295.67,-253 312.33,-253 312.33,-253 317.67,-253 323,-258.33 323,-263.67 323,-263.67 323,-274.33 323,-274.33 323,-279.67 317.67,-285 312.33,-285 312.33,-285 295.67,-285 295.67,-285 290.33,-285 285,-279.67 285,-274.33 285,-274.33 285,-263.67 285,-263.67 285,-258.33 290.33,-253 295.67,-253"/>
<text text-anchor="start" x="290" y="-265.3" font-family="Helvetica,sans-Serif" font-size="14.00">Bge</text>
<path fill="none" stroke="black" d="M295.67,-253C295.67,-253 312.33,-253 312.33,-253 317.67,-253 323,-258.33 323,-263.67 323,-263.67 323,-274.33 323,-274.33 323,-279.67 317.67,-285 312.33,-285 312.33,-285 295.67,-285 295.67,-285 290.33,-285 285,-279.67 285,-274.33 285,-274.33 285,-263.67 285,-263.67 285,-258.33 290.33,-253 295.67,-253"/>
</a>
</g>
</g>
<!-- function&#45;1&#45;Seq2 -->
<g id="node19" class="node">
<title>function&#45;1&#45;Seq2</title>
<g id="a_node19"><a xlink:title="Inst&#45;9: function&#45;1&#45;Seq2">
<path fill="white" stroke="transparent" d="M349.67,-253C349.67,-253 374.33,-253 374.33,-253 379.67,-253 385,-258.33 385,-263.67 385,-263.67 385,-274.33 385,-274.33 385,-279.67 379.67,-285 374.33,-285 374.33,-285 349.67,-285 349.67,-285 344.33,-285 339,-279.67 339,-274.33 339,-274.33 339,-263.67 339,-263.67 339,-258.33 344.33,-253 349.67,-253"/>
<text text-anchor="start" x="344" y="-265.3" font-family="Helvetica,sans-Serif" font-size="14.00">Seq2</text>
<path fill="none" stroke="black" d="M349.67,-253C349.67,-253 374.33,-253 374.33,-253 379.67,-253 385,-258.33 385,-263.67 385,-263.67 385,-274.33 385,-274.33 385,-279.67 379.67,-285 374.33,-285 374.33,-285 349.67,-285 349.67,-285 344.33,-285 339,-279.67 339,-274.33 339,-274.33 339,-263.67 339,-263.67 339,-258.33 344.33,-253 349.67,-253"/>
</a>
</g>
</g>
<!-- function&#45;1&#45;Blt -->
<g id="node20" class="node">
<title>function&#45;1&#45;Blt</title>
<g id="a_node20"><a xlink:title="Inst&#45;12: function&#45;1&#45;Blt">
<path fill="white" stroke="transparent" d="M444.67,-253C444.67,-253 455.33,-253 455.33,-253 460.67,-253 466,-258.33 466,-263.67 466,-263.67 466,-274.33 466,-274.33 466,-279.67 460.67,-285 455.33,-285 455.33,-285 444.67,-285 444.67,-285 439.33,-285 434,-279.67 434,-274.33 434,-274.33 434,-263.67 434,-263.67 434,-258.33 439.33,-253 444.67,-253"/>
<text text-anchor="start" x="440.5" y="-265.3" font-family="Helvetica,sans-Serif" font-size="14.00">Blt</text>
<path fill="none" stroke="black" d="M444.67,-253C444.67,-253 455.33,-253 455.33,-253 460.67,-253 466,-258.33 466,-263.67 466,-263.67 466,-274.33 466,-274.33 466,-279.67 460.67,-285 455.33,-285 455.33,-285 444.67,-285 444.67,-285 439.33,-285 434,-279.67 434,-274.33 434,-274.33 434,-263.67 434,-263.67 434,-258.33 439.33,-253 444.67,-253"/>
</a>
</g>
</g>
<!-- function&#45;1&#45;Jal -->
<g id="node21" class="node">
<title>function&#45;1&#45;Jal</title>
<g id="a_node21"><a xlink:title="Inst&#45;13: function&#45;1&#45;Jal">
<path fill="white" stroke="transparent" d="M448.67,-174C448.67,-174 459.33,-174 459.33,-174 464.67,-174 470,-179.33 470,-184.67 470,-184.67 470,-195.33 470,-195.33 470,-200.67 464.67,-206 459.33,-206 459.33,-206 448.67,-206 448.67,-206 443.33,-206 438,-200.67 438,-195.33 438,-195.33 438,-184.67 438,-184.67 438,-179.33 443.33,-174 448.67,-174"/>
<text text-anchor="start" x="445.5" y="-186.3" font-family="Helvetica,sans-Serif" font-size="14.00">Jal</text>
<path fill="none" stroke="black" d="M448.67,-174C448.67,-174 459.33,-174 459.33,-174 464.67,-174 470,-179.33 470,-184.67 470,-184.67 470,-195.33 470,-195.33 470,-200.67 464.67,-206 459.33,-206 459.33,-206 448.67,-206 448.67,-206 443.33,-206 438,-200.67 438,-195.33 438,-195.33 438,-184.67 438,-184.67 438,-179.33 443.33,-174 448.67,-174"/>
</a>
</g>
</g>
<!-- primitive&#45;String&#45;1 -->
<g id="node22" class="node">
<title>primitive&#45;String&#45;1</title>
<g id="a_node22"><a xlink:title="String&#45;1: primitive&#45;String&#45;1">
<path fill="white" stroke="transparent" d="M94.17,-16C94.17,-16 141.83,-16 141.83,-16 147.17,-16 152.5,-21.33 152.5,-26.67 152.5,-26.67 152.5,-37.33 152.5,-37.33 152.5,-42.67 147.17,-48 141.83,-48 141.83,-48 94.17,-48 94.17,-48 88.83,-48 83.5,-42.67 83.5,-37.33 83.5,-37.33 83.5,-26.67 83.5,-26.67 83.5,-21.33 88.83,-16 94.17,-16"/>
<text text-anchor="start" x="89" y="-28.3" font-family="Helvetica,sans-Serif" font-size="14.00">&quot;zero_0&quot;</text>
<path fill="none" stroke="black" d="M94.17,-16C94.17,-16 141.83,-16 141.83,-16 147.17,-16 152.5,-21.33 152.5,-26.67 152.5,-26.67 152.5,-37.33 152.5,-37.33 152.5,-42.67 147.17,-48 141.83,-48 141.83,-48 94.17,-48 94.17,-48 88.83,-48 83.5,-42.67 83.5,-37.33 83.5,-37.33 83.5,-26.67 83.5,-26.67 83.5,-21.33 88.83,-16 94.17,-16"/>
</a>
</g>
</g>
<!-- function&#45;2&#45;Bge -->
<g id="node23" class="node">
<title>function&#45;2&#45;Bge</title>
<g id="a_node23"><a xlink:title="Inst&#45;12: function&#45;2&#45;Bge">
<path fill="white" stroke="transparent" d="M499.67,-253C499.67,-253 516.33,-253 516.33,-253 521.67,-253 527,-258.33 527,-263.67 527,-263.67 527,-274.33 527,-274.33 527,-279.67 521.67,-285 516.33,-285 516.33,-285 499.67,-285 499.67,-285 494.33,-285 489,-279.67 489,-274.33 489,-274.33 489,-263.67 489,-263.67 489,-258.33 494.33,-253 499.67,-253"/>
<text text-anchor="start" x="494" y="-265.3" font-family="Helvetica,sans-Serif" font-size="14.00">Bge</text>
<path fill="none" stroke="black" d="M499.67,-253C499.67,-253 516.33,-253 516.33,-253 521.67,-253 527,-258.33 527,-263.67 527,-263.67 527,-274.33 527,-274.33 527,-279.67 521.67,-285 516.33,-285 516.33,-285 499.67,-285 499.67,-285 494.33,-285 489,-279.67 489,-274.33 489,-274.33 489,-263.67 489,-263.67 489,-258.33 494.33,-253 499.67,-253"/>
</a>
</g>
</g>
<!-- function&#45;2&#45;Seq2 -->
<g id="node24" class="node">
<title>function&#45;2&#45;Seq2</title>
<g id="a_node24"><a xlink:title="Inst&#45;12: function&#45;2&#45;Seq2">
<path fill="white" stroke="transparent" d="M553.67,-253C553.67,-253 578.33,-253 578.33,-253 583.67,-253 589,-258.33 589,-263.67 589,-263.67 589,-274.33 589,-274.33 589,-279.67 583.67,-285 578.33,-285 578.33,-285 553.67,-285 553.67,-285 548.33,-285 543,-279.67 543,-274.33 543,-274.33 543,-263.67 543,-263.67 543,-258.33 548.33,-253 553.67,-253"/>
<text text-anchor="start" x="548" y="-265.3" font-family="Helvetica,sans-Serif" font-size="14.00">Seq2</text>
<path fill="none" stroke="black" d="M553.67,-253C553.67,-253 578.33,-253 578.33,-253 583.67,-253 589,-258.33 589,-263.67 589,-263.67 589,-274.33 589,-274.33 589,-279.67 583.67,-285 578.33,-285 578.33,-285 553.67,-285 553.67,-285 548.33,-285 543,-279.67 543,-274.33 543,-274.33 543,-263.67 543,-263.67 543,-258.33 548.33,-253 553.67,-253"/>
</a>
</g>
</g>
<!-- function&#45;1&#45;Addi -->
<g id="node25" class="node">
<title>function&#45;1&#45;Addi</title>
<g id="a_node25"><a xlink:title="Inst&#45;5: function&#45;1&#45;Addi">
<path fill="white" stroke="transparent" d="M65.17,-174C65.17,-174 84.83,-174 84.83,-174 90.17,-174 95.5,-179.33 95.5,-184.67 95.5,-184.67 95.5,-195.33 95.5,-195.33 95.5,-200.67 90.17,-206 84.83,-206 84.83,-206 65.17,-206 65.17,-206 59.83,-206 54.5,-200.67 54.5,-195.33 54.5,-195.33 54.5,-184.67 54.5,-184.67 54.5,-179.33 59.83,-174 65.17,-174"/>
<text text-anchor="start" x="60" y="-186.3" font-family="Helvetica,sans-Serif" font-size="14.00">Addi</text>
<path fill="none" stroke="black" d="M65.17,-174C65.17,-174 84.83,-174 84.83,-174 90.17,-174 95.5,-179.33 95.5,-184.67 95.5,-184.67 95.5,-195.33 95.5,-195.33 95.5,-200.67 90.17,-206 84.83,-206 84.83,-206 65.17,-206 65.17,-206 59.83,-206 54.5,-200.67 54.5,-195.33 54.5,-195.33 54.5,-184.67 54.5,-184.67 54.5,-179.33 59.83,-174 65.17,-174"/>
</a>
</g>
</g>
</g>
</svg>
