<?xml version="1.0" encoding="UTF-8" standalone="no"?>
<!DOCTYPE svg PUBLIC "-//W3C//DTD SVG 1.1//EN"
 "http://www.w3.org/Graphics/SVG/1.1/DTD/svg11.dtd">
<!-- Generated by graphviz version 2.43.0 (0)
 -->
<!-- Title: %3 Pages: 1 -->
<svg width="382pt" height="467pt"
 viewBox="0.00 0.00 382.00 467.00" xmlns="http://www.w3.org/2000/svg" xmlns:xlink="http://www.w3.org/1999/xlink">
<g id="graph0" class="graph" transform="scale(1 1) rotate(0) translate(4 463)">
<title>%3</title>
<polygon fill="white" stroke="#000000" points="-4,4 -4,-463 378,-463 378,4 -4,4"/>
<g id="clust1" class="cluster">
<title>outer_cluster_Imm&#45;7</title>
</g>
<g id="clust2" class="cluster">
<title>cluster_Imm&#45;7</title>
<path fill="#ffffb3" stroke="black" stroke-dasharray="5,2" d="M241,-90C241,-90 285,-90 285,-90 291,-90 297,-96 297,-102 297,-102 297,-120 297,-120 297,-126 291,-132 285,-132 285,-132 241,-132 241,-132 235,-132 229,-126 229,-120 229,-120 229,-102 229,-102 229,-96 235,-90 241,-90"/>
</g>
<g id="clust4" class="cluster">
<title>outer_cluster_Imm&#45;3</title>
</g>
<g id="clust5" class="cluster">
<title>cluster_Imm&#45;3</title>
<path fill="#ffffb3" stroke="black" stroke-dasharray="5,2" d="M105,-169C105,-169 149,-169 149,-169 155,-169 161,-175 161,-181 161,-181 161,-199 161,-199 161,-205 155,-211 149,-211 149,-211 105,-211 105,-211 99,-211 93,-205 93,-199 93,-199 93,-181 93,-181 93,-175 99,-169 105,-169"/>
</g>
<g id="clust7" class="cluster">
<title>outer_cluster_Imm&#45;9</title>
</g>
<g id="clust8" class="cluster">
<title>cluster_Imm&#45;9</title>
<path fill="#ffffb3" stroke="black" stroke-dasharray="5,2" d="M303,-169C303,-169 347,-169 347,-169 353,-169 359,-175 359,-181 359,-181 359,-199 359,-199 359,-205 353,-211 347,-211 347,-211 303,-211 303,-211 297,-211 291,-205 291,-199 291,-199 291,-181 291,-181 291,-175 297,-169 303,-169"/>
</g>
<g id="clust10" class="cluster">
<title>outer_cluster_Inst&#45;2</title>
</g>
<g id="clust11" class="cluster">
<title>cluster_Inst&#45;2</title>
<path fill="#bebada" stroke="black" stroke-dasharray="5,2" d="M29,-169C29,-169 69,-169 69,-169 75,-169 81,-175 81,-181 81,-181 81,-199 81,-199 81,-205 75,-211 69,-211 69,-211 29,-211 29,-211 23,-211 17,-205 17,-199 17,-199 17,-181 17,-181 17,-175 23,-169 29,-169"/>
</g>
<g id="clust13" class="cluster">
<title>outer_cluster_Inst&#45;10</title>
</g>
<g id="clust14" class="cluster">
<title>cluster_Inst&#45;10</title>
<path fill="#bebada" stroke="black" stroke-dasharray="5,2" d="M236,-248C236,-248 272,-248 272,-248 278,-248 284,-254 284,-260 284,-260 284,-278 284,-278 284,-284 278,-290 272,-290 272,-290 236,-290 236,-290 230,-290 224,-284 224,-278 224,-278 224,-260 224,-260 224,-254 230,-248 236,-248"/>
</g>
<g id="clust16" class="cluster">
<title>outer_cluster_Inst&#45;5</title>
</g>
<g id="clust17" class="cluster">
<title>cluster_Inst&#45;5</title>
<path fill="#bebada" stroke="black" stroke-dasharray="5,2" d="M115,-327C115,-327 267,-327 267,-327 273,-327 279,-333 279,-339 279,-339 279,-357 279,-357 279,-363 273,-369 267,-369 267,-369 115,-369 115,-369 109,-369 103,-363 103,-357 103,-357 103,-339 103,-339 103,-333 109,-327 115,-327"/>
</g>
<g id="clust19" class="cluster">
<title>outer_cluster_Inst&#45;0</title>
</g>
<g id="clust20" class="cluster">
<title>cluster_Inst&#45;0</title>
<path fill="#bebada" stroke="black" stroke-dasharray="5,2" d="M171,-90C171,-90 211,-90 211,-90 217,-90 223,-96 223,-102 223,-102 223,-120 223,-120 223,-126 217,-132 211,-132 211,-132 171,-132 171,-132 165,-132 159,-126 159,-120 159,-120 159,-102 159,-102 159,-96 165,-90 171,-90"/>
</g>
<g id="clust22" class="cluster">
<title>outer_cluster_Inst&#45;1</title>
</g>
<g id="clust23" class="cluster">
<title>cluster_Inst&#45;1</title>
<path fill="#bebada" stroke="black" stroke-dasharray="5,2" d="M299,-327C299,-327 339,-327 339,-327 345,-327 351,-333 351,-339 351,-339 351,-357 351,-357 351,-363 345,-369 339,-369 339,-369 299,-369 299,-369 293,-369 287,-363 287,-357 287,-357 287,-339 287,-339 287,-333 293,-327 299,-327"/>
</g>
<g id="clust25" class="cluster">
<title>outer_cluster_Inst&#45;6</title>
</g>
<g id="clust26" class="cluster">
<title>cluster_Inst&#45;6</title>
<path fill="#bebada" stroke="black" stroke-dasharray="5,2" d="M238,-406C238,-406 274,-406 274,-406 280,-406 286,-412 286,-418 286,-418 286,-436 286,-436 286,-442 280,-448 274,-448 274,-448 238,-448 238,-448 232,-448 226,-442 226,-436 226,-436 226,-418 226,-418 226,-412 232,-406 238,-406"/>
</g>
<g id="clust28" class="cluster">
<title>outer_cluster_Inst&#45;4</title>
</g>
<g id="clust29" class="cluster">
<title>cluster_Inst&#45;4</title>
<path fill="#bebada" stroke="black" stroke-dasharray="5,2" d="M106,-248C106,-248 142,-248 142,-248 148,-248 154,-254 154,-260 154,-260 154,-278 154,-278 154,-284 148,-290 142,-290 142,-290 106,-290 106,-290 100,-290 94,-284 94,-278 94,-278 94,-260 94,-260 94,-254 100,-248 106,-248"/>
</g>
<g id="clust31" class="cluster">
<title>outer_cluster_Inst&#45;8</title>
</g>
<g id="clust32" class="cluster">
<title>cluster_Inst&#45;8</title>
<path fill="#bebada" stroke="black" stroke-dasharray="5,2" d="M226,-169C226,-169 262,-169 262,-169 268,-169 274,-175 274,-181 274,-181 274,-199 274,-199 274,-205 268,-211 262,-211 262,-211 226,-211 226,-211 220,-211 214,-205 214,-199 214,-199 214,-181 214,-181 214,-175 220,-169 226,-169"/>
</g>
<g id="clust34" class="cluster">
<title>outer_cluster_String&#45;0</title>
</g>
<g id="clust35" class="cluster">
<title>cluster_String&#45;0</title>
<path fill="#fb8072" stroke="black" stroke-dasharray="5,2" d="M172,-11C172,-11 212,-11 212,-11 218,-11 224,-17 224,-23 224,-23 224,-41 224,-41 224,-47 218,-53 212,-53 212,-53 172,-53 172,-53 166,-53 160,-47 160,-41 160,-41 160,-23 160,-23 160,-17 166,-11 172,-11"/>
</g>
<g id="clust37" class="cluster">
<title>outer_cluster_String&#45;1</title>
</g>
<g id="clust38" class="cluster">
<title>cluster_String&#45;1</title>
<path fill="#fb8072" stroke="black" stroke-dasharray="5,2" d="M302,-248C302,-248 342,-248 342,-248 348,-248 354,-254 354,-260 354,-260 354,-278 354,-278 354,-284 348,-290 342,-290 342,-290 302,-290 302,-290 296,-290 290,-284 290,-278 290,-278 290,-260 290,-260 290,-254 296,-248 302,-248"/>
</g>
<g id="clust40" class="cluster">
<title>outer_cluster_String&#45;2</title>
</g>
<g id="clust41" class="cluster">
<title>cluster_String&#45;2</title>
<path fill="#fb8072" stroke="black" stroke-dasharray="5,2" d="M23,-90C23,-90 75,-90 75,-90 81,-90 87,-96 87,-102 87,-102 87,-120 87,-120 87,-126 81,-132 75,-132 75,-132 23,-132 23,-132 17,-132 11,-126 11,-120 11,-120 11,-102 11,-102 11,-96 17,-90 23,-90"/>
</g>
<g id="clust43" class="cluster">
<title>outer_cluster_i64&#45;1</title>
</g>
<g id="clust44" class="cluster">
<title>cluster_i64&#45;1</title>
<path fill="#80b1d3" stroke="black" stroke-dasharray="5,2" d="M315,-90C315,-90 351,-90 351,-90 357,-90 363,-96 363,-102 363,-102 363,-120 363,-120 363,-126 357,-132 351,-132 351,-132 315,-132 315,-132 309,-132 303,-126 303,-120 303,-120 303,-102 303,-102 303,-96 309,-90 315,-90"/>
</g>
<g id="clust46" class="cluster">
<title>outer_cluster_i64&#45;2147483648</title>
</g>
<g id="clust47" class="cluster">
<title>cluster_i64&#45;2147483648</title>
<path fill="#80b1d3" stroke="black" stroke-dasharray="5,2" d="M245,-11C245,-11 281,-11 281,-11 287,-11 293,-17 293,-23 293,-23 293,-41 293,-41 293,-47 287,-53 281,-53 281,-53 245,-53 245,-53 239,-53 233,-47 233,-41 233,-41 233,-23 233,-23 233,-17 239,-11 245,-11"/>
</g>
<g id="clust49" class="cluster">
<title>outer_cluster_i64&#45;64</title>
</g>
<g id="clust50" class="cluster">
<title>cluster_i64&#45;64</title>
<path fill="#80b1d3" stroke="black" stroke-dasharray="5,2" d="M105,-90C105,-90 141,-90 141,-90 147,-90 153,-96 153,-102 153,-102 153,-120 153,-120 153,-126 147,-132 141,-132 141,-132 105,-132 105,-132 99,-132 93,-126 93,-120 93,-120 93,-102 93,-102 93,-96 99,-90 105,-90"/>
</g>
<!-- function&#45;1&#45;ImmVal&#45;&gt;primitive&#45;i64&#45;2147483648 -->
<g id="edge1" class="edge">
<title>function&#45;1&#45;ImmVal:s&#45;&gt;primitive&#45;i64&#45;2147483648</title>
<path fill="none" stroke="black" d="M263,-95C263,-81.84 263,-67.11 263,-55.3"/>
<polygon fill="black" stroke="black" points="264.75,-58 263,-53 261.25,-58 264.75,-58"/>
</g>
<!-- function&#45;0&#45;ImmVal&#45;&gt;primitive&#45;i64&#45;64 -->
<g id="edge2" class="edge">
<title>function&#45;0&#45;ImmVal:s&#45;&gt;primitive&#45;i64&#45;64</title>
<path fill="none" stroke="black" d="M127,-174C127,-160.81 126.09,-146.08 125.13,-134.28"/>
<polygon fill="black" stroke="black" points="127.36,-136.58 124.7,-132 123.92,-137.24 127.36,-136.58"/>
</g>
<!-- function&#45;2&#45;ImmVal&#45;&gt;primitive&#45;i64&#45;1 -->
<g id="edge3" class="edge">
<title>function&#45;2&#45;ImmVal:s&#45;&gt;primitive&#45;i64&#45;1</title>
<path fill="none" stroke="black" d="M325,-174C325,-160.73 326.83,-145.99 328.73,-134.22"/>
<polygon fill="black" stroke="black" points="329.4,-137.29 329.61,-132 326.14,-136.01 329.4,-137.29"/>
</g>
<!-- function&#45;2&#45;RegVal&#45;&gt;primitive&#45;String&#45;2 -->
<g id="edge4" class="edge">
<title>function&#45;2&#45;RegVal:s&#45;&gt;primitive&#45;String&#45;2</title>
<path fill="none" stroke="black" d="M50,-174C50,-160.84 49.77,-146.1 49.53,-134.3"/>
<polygon fill="black" stroke="black" points="51.41,-136.91 49.42,-132 47.91,-137.08 51.41,-136.91"/>
</g>
<!-- function&#45;1&#45;Addi&#45;&gt;function&#45;2&#45;ImmVal -->
<g id="edge6" class="edge">
<title>function&#45;1&#45;Addi:s&#45;&gt;function&#45;2&#45;ImmVal</title>
<path fill="none" stroke="black" d="M264,-253C264,-235.76 276.14,-221.56 289.58,-211.12"/>
<polygon fill="black" stroke="black" points="288.16,-214.48 291,-210.01 285.99,-211.73 288.16,-214.48"/>
</g>
<!-- function&#45;1&#45;Addi&#45;&gt;function&#45;0&#45;Xori -->
<g id="edge5" class="edge">
<title>function&#45;1&#45;Addi:s&#45;&gt;function&#45;0&#45;Xori</title>
<path fill="none" stroke="black" d="M244,-253C244,-239.84 244,-225.11 244,-213.3"/>
<polygon fill="black" stroke="black" points="245.75,-216 244,-211 242.25,-216 245.75,-216"/>
</g>
<!-- function&#45;0&#45;Xori&#45;&gt;function&#45;1&#45;ImmVal -->
<g id="edge20" class="edge">
<title>function&#45;0&#45;Xori:s&#45;&gt;function&#45;1&#45;ImmVal</title>
<path fill="none" stroke="black" d="M253,-174C253,-160.76 255.25,-146.14 257.61,-134.42"/>
<polygon fill="black" stroke="black" points="258.25,-137.28 258.7,-132 255.05,-135.84 258.25,-137.28"/>
</g>
<!-- function&#45;0&#45;Xori&#45;&gt;function&#45;0&#45;RegVal -->
<g id="edge19" class="edge">
<title>function&#45;0&#45;Xori:s&#45;&gt;function&#45;0&#45;RegVal</title>
<path fill="none" stroke="black" d="M235,-174C235,-158.23 225.41,-143.67 215.19,-132.63"/>
<polygon fill="black" stroke="black" points="219,-132.36 213.71,-132 217.62,-135.58 219,-132.36"/>
</g>
<!-- function&#45;0&#45;Add&#45;&gt;function&#45;1&#45;Addi -->
<g id="edge8" class="edge">
<title>function&#45;0&#45;Add:s&#45;&gt;function&#45;1&#45;Addi</title>
<path fill="none" stroke="black" d="M258,-332C258,-318.81 257.09,-304.08 256.13,-292.28"/>
<polygon fill="black" stroke="black" points="258.36,-294.58 255.7,-290 254.92,-295.24 258.36,-294.58"/>
</g>
<!-- function&#45;0&#45;Add&#45;&gt;function&#45;0&#45;Addi -->
<g id="edge7" class="edge">
<title>function&#45;0&#45;Add:s&#45;&gt;function&#45;0&#45;Addi</title>
<path fill="none" stroke="black" d="M240,-332C240,-293.8 190.47,-279.05 156.14,-273.42"/>
<polygon fill="black" stroke="black" points="159.3,-272.69 154,-272.65 158.12,-275.98 159.3,-272.69"/>
</g>
<!-- function&#45;0&#45;Addi&#45;&gt;function&#45;0&#45;ImmVal -->
<g id="edge18" class="edge">
<title>function&#45;0&#45;Addi:s&#45;&gt;function&#45;0&#45;ImmVal</title>
<path fill="none" stroke="black" d="M134,-253C134,-239.76 132.4,-225.02 130.73,-213.24"/>
<polygon fill="black" stroke="black" points="133.24,-215.16 129.97,-211 129.93,-216.3 133.24,-215.16"/>
</g>
<!-- function&#45;0&#45;Addi&#45;&gt;function&#45;2&#45;RegVal -->
<g id="edge17" class="edge">
<title>function&#45;0&#45;Addi:s&#45;&gt;function&#45;2&#45;RegVal</title>
<path fill="none" stroke="black" d="M114,-253C114,-233.33 98.22,-217.99 82.21,-207.49"/>
<polygon fill="black" stroke="black" points="86.11,-208.05 81,-206.66 84.12,-210.94 86.11,-208.05"/>
</g>
<!-- function&#45;1&#45;Add&#45;&gt;function&#45;1&#45;Addi -->
<g id="edge9" class="edge">
<title>function&#45;1&#45;Add:s&#45;&gt;function&#45;1&#45;Addi</title>
<path fill="none" stroke="black" d="M182,-332C182,-309.34 202.73,-293.15 221.94,-283.01"/>
<polygon fill="black" stroke="black" points="220.92,-285.87 224,-281.56 218.9,-283 220.92,-285.87"/>
</g>
<!-- function&#45;1&#45;Add&#45;&gt;function&#45;0&#45;Addi -->
<g id="edge10" class="edge">
<title>function&#45;1&#45;Add:s&#45;&gt;function&#45;0&#45;Addi</title>
<path fill="none" stroke="black" d="M200,-332C200,-307.78 176.54,-291.33 155.68,-281.5"/>
<polygon fill="black" stroke="black" points="159.13,-281.69 154,-280.38 157.2,-284.6 159.13,-281.69"/>
</g>
<!-- function&#45;0&#45;Sub&#45;&gt;function&#45;0&#45;Addi -->
<g id="edge11" class="edge">
<title>function&#45;0&#45;Sub:s&#45;&gt;function&#45;0&#45;Addi</title>
<path fill="none" stroke="black" d="M124,-332C124,-318.84 124,-304.11 124,-292.3"/>
<polygon fill="black" stroke="black" points="125.75,-295 124,-290 122.25,-295 125.75,-295"/>
</g>
<!-- function&#45;0&#45;Sub&#45;&gt;function&#45;0&#45;RegVal -->
<g id="edge12" class="edge">
<title>function&#45;0&#45;Sub:s&#45;&gt;function&#45;0&#45;RegVal</title>
<path fill="none" stroke="black" d="M142,-332C142,-313.73 150.32,-310.66 155,-293 169.96,-236.56 181.86,-168.74 187.48,-134.36"/>
<polygon fill="black" stroke="black" points="188.28,-137.3 188.33,-132 184.99,-136.11 188.28,-137.3"/>
</g>
<!-- function&#45;0&#45;RegVal&#45;&gt;primitive&#45;String&#45;0 -->
<g id="edge13" class="edge">
<title>function&#45;0&#45;RegVal:s&#45;&gt;primitive&#45;String&#45;0</title>
<path fill="none" stroke="black" d="M192,-95C192,-81.84 192,-67.11 192,-55.3"/>
<polygon fill="black" stroke="black" points="193.75,-58 192,-53 190.25,-58 193.75,-58"/>
</g>
<!-- function&#45;1&#45;RegVal&#45;&gt;primitive&#45;String&#45;1 -->
<g id="edge14" class="edge">
<title>function&#45;1&#45;RegVal:s&#45;&gt;primitive&#45;String&#45;1</title>
<path fill="none" stroke="black" d="M320,-332C320,-318.83 320.46,-304.1 320.93,-292.3"/>
<polygon fill="black" stroke="black" points="322.42,-295.14 321.15,-290 318.94,-294.81 322.42,-295.14"/>
</g>
<!-- function&#45;0&#45;Sll&#45;&gt;function&#45;1&#45;Add -->
<g id="edge16" class="edge">
<title>function&#45;0&#45;Sll:s&#45;&gt;function&#45;1&#45;Add</title>
<path fill="none" stroke="black" d="M264,-411C264,-407.82 237.99,-386.35 217.02,-369.55"/>
<polygon fill="black" stroke="black" points="221.16,-369.64 215.9,-369 219.61,-372.78 221.16,-369.64"/>
</g>
<!-- function&#45;0&#45;Sll&#45;&gt;function&#45;1&#45;RegVal -->
<g id="edge15" class="edge">
<title>function&#45;0&#45;Sll:s&#45;&gt;function&#45;1&#45;RegVal</title>
<path fill="none" stroke="black" d="M248,-411C248,-399.67 268.79,-382.44 287.87,-369.03"/>
<polygon fill="black" stroke="black" points="283.33,-371.18 288.16,-369 283.02,-367.69 283.33,-371.18"/>
</g>
<!-- function&#45;1&#45;ImmVal -->
<g id="node1" class="node">
<title>function&#45;1&#45;ImmVal</title>
<g id="a_node1"><a xlink:title="Imm&#45;7: function&#45;1&#45;ImmVal">
<path fill="white" stroke="transparent" d="M242.67,-95C242.67,-95 283.33,-95 283.33,-95 288.67,-95 294,-100.33 294,-105.67 294,-105.67 294,-116.33 294,-116.33 294,-121.67 288.67,-127 283.33,-127 283.33,-127 242.67,-127 242.67,-127 237.33,-127 232,-121.67 232,-116.33 232,-116.33 232,-105.67 232,-105.67 232,-100.33 237.33,-95 242.67,-95"/>
<text text-anchor="start" x="237" y="-107.3" font-family="Helvetica,sans-Serif" font-size="14.00">ImmVal</text>
<path fill="none" stroke="black" d="M242.67,-95C242.67,-95 283.33,-95 283.33,-95 288.67,-95 294,-100.33 294,-105.67 294,-105.67 294,-116.33 294,-116.33 294,-121.67 288.67,-127 283.33,-127 283.33,-127 242.67,-127 242.67,-127 237.33,-127 232,-121.67 232,-116.33 232,-116.33 232,-105.67 232,-105.67 232,-100.33 237.33,-95 242.67,-95"/>
</a>
</g>
</g>
<!-- primitive&#45;i64&#45;2147483648 -->
<g id="node2" class="node">
<title>primitive&#45;i64&#45;2147483648</title>
<g id="a_node2"><a xlink:title="i64&#45;2147483648: primitive&#45;i64&#45;2147483648">
<path fill="white" stroke="transparent" d="M257.67,-16C257.67,-16 268.33,-16 268.33,-16 273.67,-16 279,-21.33 279,-26.67 279,-26.67 279,-37.33 279,-37.33 279,-42.67 273.67,-48 268.33,-48 268.33,-48 257.67,-48 257.67,-48 252.33,-48 247,-42.67 247,-37.33 247,-37.33 247,-26.67 247,-26.67 247,-21.33 252.33,-16 257.67,-16"/>
<text text-anchor="start" x="255.5" y="-28.3" font-family="Helvetica,sans-Serif" font-size="14.00">&#45;1</text>
<path fill="none" stroke="black" d="M257.67,-16C257.67,-16 268.33,-16 268.33,-16 273.67,-16 279,-21.33 279,-26.67 279,-26.67 279,-37.33 279,-37.33 279,-42.67 273.67,-48 268.33,-48 268.33,-48 257.67,-48 257.67,-48 252.33,-48 247,-42.67 247,-37.33 247,-37.33 247,-26.67 247,-26.67 247,-21.33 252.33,-16 257.67,-16"/>
</a>
</g>
</g>
<!-- function&#45;0&#45;ImmVal -->
<g id="node3" class="node">
<title>function&#45;0&#45;ImmVal</title>
<g id="a_node3"><a xlink:title="Imm&#45;3: function&#45;0&#45;ImmVal">
<path fill="white" stroke="transparent" d="M106.67,-174C106.67,-174 147.33,-174 147.33,-174 152.67,-174 158,-179.33 158,-184.67 158,-184.67 158,-195.33 158,-195.33 158,-200.67 152.67,-206 147.33,-206 147.33,-206 106.67,-206 106.67,-206 101.33,-206 96,-200.67 96,-195.33 96,-195.33 96,-184.67 96,-184.67 96,-179.33 101.33,-174 106.67,-174"/>
<text text-anchor="start" x="101" y="-186.3" font-family="Helvetica,sans-Serif" font-size="14.00">ImmVal</text>
<path fill="none" stroke="black" d="M106.67,-174C106.67,-174 147.33,-174 147.33,-174 152.67,-174 158,-179.33 158,-184.67 158,-184.67 158,-195.33 158,-195.33 158,-200.67 152.67,-206 147.33,-206 147.33,-206 106.67,-206 106.67,-206 101.33,-206 96,-200.67 96,-195.33 96,-195.33 96,-184.67 96,-184.67 96,-179.33 101.33,-174 106.67,-174"/>
</a>
</g>
</g>
<!-- primitive&#45;i64&#45;64 -->
<g id="node4" class="node">
<title>primitive&#45;i64&#45;64</title>
<g id="a_node4"><a xlink:title="i64&#45;64: primitive&#45;i64&#45;64">
<path fill="white" stroke="transparent" d="M117.67,-95C117.67,-95 128.33,-95 128.33,-95 133.67,-95 139,-100.33 139,-105.67 139,-105.67 139,-116.33 139,-116.33 139,-121.67 133.67,-127 128.33,-127 128.33,-127 117.67,-127 117.67,-127 112.33,-127 107,-121.67 107,-116.33 107,-116.33 107,-105.67 107,-105.67 107,-100.33 112.33,-95 117.67,-95"/>
<text text-anchor="start" x="113.5" y="-107.3" font-family="Helvetica,sans-Serif" font-size="14.00">64</text>
<path fill="none" stroke="black" d="M117.67,-95C117.67,-95 128.33,-95 128.33,-95 133.67,-95 139,-100.33 139,-105.67 139,-105.67 139,-116.33 139,-116.33 139,-121.67 133.67,-127 128.33,-127 128.33,-127 117.67,-127 117.67,-127 112.33,-127 107,-121.67 107,-116.33 107,-116.33 107,-105.67 107,-105.67 107,-100.33 112.33,-95 117.67,-95"/>
</a>
</g>
</g>
<!-- function&#45;2&#45;ImmVal -->
<g id="node5" class="node">
<title>function&#45;2&#45;ImmVal</title>
<g id="a_node5"><a xlink:title="Imm&#45;9: function&#45;2&#45;ImmVal">
<path fill="white" stroke="transparent" d="M304.67,-174C304.67,-174 345.33,-174 345.33,-174 350.67,-174 356,-179.33 356,-184.67 356,-184.67 356,-195.33 356,-195.33 356,-200.67 350.67,-206 345.33,-206 345.33,-206 304.67,-206 304.67,-206 299.33,-206 294,-200.67 294,-195.33 294,-195.33 294,-184.67 294,-184.67 294,-179.33 299.33,-174 304.67,-174"/>
<text text-anchor="start" x="299" y="-186.3" font-family="Helvetica,sans-Serif" font-size="14.00">ImmVal</text>
<path fill="none" stroke="black" d="M304.67,-174C304.67,-174 345.33,-174 345.33,-174 350.67,-174 356,-179.33 356,-184.67 356,-184.67 356,-195.33 356,-195.33 356,-200.67 350.67,-206 345.33,-206 345.33,-206 304.67,-206 304.67,-206 299.33,-206 294,-200.67 294,-195.33 294,-195.33 294,-184.67 294,-184.67 294,-179.33 299.33,-174 304.67,-174"/>
</a>
</g>
</g>
<!-- primitive&#45;i64&#45;1 -->
<g id="node6" class="node">
<title>primitive&#45;i64&#45;1</title>
<g id="a_node6"><a xlink:title="i64&#45;1: primitive&#45;i64&#45;1">
<path fill="white" stroke="transparent" d="M327.67,-95C327.67,-95 338.33,-95 338.33,-95 343.67,-95 349,-100.33 349,-105.67 349,-105.67 349,-116.33 349,-116.33 349,-121.67 343.67,-127 338.33,-127 338.33,-127 327.67,-127 327.67,-127 322.33,-127 317,-121.67 317,-116.33 317,-116.33 317,-105.67 317,-105.67 317,-100.33 322.33,-95 327.67,-95"/>
<text text-anchor="start" x="328" y="-107.3" font-family="Helvetica,sans-Serif" font-size="14.00">1</text>
<path fill="none" stroke="black" d="M327.67,-95C327.67,-95 338.33,-95 338.33,-95 343.67,-95 349,-100.33 349,-105.67 349,-105.67 349,-116.33 349,-116.33 349,-121.67 343.67,-127 338.33,-127 338.33,-127 327.67,-127 327.67,-127 322.33,-127 317,-121.67 317,-116.33 317,-116.33 317,-105.67 317,-105.67 317,-100.33 322.33,-95 327.67,-95"/>
</a>
</g>
</g>
<!-- function&#45;2&#45;RegVal -->
<g id="node7" class="node">
<title>function&#45;2&#45;RegVal</title>
<g id="a_node7"><a xlink:title="Inst&#45;2: function&#45;2&#45;RegVal">
<path fill="white" stroke="transparent" d="M31.17,-174C31.17,-174 66.83,-174 66.83,-174 72.17,-174 77.5,-179.33 77.5,-184.67 77.5,-184.67 77.5,-195.33 77.5,-195.33 77.5,-200.67 72.17,-206 66.83,-206 66.83,-206 31.17,-206 31.17,-206 25.83,-206 20.5,-200.67 20.5,-195.33 20.5,-195.33 20.5,-184.67 20.5,-184.67 20.5,-179.33 25.83,-174 31.17,-174"/>
<text text-anchor="start" x="26" y="-186.3" font-family="Helvetica,sans-Serif" font-size="14.00">RegVal</text>
<path fill="none" stroke="black" d="M31.17,-174C31.17,-174 66.83,-174 66.83,-174 72.17,-174 77.5,-179.33 77.5,-184.67 77.5,-184.67 77.5,-195.33 77.5,-195.33 77.5,-200.67 72.17,-206 66.83,-206 66.83,-206 31.17,-206 31.17,-206 25.83,-206 20.5,-200.67 20.5,-195.33 20.5,-195.33 20.5,-184.67 20.5,-184.67 20.5,-179.33 25.83,-174 31.17,-174"/>
</a>
</g>
</g>
<!-- primitive&#45;String&#45;2 -->
<g id="node8" class="node">
<title>primitive&#45;String&#45;2</title>
<g id="a_node8"><a xlink:title="String&#45;2: primitive&#45;String&#45;2">
<path fill="white" stroke="transparent" d="M25.17,-95C25.17,-95 72.83,-95 72.83,-95 78.17,-95 83.5,-100.33 83.5,-105.67 83.5,-105.67 83.5,-116.33 83.5,-116.33 83.5,-121.67 78.17,-127 72.83,-127 72.83,-127 25.17,-127 25.17,-127 19.83,-127 14.5,-121.67 14.5,-116.33 14.5,-116.33 14.5,-105.67 14.5,-105.67 14.5,-100.33 19.83,-95 25.17,-95"/>
<text text-anchor="start" x="20" y="-107.3" font-family="Helvetica,sans-Serif" font-size="14.00">&quot;zero_0&quot;</text>
<path fill="none" stroke="black" d="M25.17,-95C25.17,-95 72.83,-95 72.83,-95 78.17,-95 83.5,-100.33 83.5,-105.67 83.5,-105.67 83.5,-116.33 83.5,-116.33 83.5,-121.67 78.17,-127 72.83,-127 72.83,-127 25.17,-127 25.17,-127 19.83,-127 14.5,-121.67 14.5,-116.33 14.5,-116.33 14.5,-105.67 14.5,-105.67 14.5,-100.33 19.83,-95 25.17,-95"/>
</a>
</g>
</g>
<!-- function&#45;1&#45;Addi -->
<g id="node9" class="node">
<title>function&#45;1&#45;Addi</title>
<g id="a_node9"><a xlink:title="Inst&#45;10: function&#45;1&#45;Addi">
<path fill="white" stroke="transparent" d="M244.17,-253C244.17,-253 263.83,-253 263.83,-253 269.17,-253 274.5,-258.33 274.5,-263.67 274.5,-263.67 274.5,-274.33 274.5,-274.33 274.5,-279.67 269.17,-285 263.83,-285 263.83,-285 244.17,-285 244.17,-285 238.83,-285 233.5,-279.67 233.5,-274.33 233.5,-274.33 233.5,-263.67 233.5,-263.67 233.5,-258.33 238.83,-253 244.17,-253"/>
<text text-anchor="start" x="239" y="-265.3" font-family="Helvetica,sans-Serif" font-size="14.00">Addi</text>
<path fill="none" stroke="black" d="M244.17,-253C244.17,-253 263.83,-253 263.83,-253 269.17,-253 274.5,-258.33 274.5,-263.67 274.5,-263.67 274.5,-274.33 274.5,-274.33 274.5,-279.67 269.17,-285 263.83,-285 263.83,-285 244.17,-285 244.17,-285 238.83,-285 233.5,-279.67 233.5,-274.33 233.5,-274.33 233.5,-263.67 233.5,-263.67 233.5,-258.33 238.83,-253 244.17,-253"/>
</a>
</g>
</g>
<!-- function&#45;0&#45;Xori -->
<g id="node10" class="node">
<title>function&#45;0&#45;Xori</title>
<g id="a_node10"><a xlink:title="Inst&#45;8: function&#45;0&#45;Xori">
<path fill="white" stroke="transparent" d="M235.67,-174C235.67,-174 252.33,-174 252.33,-174 257.67,-174 263,-179.33 263,-184.67 263,-184.67 263,-195.33 263,-195.33 263,-200.67 257.67,-206 252.33,-206 252.33,-206 235.67,-206 235.67,-206 230.33,-206 225,-200.67 225,-195.33 225,-195.33 225,-184.67 225,-184.67 225,-179.33 230.33,-174 235.67,-174"/>
<text text-anchor="start" x="230" y="-186.3" font-family="Helvetica,sans-Serif" font-size="14.00">Xori</text>
<path fill="none" stroke="black" d="M235.67,-174C235.67,-174 252.33,-174 252.33,-174 257.67,-174 263,-179.33 263,-184.67 263,-184.67 263,-195.33 263,-195.33 263,-200.67 257.67,-206 252.33,-206 252.33,-206 235.67,-206 235.67,-206 230.33,-206 225,-200.67 225,-195.33 225,-195.33 225,-184.67 225,-184.67 225,-179.33 230.33,-174 235.67,-174"/>
</a>
</g>
</g>
<!-- function&#45;0&#45;Add -->
<g id="node11" class="node">
<title>function&#45;0&#45;Add</title>
<g id="a_node11"><a xlink:title="Inst&#45;5: function&#45;0&#45;Add">
<path fill="white" stroke="transparent" d="M240.67,-332C240.67,-332 257.33,-332 257.33,-332 262.67,-332 268,-337.33 268,-342.67 268,-342.67 268,-353.33 268,-353.33 268,-358.67 262.67,-364 257.33,-364 257.33,-364 240.67,-364 240.67,-364 235.33,-364 230,-358.67 230,-353.33 230,-353.33 230,-342.67 230,-342.67 230,-337.33 235.33,-332 240.67,-332"/>
<text text-anchor="start" x="235" y="-344.3" font-family="Helvetica,sans-Serif" font-size="14.00">Add</text>
<path fill="none" stroke="black" d="M240.67,-332C240.67,-332 257.33,-332 257.33,-332 262.67,-332 268,-337.33 268,-342.67 268,-342.67 268,-353.33 268,-353.33 268,-358.67 262.67,-364 257.33,-364 257.33,-364 240.67,-364 240.67,-364 235.33,-364 230,-358.67 230,-353.33 230,-353.33 230,-342.67 230,-342.67 230,-337.33 235.33,-332 240.67,-332"/>
</a>
</g>
</g>
<!-- function&#45;0&#45;Addi -->
<g id="node12" class="node">
<title>function&#45;0&#45;Addi</title>
<g id="a_node12"><a xlink:title="Inst&#45;4: function&#45;0&#45;Addi">
<path fill="white" stroke="transparent" d="M114.17,-253C114.17,-253 133.83,-253 133.83,-253 139.17,-253 144.5,-258.33 144.5,-263.67 144.5,-263.67 144.5,-274.33 144.5,-274.33 144.5,-279.67 139.17,-285 133.83,-285 133.83,-285 114.17,-285 114.17,-285 108.83,-285 103.5,-279.67 103.5,-274.33 103.5,-274.33 103.5,-263.67 103.5,-263.67 103.5,-258.33 108.83,-253 114.17,-253"/>
<text text-anchor="start" x="109" y="-265.3" font-family="Helvetica,sans-Serif" font-size="14.00">Addi</text>
<path fill="none" stroke="black" d="M114.17,-253C114.17,-253 133.83,-253 133.83,-253 139.17,-253 144.5,-258.33 144.5,-263.67 144.5,-263.67 144.5,-274.33 144.5,-274.33 144.5,-279.67 139.17,-285 133.83,-285 133.83,-285 114.17,-285 114.17,-285 108.83,-285 103.5,-279.67 103.5,-274.33 103.5,-274.33 103.5,-263.67 103.5,-263.67 103.5,-258.33 108.83,-253 114.17,-253"/>
</a>
</g>
</g>
<!-- function&#45;1&#45;Add -->
<g id="node13" class="node">
<title>function&#45;1&#45;Add</title>
<g id="a_node13"><a xlink:title="Inst&#45;5: function&#45;1&#45;Add">
<path fill="white" stroke="transparent" d="M182.67,-332C182.67,-332 199.33,-332 199.33,-332 204.67,-332 210,-337.33 210,-342.67 210,-342.67 210,-353.33 210,-353.33 210,-358.67 204.67,-364 199.33,-364 199.33,-364 182.67,-364 182.67,-364 177.33,-364 172,-358.67 172,-353.33 172,-353.33 172,-342.67 172,-342.67 172,-337.33 177.33,-332 182.67,-332"/>
<text text-anchor="start" x="177" y="-344.3" font-family="Helvetica,sans-Serif" font-size="14.00">Add</text>
<path fill="none" stroke="black" d="M182.67,-332C182.67,-332 199.33,-332 199.33,-332 204.67,-332 210,-337.33 210,-342.67 210,-342.67 210,-353.33 210,-353.33 210,-358.67 204.67,-364 199.33,-364 199.33,-364 182.67,-364 182.67,-364 177.33,-364 172,-358.67 172,-353.33 172,-353.33 172,-342.67 172,-342.67 172,-337.33 177.33,-332 182.67,-332"/>
</a>
</g>
</g>
<!-- function&#45;0&#45;Sub -->
<g id="node14" class="node">
<title>function&#45;0&#45;Sub</title>
<g id="a_node14"><a xlink:title="Inst&#45;5: function&#45;0&#45;Sub">
<path fill="white" stroke="transparent" d="M124.67,-332C124.67,-332 141.33,-332 141.33,-332 146.67,-332 152,-337.33 152,-342.67 152,-342.67 152,-353.33 152,-353.33 152,-358.67 146.67,-364 141.33,-364 141.33,-364 124.67,-364 124.67,-364 119.33,-364 114,-358.67 114,-353.33 114,-353.33 114,-342.67 114,-342.67 114,-337.33 119.33,-332 124.67,-332"/>
<text text-anchor="start" x="119" y="-344.3" font-family="Helvetica,sans-Serif" font-size="14.00">Sub</text>
<path fill="none" stroke="black" d="M124.67,-332C124.67,-332 141.33,-332 141.33,-332 146.67,-332 152,-337.33 152,-342.67 152,-342.67 152,-353.33 152,-353.33 152,-358.67 146.67,-364 141.33,-364 141.33,-364 124.67,-364 124.67,-364 119.33,-364 114,-358.67 114,-353.33 114,-353.33 114,-342.67 114,-342.67 114,-337.33 119.33,-332 124.67,-332"/>
</a>
</g>
</g>
<!-- function&#45;0&#45;RegVal -->
<g id="node15" class="node">
<title>function&#45;0&#45;RegVal</title>
<g id="a_node15"><a xlink:title="Inst&#45;0: function&#45;0&#45;RegVal">
<path fill="white" stroke="transparent" d="M173.17,-95C173.17,-95 208.83,-95 208.83,-95 214.17,-95 219.5,-100.33 219.5,-105.67 219.5,-105.67 219.5,-116.33 219.5,-116.33 219.5,-121.67 214.17,-127 208.83,-127 208.83,-127 173.17,-127 173.17,-127 167.83,-127 162.5,-121.67 162.5,-116.33 162.5,-116.33 162.5,-105.67 162.5,-105.67 162.5,-100.33 167.83,-95 173.17,-95"/>
<text text-anchor="start" x="168" y="-107.3" font-family="Helvetica,sans-Serif" font-size="14.00">RegVal</text>
<path fill="none" stroke="black" d="M173.17,-95C173.17,-95 208.83,-95 208.83,-95 214.17,-95 219.5,-100.33 219.5,-105.67 219.5,-105.67 219.5,-116.33 219.5,-116.33 219.5,-121.67 214.17,-127 208.83,-127 208.83,-127 173.17,-127 173.17,-127 167.83,-127 162.5,-121.67 162.5,-116.33 162.5,-116.33 162.5,-105.67 162.5,-105.67 162.5,-100.33 167.83,-95 173.17,-95"/>
</a>
</g>
</g>
<!-- primitive&#45;String&#45;0 -->
<g id="node16" class="node">
<title>primitive&#45;String&#45;0</title>
<g id="a_node16"><a xlink:title="String&#45;0: primitive&#45;String&#45;0">
<path fill="white" stroke="transparent" d="M174.17,-16C174.17,-16 209.83,-16 209.83,-16 215.17,-16 220.5,-21.33 220.5,-26.67 220.5,-26.67 220.5,-37.33 220.5,-37.33 220.5,-42.67 215.17,-48 209.83,-48 209.83,-48 174.17,-48 174.17,-48 168.83,-48 163.5,-42.67 163.5,-37.33 163.5,-37.33 163.5,-26.67 163.5,-26.67 163.5,-21.33 168.83,-16 174.17,-16"/>
<text text-anchor="start" x="169" y="-28.3" font-family="Helvetica,sans-Serif" font-size="14.00">&quot;a3_0&quot;</text>
<path fill="none" stroke="black" d="M174.17,-16C174.17,-16 209.83,-16 209.83,-16 215.17,-16 220.5,-21.33 220.5,-26.67 220.5,-26.67 220.5,-37.33 220.5,-37.33 220.5,-42.67 215.17,-48 209.83,-48 209.83,-48 174.17,-48 174.17,-48 168.83,-48 163.5,-42.67 163.5,-37.33 163.5,-37.33 163.5,-26.67 163.5,-26.67 163.5,-21.33 168.83,-16 174.17,-16"/>
</a>
</g>
</g>
<!-- function&#45;1&#45;RegVal -->
<g id="node17" class="node">
<title>function&#45;1&#45;RegVal</title>
<g id="a_node17"><a xlink:title="Inst&#45;1: function&#45;1&#45;RegVal">
<path fill="white" stroke="transparent" d="M301.17,-332C301.17,-332 336.83,-332 336.83,-332 342.17,-332 347.5,-337.33 347.5,-342.67 347.5,-342.67 347.5,-353.33 347.5,-353.33 347.5,-358.67 342.17,-364 336.83,-364 336.83,-364 301.17,-364 301.17,-364 295.83,-364 290.5,-358.67 290.5,-353.33 290.5,-353.33 290.5,-342.67 290.5,-342.67 290.5,-337.33 295.83,-332 301.17,-332"/>
<text text-anchor="start" x="296" y="-344.3" font-family="Helvetica,sans-Serif" font-size="14.00">RegVal</text>
<path fill="none" stroke="black" d="M301.17,-332C301.17,-332 336.83,-332 336.83,-332 342.17,-332 347.5,-337.33 347.5,-342.67 347.5,-342.67 347.5,-353.33 347.5,-353.33 347.5,-358.67 342.17,-364 336.83,-364 336.83,-364 301.17,-364 301.17,-364 295.83,-364 290.5,-358.67 290.5,-353.33 290.5,-353.33 290.5,-342.67 290.5,-342.67 290.5,-337.33 295.83,-332 301.17,-332"/>
</a>
</g>
</g>
<!-- primitive&#45;String&#45;1 -->
<g id="node18" class="node">
<title>primitive&#45;String&#45;1</title>
<g id="a_node18"><a xlink:title="String&#45;1: primitive&#45;String&#45;1">
<path fill="white" stroke="transparent" d="M304.17,-253C304.17,-253 339.83,-253 339.83,-253 345.17,-253 350.5,-258.33 350.5,-263.67 350.5,-263.67 350.5,-274.33 350.5,-274.33 350.5,-279.67 345.17,-285 339.83,-285 339.83,-285 304.17,-285 304.17,-285 298.83,-285 293.5,-279.67 293.5,-274.33 293.5,-274.33 293.5,-263.67 293.5,-263.67 293.5,-258.33 298.83,-253 304.17,-253"/>
<text text-anchor="start" x="299" y="-265.3" font-family="Helvetica,sans-Serif" font-size="14.00">&quot;a5_0&quot;</text>
<path fill="none" stroke="black" d="M304.17,-253C304.17,-253 339.83,-253 339.83,-253 345.17,-253 350.5,-258.33 350.5,-263.67 350.5,-263.67 350.5,-274.33 350.5,-274.33 350.5,-279.67 345.17,-285 339.83,-285 339.83,-285 304.17,-285 304.17,-285 298.83,-285 293.5,-279.67 293.5,-274.33 293.5,-274.33 293.5,-263.67 293.5,-263.67 293.5,-258.33 298.83,-253 304.17,-253"/>
</a>
</g>
</g>
<!-- function&#45;0&#45;Sll -->
<g id="node19" class="node">
<title>function&#45;0&#45;Sll</title>
<g id="a_node19"><a xlink:title="Inst&#45;6: function&#45;0&#45;Sll">
<path fill="white" stroke="transparent" d="M250.67,-411C250.67,-411 261.33,-411 261.33,-411 266.67,-411 272,-416.33 272,-421.67 272,-421.67 272,-432.33 272,-432.33 272,-437.67 266.67,-443 261.33,-443 261.33,-443 250.67,-443 250.67,-443 245.33,-443 240,-437.67 240,-432.33 240,-432.33 240,-421.67 240,-421.67 240,-416.33 245.33,-411 250.67,-411"/>
<text text-anchor="start" x="247.5" y="-423.3" font-family="Helvetica,sans-Serif" font-size="14.00">Sll</text>
<path fill="none" stroke="black" d="M250.67,-411C250.67,-411 261.33,-411 261.33,-411 266.67,-411 272,-416.33 272,-421.67 272,-421.67 272,-432.33 272,-432.33 272,-437.67 266.67,-443 261.33,-443 261.33,-443 250.67,-443 250.67,-443 245.33,-443 240,-437.67 240,-432.33 240,-432.33 240,-421.67 240,-421.67 240,-416.33 245.33,-411 250.67,-411"/>
</a>
</g>
</g>
</g>
</svg>
