<?xml version="1.0" encoding="UTF-8" standalone="no"?>
<!DOCTYPE svg PUBLIC "-//W3C//DTD SVG 1.1//EN"
 "http://www.w3.org/Graphics/SVG/1.1/DTD/svg11.dtd">
<!-- Generated by graphviz version 2.43.0 (0)
 -->
<!-- Title: %3 Pages: 1 -->
<svg width="509pt" height="388pt"
 viewBox="0.00 0.00 509.22 388.00" xmlns="http://www.w3.org/2000/svg" xmlns:xlink="http://www.w3.org/1999/xlink">
<g id="graph0" class="graph" transform="scale(1 1) rotate(0) translate(4 384)">
<title>%3</title>
<polygon fill="white" stroke="#000000" points="-4,4 -4,-384 505.22,-384 505.22,4 -4,4"/>
<g id="clust1" class="cluster">
<title>outer_cluster_Imm&#45;2</title>
</g>
<g id="clust2" class="cluster">
<title>cluster_Imm&#45;2</title>
<path fill="#ffffb3" stroke="black" stroke-dasharray="5,2" d="M61,-169C61,-169 105,-169 105,-169 111,-169 117,-175 117,-181 117,-181 117,-199 117,-199 117,-205 111,-211 105,-211 105,-211 61,-211 61,-211 55,-211 49,-205 49,-199 49,-199 49,-181 49,-181 49,-175 55,-169 61,-169"/>
</g>
<g id="clust4" class="cluster">
<title>outer_cluster_Imm&#45;4</title>
</g>
<g id="clust5" class="cluster">
<title>cluster_Imm&#45;4</title>
<path fill="#ffffb3" stroke="black" stroke-dasharray="5,2" d="M271,-90C271,-90 315,-90 315,-90 321,-90 327,-96 327,-102 327,-102 327,-120 327,-120 327,-126 321,-132 315,-132 315,-132 271,-132 271,-132 265,-132 259,-126 259,-120 259,-120 259,-102 259,-102 259,-96 265,-90 271,-90"/>
</g>
<g id="clust7" class="cluster">
<title>outer_cluster_Inst&#45;6</title>
</g>
<g id="clust8" class="cluster">
<title>cluster_Inst&#45;6</title>
<path fill="#bebada" stroke="black" stroke-dasharray="5,2" d="M26,-248C26,-248 62,-248 62,-248 68,-248 74,-254 74,-260 74,-260 74,-278 74,-278 74,-284 68,-290 62,-290 62,-290 26,-290 26,-290 20,-290 14,-284 14,-278 14,-278 14,-260 14,-260 14,-254 20,-248 26,-248"/>
</g>
<g id="clust10" class="cluster">
<title>outer_cluster_Inst&#45;5</title>
</g>
<g id="clust11" class="cluster">
<title>cluster_Inst&#45;5</title>
<path fill="#bebada" stroke="black" stroke-dasharray="5,2" d="M134,-248C134,-248 286,-248 286,-248 292,-248 298,-254 298,-260 298,-260 298,-278 298,-278 298,-284 292,-290 286,-290 286,-290 134,-290 134,-290 128,-290 122,-284 122,-278 122,-278 122,-260 122,-260 122,-254 128,-248 134,-248"/>
</g>
<g id="clust13" class="cluster">
<title>outer_cluster_Inst&#45;1</title>
</g>
<g id="clust14" class="cluster">
<title>cluster_Inst&#45;1</title>
<path fill="#bebada" stroke="black" stroke-dasharray="5,2" d="M154,-169C154,-169 194,-169 194,-169 200,-169 206,-175 206,-181 206,-181 206,-199 206,-199 206,-205 200,-211 194,-211 194,-211 154,-211 154,-211 148,-211 142,-205 142,-199 142,-199 142,-181 142,-181 142,-175 148,-169 154,-169"/>
</g>
<g id="clust16" class="cluster">
<title>outer_cluster_Inst&#45;3</title>
</g>
<g id="clust17" class="cluster">
<title>cluster_Inst&#45;3</title>
<path fill="#bebada" stroke="black" stroke-dasharray="5,2" d="M23,-327C23,-327 175,-327 175,-327 181,-327 187,-333 187,-339 187,-339 187,-357 187,-357 187,-363 181,-369 175,-369 175,-369 23,-369 23,-369 17,-369 11,-363 11,-357 11,-357 11,-339 11,-339 11,-333 17,-327 23,-327"/>
</g>
<g id="clust19" class="cluster">
<title>outer_cluster_Inst&#45;0</title>
</g>
<g id="clust20" class="cluster">
<title>cluster_Inst&#45;0</title>
<path fill="#bebada" stroke="black" stroke-dasharray="5,2" d="M399,-169C399,-169 439,-169 439,-169 445,-169 451,-175 451,-181 451,-181 451,-199 451,-199 451,-205 445,-211 439,-211 439,-211 399,-211 399,-211 393,-211 387,-205 387,-199 387,-199 387,-181 387,-181 387,-175 393,-169 399,-169"/>
</g>
<g id="clust22" class="cluster">
<title>outer_cluster_Inst&#45;7</title>
</g>
<g id="clust23" class="cluster">
<title>cluster_Inst&#45;7</title>
<path fill="#bebada" stroke="black" stroke-dasharray="5,2" d="M316,-248C316,-248 468,-248 468,-248 474,-248 480,-254 480,-260 480,-260 480,-278 480,-278 480,-284 474,-290 468,-290 468,-290 316,-290 316,-290 310,-290 304,-284 304,-278 304,-278 304,-260 304,-260 304,-254 310,-248 316,-248"/>
</g>
<g id="clust25" class="cluster">
<title>outer_cluster_Inst&#45;8</title>
</g>
<g id="clust26" class="cluster">
<title>cluster_Inst&#45;8</title>
<path fill="#bebada" stroke="black" stroke-dasharray="5,2" d="M275,-169C275,-169 311,-169 311,-169 317,-169 323,-175 323,-181 323,-181 323,-199 323,-199 323,-205 317,-211 311,-211 311,-211 275,-211 275,-211 269,-211 263,-205 263,-199 263,-199 263,-181 263,-181 263,-175 269,-169 275,-169"/>
</g>
<g id="clust28" class="cluster">
<title>outer_cluster_String&#45;0</title>
</g>
<g id="clust29" class="cluster">
<title>cluster_String&#45;0</title>
<path fill="#fb8072" stroke="black" stroke-dasharray="5,2" d="M400,-90C400,-90 440,-90 440,-90 446,-90 452,-96 452,-102 452,-102 452,-120 452,-120 452,-126 446,-132 440,-132 440,-132 400,-132 400,-132 394,-132 388,-126 388,-120 388,-120 388,-102 388,-102 388,-96 394,-90 400,-90"/>
</g>
<g id="clust31" class="cluster">
<title>outer_cluster_String&#45;1</title>
</g>
<g id="clust32" class="cluster">
<title>cluster_String&#45;1</title>
<path fill="#fb8072" stroke="black" stroke-dasharray="5,2" d="M157,-90C157,-90 193,-90 193,-90 199,-90 205,-96 205,-102 205,-102 205,-120 205,-120 205,-126 199,-132 193,-132 193,-132 157,-132 157,-132 151,-132 145,-126 145,-120 145,-120 145,-102 145,-102 145,-96 151,-90 157,-90"/>
</g>
<g id="clust34" class="cluster">
<title>outer_cluster_i64&#45;0</title>
</g>
<g id="clust35" class="cluster">
<title>cluster_i64&#45;0</title>
<path fill="#80b1d3" stroke="black" stroke-dasharray="5,2" d="M65,-90C65,-90 101,-90 101,-90 107,-90 113,-96 113,-102 113,-102 113,-120 113,-120 113,-126 107,-132 101,-132 101,-132 65,-132 65,-132 59,-132 53,-126 53,-120 53,-120 53,-102 53,-102 53,-96 59,-90 65,-90"/>
</g>
<g id="clust37" class="cluster">
<title>outer_cluster_i64&#45;4</title>
</g>
<g id="clust38" class="cluster">
<title>cluster_i64&#45;4</title>
<path fill="#80b1d3" stroke="black" stroke-dasharray="5,2" d="M275,-11C275,-11 311,-11 311,-11 317,-11 323,-17 323,-23 323,-23 323,-41 323,-41 323,-47 317,-53 311,-53 311,-53 275,-53 275,-53 269,-53 263,-47 263,-41 263,-41 263,-23 263,-23 263,-17 269,-11 275,-11"/>
</g>
<!-- function&#45;0&#45;ImmVal&#45;&gt;primitive&#45;i64&#45;0 -->
<g id="edge1" class="edge">
<title>function&#45;0&#45;ImmVal:s&#45;&gt;primitive&#45;i64&#45;0</title>
<path fill="none" stroke="black" d="M83,-174C83,-160.84 83,-146.11 83,-134.3"/>
<polygon fill="black" stroke="black" points="84.75,-137 83,-132 81.25,-137 84.75,-137"/>
</g>
<!-- function&#45;1&#45;ImmVal&#45;&gt;primitive&#45;i64&#45;4 -->
<g id="edge2" class="edge">
<title>function&#45;1&#45;ImmVal:s&#45;&gt;primitive&#45;i64&#45;4</title>
<path fill="none" stroke="black" d="M293,-95C293,-81.84 293,-67.11 293,-55.3"/>
<polygon fill="black" stroke="black" points="294.75,-58 293,-53 291.25,-58 294.75,-58"/>
</g>
<!-- function&#45;0&#45;Jal&#45;&gt;function&#45;0&#45;ImmVal -->
<g id="edge3" class="edge">
<title>function&#45;0&#45;Jal:s&#45;&gt;function&#45;0&#45;ImmVal</title>
<path fill="none" stroke="black" d="M44,-253C44,-237.82 52.48,-223.32 61.52,-212.17"/>
<polygon fill="black" stroke="black" points="60.24,-215.6 62.87,-211 57.95,-212.95 60.24,-215.6"/>
</g>
<!-- function&#45;0&#45;Beq&#45;&gt;function&#45;1&#45;ImmVal -->
<g id="edge6" class="edge">
<title>function&#45;0&#45;Beq:s&#45;&gt;function&#45;1&#45;ImmVal</title>
<path fill="none" stroke="black" d="M166,-253C166,-227.85 192.21,-234.34 207,-214 220.91,-194.87 215.6,-184.77 230,-166 239.61,-153.48 252.53,-141.79 264.17,-132.51"/>
<polygon fill="black" stroke="black" points="261.44,-135.53 265.39,-132 260.1,-132.3 261.44,-135.53"/>
</g>
<!-- function&#45;0&#45;Beq&#45;&gt;function&#45;1&#45;RegVal -->
<g id="edge4" class="edge">
<title>function&#45;0&#45;Beq:s&#45;&gt;function&#45;1&#45;RegVal</title>
<path fill="none" stroke="black" d="M143,-253C143,-238.44 149.92,-223.8 157.22,-212.41"/>
<polygon fill="black" stroke="black" points="156.14,-215.37 159.13,-211 154.07,-212.55 156.14,-215.37"/>
</g>
<!-- function&#45;0&#45;Beq&#45;&gt;function&#45;0&#45;RegVal -->
<g id="edge5" class="edge">
<title>function&#45;0&#45;Beq:s&#45;&gt;function&#45;0&#45;RegVal</title>
<path fill="none" stroke="black" d="M157,-253C157,-240.91 171.31,-248.08 183,-245 245.05,-228.66 261.48,-228.44 324,-214 344.4,-209.29 367.21,-203.77 385.36,-199.33"/>
<polygon fill="black" stroke="black" points="384.04,-202.5 387,-198.1 381.95,-199.69 384.04,-202.5"/>
</g>
<!-- function&#45;1&#45;RegVal&#45;&gt;primitive&#45;String&#45;1 -->
<g id="edge12" class="edge">
<title>function&#45;1&#45;RegVal:s&#45;&gt;primitive&#45;String&#45;1</title>
<path fill="none" stroke="black" d="M175,-174C175,-160.84 175,-146.11 175,-134.3"/>
<polygon fill="black" stroke="black" points="176.75,-137 175,-132 173.25,-137 176.75,-137"/>
</g>
<!-- function&#45;0&#45;RegVal&#45;&gt;primitive&#45;String&#45;0 -->
<g id="edge21" class="edge">
<title>function&#45;0&#45;RegVal:s&#45;&gt;primitive&#45;String&#45;0</title>
<path fill="none" stroke="black" d="M420,-174C420,-160.84 420,-146.11 420,-134.3"/>
<polygon fill="black" stroke="black" points="421.75,-137 420,-132 418.25,-137 421.75,-137"/>
</g>
<!-- function&#45;1&#45;Beq&#45;&gt;function&#45;1&#45;ImmVal -->
<g id="edge9" class="edge">
<title>function&#45;1&#45;Beq:s&#45;&gt;function&#45;1&#45;ImmVal</title>
<path fill="none" stroke="black" d="M224,-253C224,-206.69 254.4,-159.74 274.84,-133.4"/>
<polygon fill="black" stroke="black" points="274.13,-136.95 276.03,-132 271.46,-134.68 274.13,-136.95"/>
</g>
<!-- function&#45;1&#45;Beq&#45;&gt;function&#45;1&#45;RegVal -->
<g id="edge8" class="edge">
<title>function&#45;1&#45;Beq:s&#45;&gt;function&#45;1&#45;RegVal</title>
<path fill="none" stroke="black" d="M215,-253C215,-237.6 206.09,-223.08 196.58,-211.97"/>
<polygon fill="black" stroke="black" points="200.21,-212.23 195.06,-211 198.32,-215.17 200.21,-212.23"/>
</g>
<!-- function&#45;1&#45;Beq&#45;&gt;function&#45;0&#45;RegVal -->
<g id="edge7" class="edge">
<title>function&#45;1&#45;Beq:s&#45;&gt;function&#45;0&#45;RegVal</title>
<path fill="none" stroke="black" d="M201,-253C201,-248.28 323.75,-215.73 385.03,-199.78"/>
<polygon fill="black" stroke="black" points="383.8,-202.69 387,-198.47 381.87,-199.78 383.8,-202.69"/>
</g>
<!-- function&#45;1&#45;Seq2&#45;&gt;function&#45;2&#45;Bne -->
<g id="edge10" class="edge">
<title>function&#45;1&#45;Seq2:s&#45;&gt;function&#45;2&#45;Bne</title>
<path fill="none" stroke="black" d="M257,-253C257,-205.81 316.96,-202.06 359,-223.5 368.53,-228.36 375.96,-237.41 381.33,-246.17"/>
<polygon fill="black" stroke="black" points="378.37,-245.62 383.1,-248 380.88,-243.19 378.37,-245.62"/>
</g>
<!-- function&#45;1&#45;Seq2&#45;&gt;function&#45;1&#45;Jal -->
<g id="edge11" class="edge">
<title>function&#45;1&#45;Seq2:s&#45;&gt;function&#45;1&#45;Jal</title>
<path fill="none" stroke="black" d="M279,-253C279,-239.48 282.21,-224.7 285.55,-212.97"/>
<polygon fill="black" stroke="black" points="285.45,-216.07 286.98,-211 282.62,-214.01 285.45,-216.07"/>
</g>
<!-- function&#45;2&#45;Bne&#45;&gt;function&#45;1&#45;ImmVal -->
<g id="edge24" class="edge">
<title>function&#45;2&#45;Bne:s&#45;&gt;function&#45;1&#45;ImmVal</title>
<path fill="none" stroke="black" d="M406,-253C406,-228.49 382.91,-232.65 367,-214 344.46,-187.59 321.42,-154.72 307.17,-133.55"/>
<polygon fill="black" stroke="black" points="310.25,-133.81 305.27,-132 308.04,-136.52 310.25,-133.81"/>
</g>
<!-- function&#45;2&#45;Bne&#45;&gt;function&#45;1&#45;RegVal -->
<g id="edge22" class="edge">
<title>function&#45;2&#45;Bne:s&#45;&gt;function&#45;1&#45;RegVal</title>
<path fill="none" stroke="black" d="M383,-253C383,-248.48 266.5,-216.15 207.46,-200.06"/>
<polygon fill="black" stroke="black" points="210.89,-200.79 206,-198.74 208.54,-203.39 210.89,-200.79"/>
</g>
<!-- function&#45;2&#45;Bne&#45;&gt;function&#45;0&#45;RegVal -->
<g id="edge23" class="edge">
<title>function&#45;2&#45;Bne:s&#45;&gt;function&#45;0&#45;RegVal</title>
<path fill="none" stroke="black" d="M397,-253C397,-239.11 401.97,-224.42 407.18,-212.83"/>
<polygon fill="black" stroke="black" points="407.07,-216.12 408.41,-211 404.17,-214.17 407.07,-216.12"/>
</g>
<!-- function&#45;1&#45;Jal&#45;&gt;function&#45;1&#45;ImmVal -->
<g id="edge30" class="edge">
<title>function&#45;1&#45;Jal:s&#45;&gt;function&#45;1&#45;ImmVal</title>
<path fill="none" stroke="black" d="M293,-174C293,-160.84 293,-146.11 293,-134.3"/>
<polygon fill="black" stroke="black" points="294.75,-137 293,-132 291.25,-137 294.75,-137"/>
</g>
<!-- function&#45;0&#45;Bne&#45;&gt;function&#45;0&#45;ImmVal -->
<g id="edge15" class="edge">
<title>function&#45;0&#45;Bne:s&#45;&gt;function&#45;0&#45;ImmVal</title>
<path fill="none" stroke="black" d="M113,-332C113,-311.88 95.96,-312.22 90,-293 81.76,-266.43 80.99,-234.17 81.62,-213.14"/>
<polygon fill="black" stroke="black" points="83.12,-216.13 81.81,-211 79.63,-215.83 83.12,-216.13"/>
</g>
<!-- function&#45;0&#45;Bne&#45;&gt;function&#45;1&#45;RegVal -->
<g id="edge13" class="edge">
<title>function&#45;0&#45;Bne:s&#45;&gt;function&#45;1&#45;RegVal</title>
<path fill="none" stroke="black" d="M90,-332C90,-292 92.02,-279.05 113,-245 121,-232.02 133.07,-220.4 144.37,-211.3"/>
<polygon fill="black" stroke="black" points="141.11,-213.97 145.49,-211 140.21,-210.59 141.11,-213.97"/>
</g>
<!-- function&#45;0&#45;Bne&#45;&gt;function&#45;0&#45;RegVal -->
<g id="edge14" class="edge">
<title>function&#45;0&#45;Bne:s&#45;&gt;function&#45;0&#45;RegVal</title>
<path fill="none" stroke="black" d="M104,-332C104,-247.78 424.12,-355.12 481,-293 495.41,-277.27 489.84,-264.42 481,-245 474.79,-231.35 463.22,-219.8 451.75,-210.94"/>
<polygon fill="black" stroke="black" points="455.21,-213 451,-209.79 452.29,-214.93 455.21,-213"/>
</g>
<!-- function&#45;1&#45;Bne&#45;&gt;function&#45;0&#45;ImmVal -->
<g id="edge18" class="edge">
<title>function&#45;1&#45;Bne:s&#45;&gt;function&#45;0&#45;ImmVal</title>
<path fill="none" stroke="black" d="M171,-332C171,-303.82 137.66,-315.73 121,-293 103.21,-268.73 92.85,-235.19 87.56,-213.3"/>
<polygon fill="black" stroke="black" points="90.22,-214.66 86.38,-211 87.1,-216.25 90.22,-214.66"/>
</g>
<!-- function&#45;1&#45;Bne&#45;&gt;function&#45;1&#45;RegVal -->
<g id="edge17" class="edge">
<title>function&#45;1&#45;Bne:s&#45;&gt;function&#45;1&#45;RegVal</title>
<path fill="none" stroke="black" d="M162,-332C162,-306.85 130.91,-316.11 121,-293 112.59,-273.39 112.93,-264.75 121,-245 126.27,-232.12 136.25,-220.65 146.14,-211.63"/>
<polygon fill="black" stroke="black" points="143.93,-215.27 147.07,-211 141.95,-212.38 143.93,-215.27"/>
</g>
<!-- function&#45;1&#45;Bne&#45;&gt;function&#45;0&#45;RegVal -->
<g id="edge16" class="edge">
<title>function&#45;1&#45;Bne:s&#45;&gt;function&#45;0&#45;RegVal</title>
<path fill="none" stroke="black" d="M148,-332C148,-255.07 440.75,-350.38 492,-293 506.21,-277.09 501.6,-264.05 492,-245 483.58,-228.29 467.26,-215.46 452.19,-206.51"/>
<polygon fill="black" stroke="black" points="455.35,-207.89 451,-204.86 452.51,-209.94 455.35,-207.89"/>
</g>
<!-- function&#45;0&#45;Seq2&#45;&gt;function&#45;0&#45;Jal -->
<g id="edge20" class="edge">
<title>function&#45;0&#45;Seq2:s&#45;&gt;function&#45;0&#45;Jal</title>
<path fill="none" stroke="black" d="M52,-332C52,-318.73 50.17,-303.99 48.27,-292.22"/>
<polygon fill="black" stroke="black" points="50.86,-294.01 47.39,-290 47.6,-295.29 50.86,-294.01"/>
</g>
<!-- function&#45;0&#45;Seq2&#45;&gt;function&#45;0&#45;Beq -->
<g id="edge19" class="edge">
<title>function&#45;0&#45;Seq2:s&#45;&gt;function&#45;0&#45;Beq</title>
<path fill="none" stroke="black" d="M30,-332C30,-311.85 83.58,-291.17 119.73,-279.52"/>
<polygon fill="black" stroke="black" points="118.98,-282.23 122,-277.87 116.93,-279.39 118.98,-282.23"/>
</g>
<!-- function&#45;3&#45;Bne&#45;&gt;function&#45;1&#45;ImmVal -->
<g id="edge27" class="edge">
<title>function&#45;3&#45;Bne:s&#45;&gt;function&#45;1&#45;ImmVal</title>
<path fill="none" stroke="black" d="M464,-253C464,-214.24 415.42,-239.24 386,-214 366.16,-196.98 369.3,-185.6 352,-166 341.53,-154.13 328.68,-142.12 317.65,-132.46"/>
<polygon fill="black" stroke="black" points="321.95,-132.54 316.68,-132 320.47,-135.71 321.95,-132.54"/>
</g>
<!-- function&#45;3&#45;Bne&#45;&gt;function&#45;1&#45;RegVal -->
<g id="edge26" class="edge">
<title>function&#45;3&#45;Bne:s&#45;&gt;function&#45;1&#45;RegVal</title>
<path fill="none" stroke="black" d="M455,-253C455,-236.61 435.04,-248.37 419,-245 349.39,-230.4 331.33,-229.89 262,-214 244.01,-209.88 224.09,-204.72 207.77,-200.34"/>
<polygon fill="black" stroke="black" points="211.05,-200.62 206,-199.01 208.94,-203.41 211.05,-200.62"/>
</g>
<!-- function&#45;3&#45;Bne&#45;&gt;function&#45;0&#45;RegVal -->
<g id="edge25" class="edge">
<title>function&#45;3&#45;Bne:s&#45;&gt;function&#45;0&#45;RegVal</title>
<path fill="none" stroke="black" d="M441,-253C441,-239.11 436.03,-224.42 430.82,-212.83"/>
<polygon fill="black" stroke="black" points="433.83,-214.17 429.59,-211 430.93,-216.12 433.83,-214.17"/>
</g>
<!-- function&#45;2&#45;Seq2&#45;&gt;function&#45;1&#45;Seq2 -->
<g id="edge28" class="edge">
<title>function&#45;2&#45;Seq2:s&#45;&gt;function&#45;1&#45;Seq2</title>
<path fill="none" stroke="black" d="M323,-253C323,-241.59 311.78,-243.91 299.57,-249.8"/>
<polygon fill="black" stroke="black" points="300.71,-246.57 298,-251.12 302.96,-249.26 300.71,-246.57"/>
</g>
<!-- function&#45;2&#45;Seq2&#45;&gt;function&#45;1&#45;Jal -->
<g id="edge29" class="edge">
<title>function&#45;2&#45;Seq2:s&#45;&gt;function&#45;1&#45;Jal</title>
<path fill="none" stroke="black" d="M345,-253C345,-236.59 334.18,-222.25 322.4,-211.5"/>
<polygon fill="black" stroke="black" points="326.65,-211.66 321.39,-211 325.09,-214.8 326.65,-211.66"/>
</g>
<!-- function&#45;0&#45;ImmVal -->
<g id="node1" class="node">
<title>function&#45;0&#45;ImmVal</title>
<g id="a_node1"><a xlink:title="Imm&#45;2: function&#45;0&#45;ImmVal">
<path fill="white" stroke="transparent" d="M62.67,-174C62.67,-174 103.33,-174 103.33,-174 108.67,-174 114,-179.33 114,-184.67 114,-184.67 114,-195.33 114,-195.33 114,-200.67 108.67,-206 103.33,-206 103.33,-206 62.67,-206 62.67,-206 57.33,-206 52,-200.67 52,-195.33 52,-195.33 52,-184.67 52,-184.67 52,-179.33 57.33,-174 62.67,-174"/>
<text text-anchor="start" x="57" y="-186.3" font-family="Helvetica,sans-Serif" font-size="14.00">ImmVal</text>
<path fill="none" stroke="black" d="M62.67,-174C62.67,-174 103.33,-174 103.33,-174 108.67,-174 114,-179.33 114,-184.67 114,-184.67 114,-195.33 114,-195.33 114,-200.67 108.67,-206 103.33,-206 103.33,-206 62.67,-206 62.67,-206 57.33,-206 52,-200.67 52,-195.33 52,-195.33 52,-184.67 52,-184.67 52,-179.33 57.33,-174 62.67,-174"/>
</a>
</g>
</g>
<!-- primitive&#45;i64&#45;0 -->
<g id="node2" class="node">
<title>primitive&#45;i64&#45;0</title>
<g id="a_node2"><a xlink:title="i64&#45;0: primitive&#45;i64&#45;0">
<path fill="white" stroke="transparent" d="M77.67,-95C77.67,-95 88.33,-95 88.33,-95 93.67,-95 99,-100.33 99,-105.67 99,-105.67 99,-116.33 99,-116.33 99,-121.67 93.67,-127 88.33,-127 88.33,-127 77.67,-127 77.67,-127 72.33,-127 67,-121.67 67,-116.33 67,-116.33 67,-105.67 67,-105.67 67,-100.33 72.33,-95 77.67,-95"/>
<text text-anchor="start" x="78" y="-107.3" font-family="Helvetica,sans-Serif" font-size="14.00">0</text>
<path fill="none" stroke="black" d="M77.67,-95C77.67,-95 88.33,-95 88.33,-95 93.67,-95 99,-100.33 99,-105.67 99,-105.67 99,-116.33 99,-116.33 99,-121.67 93.67,-127 88.33,-127 88.33,-127 77.67,-127 77.67,-127 72.33,-127 67,-121.67 67,-116.33 67,-116.33 67,-105.67 67,-105.67 67,-100.33 72.33,-95 77.67,-95"/>
</a>
</g>
</g>
<!-- function&#45;1&#45;ImmVal -->
<g id="node3" class="node">
<title>function&#45;1&#45;ImmVal</title>
<g id="a_node3"><a xlink:title="Imm&#45;4: function&#45;1&#45;ImmVal">
<path fill="white" stroke="transparent" d="M272.67,-95C272.67,-95 313.33,-95 313.33,-95 318.67,-95 324,-100.33 324,-105.67 324,-105.67 324,-116.33 324,-116.33 324,-121.67 318.67,-127 313.33,-127 313.33,-127 272.67,-127 272.67,-127 267.33,-127 262,-121.67 262,-116.33 262,-116.33 262,-105.67 262,-105.67 262,-100.33 267.33,-95 272.67,-95"/>
<text text-anchor="start" x="267" y="-107.3" font-family="Helvetica,sans-Serif" font-size="14.00">ImmVal</text>
<path fill="none" stroke="black" d="M272.67,-95C272.67,-95 313.33,-95 313.33,-95 318.67,-95 324,-100.33 324,-105.67 324,-105.67 324,-116.33 324,-116.33 324,-121.67 318.67,-127 313.33,-127 313.33,-127 272.67,-127 272.67,-127 267.33,-127 262,-121.67 262,-116.33 262,-116.33 262,-105.67 262,-105.67 262,-100.33 267.33,-95 272.67,-95"/>
</a>
</g>
</g>
<!-- primitive&#45;i64&#45;4 -->
<g id="node4" class="node">
<title>primitive&#45;i64&#45;4</title>
<g id="a_node4"><a xlink:title="i64&#45;4: primitive&#45;i64&#45;4">
<path fill="white" stroke="transparent" d="M287.67,-16C287.67,-16 298.33,-16 298.33,-16 303.67,-16 309,-21.33 309,-26.67 309,-26.67 309,-37.33 309,-37.33 309,-42.67 303.67,-48 298.33,-48 298.33,-48 287.67,-48 287.67,-48 282.33,-48 277,-42.67 277,-37.33 277,-37.33 277,-26.67 277,-26.67 277,-21.33 282.33,-16 287.67,-16"/>
<text text-anchor="start" x="288" y="-28.3" font-family="Helvetica,sans-Serif" font-size="14.00">4</text>
<path fill="none" stroke="black" d="M287.67,-16C287.67,-16 298.33,-16 298.33,-16 303.67,-16 309,-21.33 309,-26.67 309,-26.67 309,-37.33 309,-37.33 309,-42.67 303.67,-48 298.33,-48 298.33,-48 287.67,-48 287.67,-48 282.33,-48 277,-42.67 277,-37.33 277,-37.33 277,-26.67 277,-26.67 277,-21.33 282.33,-16 287.67,-16"/>
</a>
</g>
</g>
<!-- function&#45;0&#45;Jal -->
<g id="node5" class="node">
<title>function&#45;0&#45;Jal</title>
<g id="a_node5"><a xlink:title="Inst&#45;6: function&#45;0&#45;Jal">
<path fill="white" stroke="transparent" d="M38.67,-253C38.67,-253 49.33,-253 49.33,-253 54.67,-253 60,-258.33 60,-263.67 60,-263.67 60,-274.33 60,-274.33 60,-279.67 54.67,-285 49.33,-285 49.33,-285 38.67,-285 38.67,-285 33.33,-285 28,-279.67 28,-274.33 28,-274.33 28,-263.67 28,-263.67 28,-258.33 33.33,-253 38.67,-253"/>
<text text-anchor="start" x="35.5" y="-265.3" font-family="Helvetica,sans-Serif" font-size="14.00">Jal</text>
<path fill="none" stroke="black" d="M38.67,-253C38.67,-253 49.33,-253 49.33,-253 54.67,-253 60,-258.33 60,-263.67 60,-263.67 60,-274.33 60,-274.33 60,-279.67 54.67,-285 49.33,-285 49.33,-285 38.67,-285 38.67,-285 33.33,-285 28,-279.67 28,-274.33 28,-274.33 28,-263.67 28,-263.67 28,-258.33 33.33,-253 38.67,-253"/>
</a>
</g>
</g>
<!-- function&#45;0&#45;Beq -->
<g id="node6" class="node">
<title>function&#45;0&#45;Beq</title>
<g id="a_node6"><a xlink:title="Inst&#45;5: function&#45;0&#45;Beq">
<path fill="white" stroke="transparent" d="M143.67,-253C143.67,-253 160.33,-253 160.33,-253 165.67,-253 171,-258.33 171,-263.67 171,-263.67 171,-274.33 171,-274.33 171,-279.67 165.67,-285 160.33,-285 160.33,-285 143.67,-285 143.67,-285 138.33,-285 133,-279.67 133,-274.33 133,-274.33 133,-263.67 133,-263.67 133,-258.33 138.33,-253 143.67,-253"/>
<text text-anchor="start" x="138" y="-265.3" font-family="Helvetica,sans-Serif" font-size="14.00">Beq</text>
<path fill="none" stroke="black" d="M143.67,-253C143.67,-253 160.33,-253 160.33,-253 165.67,-253 171,-258.33 171,-263.67 171,-263.67 171,-274.33 171,-274.33 171,-279.67 165.67,-285 160.33,-285 160.33,-285 143.67,-285 143.67,-285 138.33,-285 133,-279.67 133,-274.33 133,-274.33 133,-263.67 133,-263.67 133,-258.33 138.33,-253 143.67,-253"/>
</a>
</g>
</g>
<!-- function&#45;1&#45;RegVal -->
<g id="node7" class="node">
<title>function&#45;1&#45;RegVal</title>
<g id="a_node7"><a xlink:title="Inst&#45;1: function&#45;1&#45;RegVal">
<path fill="white" stroke="transparent" d="M156.17,-174C156.17,-174 191.83,-174 191.83,-174 197.17,-174 202.5,-179.33 202.5,-184.67 202.5,-184.67 202.5,-195.33 202.5,-195.33 202.5,-200.67 197.17,-206 191.83,-206 191.83,-206 156.17,-206 156.17,-206 150.83,-206 145.5,-200.67 145.5,-195.33 145.5,-195.33 145.5,-184.67 145.5,-184.67 145.5,-179.33 150.83,-174 156.17,-174"/>
<text text-anchor="start" x="151" y="-186.3" font-family="Helvetica,sans-Serif" font-size="14.00">RegVal</text>
<path fill="none" stroke="black" d="M156.17,-174C156.17,-174 191.83,-174 191.83,-174 197.17,-174 202.5,-179.33 202.5,-184.67 202.5,-184.67 202.5,-195.33 202.5,-195.33 202.5,-200.67 197.17,-206 191.83,-206 191.83,-206 156.17,-206 156.17,-206 150.83,-206 145.5,-200.67 145.5,-195.33 145.5,-195.33 145.5,-184.67 145.5,-184.67 145.5,-179.33 150.83,-174 156.17,-174"/>
</a>
</g>
</g>
<!-- function&#45;0&#45;RegVal -->
<g id="node8" class="node">
<title>function&#45;0&#45;RegVal</title>
<g id="a_node8"><a xlink:title="Inst&#45;0: function&#45;0&#45;RegVal">
<path fill="white" stroke="transparent" d="M401.17,-174C401.17,-174 436.83,-174 436.83,-174 442.17,-174 447.5,-179.33 447.5,-184.67 447.5,-184.67 447.5,-195.33 447.5,-195.33 447.5,-200.67 442.17,-206 436.83,-206 436.83,-206 401.17,-206 401.17,-206 395.83,-206 390.5,-200.67 390.5,-195.33 390.5,-195.33 390.5,-184.67 390.5,-184.67 390.5,-179.33 395.83,-174 401.17,-174"/>
<text text-anchor="start" x="396" y="-186.3" font-family="Helvetica,sans-Serif" font-size="14.00">RegVal</text>
<path fill="none" stroke="black" d="M401.17,-174C401.17,-174 436.83,-174 436.83,-174 442.17,-174 447.5,-179.33 447.5,-184.67 447.5,-184.67 447.5,-195.33 447.5,-195.33 447.5,-200.67 442.17,-206 436.83,-206 436.83,-206 401.17,-206 401.17,-206 395.83,-206 390.5,-200.67 390.5,-195.33 390.5,-195.33 390.5,-184.67 390.5,-184.67 390.5,-179.33 395.83,-174 401.17,-174"/>
</a>
</g>
</g>
<!-- function&#45;1&#45;Beq -->
<g id="node9" class="node">
<title>function&#45;1&#45;Beq</title>
<g id="a_node9"><a xlink:title="Inst&#45;5: function&#45;1&#45;Beq">
<path fill="white" stroke="transparent" d="M201.67,-253C201.67,-253 218.33,-253 218.33,-253 223.67,-253 229,-258.33 229,-263.67 229,-263.67 229,-274.33 229,-274.33 229,-279.67 223.67,-285 218.33,-285 218.33,-285 201.67,-285 201.67,-285 196.33,-285 191,-279.67 191,-274.33 191,-274.33 191,-263.67 191,-263.67 191,-258.33 196.33,-253 201.67,-253"/>
<text text-anchor="start" x="196" y="-265.3" font-family="Helvetica,sans-Serif" font-size="14.00">Beq</text>
<path fill="none" stroke="black" d="M201.67,-253C201.67,-253 218.33,-253 218.33,-253 223.67,-253 229,-258.33 229,-263.67 229,-263.67 229,-274.33 229,-274.33 229,-279.67 223.67,-285 218.33,-285 218.33,-285 201.67,-285 201.67,-285 196.33,-285 191,-279.67 191,-274.33 191,-274.33 191,-263.67 191,-263.67 191,-258.33 196.33,-253 201.67,-253"/>
</a>
</g>
</g>
<!-- function&#45;1&#45;Seq2 -->
<g id="node10" class="node">
<title>function&#45;1&#45;Seq2</title>
<g id="a_node10"><a xlink:title="Inst&#45;5: function&#45;1&#45;Seq2">
<path fill="white" stroke="transparent" d="M255.67,-253C255.67,-253 280.33,-253 280.33,-253 285.67,-253 291,-258.33 291,-263.67 291,-263.67 291,-274.33 291,-274.33 291,-279.67 285.67,-285 280.33,-285 280.33,-285 255.67,-285 255.67,-285 250.33,-285 245,-279.67 245,-274.33 245,-274.33 245,-263.67 245,-263.67 245,-258.33 250.33,-253 255.67,-253"/>
<text text-anchor="start" x="250" y="-265.3" font-family="Helvetica,sans-Serif" font-size="14.00">Seq2</text>
<path fill="none" stroke="black" d="M255.67,-253C255.67,-253 280.33,-253 280.33,-253 285.67,-253 291,-258.33 291,-263.67 291,-263.67 291,-274.33 291,-274.33 291,-279.67 285.67,-285 280.33,-285 280.33,-285 255.67,-285 255.67,-285 250.33,-285 245,-279.67 245,-274.33 245,-274.33 245,-263.67 245,-263.67 245,-258.33 250.33,-253 255.67,-253"/>
</a>
</g>
</g>
<!-- function&#45;2&#45;Bne -->
<g id="node11" class="node">
<title>function&#45;2&#45;Bne</title>
<g id="a_node11"><a xlink:title="Inst&#45;7: function&#45;2&#45;Bne">
<path fill="white" stroke="transparent" d="M383.67,-253C383.67,-253 400.33,-253 400.33,-253 405.67,-253 411,-258.33 411,-263.67 411,-263.67 411,-274.33 411,-274.33 411,-279.67 405.67,-285 400.33,-285 400.33,-285 383.67,-285 383.67,-285 378.33,-285 373,-279.67 373,-274.33 373,-274.33 373,-263.67 373,-263.67 373,-258.33 378.33,-253 383.67,-253"/>
<text text-anchor="start" x="378" y="-265.3" font-family="Helvetica,sans-Serif" font-size="14.00">Bne</text>
<path fill="none" stroke="black" d="M383.67,-253C383.67,-253 400.33,-253 400.33,-253 405.67,-253 411,-258.33 411,-263.67 411,-263.67 411,-274.33 411,-274.33 411,-279.67 405.67,-285 400.33,-285 400.33,-285 383.67,-285 383.67,-285 378.33,-285 373,-279.67 373,-274.33 373,-274.33 373,-263.67 373,-263.67 373,-258.33 378.33,-253 383.67,-253"/>
</a>
</g>
</g>
<!-- function&#45;1&#45;Jal -->
<g id="node12" class="node">
<title>function&#45;1&#45;Jal</title>
<g id="a_node12"><a xlink:title="Inst&#45;8: function&#45;1&#45;Jal">
<path fill="white" stroke="transparent" d="M287.67,-174C287.67,-174 298.33,-174 298.33,-174 303.67,-174 309,-179.33 309,-184.67 309,-184.67 309,-195.33 309,-195.33 309,-200.67 303.67,-206 298.33,-206 298.33,-206 287.67,-206 287.67,-206 282.33,-206 277,-200.67 277,-195.33 277,-195.33 277,-184.67 277,-184.67 277,-179.33 282.33,-174 287.67,-174"/>
<text text-anchor="start" x="284.5" y="-186.3" font-family="Helvetica,sans-Serif" font-size="14.00">Jal</text>
<path fill="none" stroke="black" d="M287.67,-174C287.67,-174 298.33,-174 298.33,-174 303.67,-174 309,-179.33 309,-184.67 309,-184.67 309,-195.33 309,-195.33 309,-200.67 303.67,-206 298.33,-206 298.33,-206 287.67,-206 287.67,-206 282.33,-206 277,-200.67 277,-195.33 277,-195.33 277,-184.67 277,-184.67 277,-179.33 282.33,-174 287.67,-174"/>
</a>
</g>
</g>
<!-- primitive&#45;String&#45;1 -->
<g id="node13" class="node">
<title>primitive&#45;String&#45;1</title>
<g id="a_node13"><a xlink:title="String&#45;1: primitive&#45;String&#45;1">
<path fill="white" stroke="transparent" d="M158.67,-95C158.67,-95 191.33,-95 191.33,-95 196.67,-95 202,-100.33 202,-105.67 202,-105.67 202,-116.33 202,-116.33 202,-121.67 196.67,-127 191.33,-127 191.33,-127 158.67,-127 158.67,-127 153.33,-127 148,-121.67 148,-116.33 148,-116.33 148,-105.67 148,-105.67 148,-100.33 153.33,-95 158.67,-95"/>
<text text-anchor="start" x="153" y="-107.3" font-family="Helvetica,sans-Serif" font-size="14.00">&quot;t1_0&quot;</text>
<path fill="none" stroke="black" d="M158.67,-95C158.67,-95 191.33,-95 191.33,-95 196.67,-95 202,-100.33 202,-105.67 202,-105.67 202,-116.33 202,-116.33 202,-121.67 196.67,-127 191.33,-127 191.33,-127 158.67,-127 158.67,-127 153.33,-127 148,-121.67 148,-116.33 148,-116.33 148,-105.67 148,-105.67 148,-100.33 153.33,-95 158.67,-95"/>
</a>
</g>
</g>
<!-- function&#45;0&#45;Bne -->
<g id="node14" class="node">
<title>function&#45;0&#45;Bne</title>
<g id="a_node14"><a xlink:title="Inst&#45;3: function&#45;0&#45;Bne">
<path fill="white" stroke="transparent" d="M90.67,-332C90.67,-332 107.33,-332 107.33,-332 112.67,-332 118,-337.33 118,-342.67 118,-342.67 118,-353.33 118,-353.33 118,-358.67 112.67,-364 107.33,-364 107.33,-364 90.67,-364 90.67,-364 85.33,-364 80,-358.67 80,-353.33 80,-353.33 80,-342.67 80,-342.67 80,-337.33 85.33,-332 90.67,-332"/>
<text text-anchor="start" x="85" y="-344.3" font-family="Helvetica,sans-Serif" font-size="14.00">Bne</text>
<path fill="none" stroke="black" d="M90.67,-332C90.67,-332 107.33,-332 107.33,-332 112.67,-332 118,-337.33 118,-342.67 118,-342.67 118,-353.33 118,-353.33 118,-358.67 112.67,-364 107.33,-364 107.33,-364 90.67,-364 90.67,-364 85.33,-364 80,-358.67 80,-353.33 80,-353.33 80,-342.67 80,-342.67 80,-337.33 85.33,-332 90.67,-332"/>
</a>
</g>
</g>
<!-- function&#45;1&#45;Bne -->
<g id="node15" class="node">
<title>function&#45;1&#45;Bne</title>
<g id="a_node15"><a xlink:title="Inst&#45;3: function&#45;1&#45;Bne">
<path fill="white" stroke="transparent" d="M148.67,-332C148.67,-332 165.33,-332 165.33,-332 170.67,-332 176,-337.33 176,-342.67 176,-342.67 176,-353.33 176,-353.33 176,-358.67 170.67,-364 165.33,-364 165.33,-364 148.67,-364 148.67,-364 143.33,-364 138,-358.67 138,-353.33 138,-353.33 138,-342.67 138,-342.67 138,-337.33 143.33,-332 148.67,-332"/>
<text text-anchor="start" x="143" y="-344.3" font-family="Helvetica,sans-Serif" font-size="14.00">Bne</text>
<path fill="none" stroke="black" d="M148.67,-332C148.67,-332 165.33,-332 165.33,-332 170.67,-332 176,-337.33 176,-342.67 176,-342.67 176,-353.33 176,-353.33 176,-358.67 170.67,-364 165.33,-364 165.33,-364 148.67,-364 148.67,-364 143.33,-364 138,-358.67 138,-353.33 138,-353.33 138,-342.67 138,-342.67 138,-337.33 143.33,-332 148.67,-332"/>
</a>
</g>
</g>
<!-- function&#45;0&#45;Seq2 -->
<g id="node16" class="node">
<title>function&#45;0&#45;Seq2</title>
<g id="a_node16"><a xlink:title="Inst&#45;3: function&#45;0&#45;Seq2">
<path fill="white" stroke="transparent" d="M28.67,-332C28.67,-332 53.33,-332 53.33,-332 58.67,-332 64,-337.33 64,-342.67 64,-342.67 64,-353.33 64,-353.33 64,-358.67 58.67,-364 53.33,-364 53.33,-364 28.67,-364 28.67,-364 23.33,-364 18,-358.67 18,-353.33 18,-353.33 18,-342.67 18,-342.67 18,-337.33 23.33,-332 28.67,-332"/>
<text text-anchor="start" x="23" y="-344.3" font-family="Helvetica,sans-Serif" font-size="14.00">Seq2</text>
<path fill="none" stroke="black" d="M28.67,-332C28.67,-332 53.33,-332 53.33,-332 58.67,-332 64,-337.33 64,-342.67 64,-342.67 64,-353.33 64,-353.33 64,-358.67 58.67,-364 53.33,-364 53.33,-364 28.67,-364 28.67,-364 23.33,-364 18,-358.67 18,-353.33 18,-353.33 18,-342.67 18,-342.67 18,-337.33 23.33,-332 28.67,-332"/>
</a>
</g>
</g>
<!-- primitive&#45;String&#45;0 -->
<g id="node17" class="node">
<title>primitive&#45;String&#45;0</title>
<g id="a_node17"><a xlink:title="String&#45;0: primitive&#45;String&#45;0">
<path fill="white" stroke="transparent" d="M402.17,-95C402.17,-95 437.83,-95 437.83,-95 443.17,-95 448.5,-100.33 448.5,-105.67 448.5,-105.67 448.5,-116.33 448.5,-116.33 448.5,-121.67 443.17,-127 437.83,-127 437.83,-127 402.17,-127 402.17,-127 396.83,-127 391.5,-121.67 391.5,-116.33 391.5,-116.33 391.5,-105.67 391.5,-105.67 391.5,-100.33 396.83,-95 402.17,-95"/>
<text text-anchor="start" x="397" y="-107.3" font-family="Helvetica,sans-Serif" font-size="14.00">&quot;a1_0&quot;</text>
<path fill="none" stroke="black" d="M402.17,-95C402.17,-95 437.83,-95 437.83,-95 443.17,-95 448.5,-100.33 448.5,-105.67 448.5,-105.67 448.5,-116.33 448.5,-116.33 448.5,-121.67 443.17,-127 437.83,-127 437.83,-127 402.17,-127 402.17,-127 396.83,-127 391.5,-121.67 391.5,-116.33 391.5,-116.33 391.5,-105.67 391.5,-105.67 391.5,-100.33 396.83,-95 402.17,-95"/>
</a>
</g>
</g>
<!-- function&#45;3&#45;Bne -->
<g id="node18" class="node">
<title>function&#45;3&#45;Bne</title>
<g id="a_node18"><a xlink:title="Inst&#45;7: function&#45;3&#45;Bne">
<path fill="white" stroke="transparent" d="M441.67,-253C441.67,-253 458.33,-253 458.33,-253 463.67,-253 469,-258.33 469,-263.67 469,-263.67 469,-274.33 469,-274.33 469,-279.67 463.67,-285 458.33,-285 458.33,-285 441.67,-285 441.67,-285 436.33,-285 431,-279.67 431,-274.33 431,-274.33 431,-263.67 431,-263.67 431,-258.33 436.33,-253 441.67,-253"/>
<text text-anchor="start" x="436" y="-265.3" font-family="Helvetica,sans-Serif" font-size="14.00">Bne</text>
<path fill="none" stroke="black" d="M441.67,-253C441.67,-253 458.33,-253 458.33,-253 463.67,-253 469,-258.33 469,-263.67 469,-263.67 469,-274.33 469,-274.33 469,-279.67 463.67,-285 458.33,-285 458.33,-285 441.67,-285 441.67,-285 436.33,-285 431,-279.67 431,-274.33 431,-274.33 431,-263.67 431,-263.67 431,-258.33 436.33,-253 441.67,-253"/>
</a>
</g>
</g>
<!-- function&#45;2&#45;Seq2 -->
<g id="node19" class="node">
<title>function&#45;2&#45;Seq2</title>
<g id="a_node19"><a xlink:title="Inst&#45;7: function&#45;2&#45;Seq2">
<path fill="white" stroke="transparent" d="M321.67,-253C321.67,-253 346.33,-253 346.33,-253 351.67,-253 357,-258.33 357,-263.67 357,-263.67 357,-274.33 357,-274.33 357,-279.67 351.67,-285 346.33,-285 346.33,-285 321.67,-285 321.67,-285 316.33,-285 311,-279.67 311,-274.33 311,-274.33 311,-263.67 311,-263.67 311,-258.33 316.33,-253 321.67,-253"/>
<text text-anchor="start" x="316" y="-265.3" font-family="Helvetica,sans-Serif" font-size="14.00">Seq2</text>
<path fill="none" stroke="black" d="M321.67,-253C321.67,-253 346.33,-253 346.33,-253 351.67,-253 357,-258.33 357,-263.67 357,-263.67 357,-274.33 357,-274.33 357,-279.67 351.67,-285 346.33,-285 346.33,-285 321.67,-285 321.67,-285 316.33,-285 311,-279.67 311,-274.33 311,-274.33 311,-263.67 311,-263.67 311,-258.33 316.33,-253 321.67,-253"/>
</a>
</g>
</g>
</g>
</svg>
