<?xml version="1.0" encoding="UTF-8" standalone="no"?>
<!DOCTYPE svg PUBLIC "-//W3C//DTD SVG 1.1//EN"
 "http://www.w3.org/Graphics/SVG/1.1/DTD/svg11.dtd">
<!-- Generated by graphviz version 2.43.0 (0)
 -->
<!-- Title: %3 Pages: 1 -->
<svg width="242pt" height="230pt"
 viewBox="0.00 0.00 242.00 230.00" xmlns="http://www.w3.org/2000/svg" xmlns:xlink="http://www.w3.org/1999/xlink">
<g id="graph0" class="graph" transform="scale(1 1) rotate(0) translate(4 226)">
<title>%3</title>
<polygon fill="white" stroke="#000000" points="-4,4 -4,-226 238,-226 238,4 -4,4"/>
<g id="clust1" class="cluster">
<title>outer_cluster_Imm&#45;1</title>
</g>
<g id="clust2" class="cluster">
<title>cluster_Imm&#45;1</title>
<path fill="#ffffb3" stroke="black" stroke-dasharray="5,2" d="M23,-90C23,-90 67,-90 67,-90 73,-90 79,-96 79,-102 79,-102 79,-120 79,-120 79,-126 73,-132 67,-132 67,-132 23,-132 23,-132 17,-132 11,-126 11,-120 11,-120 11,-102 11,-102 11,-96 17,-90 23,-90"/>
</g>
<g id="clust4" class="cluster">
<title>outer_cluster_Imm&#45;3</title>
</g>
<g id="clust5" class="cluster">
<title>cluster_Imm&#45;3</title>
<path fill="#ffffb3" stroke="black" stroke-dasharray="5,2" d="M167,-90C167,-90 211,-90 211,-90 217,-90 223,-96 223,-102 223,-102 223,-120 223,-120 223,-126 217,-132 211,-132 211,-132 167,-132 167,-132 161,-132 155,-126 155,-120 155,-120 155,-102 155,-102 155,-96 161,-90 167,-90"/>
</g>
<g id="clust7" class="cluster">
<title>outer_cluster_Inst&#45;0</title>
</g>
<g id="clust8" class="cluster">
<title>cluster_Inst&#45;0</title>
<path fill="#bebada" stroke="black" stroke-dasharray="5,2" d="M97,-90C97,-90 137,-90 137,-90 143,-90 149,-96 149,-102 149,-102 149,-120 149,-120 149,-126 143,-132 137,-132 137,-132 97,-132 97,-132 91,-132 85,-126 85,-120 85,-120 85,-102 85,-102 85,-96 91,-90 97,-90"/>
</g>
<g id="clust10" class="cluster">
<title>outer_cluster_Inst&#45;2</title>
</g>
<g id="clust11" class="cluster">
<title>cluster_Inst&#45;2</title>
<path fill="#bebada" stroke="black" stroke-dasharray="5,2" d="M95,-169C95,-169 131,-169 131,-169 137,-169 143,-175 143,-181 143,-181 143,-199 143,-199 143,-205 137,-211 131,-211 131,-211 95,-211 95,-211 89,-211 83,-205 83,-199 83,-199 83,-181 83,-181 83,-175 89,-169 95,-169"/>
</g>
<g id="clust13" class="cluster">
<title>outer_cluster_Inst&#45;4</title>
</g>
<g id="clust14" class="cluster">
<title>cluster_Inst&#45;4</title>
<path fill="#bebada" stroke="black" stroke-dasharray="5,2" d="M162,-169C162,-169 198,-169 198,-169 204,-169 210,-175 210,-181 210,-181 210,-199 210,-199 210,-205 204,-211 198,-211 198,-211 162,-211 162,-211 156,-211 150,-205 150,-199 150,-199 150,-181 150,-181 150,-175 156,-169 162,-169"/>
</g>
<g id="clust16" class="cluster">
<title>outer_cluster_Inst&#45;5</title>
</g>
<g id="clust17" class="cluster">
<title>cluster_Inst&#45;5</title>
<path fill="#bebada" stroke="black" stroke-dasharray="5,2" d="M27,-169C27,-169 63,-169 63,-169 69,-169 75,-175 75,-181 75,-181 75,-199 75,-199 75,-205 69,-211 63,-211 63,-211 27,-211 27,-211 21,-211 15,-205 15,-199 15,-199 15,-181 15,-181 15,-175 21,-169 27,-169"/>
</g>
<g id="clust19" class="cluster">
<title>outer_cluster_String&#45;0</title>
</g>
<g id="clust20" class="cluster">
<title>cluster_String&#45;0</title>
<path fill="#fb8072" stroke="black" stroke-dasharray="5,2" d="M99,-11C99,-11 137,-11 137,-11 143,-11 149,-17 149,-23 149,-23 149,-41 149,-41 149,-47 143,-53 137,-53 137,-53 99,-53 99,-53 93,-53 87,-47 87,-41 87,-41 87,-23 87,-23 87,-17 93,-11 99,-11"/>
</g>
<g id="clust22" class="cluster">
<title>outer_cluster_i64&#45;4</title>
</g>
<g id="clust23" class="cluster">
<title>cluster_i64&#45;4</title>
<path fill="#80b1d3" stroke="black" stroke-dasharray="5,2" d="M171,-11C171,-11 207,-11 207,-11 213,-11 219,-17 219,-23 219,-23 219,-41 219,-41 219,-47 213,-53 207,-53 207,-53 171,-53 171,-53 165,-53 159,-47 159,-41 159,-41 159,-23 159,-23 159,-17 165,-11 171,-11"/>
</g>
<g id="clust25" class="cluster">
<title>outer_cluster_i64&#45;0</title>
</g>
<g id="clust26" class="cluster">
<title>cluster_i64&#45;0</title>
<path fill="#80b1d3" stroke="black" stroke-dasharray="5,2" d="M27,-11C27,-11 63,-11 63,-11 69,-11 75,-17 75,-23 75,-23 75,-41 75,-41 75,-47 69,-53 63,-53 63,-53 27,-53 27,-53 21,-53 15,-47 15,-41 15,-41 15,-23 15,-23 15,-17 21,-11 27,-11"/>
</g>
<!-- function&#45;0&#45;ImmVal&#45;&gt;primitive&#45;i64&#45;0 -->
<g id="edge1" class="edge">
<title>function&#45;0&#45;ImmVal:s&#45;&gt;primitive&#45;i64&#45;0</title>
<path fill="none" stroke="black" d="M45,-95C45,-81.84 45,-67.11 45,-55.3"/>
<polygon fill="black" stroke="black" points="46.75,-58 45,-53 43.25,-58 46.75,-58"/>
</g>
<!-- function&#45;1&#45;ImmVal&#45;&gt;primitive&#45;i64&#45;4 -->
<g id="edge2" class="edge">
<title>function&#45;1&#45;ImmVal:s&#45;&gt;primitive&#45;i64&#45;4</title>
<path fill="none" stroke="black" d="M189,-95C189,-81.84 189,-67.11 189,-55.3"/>
<polygon fill="black" stroke="black" points="190.75,-58 189,-53 187.25,-58 190.75,-58"/>
</g>
<!-- function&#45;0&#45;RegVal&#45;&gt;primitive&#45;String&#45;0 -->
<g id="edge3" class="edge">
<title>function&#45;0&#45;RegVal:s&#45;&gt;primitive&#45;String&#45;0</title>
<path fill="none" stroke="black" d="M118,-95C118,-81.84 118,-67.11 118,-55.3"/>
<polygon fill="black" stroke="black" points="119.75,-58 118,-53 116.25,-58 119.75,-58"/>
</g>
<!-- function&#45;0&#45;Lw&#45;&gt;function&#45;0&#45;ImmVal -->
<g id="edge5" class="edge">
<title>function&#45;0&#45;Lw:s&#45;&gt;function&#45;0&#45;ImmVal</title>
<path fill="none" stroke="black" d="M121,-174C121,-163.11 102.02,-147.62 83.03,-134.84"/>
<polygon fill="black" stroke="black" points="83.86,-133.3 78.73,-132 81.93,-136.22 83.86,-133.3"/>
</g>
<!-- function&#45;0&#45;Lw&#45;&gt;function&#45;0&#45;RegVal -->
<g id="edge4" class="edge">
<title>function&#45;0&#45;Lw:s&#45;&gt;function&#45;0&#45;RegVal</title>
<path fill="none" stroke="black" d="M105,-174C105,-160.69 107.7,-146.06 110.54,-134.36"/>
<polygon fill="black" stroke="black" points="110.95,-137.22 111.84,-132 107.89,-135.53 110.95,-137.22"/>
</g>
<!-- function&#45;1&#45;Lw&#45;&gt;function&#45;1&#45;ImmVal -->
<g id="edge7" class="edge">
<title>function&#45;1&#45;Lw:s&#45;&gt;function&#45;1&#45;ImmVal</title>
<path fill="none" stroke="black" d="M188,-174C188,-160.84 188.23,-146.1 188.47,-134.3"/>
<polygon fill="black" stroke="black" points="190.09,-137.08 188.58,-132 186.59,-136.91 190.09,-137.08"/>
</g>
<!-- function&#45;1&#45;Lw&#45;&gt;function&#45;0&#45;RegVal -->
<g id="edge6" class="edge">
<title>function&#45;1&#45;Lw:s&#45;&gt;function&#45;0&#45;RegVal</title>
<path fill="none" stroke="black" d="M172,-174C172,-157.31 160.71,-143.01 148.36,-132.37"/>
<polygon fill="black" stroke="black" points="152.78,-132.38 147.5,-132 151.39,-135.6 152.78,-132.38"/>
</g>
<!-- function&#45;0&#45;Jal&#45;&gt;function&#45;0&#45;ImmVal -->
<g id="edge8" class="edge">
<title>function&#45;0&#45;Jal:s&#45;&gt;function&#45;0&#45;ImmVal</title>
<path fill="none" stroke="black" d="M45,-174C45,-160.84 45,-146.11 45,-134.3"/>
<polygon fill="black" stroke="black" points="46.75,-137 45,-132 43.25,-137 46.75,-137"/>
</g>
<!-- function&#45;0&#45;ImmVal -->
<g id="node1" class="node">
<title>function&#45;0&#45;ImmVal</title>
<g id="a_node1"><a xlink:title="Imm&#45;1: function&#45;0&#45;ImmVal">
<path fill="white" stroke="transparent" d="M24.67,-95C24.67,-95 65.33,-95 65.33,-95 70.67,-95 76,-100.33 76,-105.67 76,-105.67 76,-116.33 76,-116.33 76,-121.67 70.67,-127 65.33,-127 65.33,-127 24.67,-127 24.67,-127 19.33,-127 14,-121.67 14,-116.33 14,-116.33 14,-105.67 14,-105.67 14,-100.33 19.33,-95 24.67,-95"/>
<text text-anchor="start" x="19" y="-107.3" font-family="Helvetica,sans-Serif" font-size="14.00">ImmVal</text>
<path fill="none" stroke="black" d="M24.67,-95C24.67,-95 65.33,-95 65.33,-95 70.67,-95 76,-100.33 76,-105.67 76,-105.67 76,-116.33 76,-116.33 76,-121.67 70.67,-127 65.33,-127 65.33,-127 24.67,-127 24.67,-127 19.33,-127 14,-121.67 14,-116.33 14,-116.33 14,-105.67 14,-105.67 14,-100.33 19.33,-95 24.67,-95"/>
</a>
</g>
</g>
<!-- primitive&#45;i64&#45;0 -->
<g id="node2" class="node">
<title>primitive&#45;i64&#45;0</title>
<g id="a_node2"><a xlink:title="i64&#45;0: primitive&#45;i64&#45;0">
<path fill="white" stroke="transparent" d="M39.67,-16C39.67,-16 50.33,-16 50.33,-16 55.67,-16 61,-21.33 61,-26.67 61,-26.67 61,-37.33 61,-37.33 61,-42.67 55.67,-48 50.33,-48 50.33,-48 39.67,-48 39.67,-48 34.33,-48 29,-42.67 29,-37.33 29,-37.33 29,-26.67 29,-26.67 29,-21.33 34.33,-16 39.67,-16"/>
<text text-anchor="start" x="40" y="-28.3" font-family="Helvetica,sans-Serif" font-size="14.00">0</text>
<path fill="none" stroke="black" d="M39.67,-16C39.67,-16 50.33,-16 50.33,-16 55.67,-16 61,-21.33 61,-26.67 61,-26.67 61,-37.33 61,-37.33 61,-42.67 55.67,-48 50.33,-48 50.33,-48 39.67,-48 39.67,-48 34.33,-48 29,-42.67 29,-37.33 29,-37.33 29,-26.67 29,-26.67 29,-21.33 34.33,-16 39.67,-16"/>
</a>
</g>
</g>
<!-- function&#45;1&#45;ImmVal -->
<g id="node3" class="node">
<title>function&#45;1&#45;ImmVal</title>
<g id="a_node3"><a xlink:title="Imm&#45;3: function&#45;1&#45;ImmVal">
<path fill="white" stroke="transparent" d="M168.67,-95C168.67,-95 209.33,-95 209.33,-95 214.67,-95 220,-100.33 220,-105.67 220,-105.67 220,-116.33 220,-116.33 220,-121.67 214.67,-127 209.33,-127 209.33,-127 168.67,-127 168.67,-127 163.33,-127 158,-121.67 158,-116.33 158,-116.33 158,-105.67 158,-105.67 158,-100.33 163.33,-95 168.67,-95"/>
<text text-anchor="start" x="163" y="-107.3" font-family="Helvetica,sans-Serif" font-size="14.00">ImmVal</text>
<path fill="none" stroke="black" d="M168.67,-95C168.67,-95 209.33,-95 209.33,-95 214.67,-95 220,-100.33 220,-105.67 220,-105.67 220,-116.33 220,-116.33 220,-121.67 214.67,-127 209.33,-127 209.33,-127 168.67,-127 168.67,-127 163.33,-127 158,-121.67 158,-116.33 158,-116.33 158,-105.67 158,-105.67 158,-100.33 163.33,-95 168.67,-95"/>
</a>
</g>
</g>
<!-- primitive&#45;i64&#45;4 -->
<g id="node4" class="node">
<title>primitive&#45;i64&#45;4</title>
<g id="a_node4"><a xlink:title="i64&#45;4: primitive&#45;i64&#45;4">
<path fill="white" stroke="transparent" d="M183.67,-16C183.67,-16 194.33,-16 194.33,-16 199.67,-16 205,-21.33 205,-26.67 205,-26.67 205,-37.33 205,-37.33 205,-42.67 199.67,-48 194.33,-48 194.33,-48 183.67,-48 183.67,-48 178.33,-48 173,-42.67 173,-37.33 173,-37.33 173,-26.67 173,-26.67 173,-21.33 178.33,-16 183.67,-16"/>
<text text-anchor="start" x="184" y="-28.3" font-family="Helvetica,sans-Serif" font-size="14.00">4</text>
<path fill="none" stroke="black" d="M183.67,-16C183.67,-16 194.33,-16 194.33,-16 199.67,-16 205,-21.33 205,-26.67 205,-26.67 205,-37.33 205,-37.33 205,-42.67 199.67,-48 194.33,-48 194.33,-48 183.67,-48 183.67,-48 178.33,-48 173,-42.67 173,-37.33 173,-37.33 173,-26.67 173,-26.67 173,-21.33 178.33,-16 183.67,-16"/>
</a>
</g>
</g>
<!-- function&#45;0&#45;RegVal -->
<g id="node5" class="node">
<title>function&#45;0&#45;RegVal</title>
<g id="a_node5"><a xlink:title="Inst&#45;0: function&#45;0&#45;RegVal">
<path fill="white" stroke="transparent" d="M99.17,-95C99.17,-95 134.83,-95 134.83,-95 140.17,-95 145.5,-100.33 145.5,-105.67 145.5,-105.67 145.5,-116.33 145.5,-116.33 145.5,-121.67 140.17,-127 134.83,-127 134.83,-127 99.17,-127 99.17,-127 93.83,-127 88.5,-121.67 88.5,-116.33 88.5,-116.33 88.5,-105.67 88.5,-105.67 88.5,-100.33 93.83,-95 99.17,-95"/>
<text text-anchor="start" x="94" y="-107.3" font-family="Helvetica,sans-Serif" font-size="14.00">RegVal</text>
<path fill="none" stroke="black" d="M99.17,-95C99.17,-95 134.83,-95 134.83,-95 140.17,-95 145.5,-100.33 145.5,-105.67 145.5,-105.67 145.5,-116.33 145.5,-116.33 145.5,-121.67 140.17,-127 134.83,-127 134.83,-127 99.17,-127 99.17,-127 93.83,-127 88.5,-121.67 88.5,-116.33 88.5,-116.33 88.5,-105.67 88.5,-105.67 88.5,-100.33 93.83,-95 99.17,-95"/>
</a>
</g>
</g>
<!-- primitive&#45;String&#45;0 -->
<g id="node6" class="node">
<title>primitive&#45;String&#45;0</title>
<g id="a_node6"><a xlink:title="String&#45;0: primitive&#45;String&#45;0">
<path fill="white" stroke="transparent" d="M100.67,-16C100.67,-16 135.33,-16 135.33,-16 140.67,-16 146,-21.33 146,-26.67 146,-26.67 146,-37.33 146,-37.33 146,-42.67 140.67,-48 135.33,-48 135.33,-48 100.67,-48 100.67,-48 95.33,-48 90,-42.67 90,-37.33 90,-37.33 90,-26.67 90,-26.67 90,-21.33 95.33,-16 100.67,-16"/>
<text text-anchor="start" x="95" y="-28.3" font-family="Helvetica,sans-Serif" font-size="14.00">&quot;sp_0&quot;</text>
<path fill="none" stroke="black" d="M100.67,-16C100.67,-16 135.33,-16 135.33,-16 140.67,-16 146,-21.33 146,-26.67 146,-26.67 146,-37.33 146,-37.33 146,-42.67 140.67,-48 135.33,-48 135.33,-48 100.67,-48 100.67,-48 95.33,-48 90,-42.67 90,-37.33 90,-37.33 90,-26.67 90,-26.67 90,-21.33 95.33,-16 100.67,-16"/>
</a>
</g>
</g>
<!-- function&#45;0&#45;Lw -->
<g id="node7" class="node">
<title>function&#45;0&#45;Lw</title>
<g id="a_node7"><a xlink:title="Inst&#45;2: function&#45;0&#45;Lw">
<path fill="white" stroke="transparent" d="M107.67,-174C107.67,-174 118.33,-174 118.33,-174 123.67,-174 129,-179.33 129,-184.67 129,-184.67 129,-195.33 129,-195.33 129,-200.67 123.67,-206 118.33,-206 118.33,-206 107.67,-206 107.67,-206 102.33,-206 97,-200.67 97,-195.33 97,-195.33 97,-184.67 97,-184.67 97,-179.33 102.33,-174 107.67,-174"/>
<text text-anchor="start" x="103.5" y="-186.3" font-family="Helvetica,sans-Serif" font-size="14.00">Lw</text>
<path fill="none" stroke="black" d="M107.67,-174C107.67,-174 118.33,-174 118.33,-174 123.67,-174 129,-179.33 129,-184.67 129,-184.67 129,-195.33 129,-195.33 129,-200.67 123.67,-206 118.33,-206 118.33,-206 107.67,-206 107.67,-206 102.33,-206 97,-200.67 97,-195.33 97,-195.33 97,-184.67 97,-184.67 97,-179.33 102.33,-174 107.67,-174"/>
</a>
</g>
</g>
<!-- function&#45;1&#45;Lw -->
<g id="node8" class="node">
<title>function&#45;1&#45;Lw</title>
<g id="a_node8"><a xlink:title="Inst&#45;4: function&#45;1&#45;Lw">
<path fill="white" stroke="transparent" d="M174.67,-174C174.67,-174 185.33,-174 185.33,-174 190.67,-174 196,-179.33 196,-184.67 196,-184.67 196,-195.33 196,-195.33 196,-200.67 190.67,-206 185.33,-206 185.33,-206 174.67,-206 174.67,-206 169.33,-206 164,-200.67 164,-195.33 164,-195.33 164,-184.67 164,-184.67 164,-179.33 169.33,-174 174.67,-174"/>
<text text-anchor="start" x="170.5" y="-186.3" font-family="Helvetica,sans-Serif" font-size="14.00">Lw</text>
<path fill="none" stroke="black" d="M174.67,-174C174.67,-174 185.33,-174 185.33,-174 190.67,-174 196,-179.33 196,-184.67 196,-184.67 196,-195.33 196,-195.33 196,-200.67 190.67,-206 185.33,-206 185.33,-206 174.67,-206 174.67,-206 169.33,-206 164,-200.67 164,-195.33 164,-195.33 164,-184.67 164,-184.67 164,-179.33 169.33,-174 174.67,-174"/>
</a>
</g>
</g>
<!-- function&#45;0&#45;Jal -->
<g id="node9" class="node">
<title>function&#45;0&#45;Jal</title>
<g id="a_node9"><a xlink:title="Inst&#45;5: function&#45;0&#45;Jal">
<path fill="white" stroke="transparent" d="M39.67,-174C39.67,-174 50.33,-174 50.33,-174 55.67,-174 61,-179.33 61,-184.67 61,-184.67 61,-195.33 61,-195.33 61,-200.67 55.67,-206 50.33,-206 50.33,-206 39.67,-206 39.67,-206 34.33,-206 29,-200.67 29,-195.33 29,-195.33 29,-184.67 29,-184.67 29,-179.33 34.33,-174 39.67,-174"/>
<text text-anchor="start" x="36.5" y="-186.3" font-family="Helvetica,sans-Serif" font-size="14.00">Jal</text>
<path fill="none" stroke="black" d="M39.67,-174C39.67,-174 50.33,-174 50.33,-174 55.67,-174 61,-179.33 61,-184.67 61,-184.67 61,-195.33 61,-195.33 61,-200.67 55.67,-206 50.33,-206 50.33,-206 39.67,-206 39.67,-206 34.33,-206 29,-200.67 29,-195.33 29,-195.33 29,-184.67 29,-184.67 29,-179.33 34.33,-174 39.67,-174"/>
</a>
</g>
</g>
</g>
</svg>
