<?xml version="1.0" encoding="UTF-8" standalone="no"?>
<!DOCTYPE svg PUBLIC "-//W3C//DTD SVG 1.1//EN"
 "http://www.w3.org/Graphics/SVG/1.1/DTD/svg11.dtd">
<!-- Generated by graphviz version 2.43.0 (0)
 -->
<!-- Title: %3 Pages: 1 -->
<svg width="537pt" height="546pt"
 viewBox="0.00 0.00 536.74 546.00" xmlns="http://www.w3.org/2000/svg" xmlns:xlink="http://www.w3.org/1999/xlink">
<g id="graph0" class="graph" transform="scale(1 1) rotate(0) translate(4 542)">
<title>%3</title>
<polygon fill="white" stroke="#000000" points="-4,4 -4,-542 532.74,-542 532.74,4 -4,4"/>
<g id="clust1" class="cluster">
<title>outer_cluster_Imm&#45;7</title>
</g>
<g id="clust2" class="cluster">
<title>cluster_Imm&#45;7</title>
<path fill="#ffffb3" stroke="black" stroke-dasharray="5,2" d="M29.74,-169C29.74,-169 73.74,-169 73.74,-169 79.74,-169 85.74,-175 85.74,-181 85.74,-181 85.74,-199 85.74,-199 85.74,-205 79.74,-211 73.74,-211 73.74,-211 29.74,-211 29.74,-211 23.74,-211 17.74,-205 17.74,-199 17.74,-199 17.74,-181 17.74,-181 17.74,-175 23.74,-169 29.74,-169"/>
</g>
<g id="clust4" class="cluster">
<title>outer_cluster_Imm&#45;11</title>
</g>
<g id="clust5" class="cluster">
<title>cluster_Imm&#45;11</title>
<path fill="#ffffb3" stroke="black" stroke-dasharray="5,2" d="M328.74,-90C328.74,-90 372.74,-90 372.74,-90 378.74,-90 384.74,-96 384.74,-102 384.74,-102 384.74,-120 384.74,-120 384.74,-126 378.74,-132 372.74,-132 372.74,-132 328.74,-132 328.74,-132 322.74,-132 316.74,-126 316.74,-120 316.74,-120 316.74,-102 316.74,-102 316.74,-96 322.74,-90 328.74,-90"/>
</g>
<g id="clust7" class="cluster">
<title>outer_cluster_Imm&#45;13</title>
</g>
<g id="clust8" class="cluster">
<title>cluster_Imm&#45;13</title>
<path fill="#ffffb3" stroke="black" stroke-dasharray="5,2" d="M445.74,-327C445.74,-327 505.74,-327 505.74,-327 511.74,-327 517.74,-333 517.74,-339 517.74,-339 517.74,-357 517.74,-357 517.74,-363 511.74,-369 505.74,-369 505.74,-369 445.74,-369 445.74,-369 439.74,-369 433.74,-363 433.74,-357 433.74,-357 433.74,-339 433.74,-339 433.74,-333 439.74,-327 445.74,-327"/>
</g>
<g id="clust10" class="cluster">
<title>outer_cluster_Imm&#45;5</title>
</g>
<g id="clust11" class="cluster">
<title>cluster_Imm&#45;5</title>
<path fill="#ffffb3" stroke="black" stroke-dasharray="5,2" d="M180.74,-248C180.74,-248 224.74,-248 224.74,-248 230.74,-248 236.74,-254 236.74,-260 236.74,-260 236.74,-278 236.74,-278 236.74,-284 230.74,-290 224.74,-290 224.74,-290 180.74,-290 180.74,-290 174.74,-290 168.74,-284 168.74,-278 168.74,-278 168.74,-260 168.74,-260 168.74,-254 174.74,-248 180.74,-248"/>
</g>
<g id="clust13" class="cluster">
<title>outer_cluster_Imm&#45;2</title>
</g>
<g id="clust14" class="cluster">
<title>cluster_Imm&#45;2</title>
<path fill="#ffffb3" stroke="black" stroke-dasharray="5,2" d="M184.74,-90C184.74,-90 228.74,-90 228.74,-90 234.74,-90 240.74,-96 240.74,-102 240.74,-102 240.74,-120 240.74,-120 240.74,-126 234.74,-132 228.74,-132 228.74,-132 184.74,-132 184.74,-132 178.74,-132 172.74,-126 172.74,-120 172.74,-120 172.74,-102 172.74,-102 172.74,-96 178.74,-90 184.74,-90"/>
</g>
<g id="clust16" class="cluster">
<title>outer_cluster_Imm&#45;9</title>
</g>
<g id="clust17" class="cluster">
<title>cluster_Imm&#45;9</title>
<path fill="#ffffb3" stroke="black" stroke-dasharray="5,2" d="M99.74,-248C99.74,-248 143.74,-248 143.74,-248 149.74,-248 155.74,-254 155.74,-260 155.74,-260 155.74,-278 155.74,-278 155.74,-284 149.74,-290 143.74,-290 143.74,-290 99.74,-290 99.74,-290 93.74,-290 87.74,-284 87.74,-278 87.74,-278 87.74,-260 87.74,-260 87.74,-254 93.74,-248 99.74,-248"/>
</g>
<g id="clust19" class="cluster">
<title>outer_cluster_Inst&#45;8</title>
</g>
<g id="clust20" class="cluster">
<title>cluster_Inst&#45;8</title>
<path fill="#bebada" stroke="black" stroke-dasharray="5,2" d="M33.74,-248C33.74,-248 69.74,-248 69.74,-248 75.74,-248 81.74,-254 81.74,-260 81.74,-260 81.74,-278 81.74,-278 81.74,-284 75.74,-290 69.74,-290 69.74,-290 33.74,-290 33.74,-290 27.74,-290 21.74,-284 21.74,-278 21.74,-278 21.74,-260 21.74,-260 21.74,-254 27.74,-248 33.74,-248"/>
</g>
<g id="clust22" class="cluster">
<title>outer_cluster_Inst&#45;16</title>
</g>
<g id="clust23" class="cluster">
<title>cluster_Inst&#45;16</title>
<path fill="#bebada" stroke="black" stroke-dasharray="5,2" d="M418.74,-406C418.74,-406 454.74,-406 454.74,-406 460.74,-406 466.74,-412 466.74,-418 466.74,-418 466.74,-436 466.74,-436 466.74,-442 460.74,-448 454.74,-448 454.74,-448 418.74,-448 418.74,-448 412.74,-448 406.74,-442 406.74,-436 406.74,-436 406.74,-418 406.74,-418 406.74,-412 412.74,-406 418.74,-406"/>
</g>
<g id="clust25" class="cluster">
<title>outer_cluster_Inst&#45;15</title>
</g>
<g id="clust26" class="cluster">
<title>cluster_Inst&#45;15</title>
<path fill="#bebada" stroke="black" stroke-dasharray="5,2" d="M32.74,-406C32.74,-406 184.74,-406 184.74,-406 190.74,-406 196.74,-412 196.74,-418 196.74,-418 196.74,-436 196.74,-436 196.74,-442 190.74,-448 184.74,-448 184.74,-448 32.74,-448 32.74,-448 26.74,-448 20.74,-442 20.74,-436 20.74,-436 20.74,-418 20.74,-418 20.74,-412 26.74,-406 32.74,-406"/>
</g>
<g id="clust28" class="cluster">
<title>outer_cluster_Inst&#45;10</title>
</g>
<g id="clust29" class="cluster">
<title>cluster_Inst&#45;10</title>
<path fill="#bebada" stroke="black" stroke-dasharray="5,2" d="M44.74,-327C44.74,-327 80.74,-327 80.74,-327 86.74,-327 92.74,-333 92.74,-339 92.74,-339 92.74,-357 92.74,-357 92.74,-363 86.74,-369 80.74,-369 80.74,-369 44.74,-369 44.74,-369 38.74,-369 32.74,-363 32.74,-357 32.74,-357 32.74,-339 32.74,-339 32.74,-333 38.74,-327 44.74,-327"/>
</g>
<g id="clust31" class="cluster">
<title>outer_cluster_Inst&#45;3</title>
</g>
<g id="clust32" class="cluster">
<title>cluster_Inst&#45;3</title>
<path fill="#bebada" stroke="black" stroke-dasharray="5,2" d="M256.74,-169C256.74,-169 292.74,-169 292.74,-169 298.74,-169 304.74,-175 304.74,-181 304.74,-181 304.74,-199 304.74,-199 304.74,-205 298.74,-211 292.74,-211 292.74,-211 256.74,-211 256.74,-211 250.74,-211 244.74,-205 244.74,-199 244.74,-199 244.74,-181 244.74,-181 244.74,-175 250.74,-169 256.74,-169"/>
</g>
<g id="clust34" class="cluster">
<title>outer_cluster_Inst&#45;18</title>
</g>
<g id="clust35" class="cluster">
<title>cluster_Inst&#45;18</title>
<path fill="#bebada" stroke="black" stroke-dasharray="5,2" d="M184.74,-327C184.74,-327 220.74,-327 220.74,-327 226.74,-327 232.74,-333 232.74,-339 232.74,-339 232.74,-357 232.74,-357 232.74,-363 226.74,-369 220.74,-369 220.74,-369 184.74,-369 184.74,-369 178.74,-369 172.74,-363 172.74,-357 172.74,-357 172.74,-339 172.74,-339 172.74,-333 178.74,-327 184.74,-327"/>
</g>
<g id="clust37" class="cluster">
<title>outer_cluster_Inst&#45;6</title>
</g>
<g id="clust38" class="cluster">
<title>cluster_Inst&#45;6</title>
<path fill="#bebada" stroke="black" stroke-dasharray="5,2" d="M296.74,-327C296.74,-327 332.74,-327 332.74,-327 338.74,-327 344.74,-333 344.74,-339 344.74,-339 344.74,-357 344.74,-357 344.74,-363 338.74,-369 332.74,-369 332.74,-369 296.74,-369 296.74,-369 290.74,-369 284.74,-363 284.74,-357 284.74,-357 284.74,-339 284.74,-339 284.74,-333 290.74,-327 296.74,-327"/>
</g>
<g id="clust40" class="cluster">
<title>outer_cluster_Inst&#45;12</title>
</g>
<g id="clust41" class="cluster">
<title>cluster_Inst&#45;12</title>
<path fill="#bebada" stroke="black" stroke-dasharray="5,2" d="M322.74,-169C322.74,-169 358.74,-169 358.74,-169 364.74,-169 370.74,-175 370.74,-181 370.74,-181 370.74,-199 370.74,-199 370.74,-205 364.74,-211 358.74,-211 358.74,-211 322.74,-211 322.74,-211 316.74,-211 310.74,-205 310.74,-199 310.74,-199 310.74,-181 310.74,-181 310.74,-175 316.74,-169 322.74,-169"/>
</g>
<g id="clust43" class="cluster">
<title>outer_cluster_Inst&#45;4</title>
</g>
<g id="clust44" class="cluster">
<title>cluster_Inst&#45;4</title>
<path fill="#bebada" stroke="black" stroke-dasharray="5,2" d="M254.74,-248C254.74,-248 348.74,-248 348.74,-248 354.74,-248 360.74,-254 360.74,-260 360.74,-260 360.74,-278 360.74,-278 360.74,-284 354.74,-290 348.74,-290 348.74,-290 254.74,-290 254.74,-290 248.74,-290 242.74,-284 242.74,-278 242.74,-278 242.74,-260 242.74,-260 242.74,-254 248.74,-248 254.74,-248"/>
</g>
<g id="clust46" class="cluster">
<title>outer_cluster_Inst&#45;0</title>
</g>
<g id="clust47" class="cluster">
<title>cluster_Inst&#45;0</title>
<path fill="#bebada" stroke="black" stroke-dasharray="5,2" d="M388.74,-169C388.74,-169 428.74,-169 428.74,-169 434.74,-169 440.74,-175 440.74,-181 440.74,-181 440.74,-199 440.74,-199 440.74,-205 434.74,-211 428.74,-211 428.74,-211 388.74,-211 388.74,-211 382.74,-211 376.74,-205 376.74,-199 376.74,-199 376.74,-181 376.74,-181 376.74,-175 382.74,-169 388.74,-169"/>
</g>
<g id="clust49" class="cluster">
<title>outer_cluster_Inst&#45;1</title>
</g>
<g id="clust50" class="cluster">
<title>cluster_Inst&#45;1</title>
<path fill="#bebada" stroke="black" stroke-dasharray="5,2" d="M258.74,-90C258.74,-90 298.74,-90 298.74,-90 304.74,-90 310.74,-96 310.74,-102 310.74,-102 310.74,-120 310.74,-120 310.74,-126 304.74,-132 298.74,-132 298.74,-132 258.74,-132 258.74,-132 252.74,-132 246.74,-126 246.74,-120 246.74,-120 246.74,-102 246.74,-102 246.74,-96 252.74,-90 258.74,-90"/>
</g>
<g id="clust52" class="cluster">
<title>outer_cluster_Inst&#45;14</title>
</g>
<g id="clust53" class="cluster">
<title>cluster_Inst&#45;14</title>
<path fill="#bebada" stroke="black" stroke-dasharray="5,2" d="M303.74,-485C303.74,-485 455.74,-485 455.74,-485 461.74,-485 467.74,-491 467.74,-497 467.74,-497 467.74,-515 467.74,-515 467.74,-521 461.74,-527 455.74,-527 455.74,-527 303.74,-527 303.74,-527 297.74,-527 291.74,-521 291.74,-515 291.74,-515 291.74,-497 291.74,-497 291.74,-491 297.74,-485 303.74,-485"/>
</g>
<g id="clust55" class="cluster">
<title>outer_cluster_Inst&#45;17</title>
</g>
<g id="clust56" class="cluster">
<title>cluster_Inst&#45;17</title>
<path fill="#bebada" stroke="black" stroke-dasharray="5,2" d="M214.74,-406C214.74,-406 366.74,-406 366.74,-406 372.74,-406 378.74,-412 378.74,-418 378.74,-418 378.74,-436 378.74,-436 378.74,-442 372.74,-448 366.74,-448 366.74,-448 214.74,-448 214.74,-448 208.74,-448 202.74,-442 202.74,-436 202.74,-436 202.74,-418 202.74,-418 202.74,-412 208.74,-406 214.74,-406"/>
</g>
<g id="clust58" class="cluster">
<title>outer_cluster_String&#45;2</title>
</g>
<g id="clust59" class="cluster">
<title>cluster_String&#45;2</title>
<path fill="#fb8072" stroke="black" stroke-dasharray="5,2" d="M458.74,-248C458.74,-248 494.74,-248 494.74,-248 500.74,-248 506.74,-254 506.74,-260 506.74,-260 506.74,-278 506.74,-278 506.74,-284 500.74,-290 494.74,-290 494.74,-290 458.74,-290 458.74,-290 452.74,-290 446.74,-284 446.74,-278 446.74,-278 446.74,-260 446.74,-260 446.74,-254 452.74,-248 458.74,-248"/>
</g>
<g id="clust61" class="cluster">
<title>outer_cluster_String&#45;0</title>
</g>
<g id="clust62" class="cluster">
<title>cluster_String&#45;0</title>
<path fill="#fb8072" stroke="black" stroke-dasharray="5,2" d="M402.74,-90C402.74,-90 442.74,-90 442.74,-90 448.74,-90 454.74,-96 454.74,-102 454.74,-102 454.74,-120 454.74,-120 454.74,-126 448.74,-132 442.74,-132 442.74,-132 402.74,-132 402.74,-132 396.74,-132 390.74,-126 390.74,-120 390.74,-120 390.74,-102 390.74,-102 390.74,-96 396.74,-90 402.74,-90"/>
</g>
<g id="clust64" class="cluster">
<title>outer_cluster_String&#45;1</title>
</g>
<g id="clust65" class="cluster">
<title>cluster_String&#45;1</title>
<path fill="#fb8072" stroke="black" stroke-dasharray="5,2" d="M259.74,-11C259.74,-11 299.74,-11 299.74,-11 305.74,-11 311.74,-17 311.74,-23 311.74,-23 311.74,-41 311.74,-41 311.74,-47 305.74,-53 299.74,-53 299.74,-53 259.74,-53 259.74,-53 253.74,-53 247.74,-47 247.74,-41 247.74,-41 247.74,-23 247.74,-23 247.74,-17 253.74,-11 259.74,-11"/>
</g>
<g id="clust67" class="cluster">
<title>outer_cluster_i64&#45;1807</title>
</g>
<g id="clust68" class="cluster">
<title>cluster_i64&#45;1807</title>
<path fill="#80b1d3" stroke="black" stroke-dasharray="5,2" d="M103.74,-169C103.74,-169 139.74,-169 139.74,-169 145.74,-169 151.74,-175 151.74,-181 151.74,-181 151.74,-199 151.74,-199 151.74,-205 145.74,-211 139.74,-211 139.74,-211 103.74,-211 103.74,-211 97.74,-211 91.74,-205 91.74,-199 91.74,-199 91.74,-181 91.74,-181 91.74,-175 97.74,-169 103.74,-169"/>
</g>
<g id="clust70" class="cluster">
<title>outer_cluster_i64&#45;4</title>
</g>
<g id="clust71" class="cluster">
<title>cluster_i64&#45;4</title>
<path fill="#80b1d3" stroke="black" stroke-dasharray="5,2" d="M184.74,-169C184.74,-169 220.74,-169 220.74,-169 226.74,-169 232.74,-175 232.74,-181 232.74,-181 232.74,-199 232.74,-199 232.74,-205 226.74,-211 220.74,-211 220.74,-211 184.74,-211 184.74,-211 178.74,-211 172.74,-205 172.74,-199 172.74,-199 172.74,-181 172.74,-181 172.74,-175 178.74,-169 184.74,-169"/>
</g>
<g id="clust73" class="cluster">
<title>outer_cluster_i64&#45;3</title>
</g>
<g id="clust74" class="cluster">
<title>cluster_i64&#45;3</title>
<path fill="#80b1d3" stroke="black" stroke-dasharray="5,2" d="M188.74,-11C188.74,-11 224.74,-11 224.74,-11 230.74,-11 236.74,-17 236.74,-23 236.74,-23 236.74,-41 236.74,-41 236.74,-47 230.74,-53 224.74,-53 224.74,-53 188.74,-53 188.74,-53 182.74,-53 176.74,-47 176.74,-41 176.74,-41 176.74,-23 176.74,-23 176.74,-17 182.74,-11 188.74,-11"/>
</g>
<g id="clust76" class="cluster">
<title>outer_cluster_i64&#45;2</title>
</g>
<g id="clust77" class="cluster">
<title>cluster_i64&#45;2</title>
<path fill="#80b1d3" stroke="black" stroke-dasharray="5,2" d="M33.74,-90C33.74,-90 69.74,-90 69.74,-90 75.74,-90 81.74,-96 81.74,-102 81.74,-102 81.74,-120 81.74,-120 81.74,-126 75.74,-132 69.74,-132 69.74,-132 33.74,-132 33.74,-132 27.74,-132 21.74,-126 21.74,-120 21.74,-120 21.74,-102 21.74,-102 21.74,-96 27.74,-90 33.74,-90"/>
</g>
<g id="clust79" class="cluster">
<title>outer_cluster_i64&#45;0</title>
</g>
<g id="clust80" class="cluster">
<title>cluster_i64&#45;0</title>
<path fill="#80b1d3" stroke="black" stroke-dasharray="5,2" d="M332.74,-11C332.74,-11 368.74,-11 368.74,-11 374.74,-11 380.74,-17 380.74,-23 380.74,-23 380.74,-41 380.74,-41 380.74,-47 374.74,-53 368.74,-53 368.74,-53 332.74,-53 332.74,-53 326.74,-53 320.74,-47 320.74,-41 320.74,-41 320.74,-23 320.74,-23 320.74,-17 326.74,-11 332.74,-11"/>
</g>
<!-- function&#45;2&#45;ImmVal&#45;&gt;primitive&#45;i64&#45;2 -->
<g id="edge1" class="edge">
<title>function&#45;2&#45;ImmVal:s&#45;&gt;primitive&#45;i64&#45;2</title>
<path fill="none" stroke="black" d="M51.74,-174C51.74,-160.84 51.74,-146.11 51.74,-134.3"/>
<polygon fill="black" stroke="black" points="53.49,-137 51.74,-132 49.99,-137 53.49,-137"/>
</g>
<!-- function&#45;4&#45;ImmVal&#45;&gt;primitive&#45;i64&#45;0 -->
<g id="edge2" class="edge">
<title>function&#45;4&#45;ImmVal:s&#45;&gt;primitive&#45;i64&#45;0</title>
<path fill="none" stroke="black" d="M350.74,-95C350.74,-81.84 350.74,-67.11 350.74,-55.3"/>
<polygon fill="black" stroke="black" points="352.49,-58 350.74,-53 348.99,-58 352.49,-58"/>
</g>
<!-- function&#45;0&#45;ImmLabel&#45;&gt;primitive&#45;String&#45;2 -->
<g id="edge3" class="edge">
<title>function&#45;0&#45;ImmLabel:s&#45;&gt;primitive&#45;String&#45;2</title>
<path fill="none" stroke="black" d="M476.74,-332C476.74,-318.84 476.74,-304.11 476.74,-292.3"/>
<polygon fill="black" stroke="black" points="478.49,-295 476.74,-290 474.99,-295 478.49,-295"/>
</g>
<!-- function&#45;1&#45;ImmVal&#45;&gt;primitive&#45;i64&#45;4 -->
<g id="edge4" class="edge">
<title>function&#45;1&#45;ImmVal:s&#45;&gt;primitive&#45;i64&#45;4</title>
<path fill="none" stroke="black" d="M202.74,-253C202.74,-239.84 202.74,-225.11 202.74,-213.3"/>
<polygon fill="black" stroke="black" points="204.49,-216 202.74,-211 200.99,-216 204.49,-216"/>
</g>
<!-- function&#45;0&#45;ImmVal&#45;&gt;primitive&#45;i64&#45;3 -->
<g id="edge5" class="edge">
<title>function&#45;0&#45;ImmVal:s&#45;&gt;primitive&#45;i64&#45;3</title>
<path fill="none" stroke="black" d="M206.74,-95C206.74,-81.84 206.74,-67.11 206.74,-55.3"/>
<polygon fill="black" stroke="black" points="208.49,-58 206.74,-53 204.99,-58 208.49,-58"/>
</g>
<!-- function&#45;3&#45;ImmVal&#45;&gt;primitive&#45;i64&#45;1807 -->
<g id="edge6" class="edge">
<title>function&#45;3&#45;ImmVal:s&#45;&gt;primitive&#45;i64&#45;1807</title>
<path fill="none" stroke="black" d="M121.74,-253C121.74,-239.84 121.74,-225.11 121.74,-213.3"/>
<polygon fill="black" stroke="black" points="123.49,-216 121.74,-211 119.99,-216 123.49,-216"/>
</g>
<!-- function&#45;0&#45;Lui&#45;&gt;function&#45;2&#45;ImmVal -->
<g id="edge7" class="edge">
<title>function&#45;0&#45;Lui:s&#45;&gt;function&#45;2&#45;ImmVal</title>
<path fill="none" stroke="black" d="M51.74,-253C51.74,-239.84 51.74,-225.11 51.74,-213.3"/>
<polygon fill="black" stroke="black" points="53.49,-216 51.74,-211 49.99,-216 53.49,-216"/>
</g>
<!-- function&#45;0&#45;Jal&#45;&gt;function&#45;0&#45;ImmLabel -->
<g id="edge8" class="edge">
<title>function&#45;0&#45;Jal:s&#45;&gt;function&#45;0&#45;ImmLabel</title>
<path fill="none" stroke="black" d="M436.74,-411C436.74,-395.82 445.21,-381.32 454.26,-370.17"/>
<polygon fill="black" stroke="black" points="452.97,-373.6 455.61,-369 450.68,-370.95 452.97,-373.6"/>
</g>
<!-- function&#45;0&#45;Beq&#45;&gt;function&#45;1&#45;ImmVal -->
<g id="edge11" class="edge">
<title>function&#45;0&#45;Beq:s&#45;&gt;function&#45;1&#45;ImmVal</title>
<path fill="none" stroke="black" d="M64.74,-411C64.74,-410.62 129.47,-324.27 129.74,-324 141.07,-312.72 154.87,-301.91 167.42,-292.96"/>
<polygon fill="black" stroke="black" points="168.54,-294.31 171.62,-290 166.53,-291.45 168.54,-294.31"/>
</g>
<!-- function&#45;0&#45;Beq&#45;&gt;function&#45;0&#45;Lw -->
<g id="edge9" class="edge">
<title>function&#45;0&#45;Beq:s&#45;&gt;function&#45;0&#45;Lw</title>
<path fill="none" stroke="black" d="M41.74,-411C41.74,-367.46 191.43,-382.29 233.74,-372 249.94,-368.06 267.79,-363.06 282.6,-358.73"/>
<polygon fill="black" stroke="black" points="281.57,-361.54 284.74,-357.29 279.61,-358.64 281.57,-361.54"/>
</g>
<!-- function&#45;0&#45;Beq&#45;&gt;function&#45;0&#45;Addi -->
<g id="edge10" class="edge">
<title>function&#45;0&#45;Beq:s&#45;&gt;function&#45;0&#45;Addi</title>
<path fill="none" stroke="black" d="M55.74,-411C55.74,-397.76 57.33,-383.02 59,-371.24"/>
<polygon fill="black" stroke="black" points="59.8,-374.3 59.77,-369 56.49,-373.16 59.8,-374.3"/>
</g>
<!-- function&#45;0&#45;Lw&#45;&gt;function&#45;1&#45;ImmVal -->
<g id="edge23" class="edge">
<title>function&#45;0&#45;Lw:s&#45;&gt;function&#45;1&#45;ImmVal</title>
<path fill="none" stroke="black" d="M322.74,-332C322.74,-292.04 276.98,-311.83 241.74,-293 241.4,-292.82 241.06,-292.64 240.72,-292.45"/>
<polygon fill="black" stroke="black" points="241.46,-290.87 236.24,-290 239.78,-293.94 241.46,-290.87"/>
</g>
<!-- function&#45;0&#45;Lw&#45;&gt;function&#45;1&#45;Add -->
<g id="edge22" class="edge">
<title>function&#45;0&#45;Lw:s&#45;&gt;function&#45;1&#45;Add</title>
<path fill="none" stroke="black" d="M306.74,-332C306.74,-318.06 312.08,-303.48 317.72,-291.96"/>
<polygon fill="black" stroke="black" points="317.62,-295.08 319.14,-290 314.79,-293.02 317.62,-295.08"/>
</g>
<!-- function&#45;0&#45;Addi&#45;&gt;function&#45;3&#45;ImmVal -->
<g id="edge18" class="edge">
<title>function&#45;0&#45;Addi:s&#45;&gt;function&#45;3&#45;ImmVal</title>
<path fill="none" stroke="black" d="M72.74,-332C72.74,-315.85 83.09,-301.45 94.28,-290.6"/>
<polygon fill="black" stroke="black" points="92.1,-294.37 95.1,-290 90.03,-291.55 92.1,-294.37"/>
</g>
<!-- function&#45;0&#45;Addi&#45;&gt;function&#45;0&#45;Lui -->
<g id="edge17" class="edge">
<title>function&#45;0&#45;Addi:s&#45;&gt;function&#45;0&#45;Lui</title>
<path fill="none" stroke="black" d="M52.74,-332C52.74,-318.84 52.51,-304.1 52.27,-292.3"/>
<polygon fill="black" stroke="black" points="54.15,-294.91 52.16,-290 50.65,-295.08 54.15,-294.91"/>
</g>
<!-- function&#45;1&#45;Beq&#45;&gt;function&#45;1&#45;ImmVal -->
<g id="edge14" class="edge">
<title>function&#45;1&#45;Beq:s&#45;&gt;function&#45;1&#45;ImmVal</title>
<path fill="none" stroke="black" d="M122.74,-411C122.74,-363.25 157.87,-316.86 181.57,-291"/>
<polygon fill="black" stroke="black" points="179.93,-294.33 182.98,-290 177.89,-291.48 179.93,-294.33"/>
</g>
<!-- function&#45;1&#45;Beq&#45;&gt;function&#45;0&#45;Lw -->
<g id="edge13" class="edge">
<title>function&#45;1&#45;Beq:s&#45;&gt;function&#45;0&#45;Lw</title>
<path fill="none" stroke="black" d="M113.74,-411C113.74,-406.64 225.89,-374.2 282.65,-358.06"/>
<polygon fill="black" stroke="black" points="281.58,-360.9 284.74,-356.65 279.61,-358 281.58,-360.9"/>
</g>
<!-- function&#45;1&#45;Beq&#45;&gt;function&#45;0&#45;Addi -->
<g id="edge12" class="edge">
<title>function&#45;1&#45;Beq:s&#45;&gt;function&#45;0&#45;Addi</title>
<path fill="none" stroke="black" d="M99.74,-411C99.74,-395.93 91.57,-381.34 82.92,-370.1"/>
<polygon fill="black" stroke="black" points="86.59,-371.1 81.72,-369 84.22,-373.67 86.59,-371.1"/>
</g>
<!-- function&#45;1&#45;Seq2&#45;&gt;function&#45;2&#45;Bne -->
<g id="edge15" class="edge">
<title>function&#45;1&#45;Seq2:s&#45;&gt;function&#45;2&#45;Bne</title>
<path fill="none" stroke="black" d="M155.74,-411C155.74,-363.81 215.7,-360.06 257.74,-381.5 267.27,-386.36 274.69,-395.41 280.06,-404.17"/>
<polygon fill="black" stroke="black" points="277.1,-403.62 281.84,-406 279.62,-401.19 277.1,-403.62"/>
</g>
<!-- function&#45;1&#45;Seq2&#45;&gt;function&#45;1&#45;Jal -->
<g id="edge16" class="edge">
<title>function&#45;1&#45;Seq2:s&#45;&gt;function&#45;1&#45;Jal</title>
<path fill="none" stroke="black" d="M177.74,-411C177.74,-396.86 183.4,-382.14 189.33,-370.59"/>
<polygon fill="black" stroke="black" points="188.77,-373.93 190.7,-369 186.11,-371.65 188.77,-373.93"/>
</g>
<!-- function&#45;2&#45;Bne&#45;&gt;function&#45;1&#45;ImmVal -->
<g id="edge42" class="edge">
<title>function&#45;2&#45;Bne:s&#45;&gt;function&#45;1&#45;ImmVal</title>
<path fill="none" stroke="black" d="M304.74,-411C304.74,-386.49 280.95,-391.22 265.74,-372 254.73,-358.09 230.47,-317.51 215.47,-291.92"/>
<polygon fill="black" stroke="black" points="218.39,-292.61 213.78,-290 215.76,-294.91 218.39,-292.61"/>
</g>
<!-- function&#45;2&#45;Bne&#45;&gt;function&#45;0&#45;Lw -->
<g id="edge40" class="edge">
<title>function&#45;2&#45;Bne:s&#45;&gt;function&#45;0&#45;Lw</title>
<path fill="none" stroke="black" d="M281.74,-411C281.74,-396.36 288.99,-381.81 296.7,-370.5"/>
<polygon fill="black" stroke="black" points="296.28,-374.08 297.78,-369 293.44,-372.03 296.28,-374.08"/>
</g>
<!-- function&#45;2&#45;Bne&#45;&gt;function&#45;0&#45;Addi -->
<g id="edge41" class="edge">
<title>function&#45;2&#45;Bne:s&#45;&gt;function&#45;0&#45;Addi</title>
<path fill="none" stroke="black" d="M295.74,-411C295.74,-400.75 159.17,-369.85 95.14,-355.93"/>
<polygon fill="black" stroke="black" points="98.01,-355.35 92.74,-354.8 96.52,-358.51 98.01,-355.35"/>
</g>
<!-- function&#45;1&#45;Jal&#45;&gt;function&#45;1&#45;ImmVal -->
<g id="edge21" class="edge">
<title>function&#45;1&#45;Jal:s&#45;&gt;function&#45;1&#45;ImmVal</title>
<path fill="none" stroke="black" d="M202.74,-332C202.74,-318.84 202.74,-304.11 202.74,-292.3"/>
<polygon fill="black" stroke="black" points="204.49,-295 202.74,-290 200.99,-295 204.49,-295"/>
</g>
<!-- function&#45;0&#45;Slli&#45;&gt;function&#45;0&#45;ImmVal -->
<g id="edge20" class="edge">
<title>function&#45;0&#45;Slli:s&#45;&gt;function&#45;0&#45;ImmVal</title>
<path fill="none" stroke="black" d="M282.74,-174C282.74,-163.11 263.75,-147.62 244.76,-134.84"/>
<polygon fill="black" stroke="black" points="245.6,-133.3 240.46,-132 243.67,-136.22 245.6,-133.3"/>
</g>
<!-- function&#45;0&#45;Slli&#45;&gt;function&#45;1&#45;RegVal -->
<g id="edge19" class="edge">
<title>function&#45;0&#45;Slli:s&#45;&gt;function&#45;1&#45;RegVal</title>
<path fill="none" stroke="black" d="M266.74,-174C266.74,-160.69 269.44,-146.06 272.27,-134.36"/>
<polygon fill="black" stroke="black" points="272.69,-137.22 273.58,-132 269.62,-135.53 272.69,-137.22"/>
</g>
<!-- function&#45;1&#45;RegVal&#45;&gt;primitive&#45;String&#45;1 -->
<g id="edge31" class="edge">
<title>function&#45;1&#45;RegVal:s&#45;&gt;primitive&#45;String&#45;1</title>
<path fill="none" stroke="black" d="M279.74,-95C279.74,-81.84 279.74,-67.11 279.74,-55.3"/>
<polygon fill="black" stroke="black" points="281.49,-58 279.74,-53 277.99,-58 281.49,-58"/>
</g>
<!-- function&#45;1&#45;Add&#45;&gt;function&#45;0&#45;Slli -->
<g id="edge28" class="edge">
<title>function&#45;1&#45;Add:s&#45;&gt;function&#45;0&#45;Slli</title>
<path fill="none" stroke="black" d="M321.74,-253C321.74,-237.1 311.8,-222.72 301.07,-211.82"/>
<polygon fill="black" stroke="black" points="304.67,-211.64 299.41,-211 303.12,-214.78 304.67,-211.64"/>
</g>
<!-- function&#45;1&#45;Add&#45;&gt;function&#45;0&#45;RegVal -->
<g id="edge29" class="edge">
<title>function&#45;1&#45;Add:s&#45;&gt;function&#45;0&#45;RegVal</title>
<path fill="none" stroke="black" d="M339.74,-253C339.74,-241.85 359.94,-224.61 378.48,-211.14"/>
<polygon fill="black" stroke="black" points="374.89,-213.33 379.65,-211 374.48,-209.85 374.89,-213.33"/>
</g>
<!-- function&#45;1&#45;Addi&#45;&gt;function&#45;4&#45;ImmVal -->
<g id="edge25" class="edge">
<title>function&#45;1&#45;Addi:s&#45;&gt;function&#45;4&#45;ImmVal</title>
<path fill="none" stroke="black" d="M350.74,-174C350.74,-160.84 350.74,-146.11 350.74,-134.3"/>
<polygon fill="black" stroke="black" points="352.49,-137 350.74,-132 348.99,-137 352.49,-137"/>
</g>
<!-- function&#45;1&#45;Addi&#45;&gt;function&#45;1&#45;RegVal -->
<g id="edge24" class="edge">
<title>function&#45;1&#45;Addi:s&#45;&gt;function&#45;1&#45;RegVal</title>
<path fill="none" stroke="black" d="M330.74,-174C330.74,-157.59 319.91,-143.25 308.14,-132.5"/>
<polygon fill="black" stroke="black" points="312.38,-132.66 307.13,-132 310.82,-135.8 312.38,-132.66"/>
</g>
<!-- function&#45;0&#45;Add&#45;&gt;function&#45;0&#45;Slli -->
<g id="edge27" class="edge">
<title>function&#45;0&#45;Add:s&#45;&gt;function&#45;0&#45;Slli</title>
<path fill="none" stroke="black" d="M281.74,-253C281.74,-239.76 280.14,-225.02 278.47,-213.24"/>
<polygon fill="black" stroke="black" points="280.98,-215.16 277.7,-211 277.67,-216.3 280.98,-215.16"/>
</g>
<!-- function&#45;0&#45;Add&#45;&gt;function&#45;0&#45;RegVal -->
<g id="edge26" class="edge">
<title>function&#45;0&#45;Add:s&#45;&gt;function&#45;0&#45;RegVal</title>
<path fill="none" stroke="black" d="M263.74,-253C263.74,-201.97 325.81,-236.26 371.74,-214 372.1,-213.82 372.46,-213.65 372.82,-213.47"/>
<polygon fill="black" stroke="black" points="373.95,-214.85 377.58,-211 372.33,-211.75 373.95,-214.85"/>
</g>
<!-- function&#45;0&#45;RegVal&#45;&gt;primitive&#45;String&#45;0 -->
<g id="edge30" class="edge">
<title>function&#45;0&#45;RegVal:s&#45;&gt;primitive&#45;String&#45;0</title>
<path fill="none" stroke="black" d="M409.74,-174C409.74,-160.53 412.71,-145.75 415.82,-134.01"/>
<polygon fill="black" stroke="black" points="415.84,-137.13 417.15,-132 412.93,-135.2 415.84,-137.13"/>
</g>
<!-- function&#45;0&#45;Bne&#45;&gt;function&#45;0&#45;ImmLabel -->
<g id="edge34" class="edge">
<title>function&#45;0&#45;Bne:s&#45;&gt;function&#45;0&#45;ImmLabel</title>
<path fill="none" stroke="black" d="M335.74,-490C335.74,-428.83 428.66,-498.07 467.74,-451 477.47,-439.28 477.75,-397.46 476.88,-371.14"/>
<polygon fill="black" stroke="black" points="478.87,-373.83 476.69,-369 475.38,-374.13 478.87,-373.83"/>
</g>
<!-- function&#45;0&#45;Bne&#45;&gt;function&#45;0&#45;Lw -->
<g id="edge32" class="edge">
<title>function&#45;0&#45;Bne:s&#45;&gt;function&#45;0&#45;Lw</title>
<path fill="none" stroke="black" d="M312.74,-490C312.74,-455.54 362.56,-480.87 379.74,-451 390.37,-432.51 388.8,-422.31 379.74,-403 372.68,-387.97 359.15,-375.67 346.26,-366.63"/>
<polygon fill="black" stroke="black" points="349.2,-367.54 344.74,-364.69 346.45,-369.7 349.2,-367.54"/>
</g>
<!-- function&#45;0&#45;Bne&#45;&gt;function&#45;0&#45;Addi -->
<g id="edge33" class="edge">
<title>function&#45;0&#45;Bne:s&#45;&gt;function&#45;0&#45;Addi</title>
<path fill="none" stroke="black" d="M326.74,-490C326.74,-418.8 55.92,-504.32 8.74,-451 -5.4,-435.02 0.57,-422.71 8.74,-403 14.11,-390.02 24.28,-378.54 34.37,-369.54"/>
<polygon fill="black" stroke="black" points="31.78,-372.91 35.36,-369 30.13,-369.82 31.78,-372.91"/>
</g>
<!-- function&#45;1&#45;Bne&#45;&gt;function&#45;0&#45;ImmLabel -->
<g id="edge37" class="edge">
<title>function&#45;1&#45;Bne:s&#45;&gt;function&#45;0&#45;ImmLabel</title>
<path fill="none" stroke="black" d="M393.74,-490C393.74,-448.44 456.25,-485.96 478.74,-451 494.08,-427.14 489.05,-393.21 483.14,-371.15"/>
<polygon fill="black" stroke="black" points="485.93,-372.19 481.71,-369 483.02,-374.13 485.93,-372.19"/>
</g>
<!-- function&#45;1&#45;Bne&#45;&gt;function&#45;0&#45;Lw -->
<g id="edge36" class="edge">
<title>function&#45;1&#45;Bne:s&#45;&gt;function&#45;0&#45;Lw</title>
<path fill="none" stroke="black" d="M384.74,-490C384.74,-451.32 404.03,-437.59 386.74,-403 378.25,-386.03 361.61,-373.01 346.47,-364.01"/>
<polygon fill="black" stroke="black" points="349.55,-364.54 344.74,-362.34 347.13,-367.07 349.55,-364.54"/>
</g>
<!-- function&#45;1&#45;Bne&#45;&gt;function&#45;0&#45;Addi -->
<g id="edge35" class="edge">
<title>function&#45;1&#45;Bne:s&#45;&gt;function&#45;0&#45;Addi</title>
<path fill="none" stroke="black" d="M370.74,-490C370.74,-411.52 72.56,-509.04 19.74,-451 -1.54,-427.62 22.28,-392.18 42.02,-369.82"/>
<polygon fill="black" stroke="black" points="40.01,-373.07 43.4,-369 38.21,-370.06 40.01,-373.07"/>
</g>
<!-- function&#45;0&#45;Seq2&#45;&gt;function&#45;0&#45;Jal -->
<g id="edge39" class="edge">
<title>function&#45;0&#45;Seq2:s&#45;&gt;function&#45;0&#45;Jal</title>
<path fill="none" stroke="black" d="M448.74,-490C448.74,-476.69 446.04,-462.06 443.2,-450.36"/>
<polygon fill="black" stroke="black" points="445.85,-451.53 441.89,-448 442.79,-453.22 445.85,-451.53"/>
</g>
<!-- function&#45;0&#45;Seq2&#45;&gt;function&#45;0&#45;Beq -->
<g id="edge38" class="edge">
<title>function&#45;0&#45;Seq2:s&#45;&gt;function&#45;0&#45;Beq</title>
<path fill="none" stroke="black" d="M426.74,-490C426.74,-480.43 416.04,-484.26 406.74,-482 265.72,-447.82 217.19,-503.02 81.74,-451 81.2,-450.79 80.66,-450.57 80.12,-450.34"/>
<polygon fill="black" stroke="black" points="80.61,-448.63 75.35,-448 79.06,-451.77 80.61,-448.63"/>
</g>
<!-- function&#45;3&#45;Bne&#45;&gt;function&#45;1&#45;ImmVal -->
<g id="edge45" class="edge">
<title>function&#45;3&#45;Bne:s&#45;&gt;function&#45;1&#45;ImmVal</title>
<path fill="none" stroke="black" d="M362.74,-411C362.74,-371.84 312.77,-398.27 283.74,-372 265.08,-355.12 269.12,-343.91 253.74,-324 244.83,-312.47 233.85,-300.6 224.36,-290.93"/>
<polygon fill="black" stroke="black" points="227.89,-290.88 222.67,-290 226.21,-293.94 227.89,-290.88"/>
</g>
<!-- function&#45;3&#45;Bne&#45;&gt;function&#45;0&#45;Lw -->
<g id="edge44" class="edge">
<title>function&#45;3&#45;Bne:s&#45;&gt;function&#45;0&#45;Lw</title>
<path fill="none" stroke="black" d="M353.74,-411C353.74,-395.82 345.26,-381.32 336.21,-370.17"/>
<polygon fill="black" stroke="black" points="339.79,-370.95 334.87,-369 337.5,-373.6 339.79,-370.95"/>
</g>
<!-- function&#45;3&#45;Bne&#45;&gt;function&#45;0&#45;Addi -->
<g id="edge43" class="edge">
<title>function&#45;3&#45;Bne:s&#45;&gt;function&#45;0&#45;Addi</title>
<path fill="none" stroke="black" d="M339.74,-411C339.74,-400.6 327.74,-405.86 317.74,-403 315.04,-402.23 163.47,-370.24 95.31,-355.87"/>
<polygon fill="black" stroke="black" points="98.02,-355.11 92.74,-354.78 96.66,-358.34 98.02,-355.11"/>
</g>
<!-- function&#45;2&#45;Seq2&#45;&gt;function&#45;1&#45;Seq2 -->
<g id="edge46" class="edge">
<title>function&#45;2&#45;Seq2:s&#45;&gt;function&#45;1&#45;Seq2</title>
<path fill="none" stroke="black" d="M221.74,-411C221.74,-399.59 210.52,-401.91 198.31,-407.8"/>
<polygon fill="black" stroke="black" points="199.45,-404.57 196.74,-409.12 201.7,-407.26 199.45,-404.57"/>
</g>
<!-- function&#45;2&#45;Seq2&#45;&gt;function&#45;1&#45;Jal -->
<g id="edge47" class="edge">
<title>function&#45;2&#45;Seq2:s&#45;&gt;function&#45;1&#45;Jal</title>
<path fill="none" stroke="black" d="M243.74,-411C243.74,-395.6 234.83,-381.08 225.31,-369.97"/>
<polygon fill="black" stroke="black" points="228.95,-370.23 223.8,-369 227.06,-373.17 228.95,-370.23"/>
</g>
<!-- function&#45;2&#45;ImmVal -->
<g id="node1" class="node">
<title>function&#45;2&#45;ImmVal</title>
<g id="a_node1"><a xlink:title="Imm&#45;7: function&#45;2&#45;ImmVal">
<path fill="white" stroke="transparent" d="M31.4,-174C31.4,-174 72.07,-174 72.07,-174 77.4,-174 82.74,-179.33 82.74,-184.67 82.74,-184.67 82.74,-195.33 82.74,-195.33 82.74,-200.67 77.4,-206 72.07,-206 72.07,-206 31.4,-206 31.4,-206 26.07,-206 20.74,-200.67 20.74,-195.33 20.74,-195.33 20.74,-184.67 20.74,-184.67 20.74,-179.33 26.07,-174 31.4,-174"/>
<text text-anchor="start" x="25.74" y="-186.3" font-family="Helvetica,sans-Serif" font-size="14.00">ImmVal</text>
<path fill="none" stroke="black" d="M31.4,-174C31.4,-174 72.07,-174 72.07,-174 77.4,-174 82.74,-179.33 82.74,-184.67 82.74,-184.67 82.74,-195.33 82.74,-195.33 82.74,-200.67 77.4,-206 72.07,-206 72.07,-206 31.4,-206 31.4,-206 26.07,-206 20.74,-200.67 20.74,-195.33 20.74,-195.33 20.74,-184.67 20.74,-184.67 20.74,-179.33 26.07,-174 31.4,-174"/>
</a>
</g>
</g>
<!-- primitive&#45;i64&#45;2 -->
<g id="node2" class="node">
<title>primitive&#45;i64&#45;2</title>
<g id="a_node2"><a xlink:title="i64&#45;2: primitive&#45;i64&#45;2">
<path fill="white" stroke="transparent" d="M46.4,-95C46.4,-95 57.07,-95 57.07,-95 62.4,-95 67.74,-100.33 67.74,-105.67 67.74,-105.67 67.74,-116.33 67.74,-116.33 67.74,-121.67 62.4,-127 57.07,-127 57.07,-127 46.4,-127 46.4,-127 41.07,-127 35.74,-121.67 35.74,-116.33 35.74,-116.33 35.74,-105.67 35.74,-105.67 35.74,-100.33 41.07,-95 46.4,-95"/>
<text text-anchor="start" x="46.74" y="-107.3" font-family="Helvetica,sans-Serif" font-size="14.00">2</text>
<path fill="none" stroke="black" d="M46.4,-95C46.4,-95 57.07,-95 57.07,-95 62.4,-95 67.74,-100.33 67.74,-105.67 67.74,-105.67 67.74,-116.33 67.74,-116.33 67.74,-121.67 62.4,-127 57.07,-127 57.07,-127 46.4,-127 46.4,-127 41.07,-127 35.74,-121.67 35.74,-116.33 35.74,-116.33 35.74,-105.67 35.74,-105.67 35.74,-100.33 41.07,-95 46.4,-95"/>
</a>
</g>
</g>
<!-- function&#45;4&#45;ImmVal -->
<g id="node3" class="node">
<title>function&#45;4&#45;ImmVal</title>
<g id="a_node3"><a xlink:title="Imm&#45;11: function&#45;4&#45;ImmVal">
<path fill="white" stroke="transparent" d="M330.4,-95C330.4,-95 371.07,-95 371.07,-95 376.4,-95 381.74,-100.33 381.74,-105.67 381.74,-105.67 381.74,-116.33 381.74,-116.33 381.74,-121.67 376.4,-127 371.07,-127 371.07,-127 330.4,-127 330.4,-127 325.07,-127 319.74,-121.67 319.74,-116.33 319.74,-116.33 319.74,-105.67 319.74,-105.67 319.74,-100.33 325.07,-95 330.4,-95"/>
<text text-anchor="start" x="324.74" y="-107.3" font-family="Helvetica,sans-Serif" font-size="14.00">ImmVal</text>
<path fill="none" stroke="black" d="M330.4,-95C330.4,-95 371.07,-95 371.07,-95 376.4,-95 381.74,-100.33 381.74,-105.67 381.74,-105.67 381.74,-116.33 381.74,-116.33 381.74,-121.67 376.4,-127 371.07,-127 371.07,-127 330.4,-127 330.4,-127 325.07,-127 319.74,-121.67 319.74,-116.33 319.74,-116.33 319.74,-105.67 319.74,-105.67 319.74,-100.33 325.07,-95 330.4,-95"/>
</a>
</g>
</g>
<!-- primitive&#45;i64&#45;0 -->
<g id="node4" class="node">
<title>primitive&#45;i64&#45;0</title>
<g id="a_node4"><a xlink:title="i64&#45;0: primitive&#45;i64&#45;0">
<path fill="white" stroke="transparent" d="M345.4,-16C345.4,-16 356.07,-16 356.07,-16 361.4,-16 366.74,-21.33 366.74,-26.67 366.74,-26.67 366.74,-37.33 366.74,-37.33 366.74,-42.67 361.4,-48 356.07,-48 356.07,-48 345.4,-48 345.4,-48 340.07,-48 334.74,-42.67 334.74,-37.33 334.74,-37.33 334.74,-26.67 334.74,-26.67 334.74,-21.33 340.07,-16 345.4,-16"/>
<text text-anchor="start" x="345.74" y="-28.3" font-family="Helvetica,sans-Serif" font-size="14.00">0</text>
<path fill="none" stroke="black" d="M345.4,-16C345.4,-16 356.07,-16 356.07,-16 361.4,-16 366.74,-21.33 366.74,-26.67 366.74,-26.67 366.74,-37.33 366.74,-37.33 366.74,-42.67 361.4,-48 356.07,-48 356.07,-48 345.4,-48 345.4,-48 340.07,-48 334.74,-42.67 334.74,-37.33 334.74,-37.33 334.74,-26.67 334.74,-26.67 334.74,-21.33 340.07,-16 345.4,-16"/>
</a>
</g>
</g>
<!-- function&#45;0&#45;ImmLabel -->
<g id="node5" class="node">
<title>function&#45;0&#45;ImmLabel</title>
<g id="a_node5"><a xlink:title="Imm&#45;13: function&#45;0&#45;ImmLabel">
<path fill="white" stroke="transparent" d="M446.9,-332C446.9,-332 504.57,-332 504.57,-332 509.9,-332 515.24,-337.33 515.24,-342.67 515.24,-342.67 515.24,-353.33 515.24,-353.33 515.24,-358.67 509.9,-364 504.57,-364 504.57,-364 446.9,-364 446.9,-364 441.57,-364 436.24,-358.67 436.24,-353.33 436.24,-353.33 436.24,-342.67 436.24,-342.67 436.24,-337.33 441.57,-332 446.9,-332"/>
<text text-anchor="start" x="441.74" y="-344.3" font-family="Helvetica,sans-Serif" font-size="14.00">ImmLabel</text>
<path fill="none" stroke="black" d="M446.9,-332C446.9,-332 504.57,-332 504.57,-332 509.9,-332 515.24,-337.33 515.24,-342.67 515.24,-342.67 515.24,-353.33 515.24,-353.33 515.24,-358.67 509.9,-364 504.57,-364 504.57,-364 446.9,-364 446.9,-364 441.57,-364 436.24,-358.67 436.24,-353.33 436.24,-353.33 436.24,-342.67 436.24,-342.67 436.24,-337.33 441.57,-332 446.9,-332"/>
</a>
</g>
</g>
<!-- primitive&#45;String&#45;2 -->
<g id="node6" class="node">
<title>primitive&#45;String&#45;2</title>
<g id="a_node6"><a xlink:title="String&#45;2: primitive&#45;String&#45;2">
<path fill="white" stroke="transparent" d="M464.9,-253C464.9,-253 488.57,-253 488.57,-253 493.9,-253 499.24,-258.33 499.24,-263.67 499.24,-263.67 499.24,-274.33 499.24,-274.33 499.24,-279.67 493.9,-285 488.57,-285 488.57,-285 464.9,-285 464.9,-285 459.57,-285 454.24,-279.67 454.24,-274.33 454.24,-274.33 454.24,-263.67 454.24,-263.67 454.24,-258.33 459.57,-253 464.9,-253"/>
<text text-anchor="start" x="459.74" y="-265.3" font-family="Helvetica,sans-Serif" font-size="14.00">&quot;.L9&quot;</text>
<path fill="none" stroke="black" d="M464.9,-253C464.9,-253 488.57,-253 488.57,-253 493.9,-253 499.24,-258.33 499.24,-263.67 499.24,-263.67 499.24,-274.33 499.24,-274.33 499.24,-279.67 493.9,-285 488.57,-285 488.57,-285 464.9,-285 464.9,-285 459.57,-285 454.24,-279.67 454.24,-274.33 454.24,-274.33 454.24,-263.67 454.24,-263.67 454.24,-258.33 459.57,-253 464.9,-253"/>
</a>
</g>
</g>
<!-- function&#45;1&#45;ImmVal -->
<g id="node7" class="node">
<title>function&#45;1&#45;ImmVal</title>
<g id="a_node7"><a xlink:title="Imm&#45;5: function&#45;1&#45;ImmVal">
<path fill="white" stroke="transparent" d="M182.4,-253C182.4,-253 223.07,-253 223.07,-253 228.4,-253 233.74,-258.33 233.74,-263.67 233.74,-263.67 233.74,-274.33 233.74,-274.33 233.74,-279.67 228.4,-285 223.07,-285 223.07,-285 182.4,-285 182.4,-285 177.07,-285 171.74,-279.67 171.74,-274.33 171.74,-274.33 171.74,-263.67 171.74,-263.67 171.74,-258.33 177.07,-253 182.4,-253"/>
<text text-anchor="start" x="176.74" y="-265.3" font-family="Helvetica,sans-Serif" font-size="14.00">ImmVal</text>
<path fill="none" stroke="black" d="M182.4,-253C182.4,-253 223.07,-253 223.07,-253 228.4,-253 233.74,-258.33 233.74,-263.67 233.74,-263.67 233.74,-274.33 233.74,-274.33 233.74,-279.67 228.4,-285 223.07,-285 223.07,-285 182.4,-285 182.4,-285 177.07,-285 171.74,-279.67 171.74,-274.33 171.74,-274.33 171.74,-263.67 171.74,-263.67 171.74,-258.33 177.07,-253 182.4,-253"/>
</a>
</g>
</g>
<!-- primitive&#45;i64&#45;4 -->
<g id="node8" class="node">
<title>primitive&#45;i64&#45;4</title>
<g id="a_node8"><a xlink:title="i64&#45;4: primitive&#45;i64&#45;4">
<path fill="white" stroke="transparent" d="M197.4,-174C197.4,-174 208.07,-174 208.07,-174 213.4,-174 218.74,-179.33 218.74,-184.67 218.74,-184.67 218.74,-195.33 218.74,-195.33 218.74,-200.67 213.4,-206 208.07,-206 208.07,-206 197.4,-206 197.4,-206 192.07,-206 186.74,-200.67 186.74,-195.33 186.74,-195.33 186.74,-184.67 186.74,-184.67 186.74,-179.33 192.07,-174 197.4,-174"/>
<text text-anchor="start" x="197.74" y="-186.3" font-family="Helvetica,sans-Serif" font-size="14.00">4</text>
<path fill="none" stroke="black" d="M197.4,-174C197.4,-174 208.07,-174 208.07,-174 213.4,-174 218.74,-179.33 218.74,-184.67 218.74,-184.67 218.74,-195.33 218.74,-195.33 218.74,-200.67 213.4,-206 208.07,-206 208.07,-206 197.4,-206 197.4,-206 192.07,-206 186.74,-200.67 186.74,-195.33 186.74,-195.33 186.74,-184.67 186.74,-184.67 186.74,-179.33 192.07,-174 197.4,-174"/>
</a>
</g>
</g>
<!-- function&#45;0&#45;ImmVal -->
<g id="node9" class="node">
<title>function&#45;0&#45;ImmVal</title>
<g id="a_node9"><a xlink:title="Imm&#45;2: function&#45;0&#45;ImmVal">
<path fill="white" stroke="transparent" d="M186.4,-95C186.4,-95 227.07,-95 227.07,-95 232.4,-95 237.74,-100.33 237.74,-105.67 237.74,-105.67 237.74,-116.33 237.74,-116.33 237.74,-121.67 232.4,-127 227.07,-127 227.07,-127 186.4,-127 186.4,-127 181.07,-127 175.74,-121.67 175.74,-116.33 175.74,-116.33 175.74,-105.67 175.74,-105.67 175.74,-100.33 181.07,-95 186.4,-95"/>
<text text-anchor="start" x="180.74" y="-107.3" font-family="Helvetica,sans-Serif" font-size="14.00">ImmVal</text>
<path fill="none" stroke="black" d="M186.4,-95C186.4,-95 227.07,-95 227.07,-95 232.4,-95 237.74,-100.33 237.74,-105.67 237.74,-105.67 237.74,-116.33 237.74,-116.33 237.74,-121.67 232.4,-127 227.07,-127 227.07,-127 186.4,-127 186.4,-127 181.07,-127 175.74,-121.67 175.74,-116.33 175.74,-116.33 175.74,-105.67 175.74,-105.67 175.74,-100.33 181.07,-95 186.4,-95"/>
</a>
</g>
</g>
<!-- primitive&#45;i64&#45;3 -->
<g id="node10" class="node">
<title>primitive&#45;i64&#45;3</title>
<g id="a_node10"><a xlink:title="i64&#45;3: primitive&#45;i64&#45;3">
<path fill="white" stroke="transparent" d="M201.4,-16C201.4,-16 212.07,-16 212.07,-16 217.4,-16 222.74,-21.33 222.74,-26.67 222.74,-26.67 222.74,-37.33 222.74,-37.33 222.74,-42.67 217.4,-48 212.07,-48 212.07,-48 201.4,-48 201.4,-48 196.07,-48 190.74,-42.67 190.74,-37.33 190.74,-37.33 190.74,-26.67 190.74,-26.67 190.74,-21.33 196.07,-16 201.4,-16"/>
<text text-anchor="start" x="201.74" y="-28.3" font-family="Helvetica,sans-Serif" font-size="14.00">3</text>
<path fill="none" stroke="black" d="M201.4,-16C201.4,-16 212.07,-16 212.07,-16 217.4,-16 222.74,-21.33 222.74,-26.67 222.74,-26.67 222.74,-37.33 222.74,-37.33 222.74,-42.67 217.4,-48 212.07,-48 212.07,-48 201.4,-48 201.4,-48 196.07,-48 190.74,-42.67 190.74,-37.33 190.74,-37.33 190.74,-26.67 190.74,-26.67 190.74,-21.33 196.07,-16 201.4,-16"/>
</a>
</g>
</g>
<!-- function&#45;3&#45;ImmVal -->
<g id="node11" class="node">
<title>function&#45;3&#45;ImmVal</title>
<g id="a_node11"><a xlink:title="Imm&#45;9: function&#45;3&#45;ImmVal">
<path fill="white" stroke="transparent" d="M101.4,-253C101.4,-253 142.07,-253 142.07,-253 147.4,-253 152.74,-258.33 152.74,-263.67 152.74,-263.67 152.74,-274.33 152.74,-274.33 152.74,-279.67 147.4,-285 142.07,-285 142.07,-285 101.4,-285 101.4,-285 96.07,-285 90.74,-279.67 90.74,-274.33 90.74,-274.33 90.74,-263.67 90.74,-263.67 90.74,-258.33 96.07,-253 101.4,-253"/>
<text text-anchor="start" x="95.74" y="-265.3" font-family="Helvetica,sans-Serif" font-size="14.00">ImmVal</text>
<path fill="none" stroke="black" d="M101.4,-253C101.4,-253 142.07,-253 142.07,-253 147.4,-253 152.74,-258.33 152.74,-263.67 152.74,-263.67 152.74,-274.33 152.74,-274.33 152.74,-279.67 147.4,-285 142.07,-285 142.07,-285 101.4,-285 101.4,-285 96.07,-285 90.74,-279.67 90.74,-274.33 90.74,-274.33 90.74,-263.67 90.74,-263.67 90.74,-258.33 96.07,-253 101.4,-253"/>
</a>
</g>
</g>
<!-- primitive&#45;i64&#45;1807 -->
<g id="node12" class="node">
<title>primitive&#45;i64&#45;1807</title>
<g id="a_node12"><a xlink:title="i64&#45;1807: primitive&#45;i64&#45;1807">
<path fill="white" stroke="transparent" d="M108.9,-174C108.9,-174 134.57,-174 134.57,-174 139.9,-174 145.24,-179.33 145.24,-184.67 145.24,-184.67 145.24,-195.33 145.24,-195.33 145.24,-200.67 139.9,-206 134.57,-206 134.57,-206 108.9,-206 108.9,-206 103.57,-206 98.24,-200.67 98.24,-195.33 98.24,-195.33 98.24,-184.67 98.24,-184.67 98.24,-179.33 103.57,-174 108.9,-174"/>
<text text-anchor="start" x="103.74" y="-186.3" font-family="Helvetica,sans-Serif" font-size="14.00">1807</text>
<path fill="none" stroke="black" d="M108.9,-174C108.9,-174 134.57,-174 134.57,-174 139.9,-174 145.24,-179.33 145.24,-184.67 145.24,-184.67 145.24,-195.33 145.24,-195.33 145.24,-200.67 139.9,-206 134.57,-206 134.57,-206 108.9,-206 108.9,-206 103.57,-206 98.24,-200.67 98.24,-195.33 98.24,-195.33 98.24,-184.67 98.24,-184.67 98.24,-179.33 103.57,-174 108.9,-174"/>
</a>
</g>
</g>
<!-- function&#45;0&#45;Lui -->
<g id="node13" class="node">
<title>function&#45;0&#45;Lui</title>
<g id="a_node13"><a xlink:title="Inst&#45;8: function&#45;0&#45;Lui">
<path fill="white" stroke="transparent" d="M46.4,-253C46.4,-253 57.07,-253 57.07,-253 62.4,-253 67.74,-258.33 67.74,-263.67 67.74,-263.67 67.74,-274.33 67.74,-274.33 67.74,-279.67 62.4,-285 57.07,-285 57.07,-285 46.4,-285 46.4,-285 41.07,-285 35.74,-279.67 35.74,-274.33 35.74,-274.33 35.74,-263.67 35.74,-263.67 35.74,-258.33 41.07,-253 46.4,-253"/>
<text text-anchor="start" x="41.24" y="-265.3" font-family="Helvetica,sans-Serif" font-size="14.00">Lui</text>
<path fill="none" stroke="black" d="M46.4,-253C46.4,-253 57.07,-253 57.07,-253 62.4,-253 67.74,-258.33 67.74,-263.67 67.74,-263.67 67.74,-274.33 67.74,-274.33 67.74,-279.67 62.4,-285 57.07,-285 57.07,-285 46.4,-285 46.4,-285 41.07,-285 35.74,-279.67 35.74,-274.33 35.74,-274.33 35.74,-263.67 35.74,-263.67 35.74,-258.33 41.07,-253 46.4,-253"/>
</a>
</g>
</g>
<!-- function&#45;0&#45;Jal -->
<g id="node14" class="node">
<title>function&#45;0&#45;Jal</title>
<g id="a_node14"><a xlink:title="Inst&#45;16: function&#45;0&#45;Jal">
<path fill="white" stroke="transparent" d="M431.4,-411C431.4,-411 442.07,-411 442.07,-411 447.4,-411 452.74,-416.33 452.74,-421.67 452.74,-421.67 452.74,-432.33 452.74,-432.33 452.74,-437.67 447.4,-443 442.07,-443 442.07,-443 431.4,-443 431.4,-443 426.07,-443 420.74,-437.67 420.74,-432.33 420.74,-432.33 420.74,-421.67 420.74,-421.67 420.74,-416.33 426.07,-411 431.4,-411"/>
<text text-anchor="start" x="428.24" y="-423.3" font-family="Helvetica,sans-Serif" font-size="14.00">Jal</text>
<path fill="none" stroke="black" d="M431.4,-411C431.4,-411 442.07,-411 442.07,-411 447.4,-411 452.74,-416.33 452.74,-421.67 452.74,-421.67 452.74,-432.33 452.74,-432.33 452.74,-437.67 447.4,-443 442.07,-443 442.07,-443 431.4,-443 431.4,-443 426.07,-443 420.74,-437.67 420.74,-432.33 420.74,-432.33 420.74,-421.67 420.74,-421.67 420.74,-416.33 426.07,-411 431.4,-411"/>
</a>
</g>
</g>
<!-- function&#45;0&#45;Beq -->
<g id="node15" class="node">
<title>function&#45;0&#45;Beq</title>
<g id="a_node15"><a xlink:title="Inst&#45;15: function&#45;0&#45;Beq">
<path fill="white" stroke="transparent" d="M42.4,-411C42.4,-411 59.07,-411 59.07,-411 64.4,-411 69.74,-416.33 69.74,-421.67 69.74,-421.67 69.74,-432.33 69.74,-432.33 69.74,-437.67 64.4,-443 59.07,-443 59.07,-443 42.4,-443 42.4,-443 37.07,-443 31.74,-437.67 31.74,-432.33 31.74,-432.33 31.74,-421.67 31.74,-421.67 31.74,-416.33 37.07,-411 42.4,-411"/>
<text text-anchor="start" x="36.74" y="-423.3" font-family="Helvetica,sans-Serif" font-size="14.00">Beq</text>
<path fill="none" stroke="black" d="M42.4,-411C42.4,-411 59.07,-411 59.07,-411 64.4,-411 69.74,-416.33 69.74,-421.67 69.74,-421.67 69.74,-432.33 69.74,-432.33 69.74,-437.67 64.4,-443 59.07,-443 59.07,-443 42.4,-443 42.4,-443 37.07,-443 31.74,-437.67 31.74,-432.33 31.74,-432.33 31.74,-421.67 31.74,-421.67 31.74,-416.33 37.07,-411 42.4,-411"/>
</a>
</g>
</g>
<!-- function&#45;0&#45;Lw -->
<g id="node16" class="node">
<title>function&#45;0&#45;Lw</title>
<g id="a_node16"><a xlink:title="Inst&#45;6: function&#45;0&#45;Lw">
<path fill="white" stroke="transparent" d="M309.4,-332C309.4,-332 320.07,-332 320.07,-332 325.4,-332 330.74,-337.33 330.74,-342.67 330.74,-342.67 330.74,-353.33 330.74,-353.33 330.74,-358.67 325.4,-364 320.07,-364 320.07,-364 309.4,-364 309.4,-364 304.07,-364 298.74,-358.67 298.74,-353.33 298.74,-353.33 298.74,-342.67 298.74,-342.67 298.74,-337.33 304.07,-332 309.4,-332"/>
<text text-anchor="start" x="305.24" y="-344.3" font-family="Helvetica,sans-Serif" font-size="14.00">Lw</text>
<path fill="none" stroke="black" d="M309.4,-332C309.4,-332 320.07,-332 320.07,-332 325.4,-332 330.74,-337.33 330.74,-342.67 330.74,-342.67 330.74,-353.33 330.74,-353.33 330.74,-358.67 325.4,-364 320.07,-364 320.07,-364 309.4,-364 309.4,-364 304.07,-364 298.74,-358.67 298.74,-353.33 298.74,-353.33 298.74,-342.67 298.74,-342.67 298.74,-337.33 304.07,-332 309.4,-332"/>
</a>
</g>
</g>
<!-- function&#45;0&#45;Addi -->
<g id="node17" class="node">
<title>function&#45;0&#45;Addi</title>
<g id="a_node17"><a xlink:title="Inst&#45;10: function&#45;0&#45;Addi">
<path fill="white" stroke="transparent" d="M52.9,-332C52.9,-332 72.57,-332 72.57,-332 77.9,-332 83.24,-337.33 83.24,-342.67 83.24,-342.67 83.24,-353.33 83.24,-353.33 83.24,-358.67 77.9,-364 72.57,-364 72.57,-364 52.9,-364 52.9,-364 47.57,-364 42.24,-358.67 42.24,-353.33 42.24,-353.33 42.24,-342.67 42.24,-342.67 42.24,-337.33 47.57,-332 52.9,-332"/>
<text text-anchor="start" x="47.74" y="-344.3" font-family="Helvetica,sans-Serif" font-size="14.00">Addi</text>
<path fill="none" stroke="black" d="M52.9,-332C52.9,-332 72.57,-332 72.57,-332 77.9,-332 83.24,-337.33 83.24,-342.67 83.24,-342.67 83.24,-353.33 83.24,-353.33 83.24,-358.67 77.9,-364 72.57,-364 72.57,-364 52.9,-364 52.9,-364 47.57,-364 42.24,-358.67 42.24,-353.33 42.24,-353.33 42.24,-342.67 42.24,-342.67 42.24,-337.33 47.57,-332 52.9,-332"/>
</a>
</g>
</g>
<!-- function&#45;1&#45;Beq -->
<g id="node18" class="node">
<title>function&#45;1&#45;Beq</title>
<g id="a_node18"><a xlink:title="Inst&#45;15: function&#45;1&#45;Beq">
<path fill="white" stroke="transparent" d="M100.4,-411C100.4,-411 117.07,-411 117.07,-411 122.4,-411 127.74,-416.33 127.74,-421.67 127.74,-421.67 127.74,-432.33 127.74,-432.33 127.74,-437.67 122.4,-443 117.07,-443 117.07,-443 100.4,-443 100.4,-443 95.07,-443 89.74,-437.67 89.74,-432.33 89.74,-432.33 89.74,-421.67 89.74,-421.67 89.74,-416.33 95.07,-411 100.4,-411"/>
<text text-anchor="start" x="94.74" y="-423.3" font-family="Helvetica,sans-Serif" font-size="14.00">Beq</text>
<path fill="none" stroke="black" d="M100.4,-411C100.4,-411 117.07,-411 117.07,-411 122.4,-411 127.74,-416.33 127.74,-421.67 127.74,-421.67 127.74,-432.33 127.74,-432.33 127.74,-437.67 122.4,-443 117.07,-443 117.07,-443 100.4,-443 100.4,-443 95.07,-443 89.74,-437.67 89.74,-432.33 89.74,-432.33 89.74,-421.67 89.74,-421.67 89.74,-416.33 95.07,-411 100.4,-411"/>
</a>
</g>
</g>
<!-- function&#45;1&#45;Seq2 -->
<g id="node19" class="node">
<title>function&#45;1&#45;Seq2</title>
<g id="a_node19"><a xlink:title="Inst&#45;15: function&#45;1&#45;Seq2">
<path fill="white" stroke="transparent" d="M154.4,-411C154.4,-411 179.07,-411 179.07,-411 184.4,-411 189.74,-416.33 189.74,-421.67 189.74,-421.67 189.74,-432.33 189.74,-432.33 189.74,-437.67 184.4,-443 179.07,-443 179.07,-443 154.4,-443 154.4,-443 149.07,-443 143.74,-437.67 143.74,-432.33 143.74,-432.33 143.74,-421.67 143.74,-421.67 143.74,-416.33 149.07,-411 154.4,-411"/>
<text text-anchor="start" x="148.74" y="-423.3" font-family="Helvetica,sans-Serif" font-size="14.00">Seq2</text>
<path fill="none" stroke="black" d="M154.4,-411C154.4,-411 179.07,-411 179.07,-411 184.4,-411 189.74,-416.33 189.74,-421.67 189.74,-421.67 189.74,-432.33 189.74,-432.33 189.74,-437.67 184.4,-443 179.07,-443 179.07,-443 154.4,-443 154.4,-443 149.07,-443 143.74,-437.67 143.74,-432.33 143.74,-432.33 143.74,-421.67 143.74,-421.67 143.74,-416.33 149.07,-411 154.4,-411"/>
</a>
</g>
</g>
<!-- function&#45;2&#45;Bne -->
<g id="node20" class="node">
<title>function&#45;2&#45;Bne</title>
<g id="a_node20"><a xlink:title="Inst&#45;17: function&#45;2&#45;Bne">
<path fill="white" stroke="transparent" d="M282.4,-411C282.4,-411 299.07,-411 299.07,-411 304.4,-411 309.74,-416.33 309.74,-421.67 309.74,-421.67 309.74,-432.33 309.74,-432.33 309.74,-437.67 304.4,-443 299.07,-443 299.07,-443 282.4,-443 282.4,-443 277.07,-443 271.74,-437.67 271.74,-432.33 271.74,-432.33 271.74,-421.67 271.74,-421.67 271.74,-416.33 277.07,-411 282.4,-411"/>
<text text-anchor="start" x="276.74" y="-423.3" font-family="Helvetica,sans-Serif" font-size="14.00">Bne</text>
<path fill="none" stroke="black" d="M282.4,-411C282.4,-411 299.07,-411 299.07,-411 304.4,-411 309.74,-416.33 309.74,-421.67 309.74,-421.67 309.74,-432.33 309.74,-432.33 309.74,-437.67 304.4,-443 299.07,-443 299.07,-443 282.4,-443 282.4,-443 277.07,-443 271.74,-437.67 271.74,-432.33 271.74,-432.33 271.74,-421.67 271.74,-421.67 271.74,-416.33 277.07,-411 282.4,-411"/>
</a>
</g>
</g>
<!-- function&#45;1&#45;Jal -->
<g id="node21" class="node">
<title>function&#45;1&#45;Jal</title>
<g id="a_node21"><a xlink:title="Inst&#45;18: function&#45;1&#45;Jal">
<path fill="white" stroke="transparent" d="M197.4,-332C197.4,-332 208.07,-332 208.07,-332 213.4,-332 218.74,-337.33 218.74,-342.67 218.74,-342.67 218.74,-353.33 218.74,-353.33 218.74,-358.67 213.4,-364 208.07,-364 208.07,-364 197.4,-364 197.4,-364 192.07,-364 186.74,-358.67 186.74,-353.33 186.74,-353.33 186.74,-342.67 186.74,-342.67 186.74,-337.33 192.07,-332 197.4,-332"/>
<text text-anchor="start" x="194.24" y="-344.3" font-family="Helvetica,sans-Serif" font-size="14.00">Jal</text>
<path fill="none" stroke="black" d="M197.4,-332C197.4,-332 208.07,-332 208.07,-332 213.4,-332 218.74,-337.33 218.74,-342.67 218.74,-342.67 218.74,-353.33 218.74,-353.33 218.74,-358.67 213.4,-364 208.07,-364 208.07,-364 197.4,-364 197.4,-364 192.07,-364 186.74,-358.67 186.74,-353.33 186.74,-353.33 186.74,-342.67 186.74,-342.67 186.74,-337.33 192.07,-332 197.4,-332"/>
</a>
</g>
</g>
<!-- function&#45;0&#45;Slli -->
<g id="node22" class="node">
<title>function&#45;0&#45;Slli</title>
<g id="a_node22"><a xlink:title="Inst&#45;3: function&#45;0&#45;Slli">
<path fill="white" stroke="transparent" d="M269.4,-174C269.4,-174 280.07,-174 280.07,-174 285.4,-174 290.74,-179.33 290.74,-184.67 290.74,-184.67 290.74,-195.33 290.74,-195.33 290.74,-200.67 285.4,-206 280.07,-206 280.07,-206 269.4,-206 269.4,-206 264.07,-206 258.74,-200.67 258.74,-195.33 258.74,-195.33 258.74,-184.67 258.74,-184.67 258.74,-179.33 264.07,-174 269.4,-174"/>
<text text-anchor="start" x="264.24" y="-186.3" font-family="Helvetica,sans-Serif" font-size="14.00">Slli</text>
<path fill="none" stroke="black" d="M269.4,-174C269.4,-174 280.07,-174 280.07,-174 285.4,-174 290.74,-179.33 290.74,-184.67 290.74,-184.67 290.74,-195.33 290.74,-195.33 290.74,-200.67 285.4,-206 280.07,-206 280.07,-206 269.4,-206 269.4,-206 264.07,-206 258.74,-200.67 258.74,-195.33 258.74,-195.33 258.74,-184.67 258.74,-184.67 258.74,-179.33 264.07,-174 269.4,-174"/>
</a>
</g>
</g>
<!-- function&#45;1&#45;RegVal -->
<g id="node23" class="node">
<title>function&#45;1&#45;RegVal</title>
<g id="a_node23"><a xlink:title="Inst&#45;1: function&#45;1&#45;RegVal">
<path fill="white" stroke="transparent" d="M260.9,-95C260.9,-95 296.57,-95 296.57,-95 301.9,-95 307.24,-100.33 307.24,-105.67 307.24,-105.67 307.24,-116.33 307.24,-116.33 307.24,-121.67 301.9,-127 296.57,-127 296.57,-127 260.9,-127 260.9,-127 255.57,-127 250.24,-121.67 250.24,-116.33 250.24,-116.33 250.24,-105.67 250.24,-105.67 250.24,-100.33 255.57,-95 260.9,-95"/>
<text text-anchor="start" x="255.74" y="-107.3" font-family="Helvetica,sans-Serif" font-size="14.00">RegVal</text>
<path fill="none" stroke="black" d="M260.9,-95C260.9,-95 296.57,-95 296.57,-95 301.9,-95 307.24,-100.33 307.24,-105.67 307.24,-105.67 307.24,-116.33 307.24,-116.33 307.24,-121.67 301.9,-127 296.57,-127 296.57,-127 260.9,-127 260.9,-127 255.57,-127 250.24,-121.67 250.24,-116.33 250.24,-116.33 250.24,-105.67 250.24,-105.67 250.24,-100.33 255.57,-95 260.9,-95"/>
</a>
</g>
</g>
<!-- function&#45;1&#45;Add -->
<g id="node24" class="node">
<title>function&#45;1&#45;Add</title>
<g id="a_node24"><a xlink:title="Inst&#45;4: function&#45;1&#45;Add">
<path fill="white" stroke="transparent" d="M322.4,-253C322.4,-253 339.07,-253 339.07,-253 344.4,-253 349.74,-258.33 349.74,-263.67 349.74,-263.67 349.74,-274.33 349.74,-274.33 349.74,-279.67 344.4,-285 339.07,-285 339.07,-285 322.4,-285 322.4,-285 317.07,-285 311.74,-279.67 311.74,-274.33 311.74,-274.33 311.74,-263.67 311.74,-263.67 311.74,-258.33 317.07,-253 322.4,-253"/>
<text text-anchor="start" x="316.74" y="-265.3" font-family="Helvetica,sans-Serif" font-size="14.00">Add</text>
<path fill="none" stroke="black" d="M322.4,-253C322.4,-253 339.07,-253 339.07,-253 344.4,-253 349.74,-258.33 349.74,-263.67 349.74,-263.67 349.74,-274.33 349.74,-274.33 349.74,-279.67 344.4,-285 339.07,-285 339.07,-285 322.4,-285 322.4,-285 317.07,-285 311.74,-279.67 311.74,-274.33 311.74,-274.33 311.74,-263.67 311.74,-263.67 311.74,-258.33 317.07,-253 322.4,-253"/>
</a>
</g>
</g>
<!-- function&#45;1&#45;Addi -->
<g id="node25" class="node">
<title>function&#45;1&#45;Addi</title>
<g id="a_node25"><a xlink:title="Inst&#45;12: function&#45;1&#45;Addi">
<path fill="white" stroke="transparent" d="M330.9,-174C330.9,-174 350.57,-174 350.57,-174 355.9,-174 361.24,-179.33 361.24,-184.67 361.24,-184.67 361.24,-195.33 361.24,-195.33 361.24,-200.67 355.9,-206 350.57,-206 350.57,-206 330.9,-206 330.9,-206 325.57,-206 320.24,-200.67 320.24,-195.33 320.24,-195.33 320.24,-184.67 320.24,-184.67 320.24,-179.33 325.57,-174 330.9,-174"/>
<text text-anchor="start" x="325.74" y="-186.3" font-family="Helvetica,sans-Serif" font-size="14.00">Addi</text>
<path fill="none" stroke="black" d="M330.9,-174C330.9,-174 350.57,-174 350.57,-174 355.9,-174 361.24,-179.33 361.24,-184.67 361.24,-184.67 361.24,-195.33 361.24,-195.33 361.24,-200.67 355.9,-206 350.57,-206 350.57,-206 330.9,-206 330.9,-206 325.57,-206 320.24,-200.67 320.24,-195.33 320.24,-195.33 320.24,-184.67 320.24,-184.67 320.24,-179.33 325.57,-174 330.9,-174"/>
</a>
</g>
</g>
<!-- function&#45;0&#45;Add -->
<g id="node26" class="node">
<title>function&#45;0&#45;Add</title>
<g id="a_node26"><a xlink:title="Inst&#45;4: function&#45;0&#45;Add">
<path fill="white" stroke="transparent" d="M264.4,-253C264.4,-253 281.07,-253 281.07,-253 286.4,-253 291.74,-258.33 291.74,-263.67 291.74,-263.67 291.74,-274.33 291.74,-274.33 291.74,-279.67 286.4,-285 281.07,-285 281.07,-285 264.4,-285 264.4,-285 259.07,-285 253.74,-279.67 253.74,-274.33 253.74,-274.33 253.74,-263.67 253.74,-263.67 253.74,-258.33 259.07,-253 264.4,-253"/>
<text text-anchor="start" x="258.74" y="-265.3" font-family="Helvetica,sans-Serif" font-size="14.00">Add</text>
<path fill="none" stroke="black" d="M264.4,-253C264.4,-253 281.07,-253 281.07,-253 286.4,-253 291.74,-258.33 291.74,-263.67 291.74,-263.67 291.74,-274.33 291.74,-274.33 291.74,-279.67 286.4,-285 281.07,-285 281.07,-285 264.4,-285 264.4,-285 259.07,-285 253.74,-279.67 253.74,-274.33 253.74,-274.33 253.74,-263.67 253.74,-263.67 253.74,-258.33 259.07,-253 264.4,-253"/>
</a>
</g>
</g>
<!-- function&#45;0&#45;RegVal -->
<g id="node27" class="node">
<title>function&#45;0&#45;RegVal</title>
<g id="a_node27"><a xlink:title="Inst&#45;0: function&#45;0&#45;RegVal">
<path fill="white" stroke="transparent" d="M390.9,-174C390.9,-174 426.57,-174 426.57,-174 431.9,-174 437.24,-179.33 437.24,-184.67 437.24,-184.67 437.24,-195.33 437.24,-195.33 437.24,-200.67 431.9,-206 426.57,-206 426.57,-206 390.9,-206 390.9,-206 385.57,-206 380.24,-200.67 380.24,-195.33 380.24,-195.33 380.24,-184.67 380.24,-184.67 380.24,-179.33 385.57,-174 390.9,-174"/>
<text text-anchor="start" x="385.74" y="-186.3" font-family="Helvetica,sans-Serif" font-size="14.00">RegVal</text>
<path fill="none" stroke="black" d="M390.9,-174C390.9,-174 426.57,-174 426.57,-174 431.9,-174 437.24,-179.33 437.24,-184.67 437.24,-184.67 437.24,-195.33 437.24,-195.33 437.24,-200.67 431.9,-206 426.57,-206 426.57,-206 390.9,-206 390.9,-206 385.57,-206 380.24,-200.67 380.24,-195.33 380.24,-195.33 380.24,-184.67 380.24,-184.67 380.24,-179.33 385.57,-174 390.9,-174"/>
</a>
</g>
</g>
<!-- primitive&#45;String&#45;0 -->
<g id="node28" class="node">
<title>primitive&#45;String&#45;0</title>
<g id="a_node28"><a xlink:title="String&#45;0: primitive&#45;String&#45;0">
<path fill="white" stroke="transparent" d="M404.9,-95C404.9,-95 440.57,-95 440.57,-95 445.9,-95 451.24,-100.33 451.24,-105.67 451.24,-105.67 451.24,-116.33 451.24,-116.33 451.24,-121.67 445.9,-127 440.57,-127 440.57,-127 404.9,-127 404.9,-127 399.57,-127 394.24,-121.67 394.24,-116.33 394.24,-116.33 394.24,-105.67 394.24,-105.67 394.24,-100.33 399.57,-95 404.9,-95"/>
<text text-anchor="start" x="399.74" y="-107.3" font-family="Helvetica,sans-Serif" font-size="14.00">&quot;a0_0&quot;</text>
<path fill="none" stroke="black" d="M404.9,-95C404.9,-95 440.57,-95 440.57,-95 445.9,-95 451.24,-100.33 451.24,-105.67 451.24,-105.67 451.24,-116.33 451.24,-116.33 451.24,-121.67 445.9,-127 440.57,-127 440.57,-127 404.9,-127 404.9,-127 399.57,-127 394.24,-121.67 394.24,-116.33 394.24,-116.33 394.24,-105.67 394.24,-105.67 394.24,-100.33 399.57,-95 404.9,-95"/>
</a>
</g>
</g>
<!-- primitive&#45;String&#45;1 -->
<g id="node29" class="node">
<title>primitive&#45;String&#45;1</title>
<g id="a_node29"><a xlink:title="String&#45;1: primitive&#45;String&#45;1">
<path fill="white" stroke="transparent" d="M261.9,-16C261.9,-16 297.57,-16 297.57,-16 302.9,-16 308.24,-21.33 308.24,-26.67 308.24,-26.67 308.24,-37.33 308.24,-37.33 308.24,-42.67 302.9,-48 297.57,-48 297.57,-48 261.9,-48 261.9,-48 256.57,-48 251.24,-42.67 251.24,-37.33 251.24,-37.33 251.24,-26.67 251.24,-26.67 251.24,-21.33 256.57,-16 261.9,-16"/>
<text text-anchor="start" x="256.74" y="-28.3" font-family="Helvetica,sans-Serif" font-size="14.00">&quot;a1_0&quot;</text>
<path fill="none" stroke="black" d="M261.9,-16C261.9,-16 297.57,-16 297.57,-16 302.9,-16 308.24,-21.33 308.24,-26.67 308.24,-26.67 308.24,-37.33 308.24,-37.33 308.24,-42.67 302.9,-48 297.57,-48 297.57,-48 261.9,-48 261.9,-48 256.57,-48 251.24,-42.67 251.24,-37.33 251.24,-37.33 251.24,-26.67 251.24,-26.67 251.24,-21.33 256.57,-16 261.9,-16"/>
</a>
</g>
</g>
<!-- function&#45;0&#45;Bne -->
<g id="node30" class="node">
<title>function&#45;0&#45;Bne</title>
<g id="a_node30"><a xlink:title="Inst&#45;14: function&#45;0&#45;Bne">
<path fill="white" stroke="transparent" d="M313.4,-490C313.4,-490 330.07,-490 330.07,-490 335.4,-490 340.74,-495.33 340.74,-500.67 340.74,-500.67 340.74,-511.33 340.74,-511.33 340.74,-516.67 335.4,-522 330.07,-522 330.07,-522 313.4,-522 313.4,-522 308.07,-522 302.74,-516.67 302.74,-511.33 302.74,-511.33 302.74,-500.67 302.74,-500.67 302.74,-495.33 308.07,-490 313.4,-490"/>
<text text-anchor="start" x="307.74" y="-502.3" font-family="Helvetica,sans-Serif" font-size="14.00">Bne</text>
<path fill="none" stroke="black" d="M313.4,-490C313.4,-490 330.07,-490 330.07,-490 335.4,-490 340.74,-495.33 340.74,-500.67 340.74,-500.67 340.74,-511.33 340.74,-511.33 340.74,-516.67 335.4,-522 330.07,-522 330.07,-522 313.4,-522 313.4,-522 308.07,-522 302.74,-516.67 302.74,-511.33 302.74,-511.33 302.74,-500.67 302.74,-500.67 302.74,-495.33 308.07,-490 313.4,-490"/>
</a>
</g>
</g>
<!-- function&#45;1&#45;Bne -->
<g id="node31" class="node">
<title>function&#45;1&#45;Bne</title>
<g id="a_node31"><a xlink:title="Inst&#45;14: function&#45;1&#45;Bne">
<path fill="white" stroke="transparent" d="M371.4,-490C371.4,-490 388.07,-490 388.07,-490 393.4,-490 398.74,-495.33 398.74,-500.67 398.74,-500.67 398.74,-511.33 398.74,-511.33 398.74,-516.67 393.4,-522 388.07,-522 388.07,-522 371.4,-522 371.4,-522 366.07,-522 360.74,-516.67 360.74,-511.33 360.74,-511.33 360.74,-500.67 360.74,-500.67 360.74,-495.33 366.07,-490 371.4,-490"/>
<text text-anchor="start" x="365.74" y="-502.3" font-family="Helvetica,sans-Serif" font-size="14.00">Bne</text>
<path fill="none" stroke="black" d="M371.4,-490C371.4,-490 388.07,-490 388.07,-490 393.4,-490 398.74,-495.33 398.74,-500.67 398.74,-500.67 398.74,-511.33 398.74,-511.33 398.74,-516.67 393.4,-522 388.07,-522 388.07,-522 371.4,-522 371.4,-522 366.07,-522 360.74,-516.67 360.74,-511.33 360.74,-511.33 360.74,-500.67 360.74,-500.67 360.74,-495.33 366.07,-490 371.4,-490"/>
</a>
</g>
</g>
<!-- function&#45;0&#45;Seq2 -->
<g id="node32" class="node">
<title>function&#45;0&#45;Seq2</title>
<g id="a_node32"><a xlink:title="Inst&#45;14: function&#45;0&#45;Seq2">
<path fill="white" stroke="transparent" d="M425.4,-490C425.4,-490 450.07,-490 450.07,-490 455.4,-490 460.74,-495.33 460.74,-500.67 460.74,-500.67 460.74,-511.33 460.74,-511.33 460.74,-516.67 455.4,-522 450.07,-522 450.07,-522 425.4,-522 425.4,-522 420.07,-522 414.74,-516.67 414.74,-511.33 414.74,-511.33 414.74,-500.67 414.74,-500.67 414.74,-495.33 420.07,-490 425.4,-490"/>
<text text-anchor="start" x="419.74" y="-502.3" font-family="Helvetica,sans-Serif" font-size="14.00">Seq2</text>
<path fill="none" stroke="black" d="M425.4,-490C425.4,-490 450.07,-490 450.07,-490 455.4,-490 460.74,-495.33 460.74,-500.67 460.74,-500.67 460.74,-511.33 460.74,-511.33 460.74,-516.67 455.4,-522 450.07,-522 450.07,-522 425.4,-522 425.4,-522 420.07,-522 414.74,-516.67 414.74,-511.33 414.74,-511.33 414.74,-500.67 414.74,-500.67 414.74,-495.33 420.07,-490 425.4,-490"/>
</a>
</g>
</g>
<!-- function&#45;3&#45;Bne -->
<g id="node33" class="node">
<title>function&#45;3&#45;Bne</title>
<g id="a_node33"><a xlink:title="Inst&#45;17: function&#45;3&#45;Bne">
<path fill="white" stroke="transparent" d="M340.4,-411C340.4,-411 357.07,-411 357.07,-411 362.4,-411 367.74,-416.33 367.74,-421.67 367.74,-421.67 367.74,-432.33 367.74,-432.33 367.74,-437.67 362.4,-443 357.07,-443 357.07,-443 340.4,-443 340.4,-443 335.07,-443 329.74,-437.67 329.74,-432.33 329.74,-432.33 329.74,-421.67 329.74,-421.67 329.74,-416.33 335.07,-411 340.4,-411"/>
<text text-anchor="start" x="334.74" y="-423.3" font-family="Helvetica,sans-Serif" font-size="14.00">Bne</text>
<path fill="none" stroke="black" d="M340.4,-411C340.4,-411 357.07,-411 357.07,-411 362.4,-411 367.74,-416.33 367.74,-421.67 367.74,-421.67 367.74,-432.33 367.74,-432.33 367.74,-437.67 362.4,-443 357.07,-443 357.07,-443 340.4,-443 340.4,-443 335.07,-443 329.74,-437.67 329.74,-432.33 329.74,-432.33 329.74,-421.67 329.74,-421.67 329.74,-416.33 335.07,-411 340.4,-411"/>
</a>
</g>
</g>
<!-- function&#45;2&#45;Seq2 -->
<g id="node34" class="node">
<title>function&#45;2&#45;Seq2</title>
<g id="a_node34"><a xlink:title="Inst&#45;17: function&#45;2&#45;Seq2">
<path fill="white" stroke="transparent" d="M220.4,-411C220.4,-411 245.07,-411 245.07,-411 250.4,-411 255.74,-416.33 255.74,-421.67 255.74,-421.67 255.74,-432.33 255.74,-432.33 255.74,-437.67 250.4,-443 245.07,-443 245.07,-443 220.4,-443 220.4,-443 215.07,-443 209.74,-437.67 209.74,-432.33 209.74,-432.33 209.74,-421.67 209.74,-421.67 209.74,-416.33 215.07,-411 220.4,-411"/>
<text text-anchor="start" x="214.74" y="-423.3" font-family="Helvetica,sans-Serif" font-size="14.00">Seq2</text>
<path fill="none" stroke="black" d="M220.4,-411C220.4,-411 245.07,-411 245.07,-411 250.4,-411 255.74,-416.33 255.74,-421.67 255.74,-421.67 255.74,-432.33 255.74,-432.33 255.74,-437.67 250.4,-443 245.07,-443 245.07,-443 220.4,-443 220.4,-443 215.07,-443 209.74,-437.67 209.74,-432.33 209.74,-432.33 209.74,-421.67 209.74,-421.67 209.74,-416.33 215.07,-411 220.4,-411"/>
</a>
</g>
</g>
</g>
</svg>
