<?xml version="1.0" encoding="UTF-8" standalone="no"?>
<!DOCTYPE svg PUBLIC "-//W3C//DTD SVG 1.1//EN"
 "http://www.w3.org/Graphics/SVG/1.1/DTD/svg11.dtd">
<!-- Generated by graphviz version 2.43.0 (0)
 -->
<!-- Title: %3 Pages: 1 -->
<svg width="564pt" height="546pt"
 viewBox="0.00 0.00 564.00 546.00" xmlns="http://www.w3.org/2000/svg" xmlns:xlink="http://www.w3.org/1999/xlink">
<g id="graph0" class="graph" transform="scale(1 1) rotate(0) translate(4 542)">
<title>%3</title>
<polygon fill="white" stroke="#000000" points="-4,4 -4,-542 560,-542 560,4 -4,4"/>
<g id="clust1" class="cluster">
<title>outer_cluster_Imm&#45;13</title>
</g>
<g id="clust2" class="cluster">
<title>cluster_Imm&#45;13</title>
<path fill="#ffffb3" stroke="black" stroke-dasharray="5,2" d="M23,-327C23,-327 83,-327 83,-327 89,-327 95,-333 95,-339 95,-339 95,-357 95,-357 95,-363 89,-369 83,-369 83,-369 23,-369 23,-369 17,-369 11,-363 11,-357 11,-357 11,-339 11,-339 11,-333 17,-327 23,-327"/>
</g>
<g id="clust4" class="cluster">
<title>outer_cluster_Imm&#45;2</title>
</g>
<g id="clust5" class="cluster">
<title>cluster_Imm&#45;2</title>
<path fill="#ffffb3" stroke="black" stroke-dasharray="5,2" d="M204,-90C204,-90 248,-90 248,-90 254,-90 260,-96 260,-102 260,-102 260,-120 260,-120 260,-126 254,-132 248,-132 248,-132 204,-132 204,-132 198,-132 192,-126 192,-120 192,-120 192,-102 192,-102 192,-96 198,-90 204,-90"/>
</g>
<g id="clust7" class="cluster">
<title>outer_cluster_Imm&#45;7</title>
</g>
<g id="clust8" class="cluster">
<title>cluster_Imm&#45;7</title>
<path fill="#ffffb3" stroke="black" stroke-dasharray="5,2" d="M409,-169C409,-169 453,-169 453,-169 459,-169 465,-175 465,-181 465,-181 465,-199 465,-199 465,-205 459,-211 453,-211 453,-211 409,-211 409,-211 403,-211 397,-205 397,-199 397,-199 397,-181 397,-181 397,-175 403,-169 409,-169"/>
</g>
<g id="clust10" class="cluster">
<title>outer_cluster_Imm&#45;9</title>
</g>
<g id="clust11" class="cluster">
<title>cluster_Imm&#45;9</title>
<path fill="#ffffb3" stroke="black" stroke-dasharray="5,2" d="M339,-248C339,-248 383,-248 383,-248 389,-248 395,-254 395,-260 395,-260 395,-278 395,-278 395,-284 389,-290 383,-290 383,-290 339,-290 339,-290 333,-290 327,-284 327,-278 327,-278 327,-260 327,-260 327,-254 333,-248 339,-248"/>
</g>
<g id="clust13" class="cluster">
<title>outer_cluster_Imm&#45;5</title>
</g>
<g id="clust14" class="cluster">
<title>cluster_Imm&#45;5</title>
<path fill="#ffffb3" stroke="black" stroke-dasharray="5,2" d="M265,-248C265,-248 309,-248 309,-248 315,-248 321,-254 321,-260 321,-260 321,-278 321,-278 321,-284 315,-290 309,-290 309,-290 265,-290 265,-290 259,-290 253,-284 253,-278 253,-278 253,-260 253,-260 253,-254 259,-248 265,-248"/>
</g>
<g id="clust16" class="cluster">
<title>outer_cluster_Imm&#45;11</title>
</g>
<g id="clust17" class="cluster">
<title>cluster_Imm&#45;11</title>
<path fill="#ffffb3" stroke="black" stroke-dasharray="5,2" d="M489,-90C489,-90 533,-90 533,-90 539,-90 545,-96 545,-102 545,-102 545,-120 545,-120 545,-126 539,-132 533,-132 533,-132 489,-132 489,-132 483,-132 477,-126 477,-120 477,-120 477,-102 477,-102 477,-96 483,-90 489,-90"/>
</g>
<g id="clust19" class="cluster">
<title>outer_cluster_Inst&#45;0</title>
</g>
<g id="clust20" class="cluster">
<title>cluster_Inst&#45;0</title>
<path fill="#bebada" stroke="black" stroke-dasharray="5,2" d="M130,-169C130,-169 170,-169 170,-169 176,-169 182,-175 182,-181 182,-181 182,-199 182,-199 182,-205 176,-211 170,-211 170,-211 130,-211 130,-211 124,-211 118,-205 118,-199 118,-199 118,-181 118,-181 118,-175 124,-169 130,-169"/>
</g>
<g id="clust22" class="cluster">
<title>outer_cluster_Inst&#45;16</title>
</g>
<g id="clust23" class="cluster">
<title>cluster_Inst&#45;16</title>
<path fill="#bebada" stroke="black" stroke-dasharray="5,2" d="M74,-406C74,-406 110,-406 110,-406 116,-406 122,-412 122,-418 122,-418 122,-436 122,-436 122,-442 116,-448 110,-448 110,-448 74,-448 74,-448 68,-448 62,-442 62,-436 62,-436 62,-418 62,-418 62,-412 68,-406 74,-406"/>
</g>
<g id="clust25" class="cluster">
<title>outer_cluster_Inst&#45;1</title>
</g>
<g id="clust26" class="cluster">
<title>cluster_Inst&#45;1</title>
<path fill="#bebada" stroke="black" stroke-dasharray="5,2" d="M311,-90C311,-90 351,-90 351,-90 357,-90 363,-96 363,-102 363,-102 363,-120 363,-120 363,-126 357,-132 351,-132 351,-132 311,-132 311,-132 305,-132 299,-126 299,-120 299,-120 299,-102 299,-102 299,-96 305,-90 311,-90"/>
</g>
<g id="clust28" class="cluster">
<title>outer_cluster_Inst&#45;8</title>
</g>
<g id="clust29" class="cluster">
<title>cluster_Inst&#45;8</title>
<path fill="#bebada" stroke="black" stroke-dasharray="5,2" d="M413,-248C413,-248 449,-248 449,-248 455,-248 461,-254 461,-260 461,-260 461,-278 461,-278 461,-284 455,-290 449,-290 449,-290 413,-290 413,-290 407,-290 401,-284 401,-278 401,-278 401,-260 401,-260 401,-254 407,-248 413,-248"/>
</g>
<g id="clust31" class="cluster">
<title>outer_cluster_Inst&#45;3</title>
</g>
<g id="clust32" class="cluster">
<title>cluster_Inst&#45;3</title>
<path fill="#bebada" stroke="black" stroke-dasharray="5,2" d="M200,-169C200,-169 236,-169 236,-169 242,-169 248,-175 248,-181 248,-181 248,-199 248,-199 248,-205 242,-211 236,-211 236,-211 200,-211 200,-211 194,-211 188,-205 188,-199 188,-199 188,-181 188,-181 188,-175 194,-169 200,-169"/>
</g>
<g id="clust34" class="cluster">
<title>outer_cluster_Inst&#45;18</title>
</g>
<g id="clust35" class="cluster">
<title>cluster_Inst&#45;18</title>
<path fill="#bebada" stroke="black" stroke-dasharray="5,2" d="M295,-327C295,-327 331,-327 331,-327 337,-327 343,-333 343,-339 343,-339 343,-357 343,-357 343,-363 337,-369 331,-369 331,-369 295,-369 295,-369 289,-369 283,-363 283,-357 283,-357 283,-339 283,-339 283,-333 289,-327 295,-327"/>
</g>
<g id="clust37" class="cluster">
<title>outer_cluster_Inst&#45;15</title>
</g>
<g id="clust38" class="cluster">
<title>cluster_Inst&#45;15</title>
<path fill="#bebada" stroke="black" stroke-dasharray="5,2" d="M162,-406C162,-406 314,-406 314,-406 320,-406 326,-412 326,-418 326,-418 326,-436 326,-436 326,-442 320,-448 314,-448 314,-448 162,-448 162,-448 156,-448 150,-442 150,-436 150,-436 150,-418 150,-418 150,-412 156,-406 162,-406"/>
</g>
<g id="clust40" class="cluster">
<title>outer_cluster_Inst&#45;14</title>
</g>
<g id="clust41" class="cluster">
<title>cluster_Inst&#45;14</title>
<path fill="#bebada" stroke="black" stroke-dasharray="5,2" d="M63,-485C63,-485 215,-485 215,-485 221,-485 227,-491 227,-497 227,-497 227,-515 227,-515 227,-521 221,-527 215,-527 215,-527 63,-527 63,-527 57,-527 51,-521 51,-515 51,-515 51,-497 51,-497 51,-491 57,-485 63,-485"/>
</g>
<g id="clust43" class="cluster">
<title>outer_cluster_Inst&#45;17</title>
</g>
<g id="clust44" class="cluster">
<title>cluster_Inst&#45;17</title>
<path fill="#bebada" stroke="black" stroke-dasharray="5,2" d="M344,-406C344,-406 496,-406 496,-406 502,-406 508,-412 508,-418 508,-418 508,-436 508,-436 508,-442 502,-448 496,-448 496,-448 344,-448 344,-448 338,-448 332,-442 332,-436 332,-436 332,-418 332,-418 332,-412 338,-406 344,-406"/>
</g>
<g id="clust46" class="cluster">
<title>outer_cluster_Inst&#45;6</title>
</g>
<g id="clust47" class="cluster">
<title>cluster_Inst&#45;6</title>
<path fill="#bebada" stroke="black" stroke-dasharray="5,2" d="M207,-327C207,-327 243,-327 243,-327 249,-327 255,-333 255,-339 255,-339 255,-357 255,-357 255,-363 249,-369 243,-369 243,-369 207,-369 207,-369 201,-369 195,-363 195,-357 195,-357 195,-339 195,-339 195,-333 201,-327 207,-327"/>
</g>
<g id="clust49" class="cluster">
<title>outer_cluster_Inst&#45;12</title>
</g>
<g id="clust50" class="cluster">
<title>cluster_Inst&#45;12</title>
<path fill="#bebada" stroke="black" stroke-dasharray="5,2" d="M483,-169C483,-169 519,-169 519,-169 525,-169 531,-175 531,-181 531,-181 531,-199 531,-199 531,-205 525,-211 519,-211 519,-211 483,-211 483,-211 477,-211 471,-205 471,-199 471,-199 471,-181 471,-181 471,-175 477,-169 483,-169"/>
</g>
<g id="clust52" class="cluster">
<title>outer_cluster_Inst&#45;4</title>
</g>
<g id="clust53" class="cluster">
<title>cluster_Inst&#45;4</title>
<path fill="#bebada" stroke="black" stroke-dasharray="5,2" d="M141,-248C141,-248 235,-248 235,-248 241,-248 247,-254 247,-260 247,-260 247,-278 247,-278 247,-284 241,-290 235,-290 235,-290 141,-290 141,-290 135,-290 129,-284 129,-278 129,-278 129,-260 129,-260 129,-254 135,-248 141,-248"/>
</g>
<g id="clust55" class="cluster">
<title>outer_cluster_Inst&#45;10</title>
</g>
<g id="clust56" class="cluster">
<title>cluster_Inst&#45;10</title>
<path fill="#bebada" stroke="black" stroke-dasharray="5,2" d="M412,-327C412,-327 448,-327 448,-327 454,-327 460,-333 460,-339 460,-339 460,-357 460,-357 460,-363 454,-369 448,-369 448,-369 412,-369 412,-369 406,-369 400,-363 400,-357 400,-357 400,-339 400,-339 400,-333 406,-327 412,-327"/>
</g>
<g id="clust58" class="cluster">
<title>outer_cluster_String&#45;2</title>
</g>
<g id="clust59" class="cluster">
<title>cluster_String&#45;2</title>
<path fill="#fb8072" stroke="black" stroke-dasharray="5,2" d="M36,-248C36,-248 72,-248 72,-248 78,-248 84,-254 84,-260 84,-260 84,-278 84,-278 84,-284 78,-290 72,-290 72,-290 36,-290 36,-290 30,-290 24,-284 24,-278 24,-278 24,-260 24,-260 24,-254 30,-248 36,-248"/>
</g>
<g id="clust61" class="cluster">
<title>outer_cluster_String&#45;0</title>
</g>
<g id="clust62" class="cluster">
<title>cluster_String&#45;0</title>
<path fill="#fb8072" stroke="black" stroke-dasharray="5,2" d="M131,-90C131,-90 171,-90 171,-90 177,-90 183,-96 183,-102 183,-102 183,-120 183,-120 183,-126 177,-132 171,-132 171,-132 131,-132 131,-132 125,-132 119,-126 119,-120 119,-120 119,-102 119,-102 119,-96 125,-90 131,-90"/>
</g>
<g id="clust64" class="cluster">
<title>outer_cluster_String&#45;1</title>
</g>
<g id="clust65" class="cluster">
<title>cluster_String&#45;1</title>
<path fill="#fb8072" stroke="black" stroke-dasharray="5,2" d="M312,-11C312,-11 352,-11 352,-11 358,-11 364,-17 364,-23 364,-23 364,-41 364,-41 364,-47 358,-53 352,-53 352,-53 312,-53 312,-53 306,-53 300,-47 300,-41 300,-41 300,-23 300,-23 300,-17 306,-11 312,-11"/>
</g>
<g id="clust67" class="cluster">
<title>outer_cluster_i64&#45;4</title>
</g>
<g id="clust68" class="cluster">
<title>cluster_i64&#45;4</title>
<path fill="#80b1d3" stroke="black" stroke-dasharray="5,2" d="M269,-169C269,-169 305,-169 305,-169 311,-169 317,-175 317,-181 317,-181 317,-199 317,-199 317,-205 311,-211 305,-211 305,-211 269,-211 269,-211 263,-211 257,-205 257,-199 257,-199 257,-181 257,-181 257,-175 263,-169 269,-169"/>
</g>
<g id="clust70" class="cluster">
<title>outer_cluster_i64&#45;3</title>
</g>
<g id="clust71" class="cluster">
<title>cluster_i64&#45;3</title>
<path fill="#80b1d3" stroke="black" stroke-dasharray="5,2" d="M208,-11C208,-11 244,-11 244,-11 250,-11 256,-17 256,-23 256,-23 256,-41 256,-41 256,-47 250,-53 244,-53 244,-53 208,-53 208,-53 202,-53 196,-47 196,-41 196,-41 196,-23 196,-23 196,-17 202,-11 208,-11"/>
</g>
<g id="clust73" class="cluster">
<title>outer_cluster_i64&#45;2</title>
</g>
<g id="clust74" class="cluster">
<title>cluster_i64&#45;2</title>
<path fill="#80b1d3" stroke="black" stroke-dasharray="5,2" d="M413,-90C413,-90 449,-90 449,-90 455,-90 461,-96 461,-102 461,-102 461,-120 461,-120 461,-126 455,-132 449,-132 449,-132 413,-132 413,-132 407,-132 401,-126 401,-120 401,-120 401,-102 401,-102 401,-96 407,-90 413,-90"/>
</g>
<g id="clust76" class="cluster">
<title>outer_cluster_i64&#45;1807</title>
</g>
<g id="clust77" class="cluster">
<title>cluster_i64&#45;1807</title>
<path fill="#80b1d3" stroke="black" stroke-dasharray="5,2" d="M343,-169C343,-169 379,-169 379,-169 385,-169 391,-175 391,-181 391,-181 391,-199 391,-199 391,-205 385,-211 379,-211 379,-211 343,-211 343,-211 337,-211 331,-205 331,-199 331,-199 331,-181 331,-181 331,-175 337,-169 343,-169"/>
</g>
<g id="clust79" class="cluster">
<title>outer_cluster_i64&#45;0</title>
</g>
<g id="clust80" class="cluster">
<title>cluster_i64&#45;0</title>
<path fill="#80b1d3" stroke="black" stroke-dasharray="5,2" d="M493,-11C493,-11 529,-11 529,-11 535,-11 541,-17 541,-23 541,-23 541,-41 541,-41 541,-47 535,-53 529,-53 529,-53 493,-53 493,-53 487,-53 481,-47 481,-41 481,-41 481,-23 481,-23 481,-17 487,-11 493,-11"/>
</g>
<!-- function&#45;0&#45;ImmLabel&#45;&gt;primitive&#45;String&#45;2 -->
<g id="edge1" class="edge">
<title>function&#45;0&#45;ImmLabel:s&#45;&gt;primitive&#45;String&#45;2</title>
<path fill="none" stroke="black" d="M54,-332C54,-318.84 54,-304.11 54,-292.3"/>
<polygon fill="black" stroke="black" points="55.75,-295 54,-290 52.25,-295 55.75,-295"/>
</g>
<!-- function&#45;0&#45;ImmVal&#45;&gt;primitive&#45;i64&#45;3 -->
<g id="edge2" class="edge">
<title>function&#45;0&#45;ImmVal:s&#45;&gt;primitive&#45;i64&#45;3</title>
<path fill="none" stroke="black" d="M226,-95C226,-81.84 226,-67.11 226,-55.3"/>
<polygon fill="black" stroke="black" points="227.75,-58 226,-53 224.25,-58 227.75,-58"/>
</g>
<!-- function&#45;2&#45;ImmVal&#45;&gt;primitive&#45;i64&#45;2 -->
<g id="edge3" class="edge">
<title>function&#45;2&#45;ImmVal:s&#45;&gt;primitive&#45;i64&#45;2</title>
<path fill="none" stroke="black" d="M431,-174C431,-160.84 431,-146.11 431,-134.3"/>
<polygon fill="black" stroke="black" points="432.75,-137 431,-132 429.25,-137 432.75,-137"/>
</g>
<!-- function&#45;3&#45;ImmVal&#45;&gt;primitive&#45;i64&#45;1807 -->
<g id="edge4" class="edge">
<title>function&#45;3&#45;ImmVal:s&#45;&gt;primitive&#45;i64&#45;1807</title>
<path fill="none" stroke="black" d="M361,-253C361,-239.84 361,-225.11 361,-213.3"/>
<polygon fill="black" stroke="black" points="362.75,-216 361,-211 359.25,-216 362.75,-216"/>
</g>
<!-- function&#45;1&#45;ImmVal&#45;&gt;primitive&#45;i64&#45;4 -->
<g id="edge5" class="edge">
<title>function&#45;1&#45;ImmVal:s&#45;&gt;primitive&#45;i64&#45;4</title>
<path fill="none" stroke="black" d="M287,-253C287,-239.84 287,-225.11 287,-213.3"/>
<polygon fill="black" stroke="black" points="288.75,-216 287,-211 285.25,-216 288.75,-216"/>
</g>
<!-- function&#45;4&#45;ImmVal&#45;&gt;primitive&#45;i64&#45;0 -->
<g id="edge6" class="edge">
<title>function&#45;4&#45;ImmVal:s&#45;&gt;primitive&#45;i64&#45;0</title>
<path fill="none" stroke="black" d="M511,-95C511,-81.84 511,-67.11 511,-55.3"/>
<polygon fill="black" stroke="black" points="512.75,-58 511,-53 509.25,-58 512.75,-58"/>
</g>
<!-- function&#45;0&#45;RegVal&#45;&gt;primitive&#45;String&#45;0 -->
<g id="edge7" class="edge">
<title>function&#45;0&#45;RegVal:s&#45;&gt;primitive&#45;String&#45;0</title>
<path fill="none" stroke="black" d="M151,-174C151,-160.84 151,-146.11 151,-134.3"/>
<polygon fill="black" stroke="black" points="152.75,-137 151,-132 149.25,-137 152.75,-137"/>
</g>
<!-- function&#45;0&#45;Jal&#45;&gt;function&#45;0&#45;ImmLabel -->
<g id="edge8" class="edge">
<title>function&#45;0&#45;Jal:s&#45;&gt;function&#45;0&#45;ImmLabel</title>
<path fill="none" stroke="black" d="M92,-411C92,-395.82 83.52,-381.32 74.48,-370.17"/>
<polygon fill="black" stroke="black" points="78.05,-370.95 73.13,-369 75.76,-373.6 78.05,-370.95"/>
</g>
<!-- function&#45;1&#45;RegVal&#45;&gt;primitive&#45;String&#45;1 -->
<g id="edge9" class="edge">
<title>function&#45;1&#45;RegVal:s&#45;&gt;primitive&#45;String&#45;1</title>
<path fill="none" stroke="black" d="M332,-95C332,-81.84 332,-67.11 332,-55.3"/>
<polygon fill="black" stroke="black" points="333.75,-58 332,-53 330.25,-58 333.75,-58"/>
</g>
<!-- function&#45;0&#45;Lui&#45;&gt;function&#45;2&#45;ImmVal -->
<g id="edge10" class="edge">
<title>function&#45;0&#45;Lui:s&#45;&gt;function&#45;2&#45;ImmVal</title>
<path fill="none" stroke="black" d="M431,-253C431,-239.84 431,-225.11 431,-213.3"/>
<polygon fill="black" stroke="black" points="432.75,-216 431,-211 429.25,-216 432.75,-216"/>
</g>
<!-- function&#45;0&#45;Slli&#45;&gt;function&#45;0&#45;ImmVal -->
<g id="edge12" class="edge">
<title>function&#45;0&#45;Slli:s&#45;&gt;function&#45;0&#45;ImmVal</title>
<path fill="none" stroke="black" d="M226,-174C226,-160.84 226,-146.11 226,-134.3"/>
<polygon fill="black" stroke="black" points="227.75,-137 226,-132 224.25,-137 227.75,-137"/>
</g>
<!-- function&#45;0&#45;Slli&#45;&gt;function&#45;1&#45;RegVal -->
<g id="edge11" class="edge">
<title>function&#45;0&#45;Slli:s&#45;&gt;function&#45;1&#45;RegVal</title>
<path fill="none" stroke="black" d="M210,-174C210,-154.31 261.37,-133.96 297.16,-122.17"/>
<polygon fill="black" stroke="black" points="294.91,-124.86 299,-121.49 293.7,-121.58 294.91,-124.86"/>
</g>
<!-- function&#45;1&#45;Jal&#45;&gt;function&#45;1&#45;ImmVal -->
<g id="edge13" class="edge">
<title>function&#45;1&#45;Jal:s&#45;&gt;function&#45;1&#45;ImmVal</title>
<path fill="none" stroke="black" d="M313,-332C313,-317.78 307.11,-303.05 300.94,-291.52"/>
<polygon fill="black" stroke="black" points="304.2,-292.4 299.48,-290 301.68,-294.82 304.2,-292.4"/>
</g>
<!-- function&#45;0&#45;Beq&#45;&gt;function&#45;1&#45;ImmVal -->
<g id="edge16" class="edge">
<title>function&#45;0&#45;Beq:s&#45;&gt;function&#45;1&#45;ImmVal</title>
<path fill="none" stroke="black" d="M194,-411C194,-378.45 236.24,-397.87 256,-372 256.63,-371.18 271.48,-321.82 280.39,-292.08"/>
<polygon fill="black" stroke="black" points="280.39,-295.09 281.88,-290 277.55,-293.05 280.39,-295.09"/>
</g>
<!-- function&#45;0&#45;Beq&#45;&gt;function&#45;0&#45;Lw -->
<g id="edge14" class="edge">
<title>function&#45;0&#45;Beq:s&#45;&gt;function&#45;0&#45;Lw</title>
<path fill="none" stroke="black" d="M171,-411C171,-394.46 182.07,-380.18 194.18,-369.52"/>
<polygon fill="black" stroke="black" points="194.11,-373.26 195,-368.04 191.05,-371.57 194.11,-373.26"/>
</g>
<!-- function&#45;0&#45;Beq&#45;&gt;function&#45;0&#45;Addi -->
<g id="edge15" class="edge">
<title>function&#45;0&#45;Beq:s&#45;&gt;function&#45;0&#45;Addi</title>
<path fill="none" stroke="black" d="M185,-411C185,-398.91 199.33,-406.15 211,-403 269.6,-387.18 285.12,-386.73 344,-372 361.94,-367.51 381.89,-362.2 398.06,-357.81"/>
<polygon fill="black" stroke="black" points="396.86,-360.74 400,-356.48 394.89,-357.86 396.86,-360.74"/>
</g>
<!-- function&#45;0&#45;Lw&#45;&gt;function&#45;1&#45;ImmVal -->
<g id="edge39" class="edge">
<title>function&#45;0&#45;Lw:s&#45;&gt;function&#45;1&#45;ImmVal</title>
<path fill="none" stroke="black" d="M233,-332C233,-315.46 244.07,-301.18 256.18,-290.52"/>
<polygon fill="black" stroke="black" points="253.5,-293.67 257.32,-290 252.04,-290.49 253.5,-293.67"/>
</g>
<!-- function&#45;0&#45;Lw&#45;&gt;function&#45;1&#45;Add -->
<g id="edge38" class="edge">
<title>function&#45;0&#45;Lw:s&#45;&gt;function&#45;1&#45;Add</title>
<path fill="none" stroke="black" d="M217,-332C217,-318.84 217,-304.11 217,-292.3"/>
<polygon fill="black" stroke="black" points="218.75,-295 217,-290 215.25,-295 218.75,-295"/>
</g>
<!-- function&#45;0&#45;Addi&#45;&gt;function&#45;3&#45;ImmVal -->
<g id="edge47" class="edge">
<title>function&#45;0&#45;Addi:s&#45;&gt;function&#45;3&#45;ImmVal</title>
<path fill="none" stroke="black" d="M440,-332C440,-325.52 413.33,-305.64 390.98,-290.12"/>
<polygon fill="black" stroke="black" points="395.02,-288.78 389.87,-290 394.66,-292.26 395.02,-288.78"/>
</g>
<!-- function&#45;0&#45;Addi&#45;&gt;function&#45;0&#45;Lui -->
<g id="edge46" class="edge">
<title>function&#45;0&#45;Addi:s&#45;&gt;function&#45;0&#45;Lui</title>
<path fill="none" stroke="black" d="M420,-332C420,-318.73 422.47,-304.1 425.08,-292.39"/>
<polygon fill="black" stroke="black" points="425.6,-295.25 426.27,-290 422.47,-293.69 425.6,-295.25"/>
</g>
<!-- function&#45;1&#45;Beq&#45;&gt;function&#45;1&#45;ImmVal -->
<g id="edge19" class="edge">
<title>function&#45;1&#45;Beq:s&#45;&gt;function&#45;1&#45;ImmVal</title>
<path fill="none" stroke="black" d="M252,-411C252,-392.43 261.86,-389.85 267,-372 274.78,-344.98 280.5,-313.07 283.78,-292.23"/>
<polygon fill="black" stroke="black" points="284.56,-295.3 284.56,-290 281.26,-294.14 284.56,-295.3"/>
</g>
<!-- function&#45;1&#45;Beq&#45;&gt;function&#45;0&#45;Lw -->
<g id="edge18" class="edge">
<title>function&#45;1&#45;Beq:s&#45;&gt;function&#45;0&#45;Lw</title>
<path fill="none" stroke="black" d="M243,-411C243,-397.37 238.94,-382.69 234.67,-371.05"/>
<polygon fill="black" stroke="black" points="237.34,-372.98 233.84,-369 234.1,-374.29 237.34,-372.98"/>
</g>
<!-- function&#45;1&#45;Beq&#45;&gt;function&#45;0&#45;Addi -->
<g id="edge17" class="edge">
<title>function&#45;1&#45;Beq:s&#45;&gt;function&#45;0&#45;Addi</title>
<path fill="none" stroke="black" d="M229,-411C229,-406.64 341.16,-374.2 397.91,-358.06"/>
<polygon fill="black" stroke="black" points="396.84,-360.9 400,-356.65 394.88,-358 396.84,-360.9"/>
</g>
<!-- function&#45;1&#45;Seq2&#45;&gt;function&#45;1&#45;Jal -->
<g id="edge21" class="edge">
<title>function&#45;1&#45;Seq2:s&#45;&gt;function&#45;1&#45;Jal</title>
<path fill="none" stroke="black" d="M307,-411C307,-397.78 308.37,-383.04 309.8,-371.25"/>
<polygon fill="black" stroke="black" points="310.74,-374.29 310.46,-369 307.38,-373.31 310.74,-374.29"/>
</g>
<!-- function&#45;1&#45;Seq2&#45;&gt;function&#45;2&#45;Bne -->
<g id="edge20" class="edge">
<title>function&#45;1&#45;Seq2:s&#45;&gt;function&#45;2&#45;Bne</title>
<path fill="none" stroke="black" d="M285,-411C285,-363.81 344.96,-360.06 387,-381.5 396.53,-386.36 403.96,-395.41 409.33,-404.17"/>
<polygon fill="black" stroke="black" points="406.37,-403.62 411.1,-406 408.88,-401.19 406.37,-403.62"/>
</g>
<!-- function&#45;2&#45;Bne&#45;&gt;function&#45;1&#45;ImmVal -->
<g id="edge32" class="edge">
<title>function&#45;2&#45;Bne:s&#45;&gt;function&#45;1&#45;ImmVal</title>
<path fill="none" stroke="black" d="M434,-411C434,-381.4 401.12,-392.74 380,-372 360.97,-353.31 361.74,-343.91 344,-324 333.66,-312.4 321.23,-300.42 310.61,-290.7"/>
<polygon fill="black" stroke="black" points="314.73,-291.93 309.79,-290 312.45,-294.58 314.73,-291.93"/>
</g>
<!-- function&#45;2&#45;Bne&#45;&gt;function&#45;0&#45;Lw -->
<g id="edge30" class="edge">
<title>function&#45;2&#45;Bne:s&#45;&gt;function&#45;0&#45;Lw</title>
<path fill="none" stroke="black" d="M411,-411C411,-400.6 398.89,-406.23 389,-403 341.93,-387.64 328.8,-388.17 282,-372 273.81,-369.17 265.09,-365.82 256.99,-362.57"/>
<polygon fill="black" stroke="black" points="260.25,-362.26 255,-361.57 258.67,-365.38 260.25,-362.26"/>
</g>
<!-- function&#45;2&#45;Bne&#45;&gt;function&#45;0&#45;Addi -->
<g id="edge31" class="edge">
<title>function&#45;2&#45;Bne:s&#45;&gt;function&#45;0&#45;Addi</title>
<path fill="none" stroke="black" d="M425,-411C425,-397.8 426.14,-383.06 427.33,-371.27"/>
<polygon fill="black" stroke="black" points="428.41,-374.27 427.88,-369 425.01,-373.45 428.41,-374.27"/>
</g>
<!-- function&#45;0&#45;Bne&#45;&gt;function&#45;0&#45;ImmLabel -->
<g id="edge24" class="edge">
<title>function&#45;0&#45;Bne:s&#45;&gt;function&#45;0&#45;ImmLabel</title>
<path fill="none" stroke="black" d="M153,-490C153,-441.05 77.82,-491.28 50,-451 33.81,-427.55 39.15,-393.31 45.35,-371.09"/>
<polygon fill="black" stroke="black" points="45.41,-374.12 46.77,-369 42.51,-372.16 45.41,-374.12"/>
</g>
<!-- function&#45;0&#45;Bne&#45;&gt;function&#45;0&#45;Lw -->
<g id="edge22" class="edge">
<title>function&#45;0&#45;Bne:s&#45;&gt;function&#45;0&#45;Lw</title>
<path fill="none" stroke="black" d="M130,-490C130,-451.08 119.34,-435.98 140,-403 152.24,-383.47 174.41,-369.73 193.04,-361"/>
<polygon fill="black" stroke="black" points="191.52,-363.88 195,-359.89 189.79,-360.84 191.52,-363.88"/>
</g>
<!-- function&#45;0&#45;Bne&#45;&gt;function&#45;0&#45;Addi -->
<g id="edge23" class="edge">
<title>function&#45;0&#45;Bne:s&#45;&gt;function&#45;0&#45;Addi</title>
<path fill="none" stroke="black" d="M144,-490C144,-408.43 454.01,-511.25 509,-451 523.38,-435.24 518.96,-421.87 509,-403 499.08,-384.2 479.33,-370.7 462.07,-361.9"/>
<polygon fill="black" stroke="black" points="465.14,-361.82 460,-360.54 463.22,-364.75 465.14,-361.82"/>
</g>
<!-- function&#45;1&#45;Bne&#45;&gt;function&#45;0&#45;ImmLabel -->
<g id="edge27" class="edge">
<title>function&#45;1&#45;Bne:s&#45;&gt;function&#45;0&#45;ImmLabel</title>
<path fill="none" stroke="black" d="M211,-490C211,-421.12 105.24,-503.8 61,-451 51.21,-439.32 50.95,-397.48 51.84,-371.16"/>
<polygon fill="black" stroke="black" points="53.34,-374.13 52.03,-369 49.85,-373.83 53.34,-374.13"/>
</g>
<!-- function&#45;1&#45;Bne&#45;&gt;function&#45;0&#45;Lw -->
<g id="edge26" class="edge">
<title>function&#45;1&#45;Bne:s&#45;&gt;function&#45;0&#45;Lw</title>
<path fill="none" stroke="black" d="M202,-490C202,-460.75 162.2,-477.1 149,-451 139.37,-431.96 139.21,-421.96 149,-403 158.37,-384.86 176.95,-371.48 193.4,-362.58"/>
<polygon fill="black" stroke="black" points="192.38,-365.79 195,-361.19 190.08,-363.15 192.38,-365.79"/>
</g>
<!-- function&#45;1&#45;Bne&#45;&gt;function&#45;0&#45;Addi -->
<g id="edge25" class="edge">
<title>function&#45;1&#45;Bne:s&#45;&gt;function&#45;0&#45;Addi</title>
<path fill="none" stroke="black" d="M188,-490C188,-415.71 470.63,-506.51 520,-451 534.18,-435.06 530.51,-421.56 520,-403 507.62,-381.13 482.45,-367.15 461.87,-358.91"/>
<polygon fill="black" stroke="black" points="465.27,-358.57 460,-358.03 463.79,-361.74 465.27,-358.57"/>
</g>
<!-- function&#45;0&#45;Seq2&#45;&gt;function&#45;0&#45;Jal -->
<g id="edge29" class="edge">
<title>function&#45;0&#45;Seq2:s&#45;&gt;function&#45;0&#45;Jal</title>
<path fill="none" stroke="black" d="M92,-490C92,-476.84 92,-462.11 92,-450.3"/>
<polygon fill="black" stroke="black" points="93.75,-453 92,-448 90.25,-453 93.75,-453"/>
</g>
<!-- function&#45;0&#45;Seq2&#45;&gt;function&#45;0&#45;Beq -->
<g id="edge28" class="edge">
<title>function&#45;0&#45;Seq2:s&#45;&gt;function&#45;0&#45;Beq</title>
<path fill="none" stroke="black" d="M70,-490C70,-480.96 115.64,-457.85 148.12,-442.54"/>
<polygon fill="black" stroke="black" points="146.73,-445.5 150,-441.34 144.84,-442.55 146.73,-445.5"/>
</g>
<!-- function&#45;3&#45;Bne&#45;&gt;function&#45;1&#45;ImmVal -->
<g id="edge35" class="edge">
<title>function&#45;3&#45;Bne:s&#45;&gt;function&#45;1&#45;ImmVal</title>
<path fill="none" stroke="black" d="M492,-411C492,-366.18 433.77,-400.28 399,-372 378.92,-355.67 384.33,-342.28 366,-324 358.19,-316.21 337.24,-301.98 318.87,-290.08"/>
<polygon fill="black" stroke="black" points="323.46,-288.95 318.27,-290 322.98,-292.42 323.46,-288.95"/>
</g>
<!-- function&#45;3&#45;Bne&#45;&gt;function&#45;0&#45;Lw -->
<g id="edge34" class="edge">
<title>function&#45;3&#45;Bne:s&#45;&gt;function&#45;0&#45;Lw</title>
<path fill="none" stroke="black" d="M483,-411C483,-365.5 325.67,-384.78 282,-372 273.77,-369.59 265.1,-366.43 257.06,-363.23"/>
<polygon fill="black" stroke="black" points="260.26,-362.83 255,-362.23 258.74,-365.98 260.26,-362.83"/>
</g>
<!-- function&#45;3&#45;Bne&#45;&gt;function&#45;0&#45;Addi -->
<g id="edge33" class="edge">
<title>function&#45;3&#45;Bne:s&#45;&gt;function&#45;0&#45;Addi</title>
<path fill="none" stroke="black" d="M469,-411C469,-395.82 460.52,-381.32 451.48,-370.17"/>
<polygon fill="black" stroke="black" points="455.05,-370.95 450.13,-369 452.76,-373.6 455.05,-370.95"/>
</g>
<!-- function&#45;2&#45;Seq2&#45;&gt;function&#45;1&#45;Jal -->
<g id="edge37" class="edge">
<title>function&#45;2&#45;Seq2:s&#45;&gt;function&#45;1&#45;Jal</title>
<path fill="none" stroke="black" d="M373,-411C373,-392.38 358.85,-377.22 344.3,-366.56"/>
<polygon fill="black" stroke="black" points="347.27,-367.8 343,-364.67 344.39,-369.78 347.27,-367.8"/>
</g>
<!-- function&#45;2&#45;Seq2&#45;&gt;function&#45;1&#45;Seq2 -->
<g id="edge36" class="edge">
<title>function&#45;2&#45;Seq2:s&#45;&gt;function&#45;1&#45;Seq2</title>
<path fill="none" stroke="black" d="M351,-411C351,-399.59 339.78,-401.91 327.57,-407.8"/>
<polygon fill="black" stroke="black" points="328.71,-404.57 326,-409.12 330.96,-407.26 328.71,-404.57"/>
</g>
<!-- function&#45;1&#45;Add&#45;&gt;function&#45;0&#45;RegVal -->
<g id="edge45" class="edge">
<title>function&#45;1&#45;Add:s&#45;&gt;function&#45;0&#45;RegVal</title>
<path fill="none" stroke="black" d="M226,-253C226,-246.65 200.23,-226.68 178.71,-211.1"/>
<polygon fill="black" stroke="black" points="183.76,-211.23 178.47,-211 182.46,-214.48 183.76,-211.23"/>
</g>
<!-- function&#45;1&#45;Add&#45;&gt;function&#45;0&#45;Slli -->
<g id="edge44" class="edge">
<title>function&#45;1&#45;Add:s&#45;&gt;function&#45;0&#45;Slli</title>
<path fill="none" stroke="black" d="M208,-253C208,-239.76 210.25,-225.14 212.61,-213.42"/>
<polygon fill="black" stroke="black" points="213.25,-216.28 213.7,-211 210.05,-214.84 213.25,-216.28"/>
</g>
<!-- function&#45;1&#45;Addi&#45;&gt;function&#45;4&#45;ImmVal -->
<g id="edge41" class="edge">
<title>function&#45;1&#45;Addi:s&#45;&gt;function&#45;4&#45;ImmVal</title>
<path fill="none" stroke="black" d="M511,-174C511,-160.84 511,-146.11 511,-134.3"/>
<polygon fill="black" stroke="black" points="512.75,-137 511,-132 509.25,-137 512.75,-137"/>
</g>
<!-- function&#45;1&#45;Addi&#45;&gt;function&#45;1&#45;RegVal -->
<g id="edge40" class="edge">
<title>function&#45;1&#45;Addi:s&#45;&gt;function&#45;1&#45;RegVal</title>
<path fill="none" stroke="black" d="M491,-174C491,-167.28 411.52,-139.24 364.6,-123.26"/>
<polygon fill="black" stroke="black" points="368.28,-122.96 363,-122.57 366.89,-126.17 368.28,-122.96"/>
</g>
<!-- function&#45;0&#45;Add&#45;&gt;function&#45;0&#45;RegVal -->
<g id="edge42" class="edge">
<title>function&#45;0&#45;Add:s&#45;&gt;function&#45;0&#45;RegVal</title>
<path fill="none" stroke="black" d="M150,-253C150,-239.84 150,-225.11 150,-213.3"/>
<polygon fill="black" stroke="black" points="151.75,-216 150,-211 148.25,-216 151.75,-216"/>
</g>
<!-- function&#45;0&#45;Add&#45;&gt;function&#45;0&#45;Slli -->
<g id="edge43" class="edge">
<title>function&#45;0&#45;Add:s&#45;&gt;function&#45;0&#45;Slli</title>
<path fill="none" stroke="black" d="M168,-253C168,-236.85 178.41,-222.53 189.73,-211.73"/>
<polygon fill="black" stroke="black" points="187.92,-215.58 190.59,-211 185.65,-212.91 187.92,-215.58"/>
</g>
<!-- function&#45;0&#45;ImmLabel -->
<g id="node1" class="node">
<title>function&#45;0&#45;ImmLabel</title>
<g id="a_node1"><a xlink:title="Imm&#45;13: function&#45;0&#45;ImmLabel">
<path fill="white" stroke="transparent" d="M24.17,-332C24.17,-332 81.83,-332 81.83,-332 87.17,-332 92.5,-337.33 92.5,-342.67 92.5,-342.67 92.5,-353.33 92.5,-353.33 92.5,-358.67 87.17,-364 81.83,-364 81.83,-364 24.17,-364 24.17,-364 18.83,-364 13.5,-358.67 13.5,-353.33 13.5,-353.33 13.5,-342.67 13.5,-342.67 13.5,-337.33 18.83,-332 24.17,-332"/>
<text text-anchor="start" x="19" y="-344.3" font-family="Helvetica,sans-Serif" font-size="14.00">ImmLabel</text>
<path fill="none" stroke="black" d="M24.17,-332C24.17,-332 81.83,-332 81.83,-332 87.17,-332 92.5,-337.33 92.5,-342.67 92.5,-342.67 92.5,-353.33 92.5,-353.33 92.5,-358.67 87.17,-364 81.83,-364 81.83,-364 24.17,-364 24.17,-364 18.83,-364 13.5,-358.67 13.5,-353.33 13.5,-353.33 13.5,-342.67 13.5,-342.67 13.5,-337.33 18.83,-332 24.17,-332"/>
</a>
</g>
</g>
<!-- primitive&#45;String&#45;2 -->
<g id="node2" class="node">
<title>primitive&#45;String&#45;2</title>
<g id="a_node2"><a xlink:title="String&#45;2: primitive&#45;String&#45;2">
<path fill="white" stroke="transparent" d="M42.17,-253C42.17,-253 65.83,-253 65.83,-253 71.17,-253 76.5,-258.33 76.5,-263.67 76.5,-263.67 76.5,-274.33 76.5,-274.33 76.5,-279.67 71.17,-285 65.83,-285 65.83,-285 42.17,-285 42.17,-285 36.83,-285 31.5,-279.67 31.5,-274.33 31.5,-274.33 31.5,-263.67 31.5,-263.67 31.5,-258.33 36.83,-253 42.17,-253"/>
<text text-anchor="start" x="37" y="-265.3" font-family="Helvetica,sans-Serif" font-size="14.00">&quot;.L9&quot;</text>
<path fill="none" stroke="black" d="M42.17,-253C42.17,-253 65.83,-253 65.83,-253 71.17,-253 76.5,-258.33 76.5,-263.67 76.5,-263.67 76.5,-274.33 76.5,-274.33 76.5,-279.67 71.17,-285 65.83,-285 65.83,-285 42.17,-285 42.17,-285 36.83,-285 31.5,-279.67 31.5,-274.33 31.5,-274.33 31.5,-263.67 31.5,-263.67 31.5,-258.33 36.83,-253 42.17,-253"/>
</a>
</g>
</g>
<!-- function&#45;0&#45;ImmVal -->
<g id="node3" class="node">
<title>function&#45;0&#45;ImmVal</title>
<g id="a_node3"><a xlink:title="Imm&#45;2: function&#45;0&#45;ImmVal">
<path fill="white" stroke="transparent" d="M205.67,-95C205.67,-95 246.33,-95 246.33,-95 251.67,-95 257,-100.33 257,-105.67 257,-105.67 257,-116.33 257,-116.33 257,-121.67 251.67,-127 246.33,-127 246.33,-127 205.67,-127 205.67,-127 200.33,-127 195,-121.67 195,-116.33 195,-116.33 195,-105.67 195,-105.67 195,-100.33 200.33,-95 205.67,-95"/>
<text text-anchor="start" x="200" y="-107.3" font-family="Helvetica,sans-Serif" font-size="14.00">ImmVal</text>
<path fill="none" stroke="black" d="M205.67,-95C205.67,-95 246.33,-95 246.33,-95 251.67,-95 257,-100.33 257,-105.67 257,-105.67 257,-116.33 257,-116.33 257,-121.67 251.67,-127 246.33,-127 246.33,-127 205.67,-127 205.67,-127 200.33,-127 195,-121.67 195,-116.33 195,-116.33 195,-105.67 195,-105.67 195,-100.33 200.33,-95 205.67,-95"/>
</a>
</g>
</g>
<!-- primitive&#45;i64&#45;3 -->
<g id="node4" class="node">
<title>primitive&#45;i64&#45;3</title>
<g id="a_node4"><a xlink:title="i64&#45;3: primitive&#45;i64&#45;3">
<path fill="white" stroke="transparent" d="M220.67,-16C220.67,-16 231.33,-16 231.33,-16 236.67,-16 242,-21.33 242,-26.67 242,-26.67 242,-37.33 242,-37.33 242,-42.67 236.67,-48 231.33,-48 231.33,-48 220.67,-48 220.67,-48 215.33,-48 210,-42.67 210,-37.33 210,-37.33 210,-26.67 210,-26.67 210,-21.33 215.33,-16 220.67,-16"/>
<text text-anchor="start" x="221" y="-28.3" font-family="Helvetica,sans-Serif" font-size="14.00">3</text>
<path fill="none" stroke="black" d="M220.67,-16C220.67,-16 231.33,-16 231.33,-16 236.67,-16 242,-21.33 242,-26.67 242,-26.67 242,-37.33 242,-37.33 242,-42.67 236.67,-48 231.33,-48 231.33,-48 220.67,-48 220.67,-48 215.33,-48 210,-42.67 210,-37.33 210,-37.33 210,-26.67 210,-26.67 210,-21.33 215.33,-16 220.67,-16"/>
</a>
</g>
</g>
<!-- function&#45;2&#45;ImmVal -->
<g id="node5" class="node">
<title>function&#45;2&#45;ImmVal</title>
<g id="a_node5"><a xlink:title="Imm&#45;7: function&#45;2&#45;ImmVal">
<path fill="white" stroke="transparent" d="M410.67,-174C410.67,-174 451.33,-174 451.33,-174 456.67,-174 462,-179.33 462,-184.67 462,-184.67 462,-195.33 462,-195.33 462,-200.67 456.67,-206 451.33,-206 451.33,-206 410.67,-206 410.67,-206 405.33,-206 400,-200.67 400,-195.33 400,-195.33 400,-184.67 400,-184.67 400,-179.33 405.33,-174 410.67,-174"/>
<text text-anchor="start" x="405" y="-186.3" font-family="Helvetica,sans-Serif" font-size="14.00">ImmVal</text>
<path fill="none" stroke="black" d="M410.67,-174C410.67,-174 451.33,-174 451.33,-174 456.67,-174 462,-179.33 462,-184.67 462,-184.67 462,-195.33 462,-195.33 462,-200.67 456.67,-206 451.33,-206 451.33,-206 410.67,-206 410.67,-206 405.33,-206 400,-200.67 400,-195.33 400,-195.33 400,-184.67 400,-184.67 400,-179.33 405.33,-174 410.67,-174"/>
</a>
</g>
</g>
<!-- primitive&#45;i64&#45;2 -->
<g id="node6" class="node">
<title>primitive&#45;i64&#45;2</title>
<g id="a_node6"><a xlink:title="i64&#45;2: primitive&#45;i64&#45;2">
<path fill="white" stroke="transparent" d="M425.67,-95C425.67,-95 436.33,-95 436.33,-95 441.67,-95 447,-100.33 447,-105.67 447,-105.67 447,-116.33 447,-116.33 447,-121.67 441.67,-127 436.33,-127 436.33,-127 425.67,-127 425.67,-127 420.33,-127 415,-121.67 415,-116.33 415,-116.33 415,-105.67 415,-105.67 415,-100.33 420.33,-95 425.67,-95"/>
<text text-anchor="start" x="426" y="-107.3" font-family="Helvetica,sans-Serif" font-size="14.00">2</text>
<path fill="none" stroke="black" d="M425.67,-95C425.67,-95 436.33,-95 436.33,-95 441.67,-95 447,-100.33 447,-105.67 447,-105.67 447,-116.33 447,-116.33 447,-121.67 441.67,-127 436.33,-127 436.33,-127 425.67,-127 425.67,-127 420.33,-127 415,-121.67 415,-116.33 415,-116.33 415,-105.67 415,-105.67 415,-100.33 420.33,-95 425.67,-95"/>
</a>
</g>
</g>
<!-- function&#45;3&#45;ImmVal -->
<g id="node7" class="node">
<title>function&#45;3&#45;ImmVal</title>
<g id="a_node7"><a xlink:title="Imm&#45;9: function&#45;3&#45;ImmVal">
<path fill="white" stroke="transparent" d="M340.67,-253C340.67,-253 381.33,-253 381.33,-253 386.67,-253 392,-258.33 392,-263.67 392,-263.67 392,-274.33 392,-274.33 392,-279.67 386.67,-285 381.33,-285 381.33,-285 340.67,-285 340.67,-285 335.33,-285 330,-279.67 330,-274.33 330,-274.33 330,-263.67 330,-263.67 330,-258.33 335.33,-253 340.67,-253"/>
<text text-anchor="start" x="335" y="-265.3" font-family="Helvetica,sans-Serif" font-size="14.00">ImmVal</text>
<path fill="none" stroke="black" d="M340.67,-253C340.67,-253 381.33,-253 381.33,-253 386.67,-253 392,-258.33 392,-263.67 392,-263.67 392,-274.33 392,-274.33 392,-279.67 386.67,-285 381.33,-285 381.33,-285 340.67,-285 340.67,-285 335.33,-285 330,-279.67 330,-274.33 330,-274.33 330,-263.67 330,-263.67 330,-258.33 335.33,-253 340.67,-253"/>
</a>
</g>
</g>
<!-- primitive&#45;i64&#45;1807 -->
<g id="node8" class="node">
<title>primitive&#45;i64&#45;1807</title>
<g id="a_node8"><a xlink:title="i64&#45;1807: primitive&#45;i64&#45;1807">
<path fill="white" stroke="transparent" d="M348.17,-174C348.17,-174 373.83,-174 373.83,-174 379.17,-174 384.5,-179.33 384.5,-184.67 384.5,-184.67 384.5,-195.33 384.5,-195.33 384.5,-200.67 379.17,-206 373.83,-206 373.83,-206 348.17,-206 348.17,-206 342.83,-206 337.5,-200.67 337.5,-195.33 337.5,-195.33 337.5,-184.67 337.5,-184.67 337.5,-179.33 342.83,-174 348.17,-174"/>
<text text-anchor="start" x="343" y="-186.3" font-family="Helvetica,sans-Serif" font-size="14.00">1807</text>
<path fill="none" stroke="black" d="M348.17,-174C348.17,-174 373.83,-174 373.83,-174 379.17,-174 384.5,-179.33 384.5,-184.67 384.5,-184.67 384.5,-195.33 384.5,-195.33 384.5,-200.67 379.17,-206 373.83,-206 373.83,-206 348.17,-206 348.17,-206 342.83,-206 337.5,-200.67 337.5,-195.33 337.5,-195.33 337.5,-184.67 337.5,-184.67 337.5,-179.33 342.83,-174 348.17,-174"/>
</a>
</g>
</g>
<!-- function&#45;1&#45;ImmVal -->
<g id="node9" class="node">
<title>function&#45;1&#45;ImmVal</title>
<g id="a_node9"><a xlink:title="Imm&#45;5: function&#45;1&#45;ImmVal">
<path fill="white" stroke="transparent" d="M266.67,-253C266.67,-253 307.33,-253 307.33,-253 312.67,-253 318,-258.33 318,-263.67 318,-263.67 318,-274.33 318,-274.33 318,-279.67 312.67,-285 307.33,-285 307.33,-285 266.67,-285 266.67,-285 261.33,-285 256,-279.67 256,-274.33 256,-274.33 256,-263.67 256,-263.67 256,-258.33 261.33,-253 266.67,-253"/>
<text text-anchor="start" x="261" y="-265.3" font-family="Helvetica,sans-Serif" font-size="14.00">ImmVal</text>
<path fill="none" stroke="black" d="M266.67,-253C266.67,-253 307.33,-253 307.33,-253 312.67,-253 318,-258.33 318,-263.67 318,-263.67 318,-274.33 318,-274.33 318,-279.67 312.67,-285 307.33,-285 307.33,-285 266.67,-285 266.67,-285 261.33,-285 256,-279.67 256,-274.33 256,-274.33 256,-263.67 256,-263.67 256,-258.33 261.33,-253 266.67,-253"/>
</a>
</g>
</g>
<!-- primitive&#45;i64&#45;4 -->
<g id="node10" class="node">
<title>primitive&#45;i64&#45;4</title>
<g id="a_node10"><a xlink:title="i64&#45;4: primitive&#45;i64&#45;4">
<path fill="white" stroke="transparent" d="M281.67,-174C281.67,-174 292.33,-174 292.33,-174 297.67,-174 303,-179.33 303,-184.67 303,-184.67 303,-195.33 303,-195.33 303,-200.67 297.67,-206 292.33,-206 292.33,-206 281.67,-206 281.67,-206 276.33,-206 271,-200.67 271,-195.33 271,-195.33 271,-184.67 271,-184.67 271,-179.33 276.33,-174 281.67,-174"/>
<text text-anchor="start" x="282" y="-186.3" font-family="Helvetica,sans-Serif" font-size="14.00">4</text>
<path fill="none" stroke="black" d="M281.67,-174C281.67,-174 292.33,-174 292.33,-174 297.67,-174 303,-179.33 303,-184.67 303,-184.67 303,-195.33 303,-195.33 303,-200.67 297.67,-206 292.33,-206 292.33,-206 281.67,-206 281.67,-206 276.33,-206 271,-200.67 271,-195.33 271,-195.33 271,-184.67 271,-184.67 271,-179.33 276.33,-174 281.67,-174"/>
</a>
</g>
</g>
<!-- function&#45;4&#45;ImmVal -->
<g id="node11" class="node">
<title>function&#45;4&#45;ImmVal</title>
<g id="a_node11"><a xlink:title="Imm&#45;11: function&#45;4&#45;ImmVal">
<path fill="white" stroke="transparent" d="M490.67,-95C490.67,-95 531.33,-95 531.33,-95 536.67,-95 542,-100.33 542,-105.67 542,-105.67 542,-116.33 542,-116.33 542,-121.67 536.67,-127 531.33,-127 531.33,-127 490.67,-127 490.67,-127 485.33,-127 480,-121.67 480,-116.33 480,-116.33 480,-105.67 480,-105.67 480,-100.33 485.33,-95 490.67,-95"/>
<text text-anchor="start" x="485" y="-107.3" font-family="Helvetica,sans-Serif" font-size="14.00">ImmVal</text>
<path fill="none" stroke="black" d="M490.67,-95C490.67,-95 531.33,-95 531.33,-95 536.67,-95 542,-100.33 542,-105.67 542,-105.67 542,-116.33 542,-116.33 542,-121.67 536.67,-127 531.33,-127 531.33,-127 490.67,-127 490.67,-127 485.33,-127 480,-121.67 480,-116.33 480,-116.33 480,-105.67 480,-105.67 480,-100.33 485.33,-95 490.67,-95"/>
</a>
</g>
</g>
<!-- primitive&#45;i64&#45;0 -->
<g id="node12" class="node">
<title>primitive&#45;i64&#45;0</title>
<g id="a_node12"><a xlink:title="i64&#45;0: primitive&#45;i64&#45;0">
<path fill="white" stroke="transparent" d="M505.67,-16C505.67,-16 516.33,-16 516.33,-16 521.67,-16 527,-21.33 527,-26.67 527,-26.67 527,-37.33 527,-37.33 527,-42.67 521.67,-48 516.33,-48 516.33,-48 505.67,-48 505.67,-48 500.33,-48 495,-42.67 495,-37.33 495,-37.33 495,-26.67 495,-26.67 495,-21.33 500.33,-16 505.67,-16"/>
<text text-anchor="start" x="506" y="-28.3" font-family="Helvetica,sans-Serif" font-size="14.00">0</text>
<path fill="none" stroke="black" d="M505.67,-16C505.67,-16 516.33,-16 516.33,-16 521.67,-16 527,-21.33 527,-26.67 527,-26.67 527,-37.33 527,-37.33 527,-42.67 521.67,-48 516.33,-48 516.33,-48 505.67,-48 505.67,-48 500.33,-48 495,-42.67 495,-37.33 495,-37.33 495,-26.67 495,-26.67 495,-21.33 500.33,-16 505.67,-16"/>
</a>
</g>
</g>
<!-- function&#45;0&#45;RegVal -->
<g id="node13" class="node">
<title>function&#45;0&#45;RegVal</title>
<g id="a_node13"><a xlink:title="Inst&#45;0: function&#45;0&#45;RegVal">
<path fill="white" stroke="transparent" d="M132.17,-174C132.17,-174 167.83,-174 167.83,-174 173.17,-174 178.5,-179.33 178.5,-184.67 178.5,-184.67 178.5,-195.33 178.5,-195.33 178.5,-200.67 173.17,-206 167.83,-206 167.83,-206 132.17,-206 132.17,-206 126.83,-206 121.5,-200.67 121.5,-195.33 121.5,-195.33 121.5,-184.67 121.5,-184.67 121.5,-179.33 126.83,-174 132.17,-174"/>
<text text-anchor="start" x="127" y="-186.3" font-family="Helvetica,sans-Serif" font-size="14.00">RegVal</text>
<path fill="none" stroke="black" d="M132.17,-174C132.17,-174 167.83,-174 167.83,-174 173.17,-174 178.5,-179.33 178.5,-184.67 178.5,-184.67 178.5,-195.33 178.5,-195.33 178.5,-200.67 173.17,-206 167.83,-206 167.83,-206 132.17,-206 132.17,-206 126.83,-206 121.5,-200.67 121.5,-195.33 121.5,-195.33 121.5,-184.67 121.5,-184.67 121.5,-179.33 126.83,-174 132.17,-174"/>
</a>
</g>
</g>
<!-- primitive&#45;String&#45;0 -->
<g id="node14" class="node">
<title>primitive&#45;String&#45;0</title>
<g id="a_node14"><a xlink:title="String&#45;0: primitive&#45;String&#45;0">
<path fill="white" stroke="transparent" d="M133.17,-95C133.17,-95 168.83,-95 168.83,-95 174.17,-95 179.5,-100.33 179.5,-105.67 179.5,-105.67 179.5,-116.33 179.5,-116.33 179.5,-121.67 174.17,-127 168.83,-127 168.83,-127 133.17,-127 133.17,-127 127.83,-127 122.5,-121.67 122.5,-116.33 122.5,-116.33 122.5,-105.67 122.5,-105.67 122.5,-100.33 127.83,-95 133.17,-95"/>
<text text-anchor="start" x="128" y="-107.3" font-family="Helvetica,sans-Serif" font-size="14.00">&quot;a0_0&quot;</text>
<path fill="none" stroke="black" d="M133.17,-95C133.17,-95 168.83,-95 168.83,-95 174.17,-95 179.5,-100.33 179.5,-105.67 179.5,-105.67 179.5,-116.33 179.5,-116.33 179.5,-121.67 174.17,-127 168.83,-127 168.83,-127 133.17,-127 133.17,-127 127.83,-127 122.5,-121.67 122.5,-116.33 122.5,-116.33 122.5,-105.67 122.5,-105.67 122.5,-100.33 127.83,-95 133.17,-95"/>
</a>
</g>
</g>
<!-- function&#45;0&#45;Jal -->
<g id="node15" class="node">
<title>function&#45;0&#45;Jal</title>
<g id="a_node15"><a xlink:title="Inst&#45;16: function&#45;0&#45;Jal">
<path fill="white" stroke="transparent" d="M86.67,-411C86.67,-411 97.33,-411 97.33,-411 102.67,-411 108,-416.33 108,-421.67 108,-421.67 108,-432.33 108,-432.33 108,-437.67 102.67,-443 97.33,-443 97.33,-443 86.67,-443 86.67,-443 81.33,-443 76,-437.67 76,-432.33 76,-432.33 76,-421.67 76,-421.67 76,-416.33 81.33,-411 86.67,-411"/>
<text text-anchor="start" x="83.5" y="-423.3" font-family="Helvetica,sans-Serif" font-size="14.00">Jal</text>
<path fill="none" stroke="black" d="M86.67,-411C86.67,-411 97.33,-411 97.33,-411 102.67,-411 108,-416.33 108,-421.67 108,-421.67 108,-432.33 108,-432.33 108,-437.67 102.67,-443 97.33,-443 97.33,-443 86.67,-443 86.67,-443 81.33,-443 76,-437.67 76,-432.33 76,-432.33 76,-421.67 76,-421.67 76,-416.33 81.33,-411 86.67,-411"/>
</a>
</g>
</g>
<!-- function&#45;1&#45;RegVal -->
<g id="node16" class="node">
<title>function&#45;1&#45;RegVal</title>
<g id="a_node16"><a xlink:title="Inst&#45;1: function&#45;1&#45;RegVal">
<path fill="white" stroke="transparent" d="M313.17,-95C313.17,-95 348.83,-95 348.83,-95 354.17,-95 359.5,-100.33 359.5,-105.67 359.5,-105.67 359.5,-116.33 359.5,-116.33 359.5,-121.67 354.17,-127 348.83,-127 348.83,-127 313.17,-127 313.17,-127 307.83,-127 302.5,-121.67 302.5,-116.33 302.5,-116.33 302.5,-105.67 302.5,-105.67 302.5,-100.33 307.83,-95 313.17,-95"/>
<text text-anchor="start" x="308" y="-107.3" font-family="Helvetica,sans-Serif" font-size="14.00">RegVal</text>
<path fill="none" stroke="black" d="M313.17,-95C313.17,-95 348.83,-95 348.83,-95 354.17,-95 359.5,-100.33 359.5,-105.67 359.5,-105.67 359.5,-116.33 359.5,-116.33 359.5,-121.67 354.17,-127 348.83,-127 348.83,-127 313.17,-127 313.17,-127 307.83,-127 302.5,-121.67 302.5,-116.33 302.5,-116.33 302.5,-105.67 302.5,-105.67 302.5,-100.33 307.83,-95 313.17,-95"/>
</a>
</g>
</g>
<!-- primitive&#45;String&#45;1 -->
<g id="node17" class="node">
<title>primitive&#45;String&#45;1</title>
<g id="a_node17"><a xlink:title="String&#45;1: primitive&#45;String&#45;1">
<path fill="white" stroke="transparent" d="M314.17,-16C314.17,-16 349.83,-16 349.83,-16 355.17,-16 360.5,-21.33 360.5,-26.67 360.5,-26.67 360.5,-37.33 360.5,-37.33 360.5,-42.67 355.17,-48 349.83,-48 349.83,-48 314.17,-48 314.17,-48 308.83,-48 303.5,-42.67 303.5,-37.33 303.5,-37.33 303.5,-26.67 303.5,-26.67 303.5,-21.33 308.83,-16 314.17,-16"/>
<text text-anchor="start" x="309" y="-28.3" font-family="Helvetica,sans-Serif" font-size="14.00">&quot;a1_0&quot;</text>
<path fill="none" stroke="black" d="M314.17,-16C314.17,-16 349.83,-16 349.83,-16 355.17,-16 360.5,-21.33 360.5,-26.67 360.5,-26.67 360.5,-37.33 360.5,-37.33 360.5,-42.67 355.17,-48 349.83,-48 349.83,-48 314.17,-48 314.17,-48 308.83,-48 303.5,-42.67 303.5,-37.33 303.5,-37.33 303.5,-26.67 303.5,-26.67 303.5,-21.33 308.83,-16 314.17,-16"/>
</a>
</g>
</g>
<!-- function&#45;0&#45;Lui -->
<g id="node18" class="node">
<title>function&#45;0&#45;Lui</title>
<g id="a_node18"><a xlink:title="Inst&#45;8: function&#45;0&#45;Lui">
<path fill="white" stroke="transparent" d="M425.67,-253C425.67,-253 436.33,-253 436.33,-253 441.67,-253 447,-258.33 447,-263.67 447,-263.67 447,-274.33 447,-274.33 447,-279.67 441.67,-285 436.33,-285 436.33,-285 425.67,-285 425.67,-285 420.33,-285 415,-279.67 415,-274.33 415,-274.33 415,-263.67 415,-263.67 415,-258.33 420.33,-253 425.67,-253"/>
<text text-anchor="start" x="420.5" y="-265.3" font-family="Helvetica,sans-Serif" font-size="14.00">Lui</text>
<path fill="none" stroke="black" d="M425.67,-253C425.67,-253 436.33,-253 436.33,-253 441.67,-253 447,-258.33 447,-263.67 447,-263.67 447,-274.33 447,-274.33 447,-279.67 441.67,-285 436.33,-285 436.33,-285 425.67,-285 425.67,-285 420.33,-285 415,-279.67 415,-274.33 415,-274.33 415,-263.67 415,-263.67 415,-258.33 420.33,-253 425.67,-253"/>
</a>
</g>
</g>
<!-- function&#45;0&#45;Slli -->
<g id="node19" class="node">
<title>function&#45;0&#45;Slli</title>
<g id="a_node19"><a xlink:title="Inst&#45;3: function&#45;0&#45;Slli">
<path fill="white" stroke="transparent" d="M212.67,-174C212.67,-174 223.33,-174 223.33,-174 228.67,-174 234,-179.33 234,-184.67 234,-184.67 234,-195.33 234,-195.33 234,-200.67 228.67,-206 223.33,-206 223.33,-206 212.67,-206 212.67,-206 207.33,-206 202,-200.67 202,-195.33 202,-195.33 202,-184.67 202,-184.67 202,-179.33 207.33,-174 212.67,-174"/>
<text text-anchor="start" x="207.5" y="-186.3" font-family="Helvetica,sans-Serif" font-size="14.00">Slli</text>
<path fill="none" stroke="black" d="M212.67,-174C212.67,-174 223.33,-174 223.33,-174 228.67,-174 234,-179.33 234,-184.67 234,-184.67 234,-195.33 234,-195.33 234,-200.67 228.67,-206 223.33,-206 223.33,-206 212.67,-206 212.67,-206 207.33,-206 202,-200.67 202,-195.33 202,-195.33 202,-184.67 202,-184.67 202,-179.33 207.33,-174 212.67,-174"/>
</a>
</g>
</g>
<!-- function&#45;1&#45;Jal -->
<g id="node20" class="node">
<title>function&#45;1&#45;Jal</title>
<g id="a_node20"><a xlink:title="Inst&#45;18: function&#45;1&#45;Jal">
<path fill="white" stroke="transparent" d="M307.67,-332C307.67,-332 318.33,-332 318.33,-332 323.67,-332 329,-337.33 329,-342.67 329,-342.67 329,-353.33 329,-353.33 329,-358.67 323.67,-364 318.33,-364 318.33,-364 307.67,-364 307.67,-364 302.33,-364 297,-358.67 297,-353.33 297,-353.33 297,-342.67 297,-342.67 297,-337.33 302.33,-332 307.67,-332"/>
<text text-anchor="start" x="304.5" y="-344.3" font-family="Helvetica,sans-Serif" font-size="14.00">Jal</text>
<path fill="none" stroke="black" d="M307.67,-332C307.67,-332 318.33,-332 318.33,-332 323.67,-332 329,-337.33 329,-342.67 329,-342.67 329,-353.33 329,-353.33 329,-358.67 323.67,-364 318.33,-364 318.33,-364 307.67,-364 307.67,-364 302.33,-364 297,-358.67 297,-353.33 297,-353.33 297,-342.67 297,-342.67 297,-337.33 302.33,-332 307.67,-332"/>
</a>
</g>
</g>
<!-- function&#45;0&#45;Beq -->
<g id="node21" class="node">
<title>function&#45;0&#45;Beq</title>
<g id="a_node21"><a xlink:title="Inst&#45;15: function&#45;0&#45;Beq">
<path fill="white" stroke="transparent" d="M171.67,-411C171.67,-411 188.33,-411 188.33,-411 193.67,-411 199,-416.33 199,-421.67 199,-421.67 199,-432.33 199,-432.33 199,-437.67 193.67,-443 188.33,-443 188.33,-443 171.67,-443 171.67,-443 166.33,-443 161,-437.67 161,-432.33 161,-432.33 161,-421.67 161,-421.67 161,-416.33 166.33,-411 171.67,-411"/>
<text text-anchor="start" x="166" y="-423.3" font-family="Helvetica,sans-Serif" font-size="14.00">Beq</text>
<path fill="none" stroke="black" d="M171.67,-411C171.67,-411 188.33,-411 188.33,-411 193.67,-411 199,-416.33 199,-421.67 199,-421.67 199,-432.33 199,-432.33 199,-437.67 193.67,-443 188.33,-443 188.33,-443 171.67,-443 171.67,-443 166.33,-443 161,-437.67 161,-432.33 161,-432.33 161,-421.67 161,-421.67 161,-416.33 166.33,-411 171.67,-411"/>
</a>
</g>
</g>
<!-- function&#45;0&#45;Lw -->
<g id="node22" class="node">
<title>function&#45;0&#45;Lw</title>
<g id="a_node22"><a xlink:title="Inst&#45;6: function&#45;0&#45;Lw">
<path fill="white" stroke="transparent" d="M219.67,-332C219.67,-332 230.33,-332 230.33,-332 235.67,-332 241,-337.33 241,-342.67 241,-342.67 241,-353.33 241,-353.33 241,-358.67 235.67,-364 230.33,-364 230.33,-364 219.67,-364 219.67,-364 214.33,-364 209,-358.67 209,-353.33 209,-353.33 209,-342.67 209,-342.67 209,-337.33 214.33,-332 219.67,-332"/>
<text text-anchor="start" x="215.5" y="-344.3" font-family="Helvetica,sans-Serif" font-size="14.00">Lw</text>
<path fill="none" stroke="black" d="M219.67,-332C219.67,-332 230.33,-332 230.33,-332 235.67,-332 241,-337.33 241,-342.67 241,-342.67 241,-353.33 241,-353.33 241,-358.67 235.67,-364 230.33,-364 230.33,-364 219.67,-364 219.67,-364 214.33,-364 209,-358.67 209,-353.33 209,-353.33 209,-342.67 209,-342.67 209,-337.33 214.33,-332 219.67,-332"/>
</a>
</g>
</g>
<!-- function&#45;0&#45;Addi -->
<g id="node23" class="node">
<title>function&#45;0&#45;Addi</title>
<g id="a_node23"><a xlink:title="Inst&#45;10: function&#45;0&#45;Addi">
<path fill="white" stroke="transparent" d="M420.17,-332C420.17,-332 439.83,-332 439.83,-332 445.17,-332 450.5,-337.33 450.5,-342.67 450.5,-342.67 450.5,-353.33 450.5,-353.33 450.5,-358.67 445.17,-364 439.83,-364 439.83,-364 420.17,-364 420.17,-364 414.83,-364 409.5,-358.67 409.5,-353.33 409.5,-353.33 409.5,-342.67 409.5,-342.67 409.5,-337.33 414.83,-332 420.17,-332"/>
<text text-anchor="start" x="415" y="-344.3" font-family="Helvetica,sans-Serif" font-size="14.00">Addi</text>
<path fill="none" stroke="black" d="M420.17,-332C420.17,-332 439.83,-332 439.83,-332 445.17,-332 450.5,-337.33 450.5,-342.67 450.5,-342.67 450.5,-353.33 450.5,-353.33 450.5,-358.67 445.17,-364 439.83,-364 439.83,-364 420.17,-364 420.17,-364 414.83,-364 409.5,-358.67 409.5,-353.33 409.5,-353.33 409.5,-342.67 409.5,-342.67 409.5,-337.33 414.83,-332 420.17,-332"/>
</a>
</g>
</g>
<!-- function&#45;1&#45;Beq -->
<g id="node24" class="node">
<title>function&#45;1&#45;Beq</title>
<g id="a_node24"><a xlink:title="Inst&#45;15: function&#45;1&#45;Beq">
<path fill="white" stroke="transparent" d="M229.67,-411C229.67,-411 246.33,-411 246.33,-411 251.67,-411 257,-416.33 257,-421.67 257,-421.67 257,-432.33 257,-432.33 257,-437.67 251.67,-443 246.33,-443 246.33,-443 229.67,-443 229.67,-443 224.33,-443 219,-437.67 219,-432.33 219,-432.33 219,-421.67 219,-421.67 219,-416.33 224.33,-411 229.67,-411"/>
<text text-anchor="start" x="224" y="-423.3" font-family="Helvetica,sans-Serif" font-size="14.00">Beq</text>
<path fill="none" stroke="black" d="M229.67,-411C229.67,-411 246.33,-411 246.33,-411 251.67,-411 257,-416.33 257,-421.67 257,-421.67 257,-432.33 257,-432.33 257,-437.67 251.67,-443 246.33,-443 246.33,-443 229.67,-443 229.67,-443 224.33,-443 219,-437.67 219,-432.33 219,-432.33 219,-421.67 219,-421.67 219,-416.33 224.33,-411 229.67,-411"/>
</a>
</g>
</g>
<!-- function&#45;1&#45;Seq2 -->
<g id="node25" class="node">
<title>function&#45;1&#45;Seq2</title>
<g id="a_node25"><a xlink:title="Inst&#45;15: function&#45;1&#45;Seq2">
<path fill="white" stroke="transparent" d="M283.67,-411C283.67,-411 308.33,-411 308.33,-411 313.67,-411 319,-416.33 319,-421.67 319,-421.67 319,-432.33 319,-432.33 319,-437.67 313.67,-443 308.33,-443 308.33,-443 283.67,-443 283.67,-443 278.33,-443 273,-437.67 273,-432.33 273,-432.33 273,-421.67 273,-421.67 273,-416.33 278.33,-411 283.67,-411"/>
<text text-anchor="start" x="278" y="-423.3" font-family="Helvetica,sans-Serif" font-size="14.00">Seq2</text>
<path fill="none" stroke="black" d="M283.67,-411C283.67,-411 308.33,-411 308.33,-411 313.67,-411 319,-416.33 319,-421.67 319,-421.67 319,-432.33 319,-432.33 319,-437.67 313.67,-443 308.33,-443 308.33,-443 283.67,-443 283.67,-443 278.33,-443 273,-437.67 273,-432.33 273,-432.33 273,-421.67 273,-421.67 273,-416.33 278.33,-411 283.67,-411"/>
</a>
</g>
</g>
<!-- function&#45;2&#45;Bne -->
<g id="node26" class="node">
<title>function&#45;2&#45;Bne</title>
<g id="a_node26"><a xlink:title="Inst&#45;17: function&#45;2&#45;Bne">
<path fill="white" stroke="transparent" d="M411.67,-411C411.67,-411 428.33,-411 428.33,-411 433.67,-411 439,-416.33 439,-421.67 439,-421.67 439,-432.33 439,-432.33 439,-437.67 433.67,-443 428.33,-443 428.33,-443 411.67,-443 411.67,-443 406.33,-443 401,-437.67 401,-432.33 401,-432.33 401,-421.67 401,-421.67 401,-416.33 406.33,-411 411.67,-411"/>
<text text-anchor="start" x="406" y="-423.3" font-family="Helvetica,sans-Serif" font-size="14.00">Bne</text>
<path fill="none" stroke="black" d="M411.67,-411C411.67,-411 428.33,-411 428.33,-411 433.67,-411 439,-416.33 439,-421.67 439,-421.67 439,-432.33 439,-432.33 439,-437.67 433.67,-443 428.33,-443 428.33,-443 411.67,-443 411.67,-443 406.33,-443 401,-437.67 401,-432.33 401,-432.33 401,-421.67 401,-421.67 401,-416.33 406.33,-411 411.67,-411"/>
</a>
</g>
</g>
<!-- function&#45;0&#45;Bne -->
<g id="node27" class="node">
<title>function&#45;0&#45;Bne</title>
<g id="a_node27"><a xlink:title="Inst&#45;14: function&#45;0&#45;Bne">
<path fill="white" stroke="transparent" d="M130.67,-490C130.67,-490 147.33,-490 147.33,-490 152.67,-490 158,-495.33 158,-500.67 158,-500.67 158,-511.33 158,-511.33 158,-516.67 152.67,-522 147.33,-522 147.33,-522 130.67,-522 130.67,-522 125.33,-522 120,-516.67 120,-511.33 120,-511.33 120,-500.67 120,-500.67 120,-495.33 125.33,-490 130.67,-490"/>
<text text-anchor="start" x="125" y="-502.3" font-family="Helvetica,sans-Serif" font-size="14.00">Bne</text>
<path fill="none" stroke="black" d="M130.67,-490C130.67,-490 147.33,-490 147.33,-490 152.67,-490 158,-495.33 158,-500.67 158,-500.67 158,-511.33 158,-511.33 158,-516.67 152.67,-522 147.33,-522 147.33,-522 130.67,-522 130.67,-522 125.33,-522 120,-516.67 120,-511.33 120,-511.33 120,-500.67 120,-500.67 120,-495.33 125.33,-490 130.67,-490"/>
</a>
</g>
</g>
<!-- function&#45;1&#45;Bne -->
<g id="node28" class="node">
<title>function&#45;1&#45;Bne</title>
<g id="a_node28"><a xlink:title="Inst&#45;14: function&#45;1&#45;Bne">
<path fill="white" stroke="transparent" d="M188.67,-490C188.67,-490 205.33,-490 205.33,-490 210.67,-490 216,-495.33 216,-500.67 216,-500.67 216,-511.33 216,-511.33 216,-516.67 210.67,-522 205.33,-522 205.33,-522 188.67,-522 188.67,-522 183.33,-522 178,-516.67 178,-511.33 178,-511.33 178,-500.67 178,-500.67 178,-495.33 183.33,-490 188.67,-490"/>
<text text-anchor="start" x="183" y="-502.3" font-family="Helvetica,sans-Serif" font-size="14.00">Bne</text>
<path fill="none" stroke="black" d="M188.67,-490C188.67,-490 205.33,-490 205.33,-490 210.67,-490 216,-495.33 216,-500.67 216,-500.67 216,-511.33 216,-511.33 216,-516.67 210.67,-522 205.33,-522 205.33,-522 188.67,-522 188.67,-522 183.33,-522 178,-516.67 178,-511.33 178,-511.33 178,-500.67 178,-500.67 178,-495.33 183.33,-490 188.67,-490"/>
</a>
</g>
</g>
<!-- function&#45;0&#45;Seq2 -->
<g id="node29" class="node">
<title>function&#45;0&#45;Seq2</title>
<g id="a_node29"><a xlink:title="Inst&#45;14: function&#45;0&#45;Seq2">
<path fill="white" stroke="transparent" d="M68.67,-490C68.67,-490 93.33,-490 93.33,-490 98.67,-490 104,-495.33 104,-500.67 104,-500.67 104,-511.33 104,-511.33 104,-516.67 98.67,-522 93.33,-522 93.33,-522 68.67,-522 68.67,-522 63.33,-522 58,-516.67 58,-511.33 58,-511.33 58,-500.67 58,-500.67 58,-495.33 63.33,-490 68.67,-490"/>
<text text-anchor="start" x="63" y="-502.3" font-family="Helvetica,sans-Serif" font-size="14.00">Seq2</text>
<path fill="none" stroke="black" d="M68.67,-490C68.67,-490 93.33,-490 93.33,-490 98.67,-490 104,-495.33 104,-500.67 104,-500.67 104,-511.33 104,-511.33 104,-516.67 98.67,-522 93.33,-522 93.33,-522 68.67,-522 68.67,-522 63.33,-522 58,-516.67 58,-511.33 58,-511.33 58,-500.67 58,-500.67 58,-495.33 63.33,-490 68.67,-490"/>
</a>
</g>
</g>
<!-- function&#45;3&#45;Bne -->
<g id="node30" class="node">
<title>function&#45;3&#45;Bne</title>
<g id="a_node30"><a xlink:title="Inst&#45;17: function&#45;3&#45;Bne">
<path fill="white" stroke="transparent" d="M469.67,-411C469.67,-411 486.33,-411 486.33,-411 491.67,-411 497,-416.33 497,-421.67 497,-421.67 497,-432.33 497,-432.33 497,-437.67 491.67,-443 486.33,-443 486.33,-443 469.67,-443 469.67,-443 464.33,-443 459,-437.67 459,-432.33 459,-432.33 459,-421.67 459,-421.67 459,-416.33 464.33,-411 469.67,-411"/>
<text text-anchor="start" x="464" y="-423.3" font-family="Helvetica,sans-Serif" font-size="14.00">Bne</text>
<path fill="none" stroke="black" d="M469.67,-411C469.67,-411 486.33,-411 486.33,-411 491.67,-411 497,-416.33 497,-421.67 497,-421.67 497,-432.33 497,-432.33 497,-437.67 491.67,-443 486.33,-443 486.33,-443 469.67,-443 469.67,-443 464.33,-443 459,-437.67 459,-432.33 459,-432.33 459,-421.67 459,-421.67 459,-416.33 464.33,-411 469.67,-411"/>
</a>
</g>
</g>
<!-- function&#45;2&#45;Seq2 -->
<g id="node31" class="node">
<title>function&#45;2&#45;Seq2</title>
<g id="a_node31"><a xlink:title="Inst&#45;17: function&#45;2&#45;Seq2">
<path fill="white" stroke="transparent" d="M349.67,-411C349.67,-411 374.33,-411 374.33,-411 379.67,-411 385,-416.33 385,-421.67 385,-421.67 385,-432.33 385,-432.33 385,-437.67 379.67,-443 374.33,-443 374.33,-443 349.67,-443 349.67,-443 344.33,-443 339,-437.67 339,-432.33 339,-432.33 339,-421.67 339,-421.67 339,-416.33 344.33,-411 349.67,-411"/>
<text text-anchor="start" x="344" y="-423.3" font-family="Helvetica,sans-Serif" font-size="14.00">Seq2</text>
<path fill="none" stroke="black" d="M349.67,-411C349.67,-411 374.33,-411 374.33,-411 379.67,-411 385,-416.33 385,-421.67 385,-421.67 385,-432.33 385,-432.33 385,-437.67 379.67,-443 374.33,-443 374.33,-443 349.67,-443 349.67,-443 344.33,-443 339,-437.67 339,-432.33 339,-432.33 339,-421.67 339,-421.67 339,-416.33 344.33,-411 349.67,-411"/>
</a>
</g>
</g>
<!-- function&#45;1&#45;Add -->
<g id="node32" class="node">
<title>function&#45;1&#45;Add</title>
<g id="a_node32"><a xlink:title="Inst&#45;4: function&#45;1&#45;Add">
<path fill="white" stroke="transparent" d="M208.67,-253C208.67,-253 225.33,-253 225.33,-253 230.67,-253 236,-258.33 236,-263.67 236,-263.67 236,-274.33 236,-274.33 236,-279.67 230.67,-285 225.33,-285 225.33,-285 208.67,-285 208.67,-285 203.33,-285 198,-279.67 198,-274.33 198,-274.33 198,-263.67 198,-263.67 198,-258.33 203.33,-253 208.67,-253"/>
<text text-anchor="start" x="203" y="-265.3" font-family="Helvetica,sans-Serif" font-size="14.00">Add</text>
<path fill="none" stroke="black" d="M208.67,-253C208.67,-253 225.33,-253 225.33,-253 230.67,-253 236,-258.33 236,-263.67 236,-263.67 236,-274.33 236,-274.33 236,-279.67 230.67,-285 225.33,-285 225.33,-285 208.67,-285 208.67,-285 203.33,-285 198,-279.67 198,-274.33 198,-274.33 198,-263.67 198,-263.67 198,-258.33 203.33,-253 208.67,-253"/>
</a>
</g>
</g>
<!-- function&#45;1&#45;Addi -->
<g id="node33" class="node">
<title>function&#45;1&#45;Addi</title>
<g id="a_node33"><a xlink:title="Inst&#45;12: function&#45;1&#45;Addi">
<path fill="white" stroke="transparent" d="M491.17,-174C491.17,-174 510.83,-174 510.83,-174 516.17,-174 521.5,-179.33 521.5,-184.67 521.5,-184.67 521.5,-195.33 521.5,-195.33 521.5,-200.67 516.17,-206 510.83,-206 510.83,-206 491.17,-206 491.17,-206 485.83,-206 480.5,-200.67 480.5,-195.33 480.5,-195.33 480.5,-184.67 480.5,-184.67 480.5,-179.33 485.83,-174 491.17,-174"/>
<text text-anchor="start" x="486" y="-186.3" font-family="Helvetica,sans-Serif" font-size="14.00">Addi</text>
<path fill="none" stroke="black" d="M491.17,-174C491.17,-174 510.83,-174 510.83,-174 516.17,-174 521.5,-179.33 521.5,-184.67 521.5,-184.67 521.5,-195.33 521.5,-195.33 521.5,-200.67 516.17,-206 510.83,-206 510.83,-206 491.17,-206 491.17,-206 485.83,-206 480.5,-200.67 480.5,-195.33 480.5,-195.33 480.5,-184.67 480.5,-184.67 480.5,-179.33 485.83,-174 491.17,-174"/>
</a>
</g>
</g>
<!-- function&#45;0&#45;Add -->
<g id="node34" class="node">
<title>function&#45;0&#45;Add</title>
<g id="a_node34"><a xlink:title="Inst&#45;4: function&#45;0&#45;Add">
<path fill="white" stroke="transparent" d="M150.67,-253C150.67,-253 167.33,-253 167.33,-253 172.67,-253 178,-258.33 178,-263.67 178,-263.67 178,-274.33 178,-274.33 178,-279.67 172.67,-285 167.33,-285 167.33,-285 150.67,-285 150.67,-285 145.33,-285 140,-279.67 140,-274.33 140,-274.33 140,-263.67 140,-263.67 140,-258.33 145.33,-253 150.67,-253"/>
<text text-anchor="start" x="145" y="-265.3" font-family="Helvetica,sans-Serif" font-size="14.00">Add</text>
<path fill="none" stroke="black" d="M150.67,-253C150.67,-253 167.33,-253 167.33,-253 172.67,-253 178,-258.33 178,-263.67 178,-263.67 178,-274.33 178,-274.33 178,-279.67 172.67,-285 167.33,-285 167.33,-285 150.67,-285 150.67,-285 145.33,-285 140,-279.67 140,-274.33 140,-274.33 140,-263.67 140,-263.67 140,-258.33 145.33,-253 150.67,-253"/>
</a>
</g>
</g>
</g>
</svg>
