<?xml version="1.0" encoding="UTF-8" standalone="no"?>
<!DOCTYPE svg PUBLIC "-//W3C//DTD SVG 1.1//EN"
 "http://www.w3.org/Graphics/SVG/1.1/DTD/svg11.dtd">
<!-- Generated by graphviz version 2.43.0 (0)
 -->
<!-- Title: %3 Pages: 1 -->
<svg width="618pt" height="309pt"
 viewBox="0.00 0.00 618.00 309.00" xmlns="http://www.w3.org/2000/svg" xmlns:xlink="http://www.w3.org/1999/xlink">
<g id="graph0" class="graph" transform="scale(1 1) rotate(0) translate(4 305)">
<title>%3</title>
<polygon fill="white" stroke="#000000" points="-4,4 -4,-305 614,-305 614,4 -4,4"/>
<g id="clust1" class="cluster">
<title>outer_cluster_Imm&#45;7</title>
</g>
<g id="clust2" class="cluster">
<title>cluster_Imm&#45;7</title>
<path fill="#ffffb3" stroke="black" stroke-dasharray="5,2" d="M30,-169C30,-169 90,-169 90,-169 96,-169 102,-175 102,-181 102,-181 102,-199 102,-199 102,-205 96,-211 90,-211 90,-211 30,-211 30,-211 24,-211 18,-205 18,-199 18,-199 18,-181 18,-181 18,-175 24,-169 30,-169"/>
</g>
<g id="clust4" class="cluster">
<title>outer_cluster_Imm&#45;4</title>
</g>
<g id="clust5" class="cluster">
<title>cluster_Imm&#45;4</title>
<path fill="#ffffb3" stroke="black" stroke-dasharray="5,2" d="M293,-169C293,-169 353,-169 353,-169 359,-169 365,-175 365,-181 365,-181 365,-199 365,-199 365,-205 359,-211 353,-211 353,-211 293,-211 293,-211 287,-211 281,-205 281,-199 281,-199 281,-181 281,-181 281,-175 287,-169 293,-169"/>
</g>
<g id="clust7" class="cluster">
<title>outer_cluster_Imm&#45;0</title>
</g>
<g id="clust8" class="cluster">
<title>cluster_Imm&#45;0</title>
<path fill="#ffffb3" stroke="black" stroke-dasharray="5,2" d="M519,-90C519,-90 579,-90 579,-90 585,-90 591,-96 591,-102 591,-102 591,-120 591,-120 591,-126 585,-132 579,-132 579,-132 519,-132 519,-132 513,-132 507,-126 507,-120 507,-120 507,-102 507,-102 507,-96 513,-90 519,-90"/>
</g>
<g id="clust10" class="cluster">
<title>outer_cluster_Imm&#45;2</title>
</g>
<g id="clust11" class="cluster">
<title>cluster_Imm&#45;2</title>
<path fill="#ffffb3" stroke="black" stroke-dasharray="5,2" d="M426,-169C426,-169 486,-169 486,-169 492,-169 498,-175 498,-181 498,-181 498,-199 498,-199 498,-205 492,-211 486,-211 486,-211 426,-211 426,-211 420,-211 414,-205 414,-199 414,-199 414,-181 414,-181 414,-175 420,-169 426,-169"/>
</g>
<g id="clust13" class="cluster">
<title>outer_cluster_Inst&#45;1</title>
</g>
<g id="clust14" class="cluster">
<title>cluster_Inst&#45;1</title>
<path fill="#bebada" stroke="black" stroke-dasharray="5,2" d="M526,-169C526,-169 562,-169 562,-169 568,-169 574,-175 574,-181 574,-181 574,-199 574,-199 574,-205 568,-211 562,-211 562,-211 526,-211 526,-211 520,-211 514,-205 514,-199 514,-199 514,-181 514,-181 514,-175 520,-169 526,-169"/>
</g>
<g id="clust16" class="cluster">
<title>outer_cluster_Inst&#45;3</title>
</g>
<g id="clust17" class="cluster">
<title>cluster_Inst&#45;3</title>
<path fill="#bebada" stroke="black" stroke-dasharray="5,2" d="M482,-248C482,-248 518,-248 518,-248 524,-248 530,-254 530,-260 530,-260 530,-278 530,-278 530,-284 524,-290 518,-290 518,-290 482,-290 482,-290 476,-290 470,-284 470,-278 470,-278 470,-260 470,-260 470,-254 476,-248 482,-248"/>
</g>
<g id="clust19" class="cluster">
<title>outer_cluster_Inst&#45;5</title>
</g>
<g id="clust20" class="cluster">
<title>cluster_Inst&#45;5</title>
<path fill="#bebada" stroke="black" stroke-dasharray="5,2" d="M305,-248C305,-248 341,-248 341,-248 347,-248 353,-254 353,-260 353,-260 353,-278 353,-278 353,-284 347,-290 341,-290 341,-290 305,-290 305,-290 299,-290 293,-284 293,-278 293,-278 293,-260 293,-260 293,-254 299,-248 305,-248"/>
</g>
<g id="clust22" class="cluster">
<title>outer_cluster_Inst&#45;8</title>
</g>
<g id="clust23" class="cluster">
<title>cluster_Inst&#45;8</title>
<path fill="#bebada" stroke="black" stroke-dasharray="5,2" d="M85,-248C85,-248 121,-248 121,-248 127,-248 133,-254 133,-260 133,-260 133,-278 133,-278 133,-284 127,-290 121,-290 121,-290 85,-290 85,-290 79,-290 73,-284 73,-278 73,-278 73,-260 73,-260 73,-254 79,-248 85,-248"/>
</g>
<g id="clust25" class="cluster">
<title>outer_cluster_Inst&#45;6</title>
</g>
<g id="clust26" class="cluster">
<title>cluster_Inst&#45;6</title>
<path fill="#bebada" stroke="black" stroke-dasharray="5,2" d="M127,-169C127,-169 167,-169 167,-169 173,-169 179,-175 179,-181 179,-181 179,-199 179,-199 179,-205 173,-211 167,-211 167,-211 127,-211 127,-211 121,-211 115,-205 115,-199 115,-199 115,-181 115,-181 115,-175 121,-169 127,-169"/>
</g>
<g id="clust28" class="cluster">
<title>outer_cluster_String&#45;2</title>
</g>
<g id="clust29" class="cluster">
<title>cluster_String&#45;2</title>
<path fill="#fb8072" stroke="black" stroke-dasharray="5,2" d="M263,-90C263,-90 385,-90 385,-90 391,-90 397,-96 397,-102 397,-102 397,-120 397,-120 397,-126 391,-132 385,-132 385,-132 263,-132 263,-132 257,-132 251,-126 251,-120 251,-120 251,-102 251,-102 251,-96 257,-90 263,-90"/>
</g>
<g id="clust31" class="cluster">
<title>outer_cluster_String&#45;4</title>
</g>
<g id="clust32" class="cluster">
<title>cluster_String&#45;4</title>
<path fill="#fb8072" stroke="black" stroke-dasharray="5,2" d="M23,-90C23,-90 59,-90 59,-90 65,-90 71,-96 71,-102 71,-102 71,-120 71,-120 71,-126 65,-132 59,-132 59,-132 23,-132 23,-132 17,-132 11,-126 11,-120 11,-120 11,-102 11,-102 11,-96 17,-90 23,-90"/>
</g>
<g id="clust34" class="cluster">
<title>outer_cluster_String&#45;3</title>
</g>
<g id="clust35" class="cluster">
<title>cluster_String&#45;3</title>
<path fill="#fb8072" stroke="black" stroke-dasharray="5,2" d="M89,-90C89,-90 233,-90 233,-90 239,-90 245,-96 245,-102 245,-102 245,-120 245,-120 245,-126 239,-132 233,-132 233,-132 89,-132 89,-132 83,-132 77,-126 77,-120 77,-120 77,-102 77,-102 77,-96 83,-90 89,-90"/>
</g>
<g id="clust37" class="cluster">
<title>outer_cluster_String&#45;0</title>
</g>
<g id="clust38" class="cluster">
<title>cluster_String&#45;0</title>
<path fill="#fb8072" stroke="black" stroke-dasharray="5,2" d="M513,-11C513,-11 587,-11 587,-11 593,-11 599,-17 599,-23 599,-23 599,-41 599,-41 599,-47 593,-53 587,-53 587,-53 513,-53 513,-53 507,-53 501,-47 501,-41 501,-41 501,-23 501,-23 501,-17 507,-11 513,-11"/>
</g>
<g id="clust40" class="cluster">
<title>outer_cluster_String&#45;1</title>
</g>
<g id="clust41" class="cluster">
<title>cluster_String&#45;1</title>
<path fill="#fb8072" stroke="black" stroke-dasharray="5,2" d="M415,-90C415,-90 489,-90 489,-90 495,-90 501,-96 501,-102 501,-102 501,-120 501,-120 501,-126 495,-132 489,-132 489,-132 415,-132 415,-132 409,-132 403,-126 403,-120 403,-120 403,-102 403,-102 403,-96 409,-90 415,-90"/>
</g>
<!-- function&#45;3&#45;ImmLabel&#45;&gt;primitive&#45;String&#45;4 -->
<g id="edge1" class="edge">
<title>function&#45;3&#45;ImmLabel:s&#45;&gt;primitive&#45;String&#45;4</title>
<path fill="none" stroke="black" d="M61,-174C61,-160.24 56.49,-145.56 51.75,-133.94"/>
<polygon fill="black" stroke="black" points="54.6,-135.6 50.71,-132 51.51,-137.24 54.6,-135.6"/>
</g>
<!-- function&#45;2&#45;ImmLabel&#45;&gt;primitive&#45;String&#45;2 -->
<g id="edge2" class="edge">
<title>function&#45;2&#45;ImmLabel:s&#45;&gt;primitive&#45;String&#45;2</title>
<path fill="none" stroke="black" d="M324,-174C324,-160.84 324,-146.11 324,-134.3"/>
<polygon fill="black" stroke="black" points="325.75,-137 324,-132 322.25,-137 325.75,-137"/>
</g>
<!-- function&#45;0&#45;ImmLabel&#45;&gt;primitive&#45;String&#45;0 -->
<g id="edge3" class="edge">
<title>function&#45;0&#45;ImmLabel:s&#45;&gt;primitive&#45;String&#45;0</title>
<path fill="none" stroke="black" d="M550,-95C550,-81.84 550,-67.11 550,-55.3"/>
<polygon fill="black" stroke="black" points="551.75,-58 550,-53 548.25,-58 551.75,-58"/>
</g>
<!-- function&#45;1&#45;ImmLabel&#45;&gt;primitive&#45;String&#45;1 -->
<g id="edge4" class="edge">
<title>function&#45;1&#45;ImmLabel:s&#45;&gt;primitive&#45;String&#45;1</title>
<path fill="none" stroke="black" d="M457,-174C457,-160.8 455.86,-146.06 454.67,-134.27"/>
<polygon fill="black" stroke="black" points="456.99,-136.45 454.12,-132 453.59,-137.27 456.99,-136.45"/>
</g>
<!-- function&#45;0&#45;Lui&#45;&gt;function&#45;0&#45;ImmLabel -->
<g id="edge5" class="edge">
<title>function&#45;0&#45;Lui:s&#45;&gt;function&#45;0&#45;ImmLabel</title>
<path fill="none" stroke="black" d="M544,-174C544,-160.8 545.14,-146.06 546.33,-134.27"/>
<polygon fill="black" stroke="black" points="547.41,-137.27 546.88,-132 544.01,-136.45 547.41,-137.27"/>
</g>
<!-- function&#45;0&#45;Addi&#45;&gt;function&#45;1&#45;ImmLabel -->
<g id="edge7" class="edge">
<title>function&#45;0&#45;Addi:s&#45;&gt;function&#45;1&#45;ImmLabel</title>
<path fill="none" stroke="black" d="M510,-253C510,-236.46 498.93,-222.18 486.82,-211.52"/>
<polygon fill="black" stroke="black" points="490.96,-211.49 485.68,-211 489.5,-214.67 490.96,-211.49"/>
</g>
<!-- function&#45;0&#45;Addi&#45;&gt;function&#45;0&#45;Lui -->
<g id="edge6" class="edge">
<title>function&#45;0&#45;Addi:s&#45;&gt;function&#45;0&#45;Lui</title>
<path fill="none" stroke="black" d="M490,-253C490,-236.46 501.07,-222.18 513.18,-211.52"/>
<polygon fill="black" stroke="black" points="513.11,-215.26 514,-210.04 510.05,-213.57 513.11,-215.26"/>
</g>
<!-- function&#45;0&#45;Auipc&#45;&gt;function&#45;2&#45;ImmLabel -->
<g id="edge8" class="edge">
<title>function&#45;0&#45;Auipc:s&#45;&gt;function&#45;2&#45;ImmLabel</title>
<path fill="none" stroke="black" d="M323,-253C323,-239.84 323,-225.11 323,-213.3"/>
<polygon fill="black" stroke="black" points="324.75,-216 323,-211 321.25,-216 324.75,-216"/>
</g>
<!-- function&#45;0&#45;Jalr&#45;&gt;function&#45;3&#45;ImmLabel -->
<g id="edge10" class="edge">
<title>function&#45;0&#45;Jalr:s&#45;&gt;function&#45;3&#45;ImmLabel</title>
<path fill="none" stroke="black" d="M111,-253C111,-236.72 100.38,-222.39 88.84,-211.62"/>
<polygon fill="black" stroke="black" points="93.04,-212.3 87.9,-211 91.11,-215.22 93.04,-212.3"/>
</g>
<!-- function&#45;0&#45;Jalr&#45;&gt;function&#45;0&#45;RegVal -->
<g id="edge9" class="edge">
<title>function&#45;0&#45;Jalr:s&#45;&gt;function&#45;0&#45;RegVal</title>
<path fill="none" stroke="black" d="M95,-253C95,-236.59 105.82,-222.25 117.6,-211.5"/>
<polygon fill="black" stroke="black" points="114.91,-214.8 118.61,-211 113.35,-211.66 114.91,-214.8"/>
</g>
<!-- function&#45;0&#45;RegVal&#45;&gt;primitive&#45;String&#45;3 -->
<g id="edge11" class="edge">
<title>function&#45;0&#45;RegVal:s&#45;&gt;primitive&#45;String&#45;3</title>
<path fill="none" stroke="black" d="M148,-174C148,-160.53 150.98,-145.75 154.08,-134.01"/>
<polygon fill="black" stroke="black" points="154.11,-137.13 155.41,-132 151.19,-135.2 154.11,-137.13"/>
</g>
<!-- function&#45;3&#45;ImmLabel -->
<g id="node1" class="node">
<title>function&#45;3&#45;ImmLabel</title>
<g id="a_node1"><a xlink:title="Imm&#45;7: function&#45;3&#45;ImmLabel">
<path fill="white" stroke="transparent" d="M31.17,-174C31.17,-174 88.83,-174 88.83,-174 94.17,-174 99.5,-179.33 99.5,-184.67 99.5,-184.67 99.5,-195.33 99.5,-195.33 99.5,-200.67 94.17,-206 88.83,-206 88.83,-206 31.17,-206 31.17,-206 25.83,-206 20.5,-200.67 20.5,-195.33 20.5,-195.33 20.5,-184.67 20.5,-184.67 20.5,-179.33 25.83,-174 31.17,-174"/>
<text text-anchor="start" x="26" y="-186.3" font-family="Helvetica,sans-Serif" font-size="14.00">ImmLabel</text>
<path fill="none" stroke="black" d="M31.17,-174C31.17,-174 88.83,-174 88.83,-174 94.17,-174 99.5,-179.33 99.5,-184.67 99.5,-184.67 99.5,-195.33 99.5,-195.33 99.5,-200.67 94.17,-206 88.83,-206 88.83,-206 31.17,-206 31.17,-206 25.83,-206 20.5,-200.67 20.5,-195.33 20.5,-195.33 20.5,-184.67 20.5,-184.67 20.5,-179.33 25.83,-174 31.17,-174"/>
</a>
</g>
</g>
<!-- primitive&#45;String&#45;4 -->
<g id="node2" class="node">
<title>primitive&#45;String&#45;4</title>
<g id="a_node2"><a xlink:title="String&#45;4: primitive&#45;String&#45;4">
<path fill="white" stroke="transparent" d="M24.67,-95C24.67,-95 57.33,-95 57.33,-95 62.67,-95 68,-100.33 68,-105.67 68,-105.67 68,-116.33 68,-116.33 68,-121.67 62.67,-127 57.33,-127 57.33,-127 24.67,-127 24.67,-127 19.33,-127 14,-121.67 14,-116.33 14,-116.33 14,-105.67 14,-105.67 14,-100.33 19.33,-95 24.67,-95"/>
<text text-anchor="start" x="19" y="-107.3" font-family="Helvetica,sans-Serif" font-size="14.00">&quot;t1_0&quot;</text>
<path fill="none" stroke="black" d="M24.67,-95C24.67,-95 57.33,-95 57.33,-95 62.67,-95 68,-100.33 68,-105.67 68,-105.67 68,-116.33 68,-116.33 68,-121.67 62.67,-127 57.33,-127 57.33,-127 24.67,-127 24.67,-127 19.33,-127 14,-121.67 14,-116.33 14,-116.33 14,-105.67 14,-105.67 14,-100.33 19.33,-95 24.67,-95"/>
</a>
</g>
</g>
<!-- function&#45;2&#45;ImmLabel -->
<g id="node3" class="node">
<title>function&#45;2&#45;ImmLabel</title>
<g id="a_node3"><a xlink:title="Imm&#45;4: function&#45;2&#45;ImmLabel">
<path fill="white" stroke="transparent" d="M294.17,-174C294.17,-174 351.83,-174 351.83,-174 357.17,-174 362.5,-179.33 362.5,-184.67 362.5,-184.67 362.5,-195.33 362.5,-195.33 362.5,-200.67 357.17,-206 351.83,-206 351.83,-206 294.17,-206 294.17,-206 288.83,-206 283.5,-200.67 283.5,-195.33 283.5,-195.33 283.5,-184.67 283.5,-184.67 283.5,-179.33 288.83,-174 294.17,-174"/>
<text text-anchor="start" x="289" y="-186.3" font-family="Helvetica,sans-Serif" font-size="14.00">ImmLabel</text>
<path fill="none" stroke="black" d="M294.17,-174C294.17,-174 351.83,-174 351.83,-174 357.17,-174 362.5,-179.33 362.5,-184.67 362.5,-184.67 362.5,-195.33 362.5,-195.33 362.5,-200.67 357.17,-206 351.83,-206 351.83,-206 294.17,-206 294.17,-206 288.83,-206 283.5,-200.67 283.5,-195.33 283.5,-195.33 283.5,-184.67 283.5,-184.67 283.5,-179.33 288.83,-174 294.17,-174"/>
</a>
</g>
</g>
<!-- primitive&#45;String&#45;2 -->
<g id="node4" class="node">
<title>primitive&#45;String&#45;2</title>
<g id="a_node4"><a xlink:title="String&#45;2: primitive&#45;String&#45;2">
<path fill="white" stroke="transparent" d="M264.67,-95C264.67,-95 383.33,-95 383.33,-95 388.67,-95 394,-100.33 394,-105.67 394,-105.67 394,-116.33 394,-116.33 394,-121.67 388.67,-127 383.33,-127 383.33,-127 264.67,-127 264.67,-127 259.33,-127 254,-121.67 254,-116.33 254,-116.33 254,-105.67 254,-105.67 254,-100.33 259.33,-95 264.67,-95"/>
<text text-anchor="start" x="259" y="-107.3" font-family="Helvetica,sans-Serif" font-size="14.00">&quot;%pcrel_hi(printf)&quot;</text>
<path fill="none" stroke="black" d="M264.67,-95C264.67,-95 383.33,-95 383.33,-95 388.67,-95 394,-100.33 394,-105.67 394,-105.67 394,-116.33 394,-116.33 394,-121.67 388.67,-127 383.33,-127 383.33,-127 264.67,-127 264.67,-127 259.33,-127 254,-121.67 254,-116.33 254,-116.33 254,-105.67 254,-105.67 254,-100.33 259.33,-95 264.67,-95"/>
</a>
</g>
</g>
<!-- function&#45;0&#45;ImmLabel -->
<g id="node5" class="node">
<title>function&#45;0&#45;ImmLabel</title>
<g id="a_node5"><a xlink:title="Imm&#45;0: function&#45;0&#45;ImmLabel">
<path fill="white" stroke="transparent" d="M520.17,-95C520.17,-95 577.83,-95 577.83,-95 583.17,-95 588.5,-100.33 588.5,-105.67 588.5,-105.67 588.5,-116.33 588.5,-116.33 588.5,-121.67 583.17,-127 577.83,-127 577.83,-127 520.17,-127 520.17,-127 514.83,-127 509.5,-121.67 509.5,-116.33 509.5,-116.33 509.5,-105.67 509.5,-105.67 509.5,-100.33 514.83,-95 520.17,-95"/>
<text text-anchor="start" x="515" y="-107.3" font-family="Helvetica,sans-Serif" font-size="14.00">ImmLabel</text>
<path fill="none" stroke="black" d="M520.17,-95C520.17,-95 577.83,-95 577.83,-95 583.17,-95 588.5,-100.33 588.5,-105.67 588.5,-105.67 588.5,-116.33 588.5,-116.33 588.5,-121.67 583.17,-127 577.83,-127 577.83,-127 520.17,-127 520.17,-127 514.83,-127 509.5,-121.67 509.5,-116.33 509.5,-116.33 509.5,-105.67 509.5,-105.67 509.5,-100.33 514.83,-95 520.17,-95"/>
</a>
</g>
</g>
<!-- primitive&#45;String&#45;0 -->
<g id="node6" class="node">
<title>primitive&#45;String&#45;0</title>
<g id="a_node6"><a xlink:title="String&#45;0: primitive&#45;String&#45;0">
<path fill="white" stroke="transparent" d="M514.67,-16C514.67,-16 585.33,-16 585.33,-16 590.67,-16 596,-21.33 596,-26.67 596,-26.67 596,-37.33 596,-37.33 596,-42.67 590.67,-48 585.33,-48 585.33,-48 514.67,-48 514.67,-48 509.33,-48 504,-42.67 504,-37.33 504,-37.33 504,-26.67 504,-26.67 504,-21.33 509.33,-16 514.67,-16"/>
<text text-anchor="start" x="509" y="-28.3" font-family="Helvetica,sans-Serif" font-size="14.00">&quot;%hi(.LC1)&quot;</text>
<path fill="none" stroke="black" d="M514.67,-16C514.67,-16 585.33,-16 585.33,-16 590.67,-16 596,-21.33 596,-26.67 596,-26.67 596,-37.33 596,-37.33 596,-42.67 590.67,-48 585.33,-48 585.33,-48 514.67,-48 514.67,-48 509.33,-48 504,-42.67 504,-37.33 504,-37.33 504,-26.67 504,-26.67 504,-21.33 509.33,-16 514.67,-16"/>
</a>
</g>
</g>
<!-- function&#45;1&#45;ImmLabel -->
<g id="node7" class="node">
<title>function&#45;1&#45;ImmLabel</title>
<g id="a_node7"><a xlink:title="Imm&#45;2: function&#45;1&#45;ImmLabel">
<path fill="white" stroke="transparent" d="M427.17,-174C427.17,-174 484.83,-174 484.83,-174 490.17,-174 495.5,-179.33 495.5,-184.67 495.5,-184.67 495.5,-195.33 495.5,-195.33 495.5,-200.67 490.17,-206 484.83,-206 484.83,-206 427.17,-206 427.17,-206 421.83,-206 416.5,-200.67 416.5,-195.33 416.5,-195.33 416.5,-184.67 416.5,-184.67 416.5,-179.33 421.83,-174 427.17,-174"/>
<text text-anchor="start" x="422" y="-186.3" font-family="Helvetica,sans-Serif" font-size="14.00">ImmLabel</text>
<path fill="none" stroke="black" d="M427.17,-174C427.17,-174 484.83,-174 484.83,-174 490.17,-174 495.5,-179.33 495.5,-184.67 495.5,-184.67 495.5,-195.33 495.5,-195.33 495.5,-200.67 490.17,-206 484.83,-206 484.83,-206 427.17,-206 427.17,-206 421.83,-206 416.5,-200.67 416.5,-195.33 416.5,-195.33 416.5,-184.67 416.5,-184.67 416.5,-179.33 421.83,-174 427.17,-174"/>
</a>
</g>
</g>
<!-- primitive&#45;String&#45;1 -->
<g id="node8" class="node">
<title>primitive&#45;String&#45;1</title>
<g id="a_node8"><a xlink:title="String&#45;1: primitive&#45;String&#45;1">
<path fill="white" stroke="transparent" d="M417.17,-95C417.17,-95 486.83,-95 486.83,-95 492.17,-95 497.5,-100.33 497.5,-105.67 497.5,-105.67 497.5,-116.33 497.5,-116.33 497.5,-121.67 492.17,-127 486.83,-127 486.83,-127 417.17,-127 417.17,-127 411.83,-127 406.5,-121.67 406.5,-116.33 406.5,-116.33 406.5,-105.67 406.5,-105.67 406.5,-100.33 411.83,-95 417.17,-95"/>
<text text-anchor="start" x="412" y="-107.3" font-family="Helvetica,sans-Serif" font-size="14.00">&quot;%lo(.LC1)&quot;</text>
<path fill="none" stroke="black" d="M417.17,-95C417.17,-95 486.83,-95 486.83,-95 492.17,-95 497.5,-100.33 497.5,-105.67 497.5,-105.67 497.5,-116.33 497.5,-116.33 497.5,-121.67 492.17,-127 486.83,-127 486.83,-127 417.17,-127 417.17,-127 411.83,-127 406.5,-121.67 406.5,-116.33 406.5,-116.33 406.5,-105.67 406.5,-105.67 406.5,-100.33 411.83,-95 417.17,-95"/>
</a>
</g>
</g>
<!-- function&#45;0&#45;Lui -->
<g id="node9" class="node">
<title>function&#45;0&#45;Lui</title>
<g id="a_node9"><a xlink:title="Inst&#45;1: function&#45;0&#45;Lui">
<path fill="white" stroke="transparent" d="M538.67,-174C538.67,-174 549.33,-174 549.33,-174 554.67,-174 560,-179.33 560,-184.67 560,-184.67 560,-195.33 560,-195.33 560,-200.67 554.67,-206 549.33,-206 549.33,-206 538.67,-206 538.67,-206 533.33,-206 528,-200.67 528,-195.33 528,-195.33 528,-184.67 528,-184.67 528,-179.33 533.33,-174 538.67,-174"/>
<text text-anchor="start" x="533.5" y="-186.3" font-family="Helvetica,sans-Serif" font-size="14.00">Lui</text>
<path fill="none" stroke="black" d="M538.67,-174C538.67,-174 549.33,-174 549.33,-174 554.67,-174 560,-179.33 560,-184.67 560,-184.67 560,-195.33 560,-195.33 560,-200.67 554.67,-206 549.33,-206 549.33,-206 538.67,-206 538.67,-206 533.33,-206 528,-200.67 528,-195.33 528,-195.33 528,-184.67 528,-184.67 528,-179.33 533.33,-174 538.67,-174"/>
</a>
</g>
</g>
<!-- function&#45;0&#45;Addi -->
<g id="node10" class="node">
<title>function&#45;0&#45;Addi</title>
<g id="a_node10"><a xlink:title="Inst&#45;3: function&#45;0&#45;Addi">
<path fill="white" stroke="transparent" d="M490.17,-253C490.17,-253 509.83,-253 509.83,-253 515.17,-253 520.5,-258.33 520.5,-263.67 520.5,-263.67 520.5,-274.33 520.5,-274.33 520.5,-279.67 515.17,-285 509.83,-285 509.83,-285 490.17,-285 490.17,-285 484.83,-285 479.5,-279.67 479.5,-274.33 479.5,-274.33 479.5,-263.67 479.5,-263.67 479.5,-258.33 484.83,-253 490.17,-253"/>
<text text-anchor="start" x="485" y="-265.3" font-family="Helvetica,sans-Serif" font-size="14.00">Addi</text>
<path fill="none" stroke="black" d="M490.17,-253C490.17,-253 509.83,-253 509.83,-253 515.17,-253 520.5,-258.33 520.5,-263.67 520.5,-263.67 520.5,-274.33 520.5,-274.33 520.5,-279.67 515.17,-285 509.83,-285 509.83,-285 490.17,-285 490.17,-285 484.83,-285 479.5,-279.67 479.5,-274.33 479.5,-274.33 479.5,-263.67 479.5,-263.67 479.5,-258.33 484.83,-253 490.17,-253"/>
</a>
</g>
</g>
<!-- function&#45;0&#45;Auipc -->
<g id="node11" class="node">
<title>function&#45;0&#45;Auipc</title>
<g id="a_node11"><a xlink:title="Inst&#45;5: function&#45;0&#45;Auipc">
<path fill="white" stroke="transparent" d="M308.67,-253C308.67,-253 337.33,-253 337.33,-253 342.67,-253 348,-258.33 348,-263.67 348,-263.67 348,-274.33 348,-274.33 348,-279.67 342.67,-285 337.33,-285 337.33,-285 308.67,-285 308.67,-285 303.33,-285 298,-279.67 298,-274.33 298,-274.33 298,-263.67 298,-263.67 298,-258.33 303.33,-253 308.67,-253"/>
<text text-anchor="start" x="303" y="-265.3" font-family="Helvetica,sans-Serif" font-size="14.00">Auipc</text>
<path fill="none" stroke="black" d="M308.67,-253C308.67,-253 337.33,-253 337.33,-253 342.67,-253 348,-258.33 348,-263.67 348,-263.67 348,-274.33 348,-274.33 348,-279.67 342.67,-285 337.33,-285 337.33,-285 308.67,-285 308.67,-285 303.33,-285 298,-279.67 298,-274.33 298,-274.33 298,-263.67 298,-263.67 298,-258.33 303.33,-253 308.67,-253"/>
</a>
</g>
</g>
<!-- function&#45;0&#45;Jalr -->
<g id="node12" class="node">
<title>function&#45;0&#45;Jalr</title>
<g id="a_node12"><a xlink:title="Inst&#45;8: function&#45;0&#45;Jalr">
<path fill="white" stroke="transparent" d="M97.17,-253C97.17,-253 108.83,-253 108.83,-253 114.17,-253 119.5,-258.33 119.5,-263.67 119.5,-263.67 119.5,-274.33 119.5,-274.33 119.5,-279.67 114.17,-285 108.83,-285 108.83,-285 97.17,-285 97.17,-285 91.83,-285 86.5,-279.67 86.5,-274.33 86.5,-274.33 86.5,-263.67 86.5,-263.67 86.5,-258.33 91.83,-253 97.17,-253"/>
<text text-anchor="start" x="92" y="-265.3" font-family="Helvetica,sans-Serif" font-size="14.00">Jalr</text>
<path fill="none" stroke="black" d="M97.17,-253C97.17,-253 108.83,-253 108.83,-253 114.17,-253 119.5,-258.33 119.5,-263.67 119.5,-263.67 119.5,-274.33 119.5,-274.33 119.5,-279.67 114.17,-285 108.83,-285 108.83,-285 97.17,-285 97.17,-285 91.83,-285 86.5,-279.67 86.5,-274.33 86.5,-274.33 86.5,-263.67 86.5,-263.67 86.5,-258.33 91.83,-253 97.17,-253"/>
</a>
</g>
</g>
<!-- function&#45;0&#45;RegVal -->
<g id="node13" class="node">
<title>function&#45;0&#45;RegVal</title>
<g id="a_node13"><a xlink:title="Inst&#45;6: function&#45;0&#45;RegVal">
<path fill="white" stroke="transparent" d="M129.17,-174C129.17,-174 164.83,-174 164.83,-174 170.17,-174 175.5,-179.33 175.5,-184.67 175.5,-184.67 175.5,-195.33 175.5,-195.33 175.5,-200.67 170.17,-206 164.83,-206 164.83,-206 129.17,-206 129.17,-206 123.83,-206 118.5,-200.67 118.5,-195.33 118.5,-195.33 118.5,-184.67 118.5,-184.67 118.5,-179.33 123.83,-174 129.17,-174"/>
<text text-anchor="start" x="124" y="-186.3" font-family="Helvetica,sans-Serif" font-size="14.00">RegVal</text>
<path fill="none" stroke="black" d="M129.17,-174C129.17,-174 164.83,-174 164.83,-174 170.17,-174 175.5,-179.33 175.5,-184.67 175.5,-184.67 175.5,-195.33 175.5,-195.33 175.5,-200.67 170.17,-206 164.83,-206 164.83,-206 129.17,-206 129.17,-206 123.83,-206 118.5,-200.67 118.5,-195.33 118.5,-195.33 118.5,-184.67 118.5,-184.67 118.5,-179.33 123.83,-174 129.17,-174"/>
</a>
</g>
</g>
<!-- primitive&#45;String&#45;3 -->
<g id="node14" class="node">
<title>primitive&#45;String&#45;3</title>
<g id="a_node14"><a xlink:title="String&#45;3: primitive&#45;String&#45;3">
<path fill="white" stroke="transparent" d="M90.67,-95C90.67,-95 231.33,-95 231.33,-95 236.67,-95 242,-100.33 242,-105.67 242,-105.67 242,-116.33 242,-116.33 242,-121.67 236.67,-127 231.33,-127 231.33,-127 90.67,-127 90.67,-127 85.33,-127 80,-121.67 80,-116.33 80,-116.33 80,-105.67 80,-105.67 80,-100.33 85.33,-95 90.67,-95"/>
<text text-anchor="start" x="85" y="-107.3" font-family="Helvetica,sans-Serif" font-size="14.00">&quot;%pcrel_lo(.Lpcrel_1)&quot;</text>
<path fill="none" stroke="black" d="M90.67,-95C90.67,-95 231.33,-95 231.33,-95 236.67,-95 242,-100.33 242,-105.67 242,-105.67 242,-116.33 242,-116.33 242,-121.67 236.67,-127 231.33,-127 231.33,-127 90.67,-127 90.67,-127 85.33,-127 80,-121.67 80,-116.33 80,-116.33 80,-105.67 80,-105.67 80,-100.33 85.33,-95 90.67,-95"/>
</a>
</g>
</g>
</g>
</svg>
