<?xml version="1.0" encoding="UTF-8" standalone="no"?>
<!DOCTYPE svg PUBLIC "-//W3C//DTD SVG 1.1//EN"
 "http://www.w3.org/Graphics/SVG/1.1/DTD/svg11.dtd">
<!-- Generated by graphviz version 2.43.0 (0)
 -->
<!-- Title: %3 Pages: 1 -->
<svg width="490pt" height="309pt"
 viewBox="0.00 0.00 490.00 309.00" xmlns="http://www.w3.org/2000/svg" xmlns:xlink="http://www.w3.org/1999/xlink">
<g id="graph0" class="graph" transform="scale(1 1) rotate(0) translate(4 305)">
<title>%3</title>
<polygon fill="white" stroke="#000000" points="-4,4 -4,-305 486,-305 486,4 -4,4"/>
<g id="clust1" class="cluster">
<title>outer_cluster_Imm&#45;6</title>
</g>
<g id="clust2" class="cluster">
<title>cluster_Imm&#45;6</title>
<path fill="#ffffb3" stroke="black" stroke-dasharray="5,2" d="M78,-169C78,-169 138,-169 138,-169 144,-169 150,-175 150,-181 150,-181 150,-199 150,-199 150,-205 144,-211 138,-211 138,-211 78,-211 78,-211 72,-211 66,-205 66,-199 66,-199 66,-181 66,-181 66,-175 72,-169 78,-169"/>
</g>
<g id="clust4" class="cluster">
<title>outer_cluster_Imm&#45;0</title>
</g>
<g id="clust5" class="cluster">
<title>cluster_Imm&#45;0</title>
<path fill="#ffffb3" stroke="black" stroke-dasharray="5,2" d="M391,-90C391,-90 451,-90 451,-90 457,-90 463,-96 463,-102 463,-102 463,-120 463,-120 463,-126 457,-132 451,-132 451,-132 391,-132 391,-132 385,-132 379,-126 379,-120 379,-120 379,-102 379,-102 379,-96 385,-90 391,-90"/>
</g>
<g id="clust7" class="cluster">
<title>outer_cluster_Imm&#45;2</title>
</g>
<g id="clust8" class="cluster">
<title>cluster_Imm&#45;2</title>
<path fill="#ffffb3" stroke="black" stroke-dasharray="5,2" d="M298,-169C298,-169 358,-169 358,-169 364,-169 370,-175 370,-181 370,-181 370,-199 370,-199 370,-205 364,-211 358,-211 358,-211 298,-211 298,-211 292,-211 286,-205 286,-199 286,-199 286,-181 286,-181 286,-175 292,-169 298,-169"/>
</g>
<g id="clust10" class="cluster">
<title>outer_cluster_Imm&#45;4</title>
</g>
<g id="clust11" class="cluster">
<title>cluster_Imm&#45;4</title>
<path fill="#ffffb3" stroke="black" stroke-dasharray="5,2" d="M197,-90C197,-90 257,-90 257,-90 263,-90 269,-96 269,-102 269,-102 269,-120 269,-120 269,-126 263,-132 257,-132 257,-132 197,-132 197,-132 191,-132 185,-126 185,-120 185,-120 185,-102 185,-102 185,-96 191,-90 197,-90"/>
</g>
<g id="clust13" class="cluster">
<title>outer_cluster_Inst&#45;1</title>
</g>
<g id="clust14" class="cluster">
<title>cluster_Inst&#45;1</title>
<path fill="#bebada" stroke="black" stroke-dasharray="5,2" d="M398,-169C398,-169 434,-169 434,-169 440,-169 446,-175 446,-181 446,-181 446,-199 446,-199 446,-205 440,-211 434,-211 434,-211 398,-211 398,-211 392,-211 386,-205 386,-199 386,-199 386,-181 386,-181 386,-175 392,-169 398,-169"/>
</g>
<g id="clust16" class="cluster">
<title>outer_cluster_Inst&#45;3</title>
</g>
<g id="clust17" class="cluster">
<title>cluster_Inst&#45;3</title>
<path fill="#bebada" stroke="black" stroke-dasharray="5,2" d="M354,-248C354,-248 390,-248 390,-248 396,-248 402,-254 402,-260 402,-260 402,-278 402,-278 402,-284 396,-290 390,-290 390,-290 354,-290 354,-290 348,-290 342,-284 342,-278 342,-278 342,-260 342,-260 342,-254 348,-248 354,-248"/>
</g>
<g id="clust19" class="cluster">
<title>outer_cluster_Inst&#45;5</title>
</g>
<g id="clust20" class="cluster">
<title>cluster_Inst&#45;5</title>
<path fill="#bebada" stroke="black" stroke-dasharray="5,2" d="M182,-169C182,-169 218,-169 218,-169 224,-169 230,-175 230,-181 230,-181 230,-199 230,-199 230,-205 224,-211 218,-211 218,-211 182,-211 182,-211 176,-211 170,-205 170,-199 170,-199 170,-181 170,-181 170,-175 176,-169 182,-169"/>
</g>
<g id="clust22" class="cluster">
<title>outer_cluster_Inst&#45;7</title>
</g>
<g id="clust23" class="cluster">
<title>cluster_Inst&#45;7</title>
<path fill="#bebada" stroke="black" stroke-dasharray="5,2" d="M143,-248C143,-248 179,-248 179,-248 185,-248 191,-254 191,-260 191,-260 191,-278 191,-278 191,-284 185,-290 179,-290 179,-290 143,-290 143,-290 137,-290 131,-284 131,-278 131,-278 131,-260 131,-260 131,-254 137,-248 143,-248"/>
</g>
<g id="clust25" class="cluster">
<title>outer_cluster_String&#45;3</title>
</g>
<g id="clust26" class="cluster">
<title>cluster_String&#45;3</title>
<path fill="#fb8072" stroke="black" stroke-dasharray="5,2" d="M167,-11C167,-11 289,-11 289,-11 295,-11 301,-17 301,-23 301,-23 301,-41 301,-41 301,-47 295,-53 289,-53 289,-53 167,-53 167,-53 161,-53 155,-47 155,-41 155,-41 155,-23 155,-23 155,-17 161,-11 167,-11"/>
</g>
<g id="clust28" class="cluster">
<title>outer_cluster_String&#45;1</title>
</g>
<g id="clust29" class="cluster">
<title>cluster_String&#45;1</title>
<path fill="#fb8072" stroke="black" stroke-dasharray="5,2" d="M385,-11C385,-11 459,-11 459,-11 465,-11 471,-17 471,-23 471,-23 471,-41 471,-41 471,-47 465,-53 459,-53 459,-53 385,-53 385,-53 379,-53 373,-47 373,-41 373,-41 373,-23 373,-23 373,-17 379,-11 385,-11"/>
</g>
<g id="clust31" class="cluster">
<title>outer_cluster_String&#45;4</title>
</g>
<g id="clust32" class="cluster">
<title>cluster_String&#45;4</title>
<path fill="#fb8072" stroke="black" stroke-dasharray="5,2" d="M23,-90C23,-90 167,-90 167,-90 173,-90 179,-96 179,-102 179,-102 179,-120 179,-120 179,-126 173,-132 167,-132 167,-132 23,-132 23,-132 17,-132 11,-126 11,-120 11,-120 11,-102 11,-102 11,-96 17,-90 23,-90"/>
</g>
<g id="clust34" class="cluster">
<title>outer_cluster_String&#45;2</title>
</g>
<g id="clust35" class="cluster">
<title>cluster_String&#45;2</title>
<path fill="#fb8072" stroke="black" stroke-dasharray="5,2" d="M287,-90C287,-90 361,-90 361,-90 367,-90 373,-96 373,-102 373,-102 373,-120 373,-120 373,-126 367,-132 361,-132 361,-132 287,-132 287,-132 281,-132 275,-126 275,-120 275,-120 275,-102 275,-102 275,-96 281,-90 287,-90"/>
</g>
<!-- function&#45;3&#45;ImmLabel&#45;&gt;primitive&#45;String&#45;4 -->
<g id="edge1" class="edge">
<title>function&#45;3&#45;ImmLabel:s&#45;&gt;primitive&#45;String&#45;4</title>
<path fill="none" stroke="black" d="M109,-174C109,-160.48 105.79,-145.7 102.45,-133.97"/>
<polygon fill="black" stroke="black" points="105.38,-135.01 101.02,-132 102.55,-137.07 105.38,-135.01"/>
</g>
<!-- function&#45;0&#45;ImmLabel&#45;&gt;primitive&#45;String&#45;1 -->
<g id="edge2" class="edge">
<title>function&#45;0&#45;ImmLabel:s&#45;&gt;primitive&#45;String&#45;1</title>
<path fill="none" stroke="black" d="M422,-95C422,-81.84 422,-67.11 422,-55.3"/>
<polygon fill="black" stroke="black" points="423.75,-58 422,-53 420.25,-58 423.75,-58"/>
</g>
<!-- function&#45;1&#45;ImmLabel&#45;&gt;primitive&#45;String&#45;2 -->
<g id="edge3" class="edge">
<title>function&#45;1&#45;ImmLabel:s&#45;&gt;primitive&#45;String&#45;2</title>
<path fill="none" stroke="black" d="M329,-174C329,-160.8 327.86,-146.06 326.67,-134.27"/>
<polygon fill="black" stroke="black" points="328.99,-136.45 326.12,-132 325.59,-137.27 328.99,-136.45"/>
</g>
<!-- function&#45;2&#45;ImmLabel&#45;&gt;primitive&#45;String&#45;3 -->
<g id="edge4" class="edge">
<title>function&#45;2&#45;ImmLabel:s&#45;&gt;primitive&#45;String&#45;3</title>
<path fill="none" stroke="black" d="M228,-95C228,-81.84 228,-67.11 228,-55.3"/>
<polygon fill="black" stroke="black" points="229.75,-58 228,-53 226.25,-58 229.75,-58"/>
</g>
<!-- function&#45;0&#45;Lui&#45;&gt;function&#45;0&#45;ImmLabel -->
<g id="edge5" class="edge">
<title>function&#45;0&#45;Lui:s&#45;&gt;function&#45;0&#45;ImmLabel</title>
<path fill="none" stroke="black" d="M416,-174C416,-160.8 417.14,-146.06 418.33,-134.27"/>
<polygon fill="black" stroke="black" points="419.41,-137.27 418.88,-132 416.01,-136.45 419.41,-137.27"/>
</g>
<!-- function&#45;0&#45;Addi&#45;&gt;function&#45;1&#45;ImmLabel -->
<g id="edge7" class="edge">
<title>function&#45;0&#45;Addi:s&#45;&gt;function&#45;1&#45;ImmLabel</title>
<path fill="none" stroke="black" d="M382,-253C382,-236.46 370.93,-222.18 358.82,-211.52"/>
<polygon fill="black" stroke="black" points="362.96,-211.49 357.68,-211 361.5,-214.67 362.96,-211.49"/>
</g>
<!-- function&#45;0&#45;Addi&#45;&gt;function&#45;0&#45;Lui -->
<g id="edge6" class="edge">
<title>function&#45;0&#45;Addi:s&#45;&gt;function&#45;0&#45;Lui</title>
<path fill="none" stroke="black" d="M362,-253C362,-236.46 373.07,-222.18 385.18,-211.52"/>
<polygon fill="black" stroke="black" points="385.11,-215.26 386,-210.04 382.05,-213.57 385.11,-215.26"/>
</g>
<!-- function&#45;0&#45;Auipc&#45;&gt;function&#45;2&#45;ImmLabel -->
<g id="edge8" class="edge">
<title>function&#45;0&#45;Auipc:s&#45;&gt;function&#45;2&#45;ImmLabel</title>
<path fill="none" stroke="black" d="M200,-174C200,-159.7 206.11,-144.97 212.52,-133.45"/>
<polygon fill="black" stroke="black" points="211.62,-136.69 214.08,-132 209.23,-134.14 211.62,-136.69"/>
</g>
<!-- function&#45;0&#45;Jalr&#45;&gt;function&#45;3&#45;ImmLabel -->
<g id="edge10" class="edge">
<title>function&#45;0&#45;Jalr:s&#45;&gt;function&#45;3&#45;ImmLabel</title>
<path fill="none" stroke="black" d="M169,-253C169,-235.76 156.86,-221.56 143.42,-211.12"/>
<polygon fill="black" stroke="black" points="148.39,-212.13 143.21,-211 146.56,-215.11 148.39,-212.13"/>
</g>
<!-- function&#45;0&#45;Jalr&#45;&gt;function&#45;0&#45;Auipc -->
<g id="edge9" class="edge">
<title>function&#45;0&#45;Jalr:s&#45;&gt;function&#45;0&#45;Auipc</title>
<path fill="none" stroke="black" d="M153,-253C153,-237.1 162.93,-222.72 173.67,-211.82"/>
<polygon fill="black" stroke="black" points="171.61,-214.78 175.33,-211 170.07,-211.64 171.61,-214.78"/>
</g>
<!-- function&#45;3&#45;ImmLabel -->
<g id="node1" class="node">
<title>function&#45;3&#45;ImmLabel</title>
<g id="a_node1"><a xlink:title="Imm&#45;6: function&#45;3&#45;ImmLabel">
<path fill="white" stroke="transparent" d="M79.17,-174C79.17,-174 136.83,-174 136.83,-174 142.17,-174 147.5,-179.33 147.5,-184.67 147.5,-184.67 147.5,-195.33 147.5,-195.33 147.5,-200.67 142.17,-206 136.83,-206 136.83,-206 79.17,-206 79.17,-206 73.83,-206 68.5,-200.67 68.5,-195.33 68.5,-195.33 68.5,-184.67 68.5,-184.67 68.5,-179.33 73.83,-174 79.17,-174"/>
<text text-anchor="start" x="74" y="-186.3" font-family="Helvetica,sans-Serif" font-size="14.00">ImmLabel</text>
<path fill="none" stroke="black" d="M79.17,-174C79.17,-174 136.83,-174 136.83,-174 142.17,-174 147.5,-179.33 147.5,-184.67 147.5,-184.67 147.5,-195.33 147.5,-195.33 147.5,-200.67 142.17,-206 136.83,-206 136.83,-206 79.17,-206 79.17,-206 73.83,-206 68.5,-200.67 68.5,-195.33 68.5,-195.33 68.5,-184.67 68.5,-184.67 68.5,-179.33 73.83,-174 79.17,-174"/>
</a>
</g>
</g>
<!-- primitive&#45;String&#45;4 -->
<g id="node2" class="node">
<title>primitive&#45;String&#45;4</title>
<g id="a_node2"><a xlink:title="String&#45;4: primitive&#45;String&#45;4">
<path fill="white" stroke="transparent" d="M24.67,-95C24.67,-95 165.33,-95 165.33,-95 170.67,-95 176,-100.33 176,-105.67 176,-105.67 176,-116.33 176,-116.33 176,-121.67 170.67,-127 165.33,-127 165.33,-127 24.67,-127 24.67,-127 19.33,-127 14,-121.67 14,-116.33 14,-116.33 14,-105.67 14,-105.67 14,-100.33 19.33,-95 24.67,-95"/>
<text text-anchor="start" x="19" y="-107.3" font-family="Helvetica,sans-Serif" font-size="14.00">&quot;%pcrel_lo(.Lpcrel_1)&quot;</text>
<path fill="none" stroke="black" d="M24.67,-95C24.67,-95 165.33,-95 165.33,-95 170.67,-95 176,-100.33 176,-105.67 176,-105.67 176,-116.33 176,-116.33 176,-121.67 170.67,-127 165.33,-127 165.33,-127 24.67,-127 24.67,-127 19.33,-127 14,-121.67 14,-116.33 14,-116.33 14,-105.67 14,-105.67 14,-100.33 19.33,-95 24.67,-95"/>
</a>
</g>
</g>
<!-- function&#45;0&#45;ImmLabel -->
<g id="node3" class="node">
<title>function&#45;0&#45;ImmLabel</title>
<g id="a_node3"><a xlink:title="Imm&#45;0: function&#45;0&#45;ImmLabel">
<path fill="white" stroke="transparent" d="M392.17,-95C392.17,-95 449.83,-95 449.83,-95 455.17,-95 460.5,-100.33 460.5,-105.67 460.5,-105.67 460.5,-116.33 460.5,-116.33 460.5,-121.67 455.17,-127 449.83,-127 449.83,-127 392.17,-127 392.17,-127 386.83,-127 381.5,-121.67 381.5,-116.33 381.5,-116.33 381.5,-105.67 381.5,-105.67 381.5,-100.33 386.83,-95 392.17,-95"/>
<text text-anchor="start" x="387" y="-107.3" font-family="Helvetica,sans-Serif" font-size="14.00">ImmLabel</text>
<path fill="none" stroke="black" d="M392.17,-95C392.17,-95 449.83,-95 449.83,-95 455.17,-95 460.5,-100.33 460.5,-105.67 460.5,-105.67 460.5,-116.33 460.5,-116.33 460.5,-121.67 455.17,-127 449.83,-127 449.83,-127 392.17,-127 392.17,-127 386.83,-127 381.5,-121.67 381.5,-116.33 381.5,-116.33 381.5,-105.67 381.5,-105.67 381.5,-100.33 386.83,-95 392.17,-95"/>
</a>
</g>
</g>
<!-- primitive&#45;String&#45;1 -->
<g id="node4" class="node">
<title>primitive&#45;String&#45;1</title>
<g id="a_node4"><a xlink:title="String&#45;1: primitive&#45;String&#45;1">
<path fill="white" stroke="transparent" d="M386.67,-16C386.67,-16 457.33,-16 457.33,-16 462.67,-16 468,-21.33 468,-26.67 468,-26.67 468,-37.33 468,-37.33 468,-42.67 462.67,-48 457.33,-48 457.33,-48 386.67,-48 386.67,-48 381.33,-48 376,-42.67 376,-37.33 376,-37.33 376,-26.67 376,-26.67 376,-21.33 381.33,-16 386.67,-16"/>
<text text-anchor="start" x="381" y="-28.3" font-family="Helvetica,sans-Serif" font-size="14.00">&quot;%hi(.LC1)&quot;</text>
<path fill="none" stroke="black" d="M386.67,-16C386.67,-16 457.33,-16 457.33,-16 462.67,-16 468,-21.33 468,-26.67 468,-26.67 468,-37.33 468,-37.33 468,-42.67 462.67,-48 457.33,-48 457.33,-48 386.67,-48 386.67,-48 381.33,-48 376,-42.67 376,-37.33 376,-37.33 376,-26.67 376,-26.67 376,-21.33 381.33,-16 386.67,-16"/>
</a>
</g>
</g>
<!-- function&#45;1&#45;ImmLabel -->
<g id="node5" class="node">
<title>function&#45;1&#45;ImmLabel</title>
<g id="a_node5"><a xlink:title="Imm&#45;2: function&#45;1&#45;ImmLabel">
<path fill="white" stroke="transparent" d="M299.17,-174C299.17,-174 356.83,-174 356.83,-174 362.17,-174 367.5,-179.33 367.5,-184.67 367.5,-184.67 367.5,-195.33 367.5,-195.33 367.5,-200.67 362.17,-206 356.83,-206 356.83,-206 299.17,-206 299.17,-206 293.83,-206 288.5,-200.67 288.5,-195.33 288.5,-195.33 288.5,-184.67 288.5,-184.67 288.5,-179.33 293.83,-174 299.17,-174"/>
<text text-anchor="start" x="294" y="-186.3" font-family="Helvetica,sans-Serif" font-size="14.00">ImmLabel</text>
<path fill="none" stroke="black" d="M299.17,-174C299.17,-174 356.83,-174 356.83,-174 362.17,-174 367.5,-179.33 367.5,-184.67 367.5,-184.67 367.5,-195.33 367.5,-195.33 367.5,-200.67 362.17,-206 356.83,-206 356.83,-206 299.17,-206 299.17,-206 293.83,-206 288.5,-200.67 288.5,-195.33 288.5,-195.33 288.5,-184.67 288.5,-184.67 288.5,-179.33 293.83,-174 299.17,-174"/>
</a>
</g>
</g>
<!-- primitive&#45;String&#45;2 -->
<g id="node6" class="node">
<title>primitive&#45;String&#45;2</title>
<g id="a_node6"><a xlink:title="String&#45;2: primitive&#45;String&#45;2">
<path fill="white" stroke="transparent" d="M289.17,-95C289.17,-95 358.83,-95 358.83,-95 364.17,-95 369.5,-100.33 369.5,-105.67 369.5,-105.67 369.5,-116.33 369.5,-116.33 369.5,-121.67 364.17,-127 358.83,-127 358.83,-127 289.17,-127 289.17,-127 283.83,-127 278.5,-121.67 278.5,-116.33 278.5,-116.33 278.5,-105.67 278.5,-105.67 278.5,-100.33 283.83,-95 289.17,-95"/>
<text text-anchor="start" x="284" y="-107.3" font-family="Helvetica,sans-Serif" font-size="14.00">&quot;%lo(.LC1)&quot;</text>
<path fill="none" stroke="black" d="M289.17,-95C289.17,-95 358.83,-95 358.83,-95 364.17,-95 369.5,-100.33 369.5,-105.67 369.5,-105.67 369.5,-116.33 369.5,-116.33 369.5,-121.67 364.17,-127 358.83,-127 358.83,-127 289.17,-127 289.17,-127 283.83,-127 278.5,-121.67 278.5,-116.33 278.5,-116.33 278.5,-105.67 278.5,-105.67 278.5,-100.33 283.83,-95 289.17,-95"/>
</a>
</g>
</g>
<!-- function&#45;2&#45;ImmLabel -->
<g id="node7" class="node">
<title>function&#45;2&#45;ImmLabel</title>
<g id="a_node7"><a xlink:title="Imm&#45;4: function&#45;2&#45;ImmLabel">
<path fill="white" stroke="transparent" d="M198.17,-95C198.17,-95 255.83,-95 255.83,-95 261.17,-95 266.5,-100.33 266.5,-105.67 266.5,-105.67 266.5,-116.33 266.5,-116.33 266.5,-121.67 261.17,-127 255.83,-127 255.83,-127 198.17,-127 198.17,-127 192.83,-127 187.5,-121.67 187.5,-116.33 187.5,-116.33 187.5,-105.67 187.5,-105.67 187.5,-100.33 192.83,-95 198.17,-95"/>
<text text-anchor="start" x="193" y="-107.3" font-family="Helvetica,sans-Serif" font-size="14.00">ImmLabel</text>
<path fill="none" stroke="black" d="M198.17,-95C198.17,-95 255.83,-95 255.83,-95 261.17,-95 266.5,-100.33 266.5,-105.67 266.5,-105.67 266.5,-116.33 266.5,-116.33 266.5,-121.67 261.17,-127 255.83,-127 255.83,-127 198.17,-127 198.17,-127 192.83,-127 187.5,-121.67 187.5,-116.33 187.5,-116.33 187.5,-105.67 187.5,-105.67 187.5,-100.33 192.83,-95 198.17,-95"/>
</a>
</g>
</g>
<!-- primitive&#45;String&#45;3 -->
<g id="node8" class="node">
<title>primitive&#45;String&#45;3</title>
<g id="a_node8"><a xlink:title="String&#45;3: primitive&#45;String&#45;3">
<path fill="white" stroke="transparent" d="M168.67,-16C168.67,-16 287.33,-16 287.33,-16 292.67,-16 298,-21.33 298,-26.67 298,-26.67 298,-37.33 298,-37.33 298,-42.67 292.67,-48 287.33,-48 287.33,-48 168.67,-48 168.67,-48 163.33,-48 158,-42.67 158,-37.33 158,-37.33 158,-26.67 158,-26.67 158,-21.33 163.33,-16 168.67,-16"/>
<text text-anchor="start" x="163" y="-28.3" font-family="Helvetica,sans-Serif" font-size="14.00">&quot;%pcrel_hi(printf)&quot;</text>
<path fill="none" stroke="black" d="M168.67,-16C168.67,-16 287.33,-16 287.33,-16 292.67,-16 298,-21.33 298,-26.67 298,-26.67 298,-37.33 298,-37.33 298,-42.67 292.67,-48 287.33,-48 287.33,-48 168.67,-48 168.67,-48 163.33,-48 158,-42.67 158,-37.33 158,-37.33 158,-26.67 158,-26.67 158,-21.33 163.33,-16 168.67,-16"/>
</a>
</g>
</g>
<!-- function&#45;0&#45;Lui -->
<g id="node9" class="node">
<title>function&#45;0&#45;Lui</title>
<g id="a_node9"><a xlink:title="Inst&#45;1: function&#45;0&#45;Lui">
<path fill="white" stroke="transparent" d="M410.67,-174C410.67,-174 421.33,-174 421.33,-174 426.67,-174 432,-179.33 432,-184.67 432,-184.67 432,-195.33 432,-195.33 432,-200.67 426.67,-206 421.33,-206 421.33,-206 410.67,-206 410.67,-206 405.33,-206 400,-200.67 400,-195.33 400,-195.33 400,-184.67 400,-184.67 400,-179.33 405.33,-174 410.67,-174"/>
<text text-anchor="start" x="405.5" y="-186.3" font-family="Helvetica,sans-Serif" font-size="14.00">Lui</text>
<path fill="none" stroke="black" d="M410.67,-174C410.67,-174 421.33,-174 421.33,-174 426.67,-174 432,-179.33 432,-184.67 432,-184.67 432,-195.33 432,-195.33 432,-200.67 426.67,-206 421.33,-206 421.33,-206 410.67,-206 410.67,-206 405.33,-206 400,-200.67 400,-195.33 400,-195.33 400,-184.67 400,-184.67 400,-179.33 405.33,-174 410.67,-174"/>
</a>
</g>
</g>
<!-- function&#45;0&#45;Addi -->
<g id="node10" class="node">
<title>function&#45;0&#45;Addi</title>
<g id="a_node10"><a xlink:title="Inst&#45;3: function&#45;0&#45;Addi">
<path fill="white" stroke="transparent" d="M362.17,-253C362.17,-253 381.83,-253 381.83,-253 387.17,-253 392.5,-258.33 392.5,-263.67 392.5,-263.67 392.5,-274.33 392.5,-274.33 392.5,-279.67 387.17,-285 381.83,-285 381.83,-285 362.17,-285 362.17,-285 356.83,-285 351.5,-279.67 351.5,-274.33 351.5,-274.33 351.5,-263.67 351.5,-263.67 351.5,-258.33 356.83,-253 362.17,-253"/>
<text text-anchor="start" x="357" y="-265.3" font-family="Helvetica,sans-Serif" font-size="14.00">Addi</text>
<path fill="none" stroke="black" d="M362.17,-253C362.17,-253 381.83,-253 381.83,-253 387.17,-253 392.5,-258.33 392.5,-263.67 392.5,-263.67 392.5,-274.33 392.5,-274.33 392.5,-279.67 387.17,-285 381.83,-285 381.83,-285 362.17,-285 362.17,-285 356.83,-285 351.5,-279.67 351.5,-274.33 351.5,-274.33 351.5,-263.67 351.5,-263.67 351.5,-258.33 356.83,-253 362.17,-253"/>
</a>
</g>
</g>
<!-- function&#45;0&#45;Auipc -->
<g id="node11" class="node">
<title>function&#45;0&#45;Auipc</title>
<g id="a_node11"><a xlink:title="Inst&#45;5: function&#45;0&#45;Auipc">
<path fill="white" stroke="transparent" d="M185.67,-174C185.67,-174 214.33,-174 214.33,-174 219.67,-174 225,-179.33 225,-184.67 225,-184.67 225,-195.33 225,-195.33 225,-200.67 219.67,-206 214.33,-206 214.33,-206 185.67,-206 185.67,-206 180.33,-206 175,-200.67 175,-195.33 175,-195.33 175,-184.67 175,-184.67 175,-179.33 180.33,-174 185.67,-174"/>
<text text-anchor="start" x="180" y="-186.3" font-family="Helvetica,sans-Serif" font-size="14.00">Auipc</text>
<path fill="none" stroke="black" d="M185.67,-174C185.67,-174 214.33,-174 214.33,-174 219.67,-174 225,-179.33 225,-184.67 225,-184.67 225,-195.33 225,-195.33 225,-200.67 219.67,-206 214.33,-206 214.33,-206 185.67,-206 185.67,-206 180.33,-206 175,-200.67 175,-195.33 175,-195.33 175,-184.67 175,-184.67 175,-179.33 180.33,-174 185.67,-174"/>
</a>
</g>
</g>
<!-- function&#45;0&#45;Jalr -->
<g id="node12" class="node">
<title>function&#45;0&#45;Jalr</title>
<g id="a_node12"><a xlink:title="Inst&#45;7: function&#45;0&#45;Jalr">
<path fill="white" stroke="transparent" d="M155.17,-253C155.17,-253 166.83,-253 166.83,-253 172.17,-253 177.5,-258.33 177.5,-263.67 177.5,-263.67 177.5,-274.33 177.5,-274.33 177.5,-279.67 172.17,-285 166.83,-285 166.83,-285 155.17,-285 155.17,-285 149.83,-285 144.5,-279.67 144.5,-274.33 144.5,-274.33 144.5,-263.67 144.5,-263.67 144.5,-258.33 149.83,-253 155.17,-253"/>
<text text-anchor="start" x="150" y="-265.3" font-family="Helvetica,sans-Serif" font-size="14.00">Jalr</text>
<path fill="none" stroke="black" d="M155.17,-253C155.17,-253 166.83,-253 166.83,-253 172.17,-253 177.5,-258.33 177.5,-263.67 177.5,-263.67 177.5,-274.33 177.5,-274.33 177.5,-279.67 172.17,-285 166.83,-285 166.83,-285 155.17,-285 155.17,-285 149.83,-285 144.5,-279.67 144.5,-274.33 144.5,-274.33 144.5,-263.67 144.5,-263.67 144.5,-258.33 149.83,-253 155.17,-253"/>
</a>
</g>
</g>
</g>
</svg>
