<?xml version="1.0" encoding="UTF-8" standalone="no"?>
<!DOCTYPE svg PUBLIC "-//W3C//DTD SVG 1.1//EN"
 "http://www.w3.org/Graphics/SVG/1.1/DTD/svg11.dtd">
<!-- Generated by graphviz version 2.43.0 (0)
 -->
<!-- Title: %3 Pages: 1 -->
<svg width="537pt" height="546pt"
 viewBox="0.00 0.00 537.20 546.00" xmlns="http://www.w3.org/2000/svg" xmlns:xlink="http://www.w3.org/1999/xlink">
<g id="graph0" class="graph" transform="scale(1 1) rotate(0) translate(4 542)">
<title>%3</title>
<polygon fill="white" stroke="#000000" points="-4,4 -4,-542 533.2,-542 533.2,4 -4,4"/>
<g id="clust1" class="cluster">
<title>outer_cluster_Imm&#45;6</title>
</g>
<g id="clust2" class="cluster">
<title>cluster_Imm&#45;6</title>
<path fill="#ffffb3" stroke="black" stroke-dasharray="5,2" d="M275,-248C275,-248 319,-248 319,-248 325,-248 331,-254 331,-260 331,-260 331,-278 331,-278 331,-284 325,-290 319,-290 319,-290 275,-290 275,-290 269,-290 263,-284 263,-278 263,-278 263,-260 263,-260 263,-254 269,-248 275,-248"/>
</g>
<g id="clust4" class="cluster">
<title>outer_cluster_Imm&#45;3</title>
</g>
<g id="clust5" class="cluster">
<title>cluster_Imm&#45;3</title>
<path fill="#ffffb3" stroke="black" stroke-dasharray="5,2" d="M194,-90C194,-90 238,-90 238,-90 244,-90 250,-96 250,-102 250,-102 250,-120 250,-120 250,-126 244,-132 238,-132 238,-132 194,-132 194,-132 188,-132 182,-126 182,-120 182,-120 182,-102 182,-102 182,-96 188,-90 194,-90"/>
</g>
<g id="clust7" class="cluster">
<title>outer_cluster_Imm&#45;8</title>
</g>
<g id="clust8" class="cluster">
<title>cluster_Imm&#45;8</title>
<path fill="#ffffb3" stroke="black" stroke-dasharray="5,2" d="M23,-327C23,-327 83,-327 83,-327 89,-327 95,-333 95,-339 95,-339 95,-357 95,-357 95,-363 89,-369 83,-369 83,-369 23,-369 23,-369 17,-369 11,-363 11,-357 11,-357 11,-339 11,-339 11,-333 17,-327 23,-327"/>
</g>
<g id="clust10" class="cluster">
<title>outer_cluster_Inst&#45;14</title>
</g>
<g id="clust11" class="cluster">
<title>cluster_Inst&#45;14</title>
<path fill="#bebada" stroke="black" stroke-dasharray="5,2" d="M292,-327C292,-327 328,-327 328,-327 334,-327 340,-333 340,-339 340,-339 340,-357 340,-357 340,-363 334,-369 328,-369 328,-369 292,-369 292,-369 286,-369 280,-363 280,-357 280,-357 280,-339 280,-339 280,-333 286,-327 292,-327"/>
</g>
<g id="clust13" class="cluster">
<title>outer_cluster_Inst&#45;7</title>
</g>
<g id="clust14" class="cluster">
<title>cluster_Inst&#45;7</title>
<path fill="#bebada" stroke="black" stroke-dasharray="5,2" d="M204,-327C204,-327 240,-327 240,-327 246,-327 252,-333 252,-339 252,-339 252,-357 252,-357 252,-363 246,-369 240,-369 240,-369 204,-369 204,-369 198,-369 192,-363 192,-357 192,-357 192,-339 192,-339 192,-333 198,-327 204,-327"/>
</g>
<g id="clust16" class="cluster">
<title>outer_cluster_Inst&#45;13</title>
</g>
<g id="clust17" class="cluster">
<title>cluster_Inst&#45;13</title>
<path fill="#bebada" stroke="black" stroke-dasharray="5,2" d="M344,-406C344,-406 496,-406 496,-406 502,-406 508,-412 508,-418 508,-418 508,-436 508,-436 508,-442 502,-448 496,-448 496,-448 344,-448 344,-448 338,-448 332,-442 332,-436 332,-436 332,-418 332,-418 332,-412 338,-406 344,-406"/>
</g>
<g id="clust19" class="cluster">
<title>outer_cluster_Inst&#45;4</title>
</g>
<g id="clust20" class="cluster">
<title>cluster_Inst&#45;4</title>
<path fill="#bebada" stroke="black" stroke-dasharray="5,2" d="M192,-169C192,-169 228,-169 228,-169 234,-169 240,-175 240,-181 240,-181 240,-199 240,-199 240,-205 234,-211 228,-211 228,-211 192,-211 192,-211 186,-211 180,-205 180,-199 180,-199 180,-181 180,-181 180,-175 186,-169 192,-169"/>
</g>
<g id="clust22" class="cluster">
<title>outer_cluster_Inst&#45;11</title>
</g>
<g id="clust23" class="cluster">
<title>cluster_Inst&#45;11</title>
<path fill="#bebada" stroke="black" stroke-dasharray="5,2" d="M74,-406C74,-406 110,-406 110,-406 116,-406 122,-412 122,-418 122,-418 122,-436 122,-436 122,-442 116,-448 110,-448 110,-448 74,-448 74,-448 68,-448 62,-442 62,-436 62,-436 62,-418 62,-418 62,-412 68,-406 74,-406"/>
</g>
<g id="clust25" class="cluster">
<title>outer_cluster_Inst&#45;5</title>
</g>
<g id="clust26" class="cluster">
<title>cluster_Inst&#45;5</title>
<path fill="#bebada" stroke="black" stroke-dasharray="5,2" d="M138,-248C138,-248 232,-248 232,-248 238,-248 244,-254 244,-260 244,-260 244,-278 244,-278 244,-284 238,-290 232,-290 232,-290 138,-290 138,-290 132,-290 126,-284 126,-278 126,-278 126,-260 126,-260 126,-254 132,-248 138,-248"/>
</g>
<g id="clust28" class="cluster">
<title>outer_cluster_Inst&#45;9</title>
</g>
<g id="clust29" class="cluster">
<title>cluster_Inst&#45;9</title>
<path fill="#bebada" stroke="black" stroke-dasharray="5,2" d="M56,-485C56,-485 208,-485 208,-485 214,-485 220,-491 220,-497 220,-497 220,-515 220,-515 220,-521 214,-527 208,-527 208,-527 56,-527 56,-527 50,-527 44,-521 44,-515 44,-515 44,-497 44,-497 44,-491 50,-485 56,-485"/>
</g>
<g id="clust31" class="cluster">
<title>outer_cluster_Inst&#45;0</title>
</g>
<g id="clust32" class="cluster">
<title>cluster_Inst&#45;0</title>
<path fill="#bebada" stroke="black" stroke-dasharray="5,2" d="M122,-169C122,-169 162,-169 162,-169 168,-169 174,-175 174,-181 174,-181 174,-199 174,-199 174,-205 168,-211 162,-211 162,-211 122,-211 122,-211 116,-211 110,-205 110,-199 110,-199 110,-181 110,-181 110,-175 116,-169 122,-169"/>
</g>
<g id="clust34" class="cluster">
<title>outer_cluster_Inst&#45;1</title>
</g>
<g id="clust35" class="cluster">
<title>cluster_Inst&#45;1</title>
<path fill="#bebada" stroke="black" stroke-dasharray="5,2" d="M427,-327C427,-327 467,-327 467,-327 473,-327 479,-333 479,-339 479,-339 479,-357 479,-357 479,-363 473,-369 467,-369 467,-369 427,-369 427,-369 421,-369 415,-363 415,-357 415,-357 415,-339 415,-339 415,-333 421,-327 427,-327"/>
</g>
<g id="clust37" class="cluster">
<title>outer_cluster_Inst&#45;2</title>
</g>
<g id="clust38" class="cluster">
<title>cluster_Inst&#45;2</title>
<path fill="#bebada" stroke="black" stroke-dasharray="5,2" d="M268,-90C268,-90 308,-90 308,-90 314,-90 320,-96 320,-102 320,-102 320,-120 320,-120 320,-126 314,-132 308,-132 308,-132 268,-132 268,-132 262,-132 256,-126 256,-120 256,-120 256,-102 256,-102 256,-96 262,-90 268,-90"/>
</g>
<g id="clust40" class="cluster">
<title>outer_cluster_Inst&#45;10</title>
</g>
<g id="clust41" class="cluster">
<title>cluster_Inst&#45;10</title>
<path fill="#bebada" stroke="black" stroke-dasharray="5,2" d="M162,-406C162,-406 314,-406 314,-406 320,-406 326,-412 326,-418 326,-418 326,-436 326,-436 326,-442 320,-448 314,-448 314,-448 162,-448 162,-448 156,-448 150,-442 150,-436 150,-436 150,-418 150,-418 150,-412 156,-406 162,-406"/>
</g>
<g id="clust43" class="cluster">
<title>outer_cluster_String&#45;3</title>
</g>
<g id="clust44" class="cluster">
<title>cluster_String&#45;3</title>
<path fill="#fb8072" stroke="black" stroke-dasharray="5,2" d="M36,-248C36,-248 72,-248 72,-248 78,-248 84,-254 84,-260 84,-260 84,-278 84,-278 84,-284 78,-290 72,-290 72,-290 36,-290 36,-290 30,-290 24,-284 24,-278 24,-278 24,-260 24,-260 24,-254 30,-248 36,-248"/>
</g>
<g id="clust46" class="cluster">
<title>outer_cluster_String&#45;2</title>
</g>
<g id="clust47" class="cluster">
<title>cluster_String&#45;2</title>
<path fill="#fb8072" stroke="black" stroke-dasharray="5,2" d="M269,-11C269,-11 309,-11 309,-11 315,-11 321,-17 321,-23 321,-23 321,-41 321,-41 321,-47 315,-53 309,-53 309,-53 269,-53 269,-53 263,-53 257,-47 257,-41 257,-41 257,-23 257,-23 257,-17 263,-11 269,-11"/>
</g>
<g id="clust49" class="cluster">
<title>outer_cluster_String&#45;1</title>
</g>
<g id="clust50" class="cluster">
<title>cluster_String&#45;1</title>
<path fill="#fb8072" stroke="black" stroke-dasharray="5,2" d="M428,-248C428,-248 468,-248 468,-248 474,-248 480,-254 480,-260 480,-260 480,-278 480,-278 480,-284 474,-290 468,-290 468,-290 428,-290 428,-290 422,-290 416,-284 416,-278 416,-278 416,-260 416,-260 416,-254 422,-248 428,-248"/>
</g>
<g id="clust52" class="cluster">
<title>outer_cluster_String&#45;0</title>
</g>
<g id="clust53" class="cluster">
<title>cluster_String&#45;0</title>
<path fill="#fb8072" stroke="black" stroke-dasharray="5,2" d="M123,-90C123,-90 163,-90 163,-90 169,-90 175,-96 175,-102 175,-102 175,-120 175,-120 175,-126 169,-132 163,-132 163,-132 123,-132 123,-132 117,-132 111,-126 111,-120 111,-120 111,-102 111,-102 111,-96 117,-90 123,-90"/>
</g>
<g id="clust55" class="cluster">
<title>outer_cluster_i64&#45;3</title>
</g>
<g id="clust56" class="cluster">
<title>cluster_i64&#45;3</title>
<path fill="#80b1d3" stroke="black" stroke-dasharray="5,2" d="M198,-11C198,-11 234,-11 234,-11 240,-11 246,-17 246,-23 246,-23 246,-41 246,-41 246,-47 240,-53 234,-53 234,-53 198,-53 198,-53 192,-53 186,-47 186,-41 186,-41 186,-23 186,-23 186,-17 192,-11 198,-11"/>
</g>
<g id="clust58" class="cluster">
<title>outer_cluster_i64&#45;4</title>
</g>
<g id="clust59" class="cluster">
<title>cluster_i64&#45;4</title>
<path fill="#80b1d3" stroke="black" stroke-dasharray="5,2" d="M279,-169C279,-169 315,-169 315,-169 321,-169 327,-175 327,-181 327,-181 327,-199 327,-199 327,-205 321,-211 315,-211 315,-211 279,-211 279,-211 273,-211 267,-205 267,-199 267,-199 267,-181 267,-181 267,-175 273,-169 279,-169"/>
</g>
<!-- function&#45;1&#45;ImmVal&#45;&gt;primitive&#45;i64&#45;4 -->
<g id="edge1" class="edge">
<title>function&#45;1&#45;ImmVal:s&#45;&gt;primitive&#45;i64&#45;4</title>
<path fill="none" stroke="black" d="M297,-253C297,-239.84 297,-225.11 297,-213.3"/>
<polygon fill="black" stroke="black" points="298.75,-216 297,-211 295.25,-216 298.75,-216"/>
</g>
<!-- function&#45;0&#45;ImmVal&#45;&gt;primitive&#45;i64&#45;3 -->
<g id="edge2" class="edge">
<title>function&#45;0&#45;ImmVal:s&#45;&gt;primitive&#45;i64&#45;3</title>
<path fill="none" stroke="black" d="M216,-95C216,-81.84 216,-67.11 216,-55.3"/>
<polygon fill="black" stroke="black" points="217.75,-58 216,-53 214.25,-58 217.75,-58"/>
</g>
<!-- function&#45;0&#45;ImmLabel&#45;&gt;primitive&#45;String&#45;3 -->
<g id="edge3" class="edge">
<title>function&#45;0&#45;ImmLabel:s&#45;&gt;primitive&#45;String&#45;3</title>
<path fill="none" stroke="black" d="M54,-332C54,-318.84 54,-304.11 54,-292.3"/>
<polygon fill="black" stroke="black" points="55.75,-295 54,-290 52.25,-295 55.75,-295"/>
</g>
<!-- function&#45;1&#45;Jal&#45;&gt;function&#45;1&#45;ImmVal -->
<g id="edge4" class="edge">
<title>function&#45;1&#45;Jal:s&#45;&gt;function&#45;1&#45;ImmVal</title>
<path fill="none" stroke="black" d="M310,-332C310,-318.53 307.02,-303.75 303.92,-292.01"/>
<polygon fill="black" stroke="black" points="306.81,-293.2 302.59,-290 303.89,-295.13 306.81,-293.2"/>
</g>
<!-- function&#45;0&#45;Lw&#45;&gt;function&#45;1&#45;ImmVal -->
<g id="edge6" class="edge">
<title>function&#45;0&#45;Lw:s&#45;&gt;function&#45;1&#45;ImmVal</title>
<path fill="none" stroke="black" d="M230,-332C230,-312.59 245.34,-297.56 261.34,-287.16"/>
<polygon fill="black" stroke="black" points="260.9,-290.22 263,-285.35 258.33,-287.85 260.9,-290.22"/>
</g>
<!-- function&#45;0&#45;Lw&#45;&gt;function&#45;1&#45;Add -->
<g id="edge5" class="edge">
<title>function&#45;0&#45;Lw:s&#45;&gt;function&#45;1&#45;Add</title>
<path fill="none" stroke="black" d="M214,-332C214,-318.84 214,-304.11 214,-292.3"/>
<polygon fill="black" stroke="black" points="215.75,-295 214,-290 212.25,-295 215.75,-295"/>
</g>
<!-- function&#45;1&#45;Add&#45;&gt;function&#45;0&#45;Slli -->
<g id="edge20" class="edge">
<title>function&#45;1&#45;Add:s&#45;&gt;function&#45;0&#45;Slli</title>
<path fill="none" stroke="black" d="M205,-253C205,-239.8 206.14,-225.06 207.33,-213.27"/>
<polygon fill="black" stroke="black" points="208.41,-216.27 207.88,-211 205.01,-215.45 208.41,-216.27"/>
</g>
<!-- function&#45;1&#45;Add&#45;&gt;function&#45;0&#45;RegVal -->
<g id="edge21" class="edge">
<title>function&#45;1&#45;Add:s&#45;&gt;function&#45;0&#45;RegVal</title>
<path fill="none" stroke="black" d="M223,-253C223,-246.41 195.66,-226.55 172.74,-211.06"/>
<polygon fill="black" stroke="black" points="177.81,-210.69 172.52,-211 176.85,-214.06 177.81,-210.69"/>
</g>
<!-- function&#45;2&#45;Beq&#45;&gt;function&#45;1&#45;ImmVal -->
<g id="edge9" class="edge">
<title>function&#45;2&#45;Beq:s&#45;&gt;function&#45;1&#45;ImmVal</title>
<path fill="none" stroke="black" d="M434,-411C434,-386.49 412.16,-389.51 395,-372 367.65,-344.1 336.44,-311.48 316.74,-290.79"/>
<polygon fill="black" stroke="black" points="320.45,-290.71 315.2,-290 318.86,-293.83 320.45,-290.71"/>
</g>
<!-- function&#45;2&#45;Beq&#45;&gt;function&#45;0&#45;Lw -->
<g id="edge7" class="edge">
<title>function&#45;2&#45;Beq:s&#45;&gt;function&#45;0&#45;Lw</title>
<path fill="none" stroke="black" d="M411,-411C411,-400.6 398.9,-406.19 389,-403 340.65,-387.42 327.07,-388.42 279,-372 270.8,-369.2 262.08,-365.87 253.98,-362.61"/>
<polygon fill="black" stroke="black" points="257.25,-362.32 252,-361.61 255.66,-365.44 257.25,-362.32"/>
</g>
<!-- function&#45;2&#45;Beq&#45;&gt;function&#45;1&#45;RegVal -->
<g id="edge8" class="edge">
<title>function&#45;2&#45;Beq:s&#45;&gt;function&#45;1&#45;RegVal</title>
<path fill="none" stroke="black" d="M425,-411C425,-397.11 429.97,-382.42 435.18,-370.83"/>
<polygon fill="black" stroke="black" points="435.07,-374.12 436.41,-369 432.17,-372.17 435.07,-374.12"/>
</g>
<!-- function&#45;1&#45;RegVal&#45;&gt;primitive&#45;String&#45;1 -->
<g id="edge31" class="edge">
<title>function&#45;1&#45;RegVal:s&#45;&gt;primitive&#45;String&#45;1</title>
<path fill="none" stroke="black" d="M448,-332C448,-318.84 448,-304.11 448,-292.3"/>
<polygon fill="black" stroke="black" points="449.75,-295 448,-290 446.25,-295 449.75,-295"/>
</g>
<!-- function&#45;3&#45;Beq&#45;&gt;function&#45;1&#45;ImmVal -->
<g id="edge12" class="edge">
<title>function&#45;3&#45;Beq:s&#45;&gt;function&#45;1&#45;ImmVal</title>
<path fill="none" stroke="black" d="M492,-411C492,-372.24 444.08,-396.44 414,-372 392.88,-354.84 395.9,-342.55 376,-324 363.78,-312.6 348.96,-301.82 335.47,-292.94"/>
<polygon fill="black" stroke="black" points="336.1,-291.26 330.96,-290 334.19,-294.19 336.1,-291.26"/>
</g>
<!-- function&#45;3&#45;Beq&#45;&gt;function&#45;0&#45;Lw -->
<g id="edge11" class="edge">
<title>function&#45;3&#45;Beq:s&#45;&gt;function&#45;0&#45;Lw</title>
<path fill="none" stroke="black" d="M483,-411C483,-364.85 323.32,-384.89 279,-372 270.77,-369.61 262.09,-366.45 254.06,-363.25"/>
<polygon fill="black" stroke="black" points="257.26,-362.85 252,-362.25 255.74,-366 257.26,-362.85"/>
</g>
<!-- function&#45;3&#45;Beq&#45;&gt;function&#45;1&#45;RegVal -->
<g id="edge10" class="edge">
<title>function&#45;3&#45;Beq:s&#45;&gt;function&#45;1&#45;RegVal</title>
<path fill="none" stroke="black" d="M469,-411C469,-397.11 464.03,-382.42 458.82,-370.83"/>
<polygon fill="black" stroke="black" points="461.83,-372.17 457.59,-369 458.93,-374.12 461.83,-372.17"/>
</g>
<!-- function&#45;2&#45;Seq2&#45;&gt;function&#45;1&#45;Jal -->
<g id="edge14" class="edge">
<title>function&#45;2&#45;Seq2:s&#45;&gt;function&#45;1&#45;Jal</title>
<path fill="none" stroke="black" d="M373,-411C373,-391.36 357.26,-375.87 341.51,-365.28"/>
<polygon fill="black" stroke="black" points="344.51,-366.19 340,-363.42 341.8,-368.4 344.51,-366.19"/>
</g>
<!-- function&#45;2&#45;Seq2&#45;&gt;function&#45;1&#45;Seq2 -->
<g id="edge13" class="edge">
<title>function&#45;2&#45;Seq2:s&#45;&gt;function&#45;1&#45;Seq2</title>
<path fill="none" stroke="black" d="M351,-411C351,-399.59 339.78,-401.91 327.57,-407.8"/>
<polygon fill="black" stroke="black" points="328.71,-404.57 326,-409.12 330.96,-407.26 328.71,-404.57"/>
</g>
<!-- function&#45;1&#45;Seq2&#45;&gt;function&#45;1&#45;Jal -->
<g id="edge40" class="edge">
<title>function&#45;1&#45;Seq2:s&#45;&gt;function&#45;1&#45;Jal</title>
<path fill="none" stroke="black" d="M307,-411C307,-397.82 307.68,-383.09 308.4,-371.29"/>
<polygon fill="black" stroke="black" points="309.75,-374.2 308.73,-369 306.29,-373.7 309.75,-374.2"/>
</g>
<!-- function&#45;1&#45;Seq2&#45;&gt;function&#45;2&#45;Beq -->
<g id="edge39" class="edge">
<title>function&#45;1&#45;Seq2:s&#45;&gt;function&#45;2&#45;Beq</title>
<path fill="none" stroke="black" d="M285,-411C285,-363.81 344.96,-360.06 387,-381.5 396.53,-386.36 403.96,-395.41 409.33,-404.17"/>
<polygon fill="black" stroke="black" points="406.37,-403.62 411.1,-406 408.88,-401.19 406.37,-403.62"/>
</g>
<!-- function&#45;0&#45;Slli&#45;&gt;function&#45;0&#45;ImmVal -->
<g id="edge16" class="edge">
<title>function&#45;0&#45;Slli:s&#45;&gt;function&#45;0&#45;ImmVal</title>
<path fill="none" stroke="black" d="M218,-174C218,-160.83 217.54,-146.1 217.07,-134.3"/>
<polygon fill="black" stroke="black" points="219.06,-136.81 216.85,-132 215.58,-137.14 219.06,-136.81"/>
</g>
<!-- function&#45;0&#45;Slli&#45;&gt;function&#45;2&#45;RegVal -->
<g id="edge15" class="edge">
<title>function&#45;0&#45;Slli:s&#45;&gt;function&#45;2&#45;RegVal</title>
<path fill="none" stroke="black" d="M202,-174C202,-170.66 229.58,-151.22 253.5,-134.99"/>
<polygon fill="black" stroke="black" points="254.76,-136.25 257.92,-132 252.8,-133.35 254.76,-136.25"/>
</g>
<!-- function&#45;2&#45;RegVal&#45;&gt;primitive&#45;String&#45;2 -->
<g id="edge32" class="edge">
<title>function&#45;2&#45;RegVal:s&#45;&gt;primitive&#45;String&#45;2</title>
<path fill="none" stroke="black" d="M289,-95C289,-81.84 289,-67.11 289,-55.3"/>
<polygon fill="black" stroke="black" points="290.75,-58 289,-53 287.25,-58 290.75,-58"/>
</g>
<!-- function&#45;0&#45;Jal&#45;&gt;function&#45;0&#45;ImmLabel -->
<g id="edge17" class="edge">
<title>function&#45;0&#45;Jal:s&#45;&gt;function&#45;0&#45;ImmLabel</title>
<path fill="none" stroke="black" d="M92,-411C92,-395.82 83.52,-381.32 74.48,-370.17"/>
<polygon fill="black" stroke="black" points="78.05,-370.95 73.13,-369 75.76,-373.6 78.05,-370.95"/>
</g>
<!-- function&#45;0&#45;Add&#45;&gt;function&#45;0&#45;Slli -->
<g id="edge19" class="edge">
<title>function&#45;0&#45;Add:s&#45;&gt;function&#45;0&#45;Slli</title>
<path fill="none" stroke="black" d="M165,-253C165,-237.23 174.66,-222.76 185.02,-211.78"/>
<polygon fill="black" stroke="black" points="182.89,-214.83 186.55,-211 181.3,-211.71 182.89,-214.83"/>
</g>
<!-- function&#45;0&#45;Add&#45;&gt;function&#45;0&#45;RegVal -->
<g id="edge18" class="edge">
<title>function&#45;0&#45;Add:s&#45;&gt;function&#45;0&#45;RegVal</title>
<path fill="none" stroke="black" d="M147,-253C147,-239.8 145.86,-225.06 144.67,-213.27"/>
<polygon fill="black" stroke="black" points="146.99,-215.45 144.12,-211 143.59,-216.27 146.99,-215.45"/>
</g>
<!-- function&#45;0&#45;RegVal&#45;&gt;primitive&#45;String&#45;0 -->
<g id="edge30" class="edge">
<title>function&#45;0&#45;RegVal:s&#45;&gt;primitive&#45;String&#45;0</title>
<path fill="none" stroke="black" d="M143,-174C143,-160.84 143,-146.11 143,-134.3"/>
<polygon fill="black" stroke="black" points="144.75,-137 143,-132 141.25,-137 144.75,-137"/>
</g>
<!-- function&#45;0&#45;Beq&#45;&gt;function&#45;0&#45;ImmLabel -->
<g id="edge24" class="edge">
<title>function&#45;0&#45;Beq:s&#45;&gt;function&#45;0&#45;ImmLabel</title>
<path fill="none" stroke="black" d="M204,-490C204,-424.12 103,-501.75 61,-451 51.28,-439.26 51,-397.45 51.87,-371.14"/>
<polygon fill="black" stroke="black" points="53.36,-374.13 52.05,-369 49.87,-373.83 53.36,-374.13"/>
</g>
<!-- function&#45;0&#45;Beq&#45;&gt;function&#45;0&#45;Lw -->
<g id="edge22" class="edge">
<title>function&#45;0&#45;Beq:s&#45;&gt;function&#45;0&#45;Lw</title>
<path fill="none" stroke="black" d="M181,-490C181,-467.58 156.55,-472.11 149,-451 141.81,-430.91 139.4,-422.05 149,-403 157.68,-385.78 174.74,-372.68 190.18,-363.71"/>
<polygon fill="black" stroke="black" points="189.48,-366.71 192,-362.05 187.12,-364.12 189.48,-366.71"/>
</g>
<!-- function&#45;0&#45;Beq&#45;&gt;function&#45;1&#45;RegVal -->
<g id="edge23" class="edge">
<title>function&#45;0&#45;Beq:s&#45;&gt;function&#45;1&#45;RegVal</title>
<path fill="none" stroke="black" d="M195,-490C195,-417.26 471.73,-505.41 520,-451 534.16,-435.04 529.6,-422.05 520,-403 511.58,-386.29 495.26,-373.46 480.19,-364.51"/>
<polygon fill="black" stroke="black" points="483.35,-365.89 479,-362.86 480.51,-367.94 483.35,-365.89"/>
</g>
<!-- function&#45;1&#45;Beq&#45;&gt;function&#45;0&#45;ImmLabel -->
<g id="edge27" class="edge">
<title>function&#45;1&#45;Beq:s&#45;&gt;function&#45;0&#45;ImmLabel</title>
<path fill="none" stroke="black" d="M146,-490C146,-443.95 75.72,-489.2 50,-451 34.09,-427.36 39.35,-393.17 45.47,-371.01"/>
<polygon fill="black" stroke="black" points="45.45,-374.11 46.86,-369 42.57,-372.11 45.45,-374.11"/>
</g>
<!-- function&#45;1&#45;Beq&#45;&gt;function&#45;0&#45;Lw -->
<g id="edge26" class="edge">
<title>function&#45;1&#45;Beq:s&#45;&gt;function&#45;0&#45;Lw</title>
<path fill="none" stroke="black" d="M137,-490C137,-451.29 121.96,-436.7 141,-403 151.72,-384.04 172.17,-370.48 189.85,-361.69"/>
<polygon fill="black" stroke="black" points="188.7,-364.48 192,-360.34 186.83,-361.52 188.7,-364.48"/>
</g>
<!-- function&#45;1&#45;Beq&#45;&gt;function&#45;1&#45;RegVal -->
<g id="edge25" class="edge">
<title>function&#45;1&#45;Beq:s&#45;&gt;function&#45;1&#45;RegVal</title>
<path fill="none" stroke="black" d="M123,-490C123,-403.79 450.82,-514.62 509,-451 523.4,-435.26 517.84,-422.42 509,-403 502.79,-389.35 491.22,-377.8 479.75,-368.94"/>
<polygon fill="black" stroke="black" points="483.21,-371 479,-367.79 480.29,-372.93 483.21,-371"/>
</g>
<!-- function&#45;0&#45;Seq2&#45;&gt;function&#45;0&#45;Jal -->
<g id="edge29" class="edge">
<title>function&#45;0&#45;Seq2:s&#45;&gt;function&#45;0&#45;Jal</title>
<path fill="none" stroke="black" d="M85,-490C85,-476.76 86.6,-462.02 88.27,-450.24"/>
<polygon fill="black" stroke="black" points="89.07,-453.3 89.03,-448 85.76,-452.16 89.07,-453.3"/>
</g>
<!-- function&#45;0&#45;Seq2&#45;&gt;function&#45;0&#45;Bne -->
<g id="edge28" class="edge">
<title>function&#45;0&#45;Seq2:s&#45;&gt;function&#45;0&#45;Bne</title>
<path fill="none" stroke="black" d="M63,-490C63,-480.36 113.24,-456.73 147.87,-441.59"/>
<polygon fill="black" stroke="black" points="146.46,-444.36 150,-440.42 144.78,-441.3 146.46,-444.36"/>
</g>
<!-- function&#45;0&#45;Bne&#45;&gt;function&#45;1&#45;ImmVal -->
<g id="edge35" class="edge">
<title>function&#45;0&#45;Bne:s&#45;&gt;function&#45;1&#45;ImmVal</title>
<path fill="none" stroke="black" d="M194,-411C194,-379.57 234.11,-397.12 253,-372 266.43,-354.14 259.34,-344.6 268,-324 272.61,-313.04 278.71,-301.36 284.14,-291.68"/>
<polygon fill="black" stroke="black" points="283.56,-294.83 285.74,-290 281.02,-292.42 283.56,-294.83"/>
</g>
<!-- function&#45;0&#45;Bne&#45;&gt;function&#45;0&#45;Lw -->
<g id="edge33" class="edge">
<title>function&#45;0&#45;Bne:s&#45;&gt;function&#45;0&#45;Lw</title>
<path fill="none" stroke="black" d="M171,-411C171,-394.72 181.62,-380.39 193.16,-369.62"/>
<polygon fill="black" stroke="black" points="190.89,-373.22 194.1,-369 188.96,-370.3 190.89,-373.22"/>
</g>
<!-- function&#45;0&#45;Bne&#45;&gt;function&#45;1&#45;RegVal -->
<g id="edge34" class="edge">
<title>function&#45;0&#45;Bne:s&#45;&gt;function&#45;1&#45;RegVal</title>
<path fill="none" stroke="black" d="M185,-411C185,-398.91 199.32,-406.13 211,-403 249.03,-392.81 357.79,-368.62 413.39,-356.37"/>
<polygon fill="black" stroke="black" points="411.81,-359.53 415,-355.29 409.87,-356.62 411.81,-359.53"/>
</g>
<!-- function&#45;1&#45;Bne&#45;&gt;function&#45;1&#45;ImmVal -->
<g id="edge38" class="edge">
<title>function&#45;1&#45;Bne:s&#45;&gt;function&#45;1&#45;ImmVal</title>
<path fill="none" stroke="black" d="M252,-411C252,-410.37 278.81,-324.6 279,-324 282.35,-313.59 286.17,-302.08 289.43,-292.38"/>
<polygon fill="black" stroke="black" points="289.66,-295.11 291.07,-290 286.79,-293.11 289.66,-295.11"/>
</g>
<!-- function&#45;1&#45;Bne&#45;&gt;function&#45;0&#45;Lw -->
<g id="edge37" class="edge">
<title>function&#45;1&#45;Bne:s&#45;&gt;function&#45;0&#45;Lw</title>
<path fill="none" stroke="black" d="M243,-411C243,-397.18 238.26,-382.49 233.28,-370.89"/>
<polygon fill="black" stroke="black" points="236.22,-372.39 232.15,-369 233.22,-374.19 236.22,-372.39"/>
</g>
<!-- function&#45;1&#45;Bne&#45;&gt;function&#45;1&#45;RegVal -->
<g id="edge36" class="edge">
<title>function&#45;1&#45;Bne:s&#45;&gt;function&#45;1&#45;RegVal</title>
<path fill="none" stroke="black" d="M229,-411C229,-401.55 351.75,-371.37 413.03,-356.89"/>
<polygon fill="black" stroke="black" points="411.62,-359.79 415,-355.71 409.81,-356.79 411.62,-359.79"/>
</g>
<!-- function&#45;1&#45;ImmVal -->
<g id="node1" class="node">
<title>function&#45;1&#45;ImmVal</title>
<g id="a_node1"><a xlink:title="Imm&#45;6: function&#45;1&#45;ImmVal">
<path fill="white" stroke="transparent" d="M276.67,-253C276.67,-253 317.33,-253 317.33,-253 322.67,-253 328,-258.33 328,-263.67 328,-263.67 328,-274.33 328,-274.33 328,-279.67 322.67,-285 317.33,-285 317.33,-285 276.67,-285 276.67,-285 271.33,-285 266,-279.67 266,-274.33 266,-274.33 266,-263.67 266,-263.67 266,-258.33 271.33,-253 276.67,-253"/>
<text text-anchor="start" x="271" y="-265.3" font-family="Helvetica,sans-Serif" font-size="14.00">ImmVal</text>
<path fill="none" stroke="black" d="M276.67,-253C276.67,-253 317.33,-253 317.33,-253 322.67,-253 328,-258.33 328,-263.67 328,-263.67 328,-274.33 328,-274.33 328,-279.67 322.67,-285 317.33,-285 317.33,-285 276.67,-285 276.67,-285 271.33,-285 266,-279.67 266,-274.33 266,-274.33 266,-263.67 266,-263.67 266,-258.33 271.33,-253 276.67,-253"/>
</a>
</g>
</g>
<!-- primitive&#45;i64&#45;4 -->
<g id="node2" class="node">
<title>primitive&#45;i64&#45;4</title>
<g id="a_node2"><a xlink:title="i64&#45;4: primitive&#45;i64&#45;4">
<path fill="white" stroke="transparent" d="M291.67,-174C291.67,-174 302.33,-174 302.33,-174 307.67,-174 313,-179.33 313,-184.67 313,-184.67 313,-195.33 313,-195.33 313,-200.67 307.67,-206 302.33,-206 302.33,-206 291.67,-206 291.67,-206 286.33,-206 281,-200.67 281,-195.33 281,-195.33 281,-184.67 281,-184.67 281,-179.33 286.33,-174 291.67,-174"/>
<text text-anchor="start" x="292" y="-186.3" font-family="Helvetica,sans-Serif" font-size="14.00">4</text>
<path fill="none" stroke="black" d="M291.67,-174C291.67,-174 302.33,-174 302.33,-174 307.67,-174 313,-179.33 313,-184.67 313,-184.67 313,-195.33 313,-195.33 313,-200.67 307.67,-206 302.33,-206 302.33,-206 291.67,-206 291.67,-206 286.33,-206 281,-200.67 281,-195.33 281,-195.33 281,-184.67 281,-184.67 281,-179.33 286.33,-174 291.67,-174"/>
</a>
</g>
</g>
<!-- function&#45;0&#45;ImmVal -->
<g id="node3" class="node">
<title>function&#45;0&#45;ImmVal</title>
<g id="a_node3"><a xlink:title="Imm&#45;3: function&#45;0&#45;ImmVal">
<path fill="white" stroke="transparent" d="M195.67,-95C195.67,-95 236.33,-95 236.33,-95 241.67,-95 247,-100.33 247,-105.67 247,-105.67 247,-116.33 247,-116.33 247,-121.67 241.67,-127 236.33,-127 236.33,-127 195.67,-127 195.67,-127 190.33,-127 185,-121.67 185,-116.33 185,-116.33 185,-105.67 185,-105.67 185,-100.33 190.33,-95 195.67,-95"/>
<text text-anchor="start" x="190" y="-107.3" font-family="Helvetica,sans-Serif" font-size="14.00">ImmVal</text>
<path fill="none" stroke="black" d="M195.67,-95C195.67,-95 236.33,-95 236.33,-95 241.67,-95 247,-100.33 247,-105.67 247,-105.67 247,-116.33 247,-116.33 247,-121.67 241.67,-127 236.33,-127 236.33,-127 195.67,-127 195.67,-127 190.33,-127 185,-121.67 185,-116.33 185,-116.33 185,-105.67 185,-105.67 185,-100.33 190.33,-95 195.67,-95"/>
</a>
</g>
</g>
<!-- primitive&#45;i64&#45;3 -->
<g id="node4" class="node">
<title>primitive&#45;i64&#45;3</title>
<g id="a_node4"><a xlink:title="i64&#45;3: primitive&#45;i64&#45;3">
<path fill="white" stroke="transparent" d="M210.67,-16C210.67,-16 221.33,-16 221.33,-16 226.67,-16 232,-21.33 232,-26.67 232,-26.67 232,-37.33 232,-37.33 232,-42.67 226.67,-48 221.33,-48 221.33,-48 210.67,-48 210.67,-48 205.33,-48 200,-42.67 200,-37.33 200,-37.33 200,-26.67 200,-26.67 200,-21.33 205.33,-16 210.67,-16"/>
<text text-anchor="start" x="211" y="-28.3" font-family="Helvetica,sans-Serif" font-size="14.00">3</text>
<path fill="none" stroke="black" d="M210.67,-16C210.67,-16 221.33,-16 221.33,-16 226.67,-16 232,-21.33 232,-26.67 232,-26.67 232,-37.33 232,-37.33 232,-42.67 226.67,-48 221.33,-48 221.33,-48 210.67,-48 210.67,-48 205.33,-48 200,-42.67 200,-37.33 200,-37.33 200,-26.67 200,-26.67 200,-21.33 205.33,-16 210.67,-16"/>
</a>
</g>
</g>
<!-- function&#45;0&#45;ImmLabel -->
<g id="node5" class="node">
<title>function&#45;0&#45;ImmLabel</title>
<g id="a_node5"><a xlink:title="Imm&#45;8: function&#45;0&#45;ImmLabel">
<path fill="white" stroke="transparent" d="M24.17,-332C24.17,-332 81.83,-332 81.83,-332 87.17,-332 92.5,-337.33 92.5,-342.67 92.5,-342.67 92.5,-353.33 92.5,-353.33 92.5,-358.67 87.17,-364 81.83,-364 81.83,-364 24.17,-364 24.17,-364 18.83,-364 13.5,-358.67 13.5,-353.33 13.5,-353.33 13.5,-342.67 13.5,-342.67 13.5,-337.33 18.83,-332 24.17,-332"/>
<text text-anchor="start" x="19" y="-344.3" font-family="Helvetica,sans-Serif" font-size="14.00">ImmLabel</text>
<path fill="none" stroke="black" d="M24.17,-332C24.17,-332 81.83,-332 81.83,-332 87.17,-332 92.5,-337.33 92.5,-342.67 92.5,-342.67 92.5,-353.33 92.5,-353.33 92.5,-358.67 87.17,-364 81.83,-364 81.83,-364 24.17,-364 24.17,-364 18.83,-364 13.5,-358.67 13.5,-353.33 13.5,-353.33 13.5,-342.67 13.5,-342.67 13.5,-337.33 18.83,-332 24.17,-332"/>
</a>
</g>
</g>
<!-- primitive&#45;String&#45;3 -->
<g id="node6" class="node">
<title>primitive&#45;String&#45;3</title>
<g id="a_node6"><a xlink:title="String&#45;3: primitive&#45;String&#45;3">
<path fill="white" stroke="transparent" d="M42.17,-253C42.17,-253 65.83,-253 65.83,-253 71.17,-253 76.5,-258.33 76.5,-263.67 76.5,-263.67 76.5,-274.33 76.5,-274.33 76.5,-279.67 71.17,-285 65.83,-285 65.83,-285 42.17,-285 42.17,-285 36.83,-285 31.5,-279.67 31.5,-274.33 31.5,-274.33 31.5,-263.67 31.5,-263.67 31.5,-258.33 36.83,-253 42.17,-253"/>
<text text-anchor="start" x="37" y="-265.3" font-family="Helvetica,sans-Serif" font-size="14.00">&quot;.L5&quot;</text>
<path fill="none" stroke="black" d="M42.17,-253C42.17,-253 65.83,-253 65.83,-253 71.17,-253 76.5,-258.33 76.5,-263.67 76.5,-263.67 76.5,-274.33 76.5,-274.33 76.5,-279.67 71.17,-285 65.83,-285 65.83,-285 42.17,-285 42.17,-285 36.83,-285 31.5,-279.67 31.5,-274.33 31.5,-274.33 31.5,-263.67 31.5,-263.67 31.5,-258.33 36.83,-253 42.17,-253"/>
</a>
</g>
</g>
<!-- function&#45;1&#45;Jal -->
<g id="node7" class="node">
<title>function&#45;1&#45;Jal</title>
<g id="a_node7"><a xlink:title="Inst&#45;14: function&#45;1&#45;Jal">
<path fill="white" stroke="transparent" d="M304.67,-332C304.67,-332 315.33,-332 315.33,-332 320.67,-332 326,-337.33 326,-342.67 326,-342.67 326,-353.33 326,-353.33 326,-358.67 320.67,-364 315.33,-364 315.33,-364 304.67,-364 304.67,-364 299.33,-364 294,-358.67 294,-353.33 294,-353.33 294,-342.67 294,-342.67 294,-337.33 299.33,-332 304.67,-332"/>
<text text-anchor="start" x="301.5" y="-344.3" font-family="Helvetica,sans-Serif" font-size="14.00">Jal</text>
<path fill="none" stroke="black" d="M304.67,-332C304.67,-332 315.33,-332 315.33,-332 320.67,-332 326,-337.33 326,-342.67 326,-342.67 326,-353.33 326,-353.33 326,-358.67 320.67,-364 315.33,-364 315.33,-364 304.67,-364 304.67,-364 299.33,-364 294,-358.67 294,-353.33 294,-353.33 294,-342.67 294,-342.67 294,-337.33 299.33,-332 304.67,-332"/>
</a>
</g>
</g>
<!-- function&#45;0&#45;Lw -->
<g id="node8" class="node">
<title>function&#45;0&#45;Lw</title>
<g id="a_node8"><a xlink:title="Inst&#45;7: function&#45;0&#45;Lw">
<path fill="white" stroke="transparent" d="M216.67,-332C216.67,-332 227.33,-332 227.33,-332 232.67,-332 238,-337.33 238,-342.67 238,-342.67 238,-353.33 238,-353.33 238,-358.67 232.67,-364 227.33,-364 227.33,-364 216.67,-364 216.67,-364 211.33,-364 206,-358.67 206,-353.33 206,-353.33 206,-342.67 206,-342.67 206,-337.33 211.33,-332 216.67,-332"/>
<text text-anchor="start" x="212.5" y="-344.3" font-family="Helvetica,sans-Serif" font-size="14.00">Lw</text>
<path fill="none" stroke="black" d="M216.67,-332C216.67,-332 227.33,-332 227.33,-332 232.67,-332 238,-337.33 238,-342.67 238,-342.67 238,-353.33 238,-353.33 238,-358.67 232.67,-364 227.33,-364 227.33,-364 216.67,-364 216.67,-364 211.33,-364 206,-358.67 206,-353.33 206,-353.33 206,-342.67 206,-342.67 206,-337.33 211.33,-332 216.67,-332"/>
</a>
</g>
</g>
<!-- function&#45;1&#45;Add -->
<g id="node9" class="node">
<title>function&#45;1&#45;Add</title>
<g id="a_node9"><a xlink:title="Inst&#45;5: function&#45;1&#45;Add">
<path fill="white" stroke="transparent" d="M205.67,-253C205.67,-253 222.33,-253 222.33,-253 227.67,-253 233,-258.33 233,-263.67 233,-263.67 233,-274.33 233,-274.33 233,-279.67 227.67,-285 222.33,-285 222.33,-285 205.67,-285 205.67,-285 200.33,-285 195,-279.67 195,-274.33 195,-274.33 195,-263.67 195,-263.67 195,-258.33 200.33,-253 205.67,-253"/>
<text text-anchor="start" x="200" y="-265.3" font-family="Helvetica,sans-Serif" font-size="14.00">Add</text>
<path fill="none" stroke="black" d="M205.67,-253C205.67,-253 222.33,-253 222.33,-253 227.67,-253 233,-258.33 233,-263.67 233,-263.67 233,-274.33 233,-274.33 233,-279.67 227.67,-285 222.33,-285 222.33,-285 205.67,-285 205.67,-285 200.33,-285 195,-279.67 195,-274.33 195,-274.33 195,-263.67 195,-263.67 195,-258.33 200.33,-253 205.67,-253"/>
</a>
</g>
</g>
<!-- function&#45;2&#45;Beq -->
<g id="node10" class="node">
<title>function&#45;2&#45;Beq</title>
<g id="a_node10"><a xlink:title="Inst&#45;13: function&#45;2&#45;Beq">
<path fill="white" stroke="transparent" d="M411.67,-411C411.67,-411 428.33,-411 428.33,-411 433.67,-411 439,-416.33 439,-421.67 439,-421.67 439,-432.33 439,-432.33 439,-437.67 433.67,-443 428.33,-443 428.33,-443 411.67,-443 411.67,-443 406.33,-443 401,-437.67 401,-432.33 401,-432.33 401,-421.67 401,-421.67 401,-416.33 406.33,-411 411.67,-411"/>
<text text-anchor="start" x="406" y="-423.3" font-family="Helvetica,sans-Serif" font-size="14.00">Beq</text>
<path fill="none" stroke="black" d="M411.67,-411C411.67,-411 428.33,-411 428.33,-411 433.67,-411 439,-416.33 439,-421.67 439,-421.67 439,-432.33 439,-432.33 439,-437.67 433.67,-443 428.33,-443 428.33,-443 411.67,-443 411.67,-443 406.33,-443 401,-437.67 401,-432.33 401,-432.33 401,-421.67 401,-421.67 401,-416.33 406.33,-411 411.67,-411"/>
</a>
</g>
</g>
<!-- function&#45;1&#45;RegVal -->
<g id="node11" class="node">
<title>function&#45;1&#45;RegVal</title>
<g id="a_node11"><a xlink:title="Inst&#45;1: function&#45;1&#45;RegVal">
<path fill="white" stroke="transparent" d="M429.17,-332C429.17,-332 464.83,-332 464.83,-332 470.17,-332 475.5,-337.33 475.5,-342.67 475.5,-342.67 475.5,-353.33 475.5,-353.33 475.5,-358.67 470.17,-364 464.83,-364 464.83,-364 429.17,-364 429.17,-364 423.83,-364 418.5,-358.67 418.5,-353.33 418.5,-353.33 418.5,-342.67 418.5,-342.67 418.5,-337.33 423.83,-332 429.17,-332"/>
<text text-anchor="start" x="424" y="-344.3" font-family="Helvetica,sans-Serif" font-size="14.00">RegVal</text>
<path fill="none" stroke="black" d="M429.17,-332C429.17,-332 464.83,-332 464.83,-332 470.17,-332 475.5,-337.33 475.5,-342.67 475.5,-342.67 475.5,-353.33 475.5,-353.33 475.5,-358.67 470.17,-364 464.83,-364 464.83,-364 429.17,-364 429.17,-364 423.83,-364 418.5,-358.67 418.5,-353.33 418.5,-353.33 418.5,-342.67 418.5,-342.67 418.5,-337.33 423.83,-332 429.17,-332"/>
</a>
</g>
</g>
<!-- function&#45;3&#45;Beq -->
<g id="node12" class="node">
<title>function&#45;3&#45;Beq</title>
<g id="a_node12"><a xlink:title="Inst&#45;13: function&#45;3&#45;Beq">
<path fill="white" stroke="transparent" d="M469.67,-411C469.67,-411 486.33,-411 486.33,-411 491.67,-411 497,-416.33 497,-421.67 497,-421.67 497,-432.33 497,-432.33 497,-437.67 491.67,-443 486.33,-443 486.33,-443 469.67,-443 469.67,-443 464.33,-443 459,-437.67 459,-432.33 459,-432.33 459,-421.67 459,-421.67 459,-416.33 464.33,-411 469.67,-411"/>
<text text-anchor="start" x="464" y="-423.3" font-family="Helvetica,sans-Serif" font-size="14.00">Beq</text>
<path fill="none" stroke="black" d="M469.67,-411C469.67,-411 486.33,-411 486.33,-411 491.67,-411 497,-416.33 497,-421.67 497,-421.67 497,-432.33 497,-432.33 497,-437.67 491.67,-443 486.33,-443 486.33,-443 469.67,-443 469.67,-443 464.33,-443 459,-437.67 459,-432.33 459,-432.33 459,-421.67 459,-421.67 459,-416.33 464.33,-411 469.67,-411"/>
</a>
</g>
</g>
<!-- function&#45;2&#45;Seq2 -->
<g id="node13" class="node">
<title>function&#45;2&#45;Seq2</title>
<g id="a_node13"><a xlink:title="Inst&#45;13: function&#45;2&#45;Seq2">
<path fill="white" stroke="transparent" d="M349.67,-411C349.67,-411 374.33,-411 374.33,-411 379.67,-411 385,-416.33 385,-421.67 385,-421.67 385,-432.33 385,-432.33 385,-437.67 379.67,-443 374.33,-443 374.33,-443 349.67,-443 349.67,-443 344.33,-443 339,-437.67 339,-432.33 339,-432.33 339,-421.67 339,-421.67 339,-416.33 344.33,-411 349.67,-411"/>
<text text-anchor="start" x="344" y="-423.3" font-family="Helvetica,sans-Serif" font-size="14.00">Seq2</text>
<path fill="none" stroke="black" d="M349.67,-411C349.67,-411 374.33,-411 374.33,-411 379.67,-411 385,-416.33 385,-421.67 385,-421.67 385,-432.33 385,-432.33 385,-437.67 379.67,-443 374.33,-443 374.33,-443 349.67,-443 349.67,-443 344.33,-443 339,-437.67 339,-432.33 339,-432.33 339,-421.67 339,-421.67 339,-416.33 344.33,-411 349.67,-411"/>
</a>
</g>
</g>
<!-- function&#45;1&#45;Seq2 -->
<g id="node14" class="node">
<title>function&#45;1&#45;Seq2</title>
<g id="a_node14"><a xlink:title="Inst&#45;10: function&#45;1&#45;Seq2">
<path fill="white" stroke="transparent" d="M283.67,-411C283.67,-411 308.33,-411 308.33,-411 313.67,-411 319,-416.33 319,-421.67 319,-421.67 319,-432.33 319,-432.33 319,-437.67 313.67,-443 308.33,-443 308.33,-443 283.67,-443 283.67,-443 278.33,-443 273,-437.67 273,-432.33 273,-432.33 273,-421.67 273,-421.67 273,-416.33 278.33,-411 283.67,-411"/>
<text text-anchor="start" x="278" y="-423.3" font-family="Helvetica,sans-Serif" font-size="14.00">Seq2</text>
<path fill="none" stroke="black" d="M283.67,-411C283.67,-411 308.33,-411 308.33,-411 313.67,-411 319,-416.33 319,-421.67 319,-421.67 319,-432.33 319,-432.33 319,-437.67 313.67,-443 308.33,-443 308.33,-443 283.67,-443 283.67,-443 278.33,-443 273,-437.67 273,-432.33 273,-432.33 273,-421.67 273,-421.67 273,-416.33 278.33,-411 283.67,-411"/>
</a>
</g>
</g>
<!-- function&#45;0&#45;Slli -->
<g id="node15" class="node">
<title>function&#45;0&#45;Slli</title>
<g id="a_node15"><a xlink:title="Inst&#45;4: function&#45;0&#45;Slli">
<path fill="white" stroke="transparent" d="M204.67,-174C204.67,-174 215.33,-174 215.33,-174 220.67,-174 226,-179.33 226,-184.67 226,-184.67 226,-195.33 226,-195.33 226,-200.67 220.67,-206 215.33,-206 215.33,-206 204.67,-206 204.67,-206 199.33,-206 194,-200.67 194,-195.33 194,-195.33 194,-184.67 194,-184.67 194,-179.33 199.33,-174 204.67,-174"/>
<text text-anchor="start" x="199.5" y="-186.3" font-family="Helvetica,sans-Serif" font-size="14.00">Slli</text>
<path fill="none" stroke="black" d="M204.67,-174C204.67,-174 215.33,-174 215.33,-174 220.67,-174 226,-179.33 226,-184.67 226,-184.67 226,-195.33 226,-195.33 226,-200.67 220.67,-206 215.33,-206 215.33,-206 204.67,-206 204.67,-206 199.33,-206 194,-200.67 194,-195.33 194,-195.33 194,-184.67 194,-184.67 194,-179.33 199.33,-174 204.67,-174"/>
</a>
</g>
</g>
<!-- function&#45;2&#45;RegVal -->
<g id="node16" class="node">
<title>function&#45;2&#45;RegVal</title>
<g id="a_node16"><a xlink:title="Inst&#45;2: function&#45;2&#45;RegVal">
<path fill="white" stroke="transparent" d="M270.17,-95C270.17,-95 305.83,-95 305.83,-95 311.17,-95 316.5,-100.33 316.5,-105.67 316.5,-105.67 316.5,-116.33 316.5,-116.33 316.5,-121.67 311.17,-127 305.83,-127 305.83,-127 270.17,-127 270.17,-127 264.83,-127 259.5,-121.67 259.5,-116.33 259.5,-116.33 259.5,-105.67 259.5,-105.67 259.5,-100.33 264.83,-95 270.17,-95"/>
<text text-anchor="start" x="265" y="-107.3" font-family="Helvetica,sans-Serif" font-size="14.00">RegVal</text>
<path fill="none" stroke="black" d="M270.17,-95C270.17,-95 305.83,-95 305.83,-95 311.17,-95 316.5,-100.33 316.5,-105.67 316.5,-105.67 316.5,-116.33 316.5,-116.33 316.5,-121.67 311.17,-127 305.83,-127 305.83,-127 270.17,-127 270.17,-127 264.83,-127 259.5,-121.67 259.5,-116.33 259.5,-116.33 259.5,-105.67 259.5,-105.67 259.5,-100.33 264.83,-95 270.17,-95"/>
</a>
</g>
</g>
<!-- function&#45;0&#45;Jal -->
<g id="node17" class="node">
<title>function&#45;0&#45;Jal</title>
<g id="a_node17"><a xlink:title="Inst&#45;11: function&#45;0&#45;Jal">
<path fill="white" stroke="transparent" d="M86.67,-411C86.67,-411 97.33,-411 97.33,-411 102.67,-411 108,-416.33 108,-421.67 108,-421.67 108,-432.33 108,-432.33 108,-437.67 102.67,-443 97.33,-443 97.33,-443 86.67,-443 86.67,-443 81.33,-443 76,-437.67 76,-432.33 76,-432.33 76,-421.67 76,-421.67 76,-416.33 81.33,-411 86.67,-411"/>
<text text-anchor="start" x="83.5" y="-423.3" font-family="Helvetica,sans-Serif" font-size="14.00">Jal</text>
<path fill="none" stroke="black" d="M86.67,-411C86.67,-411 97.33,-411 97.33,-411 102.67,-411 108,-416.33 108,-421.67 108,-421.67 108,-432.33 108,-432.33 108,-437.67 102.67,-443 97.33,-443 97.33,-443 86.67,-443 86.67,-443 81.33,-443 76,-437.67 76,-432.33 76,-432.33 76,-421.67 76,-421.67 76,-416.33 81.33,-411 86.67,-411"/>
</a>
</g>
</g>
<!-- function&#45;0&#45;Add -->
<g id="node18" class="node">
<title>function&#45;0&#45;Add</title>
<g id="a_node18"><a xlink:title="Inst&#45;5: function&#45;0&#45;Add">
<path fill="white" stroke="transparent" d="M147.67,-253C147.67,-253 164.33,-253 164.33,-253 169.67,-253 175,-258.33 175,-263.67 175,-263.67 175,-274.33 175,-274.33 175,-279.67 169.67,-285 164.33,-285 164.33,-285 147.67,-285 147.67,-285 142.33,-285 137,-279.67 137,-274.33 137,-274.33 137,-263.67 137,-263.67 137,-258.33 142.33,-253 147.67,-253"/>
<text text-anchor="start" x="142" y="-265.3" font-family="Helvetica,sans-Serif" font-size="14.00">Add</text>
<path fill="none" stroke="black" d="M147.67,-253C147.67,-253 164.33,-253 164.33,-253 169.67,-253 175,-258.33 175,-263.67 175,-263.67 175,-274.33 175,-274.33 175,-279.67 169.67,-285 164.33,-285 164.33,-285 147.67,-285 147.67,-285 142.33,-285 137,-279.67 137,-274.33 137,-274.33 137,-263.67 137,-263.67 137,-258.33 142.33,-253 147.67,-253"/>
</a>
</g>
</g>
<!-- function&#45;0&#45;RegVal -->
<g id="node19" class="node">
<title>function&#45;0&#45;RegVal</title>
<g id="a_node19"><a xlink:title="Inst&#45;0: function&#45;0&#45;RegVal">
<path fill="white" stroke="transparent" d="M124.17,-174C124.17,-174 159.83,-174 159.83,-174 165.17,-174 170.5,-179.33 170.5,-184.67 170.5,-184.67 170.5,-195.33 170.5,-195.33 170.5,-200.67 165.17,-206 159.83,-206 159.83,-206 124.17,-206 124.17,-206 118.83,-206 113.5,-200.67 113.5,-195.33 113.5,-195.33 113.5,-184.67 113.5,-184.67 113.5,-179.33 118.83,-174 124.17,-174"/>
<text text-anchor="start" x="119" y="-186.3" font-family="Helvetica,sans-Serif" font-size="14.00">RegVal</text>
<path fill="none" stroke="black" d="M124.17,-174C124.17,-174 159.83,-174 159.83,-174 165.17,-174 170.5,-179.33 170.5,-184.67 170.5,-184.67 170.5,-195.33 170.5,-195.33 170.5,-200.67 165.17,-206 159.83,-206 159.83,-206 124.17,-206 124.17,-206 118.83,-206 113.5,-200.67 113.5,-195.33 113.5,-195.33 113.5,-184.67 113.5,-184.67 113.5,-179.33 118.83,-174 124.17,-174"/>
</a>
</g>
</g>
<!-- function&#45;0&#45;Beq -->
<g id="node20" class="node">
<title>function&#45;0&#45;Beq</title>
<g id="a_node20"><a xlink:title="Inst&#45;9: function&#45;0&#45;Beq">
<path fill="white" stroke="transparent" d="M181.67,-490C181.67,-490 198.33,-490 198.33,-490 203.67,-490 209,-495.33 209,-500.67 209,-500.67 209,-511.33 209,-511.33 209,-516.67 203.67,-522 198.33,-522 198.33,-522 181.67,-522 181.67,-522 176.33,-522 171,-516.67 171,-511.33 171,-511.33 171,-500.67 171,-500.67 171,-495.33 176.33,-490 181.67,-490"/>
<text text-anchor="start" x="176" y="-502.3" font-family="Helvetica,sans-Serif" font-size="14.00">Beq</text>
<path fill="none" stroke="black" d="M181.67,-490C181.67,-490 198.33,-490 198.33,-490 203.67,-490 209,-495.33 209,-500.67 209,-500.67 209,-511.33 209,-511.33 209,-516.67 203.67,-522 198.33,-522 198.33,-522 181.67,-522 181.67,-522 176.33,-522 171,-516.67 171,-511.33 171,-511.33 171,-500.67 171,-500.67 171,-495.33 176.33,-490 181.67,-490"/>
</a>
</g>
</g>
<!-- function&#45;1&#45;Beq -->
<g id="node21" class="node">
<title>function&#45;1&#45;Beq</title>
<g id="a_node21"><a xlink:title="Inst&#45;9: function&#45;1&#45;Beq">
<path fill="white" stroke="transparent" d="M123.67,-490C123.67,-490 140.33,-490 140.33,-490 145.67,-490 151,-495.33 151,-500.67 151,-500.67 151,-511.33 151,-511.33 151,-516.67 145.67,-522 140.33,-522 140.33,-522 123.67,-522 123.67,-522 118.33,-522 113,-516.67 113,-511.33 113,-511.33 113,-500.67 113,-500.67 113,-495.33 118.33,-490 123.67,-490"/>
<text text-anchor="start" x="118" y="-502.3" font-family="Helvetica,sans-Serif" font-size="14.00">Beq</text>
<path fill="none" stroke="black" d="M123.67,-490C123.67,-490 140.33,-490 140.33,-490 145.67,-490 151,-495.33 151,-500.67 151,-500.67 151,-511.33 151,-511.33 151,-516.67 145.67,-522 140.33,-522 140.33,-522 123.67,-522 123.67,-522 118.33,-522 113,-516.67 113,-511.33 113,-511.33 113,-500.67 113,-500.67 113,-495.33 118.33,-490 123.67,-490"/>
</a>
</g>
</g>
<!-- function&#45;0&#45;Seq2 -->
<g id="node22" class="node">
<title>function&#45;0&#45;Seq2</title>
<g id="a_node22"><a xlink:title="Inst&#45;9: function&#45;0&#45;Seq2">
<path fill="white" stroke="transparent" d="M61.67,-490C61.67,-490 86.33,-490 86.33,-490 91.67,-490 97,-495.33 97,-500.67 97,-500.67 97,-511.33 97,-511.33 97,-516.67 91.67,-522 86.33,-522 86.33,-522 61.67,-522 61.67,-522 56.33,-522 51,-516.67 51,-511.33 51,-511.33 51,-500.67 51,-500.67 51,-495.33 56.33,-490 61.67,-490"/>
<text text-anchor="start" x="56" y="-502.3" font-family="Helvetica,sans-Serif" font-size="14.00">Seq2</text>
<path fill="none" stroke="black" d="M61.67,-490C61.67,-490 86.33,-490 86.33,-490 91.67,-490 97,-495.33 97,-500.67 97,-500.67 97,-511.33 97,-511.33 97,-516.67 91.67,-522 86.33,-522 86.33,-522 61.67,-522 61.67,-522 56.33,-522 51,-516.67 51,-511.33 51,-511.33 51,-500.67 51,-500.67 51,-495.33 56.33,-490 61.67,-490"/>
</a>
</g>
</g>
<!-- function&#45;0&#45;Bne -->
<g id="node23" class="node">
<title>function&#45;0&#45;Bne</title>
<g id="a_node23"><a xlink:title="Inst&#45;10: function&#45;0&#45;Bne">
<path fill="white" stroke="transparent" d="M171.67,-411C171.67,-411 188.33,-411 188.33,-411 193.67,-411 199,-416.33 199,-421.67 199,-421.67 199,-432.33 199,-432.33 199,-437.67 193.67,-443 188.33,-443 188.33,-443 171.67,-443 171.67,-443 166.33,-443 161,-437.67 161,-432.33 161,-432.33 161,-421.67 161,-421.67 161,-416.33 166.33,-411 171.67,-411"/>
<text text-anchor="start" x="166" y="-423.3" font-family="Helvetica,sans-Serif" font-size="14.00">Bne</text>
<path fill="none" stroke="black" d="M171.67,-411C171.67,-411 188.33,-411 188.33,-411 193.67,-411 199,-416.33 199,-421.67 199,-421.67 199,-432.33 199,-432.33 199,-437.67 193.67,-443 188.33,-443 188.33,-443 171.67,-443 171.67,-443 166.33,-443 161,-437.67 161,-432.33 161,-432.33 161,-421.67 161,-421.67 161,-416.33 166.33,-411 171.67,-411"/>
</a>
</g>
</g>
<!-- primitive&#45;String&#45;0 -->
<g id="node24" class="node">
<title>primitive&#45;String&#45;0</title>
<g id="a_node24"><a xlink:title="String&#45;0: primitive&#45;String&#45;0">
<path fill="white" stroke="transparent" d="M125.17,-95C125.17,-95 160.83,-95 160.83,-95 166.17,-95 171.5,-100.33 171.5,-105.67 171.5,-105.67 171.5,-116.33 171.5,-116.33 171.5,-121.67 166.17,-127 160.83,-127 160.83,-127 125.17,-127 125.17,-127 119.83,-127 114.5,-121.67 114.5,-116.33 114.5,-116.33 114.5,-105.67 114.5,-105.67 114.5,-100.33 119.83,-95 125.17,-95"/>
<text text-anchor="start" x="120" y="-107.3" font-family="Helvetica,sans-Serif" font-size="14.00">&quot;a0_0&quot;</text>
<path fill="none" stroke="black" d="M125.17,-95C125.17,-95 160.83,-95 160.83,-95 166.17,-95 171.5,-100.33 171.5,-105.67 171.5,-105.67 171.5,-116.33 171.5,-116.33 171.5,-121.67 166.17,-127 160.83,-127 160.83,-127 125.17,-127 125.17,-127 119.83,-127 114.5,-121.67 114.5,-116.33 114.5,-116.33 114.5,-105.67 114.5,-105.67 114.5,-100.33 119.83,-95 125.17,-95"/>
</a>
</g>
</g>
<!-- primitive&#45;String&#45;1 -->
<g id="node25" class="node">
<title>primitive&#45;String&#45;1</title>
<g id="a_node25"><a xlink:title="String&#45;1: primitive&#45;String&#45;1">
<path fill="white" stroke="transparent" d="M430.17,-253C430.17,-253 465.83,-253 465.83,-253 471.17,-253 476.5,-258.33 476.5,-263.67 476.5,-263.67 476.5,-274.33 476.5,-274.33 476.5,-279.67 471.17,-285 465.83,-285 465.83,-285 430.17,-285 430.17,-285 424.83,-285 419.5,-279.67 419.5,-274.33 419.5,-274.33 419.5,-263.67 419.5,-263.67 419.5,-258.33 424.83,-253 430.17,-253"/>
<text text-anchor="start" x="425" y="-265.3" font-family="Helvetica,sans-Serif" font-size="14.00">&quot;a5_0&quot;</text>
<path fill="none" stroke="black" d="M430.17,-253C430.17,-253 465.83,-253 465.83,-253 471.17,-253 476.5,-258.33 476.5,-263.67 476.5,-263.67 476.5,-274.33 476.5,-274.33 476.5,-279.67 471.17,-285 465.83,-285 465.83,-285 430.17,-285 430.17,-285 424.83,-285 419.5,-279.67 419.5,-274.33 419.5,-274.33 419.5,-263.67 419.5,-263.67 419.5,-258.33 424.83,-253 430.17,-253"/>
</a>
</g>
</g>
<!-- primitive&#45;String&#45;2 -->
<g id="node26" class="node">
<title>primitive&#45;String&#45;2</title>
<g id="a_node26"><a xlink:title="String&#45;2: primitive&#45;String&#45;2">
<path fill="white" stroke="transparent" d="M271.17,-16C271.17,-16 306.83,-16 306.83,-16 312.17,-16 317.5,-21.33 317.5,-26.67 317.5,-26.67 317.5,-37.33 317.5,-37.33 317.5,-42.67 312.17,-48 306.83,-48 306.83,-48 271.17,-48 271.17,-48 265.83,-48 260.5,-42.67 260.5,-37.33 260.5,-37.33 260.5,-26.67 260.5,-26.67 260.5,-21.33 265.83,-16 271.17,-16"/>
<text text-anchor="start" x="266" y="-28.3" font-family="Helvetica,sans-Serif" font-size="14.00">&quot;a7_0&quot;</text>
<path fill="none" stroke="black" d="M271.17,-16C271.17,-16 306.83,-16 306.83,-16 312.17,-16 317.5,-21.33 317.5,-26.67 317.5,-26.67 317.5,-37.33 317.5,-37.33 317.5,-42.67 312.17,-48 306.83,-48 306.83,-48 271.17,-48 271.17,-48 265.83,-48 260.5,-42.67 260.5,-37.33 260.5,-37.33 260.5,-26.67 260.5,-26.67 260.5,-21.33 265.83,-16 271.17,-16"/>
</a>
</g>
</g>
<!-- function&#45;1&#45;Bne -->
<g id="node27" class="node">
<title>function&#45;1&#45;Bne</title>
<g id="a_node27"><a xlink:title="Inst&#45;10: function&#45;1&#45;Bne">
<path fill="white" stroke="transparent" d="M229.67,-411C229.67,-411 246.33,-411 246.33,-411 251.67,-411 257,-416.33 257,-421.67 257,-421.67 257,-432.33 257,-432.33 257,-437.67 251.67,-443 246.33,-443 246.33,-443 229.67,-443 229.67,-443 224.33,-443 219,-437.67 219,-432.33 219,-432.33 219,-421.67 219,-421.67 219,-416.33 224.33,-411 229.67,-411"/>
<text text-anchor="start" x="224" y="-423.3" font-family="Helvetica,sans-Serif" font-size="14.00">Bne</text>
<path fill="none" stroke="black" d="M229.67,-411C229.67,-411 246.33,-411 246.33,-411 251.67,-411 257,-416.33 257,-421.67 257,-421.67 257,-432.33 257,-432.33 257,-437.67 251.67,-443 246.33,-443 246.33,-443 229.67,-443 229.67,-443 224.33,-443 219,-437.67 219,-432.33 219,-432.33 219,-421.67 219,-421.67 219,-416.33 224.33,-411 229.67,-411"/>
</a>
</g>
</g>
</g>
</svg>
