<?xml version="1.0" encoding="UTF-8" standalone="no"?>
<!DOCTYPE svg PUBLIC "-//W3C//DTD SVG 1.1//EN"
 "http://www.w3.org/Graphics/SVG/1.1/DTD/svg11.dtd">
<!-- Generated by graphviz version 2.43.0 (0)
 -->
<!-- Title: %3 Pages: 1 -->
<svg width="538pt" height="546pt"
 viewBox="0.00 0.00 537.58 546.00" xmlns="http://www.w3.org/2000/svg" xmlns:xlink="http://www.w3.org/1999/xlink">
<g id="graph0" class="graph" transform="scale(1 1) rotate(0) translate(4 542)">
<title>%3</title>
<polygon fill="white" stroke="#000000" points="-4,4 -4,-542 533.58,-542 533.58,4 -4,4"/>
<g id="clust1" class="cluster">
<title>outer_cluster_Imm&#45;6</title>
</g>
<g id="clust2" class="cluster">
<title>cluster_Imm&#45;6</title>
<path fill="#ffffb3" stroke="black" stroke-dasharray="5,2" d="M298,-248C298,-248 342,-248 342,-248 348,-248 354,-254 354,-260 354,-260 354,-278 354,-278 354,-284 348,-290 342,-290 342,-290 298,-290 298,-290 292,-290 286,-284 286,-278 286,-278 286,-260 286,-260 286,-254 292,-248 298,-248"/>
</g>
<g id="clust4" class="cluster">
<title>outer_cluster_Imm&#45;8</title>
</g>
<g id="clust5" class="cluster">
<title>cluster_Imm&#45;8</title>
<path fill="#ffffb3" stroke="black" stroke-dasharray="5,2" d="M23,-327C23,-327 83,-327 83,-327 89,-327 95,-333 95,-339 95,-339 95,-357 95,-357 95,-363 89,-369 83,-369 83,-369 23,-369 23,-369 17,-369 11,-363 11,-357 11,-357 11,-339 11,-339 11,-333 17,-327 23,-327"/>
</g>
<g id="clust7" class="cluster">
<title>outer_cluster_Imm&#45;3</title>
</g>
<g id="clust8" class="cluster">
<title>cluster_Imm&#45;3</title>
<path fill="#ffffb3" stroke="black" stroke-dasharray="5,2" d="M164,-90C164,-90 208,-90 208,-90 214,-90 220,-96 220,-102 220,-102 220,-120 220,-120 220,-126 214,-132 208,-132 208,-132 164,-132 164,-132 158,-132 152,-126 152,-120 152,-120 152,-102 152,-102 152,-96 158,-90 164,-90"/>
</g>
<g id="clust10" class="cluster">
<title>outer_cluster_Inst&#45;14</title>
</g>
<g id="clust11" class="cluster">
<title>cluster_Inst&#45;14</title>
<path fill="#bebada" stroke="black" stroke-dasharray="5,2" d="M302,-327C302,-327 338,-327 338,-327 344,-327 350,-333 350,-339 350,-339 350,-357 350,-357 350,-363 344,-369 338,-369 338,-369 302,-369 302,-369 296,-369 290,-363 290,-357 290,-357 290,-339 290,-339 290,-333 296,-327 302,-327"/>
</g>
<g id="clust13" class="cluster">
<title>outer_cluster_Inst&#45;11</title>
</g>
<g id="clust14" class="cluster">
<title>cluster_Inst&#45;11</title>
<path fill="#bebada" stroke="black" stroke-dasharray="5,2" d="M74,-406C74,-406 110,-406 110,-406 116,-406 122,-412 122,-418 122,-418 122,-436 122,-436 122,-442 116,-448 110,-448 110,-448 74,-448 74,-448 68,-448 62,-442 62,-436 62,-436 62,-418 62,-418 62,-412 68,-406 74,-406"/>
</g>
<g id="clust16" class="cluster">
<title>outer_cluster_Inst&#45;9</title>
</g>
<g id="clust17" class="cluster">
<title>cluster_Inst&#45;9</title>
<path fill="#bebada" stroke="black" stroke-dasharray="5,2" d="M56,-485C56,-485 208,-485 208,-485 214,-485 220,-491 220,-497 220,-497 220,-515 220,-515 220,-521 214,-527 208,-527 208,-527 56,-527 56,-527 50,-527 44,-521 44,-515 44,-515 44,-497 44,-497 44,-491 50,-485 56,-485"/>
</g>
<g id="clust19" class="cluster">
<title>outer_cluster_Inst&#45;13</title>
</g>
<g id="clust20" class="cluster">
<title>cluster_Inst&#45;13</title>
<path fill="#bebada" stroke="black" stroke-dasharray="5,2" d="M344,-406C344,-406 496,-406 496,-406 502,-406 508,-412 508,-418 508,-418 508,-436 508,-436 508,-442 502,-448 496,-448 496,-448 344,-448 344,-448 338,-448 332,-442 332,-436 332,-436 332,-418 332,-418 332,-412 338,-406 344,-406"/>
</g>
<g id="clust22" class="cluster">
<title>outer_cluster_Inst&#45;5</title>
</g>
<g id="clust23" class="cluster">
<title>cluster_Inst&#45;5</title>
<path fill="#bebada" stroke="black" stroke-dasharray="5,2" d="M174,-248C174,-248 268,-248 268,-248 274,-248 280,-254 280,-260 280,-260 280,-278 280,-278 280,-284 274,-290 268,-290 268,-290 174,-290 174,-290 168,-290 162,-284 162,-278 162,-278 162,-260 162,-260 162,-254 168,-248 174,-248"/>
</g>
<g id="clust25" class="cluster">
<title>outer_cluster_Inst&#45;4</title>
</g>
<g id="clust26" class="cluster">
<title>cluster_Inst&#45;4</title>
<path fill="#bebada" stroke="black" stroke-dasharray="5,2" d="M160,-169C160,-169 196,-169 196,-169 202,-169 208,-175 208,-181 208,-181 208,-199 208,-199 208,-205 202,-211 196,-211 196,-211 160,-211 160,-211 154,-211 148,-205 148,-199 148,-199 148,-181 148,-181 148,-175 154,-169 160,-169"/>
</g>
<g id="clust28" class="cluster">
<title>outer_cluster_Inst&#45;0</title>
</g>
<g id="clust29" class="cluster">
<title>cluster_Inst&#45;0</title>
<path fill="#bebada" stroke="black" stroke-dasharray="5,2" d="M226,-169C226,-169 266,-169 266,-169 272,-169 278,-175 278,-181 278,-181 278,-199 278,-199 278,-205 272,-211 266,-211 266,-211 226,-211 226,-211 220,-211 214,-205 214,-199 214,-199 214,-181 214,-181 214,-175 220,-169 226,-169"/>
</g>
<g id="clust31" class="cluster">
<title>outer_cluster_Inst&#45;2</title>
</g>
<g id="clust32" class="cluster">
<title>cluster_Inst&#45;2</title>
<path fill="#bebada" stroke="black" stroke-dasharray="5,2" d="M94,-90C94,-90 134,-90 134,-90 140,-90 146,-96 146,-102 146,-102 146,-120 146,-120 146,-126 140,-132 134,-132 134,-132 94,-132 94,-132 88,-132 82,-126 82,-120 82,-120 82,-102 82,-102 82,-96 88,-90 94,-90"/>
</g>
<g id="clust34" class="cluster">
<title>outer_cluster_Inst&#45;7</title>
</g>
<g id="clust35" class="cluster">
<title>cluster_Inst&#45;7</title>
<path fill="#bebada" stroke="black" stroke-dasharray="5,2" d="M182,-327C182,-327 218,-327 218,-327 224,-327 230,-333 230,-339 230,-339 230,-357 230,-357 230,-363 224,-369 218,-369 218,-369 182,-369 182,-369 176,-369 170,-363 170,-357 170,-357 170,-339 170,-339 170,-333 176,-327 182,-327"/>
</g>
<g id="clust37" class="cluster">
<title>outer_cluster_Inst&#45;1</title>
</g>
<g id="clust38" class="cluster">
<title>cluster_Inst&#45;1</title>
<path fill="#bebada" stroke="black" stroke-dasharray="5,2" d="M402,-327C402,-327 442,-327 442,-327 448,-327 454,-333 454,-339 454,-339 454,-357 454,-357 454,-363 448,-369 442,-369 442,-369 402,-369 402,-369 396,-369 390,-363 390,-357 390,-357 390,-339 390,-339 390,-333 396,-327 402,-327"/>
</g>
<g id="clust40" class="cluster">
<title>outer_cluster_Inst&#45;10</title>
</g>
<g id="clust41" class="cluster">
<title>cluster_Inst&#45;10</title>
<path fill="#bebada" stroke="black" stroke-dasharray="5,2" d="M162,-406C162,-406 314,-406 314,-406 320,-406 326,-412 326,-418 326,-418 326,-436 326,-436 326,-442 320,-448 314,-448 314,-448 162,-448 162,-448 156,-448 150,-442 150,-436 150,-436 150,-418 150,-418 150,-412 156,-406 162,-406"/>
</g>
<g id="clust43" class="cluster">
<title>outer_cluster_String&#45;0</title>
</g>
<g id="clust44" class="cluster">
<title>cluster_String&#45;0</title>
<path fill="#fb8072" stroke="black" stroke-dasharray="5,2" d="M238,-90C238,-90 278,-90 278,-90 284,-90 290,-96 290,-102 290,-102 290,-120 290,-120 290,-126 284,-132 278,-132 278,-132 238,-132 238,-132 232,-132 226,-126 226,-120 226,-120 226,-102 226,-102 226,-96 232,-90 238,-90"/>
</g>
<g id="clust46" class="cluster">
<title>outer_cluster_String&#45;3</title>
</g>
<g id="clust47" class="cluster">
<title>cluster_String&#45;3</title>
<path fill="#fb8072" stroke="black" stroke-dasharray="5,2" d="M36,-248C36,-248 72,-248 72,-248 78,-248 84,-254 84,-260 84,-260 84,-278 84,-278 84,-284 78,-290 72,-290 72,-290 36,-290 36,-290 30,-290 24,-284 24,-278 24,-278 24,-260 24,-260 24,-254 30,-248 36,-248"/>
</g>
<g id="clust49" class="cluster">
<title>outer_cluster_String&#45;1</title>
</g>
<g id="clust50" class="cluster">
<title>cluster_String&#45;1</title>
<path fill="#fb8072" stroke="black" stroke-dasharray="5,2" d="M403,-248C403,-248 443,-248 443,-248 449,-248 455,-254 455,-260 455,-260 455,-278 455,-278 455,-284 449,-290 443,-290 443,-290 403,-290 403,-290 397,-290 391,-284 391,-278 391,-278 391,-260 391,-260 391,-254 397,-248 403,-248"/>
</g>
<g id="clust52" class="cluster">
<title>outer_cluster_String&#45;2</title>
</g>
<g id="clust53" class="cluster">
<title>cluster_String&#45;2</title>
<path fill="#fb8072" stroke="black" stroke-dasharray="5,2" d="M95,-11C95,-11 135,-11 135,-11 141,-11 147,-17 147,-23 147,-23 147,-41 147,-41 147,-47 141,-53 135,-53 135,-53 95,-53 95,-53 89,-53 83,-47 83,-41 83,-41 83,-23 83,-23 83,-17 89,-11 95,-11"/>
</g>
<g id="clust55" class="cluster">
<title>outer_cluster_i64&#45;4</title>
</g>
<g id="clust56" class="cluster">
<title>cluster_i64&#45;4</title>
<path fill="#80b1d3" stroke="black" stroke-dasharray="5,2" d="M302,-169C302,-169 338,-169 338,-169 344,-169 350,-175 350,-181 350,-181 350,-199 350,-199 350,-205 344,-211 338,-211 338,-211 302,-211 302,-211 296,-211 290,-205 290,-199 290,-199 290,-181 290,-181 290,-175 296,-169 302,-169"/>
</g>
<g id="clust58" class="cluster">
<title>outer_cluster_i64&#45;3</title>
</g>
<g id="clust59" class="cluster">
<title>cluster_i64&#45;3</title>
<path fill="#80b1d3" stroke="black" stroke-dasharray="5,2" d="M168,-11C168,-11 204,-11 204,-11 210,-11 216,-17 216,-23 216,-23 216,-41 216,-41 216,-47 210,-53 204,-53 204,-53 168,-53 168,-53 162,-53 156,-47 156,-41 156,-41 156,-23 156,-23 156,-17 162,-11 168,-11"/>
</g>
<!-- function&#45;1&#45;ImmVal&#45;&gt;primitive&#45;i64&#45;4 -->
<g id="edge1" class="edge">
<title>function&#45;1&#45;ImmVal:s&#45;&gt;primitive&#45;i64&#45;4</title>
<path fill="none" stroke="black" d="M320,-253C320,-239.84 320,-225.11 320,-213.3"/>
<polygon fill="black" stroke="black" points="321.75,-216 320,-211 318.25,-216 321.75,-216"/>
</g>
<!-- function&#45;0&#45;ImmLabel&#45;&gt;primitive&#45;String&#45;3 -->
<g id="edge2" class="edge">
<title>function&#45;0&#45;ImmLabel:s&#45;&gt;primitive&#45;String&#45;3</title>
<path fill="none" stroke="black" d="M54,-332C54,-318.84 54,-304.11 54,-292.3"/>
<polygon fill="black" stroke="black" points="55.75,-295 54,-290 52.25,-295 55.75,-295"/>
</g>
<!-- function&#45;0&#45;ImmVal&#45;&gt;primitive&#45;i64&#45;3 -->
<g id="edge3" class="edge">
<title>function&#45;0&#45;ImmVal:s&#45;&gt;primitive&#45;i64&#45;3</title>
<path fill="none" stroke="black" d="M186,-95C186,-81.84 186,-67.11 186,-55.3"/>
<polygon fill="black" stroke="black" points="187.75,-58 186,-53 184.25,-58 187.75,-58"/>
</g>
<!-- function&#45;1&#45;Jal&#45;&gt;function&#45;1&#45;ImmVal -->
<g id="edge4" class="edge">
<title>function&#45;1&#45;Jal:s&#45;&gt;function&#45;1&#45;ImmVal</title>
<path fill="none" stroke="black" d="M320,-332C320,-318.84 320,-304.11 320,-292.3"/>
<polygon fill="black" stroke="black" points="321.75,-295 320,-290 318.25,-295 321.75,-295"/>
</g>
<!-- function&#45;0&#45;Jal&#45;&gt;function&#45;0&#45;ImmLabel -->
<g id="edge5" class="edge">
<title>function&#45;0&#45;Jal:s&#45;&gt;function&#45;0&#45;ImmLabel</title>
<path fill="none" stroke="black" d="M92,-411C92,-395.82 83.52,-381.32 74.48,-370.17"/>
<polygon fill="black" stroke="black" points="78.05,-370.95 73.13,-369 75.76,-373.6 78.05,-370.95"/>
</g>
<!-- function&#45;0&#45;Beq&#45;&gt;function&#45;0&#45;ImmLabel -->
<g id="edge8" class="edge">
<title>function&#45;0&#45;Beq:s&#45;&gt;function&#45;0&#45;ImmLabel</title>
<path fill="none" stroke="black" d="M204,-490C204,-424.12 103,-501.75 61,-451 51.28,-439.26 51,-397.45 51.87,-371.14"/>
<polygon fill="black" stroke="black" points="53.36,-374.13 52.05,-369 49.87,-373.83 53.36,-374.13"/>
</g>
<!-- function&#45;0&#45;Beq&#45;&gt;function&#45;0&#45;Lw -->
<g id="edge6" class="edge">
<title>function&#45;0&#45;Beq:s&#45;&gt;function&#45;0&#45;Lw</title>
<path fill="none" stroke="black" d="M181,-490C181,-467.58 156.55,-472.11 149,-451 141.81,-430.91 141.12,-422.82 149,-403 154.09,-390.2 163.81,-378.68 173.41,-369.6"/>
<polygon fill="black" stroke="black" points="171.25,-373.39 174.22,-369 169.16,-370.58 171.25,-373.39"/>
</g>
<!-- function&#45;0&#45;Beq&#45;&gt;function&#45;1&#45;RegVal -->
<g id="edge7" class="edge">
<title>function&#45;0&#45;Beq:s&#45;&gt;function&#45;1&#45;RegVal</title>
<path fill="none" stroke="black" d="M195,-490C195,-417.26 471.73,-505.41 520,-451 534.16,-435.04 530.85,-421.37 520,-403 506.22,-379.68 478.37,-365.74 455.87,-357.88"/>
<polygon fill="black" stroke="black" points="459.3,-357.26 454,-357.2 458.1,-360.55 459.3,-357.26"/>
</g>
<!-- function&#45;0&#45;Lw&#45;&gt;function&#45;1&#45;ImmVal -->
<g id="edge31" class="edge">
<title>function&#45;0&#45;Lw:s&#45;&gt;function&#45;1&#45;ImmVal</title>
<path fill="none" stroke="black" d="M208,-332C208,-295.22 248.93,-311.01 281,-293 281.22,-292.88 281.43,-292.76 281.65,-292.63"/>
<polygon fill="black" stroke="black" points="282.81,-293.99 286.29,-290 281.08,-290.94 282.81,-293.99"/>
</g>
<!-- function&#45;0&#45;Lw&#45;&gt;function&#45;1&#45;Add -->
<g id="edge30" class="edge">
<title>function&#45;0&#45;Lw:s&#45;&gt;function&#45;1&#45;Add</title>
<path fill="none" stroke="black" d="M192,-332C192,-318.84 192,-304.11 192,-292.3"/>
<polygon fill="black" stroke="black" points="193.75,-295 192,-290 190.25,-295 193.75,-295"/>
</g>
<!-- function&#45;1&#45;RegVal&#45;&gt;primitive&#45;String&#45;1 -->
<g id="edge32" class="edge">
<title>function&#45;1&#45;RegVal:s&#45;&gt;primitive&#45;String&#45;1</title>
<path fill="none" stroke="black" d="M423,-332C423,-318.84 423,-304.11 423,-292.3"/>
<polygon fill="black" stroke="black" points="424.75,-295 423,-290 421.25,-295 424.75,-295"/>
</g>
<!-- function&#45;1&#45;Beq&#45;&gt;function&#45;0&#45;ImmLabel -->
<g id="edge11" class="edge">
<title>function&#45;1&#45;Beq:s&#45;&gt;function&#45;0&#45;ImmLabel</title>
<path fill="none" stroke="black" d="M146,-490C146,-443.95 75.72,-489.2 50,-451 34.09,-427.36 39.35,-393.17 45.47,-371.01"/>
<polygon fill="black" stroke="black" points="45.45,-374.11 46.86,-369 42.57,-372.11 45.45,-374.11"/>
</g>
<!-- function&#45;1&#45;Beq&#45;&gt;function&#45;0&#45;Lw -->
<g id="edge10" class="edge">
<title>function&#45;1&#45;Beq:s&#45;&gt;function&#45;0&#45;Lw</title>
<path fill="none" stroke="black" d="M137,-490C137,-451.27 125.53,-438.05 142,-403 148.2,-389.8 159.21,-378.28 169.98,-369.3"/>
<polygon fill="black" stroke="black" points="166.69,-372.18 170.93,-369 165.63,-368.85 166.69,-372.18"/>
</g>
<!-- function&#45;1&#45;Beq&#45;&gt;function&#45;1&#45;RegVal -->
<g id="edge9" class="edge">
<title>function&#45;1&#45;Beq:s&#45;&gt;function&#45;1&#45;RegVal</title>
<path fill="none" stroke="black" d="M123,-490C123,-403.79 450.82,-514.62 509,-451 523.4,-435.26 519.37,-421.64 509,-403 497.61,-382.52 474.88,-368.81 455.51,-360.33"/>
<polygon fill="black" stroke="black" points="459.11,-360.7 454,-359.29 457.12,-363.58 459.11,-360.7"/>
</g>
<!-- function&#45;0&#45;Seq2&#45;&gt;function&#45;0&#45;Jal -->
<g id="edge13" class="edge">
<title>function&#45;0&#45;Seq2:s&#45;&gt;function&#45;0&#45;Jal</title>
<path fill="none" stroke="black" d="M85,-490C85,-476.76 86.6,-462.02 88.27,-450.24"/>
<polygon fill="black" stroke="black" points="89.07,-453.3 89.03,-448 85.76,-452.16 89.07,-453.3"/>
</g>
<!-- function&#45;0&#45;Seq2&#45;&gt;function&#45;0&#45;Bne -->
<g id="edge12" class="edge">
<title>function&#45;0&#45;Seq2:s&#45;&gt;function&#45;0&#45;Bne</title>
<path fill="none" stroke="black" d="M63,-490C63,-480.36 113.24,-456.73 147.87,-441.59"/>
<polygon fill="black" stroke="black" points="146.46,-444.36 150,-440.42 144.78,-441.3 146.46,-444.36"/>
</g>
<!-- function&#45;0&#45;Bne&#45;&gt;function&#45;1&#45;ImmVal -->
<g id="edge35" class="edge">
<title>function&#45;0&#45;Bne:s&#45;&gt;function&#45;1&#45;ImmVal</title>
<path fill="none" stroke="black" d="M194,-411C194,-387.11 216.81,-391.22 231,-372 245.53,-352.31 242.55,-342.98 258,-324 268.03,-311.68 281.07,-299.86 292.59,-290.44"/>
<polygon fill="black" stroke="black" points="289.69,-293.39 293.76,-290 288.46,-290.12 289.69,-293.39"/>
</g>
<!-- function&#45;0&#45;Bne&#45;&gt;function&#45;0&#45;Lw -->
<g id="edge33" class="edge">
<title>function&#45;0&#45;Bne:s&#45;&gt;function&#45;0&#45;Lw</title>
<path fill="none" stroke="black" d="M171,-411C171,-396.63 177.47,-382 184.3,-370.56"/>
<polygon fill="black" stroke="black" points="183.49,-373.65 186.03,-369 181.15,-371.06 183.49,-373.65"/>
</g>
<!-- function&#45;0&#45;Bne&#45;&gt;function&#45;1&#45;RegVal -->
<g id="edge34" class="edge">
<title>function&#45;0&#45;Bne:s&#45;&gt;function&#45;1&#45;RegVal</title>
<path fill="none" stroke="black" d="M185,-411C185,-398.91 199.31,-406.09 211,-403 272.62,-386.73 289.51,-388.73 351,-372 363.25,-368.67 376.53,-364.52 388.25,-360.66"/>
<polygon fill="black" stroke="black" points="385.89,-363.37 390,-360.03 384.7,-360.08 385.89,-363.37"/>
</g>
<!-- function&#45;2&#45;Beq&#45;&gt;function&#45;1&#45;ImmVal -->
<g id="edge16" class="edge">
<title>function&#45;2&#45;Beq:s&#45;&gt;function&#45;1&#45;ImmVal</title>
<path fill="none" stroke="black" d="M492,-411C492,-362.05 424.77,-405.42 389,-372 371.85,-355.98 379.72,-343.72 367,-324 359.5,-312.38 349.65,-300.67 340.9,-291.13"/>
<polygon fill="black" stroke="black" points="344.48,-291.75 339.48,-290 342.3,-294.48 344.48,-291.75"/>
</g>
<!-- function&#45;2&#45;Beq&#45;&gt;function&#45;0&#45;Lw -->
<g id="edge14" class="edge">
<title>function&#45;2&#45;Beq:s&#45;&gt;function&#45;0&#45;Lw</title>
<path fill="none" stroke="black" d="M469,-411C469,-400.6 457.02,-405.79 447,-403 378.06,-383.83 358.78,-387.85 289,-372 270.1,-367.71 249.11,-362.31 232.25,-357.83"/>
<polygon fill="black" stroke="black" points="235.18,-357.55 230,-356.47 233.38,-360.55 235.18,-357.55"/>
</g>
<!-- function&#45;2&#45;Beq&#45;&gt;function&#45;1&#45;RegVal -->
<g id="edge15" class="edge">
<title>function&#45;2&#45;Beq:s&#45;&gt;function&#45;1&#45;RegVal</title>
<path fill="none" stroke="black" d="M483,-411C483,-392.8 469.48,-377.99 455.17,-367.42"/>
<polygon fill="black" stroke="black" points="458.79,-368.53 454,-366.28 456.34,-371.03 458.79,-368.53"/>
</g>
<!-- function&#45;3&#45;Beq&#45;&gt;function&#45;1&#45;ImmVal -->
<g id="edge19" class="edge">
<title>function&#45;3&#45;Beq:s&#45;&gt;function&#45;1&#45;ImmVal</title>
<path fill="none" stroke="black" d="M434,-411C434,-379.57 395.85,-395.52 375,-372 359.18,-354.15 362.28,-345.02 351,-324 345.24,-313.26 338.54,-301.51 332.85,-291.72"/>
<polygon fill="black" stroke="black" points="335.95,-292.56 331.31,-290 333.34,-294.89 335.95,-292.56"/>
</g>
<!-- function&#45;3&#45;Beq&#45;&gt;function&#45;0&#45;Lw -->
<g id="edge18" class="edge">
<title>function&#45;3&#45;Beq:s&#45;&gt;function&#45;0&#45;Lw</title>
<path fill="none" stroke="black" d="M425,-411C425,-408.53 294.43,-373.84 232.22,-357.46"/>
<polygon fill="black" stroke="black" points="235.19,-357.2 230,-356.12 233.38,-360.2 235.19,-357.2"/>
</g>
<!-- function&#45;3&#45;Beq&#45;&gt;function&#45;1&#45;RegVal -->
<g id="edge17" class="edge">
<title>function&#45;3&#45;Beq:s&#45;&gt;function&#45;1&#45;RegVal</title>
<path fill="none" stroke="black" d="M411,-411C411,-397.73 413.47,-383.1 416.08,-371.39"/>
<polygon fill="black" stroke="black" points="416.6,-374.25 417.27,-369 413.47,-372.69 416.6,-374.25"/>
</g>
<!-- function&#45;2&#45;Seq2&#45;&gt;function&#45;1&#45;Jal -->
<g id="edge21" class="edge">
<title>function&#45;2&#45;Seq2:s&#45;&gt;function&#45;1&#45;Jal</title>
<path fill="none" stroke="black" d="M373,-411C373,-394.59 362.14,-380.33 350.25,-369.64"/>
<polygon fill="black" stroke="black" points="354.38,-370.08 349.19,-369 352.57,-373.08 354.38,-370.08"/>
</g>
<!-- function&#45;2&#45;Seq2&#45;&gt;function&#45;1&#45;Seq2 -->
<g id="edge20" class="edge">
<title>function&#45;2&#45;Seq2:s&#45;&gt;function&#45;1&#45;Seq2</title>
<path fill="none" stroke="black" d="M351,-411C351,-399.59 339.78,-401.91 327.57,-407.8"/>
<polygon fill="black" stroke="black" points="328.71,-404.57 326,-409.12 330.96,-407.26 328.71,-404.57"/>
</g>
<!-- function&#45;1&#45;Seq2&#45;&gt;function&#45;1&#45;Jal -->
<g id="edge40" class="edge">
<title>function&#45;1&#45;Seq2:s&#45;&gt;function&#45;1&#45;Jal</title>
<path fill="none" stroke="black" d="M307,-411C307,-397.53 309.98,-382.75 313.08,-371.01"/>
<polygon fill="black" stroke="black" points="313.11,-374.13 314.41,-369 310.19,-372.2 313.11,-374.13"/>
</g>
<!-- function&#45;1&#45;Seq2&#45;&gt;function&#45;2&#45;Beq -->
<g id="edge39" class="edge">
<title>function&#45;1&#45;Seq2:s&#45;&gt;function&#45;2&#45;Beq</title>
<path fill="none" stroke="black" d="M285,-411C285,-336.07 407.84,-362.55 445,-381.5 454.53,-386.36 461.96,-395.41 467.33,-404.17"/>
<polygon fill="black" stroke="black" points="464.37,-403.62 469.1,-406 466.88,-401.19 464.37,-403.62"/>
</g>
<!-- function&#45;0&#45;Add&#45;&gt;function&#45;0&#45;RegVal -->
<g id="edge22" class="edge">
<title>function&#45;0&#45;Add:s&#45;&gt;function&#45;0&#45;RegVal</title>
<path fill="none" stroke="black" d="M241,-253C241,-239.8 242.14,-225.06 243.33,-213.27"/>
<polygon fill="black" stroke="black" points="244.41,-216.27 243.88,-211 241.01,-215.45 244.41,-216.27"/>
</g>
<!-- function&#45;0&#45;Add&#45;&gt;function&#45;0&#45;Slli -->
<g id="edge23" class="edge">
<title>function&#45;0&#45;Add:s&#45;&gt;function&#45;0&#45;Slli</title>
<path fill="none" stroke="black" d="M259,-253C259,-249.6 229.9,-228 206.58,-211.24"/>
<polygon fill="black" stroke="black" points="210.54,-210.21 205.3,-211 209.89,-213.65 210.54,-210.21"/>
</g>
<!-- function&#45;0&#45;RegVal&#45;&gt;primitive&#45;String&#45;0 -->
<g id="edge28" class="edge">
<title>function&#45;0&#45;RegVal:s&#45;&gt;primitive&#45;String&#45;0</title>
<path fill="none" stroke="black" d="M247,-174C247,-160.73 249.47,-146.1 252.08,-134.39"/>
<polygon fill="black" stroke="black" points="252.6,-137.25 253.27,-132 249.47,-135.69 252.6,-137.25"/>
</g>
<!-- function&#45;0&#45;Slli&#45;&gt;function&#45;0&#45;ImmVal -->
<g id="edge27" class="edge">
<title>function&#45;0&#45;Slli:s&#45;&gt;function&#45;0&#45;ImmVal</title>
<path fill="none" stroke="black" d="M186,-174C186,-160.84 186,-146.11 186,-134.3"/>
<polygon fill="black" stroke="black" points="187.75,-137 186,-132 184.25,-137 187.75,-137"/>
</g>
<!-- function&#45;0&#45;Slli&#45;&gt;function&#45;2&#45;RegVal -->
<g id="edge26" class="edge">
<title>function&#45;0&#45;Slli:s&#45;&gt;function&#45;2&#45;RegVal</title>
<path fill="none" stroke="black" d="M170,-174C170,-157.17 158.5,-142.87 145.93,-132.25"/>
<polygon fill="black" stroke="black" points="150.28,-131.62 145,-132 149.37,-135 150.28,-131.62"/>
</g>
<!-- function&#45;1&#45;Add&#45;&gt;function&#45;0&#45;RegVal -->
<g id="edge25" class="edge">
<title>function&#45;1&#45;Add:s&#45;&gt;function&#45;0&#45;RegVal</title>
<path fill="none" stroke="black" d="M201,-253C201,-237.23 210.66,-222.76 221.02,-211.78"/>
<polygon fill="black" stroke="black" points="218.89,-214.83 222.55,-211 217.3,-211.71 218.89,-214.83"/>
</g>
<!-- function&#45;1&#45;Add&#45;&gt;function&#45;0&#45;Slli -->
<g id="edge24" class="edge">
<title>function&#45;1&#45;Add:s&#45;&gt;function&#45;0&#45;Slli</title>
<path fill="none" stroke="black" d="M183,-253C183,-239.8 181.86,-225.06 180.67,-213.27"/>
<polygon fill="black" stroke="black" points="182.99,-215.45 180.12,-211 179.59,-216.27 182.99,-215.45"/>
</g>
<!-- function&#45;2&#45;RegVal&#45;&gt;primitive&#45;String&#45;2 -->
<g id="edge29" class="edge">
<title>function&#45;2&#45;RegVal:s&#45;&gt;primitive&#45;String&#45;2</title>
<path fill="none" stroke="black" d="M115,-95C115,-81.84 115,-67.11 115,-55.3"/>
<polygon fill="black" stroke="black" points="116.75,-58 115,-53 113.25,-58 116.75,-58"/>
</g>
<!-- function&#45;1&#45;Bne&#45;&gt;function&#45;1&#45;ImmVal -->
<g id="edge38" class="edge">
<title>function&#45;1&#45;Bne:s&#45;&gt;function&#45;1&#45;ImmVal</title>
<path fill="none" stroke="black" d="M252,-411C252,-364.82 281.95,-317.83 302.1,-291.45"/>
<polygon fill="black" stroke="black" points="301.52,-295.01 303.25,-290 298.77,-292.84 301.52,-295.01"/>
</g>
<!-- function&#45;1&#45;Bne&#45;&gt;function&#45;0&#45;Lw -->
<g id="edge37" class="edge">
<title>function&#45;1&#45;Bne:s&#45;&gt;function&#45;0&#45;Lw</title>
<path fill="none" stroke="black" d="M243,-411C243,-395.48 233.79,-381.05 223.9,-370.02"/>
<polygon fill="black" stroke="black" points="227.42,-370.14 222.24,-369 225.58,-373.11 227.42,-370.14"/>
</g>
<!-- function&#45;1&#45;Bne&#45;&gt;function&#45;1&#45;RegVal -->
<g id="edge36" class="edge">
<title>function&#45;1&#45;Bne:s&#45;&gt;function&#45;1&#45;RegVal</title>
<path fill="none" stroke="black" d="M229,-411C229,-354.07 296.81,-389.44 351,-372 363.2,-368.08 376.56,-363.75 388.38,-359.92"/>
<polygon fill="black" stroke="black" points="385.93,-362.71 390,-359.31 384.7,-359.43 385.93,-362.71"/>
</g>
<!-- function&#45;1&#45;ImmVal -->
<g id="node1" class="node">
<title>function&#45;1&#45;ImmVal</title>
<g id="a_node1"><a xlink:title="Imm&#45;6: function&#45;1&#45;ImmVal">
<path fill="white" stroke="transparent" d="M299.67,-253C299.67,-253 340.33,-253 340.33,-253 345.67,-253 351,-258.33 351,-263.67 351,-263.67 351,-274.33 351,-274.33 351,-279.67 345.67,-285 340.33,-285 340.33,-285 299.67,-285 299.67,-285 294.33,-285 289,-279.67 289,-274.33 289,-274.33 289,-263.67 289,-263.67 289,-258.33 294.33,-253 299.67,-253"/>
<text text-anchor="start" x="294" y="-265.3" font-family="Helvetica,sans-Serif" font-size="14.00">ImmVal</text>
<path fill="none" stroke="black" d="M299.67,-253C299.67,-253 340.33,-253 340.33,-253 345.67,-253 351,-258.33 351,-263.67 351,-263.67 351,-274.33 351,-274.33 351,-279.67 345.67,-285 340.33,-285 340.33,-285 299.67,-285 299.67,-285 294.33,-285 289,-279.67 289,-274.33 289,-274.33 289,-263.67 289,-263.67 289,-258.33 294.33,-253 299.67,-253"/>
</a>
</g>
</g>
<!-- primitive&#45;i64&#45;4 -->
<g id="node2" class="node">
<title>primitive&#45;i64&#45;4</title>
<g id="a_node2"><a xlink:title="i64&#45;4: primitive&#45;i64&#45;4">
<path fill="white" stroke="transparent" d="M314.67,-174C314.67,-174 325.33,-174 325.33,-174 330.67,-174 336,-179.33 336,-184.67 336,-184.67 336,-195.33 336,-195.33 336,-200.67 330.67,-206 325.33,-206 325.33,-206 314.67,-206 314.67,-206 309.33,-206 304,-200.67 304,-195.33 304,-195.33 304,-184.67 304,-184.67 304,-179.33 309.33,-174 314.67,-174"/>
<text text-anchor="start" x="315" y="-186.3" font-family="Helvetica,sans-Serif" font-size="14.00">4</text>
<path fill="none" stroke="black" d="M314.67,-174C314.67,-174 325.33,-174 325.33,-174 330.67,-174 336,-179.33 336,-184.67 336,-184.67 336,-195.33 336,-195.33 336,-200.67 330.67,-206 325.33,-206 325.33,-206 314.67,-206 314.67,-206 309.33,-206 304,-200.67 304,-195.33 304,-195.33 304,-184.67 304,-184.67 304,-179.33 309.33,-174 314.67,-174"/>
</a>
</g>
</g>
<!-- function&#45;0&#45;ImmLabel -->
<g id="node3" class="node">
<title>function&#45;0&#45;ImmLabel</title>
<g id="a_node3"><a xlink:title="Imm&#45;8: function&#45;0&#45;ImmLabel">
<path fill="white" stroke="transparent" d="M24.17,-332C24.17,-332 81.83,-332 81.83,-332 87.17,-332 92.5,-337.33 92.5,-342.67 92.5,-342.67 92.5,-353.33 92.5,-353.33 92.5,-358.67 87.17,-364 81.83,-364 81.83,-364 24.17,-364 24.17,-364 18.83,-364 13.5,-358.67 13.5,-353.33 13.5,-353.33 13.5,-342.67 13.5,-342.67 13.5,-337.33 18.83,-332 24.17,-332"/>
<text text-anchor="start" x="19" y="-344.3" font-family="Helvetica,sans-Serif" font-size="14.00">ImmLabel</text>
<path fill="none" stroke="black" d="M24.17,-332C24.17,-332 81.83,-332 81.83,-332 87.17,-332 92.5,-337.33 92.5,-342.67 92.5,-342.67 92.5,-353.33 92.5,-353.33 92.5,-358.67 87.17,-364 81.83,-364 81.83,-364 24.17,-364 24.17,-364 18.83,-364 13.5,-358.67 13.5,-353.33 13.5,-353.33 13.5,-342.67 13.5,-342.67 13.5,-337.33 18.83,-332 24.17,-332"/>
</a>
</g>
</g>
<!-- primitive&#45;String&#45;3 -->
<g id="node4" class="node">
<title>primitive&#45;String&#45;3</title>
<g id="a_node4"><a xlink:title="String&#45;3: primitive&#45;String&#45;3">
<path fill="white" stroke="transparent" d="M42.17,-253C42.17,-253 65.83,-253 65.83,-253 71.17,-253 76.5,-258.33 76.5,-263.67 76.5,-263.67 76.5,-274.33 76.5,-274.33 76.5,-279.67 71.17,-285 65.83,-285 65.83,-285 42.17,-285 42.17,-285 36.83,-285 31.5,-279.67 31.5,-274.33 31.5,-274.33 31.5,-263.67 31.5,-263.67 31.5,-258.33 36.83,-253 42.17,-253"/>
<text text-anchor="start" x="37" y="-265.3" font-family="Helvetica,sans-Serif" font-size="14.00">&quot;.L5&quot;</text>
<path fill="none" stroke="black" d="M42.17,-253C42.17,-253 65.83,-253 65.83,-253 71.17,-253 76.5,-258.33 76.5,-263.67 76.5,-263.67 76.5,-274.33 76.5,-274.33 76.5,-279.67 71.17,-285 65.83,-285 65.83,-285 42.17,-285 42.17,-285 36.83,-285 31.5,-279.67 31.5,-274.33 31.5,-274.33 31.5,-263.67 31.5,-263.67 31.5,-258.33 36.83,-253 42.17,-253"/>
</a>
</g>
</g>
<!-- function&#45;0&#45;ImmVal -->
<g id="node5" class="node">
<title>function&#45;0&#45;ImmVal</title>
<g id="a_node5"><a xlink:title="Imm&#45;3: function&#45;0&#45;ImmVal">
<path fill="white" stroke="transparent" d="M165.67,-95C165.67,-95 206.33,-95 206.33,-95 211.67,-95 217,-100.33 217,-105.67 217,-105.67 217,-116.33 217,-116.33 217,-121.67 211.67,-127 206.33,-127 206.33,-127 165.67,-127 165.67,-127 160.33,-127 155,-121.67 155,-116.33 155,-116.33 155,-105.67 155,-105.67 155,-100.33 160.33,-95 165.67,-95"/>
<text text-anchor="start" x="160" y="-107.3" font-family="Helvetica,sans-Serif" font-size="14.00">ImmVal</text>
<path fill="none" stroke="black" d="M165.67,-95C165.67,-95 206.33,-95 206.33,-95 211.67,-95 217,-100.33 217,-105.67 217,-105.67 217,-116.33 217,-116.33 217,-121.67 211.67,-127 206.33,-127 206.33,-127 165.67,-127 165.67,-127 160.33,-127 155,-121.67 155,-116.33 155,-116.33 155,-105.67 155,-105.67 155,-100.33 160.33,-95 165.67,-95"/>
</a>
</g>
</g>
<!-- primitive&#45;i64&#45;3 -->
<g id="node6" class="node">
<title>primitive&#45;i64&#45;3</title>
<g id="a_node6"><a xlink:title="i64&#45;3: primitive&#45;i64&#45;3">
<path fill="white" stroke="transparent" d="M180.67,-16C180.67,-16 191.33,-16 191.33,-16 196.67,-16 202,-21.33 202,-26.67 202,-26.67 202,-37.33 202,-37.33 202,-42.67 196.67,-48 191.33,-48 191.33,-48 180.67,-48 180.67,-48 175.33,-48 170,-42.67 170,-37.33 170,-37.33 170,-26.67 170,-26.67 170,-21.33 175.33,-16 180.67,-16"/>
<text text-anchor="start" x="181" y="-28.3" font-family="Helvetica,sans-Serif" font-size="14.00">3</text>
<path fill="none" stroke="black" d="M180.67,-16C180.67,-16 191.33,-16 191.33,-16 196.67,-16 202,-21.33 202,-26.67 202,-26.67 202,-37.33 202,-37.33 202,-42.67 196.67,-48 191.33,-48 191.33,-48 180.67,-48 180.67,-48 175.33,-48 170,-42.67 170,-37.33 170,-37.33 170,-26.67 170,-26.67 170,-21.33 175.33,-16 180.67,-16"/>
</a>
</g>
</g>
<!-- function&#45;1&#45;Jal -->
<g id="node7" class="node">
<title>function&#45;1&#45;Jal</title>
<g id="a_node7"><a xlink:title="Inst&#45;14: function&#45;1&#45;Jal">
<path fill="white" stroke="transparent" d="M314.67,-332C314.67,-332 325.33,-332 325.33,-332 330.67,-332 336,-337.33 336,-342.67 336,-342.67 336,-353.33 336,-353.33 336,-358.67 330.67,-364 325.33,-364 325.33,-364 314.67,-364 314.67,-364 309.33,-364 304,-358.67 304,-353.33 304,-353.33 304,-342.67 304,-342.67 304,-337.33 309.33,-332 314.67,-332"/>
<text text-anchor="start" x="311.5" y="-344.3" font-family="Helvetica,sans-Serif" font-size="14.00">Jal</text>
<path fill="none" stroke="black" d="M314.67,-332C314.67,-332 325.33,-332 325.33,-332 330.67,-332 336,-337.33 336,-342.67 336,-342.67 336,-353.33 336,-353.33 336,-358.67 330.67,-364 325.33,-364 325.33,-364 314.67,-364 314.67,-364 309.33,-364 304,-358.67 304,-353.33 304,-353.33 304,-342.67 304,-342.67 304,-337.33 309.33,-332 314.67,-332"/>
</a>
</g>
</g>
<!-- function&#45;0&#45;Jal -->
<g id="node8" class="node">
<title>function&#45;0&#45;Jal</title>
<g id="a_node8"><a xlink:title="Inst&#45;11: function&#45;0&#45;Jal">
<path fill="white" stroke="transparent" d="M86.67,-411C86.67,-411 97.33,-411 97.33,-411 102.67,-411 108,-416.33 108,-421.67 108,-421.67 108,-432.33 108,-432.33 108,-437.67 102.67,-443 97.33,-443 97.33,-443 86.67,-443 86.67,-443 81.33,-443 76,-437.67 76,-432.33 76,-432.33 76,-421.67 76,-421.67 76,-416.33 81.33,-411 86.67,-411"/>
<text text-anchor="start" x="83.5" y="-423.3" font-family="Helvetica,sans-Serif" font-size="14.00">Jal</text>
<path fill="none" stroke="black" d="M86.67,-411C86.67,-411 97.33,-411 97.33,-411 102.67,-411 108,-416.33 108,-421.67 108,-421.67 108,-432.33 108,-432.33 108,-437.67 102.67,-443 97.33,-443 97.33,-443 86.67,-443 86.67,-443 81.33,-443 76,-437.67 76,-432.33 76,-432.33 76,-421.67 76,-421.67 76,-416.33 81.33,-411 86.67,-411"/>
</a>
</g>
</g>
<!-- function&#45;0&#45;Beq -->
<g id="node9" class="node">
<title>function&#45;0&#45;Beq</title>
<g id="a_node9"><a xlink:title="Inst&#45;9: function&#45;0&#45;Beq">
<path fill="white" stroke="transparent" d="M181.67,-490C181.67,-490 198.33,-490 198.33,-490 203.67,-490 209,-495.33 209,-500.67 209,-500.67 209,-511.33 209,-511.33 209,-516.67 203.67,-522 198.33,-522 198.33,-522 181.67,-522 181.67,-522 176.33,-522 171,-516.67 171,-511.33 171,-511.33 171,-500.67 171,-500.67 171,-495.33 176.33,-490 181.67,-490"/>
<text text-anchor="start" x="176" y="-502.3" font-family="Helvetica,sans-Serif" font-size="14.00">Beq</text>
<path fill="none" stroke="black" d="M181.67,-490C181.67,-490 198.33,-490 198.33,-490 203.67,-490 209,-495.33 209,-500.67 209,-500.67 209,-511.33 209,-511.33 209,-516.67 203.67,-522 198.33,-522 198.33,-522 181.67,-522 181.67,-522 176.33,-522 171,-516.67 171,-511.33 171,-511.33 171,-500.67 171,-500.67 171,-495.33 176.33,-490 181.67,-490"/>
</a>
</g>
</g>
<!-- function&#45;0&#45;Lw -->
<g id="node10" class="node">
<title>function&#45;0&#45;Lw</title>
<g id="a_node10"><a xlink:title="Inst&#45;7: function&#45;0&#45;Lw">
<path fill="white" stroke="transparent" d="M194.67,-332C194.67,-332 205.33,-332 205.33,-332 210.67,-332 216,-337.33 216,-342.67 216,-342.67 216,-353.33 216,-353.33 216,-358.67 210.67,-364 205.33,-364 205.33,-364 194.67,-364 194.67,-364 189.33,-364 184,-358.67 184,-353.33 184,-353.33 184,-342.67 184,-342.67 184,-337.33 189.33,-332 194.67,-332"/>
<text text-anchor="start" x="190.5" y="-344.3" font-family="Helvetica,sans-Serif" font-size="14.00">Lw</text>
<path fill="none" stroke="black" d="M194.67,-332C194.67,-332 205.33,-332 205.33,-332 210.67,-332 216,-337.33 216,-342.67 216,-342.67 216,-353.33 216,-353.33 216,-358.67 210.67,-364 205.33,-364 205.33,-364 194.67,-364 194.67,-364 189.33,-364 184,-358.67 184,-353.33 184,-353.33 184,-342.67 184,-342.67 184,-337.33 189.33,-332 194.67,-332"/>
</a>
</g>
</g>
<!-- function&#45;1&#45;RegVal -->
<g id="node11" class="node">
<title>function&#45;1&#45;RegVal</title>
<g id="a_node11"><a xlink:title="Inst&#45;1: function&#45;1&#45;RegVal">
<path fill="white" stroke="transparent" d="M404.17,-332C404.17,-332 439.83,-332 439.83,-332 445.17,-332 450.5,-337.33 450.5,-342.67 450.5,-342.67 450.5,-353.33 450.5,-353.33 450.5,-358.67 445.17,-364 439.83,-364 439.83,-364 404.17,-364 404.17,-364 398.83,-364 393.5,-358.67 393.5,-353.33 393.5,-353.33 393.5,-342.67 393.5,-342.67 393.5,-337.33 398.83,-332 404.17,-332"/>
<text text-anchor="start" x="399" y="-344.3" font-family="Helvetica,sans-Serif" font-size="14.00">RegVal</text>
<path fill="none" stroke="black" d="M404.17,-332C404.17,-332 439.83,-332 439.83,-332 445.17,-332 450.5,-337.33 450.5,-342.67 450.5,-342.67 450.5,-353.33 450.5,-353.33 450.5,-358.67 445.17,-364 439.83,-364 439.83,-364 404.17,-364 404.17,-364 398.83,-364 393.5,-358.67 393.5,-353.33 393.5,-353.33 393.5,-342.67 393.5,-342.67 393.5,-337.33 398.83,-332 404.17,-332"/>
</a>
</g>
</g>
<!-- function&#45;1&#45;Beq -->
<g id="node12" class="node">
<title>function&#45;1&#45;Beq</title>
<g id="a_node12"><a xlink:title="Inst&#45;9: function&#45;1&#45;Beq">
<path fill="white" stroke="transparent" d="M123.67,-490C123.67,-490 140.33,-490 140.33,-490 145.67,-490 151,-495.33 151,-500.67 151,-500.67 151,-511.33 151,-511.33 151,-516.67 145.67,-522 140.33,-522 140.33,-522 123.67,-522 123.67,-522 118.33,-522 113,-516.67 113,-511.33 113,-511.33 113,-500.67 113,-500.67 113,-495.33 118.33,-490 123.67,-490"/>
<text text-anchor="start" x="118" y="-502.3" font-family="Helvetica,sans-Serif" font-size="14.00">Beq</text>
<path fill="none" stroke="black" d="M123.67,-490C123.67,-490 140.33,-490 140.33,-490 145.67,-490 151,-495.33 151,-500.67 151,-500.67 151,-511.33 151,-511.33 151,-516.67 145.67,-522 140.33,-522 140.33,-522 123.67,-522 123.67,-522 118.33,-522 113,-516.67 113,-511.33 113,-511.33 113,-500.67 113,-500.67 113,-495.33 118.33,-490 123.67,-490"/>
</a>
</g>
</g>
<!-- function&#45;0&#45;Seq2 -->
<g id="node13" class="node">
<title>function&#45;0&#45;Seq2</title>
<g id="a_node13"><a xlink:title="Inst&#45;9: function&#45;0&#45;Seq2">
<path fill="white" stroke="transparent" d="M61.67,-490C61.67,-490 86.33,-490 86.33,-490 91.67,-490 97,-495.33 97,-500.67 97,-500.67 97,-511.33 97,-511.33 97,-516.67 91.67,-522 86.33,-522 86.33,-522 61.67,-522 61.67,-522 56.33,-522 51,-516.67 51,-511.33 51,-511.33 51,-500.67 51,-500.67 51,-495.33 56.33,-490 61.67,-490"/>
<text text-anchor="start" x="56" y="-502.3" font-family="Helvetica,sans-Serif" font-size="14.00">Seq2</text>
<path fill="none" stroke="black" d="M61.67,-490C61.67,-490 86.33,-490 86.33,-490 91.67,-490 97,-495.33 97,-500.67 97,-500.67 97,-511.33 97,-511.33 97,-516.67 91.67,-522 86.33,-522 86.33,-522 61.67,-522 61.67,-522 56.33,-522 51,-516.67 51,-511.33 51,-511.33 51,-500.67 51,-500.67 51,-495.33 56.33,-490 61.67,-490"/>
</a>
</g>
</g>
<!-- function&#45;0&#45;Bne -->
<g id="node14" class="node">
<title>function&#45;0&#45;Bne</title>
<g id="a_node14"><a xlink:title="Inst&#45;10: function&#45;0&#45;Bne">
<path fill="white" stroke="transparent" d="M171.67,-411C171.67,-411 188.33,-411 188.33,-411 193.67,-411 199,-416.33 199,-421.67 199,-421.67 199,-432.33 199,-432.33 199,-437.67 193.67,-443 188.33,-443 188.33,-443 171.67,-443 171.67,-443 166.33,-443 161,-437.67 161,-432.33 161,-432.33 161,-421.67 161,-421.67 161,-416.33 166.33,-411 171.67,-411"/>
<text text-anchor="start" x="166" y="-423.3" font-family="Helvetica,sans-Serif" font-size="14.00">Bne</text>
<path fill="none" stroke="black" d="M171.67,-411C171.67,-411 188.33,-411 188.33,-411 193.67,-411 199,-416.33 199,-421.67 199,-421.67 199,-432.33 199,-432.33 199,-437.67 193.67,-443 188.33,-443 188.33,-443 171.67,-443 171.67,-443 166.33,-443 161,-437.67 161,-432.33 161,-432.33 161,-421.67 161,-421.67 161,-416.33 166.33,-411 171.67,-411"/>
</a>
</g>
</g>
<!-- function&#45;2&#45;Beq -->
<g id="node15" class="node">
<title>function&#45;2&#45;Beq</title>
<g id="a_node15"><a xlink:title="Inst&#45;13: function&#45;2&#45;Beq">
<path fill="white" stroke="transparent" d="M469.67,-411C469.67,-411 486.33,-411 486.33,-411 491.67,-411 497,-416.33 497,-421.67 497,-421.67 497,-432.33 497,-432.33 497,-437.67 491.67,-443 486.33,-443 486.33,-443 469.67,-443 469.67,-443 464.33,-443 459,-437.67 459,-432.33 459,-432.33 459,-421.67 459,-421.67 459,-416.33 464.33,-411 469.67,-411"/>
<text text-anchor="start" x="464" y="-423.3" font-family="Helvetica,sans-Serif" font-size="14.00">Beq</text>
<path fill="none" stroke="black" d="M469.67,-411C469.67,-411 486.33,-411 486.33,-411 491.67,-411 497,-416.33 497,-421.67 497,-421.67 497,-432.33 497,-432.33 497,-437.67 491.67,-443 486.33,-443 486.33,-443 469.67,-443 469.67,-443 464.33,-443 459,-437.67 459,-432.33 459,-432.33 459,-421.67 459,-421.67 459,-416.33 464.33,-411 469.67,-411"/>
</a>
</g>
</g>
<!-- function&#45;3&#45;Beq -->
<g id="node16" class="node">
<title>function&#45;3&#45;Beq</title>
<g id="a_node16"><a xlink:title="Inst&#45;13: function&#45;3&#45;Beq">
<path fill="white" stroke="transparent" d="M411.67,-411C411.67,-411 428.33,-411 428.33,-411 433.67,-411 439,-416.33 439,-421.67 439,-421.67 439,-432.33 439,-432.33 439,-437.67 433.67,-443 428.33,-443 428.33,-443 411.67,-443 411.67,-443 406.33,-443 401,-437.67 401,-432.33 401,-432.33 401,-421.67 401,-421.67 401,-416.33 406.33,-411 411.67,-411"/>
<text text-anchor="start" x="406" y="-423.3" font-family="Helvetica,sans-Serif" font-size="14.00">Beq</text>
<path fill="none" stroke="black" d="M411.67,-411C411.67,-411 428.33,-411 428.33,-411 433.67,-411 439,-416.33 439,-421.67 439,-421.67 439,-432.33 439,-432.33 439,-437.67 433.67,-443 428.33,-443 428.33,-443 411.67,-443 411.67,-443 406.33,-443 401,-437.67 401,-432.33 401,-432.33 401,-421.67 401,-421.67 401,-416.33 406.33,-411 411.67,-411"/>
</a>
</g>
</g>
<!-- function&#45;2&#45;Seq2 -->
<g id="node17" class="node">
<title>function&#45;2&#45;Seq2</title>
<g id="a_node17"><a xlink:title="Inst&#45;13: function&#45;2&#45;Seq2">
<path fill="white" stroke="transparent" d="M349.67,-411C349.67,-411 374.33,-411 374.33,-411 379.67,-411 385,-416.33 385,-421.67 385,-421.67 385,-432.33 385,-432.33 385,-437.67 379.67,-443 374.33,-443 374.33,-443 349.67,-443 349.67,-443 344.33,-443 339,-437.67 339,-432.33 339,-432.33 339,-421.67 339,-421.67 339,-416.33 344.33,-411 349.67,-411"/>
<text text-anchor="start" x="344" y="-423.3" font-family="Helvetica,sans-Serif" font-size="14.00">Seq2</text>
<path fill="none" stroke="black" d="M349.67,-411C349.67,-411 374.33,-411 374.33,-411 379.67,-411 385,-416.33 385,-421.67 385,-421.67 385,-432.33 385,-432.33 385,-437.67 379.67,-443 374.33,-443 374.33,-443 349.67,-443 349.67,-443 344.33,-443 339,-437.67 339,-432.33 339,-432.33 339,-421.67 339,-421.67 339,-416.33 344.33,-411 349.67,-411"/>
</a>
</g>
</g>
<!-- function&#45;1&#45;Seq2 -->
<g id="node18" class="node">
<title>function&#45;1&#45;Seq2</title>
<g id="a_node18"><a xlink:title="Inst&#45;10: function&#45;1&#45;Seq2">
<path fill="white" stroke="transparent" d="M283.67,-411C283.67,-411 308.33,-411 308.33,-411 313.67,-411 319,-416.33 319,-421.67 319,-421.67 319,-432.33 319,-432.33 319,-437.67 313.67,-443 308.33,-443 308.33,-443 283.67,-443 283.67,-443 278.33,-443 273,-437.67 273,-432.33 273,-432.33 273,-421.67 273,-421.67 273,-416.33 278.33,-411 283.67,-411"/>
<text text-anchor="start" x="278" y="-423.3" font-family="Helvetica,sans-Serif" font-size="14.00">Seq2</text>
<path fill="none" stroke="black" d="M283.67,-411C283.67,-411 308.33,-411 308.33,-411 313.67,-411 319,-416.33 319,-421.67 319,-421.67 319,-432.33 319,-432.33 319,-437.67 313.67,-443 308.33,-443 308.33,-443 283.67,-443 283.67,-443 278.33,-443 273,-437.67 273,-432.33 273,-432.33 273,-421.67 273,-421.67 273,-416.33 278.33,-411 283.67,-411"/>
</a>
</g>
</g>
<!-- function&#45;0&#45;Add -->
<g id="node19" class="node">
<title>function&#45;0&#45;Add</title>
<g id="a_node19"><a xlink:title="Inst&#45;5: function&#45;0&#45;Add">
<path fill="white" stroke="transparent" d="M241.67,-253C241.67,-253 258.33,-253 258.33,-253 263.67,-253 269,-258.33 269,-263.67 269,-263.67 269,-274.33 269,-274.33 269,-279.67 263.67,-285 258.33,-285 258.33,-285 241.67,-285 241.67,-285 236.33,-285 231,-279.67 231,-274.33 231,-274.33 231,-263.67 231,-263.67 231,-258.33 236.33,-253 241.67,-253"/>
<text text-anchor="start" x="236" y="-265.3" font-family="Helvetica,sans-Serif" font-size="14.00">Add</text>
<path fill="none" stroke="black" d="M241.67,-253C241.67,-253 258.33,-253 258.33,-253 263.67,-253 269,-258.33 269,-263.67 269,-263.67 269,-274.33 269,-274.33 269,-279.67 263.67,-285 258.33,-285 258.33,-285 241.67,-285 241.67,-285 236.33,-285 231,-279.67 231,-274.33 231,-274.33 231,-263.67 231,-263.67 231,-258.33 236.33,-253 241.67,-253"/>
</a>
</g>
</g>
<!-- function&#45;0&#45;RegVal -->
<g id="node20" class="node">
<title>function&#45;0&#45;RegVal</title>
<g id="a_node20"><a xlink:title="Inst&#45;0: function&#45;0&#45;RegVal">
<path fill="white" stroke="transparent" d="M228.17,-174C228.17,-174 263.83,-174 263.83,-174 269.17,-174 274.5,-179.33 274.5,-184.67 274.5,-184.67 274.5,-195.33 274.5,-195.33 274.5,-200.67 269.17,-206 263.83,-206 263.83,-206 228.17,-206 228.17,-206 222.83,-206 217.5,-200.67 217.5,-195.33 217.5,-195.33 217.5,-184.67 217.5,-184.67 217.5,-179.33 222.83,-174 228.17,-174"/>
<text text-anchor="start" x="223" y="-186.3" font-family="Helvetica,sans-Serif" font-size="14.00">RegVal</text>
<path fill="none" stroke="black" d="M228.17,-174C228.17,-174 263.83,-174 263.83,-174 269.17,-174 274.5,-179.33 274.5,-184.67 274.5,-184.67 274.5,-195.33 274.5,-195.33 274.5,-200.67 269.17,-206 263.83,-206 263.83,-206 228.17,-206 228.17,-206 222.83,-206 217.5,-200.67 217.5,-195.33 217.5,-195.33 217.5,-184.67 217.5,-184.67 217.5,-179.33 222.83,-174 228.17,-174"/>
</a>
</g>
</g>
<!-- function&#45;0&#45;Slli -->
<g id="node21" class="node">
<title>function&#45;0&#45;Slli</title>
<g id="a_node21"><a xlink:title="Inst&#45;4: function&#45;0&#45;Slli">
<path fill="white" stroke="transparent" d="M172.67,-174C172.67,-174 183.33,-174 183.33,-174 188.67,-174 194,-179.33 194,-184.67 194,-184.67 194,-195.33 194,-195.33 194,-200.67 188.67,-206 183.33,-206 183.33,-206 172.67,-206 172.67,-206 167.33,-206 162,-200.67 162,-195.33 162,-195.33 162,-184.67 162,-184.67 162,-179.33 167.33,-174 172.67,-174"/>
<text text-anchor="start" x="167.5" y="-186.3" font-family="Helvetica,sans-Serif" font-size="14.00">Slli</text>
<path fill="none" stroke="black" d="M172.67,-174C172.67,-174 183.33,-174 183.33,-174 188.67,-174 194,-179.33 194,-184.67 194,-184.67 194,-195.33 194,-195.33 194,-200.67 188.67,-206 183.33,-206 183.33,-206 172.67,-206 172.67,-206 167.33,-206 162,-200.67 162,-195.33 162,-195.33 162,-184.67 162,-184.67 162,-179.33 167.33,-174 172.67,-174"/>
</a>
</g>
</g>
<!-- function&#45;1&#45;Add -->
<g id="node22" class="node">
<title>function&#45;1&#45;Add</title>
<g id="a_node22"><a xlink:title="Inst&#45;5: function&#45;1&#45;Add">
<path fill="white" stroke="transparent" d="M183.67,-253C183.67,-253 200.33,-253 200.33,-253 205.67,-253 211,-258.33 211,-263.67 211,-263.67 211,-274.33 211,-274.33 211,-279.67 205.67,-285 200.33,-285 200.33,-285 183.67,-285 183.67,-285 178.33,-285 173,-279.67 173,-274.33 173,-274.33 173,-263.67 173,-263.67 173,-258.33 178.33,-253 183.67,-253"/>
<text text-anchor="start" x="178" y="-265.3" font-family="Helvetica,sans-Serif" font-size="14.00">Add</text>
<path fill="none" stroke="black" d="M183.67,-253C183.67,-253 200.33,-253 200.33,-253 205.67,-253 211,-258.33 211,-263.67 211,-263.67 211,-274.33 211,-274.33 211,-279.67 205.67,-285 200.33,-285 200.33,-285 183.67,-285 183.67,-285 178.33,-285 173,-279.67 173,-274.33 173,-274.33 173,-263.67 173,-263.67 173,-258.33 178.33,-253 183.67,-253"/>
</a>
</g>
</g>
<!-- function&#45;2&#45;RegVal -->
<g id="node23" class="node">
<title>function&#45;2&#45;RegVal</title>
<g id="a_node23"><a xlink:title="Inst&#45;2: function&#45;2&#45;RegVal">
<path fill="white" stroke="transparent" d="M96.17,-95C96.17,-95 131.83,-95 131.83,-95 137.17,-95 142.5,-100.33 142.5,-105.67 142.5,-105.67 142.5,-116.33 142.5,-116.33 142.5,-121.67 137.17,-127 131.83,-127 131.83,-127 96.17,-127 96.17,-127 90.83,-127 85.5,-121.67 85.5,-116.33 85.5,-116.33 85.5,-105.67 85.5,-105.67 85.5,-100.33 90.83,-95 96.17,-95"/>
<text text-anchor="start" x="91" y="-107.3" font-family="Helvetica,sans-Serif" font-size="14.00">RegVal</text>
<path fill="none" stroke="black" d="M96.17,-95C96.17,-95 131.83,-95 131.83,-95 137.17,-95 142.5,-100.33 142.5,-105.67 142.5,-105.67 142.5,-116.33 142.5,-116.33 142.5,-121.67 137.17,-127 131.83,-127 131.83,-127 96.17,-127 96.17,-127 90.83,-127 85.5,-121.67 85.5,-116.33 85.5,-116.33 85.5,-105.67 85.5,-105.67 85.5,-100.33 90.83,-95 96.17,-95"/>
</a>
</g>
</g>
<!-- primitive&#45;String&#45;0 -->
<g id="node24" class="node">
<title>primitive&#45;String&#45;0</title>
<g id="a_node24"><a xlink:title="String&#45;0: primitive&#45;String&#45;0">
<path fill="white" stroke="transparent" d="M240.17,-95C240.17,-95 275.83,-95 275.83,-95 281.17,-95 286.5,-100.33 286.5,-105.67 286.5,-105.67 286.5,-116.33 286.5,-116.33 286.5,-121.67 281.17,-127 275.83,-127 275.83,-127 240.17,-127 240.17,-127 234.83,-127 229.5,-121.67 229.5,-116.33 229.5,-116.33 229.5,-105.67 229.5,-105.67 229.5,-100.33 234.83,-95 240.17,-95"/>
<text text-anchor="start" x="235" y="-107.3" font-family="Helvetica,sans-Serif" font-size="14.00">&quot;a0_0&quot;</text>
<path fill="none" stroke="black" d="M240.17,-95C240.17,-95 275.83,-95 275.83,-95 281.17,-95 286.5,-100.33 286.5,-105.67 286.5,-105.67 286.5,-116.33 286.5,-116.33 286.5,-121.67 281.17,-127 275.83,-127 275.83,-127 240.17,-127 240.17,-127 234.83,-127 229.5,-121.67 229.5,-116.33 229.5,-116.33 229.5,-105.67 229.5,-105.67 229.5,-100.33 234.83,-95 240.17,-95"/>
</a>
</g>
</g>
<!-- primitive&#45;String&#45;2 -->
<g id="node25" class="node">
<title>primitive&#45;String&#45;2</title>
<g id="a_node25"><a xlink:title="String&#45;2: primitive&#45;String&#45;2">
<path fill="white" stroke="transparent" d="M97.17,-16C97.17,-16 132.83,-16 132.83,-16 138.17,-16 143.5,-21.33 143.5,-26.67 143.5,-26.67 143.5,-37.33 143.5,-37.33 143.5,-42.67 138.17,-48 132.83,-48 132.83,-48 97.17,-48 97.17,-48 91.83,-48 86.5,-42.67 86.5,-37.33 86.5,-37.33 86.5,-26.67 86.5,-26.67 86.5,-21.33 91.83,-16 97.17,-16"/>
<text text-anchor="start" x="92" y="-28.3" font-family="Helvetica,sans-Serif" font-size="14.00">&quot;a7_0&quot;</text>
<path fill="none" stroke="black" d="M97.17,-16C97.17,-16 132.83,-16 132.83,-16 138.17,-16 143.5,-21.33 143.5,-26.67 143.5,-26.67 143.5,-37.33 143.5,-37.33 143.5,-42.67 138.17,-48 132.83,-48 132.83,-48 97.17,-48 97.17,-48 91.83,-48 86.5,-42.67 86.5,-37.33 86.5,-37.33 86.5,-26.67 86.5,-26.67 86.5,-21.33 91.83,-16 97.17,-16"/>
</a>
</g>
</g>
<!-- primitive&#45;String&#45;1 -->
<g id="node26" class="node">
<title>primitive&#45;String&#45;1</title>
<g id="a_node26"><a xlink:title="String&#45;1: primitive&#45;String&#45;1">
<path fill="white" stroke="transparent" d="M405.17,-253C405.17,-253 440.83,-253 440.83,-253 446.17,-253 451.5,-258.33 451.5,-263.67 451.5,-263.67 451.5,-274.33 451.5,-274.33 451.5,-279.67 446.17,-285 440.83,-285 440.83,-285 405.17,-285 405.17,-285 399.83,-285 394.5,-279.67 394.5,-274.33 394.5,-274.33 394.5,-263.67 394.5,-263.67 394.5,-258.33 399.83,-253 405.17,-253"/>
<text text-anchor="start" x="400" y="-265.3" font-family="Helvetica,sans-Serif" font-size="14.00">&quot;a5_0&quot;</text>
<path fill="none" stroke="black" d="M405.17,-253C405.17,-253 440.83,-253 440.83,-253 446.17,-253 451.5,-258.33 451.5,-263.67 451.5,-263.67 451.5,-274.33 451.5,-274.33 451.5,-279.67 446.17,-285 440.83,-285 440.83,-285 405.17,-285 405.17,-285 399.83,-285 394.5,-279.67 394.5,-274.33 394.5,-274.33 394.5,-263.67 394.5,-263.67 394.5,-258.33 399.83,-253 405.17,-253"/>
</a>
</g>
</g>
<!-- function&#45;1&#45;Bne -->
<g id="node27" class="node">
<title>function&#45;1&#45;Bne</title>
<g id="a_node27"><a xlink:title="Inst&#45;10: function&#45;1&#45;Bne">
<path fill="white" stroke="transparent" d="M229.67,-411C229.67,-411 246.33,-411 246.33,-411 251.67,-411 257,-416.33 257,-421.67 257,-421.67 257,-432.33 257,-432.33 257,-437.67 251.67,-443 246.33,-443 246.33,-443 229.67,-443 229.67,-443 224.33,-443 219,-437.67 219,-432.33 219,-432.33 219,-421.67 219,-421.67 219,-416.33 224.33,-411 229.67,-411"/>
<text text-anchor="start" x="224" y="-423.3" font-family="Helvetica,sans-Serif" font-size="14.00">Bne</text>
<path fill="none" stroke="black" d="M229.67,-411C229.67,-411 246.33,-411 246.33,-411 251.67,-411 257,-416.33 257,-421.67 257,-421.67 257,-432.33 257,-432.33 257,-437.67 251.67,-443 246.33,-443 246.33,-443 229.67,-443 229.67,-443 224.33,-443 219,-437.67 219,-432.33 219,-432.33 219,-421.67 219,-421.67 219,-416.33 224.33,-411 229.67,-411"/>
</a>
</g>
</g>
</g>
</svg>
