<?xml version="1.0" encoding="UTF-8" standalone="no"?>
<!DOCTYPE svg PUBLIC "-//W3C//DTD SVG 1.1//EN"
 "http://www.w3.org/Graphics/SVG/1.1/DTD/svg11.dtd">
<!-- Generated by graphviz version 2.43.0 (0)
 -->
<!-- Title: %3 Pages: 1 -->
<svg width="979pt" height="309pt"
 viewBox="0.00 0.00 979.00 309.00" xmlns="http://www.w3.org/2000/svg" xmlns:xlink="http://www.w3.org/1999/xlink">
<g id="graph0" class="graph" transform="scale(1 1) rotate(0) translate(4 305)">
<title>%3</title>
<polygon fill="white" stroke="#000000" points="-4,4 -4,-305 975,-305 975,4 -4,4"/>
<g id="clust1" class="cluster">
<title>outer_cluster_Imm&#45;5</title>
</g>
<g id="clust2" class="cluster">
<title>cluster_Imm&#45;5</title>
<path fill="#ffffb3" stroke="black" stroke-dasharray="5,2" d="M93,-169C93,-169 137,-169 137,-169 143,-169 149,-175 149,-181 149,-181 149,-199 149,-199 149,-205 143,-211 137,-211 137,-211 93,-211 93,-211 87,-211 81,-205 81,-199 81,-199 81,-181 81,-181 81,-175 87,-169 93,-169"/>
</g>
<g id="clust4" class="cluster">
<title>outer_cluster_Imm&#45;7</title>
</g>
<g id="clust5" class="cluster">
<title>cluster_Imm&#45;7</title>
<path fill="#ffffb3" stroke="black" stroke-dasharray="5,2" d="M451,-169C451,-169 495,-169 495,-169 501,-169 507,-175 507,-181 507,-181 507,-199 507,-199 507,-205 501,-211 495,-211 495,-211 451,-211 451,-211 445,-211 439,-205 439,-199 439,-199 439,-181 439,-181 439,-175 445,-169 451,-169"/>
</g>
<g id="clust7" class="cluster">
<title>outer_cluster_Imm&#45;9</title>
</g>
<g id="clust8" class="cluster">
<title>cluster_Imm&#45;9</title>
<path fill="#ffffb3" stroke="black" stroke-dasharray="5,2" d="M167,-169C167,-169 211,-169 211,-169 217,-169 223,-175 223,-181 223,-181 223,-199 223,-199 223,-205 217,-211 211,-211 211,-211 167,-211 167,-211 161,-211 155,-205 155,-199 155,-199 155,-181 155,-181 155,-175 161,-169 167,-169"/>
</g>
<g id="clust10" class="cluster">
<title>outer_cluster_Imm&#45;11</title>
</g>
<g id="clust11" class="cluster">
<title>cluster_Imm&#45;11</title>
<path fill="#ffffb3" stroke="black" stroke-dasharray="5,2" d="M595,-169C595,-169 639,-169 639,-169 645,-169 651,-175 651,-181 651,-181 651,-199 651,-199 651,-205 645,-211 639,-211 639,-211 595,-211 595,-211 589,-211 583,-205 583,-199 583,-199 583,-181 583,-181 583,-175 589,-169 595,-169"/>
</g>
<g id="clust13" class="cluster">
<title>outer_cluster_Imm&#45;13</title>
</g>
<g id="clust14" class="cluster">
<title>cluster_Imm&#45;13</title>
<path fill="#ffffb3" stroke="black" stroke-dasharray="5,2" d="M839,-90C839,-90 899,-90 899,-90 905,-90 911,-96 911,-102 911,-102 911,-120 911,-120 911,-126 905,-132 899,-132 899,-132 839,-132 839,-132 833,-132 827,-126 827,-120 827,-120 827,-102 827,-102 827,-96 833,-90 839,-90"/>
</g>
<g id="clust16" class="cluster">
<title>outer_cluster_Imm&#45;15</title>
</g>
<g id="clust17" class="cluster">
<title>cluster_Imm&#45;15</title>
<path fill="#ffffb3" stroke="black" stroke-dasharray="5,2" d="M720,-169C720,-169 780,-169 780,-169 786,-169 792,-175 792,-181 792,-181 792,-199 792,-199 792,-205 786,-211 780,-211 780,-211 720,-211 720,-211 714,-211 708,-205 708,-199 708,-199 708,-181 708,-181 708,-175 714,-169 720,-169"/>
</g>
<g id="clust19" class="cluster">
<title>outer_cluster_Inst&#45;1</title>
</g>
<g id="clust20" class="cluster">
<title>cluster_Inst&#45;1</title>
<path fill="#bebada" stroke="black" stroke-dasharray="5,2" d="M23,-169C23,-169 63,-169 63,-169 69,-169 75,-175 75,-181 75,-181 75,-199 75,-199 75,-205 69,-211 63,-211 63,-211 23,-211 23,-211 17,-211 11,-205 11,-199 11,-199 11,-181 11,-181 11,-175 17,-169 23,-169"/>
</g>
<g id="clust22" class="cluster">
<title>outer_cluster_Inst&#45;10</title>
</g>
<g id="clust23" class="cluster">
<title>cluster_Inst&#45;10</title>
<path fill="#bebada" stroke="black" stroke-dasharray="5,2" d="M239,-248C239,-248 275,-248 275,-248 281,-248 287,-254 287,-260 287,-260 287,-278 287,-278 287,-284 281,-290 275,-290 275,-290 239,-290 239,-290 233,-290 227,-284 227,-278 227,-278 227,-260 227,-260 227,-254 233,-248 239,-248"/>
</g>
<g id="clust25" class="cluster">
<title>outer_cluster_Inst&#45;0</title>
</g>
<g id="clust26" class="cluster">
<title>cluster_Inst&#45;0</title>
<path fill="#bebada" stroke="black" stroke-dasharray="5,2" d="M525,-169C525,-169 565,-169 565,-169 571,-169 577,-175 577,-181 577,-181 577,-199 577,-199 577,-205 571,-211 565,-211 565,-211 525,-211 525,-211 519,-211 513,-205 513,-199 513,-199 513,-181 513,-181 513,-175 519,-169 525,-169"/>
</g>
<g id="clust28" class="cluster">
<title>outer_cluster_Inst&#45;8</title>
</g>
<g id="clust29" class="cluster">
<title>cluster_Inst&#45;8</title>
<path fill="#bebada" stroke="black" stroke-dasharray="5,2" d="M379,-248C379,-248 415,-248 415,-248 421,-248 427,-254 427,-260 427,-260 427,-278 427,-278 427,-284 421,-290 415,-290 415,-290 379,-290 379,-290 373,-290 367,-284 367,-278 367,-278 367,-260 367,-260 367,-254 373,-248 379,-248"/>
</g>
<g id="clust31" class="cluster">
<title>outer_cluster_Inst&#45;2</title>
</g>
<g id="clust32" class="cluster">
<title>cluster_Inst&#45;2</title>
<path fill="#bebada" stroke="black" stroke-dasharray="5,2" d="M241,-169C241,-169 281,-169 281,-169 287,-169 293,-175 293,-181 293,-181 293,-199 293,-199 293,-205 287,-211 281,-211 281,-211 241,-211 241,-211 235,-211 229,-205 229,-199 229,-199 229,-181 229,-181 229,-175 235,-169 241,-169"/>
</g>
<g id="clust34" class="cluster">
<title>outer_cluster_Inst&#45;12</title>
</g>
<g id="clust35" class="cluster">
<title>cluster_Inst&#45;12</title>
<path fill="#bebada" stroke="black" stroke-dasharray="5,2" d="M523,-248C523,-248 559,-248 559,-248 565,-248 571,-254 571,-260 571,-260 571,-278 571,-278 571,-284 565,-290 559,-290 559,-290 523,-290 523,-290 517,-290 511,-284 511,-278 511,-278 511,-260 511,-260 511,-254 517,-248 523,-248"/>
</g>
<g id="clust37" class="cluster">
<title>outer_cluster_Inst&#45;14</title>
</g>
<g id="clust38" class="cluster">
<title>cluster_Inst&#45;14</title>
<path fill="#bebada" stroke="black" stroke-dasharray="5,2" d="M837,-169C837,-169 873,-169 873,-169 879,-169 885,-175 885,-181 885,-181 885,-199 885,-199 885,-205 879,-211 873,-211 873,-211 837,-211 837,-211 831,-211 825,-205 825,-199 825,-199 825,-181 825,-181 825,-175 831,-169 837,-169"/>
</g>
<g id="clust40" class="cluster">
<title>outer_cluster_Inst&#45;6</title>
</g>
<g id="clust41" class="cluster">
<title>cluster_Inst&#45;6</title>
<path fill="#bebada" stroke="black" stroke-dasharray="5,2" d="M86,-248C86,-248 122,-248 122,-248 128,-248 134,-254 134,-260 134,-260 134,-278 134,-278 134,-284 128,-290 122,-290 122,-290 86,-290 86,-290 80,-290 74,-284 74,-278 74,-278 74,-260 74,-260 74,-254 80,-248 86,-248"/>
</g>
<g id="clust43" class="cluster">
<title>outer_cluster_Inst&#45;16</title>
</g>
<g id="clust44" class="cluster">
<title>cluster_Inst&#45;16</title>
<path fill="#bebada" stroke="black" stroke-dasharray="5,2" d="M784,-248C784,-248 820,-248 820,-248 826,-248 832,-254 832,-260 832,-260 832,-278 832,-278 832,-284 826,-290 820,-290 820,-290 784,-290 784,-290 778,-290 772,-284 772,-278 772,-278 772,-260 772,-260 772,-254 778,-248 784,-248"/>
</g>
<g id="clust46" class="cluster">
<title>outer_cluster_Inst&#45;3</title>
</g>
<g id="clust47" class="cluster">
<title>cluster_Inst&#45;3</title>
<path fill="#bebada" stroke="black" stroke-dasharray="5,2" d="M381,-169C381,-169 421,-169 421,-169 427,-169 433,-175 433,-181 433,-181 433,-199 433,-199 433,-205 427,-211 421,-211 421,-211 381,-211 381,-211 375,-211 369,-205 369,-199 369,-199 369,-181 369,-181 369,-175 375,-169 381,-169"/>
</g>
<g id="clust49" class="cluster">
<title>outer_cluster_Inst&#45;4</title>
</g>
<g id="clust50" class="cluster">
<title>cluster_Inst&#45;4</title>
<path fill="#bebada" stroke="black" stroke-dasharray="5,2" d="M311,-169C311,-169 351,-169 351,-169 357,-169 363,-175 363,-181 363,-181 363,-199 363,-199 363,-205 357,-211 351,-211 351,-211 311,-211 311,-211 305,-211 299,-205 299,-199 299,-199 299,-181 299,-181 299,-175 305,-169 311,-169"/>
</g>
<g id="clust52" class="cluster">
<title>outer_cluster_String&#45;4</title>
</g>
<g id="clust53" class="cluster">
<title>cluster_String&#45;4</title>
<path fill="#fb8072" stroke="black" stroke-dasharray="5,2" d="M382,-90C382,-90 422,-90 422,-90 428,-90 434,-96 434,-102 434,-102 434,-120 434,-120 434,-126 428,-132 422,-132 422,-132 382,-132 382,-132 376,-132 370,-126 370,-120 370,-120 370,-102 370,-102 370,-96 376,-90 382,-90"/>
</g>
<g id="clust55" class="cluster">
<title>outer_cluster_String&#45;5</title>
</g>
<g id="clust56" class="cluster">
<title>cluster_String&#45;5</title>
<path fill="#fb8072" stroke="black" stroke-dasharray="5,2" d="M313,-90C313,-90 351,-90 351,-90 357,-90 363,-96 363,-102 363,-102 363,-120 363,-120 363,-126 357,-132 351,-132 351,-132 313,-132 313,-132 307,-132 301,-126 301,-120 301,-120 301,-102 301,-102 301,-96 307,-90 313,-90"/>
</g>
<g id="clust58" class="cluster">
<title>outer_cluster_String&#45;3</title>
</g>
<g id="clust59" class="cluster">
<title>cluster_String&#45;3</title>
<path fill="#fb8072" stroke="black" stroke-dasharray="5,2" d="M242,-90C242,-90 282,-90 282,-90 288,-90 294,-96 294,-102 294,-102 294,-120 294,-120 294,-126 288,-132 282,-132 282,-132 242,-132 242,-132 236,-132 230,-126 230,-120 230,-120 230,-102 230,-102 230,-96 236,-90 242,-90"/>
</g>
<g id="clust61" class="cluster">
<title>outer_cluster_String&#45;7</title>
</g>
<g id="clust62" class="cluster">
<title>cluster_String&#45;7</title>
<path fill="#fb8072" stroke="black" stroke-dasharray="5,2" d="M665,-90C665,-90 809,-90 809,-90 815,-90 821,-96 821,-102 821,-102 821,-120 821,-120 821,-126 815,-132 809,-132 809,-132 665,-132 665,-132 659,-132 653,-126 653,-120 653,-120 653,-102 653,-102 653,-96 659,-90 665,-90"/>
</g>
<g id="clust64" class="cluster">
<title>outer_cluster_String&#45;6</title>
</g>
<g id="clust65" class="cluster">
<title>cluster_String&#45;6</title>
<path fill="#fb8072" stroke="black" stroke-dasharray="5,2" d="M792,-11C792,-11 948,-11 948,-11 954,-11 960,-17 960,-23 960,-23 960,-41 960,-41 960,-47 954,-53 948,-53 948,-53 792,-53 792,-53 786,-53 780,-47 780,-41 780,-41 780,-23 780,-23 780,-17 786,-11 792,-11"/>
</g>
<g id="clust67" class="cluster">
<title>outer_cluster_String&#45;1</title>
</g>
<g id="clust68" class="cluster">
<title>cluster_String&#45;1</title>
<path fill="#fb8072" stroke="black" stroke-dasharray="5,2" d="M526,-90C526,-90 566,-90 566,-90 572,-90 578,-96 578,-102 578,-102 578,-120 578,-120 578,-126 572,-132 566,-132 566,-132 526,-132 526,-132 520,-132 514,-126 514,-120 514,-120 514,-102 514,-102 514,-96 520,-90 526,-90"/>
</g>
<g id="clust70" class="cluster">
<title>outer_cluster_String&#45;2</title>
</g>
<g id="clust71" class="cluster">
<title>cluster_String&#45;2</title>
<path fill="#fb8072" stroke="black" stroke-dasharray="5,2" d="M24,-90C24,-90 64,-90 64,-90 70,-90 76,-96 76,-102 76,-102 76,-120 76,-120 76,-126 70,-132 64,-132 64,-132 24,-132 24,-132 18,-132 12,-126 12,-120 12,-120 12,-102 12,-102 12,-96 18,-90 24,-90"/>
</g>
<g id="clust73" class="cluster">
<title>outer_cluster_i64&#45;12</title>
</g>
<g id="clust74" class="cluster">
<title>cluster_i64&#45;12</title>
<path fill="#80b1d3" stroke="black" stroke-dasharray="5,2" d="M97,-90C97,-90 133,-90 133,-90 139,-90 145,-96 145,-102 145,-102 145,-120 145,-120 145,-126 139,-132 133,-132 133,-132 97,-132 97,-132 91,-132 85,-126 85,-120 85,-120 85,-102 85,-102 85,-96 91,-90 97,-90"/>
</g>
<g id="clust76" class="cluster">
<title>outer_cluster_i64&#45;0</title>
</g>
<g id="clust77" class="cluster">
<title>cluster_i64&#45;0</title>
<path fill="#80b1d3" stroke="black" stroke-dasharray="5,2" d="M599,-90C599,-90 635,-90 635,-90 641,-90 647,-96 647,-102 647,-102 647,-120 647,-120 647,-126 641,-132 635,-132 635,-132 599,-132 599,-132 593,-132 587,-126 587,-120 587,-120 587,-102 587,-102 587,-96 593,-90 599,-90"/>
</g>
<g id="clust79" class="cluster">
<title>outer_cluster_i64&#45;8</title>
</g>
<g id="clust80" class="cluster">
<title>cluster_i64&#45;8</title>
<path fill="#80b1d3" stroke="black" stroke-dasharray="5,2" d="M455,-90C455,-90 491,-90 491,-90 497,-90 503,-96 503,-102 503,-102 503,-120 503,-120 503,-126 497,-132 491,-132 491,-132 455,-132 455,-132 449,-132 443,-126 443,-120 443,-120 443,-102 443,-102 443,-96 449,-90 455,-90"/>
</g>
<g id="clust82" class="cluster">
<title>outer_cluster_i64&#45;4</title>
</g>
<g id="clust83" class="cluster">
<title>cluster_i64&#45;4</title>
<path fill="#80b1d3" stroke="black" stroke-dasharray="5,2" d="M171,-90C171,-90 207,-90 207,-90 213,-90 219,-96 219,-102 219,-102 219,-120 219,-120 219,-126 213,-132 207,-132 207,-132 171,-132 171,-132 165,-132 159,-126 159,-120 159,-120 159,-102 159,-102 159,-96 165,-90 171,-90"/>
</g>
<!-- function&#45;0&#45;ImmVal&#45;&gt;primitive&#45;i64&#45;12 -->
<g id="edge1" class="edge">
<title>function&#45;0&#45;ImmVal:s&#45;&gt;primitive&#45;i64&#45;12</title>
<path fill="none" stroke="black" d="M115,-174C115,-160.84 115,-146.11 115,-134.3"/>
<polygon fill="black" stroke="black" points="116.75,-137 115,-132 113.25,-137 116.75,-137"/>
</g>
<!-- function&#45;1&#45;ImmVal&#45;&gt;primitive&#45;i64&#45;8 -->
<g id="edge2" class="edge">
<title>function&#45;1&#45;ImmVal:s&#45;&gt;primitive&#45;i64&#45;8</title>
<path fill="none" stroke="black" d="M473,-174C473,-160.84 473,-146.11 473,-134.3"/>
<polygon fill="black" stroke="black" points="474.75,-137 473,-132 471.25,-137 474.75,-137"/>
</g>
<!-- function&#45;2&#45;ImmVal&#45;&gt;primitive&#45;i64&#45;4 -->
<g id="edge3" class="edge">
<title>function&#45;2&#45;ImmVal:s&#45;&gt;primitive&#45;i64&#45;4</title>
<path fill="none" stroke="black" d="M189,-174C189,-160.84 189,-146.11 189,-134.3"/>
<polygon fill="black" stroke="black" points="190.75,-137 189,-132 187.25,-137 190.75,-137"/>
</g>
<!-- function&#45;3&#45;ImmVal&#45;&gt;primitive&#45;i64&#45;0 -->
<g id="edge4" class="edge">
<title>function&#45;3&#45;ImmVal:s&#45;&gt;primitive&#45;i64&#45;0</title>
<path fill="none" stroke="black" d="M617,-174C617,-160.84 617,-146.11 617,-134.3"/>
<polygon fill="black" stroke="black" points="618.75,-137 617,-132 615.25,-137 618.75,-137"/>
</g>
<!-- function&#45;0&#45;ImmLabel&#45;&gt;primitive&#45;String&#45;6 -->
<g id="edge5" class="edge">
<title>function&#45;0&#45;ImmLabel:s&#45;&gt;primitive&#45;String&#45;6</title>
<path fill="none" stroke="black" d="M870,-95C870,-81.84 870,-67.11 870,-55.3"/>
<polygon fill="black" stroke="black" points="871.75,-58 870,-53 868.25,-58 871.75,-58"/>
</g>
<!-- function&#45;1&#45;ImmLabel&#45;&gt;primitive&#45;String&#45;7 -->
<g id="edge6" class="edge">
<title>function&#45;1&#45;ImmLabel:s&#45;&gt;primitive&#45;String&#45;7</title>
<path fill="none" stroke="black" d="M751,-174C751,-160.48 747.79,-145.7 744.45,-133.97"/>
<polygon fill="black" stroke="black" points="747.38,-135.01 743.02,-132 744.55,-137.07 747.38,-135.01"/>
</g>
<!-- function&#45;1&#45;RegVal&#45;&gt;primitive&#45;String&#45;2 -->
<g id="edge7" class="edge">
<title>function&#45;1&#45;RegVal:s&#45;&gt;primitive&#45;String&#45;2</title>
<path fill="none" stroke="black" d="M44,-174C44,-160.84 44,-146.11 44,-134.3"/>
<polygon fill="black" stroke="black" points="45.75,-137 44,-132 42.25,-137 45.75,-137"/>
</g>
<!-- function&#45;2&#45;Sw&#45;&gt;function&#45;2&#45;ImmVal -->
<g id="edge10" class="edge">
<title>function&#45;2&#45;Sw:s&#45;&gt;function&#45;2&#45;ImmVal</title>
<path fill="none" stroke="black" d="M268,-253C268,-246.52 241.33,-226.64 218.98,-211.12"/>
<polygon fill="black" stroke="black" points="223.02,-209.78 217.87,-211 222.66,-213.26 223.02,-209.78"/>
</g>
<!-- function&#45;2&#45;Sw&#45;&gt;function&#45;4&#45;RegVal -->
<g id="edge8" class="edge">
<title>function&#45;2&#45;Sw:s&#45;&gt;function&#45;4&#45;RegVal</title>
<path fill="none" stroke="black" d="M249,-253C249,-246.36 276.68,-226.51 299.88,-211.04"/>
<polygon fill="black" stroke="black" points="295.42,-213.39 300.15,-211 294.96,-209.92 295.42,-213.39"/>
</g>
<!-- function&#45;2&#45;Sw&#45;&gt;function&#45;2&#45;RegVal -->
<g id="edge9" class="edge">
<title>function&#45;2&#45;Sw:s&#45;&gt;function&#45;2&#45;RegVal</title>
<path fill="none" stroke="black" d="M261,-253C261,-239.84 261,-225.11 261,-213.3"/>
<polygon fill="black" stroke="black" points="262.75,-216 261,-211 259.25,-216 262.75,-216"/>
</g>
<!-- function&#45;4&#45;RegVal&#45;&gt;primitive&#45;String&#45;5 -->
<g id="edge26" class="edge">
<title>function&#45;4&#45;RegVal:s&#45;&gt;primitive&#45;String&#45;5</title>
<path fill="none" stroke="black" d="M332,-174C332,-160.84 332,-146.11 332,-134.3"/>
<polygon fill="black" stroke="black" points="333.75,-137 332,-132 330.25,-137 333.75,-137"/>
</g>
<!-- function&#45;2&#45;RegVal&#45;&gt;primitive&#45;String&#45;3 -->
<g id="edge15" class="edge">
<title>function&#45;2&#45;RegVal:s&#45;&gt;primitive&#45;String&#45;3</title>
<path fill="none" stroke="black" d="M262,-174C262,-160.84 262,-146.11 262,-134.3"/>
<polygon fill="black" stroke="black" points="263.75,-137 262,-132 260.25,-137 263.75,-137"/>
</g>
<!-- function&#45;0&#45;RegVal&#45;&gt;primitive&#45;String&#45;1 -->
<g id="edge11" class="edge">
<title>function&#45;0&#45;RegVal:s&#45;&gt;primitive&#45;String&#45;1</title>
<path fill="none" stroke="black" d="M546,-174C546,-160.84 546,-146.11 546,-134.3"/>
<polygon fill="black" stroke="black" points="547.75,-137 546,-132 544.25,-137 547.75,-137"/>
</g>
<!-- function&#45;1&#45;Sw&#45;&gt;function&#45;1&#45;ImmVal -->
<g id="edge14" class="edge">
<title>function&#45;1&#45;Sw:s&#45;&gt;function&#45;1&#45;ImmVal</title>
<path fill="none" stroke="black" d="M408,-253C408,-242.22 426.97,-224.99 444.41,-211.43"/>
<polygon fill="black" stroke="black" points="441.54,-214.16 445.8,-211 440.5,-210.82 441.54,-214.16"/>
</g>
<!-- function&#45;1&#45;Sw&#45;&gt;function&#45;4&#45;RegVal -->
<g id="edge12" class="edge">
<title>function&#45;1&#45;Sw:s&#45;&gt;function&#45;4&#45;RegVal</title>
<path fill="none" stroke="black" d="M389,-253C389,-235.77 376.9,-221.35 363.76,-210.76"/>
<polygon fill="black" stroke="black" points="367.2,-212.82 363,-209.6 364.28,-214.74 367.2,-212.82"/>
</g>
<!-- function&#45;1&#45;Sw&#45;&gt;function&#45;3&#45;RegVal -->
<g id="edge13" class="edge">
<title>function&#45;1&#45;Sw:s&#45;&gt;function&#45;3&#45;RegVal</title>
<path fill="none" stroke="black" d="M401,-253C401,-239.84 401,-225.11 401,-213.3"/>
<polygon fill="black" stroke="black" points="402.75,-216 401,-211 399.25,-216 402.75,-216"/>
</g>
<!-- function&#45;3&#45;RegVal&#45;&gt;primitive&#45;String&#45;4 -->
<g id="edge25" class="edge">
<title>function&#45;3&#45;RegVal:s&#45;&gt;primitive&#45;String&#45;4</title>
<path fill="none" stroke="black" d="M402,-174C402,-160.84 402,-146.11 402,-134.3"/>
<polygon fill="black" stroke="black" points="403.75,-137 402,-132 400.25,-137 403.75,-137"/>
</g>
<!-- function&#45;3&#45;Sw&#45;&gt;function&#45;3&#45;ImmVal -->
<g id="edge18" class="edge">
<title>function&#45;3&#45;Sw:s&#45;&gt;function&#45;3&#45;ImmVal</title>
<path fill="none" stroke="black" d="M552,-253C552,-242.22 570.97,-224.99 588.41,-211.43"/>
<polygon fill="black" stroke="black" points="585.54,-214.16 589.8,-211 584.5,-210.82 585.54,-214.16"/>
</g>
<!-- function&#45;3&#45;Sw&#45;&gt;function&#45;4&#45;RegVal -->
<g id="edge16" class="edge">
<title>function&#45;3&#45;Sw:s&#45;&gt;function&#45;4&#45;RegVal</title>
<path fill="none" stroke="black" d="M533,-253C533,-177.65 437.58,-242.94 368,-214 367.46,-213.78 366.92,-213.54 366.38,-213.31"/>
<polygon fill="black" stroke="black" points="366.79,-211.56 361.52,-211 365.29,-214.72 366.79,-211.56"/>
</g>
<!-- function&#45;3&#45;Sw&#45;&gt;function&#45;0&#45;RegVal -->
<g id="edge17" class="edge">
<title>function&#45;3&#45;Sw:s&#45;&gt;function&#45;0&#45;RegVal</title>
<path fill="none" stroke="black" d="M545,-253C545,-239.84 545,-225.11 545,-213.3"/>
<polygon fill="black" stroke="black" points="546.75,-216 545,-211 543.25,-216 546.75,-216"/>
</g>
<!-- function&#45;0&#45;Auipc&#45;&gt;function&#45;0&#45;ImmLabel -->
<g id="edge19" class="edge">
<title>function&#45;0&#45;Auipc:s&#45;&gt;function&#45;0&#45;ImmLabel</title>
<path fill="none" stroke="black" d="M855,-174C855,-160.48 858.21,-145.7 861.55,-133.97"/>
<polygon fill="black" stroke="black" points="861.45,-137.07 862.98,-132 858.62,-135.01 861.45,-137.07"/>
</g>
<!-- function&#45;0&#45;Sw&#45;&gt;function&#45;0&#45;ImmVal -->
<g id="edge22" class="edge">
<title>function&#45;0&#45;Sw:s&#45;&gt;function&#45;0&#45;ImmVal</title>
<path fill="none" stroke="black" d="M115,-253C115,-239.84 115,-225.11 115,-213.3"/>
<polygon fill="black" stroke="black" points="116.75,-216 115,-211 113.25,-216 116.75,-216"/>
</g>
<!-- function&#45;0&#45;Sw&#45;&gt;function&#45;1&#45;RegVal -->
<g id="edge21" class="edge">
<title>function&#45;0&#45;Sw:s&#45;&gt;function&#45;1&#45;RegVal</title>
<path fill="none" stroke="black" d="M108,-253C108,-242.22 89.03,-224.99 71.59,-211.43"/>
<polygon fill="black" stroke="black" points="75.5,-210.82 70.2,-211 74.46,-214.16 75.5,-210.82"/>
</g>
<!-- function&#45;0&#45;Sw&#45;&gt;function&#45;4&#45;RegVal -->
<g id="edge20" class="edge">
<title>function&#45;0&#45;Sw:s&#45;&gt;function&#45;4&#45;RegVal</title>
<path fill="none" stroke="black" d="M96,-253C96,-208.15 252.28,-230.44 294,-214 294.7,-213.72 295.4,-213.44 296.1,-213.14"/>
<polygon fill="black" stroke="black" points="296.92,-214.69 300.72,-211 295.45,-211.51 296.92,-214.69"/>
</g>
<!-- function&#45;0&#45;Jalr&#45;&gt;function&#45;1&#45;ImmLabel -->
<g id="edge24" class="edge">
<title>function&#45;0&#45;Jalr:s&#45;&gt;function&#45;1&#45;ImmLabel</title>
<path fill="none" stroke="black" d="M810,-253C810,-235.9 798.06,-221.71 784.84,-211.25"/>
<polygon fill="black" stroke="black" points="788.96,-210.38 783.7,-211 788.2,-213.79 788.96,-210.38"/>
</g>
<!-- function&#45;0&#45;Jalr&#45;&gt;function&#45;0&#45;Auipc -->
<g id="edge23" class="edge">
<title>function&#45;0&#45;Jalr:s&#45;&gt;function&#45;0&#45;Auipc</title>
<path fill="none" stroke="black" d="M794,-253C794,-234.09 808.6,-218.85 823.51,-208.2"/>
<polygon fill="black" stroke="black" points="823.26,-211.33 825,-206.33 820.52,-209.15 823.26,-211.33"/>
</g>
<!-- function&#45;0&#45;ImmVal -->
<g id="node1" class="node">
<title>function&#45;0&#45;ImmVal</title>
<g id="a_node1"><a xlink:title="Imm&#45;5: function&#45;0&#45;ImmVal">
<path fill="white" stroke="transparent" d="M94.67,-174C94.67,-174 135.33,-174 135.33,-174 140.67,-174 146,-179.33 146,-184.67 146,-184.67 146,-195.33 146,-195.33 146,-200.67 140.67,-206 135.33,-206 135.33,-206 94.67,-206 94.67,-206 89.33,-206 84,-200.67 84,-195.33 84,-195.33 84,-184.67 84,-184.67 84,-179.33 89.33,-174 94.67,-174"/>
<text text-anchor="start" x="89" y="-186.3" font-family="Helvetica,sans-Serif" font-size="14.00">ImmVal</text>
<path fill="none" stroke="black" d="M94.67,-174C94.67,-174 135.33,-174 135.33,-174 140.67,-174 146,-179.33 146,-184.67 146,-184.67 146,-195.33 146,-195.33 146,-200.67 140.67,-206 135.33,-206 135.33,-206 94.67,-206 94.67,-206 89.33,-206 84,-200.67 84,-195.33 84,-195.33 84,-184.67 84,-184.67 84,-179.33 89.33,-174 94.67,-174"/>
</a>
</g>
</g>
<!-- primitive&#45;i64&#45;12 -->
<g id="node2" class="node">
<title>primitive&#45;i64&#45;12</title>
<g id="a_node2"><a xlink:title="i64&#45;12: primitive&#45;i64&#45;12">
<path fill="white" stroke="transparent" d="M109.67,-95C109.67,-95 120.33,-95 120.33,-95 125.67,-95 131,-100.33 131,-105.67 131,-105.67 131,-116.33 131,-116.33 131,-121.67 125.67,-127 120.33,-127 120.33,-127 109.67,-127 109.67,-127 104.33,-127 99,-121.67 99,-116.33 99,-116.33 99,-105.67 99,-105.67 99,-100.33 104.33,-95 109.67,-95"/>
<text text-anchor="start" x="105.5" y="-107.3" font-family="Helvetica,sans-Serif" font-size="14.00">12</text>
<path fill="none" stroke="black" d="M109.67,-95C109.67,-95 120.33,-95 120.33,-95 125.67,-95 131,-100.33 131,-105.67 131,-105.67 131,-116.33 131,-116.33 131,-121.67 125.67,-127 120.33,-127 120.33,-127 109.67,-127 109.67,-127 104.33,-127 99,-121.67 99,-116.33 99,-116.33 99,-105.67 99,-105.67 99,-100.33 104.33,-95 109.67,-95"/>
</a>
</g>
</g>
<!-- function&#45;1&#45;ImmVal -->
<g id="node3" class="node">
<title>function&#45;1&#45;ImmVal</title>
<g id="a_node3"><a xlink:title="Imm&#45;7: function&#45;1&#45;ImmVal">
<path fill="white" stroke="transparent" d="M452.67,-174C452.67,-174 493.33,-174 493.33,-174 498.67,-174 504,-179.33 504,-184.67 504,-184.67 504,-195.33 504,-195.33 504,-200.67 498.67,-206 493.33,-206 493.33,-206 452.67,-206 452.67,-206 447.33,-206 442,-200.67 442,-195.33 442,-195.33 442,-184.67 442,-184.67 442,-179.33 447.33,-174 452.67,-174"/>
<text text-anchor="start" x="447" y="-186.3" font-family="Helvetica,sans-Serif" font-size="14.00">ImmVal</text>
<path fill="none" stroke="black" d="M452.67,-174C452.67,-174 493.33,-174 493.33,-174 498.67,-174 504,-179.33 504,-184.67 504,-184.67 504,-195.33 504,-195.33 504,-200.67 498.67,-206 493.33,-206 493.33,-206 452.67,-206 452.67,-206 447.33,-206 442,-200.67 442,-195.33 442,-195.33 442,-184.67 442,-184.67 442,-179.33 447.33,-174 452.67,-174"/>
</a>
</g>
</g>
<!-- primitive&#45;i64&#45;8 -->
<g id="node4" class="node">
<title>primitive&#45;i64&#45;8</title>
<g id="a_node4"><a xlink:title="i64&#45;8: primitive&#45;i64&#45;8">
<path fill="white" stroke="transparent" d="M467.67,-95C467.67,-95 478.33,-95 478.33,-95 483.67,-95 489,-100.33 489,-105.67 489,-105.67 489,-116.33 489,-116.33 489,-121.67 483.67,-127 478.33,-127 478.33,-127 467.67,-127 467.67,-127 462.33,-127 457,-121.67 457,-116.33 457,-116.33 457,-105.67 457,-105.67 457,-100.33 462.33,-95 467.67,-95"/>
<text text-anchor="start" x="468" y="-107.3" font-family="Helvetica,sans-Serif" font-size="14.00">8</text>
<path fill="none" stroke="black" d="M467.67,-95C467.67,-95 478.33,-95 478.33,-95 483.67,-95 489,-100.33 489,-105.67 489,-105.67 489,-116.33 489,-116.33 489,-121.67 483.67,-127 478.33,-127 478.33,-127 467.67,-127 467.67,-127 462.33,-127 457,-121.67 457,-116.33 457,-116.33 457,-105.67 457,-105.67 457,-100.33 462.33,-95 467.67,-95"/>
</a>
</g>
</g>
<!-- function&#45;2&#45;ImmVal -->
<g id="node5" class="node">
<title>function&#45;2&#45;ImmVal</title>
<g id="a_node5"><a xlink:title="Imm&#45;9: function&#45;2&#45;ImmVal">
<path fill="white" stroke="transparent" d="M168.67,-174C168.67,-174 209.33,-174 209.33,-174 214.67,-174 220,-179.33 220,-184.67 220,-184.67 220,-195.33 220,-195.33 220,-200.67 214.67,-206 209.33,-206 209.33,-206 168.67,-206 168.67,-206 163.33,-206 158,-200.67 158,-195.33 158,-195.33 158,-184.67 158,-184.67 158,-179.33 163.33,-174 168.67,-174"/>
<text text-anchor="start" x="163" y="-186.3" font-family="Helvetica,sans-Serif" font-size="14.00">ImmVal</text>
<path fill="none" stroke="black" d="M168.67,-174C168.67,-174 209.33,-174 209.33,-174 214.67,-174 220,-179.33 220,-184.67 220,-184.67 220,-195.33 220,-195.33 220,-200.67 214.67,-206 209.33,-206 209.33,-206 168.67,-206 168.67,-206 163.33,-206 158,-200.67 158,-195.33 158,-195.33 158,-184.67 158,-184.67 158,-179.33 163.33,-174 168.67,-174"/>
</a>
</g>
</g>
<!-- primitive&#45;i64&#45;4 -->
<g id="node6" class="node">
<title>primitive&#45;i64&#45;4</title>
<g id="a_node6"><a xlink:title="i64&#45;4: primitive&#45;i64&#45;4">
<path fill="white" stroke="transparent" d="M183.67,-95C183.67,-95 194.33,-95 194.33,-95 199.67,-95 205,-100.33 205,-105.67 205,-105.67 205,-116.33 205,-116.33 205,-121.67 199.67,-127 194.33,-127 194.33,-127 183.67,-127 183.67,-127 178.33,-127 173,-121.67 173,-116.33 173,-116.33 173,-105.67 173,-105.67 173,-100.33 178.33,-95 183.67,-95"/>
<text text-anchor="start" x="184" y="-107.3" font-family="Helvetica,sans-Serif" font-size="14.00">4</text>
<path fill="none" stroke="black" d="M183.67,-95C183.67,-95 194.33,-95 194.33,-95 199.67,-95 205,-100.33 205,-105.67 205,-105.67 205,-116.33 205,-116.33 205,-121.67 199.67,-127 194.33,-127 194.33,-127 183.67,-127 183.67,-127 178.33,-127 173,-121.67 173,-116.33 173,-116.33 173,-105.67 173,-105.67 173,-100.33 178.33,-95 183.67,-95"/>
</a>
</g>
</g>
<!-- function&#45;3&#45;ImmVal -->
<g id="node7" class="node">
<title>function&#45;3&#45;ImmVal</title>
<g id="a_node7"><a xlink:title="Imm&#45;11: function&#45;3&#45;ImmVal">
<path fill="white" stroke="transparent" d="M596.67,-174C596.67,-174 637.33,-174 637.33,-174 642.67,-174 648,-179.33 648,-184.67 648,-184.67 648,-195.33 648,-195.33 648,-200.67 642.67,-206 637.33,-206 637.33,-206 596.67,-206 596.67,-206 591.33,-206 586,-200.67 586,-195.33 586,-195.33 586,-184.67 586,-184.67 586,-179.33 591.33,-174 596.67,-174"/>
<text text-anchor="start" x="591" y="-186.3" font-family="Helvetica,sans-Serif" font-size="14.00">ImmVal</text>
<path fill="none" stroke="black" d="M596.67,-174C596.67,-174 637.33,-174 637.33,-174 642.67,-174 648,-179.33 648,-184.67 648,-184.67 648,-195.33 648,-195.33 648,-200.67 642.67,-206 637.33,-206 637.33,-206 596.67,-206 596.67,-206 591.33,-206 586,-200.67 586,-195.33 586,-195.33 586,-184.67 586,-184.67 586,-179.33 591.33,-174 596.67,-174"/>
</a>
</g>
</g>
<!-- primitive&#45;i64&#45;0 -->
<g id="node8" class="node">
<title>primitive&#45;i64&#45;0</title>
<g id="a_node8"><a xlink:title="i64&#45;0: primitive&#45;i64&#45;0">
<path fill="white" stroke="transparent" d="M611.67,-95C611.67,-95 622.33,-95 622.33,-95 627.67,-95 633,-100.33 633,-105.67 633,-105.67 633,-116.33 633,-116.33 633,-121.67 627.67,-127 622.33,-127 622.33,-127 611.67,-127 611.67,-127 606.33,-127 601,-121.67 601,-116.33 601,-116.33 601,-105.67 601,-105.67 601,-100.33 606.33,-95 611.67,-95"/>
<text text-anchor="start" x="612" y="-107.3" font-family="Helvetica,sans-Serif" font-size="14.00">0</text>
<path fill="none" stroke="black" d="M611.67,-95C611.67,-95 622.33,-95 622.33,-95 627.67,-95 633,-100.33 633,-105.67 633,-105.67 633,-116.33 633,-116.33 633,-121.67 627.67,-127 622.33,-127 622.33,-127 611.67,-127 611.67,-127 606.33,-127 601,-121.67 601,-116.33 601,-116.33 601,-105.67 601,-105.67 601,-100.33 606.33,-95 611.67,-95"/>
</a>
</g>
</g>
<!-- function&#45;0&#45;ImmLabel -->
<g id="node9" class="node">
<title>function&#45;0&#45;ImmLabel</title>
<g id="a_node9"><a xlink:title="Imm&#45;13: function&#45;0&#45;ImmLabel">
<path fill="white" stroke="transparent" d="M840.17,-95C840.17,-95 897.83,-95 897.83,-95 903.17,-95 908.5,-100.33 908.5,-105.67 908.5,-105.67 908.5,-116.33 908.5,-116.33 908.5,-121.67 903.17,-127 897.83,-127 897.83,-127 840.17,-127 840.17,-127 834.83,-127 829.5,-121.67 829.5,-116.33 829.5,-116.33 829.5,-105.67 829.5,-105.67 829.5,-100.33 834.83,-95 840.17,-95"/>
<text text-anchor="start" x="835" y="-107.3" font-family="Helvetica,sans-Serif" font-size="14.00">ImmLabel</text>
<path fill="none" stroke="black" d="M840.17,-95C840.17,-95 897.83,-95 897.83,-95 903.17,-95 908.5,-100.33 908.5,-105.67 908.5,-105.67 908.5,-116.33 908.5,-116.33 908.5,-121.67 903.17,-127 897.83,-127 897.83,-127 840.17,-127 840.17,-127 834.83,-127 829.5,-121.67 829.5,-116.33 829.5,-116.33 829.5,-105.67 829.5,-105.67 829.5,-100.33 834.83,-95 840.17,-95"/>
</a>
</g>
</g>
<!-- primitive&#45;String&#45;6 -->
<g id="node10" class="node">
<title>primitive&#45;String&#45;6</title>
<g id="a_node10"><a xlink:title="String&#45;6: primitive&#45;String&#45;6">
<path fill="white" stroke="transparent" d="M794.17,-16C794.17,-16 945.83,-16 945.83,-16 951.17,-16 956.5,-21.33 956.5,-26.67 956.5,-26.67 956.5,-37.33 956.5,-37.33 956.5,-42.67 951.17,-48 945.83,-48 945.83,-48 794.17,-48 794.17,-48 788.83,-48 783.5,-42.67 783.5,-37.33 783.5,-37.33 783.5,-26.67 783.5,-26.67 783.5,-21.33 788.83,-16 794.17,-16"/>
<text text-anchor="start" x="789" y="-28.3" font-family="Helvetica,sans-Serif" font-size="14.00">&quot;%pcrel_hi(print_path)&quot;</text>
<path fill="none" stroke="black" d="M794.17,-16C794.17,-16 945.83,-16 945.83,-16 951.17,-16 956.5,-21.33 956.5,-26.67 956.5,-26.67 956.5,-37.33 956.5,-37.33 956.5,-42.67 951.17,-48 945.83,-48 945.83,-48 794.17,-48 794.17,-48 788.83,-48 783.5,-42.67 783.5,-37.33 783.5,-37.33 783.5,-26.67 783.5,-26.67 783.5,-21.33 788.83,-16 794.17,-16"/>
</a>
</g>
</g>
<!-- function&#45;1&#45;ImmLabel -->
<g id="node11" class="node">
<title>function&#45;1&#45;ImmLabel</title>
<g id="a_node11"><a xlink:title="Imm&#45;15: function&#45;1&#45;ImmLabel">
<path fill="white" stroke="transparent" d="M721.17,-174C721.17,-174 778.83,-174 778.83,-174 784.17,-174 789.5,-179.33 789.5,-184.67 789.5,-184.67 789.5,-195.33 789.5,-195.33 789.5,-200.67 784.17,-206 778.83,-206 778.83,-206 721.17,-206 721.17,-206 715.83,-206 710.5,-200.67 710.5,-195.33 710.5,-195.33 710.5,-184.67 710.5,-184.67 710.5,-179.33 715.83,-174 721.17,-174"/>
<text text-anchor="start" x="716" y="-186.3" font-family="Helvetica,sans-Serif" font-size="14.00">ImmLabel</text>
<path fill="none" stroke="black" d="M721.17,-174C721.17,-174 778.83,-174 778.83,-174 784.17,-174 789.5,-179.33 789.5,-184.67 789.5,-184.67 789.5,-195.33 789.5,-195.33 789.5,-200.67 784.17,-206 778.83,-206 778.83,-206 721.17,-206 721.17,-206 715.83,-206 710.5,-200.67 710.5,-195.33 710.5,-195.33 710.5,-184.67 710.5,-184.67 710.5,-179.33 715.83,-174 721.17,-174"/>
</a>
</g>
</g>
<!-- primitive&#45;String&#45;7 -->
<g id="node12" class="node">
<title>primitive&#45;String&#45;7</title>
<g id="a_node12"><a xlink:title="String&#45;7: primitive&#45;String&#45;7">
<path fill="white" stroke="transparent" d="M666.67,-95C666.67,-95 807.33,-95 807.33,-95 812.67,-95 818,-100.33 818,-105.67 818,-105.67 818,-116.33 818,-116.33 818,-121.67 812.67,-127 807.33,-127 807.33,-127 666.67,-127 666.67,-127 661.33,-127 656,-121.67 656,-116.33 656,-116.33 656,-105.67 656,-105.67 656,-100.33 661.33,-95 666.67,-95"/>
<text text-anchor="start" x="661" y="-107.3" font-family="Helvetica,sans-Serif" font-size="14.00">&quot;%pcrel_lo(.Lpcrel_5)&quot;</text>
<path fill="none" stroke="black" d="M666.67,-95C666.67,-95 807.33,-95 807.33,-95 812.67,-95 818,-100.33 818,-105.67 818,-105.67 818,-116.33 818,-116.33 818,-121.67 812.67,-127 807.33,-127 807.33,-127 666.67,-127 666.67,-127 661.33,-127 656,-121.67 656,-116.33 656,-116.33 656,-105.67 656,-105.67 656,-100.33 661.33,-95 666.67,-95"/>
</a>
</g>
</g>
<!-- function&#45;1&#45;RegVal -->
<g id="node13" class="node">
<title>function&#45;1&#45;RegVal</title>
<g id="a_node13"><a xlink:title="Inst&#45;1: function&#45;1&#45;RegVal">
<path fill="white" stroke="transparent" d="M25.17,-174C25.17,-174 60.83,-174 60.83,-174 66.17,-174 71.5,-179.33 71.5,-184.67 71.5,-184.67 71.5,-195.33 71.5,-195.33 71.5,-200.67 66.17,-206 60.83,-206 60.83,-206 25.17,-206 25.17,-206 19.83,-206 14.5,-200.67 14.5,-195.33 14.5,-195.33 14.5,-184.67 14.5,-184.67 14.5,-179.33 19.83,-174 25.17,-174"/>
<text text-anchor="start" x="20" y="-186.3" font-family="Helvetica,sans-Serif" font-size="14.00">RegVal</text>
<path fill="none" stroke="black" d="M25.17,-174C25.17,-174 60.83,-174 60.83,-174 66.17,-174 71.5,-179.33 71.5,-184.67 71.5,-184.67 71.5,-195.33 71.5,-195.33 71.5,-200.67 66.17,-206 60.83,-206 60.83,-206 25.17,-206 25.17,-206 19.83,-206 14.5,-200.67 14.5,-195.33 14.5,-195.33 14.5,-184.67 14.5,-184.67 14.5,-179.33 19.83,-174 25.17,-174"/>
</a>
</g>
</g>
<!-- primitive&#45;String&#45;2 -->
<g id="node14" class="node">
<title>primitive&#45;String&#45;2</title>
<g id="a_node14"><a xlink:title="String&#45;2: primitive&#45;String&#45;2">
<path fill="white" stroke="transparent" d="M26.17,-95C26.17,-95 61.83,-95 61.83,-95 67.17,-95 72.5,-100.33 72.5,-105.67 72.5,-105.67 72.5,-116.33 72.5,-116.33 72.5,-121.67 67.17,-127 61.83,-127 61.83,-127 26.17,-127 26.17,-127 20.83,-127 15.5,-121.67 15.5,-116.33 15.5,-116.33 15.5,-105.67 15.5,-105.67 15.5,-100.33 20.83,-95 26.17,-95"/>
<text text-anchor="start" x="21" y="-107.3" font-family="Helvetica,sans-Serif" font-size="14.00">&quot;a3_0&quot;</text>
<path fill="none" stroke="black" d="M26.17,-95C26.17,-95 61.83,-95 61.83,-95 67.17,-95 72.5,-100.33 72.5,-105.67 72.5,-105.67 72.5,-116.33 72.5,-116.33 72.5,-121.67 67.17,-127 61.83,-127 61.83,-127 26.17,-127 26.17,-127 20.83,-127 15.5,-121.67 15.5,-116.33 15.5,-116.33 15.5,-105.67 15.5,-105.67 15.5,-100.33 20.83,-95 26.17,-95"/>
</a>
</g>
</g>
<!-- function&#45;2&#45;Sw -->
<g id="node15" class="node">
<title>function&#45;2&#45;Sw</title>
<g id="a_node15"><a xlink:title="Inst&#45;10: function&#45;2&#45;Sw">
<path fill="white" stroke="transparent" d="M251.67,-253C251.67,-253 262.33,-253 262.33,-253 267.67,-253 273,-258.33 273,-263.67 273,-263.67 273,-274.33 273,-274.33 273,-279.67 267.67,-285 262.33,-285 262.33,-285 251.67,-285 251.67,-285 246.33,-285 241,-279.67 241,-274.33 241,-274.33 241,-263.67 241,-263.67 241,-258.33 246.33,-253 251.67,-253"/>
<text text-anchor="start" x="246.5" y="-265.3" font-family="Helvetica,sans-Serif" font-size="14.00">Sw</text>
<path fill="none" stroke="black" d="M251.67,-253C251.67,-253 262.33,-253 262.33,-253 267.67,-253 273,-258.33 273,-263.67 273,-263.67 273,-274.33 273,-274.33 273,-279.67 267.67,-285 262.33,-285 262.33,-285 251.67,-285 251.67,-285 246.33,-285 241,-279.67 241,-274.33 241,-274.33 241,-263.67 241,-263.67 241,-258.33 246.33,-253 251.67,-253"/>
</a>
</g>
</g>
<!-- function&#45;4&#45;RegVal -->
<g id="node16" class="node">
<title>function&#45;4&#45;RegVal</title>
<g id="a_node16"><a xlink:title="Inst&#45;4: function&#45;4&#45;RegVal">
<path fill="white" stroke="transparent" d="M313.17,-174C313.17,-174 348.83,-174 348.83,-174 354.17,-174 359.5,-179.33 359.5,-184.67 359.5,-184.67 359.5,-195.33 359.5,-195.33 359.5,-200.67 354.17,-206 348.83,-206 348.83,-206 313.17,-206 313.17,-206 307.83,-206 302.5,-200.67 302.5,-195.33 302.5,-195.33 302.5,-184.67 302.5,-184.67 302.5,-179.33 307.83,-174 313.17,-174"/>
<text text-anchor="start" x="308" y="-186.3" font-family="Helvetica,sans-Serif" font-size="14.00">RegVal</text>
<path fill="none" stroke="black" d="M313.17,-174C313.17,-174 348.83,-174 348.83,-174 354.17,-174 359.5,-179.33 359.5,-184.67 359.5,-184.67 359.5,-195.33 359.5,-195.33 359.5,-200.67 354.17,-206 348.83,-206 348.83,-206 313.17,-206 313.17,-206 307.83,-206 302.5,-200.67 302.5,-195.33 302.5,-195.33 302.5,-184.67 302.5,-184.67 302.5,-179.33 307.83,-174 313.17,-174"/>
</a>
</g>
</g>
<!-- function&#45;2&#45;RegVal -->
<g id="node17" class="node">
<title>function&#45;2&#45;RegVal</title>
<g id="a_node17"><a xlink:title="Inst&#45;2: function&#45;2&#45;RegVal">
<path fill="white" stroke="transparent" d="M243.17,-174C243.17,-174 278.83,-174 278.83,-174 284.17,-174 289.5,-179.33 289.5,-184.67 289.5,-184.67 289.5,-195.33 289.5,-195.33 289.5,-200.67 284.17,-206 278.83,-206 278.83,-206 243.17,-206 243.17,-206 237.83,-206 232.5,-200.67 232.5,-195.33 232.5,-195.33 232.5,-184.67 232.5,-184.67 232.5,-179.33 237.83,-174 243.17,-174"/>
<text text-anchor="start" x="238" y="-186.3" font-family="Helvetica,sans-Serif" font-size="14.00">RegVal</text>
<path fill="none" stroke="black" d="M243.17,-174C243.17,-174 278.83,-174 278.83,-174 284.17,-174 289.5,-179.33 289.5,-184.67 289.5,-184.67 289.5,-195.33 289.5,-195.33 289.5,-200.67 284.17,-206 278.83,-206 278.83,-206 243.17,-206 243.17,-206 237.83,-206 232.5,-200.67 232.5,-195.33 232.5,-195.33 232.5,-184.67 232.5,-184.67 232.5,-179.33 237.83,-174 243.17,-174"/>
</a>
</g>
</g>
<!-- function&#45;0&#45;RegVal -->
<g id="node18" class="node">
<title>function&#45;0&#45;RegVal</title>
<g id="a_node18"><a xlink:title="Inst&#45;0: function&#45;0&#45;RegVal">
<path fill="white" stroke="transparent" d="M527.17,-174C527.17,-174 562.83,-174 562.83,-174 568.17,-174 573.5,-179.33 573.5,-184.67 573.5,-184.67 573.5,-195.33 573.5,-195.33 573.5,-200.67 568.17,-206 562.83,-206 562.83,-206 527.17,-206 527.17,-206 521.83,-206 516.5,-200.67 516.5,-195.33 516.5,-195.33 516.5,-184.67 516.5,-184.67 516.5,-179.33 521.83,-174 527.17,-174"/>
<text text-anchor="start" x="522" y="-186.3" font-family="Helvetica,sans-Serif" font-size="14.00">RegVal</text>
<path fill="none" stroke="black" d="M527.17,-174C527.17,-174 562.83,-174 562.83,-174 568.17,-174 573.5,-179.33 573.5,-184.67 573.5,-184.67 573.5,-195.33 573.5,-195.33 573.5,-200.67 568.17,-206 562.83,-206 562.83,-206 527.17,-206 527.17,-206 521.83,-206 516.5,-200.67 516.5,-195.33 516.5,-195.33 516.5,-184.67 516.5,-184.67 516.5,-179.33 521.83,-174 527.17,-174"/>
</a>
</g>
</g>
<!-- primitive&#45;String&#45;1 -->
<g id="node19" class="node">
<title>primitive&#45;String&#45;1</title>
<g id="a_node19"><a xlink:title="String&#45;1: primitive&#45;String&#45;1">
<path fill="white" stroke="transparent" d="M528.17,-95C528.17,-95 563.83,-95 563.83,-95 569.17,-95 574.5,-100.33 574.5,-105.67 574.5,-105.67 574.5,-116.33 574.5,-116.33 574.5,-121.67 569.17,-127 563.83,-127 563.83,-127 528.17,-127 528.17,-127 522.83,-127 517.5,-121.67 517.5,-116.33 517.5,-116.33 517.5,-105.67 517.5,-105.67 517.5,-100.33 522.83,-95 528.17,-95"/>
<text text-anchor="start" x="523" y="-107.3" font-family="Helvetica,sans-Serif" font-size="14.00">&quot;a2_0&quot;</text>
<path fill="none" stroke="black" d="M528.17,-95C528.17,-95 563.83,-95 563.83,-95 569.17,-95 574.5,-100.33 574.5,-105.67 574.5,-105.67 574.5,-116.33 574.5,-116.33 574.5,-121.67 569.17,-127 563.83,-127 563.83,-127 528.17,-127 528.17,-127 522.83,-127 517.5,-121.67 517.5,-116.33 517.5,-116.33 517.5,-105.67 517.5,-105.67 517.5,-100.33 522.83,-95 528.17,-95"/>
</a>
</g>
</g>
<!-- function&#45;1&#45;Sw -->
<g id="node20" class="node">
<title>function&#45;1&#45;Sw</title>
<g id="a_node20"><a xlink:title="Inst&#45;8: function&#45;1&#45;Sw">
<path fill="white" stroke="transparent" d="M391.67,-253C391.67,-253 402.33,-253 402.33,-253 407.67,-253 413,-258.33 413,-263.67 413,-263.67 413,-274.33 413,-274.33 413,-279.67 407.67,-285 402.33,-285 402.33,-285 391.67,-285 391.67,-285 386.33,-285 381,-279.67 381,-274.33 381,-274.33 381,-263.67 381,-263.67 381,-258.33 386.33,-253 391.67,-253"/>
<text text-anchor="start" x="386.5" y="-265.3" font-family="Helvetica,sans-Serif" font-size="14.00">Sw</text>
<path fill="none" stroke="black" d="M391.67,-253C391.67,-253 402.33,-253 402.33,-253 407.67,-253 413,-258.33 413,-263.67 413,-263.67 413,-274.33 413,-274.33 413,-279.67 407.67,-285 402.33,-285 402.33,-285 391.67,-285 391.67,-285 386.33,-285 381,-279.67 381,-274.33 381,-274.33 381,-263.67 381,-263.67 381,-258.33 386.33,-253 391.67,-253"/>
</a>
</g>
</g>
<!-- function&#45;3&#45;RegVal -->
<g id="node21" class="node">
<title>function&#45;3&#45;RegVal</title>
<g id="a_node21"><a xlink:title="Inst&#45;3: function&#45;3&#45;RegVal">
<path fill="white" stroke="transparent" d="M383.17,-174C383.17,-174 418.83,-174 418.83,-174 424.17,-174 429.5,-179.33 429.5,-184.67 429.5,-184.67 429.5,-195.33 429.5,-195.33 429.5,-200.67 424.17,-206 418.83,-206 418.83,-206 383.17,-206 383.17,-206 377.83,-206 372.5,-200.67 372.5,-195.33 372.5,-195.33 372.5,-184.67 372.5,-184.67 372.5,-179.33 377.83,-174 383.17,-174"/>
<text text-anchor="start" x="378" y="-186.3" font-family="Helvetica,sans-Serif" font-size="14.00">RegVal</text>
<path fill="none" stroke="black" d="M383.17,-174C383.17,-174 418.83,-174 418.83,-174 424.17,-174 429.5,-179.33 429.5,-184.67 429.5,-184.67 429.5,-195.33 429.5,-195.33 429.5,-200.67 424.17,-206 418.83,-206 418.83,-206 383.17,-206 383.17,-206 377.83,-206 372.5,-200.67 372.5,-195.33 372.5,-195.33 372.5,-184.67 372.5,-184.67 372.5,-179.33 377.83,-174 383.17,-174"/>
</a>
</g>
</g>
<!-- primitive&#45;String&#45;3 -->
<g id="node22" class="node">
<title>primitive&#45;String&#45;3</title>
<g id="a_node22"><a xlink:title="String&#45;3: primitive&#45;String&#45;3">
<path fill="white" stroke="transparent" d="M244.17,-95C244.17,-95 279.83,-95 279.83,-95 285.17,-95 290.5,-100.33 290.5,-105.67 290.5,-105.67 290.5,-116.33 290.5,-116.33 290.5,-121.67 285.17,-127 279.83,-127 279.83,-127 244.17,-127 244.17,-127 238.83,-127 233.5,-121.67 233.5,-116.33 233.5,-116.33 233.5,-105.67 233.5,-105.67 233.5,-100.33 238.83,-95 244.17,-95"/>
<text text-anchor="start" x="239" y="-107.3" font-family="Helvetica,sans-Serif" font-size="14.00">&quot;a6_0&quot;</text>
<path fill="none" stroke="black" d="M244.17,-95C244.17,-95 279.83,-95 279.83,-95 285.17,-95 290.5,-100.33 290.5,-105.67 290.5,-105.67 290.5,-116.33 290.5,-116.33 290.5,-121.67 285.17,-127 279.83,-127 279.83,-127 244.17,-127 244.17,-127 238.83,-127 233.5,-121.67 233.5,-116.33 233.5,-116.33 233.5,-105.67 233.5,-105.67 233.5,-100.33 238.83,-95 244.17,-95"/>
</a>
</g>
</g>
<!-- function&#45;3&#45;Sw -->
<g id="node23" class="node">
<title>function&#45;3&#45;Sw</title>
<g id="a_node23"><a xlink:title="Inst&#45;12: function&#45;3&#45;Sw">
<path fill="white" stroke="transparent" d="M535.67,-253C535.67,-253 546.33,-253 546.33,-253 551.67,-253 557,-258.33 557,-263.67 557,-263.67 557,-274.33 557,-274.33 557,-279.67 551.67,-285 546.33,-285 546.33,-285 535.67,-285 535.67,-285 530.33,-285 525,-279.67 525,-274.33 525,-274.33 525,-263.67 525,-263.67 525,-258.33 530.33,-253 535.67,-253"/>
<text text-anchor="start" x="530.5" y="-265.3" font-family="Helvetica,sans-Serif" font-size="14.00">Sw</text>
<path fill="none" stroke="black" d="M535.67,-253C535.67,-253 546.33,-253 546.33,-253 551.67,-253 557,-258.33 557,-263.67 557,-263.67 557,-274.33 557,-274.33 557,-279.67 551.67,-285 546.33,-285 546.33,-285 535.67,-285 535.67,-285 530.33,-285 525,-279.67 525,-274.33 525,-274.33 525,-263.67 525,-263.67 525,-258.33 530.33,-253 535.67,-253"/>
</a>
</g>
</g>
<!-- function&#45;0&#45;Auipc -->
<g id="node24" class="node">
<title>function&#45;0&#45;Auipc</title>
<g id="a_node24"><a xlink:title="Inst&#45;14: function&#45;0&#45;Auipc">
<path fill="white" stroke="transparent" d="M840.67,-174C840.67,-174 869.33,-174 869.33,-174 874.67,-174 880,-179.33 880,-184.67 880,-184.67 880,-195.33 880,-195.33 880,-200.67 874.67,-206 869.33,-206 869.33,-206 840.67,-206 840.67,-206 835.33,-206 830,-200.67 830,-195.33 830,-195.33 830,-184.67 830,-184.67 830,-179.33 835.33,-174 840.67,-174"/>
<text text-anchor="start" x="835" y="-186.3" font-family="Helvetica,sans-Serif" font-size="14.00">Auipc</text>
<path fill="none" stroke="black" d="M840.67,-174C840.67,-174 869.33,-174 869.33,-174 874.67,-174 880,-179.33 880,-184.67 880,-184.67 880,-195.33 880,-195.33 880,-200.67 874.67,-206 869.33,-206 869.33,-206 840.67,-206 840.67,-206 835.33,-206 830,-200.67 830,-195.33 830,-195.33 830,-184.67 830,-184.67 830,-179.33 835.33,-174 840.67,-174"/>
</a>
</g>
</g>
<!-- function&#45;0&#45;Sw -->
<g id="node25" class="node">
<title>function&#45;0&#45;Sw</title>
<g id="a_node25"><a xlink:title="Inst&#45;6: function&#45;0&#45;Sw">
<path fill="white" stroke="transparent" d="M98.67,-253C98.67,-253 109.33,-253 109.33,-253 114.67,-253 120,-258.33 120,-263.67 120,-263.67 120,-274.33 120,-274.33 120,-279.67 114.67,-285 109.33,-285 109.33,-285 98.67,-285 98.67,-285 93.33,-285 88,-279.67 88,-274.33 88,-274.33 88,-263.67 88,-263.67 88,-258.33 93.33,-253 98.67,-253"/>
<text text-anchor="start" x="93.5" y="-265.3" font-family="Helvetica,sans-Serif" font-size="14.00">Sw</text>
<path fill="none" stroke="black" d="M98.67,-253C98.67,-253 109.33,-253 109.33,-253 114.67,-253 120,-258.33 120,-263.67 120,-263.67 120,-274.33 120,-274.33 120,-279.67 114.67,-285 109.33,-285 109.33,-285 98.67,-285 98.67,-285 93.33,-285 88,-279.67 88,-274.33 88,-274.33 88,-263.67 88,-263.67 88,-258.33 93.33,-253 98.67,-253"/>
</a>
</g>
</g>
<!-- function&#45;0&#45;Jalr -->
<g id="node26" class="node">
<title>function&#45;0&#45;Jalr</title>
<g id="a_node26"><a xlink:title="Inst&#45;16: function&#45;0&#45;Jalr">
<path fill="white" stroke="transparent" d="M796.17,-253C796.17,-253 807.83,-253 807.83,-253 813.17,-253 818.5,-258.33 818.5,-263.67 818.5,-263.67 818.5,-274.33 818.5,-274.33 818.5,-279.67 813.17,-285 807.83,-285 807.83,-285 796.17,-285 796.17,-285 790.83,-285 785.5,-279.67 785.5,-274.33 785.5,-274.33 785.5,-263.67 785.5,-263.67 785.5,-258.33 790.83,-253 796.17,-253"/>
<text text-anchor="start" x="791" y="-265.3" font-family="Helvetica,sans-Serif" font-size="14.00">Jalr</text>
<path fill="none" stroke="black" d="M796.17,-253C796.17,-253 807.83,-253 807.83,-253 813.17,-253 818.5,-258.33 818.5,-263.67 818.5,-263.67 818.5,-274.33 818.5,-274.33 818.5,-279.67 813.17,-285 807.83,-285 807.83,-285 796.17,-285 796.17,-285 790.83,-285 785.5,-279.67 785.5,-274.33 785.5,-274.33 785.5,-263.67 785.5,-263.67 785.5,-258.33 790.83,-253 796.17,-253"/>
</a>
</g>
</g>
<!-- primitive&#45;String&#45;4 -->
<g id="node27" class="node">
<title>primitive&#45;String&#45;4</title>
<g id="a_node27"><a xlink:title="String&#45;4: primitive&#45;String&#45;4">
<path fill="white" stroke="transparent" d="M384.17,-95C384.17,-95 419.83,-95 419.83,-95 425.17,-95 430.5,-100.33 430.5,-105.67 430.5,-105.67 430.5,-116.33 430.5,-116.33 430.5,-121.67 425.17,-127 419.83,-127 419.83,-127 384.17,-127 384.17,-127 378.83,-127 373.5,-121.67 373.5,-116.33 373.5,-116.33 373.5,-105.67 373.5,-105.67 373.5,-100.33 378.83,-95 384.17,-95"/>
<text text-anchor="start" x="379" y="-107.3" font-family="Helvetica,sans-Serif" font-size="14.00">&quot;a7_0&quot;</text>
<path fill="none" stroke="black" d="M384.17,-95C384.17,-95 419.83,-95 419.83,-95 425.17,-95 430.5,-100.33 430.5,-105.67 430.5,-105.67 430.5,-116.33 430.5,-116.33 430.5,-121.67 425.17,-127 419.83,-127 419.83,-127 384.17,-127 384.17,-127 378.83,-127 373.5,-121.67 373.5,-116.33 373.5,-116.33 373.5,-105.67 373.5,-105.67 373.5,-100.33 378.83,-95 384.17,-95"/>
</a>
</g>
</g>
<!-- primitive&#45;String&#45;5 -->
<g id="node28" class="node">
<title>primitive&#45;String&#45;5</title>
<g id="a_node28"><a xlink:title="String&#45;5: primitive&#45;String&#45;5">
<path fill="white" stroke="transparent" d="M314.67,-95C314.67,-95 349.33,-95 349.33,-95 354.67,-95 360,-100.33 360,-105.67 360,-105.67 360,-116.33 360,-116.33 360,-121.67 354.67,-127 349.33,-127 349.33,-127 314.67,-127 314.67,-127 309.33,-127 304,-121.67 304,-116.33 304,-116.33 304,-105.67 304,-105.67 304,-100.33 309.33,-95 314.67,-95"/>
<text text-anchor="start" x="309" y="-107.3" font-family="Helvetica,sans-Serif" font-size="14.00">&quot;sp_0&quot;</text>
<path fill="none" stroke="black" d="M314.67,-95C314.67,-95 349.33,-95 349.33,-95 354.67,-95 360,-100.33 360,-105.67 360,-105.67 360,-116.33 360,-116.33 360,-121.67 354.67,-127 349.33,-127 349.33,-127 314.67,-127 314.67,-127 309.33,-127 304,-121.67 304,-116.33 304,-116.33 304,-105.67 304,-105.67 304,-100.33 309.33,-95 314.67,-95"/>
</a>
</g>
</g>
</g>
</svg>
