<?xml version="1.0" encoding="UTF-8" standalone="no"?>
<!DOCTYPE svg PUBLIC "-//W3C//DTD SVG 1.1//EN"
 "http://www.w3.org/Graphics/SVG/1.1/DTD/svg11.dtd">
<!-- Generated by graphviz version 2.43.0 (0)
 -->
<!-- Title: %3 Pages: 1 -->
<svg width="1092pt" height="230pt"
 viewBox="0.00 0.00 1092.00 230.00" xmlns="http://www.w3.org/2000/svg" xmlns:xlink="http://www.w3.org/1999/xlink">
<g id="graph0" class="graph" transform="scale(1 1) rotate(0) translate(4 226)">
<title>%3</title>
<polygon fill="white" stroke="#000000" points="-4,4 -4,-226 1088,-226 1088,4 -4,4"/>
<g id="clust1" class="cluster">
<title>outer_cluster_Imm&#45;11</title>
</g>
<g id="clust2" class="cluster">
<title>cluster_Imm&#45;11</title>
<path fill="#ffffb3" stroke="black" stroke-dasharray="5,2" d="M23,-90C23,-90 67,-90 67,-90 73,-90 79,-96 79,-102 79,-102 79,-120 79,-120 79,-126 73,-132 67,-132 67,-132 23,-132 23,-132 17,-132 11,-126 11,-120 11,-120 11,-102 11,-102 11,-96 17,-90 23,-90"/>
</g>
<g id="clust4" class="cluster">
<title>outer_cluster_Imm&#45;9</title>
</g>
<g id="clust5" class="cluster">
<title>cluster_Imm&#45;9</title>
<path fill="#ffffb3" stroke="black" stroke-dasharray="5,2" d="M451,-90C451,-90 495,-90 495,-90 501,-90 507,-96 507,-102 507,-102 507,-120 507,-120 507,-126 501,-132 495,-132 495,-132 451,-132 451,-132 445,-132 439,-126 439,-120 439,-120 439,-102 439,-102 439,-96 445,-90 451,-90"/>
</g>
<g id="clust7" class="cluster">
<title>outer_cluster_Imm&#45;13</title>
</g>
<g id="clust8" class="cluster">
<title>cluster_Imm&#45;13</title>
<path fill="#ffffb3" stroke="black" stroke-dasharray="5,2" d="M712,-90C712,-90 772,-90 772,-90 778,-90 784,-96 784,-102 784,-102 784,-120 784,-120 784,-126 778,-132 772,-132 772,-132 712,-132 712,-132 706,-132 700,-126 700,-120 700,-120 700,-102 700,-102 700,-96 706,-90 712,-90"/>
</g>
<g id="clust10" class="cluster">
<title>outer_cluster_Imm&#45;16</title>
</g>
<g id="clust11" class="cluster">
<title>cluster_Imm&#45;16</title>
<path fill="#ffffb3" stroke="black" stroke-dasharray="5,2" d="M848,-90C848,-90 908,-90 908,-90 914,-90 920,-96 920,-102 920,-102 920,-120 920,-120 920,-126 914,-132 908,-132 908,-132 848,-132 848,-132 842,-132 836,-126 836,-120 836,-120 836,-102 836,-102 836,-96 842,-90 848,-90"/>
</g>
<g id="clust13" class="cluster">
<title>outer_cluster_Imm&#45;7</title>
</g>
<g id="clust14" class="cluster">
<title>cluster_Imm&#45;7</title>
<path fill="#ffffb3" stroke="black" stroke-dasharray="5,2" d="M595,-90C595,-90 639,-90 639,-90 645,-90 651,-96 651,-102 651,-102 651,-120 651,-120 651,-126 645,-132 639,-132 639,-132 595,-132 595,-132 589,-132 583,-126 583,-120 583,-120 583,-102 583,-102 583,-96 589,-90 595,-90"/>
</g>
<g id="clust16" class="cluster">
<title>outer_cluster_Imm&#45;5</title>
</g>
<g id="clust17" class="cluster">
<title>cluster_Imm&#45;5</title>
<path fill="#ffffb3" stroke="black" stroke-dasharray="5,2" d="M167,-90C167,-90 211,-90 211,-90 217,-90 223,-96 223,-102 223,-102 223,-120 223,-120 223,-126 217,-132 211,-132 211,-132 167,-132 167,-132 161,-132 155,-126 155,-120 155,-120 155,-102 155,-102 155,-96 161,-90 167,-90"/>
</g>
<g id="clust19" class="cluster">
<title>outer_cluster_Inst&#45;15</title>
</g>
<g id="clust20" class="cluster">
<title>cluster_Inst&#45;15</title>
<path fill="#bebada" stroke="black" stroke-dasharray="5,2" d="M958,-90C958,-90 998,-90 998,-90 1004,-90 1010,-96 1010,-102 1010,-102 1010,-120 1010,-120 1010,-126 1004,-132 998,-132 998,-132 958,-132 958,-132 952,-132 946,-126 946,-120 946,-120 946,-102 946,-102 946,-96 952,-90 958,-90"/>
</g>
<g id="clust22" class="cluster">
<title>outer_cluster_Inst&#45;17</title>
</g>
<g id="clust23" class="cluster">
<title>cluster_Inst&#45;17</title>
<path fill="#bebada" stroke="black" stroke-dasharray="5,2" d="M910,-169C910,-169 946,-169 946,-169 952,-169 958,-175 958,-181 958,-181 958,-199 958,-199 958,-205 952,-211 946,-211 946,-211 910,-211 910,-211 904,-211 898,-205 898,-199 898,-199 898,-181 898,-181 898,-175 904,-169 910,-169"/>
</g>
<g id="clust25" class="cluster">
<title>outer_cluster_Inst&#45;6</title>
</g>
<g id="clust26" class="cluster">
<title>cluster_Inst&#45;6</title>
<path fill="#bebada" stroke="black" stroke-dasharray="5,2" d="M239,-169C239,-169 275,-169 275,-169 281,-169 287,-175 287,-181 287,-181 287,-199 287,-199 287,-205 281,-211 275,-211 275,-211 239,-211 239,-211 233,-211 227,-205 227,-199 227,-199 227,-181 227,-181 227,-175 233,-169 239,-169"/>
</g>
<g id="clust28" class="cluster">
<title>outer_cluster_Inst&#45;1</title>
</g>
<g id="clust29" class="cluster">
<title>cluster_Inst&#45;1</title>
<path fill="#bebada" stroke="black" stroke-dasharray="5,2" d="M241,-90C241,-90 281,-90 281,-90 287,-90 293,-96 293,-102 293,-102 293,-120 293,-120 293,-126 287,-132 281,-132 281,-132 241,-132 241,-132 235,-132 229,-126 229,-120 229,-120 229,-102 229,-102 229,-96 235,-90 241,-90"/>
</g>
<g id="clust31" class="cluster">
<title>outer_cluster_Inst&#45;2</title>
</g>
<g id="clust32" class="cluster">
<title>cluster_Inst&#45;2</title>
<path fill="#bebada" stroke="black" stroke-dasharray="5,2" d="M381,-90C381,-90 421,-90 421,-90 427,-90 433,-96 433,-102 433,-102 433,-120 433,-120 433,-126 427,-132 421,-132 421,-132 381,-132 381,-132 375,-132 369,-126 369,-120 369,-120 369,-102 369,-102 369,-96 375,-90 381,-90"/>
</g>
<g id="clust34" class="cluster">
<title>outer_cluster_Inst&#45;14</title>
</g>
<g id="clust35" class="cluster">
<title>cluster_Inst&#45;14</title>
<path fill="#bebada" stroke="black" stroke-dasharray="5,2" d="M724,-169C724,-169 760,-169 760,-169 766,-169 772,-175 772,-181 772,-181 772,-199 772,-199 772,-205 766,-211 760,-211 760,-211 724,-211 724,-211 718,-211 712,-205 712,-199 712,-199 712,-181 712,-181 712,-175 718,-169 724,-169"/>
</g>
<g id="clust37" class="cluster">
<title>outer_cluster_Inst&#45;12</title>
</g>
<g id="clust38" class="cluster">
<title>cluster_Inst&#45;12</title>
<path fill="#bebada" stroke="black" stroke-dasharray="5,2" d="M95,-169C95,-169 131,-169 131,-169 137,-169 143,-175 143,-181 143,-181 143,-199 143,-199 143,-205 137,-211 131,-211 131,-211 95,-211 95,-211 89,-211 83,-205 83,-199 83,-199 83,-181 83,-181 83,-175 89,-169 95,-169"/>
</g>
<g id="clust40" class="cluster">
<title>outer_cluster_Inst&#45;10</title>
</g>
<g id="clust41" class="cluster">
<title>cluster_Inst&#45;10</title>
<path fill="#bebada" stroke="black" stroke-dasharray="5,2" d="M379,-169C379,-169 415,-169 415,-169 421,-169 427,-175 427,-181 427,-181 427,-199 427,-199 427,-205 421,-211 415,-211 415,-211 379,-211 379,-211 373,-211 367,-205 367,-199 367,-199 367,-181 367,-181 367,-175 373,-169 379,-169"/>
</g>
<g id="clust43" class="cluster">
<title>outer_cluster_Inst&#45;3</title>
</g>
<g id="clust44" class="cluster">
<title>cluster_Inst&#45;3</title>
<path fill="#bebada" stroke="black" stroke-dasharray="5,2" d="M525,-90C525,-90 565,-90 565,-90 571,-90 577,-96 577,-102 577,-102 577,-120 577,-120 577,-126 571,-132 565,-132 565,-132 525,-132 525,-132 519,-132 513,-126 513,-120 513,-120 513,-102 513,-102 513,-96 519,-90 525,-90"/>
</g>
<g id="clust46" class="cluster">
<title>outer_cluster_Inst&#45;8</title>
</g>
<g id="clust47" class="cluster">
<title>cluster_Inst&#45;8</title>
<path fill="#bebada" stroke="black" stroke-dasharray="5,2" d="M523,-169C523,-169 559,-169 559,-169 565,-169 571,-175 571,-181 571,-181 571,-199 571,-199 571,-205 565,-211 559,-211 559,-211 523,-211 523,-211 517,-211 511,-205 511,-199 511,-199 511,-181 511,-181 511,-175 517,-169 523,-169"/>
</g>
<g id="clust49" class="cluster">
<title>outer_cluster_Inst&#45;4</title>
</g>
<g id="clust50" class="cluster">
<title>cluster_Inst&#45;4</title>
<path fill="#bebada" stroke="black" stroke-dasharray="5,2" d="M311,-90C311,-90 351,-90 351,-90 357,-90 363,-96 363,-102 363,-102 363,-120 363,-120 363,-126 357,-132 351,-132 351,-132 311,-132 311,-132 305,-132 299,-126 299,-120 299,-120 299,-102 299,-102 299,-96 305,-90 311,-90"/>
</g>
<g id="clust52" class="cluster">
<title>outer_cluster_Inst&#45;0</title>
</g>
<g id="clust53" class="cluster">
<title>cluster_Inst&#45;0</title>
<path fill="#bebada" stroke="black" stroke-dasharray="5,2" d="M97,-90C97,-90 137,-90 137,-90 143,-90 149,-96 149,-102 149,-102 149,-120 149,-120 149,-126 143,-132 137,-132 137,-132 97,-132 97,-132 91,-132 85,-126 85,-120 85,-120 85,-102 85,-102 85,-96 91,-90 97,-90"/>
</g>
<g id="clust55" class="cluster">
<title>outer_cluster_String&#45;0</title>
</g>
<g id="clust56" class="cluster">
<title>cluster_String&#45;0</title>
<path fill="#fb8072" stroke="black" stroke-dasharray="5,2" d="M98,-11C98,-11 138,-11 138,-11 144,-11 150,-17 150,-23 150,-23 150,-41 150,-41 150,-47 144,-53 138,-53 138,-53 98,-53 98,-53 92,-53 86,-47 86,-41 86,-41 86,-23 86,-23 86,-17 92,-11 98,-11"/>
</g>
<g id="clust58" class="cluster">
<title>outer_cluster_String&#45;4</title>
</g>
<g id="clust59" class="cluster">
<title>cluster_String&#45;4</title>
<path fill="#fb8072" stroke="black" stroke-dasharray="5,2" d="M313,-11C313,-11 351,-11 351,-11 357,-11 363,-17 363,-23 363,-23 363,-41 363,-41 363,-47 357,-53 351,-53 351,-53 313,-53 313,-53 307,-53 301,-47 301,-41 301,-41 301,-23 301,-23 301,-17 307,-11 313,-11"/>
</g>
<g id="clust61" class="cluster">
<title>outer_cluster_String&#45;5</title>
</g>
<g id="clust62" class="cluster">
<title>cluster_String&#45;5</title>
<path fill="#fb8072" stroke="black" stroke-dasharray="5,2" d="M665,-11C665,-11 821,-11 821,-11 827,-11 833,-17 833,-23 833,-23 833,-41 833,-41 833,-47 827,-53 821,-53 821,-53 665,-53 665,-53 659,-53 653,-47 653,-41 653,-41 653,-23 653,-23 653,-17 659,-11 665,-11"/>
</g>
<g id="clust64" class="cluster">
<title>outer_cluster_String&#45;3</title>
</g>
<g id="clust65" class="cluster">
<title>cluster_String&#45;3</title>
<path fill="#fb8072" stroke="black" stroke-dasharray="5,2" d="M526,-11C526,-11 566,-11 566,-11 572,-11 578,-17 578,-23 578,-23 578,-41 578,-41 578,-47 572,-53 566,-53 566,-53 526,-53 526,-53 520,-53 514,-47 514,-41 514,-41 514,-23 514,-23 514,-17 520,-11 526,-11"/>
</g>
<g id="clust67" class="cluster">
<title>outer_cluster_String&#45;6</title>
</g>
<g id="clust68" class="cluster">
<title>cluster_String&#45;6</title>
<path fill="#fb8072" stroke="black" stroke-dasharray="5,2" d="M917,-11C917,-11 1061,-11 1061,-11 1067,-11 1073,-17 1073,-23 1073,-23 1073,-41 1073,-41 1073,-47 1067,-53 1061,-53 1061,-53 917,-53 917,-53 911,-53 905,-47 905,-41 905,-41 905,-23 905,-23 905,-17 911,-11 917,-11"/>
</g>
<g id="clust70" class="cluster">
<title>outer_cluster_String&#45;1</title>
</g>
<g id="clust71" class="cluster">
<title>cluster_String&#45;1</title>
<path fill="#fb8072" stroke="black" stroke-dasharray="5,2" d="M242,-11C242,-11 282,-11 282,-11 288,-11 294,-17 294,-23 294,-23 294,-41 294,-41 294,-47 288,-53 282,-53 282,-53 242,-53 242,-53 236,-53 230,-47 230,-41 230,-41 230,-23 230,-23 230,-17 236,-11 242,-11"/>
</g>
<g id="clust73" class="cluster">
<title>outer_cluster_String&#45;2</title>
</g>
<g id="clust74" class="cluster">
<title>cluster_String&#45;2</title>
<path fill="#fb8072" stroke="black" stroke-dasharray="5,2" d="M382,-11C382,-11 422,-11 422,-11 428,-11 434,-17 434,-23 434,-23 434,-41 434,-41 434,-47 428,-53 422,-53 422,-53 382,-53 382,-53 376,-53 370,-47 370,-41 370,-41 370,-23 370,-23 370,-17 376,-11 382,-11"/>
</g>
<g id="clust76" class="cluster">
<title>outer_cluster_String&#45;7</title>
</g>
<g id="clust77" class="cluster">
<title>cluster_String&#45;7</title>
<path fill="#fb8072" stroke="black" stroke-dasharray="5,2" d="M851,-11C851,-11 887,-11 887,-11 893,-11 899,-17 899,-23 899,-23 899,-41 899,-41 899,-47 893,-53 887,-53 887,-53 851,-53 851,-53 845,-53 839,-47 839,-41 839,-41 839,-23 839,-23 839,-17 845,-11 851,-11"/>
</g>
<g id="clust79" class="cluster">
<title>outer_cluster_i64&#45;0</title>
</g>
<g id="clust80" class="cluster">
<title>cluster_i64&#45;0</title>
<path fill="#80b1d3" stroke="black" stroke-dasharray="5,2" d="M27,-11C27,-11 63,-11 63,-11 69,-11 75,-17 75,-23 75,-23 75,-41 75,-41 75,-47 69,-53 63,-53 63,-53 27,-53 27,-53 21,-53 15,-47 15,-41 15,-41 15,-23 15,-23 15,-17 21,-11 27,-11"/>
</g>
<g id="clust82" class="cluster">
<title>outer_cluster_i64&#45;4</title>
</g>
<g id="clust83" class="cluster">
<title>cluster_i64&#45;4</title>
<path fill="#80b1d3" stroke="black" stroke-dasharray="5,2" d="M455,-11C455,-11 491,-11 491,-11 497,-11 503,-17 503,-23 503,-23 503,-41 503,-41 503,-47 497,-53 491,-53 491,-53 455,-53 455,-53 449,-53 443,-47 443,-41 443,-41 443,-23 443,-23 443,-17 449,-11 455,-11"/>
</g>
<g id="clust85" class="cluster">
<title>outer_cluster_i64&#45;12</title>
</g>
<g id="clust86" class="cluster">
<title>cluster_i64&#45;12</title>
<path fill="#80b1d3" stroke="black" stroke-dasharray="5,2" d="M171,-11C171,-11 207,-11 207,-11 213,-11 219,-17 219,-23 219,-23 219,-41 219,-41 219,-47 213,-53 207,-53 207,-53 171,-53 171,-53 165,-53 159,-47 159,-41 159,-41 159,-23 159,-23 159,-17 165,-11 171,-11"/>
</g>
<g id="clust88" class="cluster">
<title>outer_cluster_i64&#45;8</title>
</g>
<g id="clust89" class="cluster">
<title>cluster_i64&#45;8</title>
<path fill="#80b1d3" stroke="black" stroke-dasharray="5,2" d="M599,-11C599,-11 635,-11 635,-11 641,-11 647,-17 647,-23 647,-23 647,-41 647,-41 647,-47 641,-53 635,-53 635,-53 599,-53 599,-53 593,-53 587,-47 587,-41 587,-41 587,-23 587,-23 587,-17 593,-11 599,-11"/>
</g>
<!-- function&#45;3&#45;ImmVal&#45;&gt;primitive&#45;i64&#45;0 -->
<g id="edge1" class="edge">
<title>function&#45;3&#45;ImmVal:s&#45;&gt;primitive&#45;i64&#45;0</title>
<path fill="none" stroke="black" d="M45,-95C45,-81.84 45,-67.11 45,-55.3"/>
<polygon fill="black" stroke="black" points="46.75,-58 45,-53 43.25,-58 46.75,-58"/>
</g>
<!-- function&#45;2&#45;ImmVal&#45;&gt;primitive&#45;i64&#45;4 -->
<g id="edge2" class="edge">
<title>function&#45;2&#45;ImmVal:s&#45;&gt;primitive&#45;i64&#45;4</title>
<path fill="none" stroke="black" d="M473,-95C473,-81.84 473,-67.11 473,-55.3"/>
<polygon fill="black" stroke="black" points="474.75,-58 473,-53 471.25,-58 474.75,-58"/>
</g>
<!-- function&#45;0&#45;ImmLabel&#45;&gt;primitive&#45;String&#45;5 -->
<g id="edge3" class="edge">
<title>function&#45;0&#45;ImmLabel:s&#45;&gt;primitive&#45;String&#45;5</title>
<path fill="none" stroke="black" d="M743,-95C743,-81.84 743,-67.11 743,-55.3"/>
<polygon fill="black" stroke="black" points="744.75,-58 743,-53 741.25,-58 744.75,-58"/>
</g>
<!-- function&#45;1&#45;ImmLabel&#45;&gt;primitive&#45;String&#45;7 -->
<g id="edge4" class="edge">
<title>function&#45;1&#45;ImmLabel:s&#45;&gt;primitive&#45;String&#45;7</title>
<path fill="none" stroke="black" d="M879,-95C879,-81.76 876.75,-67.14 874.39,-55.42"/>
<polygon fill="black" stroke="black" points="876.95,-56.84 873.3,-53 873.75,-58.28 876.95,-56.84"/>
</g>
<!-- function&#45;1&#45;ImmVal&#45;&gt;primitive&#45;i64&#45;8 -->
<g id="edge5" class="edge">
<title>function&#45;1&#45;ImmVal:s&#45;&gt;primitive&#45;i64&#45;8</title>
<path fill="none" stroke="black" d="M617,-95C617,-81.84 617,-67.11 617,-55.3"/>
<polygon fill="black" stroke="black" points="618.75,-58 617,-53 615.25,-58 618.75,-58"/>
</g>
<!-- function&#45;0&#45;ImmVal&#45;&gt;primitive&#45;i64&#45;12 -->
<g id="edge6" class="edge">
<title>function&#45;0&#45;ImmVal:s&#45;&gt;primitive&#45;i64&#45;12</title>
<path fill="none" stroke="black" d="M189,-95C189,-81.84 189,-67.11 189,-55.3"/>
<polygon fill="black" stroke="black" points="190.75,-58 189,-53 187.25,-58 190.75,-58"/>
</g>
<!-- function&#45;5&#45;RegVal&#45;&gt;primitive&#45;String&#45;6 -->
<g id="edge7" class="edge">
<title>function&#45;5&#45;RegVal:s&#45;&gt;primitive&#45;String&#45;6</title>
<path fill="none" stroke="black" d="M979,-95C979,-81.76 981.25,-67.14 983.61,-55.42"/>
<polygon fill="black" stroke="black" points="984.25,-58.28 984.7,-53 981.05,-56.84 984.25,-58.28"/>
</g>
<!-- function&#45;0&#45;Jalr&#45;&gt;function&#45;1&#45;ImmLabel -->
<g id="edge9" class="edge">
<title>function&#45;0&#45;Jalr:s&#45;&gt;function&#45;1&#45;ImmLabel</title>
<path fill="none" stroke="black" d="M936,-174C936,-157.04 924.28,-142.79 911.37,-132.25"/>
<polygon fill="black" stroke="black" points="915.61,-131.5 910.34,-132 914.78,-134.9 915.61,-131.5"/>
</g>
<!-- function&#45;0&#45;Jalr&#45;&gt;function&#45;5&#45;RegVal -->
<g id="edge8" class="edge">
<title>function&#45;0&#45;Jalr:s&#45;&gt;function&#45;5&#45;RegVal</title>
<path fill="none" stroke="black" d="M920,-174C920,-156.77 932.1,-142.35 945.24,-131.76"/>
<polygon fill="black" stroke="black" points="944.72,-135.74 946,-130.6 941.8,-133.82 944.72,-135.74"/>
</g>
<!-- function&#45;0&#45;Sw&#45;&gt;function&#45;0&#45;ImmVal -->
<g id="edge12" class="edge">
<title>function&#45;0&#45;Sw:s&#45;&gt;function&#45;0&#45;ImmVal</title>
<path fill="none" stroke="black" d="M268,-174C268,-167.52 241.33,-147.64 218.98,-132.12"/>
<polygon fill="black" stroke="black" points="223.02,-130.78 217.87,-132 222.66,-134.26 223.02,-130.78"/>
</g>
<!-- function&#45;0&#45;Sw&#45;&gt;function&#45;4&#45;RegVal -->
<g id="edge10" class="edge">
<title>function&#45;0&#45;Sw:s&#45;&gt;function&#45;4&#45;RegVal</title>
<path fill="none" stroke="black" d="M249,-174C249,-167.36 276.68,-147.51 299.88,-132.04"/>
<polygon fill="black" stroke="black" points="295.42,-134.39 300.15,-132 294.96,-130.92 295.42,-134.39"/>
</g>
<!-- function&#45;0&#45;Sw&#45;&gt;function&#45;1&#45;RegVal -->
<g id="edge11" class="edge">
<title>function&#45;0&#45;Sw:s&#45;&gt;function&#45;1&#45;RegVal</title>
<path fill="none" stroke="black" d="M261,-174C261,-160.84 261,-146.11 261,-134.3"/>
<polygon fill="black" stroke="black" points="262.75,-137 261,-132 259.25,-137 262.75,-137"/>
</g>
<!-- function&#45;4&#45;RegVal&#45;&gt;primitive&#45;String&#45;4 -->
<g id="edge26" class="edge">
<title>function&#45;4&#45;RegVal:s&#45;&gt;primitive&#45;String&#45;4</title>
<path fill="none" stroke="black" d="M332,-95C332,-81.84 332,-67.11 332,-55.3"/>
<polygon fill="black" stroke="black" points="333.75,-58 332,-53 330.25,-58 333.75,-58"/>
</g>
<!-- function&#45;1&#45;RegVal&#45;&gt;primitive&#45;String&#45;1 -->
<g id="edge13" class="edge">
<title>function&#45;1&#45;RegVal:s&#45;&gt;primitive&#45;String&#45;1</title>
<path fill="none" stroke="black" d="M262,-95C262,-81.84 262,-67.11 262,-55.3"/>
<polygon fill="black" stroke="black" points="263.75,-58 262,-53 260.25,-58 263.75,-58"/>
</g>
<!-- function&#45;2&#45;RegVal&#45;&gt;primitive&#45;String&#45;2 -->
<g id="edge14" class="edge">
<title>function&#45;2&#45;RegVal:s&#45;&gt;primitive&#45;String&#45;2</title>
<path fill="none" stroke="black" d="M402,-95C402,-81.84 402,-67.11 402,-55.3"/>
<polygon fill="black" stroke="black" points="403.75,-58 402,-53 400.25,-58 403.75,-58"/>
</g>
<!-- function&#45;0&#45;Auipc&#45;&gt;function&#45;0&#45;ImmLabel -->
<g id="edge15" class="edge">
<title>function&#45;0&#45;Auipc:s&#45;&gt;function&#45;0&#45;ImmLabel</title>
<path fill="none" stroke="black" d="M742,-174C742,-160.84 742,-146.11 742,-134.3"/>
<polygon fill="black" stroke="black" points="743.75,-137 742,-132 740.25,-137 743.75,-137"/>
</g>
<!-- function&#45;3&#45;Sw&#45;&gt;function&#45;3&#45;ImmVal -->
<g id="edge18" class="edge">
<title>function&#45;3&#45;Sw:s&#45;&gt;function&#45;3&#45;ImmVal</title>
<path fill="none" stroke="black" d="M124,-174C124,-167.52 97.33,-147.64 74.98,-132.12"/>
<polygon fill="black" stroke="black" points="79.02,-130.78 73.87,-132 78.66,-134.26 79.02,-130.78"/>
</g>
<!-- function&#45;3&#45;Sw&#45;&gt;function&#45;4&#45;RegVal -->
<g id="edge16" class="edge">
<title>function&#45;3&#45;Sw:s&#45;&gt;function&#45;4&#45;RegVal</title>
<path fill="none" stroke="black" d="M105,-174C105,-131.12 254.17,-150.9 294,-135 294.69,-134.72 295.39,-134.43 296.08,-134.13"/>
<polygon fill="black" stroke="black" points="296.87,-135.7 300.66,-132 295.39,-132.53 296.87,-135.7"/>
</g>
<!-- function&#45;3&#45;Sw&#45;&gt;function&#45;0&#45;RegVal -->
<g id="edge17" class="edge">
<title>function&#45;3&#45;Sw:s&#45;&gt;function&#45;0&#45;RegVal</title>
<path fill="none" stroke="black" d="M117,-174C117,-160.84 117,-146.11 117,-134.3"/>
<polygon fill="black" stroke="black" points="118.75,-137 117,-132 115.25,-137 118.75,-137"/>
</g>
<!-- function&#45;0&#45;RegVal&#45;&gt;primitive&#45;String&#45;0 -->
<g id="edge27" class="edge">
<title>function&#45;0&#45;RegVal:s&#45;&gt;primitive&#45;String&#45;0</title>
<path fill="none" stroke="black" d="M118,-95C118,-81.84 118,-67.11 118,-55.3"/>
<polygon fill="black" stroke="black" points="119.75,-58 118,-53 116.25,-58 119.75,-58"/>
</g>
<!-- function&#45;2&#45;Sw&#45;&gt;function&#45;2&#45;ImmVal -->
<g id="edge21" class="edge">
<title>function&#45;2&#45;Sw:s&#45;&gt;function&#45;2&#45;ImmVal</title>
<path fill="none" stroke="black" d="M408,-174C408,-163.22 426.97,-145.99 444.41,-132.43"/>
<polygon fill="black" stroke="black" points="441.54,-135.16 445.8,-132 440.5,-131.82 441.54,-135.16"/>
</g>
<!-- function&#45;2&#45;Sw&#45;&gt;function&#45;4&#45;RegVal -->
<g id="edge19" class="edge">
<title>function&#45;2&#45;Sw:s&#45;&gt;function&#45;4&#45;RegVal</title>
<path fill="none" stroke="black" d="M389,-174C389,-156.77 376.9,-142.35 363.76,-131.76"/>
<polygon fill="black" stroke="black" points="367.2,-133.82 363,-130.6 364.28,-135.74 367.2,-133.82"/>
</g>
<!-- function&#45;2&#45;Sw&#45;&gt;function&#45;2&#45;RegVal -->
<g id="edge20" class="edge">
<title>function&#45;2&#45;Sw:s&#45;&gt;function&#45;2&#45;RegVal</title>
<path fill="none" stroke="black" d="M401,-174C401,-160.84 401,-146.11 401,-134.3"/>
<polygon fill="black" stroke="black" points="402.75,-137 401,-132 399.25,-137 402.75,-137"/>
</g>
<!-- function&#45;3&#45;RegVal&#45;&gt;primitive&#45;String&#45;3 -->
<g id="edge22" class="edge">
<title>function&#45;3&#45;RegVal:s&#45;&gt;primitive&#45;String&#45;3</title>
<path fill="none" stroke="black" d="M546,-95C546,-81.84 546,-67.11 546,-55.3"/>
<polygon fill="black" stroke="black" points="547.75,-58 546,-53 544.25,-58 547.75,-58"/>
</g>
<!-- function&#45;1&#45;Sw&#45;&gt;function&#45;1&#45;ImmVal -->
<g id="edge25" class="edge">
<title>function&#45;1&#45;Sw:s&#45;&gt;function&#45;1&#45;ImmVal</title>
<path fill="none" stroke="black" d="M552,-174C552,-163.22 570.97,-145.99 588.41,-132.43"/>
<polygon fill="black" stroke="black" points="585.54,-135.16 589.8,-132 584.5,-131.82 585.54,-135.16"/>
</g>
<!-- function&#45;1&#45;Sw&#45;&gt;function&#45;4&#45;RegVal -->
<g id="edge23" class="edge">
<title>function&#45;1&#45;Sw:s&#45;&gt;function&#45;4&#45;RegVal</title>
<path fill="none" stroke="black" d="M533,-174C533,-98.65 437.58,-163.94 368,-135 367.46,-134.78 366.92,-134.54 366.38,-134.31"/>
<polygon fill="black" stroke="black" points="366.79,-132.56 361.52,-132 365.29,-135.72 366.79,-132.56"/>
</g>
<!-- function&#45;1&#45;Sw&#45;&gt;function&#45;3&#45;RegVal -->
<g id="edge24" class="edge">
<title>function&#45;1&#45;Sw:s&#45;&gt;function&#45;3&#45;RegVal</title>
<path fill="none" stroke="black" d="M545,-174C545,-160.84 545,-146.11 545,-134.3"/>
<polygon fill="black" stroke="black" points="546.75,-137 545,-132 543.25,-137 546.75,-137"/>
</g>
<!-- function&#45;3&#45;ImmVal -->
<g id="node1" class="node">
<title>function&#45;3&#45;ImmVal</title>
<g id="a_node1"><a xlink:title="Imm&#45;11: function&#45;3&#45;ImmVal">
<path fill="white" stroke="transparent" d="M24.67,-95C24.67,-95 65.33,-95 65.33,-95 70.67,-95 76,-100.33 76,-105.67 76,-105.67 76,-116.33 76,-116.33 76,-121.67 70.67,-127 65.33,-127 65.33,-127 24.67,-127 24.67,-127 19.33,-127 14,-121.67 14,-116.33 14,-116.33 14,-105.67 14,-105.67 14,-100.33 19.33,-95 24.67,-95"/>
<text text-anchor="start" x="19" y="-107.3" font-family="Helvetica,sans-Serif" font-size="14.00">ImmVal</text>
<path fill="none" stroke="black" d="M24.67,-95C24.67,-95 65.33,-95 65.33,-95 70.67,-95 76,-100.33 76,-105.67 76,-105.67 76,-116.33 76,-116.33 76,-121.67 70.67,-127 65.33,-127 65.33,-127 24.67,-127 24.67,-127 19.33,-127 14,-121.67 14,-116.33 14,-116.33 14,-105.67 14,-105.67 14,-100.33 19.33,-95 24.67,-95"/>
</a>
</g>
</g>
<!-- primitive&#45;i64&#45;0 -->
<g id="node2" class="node">
<title>primitive&#45;i64&#45;0</title>
<g id="a_node2"><a xlink:title="i64&#45;0: primitive&#45;i64&#45;0">
<path fill="white" stroke="transparent" d="M39.67,-16C39.67,-16 50.33,-16 50.33,-16 55.67,-16 61,-21.33 61,-26.67 61,-26.67 61,-37.33 61,-37.33 61,-42.67 55.67,-48 50.33,-48 50.33,-48 39.67,-48 39.67,-48 34.33,-48 29,-42.67 29,-37.33 29,-37.33 29,-26.67 29,-26.67 29,-21.33 34.33,-16 39.67,-16"/>
<text text-anchor="start" x="40" y="-28.3" font-family="Helvetica,sans-Serif" font-size="14.00">0</text>
<path fill="none" stroke="black" d="M39.67,-16C39.67,-16 50.33,-16 50.33,-16 55.67,-16 61,-21.33 61,-26.67 61,-26.67 61,-37.33 61,-37.33 61,-42.67 55.67,-48 50.33,-48 50.33,-48 39.67,-48 39.67,-48 34.33,-48 29,-42.67 29,-37.33 29,-37.33 29,-26.67 29,-26.67 29,-21.33 34.33,-16 39.67,-16"/>
</a>
</g>
</g>
<!-- function&#45;2&#45;ImmVal -->
<g id="node3" class="node">
<title>function&#45;2&#45;ImmVal</title>
<g id="a_node3"><a xlink:title="Imm&#45;9: function&#45;2&#45;ImmVal">
<path fill="white" stroke="transparent" d="M452.67,-95C452.67,-95 493.33,-95 493.33,-95 498.67,-95 504,-100.33 504,-105.67 504,-105.67 504,-116.33 504,-116.33 504,-121.67 498.67,-127 493.33,-127 493.33,-127 452.67,-127 452.67,-127 447.33,-127 442,-121.67 442,-116.33 442,-116.33 442,-105.67 442,-105.67 442,-100.33 447.33,-95 452.67,-95"/>
<text text-anchor="start" x="447" y="-107.3" font-family="Helvetica,sans-Serif" font-size="14.00">ImmVal</text>
<path fill="none" stroke="black" d="M452.67,-95C452.67,-95 493.33,-95 493.33,-95 498.67,-95 504,-100.33 504,-105.67 504,-105.67 504,-116.33 504,-116.33 504,-121.67 498.67,-127 493.33,-127 493.33,-127 452.67,-127 452.67,-127 447.33,-127 442,-121.67 442,-116.33 442,-116.33 442,-105.67 442,-105.67 442,-100.33 447.33,-95 452.67,-95"/>
</a>
</g>
</g>
<!-- primitive&#45;i64&#45;4 -->
<g id="node4" class="node">
<title>primitive&#45;i64&#45;4</title>
<g id="a_node4"><a xlink:title="i64&#45;4: primitive&#45;i64&#45;4">
<path fill="white" stroke="transparent" d="M467.67,-16C467.67,-16 478.33,-16 478.33,-16 483.67,-16 489,-21.33 489,-26.67 489,-26.67 489,-37.33 489,-37.33 489,-42.67 483.67,-48 478.33,-48 478.33,-48 467.67,-48 467.67,-48 462.33,-48 457,-42.67 457,-37.33 457,-37.33 457,-26.67 457,-26.67 457,-21.33 462.33,-16 467.67,-16"/>
<text text-anchor="start" x="468" y="-28.3" font-family="Helvetica,sans-Serif" font-size="14.00">4</text>
<path fill="none" stroke="black" d="M467.67,-16C467.67,-16 478.33,-16 478.33,-16 483.67,-16 489,-21.33 489,-26.67 489,-26.67 489,-37.33 489,-37.33 489,-42.67 483.67,-48 478.33,-48 478.33,-48 467.67,-48 467.67,-48 462.33,-48 457,-42.67 457,-37.33 457,-37.33 457,-26.67 457,-26.67 457,-21.33 462.33,-16 467.67,-16"/>
</a>
</g>
</g>
<!-- function&#45;0&#45;ImmLabel -->
<g id="node5" class="node">
<title>function&#45;0&#45;ImmLabel</title>
<g id="a_node5"><a xlink:title="Imm&#45;13: function&#45;0&#45;ImmLabel">
<path fill="white" stroke="transparent" d="M713.17,-95C713.17,-95 770.83,-95 770.83,-95 776.17,-95 781.5,-100.33 781.5,-105.67 781.5,-105.67 781.5,-116.33 781.5,-116.33 781.5,-121.67 776.17,-127 770.83,-127 770.83,-127 713.17,-127 713.17,-127 707.83,-127 702.5,-121.67 702.5,-116.33 702.5,-116.33 702.5,-105.67 702.5,-105.67 702.5,-100.33 707.83,-95 713.17,-95"/>
<text text-anchor="start" x="708" y="-107.3" font-family="Helvetica,sans-Serif" font-size="14.00">ImmLabel</text>
<path fill="none" stroke="black" d="M713.17,-95C713.17,-95 770.83,-95 770.83,-95 776.17,-95 781.5,-100.33 781.5,-105.67 781.5,-105.67 781.5,-116.33 781.5,-116.33 781.5,-121.67 776.17,-127 770.83,-127 770.83,-127 713.17,-127 713.17,-127 707.83,-127 702.5,-121.67 702.5,-116.33 702.5,-116.33 702.5,-105.67 702.5,-105.67 702.5,-100.33 707.83,-95 713.17,-95"/>
</a>
</g>
</g>
<!-- primitive&#45;String&#45;5 -->
<g id="node6" class="node">
<title>primitive&#45;String&#45;5</title>
<g id="a_node6"><a xlink:title="String&#45;5: primitive&#45;String&#45;5">
<path fill="white" stroke="transparent" d="M667.17,-16C667.17,-16 818.83,-16 818.83,-16 824.17,-16 829.5,-21.33 829.5,-26.67 829.5,-26.67 829.5,-37.33 829.5,-37.33 829.5,-42.67 824.17,-48 818.83,-48 818.83,-48 667.17,-48 667.17,-48 661.83,-48 656.5,-42.67 656.5,-37.33 656.5,-37.33 656.5,-26.67 656.5,-26.67 656.5,-21.33 661.83,-16 667.17,-16"/>
<text text-anchor="start" x="662" y="-28.3" font-family="Helvetica,sans-Serif" font-size="14.00">&quot;%pcrel_hi(print_path)&quot;</text>
<path fill="none" stroke="black" d="M667.17,-16C667.17,-16 818.83,-16 818.83,-16 824.17,-16 829.5,-21.33 829.5,-26.67 829.5,-26.67 829.5,-37.33 829.5,-37.33 829.5,-42.67 824.17,-48 818.83,-48 818.83,-48 667.17,-48 667.17,-48 661.83,-48 656.5,-42.67 656.5,-37.33 656.5,-37.33 656.5,-26.67 656.5,-26.67 656.5,-21.33 661.83,-16 667.17,-16"/>
</a>
</g>
</g>
<!-- function&#45;1&#45;ImmLabel -->
<g id="node7" class="node">
<title>function&#45;1&#45;ImmLabel</title>
<g id="a_node7"><a xlink:title="Imm&#45;16: function&#45;1&#45;ImmLabel">
<path fill="white" stroke="transparent" d="M849.17,-95C849.17,-95 906.83,-95 906.83,-95 912.17,-95 917.5,-100.33 917.5,-105.67 917.5,-105.67 917.5,-116.33 917.5,-116.33 917.5,-121.67 912.17,-127 906.83,-127 906.83,-127 849.17,-127 849.17,-127 843.83,-127 838.5,-121.67 838.5,-116.33 838.5,-116.33 838.5,-105.67 838.5,-105.67 838.5,-100.33 843.83,-95 849.17,-95"/>
<text text-anchor="start" x="844" y="-107.3" font-family="Helvetica,sans-Serif" font-size="14.00">ImmLabel</text>
<path fill="none" stroke="black" d="M849.17,-95C849.17,-95 906.83,-95 906.83,-95 912.17,-95 917.5,-100.33 917.5,-105.67 917.5,-105.67 917.5,-116.33 917.5,-116.33 917.5,-121.67 912.17,-127 906.83,-127 906.83,-127 849.17,-127 849.17,-127 843.83,-127 838.5,-121.67 838.5,-116.33 838.5,-116.33 838.5,-105.67 838.5,-105.67 838.5,-100.33 843.83,-95 849.17,-95"/>
</a>
</g>
</g>
<!-- primitive&#45;String&#45;7 -->
<g id="node8" class="node">
<title>primitive&#45;String&#45;7</title>
<g id="a_node8"><a xlink:title="String&#45;7: primitive&#45;String&#45;7">
<path fill="white" stroke="transparent" d="M852.67,-16C852.67,-16 885.33,-16 885.33,-16 890.67,-16 896,-21.33 896,-26.67 896,-26.67 896,-37.33 896,-37.33 896,-42.67 890.67,-48 885.33,-48 885.33,-48 852.67,-48 852.67,-48 847.33,-48 842,-42.67 842,-37.33 842,-37.33 842,-26.67 842,-26.67 842,-21.33 847.33,-16 852.67,-16"/>
<text text-anchor="start" x="847" y="-28.3" font-family="Helvetica,sans-Serif" font-size="14.00">&quot;ra_0&quot;</text>
<path fill="none" stroke="black" d="M852.67,-16C852.67,-16 885.33,-16 885.33,-16 890.67,-16 896,-21.33 896,-26.67 896,-26.67 896,-37.33 896,-37.33 896,-42.67 890.67,-48 885.33,-48 885.33,-48 852.67,-48 852.67,-48 847.33,-48 842,-42.67 842,-37.33 842,-37.33 842,-26.67 842,-26.67 842,-21.33 847.33,-16 852.67,-16"/>
</a>
</g>
</g>
<!-- function&#45;1&#45;ImmVal -->
<g id="node9" class="node">
<title>function&#45;1&#45;ImmVal</title>
<g id="a_node9"><a xlink:title="Imm&#45;7: function&#45;1&#45;ImmVal">
<path fill="white" stroke="transparent" d="M596.67,-95C596.67,-95 637.33,-95 637.33,-95 642.67,-95 648,-100.33 648,-105.67 648,-105.67 648,-116.33 648,-116.33 648,-121.67 642.67,-127 637.33,-127 637.33,-127 596.67,-127 596.67,-127 591.33,-127 586,-121.67 586,-116.33 586,-116.33 586,-105.67 586,-105.67 586,-100.33 591.33,-95 596.67,-95"/>
<text text-anchor="start" x="591" y="-107.3" font-family="Helvetica,sans-Serif" font-size="14.00">ImmVal</text>
<path fill="none" stroke="black" d="M596.67,-95C596.67,-95 637.33,-95 637.33,-95 642.67,-95 648,-100.33 648,-105.67 648,-105.67 648,-116.33 648,-116.33 648,-121.67 642.67,-127 637.33,-127 637.33,-127 596.67,-127 596.67,-127 591.33,-127 586,-121.67 586,-116.33 586,-116.33 586,-105.67 586,-105.67 586,-100.33 591.33,-95 596.67,-95"/>
</a>
</g>
</g>
<!-- primitive&#45;i64&#45;8 -->
<g id="node10" class="node">
<title>primitive&#45;i64&#45;8</title>
<g id="a_node10"><a xlink:title="i64&#45;8: primitive&#45;i64&#45;8">
<path fill="white" stroke="transparent" d="M611.67,-16C611.67,-16 622.33,-16 622.33,-16 627.67,-16 633,-21.33 633,-26.67 633,-26.67 633,-37.33 633,-37.33 633,-42.67 627.67,-48 622.33,-48 622.33,-48 611.67,-48 611.67,-48 606.33,-48 601,-42.67 601,-37.33 601,-37.33 601,-26.67 601,-26.67 601,-21.33 606.33,-16 611.67,-16"/>
<text text-anchor="start" x="612" y="-28.3" font-family="Helvetica,sans-Serif" font-size="14.00">8</text>
<path fill="none" stroke="black" d="M611.67,-16C611.67,-16 622.33,-16 622.33,-16 627.67,-16 633,-21.33 633,-26.67 633,-26.67 633,-37.33 633,-37.33 633,-42.67 627.67,-48 622.33,-48 622.33,-48 611.67,-48 611.67,-48 606.33,-48 601,-42.67 601,-37.33 601,-37.33 601,-26.67 601,-26.67 601,-21.33 606.33,-16 611.67,-16"/>
</a>
</g>
</g>
<!-- function&#45;0&#45;ImmVal -->
<g id="node11" class="node">
<title>function&#45;0&#45;ImmVal</title>
<g id="a_node11"><a xlink:title="Imm&#45;5: function&#45;0&#45;ImmVal">
<path fill="white" stroke="transparent" d="M168.67,-95C168.67,-95 209.33,-95 209.33,-95 214.67,-95 220,-100.33 220,-105.67 220,-105.67 220,-116.33 220,-116.33 220,-121.67 214.67,-127 209.33,-127 209.33,-127 168.67,-127 168.67,-127 163.33,-127 158,-121.67 158,-116.33 158,-116.33 158,-105.67 158,-105.67 158,-100.33 163.33,-95 168.67,-95"/>
<text text-anchor="start" x="163" y="-107.3" font-family="Helvetica,sans-Serif" font-size="14.00">ImmVal</text>
<path fill="none" stroke="black" d="M168.67,-95C168.67,-95 209.33,-95 209.33,-95 214.67,-95 220,-100.33 220,-105.67 220,-105.67 220,-116.33 220,-116.33 220,-121.67 214.67,-127 209.33,-127 209.33,-127 168.67,-127 168.67,-127 163.33,-127 158,-121.67 158,-116.33 158,-116.33 158,-105.67 158,-105.67 158,-100.33 163.33,-95 168.67,-95"/>
</a>
</g>
</g>
<!-- primitive&#45;i64&#45;12 -->
<g id="node12" class="node">
<title>primitive&#45;i64&#45;12</title>
<g id="a_node12"><a xlink:title="i64&#45;12: primitive&#45;i64&#45;12">
<path fill="white" stroke="transparent" d="M183.67,-16C183.67,-16 194.33,-16 194.33,-16 199.67,-16 205,-21.33 205,-26.67 205,-26.67 205,-37.33 205,-37.33 205,-42.67 199.67,-48 194.33,-48 194.33,-48 183.67,-48 183.67,-48 178.33,-48 173,-42.67 173,-37.33 173,-37.33 173,-26.67 173,-26.67 173,-21.33 178.33,-16 183.67,-16"/>
<text text-anchor="start" x="179.5" y="-28.3" font-family="Helvetica,sans-Serif" font-size="14.00">12</text>
<path fill="none" stroke="black" d="M183.67,-16C183.67,-16 194.33,-16 194.33,-16 199.67,-16 205,-21.33 205,-26.67 205,-26.67 205,-37.33 205,-37.33 205,-42.67 199.67,-48 194.33,-48 194.33,-48 183.67,-48 183.67,-48 178.33,-48 173,-42.67 173,-37.33 173,-37.33 173,-26.67 173,-26.67 173,-21.33 178.33,-16 183.67,-16"/>
</a>
</g>
</g>
<!-- function&#45;5&#45;RegVal -->
<g id="node13" class="node">
<title>function&#45;5&#45;RegVal</title>
<g id="a_node13"><a xlink:title="Inst&#45;15: function&#45;5&#45;RegVal">
<path fill="white" stroke="transparent" d="M960.17,-95C960.17,-95 995.83,-95 995.83,-95 1001.17,-95 1006.5,-100.33 1006.5,-105.67 1006.5,-105.67 1006.5,-116.33 1006.5,-116.33 1006.5,-121.67 1001.17,-127 995.83,-127 995.83,-127 960.17,-127 960.17,-127 954.83,-127 949.5,-121.67 949.5,-116.33 949.5,-116.33 949.5,-105.67 949.5,-105.67 949.5,-100.33 954.83,-95 960.17,-95"/>
<text text-anchor="start" x="955" y="-107.3" font-family="Helvetica,sans-Serif" font-size="14.00">RegVal</text>
<path fill="none" stroke="black" d="M960.17,-95C960.17,-95 995.83,-95 995.83,-95 1001.17,-95 1006.5,-100.33 1006.5,-105.67 1006.5,-105.67 1006.5,-116.33 1006.5,-116.33 1006.5,-121.67 1001.17,-127 995.83,-127 995.83,-127 960.17,-127 960.17,-127 954.83,-127 949.5,-121.67 949.5,-116.33 949.5,-116.33 949.5,-105.67 949.5,-105.67 949.5,-100.33 954.83,-95 960.17,-95"/>
</a>
</g>
</g>
<!-- primitive&#45;String&#45;6 -->
<g id="node14" class="node">
<title>primitive&#45;String&#45;6</title>
<g id="a_node14"><a xlink:title="String&#45;6: primitive&#45;String&#45;6">
<path fill="white" stroke="transparent" d="M918.67,-16C918.67,-16 1059.33,-16 1059.33,-16 1064.67,-16 1070,-21.33 1070,-26.67 1070,-26.67 1070,-37.33 1070,-37.33 1070,-42.67 1064.67,-48 1059.33,-48 1059.33,-48 918.67,-48 918.67,-48 913.33,-48 908,-42.67 908,-37.33 908,-37.33 908,-26.67 908,-26.67 908,-21.33 913.33,-16 918.67,-16"/>
<text text-anchor="start" x="913" y="-28.3" font-family="Helvetica,sans-Serif" font-size="14.00">&quot;%pcrel_lo(.Lpcrel_5)&quot;</text>
<path fill="none" stroke="black" d="M918.67,-16C918.67,-16 1059.33,-16 1059.33,-16 1064.67,-16 1070,-21.33 1070,-26.67 1070,-26.67 1070,-37.33 1070,-37.33 1070,-42.67 1064.67,-48 1059.33,-48 1059.33,-48 918.67,-48 918.67,-48 913.33,-48 908,-42.67 908,-37.33 908,-37.33 908,-26.67 908,-26.67 908,-21.33 913.33,-16 918.67,-16"/>
</a>
</g>
</g>
<!-- function&#45;0&#45;Jalr -->
<g id="node15" class="node">
<title>function&#45;0&#45;Jalr</title>
<g id="a_node15"><a xlink:title="Inst&#45;17: function&#45;0&#45;Jalr">
<path fill="white" stroke="transparent" d="M922.17,-174C922.17,-174 933.83,-174 933.83,-174 939.17,-174 944.5,-179.33 944.5,-184.67 944.5,-184.67 944.5,-195.33 944.5,-195.33 944.5,-200.67 939.17,-206 933.83,-206 933.83,-206 922.17,-206 922.17,-206 916.83,-206 911.5,-200.67 911.5,-195.33 911.5,-195.33 911.5,-184.67 911.5,-184.67 911.5,-179.33 916.83,-174 922.17,-174"/>
<text text-anchor="start" x="917" y="-186.3" font-family="Helvetica,sans-Serif" font-size="14.00">Jalr</text>
<path fill="none" stroke="black" d="M922.17,-174C922.17,-174 933.83,-174 933.83,-174 939.17,-174 944.5,-179.33 944.5,-184.67 944.5,-184.67 944.5,-195.33 944.5,-195.33 944.5,-200.67 939.17,-206 933.83,-206 933.83,-206 922.17,-206 922.17,-206 916.83,-206 911.5,-200.67 911.5,-195.33 911.5,-195.33 911.5,-184.67 911.5,-184.67 911.5,-179.33 916.83,-174 922.17,-174"/>
</a>
</g>
</g>
<!-- function&#45;0&#45;Sw -->
<g id="node16" class="node">
<title>function&#45;0&#45;Sw</title>
<g id="a_node16"><a xlink:title="Inst&#45;6: function&#45;0&#45;Sw">
<path fill="white" stroke="transparent" d="M251.67,-174C251.67,-174 262.33,-174 262.33,-174 267.67,-174 273,-179.33 273,-184.67 273,-184.67 273,-195.33 273,-195.33 273,-200.67 267.67,-206 262.33,-206 262.33,-206 251.67,-206 251.67,-206 246.33,-206 241,-200.67 241,-195.33 241,-195.33 241,-184.67 241,-184.67 241,-179.33 246.33,-174 251.67,-174"/>
<text text-anchor="start" x="246.5" y="-186.3" font-family="Helvetica,sans-Serif" font-size="14.00">Sw</text>
<path fill="none" stroke="black" d="M251.67,-174C251.67,-174 262.33,-174 262.33,-174 267.67,-174 273,-179.33 273,-184.67 273,-184.67 273,-195.33 273,-195.33 273,-200.67 267.67,-206 262.33,-206 262.33,-206 251.67,-206 251.67,-206 246.33,-206 241,-200.67 241,-195.33 241,-195.33 241,-184.67 241,-184.67 241,-179.33 246.33,-174 251.67,-174"/>
</a>
</g>
</g>
<!-- function&#45;4&#45;RegVal -->
<g id="node17" class="node">
<title>function&#45;4&#45;RegVal</title>
<g id="a_node17"><a xlink:title="Inst&#45;4: function&#45;4&#45;RegVal">
<path fill="white" stroke="transparent" d="M313.17,-95C313.17,-95 348.83,-95 348.83,-95 354.17,-95 359.5,-100.33 359.5,-105.67 359.5,-105.67 359.5,-116.33 359.5,-116.33 359.5,-121.67 354.17,-127 348.83,-127 348.83,-127 313.17,-127 313.17,-127 307.83,-127 302.5,-121.67 302.5,-116.33 302.5,-116.33 302.5,-105.67 302.5,-105.67 302.5,-100.33 307.83,-95 313.17,-95"/>
<text text-anchor="start" x="308" y="-107.3" font-family="Helvetica,sans-Serif" font-size="14.00">RegVal</text>
<path fill="none" stroke="black" d="M313.17,-95C313.17,-95 348.83,-95 348.83,-95 354.17,-95 359.5,-100.33 359.5,-105.67 359.5,-105.67 359.5,-116.33 359.5,-116.33 359.5,-121.67 354.17,-127 348.83,-127 348.83,-127 313.17,-127 313.17,-127 307.83,-127 302.5,-121.67 302.5,-116.33 302.5,-116.33 302.5,-105.67 302.5,-105.67 302.5,-100.33 307.83,-95 313.17,-95"/>
</a>
</g>
</g>
<!-- function&#45;1&#45;RegVal -->
<g id="node18" class="node">
<title>function&#45;1&#45;RegVal</title>
<g id="a_node18"><a xlink:title="Inst&#45;1: function&#45;1&#45;RegVal">
<path fill="white" stroke="transparent" d="M243.17,-95C243.17,-95 278.83,-95 278.83,-95 284.17,-95 289.5,-100.33 289.5,-105.67 289.5,-105.67 289.5,-116.33 289.5,-116.33 289.5,-121.67 284.17,-127 278.83,-127 278.83,-127 243.17,-127 243.17,-127 237.83,-127 232.5,-121.67 232.5,-116.33 232.5,-116.33 232.5,-105.67 232.5,-105.67 232.5,-100.33 237.83,-95 243.17,-95"/>
<text text-anchor="start" x="238" y="-107.3" font-family="Helvetica,sans-Serif" font-size="14.00">RegVal</text>
<path fill="none" stroke="black" d="M243.17,-95C243.17,-95 278.83,-95 278.83,-95 284.17,-95 289.5,-100.33 289.5,-105.67 289.5,-105.67 289.5,-116.33 289.5,-116.33 289.5,-121.67 284.17,-127 278.83,-127 278.83,-127 243.17,-127 243.17,-127 237.83,-127 232.5,-121.67 232.5,-116.33 232.5,-116.33 232.5,-105.67 232.5,-105.67 232.5,-100.33 237.83,-95 243.17,-95"/>
</a>
</g>
</g>
<!-- primitive&#45;String&#45;1 -->
<g id="node19" class="node">
<title>primitive&#45;String&#45;1</title>
<g id="a_node19"><a xlink:title="String&#45;1: primitive&#45;String&#45;1">
<path fill="white" stroke="transparent" d="M244.17,-16C244.17,-16 279.83,-16 279.83,-16 285.17,-16 290.5,-21.33 290.5,-26.67 290.5,-26.67 290.5,-37.33 290.5,-37.33 290.5,-42.67 285.17,-48 279.83,-48 279.83,-48 244.17,-48 244.17,-48 238.83,-48 233.5,-42.67 233.5,-37.33 233.5,-37.33 233.5,-26.67 233.5,-26.67 233.5,-21.33 238.83,-16 244.17,-16"/>
<text text-anchor="start" x="239" y="-28.3" font-family="Helvetica,sans-Serif" font-size="14.00">&quot;a3_0&quot;</text>
<path fill="none" stroke="black" d="M244.17,-16C244.17,-16 279.83,-16 279.83,-16 285.17,-16 290.5,-21.33 290.5,-26.67 290.5,-26.67 290.5,-37.33 290.5,-37.33 290.5,-42.67 285.17,-48 279.83,-48 279.83,-48 244.17,-48 244.17,-48 238.83,-48 233.5,-42.67 233.5,-37.33 233.5,-37.33 233.5,-26.67 233.5,-26.67 233.5,-21.33 238.83,-16 244.17,-16"/>
</a>
</g>
</g>
<!-- function&#45;2&#45;RegVal -->
<g id="node20" class="node">
<title>function&#45;2&#45;RegVal</title>
<g id="a_node20"><a xlink:title="Inst&#45;2: function&#45;2&#45;RegVal">
<path fill="white" stroke="transparent" d="M383.17,-95C383.17,-95 418.83,-95 418.83,-95 424.17,-95 429.5,-100.33 429.5,-105.67 429.5,-105.67 429.5,-116.33 429.5,-116.33 429.5,-121.67 424.17,-127 418.83,-127 418.83,-127 383.17,-127 383.17,-127 377.83,-127 372.5,-121.67 372.5,-116.33 372.5,-116.33 372.5,-105.67 372.5,-105.67 372.5,-100.33 377.83,-95 383.17,-95"/>
<text text-anchor="start" x="378" y="-107.3" font-family="Helvetica,sans-Serif" font-size="14.00">RegVal</text>
<path fill="none" stroke="black" d="M383.17,-95C383.17,-95 418.83,-95 418.83,-95 424.17,-95 429.5,-100.33 429.5,-105.67 429.5,-105.67 429.5,-116.33 429.5,-116.33 429.5,-121.67 424.17,-127 418.83,-127 418.83,-127 383.17,-127 383.17,-127 377.83,-127 372.5,-121.67 372.5,-116.33 372.5,-116.33 372.5,-105.67 372.5,-105.67 372.5,-100.33 377.83,-95 383.17,-95"/>
</a>
</g>
</g>
<!-- primitive&#45;String&#45;2 -->
<g id="node21" class="node">
<title>primitive&#45;String&#45;2</title>
<g id="a_node21"><a xlink:title="String&#45;2: primitive&#45;String&#45;2">
<path fill="white" stroke="transparent" d="M384.17,-16C384.17,-16 419.83,-16 419.83,-16 425.17,-16 430.5,-21.33 430.5,-26.67 430.5,-26.67 430.5,-37.33 430.5,-37.33 430.5,-42.67 425.17,-48 419.83,-48 419.83,-48 384.17,-48 384.17,-48 378.83,-48 373.5,-42.67 373.5,-37.33 373.5,-37.33 373.5,-26.67 373.5,-26.67 373.5,-21.33 378.83,-16 384.17,-16"/>
<text text-anchor="start" x="379" y="-28.3" font-family="Helvetica,sans-Serif" font-size="14.00">&quot;a6_0&quot;</text>
<path fill="none" stroke="black" d="M384.17,-16C384.17,-16 419.83,-16 419.83,-16 425.17,-16 430.5,-21.33 430.5,-26.67 430.5,-26.67 430.5,-37.33 430.5,-37.33 430.5,-42.67 425.17,-48 419.83,-48 419.83,-48 384.17,-48 384.17,-48 378.83,-48 373.5,-42.67 373.5,-37.33 373.5,-37.33 373.5,-26.67 373.5,-26.67 373.5,-21.33 378.83,-16 384.17,-16"/>
</a>
</g>
</g>
<!-- function&#45;0&#45;Auipc -->
<g id="node22" class="node">
<title>function&#45;0&#45;Auipc</title>
<g id="a_node22"><a xlink:title="Inst&#45;14: function&#45;0&#45;Auipc">
<path fill="white" stroke="transparent" d="M727.67,-174C727.67,-174 756.33,-174 756.33,-174 761.67,-174 767,-179.33 767,-184.67 767,-184.67 767,-195.33 767,-195.33 767,-200.67 761.67,-206 756.33,-206 756.33,-206 727.67,-206 727.67,-206 722.33,-206 717,-200.67 717,-195.33 717,-195.33 717,-184.67 717,-184.67 717,-179.33 722.33,-174 727.67,-174"/>
<text text-anchor="start" x="722" y="-186.3" font-family="Helvetica,sans-Serif" font-size="14.00">Auipc</text>
<path fill="none" stroke="black" d="M727.67,-174C727.67,-174 756.33,-174 756.33,-174 761.67,-174 767,-179.33 767,-184.67 767,-184.67 767,-195.33 767,-195.33 767,-200.67 761.67,-206 756.33,-206 756.33,-206 727.67,-206 727.67,-206 722.33,-206 717,-200.67 717,-195.33 717,-195.33 717,-184.67 717,-184.67 717,-179.33 722.33,-174 727.67,-174"/>
</a>
</g>
</g>
<!-- function&#45;3&#45;Sw -->
<g id="node23" class="node">
<title>function&#45;3&#45;Sw</title>
<g id="a_node23"><a xlink:title="Inst&#45;12: function&#45;3&#45;Sw">
<path fill="white" stroke="transparent" d="M107.67,-174C107.67,-174 118.33,-174 118.33,-174 123.67,-174 129,-179.33 129,-184.67 129,-184.67 129,-195.33 129,-195.33 129,-200.67 123.67,-206 118.33,-206 118.33,-206 107.67,-206 107.67,-206 102.33,-206 97,-200.67 97,-195.33 97,-195.33 97,-184.67 97,-184.67 97,-179.33 102.33,-174 107.67,-174"/>
<text text-anchor="start" x="102.5" y="-186.3" font-family="Helvetica,sans-Serif" font-size="14.00">Sw</text>
<path fill="none" stroke="black" d="M107.67,-174C107.67,-174 118.33,-174 118.33,-174 123.67,-174 129,-179.33 129,-184.67 129,-184.67 129,-195.33 129,-195.33 129,-200.67 123.67,-206 118.33,-206 118.33,-206 107.67,-206 107.67,-206 102.33,-206 97,-200.67 97,-195.33 97,-195.33 97,-184.67 97,-184.67 97,-179.33 102.33,-174 107.67,-174"/>
</a>
</g>
</g>
<!-- function&#45;0&#45;RegVal -->
<g id="node24" class="node">
<title>function&#45;0&#45;RegVal</title>
<g id="a_node24"><a xlink:title="Inst&#45;0: function&#45;0&#45;RegVal">
<path fill="white" stroke="transparent" d="M99.17,-95C99.17,-95 134.83,-95 134.83,-95 140.17,-95 145.5,-100.33 145.5,-105.67 145.5,-105.67 145.5,-116.33 145.5,-116.33 145.5,-121.67 140.17,-127 134.83,-127 134.83,-127 99.17,-127 99.17,-127 93.83,-127 88.5,-121.67 88.5,-116.33 88.5,-116.33 88.5,-105.67 88.5,-105.67 88.5,-100.33 93.83,-95 99.17,-95"/>
<text text-anchor="start" x="94" y="-107.3" font-family="Helvetica,sans-Serif" font-size="14.00">RegVal</text>
<path fill="none" stroke="black" d="M99.17,-95C99.17,-95 134.83,-95 134.83,-95 140.17,-95 145.5,-100.33 145.5,-105.67 145.5,-105.67 145.5,-116.33 145.5,-116.33 145.5,-121.67 140.17,-127 134.83,-127 134.83,-127 99.17,-127 99.17,-127 93.83,-127 88.5,-121.67 88.5,-116.33 88.5,-116.33 88.5,-105.67 88.5,-105.67 88.5,-100.33 93.83,-95 99.17,-95"/>
</a>
</g>
</g>
<!-- function&#45;2&#45;Sw -->
<g id="node25" class="node">
<title>function&#45;2&#45;Sw</title>
<g id="a_node25"><a xlink:title="Inst&#45;10: function&#45;2&#45;Sw">
<path fill="white" stroke="transparent" d="M391.67,-174C391.67,-174 402.33,-174 402.33,-174 407.67,-174 413,-179.33 413,-184.67 413,-184.67 413,-195.33 413,-195.33 413,-200.67 407.67,-206 402.33,-206 402.33,-206 391.67,-206 391.67,-206 386.33,-206 381,-200.67 381,-195.33 381,-195.33 381,-184.67 381,-184.67 381,-179.33 386.33,-174 391.67,-174"/>
<text text-anchor="start" x="386.5" y="-186.3" font-family="Helvetica,sans-Serif" font-size="14.00">Sw</text>
<path fill="none" stroke="black" d="M391.67,-174C391.67,-174 402.33,-174 402.33,-174 407.67,-174 413,-179.33 413,-184.67 413,-184.67 413,-195.33 413,-195.33 413,-200.67 407.67,-206 402.33,-206 402.33,-206 391.67,-206 391.67,-206 386.33,-206 381,-200.67 381,-195.33 381,-195.33 381,-184.67 381,-184.67 381,-179.33 386.33,-174 391.67,-174"/>
</a>
</g>
</g>
<!-- function&#45;3&#45;RegVal -->
<g id="node26" class="node">
<title>function&#45;3&#45;RegVal</title>
<g id="a_node26"><a xlink:title="Inst&#45;3: function&#45;3&#45;RegVal">
<path fill="white" stroke="transparent" d="M527.17,-95C527.17,-95 562.83,-95 562.83,-95 568.17,-95 573.5,-100.33 573.5,-105.67 573.5,-105.67 573.5,-116.33 573.5,-116.33 573.5,-121.67 568.17,-127 562.83,-127 562.83,-127 527.17,-127 527.17,-127 521.83,-127 516.5,-121.67 516.5,-116.33 516.5,-116.33 516.5,-105.67 516.5,-105.67 516.5,-100.33 521.83,-95 527.17,-95"/>
<text text-anchor="start" x="522" y="-107.3" font-family="Helvetica,sans-Serif" font-size="14.00">RegVal</text>
<path fill="none" stroke="black" d="M527.17,-95C527.17,-95 562.83,-95 562.83,-95 568.17,-95 573.5,-100.33 573.5,-105.67 573.5,-105.67 573.5,-116.33 573.5,-116.33 573.5,-121.67 568.17,-127 562.83,-127 562.83,-127 527.17,-127 527.17,-127 521.83,-127 516.5,-121.67 516.5,-116.33 516.5,-116.33 516.5,-105.67 516.5,-105.67 516.5,-100.33 521.83,-95 527.17,-95"/>
</a>
</g>
</g>
<!-- primitive&#45;String&#45;3 -->
<g id="node27" class="node">
<title>primitive&#45;String&#45;3</title>
<g id="a_node27"><a xlink:title="String&#45;3: primitive&#45;String&#45;3">
<path fill="white" stroke="transparent" d="M528.17,-16C528.17,-16 563.83,-16 563.83,-16 569.17,-16 574.5,-21.33 574.5,-26.67 574.5,-26.67 574.5,-37.33 574.5,-37.33 574.5,-42.67 569.17,-48 563.83,-48 563.83,-48 528.17,-48 528.17,-48 522.83,-48 517.5,-42.67 517.5,-37.33 517.5,-37.33 517.5,-26.67 517.5,-26.67 517.5,-21.33 522.83,-16 528.17,-16"/>
<text text-anchor="start" x="523" y="-28.3" font-family="Helvetica,sans-Serif" font-size="14.00">&quot;a7_0&quot;</text>
<path fill="none" stroke="black" d="M528.17,-16C528.17,-16 563.83,-16 563.83,-16 569.17,-16 574.5,-21.33 574.5,-26.67 574.5,-26.67 574.5,-37.33 574.5,-37.33 574.5,-42.67 569.17,-48 563.83,-48 563.83,-48 528.17,-48 528.17,-48 522.83,-48 517.5,-42.67 517.5,-37.33 517.5,-37.33 517.5,-26.67 517.5,-26.67 517.5,-21.33 522.83,-16 528.17,-16"/>
</a>
</g>
</g>
<!-- function&#45;1&#45;Sw -->
<g id="node28" class="node">
<title>function&#45;1&#45;Sw</title>
<g id="a_node28"><a xlink:title="Inst&#45;8: function&#45;1&#45;Sw">
<path fill="white" stroke="transparent" d="M535.67,-174C535.67,-174 546.33,-174 546.33,-174 551.67,-174 557,-179.33 557,-184.67 557,-184.67 557,-195.33 557,-195.33 557,-200.67 551.67,-206 546.33,-206 546.33,-206 535.67,-206 535.67,-206 530.33,-206 525,-200.67 525,-195.33 525,-195.33 525,-184.67 525,-184.67 525,-179.33 530.33,-174 535.67,-174"/>
<text text-anchor="start" x="530.5" y="-186.3" font-family="Helvetica,sans-Serif" font-size="14.00">Sw</text>
<path fill="none" stroke="black" d="M535.67,-174C535.67,-174 546.33,-174 546.33,-174 551.67,-174 557,-179.33 557,-184.67 557,-184.67 557,-195.33 557,-195.33 557,-200.67 551.67,-206 546.33,-206 546.33,-206 535.67,-206 535.67,-206 530.33,-206 525,-200.67 525,-195.33 525,-195.33 525,-184.67 525,-184.67 525,-179.33 530.33,-174 535.67,-174"/>
</a>
</g>
</g>
<!-- primitive&#45;String&#45;4 -->
<g id="node29" class="node">
<title>primitive&#45;String&#45;4</title>
<g id="a_node29"><a xlink:title="String&#45;4: primitive&#45;String&#45;4">
<path fill="white" stroke="transparent" d="M314.67,-16C314.67,-16 349.33,-16 349.33,-16 354.67,-16 360,-21.33 360,-26.67 360,-26.67 360,-37.33 360,-37.33 360,-42.67 354.67,-48 349.33,-48 349.33,-48 314.67,-48 314.67,-48 309.33,-48 304,-42.67 304,-37.33 304,-37.33 304,-26.67 304,-26.67 304,-21.33 309.33,-16 314.67,-16"/>
<text text-anchor="start" x="309" y="-28.3" font-family="Helvetica,sans-Serif" font-size="14.00">&quot;sp_0&quot;</text>
<path fill="none" stroke="black" d="M314.67,-16C314.67,-16 349.33,-16 349.33,-16 354.67,-16 360,-21.33 360,-26.67 360,-26.67 360,-37.33 360,-37.33 360,-42.67 354.67,-48 349.33,-48 349.33,-48 314.67,-48 314.67,-48 309.33,-48 304,-42.67 304,-37.33 304,-37.33 304,-26.67 304,-26.67 304,-21.33 309.33,-16 314.67,-16"/>
</a>
</g>
</g>
<!-- primitive&#45;String&#45;0 -->
<g id="node30" class="node">
<title>primitive&#45;String&#45;0</title>
<g id="a_node30"><a xlink:title="String&#45;0: primitive&#45;String&#45;0">
<path fill="white" stroke="transparent" d="M100.17,-16C100.17,-16 135.83,-16 135.83,-16 141.17,-16 146.5,-21.33 146.5,-26.67 146.5,-26.67 146.5,-37.33 146.5,-37.33 146.5,-42.67 141.17,-48 135.83,-48 135.83,-48 100.17,-48 100.17,-48 94.83,-48 89.5,-42.67 89.5,-37.33 89.5,-37.33 89.5,-26.67 89.5,-26.67 89.5,-21.33 94.83,-16 100.17,-16"/>
<text text-anchor="start" x="95" y="-28.3" font-family="Helvetica,sans-Serif" font-size="14.00">&quot;a2_0&quot;</text>
<path fill="none" stroke="black" d="M100.17,-16C100.17,-16 135.83,-16 135.83,-16 141.17,-16 146.5,-21.33 146.5,-26.67 146.5,-26.67 146.5,-37.33 146.5,-37.33 146.5,-42.67 141.17,-48 135.83,-48 135.83,-48 100.17,-48 100.17,-48 94.83,-48 89.5,-42.67 89.5,-37.33 89.5,-37.33 89.5,-26.67 89.5,-26.67 89.5,-21.33 94.83,-16 100.17,-16"/>
</a>
</g>
</g>
</g>
</svg>
