<?xml version="1.0" encoding="UTF-8" standalone="no"?>
<!DOCTYPE svg PUBLIC "-//W3C//DTD SVG 1.1//EN"
 "http://www.w3.org/Graphics/SVG/1.1/DTD/svg11.dtd">
<!-- Generated by graphviz version 2.43.0 (0)
 -->
<!-- Title: %3 Pages: 1 -->
<svg width="665pt" height="388pt"
 viewBox="0.00 0.00 665.00 388.00" xmlns="http://www.w3.org/2000/svg" xmlns:xlink="http://www.w3.org/1999/xlink">
<g id="graph0" class="graph" transform="scale(1 1) rotate(0) translate(4 384)">
<title>%3</title>
<polygon fill="white" stroke="#000000" points="-4,4 -4,-384 661,-384 661,4 -4,4"/>
<g id="clust1" class="cluster">
<title>outer_cluster_Imm&#45;8</title>
</g>
<g id="clust2" class="cluster">
<title>cluster_Imm&#45;8</title>
<path fill="#ffffb3" stroke="black" stroke-dasharray="5,2" d="M292,-90C292,-90 336,-90 336,-90 342,-90 348,-96 348,-102 348,-102 348,-120 348,-120 348,-126 342,-132 336,-132 336,-132 292,-132 292,-132 286,-132 280,-126 280,-120 280,-120 280,-102 280,-102 280,-96 286,-90 292,-90"/>
</g>
<g id="clust4" class="cluster">
<title>outer_cluster_Imm&#45;4</title>
</g>
<g id="clust5" class="cluster">
<title>cluster_Imm&#45;4</title>
<path fill="#ffffb3" stroke="black" stroke-dasharray="5,2" d="M409,-90C409,-90 469,-90 469,-90 475,-90 481,-96 481,-102 481,-102 481,-120 481,-120 481,-126 475,-132 469,-132 469,-132 409,-132 409,-132 403,-132 397,-126 397,-120 397,-120 397,-102 397,-102 397,-96 403,-90 409,-90"/>
</g>
<g id="clust7" class="cluster">
<title>outer_cluster_Imm&#45;2</title>
</g>
<g id="clust8" class="cluster">
<title>cluster_Imm&#45;2</title>
<path fill="#ffffb3" stroke="black" stroke-dasharray="5,2" d="M548,-248C548,-248 608,-248 608,-248 614,-248 620,-254 620,-260 620,-260 620,-278 620,-278 620,-284 614,-290 608,-290 608,-290 548,-290 548,-290 542,-290 536,-284 536,-278 536,-278 536,-260 536,-260 536,-254 542,-248 548,-248"/>
</g>
<g id="clust10" class="cluster">
<title>outer_cluster_Imm&#45;6</title>
</g>
<g id="clust11" class="cluster">
<title>cluster_Imm&#45;6</title>
<path fill="#ffffb3" stroke="black" stroke-dasharray="5,2" d="M23,-169C23,-169 83,-169 83,-169 89,-169 95,-175 95,-181 95,-181 95,-199 95,-199 95,-205 89,-211 83,-211 83,-211 23,-211 23,-211 17,-211 11,-205 11,-199 11,-199 11,-181 11,-181 11,-175 17,-169 23,-169"/>
</g>
<g id="clust13" class="cluster">
<title>outer_cluster_Inst&#45;9</title>
</g>
<g id="clust14" class="cluster">
<title>cluster_Inst&#45;9</title>
<path fill="#bebada" stroke="black" stroke-dasharray="5,2" d="M162,-248C162,-248 314,-248 314,-248 320,-248 326,-254 326,-260 326,-260 326,-278 326,-278 326,-284 320,-290 314,-290 314,-290 162,-290 162,-290 156,-290 150,-284 150,-278 150,-278 150,-260 150,-260 150,-254 156,-248 162,-248"/>
</g>
<g id="clust16" class="cluster">
<title>outer_cluster_Inst&#45;7</title>
</g>
<g id="clust17" class="cluster">
<title>cluster_Inst&#45;7</title>
<path fill="#bebada" stroke="black" stroke-dasharray="5,2" d="M57,-327C57,-327 209,-327 209,-327 215,-327 221,-333 221,-339 221,-339 221,-357 221,-357 221,-363 215,-369 209,-369 209,-369 57,-369 57,-369 51,-369 45,-363 45,-357 45,-357 45,-339 45,-339 45,-333 51,-327 57,-327"/>
</g>
<g id="clust19" class="cluster">
<title>outer_cluster_Inst&#45;11</title>
</g>
<g id="clust20" class="cluster">
<title>cluster_Inst&#45;11</title>
<path fill="#bebada" stroke="black" stroke-dasharray="5,2" d="M344,-248C344,-248 496,-248 496,-248 502,-248 508,-254 508,-260 508,-260 508,-278 508,-278 508,-284 502,-290 496,-290 496,-290 344,-290 344,-290 338,-290 332,-284 332,-278 332,-278 332,-260 332,-260 332,-254 338,-248 344,-248"/>
</g>
<g id="clust22" class="cluster">
<title>outer_cluster_Inst&#45;1</title>
</g>
<g id="clust23" class="cluster">
<title>cluster_Inst&#45;1</title>
<path fill="#bebada" stroke="black" stroke-dasharray="5,2" d="M173,-169C173,-169 213,-169 213,-169 219,-169 225,-175 225,-181 225,-181 225,-199 225,-199 225,-205 219,-211 213,-211 213,-211 173,-211 173,-211 167,-211 161,-205 161,-199 161,-199 161,-181 161,-181 161,-175 167,-169 173,-169"/>
</g>
<g id="clust25" class="cluster">
<title>outer_cluster_Inst&#45;3</title>
</g>
<g id="clust26" class="cluster">
<title>cluster_Inst&#45;3</title>
<path fill="#bebada" stroke="black" stroke-dasharray="5,2" d="M560,-327C560,-327 596,-327 596,-327 602,-327 608,-333 608,-339 608,-339 608,-357 608,-357 608,-363 602,-369 596,-369 596,-369 560,-369 560,-369 554,-369 548,-363 548,-357 548,-357 548,-339 548,-339 548,-333 554,-327 560,-327"/>
</g>
<g id="clust28" class="cluster">
<title>outer_cluster_Inst&#45;12</title>
</g>
<g id="clust29" class="cluster">
<title>cluster_Inst&#45;12</title>
<path fill="#bebada" stroke="black" stroke-dasharray="5,2" d="M296,-169C296,-169 332,-169 332,-169 338,-169 344,-175 344,-181 344,-181 344,-199 344,-199 344,-205 338,-211 332,-211 332,-211 296,-211 296,-211 290,-211 284,-205 284,-199 284,-199 284,-181 284,-181 284,-175 290,-169 296,-169"/>
</g>
<g id="clust31" class="cluster">
<title>outer_cluster_Inst&#45;5</title>
</g>
<g id="clust32" class="cluster">
<title>cluster_Inst&#45;5</title>
<path fill="#bebada" stroke="black" stroke-dasharray="5,2" d="M430,-169C430,-169 466,-169 466,-169 472,-169 478,-175 478,-181 478,-181 478,-199 478,-199 478,-205 472,-211 466,-211 466,-211 430,-211 430,-211 424,-211 418,-205 418,-199 418,-199 418,-181 418,-181 418,-175 424,-169 430,-169"/>
</g>
<g id="clust34" class="cluster">
<title>outer_cluster_Inst&#45;10</title>
</g>
<g id="clust35" class="cluster">
<title>cluster_Inst&#45;10</title>
<path fill="#bebada" stroke="black" stroke-dasharray="5,2" d="M74,-248C74,-248 110,-248 110,-248 116,-248 122,-254 122,-260 122,-260 122,-278 122,-278 122,-284 116,-290 110,-290 110,-290 74,-290 74,-290 68,-290 62,-284 62,-278 62,-278 62,-260 62,-260 62,-254 68,-248 74,-248"/>
</g>
<g id="clust37" class="cluster">
<title>outer_cluster_Inst&#45;0</title>
</g>
<g id="clust38" class="cluster">
<title>cluster_Inst&#45;0</title>
<path fill="#bebada" stroke="black" stroke-dasharray="5,2" d="M510,-90C510,-90 550,-90 550,-90 556,-90 562,-96 562,-102 562,-102 562,-120 562,-120 562,-126 556,-132 550,-132 550,-132 510,-132 510,-132 504,-132 498,-126 498,-120 498,-120 498,-102 498,-102 498,-96 504,-90 510,-90"/>
</g>
<g id="clust40" class="cluster">
<title>outer_cluster_String&#45;5</title>
</g>
<g id="clust41" class="cluster">
<title>cluster_String&#45;5</title>
<path fill="#fb8072" stroke="black" stroke-dasharray="5,2" d="M36,-90C36,-90 72,-90 72,-90 78,-90 84,-96 84,-102 84,-102 84,-120 84,-120 84,-126 78,-132 72,-132 72,-132 36,-132 36,-132 30,-132 24,-126 24,-120 24,-120 24,-102 24,-102 24,-96 30,-90 36,-90"/>
</g>
<g id="clust43" class="cluster">
<title>outer_cluster_String&#45;1</title>
</g>
<g id="clust44" class="cluster">
<title>cluster_String&#45;1</title>
<path fill="#fb8072" stroke="black" stroke-dasharray="5,2" d="M518,-11C518,-11 554,-11 554,-11 560,-11 566,-17 566,-23 566,-23 566,-41 566,-41 566,-47 560,-53 554,-53 554,-53 518,-53 518,-53 512,-53 506,-47 506,-41 506,-41 506,-23 506,-23 506,-17 512,-11 518,-11"/>
</g>
<g id="clust46" class="cluster">
<title>outer_cluster_String&#45;3</title>
</g>
<g id="clust47" class="cluster">
<title>cluster_String&#45;3</title>
<path fill="#fb8072" stroke="black" stroke-dasharray="5,2" d="M524,-169C524,-169 634,-169 634,-169 640,-169 646,-175 646,-181 646,-181 646,-199 646,-199 646,-205 640,-211 634,-211 634,-211 524,-211 524,-211 518,-211 512,-205 512,-199 512,-199 512,-181 512,-181 512,-175 518,-169 524,-169"/>
</g>
<g id="clust49" class="cluster">
<title>outer_cluster_String&#45;4</title>
</g>
<g id="clust50" class="cluster">
<title>cluster_String&#45;4</title>
<path fill="#fb8072" stroke="black" stroke-dasharray="5,2" d="M380,-11C380,-11 488,-11 488,-11 494,-11 500,-17 500,-23 500,-23 500,-41 500,-41 500,-47 494,-53 488,-53 488,-53 380,-53 380,-53 374,-53 368,-47 368,-41 368,-41 368,-23 368,-23 368,-17 374,-11 380,-11"/>
</g>
<g id="clust52" class="cluster">
<title>outer_cluster_String&#45;2</title>
</g>
<g id="clust53" class="cluster">
<title>cluster_String&#45;2</title>
<path fill="#fb8072" stroke="black" stroke-dasharray="5,2" d="M168,-90C168,-90 220,-90 220,-90 226,-90 232,-96 232,-102 232,-102 232,-120 232,-120 232,-126 226,-132 220,-132 220,-132 168,-132 168,-132 162,-132 156,-126 156,-120 156,-120 156,-102 156,-102 156,-96 162,-90 168,-90"/>
</g>
<g id="clust55" class="cluster">
<title>outer_cluster_i64&#45;4</title>
</g>
<g id="clust56" class="cluster">
<title>cluster_i64&#45;4</title>
<path fill="#80b1d3" stroke="black" stroke-dasharray="5,2" d="M296,-11C296,-11 332,-11 332,-11 338,-11 344,-17 344,-23 344,-23 344,-41 344,-41 344,-47 338,-53 332,-53 332,-53 296,-53 296,-53 290,-53 284,-47 284,-41 284,-41 284,-23 284,-23 284,-17 290,-11 296,-11"/>
</g>
<!-- function&#45;0&#45;ImmVal&#45;&gt;primitive&#45;i64&#45;4 -->
<g id="edge1" class="edge">
<title>function&#45;0&#45;ImmVal:s&#45;&gt;primitive&#45;i64&#45;4</title>
<path fill="none" stroke="black" d="M314,-95C314,-81.84 314,-67.11 314,-55.3"/>
<polygon fill="black" stroke="black" points="315.75,-58 314,-53 312.25,-58 315.75,-58"/>
</g>
<!-- function&#45;1&#45;ImmLabel&#45;&gt;primitive&#45;String&#45;4 -->
<g id="edge2" class="edge">
<title>function&#45;1&#45;ImmLabel:s&#45;&gt;primitive&#45;String&#45;4</title>
<path fill="none" stroke="black" d="M440,-95C440,-81.78 438.63,-67.04 437.2,-55.25"/>
<polygon fill="black" stroke="black" points="439.62,-57.31 436.54,-53 436.26,-58.29 439.62,-57.31"/>
</g>
<!-- function&#45;0&#45;ImmLabel&#45;&gt;primitive&#45;String&#45;3 -->
<g id="edge3" class="edge">
<title>function&#45;0&#45;ImmLabel:s&#45;&gt;primitive&#45;String&#45;3</title>
<path fill="none" stroke="black" d="M579,-253C579,-239.84 579,-225.11 579,-213.3"/>
<polygon fill="black" stroke="black" points="580.75,-216 579,-211 577.25,-216 580.75,-216"/>
</g>
<!-- function&#45;2&#45;ImmLabel&#45;&gt;primitive&#45;String&#45;5 -->
<g id="edge4" class="edge">
<title>function&#45;2&#45;ImmLabel:s&#45;&gt;primitive&#45;String&#45;5</title>
<path fill="none" stroke="black" d="M54,-174C54,-160.84 54,-146.11 54,-134.3"/>
<polygon fill="black" stroke="black" points="55.75,-137 54,-132 52.25,-137 55.75,-137"/>
</g>
<!-- function&#45;0&#45;Blt&#45;&gt;function&#45;0&#45;ImmVal -->
<g id="edge7" class="edge">
<title>function&#45;0&#45;Blt:s&#45;&gt;function&#45;0&#45;ImmVal</title>
<path fill="none" stroke="black" d="M249,-253C249,-206.94 277.95,-159.56 297.21,-133.13"/>
<polygon fill="black" stroke="black" points="296.21,-136.9 298.22,-132 293.59,-134.58 296.21,-136.9"/>
</g>
<!-- function&#45;0&#45;Blt&#45;&gt;function&#45;1&#45;RegVal -->
<g id="edge5" class="edge">
<title>function&#45;0&#45;Blt:s&#45;&gt;function&#45;1&#45;RegVal</title>
<path fill="none" stroke="black" d="M230,-253C230,-237.93 221.84,-223.34 213.18,-212.1"/>
<polygon fill="black" stroke="black" points="216.85,-213.1 211.98,-211 214.48,-215.67 216.85,-213.1"/>
</g>
<!-- function&#45;0&#45;Blt&#45;&gt;function&#45;0&#45;Lw -->
<g id="edge6" class="edge">
<title>function&#45;0&#45;Blt:s&#45;&gt;function&#45;0&#45;Lw</title>
<path fill="none" stroke="black" d="M242,-253C242,-244.05 357.53,-213.73 415.55,-199.07"/>
<polygon fill="black" stroke="black" points="414.39,-201.66 418,-197.79 412.76,-198.56 414.39,-201.66"/>
</g>
<!-- function&#45;1&#45;RegVal&#45;&gt;primitive&#45;String&#45;2 -->
<g id="edge29" class="edge">
<title>function&#45;1&#45;RegVal:s&#45;&gt;primitive&#45;String&#45;2</title>
<path fill="none" stroke="black" d="M194,-174C194,-160.84 194,-146.11 194,-134.3"/>
<polygon fill="black" stroke="black" points="195.75,-137 194,-132 192.25,-137 195.75,-137"/>
</g>
<!-- function&#45;0&#45;Lw&#45;&gt;function&#45;1&#45;ImmLabel -->
<g id="edge33" class="edge">
<title>function&#45;0&#45;Lw:s&#45;&gt;function&#45;1&#45;ImmLabel</title>
<path fill="none" stroke="black" d="M456,-174C456,-160.33 452.11,-145.54 448.05,-133.84"/>
<polygon fill="black" stroke="black" points="450.79,-135.99 447.31,-132 447.55,-137.29 450.79,-135.99"/>
</g>
<!-- function&#45;0&#45;Lw&#45;&gt;function&#45;0&#45;RegVal -->
<g id="edge32" class="edge">
<title>function&#45;0&#45;Lw:s&#45;&gt;function&#45;0&#45;RegVal</title>
<path fill="none" stroke="black" d="M440,-174C440,-159.8 470.77,-141.01 496.33,-127.85"/>
<polygon fill="black" stroke="black" points="495.27,-131 498,-126.46 493.03,-128.31 495.27,-131"/>
</g>
<!-- function&#45;1&#45;Bge&#45;&gt;function&#45;0&#45;ImmVal -->
<g id="edge10" class="edge">
<title>function&#45;1&#45;Bge:s&#45;&gt;function&#45;0&#45;ImmVal</title>
<path fill="none" stroke="black" d="M194,-253C194,-230.58 213.2,-232.41 226,-214 240.1,-193.72 238.41,-185.16 254,-166 263.93,-153.8 276.68,-141.92 287.87,-132.42"/>
<polygon fill="black" stroke="black" points="284.94,-135.5 288.92,-132 283.63,-132.26 284.94,-135.5"/>
</g>
<!-- function&#45;1&#45;Bge&#45;&gt;function&#45;1&#45;RegVal -->
<g id="edge9" class="edge">
<title>function&#45;1&#45;Bge:s&#45;&gt;function&#45;1&#45;RegVal</title>
<path fill="none" stroke="black" d="M185,-253C185,-239.73 186.83,-224.99 188.73,-213.22"/>
<polygon fill="black" stroke="black" points="189.4,-216.29 189.61,-211 186.14,-215.01 189.4,-216.29"/>
</g>
<!-- function&#45;1&#45;Bge&#45;&gt;function&#45;0&#45;Lw -->
<g id="edge8" class="edge">
<title>function&#45;1&#45;Bge:s&#45;&gt;function&#45;0&#45;Lw</title>
<path fill="none" stroke="black" d="M171,-253C171,-253 342.89,-214.53 415.86,-198.19"/>
<polygon fill="black" stroke="black" points="414.4,-200.95 418,-197.06 412.76,-197.85 414.4,-200.95"/>
</g>
<!-- function&#45;1&#45;Seq2&#45;&gt;function&#45;2&#45;Blt -->
<g id="edge11" class="edge">
<title>function&#45;1&#45;Seq2:s&#45;&gt;function&#45;2&#45;Blt</title>
<path fill="none" stroke="black" d="M285,-253C285,-178.07 407.84,-204.55 445,-223.5 454.53,-228.36 461.96,-237.41 467.33,-246.17"/>
<polygon fill="black" stroke="black" points="464.37,-245.62 469.1,-248 466.88,-243.19 464.37,-245.62"/>
</g>
<!-- function&#45;1&#45;Seq2&#45;&gt;function&#45;1&#45;Jal -->
<g id="edge12" class="edge">
<title>function&#45;1&#45;Seq2:s&#45;&gt;function&#45;1&#45;Jal</title>
<path fill="none" stroke="black" d="M307,-253C307,-239.76 308.6,-225.02 310.27,-213.24"/>
<polygon fill="black" stroke="black" points="311.07,-216.3 311.03,-211 307.76,-215.16 311.07,-216.3"/>
</g>
<!-- function&#45;2&#45;Blt&#45;&gt;function&#45;0&#45;ImmVal -->
<g id="edge23" class="edge">
<title>function&#45;2&#45;Blt:s&#45;&gt;function&#45;0&#45;ImmVal</title>
<path fill="none" stroke="black" d="M489,-253C489,-216.61 445.15,-237.06 417,-214 395.52,-196.4 396.5,-185.77 377,-166 365.37,-154.2 351.47,-142.11 339.7,-132.36"/>
<polygon fill="black" stroke="black" points="344.08,-132.24 338.79,-132 342.78,-135.49 344.08,-132.24"/>
</g>
<!-- function&#45;2&#45;Blt&#45;&gt;function&#45;1&#45;RegVal -->
<g id="edge22" class="edge">
<title>function&#45;2&#45;Blt:s&#45;&gt;function&#45;1&#45;RegVal</title>
<path fill="none" stroke="black" d="M482,-253C482,-237.04 462.62,-248.26 447,-245 374.39,-229.84 355.42,-230.08 283,-214 264.31,-209.85 243.6,-204.6 226.76,-200.17"/>
<polygon fill="black" stroke="black" points="230.03,-200.47 225,-198.82 227.91,-203.25 230.03,-200.47"/>
</g>
<!-- function&#45;2&#45;Blt&#45;&gt;function&#45;0&#45;Lw -->
<g id="edge21" class="edge">
<title>function&#45;2&#45;Blt:s&#45;&gt;function&#45;0&#45;Lw</title>
<path fill="none" stroke="black" d="M470,-253C470,-239.11 465.03,-224.42 459.82,-212.83"/>
<polygon fill="black" stroke="black" points="462.83,-214.17 458.59,-211 459.93,-216.12 462.83,-214.17"/>
</g>
<!-- function&#45;1&#45;Jal&#45;&gt;function&#45;0&#45;ImmVal -->
<g id="edge31" class="edge">
<title>function&#45;1&#45;Jal:s&#45;&gt;function&#45;0&#45;ImmVal</title>
<path fill="none" stroke="black" d="M314,-174C314,-160.84 314,-146.11 314,-134.3"/>
<polygon fill="black" stroke="black" points="315.75,-137 314,-132 312.25,-137 315.75,-137"/>
</g>
<!-- function&#45;1&#45;Blt&#45;&gt;function&#45;2&#45;ImmLabel -->
<g id="edge15" class="edge">
<title>function&#45;1&#45;Blt:s&#45;&gt;function&#45;2&#45;ImmLabel</title>
<path fill="none" stroke="black" d="M144,-332C144,-286.77 75.12,-330.62 50,-293 34.18,-269.3 39.42,-235.12 45.5,-212.98"/>
<polygon fill="black" stroke="black" points="45.46,-216.1 46.89,-211 42.59,-214.09 45.46,-216.1"/>
</g>
<!-- function&#45;1&#45;Blt&#45;&gt;function&#45;1&#45;RegVal -->
<g id="edge14" class="edge">
<title>function&#45;1&#45;Blt:s&#45;&gt;function&#45;1&#45;RegVal</title>
<path fill="none" stroke="black" d="M137,-332C137,-293.27 126.66,-280.56 142,-245 147.5,-232.25 157.4,-220.67 167.02,-211.53"/>
<polygon fill="black" stroke="black" points="164.61,-215.21 167.83,-211 162.69,-212.28 164.61,-215.21"/>
</g>
<!-- function&#45;1&#45;Blt&#45;&gt;function&#45;0&#45;Lw -->
<g id="edge13" class="edge">
<title>function&#45;1&#45;Blt:s&#45;&gt;function&#45;0&#45;Lw</title>
<path fill="none" stroke="black" d="M125,-332C125,-246.23 451.13,-356.31 509,-293 523.39,-277.25 517.76,-264.45 509,-245 502.74,-231.1 490.94,-219.34 479.38,-210.37"/>
<polygon fill="black" stroke="black" points="482.94,-211.11 478,-209.19 480.67,-213.77 482.94,-211.11"/>
</g>
<!-- function&#45;0&#45;Bge&#45;&gt;function&#45;2&#45;ImmLabel -->
<g id="edge18" class="edge">
<title>function&#45;0&#45;Bge:s&#45;&gt;function&#45;2&#45;ImmLabel</title>
<path fill="none" stroke="black" d="M205,-332C205,-265.69 103.32,-344.04 61,-293 51.27,-281.27 50.99,-239.45 51.86,-213.14"/>
<polygon fill="black" stroke="black" points="53.36,-216.13 52.05,-211 49.87,-215.83 53.36,-216.13"/>
</g>
<!-- function&#45;0&#45;Bge&#45;&gt;function&#45;1&#45;RegVal -->
<g id="edge16" class="edge">
<title>function&#45;0&#45;Bge:s&#45;&gt;function&#45;1&#45;RegVal</title>
<path fill="none" stroke="black" d="M182,-332C182,-309.29 156.81,-314.32 149,-293 141.66,-272.97 141.85,-265.1 149,-245 153.33,-232.84 161.7,-221.43 169.98,-212.26"/>
<polygon fill="black" stroke="black" points="168.77,-215.53 171.52,-211 166.54,-212.82 168.77,-215.53"/>
</g>
<!-- function&#45;0&#45;Bge&#45;&gt;function&#45;0&#45;Lw -->
<g id="edge17" class="edge">
<title>function&#45;0&#45;Bge:s&#45;&gt;function&#45;0&#45;Lw</title>
<path fill="none" stroke="black" d="M196,-332C196,-259.48 471.88,-347.26 520,-293 534.15,-277.04 529.54,-264.08 520,-245 511.51,-228.03 494.88,-215.01 479.73,-206.01"/>
<polygon fill="black" stroke="black" points="482.82,-206.54 478,-204.34 480.39,-209.07 482.82,-206.54"/>
</g>
<!-- function&#45;0&#45;Seq2&#45;&gt;function&#45;0&#45;Blt -->
<g id="edge19" class="edge">
<title>function&#45;0&#45;Seq2:s&#45;&gt;function&#45;0&#45;Blt</title>
<path fill="none" stroke="black" d="M64,-332C64,-266.12 147.75,-321.79 207,-293 207.35,-292.83 207.69,-292.66 208.04,-292.48"/>
<polygon fill="black" stroke="black" points="209,-293.95 212.53,-290 207.31,-290.89 209,-293.95"/>
</g>
<!-- function&#45;0&#45;Seq2&#45;&gt;function&#45;0&#45;Jal -->
<g id="edge20" class="edge">
<title>function&#45;0&#45;Seq2:s&#45;&gt;function&#45;0&#45;Jal</title>
<path fill="none" stroke="black" d="M86,-332C86,-318.78 87.37,-304.04 88.8,-292.25"/>
<polygon fill="black" stroke="black" points="89.74,-295.29 89.46,-290 86.38,-294.31 89.74,-295.29"/>
</g>
<!-- function&#45;0&#45;Jal&#45;&gt;function&#45;2&#45;ImmLabel -->
<g id="edge34" class="edge">
<title>function&#45;0&#45;Jal:s&#45;&gt;function&#45;2&#45;ImmLabel</title>
<path fill="none" stroke="black" d="M92,-253C92,-237.82 83.52,-223.32 74.48,-212.17"/>
<polygon fill="black" stroke="black" points="78.05,-212.95 73.13,-211 75.76,-215.6 78.05,-212.95"/>
</g>
<!-- function&#45;2&#45;Bge&#45;&gt;function&#45;0&#45;ImmVal -->
<g id="edge26" class="edge">
<title>function&#45;2&#45;Bge:s&#45;&gt;function&#45;0&#45;ImmVal</title>
<path fill="none" stroke="black" d="M434,-253C434,-227.53 409.13,-232.85 392,-214 368.21,-187.82 343.93,-154.89 328.92,-133.65"/>
<polygon fill="black" stroke="black" points="331.86,-133.76 326.86,-132 329.67,-136.49 331.86,-133.76"/>
</g>
<!-- function&#45;2&#45;Bge&#45;&gt;function&#45;1&#45;RegVal -->
<g id="edge24" class="edge">
<title>function&#45;2&#45;Bge:s&#45;&gt;function&#45;1&#45;RegVal</title>
<path fill="none" stroke="black" d="M411,-253C411,-248.28 288.25,-215.73 226.97,-199.78"/>
<polygon fill="black" stroke="black" points="230.13,-199.78 225,-198.47 228.2,-202.69 230.13,-199.78"/>
</g>
<!-- function&#45;2&#45;Bge&#45;&gt;function&#45;0&#45;Lw -->
<g id="edge25" class="edge">
<title>function&#45;2&#45;Bge:s&#45;&gt;function&#45;0&#45;Lw</title>
<path fill="none" stroke="black" d="M425,-253C425,-239.04 430.19,-224.35 435.64,-212.77"/>
<polygon fill="black" stroke="black" points="435.36,-216.05 436.98,-211 432.57,-213.94 435.36,-216.05"/>
</g>
<!-- function&#45;2&#45;Seq2&#45;&gt;function&#45;1&#45;Seq2 -->
<g id="edge27" class="edge">
<title>function&#45;2&#45;Seq2:s&#45;&gt;function&#45;1&#45;Seq2</title>
<path fill="none" stroke="black" d="M351,-253C351,-241.59 339.78,-243.91 327.57,-249.8"/>
<polygon fill="black" stroke="black" points="328.71,-246.57 326,-251.12 330.96,-249.26 328.71,-246.57"/>
</g>
<!-- function&#45;2&#45;Seq2&#45;&gt;function&#45;1&#45;Jal -->
<g id="edge28" class="edge">
<title>function&#45;2&#45;Seq2:s&#45;&gt;function&#45;1&#45;Jal</title>
<path fill="none" stroke="black" d="M373,-253C373,-234.82 359.52,-219.86 345.45,-209.19"/>
<polygon fill="black" stroke="black" points="348.99,-209.79 344,-208.02 346.79,-212.52 348.99,-209.79"/>
</g>
<!-- function&#45;0&#45;Lui&#45;&gt;function&#45;0&#45;ImmLabel -->
<g id="edge30" class="edge">
<title>function&#45;0&#45;Lui:s&#45;&gt;function&#45;0&#45;ImmLabel</title>
<path fill="none" stroke="black" d="M578,-332C578,-318.84 578,-304.11 578,-292.3"/>
<polygon fill="black" stroke="black" points="579.75,-295 578,-290 576.25,-295 579.75,-295"/>
</g>
<!-- function&#45;0&#45;RegVal&#45;&gt;primitive&#45;String&#45;1 -->
<g id="edge35" class="edge">
<title>function&#45;0&#45;RegVal:s&#45;&gt;primitive&#45;String&#45;1</title>
<path fill="none" stroke="black" d="M531,-95C531,-81.8 532.14,-67.06 533.33,-55.27"/>
<polygon fill="black" stroke="black" points="534.41,-58.27 533.88,-53 531.01,-57.45 534.41,-58.27"/>
</g>
<!-- function&#45;0&#45;ImmVal -->
<g id="node1" class="node">
<title>function&#45;0&#45;ImmVal</title>
<g id="a_node1"><a xlink:title="Imm&#45;8: function&#45;0&#45;ImmVal">
<path fill="white" stroke="transparent" d="M293.67,-95C293.67,-95 334.33,-95 334.33,-95 339.67,-95 345,-100.33 345,-105.67 345,-105.67 345,-116.33 345,-116.33 345,-121.67 339.67,-127 334.33,-127 334.33,-127 293.67,-127 293.67,-127 288.33,-127 283,-121.67 283,-116.33 283,-116.33 283,-105.67 283,-105.67 283,-100.33 288.33,-95 293.67,-95"/>
<text text-anchor="start" x="288" y="-107.3" font-family="Helvetica,sans-Serif" font-size="14.00">ImmVal</text>
<path fill="none" stroke="black" d="M293.67,-95C293.67,-95 334.33,-95 334.33,-95 339.67,-95 345,-100.33 345,-105.67 345,-105.67 345,-116.33 345,-116.33 345,-121.67 339.67,-127 334.33,-127 334.33,-127 293.67,-127 293.67,-127 288.33,-127 283,-121.67 283,-116.33 283,-116.33 283,-105.67 283,-105.67 283,-100.33 288.33,-95 293.67,-95"/>
</a>
</g>
</g>
<!-- primitive&#45;i64&#45;4 -->
<g id="node2" class="node">
<title>primitive&#45;i64&#45;4</title>
<g id="a_node2"><a xlink:title="i64&#45;4: primitive&#45;i64&#45;4">
<path fill="white" stroke="transparent" d="M308.67,-16C308.67,-16 319.33,-16 319.33,-16 324.67,-16 330,-21.33 330,-26.67 330,-26.67 330,-37.33 330,-37.33 330,-42.67 324.67,-48 319.33,-48 319.33,-48 308.67,-48 308.67,-48 303.33,-48 298,-42.67 298,-37.33 298,-37.33 298,-26.67 298,-26.67 298,-21.33 303.33,-16 308.67,-16"/>
<text text-anchor="start" x="309" y="-28.3" font-family="Helvetica,sans-Serif" font-size="14.00">4</text>
<path fill="none" stroke="black" d="M308.67,-16C308.67,-16 319.33,-16 319.33,-16 324.67,-16 330,-21.33 330,-26.67 330,-26.67 330,-37.33 330,-37.33 330,-42.67 324.67,-48 319.33,-48 319.33,-48 308.67,-48 308.67,-48 303.33,-48 298,-42.67 298,-37.33 298,-37.33 298,-26.67 298,-26.67 298,-21.33 303.33,-16 308.67,-16"/>
</a>
</g>
</g>
<!-- function&#45;1&#45;ImmLabel -->
<g id="node3" class="node">
<title>function&#45;1&#45;ImmLabel</title>
<g id="a_node3"><a xlink:title="Imm&#45;4: function&#45;1&#45;ImmLabel">
<path fill="white" stroke="transparent" d="M410.17,-95C410.17,-95 467.83,-95 467.83,-95 473.17,-95 478.5,-100.33 478.5,-105.67 478.5,-105.67 478.5,-116.33 478.5,-116.33 478.5,-121.67 473.17,-127 467.83,-127 467.83,-127 410.17,-127 410.17,-127 404.83,-127 399.5,-121.67 399.5,-116.33 399.5,-116.33 399.5,-105.67 399.5,-105.67 399.5,-100.33 404.83,-95 410.17,-95"/>
<text text-anchor="start" x="405" y="-107.3" font-family="Helvetica,sans-Serif" font-size="14.00">ImmLabel</text>
<path fill="none" stroke="black" d="M410.17,-95C410.17,-95 467.83,-95 467.83,-95 473.17,-95 478.5,-100.33 478.5,-105.67 478.5,-105.67 478.5,-116.33 478.5,-116.33 478.5,-121.67 473.17,-127 467.83,-127 467.83,-127 410.17,-127 410.17,-127 404.83,-127 399.5,-121.67 399.5,-116.33 399.5,-116.33 399.5,-105.67 399.5,-105.67 399.5,-100.33 404.83,-95 410.17,-95"/>
</a>
</g>
</g>
<!-- primitive&#45;String&#45;4 -->
<g id="node4" class="node">
<title>primitive&#45;String&#45;4</title>
<g id="a_node4"><a xlink:title="String&#45;4: primitive&#45;String&#45;4">
<path fill="white" stroke="transparent" d="M381.67,-16C381.67,-16 486.33,-16 486.33,-16 491.67,-16 497,-21.33 497,-26.67 497,-26.67 497,-37.33 497,-37.33 497,-42.67 491.67,-48 486.33,-48 486.33,-48 381.67,-48 381.67,-48 376.33,-48 371,-42.67 371,-37.33 371,-37.33 371,-26.67 371,-26.67 371,-21.33 376.33,-16 381.67,-16"/>
<text text-anchor="start" x="376" y="-28.3" font-family="Helvetica,sans-Serif" font-size="14.00">&quot;%lo(g_qCount)&quot;</text>
<path fill="none" stroke="black" d="M381.67,-16C381.67,-16 486.33,-16 486.33,-16 491.67,-16 497,-21.33 497,-26.67 497,-26.67 497,-37.33 497,-37.33 497,-42.67 491.67,-48 486.33,-48 486.33,-48 381.67,-48 381.67,-48 376.33,-48 371,-42.67 371,-37.33 371,-37.33 371,-26.67 371,-26.67 371,-21.33 376.33,-16 381.67,-16"/>
</a>
</g>
</g>
<!-- function&#45;0&#45;ImmLabel -->
<g id="node5" class="node">
<title>function&#45;0&#45;ImmLabel</title>
<g id="a_node5"><a xlink:title="Imm&#45;2: function&#45;0&#45;ImmLabel">
<path fill="white" stroke="transparent" d="M549.17,-253C549.17,-253 606.83,-253 606.83,-253 612.17,-253 617.5,-258.33 617.5,-263.67 617.5,-263.67 617.5,-274.33 617.5,-274.33 617.5,-279.67 612.17,-285 606.83,-285 606.83,-285 549.17,-285 549.17,-285 543.83,-285 538.5,-279.67 538.5,-274.33 538.5,-274.33 538.5,-263.67 538.5,-263.67 538.5,-258.33 543.83,-253 549.17,-253"/>
<text text-anchor="start" x="544" y="-265.3" font-family="Helvetica,sans-Serif" font-size="14.00">ImmLabel</text>
<path fill="none" stroke="black" d="M549.17,-253C549.17,-253 606.83,-253 606.83,-253 612.17,-253 617.5,-258.33 617.5,-263.67 617.5,-263.67 617.5,-274.33 617.5,-274.33 617.5,-279.67 612.17,-285 606.83,-285 606.83,-285 549.17,-285 549.17,-285 543.83,-285 538.5,-279.67 538.5,-274.33 538.5,-274.33 538.5,-263.67 538.5,-263.67 538.5,-258.33 543.83,-253 549.17,-253"/>
</a>
</g>
</g>
<!-- primitive&#45;String&#45;3 -->
<g id="node6" class="node">
<title>primitive&#45;String&#45;3</title>
<g id="a_node6"><a xlink:title="String&#45;3: primitive&#45;String&#45;3">
<path fill="white" stroke="transparent" d="M526.17,-174C526.17,-174 631.83,-174 631.83,-174 637.17,-174 642.5,-179.33 642.5,-184.67 642.5,-184.67 642.5,-195.33 642.5,-195.33 642.5,-200.67 637.17,-206 631.83,-206 631.83,-206 526.17,-206 526.17,-206 520.83,-206 515.5,-200.67 515.5,-195.33 515.5,-195.33 515.5,-184.67 515.5,-184.67 515.5,-179.33 520.83,-174 526.17,-174"/>
<text text-anchor="start" x="521" y="-186.3" font-family="Helvetica,sans-Serif" font-size="14.00">&quot;%hi(g_qCount)&quot;</text>
<path fill="none" stroke="black" d="M526.17,-174C526.17,-174 631.83,-174 631.83,-174 637.17,-174 642.5,-179.33 642.5,-184.67 642.5,-184.67 642.5,-195.33 642.5,-195.33 642.5,-200.67 637.17,-206 631.83,-206 631.83,-206 526.17,-206 526.17,-206 520.83,-206 515.5,-200.67 515.5,-195.33 515.5,-195.33 515.5,-184.67 515.5,-184.67 515.5,-179.33 520.83,-174 526.17,-174"/>
</a>
</g>
</g>
<!-- function&#45;2&#45;ImmLabel -->
<g id="node7" class="node">
<title>function&#45;2&#45;ImmLabel</title>
<g id="a_node7"><a xlink:title="Imm&#45;6: function&#45;2&#45;ImmLabel">
<path fill="white" stroke="transparent" d="M24.17,-174C24.17,-174 81.83,-174 81.83,-174 87.17,-174 92.5,-179.33 92.5,-184.67 92.5,-184.67 92.5,-195.33 92.5,-195.33 92.5,-200.67 87.17,-206 81.83,-206 81.83,-206 24.17,-206 24.17,-206 18.83,-206 13.5,-200.67 13.5,-195.33 13.5,-195.33 13.5,-184.67 13.5,-184.67 13.5,-179.33 18.83,-174 24.17,-174"/>
<text text-anchor="start" x="19" y="-186.3" font-family="Helvetica,sans-Serif" font-size="14.00">ImmLabel</text>
<path fill="none" stroke="black" d="M24.17,-174C24.17,-174 81.83,-174 81.83,-174 87.17,-174 92.5,-179.33 92.5,-184.67 92.5,-184.67 92.5,-195.33 92.5,-195.33 92.5,-200.67 87.17,-206 81.83,-206 81.83,-206 24.17,-206 24.17,-206 18.83,-206 13.5,-200.67 13.5,-195.33 13.5,-195.33 13.5,-184.67 13.5,-184.67 13.5,-179.33 18.83,-174 24.17,-174"/>
</a>
</g>
</g>
<!-- primitive&#45;String&#45;5 -->
<g id="node8" class="node">
<title>primitive&#45;String&#45;5</title>
<g id="a_node8"><a xlink:title="String&#45;5: primitive&#45;String&#45;5">
<path fill="white" stroke="transparent" d="M37.67,-95C37.67,-95 70.33,-95 70.33,-95 75.67,-95 81,-100.33 81,-105.67 81,-105.67 81,-116.33 81,-116.33 81,-121.67 75.67,-127 70.33,-127 70.33,-127 37.67,-127 37.67,-127 32.33,-127 27,-121.67 27,-116.33 27,-116.33 27,-105.67 27,-105.67 27,-100.33 32.33,-95 37.67,-95"/>
<text text-anchor="start" x="32" y="-107.3" font-family="Helvetica,sans-Serif" font-size="14.00">&quot;.L17&quot;</text>
<path fill="none" stroke="black" d="M37.67,-95C37.67,-95 70.33,-95 70.33,-95 75.67,-95 81,-100.33 81,-105.67 81,-105.67 81,-116.33 81,-116.33 81,-121.67 75.67,-127 70.33,-127 70.33,-127 37.67,-127 37.67,-127 32.33,-127 27,-121.67 27,-116.33 27,-116.33 27,-105.67 27,-105.67 27,-100.33 32.33,-95 37.67,-95"/>
</a>
</g>
</g>
<!-- function&#45;0&#45;Blt -->
<g id="node9" class="node">
<title>function&#45;0&#45;Blt</title>
<g id="a_node9"><a xlink:title="Inst&#45;9: function&#45;0&#45;Blt">
<path fill="white" stroke="transparent" d="M232.67,-253C232.67,-253 243.33,-253 243.33,-253 248.67,-253 254,-258.33 254,-263.67 254,-263.67 254,-274.33 254,-274.33 254,-279.67 248.67,-285 243.33,-285 243.33,-285 232.67,-285 232.67,-285 227.33,-285 222,-279.67 222,-274.33 222,-274.33 222,-263.67 222,-263.67 222,-258.33 227.33,-253 232.67,-253"/>
<text text-anchor="start" x="228.5" y="-265.3" font-family="Helvetica,sans-Serif" font-size="14.00">Blt</text>
<path fill="none" stroke="black" d="M232.67,-253C232.67,-253 243.33,-253 243.33,-253 248.67,-253 254,-258.33 254,-263.67 254,-263.67 254,-274.33 254,-274.33 254,-279.67 248.67,-285 243.33,-285 243.33,-285 232.67,-285 232.67,-285 227.33,-285 222,-279.67 222,-274.33 222,-274.33 222,-263.67 222,-263.67 222,-258.33 227.33,-253 232.67,-253"/>
</a>
</g>
</g>
<!-- function&#45;1&#45;RegVal -->
<g id="node10" class="node">
<title>function&#45;1&#45;RegVal</title>
<g id="a_node10"><a xlink:title="Inst&#45;1: function&#45;1&#45;RegVal">
<path fill="white" stroke="transparent" d="M175.17,-174C175.17,-174 210.83,-174 210.83,-174 216.17,-174 221.5,-179.33 221.5,-184.67 221.5,-184.67 221.5,-195.33 221.5,-195.33 221.5,-200.67 216.17,-206 210.83,-206 210.83,-206 175.17,-206 175.17,-206 169.83,-206 164.5,-200.67 164.5,-195.33 164.5,-195.33 164.5,-184.67 164.5,-184.67 164.5,-179.33 169.83,-174 175.17,-174"/>
<text text-anchor="start" x="170" y="-186.3" font-family="Helvetica,sans-Serif" font-size="14.00">RegVal</text>
<path fill="none" stroke="black" d="M175.17,-174C175.17,-174 210.83,-174 210.83,-174 216.17,-174 221.5,-179.33 221.5,-184.67 221.5,-184.67 221.5,-195.33 221.5,-195.33 221.5,-200.67 216.17,-206 210.83,-206 210.83,-206 175.17,-206 175.17,-206 169.83,-206 164.5,-200.67 164.5,-195.33 164.5,-195.33 164.5,-184.67 164.5,-184.67 164.5,-179.33 169.83,-174 175.17,-174"/>
</a>
</g>
</g>
<!-- function&#45;0&#45;Lw -->
<g id="node11" class="node">
<title>function&#45;0&#45;Lw</title>
<g id="a_node11"><a xlink:title="Inst&#45;5: function&#45;0&#45;Lw">
<path fill="white" stroke="transparent" d="M442.67,-174C442.67,-174 453.33,-174 453.33,-174 458.67,-174 464,-179.33 464,-184.67 464,-184.67 464,-195.33 464,-195.33 464,-200.67 458.67,-206 453.33,-206 453.33,-206 442.67,-206 442.67,-206 437.33,-206 432,-200.67 432,-195.33 432,-195.33 432,-184.67 432,-184.67 432,-179.33 437.33,-174 442.67,-174"/>
<text text-anchor="start" x="438.5" y="-186.3" font-family="Helvetica,sans-Serif" font-size="14.00">Lw</text>
<path fill="none" stroke="black" d="M442.67,-174C442.67,-174 453.33,-174 453.33,-174 458.67,-174 464,-179.33 464,-184.67 464,-184.67 464,-195.33 464,-195.33 464,-200.67 458.67,-206 453.33,-206 453.33,-206 442.67,-206 442.67,-206 437.33,-206 432,-200.67 432,-195.33 432,-195.33 432,-184.67 432,-184.67 432,-179.33 437.33,-174 442.67,-174"/>
</a>
</g>
</g>
<!-- function&#45;1&#45;Bge -->
<g id="node12" class="node">
<title>function&#45;1&#45;Bge</title>
<g id="a_node12"><a xlink:title="Inst&#45;9: function&#45;1&#45;Bge">
<path fill="white" stroke="transparent" d="M171.67,-253C171.67,-253 188.33,-253 188.33,-253 193.67,-253 199,-258.33 199,-263.67 199,-263.67 199,-274.33 199,-274.33 199,-279.67 193.67,-285 188.33,-285 188.33,-285 171.67,-285 171.67,-285 166.33,-285 161,-279.67 161,-274.33 161,-274.33 161,-263.67 161,-263.67 161,-258.33 166.33,-253 171.67,-253"/>
<text text-anchor="start" x="166" y="-265.3" font-family="Helvetica,sans-Serif" font-size="14.00">Bge</text>
<path fill="none" stroke="black" d="M171.67,-253C171.67,-253 188.33,-253 188.33,-253 193.67,-253 199,-258.33 199,-263.67 199,-263.67 199,-274.33 199,-274.33 199,-279.67 193.67,-285 188.33,-285 188.33,-285 171.67,-285 171.67,-285 166.33,-285 161,-279.67 161,-274.33 161,-274.33 161,-263.67 161,-263.67 161,-258.33 166.33,-253 171.67,-253"/>
</a>
</g>
</g>
<!-- function&#45;1&#45;Seq2 -->
<g id="node13" class="node">
<title>function&#45;1&#45;Seq2</title>
<g id="a_node13"><a xlink:title="Inst&#45;9: function&#45;1&#45;Seq2">
<path fill="white" stroke="transparent" d="M283.67,-253C283.67,-253 308.33,-253 308.33,-253 313.67,-253 319,-258.33 319,-263.67 319,-263.67 319,-274.33 319,-274.33 319,-279.67 313.67,-285 308.33,-285 308.33,-285 283.67,-285 283.67,-285 278.33,-285 273,-279.67 273,-274.33 273,-274.33 273,-263.67 273,-263.67 273,-258.33 278.33,-253 283.67,-253"/>
<text text-anchor="start" x="278" y="-265.3" font-family="Helvetica,sans-Serif" font-size="14.00">Seq2</text>
<path fill="none" stroke="black" d="M283.67,-253C283.67,-253 308.33,-253 308.33,-253 313.67,-253 319,-258.33 319,-263.67 319,-263.67 319,-274.33 319,-274.33 319,-279.67 313.67,-285 308.33,-285 308.33,-285 283.67,-285 283.67,-285 278.33,-285 273,-279.67 273,-274.33 273,-274.33 273,-263.67 273,-263.67 273,-258.33 278.33,-253 283.67,-253"/>
</a>
</g>
</g>
<!-- function&#45;2&#45;Blt -->
<g id="node14" class="node">
<title>function&#45;2&#45;Blt</title>
<g id="a_node14"><a xlink:title="Inst&#45;11: function&#45;2&#45;Blt">
<path fill="white" stroke="transparent" d="M472.67,-253C472.67,-253 483.33,-253 483.33,-253 488.67,-253 494,-258.33 494,-263.67 494,-263.67 494,-274.33 494,-274.33 494,-279.67 488.67,-285 483.33,-285 483.33,-285 472.67,-285 472.67,-285 467.33,-285 462,-279.67 462,-274.33 462,-274.33 462,-263.67 462,-263.67 462,-258.33 467.33,-253 472.67,-253"/>
<text text-anchor="start" x="468.5" y="-265.3" font-family="Helvetica,sans-Serif" font-size="14.00">Blt</text>
<path fill="none" stroke="black" d="M472.67,-253C472.67,-253 483.33,-253 483.33,-253 488.67,-253 494,-258.33 494,-263.67 494,-263.67 494,-274.33 494,-274.33 494,-279.67 488.67,-285 483.33,-285 483.33,-285 472.67,-285 472.67,-285 467.33,-285 462,-279.67 462,-274.33 462,-274.33 462,-263.67 462,-263.67 462,-258.33 467.33,-253 472.67,-253"/>
</a>
</g>
</g>
<!-- function&#45;1&#45;Jal -->
<g id="node15" class="node">
<title>function&#45;1&#45;Jal</title>
<g id="a_node15"><a xlink:title="Inst&#45;12: function&#45;1&#45;Jal">
<path fill="white" stroke="transparent" d="M308.67,-174C308.67,-174 319.33,-174 319.33,-174 324.67,-174 330,-179.33 330,-184.67 330,-184.67 330,-195.33 330,-195.33 330,-200.67 324.67,-206 319.33,-206 319.33,-206 308.67,-206 308.67,-206 303.33,-206 298,-200.67 298,-195.33 298,-195.33 298,-184.67 298,-184.67 298,-179.33 303.33,-174 308.67,-174"/>
<text text-anchor="start" x="305.5" y="-186.3" font-family="Helvetica,sans-Serif" font-size="14.00">Jal</text>
<path fill="none" stroke="black" d="M308.67,-174C308.67,-174 319.33,-174 319.33,-174 324.67,-174 330,-179.33 330,-184.67 330,-184.67 330,-195.33 330,-195.33 330,-200.67 324.67,-206 319.33,-206 319.33,-206 308.67,-206 308.67,-206 303.33,-206 298,-200.67 298,-195.33 298,-195.33 298,-184.67 298,-184.67 298,-179.33 303.33,-174 308.67,-174"/>
</a>
</g>
</g>
<!-- function&#45;1&#45;Blt -->
<g id="node16" class="node">
<title>function&#45;1&#45;Blt</title>
<g id="a_node16"><a xlink:title="Inst&#45;7: function&#45;1&#45;Blt">
<path fill="white" stroke="transparent" d="M127.67,-332C127.67,-332 138.33,-332 138.33,-332 143.67,-332 149,-337.33 149,-342.67 149,-342.67 149,-353.33 149,-353.33 149,-358.67 143.67,-364 138.33,-364 138.33,-364 127.67,-364 127.67,-364 122.33,-364 117,-358.67 117,-353.33 117,-353.33 117,-342.67 117,-342.67 117,-337.33 122.33,-332 127.67,-332"/>
<text text-anchor="start" x="123.5" y="-344.3" font-family="Helvetica,sans-Serif" font-size="14.00">Blt</text>
<path fill="none" stroke="black" d="M127.67,-332C127.67,-332 138.33,-332 138.33,-332 143.67,-332 149,-337.33 149,-342.67 149,-342.67 149,-353.33 149,-353.33 149,-358.67 143.67,-364 138.33,-364 138.33,-364 127.67,-364 127.67,-364 122.33,-364 117,-358.67 117,-353.33 117,-353.33 117,-342.67 117,-342.67 117,-337.33 122.33,-332 127.67,-332"/>
</a>
</g>
</g>
<!-- function&#45;0&#45;Bge -->
<g id="node17" class="node">
<title>function&#45;0&#45;Bge</title>
<g id="a_node17"><a xlink:title="Inst&#45;7: function&#45;0&#45;Bge">
<path fill="white" stroke="transparent" d="M182.67,-332C182.67,-332 199.33,-332 199.33,-332 204.67,-332 210,-337.33 210,-342.67 210,-342.67 210,-353.33 210,-353.33 210,-358.67 204.67,-364 199.33,-364 199.33,-364 182.67,-364 182.67,-364 177.33,-364 172,-358.67 172,-353.33 172,-353.33 172,-342.67 172,-342.67 172,-337.33 177.33,-332 182.67,-332"/>
<text text-anchor="start" x="177" y="-344.3" font-family="Helvetica,sans-Serif" font-size="14.00">Bge</text>
<path fill="none" stroke="black" d="M182.67,-332C182.67,-332 199.33,-332 199.33,-332 204.67,-332 210,-337.33 210,-342.67 210,-342.67 210,-353.33 210,-353.33 210,-358.67 204.67,-364 199.33,-364 199.33,-364 182.67,-364 182.67,-364 177.33,-364 172,-358.67 172,-353.33 172,-353.33 172,-342.67 172,-342.67 172,-337.33 177.33,-332 182.67,-332"/>
</a>
</g>
</g>
<!-- function&#45;0&#45;Seq2 -->
<g id="node18" class="node">
<title>function&#45;0&#45;Seq2</title>
<g id="a_node18"><a xlink:title="Inst&#45;7: function&#45;0&#45;Seq2">
<path fill="white" stroke="transparent" d="M62.67,-332C62.67,-332 87.33,-332 87.33,-332 92.67,-332 98,-337.33 98,-342.67 98,-342.67 98,-353.33 98,-353.33 98,-358.67 92.67,-364 87.33,-364 87.33,-364 62.67,-364 62.67,-364 57.33,-364 52,-358.67 52,-353.33 52,-353.33 52,-342.67 52,-342.67 52,-337.33 57.33,-332 62.67,-332"/>
<text text-anchor="start" x="57" y="-344.3" font-family="Helvetica,sans-Serif" font-size="14.00">Seq2</text>
<path fill="none" stroke="black" d="M62.67,-332C62.67,-332 87.33,-332 87.33,-332 92.67,-332 98,-337.33 98,-342.67 98,-342.67 98,-353.33 98,-353.33 98,-358.67 92.67,-364 87.33,-364 87.33,-364 62.67,-364 62.67,-364 57.33,-364 52,-358.67 52,-353.33 52,-353.33 52,-342.67 52,-342.67 52,-337.33 57.33,-332 62.67,-332"/>
</a>
</g>
</g>
<!-- function&#45;0&#45;Jal -->
<g id="node19" class="node">
<title>function&#45;0&#45;Jal</title>
<g id="a_node19"><a xlink:title="Inst&#45;10: function&#45;0&#45;Jal">
<path fill="white" stroke="transparent" d="M86.67,-253C86.67,-253 97.33,-253 97.33,-253 102.67,-253 108,-258.33 108,-263.67 108,-263.67 108,-274.33 108,-274.33 108,-279.67 102.67,-285 97.33,-285 97.33,-285 86.67,-285 86.67,-285 81.33,-285 76,-279.67 76,-274.33 76,-274.33 76,-263.67 76,-263.67 76,-258.33 81.33,-253 86.67,-253"/>
<text text-anchor="start" x="83.5" y="-265.3" font-family="Helvetica,sans-Serif" font-size="14.00">Jal</text>
<path fill="none" stroke="black" d="M86.67,-253C86.67,-253 97.33,-253 97.33,-253 102.67,-253 108,-258.33 108,-263.67 108,-263.67 108,-274.33 108,-274.33 108,-279.67 102.67,-285 97.33,-285 97.33,-285 86.67,-285 86.67,-285 81.33,-285 76,-279.67 76,-274.33 76,-274.33 76,-263.67 76,-263.67 76,-258.33 81.33,-253 86.67,-253"/>
</a>
</g>
</g>
<!-- function&#45;2&#45;Bge -->
<g id="node20" class="node">
<title>function&#45;2&#45;Bge</title>
<g id="a_node20"><a xlink:title="Inst&#45;11: function&#45;2&#45;Bge">
<path fill="white" stroke="transparent" d="M411.67,-253C411.67,-253 428.33,-253 428.33,-253 433.67,-253 439,-258.33 439,-263.67 439,-263.67 439,-274.33 439,-274.33 439,-279.67 433.67,-285 428.33,-285 428.33,-285 411.67,-285 411.67,-285 406.33,-285 401,-279.67 401,-274.33 401,-274.33 401,-263.67 401,-263.67 401,-258.33 406.33,-253 411.67,-253"/>
<text text-anchor="start" x="406" y="-265.3" font-family="Helvetica,sans-Serif" font-size="14.00">Bge</text>
<path fill="none" stroke="black" d="M411.67,-253C411.67,-253 428.33,-253 428.33,-253 433.67,-253 439,-258.33 439,-263.67 439,-263.67 439,-274.33 439,-274.33 439,-279.67 433.67,-285 428.33,-285 428.33,-285 411.67,-285 411.67,-285 406.33,-285 401,-279.67 401,-274.33 401,-274.33 401,-263.67 401,-263.67 401,-258.33 406.33,-253 411.67,-253"/>
</a>
</g>
</g>
<!-- function&#45;2&#45;Seq2 -->
<g id="node21" class="node">
<title>function&#45;2&#45;Seq2</title>
<g id="a_node21"><a xlink:title="Inst&#45;11: function&#45;2&#45;Seq2">
<path fill="white" stroke="transparent" d="M349.67,-253C349.67,-253 374.33,-253 374.33,-253 379.67,-253 385,-258.33 385,-263.67 385,-263.67 385,-274.33 385,-274.33 385,-279.67 379.67,-285 374.33,-285 374.33,-285 349.67,-285 349.67,-285 344.33,-285 339,-279.67 339,-274.33 339,-274.33 339,-263.67 339,-263.67 339,-258.33 344.33,-253 349.67,-253"/>
<text text-anchor="start" x="344" y="-265.3" font-family="Helvetica,sans-Serif" font-size="14.00">Seq2</text>
<path fill="none" stroke="black" d="M349.67,-253C349.67,-253 374.33,-253 374.33,-253 379.67,-253 385,-258.33 385,-263.67 385,-263.67 385,-274.33 385,-274.33 385,-279.67 379.67,-285 374.33,-285 374.33,-285 349.67,-285 349.67,-285 344.33,-285 339,-279.67 339,-274.33 339,-274.33 339,-263.67 339,-263.67 339,-258.33 344.33,-253 349.67,-253"/>
</a>
</g>
</g>
<!-- primitive&#45;String&#45;2 -->
<g id="node22" class="node">
<title>primitive&#45;String&#45;2</title>
<g id="a_node22"><a xlink:title="String&#45;2: primitive&#45;String&#45;2">
<path fill="white" stroke="transparent" d="M170.17,-95C170.17,-95 217.83,-95 217.83,-95 223.17,-95 228.5,-100.33 228.5,-105.67 228.5,-105.67 228.5,-116.33 228.5,-116.33 228.5,-121.67 223.17,-127 217.83,-127 217.83,-127 170.17,-127 170.17,-127 164.83,-127 159.5,-121.67 159.5,-116.33 159.5,-116.33 159.5,-105.67 159.5,-105.67 159.5,-100.33 164.83,-95 170.17,-95"/>
<text text-anchor="start" x="165" y="-107.3" font-family="Helvetica,sans-Serif" font-size="14.00">&quot;zero_0&quot;</text>
<path fill="none" stroke="black" d="M170.17,-95C170.17,-95 217.83,-95 217.83,-95 223.17,-95 228.5,-100.33 228.5,-105.67 228.5,-105.67 228.5,-116.33 228.5,-116.33 228.5,-121.67 223.17,-127 217.83,-127 217.83,-127 170.17,-127 170.17,-127 164.83,-127 159.5,-121.67 159.5,-116.33 159.5,-116.33 159.5,-105.67 159.5,-105.67 159.5,-100.33 164.83,-95 170.17,-95"/>
</a>
</g>
</g>
<!-- function&#45;0&#45;Lui -->
<g id="node23" class="node">
<title>function&#45;0&#45;Lui</title>
<g id="a_node23"><a xlink:title="Inst&#45;3: function&#45;0&#45;Lui">
<path fill="white" stroke="transparent" d="M572.67,-332C572.67,-332 583.33,-332 583.33,-332 588.67,-332 594,-337.33 594,-342.67 594,-342.67 594,-353.33 594,-353.33 594,-358.67 588.67,-364 583.33,-364 583.33,-364 572.67,-364 572.67,-364 567.33,-364 562,-358.67 562,-353.33 562,-353.33 562,-342.67 562,-342.67 562,-337.33 567.33,-332 572.67,-332"/>
<text text-anchor="start" x="567.5" y="-344.3" font-family="Helvetica,sans-Serif" font-size="14.00">Lui</text>
<path fill="none" stroke="black" d="M572.67,-332C572.67,-332 583.33,-332 583.33,-332 588.67,-332 594,-337.33 594,-342.67 594,-342.67 594,-353.33 594,-353.33 594,-358.67 588.67,-364 583.33,-364 583.33,-364 572.67,-364 572.67,-364 567.33,-364 562,-358.67 562,-353.33 562,-353.33 562,-342.67 562,-342.67 562,-337.33 567.33,-332 572.67,-332"/>
</a>
</g>
</g>
<!-- function&#45;0&#45;RegVal -->
<g id="node24" class="node">
<title>function&#45;0&#45;RegVal</title>
<g id="a_node24"><a xlink:title="Inst&#45;0: function&#45;0&#45;RegVal">
<path fill="white" stroke="transparent" d="M512.17,-95C512.17,-95 547.83,-95 547.83,-95 553.17,-95 558.5,-100.33 558.5,-105.67 558.5,-105.67 558.5,-116.33 558.5,-116.33 558.5,-121.67 553.17,-127 547.83,-127 547.83,-127 512.17,-127 512.17,-127 506.83,-127 501.5,-121.67 501.5,-116.33 501.5,-116.33 501.5,-105.67 501.5,-105.67 501.5,-100.33 506.83,-95 512.17,-95"/>
<text text-anchor="start" x="507" y="-107.3" font-family="Helvetica,sans-Serif" font-size="14.00">RegVal</text>
<path fill="none" stroke="black" d="M512.17,-95C512.17,-95 547.83,-95 547.83,-95 553.17,-95 558.5,-100.33 558.5,-105.67 558.5,-105.67 558.5,-116.33 558.5,-116.33 558.5,-121.67 553.17,-127 547.83,-127 547.83,-127 512.17,-127 512.17,-127 506.83,-127 501.5,-121.67 501.5,-116.33 501.5,-116.33 501.5,-105.67 501.5,-105.67 501.5,-100.33 506.83,-95 512.17,-95"/>
</a>
</g>
</g>
<!-- primitive&#45;String&#45;1 -->
<g id="node25" class="node">
<title>primitive&#45;String&#45;1</title>
<g id="a_node25"><a xlink:title="String&#45;1: primitive&#45;String&#45;1">
<path fill="white" stroke="transparent" d="M526.17,-16C526.17,-16 545.83,-16 545.83,-16 551.17,-16 556.5,-21.33 556.5,-26.67 556.5,-26.67 556.5,-37.33 556.5,-37.33 556.5,-42.67 551.17,-48 545.83,-48 545.83,-48 526.17,-48 526.17,-48 520.83,-48 515.5,-42.67 515.5,-37.33 515.5,-37.33 515.5,-26.67 515.5,-26.67 515.5,-21.33 520.83,-16 526.17,-16"/>
<text text-anchor="start" x="521" y="-28.3" font-family="Helvetica,sans-Serif" font-size="14.00">&quot;a7&quot;</text>
<path fill="none" stroke="black" d="M526.17,-16C526.17,-16 545.83,-16 545.83,-16 551.17,-16 556.5,-21.33 556.5,-26.67 556.5,-26.67 556.5,-37.33 556.5,-37.33 556.5,-42.67 551.17,-48 545.83,-48 545.83,-48 526.17,-48 526.17,-48 520.83,-48 515.5,-42.67 515.5,-37.33 515.5,-37.33 515.5,-26.67 515.5,-26.67 515.5,-21.33 520.83,-16 526.17,-16"/>
</a>
</g>
</g>
</g>
</svg>
