<?xml version="1.0" encoding="UTF-8" standalone="no"?>
<!DOCTYPE svg PUBLIC "-//W3C//DTD SVG 1.1//EN"
 "http://www.w3.org/Graphics/SVG/1.1/DTD/svg11.dtd">
<!-- Generated by graphviz version 2.43.0 (0)
 -->
<!-- Title: %3 Pages: 1 -->
<svg width="509pt" height="230pt"
 viewBox="0.00 0.00 509.00 230.00" xmlns="http://www.w3.org/2000/svg" xmlns:xlink="http://www.w3.org/1999/xlink">
<g id="graph0" class="graph" transform="scale(1 1) rotate(0) translate(4 226)">
<title>%3</title>
<polygon fill="white" stroke="#000000" points="-4,4 -4,-226 505,-226 505,4 -4,4"/>
<g id="clust1" class="cluster">
<title>outer_cluster_Imm&#45;4</title>
</g>
<g id="clust2" class="cluster">
<title>cluster_Imm&#45;4</title>
<path fill="#ffffb3" stroke="black" stroke-dasharray="5,2" d="M51,-90C51,-90 111,-90 111,-90 117,-90 123,-96 123,-102 123,-102 123,-120 123,-120 123,-126 117,-132 111,-132 111,-132 51,-132 51,-132 45,-132 39,-126 39,-120 39,-120 39,-102 39,-102 39,-96 45,-90 51,-90"/>
</g>
<g id="clust4" class="cluster">
<title>outer_cluster_Imm&#45;6</title>
</g>
<g id="clust5" class="cluster">
<title>cluster_Imm&#45;6</title>
<path fill="#ffffb3" stroke="black" stroke-dasharray="5,2" d="M225,-90C225,-90 269,-90 269,-90 275,-90 281,-96 281,-102 281,-102 281,-120 281,-120 281,-126 275,-132 269,-132 269,-132 225,-132 225,-132 219,-132 213,-126 213,-120 213,-120 213,-102 213,-102 213,-96 219,-90 225,-90"/>
</g>
<g id="clust7" class="cluster">
<title>outer_cluster_Imm&#45;2</title>
</g>
<g id="clust8" class="cluster">
<title>cluster_Imm&#45;2</title>
<path fill="#ffffb3" stroke="black" stroke-dasharray="5,2" d="M392,-90C392,-90 452,-90 452,-90 458,-90 464,-96 464,-102 464,-102 464,-120 464,-120 464,-126 458,-132 452,-132 452,-132 392,-132 392,-132 386,-132 380,-126 380,-120 380,-120 380,-102 380,-102 380,-96 386,-90 392,-90"/>
</g>
<g id="clust10" class="cluster">
<title>outer_cluster_Inst&#45;1</title>
</g>
<g id="clust11" class="cluster">
<title>cluster_Inst&#45;1</title>
<path fill="#bebada" stroke="black" stroke-dasharray="5,2" d="M299,-90C299,-90 339,-90 339,-90 345,-90 351,-96 351,-102 351,-102 351,-120 351,-120 351,-126 345,-132 339,-132 339,-132 299,-132 299,-132 293,-132 287,-126 287,-120 287,-120 287,-102 287,-102 287,-96 293,-90 299,-90"/>
</g>
<g id="clust13" class="cluster">
<title>outer_cluster_Inst&#45;3</title>
</g>
<g id="clust14" class="cluster">
<title>cluster_Inst&#45;3</title>
<path fill="#bebada" stroke="black" stroke-dasharray="5,2" d="M404,-169C404,-169 440,-169 440,-169 446,-169 452,-175 452,-181 452,-181 452,-199 452,-199 452,-205 446,-211 440,-211 440,-211 404,-211 404,-211 398,-211 392,-205 392,-199 392,-199 392,-181 392,-181 392,-175 398,-169 404,-169"/>
</g>
<g id="clust16" class="cluster">
<title>outer_cluster_Inst&#45;5</title>
</g>
<g id="clust17" class="cluster">
<title>cluster_Inst&#45;5</title>
<path fill="#bebada" stroke="black" stroke-dasharray="5,2" d="M108,-169C108,-169 144,-169 144,-169 150,-169 156,-175 156,-181 156,-181 156,-199 156,-199 156,-205 150,-211 144,-211 144,-211 108,-211 108,-211 102,-211 96,-205 96,-199 96,-199 96,-181 96,-181 96,-175 102,-169 108,-169"/>
</g>
<g id="clust19" class="cluster">
<title>outer_cluster_Inst&#45;0</title>
</g>
<g id="clust20" class="cluster">
<title>cluster_Inst&#45;0</title>
<path fill="#bebada" stroke="black" stroke-dasharray="5,2" d="M146,-90C146,-90 186,-90 186,-90 192,-90 198,-96 198,-102 198,-102 198,-120 198,-120 198,-126 192,-132 186,-132 186,-132 146,-132 146,-132 140,-132 134,-126 134,-120 134,-120 134,-102 134,-102 134,-96 140,-90 146,-90"/>
</g>
<g id="clust22" class="cluster">
<title>outer_cluster_Inst&#45;7</title>
</g>
<g id="clust23" class="cluster">
<title>cluster_Inst&#45;7</title>
<path fill="#bebada" stroke="black" stroke-dasharray="5,2" d="M265,-169C265,-169 301,-169 301,-169 307,-169 313,-175 313,-181 313,-181 313,-199 313,-199 313,-205 307,-211 301,-211 301,-211 265,-211 265,-211 259,-211 253,-205 253,-199 253,-199 253,-181 253,-181 253,-175 259,-169 265,-169"/>
</g>
<g id="clust25" class="cluster">
<title>outer_cluster_String&#45;4</title>
</g>
<g id="clust26" class="cluster">
<title>cluster_String&#45;4</title>
<path fill="#fb8072" stroke="black" stroke-dasharray="5,2" d="M23,-11C23,-11 131,-11 131,-11 137,-11 143,-17 143,-23 143,-23 143,-41 143,-41 143,-47 137,-53 131,-53 131,-53 23,-53 23,-53 17,-53 11,-47 11,-41 11,-41 11,-23 11,-23 11,-17 17,-11 23,-11"/>
</g>
<g id="clust28" class="cluster">
<title>outer_cluster_String&#45;1</title>
</g>
<g id="clust29" class="cluster">
<title>cluster_String&#45;1</title>
<path fill="#fb8072" stroke="black" stroke-dasharray="5,2" d="M161,-11C161,-11 197,-11 197,-11 203,-11 209,-17 209,-23 209,-23 209,-41 209,-41 209,-47 203,-53 197,-53 197,-53 161,-53 161,-53 155,-53 149,-47 149,-41 149,-41 149,-23 149,-23 149,-17 155,-11 161,-11"/>
</g>
<g id="clust31" class="cluster">
<title>outer_cluster_String&#45;3</title>
</g>
<g id="clust32" class="cluster">
<title>cluster_String&#45;3</title>
<path fill="#fb8072" stroke="black" stroke-dasharray="5,2" d="M368,-11C368,-11 478,-11 478,-11 484,-11 490,-17 490,-23 490,-23 490,-41 490,-41 490,-47 484,-53 478,-53 478,-53 368,-53 368,-53 362,-53 356,-47 356,-41 356,-41 356,-23 356,-23 356,-17 362,-11 368,-11"/>
</g>
<g id="clust34" class="cluster">
<title>outer_cluster_String&#45;2</title>
</g>
<g id="clust35" class="cluster">
<title>cluster_String&#45;2</title>
<path fill="#fb8072" stroke="black" stroke-dasharray="5,2" d="M302,-11C302,-11 338,-11 338,-11 344,-11 350,-17 350,-23 350,-23 350,-41 350,-41 350,-47 344,-53 338,-53 338,-53 302,-53 302,-53 296,-53 290,-47 290,-41 290,-41 290,-23 290,-23 290,-17 296,-11 302,-11"/>
</g>
<g id="clust37" class="cluster">
<title>outer_cluster_i64&#45;0</title>
</g>
<g id="clust38" class="cluster">
<title>cluster_i64&#45;0</title>
<path fill="#80b1d3" stroke="black" stroke-dasharray="5,2" d="M229,-11C229,-11 265,-11 265,-11 271,-11 277,-17 277,-23 277,-23 277,-41 277,-41 277,-47 271,-53 265,-53 265,-53 229,-53 229,-53 223,-53 217,-47 217,-41 217,-41 217,-23 217,-23 217,-17 223,-11 229,-11"/>
</g>
<!-- function&#45;1&#45;ImmLabel&#45;&gt;primitive&#45;String&#45;4 -->
<g id="edge1" class="edge">
<title>function&#45;1&#45;ImmLabel:s&#45;&gt;primitive&#45;String&#45;4</title>
<path fill="none" stroke="black" d="M82,-95C82,-81.8 80.86,-67.06 79.67,-55.27"/>
<polygon fill="black" stroke="black" points="81.99,-57.45 79.12,-53 78.59,-58.27 81.99,-57.45"/>
</g>
<!-- function&#45;0&#45;ImmVal&#45;&gt;primitive&#45;i64&#45;0 -->
<g id="edge2" class="edge">
<title>function&#45;0&#45;ImmVal:s&#45;&gt;primitive&#45;i64&#45;0</title>
<path fill="none" stroke="black" d="M247,-95C247,-81.84 247,-67.11 247,-55.3"/>
<polygon fill="black" stroke="black" points="248.75,-58 247,-53 245.25,-58 248.75,-58"/>
</g>
<!-- function&#45;0&#45;ImmLabel&#45;&gt;primitive&#45;String&#45;3 -->
<g id="edge3" class="edge">
<title>function&#45;0&#45;ImmLabel:s&#45;&gt;primitive&#45;String&#45;3</title>
<path fill="none" stroke="black" d="M423,-95C423,-81.84 423,-67.11 423,-55.3"/>
<polygon fill="black" stroke="black" points="424.75,-58 423,-53 421.25,-58 424.75,-58"/>
</g>
<!-- function&#45;1&#45;RegVal&#45;&gt;primitive&#45;String&#45;2 -->
<g id="edge4" class="edge">
<title>function&#45;1&#45;RegVal:s&#45;&gt;primitive&#45;String&#45;2</title>
<path fill="none" stroke="black" d="M320,-95C320,-81.84 320,-67.11 320,-55.3"/>
<polygon fill="black" stroke="black" points="321.75,-58 320,-53 318.25,-58 321.75,-58"/>
</g>
<!-- function&#45;0&#45;Lui&#45;&gt;function&#45;0&#45;ImmLabel -->
<g id="edge5" class="edge">
<title>function&#45;0&#45;Lui:s&#45;&gt;function&#45;0&#45;ImmLabel</title>
<path fill="none" stroke="black" d="M422,-174C422,-160.84 422,-146.11 422,-134.3"/>
<polygon fill="black" stroke="black" points="423.75,-137 422,-132 420.25,-137 423.75,-137"/>
</g>
<!-- function&#45;0&#45;Lw&#45;&gt;function&#45;1&#45;ImmLabel -->
<g id="edge7" class="edge">
<title>function&#45;0&#45;Lw:s&#45;&gt;function&#45;1&#45;ImmLabel</title>
<path fill="none" stroke="black" d="M134,-174C134,-157.59 123.14,-143.33 111.25,-132.64"/>
<polygon fill="black" stroke="black" points="115.38,-133.08 110.19,-132 113.57,-136.08 115.38,-133.08"/>
</g>
<!-- function&#45;0&#45;Lw&#45;&gt;function&#45;0&#45;RegVal -->
<g id="edge6" class="edge">
<title>function&#45;0&#45;Lw:s&#45;&gt;function&#45;0&#45;RegVal</title>
<path fill="none" stroke="black" d="M118,-174C118,-157.98 128.15,-143.58 139.11,-132.71"/>
<polygon fill="black" stroke="black" points="136.87,-135.51 140.84,-132 135.55,-132.26 136.87,-135.51"/>
</g>
<!-- function&#45;0&#45;RegVal&#45;&gt;primitive&#45;String&#45;1 -->
<g id="edge8" class="edge">
<title>function&#45;0&#45;RegVal:s&#45;&gt;primitive&#45;String&#45;1</title>
<path fill="none" stroke="black" d="M167,-95C167,-81.69 169.7,-67.06 172.54,-55.36"/>
<polygon fill="black" stroke="black" points="172.95,-58.22 173.84,-53 169.89,-56.53 172.95,-58.22"/>
</g>
<!-- function&#45;0&#45;Jalr&#45;&gt;function&#45;0&#45;ImmVal -->
<g id="edge10" class="edge">
<title>function&#45;0&#45;Jalr:s&#45;&gt;function&#45;0&#45;ImmVal</title>
<path fill="none" stroke="black" d="M291,-174C291,-158.23 281.41,-143.67 271.19,-132.63"/>
<polygon fill="black" stroke="black" points="275,-132.36 269.71,-132 273.62,-135.58 275,-132.36"/>
</g>
<!-- function&#45;0&#45;Jalr&#45;&gt;function&#45;1&#45;RegVal -->
<g id="edge9" class="edge">
<title>function&#45;0&#45;Jalr:s&#45;&gt;function&#45;1&#45;RegVal</title>
<path fill="none" stroke="black" d="M275,-174C275,-158.23 284.59,-143.67 294.81,-132.63"/>
<polygon fill="black" stroke="black" points="292.38,-135.58 296.29,-132 291,-132.36 292.38,-135.58"/>
</g>
<!-- function&#45;1&#45;ImmLabel -->
<g id="node1" class="node">
<title>function&#45;1&#45;ImmLabel</title>
<g id="a_node1"><a xlink:title="Imm&#45;4: function&#45;1&#45;ImmLabel">
<path fill="white" stroke="transparent" d="M52.17,-95C52.17,-95 109.83,-95 109.83,-95 115.17,-95 120.5,-100.33 120.5,-105.67 120.5,-105.67 120.5,-116.33 120.5,-116.33 120.5,-121.67 115.17,-127 109.83,-127 109.83,-127 52.17,-127 52.17,-127 46.83,-127 41.5,-121.67 41.5,-116.33 41.5,-116.33 41.5,-105.67 41.5,-105.67 41.5,-100.33 46.83,-95 52.17,-95"/>
<text text-anchor="start" x="47" y="-107.3" font-family="Helvetica,sans-Serif" font-size="14.00">ImmLabel</text>
<path fill="none" stroke="black" d="M52.17,-95C52.17,-95 109.83,-95 109.83,-95 115.17,-95 120.5,-100.33 120.5,-105.67 120.5,-105.67 120.5,-116.33 120.5,-116.33 120.5,-121.67 115.17,-127 109.83,-127 109.83,-127 52.17,-127 52.17,-127 46.83,-127 41.5,-121.67 41.5,-116.33 41.5,-116.33 41.5,-105.67 41.5,-105.67 41.5,-100.33 46.83,-95 52.17,-95"/>
</a>
</g>
</g>
<!-- primitive&#45;String&#45;4 -->
<g id="node2" class="node">
<title>primitive&#45;String&#45;4</title>
<g id="a_node2"><a xlink:title="String&#45;4: primitive&#45;String&#45;4">
<path fill="white" stroke="transparent" d="M24.67,-16C24.67,-16 129.33,-16 129.33,-16 134.67,-16 140,-21.33 140,-26.67 140,-26.67 140,-37.33 140,-37.33 140,-42.67 134.67,-48 129.33,-48 129.33,-48 24.67,-48 24.67,-48 19.33,-48 14,-42.67 14,-37.33 14,-37.33 14,-26.67 14,-26.67 14,-21.33 19.33,-16 24.67,-16"/>
<text text-anchor="start" x="19" y="-28.3" font-family="Helvetica,sans-Serif" font-size="14.00">&quot;%lo(g_qCount)&quot;</text>
<path fill="none" stroke="black" d="M24.67,-16C24.67,-16 129.33,-16 129.33,-16 134.67,-16 140,-21.33 140,-26.67 140,-26.67 140,-37.33 140,-37.33 140,-42.67 134.67,-48 129.33,-48 129.33,-48 24.67,-48 24.67,-48 19.33,-48 14,-42.67 14,-37.33 14,-37.33 14,-26.67 14,-26.67 14,-21.33 19.33,-16 24.67,-16"/>
</a>
</g>
</g>
<!-- function&#45;0&#45;ImmVal -->
<g id="node3" class="node">
<title>function&#45;0&#45;ImmVal</title>
<g id="a_node3"><a xlink:title="Imm&#45;6: function&#45;0&#45;ImmVal">
<path fill="white" stroke="transparent" d="M226.67,-95C226.67,-95 267.33,-95 267.33,-95 272.67,-95 278,-100.33 278,-105.67 278,-105.67 278,-116.33 278,-116.33 278,-121.67 272.67,-127 267.33,-127 267.33,-127 226.67,-127 226.67,-127 221.33,-127 216,-121.67 216,-116.33 216,-116.33 216,-105.67 216,-105.67 216,-100.33 221.33,-95 226.67,-95"/>
<text text-anchor="start" x="221" y="-107.3" font-family="Helvetica,sans-Serif" font-size="14.00">ImmVal</text>
<path fill="none" stroke="black" d="M226.67,-95C226.67,-95 267.33,-95 267.33,-95 272.67,-95 278,-100.33 278,-105.67 278,-105.67 278,-116.33 278,-116.33 278,-121.67 272.67,-127 267.33,-127 267.33,-127 226.67,-127 226.67,-127 221.33,-127 216,-121.67 216,-116.33 216,-116.33 216,-105.67 216,-105.67 216,-100.33 221.33,-95 226.67,-95"/>
</a>
</g>
</g>
<!-- primitive&#45;i64&#45;0 -->
<g id="node4" class="node">
<title>primitive&#45;i64&#45;0</title>
<g id="a_node4"><a xlink:title="i64&#45;0: primitive&#45;i64&#45;0">
<path fill="white" stroke="transparent" d="M241.67,-16C241.67,-16 252.33,-16 252.33,-16 257.67,-16 263,-21.33 263,-26.67 263,-26.67 263,-37.33 263,-37.33 263,-42.67 257.67,-48 252.33,-48 252.33,-48 241.67,-48 241.67,-48 236.33,-48 231,-42.67 231,-37.33 231,-37.33 231,-26.67 231,-26.67 231,-21.33 236.33,-16 241.67,-16"/>
<text text-anchor="start" x="242" y="-28.3" font-family="Helvetica,sans-Serif" font-size="14.00">0</text>
<path fill="none" stroke="black" d="M241.67,-16C241.67,-16 252.33,-16 252.33,-16 257.67,-16 263,-21.33 263,-26.67 263,-26.67 263,-37.33 263,-37.33 263,-42.67 257.67,-48 252.33,-48 252.33,-48 241.67,-48 241.67,-48 236.33,-48 231,-42.67 231,-37.33 231,-37.33 231,-26.67 231,-26.67 231,-21.33 236.33,-16 241.67,-16"/>
</a>
</g>
</g>
<!-- function&#45;0&#45;ImmLabel -->
<g id="node5" class="node">
<title>function&#45;0&#45;ImmLabel</title>
<g id="a_node5"><a xlink:title="Imm&#45;2: function&#45;0&#45;ImmLabel">
<path fill="white" stroke="transparent" d="M393.17,-95C393.17,-95 450.83,-95 450.83,-95 456.17,-95 461.5,-100.33 461.5,-105.67 461.5,-105.67 461.5,-116.33 461.5,-116.33 461.5,-121.67 456.17,-127 450.83,-127 450.83,-127 393.17,-127 393.17,-127 387.83,-127 382.5,-121.67 382.5,-116.33 382.5,-116.33 382.5,-105.67 382.5,-105.67 382.5,-100.33 387.83,-95 393.17,-95"/>
<text text-anchor="start" x="388" y="-107.3" font-family="Helvetica,sans-Serif" font-size="14.00">ImmLabel</text>
<path fill="none" stroke="black" d="M393.17,-95C393.17,-95 450.83,-95 450.83,-95 456.17,-95 461.5,-100.33 461.5,-105.67 461.5,-105.67 461.5,-116.33 461.5,-116.33 461.5,-121.67 456.17,-127 450.83,-127 450.83,-127 393.17,-127 393.17,-127 387.83,-127 382.5,-121.67 382.5,-116.33 382.5,-116.33 382.5,-105.67 382.5,-105.67 382.5,-100.33 387.83,-95 393.17,-95"/>
</a>
</g>
</g>
<!-- primitive&#45;String&#45;3 -->
<g id="node6" class="node">
<title>primitive&#45;String&#45;3</title>
<g id="a_node6"><a xlink:title="String&#45;3: primitive&#45;String&#45;3">
<path fill="white" stroke="transparent" d="M370.17,-16C370.17,-16 475.83,-16 475.83,-16 481.17,-16 486.5,-21.33 486.5,-26.67 486.5,-26.67 486.5,-37.33 486.5,-37.33 486.5,-42.67 481.17,-48 475.83,-48 475.83,-48 370.17,-48 370.17,-48 364.83,-48 359.5,-42.67 359.5,-37.33 359.5,-37.33 359.5,-26.67 359.5,-26.67 359.5,-21.33 364.83,-16 370.17,-16"/>
<text text-anchor="start" x="365" y="-28.3" font-family="Helvetica,sans-Serif" font-size="14.00">&quot;%hi(g_qCount)&quot;</text>
<path fill="none" stroke="black" d="M370.17,-16C370.17,-16 475.83,-16 475.83,-16 481.17,-16 486.5,-21.33 486.5,-26.67 486.5,-26.67 486.5,-37.33 486.5,-37.33 486.5,-42.67 481.17,-48 475.83,-48 475.83,-48 370.17,-48 370.17,-48 364.83,-48 359.5,-42.67 359.5,-37.33 359.5,-37.33 359.5,-26.67 359.5,-26.67 359.5,-21.33 364.83,-16 370.17,-16"/>
</a>
</g>
</g>
<!-- function&#45;1&#45;RegVal -->
<g id="node7" class="node">
<title>function&#45;1&#45;RegVal</title>
<g id="a_node7"><a xlink:title="Inst&#45;1: function&#45;1&#45;RegVal">
<path fill="white" stroke="transparent" d="M301.17,-95C301.17,-95 336.83,-95 336.83,-95 342.17,-95 347.5,-100.33 347.5,-105.67 347.5,-105.67 347.5,-116.33 347.5,-116.33 347.5,-121.67 342.17,-127 336.83,-127 336.83,-127 301.17,-127 301.17,-127 295.83,-127 290.5,-121.67 290.5,-116.33 290.5,-116.33 290.5,-105.67 290.5,-105.67 290.5,-100.33 295.83,-95 301.17,-95"/>
<text text-anchor="start" x="296" y="-107.3" font-family="Helvetica,sans-Serif" font-size="14.00">RegVal</text>
<path fill="none" stroke="black" d="M301.17,-95C301.17,-95 336.83,-95 336.83,-95 342.17,-95 347.5,-100.33 347.5,-105.67 347.5,-105.67 347.5,-116.33 347.5,-116.33 347.5,-121.67 342.17,-127 336.83,-127 336.83,-127 301.17,-127 301.17,-127 295.83,-127 290.5,-121.67 290.5,-116.33 290.5,-116.33 290.5,-105.67 290.5,-105.67 290.5,-100.33 295.83,-95 301.17,-95"/>
</a>
</g>
</g>
<!-- primitive&#45;String&#45;2 -->
<g id="node8" class="node">
<title>primitive&#45;String&#45;2</title>
<g id="a_node8"><a xlink:title="String&#45;2: primitive&#45;String&#45;2">
<path fill="white" stroke="transparent" d="M303.67,-16C303.67,-16 336.33,-16 336.33,-16 341.67,-16 347,-21.33 347,-26.67 347,-26.67 347,-37.33 347,-37.33 347,-42.67 341.67,-48 336.33,-48 336.33,-48 303.67,-48 303.67,-48 298.33,-48 293,-42.67 293,-37.33 293,-37.33 293,-26.67 293,-26.67 293,-21.33 298.33,-16 303.67,-16"/>
<text text-anchor="start" x="298" y="-28.3" font-family="Helvetica,sans-Serif" font-size="14.00">&quot;ra_0&quot;</text>
<path fill="none" stroke="black" d="M303.67,-16C303.67,-16 336.33,-16 336.33,-16 341.67,-16 347,-21.33 347,-26.67 347,-26.67 347,-37.33 347,-37.33 347,-42.67 341.67,-48 336.33,-48 336.33,-48 303.67,-48 303.67,-48 298.33,-48 293,-42.67 293,-37.33 293,-37.33 293,-26.67 293,-26.67 293,-21.33 298.33,-16 303.67,-16"/>
</a>
</g>
</g>
<!-- function&#45;0&#45;Lui -->
<g id="node9" class="node">
<title>function&#45;0&#45;Lui</title>
<g id="a_node9"><a xlink:title="Inst&#45;3: function&#45;0&#45;Lui">
<path fill="white" stroke="transparent" d="M416.67,-174C416.67,-174 427.33,-174 427.33,-174 432.67,-174 438,-179.33 438,-184.67 438,-184.67 438,-195.33 438,-195.33 438,-200.67 432.67,-206 427.33,-206 427.33,-206 416.67,-206 416.67,-206 411.33,-206 406,-200.67 406,-195.33 406,-195.33 406,-184.67 406,-184.67 406,-179.33 411.33,-174 416.67,-174"/>
<text text-anchor="start" x="411.5" y="-186.3" font-family="Helvetica,sans-Serif" font-size="14.00">Lui</text>
<path fill="none" stroke="black" d="M416.67,-174C416.67,-174 427.33,-174 427.33,-174 432.67,-174 438,-179.33 438,-184.67 438,-184.67 438,-195.33 438,-195.33 438,-200.67 432.67,-206 427.33,-206 427.33,-206 416.67,-206 416.67,-206 411.33,-206 406,-200.67 406,-195.33 406,-195.33 406,-184.67 406,-184.67 406,-179.33 411.33,-174 416.67,-174"/>
</a>
</g>
</g>
<!-- function&#45;0&#45;Lw -->
<g id="node10" class="node">
<title>function&#45;0&#45;Lw</title>
<g id="a_node10"><a xlink:title="Inst&#45;5: function&#45;0&#45;Lw">
<path fill="white" stroke="transparent" d="M120.67,-174C120.67,-174 131.33,-174 131.33,-174 136.67,-174 142,-179.33 142,-184.67 142,-184.67 142,-195.33 142,-195.33 142,-200.67 136.67,-206 131.33,-206 131.33,-206 120.67,-206 120.67,-206 115.33,-206 110,-200.67 110,-195.33 110,-195.33 110,-184.67 110,-184.67 110,-179.33 115.33,-174 120.67,-174"/>
<text text-anchor="start" x="116.5" y="-186.3" font-family="Helvetica,sans-Serif" font-size="14.00">Lw</text>
<path fill="none" stroke="black" d="M120.67,-174C120.67,-174 131.33,-174 131.33,-174 136.67,-174 142,-179.33 142,-184.67 142,-184.67 142,-195.33 142,-195.33 142,-200.67 136.67,-206 131.33,-206 131.33,-206 120.67,-206 120.67,-206 115.33,-206 110,-200.67 110,-195.33 110,-195.33 110,-184.67 110,-184.67 110,-179.33 115.33,-174 120.67,-174"/>
</a>
</g>
</g>
<!-- function&#45;0&#45;RegVal -->
<g id="node11" class="node">
<title>function&#45;0&#45;RegVal</title>
<g id="a_node11"><a xlink:title="Inst&#45;0: function&#45;0&#45;RegVal">
<path fill="white" stroke="transparent" d="M148.17,-95C148.17,-95 183.83,-95 183.83,-95 189.17,-95 194.5,-100.33 194.5,-105.67 194.5,-105.67 194.5,-116.33 194.5,-116.33 194.5,-121.67 189.17,-127 183.83,-127 183.83,-127 148.17,-127 148.17,-127 142.83,-127 137.5,-121.67 137.5,-116.33 137.5,-116.33 137.5,-105.67 137.5,-105.67 137.5,-100.33 142.83,-95 148.17,-95"/>
<text text-anchor="start" x="143" y="-107.3" font-family="Helvetica,sans-Serif" font-size="14.00">RegVal</text>
<path fill="none" stroke="black" d="M148.17,-95C148.17,-95 183.83,-95 183.83,-95 189.17,-95 194.5,-100.33 194.5,-105.67 194.5,-105.67 194.5,-116.33 194.5,-116.33 194.5,-121.67 189.17,-127 183.83,-127 183.83,-127 148.17,-127 148.17,-127 142.83,-127 137.5,-121.67 137.5,-116.33 137.5,-116.33 137.5,-105.67 137.5,-105.67 137.5,-100.33 142.83,-95 148.17,-95"/>
</a>
</g>
</g>
<!-- primitive&#45;String&#45;1 -->
<g id="node12" class="node">
<title>primitive&#45;String&#45;1</title>
<g id="a_node12"><a xlink:title="String&#45;1: primitive&#45;String&#45;1">
<path fill="white" stroke="transparent" d="M169.17,-16C169.17,-16 188.83,-16 188.83,-16 194.17,-16 199.5,-21.33 199.5,-26.67 199.5,-26.67 199.5,-37.33 199.5,-37.33 199.5,-42.67 194.17,-48 188.83,-48 188.83,-48 169.17,-48 169.17,-48 163.83,-48 158.5,-42.67 158.5,-37.33 158.5,-37.33 158.5,-26.67 158.5,-26.67 158.5,-21.33 163.83,-16 169.17,-16"/>
<text text-anchor="start" x="164" y="-28.3" font-family="Helvetica,sans-Serif" font-size="14.00">&quot;a5&quot;</text>
<path fill="none" stroke="black" d="M169.17,-16C169.17,-16 188.83,-16 188.83,-16 194.17,-16 199.5,-21.33 199.5,-26.67 199.5,-26.67 199.5,-37.33 199.5,-37.33 199.5,-42.67 194.17,-48 188.83,-48 188.83,-48 169.17,-48 169.17,-48 163.83,-48 158.5,-42.67 158.5,-37.33 158.5,-37.33 158.5,-26.67 158.5,-26.67 158.5,-21.33 163.83,-16 169.17,-16"/>
</a>
</g>
</g>
<!-- function&#45;0&#45;Jalr -->
<g id="node13" class="node">
<title>function&#45;0&#45;Jalr</title>
<g id="a_node13"><a xlink:title="Inst&#45;7: function&#45;0&#45;Jalr">
<path fill="white" stroke="transparent" d="M277.17,-174C277.17,-174 288.83,-174 288.83,-174 294.17,-174 299.5,-179.33 299.5,-184.67 299.5,-184.67 299.5,-195.33 299.5,-195.33 299.5,-200.67 294.17,-206 288.83,-206 288.83,-206 277.17,-206 277.17,-206 271.83,-206 266.5,-200.67 266.5,-195.33 266.5,-195.33 266.5,-184.67 266.5,-184.67 266.5,-179.33 271.83,-174 277.17,-174"/>
<text text-anchor="start" x="272" y="-186.3" font-family="Helvetica,sans-Serif" font-size="14.00">Jalr</text>
<path fill="none" stroke="black" d="M277.17,-174C277.17,-174 288.83,-174 288.83,-174 294.17,-174 299.5,-179.33 299.5,-184.67 299.5,-184.67 299.5,-195.33 299.5,-195.33 299.5,-200.67 294.17,-206 288.83,-206 288.83,-206 277.17,-206 277.17,-206 271.83,-206 266.5,-200.67 266.5,-195.33 266.5,-195.33 266.5,-184.67 266.5,-184.67 266.5,-179.33 271.83,-174 277.17,-174"/>
</a>
</g>
</g>
</g>
</svg>
