<?xml version="1.0" encoding="UTF-8" standalone="no"?>
<!DOCTYPE svg PUBLIC "-//W3C//DTD SVG 1.1//EN"
 "http://www.w3.org/Graphics/SVG/1.1/DTD/svg11.dtd">
<!-- Generated by graphviz version 2.43.0 (0)
 -->
<!-- Title: %3 Pages: 1 -->
<svg width="1092pt" height="388pt"
 viewBox="0.00 0.00 1092.00 388.00" xmlns="http://www.w3.org/2000/svg" xmlns:xlink="http://www.w3.org/1999/xlink">
<g id="graph0" class="graph" transform="scale(1 1) rotate(0) translate(4 384)">
<title>%3</title>
<polygon fill="white" stroke="#000000" points="-4,4 -4,-384 1088,-384 1088,4 -4,4"/>
<g id="clust1" class="cluster">
<title>outer_cluster_Imm&#45;15</title>
</g>
<g id="clust2" class="cluster">
<title>cluster_Imm&#45;15</title>
<path fill="#ffffb3" stroke="black" stroke-dasharray="5,2" d="M23,-248C23,-248 67,-248 67,-248 73,-248 79,-254 79,-260 79,-260 79,-278 79,-278 79,-284 73,-290 67,-290 67,-290 23,-290 23,-290 17,-290 11,-284 11,-278 11,-278 11,-260 11,-260 11,-254 17,-248 23,-248"/>
</g>
<g id="clust4" class="cluster">
<title>outer_cluster_Imm&#45;19</title>
</g>
<g id="clust5" class="cluster">
<title>cluster_Imm&#45;19</title>
<path fill="#ffffb3" stroke="black" stroke-dasharray="5,2" d="M657,-248C657,-248 701,-248 701,-248 707,-248 713,-254 713,-260 713,-260 713,-278 713,-278 713,-284 707,-290 701,-290 701,-290 657,-290 657,-290 651,-290 645,-284 645,-278 645,-278 645,-260 645,-260 645,-254 651,-248 657,-248"/>
</g>
<g id="clust7" class="cluster">
<title>outer_cluster_Imm&#45;5</title>
</g>
<g id="clust8" class="cluster">
<title>cluster_Imm&#45;5</title>
<path fill="#ffffb3" stroke="black" stroke-dasharray="5,2" d="M162,-169C162,-169 206,-169 206,-169 212,-169 218,-175 218,-181 218,-181 218,-199 218,-199 218,-205 212,-211 206,-211 206,-211 162,-211 162,-211 156,-211 150,-205 150,-199 150,-199 150,-181 150,-181 150,-175 156,-169 162,-169"/>
</g>
<g id="clust10" class="cluster">
<title>outer_cluster_Imm&#45;13</title>
</g>
<g id="clust11" class="cluster">
<title>cluster_Imm&#45;13</title>
<path fill="#ffffb3" stroke="black" stroke-dasharray="5,2" d="M1017,-169C1017,-169 1061,-169 1061,-169 1067,-169 1073,-175 1073,-181 1073,-181 1073,-199 1073,-199 1073,-205 1067,-211 1061,-211 1061,-211 1017,-211 1017,-211 1011,-211 1005,-205 1005,-199 1005,-199 1005,-181 1005,-181 1005,-175 1011,-169 1017,-169"/>
</g>
<g id="clust13" class="cluster">
<title>outer_cluster_Imm&#45;17</title>
</g>
<g id="clust14" class="cluster">
<title>cluster_Imm&#45;17</title>
<path fill="#ffffb3" stroke="black" stroke-dasharray="5,2" d="M513,-248C513,-248 557,-248 557,-248 563,-248 569,-254 569,-260 569,-260 569,-278 569,-278 569,-284 563,-290 557,-290 557,-290 513,-290 513,-290 507,-290 501,-284 501,-278 501,-278 501,-260 501,-260 501,-254 507,-248 513,-248"/>
</g>
<g id="clust16" class="cluster">
<title>outer_cluster_Imm&#45;24</title>
</g>
<g id="clust17" class="cluster">
<title>cluster_Imm&#45;24</title>
<path fill="#ffffb3" stroke="black" stroke-dasharray="5,2" d="M947,-248C947,-248 991,-248 991,-248 997,-248 1003,-254 1003,-260 1003,-260 1003,-278 1003,-278 1003,-284 997,-290 991,-290 991,-290 947,-290 947,-290 941,-290 935,-284 935,-278 935,-278 935,-260 935,-260 935,-254 941,-248 947,-248"/>
</g>
<g id="clust19" class="cluster">
<title>outer_cluster_Imm&#45;7</title>
</g>
<g id="clust20" class="cluster">
<title>cluster_Imm&#45;7</title>
<path fill="#ffffb3" stroke="black" stroke-dasharray="5,2" d="M299,-248C299,-248 343,-248 343,-248 349,-248 355,-254 355,-260 355,-260 355,-278 355,-278 355,-284 349,-290 343,-290 343,-290 299,-290 299,-290 293,-290 287,-284 287,-278 287,-278 287,-260 287,-260 287,-254 293,-248 299,-248"/>
</g>
<g id="clust22" class="cluster">
<title>outer_cluster_Imm&#45;9</title>
</g>
<g id="clust23" class="cluster">
<title>cluster_Imm&#45;9</title>
<path fill="#ffffb3" stroke="black" stroke-dasharray="5,2" d="M691,-90C691,-90 751,-90 751,-90 757,-90 763,-96 763,-102 763,-102 763,-120 763,-120 763,-126 757,-132 751,-132 751,-132 691,-132 691,-132 685,-132 679,-126 679,-120 679,-120 679,-102 679,-102 679,-96 685,-90 691,-90"/>
</g>
<g id="clust25" class="cluster">
<title>outer_cluster_Imm&#45;11</title>
</g>
<g id="clust26" class="cluster">
<title>cluster_Imm&#45;11</title>
<path fill="#ffffb3" stroke="black" stroke-dasharray="5,2" d="M791,-169C791,-169 851,-169 851,-169 857,-169 863,-175 863,-181 863,-181 863,-199 863,-199 863,-205 857,-211 851,-211 851,-211 791,-211 791,-211 785,-211 779,-205 779,-199 779,-199 779,-181 779,-181 779,-175 785,-169 791,-169"/>
</g>
<g id="clust28" class="cluster">
<title>outer_cluster_Imm&#45;21</title>
</g>
<g id="clust29" class="cluster">
<title>cluster_Imm&#45;21</title>
<path fill="#ffffb3" stroke="black" stroke-dasharray="5,2" d="M852,-248C852,-248 896,-248 896,-248 902,-248 908,-254 908,-260 908,-260 908,-278 908,-278 908,-284 902,-290 896,-290 896,-290 852,-290 852,-290 846,-290 840,-284 840,-278 840,-278 840,-260 840,-260 840,-254 846,-248 852,-248"/>
</g>
<g id="clust31" class="cluster">
<title>outer_cluster_Inst&#45;3</title>
</g>
<g id="clust32" class="cluster">
<title>cluster_Inst&#45;3</title>
<path fill="#bebada" stroke="black" stroke-dasharray="5,2" d="M373,-248C373,-248 413,-248 413,-248 419,-248 425,-254 425,-260 425,-260 425,-278 425,-278 425,-284 419,-290 413,-290 413,-290 373,-290 373,-290 367,-290 361,-284 361,-278 361,-278 361,-260 361,-260 361,-254 367,-248 373,-248"/>
</g>
<g id="clust34" class="cluster">
<title>outer_cluster_Inst&#45;8</title>
</g>
<g id="clust35" class="cluster">
<title>cluster_Inst&#45;8</title>
<path fill="#bebada" stroke="black" stroke-dasharray="5,2" d="M292,-327C292,-327 328,-327 328,-327 334,-327 340,-333 340,-339 340,-339 340,-357 340,-357 340,-363 334,-369 328,-369 328,-369 292,-369 292,-369 286,-369 280,-363 280,-357 280,-357 280,-339 280,-339 280,-333 286,-327 292,-327"/>
</g>
<g id="clust37" class="cluster">
<title>outer_cluster_Inst&#45;6</title>
</g>
<g id="clust38" class="cluster">
<title>cluster_Inst&#45;6</title>
<path fill="#bebada" stroke="black" stroke-dasharray="5,2" d="M233,-248C233,-248 269,-248 269,-248 275,-248 281,-254 281,-260 281,-260 281,-278 281,-278 281,-284 275,-290 269,-290 269,-290 233,-290 233,-290 227,-290 221,-284 221,-278 221,-278 221,-260 221,-260 221,-254 227,-248 233,-248"/>
</g>
<g id="clust40" class="cluster">
<title>outer_cluster_Inst&#45;1</title>
</g>
<g id="clust41" class="cluster">
<title>cluster_Inst&#45;1</title>
<path fill="#bebada" stroke="black" stroke-dasharray="5,2" d="M97,-248C97,-248 137,-248 137,-248 143,-248 149,-254 149,-260 149,-260 149,-278 149,-278 149,-284 143,-290 137,-290 137,-290 97,-290 97,-290 91,-290 85,-284 85,-278 85,-278 85,-260 85,-260 85,-254 91,-248 97,-248"/>
</g>
<g id="clust43" class="cluster">
<title>outer_cluster_Inst&#45;2</title>
</g>
<g id="clust44" class="cluster">
<title>cluster_Inst&#45;2</title>
<path fill="#bebada" stroke="black" stroke-dasharray="5,2" d="M443,-248C443,-248 483,-248 483,-248 489,-248 495,-254 495,-260 495,-260 495,-278 495,-278 495,-284 489,-290 483,-290 483,-290 443,-290 443,-290 437,-290 431,-284 431,-278 431,-278 431,-260 431,-260 431,-254 437,-248 443,-248"/>
</g>
<g id="clust46" class="cluster">
<title>outer_cluster_Inst&#45;4</title>
</g>
<g id="clust47" class="cluster">
<title>cluster_Inst&#45;4</title>
<path fill="#bebada" stroke="black" stroke-dasharray="5,2" d="M236,-169C236,-169 276,-169 276,-169 282,-169 288,-175 288,-181 288,-181 288,-199 288,-199 288,-205 282,-211 276,-211 276,-211 236,-211 236,-211 230,-211 224,-205 224,-199 224,-199 224,-181 224,-181 224,-175 230,-169 236,-169"/>
</g>
<g id="clust49" class="cluster">
<title>outer_cluster_Inst&#45;22</title>
</g>
<g id="clust50" class="cluster">
<title>cluster_Inst&#45;22</title>
<path fill="#bebada" stroke="black" stroke-dasharray="5,2" d="M810,-327C810,-327 846,-327 846,-327 852,-327 858,-333 858,-339 858,-339 858,-357 858,-357 858,-363 852,-369 846,-369 846,-369 810,-369 810,-369 804,-369 798,-363 798,-357 798,-357 798,-339 798,-339 798,-333 804,-327 810,-327"/>
</g>
<g id="clust52" class="cluster">
<title>outer_cluster_Inst&#45;10</title>
</g>
<g id="clust53" class="cluster">
<title>cluster_Inst&#45;10</title>
<path fill="#bebada" stroke="black" stroke-dasharray="5,2" d="M725,-169C725,-169 761,-169 761,-169 767,-169 773,-175 773,-181 773,-181 773,-199 773,-199 773,-205 767,-211 761,-211 761,-211 725,-211 725,-211 719,-211 713,-205 713,-199 713,-199 713,-181 713,-181 713,-175 719,-169 725,-169"/>
</g>
<g id="clust55" class="cluster">
<title>outer_cluster_Inst&#45;18</title>
</g>
<g id="clust56" class="cluster">
<title>cluster_Inst&#45;18</title>
<path fill="#bebada" stroke="black" stroke-dasharray="5,2" d="M441,-327C441,-327 477,-327 477,-327 483,-327 489,-333 489,-339 489,-339 489,-357 489,-357 489,-363 483,-369 477,-369 477,-369 441,-369 441,-369 435,-369 429,-363 429,-357 429,-357 429,-339 429,-339 429,-333 435,-327 441,-327"/>
</g>
<g id="clust58" class="cluster">
<title>outer_cluster_Inst&#45;16</title>
</g>
<g id="clust59" class="cluster">
<title>cluster_Inst&#45;16</title>
<path fill="#bebada" stroke="black" stroke-dasharray="5,2" d="M95,-327C95,-327 131,-327 131,-327 137,-327 143,-333 143,-339 143,-339 143,-357 143,-357 143,-363 137,-369 131,-369 131,-369 95,-369 95,-369 89,-369 83,-363 83,-357 83,-357 83,-339 83,-339 83,-333 89,-327 95,-327"/>
</g>
<g id="clust61" class="cluster">
<title>outer_cluster_Inst&#45;12</title>
</g>
<g id="clust62" class="cluster">
<title>cluster_Inst&#45;12</title>
<path fill="#bebada" stroke="black" stroke-dasharray="5,2" d="M764,-248C764,-248 800,-248 800,-248 806,-248 812,-254 812,-260 812,-260 812,-278 812,-278 812,-284 806,-290 800,-290 800,-290 764,-290 764,-290 758,-290 752,-284 752,-278 752,-278 752,-260 752,-260 752,-254 758,-248 764,-248"/>
</g>
<g id="clust64" class="cluster">
<title>outer_cluster_Inst&#45;20</title>
</g>
<g id="clust65" class="cluster">
<title>cluster_Inst&#45;20</title>
<path fill="#bebada" stroke="black" stroke-dasharray="5,2" d="M610,-327C610,-327 646,-327 646,-327 652,-327 658,-333 658,-339 658,-339 658,-357 658,-357 658,-363 652,-369 646,-369 646,-369 610,-369 610,-369 604,-369 598,-363 598,-357 598,-357 598,-339 598,-339 598,-333 604,-327 610,-327"/>
</g>
<g id="clust67" class="cluster">
<title>outer_cluster_Inst&#45;23</title>
</g>
<g id="clust68" class="cluster">
<title>cluster_Inst&#45;23</title>
<path fill="#bebada" stroke="black" stroke-dasharray="5,2" d="M723,-327C723,-327 759,-327 759,-327 765,-327 771,-333 771,-339 771,-339 771,-357 771,-357 771,-363 765,-369 759,-369 759,-369 723,-369 723,-369 717,-369 711,-363 711,-357 711,-357 711,-339 711,-339 711,-333 717,-327 723,-327"/>
</g>
<g id="clust70" class="cluster">
<title>outer_cluster_Inst&#45;14</title>
</g>
<g id="clust71" class="cluster">
<title>cluster_Inst&#45;14</title>
<path fill="#bebada" stroke="black" stroke-dasharray="5,2" d="M1021,-248C1021,-248 1057,-248 1057,-248 1063,-248 1069,-254 1069,-260 1069,-260 1069,-278 1069,-278 1069,-284 1063,-290 1057,-290 1057,-290 1021,-290 1021,-290 1015,-290 1009,-284 1009,-278 1009,-278 1009,-260 1009,-260 1009,-254 1015,-248 1021,-248"/>
</g>
<g id="clust73" class="cluster">
<title>outer_cluster_Inst&#45;25</title>
</g>
<g id="clust74" class="cluster">
<title>cluster_Inst&#45;25</title>
<path fill="#bebada" stroke="black" stroke-dasharray="5,2" d="M983,-327C983,-327 1019,-327 1019,-327 1025,-327 1031,-333 1031,-339 1031,-339 1031,-357 1031,-357 1031,-363 1025,-369 1019,-369 1019,-369 983,-369 983,-369 977,-369 971,-363 971,-357 971,-357 971,-339 971,-339 971,-333 977,-327 983,-327"/>
</g>
<g id="clust76" class="cluster">
<title>outer_cluster_Inst&#45;0</title>
</g>
<g id="clust77" class="cluster">
<title>cluster_Inst&#45;0</title>
<path fill="#bebada" stroke="black" stroke-dasharray="5,2" d="M587,-248C587,-248 627,-248 627,-248 633,-248 639,-254 639,-260 639,-260 639,-278 639,-278 639,-284 633,-290 627,-290 627,-290 587,-290 587,-290 581,-290 575,-284 575,-278 575,-278 575,-260 575,-260 575,-254 581,-248 587,-248"/>
</g>
<g id="clust79" class="cluster">
<title>outer_cluster_String&#45;2</title>
</g>
<g id="clust80" class="cluster">
<title>cluster_String&#45;2</title>
<path fill="#fb8072" stroke="black" stroke-dasharray="5,2" d="M96,-169C96,-169 132,-169 132,-169 138,-169 144,-175 144,-181 144,-181 144,-199 144,-199 144,-205 138,-211 132,-211 132,-211 96,-211 96,-211 90,-211 84,-205 84,-199 84,-199 84,-181 84,-181 84,-175 90,-169 96,-169"/>
</g>
<g id="clust82" class="cluster">
<title>outer_cluster_String&#45;6</title>
</g>
<g id="clust83" class="cluster">
<title>cluster_String&#45;6</title>
<path fill="#fb8072" stroke="black" stroke-dasharray="5,2" d="M659,-11C659,-11 785,-11 785,-11 791,-11 797,-17 797,-23 797,-23 797,-41 797,-41 797,-47 791,-53 785,-53 785,-53 659,-53 659,-53 653,-53 647,-47 647,-41 647,-41 647,-23 647,-23 647,-17 653,-11 659,-11"/>
</g>
<g id="clust85" class="cluster">
<title>outer_cluster_String&#45;5</title>
</g>
<g id="clust86" class="cluster">
<title>cluster_String&#45;5</title>
<path fill="#fb8072" stroke="black" stroke-dasharray="5,2" d="M238,-90C238,-90 276,-90 276,-90 282,-90 288,-96 288,-102 288,-102 288,-120 288,-120 288,-126 282,-132 276,-132 276,-132 238,-132 238,-132 232,-132 226,-126 226,-120 226,-120 226,-102 226,-102 226,-96 232,-90 238,-90"/>
</g>
<g id="clust88" class="cluster">
<title>outer_cluster_String&#45;3</title>
</g>
<g id="clust89" class="cluster">
<title>cluster_String&#45;3</title>
<path fill="#fb8072" stroke="black" stroke-dasharray="5,2" d="M445,-169C445,-169 483,-169 483,-169 489,-169 495,-175 495,-181 495,-181 495,-199 495,-199 495,-205 489,-211 483,-211 483,-211 445,-211 445,-211 439,-211 433,-205 433,-199 433,-199 433,-181 433,-181 433,-175 439,-169 445,-169"/>
</g>
<g id="clust91" class="cluster">
<title>outer_cluster_String&#45;4</title>
</g>
<g id="clust92" class="cluster">
<title>cluster_String&#45;4</title>
<path fill="#fb8072" stroke="black" stroke-dasharray="5,2" d="M375,-169C375,-169 413,-169 413,-169 419,-169 425,-175 425,-181 425,-181 425,-199 425,-199 425,-205 419,-211 413,-211 413,-211 375,-211 375,-211 369,-211 363,-205 363,-199 363,-199 363,-181 363,-181 363,-175 369,-169 375,-169"/>
</g>
<g id="clust94" class="cluster">
<title>outer_cluster_String&#45;1</title>
</g>
<g id="clust95" class="cluster">
<title>cluster_String&#45;1</title>
<path fill="#fb8072" stroke="black" stroke-dasharray="5,2" d="M588,-169C588,-169 628,-169 628,-169 634,-169 640,-175 640,-181 640,-181 640,-199 640,-199 640,-205 634,-211 628,-211 628,-211 588,-211 588,-211 582,-211 576,-205 576,-199 576,-199 576,-181 576,-181 576,-175 582,-169 588,-169"/>
</g>
<g id="clust97" class="cluster">
<title>outer_cluster_String&#45;7</title>
</g>
<g id="clust98" class="cluster">
<title>cluster_String&#45;7</title>
<path fill="#fb8072" stroke="black" stroke-dasharray="5,2" d="M781,-90C781,-90 907,-90 907,-90 913,-90 919,-96 919,-102 919,-102 919,-120 919,-120 919,-126 913,-132 907,-132 907,-132 781,-132 781,-132 775,-132 769,-126 769,-120 769,-120 769,-102 769,-102 769,-96 775,-90 781,-90"/>
</g>
<g id="clust100" class="cluster">
<title>outer_cluster_i64&#45;72</title>
</g>
<g id="clust101" class="cluster">
<title>cluster_i64&#45;72</title>
<path fill="#80b1d3" stroke="black" stroke-dasharray="5,2" d="M517,-169C517,-169 553,-169 553,-169 559,-169 565,-175 565,-181 565,-181 565,-199 565,-199 565,-205 559,-211 553,-211 553,-211 517,-211 517,-211 511,-211 505,-205 505,-199 505,-199 505,-181 505,-181 505,-175 511,-169 517,-169"/>
</g>
<g id="clust103" class="cluster">
<title>outer_cluster_i64&#45;76</title>
</g>
<g id="clust104" class="cluster">
<title>cluster_i64&#45;76</title>
<path fill="#80b1d3" stroke="black" stroke-dasharray="5,2" d="M27,-169C27,-169 63,-169 63,-169 69,-169 75,-175 75,-181 75,-181 75,-199 75,-199 75,-205 69,-211 63,-211 63,-211 27,-211 27,-211 21,-211 15,-205 15,-199 15,-199 15,-181 15,-181 15,-175 21,-169 27,-169"/>
</g>
<g id="clust106" class="cluster">
<title>outer_cluster_i64&#45;1807</title>
</g>
<g id="clust107" class="cluster">
<title>cluster_i64&#45;1807</title>
<path fill="#80b1d3" stroke="black" stroke-dasharray="5,2" d="M951,-169C951,-169 987,-169 987,-169 993,-169 999,-175 999,-181 999,-181 999,-199 999,-199 999,-205 993,-211 987,-211 987,-211 951,-211 951,-211 945,-211 939,-205 939,-199 939,-199 939,-181 939,-181 939,-175 945,-169 951,-169"/>
</g>
<g id="clust109" class="cluster">
<title>outer_cluster_i64&#45;0</title>
</g>
<g id="clust110" class="cluster">
<title>cluster_i64&#45;0</title>
<path fill="#80b1d3" stroke="black" stroke-dasharray="5,2" d="M659,-169C659,-169 695,-169 695,-169 701,-169 707,-175 707,-181 707,-181 707,-199 707,-199 707,-205 701,-211 695,-211 695,-211 659,-211 659,-211 653,-211 647,-205 647,-199 647,-199 647,-181 647,-181 647,-175 653,-169 659,-169"/>
</g>
<g id="clust112" class="cluster">
<title>outer_cluster_i64&#45;52</title>
</g>
<g id="clust113" class="cluster">
<title>cluster_i64&#45;52</title>
<path fill="#80b1d3" stroke="black" stroke-dasharray="5,2" d="M306,-169C306,-169 342,-169 342,-169 348,-169 354,-175 354,-181 354,-181 354,-199 354,-199 354,-205 348,-211 342,-211 342,-211 306,-211 306,-211 300,-211 294,-205 294,-199 294,-199 294,-181 294,-181 294,-175 300,-169 306,-169"/>
</g>
<g id="clust115" class="cluster">
<title>outer_cluster_i64&#45;2147483649</title>
</g>
<g id="clust116" class="cluster">
<title>cluster_i64&#45;2147483649</title>
<path fill="#80b1d3" stroke="black" stroke-dasharray="5,2" d="M166,-90C166,-90 202,-90 202,-90 208,-90 214,-96 214,-102 214,-102 214,-120 214,-120 214,-126 208,-132 202,-132 202,-132 166,-132 166,-132 160,-132 154,-126 154,-120 154,-120 154,-102 154,-102 154,-96 160,-90 166,-90"/>
</g>
<g id="clust118" class="cluster">
<title>outer_cluster_i64&#45;2</title>
</g>
<g id="clust119" class="cluster">
<title>cluster_i64&#45;2</title>
<path fill="#80b1d3" stroke="black" stroke-dasharray="5,2" d="M1021,-90C1021,-90 1057,-90 1057,-90 1063,-90 1069,-96 1069,-102 1069,-102 1069,-120 1069,-120 1069,-126 1063,-132 1057,-132 1057,-132 1021,-132 1021,-132 1015,-132 1009,-126 1009,-120 1009,-120 1009,-102 1009,-102 1009,-96 1015,-90 1021,-90"/>
</g>
<g id="clust121" class="cluster">
<title>outer_cluster_i64&#45;800</title>
</g>
<g id="clust122" class="cluster">
<title>cluster_i64&#45;800</title>
<path fill="#80b1d3" stroke="black" stroke-dasharray="5,2" d="M881,-169C881,-169 917,-169 917,-169 923,-169 929,-175 929,-181 929,-181 929,-199 929,-199 929,-205 923,-211 917,-211 917,-211 881,-211 881,-211 875,-211 869,-205 869,-199 869,-199 869,-181 869,-181 869,-175 875,-169 881,-169"/>
</g>
<!-- function&#45;3&#45;ImmVal&#45;&gt;primitive&#45;i64&#45;76 -->
<g id="edge1" class="edge">
<title>function&#45;3&#45;ImmVal:s&#45;&gt;primitive&#45;i64&#45;76</title>
<path fill="none" stroke="black" d="M45,-253C45,-239.84 45,-225.11 45,-213.3"/>
<polygon fill="black" stroke="black" points="46.75,-216 45,-211 43.25,-216 46.75,-216"/>
</g>
<!-- function&#45;5&#45;ImmVal&#45;&gt;primitive&#45;i64&#45;0 -->
<g id="edge2" class="edge">
<title>function&#45;5&#45;ImmVal:s&#45;&gt;primitive&#45;i64&#45;0</title>
<path fill="none" stroke="black" d="M679,-253C679,-239.83 678.54,-225.1 678.07,-213.3"/>
<polygon fill="black" stroke="black" points="680.06,-215.81 677.85,-211 676.58,-216.14 680.06,-215.81"/>
</g>
<!-- function&#45;0&#45;ImmVal&#45;&gt;primitive&#45;i64&#45;2147483649 -->
<g id="edge3" class="edge">
<title>function&#45;0&#45;ImmVal:s&#45;&gt;primitive&#45;i64&#45;2147483649</title>
<path fill="none" stroke="black" d="M184,-174C184,-160.84 184,-146.11 184,-134.3"/>
<polygon fill="black" stroke="black" points="185.75,-137 184,-132 182.25,-137 185.75,-137"/>
</g>
<!-- function&#45;2&#45;ImmVal&#45;&gt;primitive&#45;i64&#45;2 -->
<g id="edge4" class="edge">
<title>function&#45;2&#45;ImmVal:s&#45;&gt;primitive&#45;i64&#45;2</title>
<path fill="none" stroke="black" d="M1039,-174C1039,-160.84 1039,-146.11 1039,-134.3"/>
<polygon fill="black" stroke="black" points="1040.75,-137 1039,-132 1037.25,-137 1040.75,-137"/>
</g>
<!-- function&#45;4&#45;ImmVal&#45;&gt;primitive&#45;i64&#45;72 -->
<g id="edge5" class="edge">
<title>function&#45;4&#45;ImmVal:s&#45;&gt;primitive&#45;i64&#45;72</title>
<path fill="none" stroke="black" d="M535,-253C535,-239.84 535,-225.11 535,-213.3"/>
<polygon fill="black" stroke="black" points="536.75,-216 535,-211 533.25,-216 536.75,-216"/>
</g>
<!-- function&#45;7&#45;ImmVal&#45;&gt;primitive&#45;i64&#45;1807 -->
<g id="edge6" class="edge">
<title>function&#45;7&#45;ImmVal:s&#45;&gt;primitive&#45;i64&#45;1807</title>
<path fill="none" stroke="black" d="M969,-253C969,-239.84 969,-225.11 969,-213.3"/>
<polygon fill="black" stroke="black" points="970.75,-216 969,-211 967.25,-216 970.75,-216"/>
</g>
<!-- function&#45;1&#45;ImmVal&#45;&gt;primitive&#45;i64&#45;52 -->
<g id="edge7" class="edge">
<title>function&#45;1&#45;ImmVal:s&#45;&gt;primitive&#45;i64&#45;52</title>
<path fill="none" stroke="black" d="M321,-253C321,-239.82 321.68,-225.09 322.4,-213.29"/>
<polygon fill="black" stroke="black" points="323.75,-216.2 322.73,-211 320.29,-215.7 323.75,-216.2"/>
</g>
<!-- function&#45;0&#45;ImmLabel&#45;&gt;primitive&#45;String&#45;6 -->
<g id="edge8" class="edge">
<title>function&#45;0&#45;ImmLabel:s&#45;&gt;primitive&#45;String&#45;6</title>
<path fill="none" stroke="black" d="M722,-95C722,-81.84 722,-67.11 722,-55.3"/>
<polygon fill="black" stroke="black" points="723.75,-58 722,-53 720.25,-58 723.75,-58"/>
</g>
<!-- function&#45;1&#45;ImmLabel&#45;&gt;primitive&#45;String&#45;7 -->
<g id="edge9" class="edge">
<title>function&#45;1&#45;ImmLabel:s&#45;&gt;primitive&#45;String&#45;7</title>
<path fill="none" stroke="black" d="M822,-174C822,-160.11 826.97,-145.42 832.18,-133.83"/>
<polygon fill="black" stroke="black" points="832.07,-137.12 833.41,-132 829.17,-135.17 832.07,-137.12"/>
</g>
<!-- function&#45;6&#45;ImmVal&#45;&gt;primitive&#45;i64&#45;800 -->
<g id="edge10" class="edge">
<title>function&#45;6&#45;ImmVal:s&#45;&gt;primitive&#45;i64&#45;800</title>
<path fill="none" stroke="black" d="M874,-253C874,-238.86 879.66,-224.14 885.6,-212.59"/>
<polygon fill="black" stroke="black" points="885.03,-215.93 886.96,-211 882.38,-213.65 885.03,-215.93"/>
</g>
<!-- function&#45;3&#45;RegVal&#45;&gt;primitive&#45;String&#45;4 -->
<g id="edge11" class="edge">
<title>function&#45;3&#45;RegVal:s&#45;&gt;primitive&#45;String&#45;4</title>
<path fill="none" stroke="black" d="M394,-253C394,-239.84 394,-225.11 394,-213.3"/>
<polygon fill="black" stroke="black" points="395.75,-216 394,-211 392.25,-216 395.75,-216"/>
</g>
<!-- function&#45;0&#45;Sw&#45;&gt;function&#45;1&#45;ImmVal -->
<g id="edge14" class="edge">
<title>function&#45;0&#45;Sw:s&#45;&gt;function&#45;1&#45;ImmVal</title>
<path fill="none" stroke="black" d="M321,-332C321,-318.84 321,-304.11 321,-292.3"/>
<polygon fill="black" stroke="black" points="322.75,-295 321,-290 319.25,-295 322.75,-295"/>
</g>
<!-- function&#45;0&#45;Sw&#45;&gt;function&#45;3&#45;RegVal -->
<g id="edge13" class="edge">
<title>function&#45;0&#45;Sw:s&#45;&gt;function&#45;3&#45;RegVal</title>
<path fill="none" stroke="black" d="M314,-332C314,-325.52 340.67,-305.64 363.02,-290.12"/>
<polygon fill="black" stroke="black" points="359.34,-292.26 364.13,-290 358.98,-288.78 359.34,-292.26"/>
</g>
<!-- function&#45;0&#45;Sw&#45;&gt;function&#45;0&#45;Addi -->
<g id="edge12" class="edge">
<title>function&#45;0&#45;Sw:s&#45;&gt;function&#45;0&#45;Addi</title>
<path fill="none" stroke="black" d="M302,-332C302,-315.72 291.38,-301.39 279.84,-290.62"/>
<polygon fill="black" stroke="black" points="284.04,-291.3 278.9,-290 282.11,-294.22 284.04,-291.3"/>
</g>
<!-- function&#45;0&#45;Addi&#45;&gt;function&#45;0&#45;ImmVal -->
<g id="edge16" class="edge">
<title>function&#45;0&#45;Addi:s&#45;&gt;function&#45;0&#45;ImmVal</title>
<path fill="none" stroke="black" d="M261,-253C261,-241.99 241.66,-226.44 222.36,-213.67"/>
<polygon fill="black" stroke="black" points="223.14,-212.09 218,-210.83 221.23,-215.02 223.14,-212.09"/>
</g>
<!-- function&#45;0&#45;Addi&#45;&gt;function&#45;4&#45;RegVal -->
<g id="edge15" class="edge">
<title>function&#45;0&#45;Addi:s&#45;&gt;function&#45;4&#45;RegVal</title>
<path fill="none" stroke="black" d="M241,-253C241,-239.43 244.43,-224.65 248.02,-212.93"/>
<polygon fill="black" stroke="black" points="247.81,-216 249.55,-211 245.07,-213.82 247.81,-216"/>
</g>
<!-- function&#45;4&#45;RegVal&#45;&gt;primitive&#45;String&#45;5 -->
<g id="edge19" class="edge">
<title>function&#45;4&#45;RegVal:s&#45;&gt;primitive&#45;String&#45;5</title>
<path fill="none" stroke="black" d="M257,-174C257,-160.84 257,-146.11 257,-134.3"/>
<polygon fill="black" stroke="black" points="258.75,-137 257,-132 255.25,-137 258.75,-137"/>
</g>
<!-- function&#45;1&#45;RegVal&#45;&gt;primitive&#45;String&#45;2 -->
<g id="edge17" class="edge">
<title>function&#45;1&#45;RegVal:s&#45;&gt;primitive&#45;String&#45;2</title>
<path fill="none" stroke="black" d="M118,-253C118,-239.81 117.09,-225.08 116.13,-213.28"/>
<polygon fill="black" stroke="black" points="118.36,-215.58 115.7,-211 114.92,-216.24 118.36,-215.58"/>
</g>
<!-- function&#45;2&#45;RegVal&#45;&gt;primitive&#45;String&#45;3 -->
<g id="edge18" class="edge">
<title>function&#45;2&#45;RegVal:s&#45;&gt;primitive&#45;String&#45;3</title>
<path fill="none" stroke="black" d="M464,-253C464,-239.84 464,-225.11 464,-213.3"/>
<polygon fill="black" stroke="black" points="465.75,-216 464,-211 462.25,-216 465.75,-216"/>
</g>
<!-- function&#45;3&#45;Addi&#45;&gt;function&#45;6&#45;ImmVal -->
<g id="edge21" class="edge">
<title>function&#45;3&#45;Addi:s&#45;&gt;function&#45;6&#45;ImmVal</title>
<path fill="none" stroke="black" d="M838,-332C838,-317.03 845.94,-302.45 854.36,-291.19"/>
<polygon fill="black" stroke="black" points="853.34,-294.85 855.48,-290 850.78,-292.46 853.34,-294.85"/>
</g>
<!-- function&#45;3&#45;Addi&#45;&gt;function&#45;1&#45;Addi -->
<g id="edge20" class="edge">
<title>function&#45;3&#45;Addi:s&#45;&gt;function&#45;1&#45;Addi</title>
<path fill="none" stroke="black" d="M818,-332C818,-317.03 810.06,-302.45 801.64,-291.19"/>
<polygon fill="black" stroke="black" points="805.22,-292.46 800.52,-290 802.66,-294.85 805.22,-292.46"/>
</g>
<!-- function&#45;1&#45;Addi&#45;&gt;function&#45;1&#45;ImmLabel -->
<g id="edge30" class="edge">
<title>function&#45;1&#45;Addi:s&#45;&gt;function&#45;1&#45;ImmLabel</title>
<path fill="none" stroke="black" d="M792,-253C792,-238.63 798.47,-224 805.3,-212.56"/>
<polygon fill="black" stroke="black" points="804.49,-215.65 807.03,-211 802.15,-213.06 804.49,-215.65"/>
</g>
<!-- function&#45;1&#45;Addi&#45;&gt;function&#45;0&#45;Lui -->
<g id="edge29" class="edge">
<title>function&#45;1&#45;Addi:s&#45;&gt;function&#45;0&#45;Lui</title>
<path fill="none" stroke="black" d="M772,-253C772,-238.63 765.53,-224 758.7,-212.56"/>
<polygon fill="black" stroke="black" points="761.85,-213.06 756.97,-211 759.51,-215.65 761.85,-213.06"/>
</g>
<!-- function&#45;0&#45;Lui&#45;&gt;function&#45;0&#45;ImmLabel -->
<g id="edge22" class="edge">
<title>function&#45;0&#45;Lui:s&#45;&gt;function&#45;0&#45;ImmLabel</title>
<path fill="none" stroke="black" d="M743,-174C743,-160.11 738.03,-145.42 732.82,-133.83"/>
<polygon fill="black" stroke="black" points="735.83,-135.17 731.59,-132 732.93,-137.12 735.83,-135.17"/>
</g>
<!-- function&#45;2&#45;Sw&#45;&gt;function&#45;4&#45;ImmVal -->
<g id="edge25" class="edge">
<title>function&#45;2&#45;Sw:s&#45;&gt;function&#45;4&#45;ImmVal</title>
<path fill="none" stroke="black" d="M470,-332C470,-321.22 488.97,-303.99 506.41,-290.43"/>
<polygon fill="black" stroke="black" points="503.54,-293.16 507.8,-290 502.5,-289.82 503.54,-293.16"/>
</g>
<!-- function&#45;2&#45;Sw&#45;&gt;function&#45;0&#45;Addi -->
<g id="edge23" class="edge">
<title>function&#45;2&#45;Sw:s&#45;&gt;function&#45;0&#45;Addi</title>
<path fill="none" stroke="black" d="M451,-332C451,-256.65 355.21,-322.81 286,-293 285.48,-292.78 284.96,-292.55 284.44,-292.31"/>
<polygon fill="black" stroke="black" points="285.04,-290.65 279.78,-290 283.48,-293.79 285.04,-290.65"/>
</g>
<!-- function&#45;2&#45;Sw&#45;&gt;function&#45;2&#45;RegVal -->
<g id="edge24" class="edge">
<title>function&#45;2&#45;Sw:s&#45;&gt;function&#45;2&#45;RegVal</title>
<path fill="none" stroke="black" d="M463,-332C463,-318.84 463,-304.11 463,-292.3"/>
<polygon fill="black" stroke="black" points="464.75,-295 463,-290 461.25,-295 464.75,-295"/>
</g>
<!-- function&#45;1&#45;Sw&#45;&gt;function&#45;3&#45;ImmVal -->
<g id="edge28" class="edge">
<title>function&#45;1&#45;Sw:s&#45;&gt;function&#45;3&#45;ImmVal</title>
<path fill="none" stroke="black" d="M124,-332C124,-325.52 97.33,-305.64 74.98,-290.12"/>
<polygon fill="black" stroke="black" points="79.02,-288.78 73.87,-290 78.66,-292.26 79.02,-288.78"/>
</g>
<!-- function&#45;1&#45;Sw&#45;&gt;function&#45;0&#45;Addi -->
<g id="edge26" class="edge">
<title>function&#45;1&#45;Sw:s&#45;&gt;function&#45;0&#45;Addi</title>
<path fill="none" stroke="black" d="M105,-332C105,-307.46 175.79,-287.03 218.78,-276.89"/>
<polygon fill="black" stroke="black" points="217.41,-279.61 221,-275.71 215.77,-276.52 217.41,-279.61"/>
</g>
<!-- function&#45;1&#45;Sw&#45;&gt;function&#45;1&#45;RegVal -->
<g id="edge27" class="edge">
<title>function&#45;1&#45;Sw:s&#45;&gt;function&#45;1&#45;RegVal</title>
<path fill="none" stroke="black" d="M117,-332C117,-318.84 117,-304.11 117,-292.3"/>
<polygon fill="black" stroke="black" points="118.75,-295 117,-290 115.25,-295 118.75,-295"/>
</g>
<!-- function&#45;2&#45;Addi&#45;&gt;function&#45;5&#45;ImmVal -->
<g id="edge32" class="edge">
<title>function&#45;2&#45;Addi:s&#45;&gt;function&#45;5&#45;ImmVal</title>
<path fill="none" stroke="black" d="M638,-332C638,-316.6 646.91,-302.08 656.42,-290.97"/>
<polygon fill="black" stroke="black" points="654.68,-294.17 657.94,-290 652.79,-291.23 654.68,-294.17"/>
</g>
<!-- function&#45;2&#45;Addi&#45;&gt;function&#45;0&#45;RegVal -->
<g id="edge31" class="edge">
<title>function&#45;2&#45;Addi:s&#45;&gt;function&#45;0&#45;RegVal</title>
<path fill="none" stroke="black" d="M618,-332C618,-318.73 615.53,-304.1 612.92,-292.39"/>
<polygon fill="black" stroke="black" points="615.53,-293.69 611.73,-290 612.4,-295.25 615.53,-293.69"/>
</g>
<!-- function&#45;0&#45;RegVal&#45;&gt;primitive&#45;String&#45;1 -->
<g id="edge38" class="edge">
<title>function&#45;0&#45;RegVal:s&#45;&gt;primitive&#45;String&#45;1</title>
<path fill="none" stroke="black" d="M608,-253C608,-239.84 608,-225.11 608,-213.3"/>
<polygon fill="black" stroke="black" points="609.75,-216 608,-211 606.25,-216 609.75,-216"/>
</g>
<!-- function&#45;4&#45;Addi&#45;&gt;function&#45;5&#45;ImmVal -->
<g id="edge34" class="edge">
<title>function&#45;4&#45;Addi:s&#45;&gt;function&#45;5&#45;ImmVal</title>
<path fill="none" stroke="black" d="M751,-332C751,-310.86 732.96,-295.35 714.94,-285.13"/>
<polygon fill="black" stroke="black" points="718.03,-285.29 713,-283.65 715.91,-288.07 718.03,-285.29"/>
</g>
<!-- function&#45;4&#45;Addi&#45;&gt;function&#45;1&#45;Addi -->
<g id="edge33" class="edge">
<title>function&#45;4&#45;Addi:s&#45;&gt;function&#45;1&#45;Addi</title>
<path fill="none" stroke="black" d="M731,-332C731,-315.72 741.62,-301.39 753.16,-290.62"/>
<polygon fill="black" stroke="black" points="750.89,-294.22 754.1,-290 748.96,-291.3 750.89,-294.22"/>
</g>
<!-- function&#45;1&#45;Lui&#45;&gt;function&#45;2&#45;ImmVal -->
<g id="edge35" class="edge">
<title>function&#45;1&#45;Lui:s&#45;&gt;function&#45;2&#45;ImmVal</title>
<path fill="none" stroke="black" d="M1039,-253C1039,-239.84 1039,-225.11 1039,-213.3"/>
<polygon fill="black" stroke="black" points="1040.75,-216 1039,-211 1037.25,-216 1040.75,-216"/>
</g>
<!-- function&#45;5&#45;Addi&#45;&gt;function&#45;7&#45;ImmVal -->
<g id="edge37" class="edge">
<title>function&#45;5&#45;Addi:s&#45;&gt;function&#45;7&#45;ImmVal</title>
<path fill="none" stroke="black" d="M1011,-332C1011,-316.6 1002.01,-302.18 992.35,-291.12"/>
<polygon fill="black" stroke="black" points="995.86,-291.48 990.77,-290 993.82,-294.33 995.86,-291.48"/>
</g>
<!-- function&#45;5&#45;Addi&#45;&gt;function&#45;1&#45;Lui -->
<g id="edge36" class="edge">
<title>function&#45;5&#45;Addi:s&#45;&gt;function&#45;1&#45;Lui</title>
<path fill="none" stroke="black" d="M991,-332C991,-315.98 1001.15,-301.58 1012.11,-290.71"/>
<polygon fill="black" stroke="black" points="1009.87,-293.51 1013.84,-290 1008.55,-290.26 1009.87,-293.51"/>
</g>
<!-- function&#45;3&#45;ImmVal -->
<g id="node1" class="node">
<title>function&#45;3&#45;ImmVal</title>
<g id="a_node1"><a xlink:title="Imm&#45;15: function&#45;3&#45;ImmVal">
<path fill="white" stroke="transparent" d="M24.67,-253C24.67,-253 65.33,-253 65.33,-253 70.67,-253 76,-258.33 76,-263.67 76,-263.67 76,-274.33 76,-274.33 76,-279.67 70.67,-285 65.33,-285 65.33,-285 24.67,-285 24.67,-285 19.33,-285 14,-279.67 14,-274.33 14,-274.33 14,-263.67 14,-263.67 14,-258.33 19.33,-253 24.67,-253"/>
<text text-anchor="start" x="19" y="-265.3" font-family="Helvetica,sans-Serif" font-size="14.00">ImmVal</text>
<path fill="none" stroke="black" d="M24.67,-253C24.67,-253 65.33,-253 65.33,-253 70.67,-253 76,-258.33 76,-263.67 76,-263.67 76,-274.33 76,-274.33 76,-279.67 70.67,-285 65.33,-285 65.33,-285 24.67,-285 24.67,-285 19.33,-285 14,-279.67 14,-274.33 14,-274.33 14,-263.67 14,-263.67 14,-258.33 19.33,-253 24.67,-253"/>
</a>
</g>
</g>
<!-- primitive&#45;i64&#45;76 -->
<g id="node2" class="node">
<title>primitive&#45;i64&#45;76</title>
<g id="a_node2"><a xlink:title="i64&#45;76: primitive&#45;i64&#45;76">
<path fill="white" stroke="transparent" d="M39.67,-174C39.67,-174 50.33,-174 50.33,-174 55.67,-174 61,-179.33 61,-184.67 61,-184.67 61,-195.33 61,-195.33 61,-200.67 55.67,-206 50.33,-206 50.33,-206 39.67,-206 39.67,-206 34.33,-206 29,-200.67 29,-195.33 29,-195.33 29,-184.67 29,-184.67 29,-179.33 34.33,-174 39.67,-174"/>
<text text-anchor="start" x="35.5" y="-186.3" font-family="Helvetica,sans-Serif" font-size="14.00">76</text>
<path fill="none" stroke="black" d="M39.67,-174C39.67,-174 50.33,-174 50.33,-174 55.67,-174 61,-179.33 61,-184.67 61,-184.67 61,-195.33 61,-195.33 61,-200.67 55.67,-206 50.33,-206 50.33,-206 39.67,-206 39.67,-206 34.33,-206 29,-200.67 29,-195.33 29,-195.33 29,-184.67 29,-184.67 29,-179.33 34.33,-174 39.67,-174"/>
</a>
</g>
</g>
<!-- function&#45;5&#45;ImmVal -->
<g id="node3" class="node">
<title>function&#45;5&#45;ImmVal</title>
<g id="a_node3"><a xlink:title="Imm&#45;19: function&#45;5&#45;ImmVal">
<path fill="white" stroke="transparent" d="M658.67,-253C658.67,-253 699.33,-253 699.33,-253 704.67,-253 710,-258.33 710,-263.67 710,-263.67 710,-274.33 710,-274.33 710,-279.67 704.67,-285 699.33,-285 699.33,-285 658.67,-285 658.67,-285 653.33,-285 648,-279.67 648,-274.33 648,-274.33 648,-263.67 648,-263.67 648,-258.33 653.33,-253 658.67,-253"/>
<text text-anchor="start" x="653" y="-265.3" font-family="Helvetica,sans-Serif" font-size="14.00">ImmVal</text>
<path fill="none" stroke="black" d="M658.67,-253C658.67,-253 699.33,-253 699.33,-253 704.67,-253 710,-258.33 710,-263.67 710,-263.67 710,-274.33 710,-274.33 710,-279.67 704.67,-285 699.33,-285 699.33,-285 658.67,-285 658.67,-285 653.33,-285 648,-279.67 648,-274.33 648,-274.33 648,-263.67 648,-263.67 648,-258.33 653.33,-253 658.67,-253"/>
</a>
</g>
</g>
<!-- primitive&#45;i64&#45;0 -->
<g id="node4" class="node">
<title>primitive&#45;i64&#45;0</title>
<g id="a_node4"><a xlink:title="i64&#45;0: primitive&#45;i64&#45;0">
<path fill="white" stroke="transparent" d="M671.67,-174C671.67,-174 682.33,-174 682.33,-174 687.67,-174 693,-179.33 693,-184.67 693,-184.67 693,-195.33 693,-195.33 693,-200.67 687.67,-206 682.33,-206 682.33,-206 671.67,-206 671.67,-206 666.33,-206 661,-200.67 661,-195.33 661,-195.33 661,-184.67 661,-184.67 661,-179.33 666.33,-174 671.67,-174"/>
<text text-anchor="start" x="672" y="-186.3" font-family="Helvetica,sans-Serif" font-size="14.00">0</text>
<path fill="none" stroke="black" d="M671.67,-174C671.67,-174 682.33,-174 682.33,-174 687.67,-174 693,-179.33 693,-184.67 693,-184.67 693,-195.33 693,-195.33 693,-200.67 687.67,-206 682.33,-206 682.33,-206 671.67,-206 671.67,-206 666.33,-206 661,-200.67 661,-195.33 661,-195.33 661,-184.67 661,-184.67 661,-179.33 666.33,-174 671.67,-174"/>
</a>
</g>
</g>
<!-- function&#45;0&#45;ImmVal -->
<g id="node5" class="node">
<title>function&#45;0&#45;ImmVal</title>
<g id="a_node5"><a xlink:title="Imm&#45;5: function&#45;0&#45;ImmVal">
<path fill="white" stroke="transparent" d="M163.67,-174C163.67,-174 204.33,-174 204.33,-174 209.67,-174 215,-179.33 215,-184.67 215,-184.67 215,-195.33 215,-195.33 215,-200.67 209.67,-206 204.33,-206 204.33,-206 163.67,-206 163.67,-206 158.33,-206 153,-200.67 153,-195.33 153,-195.33 153,-184.67 153,-184.67 153,-179.33 158.33,-174 163.67,-174"/>
<text text-anchor="start" x="158" y="-186.3" font-family="Helvetica,sans-Serif" font-size="14.00">ImmVal</text>
<path fill="none" stroke="black" d="M163.67,-174C163.67,-174 204.33,-174 204.33,-174 209.67,-174 215,-179.33 215,-184.67 215,-184.67 215,-195.33 215,-195.33 215,-200.67 209.67,-206 204.33,-206 204.33,-206 163.67,-206 163.67,-206 158.33,-206 153,-200.67 153,-195.33 153,-195.33 153,-184.67 153,-184.67 153,-179.33 158.33,-174 163.67,-174"/>
</a>
</g>
</g>
<!-- primitive&#45;i64&#45;2147483649 -->
<g id="node6" class="node">
<title>primitive&#45;i64&#45;2147483649</title>
<g id="a_node6"><a xlink:title="i64&#45;2147483649: primitive&#45;i64&#45;2147483649">
<path fill="white" stroke="transparent" d="M177.67,-95C177.67,-95 190.33,-95 190.33,-95 195.67,-95 201,-100.33 201,-105.67 201,-105.67 201,-116.33 201,-116.33 201,-121.67 195.67,-127 190.33,-127 190.33,-127 177.67,-127 177.67,-127 172.33,-127 167,-121.67 167,-116.33 167,-116.33 167,-105.67 167,-105.67 167,-100.33 172.33,-95 177.67,-95"/>
<text text-anchor="start" x="172" y="-107.3" font-family="Helvetica,sans-Serif" font-size="14.00">&#45;80</text>
<path fill="none" stroke="black" d="M177.67,-95C177.67,-95 190.33,-95 190.33,-95 195.67,-95 201,-100.33 201,-105.67 201,-105.67 201,-116.33 201,-116.33 201,-121.67 195.67,-127 190.33,-127 190.33,-127 177.67,-127 177.67,-127 172.33,-127 167,-121.67 167,-116.33 167,-116.33 167,-105.67 167,-105.67 167,-100.33 172.33,-95 177.67,-95"/>
</a>
</g>
</g>
<!-- function&#45;2&#45;ImmVal -->
<g id="node7" class="node">
<title>function&#45;2&#45;ImmVal</title>
<g id="a_node7"><a xlink:title="Imm&#45;13: function&#45;2&#45;ImmVal">
<path fill="white" stroke="transparent" d="M1018.67,-174C1018.67,-174 1059.33,-174 1059.33,-174 1064.67,-174 1070,-179.33 1070,-184.67 1070,-184.67 1070,-195.33 1070,-195.33 1070,-200.67 1064.67,-206 1059.33,-206 1059.33,-206 1018.67,-206 1018.67,-206 1013.33,-206 1008,-200.67 1008,-195.33 1008,-195.33 1008,-184.67 1008,-184.67 1008,-179.33 1013.33,-174 1018.67,-174"/>
<text text-anchor="start" x="1013" y="-186.3" font-family="Helvetica,sans-Serif" font-size="14.00">ImmVal</text>
<path fill="none" stroke="black" d="M1018.67,-174C1018.67,-174 1059.33,-174 1059.33,-174 1064.67,-174 1070,-179.33 1070,-184.67 1070,-184.67 1070,-195.33 1070,-195.33 1070,-200.67 1064.67,-206 1059.33,-206 1059.33,-206 1018.67,-206 1018.67,-206 1013.33,-206 1008,-200.67 1008,-195.33 1008,-195.33 1008,-184.67 1008,-184.67 1008,-179.33 1013.33,-174 1018.67,-174"/>
</a>
</g>
</g>
<!-- primitive&#45;i64&#45;2 -->
<g id="node8" class="node">
<title>primitive&#45;i64&#45;2</title>
<g id="a_node8"><a xlink:title="i64&#45;2: primitive&#45;i64&#45;2">
<path fill="white" stroke="transparent" d="M1033.67,-95C1033.67,-95 1044.33,-95 1044.33,-95 1049.67,-95 1055,-100.33 1055,-105.67 1055,-105.67 1055,-116.33 1055,-116.33 1055,-121.67 1049.67,-127 1044.33,-127 1044.33,-127 1033.67,-127 1033.67,-127 1028.33,-127 1023,-121.67 1023,-116.33 1023,-116.33 1023,-105.67 1023,-105.67 1023,-100.33 1028.33,-95 1033.67,-95"/>
<text text-anchor="start" x="1034" y="-107.3" font-family="Helvetica,sans-Serif" font-size="14.00">2</text>
<path fill="none" stroke="black" d="M1033.67,-95C1033.67,-95 1044.33,-95 1044.33,-95 1049.67,-95 1055,-100.33 1055,-105.67 1055,-105.67 1055,-116.33 1055,-116.33 1055,-121.67 1049.67,-127 1044.33,-127 1044.33,-127 1033.67,-127 1033.67,-127 1028.33,-127 1023,-121.67 1023,-116.33 1023,-116.33 1023,-105.67 1023,-105.67 1023,-100.33 1028.33,-95 1033.67,-95"/>
</a>
</g>
</g>
<!-- function&#45;4&#45;ImmVal -->
<g id="node9" class="node">
<title>function&#45;4&#45;ImmVal</title>
<g id="a_node9"><a xlink:title="Imm&#45;17: function&#45;4&#45;ImmVal">
<path fill="white" stroke="transparent" d="M514.67,-253C514.67,-253 555.33,-253 555.33,-253 560.67,-253 566,-258.33 566,-263.67 566,-263.67 566,-274.33 566,-274.33 566,-279.67 560.67,-285 555.33,-285 555.33,-285 514.67,-285 514.67,-285 509.33,-285 504,-279.67 504,-274.33 504,-274.33 504,-263.67 504,-263.67 504,-258.33 509.33,-253 514.67,-253"/>
<text text-anchor="start" x="509" y="-265.3" font-family="Helvetica,sans-Serif" font-size="14.00">ImmVal</text>
<path fill="none" stroke="black" d="M514.67,-253C514.67,-253 555.33,-253 555.33,-253 560.67,-253 566,-258.33 566,-263.67 566,-263.67 566,-274.33 566,-274.33 566,-279.67 560.67,-285 555.33,-285 555.33,-285 514.67,-285 514.67,-285 509.33,-285 504,-279.67 504,-274.33 504,-274.33 504,-263.67 504,-263.67 504,-258.33 509.33,-253 514.67,-253"/>
</a>
</g>
</g>
<!-- primitive&#45;i64&#45;72 -->
<g id="node10" class="node">
<title>primitive&#45;i64&#45;72</title>
<g id="a_node10"><a xlink:title="i64&#45;72: primitive&#45;i64&#45;72">
<path fill="white" stroke="transparent" d="M529.67,-174C529.67,-174 540.33,-174 540.33,-174 545.67,-174 551,-179.33 551,-184.67 551,-184.67 551,-195.33 551,-195.33 551,-200.67 545.67,-206 540.33,-206 540.33,-206 529.67,-206 529.67,-206 524.33,-206 519,-200.67 519,-195.33 519,-195.33 519,-184.67 519,-184.67 519,-179.33 524.33,-174 529.67,-174"/>
<text text-anchor="start" x="525.5" y="-186.3" font-family="Helvetica,sans-Serif" font-size="14.00">72</text>
<path fill="none" stroke="black" d="M529.67,-174C529.67,-174 540.33,-174 540.33,-174 545.67,-174 551,-179.33 551,-184.67 551,-184.67 551,-195.33 551,-195.33 551,-200.67 545.67,-206 540.33,-206 540.33,-206 529.67,-206 529.67,-206 524.33,-206 519,-200.67 519,-195.33 519,-195.33 519,-184.67 519,-184.67 519,-179.33 524.33,-174 529.67,-174"/>
</a>
</g>
</g>
<!-- function&#45;7&#45;ImmVal -->
<g id="node11" class="node">
<title>function&#45;7&#45;ImmVal</title>
<g id="a_node11"><a xlink:title="Imm&#45;24: function&#45;7&#45;ImmVal">
<path fill="white" stroke="transparent" d="M948.67,-253C948.67,-253 989.33,-253 989.33,-253 994.67,-253 1000,-258.33 1000,-263.67 1000,-263.67 1000,-274.33 1000,-274.33 1000,-279.67 994.67,-285 989.33,-285 989.33,-285 948.67,-285 948.67,-285 943.33,-285 938,-279.67 938,-274.33 938,-274.33 938,-263.67 938,-263.67 938,-258.33 943.33,-253 948.67,-253"/>
<text text-anchor="start" x="943" y="-265.3" font-family="Helvetica,sans-Serif" font-size="14.00">ImmVal</text>
<path fill="none" stroke="black" d="M948.67,-253C948.67,-253 989.33,-253 989.33,-253 994.67,-253 1000,-258.33 1000,-263.67 1000,-263.67 1000,-274.33 1000,-274.33 1000,-279.67 994.67,-285 989.33,-285 989.33,-285 948.67,-285 948.67,-285 943.33,-285 938,-279.67 938,-274.33 938,-274.33 938,-263.67 938,-263.67 938,-258.33 943.33,-253 948.67,-253"/>
</a>
</g>
</g>
<!-- primitive&#45;i64&#45;1807 -->
<g id="node12" class="node">
<title>primitive&#45;i64&#45;1807</title>
<g id="a_node12"><a xlink:title="i64&#45;1807: primitive&#45;i64&#45;1807">
<path fill="white" stroke="transparent" d="M956.17,-174C956.17,-174 981.83,-174 981.83,-174 987.17,-174 992.5,-179.33 992.5,-184.67 992.5,-184.67 992.5,-195.33 992.5,-195.33 992.5,-200.67 987.17,-206 981.83,-206 981.83,-206 956.17,-206 956.17,-206 950.83,-206 945.5,-200.67 945.5,-195.33 945.5,-195.33 945.5,-184.67 945.5,-184.67 945.5,-179.33 950.83,-174 956.17,-174"/>
<text text-anchor="start" x="951" y="-186.3" font-family="Helvetica,sans-Serif" font-size="14.00">1807</text>
<path fill="none" stroke="black" d="M956.17,-174C956.17,-174 981.83,-174 981.83,-174 987.17,-174 992.5,-179.33 992.5,-184.67 992.5,-184.67 992.5,-195.33 992.5,-195.33 992.5,-200.67 987.17,-206 981.83,-206 981.83,-206 956.17,-206 956.17,-206 950.83,-206 945.5,-200.67 945.5,-195.33 945.5,-195.33 945.5,-184.67 945.5,-184.67 945.5,-179.33 950.83,-174 956.17,-174"/>
</a>
</g>
</g>
<!-- function&#45;1&#45;ImmVal -->
<g id="node13" class="node">
<title>function&#45;1&#45;ImmVal</title>
<g id="a_node13"><a xlink:title="Imm&#45;7: function&#45;1&#45;ImmVal">
<path fill="white" stroke="transparent" d="M300.67,-253C300.67,-253 341.33,-253 341.33,-253 346.67,-253 352,-258.33 352,-263.67 352,-263.67 352,-274.33 352,-274.33 352,-279.67 346.67,-285 341.33,-285 341.33,-285 300.67,-285 300.67,-285 295.33,-285 290,-279.67 290,-274.33 290,-274.33 290,-263.67 290,-263.67 290,-258.33 295.33,-253 300.67,-253"/>
<text text-anchor="start" x="295" y="-265.3" font-family="Helvetica,sans-Serif" font-size="14.00">ImmVal</text>
<path fill="none" stroke="black" d="M300.67,-253C300.67,-253 341.33,-253 341.33,-253 346.67,-253 352,-258.33 352,-263.67 352,-263.67 352,-274.33 352,-274.33 352,-279.67 346.67,-285 341.33,-285 341.33,-285 300.67,-285 300.67,-285 295.33,-285 290,-279.67 290,-274.33 290,-274.33 290,-263.67 290,-263.67 290,-258.33 295.33,-253 300.67,-253"/>
</a>
</g>
</g>
<!-- primitive&#45;i64&#45;52 -->
<g id="node14" class="node">
<title>primitive&#45;i64&#45;52</title>
<g id="a_node14"><a xlink:title="i64&#45;52: primitive&#45;i64&#45;52">
<path fill="white" stroke="transparent" d="M318.67,-174C318.67,-174 329.33,-174 329.33,-174 334.67,-174 340,-179.33 340,-184.67 340,-184.67 340,-195.33 340,-195.33 340,-200.67 334.67,-206 329.33,-206 329.33,-206 318.67,-206 318.67,-206 313.33,-206 308,-200.67 308,-195.33 308,-195.33 308,-184.67 308,-184.67 308,-179.33 313.33,-174 318.67,-174"/>
<text text-anchor="start" x="314.5" y="-186.3" font-family="Helvetica,sans-Serif" font-size="14.00">52</text>
<path fill="none" stroke="black" d="M318.67,-174C318.67,-174 329.33,-174 329.33,-174 334.67,-174 340,-179.33 340,-184.67 340,-184.67 340,-195.33 340,-195.33 340,-200.67 334.67,-206 329.33,-206 329.33,-206 318.67,-206 318.67,-206 313.33,-206 308,-200.67 308,-195.33 308,-195.33 308,-184.67 308,-184.67 308,-179.33 313.33,-174 318.67,-174"/>
</a>
</g>
</g>
<!-- function&#45;0&#45;ImmLabel -->
<g id="node15" class="node">
<title>function&#45;0&#45;ImmLabel</title>
<g id="a_node15"><a xlink:title="Imm&#45;9: function&#45;0&#45;ImmLabel">
<path fill="white" stroke="transparent" d="M692.17,-95C692.17,-95 749.83,-95 749.83,-95 755.17,-95 760.5,-100.33 760.5,-105.67 760.5,-105.67 760.5,-116.33 760.5,-116.33 760.5,-121.67 755.17,-127 749.83,-127 749.83,-127 692.17,-127 692.17,-127 686.83,-127 681.5,-121.67 681.5,-116.33 681.5,-116.33 681.5,-105.67 681.5,-105.67 681.5,-100.33 686.83,-95 692.17,-95"/>
<text text-anchor="start" x="687" y="-107.3" font-family="Helvetica,sans-Serif" font-size="14.00">ImmLabel</text>
<path fill="none" stroke="black" d="M692.17,-95C692.17,-95 749.83,-95 749.83,-95 755.17,-95 760.5,-100.33 760.5,-105.67 760.5,-105.67 760.5,-116.33 760.5,-116.33 760.5,-121.67 755.17,-127 749.83,-127 749.83,-127 692.17,-127 692.17,-127 686.83,-127 681.5,-121.67 681.5,-116.33 681.5,-116.33 681.5,-105.67 681.5,-105.67 681.5,-100.33 686.83,-95 692.17,-95"/>
</a>
</g>
</g>
<!-- primitive&#45;String&#45;6 -->
<g id="node16" class="node">
<title>primitive&#45;String&#45;6</title>
<g id="a_node16"><a xlink:title="String&#45;6: primitive&#45;String&#45;6">
<path fill="white" stroke="transparent" d="M660.67,-16C660.67,-16 783.33,-16 783.33,-16 788.67,-16 794,-21.33 794,-26.67 794,-26.67 794,-37.33 794,-37.33 794,-42.67 788.67,-48 783.33,-48 783.33,-48 660.67,-48 660.67,-48 655.33,-48 650,-42.67 650,-37.33 650,-37.33 650,-26.67 650,-26.67 650,-21.33 655.33,-16 660.67,-16"/>
<text text-anchor="start" x="655" y="-28.3" font-family="Helvetica,sans-Serif" font-size="14.00">&quot;%hi(.LANCHOR0)&quot;</text>
<path fill="none" stroke="black" d="M660.67,-16C660.67,-16 783.33,-16 783.33,-16 788.67,-16 794,-21.33 794,-26.67 794,-26.67 794,-37.33 794,-37.33 794,-42.67 788.67,-48 783.33,-48 783.33,-48 660.67,-48 660.67,-48 655.33,-48 650,-42.67 650,-37.33 650,-37.33 650,-26.67 650,-26.67 650,-21.33 655.33,-16 660.67,-16"/>
</a>
</g>
</g>
<!-- function&#45;1&#45;ImmLabel -->
<g id="node17" class="node">
<title>function&#45;1&#45;ImmLabel</title>
<g id="a_node17"><a xlink:title="Imm&#45;11: function&#45;1&#45;ImmLabel">
<path fill="white" stroke="transparent" d="M792.17,-174C792.17,-174 849.83,-174 849.83,-174 855.17,-174 860.5,-179.33 860.5,-184.67 860.5,-184.67 860.5,-195.33 860.5,-195.33 860.5,-200.67 855.17,-206 849.83,-206 849.83,-206 792.17,-206 792.17,-206 786.83,-206 781.5,-200.67 781.5,-195.33 781.5,-195.33 781.5,-184.67 781.5,-184.67 781.5,-179.33 786.83,-174 792.17,-174"/>
<text text-anchor="start" x="787" y="-186.3" font-family="Helvetica,sans-Serif" font-size="14.00">ImmLabel</text>
<path fill="none" stroke="black" d="M792.17,-174C792.17,-174 849.83,-174 849.83,-174 855.17,-174 860.5,-179.33 860.5,-184.67 860.5,-184.67 860.5,-195.33 860.5,-195.33 860.5,-200.67 855.17,-206 849.83,-206 849.83,-206 792.17,-206 792.17,-206 786.83,-206 781.5,-200.67 781.5,-195.33 781.5,-195.33 781.5,-184.67 781.5,-184.67 781.5,-179.33 786.83,-174 792.17,-174"/>
</a>
</g>
</g>
<!-- primitive&#45;String&#45;7 -->
<g id="node18" class="node">
<title>primitive&#45;String&#45;7</title>
<g id="a_node18"><a xlink:title="String&#45;7: primitive&#45;String&#45;7">
<path fill="white" stroke="transparent" d="M783.17,-95C783.17,-95 904.83,-95 904.83,-95 910.17,-95 915.5,-100.33 915.5,-105.67 915.5,-105.67 915.5,-116.33 915.5,-116.33 915.5,-121.67 910.17,-127 904.83,-127 904.83,-127 783.17,-127 783.17,-127 777.83,-127 772.5,-121.67 772.5,-116.33 772.5,-116.33 772.5,-105.67 772.5,-105.67 772.5,-100.33 777.83,-95 783.17,-95"/>
<text text-anchor="start" x="778" y="-107.3" font-family="Helvetica,sans-Serif" font-size="14.00">&quot;%lo(.LANCHOR0)&quot;</text>
<path fill="none" stroke="black" d="M783.17,-95C783.17,-95 904.83,-95 904.83,-95 910.17,-95 915.5,-100.33 915.5,-105.67 915.5,-105.67 915.5,-116.33 915.5,-116.33 915.5,-121.67 910.17,-127 904.83,-127 904.83,-127 783.17,-127 783.17,-127 777.83,-127 772.5,-121.67 772.5,-116.33 772.5,-116.33 772.5,-105.67 772.5,-105.67 772.5,-100.33 777.83,-95 783.17,-95"/>
</a>
</g>
</g>
<!-- function&#45;6&#45;ImmVal -->
<g id="node19" class="node">
<title>function&#45;6&#45;ImmVal</title>
<g id="a_node19"><a xlink:title="Imm&#45;21: function&#45;6&#45;ImmVal">
<path fill="white" stroke="transparent" d="M853.67,-253C853.67,-253 894.33,-253 894.33,-253 899.67,-253 905,-258.33 905,-263.67 905,-263.67 905,-274.33 905,-274.33 905,-279.67 899.67,-285 894.33,-285 894.33,-285 853.67,-285 853.67,-285 848.33,-285 843,-279.67 843,-274.33 843,-274.33 843,-263.67 843,-263.67 843,-258.33 848.33,-253 853.67,-253"/>
<text text-anchor="start" x="848" y="-265.3" font-family="Helvetica,sans-Serif" font-size="14.00">ImmVal</text>
<path fill="none" stroke="black" d="M853.67,-253C853.67,-253 894.33,-253 894.33,-253 899.67,-253 905,-258.33 905,-263.67 905,-263.67 905,-274.33 905,-274.33 905,-279.67 899.67,-285 894.33,-285 894.33,-285 853.67,-285 853.67,-285 848.33,-285 843,-279.67 843,-274.33 843,-274.33 843,-263.67 843,-263.67 843,-258.33 848.33,-253 853.67,-253"/>
</a>
</g>
</g>
<!-- primitive&#45;i64&#45;800 -->
<g id="node20" class="node">
<title>primitive&#45;i64&#45;800</title>
<g id="a_node20"><a xlink:title="i64&#45;800: primitive&#45;i64&#45;800">
<path fill="white" stroke="transparent" d="M890.67,-174C890.67,-174 907.33,-174 907.33,-174 912.67,-174 918,-179.33 918,-184.67 918,-184.67 918,-195.33 918,-195.33 918,-200.67 912.67,-206 907.33,-206 907.33,-206 890.67,-206 890.67,-206 885.33,-206 880,-200.67 880,-195.33 880,-195.33 880,-184.67 880,-184.67 880,-179.33 885.33,-174 890.67,-174"/>
<text text-anchor="start" x="885" y="-186.3" font-family="Helvetica,sans-Serif" font-size="14.00">800</text>
<path fill="none" stroke="black" d="M890.67,-174C890.67,-174 907.33,-174 907.33,-174 912.67,-174 918,-179.33 918,-184.67 918,-184.67 918,-195.33 918,-195.33 918,-200.67 912.67,-206 907.33,-206 907.33,-206 890.67,-206 890.67,-206 885.33,-206 880,-200.67 880,-195.33 880,-195.33 880,-184.67 880,-184.67 880,-179.33 885.33,-174 890.67,-174"/>
</a>
</g>
</g>
<!-- function&#45;3&#45;RegVal -->
<g id="node21" class="node">
<title>function&#45;3&#45;RegVal</title>
<g id="a_node21"><a xlink:title="Inst&#45;3: function&#45;3&#45;RegVal">
<path fill="white" stroke="transparent" d="M375.17,-253C375.17,-253 410.83,-253 410.83,-253 416.17,-253 421.5,-258.33 421.5,-263.67 421.5,-263.67 421.5,-274.33 421.5,-274.33 421.5,-279.67 416.17,-285 410.83,-285 410.83,-285 375.17,-285 375.17,-285 369.83,-285 364.5,-279.67 364.5,-274.33 364.5,-274.33 364.5,-263.67 364.5,-263.67 364.5,-258.33 369.83,-253 375.17,-253"/>
<text text-anchor="start" x="370" y="-265.3" font-family="Helvetica,sans-Serif" font-size="14.00">RegVal</text>
<path fill="none" stroke="black" d="M375.17,-253C375.17,-253 410.83,-253 410.83,-253 416.17,-253 421.5,-258.33 421.5,-263.67 421.5,-263.67 421.5,-274.33 421.5,-274.33 421.5,-279.67 416.17,-285 410.83,-285 410.83,-285 375.17,-285 375.17,-285 369.83,-285 364.5,-279.67 364.5,-274.33 364.5,-274.33 364.5,-263.67 364.5,-263.67 364.5,-258.33 369.83,-253 375.17,-253"/>
</a>
</g>
</g>
<!-- primitive&#45;String&#45;4 -->
<g id="node22" class="node">
<title>primitive&#45;String&#45;4</title>
<g id="a_node22"><a xlink:title="String&#45;4: primitive&#45;String&#45;4">
<path fill="white" stroke="transparent" d="M376.67,-174C376.67,-174 411.33,-174 411.33,-174 416.67,-174 422,-179.33 422,-184.67 422,-184.67 422,-195.33 422,-195.33 422,-200.67 416.67,-206 411.33,-206 411.33,-206 376.67,-206 376.67,-206 371.33,-206 366,-200.67 366,-195.33 366,-195.33 366,-184.67 366,-184.67 366,-179.33 371.33,-174 376.67,-174"/>
<text text-anchor="start" x="371" y="-186.3" font-family="Helvetica,sans-Serif" font-size="14.00">&quot;s5_0&quot;</text>
<path fill="none" stroke="black" d="M376.67,-174C376.67,-174 411.33,-174 411.33,-174 416.67,-174 422,-179.33 422,-184.67 422,-184.67 422,-195.33 422,-195.33 422,-200.67 416.67,-206 411.33,-206 411.33,-206 376.67,-206 376.67,-206 371.33,-206 366,-200.67 366,-195.33 366,-195.33 366,-184.67 366,-184.67 366,-179.33 371.33,-174 376.67,-174"/>
</a>
</g>
</g>
<!-- function&#45;0&#45;Sw -->
<g id="node23" class="node">
<title>function&#45;0&#45;Sw</title>
<g id="a_node23"><a xlink:title="Inst&#45;8: function&#45;0&#45;Sw">
<path fill="white" stroke="transparent" d="M304.67,-332C304.67,-332 315.33,-332 315.33,-332 320.67,-332 326,-337.33 326,-342.67 326,-342.67 326,-353.33 326,-353.33 326,-358.67 320.67,-364 315.33,-364 315.33,-364 304.67,-364 304.67,-364 299.33,-364 294,-358.67 294,-353.33 294,-353.33 294,-342.67 294,-342.67 294,-337.33 299.33,-332 304.67,-332"/>
<text text-anchor="start" x="299.5" y="-344.3" font-family="Helvetica,sans-Serif" font-size="14.00">Sw</text>
<path fill="none" stroke="black" d="M304.67,-332C304.67,-332 315.33,-332 315.33,-332 320.67,-332 326,-337.33 326,-342.67 326,-342.67 326,-353.33 326,-353.33 326,-358.67 320.67,-364 315.33,-364 315.33,-364 304.67,-364 304.67,-364 299.33,-364 294,-358.67 294,-353.33 294,-353.33 294,-342.67 294,-342.67 294,-337.33 299.33,-332 304.67,-332"/>
</a>
</g>
</g>
<!-- function&#45;0&#45;Addi -->
<g id="node24" class="node">
<title>function&#45;0&#45;Addi</title>
<g id="a_node24"><a xlink:title="Inst&#45;6: function&#45;0&#45;Addi">
<path fill="white" stroke="transparent" d="M241.17,-253C241.17,-253 260.83,-253 260.83,-253 266.17,-253 271.5,-258.33 271.5,-263.67 271.5,-263.67 271.5,-274.33 271.5,-274.33 271.5,-279.67 266.17,-285 260.83,-285 260.83,-285 241.17,-285 241.17,-285 235.83,-285 230.5,-279.67 230.5,-274.33 230.5,-274.33 230.5,-263.67 230.5,-263.67 230.5,-258.33 235.83,-253 241.17,-253"/>
<text text-anchor="start" x="236" y="-265.3" font-family="Helvetica,sans-Serif" font-size="14.00">Addi</text>
<path fill="none" stroke="black" d="M241.17,-253C241.17,-253 260.83,-253 260.83,-253 266.17,-253 271.5,-258.33 271.5,-263.67 271.5,-263.67 271.5,-274.33 271.5,-274.33 271.5,-279.67 266.17,-285 260.83,-285 260.83,-285 241.17,-285 241.17,-285 235.83,-285 230.5,-279.67 230.5,-274.33 230.5,-274.33 230.5,-263.67 230.5,-263.67 230.5,-258.33 235.83,-253 241.17,-253"/>
</a>
</g>
</g>
<!-- function&#45;4&#45;RegVal -->
<g id="node25" class="node">
<title>function&#45;4&#45;RegVal</title>
<g id="a_node25"><a xlink:title="Inst&#45;4: function&#45;4&#45;RegVal">
<path fill="white" stroke="transparent" d="M238.17,-174C238.17,-174 273.83,-174 273.83,-174 279.17,-174 284.5,-179.33 284.5,-184.67 284.5,-184.67 284.5,-195.33 284.5,-195.33 284.5,-200.67 279.17,-206 273.83,-206 273.83,-206 238.17,-206 238.17,-206 232.83,-206 227.5,-200.67 227.5,-195.33 227.5,-195.33 227.5,-184.67 227.5,-184.67 227.5,-179.33 232.83,-174 238.17,-174"/>
<text text-anchor="start" x="233" y="-186.3" font-family="Helvetica,sans-Serif" font-size="14.00">RegVal</text>
<path fill="none" stroke="black" d="M238.17,-174C238.17,-174 273.83,-174 273.83,-174 279.17,-174 284.5,-179.33 284.5,-184.67 284.5,-184.67 284.5,-195.33 284.5,-195.33 284.5,-200.67 279.17,-206 273.83,-206 273.83,-206 238.17,-206 238.17,-206 232.83,-206 227.5,-200.67 227.5,-195.33 227.5,-195.33 227.5,-184.67 227.5,-184.67 227.5,-179.33 232.83,-174 238.17,-174"/>
</a>
</g>
</g>
<!-- function&#45;1&#45;RegVal -->
<g id="node26" class="node">
<title>function&#45;1&#45;RegVal</title>
<g id="a_node26"><a xlink:title="Inst&#45;1: function&#45;1&#45;RegVal">
<path fill="white" stroke="transparent" d="M99.17,-253C99.17,-253 134.83,-253 134.83,-253 140.17,-253 145.5,-258.33 145.5,-263.67 145.5,-263.67 145.5,-274.33 145.5,-274.33 145.5,-279.67 140.17,-285 134.83,-285 134.83,-285 99.17,-285 99.17,-285 93.83,-285 88.5,-279.67 88.5,-274.33 88.5,-274.33 88.5,-263.67 88.5,-263.67 88.5,-258.33 93.83,-253 99.17,-253"/>
<text text-anchor="start" x="94" y="-265.3" font-family="Helvetica,sans-Serif" font-size="14.00">RegVal</text>
<path fill="none" stroke="black" d="M99.17,-253C99.17,-253 134.83,-253 134.83,-253 140.17,-253 145.5,-258.33 145.5,-263.67 145.5,-263.67 145.5,-274.33 145.5,-274.33 145.5,-279.67 140.17,-285 134.83,-285 134.83,-285 99.17,-285 99.17,-285 93.83,-285 88.5,-279.67 88.5,-274.33 88.5,-274.33 88.5,-263.67 88.5,-263.67 88.5,-258.33 93.83,-253 99.17,-253"/>
</a>
</g>
</g>
<!-- primitive&#45;String&#45;2 -->
<g id="node27" class="node">
<title>primitive&#45;String&#45;2</title>
<g id="a_node27"><a xlink:title="String&#45;2: primitive&#45;String&#45;2">
<path fill="white" stroke="transparent" d="M97.67,-174C97.67,-174 130.33,-174 130.33,-174 135.67,-174 141,-179.33 141,-184.67 141,-184.67 141,-195.33 141,-195.33 141,-200.67 135.67,-206 130.33,-206 130.33,-206 97.67,-206 97.67,-206 92.33,-206 87,-200.67 87,-195.33 87,-195.33 87,-184.67 87,-184.67 87,-179.33 92.33,-174 97.67,-174"/>
<text text-anchor="start" x="92" y="-186.3" font-family="Helvetica,sans-Serif" font-size="14.00">&quot;ra_0&quot;</text>
<path fill="none" stroke="black" d="M97.67,-174C97.67,-174 130.33,-174 130.33,-174 135.67,-174 141,-179.33 141,-184.67 141,-184.67 141,-195.33 141,-195.33 141,-200.67 135.67,-206 130.33,-206 130.33,-206 97.67,-206 97.67,-206 92.33,-206 87,-200.67 87,-195.33 87,-195.33 87,-184.67 87,-184.67 87,-179.33 92.33,-174 97.67,-174"/>
</a>
</g>
</g>
<!-- function&#45;2&#45;RegVal -->
<g id="node28" class="node">
<title>function&#45;2&#45;RegVal</title>
<g id="a_node28"><a xlink:title="Inst&#45;2: function&#45;2&#45;RegVal">
<path fill="white" stroke="transparent" d="M445.17,-253C445.17,-253 480.83,-253 480.83,-253 486.17,-253 491.5,-258.33 491.5,-263.67 491.5,-263.67 491.5,-274.33 491.5,-274.33 491.5,-279.67 486.17,-285 480.83,-285 480.83,-285 445.17,-285 445.17,-285 439.83,-285 434.5,-279.67 434.5,-274.33 434.5,-274.33 434.5,-263.67 434.5,-263.67 434.5,-258.33 439.83,-253 445.17,-253"/>
<text text-anchor="start" x="440" y="-265.3" font-family="Helvetica,sans-Serif" font-size="14.00">RegVal</text>
<path fill="none" stroke="black" d="M445.17,-253C445.17,-253 480.83,-253 480.83,-253 486.17,-253 491.5,-258.33 491.5,-263.67 491.5,-263.67 491.5,-274.33 491.5,-274.33 491.5,-279.67 486.17,-285 480.83,-285 480.83,-285 445.17,-285 445.17,-285 439.83,-285 434.5,-279.67 434.5,-274.33 434.5,-274.33 434.5,-263.67 434.5,-263.67 434.5,-258.33 439.83,-253 445.17,-253"/>
</a>
</g>
</g>
<!-- primitive&#45;String&#45;3 -->
<g id="node29" class="node">
<title>primitive&#45;String&#45;3</title>
<g id="a_node29"><a xlink:title="String&#45;3: primitive&#45;String&#45;3">
<path fill="white" stroke="transparent" d="M446.67,-174C446.67,-174 481.33,-174 481.33,-174 486.67,-174 492,-179.33 492,-184.67 492,-184.67 492,-195.33 492,-195.33 492,-200.67 486.67,-206 481.33,-206 481.33,-206 446.67,-206 446.67,-206 441.33,-206 436,-200.67 436,-195.33 436,-195.33 436,-184.67 436,-184.67 436,-179.33 441.33,-174 446.67,-174"/>
<text text-anchor="start" x="441" y="-186.3" font-family="Helvetica,sans-Serif" font-size="14.00">&quot;s0_0&quot;</text>
<path fill="none" stroke="black" d="M446.67,-174C446.67,-174 481.33,-174 481.33,-174 486.67,-174 492,-179.33 492,-184.67 492,-184.67 492,-195.33 492,-195.33 492,-200.67 486.67,-206 481.33,-206 481.33,-206 446.67,-206 446.67,-206 441.33,-206 436,-200.67 436,-195.33 436,-195.33 436,-184.67 436,-184.67 436,-179.33 441.33,-174 446.67,-174"/>
</a>
</g>
</g>
<!-- primitive&#45;String&#45;5 -->
<g id="node30" class="node">
<title>primitive&#45;String&#45;5</title>
<g id="a_node30"><a xlink:title="String&#45;5: primitive&#45;String&#45;5">
<path fill="white" stroke="transparent" d="M239.67,-95C239.67,-95 274.33,-95 274.33,-95 279.67,-95 285,-100.33 285,-105.67 285,-105.67 285,-116.33 285,-116.33 285,-121.67 279.67,-127 274.33,-127 274.33,-127 239.67,-127 239.67,-127 234.33,-127 229,-121.67 229,-116.33 229,-116.33 229,-105.67 229,-105.67 229,-100.33 234.33,-95 239.67,-95"/>
<text text-anchor="start" x="234" y="-107.3" font-family="Helvetica,sans-Serif" font-size="14.00">&quot;sp_0&quot;</text>
<path fill="none" stroke="black" d="M239.67,-95C239.67,-95 274.33,-95 274.33,-95 279.67,-95 285,-100.33 285,-105.67 285,-105.67 285,-116.33 285,-116.33 285,-121.67 279.67,-127 274.33,-127 274.33,-127 239.67,-127 239.67,-127 234.33,-127 229,-121.67 229,-116.33 229,-116.33 229,-105.67 229,-105.67 229,-100.33 234.33,-95 239.67,-95"/>
</a>
</g>
</g>
<!-- function&#45;3&#45;Addi -->
<g id="node31" class="node">
<title>function&#45;3&#45;Addi</title>
<g id="a_node31"><a xlink:title="Inst&#45;22: function&#45;3&#45;Addi">
<path fill="white" stroke="transparent" d="M818.17,-332C818.17,-332 837.83,-332 837.83,-332 843.17,-332 848.5,-337.33 848.5,-342.67 848.5,-342.67 848.5,-353.33 848.5,-353.33 848.5,-358.67 843.17,-364 837.83,-364 837.83,-364 818.17,-364 818.17,-364 812.83,-364 807.5,-358.67 807.5,-353.33 807.5,-353.33 807.5,-342.67 807.5,-342.67 807.5,-337.33 812.83,-332 818.17,-332"/>
<text text-anchor="start" x="813" y="-344.3" font-family="Helvetica,sans-Serif" font-size="14.00">Addi</text>
<path fill="none" stroke="black" d="M818.17,-332C818.17,-332 837.83,-332 837.83,-332 843.17,-332 848.5,-337.33 848.5,-342.67 848.5,-342.67 848.5,-353.33 848.5,-353.33 848.5,-358.67 843.17,-364 837.83,-364 837.83,-364 818.17,-364 818.17,-364 812.83,-364 807.5,-358.67 807.5,-353.33 807.5,-353.33 807.5,-342.67 807.5,-342.67 807.5,-337.33 812.83,-332 818.17,-332"/>
</a>
</g>
</g>
<!-- function&#45;1&#45;Addi -->
<g id="node32" class="node">
<title>function&#45;1&#45;Addi</title>
<g id="a_node32"><a xlink:title="Inst&#45;12: function&#45;1&#45;Addi">
<path fill="white" stroke="transparent" d="M772.17,-253C772.17,-253 791.83,-253 791.83,-253 797.17,-253 802.5,-258.33 802.5,-263.67 802.5,-263.67 802.5,-274.33 802.5,-274.33 802.5,-279.67 797.17,-285 791.83,-285 791.83,-285 772.17,-285 772.17,-285 766.83,-285 761.5,-279.67 761.5,-274.33 761.5,-274.33 761.5,-263.67 761.5,-263.67 761.5,-258.33 766.83,-253 772.17,-253"/>
<text text-anchor="start" x="767" y="-265.3" font-family="Helvetica,sans-Serif" font-size="14.00">Addi</text>
<path fill="none" stroke="black" d="M772.17,-253C772.17,-253 791.83,-253 791.83,-253 797.17,-253 802.5,-258.33 802.5,-263.67 802.5,-263.67 802.5,-274.33 802.5,-274.33 802.5,-279.67 797.17,-285 791.83,-285 791.83,-285 772.17,-285 772.17,-285 766.83,-285 761.5,-279.67 761.5,-274.33 761.5,-274.33 761.5,-263.67 761.5,-263.67 761.5,-258.33 766.83,-253 772.17,-253"/>
</a>
</g>
</g>
<!-- function&#45;0&#45;Lui -->
<g id="node33" class="node">
<title>function&#45;0&#45;Lui</title>
<g id="a_node33"><a xlink:title="Inst&#45;10: function&#45;0&#45;Lui">
<path fill="white" stroke="transparent" d="M737.67,-174C737.67,-174 748.33,-174 748.33,-174 753.67,-174 759,-179.33 759,-184.67 759,-184.67 759,-195.33 759,-195.33 759,-200.67 753.67,-206 748.33,-206 748.33,-206 737.67,-206 737.67,-206 732.33,-206 727,-200.67 727,-195.33 727,-195.33 727,-184.67 727,-184.67 727,-179.33 732.33,-174 737.67,-174"/>
<text text-anchor="start" x="732.5" y="-186.3" font-family="Helvetica,sans-Serif" font-size="14.00">Lui</text>
<path fill="none" stroke="black" d="M737.67,-174C737.67,-174 748.33,-174 748.33,-174 753.67,-174 759,-179.33 759,-184.67 759,-184.67 759,-195.33 759,-195.33 759,-200.67 753.67,-206 748.33,-206 748.33,-206 737.67,-206 737.67,-206 732.33,-206 727,-200.67 727,-195.33 727,-195.33 727,-184.67 727,-184.67 727,-179.33 732.33,-174 737.67,-174"/>
</a>
</g>
</g>
<!-- function&#45;2&#45;Sw -->
<g id="node34" class="node">
<title>function&#45;2&#45;Sw</title>
<g id="a_node34"><a xlink:title="Inst&#45;18: function&#45;2&#45;Sw">
<path fill="white" stroke="transparent" d="M453.67,-332C453.67,-332 464.33,-332 464.33,-332 469.67,-332 475,-337.33 475,-342.67 475,-342.67 475,-353.33 475,-353.33 475,-358.67 469.67,-364 464.33,-364 464.33,-364 453.67,-364 453.67,-364 448.33,-364 443,-358.67 443,-353.33 443,-353.33 443,-342.67 443,-342.67 443,-337.33 448.33,-332 453.67,-332"/>
<text text-anchor="start" x="448.5" y="-344.3" font-family="Helvetica,sans-Serif" font-size="14.00">Sw</text>
<path fill="none" stroke="black" d="M453.67,-332C453.67,-332 464.33,-332 464.33,-332 469.67,-332 475,-337.33 475,-342.67 475,-342.67 475,-353.33 475,-353.33 475,-358.67 469.67,-364 464.33,-364 464.33,-364 453.67,-364 453.67,-364 448.33,-364 443,-358.67 443,-353.33 443,-353.33 443,-342.67 443,-342.67 443,-337.33 448.33,-332 453.67,-332"/>
</a>
</g>
</g>
<!-- function&#45;1&#45;Sw -->
<g id="node35" class="node">
<title>function&#45;1&#45;Sw</title>
<g id="a_node35"><a xlink:title="Inst&#45;16: function&#45;1&#45;Sw">
<path fill="white" stroke="transparent" d="M107.67,-332C107.67,-332 118.33,-332 118.33,-332 123.67,-332 129,-337.33 129,-342.67 129,-342.67 129,-353.33 129,-353.33 129,-358.67 123.67,-364 118.33,-364 118.33,-364 107.67,-364 107.67,-364 102.33,-364 97,-358.67 97,-353.33 97,-353.33 97,-342.67 97,-342.67 97,-337.33 102.33,-332 107.67,-332"/>
<text text-anchor="start" x="102.5" y="-344.3" font-family="Helvetica,sans-Serif" font-size="14.00">Sw</text>
<path fill="none" stroke="black" d="M107.67,-332C107.67,-332 118.33,-332 118.33,-332 123.67,-332 129,-337.33 129,-342.67 129,-342.67 129,-353.33 129,-353.33 129,-358.67 123.67,-364 118.33,-364 118.33,-364 107.67,-364 107.67,-364 102.33,-364 97,-358.67 97,-353.33 97,-353.33 97,-342.67 97,-342.67 97,-337.33 102.33,-332 107.67,-332"/>
</a>
</g>
</g>
<!-- function&#45;2&#45;Addi -->
<g id="node36" class="node">
<title>function&#45;2&#45;Addi</title>
<g id="a_node36"><a xlink:title="Inst&#45;20: function&#45;2&#45;Addi">
<path fill="white" stroke="transparent" d="M618.17,-332C618.17,-332 637.83,-332 637.83,-332 643.17,-332 648.5,-337.33 648.5,-342.67 648.5,-342.67 648.5,-353.33 648.5,-353.33 648.5,-358.67 643.17,-364 637.83,-364 637.83,-364 618.17,-364 618.17,-364 612.83,-364 607.5,-358.67 607.5,-353.33 607.5,-353.33 607.5,-342.67 607.5,-342.67 607.5,-337.33 612.83,-332 618.17,-332"/>
<text text-anchor="start" x="613" y="-344.3" font-family="Helvetica,sans-Serif" font-size="14.00">Addi</text>
<path fill="none" stroke="black" d="M618.17,-332C618.17,-332 637.83,-332 637.83,-332 643.17,-332 648.5,-337.33 648.5,-342.67 648.5,-342.67 648.5,-353.33 648.5,-353.33 648.5,-358.67 643.17,-364 637.83,-364 637.83,-364 618.17,-364 618.17,-364 612.83,-364 607.5,-358.67 607.5,-353.33 607.5,-353.33 607.5,-342.67 607.5,-342.67 607.5,-337.33 612.83,-332 618.17,-332"/>
</a>
</g>
</g>
<!-- function&#45;0&#45;RegVal -->
<g id="node37" class="node">
<title>function&#45;0&#45;RegVal</title>
<g id="a_node37"><a xlink:title="Inst&#45;0: function&#45;0&#45;RegVal">
<path fill="white" stroke="transparent" d="M589.17,-253C589.17,-253 624.83,-253 624.83,-253 630.17,-253 635.5,-258.33 635.5,-263.67 635.5,-263.67 635.5,-274.33 635.5,-274.33 635.5,-279.67 630.17,-285 624.83,-285 624.83,-285 589.17,-285 589.17,-285 583.83,-285 578.5,-279.67 578.5,-274.33 578.5,-274.33 578.5,-263.67 578.5,-263.67 578.5,-258.33 583.83,-253 589.17,-253"/>
<text text-anchor="start" x="584" y="-265.3" font-family="Helvetica,sans-Serif" font-size="14.00">RegVal</text>
<path fill="none" stroke="black" d="M589.17,-253C589.17,-253 624.83,-253 624.83,-253 630.17,-253 635.5,-258.33 635.5,-263.67 635.5,-263.67 635.5,-274.33 635.5,-274.33 635.5,-279.67 630.17,-285 624.83,-285 624.83,-285 589.17,-285 589.17,-285 583.83,-285 578.5,-279.67 578.5,-274.33 578.5,-274.33 578.5,-263.67 578.5,-263.67 578.5,-258.33 583.83,-253 589.17,-253"/>
</a>
</g>
</g>
<!-- function&#45;4&#45;Addi -->
<g id="node38" class="node">
<title>function&#45;4&#45;Addi</title>
<g id="a_node38"><a xlink:title="Inst&#45;23: function&#45;4&#45;Addi">
<path fill="white" stroke="transparent" d="M731.17,-332C731.17,-332 750.83,-332 750.83,-332 756.17,-332 761.5,-337.33 761.5,-342.67 761.5,-342.67 761.5,-353.33 761.5,-353.33 761.5,-358.67 756.17,-364 750.83,-364 750.83,-364 731.17,-364 731.17,-364 725.83,-364 720.5,-358.67 720.5,-353.33 720.5,-353.33 720.5,-342.67 720.5,-342.67 720.5,-337.33 725.83,-332 731.17,-332"/>
<text text-anchor="start" x="726" y="-344.3" font-family="Helvetica,sans-Serif" font-size="14.00">Addi</text>
<path fill="none" stroke="black" d="M731.17,-332C731.17,-332 750.83,-332 750.83,-332 756.17,-332 761.5,-337.33 761.5,-342.67 761.5,-342.67 761.5,-353.33 761.5,-353.33 761.5,-358.67 756.17,-364 750.83,-364 750.83,-364 731.17,-364 731.17,-364 725.83,-364 720.5,-358.67 720.5,-353.33 720.5,-353.33 720.5,-342.67 720.5,-342.67 720.5,-337.33 725.83,-332 731.17,-332"/>
</a>
</g>
</g>
<!-- function&#45;1&#45;Lui -->
<g id="node39" class="node">
<title>function&#45;1&#45;Lui</title>
<g id="a_node39"><a xlink:title="Inst&#45;14: function&#45;1&#45;Lui">
<path fill="white" stroke="transparent" d="M1033.67,-253C1033.67,-253 1044.33,-253 1044.33,-253 1049.67,-253 1055,-258.33 1055,-263.67 1055,-263.67 1055,-274.33 1055,-274.33 1055,-279.67 1049.67,-285 1044.33,-285 1044.33,-285 1033.67,-285 1033.67,-285 1028.33,-285 1023,-279.67 1023,-274.33 1023,-274.33 1023,-263.67 1023,-263.67 1023,-258.33 1028.33,-253 1033.67,-253"/>
<text text-anchor="start" x="1028.5" y="-265.3" font-family="Helvetica,sans-Serif" font-size="14.00">Lui</text>
<path fill="none" stroke="black" d="M1033.67,-253C1033.67,-253 1044.33,-253 1044.33,-253 1049.67,-253 1055,-258.33 1055,-263.67 1055,-263.67 1055,-274.33 1055,-274.33 1055,-279.67 1049.67,-285 1044.33,-285 1044.33,-285 1033.67,-285 1033.67,-285 1028.33,-285 1023,-279.67 1023,-274.33 1023,-274.33 1023,-263.67 1023,-263.67 1023,-258.33 1028.33,-253 1033.67,-253"/>
</a>
</g>
</g>
<!-- function&#45;5&#45;Addi -->
<g id="node40" class="node">
<title>function&#45;5&#45;Addi</title>
<g id="a_node40"><a xlink:title="Inst&#45;25: function&#45;5&#45;Addi">
<path fill="white" stroke="transparent" d="M991.17,-332C991.17,-332 1010.83,-332 1010.83,-332 1016.17,-332 1021.5,-337.33 1021.5,-342.67 1021.5,-342.67 1021.5,-353.33 1021.5,-353.33 1021.5,-358.67 1016.17,-364 1010.83,-364 1010.83,-364 991.17,-364 991.17,-364 985.83,-364 980.5,-358.67 980.5,-353.33 980.5,-353.33 980.5,-342.67 980.5,-342.67 980.5,-337.33 985.83,-332 991.17,-332"/>
<text text-anchor="start" x="986" y="-344.3" font-family="Helvetica,sans-Serif" font-size="14.00">Addi</text>
<path fill="none" stroke="black" d="M991.17,-332C991.17,-332 1010.83,-332 1010.83,-332 1016.17,-332 1021.5,-337.33 1021.5,-342.67 1021.5,-342.67 1021.5,-353.33 1021.5,-353.33 1021.5,-358.67 1016.17,-364 1010.83,-364 1010.83,-364 991.17,-364 991.17,-364 985.83,-364 980.5,-358.67 980.5,-353.33 980.5,-353.33 980.5,-342.67 980.5,-342.67 980.5,-337.33 985.83,-332 991.17,-332"/>
</a>
</g>
</g>
<!-- primitive&#45;String&#45;1 -->
<g id="node41" class="node">
<title>primitive&#45;String&#45;1</title>
<g id="a_node41"><a xlink:title="String&#45;1: primitive&#45;String&#45;1">
<path fill="white" stroke="transparent" d="M590.17,-174C590.17,-174 625.83,-174 625.83,-174 631.17,-174 636.5,-179.33 636.5,-184.67 636.5,-184.67 636.5,-195.33 636.5,-195.33 636.5,-200.67 631.17,-206 625.83,-206 625.83,-206 590.17,-206 590.17,-206 584.83,-206 579.5,-200.67 579.5,-195.33 579.5,-195.33 579.5,-184.67 579.5,-184.67 579.5,-179.33 584.83,-174 590.17,-174"/>
<text text-anchor="start" x="585" y="-186.3" font-family="Helvetica,sans-Serif" font-size="14.00">&quot;a1_0&quot;</text>
<path fill="none" stroke="black" d="M590.17,-174C590.17,-174 625.83,-174 625.83,-174 631.17,-174 636.5,-179.33 636.5,-184.67 636.5,-184.67 636.5,-195.33 636.5,-195.33 636.5,-200.67 631.17,-206 625.83,-206 625.83,-206 590.17,-206 590.17,-206 584.83,-206 579.5,-200.67 579.5,-195.33 579.5,-195.33 579.5,-184.67 579.5,-184.67 579.5,-179.33 584.83,-174 590.17,-174"/>
</a>
</g>
</g>
</g>
</svg>
