<?xml version="1.0" encoding="UTF-8" standalone="no"?>
<!DOCTYPE svg PUBLIC "-//W3C//DTD SVG 1.1//EN"
 "http://www.w3.org/Graphics/SVG/1.1/DTD/svg11.dtd">
<!-- Generated by graphviz version 2.43.0 (0)
 -->
<!-- Title: %3 Pages: 1 -->
<svg width="1088pt" height="388pt"
 viewBox="0.00 0.00 1088.00 388.00" xmlns="http://www.w3.org/2000/svg" xmlns:xlink="http://www.w3.org/1999/xlink">
<g id="graph0" class="graph" transform="scale(1 1) rotate(0) translate(4 384)">
<title>%3</title>
<polygon fill="white" stroke="#000000" points="-4,4 -4,-384 1084,-384 1084,4 -4,4"/>
<g id="clust1" class="cluster">
<title>outer_cluster_Imm&#45;21</title>
</g>
<g id="clust2" class="cluster">
<title>cluster_Imm&#45;21</title>
<path fill="#ffffb3" stroke="black" stroke-dasharray="5,2" d="M47,-248C47,-248 91,-248 91,-248 97,-248 103,-254 103,-260 103,-260 103,-278 103,-278 103,-284 97,-290 91,-290 91,-290 47,-290 47,-290 41,-290 35,-284 35,-278 35,-278 35,-260 35,-260 35,-254 41,-248 47,-248"/>
</g>
<g id="clust4" class="cluster">
<title>outer_cluster_Imm&#45;24</title>
</g>
<g id="clust5" class="cluster">
<title>cluster_Imm&#45;24</title>
<path fill="#ffffb3" stroke="black" stroke-dasharray="5,2" d="M382,-248C382,-248 426,-248 426,-248 432,-248 438,-254 438,-260 438,-260 438,-278 438,-278 438,-284 432,-290 426,-290 426,-290 382,-290 382,-290 376,-290 370,-284 370,-278 370,-278 370,-260 370,-260 370,-254 376,-248 382,-248"/>
</g>
<g id="clust7" class="cluster">
<title>outer_cluster_Imm&#45;7</title>
</g>
<g id="clust8" class="cluster">
<title>cluster_Imm&#45;7</title>
<path fill="#ffffb3" stroke="black" stroke-dasharray="5,2" d="M522,-248C522,-248 566,-248 566,-248 572,-248 578,-254 578,-260 578,-260 578,-278 578,-278 578,-284 572,-290 566,-290 566,-290 522,-290 522,-290 516,-290 510,-284 510,-278 510,-278 510,-260 510,-260 510,-254 516,-248 522,-248"/>
</g>
<g id="clust10" class="cluster">
<title>outer_cluster_Imm&#45;15</title>
</g>
<g id="clust11" class="cluster">
<title>cluster_Imm&#45;15</title>
<path fill="#ffffb3" stroke="black" stroke-dasharray="5,2" d="M799,-248C799,-248 843,-248 843,-248 849,-248 855,-254 855,-260 855,-260 855,-278 855,-278 855,-284 849,-290 843,-290 843,-290 799,-290 799,-290 793,-290 787,-284 787,-278 787,-278 787,-260 787,-260 787,-254 793,-248 799,-248"/>
</g>
<g id="clust13" class="cluster">
<title>outer_cluster_Imm&#45;9</title>
</g>
<g id="clust14" class="cluster">
<title>cluster_Imm&#45;9</title>
<path fill="#ffffb3" stroke="black" stroke-dasharray="5,2" d="M193,-90C193,-90 253,-90 253,-90 259,-90 265,-96 265,-102 265,-102 265,-120 265,-120 265,-126 259,-132 253,-132 253,-132 193,-132 193,-132 187,-132 181,-126 181,-120 181,-120 181,-102 181,-102 181,-96 187,-90 193,-90"/>
</g>
<g id="clust16" class="cluster">
<title>outer_cluster_Imm&#45;5</title>
</g>
<g id="clust17" class="cluster">
<title>cluster_Imm&#45;5</title>
<path fill="#ffffb3" stroke="black" stroke-dasharray="5,2" d="M663,-169C663,-169 707,-169 707,-169 713,-169 719,-175 719,-181 719,-181 719,-199 719,-199 719,-205 713,-211 707,-211 707,-211 663,-211 663,-211 657,-211 651,-205 651,-199 651,-199 651,-181 651,-181 651,-175 657,-169 663,-169"/>
</g>
<g id="clust19" class="cluster">
<title>outer_cluster_Imm&#45;11</title>
</g>
<g id="clust20" class="cluster">
<title>cluster_Imm&#45;11</title>
<path fill="#ffffb3" stroke="black" stroke-dasharray="5,2" d="M89,-169C89,-169 149,-169 149,-169 155,-169 161,-175 161,-181 161,-181 161,-199 161,-199 161,-205 155,-211 149,-211 149,-211 89,-211 89,-211 83,-211 77,-205 77,-199 77,-199 77,-181 77,-181 77,-175 83,-169 89,-169"/>
</g>
<g id="clust22" class="cluster">
<title>outer_cluster_Imm&#45;13</title>
</g>
<g id="clust23" class="cluster">
<title>cluster_Imm&#45;13</title>
<path fill="#ffffb3" stroke="black" stroke-dasharray="5,2" d="M452,-169C452,-169 496,-169 496,-169 502,-169 508,-175 508,-181 508,-181 508,-199 508,-199 508,-205 502,-211 496,-211 496,-211 452,-211 452,-211 446,-211 440,-205 440,-199 440,-199 440,-181 440,-181 440,-175 446,-169 452,-169"/>
</g>
<g id="clust25" class="cluster">
<title>outer_cluster_Imm&#45;17</title>
</g>
<g id="clust26" class="cluster">
<title>cluster_Imm&#45;17</title>
<path fill="#ffffb3" stroke="black" stroke-dasharray="5,2" d="M1013,-248C1013,-248 1057,-248 1057,-248 1063,-248 1069,-254 1069,-260 1069,-260 1069,-278 1069,-278 1069,-284 1063,-290 1057,-290 1057,-290 1013,-290 1013,-290 1007,-290 1001,-284 1001,-278 1001,-278 1001,-260 1001,-260 1001,-254 1007,-248 1013,-248"/>
</g>
<g id="clust28" class="cluster">
<title>outer_cluster_Imm&#45;19</title>
</g>
<g id="clust29" class="cluster">
<title>cluster_Imm&#45;19</title>
<path fill="#ffffb3" stroke="black" stroke-dasharray="5,2" d="M238,-248C238,-248 282,-248 282,-248 288,-248 294,-254 294,-260 294,-260 294,-278 294,-278 294,-284 288,-290 282,-290 282,-290 238,-290 238,-290 232,-290 226,-284 226,-278 226,-278 226,-260 226,-260 226,-254 232,-248 238,-248"/>
</g>
<g id="clust31" class="cluster">
<title>outer_cluster_Inst&#45;14</title>
</g>
<g id="clust32" class="cluster">
<title>cluster_Inst&#45;14</title>
<path fill="#bebada" stroke="black" stroke-dasharray="5,2" d="M456,-248C456,-248 492,-248 492,-248 498,-248 504,-254 504,-260 504,-260 504,-278 504,-278 504,-284 498,-290 492,-290 492,-290 456,-290 456,-290 450,-290 444,-284 444,-278 444,-278 444,-260 444,-260 444,-254 450,-248 456,-248"/>
</g>
<g id="clust34" class="cluster">
<title>outer_cluster_Inst&#45;6</title>
</g>
<g id="clust35" class="cluster">
<title>cluster_Inst&#45;6</title>
<path fill="#bebada" stroke="black" stroke-dasharray="5,2" d="M733,-248C733,-248 769,-248 769,-248 775,-248 781,-254 781,-260 781,-260 781,-278 781,-278 781,-284 775,-290 769,-290 769,-290 733,-290 733,-290 727,-290 721,-284 721,-278 721,-278 721,-260 721,-260 721,-254 727,-248 733,-248"/>
</g>
<g id="clust37" class="cluster">
<title>outer_cluster_Inst&#45;20</title>
</g>
<g id="clust38" class="cluster">
<title>cluster_Inst&#45;20</title>
<path fill="#bebada" stroke="black" stroke-dasharray="5,2" d="M252,-327C252,-327 288,-327 288,-327 294,-327 300,-333 300,-339 300,-339 300,-357 300,-357 300,-363 294,-369 288,-369 288,-369 252,-369 252,-369 246,-369 240,-363 240,-357 240,-357 240,-339 240,-339 240,-333 246,-327 252,-327"/>
</g>
<g id="clust40" class="cluster">
<title>outer_cluster_Inst&#45;10</title>
</g>
<g id="clust41" class="cluster">
<title>cluster_Inst&#45;10</title>
<path fill="#bebada" stroke="black" stroke-dasharray="5,2" d="M179,-169C179,-169 215,-169 215,-169 221,-169 227,-175 227,-181 227,-181 227,-199 227,-199 227,-205 221,-211 215,-211 215,-211 179,-211 179,-211 173,-211 167,-205 167,-199 167,-199 167,-181 167,-181 167,-175 173,-169 179,-169"/>
</g>
<g id="clust43" class="cluster">
<title>outer_cluster_Inst&#45;1</title>
</g>
<g id="clust44" class="cluster">
<title>cluster_Inst&#45;1</title>
<path fill="#bebada" stroke="black" stroke-dasharray="5,2" d="M873,-248C873,-248 913,-248 913,-248 919,-248 925,-254 925,-260 925,-260 925,-278 925,-278 925,-284 919,-290 913,-290 913,-290 873,-290 873,-290 867,-290 861,-284 861,-278 861,-278 861,-260 861,-260 861,-254 867,-248 873,-248"/>
</g>
<g id="clust46" class="cluster">
<title>outer_cluster_Inst&#45;3</title>
</g>
<g id="clust47" class="cluster">
<title>cluster_Inst&#45;3</title>
<path fill="#bebada" stroke="black" stroke-dasharray="5,2" d="M596,-248C596,-248 636,-248 636,-248 642,-248 648,-254 648,-260 648,-260 648,-278 648,-278 648,-284 642,-290 636,-290 636,-290 596,-290 596,-290 590,-290 584,-284 584,-278 584,-278 584,-260 584,-260 584,-254 590,-248 596,-248"/>
</g>
<g id="clust49" class="cluster">
<title>outer_cluster_Inst&#45;12</title>
</g>
<g id="clust50" class="cluster">
<title>cluster_Inst&#45;12</title>
<path fill="#bebada" stroke="black" stroke-dasharray="5,2" d="M152,-248C152,-248 188,-248 188,-248 194,-248 200,-254 200,-260 200,-260 200,-278 200,-278 200,-284 194,-290 188,-290 188,-290 152,-290 152,-290 146,-290 140,-284 140,-278 140,-278 140,-260 140,-260 140,-254 146,-248 152,-248"/>
</g>
<g id="clust52" class="cluster">
<title>outer_cluster_Inst&#45;2</title>
</g>
<g id="clust53" class="cluster">
<title>cluster_Inst&#45;2</title>
<path fill="#bebada" stroke="black" stroke-dasharray="5,2" d="M943,-248C943,-248 983,-248 983,-248 989,-248 995,-254 995,-260 995,-260 995,-278 995,-278 995,-284 989,-290 983,-290 983,-290 943,-290 943,-290 937,-290 931,-284 931,-278 931,-278 931,-260 931,-260 931,-254 937,-248 943,-248"/>
</g>
<g id="clust55" class="cluster">
<title>outer_cluster_Inst&#45;4</title>
</g>
<g id="clust56" class="cluster">
<title>cluster_Inst&#45;4</title>
<path fill="#bebada" stroke="black" stroke-dasharray="5,2" d="M737,-169C737,-169 777,-169 777,-169 783,-169 789,-175 789,-181 789,-181 789,-199 789,-199 789,-205 783,-211 777,-211 777,-211 737,-211 737,-211 731,-211 725,-205 725,-199 725,-199 725,-181 725,-181 725,-175 731,-169 737,-169"/>
</g>
<g id="clust58" class="cluster">
<title>outer_cluster_Inst&#45;22</title>
</g>
<g id="clust59" class="cluster">
<title>cluster_Inst&#45;22</title>
<path fill="#bebada" stroke="black" stroke-dasharray="5,2" d="M77,-327C77,-327 113,-327 113,-327 119,-327 125,-333 125,-339 125,-339 125,-357 125,-357 125,-363 119,-369 113,-369 113,-369 77,-369 77,-369 71,-369 65,-363 65,-357 65,-357 65,-339 65,-339 65,-333 71,-327 77,-327"/>
</g>
<g id="clust61" class="cluster">
<title>outer_cluster_Inst&#45;0</title>
</g>
<g id="clust62" class="cluster">
<title>cluster_Inst&#45;0</title>
<path fill="#bebada" stroke="black" stroke-dasharray="5,2" d="M312,-248C312,-248 352,-248 352,-248 358,-248 364,-254 364,-260 364,-260 364,-278 364,-278 364,-284 358,-290 352,-290 352,-290 312,-290 312,-290 306,-290 300,-284 300,-278 300,-278 300,-260 300,-260 300,-254 306,-248 312,-248"/>
</g>
<g id="clust64" class="cluster">
<title>outer_cluster_Inst&#45;23</title>
</g>
<g id="clust65" class="cluster">
<title>cluster_Inst&#45;23</title>
<path fill="#bebada" stroke="black" stroke-dasharray="5,2" d="M170,-327C170,-327 206,-327 206,-327 212,-327 218,-333 218,-339 218,-339 218,-357 218,-357 218,-363 212,-369 206,-369 206,-369 170,-369 170,-369 164,-369 158,-363 158,-357 158,-357 158,-339 158,-339 158,-333 164,-327 170,-327"/>
</g>
<g id="clust67" class="cluster">
<title>outer_cluster_Inst&#45;8</title>
</g>
<g id="clust68" class="cluster">
<title>cluster_Inst&#45;8</title>
<path fill="#bebada" stroke="black" stroke-dasharray="5,2" d="M594,-327C594,-327 630,-327 630,-327 636,-327 642,-333 642,-339 642,-339 642,-357 642,-357 642,-363 636,-369 630,-369 630,-369 594,-369 594,-369 588,-369 582,-363 582,-357 582,-357 582,-339 582,-339 582,-333 588,-327 594,-327"/>
</g>
<g id="clust70" class="cluster">
<title>outer_cluster_Inst&#45;16</title>
</g>
<g id="clust71" class="cluster">
<title>cluster_Inst&#45;16</title>
<path fill="#bebada" stroke="black" stroke-dasharray="5,2" d="M792,-327C792,-327 828,-327 828,-327 834,-327 840,-333 840,-339 840,-339 840,-357 840,-357 840,-363 834,-369 828,-369 828,-369 792,-369 792,-369 786,-369 780,-363 780,-357 780,-357 780,-339 780,-339 780,-333 786,-327 792,-327"/>
</g>
<g id="clust73" class="cluster">
<title>outer_cluster_Inst&#45;25</title>
</g>
<g id="clust74" class="cluster">
<title>cluster_Inst&#45;25</title>
<path fill="#bebada" stroke="black" stroke-dasharray="5,2" d="M421,-327C421,-327 457,-327 457,-327 463,-327 469,-333 469,-339 469,-339 469,-357 469,-357 469,-363 463,-369 457,-369 457,-369 421,-369 421,-369 415,-369 409,-363 409,-357 409,-357 409,-339 409,-339 409,-333 415,-327 421,-327"/>
</g>
<g id="clust76" class="cluster">
<title>outer_cluster_Inst&#45;18</title>
</g>
<g id="clust77" class="cluster">
<title>cluster_Inst&#45;18</title>
<path fill="#bebada" stroke="black" stroke-dasharray="5,2" d="M941,-327C941,-327 977,-327 977,-327 983,-327 989,-333 989,-339 989,-339 989,-357 989,-357 989,-363 983,-369 977,-369 977,-369 941,-369 941,-369 935,-369 929,-363 929,-357 929,-357 929,-339 929,-339 929,-333 935,-327 941,-327"/>
</g>
<g id="clust79" class="cluster">
<title>outer_cluster_String&#45;1</title>
</g>
<g id="clust80" class="cluster">
<title>cluster_String&#45;1</title>
<path fill="#fb8072" stroke="black" stroke-dasharray="5,2" d="M876,-169C876,-169 912,-169 912,-169 918,-169 924,-175 924,-181 924,-181 924,-199 924,-199 924,-205 918,-211 912,-211 912,-211 876,-211 876,-211 870,-211 864,-205 864,-199 864,-199 864,-181 864,-181 864,-175 870,-169 876,-169"/>
</g>
<g id="clust82" class="cluster">
<title>outer_cluster_String&#45;2</title>
</g>
<g id="clust83" class="cluster">
<title>cluster_String&#45;2</title>
<path fill="#fb8072" stroke="black" stroke-dasharray="5,2" d="M945,-169C945,-169 983,-169 983,-169 989,-169 995,-175 995,-181 995,-181 995,-199 995,-199 995,-205 989,-211 983,-211 983,-211 945,-211 945,-211 939,-211 933,-205 933,-199 933,-199 933,-181 933,-181 933,-175 939,-169 945,-169"/>
</g>
<g id="clust85" class="cluster">
<title>outer_cluster_String&#45;5</title>
</g>
<g id="clust86" class="cluster">
<title>cluster_String&#45;5</title>
<path fill="#fb8072" stroke="black" stroke-dasharray="5,2" d="M161,-11C161,-11 287,-11 287,-11 293,-11 299,-17 299,-23 299,-23 299,-41 299,-41 299,-47 293,-53 287,-53 287,-53 161,-53 161,-53 155,-53 149,-47 149,-41 149,-41 149,-23 149,-23 149,-17 155,-11 161,-11"/>
</g>
<g id="clust88" class="cluster">
<title>outer_cluster_String&#45;3</title>
</g>
<g id="clust89" class="cluster">
<title>cluster_String&#45;3</title>
<path fill="#fb8072" stroke="black" stroke-dasharray="5,2" d="M595,-169C595,-169 633,-169 633,-169 639,-169 645,-175 645,-181 645,-181 645,-199 645,-199 645,-205 639,-211 633,-211 633,-211 595,-211 595,-211 589,-211 583,-205 583,-199 583,-199 583,-181 583,-181 583,-175 589,-169 595,-169"/>
</g>
<g id="clust91" class="cluster">
<title>outer_cluster_String&#45;0</title>
</g>
<g id="clust92" class="cluster">
<title>cluster_String&#45;0</title>
<path fill="#fb8072" stroke="black" stroke-dasharray="5,2" d="M313,-169C313,-169 353,-169 353,-169 359,-169 365,-175 365,-181 365,-181 365,-199 365,-199 365,-205 359,-211 353,-211 353,-211 313,-211 313,-211 307,-211 301,-205 301,-199 301,-199 301,-181 301,-181 301,-175 307,-169 313,-169"/>
</g>
<g id="clust94" class="cluster">
<title>outer_cluster_String&#45;4</title>
</g>
<g id="clust95" class="cluster">
<title>cluster_String&#45;4</title>
<path fill="#fb8072" stroke="black" stroke-dasharray="5,2" d="M739,-90C739,-90 777,-90 777,-90 783,-90 789,-96 789,-102 789,-102 789,-120 789,-120 789,-126 783,-132 777,-132 777,-132 739,-132 739,-132 733,-132 727,-126 727,-120 727,-120 727,-102 727,-102 727,-96 733,-90 739,-90"/>
</g>
<g id="clust97" class="cluster">
<title>outer_cluster_String&#45;6</title>
</g>
<g id="clust98" class="cluster">
<title>cluster_String&#45;6</title>
<path fill="#fb8072" stroke="black" stroke-dasharray="5,2" d="M37,-90C37,-90 163,-90 163,-90 169,-90 175,-96 175,-102 175,-102 175,-120 175,-120 175,-126 169,-132 163,-132 163,-132 37,-132 37,-132 31,-132 25,-126 25,-120 25,-120 25,-102 25,-102 25,-96 31,-90 37,-90"/>
</g>
<g id="clust100" class="cluster">
<title>outer_cluster_i64&#45;0</title>
</g>
<g id="clust101" class="cluster">
<title>cluster_i64&#45;0</title>
<path fill="#80b1d3" stroke="black" stroke-dasharray="5,2" d="M245,-169C245,-169 281,-169 281,-169 287,-169 293,-175 293,-181 293,-181 293,-199 293,-199 293,-205 287,-211 281,-211 281,-211 245,-211 245,-211 239,-211 233,-205 233,-199 233,-199 233,-181 233,-181 233,-175 239,-169 245,-169"/>
</g>
<g id="clust103" class="cluster">
<title>outer_cluster_i64&#45;800</title>
</g>
<g id="clust104" class="cluster">
<title>cluster_i64&#45;800</title>
<path fill="#80b1d3" stroke="black" stroke-dasharray="5,2" d="M23,-169C23,-169 59,-169 59,-169 65,-169 71,-175 71,-181 71,-181 71,-199 71,-199 71,-205 65,-211 59,-211 59,-211 23,-211 23,-211 17,-211 11,-205 11,-199 11,-199 11,-181 11,-181 11,-175 17,-169 23,-169"/>
</g>
<g id="clust106" class="cluster">
<title>outer_cluster_i64&#45;2</title>
</g>
<g id="clust107" class="cluster">
<title>cluster_i64&#45;2</title>
<path fill="#80b1d3" stroke="black" stroke-dasharray="5,2" d="M456,-90C456,-90 492,-90 492,-90 498,-90 504,-96 504,-102 504,-102 504,-120 504,-120 504,-126 498,-132 492,-132 492,-132 456,-132 456,-132 450,-132 444,-126 444,-120 444,-120 444,-102 444,-102 444,-96 450,-90 456,-90"/>
</g>
<g id="clust109" class="cluster">
<title>outer_cluster_i64&#45;2147483649</title>
</g>
<g id="clust110" class="cluster">
<title>cluster_i64&#45;2147483649</title>
<path fill="#80b1d3" stroke="black" stroke-dasharray="5,2" d="M667,-90C667,-90 703,-90 703,-90 709,-90 715,-96 715,-102 715,-102 715,-120 715,-120 715,-126 709,-132 703,-132 703,-132 667,-132 667,-132 661,-132 655,-126 655,-120 655,-120 655,-102 655,-102 655,-96 661,-90 667,-90"/>
</g>
<g id="clust112" class="cluster">
<title>outer_cluster_i64&#45;76</title>
</g>
<g id="clust113" class="cluster">
<title>cluster_i64&#45;76</title>
<path fill="#80b1d3" stroke="black" stroke-dasharray="5,2" d="M807,-169C807,-169 843,-169 843,-169 849,-169 855,-175 855,-181 855,-181 855,-199 855,-199 855,-205 849,-211 843,-211 843,-211 807,-211 807,-211 801,-211 795,-205 795,-199 795,-199 795,-181 795,-181 795,-175 801,-169 807,-169"/>
</g>
<g id="clust115" class="cluster">
<title>outer_cluster_i64&#45;72</title>
</g>
<g id="clust116" class="cluster">
<title>cluster_i64&#45;72</title>
<path fill="#80b1d3" stroke="black" stroke-dasharray="5,2" d="M1017,-169C1017,-169 1053,-169 1053,-169 1059,-169 1065,-175 1065,-181 1065,-181 1065,-199 1065,-199 1065,-205 1059,-211 1053,-211 1053,-211 1017,-211 1017,-211 1011,-211 1005,-205 1005,-199 1005,-199 1005,-181 1005,-181 1005,-175 1011,-169 1017,-169"/>
</g>
<g id="clust118" class="cluster">
<title>outer_cluster_i64&#45;52</title>
</g>
<g id="clust119" class="cluster">
<title>cluster_i64&#45;52</title>
<path fill="#80b1d3" stroke="black" stroke-dasharray="5,2" d="M526,-169C526,-169 562,-169 562,-169 568,-169 574,-175 574,-181 574,-181 574,-199 574,-199 574,-205 568,-211 562,-211 562,-211 526,-211 526,-211 520,-211 514,-205 514,-199 514,-199 514,-181 514,-181 514,-175 520,-169 526,-169"/>
</g>
<g id="clust121" class="cluster">
<title>outer_cluster_i64&#45;1807</title>
</g>
<g id="clust122" class="cluster">
<title>cluster_i64&#45;1807</title>
<path fill="#80b1d3" stroke="black" stroke-dasharray="5,2" d="M386,-169C386,-169 422,-169 422,-169 428,-169 434,-175 434,-181 434,-181 434,-199 434,-199 434,-205 428,-211 422,-211 422,-211 386,-211 386,-211 380,-211 374,-205 374,-199 374,-199 374,-181 374,-181 374,-175 380,-169 386,-169"/>
</g>
<!-- function&#45;6&#45;ImmVal&#45;&gt;primitive&#45;i64&#45;800 -->
<g id="edge1" class="edge">
<title>function&#45;6&#45;ImmVal:s&#45;&gt;primitive&#45;i64&#45;800</title>
<path fill="none" stroke="black" d="M69,-253C69,-238.72 62.75,-224.09 56.16,-212.63"/>
<polygon fill="black" stroke="black" points="59.3,-213.3 54.53,-211 56.82,-215.78 59.3,-213.3"/>
</g>
<!-- function&#45;7&#45;ImmVal&#45;&gt;primitive&#45;i64&#45;1807 -->
<g id="edge2" class="edge">
<title>function&#45;7&#45;ImmVal:s&#45;&gt;primitive&#45;i64&#45;1807</title>
<path fill="none" stroke="black" d="M404,-253C404,-239.84 404,-225.11 404,-213.3"/>
<polygon fill="black" stroke="black" points="405.75,-216 404,-211 402.25,-216 405.75,-216"/>
</g>
<!-- function&#45;1&#45;ImmVal&#45;&gt;primitive&#45;i64&#45;52 -->
<g id="edge3" class="edge">
<title>function&#45;1&#45;ImmVal:s&#45;&gt;primitive&#45;i64&#45;52</title>
<path fill="none" stroke="black" d="M544,-253C544,-239.84 544,-225.11 544,-213.3"/>
<polygon fill="black" stroke="black" points="545.75,-216 544,-211 542.25,-216 545.75,-216"/>
</g>
<!-- function&#45;3&#45;ImmVal&#45;&gt;primitive&#45;i64&#45;76 -->
<g id="edge4" class="edge">
<title>function&#45;3&#45;ImmVal:s&#45;&gt;primitive&#45;i64&#45;76</title>
<path fill="none" stroke="black" d="M821,-253C821,-239.81 821.91,-225.08 822.87,-213.28"/>
<polygon fill="black" stroke="black" points="824.08,-216.24 823.3,-211 820.64,-215.58 824.08,-216.24"/>
</g>
<!-- function&#45;0&#45;ImmLabel&#45;&gt;primitive&#45;String&#45;5 -->
<g id="edge5" class="edge">
<title>function&#45;0&#45;ImmLabel:s&#45;&gt;primitive&#45;String&#45;5</title>
<path fill="none" stroke="black" d="M224,-95C224,-81.84 224,-67.11 224,-55.3"/>
<polygon fill="black" stroke="black" points="225.75,-58 224,-53 222.25,-58 225.75,-58"/>
</g>
<!-- function&#45;0&#45;ImmVal&#45;&gt;primitive&#45;i64&#45;2147483649 -->
<g id="edge6" class="edge">
<title>function&#45;0&#45;ImmVal:s&#45;&gt;primitive&#45;i64&#45;2147483649</title>
<path fill="none" stroke="black" d="M685,-174C685,-160.84 685,-146.11 685,-134.3"/>
<polygon fill="black" stroke="black" points="686.75,-137 685,-132 683.25,-137 686.75,-137"/>
</g>
<!-- function&#45;1&#45;ImmLabel&#45;&gt;primitive&#45;String&#45;6 -->
<g id="edge7" class="edge">
<title>function&#45;1&#45;ImmLabel:s&#45;&gt;primitive&#45;String&#45;6</title>
<path fill="none" stroke="black" d="M120,-174C120,-160.24 115.49,-145.56 110.75,-133.94"/>
<polygon fill="black" stroke="black" points="113.6,-135.6 109.71,-132 110.51,-137.24 113.6,-135.6"/>
</g>
<!-- function&#45;2&#45;ImmVal&#45;&gt;primitive&#45;i64&#45;2 -->
<g id="edge8" class="edge">
<title>function&#45;2&#45;ImmVal:s&#45;&gt;primitive&#45;i64&#45;2</title>
<path fill="none" stroke="black" d="M474,-174C474,-160.84 474,-146.11 474,-134.3"/>
<polygon fill="black" stroke="black" points="475.75,-137 474,-132 472.25,-137 475.75,-137"/>
</g>
<!-- function&#45;4&#45;ImmVal&#45;&gt;primitive&#45;i64&#45;72 -->
<g id="edge9" class="edge">
<title>function&#45;4&#45;ImmVal:s&#45;&gt;primitive&#45;i64&#45;72</title>
<path fill="none" stroke="black" d="M1035,-253C1035,-239.84 1035,-225.11 1035,-213.3"/>
<polygon fill="black" stroke="black" points="1036.75,-216 1035,-211 1033.25,-216 1036.75,-216"/>
</g>
<!-- function&#45;5&#45;ImmVal&#45;&gt;primitive&#45;i64&#45;0 -->
<g id="edge10" class="edge">
<title>function&#45;5&#45;ImmVal:s&#45;&gt;primitive&#45;i64&#45;0</title>
<path fill="none" stroke="black" d="M260,-253C260,-239.82 260.68,-225.09 261.4,-213.29"/>
<polygon fill="black" stroke="black" points="262.75,-216.2 261.73,-211 259.29,-215.7 262.75,-216.2"/>
</g>
<!-- function&#45;1&#45;Lui&#45;&gt;function&#45;2&#45;ImmVal -->
<g id="edge11" class="edge">
<title>function&#45;1&#45;Lui:s&#45;&gt;function&#45;2&#45;ImmVal</title>
<path fill="none" stroke="black" d="M474,-253C474,-239.84 474,-225.11 474,-213.3"/>
<polygon fill="black" stroke="black" points="475.75,-216 474,-211 472.25,-216 475.75,-216"/>
</g>
<!-- function&#45;0&#45;Addi&#45;&gt;function&#45;0&#45;ImmVal -->
<g id="edge13" class="edge">
<title>function&#45;0&#45;Addi:s&#45;&gt;function&#45;0&#45;ImmVal</title>
<path fill="none" stroke="black" d="M761,-253C761,-242.11 742.02,-226.62 723.03,-213.84"/>
<polygon fill="black" stroke="black" points="723.86,-212.3 718.73,-211 721.93,-215.22 723.86,-212.3"/>
</g>
<!-- function&#45;0&#45;Addi&#45;&gt;function&#45;4&#45;RegVal -->
<g id="edge12" class="edge">
<title>function&#45;0&#45;Addi:s&#45;&gt;function&#45;4&#45;RegVal</title>
<path fill="none" stroke="black" d="M741,-253C741,-239.38 744.66,-224.6 748.48,-212.89"/>
<polygon fill="black" stroke="black" points="748.17,-215.92 750.12,-211 745.52,-213.63 748.17,-215.92"/>
</g>
<!-- function&#45;4&#45;RegVal&#45;&gt;primitive&#45;String&#45;4 -->
<g id="edge22" class="edge">
<title>function&#45;4&#45;RegVal:s&#45;&gt;primitive&#45;String&#45;4</title>
<path fill="none" stroke="black" d="M758,-174C758,-160.84 758,-146.11 758,-134.3"/>
<polygon fill="black" stroke="black" points="759.75,-137 758,-132 756.25,-137 759.75,-137"/>
</g>
<!-- function&#45;2&#45;Addi&#45;&gt;function&#45;5&#45;ImmVal -->
<g id="edge15" class="edge">
<title>function&#45;2&#45;Addi:s&#45;&gt;function&#45;5&#45;ImmVal</title>
<path fill="none" stroke="black" d="M280,-332C280,-318.24 275.49,-303.56 270.75,-291.94"/>
<polygon fill="black" stroke="black" points="273.6,-293.6 269.71,-290 270.51,-295.24 273.6,-293.6"/>
</g>
<!-- function&#45;2&#45;Addi&#45;&gt;function&#45;0&#45;RegVal -->
<g id="edge14" class="edge">
<title>function&#45;2&#45;Addi:s&#45;&gt;function&#45;0&#45;RegVal</title>
<path fill="none" stroke="black" d="M260,-332C260,-320.65 280.8,-303.59 300.04,-290.24"/>
<polygon fill="black" stroke="black" points="296.76,-292.6 301.37,-290 296.14,-289.16 296.76,-292.6"/>
</g>
<!-- function&#45;0&#45;RegVal&#45;&gt;primitive&#45;String&#45;0 -->
<g id="edge25" class="edge">
<title>function&#45;0&#45;RegVal:s&#45;&gt;primitive&#45;String&#45;0</title>
<path fill="none" stroke="black" d="M333,-253C333,-239.84 333,-225.11 333,-213.3"/>
<polygon fill="black" stroke="black" points="334.75,-216 333,-211 331.25,-216 334.75,-216"/>
</g>
<!-- function&#45;0&#45;Lui&#45;&gt;function&#45;0&#45;ImmLabel -->
<g id="edge16" class="edge">
<title>function&#45;0&#45;Lui:s&#45;&gt;function&#45;0&#45;ImmLabel</title>
<path fill="none" stroke="black" d="M197,-174C197,-159.78 202.89,-145.05 209.06,-133.52"/>
<polygon fill="black" stroke="black" points="208.32,-136.82 210.52,-132 205.8,-134.4 208.32,-136.82"/>
</g>
<!-- function&#45;1&#45;RegVal&#45;&gt;primitive&#45;String&#45;1 -->
<g id="edge17" class="edge">
<title>function&#45;1&#45;RegVal:s&#45;&gt;primitive&#45;String&#45;1</title>
<path fill="none" stroke="black" d="M894,-253C894,-239.84 894,-225.11 894,-213.3"/>
<polygon fill="black" stroke="black" points="895.75,-216 894,-211 892.25,-216 895.75,-216"/>
</g>
<!-- function&#45;3&#45;RegVal&#45;&gt;primitive&#45;String&#45;3 -->
<g id="edge18" class="edge">
<title>function&#45;3&#45;RegVal:s&#45;&gt;primitive&#45;String&#45;3</title>
<path fill="none" stroke="black" d="M617,-253C617,-239.82 616.32,-225.09 615.6,-213.29"/>
<polygon fill="black" stroke="black" points="617.71,-215.7 615.27,-211 614.25,-216.2 617.71,-215.7"/>
</g>
<!-- function&#45;1&#45;Addi&#45;&gt;function&#45;1&#45;ImmLabel -->
<g id="edge20" class="edge">
<title>function&#45;1&#45;Addi:s&#45;&gt;function&#45;1&#45;ImmLabel</title>
<path fill="none" stroke="black" d="M180,-253C180,-235.76 167.86,-221.56 154.42,-211.12"/>
<polygon fill="black" stroke="black" points="159.39,-212.13 154.21,-211 157.56,-215.11 159.39,-212.13"/>
</g>
<!-- function&#45;1&#45;Addi&#45;&gt;function&#45;0&#45;Lui -->
<g id="edge19" class="edge">
<title>function&#45;1&#45;Addi:s&#45;&gt;function&#45;0&#45;Lui</title>
<path fill="none" stroke="black" d="M160,-253C160,-237.93 168.16,-223.34 176.82,-212.1"/>
<polygon fill="black" stroke="black" points="175.52,-215.67 178.02,-211 173.15,-213.1 175.52,-215.67"/>
</g>
<!-- function&#45;2&#45;RegVal&#45;&gt;primitive&#45;String&#45;2 -->
<g id="edge21" class="edge">
<title>function&#45;2&#45;RegVal:s&#45;&gt;primitive&#45;String&#45;2</title>
<path fill="none" stroke="black" d="M964,-253C964,-239.84 964,-225.11 964,-213.3"/>
<polygon fill="black" stroke="black" points="965.75,-216 964,-211 962.25,-216 965.75,-216"/>
</g>
<!-- function&#45;3&#45;Addi&#45;&gt;function&#45;6&#45;ImmVal -->
<g id="edge24" class="edge">
<title>function&#45;3&#45;Addi:s&#45;&gt;function&#45;6&#45;ImmVal</title>
<path fill="none" stroke="black" d="M105,-332C105,-317.03 97.06,-302.45 88.64,-291.19"/>
<polygon fill="black" stroke="black" points="92.22,-292.46 87.52,-290 89.66,-294.85 92.22,-292.46"/>
</g>
<!-- function&#45;3&#45;Addi&#45;&gt;function&#45;1&#45;Addi -->
<g id="edge23" class="edge">
<title>function&#45;3&#45;Addi:s&#45;&gt;function&#45;1&#45;Addi</title>
<path fill="none" stroke="black" d="M85,-332C85,-304.77 113.82,-288.23 137.9,-279.16"/>
<polygon fill="black" stroke="black" points="137.23,-281.96 140,-277.45 135.02,-279.25 137.23,-281.96"/>
</g>
<!-- function&#45;4&#45;Addi&#45;&gt;function&#45;5&#45;ImmVal -->
<g id="edge27" class="edge">
<title>function&#45;4&#45;Addi:s&#45;&gt;function&#45;5&#45;ImmVal</title>
<path fill="none" stroke="black" d="M198,-332C198,-314.34 210.73,-299.96 224.65,-289.5"/>
<polygon fill="black" stroke="black" points="223.27,-292.93 226,-288.39 221.03,-290.23 223.27,-292.93"/>
</g>
<!-- function&#45;4&#45;Addi&#45;&gt;function&#45;1&#45;Addi -->
<g id="edge26" class="edge">
<title>function&#45;4&#45;Addi:s&#45;&gt;function&#45;1&#45;Addi</title>
<path fill="none" stroke="black" d="M178,-332C178,-318.73 176.17,-303.99 174.27,-292.22"/>
<polygon fill="black" stroke="black" points="176.86,-294.01 173.39,-290 173.6,-295.29 176.86,-294.01"/>
</g>
<!-- function&#45;0&#45;Sw&#45;&gt;function&#45;1&#45;ImmVal -->
<g id="edge30" class="edge">
<title>function&#45;0&#45;Sw:s&#45;&gt;function&#45;1&#45;ImmVal</title>
<path fill="none" stroke="black" d="M623,-332C623,-325.52 596.33,-305.64 573.98,-290.12"/>
<polygon fill="black" stroke="black" points="578.02,-288.78 572.87,-290 577.66,-292.26 578.02,-288.78"/>
</g>
<!-- function&#45;0&#45;Sw&#45;&gt;function&#45;0&#45;Addi -->
<g id="edge28" class="edge">
<title>function&#45;0&#45;Sw:s&#45;&gt;function&#45;0&#45;Addi</title>
<path fill="none" stroke="black" d="M604,-332C604,-307.31 675.27,-286.95 718.56,-276.85"/>
<polygon fill="black" stroke="black" points="717.26,-279.42 721,-275.67 715.74,-276.27 717.26,-279.42"/>
</g>
<!-- function&#45;0&#45;Sw&#45;&gt;function&#45;3&#45;RegVal -->
<g id="edge29" class="edge">
<title>function&#45;0&#45;Sw:s&#45;&gt;function&#45;3&#45;RegVal</title>
<path fill="none" stroke="black" d="M616,-332C616,-318.84 616,-304.11 616,-292.3"/>
<polygon fill="black" stroke="black" points="617.75,-295 616,-290 614.25,-295 617.75,-295"/>
</g>
<!-- function&#45;1&#45;Sw&#45;&gt;function&#45;3&#45;ImmVal -->
<g id="edge33" class="edge">
<title>function&#45;1&#45;Sw:s&#45;&gt;function&#45;3&#45;ImmVal</title>
<path fill="none" stroke="black" d="M821,-332C821,-318.84 821,-304.11 821,-292.3"/>
<polygon fill="black" stroke="black" points="822.75,-295 821,-290 819.25,-295 822.75,-295"/>
</g>
<!-- function&#45;1&#45;Sw&#45;&gt;function&#45;0&#45;Addi -->
<g id="edge31" class="edge">
<title>function&#45;1&#45;Sw:s&#45;&gt;function&#45;0&#45;Addi</title>
<path fill="none" stroke="black" d="M802,-332C802,-315.72 791.38,-301.39 779.84,-290.62"/>
<polygon fill="black" stroke="black" points="784.04,-291.3 778.9,-290 782.11,-294.22 784.04,-291.3"/>
</g>
<!-- function&#45;1&#45;Sw&#45;&gt;function&#45;1&#45;RegVal -->
<g id="edge32" class="edge">
<title>function&#45;1&#45;Sw:s&#45;&gt;function&#45;1&#45;RegVal</title>
<path fill="none" stroke="black" d="M814,-332C814,-325.52 840.67,-305.64 863.02,-290.12"/>
<polygon fill="black" stroke="black" points="859.34,-292.26 864.13,-290 858.98,-288.78 859.34,-292.26"/>
</g>
<!-- function&#45;5&#45;Addi&#45;&gt;function&#45;7&#45;ImmVal -->
<g id="edge35" class="edge">
<title>function&#45;5&#45;Addi:s&#45;&gt;function&#45;7&#45;ImmVal</title>
<path fill="none" stroke="black" d="M449,-332C449,-316.23 439.34,-301.76 428.98,-290.78"/>
<polygon fill="black" stroke="black" points="432.7,-290.71 427.45,-290 431.11,-293.83 432.7,-290.71"/>
</g>
<!-- function&#45;5&#45;Addi&#45;&gt;function&#45;1&#45;Lui -->
<g id="edge34" class="edge">
<title>function&#45;5&#45;Addi:s&#45;&gt;function&#45;1&#45;Lui</title>
<path fill="none" stroke="black" d="M429,-332C429,-316.23 438.66,-301.76 449.02,-290.78"/>
<polygon fill="black" stroke="black" points="446.89,-293.83 450.55,-290 445.3,-290.71 446.89,-293.83"/>
</g>
<!-- function&#45;2&#45;Sw&#45;&gt;function&#45;4&#45;ImmVal -->
<g id="edge38" class="edge">
<title>function&#45;2&#45;Sw:s&#45;&gt;function&#45;4&#45;ImmVal</title>
<path fill="none" stroke="black" d="M970,-332C970,-321.22 988.97,-303.99 1006.41,-290.43"/>
<polygon fill="black" stroke="black" points="1003.54,-293.16 1007.8,-290 1002.5,-289.82 1003.54,-293.16"/>
</g>
<!-- function&#45;2&#45;Sw&#45;&gt;function&#45;0&#45;Addi -->
<g id="edge36" class="edge">
<title>function&#45;2&#45;Sw:s&#45;&gt;function&#45;0&#45;Addi</title>
<path fill="none" stroke="black" d="M951,-332C951,-256.65 855.21,-322.81 786,-293 785.48,-292.78 784.96,-292.55 784.44,-292.31"/>
<polygon fill="black" stroke="black" points="785.04,-290.65 779.78,-290 783.48,-293.79 785.04,-290.65"/>
</g>
<!-- function&#45;2&#45;Sw&#45;&gt;function&#45;2&#45;RegVal -->
<g id="edge37" class="edge">
<title>function&#45;2&#45;Sw:s&#45;&gt;function&#45;2&#45;RegVal</title>
<path fill="none" stroke="black" d="M963,-332C963,-318.84 963,-304.11 963,-292.3"/>
<polygon fill="black" stroke="black" points="964.75,-295 963,-290 961.25,-295 964.75,-295"/>
</g>
<!-- function&#45;6&#45;ImmVal -->
<g id="node1" class="node">
<title>function&#45;6&#45;ImmVal</title>
<g id="a_node1"><a xlink:title="Imm&#45;21: function&#45;6&#45;ImmVal">
<path fill="white" stroke="transparent" d="M48.67,-253C48.67,-253 89.33,-253 89.33,-253 94.67,-253 100,-258.33 100,-263.67 100,-263.67 100,-274.33 100,-274.33 100,-279.67 94.67,-285 89.33,-285 89.33,-285 48.67,-285 48.67,-285 43.33,-285 38,-279.67 38,-274.33 38,-274.33 38,-263.67 38,-263.67 38,-258.33 43.33,-253 48.67,-253"/>
<text text-anchor="start" x="43" y="-265.3" font-family="Helvetica,sans-Serif" font-size="14.00">ImmVal</text>
<path fill="none" stroke="black" d="M48.67,-253C48.67,-253 89.33,-253 89.33,-253 94.67,-253 100,-258.33 100,-263.67 100,-263.67 100,-274.33 100,-274.33 100,-279.67 94.67,-285 89.33,-285 89.33,-285 48.67,-285 48.67,-285 43.33,-285 38,-279.67 38,-274.33 38,-274.33 38,-263.67 38,-263.67 38,-258.33 43.33,-253 48.67,-253"/>
</a>
</g>
</g>
<!-- primitive&#45;i64&#45;800 -->
<g id="node2" class="node">
<title>primitive&#45;i64&#45;800</title>
<g id="a_node2"><a xlink:title="i64&#45;800: primitive&#45;i64&#45;800">
<path fill="white" stroke="transparent" d="M32.67,-174C32.67,-174 49.33,-174 49.33,-174 54.67,-174 60,-179.33 60,-184.67 60,-184.67 60,-195.33 60,-195.33 60,-200.67 54.67,-206 49.33,-206 49.33,-206 32.67,-206 32.67,-206 27.33,-206 22,-200.67 22,-195.33 22,-195.33 22,-184.67 22,-184.67 22,-179.33 27.33,-174 32.67,-174"/>
<text text-anchor="start" x="27" y="-186.3" font-family="Helvetica,sans-Serif" font-size="14.00">800</text>
<path fill="none" stroke="black" d="M32.67,-174C32.67,-174 49.33,-174 49.33,-174 54.67,-174 60,-179.33 60,-184.67 60,-184.67 60,-195.33 60,-195.33 60,-200.67 54.67,-206 49.33,-206 49.33,-206 32.67,-206 32.67,-206 27.33,-206 22,-200.67 22,-195.33 22,-195.33 22,-184.67 22,-184.67 22,-179.33 27.33,-174 32.67,-174"/>
</a>
</g>
</g>
<!-- function&#45;7&#45;ImmVal -->
<g id="node3" class="node">
<title>function&#45;7&#45;ImmVal</title>
<g id="a_node3"><a xlink:title="Imm&#45;24: function&#45;7&#45;ImmVal">
<path fill="white" stroke="transparent" d="M383.67,-253C383.67,-253 424.33,-253 424.33,-253 429.67,-253 435,-258.33 435,-263.67 435,-263.67 435,-274.33 435,-274.33 435,-279.67 429.67,-285 424.33,-285 424.33,-285 383.67,-285 383.67,-285 378.33,-285 373,-279.67 373,-274.33 373,-274.33 373,-263.67 373,-263.67 373,-258.33 378.33,-253 383.67,-253"/>
<text text-anchor="start" x="378" y="-265.3" font-family="Helvetica,sans-Serif" font-size="14.00">ImmVal</text>
<path fill="none" stroke="black" d="M383.67,-253C383.67,-253 424.33,-253 424.33,-253 429.67,-253 435,-258.33 435,-263.67 435,-263.67 435,-274.33 435,-274.33 435,-279.67 429.67,-285 424.33,-285 424.33,-285 383.67,-285 383.67,-285 378.33,-285 373,-279.67 373,-274.33 373,-274.33 373,-263.67 373,-263.67 373,-258.33 378.33,-253 383.67,-253"/>
</a>
</g>
</g>
<!-- primitive&#45;i64&#45;1807 -->
<g id="node4" class="node">
<title>primitive&#45;i64&#45;1807</title>
<g id="a_node4"><a xlink:title="i64&#45;1807: primitive&#45;i64&#45;1807">
<path fill="white" stroke="transparent" d="M391.17,-174C391.17,-174 416.83,-174 416.83,-174 422.17,-174 427.5,-179.33 427.5,-184.67 427.5,-184.67 427.5,-195.33 427.5,-195.33 427.5,-200.67 422.17,-206 416.83,-206 416.83,-206 391.17,-206 391.17,-206 385.83,-206 380.5,-200.67 380.5,-195.33 380.5,-195.33 380.5,-184.67 380.5,-184.67 380.5,-179.33 385.83,-174 391.17,-174"/>
<text text-anchor="start" x="386" y="-186.3" font-family="Helvetica,sans-Serif" font-size="14.00">1807</text>
<path fill="none" stroke="black" d="M391.17,-174C391.17,-174 416.83,-174 416.83,-174 422.17,-174 427.5,-179.33 427.5,-184.67 427.5,-184.67 427.5,-195.33 427.5,-195.33 427.5,-200.67 422.17,-206 416.83,-206 416.83,-206 391.17,-206 391.17,-206 385.83,-206 380.5,-200.67 380.5,-195.33 380.5,-195.33 380.5,-184.67 380.5,-184.67 380.5,-179.33 385.83,-174 391.17,-174"/>
</a>
</g>
</g>
<!-- function&#45;1&#45;ImmVal -->
<g id="node5" class="node">
<title>function&#45;1&#45;ImmVal</title>
<g id="a_node5"><a xlink:title="Imm&#45;7: function&#45;1&#45;ImmVal">
<path fill="white" stroke="transparent" d="M523.67,-253C523.67,-253 564.33,-253 564.33,-253 569.67,-253 575,-258.33 575,-263.67 575,-263.67 575,-274.33 575,-274.33 575,-279.67 569.67,-285 564.33,-285 564.33,-285 523.67,-285 523.67,-285 518.33,-285 513,-279.67 513,-274.33 513,-274.33 513,-263.67 513,-263.67 513,-258.33 518.33,-253 523.67,-253"/>
<text text-anchor="start" x="518" y="-265.3" font-family="Helvetica,sans-Serif" font-size="14.00">ImmVal</text>
<path fill="none" stroke="black" d="M523.67,-253C523.67,-253 564.33,-253 564.33,-253 569.67,-253 575,-258.33 575,-263.67 575,-263.67 575,-274.33 575,-274.33 575,-279.67 569.67,-285 564.33,-285 564.33,-285 523.67,-285 523.67,-285 518.33,-285 513,-279.67 513,-274.33 513,-274.33 513,-263.67 513,-263.67 513,-258.33 518.33,-253 523.67,-253"/>
</a>
</g>
</g>
<!-- primitive&#45;i64&#45;52 -->
<g id="node6" class="node">
<title>primitive&#45;i64&#45;52</title>
<g id="a_node6"><a xlink:title="i64&#45;52: primitive&#45;i64&#45;52">
<path fill="white" stroke="transparent" d="M538.67,-174C538.67,-174 549.33,-174 549.33,-174 554.67,-174 560,-179.33 560,-184.67 560,-184.67 560,-195.33 560,-195.33 560,-200.67 554.67,-206 549.33,-206 549.33,-206 538.67,-206 538.67,-206 533.33,-206 528,-200.67 528,-195.33 528,-195.33 528,-184.67 528,-184.67 528,-179.33 533.33,-174 538.67,-174"/>
<text text-anchor="start" x="534.5" y="-186.3" font-family="Helvetica,sans-Serif" font-size="14.00">52</text>
<path fill="none" stroke="black" d="M538.67,-174C538.67,-174 549.33,-174 549.33,-174 554.67,-174 560,-179.33 560,-184.67 560,-184.67 560,-195.33 560,-195.33 560,-200.67 554.67,-206 549.33,-206 549.33,-206 538.67,-206 538.67,-206 533.33,-206 528,-200.67 528,-195.33 528,-195.33 528,-184.67 528,-184.67 528,-179.33 533.33,-174 538.67,-174"/>
</a>
</g>
</g>
<!-- function&#45;3&#45;ImmVal -->
<g id="node7" class="node">
<title>function&#45;3&#45;ImmVal</title>
<g id="a_node7"><a xlink:title="Imm&#45;15: function&#45;3&#45;ImmVal">
<path fill="white" stroke="transparent" d="M800.67,-253C800.67,-253 841.33,-253 841.33,-253 846.67,-253 852,-258.33 852,-263.67 852,-263.67 852,-274.33 852,-274.33 852,-279.67 846.67,-285 841.33,-285 841.33,-285 800.67,-285 800.67,-285 795.33,-285 790,-279.67 790,-274.33 790,-274.33 790,-263.67 790,-263.67 790,-258.33 795.33,-253 800.67,-253"/>
<text text-anchor="start" x="795" y="-265.3" font-family="Helvetica,sans-Serif" font-size="14.00">ImmVal</text>
<path fill="none" stroke="black" d="M800.67,-253C800.67,-253 841.33,-253 841.33,-253 846.67,-253 852,-258.33 852,-263.67 852,-263.67 852,-274.33 852,-274.33 852,-279.67 846.67,-285 841.33,-285 841.33,-285 800.67,-285 800.67,-285 795.33,-285 790,-279.67 790,-274.33 790,-274.33 790,-263.67 790,-263.67 790,-258.33 795.33,-253 800.67,-253"/>
</a>
</g>
</g>
<!-- primitive&#45;i64&#45;76 -->
<g id="node8" class="node">
<title>primitive&#45;i64&#45;76</title>
<g id="a_node8"><a xlink:title="i64&#45;76: primitive&#45;i64&#45;76">
<path fill="white" stroke="transparent" d="M819.67,-174C819.67,-174 830.33,-174 830.33,-174 835.67,-174 841,-179.33 841,-184.67 841,-184.67 841,-195.33 841,-195.33 841,-200.67 835.67,-206 830.33,-206 830.33,-206 819.67,-206 819.67,-206 814.33,-206 809,-200.67 809,-195.33 809,-195.33 809,-184.67 809,-184.67 809,-179.33 814.33,-174 819.67,-174"/>
<text text-anchor="start" x="815.5" y="-186.3" font-family="Helvetica,sans-Serif" font-size="14.00">76</text>
<path fill="none" stroke="black" d="M819.67,-174C819.67,-174 830.33,-174 830.33,-174 835.67,-174 841,-179.33 841,-184.67 841,-184.67 841,-195.33 841,-195.33 841,-200.67 835.67,-206 830.33,-206 830.33,-206 819.67,-206 819.67,-206 814.33,-206 809,-200.67 809,-195.33 809,-195.33 809,-184.67 809,-184.67 809,-179.33 814.33,-174 819.67,-174"/>
</a>
</g>
</g>
<!-- function&#45;0&#45;ImmLabel -->
<g id="node9" class="node">
<title>function&#45;0&#45;ImmLabel</title>
<g id="a_node9"><a xlink:title="Imm&#45;9: function&#45;0&#45;ImmLabel">
<path fill="white" stroke="transparent" d="M194.17,-95C194.17,-95 251.83,-95 251.83,-95 257.17,-95 262.5,-100.33 262.5,-105.67 262.5,-105.67 262.5,-116.33 262.5,-116.33 262.5,-121.67 257.17,-127 251.83,-127 251.83,-127 194.17,-127 194.17,-127 188.83,-127 183.5,-121.67 183.5,-116.33 183.5,-116.33 183.5,-105.67 183.5,-105.67 183.5,-100.33 188.83,-95 194.17,-95"/>
<text text-anchor="start" x="189" y="-107.3" font-family="Helvetica,sans-Serif" font-size="14.00">ImmLabel</text>
<path fill="none" stroke="black" d="M194.17,-95C194.17,-95 251.83,-95 251.83,-95 257.17,-95 262.5,-100.33 262.5,-105.67 262.5,-105.67 262.5,-116.33 262.5,-116.33 262.5,-121.67 257.17,-127 251.83,-127 251.83,-127 194.17,-127 194.17,-127 188.83,-127 183.5,-121.67 183.5,-116.33 183.5,-116.33 183.5,-105.67 183.5,-105.67 183.5,-100.33 188.83,-95 194.17,-95"/>
</a>
</g>
</g>
<!-- primitive&#45;String&#45;5 -->
<g id="node10" class="node">
<title>primitive&#45;String&#45;5</title>
<g id="a_node10"><a xlink:title="String&#45;5: primitive&#45;String&#45;5">
<path fill="white" stroke="transparent" d="M162.67,-16C162.67,-16 285.33,-16 285.33,-16 290.67,-16 296,-21.33 296,-26.67 296,-26.67 296,-37.33 296,-37.33 296,-42.67 290.67,-48 285.33,-48 285.33,-48 162.67,-48 162.67,-48 157.33,-48 152,-42.67 152,-37.33 152,-37.33 152,-26.67 152,-26.67 152,-21.33 157.33,-16 162.67,-16"/>
<text text-anchor="start" x="157" y="-28.3" font-family="Helvetica,sans-Serif" font-size="14.00">&quot;%hi(.LANCHOR0)&quot;</text>
<path fill="none" stroke="black" d="M162.67,-16C162.67,-16 285.33,-16 285.33,-16 290.67,-16 296,-21.33 296,-26.67 296,-26.67 296,-37.33 296,-37.33 296,-42.67 290.67,-48 285.33,-48 285.33,-48 162.67,-48 162.67,-48 157.33,-48 152,-42.67 152,-37.33 152,-37.33 152,-26.67 152,-26.67 152,-21.33 157.33,-16 162.67,-16"/>
</a>
</g>
</g>
<!-- function&#45;0&#45;ImmVal -->
<g id="node11" class="node">
<title>function&#45;0&#45;ImmVal</title>
<g id="a_node11"><a xlink:title="Imm&#45;5: function&#45;0&#45;ImmVal">
<path fill="white" stroke="transparent" d="M664.67,-174C664.67,-174 705.33,-174 705.33,-174 710.67,-174 716,-179.33 716,-184.67 716,-184.67 716,-195.33 716,-195.33 716,-200.67 710.67,-206 705.33,-206 705.33,-206 664.67,-206 664.67,-206 659.33,-206 654,-200.67 654,-195.33 654,-195.33 654,-184.67 654,-184.67 654,-179.33 659.33,-174 664.67,-174"/>
<text text-anchor="start" x="659" y="-186.3" font-family="Helvetica,sans-Serif" font-size="14.00">ImmVal</text>
<path fill="none" stroke="black" d="M664.67,-174C664.67,-174 705.33,-174 705.33,-174 710.67,-174 716,-179.33 716,-184.67 716,-184.67 716,-195.33 716,-195.33 716,-200.67 710.67,-206 705.33,-206 705.33,-206 664.67,-206 664.67,-206 659.33,-206 654,-200.67 654,-195.33 654,-195.33 654,-184.67 654,-184.67 654,-179.33 659.33,-174 664.67,-174"/>
</a>
</g>
</g>
<!-- primitive&#45;i64&#45;2147483649 -->
<g id="node12" class="node">
<title>primitive&#45;i64&#45;2147483649</title>
<g id="a_node12"><a xlink:title="i64&#45;2147483649: primitive&#45;i64&#45;2147483649">
<path fill="white" stroke="transparent" d="M678.67,-95C678.67,-95 691.33,-95 691.33,-95 696.67,-95 702,-100.33 702,-105.67 702,-105.67 702,-116.33 702,-116.33 702,-121.67 696.67,-127 691.33,-127 691.33,-127 678.67,-127 678.67,-127 673.33,-127 668,-121.67 668,-116.33 668,-116.33 668,-105.67 668,-105.67 668,-100.33 673.33,-95 678.67,-95"/>
<text text-anchor="start" x="673" y="-107.3" font-family="Helvetica,sans-Serif" font-size="14.00">&#45;80</text>
<path fill="none" stroke="black" d="M678.67,-95C678.67,-95 691.33,-95 691.33,-95 696.67,-95 702,-100.33 702,-105.67 702,-105.67 702,-116.33 702,-116.33 702,-121.67 696.67,-127 691.33,-127 691.33,-127 678.67,-127 678.67,-127 673.33,-127 668,-121.67 668,-116.33 668,-116.33 668,-105.67 668,-105.67 668,-100.33 673.33,-95 678.67,-95"/>
</a>
</g>
</g>
<!-- function&#45;1&#45;ImmLabel -->
<g id="node13" class="node">
<title>function&#45;1&#45;ImmLabel</title>
<g id="a_node13"><a xlink:title="Imm&#45;11: function&#45;1&#45;ImmLabel">
<path fill="white" stroke="transparent" d="M90.17,-174C90.17,-174 147.83,-174 147.83,-174 153.17,-174 158.5,-179.33 158.5,-184.67 158.5,-184.67 158.5,-195.33 158.5,-195.33 158.5,-200.67 153.17,-206 147.83,-206 147.83,-206 90.17,-206 90.17,-206 84.83,-206 79.5,-200.67 79.5,-195.33 79.5,-195.33 79.5,-184.67 79.5,-184.67 79.5,-179.33 84.83,-174 90.17,-174"/>
<text text-anchor="start" x="85" y="-186.3" font-family="Helvetica,sans-Serif" font-size="14.00">ImmLabel</text>
<path fill="none" stroke="black" d="M90.17,-174C90.17,-174 147.83,-174 147.83,-174 153.17,-174 158.5,-179.33 158.5,-184.67 158.5,-184.67 158.5,-195.33 158.5,-195.33 158.5,-200.67 153.17,-206 147.83,-206 147.83,-206 90.17,-206 90.17,-206 84.83,-206 79.5,-200.67 79.5,-195.33 79.5,-195.33 79.5,-184.67 79.5,-184.67 79.5,-179.33 84.83,-174 90.17,-174"/>
</a>
</g>
</g>
<!-- primitive&#45;String&#45;6 -->
<g id="node14" class="node">
<title>primitive&#45;String&#45;6</title>
<g id="a_node14"><a xlink:title="String&#45;6: primitive&#45;String&#45;6">
<path fill="white" stroke="transparent" d="M39.17,-95C39.17,-95 160.83,-95 160.83,-95 166.17,-95 171.5,-100.33 171.5,-105.67 171.5,-105.67 171.5,-116.33 171.5,-116.33 171.5,-121.67 166.17,-127 160.83,-127 160.83,-127 39.17,-127 39.17,-127 33.83,-127 28.5,-121.67 28.5,-116.33 28.5,-116.33 28.5,-105.67 28.5,-105.67 28.5,-100.33 33.83,-95 39.17,-95"/>
<text text-anchor="start" x="34" y="-107.3" font-family="Helvetica,sans-Serif" font-size="14.00">&quot;%lo(.LANCHOR0)&quot;</text>
<path fill="none" stroke="black" d="M39.17,-95C39.17,-95 160.83,-95 160.83,-95 166.17,-95 171.5,-100.33 171.5,-105.67 171.5,-105.67 171.5,-116.33 171.5,-116.33 171.5,-121.67 166.17,-127 160.83,-127 160.83,-127 39.17,-127 39.17,-127 33.83,-127 28.5,-121.67 28.5,-116.33 28.5,-116.33 28.5,-105.67 28.5,-105.67 28.5,-100.33 33.83,-95 39.17,-95"/>
</a>
</g>
</g>
<!-- function&#45;2&#45;ImmVal -->
<g id="node15" class="node">
<title>function&#45;2&#45;ImmVal</title>
<g id="a_node15"><a xlink:title="Imm&#45;13: function&#45;2&#45;ImmVal">
<path fill="white" stroke="transparent" d="M453.67,-174C453.67,-174 494.33,-174 494.33,-174 499.67,-174 505,-179.33 505,-184.67 505,-184.67 505,-195.33 505,-195.33 505,-200.67 499.67,-206 494.33,-206 494.33,-206 453.67,-206 453.67,-206 448.33,-206 443,-200.67 443,-195.33 443,-195.33 443,-184.67 443,-184.67 443,-179.33 448.33,-174 453.67,-174"/>
<text text-anchor="start" x="448" y="-186.3" font-family="Helvetica,sans-Serif" font-size="14.00">ImmVal</text>
<path fill="none" stroke="black" d="M453.67,-174C453.67,-174 494.33,-174 494.33,-174 499.67,-174 505,-179.33 505,-184.67 505,-184.67 505,-195.33 505,-195.33 505,-200.67 499.67,-206 494.33,-206 494.33,-206 453.67,-206 453.67,-206 448.33,-206 443,-200.67 443,-195.33 443,-195.33 443,-184.67 443,-184.67 443,-179.33 448.33,-174 453.67,-174"/>
</a>
</g>
</g>
<!-- primitive&#45;i64&#45;2 -->
<g id="node16" class="node">
<title>primitive&#45;i64&#45;2</title>
<g id="a_node16"><a xlink:title="i64&#45;2: primitive&#45;i64&#45;2">
<path fill="white" stroke="transparent" d="M468.67,-95C468.67,-95 479.33,-95 479.33,-95 484.67,-95 490,-100.33 490,-105.67 490,-105.67 490,-116.33 490,-116.33 490,-121.67 484.67,-127 479.33,-127 479.33,-127 468.67,-127 468.67,-127 463.33,-127 458,-121.67 458,-116.33 458,-116.33 458,-105.67 458,-105.67 458,-100.33 463.33,-95 468.67,-95"/>
<text text-anchor="start" x="469" y="-107.3" font-family="Helvetica,sans-Serif" font-size="14.00">2</text>
<path fill="none" stroke="black" d="M468.67,-95C468.67,-95 479.33,-95 479.33,-95 484.67,-95 490,-100.33 490,-105.67 490,-105.67 490,-116.33 490,-116.33 490,-121.67 484.67,-127 479.33,-127 479.33,-127 468.67,-127 468.67,-127 463.33,-127 458,-121.67 458,-116.33 458,-116.33 458,-105.67 458,-105.67 458,-100.33 463.33,-95 468.67,-95"/>
</a>
</g>
</g>
<!-- function&#45;4&#45;ImmVal -->
<g id="node17" class="node">
<title>function&#45;4&#45;ImmVal</title>
<g id="a_node17"><a xlink:title="Imm&#45;17: function&#45;4&#45;ImmVal">
<path fill="white" stroke="transparent" d="M1014.67,-253C1014.67,-253 1055.33,-253 1055.33,-253 1060.67,-253 1066,-258.33 1066,-263.67 1066,-263.67 1066,-274.33 1066,-274.33 1066,-279.67 1060.67,-285 1055.33,-285 1055.33,-285 1014.67,-285 1014.67,-285 1009.33,-285 1004,-279.67 1004,-274.33 1004,-274.33 1004,-263.67 1004,-263.67 1004,-258.33 1009.33,-253 1014.67,-253"/>
<text text-anchor="start" x="1009" y="-265.3" font-family="Helvetica,sans-Serif" font-size="14.00">ImmVal</text>
<path fill="none" stroke="black" d="M1014.67,-253C1014.67,-253 1055.33,-253 1055.33,-253 1060.67,-253 1066,-258.33 1066,-263.67 1066,-263.67 1066,-274.33 1066,-274.33 1066,-279.67 1060.67,-285 1055.33,-285 1055.33,-285 1014.67,-285 1014.67,-285 1009.33,-285 1004,-279.67 1004,-274.33 1004,-274.33 1004,-263.67 1004,-263.67 1004,-258.33 1009.33,-253 1014.67,-253"/>
</a>
</g>
</g>
<!-- primitive&#45;i64&#45;72 -->
<g id="node18" class="node">
<title>primitive&#45;i64&#45;72</title>
<g id="a_node18"><a xlink:title="i64&#45;72: primitive&#45;i64&#45;72">
<path fill="white" stroke="transparent" d="M1029.67,-174C1029.67,-174 1040.33,-174 1040.33,-174 1045.67,-174 1051,-179.33 1051,-184.67 1051,-184.67 1051,-195.33 1051,-195.33 1051,-200.67 1045.67,-206 1040.33,-206 1040.33,-206 1029.67,-206 1029.67,-206 1024.33,-206 1019,-200.67 1019,-195.33 1019,-195.33 1019,-184.67 1019,-184.67 1019,-179.33 1024.33,-174 1029.67,-174"/>
<text text-anchor="start" x="1025.5" y="-186.3" font-family="Helvetica,sans-Serif" font-size="14.00">72</text>
<path fill="none" stroke="black" d="M1029.67,-174C1029.67,-174 1040.33,-174 1040.33,-174 1045.67,-174 1051,-179.33 1051,-184.67 1051,-184.67 1051,-195.33 1051,-195.33 1051,-200.67 1045.67,-206 1040.33,-206 1040.33,-206 1029.67,-206 1029.67,-206 1024.33,-206 1019,-200.67 1019,-195.33 1019,-195.33 1019,-184.67 1019,-184.67 1019,-179.33 1024.33,-174 1029.67,-174"/>
</a>
</g>
</g>
<!-- function&#45;5&#45;ImmVal -->
<g id="node19" class="node">
<title>function&#45;5&#45;ImmVal</title>
<g id="a_node19"><a xlink:title="Imm&#45;19: function&#45;5&#45;ImmVal">
<path fill="white" stroke="transparent" d="M239.67,-253C239.67,-253 280.33,-253 280.33,-253 285.67,-253 291,-258.33 291,-263.67 291,-263.67 291,-274.33 291,-274.33 291,-279.67 285.67,-285 280.33,-285 280.33,-285 239.67,-285 239.67,-285 234.33,-285 229,-279.67 229,-274.33 229,-274.33 229,-263.67 229,-263.67 229,-258.33 234.33,-253 239.67,-253"/>
<text text-anchor="start" x="234" y="-265.3" font-family="Helvetica,sans-Serif" font-size="14.00">ImmVal</text>
<path fill="none" stroke="black" d="M239.67,-253C239.67,-253 280.33,-253 280.33,-253 285.67,-253 291,-258.33 291,-263.67 291,-263.67 291,-274.33 291,-274.33 291,-279.67 285.67,-285 280.33,-285 280.33,-285 239.67,-285 239.67,-285 234.33,-285 229,-279.67 229,-274.33 229,-274.33 229,-263.67 229,-263.67 229,-258.33 234.33,-253 239.67,-253"/>
</a>
</g>
</g>
<!-- primitive&#45;i64&#45;0 -->
<g id="node20" class="node">
<title>primitive&#45;i64&#45;0</title>
<g id="a_node20"><a xlink:title="i64&#45;0: primitive&#45;i64&#45;0">
<path fill="white" stroke="transparent" d="M257.67,-174C257.67,-174 268.33,-174 268.33,-174 273.67,-174 279,-179.33 279,-184.67 279,-184.67 279,-195.33 279,-195.33 279,-200.67 273.67,-206 268.33,-206 268.33,-206 257.67,-206 257.67,-206 252.33,-206 247,-200.67 247,-195.33 247,-195.33 247,-184.67 247,-184.67 247,-179.33 252.33,-174 257.67,-174"/>
<text text-anchor="start" x="258" y="-186.3" font-family="Helvetica,sans-Serif" font-size="14.00">0</text>
<path fill="none" stroke="black" d="M257.67,-174C257.67,-174 268.33,-174 268.33,-174 273.67,-174 279,-179.33 279,-184.67 279,-184.67 279,-195.33 279,-195.33 279,-200.67 273.67,-206 268.33,-206 268.33,-206 257.67,-206 257.67,-206 252.33,-206 247,-200.67 247,-195.33 247,-195.33 247,-184.67 247,-184.67 247,-179.33 252.33,-174 257.67,-174"/>
</a>
</g>
</g>
<!-- function&#45;1&#45;Lui -->
<g id="node21" class="node">
<title>function&#45;1&#45;Lui</title>
<g id="a_node21"><a xlink:title="Inst&#45;14: function&#45;1&#45;Lui">
<path fill="white" stroke="transparent" d="M468.67,-253C468.67,-253 479.33,-253 479.33,-253 484.67,-253 490,-258.33 490,-263.67 490,-263.67 490,-274.33 490,-274.33 490,-279.67 484.67,-285 479.33,-285 479.33,-285 468.67,-285 468.67,-285 463.33,-285 458,-279.67 458,-274.33 458,-274.33 458,-263.67 458,-263.67 458,-258.33 463.33,-253 468.67,-253"/>
<text text-anchor="start" x="463.5" y="-265.3" font-family="Helvetica,sans-Serif" font-size="14.00">Lui</text>
<path fill="none" stroke="black" d="M468.67,-253C468.67,-253 479.33,-253 479.33,-253 484.67,-253 490,-258.33 490,-263.67 490,-263.67 490,-274.33 490,-274.33 490,-279.67 484.67,-285 479.33,-285 479.33,-285 468.67,-285 468.67,-285 463.33,-285 458,-279.67 458,-274.33 458,-274.33 458,-263.67 458,-263.67 458,-258.33 463.33,-253 468.67,-253"/>
</a>
</g>
</g>
<!-- function&#45;0&#45;Addi -->
<g id="node22" class="node">
<title>function&#45;0&#45;Addi</title>
<g id="a_node22"><a xlink:title="Inst&#45;6: function&#45;0&#45;Addi">
<path fill="white" stroke="transparent" d="M741.17,-253C741.17,-253 760.83,-253 760.83,-253 766.17,-253 771.5,-258.33 771.5,-263.67 771.5,-263.67 771.5,-274.33 771.5,-274.33 771.5,-279.67 766.17,-285 760.83,-285 760.83,-285 741.17,-285 741.17,-285 735.83,-285 730.5,-279.67 730.5,-274.33 730.5,-274.33 730.5,-263.67 730.5,-263.67 730.5,-258.33 735.83,-253 741.17,-253"/>
<text text-anchor="start" x="736" y="-265.3" font-family="Helvetica,sans-Serif" font-size="14.00">Addi</text>
<path fill="none" stroke="black" d="M741.17,-253C741.17,-253 760.83,-253 760.83,-253 766.17,-253 771.5,-258.33 771.5,-263.67 771.5,-263.67 771.5,-274.33 771.5,-274.33 771.5,-279.67 766.17,-285 760.83,-285 760.83,-285 741.17,-285 741.17,-285 735.83,-285 730.5,-279.67 730.5,-274.33 730.5,-274.33 730.5,-263.67 730.5,-263.67 730.5,-258.33 735.83,-253 741.17,-253"/>
</a>
</g>
</g>
<!-- function&#45;4&#45;RegVal -->
<g id="node23" class="node">
<title>function&#45;4&#45;RegVal</title>
<g id="a_node23"><a xlink:title="Inst&#45;4: function&#45;4&#45;RegVal">
<path fill="white" stroke="transparent" d="M739.17,-174C739.17,-174 774.83,-174 774.83,-174 780.17,-174 785.5,-179.33 785.5,-184.67 785.5,-184.67 785.5,-195.33 785.5,-195.33 785.5,-200.67 780.17,-206 774.83,-206 774.83,-206 739.17,-206 739.17,-206 733.83,-206 728.5,-200.67 728.5,-195.33 728.5,-195.33 728.5,-184.67 728.5,-184.67 728.5,-179.33 733.83,-174 739.17,-174"/>
<text text-anchor="start" x="734" y="-186.3" font-family="Helvetica,sans-Serif" font-size="14.00">RegVal</text>
<path fill="none" stroke="black" d="M739.17,-174C739.17,-174 774.83,-174 774.83,-174 780.17,-174 785.5,-179.33 785.5,-184.67 785.5,-184.67 785.5,-195.33 785.5,-195.33 785.5,-200.67 780.17,-206 774.83,-206 774.83,-206 739.17,-206 739.17,-206 733.83,-206 728.5,-200.67 728.5,-195.33 728.5,-195.33 728.5,-184.67 728.5,-184.67 728.5,-179.33 733.83,-174 739.17,-174"/>
</a>
</g>
</g>
<!-- function&#45;2&#45;Addi -->
<g id="node24" class="node">
<title>function&#45;2&#45;Addi</title>
<g id="a_node24"><a xlink:title="Inst&#45;20: function&#45;2&#45;Addi">
<path fill="white" stroke="transparent" d="M260.17,-332C260.17,-332 279.83,-332 279.83,-332 285.17,-332 290.5,-337.33 290.5,-342.67 290.5,-342.67 290.5,-353.33 290.5,-353.33 290.5,-358.67 285.17,-364 279.83,-364 279.83,-364 260.17,-364 260.17,-364 254.83,-364 249.5,-358.67 249.5,-353.33 249.5,-353.33 249.5,-342.67 249.5,-342.67 249.5,-337.33 254.83,-332 260.17,-332"/>
<text text-anchor="start" x="255" y="-344.3" font-family="Helvetica,sans-Serif" font-size="14.00">Addi</text>
<path fill="none" stroke="black" d="M260.17,-332C260.17,-332 279.83,-332 279.83,-332 285.17,-332 290.5,-337.33 290.5,-342.67 290.5,-342.67 290.5,-353.33 290.5,-353.33 290.5,-358.67 285.17,-364 279.83,-364 279.83,-364 260.17,-364 260.17,-364 254.83,-364 249.5,-358.67 249.5,-353.33 249.5,-353.33 249.5,-342.67 249.5,-342.67 249.5,-337.33 254.83,-332 260.17,-332"/>
</a>
</g>
</g>
<!-- function&#45;0&#45;RegVal -->
<g id="node25" class="node">
<title>function&#45;0&#45;RegVal</title>
<g id="a_node25"><a xlink:title="Inst&#45;0: function&#45;0&#45;RegVal">
<path fill="white" stroke="transparent" d="M314.17,-253C314.17,-253 349.83,-253 349.83,-253 355.17,-253 360.5,-258.33 360.5,-263.67 360.5,-263.67 360.5,-274.33 360.5,-274.33 360.5,-279.67 355.17,-285 349.83,-285 349.83,-285 314.17,-285 314.17,-285 308.83,-285 303.5,-279.67 303.5,-274.33 303.5,-274.33 303.5,-263.67 303.5,-263.67 303.5,-258.33 308.83,-253 314.17,-253"/>
<text text-anchor="start" x="309" y="-265.3" font-family="Helvetica,sans-Serif" font-size="14.00">RegVal</text>
<path fill="none" stroke="black" d="M314.17,-253C314.17,-253 349.83,-253 349.83,-253 355.17,-253 360.5,-258.33 360.5,-263.67 360.5,-263.67 360.5,-274.33 360.5,-274.33 360.5,-279.67 355.17,-285 349.83,-285 349.83,-285 314.17,-285 314.17,-285 308.83,-285 303.5,-279.67 303.5,-274.33 303.5,-274.33 303.5,-263.67 303.5,-263.67 303.5,-258.33 308.83,-253 314.17,-253"/>
</a>
</g>
</g>
<!-- function&#45;0&#45;Lui -->
<g id="node26" class="node">
<title>function&#45;0&#45;Lui</title>
<g id="a_node26"><a xlink:title="Inst&#45;10: function&#45;0&#45;Lui">
<path fill="white" stroke="transparent" d="M191.67,-174C191.67,-174 202.33,-174 202.33,-174 207.67,-174 213,-179.33 213,-184.67 213,-184.67 213,-195.33 213,-195.33 213,-200.67 207.67,-206 202.33,-206 202.33,-206 191.67,-206 191.67,-206 186.33,-206 181,-200.67 181,-195.33 181,-195.33 181,-184.67 181,-184.67 181,-179.33 186.33,-174 191.67,-174"/>
<text text-anchor="start" x="186.5" y="-186.3" font-family="Helvetica,sans-Serif" font-size="14.00">Lui</text>
<path fill="none" stroke="black" d="M191.67,-174C191.67,-174 202.33,-174 202.33,-174 207.67,-174 213,-179.33 213,-184.67 213,-184.67 213,-195.33 213,-195.33 213,-200.67 207.67,-206 202.33,-206 202.33,-206 191.67,-206 191.67,-206 186.33,-206 181,-200.67 181,-195.33 181,-195.33 181,-184.67 181,-184.67 181,-179.33 186.33,-174 191.67,-174"/>
</a>
</g>
</g>
<!-- function&#45;1&#45;RegVal -->
<g id="node27" class="node">
<title>function&#45;1&#45;RegVal</title>
<g id="a_node27"><a xlink:title="Inst&#45;1: function&#45;1&#45;RegVal">
<path fill="white" stroke="transparent" d="M875.17,-253C875.17,-253 910.83,-253 910.83,-253 916.17,-253 921.5,-258.33 921.5,-263.67 921.5,-263.67 921.5,-274.33 921.5,-274.33 921.5,-279.67 916.17,-285 910.83,-285 910.83,-285 875.17,-285 875.17,-285 869.83,-285 864.5,-279.67 864.5,-274.33 864.5,-274.33 864.5,-263.67 864.5,-263.67 864.5,-258.33 869.83,-253 875.17,-253"/>
<text text-anchor="start" x="870" y="-265.3" font-family="Helvetica,sans-Serif" font-size="14.00">RegVal</text>
<path fill="none" stroke="black" d="M875.17,-253C875.17,-253 910.83,-253 910.83,-253 916.17,-253 921.5,-258.33 921.5,-263.67 921.5,-263.67 921.5,-274.33 921.5,-274.33 921.5,-279.67 916.17,-285 910.83,-285 910.83,-285 875.17,-285 875.17,-285 869.83,-285 864.5,-279.67 864.5,-274.33 864.5,-274.33 864.5,-263.67 864.5,-263.67 864.5,-258.33 869.83,-253 875.17,-253"/>
</a>
</g>
</g>
<!-- primitive&#45;String&#45;1 -->
<g id="node28" class="node">
<title>primitive&#45;String&#45;1</title>
<g id="a_node28"><a xlink:title="String&#45;1: primitive&#45;String&#45;1">
<path fill="white" stroke="transparent" d="M877.67,-174C877.67,-174 910.33,-174 910.33,-174 915.67,-174 921,-179.33 921,-184.67 921,-184.67 921,-195.33 921,-195.33 921,-200.67 915.67,-206 910.33,-206 910.33,-206 877.67,-206 877.67,-206 872.33,-206 867,-200.67 867,-195.33 867,-195.33 867,-184.67 867,-184.67 867,-179.33 872.33,-174 877.67,-174"/>
<text text-anchor="start" x="872" y="-186.3" font-family="Helvetica,sans-Serif" font-size="14.00">&quot;ra_0&quot;</text>
<path fill="none" stroke="black" d="M877.67,-174C877.67,-174 910.33,-174 910.33,-174 915.67,-174 921,-179.33 921,-184.67 921,-184.67 921,-195.33 921,-195.33 921,-200.67 915.67,-206 910.33,-206 910.33,-206 877.67,-206 877.67,-206 872.33,-206 867,-200.67 867,-195.33 867,-195.33 867,-184.67 867,-184.67 867,-179.33 872.33,-174 877.67,-174"/>
</a>
</g>
</g>
<!-- function&#45;3&#45;RegVal -->
<g id="node29" class="node">
<title>function&#45;3&#45;RegVal</title>
<g id="a_node29"><a xlink:title="Inst&#45;3: function&#45;3&#45;RegVal">
<path fill="white" stroke="transparent" d="M598.17,-253C598.17,-253 633.83,-253 633.83,-253 639.17,-253 644.5,-258.33 644.5,-263.67 644.5,-263.67 644.5,-274.33 644.5,-274.33 644.5,-279.67 639.17,-285 633.83,-285 633.83,-285 598.17,-285 598.17,-285 592.83,-285 587.5,-279.67 587.5,-274.33 587.5,-274.33 587.5,-263.67 587.5,-263.67 587.5,-258.33 592.83,-253 598.17,-253"/>
<text text-anchor="start" x="593" y="-265.3" font-family="Helvetica,sans-Serif" font-size="14.00">RegVal</text>
<path fill="none" stroke="black" d="M598.17,-253C598.17,-253 633.83,-253 633.83,-253 639.17,-253 644.5,-258.33 644.5,-263.67 644.5,-263.67 644.5,-274.33 644.5,-274.33 644.5,-279.67 639.17,-285 633.83,-285 633.83,-285 598.17,-285 598.17,-285 592.83,-285 587.5,-279.67 587.5,-274.33 587.5,-274.33 587.5,-263.67 587.5,-263.67 587.5,-258.33 592.83,-253 598.17,-253"/>
</a>
</g>
</g>
<!-- primitive&#45;String&#45;3 -->
<g id="node30" class="node">
<title>primitive&#45;String&#45;3</title>
<g id="a_node30"><a xlink:title="String&#45;3: primitive&#45;String&#45;3">
<path fill="white" stroke="transparent" d="M596.67,-174C596.67,-174 631.33,-174 631.33,-174 636.67,-174 642,-179.33 642,-184.67 642,-184.67 642,-195.33 642,-195.33 642,-200.67 636.67,-206 631.33,-206 631.33,-206 596.67,-206 596.67,-206 591.33,-206 586,-200.67 586,-195.33 586,-195.33 586,-184.67 586,-184.67 586,-179.33 591.33,-174 596.67,-174"/>
<text text-anchor="start" x="591" y="-186.3" font-family="Helvetica,sans-Serif" font-size="14.00">&quot;s5_0&quot;</text>
<path fill="none" stroke="black" d="M596.67,-174C596.67,-174 631.33,-174 631.33,-174 636.67,-174 642,-179.33 642,-184.67 642,-184.67 642,-195.33 642,-195.33 642,-200.67 636.67,-206 631.33,-206 631.33,-206 596.67,-206 596.67,-206 591.33,-206 586,-200.67 586,-195.33 586,-195.33 586,-184.67 586,-184.67 586,-179.33 591.33,-174 596.67,-174"/>
</a>
</g>
</g>
<!-- function&#45;1&#45;Addi -->
<g id="node31" class="node">
<title>function&#45;1&#45;Addi</title>
<g id="a_node31"><a xlink:title="Inst&#45;12: function&#45;1&#45;Addi">
<path fill="white" stroke="transparent" d="M160.17,-253C160.17,-253 179.83,-253 179.83,-253 185.17,-253 190.5,-258.33 190.5,-263.67 190.5,-263.67 190.5,-274.33 190.5,-274.33 190.5,-279.67 185.17,-285 179.83,-285 179.83,-285 160.17,-285 160.17,-285 154.83,-285 149.5,-279.67 149.5,-274.33 149.5,-274.33 149.5,-263.67 149.5,-263.67 149.5,-258.33 154.83,-253 160.17,-253"/>
<text text-anchor="start" x="155" y="-265.3" font-family="Helvetica,sans-Serif" font-size="14.00">Addi</text>
<path fill="none" stroke="black" d="M160.17,-253C160.17,-253 179.83,-253 179.83,-253 185.17,-253 190.5,-258.33 190.5,-263.67 190.5,-263.67 190.5,-274.33 190.5,-274.33 190.5,-279.67 185.17,-285 179.83,-285 179.83,-285 160.17,-285 160.17,-285 154.83,-285 149.5,-279.67 149.5,-274.33 149.5,-274.33 149.5,-263.67 149.5,-263.67 149.5,-258.33 154.83,-253 160.17,-253"/>
</a>
</g>
</g>
<!-- function&#45;2&#45;RegVal -->
<g id="node32" class="node">
<title>function&#45;2&#45;RegVal</title>
<g id="a_node32"><a xlink:title="Inst&#45;2: function&#45;2&#45;RegVal">
<path fill="white" stroke="transparent" d="M945.17,-253C945.17,-253 980.83,-253 980.83,-253 986.17,-253 991.5,-258.33 991.5,-263.67 991.5,-263.67 991.5,-274.33 991.5,-274.33 991.5,-279.67 986.17,-285 980.83,-285 980.83,-285 945.17,-285 945.17,-285 939.83,-285 934.5,-279.67 934.5,-274.33 934.5,-274.33 934.5,-263.67 934.5,-263.67 934.5,-258.33 939.83,-253 945.17,-253"/>
<text text-anchor="start" x="940" y="-265.3" font-family="Helvetica,sans-Serif" font-size="14.00">RegVal</text>
<path fill="none" stroke="black" d="M945.17,-253C945.17,-253 980.83,-253 980.83,-253 986.17,-253 991.5,-258.33 991.5,-263.67 991.5,-263.67 991.5,-274.33 991.5,-274.33 991.5,-279.67 986.17,-285 980.83,-285 980.83,-285 945.17,-285 945.17,-285 939.83,-285 934.5,-279.67 934.5,-274.33 934.5,-274.33 934.5,-263.67 934.5,-263.67 934.5,-258.33 939.83,-253 945.17,-253"/>
</a>
</g>
</g>
<!-- primitive&#45;String&#45;2 -->
<g id="node33" class="node">
<title>primitive&#45;String&#45;2</title>
<g id="a_node33"><a xlink:title="String&#45;2: primitive&#45;String&#45;2">
<path fill="white" stroke="transparent" d="M946.67,-174C946.67,-174 981.33,-174 981.33,-174 986.67,-174 992,-179.33 992,-184.67 992,-184.67 992,-195.33 992,-195.33 992,-200.67 986.67,-206 981.33,-206 981.33,-206 946.67,-206 946.67,-206 941.33,-206 936,-200.67 936,-195.33 936,-195.33 936,-184.67 936,-184.67 936,-179.33 941.33,-174 946.67,-174"/>
<text text-anchor="start" x="941" y="-186.3" font-family="Helvetica,sans-Serif" font-size="14.00">&quot;s0_0&quot;</text>
<path fill="none" stroke="black" d="M946.67,-174C946.67,-174 981.33,-174 981.33,-174 986.67,-174 992,-179.33 992,-184.67 992,-184.67 992,-195.33 992,-195.33 992,-200.67 986.67,-206 981.33,-206 981.33,-206 946.67,-206 946.67,-206 941.33,-206 936,-200.67 936,-195.33 936,-195.33 936,-184.67 936,-184.67 936,-179.33 941.33,-174 946.67,-174"/>
</a>
</g>
</g>
<!-- primitive&#45;String&#45;4 -->
<g id="node34" class="node">
<title>primitive&#45;String&#45;4</title>
<g id="a_node34"><a xlink:title="String&#45;4: primitive&#45;String&#45;4">
<path fill="white" stroke="transparent" d="M740.67,-95C740.67,-95 775.33,-95 775.33,-95 780.67,-95 786,-100.33 786,-105.67 786,-105.67 786,-116.33 786,-116.33 786,-121.67 780.67,-127 775.33,-127 775.33,-127 740.67,-127 740.67,-127 735.33,-127 730,-121.67 730,-116.33 730,-116.33 730,-105.67 730,-105.67 730,-100.33 735.33,-95 740.67,-95"/>
<text text-anchor="start" x="735" y="-107.3" font-family="Helvetica,sans-Serif" font-size="14.00">&quot;sp_0&quot;</text>
<path fill="none" stroke="black" d="M740.67,-95C740.67,-95 775.33,-95 775.33,-95 780.67,-95 786,-100.33 786,-105.67 786,-105.67 786,-116.33 786,-116.33 786,-121.67 780.67,-127 775.33,-127 775.33,-127 740.67,-127 740.67,-127 735.33,-127 730,-121.67 730,-116.33 730,-116.33 730,-105.67 730,-105.67 730,-100.33 735.33,-95 740.67,-95"/>
</a>
</g>
</g>
<!-- function&#45;3&#45;Addi -->
<g id="node35" class="node">
<title>function&#45;3&#45;Addi</title>
<g id="a_node35"><a xlink:title="Inst&#45;22: function&#45;3&#45;Addi">
<path fill="white" stroke="transparent" d="M85.17,-332C85.17,-332 104.83,-332 104.83,-332 110.17,-332 115.5,-337.33 115.5,-342.67 115.5,-342.67 115.5,-353.33 115.5,-353.33 115.5,-358.67 110.17,-364 104.83,-364 104.83,-364 85.17,-364 85.17,-364 79.83,-364 74.5,-358.67 74.5,-353.33 74.5,-353.33 74.5,-342.67 74.5,-342.67 74.5,-337.33 79.83,-332 85.17,-332"/>
<text text-anchor="start" x="80" y="-344.3" font-family="Helvetica,sans-Serif" font-size="14.00">Addi</text>
<path fill="none" stroke="black" d="M85.17,-332C85.17,-332 104.83,-332 104.83,-332 110.17,-332 115.5,-337.33 115.5,-342.67 115.5,-342.67 115.5,-353.33 115.5,-353.33 115.5,-358.67 110.17,-364 104.83,-364 104.83,-364 85.17,-364 85.17,-364 79.83,-364 74.5,-358.67 74.5,-353.33 74.5,-353.33 74.5,-342.67 74.5,-342.67 74.5,-337.33 79.83,-332 85.17,-332"/>
</a>
</g>
</g>
<!-- primitive&#45;String&#45;0 -->
<g id="node36" class="node">
<title>primitive&#45;String&#45;0</title>
<g id="a_node36"><a xlink:title="String&#45;0: primitive&#45;String&#45;0">
<path fill="white" stroke="transparent" d="M315.17,-174C315.17,-174 350.83,-174 350.83,-174 356.17,-174 361.5,-179.33 361.5,-184.67 361.5,-184.67 361.5,-195.33 361.5,-195.33 361.5,-200.67 356.17,-206 350.83,-206 350.83,-206 315.17,-206 315.17,-206 309.83,-206 304.5,-200.67 304.5,-195.33 304.5,-195.33 304.5,-184.67 304.5,-184.67 304.5,-179.33 309.83,-174 315.17,-174"/>
<text text-anchor="start" x="310" y="-186.3" font-family="Helvetica,sans-Serif" font-size="14.00">&quot;a1_0&quot;</text>
<path fill="none" stroke="black" d="M315.17,-174C315.17,-174 350.83,-174 350.83,-174 356.17,-174 361.5,-179.33 361.5,-184.67 361.5,-184.67 361.5,-195.33 361.5,-195.33 361.5,-200.67 356.17,-206 350.83,-206 350.83,-206 315.17,-206 315.17,-206 309.83,-206 304.5,-200.67 304.5,-195.33 304.5,-195.33 304.5,-184.67 304.5,-184.67 304.5,-179.33 309.83,-174 315.17,-174"/>
</a>
</g>
</g>
<!-- function&#45;4&#45;Addi -->
<g id="node37" class="node">
<title>function&#45;4&#45;Addi</title>
<g id="a_node37"><a xlink:title="Inst&#45;23: function&#45;4&#45;Addi">
<path fill="white" stroke="transparent" d="M178.17,-332C178.17,-332 197.83,-332 197.83,-332 203.17,-332 208.5,-337.33 208.5,-342.67 208.5,-342.67 208.5,-353.33 208.5,-353.33 208.5,-358.67 203.17,-364 197.83,-364 197.83,-364 178.17,-364 178.17,-364 172.83,-364 167.5,-358.67 167.5,-353.33 167.5,-353.33 167.5,-342.67 167.5,-342.67 167.5,-337.33 172.83,-332 178.17,-332"/>
<text text-anchor="start" x="173" y="-344.3" font-family="Helvetica,sans-Serif" font-size="14.00">Addi</text>
<path fill="none" stroke="black" d="M178.17,-332C178.17,-332 197.83,-332 197.83,-332 203.17,-332 208.5,-337.33 208.5,-342.67 208.5,-342.67 208.5,-353.33 208.5,-353.33 208.5,-358.67 203.17,-364 197.83,-364 197.83,-364 178.17,-364 178.17,-364 172.83,-364 167.5,-358.67 167.5,-353.33 167.5,-353.33 167.5,-342.67 167.5,-342.67 167.5,-337.33 172.83,-332 178.17,-332"/>
</a>
</g>
</g>
<!-- function&#45;0&#45;Sw -->
<g id="node38" class="node">
<title>function&#45;0&#45;Sw</title>
<g id="a_node38"><a xlink:title="Inst&#45;8: function&#45;0&#45;Sw">
<path fill="white" stroke="transparent" d="M606.67,-332C606.67,-332 617.33,-332 617.33,-332 622.67,-332 628,-337.33 628,-342.67 628,-342.67 628,-353.33 628,-353.33 628,-358.67 622.67,-364 617.33,-364 617.33,-364 606.67,-364 606.67,-364 601.33,-364 596,-358.67 596,-353.33 596,-353.33 596,-342.67 596,-342.67 596,-337.33 601.33,-332 606.67,-332"/>
<text text-anchor="start" x="601.5" y="-344.3" font-family="Helvetica,sans-Serif" font-size="14.00">Sw</text>
<path fill="none" stroke="black" d="M606.67,-332C606.67,-332 617.33,-332 617.33,-332 622.67,-332 628,-337.33 628,-342.67 628,-342.67 628,-353.33 628,-353.33 628,-358.67 622.67,-364 617.33,-364 617.33,-364 606.67,-364 606.67,-364 601.33,-364 596,-358.67 596,-353.33 596,-353.33 596,-342.67 596,-342.67 596,-337.33 601.33,-332 606.67,-332"/>
</a>
</g>
</g>
<!-- function&#45;1&#45;Sw -->
<g id="node39" class="node">
<title>function&#45;1&#45;Sw</title>
<g id="a_node39"><a xlink:title="Inst&#45;16: function&#45;1&#45;Sw">
<path fill="white" stroke="transparent" d="M804.67,-332C804.67,-332 815.33,-332 815.33,-332 820.67,-332 826,-337.33 826,-342.67 826,-342.67 826,-353.33 826,-353.33 826,-358.67 820.67,-364 815.33,-364 815.33,-364 804.67,-364 804.67,-364 799.33,-364 794,-358.67 794,-353.33 794,-353.33 794,-342.67 794,-342.67 794,-337.33 799.33,-332 804.67,-332"/>
<text text-anchor="start" x="799.5" y="-344.3" font-family="Helvetica,sans-Serif" font-size="14.00">Sw</text>
<path fill="none" stroke="black" d="M804.67,-332C804.67,-332 815.33,-332 815.33,-332 820.67,-332 826,-337.33 826,-342.67 826,-342.67 826,-353.33 826,-353.33 826,-358.67 820.67,-364 815.33,-364 815.33,-364 804.67,-364 804.67,-364 799.33,-364 794,-358.67 794,-353.33 794,-353.33 794,-342.67 794,-342.67 794,-337.33 799.33,-332 804.67,-332"/>
</a>
</g>
</g>
<!-- function&#45;5&#45;Addi -->
<g id="node40" class="node">
<title>function&#45;5&#45;Addi</title>
<g id="a_node40"><a xlink:title="Inst&#45;25: function&#45;5&#45;Addi">
<path fill="white" stroke="transparent" d="M429.17,-332C429.17,-332 448.83,-332 448.83,-332 454.17,-332 459.5,-337.33 459.5,-342.67 459.5,-342.67 459.5,-353.33 459.5,-353.33 459.5,-358.67 454.17,-364 448.83,-364 448.83,-364 429.17,-364 429.17,-364 423.83,-364 418.5,-358.67 418.5,-353.33 418.5,-353.33 418.5,-342.67 418.5,-342.67 418.5,-337.33 423.83,-332 429.17,-332"/>
<text text-anchor="start" x="424" y="-344.3" font-family="Helvetica,sans-Serif" font-size="14.00">Addi</text>
<path fill="none" stroke="black" d="M429.17,-332C429.17,-332 448.83,-332 448.83,-332 454.17,-332 459.5,-337.33 459.5,-342.67 459.5,-342.67 459.5,-353.33 459.5,-353.33 459.5,-358.67 454.17,-364 448.83,-364 448.83,-364 429.17,-364 429.17,-364 423.83,-364 418.5,-358.67 418.5,-353.33 418.5,-353.33 418.5,-342.67 418.5,-342.67 418.5,-337.33 423.83,-332 429.17,-332"/>
</a>
</g>
</g>
<!-- function&#45;2&#45;Sw -->
<g id="node41" class="node">
<title>function&#45;2&#45;Sw</title>
<g id="a_node41"><a xlink:title="Inst&#45;18: function&#45;2&#45;Sw">
<path fill="white" stroke="transparent" d="M953.67,-332C953.67,-332 964.33,-332 964.33,-332 969.67,-332 975,-337.33 975,-342.67 975,-342.67 975,-353.33 975,-353.33 975,-358.67 969.67,-364 964.33,-364 964.33,-364 953.67,-364 953.67,-364 948.33,-364 943,-358.67 943,-353.33 943,-353.33 943,-342.67 943,-342.67 943,-337.33 948.33,-332 953.67,-332"/>
<text text-anchor="start" x="948.5" y="-344.3" font-family="Helvetica,sans-Serif" font-size="14.00">Sw</text>
<path fill="none" stroke="black" d="M953.67,-332C953.67,-332 964.33,-332 964.33,-332 969.67,-332 975,-337.33 975,-342.67 975,-342.67 975,-353.33 975,-353.33 975,-358.67 969.67,-364 964.33,-364 964.33,-364 953.67,-364 953.67,-364 948.33,-364 943,-358.67 943,-353.33 943,-353.33 943,-342.67 943,-342.67 943,-337.33 948.33,-332 953.67,-332"/>
</a>
</g>
</g>
</g>
</svg>
