<?xml version="1.0" encoding="UTF-8" standalone="no"?>
<!DOCTYPE svg PUBLIC "-//W3C//DTD SVG 1.1//EN"
 "http://www.w3.org/Graphics/SVG/1.1/DTD/svg11.dtd">
<!-- Generated by graphviz version 2.43.0 (0)
 -->
<!-- Title: %3 Pages: 1 -->
<svg width="1092pt" height="388pt"
 viewBox="0.00 0.00 1092.00 388.00" xmlns="http://www.w3.org/2000/svg" xmlns:xlink="http://www.w3.org/1999/xlink">
<g id="graph0" class="graph" transform="scale(1 1) rotate(0) translate(4 384)">
<title>%3</title>
<polygon fill="white" stroke="#000000" points="-4,4 -4,-384 1088,-384 1088,4 -4,4"/>
<g id="clust1" class="cluster">
<title>outer_cluster_Imm&#45;11</title>
</g>
<g id="clust2" class="cluster">
<title>cluster_Imm&#45;11</title>
<path fill="#ffffb3" stroke="black" stroke-dasharray="5,2" d="M89,-169C89,-169 149,-169 149,-169 155,-169 161,-175 161,-181 161,-181 161,-199 161,-199 161,-205 155,-211 149,-211 149,-211 89,-211 89,-211 83,-211 77,-205 77,-199 77,-199 77,-181 77,-181 77,-175 83,-169 89,-169"/>
</g>
<g id="clust4" class="cluster">
<title>outer_cluster_Imm&#45;17</title>
</g>
<g id="clust5" class="cluster">
<title>cluster_Imm&#45;17</title>
<path fill="#ffffb3" stroke="black" stroke-dasharray="5,2" d="M382,-248C382,-248 426,-248 426,-248 432,-248 438,-254 438,-260 438,-260 438,-278 438,-278 438,-284 432,-290 426,-290 426,-290 382,-290 382,-290 376,-290 370,-284 370,-278 370,-278 370,-260 370,-260 370,-254 376,-248 382,-248"/>
</g>
<g id="clust7" class="cluster">
<title>outer_cluster_Imm&#45;9</title>
</g>
<g id="clust8" class="cluster">
<title>cluster_Imm&#45;9</title>
<path fill="#ffffb3" stroke="black" stroke-dasharray="5,2" d="M193,-90C193,-90 253,-90 253,-90 259,-90 265,-96 265,-102 265,-102 265,-120 265,-120 265,-126 259,-132 253,-132 253,-132 193,-132 193,-132 187,-132 181,-126 181,-120 181,-120 181,-102 181,-102 181,-96 187,-90 193,-90"/>
</g>
<g id="clust10" class="cluster">
<title>outer_cluster_Imm&#45;21</title>
</g>
<g id="clust11" class="cluster">
<title>cluster_Imm&#45;21</title>
<path fill="#ffffb3" stroke="black" stroke-dasharray="5,2" d="M47,-248C47,-248 91,-248 91,-248 97,-248 103,-254 103,-260 103,-260 103,-278 103,-278 103,-284 97,-290 91,-290 91,-290 47,-290 47,-290 41,-290 35,-284 35,-278 35,-278 35,-260 35,-260 35,-254 41,-248 47,-248"/>
</g>
<g id="clust13" class="cluster">
<title>outer_cluster_Imm&#45;5</title>
</g>
<g id="clust14" class="cluster">
<title>cluster_Imm&#45;5</title>
<path fill="#ffffb3" stroke="black" stroke-dasharray="5,2" d="M523,-169C523,-169 567,-169 567,-169 573,-169 579,-175 579,-181 579,-181 579,-199 579,-199 579,-205 573,-211 567,-211 567,-211 523,-211 523,-211 517,-211 511,-205 511,-199 511,-199 511,-181 511,-181 511,-175 517,-169 523,-169"/>
</g>
<g id="clust16" class="cluster">
<title>outer_cluster_Imm&#45;7</title>
</g>
<g id="clust17" class="cluster">
<title>cluster_Imm&#45;7</title>
<path fill="#ffffb3" stroke="black" stroke-dasharray="5,2" d="M873,-248C873,-248 917,-248 917,-248 923,-248 929,-254 929,-260 929,-260 929,-278 929,-278 929,-284 923,-290 917,-290 917,-290 873,-290 873,-290 867,-290 861,-284 861,-278 861,-278 861,-260 861,-260 861,-254 867,-248 873,-248"/>
</g>
<g id="clust19" class="cluster">
<title>outer_cluster_Imm&#45;15</title>
</g>
<g id="clust20" class="cluster">
<title>cluster_Imm&#45;15</title>
<path fill="#ffffb3" stroke="black" stroke-dasharray="5,2" d="M659,-248C659,-248 703,-248 703,-248 709,-248 715,-254 715,-260 715,-260 715,-278 715,-278 715,-284 709,-290 703,-290 703,-290 659,-290 659,-290 653,-290 647,-284 647,-278 647,-278 647,-260 647,-260 647,-254 653,-248 659,-248"/>
</g>
<g id="clust22" class="cluster">
<title>outer_cluster_Imm&#45;19</title>
</g>
<g id="clust23" class="cluster">
<title>cluster_Imm&#45;19</title>
<path fill="#ffffb3" stroke="black" stroke-dasharray="5,2" d="M238,-248C238,-248 282,-248 282,-248 288,-248 294,-254 294,-260 294,-260 294,-278 294,-278 294,-284 288,-290 282,-290 282,-290 238,-290 238,-290 232,-290 226,-284 226,-278 226,-278 226,-260 226,-260 226,-254 232,-248 238,-248"/>
</g>
<g id="clust25" class="cluster">
<title>outer_cluster_Imm&#45;13</title>
</g>
<g id="clust26" class="cluster">
<title>cluster_Imm&#45;13</title>
<path fill="#ffffb3" stroke="black" stroke-dasharray="5,2" d="M1017,-169C1017,-169 1061,-169 1061,-169 1067,-169 1073,-175 1073,-181 1073,-181 1073,-199 1073,-199 1073,-205 1067,-211 1061,-211 1061,-211 1017,-211 1017,-211 1011,-211 1005,-205 1005,-199 1005,-199 1005,-181 1005,-181 1005,-175 1011,-169 1017,-169"/>
</g>
<g id="clust28" class="cluster">
<title>outer_cluster_Imm&#45;24</title>
</g>
<g id="clust29" class="cluster">
<title>cluster_Imm&#45;24</title>
<path fill="#ffffb3" stroke="black" stroke-dasharray="5,2" d="M947,-248C947,-248 991,-248 991,-248 997,-248 1003,-254 1003,-260 1003,-260 1003,-278 1003,-278 1003,-284 997,-290 991,-290 991,-290 947,-290 947,-290 941,-290 935,-284 935,-278 935,-278 935,-260 935,-260 935,-254 941,-248 947,-248"/>
</g>
<g id="clust31" class="cluster">
<title>outer_cluster_Inst&#45;25</title>
</g>
<g id="clust32" class="cluster">
<title>cluster_Inst&#45;25</title>
<path fill="#bebada" stroke="black" stroke-dasharray="5,2" d="M983,-327C983,-327 1019,-327 1019,-327 1025,-327 1031,-333 1031,-339 1031,-339 1031,-357 1031,-357 1031,-363 1025,-369 1019,-369 1019,-369 983,-369 983,-369 977,-369 971,-363 971,-357 971,-357 971,-339 971,-339 971,-333 977,-327 983,-327"/>
</g>
<g id="clust34" class="cluster">
<title>outer_cluster_Inst&#45;1</title>
</g>
<g id="clust35" class="cluster">
<title>cluster_Inst&#45;1</title>
<path fill="#bebada" stroke="black" stroke-dasharray="5,2" d="M733,-248C733,-248 773,-248 773,-248 779,-248 785,-254 785,-260 785,-260 785,-278 785,-278 785,-284 779,-290 773,-290 773,-290 733,-290 733,-290 727,-290 721,-284 721,-278 721,-278 721,-260 721,-260 721,-254 727,-248 733,-248"/>
</g>
<g id="clust37" class="cluster">
<title>outer_cluster_Inst&#45;16</title>
</g>
<g id="clust38" class="cluster">
<title>cluster_Inst&#45;16</title>
<path fill="#bebada" stroke="black" stroke-dasharray="5,2" d="M652,-327C652,-327 688,-327 688,-327 694,-327 700,-333 700,-339 700,-339 700,-357 700,-357 700,-363 694,-369 688,-369 688,-369 652,-369 652,-369 646,-369 640,-363 640,-357 640,-357 640,-339 640,-339 640,-333 646,-327 652,-327"/>
</g>
<g id="clust40" class="cluster">
<title>outer_cluster_Inst&#45;10</title>
</g>
<g id="clust41" class="cluster">
<title>cluster_Inst&#45;10</title>
<path fill="#bebada" stroke="black" stroke-dasharray="5,2" d="M179,-169C179,-169 215,-169 215,-169 221,-169 227,-175 227,-181 227,-181 227,-199 227,-199 227,-205 221,-211 215,-211 215,-211 179,-211 179,-211 173,-211 167,-205 167,-199 167,-199 167,-181 167,-181 167,-175 173,-169 179,-169"/>
</g>
<g id="clust43" class="cluster">
<title>outer_cluster_Inst&#45;6</title>
</g>
<g id="clust44" class="cluster">
<title>cluster_Inst&#45;6</title>
<path fill="#bebada" stroke="black" stroke-dasharray="5,2" d="M593,-248C593,-248 629,-248 629,-248 635,-248 641,-254 641,-260 641,-260 641,-278 641,-278 641,-284 635,-290 629,-290 629,-290 593,-290 593,-290 587,-290 581,-284 581,-278 581,-278 581,-260 581,-260 581,-254 587,-248 593,-248"/>
</g>
<g id="clust46" class="cluster">
<title>outer_cluster_Inst&#45;18</title>
</g>
<g id="clust47" class="cluster">
<title>cluster_Inst&#45;18</title>
<path fill="#bebada" stroke="black" stroke-dasharray="5,2" d="M454,-327C454,-327 490,-327 490,-327 496,-327 502,-333 502,-339 502,-339 502,-357 502,-357 502,-363 496,-369 490,-369 490,-369 454,-369 454,-369 448,-369 442,-363 442,-357 442,-357 442,-339 442,-339 442,-333 448,-327 454,-327"/>
</g>
<g id="clust49" class="cluster">
<title>outer_cluster_Inst&#45;22</title>
</g>
<g id="clust50" class="cluster">
<title>cluster_Inst&#45;22</title>
<path fill="#bebada" stroke="black" stroke-dasharray="5,2" d="M77,-327C77,-327 113,-327 113,-327 119,-327 125,-333 125,-339 125,-339 125,-357 125,-357 125,-363 119,-369 113,-369 113,-369 77,-369 77,-369 71,-369 65,-363 65,-357 65,-357 65,-339 65,-339 65,-333 71,-327 77,-327"/>
</g>
<g id="clust52" class="cluster">
<title>outer_cluster_Inst&#45;3</title>
</g>
<g id="clust53" class="cluster">
<title>cluster_Inst&#45;3</title>
<path fill="#bebada" stroke="black" stroke-dasharray="5,2" d="M803,-248C803,-248 843,-248 843,-248 849,-248 855,-254 855,-260 855,-260 855,-278 855,-278 855,-284 849,-290 843,-290 843,-290 803,-290 803,-290 797,-290 791,-284 791,-278 791,-278 791,-260 791,-260 791,-254 797,-248 803,-248"/>
</g>
<g id="clust55" class="cluster">
<title>outer_cluster_Inst&#45;12</title>
</g>
<g id="clust56" class="cluster">
<title>cluster_Inst&#45;12</title>
<path fill="#bebada" stroke="black" stroke-dasharray="5,2" d="M152,-248C152,-248 188,-248 188,-248 194,-248 200,-254 200,-260 200,-260 200,-278 200,-278 200,-284 194,-290 188,-290 188,-290 152,-290 152,-290 146,-290 140,-284 140,-278 140,-278 140,-260 140,-260 140,-254 146,-248 152,-248"/>
</g>
<g id="clust58" class="cluster">
<title>outer_cluster_Inst&#45;0</title>
</g>
<g id="clust59" class="cluster">
<title>cluster_Inst&#45;0</title>
<path fill="#bebada" stroke="black" stroke-dasharray="5,2" d="M312,-248C312,-248 352,-248 352,-248 358,-248 364,-254 364,-260 364,-260 364,-278 364,-278 364,-284 358,-290 352,-290 352,-290 312,-290 312,-290 306,-290 300,-284 300,-278 300,-278 300,-260 300,-260 300,-254 306,-248 312,-248"/>
</g>
<g id="clust61" class="cluster">
<title>outer_cluster_Inst&#45;8</title>
</g>
<g id="clust62" class="cluster">
<title>cluster_Inst&#45;8</title>
<path fill="#bebada" stroke="black" stroke-dasharray="5,2" d="M801,-327C801,-327 837,-327 837,-327 843,-327 849,-333 849,-339 849,-339 849,-357 849,-357 849,-363 843,-369 837,-369 837,-369 801,-369 801,-369 795,-369 789,-363 789,-357 789,-357 789,-339 789,-339 789,-333 795,-327 801,-327"/>
</g>
<g id="clust64" class="cluster">
<title>outer_cluster_Inst&#45;20</title>
</g>
<g id="clust65" class="cluster">
<title>cluster_Inst&#45;20</title>
<path fill="#bebada" stroke="black" stroke-dasharray="5,2" d="M252,-327C252,-327 288,-327 288,-327 294,-327 300,-333 300,-339 300,-339 300,-357 300,-357 300,-363 294,-369 288,-369 288,-369 252,-369 252,-369 246,-369 240,-363 240,-357 240,-357 240,-339 240,-339 240,-333 246,-327 252,-327"/>
</g>
<g id="clust67" class="cluster">
<title>outer_cluster_Inst&#45;23</title>
</g>
<g id="clust68" class="cluster">
<title>cluster_Inst&#45;23</title>
<path fill="#bebada" stroke="black" stroke-dasharray="5,2" d="M170,-327C170,-327 206,-327 206,-327 212,-327 218,-333 218,-339 218,-339 218,-357 218,-357 218,-363 212,-369 206,-369 206,-369 170,-369 170,-369 164,-369 158,-363 158,-357 158,-357 158,-339 158,-339 158,-333 164,-327 170,-327"/>
</g>
<g id="clust70" class="cluster">
<title>outer_cluster_Inst&#45;4</title>
</g>
<g id="clust71" class="cluster">
<title>cluster_Inst&#45;4</title>
<path fill="#bebada" stroke="black" stroke-dasharray="5,2" d="M597,-169C597,-169 637,-169 637,-169 643,-169 649,-175 649,-181 649,-181 649,-199 649,-199 649,-205 643,-211 637,-211 637,-211 597,-211 597,-211 591,-211 585,-205 585,-199 585,-199 585,-181 585,-181 585,-175 591,-169 597,-169"/>
</g>
<g id="clust73" class="cluster">
<title>outer_cluster_Inst&#45;14</title>
</g>
<g id="clust74" class="cluster">
<title>cluster_Inst&#45;14</title>
<path fill="#bebada" stroke="black" stroke-dasharray="5,2" d="M1021,-248C1021,-248 1057,-248 1057,-248 1063,-248 1069,-254 1069,-260 1069,-260 1069,-278 1069,-278 1069,-284 1063,-290 1057,-290 1057,-290 1021,-290 1021,-290 1015,-290 1009,-284 1009,-278 1009,-278 1009,-260 1009,-260 1009,-254 1015,-248 1021,-248"/>
</g>
<g id="clust76" class="cluster">
<title>outer_cluster_Inst&#45;2</title>
</g>
<g id="clust77" class="cluster">
<title>cluster_Inst&#45;2</title>
<path fill="#bebada" stroke="black" stroke-dasharray="5,2" d="M456,-248C456,-248 496,-248 496,-248 502,-248 508,-254 508,-260 508,-260 508,-278 508,-278 508,-284 502,-290 496,-290 496,-290 456,-290 456,-290 450,-290 444,-284 444,-278 444,-278 444,-260 444,-260 444,-254 450,-248 456,-248"/>
</g>
<g id="clust79" class="cluster">
<title>outer_cluster_String&#45;3</title>
</g>
<g id="clust80" class="cluster">
<title>cluster_String&#45;3</title>
<path fill="#fb8072" stroke="black" stroke-dasharray="5,2" d="M455,-169C455,-169 493,-169 493,-169 499,-169 505,-175 505,-181 505,-181 505,-199 505,-199 505,-205 499,-211 493,-211 493,-211 455,-211 455,-211 449,-211 443,-205 443,-199 443,-199 443,-181 443,-181 443,-175 449,-169 455,-169"/>
</g>
<g id="clust82" class="cluster">
<title>outer_cluster_String&#45;6</title>
</g>
<g id="clust83" class="cluster">
<title>cluster_String&#45;6</title>
<path fill="#fb8072" stroke="black" stroke-dasharray="5,2" d="M161,-11C161,-11 287,-11 287,-11 293,-11 299,-17 299,-23 299,-23 299,-41 299,-41 299,-47 293,-53 287,-53 287,-53 161,-53 161,-53 155,-53 149,-47 149,-41 149,-41 149,-23 149,-23 149,-17 155,-11 161,-11"/>
</g>
<g id="clust85" class="cluster">
<title>outer_cluster_String&#45;5</title>
</g>
<g id="clust86" class="cluster">
<title>cluster_String&#45;5</title>
<path fill="#fb8072" stroke="black" stroke-dasharray="5,2" d="M599,-90C599,-90 637,-90 637,-90 643,-90 649,-96 649,-102 649,-102 649,-120 649,-120 649,-126 643,-132 637,-132 637,-132 599,-132 599,-132 593,-132 587,-126 587,-120 587,-120 587,-102 587,-102 587,-96 593,-90 599,-90"/>
</g>
<g id="clust88" class="cluster">
<title>outer_cluster_String&#45;4</title>
</g>
<g id="clust89" class="cluster">
<title>cluster_String&#45;4</title>
<path fill="#fb8072" stroke="black" stroke-dasharray="5,2" d="M805,-169C805,-169 843,-169 843,-169 849,-169 855,-175 855,-181 855,-181 855,-199 855,-199 855,-205 849,-211 843,-211 843,-211 805,-211 805,-211 799,-211 793,-205 793,-199 793,-199 793,-181 793,-181 793,-175 799,-169 805,-169"/>
</g>
<g id="clust91" class="cluster">
<title>outer_cluster_String&#45;2</title>
</g>
<g id="clust92" class="cluster">
<title>cluster_String&#45;2</title>
<path fill="#fb8072" stroke="black" stroke-dasharray="5,2" d="M736,-169C736,-169 772,-169 772,-169 778,-169 784,-175 784,-181 784,-181 784,-199 784,-199 784,-205 778,-211 772,-211 772,-211 736,-211 736,-211 730,-211 724,-205 724,-199 724,-199 724,-181 724,-181 724,-175 730,-169 736,-169"/>
</g>
<g id="clust94" class="cluster">
<title>outer_cluster_String&#45;7</title>
</g>
<g id="clust95" class="cluster">
<title>cluster_String&#45;7</title>
<path fill="#fb8072" stroke="black" stroke-dasharray="5,2" d="M37,-90C37,-90 163,-90 163,-90 169,-90 175,-96 175,-102 175,-102 175,-120 175,-120 175,-126 169,-132 163,-132 163,-132 37,-132 37,-132 31,-132 25,-126 25,-120 25,-120 25,-102 25,-102 25,-96 31,-90 37,-90"/>
</g>
<g id="clust97" class="cluster">
<title>outer_cluster_String&#45;1</title>
</g>
<g id="clust98" class="cluster">
<title>cluster_String&#45;1</title>
<path fill="#fb8072" stroke="black" stroke-dasharray="5,2" d="M313,-169C313,-169 353,-169 353,-169 359,-169 365,-175 365,-181 365,-181 365,-199 365,-199 365,-205 359,-211 353,-211 353,-211 313,-211 313,-211 307,-211 301,-205 301,-199 301,-199 301,-181 301,-181 301,-175 307,-169 313,-169"/>
</g>
<g id="clust100" class="cluster">
<title>outer_cluster_i64&#45;2</title>
</g>
<g id="clust101" class="cluster">
<title>cluster_i64&#45;2</title>
<path fill="#80b1d3" stroke="black" stroke-dasharray="5,2" d="M1021,-90C1021,-90 1057,-90 1057,-90 1063,-90 1069,-96 1069,-102 1069,-102 1069,-120 1069,-120 1069,-126 1063,-132 1057,-132 1057,-132 1021,-132 1021,-132 1015,-132 1009,-126 1009,-120 1009,-120 1009,-102 1009,-102 1009,-96 1015,-90 1021,-90"/>
</g>
<g id="clust103" class="cluster">
<title>outer_cluster_i64&#45;1807</title>
</g>
<g id="clust104" class="cluster">
<title>cluster_i64&#45;1807</title>
<path fill="#80b1d3" stroke="black" stroke-dasharray="5,2" d="M951,-169C951,-169 987,-169 987,-169 993,-169 999,-175 999,-181 999,-181 999,-199 999,-199 999,-205 993,-211 987,-211 987,-211 951,-211 951,-211 945,-211 939,-205 939,-199 939,-199 939,-181 939,-181 939,-175 945,-169 951,-169"/>
</g>
<g id="clust106" class="cluster">
<title>outer_cluster_i64&#45;52</title>
</g>
<g id="clust107" class="cluster">
<title>cluster_i64&#45;52</title>
<path fill="#80b1d3" stroke="black" stroke-dasharray="5,2" d="M877,-169C877,-169 913,-169 913,-169 919,-169 925,-175 925,-181 925,-181 925,-199 925,-199 925,-205 919,-211 913,-211 913,-211 877,-211 877,-211 871,-211 865,-205 865,-199 865,-199 865,-181 865,-181 865,-175 871,-169 877,-169"/>
</g>
<g id="clust109" class="cluster">
<title>outer_cluster_i64&#45;72</title>
</g>
<g id="clust110" class="cluster">
<title>cluster_i64&#45;72</title>
<path fill="#80b1d3" stroke="black" stroke-dasharray="5,2" d="M386,-169C386,-169 422,-169 422,-169 428,-169 434,-175 434,-181 434,-181 434,-199 434,-199 434,-205 428,-211 422,-211 422,-211 386,-211 386,-211 380,-211 374,-205 374,-199 374,-199 374,-181 374,-181 374,-175 380,-169 386,-169"/>
</g>
<g id="clust112" class="cluster">
<title>outer_cluster_i64&#45;76</title>
</g>
<g id="clust113" class="cluster">
<title>cluster_i64&#45;76</title>
<path fill="#80b1d3" stroke="black" stroke-dasharray="5,2" d="M667,-169C667,-169 703,-169 703,-169 709,-169 715,-175 715,-181 715,-181 715,-199 715,-199 715,-205 709,-211 703,-211 703,-211 667,-211 667,-211 661,-211 655,-205 655,-199 655,-199 655,-181 655,-181 655,-175 661,-169 667,-169"/>
</g>
<g id="clust115" class="cluster">
<title>outer_cluster_i64&#45;0</title>
</g>
<g id="clust116" class="cluster">
<title>cluster_i64&#45;0</title>
<path fill="#80b1d3" stroke="black" stroke-dasharray="5,2" d="M245,-169C245,-169 281,-169 281,-169 287,-169 293,-175 293,-181 293,-181 293,-199 293,-199 293,-205 287,-211 281,-211 281,-211 245,-211 245,-211 239,-211 233,-205 233,-199 233,-199 233,-181 233,-181 233,-175 239,-169 245,-169"/>
</g>
<g id="clust118" class="cluster">
<title>outer_cluster_i64&#45;800</title>
</g>
<g id="clust119" class="cluster">
<title>cluster_i64&#45;800</title>
<path fill="#80b1d3" stroke="black" stroke-dasharray="5,2" d="M23,-169C23,-169 59,-169 59,-169 65,-169 71,-175 71,-181 71,-181 71,-199 71,-199 71,-205 65,-211 59,-211 59,-211 23,-211 23,-211 17,-211 11,-205 11,-199 11,-199 11,-181 11,-181 11,-175 17,-169 23,-169"/>
</g>
<g id="clust121" class="cluster">
<title>outer_cluster_i64&#45;2147483649</title>
</g>
<g id="clust122" class="cluster">
<title>cluster_i64&#45;2147483649</title>
<path fill="#80b1d3" stroke="black" stroke-dasharray="5,2" d="M527,-90C527,-90 563,-90 563,-90 569,-90 575,-96 575,-102 575,-102 575,-120 575,-120 575,-126 569,-132 563,-132 563,-132 527,-132 527,-132 521,-132 515,-126 515,-120 515,-120 515,-102 515,-102 515,-96 521,-90 527,-90"/>
</g>
<!-- function&#45;1&#45;ImmLabel&#45;&gt;primitive&#45;String&#45;7 -->
<g id="edge1" class="edge">
<title>function&#45;1&#45;ImmLabel:s&#45;&gt;primitive&#45;String&#45;7</title>
<path fill="none" stroke="black" d="M120,-174C120,-160.24 115.49,-145.56 110.75,-133.94"/>
<polygon fill="black" stroke="black" points="113.6,-135.6 109.71,-132 110.51,-137.24 113.6,-135.6"/>
</g>
<!-- function&#45;4&#45;ImmVal&#45;&gt;primitive&#45;i64&#45;72 -->
<g id="edge2" class="edge">
<title>function&#45;4&#45;ImmVal:s&#45;&gt;primitive&#45;i64&#45;72</title>
<path fill="none" stroke="black" d="M404,-253C404,-239.84 404,-225.11 404,-213.3"/>
<polygon fill="black" stroke="black" points="405.75,-216 404,-211 402.25,-216 405.75,-216"/>
</g>
<!-- function&#45;0&#45;ImmLabel&#45;&gt;primitive&#45;String&#45;6 -->
<g id="edge3" class="edge">
<title>function&#45;0&#45;ImmLabel:s&#45;&gt;primitive&#45;String&#45;6</title>
<path fill="none" stroke="black" d="M224,-95C224,-81.84 224,-67.11 224,-55.3"/>
<polygon fill="black" stroke="black" points="225.75,-58 224,-53 222.25,-58 225.75,-58"/>
</g>
<!-- function&#45;6&#45;ImmVal&#45;&gt;primitive&#45;i64&#45;800 -->
<g id="edge4" class="edge">
<title>function&#45;6&#45;ImmVal:s&#45;&gt;primitive&#45;i64&#45;800</title>
<path fill="none" stroke="black" d="M69,-253C69,-238.72 62.75,-224.09 56.16,-212.63"/>
<polygon fill="black" stroke="black" points="59.3,-213.3 54.53,-211 56.82,-215.78 59.3,-213.3"/>
</g>
<!-- function&#45;0&#45;ImmVal&#45;&gt;primitive&#45;i64&#45;2147483649 -->
<g id="edge5" class="edge">
<title>function&#45;0&#45;ImmVal:s&#45;&gt;primitive&#45;i64&#45;2147483649</title>
<path fill="none" stroke="black" d="M545,-174C545,-160.84 545,-146.11 545,-134.3"/>
<polygon fill="black" stroke="black" points="546.75,-137 545,-132 543.25,-137 546.75,-137"/>
</g>
<!-- function&#45;1&#45;ImmVal&#45;&gt;primitive&#45;i64&#45;52 -->
<g id="edge6" class="edge">
<title>function&#45;1&#45;ImmVal:s&#45;&gt;primitive&#45;i64&#45;52</title>
<path fill="none" stroke="black" d="M895,-253C895,-239.84 895,-225.11 895,-213.3"/>
<polygon fill="black" stroke="black" points="896.75,-216 895,-211 893.25,-216 896.75,-216"/>
</g>
<!-- function&#45;3&#45;ImmVal&#45;&gt;primitive&#45;i64&#45;76 -->
<g id="edge7" class="edge">
<title>function&#45;3&#45;ImmVal:s&#45;&gt;primitive&#45;i64&#45;76</title>
<path fill="none" stroke="black" d="M681,-253C681,-239.81 681.91,-225.08 682.87,-213.28"/>
<polygon fill="black" stroke="black" points="684.08,-216.24 683.3,-211 680.64,-215.58 684.08,-216.24"/>
</g>
<!-- function&#45;5&#45;ImmVal&#45;&gt;primitive&#45;i64&#45;0 -->
<g id="edge8" class="edge">
<title>function&#45;5&#45;ImmVal:s&#45;&gt;primitive&#45;i64&#45;0</title>
<path fill="none" stroke="black" d="M260,-253C260,-239.82 260.68,-225.09 261.4,-213.29"/>
<polygon fill="black" stroke="black" points="262.75,-216.2 261.73,-211 259.29,-215.7 262.75,-216.2"/>
</g>
<!-- function&#45;2&#45;ImmVal&#45;&gt;primitive&#45;i64&#45;2 -->
<g id="edge9" class="edge">
<title>function&#45;2&#45;ImmVal:s&#45;&gt;primitive&#45;i64&#45;2</title>
<path fill="none" stroke="black" d="M1039,-174C1039,-160.84 1039,-146.11 1039,-134.3"/>
<polygon fill="black" stroke="black" points="1040.75,-137 1039,-132 1037.25,-137 1040.75,-137"/>
</g>
<!-- function&#45;7&#45;ImmVal&#45;&gt;primitive&#45;i64&#45;1807 -->
<g id="edge10" class="edge">
<title>function&#45;7&#45;ImmVal:s&#45;&gt;primitive&#45;i64&#45;1807</title>
<path fill="none" stroke="black" d="M969,-253C969,-239.84 969,-225.11 969,-213.3"/>
<polygon fill="black" stroke="black" points="970.75,-216 969,-211 967.25,-216 970.75,-216"/>
</g>
<!-- function&#45;5&#45;Addi&#45;&gt;function&#45;7&#45;ImmVal -->
<g id="edge12" class="edge">
<title>function&#45;5&#45;Addi:s&#45;&gt;function&#45;7&#45;ImmVal</title>
<path fill="none" stroke="black" d="M1011,-332C1011,-316.6 1002.01,-302.18 992.35,-291.12"/>
<polygon fill="black" stroke="black" points="995.86,-291.48 990.77,-290 993.82,-294.33 995.86,-291.48"/>
</g>
<!-- function&#45;5&#45;Addi&#45;&gt;function&#45;1&#45;Lui -->
<g id="edge11" class="edge">
<title>function&#45;5&#45;Addi:s&#45;&gt;function&#45;1&#45;Lui</title>
<path fill="none" stroke="black" d="M991,-332C991,-315.98 1001.15,-301.58 1012.11,-290.71"/>
<polygon fill="black" stroke="black" points="1009.87,-293.51 1013.84,-290 1008.55,-290.26 1009.87,-293.51"/>
</g>
<!-- function&#45;1&#45;Lui&#45;&gt;function&#45;2&#45;ImmVal -->
<g id="edge37" class="edge">
<title>function&#45;1&#45;Lui:s&#45;&gt;function&#45;2&#45;ImmVal</title>
<path fill="none" stroke="black" d="M1039,-253C1039,-239.84 1039,-225.11 1039,-213.3"/>
<polygon fill="black" stroke="black" points="1040.75,-216 1039,-211 1037.25,-216 1040.75,-216"/>
</g>
<!-- function&#45;1&#45;RegVal&#45;&gt;primitive&#45;String&#45;2 -->
<g id="edge13" class="edge">
<title>function&#45;1&#45;RegVal:s&#45;&gt;primitive&#45;String&#45;2</title>
<path fill="none" stroke="black" d="M754,-253C754,-239.84 754,-225.11 754,-213.3"/>
<polygon fill="black" stroke="black" points="755.75,-216 754,-211 752.25,-216 755.75,-216"/>
</g>
<!-- function&#45;1&#45;Sw&#45;&gt;function&#45;3&#45;ImmVal -->
<g id="edge16" class="edge">
<title>function&#45;1&#45;Sw:s&#45;&gt;function&#45;3&#45;ImmVal</title>
<path fill="none" stroke="black" d="M681,-332C681,-318.84 681,-304.11 681,-292.3"/>
<polygon fill="black" stroke="black" points="682.75,-295 681,-290 679.25,-295 682.75,-295"/>
</g>
<!-- function&#45;1&#45;Sw&#45;&gt;function&#45;1&#45;RegVal -->
<g id="edge15" class="edge">
<title>function&#45;1&#45;Sw:s&#45;&gt;function&#45;1&#45;RegVal</title>
<path fill="none" stroke="black" d="M674,-332C674,-325.52 700.67,-305.64 723.02,-290.12"/>
<polygon fill="black" stroke="black" points="719.34,-292.26 724.13,-290 718.98,-288.78 719.34,-292.26"/>
</g>
<!-- function&#45;1&#45;Sw&#45;&gt;function&#45;0&#45;Addi -->
<g id="edge14" class="edge">
<title>function&#45;1&#45;Sw:s&#45;&gt;function&#45;0&#45;Addi</title>
<path fill="none" stroke="black" d="M662,-332C662,-315.72 651.38,-301.39 639.84,-290.62"/>
<polygon fill="black" stroke="black" points="644.04,-291.3 638.9,-290 642.11,-294.22 644.04,-291.3"/>
</g>
<!-- function&#45;0&#45;Addi&#45;&gt;function&#45;0&#45;ImmVal -->
<g id="edge19" class="edge">
<title>function&#45;0&#45;Addi:s&#45;&gt;function&#45;0&#45;ImmVal</title>
<path fill="none" stroke="black" d="M621,-253C621,-242.11 602.02,-226.62 583.03,-213.84"/>
<polygon fill="black" stroke="black" points="583.86,-212.3 578.73,-211 581.93,-215.22 583.86,-212.3"/>
</g>
<!-- function&#45;0&#45;Addi&#45;&gt;function&#45;4&#45;RegVal -->
<g id="edge18" class="edge">
<title>function&#45;0&#45;Addi:s&#45;&gt;function&#45;4&#45;RegVal</title>
<path fill="none" stroke="black" d="M601,-253C601,-239.38 604.66,-224.6 608.48,-212.89"/>
<polygon fill="black" stroke="black" points="608.17,-215.92 610.12,-211 605.52,-213.63 608.17,-215.92"/>
</g>
<!-- function&#45;0&#45;Lui&#45;&gt;function&#45;0&#45;ImmLabel -->
<g id="edge17" class="edge">
<title>function&#45;0&#45;Lui:s&#45;&gt;function&#45;0&#45;ImmLabel</title>
<path fill="none" stroke="black" d="M197,-174C197,-159.78 202.89,-145.05 209.06,-133.52"/>
<polygon fill="black" stroke="black" points="208.32,-136.82 210.52,-132 205.8,-134.4 208.32,-136.82"/>
</g>
<!-- function&#45;4&#45;RegVal&#45;&gt;primitive&#45;String&#45;5 -->
<g id="edge36" class="edge">
<title>function&#45;4&#45;RegVal:s&#45;&gt;primitive&#45;String&#45;5</title>
<path fill="none" stroke="black" d="M618,-174C618,-160.84 618,-146.11 618,-134.3"/>
<polygon fill="black" stroke="black" points="619.75,-137 618,-132 616.25,-137 619.75,-137"/>
</g>
<!-- function&#45;2&#45;Sw&#45;&gt;function&#45;4&#45;ImmVal -->
<g id="edge22" class="edge">
<title>function&#45;2&#45;Sw:s&#45;&gt;function&#45;4&#45;ImmVal</title>
<path fill="none" stroke="black" d="M483,-332C483,-325.52 456.33,-305.64 433.98,-290.12"/>
<polygon fill="black" stroke="black" points="438.02,-288.78 432.87,-290 437.66,-292.26 438.02,-288.78"/>
</g>
<!-- function&#45;2&#45;Sw&#45;&gt;function&#45;0&#45;Addi -->
<g id="edge20" class="edge">
<title>function&#45;2&#45;Sw:s&#45;&gt;function&#45;0&#45;Addi</title>
<path fill="none" stroke="black" d="M464,-332C464,-307.31 535.27,-286.95 578.56,-276.85"/>
<polygon fill="black" stroke="black" points="577.26,-279.42 581,-275.67 575.74,-276.27 577.26,-279.42"/>
</g>
<!-- function&#45;2&#45;Sw&#45;&gt;function&#45;2&#45;RegVal -->
<g id="edge21" class="edge">
<title>function&#45;2&#45;Sw:s&#45;&gt;function&#45;2&#45;RegVal</title>
<path fill="none" stroke="black" d="M476,-332C476,-318.84 476,-304.11 476,-292.3"/>
<polygon fill="black" stroke="black" points="477.75,-295 476,-290 474.25,-295 477.75,-295"/>
</g>
<!-- function&#45;2&#45;RegVal&#45;&gt;primitive&#45;String&#45;3 -->
<g id="edge38" class="edge">
<title>function&#45;2&#45;RegVal:s&#45;&gt;primitive&#45;String&#45;3</title>
<path fill="none" stroke="black" d="M477,-253C477,-239.82 476.32,-225.09 475.6,-213.29"/>
<polygon fill="black" stroke="black" points="477.71,-215.7 475.27,-211 474.25,-216.2 477.71,-215.7"/>
</g>
<!-- function&#45;3&#45;Addi&#45;&gt;function&#45;6&#45;ImmVal -->
<g id="edge24" class="edge">
<title>function&#45;3&#45;Addi:s&#45;&gt;function&#45;6&#45;ImmVal</title>
<path fill="none" stroke="black" d="M105,-332C105,-317.03 97.06,-302.45 88.64,-291.19"/>
<polygon fill="black" stroke="black" points="92.22,-292.46 87.52,-290 89.66,-294.85 92.22,-292.46"/>
</g>
<!-- function&#45;3&#45;Addi&#45;&gt;function&#45;1&#45;Addi -->
<g id="edge23" class="edge">
<title>function&#45;3&#45;Addi:s&#45;&gt;function&#45;1&#45;Addi</title>
<path fill="none" stroke="black" d="M85,-332C85,-304.77 113.82,-288.23 137.9,-279.16"/>
<polygon fill="black" stroke="black" points="137.23,-281.96 140,-277.45 135.02,-279.25 137.23,-281.96"/>
</g>
<!-- function&#45;1&#45;Addi&#45;&gt;function&#45;1&#45;ImmLabel -->
<g id="edge27" class="edge">
<title>function&#45;1&#45;Addi:s&#45;&gt;function&#45;1&#45;ImmLabel</title>
<path fill="none" stroke="black" d="M180,-253C180,-235.76 167.86,-221.56 154.42,-211.12"/>
<polygon fill="black" stroke="black" points="159.39,-212.13 154.21,-211 157.56,-215.11 159.39,-212.13"/>
</g>
<!-- function&#45;1&#45;Addi&#45;&gt;function&#45;0&#45;Lui -->
<g id="edge26" class="edge">
<title>function&#45;1&#45;Addi:s&#45;&gt;function&#45;0&#45;Lui</title>
<path fill="none" stroke="black" d="M160,-253C160,-237.93 168.16,-223.34 176.82,-212.1"/>
<polygon fill="black" stroke="black" points="175.52,-215.67 178.02,-211 173.15,-213.1 175.52,-215.67"/>
</g>
<!-- function&#45;3&#45;RegVal&#45;&gt;primitive&#45;String&#45;4 -->
<g id="edge25" class="edge">
<title>function&#45;3&#45;RegVal:s&#45;&gt;primitive&#45;String&#45;4</title>
<path fill="none" stroke="black" d="M824,-253C824,-239.84 824,-225.11 824,-213.3"/>
<polygon fill="black" stroke="black" points="825.75,-216 824,-211 822.25,-216 825.75,-216"/>
</g>
<!-- function&#45;0&#45;RegVal&#45;&gt;primitive&#45;String&#45;1 -->
<g id="edge28" class="edge">
<title>function&#45;0&#45;RegVal:s&#45;&gt;primitive&#45;String&#45;1</title>
<path fill="none" stroke="black" d="M333,-253C333,-239.84 333,-225.11 333,-213.3"/>
<polygon fill="black" stroke="black" points="334.75,-216 333,-211 331.25,-216 334.75,-216"/>
</g>
<!-- function&#45;0&#45;Sw&#45;&gt;function&#45;1&#45;ImmVal -->
<g id="edge31" class="edge">
<title>function&#45;0&#45;Sw:s&#45;&gt;function&#45;1&#45;ImmVal</title>
<path fill="none" stroke="black" d="M830,-332C830,-321.22 848.97,-303.99 866.41,-290.43"/>
<polygon fill="black" stroke="black" points="863.54,-293.16 867.8,-290 862.5,-289.82 863.54,-293.16"/>
</g>
<!-- function&#45;0&#45;Sw&#45;&gt;function&#45;0&#45;Addi -->
<g id="edge29" class="edge">
<title>function&#45;0&#45;Sw:s&#45;&gt;function&#45;0&#45;Addi</title>
<path fill="none" stroke="black" d="M811,-332C811,-256.65 715.21,-322.81 646,-293 645.48,-292.78 644.96,-292.55 644.44,-292.31"/>
<polygon fill="black" stroke="black" points="645.04,-290.65 639.78,-290 643.48,-293.79 645.04,-290.65"/>
</g>
<!-- function&#45;0&#45;Sw&#45;&gt;function&#45;3&#45;RegVal -->
<g id="edge30" class="edge">
<title>function&#45;0&#45;Sw:s&#45;&gt;function&#45;3&#45;RegVal</title>
<path fill="none" stroke="black" d="M823,-332C823,-318.84 823,-304.11 823,-292.3"/>
<polygon fill="black" stroke="black" points="824.75,-295 823,-290 821.25,-295 824.75,-295"/>
</g>
<!-- function&#45;2&#45;Addi&#45;&gt;function&#45;5&#45;ImmVal -->
<g id="edge33" class="edge">
<title>function&#45;2&#45;Addi:s&#45;&gt;function&#45;5&#45;ImmVal</title>
<path fill="none" stroke="black" d="M280,-332C280,-318.24 275.49,-303.56 270.75,-291.94"/>
<polygon fill="black" stroke="black" points="273.6,-293.6 269.71,-290 270.51,-295.24 273.6,-293.6"/>
</g>
<!-- function&#45;2&#45;Addi&#45;&gt;function&#45;0&#45;RegVal -->
<g id="edge32" class="edge">
<title>function&#45;2&#45;Addi:s&#45;&gt;function&#45;0&#45;RegVal</title>
<path fill="none" stroke="black" d="M260,-332C260,-320.65 280.8,-303.59 300.04,-290.24"/>
<polygon fill="black" stroke="black" points="296.76,-292.6 301.37,-290 296.14,-289.16 296.76,-292.6"/>
</g>
<!-- function&#45;4&#45;Addi&#45;&gt;function&#45;5&#45;ImmVal -->
<g id="edge35" class="edge">
<title>function&#45;4&#45;Addi:s&#45;&gt;function&#45;5&#45;ImmVal</title>
<path fill="none" stroke="black" d="M198,-332C198,-314.34 210.73,-299.96 224.65,-289.5"/>
<polygon fill="black" stroke="black" points="223.27,-292.93 226,-288.39 221.03,-290.23 223.27,-292.93"/>
</g>
<!-- function&#45;4&#45;Addi&#45;&gt;function&#45;1&#45;Addi -->
<g id="edge34" class="edge">
<title>function&#45;4&#45;Addi:s&#45;&gt;function&#45;1&#45;Addi</title>
<path fill="none" stroke="black" d="M178,-332C178,-318.73 176.17,-303.99 174.27,-292.22"/>
<polygon fill="black" stroke="black" points="176.86,-294.01 173.39,-290 173.6,-295.29 176.86,-294.01"/>
</g>
<!-- function&#45;1&#45;ImmLabel -->
<g id="node1" class="node">
<title>function&#45;1&#45;ImmLabel</title>
<g id="a_node1"><a xlink:title="Imm&#45;11: function&#45;1&#45;ImmLabel">
<path fill="white" stroke="transparent" d="M90.17,-174C90.17,-174 147.83,-174 147.83,-174 153.17,-174 158.5,-179.33 158.5,-184.67 158.5,-184.67 158.5,-195.33 158.5,-195.33 158.5,-200.67 153.17,-206 147.83,-206 147.83,-206 90.17,-206 90.17,-206 84.83,-206 79.5,-200.67 79.5,-195.33 79.5,-195.33 79.5,-184.67 79.5,-184.67 79.5,-179.33 84.83,-174 90.17,-174"/>
<text text-anchor="start" x="85" y="-186.3" font-family="Helvetica,sans-Serif" font-size="14.00">ImmLabel</text>
<path fill="none" stroke="black" d="M90.17,-174C90.17,-174 147.83,-174 147.83,-174 153.17,-174 158.5,-179.33 158.5,-184.67 158.5,-184.67 158.5,-195.33 158.5,-195.33 158.5,-200.67 153.17,-206 147.83,-206 147.83,-206 90.17,-206 90.17,-206 84.83,-206 79.5,-200.67 79.5,-195.33 79.5,-195.33 79.5,-184.67 79.5,-184.67 79.5,-179.33 84.83,-174 90.17,-174"/>
</a>
</g>
</g>
<!-- primitive&#45;String&#45;7 -->
<g id="node2" class="node">
<title>primitive&#45;String&#45;7</title>
<g id="a_node2"><a xlink:title="String&#45;7: primitive&#45;String&#45;7">
<path fill="white" stroke="transparent" d="M39.17,-95C39.17,-95 160.83,-95 160.83,-95 166.17,-95 171.5,-100.33 171.5,-105.67 171.5,-105.67 171.5,-116.33 171.5,-116.33 171.5,-121.67 166.17,-127 160.83,-127 160.83,-127 39.17,-127 39.17,-127 33.83,-127 28.5,-121.67 28.5,-116.33 28.5,-116.33 28.5,-105.67 28.5,-105.67 28.5,-100.33 33.83,-95 39.17,-95"/>
<text text-anchor="start" x="34" y="-107.3" font-family="Helvetica,sans-Serif" font-size="14.00">&quot;%lo(.LANCHOR0)&quot;</text>
<path fill="none" stroke="black" d="M39.17,-95C39.17,-95 160.83,-95 160.83,-95 166.17,-95 171.5,-100.33 171.5,-105.67 171.5,-105.67 171.5,-116.33 171.5,-116.33 171.5,-121.67 166.17,-127 160.83,-127 160.83,-127 39.17,-127 39.17,-127 33.83,-127 28.5,-121.67 28.5,-116.33 28.5,-116.33 28.5,-105.67 28.5,-105.67 28.5,-100.33 33.83,-95 39.17,-95"/>
</a>
</g>
</g>
<!-- function&#45;4&#45;ImmVal -->
<g id="node3" class="node">
<title>function&#45;4&#45;ImmVal</title>
<g id="a_node3"><a xlink:title="Imm&#45;17: function&#45;4&#45;ImmVal">
<path fill="white" stroke="transparent" d="M383.67,-253C383.67,-253 424.33,-253 424.33,-253 429.67,-253 435,-258.33 435,-263.67 435,-263.67 435,-274.33 435,-274.33 435,-279.67 429.67,-285 424.33,-285 424.33,-285 383.67,-285 383.67,-285 378.33,-285 373,-279.67 373,-274.33 373,-274.33 373,-263.67 373,-263.67 373,-258.33 378.33,-253 383.67,-253"/>
<text text-anchor="start" x="378" y="-265.3" font-family="Helvetica,sans-Serif" font-size="14.00">ImmVal</text>
<path fill="none" stroke="black" d="M383.67,-253C383.67,-253 424.33,-253 424.33,-253 429.67,-253 435,-258.33 435,-263.67 435,-263.67 435,-274.33 435,-274.33 435,-279.67 429.67,-285 424.33,-285 424.33,-285 383.67,-285 383.67,-285 378.33,-285 373,-279.67 373,-274.33 373,-274.33 373,-263.67 373,-263.67 373,-258.33 378.33,-253 383.67,-253"/>
</a>
</g>
</g>
<!-- primitive&#45;i64&#45;72 -->
<g id="node4" class="node">
<title>primitive&#45;i64&#45;72</title>
<g id="a_node4"><a xlink:title="i64&#45;72: primitive&#45;i64&#45;72">
<path fill="white" stroke="transparent" d="M398.67,-174C398.67,-174 409.33,-174 409.33,-174 414.67,-174 420,-179.33 420,-184.67 420,-184.67 420,-195.33 420,-195.33 420,-200.67 414.67,-206 409.33,-206 409.33,-206 398.67,-206 398.67,-206 393.33,-206 388,-200.67 388,-195.33 388,-195.33 388,-184.67 388,-184.67 388,-179.33 393.33,-174 398.67,-174"/>
<text text-anchor="start" x="394.5" y="-186.3" font-family="Helvetica,sans-Serif" font-size="14.00">72</text>
<path fill="none" stroke="black" d="M398.67,-174C398.67,-174 409.33,-174 409.33,-174 414.67,-174 420,-179.33 420,-184.67 420,-184.67 420,-195.33 420,-195.33 420,-200.67 414.67,-206 409.33,-206 409.33,-206 398.67,-206 398.67,-206 393.33,-206 388,-200.67 388,-195.33 388,-195.33 388,-184.67 388,-184.67 388,-179.33 393.33,-174 398.67,-174"/>
</a>
</g>
</g>
<!-- function&#45;0&#45;ImmLabel -->
<g id="node5" class="node">
<title>function&#45;0&#45;ImmLabel</title>
<g id="a_node5"><a xlink:title="Imm&#45;9: function&#45;0&#45;ImmLabel">
<path fill="white" stroke="transparent" d="M194.17,-95C194.17,-95 251.83,-95 251.83,-95 257.17,-95 262.5,-100.33 262.5,-105.67 262.5,-105.67 262.5,-116.33 262.5,-116.33 262.5,-121.67 257.17,-127 251.83,-127 251.83,-127 194.17,-127 194.17,-127 188.83,-127 183.5,-121.67 183.5,-116.33 183.5,-116.33 183.5,-105.67 183.5,-105.67 183.5,-100.33 188.83,-95 194.17,-95"/>
<text text-anchor="start" x="189" y="-107.3" font-family="Helvetica,sans-Serif" font-size="14.00">ImmLabel</text>
<path fill="none" stroke="black" d="M194.17,-95C194.17,-95 251.83,-95 251.83,-95 257.17,-95 262.5,-100.33 262.5,-105.67 262.5,-105.67 262.5,-116.33 262.5,-116.33 262.5,-121.67 257.17,-127 251.83,-127 251.83,-127 194.17,-127 194.17,-127 188.83,-127 183.5,-121.67 183.5,-116.33 183.5,-116.33 183.5,-105.67 183.5,-105.67 183.5,-100.33 188.83,-95 194.17,-95"/>
</a>
</g>
</g>
<!-- primitive&#45;String&#45;6 -->
<g id="node6" class="node">
<title>primitive&#45;String&#45;6</title>
<g id="a_node6"><a xlink:title="String&#45;6: primitive&#45;String&#45;6">
<path fill="white" stroke="transparent" d="M162.67,-16C162.67,-16 285.33,-16 285.33,-16 290.67,-16 296,-21.33 296,-26.67 296,-26.67 296,-37.33 296,-37.33 296,-42.67 290.67,-48 285.33,-48 285.33,-48 162.67,-48 162.67,-48 157.33,-48 152,-42.67 152,-37.33 152,-37.33 152,-26.67 152,-26.67 152,-21.33 157.33,-16 162.67,-16"/>
<text text-anchor="start" x="157" y="-28.3" font-family="Helvetica,sans-Serif" font-size="14.00">&quot;%hi(.LANCHOR0)&quot;</text>
<path fill="none" stroke="black" d="M162.67,-16C162.67,-16 285.33,-16 285.33,-16 290.67,-16 296,-21.33 296,-26.67 296,-26.67 296,-37.33 296,-37.33 296,-42.67 290.67,-48 285.33,-48 285.33,-48 162.67,-48 162.67,-48 157.33,-48 152,-42.67 152,-37.33 152,-37.33 152,-26.67 152,-26.67 152,-21.33 157.33,-16 162.67,-16"/>
</a>
</g>
</g>
<!-- function&#45;6&#45;ImmVal -->
<g id="node7" class="node">
<title>function&#45;6&#45;ImmVal</title>
<g id="a_node7"><a xlink:title="Imm&#45;21: function&#45;6&#45;ImmVal">
<path fill="white" stroke="transparent" d="M48.67,-253C48.67,-253 89.33,-253 89.33,-253 94.67,-253 100,-258.33 100,-263.67 100,-263.67 100,-274.33 100,-274.33 100,-279.67 94.67,-285 89.33,-285 89.33,-285 48.67,-285 48.67,-285 43.33,-285 38,-279.67 38,-274.33 38,-274.33 38,-263.67 38,-263.67 38,-258.33 43.33,-253 48.67,-253"/>
<text text-anchor="start" x="43" y="-265.3" font-family="Helvetica,sans-Serif" font-size="14.00">ImmVal</text>
<path fill="none" stroke="black" d="M48.67,-253C48.67,-253 89.33,-253 89.33,-253 94.67,-253 100,-258.33 100,-263.67 100,-263.67 100,-274.33 100,-274.33 100,-279.67 94.67,-285 89.33,-285 89.33,-285 48.67,-285 48.67,-285 43.33,-285 38,-279.67 38,-274.33 38,-274.33 38,-263.67 38,-263.67 38,-258.33 43.33,-253 48.67,-253"/>
</a>
</g>
</g>
<!-- primitive&#45;i64&#45;800 -->
<g id="node8" class="node">
<title>primitive&#45;i64&#45;800</title>
<g id="a_node8"><a xlink:title="i64&#45;800: primitive&#45;i64&#45;800">
<path fill="white" stroke="transparent" d="M32.67,-174C32.67,-174 49.33,-174 49.33,-174 54.67,-174 60,-179.33 60,-184.67 60,-184.67 60,-195.33 60,-195.33 60,-200.67 54.67,-206 49.33,-206 49.33,-206 32.67,-206 32.67,-206 27.33,-206 22,-200.67 22,-195.33 22,-195.33 22,-184.67 22,-184.67 22,-179.33 27.33,-174 32.67,-174"/>
<text text-anchor="start" x="27" y="-186.3" font-family="Helvetica,sans-Serif" font-size="14.00">800</text>
<path fill="none" stroke="black" d="M32.67,-174C32.67,-174 49.33,-174 49.33,-174 54.67,-174 60,-179.33 60,-184.67 60,-184.67 60,-195.33 60,-195.33 60,-200.67 54.67,-206 49.33,-206 49.33,-206 32.67,-206 32.67,-206 27.33,-206 22,-200.67 22,-195.33 22,-195.33 22,-184.67 22,-184.67 22,-179.33 27.33,-174 32.67,-174"/>
</a>
</g>
</g>
<!-- function&#45;0&#45;ImmVal -->
<g id="node9" class="node">
<title>function&#45;0&#45;ImmVal</title>
<g id="a_node9"><a xlink:title="Imm&#45;5: function&#45;0&#45;ImmVal">
<path fill="white" stroke="transparent" d="M524.67,-174C524.67,-174 565.33,-174 565.33,-174 570.67,-174 576,-179.33 576,-184.67 576,-184.67 576,-195.33 576,-195.33 576,-200.67 570.67,-206 565.33,-206 565.33,-206 524.67,-206 524.67,-206 519.33,-206 514,-200.67 514,-195.33 514,-195.33 514,-184.67 514,-184.67 514,-179.33 519.33,-174 524.67,-174"/>
<text text-anchor="start" x="519" y="-186.3" font-family="Helvetica,sans-Serif" font-size="14.00">ImmVal</text>
<path fill="none" stroke="black" d="M524.67,-174C524.67,-174 565.33,-174 565.33,-174 570.67,-174 576,-179.33 576,-184.67 576,-184.67 576,-195.33 576,-195.33 576,-200.67 570.67,-206 565.33,-206 565.33,-206 524.67,-206 524.67,-206 519.33,-206 514,-200.67 514,-195.33 514,-195.33 514,-184.67 514,-184.67 514,-179.33 519.33,-174 524.67,-174"/>
</a>
</g>
</g>
<!-- primitive&#45;i64&#45;2147483649 -->
<g id="node10" class="node">
<title>primitive&#45;i64&#45;2147483649</title>
<g id="a_node10"><a xlink:title="i64&#45;2147483649: primitive&#45;i64&#45;2147483649">
<path fill="white" stroke="transparent" d="M538.67,-95C538.67,-95 551.33,-95 551.33,-95 556.67,-95 562,-100.33 562,-105.67 562,-105.67 562,-116.33 562,-116.33 562,-121.67 556.67,-127 551.33,-127 551.33,-127 538.67,-127 538.67,-127 533.33,-127 528,-121.67 528,-116.33 528,-116.33 528,-105.67 528,-105.67 528,-100.33 533.33,-95 538.67,-95"/>
<text text-anchor="start" x="533" y="-107.3" font-family="Helvetica,sans-Serif" font-size="14.00">&#45;80</text>
<path fill="none" stroke="black" d="M538.67,-95C538.67,-95 551.33,-95 551.33,-95 556.67,-95 562,-100.33 562,-105.67 562,-105.67 562,-116.33 562,-116.33 562,-121.67 556.67,-127 551.33,-127 551.33,-127 538.67,-127 538.67,-127 533.33,-127 528,-121.67 528,-116.33 528,-116.33 528,-105.67 528,-105.67 528,-100.33 533.33,-95 538.67,-95"/>
</a>
</g>
</g>
<!-- function&#45;1&#45;ImmVal -->
<g id="node11" class="node">
<title>function&#45;1&#45;ImmVal</title>
<g id="a_node11"><a xlink:title="Imm&#45;7: function&#45;1&#45;ImmVal">
<path fill="white" stroke="transparent" d="M874.67,-253C874.67,-253 915.33,-253 915.33,-253 920.67,-253 926,-258.33 926,-263.67 926,-263.67 926,-274.33 926,-274.33 926,-279.67 920.67,-285 915.33,-285 915.33,-285 874.67,-285 874.67,-285 869.33,-285 864,-279.67 864,-274.33 864,-274.33 864,-263.67 864,-263.67 864,-258.33 869.33,-253 874.67,-253"/>
<text text-anchor="start" x="869" y="-265.3" font-family="Helvetica,sans-Serif" font-size="14.00">ImmVal</text>
<path fill="none" stroke="black" d="M874.67,-253C874.67,-253 915.33,-253 915.33,-253 920.67,-253 926,-258.33 926,-263.67 926,-263.67 926,-274.33 926,-274.33 926,-279.67 920.67,-285 915.33,-285 915.33,-285 874.67,-285 874.67,-285 869.33,-285 864,-279.67 864,-274.33 864,-274.33 864,-263.67 864,-263.67 864,-258.33 869.33,-253 874.67,-253"/>
</a>
</g>
</g>
<!-- primitive&#45;i64&#45;52 -->
<g id="node12" class="node">
<title>primitive&#45;i64&#45;52</title>
<g id="a_node12"><a xlink:title="i64&#45;52: primitive&#45;i64&#45;52">
<path fill="white" stroke="transparent" d="M889.67,-174C889.67,-174 900.33,-174 900.33,-174 905.67,-174 911,-179.33 911,-184.67 911,-184.67 911,-195.33 911,-195.33 911,-200.67 905.67,-206 900.33,-206 900.33,-206 889.67,-206 889.67,-206 884.33,-206 879,-200.67 879,-195.33 879,-195.33 879,-184.67 879,-184.67 879,-179.33 884.33,-174 889.67,-174"/>
<text text-anchor="start" x="885.5" y="-186.3" font-family="Helvetica,sans-Serif" font-size="14.00">52</text>
<path fill="none" stroke="black" d="M889.67,-174C889.67,-174 900.33,-174 900.33,-174 905.67,-174 911,-179.33 911,-184.67 911,-184.67 911,-195.33 911,-195.33 911,-200.67 905.67,-206 900.33,-206 900.33,-206 889.67,-206 889.67,-206 884.33,-206 879,-200.67 879,-195.33 879,-195.33 879,-184.67 879,-184.67 879,-179.33 884.33,-174 889.67,-174"/>
</a>
</g>
</g>
<!-- function&#45;3&#45;ImmVal -->
<g id="node13" class="node">
<title>function&#45;3&#45;ImmVal</title>
<g id="a_node13"><a xlink:title="Imm&#45;15: function&#45;3&#45;ImmVal">
<path fill="white" stroke="transparent" d="M660.67,-253C660.67,-253 701.33,-253 701.33,-253 706.67,-253 712,-258.33 712,-263.67 712,-263.67 712,-274.33 712,-274.33 712,-279.67 706.67,-285 701.33,-285 701.33,-285 660.67,-285 660.67,-285 655.33,-285 650,-279.67 650,-274.33 650,-274.33 650,-263.67 650,-263.67 650,-258.33 655.33,-253 660.67,-253"/>
<text text-anchor="start" x="655" y="-265.3" font-family="Helvetica,sans-Serif" font-size="14.00">ImmVal</text>
<path fill="none" stroke="black" d="M660.67,-253C660.67,-253 701.33,-253 701.33,-253 706.67,-253 712,-258.33 712,-263.67 712,-263.67 712,-274.33 712,-274.33 712,-279.67 706.67,-285 701.33,-285 701.33,-285 660.67,-285 660.67,-285 655.33,-285 650,-279.67 650,-274.33 650,-274.33 650,-263.67 650,-263.67 650,-258.33 655.33,-253 660.67,-253"/>
</a>
</g>
</g>
<!-- primitive&#45;i64&#45;76 -->
<g id="node14" class="node">
<title>primitive&#45;i64&#45;76</title>
<g id="a_node14"><a xlink:title="i64&#45;76: primitive&#45;i64&#45;76">
<path fill="white" stroke="transparent" d="M679.67,-174C679.67,-174 690.33,-174 690.33,-174 695.67,-174 701,-179.33 701,-184.67 701,-184.67 701,-195.33 701,-195.33 701,-200.67 695.67,-206 690.33,-206 690.33,-206 679.67,-206 679.67,-206 674.33,-206 669,-200.67 669,-195.33 669,-195.33 669,-184.67 669,-184.67 669,-179.33 674.33,-174 679.67,-174"/>
<text text-anchor="start" x="675.5" y="-186.3" font-family="Helvetica,sans-Serif" font-size="14.00">76</text>
<path fill="none" stroke="black" d="M679.67,-174C679.67,-174 690.33,-174 690.33,-174 695.67,-174 701,-179.33 701,-184.67 701,-184.67 701,-195.33 701,-195.33 701,-200.67 695.67,-206 690.33,-206 690.33,-206 679.67,-206 679.67,-206 674.33,-206 669,-200.67 669,-195.33 669,-195.33 669,-184.67 669,-184.67 669,-179.33 674.33,-174 679.67,-174"/>
</a>
</g>
</g>
<!-- function&#45;5&#45;ImmVal -->
<g id="node15" class="node">
<title>function&#45;5&#45;ImmVal</title>
<g id="a_node15"><a xlink:title="Imm&#45;19: function&#45;5&#45;ImmVal">
<path fill="white" stroke="transparent" d="M239.67,-253C239.67,-253 280.33,-253 280.33,-253 285.67,-253 291,-258.33 291,-263.67 291,-263.67 291,-274.33 291,-274.33 291,-279.67 285.67,-285 280.33,-285 280.33,-285 239.67,-285 239.67,-285 234.33,-285 229,-279.67 229,-274.33 229,-274.33 229,-263.67 229,-263.67 229,-258.33 234.33,-253 239.67,-253"/>
<text text-anchor="start" x="234" y="-265.3" font-family="Helvetica,sans-Serif" font-size="14.00">ImmVal</text>
<path fill="none" stroke="black" d="M239.67,-253C239.67,-253 280.33,-253 280.33,-253 285.67,-253 291,-258.33 291,-263.67 291,-263.67 291,-274.33 291,-274.33 291,-279.67 285.67,-285 280.33,-285 280.33,-285 239.67,-285 239.67,-285 234.33,-285 229,-279.67 229,-274.33 229,-274.33 229,-263.67 229,-263.67 229,-258.33 234.33,-253 239.67,-253"/>
</a>
</g>
</g>
<!-- primitive&#45;i64&#45;0 -->
<g id="node16" class="node">
<title>primitive&#45;i64&#45;0</title>
<g id="a_node16"><a xlink:title="i64&#45;0: primitive&#45;i64&#45;0">
<path fill="white" stroke="transparent" d="M257.67,-174C257.67,-174 268.33,-174 268.33,-174 273.67,-174 279,-179.33 279,-184.67 279,-184.67 279,-195.33 279,-195.33 279,-200.67 273.67,-206 268.33,-206 268.33,-206 257.67,-206 257.67,-206 252.33,-206 247,-200.67 247,-195.33 247,-195.33 247,-184.67 247,-184.67 247,-179.33 252.33,-174 257.67,-174"/>
<text text-anchor="start" x="258" y="-186.3" font-family="Helvetica,sans-Serif" font-size="14.00">0</text>
<path fill="none" stroke="black" d="M257.67,-174C257.67,-174 268.33,-174 268.33,-174 273.67,-174 279,-179.33 279,-184.67 279,-184.67 279,-195.33 279,-195.33 279,-200.67 273.67,-206 268.33,-206 268.33,-206 257.67,-206 257.67,-206 252.33,-206 247,-200.67 247,-195.33 247,-195.33 247,-184.67 247,-184.67 247,-179.33 252.33,-174 257.67,-174"/>
</a>
</g>
</g>
<!-- function&#45;2&#45;ImmVal -->
<g id="node17" class="node">
<title>function&#45;2&#45;ImmVal</title>
<g id="a_node17"><a xlink:title="Imm&#45;13: function&#45;2&#45;ImmVal">
<path fill="white" stroke="transparent" d="M1018.67,-174C1018.67,-174 1059.33,-174 1059.33,-174 1064.67,-174 1070,-179.33 1070,-184.67 1070,-184.67 1070,-195.33 1070,-195.33 1070,-200.67 1064.67,-206 1059.33,-206 1059.33,-206 1018.67,-206 1018.67,-206 1013.33,-206 1008,-200.67 1008,-195.33 1008,-195.33 1008,-184.67 1008,-184.67 1008,-179.33 1013.33,-174 1018.67,-174"/>
<text text-anchor="start" x="1013" y="-186.3" font-family="Helvetica,sans-Serif" font-size="14.00">ImmVal</text>
<path fill="none" stroke="black" d="M1018.67,-174C1018.67,-174 1059.33,-174 1059.33,-174 1064.67,-174 1070,-179.33 1070,-184.67 1070,-184.67 1070,-195.33 1070,-195.33 1070,-200.67 1064.67,-206 1059.33,-206 1059.33,-206 1018.67,-206 1018.67,-206 1013.33,-206 1008,-200.67 1008,-195.33 1008,-195.33 1008,-184.67 1008,-184.67 1008,-179.33 1013.33,-174 1018.67,-174"/>
</a>
</g>
</g>
<!-- primitive&#45;i64&#45;2 -->
<g id="node18" class="node">
<title>primitive&#45;i64&#45;2</title>
<g id="a_node18"><a xlink:title="i64&#45;2: primitive&#45;i64&#45;2">
<path fill="white" stroke="transparent" d="M1033.67,-95C1033.67,-95 1044.33,-95 1044.33,-95 1049.67,-95 1055,-100.33 1055,-105.67 1055,-105.67 1055,-116.33 1055,-116.33 1055,-121.67 1049.67,-127 1044.33,-127 1044.33,-127 1033.67,-127 1033.67,-127 1028.33,-127 1023,-121.67 1023,-116.33 1023,-116.33 1023,-105.67 1023,-105.67 1023,-100.33 1028.33,-95 1033.67,-95"/>
<text text-anchor="start" x="1034" y="-107.3" font-family="Helvetica,sans-Serif" font-size="14.00">2</text>
<path fill="none" stroke="black" d="M1033.67,-95C1033.67,-95 1044.33,-95 1044.33,-95 1049.67,-95 1055,-100.33 1055,-105.67 1055,-105.67 1055,-116.33 1055,-116.33 1055,-121.67 1049.67,-127 1044.33,-127 1044.33,-127 1033.67,-127 1033.67,-127 1028.33,-127 1023,-121.67 1023,-116.33 1023,-116.33 1023,-105.67 1023,-105.67 1023,-100.33 1028.33,-95 1033.67,-95"/>
</a>
</g>
</g>
<!-- function&#45;7&#45;ImmVal -->
<g id="node19" class="node">
<title>function&#45;7&#45;ImmVal</title>
<g id="a_node19"><a xlink:title="Imm&#45;24: function&#45;7&#45;ImmVal">
<path fill="white" stroke="transparent" d="M948.67,-253C948.67,-253 989.33,-253 989.33,-253 994.67,-253 1000,-258.33 1000,-263.67 1000,-263.67 1000,-274.33 1000,-274.33 1000,-279.67 994.67,-285 989.33,-285 989.33,-285 948.67,-285 948.67,-285 943.33,-285 938,-279.67 938,-274.33 938,-274.33 938,-263.67 938,-263.67 938,-258.33 943.33,-253 948.67,-253"/>
<text text-anchor="start" x="943" y="-265.3" font-family="Helvetica,sans-Serif" font-size="14.00">ImmVal</text>
<path fill="none" stroke="black" d="M948.67,-253C948.67,-253 989.33,-253 989.33,-253 994.67,-253 1000,-258.33 1000,-263.67 1000,-263.67 1000,-274.33 1000,-274.33 1000,-279.67 994.67,-285 989.33,-285 989.33,-285 948.67,-285 948.67,-285 943.33,-285 938,-279.67 938,-274.33 938,-274.33 938,-263.67 938,-263.67 938,-258.33 943.33,-253 948.67,-253"/>
</a>
</g>
</g>
<!-- primitive&#45;i64&#45;1807 -->
<g id="node20" class="node">
<title>primitive&#45;i64&#45;1807</title>
<g id="a_node20"><a xlink:title="i64&#45;1807: primitive&#45;i64&#45;1807">
<path fill="white" stroke="transparent" d="M956.17,-174C956.17,-174 981.83,-174 981.83,-174 987.17,-174 992.5,-179.33 992.5,-184.67 992.5,-184.67 992.5,-195.33 992.5,-195.33 992.5,-200.67 987.17,-206 981.83,-206 981.83,-206 956.17,-206 956.17,-206 950.83,-206 945.5,-200.67 945.5,-195.33 945.5,-195.33 945.5,-184.67 945.5,-184.67 945.5,-179.33 950.83,-174 956.17,-174"/>
<text text-anchor="start" x="951" y="-186.3" font-family="Helvetica,sans-Serif" font-size="14.00">1807</text>
<path fill="none" stroke="black" d="M956.17,-174C956.17,-174 981.83,-174 981.83,-174 987.17,-174 992.5,-179.33 992.5,-184.67 992.5,-184.67 992.5,-195.33 992.5,-195.33 992.5,-200.67 987.17,-206 981.83,-206 981.83,-206 956.17,-206 956.17,-206 950.83,-206 945.5,-200.67 945.5,-195.33 945.5,-195.33 945.5,-184.67 945.5,-184.67 945.5,-179.33 950.83,-174 956.17,-174"/>
</a>
</g>
</g>
<!-- function&#45;5&#45;Addi -->
<g id="node21" class="node">
<title>function&#45;5&#45;Addi</title>
<g id="a_node21"><a xlink:title="Inst&#45;25: function&#45;5&#45;Addi">
<path fill="white" stroke="transparent" d="M991.17,-332C991.17,-332 1010.83,-332 1010.83,-332 1016.17,-332 1021.5,-337.33 1021.5,-342.67 1021.5,-342.67 1021.5,-353.33 1021.5,-353.33 1021.5,-358.67 1016.17,-364 1010.83,-364 1010.83,-364 991.17,-364 991.17,-364 985.83,-364 980.5,-358.67 980.5,-353.33 980.5,-353.33 980.5,-342.67 980.5,-342.67 980.5,-337.33 985.83,-332 991.17,-332"/>
<text text-anchor="start" x="986" y="-344.3" font-family="Helvetica,sans-Serif" font-size="14.00">Addi</text>
<path fill="none" stroke="black" d="M991.17,-332C991.17,-332 1010.83,-332 1010.83,-332 1016.17,-332 1021.5,-337.33 1021.5,-342.67 1021.5,-342.67 1021.5,-353.33 1021.5,-353.33 1021.5,-358.67 1016.17,-364 1010.83,-364 1010.83,-364 991.17,-364 991.17,-364 985.83,-364 980.5,-358.67 980.5,-353.33 980.5,-353.33 980.5,-342.67 980.5,-342.67 980.5,-337.33 985.83,-332 991.17,-332"/>
</a>
</g>
</g>
<!-- function&#45;1&#45;Lui -->
<g id="node22" class="node">
<title>function&#45;1&#45;Lui</title>
<g id="a_node22"><a xlink:title="Inst&#45;14: function&#45;1&#45;Lui">
<path fill="white" stroke="transparent" d="M1033.67,-253C1033.67,-253 1044.33,-253 1044.33,-253 1049.67,-253 1055,-258.33 1055,-263.67 1055,-263.67 1055,-274.33 1055,-274.33 1055,-279.67 1049.67,-285 1044.33,-285 1044.33,-285 1033.67,-285 1033.67,-285 1028.33,-285 1023,-279.67 1023,-274.33 1023,-274.33 1023,-263.67 1023,-263.67 1023,-258.33 1028.33,-253 1033.67,-253"/>
<text text-anchor="start" x="1028.5" y="-265.3" font-family="Helvetica,sans-Serif" font-size="14.00">Lui</text>
<path fill="none" stroke="black" d="M1033.67,-253C1033.67,-253 1044.33,-253 1044.33,-253 1049.67,-253 1055,-258.33 1055,-263.67 1055,-263.67 1055,-274.33 1055,-274.33 1055,-279.67 1049.67,-285 1044.33,-285 1044.33,-285 1033.67,-285 1033.67,-285 1028.33,-285 1023,-279.67 1023,-274.33 1023,-274.33 1023,-263.67 1023,-263.67 1023,-258.33 1028.33,-253 1033.67,-253"/>
</a>
</g>
</g>
<!-- function&#45;1&#45;RegVal -->
<g id="node23" class="node">
<title>function&#45;1&#45;RegVal</title>
<g id="a_node23"><a xlink:title="Inst&#45;1: function&#45;1&#45;RegVal">
<path fill="white" stroke="transparent" d="M735.17,-253C735.17,-253 770.83,-253 770.83,-253 776.17,-253 781.5,-258.33 781.5,-263.67 781.5,-263.67 781.5,-274.33 781.5,-274.33 781.5,-279.67 776.17,-285 770.83,-285 770.83,-285 735.17,-285 735.17,-285 729.83,-285 724.5,-279.67 724.5,-274.33 724.5,-274.33 724.5,-263.67 724.5,-263.67 724.5,-258.33 729.83,-253 735.17,-253"/>
<text text-anchor="start" x="730" y="-265.3" font-family="Helvetica,sans-Serif" font-size="14.00">RegVal</text>
<path fill="none" stroke="black" d="M735.17,-253C735.17,-253 770.83,-253 770.83,-253 776.17,-253 781.5,-258.33 781.5,-263.67 781.5,-263.67 781.5,-274.33 781.5,-274.33 781.5,-279.67 776.17,-285 770.83,-285 770.83,-285 735.17,-285 735.17,-285 729.83,-285 724.5,-279.67 724.5,-274.33 724.5,-274.33 724.5,-263.67 724.5,-263.67 724.5,-258.33 729.83,-253 735.17,-253"/>
</a>
</g>
</g>
<!-- primitive&#45;String&#45;2 -->
<g id="node24" class="node">
<title>primitive&#45;String&#45;2</title>
<g id="a_node24"><a xlink:title="String&#45;2: primitive&#45;String&#45;2">
<path fill="white" stroke="transparent" d="M737.67,-174C737.67,-174 770.33,-174 770.33,-174 775.67,-174 781,-179.33 781,-184.67 781,-184.67 781,-195.33 781,-195.33 781,-200.67 775.67,-206 770.33,-206 770.33,-206 737.67,-206 737.67,-206 732.33,-206 727,-200.67 727,-195.33 727,-195.33 727,-184.67 727,-184.67 727,-179.33 732.33,-174 737.67,-174"/>
<text text-anchor="start" x="732" y="-186.3" font-family="Helvetica,sans-Serif" font-size="14.00">&quot;ra_0&quot;</text>
<path fill="none" stroke="black" d="M737.67,-174C737.67,-174 770.33,-174 770.33,-174 775.67,-174 781,-179.33 781,-184.67 781,-184.67 781,-195.33 781,-195.33 781,-200.67 775.67,-206 770.33,-206 770.33,-206 737.67,-206 737.67,-206 732.33,-206 727,-200.67 727,-195.33 727,-195.33 727,-184.67 727,-184.67 727,-179.33 732.33,-174 737.67,-174"/>
</a>
</g>
</g>
<!-- function&#45;1&#45;Sw -->
<g id="node25" class="node">
<title>function&#45;1&#45;Sw</title>
<g id="a_node25"><a xlink:title="Inst&#45;16: function&#45;1&#45;Sw">
<path fill="white" stroke="transparent" d="M664.67,-332C664.67,-332 675.33,-332 675.33,-332 680.67,-332 686,-337.33 686,-342.67 686,-342.67 686,-353.33 686,-353.33 686,-358.67 680.67,-364 675.33,-364 675.33,-364 664.67,-364 664.67,-364 659.33,-364 654,-358.67 654,-353.33 654,-353.33 654,-342.67 654,-342.67 654,-337.33 659.33,-332 664.67,-332"/>
<text text-anchor="start" x="659.5" y="-344.3" font-family="Helvetica,sans-Serif" font-size="14.00">Sw</text>
<path fill="none" stroke="black" d="M664.67,-332C664.67,-332 675.33,-332 675.33,-332 680.67,-332 686,-337.33 686,-342.67 686,-342.67 686,-353.33 686,-353.33 686,-358.67 680.67,-364 675.33,-364 675.33,-364 664.67,-364 664.67,-364 659.33,-364 654,-358.67 654,-353.33 654,-353.33 654,-342.67 654,-342.67 654,-337.33 659.33,-332 664.67,-332"/>
</a>
</g>
</g>
<!-- function&#45;0&#45;Addi -->
<g id="node26" class="node">
<title>function&#45;0&#45;Addi</title>
<g id="a_node26"><a xlink:title="Inst&#45;6: function&#45;0&#45;Addi">
<path fill="white" stroke="transparent" d="M601.17,-253C601.17,-253 620.83,-253 620.83,-253 626.17,-253 631.5,-258.33 631.5,-263.67 631.5,-263.67 631.5,-274.33 631.5,-274.33 631.5,-279.67 626.17,-285 620.83,-285 620.83,-285 601.17,-285 601.17,-285 595.83,-285 590.5,-279.67 590.5,-274.33 590.5,-274.33 590.5,-263.67 590.5,-263.67 590.5,-258.33 595.83,-253 601.17,-253"/>
<text text-anchor="start" x="596" y="-265.3" font-family="Helvetica,sans-Serif" font-size="14.00">Addi</text>
<path fill="none" stroke="black" d="M601.17,-253C601.17,-253 620.83,-253 620.83,-253 626.17,-253 631.5,-258.33 631.5,-263.67 631.5,-263.67 631.5,-274.33 631.5,-274.33 631.5,-279.67 626.17,-285 620.83,-285 620.83,-285 601.17,-285 601.17,-285 595.83,-285 590.5,-279.67 590.5,-274.33 590.5,-274.33 590.5,-263.67 590.5,-263.67 590.5,-258.33 595.83,-253 601.17,-253"/>
</a>
</g>
</g>
<!-- function&#45;0&#45;Lui -->
<g id="node27" class="node">
<title>function&#45;0&#45;Lui</title>
<g id="a_node27"><a xlink:title="Inst&#45;10: function&#45;0&#45;Lui">
<path fill="white" stroke="transparent" d="M191.67,-174C191.67,-174 202.33,-174 202.33,-174 207.67,-174 213,-179.33 213,-184.67 213,-184.67 213,-195.33 213,-195.33 213,-200.67 207.67,-206 202.33,-206 202.33,-206 191.67,-206 191.67,-206 186.33,-206 181,-200.67 181,-195.33 181,-195.33 181,-184.67 181,-184.67 181,-179.33 186.33,-174 191.67,-174"/>
<text text-anchor="start" x="186.5" y="-186.3" font-family="Helvetica,sans-Serif" font-size="14.00">Lui</text>
<path fill="none" stroke="black" d="M191.67,-174C191.67,-174 202.33,-174 202.33,-174 207.67,-174 213,-179.33 213,-184.67 213,-184.67 213,-195.33 213,-195.33 213,-200.67 207.67,-206 202.33,-206 202.33,-206 191.67,-206 191.67,-206 186.33,-206 181,-200.67 181,-195.33 181,-195.33 181,-184.67 181,-184.67 181,-179.33 186.33,-174 191.67,-174"/>
</a>
</g>
</g>
<!-- function&#45;4&#45;RegVal -->
<g id="node28" class="node">
<title>function&#45;4&#45;RegVal</title>
<g id="a_node28"><a xlink:title="Inst&#45;4: function&#45;4&#45;RegVal">
<path fill="white" stroke="transparent" d="M599.17,-174C599.17,-174 634.83,-174 634.83,-174 640.17,-174 645.5,-179.33 645.5,-184.67 645.5,-184.67 645.5,-195.33 645.5,-195.33 645.5,-200.67 640.17,-206 634.83,-206 634.83,-206 599.17,-206 599.17,-206 593.83,-206 588.5,-200.67 588.5,-195.33 588.5,-195.33 588.5,-184.67 588.5,-184.67 588.5,-179.33 593.83,-174 599.17,-174"/>
<text text-anchor="start" x="594" y="-186.3" font-family="Helvetica,sans-Serif" font-size="14.00">RegVal</text>
<path fill="none" stroke="black" d="M599.17,-174C599.17,-174 634.83,-174 634.83,-174 640.17,-174 645.5,-179.33 645.5,-184.67 645.5,-184.67 645.5,-195.33 645.5,-195.33 645.5,-200.67 640.17,-206 634.83,-206 634.83,-206 599.17,-206 599.17,-206 593.83,-206 588.5,-200.67 588.5,-195.33 588.5,-195.33 588.5,-184.67 588.5,-184.67 588.5,-179.33 593.83,-174 599.17,-174"/>
</a>
</g>
</g>
<!-- function&#45;2&#45;Sw -->
<g id="node29" class="node">
<title>function&#45;2&#45;Sw</title>
<g id="a_node29"><a xlink:title="Inst&#45;18: function&#45;2&#45;Sw">
<path fill="white" stroke="transparent" d="M466.67,-332C466.67,-332 477.33,-332 477.33,-332 482.67,-332 488,-337.33 488,-342.67 488,-342.67 488,-353.33 488,-353.33 488,-358.67 482.67,-364 477.33,-364 477.33,-364 466.67,-364 466.67,-364 461.33,-364 456,-358.67 456,-353.33 456,-353.33 456,-342.67 456,-342.67 456,-337.33 461.33,-332 466.67,-332"/>
<text text-anchor="start" x="461.5" y="-344.3" font-family="Helvetica,sans-Serif" font-size="14.00">Sw</text>
<path fill="none" stroke="black" d="M466.67,-332C466.67,-332 477.33,-332 477.33,-332 482.67,-332 488,-337.33 488,-342.67 488,-342.67 488,-353.33 488,-353.33 488,-358.67 482.67,-364 477.33,-364 477.33,-364 466.67,-364 466.67,-364 461.33,-364 456,-358.67 456,-353.33 456,-353.33 456,-342.67 456,-342.67 456,-337.33 461.33,-332 466.67,-332"/>
</a>
</g>
</g>
<!-- function&#45;2&#45;RegVal -->
<g id="node30" class="node">
<title>function&#45;2&#45;RegVal</title>
<g id="a_node30"><a xlink:title="Inst&#45;2: function&#45;2&#45;RegVal">
<path fill="white" stroke="transparent" d="M458.17,-253C458.17,-253 493.83,-253 493.83,-253 499.17,-253 504.5,-258.33 504.5,-263.67 504.5,-263.67 504.5,-274.33 504.5,-274.33 504.5,-279.67 499.17,-285 493.83,-285 493.83,-285 458.17,-285 458.17,-285 452.83,-285 447.5,-279.67 447.5,-274.33 447.5,-274.33 447.5,-263.67 447.5,-263.67 447.5,-258.33 452.83,-253 458.17,-253"/>
<text text-anchor="start" x="453" y="-265.3" font-family="Helvetica,sans-Serif" font-size="14.00">RegVal</text>
<path fill="none" stroke="black" d="M458.17,-253C458.17,-253 493.83,-253 493.83,-253 499.17,-253 504.5,-258.33 504.5,-263.67 504.5,-263.67 504.5,-274.33 504.5,-274.33 504.5,-279.67 499.17,-285 493.83,-285 493.83,-285 458.17,-285 458.17,-285 452.83,-285 447.5,-279.67 447.5,-274.33 447.5,-274.33 447.5,-263.67 447.5,-263.67 447.5,-258.33 452.83,-253 458.17,-253"/>
</a>
</g>
</g>
<!-- function&#45;3&#45;Addi -->
<g id="node31" class="node">
<title>function&#45;3&#45;Addi</title>
<g id="a_node31"><a xlink:title="Inst&#45;22: function&#45;3&#45;Addi">
<path fill="white" stroke="transparent" d="M85.17,-332C85.17,-332 104.83,-332 104.83,-332 110.17,-332 115.5,-337.33 115.5,-342.67 115.5,-342.67 115.5,-353.33 115.5,-353.33 115.5,-358.67 110.17,-364 104.83,-364 104.83,-364 85.17,-364 85.17,-364 79.83,-364 74.5,-358.67 74.5,-353.33 74.5,-353.33 74.5,-342.67 74.5,-342.67 74.5,-337.33 79.83,-332 85.17,-332"/>
<text text-anchor="start" x="80" y="-344.3" font-family="Helvetica,sans-Serif" font-size="14.00">Addi</text>
<path fill="none" stroke="black" d="M85.17,-332C85.17,-332 104.83,-332 104.83,-332 110.17,-332 115.5,-337.33 115.5,-342.67 115.5,-342.67 115.5,-353.33 115.5,-353.33 115.5,-358.67 110.17,-364 104.83,-364 104.83,-364 85.17,-364 85.17,-364 79.83,-364 74.5,-358.67 74.5,-353.33 74.5,-353.33 74.5,-342.67 74.5,-342.67 74.5,-337.33 79.83,-332 85.17,-332"/>
</a>
</g>
</g>
<!-- function&#45;1&#45;Addi -->
<g id="node32" class="node">
<title>function&#45;1&#45;Addi</title>
<g id="a_node32"><a xlink:title="Inst&#45;12: function&#45;1&#45;Addi">
<path fill="white" stroke="transparent" d="M160.17,-253C160.17,-253 179.83,-253 179.83,-253 185.17,-253 190.5,-258.33 190.5,-263.67 190.5,-263.67 190.5,-274.33 190.5,-274.33 190.5,-279.67 185.17,-285 179.83,-285 179.83,-285 160.17,-285 160.17,-285 154.83,-285 149.5,-279.67 149.5,-274.33 149.5,-274.33 149.5,-263.67 149.5,-263.67 149.5,-258.33 154.83,-253 160.17,-253"/>
<text text-anchor="start" x="155" y="-265.3" font-family="Helvetica,sans-Serif" font-size="14.00">Addi</text>
<path fill="none" stroke="black" d="M160.17,-253C160.17,-253 179.83,-253 179.83,-253 185.17,-253 190.5,-258.33 190.5,-263.67 190.5,-263.67 190.5,-274.33 190.5,-274.33 190.5,-279.67 185.17,-285 179.83,-285 179.83,-285 160.17,-285 160.17,-285 154.83,-285 149.5,-279.67 149.5,-274.33 149.5,-274.33 149.5,-263.67 149.5,-263.67 149.5,-258.33 154.83,-253 160.17,-253"/>
</a>
</g>
</g>
<!-- function&#45;3&#45;RegVal -->
<g id="node33" class="node">
<title>function&#45;3&#45;RegVal</title>
<g id="a_node33"><a xlink:title="Inst&#45;3: function&#45;3&#45;RegVal">
<path fill="white" stroke="transparent" d="M805.17,-253C805.17,-253 840.83,-253 840.83,-253 846.17,-253 851.5,-258.33 851.5,-263.67 851.5,-263.67 851.5,-274.33 851.5,-274.33 851.5,-279.67 846.17,-285 840.83,-285 840.83,-285 805.17,-285 805.17,-285 799.83,-285 794.5,-279.67 794.5,-274.33 794.5,-274.33 794.5,-263.67 794.5,-263.67 794.5,-258.33 799.83,-253 805.17,-253"/>
<text text-anchor="start" x="800" y="-265.3" font-family="Helvetica,sans-Serif" font-size="14.00">RegVal</text>
<path fill="none" stroke="black" d="M805.17,-253C805.17,-253 840.83,-253 840.83,-253 846.17,-253 851.5,-258.33 851.5,-263.67 851.5,-263.67 851.5,-274.33 851.5,-274.33 851.5,-279.67 846.17,-285 840.83,-285 840.83,-285 805.17,-285 805.17,-285 799.83,-285 794.5,-279.67 794.5,-274.33 794.5,-274.33 794.5,-263.67 794.5,-263.67 794.5,-258.33 799.83,-253 805.17,-253"/>
</a>
</g>
</g>
<!-- primitive&#45;String&#45;4 -->
<g id="node34" class="node">
<title>primitive&#45;String&#45;4</title>
<g id="a_node34"><a xlink:title="String&#45;4: primitive&#45;String&#45;4">
<path fill="white" stroke="transparent" d="M806.67,-174C806.67,-174 841.33,-174 841.33,-174 846.67,-174 852,-179.33 852,-184.67 852,-184.67 852,-195.33 852,-195.33 852,-200.67 846.67,-206 841.33,-206 841.33,-206 806.67,-206 806.67,-206 801.33,-206 796,-200.67 796,-195.33 796,-195.33 796,-184.67 796,-184.67 796,-179.33 801.33,-174 806.67,-174"/>
<text text-anchor="start" x="801" y="-186.3" font-family="Helvetica,sans-Serif" font-size="14.00">&quot;s5_0&quot;</text>
<path fill="none" stroke="black" d="M806.67,-174C806.67,-174 841.33,-174 841.33,-174 846.67,-174 852,-179.33 852,-184.67 852,-184.67 852,-195.33 852,-195.33 852,-200.67 846.67,-206 841.33,-206 841.33,-206 806.67,-206 806.67,-206 801.33,-206 796,-200.67 796,-195.33 796,-195.33 796,-184.67 796,-184.67 796,-179.33 801.33,-174 806.67,-174"/>
</a>
</g>
</g>
<!-- function&#45;0&#45;RegVal -->
<g id="node35" class="node">
<title>function&#45;0&#45;RegVal</title>
<g id="a_node35"><a xlink:title="Inst&#45;0: function&#45;0&#45;RegVal">
<path fill="white" stroke="transparent" d="M314.17,-253C314.17,-253 349.83,-253 349.83,-253 355.17,-253 360.5,-258.33 360.5,-263.67 360.5,-263.67 360.5,-274.33 360.5,-274.33 360.5,-279.67 355.17,-285 349.83,-285 349.83,-285 314.17,-285 314.17,-285 308.83,-285 303.5,-279.67 303.5,-274.33 303.5,-274.33 303.5,-263.67 303.5,-263.67 303.5,-258.33 308.83,-253 314.17,-253"/>
<text text-anchor="start" x="309" y="-265.3" font-family="Helvetica,sans-Serif" font-size="14.00">RegVal</text>
<path fill="none" stroke="black" d="M314.17,-253C314.17,-253 349.83,-253 349.83,-253 355.17,-253 360.5,-258.33 360.5,-263.67 360.5,-263.67 360.5,-274.33 360.5,-274.33 360.5,-279.67 355.17,-285 349.83,-285 349.83,-285 314.17,-285 314.17,-285 308.83,-285 303.5,-279.67 303.5,-274.33 303.5,-274.33 303.5,-263.67 303.5,-263.67 303.5,-258.33 308.83,-253 314.17,-253"/>
</a>
</g>
</g>
<!-- primitive&#45;String&#45;1 -->
<g id="node36" class="node">
<title>primitive&#45;String&#45;1</title>
<g id="a_node36"><a xlink:title="String&#45;1: primitive&#45;String&#45;1">
<path fill="white" stroke="transparent" d="M315.17,-174C315.17,-174 350.83,-174 350.83,-174 356.17,-174 361.5,-179.33 361.5,-184.67 361.5,-184.67 361.5,-195.33 361.5,-195.33 361.5,-200.67 356.17,-206 350.83,-206 350.83,-206 315.17,-206 315.17,-206 309.83,-206 304.5,-200.67 304.5,-195.33 304.5,-195.33 304.5,-184.67 304.5,-184.67 304.5,-179.33 309.83,-174 315.17,-174"/>
<text text-anchor="start" x="310" y="-186.3" font-family="Helvetica,sans-Serif" font-size="14.00">&quot;a1_0&quot;</text>
<path fill="none" stroke="black" d="M315.17,-174C315.17,-174 350.83,-174 350.83,-174 356.17,-174 361.5,-179.33 361.5,-184.67 361.5,-184.67 361.5,-195.33 361.5,-195.33 361.5,-200.67 356.17,-206 350.83,-206 350.83,-206 315.17,-206 315.17,-206 309.83,-206 304.5,-200.67 304.5,-195.33 304.5,-195.33 304.5,-184.67 304.5,-184.67 304.5,-179.33 309.83,-174 315.17,-174"/>
</a>
</g>
</g>
<!-- function&#45;0&#45;Sw -->
<g id="node37" class="node">
<title>function&#45;0&#45;Sw</title>
<g id="a_node37"><a xlink:title="Inst&#45;8: function&#45;0&#45;Sw">
<path fill="white" stroke="transparent" d="M813.67,-332C813.67,-332 824.33,-332 824.33,-332 829.67,-332 835,-337.33 835,-342.67 835,-342.67 835,-353.33 835,-353.33 835,-358.67 829.67,-364 824.33,-364 824.33,-364 813.67,-364 813.67,-364 808.33,-364 803,-358.67 803,-353.33 803,-353.33 803,-342.67 803,-342.67 803,-337.33 808.33,-332 813.67,-332"/>
<text text-anchor="start" x="808.5" y="-344.3" font-family="Helvetica,sans-Serif" font-size="14.00">Sw</text>
<path fill="none" stroke="black" d="M813.67,-332C813.67,-332 824.33,-332 824.33,-332 829.67,-332 835,-337.33 835,-342.67 835,-342.67 835,-353.33 835,-353.33 835,-358.67 829.67,-364 824.33,-364 824.33,-364 813.67,-364 813.67,-364 808.33,-364 803,-358.67 803,-353.33 803,-353.33 803,-342.67 803,-342.67 803,-337.33 808.33,-332 813.67,-332"/>
</a>
</g>
</g>
<!-- function&#45;2&#45;Addi -->
<g id="node38" class="node">
<title>function&#45;2&#45;Addi</title>
<g id="a_node38"><a xlink:title="Inst&#45;20: function&#45;2&#45;Addi">
<path fill="white" stroke="transparent" d="M260.17,-332C260.17,-332 279.83,-332 279.83,-332 285.17,-332 290.5,-337.33 290.5,-342.67 290.5,-342.67 290.5,-353.33 290.5,-353.33 290.5,-358.67 285.17,-364 279.83,-364 279.83,-364 260.17,-364 260.17,-364 254.83,-364 249.5,-358.67 249.5,-353.33 249.5,-353.33 249.5,-342.67 249.5,-342.67 249.5,-337.33 254.83,-332 260.17,-332"/>
<text text-anchor="start" x="255" y="-344.3" font-family="Helvetica,sans-Serif" font-size="14.00">Addi</text>
<path fill="none" stroke="black" d="M260.17,-332C260.17,-332 279.83,-332 279.83,-332 285.17,-332 290.5,-337.33 290.5,-342.67 290.5,-342.67 290.5,-353.33 290.5,-353.33 290.5,-358.67 285.17,-364 279.83,-364 279.83,-364 260.17,-364 260.17,-364 254.83,-364 249.5,-358.67 249.5,-353.33 249.5,-353.33 249.5,-342.67 249.5,-342.67 249.5,-337.33 254.83,-332 260.17,-332"/>
</a>
</g>
</g>
<!-- function&#45;4&#45;Addi -->
<g id="node39" class="node">
<title>function&#45;4&#45;Addi</title>
<g id="a_node39"><a xlink:title="Inst&#45;23: function&#45;4&#45;Addi">
<path fill="white" stroke="transparent" d="M178.17,-332C178.17,-332 197.83,-332 197.83,-332 203.17,-332 208.5,-337.33 208.5,-342.67 208.5,-342.67 208.5,-353.33 208.5,-353.33 208.5,-358.67 203.17,-364 197.83,-364 197.83,-364 178.17,-364 178.17,-364 172.83,-364 167.5,-358.67 167.5,-353.33 167.5,-353.33 167.5,-342.67 167.5,-342.67 167.5,-337.33 172.83,-332 178.17,-332"/>
<text text-anchor="start" x="173" y="-344.3" font-family="Helvetica,sans-Serif" font-size="14.00">Addi</text>
<path fill="none" stroke="black" d="M178.17,-332C178.17,-332 197.83,-332 197.83,-332 203.17,-332 208.5,-337.33 208.5,-342.67 208.5,-342.67 208.5,-353.33 208.5,-353.33 208.5,-358.67 203.17,-364 197.83,-364 197.83,-364 178.17,-364 178.17,-364 172.83,-364 167.5,-358.67 167.5,-353.33 167.5,-353.33 167.5,-342.67 167.5,-342.67 167.5,-337.33 172.83,-332 178.17,-332"/>
</a>
</g>
</g>
<!-- primitive&#45;String&#45;5 -->
<g id="node40" class="node">
<title>primitive&#45;String&#45;5</title>
<g id="a_node40"><a xlink:title="String&#45;5: primitive&#45;String&#45;5">
<path fill="white" stroke="transparent" d="M600.67,-95C600.67,-95 635.33,-95 635.33,-95 640.67,-95 646,-100.33 646,-105.67 646,-105.67 646,-116.33 646,-116.33 646,-121.67 640.67,-127 635.33,-127 635.33,-127 600.67,-127 600.67,-127 595.33,-127 590,-121.67 590,-116.33 590,-116.33 590,-105.67 590,-105.67 590,-100.33 595.33,-95 600.67,-95"/>
<text text-anchor="start" x="595" y="-107.3" font-family="Helvetica,sans-Serif" font-size="14.00">&quot;sp_0&quot;</text>
<path fill="none" stroke="black" d="M600.67,-95C600.67,-95 635.33,-95 635.33,-95 640.67,-95 646,-100.33 646,-105.67 646,-105.67 646,-116.33 646,-116.33 646,-121.67 640.67,-127 635.33,-127 635.33,-127 600.67,-127 600.67,-127 595.33,-127 590,-121.67 590,-116.33 590,-116.33 590,-105.67 590,-105.67 590,-100.33 595.33,-95 600.67,-95"/>
</a>
</g>
</g>
<!-- primitive&#45;String&#45;3 -->
<g id="node41" class="node">
<title>primitive&#45;String&#45;3</title>
<g id="a_node41"><a xlink:title="String&#45;3: primitive&#45;String&#45;3">
<path fill="white" stroke="transparent" d="M456.67,-174C456.67,-174 491.33,-174 491.33,-174 496.67,-174 502,-179.33 502,-184.67 502,-184.67 502,-195.33 502,-195.33 502,-200.67 496.67,-206 491.33,-206 491.33,-206 456.67,-206 456.67,-206 451.33,-206 446,-200.67 446,-195.33 446,-195.33 446,-184.67 446,-184.67 446,-179.33 451.33,-174 456.67,-174"/>
<text text-anchor="start" x="451" y="-186.3" font-family="Helvetica,sans-Serif" font-size="14.00">&quot;s0_0&quot;</text>
<path fill="none" stroke="black" d="M456.67,-174C456.67,-174 491.33,-174 491.33,-174 496.67,-174 502,-179.33 502,-184.67 502,-184.67 502,-195.33 502,-195.33 502,-200.67 496.67,-206 491.33,-206 491.33,-206 456.67,-206 456.67,-206 451.33,-206 446,-200.67 446,-195.33 446,-195.33 446,-184.67 446,-184.67 446,-179.33 451.33,-174 456.67,-174"/>
</a>
</g>
</g>
</g>
</svg>
