<?xml version="1.0" encoding="UTF-8" standalone="no"?>
<!DOCTYPE svg PUBLIC "-//W3C//DTD SVG 1.1//EN"
 "http://www.w3.org/Graphics/SVG/1.1/DTD/svg11.dtd">
<!-- Generated by graphviz version 2.43.0 (0)
 -->
<!-- Title: %3 Pages: 1 -->
<svg width="659pt" height="388pt"
 viewBox="0.00 0.00 659.00 388.00" xmlns="http://www.w3.org/2000/svg" xmlns:xlink="http://www.w3.org/1999/xlink">
<g id="graph0" class="graph" transform="scale(1 1) rotate(0) translate(4 384)">
<title>%3</title>
<polygon fill="white" stroke="#000000" points="-4,4 -4,-384 655,-384 655,4 -4,4"/>
<g id="clust1" class="cluster">
<title>outer_cluster_Imm&#45;3</title>
</g>
<g id="clust2" class="cluster">
<title>cluster_Imm&#45;3</title>
<path fill="#ffffb3" stroke="black" stroke-dasharray="5,2" d="M23,-90C23,-90 67,-90 67,-90 73,-90 79,-96 79,-102 79,-102 79,-120 79,-120 79,-126 73,-132 67,-132 67,-132 23,-132 23,-132 17,-132 11,-126 11,-120 11,-120 11,-102 11,-102 11,-96 17,-90 23,-90"/>
</g>
<g id="clust4" class="cluster">
<title>outer_cluster_Imm&#45;9</title>
</g>
<g id="clust5" class="cluster">
<title>cluster_Imm&#45;9</title>
<path fill="#ffffb3" stroke="black" stroke-dasharray="5,2" d="M534,-169C534,-169 594,-169 594,-169 600,-169 606,-175 606,-181 606,-181 606,-199 606,-199 606,-205 600,-211 594,-211 594,-211 534,-211 534,-211 528,-211 522,-205 522,-199 522,-199 522,-181 522,-181 522,-175 528,-169 534,-169"/>
</g>
<g id="clust7" class="cluster">
<title>outer_cluster_Imm&#45;7</title>
</g>
<g id="clust8" class="cluster">
<title>cluster_Imm&#45;7</title>
<path fill="#ffffb3" stroke="black" stroke-dasharray="5,2" d="M237,-90C237,-90 281,-90 281,-90 287,-90 293,-96 293,-102 293,-102 293,-120 293,-120 293,-126 287,-132 281,-132 281,-132 237,-132 237,-132 231,-132 225,-126 225,-120 225,-120 225,-102 225,-102 225,-96 231,-90 237,-90"/>
</g>
<g id="clust10" class="cluster">
<title>outer_cluster_Imm&#45;5</title>
</g>
<g id="clust11" class="cluster">
<title>cluster_Imm&#45;5</title>
<path fill="#ffffb3" stroke="black" stroke-dasharray="5,2" d="M313,-90C313,-90 357,-90 357,-90 363,-90 369,-96 369,-102 369,-102 369,-120 369,-120 369,-126 363,-132 357,-132 357,-132 313,-132 313,-132 307,-132 301,-126 301,-120 301,-120 301,-102 301,-102 301,-96 307,-90 313,-90"/>
</g>
<g id="clust13" class="cluster">
<title>outer_cluster_Inst&#45;6</title>
</g>
<g id="clust14" class="cluster">
<title>cluster_Inst&#45;6</title>
<path fill="#bebada" stroke="black" stroke-dasharray="5,2" d="M164,-169C164,-169 200,-169 200,-169 206,-169 212,-175 212,-181 212,-181 212,-199 212,-199 212,-205 206,-211 200,-211 200,-211 164,-211 164,-211 158,-211 152,-205 152,-199 152,-199 152,-181 152,-181 152,-175 158,-169 164,-169"/>
</g>
<g id="clust16" class="cluster">
<title>outer_cluster_Inst&#45;2</title>
</g>
<g id="clust17" class="cluster">
<title>cluster_Inst&#45;2</title>
<path fill="#bebada" stroke="black" stroke-dasharray="5,2" d="M167,-90C167,-90 207,-90 207,-90 213,-90 219,-96 219,-102 219,-102 219,-120 219,-120 219,-126 213,-132 207,-132 207,-132 167,-132 167,-132 161,-132 155,-126 155,-120 155,-120 155,-102 155,-102 155,-96 161,-90 167,-90"/>
</g>
<g id="clust19" class="cluster">
<title>outer_cluster_Inst&#45;4</title>
</g>
<g id="clust20" class="cluster">
<title>cluster_Inst&#45;4</title>
<path fill="#bebada" stroke="black" stroke-dasharray="5,2" d="M95,-169C95,-169 131,-169 131,-169 137,-169 143,-175 143,-181 143,-181 143,-199 143,-199 143,-205 137,-211 131,-211 131,-211 95,-211 95,-211 89,-211 83,-205 83,-199 83,-199 83,-181 83,-181 83,-175 89,-169 95,-169"/>
</g>
<g id="clust22" class="cluster">
<title>outer_cluster_Inst&#45;14</title>
</g>
<g id="clust23" class="cluster">
<title>cluster_Inst&#45;14</title>
<path fill="#bebada" stroke="black" stroke-dasharray="5,2" d="M318,-169C318,-169 354,-169 354,-169 360,-169 366,-175 366,-181 366,-181 366,-199 366,-199 366,-205 360,-211 354,-211 354,-211 318,-211 318,-211 312,-211 306,-205 306,-199 306,-199 306,-181 306,-181 306,-175 312,-169 318,-169"/>
</g>
<g id="clust25" class="cluster">
<title>outer_cluster_Inst&#45;11</title>
</g>
<g id="clust26" class="cluster">
<title>cluster_Inst&#45;11</title>
<path fill="#bebada" stroke="black" stroke-dasharray="5,2" d="M361,-248C361,-248 513,-248 513,-248 519,-248 525,-254 525,-260 525,-260 525,-278 525,-278 525,-284 519,-290 513,-290 513,-290 361,-290 361,-290 355,-290 349,-284 349,-278 349,-278 349,-260 349,-260 349,-254 355,-248 361,-248"/>
</g>
<g id="clust28" class="cluster">
<title>outer_cluster_Inst&#45;8</title>
</g>
<g id="clust29" class="cluster">
<title>cluster_Inst&#45;8</title>
<path fill="#bebada" stroke="black" stroke-dasharray="5,2" d="M230,-169C230,-169 266,-169 266,-169 272,-169 278,-175 278,-181 278,-181 278,-199 278,-199 278,-205 272,-211 266,-211 266,-211 230,-211 230,-211 224,-211 218,-205 218,-199 218,-199 218,-181 218,-181 218,-175 224,-169 230,-169"/>
</g>
<g id="clust31" class="cluster">
<title>outer_cluster_Inst&#45;0</title>
</g>
<g id="clust32" class="cluster">
<title>cluster_Inst&#45;0</title>
<path fill="#bebada" stroke="black" stroke-dasharray="5,2" d="M97,-90C97,-90 137,-90 137,-90 143,-90 149,-96 149,-102 149,-102 149,-120 149,-120 149,-126 143,-132 137,-132 137,-132 97,-132 97,-132 91,-132 85,-126 85,-120 85,-120 85,-102 85,-102 85,-96 91,-90 97,-90"/>
</g>
<g id="clust34" class="cluster">
<title>outer_cluster_Inst&#45;13</title>
</g>
<g id="clust35" class="cluster">
<title>cluster_Inst&#45;13</title>
<path fill="#bebada" stroke="black" stroke-dasharray="5,2" d="M179,-248C179,-248 331,-248 331,-248 337,-248 343,-254 343,-260 343,-260 343,-278 343,-278 343,-284 337,-290 331,-290 331,-290 179,-290 179,-290 173,-290 167,-284 167,-278 167,-278 167,-260 167,-260 167,-254 173,-248 179,-248"/>
</g>
<g id="clust37" class="cluster">
<title>outer_cluster_Inst&#45;12</title>
</g>
<g id="clust38" class="cluster">
<title>cluster_Inst&#45;12</title>
<path fill="#bebada" stroke="black" stroke-dasharray="5,2" d="M592,-248C592,-248 628,-248 628,-248 634,-248 640,-254 640,-260 640,-260 640,-278 640,-278 640,-284 634,-290 628,-290 628,-290 592,-290 592,-290 586,-290 580,-284 580,-278 580,-278 580,-260 580,-260 580,-254 586,-248 592,-248"/>
</g>
<g id="clust40" class="cluster">
<title>outer_cluster_Inst&#45;10</title>
</g>
<g id="clust41" class="cluster">
<title>cluster_Inst&#45;10</title>
<path fill="#bebada" stroke="black" stroke-dasharray="5,2" d="M469,-327C469,-327 621,-327 621,-327 627,-327 633,-333 633,-339 633,-339 633,-357 633,-357 633,-363 627,-369 621,-369 621,-369 469,-369 469,-369 463,-369 457,-363 457,-357 457,-357 457,-339 457,-339 457,-333 463,-327 469,-327"/>
</g>
<g id="clust43" class="cluster">
<title>outer_cluster_Inst&#45;1</title>
</g>
<g id="clust44" class="cluster">
<title>cluster_Inst&#45;1</title>
<path fill="#bebada" stroke="black" stroke-dasharray="5,2" d="M458,-169C458,-169 498,-169 498,-169 504,-169 510,-175 510,-181 510,-181 510,-199 510,-199 510,-205 504,-211 498,-211 498,-211 458,-211 458,-211 452,-211 446,-205 446,-199 446,-199 446,-181 446,-181 446,-175 452,-169 458,-169"/>
</g>
<g id="clust46" class="cluster">
<title>outer_cluster_String&#45;1</title>
</g>
<g id="clust47" class="cluster">
<title>cluster_String&#45;1</title>
<path fill="#fb8072" stroke="black" stroke-dasharray="5,2" d="M98,-11C98,-11 138,-11 138,-11 144,-11 150,-17 150,-23 150,-23 150,-41 150,-41 150,-47 144,-53 138,-53 138,-53 98,-53 98,-53 92,-53 86,-47 86,-41 86,-41 86,-23 86,-23 86,-17 92,-11 98,-11"/>
</g>
<g id="clust49" class="cluster">
<title>outer_cluster_String&#45;3</title>
</g>
<g id="clust50" class="cluster">
<title>cluster_String&#45;3</title>
<path fill="#fb8072" stroke="black" stroke-dasharray="5,2" d="M168,-11C168,-11 208,-11 208,-11 214,-11 220,-17 220,-23 220,-23 220,-41 220,-41 220,-47 214,-53 208,-53 208,-53 168,-53 168,-53 162,-53 156,-47 156,-41 156,-41 156,-23 156,-23 156,-17 162,-11 168,-11"/>
</g>
<g id="clust52" class="cluster">
<title>outer_cluster_String&#45;4</title>
</g>
<g id="clust53" class="cluster">
<title>cluster_String&#45;4</title>
<path fill="#fb8072" stroke="black" stroke-dasharray="5,2" d="M547,-90C547,-90 583,-90 583,-90 589,-90 595,-96 595,-102 595,-102 595,-120 595,-120 595,-126 589,-132 583,-132 583,-132 547,-132 547,-132 541,-132 535,-126 535,-120 535,-120 535,-102 535,-102 535,-96 541,-90 547,-90"/>
</g>
<g id="clust55" class="cluster">
<title>outer_cluster_String&#45;2</title>
</g>
<g id="clust56" class="cluster">
<title>cluster_String&#45;2</title>
<path fill="#fb8072" stroke="black" stroke-dasharray="5,2" d="M459,-90C459,-90 499,-90 499,-90 505,-90 511,-96 511,-102 511,-102 511,-120 511,-120 511,-126 505,-132 499,-132 499,-132 459,-132 459,-132 453,-132 447,-126 447,-120 447,-120 447,-102 447,-102 447,-96 453,-90 459,-90"/>
</g>
<g id="clust58" class="cluster">
<title>outer_cluster_i64&#45;0</title>
</g>
<g id="clust59" class="cluster">
<title>cluster_i64&#45;0</title>
<path fill="#80b1d3" stroke="black" stroke-dasharray="5,2" d="M27,-11C27,-11 63,-11 63,-11 69,-11 75,-17 75,-23 75,-23 75,-41 75,-41 75,-47 69,-53 63,-53 63,-53 27,-53 27,-53 21,-53 15,-47 15,-41 15,-41 15,-23 15,-23 15,-17 21,-11 27,-11"/>
</g>
<g id="clust61" class="cluster">
<title>outer_cluster_i64&#45;4</title>
</g>
<g id="clust62" class="cluster">
<title>cluster_i64&#45;4</title>
<path fill="#80b1d3" stroke="black" stroke-dasharray="5,2" d="M317,-11C317,-11 353,-11 353,-11 359,-11 365,-17 365,-23 365,-23 365,-41 365,-41 365,-47 359,-53 353,-53 353,-53 317,-53 317,-53 311,-53 305,-47 305,-41 305,-41 305,-23 305,-23 305,-17 311,-11 317,-11"/>
</g>
<g id="clust64" class="cluster">
<title>outer_cluster_i64&#45;8</title>
</g>
<g id="clust65" class="cluster">
<title>cluster_i64&#45;8</title>
<path fill="#80b1d3" stroke="black" stroke-dasharray="5,2" d="M241,-11C241,-11 277,-11 277,-11 283,-11 289,-17 289,-23 289,-23 289,-41 289,-41 289,-47 283,-53 277,-53 277,-53 241,-53 241,-53 235,-53 229,-47 229,-41 229,-41 229,-23 229,-23 229,-17 235,-11 241,-11"/>
</g>
<!-- function&#45;0&#45;ImmVal&#45;&gt;primitive&#45;i64&#45;0 -->
<g id="edge1" class="edge">
<title>function&#45;0&#45;ImmVal:s&#45;&gt;primitive&#45;i64&#45;0</title>
<path fill="none" stroke="black" d="M45,-95C45,-81.84 45,-67.11 45,-55.3"/>
<polygon fill="black" stroke="black" points="46.75,-58 45,-53 43.25,-58 46.75,-58"/>
</g>
<!-- function&#45;0&#45;ImmLabel&#45;&gt;primitive&#45;String&#45;4 -->
<g id="edge2" class="edge">
<title>function&#45;0&#45;ImmLabel:s&#45;&gt;primitive&#45;String&#45;4</title>
<path fill="none" stroke="black" d="M565,-174C565,-160.84 565,-146.11 565,-134.3"/>
<polygon fill="black" stroke="black" points="566.75,-137 565,-132 563.25,-137 566.75,-137"/>
</g>
<!-- function&#45;2&#45;ImmVal&#45;&gt;primitive&#45;i64&#45;8 -->
<g id="edge3" class="edge">
<title>function&#45;2&#45;ImmVal:s&#45;&gt;primitive&#45;i64&#45;8</title>
<path fill="none" stroke="black" d="M259,-95C259,-81.84 259,-67.11 259,-55.3"/>
<polygon fill="black" stroke="black" points="260.75,-58 259,-53 257.25,-58 260.75,-58"/>
</g>
<!-- function&#45;1&#45;ImmVal&#45;&gt;primitive&#45;i64&#45;4 -->
<g id="edge4" class="edge">
<title>function&#45;1&#45;ImmVal:s&#45;&gt;primitive&#45;i64&#45;4</title>
<path fill="none" stroke="black" d="M335,-95C335,-81.84 335,-67.11 335,-55.3"/>
<polygon fill="black" stroke="black" points="336.75,-58 335,-53 333.25,-58 336.75,-58"/>
</g>
<!-- function&#45;1&#45;Sw&#45;&gt;function&#45;1&#45;ImmVal -->
<g id="edge7" class="edge">
<title>function&#45;1&#45;Sw:s&#45;&gt;function&#45;1&#45;ImmVal</title>
<path fill="none" stroke="black" d="M193,-174C193,-125.88 250.46,-155.49 294,-135 296.28,-133.93 298.61,-132.78 300.93,-131.59"/>
<polygon fill="black" stroke="black" points="302.08,-136.28 301,-131.1 298.61,-135.82 302.08,-136.28"/>
</g>
<!-- function&#45;1&#45;Sw&#45;&gt;function&#45;2&#45;RegVal -->
<g id="edge5" class="edge">
<title>function&#45;1&#45;Sw:s&#45;&gt;function&#45;2&#45;RegVal</title>
<path fill="none" stroke="black" d="M174,-174C174,-160.53 176.98,-145.75 180.08,-134.01"/>
<polygon fill="black" stroke="black" points="180.11,-137.13 181.41,-132 177.19,-135.2 180.11,-137.13"/>
</g>
<!-- function&#45;1&#45;Sw&#45;&gt;function&#45;0&#45;RegVal -->
<g id="edge6" class="edge">
<title>function&#45;1&#45;Sw:s&#45;&gt;function&#45;0&#45;RegVal</title>
<path fill="none" stroke="black" d="M186,-174C186,-162.85 165.8,-145.61 147.25,-132.14"/>
<polygon fill="black" stroke="black" points="151.26,-130.85 146.09,-132 150.84,-134.33 151.26,-130.85"/>
</g>
<!-- function&#45;2&#45;RegVal&#45;&gt;primitive&#45;String&#45;3 -->
<g id="edge8" class="edge">
<title>function&#45;2&#45;RegVal:s&#45;&gt;primitive&#45;String&#45;3</title>
<path fill="none" stroke="black" d="M188,-95C188,-81.84 188,-67.11 188,-55.3"/>
<polygon fill="black" stroke="black" points="189.75,-58 188,-53 186.25,-58 189.75,-58"/>
</g>
<!-- function&#45;0&#45;RegVal&#45;&gt;primitive&#45;String&#45;1 -->
<g id="edge23" class="edge">
<title>function&#45;0&#45;RegVal:s&#45;&gt;primitive&#45;String&#45;1</title>
<path fill="none" stroke="black" d="M118,-95C118,-81.84 118,-67.11 118,-55.3"/>
<polygon fill="black" stroke="black" points="119.75,-58 118,-53 116.25,-58 119.75,-58"/>
</g>
<!-- function&#45;0&#45;Sw&#45;&gt;function&#45;0&#45;ImmVal -->
<g id="edge11" class="edge">
<title>function&#45;0&#45;Sw:s&#45;&gt;function&#45;0&#45;ImmVal</title>
<path fill="none" stroke="black" d="M124,-174C124,-167.52 97.33,-147.64 74.98,-132.12"/>
<polygon fill="black" stroke="black" points="79.02,-130.78 73.87,-132 78.66,-134.26 79.02,-130.78"/>
</g>
<!-- function&#45;0&#45;Sw&#45;&gt;function&#45;2&#45;RegVal -->
<g id="edge9" class="edge">
<title>function&#45;0&#45;Sw:s&#45;&gt;function&#45;2&#45;RegVal</title>
<path fill="none" stroke="black" d="M105,-174C105,-167.36 132.68,-147.51 155.88,-132.04"/>
<polygon fill="black" stroke="black" points="151.42,-134.39 156.15,-132 150.96,-130.92 151.42,-134.39"/>
</g>
<!-- function&#45;0&#45;Sw&#45;&gt;function&#45;0&#45;RegVal -->
<g id="edge10" class="edge">
<title>function&#45;0&#45;Sw:s&#45;&gt;function&#45;0&#45;RegVal</title>
<path fill="none" stroke="black" d="M117,-174C117,-160.84 117,-146.11 117,-134.3"/>
<polygon fill="black" stroke="black" points="118.75,-137 117,-132 115.25,-137 118.75,-137"/>
</g>
<!-- function&#45;1&#45;Jal&#45;&gt;function&#45;1&#45;ImmVal -->
<g id="edge12" class="edge">
<title>function&#45;1&#45;Jal:s&#45;&gt;function&#45;1&#45;ImmVal</title>
<path fill="none" stroke="black" d="M336,-174C336,-160.84 335.77,-146.1 335.53,-134.3"/>
<polygon fill="black" stroke="black" points="337.41,-136.91 335.42,-132 333.91,-137.08 337.41,-136.91"/>
</g>
<!-- function&#45;0&#45;Beq&#45;&gt;function&#45;1&#45;ImmVal -->
<g id="edge15" class="edge">
<title>function&#45;0&#45;Beq:s&#45;&gt;function&#45;1&#45;ImmVal</title>
<path fill="none" stroke="black" d="M451,-253C451,-249.2 385.75,-171.78 353.12,-133.32"/>
<polygon fill="black" stroke="black" points="356.56,-134.1 351.69,-132 354.19,-136.67 356.56,-134.1"/>
</g>
<!-- function&#45;0&#45;Beq&#45;&gt;function&#45;0&#45;Addi -->
<g id="edge13" class="edge">
<title>function&#45;0&#45;Beq:s&#45;&gt;function&#45;0&#45;Addi</title>
<path fill="none" stroke="black" d="M428,-253C428,-242.6 415.87,-248.31 406,-245 361.48,-230.08 349.26,-229.69 305,-214 296.84,-211.11 288.12,-207.74 280.02,-204.48"/>
<polygon fill="black" stroke="black" points="283.26,-204.13 278,-203.48 281.7,-207.27 283.26,-204.13"/>
</g>
<!-- function&#45;0&#45;Beq&#45;&gt;function&#45;1&#45;RegVal -->
<g id="edge14" class="edge">
<title>function&#45;0&#45;Beq:s&#45;&gt;function&#45;1&#45;RegVal</title>
<path fill="none" stroke="black" d="M442,-253C442,-238.03 449.94,-223.45 458.36,-212.19"/>
<polygon fill="black" stroke="black" points="457.34,-215.85 459.48,-211 454.78,-213.46 457.34,-215.85"/>
</g>
<!-- function&#45;0&#45;Addi&#45;&gt;function&#45;2&#45;ImmVal -->
<g id="edge22" class="edge">
<title>function&#45;0&#45;Addi:s&#45;&gt;function&#45;2&#45;ImmVal</title>
<path fill="none" stroke="black" d="M258,-174C258,-160.84 258.23,-146.1 258.47,-134.3"/>
<polygon fill="black" stroke="black" points="260.09,-137.08 258.58,-132 256.59,-136.91 260.09,-137.08"/>
</g>
<!-- function&#45;0&#45;Addi&#45;&gt;function&#45;2&#45;RegVal -->
<g id="edge21" class="edge">
<title>function&#45;0&#45;Addi:s&#45;&gt;function&#45;2&#45;RegVal</title>
<path fill="none" stroke="black" d="M238,-174C238,-157.72 227.38,-143.39 215.84,-132.62"/>
<polygon fill="black" stroke="black" points="220.04,-133.3 214.9,-132 218.11,-136.22 220.04,-133.3"/>
</g>
<!-- function&#45;1&#45;RegVal&#45;&gt;primitive&#45;String&#45;2 -->
<g id="edge41" class="edge">
<title>function&#45;1&#45;RegVal:s&#45;&gt;primitive&#45;String&#45;2</title>
<path fill="none" stroke="black" d="M479,-174C479,-160.84 479,-146.11 479,-134.3"/>
<polygon fill="black" stroke="black" points="480.75,-137 479,-132 477.25,-137 480.75,-137"/>
</g>
<!-- function&#45;1&#45;Beq&#45;&gt;function&#45;1&#45;ImmVal -->
<g id="edge18" class="edge">
<title>function&#45;1&#45;Beq:s&#45;&gt;function&#45;1&#45;ImmVal</title>
<path fill="none" stroke="black" d="M509,-253C509,-219.69 470.22,-235.75 445,-214 423.97,-195.86 425,-185.26 405,-166 392.39,-153.85 377.11,-141.81 364.05,-132.18"/>
<polygon fill="black" stroke="black" points="368.94,-132.85 363.71,-132 367.27,-135.93 368.94,-132.85"/>
</g>
<!-- function&#45;1&#45;Beq&#45;&gt;function&#45;0&#45;Addi -->
<g id="edge17" class="edge">
<title>function&#45;1&#45;Beq:s&#45;&gt;function&#45;0&#45;Addi</title>
<path fill="none" stroke="black" d="M500,-253C500,-208.81 347.37,-226.55 305,-214 296.78,-211.56 288.11,-208.39 280.07,-205.19"/>
<polygon fill="black" stroke="black" points="283.27,-204.78 278,-204.19 281.75,-207.93 283.27,-204.78"/>
</g>
<!-- function&#45;1&#45;Beq&#45;&gt;function&#45;1&#45;RegVal -->
<g id="edge16" class="edge">
<title>function&#45;1&#45;Beq:s&#45;&gt;function&#45;1&#45;RegVal</title>
<path fill="none" stroke="black" d="M486,-253C486,-239.73 484.17,-224.99 482.27,-213.22"/>
<polygon fill="black" stroke="black" points="484.86,-215.01 481.39,-211 481.6,-216.29 484.86,-215.01"/>
</g>
<!-- function&#45;1&#45;Seq2&#45;&gt;function&#45;1&#45;Jal -->
<g id="edge20" class="edge">
<title>function&#45;1&#45;Seq2:s&#45;&gt;function&#45;1&#45;Jal</title>
<path fill="none" stroke="black" d="M390,-253C390,-236.46 378.93,-222.18 366.82,-211.52"/>
<polygon fill="black" stroke="black" points="369.95,-213.57 366,-210.04 366.89,-215.26 369.95,-213.57"/>
</g>
<!-- function&#45;1&#45;Seq2&#45;&gt;function&#45;2&#45;Bne -->
<g id="edge19" class="edge">
<title>function&#45;1&#45;Seq2:s&#45;&gt;function&#45;2&#45;Bne</title>
<path fill="none" stroke="black" d="M368,-253C368,-190.28 285.87,-195 230,-223.5 220.47,-228.36 213.04,-237.41 207.67,-246.17"/>
<polygon fill="black" stroke="black" points="208.12,-243.19 205.9,-248 210.63,-245.62 208.12,-243.19"/>
</g>
<!-- function&#45;2&#45;Bne&#45;&gt;function&#45;1&#45;ImmVal -->
<g id="edge26" class="edge">
<title>function&#45;2&#45;Bne:s&#45;&gt;function&#45;1&#45;ImmVal</title>
<path fill="none" stroke="black" d="M211,-253C211,-218.16 257.19,-241.17 279,-214 292.99,-196.57 283.76,-185.86 294,-166 299.95,-154.47 308.38,-142.85 316.05,-133.36"/>
<polygon fill="black" stroke="black" points="315.23,-136.88 317.28,-132 312.63,-134.54 315.23,-136.88"/>
</g>
<!-- function&#45;2&#45;Bne&#45;&gt;function&#45;0&#45;Addi -->
<g id="edge24" class="edge">
<title>function&#45;2&#45;Bne:s&#45;&gt;function&#45;0&#45;Addi</title>
<path fill="none" stroke="black" d="M188,-253C188,-242.57 205.74,-225.15 221.93,-211.43"/>
<polygon fill="black" stroke="black" points="219.01,-214.49 223,-211 217.71,-211.24 219.01,-214.49"/>
</g>
<!-- function&#45;2&#45;Bne&#45;&gt;function&#45;1&#45;RegVal -->
<g id="edge25" class="edge">
<title>function&#45;2&#45;Bne:s&#45;&gt;function&#45;1&#45;RegVal</title>
<path fill="none" stroke="black" d="M202,-253C202,-240.91 216.3,-248.06 228,-245 268.66,-234.37 385.87,-209.94 444.2,-197.93"/>
<polygon fill="black" stroke="black" points="442.57,-200.91 446,-196.87 440.8,-197.89 442.57,-200.91"/>
</g>
<!-- function&#45;3&#45;Bne&#45;&gt;function&#45;1&#45;ImmVal -->
<g id="edge29" class="edge">
<title>function&#45;3&#45;Bne:s&#45;&gt;function&#45;1&#45;ImmVal</title>
<path fill="none" stroke="black" d="M269,-253C269,-233.31 282.36,-232.14 290,-214 298.67,-193.4 296.19,-186.54 305,-166 309.76,-154.89 316.15,-143.09 321.81,-133.37"/>
<polygon fill="black" stroke="black" points="320.77,-136.63 323.34,-132 318.44,-134.01 320.77,-136.63"/>
</g>
<!-- function&#45;3&#45;Bne&#45;&gt;function&#45;0&#45;Addi -->
<g id="edge28" class="edge">
<title>function&#45;3&#45;Bne:s&#45;&gt;function&#45;0&#45;Addi</title>
<path fill="none" stroke="black" d="M260,-253C260,-239.69 257.3,-225.06 254.46,-213.36"/>
<polygon fill="black" stroke="black" points="257.11,-214.53 253.16,-211 254.05,-216.22 257.11,-214.53"/>
</g>
<!-- function&#45;3&#45;Bne&#45;&gt;function&#45;1&#45;RegVal -->
<g id="edge27" class="edge">
<title>function&#45;3&#45;Bne:s&#45;&gt;function&#45;1&#45;RegVal</title>
<path fill="none" stroke="black" d="M246,-253C246,-242.87 379.83,-212.36 444.2,-198.27"/>
<polygon fill="black" stroke="black" points="442.59,-201.26 446,-197.21 440.81,-198.25 442.59,-201.26"/>
</g>
<!-- function&#45;2&#45;Seq2&#45;&gt;function&#45;1&#45;Jal -->
<g id="edge31" class="edge">
<title>function&#45;2&#45;Seq2:s&#45;&gt;function&#45;1&#45;Jal</title>
<path fill="none" stroke="black" d="M324,-253C324,-239.69 326.7,-225.06 329.54,-213.36"/>
<polygon fill="black" stroke="black" points="329.95,-216.22 330.84,-211 326.89,-214.53 329.95,-216.22"/>
</g>
<!-- function&#45;2&#45;Seq2&#45;&gt;function&#45;1&#45;Seq2 -->
<g id="edge30" class="edge">
<title>function&#45;2&#45;Seq2:s&#45;&gt;function&#45;1&#45;Seq2</title>
<path fill="none" stroke="black" d="M302,-253C302,-232.44 326.08,-239.47 347.13,-249.89"/>
<polygon fill="black" stroke="black" points="343.96,-249.68 349,-251.3 346.07,-246.89 343.96,-249.68"/>
</g>
<!-- function&#45;0&#45;Jal&#45;&gt;function&#45;0&#45;ImmLabel -->
<g id="edge32" class="edge">
<title>function&#45;0&#45;Jal:s&#45;&gt;function&#45;0&#45;ImmLabel</title>
<path fill="none" stroke="black" d="M610,-253C610,-237.1 600.13,-222.63 589.53,-211.67"/>
<polygon fill="black" stroke="black" points="593.21,-211.32 587.92,-211 591.86,-214.54 593.21,-211.32"/>
</g>
<!-- function&#45;0&#45;Bne&#45;&gt;function&#45;0&#45;ImmLabel -->
<g id="edge35" class="edge">
<title>function&#45;0&#45;Bne:s&#45;&gt;function&#45;0&#45;ImmLabel</title>
<path fill="none" stroke="black" d="M559,-332C559,-290.21 561.22,-241.49 562.7,-213.64"/>
<polygon fill="black" stroke="black" points="564.19,-216.16 562.99,-211 560.71,-215.78 564.19,-216.16"/>
</g>
<!-- function&#45;0&#45;Bne&#45;&gt;function&#45;0&#45;Addi -->
<g id="edge33" class="edge">
<title>function&#45;0&#45;Bne:s&#45;&gt;function&#45;0&#45;Addi</title>
<path fill="none" stroke="black" d="M536,-332C536,-249.32 221.81,-354 166,-293 151.6,-277.26 155.88,-263.78 166,-245 166.1,-244.82 194.47,-226.16 217.81,-210.83"/>
<polygon fill="black" stroke="black" points="218.55,-215.28 218,-210.01 215.14,-214.47 218.55,-215.28"/>
</g>
<!-- function&#45;0&#45;Bne&#45;&gt;function&#45;1&#45;RegVal -->
<g id="edge34" class="edge">
<title>function&#45;0&#45;Bne:s&#45;&gt;function&#45;1&#45;RegVal</title>
<path fill="none" stroke="black" d="M550,-332C550,-292.6 551.67,-279.69 533,-245 526.17,-232.31 515.35,-220.74 505.11,-211.59"/>
<polygon fill="black" stroke="black" points="509.28,-211.96 504.07,-211 507.55,-215 509.28,-211.96"/>
</g>
<!-- function&#45;1&#45;Bne&#45;&gt;function&#45;0&#45;ImmLabel -->
<g id="edge38" class="edge">
<title>function&#45;1&#45;Bne:s&#45;&gt;function&#45;0&#45;ImmLabel</title>
<path fill="none" stroke="black" d="M501,-332C501,-309.58 522.43,-312.77 533,-293 546.82,-267.16 555.4,-234.27 559.94,-212.94"/>
<polygon fill="black" stroke="black" points="560.18,-216.24 560.95,-211 557.08,-214.62 560.18,-216.24"/>
</g>
<!-- function&#45;1&#45;Bne&#45;&gt;function&#45;0&#45;Addi -->
<g id="edge37" class="edge">
<title>function&#45;1&#45;Bne:s&#45;&gt;function&#45;0&#45;Addi</title>
<path fill="none" stroke="black" d="M492,-332C492,-256.61 205.15,-349.29 155,-293 140.81,-277.07 144.03,-263.3 155,-245 170.03,-219.93 187.87,-228.93 213,-214 213.21,-213.88 213.41,-213.76 213.62,-213.63"/>
<polygon fill="black" stroke="black" points="214.64,-215.06 218,-210.96 212.82,-212.07 214.64,-215.06"/>
</g>
<!-- function&#45;1&#45;Bne&#45;&gt;function&#45;1&#45;RegVal -->
<g id="edge36" class="edge">
<title>function&#45;1&#45;Bne:s&#45;&gt;function&#45;1&#45;RegVal</title>
<path fill="none" stroke="black" d="M478,-332C478,-304.51 514.19,-317.82 526,-293 535.17,-273.74 533.58,-264.94 526,-245 521.24,-232.48 512.11,-221.02 503.07,-211.9"/>
<polygon fill="black" stroke="black" points="506.48,-211.61 501.22,-211 504.95,-214.76 506.48,-211.61"/>
</g>
<!-- function&#45;0&#45;Seq2&#45;&gt;function&#45;0&#45;Beq -->
<g id="edge39" class="edge">
<title>function&#45;0&#45;Seq2:s&#45;&gt;function&#45;0&#45;Beq</title>
<path fill="none" stroke="black" d="M592,-332C592,-274.23 519.66,-318.86 468,-293 467.66,-292.83 467.32,-292.66 466.98,-292.48"/>
<polygon fill="black" stroke="black" points="467.79,-290.93 462.58,-290 466.07,-293.98 467.79,-290.93"/>
</g>
<!-- function&#45;0&#45;Seq2&#45;&gt;function&#45;0&#45;Jal -->
<g id="edge40" class="edge">
<title>function&#45;0&#45;Seq2:s&#45;&gt;function&#45;0&#45;Jal</title>
<path fill="none" stroke="black" d="M614,-332C614,-318.81 613.09,-304.08 612.13,-292.28"/>
<polygon fill="black" stroke="black" points="614.36,-294.58 611.7,-290 610.92,-295.24 614.36,-294.58"/>
</g>
<!-- function&#45;0&#45;ImmVal -->
<g id="node1" class="node">
<title>function&#45;0&#45;ImmVal</title>
<g id="a_node1"><a xlink:title="Imm&#45;3: function&#45;0&#45;ImmVal">
<path fill="white" stroke="transparent" d="M24.67,-95C24.67,-95 65.33,-95 65.33,-95 70.67,-95 76,-100.33 76,-105.67 76,-105.67 76,-116.33 76,-116.33 76,-121.67 70.67,-127 65.33,-127 65.33,-127 24.67,-127 24.67,-127 19.33,-127 14,-121.67 14,-116.33 14,-116.33 14,-105.67 14,-105.67 14,-100.33 19.33,-95 24.67,-95"/>
<text text-anchor="start" x="19" y="-107.3" font-family="Helvetica,sans-Serif" font-size="14.00">ImmVal</text>
<path fill="none" stroke="black" d="M24.67,-95C24.67,-95 65.33,-95 65.33,-95 70.67,-95 76,-100.33 76,-105.67 76,-105.67 76,-116.33 76,-116.33 76,-121.67 70.67,-127 65.33,-127 65.33,-127 24.67,-127 24.67,-127 19.33,-127 14,-121.67 14,-116.33 14,-116.33 14,-105.67 14,-105.67 14,-100.33 19.33,-95 24.67,-95"/>
</a>
</g>
</g>
<!-- primitive&#45;i64&#45;0 -->
<g id="node2" class="node">
<title>primitive&#45;i64&#45;0</title>
<g id="a_node2"><a xlink:title="i64&#45;0: primitive&#45;i64&#45;0">
<path fill="white" stroke="transparent" d="M39.67,-16C39.67,-16 50.33,-16 50.33,-16 55.67,-16 61,-21.33 61,-26.67 61,-26.67 61,-37.33 61,-37.33 61,-42.67 55.67,-48 50.33,-48 50.33,-48 39.67,-48 39.67,-48 34.33,-48 29,-42.67 29,-37.33 29,-37.33 29,-26.67 29,-26.67 29,-21.33 34.33,-16 39.67,-16"/>
<text text-anchor="start" x="40" y="-28.3" font-family="Helvetica,sans-Serif" font-size="14.00">0</text>
<path fill="none" stroke="black" d="M39.67,-16C39.67,-16 50.33,-16 50.33,-16 55.67,-16 61,-21.33 61,-26.67 61,-26.67 61,-37.33 61,-37.33 61,-42.67 55.67,-48 50.33,-48 50.33,-48 39.67,-48 39.67,-48 34.33,-48 29,-42.67 29,-37.33 29,-37.33 29,-26.67 29,-26.67 29,-21.33 34.33,-16 39.67,-16"/>
</a>
</g>
</g>
<!-- function&#45;0&#45;ImmLabel -->
<g id="node3" class="node">
<title>function&#45;0&#45;ImmLabel</title>
<g id="a_node3"><a xlink:title="Imm&#45;9: function&#45;0&#45;ImmLabel">
<path fill="white" stroke="transparent" d="M535.17,-174C535.17,-174 592.83,-174 592.83,-174 598.17,-174 603.5,-179.33 603.5,-184.67 603.5,-184.67 603.5,-195.33 603.5,-195.33 603.5,-200.67 598.17,-206 592.83,-206 592.83,-206 535.17,-206 535.17,-206 529.83,-206 524.5,-200.67 524.5,-195.33 524.5,-195.33 524.5,-184.67 524.5,-184.67 524.5,-179.33 529.83,-174 535.17,-174"/>
<text text-anchor="start" x="530" y="-186.3" font-family="Helvetica,sans-Serif" font-size="14.00">ImmLabel</text>
<path fill="none" stroke="black" d="M535.17,-174C535.17,-174 592.83,-174 592.83,-174 598.17,-174 603.5,-179.33 603.5,-184.67 603.5,-184.67 603.5,-195.33 603.5,-195.33 603.5,-200.67 598.17,-206 592.83,-206 592.83,-206 535.17,-206 535.17,-206 529.83,-206 524.5,-200.67 524.5,-195.33 524.5,-195.33 524.5,-184.67 524.5,-184.67 524.5,-179.33 529.83,-174 535.17,-174"/>
</a>
</g>
</g>
<!-- primitive&#45;String&#45;4 -->
<g id="node4" class="node">
<title>primitive&#45;String&#45;4</title>
<g id="a_node4"><a xlink:title="String&#45;4: primitive&#45;String&#45;4">
<path fill="white" stroke="transparent" d="M548.67,-95C548.67,-95 581.33,-95 581.33,-95 586.67,-95 592,-100.33 592,-105.67 592,-105.67 592,-116.33 592,-116.33 592,-121.67 586.67,-127 581.33,-127 581.33,-127 548.67,-127 548.67,-127 543.33,-127 538,-121.67 538,-116.33 538,-116.33 538,-105.67 538,-105.67 538,-100.33 543.33,-95 548.67,-95"/>
<text text-anchor="start" x="543" y="-107.3" font-family="Helvetica,sans-Serif" font-size="14.00">&quot;.L21&quot;</text>
<path fill="none" stroke="black" d="M548.67,-95C548.67,-95 581.33,-95 581.33,-95 586.67,-95 592,-100.33 592,-105.67 592,-105.67 592,-116.33 592,-116.33 592,-121.67 586.67,-127 581.33,-127 581.33,-127 548.67,-127 548.67,-127 543.33,-127 538,-121.67 538,-116.33 538,-116.33 538,-105.67 538,-105.67 538,-100.33 543.33,-95 548.67,-95"/>
</a>
</g>
</g>
<!-- function&#45;2&#45;ImmVal -->
<g id="node5" class="node">
<title>function&#45;2&#45;ImmVal</title>
<g id="a_node5"><a xlink:title="Imm&#45;7: function&#45;2&#45;ImmVal">
<path fill="white" stroke="transparent" d="M238.67,-95C238.67,-95 279.33,-95 279.33,-95 284.67,-95 290,-100.33 290,-105.67 290,-105.67 290,-116.33 290,-116.33 290,-121.67 284.67,-127 279.33,-127 279.33,-127 238.67,-127 238.67,-127 233.33,-127 228,-121.67 228,-116.33 228,-116.33 228,-105.67 228,-105.67 228,-100.33 233.33,-95 238.67,-95"/>
<text text-anchor="start" x="233" y="-107.3" font-family="Helvetica,sans-Serif" font-size="14.00">ImmVal</text>
<path fill="none" stroke="black" d="M238.67,-95C238.67,-95 279.33,-95 279.33,-95 284.67,-95 290,-100.33 290,-105.67 290,-105.67 290,-116.33 290,-116.33 290,-121.67 284.67,-127 279.33,-127 279.33,-127 238.67,-127 238.67,-127 233.33,-127 228,-121.67 228,-116.33 228,-116.33 228,-105.67 228,-105.67 228,-100.33 233.33,-95 238.67,-95"/>
</a>
</g>
</g>
<!-- primitive&#45;i64&#45;8 -->
<g id="node6" class="node">
<title>primitive&#45;i64&#45;8</title>
<g id="a_node6"><a xlink:title="i64&#45;8: primitive&#45;i64&#45;8">
<path fill="white" stroke="transparent" d="M253.67,-16C253.67,-16 264.33,-16 264.33,-16 269.67,-16 275,-21.33 275,-26.67 275,-26.67 275,-37.33 275,-37.33 275,-42.67 269.67,-48 264.33,-48 264.33,-48 253.67,-48 253.67,-48 248.33,-48 243,-42.67 243,-37.33 243,-37.33 243,-26.67 243,-26.67 243,-21.33 248.33,-16 253.67,-16"/>
<text text-anchor="start" x="254" y="-28.3" font-family="Helvetica,sans-Serif" font-size="14.00">8</text>
<path fill="none" stroke="black" d="M253.67,-16C253.67,-16 264.33,-16 264.33,-16 269.67,-16 275,-21.33 275,-26.67 275,-26.67 275,-37.33 275,-37.33 275,-42.67 269.67,-48 264.33,-48 264.33,-48 253.67,-48 253.67,-48 248.33,-48 243,-42.67 243,-37.33 243,-37.33 243,-26.67 243,-26.67 243,-21.33 248.33,-16 253.67,-16"/>
</a>
</g>
</g>
<!-- function&#45;1&#45;ImmVal -->
<g id="node7" class="node">
<title>function&#45;1&#45;ImmVal</title>
<g id="a_node7"><a xlink:title="Imm&#45;5: function&#45;1&#45;ImmVal">
<path fill="white" stroke="transparent" d="M314.67,-95C314.67,-95 355.33,-95 355.33,-95 360.67,-95 366,-100.33 366,-105.67 366,-105.67 366,-116.33 366,-116.33 366,-121.67 360.67,-127 355.33,-127 355.33,-127 314.67,-127 314.67,-127 309.33,-127 304,-121.67 304,-116.33 304,-116.33 304,-105.67 304,-105.67 304,-100.33 309.33,-95 314.67,-95"/>
<text text-anchor="start" x="309" y="-107.3" font-family="Helvetica,sans-Serif" font-size="14.00">ImmVal</text>
<path fill="none" stroke="black" d="M314.67,-95C314.67,-95 355.33,-95 355.33,-95 360.67,-95 366,-100.33 366,-105.67 366,-105.67 366,-116.33 366,-116.33 366,-121.67 360.67,-127 355.33,-127 355.33,-127 314.67,-127 314.67,-127 309.33,-127 304,-121.67 304,-116.33 304,-116.33 304,-105.67 304,-105.67 304,-100.33 309.33,-95 314.67,-95"/>
</a>
</g>
</g>
<!-- primitive&#45;i64&#45;4 -->
<g id="node8" class="node">
<title>primitive&#45;i64&#45;4</title>
<g id="a_node8"><a xlink:title="i64&#45;4: primitive&#45;i64&#45;4">
<path fill="white" stroke="transparent" d="M329.67,-16C329.67,-16 340.33,-16 340.33,-16 345.67,-16 351,-21.33 351,-26.67 351,-26.67 351,-37.33 351,-37.33 351,-42.67 345.67,-48 340.33,-48 340.33,-48 329.67,-48 329.67,-48 324.33,-48 319,-42.67 319,-37.33 319,-37.33 319,-26.67 319,-26.67 319,-21.33 324.33,-16 329.67,-16"/>
<text text-anchor="start" x="330" y="-28.3" font-family="Helvetica,sans-Serif" font-size="14.00">4</text>
<path fill="none" stroke="black" d="M329.67,-16C329.67,-16 340.33,-16 340.33,-16 345.67,-16 351,-21.33 351,-26.67 351,-26.67 351,-37.33 351,-37.33 351,-42.67 345.67,-48 340.33,-48 340.33,-48 329.67,-48 329.67,-48 324.33,-48 319,-42.67 319,-37.33 319,-37.33 319,-26.67 319,-26.67 319,-21.33 324.33,-16 329.67,-16"/>
</a>
</g>
</g>
<!-- function&#45;1&#45;Sw -->
<g id="node9" class="node">
<title>function&#45;1&#45;Sw</title>
<g id="a_node9"><a xlink:title="Inst&#45;6: function&#45;1&#45;Sw">
<path fill="white" stroke="transparent" d="M176.67,-174C176.67,-174 187.33,-174 187.33,-174 192.67,-174 198,-179.33 198,-184.67 198,-184.67 198,-195.33 198,-195.33 198,-200.67 192.67,-206 187.33,-206 187.33,-206 176.67,-206 176.67,-206 171.33,-206 166,-200.67 166,-195.33 166,-195.33 166,-184.67 166,-184.67 166,-179.33 171.33,-174 176.67,-174"/>
<text text-anchor="start" x="171.5" y="-186.3" font-family="Helvetica,sans-Serif" font-size="14.00">Sw</text>
<path fill="none" stroke="black" d="M176.67,-174C176.67,-174 187.33,-174 187.33,-174 192.67,-174 198,-179.33 198,-184.67 198,-184.67 198,-195.33 198,-195.33 198,-200.67 192.67,-206 187.33,-206 187.33,-206 176.67,-206 176.67,-206 171.33,-206 166,-200.67 166,-195.33 166,-195.33 166,-184.67 166,-184.67 166,-179.33 171.33,-174 176.67,-174"/>
</a>
</g>
</g>
<!-- function&#45;2&#45;RegVal -->
<g id="node10" class="node">
<title>function&#45;2&#45;RegVal</title>
<g id="a_node10"><a xlink:title="Inst&#45;2: function&#45;2&#45;RegVal">
<path fill="white" stroke="transparent" d="M169.17,-95C169.17,-95 204.83,-95 204.83,-95 210.17,-95 215.5,-100.33 215.5,-105.67 215.5,-105.67 215.5,-116.33 215.5,-116.33 215.5,-121.67 210.17,-127 204.83,-127 204.83,-127 169.17,-127 169.17,-127 163.83,-127 158.5,-121.67 158.5,-116.33 158.5,-116.33 158.5,-105.67 158.5,-105.67 158.5,-100.33 163.83,-95 169.17,-95"/>
<text text-anchor="start" x="164" y="-107.3" font-family="Helvetica,sans-Serif" font-size="14.00">RegVal</text>
<path fill="none" stroke="black" d="M169.17,-95C169.17,-95 204.83,-95 204.83,-95 210.17,-95 215.5,-100.33 215.5,-105.67 215.5,-105.67 215.5,-116.33 215.5,-116.33 215.5,-121.67 210.17,-127 204.83,-127 204.83,-127 169.17,-127 169.17,-127 163.83,-127 158.5,-121.67 158.5,-116.33 158.5,-116.33 158.5,-105.67 158.5,-105.67 158.5,-100.33 163.83,-95 169.17,-95"/>
</a>
</g>
</g>
<!-- function&#45;0&#45;RegVal -->
<g id="node11" class="node">
<title>function&#45;0&#45;RegVal</title>
<g id="a_node11"><a xlink:title="Inst&#45;0: function&#45;0&#45;RegVal">
<path fill="white" stroke="transparent" d="M99.17,-95C99.17,-95 134.83,-95 134.83,-95 140.17,-95 145.5,-100.33 145.5,-105.67 145.5,-105.67 145.5,-116.33 145.5,-116.33 145.5,-121.67 140.17,-127 134.83,-127 134.83,-127 99.17,-127 99.17,-127 93.83,-127 88.5,-121.67 88.5,-116.33 88.5,-116.33 88.5,-105.67 88.5,-105.67 88.5,-100.33 93.83,-95 99.17,-95"/>
<text text-anchor="start" x="94" y="-107.3" font-family="Helvetica,sans-Serif" font-size="14.00">RegVal</text>
<path fill="none" stroke="black" d="M99.17,-95C99.17,-95 134.83,-95 134.83,-95 140.17,-95 145.5,-100.33 145.5,-105.67 145.5,-105.67 145.5,-116.33 145.5,-116.33 145.5,-121.67 140.17,-127 134.83,-127 134.83,-127 99.17,-127 99.17,-127 93.83,-127 88.5,-121.67 88.5,-116.33 88.5,-116.33 88.5,-105.67 88.5,-105.67 88.5,-100.33 93.83,-95 99.17,-95"/>
</a>
</g>
</g>
<!-- primitive&#45;String&#45;3 -->
<g id="node12" class="node">
<title>primitive&#45;String&#45;3</title>
<g id="a_node12"><a xlink:title="String&#45;3: primitive&#45;String&#45;3">
<path fill="white" stroke="transparent" d="M170.17,-16C170.17,-16 205.83,-16 205.83,-16 211.17,-16 216.5,-21.33 216.5,-26.67 216.5,-26.67 216.5,-37.33 216.5,-37.33 216.5,-42.67 211.17,-48 205.83,-48 205.83,-48 170.17,-48 170.17,-48 164.83,-48 159.5,-42.67 159.5,-37.33 159.5,-37.33 159.5,-26.67 159.5,-26.67 159.5,-21.33 164.83,-16 170.17,-16"/>
<text text-anchor="start" x="165" y="-28.3" font-family="Helvetica,sans-Serif" font-size="14.00">&quot;a5_0&quot;</text>
<path fill="none" stroke="black" d="M170.17,-16C170.17,-16 205.83,-16 205.83,-16 211.17,-16 216.5,-21.33 216.5,-26.67 216.5,-26.67 216.5,-37.33 216.5,-37.33 216.5,-42.67 211.17,-48 205.83,-48 205.83,-48 170.17,-48 170.17,-48 164.83,-48 159.5,-42.67 159.5,-37.33 159.5,-37.33 159.5,-26.67 159.5,-26.67 159.5,-21.33 164.83,-16 170.17,-16"/>
</a>
</g>
</g>
<!-- function&#45;0&#45;Sw -->
<g id="node13" class="node">
<title>function&#45;0&#45;Sw</title>
<g id="a_node13"><a xlink:title="Inst&#45;4: function&#45;0&#45;Sw">
<path fill="white" stroke="transparent" d="M107.67,-174C107.67,-174 118.33,-174 118.33,-174 123.67,-174 129,-179.33 129,-184.67 129,-184.67 129,-195.33 129,-195.33 129,-200.67 123.67,-206 118.33,-206 118.33,-206 107.67,-206 107.67,-206 102.33,-206 97,-200.67 97,-195.33 97,-195.33 97,-184.67 97,-184.67 97,-179.33 102.33,-174 107.67,-174"/>
<text text-anchor="start" x="102.5" y="-186.3" font-family="Helvetica,sans-Serif" font-size="14.00">Sw</text>
<path fill="none" stroke="black" d="M107.67,-174C107.67,-174 118.33,-174 118.33,-174 123.67,-174 129,-179.33 129,-184.67 129,-184.67 129,-195.33 129,-195.33 129,-200.67 123.67,-206 118.33,-206 118.33,-206 107.67,-206 107.67,-206 102.33,-206 97,-200.67 97,-195.33 97,-195.33 97,-184.67 97,-184.67 97,-179.33 102.33,-174 107.67,-174"/>
</a>
</g>
</g>
<!-- function&#45;1&#45;Jal -->
<g id="node14" class="node">
<title>function&#45;1&#45;Jal</title>
<g id="a_node14"><a xlink:title="Inst&#45;14: function&#45;1&#45;Jal">
<path fill="white" stroke="transparent" d="M330.67,-174C330.67,-174 341.33,-174 341.33,-174 346.67,-174 352,-179.33 352,-184.67 352,-184.67 352,-195.33 352,-195.33 352,-200.67 346.67,-206 341.33,-206 341.33,-206 330.67,-206 330.67,-206 325.33,-206 320,-200.67 320,-195.33 320,-195.33 320,-184.67 320,-184.67 320,-179.33 325.33,-174 330.67,-174"/>
<text text-anchor="start" x="327.5" y="-186.3" font-family="Helvetica,sans-Serif" font-size="14.00">Jal</text>
<path fill="none" stroke="black" d="M330.67,-174C330.67,-174 341.33,-174 341.33,-174 346.67,-174 352,-179.33 352,-184.67 352,-184.67 352,-195.33 352,-195.33 352,-200.67 346.67,-206 341.33,-206 341.33,-206 330.67,-206 330.67,-206 325.33,-206 320,-200.67 320,-195.33 320,-195.33 320,-184.67 320,-184.67 320,-179.33 325.33,-174 330.67,-174"/>
</a>
</g>
</g>
<!-- function&#45;0&#45;Beq -->
<g id="node15" class="node">
<title>function&#45;0&#45;Beq</title>
<g id="a_node15"><a xlink:title="Inst&#45;11: function&#45;0&#45;Beq">
<path fill="white" stroke="transparent" d="M428.67,-253C428.67,-253 445.33,-253 445.33,-253 450.67,-253 456,-258.33 456,-263.67 456,-263.67 456,-274.33 456,-274.33 456,-279.67 450.67,-285 445.33,-285 445.33,-285 428.67,-285 428.67,-285 423.33,-285 418,-279.67 418,-274.33 418,-274.33 418,-263.67 418,-263.67 418,-258.33 423.33,-253 428.67,-253"/>
<text text-anchor="start" x="423" y="-265.3" font-family="Helvetica,sans-Serif" font-size="14.00">Beq</text>
<path fill="none" stroke="black" d="M428.67,-253C428.67,-253 445.33,-253 445.33,-253 450.67,-253 456,-258.33 456,-263.67 456,-263.67 456,-274.33 456,-274.33 456,-279.67 450.67,-285 445.33,-285 445.33,-285 428.67,-285 428.67,-285 423.33,-285 418,-279.67 418,-274.33 418,-274.33 418,-263.67 418,-263.67 418,-258.33 423.33,-253 428.67,-253"/>
</a>
</g>
</g>
<!-- function&#45;0&#45;Addi -->
<g id="node16" class="node">
<title>function&#45;0&#45;Addi</title>
<g id="a_node16"><a xlink:title="Inst&#45;8: function&#45;0&#45;Addi">
<path fill="white" stroke="transparent" d="M238.17,-174C238.17,-174 257.83,-174 257.83,-174 263.17,-174 268.5,-179.33 268.5,-184.67 268.5,-184.67 268.5,-195.33 268.5,-195.33 268.5,-200.67 263.17,-206 257.83,-206 257.83,-206 238.17,-206 238.17,-206 232.83,-206 227.5,-200.67 227.5,-195.33 227.5,-195.33 227.5,-184.67 227.5,-184.67 227.5,-179.33 232.83,-174 238.17,-174"/>
<text text-anchor="start" x="233" y="-186.3" font-family="Helvetica,sans-Serif" font-size="14.00">Addi</text>
<path fill="none" stroke="black" d="M238.17,-174C238.17,-174 257.83,-174 257.83,-174 263.17,-174 268.5,-179.33 268.5,-184.67 268.5,-184.67 268.5,-195.33 268.5,-195.33 268.5,-200.67 263.17,-206 257.83,-206 257.83,-206 238.17,-206 238.17,-206 232.83,-206 227.5,-200.67 227.5,-195.33 227.5,-195.33 227.5,-184.67 227.5,-184.67 227.5,-179.33 232.83,-174 238.17,-174"/>
</a>
</g>
</g>
<!-- function&#45;1&#45;RegVal -->
<g id="node17" class="node">
<title>function&#45;1&#45;RegVal</title>
<g id="a_node17"><a xlink:title="Inst&#45;1: function&#45;1&#45;RegVal">
<path fill="white" stroke="transparent" d="M460.17,-174C460.17,-174 495.83,-174 495.83,-174 501.17,-174 506.5,-179.33 506.5,-184.67 506.5,-184.67 506.5,-195.33 506.5,-195.33 506.5,-200.67 501.17,-206 495.83,-206 495.83,-206 460.17,-206 460.17,-206 454.83,-206 449.5,-200.67 449.5,-195.33 449.5,-195.33 449.5,-184.67 449.5,-184.67 449.5,-179.33 454.83,-174 460.17,-174"/>
<text text-anchor="start" x="455" y="-186.3" font-family="Helvetica,sans-Serif" font-size="14.00">RegVal</text>
<path fill="none" stroke="black" d="M460.17,-174C460.17,-174 495.83,-174 495.83,-174 501.17,-174 506.5,-179.33 506.5,-184.67 506.5,-184.67 506.5,-195.33 506.5,-195.33 506.5,-200.67 501.17,-206 495.83,-206 495.83,-206 460.17,-206 460.17,-206 454.83,-206 449.5,-200.67 449.5,-195.33 449.5,-195.33 449.5,-184.67 449.5,-184.67 449.5,-179.33 454.83,-174 460.17,-174"/>
</a>
</g>
</g>
<!-- function&#45;1&#45;Beq -->
<g id="node18" class="node">
<title>function&#45;1&#45;Beq</title>
<g id="a_node18"><a xlink:title="Inst&#45;11: function&#45;1&#45;Beq">
<path fill="white" stroke="transparent" d="M486.67,-253C486.67,-253 503.33,-253 503.33,-253 508.67,-253 514,-258.33 514,-263.67 514,-263.67 514,-274.33 514,-274.33 514,-279.67 508.67,-285 503.33,-285 503.33,-285 486.67,-285 486.67,-285 481.33,-285 476,-279.67 476,-274.33 476,-274.33 476,-263.67 476,-263.67 476,-258.33 481.33,-253 486.67,-253"/>
<text text-anchor="start" x="481" y="-265.3" font-family="Helvetica,sans-Serif" font-size="14.00">Beq</text>
<path fill="none" stroke="black" d="M486.67,-253C486.67,-253 503.33,-253 503.33,-253 508.67,-253 514,-258.33 514,-263.67 514,-263.67 514,-274.33 514,-274.33 514,-279.67 508.67,-285 503.33,-285 503.33,-285 486.67,-285 486.67,-285 481.33,-285 476,-279.67 476,-274.33 476,-274.33 476,-263.67 476,-263.67 476,-258.33 481.33,-253 486.67,-253"/>
</a>
</g>
</g>
<!-- function&#45;1&#45;Seq2 -->
<g id="node19" class="node">
<title>function&#45;1&#45;Seq2</title>
<g id="a_node19"><a xlink:title="Inst&#45;11: function&#45;1&#45;Seq2">
<path fill="white" stroke="transparent" d="M366.67,-253C366.67,-253 391.33,-253 391.33,-253 396.67,-253 402,-258.33 402,-263.67 402,-263.67 402,-274.33 402,-274.33 402,-279.67 396.67,-285 391.33,-285 391.33,-285 366.67,-285 366.67,-285 361.33,-285 356,-279.67 356,-274.33 356,-274.33 356,-263.67 356,-263.67 356,-258.33 361.33,-253 366.67,-253"/>
<text text-anchor="start" x="361" y="-265.3" font-family="Helvetica,sans-Serif" font-size="14.00">Seq2</text>
<path fill="none" stroke="black" d="M366.67,-253C366.67,-253 391.33,-253 391.33,-253 396.67,-253 402,-258.33 402,-263.67 402,-263.67 402,-274.33 402,-274.33 402,-279.67 396.67,-285 391.33,-285 391.33,-285 366.67,-285 366.67,-285 361.33,-285 356,-279.67 356,-274.33 356,-274.33 356,-263.67 356,-263.67 356,-258.33 361.33,-253 366.67,-253"/>
</a>
</g>
</g>
<!-- function&#45;2&#45;Bne -->
<g id="node20" class="node">
<title>function&#45;2&#45;Bne</title>
<g id="a_node20"><a xlink:title="Inst&#45;13: function&#45;2&#45;Bne">
<path fill="white" stroke="transparent" d="M188.67,-253C188.67,-253 205.33,-253 205.33,-253 210.67,-253 216,-258.33 216,-263.67 216,-263.67 216,-274.33 216,-274.33 216,-279.67 210.67,-285 205.33,-285 205.33,-285 188.67,-285 188.67,-285 183.33,-285 178,-279.67 178,-274.33 178,-274.33 178,-263.67 178,-263.67 178,-258.33 183.33,-253 188.67,-253"/>
<text text-anchor="start" x="183" y="-265.3" font-family="Helvetica,sans-Serif" font-size="14.00">Bne</text>
<path fill="none" stroke="black" d="M188.67,-253C188.67,-253 205.33,-253 205.33,-253 210.67,-253 216,-258.33 216,-263.67 216,-263.67 216,-274.33 216,-274.33 216,-279.67 210.67,-285 205.33,-285 205.33,-285 188.67,-285 188.67,-285 183.33,-285 178,-279.67 178,-274.33 178,-274.33 178,-263.67 178,-263.67 178,-258.33 183.33,-253 188.67,-253"/>
</a>
</g>
</g>
<!-- primitive&#45;String&#45;1 -->
<g id="node21" class="node">
<title>primitive&#45;String&#45;1</title>
<g id="a_node21"><a xlink:title="String&#45;1: primitive&#45;String&#45;1">
<path fill="white" stroke="transparent" d="M100.17,-16C100.17,-16 135.83,-16 135.83,-16 141.17,-16 146.5,-21.33 146.5,-26.67 146.5,-26.67 146.5,-37.33 146.5,-37.33 146.5,-42.67 141.17,-48 135.83,-48 135.83,-48 100.17,-48 100.17,-48 94.83,-48 89.5,-42.67 89.5,-37.33 89.5,-37.33 89.5,-26.67 89.5,-26.67 89.5,-21.33 94.83,-16 100.17,-16"/>
<text text-anchor="start" x="95" y="-28.3" font-family="Helvetica,sans-Serif" font-size="14.00">&quot;a2_0&quot;</text>
<path fill="none" stroke="black" d="M100.17,-16C100.17,-16 135.83,-16 135.83,-16 141.17,-16 146.5,-21.33 146.5,-26.67 146.5,-26.67 146.5,-37.33 146.5,-37.33 146.5,-42.67 141.17,-48 135.83,-48 135.83,-48 100.17,-48 100.17,-48 94.83,-48 89.5,-42.67 89.5,-37.33 89.5,-37.33 89.5,-26.67 89.5,-26.67 89.5,-21.33 94.83,-16 100.17,-16"/>
</a>
</g>
</g>
<!-- function&#45;3&#45;Bne -->
<g id="node22" class="node">
<title>function&#45;3&#45;Bne</title>
<g id="a_node22"><a xlink:title="Inst&#45;13: function&#45;3&#45;Bne">
<path fill="white" stroke="transparent" d="M246.67,-253C246.67,-253 263.33,-253 263.33,-253 268.67,-253 274,-258.33 274,-263.67 274,-263.67 274,-274.33 274,-274.33 274,-279.67 268.67,-285 263.33,-285 263.33,-285 246.67,-285 246.67,-285 241.33,-285 236,-279.67 236,-274.33 236,-274.33 236,-263.67 236,-263.67 236,-258.33 241.33,-253 246.67,-253"/>
<text text-anchor="start" x="241" y="-265.3" font-family="Helvetica,sans-Serif" font-size="14.00">Bne</text>
<path fill="none" stroke="black" d="M246.67,-253C246.67,-253 263.33,-253 263.33,-253 268.67,-253 274,-258.33 274,-263.67 274,-263.67 274,-274.33 274,-274.33 274,-279.67 268.67,-285 263.33,-285 263.33,-285 246.67,-285 246.67,-285 241.33,-285 236,-279.67 236,-274.33 236,-274.33 236,-263.67 236,-263.67 236,-258.33 241.33,-253 246.67,-253"/>
</a>
</g>
</g>
<!-- function&#45;2&#45;Seq2 -->
<g id="node23" class="node">
<title>function&#45;2&#45;Seq2</title>
<g id="a_node23"><a xlink:title="Inst&#45;13: function&#45;2&#45;Seq2">
<path fill="white" stroke="transparent" d="M300.67,-253C300.67,-253 325.33,-253 325.33,-253 330.67,-253 336,-258.33 336,-263.67 336,-263.67 336,-274.33 336,-274.33 336,-279.67 330.67,-285 325.33,-285 325.33,-285 300.67,-285 300.67,-285 295.33,-285 290,-279.67 290,-274.33 290,-274.33 290,-263.67 290,-263.67 290,-258.33 295.33,-253 300.67,-253"/>
<text text-anchor="start" x="295" y="-265.3" font-family="Helvetica,sans-Serif" font-size="14.00">Seq2</text>
<path fill="none" stroke="black" d="M300.67,-253C300.67,-253 325.33,-253 325.33,-253 330.67,-253 336,-258.33 336,-263.67 336,-263.67 336,-274.33 336,-274.33 336,-279.67 330.67,-285 325.33,-285 325.33,-285 300.67,-285 300.67,-285 295.33,-285 290,-279.67 290,-274.33 290,-274.33 290,-263.67 290,-263.67 290,-258.33 295.33,-253 300.67,-253"/>
</a>
</g>
</g>
<!-- function&#45;0&#45;Jal -->
<g id="node24" class="node">
<title>function&#45;0&#45;Jal</title>
<g id="a_node24"><a xlink:title="Inst&#45;12: function&#45;0&#45;Jal">
<path fill="white" stroke="transparent" d="M604.67,-253C604.67,-253 615.33,-253 615.33,-253 620.67,-253 626,-258.33 626,-263.67 626,-263.67 626,-274.33 626,-274.33 626,-279.67 620.67,-285 615.33,-285 615.33,-285 604.67,-285 604.67,-285 599.33,-285 594,-279.67 594,-274.33 594,-274.33 594,-263.67 594,-263.67 594,-258.33 599.33,-253 604.67,-253"/>
<text text-anchor="start" x="601.5" y="-265.3" font-family="Helvetica,sans-Serif" font-size="14.00">Jal</text>
<path fill="none" stroke="black" d="M604.67,-253C604.67,-253 615.33,-253 615.33,-253 620.67,-253 626,-258.33 626,-263.67 626,-263.67 626,-274.33 626,-274.33 626,-279.67 620.67,-285 615.33,-285 615.33,-285 604.67,-285 604.67,-285 599.33,-285 594,-279.67 594,-274.33 594,-274.33 594,-263.67 594,-263.67 594,-258.33 599.33,-253 604.67,-253"/>
</a>
</g>
</g>
<!-- function&#45;0&#45;Bne -->
<g id="node25" class="node">
<title>function&#45;0&#45;Bne</title>
<g id="a_node25"><a xlink:title="Inst&#45;10: function&#45;0&#45;Bne">
<path fill="white" stroke="transparent" d="M536.67,-332C536.67,-332 553.33,-332 553.33,-332 558.67,-332 564,-337.33 564,-342.67 564,-342.67 564,-353.33 564,-353.33 564,-358.67 558.67,-364 553.33,-364 553.33,-364 536.67,-364 536.67,-364 531.33,-364 526,-358.67 526,-353.33 526,-353.33 526,-342.67 526,-342.67 526,-337.33 531.33,-332 536.67,-332"/>
<text text-anchor="start" x="531" y="-344.3" font-family="Helvetica,sans-Serif" font-size="14.00">Bne</text>
<path fill="none" stroke="black" d="M536.67,-332C536.67,-332 553.33,-332 553.33,-332 558.67,-332 564,-337.33 564,-342.67 564,-342.67 564,-353.33 564,-353.33 564,-358.67 558.67,-364 553.33,-364 553.33,-364 536.67,-364 536.67,-364 531.33,-364 526,-358.67 526,-353.33 526,-353.33 526,-342.67 526,-342.67 526,-337.33 531.33,-332 536.67,-332"/>
</a>
</g>
</g>
<!-- function&#45;1&#45;Bne -->
<g id="node26" class="node">
<title>function&#45;1&#45;Bne</title>
<g id="a_node26"><a xlink:title="Inst&#45;10: function&#45;1&#45;Bne">
<path fill="white" stroke="transparent" d="M478.67,-332C478.67,-332 495.33,-332 495.33,-332 500.67,-332 506,-337.33 506,-342.67 506,-342.67 506,-353.33 506,-353.33 506,-358.67 500.67,-364 495.33,-364 495.33,-364 478.67,-364 478.67,-364 473.33,-364 468,-358.67 468,-353.33 468,-353.33 468,-342.67 468,-342.67 468,-337.33 473.33,-332 478.67,-332"/>
<text text-anchor="start" x="473" y="-344.3" font-family="Helvetica,sans-Serif" font-size="14.00">Bne</text>
<path fill="none" stroke="black" d="M478.67,-332C478.67,-332 495.33,-332 495.33,-332 500.67,-332 506,-337.33 506,-342.67 506,-342.67 506,-353.33 506,-353.33 506,-358.67 500.67,-364 495.33,-364 495.33,-364 478.67,-364 478.67,-364 473.33,-364 468,-358.67 468,-353.33 468,-353.33 468,-342.67 468,-342.67 468,-337.33 473.33,-332 478.67,-332"/>
</a>
</g>
</g>
<!-- function&#45;0&#45;Seq2 -->
<g id="node27" class="node">
<title>function&#45;0&#45;Seq2</title>
<g id="a_node27"><a xlink:title="Inst&#45;10: function&#45;0&#45;Seq2">
<path fill="white" stroke="transparent" d="M590.67,-332C590.67,-332 615.33,-332 615.33,-332 620.67,-332 626,-337.33 626,-342.67 626,-342.67 626,-353.33 626,-353.33 626,-358.67 620.67,-364 615.33,-364 615.33,-364 590.67,-364 590.67,-364 585.33,-364 580,-358.67 580,-353.33 580,-353.33 580,-342.67 580,-342.67 580,-337.33 585.33,-332 590.67,-332"/>
<text text-anchor="start" x="585" y="-344.3" font-family="Helvetica,sans-Serif" font-size="14.00">Seq2</text>
<path fill="none" stroke="black" d="M590.67,-332C590.67,-332 615.33,-332 615.33,-332 620.67,-332 626,-337.33 626,-342.67 626,-342.67 626,-353.33 626,-353.33 626,-358.67 620.67,-364 615.33,-364 615.33,-364 590.67,-364 590.67,-364 585.33,-364 580,-358.67 580,-353.33 580,-353.33 580,-342.67 580,-342.67 580,-337.33 585.33,-332 590.67,-332"/>
</a>
</g>
</g>
<!-- primitive&#45;String&#45;2 -->
<g id="node28" class="node">
<title>primitive&#45;String&#45;2</title>
<g id="a_node28"><a xlink:title="String&#45;2: primitive&#45;String&#45;2">
<path fill="white" stroke="transparent" d="M461.17,-95C461.17,-95 496.83,-95 496.83,-95 502.17,-95 507.5,-100.33 507.5,-105.67 507.5,-105.67 507.5,-116.33 507.5,-116.33 507.5,-121.67 502.17,-127 496.83,-127 496.83,-127 461.17,-127 461.17,-127 455.83,-127 450.5,-121.67 450.5,-116.33 450.5,-116.33 450.5,-105.67 450.5,-105.67 450.5,-100.33 455.83,-95 461.17,-95"/>
<text text-anchor="start" x="456" y="-107.3" font-family="Helvetica,sans-Serif" font-size="14.00">&quot;a4_0&quot;</text>
<path fill="none" stroke="black" d="M461.17,-95C461.17,-95 496.83,-95 496.83,-95 502.17,-95 507.5,-100.33 507.5,-105.67 507.5,-105.67 507.5,-116.33 507.5,-116.33 507.5,-121.67 502.17,-127 496.83,-127 496.83,-127 461.17,-127 461.17,-127 455.83,-127 450.5,-121.67 450.5,-116.33 450.5,-116.33 450.5,-105.67 450.5,-105.67 450.5,-100.33 455.83,-95 461.17,-95"/>
</a>
</g>
</g>
</g>
</svg>
