<?xml version="1.0" encoding="UTF-8" standalone="no"?>
<!DOCTYPE svg PUBLIC "-//W3C//DTD SVG 1.1//EN"
 "http://www.w3.org/Graphics/SVG/1.1/DTD/svg11.dtd">
<!-- Generated by graphviz version 2.43.0 (0)
 -->
<!-- Title: %3 Pages: 1 -->
<svg width="946pt" height="388pt"
 viewBox="0.00 0.00 946.00 388.00" xmlns="http://www.w3.org/2000/svg" xmlns:xlink="http://www.w3.org/1999/xlink">
<g id="graph0" class="graph" transform="scale(1 1) rotate(0) translate(4 384)">
<title>%3</title>
<polygon fill="white" stroke="#000000" points="-4,4 -4,-384 942,-384 942,4 -4,4"/>
<g id="clust1" class="cluster">
<title>outer_cluster_Imm&#45;8</title>
</g>
<g id="clust2" class="cluster">
<title>cluster_Imm&#45;8</title>
<path fill="#ffffb3" stroke="black" stroke-dasharray="5,2" d="M23,-248C23,-248 83,-248 83,-248 89,-248 95,-254 95,-260 95,-260 95,-278 95,-278 95,-284 89,-290 83,-290 83,-290 23,-290 23,-290 17,-290 11,-284 11,-278 11,-278 11,-260 11,-260 11,-254 17,-248 23,-248"/>
</g>
<g id="clust4" class="cluster">
<title>outer_cluster_Imm&#45;12</title>
</g>
<g id="clust5" class="cluster">
<title>cluster_Imm&#45;12</title>
<path fill="#ffffb3" stroke="black" stroke-dasharray="5,2" d="M614,-90C614,-90 658,-90 658,-90 664,-90 670,-96 670,-102 670,-102 670,-120 670,-120 670,-126 664,-132 658,-132 658,-132 614,-132 614,-132 608,-132 602,-126 602,-120 602,-120 602,-102 602,-102 602,-96 608,-90 614,-90"/>
</g>
<g id="clust7" class="cluster">
<title>outer_cluster_Imm&#45;6</title>
</g>
<g id="clust8" class="cluster">
<title>cluster_Imm&#45;6</title>
<path fill="#ffffb3" stroke="black" stroke-dasharray="5,2" d="M185,-169C185,-169 229,-169 229,-169 235,-169 241,-175 241,-181 241,-181 241,-199 241,-199 241,-205 235,-211 229,-211 229,-211 185,-211 185,-211 179,-211 173,-205 173,-199 173,-199 173,-181 173,-181 173,-175 179,-169 185,-169"/>
</g>
<g id="clust10" class="cluster">
<title>outer_cluster_Imm&#45;10</title>
</g>
<g id="clust11" class="cluster">
<title>cluster_Imm&#45;10</title>
<path fill="#ffffb3" stroke="black" stroke-dasharray="5,2" d="M329,-169C329,-169 389,-169 389,-169 395,-169 401,-175 401,-181 401,-181 401,-199 401,-199 401,-205 395,-211 389,-211 389,-211 329,-211 329,-211 323,-211 317,-205 317,-199 317,-199 317,-181 317,-181 317,-175 323,-169 329,-169"/>
</g>
<g id="clust13" class="cluster">
<title>outer_cluster_Imm&#45;4</title>
</g>
<g id="clust14" class="cluster">
<title>cluster_Imm&#45;4</title>
<path fill="#ffffb3" stroke="black" stroke-dasharray="5,2" d="M854,-248C854,-248 914,-248 914,-248 920,-248 926,-254 926,-260 926,-260 926,-278 926,-278 926,-284 920,-290 914,-290 914,-290 854,-290 854,-290 848,-290 842,-284 842,-278 842,-278 842,-260 842,-260 842,-254 848,-248 854,-248"/>
</g>
<g id="clust16" class="cluster">
<title>outer_cluster_Inst&#45;11</title>
</g>
<g id="clust17" class="cluster">
<title>cluster_Inst&#45;11</title>
<path fill="#bebada" stroke="black" stroke-dasharray="5,2" d="M369,-327C369,-327 521,-327 521,-327 527,-327 533,-333 533,-339 533,-339 533,-357 533,-357 533,-363 527,-369 521,-369 521,-369 369,-369 369,-369 363,-369 357,-363 357,-357 357,-357 357,-339 357,-339 357,-333 363,-327 369,-327"/>
</g>
<g id="clust19" class="cluster">
<title>outer_cluster_Inst&#45;5</title>
</g>
<g id="clust20" class="cluster">
<title>cluster_Inst&#45;5</title>
<path fill="#bebada" stroke="black" stroke-dasharray="5,2" d="M866,-327C866,-327 902,-327 902,-327 908,-327 914,-333 914,-339 914,-339 914,-357 914,-357 914,-363 908,-369 902,-369 902,-369 866,-369 866,-369 860,-369 854,-363 854,-357 854,-357 854,-339 854,-339 854,-333 860,-327 866,-327"/>
</g>
<g id="clust22" class="cluster">
<title>outer_cluster_Inst&#45;14</title>
</g>
<g id="clust23" class="cluster">
<title>cluster_Inst&#45;14</title>
<path fill="#bebada" stroke="black" stroke-dasharray="5,2" d="M380,-248C380,-248 416,-248 416,-248 422,-248 428,-254 428,-260 428,-260 428,-278 428,-278 428,-284 422,-290 416,-290 416,-290 380,-290 380,-290 374,-290 368,-284 368,-278 368,-278 368,-260 368,-260 368,-254 374,-248 380,-248"/>
</g>
<g id="clust25" class="cluster">
<title>outer_cluster_Inst&#45;13</title>
</g>
<g id="clust26" class="cluster">
<title>cluster_Inst&#45;13</title>
<path fill="#bebada" stroke="black" stroke-dasharray="5,2" d="M468,-248C468,-248 620,-248 620,-248 626,-248 632,-254 632,-260 632,-260 632,-278 632,-278 632,-284 626,-290 620,-290 620,-290 468,-290 468,-290 462,-290 456,-284 456,-278 456,-278 456,-260 456,-260 456,-254 462,-248 468,-248"/>
</g>
<g id="clust28" class="cluster">
<title>outer_cluster_Inst&#45;2</title>
</g>
<g id="clust29" class="cluster">
<title>cluster_Inst&#45;2</title>
<path fill="#bebada" stroke="black" stroke-dasharray="5,2" d="M113,-248C113,-248 153,-248 153,-248 159,-248 165,-254 165,-260 165,-260 165,-278 165,-278 165,-284 159,-290 153,-290 153,-290 113,-290 113,-290 107,-290 101,-284 101,-278 101,-278 101,-260 101,-260 101,-254 107,-248 113,-248"/>
</g>
<g id="clust31" class="cluster">
<title>outer_cluster_Inst&#45;17</title>
</g>
<g id="clust32" class="cluster">
<title>cluster_Inst&#45;17</title>
<path fill="#bebada" stroke="black" stroke-dasharray="5,2" d="M618,-169C618,-169 654,-169 654,-169 660,-169 666,-175 666,-181 666,-181 666,-199 666,-199 666,-205 660,-211 654,-211 654,-211 618,-211 618,-211 612,-211 606,-205 606,-199 606,-199 606,-181 606,-181 606,-175 612,-169 618,-169"/>
</g>
<g id="clust34" class="cluster">
<title>outer_cluster_Inst&#45;16</title>
</g>
<g id="clust35" class="cluster">
<title>cluster_Inst&#45;16</title>
<path fill="#bebada" stroke="black" stroke-dasharray="5,2" d="M650,-248C650,-248 802,-248 802,-248 808,-248 814,-254 814,-260 814,-260 814,-278 814,-278 814,-284 808,-290 802,-290 802,-290 650,-290 650,-290 644,-290 638,-284 638,-278 638,-278 638,-260 638,-260 638,-254 644,-248 650,-248"/>
</g>
<g id="clust37" class="cluster">
<title>outer_cluster_Inst&#45;7</title>
</g>
<g id="clust38" class="cluster">
<title>cluster_Inst&#45;7</title>
<path fill="#bebada" stroke="black" stroke-dasharray="5,2" d="M183,-248C183,-248 219,-248 219,-248 225,-248 231,-254 231,-260 231,-260 231,-278 231,-278 231,-284 225,-290 219,-290 219,-290 183,-290 183,-290 177,-290 171,-284 171,-278 171,-278 171,-260 171,-260 171,-254 177,-248 183,-248"/>
</g>
<g id="clust40" class="cluster">
<title>outer_cluster_Inst&#45;1</title>
</g>
<g id="clust41" class="cluster">
<title>cluster_Inst&#45;1</title>
<path fill="#bebada" stroke="black" stroke-dasharray="5,2" d="M733,-169C733,-169 773,-169 773,-169 779,-169 785,-175 785,-181 785,-181 785,-199 785,-199 785,-205 779,-211 773,-211 773,-211 733,-211 733,-211 727,-211 721,-205 721,-199 721,-199 721,-181 721,-181 721,-175 727,-169 733,-169"/>
</g>
<g id="clust43" class="cluster">
<title>outer_cluster_Inst&#45;3</title>
</g>
<g id="clust44" class="cluster">
<title>cluster_Inst&#45;3</title>
<path fill="#bebada" stroke="black" stroke-dasharray="5,2" d="M259,-169C259,-169 299,-169 299,-169 305,-169 311,-175 311,-181 311,-181 311,-199 311,-199 311,-205 305,-211 299,-211 299,-211 259,-211 259,-211 253,-211 247,-205 247,-199 247,-199 247,-181 247,-181 247,-175 253,-169 259,-169"/>
</g>
<g id="clust46" class="cluster">
<title>outer_cluster_Inst&#45;9</title>
</g>
<g id="clust47" class="cluster">
<title>cluster_Inst&#45;9</title>
<path fill="#bebada" stroke="black" stroke-dasharray="5,2" d="M123,-327C123,-327 159,-327 159,-327 165,-327 171,-333 171,-339 171,-339 171,-357 171,-357 171,-363 165,-369 159,-369 159,-369 123,-369 123,-369 117,-369 111,-363 111,-357 111,-357 111,-339 111,-339 111,-333 117,-327 123,-327"/>
</g>
<g id="clust49" class="cluster">
<title>outer_cluster_Inst&#45;0</title>
</g>
<g id="clust50" class="cluster">
<title>cluster_Inst&#45;0</title>
<path fill="#bebada" stroke="black" stroke-dasharray="5,2" d="M493,-169C493,-169 533,-169 533,-169 539,-169 545,-175 545,-181 545,-181 545,-199 545,-199 545,-205 539,-211 533,-211 533,-211 493,-211 493,-211 487,-211 481,-205 481,-199 481,-199 481,-181 481,-181 481,-175 487,-169 493,-169"/>
</g>
<g id="clust52" class="cluster">
<title>outer_cluster_String&#45;6</title>
</g>
<g id="clust53" class="cluster">
<title>cluster_String&#45;6</title>
<path fill="#fb8072" stroke="black" stroke-dasharray="5,2" d="M24,-169C24,-169 84,-169 84,-169 90,-169 96,-175 96,-181 96,-181 96,-199 96,-199 96,-205 90,-211 84,-211 84,-211 24,-211 24,-211 18,-211 12,-205 12,-199 12,-199 12,-181 12,-181 12,-175 18,-169 24,-169"/>
</g>
<g id="clust55" class="cluster">
<title>outer_cluster_String&#45;5</title>
</g>
<g id="clust56" class="cluster">
<title>cluster_String&#45;5</title>
<path fill="#fb8072" stroke="black" stroke-dasharray="5,2" d="M855,-169C855,-169 915,-169 915,-169 921,-169 927,-175 927,-181 927,-181 927,-199 927,-199 927,-205 921,-211 915,-211 915,-211 855,-211 855,-211 849,-211 843,-205 843,-199 843,-199 843,-181 843,-181 843,-175 849,-169 855,-169"/>
</g>
<g id="clust58" class="cluster">
<title>outer_cluster_String&#45;7</title>
</g>
<g id="clust59" class="cluster">
<title>cluster_String&#45;7</title>
<path fill="#fb8072" stroke="black" stroke-dasharray="5,2" d="M342,-90C342,-90 378,-90 378,-90 384,-90 390,-96 390,-102 390,-102 390,-120 390,-120 390,-126 384,-132 378,-132 378,-132 342,-132 342,-132 336,-132 330,-126 330,-120 330,-120 330,-102 330,-102 330,-96 336,-90 342,-90"/>
</g>
<g id="clust61" class="cluster">
<title>outer_cluster_String&#45;4</title>
</g>
<g id="clust62" class="cluster">
<title>cluster_String&#45;4</title>
<path fill="#fb8072" stroke="black" stroke-dasharray="5,2" d="M254,-90C254,-90 306,-90 306,-90 312,-90 318,-96 318,-102 318,-102 318,-120 318,-120 318,-126 312,-132 306,-132 306,-132 254,-132 254,-132 248,-132 242,-126 242,-120 242,-120 242,-102 242,-102 242,-96 248,-90 254,-90"/>
</g>
<g id="clust64" class="cluster">
<title>outer_cluster_String&#45;3</title>
</g>
<g id="clust65" class="cluster">
<title>cluster_String&#45;3</title>
<path fill="#fb8072" stroke="black" stroke-dasharray="5,2" d="M116,-169C116,-169 152,-169 152,-169 158,-169 164,-175 164,-181 164,-181 164,-199 164,-199 164,-205 158,-211 152,-211 152,-211 116,-211 116,-211 110,-211 104,-205 104,-199 104,-199 104,-181 104,-181 104,-175 110,-169 116,-169"/>
</g>
<g id="clust67" class="cluster">
<title>outer_cluster_String&#45;1</title>
</g>
<g id="clust68" class="cluster">
<title>cluster_String&#45;1</title>
<path fill="#fb8072" stroke="black" stroke-dasharray="5,2" d="M494,-90C494,-90 534,-90 534,-90 540,-90 546,-96 546,-102 546,-102 546,-120 546,-120 546,-126 540,-132 534,-132 534,-132 494,-132 494,-132 488,-132 482,-126 482,-120 482,-120 482,-102 482,-102 482,-96 488,-90 494,-90"/>
</g>
<g id="clust70" class="cluster">
<title>outer_cluster_String&#45;2</title>
</g>
<g id="clust71" class="cluster">
<title>cluster_String&#45;2</title>
<path fill="#fb8072" stroke="black" stroke-dasharray="5,2" d="M734,-90C734,-90 774,-90 774,-90 780,-90 786,-96 786,-102 786,-102 786,-120 786,-120 786,-126 780,-132 774,-132 774,-132 734,-132 734,-132 728,-132 722,-126 722,-120 722,-120 722,-102 722,-102 722,-96 728,-90 734,-90"/>
</g>
<g id="clust73" class="cluster">
<title>outer_cluster_i64&#45;100</title>
</g>
<g id="clust74" class="cluster">
<title>cluster_i64&#45;100</title>
<path fill="#80b1d3" stroke="black" stroke-dasharray="5,2" d="M188,-90C188,-90 224,-90 224,-90 230,-90 236,-96 236,-102 236,-102 236,-120 236,-120 236,-126 230,-132 224,-132 224,-132 188,-132 188,-132 182,-132 176,-126 176,-120 176,-120 176,-102 176,-102 176,-96 182,-90 188,-90"/>
</g>
<g id="clust76" class="cluster">
<title>outer_cluster_i64&#45;4</title>
</g>
<g id="clust77" class="cluster">
<title>cluster_i64&#45;4</title>
<path fill="#80b1d3" stroke="black" stroke-dasharray="5,2" d="M618,-11C618,-11 654,-11 654,-11 660,-11 666,-17 666,-23 666,-23 666,-41 666,-41 666,-47 660,-53 654,-53 654,-53 618,-53 618,-53 612,-53 606,-47 606,-41 606,-41 606,-23 606,-23 606,-17 612,-11 618,-11"/>
</g>
<!-- function&#45;1&#45;ImmLabel&#45;&gt;primitive&#45;String&#45;6 -->
<g id="edge1" class="edge">
<title>function&#45;1&#45;ImmLabel:s&#45;&gt;primitive&#45;String&#45;6</title>
<path fill="none" stroke="black" d="M54,-253C54,-239.84 54,-225.11 54,-213.3"/>
<polygon fill="black" stroke="black" points="55.75,-216 54,-211 52.25,-216 55.75,-216"/>
</g>
<!-- function&#45;1&#45;ImmVal&#45;&gt;primitive&#45;i64&#45;4 -->
<g id="edge2" class="edge">
<title>function&#45;1&#45;ImmVal:s&#45;&gt;primitive&#45;i64&#45;4</title>
<path fill="none" stroke="black" d="M636,-95C636,-81.84 636,-67.11 636,-55.3"/>
<polygon fill="black" stroke="black" points="637.75,-58 636,-53 634.25,-58 637.75,-58"/>
</g>
<!-- function&#45;0&#45;ImmVal&#45;&gt;primitive&#45;i64&#45;100 -->
<g id="edge3" class="edge">
<title>function&#45;0&#45;ImmVal:s&#45;&gt;primitive&#45;i64&#45;100</title>
<path fill="none" stroke="black" d="M207,-174C207,-160.84 206.77,-146.1 206.53,-134.3"/>
<polygon fill="black" stroke="black" points="208.41,-136.91 206.42,-132 204.91,-137.08 208.41,-136.91"/>
</g>
<!-- function&#45;2&#45;ImmLabel&#45;&gt;primitive&#45;String&#45;7 -->
<g id="edge4" class="edge">
<title>function&#45;2&#45;ImmLabel:s&#45;&gt;primitive&#45;String&#45;7</title>
<path fill="none" stroke="black" d="M360,-174C360,-160.84 360,-146.11 360,-134.3"/>
<polygon fill="black" stroke="black" points="361.75,-137 360,-132 358.25,-137 361.75,-137"/>
</g>
<!-- function&#45;0&#45;ImmLabel&#45;&gt;primitive&#45;String&#45;5 -->
<g id="edge5" class="edge">
<title>function&#45;0&#45;ImmLabel:s&#45;&gt;primitive&#45;String&#45;5</title>
<path fill="none" stroke="black" d="M885,-253C885,-239.84 885,-225.11 885,-213.3"/>
<polygon fill="black" stroke="black" points="886.75,-216 885,-211 883.25,-216 886.75,-216"/>
</g>
<!-- function&#45;0&#45;Beq&#45;&gt;function&#45;2&#45;ImmLabel -->
<g id="edge8" class="edge">
<title>function&#45;0&#45;Beq:s&#45;&gt;function&#45;2&#45;ImmLabel</title>
<path fill="none" stroke="black" d="M459,-332C459,-283.05 383.82,-333.28 356,-293 339.81,-269.55 345.15,-235.31 351.35,-213.09"/>
<polygon fill="black" stroke="black" points="351.41,-216.12 352.77,-211 348.51,-214.16 351.41,-216.12"/>
</g>
<!-- function&#45;0&#45;Beq&#45;&gt;function&#45;0&#45;RegVal -->
<g id="edge6" class="edge">
<title>function&#45;0&#45;Beq:s&#45;&gt;function&#45;0&#45;RegVal</title>
<path fill="none" stroke="black" d="M436,-332C436,-293.03 428.13,-279.1 447,-245 454.73,-231.03 467.65,-219.25 480.03,-210.3"/>
<polygon fill="black" stroke="black" points="478.59,-214.08 481,-209.37 476.17,-211.55 478.59,-214.08"/>
</g>
<!-- function&#45;0&#45;Beq&#45;&gt;function&#45;1&#45;RegVal -->
<g id="edge7" class="edge">
<title>function&#45;0&#45;Beq:s&#45;&gt;function&#45;1&#45;RegVal</title>
<path fill="none" stroke="black" d="M450,-332C450,-250.43 760.01,-353.25 815,-293 829.38,-277.24 823.84,-264.42 815,-245 808.79,-231.35 797.22,-219.8 785.75,-210.94"/>
<polygon fill="black" stroke="black" points="789.21,-213 785,-209.79 786.29,-214.93 789.21,-213"/>
</g>
<!-- function&#45;0&#45;RegVal&#45;&gt;primitive&#45;String&#45;1 -->
<g id="edge41" class="edge">
<title>function&#45;0&#45;RegVal:s&#45;&gt;primitive&#45;String&#45;1</title>
<path fill="none" stroke="black" d="M514,-174C514,-160.84 514,-146.11 514,-134.3"/>
<polygon fill="black" stroke="black" points="515.75,-137 514,-132 512.25,-137 515.75,-137"/>
</g>
<!-- function&#45;1&#45;RegVal&#45;&gt;primitive&#45;String&#45;2 -->
<g id="edge36" class="edge">
<title>function&#45;1&#45;RegVal:s&#45;&gt;primitive&#45;String&#45;2</title>
<path fill="none" stroke="black" d="M754,-174C754,-160.84 754,-146.11 754,-134.3"/>
<polygon fill="black" stroke="black" points="755.75,-137 754,-132 752.25,-137 755.75,-137"/>
</g>
<!-- function&#45;1&#45;Beq&#45;&gt;function&#45;2&#45;ImmLabel -->
<g id="edge11" class="edge">
<title>function&#45;1&#45;Beq:s&#45;&gt;function&#45;2&#45;ImmLabel</title>
<path fill="none" stroke="black" d="M517,-332C517,-263.12 411.24,-345.8 367,-293 357.21,-281.32 356.95,-239.48 357.84,-213.16"/>
<polygon fill="black" stroke="black" points="359.34,-216.13 358.03,-211 355.85,-215.83 359.34,-216.13"/>
</g>
<!-- function&#45;1&#45;Beq&#45;&gt;function&#45;0&#45;RegVal -->
<g id="edge10" class="edge">
<title>function&#45;1&#45;Beq:s&#45;&gt;function&#45;0&#45;RegVal</title>
<path fill="none" stroke="black" d="M508,-332C508,-302.75 468.2,-319.1 455,-293 445.37,-273.96 446.49,-264.56 455,-245 460.77,-231.74 471.58,-220.27 482.31,-211.35"/>
<polygon fill="black" stroke="black" points="479.18,-214.38 483.26,-211 477.96,-211.1 479.18,-214.38"/>
</g>
<!-- function&#45;1&#45;Beq&#45;&gt;function&#45;1&#45;RegVal -->
<g id="edge9" class="edge">
<title>function&#45;1&#45;Beq:s&#45;&gt;function&#45;1&#45;RegVal</title>
<path fill="none" stroke="black" d="M494,-332C494,-257.71 776.63,-348.51 826,-293 840.18,-277.06 835.6,-264.05 826,-245 817.58,-228.29 801.26,-215.46 786.19,-206.51"/>
<polygon fill="black" stroke="black" points="789.35,-207.89 785,-204.86 786.51,-209.94 789.35,-207.89"/>
</g>
<!-- function&#45;0&#45;Seq2&#45;&gt;function&#45;0&#45;Bne -->
<g id="edge12" class="edge">
<title>function&#45;0&#45;Seq2:s&#45;&gt;function&#45;0&#45;Bne</title>
<path fill="none" stroke="black" d="M376,-332C376,-268.69 456.21,-320.98 513,-293 513.34,-292.83 513.69,-292.66 514.03,-292.48"/>
<polygon fill="black" stroke="black" points="514.97,-293.96 518.48,-290 513.26,-290.91 514.97,-293.96"/>
</g>
<!-- function&#45;0&#45;Seq2&#45;&gt;function&#45;0&#45;Jal -->
<g id="edge13" class="edge">
<title>function&#45;0&#45;Seq2:s&#45;&gt;function&#45;0&#45;Jal</title>
<path fill="none" stroke="black" d="M398,-332C398,-318.84 398,-304.11 398,-292.3"/>
<polygon fill="black" stroke="black" points="399.75,-295 398,-290 396.25,-295 399.75,-295"/>
</g>
<!-- function&#45;0&#45;Bne&#45;&gt;function&#45;1&#45;ImmVal -->
<g id="edge18" class="edge">
<title>function&#45;0&#45;Bne:s&#45;&gt;function&#45;1&#45;ImmVal</title>
<path fill="none" stroke="black" d="M558,-253C558,-246.33 601.3,-171.32 623.38,-133.51"/>
<polygon fill="black" stroke="black" points="622.56,-136.72 624.96,-132 620.14,-134.19 622.56,-136.72"/>
</g>
<!-- function&#45;0&#45;Bne&#45;&gt;function&#45;0&#45;RegVal -->
<g id="edge16" class="edge">
<title>function&#45;0&#45;Bne:s&#45;&gt;function&#45;0&#45;RegVal</title>
<path fill="none" stroke="black" d="M535,-253C535,-239.11 530.03,-224.42 524.82,-212.83"/>
<polygon fill="black" stroke="black" points="527.83,-214.17 523.59,-211 524.93,-216.12 527.83,-214.17"/>
</g>
<!-- function&#45;0&#45;Bne&#45;&gt;function&#45;1&#45;RegVal -->
<g id="edge17" class="edge">
<title>function&#45;0&#45;Bne:s&#45;&gt;function&#45;1&#45;RegVal</title>
<path fill="none" stroke="black" d="M549,-253C549,-248.61 661.1,-216.66 719.11,-200.42"/>
<polygon fill="black" stroke="black" points="718.06,-203.4 721,-198.99 715.95,-200.6 718.06,-203.4"/>
</g>
<!-- function&#45;0&#45;Jal&#45;&gt;function&#45;2&#45;ImmLabel -->
<g id="edge15" class="edge">
<title>function&#45;0&#45;Jal:s&#45;&gt;function&#45;2&#45;ImmLabel</title>
<path fill="none" stroke="black" d="M398,-253C398,-237.82 389.52,-223.32 380.48,-212.17"/>
<polygon fill="black" stroke="black" points="384.05,-212.95 379.13,-211 381.76,-215.6 384.05,-212.95"/>
</g>
<!-- function&#45;0&#45;Lui&#45;&gt;function&#45;0&#45;ImmLabel -->
<g id="edge14" class="edge">
<title>function&#45;0&#45;Lui:s&#45;&gt;function&#45;0&#45;ImmLabel</title>
<path fill="none" stroke="black" d="M884,-332C884,-318.84 884,-304.11 884,-292.3"/>
<polygon fill="black" stroke="black" points="885.75,-295 884,-290 882.25,-295 885.75,-295"/>
</g>
<!-- function&#45;1&#45;Bne&#45;&gt;function&#45;1&#45;ImmVal -->
<g id="edge21" class="edge">
<title>function&#45;1&#45;Bne:s&#45;&gt;function&#45;1&#45;ImmVal</title>
<path fill="none" stroke="black" d="M500,-253C500,-226.2 527.89,-233.76 546,-214 563.67,-194.73 562.96,-185.83 580,-166 590.04,-154.32 602.24,-142.34 612.69,-132.63"/>
<polygon fill="black" stroke="black" points="610.72,-136.54 613.45,-132 608.49,-133.85 610.72,-136.54"/>
</g>
<!-- function&#45;1&#45;Bne&#45;&gt;function&#45;0&#45;RegVal -->
<g id="edge20" class="edge">
<title>function&#45;1&#45;Bne:s&#45;&gt;function&#45;0&#45;RegVal</title>
<path fill="none" stroke="black" d="M491,-253C491,-239.11 495.97,-224.42 501.18,-212.83"/>
<polygon fill="black" stroke="black" points="501.07,-216.12 502.41,-211 498.17,-214.17 501.07,-216.12"/>
</g>
<!-- function&#45;1&#45;Bne&#45;&gt;function&#45;1&#45;RegVal -->
<g id="edge19" class="edge">
<title>function&#45;1&#45;Bne:s&#45;&gt;function&#45;1&#45;RegVal</title>
<path fill="none" stroke="black" d="M477,-253C477,-209.9 625.05,-223.91 667,-214 684.3,-209.92 703.41,-204.86 719.21,-200.53"/>
<polygon fill="black" stroke="black" points="718.2,-203.59 721,-199.09 716.01,-200.86 718.2,-203.59"/>
</g>
<!-- function&#45;1&#45;Seq2&#45;&gt;function&#45;2&#45;Beq -->
<g id="edge22" class="edge">
<title>function&#45;1&#45;Seq2:s&#45;&gt;function&#45;2&#45;Beq</title>
<path fill="none" stroke="black" d="M591,-253C591,-178.07 713.84,-204.55 751,-223.5 760.53,-228.36 767.96,-237.41 773.33,-246.17"/>
<polygon fill="black" stroke="black" points="770.37,-245.62 775.1,-248 772.88,-243.19 770.37,-245.62"/>
</g>
<!-- function&#45;1&#45;Seq2&#45;&gt;function&#45;1&#45;Jal -->
<g id="edge23" class="edge">
<title>function&#45;1&#45;Seq2:s&#45;&gt;function&#45;1&#45;Jal</title>
<path fill="none" stroke="black" d="M613,-253C613,-239.04 618.19,-224.35 623.64,-212.77"/>
<polygon fill="black" stroke="black" points="623.36,-216.05 624.98,-211 620.57,-213.94 623.36,-216.05"/>
</g>
<!-- function&#45;2&#45;Beq&#45;&gt;function&#45;1&#45;ImmVal -->
<g id="edge28" class="edge">
<title>function&#45;2&#45;Beq:s&#45;&gt;function&#45;1&#45;ImmVal</title>
<path fill="none" stroke="black" d="M798,-253C798,-214.24 747.85,-240.95 720,-214 702.57,-197.13 708.85,-185.19 694,-166 684.55,-153.79 672.24,-141.91 661.39,-132.41"/>
<polygon fill="black" stroke="black" points="665.75,-132.46 660.47,-132 664.31,-135.65 665.75,-132.46"/>
</g>
<!-- function&#45;2&#45;Beq&#45;&gt;function&#45;0&#45;RegVal -->
<g id="edge26" class="edge">
<title>function&#45;2&#45;Beq:s&#45;&gt;function&#45;0&#45;RegVal</title>
<path fill="none" stroke="black" d="M775,-253C775,-242.6 763.01,-247.85 753,-245 688.37,-226.58 670.5,-229.04 605,-214 585.66,-209.56 564.14,-204.2 546.77,-199.77"/>
<polygon fill="black" stroke="black" points="550.04,-200.05 545,-198.43 547.93,-202.84 550.04,-200.05"/>
</g>
<!-- function&#45;2&#45;Beq&#45;&gt;function&#45;1&#45;RegVal -->
<g id="edge27" class="edge">
<title>function&#45;2&#45;Beq:s&#45;&gt;function&#45;1&#45;RegVal</title>
<path fill="none" stroke="black" d="M789,-253C789,-238.03 781.06,-223.45 772.64,-212.19"/>
<polygon fill="black" stroke="black" points="776.22,-213.46 771.52,-211 773.66,-215.85 776.22,-213.46"/>
</g>
<!-- function&#45;1&#45;Jal&#45;&gt;function&#45;1&#45;ImmVal -->
<g id="edge25" class="edge">
<title>function&#45;1&#45;Jal:s&#45;&gt;function&#45;1&#45;ImmVal</title>
<path fill="none" stroke="black" d="M636,-174C636,-160.84 636,-146.11 636,-134.3"/>
<polygon fill="black" stroke="black" points="637.75,-137 636,-132 634.25,-137 637.75,-137"/>
</g>
<!-- function&#45;2&#45;RegVal&#45;&gt;primitive&#45;String&#45;3 -->
<g id="edge24" class="edge">
<title>function&#45;2&#45;RegVal:s&#45;&gt;primitive&#45;String&#45;3</title>
<path fill="none" stroke="black" d="M134,-253C134,-239.84 134,-225.11 134,-213.3"/>
<polygon fill="black" stroke="black" points="135.75,-216 134,-211 132.25,-216 135.75,-216"/>
</g>
<!-- function&#45;3&#45;Beq&#45;&gt;function&#45;1&#45;ImmVal -->
<g id="edge31" class="edge">
<title>function&#45;3&#45;Beq:s&#45;&gt;function&#45;1&#45;ImmVal</title>
<path fill="none" stroke="black" d="M740,-253C740,-230.29 720.83,-232 707,-214 686.26,-187.01 664.11,-154.54 650.18,-133.6"/>
<polygon fill="black" stroke="black" points="653.25,-133.96 648.33,-132 650.96,-136.6 653.25,-133.96"/>
</g>
<!-- function&#45;3&#45;Beq&#45;&gt;function&#45;0&#45;RegVal -->
<g id="edge30" class="edge">
<title>function&#45;3&#45;Beq:s&#45;&gt;function&#45;0&#45;RegVal</title>
<path fill="none" stroke="black" d="M731,-253C731,-248.28 608.25,-215.73 546.97,-199.78"/>
<polygon fill="black" stroke="black" points="550.13,-199.78 545,-198.47 548.2,-202.69 550.13,-199.78"/>
</g>
<!-- function&#45;3&#45;Beq&#45;&gt;function&#45;1&#45;RegVal -->
<g id="edge29" class="edge">
<title>function&#45;3&#45;Beq:s&#45;&gt;function&#45;1&#45;RegVal</title>
<path fill="none" stroke="black" d="M717,-253C717,-238.03 724.94,-223.45 733.36,-212.19"/>
<polygon fill="black" stroke="black" points="732.34,-215.85 734.48,-211 729.78,-213.46 732.34,-215.85"/>
</g>
<!-- function&#45;2&#45;Seq2&#45;&gt;function&#45;1&#45;Seq2 -->
<g id="edge32" class="edge">
<title>function&#45;2&#45;Seq2:s&#45;&gt;function&#45;1&#45;Seq2</title>
<path fill="none" stroke="black" d="M657,-253C657,-241.59 645.78,-243.91 633.57,-249.8"/>
<polygon fill="black" stroke="black" points="634.71,-246.57 632,-251.12 636.96,-249.26 634.71,-246.57"/>
</g>
<!-- function&#45;2&#45;Seq2&#45;&gt;function&#45;1&#45;Jal -->
<g id="edge33" class="edge">
<title>function&#45;2&#45;Seq2:s&#45;&gt;function&#45;1&#45;Jal</title>
<path fill="none" stroke="black" d="M679,-253C679,-237.48 669.79,-223.05 659.9,-212.02"/>
<polygon fill="black" stroke="black" points="663.42,-212.14 658.24,-211 661.58,-215.11 663.42,-212.14"/>
</g>
<!-- function&#45;0&#45;Addi&#45;&gt;function&#45;0&#45;ImmVal -->
<g id="edge35" class="edge">
<title>function&#45;0&#45;Addi:s&#45;&gt;function&#45;0&#45;ImmVal</title>
<path fill="none" stroke="black" d="M211,-253C211,-239.81 210.09,-225.08 209.13,-213.28"/>
<polygon fill="black" stroke="black" points="211.36,-215.58 208.7,-211 207.92,-216.24 211.36,-215.58"/>
</g>
<!-- function&#45;0&#45;Addi&#45;&gt;function&#45;3&#45;RegVal -->
<g id="edge34" class="edge">
<title>function&#45;0&#45;Addi:s&#45;&gt;function&#45;3&#45;RegVal</title>
<path fill="none" stroke="black" d="M191,-253C191,-249.6 219.43,-230.04 243.97,-213.78"/>
<polygon fill="black" stroke="black" points="244.97,-215.21 248.18,-211 243.04,-212.29 244.97,-215.21"/>
</g>
<!-- function&#45;3&#45;RegVal&#45;&gt;primitive&#45;String&#45;4 -->
<g id="edge37" class="edge">
<title>function&#45;3&#45;RegVal:s&#45;&gt;primitive&#45;String&#45;4</title>
<path fill="none" stroke="black" d="M280,-174C280,-160.84 280,-146.11 280,-134.3"/>
<polygon fill="black" stroke="black" points="281.75,-137 280,-132 278.25,-137 281.75,-137"/>
</g>
<!-- function&#45;0&#45;Sw&#45;&gt;function&#45;1&#45;ImmLabel -->
<g id="edge40" class="edge">
<title>function&#45;0&#45;Sw:s&#45;&gt;function&#45;1&#45;ImmLabel</title>
<path fill="none" stroke="black" d="M152,-332C152,-324.94 122.7,-307.21 95.98,-292.52"/>
<polygon fill="black" stroke="black" points="96.61,-290.86 91.38,-290 94.93,-293.93 96.61,-290.86"/>
</g>
<!-- function&#45;0&#45;Sw&#45;&gt;function&#45;2&#45;RegVal -->
<g id="edge38" class="edge">
<title>function&#45;0&#45;Sw:s&#45;&gt;function&#45;2&#45;RegVal</title>
<path fill="none" stroke="black" d="M133,-332C133,-318.84 133,-304.11 133,-292.3"/>
<polygon fill="black" stroke="black" points="134.75,-295 133,-290 131.25,-295 134.75,-295"/>
</g>
<!-- function&#45;0&#45;Sw&#45;&gt;function&#45;0&#45;Addi -->
<g id="edge39" class="edge">
<title>function&#45;0&#45;Sw:s&#45;&gt;function&#45;0&#45;Addi</title>
<path fill="none" stroke="black" d="M145,-332C145,-321.9 161.56,-304.46 176.67,-290.64"/>
<polygon fill="black" stroke="black" points="174.64,-294.48 177.47,-290 172.46,-291.75 174.64,-294.48"/>
</g>
<!-- function&#45;1&#45;ImmLabel -->
<g id="node1" class="node">
<title>function&#45;1&#45;ImmLabel</title>
<g id="a_node1"><a xlink:title="Imm&#45;8: function&#45;1&#45;ImmLabel">
<path fill="white" stroke="transparent" d="M24.17,-253C24.17,-253 81.83,-253 81.83,-253 87.17,-253 92.5,-258.33 92.5,-263.67 92.5,-263.67 92.5,-274.33 92.5,-274.33 92.5,-279.67 87.17,-285 81.83,-285 81.83,-285 24.17,-285 24.17,-285 18.83,-285 13.5,-279.67 13.5,-274.33 13.5,-274.33 13.5,-263.67 13.5,-263.67 13.5,-258.33 18.83,-253 24.17,-253"/>
<text text-anchor="start" x="19" y="-265.3" font-family="Helvetica,sans-Serif" font-size="14.00">ImmLabel</text>
<path fill="none" stroke="black" d="M24.17,-253C24.17,-253 81.83,-253 81.83,-253 87.17,-253 92.5,-258.33 92.5,-263.67 92.5,-263.67 92.5,-274.33 92.5,-274.33 92.5,-279.67 87.17,-285 81.83,-285 81.83,-285 24.17,-285 24.17,-285 18.83,-285 13.5,-279.67 13.5,-274.33 13.5,-274.33 13.5,-263.67 13.5,-263.67 13.5,-258.33 18.83,-253 24.17,-253"/>
</a>
</g>
</g>
<!-- primitive&#45;String&#45;6 -->
<g id="node2" class="node">
<title>primitive&#45;String&#45;6</title>
<g id="a_node2"><a xlink:title="String&#45;6: primitive&#45;String&#45;6">
<path fill="white" stroke="transparent" d="M26.17,-174C26.17,-174 81.83,-174 81.83,-174 87.17,-174 92.5,-179.33 92.5,-184.67 92.5,-184.67 92.5,-195.33 92.5,-195.33 92.5,-200.67 87.17,-206 81.83,-206 81.83,-206 26.17,-206 26.17,-206 20.83,-206 15.5,-200.67 15.5,-195.33 15.5,-195.33 15.5,-184.67 15.5,-184.67 15.5,-179.33 20.83,-174 26.17,-174"/>
<text text-anchor="start" x="21" y="-186.3" font-family="Helvetica,sans-Serif" font-size="14.00">&quot;%lo(ch)&quot;</text>
<path fill="none" stroke="black" d="M26.17,-174C26.17,-174 81.83,-174 81.83,-174 87.17,-174 92.5,-179.33 92.5,-184.67 92.5,-184.67 92.5,-195.33 92.5,-195.33 92.5,-200.67 87.17,-206 81.83,-206 81.83,-206 26.17,-206 26.17,-206 20.83,-206 15.5,-200.67 15.5,-195.33 15.5,-195.33 15.5,-184.67 15.5,-184.67 15.5,-179.33 20.83,-174 26.17,-174"/>
</a>
</g>
</g>
<!-- function&#45;1&#45;ImmVal -->
<g id="node3" class="node">
<title>function&#45;1&#45;ImmVal</title>
<g id="a_node3"><a xlink:title="Imm&#45;12: function&#45;1&#45;ImmVal">
<path fill="white" stroke="transparent" d="M615.67,-95C615.67,-95 656.33,-95 656.33,-95 661.67,-95 667,-100.33 667,-105.67 667,-105.67 667,-116.33 667,-116.33 667,-121.67 661.67,-127 656.33,-127 656.33,-127 615.67,-127 615.67,-127 610.33,-127 605,-121.67 605,-116.33 605,-116.33 605,-105.67 605,-105.67 605,-100.33 610.33,-95 615.67,-95"/>
<text text-anchor="start" x="610" y="-107.3" font-family="Helvetica,sans-Serif" font-size="14.00">ImmVal</text>
<path fill="none" stroke="black" d="M615.67,-95C615.67,-95 656.33,-95 656.33,-95 661.67,-95 667,-100.33 667,-105.67 667,-105.67 667,-116.33 667,-116.33 667,-121.67 661.67,-127 656.33,-127 656.33,-127 615.67,-127 615.67,-127 610.33,-127 605,-121.67 605,-116.33 605,-116.33 605,-105.67 605,-105.67 605,-100.33 610.33,-95 615.67,-95"/>
</a>
</g>
</g>
<!-- primitive&#45;i64&#45;4 -->
<g id="node4" class="node">
<title>primitive&#45;i64&#45;4</title>
<g id="a_node4"><a xlink:title="i64&#45;4: primitive&#45;i64&#45;4">
<path fill="white" stroke="transparent" d="M630.67,-16C630.67,-16 641.33,-16 641.33,-16 646.67,-16 652,-21.33 652,-26.67 652,-26.67 652,-37.33 652,-37.33 652,-42.67 646.67,-48 641.33,-48 641.33,-48 630.67,-48 630.67,-48 625.33,-48 620,-42.67 620,-37.33 620,-37.33 620,-26.67 620,-26.67 620,-21.33 625.33,-16 630.67,-16"/>
<text text-anchor="start" x="631" y="-28.3" font-family="Helvetica,sans-Serif" font-size="14.00">4</text>
<path fill="none" stroke="black" d="M630.67,-16C630.67,-16 641.33,-16 641.33,-16 646.67,-16 652,-21.33 652,-26.67 652,-26.67 652,-37.33 652,-37.33 652,-42.67 646.67,-48 641.33,-48 641.33,-48 630.67,-48 630.67,-48 625.33,-48 620,-42.67 620,-37.33 620,-37.33 620,-26.67 620,-26.67 620,-21.33 625.33,-16 630.67,-16"/>
</a>
</g>
</g>
<!-- function&#45;0&#45;ImmVal -->
<g id="node5" class="node">
<title>function&#45;0&#45;ImmVal</title>
<g id="a_node5"><a xlink:title="Imm&#45;6: function&#45;0&#45;ImmVal">
<path fill="white" stroke="transparent" d="M186.67,-174C186.67,-174 227.33,-174 227.33,-174 232.67,-174 238,-179.33 238,-184.67 238,-184.67 238,-195.33 238,-195.33 238,-200.67 232.67,-206 227.33,-206 227.33,-206 186.67,-206 186.67,-206 181.33,-206 176,-200.67 176,-195.33 176,-195.33 176,-184.67 176,-184.67 176,-179.33 181.33,-174 186.67,-174"/>
<text text-anchor="start" x="181" y="-186.3" font-family="Helvetica,sans-Serif" font-size="14.00">ImmVal</text>
<path fill="none" stroke="black" d="M186.67,-174C186.67,-174 227.33,-174 227.33,-174 232.67,-174 238,-179.33 238,-184.67 238,-184.67 238,-195.33 238,-195.33 238,-200.67 232.67,-206 227.33,-206 227.33,-206 186.67,-206 186.67,-206 181.33,-206 176,-200.67 176,-195.33 176,-195.33 176,-184.67 176,-184.67 176,-179.33 181.33,-174 186.67,-174"/>
</a>
</g>
</g>
<!-- primitive&#45;i64&#45;100 -->
<g id="node6" class="node">
<title>primitive&#45;i64&#45;100</title>
<g id="a_node6"><a xlink:title="i64&#45;100: primitive&#45;i64&#45;100">
<path fill="white" stroke="transparent" d="M197.67,-95C197.67,-95 214.33,-95 214.33,-95 219.67,-95 225,-100.33 225,-105.67 225,-105.67 225,-116.33 225,-116.33 225,-121.67 219.67,-127 214.33,-127 214.33,-127 197.67,-127 197.67,-127 192.33,-127 187,-121.67 187,-116.33 187,-116.33 187,-105.67 187,-105.67 187,-100.33 192.33,-95 197.67,-95"/>
<text text-anchor="start" x="192" y="-107.3" font-family="Helvetica,sans-Serif" font-size="14.00">100</text>
<path fill="none" stroke="black" d="M197.67,-95C197.67,-95 214.33,-95 214.33,-95 219.67,-95 225,-100.33 225,-105.67 225,-105.67 225,-116.33 225,-116.33 225,-121.67 219.67,-127 214.33,-127 214.33,-127 197.67,-127 197.67,-127 192.33,-127 187,-121.67 187,-116.33 187,-116.33 187,-105.67 187,-105.67 187,-100.33 192.33,-95 197.67,-95"/>
</a>
</g>
</g>
<!-- function&#45;2&#45;ImmLabel -->
<g id="node7" class="node">
<title>function&#45;2&#45;ImmLabel</title>
<g id="a_node7"><a xlink:title="Imm&#45;10: function&#45;2&#45;ImmLabel">
<path fill="white" stroke="transparent" d="M330.17,-174C330.17,-174 387.83,-174 387.83,-174 393.17,-174 398.5,-179.33 398.5,-184.67 398.5,-184.67 398.5,-195.33 398.5,-195.33 398.5,-200.67 393.17,-206 387.83,-206 387.83,-206 330.17,-206 330.17,-206 324.83,-206 319.5,-200.67 319.5,-195.33 319.5,-195.33 319.5,-184.67 319.5,-184.67 319.5,-179.33 324.83,-174 330.17,-174"/>
<text text-anchor="start" x="325" y="-186.3" font-family="Helvetica,sans-Serif" font-size="14.00">ImmLabel</text>
<path fill="none" stroke="black" d="M330.17,-174C330.17,-174 387.83,-174 387.83,-174 393.17,-174 398.5,-179.33 398.5,-184.67 398.5,-184.67 398.5,-195.33 398.5,-195.33 398.5,-200.67 393.17,-206 387.83,-206 387.83,-206 330.17,-206 330.17,-206 324.83,-206 319.5,-200.67 319.5,-195.33 319.5,-195.33 319.5,-184.67 319.5,-184.67 319.5,-179.33 324.83,-174 330.17,-174"/>
</a>
</g>
</g>
<!-- primitive&#45;String&#45;7 -->
<g id="node8" class="node">
<title>primitive&#45;String&#45;7</title>
<g id="a_node8"><a xlink:title="String&#45;7: primitive&#45;String&#45;7">
<path fill="white" stroke="transparent" d="M343.67,-95C343.67,-95 376.33,-95 376.33,-95 381.67,-95 387,-100.33 387,-105.67 387,-105.67 387,-116.33 387,-116.33 387,-121.67 381.67,-127 376.33,-127 376.33,-127 343.67,-127 343.67,-127 338.33,-127 333,-121.67 333,-116.33 333,-116.33 333,-105.67 333,-105.67 333,-100.33 338.33,-95 343.67,-95"/>
<text text-anchor="start" x="338" y="-107.3" font-family="Helvetica,sans-Serif" font-size="14.00">&quot;.L45&quot;</text>
<path fill="none" stroke="black" d="M343.67,-95C343.67,-95 376.33,-95 376.33,-95 381.67,-95 387,-100.33 387,-105.67 387,-105.67 387,-116.33 387,-116.33 387,-121.67 381.67,-127 376.33,-127 376.33,-127 343.67,-127 343.67,-127 338.33,-127 333,-121.67 333,-116.33 333,-116.33 333,-105.67 333,-105.67 333,-100.33 338.33,-95 343.67,-95"/>
</a>
</g>
</g>
<!-- function&#45;0&#45;ImmLabel -->
<g id="node9" class="node">
<title>function&#45;0&#45;ImmLabel</title>
<g id="a_node9"><a xlink:title="Imm&#45;4: function&#45;0&#45;ImmLabel">
<path fill="white" stroke="transparent" d="M855.17,-253C855.17,-253 912.83,-253 912.83,-253 918.17,-253 923.5,-258.33 923.5,-263.67 923.5,-263.67 923.5,-274.33 923.5,-274.33 923.5,-279.67 918.17,-285 912.83,-285 912.83,-285 855.17,-285 855.17,-285 849.83,-285 844.5,-279.67 844.5,-274.33 844.5,-274.33 844.5,-263.67 844.5,-263.67 844.5,-258.33 849.83,-253 855.17,-253"/>
<text text-anchor="start" x="850" y="-265.3" font-family="Helvetica,sans-Serif" font-size="14.00">ImmLabel</text>
<path fill="none" stroke="black" d="M855.17,-253C855.17,-253 912.83,-253 912.83,-253 918.17,-253 923.5,-258.33 923.5,-263.67 923.5,-263.67 923.5,-274.33 923.5,-274.33 923.5,-279.67 918.17,-285 912.83,-285 912.83,-285 855.17,-285 855.17,-285 849.83,-285 844.5,-279.67 844.5,-274.33 844.5,-274.33 844.5,-263.67 844.5,-263.67 844.5,-258.33 849.83,-253 855.17,-253"/>
</a>
</g>
</g>
<!-- primitive&#45;String&#45;5 -->
<g id="node10" class="node">
<title>primitive&#45;String&#45;5</title>
<g id="a_node10"><a xlink:title="String&#45;5: primitive&#45;String&#45;5">
<path fill="white" stroke="transparent" d="M857.17,-174C857.17,-174 912.83,-174 912.83,-174 918.17,-174 923.5,-179.33 923.5,-184.67 923.5,-184.67 923.5,-195.33 923.5,-195.33 923.5,-200.67 918.17,-206 912.83,-206 912.83,-206 857.17,-206 857.17,-206 851.83,-206 846.5,-200.67 846.5,-195.33 846.5,-195.33 846.5,-184.67 846.5,-184.67 846.5,-179.33 851.83,-174 857.17,-174"/>
<text text-anchor="start" x="852" y="-186.3" font-family="Helvetica,sans-Serif" font-size="14.00">&quot;%hi(ch)&quot;</text>
<path fill="none" stroke="black" d="M857.17,-174C857.17,-174 912.83,-174 912.83,-174 918.17,-174 923.5,-179.33 923.5,-184.67 923.5,-184.67 923.5,-195.33 923.5,-195.33 923.5,-200.67 918.17,-206 912.83,-206 912.83,-206 857.17,-206 857.17,-206 851.83,-206 846.5,-200.67 846.5,-195.33 846.5,-195.33 846.5,-184.67 846.5,-184.67 846.5,-179.33 851.83,-174 857.17,-174"/>
</a>
</g>
</g>
<!-- function&#45;0&#45;Beq -->
<g id="node11" class="node">
<title>function&#45;0&#45;Beq</title>
<g id="a_node11"><a xlink:title="Inst&#45;11: function&#45;0&#45;Beq">
<path fill="white" stroke="transparent" d="M436.67,-332C436.67,-332 453.33,-332 453.33,-332 458.67,-332 464,-337.33 464,-342.67 464,-342.67 464,-353.33 464,-353.33 464,-358.67 458.67,-364 453.33,-364 453.33,-364 436.67,-364 436.67,-364 431.33,-364 426,-358.67 426,-353.33 426,-353.33 426,-342.67 426,-342.67 426,-337.33 431.33,-332 436.67,-332"/>
<text text-anchor="start" x="431" y="-344.3" font-family="Helvetica,sans-Serif" font-size="14.00">Beq</text>
<path fill="none" stroke="black" d="M436.67,-332C436.67,-332 453.33,-332 453.33,-332 458.67,-332 464,-337.33 464,-342.67 464,-342.67 464,-353.33 464,-353.33 464,-358.67 458.67,-364 453.33,-364 453.33,-364 436.67,-364 436.67,-364 431.33,-364 426,-358.67 426,-353.33 426,-353.33 426,-342.67 426,-342.67 426,-337.33 431.33,-332 436.67,-332"/>
</a>
</g>
</g>
<!-- function&#45;0&#45;RegVal -->
<g id="node12" class="node">
<title>function&#45;0&#45;RegVal</title>
<g id="a_node12"><a xlink:title="Inst&#45;0: function&#45;0&#45;RegVal">
<path fill="white" stroke="transparent" d="M495.17,-174C495.17,-174 530.83,-174 530.83,-174 536.17,-174 541.5,-179.33 541.5,-184.67 541.5,-184.67 541.5,-195.33 541.5,-195.33 541.5,-200.67 536.17,-206 530.83,-206 530.83,-206 495.17,-206 495.17,-206 489.83,-206 484.5,-200.67 484.5,-195.33 484.5,-195.33 484.5,-184.67 484.5,-184.67 484.5,-179.33 489.83,-174 495.17,-174"/>
<text text-anchor="start" x="490" y="-186.3" font-family="Helvetica,sans-Serif" font-size="14.00">RegVal</text>
<path fill="none" stroke="black" d="M495.17,-174C495.17,-174 530.83,-174 530.83,-174 536.17,-174 541.5,-179.33 541.5,-184.67 541.5,-184.67 541.5,-195.33 541.5,-195.33 541.5,-200.67 536.17,-206 530.83,-206 530.83,-206 495.17,-206 495.17,-206 489.83,-206 484.5,-200.67 484.5,-195.33 484.5,-195.33 484.5,-184.67 484.5,-184.67 484.5,-179.33 489.83,-174 495.17,-174"/>
</a>
</g>
</g>
<!-- function&#45;1&#45;RegVal -->
<g id="node13" class="node">
<title>function&#45;1&#45;RegVal</title>
<g id="a_node13"><a xlink:title="Inst&#45;1: function&#45;1&#45;RegVal">
<path fill="white" stroke="transparent" d="M735.17,-174C735.17,-174 770.83,-174 770.83,-174 776.17,-174 781.5,-179.33 781.5,-184.67 781.5,-184.67 781.5,-195.33 781.5,-195.33 781.5,-200.67 776.17,-206 770.83,-206 770.83,-206 735.17,-206 735.17,-206 729.83,-206 724.5,-200.67 724.5,-195.33 724.5,-195.33 724.5,-184.67 724.5,-184.67 724.5,-179.33 729.83,-174 735.17,-174"/>
<text text-anchor="start" x="730" y="-186.3" font-family="Helvetica,sans-Serif" font-size="14.00">RegVal</text>
<path fill="none" stroke="black" d="M735.17,-174C735.17,-174 770.83,-174 770.83,-174 776.17,-174 781.5,-179.33 781.5,-184.67 781.5,-184.67 781.5,-195.33 781.5,-195.33 781.5,-200.67 776.17,-206 770.83,-206 770.83,-206 735.17,-206 735.17,-206 729.83,-206 724.5,-200.67 724.5,-195.33 724.5,-195.33 724.5,-184.67 724.5,-184.67 724.5,-179.33 729.83,-174 735.17,-174"/>
</a>
</g>
</g>
<!-- function&#45;1&#45;Beq -->
<g id="node14" class="node">
<title>function&#45;1&#45;Beq</title>
<g id="a_node14"><a xlink:title="Inst&#45;11: function&#45;1&#45;Beq">
<path fill="white" stroke="transparent" d="M494.67,-332C494.67,-332 511.33,-332 511.33,-332 516.67,-332 522,-337.33 522,-342.67 522,-342.67 522,-353.33 522,-353.33 522,-358.67 516.67,-364 511.33,-364 511.33,-364 494.67,-364 494.67,-364 489.33,-364 484,-358.67 484,-353.33 484,-353.33 484,-342.67 484,-342.67 484,-337.33 489.33,-332 494.67,-332"/>
<text text-anchor="start" x="489" y="-344.3" font-family="Helvetica,sans-Serif" font-size="14.00">Beq</text>
<path fill="none" stroke="black" d="M494.67,-332C494.67,-332 511.33,-332 511.33,-332 516.67,-332 522,-337.33 522,-342.67 522,-342.67 522,-353.33 522,-353.33 522,-358.67 516.67,-364 511.33,-364 511.33,-364 494.67,-364 494.67,-364 489.33,-364 484,-358.67 484,-353.33 484,-353.33 484,-342.67 484,-342.67 484,-337.33 489.33,-332 494.67,-332"/>
</a>
</g>
</g>
<!-- function&#45;0&#45;Seq2 -->
<g id="node15" class="node">
<title>function&#45;0&#45;Seq2</title>
<g id="a_node15"><a xlink:title="Inst&#45;11: function&#45;0&#45;Seq2">
<path fill="white" stroke="transparent" d="M374.67,-332C374.67,-332 399.33,-332 399.33,-332 404.67,-332 410,-337.33 410,-342.67 410,-342.67 410,-353.33 410,-353.33 410,-358.67 404.67,-364 399.33,-364 399.33,-364 374.67,-364 374.67,-364 369.33,-364 364,-358.67 364,-353.33 364,-353.33 364,-342.67 364,-342.67 364,-337.33 369.33,-332 374.67,-332"/>
<text text-anchor="start" x="369" y="-344.3" font-family="Helvetica,sans-Serif" font-size="14.00">Seq2</text>
<path fill="none" stroke="black" d="M374.67,-332C374.67,-332 399.33,-332 399.33,-332 404.67,-332 410,-337.33 410,-342.67 410,-342.67 410,-353.33 410,-353.33 410,-358.67 404.67,-364 399.33,-364 399.33,-364 374.67,-364 374.67,-364 369.33,-364 364,-358.67 364,-353.33 364,-353.33 364,-342.67 364,-342.67 364,-337.33 369.33,-332 374.67,-332"/>
</a>
</g>
</g>
<!-- function&#45;0&#45;Bne -->
<g id="node16" class="node">
<title>function&#45;0&#45;Bne</title>
<g id="a_node16"><a xlink:title="Inst&#45;13: function&#45;0&#45;Bne">
<path fill="white" stroke="transparent" d="M535.67,-253C535.67,-253 552.33,-253 552.33,-253 557.67,-253 563,-258.33 563,-263.67 563,-263.67 563,-274.33 563,-274.33 563,-279.67 557.67,-285 552.33,-285 552.33,-285 535.67,-285 535.67,-285 530.33,-285 525,-279.67 525,-274.33 525,-274.33 525,-263.67 525,-263.67 525,-258.33 530.33,-253 535.67,-253"/>
<text text-anchor="start" x="530" y="-265.3" font-family="Helvetica,sans-Serif" font-size="14.00">Bne</text>
<path fill="none" stroke="black" d="M535.67,-253C535.67,-253 552.33,-253 552.33,-253 557.67,-253 563,-258.33 563,-263.67 563,-263.67 563,-274.33 563,-274.33 563,-279.67 557.67,-285 552.33,-285 552.33,-285 535.67,-285 535.67,-285 530.33,-285 525,-279.67 525,-274.33 525,-274.33 525,-263.67 525,-263.67 525,-258.33 530.33,-253 535.67,-253"/>
</a>
</g>
</g>
<!-- function&#45;0&#45;Jal -->
<g id="node17" class="node">
<title>function&#45;0&#45;Jal</title>
<g id="a_node17"><a xlink:title="Inst&#45;14: function&#45;0&#45;Jal">
<path fill="white" stroke="transparent" d="M392.67,-253C392.67,-253 403.33,-253 403.33,-253 408.67,-253 414,-258.33 414,-263.67 414,-263.67 414,-274.33 414,-274.33 414,-279.67 408.67,-285 403.33,-285 403.33,-285 392.67,-285 392.67,-285 387.33,-285 382,-279.67 382,-274.33 382,-274.33 382,-263.67 382,-263.67 382,-258.33 387.33,-253 392.67,-253"/>
<text text-anchor="start" x="389.5" y="-265.3" font-family="Helvetica,sans-Serif" font-size="14.00">Jal</text>
<path fill="none" stroke="black" d="M392.67,-253C392.67,-253 403.33,-253 403.33,-253 408.67,-253 414,-258.33 414,-263.67 414,-263.67 414,-274.33 414,-274.33 414,-279.67 408.67,-285 403.33,-285 403.33,-285 392.67,-285 392.67,-285 387.33,-285 382,-279.67 382,-274.33 382,-274.33 382,-263.67 382,-263.67 382,-258.33 387.33,-253 392.67,-253"/>
</a>
</g>
</g>
<!-- function&#45;0&#45;Lui -->
<g id="node18" class="node">
<title>function&#45;0&#45;Lui</title>
<g id="a_node18"><a xlink:title="Inst&#45;5: function&#45;0&#45;Lui">
<path fill="white" stroke="transparent" d="M878.67,-332C878.67,-332 889.33,-332 889.33,-332 894.67,-332 900,-337.33 900,-342.67 900,-342.67 900,-353.33 900,-353.33 900,-358.67 894.67,-364 889.33,-364 889.33,-364 878.67,-364 878.67,-364 873.33,-364 868,-358.67 868,-353.33 868,-353.33 868,-342.67 868,-342.67 868,-337.33 873.33,-332 878.67,-332"/>
<text text-anchor="start" x="873.5" y="-344.3" font-family="Helvetica,sans-Serif" font-size="14.00">Lui</text>
<path fill="none" stroke="black" d="M878.67,-332C878.67,-332 889.33,-332 889.33,-332 894.67,-332 900,-337.33 900,-342.67 900,-342.67 900,-353.33 900,-353.33 900,-358.67 894.67,-364 889.33,-364 889.33,-364 878.67,-364 878.67,-364 873.33,-364 868,-358.67 868,-353.33 868,-353.33 868,-342.67 868,-342.67 868,-337.33 873.33,-332 878.67,-332"/>
</a>
</g>
</g>
<!-- function&#45;1&#45;Bne -->
<g id="node19" class="node">
<title>function&#45;1&#45;Bne</title>
<g id="a_node19"><a xlink:title="Inst&#45;13: function&#45;1&#45;Bne">
<path fill="white" stroke="transparent" d="M477.67,-253C477.67,-253 494.33,-253 494.33,-253 499.67,-253 505,-258.33 505,-263.67 505,-263.67 505,-274.33 505,-274.33 505,-279.67 499.67,-285 494.33,-285 494.33,-285 477.67,-285 477.67,-285 472.33,-285 467,-279.67 467,-274.33 467,-274.33 467,-263.67 467,-263.67 467,-258.33 472.33,-253 477.67,-253"/>
<text text-anchor="start" x="472" y="-265.3" font-family="Helvetica,sans-Serif" font-size="14.00">Bne</text>
<path fill="none" stroke="black" d="M477.67,-253C477.67,-253 494.33,-253 494.33,-253 499.67,-253 505,-258.33 505,-263.67 505,-263.67 505,-274.33 505,-274.33 505,-279.67 499.67,-285 494.33,-285 494.33,-285 477.67,-285 477.67,-285 472.33,-285 467,-279.67 467,-274.33 467,-274.33 467,-263.67 467,-263.67 467,-258.33 472.33,-253 477.67,-253"/>
</a>
</g>
</g>
<!-- function&#45;1&#45;Seq2 -->
<g id="node20" class="node">
<title>function&#45;1&#45;Seq2</title>
<g id="a_node20"><a xlink:title="Inst&#45;13: function&#45;1&#45;Seq2">
<path fill="white" stroke="transparent" d="M589.67,-253C589.67,-253 614.33,-253 614.33,-253 619.67,-253 625,-258.33 625,-263.67 625,-263.67 625,-274.33 625,-274.33 625,-279.67 619.67,-285 614.33,-285 614.33,-285 589.67,-285 589.67,-285 584.33,-285 579,-279.67 579,-274.33 579,-274.33 579,-263.67 579,-263.67 579,-258.33 584.33,-253 589.67,-253"/>
<text text-anchor="start" x="584" y="-265.3" font-family="Helvetica,sans-Serif" font-size="14.00">Seq2</text>
<path fill="none" stroke="black" d="M589.67,-253C589.67,-253 614.33,-253 614.33,-253 619.67,-253 625,-258.33 625,-263.67 625,-263.67 625,-274.33 625,-274.33 625,-279.67 619.67,-285 614.33,-285 614.33,-285 589.67,-285 589.67,-285 584.33,-285 579,-279.67 579,-274.33 579,-274.33 579,-263.67 579,-263.67 579,-258.33 584.33,-253 589.67,-253"/>
</a>
</g>
</g>
<!-- function&#45;2&#45;Beq -->
<g id="node21" class="node">
<title>function&#45;2&#45;Beq</title>
<g id="a_node21"><a xlink:title="Inst&#45;16: function&#45;2&#45;Beq">
<path fill="white" stroke="transparent" d="M775.67,-253C775.67,-253 792.33,-253 792.33,-253 797.67,-253 803,-258.33 803,-263.67 803,-263.67 803,-274.33 803,-274.33 803,-279.67 797.67,-285 792.33,-285 792.33,-285 775.67,-285 775.67,-285 770.33,-285 765,-279.67 765,-274.33 765,-274.33 765,-263.67 765,-263.67 765,-258.33 770.33,-253 775.67,-253"/>
<text text-anchor="start" x="770" y="-265.3" font-family="Helvetica,sans-Serif" font-size="14.00">Beq</text>
<path fill="none" stroke="black" d="M775.67,-253C775.67,-253 792.33,-253 792.33,-253 797.67,-253 803,-258.33 803,-263.67 803,-263.67 803,-274.33 803,-274.33 803,-279.67 797.67,-285 792.33,-285 792.33,-285 775.67,-285 775.67,-285 770.33,-285 765,-279.67 765,-274.33 765,-274.33 765,-263.67 765,-263.67 765,-258.33 770.33,-253 775.67,-253"/>
</a>
</g>
</g>
<!-- function&#45;1&#45;Jal -->
<g id="node22" class="node">
<title>function&#45;1&#45;Jal</title>
<g id="a_node22"><a xlink:title="Inst&#45;17: function&#45;1&#45;Jal">
<path fill="white" stroke="transparent" d="M630.67,-174C630.67,-174 641.33,-174 641.33,-174 646.67,-174 652,-179.33 652,-184.67 652,-184.67 652,-195.33 652,-195.33 652,-200.67 646.67,-206 641.33,-206 641.33,-206 630.67,-206 630.67,-206 625.33,-206 620,-200.67 620,-195.33 620,-195.33 620,-184.67 620,-184.67 620,-179.33 625.33,-174 630.67,-174"/>
<text text-anchor="start" x="627.5" y="-186.3" font-family="Helvetica,sans-Serif" font-size="14.00">Jal</text>
<path fill="none" stroke="black" d="M630.67,-174C630.67,-174 641.33,-174 641.33,-174 646.67,-174 652,-179.33 652,-184.67 652,-184.67 652,-195.33 652,-195.33 652,-200.67 646.67,-206 641.33,-206 641.33,-206 630.67,-206 630.67,-206 625.33,-206 620,-200.67 620,-195.33 620,-195.33 620,-184.67 620,-184.67 620,-179.33 625.33,-174 630.67,-174"/>
</a>
</g>
</g>
<!-- function&#45;2&#45;RegVal -->
<g id="node23" class="node">
<title>function&#45;2&#45;RegVal</title>
<g id="a_node23"><a xlink:title="Inst&#45;2: function&#45;2&#45;RegVal">
<path fill="white" stroke="transparent" d="M115.17,-253C115.17,-253 150.83,-253 150.83,-253 156.17,-253 161.5,-258.33 161.5,-263.67 161.5,-263.67 161.5,-274.33 161.5,-274.33 161.5,-279.67 156.17,-285 150.83,-285 150.83,-285 115.17,-285 115.17,-285 109.83,-285 104.5,-279.67 104.5,-274.33 104.5,-274.33 104.5,-263.67 104.5,-263.67 104.5,-258.33 109.83,-253 115.17,-253"/>
<text text-anchor="start" x="110" y="-265.3" font-family="Helvetica,sans-Serif" font-size="14.00">RegVal</text>
<path fill="none" stroke="black" d="M115.17,-253C115.17,-253 150.83,-253 150.83,-253 156.17,-253 161.5,-258.33 161.5,-263.67 161.5,-263.67 161.5,-274.33 161.5,-274.33 161.5,-279.67 156.17,-285 150.83,-285 150.83,-285 115.17,-285 115.17,-285 109.83,-285 104.5,-279.67 104.5,-274.33 104.5,-274.33 104.5,-263.67 104.5,-263.67 104.5,-258.33 109.83,-253 115.17,-253"/>
</a>
</g>
</g>
<!-- primitive&#45;String&#45;3 -->
<g id="node24" class="node">
<title>primitive&#45;String&#45;3</title>
<g id="a_node24"><a xlink:title="String&#45;3: primitive&#45;String&#45;3">
<path fill="white" stroke="transparent" d="M124.17,-174C124.17,-174 143.83,-174 143.83,-174 149.17,-174 154.5,-179.33 154.5,-184.67 154.5,-184.67 154.5,-195.33 154.5,-195.33 154.5,-200.67 149.17,-206 143.83,-206 143.83,-206 124.17,-206 124.17,-206 118.83,-206 113.5,-200.67 113.5,-195.33 113.5,-195.33 113.5,-184.67 113.5,-184.67 113.5,-179.33 118.83,-174 124.17,-174"/>
<text text-anchor="start" x="119" y="-186.3" font-family="Helvetica,sans-Serif" font-size="14.00">&quot;a5&quot;</text>
<path fill="none" stroke="black" d="M124.17,-174C124.17,-174 143.83,-174 143.83,-174 149.17,-174 154.5,-179.33 154.5,-184.67 154.5,-184.67 154.5,-195.33 154.5,-195.33 154.5,-200.67 149.17,-206 143.83,-206 143.83,-206 124.17,-206 124.17,-206 118.83,-206 113.5,-200.67 113.5,-195.33 113.5,-195.33 113.5,-184.67 113.5,-184.67 113.5,-179.33 118.83,-174 124.17,-174"/>
</a>
</g>
</g>
<!-- function&#45;3&#45;Beq -->
<g id="node25" class="node">
<title>function&#45;3&#45;Beq</title>
<g id="a_node25"><a xlink:title="Inst&#45;16: function&#45;3&#45;Beq">
<path fill="white" stroke="transparent" d="M717.67,-253C717.67,-253 734.33,-253 734.33,-253 739.67,-253 745,-258.33 745,-263.67 745,-263.67 745,-274.33 745,-274.33 745,-279.67 739.67,-285 734.33,-285 734.33,-285 717.67,-285 717.67,-285 712.33,-285 707,-279.67 707,-274.33 707,-274.33 707,-263.67 707,-263.67 707,-258.33 712.33,-253 717.67,-253"/>
<text text-anchor="start" x="712" y="-265.3" font-family="Helvetica,sans-Serif" font-size="14.00">Beq</text>
<path fill="none" stroke="black" d="M717.67,-253C717.67,-253 734.33,-253 734.33,-253 739.67,-253 745,-258.33 745,-263.67 745,-263.67 745,-274.33 745,-274.33 745,-279.67 739.67,-285 734.33,-285 734.33,-285 717.67,-285 717.67,-285 712.33,-285 707,-279.67 707,-274.33 707,-274.33 707,-263.67 707,-263.67 707,-258.33 712.33,-253 717.67,-253"/>
</a>
</g>
</g>
<!-- function&#45;2&#45;Seq2 -->
<g id="node26" class="node">
<title>function&#45;2&#45;Seq2</title>
<g id="a_node26"><a xlink:title="Inst&#45;16: function&#45;2&#45;Seq2">
<path fill="white" stroke="transparent" d="M655.67,-253C655.67,-253 680.33,-253 680.33,-253 685.67,-253 691,-258.33 691,-263.67 691,-263.67 691,-274.33 691,-274.33 691,-279.67 685.67,-285 680.33,-285 680.33,-285 655.67,-285 655.67,-285 650.33,-285 645,-279.67 645,-274.33 645,-274.33 645,-263.67 645,-263.67 645,-258.33 650.33,-253 655.67,-253"/>
<text text-anchor="start" x="650" y="-265.3" font-family="Helvetica,sans-Serif" font-size="14.00">Seq2</text>
<path fill="none" stroke="black" d="M655.67,-253C655.67,-253 680.33,-253 680.33,-253 685.67,-253 691,-258.33 691,-263.67 691,-263.67 691,-274.33 691,-274.33 691,-279.67 685.67,-285 680.33,-285 680.33,-285 655.67,-285 655.67,-285 650.33,-285 645,-279.67 645,-274.33 645,-274.33 645,-263.67 645,-263.67 645,-258.33 650.33,-253 655.67,-253"/>
</a>
</g>
</g>
<!-- function&#45;0&#45;Addi -->
<g id="node27" class="node">
<title>function&#45;0&#45;Addi</title>
<g id="a_node27"><a xlink:title="Inst&#45;7: function&#45;0&#45;Addi">
<path fill="white" stroke="transparent" d="M191.17,-253C191.17,-253 210.83,-253 210.83,-253 216.17,-253 221.5,-258.33 221.5,-263.67 221.5,-263.67 221.5,-274.33 221.5,-274.33 221.5,-279.67 216.17,-285 210.83,-285 210.83,-285 191.17,-285 191.17,-285 185.83,-285 180.5,-279.67 180.5,-274.33 180.5,-274.33 180.5,-263.67 180.5,-263.67 180.5,-258.33 185.83,-253 191.17,-253"/>
<text text-anchor="start" x="186" y="-265.3" font-family="Helvetica,sans-Serif" font-size="14.00">Addi</text>
<path fill="none" stroke="black" d="M191.17,-253C191.17,-253 210.83,-253 210.83,-253 216.17,-253 221.5,-258.33 221.5,-263.67 221.5,-263.67 221.5,-274.33 221.5,-274.33 221.5,-279.67 216.17,-285 210.83,-285 210.83,-285 191.17,-285 191.17,-285 185.83,-285 180.5,-279.67 180.5,-274.33 180.5,-274.33 180.5,-263.67 180.5,-263.67 180.5,-258.33 185.83,-253 191.17,-253"/>
</a>
</g>
</g>
<!-- function&#45;3&#45;RegVal -->
<g id="node28" class="node">
<title>function&#45;3&#45;RegVal</title>
<g id="a_node28"><a xlink:title="Inst&#45;3: function&#45;3&#45;RegVal">
<path fill="white" stroke="transparent" d="M261.17,-174C261.17,-174 296.83,-174 296.83,-174 302.17,-174 307.5,-179.33 307.5,-184.67 307.5,-184.67 307.5,-195.33 307.5,-195.33 307.5,-200.67 302.17,-206 296.83,-206 296.83,-206 261.17,-206 261.17,-206 255.83,-206 250.5,-200.67 250.5,-195.33 250.5,-195.33 250.5,-184.67 250.5,-184.67 250.5,-179.33 255.83,-174 261.17,-174"/>
<text text-anchor="start" x="256" y="-186.3" font-family="Helvetica,sans-Serif" font-size="14.00">RegVal</text>
<path fill="none" stroke="black" d="M261.17,-174C261.17,-174 296.83,-174 296.83,-174 302.17,-174 307.5,-179.33 307.5,-184.67 307.5,-184.67 307.5,-195.33 307.5,-195.33 307.5,-200.67 302.17,-206 296.83,-206 296.83,-206 261.17,-206 261.17,-206 255.83,-206 250.5,-200.67 250.5,-195.33 250.5,-195.33 250.5,-184.67 250.5,-184.67 250.5,-179.33 255.83,-174 261.17,-174"/>
</a>
</g>
</g>
<!-- primitive&#45;String&#45;2 -->
<g id="node29" class="node">
<title>primitive&#45;String&#45;2</title>
<g id="a_node29"><a xlink:title="String&#45;2: primitive&#45;String&#45;2">
<path fill="white" stroke="transparent" d="M736.17,-95C736.17,-95 771.83,-95 771.83,-95 777.17,-95 782.5,-100.33 782.5,-105.67 782.5,-105.67 782.5,-116.33 782.5,-116.33 782.5,-121.67 777.17,-127 771.83,-127 771.83,-127 736.17,-127 736.17,-127 730.83,-127 725.5,-121.67 725.5,-116.33 725.5,-116.33 725.5,-105.67 725.5,-105.67 725.5,-100.33 730.83,-95 736.17,-95"/>
<text text-anchor="start" x="731" y="-107.3" font-family="Helvetica,sans-Serif" font-size="14.00">&quot;a3_0&quot;</text>
<path fill="none" stroke="black" d="M736.17,-95C736.17,-95 771.83,-95 771.83,-95 777.17,-95 782.5,-100.33 782.5,-105.67 782.5,-105.67 782.5,-116.33 782.5,-116.33 782.5,-121.67 777.17,-127 771.83,-127 771.83,-127 736.17,-127 736.17,-127 730.83,-127 725.5,-121.67 725.5,-116.33 725.5,-116.33 725.5,-105.67 725.5,-105.67 725.5,-100.33 730.83,-95 736.17,-95"/>
</a>
</g>
</g>
<!-- primitive&#45;String&#45;4 -->
<g id="node30" class="node">
<title>primitive&#45;String&#45;4</title>
<g id="a_node30"><a xlink:title="String&#45;4: primitive&#45;String&#45;4">
<path fill="white" stroke="transparent" d="M256.17,-95C256.17,-95 303.83,-95 303.83,-95 309.17,-95 314.5,-100.33 314.5,-105.67 314.5,-105.67 314.5,-116.33 314.5,-116.33 314.5,-121.67 309.17,-127 303.83,-127 303.83,-127 256.17,-127 256.17,-127 250.83,-127 245.5,-121.67 245.5,-116.33 245.5,-116.33 245.5,-105.67 245.5,-105.67 245.5,-100.33 250.83,-95 256.17,-95"/>
<text text-anchor="start" x="251" y="-107.3" font-family="Helvetica,sans-Serif" font-size="14.00">&quot;zero_0&quot;</text>
<path fill="none" stroke="black" d="M256.17,-95C256.17,-95 303.83,-95 303.83,-95 309.17,-95 314.5,-100.33 314.5,-105.67 314.5,-105.67 314.5,-116.33 314.5,-116.33 314.5,-121.67 309.17,-127 303.83,-127 303.83,-127 256.17,-127 256.17,-127 250.83,-127 245.5,-121.67 245.5,-116.33 245.5,-116.33 245.5,-105.67 245.5,-105.67 245.5,-100.33 250.83,-95 256.17,-95"/>
</a>
</g>
</g>
<!-- function&#45;0&#45;Sw -->
<g id="node31" class="node">
<title>function&#45;0&#45;Sw</title>
<g id="a_node31"><a xlink:title="Inst&#45;9: function&#45;0&#45;Sw">
<path fill="white" stroke="transparent" d="M135.67,-332C135.67,-332 146.33,-332 146.33,-332 151.67,-332 157,-337.33 157,-342.67 157,-342.67 157,-353.33 157,-353.33 157,-358.67 151.67,-364 146.33,-364 146.33,-364 135.67,-364 135.67,-364 130.33,-364 125,-358.67 125,-353.33 125,-353.33 125,-342.67 125,-342.67 125,-337.33 130.33,-332 135.67,-332"/>
<text text-anchor="start" x="130.5" y="-344.3" font-family="Helvetica,sans-Serif" font-size="14.00">Sw</text>
<path fill="none" stroke="black" d="M135.67,-332C135.67,-332 146.33,-332 146.33,-332 151.67,-332 157,-337.33 157,-342.67 157,-342.67 157,-353.33 157,-353.33 157,-358.67 151.67,-364 146.33,-364 146.33,-364 135.67,-364 135.67,-364 130.33,-364 125,-358.67 125,-353.33 125,-353.33 125,-342.67 125,-342.67 125,-337.33 130.33,-332 135.67,-332"/>
</a>
</g>
</g>
<!-- primitive&#45;String&#45;1 -->
<g id="node32" class="node">
<title>primitive&#45;String&#45;1</title>
<g id="a_node32"><a xlink:title="String&#45;1: primitive&#45;String&#45;1">
<path fill="white" stroke="transparent" d="M496.17,-95C496.17,-95 531.83,-95 531.83,-95 537.17,-95 542.5,-100.33 542.5,-105.67 542.5,-105.67 542.5,-116.33 542.5,-116.33 542.5,-121.67 537.17,-127 531.83,-127 531.83,-127 496.17,-127 496.17,-127 490.83,-127 485.5,-121.67 485.5,-116.33 485.5,-116.33 485.5,-105.67 485.5,-105.67 485.5,-100.33 490.83,-95 496.17,-95"/>
<text text-anchor="start" x="491" y="-107.3" font-family="Helvetica,sans-Serif" font-size="14.00">&quot;a0_0&quot;</text>
<path fill="none" stroke="black" d="M496.17,-95C496.17,-95 531.83,-95 531.83,-95 537.17,-95 542.5,-100.33 542.5,-105.67 542.5,-105.67 542.5,-116.33 542.5,-116.33 542.5,-121.67 537.17,-127 531.83,-127 531.83,-127 496.17,-127 496.17,-127 490.83,-127 485.5,-121.67 485.5,-116.33 485.5,-116.33 485.5,-105.67 485.5,-105.67 485.5,-100.33 490.83,-95 496.17,-95"/>
</a>
</g>
</g>
</g>
</svg>
