<?xml version="1.0" encoding="UTF-8" standalone="no"?>
<!DOCTYPE svg PUBLIC "-//W3C//DTD SVG 1.1//EN"
 "http://www.w3.org/Graphics/SVG/1.1/DTD/svg11.dtd">
<!-- Generated by graphviz version 2.43.0 (0)
 -->
<!-- Title: %3 Pages: 1 -->
<svg width="1620pt" height="309pt"
 viewBox="0.00 0.00 1620.00 309.00" xmlns="http://www.w3.org/2000/svg" xmlns:xlink="http://www.w3.org/1999/xlink">
<g id="graph0" class="graph" transform="scale(1 1) rotate(0) translate(4 305)">
<title>%3</title>
<polygon fill="white" stroke="#000000" points="-4,4 -4,-305 1616,-305 1616,4 -4,4"/>
<g id="clust1" class="cluster">
<title>outer_cluster_Imm&#45;18</title>
</g>
<g id="clust2" class="cluster">
<title>cluster_Imm&#45;18</title>
<path fill="#ffffb3" stroke="black" stroke-dasharray="5,2" d="M161,-90C161,-90 221,-90 221,-90 227,-90 233,-96 233,-102 233,-102 233,-120 233,-120 233,-126 227,-132 221,-132 221,-132 161,-132 161,-132 155,-132 149,-126 149,-120 149,-120 149,-102 149,-102 149,-96 155,-90 161,-90"/>
</g>
<g id="clust4" class="cluster">
<title>outer_cluster_Imm&#45;28</title>
</g>
<g id="clust5" class="cluster">
<title>cluster_Imm&#45;28</title>
<path fill="#ffffb3" stroke="black" stroke-dasharray="5,2" d="M320,-169C320,-169 364,-169 364,-169 370,-169 376,-175 376,-181 376,-181 376,-199 376,-199 376,-205 370,-211 364,-211 364,-211 320,-211 320,-211 314,-211 308,-205 308,-199 308,-199 308,-181 308,-181 308,-175 314,-169 320,-169"/>
</g>
<g id="clust7" class="cluster">
<title>outer_cluster_Imm&#45;8</title>
</g>
<g id="clust8" class="cluster">
<title>cluster_Imm&#45;8</title>
<path fill="#ffffb3" stroke="black" stroke-dasharray="5,2" d="M539,-169C539,-169 583,-169 583,-169 589,-169 595,-175 595,-181 595,-181 595,-199 595,-199 595,-205 589,-211 583,-211 583,-211 539,-211 539,-211 533,-211 527,-205 527,-199 527,-199 527,-181 527,-181 527,-175 533,-169 539,-169"/>
</g>
<g id="clust10" class="cluster">
<title>outer_cluster_Imm&#45;20</title>
</g>
<g id="clust11" class="cluster">
<title>cluster_Imm&#45;20</title>
<path fill="#ffffb3" stroke="black" stroke-dasharray="5,2" d="M683,-169C683,-169 727,-169 727,-169 733,-169 739,-175 739,-181 739,-181 739,-199 739,-199 739,-205 733,-211 727,-211 727,-211 683,-211 683,-211 677,-211 671,-205 671,-199 671,-199 671,-181 671,-181 671,-175 677,-169 683,-169"/>
</g>
<g id="clust13" class="cluster">
<title>outer_cluster_Imm&#45;10</title>
</g>
<g id="clust14" class="cluster">
<title>cluster_Imm&#45;10</title>
<path fill="#ffffb3" stroke="black" stroke-dasharray="5,2" d="M1193,-169C1193,-169 1253,-169 1253,-169 1259,-169 1265,-175 1265,-181 1265,-181 1265,-199 1265,-199 1265,-205 1259,-211 1253,-211 1253,-211 1193,-211 1193,-211 1187,-211 1181,-205 1181,-199 1181,-199 1181,-181 1181,-181 1181,-175 1187,-169 1193,-169"/>
</g>
<g id="clust16" class="cluster">
<title>outer_cluster_Imm&#45;16</title>
</g>
<g id="clust17" class="cluster">
<title>cluster_Imm&#45;16</title>
<path fill="#ffffb3" stroke="black" stroke-dasharray="5,2" d="M1363,-90C1363,-90 1407,-90 1407,-90 1413,-90 1419,-96 1419,-102 1419,-102 1419,-120 1419,-120 1419,-126 1413,-132 1407,-132 1407,-132 1363,-132 1363,-132 1357,-132 1351,-126 1351,-120 1351,-120 1351,-102 1351,-102 1351,-96 1357,-90 1363,-90"/>
</g>
<g id="clust19" class="cluster">
<title>outer_cluster_Imm&#45;24</title>
</g>
<g id="clust20" class="cluster">
<title>cluster_Imm&#45;24</title>
<path fill="#ffffb3" stroke="black" stroke-dasharray="5,2" d="M55,-169C55,-169 115,-169 115,-169 121,-169 127,-175 127,-181 127,-181 127,-199 127,-199 127,-205 121,-211 115,-211 115,-211 55,-211 55,-211 49,-211 43,-205 43,-199 43,-199 43,-181 43,-181 43,-175 49,-169 55,-169"/>
</g>
<g id="clust22" class="cluster">
<title>outer_cluster_Imm&#45;22</title>
</g>
<g id="clust23" class="cluster">
<title>cluster_Imm&#45;22</title>
<path fill="#ffffb3" stroke="black" stroke-dasharray="5,2" d="M1111,-169C1111,-169 1155,-169 1155,-169 1161,-169 1167,-175 1167,-181 1167,-181 1167,-199 1167,-199 1167,-205 1161,-211 1155,-211 1155,-211 1111,-211 1111,-211 1105,-211 1099,-205 1099,-199 1099,-199 1099,-181 1099,-181 1099,-175 1105,-169 1111,-169"/>
</g>
<g id="clust25" class="cluster">
<title>outer_cluster_Imm&#45;14</title>
</g>
<g id="clust26" class="cluster">
<title>cluster_Imm&#45;14</title>
<path fill="#ffffb3" stroke="black" stroke-dasharray="5,2" d="M967,-169C967,-169 1011,-169 1011,-169 1017,-169 1023,-175 1023,-181 1023,-181 1023,-199 1023,-199 1023,-205 1017,-211 1011,-211 1011,-211 967,-211 967,-211 961,-211 955,-205 955,-199 955,-199 955,-181 955,-181 955,-175 961,-169 967,-169"/>
</g>
<g id="clust28" class="cluster">
<title>outer_cluster_Imm&#45;26</title>
</g>
<g id="clust29" class="cluster">
<title>cluster_Imm&#45;26</title>
<path fill="#ffffb3" stroke="black" stroke-dasharray="5,2" d="M1293,-169C1293,-169 1337,-169 1337,-169 1343,-169 1349,-175 1349,-181 1349,-181 1349,-199 1349,-199 1349,-205 1343,-211 1337,-211 1337,-211 1293,-211 1293,-211 1287,-211 1281,-205 1281,-199 1281,-199 1281,-181 1281,-181 1281,-175 1287,-169 1293,-169"/>
</g>
<g id="clust31" class="cluster">
<title>outer_cluster_Imm&#45;12</title>
</g>
<g id="clust32" class="cluster">
<title>cluster_Imm&#45;12</title>
<path fill="#ffffb3" stroke="black" stroke-dasharray="5,2" d="M1451,-169C1451,-169 1511,-169 1511,-169 1517,-169 1523,-175 1523,-181 1523,-181 1523,-199 1523,-199 1523,-205 1517,-211 1511,-211 1511,-211 1451,-211 1451,-211 1445,-211 1439,-205 1439,-199 1439,-199 1439,-181 1439,-181 1439,-175 1445,-169 1451,-169"/>
</g>
<g id="clust34" class="cluster">
<title>outer_cluster_Imm&#45;30</title>
</g>
<g id="clust35" class="cluster">
<title>cluster_Imm&#45;30</title>
<path fill="#ffffb3" stroke="black" stroke-dasharray="5,2" d="M465,-169C465,-169 509,-169 509,-169 515,-169 521,-175 521,-181 521,-181 521,-199 521,-199 521,-205 515,-211 509,-211 509,-211 465,-211 465,-211 459,-211 453,-205 453,-199 453,-199 453,-181 453,-181 453,-175 459,-169 465,-169"/>
</g>
<g id="clust37" class="cluster">
<title>outer_cluster_Inst&#45;21</title>
</g>
<g id="clust38" class="cluster">
<title>cluster_Inst&#45;21</title>
<path fill="#bebada" stroke="black" stroke-dasharray="5,2" d="M755,-248C755,-248 791,-248 791,-248 797,-248 803,-254 803,-260 803,-260 803,-278 803,-278 803,-284 797,-290 791,-290 791,-290 755,-290 755,-290 749,-290 743,-284 743,-278 743,-278 743,-260 743,-260 743,-254 749,-248 755,-248"/>
</g>
<g id="clust40" class="cluster">
<title>outer_cluster_Inst&#45;3</title>
</g>
<g id="clust41" class="cluster">
<title>cluster_Inst&#45;3</title>
<path fill="#bebada" stroke="black" stroke-dasharray="5,2" d="M1041,-169C1041,-169 1081,-169 1081,-169 1087,-169 1093,-175 1093,-181 1093,-181 1093,-199 1093,-199 1093,-205 1087,-211 1081,-211 1081,-211 1041,-211 1041,-211 1035,-211 1029,-205 1029,-199 1029,-199 1029,-181 1029,-181 1029,-175 1035,-169 1041,-169"/>
</g>
<g id="clust43" class="cluster">
<title>outer_cluster_Inst&#45;5</title>
</g>
<g id="clust44" class="cluster">
<title>cluster_Inst&#45;5</title>
<path fill="#bebada" stroke="black" stroke-dasharray="5,2" d="M757,-169C757,-169 797,-169 797,-169 803,-169 809,-175 809,-181 809,-181 809,-199 809,-199 809,-205 803,-211 797,-211 797,-211 757,-211 757,-211 751,-211 745,-205 745,-199 745,-199 745,-181 745,-181 745,-175 751,-169 757,-169"/>
</g>
<g id="clust46" class="cluster">
<title>outer_cluster_Inst&#45;29</title>
</g>
<g id="clust47" class="cluster">
<title>cluster_Inst&#45;29</title>
<path fill="#bebada" stroke="black" stroke-dasharray="5,2" d="M360,-248C360,-248 396,-248 396,-248 402,-248 408,-254 408,-260 408,-260 408,-278 408,-278 408,-284 402,-290 396,-290 396,-290 360,-290 360,-290 354,-290 348,-284 348,-278 348,-278 348,-260 348,-260 348,-254 354,-248 360,-248"/>
</g>
<g id="clust49" class="cluster">
<title>outer_cluster_Inst&#45;9</title>
</g>
<g id="clust50" class="cluster">
<title>cluster_Inst&#45;9</title>
<path fill="#bebada" stroke="black" stroke-dasharray="5,2" d="M611,-248C611,-248 647,-248 647,-248 653,-248 659,-254 659,-260 659,-260 659,-278 659,-278 659,-284 653,-290 647,-290 647,-290 611,-290 611,-290 605,-290 599,-284 599,-278 599,-278 599,-260 599,-260 599,-254 605,-248 611,-248"/>
</g>
<g id="clust52" class="cluster">
<title>outer_cluster_Inst&#45;1</title>
</g>
<g id="clust53" class="cluster">
<title>cluster_Inst&#45;1</title>
<path fill="#bebada" stroke="black" stroke-dasharray="5,2" d="M1546,-169C1546,-169 1586,-169 1586,-169 1592,-169 1598,-175 1598,-181 1598,-181 1598,-199 1598,-199 1598,-205 1592,-211 1586,-211 1586,-211 1546,-211 1546,-211 1540,-211 1534,-205 1534,-199 1534,-199 1534,-181 1534,-181 1534,-175 1540,-169 1546,-169"/>
</g>
<g id="clust55" class="cluster">
<title>outer_cluster_Inst&#45;2</title>
</g>
<g id="clust56" class="cluster">
<title>cluster_Inst&#45;2</title>
<path fill="#bebada" stroke="black" stroke-dasharray="5,2" d="M613,-169C613,-169 653,-169 653,-169 659,-169 665,-175 665,-181 665,-181 665,-199 665,-199 665,-205 659,-211 653,-211 653,-211 613,-211 613,-211 607,-211 601,-205 601,-199 601,-199 601,-181 601,-181 601,-175 607,-169 613,-169"/>
</g>
<g id="clust58" class="cluster">
<title>outer_cluster_Inst&#45;4</title>
</g>
<g id="clust59" class="cluster">
<title>cluster_Inst&#45;4</title>
<path fill="#bebada" stroke="black" stroke-dasharray="5,2" d="M897,-169C897,-169 937,-169 937,-169 943,-169 949,-175 949,-181 949,-181 949,-199 949,-199 949,-205 943,-211 937,-211 937,-211 897,-211 897,-211 891,-211 885,-205 885,-199 885,-199 885,-181 885,-181 885,-175 891,-169 897,-169"/>
</g>
<g id="clust61" class="cluster">
<title>outer_cluster_Inst&#45;7</title>
</g>
<g id="clust62" class="cluster">
<title>cluster_Inst&#45;7</title>
<path fill="#bebada" stroke="black" stroke-dasharray="5,2" d="M394,-169C394,-169 434,-169 434,-169 440,-169 446,-175 446,-181 446,-181 446,-199 446,-199 446,-205 440,-211 434,-211 434,-211 394,-211 394,-211 388,-211 382,-205 382,-199 382,-199 382,-181 382,-181 382,-175 388,-169 394,-169"/>
</g>
<g id="clust64" class="cluster">
<title>outer_cluster_Inst&#45;0</title>
</g>
<g id="clust65" class="cluster">
<title>cluster_Inst&#45;0</title>
<path fill="#bebada" stroke="black" stroke-dasharray="5,2" d="M250,-169C250,-169 290,-169 290,-169 296,-169 302,-175 302,-181 302,-181 302,-199 302,-199 302,-205 296,-211 290,-211 290,-211 250,-211 250,-211 244,-211 238,-205 238,-199 238,-199 238,-181 238,-181 238,-175 244,-169 250,-169"/>
</g>
<g id="clust67" class="cluster">
<title>outer_cluster_Inst&#45;15</title>
</g>
<g id="clust68" class="cluster">
<title>cluster_Inst&#45;15</title>
<path fill="#bebada" stroke="black" stroke-dasharray="5,2" d="M895,-248C895,-248 931,-248 931,-248 937,-248 943,-254 943,-260 943,-260 943,-278 943,-278 943,-284 937,-290 931,-290 931,-290 895,-290 895,-290 889,-290 883,-284 883,-278 883,-278 883,-260 883,-260 883,-254 889,-248 895,-248"/>
</g>
<g id="clust70" class="cluster">
<title>outer_cluster_Inst&#45;17</title>
</g>
<g id="clust71" class="cluster">
<title>cluster_Inst&#45;17</title>
<path fill="#bebada" stroke="black" stroke-dasharray="5,2" d="M1367,-169C1367,-169 1403,-169 1403,-169 1409,-169 1415,-175 1415,-181 1415,-181 1415,-199 1415,-199 1415,-205 1409,-211 1403,-211 1403,-211 1367,-211 1367,-211 1361,-211 1355,-205 1355,-199 1355,-199 1355,-181 1355,-181 1355,-175 1361,-169 1367,-169"/>
</g>
<g id="clust73" class="cluster">
<title>outer_cluster_Inst&#45;23</title>
</g>
<g id="clust74" class="cluster">
<title>cluster_Inst&#45;23</title>
<path fill="#bebada" stroke="black" stroke-dasharray="5,2" d="M1039,-248C1039,-248 1075,-248 1075,-248 1081,-248 1087,-254 1087,-260 1087,-260 1087,-278 1087,-278 1087,-284 1081,-290 1075,-290 1075,-290 1039,-290 1039,-290 1033,-290 1027,-284 1027,-278 1027,-278 1027,-260 1027,-260 1027,-254 1033,-248 1039,-248"/>
</g>
<g id="clust76" class="cluster">
<title>outer_cluster_Inst&#45;19</title>
</g>
<g id="clust77" class="cluster">
<title>cluster_Inst&#45;19</title>
<path fill="#bebada" stroke="black" stroke-dasharray="5,2" d="M155,-169C155,-169 191,-169 191,-169 197,-169 203,-175 203,-181 203,-181 203,-199 203,-199 203,-205 197,-211 191,-211 191,-211 155,-211 155,-211 149,-211 143,-205 143,-199 143,-199 143,-181 143,-181 143,-175 149,-169 155,-169"/>
</g>
<g id="clust79" class="cluster">
<title>outer_cluster_Inst&#45;25</title>
</g>
<g id="clust80" class="cluster">
<title>cluster_Inst&#45;25</title>
<path fill="#bebada" stroke="black" stroke-dasharray="5,2" d="M115,-248C115,-248 151,-248 151,-248 157,-248 163,-254 163,-260 163,-260 163,-278 163,-278 163,-284 157,-290 151,-290 151,-290 115,-290 115,-290 109,-290 103,-284 103,-278 103,-278 103,-260 103,-260 103,-254 109,-248 115,-248"/>
</g>
<g id="clust82" class="cluster">
<title>outer_cluster_Inst&#45;32</title>
</g>
<g id="clust83" class="cluster">
<title>cluster_Inst&#45;32</title>
<path fill="#bebada" stroke="black" stroke-dasharray="5,2" d="M278,-248C278,-248 314,-248 314,-248 320,-248 326,-254 326,-260 326,-260 326,-278 326,-278 326,-284 320,-290 314,-290 314,-290 278,-290 278,-290 272,-290 266,-284 266,-278 266,-278 266,-260 266,-260 266,-254 272,-248 278,-248"/>
</g>
<g id="clust85" class="cluster">
<title>outer_cluster_Inst&#45;11</title>
</g>
<g id="clust86" class="cluster">
<title>cluster_Inst&#45;11</title>
<path fill="#bebada" stroke="black" stroke-dasharray="5,2" d="M1205,-248C1205,-248 1241,-248 1241,-248 1247,-248 1253,-254 1253,-260 1253,-260 1253,-278 1253,-278 1253,-284 1247,-290 1241,-290 1241,-290 1205,-290 1205,-290 1199,-290 1193,-284 1193,-278 1193,-278 1193,-260 1193,-260 1193,-254 1199,-248 1205,-248"/>
</g>
<g id="clust88" class="cluster">
<title>outer_cluster_Inst&#45;13</title>
</g>
<g id="clust89" class="cluster">
<title>cluster_Inst&#45;13</title>
<path fill="#bebada" stroke="black" stroke-dasharray="5,2" d="M1505,-248C1505,-248 1541,-248 1541,-248 1547,-248 1553,-254 1553,-260 1553,-260 1553,-278 1553,-278 1553,-284 1547,-290 1541,-290 1541,-290 1505,-290 1505,-290 1499,-290 1493,-284 1493,-278 1493,-278 1493,-260 1493,-260 1493,-254 1499,-248 1505,-248"/>
</g>
<g id="clust91" class="cluster">
<title>outer_cluster_Inst&#45;27</title>
</g>
<g id="clust92" class="cluster">
<title>cluster_Inst&#45;27</title>
<path fill="#bebada" stroke="black" stroke-dasharray="5,2" d="M1332,-248C1332,-248 1368,-248 1368,-248 1374,-248 1380,-254 1380,-260 1380,-260 1380,-278 1380,-278 1380,-284 1374,-290 1368,-290 1368,-290 1332,-290 1332,-290 1326,-290 1320,-284 1320,-278 1320,-278 1320,-260 1320,-260 1320,-254 1326,-248 1332,-248"/>
</g>
<g id="clust94" class="cluster">
<title>outer_cluster_Inst&#45;6</title>
</g>
<g id="clust95" class="cluster">
<title>cluster_Inst&#45;6</title>
<path fill="#bebada" stroke="black" stroke-dasharray="5,2" d="M827,-169C827,-169 867,-169 867,-169 873,-169 879,-175 879,-181 879,-181 879,-199 879,-199 879,-205 873,-211 867,-211 867,-211 827,-211 827,-211 821,-211 815,-205 815,-199 815,-199 815,-181 815,-181 815,-175 821,-169 827,-169"/>
</g>
<g id="clust97" class="cluster">
<title>outer_cluster_Inst&#45;31</title>
</g>
<g id="clust98" class="cluster">
<title>cluster_Inst&#45;31</title>
<path fill="#bebada" stroke="black" stroke-dasharray="5,2" d="M432,-248C432,-248 468,-248 468,-248 474,-248 480,-254 480,-260 480,-260 480,-278 480,-278 480,-284 474,-290 468,-290 468,-290 432,-290 432,-290 426,-290 420,-284 420,-278 420,-278 420,-260 420,-260 420,-254 426,-248 432,-248"/>
</g>
<g id="clust100" class="cluster">
<title>outer_cluster_String&#45;10</title>
</g>
<g id="clust101" class="cluster">
<title>cluster_String&#45;10</title>
<path fill="#fb8072" stroke="black" stroke-dasharray="5,2" d="M1437,-90C1437,-90 1523,-90 1523,-90 1529,-90 1535,-96 1535,-102 1535,-102 1535,-120 1535,-120 1535,-126 1529,-132 1523,-132 1523,-132 1437,-132 1437,-132 1431,-132 1425,-126 1425,-120 1425,-120 1425,-102 1425,-102 1425,-96 1431,-90 1437,-90"/>
</g>
<g id="clust103" class="cluster">
<title>outer_cluster_String&#45;12</title>
</g>
<g id="clust104" class="cluster">
<title>cluster_String&#45;12</title>
<path fill="#fb8072" stroke="black" stroke-dasharray="5,2" d="M23,-90C23,-90 131,-90 131,-90 137,-90 143,-96 143,-102 143,-102 143,-120 143,-120 143,-126 137,-132 131,-132 131,-132 23,-132 23,-132 17,-132 11,-126 11,-120 11,-120 11,-102 11,-102 11,-96 17,-90 23,-90"/>
</g>
<g id="clust106" class="cluster">
<title>outer_cluster_String&#45;8</title>
</g>
<g id="clust107" class="cluster">
<title>cluster_String&#45;8</title>
<path fill="#fb8072" stroke="black" stroke-dasharray="5,2" d="M389,-90C389,-90 441,-90 441,-90 447,-90 453,-96 453,-102 453,-102 453,-120 453,-120 453,-126 447,-132 441,-132 441,-132 389,-132 389,-132 383,-132 377,-126 377,-120 377,-120 377,-102 377,-102 377,-96 383,-90 389,-90"/>
</g>
<g id="clust109" class="cluster">
<title>outer_cluster_String&#45;11</title>
</g>
<g id="clust110" class="cluster">
<title>cluster_String&#45;11</title>
<path fill="#fb8072" stroke="black" stroke-dasharray="5,2" d="M138,-11C138,-11 246,-11 246,-11 252,-11 258,-17 258,-23 258,-23 258,-41 258,-41 258,-47 252,-53 246,-53 246,-53 138,-53 138,-53 132,-53 126,-47 126,-41 126,-41 126,-23 126,-23 126,-17 132,-11 138,-11"/>
</g>
<g id="clust112" class="cluster">
<title>outer_cluster_String&#45;2</title>
</g>
<g id="clust113" class="cluster">
<title>cluster_String&#45;2</title>
<path fill="#fb8072" stroke="black" stroke-dasharray="5,2" d="M1553,-90C1553,-90 1589,-90 1589,-90 1595,-90 1601,-96 1601,-102 1601,-102 1601,-120 1601,-120 1601,-126 1595,-132 1589,-132 1589,-132 1553,-132 1553,-132 1547,-132 1541,-126 1541,-120 1541,-120 1541,-102 1541,-102 1541,-96 1547,-90 1553,-90"/>
</g>
<g id="clust115" class="cluster">
<title>outer_cluster_String&#45;3</title>
</g>
<g id="clust116" class="cluster">
<title>cluster_String&#45;3</title>
<path fill="#fb8072" stroke="black" stroke-dasharray="5,2" d="M610,-90C610,-90 658,-90 658,-90 664,-90 670,-96 670,-102 670,-102 670,-120 670,-120 670,-126 664,-132 658,-132 658,-132 610,-132 610,-132 604,-132 598,-126 598,-120 598,-120 598,-102 598,-102 598,-96 604,-90 610,-90"/>
</g>
<g id="clust118" class="cluster">
<title>outer_cluster_String&#45;4</title>
</g>
<g id="clust119" class="cluster">
<title>cluster_String&#45;4</title>
<path fill="#fb8072" stroke="black" stroke-dasharray="5,2" d="M1037,-90C1037,-90 1085,-90 1085,-90 1091,-90 1097,-96 1097,-102 1097,-102 1097,-120 1097,-120 1097,-126 1091,-132 1085,-132 1085,-132 1037,-132 1037,-132 1031,-132 1025,-126 1025,-120 1025,-120 1025,-102 1025,-102 1025,-96 1031,-90 1037,-90"/>
</g>
<g id="clust121" class="cluster">
<title>outer_cluster_String&#45;5</title>
</g>
<g id="clust122" class="cluster">
<title>cluster_String&#45;5</title>
<path fill="#fb8072" stroke="black" stroke-dasharray="5,2" d="M899,-90C899,-90 937,-90 937,-90 943,-90 949,-96 949,-102 949,-102 949,-120 949,-120 949,-126 943,-132 937,-132 937,-132 899,-132 899,-132 893,-132 887,-126 887,-120 887,-120 887,-102 887,-102 887,-96 893,-90 899,-90"/>
</g>
<g id="clust124" class="cluster">
<title>outer_cluster_String&#45;7</title>
</g>
<g id="clust125" class="cluster">
<title>cluster_String&#45;7</title>
<path fill="#fb8072" stroke="black" stroke-dasharray="5,2" d="M829,-90C829,-90 867,-90 867,-90 873,-90 879,-96 879,-102 879,-102 879,-120 879,-120 879,-126 873,-132 867,-132 867,-132 829,-132 829,-132 823,-132 817,-126 817,-120 817,-120 817,-102 817,-102 817,-96 823,-90 829,-90"/>
</g>
<g id="clust127" class="cluster">
<title>outer_cluster_String&#45;6</title>
</g>
<g id="clust128" class="cluster">
<title>cluster_String&#45;6</title>
<path fill="#fb8072" stroke="black" stroke-dasharray="5,2" d="M759,-90C759,-90 797,-90 797,-90 803,-90 809,-96 809,-102 809,-102 809,-120 809,-120 809,-126 803,-132 797,-132 797,-132 759,-132 759,-132 753,-132 747,-126 747,-120 747,-120 747,-102 747,-102 747,-96 753,-90 759,-90"/>
</g>
<g id="clust130" class="cluster">
<title>outer_cluster_String&#45;1</title>
</g>
<g id="clust131" class="cluster">
<title>cluster_String&#45;1</title>
<path fill="#fb8072" stroke="black" stroke-dasharray="5,2" d="M251,-90C251,-90 291,-90 291,-90 297,-90 303,-96 303,-102 303,-102 303,-120 303,-120 303,-126 297,-132 291,-132 291,-132 251,-132 251,-132 245,-132 239,-126 239,-120 239,-120 239,-102 239,-102 239,-96 245,-90 251,-90"/>
</g>
<g id="clust133" class="cluster">
<title>outer_cluster_String&#45;9</title>
</g>
<g id="clust134" class="cluster">
<title>cluster_String&#45;9</title>
<path fill="#fb8072" stroke="black" stroke-dasharray="5,2" d="M1181,-90C1181,-90 1267,-90 1267,-90 1273,-90 1279,-96 1279,-102 1279,-102 1279,-120 1279,-120 1279,-126 1273,-132 1267,-132 1267,-132 1181,-132 1181,-132 1175,-132 1169,-126 1169,-120 1169,-120 1169,-102 1169,-102 1169,-96 1175,-90 1181,-90"/>
</g>
<g id="clust136" class="cluster">
<title>outer_cluster_i64&#45;400</title>
</g>
<g id="clust137" class="cluster">
<title>cluster_i64&#45;400</title>
<path fill="#80b1d3" stroke="black" stroke-dasharray="5,2" d="M471,-90C471,-90 507,-90 507,-90 513,-90 519,-96 519,-102 519,-102 519,-120 519,-120 519,-126 513,-132 507,-132 507,-132 471,-132 471,-132 465,-132 459,-126 459,-120 459,-120 459,-102 459,-102 459,-96 465,-90 471,-90"/>
</g>
<g id="clust139" class="cluster">
<title>outer_cluster_i64&#45;28</title>
</g>
<g id="clust140" class="cluster">
<title>cluster_i64&#45;28</title>
<path fill="#80b1d3" stroke="black" stroke-dasharray="5,2" d="M1115,-90C1115,-90 1151,-90 1151,-90 1157,-90 1163,-96 1163,-102 1163,-102 1163,-120 1163,-120 1163,-126 1157,-132 1151,-132 1151,-132 1115,-132 1115,-132 1109,-132 1103,-126 1103,-120 1103,-120 1103,-102 1103,-102 1103,-96 1109,-90 1115,-90"/>
</g>
<g id="clust142" class="cluster">
<title>outer_cluster_i64&#45;32</title>
</g>
<g id="clust143" class="cluster">
<title>cluster_i64&#45;32</title>
<path fill="#80b1d3" stroke="black" stroke-dasharray="5,2" d="M543,-90C543,-90 579,-90 579,-90 585,-90 591,-96 591,-102 591,-102 591,-120 591,-120 591,-126 585,-132 579,-132 579,-132 543,-132 543,-132 537,-132 531,-126 531,-120 531,-120 531,-102 531,-102 531,-96 537,-90 543,-90"/>
</g>
<g id="clust145" class="cluster">
<title>outer_cluster_i64&#45;2</title>
</g>
<g id="clust146" class="cluster">
<title>cluster_i64&#45;2</title>
<path fill="#80b1d3" stroke="black" stroke-dasharray="5,2" d="M1367,-11C1367,-11 1403,-11 1403,-11 1409,-11 1415,-17 1415,-23 1415,-23 1415,-41 1415,-41 1415,-47 1409,-53 1403,-53 1403,-53 1367,-53 1367,-53 1361,-53 1355,-47 1355,-41 1355,-41 1355,-23 1355,-23 1355,-17 1361,-11 1367,-11"/>
</g>
<g id="clust148" class="cluster">
<title>outer_cluster_i64&#45;44</title>
</g>
<g id="clust149" class="cluster">
<title>cluster_i64&#45;44</title>
<path fill="#80b1d3" stroke="black" stroke-dasharray="5,2" d="M688,-90C688,-90 724,-90 724,-90 730,-90 736,-96 736,-102 736,-102 736,-120 736,-120 736,-126 730,-132 724,-132 724,-132 688,-132 688,-132 682,-132 676,-126 676,-120 676,-120 676,-102 676,-102 676,-96 682,-90 688,-90"/>
</g>
<g id="clust151" class="cluster">
<title>outer_cluster_i64&#45;1807</title>
</g>
<g id="clust152" class="cluster">
<title>cluster_i64&#45;1807</title>
<path fill="#80b1d3" stroke="black" stroke-dasharray="5,2" d="M1297,-90C1297,-90 1333,-90 1333,-90 1339,-90 1345,-96 1345,-102 1345,-102 1345,-120 1345,-120 1345,-126 1339,-132 1333,-132 1333,-132 1297,-132 1297,-132 1291,-132 1285,-126 1285,-120 1285,-120 1285,-102 1285,-102 1285,-96 1291,-90 1297,-90"/>
</g>
<g id="clust154" class="cluster">
<title>outer_cluster_i64&#45;48</title>
</g>
<g id="clust155" class="cluster">
<title>cluster_i64&#45;48</title>
<path fill="#80b1d3" stroke="black" stroke-dasharray="5,2" d="M971,-90C971,-90 1007,-90 1007,-90 1013,-90 1019,-96 1019,-102 1019,-102 1019,-120 1019,-120 1019,-126 1013,-132 1007,-132 1007,-132 971,-132 971,-132 965,-132 959,-126 959,-120 959,-120 959,-102 959,-102 959,-96 965,-90 971,-90"/>
</g>
<g id="clust157" class="cluster">
<title>outer_cluster_i64&#45;0</title>
</g>
<g id="clust158" class="cluster">
<title>cluster_i64&#45;0</title>
<path fill="#80b1d3" stroke="black" stroke-dasharray="5,2" d="M323,-90C323,-90 359,-90 359,-90 365,-90 371,-96 371,-102 371,-102 371,-120 371,-120 371,-126 365,-132 359,-132 359,-132 323,-132 323,-132 317,-132 311,-126 311,-120 311,-120 311,-102 311,-102 311,-96 317,-90 323,-90"/>
</g>
<!-- function&#45;2&#45;ImmLabel&#45;&gt;primitive&#45;String&#45;11 -->
<g id="edge1" class="edge">
<title>function&#45;2&#45;ImmLabel:s&#45;&gt;primitive&#45;String&#45;11</title>
<path fill="none" stroke="black" d="M192,-95C192,-81.84 192,-67.11 192,-55.3"/>
<polygon fill="black" stroke="black" points="193.75,-58 192,-53 190.25,-58 193.75,-58"/>
</g>
<!-- function&#45;6&#45;ImmVal&#45;&gt;primitive&#45;i64&#45;0 -->
<g id="edge2" class="edge">
<title>function&#45;6&#45;ImmVal:s&#45;&gt;primitive&#45;i64&#45;0</title>
<path fill="none" stroke="black" d="M342,-174C342,-160.84 341.77,-146.1 341.53,-134.3"/>
<polygon fill="black" stroke="black" points="343.41,-136.91 341.42,-132 339.91,-137.08 343.41,-136.91"/>
</g>
<!-- function&#45;0&#45;ImmVal&#45;&gt;primitive&#45;i64&#45;32 -->
<g id="edge3" class="edge">
<title>function&#45;0&#45;ImmVal:s&#45;&gt;primitive&#45;i64&#45;32</title>
<path fill="none" stroke="black" d="M561,-174C561,-160.84 561,-146.11 561,-134.3"/>
<polygon fill="black" stroke="black" points="562.75,-137 561,-132 559.25,-137 562.75,-137"/>
</g>
<!-- function&#45;3&#45;ImmVal&#45;&gt;primitive&#45;i64&#45;44 -->
<g id="edge4" class="edge">
<title>function&#45;3&#45;ImmVal:s&#45;&gt;primitive&#45;i64&#45;44</title>
<path fill="none" stroke="black" d="M705,-174C705,-160.84 705.23,-146.1 705.47,-134.3"/>
<polygon fill="black" stroke="black" points="707.09,-137.08 705.58,-132 703.59,-136.91 707.09,-137.08"/>
</g>
<!-- function&#45;0&#45;ImmLabel&#45;&gt;primitive&#45;String&#45;9 -->
<g id="edge5" class="edge">
<title>function&#45;0&#45;ImmLabel:s&#45;&gt;primitive&#45;String&#45;9</title>
<path fill="none" stroke="black" d="M1224,-174C1224,-160.84 1224,-146.11 1224,-134.3"/>
<polygon fill="black" stroke="black" points="1225.75,-137 1224,-132 1222.25,-137 1225.75,-137"/>
</g>
<!-- function&#45;2&#45;ImmVal&#45;&gt;primitive&#45;i64&#45;2 -->
<g id="edge6" class="edge">
<title>function&#45;2&#45;ImmVal:s&#45;&gt;primitive&#45;i64&#45;2</title>
<path fill="none" stroke="black" d="M1385,-95C1385,-81.84 1385,-67.11 1385,-55.3"/>
<polygon fill="black" stroke="black" points="1386.75,-58 1385,-53 1383.25,-58 1386.75,-58"/>
</g>
<!-- function&#45;3&#45;ImmLabel&#45;&gt;primitive&#45;String&#45;12 -->
<g id="edge7" class="edge">
<title>function&#45;3&#45;ImmLabel:s&#45;&gt;primitive&#45;String&#45;12</title>
<path fill="none" stroke="black" d="M86,-174C86,-160.7 83.95,-145.96 81.8,-134.19"/>
<polygon fill="black" stroke="black" points="84.46,-135.84 80.82,-132 81.27,-137.28 84.46,-135.84"/>
</g>
<!-- function&#45;4&#45;ImmVal&#45;&gt;primitive&#45;i64&#45;28 -->
<g id="edge8" class="edge">
<title>function&#45;4&#45;ImmVal:s&#45;&gt;primitive&#45;i64&#45;28</title>
<path fill="none" stroke="black" d="M1133,-174C1133,-160.84 1133,-146.11 1133,-134.3"/>
<polygon fill="black" stroke="black" points="1134.75,-137 1133,-132 1131.25,-137 1134.75,-137"/>
</g>
<!-- function&#45;1&#45;ImmVal&#45;&gt;primitive&#45;i64&#45;48 -->
<g id="edge9" class="edge">
<title>function&#45;1&#45;ImmVal:s&#45;&gt;primitive&#45;i64&#45;48</title>
<path fill="none" stroke="black" d="M989,-174C989,-160.84 989,-146.11 989,-134.3"/>
<polygon fill="black" stroke="black" points="990.75,-137 989,-132 987.25,-137 990.75,-137"/>
</g>
<!-- function&#45;5&#45;ImmVal&#45;&gt;primitive&#45;i64&#45;1807 -->
<g id="edge10" class="edge">
<title>function&#45;5&#45;ImmVal:s&#45;&gt;primitive&#45;i64&#45;1807</title>
<path fill="none" stroke="black" d="M1315,-174C1315,-160.84 1315,-146.11 1315,-134.3"/>
<polygon fill="black" stroke="black" points="1316.75,-137 1315,-132 1313.25,-137 1316.75,-137"/>
</g>
<!-- function&#45;1&#45;ImmLabel&#45;&gt;primitive&#45;String&#45;10 -->
<g id="edge11" class="edge">
<title>function&#45;1&#45;ImmLabel:s&#45;&gt;primitive&#45;String&#45;10</title>
<path fill="none" stroke="black" d="M1482,-174C1482,-160.83 1481.54,-146.1 1481.07,-134.3"/>
<polygon fill="black" stroke="black" points="1483.06,-136.81 1480.85,-132 1479.58,-137.14 1483.06,-136.81"/>
</g>
<!-- function&#45;7&#45;ImmVal&#45;&gt;primitive&#45;i64&#45;400 -->
<g id="edge12" class="edge">
<title>function&#45;7&#45;ImmVal:s&#45;&gt;primitive&#45;i64&#45;400</title>
<path fill="none" stroke="black" d="M487,-174C487,-160.83 487.46,-146.1 487.93,-134.3"/>
<polygon fill="black" stroke="black" points="489.42,-137.14 488.15,-132 485.94,-136.81 489.42,-137.14"/>
</g>
<!-- function&#45;2&#45;Sw&#45;&gt;function&#45;3&#45;ImmVal -->
<g id="edge15" class="edge">
<title>function&#45;2&#45;Sw:s&#45;&gt;function&#45;3&#45;ImmVal</title>
<path fill="none" stroke="black" d="M784,-253C784,-246.52 757.33,-226.64 734.98,-211.12"/>
<polygon fill="black" stroke="black" points="739.02,-209.78 733.87,-211 738.66,-213.26 739.02,-209.78"/>
</g>
<!-- function&#45;2&#45;Sw&#45;&gt;function&#45;6&#45;RegVal -->
<g id="edge13" class="edge">
<title>function&#45;2&#45;Sw:s&#45;&gt;function&#45;6&#45;RegVal</title>
<path fill="none" stroke="black" d="M765,-253C765,-246.36 792.68,-226.51 815.88,-211.04"/>
<polygon fill="black" stroke="black" points="811.42,-213.39 816.15,-211 810.96,-209.92 811.42,-213.39"/>
</g>
<!-- function&#45;2&#45;Sw&#45;&gt;function&#45;5&#45;RegVal -->
<g id="edge14" class="edge">
<title>function&#45;2&#45;Sw:s&#45;&gt;function&#45;5&#45;RegVal</title>
<path fill="none" stroke="black" d="M777,-253C777,-239.84 777,-225.11 777,-213.3"/>
<polygon fill="black" stroke="black" points="778.75,-216 777,-211 775.25,-216 778.75,-216"/>
</g>
<!-- function&#45;6&#45;RegVal&#45;&gt;primitive&#45;String&#45;7 -->
<g id="edge45" class="edge">
<title>function&#45;6&#45;RegVal:s&#45;&gt;primitive&#45;String&#45;7</title>
<path fill="none" stroke="black" d="M848,-174C848,-160.84 848,-146.11 848,-134.3"/>
<polygon fill="black" stroke="black" points="849.75,-137 848,-132 846.25,-137 849.75,-137"/>
</g>
<!-- function&#45;5&#45;RegVal&#45;&gt;primitive&#45;String&#45;6 -->
<g id="edge17" class="edge">
<title>function&#45;5&#45;RegVal:s&#45;&gt;primitive&#45;String&#45;6</title>
<path fill="none" stroke="black" d="M778,-174C778,-160.84 778,-146.11 778,-134.3"/>
<polygon fill="black" stroke="black" points="779.75,-137 778,-132 776.25,-137 779.75,-137"/>
</g>
<!-- function&#45;3&#45;RegVal&#45;&gt;primitive&#45;String&#45;4 -->
<g id="edge16" class="edge">
<title>function&#45;3&#45;RegVal:s&#45;&gt;primitive&#45;String&#45;4</title>
<path fill="none" stroke="black" d="M1062,-174C1062,-160.84 1061.77,-146.1 1061.53,-134.3"/>
<polygon fill="black" stroke="black" points="1063.41,-136.91 1061.42,-132 1059.91,-137.08 1063.41,-136.91"/>
</g>
<!-- function&#45;2&#45;Addi&#45;&gt;function&#45;6&#45;ImmVal -->
<g id="edge19" class="edge">
<title>function&#45;2&#45;Addi:s&#45;&gt;function&#45;6&#45;ImmVal</title>
<path fill="none" stroke="black" d="M388,-253C388,-237.1 378.13,-222.63 367.53,-211.67"/>
<polygon fill="black" stroke="black" points="371.21,-211.32 365.92,-211 369.86,-214.54 371.21,-211.32"/>
</g>
<!-- function&#45;2&#45;Addi&#45;&gt;function&#45;7&#45;RegVal -->
<g id="edge18" class="edge">
<title>function&#45;2&#45;Addi:s&#45;&gt;function&#45;7&#45;RegVal</title>
<path fill="none" stroke="black" d="M368,-253C368,-237.1 377.87,-222.63 388.47,-211.67"/>
<polygon fill="black" stroke="black" points="386.14,-214.54 390.08,-211 384.79,-211.32 386.14,-214.54"/>
</g>
<!-- function&#45;7&#45;RegVal&#45;&gt;primitive&#45;String&#45;8 -->
<g id="edge26" class="edge">
<title>function&#45;7&#45;RegVal:s&#45;&gt;primitive&#45;String&#45;8</title>
<path fill="none" stroke="black" d="M415,-174C415,-160.84 415,-146.11 415,-134.3"/>
<polygon fill="black" stroke="black" points="416.75,-137 415,-132 413.25,-137 416.75,-137"/>
</g>
<!-- function&#45;0&#45;Sw&#45;&gt;function&#45;0&#45;ImmVal -->
<g id="edge22" class="edge">
<title>function&#45;0&#45;Sw:s&#45;&gt;function&#45;0&#45;ImmVal</title>
<path fill="none" stroke="black" d="M640,-253C640,-246.52 613.33,-226.64 590.98,-211.12"/>
<polygon fill="black" stroke="black" points="595.02,-209.78 589.87,-211 594.66,-213.26 595.02,-209.78"/>
</g>
<!-- function&#45;0&#45;Sw&#45;&gt;function&#45;6&#45;RegVal -->
<g id="edge20" class="edge">
<title>function&#45;0&#45;Sw:s&#45;&gt;function&#45;6&#45;RegVal</title>
<path fill="none" stroke="black" d="M621,-253C621,-210.12 770.17,-229.9 810,-214 810.69,-213.72 811.39,-213.43 812.08,-213.13"/>
<polygon fill="black" stroke="black" points="812.87,-214.7 816.66,-211 811.39,-211.53 812.87,-214.7"/>
</g>
<!-- function&#45;0&#45;Sw&#45;&gt;function&#45;2&#45;RegVal -->
<g id="edge21" class="edge">
<title>function&#45;0&#45;Sw:s&#45;&gt;function&#45;2&#45;RegVal</title>
<path fill="none" stroke="black" d="M633,-253C633,-239.84 633,-225.11 633,-213.3"/>
<polygon fill="black" stroke="black" points="634.75,-216 633,-211 631.25,-216 634.75,-216"/>
</g>
<!-- function&#45;2&#45;RegVal&#45;&gt;primitive&#45;String&#45;3 -->
<g id="edge24" class="edge">
<title>function&#45;2&#45;RegVal:s&#45;&gt;primitive&#45;String&#45;3</title>
<path fill="none" stroke="black" d="M634,-174C634,-160.84 634,-146.11 634,-134.3"/>
<polygon fill="black" stroke="black" points="635.75,-137 634,-132 632.25,-137 635.75,-137"/>
</g>
<!-- function&#45;1&#45;RegVal&#45;&gt;primitive&#45;String&#45;2 -->
<g id="edge23" class="edge">
<title>function&#45;1&#45;RegVal:s&#45;&gt;primitive&#45;String&#45;2</title>
<path fill="none" stroke="black" d="M1567,-174C1567,-160.81 1567.91,-146.08 1568.87,-134.28"/>
<polygon fill="black" stroke="black" points="1570.08,-137.24 1569.3,-132 1566.64,-136.58 1570.08,-137.24"/>
</g>
<!-- function&#45;4&#45;RegVal&#45;&gt;primitive&#45;String&#45;5 -->
<g id="edge25" class="edge">
<title>function&#45;4&#45;RegVal:s&#45;&gt;primitive&#45;String&#45;5</title>
<path fill="none" stroke="black" d="M918,-174C918,-160.84 918,-146.11 918,-134.3"/>
<polygon fill="black" stroke="black" points="919.75,-137 918,-132 916.25,-137 919.75,-137"/>
</g>
<!-- function&#45;0&#45;RegVal&#45;&gt;primitive&#45;String&#45;1 -->
<g id="edge27" class="edge">
<title>function&#45;0&#45;RegVal:s&#45;&gt;primitive&#45;String&#45;1</title>
<path fill="none" stroke="black" d="M271,-174C271,-160.84 271,-146.11 271,-134.3"/>
<polygon fill="black" stroke="black" points="272.75,-137 271,-132 269.25,-137 272.75,-137"/>
</g>
<!-- function&#45;1&#45;Sw&#45;&gt;function&#45;1&#45;ImmVal -->
<g id="edge30" class="edge">
<title>function&#45;1&#45;Sw:s&#45;&gt;function&#45;1&#45;ImmVal</title>
<path fill="none" stroke="black" d="M924,-253C924,-242.22 942.97,-224.99 960.41,-211.43"/>
<polygon fill="black" stroke="black" points="957.54,-214.16 961.8,-211 956.5,-210.82 957.54,-214.16"/>
</g>
<!-- function&#45;1&#45;Sw&#45;&gt;function&#45;6&#45;RegVal -->
<g id="edge28" class="edge">
<title>function&#45;1&#45;Sw:s&#45;&gt;function&#45;6&#45;RegVal</title>
<path fill="none" stroke="black" d="M905,-253C905,-235.77 892.9,-221.35 879.76,-210.76"/>
<polygon fill="black" stroke="black" points="883.2,-212.82 879,-209.6 880.28,-214.74 883.2,-212.82"/>
</g>
<!-- function&#45;1&#45;Sw&#45;&gt;function&#45;4&#45;RegVal -->
<g id="edge29" class="edge">
<title>function&#45;1&#45;Sw:s&#45;&gt;function&#45;4&#45;RegVal</title>
<path fill="none" stroke="black" d="M917,-253C917,-239.84 917,-225.11 917,-213.3"/>
<polygon fill="black" stroke="black" points="918.75,-216 917,-211 915.25,-216 918.75,-216"/>
</g>
<!-- function&#45;1&#45;Lui&#45;&gt;function&#45;2&#45;ImmVal -->
<g id="edge31" class="edge">
<title>function&#45;1&#45;Lui:s&#45;&gt;function&#45;2&#45;ImmVal</title>
<path fill="none" stroke="black" d="M1385,-174C1385,-160.84 1385,-146.11 1385,-134.3"/>
<polygon fill="black" stroke="black" points="1386.75,-137 1385,-132 1383.25,-137 1386.75,-137"/>
</g>
<!-- function&#45;3&#45;Sw&#45;&gt;function&#45;4&#45;ImmVal -->
<g id="edge34" class="edge">
<title>function&#45;3&#45;Sw:s&#45;&gt;function&#45;4&#45;ImmVal</title>
<path fill="none" stroke="black" d="M1068,-253C1068,-242.22 1086.97,-224.99 1104.41,-211.43"/>
<polygon fill="black" stroke="black" points="1101.54,-214.16 1105.8,-211 1100.5,-210.82 1101.54,-214.16"/>
</g>
<!-- function&#45;3&#45;Sw&#45;&gt;function&#45;6&#45;RegVal -->
<g id="edge32" class="edge">
<title>function&#45;3&#45;Sw:s&#45;&gt;function&#45;6&#45;RegVal</title>
<path fill="none" stroke="black" d="M1049,-253C1049,-177.65 953.58,-242.94 884,-214 883.46,-213.78 882.92,-213.54 882.38,-213.31"/>
<polygon fill="black" stroke="black" points="882.79,-211.56 877.52,-211 881.29,-214.72 882.79,-211.56"/>
</g>
<!-- function&#45;3&#45;Sw&#45;&gt;function&#45;3&#45;RegVal -->
<g id="edge33" class="edge">
<title>function&#45;3&#45;Sw:s&#45;&gt;function&#45;3&#45;RegVal</title>
<path fill="none" stroke="black" d="M1061,-253C1061,-239.84 1061,-225.11 1061,-213.3"/>
<polygon fill="black" stroke="black" points="1062.75,-216 1061,-211 1059.25,-216 1062.75,-216"/>
</g>
<!-- function&#45;2&#45;Lui&#45;&gt;function&#45;2&#45;ImmLabel -->
<g id="edge35" class="edge">
<title>function&#45;2&#45;Lui:s&#45;&gt;function&#45;2&#45;ImmLabel</title>
<path fill="none" stroke="black" d="M173,-174C173,-160.37 177.06,-145.69 181.33,-134.05"/>
<polygon fill="black" stroke="black" points="181.9,-137.29 182.16,-132 178.66,-135.98 181.9,-137.29"/>
</g>
<!-- function&#45;0&#45;Addi&#45;&gt;function&#45;3&#45;ImmLabel -->
<g id="edge37" class="edge">
<title>function&#45;0&#45;Addi:s&#45;&gt;function&#45;3&#45;ImmLabel</title>
<path fill="none" stroke="black" d="M143,-253C143,-236.04 131.28,-221.79 118.37,-211.25"/>
<polygon fill="black" stroke="black" points="122.61,-210.5 117.34,-211 121.78,-213.9 122.61,-210.5"/>
</g>
<!-- function&#45;0&#45;Addi&#45;&gt;function&#45;2&#45;Lui -->
<g id="edge36" class="edge">
<title>function&#45;0&#45;Addi:s&#45;&gt;function&#45;2&#45;Lui</title>
<path fill="none" stroke="black" d="M123,-253C123,-236.85 133.41,-222.53 144.73,-211.73"/>
<polygon fill="black" stroke="black" points="142.92,-215.58 145.59,-211 140.65,-212.91 142.92,-215.58"/>
</g>
<!-- function&#45;4&#45;Addi&#45;&gt;function&#45;6&#45;ImmVal -->
<g id="edge39" class="edge">
<title>function&#45;4&#45;Addi:s&#45;&gt;function&#45;6&#45;ImmVal</title>
<path fill="none" stroke="black" d="M306,-253C306,-238.03 313.94,-223.45 322.36,-212.19"/>
<polygon fill="black" stroke="black" points="321.34,-215.85 323.48,-211 318.78,-213.46 321.34,-215.85"/>
</g>
<!-- function&#45;4&#45;Addi&#45;&gt;function&#45;0&#45;RegVal -->
<g id="edge38" class="edge">
<title>function&#45;4&#45;Addi:s&#45;&gt;function&#45;0&#45;RegVal</title>
<path fill="none" stroke="black" d="M286,-253C286,-239.38 282.34,-224.6 278.52,-212.89"/>
<polygon fill="black" stroke="black" points="281.48,-213.63 276.88,-211 278.83,-215.92 281.48,-213.63"/>
</g>
<!-- function&#45;0&#45;Lui&#45;&gt;function&#45;0&#45;ImmLabel -->
<g id="edge40" class="edge">
<title>function&#45;0&#45;Lui:s&#45;&gt;function&#45;0&#45;ImmLabel</title>
<path fill="none" stroke="black" d="M1223,-253C1223,-239.84 1223,-225.11 1223,-213.3"/>
<polygon fill="black" stroke="black" points="1224.75,-216 1223,-211 1221.25,-216 1224.75,-216"/>
</g>
<!-- function&#45;0&#45;Lw&#45;&gt;function&#45;1&#45;ImmLabel -->
<g id="edge42" class="edge">
<title>function&#45;0&#45;Lw:s&#45;&gt;function&#45;1&#45;ImmLabel</title>
<path fill="none" stroke="black" d="M1531,-253C1531,-236.85 1520.59,-222.53 1509.27,-211.73"/>
<polygon fill="black" stroke="black" points="1513.35,-212.91 1508.41,-211 1511.08,-215.58 1513.35,-212.91"/>
</g>
<!-- function&#45;0&#45;Lw&#45;&gt;function&#45;1&#45;RegVal -->
<g id="edge41" class="edge">
<title>function&#45;0&#45;Lw:s&#45;&gt;function&#45;1&#45;RegVal</title>
<path fill="none" stroke="black" d="M1515,-253C1515,-236.72 1525.62,-222.39 1537.16,-211.62"/>
<polygon fill="black" stroke="black" points="1534.89,-215.22 1538.1,-211 1532.96,-212.3 1534.89,-215.22"/>
</g>
<!-- function&#45;1&#45;Addi&#45;&gt;function&#45;5&#45;ImmVal -->
<g id="edge44" class="edge">
<title>function&#45;1&#45;Addi:s&#45;&gt;function&#45;5&#45;ImmVal</title>
<path fill="none" stroke="black" d="M1360,-253C1360,-237.23 1350.34,-222.76 1339.98,-211.78"/>
<polygon fill="black" stroke="black" points="1343.7,-211.71 1338.45,-211 1342.11,-214.83 1343.7,-211.71"/>
</g>
<!-- function&#45;1&#45;Addi&#45;&gt;function&#45;1&#45;Lui -->
<g id="edge43" class="edge">
<title>function&#45;1&#45;Addi:s&#45;&gt;function&#45;1&#45;Lui</title>
<path fill="none" stroke="black" d="M1340,-253C1340,-237.23 1349.66,-222.76 1360.02,-211.78"/>
<polygon fill="black" stroke="black" points="1357.89,-214.83 1361.55,-211 1356.3,-211.71 1357.89,-214.83"/>
</g>
<!-- function&#45;3&#45;Addi&#45;&gt;function&#45;7&#45;ImmVal -->
<g id="edge47" class="edge">
<title>function&#45;3&#45;Addi:s&#45;&gt;function&#45;7&#45;ImmVal</title>
<path fill="none" stroke="black" d="M460,-253C460,-238.7 466.11,-223.97 472.52,-212.45"/>
<polygon fill="black" stroke="black" points="471.62,-215.69 474.08,-211 469.23,-213.14 471.62,-215.69"/>
</g>
<!-- function&#45;3&#45;Addi&#45;&gt;function&#45;7&#45;RegVal -->
<g id="edge46" class="edge">
<title>function&#45;3&#45;Addi:s&#45;&gt;function&#45;7&#45;RegVal</title>
<path fill="none" stroke="black" d="M440,-253C440,-238.78 434.11,-224.05 427.94,-212.52"/>
<polygon fill="black" stroke="black" points="431.2,-213.4 426.48,-211 428.68,-215.82 431.2,-213.4"/>
</g>
<!-- function&#45;2&#45;ImmLabel -->
<g id="node1" class="node">
<title>function&#45;2&#45;ImmLabel</title>
<g id="a_node1"><a xlink:title="Imm&#45;18: function&#45;2&#45;ImmLabel">
<path fill="white" stroke="transparent" d="M162.17,-95C162.17,-95 219.83,-95 219.83,-95 225.17,-95 230.5,-100.33 230.5,-105.67 230.5,-105.67 230.5,-116.33 230.5,-116.33 230.5,-121.67 225.17,-127 219.83,-127 219.83,-127 162.17,-127 162.17,-127 156.83,-127 151.5,-121.67 151.5,-116.33 151.5,-116.33 151.5,-105.67 151.5,-105.67 151.5,-100.33 156.83,-95 162.17,-95"/>
<text text-anchor="start" x="157" y="-107.3" font-family="Helvetica,sans-Serif" font-size="14.00">ImmLabel</text>
<path fill="none" stroke="black" d="M162.17,-95C162.17,-95 219.83,-95 219.83,-95 225.17,-95 230.5,-100.33 230.5,-105.67 230.5,-105.67 230.5,-116.33 230.5,-116.33 230.5,-121.67 225.17,-127 219.83,-127 219.83,-127 162.17,-127 162.17,-127 156.83,-127 151.5,-121.67 151.5,-116.33 151.5,-116.33 151.5,-105.67 151.5,-105.67 151.5,-100.33 156.83,-95 162.17,-95"/>
</a>
</g>
</g>
<!-- primitive&#45;String&#45;11 -->
<g id="node2" class="node">
<title>primitive&#45;String&#45;11</title>
<g id="a_node2"><a xlink:title="String&#45;11: primitive&#45;String&#45;11">
<path fill="white" stroke="transparent" d="M139.67,-16C139.67,-16 244.33,-16 244.33,-16 249.67,-16 255,-21.33 255,-26.67 255,-26.67 255,-37.33 255,-37.33 255,-42.67 249.67,-48 244.33,-48 244.33,-48 139.67,-48 139.67,-48 134.33,-48 129,-42.67 129,-37.33 129,-37.33 129,-26.67 129,-26.67 129,-21.33 134.33,-16 139.67,-16"/>
<text text-anchor="start" x="134" y="-28.3" font-family="Helvetica,sans-Serif" font-size="14.00">&quot;%hi(AdjMatrix)&quot;</text>
<path fill="none" stroke="black" d="M139.67,-16C139.67,-16 244.33,-16 244.33,-16 249.67,-16 255,-21.33 255,-26.67 255,-26.67 255,-37.33 255,-37.33 255,-42.67 249.67,-48 244.33,-48 244.33,-48 139.67,-48 139.67,-48 134.33,-48 129,-42.67 129,-37.33 129,-37.33 129,-26.67 129,-26.67 129,-21.33 134.33,-16 139.67,-16"/>
</a>
</g>
</g>
<!-- function&#45;6&#45;ImmVal -->
<g id="node3" class="node">
<title>function&#45;6&#45;ImmVal</title>
<g id="a_node3"><a xlink:title="Imm&#45;28: function&#45;6&#45;ImmVal">
<path fill="white" stroke="transparent" d="M321.67,-174C321.67,-174 362.33,-174 362.33,-174 367.67,-174 373,-179.33 373,-184.67 373,-184.67 373,-195.33 373,-195.33 373,-200.67 367.67,-206 362.33,-206 362.33,-206 321.67,-206 321.67,-206 316.33,-206 311,-200.67 311,-195.33 311,-195.33 311,-184.67 311,-184.67 311,-179.33 316.33,-174 321.67,-174"/>
<text text-anchor="start" x="316" y="-186.3" font-family="Helvetica,sans-Serif" font-size="14.00">ImmVal</text>
<path fill="none" stroke="black" d="M321.67,-174C321.67,-174 362.33,-174 362.33,-174 367.67,-174 373,-179.33 373,-184.67 373,-184.67 373,-195.33 373,-195.33 373,-200.67 367.67,-206 362.33,-206 362.33,-206 321.67,-206 321.67,-206 316.33,-206 311,-200.67 311,-195.33 311,-195.33 311,-184.67 311,-184.67 311,-179.33 316.33,-174 321.67,-174"/>
</a>
</g>
</g>
<!-- primitive&#45;i64&#45;0 -->
<g id="node4" class="node">
<title>primitive&#45;i64&#45;0</title>
<g id="a_node4"><a xlink:title="i64&#45;0: primitive&#45;i64&#45;0">
<path fill="white" stroke="transparent" d="M335.67,-95C335.67,-95 346.33,-95 346.33,-95 351.67,-95 357,-100.33 357,-105.67 357,-105.67 357,-116.33 357,-116.33 357,-121.67 351.67,-127 346.33,-127 346.33,-127 335.67,-127 335.67,-127 330.33,-127 325,-121.67 325,-116.33 325,-116.33 325,-105.67 325,-105.67 325,-100.33 330.33,-95 335.67,-95"/>
<text text-anchor="start" x="336" y="-107.3" font-family="Helvetica,sans-Serif" font-size="14.00">0</text>
<path fill="none" stroke="black" d="M335.67,-95C335.67,-95 346.33,-95 346.33,-95 351.67,-95 357,-100.33 357,-105.67 357,-105.67 357,-116.33 357,-116.33 357,-121.67 351.67,-127 346.33,-127 346.33,-127 335.67,-127 335.67,-127 330.33,-127 325,-121.67 325,-116.33 325,-116.33 325,-105.67 325,-105.67 325,-100.33 330.33,-95 335.67,-95"/>
</a>
</g>
</g>
<!-- function&#45;0&#45;ImmVal -->
<g id="node5" class="node">
<title>function&#45;0&#45;ImmVal</title>
<g id="a_node5"><a xlink:title="Imm&#45;8: function&#45;0&#45;ImmVal">
<path fill="white" stroke="transparent" d="M540.67,-174C540.67,-174 581.33,-174 581.33,-174 586.67,-174 592,-179.33 592,-184.67 592,-184.67 592,-195.33 592,-195.33 592,-200.67 586.67,-206 581.33,-206 581.33,-206 540.67,-206 540.67,-206 535.33,-206 530,-200.67 530,-195.33 530,-195.33 530,-184.67 530,-184.67 530,-179.33 535.33,-174 540.67,-174"/>
<text text-anchor="start" x="535" y="-186.3" font-family="Helvetica,sans-Serif" font-size="14.00">ImmVal</text>
<path fill="none" stroke="black" d="M540.67,-174C540.67,-174 581.33,-174 581.33,-174 586.67,-174 592,-179.33 592,-184.67 592,-184.67 592,-195.33 592,-195.33 592,-200.67 586.67,-206 581.33,-206 581.33,-206 540.67,-206 540.67,-206 535.33,-206 530,-200.67 530,-195.33 530,-195.33 530,-184.67 530,-184.67 530,-179.33 535.33,-174 540.67,-174"/>
</a>
</g>
</g>
<!-- primitive&#45;i64&#45;32 -->
<g id="node6" class="node">
<title>primitive&#45;i64&#45;32</title>
<g id="a_node6"><a xlink:title="i64&#45;32: primitive&#45;i64&#45;32">
<path fill="white" stroke="transparent" d="M555.67,-95C555.67,-95 566.33,-95 566.33,-95 571.67,-95 577,-100.33 577,-105.67 577,-105.67 577,-116.33 577,-116.33 577,-121.67 571.67,-127 566.33,-127 566.33,-127 555.67,-127 555.67,-127 550.33,-127 545,-121.67 545,-116.33 545,-116.33 545,-105.67 545,-105.67 545,-100.33 550.33,-95 555.67,-95"/>
<text text-anchor="start" x="551.5" y="-107.3" font-family="Helvetica,sans-Serif" font-size="14.00">32</text>
<path fill="none" stroke="black" d="M555.67,-95C555.67,-95 566.33,-95 566.33,-95 571.67,-95 577,-100.33 577,-105.67 577,-105.67 577,-116.33 577,-116.33 577,-121.67 571.67,-127 566.33,-127 566.33,-127 555.67,-127 555.67,-127 550.33,-127 545,-121.67 545,-116.33 545,-116.33 545,-105.67 545,-105.67 545,-100.33 550.33,-95 555.67,-95"/>
</a>
</g>
</g>
<!-- function&#45;3&#45;ImmVal -->
<g id="node7" class="node">
<title>function&#45;3&#45;ImmVal</title>
<g id="a_node7"><a xlink:title="Imm&#45;20: function&#45;3&#45;ImmVal">
<path fill="white" stroke="transparent" d="M684.67,-174C684.67,-174 725.33,-174 725.33,-174 730.67,-174 736,-179.33 736,-184.67 736,-184.67 736,-195.33 736,-195.33 736,-200.67 730.67,-206 725.33,-206 725.33,-206 684.67,-206 684.67,-206 679.33,-206 674,-200.67 674,-195.33 674,-195.33 674,-184.67 674,-184.67 674,-179.33 679.33,-174 684.67,-174"/>
<text text-anchor="start" x="679" y="-186.3" font-family="Helvetica,sans-Serif" font-size="14.00">ImmVal</text>
<path fill="none" stroke="black" d="M684.67,-174C684.67,-174 725.33,-174 725.33,-174 730.67,-174 736,-179.33 736,-184.67 736,-184.67 736,-195.33 736,-195.33 736,-200.67 730.67,-206 725.33,-206 725.33,-206 684.67,-206 684.67,-206 679.33,-206 674,-200.67 674,-195.33 674,-195.33 674,-184.67 674,-184.67 674,-179.33 679.33,-174 684.67,-174"/>
</a>
</g>
</g>
<!-- primitive&#45;i64&#45;44 -->
<g id="node8" class="node">
<title>primitive&#45;i64&#45;44</title>
<g id="a_node8"><a xlink:title="i64&#45;44: primitive&#45;i64&#45;44">
<path fill="white" stroke="transparent" d="M700.67,-95C700.67,-95 711.33,-95 711.33,-95 716.67,-95 722,-100.33 722,-105.67 722,-105.67 722,-116.33 722,-116.33 722,-121.67 716.67,-127 711.33,-127 711.33,-127 700.67,-127 700.67,-127 695.33,-127 690,-121.67 690,-116.33 690,-116.33 690,-105.67 690,-105.67 690,-100.33 695.33,-95 700.67,-95"/>
<text text-anchor="start" x="696.5" y="-107.3" font-family="Helvetica,sans-Serif" font-size="14.00">44</text>
<path fill="none" stroke="black" d="M700.67,-95C700.67,-95 711.33,-95 711.33,-95 716.67,-95 722,-100.33 722,-105.67 722,-105.67 722,-116.33 722,-116.33 722,-121.67 716.67,-127 711.33,-127 711.33,-127 700.67,-127 700.67,-127 695.33,-127 690,-121.67 690,-116.33 690,-116.33 690,-105.67 690,-105.67 690,-100.33 695.33,-95 700.67,-95"/>
</a>
</g>
</g>
<!-- function&#45;0&#45;ImmLabel -->
<g id="node9" class="node">
<title>function&#45;0&#45;ImmLabel</title>
<g id="a_node9"><a xlink:title="Imm&#45;10: function&#45;0&#45;ImmLabel">
<path fill="white" stroke="transparent" d="M1194.17,-174C1194.17,-174 1251.83,-174 1251.83,-174 1257.17,-174 1262.5,-179.33 1262.5,-184.67 1262.5,-184.67 1262.5,-195.33 1262.5,-195.33 1262.5,-200.67 1257.17,-206 1251.83,-206 1251.83,-206 1194.17,-206 1194.17,-206 1188.83,-206 1183.5,-200.67 1183.5,-195.33 1183.5,-195.33 1183.5,-184.67 1183.5,-184.67 1183.5,-179.33 1188.83,-174 1194.17,-174"/>
<text text-anchor="start" x="1189" y="-186.3" font-family="Helvetica,sans-Serif" font-size="14.00">ImmLabel</text>
<path fill="none" stroke="black" d="M1194.17,-174C1194.17,-174 1251.83,-174 1251.83,-174 1257.17,-174 1262.5,-179.33 1262.5,-184.67 1262.5,-184.67 1262.5,-195.33 1262.5,-195.33 1262.5,-200.67 1257.17,-206 1251.83,-206 1251.83,-206 1194.17,-206 1194.17,-206 1188.83,-206 1183.5,-200.67 1183.5,-195.33 1183.5,-195.33 1183.5,-184.67 1183.5,-184.67 1183.5,-179.33 1188.83,-174 1194.17,-174"/>
</a>
</g>
</g>
<!-- primitive&#45;String&#45;9 -->
<g id="node10" class="node">
<title>primitive&#45;String&#45;9</title>
<g id="a_node10"><a xlink:title="String&#45;9: primitive&#45;String&#45;9">
<path fill="white" stroke="transparent" d="M1182.67,-95C1182.67,-95 1265.33,-95 1265.33,-95 1270.67,-95 1276,-100.33 1276,-105.67 1276,-105.67 1276,-116.33 1276,-116.33 1276,-121.67 1270.67,-127 1265.33,-127 1265.33,-127 1182.67,-127 1182.67,-127 1177.33,-127 1172,-121.67 1172,-116.33 1172,-116.33 1172,-105.67 1172,-105.67 1172,-100.33 1177.33,-95 1182.67,-95"/>
<text text-anchor="start" x="1177" y="-107.3" font-family="Helvetica,sans-Serif" font-size="14.00">&quot;%hi(qFront)&quot;</text>
<path fill="none" stroke="black" d="M1182.67,-95C1182.67,-95 1265.33,-95 1265.33,-95 1270.67,-95 1276,-100.33 1276,-105.67 1276,-105.67 1276,-116.33 1276,-116.33 1276,-121.67 1270.67,-127 1265.33,-127 1265.33,-127 1182.67,-127 1182.67,-127 1177.33,-127 1172,-121.67 1172,-116.33 1172,-116.33 1172,-105.67 1172,-105.67 1172,-100.33 1177.33,-95 1182.67,-95"/>
</a>
</g>
</g>
<!-- function&#45;2&#45;ImmVal -->
<g id="node11" class="node">
<title>function&#45;2&#45;ImmVal</title>
<g id="a_node11"><a xlink:title="Imm&#45;16: function&#45;2&#45;ImmVal">
<path fill="white" stroke="transparent" d="M1364.67,-95C1364.67,-95 1405.33,-95 1405.33,-95 1410.67,-95 1416,-100.33 1416,-105.67 1416,-105.67 1416,-116.33 1416,-116.33 1416,-121.67 1410.67,-127 1405.33,-127 1405.33,-127 1364.67,-127 1364.67,-127 1359.33,-127 1354,-121.67 1354,-116.33 1354,-116.33 1354,-105.67 1354,-105.67 1354,-100.33 1359.33,-95 1364.67,-95"/>
<text text-anchor="start" x="1359" y="-107.3" font-family="Helvetica,sans-Serif" font-size="14.00">ImmVal</text>
<path fill="none" stroke="black" d="M1364.67,-95C1364.67,-95 1405.33,-95 1405.33,-95 1410.67,-95 1416,-100.33 1416,-105.67 1416,-105.67 1416,-116.33 1416,-116.33 1416,-121.67 1410.67,-127 1405.33,-127 1405.33,-127 1364.67,-127 1364.67,-127 1359.33,-127 1354,-121.67 1354,-116.33 1354,-116.33 1354,-105.67 1354,-105.67 1354,-100.33 1359.33,-95 1364.67,-95"/>
</a>
</g>
</g>
<!-- primitive&#45;i64&#45;2 -->
<g id="node12" class="node">
<title>primitive&#45;i64&#45;2</title>
<g id="a_node12"><a xlink:title="i64&#45;2: primitive&#45;i64&#45;2">
<path fill="white" stroke="transparent" d="M1379.67,-16C1379.67,-16 1390.33,-16 1390.33,-16 1395.67,-16 1401,-21.33 1401,-26.67 1401,-26.67 1401,-37.33 1401,-37.33 1401,-42.67 1395.67,-48 1390.33,-48 1390.33,-48 1379.67,-48 1379.67,-48 1374.33,-48 1369,-42.67 1369,-37.33 1369,-37.33 1369,-26.67 1369,-26.67 1369,-21.33 1374.33,-16 1379.67,-16"/>
<text text-anchor="start" x="1380" y="-28.3" font-family="Helvetica,sans-Serif" font-size="14.00">2</text>
<path fill="none" stroke="black" d="M1379.67,-16C1379.67,-16 1390.33,-16 1390.33,-16 1395.67,-16 1401,-21.33 1401,-26.67 1401,-26.67 1401,-37.33 1401,-37.33 1401,-42.67 1395.67,-48 1390.33,-48 1390.33,-48 1379.67,-48 1379.67,-48 1374.33,-48 1369,-42.67 1369,-37.33 1369,-37.33 1369,-26.67 1369,-26.67 1369,-21.33 1374.33,-16 1379.67,-16"/>
</a>
</g>
</g>
<!-- function&#45;3&#45;ImmLabel -->
<g id="node13" class="node">
<title>function&#45;3&#45;ImmLabel</title>
<g id="a_node13"><a xlink:title="Imm&#45;24: function&#45;3&#45;ImmLabel">
<path fill="white" stroke="transparent" d="M56.17,-174C56.17,-174 113.83,-174 113.83,-174 119.17,-174 124.5,-179.33 124.5,-184.67 124.5,-184.67 124.5,-195.33 124.5,-195.33 124.5,-200.67 119.17,-206 113.83,-206 113.83,-206 56.17,-206 56.17,-206 50.83,-206 45.5,-200.67 45.5,-195.33 45.5,-195.33 45.5,-184.67 45.5,-184.67 45.5,-179.33 50.83,-174 56.17,-174"/>
<text text-anchor="start" x="51" y="-186.3" font-family="Helvetica,sans-Serif" font-size="14.00">ImmLabel</text>
<path fill="none" stroke="black" d="M56.17,-174C56.17,-174 113.83,-174 113.83,-174 119.17,-174 124.5,-179.33 124.5,-184.67 124.5,-184.67 124.5,-195.33 124.5,-195.33 124.5,-200.67 119.17,-206 113.83,-206 113.83,-206 56.17,-206 56.17,-206 50.83,-206 45.5,-200.67 45.5,-195.33 45.5,-195.33 45.5,-184.67 45.5,-184.67 45.5,-179.33 50.83,-174 56.17,-174"/>
</a>
</g>
</g>
<!-- primitive&#45;String&#45;12 -->
<g id="node14" class="node">
<title>primitive&#45;String&#45;12</title>
<g id="a_node14"><a xlink:title="String&#45;12: primitive&#45;String&#45;12">
<path fill="white" stroke="transparent" d="M25.17,-95C25.17,-95 128.83,-95 128.83,-95 134.17,-95 139.5,-100.33 139.5,-105.67 139.5,-105.67 139.5,-116.33 139.5,-116.33 139.5,-121.67 134.17,-127 128.83,-127 128.83,-127 25.17,-127 25.17,-127 19.83,-127 14.5,-121.67 14.5,-116.33 14.5,-116.33 14.5,-105.67 14.5,-105.67 14.5,-100.33 19.83,-95 25.17,-95"/>
<text text-anchor="start" x="20" y="-107.3" font-family="Helvetica,sans-Serif" font-size="14.00">&quot;%lo(AdjMatrix)&quot;</text>
<path fill="none" stroke="black" d="M25.17,-95C25.17,-95 128.83,-95 128.83,-95 134.17,-95 139.5,-100.33 139.5,-105.67 139.5,-105.67 139.5,-116.33 139.5,-116.33 139.5,-121.67 134.17,-127 128.83,-127 128.83,-127 25.17,-127 25.17,-127 19.83,-127 14.5,-121.67 14.5,-116.33 14.5,-116.33 14.5,-105.67 14.5,-105.67 14.5,-100.33 19.83,-95 25.17,-95"/>
</a>
</g>
</g>
<!-- function&#45;4&#45;ImmVal -->
<g id="node15" class="node">
<title>function&#45;4&#45;ImmVal</title>
<g id="a_node15"><a xlink:title="Imm&#45;22: function&#45;4&#45;ImmVal">
<path fill="white" stroke="transparent" d="M1112.67,-174C1112.67,-174 1153.33,-174 1153.33,-174 1158.67,-174 1164,-179.33 1164,-184.67 1164,-184.67 1164,-195.33 1164,-195.33 1164,-200.67 1158.67,-206 1153.33,-206 1153.33,-206 1112.67,-206 1112.67,-206 1107.33,-206 1102,-200.67 1102,-195.33 1102,-195.33 1102,-184.67 1102,-184.67 1102,-179.33 1107.33,-174 1112.67,-174"/>
<text text-anchor="start" x="1107" y="-186.3" font-family="Helvetica,sans-Serif" font-size="14.00">ImmVal</text>
<path fill="none" stroke="black" d="M1112.67,-174C1112.67,-174 1153.33,-174 1153.33,-174 1158.67,-174 1164,-179.33 1164,-184.67 1164,-184.67 1164,-195.33 1164,-195.33 1164,-200.67 1158.67,-206 1153.33,-206 1153.33,-206 1112.67,-206 1112.67,-206 1107.33,-206 1102,-200.67 1102,-195.33 1102,-195.33 1102,-184.67 1102,-184.67 1102,-179.33 1107.33,-174 1112.67,-174"/>
</a>
</g>
</g>
<!-- primitive&#45;i64&#45;28 -->
<g id="node16" class="node">
<title>primitive&#45;i64&#45;28</title>
<g id="a_node16"><a xlink:title="i64&#45;28: primitive&#45;i64&#45;28">
<path fill="white" stroke="transparent" d="M1127.67,-95C1127.67,-95 1138.33,-95 1138.33,-95 1143.67,-95 1149,-100.33 1149,-105.67 1149,-105.67 1149,-116.33 1149,-116.33 1149,-121.67 1143.67,-127 1138.33,-127 1138.33,-127 1127.67,-127 1127.67,-127 1122.33,-127 1117,-121.67 1117,-116.33 1117,-116.33 1117,-105.67 1117,-105.67 1117,-100.33 1122.33,-95 1127.67,-95"/>
<text text-anchor="start" x="1123.5" y="-107.3" font-family="Helvetica,sans-Serif" font-size="14.00">28</text>
<path fill="none" stroke="black" d="M1127.67,-95C1127.67,-95 1138.33,-95 1138.33,-95 1143.67,-95 1149,-100.33 1149,-105.67 1149,-105.67 1149,-116.33 1149,-116.33 1149,-121.67 1143.67,-127 1138.33,-127 1138.33,-127 1127.67,-127 1127.67,-127 1122.33,-127 1117,-121.67 1117,-116.33 1117,-116.33 1117,-105.67 1117,-105.67 1117,-100.33 1122.33,-95 1127.67,-95"/>
</a>
</g>
</g>
<!-- function&#45;1&#45;ImmVal -->
<g id="node17" class="node">
<title>function&#45;1&#45;ImmVal</title>
<g id="a_node17"><a xlink:title="Imm&#45;14: function&#45;1&#45;ImmVal">
<path fill="white" stroke="transparent" d="M968.67,-174C968.67,-174 1009.33,-174 1009.33,-174 1014.67,-174 1020,-179.33 1020,-184.67 1020,-184.67 1020,-195.33 1020,-195.33 1020,-200.67 1014.67,-206 1009.33,-206 1009.33,-206 968.67,-206 968.67,-206 963.33,-206 958,-200.67 958,-195.33 958,-195.33 958,-184.67 958,-184.67 958,-179.33 963.33,-174 968.67,-174"/>
<text text-anchor="start" x="963" y="-186.3" font-family="Helvetica,sans-Serif" font-size="14.00">ImmVal</text>
<path fill="none" stroke="black" d="M968.67,-174C968.67,-174 1009.33,-174 1009.33,-174 1014.67,-174 1020,-179.33 1020,-184.67 1020,-184.67 1020,-195.33 1020,-195.33 1020,-200.67 1014.67,-206 1009.33,-206 1009.33,-206 968.67,-206 968.67,-206 963.33,-206 958,-200.67 958,-195.33 958,-195.33 958,-184.67 958,-184.67 958,-179.33 963.33,-174 968.67,-174"/>
</a>
</g>
</g>
<!-- primitive&#45;i64&#45;48 -->
<g id="node18" class="node">
<title>primitive&#45;i64&#45;48</title>
<g id="a_node18"><a xlink:title="i64&#45;48: primitive&#45;i64&#45;48">
<path fill="white" stroke="transparent" d="M983.67,-95C983.67,-95 994.33,-95 994.33,-95 999.67,-95 1005,-100.33 1005,-105.67 1005,-105.67 1005,-116.33 1005,-116.33 1005,-121.67 999.67,-127 994.33,-127 994.33,-127 983.67,-127 983.67,-127 978.33,-127 973,-121.67 973,-116.33 973,-116.33 973,-105.67 973,-105.67 973,-100.33 978.33,-95 983.67,-95"/>
<text text-anchor="start" x="979.5" y="-107.3" font-family="Helvetica,sans-Serif" font-size="14.00">48</text>
<path fill="none" stroke="black" d="M983.67,-95C983.67,-95 994.33,-95 994.33,-95 999.67,-95 1005,-100.33 1005,-105.67 1005,-105.67 1005,-116.33 1005,-116.33 1005,-121.67 999.67,-127 994.33,-127 994.33,-127 983.67,-127 983.67,-127 978.33,-127 973,-121.67 973,-116.33 973,-116.33 973,-105.67 973,-105.67 973,-100.33 978.33,-95 983.67,-95"/>
</a>
</g>
</g>
<!-- function&#45;5&#45;ImmVal -->
<g id="node19" class="node">
<title>function&#45;5&#45;ImmVal</title>
<g id="a_node19"><a xlink:title="Imm&#45;26: function&#45;5&#45;ImmVal">
<path fill="white" stroke="transparent" d="M1294.67,-174C1294.67,-174 1335.33,-174 1335.33,-174 1340.67,-174 1346,-179.33 1346,-184.67 1346,-184.67 1346,-195.33 1346,-195.33 1346,-200.67 1340.67,-206 1335.33,-206 1335.33,-206 1294.67,-206 1294.67,-206 1289.33,-206 1284,-200.67 1284,-195.33 1284,-195.33 1284,-184.67 1284,-184.67 1284,-179.33 1289.33,-174 1294.67,-174"/>
<text text-anchor="start" x="1289" y="-186.3" font-family="Helvetica,sans-Serif" font-size="14.00">ImmVal</text>
<path fill="none" stroke="black" d="M1294.67,-174C1294.67,-174 1335.33,-174 1335.33,-174 1340.67,-174 1346,-179.33 1346,-184.67 1346,-184.67 1346,-195.33 1346,-195.33 1346,-200.67 1340.67,-206 1335.33,-206 1335.33,-206 1294.67,-206 1294.67,-206 1289.33,-206 1284,-200.67 1284,-195.33 1284,-195.33 1284,-184.67 1284,-184.67 1284,-179.33 1289.33,-174 1294.67,-174"/>
</a>
</g>
</g>
<!-- primitive&#45;i64&#45;1807 -->
<g id="node20" class="node">
<title>primitive&#45;i64&#45;1807</title>
<g id="a_node20"><a xlink:title="i64&#45;1807: primitive&#45;i64&#45;1807">
<path fill="white" stroke="transparent" d="M1302.17,-95C1302.17,-95 1327.83,-95 1327.83,-95 1333.17,-95 1338.5,-100.33 1338.5,-105.67 1338.5,-105.67 1338.5,-116.33 1338.5,-116.33 1338.5,-121.67 1333.17,-127 1327.83,-127 1327.83,-127 1302.17,-127 1302.17,-127 1296.83,-127 1291.5,-121.67 1291.5,-116.33 1291.5,-116.33 1291.5,-105.67 1291.5,-105.67 1291.5,-100.33 1296.83,-95 1302.17,-95"/>
<text text-anchor="start" x="1297" y="-107.3" font-family="Helvetica,sans-Serif" font-size="14.00">1807</text>
<path fill="none" stroke="black" d="M1302.17,-95C1302.17,-95 1327.83,-95 1327.83,-95 1333.17,-95 1338.5,-100.33 1338.5,-105.67 1338.5,-105.67 1338.5,-116.33 1338.5,-116.33 1338.5,-121.67 1333.17,-127 1327.83,-127 1327.83,-127 1302.17,-127 1302.17,-127 1296.83,-127 1291.5,-121.67 1291.5,-116.33 1291.5,-116.33 1291.5,-105.67 1291.5,-105.67 1291.5,-100.33 1296.83,-95 1302.17,-95"/>
</a>
</g>
</g>
<!-- function&#45;1&#45;ImmLabel -->
<g id="node21" class="node">
<title>function&#45;1&#45;ImmLabel</title>
<g id="a_node21"><a xlink:title="Imm&#45;12: function&#45;1&#45;ImmLabel">
<path fill="white" stroke="transparent" d="M1452.17,-174C1452.17,-174 1509.83,-174 1509.83,-174 1515.17,-174 1520.5,-179.33 1520.5,-184.67 1520.5,-184.67 1520.5,-195.33 1520.5,-195.33 1520.5,-200.67 1515.17,-206 1509.83,-206 1509.83,-206 1452.17,-206 1452.17,-206 1446.83,-206 1441.5,-200.67 1441.5,-195.33 1441.5,-195.33 1441.5,-184.67 1441.5,-184.67 1441.5,-179.33 1446.83,-174 1452.17,-174"/>
<text text-anchor="start" x="1447" y="-186.3" font-family="Helvetica,sans-Serif" font-size="14.00">ImmLabel</text>
<path fill="none" stroke="black" d="M1452.17,-174C1452.17,-174 1509.83,-174 1509.83,-174 1515.17,-174 1520.5,-179.33 1520.5,-184.67 1520.5,-184.67 1520.5,-195.33 1520.5,-195.33 1520.5,-200.67 1515.17,-206 1509.83,-206 1509.83,-206 1452.17,-206 1452.17,-206 1446.83,-206 1441.5,-200.67 1441.5,-195.33 1441.5,-195.33 1441.5,-184.67 1441.5,-184.67 1441.5,-179.33 1446.83,-174 1452.17,-174"/>
</a>
</g>
</g>
<!-- primitive&#45;String&#45;10 -->
<g id="node22" class="node">
<title>primitive&#45;String&#45;10</title>
<g id="a_node22"><a xlink:title="String&#45;10: primitive&#45;String&#45;10">
<path fill="white" stroke="transparent" d="M1438.67,-95C1438.67,-95 1521.33,-95 1521.33,-95 1526.67,-95 1532,-100.33 1532,-105.67 1532,-105.67 1532,-116.33 1532,-116.33 1532,-121.67 1526.67,-127 1521.33,-127 1521.33,-127 1438.67,-127 1438.67,-127 1433.33,-127 1428,-121.67 1428,-116.33 1428,-116.33 1428,-105.67 1428,-105.67 1428,-100.33 1433.33,-95 1438.67,-95"/>
<text text-anchor="start" x="1433" y="-107.3" font-family="Helvetica,sans-Serif" font-size="14.00">&quot;%lo(qFront)&quot;</text>
<path fill="none" stroke="black" d="M1438.67,-95C1438.67,-95 1521.33,-95 1521.33,-95 1526.67,-95 1532,-100.33 1532,-105.67 1532,-105.67 1532,-116.33 1532,-116.33 1532,-121.67 1526.67,-127 1521.33,-127 1521.33,-127 1438.67,-127 1438.67,-127 1433.33,-127 1428,-121.67 1428,-116.33 1428,-116.33 1428,-105.67 1428,-105.67 1428,-100.33 1433.33,-95 1438.67,-95"/>
</a>
</g>
</g>
<!-- function&#45;7&#45;ImmVal -->
<g id="node23" class="node">
<title>function&#45;7&#45;ImmVal</title>
<g id="a_node23"><a xlink:title="Imm&#45;30: function&#45;7&#45;ImmVal">
<path fill="white" stroke="transparent" d="M466.67,-174C466.67,-174 507.33,-174 507.33,-174 512.67,-174 518,-179.33 518,-184.67 518,-184.67 518,-195.33 518,-195.33 518,-200.67 512.67,-206 507.33,-206 507.33,-206 466.67,-206 466.67,-206 461.33,-206 456,-200.67 456,-195.33 456,-195.33 456,-184.67 456,-184.67 456,-179.33 461.33,-174 466.67,-174"/>
<text text-anchor="start" x="461" y="-186.3" font-family="Helvetica,sans-Serif" font-size="14.00">ImmVal</text>
<path fill="none" stroke="black" d="M466.67,-174C466.67,-174 507.33,-174 507.33,-174 512.67,-174 518,-179.33 518,-184.67 518,-184.67 518,-195.33 518,-195.33 518,-200.67 512.67,-206 507.33,-206 507.33,-206 466.67,-206 466.67,-206 461.33,-206 456,-200.67 456,-195.33 456,-195.33 456,-184.67 456,-184.67 456,-179.33 461.33,-174 466.67,-174"/>
</a>
</g>
</g>
<!-- primitive&#45;i64&#45;400 -->
<g id="node24" class="node">
<title>primitive&#45;i64&#45;400</title>
<g id="a_node24"><a xlink:title="i64&#45;400: primitive&#45;i64&#45;400">
<path fill="white" stroke="transparent" d="M480.67,-95C480.67,-95 497.33,-95 497.33,-95 502.67,-95 508,-100.33 508,-105.67 508,-105.67 508,-116.33 508,-116.33 508,-121.67 502.67,-127 497.33,-127 497.33,-127 480.67,-127 480.67,-127 475.33,-127 470,-121.67 470,-116.33 470,-116.33 470,-105.67 470,-105.67 470,-100.33 475.33,-95 480.67,-95"/>
<text text-anchor="start" x="475" y="-107.3" font-family="Helvetica,sans-Serif" font-size="14.00">400</text>
<path fill="none" stroke="black" d="M480.67,-95C480.67,-95 497.33,-95 497.33,-95 502.67,-95 508,-100.33 508,-105.67 508,-105.67 508,-116.33 508,-116.33 508,-121.67 502.67,-127 497.33,-127 497.33,-127 480.67,-127 480.67,-127 475.33,-127 470,-121.67 470,-116.33 470,-116.33 470,-105.67 470,-105.67 470,-100.33 475.33,-95 480.67,-95"/>
</a>
</g>
</g>
<!-- function&#45;2&#45;Sw -->
<g id="node25" class="node">
<title>function&#45;2&#45;Sw</title>
<g id="a_node25"><a xlink:title="Inst&#45;21: function&#45;2&#45;Sw">
<path fill="white" stroke="transparent" d="M767.67,-253C767.67,-253 778.33,-253 778.33,-253 783.67,-253 789,-258.33 789,-263.67 789,-263.67 789,-274.33 789,-274.33 789,-279.67 783.67,-285 778.33,-285 778.33,-285 767.67,-285 767.67,-285 762.33,-285 757,-279.67 757,-274.33 757,-274.33 757,-263.67 757,-263.67 757,-258.33 762.33,-253 767.67,-253"/>
<text text-anchor="start" x="762.5" y="-265.3" font-family="Helvetica,sans-Serif" font-size="14.00">Sw</text>
<path fill="none" stroke="black" d="M767.67,-253C767.67,-253 778.33,-253 778.33,-253 783.67,-253 789,-258.33 789,-263.67 789,-263.67 789,-274.33 789,-274.33 789,-279.67 783.67,-285 778.33,-285 778.33,-285 767.67,-285 767.67,-285 762.33,-285 757,-279.67 757,-274.33 757,-274.33 757,-263.67 757,-263.67 757,-258.33 762.33,-253 767.67,-253"/>
</a>
</g>
</g>
<!-- function&#45;6&#45;RegVal -->
<g id="node26" class="node">
<title>function&#45;6&#45;RegVal</title>
<g id="a_node26"><a xlink:title="Inst&#45;6: function&#45;6&#45;RegVal">
<path fill="white" stroke="transparent" d="M829.17,-174C829.17,-174 864.83,-174 864.83,-174 870.17,-174 875.5,-179.33 875.5,-184.67 875.5,-184.67 875.5,-195.33 875.5,-195.33 875.5,-200.67 870.17,-206 864.83,-206 864.83,-206 829.17,-206 829.17,-206 823.83,-206 818.5,-200.67 818.5,-195.33 818.5,-195.33 818.5,-184.67 818.5,-184.67 818.5,-179.33 823.83,-174 829.17,-174"/>
<text text-anchor="start" x="824" y="-186.3" font-family="Helvetica,sans-Serif" font-size="14.00">RegVal</text>
<path fill="none" stroke="black" d="M829.17,-174C829.17,-174 864.83,-174 864.83,-174 870.17,-174 875.5,-179.33 875.5,-184.67 875.5,-184.67 875.5,-195.33 875.5,-195.33 875.5,-200.67 870.17,-206 864.83,-206 864.83,-206 829.17,-206 829.17,-206 823.83,-206 818.5,-200.67 818.5,-195.33 818.5,-195.33 818.5,-184.67 818.5,-184.67 818.5,-179.33 823.83,-174 829.17,-174"/>
</a>
</g>
</g>
<!-- function&#45;5&#45;RegVal -->
<g id="node27" class="node">
<title>function&#45;5&#45;RegVal</title>
<g id="a_node27"><a xlink:title="Inst&#45;5: function&#45;5&#45;RegVal">
<path fill="white" stroke="transparent" d="M759.17,-174C759.17,-174 794.83,-174 794.83,-174 800.17,-174 805.5,-179.33 805.5,-184.67 805.5,-184.67 805.5,-195.33 805.5,-195.33 805.5,-200.67 800.17,-206 794.83,-206 794.83,-206 759.17,-206 759.17,-206 753.83,-206 748.5,-200.67 748.5,-195.33 748.5,-195.33 748.5,-184.67 748.5,-184.67 748.5,-179.33 753.83,-174 759.17,-174"/>
<text text-anchor="start" x="754" y="-186.3" font-family="Helvetica,sans-Serif" font-size="14.00">RegVal</text>
<path fill="none" stroke="black" d="M759.17,-174C759.17,-174 794.83,-174 794.83,-174 800.17,-174 805.5,-179.33 805.5,-184.67 805.5,-184.67 805.5,-195.33 805.5,-195.33 805.5,-200.67 800.17,-206 794.83,-206 794.83,-206 759.17,-206 759.17,-206 753.83,-206 748.5,-200.67 748.5,-195.33 748.5,-195.33 748.5,-184.67 748.5,-184.67 748.5,-179.33 753.83,-174 759.17,-174"/>
</a>
</g>
</g>
<!-- function&#45;3&#45;RegVal -->
<g id="node28" class="node">
<title>function&#45;3&#45;RegVal</title>
<g id="a_node28"><a xlink:title="Inst&#45;3: function&#45;3&#45;RegVal">
<path fill="white" stroke="transparent" d="M1043.17,-174C1043.17,-174 1078.83,-174 1078.83,-174 1084.17,-174 1089.5,-179.33 1089.5,-184.67 1089.5,-184.67 1089.5,-195.33 1089.5,-195.33 1089.5,-200.67 1084.17,-206 1078.83,-206 1078.83,-206 1043.17,-206 1043.17,-206 1037.83,-206 1032.5,-200.67 1032.5,-195.33 1032.5,-195.33 1032.5,-184.67 1032.5,-184.67 1032.5,-179.33 1037.83,-174 1043.17,-174"/>
<text text-anchor="start" x="1038" y="-186.3" font-family="Helvetica,sans-Serif" font-size="14.00">RegVal</text>
<path fill="none" stroke="black" d="M1043.17,-174C1043.17,-174 1078.83,-174 1078.83,-174 1084.17,-174 1089.5,-179.33 1089.5,-184.67 1089.5,-184.67 1089.5,-195.33 1089.5,-195.33 1089.5,-200.67 1084.17,-206 1078.83,-206 1078.83,-206 1043.17,-206 1043.17,-206 1037.83,-206 1032.5,-200.67 1032.5,-195.33 1032.5,-195.33 1032.5,-184.67 1032.5,-184.67 1032.5,-179.33 1037.83,-174 1043.17,-174"/>
</a>
</g>
</g>
<!-- primitive&#45;String&#45;4 -->
<g id="node29" class="node">
<title>primitive&#45;String&#45;4</title>
<g id="a_node29"><a xlink:title="String&#45;4: primitive&#45;String&#45;4">
<path fill="white" stroke="transparent" d="M1039.17,-95C1039.17,-95 1082.83,-95 1082.83,-95 1088.17,-95 1093.5,-100.33 1093.5,-105.67 1093.5,-105.67 1093.5,-116.33 1093.5,-116.33 1093.5,-121.67 1088.17,-127 1082.83,-127 1082.83,-127 1039.17,-127 1039.17,-127 1033.83,-127 1028.5,-121.67 1028.5,-116.33 1028.5,-116.33 1028.5,-105.67 1028.5,-105.67 1028.5,-100.33 1033.83,-95 1039.17,-95"/>
<text text-anchor="start" x="1034" y="-107.3" font-family="Helvetica,sans-Serif" font-size="14.00">&quot;s11_0&quot;</text>
<path fill="none" stroke="black" d="M1039.17,-95C1039.17,-95 1082.83,-95 1082.83,-95 1088.17,-95 1093.5,-100.33 1093.5,-105.67 1093.5,-105.67 1093.5,-116.33 1093.5,-116.33 1093.5,-121.67 1088.17,-127 1082.83,-127 1082.83,-127 1039.17,-127 1039.17,-127 1033.83,-127 1028.5,-121.67 1028.5,-116.33 1028.5,-116.33 1028.5,-105.67 1028.5,-105.67 1028.5,-100.33 1033.83,-95 1039.17,-95"/>
</a>
</g>
</g>
<!-- primitive&#45;String&#45;6 -->
<g id="node30" class="node">
<title>primitive&#45;String&#45;6</title>
<g id="a_node30"><a xlink:title="String&#45;6: primitive&#45;String&#45;6">
<path fill="white" stroke="transparent" d="M760.67,-95C760.67,-95 795.33,-95 795.33,-95 800.67,-95 806,-100.33 806,-105.67 806,-105.67 806,-116.33 806,-116.33 806,-121.67 800.67,-127 795.33,-127 795.33,-127 760.67,-127 760.67,-127 755.33,-127 750,-121.67 750,-116.33 750,-116.33 750,-105.67 750,-105.67 750,-100.33 755.33,-95 760.67,-95"/>
<text text-anchor="start" x="755" y="-107.3" font-family="Helvetica,sans-Serif" font-size="14.00">&quot;s7_0&quot;</text>
<path fill="none" stroke="black" d="M760.67,-95C760.67,-95 795.33,-95 795.33,-95 800.67,-95 806,-100.33 806,-105.67 806,-105.67 806,-116.33 806,-116.33 806,-121.67 800.67,-127 795.33,-127 795.33,-127 760.67,-127 760.67,-127 755.33,-127 750,-121.67 750,-116.33 750,-116.33 750,-105.67 750,-105.67 750,-100.33 755.33,-95 760.67,-95"/>
</a>
</g>
</g>
<!-- function&#45;2&#45;Addi -->
<g id="node31" class="node">
<title>function&#45;2&#45;Addi</title>
<g id="a_node31"><a xlink:title="Inst&#45;29: function&#45;2&#45;Addi">
<path fill="white" stroke="transparent" d="M368.17,-253C368.17,-253 387.83,-253 387.83,-253 393.17,-253 398.5,-258.33 398.5,-263.67 398.5,-263.67 398.5,-274.33 398.5,-274.33 398.5,-279.67 393.17,-285 387.83,-285 387.83,-285 368.17,-285 368.17,-285 362.83,-285 357.5,-279.67 357.5,-274.33 357.5,-274.33 357.5,-263.67 357.5,-263.67 357.5,-258.33 362.83,-253 368.17,-253"/>
<text text-anchor="start" x="363" y="-265.3" font-family="Helvetica,sans-Serif" font-size="14.00">Addi</text>
<path fill="none" stroke="black" d="M368.17,-253C368.17,-253 387.83,-253 387.83,-253 393.17,-253 398.5,-258.33 398.5,-263.67 398.5,-263.67 398.5,-274.33 398.5,-274.33 398.5,-279.67 393.17,-285 387.83,-285 387.83,-285 368.17,-285 368.17,-285 362.83,-285 357.5,-279.67 357.5,-274.33 357.5,-274.33 357.5,-263.67 357.5,-263.67 357.5,-258.33 362.83,-253 368.17,-253"/>
</a>
</g>
</g>
<!-- function&#45;7&#45;RegVal -->
<g id="node32" class="node">
<title>function&#45;7&#45;RegVal</title>
<g id="a_node32"><a xlink:title="Inst&#45;7: function&#45;7&#45;RegVal">
<path fill="white" stroke="transparent" d="M396.17,-174C396.17,-174 431.83,-174 431.83,-174 437.17,-174 442.5,-179.33 442.5,-184.67 442.5,-184.67 442.5,-195.33 442.5,-195.33 442.5,-200.67 437.17,-206 431.83,-206 431.83,-206 396.17,-206 396.17,-206 390.83,-206 385.5,-200.67 385.5,-195.33 385.5,-195.33 385.5,-184.67 385.5,-184.67 385.5,-179.33 390.83,-174 396.17,-174"/>
<text text-anchor="start" x="391" y="-186.3" font-family="Helvetica,sans-Serif" font-size="14.00">RegVal</text>
<path fill="none" stroke="black" d="M396.17,-174C396.17,-174 431.83,-174 431.83,-174 437.17,-174 442.5,-179.33 442.5,-184.67 442.5,-184.67 442.5,-195.33 442.5,-195.33 442.5,-200.67 437.17,-206 431.83,-206 431.83,-206 396.17,-206 396.17,-206 390.83,-206 385.5,-200.67 385.5,-195.33 385.5,-195.33 385.5,-184.67 385.5,-184.67 385.5,-179.33 390.83,-174 396.17,-174"/>
</a>
</g>
</g>
<!-- function&#45;0&#45;Sw -->
<g id="node33" class="node">
<title>function&#45;0&#45;Sw</title>
<g id="a_node33"><a xlink:title="Inst&#45;9: function&#45;0&#45;Sw">
<path fill="white" stroke="transparent" d="M623.67,-253C623.67,-253 634.33,-253 634.33,-253 639.67,-253 645,-258.33 645,-263.67 645,-263.67 645,-274.33 645,-274.33 645,-279.67 639.67,-285 634.33,-285 634.33,-285 623.67,-285 623.67,-285 618.33,-285 613,-279.67 613,-274.33 613,-274.33 613,-263.67 613,-263.67 613,-258.33 618.33,-253 623.67,-253"/>
<text text-anchor="start" x="618.5" y="-265.3" font-family="Helvetica,sans-Serif" font-size="14.00">Sw</text>
<path fill="none" stroke="black" d="M623.67,-253C623.67,-253 634.33,-253 634.33,-253 639.67,-253 645,-258.33 645,-263.67 645,-263.67 645,-274.33 645,-274.33 645,-279.67 639.67,-285 634.33,-285 634.33,-285 623.67,-285 623.67,-285 618.33,-285 613,-279.67 613,-274.33 613,-274.33 613,-263.67 613,-263.67 613,-258.33 618.33,-253 623.67,-253"/>
</a>
</g>
</g>
<!-- function&#45;2&#45;RegVal -->
<g id="node34" class="node">
<title>function&#45;2&#45;RegVal</title>
<g id="a_node34"><a xlink:title="Inst&#45;2: function&#45;2&#45;RegVal">
<path fill="white" stroke="transparent" d="M615.17,-174C615.17,-174 650.83,-174 650.83,-174 656.17,-174 661.5,-179.33 661.5,-184.67 661.5,-184.67 661.5,-195.33 661.5,-195.33 661.5,-200.67 656.17,-206 650.83,-206 650.83,-206 615.17,-206 615.17,-206 609.83,-206 604.5,-200.67 604.5,-195.33 604.5,-195.33 604.5,-184.67 604.5,-184.67 604.5,-179.33 609.83,-174 615.17,-174"/>
<text text-anchor="start" x="610" y="-186.3" font-family="Helvetica,sans-Serif" font-size="14.00">RegVal</text>
<path fill="none" stroke="black" d="M615.17,-174C615.17,-174 650.83,-174 650.83,-174 656.17,-174 661.5,-179.33 661.5,-184.67 661.5,-184.67 661.5,-195.33 661.5,-195.33 661.5,-200.67 656.17,-206 650.83,-206 650.83,-206 615.17,-206 615.17,-206 609.83,-206 604.5,-200.67 604.5,-195.33 604.5,-195.33 604.5,-184.67 604.5,-184.67 604.5,-179.33 609.83,-174 615.17,-174"/>
</a>
</g>
</g>
<!-- function&#45;1&#45;RegVal -->
<g id="node35" class="node">
<title>function&#45;1&#45;RegVal</title>
<g id="a_node35"><a xlink:title="Inst&#45;1: function&#45;1&#45;RegVal">
<path fill="white" stroke="transparent" d="M1548.17,-174C1548.17,-174 1583.83,-174 1583.83,-174 1589.17,-174 1594.5,-179.33 1594.5,-184.67 1594.5,-184.67 1594.5,-195.33 1594.5,-195.33 1594.5,-200.67 1589.17,-206 1583.83,-206 1583.83,-206 1548.17,-206 1548.17,-206 1542.83,-206 1537.5,-200.67 1537.5,-195.33 1537.5,-195.33 1537.5,-184.67 1537.5,-184.67 1537.5,-179.33 1542.83,-174 1548.17,-174"/>
<text text-anchor="start" x="1543" y="-186.3" font-family="Helvetica,sans-Serif" font-size="14.00">RegVal</text>
<path fill="none" stroke="black" d="M1548.17,-174C1548.17,-174 1583.83,-174 1583.83,-174 1589.17,-174 1594.5,-179.33 1594.5,-184.67 1594.5,-184.67 1594.5,-195.33 1594.5,-195.33 1594.5,-200.67 1589.17,-206 1583.83,-206 1583.83,-206 1548.17,-206 1548.17,-206 1542.83,-206 1537.5,-200.67 1537.5,-195.33 1537.5,-195.33 1537.5,-184.67 1537.5,-184.67 1537.5,-179.33 1542.83,-174 1548.17,-174"/>
</a>
</g>
</g>
<!-- primitive&#45;String&#45;2 -->
<g id="node36" class="node">
<title>primitive&#45;String&#45;2</title>
<g id="a_node36"><a xlink:title="String&#45;2: primitive&#45;String&#45;2">
<path fill="white" stroke="transparent" d="M1556.67,-95C1556.67,-95 1585.33,-95 1585.33,-95 1590.67,-95 1596,-100.33 1596,-105.67 1596,-105.67 1596,-116.33 1596,-116.33 1596,-121.67 1590.67,-127 1585.33,-127 1585.33,-127 1556.67,-127 1556.67,-127 1551.33,-127 1546,-121.67 1546,-116.33 1546,-116.33 1546,-105.67 1546,-105.67 1546,-100.33 1551.33,-95 1556.67,-95"/>
<text text-anchor="start" x="1551" y="-107.3" font-family="Helvetica,sans-Serif" font-size="14.00">&quot;s10&quot;</text>
<path fill="none" stroke="black" d="M1556.67,-95C1556.67,-95 1585.33,-95 1585.33,-95 1590.67,-95 1596,-100.33 1596,-105.67 1596,-105.67 1596,-116.33 1596,-116.33 1596,-121.67 1590.67,-127 1585.33,-127 1585.33,-127 1556.67,-127 1556.67,-127 1551.33,-127 1546,-121.67 1546,-116.33 1546,-116.33 1546,-105.67 1546,-105.67 1546,-100.33 1551.33,-95 1556.67,-95"/>
</a>
</g>
</g>
<!-- primitive&#45;String&#45;3 -->
<g id="node37" class="node">
<title>primitive&#45;String&#45;3</title>
<g id="a_node37"><a xlink:title="String&#45;3: primitive&#45;String&#45;3">
<path fill="white" stroke="transparent" d="M612.17,-95C612.17,-95 655.83,-95 655.83,-95 661.17,-95 666.5,-100.33 666.5,-105.67 666.5,-105.67 666.5,-116.33 666.5,-116.33 666.5,-121.67 661.17,-127 655.83,-127 655.83,-127 612.17,-127 612.17,-127 606.83,-127 601.5,-121.67 601.5,-116.33 601.5,-116.33 601.5,-105.67 601.5,-105.67 601.5,-100.33 606.83,-95 612.17,-95"/>
<text text-anchor="start" x="607" y="-107.3" font-family="Helvetica,sans-Serif" font-size="14.00">&quot;s10_0&quot;</text>
<path fill="none" stroke="black" d="M612.17,-95C612.17,-95 655.83,-95 655.83,-95 661.17,-95 666.5,-100.33 666.5,-105.67 666.5,-105.67 666.5,-116.33 666.5,-116.33 666.5,-121.67 661.17,-127 655.83,-127 655.83,-127 612.17,-127 612.17,-127 606.83,-127 601.5,-121.67 601.5,-116.33 601.5,-116.33 601.5,-105.67 601.5,-105.67 601.5,-100.33 606.83,-95 612.17,-95"/>
</a>
</g>
</g>
<!-- function&#45;4&#45;RegVal -->
<g id="node38" class="node">
<title>function&#45;4&#45;RegVal</title>
<g id="a_node38"><a xlink:title="Inst&#45;4: function&#45;4&#45;RegVal">
<path fill="white" stroke="transparent" d="M899.17,-174C899.17,-174 934.83,-174 934.83,-174 940.17,-174 945.5,-179.33 945.5,-184.67 945.5,-184.67 945.5,-195.33 945.5,-195.33 945.5,-200.67 940.17,-206 934.83,-206 934.83,-206 899.17,-206 899.17,-206 893.83,-206 888.5,-200.67 888.5,-195.33 888.5,-195.33 888.5,-184.67 888.5,-184.67 888.5,-179.33 893.83,-174 899.17,-174"/>
<text text-anchor="start" x="894" y="-186.3" font-family="Helvetica,sans-Serif" font-size="14.00">RegVal</text>
<path fill="none" stroke="black" d="M899.17,-174C899.17,-174 934.83,-174 934.83,-174 940.17,-174 945.5,-179.33 945.5,-184.67 945.5,-184.67 945.5,-195.33 945.5,-195.33 945.5,-200.67 940.17,-206 934.83,-206 934.83,-206 899.17,-206 899.17,-206 893.83,-206 888.5,-200.67 888.5,-195.33 888.5,-195.33 888.5,-184.67 888.5,-184.67 888.5,-179.33 893.83,-174 899.17,-174"/>
</a>
</g>
</g>
<!-- primitive&#45;String&#45;5 -->
<g id="node39" class="node">
<title>primitive&#45;String&#45;5</title>
<g id="a_node39"><a xlink:title="String&#45;5: primitive&#45;String&#45;5">
<path fill="white" stroke="transparent" d="M900.67,-95C900.67,-95 935.33,-95 935.33,-95 940.67,-95 946,-100.33 946,-105.67 946,-105.67 946,-116.33 946,-116.33 946,-121.67 940.67,-127 935.33,-127 935.33,-127 900.67,-127 900.67,-127 895.33,-127 890,-121.67 890,-116.33 890,-116.33 890,-105.67 890,-105.67 890,-100.33 895.33,-95 900.67,-95"/>
<text text-anchor="start" x="895" y="-107.3" font-family="Helvetica,sans-Serif" font-size="14.00">&quot;s6_0&quot;</text>
<path fill="none" stroke="black" d="M900.67,-95C900.67,-95 935.33,-95 935.33,-95 940.67,-95 946,-100.33 946,-105.67 946,-105.67 946,-116.33 946,-116.33 946,-121.67 940.67,-127 935.33,-127 935.33,-127 900.67,-127 900.67,-127 895.33,-127 890,-121.67 890,-116.33 890,-116.33 890,-105.67 890,-105.67 890,-100.33 895.33,-95 900.67,-95"/>
</a>
</g>
</g>
<!-- primitive&#45;String&#45;8 -->
<g id="node40" class="node">
<title>primitive&#45;String&#45;8</title>
<g id="a_node40"><a xlink:title="String&#45;8: primitive&#45;String&#45;8">
<path fill="white" stroke="transparent" d="M391.17,-95C391.17,-95 438.83,-95 438.83,-95 444.17,-95 449.5,-100.33 449.5,-105.67 449.5,-105.67 449.5,-116.33 449.5,-116.33 449.5,-121.67 444.17,-127 438.83,-127 438.83,-127 391.17,-127 391.17,-127 385.83,-127 380.5,-121.67 380.5,-116.33 380.5,-116.33 380.5,-105.67 380.5,-105.67 380.5,-100.33 385.83,-95 391.17,-95"/>
<text text-anchor="start" x="386" y="-107.3" font-family="Helvetica,sans-Serif" font-size="14.00">&quot;zero_0&quot;</text>
<path fill="none" stroke="black" d="M391.17,-95C391.17,-95 438.83,-95 438.83,-95 444.17,-95 449.5,-100.33 449.5,-105.67 449.5,-105.67 449.5,-116.33 449.5,-116.33 449.5,-121.67 444.17,-127 438.83,-127 438.83,-127 391.17,-127 391.17,-127 385.83,-127 380.5,-121.67 380.5,-116.33 380.5,-116.33 380.5,-105.67 380.5,-105.67 380.5,-100.33 385.83,-95 391.17,-95"/>
</a>
</g>
</g>
<!-- function&#45;0&#45;RegVal -->
<g id="node41" class="node">
<title>function&#45;0&#45;RegVal</title>
<g id="a_node41"><a xlink:title="Inst&#45;0: function&#45;0&#45;RegVal">
<path fill="white" stroke="transparent" d="M252.17,-174C252.17,-174 287.83,-174 287.83,-174 293.17,-174 298.5,-179.33 298.5,-184.67 298.5,-184.67 298.5,-195.33 298.5,-195.33 298.5,-200.67 293.17,-206 287.83,-206 287.83,-206 252.17,-206 252.17,-206 246.83,-206 241.5,-200.67 241.5,-195.33 241.5,-195.33 241.5,-184.67 241.5,-184.67 241.5,-179.33 246.83,-174 252.17,-174"/>
<text text-anchor="start" x="247" y="-186.3" font-family="Helvetica,sans-Serif" font-size="14.00">RegVal</text>
<path fill="none" stroke="black" d="M252.17,-174C252.17,-174 287.83,-174 287.83,-174 293.17,-174 298.5,-179.33 298.5,-184.67 298.5,-184.67 298.5,-195.33 298.5,-195.33 298.5,-200.67 293.17,-206 287.83,-206 287.83,-206 252.17,-206 252.17,-206 246.83,-206 241.5,-200.67 241.5,-195.33 241.5,-195.33 241.5,-184.67 241.5,-184.67 241.5,-179.33 246.83,-174 252.17,-174"/>
</a>
</g>
</g>
<!-- primitive&#45;String&#45;1 -->
<g id="node42" class="node">
<title>primitive&#45;String&#45;1</title>
<g id="a_node42"><a xlink:title="String&#45;1: primitive&#45;String&#45;1">
<path fill="white" stroke="transparent" d="M253.17,-95C253.17,-95 288.83,-95 288.83,-95 294.17,-95 299.5,-100.33 299.5,-105.67 299.5,-105.67 299.5,-116.33 299.5,-116.33 299.5,-121.67 294.17,-127 288.83,-127 288.83,-127 253.17,-127 253.17,-127 247.83,-127 242.5,-121.67 242.5,-116.33 242.5,-116.33 242.5,-105.67 242.5,-105.67 242.5,-100.33 247.83,-95 253.17,-95"/>
<text text-anchor="start" x="248" y="-107.3" font-family="Helvetica,sans-Serif" font-size="14.00">&quot;a3_0&quot;</text>
<path fill="none" stroke="black" d="M253.17,-95C253.17,-95 288.83,-95 288.83,-95 294.17,-95 299.5,-100.33 299.5,-105.67 299.5,-105.67 299.5,-116.33 299.5,-116.33 299.5,-121.67 294.17,-127 288.83,-127 288.83,-127 253.17,-127 253.17,-127 247.83,-127 242.5,-121.67 242.5,-116.33 242.5,-116.33 242.5,-105.67 242.5,-105.67 242.5,-100.33 247.83,-95 253.17,-95"/>
</a>
</g>
</g>
<!-- function&#45;1&#45;Sw -->
<g id="node43" class="node">
<title>function&#45;1&#45;Sw</title>
<g id="a_node43"><a xlink:title="Inst&#45;15: function&#45;1&#45;Sw">
<path fill="white" stroke="transparent" d="M907.67,-253C907.67,-253 918.33,-253 918.33,-253 923.67,-253 929,-258.33 929,-263.67 929,-263.67 929,-274.33 929,-274.33 929,-279.67 923.67,-285 918.33,-285 918.33,-285 907.67,-285 907.67,-285 902.33,-285 897,-279.67 897,-274.33 897,-274.33 897,-263.67 897,-263.67 897,-258.33 902.33,-253 907.67,-253"/>
<text text-anchor="start" x="902.5" y="-265.3" font-family="Helvetica,sans-Serif" font-size="14.00">Sw</text>
<path fill="none" stroke="black" d="M907.67,-253C907.67,-253 918.33,-253 918.33,-253 923.67,-253 929,-258.33 929,-263.67 929,-263.67 929,-274.33 929,-274.33 929,-279.67 923.67,-285 918.33,-285 918.33,-285 907.67,-285 907.67,-285 902.33,-285 897,-279.67 897,-274.33 897,-274.33 897,-263.67 897,-263.67 897,-258.33 902.33,-253 907.67,-253"/>
</a>
</g>
</g>
<!-- function&#45;1&#45;Lui -->
<g id="node44" class="node">
<title>function&#45;1&#45;Lui</title>
<g id="a_node44"><a xlink:title="Inst&#45;17: function&#45;1&#45;Lui">
<path fill="white" stroke="transparent" d="M1379.67,-174C1379.67,-174 1390.33,-174 1390.33,-174 1395.67,-174 1401,-179.33 1401,-184.67 1401,-184.67 1401,-195.33 1401,-195.33 1401,-200.67 1395.67,-206 1390.33,-206 1390.33,-206 1379.67,-206 1379.67,-206 1374.33,-206 1369,-200.67 1369,-195.33 1369,-195.33 1369,-184.67 1369,-184.67 1369,-179.33 1374.33,-174 1379.67,-174"/>
<text text-anchor="start" x="1374.5" y="-186.3" font-family="Helvetica,sans-Serif" font-size="14.00">Lui</text>
<path fill="none" stroke="black" d="M1379.67,-174C1379.67,-174 1390.33,-174 1390.33,-174 1395.67,-174 1401,-179.33 1401,-184.67 1401,-184.67 1401,-195.33 1401,-195.33 1401,-200.67 1395.67,-206 1390.33,-206 1390.33,-206 1379.67,-206 1379.67,-206 1374.33,-206 1369,-200.67 1369,-195.33 1369,-195.33 1369,-184.67 1369,-184.67 1369,-179.33 1374.33,-174 1379.67,-174"/>
</a>
</g>
</g>
<!-- function&#45;3&#45;Sw -->
<g id="node45" class="node">
<title>function&#45;3&#45;Sw</title>
<g id="a_node45"><a xlink:title="Inst&#45;23: function&#45;3&#45;Sw">
<path fill="white" stroke="transparent" d="M1051.67,-253C1051.67,-253 1062.33,-253 1062.33,-253 1067.67,-253 1073,-258.33 1073,-263.67 1073,-263.67 1073,-274.33 1073,-274.33 1073,-279.67 1067.67,-285 1062.33,-285 1062.33,-285 1051.67,-285 1051.67,-285 1046.33,-285 1041,-279.67 1041,-274.33 1041,-274.33 1041,-263.67 1041,-263.67 1041,-258.33 1046.33,-253 1051.67,-253"/>
<text text-anchor="start" x="1046.5" y="-265.3" font-family="Helvetica,sans-Serif" font-size="14.00">Sw</text>
<path fill="none" stroke="black" d="M1051.67,-253C1051.67,-253 1062.33,-253 1062.33,-253 1067.67,-253 1073,-258.33 1073,-263.67 1073,-263.67 1073,-274.33 1073,-274.33 1073,-279.67 1067.67,-285 1062.33,-285 1062.33,-285 1051.67,-285 1051.67,-285 1046.33,-285 1041,-279.67 1041,-274.33 1041,-274.33 1041,-263.67 1041,-263.67 1041,-258.33 1046.33,-253 1051.67,-253"/>
</a>
</g>
</g>
<!-- function&#45;2&#45;Lui -->
<g id="node46" class="node">
<title>function&#45;2&#45;Lui</title>
<g id="a_node46"><a xlink:title="Inst&#45;19: function&#45;2&#45;Lui">
<path fill="white" stroke="transparent" d="M167.67,-174C167.67,-174 178.33,-174 178.33,-174 183.67,-174 189,-179.33 189,-184.67 189,-184.67 189,-195.33 189,-195.33 189,-200.67 183.67,-206 178.33,-206 178.33,-206 167.67,-206 167.67,-206 162.33,-206 157,-200.67 157,-195.33 157,-195.33 157,-184.67 157,-184.67 157,-179.33 162.33,-174 167.67,-174"/>
<text text-anchor="start" x="162.5" y="-186.3" font-family="Helvetica,sans-Serif" font-size="14.00">Lui</text>
<path fill="none" stroke="black" d="M167.67,-174C167.67,-174 178.33,-174 178.33,-174 183.67,-174 189,-179.33 189,-184.67 189,-184.67 189,-195.33 189,-195.33 189,-200.67 183.67,-206 178.33,-206 178.33,-206 167.67,-206 167.67,-206 162.33,-206 157,-200.67 157,-195.33 157,-195.33 157,-184.67 157,-184.67 157,-179.33 162.33,-174 167.67,-174"/>
</a>
</g>
</g>
<!-- function&#45;0&#45;Addi -->
<g id="node47" class="node">
<title>function&#45;0&#45;Addi</title>
<g id="a_node47"><a xlink:title="Inst&#45;25: function&#45;0&#45;Addi">
<path fill="white" stroke="transparent" d="M123.17,-253C123.17,-253 142.83,-253 142.83,-253 148.17,-253 153.5,-258.33 153.5,-263.67 153.5,-263.67 153.5,-274.33 153.5,-274.33 153.5,-279.67 148.17,-285 142.83,-285 142.83,-285 123.17,-285 123.17,-285 117.83,-285 112.5,-279.67 112.5,-274.33 112.5,-274.33 112.5,-263.67 112.5,-263.67 112.5,-258.33 117.83,-253 123.17,-253"/>
<text text-anchor="start" x="118" y="-265.3" font-family="Helvetica,sans-Serif" font-size="14.00">Addi</text>
<path fill="none" stroke="black" d="M123.17,-253C123.17,-253 142.83,-253 142.83,-253 148.17,-253 153.5,-258.33 153.5,-263.67 153.5,-263.67 153.5,-274.33 153.5,-274.33 153.5,-279.67 148.17,-285 142.83,-285 142.83,-285 123.17,-285 123.17,-285 117.83,-285 112.5,-279.67 112.5,-274.33 112.5,-274.33 112.5,-263.67 112.5,-263.67 112.5,-258.33 117.83,-253 123.17,-253"/>
</a>
</g>
</g>
<!-- function&#45;4&#45;Addi -->
<g id="node48" class="node">
<title>function&#45;4&#45;Addi</title>
<g id="a_node48"><a xlink:title="Inst&#45;32: function&#45;4&#45;Addi">
<path fill="white" stroke="transparent" d="M286.17,-253C286.17,-253 305.83,-253 305.83,-253 311.17,-253 316.5,-258.33 316.5,-263.67 316.5,-263.67 316.5,-274.33 316.5,-274.33 316.5,-279.67 311.17,-285 305.83,-285 305.83,-285 286.17,-285 286.17,-285 280.83,-285 275.5,-279.67 275.5,-274.33 275.5,-274.33 275.5,-263.67 275.5,-263.67 275.5,-258.33 280.83,-253 286.17,-253"/>
<text text-anchor="start" x="281" y="-265.3" font-family="Helvetica,sans-Serif" font-size="14.00">Addi</text>
<path fill="none" stroke="black" d="M286.17,-253C286.17,-253 305.83,-253 305.83,-253 311.17,-253 316.5,-258.33 316.5,-263.67 316.5,-263.67 316.5,-274.33 316.5,-274.33 316.5,-279.67 311.17,-285 305.83,-285 305.83,-285 286.17,-285 286.17,-285 280.83,-285 275.5,-279.67 275.5,-274.33 275.5,-274.33 275.5,-263.67 275.5,-263.67 275.5,-258.33 280.83,-253 286.17,-253"/>
</a>
</g>
</g>
<!-- function&#45;0&#45;Lui -->
<g id="node49" class="node">
<title>function&#45;0&#45;Lui</title>
<g id="a_node49"><a xlink:title="Inst&#45;11: function&#45;0&#45;Lui">
<path fill="white" stroke="transparent" d="M1217.67,-253C1217.67,-253 1228.33,-253 1228.33,-253 1233.67,-253 1239,-258.33 1239,-263.67 1239,-263.67 1239,-274.33 1239,-274.33 1239,-279.67 1233.67,-285 1228.33,-285 1228.33,-285 1217.67,-285 1217.67,-285 1212.33,-285 1207,-279.67 1207,-274.33 1207,-274.33 1207,-263.67 1207,-263.67 1207,-258.33 1212.33,-253 1217.67,-253"/>
<text text-anchor="start" x="1212.5" y="-265.3" font-family="Helvetica,sans-Serif" font-size="14.00">Lui</text>
<path fill="none" stroke="black" d="M1217.67,-253C1217.67,-253 1228.33,-253 1228.33,-253 1233.67,-253 1239,-258.33 1239,-263.67 1239,-263.67 1239,-274.33 1239,-274.33 1239,-279.67 1233.67,-285 1228.33,-285 1228.33,-285 1217.67,-285 1217.67,-285 1212.33,-285 1207,-279.67 1207,-274.33 1207,-274.33 1207,-263.67 1207,-263.67 1207,-258.33 1212.33,-253 1217.67,-253"/>
</a>
</g>
</g>
<!-- function&#45;0&#45;Lw -->
<g id="node50" class="node">
<title>function&#45;0&#45;Lw</title>
<g id="a_node50"><a xlink:title="Inst&#45;13: function&#45;0&#45;Lw">
<path fill="white" stroke="transparent" d="M1517.67,-253C1517.67,-253 1528.33,-253 1528.33,-253 1533.67,-253 1539,-258.33 1539,-263.67 1539,-263.67 1539,-274.33 1539,-274.33 1539,-279.67 1533.67,-285 1528.33,-285 1528.33,-285 1517.67,-285 1517.67,-285 1512.33,-285 1507,-279.67 1507,-274.33 1507,-274.33 1507,-263.67 1507,-263.67 1507,-258.33 1512.33,-253 1517.67,-253"/>
<text text-anchor="start" x="1513.5" y="-265.3" font-family="Helvetica,sans-Serif" font-size="14.00">Lw</text>
<path fill="none" stroke="black" d="M1517.67,-253C1517.67,-253 1528.33,-253 1528.33,-253 1533.67,-253 1539,-258.33 1539,-263.67 1539,-263.67 1539,-274.33 1539,-274.33 1539,-279.67 1533.67,-285 1528.33,-285 1528.33,-285 1517.67,-285 1517.67,-285 1512.33,-285 1507,-279.67 1507,-274.33 1507,-274.33 1507,-263.67 1507,-263.67 1507,-258.33 1512.33,-253 1517.67,-253"/>
</a>
</g>
</g>
<!-- function&#45;1&#45;Addi -->
<g id="node51" class="node">
<title>function&#45;1&#45;Addi</title>
<g id="a_node51"><a xlink:title="Inst&#45;27: function&#45;1&#45;Addi">
<path fill="white" stroke="transparent" d="M1340.17,-253C1340.17,-253 1359.83,-253 1359.83,-253 1365.17,-253 1370.5,-258.33 1370.5,-263.67 1370.5,-263.67 1370.5,-274.33 1370.5,-274.33 1370.5,-279.67 1365.17,-285 1359.83,-285 1359.83,-285 1340.17,-285 1340.17,-285 1334.83,-285 1329.5,-279.67 1329.5,-274.33 1329.5,-274.33 1329.5,-263.67 1329.5,-263.67 1329.5,-258.33 1334.83,-253 1340.17,-253"/>
<text text-anchor="start" x="1335" y="-265.3" font-family="Helvetica,sans-Serif" font-size="14.00">Addi</text>
<path fill="none" stroke="black" d="M1340.17,-253C1340.17,-253 1359.83,-253 1359.83,-253 1365.17,-253 1370.5,-258.33 1370.5,-263.67 1370.5,-263.67 1370.5,-274.33 1370.5,-274.33 1370.5,-279.67 1365.17,-285 1359.83,-285 1359.83,-285 1340.17,-285 1340.17,-285 1334.83,-285 1329.5,-279.67 1329.5,-274.33 1329.5,-274.33 1329.5,-263.67 1329.5,-263.67 1329.5,-258.33 1334.83,-253 1340.17,-253"/>
</a>
</g>
</g>
<!-- primitive&#45;String&#45;7 -->
<g id="node52" class="node">
<title>primitive&#45;String&#45;7</title>
<g id="a_node52"><a xlink:title="String&#45;7: primitive&#45;String&#45;7">
<path fill="white" stroke="transparent" d="M830.67,-95C830.67,-95 865.33,-95 865.33,-95 870.67,-95 876,-100.33 876,-105.67 876,-105.67 876,-116.33 876,-116.33 876,-121.67 870.67,-127 865.33,-127 865.33,-127 830.67,-127 830.67,-127 825.33,-127 820,-121.67 820,-116.33 820,-116.33 820,-105.67 820,-105.67 820,-100.33 825.33,-95 830.67,-95"/>
<text text-anchor="start" x="825" y="-107.3" font-family="Helvetica,sans-Serif" font-size="14.00">&quot;sp_0&quot;</text>
<path fill="none" stroke="black" d="M830.67,-95C830.67,-95 865.33,-95 865.33,-95 870.67,-95 876,-100.33 876,-105.67 876,-105.67 876,-116.33 876,-116.33 876,-121.67 870.67,-127 865.33,-127 865.33,-127 830.67,-127 830.67,-127 825.33,-127 820,-121.67 820,-116.33 820,-116.33 820,-105.67 820,-105.67 820,-100.33 825.33,-95 830.67,-95"/>
</a>
</g>
</g>
<!-- function&#45;3&#45;Addi -->
<g id="node53" class="node">
<title>function&#45;3&#45;Addi</title>
<g id="a_node53"><a xlink:title="Inst&#45;31: function&#45;3&#45;Addi">
<path fill="white" stroke="transparent" d="M440.17,-253C440.17,-253 459.83,-253 459.83,-253 465.17,-253 470.5,-258.33 470.5,-263.67 470.5,-263.67 470.5,-274.33 470.5,-274.33 470.5,-279.67 465.17,-285 459.83,-285 459.83,-285 440.17,-285 440.17,-285 434.83,-285 429.5,-279.67 429.5,-274.33 429.5,-274.33 429.5,-263.67 429.5,-263.67 429.5,-258.33 434.83,-253 440.17,-253"/>
<text text-anchor="start" x="435" y="-265.3" font-family="Helvetica,sans-Serif" font-size="14.00">Addi</text>
<path fill="none" stroke="black" d="M440.17,-253C440.17,-253 459.83,-253 459.83,-253 465.17,-253 470.5,-258.33 470.5,-263.67 470.5,-263.67 470.5,-274.33 470.5,-274.33 470.5,-279.67 465.17,-285 459.83,-285 459.83,-285 440.17,-285 440.17,-285 434.83,-285 429.5,-279.67 429.5,-274.33 429.5,-274.33 429.5,-263.67 429.5,-263.67 429.5,-258.33 434.83,-253 440.17,-253"/>
</a>
</g>
</g>
</g>
</svg>
