<?xml version="1.0" encoding="UTF-8" standalone="no"?>
<!DOCTYPE svg PUBLIC "-//W3C//DTD SVG 1.1//EN"
 "http://www.w3.org/Graphics/SVG/1.1/DTD/svg11.dtd">
<!-- Generated by graphviz version 2.43.0 (0)
 -->
<!-- Title: %3 Pages: 1 -->
<svg width="689pt" height="388pt"
 viewBox="0.00 0.00 689.00 388.00" xmlns="http://www.w3.org/2000/svg" xmlns:xlink="http://www.w3.org/1999/xlink">
<g id="graph0" class="graph" transform="scale(1 1) rotate(0) translate(4 384)">
<title>%3</title>
<polygon fill="white" stroke="#000000" points="-4,4 -4,-384 685,-384 685,4 -4,4"/>
<g id="clust1" class="cluster">
<title>outer_cluster_Imm&#45;9</title>
</g>
<g id="clust2" class="cluster">
<title>cluster_Imm&#45;9</title>
<path fill="#ffffb3" stroke="black" stroke-dasharray="5,2" d="M287,-90C287,-90 331,-90 331,-90 337,-90 343,-96 343,-102 343,-102 343,-120 343,-120 343,-126 337,-132 331,-132 331,-132 287,-132 287,-132 281,-132 275,-126 275,-120 275,-120 275,-102 275,-102 275,-96 281,-90 287,-90"/>
</g>
<g id="clust4" class="cluster">
<title>outer_cluster_Imm&#45;7</title>
</g>
<g id="clust5" class="cluster">
<title>cluster_Imm&#45;7</title>
<path fill="#ffffb3" stroke="black" stroke-dasharray="5,2" d="M23,-169C23,-169 83,-169 83,-169 89,-169 95,-175 95,-181 95,-181 95,-199 95,-199 95,-205 89,-211 83,-211 83,-211 23,-211 23,-211 17,-211 11,-205 11,-199 11,-199 11,-181 11,-181 11,-175 17,-169 23,-169"/>
</g>
<g id="clust7" class="cluster">
<title>outer_cluster_Imm&#45;4</title>
</g>
<g id="clust8" class="cluster">
<title>cluster_Imm&#45;4</title>
<path fill="#ffffb3" stroke="black" stroke-dasharray="5,2" d="M124,-90C124,-90 168,-90 168,-90 174,-90 180,-96 180,-102 180,-102 180,-120 180,-120 180,-126 174,-132 168,-132 168,-132 124,-132 124,-132 118,-132 112,-126 112,-120 112,-120 112,-102 112,-102 112,-96 118,-90 124,-90"/>
</g>
<g id="clust10" class="cluster">
<title>outer_cluster_Inst&#45;0</title>
</g>
<g id="clust11" class="cluster">
<title>cluster_Inst&#45;0</title>
<path fill="#bebada" stroke="black" stroke-dasharray="5,2" d="M198,-90C198,-90 238,-90 238,-90 244,-90 250,-96 250,-102 250,-102 250,-120 250,-120 250,-126 244,-132 238,-132 238,-132 198,-132 198,-132 192,-132 186,-126 186,-120 186,-120 186,-102 186,-102 186,-96 192,-90 198,-90"/>
</g>
<g id="clust13" class="cluster">
<title>outer_cluster_Inst&#45;8</title>
</g>
<g id="clust14" class="cluster">
<title>cluster_Inst&#45;8</title>
<path fill="#bebada" stroke="black" stroke-dasharray="5,2" d="M64,-327C64,-327 216,-327 216,-327 222,-327 228,-333 228,-339 228,-339 228,-357 228,-357 228,-363 222,-369 216,-369 216,-369 64,-369 64,-369 58,-369 52,-363 52,-357 52,-357 52,-339 52,-339 52,-333 58,-327 64,-327"/>
</g>
<g id="clust16" class="cluster">
<title>outer_cluster_Inst&#45;5</title>
</g>
<g id="clust17" class="cluster">
<title>cluster_Inst&#45;5</title>
<path fill="#bebada" stroke="black" stroke-dasharray="5,2" d="M175,-169C175,-169 211,-169 211,-169 217,-169 223,-175 223,-181 223,-181 223,-199 223,-199 223,-205 217,-211 211,-211 211,-211 175,-211 175,-211 169,-211 163,-205 163,-199 163,-199 163,-181 163,-181 163,-175 169,-169 175,-169"/>
</g>
<g id="clust19" class="cluster">
<title>outer_cluster_Inst&#45;1</title>
</g>
<g id="clust20" class="cluster">
<title>cluster_Inst&#45;1</title>
<path fill="#bebada" stroke="black" stroke-dasharray="5,2" d="M548,-248C548,-248 588,-248 588,-248 594,-248 600,-254 600,-260 600,-260 600,-278 600,-278 600,-284 594,-290 588,-290 588,-290 548,-290 548,-290 542,-290 536,-284 536,-278 536,-278 536,-260 536,-260 536,-254 542,-248 548,-248"/>
</g>
<g id="clust22" class="cluster">
<title>outer_cluster_Inst&#45;11</title>
</g>
<g id="clust23" class="cluster">
<title>cluster_Inst&#45;11</title>
<path fill="#bebada" stroke="black" stroke-dasharray="5,2" d="M74,-248C74,-248 110,-248 110,-248 116,-248 122,-254 122,-260 122,-260 122,-278 122,-278 122,-284 116,-290 110,-290 110,-290 74,-290 74,-290 68,-290 62,-284 62,-278 62,-278 62,-260 62,-260 62,-254 68,-248 74,-248"/>
</g>
<g id="clust25" class="cluster">
<title>outer_cluster_Inst&#45;3</title>
</g>
<g id="clust26" class="cluster">
<title>cluster_Inst&#45;3</title>
<path fill="#bebada" stroke="black" stroke-dasharray="5,2" d="M427,-169C427,-169 467,-169 467,-169 473,-169 479,-175 479,-181 479,-181 479,-199 479,-199 479,-205 473,-211 467,-211 467,-211 427,-211 427,-211 421,-211 415,-205 415,-199 415,-199 415,-181 415,-181 415,-175 421,-169 427,-169"/>
</g>
<g id="clust28" class="cluster">
<title>outer_cluster_Inst&#45;14</title>
</g>
<g id="clust29" class="cluster">
<title>cluster_Inst&#45;14</title>
<path fill="#bebada" stroke="black" stroke-dasharray="5,2" d="M291,-169C291,-169 327,-169 327,-169 333,-169 339,-175 339,-181 339,-181 339,-199 339,-199 339,-205 333,-211 327,-211 327,-211 291,-211 291,-211 285,-211 279,-205 279,-199 279,-199 279,-181 279,-181 279,-175 285,-169 291,-169"/>
</g>
<g id="clust31" class="cluster">
<title>outer_cluster_Inst&#45;13</title>
</g>
<g id="clust32" class="cluster">
<title>cluster_Inst&#45;13</title>
<path fill="#bebada" stroke="black" stroke-dasharray="5,2" d="M344,-248C344,-248 496,-248 496,-248 502,-248 508,-254 508,-260 508,-260 508,-278 508,-278 508,-284 502,-290 496,-290 496,-290 344,-290 344,-290 338,-290 332,-284 332,-278 332,-278 332,-260 332,-260 332,-254 338,-248 344,-248"/>
</g>
<g id="clust34" class="cluster">
<title>outer_cluster_Inst&#45;10</title>
</g>
<g id="clust35" class="cluster">
<title>cluster_Inst&#45;10</title>
<path fill="#bebada" stroke="black" stroke-dasharray="5,2" d="M162,-248C162,-248 314,-248 314,-248 320,-248 326,-254 326,-260 326,-260 326,-278 326,-278 326,-284 320,-290 314,-290 314,-290 162,-290 162,-290 156,-290 150,-284 150,-278 150,-278 150,-260 150,-260 150,-254 156,-248 162,-248"/>
</g>
<g id="clust37" class="cluster">
<title>outer_cluster_Inst&#45;6</title>
</g>
<g id="clust38" class="cluster">
<title>cluster_Inst&#45;6</title>
<path fill="#bebada" stroke="black" stroke-dasharray="5,2" d="M547,-327C547,-327 641,-327 641,-327 647,-327 653,-333 653,-339 653,-339 653,-357 653,-357 653,-363 647,-369 641,-369 641,-369 547,-369 547,-369 541,-369 535,-363 535,-357 535,-357 535,-339 535,-339 535,-333 541,-327 547,-327"/>
</g>
<g id="clust40" class="cluster">
<title>outer_cluster_Inst&#45;2</title>
</g>
<g id="clust41" class="cluster">
<title>cluster_Inst&#45;2</title>
<path fill="#bebada" stroke="black" stroke-dasharray="5,2" d="M618,-248C618,-248 658,-248 658,-248 664,-248 670,-254 670,-260 670,-260 670,-278 670,-278 670,-284 664,-290 658,-290 658,-290 618,-290 618,-290 612,-290 606,-284 606,-278 606,-278 606,-260 606,-260 606,-254 612,-248 618,-248"/>
</g>
<g id="clust43" class="cluster">
<title>outer_cluster_String&#45;3</title>
</g>
<g id="clust44" class="cluster">
<title>cluster_String&#45;3</title>
<path fill="#fb8072" stroke="black" stroke-dasharray="5,2" d="M430,-90C430,-90 466,-90 466,-90 472,-90 478,-96 478,-102 478,-102 478,-120 478,-120 478,-126 472,-132 466,-132 466,-132 430,-132 430,-132 424,-132 418,-126 418,-120 418,-120 418,-102 418,-102 418,-96 424,-90 430,-90"/>
</g>
<g id="clust46" class="cluster">
<title>outer_cluster_String&#45;2</title>
</g>
<g id="clust47" class="cluster">
<title>cluster_String&#45;2</title>
<path fill="#fb8072" stroke="black" stroke-dasharray="5,2" d="M620,-169C620,-169 658,-169 658,-169 664,-169 670,-175 670,-181 670,-181 670,-199 670,-199 670,-205 664,-211 658,-211 658,-211 620,-211 620,-211 614,-211 608,-205 608,-199 608,-199 608,-181 608,-181 608,-175 614,-169 620,-169"/>
</g>
<g id="clust49" class="cluster">
<title>outer_cluster_String&#45;4</title>
</g>
<g id="clust50" class="cluster">
<title>cluster_String&#45;4</title>
<path fill="#fb8072" stroke="black" stroke-dasharray="5,2" d="M36,-90C36,-90 72,-90 72,-90 78,-90 84,-96 84,-102 84,-102 84,-120 84,-120 84,-126 78,-132 72,-132 72,-132 36,-132 36,-132 30,-132 24,-126 24,-120 24,-120 24,-102 24,-102 24,-96 30,-90 36,-90"/>
</g>
<g id="clust52" class="cluster">
<title>outer_cluster_String&#45;0</title>
</g>
<g id="clust53" class="cluster">
<title>cluster_String&#45;0</title>
<path fill="#fb8072" stroke="black" stroke-dasharray="5,2" d="M199,-11C199,-11 239,-11 239,-11 245,-11 251,-17 251,-23 251,-23 251,-41 251,-41 251,-47 245,-53 239,-53 239,-53 199,-53 199,-53 193,-53 187,-47 187,-41 187,-41 187,-23 187,-23 187,-17 193,-11 199,-11"/>
</g>
<g id="clust55" class="cluster">
<title>outer_cluster_String&#45;1</title>
</g>
<g id="clust56" class="cluster">
<title>cluster_String&#45;1</title>
<path fill="#fb8072" stroke="black" stroke-dasharray="5,2" d="M549,-169C549,-169 589,-169 589,-169 595,-169 601,-175 601,-181 601,-181 601,-199 601,-199 601,-205 595,-211 589,-211 589,-211 549,-211 549,-211 543,-211 537,-205 537,-199 537,-199 537,-181 537,-181 537,-175 543,-169 549,-169"/>
</g>
<g id="clust58" class="cluster">
<title>outer_cluster_i64&#45;4</title>
</g>
<g id="clust59" class="cluster">
<title>cluster_i64&#45;4</title>
<path fill="#80b1d3" stroke="black" stroke-dasharray="5,2" d="M291,-11C291,-11 327,-11 327,-11 333,-11 339,-17 339,-23 339,-23 339,-41 339,-41 339,-47 333,-53 327,-53 327,-53 291,-53 291,-53 285,-53 279,-47 279,-41 279,-41 279,-23 279,-23 279,-17 285,-11 291,-11"/>
</g>
<g id="clust61" class="cluster">
<title>outer_cluster_i64&#45;0</title>
</g>
<g id="clust62" class="cluster">
<title>cluster_i64&#45;0</title>
<path fill="#80b1d3" stroke="black" stroke-dasharray="5,2" d="M128,-11C128,-11 164,-11 164,-11 170,-11 176,-17 176,-23 176,-23 176,-41 176,-41 176,-47 170,-53 164,-53 164,-53 128,-53 128,-53 122,-53 116,-47 116,-41 116,-41 116,-23 116,-23 116,-17 122,-11 128,-11"/>
</g>
<!-- function&#45;1&#45;ImmVal&#45;&gt;primitive&#45;i64&#45;4 -->
<g id="edge1" class="edge">
<title>function&#45;1&#45;ImmVal:s&#45;&gt;primitive&#45;i64&#45;4</title>
<path fill="none" stroke="black" d="M309,-95C309,-81.84 309,-67.11 309,-55.3"/>
<polygon fill="black" stroke="black" points="310.75,-58 309,-53 307.25,-58 310.75,-58"/>
</g>
<!-- function&#45;0&#45;ImmLabel&#45;&gt;primitive&#45;String&#45;4 -->
<g id="edge2" class="edge">
<title>function&#45;0&#45;ImmLabel:s&#45;&gt;primitive&#45;String&#45;4</title>
<path fill="none" stroke="black" d="M54,-174C54,-160.84 54,-146.11 54,-134.3"/>
<polygon fill="black" stroke="black" points="55.75,-137 54,-132 52.25,-137 55.75,-137"/>
</g>
<!-- function&#45;0&#45;ImmVal&#45;&gt;primitive&#45;i64&#45;0 -->
<g id="edge3" class="edge">
<title>function&#45;0&#45;ImmVal:s&#45;&gt;primitive&#45;i64&#45;0</title>
<path fill="none" stroke="black" d="M146,-95C146,-81.84 146,-67.11 146,-55.3"/>
<polygon fill="black" stroke="black" points="147.75,-58 146,-53 144.25,-58 147.75,-58"/>
</g>
<!-- function&#45;0&#45;RegVal&#45;&gt;primitive&#45;String&#45;0 -->
<g id="edge4" class="edge">
<title>function&#45;0&#45;RegVal:s&#45;&gt;primitive&#45;String&#45;0</title>
<path fill="none" stroke="black" d="M219,-95C219,-81.84 219,-67.11 219,-55.3"/>
<polygon fill="black" stroke="black" points="220.75,-58 219,-53 217.25,-58 220.75,-58"/>
</g>
<!-- function&#45;0&#45;Beq&#45;&gt;function&#45;0&#45;ImmLabel -->
<g id="edge7" class="edge">
<title>function&#45;0&#45;Beq:s&#45;&gt;function&#45;0&#45;ImmLabel</title>
<path fill="none" stroke="black" d="M154,-332C154,-282.63 78.12,-333.57 50,-293 33.77,-269.58 39.12,-235.33 45.34,-213.1"/>
<polygon fill="black" stroke="black" points="45.4,-216.12 46.75,-211 42.5,-214.16 45.4,-216.12"/>
</g>
<!-- function&#45;0&#45;Beq&#45;&gt;function&#45;0&#45;Lw -->
<g id="edge5" class="edge">
<title>function&#45;0&#45;Beq:s&#45;&gt;function&#45;0&#45;Lw</title>
<path fill="none" stroke="black" d="M131,-332C131,-293.08 124.4,-280.21 141,-245 146.98,-232.32 157.13,-220.75 166.88,-211.6"/>
<polygon fill="black" stroke="black" points="164.67,-215.32 167.74,-211 162.65,-212.46 164.67,-215.32"/>
</g>
<!-- function&#45;0&#45;Beq&#45;&gt;function&#45;3&#45;RegVal -->
<g id="edge6" class="edge">
<title>function&#45;0&#45;Beq:s&#45;&gt;function&#45;3&#45;RegVal</title>
<path fill="none" stroke="black" d="M145,-332C145,-250.65 454.17,-353.09 509,-293 523.38,-277.24 517.84,-264.42 509,-245 502.79,-231.35 491.22,-219.8 479.75,-210.94"/>
<polygon fill="black" stroke="black" points="483.21,-213 479,-209.79 480.29,-214.93 483.21,-213"/>
</g>
<!-- function&#45;0&#45;Lw&#45;&gt;function&#45;0&#45;ImmVal -->
<g id="edge14" class="edge">
<title>function&#45;0&#45;Lw:s&#45;&gt;function&#45;0&#45;ImmVal</title>
<path fill="none" stroke="black" d="M201,-174C201,-157.31 189.71,-143.01 177.36,-132.37"/>
<polygon fill="black" stroke="black" points="181.78,-132.38 176.5,-132 180.39,-135.6 181.78,-132.38"/>
</g>
<!-- function&#45;0&#45;Lw&#45;&gt;function&#45;0&#45;RegVal -->
<g id="edge13" class="edge">
<title>function&#45;0&#45;Lw:s&#45;&gt;function&#45;0&#45;RegVal</title>
<path fill="none" stroke="black" d="M185,-174C185,-159.36 192.26,-144.81 199.97,-133.5"/>
<polygon fill="black" stroke="black" points="199.54,-137.08 201.04,-132 196.7,-135.03 199.54,-137.08"/>
</g>
<!-- function&#45;3&#45;RegVal&#45;&gt;primitive&#45;String&#45;3 -->
<g id="edge17" class="edge">
<title>function&#45;3&#45;RegVal:s&#45;&gt;primitive&#45;String&#45;3</title>
<path fill="none" stroke="black" d="M448,-174C448,-160.84 448,-146.11 448,-134.3"/>
<polygon fill="black" stroke="black" points="449.75,-137 448,-132 446.25,-137 449.75,-137"/>
</g>
<!-- function&#45;1&#45;Beq&#45;&gt;function&#45;0&#45;ImmLabel -->
<g id="edge10" class="edge">
<title>function&#45;1&#45;Beq:s&#45;&gt;function&#45;0&#45;ImmLabel</title>
<path fill="none" stroke="black" d="M212,-332C212,-262.69 105.56,-346.1 61,-293 51.21,-281.33 50.95,-239.49 51.84,-213.16"/>
<polygon fill="black" stroke="black" points="53.33,-216.14 52.03,-211 49.85,-215.83 53.33,-216.14"/>
</g>
<!-- function&#45;1&#45;Beq&#45;&gt;function&#45;0&#45;Lw -->
<g id="edge9" class="edge">
<title>function&#45;1&#45;Beq:s&#45;&gt;function&#45;0&#45;Lw</title>
<path fill="none" stroke="black" d="M203,-332C203,-302.4 162.48,-319.36 149,-293 139.29,-274.01 141.85,-265.1 149,-245 153.33,-232.84 161.7,-221.43 169.98,-212.26"/>
<polygon fill="black" stroke="black" points="168.77,-215.53 171.52,-211 166.54,-212.82 168.77,-215.53"/>
</g>
<!-- function&#45;1&#45;Beq&#45;&gt;function&#45;3&#45;RegVal -->
<g id="edge8" class="edge">
<title>function&#45;1&#45;Beq:s&#45;&gt;function&#45;3&#45;RegVal</title>
<path fill="none" stroke="black" d="M189,-332C189,-257.94 470.79,-348.35 520,-293 534.17,-277.06 529.6,-264.05 520,-245 511.58,-228.29 495.26,-215.46 480.19,-206.51"/>
<polygon fill="black" stroke="black" points="483.35,-207.89 479,-204.86 480.51,-209.94 483.35,-207.89"/>
</g>
<!-- function&#45;0&#45;Seq2&#45;&gt;function&#45;0&#45;Bne -->
<g id="edge11" class="edge">
<title>function&#45;0&#45;Seq2:s&#45;&gt;function&#45;0&#45;Bne</title>
<path fill="none" stroke="black" d="M71,-332C71,-269.12 150.62,-320.85 207,-293 207.34,-292.83 207.69,-292.66 208.03,-292.48"/>
<polygon fill="black" stroke="black" points="208.96,-293.96 212.47,-290 207.25,-290.91 208.96,-293.96"/>
</g>
<!-- function&#45;0&#45;Seq2&#45;&gt;function&#45;0&#45;Jal -->
<g id="edge12" class="edge">
<title>function&#45;0&#45;Seq2:s&#45;&gt;function&#45;0&#45;Jal</title>
<path fill="none" stroke="black" d="M93,-332C93,-318.84 92.77,-304.1 92.53,-292.3"/>
<polygon fill="black" stroke="black" points="94.41,-294.91 92.42,-290 90.91,-295.08 94.41,-294.91"/>
</g>
<!-- function&#45;0&#45;Bne&#45;&gt;function&#45;1&#45;ImmVal -->
<g id="edge29" class="edge">
<title>function&#45;0&#45;Bne:s&#45;&gt;function&#45;1&#45;ImmVal</title>
<path fill="none" stroke="black" d="M252,-253C252,-208.07 277.18,-160.58 294.07,-133.78"/>
<polygon fill="black" stroke="black" points="293.53,-136.73 295.91,-132 291.1,-134.21 293.53,-136.73"/>
</g>
<!-- function&#45;0&#45;Bne&#45;&gt;function&#45;0&#45;Lw -->
<g id="edge27" class="edge">
<title>function&#45;0&#45;Bne:s&#45;&gt;function&#45;0&#45;Lw</title>
<path fill="none" stroke="black" d="M229,-253C229,-238.03 221.06,-223.45 212.64,-212.19"/>
<polygon fill="black" stroke="black" points="216.22,-213.46 211.52,-211 213.66,-215.85 216.22,-213.46"/>
</g>
<!-- function&#45;0&#45;Bne&#45;&gt;function&#45;3&#45;RegVal -->
<g id="edge28" class="edge">
<title>function&#45;0&#45;Bne:s&#45;&gt;function&#45;3&#45;RegVal</title>
<path fill="none" stroke="black" d="M243,-253C243,-235.44 355.1,-209.84 413.11,-197.78"/>
<polygon fill="black" stroke="black" points="411.48,-200.68 415,-196.72 409.78,-197.62 411.48,-200.68"/>
</g>
<!-- function&#45;0&#45;Jal&#45;&gt;function&#45;0&#45;ImmLabel -->
<g id="edge16" class="edge">
<title>function&#45;0&#45;Jal:s&#45;&gt;function&#45;0&#45;ImmLabel</title>
<path fill="none" stroke="black" d="M92,-253C92,-237.82 83.52,-223.32 74.48,-212.17"/>
<polygon fill="black" stroke="black" points="78.05,-212.95 73.13,-211 75.76,-215.6 78.05,-212.95"/>
</g>
<!-- function&#45;1&#45;RegVal&#45;&gt;primitive&#45;String&#45;1 -->
<g id="edge15" class="edge">
<title>function&#45;1&#45;RegVal:s&#45;&gt;primitive&#45;String&#45;1</title>
<path fill="none" stroke="black" d="M569,-253C569,-239.84 569,-225.11 569,-213.3"/>
<polygon fill="black" stroke="black" points="570.75,-216 569,-211 567.25,-216 570.75,-216"/>
</g>
<!-- function&#45;1&#45;Jal&#45;&gt;function&#45;1&#45;ImmVal -->
<g id="edge18" class="edge">
<title>function&#45;1&#45;Jal:s&#45;&gt;function&#45;1&#45;ImmVal</title>
<path fill="none" stroke="black" d="M309,-174C309,-160.84 309,-146.11 309,-134.3"/>
<polygon fill="black" stroke="black" points="310.75,-137 309,-132 307.25,-137 310.75,-137"/>
</g>
<!-- function&#45;2&#45;Beq&#45;&gt;function&#45;1&#45;ImmVal -->
<g id="edge21" class="edge">
<title>function&#45;2&#45;Beq:s&#45;&gt;function&#45;1&#45;ImmVal</title>
<path fill="none" stroke="black" d="M492,-253C492,-214.24 443.06,-239.65 414,-214 394.78,-197.03 399.68,-184.57 382,-166 369.88,-153.27 354.48,-141.39 340.94,-132.03"/>
<polygon fill="black" stroke="black" points="346.08,-131.5 340.81,-132 345.24,-134.9 346.08,-131.5"/>
</g>
<!-- function&#45;2&#45;Beq&#45;&gt;function&#45;0&#45;Lw -->
<g id="edge19" class="edge">
<title>function&#45;2&#45;Beq:s&#45;&gt;function&#45;0&#45;Lw</title>
<path fill="none" stroke="black" d="M469,-253C469,-242.6 457.04,-247.73 447,-245 373.3,-224.99 352.48,-230.88 278,-214 260.45,-210.02 241.07,-204.84 225.26,-200.4"/>
<polygon fill="black" stroke="black" points="228.14,-200.2 223,-198.93 226.23,-203.13 228.14,-200.2"/>
</g>
<!-- function&#45;2&#45;Beq&#45;&gt;function&#45;3&#45;RegVal -->
<g id="edge20" class="edge">
<title>function&#45;2&#45;Beq:s&#45;&gt;function&#45;3&#45;RegVal</title>
<path fill="none" stroke="black" d="M483,-253C483,-238.03 475.06,-223.45 466.64,-212.19"/>
<polygon fill="black" stroke="black" points="470.22,-213.46 465.52,-211 467.66,-215.85 470.22,-213.46"/>
</g>
<!-- function&#45;3&#45;Beq&#45;&gt;function&#45;1&#45;ImmVal -->
<g id="edge24" class="edge">
<title>function&#45;3&#45;Beq:s&#45;&gt;function&#45;1&#45;ImmVal</title>
<path fill="none" stroke="black" d="M434,-253C434,-229.71 414.48,-231.4 399,-214 374.13,-186.05 345.57,-153.63 327.41,-132.97"/>
<polygon fill="black" stroke="black" points="331.07,-133.27 325.93,-132 329.15,-136.2 331.07,-133.27"/>
</g>
<!-- function&#45;3&#45;Beq&#45;&gt;function&#45;0&#45;Lw -->
<g id="edge23" class="edge">
<title>function&#45;3&#45;Beq:s&#45;&gt;function&#45;0&#45;Lw</title>
<path fill="none" stroke="black" d="M425,-253C425,-185.41 343.29,-231.49 278,-214 260.62,-209.34 241.25,-204.11 225.4,-199.81"/>
<polygon fill="black" stroke="black" points="228.2,-199.43 223,-198.39 226.41,-202.44 228.2,-199.43"/>
</g>
<!-- function&#45;3&#45;Beq&#45;&gt;function&#45;3&#45;RegVal -->
<g id="edge22" class="edge">
<title>function&#45;3&#45;Beq:s&#45;&gt;function&#45;3&#45;RegVal</title>
<path fill="none" stroke="black" d="M411,-253C411,-238.03 418.94,-223.45 427.36,-212.19"/>
<polygon fill="black" stroke="black" points="426.34,-215.85 428.48,-211 423.78,-213.46 426.34,-215.85"/>
</g>
<!-- function&#45;2&#45;Seq2&#45;&gt;function&#45;1&#45;Jal -->
<g id="edge26" class="edge">
<title>function&#45;2&#45;Seq2:s&#45;&gt;function&#45;1&#45;Jal</title>
<path fill="none" stroke="black" d="M373,-253C373,-233.06 356.78,-217.48 340.67,-206.93"/>
<polygon fill="black" stroke="black" points="343.65,-207.62 339,-205.09 341.06,-209.97 343.65,-207.62"/>
</g>
<!-- function&#45;2&#45;Seq2&#45;&gt;function&#45;1&#45;Seq2 -->
<g id="edge25" class="edge">
<title>function&#45;2&#45;Seq2:s&#45;&gt;function&#45;1&#45;Seq2</title>
<path fill="none" stroke="black" d="M351,-253C351,-241.59 339.78,-243.91 327.57,-249.8"/>
<polygon fill="black" stroke="black" points="328.71,-246.57 326,-251.12 330.96,-249.26 328.71,-246.57"/>
</g>
<!-- function&#45;1&#45;Seq2&#45;&gt;function&#45;1&#45;Jal -->
<g id="edge34" class="edge">
<title>function&#45;1&#45;Seq2:s&#45;&gt;function&#45;1&#45;Jal</title>
<path fill="none" stroke="black" d="M307,-253C307,-239.83 307.46,-225.1 307.93,-213.3"/>
<polygon fill="black" stroke="black" points="309.42,-216.14 308.15,-211 305.94,-215.81 309.42,-216.14"/>
</g>
<!-- function&#45;1&#45;Seq2&#45;&gt;function&#45;2&#45;Beq -->
<g id="edge33" class="edge">
<title>function&#45;1&#45;Seq2:s&#45;&gt;function&#45;2&#45;Beq</title>
<path fill="none" stroke="black" d="M285,-253C285,-178.07 407.84,-204.55 445,-223.5 454.53,-228.36 461.96,-237.41 467.33,-246.17"/>
<polygon fill="black" stroke="black" points="464.37,-245.62 469.1,-248 466.88,-243.19 464.37,-245.62"/>
</g>
<!-- function&#45;1&#45;Bne&#45;&gt;function&#45;1&#45;ImmVal -->
<g id="edge32" class="edge">
<title>function&#45;1&#45;Bne:s&#45;&gt;function&#45;1&#45;ImmVal</title>
<path fill="none" stroke="black" d="M194,-253C194,-231.13 211.26,-231.77 224,-214 238.94,-193.16 239.84,-185.9 256,-166 265.36,-154.48 276.78,-142.61 286.62,-132.94"/>
<polygon fill="black" stroke="black" points="284.8,-135.84 288.45,-132 283.2,-132.73 284.8,-135.84"/>
</g>
<!-- function&#45;1&#45;Bne&#45;&gt;function&#45;0&#45;Lw -->
<g id="edge31" class="edge">
<title>function&#45;1&#45;Bne:s&#45;&gt;function&#45;0&#45;Lw</title>
<path fill="none" stroke="black" d="M185,-253C185,-239.73 186.83,-224.99 188.73,-213.22"/>
<polygon fill="black" stroke="black" points="189.4,-216.29 189.61,-211 186.14,-215.01 189.4,-216.29"/>
</g>
<!-- function&#45;1&#45;Bne&#45;&gt;function&#45;3&#45;RegVal -->
<g id="edge30" class="edge">
<title>function&#45;1&#45;Bne:s&#45;&gt;function&#45;3&#45;RegVal</title>
<path fill="none" stroke="black" d="M171,-253C171,-251.47 339.37,-214.5 413.1,-198.39"/>
<polygon fill="black" stroke="black" points="411.59,-201.32 415,-197.27 409.81,-198.31 411.59,-201.32"/>
</g>
<!-- function&#45;0&#45;Add&#45;&gt;function&#45;1&#45;RegVal -->
<g id="edge35" class="edge">
<title>function&#45;0&#45;Add:s&#45;&gt;function&#45;1&#45;RegVal</title>
<path fill="none" stroke="black" d="M614,-332C614,-316.1 604.13,-301.63 593.53,-290.67"/>
<polygon fill="black" stroke="black" points="597.21,-290.32 591.92,-290 595.86,-293.54 597.21,-290.32"/>
</g>
<!-- function&#45;0&#45;Add&#45;&gt;function&#45;2&#45;RegVal -->
<g id="edge36" class="edge">
<title>function&#45;0&#45;Add:s&#45;&gt;function&#45;2&#45;RegVal</title>
<path fill="none" stroke="black" d="M632,-332C632,-318.78 633.37,-304.04 634.8,-292.25"/>
<polygon fill="black" stroke="black" points="635.74,-295.29 635.46,-290 632.38,-294.31 635.74,-295.29"/>
</g>
<!-- function&#45;2&#45;RegVal&#45;&gt;primitive&#45;String&#45;2 -->
<g id="edge39" class="edge">
<title>function&#45;2&#45;RegVal:s&#45;&gt;primitive&#45;String&#45;2</title>
<path fill="none" stroke="black" d="M639,-253C639,-239.84 639,-225.11 639,-213.3"/>
<polygon fill="black" stroke="black" points="640.75,-216 639,-211 637.25,-216 640.75,-216"/>
</g>
<!-- function&#45;1&#45;Add&#45;&gt;function&#45;1&#45;RegVal -->
<g id="edge38" class="edge">
<title>function&#45;1&#45;Add:s&#45;&gt;function&#45;1&#45;RegVal</title>
<path fill="none" stroke="black" d="M574,-332C574,-318.78 572.63,-304.04 571.2,-292.25"/>
<polygon fill="black" stroke="black" points="573.62,-294.31 570.54,-290 570.26,-295.29 573.62,-294.31"/>
</g>
<!-- function&#45;1&#45;Add&#45;&gt;function&#45;2&#45;RegVal -->
<g id="edge37" class="edge">
<title>function&#45;1&#45;Add:s&#45;&gt;function&#45;2&#45;RegVal</title>
<path fill="none" stroke="black" d="M556,-332C556,-325.36 583.68,-305.51 606.88,-290.04"/>
<polygon fill="black" stroke="black" points="602.42,-292.39 607.15,-290 601.96,-288.92 602.42,-292.39"/>
</g>
<!-- function&#45;1&#45;ImmVal -->
<g id="node1" class="node">
<title>function&#45;1&#45;ImmVal</title>
<g id="a_node1"><a xlink:title="Imm&#45;9: function&#45;1&#45;ImmVal">
<path fill="white" stroke="transparent" d="M288.67,-95C288.67,-95 329.33,-95 329.33,-95 334.67,-95 340,-100.33 340,-105.67 340,-105.67 340,-116.33 340,-116.33 340,-121.67 334.67,-127 329.33,-127 329.33,-127 288.67,-127 288.67,-127 283.33,-127 278,-121.67 278,-116.33 278,-116.33 278,-105.67 278,-105.67 278,-100.33 283.33,-95 288.67,-95"/>
<text text-anchor="start" x="283" y="-107.3" font-family="Helvetica,sans-Serif" font-size="14.00">ImmVal</text>
<path fill="none" stroke="black" d="M288.67,-95C288.67,-95 329.33,-95 329.33,-95 334.67,-95 340,-100.33 340,-105.67 340,-105.67 340,-116.33 340,-116.33 340,-121.67 334.67,-127 329.33,-127 329.33,-127 288.67,-127 288.67,-127 283.33,-127 278,-121.67 278,-116.33 278,-116.33 278,-105.67 278,-105.67 278,-100.33 283.33,-95 288.67,-95"/>
</a>
</g>
</g>
<!-- primitive&#45;i64&#45;4 -->
<g id="node2" class="node">
<title>primitive&#45;i64&#45;4</title>
<g id="a_node2"><a xlink:title="i64&#45;4: primitive&#45;i64&#45;4">
<path fill="white" stroke="transparent" d="M303.67,-16C303.67,-16 314.33,-16 314.33,-16 319.67,-16 325,-21.33 325,-26.67 325,-26.67 325,-37.33 325,-37.33 325,-42.67 319.67,-48 314.33,-48 314.33,-48 303.67,-48 303.67,-48 298.33,-48 293,-42.67 293,-37.33 293,-37.33 293,-26.67 293,-26.67 293,-21.33 298.33,-16 303.67,-16"/>
<text text-anchor="start" x="304" y="-28.3" font-family="Helvetica,sans-Serif" font-size="14.00">4</text>
<path fill="none" stroke="black" d="M303.67,-16C303.67,-16 314.33,-16 314.33,-16 319.67,-16 325,-21.33 325,-26.67 325,-26.67 325,-37.33 325,-37.33 325,-42.67 319.67,-48 314.33,-48 314.33,-48 303.67,-48 303.67,-48 298.33,-48 293,-42.67 293,-37.33 293,-37.33 293,-26.67 293,-26.67 293,-21.33 298.33,-16 303.67,-16"/>
</a>
</g>
</g>
<!-- function&#45;0&#45;ImmLabel -->
<g id="node3" class="node">
<title>function&#45;0&#45;ImmLabel</title>
<g id="a_node3"><a xlink:title="Imm&#45;7: function&#45;0&#45;ImmLabel">
<path fill="white" stroke="transparent" d="M24.17,-174C24.17,-174 81.83,-174 81.83,-174 87.17,-174 92.5,-179.33 92.5,-184.67 92.5,-184.67 92.5,-195.33 92.5,-195.33 92.5,-200.67 87.17,-206 81.83,-206 81.83,-206 24.17,-206 24.17,-206 18.83,-206 13.5,-200.67 13.5,-195.33 13.5,-195.33 13.5,-184.67 13.5,-184.67 13.5,-179.33 18.83,-174 24.17,-174"/>
<text text-anchor="start" x="19" y="-186.3" font-family="Helvetica,sans-Serif" font-size="14.00">ImmLabel</text>
<path fill="none" stroke="black" d="M24.17,-174C24.17,-174 81.83,-174 81.83,-174 87.17,-174 92.5,-179.33 92.5,-184.67 92.5,-184.67 92.5,-195.33 92.5,-195.33 92.5,-200.67 87.17,-206 81.83,-206 81.83,-206 24.17,-206 24.17,-206 18.83,-206 13.5,-200.67 13.5,-195.33 13.5,-195.33 13.5,-184.67 13.5,-184.67 13.5,-179.33 18.83,-174 24.17,-174"/>
</a>
</g>
</g>
<!-- primitive&#45;String&#45;4 -->
<g id="node4" class="node">
<title>primitive&#45;String&#45;4</title>
<g id="a_node4"><a xlink:title="String&#45;4: primitive&#45;String&#45;4">
<path fill="white" stroke="transparent" d="M37.67,-95C37.67,-95 70.33,-95 70.33,-95 75.67,-95 81,-100.33 81,-105.67 81,-105.67 81,-116.33 81,-116.33 81,-121.67 75.67,-127 70.33,-127 70.33,-127 37.67,-127 37.67,-127 32.33,-127 27,-121.67 27,-116.33 27,-116.33 27,-105.67 27,-105.67 27,-100.33 32.33,-95 37.67,-95"/>
<text text-anchor="start" x="32" y="-107.3" font-family="Helvetica,sans-Serif" font-size="14.00">&quot;.L26&quot;</text>
<path fill="none" stroke="black" d="M37.67,-95C37.67,-95 70.33,-95 70.33,-95 75.67,-95 81,-100.33 81,-105.67 81,-105.67 81,-116.33 81,-116.33 81,-121.67 75.67,-127 70.33,-127 70.33,-127 37.67,-127 37.67,-127 32.33,-127 27,-121.67 27,-116.33 27,-116.33 27,-105.67 27,-105.67 27,-100.33 32.33,-95 37.67,-95"/>
</a>
</g>
</g>
<!-- function&#45;0&#45;ImmVal -->
<g id="node5" class="node">
<title>function&#45;0&#45;ImmVal</title>
<g id="a_node5"><a xlink:title="Imm&#45;4: function&#45;0&#45;ImmVal">
<path fill="white" stroke="transparent" d="M125.67,-95C125.67,-95 166.33,-95 166.33,-95 171.67,-95 177,-100.33 177,-105.67 177,-105.67 177,-116.33 177,-116.33 177,-121.67 171.67,-127 166.33,-127 166.33,-127 125.67,-127 125.67,-127 120.33,-127 115,-121.67 115,-116.33 115,-116.33 115,-105.67 115,-105.67 115,-100.33 120.33,-95 125.67,-95"/>
<text text-anchor="start" x="120" y="-107.3" font-family="Helvetica,sans-Serif" font-size="14.00">ImmVal</text>
<path fill="none" stroke="black" d="M125.67,-95C125.67,-95 166.33,-95 166.33,-95 171.67,-95 177,-100.33 177,-105.67 177,-105.67 177,-116.33 177,-116.33 177,-121.67 171.67,-127 166.33,-127 166.33,-127 125.67,-127 125.67,-127 120.33,-127 115,-121.67 115,-116.33 115,-116.33 115,-105.67 115,-105.67 115,-100.33 120.33,-95 125.67,-95"/>
</a>
</g>
</g>
<!-- primitive&#45;i64&#45;0 -->
<g id="node6" class="node">
<title>primitive&#45;i64&#45;0</title>
<g id="a_node6"><a xlink:title="i64&#45;0: primitive&#45;i64&#45;0">
<path fill="white" stroke="transparent" d="M140.67,-16C140.67,-16 151.33,-16 151.33,-16 156.67,-16 162,-21.33 162,-26.67 162,-26.67 162,-37.33 162,-37.33 162,-42.67 156.67,-48 151.33,-48 151.33,-48 140.67,-48 140.67,-48 135.33,-48 130,-42.67 130,-37.33 130,-37.33 130,-26.67 130,-26.67 130,-21.33 135.33,-16 140.67,-16"/>
<text text-anchor="start" x="141" y="-28.3" font-family="Helvetica,sans-Serif" font-size="14.00">0</text>
<path fill="none" stroke="black" d="M140.67,-16C140.67,-16 151.33,-16 151.33,-16 156.67,-16 162,-21.33 162,-26.67 162,-26.67 162,-37.33 162,-37.33 162,-42.67 156.67,-48 151.33,-48 151.33,-48 140.67,-48 140.67,-48 135.33,-48 130,-42.67 130,-37.33 130,-37.33 130,-26.67 130,-26.67 130,-21.33 135.33,-16 140.67,-16"/>
</a>
</g>
</g>
<!-- function&#45;0&#45;RegVal -->
<g id="node7" class="node">
<title>function&#45;0&#45;RegVal</title>
<g id="a_node7"><a xlink:title="Inst&#45;0: function&#45;0&#45;RegVal">
<path fill="white" stroke="transparent" d="M200.17,-95C200.17,-95 235.83,-95 235.83,-95 241.17,-95 246.5,-100.33 246.5,-105.67 246.5,-105.67 246.5,-116.33 246.5,-116.33 246.5,-121.67 241.17,-127 235.83,-127 235.83,-127 200.17,-127 200.17,-127 194.83,-127 189.5,-121.67 189.5,-116.33 189.5,-116.33 189.5,-105.67 189.5,-105.67 189.5,-100.33 194.83,-95 200.17,-95"/>
<text text-anchor="start" x="195" y="-107.3" font-family="Helvetica,sans-Serif" font-size="14.00">RegVal</text>
<path fill="none" stroke="black" d="M200.17,-95C200.17,-95 235.83,-95 235.83,-95 241.17,-95 246.5,-100.33 246.5,-105.67 246.5,-105.67 246.5,-116.33 246.5,-116.33 246.5,-121.67 241.17,-127 235.83,-127 235.83,-127 200.17,-127 200.17,-127 194.83,-127 189.5,-121.67 189.5,-116.33 189.5,-116.33 189.5,-105.67 189.5,-105.67 189.5,-100.33 194.83,-95 200.17,-95"/>
</a>
</g>
</g>
<!-- primitive&#45;String&#45;0 -->
<g id="node8" class="node">
<title>primitive&#45;String&#45;0</title>
<g id="a_node8"><a xlink:title="String&#45;0: primitive&#45;String&#45;0">
<path fill="white" stroke="transparent" d="M201.17,-16C201.17,-16 236.83,-16 236.83,-16 242.17,-16 247.5,-21.33 247.5,-26.67 247.5,-26.67 247.5,-37.33 247.5,-37.33 247.5,-42.67 242.17,-48 236.83,-48 236.83,-48 201.17,-48 201.17,-48 195.83,-48 190.5,-42.67 190.5,-37.33 190.5,-37.33 190.5,-26.67 190.5,-26.67 190.5,-21.33 195.83,-16 201.17,-16"/>
<text text-anchor="start" x="196" y="-28.3" font-family="Helvetica,sans-Serif" font-size="14.00">&quot;a3_0&quot;</text>
<path fill="none" stroke="black" d="M201.17,-16C201.17,-16 236.83,-16 236.83,-16 242.17,-16 247.5,-21.33 247.5,-26.67 247.5,-26.67 247.5,-37.33 247.5,-37.33 247.5,-42.67 242.17,-48 236.83,-48 236.83,-48 201.17,-48 201.17,-48 195.83,-48 190.5,-42.67 190.5,-37.33 190.5,-37.33 190.5,-26.67 190.5,-26.67 190.5,-21.33 195.83,-16 201.17,-16"/>
</a>
</g>
</g>
<!-- function&#45;0&#45;Beq -->
<g id="node9" class="node">
<title>function&#45;0&#45;Beq</title>
<g id="a_node9"><a xlink:title="Inst&#45;8: function&#45;0&#45;Beq">
<path fill="white" stroke="transparent" d="M131.67,-332C131.67,-332 148.33,-332 148.33,-332 153.67,-332 159,-337.33 159,-342.67 159,-342.67 159,-353.33 159,-353.33 159,-358.67 153.67,-364 148.33,-364 148.33,-364 131.67,-364 131.67,-364 126.33,-364 121,-358.67 121,-353.33 121,-353.33 121,-342.67 121,-342.67 121,-337.33 126.33,-332 131.67,-332"/>
<text text-anchor="start" x="126" y="-344.3" font-family="Helvetica,sans-Serif" font-size="14.00">Beq</text>
<path fill="none" stroke="black" d="M131.67,-332C131.67,-332 148.33,-332 148.33,-332 153.67,-332 159,-337.33 159,-342.67 159,-342.67 159,-353.33 159,-353.33 159,-358.67 153.67,-364 148.33,-364 148.33,-364 131.67,-364 131.67,-364 126.33,-364 121,-358.67 121,-353.33 121,-353.33 121,-342.67 121,-342.67 121,-337.33 126.33,-332 131.67,-332"/>
</a>
</g>
</g>
<!-- function&#45;0&#45;Lw -->
<g id="node10" class="node">
<title>function&#45;0&#45;Lw</title>
<g id="a_node10"><a xlink:title="Inst&#45;5: function&#45;0&#45;Lw">
<path fill="white" stroke="transparent" d="M187.67,-174C187.67,-174 198.33,-174 198.33,-174 203.67,-174 209,-179.33 209,-184.67 209,-184.67 209,-195.33 209,-195.33 209,-200.67 203.67,-206 198.33,-206 198.33,-206 187.67,-206 187.67,-206 182.33,-206 177,-200.67 177,-195.33 177,-195.33 177,-184.67 177,-184.67 177,-179.33 182.33,-174 187.67,-174"/>
<text text-anchor="start" x="183.5" y="-186.3" font-family="Helvetica,sans-Serif" font-size="14.00">Lw</text>
<path fill="none" stroke="black" d="M187.67,-174C187.67,-174 198.33,-174 198.33,-174 203.67,-174 209,-179.33 209,-184.67 209,-184.67 209,-195.33 209,-195.33 209,-200.67 203.67,-206 198.33,-206 198.33,-206 187.67,-206 187.67,-206 182.33,-206 177,-200.67 177,-195.33 177,-195.33 177,-184.67 177,-184.67 177,-179.33 182.33,-174 187.67,-174"/>
</a>
</g>
</g>
<!-- function&#45;3&#45;RegVal -->
<g id="node11" class="node">
<title>function&#45;3&#45;RegVal</title>
<g id="a_node11"><a xlink:title="Inst&#45;3: function&#45;3&#45;RegVal">
<path fill="white" stroke="transparent" d="M429.17,-174C429.17,-174 464.83,-174 464.83,-174 470.17,-174 475.5,-179.33 475.5,-184.67 475.5,-184.67 475.5,-195.33 475.5,-195.33 475.5,-200.67 470.17,-206 464.83,-206 464.83,-206 429.17,-206 429.17,-206 423.83,-206 418.5,-200.67 418.5,-195.33 418.5,-195.33 418.5,-184.67 418.5,-184.67 418.5,-179.33 423.83,-174 429.17,-174"/>
<text text-anchor="start" x="424" y="-186.3" font-family="Helvetica,sans-Serif" font-size="14.00">RegVal</text>
<path fill="none" stroke="black" d="M429.17,-174C429.17,-174 464.83,-174 464.83,-174 470.17,-174 475.5,-179.33 475.5,-184.67 475.5,-184.67 475.5,-195.33 475.5,-195.33 475.5,-200.67 470.17,-206 464.83,-206 464.83,-206 429.17,-206 429.17,-206 423.83,-206 418.5,-200.67 418.5,-195.33 418.5,-195.33 418.5,-184.67 418.5,-184.67 418.5,-179.33 423.83,-174 429.17,-174"/>
</a>
</g>
</g>
<!-- function&#45;1&#45;Beq -->
<g id="node12" class="node">
<title>function&#45;1&#45;Beq</title>
<g id="a_node12"><a xlink:title="Inst&#45;8: function&#45;1&#45;Beq">
<path fill="white" stroke="transparent" d="M189.67,-332C189.67,-332 206.33,-332 206.33,-332 211.67,-332 217,-337.33 217,-342.67 217,-342.67 217,-353.33 217,-353.33 217,-358.67 211.67,-364 206.33,-364 206.33,-364 189.67,-364 189.67,-364 184.33,-364 179,-358.67 179,-353.33 179,-353.33 179,-342.67 179,-342.67 179,-337.33 184.33,-332 189.67,-332"/>
<text text-anchor="start" x="184" y="-344.3" font-family="Helvetica,sans-Serif" font-size="14.00">Beq</text>
<path fill="none" stroke="black" d="M189.67,-332C189.67,-332 206.33,-332 206.33,-332 211.67,-332 217,-337.33 217,-342.67 217,-342.67 217,-353.33 217,-353.33 217,-358.67 211.67,-364 206.33,-364 206.33,-364 189.67,-364 189.67,-364 184.33,-364 179,-358.67 179,-353.33 179,-353.33 179,-342.67 179,-342.67 179,-337.33 184.33,-332 189.67,-332"/>
</a>
</g>
</g>
<!-- function&#45;0&#45;Seq2 -->
<g id="node13" class="node">
<title>function&#45;0&#45;Seq2</title>
<g id="a_node13"><a xlink:title="Inst&#45;8: function&#45;0&#45;Seq2">
<path fill="white" stroke="transparent" d="M69.67,-332C69.67,-332 94.33,-332 94.33,-332 99.67,-332 105,-337.33 105,-342.67 105,-342.67 105,-353.33 105,-353.33 105,-358.67 99.67,-364 94.33,-364 94.33,-364 69.67,-364 69.67,-364 64.33,-364 59,-358.67 59,-353.33 59,-353.33 59,-342.67 59,-342.67 59,-337.33 64.33,-332 69.67,-332"/>
<text text-anchor="start" x="64" y="-344.3" font-family="Helvetica,sans-Serif" font-size="14.00">Seq2</text>
<path fill="none" stroke="black" d="M69.67,-332C69.67,-332 94.33,-332 94.33,-332 99.67,-332 105,-337.33 105,-342.67 105,-342.67 105,-353.33 105,-353.33 105,-358.67 99.67,-364 94.33,-364 94.33,-364 69.67,-364 69.67,-364 64.33,-364 59,-358.67 59,-353.33 59,-353.33 59,-342.67 59,-342.67 59,-337.33 64.33,-332 69.67,-332"/>
</a>
</g>
</g>
<!-- function&#45;0&#45;Bne -->
<g id="node14" class="node">
<title>function&#45;0&#45;Bne</title>
<g id="a_node14"><a xlink:title="Inst&#45;10: function&#45;0&#45;Bne">
<path fill="white" stroke="transparent" d="M229.67,-253C229.67,-253 246.33,-253 246.33,-253 251.67,-253 257,-258.33 257,-263.67 257,-263.67 257,-274.33 257,-274.33 257,-279.67 251.67,-285 246.33,-285 246.33,-285 229.67,-285 229.67,-285 224.33,-285 219,-279.67 219,-274.33 219,-274.33 219,-263.67 219,-263.67 219,-258.33 224.33,-253 229.67,-253"/>
<text text-anchor="start" x="224" y="-265.3" font-family="Helvetica,sans-Serif" font-size="14.00">Bne</text>
<path fill="none" stroke="black" d="M229.67,-253C229.67,-253 246.33,-253 246.33,-253 251.67,-253 257,-258.33 257,-263.67 257,-263.67 257,-274.33 257,-274.33 257,-279.67 251.67,-285 246.33,-285 246.33,-285 229.67,-285 229.67,-285 224.33,-285 219,-279.67 219,-274.33 219,-274.33 219,-263.67 219,-263.67 219,-258.33 224.33,-253 229.67,-253"/>
</a>
</g>
</g>
<!-- function&#45;0&#45;Jal -->
<g id="node15" class="node">
<title>function&#45;0&#45;Jal</title>
<g id="a_node15"><a xlink:title="Inst&#45;11: function&#45;0&#45;Jal">
<path fill="white" stroke="transparent" d="M86.67,-253C86.67,-253 97.33,-253 97.33,-253 102.67,-253 108,-258.33 108,-263.67 108,-263.67 108,-274.33 108,-274.33 108,-279.67 102.67,-285 97.33,-285 97.33,-285 86.67,-285 86.67,-285 81.33,-285 76,-279.67 76,-274.33 76,-274.33 76,-263.67 76,-263.67 76,-258.33 81.33,-253 86.67,-253"/>
<text text-anchor="start" x="83.5" y="-265.3" font-family="Helvetica,sans-Serif" font-size="14.00">Jal</text>
<path fill="none" stroke="black" d="M86.67,-253C86.67,-253 97.33,-253 97.33,-253 102.67,-253 108,-258.33 108,-263.67 108,-263.67 108,-274.33 108,-274.33 108,-279.67 102.67,-285 97.33,-285 97.33,-285 86.67,-285 86.67,-285 81.33,-285 76,-279.67 76,-274.33 76,-274.33 76,-263.67 76,-263.67 76,-258.33 81.33,-253 86.67,-253"/>
</a>
</g>
</g>
<!-- function&#45;1&#45;RegVal -->
<g id="node16" class="node">
<title>function&#45;1&#45;RegVal</title>
<g id="a_node16"><a xlink:title="Inst&#45;1: function&#45;1&#45;RegVal">
<path fill="white" stroke="transparent" d="M550.17,-253C550.17,-253 585.83,-253 585.83,-253 591.17,-253 596.5,-258.33 596.5,-263.67 596.5,-263.67 596.5,-274.33 596.5,-274.33 596.5,-279.67 591.17,-285 585.83,-285 585.83,-285 550.17,-285 550.17,-285 544.83,-285 539.5,-279.67 539.5,-274.33 539.5,-274.33 539.5,-263.67 539.5,-263.67 539.5,-258.33 544.83,-253 550.17,-253"/>
<text text-anchor="start" x="545" y="-265.3" font-family="Helvetica,sans-Serif" font-size="14.00">RegVal</text>
<path fill="none" stroke="black" d="M550.17,-253C550.17,-253 585.83,-253 585.83,-253 591.17,-253 596.5,-258.33 596.5,-263.67 596.5,-263.67 596.5,-274.33 596.5,-274.33 596.5,-279.67 591.17,-285 585.83,-285 585.83,-285 550.17,-285 550.17,-285 544.83,-285 539.5,-279.67 539.5,-274.33 539.5,-274.33 539.5,-263.67 539.5,-263.67 539.5,-258.33 544.83,-253 550.17,-253"/>
</a>
</g>
</g>
<!-- primitive&#45;String&#45;1 -->
<g id="node17" class="node">
<title>primitive&#45;String&#45;1</title>
<g id="a_node17"><a xlink:title="String&#45;1: primitive&#45;String&#45;1">
<path fill="white" stroke="transparent" d="M551.17,-174C551.17,-174 586.83,-174 586.83,-174 592.17,-174 597.5,-179.33 597.5,-184.67 597.5,-184.67 597.5,-195.33 597.5,-195.33 597.5,-200.67 592.17,-206 586.83,-206 586.83,-206 551.17,-206 551.17,-206 545.83,-206 540.5,-200.67 540.5,-195.33 540.5,-195.33 540.5,-184.67 540.5,-184.67 540.5,-179.33 545.83,-174 551.17,-174"/>
<text text-anchor="start" x="546" y="-186.3" font-family="Helvetica,sans-Serif" font-size="14.00">&quot;a7_0&quot;</text>
<path fill="none" stroke="black" d="M551.17,-174C551.17,-174 586.83,-174 586.83,-174 592.17,-174 597.5,-179.33 597.5,-184.67 597.5,-184.67 597.5,-195.33 597.5,-195.33 597.5,-200.67 592.17,-206 586.83,-206 586.83,-206 551.17,-206 551.17,-206 545.83,-206 540.5,-200.67 540.5,-195.33 540.5,-195.33 540.5,-184.67 540.5,-184.67 540.5,-179.33 545.83,-174 551.17,-174"/>
</a>
</g>
</g>
<!-- primitive&#45;String&#45;3 -->
<g id="node18" class="node">
<title>primitive&#45;String&#45;3</title>
<g id="a_node18"><a xlink:title="String&#45;3: primitive&#45;String&#45;3">
<path fill="white" stroke="transparent" d="M431.67,-95C431.67,-95 464.33,-95 464.33,-95 469.67,-95 475,-100.33 475,-105.67 475,-105.67 475,-116.33 475,-116.33 475,-121.67 469.67,-127 464.33,-127 464.33,-127 431.67,-127 431.67,-127 426.33,-127 421,-121.67 421,-116.33 421,-116.33 421,-105.67 421,-105.67 421,-100.33 426.33,-95 431.67,-95"/>
<text text-anchor="start" x="426" y="-107.3" font-family="Helvetica,sans-Serif" font-size="14.00">&quot;t5_0&quot;</text>
<path fill="none" stroke="black" d="M431.67,-95C431.67,-95 464.33,-95 464.33,-95 469.67,-95 475,-100.33 475,-105.67 475,-105.67 475,-116.33 475,-116.33 475,-121.67 469.67,-127 464.33,-127 464.33,-127 431.67,-127 431.67,-127 426.33,-127 421,-121.67 421,-116.33 421,-116.33 421,-105.67 421,-105.67 421,-100.33 426.33,-95 431.67,-95"/>
</a>
</g>
</g>
<!-- function&#45;1&#45;Jal -->
<g id="node19" class="node">
<title>function&#45;1&#45;Jal</title>
<g id="a_node19"><a xlink:title="Inst&#45;14: function&#45;1&#45;Jal">
<path fill="white" stroke="transparent" d="M303.67,-174C303.67,-174 314.33,-174 314.33,-174 319.67,-174 325,-179.33 325,-184.67 325,-184.67 325,-195.33 325,-195.33 325,-200.67 319.67,-206 314.33,-206 314.33,-206 303.67,-206 303.67,-206 298.33,-206 293,-200.67 293,-195.33 293,-195.33 293,-184.67 293,-184.67 293,-179.33 298.33,-174 303.67,-174"/>
<text text-anchor="start" x="300.5" y="-186.3" font-family="Helvetica,sans-Serif" font-size="14.00">Jal</text>
<path fill="none" stroke="black" d="M303.67,-174C303.67,-174 314.33,-174 314.33,-174 319.67,-174 325,-179.33 325,-184.67 325,-184.67 325,-195.33 325,-195.33 325,-200.67 319.67,-206 314.33,-206 314.33,-206 303.67,-206 303.67,-206 298.33,-206 293,-200.67 293,-195.33 293,-195.33 293,-184.67 293,-184.67 293,-179.33 298.33,-174 303.67,-174"/>
</a>
</g>
</g>
<!-- function&#45;2&#45;Beq -->
<g id="node20" class="node">
<title>function&#45;2&#45;Beq</title>
<g id="a_node20"><a xlink:title="Inst&#45;13: function&#45;2&#45;Beq">
<path fill="white" stroke="transparent" d="M469.67,-253C469.67,-253 486.33,-253 486.33,-253 491.67,-253 497,-258.33 497,-263.67 497,-263.67 497,-274.33 497,-274.33 497,-279.67 491.67,-285 486.33,-285 486.33,-285 469.67,-285 469.67,-285 464.33,-285 459,-279.67 459,-274.33 459,-274.33 459,-263.67 459,-263.67 459,-258.33 464.33,-253 469.67,-253"/>
<text text-anchor="start" x="464" y="-265.3" font-family="Helvetica,sans-Serif" font-size="14.00">Beq</text>
<path fill="none" stroke="black" d="M469.67,-253C469.67,-253 486.33,-253 486.33,-253 491.67,-253 497,-258.33 497,-263.67 497,-263.67 497,-274.33 497,-274.33 497,-279.67 491.67,-285 486.33,-285 486.33,-285 469.67,-285 469.67,-285 464.33,-285 459,-279.67 459,-274.33 459,-274.33 459,-263.67 459,-263.67 459,-258.33 464.33,-253 469.67,-253"/>
</a>
</g>
</g>
<!-- function&#45;3&#45;Beq -->
<g id="node21" class="node">
<title>function&#45;3&#45;Beq</title>
<g id="a_node21"><a xlink:title="Inst&#45;13: function&#45;3&#45;Beq">
<path fill="white" stroke="transparent" d="M411.67,-253C411.67,-253 428.33,-253 428.33,-253 433.67,-253 439,-258.33 439,-263.67 439,-263.67 439,-274.33 439,-274.33 439,-279.67 433.67,-285 428.33,-285 428.33,-285 411.67,-285 411.67,-285 406.33,-285 401,-279.67 401,-274.33 401,-274.33 401,-263.67 401,-263.67 401,-258.33 406.33,-253 411.67,-253"/>
<text text-anchor="start" x="406" y="-265.3" font-family="Helvetica,sans-Serif" font-size="14.00">Beq</text>
<path fill="none" stroke="black" d="M411.67,-253C411.67,-253 428.33,-253 428.33,-253 433.67,-253 439,-258.33 439,-263.67 439,-263.67 439,-274.33 439,-274.33 439,-279.67 433.67,-285 428.33,-285 428.33,-285 411.67,-285 411.67,-285 406.33,-285 401,-279.67 401,-274.33 401,-274.33 401,-263.67 401,-263.67 401,-258.33 406.33,-253 411.67,-253"/>
</a>
</g>
</g>
<!-- function&#45;2&#45;Seq2 -->
<g id="node22" class="node">
<title>function&#45;2&#45;Seq2</title>
<g id="a_node22"><a xlink:title="Inst&#45;13: function&#45;2&#45;Seq2">
<path fill="white" stroke="transparent" d="M349.67,-253C349.67,-253 374.33,-253 374.33,-253 379.67,-253 385,-258.33 385,-263.67 385,-263.67 385,-274.33 385,-274.33 385,-279.67 379.67,-285 374.33,-285 374.33,-285 349.67,-285 349.67,-285 344.33,-285 339,-279.67 339,-274.33 339,-274.33 339,-263.67 339,-263.67 339,-258.33 344.33,-253 349.67,-253"/>
<text text-anchor="start" x="344" y="-265.3" font-family="Helvetica,sans-Serif" font-size="14.00">Seq2</text>
<path fill="none" stroke="black" d="M349.67,-253C349.67,-253 374.33,-253 374.33,-253 379.67,-253 385,-258.33 385,-263.67 385,-263.67 385,-274.33 385,-274.33 385,-279.67 379.67,-285 374.33,-285 374.33,-285 349.67,-285 349.67,-285 344.33,-285 339,-279.67 339,-274.33 339,-274.33 339,-263.67 339,-263.67 339,-258.33 344.33,-253 349.67,-253"/>
</a>
</g>
</g>
<!-- function&#45;1&#45;Seq2 -->
<g id="node23" class="node">
<title>function&#45;1&#45;Seq2</title>
<g id="a_node23"><a xlink:title="Inst&#45;10: function&#45;1&#45;Seq2">
<path fill="white" stroke="transparent" d="M283.67,-253C283.67,-253 308.33,-253 308.33,-253 313.67,-253 319,-258.33 319,-263.67 319,-263.67 319,-274.33 319,-274.33 319,-279.67 313.67,-285 308.33,-285 308.33,-285 283.67,-285 283.67,-285 278.33,-285 273,-279.67 273,-274.33 273,-274.33 273,-263.67 273,-263.67 273,-258.33 278.33,-253 283.67,-253"/>
<text text-anchor="start" x="278" y="-265.3" font-family="Helvetica,sans-Serif" font-size="14.00">Seq2</text>
<path fill="none" stroke="black" d="M283.67,-253C283.67,-253 308.33,-253 308.33,-253 313.67,-253 319,-258.33 319,-263.67 319,-263.67 319,-274.33 319,-274.33 319,-279.67 313.67,-285 308.33,-285 308.33,-285 283.67,-285 283.67,-285 278.33,-285 273,-279.67 273,-274.33 273,-274.33 273,-263.67 273,-263.67 273,-258.33 278.33,-253 283.67,-253"/>
</a>
</g>
</g>
<!-- function&#45;1&#45;Bne -->
<g id="node24" class="node">
<title>function&#45;1&#45;Bne</title>
<g id="a_node24"><a xlink:title="Inst&#45;10: function&#45;1&#45;Bne">
<path fill="white" stroke="transparent" d="M171.67,-253C171.67,-253 188.33,-253 188.33,-253 193.67,-253 199,-258.33 199,-263.67 199,-263.67 199,-274.33 199,-274.33 199,-279.67 193.67,-285 188.33,-285 188.33,-285 171.67,-285 171.67,-285 166.33,-285 161,-279.67 161,-274.33 161,-274.33 161,-263.67 161,-263.67 161,-258.33 166.33,-253 171.67,-253"/>
<text text-anchor="start" x="166" y="-265.3" font-family="Helvetica,sans-Serif" font-size="14.00">Bne</text>
<path fill="none" stroke="black" d="M171.67,-253C171.67,-253 188.33,-253 188.33,-253 193.67,-253 199,-258.33 199,-263.67 199,-263.67 199,-274.33 199,-274.33 199,-279.67 193.67,-285 188.33,-285 188.33,-285 171.67,-285 171.67,-285 166.33,-285 161,-279.67 161,-274.33 161,-274.33 161,-263.67 161,-263.67 161,-258.33 166.33,-253 171.67,-253"/>
</a>
</g>
</g>
<!-- function&#45;0&#45;Add -->
<g id="node25" class="node">
<title>function&#45;0&#45;Add</title>
<g id="a_node25"><a xlink:title="Inst&#45;6: function&#45;0&#45;Add">
<path fill="white" stroke="transparent" d="M614.67,-332C614.67,-332 631.33,-332 631.33,-332 636.67,-332 642,-337.33 642,-342.67 642,-342.67 642,-353.33 642,-353.33 642,-358.67 636.67,-364 631.33,-364 631.33,-364 614.67,-364 614.67,-364 609.33,-364 604,-358.67 604,-353.33 604,-353.33 604,-342.67 604,-342.67 604,-337.33 609.33,-332 614.67,-332"/>
<text text-anchor="start" x="609" y="-344.3" font-family="Helvetica,sans-Serif" font-size="14.00">Add</text>
<path fill="none" stroke="black" d="M614.67,-332C614.67,-332 631.33,-332 631.33,-332 636.67,-332 642,-337.33 642,-342.67 642,-342.67 642,-353.33 642,-353.33 642,-358.67 636.67,-364 631.33,-364 631.33,-364 614.67,-364 614.67,-364 609.33,-364 604,-358.67 604,-353.33 604,-353.33 604,-342.67 604,-342.67 604,-337.33 609.33,-332 614.67,-332"/>
</a>
</g>
</g>
<!-- function&#45;2&#45;RegVal -->
<g id="node26" class="node">
<title>function&#45;2&#45;RegVal</title>
<g id="a_node26"><a xlink:title="Inst&#45;2: function&#45;2&#45;RegVal">
<path fill="white" stroke="transparent" d="M620.17,-253C620.17,-253 655.83,-253 655.83,-253 661.17,-253 666.5,-258.33 666.5,-263.67 666.5,-263.67 666.5,-274.33 666.5,-274.33 666.5,-279.67 661.17,-285 655.83,-285 655.83,-285 620.17,-285 620.17,-285 614.83,-285 609.5,-279.67 609.5,-274.33 609.5,-274.33 609.5,-263.67 609.5,-263.67 609.5,-258.33 614.83,-253 620.17,-253"/>
<text text-anchor="start" x="615" y="-265.3" font-family="Helvetica,sans-Serif" font-size="14.00">RegVal</text>
<path fill="none" stroke="black" d="M620.17,-253C620.17,-253 655.83,-253 655.83,-253 661.17,-253 666.5,-258.33 666.5,-263.67 666.5,-263.67 666.5,-274.33 666.5,-274.33 666.5,-279.67 661.17,-285 655.83,-285 655.83,-285 620.17,-285 620.17,-285 614.83,-285 609.5,-279.67 609.5,-274.33 609.5,-274.33 609.5,-263.67 609.5,-263.67 609.5,-258.33 614.83,-253 620.17,-253"/>
</a>
</g>
</g>
<!-- function&#45;1&#45;Add -->
<g id="node27" class="node">
<title>function&#45;1&#45;Add</title>
<g id="a_node27"><a xlink:title="Inst&#45;6: function&#45;1&#45;Add">
<path fill="white" stroke="transparent" d="M556.67,-332C556.67,-332 573.33,-332 573.33,-332 578.67,-332 584,-337.33 584,-342.67 584,-342.67 584,-353.33 584,-353.33 584,-358.67 578.67,-364 573.33,-364 573.33,-364 556.67,-364 556.67,-364 551.33,-364 546,-358.67 546,-353.33 546,-353.33 546,-342.67 546,-342.67 546,-337.33 551.33,-332 556.67,-332"/>
<text text-anchor="start" x="551" y="-344.3" font-family="Helvetica,sans-Serif" font-size="14.00">Add</text>
<path fill="none" stroke="black" d="M556.67,-332C556.67,-332 573.33,-332 573.33,-332 578.67,-332 584,-337.33 584,-342.67 584,-342.67 584,-353.33 584,-353.33 584,-358.67 578.67,-364 573.33,-364 573.33,-364 556.67,-364 556.67,-364 551.33,-364 546,-358.67 546,-353.33 546,-353.33 546,-342.67 546,-342.67 546,-337.33 551.33,-332 556.67,-332"/>
</a>
</g>
</g>
<!-- primitive&#45;String&#45;2 -->
<g id="node28" class="node">
<title>primitive&#45;String&#45;2</title>
<g id="a_node28"><a xlink:title="String&#45;2: primitive&#45;String&#45;2">
<path fill="white" stroke="transparent" d="M621.67,-174C621.67,-174 656.33,-174 656.33,-174 661.67,-174 667,-179.33 667,-184.67 667,-184.67 667,-195.33 667,-195.33 667,-200.67 661.67,-206 656.33,-206 656.33,-206 621.67,-206 621.67,-206 616.33,-206 611,-200.67 611,-195.33 611,-195.33 611,-184.67 611,-184.67 611,-179.33 616.33,-174 621.67,-174"/>
<text text-anchor="start" x="616" y="-186.3" font-family="Helvetica,sans-Serif" font-size="14.00">&quot;s1_0&quot;</text>
<path fill="none" stroke="black" d="M621.67,-174C621.67,-174 656.33,-174 656.33,-174 661.67,-174 667,-179.33 667,-184.67 667,-184.67 667,-195.33 667,-195.33 667,-200.67 661.67,-206 656.33,-206 656.33,-206 621.67,-206 621.67,-206 616.33,-206 611,-200.67 611,-195.33 611,-195.33 611,-184.67 611,-184.67 611,-179.33 616.33,-174 621.67,-174"/>
</a>
</g>
</g>
</g>
</svg>
