<?xml version="1.0" encoding="UTF-8" standalone="no"?>
<!DOCTYPE svg PUBLIC "-//W3C//DTD SVG 1.1//EN"
 "http://www.w3.org/Graphics/SVG/1.1/DTD/svg11.dtd">
<!-- Generated by graphviz version 2.43.0 (0)
 -->
<!-- Title: %3 Pages: 1 -->
<svg width="128pt" height="230pt"
 viewBox="0.00 0.00 128.00 230.00" xmlns="http://www.w3.org/2000/svg" xmlns:xlink="http://www.w3.org/1999/xlink">
<g id="graph0" class="graph" transform="scale(1 1) rotate(0) translate(4 226)">
<title>%3</title>
<polygon fill="white" stroke="#000000" points="-4,4 -4,-226 124,-226 124,4 -4,4"/>
<g id="clust1" class="cluster">
<title>outer_cluster_Imm&#45;0</title>
</g>
<g id="clust2" class="cluster">
<title>cluster_Imm&#45;0</title>
<path fill="#ffffb3" stroke="black" stroke-dasharray="5,2" d="M29,-90C29,-90 89,-90 89,-90 95,-90 101,-96 101,-102 101,-102 101,-120 101,-120 101,-126 95,-132 89,-132 89,-132 29,-132 29,-132 23,-132 17,-126 17,-120 17,-120 17,-102 17,-102 17,-96 23,-90 29,-90"/>
</g>
<g id="clust4" class="cluster">
<title>outer_cluster_Inst&#45;1</title>
</g>
<g id="clust5" class="cluster">
<title>cluster_Inst&#45;1</title>
<path fill="#bebada" stroke="black" stroke-dasharray="5,2" d="M41,-169C41,-169 77,-169 77,-169 83,-169 89,-175 89,-181 89,-181 89,-199 89,-199 89,-205 83,-211 77,-211 77,-211 41,-211 41,-211 35,-211 29,-205 29,-199 29,-199 29,-181 29,-181 29,-175 35,-169 41,-169"/>
</g>
<g id="clust7" class="cluster">
<title>outer_cluster_String&#45;0</title>
</g>
<g id="clust8" class="cluster">
<title>cluster_String&#45;0</title>
<path fill="#fb8072" stroke="black" stroke-dasharray="5,2" d="M23,-11C23,-11 97,-11 97,-11 103,-11 109,-17 109,-23 109,-23 109,-41 109,-41 109,-47 103,-53 97,-53 97,-53 23,-53 23,-53 17,-53 11,-47 11,-41 11,-41 11,-23 11,-23 11,-17 17,-11 23,-11"/>
</g>
<!-- function&#45;0&#45;ImmLabel&#45;&gt;primitive&#45;String&#45;0 -->
<g id="edge1" class="edge">
<title>function&#45;0&#45;ImmLabel:s&#45;&gt;primitive&#45;String&#45;0</title>
<path fill="none" stroke="black" d="M60,-95C60,-81.84 60,-67.11 60,-55.3"/>
<polygon fill="black" stroke="black" points="61.75,-58 60,-53 58.25,-58 61.75,-58"/>
</g>
<!-- function&#45;0&#45;Lui&#45;&gt;function&#45;0&#45;ImmLabel -->
<g id="edge2" class="edge">
<title>function&#45;0&#45;Lui:s&#45;&gt;function&#45;0&#45;ImmLabel</title>
<path fill="none" stroke="black" d="M59,-174C59,-160.84 59,-146.11 59,-134.3"/>
<polygon fill="black" stroke="black" points="60.75,-137 59,-132 57.25,-137 60.75,-137"/>
</g>
<!-- function&#45;0&#45;ImmLabel -->
<g id="node1" class="node">
<title>function&#45;0&#45;ImmLabel</title>
<g id="a_node1"><a xlink:title="Imm&#45;0: function&#45;0&#45;ImmLabel">
<path fill="white" stroke="transparent" d="M30.17,-95C30.17,-95 87.83,-95 87.83,-95 93.17,-95 98.5,-100.33 98.5,-105.67 98.5,-105.67 98.5,-116.33 98.5,-116.33 98.5,-121.67 93.17,-127 87.83,-127 87.83,-127 30.17,-127 30.17,-127 24.83,-127 19.5,-121.67 19.5,-116.33 19.5,-116.33 19.5,-105.67 19.5,-105.67 19.5,-100.33 24.83,-95 30.17,-95"/>
<text text-anchor="start" x="25" y="-107.3" font-family="Helvetica,sans-Serif" font-size="14.00">ImmLabel</text>
<path fill="none" stroke="black" d="M30.17,-95C30.17,-95 87.83,-95 87.83,-95 93.17,-95 98.5,-100.33 98.5,-105.67 98.5,-105.67 98.5,-116.33 98.5,-116.33 98.5,-121.67 93.17,-127 87.83,-127 87.83,-127 30.17,-127 30.17,-127 24.83,-127 19.5,-121.67 19.5,-116.33 19.5,-116.33 19.5,-105.67 19.5,-105.67 19.5,-100.33 24.83,-95 30.17,-95"/>
</a>
</g>
</g>
<!-- primitive&#45;String&#45;0 -->
<g id="node2" class="node">
<title>primitive&#45;String&#45;0</title>
<g id="a_node2"><a xlink:title="String&#45;0: primitive&#45;String&#45;0">
<path fill="white" stroke="transparent" d="M24.67,-16C24.67,-16 95.33,-16 95.33,-16 100.67,-16 106,-21.33 106,-26.67 106,-26.67 106,-37.33 106,-37.33 106,-42.67 100.67,-48 95.33,-48 95.33,-48 24.67,-48 24.67,-48 19.33,-48 14,-42.67 14,-37.33 14,-37.33 14,-26.67 14,-26.67 14,-21.33 19.33,-16 24.67,-16"/>
<text text-anchor="start" x="19" y="-28.3" font-family="Helvetica,sans-Serif" font-size="14.00">&quot;%hi(.LC1)&quot;</text>
<path fill="none" stroke="black" d="M24.67,-16C24.67,-16 95.33,-16 95.33,-16 100.67,-16 106,-21.33 106,-26.67 106,-26.67 106,-37.33 106,-37.33 106,-42.67 100.67,-48 95.33,-48 95.33,-48 24.67,-48 24.67,-48 19.33,-48 14,-42.67 14,-37.33 14,-37.33 14,-26.67 14,-26.67 14,-21.33 19.33,-16 24.67,-16"/>
</a>
</g>
</g>
<!-- function&#45;0&#45;Lui -->
<g id="node3" class="node">
<title>function&#45;0&#45;Lui</title>
<g id="a_node3"><a xlink:title="Inst&#45;1: function&#45;0&#45;Lui">
<path fill="white" stroke="transparent" d="M53.67,-174C53.67,-174 64.33,-174 64.33,-174 69.67,-174 75,-179.33 75,-184.67 75,-184.67 75,-195.33 75,-195.33 75,-200.67 69.67,-206 64.33,-206 64.33,-206 53.67,-206 53.67,-206 48.33,-206 43,-200.67 43,-195.33 43,-195.33 43,-184.67 43,-184.67 43,-179.33 48.33,-174 53.67,-174"/>
<text text-anchor="start" x="48.5" y="-186.3" font-family="Helvetica,sans-Serif" font-size="14.00">Lui</text>
<path fill="none" stroke="black" d="M53.67,-174C53.67,-174 64.33,-174 64.33,-174 69.67,-174 75,-179.33 75,-184.67 75,-184.67 75,-195.33 75,-195.33 75,-200.67 69.67,-206 64.33,-206 64.33,-206 53.67,-206 53.67,-206 48.33,-206 43,-200.67 43,-195.33 43,-195.33 43,-184.67 43,-184.67 43,-179.33 48.33,-174 53.67,-174"/>
</a>
</g>
</g>
</g>
</svg>
