<?xml version="1.0" encoding="UTF-8" standalone="no"?>
<!DOCTYPE svg PUBLIC "-//W3C//DTD SVG 1.1//EN"
 "http://www.w3.org/Graphics/SVG/1.1/DTD/svg11.dtd">
<!-- Generated by graphviz version 2.43.0 (0)
 -->
<!-- Title: %3 Pages: 1 -->
<svg width="664pt" height="388pt"
 viewBox="0.00 0.00 664.00 388.00" xmlns="http://www.w3.org/2000/svg" xmlns:xlink="http://www.w3.org/1999/xlink">
<g id="graph0" class="graph" transform="scale(1 1) rotate(0) translate(4 384)">
<title>%3</title>
<polygon fill="white" stroke="#000000" points="-4,4 -4,-384 660,-384 660,4 -4,4"/>
<g id="clust1" class="cluster">
<title>outer_cluster_Imm&#45;8</title>
</g>
<g id="clust2" class="cluster">
<title>cluster_Imm&#45;8</title>
<path fill="#ffffb3" stroke="black" stroke-dasharray="5,2" d="M23,-248C23,-248 67,-248 67,-248 73,-248 79,-254 79,-260 79,-260 79,-278 79,-278 79,-284 73,-290 67,-290 67,-290 23,-290 23,-290 17,-290 11,-284 11,-278 11,-278 11,-260 11,-260 11,-254 17,-248 23,-248"/>
</g>
<g id="clust4" class="cluster">
<title>outer_cluster_Imm&#45;10</title>
</g>
<g id="clust5" class="cluster">
<title>cluster_Imm&#45;10</title>
<path fill="#ffffb3" stroke="black" stroke-dasharray="5,2" d="M573,-169C573,-169 633,-169 633,-169 639,-169 645,-175 645,-181 645,-181 645,-199 645,-199 645,-205 639,-211 633,-211 633,-211 573,-211 573,-211 567,-211 561,-205 561,-199 561,-199 561,-181 561,-181 561,-175 567,-169 573,-169"/>
</g>
<g id="clust7" class="cluster">
<title>outer_cluster_Imm&#45;6</title>
</g>
<g id="clust8" class="cluster">
<title>cluster_Imm&#45;6</title>
<path fill="#ffffb3" stroke="black" stroke-dasharray="5,2" d="M316,-90C316,-90 360,-90 360,-90 366,-90 372,-96 372,-102 372,-102 372,-120 372,-120 372,-126 366,-132 360,-132 360,-132 316,-132 316,-132 310,-132 304,-126 304,-120 304,-120 304,-102 304,-102 304,-96 310,-90 316,-90"/>
</g>
<g id="clust10" class="cluster">
<title>outer_cluster_Imm&#45;4</title>
</g>
<g id="clust11" class="cluster">
<title>cluster_Imm&#45;4</title>
<path fill="#ffffb3" stroke="black" stroke-dasharray="5,2" d="M142,-90C142,-90 186,-90 186,-90 192,-90 198,-96 198,-102 198,-102 198,-120 198,-120 198,-126 192,-132 186,-132 186,-132 142,-132 142,-132 136,-132 130,-126 130,-120 130,-120 130,-102 130,-102 130,-96 136,-90 142,-90"/>
</g>
<g id="clust13" class="cluster">
<title>outer_cluster_Inst&#45;5</title>
</g>
<g id="clust14" class="cluster">
<title>cluster_Inst&#45;5</title>
<path fill="#bebada" stroke="black" stroke-dasharray="5,2" d="M198,-169C198,-169 234,-169 234,-169 240,-169 246,-175 246,-181 246,-181 246,-199 246,-199 246,-205 240,-211 234,-211 234,-211 198,-211 198,-211 192,-211 186,-205 186,-199 186,-199 186,-181 186,-181 186,-175 192,-169 198,-169"/>
</g>
<g id="clust16" class="cluster">
<title>outer_cluster_Inst&#45;15</title>
</g>
<g id="clust17" class="cluster">
<title>cluster_Inst&#45;15</title>
<path fill="#bebada" stroke="black" stroke-dasharray="5,2" d="M317,-169C317,-169 353,-169 353,-169 359,-169 365,-175 365,-181 365,-181 365,-199 365,-199 365,-205 359,-211 353,-211 353,-211 317,-211 317,-211 311,-211 305,-205 305,-199 305,-199 305,-181 305,-181 305,-175 311,-169 317,-169"/>
</g>
<g id="clust19" class="cluster">
<title>outer_cluster_Inst&#45;13</title>
</g>
<g id="clust20" class="cluster">
<title>cluster_Inst&#45;13</title>
<path fill="#bebada" stroke="black" stroke-dasharray="5,2" d="M585,-248C585,-248 621,-248 621,-248 627,-248 633,-254 633,-260 633,-260 633,-278 633,-278 633,-284 627,-290 621,-290 621,-290 585,-290 585,-290 579,-290 573,-284 573,-278 573,-278 573,-260 573,-260 573,-254 579,-248 585,-248"/>
</g>
<g id="clust22" class="cluster">
<title>outer_cluster_Inst&#45;7</title>
</g>
<g id="clust23" class="cluster">
<title>cluster_Inst&#45;7</title>
<path fill="#bebada" stroke="black" stroke-dasharray="5,2" d="M405,-169C405,-169 441,-169 441,-169 447,-169 453,-175 453,-181 453,-181 453,-199 453,-199 453,-205 447,-211 441,-211 441,-211 405,-211 405,-211 399,-211 393,-205 393,-199 393,-199 393,-181 393,-181 393,-175 399,-169 405,-169"/>
</g>
<g id="clust25" class="cluster">
<title>outer_cluster_Inst&#45;0</title>
</g>
<g id="clust26" class="cluster">
<title>cluster_Inst&#45;0</title>
<path fill="#bebada" stroke="black" stroke-dasharray="5,2" d="M393,-90C393,-90 433,-90 433,-90 439,-90 445,-96 445,-102 445,-102 445,-120 445,-120 445,-126 439,-132 433,-132 433,-132 393,-132 393,-132 387,-132 381,-126 381,-120 381,-120 381,-102 381,-102 381,-96 387,-90 393,-90"/>
</g>
<g id="clust28" class="cluster">
<title>outer_cluster_Inst&#45;11</title>
</g>
<g id="clust29" class="cluster">
<title>cluster_Inst&#45;11</title>
<path fill="#bebada" stroke="black" stroke-dasharray="5,2" d="M448,-327C448,-327 600,-327 600,-327 606,-327 612,-333 612,-339 612,-339 612,-357 612,-357 612,-363 606,-369 600,-369 600,-369 448,-369 448,-369 442,-369 436,-363 436,-357 436,-357 436,-339 436,-339 436,-333 442,-327 448,-327"/>
</g>
<g id="clust31" class="cluster">
<title>outer_cluster_Inst&#45;12</title>
</g>
<g id="clust32" class="cluster">
<title>cluster_Inst&#45;12</title>
<path fill="#bebada" stroke="black" stroke-dasharray="5,2" d="M371,-248C371,-248 523,-248 523,-248 529,-248 535,-254 535,-260 535,-260 535,-278 535,-278 535,-284 529,-290 523,-290 523,-290 371,-290 371,-290 365,-290 359,-284 359,-278 359,-278 359,-260 359,-260 359,-254 365,-248 371,-248"/>
</g>
<g id="clust34" class="cluster">
<title>outer_cluster_Inst&#45;2</title>
</g>
<g id="clust35" class="cluster">
<title>cluster_Inst&#45;2</title>
<path fill="#bebada" stroke="black" stroke-dasharray="5,2" d="M97,-248C97,-248 137,-248 137,-248 143,-248 149,-254 149,-260 149,-260 149,-278 149,-278 149,-284 143,-290 137,-290 137,-290 97,-290 97,-290 91,-290 85,-284 85,-278 85,-278 85,-260 85,-260 85,-254 91,-248 97,-248"/>
</g>
<g id="clust37" class="cluster">
<title>outer_cluster_Inst&#45;14</title>
</g>
<g id="clust38" class="cluster">
<title>cluster_Inst&#45;14</title>
<path fill="#bebada" stroke="black" stroke-dasharray="5,2" d="M189,-248C189,-248 341,-248 341,-248 347,-248 353,-254 353,-260 353,-260 353,-278 353,-278 353,-284 347,-290 341,-290 341,-290 189,-290 189,-290 183,-290 177,-284 177,-278 177,-278 177,-260 177,-260 177,-254 183,-248 189,-248"/>
</g>
<g id="clust40" class="cluster">
<title>outer_cluster_Inst&#45;9</title>
</g>
<g id="clust41" class="cluster">
<title>cluster_Inst&#45;9</title>
<path fill="#bebada" stroke="black" stroke-dasharray="5,2" d="M66,-327C66,-327 102,-327 102,-327 108,-327 114,-333 114,-339 114,-339 114,-357 114,-357 114,-363 108,-369 102,-369 102,-369 66,-369 66,-369 60,-369 54,-363 54,-357 54,-357 54,-339 54,-339 54,-333 60,-327 66,-327"/>
</g>
<g id="clust43" class="cluster">
<title>outer_cluster_Inst&#45;1</title>
</g>
<g id="clust44" class="cluster">
<title>cluster_Inst&#45;1</title>
<path fill="#bebada" stroke="black" stroke-dasharray="5,2" d="M216,-90C216,-90 256,-90 256,-90 262,-90 268,-96 268,-102 268,-102 268,-120 268,-120 268,-126 262,-132 256,-132 256,-132 216,-132 216,-132 210,-132 204,-126 204,-120 204,-120 204,-102 204,-102 204,-96 210,-90 216,-90"/>
</g>
<g id="clust46" class="cluster">
<title>outer_cluster_Inst&#45;3</title>
</g>
<g id="clust47" class="cluster">
<title>cluster_Inst&#45;3</title>
<path fill="#bebada" stroke="black" stroke-dasharray="5,2" d="M473,-169C473,-169 513,-169 513,-169 519,-169 525,-175 525,-181 525,-181 525,-199 525,-199 525,-205 519,-211 513,-211 513,-211 473,-211 473,-211 467,-211 461,-205 461,-199 461,-199 461,-181 461,-181 461,-175 467,-169 473,-169"/>
</g>
<g id="clust49" class="cluster">
<title>outer_cluster_String&#45;2</title>
</g>
<g id="clust50" class="cluster">
<title>cluster_String&#45;2</title>
<path fill="#fb8072" stroke="black" stroke-dasharray="5,2" d="M217,-11C217,-11 257,-11 257,-11 263,-11 269,-17 269,-23 269,-23 269,-41 269,-41 269,-47 263,-53 257,-53 257,-53 217,-53 217,-53 211,-53 205,-47 205,-41 205,-41 205,-23 205,-23 205,-17 211,-11 217,-11"/>
</g>
<g id="clust52" class="cluster">
<title>outer_cluster_String&#45;1</title>
</g>
<g id="clust53" class="cluster">
<title>cluster_String&#45;1</title>
<path fill="#fb8072" stroke="black" stroke-dasharray="5,2" d="M394,-11C394,-11 434,-11 434,-11 440,-11 446,-17 446,-23 446,-23 446,-41 446,-41 446,-47 440,-53 434,-53 434,-53 394,-53 394,-53 388,-53 382,-47 382,-41 382,-41 382,-23 382,-23 382,-17 388,-11 394,-11"/>
</g>
<g id="clust55" class="cluster">
<title>outer_cluster_String&#45;3</title>
</g>
<g id="clust56" class="cluster">
<title>cluster_String&#45;3</title>
<path fill="#fb8072" stroke="black" stroke-dasharray="5,2" d="M98,-169C98,-169 138,-169 138,-169 144,-169 150,-175 150,-181 150,-181 150,-199 150,-199 150,-205 144,-211 138,-211 138,-211 98,-211 98,-211 92,-211 86,-205 86,-199 86,-199 86,-181 86,-181 86,-175 92,-169 98,-169"/>
</g>
<g id="clust58" class="cluster">
<title>outer_cluster_String&#45;5</title>
</g>
<g id="clust59" class="cluster">
<title>cluster_String&#45;5</title>
<path fill="#fb8072" stroke="black" stroke-dasharray="5,2" d="M586,-90C586,-90 622,-90 622,-90 628,-90 634,-96 634,-102 634,-102 634,-120 634,-120 634,-126 628,-132 622,-132 622,-132 586,-132 586,-132 580,-132 574,-126 574,-120 574,-120 574,-102 574,-102 574,-96 580,-90 586,-90"/>
</g>
<g id="clust61" class="cluster">
<title>outer_cluster_String&#45;4</title>
</g>
<g id="clust62" class="cluster">
<title>cluster_String&#45;4</title>
<path fill="#fb8072" stroke="black" stroke-dasharray="5,2" d="M475,-90C475,-90 513,-90 513,-90 519,-90 525,-96 525,-102 525,-102 525,-120 525,-120 525,-126 519,-132 513,-132 513,-132 475,-132 475,-132 469,-132 463,-126 463,-120 463,-120 463,-102 463,-102 463,-96 469,-90 475,-90"/>
</g>
<g id="clust64" class="cluster">
<title>outer_cluster_i64&#45;1</title>
</g>
<g id="clust65" class="cluster">
<title>cluster_i64&#45;1</title>
<path fill="#80b1d3" stroke="black" stroke-dasharray="5,2" d="M146,-11C146,-11 182,-11 182,-11 188,-11 194,-17 194,-23 194,-23 194,-41 194,-41 194,-47 188,-53 182,-53 182,-53 146,-53 146,-53 140,-53 134,-47 134,-41 134,-41 134,-23 134,-23 134,-17 140,-11 146,-11"/>
</g>
<g id="clust67" class="cluster">
<title>outer_cluster_i64&#45;4</title>
</g>
<g id="clust68" class="cluster">
<title>cluster_i64&#45;4</title>
<path fill="#80b1d3" stroke="black" stroke-dasharray="5,2" d="M320,-11C320,-11 356,-11 356,-11 362,-11 368,-17 368,-23 368,-23 368,-41 368,-41 368,-47 362,-53 356,-53 356,-53 320,-53 320,-53 314,-53 308,-47 308,-41 308,-41 308,-23 308,-23 308,-17 314,-11 320,-11"/>
</g>
<g id="clust70" class="cluster">
<title>outer_cluster_i64&#45;8</title>
</g>
<g id="clust71" class="cluster">
<title>cluster_i64&#45;8</title>
<path fill="#80b1d3" stroke="black" stroke-dasharray="5,2" d="M27,-169C27,-169 63,-169 63,-169 69,-169 75,-175 75,-181 75,-181 75,-199 75,-199 75,-205 69,-211 63,-211 63,-211 27,-211 27,-211 21,-211 15,-205 15,-199 15,-199 15,-181 15,-181 15,-175 21,-169 27,-169"/>
</g>
<!-- function&#45;2&#45;ImmVal&#45;&gt;primitive&#45;i64&#45;8 -->
<g id="edge1" class="edge">
<title>function&#45;2&#45;ImmVal:s&#45;&gt;primitive&#45;i64&#45;8</title>
<path fill="none" stroke="black" d="M45,-253C45,-239.84 45,-225.11 45,-213.3"/>
<polygon fill="black" stroke="black" points="46.75,-216 45,-211 43.25,-216 46.75,-216"/>
</g>
<!-- function&#45;0&#45;ImmLabel&#45;&gt;primitive&#45;String&#45;5 -->
<g id="edge2" class="edge">
<title>function&#45;0&#45;ImmLabel:s&#45;&gt;primitive&#45;String&#45;5</title>
<path fill="none" stroke="black" d="M604,-174C604,-160.84 604,-146.11 604,-134.3"/>
<polygon fill="black" stroke="black" points="605.75,-137 604,-132 602.25,-137 605.75,-137"/>
</g>
<!-- function&#45;1&#45;ImmVal&#45;&gt;primitive&#45;i64&#45;4 -->
<g id="edge3" class="edge">
<title>function&#45;1&#45;ImmVal:s&#45;&gt;primitive&#45;i64&#45;4</title>
<path fill="none" stroke="black" d="M338,-95C338,-81.84 338,-67.11 338,-55.3"/>
<polygon fill="black" stroke="black" points="339.75,-58 338,-53 336.25,-58 339.75,-58"/>
</g>
<!-- function&#45;0&#45;ImmVal&#45;&gt;primitive&#45;i64&#45;1 -->
<g id="edge4" class="edge">
<title>function&#45;0&#45;ImmVal:s&#45;&gt;primitive&#45;i64&#45;1</title>
<path fill="none" stroke="black" d="M164,-95C164,-81.84 164,-67.11 164,-55.3"/>
<polygon fill="black" stroke="black" points="165.75,-58 164,-53 162.25,-58 165.75,-58"/>
</g>
<!-- function&#45;0&#45;Addi&#45;&gt;function&#45;0&#45;ImmVal -->
<g id="edge6" class="edge">
<title>function&#45;0&#45;Addi:s&#45;&gt;function&#45;0&#45;ImmVal</title>
<path fill="none" stroke="black" d="M226,-174C226,-163.48 207.91,-146.23 191.27,-132.6"/>
<polygon fill="black" stroke="black" points="195.34,-132.68 190.09,-132 193.77,-135.81 195.34,-132.68"/>
</g>
<!-- function&#45;0&#45;Addi&#45;&gt;function&#45;1&#45;RegVal -->
<g id="edge5" class="edge">
<title>function&#45;0&#45;Addi:s&#45;&gt;function&#45;1&#45;RegVal</title>
<path fill="none" stroke="black" d="M206,-174C206,-159.54 212.7,-144.9 219.76,-133.48"/>
<polygon fill="black" stroke="black" points="218.81,-136.52 221.58,-132 216.6,-133.81 218.81,-136.52"/>
</g>
<!-- function&#45;1&#45;RegVal&#45;&gt;primitive&#45;String&#45;2 -->
<g id="edge39" class="edge">
<title>function&#45;1&#45;RegVal:s&#45;&gt;primitive&#45;String&#45;2</title>
<path fill="none" stroke="black" d="M237,-95C237,-81.84 237,-67.11 237,-55.3"/>
<polygon fill="black" stroke="black" points="238.75,-58 237,-53 235.25,-58 238.75,-58"/>
</g>
<!-- function&#45;1&#45;Jal&#45;&gt;function&#45;1&#45;ImmVal -->
<g id="edge7" class="edge">
<title>function&#45;1&#45;Jal:s&#45;&gt;function&#45;1&#45;ImmVal</title>
<path fill="none" stroke="black" d="M335,-174C335,-160.82 335.68,-146.09 336.4,-134.29"/>
<polygon fill="black" stroke="black" points="337.75,-137.2 336.73,-132 334.29,-136.7 337.75,-137.2"/>
</g>
<!-- function&#45;0&#45;Jal&#45;&gt;function&#45;0&#45;ImmLabel -->
<g id="edge8" class="edge">
<title>function&#45;0&#45;Jal:s&#45;&gt;function&#45;0&#45;ImmLabel</title>
<path fill="none" stroke="black" d="M603,-253C603,-239.84 603,-225.11 603,-213.3"/>
<polygon fill="black" stroke="black" points="604.75,-216 603,-211 601.25,-216 604.75,-216"/>
</g>
<!-- function&#45;1&#45;Addi&#45;&gt;function&#45;1&#45;ImmVal -->
<g id="edge10" class="edge">
<title>function&#45;1&#45;Addi:s&#45;&gt;function&#45;1&#45;ImmVal</title>
<path fill="none" stroke="black" d="M433,-174C433,-166.65 400.66,-146.77 373.72,-131.48"/>
<polygon fill="black" stroke="black" points="376.85,-132.01 372,-129.88 374.47,-134.57 376.85,-132.01"/>
</g>
<!-- function&#45;1&#45;Addi&#45;&gt;function&#45;0&#45;RegVal -->
<g id="edge9" class="edge">
<title>function&#45;1&#45;Addi:s&#45;&gt;function&#45;0&#45;RegVal</title>
<path fill="none" stroke="black" d="M413,-174C413,-160.84 413,-146.11 413,-134.3"/>
<polygon fill="black" stroke="black" points="414.75,-137 413,-132 411.25,-137 414.75,-137"/>
</g>
<!-- function&#45;0&#45;RegVal&#45;&gt;primitive&#45;String&#45;1 -->
<g id="edge11" class="edge">
<title>function&#45;0&#45;RegVal:s&#45;&gt;primitive&#45;String&#45;1</title>
<path fill="none" stroke="black" d="M414,-95C414,-81.84 414,-67.11 414,-55.3"/>
<polygon fill="black" stroke="black" points="415.75,-58 414,-53 412.25,-58 415.75,-58"/>
</g>
<!-- function&#45;0&#45;Bne&#45;&gt;function&#45;0&#45;ImmLabel -->
<g id="edge14" class="edge">
<title>function&#45;0&#45;Bne:s&#45;&gt;function&#45;0&#45;ImmLabel</title>
<path fill="none" stroke="black" d="M596,-332C596,-307.8 624.88,-315.42 634,-293 642.04,-273.24 639.5,-265.61 634,-245 630.98,-233.69 624.97,-222.29 619.04,-212.89"/>
<polygon fill="black" stroke="black" points="621.92,-213.3 617.15,-211 619.45,-215.77 621.92,-213.3"/>
</g>
<!-- function&#45;0&#45;Bne&#45;&gt;function&#45;0&#45;Addi -->
<g id="edge12" class="edge">
<title>function&#45;0&#45;Bne:s&#45;&gt;function&#45;0&#45;Addi</title>
<path fill="none" stroke="black" d="M573,-332C573,-243.35 236.05,-358.21 176,-293 154.9,-270.08 177.18,-234.73 195.96,-212.24"/>
<polygon fill="black" stroke="black" points="194.75,-215.58 197.42,-211 192.48,-212.91 194.75,-215.58"/>
</g>
<!-- function&#45;0&#45;Bne&#45;&gt;function&#45;3&#45;RegVal -->
<g id="edge13" class="edge">
<title>function&#45;0&#45;Bne:s&#45;&gt;function&#45;3&#45;RegVal</title>
<path fill="none" stroke="black" d="M587,-332C587,-321.17 549.18,-253.89 543,-245 534.89,-233.33 524.38,-221.61 515.1,-212.08"/>
<polygon fill="black" stroke="black" points="518.61,-212.31 513.48,-211 516.67,-215.23 518.61,-212.31"/>
</g>
<!-- function&#45;3&#45;RegVal&#45;&gt;primitive&#45;String&#45;4 -->
<g id="edge40" class="edge">
<title>function&#45;3&#45;RegVal:s&#45;&gt;primitive&#45;String&#45;4</title>
<path fill="none" stroke="black" d="M494,-174C494,-160.84 494,-146.11 494,-134.3"/>
<polygon fill="black" stroke="black" points="495.75,-137 494,-132 492.25,-137 495.75,-137"/>
</g>
<!-- function&#45;1&#45;Bne&#45;&gt;function&#45;0&#45;ImmLabel -->
<g id="edge17" class="edge">
<title>function&#45;1&#45;Bne:s&#45;&gt;function&#45;0&#45;ImmLabel</title>
<path fill="none" stroke="black" d="M480,-332C480,-299.07 519.98,-316.55 543,-293 546.2,-289.72 574.1,-241.45 590.7,-212.51"/>
<polygon fill="black" stroke="black" points="589.88,-215.73 592.26,-211 587.45,-213.21 589.88,-215.73"/>
</g>
<!-- function&#45;1&#45;Bne&#45;&gt;function&#45;0&#45;Addi -->
<g id="edge16" class="edge">
<title>function&#45;1&#45;Bne:s&#45;&gt;function&#45;0&#45;Addi</title>
<path fill="none" stroke="black" d="M471,-332C471,-263.45 210.3,-344.45 165,-293 150.9,-276.99 157.12,-264.82 165,-245 170.09,-232.2 179.81,-220.68 189.41,-211.6"/>
<polygon fill="black" stroke="black" points="187.25,-215.39 190.22,-211 185.16,-212.58 187.25,-215.39"/>
</g>
<!-- function&#45;1&#45;Bne&#45;&gt;function&#45;3&#45;RegVal -->
<g id="edge15" class="edge">
<title>function&#45;1&#45;Bne:s&#45;&gt;function&#45;3&#45;RegVal</title>
<path fill="none" stroke="black" d="M457,-332C457,-292.84 515.33,-326.26 536,-293 547.26,-274.88 543.04,-265.14 536,-245 531.71,-232.73 523.33,-221.16 515.1,-211.9"/>
<polygon fill="black" stroke="black" points="518.79,-212.06 513.6,-211 517,-215.06 518.79,-212.06"/>
</g>
<!-- function&#45;0&#45;Seq2&#45;&gt;function&#45;0&#45;Jal -->
<g id="edge19" class="edge">
<title>function&#45;0&#45;Seq2:s&#45;&gt;function&#45;0&#45;Jal</title>
<path fill="none" stroke="black" d="M535,-332C535,-320.93 554.91,-303.69 573.18,-290.2"/>
<polygon fill="black" stroke="black" points="569.67,-292.59 574.29,-290 569.06,-289.14 569.67,-292.59"/>
</g>
<!-- function&#45;0&#45;Seq2&#45;&gt;function&#45;0&#45;Beq -->
<g id="edge18" class="edge">
<title>function&#45;0&#45;Seq2:s&#45;&gt;function&#45;0&#45;Beq</title>
<path fill="none" stroke="black" d="M513,-332C513,-326.19 490.99,-306.42 472.4,-290.74"/>
<polygon fill="black" stroke="black" points="476.39,-291.25 471.25,-290 474.49,-294.19 476.39,-291.25"/>
</g>
<!-- function&#45;0&#45;Beq&#45;&gt;function&#45;1&#45;ImmVal -->
<g id="edge22" class="edge">
<title>function&#45;0&#45;Beq:s&#45;&gt;function&#45;1&#45;ImmVal</title>
<path fill="none" stroke="black" d="M461,-253C461,-213.44 406.78,-244 381,-214 366.43,-197.05 374.51,-186.67 366,-166 361.51,-155.09 355.6,-143.42 350.38,-133.73"/>
<polygon fill="black" stroke="black" points="353.47,-134.62 348.87,-132 350.83,-136.92 353.47,-134.62"/>
</g>
<!-- function&#45;0&#45;Beq&#45;&gt;function&#45;0&#45;Addi -->
<g id="edge20" class="edge">
<title>function&#45;0&#45;Beq:s&#45;&gt;function&#45;0&#45;Addi</title>
<path fill="none" stroke="black" d="M438,-253C438,-242.6 425.92,-248.14 416,-245 399.97,-239.93 300.67,-213.46 248.29,-199.56"/>
<polygon fill="black" stroke="black" points="251.21,-199.21 246,-198.25 249.48,-202.25 251.21,-199.21"/>
</g>
<!-- function&#45;0&#45;Beq&#45;&gt;function&#45;3&#45;RegVal -->
<g id="edge21" class="edge">
<title>function&#45;0&#45;Beq:s&#45;&gt;function&#45;3&#45;RegVal</title>
<path fill="none" stroke="black" d="M452,-253C452,-237.6 460.91,-223.08 470.42,-211.97"/>
<polygon fill="black" stroke="black" points="468.68,-215.17 471.94,-211 466.79,-212.23 468.68,-215.17"/>
</g>
<!-- function&#45;1&#45;Beq&#45;&gt;function&#45;1&#45;ImmVal -->
<g id="edge25" class="edge">
<title>function&#45;1&#45;Beq:s&#45;&gt;function&#45;1&#45;ImmVal</title>
<path fill="none" stroke="black" d="M519,-253C519,-193.95 433.85,-255.65 392,-214 376.16,-198.23 387.01,-185.99 377,-166 371.2,-154.42 363.01,-142.63 355.63,-133.04"/>
<polygon fill="black" stroke="black" points="359.37,-134.16 354.53,-132 356.96,-136.71 359.37,-134.16"/>
</g>
<!-- function&#45;1&#45;Beq&#45;&gt;function&#45;0&#45;Addi -->
<g id="edge24" class="edge">
<title>function&#45;1&#45;Beq:s&#45;&gt;function&#45;0&#45;Addi</title>
<path fill="none" stroke="black" d="M510,-253C510,-236.61 490.07,-248.25 474,-245 398.72,-229.78 378.98,-230.61 304,-214 285.42,-209.88 264.83,-204.54 248.24,-200.05"/>
<polygon fill="black" stroke="black" points="251.18,-199.79 246,-198.68 249.35,-202.78 251.18,-199.79"/>
</g>
<!-- function&#45;1&#45;Beq&#45;&gt;function&#45;3&#45;RegVal -->
<g id="edge23" class="edge">
<title>function&#45;1&#45;Beq:s&#45;&gt;function&#45;3&#45;RegVal</title>
<path fill="none" stroke="black" d="M496,-253C496,-239.82 495.32,-225.09 494.6,-213.29"/>
<polygon fill="black" stroke="black" points="496.71,-215.7 494.27,-211 493.25,-216.2 496.71,-215.7"/>
</g>
<!-- function&#45;1&#45;Seq2&#45;&gt;function&#45;1&#45;Jal -->
<g id="edge27" class="edge">
<title>function&#45;1&#45;Seq2:s&#45;&gt;function&#45;1&#45;Jal</title>
<path fill="none" stroke="black" d="M400,-253C400,-242.22 381.03,-224.99 363.59,-211.43"/>
<polygon fill="black" stroke="black" points="367.5,-210.82 362.2,-211 366.46,-214.16 367.5,-210.82"/>
</g>
<!-- function&#45;1&#45;Seq2&#45;&gt;function&#45;2&#45;Bne -->
<g id="edge26" class="edge">
<title>function&#45;1&#45;Seq2:s&#45;&gt;function&#45;2&#45;Bne</title>
<path fill="none" stroke="black" d="M378,-253C378,-215.1 331.76,-206.28 298,-223.5 288.47,-228.36 281.04,-237.41 275.67,-246.17"/>
<polygon fill="black" stroke="black" points="276.12,-243.19 273.9,-248 278.63,-245.62 276.12,-243.19"/>
</g>
<!-- function&#45;2&#45;Bne&#45;&gt;function&#45;1&#45;ImmVal -->
<g id="edge31" class="edge">
<title>function&#45;2&#45;Bne:s&#45;&gt;function&#45;1&#45;ImmVal</title>
<path fill="none" stroke="black" d="M279,-253C279,-207.85 305.07,-160.43 322.55,-133.7"/>
<polygon fill="black" stroke="black" points="321.88,-136.61 324.49,-132 319.57,-133.98 321.88,-136.61"/>
</g>
<!-- function&#45;2&#45;Bne&#45;&gt;function&#45;0&#45;Addi -->
<g id="edge29" class="edge">
<title>function&#45;2&#45;Bne:s&#45;&gt;function&#45;0&#45;Addi</title>
<path fill="none" stroke="black" d="M256,-253C256,-237.71 247.31,-223.2 238.03,-212.07"/>
<polygon fill="black" stroke="black" points="241.65,-212.6 236.59,-211 239.55,-215.4 241.65,-212.6"/>
</g>
<!-- function&#45;2&#45;Bne&#45;&gt;function&#45;3&#45;RegVal -->
<g id="edge30" class="edge">
<title>function&#45;2&#45;Bne:s&#45;&gt;function&#45;3&#45;RegVal</title>
<path fill="none" stroke="black" d="M270,-253C270,-211.2 414.93,-228.85 454,-214 454.73,-213.72 455.46,-213.43 456.19,-213.13"/>
<polygon fill="black" stroke="black" points="457.14,-214.62 461,-210.99 455.72,-211.42 457.14,-214.62"/>
</g>
<!-- function&#45;2&#45;RegVal&#45;&gt;primitive&#45;String&#45;3 -->
<g id="edge28" class="edge">
<title>function&#45;2&#45;RegVal:s&#45;&gt;primitive&#45;String&#45;3</title>
<path fill="none" stroke="black" d="M118,-253C118,-239.84 118,-225.11 118,-213.3"/>
<polygon fill="black" stroke="black" points="119.75,-216 118,-211 116.25,-216 119.75,-216"/>
</g>
<!-- function&#45;3&#45;Bne&#45;&gt;function&#45;1&#45;ImmVal -->
<g id="edge34" class="edge">
<title>function&#45;3&#45;Bne:s&#45;&gt;function&#45;1&#45;ImmVal</title>
<path fill="none" stroke="black" d="M221,-253C221,-247 281.11,-170.57 285,-166 294.62,-154.7 306.07,-142.85 315.87,-133.14"/>
<polygon fill="black" stroke="black" points="314.39,-136.15 317.67,-132 312.51,-133.2 314.39,-136.15"/>
</g>
<!-- function&#45;3&#45;Bne&#45;&gt;function&#45;0&#45;Addi -->
<g id="edge33" class="edge">
<title>function&#45;3&#45;Bne:s&#45;&gt;function&#45;0&#45;Addi</title>
<path fill="none" stroke="black" d="M212,-253C212,-239.81 212.91,-225.08 213.87,-213.28"/>
<polygon fill="black" stroke="black" points="215.08,-216.24 214.3,-211 211.64,-215.58 215.08,-216.24"/>
</g>
<!-- function&#45;3&#45;Bne&#45;&gt;function&#45;3&#45;RegVal -->
<g id="edge32" class="edge">
<title>function&#45;3&#45;Bne:s&#45;&gt;function&#45;3&#45;RegVal</title>
<path fill="none" stroke="black" d="M198,-253C198,-195.45 399.7,-233.07 454,-214 454.76,-213.73 455.53,-213.45 456.3,-213.15"/>
<polygon fill="black" stroke="black" points="457.43,-214.57 461.35,-211 456.06,-211.35 457.43,-214.57"/>
</g>
<!-- function&#45;2&#45;Seq2&#45;&gt;function&#45;1&#45;Jal -->
<g id="edge36" class="edge">
<title>function&#45;2&#45;Seq2:s&#45;&gt;function&#45;1&#45;Jal</title>
<path fill="none" stroke="black" d="M334,-253C334,-239.84 334.23,-225.1 334.47,-213.3"/>
<polygon fill="black" stroke="black" points="336.09,-216.08 334.58,-211 332.59,-215.91 336.09,-216.08"/>
</g>
<!-- function&#45;2&#45;Seq2&#45;&gt;function&#45;1&#45;Seq2 -->
<g id="edge35" class="edge">
<title>function&#45;2&#45;Seq2:s&#45;&gt;function&#45;1&#45;Seq2</title>
<path fill="none" stroke="black" d="M312,-253C312,-232.44 336.08,-239.47 357.13,-249.89"/>
<polygon fill="black" stroke="black" points="353.96,-249.68 359,-251.3 356.07,-246.89 353.96,-249.68"/>
</g>
<!-- function&#45;2&#45;Addi&#45;&gt;function&#45;2&#45;ImmVal -->
<g id="edge38" class="edge">
<title>function&#45;2&#45;Addi:s&#45;&gt;function&#45;2&#45;ImmVal</title>
<path fill="none" stroke="black" d="M94,-332C94,-315.85 83.64,-301.45 72.45,-290.6"/>
<polygon fill="black" stroke="black" points="76.71,-291.55 71.64,-290 74.64,-294.37 76.71,-291.55"/>
</g>
<!-- function&#45;2&#45;Addi&#45;&gt;function&#45;2&#45;RegVal -->
<g id="edge37" class="edge">
<title>function&#45;2&#45;Addi:s&#45;&gt;function&#45;2&#45;RegVal</title>
<path fill="none" stroke="black" d="M74,-332C74,-316.48 83.21,-302.05 93.1,-291.02"/>
<polygon fill="black" stroke="black" points="91.42,-294.11 94.76,-290 89.58,-291.14 91.42,-294.11"/>
</g>
<!-- function&#45;2&#45;ImmVal -->
<g id="node1" class="node">
<title>function&#45;2&#45;ImmVal</title>
<g id="a_node1"><a xlink:title="Imm&#45;8: function&#45;2&#45;ImmVal">
<path fill="white" stroke="transparent" d="M24.67,-253C24.67,-253 65.33,-253 65.33,-253 70.67,-253 76,-258.33 76,-263.67 76,-263.67 76,-274.33 76,-274.33 76,-279.67 70.67,-285 65.33,-285 65.33,-285 24.67,-285 24.67,-285 19.33,-285 14,-279.67 14,-274.33 14,-274.33 14,-263.67 14,-263.67 14,-258.33 19.33,-253 24.67,-253"/>
<text text-anchor="start" x="19" y="-265.3" font-family="Helvetica,sans-Serif" font-size="14.00">ImmVal</text>
<path fill="none" stroke="black" d="M24.67,-253C24.67,-253 65.33,-253 65.33,-253 70.67,-253 76,-258.33 76,-263.67 76,-263.67 76,-274.33 76,-274.33 76,-279.67 70.67,-285 65.33,-285 65.33,-285 24.67,-285 24.67,-285 19.33,-285 14,-279.67 14,-274.33 14,-274.33 14,-263.67 14,-263.67 14,-258.33 19.33,-253 24.67,-253"/>
</a>
</g>
</g>
<!-- primitive&#45;i64&#45;8 -->
<g id="node2" class="node">
<title>primitive&#45;i64&#45;8</title>
<g id="a_node2"><a xlink:title="i64&#45;8: primitive&#45;i64&#45;8">
<path fill="white" stroke="transparent" d="M39.67,-174C39.67,-174 50.33,-174 50.33,-174 55.67,-174 61,-179.33 61,-184.67 61,-184.67 61,-195.33 61,-195.33 61,-200.67 55.67,-206 50.33,-206 50.33,-206 39.67,-206 39.67,-206 34.33,-206 29,-200.67 29,-195.33 29,-195.33 29,-184.67 29,-184.67 29,-179.33 34.33,-174 39.67,-174"/>
<text text-anchor="start" x="40" y="-186.3" font-family="Helvetica,sans-Serif" font-size="14.00">8</text>
<path fill="none" stroke="black" d="M39.67,-174C39.67,-174 50.33,-174 50.33,-174 55.67,-174 61,-179.33 61,-184.67 61,-184.67 61,-195.33 61,-195.33 61,-200.67 55.67,-206 50.33,-206 50.33,-206 39.67,-206 39.67,-206 34.33,-206 29,-200.67 29,-195.33 29,-195.33 29,-184.67 29,-184.67 29,-179.33 34.33,-174 39.67,-174"/>
</a>
</g>
</g>
<!-- function&#45;0&#45;ImmLabel -->
<g id="node3" class="node">
<title>function&#45;0&#45;ImmLabel</title>
<g id="a_node3"><a xlink:title="Imm&#45;10: function&#45;0&#45;ImmLabel">
<path fill="white" stroke="transparent" d="M574.17,-174C574.17,-174 631.83,-174 631.83,-174 637.17,-174 642.5,-179.33 642.5,-184.67 642.5,-184.67 642.5,-195.33 642.5,-195.33 642.5,-200.67 637.17,-206 631.83,-206 631.83,-206 574.17,-206 574.17,-206 568.83,-206 563.5,-200.67 563.5,-195.33 563.5,-195.33 563.5,-184.67 563.5,-184.67 563.5,-179.33 568.83,-174 574.17,-174"/>
<text text-anchor="start" x="569" y="-186.3" font-family="Helvetica,sans-Serif" font-size="14.00">ImmLabel</text>
<path fill="none" stroke="black" d="M574.17,-174C574.17,-174 631.83,-174 631.83,-174 637.17,-174 642.5,-179.33 642.5,-184.67 642.5,-184.67 642.5,-195.33 642.5,-195.33 642.5,-200.67 637.17,-206 631.83,-206 631.83,-206 574.17,-206 574.17,-206 568.83,-206 563.5,-200.67 563.5,-195.33 563.5,-195.33 563.5,-184.67 563.5,-184.67 563.5,-179.33 568.83,-174 574.17,-174"/>
</a>
</g>
</g>
<!-- primitive&#45;String&#45;5 -->
<g id="node4" class="node">
<title>primitive&#45;String&#45;5</title>
<g id="a_node4"><a xlink:title="String&#45;5: primitive&#45;String&#45;5">
<path fill="white" stroke="transparent" d="M587.67,-95C587.67,-95 620.33,-95 620.33,-95 625.67,-95 631,-100.33 631,-105.67 631,-105.67 631,-116.33 631,-116.33 631,-121.67 625.67,-127 620.33,-127 620.33,-127 587.67,-127 587.67,-127 582.33,-127 577,-121.67 577,-116.33 577,-116.33 577,-105.67 577,-105.67 577,-100.33 582.33,-95 587.67,-95"/>
<text text-anchor="start" x="582" y="-107.3" font-family="Helvetica,sans-Serif" font-size="14.00">&quot;.L27&quot;</text>
<path fill="none" stroke="black" d="M587.67,-95C587.67,-95 620.33,-95 620.33,-95 625.67,-95 631,-100.33 631,-105.67 631,-105.67 631,-116.33 631,-116.33 631,-121.67 625.67,-127 620.33,-127 620.33,-127 587.67,-127 587.67,-127 582.33,-127 577,-121.67 577,-116.33 577,-116.33 577,-105.67 577,-105.67 577,-100.33 582.33,-95 587.67,-95"/>
</a>
</g>
</g>
<!-- function&#45;1&#45;ImmVal -->
<g id="node5" class="node">
<title>function&#45;1&#45;ImmVal</title>
<g id="a_node5"><a xlink:title="Imm&#45;6: function&#45;1&#45;ImmVal">
<path fill="white" stroke="transparent" d="M317.67,-95C317.67,-95 358.33,-95 358.33,-95 363.67,-95 369,-100.33 369,-105.67 369,-105.67 369,-116.33 369,-116.33 369,-121.67 363.67,-127 358.33,-127 358.33,-127 317.67,-127 317.67,-127 312.33,-127 307,-121.67 307,-116.33 307,-116.33 307,-105.67 307,-105.67 307,-100.33 312.33,-95 317.67,-95"/>
<text text-anchor="start" x="312" y="-107.3" font-family="Helvetica,sans-Serif" font-size="14.00">ImmVal</text>
<path fill="none" stroke="black" d="M317.67,-95C317.67,-95 358.33,-95 358.33,-95 363.67,-95 369,-100.33 369,-105.67 369,-105.67 369,-116.33 369,-116.33 369,-121.67 363.67,-127 358.33,-127 358.33,-127 317.67,-127 317.67,-127 312.33,-127 307,-121.67 307,-116.33 307,-116.33 307,-105.67 307,-105.67 307,-100.33 312.33,-95 317.67,-95"/>
</a>
</g>
</g>
<!-- primitive&#45;i64&#45;4 -->
<g id="node6" class="node">
<title>primitive&#45;i64&#45;4</title>
<g id="a_node6"><a xlink:title="i64&#45;4: primitive&#45;i64&#45;4">
<path fill="white" stroke="transparent" d="M332.67,-16C332.67,-16 343.33,-16 343.33,-16 348.67,-16 354,-21.33 354,-26.67 354,-26.67 354,-37.33 354,-37.33 354,-42.67 348.67,-48 343.33,-48 343.33,-48 332.67,-48 332.67,-48 327.33,-48 322,-42.67 322,-37.33 322,-37.33 322,-26.67 322,-26.67 322,-21.33 327.33,-16 332.67,-16"/>
<text text-anchor="start" x="333" y="-28.3" font-family="Helvetica,sans-Serif" font-size="14.00">4</text>
<path fill="none" stroke="black" d="M332.67,-16C332.67,-16 343.33,-16 343.33,-16 348.67,-16 354,-21.33 354,-26.67 354,-26.67 354,-37.33 354,-37.33 354,-42.67 348.67,-48 343.33,-48 343.33,-48 332.67,-48 332.67,-48 327.33,-48 322,-42.67 322,-37.33 322,-37.33 322,-26.67 322,-26.67 322,-21.33 327.33,-16 332.67,-16"/>
</a>
</g>
</g>
<!-- function&#45;0&#45;ImmVal -->
<g id="node7" class="node">
<title>function&#45;0&#45;ImmVal</title>
<g id="a_node7"><a xlink:title="Imm&#45;4: function&#45;0&#45;ImmVal">
<path fill="white" stroke="transparent" d="M143.67,-95C143.67,-95 184.33,-95 184.33,-95 189.67,-95 195,-100.33 195,-105.67 195,-105.67 195,-116.33 195,-116.33 195,-121.67 189.67,-127 184.33,-127 184.33,-127 143.67,-127 143.67,-127 138.33,-127 133,-121.67 133,-116.33 133,-116.33 133,-105.67 133,-105.67 133,-100.33 138.33,-95 143.67,-95"/>
<text text-anchor="start" x="138" y="-107.3" font-family="Helvetica,sans-Serif" font-size="14.00">ImmVal</text>
<path fill="none" stroke="black" d="M143.67,-95C143.67,-95 184.33,-95 184.33,-95 189.67,-95 195,-100.33 195,-105.67 195,-105.67 195,-116.33 195,-116.33 195,-121.67 189.67,-127 184.33,-127 184.33,-127 143.67,-127 143.67,-127 138.33,-127 133,-121.67 133,-116.33 133,-116.33 133,-105.67 133,-105.67 133,-100.33 138.33,-95 143.67,-95"/>
</a>
</g>
</g>
<!-- primitive&#45;i64&#45;1 -->
<g id="node8" class="node">
<title>primitive&#45;i64&#45;1</title>
<g id="a_node8"><a xlink:title="i64&#45;1: primitive&#45;i64&#45;1">
<path fill="white" stroke="transparent" d="M158.67,-16C158.67,-16 169.33,-16 169.33,-16 174.67,-16 180,-21.33 180,-26.67 180,-26.67 180,-37.33 180,-37.33 180,-42.67 174.67,-48 169.33,-48 169.33,-48 158.67,-48 158.67,-48 153.33,-48 148,-42.67 148,-37.33 148,-37.33 148,-26.67 148,-26.67 148,-21.33 153.33,-16 158.67,-16"/>
<text text-anchor="start" x="159" y="-28.3" font-family="Helvetica,sans-Serif" font-size="14.00">1</text>
<path fill="none" stroke="black" d="M158.67,-16C158.67,-16 169.33,-16 169.33,-16 174.67,-16 180,-21.33 180,-26.67 180,-26.67 180,-37.33 180,-37.33 180,-42.67 174.67,-48 169.33,-48 169.33,-48 158.67,-48 158.67,-48 153.33,-48 148,-42.67 148,-37.33 148,-37.33 148,-26.67 148,-26.67 148,-21.33 153.33,-16 158.67,-16"/>
</a>
</g>
</g>
<!-- function&#45;0&#45;Addi -->
<g id="node9" class="node">
<title>function&#45;0&#45;Addi</title>
<g id="a_node9"><a xlink:title="Inst&#45;5: function&#45;0&#45;Addi">
<path fill="white" stroke="transparent" d="M206.17,-174C206.17,-174 225.83,-174 225.83,-174 231.17,-174 236.5,-179.33 236.5,-184.67 236.5,-184.67 236.5,-195.33 236.5,-195.33 236.5,-200.67 231.17,-206 225.83,-206 225.83,-206 206.17,-206 206.17,-206 200.83,-206 195.5,-200.67 195.5,-195.33 195.5,-195.33 195.5,-184.67 195.5,-184.67 195.5,-179.33 200.83,-174 206.17,-174"/>
<text text-anchor="start" x="201" y="-186.3" font-family="Helvetica,sans-Serif" font-size="14.00">Addi</text>
<path fill="none" stroke="black" d="M206.17,-174C206.17,-174 225.83,-174 225.83,-174 231.17,-174 236.5,-179.33 236.5,-184.67 236.5,-184.67 236.5,-195.33 236.5,-195.33 236.5,-200.67 231.17,-206 225.83,-206 225.83,-206 206.17,-206 206.17,-206 200.83,-206 195.5,-200.67 195.5,-195.33 195.5,-195.33 195.5,-184.67 195.5,-184.67 195.5,-179.33 200.83,-174 206.17,-174"/>
</a>
</g>
</g>
<!-- function&#45;1&#45;RegVal -->
<g id="node10" class="node">
<title>function&#45;1&#45;RegVal</title>
<g id="a_node10"><a xlink:title="Inst&#45;1: function&#45;1&#45;RegVal">
<path fill="white" stroke="transparent" d="M218.17,-95C218.17,-95 253.83,-95 253.83,-95 259.17,-95 264.5,-100.33 264.5,-105.67 264.5,-105.67 264.5,-116.33 264.5,-116.33 264.5,-121.67 259.17,-127 253.83,-127 253.83,-127 218.17,-127 218.17,-127 212.83,-127 207.5,-121.67 207.5,-116.33 207.5,-116.33 207.5,-105.67 207.5,-105.67 207.5,-100.33 212.83,-95 218.17,-95"/>
<text text-anchor="start" x="213" y="-107.3" font-family="Helvetica,sans-Serif" font-size="14.00">RegVal</text>
<path fill="none" stroke="black" d="M218.17,-95C218.17,-95 253.83,-95 253.83,-95 259.17,-95 264.5,-100.33 264.5,-105.67 264.5,-105.67 264.5,-116.33 264.5,-116.33 264.5,-121.67 259.17,-127 253.83,-127 253.83,-127 218.17,-127 218.17,-127 212.83,-127 207.5,-121.67 207.5,-116.33 207.5,-116.33 207.5,-105.67 207.5,-105.67 207.5,-100.33 212.83,-95 218.17,-95"/>
</a>
</g>
</g>
<!-- function&#45;1&#45;Jal -->
<g id="node11" class="node">
<title>function&#45;1&#45;Jal</title>
<g id="a_node11"><a xlink:title="Inst&#45;15: function&#45;1&#45;Jal">
<path fill="white" stroke="transparent" d="M329.67,-174C329.67,-174 340.33,-174 340.33,-174 345.67,-174 351,-179.33 351,-184.67 351,-184.67 351,-195.33 351,-195.33 351,-200.67 345.67,-206 340.33,-206 340.33,-206 329.67,-206 329.67,-206 324.33,-206 319,-200.67 319,-195.33 319,-195.33 319,-184.67 319,-184.67 319,-179.33 324.33,-174 329.67,-174"/>
<text text-anchor="start" x="326.5" y="-186.3" font-family="Helvetica,sans-Serif" font-size="14.00">Jal</text>
<path fill="none" stroke="black" d="M329.67,-174C329.67,-174 340.33,-174 340.33,-174 345.67,-174 351,-179.33 351,-184.67 351,-184.67 351,-195.33 351,-195.33 351,-200.67 345.67,-206 340.33,-206 340.33,-206 329.67,-206 329.67,-206 324.33,-206 319,-200.67 319,-195.33 319,-195.33 319,-184.67 319,-184.67 319,-179.33 324.33,-174 329.67,-174"/>
</a>
</g>
</g>
<!-- function&#45;0&#45;Jal -->
<g id="node12" class="node">
<title>function&#45;0&#45;Jal</title>
<g id="a_node12"><a xlink:title="Inst&#45;13: function&#45;0&#45;Jal">
<path fill="white" stroke="transparent" d="M597.67,-253C597.67,-253 608.33,-253 608.33,-253 613.67,-253 619,-258.33 619,-263.67 619,-263.67 619,-274.33 619,-274.33 619,-279.67 613.67,-285 608.33,-285 608.33,-285 597.67,-285 597.67,-285 592.33,-285 587,-279.67 587,-274.33 587,-274.33 587,-263.67 587,-263.67 587,-258.33 592.33,-253 597.67,-253"/>
<text text-anchor="start" x="594.5" y="-265.3" font-family="Helvetica,sans-Serif" font-size="14.00">Jal</text>
<path fill="none" stroke="black" d="M597.67,-253C597.67,-253 608.33,-253 608.33,-253 613.67,-253 619,-258.33 619,-263.67 619,-263.67 619,-274.33 619,-274.33 619,-279.67 613.67,-285 608.33,-285 608.33,-285 597.67,-285 597.67,-285 592.33,-285 587,-279.67 587,-274.33 587,-274.33 587,-263.67 587,-263.67 587,-258.33 592.33,-253 597.67,-253"/>
</a>
</g>
</g>
<!-- function&#45;1&#45;Addi -->
<g id="node13" class="node">
<title>function&#45;1&#45;Addi</title>
<g id="a_node13"><a xlink:title="Inst&#45;7: function&#45;1&#45;Addi">
<path fill="white" stroke="transparent" d="M413.17,-174C413.17,-174 432.83,-174 432.83,-174 438.17,-174 443.5,-179.33 443.5,-184.67 443.5,-184.67 443.5,-195.33 443.5,-195.33 443.5,-200.67 438.17,-206 432.83,-206 432.83,-206 413.17,-206 413.17,-206 407.83,-206 402.5,-200.67 402.5,-195.33 402.5,-195.33 402.5,-184.67 402.5,-184.67 402.5,-179.33 407.83,-174 413.17,-174"/>
<text text-anchor="start" x="408" y="-186.3" font-family="Helvetica,sans-Serif" font-size="14.00">Addi</text>
<path fill="none" stroke="black" d="M413.17,-174C413.17,-174 432.83,-174 432.83,-174 438.17,-174 443.5,-179.33 443.5,-184.67 443.5,-184.67 443.5,-195.33 443.5,-195.33 443.5,-200.67 438.17,-206 432.83,-206 432.83,-206 413.17,-206 413.17,-206 407.83,-206 402.5,-200.67 402.5,-195.33 402.5,-195.33 402.5,-184.67 402.5,-184.67 402.5,-179.33 407.83,-174 413.17,-174"/>
</a>
</g>
</g>
<!-- function&#45;0&#45;RegVal -->
<g id="node14" class="node">
<title>function&#45;0&#45;RegVal</title>
<g id="a_node14"><a xlink:title="Inst&#45;0: function&#45;0&#45;RegVal">
<path fill="white" stroke="transparent" d="M395.17,-95C395.17,-95 430.83,-95 430.83,-95 436.17,-95 441.5,-100.33 441.5,-105.67 441.5,-105.67 441.5,-116.33 441.5,-116.33 441.5,-121.67 436.17,-127 430.83,-127 430.83,-127 395.17,-127 395.17,-127 389.83,-127 384.5,-121.67 384.5,-116.33 384.5,-116.33 384.5,-105.67 384.5,-105.67 384.5,-100.33 389.83,-95 395.17,-95"/>
<text text-anchor="start" x="390" y="-107.3" font-family="Helvetica,sans-Serif" font-size="14.00">RegVal</text>
<path fill="none" stroke="black" d="M395.17,-95C395.17,-95 430.83,-95 430.83,-95 436.17,-95 441.5,-100.33 441.5,-105.67 441.5,-105.67 441.5,-116.33 441.5,-116.33 441.5,-121.67 436.17,-127 430.83,-127 430.83,-127 395.17,-127 395.17,-127 389.83,-127 384.5,-121.67 384.5,-116.33 384.5,-116.33 384.5,-105.67 384.5,-105.67 384.5,-100.33 389.83,-95 395.17,-95"/>
</a>
</g>
</g>
<!-- primitive&#45;String&#45;1 -->
<g id="node15" class="node">
<title>primitive&#45;String&#45;1</title>
<g id="a_node15"><a xlink:title="String&#45;1: primitive&#45;String&#45;1">
<path fill="white" stroke="transparent" d="M396.17,-16C396.17,-16 431.83,-16 431.83,-16 437.17,-16 442.5,-21.33 442.5,-26.67 442.5,-26.67 442.5,-37.33 442.5,-37.33 442.5,-42.67 437.17,-48 431.83,-48 431.83,-48 396.17,-48 396.17,-48 390.83,-48 385.5,-42.67 385.5,-37.33 385.5,-37.33 385.5,-26.67 385.5,-26.67 385.5,-21.33 390.83,-16 396.17,-16"/>
<text text-anchor="start" x="391" y="-28.3" font-family="Helvetica,sans-Serif" font-size="14.00">&quot;a0_0&quot;</text>
<path fill="none" stroke="black" d="M396.17,-16C396.17,-16 431.83,-16 431.83,-16 437.17,-16 442.5,-21.33 442.5,-26.67 442.5,-26.67 442.5,-37.33 442.5,-37.33 442.5,-42.67 437.17,-48 431.83,-48 431.83,-48 396.17,-48 396.17,-48 390.83,-48 385.5,-42.67 385.5,-37.33 385.5,-37.33 385.5,-26.67 385.5,-26.67 385.5,-21.33 390.83,-16 396.17,-16"/>
</a>
</g>
</g>
<!-- function&#45;0&#45;Bne -->
<g id="node16" class="node">
<title>function&#45;0&#45;Bne</title>
<g id="a_node16"><a xlink:title="Inst&#45;11: function&#45;0&#45;Bne">
<path fill="white" stroke="transparent" d="M573.67,-332C573.67,-332 590.33,-332 590.33,-332 595.67,-332 601,-337.33 601,-342.67 601,-342.67 601,-353.33 601,-353.33 601,-358.67 595.67,-364 590.33,-364 590.33,-364 573.67,-364 573.67,-364 568.33,-364 563,-358.67 563,-353.33 563,-353.33 563,-342.67 563,-342.67 563,-337.33 568.33,-332 573.67,-332"/>
<text text-anchor="start" x="568" y="-344.3" font-family="Helvetica,sans-Serif" font-size="14.00">Bne</text>
<path fill="none" stroke="black" d="M573.67,-332C573.67,-332 590.33,-332 590.33,-332 595.67,-332 601,-337.33 601,-342.67 601,-342.67 601,-353.33 601,-353.33 601,-358.67 595.67,-364 590.33,-364 590.33,-364 573.67,-364 573.67,-364 568.33,-364 563,-358.67 563,-353.33 563,-353.33 563,-342.67 563,-342.67 563,-337.33 568.33,-332 573.67,-332"/>
</a>
</g>
</g>
<!-- function&#45;3&#45;RegVal -->
<g id="node17" class="node">
<title>function&#45;3&#45;RegVal</title>
<g id="a_node17"><a xlink:title="Inst&#45;3: function&#45;3&#45;RegVal">
<path fill="white" stroke="transparent" d="M475.17,-174C475.17,-174 510.83,-174 510.83,-174 516.17,-174 521.5,-179.33 521.5,-184.67 521.5,-184.67 521.5,-195.33 521.5,-195.33 521.5,-200.67 516.17,-206 510.83,-206 510.83,-206 475.17,-206 475.17,-206 469.83,-206 464.5,-200.67 464.5,-195.33 464.5,-195.33 464.5,-184.67 464.5,-184.67 464.5,-179.33 469.83,-174 475.17,-174"/>
<text text-anchor="start" x="470" y="-186.3" font-family="Helvetica,sans-Serif" font-size="14.00">RegVal</text>
<path fill="none" stroke="black" d="M475.17,-174C475.17,-174 510.83,-174 510.83,-174 516.17,-174 521.5,-179.33 521.5,-184.67 521.5,-184.67 521.5,-195.33 521.5,-195.33 521.5,-200.67 516.17,-206 510.83,-206 510.83,-206 475.17,-206 475.17,-206 469.83,-206 464.5,-200.67 464.5,-195.33 464.5,-195.33 464.5,-184.67 464.5,-184.67 464.5,-179.33 469.83,-174 475.17,-174"/>
</a>
</g>
</g>
<!-- function&#45;1&#45;Bne -->
<g id="node18" class="node">
<title>function&#45;1&#45;Bne</title>
<g id="a_node18"><a xlink:title="Inst&#45;11: function&#45;1&#45;Bne">
<path fill="white" stroke="transparent" d="M457.67,-332C457.67,-332 474.33,-332 474.33,-332 479.67,-332 485,-337.33 485,-342.67 485,-342.67 485,-353.33 485,-353.33 485,-358.67 479.67,-364 474.33,-364 474.33,-364 457.67,-364 457.67,-364 452.33,-364 447,-358.67 447,-353.33 447,-353.33 447,-342.67 447,-342.67 447,-337.33 452.33,-332 457.67,-332"/>
<text text-anchor="start" x="452" y="-344.3" font-family="Helvetica,sans-Serif" font-size="14.00">Bne</text>
<path fill="none" stroke="black" d="M457.67,-332C457.67,-332 474.33,-332 474.33,-332 479.67,-332 485,-337.33 485,-342.67 485,-342.67 485,-353.33 485,-353.33 485,-358.67 479.67,-364 474.33,-364 474.33,-364 457.67,-364 457.67,-364 452.33,-364 447,-358.67 447,-353.33 447,-353.33 447,-342.67 447,-342.67 447,-337.33 452.33,-332 457.67,-332"/>
</a>
</g>
</g>
<!-- function&#45;0&#45;Seq2 -->
<g id="node19" class="node">
<title>function&#45;0&#45;Seq2</title>
<g id="a_node19"><a xlink:title="Inst&#45;11: function&#45;0&#45;Seq2">
<path fill="white" stroke="transparent" d="M511.67,-332C511.67,-332 536.33,-332 536.33,-332 541.67,-332 547,-337.33 547,-342.67 547,-342.67 547,-353.33 547,-353.33 547,-358.67 541.67,-364 536.33,-364 536.33,-364 511.67,-364 511.67,-364 506.33,-364 501,-358.67 501,-353.33 501,-353.33 501,-342.67 501,-342.67 501,-337.33 506.33,-332 511.67,-332"/>
<text text-anchor="start" x="506" y="-344.3" font-family="Helvetica,sans-Serif" font-size="14.00">Seq2</text>
<path fill="none" stroke="black" d="M511.67,-332C511.67,-332 536.33,-332 536.33,-332 541.67,-332 547,-337.33 547,-342.67 547,-342.67 547,-353.33 547,-353.33 547,-358.67 541.67,-364 536.33,-364 536.33,-364 511.67,-364 511.67,-364 506.33,-364 501,-358.67 501,-353.33 501,-353.33 501,-342.67 501,-342.67 501,-337.33 506.33,-332 511.67,-332"/>
</a>
</g>
</g>
<!-- function&#45;0&#45;Beq -->
<g id="node20" class="node">
<title>function&#45;0&#45;Beq</title>
<g id="a_node20"><a xlink:title="Inst&#45;12: function&#45;0&#45;Beq">
<path fill="white" stroke="transparent" d="M438.67,-253C438.67,-253 455.33,-253 455.33,-253 460.67,-253 466,-258.33 466,-263.67 466,-263.67 466,-274.33 466,-274.33 466,-279.67 460.67,-285 455.33,-285 455.33,-285 438.67,-285 438.67,-285 433.33,-285 428,-279.67 428,-274.33 428,-274.33 428,-263.67 428,-263.67 428,-258.33 433.33,-253 438.67,-253"/>
<text text-anchor="start" x="433" y="-265.3" font-family="Helvetica,sans-Serif" font-size="14.00">Beq</text>
<path fill="none" stroke="black" d="M438.67,-253C438.67,-253 455.33,-253 455.33,-253 460.67,-253 466,-258.33 466,-263.67 466,-263.67 466,-274.33 466,-274.33 466,-279.67 460.67,-285 455.33,-285 455.33,-285 438.67,-285 438.67,-285 433.33,-285 428,-279.67 428,-274.33 428,-274.33 428,-263.67 428,-263.67 428,-258.33 433.33,-253 438.67,-253"/>
</a>
</g>
</g>
<!-- function&#45;1&#45;Beq -->
<g id="node21" class="node">
<title>function&#45;1&#45;Beq</title>
<g id="a_node21"><a xlink:title="Inst&#45;12: function&#45;1&#45;Beq">
<path fill="white" stroke="transparent" d="M496.67,-253C496.67,-253 513.33,-253 513.33,-253 518.67,-253 524,-258.33 524,-263.67 524,-263.67 524,-274.33 524,-274.33 524,-279.67 518.67,-285 513.33,-285 513.33,-285 496.67,-285 496.67,-285 491.33,-285 486,-279.67 486,-274.33 486,-274.33 486,-263.67 486,-263.67 486,-258.33 491.33,-253 496.67,-253"/>
<text text-anchor="start" x="491" y="-265.3" font-family="Helvetica,sans-Serif" font-size="14.00">Beq</text>
<path fill="none" stroke="black" d="M496.67,-253C496.67,-253 513.33,-253 513.33,-253 518.67,-253 524,-258.33 524,-263.67 524,-263.67 524,-274.33 524,-274.33 524,-279.67 518.67,-285 513.33,-285 513.33,-285 496.67,-285 496.67,-285 491.33,-285 486,-279.67 486,-274.33 486,-274.33 486,-263.67 486,-263.67 486,-258.33 491.33,-253 496.67,-253"/>
</a>
</g>
</g>
<!-- function&#45;1&#45;Seq2 -->
<g id="node22" class="node">
<title>function&#45;1&#45;Seq2</title>
<g id="a_node22"><a xlink:title="Inst&#45;12: function&#45;1&#45;Seq2">
<path fill="white" stroke="transparent" d="M376.67,-253C376.67,-253 401.33,-253 401.33,-253 406.67,-253 412,-258.33 412,-263.67 412,-263.67 412,-274.33 412,-274.33 412,-279.67 406.67,-285 401.33,-285 401.33,-285 376.67,-285 376.67,-285 371.33,-285 366,-279.67 366,-274.33 366,-274.33 366,-263.67 366,-263.67 366,-258.33 371.33,-253 376.67,-253"/>
<text text-anchor="start" x="371" y="-265.3" font-family="Helvetica,sans-Serif" font-size="14.00">Seq2</text>
<path fill="none" stroke="black" d="M376.67,-253C376.67,-253 401.33,-253 401.33,-253 406.67,-253 412,-258.33 412,-263.67 412,-263.67 412,-274.33 412,-274.33 412,-279.67 406.67,-285 401.33,-285 401.33,-285 376.67,-285 376.67,-285 371.33,-285 366,-279.67 366,-274.33 366,-274.33 366,-263.67 366,-263.67 366,-258.33 371.33,-253 376.67,-253"/>
</a>
</g>
</g>
<!-- function&#45;2&#45;Bne -->
<g id="node23" class="node">
<title>function&#45;2&#45;Bne</title>
<g id="a_node23"><a xlink:title="Inst&#45;14: function&#45;2&#45;Bne">
<path fill="white" stroke="transparent" d="M256.67,-253C256.67,-253 273.33,-253 273.33,-253 278.67,-253 284,-258.33 284,-263.67 284,-263.67 284,-274.33 284,-274.33 284,-279.67 278.67,-285 273.33,-285 273.33,-285 256.67,-285 256.67,-285 251.33,-285 246,-279.67 246,-274.33 246,-274.33 246,-263.67 246,-263.67 246,-258.33 251.33,-253 256.67,-253"/>
<text text-anchor="start" x="251" y="-265.3" font-family="Helvetica,sans-Serif" font-size="14.00">Bne</text>
<path fill="none" stroke="black" d="M256.67,-253C256.67,-253 273.33,-253 273.33,-253 278.67,-253 284,-258.33 284,-263.67 284,-263.67 284,-274.33 284,-274.33 284,-279.67 278.67,-285 273.33,-285 273.33,-285 256.67,-285 256.67,-285 251.33,-285 246,-279.67 246,-274.33 246,-274.33 246,-263.67 246,-263.67 246,-258.33 251.33,-253 256.67,-253"/>
</a>
</g>
</g>
<!-- function&#45;2&#45;RegVal -->
<g id="node24" class="node">
<title>function&#45;2&#45;RegVal</title>
<g id="a_node24"><a xlink:title="Inst&#45;2: function&#45;2&#45;RegVal">
<path fill="white" stroke="transparent" d="M99.17,-253C99.17,-253 134.83,-253 134.83,-253 140.17,-253 145.5,-258.33 145.5,-263.67 145.5,-263.67 145.5,-274.33 145.5,-274.33 145.5,-279.67 140.17,-285 134.83,-285 134.83,-285 99.17,-285 99.17,-285 93.83,-285 88.5,-279.67 88.5,-274.33 88.5,-274.33 88.5,-263.67 88.5,-263.67 88.5,-258.33 93.83,-253 99.17,-253"/>
<text text-anchor="start" x="94" y="-265.3" font-family="Helvetica,sans-Serif" font-size="14.00">RegVal</text>
<path fill="none" stroke="black" d="M99.17,-253C99.17,-253 134.83,-253 134.83,-253 140.17,-253 145.5,-258.33 145.5,-263.67 145.5,-263.67 145.5,-274.33 145.5,-274.33 145.5,-279.67 140.17,-285 134.83,-285 134.83,-285 99.17,-285 99.17,-285 93.83,-285 88.5,-279.67 88.5,-274.33 88.5,-274.33 88.5,-263.67 88.5,-263.67 88.5,-258.33 93.83,-253 99.17,-253"/>
</a>
</g>
</g>
<!-- primitive&#45;String&#45;3 -->
<g id="node25" class="node">
<title>primitive&#45;String&#45;3</title>
<g id="a_node25"><a xlink:title="String&#45;3: primitive&#45;String&#45;3">
<path fill="white" stroke="transparent" d="M100.17,-174C100.17,-174 135.83,-174 135.83,-174 141.17,-174 146.5,-179.33 146.5,-184.67 146.5,-184.67 146.5,-195.33 146.5,-195.33 146.5,-200.67 141.17,-206 135.83,-206 135.83,-206 100.17,-206 100.17,-206 94.83,-206 89.5,-200.67 89.5,-195.33 89.5,-195.33 89.5,-184.67 89.5,-184.67 89.5,-179.33 94.83,-174 100.17,-174"/>
<text text-anchor="start" x="95" y="-186.3" font-family="Helvetica,sans-Serif" font-size="14.00">&quot;a3_0&quot;</text>
<path fill="none" stroke="black" d="M100.17,-174C100.17,-174 135.83,-174 135.83,-174 141.17,-174 146.5,-179.33 146.5,-184.67 146.5,-184.67 146.5,-195.33 146.5,-195.33 146.5,-200.67 141.17,-206 135.83,-206 135.83,-206 100.17,-206 100.17,-206 94.83,-206 89.5,-200.67 89.5,-195.33 89.5,-195.33 89.5,-184.67 89.5,-184.67 89.5,-179.33 94.83,-174 100.17,-174"/>
</a>
</g>
</g>
<!-- function&#45;3&#45;Bne -->
<g id="node26" class="node">
<title>function&#45;3&#45;Bne</title>
<g id="a_node26"><a xlink:title="Inst&#45;14: function&#45;3&#45;Bne">
<path fill="white" stroke="transparent" d="M198.67,-253C198.67,-253 215.33,-253 215.33,-253 220.67,-253 226,-258.33 226,-263.67 226,-263.67 226,-274.33 226,-274.33 226,-279.67 220.67,-285 215.33,-285 215.33,-285 198.67,-285 198.67,-285 193.33,-285 188,-279.67 188,-274.33 188,-274.33 188,-263.67 188,-263.67 188,-258.33 193.33,-253 198.67,-253"/>
<text text-anchor="start" x="193" y="-265.3" font-family="Helvetica,sans-Serif" font-size="14.00">Bne</text>
<path fill="none" stroke="black" d="M198.67,-253C198.67,-253 215.33,-253 215.33,-253 220.67,-253 226,-258.33 226,-263.67 226,-263.67 226,-274.33 226,-274.33 226,-279.67 220.67,-285 215.33,-285 215.33,-285 198.67,-285 198.67,-285 193.33,-285 188,-279.67 188,-274.33 188,-274.33 188,-263.67 188,-263.67 188,-258.33 193.33,-253 198.67,-253"/>
</a>
</g>
</g>
<!-- function&#45;2&#45;Seq2 -->
<g id="node27" class="node">
<title>function&#45;2&#45;Seq2</title>
<g id="a_node27"><a xlink:title="Inst&#45;14: function&#45;2&#45;Seq2">
<path fill="white" stroke="transparent" d="M310.67,-253C310.67,-253 335.33,-253 335.33,-253 340.67,-253 346,-258.33 346,-263.67 346,-263.67 346,-274.33 346,-274.33 346,-279.67 340.67,-285 335.33,-285 335.33,-285 310.67,-285 310.67,-285 305.33,-285 300,-279.67 300,-274.33 300,-274.33 300,-263.67 300,-263.67 300,-258.33 305.33,-253 310.67,-253"/>
<text text-anchor="start" x="305" y="-265.3" font-family="Helvetica,sans-Serif" font-size="14.00">Seq2</text>
<path fill="none" stroke="black" d="M310.67,-253C310.67,-253 335.33,-253 335.33,-253 340.67,-253 346,-258.33 346,-263.67 346,-263.67 346,-274.33 346,-274.33 346,-279.67 340.67,-285 335.33,-285 335.33,-285 310.67,-285 310.67,-285 305.33,-285 300,-279.67 300,-274.33 300,-274.33 300,-263.67 300,-263.67 300,-258.33 305.33,-253 310.67,-253"/>
</a>
</g>
</g>
<!-- function&#45;2&#45;Addi -->
<g id="node28" class="node">
<title>function&#45;2&#45;Addi</title>
<g id="a_node28"><a xlink:title="Inst&#45;9: function&#45;2&#45;Addi">
<path fill="white" stroke="transparent" d="M74.17,-332C74.17,-332 93.83,-332 93.83,-332 99.17,-332 104.5,-337.33 104.5,-342.67 104.5,-342.67 104.5,-353.33 104.5,-353.33 104.5,-358.67 99.17,-364 93.83,-364 93.83,-364 74.17,-364 74.17,-364 68.83,-364 63.5,-358.67 63.5,-353.33 63.5,-353.33 63.5,-342.67 63.5,-342.67 63.5,-337.33 68.83,-332 74.17,-332"/>
<text text-anchor="start" x="69" y="-344.3" font-family="Helvetica,sans-Serif" font-size="14.00">Addi</text>
<path fill="none" stroke="black" d="M74.17,-332C74.17,-332 93.83,-332 93.83,-332 99.17,-332 104.5,-337.33 104.5,-342.67 104.5,-342.67 104.5,-353.33 104.5,-353.33 104.5,-358.67 99.17,-364 93.83,-364 93.83,-364 74.17,-364 74.17,-364 68.83,-364 63.5,-358.67 63.5,-353.33 63.5,-353.33 63.5,-342.67 63.5,-342.67 63.5,-337.33 68.83,-332 74.17,-332"/>
</a>
</g>
</g>
<!-- primitive&#45;String&#45;2 -->
<g id="node29" class="node">
<title>primitive&#45;String&#45;2</title>
<g id="a_node29"><a xlink:title="String&#45;2: primitive&#45;String&#45;2">
<path fill="white" stroke="transparent" d="M219.17,-16C219.17,-16 254.83,-16 254.83,-16 260.17,-16 265.5,-21.33 265.5,-26.67 265.5,-26.67 265.5,-37.33 265.5,-37.33 265.5,-42.67 260.17,-48 254.83,-48 254.83,-48 219.17,-48 219.17,-48 213.83,-48 208.5,-42.67 208.5,-37.33 208.5,-37.33 208.5,-26.67 208.5,-26.67 208.5,-21.33 213.83,-16 219.17,-16"/>
<text text-anchor="start" x="214" y="-28.3" font-family="Helvetica,sans-Serif" font-size="14.00">&quot;a2_0&quot;</text>
<path fill="none" stroke="black" d="M219.17,-16C219.17,-16 254.83,-16 254.83,-16 260.17,-16 265.5,-21.33 265.5,-26.67 265.5,-26.67 265.5,-37.33 265.5,-37.33 265.5,-42.67 260.17,-48 254.83,-48 254.83,-48 219.17,-48 219.17,-48 213.83,-48 208.5,-42.67 208.5,-37.33 208.5,-37.33 208.5,-26.67 208.5,-26.67 208.5,-21.33 213.83,-16 219.17,-16"/>
</a>
</g>
</g>
<!-- primitive&#45;String&#45;4 -->
<g id="node30" class="node">
<title>primitive&#45;String&#45;4</title>
<g id="a_node30"><a xlink:title="String&#45;4: primitive&#45;String&#45;4">
<path fill="white" stroke="transparent" d="M476.67,-95C476.67,-95 511.33,-95 511.33,-95 516.67,-95 522,-100.33 522,-105.67 522,-105.67 522,-116.33 522,-116.33 522,-121.67 516.67,-127 511.33,-127 511.33,-127 476.67,-127 476.67,-127 471.33,-127 466,-121.67 466,-116.33 466,-116.33 466,-105.67 466,-105.67 466,-100.33 471.33,-95 476.67,-95"/>
<text text-anchor="start" x="471" y="-107.3" font-family="Helvetica,sans-Serif" font-size="14.00">&quot;s0_0&quot;</text>
<path fill="none" stroke="black" d="M476.67,-95C476.67,-95 511.33,-95 511.33,-95 516.67,-95 522,-100.33 522,-105.67 522,-105.67 522,-116.33 522,-116.33 522,-121.67 516.67,-127 511.33,-127 511.33,-127 476.67,-127 476.67,-127 471.33,-127 466,-121.67 466,-116.33 466,-116.33 466,-105.67 466,-105.67 466,-100.33 471.33,-95 476.67,-95"/>
</a>
</g>
</g>
</g>
</svg>
