<?xml version="1.0" encoding="UTF-8" standalone="no"?>
<!DOCTYPE svg PUBLIC "-//W3C//DTD SVG 1.1//EN"
 "http://www.w3.org/Graphics/SVG/1.1/DTD/svg11.dtd">
<!-- Generated by graphviz version 2.43.0 (0)
 -->
<!-- Title: %3 Pages: 1 -->
<svg width="680pt" height="388pt"
 viewBox="0.00 0.00 680.00 388.00" xmlns="http://www.w3.org/2000/svg" xmlns:xlink="http://www.w3.org/1999/xlink">
<g id="graph0" class="graph" transform="scale(1 1) rotate(0) translate(4 384)">
<title>%3</title>
<polygon fill="white" stroke="#000000" points="-4,4 -4,-384 676,-384 676,4 -4,4"/>
<g id="clust1" class="cluster">
<title>outer_cluster_Imm&#45;4</title>
</g>
<g id="clust2" class="cluster">
<title>cluster_Imm&#45;4</title>
<path fill="#ffffb3" stroke="black" stroke-dasharray="5,2" d="M23,-90C23,-90 67,-90 67,-90 73,-90 79,-96 79,-102 79,-102 79,-120 79,-120 79,-126 73,-132 67,-132 67,-132 23,-132 23,-132 17,-132 11,-126 11,-120 11,-120 11,-102 11,-102 11,-96 17,-90 23,-90"/>
</g>
<g id="clust4" class="cluster">
<title>outer_cluster_Imm&#45;8</title>
</g>
<g id="clust5" class="cluster">
<title>cluster_Imm&#45;8</title>
<path fill="#ffffb3" stroke="black" stroke-dasharray="5,2" d="M534,-248C534,-248 578,-248 578,-248 584,-248 590,-254 590,-260 590,-260 590,-278 590,-278 590,-284 584,-290 578,-290 578,-290 534,-290 534,-290 528,-290 522,-284 522,-278 522,-278 522,-260 522,-260 522,-254 528,-248 534,-248"/>
</g>
<g id="clust7" class="cluster">
<title>outer_cluster_Imm&#45;6</title>
</g>
<g id="clust8" class="cluster">
<title>cluster_Imm&#45;6</title>
<path fill="#ffffb3" stroke="black" stroke-dasharray="5,2" d="M167,-90C167,-90 211,-90 211,-90 217,-90 223,-96 223,-102 223,-102 223,-120 223,-120 223,-126 217,-132 211,-132 211,-132 167,-132 167,-132 161,-132 155,-126 155,-120 155,-120 155,-102 155,-102 155,-96 161,-90 167,-90"/>
</g>
<g id="clust10" class="cluster">
<title>outer_cluster_Imm&#45;10</title>
</g>
<g id="clust11" class="cluster">
<title>cluster_Imm&#45;10</title>
<path fill="#ffffb3" stroke="black" stroke-dasharray="5,2" d="M448,-169C448,-169 508,-169 508,-169 514,-169 520,-175 520,-181 520,-181 520,-199 520,-199 520,-205 514,-211 508,-211 508,-211 448,-211 448,-211 442,-211 436,-205 436,-199 436,-199 436,-181 436,-181 436,-175 442,-169 448,-169"/>
</g>
<g id="clust13" class="cluster">
<title>outer_cluster_Inst&#45;12</title>
</g>
<g id="clust14" class="cluster">
<title>cluster_Inst&#45;12</title>
<path fill="#bebada" stroke="black" stroke-dasharray="5,2" d="M35,-248C35,-248 187,-248 187,-248 193,-248 199,-254 199,-260 199,-260 199,-278 199,-278 199,-284 193,-290 187,-290 187,-290 35,-290 35,-290 29,-290 23,-284 23,-278 23,-278 23,-260 23,-260 23,-254 29,-248 35,-248"/>
</g>
<g id="clust16" class="cluster">
<title>outer_cluster_Inst&#45;0</title>
</g>
<g id="clust17" class="cluster">
<title>cluster_Inst&#45;0</title>
<path fill="#bebada" stroke="black" stroke-dasharray="5,2" d="M241,-90C241,-90 281,-90 281,-90 287,-90 293,-96 293,-102 293,-102 293,-120 293,-120 293,-126 287,-132 281,-132 281,-132 241,-132 241,-132 235,-132 229,-126 229,-120 229,-120 229,-102 229,-102 229,-96 235,-90 241,-90"/>
</g>
<g id="clust19" class="cluster">
<title>outer_cluster_Inst&#45;5</title>
</g>
<g id="clust20" class="cluster">
<title>cluster_Inst&#45;5</title>
<path fill="#bebada" stroke="black" stroke-dasharray="5,2" d="M39,-169C39,-169 75,-169 75,-169 81,-169 87,-175 87,-181 87,-181 87,-199 87,-199 87,-205 81,-211 75,-211 75,-211 39,-211 39,-211 33,-211 27,-205 27,-199 27,-199 27,-181 27,-181 27,-175 33,-169 39,-169"/>
</g>
<g id="clust22" class="cluster">
<title>outer_cluster_Inst&#45;1</title>
</g>
<g id="clust23" class="cluster">
<title>cluster_Inst&#45;1</title>
<path fill="#bebada" stroke="black" stroke-dasharray="5,2" d="M97,-90C97,-90 137,-90 137,-90 143,-90 149,-96 149,-102 149,-102 149,-120 149,-120 149,-126 143,-132 137,-132 137,-132 97,-132 97,-132 91,-132 85,-126 85,-120 85,-120 85,-102 85,-102 85,-96 91,-90 97,-90"/>
</g>
<g id="clust25" class="cluster">
<title>outer_cluster_Inst&#45;7</title>
</g>
<g id="clust26" class="cluster">
<title>cluster_Inst&#45;7</title>
<path fill="#bebada" stroke="black" stroke-dasharray="5,2" d="M253,-169C253,-169 289,-169 289,-169 295,-169 301,-175 301,-181 301,-181 301,-199 301,-199 301,-205 295,-211 289,-211 289,-211 253,-211 253,-211 247,-211 241,-205 241,-199 241,-199 241,-181 241,-181 241,-175 247,-169 253,-169"/>
</g>
<g id="clust28" class="cluster">
<title>outer_cluster_Inst&#45;13</title>
</g>
<g id="clust29" class="cluster">
<title>cluster_Inst&#45;13</title>
<path fill="#bebada" stroke="black" stroke-dasharray="5,2" d="M421,-248C421,-248 457,-248 457,-248 463,-248 469,-254 469,-260 469,-260 469,-278 469,-278 469,-284 463,-290 457,-290 457,-290 421,-290 421,-290 415,-290 409,-284 409,-278 409,-278 409,-260 409,-260 409,-254 415,-248 421,-248"/>
</g>
<g id="clust31" class="cluster">
<title>outer_cluster_Inst&#45;2</title>
</g>
<g id="clust32" class="cluster">
<title>cluster_Inst&#45;2</title>
<path fill="#bebada" stroke="black" stroke-dasharray="5,2" d="M608,-248C608,-248 648,-248 648,-248 654,-248 660,-254 660,-260 660,-260 660,-278 660,-278 660,-284 654,-290 648,-290 648,-290 608,-290 608,-290 602,-290 596,-284 596,-278 596,-278 596,-260 596,-260 596,-254 602,-248 608,-248"/>
</g>
<g id="clust34" class="cluster">
<title>outer_cluster_Inst&#45;9</title>
</g>
<g id="clust35" class="cluster">
<title>cluster_Inst&#45;9</title>
<path fill="#bebada" stroke="black" stroke-dasharray="5,2" d="M570,-327C570,-327 606,-327 606,-327 612,-327 618,-333 618,-339 618,-339 618,-357 618,-357 618,-363 612,-369 606,-369 606,-369 570,-369 570,-369 564,-369 558,-363 558,-357 558,-357 558,-339 558,-339 558,-333 564,-327 570,-327"/>
</g>
<g id="clust37" class="cluster">
<title>outer_cluster_Inst&#45;15</title>
</g>
<g id="clust38" class="cluster">
<title>cluster_Inst&#45;15</title>
<path fill="#bebada" stroke="black" stroke-dasharray="5,2" d="M165,-169C165,-169 201,-169 201,-169 207,-169 213,-175 213,-181 213,-181 213,-199 213,-199 213,-205 207,-211 201,-211 201,-211 165,-211 165,-211 159,-211 153,-205 153,-199 153,-199 153,-181 153,-181 153,-175 159,-169 165,-169"/>
</g>
<g id="clust40" class="cluster">
<title>outer_cluster_Inst&#45;3</title>
</g>
<g id="clust41" class="cluster">
<title>cluster_Inst&#45;3</title>
<path fill="#bebada" stroke="black" stroke-dasharray="5,2" d="M322,-169C322,-169 362,-169 362,-169 368,-169 374,-175 374,-181 374,-181 374,-199 374,-199 374,-205 368,-211 362,-211 362,-211 322,-211 322,-211 316,-211 310,-205 310,-199 310,-199 310,-181 310,-181 310,-175 316,-169 322,-169"/>
</g>
<g id="clust43" class="cluster">
<title>outer_cluster_Inst&#45;11</title>
</g>
<g id="clust44" class="cluster">
<title>cluster_Inst&#45;11</title>
<path fill="#bebada" stroke="black" stroke-dasharray="5,2" d="M313,-327C313,-327 465,-327 465,-327 471,-327 477,-333 477,-339 477,-339 477,-357 477,-357 477,-363 471,-369 465,-369 465,-369 313,-369 313,-369 307,-369 301,-363 301,-357 301,-357 301,-339 301,-339 301,-333 307,-327 313,-327"/>
</g>
<g id="clust46" class="cluster">
<title>outer_cluster_Inst&#45;14</title>
</g>
<g id="clust47" class="cluster">
<title>cluster_Inst&#45;14</title>
<path fill="#bebada" stroke="black" stroke-dasharray="5,2" d="M217,-248C217,-248 369,-248 369,-248 375,-248 381,-254 381,-260 381,-260 381,-278 381,-278 381,-284 375,-290 369,-290 369,-290 217,-290 217,-290 211,-290 205,-284 205,-278 205,-278 205,-260 205,-260 205,-254 211,-248 217,-248"/>
</g>
<g id="clust49" class="cluster">
<title>outer_cluster_String&#45;1</title>
</g>
<g id="clust50" class="cluster">
<title>cluster_String&#45;1</title>
<path fill="#fb8072" stroke="black" stroke-dasharray="5,2" d="M98,-11C98,-11 138,-11 138,-11 144,-11 150,-17 150,-23 150,-23 150,-41 150,-41 150,-47 144,-53 138,-53 138,-53 98,-53 98,-53 92,-53 86,-47 86,-41 86,-41 86,-23 86,-23 86,-17 92,-11 98,-11"/>
</g>
<g id="clust52" class="cluster">
<title>outer_cluster_String&#45;3</title>
</g>
<g id="clust53" class="cluster">
<title>cluster_String&#45;3</title>
<path fill="#fb8072" stroke="black" stroke-dasharray="5,2" d="M324,-90C324,-90 362,-90 362,-90 368,-90 374,-96 374,-102 374,-102 374,-120 374,-120 374,-126 368,-132 362,-132 362,-132 324,-132 324,-132 318,-132 312,-126 312,-120 312,-120 312,-102 312,-102 312,-96 318,-90 324,-90"/>
</g>
<g id="clust55" class="cluster">
<title>outer_cluster_String&#45;2</title>
</g>
<g id="clust56" class="cluster">
<title>cluster_String&#45;2</title>
<path fill="#fb8072" stroke="black" stroke-dasharray="5,2" d="M609,-169C609,-169 649,-169 649,-169 655,-169 661,-175 661,-181 661,-181 661,-199 661,-199 661,-205 655,-211 649,-211 649,-211 609,-211 609,-211 603,-211 597,-205 597,-199 597,-199 597,-181 597,-181 597,-175 603,-169 609,-169"/>
</g>
<g id="clust58" class="cluster">
<title>outer_cluster_String&#45;4</title>
</g>
<g id="clust59" class="cluster">
<title>cluster_String&#45;4</title>
<path fill="#fb8072" stroke="black" stroke-dasharray="5,2" d="M461,-90C461,-90 497,-90 497,-90 503,-90 509,-96 509,-102 509,-102 509,-120 509,-120 509,-126 503,-132 497,-132 497,-132 461,-132 461,-132 455,-132 449,-126 449,-120 449,-120 449,-102 449,-102 449,-96 455,-90 461,-90"/>
</g>
<g id="clust61" class="cluster">
<title>outer_cluster_String&#45;0</title>
</g>
<g id="clust62" class="cluster">
<title>cluster_String&#45;0</title>
<path fill="#fb8072" stroke="black" stroke-dasharray="5,2" d="M242,-11C242,-11 282,-11 282,-11 288,-11 294,-17 294,-23 294,-23 294,-41 294,-41 294,-47 288,-53 282,-53 282,-53 242,-53 242,-53 236,-53 230,-47 230,-41 230,-41 230,-23 230,-23 230,-17 236,-11 242,-11"/>
</g>
<g id="clust64" class="cluster">
<title>outer_cluster_i64&#45;4</title>
</g>
<g id="clust65" class="cluster">
<title>cluster_i64&#45;4</title>
<path fill="#80b1d3" stroke="black" stroke-dasharray="5,2" d="M171,-11C171,-11 207,-11 207,-11 213,-11 219,-17 219,-23 219,-23 219,-41 219,-41 219,-47 213,-53 207,-53 207,-53 171,-53 171,-53 165,-53 159,-47 159,-41 159,-41 159,-23 159,-23 159,-17 165,-11 171,-11"/>
</g>
<g id="clust67" class="cluster">
<title>outer_cluster_i64&#45;8</title>
</g>
<g id="clust68" class="cluster">
<title>cluster_i64&#45;8</title>
<path fill="#80b1d3" stroke="black" stroke-dasharray="5,2" d="M538,-169C538,-169 574,-169 574,-169 580,-169 586,-175 586,-181 586,-181 586,-199 586,-199 586,-205 580,-211 574,-211 574,-211 538,-211 538,-211 532,-211 526,-205 526,-199 526,-199 526,-181 526,-181 526,-175 532,-169 538,-169"/>
</g>
<g id="clust70" class="cluster">
<title>outer_cluster_i64&#45;1</title>
</g>
<g id="clust71" class="cluster">
<title>cluster_i64&#45;1</title>
<path fill="#80b1d3" stroke="black" stroke-dasharray="5,2" d="M27,-11C27,-11 63,-11 63,-11 69,-11 75,-17 75,-23 75,-23 75,-41 75,-41 75,-47 69,-53 63,-53 63,-53 27,-53 27,-53 21,-53 15,-47 15,-41 15,-41 15,-23 15,-23 15,-17 21,-11 27,-11"/>
</g>
<!-- function&#45;0&#45;ImmVal&#45;&gt;primitive&#45;i64&#45;1 -->
<g id="edge1" class="edge">
<title>function&#45;0&#45;ImmVal:s&#45;&gt;primitive&#45;i64&#45;1</title>
<path fill="none" stroke="black" d="M45,-95C45,-81.84 45,-67.11 45,-55.3"/>
<polygon fill="black" stroke="black" points="46.75,-58 45,-53 43.25,-58 46.75,-58"/>
</g>
<!-- function&#45;2&#45;ImmVal&#45;&gt;primitive&#45;i64&#45;8 -->
<g id="edge2" class="edge">
<title>function&#45;2&#45;ImmVal:s&#45;&gt;primitive&#45;i64&#45;8</title>
<path fill="none" stroke="black" d="M556,-253C556,-239.84 556,-225.11 556,-213.3"/>
<polygon fill="black" stroke="black" points="557.75,-216 556,-211 554.25,-216 557.75,-216"/>
</g>
<!-- function&#45;1&#45;ImmVal&#45;&gt;primitive&#45;i64&#45;4 -->
<g id="edge3" class="edge">
<title>function&#45;1&#45;ImmVal:s&#45;&gt;primitive&#45;i64&#45;4</title>
<path fill="none" stroke="black" d="M189,-95C189,-81.84 189,-67.11 189,-55.3"/>
<polygon fill="black" stroke="black" points="190.75,-58 189,-53 187.25,-58 190.75,-58"/>
</g>
<!-- function&#45;0&#45;ImmLabel&#45;&gt;primitive&#45;String&#45;4 -->
<g id="edge4" class="edge">
<title>function&#45;0&#45;ImmLabel:s&#45;&gt;primitive&#45;String&#45;4</title>
<path fill="none" stroke="black" d="M479,-174C479,-160.84 479,-146.11 479,-134.3"/>
<polygon fill="black" stroke="black" points="480.75,-137 479,-132 477.25,-137 480.75,-137"/>
</g>
<!-- function&#45;0&#45;Beq&#45;&gt;function&#45;1&#45;ImmVal -->
<g id="edge7" class="edge">
<title>function&#45;0&#45;Beq:s&#45;&gt;function&#45;1&#45;ImmVal</title>
<path fill="none" stroke="black" d="M67,-253C67,-241.06 122.06,-174.91 130,-166 140.53,-154.18 153.39,-142.18 164.4,-132.51"/>
<polygon fill="black" stroke="black" points="161.75,-135.87 165.37,-132 160.13,-132.77 161.75,-135.87"/>
</g>
<!-- function&#45;0&#45;Beq&#45;&gt;function&#45;0&#45;Addi -->
<g id="edge5" class="edge">
<title>function&#45;0&#45;Beq:s&#45;&gt;function&#45;0&#45;Addi</title>
<path fill="none" stroke="black" d="M44,-253C44,-239.53 46.98,-224.75 50.08,-213.01"/>
<polygon fill="black" stroke="black" points="50.11,-216.13 51.41,-211 47.19,-214.2 50.11,-216.13"/>
</g>
<!-- function&#45;0&#45;Beq&#45;&gt;function&#45;3&#45;RegVal -->
<g id="edge6" class="edge">
<title>function&#45;0&#45;Beq:s&#45;&gt;function&#45;3&#45;RegVal</title>
<path fill="none" stroke="black" d="M58,-253C58,-240.91 72.2,-247.64 84,-245 179.51,-223.66 209.47,-245.85 302,-214 303.08,-213.63 304.17,-213.22 305.25,-212.8"/>
<polygon fill="black" stroke="black" points="306.09,-214.34 310,-210.77 304.72,-211.12 306.09,-214.34"/>
</g>
<!-- function&#45;0&#45;Addi&#45;&gt;function&#45;0&#45;ImmVal -->
<g id="edge15" class="edge">
<title>function&#45;0&#45;Addi:s&#45;&gt;function&#45;0&#45;ImmVal</title>
<path fill="none" stroke="black" d="M67,-174C67,-160.11 62.03,-145.42 56.82,-133.83"/>
<polygon fill="black" stroke="black" points="59.83,-135.17 55.59,-132 56.93,-137.12 59.83,-135.17"/>
</g>
<!-- function&#45;0&#45;Addi&#45;&gt;function&#45;1&#45;RegVal -->
<g id="edge14" class="edge">
<title>function&#45;0&#45;Addi:s&#45;&gt;function&#45;1&#45;RegVal</title>
<path fill="none" stroke="black" d="M47,-174C47,-162.76 67.5,-145.53 86.31,-132.08"/>
<polygon fill="black" stroke="black" points="82.42,-135.33 86.54,-132 81.24,-132.04 82.42,-135.33"/>
</g>
<!-- function&#45;3&#45;RegVal&#45;&gt;primitive&#45;String&#45;3 -->
<g id="edge24" class="edge">
<title>function&#45;3&#45;RegVal:s&#45;&gt;primitive&#45;String&#45;3</title>
<path fill="none" stroke="black" d="M343,-174C343,-160.84 343,-146.11 343,-134.3"/>
<polygon fill="black" stroke="black" points="344.75,-137 343,-132 341.25,-137 344.75,-137"/>
</g>
<!-- function&#45;1&#45;Beq&#45;&gt;function&#45;1&#45;ImmVal -->
<g id="edge10" class="edge">
<title>function&#45;1&#45;Beq:s&#45;&gt;function&#45;1&#45;ImmVal</title>
<path fill="none" stroke="black" d="M125,-253C125,-207.07 153.51,-159.64 172.47,-133.17"/>
<polygon fill="black" stroke="black" points="171.62,-136.98 173.43,-132 168.91,-134.77 171.62,-136.98"/>
</g>
<!-- function&#45;1&#45;Beq&#45;&gt;function&#45;0&#45;Addi -->
<g id="edge9" class="edge">
<title>function&#45;1&#45;Beq:s&#45;&gt;function&#45;0&#45;Addi</title>
<path fill="none" stroke="black" d="M116,-253C116,-234.82 102.52,-219.86 88.45,-209.19"/>
<polygon fill="black" stroke="black" points="91.99,-209.79 87,-208.02 89.79,-212.52 91.99,-209.79"/>
</g>
<!-- function&#45;1&#45;Beq&#45;&gt;function&#45;3&#45;RegVal -->
<g id="edge8" class="edge">
<title>function&#45;1&#45;Beq:s&#45;&gt;function&#45;3&#45;RegVal</title>
<path fill="none" stroke="black" d="M102,-253C102,-207.72 259.57,-229.81 302,-214 303.08,-213.6 304.16,-213.17 305.25,-212.72"/>
<polygon fill="black" stroke="black" points="306.15,-214.23 310,-210.6 304.72,-211.03 306.15,-214.23"/>
</g>
<!-- function&#45;1&#45;Seq2&#45;&gt;function&#45;2&#45;Bne -->
<g id="edge11" class="edge">
<title>function&#45;1&#45;Seq2:s&#45;&gt;function&#45;2&#45;Bne</title>
<path fill="none" stroke="black" d="M158,-253C158,-205.81 217.96,-202.06 260,-223.5 269.53,-228.36 276.96,-237.41 282.33,-246.17"/>
<polygon fill="black" stroke="black" points="279.37,-245.62 284.1,-248 281.88,-243.19 279.37,-245.62"/>
</g>
<!-- function&#45;1&#45;Seq2&#45;&gt;function&#45;1&#45;Jal -->
<g id="edge12" class="edge">
<title>function&#45;1&#45;Seq2:s&#45;&gt;function&#45;1&#45;Jal</title>
<path fill="none" stroke="black" d="M180,-253C180,-239.82 180.68,-225.09 181.4,-213.29"/>
<polygon fill="black" stroke="black" points="182.75,-216.2 181.73,-211 179.29,-215.7 182.75,-216.2"/>
</g>
<!-- function&#45;2&#45;Bne&#45;&gt;function&#45;1&#45;ImmVal -->
<g id="edge35" class="edge">
<title>function&#45;2&#45;Bne:s&#45;&gt;function&#45;1&#45;ImmVal</title>
<path fill="none" stroke="black" d="M307,-253C307,-214.24 254.12,-243.52 229,-214 214.52,-196.98 222.05,-186.85 214,-166 209.85,-155.23 204.56,-143.58 199.91,-133.86"/>
<polygon fill="black" stroke="black" points="202.9,-135.22 198.69,-132 199.97,-137.14 202.9,-135.22"/>
</g>
<!-- function&#45;2&#45;Bne&#45;&gt;function&#45;0&#45;Addi -->
<g id="edge33" class="edge">
<title>function&#45;2&#45;Bne:s&#45;&gt;function&#45;0&#45;Addi</title>
<path fill="none" stroke="black" d="M284,-253C284,-248.02 152.27,-214.65 89.51,-199.03"/>
<polygon fill="black" stroke="black" points="92.25,-198.46 87,-197.76 90.66,-201.58 92.25,-198.46"/>
</g>
<!-- function&#45;2&#45;Bne&#45;&gt;function&#45;3&#45;RegVal -->
<g id="edge34" class="edge">
<title>function&#45;2&#45;Bne:s&#45;&gt;function&#45;3&#45;RegVal</title>
<path fill="none" stroke="black" d="M298,-253C298,-237.23 307.59,-222.67 317.81,-211.63"/>
<polygon fill="black" stroke="black" points="315.38,-214.58 319.29,-211 314,-211.36 315.38,-214.58"/>
</g>
<!-- function&#45;1&#45;Jal&#45;&gt;function&#45;1&#45;ImmVal -->
<g id="edge23" class="edge">
<title>function&#45;1&#45;Jal:s&#45;&gt;function&#45;1&#45;ImmVal</title>
<path fill="none" stroke="black" d="M183,-174C183,-160.78 184.37,-146.04 185.8,-134.25"/>
<polygon fill="black" stroke="black" points="186.74,-137.29 186.46,-132 183.38,-136.31 186.74,-137.29"/>
</g>
<!-- function&#45;0&#45;RegVal&#45;&gt;primitive&#45;String&#45;0 -->
<g id="edge13" class="edge">
<title>function&#45;0&#45;RegVal:s&#45;&gt;primitive&#45;String&#45;0</title>
<path fill="none" stroke="black" d="M262,-95C262,-81.84 262,-67.11 262,-55.3"/>
<polygon fill="black" stroke="black" points="263.75,-58 262,-53 260.25,-58 263.75,-58"/>
</g>
<!-- function&#45;1&#45;RegVal&#45;&gt;primitive&#45;String&#45;1 -->
<g id="edge16" class="edge">
<title>function&#45;1&#45;RegVal:s&#45;&gt;primitive&#45;String&#45;1</title>
<path fill="none" stroke="black" d="M118,-95C118,-81.84 118,-67.11 118,-55.3"/>
<polygon fill="black" stroke="black" points="119.75,-58 118,-53 116.25,-58 119.75,-58"/>
</g>
<!-- function&#45;1&#45;Addi&#45;&gt;function&#45;1&#45;ImmVal -->
<g id="edge18" class="edge">
<title>function&#45;1&#45;Addi:s&#45;&gt;function&#45;1&#45;ImmVal</title>
<path fill="none" stroke="black" d="M281,-174C281,-170.5 251.34,-150.99 225.71,-134.77"/>
<polygon fill="black" stroke="black" points="226.47,-133.19 221.3,-132 224.6,-136.15 226.47,-133.19"/>
</g>
<!-- function&#45;1&#45;Addi&#45;&gt;function&#45;0&#45;RegVal -->
<g id="edge17" class="edge">
<title>function&#45;1&#45;Addi:s&#45;&gt;function&#45;0&#45;RegVal</title>
<path fill="none" stroke="black" d="M261,-174C261,-160.84 261,-146.11 261,-134.3"/>
<polygon fill="black" stroke="black" points="262.75,-137 261,-132 259.25,-137 262.75,-137"/>
</g>
<!-- function&#45;0&#45;Jal&#45;&gt;function&#45;0&#45;ImmLabel -->
<g id="edge19" class="edge">
<title>function&#45;0&#45;Jal:s&#45;&gt;function&#45;0&#45;ImmLabel</title>
<path fill="none" stroke="black" d="M439,-253C439,-237.82 447.48,-223.32 456.52,-212.17"/>
<polygon fill="black" stroke="black" points="455.24,-215.6 457.87,-211 452.95,-212.95 455.24,-215.6"/>
</g>
<!-- function&#45;2&#45;RegVal&#45;&gt;primitive&#45;String&#45;2 -->
<g id="edge20" class="edge">
<title>function&#45;2&#45;RegVal:s&#45;&gt;primitive&#45;String&#45;2</title>
<path fill="none" stroke="black" d="M629,-253C629,-239.84 629,-225.11 629,-213.3"/>
<polygon fill="black" stroke="black" points="630.75,-216 629,-211 627.25,-216 630.75,-216"/>
</g>
<!-- function&#45;2&#45;Addi&#45;&gt;function&#45;2&#45;ImmVal -->
<g id="edge22" class="edge">
<title>function&#45;2&#45;Addi:s&#45;&gt;function&#45;2&#45;ImmVal</title>
<path fill="none" stroke="black" d="M598,-332C598,-316.6 589.01,-302.18 579.35,-291.12"/>
<polygon fill="black" stroke="black" points="582.86,-291.48 577.77,-290 580.82,-294.33 582.86,-291.48"/>
</g>
<!-- function&#45;2&#45;Addi&#45;&gt;function&#45;2&#45;RegVal -->
<g id="edge21" class="edge">
<title>function&#45;2&#45;Addi:s&#45;&gt;function&#45;2&#45;RegVal</title>
<path fill="none" stroke="black" d="M578,-332C578,-315.85 588.41,-301.53 599.73,-290.73"/>
<polygon fill="black" stroke="black" points="597.92,-294.58 600.59,-290 595.65,-291.91 597.92,-294.58"/>
</g>
<!-- function&#45;0&#45;Bne&#45;&gt;function&#45;0&#45;ImmLabel -->
<g id="edge27" class="edge">
<title>function&#45;0&#45;Bne:s&#45;&gt;function&#45;0&#45;ImmLabel</title>
<path fill="none" stroke="black" d="M345,-332C345,-273.8 433.19,-338.08 470,-293 479.64,-281.2 479.95,-239.4 479.11,-213.12"/>
<polygon fill="black" stroke="black" points="481.1,-215.83 478.93,-211 477.61,-216.13 481.1,-215.83"/>
</g>
<!-- function&#45;0&#45;Bne&#45;&gt;function&#45;0&#45;Addi -->
<g id="edge25" class="edge">
<title>function&#45;0&#45;Bne:s&#45;&gt;function&#45;0&#45;Addi</title>
<path fill="none" stroke="black" d="M322,-332C322,-262.35 57.09,-345.23 11,-293 -10.02,-269.18 14.59,-234.17 35.11,-211.98"/>
<polygon fill="black" stroke="black" points="33.38,-215.2 36.62,-211 31.47,-212.26 33.38,-215.2"/>
</g>
<!-- function&#45;0&#45;Bne&#45;&gt;function&#45;3&#45;RegVal -->
<g id="edge26" class="edge">
<title>function&#45;0&#45;Bne:s&#45;&gt;function&#45;3&#45;RegVal</title>
<path fill="none" stroke="black" d="M336,-332C336,-305.2 370.73,-317.32 382,-293 390.97,-273.64 388.69,-265.26 382,-245 378.03,-232.98 370.24,-221.45 362.58,-212.15"/>
<polygon fill="black" stroke="black" points="366.2,-213.07 361.32,-211 363.84,-215.66 366.2,-213.07"/>
</g>
<!-- function&#45;1&#45;Bne&#45;&gt;function&#45;0&#45;ImmLabel -->
<g id="edge30" class="edge">
<title>function&#45;1&#45;Bne:s&#45;&gt;function&#45;0&#45;ImmLabel</title>
<path fill="none" stroke="black" d="M403,-332C403,-293.24 460.62,-325.97 481,-293 495.83,-269 491.05,-235.4 485.32,-213.42"/>
<polygon fill="black" stroke="black" points="487.94,-214.47 483.93,-211 484.9,-216.21 487.94,-214.47"/>
</g>
<!-- function&#45;1&#45;Bne&#45;&gt;function&#45;0&#45;Addi -->
<g id="edge29" class="edge">
<title>function&#45;1&#45;Bne:s&#45;&gt;function&#45;0&#45;Addi</title>
<path fill="none" stroke="black" d="M394,-332C394,-248.88 78.01,-354.42 22,-293 1.34,-270.34 21.45,-234.92 38.61,-212.34"/>
<polygon fill="black" stroke="black" points="37.83,-215.93 39.77,-211 35.18,-213.64 37.83,-215.93"/>
</g>
<!-- function&#45;1&#45;Bne&#45;&gt;function&#45;3&#45;RegVal -->
<g id="edge28" class="edge">
<title>function&#45;1&#45;Bne:s&#45;&gt;function&#45;3&#45;RegVal</title>
<path fill="none" stroke="black" d="M380,-332C380,-314.31 386.21,-310.6 388,-293 390.15,-271.78 395.37,-265.02 388,-245 383.46,-232.66 374.7,-221.23 366.04,-212.08"/>
<polygon fill="black" stroke="black" points="369.51,-212.22 364.35,-211 367.62,-215.17 369.51,-212.22"/>
</g>
<!-- function&#45;0&#45;Seq2&#45;&gt;function&#45;0&#45;Beq -->
<g id="edge31" class="edge">
<title>function&#45;0&#45;Seq2:s&#45;&gt;function&#45;0&#45;Beq</title>
<path fill="none" stroke="black" d="M436,-332C436,-322.43 425.31,-326.25 416,-324 271.94,-289.23 222.4,-346 84,-293 83.46,-292.79 82.92,-292.57 82.38,-292.34"/>
<polygon fill="black" stroke="black" points="82.86,-290.63 77.6,-290 81.32,-293.77 82.86,-290.63"/>
</g>
<!-- function&#45;0&#45;Seq2&#45;&gt;function&#45;0&#45;Jal -->
<g id="edge32" class="edge">
<title>function&#45;0&#45;Seq2:s&#45;&gt;function&#45;0&#45;Jal</title>
<path fill="none" stroke="black" d="M458,-332C458,-318.31 453.71,-303.63 449.21,-292"/>
<polygon fill="black" stroke="black" points="451.98,-293.79 448.28,-290 448.81,-295.27 451.98,-293.79"/>
</g>
<!-- function&#45;3&#45;Bne&#45;&gt;function&#45;1&#45;ImmVal -->
<g id="edge38" class="edge">
<title>function&#45;3&#45;Bne:s&#45;&gt;function&#45;1&#45;ImmVal</title>
<path fill="none" stroke="black" d="M365,-253C365,-194.8 281.16,-255.14 240,-214 224.19,-198.2 234.63,-186.17 225,-166 219.61,-154.71 212.13,-143.06 205.38,-133.48"/>
<polygon fill="black" stroke="black" points="208.41,-133.53 203.34,-132 206.35,-136.36 208.41,-133.53"/>
</g>
<!-- function&#45;3&#45;Bne&#45;&gt;function&#45;0&#45;Addi -->
<g id="edge37" class="edge">
<title>function&#45;3&#45;Bne:s&#45;&gt;function&#45;0&#45;Addi</title>
<path fill="none" stroke="black" d="M356,-253C356,-236.61 336.06,-248.27 320,-245 245.59,-229.87 226.26,-229.83 152,-214 131.06,-209.54 107.7,-203.89 89.37,-199.31"/>
<polygon fill="black" stroke="black" points="92.24,-198.85 87,-198.04 90.59,-201.94 92.24,-198.85"/>
</g>
<!-- function&#45;3&#45;Bne&#45;&gt;function&#45;3&#45;RegVal -->
<g id="edge36" class="edge">
<title>function&#45;3&#45;Bne:s&#45;&gt;function&#45;3&#45;RegVal</title>
<path fill="none" stroke="black" d="M342,-253C342,-239.84 342,-225.11 342,-213.3"/>
<polygon fill="black" stroke="black" points="343.75,-216 342,-211 340.25,-216 343.75,-216"/>
</g>
<!-- function&#45;2&#45;Seq2&#45;&gt;function&#45;1&#45;Seq2 -->
<g id="edge39" class="edge">
<title>function&#45;2&#45;Seq2:s&#45;&gt;function&#45;1&#45;Seq2</title>
<path fill="none" stroke="black" d="M224,-253C224,-241.59 212.78,-243.91 200.57,-249.8"/>
<polygon fill="black" stroke="black" points="201.71,-246.57 199,-251.12 203.96,-249.26 201.71,-246.57"/>
</g>
<!-- function&#45;2&#45;Seq2&#45;&gt;function&#45;1&#45;Jal -->
<g id="edge40" class="edge">
<title>function&#45;2&#45;Seq2:s&#45;&gt;function&#45;1&#45;Jal</title>
<path fill="none" stroke="black" d="M246,-253C246,-242.39 227.62,-225.15 210.71,-211.54"/>
<polygon fill="black" stroke="black" points="214.74,-211.38 209.46,-211 213.35,-214.59 214.74,-211.38"/>
</g>
<!-- function&#45;0&#45;ImmVal -->
<g id="node1" class="node">
<title>function&#45;0&#45;ImmVal</title>
<g id="a_node1"><a xlink:title="Imm&#45;4: function&#45;0&#45;ImmVal">
<path fill="white" stroke="transparent" d="M24.67,-95C24.67,-95 65.33,-95 65.33,-95 70.67,-95 76,-100.33 76,-105.67 76,-105.67 76,-116.33 76,-116.33 76,-121.67 70.67,-127 65.33,-127 65.33,-127 24.67,-127 24.67,-127 19.33,-127 14,-121.67 14,-116.33 14,-116.33 14,-105.67 14,-105.67 14,-100.33 19.33,-95 24.67,-95"/>
<text text-anchor="start" x="19" y="-107.3" font-family="Helvetica,sans-Serif" font-size="14.00">ImmVal</text>
<path fill="none" stroke="black" d="M24.67,-95C24.67,-95 65.33,-95 65.33,-95 70.67,-95 76,-100.33 76,-105.67 76,-105.67 76,-116.33 76,-116.33 76,-121.67 70.67,-127 65.33,-127 65.33,-127 24.67,-127 24.67,-127 19.33,-127 14,-121.67 14,-116.33 14,-116.33 14,-105.67 14,-105.67 14,-100.33 19.33,-95 24.67,-95"/>
</a>
</g>
</g>
<!-- primitive&#45;i64&#45;1 -->
<g id="node2" class="node">
<title>primitive&#45;i64&#45;1</title>
<g id="a_node2"><a xlink:title="i64&#45;1: primitive&#45;i64&#45;1">
<path fill="white" stroke="transparent" d="M39.67,-16C39.67,-16 50.33,-16 50.33,-16 55.67,-16 61,-21.33 61,-26.67 61,-26.67 61,-37.33 61,-37.33 61,-42.67 55.67,-48 50.33,-48 50.33,-48 39.67,-48 39.67,-48 34.33,-48 29,-42.67 29,-37.33 29,-37.33 29,-26.67 29,-26.67 29,-21.33 34.33,-16 39.67,-16"/>
<text text-anchor="start" x="40" y="-28.3" font-family="Helvetica,sans-Serif" font-size="14.00">1</text>
<path fill="none" stroke="black" d="M39.67,-16C39.67,-16 50.33,-16 50.33,-16 55.67,-16 61,-21.33 61,-26.67 61,-26.67 61,-37.33 61,-37.33 61,-42.67 55.67,-48 50.33,-48 50.33,-48 39.67,-48 39.67,-48 34.33,-48 29,-42.67 29,-37.33 29,-37.33 29,-26.67 29,-26.67 29,-21.33 34.33,-16 39.67,-16"/>
</a>
</g>
</g>
<!-- function&#45;2&#45;ImmVal -->
<g id="node3" class="node">
<title>function&#45;2&#45;ImmVal</title>
<g id="a_node3"><a xlink:title="Imm&#45;8: function&#45;2&#45;ImmVal">
<path fill="white" stroke="transparent" d="M535.67,-253C535.67,-253 576.33,-253 576.33,-253 581.67,-253 587,-258.33 587,-263.67 587,-263.67 587,-274.33 587,-274.33 587,-279.67 581.67,-285 576.33,-285 576.33,-285 535.67,-285 535.67,-285 530.33,-285 525,-279.67 525,-274.33 525,-274.33 525,-263.67 525,-263.67 525,-258.33 530.33,-253 535.67,-253"/>
<text text-anchor="start" x="530" y="-265.3" font-family="Helvetica,sans-Serif" font-size="14.00">ImmVal</text>
<path fill="none" stroke="black" d="M535.67,-253C535.67,-253 576.33,-253 576.33,-253 581.67,-253 587,-258.33 587,-263.67 587,-263.67 587,-274.33 587,-274.33 587,-279.67 581.67,-285 576.33,-285 576.33,-285 535.67,-285 535.67,-285 530.33,-285 525,-279.67 525,-274.33 525,-274.33 525,-263.67 525,-263.67 525,-258.33 530.33,-253 535.67,-253"/>
</a>
</g>
</g>
<!-- primitive&#45;i64&#45;8 -->
<g id="node4" class="node">
<title>primitive&#45;i64&#45;8</title>
<g id="a_node4"><a xlink:title="i64&#45;8: primitive&#45;i64&#45;8">
<path fill="white" stroke="transparent" d="M550.67,-174C550.67,-174 561.33,-174 561.33,-174 566.67,-174 572,-179.33 572,-184.67 572,-184.67 572,-195.33 572,-195.33 572,-200.67 566.67,-206 561.33,-206 561.33,-206 550.67,-206 550.67,-206 545.33,-206 540,-200.67 540,-195.33 540,-195.33 540,-184.67 540,-184.67 540,-179.33 545.33,-174 550.67,-174"/>
<text text-anchor="start" x="551" y="-186.3" font-family="Helvetica,sans-Serif" font-size="14.00">8</text>
<path fill="none" stroke="black" d="M550.67,-174C550.67,-174 561.33,-174 561.33,-174 566.67,-174 572,-179.33 572,-184.67 572,-184.67 572,-195.33 572,-195.33 572,-200.67 566.67,-206 561.33,-206 561.33,-206 550.67,-206 550.67,-206 545.33,-206 540,-200.67 540,-195.33 540,-195.33 540,-184.67 540,-184.67 540,-179.33 545.33,-174 550.67,-174"/>
</a>
</g>
</g>
<!-- function&#45;1&#45;ImmVal -->
<g id="node5" class="node">
<title>function&#45;1&#45;ImmVal</title>
<g id="a_node5"><a xlink:title="Imm&#45;6: function&#45;1&#45;ImmVal">
<path fill="white" stroke="transparent" d="M168.67,-95C168.67,-95 209.33,-95 209.33,-95 214.67,-95 220,-100.33 220,-105.67 220,-105.67 220,-116.33 220,-116.33 220,-121.67 214.67,-127 209.33,-127 209.33,-127 168.67,-127 168.67,-127 163.33,-127 158,-121.67 158,-116.33 158,-116.33 158,-105.67 158,-105.67 158,-100.33 163.33,-95 168.67,-95"/>
<text text-anchor="start" x="163" y="-107.3" font-family="Helvetica,sans-Serif" font-size="14.00">ImmVal</text>
<path fill="none" stroke="black" d="M168.67,-95C168.67,-95 209.33,-95 209.33,-95 214.67,-95 220,-100.33 220,-105.67 220,-105.67 220,-116.33 220,-116.33 220,-121.67 214.67,-127 209.33,-127 209.33,-127 168.67,-127 168.67,-127 163.33,-127 158,-121.67 158,-116.33 158,-116.33 158,-105.67 158,-105.67 158,-100.33 163.33,-95 168.67,-95"/>
</a>
</g>
</g>
<!-- primitive&#45;i64&#45;4 -->
<g id="node6" class="node">
<title>primitive&#45;i64&#45;4</title>
<g id="a_node6"><a xlink:title="i64&#45;4: primitive&#45;i64&#45;4">
<path fill="white" stroke="transparent" d="M183.67,-16C183.67,-16 194.33,-16 194.33,-16 199.67,-16 205,-21.33 205,-26.67 205,-26.67 205,-37.33 205,-37.33 205,-42.67 199.67,-48 194.33,-48 194.33,-48 183.67,-48 183.67,-48 178.33,-48 173,-42.67 173,-37.33 173,-37.33 173,-26.67 173,-26.67 173,-21.33 178.33,-16 183.67,-16"/>
<text text-anchor="start" x="184" y="-28.3" font-family="Helvetica,sans-Serif" font-size="14.00">4</text>
<path fill="none" stroke="black" d="M183.67,-16C183.67,-16 194.33,-16 194.33,-16 199.67,-16 205,-21.33 205,-26.67 205,-26.67 205,-37.33 205,-37.33 205,-42.67 199.67,-48 194.33,-48 194.33,-48 183.67,-48 183.67,-48 178.33,-48 173,-42.67 173,-37.33 173,-37.33 173,-26.67 173,-26.67 173,-21.33 178.33,-16 183.67,-16"/>
</a>
</g>
</g>
<!-- function&#45;0&#45;ImmLabel -->
<g id="node7" class="node">
<title>function&#45;0&#45;ImmLabel</title>
<g id="a_node7"><a xlink:title="Imm&#45;10: function&#45;0&#45;ImmLabel">
<path fill="white" stroke="transparent" d="M449.17,-174C449.17,-174 506.83,-174 506.83,-174 512.17,-174 517.5,-179.33 517.5,-184.67 517.5,-184.67 517.5,-195.33 517.5,-195.33 517.5,-200.67 512.17,-206 506.83,-206 506.83,-206 449.17,-206 449.17,-206 443.83,-206 438.5,-200.67 438.5,-195.33 438.5,-195.33 438.5,-184.67 438.5,-184.67 438.5,-179.33 443.83,-174 449.17,-174"/>
<text text-anchor="start" x="444" y="-186.3" font-family="Helvetica,sans-Serif" font-size="14.00">ImmLabel</text>
<path fill="none" stroke="black" d="M449.17,-174C449.17,-174 506.83,-174 506.83,-174 512.17,-174 517.5,-179.33 517.5,-184.67 517.5,-184.67 517.5,-195.33 517.5,-195.33 517.5,-200.67 512.17,-206 506.83,-206 506.83,-206 449.17,-206 449.17,-206 443.83,-206 438.5,-200.67 438.5,-195.33 438.5,-195.33 438.5,-184.67 438.5,-184.67 438.5,-179.33 443.83,-174 449.17,-174"/>
</a>
</g>
</g>
<!-- primitive&#45;String&#45;4 -->
<g id="node8" class="node">
<title>primitive&#45;String&#45;4</title>
<g id="a_node8"><a xlink:title="String&#45;4: primitive&#45;String&#45;4">
<path fill="white" stroke="transparent" d="M462.67,-95C462.67,-95 495.33,-95 495.33,-95 500.67,-95 506,-100.33 506,-105.67 506,-105.67 506,-116.33 506,-116.33 506,-121.67 500.67,-127 495.33,-127 495.33,-127 462.67,-127 462.67,-127 457.33,-127 452,-121.67 452,-116.33 452,-116.33 452,-105.67 452,-105.67 452,-100.33 457.33,-95 462.67,-95"/>
<text text-anchor="start" x="457" y="-107.3" font-family="Helvetica,sans-Serif" font-size="14.00">&quot;.L27&quot;</text>
<path fill="none" stroke="black" d="M462.67,-95C462.67,-95 495.33,-95 495.33,-95 500.67,-95 506,-100.33 506,-105.67 506,-105.67 506,-116.33 506,-116.33 506,-121.67 500.67,-127 495.33,-127 495.33,-127 462.67,-127 462.67,-127 457.33,-127 452,-121.67 452,-116.33 452,-116.33 452,-105.67 452,-105.67 452,-100.33 457.33,-95 462.67,-95"/>
</a>
</g>
</g>
<!-- function&#45;0&#45;Beq -->
<g id="node9" class="node">
<title>function&#45;0&#45;Beq</title>
<g id="a_node9"><a xlink:title="Inst&#45;12: function&#45;0&#45;Beq">
<path fill="white" stroke="transparent" d="M44.67,-253C44.67,-253 61.33,-253 61.33,-253 66.67,-253 72,-258.33 72,-263.67 72,-263.67 72,-274.33 72,-274.33 72,-279.67 66.67,-285 61.33,-285 61.33,-285 44.67,-285 44.67,-285 39.33,-285 34,-279.67 34,-274.33 34,-274.33 34,-263.67 34,-263.67 34,-258.33 39.33,-253 44.67,-253"/>
<text text-anchor="start" x="39" y="-265.3" font-family="Helvetica,sans-Serif" font-size="14.00">Beq</text>
<path fill="none" stroke="black" d="M44.67,-253C44.67,-253 61.33,-253 61.33,-253 66.67,-253 72,-258.33 72,-263.67 72,-263.67 72,-274.33 72,-274.33 72,-279.67 66.67,-285 61.33,-285 61.33,-285 44.67,-285 44.67,-285 39.33,-285 34,-279.67 34,-274.33 34,-274.33 34,-263.67 34,-263.67 34,-258.33 39.33,-253 44.67,-253"/>
</a>
</g>
</g>
<!-- function&#45;0&#45;Addi -->
<g id="node10" class="node">
<title>function&#45;0&#45;Addi</title>
<g id="a_node10"><a xlink:title="Inst&#45;5: function&#45;0&#45;Addi">
<path fill="white" stroke="transparent" d="M47.17,-174C47.17,-174 66.83,-174 66.83,-174 72.17,-174 77.5,-179.33 77.5,-184.67 77.5,-184.67 77.5,-195.33 77.5,-195.33 77.5,-200.67 72.17,-206 66.83,-206 66.83,-206 47.17,-206 47.17,-206 41.83,-206 36.5,-200.67 36.5,-195.33 36.5,-195.33 36.5,-184.67 36.5,-184.67 36.5,-179.33 41.83,-174 47.17,-174"/>
<text text-anchor="start" x="42" y="-186.3" font-family="Helvetica,sans-Serif" font-size="14.00">Addi</text>
<path fill="none" stroke="black" d="M47.17,-174C47.17,-174 66.83,-174 66.83,-174 72.17,-174 77.5,-179.33 77.5,-184.67 77.5,-184.67 77.5,-195.33 77.5,-195.33 77.5,-200.67 72.17,-206 66.83,-206 66.83,-206 47.17,-206 47.17,-206 41.83,-206 36.5,-200.67 36.5,-195.33 36.5,-195.33 36.5,-184.67 36.5,-184.67 36.5,-179.33 41.83,-174 47.17,-174"/>
</a>
</g>
</g>
<!-- function&#45;3&#45;RegVal -->
<g id="node11" class="node">
<title>function&#45;3&#45;RegVal</title>
<g id="a_node11"><a xlink:title="Inst&#45;3: function&#45;3&#45;RegVal">
<path fill="white" stroke="transparent" d="M324.17,-174C324.17,-174 359.83,-174 359.83,-174 365.17,-174 370.5,-179.33 370.5,-184.67 370.5,-184.67 370.5,-195.33 370.5,-195.33 370.5,-200.67 365.17,-206 359.83,-206 359.83,-206 324.17,-206 324.17,-206 318.83,-206 313.5,-200.67 313.5,-195.33 313.5,-195.33 313.5,-184.67 313.5,-184.67 313.5,-179.33 318.83,-174 324.17,-174"/>
<text text-anchor="start" x="319" y="-186.3" font-family="Helvetica,sans-Serif" font-size="14.00">RegVal</text>
<path fill="none" stroke="black" d="M324.17,-174C324.17,-174 359.83,-174 359.83,-174 365.17,-174 370.5,-179.33 370.5,-184.67 370.5,-184.67 370.5,-195.33 370.5,-195.33 370.5,-200.67 365.17,-206 359.83,-206 359.83,-206 324.17,-206 324.17,-206 318.83,-206 313.5,-200.67 313.5,-195.33 313.5,-195.33 313.5,-184.67 313.5,-184.67 313.5,-179.33 318.83,-174 324.17,-174"/>
</a>
</g>
</g>
<!-- function&#45;1&#45;Beq -->
<g id="node12" class="node">
<title>function&#45;1&#45;Beq</title>
<g id="a_node12"><a xlink:title="Inst&#45;12: function&#45;1&#45;Beq">
<path fill="white" stroke="transparent" d="M102.67,-253C102.67,-253 119.33,-253 119.33,-253 124.67,-253 130,-258.33 130,-263.67 130,-263.67 130,-274.33 130,-274.33 130,-279.67 124.67,-285 119.33,-285 119.33,-285 102.67,-285 102.67,-285 97.33,-285 92,-279.67 92,-274.33 92,-274.33 92,-263.67 92,-263.67 92,-258.33 97.33,-253 102.67,-253"/>
<text text-anchor="start" x="97" y="-265.3" font-family="Helvetica,sans-Serif" font-size="14.00">Beq</text>
<path fill="none" stroke="black" d="M102.67,-253C102.67,-253 119.33,-253 119.33,-253 124.67,-253 130,-258.33 130,-263.67 130,-263.67 130,-274.33 130,-274.33 130,-279.67 124.67,-285 119.33,-285 119.33,-285 102.67,-285 102.67,-285 97.33,-285 92,-279.67 92,-274.33 92,-274.33 92,-263.67 92,-263.67 92,-258.33 97.33,-253 102.67,-253"/>
</a>
</g>
</g>
<!-- function&#45;1&#45;Seq2 -->
<g id="node13" class="node">
<title>function&#45;1&#45;Seq2</title>
<g id="a_node13"><a xlink:title="Inst&#45;12: function&#45;1&#45;Seq2">
<path fill="white" stroke="transparent" d="M156.67,-253C156.67,-253 181.33,-253 181.33,-253 186.67,-253 192,-258.33 192,-263.67 192,-263.67 192,-274.33 192,-274.33 192,-279.67 186.67,-285 181.33,-285 181.33,-285 156.67,-285 156.67,-285 151.33,-285 146,-279.67 146,-274.33 146,-274.33 146,-263.67 146,-263.67 146,-258.33 151.33,-253 156.67,-253"/>
<text text-anchor="start" x="151" y="-265.3" font-family="Helvetica,sans-Serif" font-size="14.00">Seq2</text>
<path fill="none" stroke="black" d="M156.67,-253C156.67,-253 181.33,-253 181.33,-253 186.67,-253 192,-258.33 192,-263.67 192,-263.67 192,-274.33 192,-274.33 192,-279.67 186.67,-285 181.33,-285 181.33,-285 156.67,-285 156.67,-285 151.33,-285 146,-279.67 146,-274.33 146,-274.33 146,-263.67 146,-263.67 146,-258.33 151.33,-253 156.67,-253"/>
</a>
</g>
</g>
<!-- function&#45;2&#45;Bne -->
<g id="node14" class="node">
<title>function&#45;2&#45;Bne</title>
<g id="a_node14"><a xlink:title="Inst&#45;14: function&#45;2&#45;Bne">
<path fill="white" stroke="transparent" d="M284.67,-253C284.67,-253 301.33,-253 301.33,-253 306.67,-253 312,-258.33 312,-263.67 312,-263.67 312,-274.33 312,-274.33 312,-279.67 306.67,-285 301.33,-285 301.33,-285 284.67,-285 284.67,-285 279.33,-285 274,-279.67 274,-274.33 274,-274.33 274,-263.67 274,-263.67 274,-258.33 279.33,-253 284.67,-253"/>
<text text-anchor="start" x="279" y="-265.3" font-family="Helvetica,sans-Serif" font-size="14.00">Bne</text>
<path fill="none" stroke="black" d="M284.67,-253C284.67,-253 301.33,-253 301.33,-253 306.67,-253 312,-258.33 312,-263.67 312,-263.67 312,-274.33 312,-274.33 312,-279.67 306.67,-285 301.33,-285 301.33,-285 284.67,-285 284.67,-285 279.33,-285 274,-279.67 274,-274.33 274,-274.33 274,-263.67 274,-263.67 274,-258.33 279.33,-253 284.67,-253"/>
</a>
</g>
</g>
<!-- function&#45;1&#45;Jal -->
<g id="node15" class="node">
<title>function&#45;1&#45;Jal</title>
<g id="a_node15"><a xlink:title="Inst&#45;15: function&#45;1&#45;Jal">
<path fill="white" stroke="transparent" d="M177.67,-174C177.67,-174 188.33,-174 188.33,-174 193.67,-174 199,-179.33 199,-184.67 199,-184.67 199,-195.33 199,-195.33 199,-200.67 193.67,-206 188.33,-206 188.33,-206 177.67,-206 177.67,-206 172.33,-206 167,-200.67 167,-195.33 167,-195.33 167,-184.67 167,-184.67 167,-179.33 172.33,-174 177.67,-174"/>
<text text-anchor="start" x="174.5" y="-186.3" font-family="Helvetica,sans-Serif" font-size="14.00">Jal</text>
<path fill="none" stroke="black" d="M177.67,-174C177.67,-174 188.33,-174 188.33,-174 193.67,-174 199,-179.33 199,-184.67 199,-184.67 199,-195.33 199,-195.33 199,-200.67 193.67,-206 188.33,-206 188.33,-206 177.67,-206 177.67,-206 172.33,-206 167,-200.67 167,-195.33 167,-195.33 167,-184.67 167,-184.67 167,-179.33 172.33,-174 177.67,-174"/>
</a>
</g>
</g>
<!-- function&#45;0&#45;RegVal -->
<g id="node16" class="node">
<title>function&#45;0&#45;RegVal</title>
<g id="a_node16"><a xlink:title="Inst&#45;0: function&#45;0&#45;RegVal">
<path fill="white" stroke="transparent" d="M243.17,-95C243.17,-95 278.83,-95 278.83,-95 284.17,-95 289.5,-100.33 289.5,-105.67 289.5,-105.67 289.5,-116.33 289.5,-116.33 289.5,-121.67 284.17,-127 278.83,-127 278.83,-127 243.17,-127 243.17,-127 237.83,-127 232.5,-121.67 232.5,-116.33 232.5,-116.33 232.5,-105.67 232.5,-105.67 232.5,-100.33 237.83,-95 243.17,-95"/>
<text text-anchor="start" x="238" y="-107.3" font-family="Helvetica,sans-Serif" font-size="14.00">RegVal</text>
<path fill="none" stroke="black" d="M243.17,-95C243.17,-95 278.83,-95 278.83,-95 284.17,-95 289.5,-100.33 289.5,-105.67 289.5,-105.67 289.5,-116.33 289.5,-116.33 289.5,-121.67 284.17,-127 278.83,-127 278.83,-127 243.17,-127 243.17,-127 237.83,-127 232.5,-121.67 232.5,-116.33 232.5,-116.33 232.5,-105.67 232.5,-105.67 232.5,-100.33 237.83,-95 243.17,-95"/>
</a>
</g>
</g>
<!-- primitive&#45;String&#45;0 -->
<g id="node17" class="node">
<title>primitive&#45;String&#45;0</title>
<g id="a_node17"><a xlink:title="String&#45;0: primitive&#45;String&#45;0">
<path fill="white" stroke="transparent" d="M244.17,-16C244.17,-16 279.83,-16 279.83,-16 285.17,-16 290.5,-21.33 290.5,-26.67 290.5,-26.67 290.5,-37.33 290.5,-37.33 290.5,-42.67 285.17,-48 279.83,-48 279.83,-48 244.17,-48 244.17,-48 238.83,-48 233.5,-42.67 233.5,-37.33 233.5,-37.33 233.5,-26.67 233.5,-26.67 233.5,-21.33 238.83,-16 244.17,-16"/>
<text text-anchor="start" x="239" y="-28.3" font-family="Helvetica,sans-Serif" font-size="14.00">&quot;a0_0&quot;</text>
<path fill="none" stroke="black" d="M244.17,-16C244.17,-16 279.83,-16 279.83,-16 285.17,-16 290.5,-21.33 290.5,-26.67 290.5,-26.67 290.5,-37.33 290.5,-37.33 290.5,-42.67 285.17,-48 279.83,-48 279.83,-48 244.17,-48 244.17,-48 238.83,-48 233.5,-42.67 233.5,-37.33 233.5,-37.33 233.5,-26.67 233.5,-26.67 233.5,-21.33 238.83,-16 244.17,-16"/>
</a>
</g>
</g>
<!-- function&#45;1&#45;RegVal -->
<g id="node18" class="node">
<title>function&#45;1&#45;RegVal</title>
<g id="a_node18"><a xlink:title="Inst&#45;1: function&#45;1&#45;RegVal">
<path fill="white" stroke="transparent" d="M99.17,-95C99.17,-95 134.83,-95 134.83,-95 140.17,-95 145.5,-100.33 145.5,-105.67 145.5,-105.67 145.5,-116.33 145.5,-116.33 145.5,-121.67 140.17,-127 134.83,-127 134.83,-127 99.17,-127 99.17,-127 93.83,-127 88.5,-121.67 88.5,-116.33 88.5,-116.33 88.5,-105.67 88.5,-105.67 88.5,-100.33 93.83,-95 99.17,-95"/>
<text text-anchor="start" x="94" y="-107.3" font-family="Helvetica,sans-Serif" font-size="14.00">RegVal</text>
<path fill="none" stroke="black" d="M99.17,-95C99.17,-95 134.83,-95 134.83,-95 140.17,-95 145.5,-100.33 145.5,-105.67 145.5,-105.67 145.5,-116.33 145.5,-116.33 145.5,-121.67 140.17,-127 134.83,-127 134.83,-127 99.17,-127 99.17,-127 93.83,-127 88.5,-121.67 88.5,-116.33 88.5,-116.33 88.5,-105.67 88.5,-105.67 88.5,-100.33 93.83,-95 99.17,-95"/>
</a>
</g>
</g>
<!-- primitive&#45;String&#45;1 -->
<g id="node19" class="node">
<title>primitive&#45;String&#45;1</title>
<g id="a_node19"><a xlink:title="String&#45;1: primitive&#45;String&#45;1">
<path fill="white" stroke="transparent" d="M100.17,-16C100.17,-16 135.83,-16 135.83,-16 141.17,-16 146.5,-21.33 146.5,-26.67 146.5,-26.67 146.5,-37.33 146.5,-37.33 146.5,-42.67 141.17,-48 135.83,-48 135.83,-48 100.17,-48 100.17,-48 94.83,-48 89.5,-42.67 89.5,-37.33 89.5,-37.33 89.5,-26.67 89.5,-26.67 89.5,-21.33 94.83,-16 100.17,-16"/>
<text text-anchor="start" x="95" y="-28.3" font-family="Helvetica,sans-Serif" font-size="14.00">&quot;a2_0&quot;</text>
<path fill="none" stroke="black" d="M100.17,-16C100.17,-16 135.83,-16 135.83,-16 141.17,-16 146.5,-21.33 146.5,-26.67 146.5,-26.67 146.5,-37.33 146.5,-37.33 146.5,-42.67 141.17,-48 135.83,-48 135.83,-48 100.17,-48 100.17,-48 94.83,-48 89.5,-42.67 89.5,-37.33 89.5,-37.33 89.5,-26.67 89.5,-26.67 89.5,-21.33 94.83,-16 100.17,-16"/>
</a>
</g>
</g>
<!-- function&#45;1&#45;Addi -->
<g id="node20" class="node">
<title>function&#45;1&#45;Addi</title>
<g id="a_node20"><a xlink:title="Inst&#45;7: function&#45;1&#45;Addi">
<path fill="white" stroke="transparent" d="M261.17,-174C261.17,-174 280.83,-174 280.83,-174 286.17,-174 291.5,-179.33 291.5,-184.67 291.5,-184.67 291.5,-195.33 291.5,-195.33 291.5,-200.67 286.17,-206 280.83,-206 280.83,-206 261.17,-206 261.17,-206 255.83,-206 250.5,-200.67 250.5,-195.33 250.5,-195.33 250.5,-184.67 250.5,-184.67 250.5,-179.33 255.83,-174 261.17,-174"/>
<text text-anchor="start" x="256" y="-186.3" font-family="Helvetica,sans-Serif" font-size="14.00">Addi</text>
<path fill="none" stroke="black" d="M261.17,-174C261.17,-174 280.83,-174 280.83,-174 286.17,-174 291.5,-179.33 291.5,-184.67 291.5,-184.67 291.5,-195.33 291.5,-195.33 291.5,-200.67 286.17,-206 280.83,-206 280.83,-206 261.17,-206 261.17,-206 255.83,-206 250.5,-200.67 250.5,-195.33 250.5,-195.33 250.5,-184.67 250.5,-184.67 250.5,-179.33 255.83,-174 261.17,-174"/>
</a>
</g>
</g>
<!-- function&#45;0&#45;Jal -->
<g id="node21" class="node">
<title>function&#45;0&#45;Jal</title>
<g id="a_node21"><a xlink:title="Inst&#45;13: function&#45;0&#45;Jal">
<path fill="white" stroke="transparent" d="M433.67,-253C433.67,-253 444.33,-253 444.33,-253 449.67,-253 455,-258.33 455,-263.67 455,-263.67 455,-274.33 455,-274.33 455,-279.67 449.67,-285 444.33,-285 444.33,-285 433.67,-285 433.67,-285 428.33,-285 423,-279.67 423,-274.33 423,-274.33 423,-263.67 423,-263.67 423,-258.33 428.33,-253 433.67,-253"/>
<text text-anchor="start" x="430.5" y="-265.3" font-family="Helvetica,sans-Serif" font-size="14.00">Jal</text>
<path fill="none" stroke="black" d="M433.67,-253C433.67,-253 444.33,-253 444.33,-253 449.67,-253 455,-258.33 455,-263.67 455,-263.67 455,-274.33 455,-274.33 455,-279.67 449.67,-285 444.33,-285 444.33,-285 433.67,-285 433.67,-285 428.33,-285 423,-279.67 423,-274.33 423,-274.33 423,-263.67 423,-263.67 423,-258.33 428.33,-253 433.67,-253"/>
</a>
</g>
</g>
<!-- function&#45;2&#45;RegVal -->
<g id="node22" class="node">
<title>function&#45;2&#45;RegVal</title>
<g id="a_node22"><a xlink:title="Inst&#45;2: function&#45;2&#45;RegVal">
<path fill="white" stroke="transparent" d="M610.17,-253C610.17,-253 645.83,-253 645.83,-253 651.17,-253 656.5,-258.33 656.5,-263.67 656.5,-263.67 656.5,-274.33 656.5,-274.33 656.5,-279.67 651.17,-285 645.83,-285 645.83,-285 610.17,-285 610.17,-285 604.83,-285 599.5,-279.67 599.5,-274.33 599.5,-274.33 599.5,-263.67 599.5,-263.67 599.5,-258.33 604.83,-253 610.17,-253"/>
<text text-anchor="start" x="605" y="-265.3" font-family="Helvetica,sans-Serif" font-size="14.00">RegVal</text>
<path fill="none" stroke="black" d="M610.17,-253C610.17,-253 645.83,-253 645.83,-253 651.17,-253 656.5,-258.33 656.5,-263.67 656.5,-263.67 656.5,-274.33 656.5,-274.33 656.5,-279.67 651.17,-285 645.83,-285 645.83,-285 610.17,-285 610.17,-285 604.83,-285 599.5,-279.67 599.5,-274.33 599.5,-274.33 599.5,-263.67 599.5,-263.67 599.5,-258.33 604.83,-253 610.17,-253"/>
</a>
</g>
</g>
<!-- primitive&#45;String&#45;2 -->
<g id="node23" class="node">
<title>primitive&#45;String&#45;2</title>
<g id="a_node23"><a xlink:title="String&#45;2: primitive&#45;String&#45;2">
<path fill="white" stroke="transparent" d="M611.17,-174C611.17,-174 646.83,-174 646.83,-174 652.17,-174 657.5,-179.33 657.5,-184.67 657.5,-184.67 657.5,-195.33 657.5,-195.33 657.5,-200.67 652.17,-206 646.83,-206 646.83,-206 611.17,-206 611.17,-206 605.83,-206 600.5,-200.67 600.5,-195.33 600.5,-195.33 600.5,-184.67 600.5,-184.67 600.5,-179.33 605.83,-174 611.17,-174"/>
<text text-anchor="start" x="606" y="-186.3" font-family="Helvetica,sans-Serif" font-size="14.00">&quot;a3_0&quot;</text>
<path fill="none" stroke="black" d="M611.17,-174C611.17,-174 646.83,-174 646.83,-174 652.17,-174 657.5,-179.33 657.5,-184.67 657.5,-184.67 657.5,-195.33 657.5,-195.33 657.5,-200.67 652.17,-206 646.83,-206 646.83,-206 611.17,-206 611.17,-206 605.83,-206 600.5,-200.67 600.5,-195.33 600.5,-195.33 600.5,-184.67 600.5,-184.67 600.5,-179.33 605.83,-174 611.17,-174"/>
</a>
</g>
</g>
<!-- function&#45;2&#45;Addi -->
<g id="node24" class="node">
<title>function&#45;2&#45;Addi</title>
<g id="a_node24"><a xlink:title="Inst&#45;9: function&#45;2&#45;Addi">
<path fill="white" stroke="transparent" d="M578.17,-332C578.17,-332 597.83,-332 597.83,-332 603.17,-332 608.5,-337.33 608.5,-342.67 608.5,-342.67 608.5,-353.33 608.5,-353.33 608.5,-358.67 603.17,-364 597.83,-364 597.83,-364 578.17,-364 578.17,-364 572.83,-364 567.5,-358.67 567.5,-353.33 567.5,-353.33 567.5,-342.67 567.5,-342.67 567.5,-337.33 572.83,-332 578.17,-332"/>
<text text-anchor="start" x="573" y="-344.3" font-family="Helvetica,sans-Serif" font-size="14.00">Addi</text>
<path fill="none" stroke="black" d="M578.17,-332C578.17,-332 597.83,-332 597.83,-332 603.17,-332 608.5,-337.33 608.5,-342.67 608.5,-342.67 608.5,-353.33 608.5,-353.33 608.5,-358.67 603.17,-364 597.83,-364 597.83,-364 578.17,-364 578.17,-364 572.83,-364 567.5,-358.67 567.5,-353.33 567.5,-353.33 567.5,-342.67 567.5,-342.67 567.5,-337.33 572.83,-332 578.17,-332"/>
</a>
</g>
</g>
<!-- primitive&#45;String&#45;3 -->
<g id="node25" class="node">
<title>primitive&#45;String&#45;3</title>
<g id="a_node25"><a xlink:title="String&#45;3: primitive&#45;String&#45;3">
<path fill="white" stroke="transparent" d="M325.67,-95C325.67,-95 360.33,-95 360.33,-95 365.67,-95 371,-100.33 371,-105.67 371,-105.67 371,-116.33 371,-116.33 371,-121.67 365.67,-127 360.33,-127 360.33,-127 325.67,-127 325.67,-127 320.33,-127 315,-121.67 315,-116.33 315,-116.33 315,-105.67 315,-105.67 315,-100.33 320.33,-95 325.67,-95"/>
<text text-anchor="start" x="320" y="-107.3" font-family="Helvetica,sans-Serif" font-size="14.00">&quot;s0_0&quot;</text>
<path fill="none" stroke="black" d="M325.67,-95C325.67,-95 360.33,-95 360.33,-95 365.67,-95 371,-100.33 371,-105.67 371,-105.67 371,-116.33 371,-116.33 371,-121.67 365.67,-127 360.33,-127 360.33,-127 325.67,-127 325.67,-127 320.33,-127 315,-121.67 315,-116.33 315,-116.33 315,-105.67 315,-105.67 315,-100.33 320.33,-95 325.67,-95"/>
</a>
</g>
</g>
<!-- function&#45;0&#45;Bne -->
<g id="node26" class="node">
<title>function&#45;0&#45;Bne</title>
<g id="a_node26"><a xlink:title="Inst&#45;11: function&#45;0&#45;Bne">
<path fill="white" stroke="transparent" d="M322.67,-332C322.67,-332 339.33,-332 339.33,-332 344.67,-332 350,-337.33 350,-342.67 350,-342.67 350,-353.33 350,-353.33 350,-358.67 344.67,-364 339.33,-364 339.33,-364 322.67,-364 322.67,-364 317.33,-364 312,-358.67 312,-353.33 312,-353.33 312,-342.67 312,-342.67 312,-337.33 317.33,-332 322.67,-332"/>
<text text-anchor="start" x="317" y="-344.3" font-family="Helvetica,sans-Serif" font-size="14.00">Bne</text>
<path fill="none" stroke="black" d="M322.67,-332C322.67,-332 339.33,-332 339.33,-332 344.67,-332 350,-337.33 350,-342.67 350,-342.67 350,-353.33 350,-353.33 350,-358.67 344.67,-364 339.33,-364 339.33,-364 322.67,-364 322.67,-364 317.33,-364 312,-358.67 312,-353.33 312,-353.33 312,-342.67 312,-342.67 312,-337.33 317.33,-332 322.67,-332"/>
</a>
</g>
</g>
<!-- function&#45;1&#45;Bne -->
<g id="node27" class="node">
<title>function&#45;1&#45;Bne</title>
<g id="a_node27"><a xlink:title="Inst&#45;11: function&#45;1&#45;Bne">
<path fill="white" stroke="transparent" d="M380.67,-332C380.67,-332 397.33,-332 397.33,-332 402.67,-332 408,-337.33 408,-342.67 408,-342.67 408,-353.33 408,-353.33 408,-358.67 402.67,-364 397.33,-364 397.33,-364 380.67,-364 380.67,-364 375.33,-364 370,-358.67 370,-353.33 370,-353.33 370,-342.67 370,-342.67 370,-337.33 375.33,-332 380.67,-332"/>
<text text-anchor="start" x="375" y="-344.3" font-family="Helvetica,sans-Serif" font-size="14.00">Bne</text>
<path fill="none" stroke="black" d="M380.67,-332C380.67,-332 397.33,-332 397.33,-332 402.67,-332 408,-337.33 408,-342.67 408,-342.67 408,-353.33 408,-353.33 408,-358.67 402.67,-364 397.33,-364 397.33,-364 380.67,-364 380.67,-364 375.33,-364 370,-358.67 370,-353.33 370,-353.33 370,-342.67 370,-342.67 370,-337.33 375.33,-332 380.67,-332"/>
</a>
</g>
</g>
<!-- function&#45;0&#45;Seq2 -->
<g id="node28" class="node">
<title>function&#45;0&#45;Seq2</title>
<g id="a_node28"><a xlink:title="Inst&#45;11: function&#45;0&#45;Seq2">
<path fill="white" stroke="transparent" d="M434.67,-332C434.67,-332 459.33,-332 459.33,-332 464.67,-332 470,-337.33 470,-342.67 470,-342.67 470,-353.33 470,-353.33 470,-358.67 464.67,-364 459.33,-364 459.33,-364 434.67,-364 434.67,-364 429.33,-364 424,-358.67 424,-353.33 424,-353.33 424,-342.67 424,-342.67 424,-337.33 429.33,-332 434.67,-332"/>
<text text-anchor="start" x="429" y="-344.3" font-family="Helvetica,sans-Serif" font-size="14.00">Seq2</text>
<path fill="none" stroke="black" d="M434.67,-332C434.67,-332 459.33,-332 459.33,-332 464.67,-332 470,-337.33 470,-342.67 470,-342.67 470,-353.33 470,-353.33 470,-358.67 464.67,-364 459.33,-364 459.33,-364 434.67,-364 434.67,-364 429.33,-364 424,-358.67 424,-353.33 424,-353.33 424,-342.67 424,-342.67 424,-337.33 429.33,-332 434.67,-332"/>
</a>
</g>
</g>
<!-- function&#45;3&#45;Bne -->
<g id="node29" class="node">
<title>function&#45;3&#45;Bne</title>
<g id="a_node29"><a xlink:title="Inst&#45;14: function&#45;3&#45;Bne">
<path fill="white" stroke="transparent" d="M342.67,-253C342.67,-253 359.33,-253 359.33,-253 364.67,-253 370,-258.33 370,-263.67 370,-263.67 370,-274.33 370,-274.33 370,-279.67 364.67,-285 359.33,-285 359.33,-285 342.67,-285 342.67,-285 337.33,-285 332,-279.67 332,-274.33 332,-274.33 332,-263.67 332,-263.67 332,-258.33 337.33,-253 342.67,-253"/>
<text text-anchor="start" x="337" y="-265.3" font-family="Helvetica,sans-Serif" font-size="14.00">Bne</text>
<path fill="none" stroke="black" d="M342.67,-253C342.67,-253 359.33,-253 359.33,-253 364.67,-253 370,-258.33 370,-263.67 370,-263.67 370,-274.33 370,-274.33 370,-279.67 364.67,-285 359.33,-285 359.33,-285 342.67,-285 342.67,-285 337.33,-285 332,-279.67 332,-274.33 332,-274.33 332,-263.67 332,-263.67 332,-258.33 337.33,-253 342.67,-253"/>
</a>
</g>
</g>
<!-- function&#45;2&#45;Seq2 -->
<g id="node30" class="node">
<title>function&#45;2&#45;Seq2</title>
<g id="a_node30"><a xlink:title="Inst&#45;14: function&#45;2&#45;Seq2">
<path fill="white" stroke="transparent" d="M222.67,-253C222.67,-253 247.33,-253 247.33,-253 252.67,-253 258,-258.33 258,-263.67 258,-263.67 258,-274.33 258,-274.33 258,-279.67 252.67,-285 247.33,-285 247.33,-285 222.67,-285 222.67,-285 217.33,-285 212,-279.67 212,-274.33 212,-274.33 212,-263.67 212,-263.67 212,-258.33 217.33,-253 222.67,-253"/>
<text text-anchor="start" x="217" y="-265.3" font-family="Helvetica,sans-Serif" font-size="14.00">Seq2</text>
<path fill="none" stroke="black" d="M222.67,-253C222.67,-253 247.33,-253 247.33,-253 252.67,-253 258,-258.33 258,-263.67 258,-263.67 258,-274.33 258,-274.33 258,-279.67 252.67,-285 247.33,-285 247.33,-285 222.67,-285 222.67,-285 217.33,-285 212,-279.67 212,-274.33 212,-274.33 212,-263.67 212,-263.67 212,-258.33 217.33,-253 222.67,-253"/>
</a>
</g>
</g>
</g>
</svg>
