<?xml version="1.0" encoding="UTF-8" standalone="no"?>
<!DOCTYPE svg PUBLIC "-//W3C//DTD SVG 1.1//EN"
 "http://www.w3.org/Graphics/SVG/1.1/DTD/svg11.dtd">
<!-- Generated by graphviz version 2.43.0 (0)
 -->
<!-- Title: %3 Pages: 1 -->
<svg width="519pt" height="388pt"
 viewBox="0.00 0.00 519.29 388.00" xmlns="http://www.w3.org/2000/svg" xmlns:xlink="http://www.w3.org/1999/xlink">
<g id="graph0" class="graph" transform="scale(1 1) rotate(0) translate(4 384)">
<title>%3</title>
<polygon fill="white" stroke="#000000" points="-4,4 -4,-384 515.29,-384 515.29,4 -4,4"/>
<g id="clust1" class="cluster">
<title>outer_cluster_Imm&#45;2</title>
</g>
<g id="clust2" class="cluster">
<title>cluster_Imm&#45;2</title>
<path fill="#ffffb3" stroke="black" stroke-dasharray="5,2" d="M63,-169C63,-169 123,-169 123,-169 129,-169 135,-175 135,-181 135,-181 135,-199 135,-199 135,-205 129,-211 123,-211 123,-211 63,-211 63,-211 57,-211 51,-205 51,-199 51,-199 51,-181 51,-181 51,-175 57,-169 63,-169"/>
</g>
<g id="clust4" class="cluster">
<title>outer_cluster_Imm&#45;4</title>
</g>
<g id="clust5" class="cluster">
<title>cluster_Imm&#45;4</title>
<path fill="#ffffb3" stroke="black" stroke-dasharray="5,2" d="M269,-90C269,-90 313,-90 313,-90 319,-90 325,-96 325,-102 325,-102 325,-120 325,-120 325,-126 319,-132 313,-132 313,-132 269,-132 269,-132 263,-132 257,-126 257,-120 257,-120 257,-102 257,-102 257,-96 263,-90 269,-90"/>
</g>
<g id="clust7" class="cluster">
<title>outer_cluster_Inst&#45;6</title>
</g>
<g id="clust8" class="cluster">
<title>cluster_Inst&#45;6</title>
<path fill="#bebada" stroke="black" stroke-dasharray="5,2" d="M35,-248C35,-248 71,-248 71,-248 77,-248 83,-254 83,-260 83,-260 83,-278 83,-278 83,-284 77,-290 71,-290 71,-290 35,-290 35,-290 29,-290 23,-284 23,-278 23,-278 23,-260 23,-260 23,-254 29,-248 35,-248"/>
</g>
<g id="clust10" class="cluster">
<title>outer_cluster_Inst&#45;1</title>
</g>
<g id="clust11" class="cluster">
<title>cluster_Inst&#45;1</title>
<path fill="#bebada" stroke="black" stroke-dasharray="5,2" d="M159,-169C159,-169 199,-169 199,-169 205,-169 211,-175 211,-181 211,-181 211,-199 211,-199 211,-205 205,-211 199,-211 199,-211 159,-211 159,-211 153,-211 147,-205 147,-199 147,-199 147,-181 147,-181 147,-175 153,-169 159,-169"/>
</g>
<g id="clust13" class="cluster">
<title>outer_cluster_Inst&#45;8</title>
</g>
<g id="clust14" class="cluster">
<title>cluster_Inst&#45;8</title>
<path fill="#bebada" stroke="black" stroke-dasharray="5,2" d="M273,-169C273,-169 309,-169 309,-169 315,-169 321,-175 321,-181 321,-181 321,-199 321,-199 321,-205 315,-211 309,-211 309,-211 273,-211 273,-211 267,-211 261,-205 261,-199 261,-199 261,-181 261,-181 261,-175 267,-169 273,-169"/>
</g>
<g id="clust16" class="cluster">
<title>outer_cluster_Inst&#45;3</title>
</g>
<g id="clust17" class="cluster">
<title>cluster_Inst&#45;3</title>
<path fill="#bebada" stroke="black" stroke-dasharray="5,2" d="M23,-327C23,-327 175,-327 175,-327 181,-327 187,-333 187,-339 187,-339 187,-357 187,-357 187,-363 181,-369 175,-369 175,-369 23,-369 23,-369 17,-369 11,-363 11,-357 11,-357 11,-339 11,-339 11,-333 17,-327 23,-327"/>
</g>
<g id="clust19" class="cluster">
<title>outer_cluster_Inst&#45;7</title>
</g>
<g id="clust20" class="cluster">
<title>cluster_Inst&#45;7</title>
<path fill="#bebada" stroke="black" stroke-dasharray="5,2" d="M326,-248C326,-248 478,-248 478,-248 484,-248 490,-254 490,-260 490,-260 490,-278 490,-278 490,-284 484,-290 478,-290 478,-290 326,-290 326,-290 320,-290 314,-284 314,-278 314,-278 314,-260 314,-260 314,-254 320,-248 326,-248"/>
</g>
<g id="clust22" class="cluster">
<title>outer_cluster_Inst&#45;5</title>
</g>
<g id="clust23" class="cluster">
<title>cluster_Inst&#45;5</title>
<path fill="#bebada" stroke="black" stroke-dasharray="5,2" d="M144,-248C144,-248 296,-248 296,-248 302,-248 308,-254 308,-260 308,-260 308,-278 308,-278 308,-284 302,-290 296,-290 296,-290 144,-290 144,-290 138,-290 132,-284 132,-278 132,-278 132,-260 132,-260 132,-254 138,-248 144,-248"/>
</g>
<g id="clust25" class="cluster">
<title>outer_cluster_Inst&#45;0</title>
</g>
<g id="clust26" class="cluster">
<title>cluster_Inst&#45;0</title>
<path fill="#bebada" stroke="black" stroke-dasharray="5,2" d="M405,-169C405,-169 445,-169 445,-169 451,-169 457,-175 457,-181 457,-181 457,-199 457,-199 457,-205 451,-211 445,-211 445,-211 405,-211 405,-211 399,-211 393,-205 393,-199 393,-199 393,-181 393,-181 393,-175 399,-169 405,-169"/>
</g>
<g id="clust28" class="cluster">
<title>outer_cluster_String&#45;3</title>
</g>
<g id="clust29" class="cluster">
<title>cluster_String&#45;3</title>
<path fill="#fb8072" stroke="black" stroke-dasharray="5,2" d="M76,-90C76,-90 112,-90 112,-90 118,-90 124,-96 124,-102 124,-102 124,-120 124,-120 124,-126 118,-132 112,-132 112,-132 76,-132 76,-132 70,-132 64,-126 64,-120 64,-120 64,-102 64,-102 64,-96 70,-90 76,-90"/>
</g>
<g id="clust31" class="cluster">
<title>outer_cluster_String&#45;1</title>
</g>
<g id="clust32" class="cluster">
<title>cluster_String&#45;1</title>
<path fill="#fb8072" stroke="black" stroke-dasharray="5,2" d="M408,-90C408,-90 444,-90 444,-90 450,-90 456,-96 456,-102 456,-102 456,-120 456,-120 456,-126 450,-132 444,-132 444,-132 408,-132 408,-132 402,-132 396,-126 396,-120 396,-120 396,-102 396,-102 396,-96 402,-90 408,-90"/>
</g>
<g id="clust34" class="cluster">
<title>outer_cluster_String&#45;2</title>
</g>
<g id="clust35" class="cluster">
<title>cluster_String&#45;2</title>
<path fill="#fb8072" stroke="black" stroke-dasharray="5,2" d="M154,-90C154,-90 206,-90 206,-90 212,-90 218,-96 218,-102 218,-102 218,-120 218,-120 218,-126 212,-132 206,-132 206,-132 154,-132 154,-132 148,-132 142,-126 142,-120 142,-120 142,-102 142,-102 142,-96 148,-90 154,-90"/>
</g>
<g id="clust37" class="cluster">
<title>outer_cluster_i64&#45;4</title>
</g>
<g id="clust38" class="cluster">
<title>cluster_i64&#45;4</title>
<path fill="#80b1d3" stroke="black" stroke-dasharray="5,2" d="M273,-11C273,-11 309,-11 309,-11 315,-11 321,-17 321,-23 321,-23 321,-41 321,-41 321,-47 315,-53 309,-53 309,-53 273,-53 273,-53 267,-53 261,-47 261,-41 261,-41 261,-23 261,-23 261,-17 267,-11 273,-11"/>
</g>
<!-- function&#45;0&#45;ImmLabel&#45;&gt;primitive&#45;String&#45;3 -->
<g id="edge1" class="edge">
<title>function&#45;0&#45;ImmLabel:s&#45;&gt;primitive&#45;String&#45;3</title>
<path fill="none" stroke="black" d="M94,-174C94,-160.84 94,-146.11 94,-134.3"/>
<polygon fill="black" stroke="black" points="95.75,-137 94,-132 92.25,-137 95.75,-137"/>
</g>
<!-- function&#45;0&#45;ImmVal&#45;&gt;primitive&#45;i64&#45;4 -->
<g id="edge2" class="edge">
<title>function&#45;0&#45;ImmVal:s&#45;&gt;primitive&#45;i64&#45;4</title>
<path fill="none" stroke="black" d="M291,-95C291,-81.84 291,-67.11 291,-55.3"/>
<polygon fill="black" stroke="black" points="292.75,-58 291,-53 289.25,-58 292.75,-58"/>
</g>
<!-- function&#45;0&#45;Jal&#45;&gt;function&#45;0&#45;ImmLabel -->
<g id="edge3" class="edge">
<title>function&#45;0&#45;Jal:s&#45;&gt;function&#45;0&#45;ImmLabel</title>
<path fill="none" stroke="black" d="M53,-253C53,-237.71 61.69,-223.2 70.97,-212.07"/>
<polygon fill="black" stroke="black" points="69.45,-215.4 72.41,-211 67.35,-212.6 69.45,-215.4"/>
</g>
<!-- function&#45;1&#45;RegVal&#45;&gt;primitive&#45;String&#45;2 -->
<g id="edge4" class="edge">
<title>function&#45;1&#45;RegVal:s&#45;&gt;primitive&#45;String&#45;2</title>
<path fill="none" stroke="black" d="M180,-174C180,-160.84 180,-146.11 180,-134.3"/>
<polygon fill="black" stroke="black" points="181.75,-137 180,-132 178.25,-137 181.75,-137"/>
</g>
<!-- function&#45;1&#45;Jal&#45;&gt;function&#45;0&#45;ImmVal -->
<g id="edge5" class="edge">
<title>function&#45;1&#45;Jal:s&#45;&gt;function&#45;0&#45;ImmVal</title>
<path fill="none" stroke="black" d="M291,-174C291,-160.84 291,-146.11 291,-134.3"/>
<polygon fill="black" stroke="black" points="292.75,-137 291,-132 289.25,-137 292.75,-137"/>
</g>
<!-- function&#45;0&#45;Bne&#45;&gt;function&#45;0&#45;ImmLabel -->
<g id="edge8" class="edge">
<title>function&#45;0&#45;Bne:s&#45;&gt;function&#45;0&#45;ImmLabel</title>
<path fill="none" stroke="black" d="M113,-332C113,-313.73 103.54,-310.92 100,-293 94.64,-265.87 93.21,-233.98 92.91,-213.18"/>
<polygon fill="black" stroke="black" points="94.73,-215.96 92.86,-211 91.23,-216.04 94.73,-215.96"/>
</g>
<!-- function&#45;0&#45;Bne&#45;&gt;function&#45;1&#45;RegVal -->
<g id="edge7" class="edge">
<title>function&#45;0&#45;Bne:s&#45;&gt;function&#45;1&#45;RegVal</title>
<path fill="none" stroke="black" d="M104,-332C104,-292.22 105.54,-279.69 125,-245 132.04,-232.44 142.83,-220.82 152.91,-211.6"/>
<polygon fill="black" stroke="black" points="150.56,-215.13 153.88,-211 148.71,-212.16 150.56,-215.13"/>
</g>
<!-- function&#45;0&#45;Bne&#45;&gt;function&#45;0&#45;RegVal -->
<g id="edge6" class="edge">
<title>function&#45;0&#45;Bne:s&#45;&gt;function&#45;0&#45;RegVal</title>
<path fill="none" stroke="black" d="M90,-332C90,-242.47 430.46,-358.96 491,-293 505.43,-277.28 500.14,-264.28 491,-245 483.99,-230.22 470.74,-218.13 457.93,-209.17"/>
<polygon fill="black" stroke="black" points="461.79,-210.51 457,-208.26 459.34,-213.01 461.79,-210.51"/>
</g>
<!-- function&#45;0&#45;RegVal&#45;&gt;primitive&#45;String&#45;1 -->
<g id="edge30" class="edge">
<title>function&#45;0&#45;RegVal:s&#45;&gt;primitive&#45;String&#45;1</title>
<path fill="none" stroke="black" d="M426,-174C426,-160.84 426,-146.11 426,-134.3"/>
<polygon fill="black" stroke="black" points="427.75,-137 426,-132 424.25,-137 427.75,-137"/>
</g>
<!-- function&#45;1&#45;Bne&#45;&gt;function&#45;0&#45;ImmLabel -->
<g id="edge11" class="edge">
<title>function&#45;1&#45;Bne:s&#45;&gt;function&#45;0&#45;ImmLabel</title>
<path fill="none" stroke="black" d="M171,-332C171,-307.17 144.55,-313.8 131,-293 114.67,-267.93 104.01,-234.86 98.24,-213.27"/>
<polygon fill="black" stroke="black" points="100.94,-214.48 96.95,-211 97.9,-216.21 100.94,-214.48"/>
</g>
<!-- function&#45;1&#45;Bne&#45;&gt;function&#45;1&#45;RegVal -->
<g id="edge9" class="edge">
<title>function&#45;1&#45;Bne:s&#45;&gt;function&#45;1&#45;RegVal</title>
<path fill="none" stroke="black" d="M148,-332C148,-313.09 134.86,-311.51 131,-293 126.65,-272.12 123.42,-264.94 131,-245 135.76,-232.48 144.89,-221.02 153.93,-211.9"/>
<polygon fill="black" stroke="black" points="152.05,-214.76 155.78,-211 150.52,-211.61 152.05,-214.76"/>
</g>
<!-- function&#45;1&#45;Bne&#45;&gt;function&#45;0&#45;RegVal -->
<g id="edge10" class="edge">
<title>function&#45;1&#45;Bne:s&#45;&gt;function&#45;0&#45;RegVal</title>
<path fill="none" stroke="black" d="M162,-332C162,-255.95 451.38,-349.76 502,-293 516.2,-277.08 511.84,-263.93 502,-245 492.7,-227.12 474.48,-213.94 458.09,-205.07"/>
<polygon fill="black" stroke="black" points="461.47,-206.53 457,-203.68 458.72,-208.69 461.47,-206.53"/>
</g>
<!-- function&#45;0&#45;Seq2&#45;&gt;function&#45;0&#45;Jal -->
<g id="edge13" class="edge">
<title>function&#45;0&#45;Seq2:s&#45;&gt;function&#45;0&#45;Jal</title>
<path fill="none" stroke="black" d="M52,-332C52,-318.84 52.23,-304.1 52.47,-292.3"/>
<polygon fill="black" stroke="black" points="54.09,-295.08 52.58,-290 50.59,-294.91 54.09,-295.08"/>
</g>
<!-- function&#45;0&#45;Seq2&#45;&gt;function&#45;0&#45;Beq -->
<g id="edge12" class="edge">
<title>function&#45;0&#45;Seq2:s&#45;&gt;function&#45;0&#45;Beq</title>
<path fill="none" stroke="black" d="M30,-332C30,-310.01 90.77,-289.32 129.85,-278.29"/>
<polygon fill="black" stroke="black" points="128.8,-281.08 132,-276.86 126.86,-278.16 128.8,-281.08"/>
</g>
<!-- function&#45;0&#45;Beq&#45;&gt;function&#45;0&#45;ImmVal -->
<g id="edge24" class="edge">
<title>function&#45;0&#45;Beq:s&#45;&gt;function&#45;0&#45;ImmVal</title>
<path fill="none" stroke="black" d="M176,-253C176,-229.41 197.97,-232.97 212,-214 226.68,-194.14 225.2,-185.77 240,-166 248.73,-154.33 259.69,-142.45 269.21,-132.8"/>
<polygon fill="black" stroke="black" points="267.14,-135.71 270.92,-132 265.65,-132.55 267.14,-135.71"/>
</g>
<!-- function&#45;0&#45;Beq&#45;&gt;function&#45;1&#45;RegVal -->
<g id="edge23" class="edge">
<title>function&#45;0&#45;Beq:s&#45;&gt;function&#45;1&#45;RegVal</title>
<path fill="none" stroke="black" d="M167,-253C167,-239.69 169.7,-225.06 172.54,-213.36"/>
<polygon fill="black" stroke="black" points="172.95,-216.22 173.84,-211 169.89,-214.53 172.95,-216.22"/>
</g>
<!-- function&#45;0&#45;Beq&#45;&gt;function&#45;0&#45;RegVal -->
<g id="edge22" class="edge">
<title>function&#45;0&#45;Beq:s&#45;&gt;function&#45;0&#45;RegVal</title>
<path fill="none" stroke="black" d="M153,-253C153,-252.24 318.53,-214.94 391.33,-198.57"/>
<polygon fill="black" stroke="black" points="389.86,-201.69 393,-197.42 387.88,-198.8 389.86,-201.69"/>
</g>
<!-- function&#45;2&#45;Bne&#45;&gt;function&#45;0&#45;ImmVal -->
<g id="edge16" class="edge">
<title>function&#45;2&#45;Bne:s&#45;&gt;function&#45;0&#45;ImmVal</title>
<path fill="none" stroke="black" d="M416,-253C416,-228.49 393.58,-232.05 377,-214 352.18,-186.97 325.14,-154.33 308.13,-133.38"/>
<polygon fill="black" stroke="black" points="311.54,-134.5 306.87,-132 308.96,-136.87 311.54,-134.5"/>
</g>
<!-- function&#45;2&#45;Bne&#45;&gt;function&#45;1&#45;RegVal -->
<g id="edge15" class="edge">
<title>function&#45;2&#45;Bne:s&#45;&gt;function&#45;1&#45;RegVal</title>
<path fill="none" stroke="black" d="M407,-253C407,-185.41 325.18,-231.9 260,-214 244.42,-209.72 227.2,-204.85 212.66,-200.7"/>
<polygon fill="black" stroke="black" points="215.96,-201.17 211,-199.32 213.72,-203.86 215.96,-201.17"/>
</g>
<!-- function&#45;2&#45;Bne&#45;&gt;function&#45;0&#45;RegVal -->
<g id="edge14" class="edge">
<title>function&#45;2&#45;Bne:s&#45;&gt;function&#45;0&#45;RegVal</title>
<path fill="none" stroke="black" d="M393,-253C393,-238.46 400.04,-223.92 407.51,-212.58"/>
<polygon fill="black" stroke="black" points="406.67,-215.48 409.5,-211 404.5,-212.74 406.67,-215.48"/>
</g>
<!-- function&#45;3&#45;Bne&#45;&gt;function&#45;0&#45;ImmVal -->
<g id="edge19" class="edge">
<title>function&#45;3&#45;Bne:s&#45;&gt;function&#45;0&#45;ImmVal</title>
<path fill="none" stroke="black" d="M474,-253C474,-212.64 422.52,-240.41 392,-214 372.61,-197.22 377.43,-184.81 360,-166 348.48,-153.57 333.92,-141.73 321.15,-132.32"/>
<polygon fill="black" stroke="black" points="325.17,-131.56 319.89,-132 324.29,-134.95 325.17,-131.56"/>
</g>
<!-- function&#45;3&#45;Bne&#45;&gt;function&#45;1&#45;RegVal -->
<g id="edge17" class="edge">
<title>function&#45;3&#45;Bne:s&#45;&gt;function&#45;1&#45;RegVal</title>
<path fill="none" stroke="black" d="M451,-253C451,-242.6 439.04,-247.73 429,-245 355.3,-224.99 334.37,-231.34 260,-214 244.27,-210.33 227.02,-205.55 212.51,-201.29"/>
<polygon fill="black" stroke="black" points="215.84,-202.03 211,-199.87 213.44,-204.57 215.84,-202.03"/>
</g>
<!-- function&#45;3&#45;Bne&#45;&gt;function&#45;0&#45;RegVal -->
<g id="edge18" class="edge">
<title>function&#45;3&#45;Bne:s&#45;&gt;function&#45;0&#45;RegVal</title>
<path fill="none" stroke="black" d="M465,-253C465,-237.71 456.31,-223.2 447.03,-212.07"/>
<polygon fill="black" stroke="black" points="450.65,-212.6 445.59,-211 448.55,-215.4 450.65,-212.6"/>
</g>
<!-- function&#45;2&#45;Seq2&#45;&gt;function&#45;1&#45;Jal -->
<g id="edge21" class="edge">
<title>function&#45;2&#45;Seq2:s&#45;&gt;function&#45;1&#45;Jal</title>
<path fill="none" stroke="black" d="M355,-253C355,-233.06 338.78,-217.48 322.67,-206.93"/>
<polygon fill="black" stroke="black" points="325.65,-207.62 321,-205.09 323.06,-209.97 325.65,-207.62"/>
</g>
<!-- function&#45;2&#45;Seq2&#45;&gt;function&#45;1&#45;Seq2 -->
<g id="edge20" class="edge">
<title>function&#45;2&#45;Seq2:s&#45;&gt;function&#45;1&#45;Seq2</title>
<path fill="none" stroke="black" d="M333,-253C333,-241.59 321.78,-243.91 309.57,-249.8"/>
<polygon fill="black" stroke="black" points="310.71,-246.57 308,-251.12 312.96,-249.26 310.71,-246.57"/>
</g>
<!-- function&#45;1&#45;Seq2&#45;&gt;function&#45;1&#45;Jal -->
<g id="edge29" class="edge">
<title>function&#45;1&#45;Seq2:s&#45;&gt;function&#45;1&#45;Jal</title>
<path fill="none" stroke="black" d="M289,-253C289,-239.83 289.46,-225.1 289.93,-213.3"/>
<polygon fill="black" stroke="black" points="291.42,-216.14 290.15,-211 287.94,-215.81 291.42,-216.14"/>
</g>
<!-- function&#45;1&#45;Seq2&#45;&gt;function&#45;2&#45;Bne -->
<g id="edge28" class="edge">
<title>function&#45;1&#45;Seq2:s&#45;&gt;function&#45;2&#45;Bne</title>
<path fill="none" stroke="black" d="M267,-253C267,-205.81 326.96,-202.06 369,-223.5 378.53,-228.36 385.96,-237.41 391.33,-246.17"/>
<polygon fill="black" stroke="black" points="388.37,-245.62 393.1,-248 390.88,-243.19 388.37,-245.62"/>
</g>
<!-- function&#45;1&#45;Beq&#45;&gt;function&#45;0&#45;ImmVal -->
<g id="edge27" class="edge">
<title>function&#45;1&#45;Beq:s&#45;&gt;function&#45;0&#45;ImmVal</title>
<path fill="none" stroke="black" d="M234,-253C234,-208.07 259.18,-160.58 276.07,-133.78"/>
<polygon fill="black" stroke="black" points="275.53,-136.73 277.91,-132 273.1,-134.21 275.53,-136.73"/>
</g>
<!-- function&#45;1&#45;Beq&#45;&gt;function&#45;1&#45;RegVal -->
<g id="edge25" class="edge">
<title>function&#45;1&#45;Beq:s&#45;&gt;function&#45;1&#45;RegVal</title>
<path fill="none" stroke="black" d="M211,-253C211,-238.46 203.96,-223.92 196.49,-212.58"/>
<polygon fill="black" stroke="black" points="199.5,-212.74 194.5,-211 197.33,-215.48 199.5,-212.74"/>
</g>
<!-- function&#45;1&#45;Beq&#45;&gt;function&#45;0&#45;RegVal -->
<g id="edge26" class="edge">
<title>function&#45;1&#45;Beq:s&#45;&gt;function&#45;0&#45;RegVal</title>
<path fill="none" stroke="black" d="M225,-253C225,-235.8 334.34,-210.14 391.33,-197.93"/>
<polygon fill="black" stroke="black" points="389.73,-201.03 393,-196.86 387.85,-198.09 389.73,-201.03"/>
</g>
<!-- function&#45;0&#45;ImmLabel -->
<g id="node1" class="node">
<title>function&#45;0&#45;ImmLabel</title>
<g id="a_node1"><a xlink:title="Imm&#45;2: function&#45;0&#45;ImmLabel">
<path fill="white" stroke="transparent" d="M64.17,-174C64.17,-174 121.83,-174 121.83,-174 127.17,-174 132.5,-179.33 132.5,-184.67 132.5,-184.67 132.5,-195.33 132.5,-195.33 132.5,-200.67 127.17,-206 121.83,-206 121.83,-206 64.17,-206 64.17,-206 58.83,-206 53.5,-200.67 53.5,-195.33 53.5,-195.33 53.5,-184.67 53.5,-184.67 53.5,-179.33 58.83,-174 64.17,-174"/>
<text text-anchor="start" x="59" y="-186.3" font-family="Helvetica,sans-Serif" font-size="14.00">ImmLabel</text>
<path fill="none" stroke="black" d="M64.17,-174C64.17,-174 121.83,-174 121.83,-174 127.17,-174 132.5,-179.33 132.5,-184.67 132.5,-184.67 132.5,-195.33 132.5,-195.33 132.5,-200.67 127.17,-206 121.83,-206 121.83,-206 64.17,-206 64.17,-206 58.83,-206 53.5,-200.67 53.5,-195.33 53.5,-195.33 53.5,-184.67 53.5,-184.67 53.5,-179.33 58.83,-174 64.17,-174"/>
</a>
</g>
</g>
<!-- primitive&#45;String&#45;3 -->
<g id="node2" class="node">
<title>primitive&#45;String&#45;3</title>
<g id="a_node2"><a xlink:title="String&#45;3: primitive&#45;String&#45;3">
<path fill="white" stroke="transparent" d="M77.67,-95C77.67,-95 110.33,-95 110.33,-95 115.67,-95 121,-100.33 121,-105.67 121,-105.67 121,-116.33 121,-116.33 121,-121.67 115.67,-127 110.33,-127 110.33,-127 77.67,-127 77.67,-127 72.33,-127 67,-121.67 67,-116.33 67,-116.33 67,-105.67 67,-105.67 67,-100.33 72.33,-95 77.67,-95"/>
<text text-anchor="start" x="72" y="-107.3" font-family="Helvetica,sans-Serif" font-size="14.00">&quot;.L28&quot;</text>
<path fill="none" stroke="black" d="M77.67,-95C77.67,-95 110.33,-95 110.33,-95 115.67,-95 121,-100.33 121,-105.67 121,-105.67 121,-116.33 121,-116.33 121,-121.67 115.67,-127 110.33,-127 110.33,-127 77.67,-127 77.67,-127 72.33,-127 67,-121.67 67,-116.33 67,-116.33 67,-105.67 67,-105.67 67,-100.33 72.33,-95 77.67,-95"/>
</a>
</g>
</g>
<!-- function&#45;0&#45;ImmVal -->
<g id="node3" class="node">
<title>function&#45;0&#45;ImmVal</title>
<g id="a_node3"><a xlink:title="Imm&#45;4: function&#45;0&#45;ImmVal">
<path fill="white" stroke="transparent" d="M270.67,-95C270.67,-95 311.33,-95 311.33,-95 316.67,-95 322,-100.33 322,-105.67 322,-105.67 322,-116.33 322,-116.33 322,-121.67 316.67,-127 311.33,-127 311.33,-127 270.67,-127 270.67,-127 265.33,-127 260,-121.67 260,-116.33 260,-116.33 260,-105.67 260,-105.67 260,-100.33 265.33,-95 270.67,-95"/>
<text text-anchor="start" x="265" y="-107.3" font-family="Helvetica,sans-Serif" font-size="14.00">ImmVal</text>
<path fill="none" stroke="black" d="M270.67,-95C270.67,-95 311.33,-95 311.33,-95 316.67,-95 322,-100.33 322,-105.67 322,-105.67 322,-116.33 322,-116.33 322,-121.67 316.67,-127 311.33,-127 311.33,-127 270.67,-127 270.67,-127 265.33,-127 260,-121.67 260,-116.33 260,-116.33 260,-105.67 260,-105.67 260,-100.33 265.33,-95 270.67,-95"/>
</a>
</g>
</g>
<!-- primitive&#45;i64&#45;4 -->
<g id="node4" class="node">
<title>primitive&#45;i64&#45;4</title>
<g id="a_node4"><a xlink:title="i64&#45;4: primitive&#45;i64&#45;4">
<path fill="white" stroke="transparent" d="M285.67,-16C285.67,-16 296.33,-16 296.33,-16 301.67,-16 307,-21.33 307,-26.67 307,-26.67 307,-37.33 307,-37.33 307,-42.67 301.67,-48 296.33,-48 296.33,-48 285.67,-48 285.67,-48 280.33,-48 275,-42.67 275,-37.33 275,-37.33 275,-26.67 275,-26.67 275,-21.33 280.33,-16 285.67,-16"/>
<text text-anchor="start" x="286" y="-28.3" font-family="Helvetica,sans-Serif" font-size="14.00">4</text>
<path fill="none" stroke="black" d="M285.67,-16C285.67,-16 296.33,-16 296.33,-16 301.67,-16 307,-21.33 307,-26.67 307,-26.67 307,-37.33 307,-37.33 307,-42.67 301.67,-48 296.33,-48 296.33,-48 285.67,-48 285.67,-48 280.33,-48 275,-42.67 275,-37.33 275,-37.33 275,-26.67 275,-26.67 275,-21.33 280.33,-16 285.67,-16"/>
</a>
</g>
</g>
<!-- function&#45;0&#45;Jal -->
<g id="node5" class="node">
<title>function&#45;0&#45;Jal</title>
<g id="a_node5"><a xlink:title="Inst&#45;6: function&#45;0&#45;Jal">
<path fill="white" stroke="transparent" d="M47.67,-253C47.67,-253 58.33,-253 58.33,-253 63.67,-253 69,-258.33 69,-263.67 69,-263.67 69,-274.33 69,-274.33 69,-279.67 63.67,-285 58.33,-285 58.33,-285 47.67,-285 47.67,-285 42.33,-285 37,-279.67 37,-274.33 37,-274.33 37,-263.67 37,-263.67 37,-258.33 42.33,-253 47.67,-253"/>
<text text-anchor="start" x="44.5" y="-265.3" font-family="Helvetica,sans-Serif" font-size="14.00">Jal</text>
<path fill="none" stroke="black" d="M47.67,-253C47.67,-253 58.33,-253 58.33,-253 63.67,-253 69,-258.33 69,-263.67 69,-263.67 69,-274.33 69,-274.33 69,-279.67 63.67,-285 58.33,-285 58.33,-285 47.67,-285 47.67,-285 42.33,-285 37,-279.67 37,-274.33 37,-274.33 37,-263.67 37,-263.67 37,-258.33 42.33,-253 47.67,-253"/>
</a>
</g>
</g>
<!-- function&#45;1&#45;RegVal -->
<g id="node6" class="node">
<title>function&#45;1&#45;RegVal</title>
<g id="a_node6"><a xlink:title="Inst&#45;1: function&#45;1&#45;RegVal">
<path fill="white" stroke="transparent" d="M161.17,-174C161.17,-174 196.83,-174 196.83,-174 202.17,-174 207.5,-179.33 207.5,-184.67 207.5,-184.67 207.5,-195.33 207.5,-195.33 207.5,-200.67 202.17,-206 196.83,-206 196.83,-206 161.17,-206 161.17,-206 155.83,-206 150.5,-200.67 150.5,-195.33 150.5,-195.33 150.5,-184.67 150.5,-184.67 150.5,-179.33 155.83,-174 161.17,-174"/>
<text text-anchor="start" x="156" y="-186.3" font-family="Helvetica,sans-Serif" font-size="14.00">RegVal</text>
<path fill="none" stroke="black" d="M161.17,-174C161.17,-174 196.83,-174 196.83,-174 202.17,-174 207.5,-179.33 207.5,-184.67 207.5,-184.67 207.5,-195.33 207.5,-195.33 207.5,-200.67 202.17,-206 196.83,-206 196.83,-206 161.17,-206 161.17,-206 155.83,-206 150.5,-200.67 150.5,-195.33 150.5,-195.33 150.5,-184.67 150.5,-184.67 150.5,-179.33 155.83,-174 161.17,-174"/>
</a>
</g>
</g>
<!-- primitive&#45;String&#45;2 -->
<g id="node7" class="node">
<title>primitive&#45;String&#45;2</title>
<g id="a_node7"><a xlink:title="String&#45;2: primitive&#45;String&#45;2">
<path fill="white" stroke="transparent" d="M156.17,-95C156.17,-95 203.83,-95 203.83,-95 209.17,-95 214.5,-100.33 214.5,-105.67 214.5,-105.67 214.5,-116.33 214.5,-116.33 214.5,-121.67 209.17,-127 203.83,-127 203.83,-127 156.17,-127 156.17,-127 150.83,-127 145.5,-121.67 145.5,-116.33 145.5,-116.33 145.5,-105.67 145.5,-105.67 145.5,-100.33 150.83,-95 156.17,-95"/>
<text text-anchor="start" x="151" y="-107.3" font-family="Helvetica,sans-Serif" font-size="14.00">&quot;zero_0&quot;</text>
<path fill="none" stroke="black" d="M156.17,-95C156.17,-95 203.83,-95 203.83,-95 209.17,-95 214.5,-100.33 214.5,-105.67 214.5,-105.67 214.5,-116.33 214.5,-116.33 214.5,-121.67 209.17,-127 203.83,-127 203.83,-127 156.17,-127 156.17,-127 150.83,-127 145.5,-121.67 145.5,-116.33 145.5,-116.33 145.5,-105.67 145.5,-105.67 145.5,-100.33 150.83,-95 156.17,-95"/>
</a>
</g>
</g>
<!-- function&#45;1&#45;Jal -->
<g id="node8" class="node">
<title>function&#45;1&#45;Jal</title>
<g id="a_node8"><a xlink:title="Inst&#45;8: function&#45;1&#45;Jal">
<path fill="white" stroke="transparent" d="M285.67,-174C285.67,-174 296.33,-174 296.33,-174 301.67,-174 307,-179.33 307,-184.67 307,-184.67 307,-195.33 307,-195.33 307,-200.67 301.67,-206 296.33,-206 296.33,-206 285.67,-206 285.67,-206 280.33,-206 275,-200.67 275,-195.33 275,-195.33 275,-184.67 275,-184.67 275,-179.33 280.33,-174 285.67,-174"/>
<text text-anchor="start" x="282.5" y="-186.3" font-family="Helvetica,sans-Serif" font-size="14.00">Jal</text>
<path fill="none" stroke="black" d="M285.67,-174C285.67,-174 296.33,-174 296.33,-174 301.67,-174 307,-179.33 307,-184.67 307,-184.67 307,-195.33 307,-195.33 307,-200.67 301.67,-206 296.33,-206 296.33,-206 285.67,-206 285.67,-206 280.33,-206 275,-200.67 275,-195.33 275,-195.33 275,-184.67 275,-184.67 275,-179.33 280.33,-174 285.67,-174"/>
</a>
</g>
</g>
<!-- function&#45;0&#45;Bne -->
<g id="node9" class="node">
<title>function&#45;0&#45;Bne</title>
<g id="a_node9"><a xlink:title="Inst&#45;3: function&#45;0&#45;Bne">
<path fill="white" stroke="transparent" d="M90.67,-332C90.67,-332 107.33,-332 107.33,-332 112.67,-332 118,-337.33 118,-342.67 118,-342.67 118,-353.33 118,-353.33 118,-358.67 112.67,-364 107.33,-364 107.33,-364 90.67,-364 90.67,-364 85.33,-364 80,-358.67 80,-353.33 80,-353.33 80,-342.67 80,-342.67 80,-337.33 85.33,-332 90.67,-332"/>
<text text-anchor="start" x="85" y="-344.3" font-family="Helvetica,sans-Serif" font-size="14.00">Bne</text>
<path fill="none" stroke="black" d="M90.67,-332C90.67,-332 107.33,-332 107.33,-332 112.67,-332 118,-337.33 118,-342.67 118,-342.67 118,-353.33 118,-353.33 118,-358.67 112.67,-364 107.33,-364 107.33,-364 90.67,-364 90.67,-364 85.33,-364 80,-358.67 80,-353.33 80,-353.33 80,-342.67 80,-342.67 80,-337.33 85.33,-332 90.67,-332"/>
</a>
</g>
</g>
<!-- function&#45;0&#45;RegVal -->
<g id="node10" class="node">
<title>function&#45;0&#45;RegVal</title>
<g id="a_node10"><a xlink:title="Inst&#45;0: function&#45;0&#45;RegVal">
<path fill="white" stroke="transparent" d="M407.17,-174C407.17,-174 442.83,-174 442.83,-174 448.17,-174 453.5,-179.33 453.5,-184.67 453.5,-184.67 453.5,-195.33 453.5,-195.33 453.5,-200.67 448.17,-206 442.83,-206 442.83,-206 407.17,-206 407.17,-206 401.83,-206 396.5,-200.67 396.5,-195.33 396.5,-195.33 396.5,-184.67 396.5,-184.67 396.5,-179.33 401.83,-174 407.17,-174"/>
<text text-anchor="start" x="402" y="-186.3" font-family="Helvetica,sans-Serif" font-size="14.00">RegVal</text>
<path fill="none" stroke="black" d="M407.17,-174C407.17,-174 442.83,-174 442.83,-174 448.17,-174 453.5,-179.33 453.5,-184.67 453.5,-184.67 453.5,-195.33 453.5,-195.33 453.5,-200.67 448.17,-206 442.83,-206 442.83,-206 407.17,-206 407.17,-206 401.83,-206 396.5,-200.67 396.5,-195.33 396.5,-195.33 396.5,-184.67 396.5,-184.67 396.5,-179.33 401.83,-174 407.17,-174"/>
</a>
</g>
</g>
<!-- function&#45;1&#45;Bne -->
<g id="node11" class="node">
<title>function&#45;1&#45;Bne</title>
<g id="a_node11"><a xlink:title="Inst&#45;3: function&#45;1&#45;Bne">
<path fill="white" stroke="transparent" d="M148.67,-332C148.67,-332 165.33,-332 165.33,-332 170.67,-332 176,-337.33 176,-342.67 176,-342.67 176,-353.33 176,-353.33 176,-358.67 170.67,-364 165.33,-364 165.33,-364 148.67,-364 148.67,-364 143.33,-364 138,-358.67 138,-353.33 138,-353.33 138,-342.67 138,-342.67 138,-337.33 143.33,-332 148.67,-332"/>
<text text-anchor="start" x="143" y="-344.3" font-family="Helvetica,sans-Serif" font-size="14.00">Bne</text>
<path fill="none" stroke="black" d="M148.67,-332C148.67,-332 165.33,-332 165.33,-332 170.67,-332 176,-337.33 176,-342.67 176,-342.67 176,-353.33 176,-353.33 176,-358.67 170.67,-364 165.33,-364 165.33,-364 148.67,-364 148.67,-364 143.33,-364 138,-358.67 138,-353.33 138,-353.33 138,-342.67 138,-342.67 138,-337.33 143.33,-332 148.67,-332"/>
</a>
</g>
</g>
<!-- function&#45;0&#45;Seq2 -->
<g id="node12" class="node">
<title>function&#45;0&#45;Seq2</title>
<g id="a_node12"><a xlink:title="Inst&#45;3: function&#45;0&#45;Seq2">
<path fill="white" stroke="transparent" d="M28.67,-332C28.67,-332 53.33,-332 53.33,-332 58.67,-332 64,-337.33 64,-342.67 64,-342.67 64,-353.33 64,-353.33 64,-358.67 58.67,-364 53.33,-364 53.33,-364 28.67,-364 28.67,-364 23.33,-364 18,-358.67 18,-353.33 18,-353.33 18,-342.67 18,-342.67 18,-337.33 23.33,-332 28.67,-332"/>
<text text-anchor="start" x="23" y="-344.3" font-family="Helvetica,sans-Serif" font-size="14.00">Seq2</text>
<path fill="none" stroke="black" d="M28.67,-332C28.67,-332 53.33,-332 53.33,-332 58.67,-332 64,-337.33 64,-342.67 64,-342.67 64,-353.33 64,-353.33 64,-358.67 58.67,-364 53.33,-364 53.33,-364 28.67,-364 28.67,-364 23.33,-364 18,-358.67 18,-353.33 18,-353.33 18,-342.67 18,-342.67 18,-337.33 23.33,-332 28.67,-332"/>
</a>
</g>
</g>
<!-- function&#45;0&#45;Beq -->
<g id="node13" class="node">
<title>function&#45;0&#45;Beq</title>
<g id="a_node13"><a xlink:title="Inst&#45;5: function&#45;0&#45;Beq">
<path fill="white" stroke="transparent" d="M153.67,-253C153.67,-253 170.33,-253 170.33,-253 175.67,-253 181,-258.33 181,-263.67 181,-263.67 181,-274.33 181,-274.33 181,-279.67 175.67,-285 170.33,-285 170.33,-285 153.67,-285 153.67,-285 148.33,-285 143,-279.67 143,-274.33 143,-274.33 143,-263.67 143,-263.67 143,-258.33 148.33,-253 153.67,-253"/>
<text text-anchor="start" x="148" y="-265.3" font-family="Helvetica,sans-Serif" font-size="14.00">Beq</text>
<path fill="none" stroke="black" d="M153.67,-253C153.67,-253 170.33,-253 170.33,-253 175.67,-253 181,-258.33 181,-263.67 181,-263.67 181,-274.33 181,-274.33 181,-279.67 175.67,-285 170.33,-285 170.33,-285 153.67,-285 153.67,-285 148.33,-285 143,-279.67 143,-274.33 143,-274.33 143,-263.67 143,-263.67 143,-258.33 148.33,-253 153.67,-253"/>
</a>
</g>
</g>
<!-- function&#45;2&#45;Bne -->
<g id="node14" class="node">
<title>function&#45;2&#45;Bne</title>
<g id="a_node14"><a xlink:title="Inst&#45;7: function&#45;2&#45;Bne">
<path fill="white" stroke="transparent" d="M393.67,-253C393.67,-253 410.33,-253 410.33,-253 415.67,-253 421,-258.33 421,-263.67 421,-263.67 421,-274.33 421,-274.33 421,-279.67 415.67,-285 410.33,-285 410.33,-285 393.67,-285 393.67,-285 388.33,-285 383,-279.67 383,-274.33 383,-274.33 383,-263.67 383,-263.67 383,-258.33 388.33,-253 393.67,-253"/>
<text text-anchor="start" x="388" y="-265.3" font-family="Helvetica,sans-Serif" font-size="14.00">Bne</text>
<path fill="none" stroke="black" d="M393.67,-253C393.67,-253 410.33,-253 410.33,-253 415.67,-253 421,-258.33 421,-263.67 421,-263.67 421,-274.33 421,-274.33 421,-279.67 415.67,-285 410.33,-285 410.33,-285 393.67,-285 393.67,-285 388.33,-285 383,-279.67 383,-274.33 383,-274.33 383,-263.67 383,-263.67 383,-258.33 388.33,-253 393.67,-253"/>
</a>
</g>
</g>
<!-- function&#45;3&#45;Bne -->
<g id="node15" class="node">
<title>function&#45;3&#45;Bne</title>
<g id="a_node15"><a xlink:title="Inst&#45;7: function&#45;3&#45;Bne">
<path fill="white" stroke="transparent" d="M451.67,-253C451.67,-253 468.33,-253 468.33,-253 473.67,-253 479,-258.33 479,-263.67 479,-263.67 479,-274.33 479,-274.33 479,-279.67 473.67,-285 468.33,-285 468.33,-285 451.67,-285 451.67,-285 446.33,-285 441,-279.67 441,-274.33 441,-274.33 441,-263.67 441,-263.67 441,-258.33 446.33,-253 451.67,-253"/>
<text text-anchor="start" x="446" y="-265.3" font-family="Helvetica,sans-Serif" font-size="14.00">Bne</text>
<path fill="none" stroke="black" d="M451.67,-253C451.67,-253 468.33,-253 468.33,-253 473.67,-253 479,-258.33 479,-263.67 479,-263.67 479,-274.33 479,-274.33 479,-279.67 473.67,-285 468.33,-285 468.33,-285 451.67,-285 451.67,-285 446.33,-285 441,-279.67 441,-274.33 441,-274.33 441,-263.67 441,-263.67 441,-258.33 446.33,-253 451.67,-253"/>
</a>
</g>
</g>
<!-- function&#45;2&#45;Seq2 -->
<g id="node16" class="node">
<title>function&#45;2&#45;Seq2</title>
<g id="a_node16"><a xlink:title="Inst&#45;7: function&#45;2&#45;Seq2">
<path fill="white" stroke="transparent" d="M331.67,-253C331.67,-253 356.33,-253 356.33,-253 361.67,-253 367,-258.33 367,-263.67 367,-263.67 367,-274.33 367,-274.33 367,-279.67 361.67,-285 356.33,-285 356.33,-285 331.67,-285 331.67,-285 326.33,-285 321,-279.67 321,-274.33 321,-274.33 321,-263.67 321,-263.67 321,-258.33 326.33,-253 331.67,-253"/>
<text text-anchor="start" x="326" y="-265.3" font-family="Helvetica,sans-Serif" font-size="14.00">Seq2</text>
<path fill="none" stroke="black" d="M331.67,-253C331.67,-253 356.33,-253 356.33,-253 361.67,-253 367,-258.33 367,-263.67 367,-263.67 367,-274.33 367,-274.33 367,-279.67 361.67,-285 356.33,-285 356.33,-285 331.67,-285 331.67,-285 326.33,-285 321,-279.67 321,-274.33 321,-274.33 321,-263.67 321,-263.67 321,-258.33 326.33,-253 331.67,-253"/>
</a>
</g>
</g>
<!-- function&#45;1&#45;Seq2 -->
<g id="node17" class="node">
<title>function&#45;1&#45;Seq2</title>
<g id="a_node17"><a xlink:title="Inst&#45;5: function&#45;1&#45;Seq2">
<path fill="white" stroke="transparent" d="M265.67,-253C265.67,-253 290.33,-253 290.33,-253 295.67,-253 301,-258.33 301,-263.67 301,-263.67 301,-274.33 301,-274.33 301,-279.67 295.67,-285 290.33,-285 290.33,-285 265.67,-285 265.67,-285 260.33,-285 255,-279.67 255,-274.33 255,-274.33 255,-263.67 255,-263.67 255,-258.33 260.33,-253 265.67,-253"/>
<text text-anchor="start" x="260" y="-265.3" font-family="Helvetica,sans-Serif" font-size="14.00">Seq2</text>
<path fill="none" stroke="black" d="M265.67,-253C265.67,-253 290.33,-253 290.33,-253 295.67,-253 301,-258.33 301,-263.67 301,-263.67 301,-274.33 301,-274.33 301,-279.67 295.67,-285 290.33,-285 290.33,-285 265.67,-285 265.67,-285 260.33,-285 255,-279.67 255,-274.33 255,-274.33 255,-263.67 255,-263.67 255,-258.33 260.33,-253 265.67,-253"/>
</a>
</g>
</g>
<!-- function&#45;1&#45;Beq -->
<g id="node18" class="node">
<title>function&#45;1&#45;Beq</title>
<g id="a_node18"><a xlink:title="Inst&#45;5: function&#45;1&#45;Beq">
<path fill="white" stroke="transparent" d="M211.67,-253C211.67,-253 228.33,-253 228.33,-253 233.67,-253 239,-258.33 239,-263.67 239,-263.67 239,-274.33 239,-274.33 239,-279.67 233.67,-285 228.33,-285 228.33,-285 211.67,-285 211.67,-285 206.33,-285 201,-279.67 201,-274.33 201,-274.33 201,-263.67 201,-263.67 201,-258.33 206.33,-253 211.67,-253"/>
<text text-anchor="start" x="206" y="-265.3" font-family="Helvetica,sans-Serif" font-size="14.00">Beq</text>
<path fill="none" stroke="black" d="M211.67,-253C211.67,-253 228.33,-253 228.33,-253 233.67,-253 239,-258.33 239,-263.67 239,-263.67 239,-274.33 239,-274.33 239,-279.67 233.67,-285 228.33,-285 228.33,-285 211.67,-285 211.67,-285 206.33,-285 201,-279.67 201,-274.33 201,-274.33 201,-263.67 201,-263.67 201,-258.33 206.33,-253 211.67,-253"/>
</a>
</g>
</g>
<!-- primitive&#45;String&#45;1 -->
<g id="node19" class="node">
<title>primitive&#45;String&#45;1</title>
<g id="a_node19"><a xlink:title="String&#45;1: primitive&#45;String&#45;1">
<path fill="white" stroke="transparent" d="M409.67,-95C409.67,-95 442.33,-95 442.33,-95 447.67,-95 453,-100.33 453,-105.67 453,-105.67 453,-116.33 453,-116.33 453,-121.67 447.67,-127 442.33,-127 442.33,-127 409.67,-127 409.67,-127 404.33,-127 399,-121.67 399,-116.33 399,-116.33 399,-105.67 399,-105.67 399,-100.33 404.33,-95 409.67,-95"/>
<text text-anchor="start" x="404" y="-107.3" font-family="Helvetica,sans-Serif" font-size="14.00">&quot;t0_0&quot;</text>
<path fill="none" stroke="black" d="M409.67,-95C409.67,-95 442.33,-95 442.33,-95 447.67,-95 453,-100.33 453,-105.67 453,-105.67 453,-116.33 453,-116.33 453,-121.67 447.67,-127 442.33,-127 442.33,-127 409.67,-127 409.67,-127 404.33,-127 399,-121.67 399,-116.33 399,-116.33 399,-105.67 399,-105.67 399,-100.33 404.33,-95 409.67,-95"/>
</a>
</g>
</g>
</g>
</svg>
