<?xml version="1.0" encoding="UTF-8" standalone="no"?>
<!DOCTYPE svg PUBLIC "-//W3C//DTD SVG 1.1//EN"
 "http://www.w3.org/Graphics/SVG/1.1/DTD/svg11.dtd">
<!-- Generated by graphviz version 2.43.0 (0)
 -->
<!-- Title: %3 Pages: 1 -->
<svg width="537pt" height="388pt"
 viewBox="0.00 0.00 537.33 388.00" xmlns="http://www.w3.org/2000/svg" xmlns:xlink="http://www.w3.org/1999/xlink">
<g id="graph0" class="graph" transform="scale(1 1) rotate(0) translate(4 384)">
<title>%3</title>
<polygon fill="white" stroke="#000000" points="-4,4 -4,-384 533.33,-384 533.33,4 -4,4"/>
<g id="clust1" class="cluster">
<title>outer_cluster_Imm&#45;4</title>
</g>
<g id="clust2" class="cluster">
<title>cluster_Imm&#45;4</title>
<path fill="#ffffb3" stroke="black" stroke-dasharray="5,2" d="M301,-90C301,-90 345,-90 345,-90 351,-90 357,-96 357,-102 357,-102 357,-120 357,-120 357,-126 351,-132 345,-132 345,-132 301,-132 301,-132 295,-132 289,-126 289,-120 289,-120 289,-102 289,-102 289,-96 295,-90 301,-90"/>
</g>
<g id="clust4" class="cluster">
<title>outer_cluster_Imm&#45;2</title>
</g>
<g id="clust5" class="cluster">
<title>cluster_Imm&#45;2</title>
<path fill="#ffffb3" stroke="black" stroke-dasharray="5,2" d="M23,-169C23,-169 83,-169 83,-169 89,-169 95,-175 95,-181 95,-181 95,-199 95,-199 95,-205 89,-211 83,-211 83,-211 23,-211 23,-211 17,-211 11,-205 11,-199 11,-199 11,-181 11,-181 11,-175 17,-169 23,-169"/>
</g>
<g id="clust7" class="cluster">
<title>outer_cluster_Inst&#45;5</title>
</g>
<g id="clust8" class="cluster">
<title>cluster_Inst&#45;5</title>
<path fill="#bebada" stroke="black" stroke-dasharray="5,2" d="M162,-248C162,-248 314,-248 314,-248 320,-248 326,-254 326,-260 326,-260 326,-278 326,-278 326,-284 320,-290 314,-290 314,-290 162,-290 162,-290 156,-290 150,-284 150,-278 150,-278 150,-260 150,-260 150,-254 156,-248 162,-248"/>
</g>
<g id="clust10" class="cluster">
<title>outer_cluster_Inst&#45;6</title>
</g>
<g id="clust11" class="cluster">
<title>cluster_Inst&#45;6</title>
<path fill="#bebada" stroke="black" stroke-dasharray="5,2" d="M74,-248C74,-248 110,-248 110,-248 116,-248 122,-254 122,-260 122,-260 122,-278 122,-278 122,-284 116,-290 110,-290 110,-290 74,-290 74,-290 68,-290 62,-284 62,-278 62,-278 62,-260 62,-260 62,-254 68,-248 74,-248"/>
</g>
<g id="clust13" class="cluster">
<title>outer_cluster_Inst&#45;8</title>
</g>
<g id="clust14" class="cluster">
<title>cluster_Inst&#45;8</title>
<path fill="#bebada" stroke="black" stroke-dasharray="5,2" d="M305,-169C305,-169 341,-169 341,-169 347,-169 353,-175 353,-181 353,-181 353,-199 353,-199 353,-205 347,-211 341,-211 341,-211 305,-211 305,-211 299,-211 293,-205 293,-199 293,-199 293,-181 293,-181 293,-175 299,-169 305,-169"/>
</g>
<g id="clust16" class="cluster">
<title>outer_cluster_Inst&#45;7</title>
</g>
<g id="clust17" class="cluster">
<title>cluster_Inst&#45;7</title>
<path fill="#bebada" stroke="black" stroke-dasharray="5,2" d="M344,-248C344,-248 496,-248 496,-248 502,-248 508,-254 508,-260 508,-260 508,-278 508,-278 508,-284 502,-290 496,-290 496,-290 344,-290 344,-290 338,-290 332,-284 332,-278 332,-278 332,-260 332,-260 332,-254 338,-248 344,-248"/>
</g>
<g id="clust19" class="cluster">
<title>outer_cluster_Inst&#45;0</title>
</g>
<g id="clust20" class="cluster">
<title>cluster_Inst&#45;0</title>
<path fill="#bebada" stroke="black" stroke-dasharray="5,2" d="M169,-169C169,-169 209,-169 209,-169 215,-169 221,-175 221,-181 221,-181 221,-199 221,-199 221,-205 215,-211 209,-211 209,-211 169,-211 169,-211 163,-211 157,-205 157,-199 157,-199 157,-181 157,-181 157,-175 163,-169 169,-169"/>
</g>
<g id="clust22" class="cluster">
<title>outer_cluster_Inst&#45;1</title>
</g>
<g id="clust23" class="cluster">
<title>cluster_Inst&#45;1</title>
<path fill="#bebada" stroke="black" stroke-dasharray="5,2" d="M420,-169C420,-169 460,-169 460,-169 466,-169 472,-175 472,-181 472,-181 472,-199 472,-199 472,-205 466,-211 460,-211 460,-211 420,-211 420,-211 414,-211 408,-205 408,-199 408,-199 408,-181 408,-181 408,-175 414,-169 420,-169"/>
</g>
<g id="clust25" class="cluster">
<title>outer_cluster_Inst&#45;3</title>
</g>
<g id="clust26" class="cluster">
<title>cluster_Inst&#45;3</title>
<path fill="#bebada" stroke="black" stroke-dasharray="5,2" d="M63,-327C63,-327 215,-327 215,-327 221,-327 227,-333 227,-339 227,-339 227,-357 227,-357 227,-363 221,-369 215,-369 215,-369 63,-369 63,-369 57,-369 51,-363 51,-357 51,-357 51,-339 51,-339 51,-333 57,-327 63,-327"/>
</g>
<g id="clust28" class="cluster">
<title>outer_cluster_String&#45;2</title>
</g>
<g id="clust29" class="cluster">
<title>cluster_String&#45;2</title>
<path fill="#fb8072" stroke="black" stroke-dasharray="5,2" d="M36,-90C36,-90 72,-90 72,-90 78,-90 84,-96 84,-102 84,-102 84,-120 84,-120 84,-126 78,-132 72,-132 72,-132 36,-132 36,-132 30,-132 24,-126 24,-120 24,-120 24,-102 24,-102 24,-96 30,-90 36,-90"/>
</g>
<g id="clust31" class="cluster">
<title>outer_cluster_String&#45;0</title>
</g>
<g id="clust32" class="cluster">
<title>cluster_String&#45;0</title>
<path fill="#fb8072" stroke="black" stroke-dasharray="5,2" d="M172,-90C172,-90 208,-90 208,-90 214,-90 220,-96 220,-102 220,-102 220,-120 220,-120 220,-126 214,-132 208,-132 208,-132 172,-132 172,-132 166,-132 160,-126 160,-120 160,-120 160,-102 160,-102 160,-96 166,-90 172,-90"/>
</g>
<g id="clust34" class="cluster">
<title>outer_cluster_String&#45;1</title>
</g>
<g id="clust35" class="cluster">
<title>cluster_String&#45;1</title>
<path fill="#fb8072" stroke="black" stroke-dasharray="5,2" d="M415,-90C415,-90 467,-90 467,-90 473,-90 479,-96 479,-102 479,-102 479,-120 479,-120 479,-126 473,-132 467,-132 467,-132 415,-132 415,-132 409,-132 403,-126 403,-120 403,-120 403,-102 403,-102 403,-96 409,-90 415,-90"/>
</g>
<g id="clust37" class="cluster">
<title>outer_cluster_i64&#45;4</title>
</g>
<g id="clust38" class="cluster">
<title>cluster_i64&#45;4</title>
<path fill="#80b1d3" stroke="black" stroke-dasharray="5,2" d="M305,-11C305,-11 341,-11 341,-11 347,-11 353,-17 353,-23 353,-23 353,-41 353,-41 353,-47 347,-53 341,-53 341,-53 305,-53 305,-53 299,-53 293,-47 293,-41 293,-41 293,-23 293,-23 293,-17 299,-11 305,-11"/>
</g>
<!-- function&#45;0&#45;ImmVal&#45;&gt;primitive&#45;i64&#45;4 -->
<g id="edge1" class="edge">
<title>function&#45;0&#45;ImmVal:s&#45;&gt;primitive&#45;i64&#45;4</title>
<path fill="none" stroke="black" d="M323,-95C323,-81.84 323,-67.11 323,-55.3"/>
<polygon fill="black" stroke="black" points="324.75,-58 323,-53 321.25,-58 324.75,-58"/>
</g>
<!-- function&#45;0&#45;ImmLabel&#45;&gt;primitive&#45;String&#45;2 -->
<g id="edge2" class="edge">
<title>function&#45;0&#45;ImmLabel:s&#45;&gt;primitive&#45;String&#45;2</title>
<path fill="none" stroke="black" d="M54,-174C54,-160.84 54,-146.11 54,-134.3"/>
<polygon fill="black" stroke="black" points="55.75,-137 54,-132 52.25,-137 55.75,-137"/>
</g>
<!-- function&#45;0&#45;Beq&#45;&gt;function&#45;0&#45;ImmVal -->
<g id="edge5" class="edge">
<title>function&#45;0&#45;Beq:s&#45;&gt;function&#45;0&#45;ImmVal</title>
<path fill="none" stroke="black" d="M252,-253C252,-206.43 283.28,-159.57 304.31,-133.31"/>
<polygon fill="black" stroke="black" points="303.35,-136.8 305.59,-132 300.85,-134.36 303.35,-136.8"/>
</g>
<!-- function&#45;0&#45;Beq&#45;&gt;function&#45;0&#45;RegVal -->
<g id="edge3" class="edge">
<title>function&#45;0&#45;Beq:s&#45;&gt;function&#45;0&#45;RegVal</title>
<path fill="none" stroke="black" d="M229,-253C229,-237.71 220.31,-223.2 211.03,-212.07"/>
<polygon fill="black" stroke="black" points="214.65,-212.6 209.59,-211 212.55,-215.4 214.65,-212.6"/>
</g>
<!-- function&#45;0&#45;Beq&#45;&gt;function&#45;1&#45;RegVal -->
<g id="edge4" class="edge">
<title>function&#45;0&#45;Beq:s&#45;&gt;function&#45;1&#45;RegVal</title>
<path fill="none" stroke="black" d="M243,-253C243,-244.54 350.15,-214.83 406.4,-199.82"/>
<polygon fill="black" stroke="black" points="405.26,-203.04 408,-198.51 403.03,-200.34 405.26,-203.04"/>
</g>
<!-- function&#45;0&#45;RegVal&#45;&gt;primitive&#45;String&#45;0 -->
<g id="edge21" class="edge">
<title>function&#45;0&#45;RegVal:s&#45;&gt;primitive&#45;String&#45;0</title>
<path fill="none" stroke="black" d="M190,-174C190,-160.84 190,-146.11 190,-134.3"/>
<polygon fill="black" stroke="black" points="191.75,-137 190,-132 188.25,-137 191.75,-137"/>
</g>
<!-- function&#45;1&#45;RegVal&#45;&gt;primitive&#45;String&#45;1 -->
<g id="edge22" class="edge">
<title>function&#45;1&#45;RegVal:s&#45;&gt;primitive&#45;String&#45;1</title>
<path fill="none" stroke="black" d="M441,-174C441,-160.84 441,-146.11 441,-134.3"/>
<polygon fill="black" stroke="black" points="442.75,-137 441,-132 439.25,-137 442.75,-137"/>
</g>
<!-- function&#45;1&#45;Beq&#45;&gt;function&#45;0&#45;ImmVal -->
<g id="edge8" class="edge">
<title>function&#45;1&#45;Beq:s&#45;&gt;function&#45;0&#45;ImmVal</title>
<path fill="none" stroke="black" d="M194,-253C194,-251.5 256.97,-167.09 258,-166 269.39,-153.92 283.42,-141.96 295.52,-132.38"/>
<polygon fill="black" stroke="black" points="292.47,-135.38 296.55,-132 291.25,-132.1 292.47,-135.38"/>
</g>
<!-- function&#45;1&#45;Beq&#45;&gt;function&#45;0&#45;RegVal -->
<g id="edge7" class="edge">
<title>function&#45;1&#45;Beq:s&#45;&gt;function&#45;0&#45;RegVal</title>
<path fill="none" stroke="black" d="M185,-253C185,-239.81 185.91,-225.08 186.87,-213.28"/>
<polygon fill="black" stroke="black" points="188.08,-216.24 187.3,-211 184.64,-215.58 188.08,-216.24"/>
</g>
<!-- function&#45;1&#45;Beq&#45;&gt;function&#45;1&#45;RegVal -->
<g id="edge6" class="edge">
<title>function&#45;1&#45;Beq:s&#45;&gt;function&#45;1&#45;RegVal</title>
<path fill="none" stroke="black" d="M171,-253C171,-211.42 313.57,-223.71 354,-214 371.28,-209.85 390.39,-204.79 406.2,-200.47"/>
<polygon fill="black" stroke="black" points="405.18,-203.52 408,-199.04 403,-200.78 405.18,-203.52"/>
</g>
<!-- function&#45;1&#45;Seq2&#45;&gt;function&#45;2&#45;Bne -->
<g id="edge9" class="edge">
<title>function&#45;1&#45;Seq2:s&#45;&gt;function&#45;2&#45;Bne</title>
<path fill="none" stroke="black" d="M285,-253C285,-178.07 407.84,-204.55 445,-223.5 454.53,-228.36 461.96,-237.41 467.33,-246.17"/>
<polygon fill="black" stroke="black" points="464.37,-245.62 469.1,-248 466.88,-243.19 464.37,-245.62"/>
</g>
<!-- function&#45;1&#45;Seq2&#45;&gt;function&#45;1&#45;Jal -->
<g id="edge10" class="edge">
<title>function&#45;1&#45;Seq2:s&#45;&gt;function&#45;1&#45;Jal</title>
<path fill="none" stroke="black" d="M307,-253C307,-239.38 310.66,-224.6 314.48,-212.89"/>
<polygon fill="black" stroke="black" points="314.17,-215.92 316.12,-211 311.52,-213.63 314.17,-215.92"/>
</g>
<!-- function&#45;2&#45;Bne&#45;&gt;function&#45;0&#45;ImmVal -->
<g id="edge15" class="edge">
<title>function&#45;2&#45;Bne:s&#45;&gt;function&#45;0&#45;ImmVal</title>
<path fill="none" stroke="black" d="M492,-253C492,-211.44 438.01,-241.68 407,-214 388.41,-197.4 393.46,-185.55 378,-166 368.61,-154.13 356.78,-142.2 346.5,-132.59"/>
<polygon fill="black" stroke="black" points="350.75,-133.86 345.79,-132 348.51,-136.55 350.75,-133.86"/>
</g>
<!-- function&#45;2&#45;Bne&#45;&gt;function&#45;0&#45;RegVal -->
<g id="edge13" class="edge">
<title>function&#45;2&#45;Bne:s&#45;&gt;function&#45;0&#45;RegVal</title>
<path fill="none" stroke="black" d="M469,-253C469,-242.6 457.02,-247.81 447,-245 379.35,-226.05 360.73,-228.55 292,-214 268.87,-209.1 242.88,-203.3 222.79,-198.75"/>
<polygon fill="black" stroke="black" points="226.16,-198.8 221,-197.62 224.3,-201.76 226.16,-198.8"/>
</g>
<!-- function&#45;2&#45;Bne&#45;&gt;function&#45;1&#45;RegVal -->
<g id="edge14" class="edge">
<title>function&#45;2&#45;Bne:s&#45;&gt;function&#45;1&#45;RegVal</title>
<path fill="none" stroke="black" d="M483,-253C483,-237.48 473.79,-223.05 463.9,-212.02"/>
<polygon fill="black" stroke="black" points="467.42,-212.14 462.24,-211 465.58,-215.11 467.42,-212.14"/>
</g>
<!-- function&#45;1&#45;Jal&#45;&gt;function&#45;0&#45;ImmVal -->
<g id="edge12" class="edge">
<title>function&#45;1&#45;Jal:s&#45;&gt;function&#45;0&#45;ImmVal</title>
<path fill="none" stroke="black" d="M323,-174C323,-160.84 323,-146.11 323,-134.3"/>
<polygon fill="black" stroke="black" points="324.75,-137 323,-132 321.25,-137 324.75,-137"/>
</g>
<!-- function&#45;0&#45;Jal&#45;&gt;function&#45;0&#45;ImmLabel -->
<g id="edge11" class="edge">
<title>function&#45;0&#45;Jal:s&#45;&gt;function&#45;0&#45;ImmLabel</title>
<path fill="none" stroke="black" d="M92,-253C92,-237.82 83.52,-223.32 74.48,-212.17"/>
<polygon fill="black" stroke="black" points="78.05,-212.95 73.13,-211 75.76,-215.6 78.05,-212.95"/>
</g>
<!-- function&#45;3&#45;Bne&#45;&gt;function&#45;0&#45;ImmVal -->
<g id="edge18" class="edge">
<title>function&#45;3&#45;Bne:s&#45;&gt;function&#45;0&#45;ImmVal</title>
<path fill="none" stroke="black" d="M434,-253C434,-227.53 408.58,-233.34 392,-214 369.79,-188.08 348.45,-154.82 335.53,-133.46"/>
<polygon fill="black" stroke="black" points="338.79,-134.04 333.9,-132 336.45,-136.64 338.79,-134.04"/>
</g>
<!-- function&#45;3&#45;Bne&#45;&gt;function&#45;0&#45;RegVal -->
<g id="edge17" class="edge">
<title>function&#45;3&#45;Bne:s&#45;&gt;function&#45;0&#45;RegVal</title>
<path fill="none" stroke="black" d="M425,-253C425,-247.84 288.18,-214.59 222.89,-199.02"/>
<polygon fill="black" stroke="black" points="226.17,-199 221,-197.84 224.32,-201.97 226.17,-199"/>
</g>
<!-- function&#45;3&#45;Bne&#45;&gt;function&#45;1&#45;RegVal -->
<g id="edge16" class="edge">
<title>function&#45;3&#45;Bne:s&#45;&gt;function&#45;1&#45;RegVal</title>
<path fill="none" stroke="black" d="M411,-253C411,-238.63 417.47,-224 424.3,-212.56"/>
<polygon fill="black" stroke="black" points="423.49,-215.65 426.03,-211 421.15,-213.06 423.49,-215.65"/>
</g>
<!-- function&#45;2&#45;Seq2&#45;&gt;function&#45;1&#45;Seq2 -->
<g id="edge19" class="edge">
<title>function&#45;2&#45;Seq2:s&#45;&gt;function&#45;1&#45;Seq2</title>
<path fill="none" stroke="black" d="M351,-253C351,-241.59 339.78,-243.91 327.57,-249.8"/>
<polygon fill="black" stroke="black" points="328.71,-246.57 326,-251.12 330.96,-249.26 328.71,-246.57"/>
</g>
<!-- function&#45;2&#45;Seq2&#45;&gt;function&#45;1&#45;Jal -->
<g id="edge20" class="edge">
<title>function&#45;2&#45;Seq2:s&#45;&gt;function&#45;1&#45;Jal</title>
<path fill="none" stroke="black" d="M373,-253C373,-236.85 362.59,-222.53 351.27,-211.73"/>
<polygon fill="black" stroke="black" points="355.35,-212.91 350.41,-211 353.08,-215.58 355.35,-212.91"/>
</g>
<!-- function&#45;0&#45;Bne&#45;&gt;function&#45;0&#45;ImmLabel -->
<g id="edge25" class="edge">
<title>function&#45;0&#45;Bne:s&#45;&gt;function&#45;0&#45;ImmLabel</title>
<path fill="none" stroke="black" d="M153,-332C153,-283.05 77.82,-333.28 50,-293 33.81,-269.55 39.15,-235.31 45.35,-213.09"/>
<polygon fill="black" stroke="black" points="45.41,-216.12 46.77,-211 42.51,-214.16 45.41,-216.12"/>
</g>
<!-- function&#45;0&#45;Bne&#45;&gt;function&#45;0&#45;RegVal -->
<g id="edge23" class="edge">
<title>function&#45;0&#45;Bne:s&#45;&gt;function&#45;0&#45;RegVal</title>
<path fill="none" stroke="black" d="M130,-332C130,-293.03 124.89,-280.49 141,-245 146.54,-232.81 155.8,-221.39 164.72,-212.23"/>
<polygon fill="black" stroke="black" points="163.38,-215.27 166.51,-211 161.4,-212.39 163.38,-215.27"/>
</g>
<!-- function&#45;0&#45;Bne&#45;&gt;function&#45;1&#45;RegVal -->
<g id="edge24" class="edge">
<title>function&#45;0&#45;Bne:s&#45;&gt;function&#45;1&#45;RegVal</title>
<path fill="none" stroke="black" d="M144,-332C144,-250.43 454.01,-353.25 509,-293 523.38,-277.24 518.34,-264.18 509,-245 501.39,-229.39 486.84,-216.96 473.06,-207.98"/>
<polygon fill="black" stroke="black" points="477.16,-208.52 472,-207.3 475.27,-211.47 477.16,-208.52"/>
</g>
<!-- function&#45;1&#45;Bne&#45;&gt;function&#45;0&#45;ImmLabel -->
<g id="edge28" class="edge">
<title>function&#45;1&#45;Bne:s&#45;&gt;function&#45;0&#45;ImmLabel</title>
<path fill="none" stroke="black" d="M211,-332C211,-263.12 105.24,-345.8 61,-293 51.21,-281.32 50.95,-239.48 51.84,-213.16"/>
<polygon fill="black" stroke="black" points="53.34,-216.13 52.03,-211 49.85,-215.83 53.34,-216.13"/>
</g>
<!-- function&#45;1&#45;Bne&#45;&gt;function&#45;0&#45;RegVal -->
<g id="edge27" class="edge">
<title>function&#45;1&#45;Bne:s&#45;&gt;function&#45;0&#45;RegVal</title>
<path fill="none" stroke="black" d="M202,-332C202,-302.75 162.2,-319.1 149,-293 139.37,-273.96 142.31,-265.26 149,-245 152.97,-232.98 160.76,-221.45 168.42,-212.15"/>
<polygon fill="black" stroke="black" points="167.16,-215.66 169.68,-211 164.8,-213.07 167.16,-215.66"/>
</g>
<!-- function&#45;1&#45;Bne&#45;&gt;function&#45;1&#45;RegVal -->
<g id="edge26" class="edge">
<title>function&#45;1&#45;Bne:s&#45;&gt;function&#45;1&#45;RegVal</title>
<path fill="none" stroke="black" d="M188,-332C188,-257.71 470.63,-348.51 520,-293 534.18,-277.06 530.01,-263.84 520,-245 510.15,-226.47 490.8,-213.15 473.59,-204.37"/>
<polygon fill="black" stroke="black" points="476.94,-204.93 472,-203.02 474.67,-207.59 476.94,-204.93"/>
</g>
<!-- function&#45;0&#45;Seq2&#45;&gt;function&#45;0&#45;Beq -->
<g id="edge29" class="edge">
<title>function&#45;0&#45;Seq2:s&#45;&gt;function&#45;0&#45;Beq</title>
<path fill="none" stroke="black" d="M70,-332C70,-268.69 150.21,-320.98 207,-293 207.34,-292.83 207.69,-292.66 208.03,-292.48"/>
<polygon fill="black" stroke="black" points="208.97,-293.96 212.48,-290 207.26,-290.91 208.97,-293.96"/>
</g>
<!-- function&#45;0&#45;Seq2&#45;&gt;function&#45;0&#45;Jal -->
<g id="edge30" class="edge">
<title>function&#45;0&#45;Seq2:s&#45;&gt;function&#45;0&#45;Jal</title>
<path fill="none" stroke="black" d="M92,-332C92,-318.84 92,-304.11 92,-292.3"/>
<polygon fill="black" stroke="black" points="93.75,-295 92,-290 90.25,-295 93.75,-295"/>
</g>
<!-- function&#45;0&#45;ImmVal -->
<g id="node1" class="node">
<title>function&#45;0&#45;ImmVal</title>
<g id="a_node1"><a xlink:title="Imm&#45;4: function&#45;0&#45;ImmVal">
<path fill="white" stroke="transparent" d="M302.67,-95C302.67,-95 343.33,-95 343.33,-95 348.67,-95 354,-100.33 354,-105.67 354,-105.67 354,-116.33 354,-116.33 354,-121.67 348.67,-127 343.33,-127 343.33,-127 302.67,-127 302.67,-127 297.33,-127 292,-121.67 292,-116.33 292,-116.33 292,-105.67 292,-105.67 292,-100.33 297.33,-95 302.67,-95"/>
<text text-anchor="start" x="297" y="-107.3" font-family="Helvetica,sans-Serif" font-size="14.00">ImmVal</text>
<path fill="none" stroke="black" d="M302.67,-95C302.67,-95 343.33,-95 343.33,-95 348.67,-95 354,-100.33 354,-105.67 354,-105.67 354,-116.33 354,-116.33 354,-121.67 348.67,-127 343.33,-127 343.33,-127 302.67,-127 302.67,-127 297.33,-127 292,-121.67 292,-116.33 292,-116.33 292,-105.67 292,-105.67 292,-100.33 297.33,-95 302.67,-95"/>
</a>
</g>
</g>
<!-- primitive&#45;i64&#45;4 -->
<g id="node2" class="node">
<title>primitive&#45;i64&#45;4</title>
<g id="a_node2"><a xlink:title="i64&#45;4: primitive&#45;i64&#45;4">
<path fill="white" stroke="transparent" d="M317.67,-16C317.67,-16 328.33,-16 328.33,-16 333.67,-16 339,-21.33 339,-26.67 339,-26.67 339,-37.33 339,-37.33 339,-42.67 333.67,-48 328.33,-48 328.33,-48 317.67,-48 317.67,-48 312.33,-48 307,-42.67 307,-37.33 307,-37.33 307,-26.67 307,-26.67 307,-21.33 312.33,-16 317.67,-16"/>
<text text-anchor="start" x="318" y="-28.3" font-family="Helvetica,sans-Serif" font-size="14.00">4</text>
<path fill="none" stroke="black" d="M317.67,-16C317.67,-16 328.33,-16 328.33,-16 333.67,-16 339,-21.33 339,-26.67 339,-26.67 339,-37.33 339,-37.33 339,-42.67 333.67,-48 328.33,-48 328.33,-48 317.67,-48 317.67,-48 312.33,-48 307,-42.67 307,-37.33 307,-37.33 307,-26.67 307,-26.67 307,-21.33 312.33,-16 317.67,-16"/>
</a>
</g>
</g>
<!-- function&#45;0&#45;ImmLabel -->
<g id="node3" class="node">
<title>function&#45;0&#45;ImmLabel</title>
<g id="a_node3"><a xlink:title="Imm&#45;2: function&#45;0&#45;ImmLabel">
<path fill="white" stroke="transparent" d="M24.17,-174C24.17,-174 81.83,-174 81.83,-174 87.17,-174 92.5,-179.33 92.5,-184.67 92.5,-184.67 92.5,-195.33 92.5,-195.33 92.5,-200.67 87.17,-206 81.83,-206 81.83,-206 24.17,-206 24.17,-206 18.83,-206 13.5,-200.67 13.5,-195.33 13.5,-195.33 13.5,-184.67 13.5,-184.67 13.5,-179.33 18.83,-174 24.17,-174"/>
<text text-anchor="start" x="19" y="-186.3" font-family="Helvetica,sans-Serif" font-size="14.00">ImmLabel</text>
<path fill="none" stroke="black" d="M24.17,-174C24.17,-174 81.83,-174 81.83,-174 87.17,-174 92.5,-179.33 92.5,-184.67 92.5,-184.67 92.5,-195.33 92.5,-195.33 92.5,-200.67 87.17,-206 81.83,-206 81.83,-206 24.17,-206 24.17,-206 18.83,-206 13.5,-200.67 13.5,-195.33 13.5,-195.33 13.5,-184.67 13.5,-184.67 13.5,-179.33 18.83,-174 24.17,-174"/>
</a>
</g>
</g>
<!-- primitive&#45;String&#45;2 -->
<g id="node4" class="node">
<title>primitive&#45;String&#45;2</title>
<g id="a_node4"><a xlink:title="String&#45;2: primitive&#45;String&#45;2">
<path fill="white" stroke="transparent" d="M37.67,-95C37.67,-95 70.33,-95 70.33,-95 75.67,-95 81,-100.33 81,-105.67 81,-105.67 81,-116.33 81,-116.33 81,-121.67 75.67,-127 70.33,-127 70.33,-127 37.67,-127 37.67,-127 32.33,-127 27,-121.67 27,-116.33 27,-116.33 27,-105.67 27,-105.67 27,-100.33 32.33,-95 37.67,-95"/>
<text text-anchor="start" x="32" y="-107.3" font-family="Helvetica,sans-Serif" font-size="14.00">&quot;.L28&quot;</text>
<path fill="none" stroke="black" d="M37.67,-95C37.67,-95 70.33,-95 70.33,-95 75.67,-95 81,-100.33 81,-105.67 81,-105.67 81,-116.33 81,-116.33 81,-121.67 75.67,-127 70.33,-127 70.33,-127 37.67,-127 37.67,-127 32.33,-127 27,-121.67 27,-116.33 27,-116.33 27,-105.67 27,-105.67 27,-100.33 32.33,-95 37.67,-95"/>
</a>
</g>
</g>
<!-- function&#45;0&#45;Beq -->
<g id="node5" class="node">
<title>function&#45;0&#45;Beq</title>
<g id="a_node5"><a xlink:title="Inst&#45;5: function&#45;0&#45;Beq">
<path fill="white" stroke="transparent" d="M229.67,-253C229.67,-253 246.33,-253 246.33,-253 251.67,-253 257,-258.33 257,-263.67 257,-263.67 257,-274.33 257,-274.33 257,-279.67 251.67,-285 246.33,-285 246.33,-285 229.67,-285 229.67,-285 224.33,-285 219,-279.67 219,-274.33 219,-274.33 219,-263.67 219,-263.67 219,-258.33 224.33,-253 229.67,-253"/>
<text text-anchor="start" x="224" y="-265.3" font-family="Helvetica,sans-Serif" font-size="14.00">Beq</text>
<path fill="none" stroke="black" d="M229.67,-253C229.67,-253 246.33,-253 246.33,-253 251.67,-253 257,-258.33 257,-263.67 257,-263.67 257,-274.33 257,-274.33 257,-279.67 251.67,-285 246.33,-285 246.33,-285 229.67,-285 229.67,-285 224.33,-285 219,-279.67 219,-274.33 219,-274.33 219,-263.67 219,-263.67 219,-258.33 224.33,-253 229.67,-253"/>
</a>
</g>
</g>
<!-- function&#45;0&#45;RegVal -->
<g id="node6" class="node">
<title>function&#45;0&#45;RegVal</title>
<g id="a_node6"><a xlink:title="Inst&#45;0: function&#45;0&#45;RegVal">
<path fill="white" stroke="transparent" d="M171.17,-174C171.17,-174 206.83,-174 206.83,-174 212.17,-174 217.5,-179.33 217.5,-184.67 217.5,-184.67 217.5,-195.33 217.5,-195.33 217.5,-200.67 212.17,-206 206.83,-206 206.83,-206 171.17,-206 171.17,-206 165.83,-206 160.5,-200.67 160.5,-195.33 160.5,-195.33 160.5,-184.67 160.5,-184.67 160.5,-179.33 165.83,-174 171.17,-174"/>
<text text-anchor="start" x="166" y="-186.3" font-family="Helvetica,sans-Serif" font-size="14.00">RegVal</text>
<path fill="none" stroke="black" d="M171.17,-174C171.17,-174 206.83,-174 206.83,-174 212.17,-174 217.5,-179.33 217.5,-184.67 217.5,-184.67 217.5,-195.33 217.5,-195.33 217.5,-200.67 212.17,-206 206.83,-206 206.83,-206 171.17,-206 171.17,-206 165.83,-206 160.5,-200.67 160.5,-195.33 160.5,-195.33 160.5,-184.67 160.5,-184.67 160.5,-179.33 165.83,-174 171.17,-174"/>
</a>
</g>
</g>
<!-- function&#45;1&#45;RegVal -->
<g id="node7" class="node">
<title>function&#45;1&#45;RegVal</title>
<g id="a_node7"><a xlink:title="Inst&#45;1: function&#45;1&#45;RegVal">
<path fill="white" stroke="transparent" d="M422.17,-174C422.17,-174 457.83,-174 457.83,-174 463.17,-174 468.5,-179.33 468.5,-184.67 468.5,-184.67 468.5,-195.33 468.5,-195.33 468.5,-200.67 463.17,-206 457.83,-206 457.83,-206 422.17,-206 422.17,-206 416.83,-206 411.5,-200.67 411.5,-195.33 411.5,-195.33 411.5,-184.67 411.5,-184.67 411.5,-179.33 416.83,-174 422.17,-174"/>
<text text-anchor="start" x="417" y="-186.3" font-family="Helvetica,sans-Serif" font-size="14.00">RegVal</text>
<path fill="none" stroke="black" d="M422.17,-174C422.17,-174 457.83,-174 457.83,-174 463.17,-174 468.5,-179.33 468.5,-184.67 468.5,-184.67 468.5,-195.33 468.5,-195.33 468.5,-200.67 463.17,-206 457.83,-206 457.83,-206 422.17,-206 422.17,-206 416.83,-206 411.5,-200.67 411.5,-195.33 411.5,-195.33 411.5,-184.67 411.5,-184.67 411.5,-179.33 416.83,-174 422.17,-174"/>
</a>
</g>
</g>
<!-- function&#45;1&#45;Beq -->
<g id="node8" class="node">
<title>function&#45;1&#45;Beq</title>
<g id="a_node8"><a xlink:title="Inst&#45;5: function&#45;1&#45;Beq">
<path fill="white" stroke="transparent" d="M171.67,-253C171.67,-253 188.33,-253 188.33,-253 193.67,-253 199,-258.33 199,-263.67 199,-263.67 199,-274.33 199,-274.33 199,-279.67 193.67,-285 188.33,-285 188.33,-285 171.67,-285 171.67,-285 166.33,-285 161,-279.67 161,-274.33 161,-274.33 161,-263.67 161,-263.67 161,-258.33 166.33,-253 171.67,-253"/>
<text text-anchor="start" x="166" y="-265.3" font-family="Helvetica,sans-Serif" font-size="14.00">Beq</text>
<path fill="none" stroke="black" d="M171.67,-253C171.67,-253 188.33,-253 188.33,-253 193.67,-253 199,-258.33 199,-263.67 199,-263.67 199,-274.33 199,-274.33 199,-279.67 193.67,-285 188.33,-285 188.33,-285 171.67,-285 171.67,-285 166.33,-285 161,-279.67 161,-274.33 161,-274.33 161,-263.67 161,-263.67 161,-258.33 166.33,-253 171.67,-253"/>
</a>
</g>
</g>
<!-- function&#45;1&#45;Seq2 -->
<g id="node9" class="node">
<title>function&#45;1&#45;Seq2</title>
<g id="a_node9"><a xlink:title="Inst&#45;5: function&#45;1&#45;Seq2">
<path fill="white" stroke="transparent" d="M283.67,-253C283.67,-253 308.33,-253 308.33,-253 313.67,-253 319,-258.33 319,-263.67 319,-263.67 319,-274.33 319,-274.33 319,-279.67 313.67,-285 308.33,-285 308.33,-285 283.67,-285 283.67,-285 278.33,-285 273,-279.67 273,-274.33 273,-274.33 273,-263.67 273,-263.67 273,-258.33 278.33,-253 283.67,-253"/>
<text text-anchor="start" x="278" y="-265.3" font-family="Helvetica,sans-Serif" font-size="14.00">Seq2</text>
<path fill="none" stroke="black" d="M283.67,-253C283.67,-253 308.33,-253 308.33,-253 313.67,-253 319,-258.33 319,-263.67 319,-263.67 319,-274.33 319,-274.33 319,-279.67 313.67,-285 308.33,-285 308.33,-285 283.67,-285 283.67,-285 278.33,-285 273,-279.67 273,-274.33 273,-274.33 273,-263.67 273,-263.67 273,-258.33 278.33,-253 283.67,-253"/>
</a>
</g>
</g>
<!-- function&#45;2&#45;Bne -->
<g id="node10" class="node">
<title>function&#45;2&#45;Bne</title>
<g id="a_node10"><a xlink:title="Inst&#45;7: function&#45;2&#45;Bne">
<path fill="white" stroke="transparent" d="M469.67,-253C469.67,-253 486.33,-253 486.33,-253 491.67,-253 497,-258.33 497,-263.67 497,-263.67 497,-274.33 497,-274.33 497,-279.67 491.67,-285 486.33,-285 486.33,-285 469.67,-285 469.67,-285 464.33,-285 459,-279.67 459,-274.33 459,-274.33 459,-263.67 459,-263.67 459,-258.33 464.33,-253 469.67,-253"/>
<text text-anchor="start" x="464" y="-265.3" font-family="Helvetica,sans-Serif" font-size="14.00">Bne</text>
<path fill="none" stroke="black" d="M469.67,-253C469.67,-253 486.33,-253 486.33,-253 491.67,-253 497,-258.33 497,-263.67 497,-263.67 497,-274.33 497,-274.33 497,-279.67 491.67,-285 486.33,-285 486.33,-285 469.67,-285 469.67,-285 464.33,-285 459,-279.67 459,-274.33 459,-274.33 459,-263.67 459,-263.67 459,-258.33 464.33,-253 469.67,-253"/>
</a>
</g>
</g>
<!-- function&#45;1&#45;Jal -->
<g id="node11" class="node">
<title>function&#45;1&#45;Jal</title>
<g id="a_node11"><a xlink:title="Inst&#45;8: function&#45;1&#45;Jal">
<path fill="white" stroke="transparent" d="M317.67,-174C317.67,-174 328.33,-174 328.33,-174 333.67,-174 339,-179.33 339,-184.67 339,-184.67 339,-195.33 339,-195.33 339,-200.67 333.67,-206 328.33,-206 328.33,-206 317.67,-206 317.67,-206 312.33,-206 307,-200.67 307,-195.33 307,-195.33 307,-184.67 307,-184.67 307,-179.33 312.33,-174 317.67,-174"/>
<text text-anchor="start" x="314.5" y="-186.3" font-family="Helvetica,sans-Serif" font-size="14.00">Jal</text>
<path fill="none" stroke="black" d="M317.67,-174C317.67,-174 328.33,-174 328.33,-174 333.67,-174 339,-179.33 339,-184.67 339,-184.67 339,-195.33 339,-195.33 339,-200.67 333.67,-206 328.33,-206 328.33,-206 317.67,-206 317.67,-206 312.33,-206 307,-200.67 307,-195.33 307,-195.33 307,-184.67 307,-184.67 307,-179.33 312.33,-174 317.67,-174"/>
</a>
</g>
</g>
<!-- function&#45;0&#45;Jal -->
<g id="node12" class="node">
<title>function&#45;0&#45;Jal</title>
<g id="a_node12"><a xlink:title="Inst&#45;6: function&#45;0&#45;Jal">
<path fill="white" stroke="transparent" d="M86.67,-253C86.67,-253 97.33,-253 97.33,-253 102.67,-253 108,-258.33 108,-263.67 108,-263.67 108,-274.33 108,-274.33 108,-279.67 102.67,-285 97.33,-285 97.33,-285 86.67,-285 86.67,-285 81.33,-285 76,-279.67 76,-274.33 76,-274.33 76,-263.67 76,-263.67 76,-258.33 81.33,-253 86.67,-253"/>
<text text-anchor="start" x="83.5" y="-265.3" font-family="Helvetica,sans-Serif" font-size="14.00">Jal</text>
<path fill="none" stroke="black" d="M86.67,-253C86.67,-253 97.33,-253 97.33,-253 102.67,-253 108,-258.33 108,-263.67 108,-263.67 108,-274.33 108,-274.33 108,-279.67 102.67,-285 97.33,-285 97.33,-285 86.67,-285 86.67,-285 81.33,-285 76,-279.67 76,-274.33 76,-274.33 76,-263.67 76,-263.67 76,-258.33 81.33,-253 86.67,-253"/>
</a>
</g>
</g>
<!-- function&#45;3&#45;Bne -->
<g id="node13" class="node">
<title>function&#45;3&#45;Bne</title>
<g id="a_node13"><a xlink:title="Inst&#45;7: function&#45;3&#45;Bne">
<path fill="white" stroke="transparent" d="M411.67,-253C411.67,-253 428.33,-253 428.33,-253 433.67,-253 439,-258.33 439,-263.67 439,-263.67 439,-274.33 439,-274.33 439,-279.67 433.67,-285 428.33,-285 428.33,-285 411.67,-285 411.67,-285 406.33,-285 401,-279.67 401,-274.33 401,-274.33 401,-263.67 401,-263.67 401,-258.33 406.33,-253 411.67,-253"/>
<text text-anchor="start" x="406" y="-265.3" font-family="Helvetica,sans-Serif" font-size="14.00">Bne</text>
<path fill="none" stroke="black" d="M411.67,-253C411.67,-253 428.33,-253 428.33,-253 433.67,-253 439,-258.33 439,-263.67 439,-263.67 439,-274.33 439,-274.33 439,-279.67 433.67,-285 428.33,-285 428.33,-285 411.67,-285 411.67,-285 406.33,-285 401,-279.67 401,-274.33 401,-274.33 401,-263.67 401,-263.67 401,-258.33 406.33,-253 411.67,-253"/>
</a>
</g>
</g>
<!-- function&#45;2&#45;Seq2 -->
<g id="node14" class="node">
<title>function&#45;2&#45;Seq2</title>
<g id="a_node14"><a xlink:title="Inst&#45;7: function&#45;2&#45;Seq2">
<path fill="white" stroke="transparent" d="M349.67,-253C349.67,-253 374.33,-253 374.33,-253 379.67,-253 385,-258.33 385,-263.67 385,-263.67 385,-274.33 385,-274.33 385,-279.67 379.67,-285 374.33,-285 374.33,-285 349.67,-285 349.67,-285 344.33,-285 339,-279.67 339,-274.33 339,-274.33 339,-263.67 339,-263.67 339,-258.33 344.33,-253 349.67,-253"/>
<text text-anchor="start" x="344" y="-265.3" font-family="Helvetica,sans-Serif" font-size="14.00">Seq2</text>
<path fill="none" stroke="black" d="M349.67,-253C349.67,-253 374.33,-253 374.33,-253 379.67,-253 385,-258.33 385,-263.67 385,-263.67 385,-274.33 385,-274.33 385,-279.67 379.67,-285 374.33,-285 374.33,-285 349.67,-285 349.67,-285 344.33,-285 339,-279.67 339,-274.33 339,-274.33 339,-263.67 339,-263.67 339,-258.33 344.33,-253 349.67,-253"/>
</a>
</g>
</g>
<!-- primitive&#45;String&#45;0 -->
<g id="node15" class="node">
<title>primitive&#45;String&#45;0</title>
<g id="a_node15"><a xlink:title="String&#45;0: primitive&#45;String&#45;0">
<path fill="white" stroke="transparent" d="M173.67,-95C173.67,-95 206.33,-95 206.33,-95 211.67,-95 217,-100.33 217,-105.67 217,-105.67 217,-116.33 217,-116.33 217,-121.67 211.67,-127 206.33,-127 206.33,-127 173.67,-127 173.67,-127 168.33,-127 163,-121.67 163,-116.33 163,-116.33 163,-105.67 163,-105.67 163,-100.33 168.33,-95 173.67,-95"/>
<text text-anchor="start" x="168" y="-107.3" font-family="Helvetica,sans-Serif" font-size="14.00">&quot;t0_0&quot;</text>
<path fill="none" stroke="black" d="M173.67,-95C173.67,-95 206.33,-95 206.33,-95 211.67,-95 217,-100.33 217,-105.67 217,-105.67 217,-116.33 217,-116.33 217,-121.67 211.67,-127 206.33,-127 206.33,-127 173.67,-127 173.67,-127 168.33,-127 163,-121.67 163,-116.33 163,-116.33 163,-105.67 163,-105.67 163,-100.33 168.33,-95 173.67,-95"/>
</a>
</g>
</g>
<!-- primitive&#45;String&#45;1 -->
<g id="node16" class="node">
<title>primitive&#45;String&#45;1</title>
<g id="a_node16"><a xlink:title="String&#45;1: primitive&#45;String&#45;1">
<path fill="white" stroke="transparent" d="M417.17,-95C417.17,-95 464.83,-95 464.83,-95 470.17,-95 475.5,-100.33 475.5,-105.67 475.5,-105.67 475.5,-116.33 475.5,-116.33 475.5,-121.67 470.17,-127 464.83,-127 464.83,-127 417.17,-127 417.17,-127 411.83,-127 406.5,-121.67 406.5,-116.33 406.5,-116.33 406.5,-105.67 406.5,-105.67 406.5,-100.33 411.83,-95 417.17,-95"/>
<text text-anchor="start" x="412" y="-107.3" font-family="Helvetica,sans-Serif" font-size="14.00">&quot;zero_0&quot;</text>
<path fill="none" stroke="black" d="M417.17,-95C417.17,-95 464.83,-95 464.83,-95 470.17,-95 475.5,-100.33 475.5,-105.67 475.5,-105.67 475.5,-116.33 475.5,-116.33 475.5,-121.67 470.17,-127 464.83,-127 464.83,-127 417.17,-127 417.17,-127 411.83,-127 406.5,-121.67 406.5,-116.33 406.5,-116.33 406.5,-105.67 406.5,-105.67 406.5,-100.33 411.83,-95 417.17,-95"/>
</a>
</g>
</g>
<!-- function&#45;0&#45;Bne -->
<g id="node17" class="node">
<title>function&#45;0&#45;Bne</title>
<g id="a_node17"><a xlink:title="Inst&#45;3: function&#45;0&#45;Bne">
<path fill="white" stroke="transparent" d="M130.67,-332C130.67,-332 147.33,-332 147.33,-332 152.67,-332 158,-337.33 158,-342.67 158,-342.67 158,-353.33 158,-353.33 158,-358.67 152.67,-364 147.33,-364 147.33,-364 130.67,-364 130.67,-364 125.33,-364 120,-358.67 120,-353.33 120,-353.33 120,-342.67 120,-342.67 120,-337.33 125.33,-332 130.67,-332"/>
<text text-anchor="start" x="125" y="-344.3" font-family="Helvetica,sans-Serif" font-size="14.00">Bne</text>
<path fill="none" stroke="black" d="M130.67,-332C130.67,-332 147.33,-332 147.33,-332 152.67,-332 158,-337.33 158,-342.67 158,-342.67 158,-353.33 158,-353.33 158,-358.67 152.67,-364 147.33,-364 147.33,-364 130.67,-364 130.67,-364 125.33,-364 120,-358.67 120,-353.33 120,-353.33 120,-342.67 120,-342.67 120,-337.33 125.33,-332 130.67,-332"/>
</a>
</g>
</g>
<!-- function&#45;1&#45;Bne -->
<g id="node18" class="node">
<title>function&#45;1&#45;Bne</title>
<g id="a_node18"><a xlink:title="Inst&#45;3: function&#45;1&#45;Bne">
<path fill="white" stroke="transparent" d="M188.67,-332C188.67,-332 205.33,-332 205.33,-332 210.67,-332 216,-337.33 216,-342.67 216,-342.67 216,-353.33 216,-353.33 216,-358.67 210.67,-364 205.33,-364 205.33,-364 188.67,-364 188.67,-364 183.33,-364 178,-358.67 178,-353.33 178,-353.33 178,-342.67 178,-342.67 178,-337.33 183.33,-332 188.67,-332"/>
<text text-anchor="start" x="183" y="-344.3" font-family="Helvetica,sans-Serif" font-size="14.00">Bne</text>
<path fill="none" stroke="black" d="M188.67,-332C188.67,-332 205.33,-332 205.33,-332 210.67,-332 216,-337.33 216,-342.67 216,-342.67 216,-353.33 216,-353.33 216,-358.67 210.67,-364 205.33,-364 205.33,-364 188.67,-364 188.67,-364 183.33,-364 178,-358.67 178,-353.33 178,-353.33 178,-342.67 178,-342.67 178,-337.33 183.33,-332 188.67,-332"/>
</a>
</g>
</g>
<!-- function&#45;0&#45;Seq2 -->
<g id="node19" class="node">
<title>function&#45;0&#45;Seq2</title>
<g id="a_node19"><a xlink:title="Inst&#45;3: function&#45;0&#45;Seq2">
<path fill="white" stroke="transparent" d="M68.67,-332C68.67,-332 93.33,-332 93.33,-332 98.67,-332 104,-337.33 104,-342.67 104,-342.67 104,-353.33 104,-353.33 104,-358.67 98.67,-364 93.33,-364 93.33,-364 68.67,-364 68.67,-364 63.33,-364 58,-358.67 58,-353.33 58,-353.33 58,-342.67 58,-342.67 58,-337.33 63.33,-332 68.67,-332"/>
<text text-anchor="start" x="63" y="-344.3" font-family="Helvetica,sans-Serif" font-size="14.00">Seq2</text>
<path fill="none" stroke="black" d="M68.67,-332C68.67,-332 93.33,-332 93.33,-332 98.67,-332 104,-337.33 104,-342.67 104,-342.67 104,-353.33 104,-353.33 104,-358.67 98.67,-364 93.33,-364 93.33,-364 68.67,-364 68.67,-364 63.33,-364 58,-358.67 58,-353.33 58,-353.33 58,-342.67 58,-342.67 58,-337.33 63.33,-332 68.67,-332"/>
</a>
</g>
</g>
</g>
</svg>
