<?xml version="1.0" encoding="UTF-8" standalone="no"?>
<!DOCTYPE svg PUBLIC "-//W3C//DTD SVG 1.1//EN"
 "http://www.w3.org/Graphics/SVG/1.1/DTD/svg11.dtd">
<!-- Generated by graphviz version 2.43.0 (0)
 -->
<!-- Title: %3 Pages: 1 -->
<svg width="640pt" height="230pt"
 viewBox="0.00 0.00 640.00 230.00" xmlns="http://www.w3.org/2000/svg" xmlns:xlink="http://www.w3.org/1999/xlink">
<g id="graph0" class="graph" transform="scale(1 1) rotate(0) translate(4 226)">
<title>%3</title>
<polygon fill="white" stroke="#000000" points="-4,4 -4,-226 636,-226 636,4 -4,4"/>
<g id="clust1" class="cluster">
<title>outer_cluster_Imm&#45;11</title>
</g>
<g id="clust2" class="cluster">
<title>cluster_Imm&#45;11</title>
<path fill="#ffffb3" stroke="black" stroke-dasharray="5,2" d="M38,-90C38,-90 98,-90 98,-90 104,-90 110,-96 110,-102 110,-102 110,-120 110,-120 110,-126 104,-132 98,-132 98,-132 38,-132 38,-132 32,-132 26,-126 26,-120 26,-120 26,-102 26,-102 26,-96 32,-90 38,-90"/>
</g>
<g id="clust4" class="cluster">
<title>outer_cluster_Imm&#45;7</title>
</g>
<g id="clust5" class="cluster">
<title>cluster_Imm&#45;7</title>
<path fill="#ffffb3" stroke="black" stroke-dasharray="5,2" d="M273,-90C273,-90 317,-90 317,-90 323,-90 329,-96 329,-102 329,-102 329,-120 329,-120 329,-126 323,-132 317,-132 317,-132 273,-132 273,-132 267,-132 261,-126 261,-120 261,-120 261,-102 261,-102 261,-96 267,-90 273,-90"/>
</g>
<g id="clust7" class="cluster">
<title>outer_cluster_Imm&#45;5</title>
</g>
<g id="clust8" class="cluster">
<title>cluster_Imm&#45;5</title>
<path fill="#ffffb3" stroke="black" stroke-dasharray="5,2" d="M491,-90C491,-90 535,-90 535,-90 541,-90 547,-96 547,-102 547,-102 547,-120 547,-120 547,-126 541,-132 535,-132 535,-132 491,-132 491,-132 485,-132 479,-126 479,-120 479,-120 479,-102 479,-102 479,-96 485,-90 491,-90"/>
</g>
<g id="clust10" class="cluster">
<title>outer_cluster_Imm&#45;9</title>
</g>
<g id="clust11" class="cluster">
<title>cluster_Imm&#45;9</title>
<path fill="#ffffb3" stroke="black" stroke-dasharray="5,2" d="M565,-90C565,-90 609,-90 609,-90 615,-90 621,-96 621,-102 621,-102 621,-120 621,-120 621,-126 615,-132 609,-132 609,-132 565,-132 565,-132 559,-132 553,-126 553,-120 553,-120 553,-102 553,-102 553,-96 559,-90 565,-90"/>
</g>
<g id="clust13" class="cluster">
<title>outer_cluster_Imm&#45;3</title>
</g>
<g id="clust14" class="cluster">
<title>cluster_Imm&#45;3</title>
<path fill="#ffffb3" stroke="black" stroke-dasharray="5,2" d="M347,-90C347,-90 391,-90 391,-90 397,-90 403,-96 403,-102 403,-102 403,-120 403,-120 403,-126 397,-132 391,-132 391,-132 347,-132 347,-132 341,-132 335,-126 335,-120 335,-120 335,-102 335,-102 335,-96 341,-90 347,-90"/>
</g>
<g id="clust16" class="cluster">
<title>outer_cluster_Inst&#45;1</title>
</g>
<g id="clust17" class="cluster">
<title>cluster_Inst&#45;1</title>
<path fill="#bebada" stroke="black" stroke-dasharray="5,2" d="M133,-90C133,-90 173,-90 173,-90 179,-90 185,-96 185,-102 185,-102 185,-120 185,-120 185,-126 179,-132 173,-132 173,-132 133,-132 133,-132 127,-132 121,-126 121,-120 121,-120 121,-102 121,-102 121,-96 127,-90 133,-90"/>
</g>
<g id="clust19" class="cluster">
<title>outer_cluster_Inst&#45;8</title>
</g>
<g id="clust20" class="cluster">
<title>cluster_Inst&#45;8</title>
<path fill="#bebada" stroke="black" stroke-dasharray="5,2" d="M282,-169C282,-169 318,-169 318,-169 324,-169 330,-175 330,-181 330,-181 330,-199 330,-199 330,-205 324,-211 318,-211 318,-211 282,-211 282,-211 276,-211 270,-205 270,-199 270,-199 270,-181 270,-181 270,-175 276,-169 282,-169"/>
</g>
<g id="clust22" class="cluster">
<title>outer_cluster_Inst&#45;2</title>
</g>
<g id="clust23" class="cluster">
<title>cluster_Inst&#45;2</title>
<path fill="#bebada" stroke="black" stroke-dasharray="5,2" d="M421,-90C421,-90 461,-90 461,-90 467,-90 473,-96 473,-102 473,-102 473,-120 473,-120 473,-126 467,-132 461,-132 461,-132 421,-132 421,-132 415,-132 409,-126 409,-120 409,-120 409,-102 409,-102 409,-96 415,-90 421,-90"/>
</g>
<g id="clust25" class="cluster">
<title>outer_cluster_Inst&#45;4</title>
</g>
<g id="clust26" class="cluster">
<title>cluster_Inst&#45;4</title>
<path fill="#bebada" stroke="black" stroke-dasharray="5,2" d="M362,-169C362,-169 398,-169 398,-169 404,-169 410,-175 410,-181 410,-181 410,-199 410,-199 410,-205 404,-211 398,-211 398,-211 362,-211 362,-211 356,-211 350,-205 350,-199 350,-199 350,-181 350,-181 350,-175 356,-169 362,-169"/>
</g>
<g id="clust28" class="cluster">
<title>outer_cluster_Inst&#45;0</title>
</g>
<g id="clust29" class="cluster">
<title>cluster_Inst&#45;0</title>
<path fill="#bebada" stroke="black" stroke-dasharray="5,2" d="M203,-90C203,-90 243,-90 243,-90 249,-90 255,-96 255,-102 255,-102 255,-120 255,-120 255,-126 249,-132 243,-132 243,-132 203,-132 203,-132 197,-132 191,-126 191,-120 191,-120 191,-102 191,-102 191,-96 197,-90 203,-90"/>
</g>
<g id="clust31" class="cluster">
<title>outer_cluster_Inst&#45;6</title>
</g>
<g id="clust32" class="cluster">
<title>cluster_Inst&#45;6</title>
<path fill="#bebada" stroke="black" stroke-dasharray="5,2" d="M447,-169C447,-169 483,-169 483,-169 489,-169 495,-175 495,-181 495,-181 495,-199 495,-199 495,-205 489,-211 483,-211 483,-211 447,-211 447,-211 441,-211 435,-205 435,-199 435,-199 435,-181 435,-181 435,-175 441,-169 447,-169"/>
</g>
<g id="clust34" class="cluster">
<title>outer_cluster_Inst&#45;10</title>
</g>
<g id="clust35" class="cluster">
<title>cluster_Inst&#45;10</title>
<path fill="#bebada" stroke="black" stroke-dasharray="5,2" d="M545,-169C545,-169 581,-169 581,-169 587,-169 593,-175 593,-181 593,-181 593,-199 593,-199 593,-205 587,-211 581,-211 581,-211 545,-211 545,-211 539,-211 533,-205 533,-199 533,-199 533,-181 533,-181 533,-175 539,-169 545,-169"/>
</g>
<g id="clust37" class="cluster">
<title>outer_cluster_Inst&#45;12</title>
</g>
<g id="clust38" class="cluster">
<title>cluster_Inst&#45;12</title>
<path fill="#bebada" stroke="black" stroke-dasharray="5,2" d="M143,-169C143,-169 179,-169 179,-169 185,-169 191,-175 191,-181 191,-181 191,-199 191,-199 191,-205 185,-211 179,-211 179,-211 143,-211 143,-211 137,-211 131,-205 131,-199 131,-199 131,-181 131,-181 131,-175 137,-169 143,-169"/>
</g>
<g id="clust40" class="cluster">
<title>outer_cluster_String&#45;3</title>
</g>
<g id="clust41" class="cluster">
<title>cluster_String&#45;3</title>
<path fill="#fb8072" stroke="black" stroke-dasharray="5,2" d="M23,-11C23,-11 107,-11 107,-11 113,-11 119,-17 119,-23 119,-23 119,-41 119,-41 119,-47 113,-53 107,-53 107,-53 23,-53 23,-53 17,-53 11,-47 11,-41 11,-41 11,-23 11,-23 11,-17 17,-11 23,-11"/>
</g>
<g id="clust43" class="cluster">
<title>outer_cluster_String&#45;0</title>
</g>
<g id="clust44" class="cluster">
<title>cluster_String&#45;0</title>
<path fill="#fb8072" stroke="black" stroke-dasharray="5,2" d="M204,-11C204,-11 244,-11 244,-11 250,-11 256,-17 256,-23 256,-23 256,-41 256,-41 256,-47 250,-53 244,-53 244,-53 204,-53 204,-53 198,-53 192,-47 192,-41 192,-41 192,-23 192,-23 192,-17 198,-11 204,-11"/>
</g>
<g id="clust46" class="cluster">
<title>outer_cluster_String&#45;2</title>
</g>
<g id="clust47" class="cluster">
<title>cluster_String&#45;2</title>
<path fill="#fb8072" stroke="black" stroke-dasharray="5,2" d="M423,-11C423,-11 461,-11 461,-11 467,-11 473,-17 473,-23 473,-23 473,-41 473,-41 473,-47 467,-53 461,-53 461,-53 423,-53 423,-53 417,-53 411,-47 411,-41 411,-41 411,-23 411,-23 411,-17 417,-11 423,-11"/>
</g>
<g id="clust49" class="cluster">
<title>outer_cluster_String&#45;1</title>
</g>
<g id="clust50" class="cluster">
<title>cluster_String&#45;1</title>
<path fill="#fb8072" stroke="black" stroke-dasharray="5,2" d="M137,-11C137,-11 173,-11 173,-11 179,-11 185,-17 185,-23 185,-23 185,-41 185,-41 185,-47 179,-53 173,-53 173,-53 137,-53 137,-53 131,-53 125,-47 125,-41 125,-41 125,-23 125,-23 125,-17 131,-11 137,-11"/>
</g>
<g id="clust52" class="cluster">
<title>outer_cluster_i64&#45;32</title>
</g>
<g id="clust53" class="cluster">
<title>cluster_i64&#45;32</title>
<path fill="#80b1d3" stroke="black" stroke-dasharray="5,2" d="M277,-11C277,-11 313,-11 313,-11 319,-11 325,-17 325,-23 325,-23 325,-41 325,-41 325,-47 319,-53 313,-53 313,-53 277,-53 277,-53 271,-53 265,-47 265,-41 265,-41 265,-23 265,-23 265,-17 271,-11 277,-11"/>
</g>
<g id="clust55" class="cluster">
<title>outer_cluster_i64&#45;28</title>
</g>
<g id="clust56" class="cluster">
<title>cluster_i64&#45;28</title>
<path fill="#80b1d3" stroke="black" stroke-dasharray="5,2" d="M569,-11C569,-11 605,-11 605,-11 611,-11 617,-17 617,-23 617,-23 617,-41 617,-41 617,-47 611,-53 605,-53 605,-53 569,-53 569,-53 563,-53 557,-47 557,-41 557,-41 557,-23 557,-23 557,-17 563,-11 569,-11"/>
</g>
<g id="clust58" class="cluster">
<title>outer_cluster_i64&#45;48</title>
</g>
<g id="clust59" class="cluster">
<title>cluster_i64&#45;48</title>
<path fill="#80b1d3" stroke="black" stroke-dasharray="5,2" d="M351,-11C351,-11 387,-11 387,-11 393,-11 399,-17 399,-23 399,-23 399,-41 399,-41 399,-47 393,-53 387,-53 387,-53 351,-53 351,-53 345,-53 339,-47 339,-41 339,-41 339,-23 339,-23 339,-17 345,-11 351,-11"/>
</g>
<g id="clust61" class="cluster">
<title>outer_cluster_i64&#45;44</title>
</g>
<g id="clust62" class="cluster">
<title>cluster_i64&#45;44</title>
<path fill="#80b1d3" stroke="black" stroke-dasharray="5,2" d="M495,-11C495,-11 531,-11 531,-11 537,-11 543,-17 543,-23 543,-23 543,-41 543,-41 543,-47 537,-53 531,-53 531,-53 495,-53 495,-53 489,-53 483,-47 483,-41 483,-41 483,-23 483,-23 483,-17 489,-11 495,-11"/>
</g>
<!-- function&#45;0&#45;ImmLabel&#45;&gt;primitive&#45;String&#45;3 -->
<g id="edge1" class="edge">
<title>function&#45;0&#45;ImmLabel:s&#45;&gt;primitive&#45;String&#45;3</title>
<path fill="none" stroke="black" d="M69,-95C69,-81.81 68.09,-67.08 67.13,-55.28"/>
<polygon fill="black" stroke="black" points="69.36,-57.58 66.7,-53 65.92,-58.24 69.36,-57.58"/>
</g>
<!-- function&#45;2&#45;ImmVal&#45;&gt;primitive&#45;i64&#45;32 -->
<g id="edge2" class="edge">
<title>function&#45;2&#45;ImmVal:s&#45;&gt;primitive&#45;i64&#45;32</title>
<path fill="none" stroke="black" d="M295,-95C295,-81.84 295,-67.11 295,-55.3"/>
<polygon fill="black" stroke="black" points="296.75,-58 295,-53 293.25,-58 296.75,-58"/>
</g>
<!-- function&#45;1&#45;ImmVal&#45;&gt;primitive&#45;i64&#45;44 -->
<g id="edge3" class="edge">
<title>function&#45;1&#45;ImmVal:s&#45;&gt;primitive&#45;i64&#45;44</title>
<path fill="none" stroke="black" d="M513,-95C513,-81.84 513,-67.11 513,-55.3"/>
<polygon fill="black" stroke="black" points="514.75,-58 513,-53 511.25,-58 514.75,-58"/>
</g>
<!-- function&#45;3&#45;ImmVal&#45;&gt;primitive&#45;i64&#45;28 -->
<g id="edge4" class="edge">
<title>function&#45;3&#45;ImmVal:s&#45;&gt;primitive&#45;i64&#45;28</title>
<path fill="none" stroke="black" d="M587,-95C587,-81.84 587,-67.11 587,-55.3"/>
<polygon fill="black" stroke="black" points="588.75,-58 587,-53 585.25,-58 588.75,-58"/>
</g>
<!-- function&#45;0&#45;ImmVal&#45;&gt;primitive&#45;i64&#45;48 -->
<g id="edge5" class="edge">
<title>function&#45;0&#45;ImmVal:s&#45;&gt;primitive&#45;i64&#45;48</title>
<path fill="none" stroke="black" d="M369,-95C369,-81.84 369,-67.11 369,-55.3"/>
<polygon fill="black" stroke="black" points="370.75,-58 369,-53 367.25,-58 370.75,-58"/>
</g>
<!-- function&#45;1&#45;RegVal&#45;&gt;primitive&#45;String&#45;1 -->
<g id="edge6" class="edge">
<title>function&#45;1&#45;RegVal:s&#45;&gt;primitive&#45;String&#45;1</title>
<path fill="none" stroke="black" d="M154,-95C154,-81.84 154.23,-67.1 154.47,-55.3"/>
<polygon fill="black" stroke="black" points="156.09,-58.08 154.58,-53 152.59,-57.91 156.09,-58.08"/>
</g>
<!-- function&#45;2&#45;Lw&#45;&gt;function&#45;2&#45;ImmVal -->
<g id="edge8" class="edge">
<title>function&#45;2&#45;Lw:s&#45;&gt;function&#45;2&#45;ImmVal</title>
<path fill="none" stroke="black" d="M308,-174C308,-160.53 305.02,-145.75 301.92,-134.01"/>
<polygon fill="black" stroke="black" points="304.81,-135.2 300.59,-132 301.89,-137.13 304.81,-135.2"/>
</g>
<!-- function&#45;2&#45;Lw&#45;&gt;function&#45;2&#45;RegVal -->
<g id="edge7" class="edge">
<title>function&#45;2&#45;Lw:s&#45;&gt;function&#45;2&#45;RegVal</title>
<path fill="none" stroke="black" d="M292,-174C292,-121.29 356.44,-157.72 404,-135 404.37,-134.83 404.73,-134.65 405.1,-134.47"/>
<polygon fill="black" stroke="black" points="406.26,-135.84 409.9,-132 404.65,-132.73 406.26,-135.84"/>
</g>
<!-- function&#45;2&#45;RegVal&#45;&gt;primitive&#45;String&#45;2 -->
<g id="edge9" class="edge">
<title>function&#45;2&#45;RegVal:s&#45;&gt;primitive&#45;String&#45;2</title>
<path fill="none" stroke="black" d="M442,-95C442,-81.84 442,-67.11 442,-55.3"/>
<polygon fill="black" stroke="black" points="443.75,-58 442,-53 440.25,-58 443.75,-58"/>
</g>
<!-- function&#45;0&#45;Lw&#45;&gt;function&#45;0&#45;ImmVal -->
<g id="edge11" class="edge">
<title>function&#45;0&#45;Lw:s&#45;&gt;function&#45;0&#45;ImmVal</title>
<path fill="none" stroke="black" d="M388,-174C388,-160.31 383.71,-145.63 379.21,-134"/>
<polygon fill="black" stroke="black" points="381.98,-135.79 378.28,-132 378.81,-137.27 381.98,-135.79"/>
</g>
<!-- function&#45;0&#45;Lw&#45;&gt;function&#45;2&#45;RegVal -->
<g id="edge10" class="edge">
<title>function&#45;0&#45;Lw:s&#45;&gt;function&#45;2&#45;RegVal</title>
<path fill="none" stroke="black" d="M372,-174C372,-162.85 392.2,-145.61 410.75,-132.14"/>
<polygon fill="black" stroke="black" points="407.16,-134.33 411.91,-132 406.74,-130.85 407.16,-134.33"/>
</g>
<!-- function&#45;0&#45;RegVal&#45;&gt;primitive&#45;String&#45;0 -->
<g id="edge12" class="edge">
<title>function&#45;0&#45;RegVal:s&#45;&gt;primitive&#45;String&#45;0</title>
<path fill="none" stroke="black" d="M224,-95C224,-81.84 224,-67.11 224,-55.3"/>
<polygon fill="black" stroke="black" points="225.75,-58 224,-53 222.25,-58 225.75,-58"/>
</g>
<!-- function&#45;1&#45;Lw&#45;&gt;function&#45;1&#45;ImmVal -->
<g id="edge14" class="edge">
<title>function&#45;1&#45;Lw:s&#45;&gt;function&#45;1&#45;ImmVal</title>
<path fill="none" stroke="black" d="M473,-174C473,-158.71 481.69,-144.2 490.97,-133.07"/>
<polygon fill="black" stroke="black" points="489.45,-136.4 492.41,-132 487.35,-133.6 489.45,-136.4"/>
</g>
<!-- function&#45;1&#45;Lw&#45;&gt;function&#45;2&#45;RegVal -->
<g id="edge13" class="edge">
<title>function&#45;1&#45;Lw:s&#45;&gt;function&#45;2&#45;RegVal</title>
<path fill="none" stroke="black" d="M457,-174C457,-160.38 453.34,-145.6 449.52,-133.89"/>
<polygon fill="black" stroke="black" points="452.48,-134.63 447.88,-132 449.83,-136.92 452.48,-134.63"/>
</g>
<!-- function&#45;3&#45;Lw&#45;&gt;function&#45;3&#45;ImmVal -->
<g id="edge16" class="edge">
<title>function&#45;3&#45;Lw:s&#45;&gt;function&#45;3&#45;ImmVal</title>
<path fill="none" stroke="black" d="M571,-174C571,-160.38 574.66,-145.6 578.48,-133.89"/>
<polygon fill="black" stroke="black" points="578.17,-136.92 580.12,-132 575.52,-134.63 578.17,-136.92"/>
</g>
<!-- function&#45;3&#45;Lw&#45;&gt;function&#45;2&#45;RegVal -->
<g id="edge15" class="edge">
<title>function&#45;3&#45;Lw:s&#45;&gt;function&#45;2&#45;RegVal</title>
<path fill="none" stroke="black" d="M555,-174C555,-135.64 511.43,-153.81 478,-135 477.79,-134.88 477.57,-134.76 477.35,-134.64"/>
<polygon fill="black" stroke="black" points="477.98,-132.98 472.77,-132 476.23,-136.01 477.98,-132.98"/>
</g>
<!-- function&#45;0&#45;Sw&#45;&gt;function&#45;0&#45;ImmLabel -->
<g id="edge19" class="edge">
<title>function&#45;0&#45;Sw:s&#45;&gt;function&#45;0&#45;ImmLabel</title>
<path fill="none" stroke="black" d="M172,-174C172,-166.68 141.17,-148.95 113.09,-134.32"/>
<polygon fill="black" stroke="black" points="113.85,-132.74 108.61,-132 112.24,-135.85 113.85,-132.74"/>
</g>
<!-- function&#45;0&#45;Sw&#45;&gt;function&#45;1&#45;RegVal -->
<g id="edge17" class="edge">
<title>function&#45;0&#45;Sw:s&#45;&gt;function&#45;1&#45;RegVal</title>
<path fill="none" stroke="black" d="M153,-174C153,-160.84 153,-146.11 153,-134.3"/>
<polygon fill="black" stroke="black" points="154.75,-137 153,-132 151.25,-137 154.75,-137"/>
</g>
<!-- function&#45;0&#45;Sw&#45;&gt;function&#45;0&#45;RegVal -->
<g id="edge18" class="edge">
<title>function&#45;0&#45;Sw:s&#45;&gt;function&#45;0&#45;RegVal</title>
<path fill="none" stroke="black" d="M165,-174C165,-156.77 177.1,-142.35 190.24,-131.76"/>
<polygon fill="black" stroke="black" points="189.72,-135.74 191,-130.6 186.8,-133.82 189.72,-135.74"/>
</g>
<!-- function&#45;0&#45;ImmLabel -->
<g id="node1" class="node">
<title>function&#45;0&#45;ImmLabel</title>
<g id="a_node1"><a xlink:title="Imm&#45;11: function&#45;0&#45;ImmLabel">
<path fill="white" stroke="transparent" d="M39.17,-95C39.17,-95 96.83,-95 96.83,-95 102.17,-95 107.5,-100.33 107.5,-105.67 107.5,-105.67 107.5,-116.33 107.5,-116.33 107.5,-121.67 102.17,-127 96.83,-127 96.83,-127 39.17,-127 39.17,-127 33.83,-127 28.5,-121.67 28.5,-116.33 28.5,-116.33 28.5,-105.67 28.5,-105.67 28.5,-100.33 33.83,-95 39.17,-95"/>
<text text-anchor="start" x="34" y="-107.3" font-family="Helvetica,sans-Serif" font-size="14.00">ImmLabel</text>
<path fill="none" stroke="black" d="M39.17,-95C39.17,-95 96.83,-95 96.83,-95 102.17,-95 107.5,-100.33 107.5,-105.67 107.5,-105.67 107.5,-116.33 107.5,-116.33 107.5,-121.67 102.17,-127 96.83,-127 96.83,-127 39.17,-127 39.17,-127 33.83,-127 28.5,-121.67 28.5,-116.33 28.5,-116.33 28.5,-105.67 28.5,-105.67 28.5,-100.33 33.83,-95 39.17,-95"/>
</a>
</g>
</g>
<!-- primitive&#45;String&#45;3 -->
<g id="node2" class="node">
<title>primitive&#45;String&#45;3</title>
<g id="a_node2"><a xlink:title="String&#45;3: primitive&#45;String&#45;3">
<path fill="white" stroke="transparent" d="M25.17,-16C25.17,-16 104.83,-16 104.83,-16 110.17,-16 115.5,-21.33 115.5,-26.67 115.5,-26.67 115.5,-37.33 115.5,-37.33 115.5,-42.67 110.17,-48 104.83,-48 104.83,-48 25.17,-48 25.17,-48 19.83,-48 14.5,-42.67 14.5,-37.33 14.5,-37.33 14.5,-26.67 14.5,-26.67 14.5,-21.33 19.83,-16 25.17,-16"/>
<text text-anchor="start" x="20" y="-28.3" font-family="Helvetica,sans-Serif" font-size="14.00">&quot;%lo(qRear)&quot;</text>
<path fill="none" stroke="black" d="M25.17,-16C25.17,-16 104.83,-16 104.83,-16 110.17,-16 115.5,-21.33 115.5,-26.67 115.5,-26.67 115.5,-37.33 115.5,-37.33 115.5,-42.67 110.17,-48 104.83,-48 104.83,-48 25.17,-48 25.17,-48 19.83,-48 14.5,-42.67 14.5,-37.33 14.5,-37.33 14.5,-26.67 14.5,-26.67 14.5,-21.33 19.83,-16 25.17,-16"/>
</a>
</g>
</g>
<!-- function&#45;2&#45;ImmVal -->
<g id="node3" class="node">
<title>function&#45;2&#45;ImmVal</title>
<g id="a_node3"><a xlink:title="Imm&#45;7: function&#45;2&#45;ImmVal">
<path fill="white" stroke="transparent" d="M274.67,-95C274.67,-95 315.33,-95 315.33,-95 320.67,-95 326,-100.33 326,-105.67 326,-105.67 326,-116.33 326,-116.33 326,-121.67 320.67,-127 315.33,-127 315.33,-127 274.67,-127 274.67,-127 269.33,-127 264,-121.67 264,-116.33 264,-116.33 264,-105.67 264,-105.67 264,-100.33 269.33,-95 274.67,-95"/>
<text text-anchor="start" x="269" y="-107.3" font-family="Helvetica,sans-Serif" font-size="14.00">ImmVal</text>
<path fill="none" stroke="black" d="M274.67,-95C274.67,-95 315.33,-95 315.33,-95 320.67,-95 326,-100.33 326,-105.67 326,-105.67 326,-116.33 326,-116.33 326,-121.67 320.67,-127 315.33,-127 315.33,-127 274.67,-127 274.67,-127 269.33,-127 264,-121.67 264,-116.33 264,-116.33 264,-105.67 264,-105.67 264,-100.33 269.33,-95 274.67,-95"/>
</a>
</g>
</g>
<!-- primitive&#45;i64&#45;32 -->
<g id="node4" class="node">
<title>primitive&#45;i64&#45;32</title>
<g id="a_node4"><a xlink:title="i64&#45;32: primitive&#45;i64&#45;32">
<path fill="white" stroke="transparent" d="M289.67,-16C289.67,-16 300.33,-16 300.33,-16 305.67,-16 311,-21.33 311,-26.67 311,-26.67 311,-37.33 311,-37.33 311,-42.67 305.67,-48 300.33,-48 300.33,-48 289.67,-48 289.67,-48 284.33,-48 279,-42.67 279,-37.33 279,-37.33 279,-26.67 279,-26.67 279,-21.33 284.33,-16 289.67,-16"/>
<text text-anchor="start" x="285.5" y="-28.3" font-family="Helvetica,sans-Serif" font-size="14.00">32</text>
<path fill="none" stroke="black" d="M289.67,-16C289.67,-16 300.33,-16 300.33,-16 305.67,-16 311,-21.33 311,-26.67 311,-26.67 311,-37.33 311,-37.33 311,-42.67 305.67,-48 300.33,-48 300.33,-48 289.67,-48 289.67,-48 284.33,-48 279,-42.67 279,-37.33 279,-37.33 279,-26.67 279,-26.67 279,-21.33 284.33,-16 289.67,-16"/>
</a>
</g>
</g>
<!-- function&#45;1&#45;ImmVal -->
<g id="node5" class="node">
<title>function&#45;1&#45;ImmVal</title>
<g id="a_node5"><a xlink:title="Imm&#45;5: function&#45;1&#45;ImmVal">
<path fill="white" stroke="transparent" d="M492.67,-95C492.67,-95 533.33,-95 533.33,-95 538.67,-95 544,-100.33 544,-105.67 544,-105.67 544,-116.33 544,-116.33 544,-121.67 538.67,-127 533.33,-127 533.33,-127 492.67,-127 492.67,-127 487.33,-127 482,-121.67 482,-116.33 482,-116.33 482,-105.67 482,-105.67 482,-100.33 487.33,-95 492.67,-95"/>
<text text-anchor="start" x="487" y="-107.3" font-family="Helvetica,sans-Serif" font-size="14.00">ImmVal</text>
<path fill="none" stroke="black" d="M492.67,-95C492.67,-95 533.33,-95 533.33,-95 538.67,-95 544,-100.33 544,-105.67 544,-105.67 544,-116.33 544,-116.33 544,-121.67 538.67,-127 533.33,-127 533.33,-127 492.67,-127 492.67,-127 487.33,-127 482,-121.67 482,-116.33 482,-116.33 482,-105.67 482,-105.67 482,-100.33 487.33,-95 492.67,-95"/>
</a>
</g>
</g>
<!-- primitive&#45;i64&#45;44 -->
<g id="node6" class="node">
<title>primitive&#45;i64&#45;44</title>
<g id="a_node6"><a xlink:title="i64&#45;44: primitive&#45;i64&#45;44">
<path fill="white" stroke="transparent" d="M507.67,-16C507.67,-16 518.33,-16 518.33,-16 523.67,-16 529,-21.33 529,-26.67 529,-26.67 529,-37.33 529,-37.33 529,-42.67 523.67,-48 518.33,-48 518.33,-48 507.67,-48 507.67,-48 502.33,-48 497,-42.67 497,-37.33 497,-37.33 497,-26.67 497,-26.67 497,-21.33 502.33,-16 507.67,-16"/>
<text text-anchor="start" x="503.5" y="-28.3" font-family="Helvetica,sans-Serif" font-size="14.00">44</text>
<path fill="none" stroke="black" d="M507.67,-16C507.67,-16 518.33,-16 518.33,-16 523.67,-16 529,-21.33 529,-26.67 529,-26.67 529,-37.33 529,-37.33 529,-42.67 523.67,-48 518.33,-48 518.33,-48 507.67,-48 507.67,-48 502.33,-48 497,-42.67 497,-37.33 497,-37.33 497,-26.67 497,-26.67 497,-21.33 502.33,-16 507.67,-16"/>
</a>
</g>
</g>
<!-- function&#45;3&#45;ImmVal -->
<g id="node7" class="node">
<title>function&#45;3&#45;ImmVal</title>
<g id="a_node7"><a xlink:title="Imm&#45;9: function&#45;3&#45;ImmVal">
<path fill="white" stroke="transparent" d="M566.67,-95C566.67,-95 607.33,-95 607.33,-95 612.67,-95 618,-100.33 618,-105.67 618,-105.67 618,-116.33 618,-116.33 618,-121.67 612.67,-127 607.33,-127 607.33,-127 566.67,-127 566.67,-127 561.33,-127 556,-121.67 556,-116.33 556,-116.33 556,-105.67 556,-105.67 556,-100.33 561.33,-95 566.67,-95"/>
<text text-anchor="start" x="561" y="-107.3" font-family="Helvetica,sans-Serif" font-size="14.00">ImmVal</text>
<path fill="none" stroke="black" d="M566.67,-95C566.67,-95 607.33,-95 607.33,-95 612.67,-95 618,-100.33 618,-105.67 618,-105.67 618,-116.33 618,-116.33 618,-121.67 612.67,-127 607.33,-127 607.33,-127 566.67,-127 566.67,-127 561.33,-127 556,-121.67 556,-116.33 556,-116.33 556,-105.67 556,-105.67 556,-100.33 561.33,-95 566.67,-95"/>
</a>
</g>
</g>
<!-- primitive&#45;i64&#45;28 -->
<g id="node8" class="node">
<title>primitive&#45;i64&#45;28</title>
<g id="a_node8"><a xlink:title="i64&#45;28: primitive&#45;i64&#45;28">
<path fill="white" stroke="transparent" d="M581.67,-16C581.67,-16 592.33,-16 592.33,-16 597.67,-16 603,-21.33 603,-26.67 603,-26.67 603,-37.33 603,-37.33 603,-42.67 597.67,-48 592.33,-48 592.33,-48 581.67,-48 581.67,-48 576.33,-48 571,-42.67 571,-37.33 571,-37.33 571,-26.67 571,-26.67 571,-21.33 576.33,-16 581.67,-16"/>
<text text-anchor="start" x="577.5" y="-28.3" font-family="Helvetica,sans-Serif" font-size="14.00">28</text>
<path fill="none" stroke="black" d="M581.67,-16C581.67,-16 592.33,-16 592.33,-16 597.67,-16 603,-21.33 603,-26.67 603,-26.67 603,-37.33 603,-37.33 603,-42.67 597.67,-48 592.33,-48 592.33,-48 581.67,-48 581.67,-48 576.33,-48 571,-42.67 571,-37.33 571,-37.33 571,-26.67 571,-26.67 571,-21.33 576.33,-16 581.67,-16"/>
</a>
</g>
</g>
<!-- function&#45;0&#45;ImmVal -->
<g id="node9" class="node">
<title>function&#45;0&#45;ImmVal</title>
<g id="a_node9"><a xlink:title="Imm&#45;3: function&#45;0&#45;ImmVal">
<path fill="white" stroke="transparent" d="M348.67,-95C348.67,-95 389.33,-95 389.33,-95 394.67,-95 400,-100.33 400,-105.67 400,-105.67 400,-116.33 400,-116.33 400,-121.67 394.67,-127 389.33,-127 389.33,-127 348.67,-127 348.67,-127 343.33,-127 338,-121.67 338,-116.33 338,-116.33 338,-105.67 338,-105.67 338,-100.33 343.33,-95 348.67,-95"/>
<text text-anchor="start" x="343" y="-107.3" font-family="Helvetica,sans-Serif" font-size="14.00">ImmVal</text>
<path fill="none" stroke="black" d="M348.67,-95C348.67,-95 389.33,-95 389.33,-95 394.67,-95 400,-100.33 400,-105.67 400,-105.67 400,-116.33 400,-116.33 400,-121.67 394.67,-127 389.33,-127 389.33,-127 348.67,-127 348.67,-127 343.33,-127 338,-121.67 338,-116.33 338,-116.33 338,-105.67 338,-105.67 338,-100.33 343.33,-95 348.67,-95"/>
</a>
</g>
</g>
<!-- primitive&#45;i64&#45;48 -->
<g id="node10" class="node">
<title>primitive&#45;i64&#45;48</title>
<g id="a_node10"><a xlink:title="i64&#45;48: primitive&#45;i64&#45;48">
<path fill="white" stroke="transparent" d="M363.67,-16C363.67,-16 374.33,-16 374.33,-16 379.67,-16 385,-21.33 385,-26.67 385,-26.67 385,-37.33 385,-37.33 385,-42.67 379.67,-48 374.33,-48 374.33,-48 363.67,-48 363.67,-48 358.33,-48 353,-42.67 353,-37.33 353,-37.33 353,-26.67 353,-26.67 353,-21.33 358.33,-16 363.67,-16"/>
<text text-anchor="start" x="359.5" y="-28.3" font-family="Helvetica,sans-Serif" font-size="14.00">48</text>
<path fill="none" stroke="black" d="M363.67,-16C363.67,-16 374.33,-16 374.33,-16 379.67,-16 385,-21.33 385,-26.67 385,-26.67 385,-37.33 385,-37.33 385,-42.67 379.67,-48 374.33,-48 374.33,-48 363.67,-48 363.67,-48 358.33,-48 353,-42.67 353,-37.33 353,-37.33 353,-26.67 353,-26.67 353,-21.33 358.33,-16 363.67,-16"/>
</a>
</g>
</g>
<!-- function&#45;1&#45;RegVal -->
<g id="node11" class="node">
<title>function&#45;1&#45;RegVal</title>
<g id="a_node11"><a xlink:title="Inst&#45;1: function&#45;1&#45;RegVal">
<path fill="white" stroke="transparent" d="M135.17,-95C135.17,-95 170.83,-95 170.83,-95 176.17,-95 181.5,-100.33 181.5,-105.67 181.5,-105.67 181.5,-116.33 181.5,-116.33 181.5,-121.67 176.17,-127 170.83,-127 170.83,-127 135.17,-127 135.17,-127 129.83,-127 124.5,-121.67 124.5,-116.33 124.5,-116.33 124.5,-105.67 124.5,-105.67 124.5,-100.33 129.83,-95 135.17,-95"/>
<text text-anchor="start" x="130" y="-107.3" font-family="Helvetica,sans-Serif" font-size="14.00">RegVal</text>
<path fill="none" stroke="black" d="M135.17,-95C135.17,-95 170.83,-95 170.83,-95 176.17,-95 181.5,-100.33 181.5,-105.67 181.5,-105.67 181.5,-116.33 181.5,-116.33 181.5,-121.67 176.17,-127 170.83,-127 170.83,-127 135.17,-127 135.17,-127 129.83,-127 124.5,-121.67 124.5,-116.33 124.5,-116.33 124.5,-105.67 124.5,-105.67 124.5,-100.33 129.83,-95 135.17,-95"/>
</a>
</g>
</g>
<!-- primitive&#45;String&#45;1 -->
<g id="node12" class="node">
<title>primitive&#45;String&#45;1</title>
<g id="a_node12"><a xlink:title="String&#45;1: primitive&#45;String&#45;1">
<path fill="white" stroke="transparent" d="M145.17,-16C145.17,-16 164.83,-16 164.83,-16 170.17,-16 175.5,-21.33 175.5,-26.67 175.5,-26.67 175.5,-37.33 175.5,-37.33 175.5,-42.67 170.17,-48 164.83,-48 164.83,-48 145.17,-48 145.17,-48 139.83,-48 134.5,-42.67 134.5,-37.33 134.5,-37.33 134.5,-26.67 134.5,-26.67 134.5,-21.33 139.83,-16 145.17,-16"/>
<text text-anchor="start" x="140" y="-28.3" font-family="Helvetica,sans-Serif" font-size="14.00">&quot;s9&quot;</text>
<path fill="none" stroke="black" d="M145.17,-16C145.17,-16 164.83,-16 164.83,-16 170.17,-16 175.5,-21.33 175.5,-26.67 175.5,-26.67 175.5,-37.33 175.5,-37.33 175.5,-42.67 170.17,-48 164.83,-48 164.83,-48 145.17,-48 145.17,-48 139.83,-48 134.5,-42.67 134.5,-37.33 134.5,-37.33 134.5,-26.67 134.5,-26.67 134.5,-21.33 139.83,-16 145.17,-16"/>
</a>
</g>
</g>
<!-- function&#45;2&#45;Lw -->
<g id="node13" class="node">
<title>function&#45;2&#45;Lw</title>
<g id="a_node13"><a xlink:title="Inst&#45;8: function&#45;2&#45;Lw">
<path fill="white" stroke="transparent" d="M294.67,-174C294.67,-174 305.33,-174 305.33,-174 310.67,-174 316,-179.33 316,-184.67 316,-184.67 316,-195.33 316,-195.33 316,-200.67 310.67,-206 305.33,-206 305.33,-206 294.67,-206 294.67,-206 289.33,-206 284,-200.67 284,-195.33 284,-195.33 284,-184.67 284,-184.67 284,-179.33 289.33,-174 294.67,-174"/>
<text text-anchor="start" x="290.5" y="-186.3" font-family="Helvetica,sans-Serif" font-size="14.00">Lw</text>
<path fill="none" stroke="black" d="M294.67,-174C294.67,-174 305.33,-174 305.33,-174 310.67,-174 316,-179.33 316,-184.67 316,-184.67 316,-195.33 316,-195.33 316,-200.67 310.67,-206 305.33,-206 305.33,-206 294.67,-206 294.67,-206 289.33,-206 284,-200.67 284,-195.33 284,-195.33 284,-184.67 284,-184.67 284,-179.33 289.33,-174 294.67,-174"/>
</a>
</g>
</g>
<!-- function&#45;2&#45;RegVal -->
<g id="node14" class="node">
<title>function&#45;2&#45;RegVal</title>
<g id="a_node14"><a xlink:title="Inst&#45;2: function&#45;2&#45;RegVal">
<path fill="white" stroke="transparent" d="M423.17,-95C423.17,-95 458.83,-95 458.83,-95 464.17,-95 469.5,-100.33 469.5,-105.67 469.5,-105.67 469.5,-116.33 469.5,-116.33 469.5,-121.67 464.17,-127 458.83,-127 458.83,-127 423.17,-127 423.17,-127 417.83,-127 412.5,-121.67 412.5,-116.33 412.5,-116.33 412.5,-105.67 412.5,-105.67 412.5,-100.33 417.83,-95 423.17,-95"/>
<text text-anchor="start" x="418" y="-107.3" font-family="Helvetica,sans-Serif" font-size="14.00">RegVal</text>
<path fill="none" stroke="black" d="M423.17,-95C423.17,-95 458.83,-95 458.83,-95 464.17,-95 469.5,-100.33 469.5,-105.67 469.5,-105.67 469.5,-116.33 469.5,-116.33 469.5,-121.67 464.17,-127 458.83,-127 458.83,-127 423.17,-127 423.17,-127 417.83,-127 412.5,-121.67 412.5,-116.33 412.5,-116.33 412.5,-105.67 412.5,-105.67 412.5,-100.33 417.83,-95 423.17,-95"/>
</a>
</g>
</g>
<!-- primitive&#45;String&#45;2 -->
<g id="node15" class="node">
<title>primitive&#45;String&#45;2</title>
<g id="a_node15"><a xlink:title="String&#45;2: primitive&#45;String&#45;2">
<path fill="white" stroke="transparent" d="M424.67,-16C424.67,-16 459.33,-16 459.33,-16 464.67,-16 470,-21.33 470,-26.67 470,-26.67 470,-37.33 470,-37.33 470,-42.67 464.67,-48 459.33,-48 459.33,-48 424.67,-48 424.67,-48 419.33,-48 414,-42.67 414,-37.33 414,-37.33 414,-26.67 414,-26.67 414,-21.33 419.33,-16 424.67,-16"/>
<text text-anchor="start" x="419" y="-28.3" font-family="Helvetica,sans-Serif" font-size="14.00">&quot;sp_0&quot;</text>
<path fill="none" stroke="black" d="M424.67,-16C424.67,-16 459.33,-16 459.33,-16 464.67,-16 470,-21.33 470,-26.67 470,-26.67 470,-37.33 470,-37.33 470,-42.67 464.67,-48 459.33,-48 459.33,-48 424.67,-48 424.67,-48 419.33,-48 414,-42.67 414,-37.33 414,-37.33 414,-26.67 414,-26.67 414,-21.33 419.33,-16 424.67,-16"/>
</a>
</g>
</g>
<!-- function&#45;0&#45;Lw -->
<g id="node16" class="node">
<title>function&#45;0&#45;Lw</title>
<g id="a_node16"><a xlink:title="Inst&#45;4: function&#45;0&#45;Lw">
<path fill="white" stroke="transparent" d="M374.67,-174C374.67,-174 385.33,-174 385.33,-174 390.67,-174 396,-179.33 396,-184.67 396,-184.67 396,-195.33 396,-195.33 396,-200.67 390.67,-206 385.33,-206 385.33,-206 374.67,-206 374.67,-206 369.33,-206 364,-200.67 364,-195.33 364,-195.33 364,-184.67 364,-184.67 364,-179.33 369.33,-174 374.67,-174"/>
<text text-anchor="start" x="370.5" y="-186.3" font-family="Helvetica,sans-Serif" font-size="14.00">Lw</text>
<path fill="none" stroke="black" d="M374.67,-174C374.67,-174 385.33,-174 385.33,-174 390.67,-174 396,-179.33 396,-184.67 396,-184.67 396,-195.33 396,-195.33 396,-200.67 390.67,-206 385.33,-206 385.33,-206 374.67,-206 374.67,-206 369.33,-206 364,-200.67 364,-195.33 364,-195.33 364,-184.67 364,-184.67 364,-179.33 369.33,-174 374.67,-174"/>
</a>
</g>
</g>
<!-- function&#45;0&#45;RegVal -->
<g id="node17" class="node">
<title>function&#45;0&#45;RegVal</title>
<g id="a_node17"><a xlink:title="Inst&#45;0: function&#45;0&#45;RegVal">
<path fill="white" stroke="transparent" d="M205.17,-95C205.17,-95 240.83,-95 240.83,-95 246.17,-95 251.5,-100.33 251.5,-105.67 251.5,-105.67 251.5,-116.33 251.5,-116.33 251.5,-121.67 246.17,-127 240.83,-127 240.83,-127 205.17,-127 205.17,-127 199.83,-127 194.5,-121.67 194.5,-116.33 194.5,-116.33 194.5,-105.67 194.5,-105.67 194.5,-100.33 199.83,-95 205.17,-95"/>
<text text-anchor="start" x="200" y="-107.3" font-family="Helvetica,sans-Serif" font-size="14.00">RegVal</text>
<path fill="none" stroke="black" d="M205.17,-95C205.17,-95 240.83,-95 240.83,-95 246.17,-95 251.5,-100.33 251.5,-105.67 251.5,-105.67 251.5,-116.33 251.5,-116.33 251.5,-121.67 246.17,-127 240.83,-127 240.83,-127 205.17,-127 205.17,-127 199.83,-127 194.5,-121.67 194.5,-116.33 194.5,-116.33 194.5,-105.67 194.5,-105.67 194.5,-100.33 199.83,-95 205.17,-95"/>
</a>
</g>
</g>
<!-- primitive&#45;String&#45;0 -->
<g id="node18" class="node">
<title>primitive&#45;String&#45;0</title>
<g id="a_node18"><a xlink:title="String&#45;0: primitive&#45;String&#45;0">
<path fill="white" stroke="transparent" d="M206.17,-16C206.17,-16 241.83,-16 241.83,-16 247.17,-16 252.5,-21.33 252.5,-26.67 252.5,-26.67 252.5,-37.33 252.5,-37.33 252.5,-42.67 247.17,-48 241.83,-48 241.83,-48 206.17,-48 206.17,-48 200.83,-48 195.5,-42.67 195.5,-37.33 195.5,-37.33 195.5,-26.67 195.5,-26.67 195.5,-21.33 200.83,-16 206.17,-16"/>
<text text-anchor="start" x="201" y="-28.3" font-family="Helvetica,sans-Serif" font-size="14.00">&quot;a4_0&quot;</text>
<path fill="none" stroke="black" d="M206.17,-16C206.17,-16 241.83,-16 241.83,-16 247.17,-16 252.5,-21.33 252.5,-26.67 252.5,-26.67 252.5,-37.33 252.5,-37.33 252.5,-42.67 247.17,-48 241.83,-48 241.83,-48 206.17,-48 206.17,-48 200.83,-48 195.5,-42.67 195.5,-37.33 195.5,-37.33 195.5,-26.67 195.5,-26.67 195.5,-21.33 200.83,-16 206.17,-16"/>
</a>
</g>
</g>
<!-- function&#45;1&#45;Lw -->
<g id="node19" class="node">
<title>function&#45;1&#45;Lw</title>
<g id="a_node19"><a xlink:title="Inst&#45;6: function&#45;1&#45;Lw">
<path fill="white" stroke="transparent" d="M459.67,-174C459.67,-174 470.33,-174 470.33,-174 475.67,-174 481,-179.33 481,-184.67 481,-184.67 481,-195.33 481,-195.33 481,-200.67 475.67,-206 470.33,-206 470.33,-206 459.67,-206 459.67,-206 454.33,-206 449,-200.67 449,-195.33 449,-195.33 449,-184.67 449,-184.67 449,-179.33 454.33,-174 459.67,-174"/>
<text text-anchor="start" x="455.5" y="-186.3" font-family="Helvetica,sans-Serif" font-size="14.00">Lw</text>
<path fill="none" stroke="black" d="M459.67,-174C459.67,-174 470.33,-174 470.33,-174 475.67,-174 481,-179.33 481,-184.67 481,-184.67 481,-195.33 481,-195.33 481,-200.67 475.67,-206 470.33,-206 470.33,-206 459.67,-206 459.67,-206 454.33,-206 449,-200.67 449,-195.33 449,-195.33 449,-184.67 449,-184.67 449,-179.33 454.33,-174 459.67,-174"/>
</a>
</g>
</g>
<!-- function&#45;3&#45;Lw -->
<g id="node20" class="node">
<title>function&#45;3&#45;Lw</title>
<g id="a_node20"><a xlink:title="Inst&#45;10: function&#45;3&#45;Lw">
<path fill="white" stroke="transparent" d="M557.67,-174C557.67,-174 568.33,-174 568.33,-174 573.67,-174 579,-179.33 579,-184.67 579,-184.67 579,-195.33 579,-195.33 579,-200.67 573.67,-206 568.33,-206 568.33,-206 557.67,-206 557.67,-206 552.33,-206 547,-200.67 547,-195.33 547,-195.33 547,-184.67 547,-184.67 547,-179.33 552.33,-174 557.67,-174"/>
<text text-anchor="start" x="553.5" y="-186.3" font-family="Helvetica,sans-Serif" font-size="14.00">Lw</text>
<path fill="none" stroke="black" d="M557.67,-174C557.67,-174 568.33,-174 568.33,-174 573.67,-174 579,-179.33 579,-184.67 579,-184.67 579,-195.33 579,-195.33 579,-200.67 573.67,-206 568.33,-206 568.33,-206 557.67,-206 557.67,-206 552.33,-206 547,-200.67 547,-195.33 547,-195.33 547,-184.67 547,-184.67 547,-179.33 552.33,-174 557.67,-174"/>
</a>
</g>
</g>
<!-- function&#45;0&#45;Sw -->
<g id="node21" class="node">
<title>function&#45;0&#45;Sw</title>
<g id="a_node21"><a xlink:title="Inst&#45;12: function&#45;0&#45;Sw">
<path fill="white" stroke="transparent" d="M155.67,-174C155.67,-174 166.33,-174 166.33,-174 171.67,-174 177,-179.33 177,-184.67 177,-184.67 177,-195.33 177,-195.33 177,-200.67 171.67,-206 166.33,-206 166.33,-206 155.67,-206 155.67,-206 150.33,-206 145,-200.67 145,-195.33 145,-195.33 145,-184.67 145,-184.67 145,-179.33 150.33,-174 155.67,-174"/>
<text text-anchor="start" x="150.5" y="-186.3" font-family="Helvetica,sans-Serif" font-size="14.00">Sw</text>
<path fill="none" stroke="black" d="M155.67,-174C155.67,-174 166.33,-174 166.33,-174 171.67,-174 177,-179.33 177,-184.67 177,-184.67 177,-195.33 177,-195.33 177,-200.67 171.67,-206 166.33,-206 166.33,-206 155.67,-206 155.67,-206 150.33,-206 145,-200.67 145,-195.33 145,-195.33 145,-184.67 145,-184.67 145,-179.33 150.33,-174 155.67,-174"/>
</a>
</g>
</g>
</g>
</svg>
