<?xml version="1.0" encoding="UTF-8" standalone="no"?>
<!DOCTYPE svg PUBLIC "-//W3C//DTD SVG 1.1//EN"
 "http://www.w3.org/Graphics/SVG/1.1/DTD/svg11.dtd">
<!-- Generated by graphviz version 2.43.0 (0)
 -->
<!-- Title: %3 Pages: 1 -->
<svg width="537pt" height="467pt"
 viewBox="0.00 0.00 537.39 467.00" xmlns="http://www.w3.org/2000/svg" xmlns:xlink="http://www.w3.org/1999/xlink">
<g id="graph0" class="graph" transform="scale(1 1) rotate(0) translate(4 463)">
<title>%3</title>
<polygon fill="white" stroke="#000000" points="-4,4 -4,-463 533.39,-463 533.39,4 -4,4"/>
<g id="clust1" class="cluster">
<title>outer_cluster_Imm&#45;3</title>
</g>
<g id="clust2" class="cluster">
<title>cluster_Imm&#45;3</title>
<path fill="#ffffb3" stroke="black" stroke-dasharray="5,2" d="M132,-90C132,-90 176,-90 176,-90 182,-90 188,-96 188,-102 188,-102 188,-120 188,-120 188,-126 182,-132 176,-132 176,-132 132,-132 132,-132 126,-132 120,-126 120,-120 120,-120 120,-102 120,-102 120,-96 126,-90 132,-90"/>
</g>
<g id="clust4" class="cluster">
<title>outer_cluster_Imm&#45;7</title>
</g>
<g id="clust5" class="cluster">
<title>cluster_Imm&#45;7</title>
<path fill="#ffffb3" stroke="black" stroke-dasharray="5,2" d="M23,-248C23,-248 83,-248 83,-248 89,-248 95,-254 95,-260 95,-260 95,-278 95,-278 95,-284 89,-290 83,-290 83,-290 23,-290 23,-290 17,-290 11,-284 11,-278 11,-278 11,-260 11,-260 11,-254 17,-248 23,-248"/>
</g>
<g id="clust7" class="cluster">
<title>outer_cluster_Imm&#45;5</title>
</g>
<g id="clust8" class="cluster">
<title>cluster_Imm&#45;5</title>
<path fill="#ffffb3" stroke="black" stroke-dasharray="5,2" d="M202,-169C202,-169 246,-169 246,-169 252,-169 258,-175 258,-181 258,-181 258,-199 258,-199 258,-205 252,-211 246,-211 246,-211 202,-211 202,-211 196,-211 190,-205 190,-199 190,-199 190,-181 190,-181 190,-175 196,-169 202,-169"/>
</g>
<g id="clust10" class="cluster">
<title>outer_cluster_Imm&#45;1</title>
</g>
<g id="clust11" class="cluster">
<title>cluster_Imm&#45;1</title>
<path fill="#ffffb3" stroke="black" stroke-dasharray="5,2" d="M330,-169C330,-169 374,-169 374,-169 380,-169 386,-175 386,-181 386,-181 386,-199 386,-199 386,-205 380,-211 374,-211 374,-211 330,-211 330,-211 324,-211 318,-205 318,-199 318,-199 318,-181 318,-181 318,-175 324,-169 330,-169"/>
</g>
<g id="clust13" class="cluster">
<title>outer_cluster_Inst&#45;0</title>
</g>
<g id="clust14" class="cluster">
<title>cluster_Inst&#45;0</title>
<path fill="#bebada" stroke="black" stroke-dasharray="5,2" d="M408,-169C408,-169 448,-169 448,-169 454,-169 460,-175 460,-181 460,-181 460,-199 460,-199 460,-205 454,-211 448,-211 448,-211 408,-211 408,-211 402,-211 396,-205 396,-199 396,-199 396,-181 396,-181 396,-175 402,-169 408,-169"/>
</g>
<g id="clust16" class="cluster">
<title>outer_cluster_Inst&#45;6</title>
</g>
<g id="clust17" class="cluster">
<title>cluster_Inst&#45;6</title>
<path fill="#bebada" stroke="black" stroke-dasharray="5,2" d="M171,-248C171,-248 207,-248 207,-248 213,-248 219,-254 219,-260 219,-260 219,-278 219,-278 219,-284 213,-290 207,-290 207,-290 171,-290 171,-290 165,-290 159,-284 159,-278 159,-278 159,-260 159,-260 159,-254 165,-248 171,-248"/>
</g>
<g id="clust19" class="cluster">
<title>outer_cluster_Inst&#45;8</title>
</g>
<g id="clust20" class="cluster">
<title>cluster_Inst&#45;8</title>
<path fill="#bebada" stroke="black" stroke-dasharray="5,2" d="M56,-406C56,-406 208,-406 208,-406 214,-406 220,-412 220,-418 220,-418 220,-436 220,-436 220,-442 214,-448 208,-448 208,-448 56,-448 56,-448 50,-448 44,-442 44,-436 44,-436 44,-418 44,-418 44,-412 50,-406 56,-406"/>
</g>
<g id="clust22" class="cluster">
<title>outer_cluster_Inst&#45;4</title>
</g>
<g id="clust23" class="cluster">
<title>cluster_Inst&#45;4</title>
<path fill="#bebada" stroke="black" stroke-dasharray="5,2" d="M136,-169C136,-169 172,-169 172,-169 178,-169 184,-175 184,-181 184,-181 184,-199 184,-199 184,-205 178,-211 172,-211 172,-211 136,-211 136,-211 130,-211 124,-205 124,-199 124,-199 124,-181 124,-181 124,-175 130,-169 136,-169"/>
</g>
<g id="clust25" class="cluster">
<title>outer_cluster_Inst&#45;9</title>
</g>
<g id="clust26" class="cluster">
<title>cluster_Inst&#45;9</title>
<path fill="#bebada" stroke="black" stroke-dasharray="5,2" d="M162,-327C162,-327 314,-327 314,-327 320,-327 326,-333 326,-339 326,-339 326,-357 326,-357 326,-363 320,-369 314,-369 314,-369 162,-369 162,-369 156,-369 150,-363 150,-357 150,-357 150,-339 150,-339 150,-333 156,-327 162,-327"/>
</g>
<g id="clust28" class="cluster">
<title>outer_cluster_Inst&#45;12</title>
</g>
<g id="clust29" class="cluster">
<title>cluster_Inst&#45;12</title>
<path fill="#bebada" stroke="black" stroke-dasharray="5,2" d="M330,-248C330,-248 366,-248 366,-248 372,-248 378,-254 378,-260 378,-260 378,-278 378,-278 378,-284 372,-290 366,-290 366,-290 330,-290 330,-290 324,-290 318,-284 318,-278 318,-278 318,-260 318,-260 318,-254 324,-248 330,-248"/>
</g>
<g id="clust31" class="cluster">
<title>outer_cluster_Inst&#45;11</title>
</g>
<g id="clust32" class="cluster">
<title>cluster_Inst&#45;11</title>
<path fill="#bebada" stroke="black" stroke-dasharray="5,2" d="M344,-327C344,-327 496,-327 496,-327 502,-327 508,-333 508,-339 508,-339 508,-357 508,-357 508,-363 502,-369 496,-369 496,-369 344,-369 344,-369 338,-369 332,-363 332,-357 332,-357 332,-339 332,-339 332,-333 338,-327 344,-327"/>
</g>
<g id="clust34" class="cluster">
<title>outer_cluster_Inst&#45;10</title>
</g>
<g id="clust35" class="cluster">
<title>cluster_Inst&#45;10</title>
<path fill="#bebada" stroke="black" stroke-dasharray="5,2" d="M74,-327C74,-327 110,-327 110,-327 116,-327 122,-333 122,-339 122,-339 122,-357 122,-357 122,-363 116,-369 110,-369 110,-369 74,-369 74,-369 68,-369 62,-363 62,-357 62,-357 62,-339 62,-339 62,-333 68,-327 74,-327"/>
</g>
<g id="clust37" class="cluster">
<title>outer_cluster_Inst&#45;2</title>
</g>
<g id="clust38" class="cluster">
<title>cluster_Inst&#45;2</title>
<path fill="#bebada" stroke="black" stroke-dasharray="5,2" d="M418,-248C418,-248 454,-248 454,-248 460,-248 466,-254 466,-260 466,-260 466,-278 466,-278 466,-284 460,-290 454,-290 454,-290 418,-290 418,-290 412,-290 406,-284 406,-278 406,-278 406,-260 406,-260 406,-254 412,-248 418,-248"/>
</g>
<g id="clust40" class="cluster">
<title>outer_cluster_String&#45;1</title>
</g>
<g id="clust41" class="cluster">
<title>cluster_String&#45;1</title>
<path fill="#fb8072" stroke="black" stroke-dasharray="5,2" d="M36,-169C36,-169 72,-169 72,-169 78,-169 84,-175 84,-181 84,-181 84,-199 84,-199 84,-205 78,-211 72,-211 72,-211 36,-211 36,-211 30,-211 24,-205 24,-199 24,-199 24,-181 24,-181 24,-175 30,-169 36,-169"/>
</g>
<g id="clust43" class="cluster">
<title>outer_cluster_String&#45;0</title>
</g>
<g id="clust44" class="cluster">
<title>cluster_String&#45;0</title>
<path fill="#fb8072" stroke="black" stroke-dasharray="5,2" d="M410,-90C410,-90 448,-90 448,-90 454,-90 460,-96 460,-102 460,-102 460,-120 460,-120 460,-126 454,-132 448,-132 448,-132 410,-132 410,-132 404,-132 398,-126 398,-120 398,-120 398,-102 398,-102 398,-96 404,-90 410,-90"/>
</g>
<g id="clust46" class="cluster">
<title>outer_cluster_i64&#45;4</title>
</g>
<g id="clust47" class="cluster">
<title>cluster_i64&#45;4</title>
<path fill="#80b1d3" stroke="black" stroke-dasharray="5,2" d="M334,-90C334,-90 370,-90 370,-90 376,-90 382,-96 382,-102 382,-102 382,-120 382,-120 382,-126 376,-132 370,-132 370,-132 334,-132 334,-132 328,-132 322,-126 322,-120 322,-120 322,-102 322,-102 322,-96 328,-90 334,-90"/>
</g>
<g id="clust49" class="cluster">
<title>outer_cluster_i64&#45;1807</title>
</g>
<g id="clust50" class="cluster">
<title>cluster_i64&#45;1807</title>
<path fill="#80b1d3" stroke="black" stroke-dasharray="5,2" d="M206,-90C206,-90 242,-90 242,-90 248,-90 254,-96 254,-102 254,-102 254,-120 254,-120 254,-126 248,-132 242,-132 242,-132 206,-132 206,-132 200,-132 194,-126 194,-120 194,-120 194,-102 194,-102 194,-96 200,-90 206,-90"/>
</g>
<g id="clust52" class="cluster">
<title>outer_cluster_i64&#45;2</title>
</g>
<g id="clust53" class="cluster">
<title>cluster_i64&#45;2</title>
<path fill="#80b1d3" stroke="black" stroke-dasharray="5,2" d="M136,-11C136,-11 172,-11 172,-11 178,-11 184,-17 184,-23 184,-23 184,-41 184,-41 184,-47 178,-53 172,-53 172,-53 136,-53 136,-53 130,-53 124,-47 124,-41 124,-41 124,-23 124,-23 124,-17 130,-11 136,-11"/>
</g>
<!-- function&#45;1&#45;ImmVal&#45;&gt;primitive&#45;i64&#45;2 -->
<g id="edge1" class="edge">
<title>function&#45;1&#45;ImmVal:s&#45;&gt;primitive&#45;i64&#45;2</title>
<path fill="none" stroke="black" d="M154,-95C154,-81.84 154,-67.11 154,-55.3"/>
<polygon fill="black" stroke="black" points="155.75,-58 154,-53 152.25,-58 155.75,-58"/>
</g>
<!-- function&#45;0&#45;ImmLabel&#45;&gt;primitive&#45;String&#45;1 -->
<g id="edge2" class="edge">
<title>function&#45;0&#45;ImmLabel:s&#45;&gt;primitive&#45;String&#45;1</title>
<path fill="none" stroke="black" d="M54,-253C54,-239.84 54,-225.11 54,-213.3"/>
<polygon fill="black" stroke="black" points="55.75,-216 54,-211 52.25,-216 55.75,-216"/>
</g>
<!-- function&#45;2&#45;ImmVal&#45;&gt;primitive&#45;i64&#45;1807 -->
<g id="edge3" class="edge">
<title>function&#45;2&#45;ImmVal:s&#45;&gt;primitive&#45;i64&#45;1807</title>
<path fill="none" stroke="black" d="M224,-174C224,-160.84 224,-146.11 224,-134.3"/>
<polygon fill="black" stroke="black" points="225.75,-137 224,-132 222.25,-137 225.75,-137"/>
</g>
<!-- function&#45;0&#45;ImmVal&#45;&gt;primitive&#45;i64&#45;4 -->
<g id="edge4" class="edge">
<title>function&#45;0&#45;ImmVal:s&#45;&gt;primitive&#45;i64&#45;4</title>
<path fill="none" stroke="black" d="M352,-174C352,-160.84 352,-146.11 352,-134.3"/>
<polygon fill="black" stroke="black" points="353.75,-137 352,-132 350.25,-137 353.75,-137"/>
</g>
<!-- function&#45;0&#45;RegVal&#45;&gt;primitive&#45;String&#45;0 -->
<g id="edge5" class="edge">
<title>function&#45;0&#45;RegVal:s&#45;&gt;primitive&#45;String&#45;0</title>
<path fill="none" stroke="black" d="M429,-174C429,-160.84 429,-146.11 429,-134.3"/>
<polygon fill="black" stroke="black" points="430.75,-137 429,-132 427.25,-137 430.75,-137"/>
</g>
<!-- function&#45;0&#45;Addi&#45;&gt;function&#45;2&#45;ImmVal -->
<g id="edge7" class="edge">
<title>function&#45;0&#45;Addi:s&#45;&gt;function&#45;2&#45;ImmVal</title>
<path fill="none" stroke="black" d="M199,-253C199,-238.86 204.66,-224.14 210.6,-212.59"/>
<polygon fill="black" stroke="black" points="210.03,-215.93 211.96,-211 207.38,-213.65 210.03,-215.93"/>
</g>
<!-- function&#45;0&#45;Addi&#45;&gt;function&#45;0&#45;Lui -->
<g id="edge6" class="edge">
<title>function&#45;0&#45;Addi:s&#45;&gt;function&#45;0&#45;Lui</title>
<path fill="none" stroke="black" d="M179,-253C179,-238.86 173.34,-224.14 167.4,-212.59"/>
<polygon fill="black" stroke="black" points="170.62,-213.65 166.04,-211 167.97,-215.93 170.62,-213.65"/>
</g>
<!-- function&#45;0&#45;Lui&#45;&gt;function&#45;1&#45;ImmVal -->
<g id="edge16" class="edge">
<title>function&#45;0&#45;Lui:s&#45;&gt;function&#45;1&#45;ImmVal</title>
<path fill="none" stroke="black" d="M154,-174C154,-160.84 154,-146.11 154,-134.3"/>
<polygon fill="black" stroke="black" points="155.75,-137 154,-132 152.25,-137 155.75,-137"/>
</g>
<!-- function&#45;0&#45;Bne&#45;&gt;function&#45;0&#45;ImmLabel -->
<g id="edge10" class="edge">
<title>function&#45;0&#45;Bne:s&#45;&gt;function&#45;0&#45;ImmLabel</title>
<path fill="none" stroke="black" d="M146,-411C146,-364.95 75.72,-410.2 50,-372 34.09,-348.36 39.35,-314.17 45.47,-292.01"/>
<polygon fill="black" stroke="black" points="45.45,-295.11 46.86,-290 42.57,-293.11 45.45,-295.11"/>
</g>
<!-- function&#45;0&#45;Bne&#45;&gt;function&#45;0&#45;Addi -->
<g id="edge9" class="edge">
<title>function&#45;0&#45;Bne:s&#45;&gt;function&#45;0&#45;Addi</title>
<path fill="none" stroke="black" d="M137,-411C137,-372.27 127.39,-359.87 142,-324 147,-311.71 156.01,-300.28 164.81,-291.13"/>
<polygon fill="black" stroke="black" points="163.31,-294.19 166.55,-290 161.4,-291.25 163.31,-294.19"/>
</g>
<!-- function&#45;0&#45;Bne&#45;&gt;function&#45;0&#45;Lw -->
<g id="edge8" class="edge">
<title>function&#45;0&#45;Bne:s&#45;&gt;function&#45;0&#45;Lw</title>
<path fill="none" stroke="black" d="M123,-411C123,-324.79 450.82,-435.62 509,-372 523.4,-356.26 518.6,-343.05 509,-324 500.32,-306.78 483.26,-293.68 467.82,-284.71"/>
<polygon fill="black" stroke="black" points="470.88,-285.12 466,-283.05 468.52,-287.71 470.88,-285.12"/>
</g>
<!-- function&#45;0&#45;Lw&#45;&gt;function&#45;0&#45;ImmVal -->
<g id="edge36" class="edge">
<title>function&#45;0&#45;Lw:s&#45;&gt;function&#45;0&#45;ImmVal</title>
<path fill="none" stroke="black" d="M444,-253C444,-245.83 412.88,-226.03 386.84,-210.71"/>
<polygon fill="black" stroke="black" points="391.08,-211.62 386,-210.1 389.02,-214.46 391.08,-211.62"/>
</g>
<!-- function&#45;0&#45;Lw&#45;&gt;function&#45;0&#45;RegVal -->
<g id="edge35" class="edge">
<title>function&#45;0&#45;Lw:s&#45;&gt;function&#45;0&#45;RegVal</title>
<path fill="none" stroke="black" d="M428,-253C428,-239.84 428,-225.11 428,-213.3"/>
<polygon fill="black" stroke="black" points="429.75,-216 428,-211 426.25,-216 429.75,-216"/>
</g>
<!-- function&#45;1&#45;Bne&#45;&gt;function&#45;0&#45;ImmLabel -->
<g id="edge13" class="edge">
<title>function&#45;1&#45;Bne:s&#45;&gt;function&#45;0&#45;ImmLabel</title>
<path fill="none" stroke="black" d="M204,-411C204,-345.12 103,-422.75 61,-372 51.28,-360.26 51,-318.45 51.87,-292.14"/>
<polygon fill="black" stroke="black" points="53.36,-295.13 52.05,-290 49.87,-294.83 53.36,-295.13"/>
</g>
<!-- function&#45;1&#45;Bne&#45;&gt;function&#45;0&#45;Addi -->
<g id="edge11" class="edge">
<title>function&#45;1&#45;Bne:s&#45;&gt;function&#45;0&#45;Addi</title>
<path fill="none" stroke="black" d="M181,-411C181,-388.58 156.55,-393.11 149,-372 141.81,-351.91 142.31,-344.26 149,-324 152.97,-311.98 160.76,-300.45 168.42,-291.15"/>
<polygon fill="black" stroke="black" points="167.16,-294.66 169.68,-290 164.8,-292.07 167.16,-294.66"/>
</g>
<!-- function&#45;1&#45;Bne&#45;&gt;function&#45;0&#45;Lw -->
<g id="edge12" class="edge">
<title>function&#45;1&#45;Bne:s&#45;&gt;function&#45;0&#45;Lw</title>
<path fill="none" stroke="black" d="M195,-411C195,-338.26 471.73,-426.41 520,-372 534.16,-356.04 530.22,-342.72 520,-324 508.97,-303.8 486.79,-290.03 467.99,-281.45"/>
<polygon fill="black" stroke="black" points="471.23,-281.2 466,-280.38 469.58,-284.29 471.23,-281.2"/>
</g>
<!-- function&#45;0&#45;Seq2&#45;&gt;function&#45;0&#45;Beq -->
<g id="edge14" class="edge">
<title>function&#45;0&#45;Seq2:s&#45;&gt;function&#45;0&#45;Beq</title>
<path fill="none" stroke="black" d="M63,-411C63,-401.36 113.24,-377.73 147.87,-362.59"/>
<polygon fill="black" stroke="black" points="146.46,-365.36 150,-361.42 144.78,-362.3 146.46,-365.36"/>
</g>
<!-- function&#45;0&#45;Seq2&#45;&gt;function&#45;0&#45;Jal -->
<g id="edge15" class="edge">
<title>function&#45;0&#45;Seq2:s&#45;&gt;function&#45;0&#45;Jal</title>
<path fill="none" stroke="black" d="M85,-411C85,-397.76 86.6,-383.02 88.27,-371.24"/>
<polygon fill="black" stroke="black" points="89.07,-374.3 89.03,-369 85.76,-373.16 89.07,-374.3"/>
</g>
<!-- function&#45;0&#45;Beq&#45;&gt;function&#45;0&#45;ImmVal -->
<g id="edge19" class="edge">
<title>function&#45;0&#45;Beq:s&#45;&gt;function&#45;0&#45;ImmVal</title>
<path fill="none" stroke="black" d="M194,-332C194,-319.31 258.45,-253.36 268,-245 282.79,-232.06 300.95,-220 316.6,-210.57"/>
<polygon fill="black" stroke="black" points="316,-213.88 318,-208.98 313.38,-211.57 316,-213.88"/>
</g>
<!-- function&#45;0&#45;Beq&#45;&gt;function&#45;0&#45;Addi -->
<g id="edge18" class="edge">
<title>function&#45;0&#45;Beq:s&#45;&gt;function&#45;0&#45;Addi</title>
<path fill="none" stroke="black" d="M185,-332C185,-318.81 185.91,-304.08 186.87,-292.28"/>
<polygon fill="black" stroke="black" points="188.08,-295.24 187.3,-290 184.64,-294.58 188.08,-295.24"/>
</g>
<!-- function&#45;0&#45;Beq&#45;&gt;function&#45;0&#45;Lw -->
<g id="edge17" class="edge">
<title>function&#45;0&#45;Beq:s&#45;&gt;function&#45;0&#45;Lw</title>
<path fill="none" stroke="black" d="M171,-332C171,-284.97 333.84,-306.13 379,-293 387.23,-290.61 395.91,-287.45 403.94,-284.25"/>
<polygon fill="black" stroke="black" points="402.26,-287 406,-283.25 400.74,-283.85 402.26,-287"/>
</g>
<!-- function&#45;0&#45;Jal&#45;&gt;function&#45;0&#45;ImmLabel -->
<g id="edge34" class="edge">
<title>function&#45;0&#45;Jal:s&#45;&gt;function&#45;0&#45;ImmLabel</title>
<path fill="none" stroke="black" d="M92,-332C92,-316.82 83.52,-302.32 74.48,-291.17"/>
<polygon fill="black" stroke="black" points="78.05,-291.95 73.13,-290 75.76,-294.6 78.05,-291.95"/>
</g>
<!-- function&#45;1&#45;Beq&#45;&gt;function&#45;0&#45;ImmVal -->
<g id="edge22" class="edge">
<title>function&#45;1&#45;Beq:s&#45;&gt;function&#45;0&#45;ImmVal</title>
<path fill="none" stroke="black" d="M252,-332C252,-304.46 303.4,-243.93 332.5,-211.88"/>
<polygon fill="black" stroke="black" points="330.58,-215.1 333.93,-211 328.75,-212.11 330.58,-215.1"/>
</g>
<!-- function&#45;1&#45;Beq&#45;&gt;function&#45;0&#45;Addi -->
<g id="edge20" class="edge">
<title>function&#45;1&#45;Beq:s&#45;&gt;function&#45;0&#45;Addi</title>
<path fill="none" stroke="black" d="M229,-332C229,-316.71 220.31,-302.2 211.03,-291.07"/>
<polygon fill="black" stroke="black" points="214.65,-291.6 209.59,-290 212.55,-294.4 214.65,-291.6"/>
</g>
<!-- function&#45;1&#45;Beq&#45;&gt;function&#45;0&#45;Lw -->
<g id="edge21" class="edge">
<title>function&#45;1&#45;Beq:s&#45;&gt;function&#45;0&#45;Lw</title>
<path fill="none" stroke="black" d="M243,-332C243,-269.12 319.49,-313.32 379,-293 387.2,-290.2 395.92,-286.87 404.02,-283.61"/>
<polygon fill="black" stroke="black" points="402.34,-286.44 406,-282.61 400.75,-283.32 402.34,-286.44"/>
</g>
<!-- function&#45;1&#45;Seq2&#45;&gt;function&#45;2&#45;Bne -->
<g id="edge23" class="edge">
<title>function&#45;1&#45;Seq2:s&#45;&gt;function&#45;2&#45;Bne</title>
<path fill="none" stroke="black" d="M285,-332C285,-284.81 344.96,-281.06 387,-302.5 396.53,-307.36 403.96,-316.41 409.33,-325.17"/>
<polygon fill="black" stroke="black" points="406.37,-324.62 411.1,-327 408.88,-322.19 406.37,-324.62"/>
</g>
<!-- function&#45;1&#45;Seq2&#45;&gt;function&#45;1&#45;Jal -->
<g id="edge24" class="edge">
<title>function&#45;1&#45;Seq2:s&#45;&gt;function&#45;1&#45;Jal</title>
<path fill="none" stroke="black" d="M307,-332C307,-316.6 315.91,-302.08 325.42,-290.97"/>
<polygon fill="black" stroke="black" points="323.68,-294.17 326.94,-290 321.79,-291.23 323.68,-294.17"/>
</g>
<!-- function&#45;2&#45;Bne&#45;&gt;function&#45;0&#45;ImmVal -->
<g id="edge28" class="edge">
<title>function&#45;2&#45;Bne:s&#45;&gt;function&#45;0&#45;ImmVal</title>
<path fill="none" stroke="black" d="M434,-332C434,-307.17 406.99,-314.16 394,-293 382.31,-273.95 387.36,-265.73 379,-245 374.62,-234.14 368.92,-222.47 363.89,-212.77"/>
<polygon fill="black" stroke="black" points="366.96,-213.83 362.48,-211 364.22,-216 366.96,-213.83"/>
</g>
<!-- function&#45;2&#45;Bne&#45;&gt;function&#45;0&#45;Addi -->
<g id="edge27" class="edge">
<title>function&#45;2&#45;Bne:s&#45;&gt;function&#45;0&#45;Addi</title>
<path fill="none" stroke="black" d="M425,-332C425,-321.6 285.99,-290.64 221.34,-276.81"/>
<polygon fill="black" stroke="black" points="224.26,-276.27 219,-275.68 222.75,-279.43 224.26,-276.27"/>
</g>
<!-- function&#45;2&#45;Bne&#45;&gt;function&#45;0&#45;Lw -->
<g id="edge26" class="edge">
<title>function&#45;2&#45;Bne:s&#45;&gt;function&#45;0&#45;Lw</title>
<path fill="none" stroke="black" d="M411,-332C411,-317.86 416.66,-303.14 422.6,-291.59"/>
<polygon fill="black" stroke="black" points="422.03,-294.93 423.96,-290 419.38,-292.65 422.03,-294.93"/>
</g>
<!-- function&#45;1&#45;Jal&#45;&gt;function&#45;0&#45;ImmVal -->
<g id="edge25" class="edge">
<title>function&#45;1&#45;Jal:s&#45;&gt;function&#45;0&#45;ImmVal</title>
<path fill="none" stroke="black" d="M348,-253C348,-239.81 348.91,-225.08 349.87,-213.28"/>
<polygon fill="black" stroke="black" points="351.08,-216.24 350.3,-211 347.64,-215.58 351.08,-216.24"/>
</g>
<!-- function&#45;3&#45;Bne&#45;&gt;function&#45;0&#45;ImmVal -->
<g id="edge31" class="edge">
<title>function&#45;3&#45;Bne:s&#45;&gt;function&#45;0&#45;ImmVal</title>
<path fill="none" stroke="black" d="M492,-332C492,-289.63 433.14,-324.69 405,-293 390.16,-276.29 399.88,-265.05 390,-245 384.37,-233.59 376.48,-221.92 369.35,-212.36"/>
<polygon fill="black" stroke="black" points="372.77,-213.57 368.13,-211 370.15,-215.9 372.77,-213.57"/>
</g>
<!-- function&#45;3&#45;Bne&#45;&gt;function&#45;0&#45;Addi -->
<g id="edge29" class="edge">
<title>function&#45;3&#45;Bne:s&#45;&gt;function&#45;0&#45;Addi</title>
<path fill="none" stroke="black" d="M469,-332C469,-321.6 457.01,-326.85 447,-324 366.96,-301.2 270.43,-283.54 221.23,-275.22"/>
<polygon fill="black" stroke="black" points="224.29,-274.54 219,-274.35 223.02,-277.8 224.29,-274.54"/>
</g>
<!-- function&#45;3&#45;Bne&#45;&gt;function&#45;0&#45;Lw -->
<g id="edge30" class="edge">
<title>function&#45;3&#45;Bne:s&#45;&gt;function&#45;0&#45;Lw</title>
<path fill="none" stroke="black" d="M483,-332C483,-316.1 473.07,-301.72 462.33,-290.82"/>
<polygon fill="black" stroke="black" points="465.93,-290.64 460.67,-290 464.39,-293.78 465.93,-290.64"/>
</g>
<!-- function&#45;2&#45;Seq2&#45;&gt;function&#45;1&#45;Seq2 -->
<g id="edge32" class="edge">
<title>function&#45;2&#45;Seq2:s&#45;&gt;function&#45;1&#45;Seq2</title>
<path fill="none" stroke="black" d="M351,-332C351,-320.59 339.78,-322.91 327.57,-328.8"/>
<polygon fill="black" stroke="black" points="328.71,-325.57 326,-330.12 330.96,-328.26 328.71,-325.57"/>
</g>
<!-- function&#45;2&#45;Seq2&#45;&gt;function&#45;1&#45;Jal -->
<g id="edge33" class="edge">
<title>function&#45;2&#45;Seq2:s&#45;&gt;function&#45;1&#45;Jal</title>
<path fill="none" stroke="black" d="M373,-332C373,-317.86 367.34,-303.14 361.4,-291.59"/>
<polygon fill="black" stroke="black" points="364.62,-292.65 360.04,-290 361.97,-294.93 364.62,-292.65"/>
</g>
<!-- function&#45;1&#45;ImmVal -->
<g id="node1" class="node">
<title>function&#45;1&#45;ImmVal</title>
<g id="a_node1"><a xlink:title="Imm&#45;3: function&#45;1&#45;ImmVal">
<path fill="white" stroke="transparent" d="M133.67,-95C133.67,-95 174.33,-95 174.33,-95 179.67,-95 185,-100.33 185,-105.67 185,-105.67 185,-116.33 185,-116.33 185,-121.67 179.67,-127 174.33,-127 174.33,-127 133.67,-127 133.67,-127 128.33,-127 123,-121.67 123,-116.33 123,-116.33 123,-105.67 123,-105.67 123,-100.33 128.33,-95 133.67,-95"/>
<text text-anchor="start" x="128" y="-107.3" font-family="Helvetica,sans-Serif" font-size="14.00">ImmVal</text>
<path fill="none" stroke="black" d="M133.67,-95C133.67,-95 174.33,-95 174.33,-95 179.67,-95 185,-100.33 185,-105.67 185,-105.67 185,-116.33 185,-116.33 185,-121.67 179.67,-127 174.33,-127 174.33,-127 133.67,-127 133.67,-127 128.33,-127 123,-121.67 123,-116.33 123,-116.33 123,-105.67 123,-105.67 123,-100.33 128.33,-95 133.67,-95"/>
</a>
</g>
</g>
<!-- primitive&#45;i64&#45;2 -->
<g id="node2" class="node">
<title>primitive&#45;i64&#45;2</title>
<g id="a_node2"><a xlink:title="i64&#45;2: primitive&#45;i64&#45;2">
<path fill="white" stroke="transparent" d="M148.67,-16C148.67,-16 159.33,-16 159.33,-16 164.67,-16 170,-21.33 170,-26.67 170,-26.67 170,-37.33 170,-37.33 170,-42.67 164.67,-48 159.33,-48 159.33,-48 148.67,-48 148.67,-48 143.33,-48 138,-42.67 138,-37.33 138,-37.33 138,-26.67 138,-26.67 138,-21.33 143.33,-16 148.67,-16"/>
<text text-anchor="start" x="149" y="-28.3" font-family="Helvetica,sans-Serif" font-size="14.00">2</text>
<path fill="none" stroke="black" d="M148.67,-16C148.67,-16 159.33,-16 159.33,-16 164.67,-16 170,-21.33 170,-26.67 170,-26.67 170,-37.33 170,-37.33 170,-42.67 164.67,-48 159.33,-48 159.33,-48 148.67,-48 148.67,-48 143.33,-48 138,-42.67 138,-37.33 138,-37.33 138,-26.67 138,-26.67 138,-21.33 143.33,-16 148.67,-16"/>
</a>
</g>
</g>
<!-- function&#45;0&#45;ImmLabel -->
<g id="node3" class="node">
<title>function&#45;0&#45;ImmLabel</title>
<g id="a_node3"><a xlink:title="Imm&#45;7: function&#45;0&#45;ImmLabel">
<path fill="white" stroke="transparent" d="M24.17,-253C24.17,-253 81.83,-253 81.83,-253 87.17,-253 92.5,-258.33 92.5,-263.67 92.5,-263.67 92.5,-274.33 92.5,-274.33 92.5,-279.67 87.17,-285 81.83,-285 81.83,-285 24.17,-285 24.17,-285 18.83,-285 13.5,-279.67 13.5,-274.33 13.5,-274.33 13.5,-263.67 13.5,-263.67 13.5,-258.33 18.83,-253 24.17,-253"/>
<text text-anchor="start" x="19" y="-265.3" font-family="Helvetica,sans-Serif" font-size="14.00">ImmLabel</text>
<path fill="none" stroke="black" d="M24.17,-253C24.17,-253 81.83,-253 81.83,-253 87.17,-253 92.5,-258.33 92.5,-263.67 92.5,-263.67 92.5,-274.33 92.5,-274.33 92.5,-279.67 87.17,-285 81.83,-285 81.83,-285 24.17,-285 24.17,-285 18.83,-285 13.5,-279.67 13.5,-274.33 13.5,-274.33 13.5,-263.67 13.5,-263.67 13.5,-258.33 18.83,-253 24.17,-253"/>
</a>
</g>
</g>
<!-- primitive&#45;String&#45;1 -->
<g id="node4" class="node">
<title>primitive&#45;String&#45;1</title>
<g id="a_node4"><a xlink:title="String&#45;1: primitive&#45;String&#45;1">
<path fill="white" stroke="transparent" d="M37.67,-174C37.67,-174 70.33,-174 70.33,-174 75.67,-174 81,-179.33 81,-184.67 81,-184.67 81,-195.33 81,-195.33 81,-200.67 75.67,-206 70.33,-206 70.33,-206 37.67,-206 37.67,-206 32.33,-206 27,-200.67 27,-195.33 27,-195.33 27,-184.67 27,-184.67 27,-179.33 32.33,-174 37.67,-174"/>
<text text-anchor="start" x="32" y="-186.3" font-family="Helvetica,sans-Serif" font-size="14.00">&quot;.L41&quot;</text>
<path fill="none" stroke="black" d="M37.67,-174C37.67,-174 70.33,-174 70.33,-174 75.67,-174 81,-179.33 81,-184.67 81,-184.67 81,-195.33 81,-195.33 81,-200.67 75.67,-206 70.33,-206 70.33,-206 37.67,-206 37.67,-206 32.33,-206 27,-200.67 27,-195.33 27,-195.33 27,-184.67 27,-184.67 27,-179.33 32.33,-174 37.67,-174"/>
</a>
</g>
</g>
<!-- function&#45;2&#45;ImmVal -->
<g id="node5" class="node">
<title>function&#45;2&#45;ImmVal</title>
<g id="a_node5"><a xlink:title="Imm&#45;5: function&#45;2&#45;ImmVal">
<path fill="white" stroke="transparent" d="M203.67,-174C203.67,-174 244.33,-174 244.33,-174 249.67,-174 255,-179.33 255,-184.67 255,-184.67 255,-195.33 255,-195.33 255,-200.67 249.67,-206 244.33,-206 244.33,-206 203.67,-206 203.67,-206 198.33,-206 193,-200.67 193,-195.33 193,-195.33 193,-184.67 193,-184.67 193,-179.33 198.33,-174 203.67,-174"/>
<text text-anchor="start" x="198" y="-186.3" font-family="Helvetica,sans-Serif" font-size="14.00">ImmVal</text>
<path fill="none" stroke="black" d="M203.67,-174C203.67,-174 244.33,-174 244.33,-174 249.67,-174 255,-179.33 255,-184.67 255,-184.67 255,-195.33 255,-195.33 255,-200.67 249.67,-206 244.33,-206 244.33,-206 203.67,-206 203.67,-206 198.33,-206 193,-200.67 193,-195.33 193,-195.33 193,-184.67 193,-184.67 193,-179.33 198.33,-174 203.67,-174"/>
</a>
</g>
</g>
<!-- primitive&#45;i64&#45;1807 -->
<g id="node6" class="node">
<title>primitive&#45;i64&#45;1807</title>
<g id="a_node6"><a xlink:title="i64&#45;1807: primitive&#45;i64&#45;1807">
<path fill="white" stroke="transparent" d="M211.17,-95C211.17,-95 236.83,-95 236.83,-95 242.17,-95 247.5,-100.33 247.5,-105.67 247.5,-105.67 247.5,-116.33 247.5,-116.33 247.5,-121.67 242.17,-127 236.83,-127 236.83,-127 211.17,-127 211.17,-127 205.83,-127 200.5,-121.67 200.5,-116.33 200.5,-116.33 200.5,-105.67 200.5,-105.67 200.5,-100.33 205.83,-95 211.17,-95"/>
<text text-anchor="start" x="206" y="-107.3" font-family="Helvetica,sans-Serif" font-size="14.00">1807</text>
<path fill="none" stroke="black" d="M211.17,-95C211.17,-95 236.83,-95 236.83,-95 242.17,-95 247.5,-100.33 247.5,-105.67 247.5,-105.67 247.5,-116.33 247.5,-116.33 247.5,-121.67 242.17,-127 236.83,-127 236.83,-127 211.17,-127 211.17,-127 205.83,-127 200.5,-121.67 200.5,-116.33 200.5,-116.33 200.5,-105.67 200.5,-105.67 200.5,-100.33 205.83,-95 211.17,-95"/>
</a>
</g>
</g>
<!-- function&#45;0&#45;ImmVal -->
<g id="node7" class="node">
<title>function&#45;0&#45;ImmVal</title>
<g id="a_node7"><a xlink:title="Imm&#45;1: function&#45;0&#45;ImmVal">
<path fill="white" stroke="transparent" d="M331.67,-174C331.67,-174 372.33,-174 372.33,-174 377.67,-174 383,-179.33 383,-184.67 383,-184.67 383,-195.33 383,-195.33 383,-200.67 377.67,-206 372.33,-206 372.33,-206 331.67,-206 331.67,-206 326.33,-206 321,-200.67 321,-195.33 321,-195.33 321,-184.67 321,-184.67 321,-179.33 326.33,-174 331.67,-174"/>
<text text-anchor="start" x="326" y="-186.3" font-family="Helvetica,sans-Serif" font-size="14.00">ImmVal</text>
<path fill="none" stroke="black" d="M331.67,-174C331.67,-174 372.33,-174 372.33,-174 377.67,-174 383,-179.33 383,-184.67 383,-184.67 383,-195.33 383,-195.33 383,-200.67 377.67,-206 372.33,-206 372.33,-206 331.67,-206 331.67,-206 326.33,-206 321,-200.67 321,-195.33 321,-195.33 321,-184.67 321,-184.67 321,-179.33 326.33,-174 331.67,-174"/>
</a>
</g>
</g>
<!-- primitive&#45;i64&#45;4 -->
<g id="node8" class="node">
<title>primitive&#45;i64&#45;4</title>
<g id="a_node8"><a xlink:title="i64&#45;4: primitive&#45;i64&#45;4">
<path fill="white" stroke="transparent" d="M346.67,-95C346.67,-95 357.33,-95 357.33,-95 362.67,-95 368,-100.33 368,-105.67 368,-105.67 368,-116.33 368,-116.33 368,-121.67 362.67,-127 357.33,-127 357.33,-127 346.67,-127 346.67,-127 341.33,-127 336,-121.67 336,-116.33 336,-116.33 336,-105.67 336,-105.67 336,-100.33 341.33,-95 346.67,-95"/>
<text text-anchor="start" x="347" y="-107.3" font-family="Helvetica,sans-Serif" font-size="14.00">4</text>
<path fill="none" stroke="black" d="M346.67,-95C346.67,-95 357.33,-95 357.33,-95 362.67,-95 368,-100.33 368,-105.67 368,-105.67 368,-116.33 368,-116.33 368,-121.67 362.67,-127 357.33,-127 357.33,-127 346.67,-127 346.67,-127 341.33,-127 336,-121.67 336,-116.33 336,-116.33 336,-105.67 336,-105.67 336,-100.33 341.33,-95 346.67,-95"/>
</a>
</g>
</g>
<!-- function&#45;0&#45;RegVal -->
<g id="node9" class="node">
<title>function&#45;0&#45;RegVal</title>
<g id="a_node9"><a xlink:title="Inst&#45;0: function&#45;0&#45;RegVal">
<path fill="white" stroke="transparent" d="M410.17,-174C410.17,-174 445.83,-174 445.83,-174 451.17,-174 456.5,-179.33 456.5,-184.67 456.5,-184.67 456.5,-195.33 456.5,-195.33 456.5,-200.67 451.17,-206 445.83,-206 445.83,-206 410.17,-206 410.17,-206 404.83,-206 399.5,-200.67 399.5,-195.33 399.5,-195.33 399.5,-184.67 399.5,-184.67 399.5,-179.33 404.83,-174 410.17,-174"/>
<text text-anchor="start" x="405" y="-186.3" font-family="Helvetica,sans-Serif" font-size="14.00">RegVal</text>
<path fill="none" stroke="black" d="M410.17,-174C410.17,-174 445.83,-174 445.83,-174 451.17,-174 456.5,-179.33 456.5,-184.67 456.5,-184.67 456.5,-195.33 456.5,-195.33 456.5,-200.67 451.17,-206 445.83,-206 445.83,-206 410.17,-206 410.17,-206 404.83,-206 399.5,-200.67 399.5,-195.33 399.5,-195.33 399.5,-184.67 399.5,-184.67 399.5,-179.33 404.83,-174 410.17,-174"/>
</a>
</g>
</g>
<!-- primitive&#45;String&#45;0 -->
<g id="node10" class="node">
<title>primitive&#45;String&#45;0</title>
<g id="a_node10"><a xlink:title="String&#45;0: primitive&#45;String&#45;0">
<path fill="white" stroke="transparent" d="M411.67,-95C411.67,-95 446.33,-95 446.33,-95 451.67,-95 457,-100.33 457,-105.67 457,-105.67 457,-116.33 457,-116.33 457,-121.67 451.67,-127 446.33,-127 446.33,-127 411.67,-127 411.67,-127 406.33,-127 401,-121.67 401,-116.33 401,-116.33 401,-105.67 401,-105.67 401,-100.33 406.33,-95 411.67,-95"/>
<text text-anchor="start" x="406" y="-107.3" font-family="Helvetica,sans-Serif" font-size="14.00">&quot;s2_0&quot;</text>
<path fill="none" stroke="black" d="M411.67,-95C411.67,-95 446.33,-95 446.33,-95 451.67,-95 457,-100.33 457,-105.67 457,-105.67 457,-116.33 457,-116.33 457,-121.67 451.67,-127 446.33,-127 446.33,-127 411.67,-127 411.67,-127 406.33,-127 401,-121.67 401,-116.33 401,-116.33 401,-105.67 401,-105.67 401,-100.33 406.33,-95 411.67,-95"/>
</a>
</g>
</g>
<!-- function&#45;0&#45;Addi -->
<g id="node11" class="node">
<title>function&#45;0&#45;Addi</title>
<g id="a_node11"><a xlink:title="Inst&#45;6: function&#45;0&#45;Addi">
<path fill="white" stroke="transparent" d="M179.17,-253C179.17,-253 198.83,-253 198.83,-253 204.17,-253 209.5,-258.33 209.5,-263.67 209.5,-263.67 209.5,-274.33 209.5,-274.33 209.5,-279.67 204.17,-285 198.83,-285 198.83,-285 179.17,-285 179.17,-285 173.83,-285 168.5,-279.67 168.5,-274.33 168.5,-274.33 168.5,-263.67 168.5,-263.67 168.5,-258.33 173.83,-253 179.17,-253"/>
<text text-anchor="start" x="174" y="-265.3" font-family="Helvetica,sans-Serif" font-size="14.00">Addi</text>
<path fill="none" stroke="black" d="M179.17,-253C179.17,-253 198.83,-253 198.83,-253 204.17,-253 209.5,-258.33 209.5,-263.67 209.5,-263.67 209.5,-274.33 209.5,-274.33 209.5,-279.67 204.17,-285 198.83,-285 198.83,-285 179.17,-285 179.17,-285 173.83,-285 168.5,-279.67 168.5,-274.33 168.5,-274.33 168.5,-263.67 168.5,-263.67 168.5,-258.33 173.83,-253 179.17,-253"/>
</a>
</g>
</g>
<!-- function&#45;0&#45;Lui -->
<g id="node12" class="node">
<title>function&#45;0&#45;Lui</title>
<g id="a_node12"><a xlink:title="Inst&#45;4: function&#45;0&#45;Lui">
<path fill="white" stroke="transparent" d="M148.67,-174C148.67,-174 159.33,-174 159.33,-174 164.67,-174 170,-179.33 170,-184.67 170,-184.67 170,-195.33 170,-195.33 170,-200.67 164.67,-206 159.33,-206 159.33,-206 148.67,-206 148.67,-206 143.33,-206 138,-200.67 138,-195.33 138,-195.33 138,-184.67 138,-184.67 138,-179.33 143.33,-174 148.67,-174"/>
<text text-anchor="start" x="143.5" y="-186.3" font-family="Helvetica,sans-Serif" font-size="14.00">Lui</text>
<path fill="none" stroke="black" d="M148.67,-174C148.67,-174 159.33,-174 159.33,-174 164.67,-174 170,-179.33 170,-184.67 170,-184.67 170,-195.33 170,-195.33 170,-200.67 164.67,-206 159.33,-206 159.33,-206 148.67,-206 148.67,-206 143.33,-206 138,-200.67 138,-195.33 138,-195.33 138,-184.67 138,-184.67 138,-179.33 143.33,-174 148.67,-174"/>
</a>
</g>
</g>
<!-- function&#45;0&#45;Bne -->
<g id="node13" class="node">
<title>function&#45;0&#45;Bne</title>
<g id="a_node13"><a xlink:title="Inst&#45;8: function&#45;0&#45;Bne">
<path fill="white" stroke="transparent" d="M123.67,-411C123.67,-411 140.33,-411 140.33,-411 145.67,-411 151,-416.33 151,-421.67 151,-421.67 151,-432.33 151,-432.33 151,-437.67 145.67,-443 140.33,-443 140.33,-443 123.67,-443 123.67,-443 118.33,-443 113,-437.67 113,-432.33 113,-432.33 113,-421.67 113,-421.67 113,-416.33 118.33,-411 123.67,-411"/>
<text text-anchor="start" x="118" y="-423.3" font-family="Helvetica,sans-Serif" font-size="14.00">Bne</text>
<path fill="none" stroke="black" d="M123.67,-411C123.67,-411 140.33,-411 140.33,-411 145.67,-411 151,-416.33 151,-421.67 151,-421.67 151,-432.33 151,-432.33 151,-437.67 145.67,-443 140.33,-443 140.33,-443 123.67,-443 123.67,-443 118.33,-443 113,-437.67 113,-432.33 113,-432.33 113,-421.67 113,-421.67 113,-416.33 118.33,-411 123.67,-411"/>
</a>
</g>
</g>
<!-- function&#45;0&#45;Lw -->
<g id="node14" class="node">
<title>function&#45;0&#45;Lw</title>
<g id="a_node14"><a xlink:title="Inst&#45;2: function&#45;0&#45;Lw">
<path fill="white" stroke="transparent" d="M430.67,-253C430.67,-253 441.33,-253 441.33,-253 446.67,-253 452,-258.33 452,-263.67 452,-263.67 452,-274.33 452,-274.33 452,-279.67 446.67,-285 441.33,-285 441.33,-285 430.67,-285 430.67,-285 425.33,-285 420,-279.67 420,-274.33 420,-274.33 420,-263.67 420,-263.67 420,-258.33 425.33,-253 430.67,-253"/>
<text text-anchor="start" x="426.5" y="-265.3" font-family="Helvetica,sans-Serif" font-size="14.00">Lw</text>
<path fill="none" stroke="black" d="M430.67,-253C430.67,-253 441.33,-253 441.33,-253 446.67,-253 452,-258.33 452,-263.67 452,-263.67 452,-274.33 452,-274.33 452,-279.67 446.67,-285 441.33,-285 441.33,-285 430.67,-285 430.67,-285 425.33,-285 420,-279.67 420,-274.33 420,-274.33 420,-263.67 420,-263.67 420,-258.33 425.33,-253 430.67,-253"/>
</a>
</g>
</g>
<!-- function&#45;1&#45;Bne -->
<g id="node15" class="node">
<title>function&#45;1&#45;Bne</title>
<g id="a_node15"><a xlink:title="Inst&#45;8: function&#45;1&#45;Bne">
<path fill="white" stroke="transparent" d="M181.67,-411C181.67,-411 198.33,-411 198.33,-411 203.67,-411 209,-416.33 209,-421.67 209,-421.67 209,-432.33 209,-432.33 209,-437.67 203.67,-443 198.33,-443 198.33,-443 181.67,-443 181.67,-443 176.33,-443 171,-437.67 171,-432.33 171,-432.33 171,-421.67 171,-421.67 171,-416.33 176.33,-411 181.67,-411"/>
<text text-anchor="start" x="176" y="-423.3" font-family="Helvetica,sans-Serif" font-size="14.00">Bne</text>
<path fill="none" stroke="black" d="M181.67,-411C181.67,-411 198.33,-411 198.33,-411 203.67,-411 209,-416.33 209,-421.67 209,-421.67 209,-432.33 209,-432.33 209,-437.67 203.67,-443 198.33,-443 198.33,-443 181.67,-443 181.67,-443 176.33,-443 171,-437.67 171,-432.33 171,-432.33 171,-421.67 171,-421.67 171,-416.33 176.33,-411 181.67,-411"/>
</a>
</g>
</g>
<!-- function&#45;0&#45;Seq2 -->
<g id="node16" class="node">
<title>function&#45;0&#45;Seq2</title>
<g id="a_node16"><a xlink:title="Inst&#45;8: function&#45;0&#45;Seq2">
<path fill="white" stroke="transparent" d="M61.67,-411C61.67,-411 86.33,-411 86.33,-411 91.67,-411 97,-416.33 97,-421.67 97,-421.67 97,-432.33 97,-432.33 97,-437.67 91.67,-443 86.33,-443 86.33,-443 61.67,-443 61.67,-443 56.33,-443 51,-437.67 51,-432.33 51,-432.33 51,-421.67 51,-421.67 51,-416.33 56.33,-411 61.67,-411"/>
<text text-anchor="start" x="56" y="-423.3" font-family="Helvetica,sans-Serif" font-size="14.00">Seq2</text>
<path fill="none" stroke="black" d="M61.67,-411C61.67,-411 86.33,-411 86.33,-411 91.67,-411 97,-416.33 97,-421.67 97,-421.67 97,-432.33 97,-432.33 97,-437.67 91.67,-443 86.33,-443 86.33,-443 61.67,-443 61.67,-443 56.33,-443 51,-437.67 51,-432.33 51,-432.33 51,-421.67 51,-421.67 51,-416.33 56.33,-411 61.67,-411"/>
</a>
</g>
</g>
<!-- function&#45;0&#45;Beq -->
<g id="node17" class="node">
<title>function&#45;0&#45;Beq</title>
<g id="a_node17"><a xlink:title="Inst&#45;9: function&#45;0&#45;Beq">
<path fill="white" stroke="transparent" d="M171.67,-332C171.67,-332 188.33,-332 188.33,-332 193.67,-332 199,-337.33 199,-342.67 199,-342.67 199,-353.33 199,-353.33 199,-358.67 193.67,-364 188.33,-364 188.33,-364 171.67,-364 171.67,-364 166.33,-364 161,-358.67 161,-353.33 161,-353.33 161,-342.67 161,-342.67 161,-337.33 166.33,-332 171.67,-332"/>
<text text-anchor="start" x="166" y="-344.3" font-family="Helvetica,sans-Serif" font-size="14.00">Beq</text>
<path fill="none" stroke="black" d="M171.67,-332C171.67,-332 188.33,-332 188.33,-332 193.67,-332 199,-337.33 199,-342.67 199,-342.67 199,-353.33 199,-353.33 199,-358.67 193.67,-364 188.33,-364 188.33,-364 171.67,-364 171.67,-364 166.33,-364 161,-358.67 161,-353.33 161,-353.33 161,-342.67 161,-342.67 161,-337.33 166.33,-332 171.67,-332"/>
</a>
</g>
</g>
<!-- function&#45;0&#45;Jal -->
<g id="node18" class="node">
<title>function&#45;0&#45;Jal</title>
<g id="a_node18"><a xlink:title="Inst&#45;10: function&#45;0&#45;Jal">
<path fill="white" stroke="transparent" d="M86.67,-332C86.67,-332 97.33,-332 97.33,-332 102.67,-332 108,-337.33 108,-342.67 108,-342.67 108,-353.33 108,-353.33 108,-358.67 102.67,-364 97.33,-364 97.33,-364 86.67,-364 86.67,-364 81.33,-364 76,-358.67 76,-353.33 76,-353.33 76,-342.67 76,-342.67 76,-337.33 81.33,-332 86.67,-332"/>
<text text-anchor="start" x="83.5" y="-344.3" font-family="Helvetica,sans-Serif" font-size="14.00">Jal</text>
<path fill="none" stroke="black" d="M86.67,-332C86.67,-332 97.33,-332 97.33,-332 102.67,-332 108,-337.33 108,-342.67 108,-342.67 108,-353.33 108,-353.33 108,-358.67 102.67,-364 97.33,-364 97.33,-364 86.67,-364 86.67,-364 81.33,-364 76,-358.67 76,-353.33 76,-353.33 76,-342.67 76,-342.67 76,-337.33 81.33,-332 86.67,-332"/>
</a>
</g>
</g>
<!-- function&#45;1&#45;Beq -->
<g id="node19" class="node">
<title>function&#45;1&#45;Beq</title>
<g id="a_node19"><a xlink:title="Inst&#45;9: function&#45;1&#45;Beq">
<path fill="white" stroke="transparent" d="M229.67,-332C229.67,-332 246.33,-332 246.33,-332 251.67,-332 257,-337.33 257,-342.67 257,-342.67 257,-353.33 257,-353.33 257,-358.67 251.67,-364 246.33,-364 246.33,-364 229.67,-364 229.67,-364 224.33,-364 219,-358.67 219,-353.33 219,-353.33 219,-342.67 219,-342.67 219,-337.33 224.33,-332 229.67,-332"/>
<text text-anchor="start" x="224" y="-344.3" font-family="Helvetica,sans-Serif" font-size="14.00">Beq</text>
<path fill="none" stroke="black" d="M229.67,-332C229.67,-332 246.33,-332 246.33,-332 251.67,-332 257,-337.33 257,-342.67 257,-342.67 257,-353.33 257,-353.33 257,-358.67 251.67,-364 246.33,-364 246.33,-364 229.67,-364 229.67,-364 224.33,-364 219,-358.67 219,-353.33 219,-353.33 219,-342.67 219,-342.67 219,-337.33 224.33,-332 229.67,-332"/>
</a>
</g>
</g>
<!-- function&#45;1&#45;Seq2 -->
<g id="node20" class="node">
<title>function&#45;1&#45;Seq2</title>
<g id="a_node20"><a xlink:title="Inst&#45;9: function&#45;1&#45;Seq2">
<path fill="white" stroke="transparent" d="M283.67,-332C283.67,-332 308.33,-332 308.33,-332 313.67,-332 319,-337.33 319,-342.67 319,-342.67 319,-353.33 319,-353.33 319,-358.67 313.67,-364 308.33,-364 308.33,-364 283.67,-364 283.67,-364 278.33,-364 273,-358.67 273,-353.33 273,-353.33 273,-342.67 273,-342.67 273,-337.33 278.33,-332 283.67,-332"/>
<text text-anchor="start" x="278" y="-344.3" font-family="Helvetica,sans-Serif" font-size="14.00">Seq2</text>
<path fill="none" stroke="black" d="M283.67,-332C283.67,-332 308.33,-332 308.33,-332 313.67,-332 319,-337.33 319,-342.67 319,-342.67 319,-353.33 319,-353.33 319,-358.67 313.67,-364 308.33,-364 308.33,-364 283.67,-364 283.67,-364 278.33,-364 273,-358.67 273,-353.33 273,-353.33 273,-342.67 273,-342.67 273,-337.33 278.33,-332 283.67,-332"/>
</a>
</g>
</g>
<!-- function&#45;2&#45;Bne -->
<g id="node21" class="node">
<title>function&#45;2&#45;Bne</title>
<g id="a_node21"><a xlink:title="Inst&#45;11: function&#45;2&#45;Bne">
<path fill="white" stroke="transparent" d="M411.67,-332C411.67,-332 428.33,-332 428.33,-332 433.67,-332 439,-337.33 439,-342.67 439,-342.67 439,-353.33 439,-353.33 439,-358.67 433.67,-364 428.33,-364 428.33,-364 411.67,-364 411.67,-364 406.33,-364 401,-358.67 401,-353.33 401,-353.33 401,-342.67 401,-342.67 401,-337.33 406.33,-332 411.67,-332"/>
<text text-anchor="start" x="406" y="-344.3" font-family="Helvetica,sans-Serif" font-size="14.00">Bne</text>
<path fill="none" stroke="black" d="M411.67,-332C411.67,-332 428.33,-332 428.33,-332 433.67,-332 439,-337.33 439,-342.67 439,-342.67 439,-353.33 439,-353.33 439,-358.67 433.67,-364 428.33,-364 428.33,-364 411.67,-364 411.67,-364 406.33,-364 401,-358.67 401,-353.33 401,-353.33 401,-342.67 401,-342.67 401,-337.33 406.33,-332 411.67,-332"/>
</a>
</g>
</g>
<!-- function&#45;1&#45;Jal -->
<g id="node22" class="node">
<title>function&#45;1&#45;Jal</title>
<g id="a_node22"><a xlink:title="Inst&#45;12: function&#45;1&#45;Jal">
<path fill="white" stroke="transparent" d="M342.67,-253C342.67,-253 353.33,-253 353.33,-253 358.67,-253 364,-258.33 364,-263.67 364,-263.67 364,-274.33 364,-274.33 364,-279.67 358.67,-285 353.33,-285 353.33,-285 342.67,-285 342.67,-285 337.33,-285 332,-279.67 332,-274.33 332,-274.33 332,-263.67 332,-263.67 332,-258.33 337.33,-253 342.67,-253"/>
<text text-anchor="start" x="339.5" y="-265.3" font-family="Helvetica,sans-Serif" font-size="14.00">Jal</text>
<path fill="none" stroke="black" d="M342.67,-253C342.67,-253 353.33,-253 353.33,-253 358.67,-253 364,-258.33 364,-263.67 364,-263.67 364,-274.33 364,-274.33 364,-279.67 358.67,-285 353.33,-285 353.33,-285 342.67,-285 342.67,-285 337.33,-285 332,-279.67 332,-274.33 332,-274.33 332,-263.67 332,-263.67 332,-258.33 337.33,-253 342.67,-253"/>
</a>
</g>
</g>
<!-- function&#45;3&#45;Bne -->
<g id="node23" class="node">
<title>function&#45;3&#45;Bne</title>
<g id="a_node23"><a xlink:title="Inst&#45;11: function&#45;3&#45;Bne">
<path fill="white" stroke="transparent" d="M469.67,-332C469.67,-332 486.33,-332 486.33,-332 491.67,-332 497,-337.33 497,-342.67 497,-342.67 497,-353.33 497,-353.33 497,-358.67 491.67,-364 486.33,-364 486.33,-364 469.67,-364 469.67,-364 464.33,-364 459,-358.67 459,-353.33 459,-353.33 459,-342.67 459,-342.67 459,-337.33 464.33,-332 469.67,-332"/>
<text text-anchor="start" x="464" y="-344.3" font-family="Helvetica,sans-Serif" font-size="14.00">Bne</text>
<path fill="none" stroke="black" d="M469.67,-332C469.67,-332 486.33,-332 486.33,-332 491.67,-332 497,-337.33 497,-342.67 497,-342.67 497,-353.33 497,-353.33 497,-358.67 491.67,-364 486.33,-364 486.33,-364 469.67,-364 469.67,-364 464.33,-364 459,-358.67 459,-353.33 459,-353.33 459,-342.67 459,-342.67 459,-337.33 464.33,-332 469.67,-332"/>
</a>
</g>
</g>
<!-- function&#45;2&#45;Seq2 -->
<g id="node24" class="node">
<title>function&#45;2&#45;Seq2</title>
<g id="a_node24"><a xlink:title="Inst&#45;11: function&#45;2&#45;Seq2">
<path fill="white" stroke="transparent" d="M349.67,-332C349.67,-332 374.33,-332 374.33,-332 379.67,-332 385,-337.33 385,-342.67 385,-342.67 385,-353.33 385,-353.33 385,-358.67 379.67,-364 374.33,-364 374.33,-364 349.67,-364 349.67,-364 344.33,-364 339,-358.67 339,-353.33 339,-353.33 339,-342.67 339,-342.67 339,-337.33 344.33,-332 349.67,-332"/>
<text text-anchor="start" x="344" y="-344.3" font-family="Helvetica,sans-Serif" font-size="14.00">Seq2</text>
<path fill="none" stroke="black" d="M349.67,-332C349.67,-332 374.33,-332 374.33,-332 379.67,-332 385,-337.33 385,-342.67 385,-342.67 385,-353.33 385,-353.33 385,-358.67 379.67,-364 374.33,-364 374.33,-364 349.67,-364 349.67,-364 344.33,-364 339,-358.67 339,-353.33 339,-353.33 339,-342.67 339,-342.67 339,-337.33 344.33,-332 349.67,-332"/>
</a>
</g>
</g>
</g>
</svg>
