<?xml version="1.0" encoding="UTF-8" standalone="no"?>
<!DOCTYPE svg PUBLIC "-//W3C//DTD SVG 1.1//EN"
 "http://www.w3.org/Graphics/SVG/1.1/DTD/svg11.dtd">
<!-- Generated by graphviz version 2.43.0 (0)
 -->
<!-- Title: %3 Pages: 1 -->
<svg width="537pt" height="467pt"
 viewBox="0.00 0.00 537.24 467.00" xmlns="http://www.w3.org/2000/svg" xmlns:xlink="http://www.w3.org/1999/xlink">
<g id="graph0" class="graph" transform="scale(1 1) rotate(0) translate(4 463)">
<title>%3</title>
<polygon fill="white" stroke="#000000" points="-4,4 -4,-463 533.24,-463 533.24,4 -4,4"/>
<g id="clust1" class="cluster">
<title>outer_cluster_Imm&#45;7</title>
</g>
<g id="clust2" class="cluster">
<title>cluster_Imm&#45;7</title>
<path fill="#ffffb3" stroke="black" stroke-dasharray="5,2" d="M23,-248C23,-248 83,-248 83,-248 89,-248 95,-254 95,-260 95,-260 95,-278 95,-278 95,-284 89,-290 83,-290 83,-290 23,-290 23,-290 17,-290 11,-284 11,-278 11,-278 11,-260 11,-260 11,-254 17,-248 23,-248"/>
</g>
<g id="clust4" class="cluster">
<title>outer_cluster_Imm&#45;5</title>
</g>
<g id="clust5" class="cluster">
<title>cluster_Imm&#45;5</title>
<path fill="#ffffb3" stroke="black" stroke-dasharray="5,2" d="M373,-169C373,-169 417,-169 417,-169 423,-169 429,-175 429,-181 429,-181 429,-199 429,-199 429,-205 423,-211 417,-211 417,-211 373,-211 373,-211 367,-211 361,-205 361,-199 361,-199 361,-181 361,-181 361,-175 367,-169 373,-169"/>
</g>
<g id="clust7" class="cluster">
<title>outer_cluster_Imm&#45;3</title>
</g>
<g id="clust8" class="cluster">
<title>cluster_Imm&#45;3</title>
<path fill="#ffffb3" stroke="black" stroke-dasharray="5,2" d="M443,-90C443,-90 487,-90 487,-90 493,-90 499,-96 499,-102 499,-102 499,-120 499,-120 499,-126 493,-132 487,-132 487,-132 443,-132 443,-132 437,-132 431,-126 431,-120 431,-120 431,-102 431,-102 431,-96 437,-90 443,-90"/>
</g>
<g id="clust10" class="cluster">
<title>outer_cluster_Imm&#45;1</title>
</g>
<g id="clust11" class="cluster">
<title>cluster_Imm&#45;1</title>
<path fill="#ffffb3" stroke="black" stroke-dasharray="5,2" d="M282,-169C282,-169 326,-169 326,-169 332,-169 338,-175 338,-181 338,-181 338,-199 338,-199 338,-205 332,-211 326,-211 326,-211 282,-211 282,-211 276,-211 270,-205 270,-199 270,-199 270,-181 270,-181 270,-175 276,-169 282,-169"/>
</g>
<g id="clust13" class="cluster">
<title>outer_cluster_Inst&#45;9</title>
</g>
<g id="clust14" class="cluster">
<title>cluster_Inst&#45;9</title>
<path fill="#bebada" stroke="black" stroke-dasharray="5,2" d="M162,-327C162,-327 314,-327 314,-327 320,-327 326,-333 326,-339 326,-339 326,-357 326,-357 326,-363 320,-369 314,-369 314,-369 162,-369 162,-369 156,-369 150,-363 150,-357 150,-357 150,-339 150,-339 150,-333 156,-327 162,-327"/>
</g>
<g id="clust16" class="cluster">
<title>outer_cluster_Inst&#45;2</title>
</g>
<g id="clust17" class="cluster">
<title>cluster_Inst&#45;2</title>
<path fill="#bebada" stroke="black" stroke-dasharray="5,2" d="M210,-248C210,-248 246,-248 246,-248 252,-248 258,-254 258,-260 258,-260 258,-278 258,-278 258,-284 252,-290 246,-290 246,-290 210,-290 210,-290 204,-290 198,-284 198,-278 198,-278 198,-260 198,-260 198,-254 204,-248 210,-248"/>
</g>
<g id="clust19" class="cluster">
<title>outer_cluster_Inst&#45;10</title>
</g>
<g id="clust20" class="cluster">
<title>cluster_Inst&#45;10</title>
<path fill="#bebada" stroke="black" stroke-dasharray="5,2" d="M74,-327C74,-327 110,-327 110,-327 116,-327 122,-333 122,-339 122,-339 122,-357 122,-357 122,-363 116,-369 110,-369 110,-369 74,-369 74,-369 68,-369 62,-363 62,-357 62,-357 62,-339 62,-339 62,-333 68,-327 74,-327"/>
</g>
<g id="clust22" class="cluster">
<title>outer_cluster_Inst&#45;8</title>
</g>
<g id="clust23" class="cluster">
<title>cluster_Inst&#45;8</title>
<path fill="#bebada" stroke="black" stroke-dasharray="5,2" d="M63,-406C63,-406 215,-406 215,-406 221,-406 227,-412 227,-418 227,-418 227,-436 227,-436 227,-442 221,-448 215,-448 215,-448 63,-448 63,-448 57,-448 51,-442 51,-436 51,-436 51,-418 51,-418 51,-412 57,-406 63,-406"/>
</g>
<g id="clust25" class="cluster">
<title>outer_cluster_Inst&#45;12</title>
</g>
<g id="clust26" class="cluster">
<title>cluster_Inst&#45;12</title>
<path fill="#bebada" stroke="black" stroke-dasharray="5,2" d="M298,-248C298,-248 334,-248 334,-248 340,-248 346,-254 346,-260 346,-260 346,-278 346,-278 346,-284 340,-290 334,-290 334,-290 298,-290 298,-290 292,-290 286,-284 286,-278 286,-278 286,-260 286,-260 286,-254 292,-248 298,-248"/>
</g>
<g id="clust28" class="cluster">
<title>outer_cluster_Inst&#45;6</title>
</g>
<g id="clust29" class="cluster">
<title>cluster_Inst&#45;6</title>
<path fill="#bebada" stroke="black" stroke-dasharray="5,2" d="M427,-248C427,-248 463,-248 463,-248 469,-248 475,-254 475,-260 475,-260 475,-278 475,-278 475,-284 469,-290 463,-290 463,-290 427,-290 427,-290 421,-290 415,-284 415,-278 415,-278 415,-260 415,-260 415,-254 421,-248 427,-248"/>
</g>
<g id="clust31" class="cluster">
<title>outer_cluster_Inst&#45;11</title>
</g>
<g id="clust32" class="cluster">
<title>cluster_Inst&#45;11</title>
<path fill="#bebada" stroke="black" stroke-dasharray="5,2" d="M344,-327C344,-327 496,-327 496,-327 502,-327 508,-333 508,-339 508,-339 508,-357 508,-357 508,-363 502,-369 496,-369 496,-369 344,-369 344,-369 338,-369 332,-363 332,-357 332,-357 332,-339 332,-339 332,-333 338,-327 344,-327"/>
</g>
<g id="clust34" class="cluster">
<title>outer_cluster_Inst&#45;0</title>
</g>
<g id="clust35" class="cluster">
<title>cluster_Inst&#45;0</title>
<path fill="#bebada" stroke="black" stroke-dasharray="5,2" d="M200,-169C200,-169 240,-169 240,-169 246,-169 252,-175 252,-181 252,-181 252,-199 252,-199 252,-205 246,-211 240,-211 240,-211 200,-211 200,-211 194,-211 188,-205 188,-199 188,-199 188,-181 188,-181 188,-175 194,-169 200,-169"/>
</g>
<g id="clust37" class="cluster">
<title>outer_cluster_Inst&#45;4</title>
</g>
<g id="clust38" class="cluster">
<title>cluster_Inst&#45;4</title>
<path fill="#bebada" stroke="black" stroke-dasharray="5,2" d="M447,-169C447,-169 483,-169 483,-169 489,-169 495,-175 495,-181 495,-181 495,-199 495,-199 495,-205 489,-211 483,-211 483,-211 447,-211 447,-211 441,-211 435,-205 435,-199 435,-199 435,-181 435,-181 435,-175 441,-169 447,-169"/>
</g>
<g id="clust40" class="cluster">
<title>outer_cluster_String&#45;2</title>
</g>
<g id="clust41" class="cluster">
<title>cluster_String&#45;2</title>
<path fill="#fb8072" stroke="black" stroke-dasharray="5,2" d="M36,-169C36,-169 72,-169 72,-169 78,-169 84,-175 84,-181 84,-181 84,-199 84,-199 84,-205 78,-211 72,-211 72,-211 36,-211 36,-211 30,-211 24,-205 24,-199 24,-199 24,-181 24,-181 24,-175 30,-169 36,-169"/>
</g>
<g id="clust43" class="cluster">
<title>outer_cluster_String&#45;1</title>
</g>
<g id="clust44" class="cluster">
<title>cluster_String&#45;1</title>
<path fill="#fb8072" stroke="black" stroke-dasharray="5,2" d="M202,-90C202,-90 240,-90 240,-90 246,-90 252,-96 252,-102 252,-102 252,-120 252,-120 252,-126 246,-132 240,-132 240,-132 202,-132 202,-132 196,-132 190,-126 190,-120 190,-120 190,-102 190,-102 190,-96 196,-90 202,-90"/>
</g>
<g id="clust46" class="cluster">
<title>outer_cluster_i64&#45;1807</title>
</g>
<g id="clust47" class="cluster">
<title>cluster_i64&#45;1807</title>
<path fill="#80b1d3" stroke="black" stroke-dasharray="5,2" d="M377,-90C377,-90 413,-90 413,-90 419,-90 425,-96 425,-102 425,-102 425,-120 425,-120 425,-126 419,-132 413,-132 413,-132 377,-132 377,-132 371,-132 365,-126 365,-120 365,-120 365,-102 365,-102 365,-96 371,-90 377,-90"/>
</g>
<g id="clust49" class="cluster">
<title>outer_cluster_i64&#45;4</title>
</g>
<g id="clust50" class="cluster">
<title>cluster_i64&#45;4</title>
<path fill="#80b1d3" stroke="black" stroke-dasharray="5,2" d="M286,-90C286,-90 322,-90 322,-90 328,-90 334,-96 334,-102 334,-102 334,-120 334,-120 334,-126 328,-132 322,-132 322,-132 286,-132 286,-132 280,-132 274,-126 274,-120 274,-120 274,-102 274,-102 274,-96 280,-90 286,-90"/>
</g>
<g id="clust52" class="cluster">
<title>outer_cluster_i64&#45;2</title>
</g>
<g id="clust53" class="cluster">
<title>cluster_i64&#45;2</title>
<path fill="#80b1d3" stroke="black" stroke-dasharray="5,2" d="M447,-11C447,-11 483,-11 483,-11 489,-11 495,-17 495,-23 495,-23 495,-41 495,-41 495,-47 489,-53 483,-53 483,-53 447,-53 447,-53 441,-53 435,-47 435,-41 435,-41 435,-23 435,-23 435,-17 441,-11 447,-11"/>
</g>
<!-- function&#45;0&#45;ImmLabel&#45;&gt;primitive&#45;String&#45;2 -->
<g id="edge1" class="edge">
<title>function&#45;0&#45;ImmLabel:s&#45;&gt;primitive&#45;String&#45;2</title>
<path fill="none" stroke="black" d="M54,-253C54,-239.84 54,-225.11 54,-213.3"/>
<polygon fill="black" stroke="black" points="55.75,-216 54,-211 52.25,-216 55.75,-216"/>
</g>
<!-- function&#45;2&#45;ImmVal&#45;&gt;primitive&#45;i64&#45;1807 -->
<g id="edge2" class="edge">
<title>function&#45;2&#45;ImmVal:s&#45;&gt;primitive&#45;i64&#45;1807</title>
<path fill="none" stroke="black" d="M395,-174C395,-160.84 395,-146.11 395,-134.3"/>
<polygon fill="black" stroke="black" points="396.75,-137 395,-132 393.25,-137 396.75,-137"/>
</g>
<!-- function&#45;1&#45;ImmVal&#45;&gt;primitive&#45;i64&#45;2 -->
<g id="edge3" class="edge">
<title>function&#45;1&#45;ImmVal:s&#45;&gt;primitive&#45;i64&#45;2</title>
<path fill="none" stroke="black" d="M465,-95C465,-81.84 465,-67.11 465,-55.3"/>
<polygon fill="black" stroke="black" points="466.75,-58 465,-53 463.25,-58 466.75,-58"/>
</g>
<!-- function&#45;0&#45;ImmVal&#45;&gt;primitive&#45;i64&#45;4 -->
<g id="edge4" class="edge">
<title>function&#45;0&#45;ImmVal:s&#45;&gt;primitive&#45;i64&#45;4</title>
<path fill="none" stroke="black" d="M304,-174C304,-160.84 304,-146.11 304,-134.3"/>
<polygon fill="black" stroke="black" points="305.75,-137 304,-132 302.25,-137 305.75,-137"/>
</g>
<!-- function&#45;0&#45;Beq&#45;&gt;function&#45;0&#45;ImmVal -->
<g id="edge7" class="edge">
<title>function&#45;0&#45;Beq:s&#45;&gt;function&#45;0&#45;ImmVal</title>
<path fill="none" stroke="black" d="M194,-332C194,-298.31 238.17,-319.48 259,-293 272.82,-275.43 265.19,-265.54 274,-245 278.76,-233.89 285.15,-222.09 290.81,-212.37"/>
<polygon fill="black" stroke="black" points="289.77,-215.63 292.34,-211 287.44,-213.01 289.77,-215.63"/>
</g>
<!-- function&#45;0&#45;Beq&#45;&gt;function&#45;0&#45;Lw -->
<g id="edge5" class="edge">
<title>function&#45;0&#45;Beq:s&#45;&gt;function&#45;0&#45;Lw</title>
<path fill="none" stroke="black" d="M171,-332C171,-314.51 183.45,-299.83 196.71,-289.15"/>
<polygon fill="black" stroke="black" points="195.49,-292.63 198,-287.96 193.13,-290.05 195.49,-292.63"/>
</g>
<!-- function&#45;0&#45;Beq&#45;&gt;function&#45;0&#45;Addi -->
<g id="edge6" class="edge">
<title>function&#45;0&#45;Beq:s&#45;&gt;function&#45;0&#45;Addi</title>
<path fill="none" stroke="black" d="M185,-332C185,-324.7 58.53,-359.73 347,-293 368.94,-287.92 393.63,-282.13 412.74,-277.63"/>
<polygon fill="black" stroke="black" points="411.45,-280.32 415,-276.39 409.77,-277.25 411.45,-280.32"/>
</g>
<!-- function&#45;0&#45;Lw&#45;&gt;function&#45;0&#45;ImmVal -->
<g id="edge14" class="edge">
<title>function&#45;0&#45;Lw:s&#45;&gt;function&#45;0&#45;ImmVal</title>
<path fill="none" stroke="black" d="M236,-253C236,-233.29 251.8,-218.17 268.17,-207.8"/>
<polygon fill="black" stroke="black" points="267.66,-210.76 270,-206 265.21,-208.26 267.66,-210.76"/>
</g>
<!-- function&#45;0&#45;Lw&#45;&gt;function&#45;0&#45;RegVal -->
<g id="edge13" class="edge">
<title>function&#45;0&#45;Lw:s&#45;&gt;function&#45;0&#45;RegVal</title>
<path fill="none" stroke="black" d="M220,-253C220,-239.84 220,-225.11 220,-213.3"/>
<polygon fill="black" stroke="black" points="221.75,-216 220,-211 218.25,-216 221.75,-216"/>
</g>
<!-- function&#45;0&#45;Addi&#45;&gt;function&#45;2&#45;ImmVal -->
<g id="edge26" class="edge">
<title>function&#45;0&#45;Addi:s&#45;&gt;function&#45;2&#45;ImmVal</title>
<path fill="none" stroke="black" d="M455,-253C455,-235.9 443.06,-221.71 429.84,-211.25"/>
<polygon fill="black" stroke="black" points="433.39,-213.1 429,-210.13 430.58,-215.18 433.39,-213.1"/>
</g>
<!-- function&#45;0&#45;Addi&#45;&gt;function&#45;0&#45;Lui -->
<g id="edge25" class="edge">
<title>function&#45;0&#45;Addi:s&#45;&gt;function&#45;0&#45;Lui</title>
<path fill="none" stroke="black" d="M435,-253C435,-238.54 441.7,-223.9 448.76,-212.48"/>
<polygon fill="black" stroke="black" points="447.81,-215.52 450.58,-211 445.6,-212.81 447.81,-215.52"/>
</g>
<!-- function&#45;1&#45;Beq&#45;&gt;function&#45;0&#45;ImmVal -->
<g id="edge10" class="edge">
<title>function&#45;1&#45;Beq:s&#45;&gt;function&#45;0&#45;ImmVal</title>
<path fill="none" stroke="black" d="M252,-332C252,-312.91 263.14,-310.81 270,-293 278.03,-272.14 277.96,-266.21 285,-245 288.47,-234.56 292.49,-223.05 295.94,-213.35"/>
<polygon fill="black" stroke="black" points="296.1,-216.06 297.68,-211 293.3,-213.97 296.1,-216.06"/>
</g>
<!-- function&#45;1&#45;Beq&#45;&gt;function&#45;0&#45;Lw -->
<g id="edge9" class="edge">
<title>function&#45;1&#45;Beq:s&#45;&gt;function&#45;0&#45;Lw</title>
<path fill="none" stroke="black" d="M243,-332C243,-318.43 239.57,-303.65 235.98,-291.93"/>
<polygon fill="black" stroke="black" points="238.93,-292.82 234.45,-290 236.19,-295 238.93,-292.82"/>
</g>
<!-- function&#45;1&#45;Beq&#45;&gt;function&#45;0&#45;Addi -->
<g id="edge8" class="edge">
<title>function&#45;1&#45;Beq:s&#45;&gt;function&#45;0&#45;Addi</title>
<path fill="none" stroke="black" d="M229,-332C229,-322.56 352.48,-291.95 412.72,-277.58"/>
<polygon fill="black" stroke="black" points="411.35,-280.25 415,-276.41 409.75,-277.14 411.35,-280.25"/>
</g>
<!-- function&#45;1&#45;Seq2&#45;&gt;function&#45;2&#45;Bne -->
<g id="edge11" class="edge">
<title>function&#45;1&#45;Seq2:s&#45;&gt;function&#45;2&#45;Bne</title>
<path fill="none" stroke="black" d="M285,-332C285,-284.81 344.96,-281.06 387,-302.5 396.53,-307.36 403.96,-316.41 409.33,-325.17"/>
<polygon fill="black" stroke="black" points="406.37,-324.62 411.1,-327 408.88,-322.19 406.37,-324.62"/>
</g>
<!-- function&#45;1&#45;Seq2&#45;&gt;function&#45;1&#45;Jal -->
<g id="edge12" class="edge">
<title>function&#45;1&#45;Seq2:s&#45;&gt;function&#45;1&#45;Jal</title>
<path fill="none" stroke="black" d="M307,-332C307,-318.7 309.05,-303.96 311.2,-292.19"/>
<polygon fill="black" stroke="black" points="311.73,-295.28 312.18,-290 308.54,-293.84 311.73,-295.28"/>
</g>
<!-- function&#45;2&#45;Bne&#45;&gt;function&#45;0&#45;ImmVal -->
<g id="edge29" class="edge">
<title>function&#45;2&#45;Bne:s&#45;&gt;function&#45;0&#45;ImmVal</title>
<path fill="none" stroke="black" d="M434,-332C434,-307.49 411.83,-310.82 395,-293 369.18,-265.67 340.46,-233.1 322.33,-212.24"/>
<polygon fill="black" stroke="black" points="325.8,-212.87 320.84,-211 323.55,-215.55 325.8,-212.87"/>
</g>
<!-- function&#45;2&#45;Bne&#45;&gt;function&#45;0&#45;Lw -->
<g id="edge27" class="edge">
<title>function&#45;2&#45;Bne:s&#45;&gt;function&#45;0&#45;Lw</title>
<path fill="none" stroke="black" d="M411,-332C411,-321.6 398.88,-327.27 389,-324 343.2,-308.86 330.53,-308.93 285,-293 276.83,-290.14 268.11,-286.78 260.01,-283.53"/>
<polygon fill="black" stroke="black" points="263.25,-283.2 258,-282.52 261.69,-286.33 263.25,-283.2"/>
</g>
<!-- function&#45;2&#45;Bne&#45;&gt;function&#45;0&#45;Addi -->
<g id="edge28" class="edge">
<title>function&#45;2&#45;Bne:s&#45;&gt;function&#45;0&#45;Addi</title>
<path fill="none" stroke="black" d="M425,-332C425,-318.24 429.51,-303.56 434.25,-291.94"/>
<polygon fill="black" stroke="black" points="434.49,-295.24 435.29,-290 431.4,-293.6 434.49,-295.24"/>
</g>
<!-- function&#45;1&#45;Jal&#45;&gt;function&#45;0&#45;ImmVal -->
<g id="edge24" class="edge">
<title>function&#45;1&#45;Jal:s&#45;&gt;function&#45;0&#45;ImmVal</title>
<path fill="none" stroke="black" d="M316,-253C316,-239.69 313.3,-225.06 310.46,-213.36"/>
<polygon fill="black" stroke="black" points="313.11,-214.53 309.16,-211 310.05,-216.22 313.11,-214.53"/>
</g>
<!-- function&#45;0&#45;RegVal&#45;&gt;primitive&#45;String&#45;1 -->
<g id="edge35" class="edge">
<title>function&#45;0&#45;RegVal:s&#45;&gt;primitive&#45;String&#45;1</title>
<path fill="none" stroke="black" d="M221,-174C221,-160.84 221,-146.11 221,-134.3"/>
<polygon fill="black" stroke="black" points="222.75,-137 221,-132 219.25,-137 222.75,-137"/>
</g>
<!-- function&#45;0&#45;Jal&#45;&gt;function&#45;0&#45;ImmLabel -->
<g id="edge15" class="edge">
<title>function&#45;0&#45;Jal:s&#45;&gt;function&#45;0&#45;ImmLabel</title>
<path fill="none" stroke="black" d="M92,-332C92,-316.82 83.52,-302.32 74.48,-291.17"/>
<polygon fill="black" stroke="black" points="78.05,-291.95 73.13,-290 75.76,-294.6 78.05,-291.95"/>
</g>
<!-- function&#45;0&#45;Bne&#45;&gt;function&#45;0&#45;ImmLabel -->
<g id="edge18" class="edge">
<title>function&#45;0&#45;Bne:s&#45;&gt;function&#45;0&#45;ImmLabel</title>
<path fill="none" stroke="black" d="M153,-411C153,-362.05 77.82,-412.28 50,-372 33.81,-348.55 39.15,-314.31 45.35,-292.09"/>
<polygon fill="black" stroke="black" points="45.41,-295.12 46.77,-290 42.51,-293.16 45.41,-295.12"/>
</g>
<!-- function&#45;0&#45;Bne&#45;&gt;function&#45;0&#45;Lw -->
<g id="edge16" class="edge">
<title>function&#45;0&#45;Bne:s&#45;&gt;function&#45;0&#45;Lw</title>
<path fill="none" stroke="black" d="M130,-411C130,-372.08 119.08,-356.82 140,-324 152.88,-303.79 176.3,-289.97 195.74,-281.37"/>
<polygon fill="black" stroke="black" points="194.24,-284.02 198,-280.29 192.73,-280.86 194.24,-284.02"/>
</g>
<!-- function&#45;0&#45;Bne&#45;&gt;function&#45;0&#45;Addi -->
<g id="edge17" class="edge">
<title>function&#45;0&#45;Bne:s&#45;&gt;function&#45;0&#45;Addi</title>
<path fill="none" stroke="black" d="M144,-411C144,-329.43 454.01,-432.25 509,-372 523.38,-356.24 517.99,-343.35 509,-324 502.12,-309.19 488.96,-296.99 476.35,-287.95"/>
<polygon fill="black" stroke="black" points="480.1,-288.43 475,-287 478.1,-291.3 480.1,-288.43"/>
</g>
<!-- function&#45;1&#45;Bne&#45;&gt;function&#45;0&#45;ImmLabel -->
<g id="edge21" class="edge">
<title>function&#45;1&#45;Bne:s&#45;&gt;function&#45;0&#45;ImmLabel</title>
<path fill="none" stroke="black" d="M211,-411C211,-342.12 105.24,-424.8 61,-372 51.21,-360.32 50.95,-318.48 51.84,-292.16"/>
<polygon fill="black" stroke="black" points="53.34,-295.13 52.03,-290 49.85,-294.83 53.34,-295.13"/>
</g>
<!-- function&#45;1&#45;Bne&#45;&gt;function&#45;0&#45;Lw -->
<g id="edge20" class="edge">
<title>function&#45;1&#45;Bne:s&#45;&gt;function&#45;0&#45;Lw</title>
<path fill="none" stroke="black" d="M202,-411C202,-381.75 162.2,-398.1 149,-372 139.37,-352.96 139.04,-342.87 149,-324 158.92,-305.2 178.67,-291.7 195.93,-282.9"/>
<polygon fill="black" stroke="black" points="194.78,-285.75 198,-281.54 192.86,-282.82 194.78,-285.75"/>
</g>
<!-- function&#45;1&#45;Bne&#45;&gt;function&#45;0&#45;Addi -->
<g id="edge19" class="edge">
<title>function&#45;1&#45;Bne:s&#45;&gt;function&#45;0&#45;Addi</title>
<path fill="none" stroke="black" d="M188,-411C188,-336.71 470.63,-427.51 520,-372 534.18,-356.06 529.73,-342.99 520,-324 510.84,-306.12 492.7,-292.81 476.55,-283.88"/>
<polygon fill="black" stroke="black" points="479.88,-284.54 475,-282.47 477.53,-287.13 479.88,-284.54"/>
</g>
<!-- function&#45;0&#45;Seq2&#45;&gt;function&#45;0&#45;Beq -->
<g id="edge22" class="edge">
<title>function&#45;0&#45;Seq2:s&#45;&gt;function&#45;0&#45;Beq</title>
<path fill="none" stroke="black" d="M70,-411C70,-401.96 115.64,-378.85 148.12,-363.54"/>
<polygon fill="black" stroke="black" points="146.73,-366.5 150,-362.34 144.84,-363.55 146.73,-366.5"/>
</g>
<!-- function&#45;0&#45;Seq2&#45;&gt;function&#45;0&#45;Jal -->
<g id="edge23" class="edge">
<title>function&#45;0&#45;Seq2:s&#45;&gt;function&#45;0&#45;Jal</title>
<path fill="none" stroke="black" d="M92,-411C92,-397.84 92,-383.11 92,-371.3"/>
<polygon fill="black" stroke="black" points="93.75,-374 92,-369 90.25,-374 93.75,-374"/>
</g>
<!-- function&#45;0&#45;Lui&#45;&gt;function&#45;1&#45;ImmVal -->
<g id="edge36" class="edge">
<title>function&#45;0&#45;Lui:s&#45;&gt;function&#45;1&#45;ImmVal</title>
<path fill="none" stroke="black" d="M465,-174C465,-160.84 465,-146.11 465,-134.3"/>
<polygon fill="black" stroke="black" points="466.75,-137 465,-132 463.25,-137 466.75,-137"/>
</g>
<!-- function&#45;3&#45;Bne&#45;&gt;function&#45;0&#45;ImmVal -->
<g id="edge32" class="edge">
<title>function&#45;3&#45;Bne:s&#45;&gt;function&#45;0&#45;ImmVal</title>
<path fill="none" stroke="black" d="M492,-332C492,-293.24 443.92,-317.64 414,-293 393.21,-275.88 396.23,-263.86 377,-245 365.55,-233.77 351.67,-222.94 339.11,-213.97"/>
<polygon fill="black" stroke="black" points="340,-212.45 334.9,-211 337.98,-215.31 340,-212.45"/>
</g>
<!-- function&#45;3&#45;Bne&#45;&gt;function&#45;0&#45;Lw -->
<g id="edge31" class="edge">
<title>function&#45;3&#45;Bne:s&#45;&gt;function&#45;0&#45;Lw</title>
<path fill="none" stroke="black" d="M483,-332C483,-287.15 328.02,-305.66 285,-293 276.78,-290.58 268.1,-287.41 260.07,-284.21"/>
<polygon fill="black" stroke="black" points="263.26,-283.8 258,-283.21 261.75,-286.96 263.26,-283.8"/>
</g>
<!-- function&#45;3&#45;Bne&#45;&gt;function&#45;0&#45;Addi -->
<g id="edge30" class="edge">
<title>function&#45;3&#45;Bne:s&#45;&gt;function&#45;0&#45;Addi</title>
<path fill="none" stroke="black" d="M469,-332C469,-318.06 463.66,-303.48 458.02,-291.96"/>
<polygon fill="black" stroke="black" points="460.95,-293.02 456.6,-290 458.12,-295.08 460.95,-293.02"/>
</g>
<!-- function&#45;2&#45;Seq2&#45;&gt;function&#45;1&#45;Seq2 -->
<g id="edge33" class="edge">
<title>function&#45;2&#45;Seq2:s&#45;&gt;function&#45;1&#45;Seq2</title>
<path fill="none" stroke="black" d="M351,-332C351,-320.59 339.78,-322.91 327.57,-328.8"/>
<polygon fill="black" stroke="black" points="328.71,-325.57 326,-330.12 330.96,-328.26 328.71,-325.57"/>
</g>
<!-- function&#45;2&#45;Seq2&#45;&gt;function&#45;1&#45;Jal -->
<g id="edge34" class="edge">
<title>function&#45;2&#45;Seq2:s&#45;&gt;function&#45;1&#45;Jal</title>
<path fill="none" stroke="black" d="M373,-332C373,-314.51 360.55,-299.83 347.29,-289.15"/>
<polygon fill="black" stroke="black" points="350.87,-290.05 346,-287.96 348.51,-292.63 350.87,-290.05"/>
</g>
<!-- function&#45;0&#45;ImmLabel -->
<g id="node1" class="node">
<title>function&#45;0&#45;ImmLabel</title>
<g id="a_node1"><a xlink:title="Imm&#45;7: function&#45;0&#45;ImmLabel">
<path fill="white" stroke="transparent" d="M24.17,-253C24.17,-253 81.83,-253 81.83,-253 87.17,-253 92.5,-258.33 92.5,-263.67 92.5,-263.67 92.5,-274.33 92.5,-274.33 92.5,-279.67 87.17,-285 81.83,-285 81.83,-285 24.17,-285 24.17,-285 18.83,-285 13.5,-279.67 13.5,-274.33 13.5,-274.33 13.5,-263.67 13.5,-263.67 13.5,-258.33 18.83,-253 24.17,-253"/>
<text text-anchor="start" x="19" y="-265.3" font-family="Helvetica,sans-Serif" font-size="14.00">ImmLabel</text>
<path fill="none" stroke="black" d="M24.17,-253C24.17,-253 81.83,-253 81.83,-253 87.17,-253 92.5,-258.33 92.5,-263.67 92.5,-263.67 92.5,-274.33 92.5,-274.33 92.5,-279.67 87.17,-285 81.83,-285 81.83,-285 24.17,-285 24.17,-285 18.83,-285 13.5,-279.67 13.5,-274.33 13.5,-274.33 13.5,-263.67 13.5,-263.67 13.5,-258.33 18.83,-253 24.17,-253"/>
</a>
</g>
</g>
<!-- primitive&#45;String&#45;2 -->
<g id="node2" class="node">
<title>primitive&#45;String&#45;2</title>
<g id="a_node2"><a xlink:title="String&#45;2: primitive&#45;String&#45;2">
<path fill="white" stroke="transparent" d="M37.67,-174C37.67,-174 70.33,-174 70.33,-174 75.67,-174 81,-179.33 81,-184.67 81,-184.67 81,-195.33 81,-195.33 81,-200.67 75.67,-206 70.33,-206 70.33,-206 37.67,-206 37.67,-206 32.33,-206 27,-200.67 27,-195.33 27,-195.33 27,-184.67 27,-184.67 27,-179.33 32.33,-174 37.67,-174"/>
<text text-anchor="start" x="32" y="-186.3" font-family="Helvetica,sans-Serif" font-size="14.00">&quot;.L41&quot;</text>
<path fill="none" stroke="black" d="M37.67,-174C37.67,-174 70.33,-174 70.33,-174 75.67,-174 81,-179.33 81,-184.67 81,-184.67 81,-195.33 81,-195.33 81,-200.67 75.67,-206 70.33,-206 70.33,-206 37.67,-206 37.67,-206 32.33,-206 27,-200.67 27,-195.33 27,-195.33 27,-184.67 27,-184.67 27,-179.33 32.33,-174 37.67,-174"/>
</a>
</g>
</g>
<!-- function&#45;2&#45;ImmVal -->
<g id="node3" class="node">
<title>function&#45;2&#45;ImmVal</title>
<g id="a_node3"><a xlink:title="Imm&#45;5: function&#45;2&#45;ImmVal">
<path fill="white" stroke="transparent" d="M374.67,-174C374.67,-174 415.33,-174 415.33,-174 420.67,-174 426,-179.33 426,-184.67 426,-184.67 426,-195.33 426,-195.33 426,-200.67 420.67,-206 415.33,-206 415.33,-206 374.67,-206 374.67,-206 369.33,-206 364,-200.67 364,-195.33 364,-195.33 364,-184.67 364,-184.67 364,-179.33 369.33,-174 374.67,-174"/>
<text text-anchor="start" x="369" y="-186.3" font-family="Helvetica,sans-Serif" font-size="14.00">ImmVal</text>
<path fill="none" stroke="black" d="M374.67,-174C374.67,-174 415.33,-174 415.33,-174 420.67,-174 426,-179.33 426,-184.67 426,-184.67 426,-195.33 426,-195.33 426,-200.67 420.67,-206 415.33,-206 415.33,-206 374.67,-206 374.67,-206 369.33,-206 364,-200.67 364,-195.33 364,-195.33 364,-184.67 364,-184.67 364,-179.33 369.33,-174 374.67,-174"/>
</a>
</g>
</g>
<!-- primitive&#45;i64&#45;1807 -->
<g id="node4" class="node">
<title>primitive&#45;i64&#45;1807</title>
<g id="a_node4"><a xlink:title="i64&#45;1807: primitive&#45;i64&#45;1807">
<path fill="white" stroke="transparent" d="M382.17,-95C382.17,-95 407.83,-95 407.83,-95 413.17,-95 418.5,-100.33 418.5,-105.67 418.5,-105.67 418.5,-116.33 418.5,-116.33 418.5,-121.67 413.17,-127 407.83,-127 407.83,-127 382.17,-127 382.17,-127 376.83,-127 371.5,-121.67 371.5,-116.33 371.5,-116.33 371.5,-105.67 371.5,-105.67 371.5,-100.33 376.83,-95 382.17,-95"/>
<text text-anchor="start" x="377" y="-107.3" font-family="Helvetica,sans-Serif" font-size="14.00">1807</text>
<path fill="none" stroke="black" d="M382.17,-95C382.17,-95 407.83,-95 407.83,-95 413.17,-95 418.5,-100.33 418.5,-105.67 418.5,-105.67 418.5,-116.33 418.5,-116.33 418.5,-121.67 413.17,-127 407.83,-127 407.83,-127 382.17,-127 382.17,-127 376.83,-127 371.5,-121.67 371.5,-116.33 371.5,-116.33 371.5,-105.67 371.5,-105.67 371.5,-100.33 376.83,-95 382.17,-95"/>
</a>
</g>
</g>
<!-- function&#45;1&#45;ImmVal -->
<g id="node5" class="node">
<title>function&#45;1&#45;ImmVal</title>
<g id="a_node5"><a xlink:title="Imm&#45;3: function&#45;1&#45;ImmVal">
<path fill="white" stroke="transparent" d="M444.67,-95C444.67,-95 485.33,-95 485.33,-95 490.67,-95 496,-100.33 496,-105.67 496,-105.67 496,-116.33 496,-116.33 496,-121.67 490.67,-127 485.33,-127 485.33,-127 444.67,-127 444.67,-127 439.33,-127 434,-121.67 434,-116.33 434,-116.33 434,-105.67 434,-105.67 434,-100.33 439.33,-95 444.67,-95"/>
<text text-anchor="start" x="439" y="-107.3" font-family="Helvetica,sans-Serif" font-size="14.00">ImmVal</text>
<path fill="none" stroke="black" d="M444.67,-95C444.67,-95 485.33,-95 485.33,-95 490.67,-95 496,-100.33 496,-105.67 496,-105.67 496,-116.33 496,-116.33 496,-121.67 490.67,-127 485.33,-127 485.33,-127 444.67,-127 444.67,-127 439.33,-127 434,-121.67 434,-116.33 434,-116.33 434,-105.67 434,-105.67 434,-100.33 439.33,-95 444.67,-95"/>
</a>
</g>
</g>
<!-- primitive&#45;i64&#45;2 -->
<g id="node6" class="node">
<title>primitive&#45;i64&#45;2</title>
<g id="a_node6"><a xlink:title="i64&#45;2: primitive&#45;i64&#45;2">
<path fill="white" stroke="transparent" d="M459.67,-16C459.67,-16 470.33,-16 470.33,-16 475.67,-16 481,-21.33 481,-26.67 481,-26.67 481,-37.33 481,-37.33 481,-42.67 475.67,-48 470.33,-48 470.33,-48 459.67,-48 459.67,-48 454.33,-48 449,-42.67 449,-37.33 449,-37.33 449,-26.67 449,-26.67 449,-21.33 454.33,-16 459.67,-16"/>
<text text-anchor="start" x="460" y="-28.3" font-family="Helvetica,sans-Serif" font-size="14.00">2</text>
<path fill="none" stroke="black" d="M459.67,-16C459.67,-16 470.33,-16 470.33,-16 475.67,-16 481,-21.33 481,-26.67 481,-26.67 481,-37.33 481,-37.33 481,-42.67 475.67,-48 470.33,-48 470.33,-48 459.67,-48 459.67,-48 454.33,-48 449,-42.67 449,-37.33 449,-37.33 449,-26.67 449,-26.67 449,-21.33 454.33,-16 459.67,-16"/>
</a>
</g>
</g>
<!-- function&#45;0&#45;ImmVal -->
<g id="node7" class="node">
<title>function&#45;0&#45;ImmVal</title>
<g id="a_node7"><a xlink:title="Imm&#45;1: function&#45;0&#45;ImmVal">
<path fill="white" stroke="transparent" d="M283.67,-174C283.67,-174 324.33,-174 324.33,-174 329.67,-174 335,-179.33 335,-184.67 335,-184.67 335,-195.33 335,-195.33 335,-200.67 329.67,-206 324.33,-206 324.33,-206 283.67,-206 283.67,-206 278.33,-206 273,-200.67 273,-195.33 273,-195.33 273,-184.67 273,-184.67 273,-179.33 278.33,-174 283.67,-174"/>
<text text-anchor="start" x="278" y="-186.3" font-family="Helvetica,sans-Serif" font-size="14.00">ImmVal</text>
<path fill="none" stroke="black" d="M283.67,-174C283.67,-174 324.33,-174 324.33,-174 329.67,-174 335,-179.33 335,-184.67 335,-184.67 335,-195.33 335,-195.33 335,-200.67 329.67,-206 324.33,-206 324.33,-206 283.67,-206 283.67,-206 278.33,-206 273,-200.67 273,-195.33 273,-195.33 273,-184.67 273,-184.67 273,-179.33 278.33,-174 283.67,-174"/>
</a>
</g>
</g>
<!-- primitive&#45;i64&#45;4 -->
<g id="node8" class="node">
<title>primitive&#45;i64&#45;4</title>
<g id="a_node8"><a xlink:title="i64&#45;4: primitive&#45;i64&#45;4">
<path fill="white" stroke="transparent" d="M298.67,-95C298.67,-95 309.33,-95 309.33,-95 314.67,-95 320,-100.33 320,-105.67 320,-105.67 320,-116.33 320,-116.33 320,-121.67 314.67,-127 309.33,-127 309.33,-127 298.67,-127 298.67,-127 293.33,-127 288,-121.67 288,-116.33 288,-116.33 288,-105.67 288,-105.67 288,-100.33 293.33,-95 298.67,-95"/>
<text text-anchor="start" x="299" y="-107.3" font-family="Helvetica,sans-Serif" font-size="14.00">4</text>
<path fill="none" stroke="black" d="M298.67,-95C298.67,-95 309.33,-95 309.33,-95 314.67,-95 320,-100.33 320,-105.67 320,-105.67 320,-116.33 320,-116.33 320,-121.67 314.67,-127 309.33,-127 309.33,-127 298.67,-127 298.67,-127 293.33,-127 288,-121.67 288,-116.33 288,-116.33 288,-105.67 288,-105.67 288,-100.33 293.33,-95 298.67,-95"/>
</a>
</g>
</g>
<!-- function&#45;0&#45;Beq -->
<g id="node9" class="node">
<title>function&#45;0&#45;Beq</title>
<g id="a_node9"><a xlink:title="Inst&#45;9: function&#45;0&#45;Beq">
<path fill="white" stroke="transparent" d="M171.67,-332C171.67,-332 188.33,-332 188.33,-332 193.67,-332 199,-337.33 199,-342.67 199,-342.67 199,-353.33 199,-353.33 199,-358.67 193.67,-364 188.33,-364 188.33,-364 171.67,-364 171.67,-364 166.33,-364 161,-358.67 161,-353.33 161,-353.33 161,-342.67 161,-342.67 161,-337.33 166.33,-332 171.67,-332"/>
<text text-anchor="start" x="166" y="-344.3" font-family="Helvetica,sans-Serif" font-size="14.00">Beq</text>
<path fill="none" stroke="black" d="M171.67,-332C171.67,-332 188.33,-332 188.33,-332 193.67,-332 199,-337.33 199,-342.67 199,-342.67 199,-353.33 199,-353.33 199,-358.67 193.67,-364 188.33,-364 188.33,-364 171.67,-364 171.67,-364 166.33,-364 161,-358.67 161,-353.33 161,-353.33 161,-342.67 161,-342.67 161,-337.33 166.33,-332 171.67,-332"/>
</a>
</g>
</g>
<!-- function&#45;0&#45;Lw -->
<g id="node10" class="node">
<title>function&#45;0&#45;Lw</title>
<g id="a_node10"><a xlink:title="Inst&#45;2: function&#45;0&#45;Lw">
<path fill="white" stroke="transparent" d="M222.67,-253C222.67,-253 233.33,-253 233.33,-253 238.67,-253 244,-258.33 244,-263.67 244,-263.67 244,-274.33 244,-274.33 244,-279.67 238.67,-285 233.33,-285 233.33,-285 222.67,-285 222.67,-285 217.33,-285 212,-279.67 212,-274.33 212,-274.33 212,-263.67 212,-263.67 212,-258.33 217.33,-253 222.67,-253"/>
<text text-anchor="start" x="218.5" y="-265.3" font-family="Helvetica,sans-Serif" font-size="14.00">Lw</text>
<path fill="none" stroke="black" d="M222.67,-253C222.67,-253 233.33,-253 233.33,-253 238.67,-253 244,-258.33 244,-263.67 244,-263.67 244,-274.33 244,-274.33 244,-279.67 238.67,-285 233.33,-285 233.33,-285 222.67,-285 222.67,-285 217.33,-285 212,-279.67 212,-274.33 212,-274.33 212,-263.67 212,-263.67 212,-258.33 217.33,-253 222.67,-253"/>
</a>
</g>
</g>
<!-- function&#45;0&#45;Addi -->
<g id="node11" class="node">
<title>function&#45;0&#45;Addi</title>
<g id="a_node11"><a xlink:title="Inst&#45;6: function&#45;0&#45;Addi">
<path fill="white" stroke="transparent" d="M435.17,-253C435.17,-253 454.83,-253 454.83,-253 460.17,-253 465.5,-258.33 465.5,-263.67 465.5,-263.67 465.5,-274.33 465.5,-274.33 465.5,-279.67 460.17,-285 454.83,-285 454.83,-285 435.17,-285 435.17,-285 429.83,-285 424.5,-279.67 424.5,-274.33 424.5,-274.33 424.5,-263.67 424.5,-263.67 424.5,-258.33 429.83,-253 435.17,-253"/>
<text text-anchor="start" x="430" y="-265.3" font-family="Helvetica,sans-Serif" font-size="14.00">Addi</text>
<path fill="none" stroke="black" d="M435.17,-253C435.17,-253 454.83,-253 454.83,-253 460.17,-253 465.5,-258.33 465.5,-263.67 465.5,-263.67 465.5,-274.33 465.5,-274.33 465.5,-279.67 460.17,-285 454.83,-285 454.83,-285 435.17,-285 435.17,-285 429.83,-285 424.5,-279.67 424.5,-274.33 424.5,-274.33 424.5,-263.67 424.5,-263.67 424.5,-258.33 429.83,-253 435.17,-253"/>
</a>
</g>
</g>
<!-- function&#45;1&#45;Beq -->
<g id="node12" class="node">
<title>function&#45;1&#45;Beq</title>
<g id="a_node12"><a xlink:title="Inst&#45;9: function&#45;1&#45;Beq">
<path fill="white" stroke="transparent" d="M229.67,-332C229.67,-332 246.33,-332 246.33,-332 251.67,-332 257,-337.33 257,-342.67 257,-342.67 257,-353.33 257,-353.33 257,-358.67 251.67,-364 246.33,-364 246.33,-364 229.67,-364 229.67,-364 224.33,-364 219,-358.67 219,-353.33 219,-353.33 219,-342.67 219,-342.67 219,-337.33 224.33,-332 229.67,-332"/>
<text text-anchor="start" x="224" y="-344.3" font-family="Helvetica,sans-Serif" font-size="14.00">Beq</text>
<path fill="none" stroke="black" d="M229.67,-332C229.67,-332 246.33,-332 246.33,-332 251.67,-332 257,-337.33 257,-342.67 257,-342.67 257,-353.33 257,-353.33 257,-358.67 251.67,-364 246.33,-364 246.33,-364 229.67,-364 229.67,-364 224.33,-364 219,-358.67 219,-353.33 219,-353.33 219,-342.67 219,-342.67 219,-337.33 224.33,-332 229.67,-332"/>
</a>
</g>
</g>
<!-- function&#45;1&#45;Seq2 -->
<g id="node13" class="node">
<title>function&#45;1&#45;Seq2</title>
<g id="a_node13"><a xlink:title="Inst&#45;9: function&#45;1&#45;Seq2">
<path fill="white" stroke="transparent" d="M283.67,-332C283.67,-332 308.33,-332 308.33,-332 313.67,-332 319,-337.33 319,-342.67 319,-342.67 319,-353.33 319,-353.33 319,-358.67 313.67,-364 308.33,-364 308.33,-364 283.67,-364 283.67,-364 278.33,-364 273,-358.67 273,-353.33 273,-353.33 273,-342.67 273,-342.67 273,-337.33 278.33,-332 283.67,-332"/>
<text text-anchor="start" x="278" y="-344.3" font-family="Helvetica,sans-Serif" font-size="14.00">Seq2</text>
<path fill="none" stroke="black" d="M283.67,-332C283.67,-332 308.33,-332 308.33,-332 313.67,-332 319,-337.33 319,-342.67 319,-342.67 319,-353.33 319,-353.33 319,-358.67 313.67,-364 308.33,-364 308.33,-364 283.67,-364 283.67,-364 278.33,-364 273,-358.67 273,-353.33 273,-353.33 273,-342.67 273,-342.67 273,-337.33 278.33,-332 283.67,-332"/>
</a>
</g>
</g>
<!-- function&#45;2&#45;Bne -->
<g id="node14" class="node">
<title>function&#45;2&#45;Bne</title>
<g id="a_node14"><a xlink:title="Inst&#45;11: function&#45;2&#45;Bne">
<path fill="white" stroke="transparent" d="M411.67,-332C411.67,-332 428.33,-332 428.33,-332 433.67,-332 439,-337.33 439,-342.67 439,-342.67 439,-353.33 439,-353.33 439,-358.67 433.67,-364 428.33,-364 428.33,-364 411.67,-364 411.67,-364 406.33,-364 401,-358.67 401,-353.33 401,-353.33 401,-342.67 401,-342.67 401,-337.33 406.33,-332 411.67,-332"/>
<text text-anchor="start" x="406" y="-344.3" font-family="Helvetica,sans-Serif" font-size="14.00">Bne</text>
<path fill="none" stroke="black" d="M411.67,-332C411.67,-332 428.33,-332 428.33,-332 433.67,-332 439,-337.33 439,-342.67 439,-342.67 439,-353.33 439,-353.33 439,-358.67 433.67,-364 428.33,-364 428.33,-364 411.67,-364 411.67,-364 406.33,-364 401,-358.67 401,-353.33 401,-353.33 401,-342.67 401,-342.67 401,-337.33 406.33,-332 411.67,-332"/>
</a>
</g>
</g>
<!-- function&#45;1&#45;Jal -->
<g id="node15" class="node">
<title>function&#45;1&#45;Jal</title>
<g id="a_node15"><a xlink:title="Inst&#45;12: function&#45;1&#45;Jal">
<path fill="white" stroke="transparent" d="M310.67,-253C310.67,-253 321.33,-253 321.33,-253 326.67,-253 332,-258.33 332,-263.67 332,-263.67 332,-274.33 332,-274.33 332,-279.67 326.67,-285 321.33,-285 321.33,-285 310.67,-285 310.67,-285 305.33,-285 300,-279.67 300,-274.33 300,-274.33 300,-263.67 300,-263.67 300,-258.33 305.33,-253 310.67,-253"/>
<text text-anchor="start" x="307.5" y="-265.3" font-family="Helvetica,sans-Serif" font-size="14.00">Jal</text>
<path fill="none" stroke="black" d="M310.67,-253C310.67,-253 321.33,-253 321.33,-253 326.67,-253 332,-258.33 332,-263.67 332,-263.67 332,-274.33 332,-274.33 332,-279.67 326.67,-285 321.33,-285 321.33,-285 310.67,-285 310.67,-285 305.33,-285 300,-279.67 300,-274.33 300,-274.33 300,-263.67 300,-263.67 300,-258.33 305.33,-253 310.67,-253"/>
</a>
</g>
</g>
<!-- function&#45;0&#45;RegVal -->
<g id="node16" class="node">
<title>function&#45;0&#45;RegVal</title>
<g id="a_node16"><a xlink:title="Inst&#45;0: function&#45;0&#45;RegVal">
<path fill="white" stroke="transparent" d="M202.17,-174C202.17,-174 237.83,-174 237.83,-174 243.17,-174 248.5,-179.33 248.5,-184.67 248.5,-184.67 248.5,-195.33 248.5,-195.33 248.5,-200.67 243.17,-206 237.83,-206 237.83,-206 202.17,-206 202.17,-206 196.83,-206 191.5,-200.67 191.5,-195.33 191.5,-195.33 191.5,-184.67 191.5,-184.67 191.5,-179.33 196.83,-174 202.17,-174"/>
<text text-anchor="start" x="197" y="-186.3" font-family="Helvetica,sans-Serif" font-size="14.00">RegVal</text>
<path fill="none" stroke="black" d="M202.17,-174C202.17,-174 237.83,-174 237.83,-174 243.17,-174 248.5,-179.33 248.5,-184.67 248.5,-184.67 248.5,-195.33 248.5,-195.33 248.5,-200.67 243.17,-206 237.83,-206 237.83,-206 202.17,-206 202.17,-206 196.83,-206 191.5,-200.67 191.5,-195.33 191.5,-195.33 191.5,-184.67 191.5,-184.67 191.5,-179.33 196.83,-174 202.17,-174"/>
</a>
</g>
</g>
<!-- function&#45;0&#45;Jal -->
<g id="node17" class="node">
<title>function&#45;0&#45;Jal</title>
<g id="a_node17"><a xlink:title="Inst&#45;10: function&#45;0&#45;Jal">
<path fill="white" stroke="transparent" d="M86.67,-332C86.67,-332 97.33,-332 97.33,-332 102.67,-332 108,-337.33 108,-342.67 108,-342.67 108,-353.33 108,-353.33 108,-358.67 102.67,-364 97.33,-364 97.33,-364 86.67,-364 86.67,-364 81.33,-364 76,-358.67 76,-353.33 76,-353.33 76,-342.67 76,-342.67 76,-337.33 81.33,-332 86.67,-332"/>
<text text-anchor="start" x="83.5" y="-344.3" font-family="Helvetica,sans-Serif" font-size="14.00">Jal</text>
<path fill="none" stroke="black" d="M86.67,-332C86.67,-332 97.33,-332 97.33,-332 102.67,-332 108,-337.33 108,-342.67 108,-342.67 108,-353.33 108,-353.33 108,-358.67 102.67,-364 97.33,-364 97.33,-364 86.67,-364 86.67,-364 81.33,-364 76,-358.67 76,-353.33 76,-353.33 76,-342.67 76,-342.67 76,-337.33 81.33,-332 86.67,-332"/>
</a>
</g>
</g>
<!-- function&#45;0&#45;Bne -->
<g id="node18" class="node">
<title>function&#45;0&#45;Bne</title>
<g id="a_node18"><a xlink:title="Inst&#45;8: function&#45;0&#45;Bne">
<path fill="white" stroke="transparent" d="M130.67,-411C130.67,-411 147.33,-411 147.33,-411 152.67,-411 158,-416.33 158,-421.67 158,-421.67 158,-432.33 158,-432.33 158,-437.67 152.67,-443 147.33,-443 147.33,-443 130.67,-443 130.67,-443 125.33,-443 120,-437.67 120,-432.33 120,-432.33 120,-421.67 120,-421.67 120,-416.33 125.33,-411 130.67,-411"/>
<text text-anchor="start" x="125" y="-423.3" font-family="Helvetica,sans-Serif" font-size="14.00">Bne</text>
<path fill="none" stroke="black" d="M130.67,-411C130.67,-411 147.33,-411 147.33,-411 152.67,-411 158,-416.33 158,-421.67 158,-421.67 158,-432.33 158,-432.33 158,-437.67 152.67,-443 147.33,-443 147.33,-443 130.67,-443 130.67,-443 125.33,-443 120,-437.67 120,-432.33 120,-432.33 120,-421.67 120,-421.67 120,-416.33 125.33,-411 130.67,-411"/>
</a>
</g>
</g>
<!-- function&#45;1&#45;Bne -->
<g id="node19" class="node">
<title>function&#45;1&#45;Bne</title>
<g id="a_node19"><a xlink:title="Inst&#45;8: function&#45;1&#45;Bne">
<path fill="white" stroke="transparent" d="M188.67,-411C188.67,-411 205.33,-411 205.33,-411 210.67,-411 216,-416.33 216,-421.67 216,-421.67 216,-432.33 216,-432.33 216,-437.67 210.67,-443 205.33,-443 205.33,-443 188.67,-443 188.67,-443 183.33,-443 178,-437.67 178,-432.33 178,-432.33 178,-421.67 178,-421.67 178,-416.33 183.33,-411 188.67,-411"/>
<text text-anchor="start" x="183" y="-423.3" font-family="Helvetica,sans-Serif" font-size="14.00">Bne</text>
<path fill="none" stroke="black" d="M188.67,-411C188.67,-411 205.33,-411 205.33,-411 210.67,-411 216,-416.33 216,-421.67 216,-421.67 216,-432.33 216,-432.33 216,-437.67 210.67,-443 205.33,-443 205.33,-443 188.67,-443 188.67,-443 183.33,-443 178,-437.67 178,-432.33 178,-432.33 178,-421.67 178,-421.67 178,-416.33 183.33,-411 188.67,-411"/>
</a>
</g>
</g>
<!-- function&#45;0&#45;Seq2 -->
<g id="node20" class="node">
<title>function&#45;0&#45;Seq2</title>
<g id="a_node20"><a xlink:title="Inst&#45;8: function&#45;0&#45;Seq2">
<path fill="white" stroke="transparent" d="M68.67,-411C68.67,-411 93.33,-411 93.33,-411 98.67,-411 104,-416.33 104,-421.67 104,-421.67 104,-432.33 104,-432.33 104,-437.67 98.67,-443 93.33,-443 93.33,-443 68.67,-443 68.67,-443 63.33,-443 58,-437.67 58,-432.33 58,-432.33 58,-421.67 58,-421.67 58,-416.33 63.33,-411 68.67,-411"/>
<text text-anchor="start" x="63" y="-423.3" font-family="Helvetica,sans-Serif" font-size="14.00">Seq2</text>
<path fill="none" stroke="black" d="M68.67,-411C68.67,-411 93.33,-411 93.33,-411 98.67,-411 104,-416.33 104,-421.67 104,-421.67 104,-432.33 104,-432.33 104,-437.67 98.67,-443 93.33,-443 93.33,-443 68.67,-443 68.67,-443 63.33,-443 58,-437.67 58,-432.33 58,-432.33 58,-421.67 58,-421.67 58,-416.33 63.33,-411 68.67,-411"/>
</a>
</g>
</g>
<!-- function&#45;0&#45;Lui -->
<g id="node21" class="node">
<title>function&#45;0&#45;Lui</title>
<g id="a_node21"><a xlink:title="Inst&#45;4: function&#45;0&#45;Lui">
<path fill="white" stroke="transparent" d="M459.67,-174C459.67,-174 470.33,-174 470.33,-174 475.67,-174 481,-179.33 481,-184.67 481,-184.67 481,-195.33 481,-195.33 481,-200.67 475.67,-206 470.33,-206 470.33,-206 459.67,-206 459.67,-206 454.33,-206 449,-200.67 449,-195.33 449,-195.33 449,-184.67 449,-184.67 449,-179.33 454.33,-174 459.67,-174"/>
<text text-anchor="start" x="454.5" y="-186.3" font-family="Helvetica,sans-Serif" font-size="14.00">Lui</text>
<path fill="none" stroke="black" d="M459.67,-174C459.67,-174 470.33,-174 470.33,-174 475.67,-174 481,-179.33 481,-184.67 481,-184.67 481,-195.33 481,-195.33 481,-200.67 475.67,-206 470.33,-206 470.33,-206 459.67,-206 459.67,-206 454.33,-206 449,-200.67 449,-195.33 449,-195.33 449,-184.67 449,-184.67 449,-179.33 454.33,-174 459.67,-174"/>
</a>
</g>
</g>
<!-- function&#45;3&#45;Bne -->
<g id="node22" class="node">
<title>function&#45;3&#45;Bne</title>
<g id="a_node22"><a xlink:title="Inst&#45;11: function&#45;3&#45;Bne">
<path fill="white" stroke="transparent" d="M469.67,-332C469.67,-332 486.33,-332 486.33,-332 491.67,-332 497,-337.33 497,-342.67 497,-342.67 497,-353.33 497,-353.33 497,-358.67 491.67,-364 486.33,-364 486.33,-364 469.67,-364 469.67,-364 464.33,-364 459,-358.67 459,-353.33 459,-353.33 459,-342.67 459,-342.67 459,-337.33 464.33,-332 469.67,-332"/>
<text text-anchor="start" x="464" y="-344.3" font-family="Helvetica,sans-Serif" font-size="14.00">Bne</text>
<path fill="none" stroke="black" d="M469.67,-332C469.67,-332 486.33,-332 486.33,-332 491.67,-332 497,-337.33 497,-342.67 497,-342.67 497,-353.33 497,-353.33 497,-358.67 491.67,-364 486.33,-364 486.33,-364 469.67,-364 469.67,-364 464.33,-364 459,-358.67 459,-353.33 459,-353.33 459,-342.67 459,-342.67 459,-337.33 464.33,-332 469.67,-332"/>
</a>
</g>
</g>
<!-- function&#45;2&#45;Seq2 -->
<g id="node23" class="node">
<title>function&#45;2&#45;Seq2</title>
<g id="a_node23"><a xlink:title="Inst&#45;11: function&#45;2&#45;Seq2">
<path fill="white" stroke="transparent" d="M349.67,-332C349.67,-332 374.33,-332 374.33,-332 379.67,-332 385,-337.33 385,-342.67 385,-342.67 385,-353.33 385,-353.33 385,-358.67 379.67,-364 374.33,-364 374.33,-364 349.67,-364 349.67,-364 344.33,-364 339,-358.67 339,-353.33 339,-353.33 339,-342.67 339,-342.67 339,-337.33 344.33,-332 349.67,-332"/>
<text text-anchor="start" x="344" y="-344.3" font-family="Helvetica,sans-Serif" font-size="14.00">Seq2</text>
<path fill="none" stroke="black" d="M349.67,-332C349.67,-332 374.33,-332 374.33,-332 379.67,-332 385,-337.33 385,-342.67 385,-342.67 385,-353.33 385,-353.33 385,-358.67 379.67,-364 374.33,-364 374.33,-364 349.67,-364 349.67,-364 344.33,-364 339,-358.67 339,-353.33 339,-353.33 339,-342.67 339,-342.67 339,-337.33 344.33,-332 349.67,-332"/>
</a>
</g>
</g>
<!-- primitive&#45;String&#45;1 -->
<g id="node24" class="node">
<title>primitive&#45;String&#45;1</title>
<g id="a_node24"><a xlink:title="String&#45;1: primitive&#45;String&#45;1">
<path fill="white" stroke="transparent" d="M203.67,-95C203.67,-95 238.33,-95 238.33,-95 243.67,-95 249,-100.33 249,-105.67 249,-105.67 249,-116.33 249,-116.33 249,-121.67 243.67,-127 238.33,-127 238.33,-127 203.67,-127 203.67,-127 198.33,-127 193,-121.67 193,-116.33 193,-116.33 193,-105.67 193,-105.67 193,-100.33 198.33,-95 203.67,-95"/>
<text text-anchor="start" x="198" y="-107.3" font-family="Helvetica,sans-Serif" font-size="14.00">&quot;s2_0&quot;</text>
<path fill="none" stroke="black" d="M203.67,-95C203.67,-95 238.33,-95 238.33,-95 243.67,-95 249,-100.33 249,-105.67 249,-105.67 249,-116.33 249,-116.33 249,-121.67 243.67,-127 238.33,-127 238.33,-127 203.67,-127 203.67,-127 198.33,-127 193,-121.67 193,-116.33 193,-116.33 193,-105.67 193,-105.67 193,-100.33 198.33,-95 203.67,-95"/>
</a>
</g>
</g>
</g>
</svg>
