<?xml version="1.0" encoding="UTF-8" standalone="no"?>
<!DOCTYPE svg PUBLIC "-//W3C//DTD SVG 1.1//EN"
 "http://www.w3.org/Graphics/SVG/1.1/DTD/svg11.dtd">
<!-- Generated by graphviz version 2.43.0 (0)
 -->
<!-- Title: %3 Pages: 1 -->
<svg width="604pt" height="309pt"
 viewBox="0.00 0.00 604.00 309.00" xmlns="http://www.w3.org/2000/svg" xmlns:xlink="http://www.w3.org/1999/xlink">
<g id="graph0" class="graph" transform="scale(1 1) rotate(0) translate(4 305)">
<title>%3</title>
<polygon fill="white" stroke="#000000" points="-4,4 -4,-305 600,-305 600,4 -4,4"/>
<g id="clust1" class="cluster">
<title>outer_cluster_Imm&#45;2</title>
</g>
<g id="clust2" class="cluster">
<title>cluster_Imm&#45;2</title>
<path fill="#ffffb3" stroke="black" stroke-dasharray="5,2" d="M23,-169C23,-169 67,-169 67,-169 73,-169 79,-175 79,-181 79,-181 79,-199 79,-199 79,-205 73,-211 67,-211 67,-211 23,-211 23,-211 17,-211 11,-205 11,-199 11,-199 11,-181 11,-181 11,-175 17,-169 23,-169"/>
</g>
<g id="clust4" class="cluster">
<title>outer_cluster_Imm&#45;8</title>
</g>
<g id="clust5" class="cluster">
<title>cluster_Imm&#45;8</title>
<path fill="#ffffb3" stroke="black" stroke-dasharray="5,2" d="M222,-169C222,-169 282,-169 282,-169 288,-169 294,-175 294,-181 294,-181 294,-199 294,-199 294,-205 288,-211 282,-211 282,-211 222,-211 222,-211 216,-211 210,-205 210,-199 210,-199 210,-181 210,-181 210,-175 216,-169 222,-169"/>
</g>
<g id="clust7" class="cluster">
<title>outer_cluster_Imm&#45;6</title>
</g>
<g id="clust8" class="cluster">
<title>cluster_Imm&#45;6</title>
<path fill="#ffffb3" stroke="black" stroke-dasharray="5,2" d="M341,-90C341,-90 401,-90 401,-90 407,-90 413,-96 413,-102 413,-102 413,-120 413,-120 413,-126 407,-132 401,-132 401,-132 341,-132 341,-132 335,-132 329,-126 329,-120 329,-120 329,-102 329,-102 329,-96 335,-90 341,-90"/>
</g>
<g id="clust10" class="cluster">
<title>outer_cluster_Imm&#45;4</title>
</g>
<g id="clust11" class="cluster">
<title>cluster_Imm&#45;4</title>
<path fill="#ffffb3" stroke="black" stroke-dasharray="5,2" d="M438,-169C438,-169 498,-169 498,-169 504,-169 510,-175 510,-181 510,-181 510,-199 510,-199 510,-205 504,-211 498,-211 498,-211 438,-211 438,-211 432,-211 426,-205 426,-199 426,-199 426,-181 426,-181 426,-175 432,-169 438,-169"/>
</g>
<g id="clust13" class="cluster">
<title>outer_cluster_Inst&#45;1</title>
</g>
<g id="clust14" class="cluster">
<title>cluster_Inst&#45;1</title>
<path fill="#bebada" stroke="black" stroke-dasharray="5,2" d="M531,-169C531,-169 571,-169 571,-169 577,-169 583,-175 583,-181 583,-181 583,-199 583,-199 583,-205 577,-211 571,-211 571,-211 531,-211 531,-211 525,-211 519,-205 519,-199 519,-199 519,-181 519,-181 519,-175 525,-169 531,-169"/>
</g>
<g id="clust16" class="cluster">
<title>outer_cluster_Inst&#45;3</title>
</g>
<g id="clust17" class="cluster">
<title>cluster_Inst&#45;3</title>
<path fill="#bebada" stroke="black" stroke-dasharray="5,2" d="M66,-248C66,-248 102,-248 102,-248 108,-248 114,-254 114,-260 114,-260 114,-278 114,-278 114,-284 108,-290 102,-290 102,-290 66,-290 66,-290 60,-290 54,-284 54,-278 54,-278 54,-260 54,-260 54,-254 60,-248 66,-248"/>
</g>
<g id="clust19" class="cluster">
<title>outer_cluster_Inst&#45;7</title>
</g>
<g id="clust20" class="cluster">
<title>cluster_Inst&#45;7</title>
<path fill="#bebada" stroke="black" stroke-dasharray="5,2" d="M326,-169C326,-169 362,-169 362,-169 368,-169 374,-175 374,-181 374,-181 374,-199 374,-199 374,-205 368,-211 362,-211 362,-211 326,-211 326,-211 320,-211 314,-205 314,-199 314,-199 314,-181 314,-181 314,-175 320,-169 326,-169"/>
</g>
<g id="clust22" class="cluster">
<title>outer_cluster_Inst&#45;9</title>
</g>
<g id="clust23" class="cluster">
<title>cluster_Inst&#45;9</title>
<path fill="#bebada" stroke="black" stroke-dasharray="5,2" d="M287,-248C287,-248 323,-248 323,-248 329,-248 335,-254 335,-260 335,-260 335,-278 335,-278 335,-284 329,-290 323,-290 323,-290 287,-290 287,-290 281,-290 275,-284 275,-278 275,-278 275,-260 275,-260 275,-254 281,-248 287,-248"/>
</g>
<g id="clust25" class="cluster">
<title>outer_cluster_Inst&#45;5</title>
</g>
<g id="clust26" class="cluster">
<title>cluster_Inst&#45;5</title>
<path fill="#bebada" stroke="black" stroke-dasharray="5,2" d="M489,-248C489,-248 525,-248 525,-248 531,-248 537,-254 537,-260 537,-260 537,-278 537,-278 537,-284 531,-290 525,-290 525,-290 489,-290 489,-290 483,-290 477,-284 477,-278 477,-278 477,-260 477,-260 477,-254 483,-248 489,-248"/>
</g>
<g id="clust28" class="cluster">
<title>outer_cluster_Inst&#45;0</title>
</g>
<g id="clust29" class="cluster">
<title>cluster_Inst&#45;0</title>
<path fill="#bebada" stroke="black" stroke-dasharray="5,2" d="M97,-169C97,-169 137,-169 137,-169 143,-169 149,-175 149,-181 149,-181 149,-199 149,-199 149,-205 143,-211 137,-211 137,-211 97,-211 97,-211 91,-211 85,-205 85,-199 85,-199 85,-181 85,-181 85,-175 91,-169 97,-169"/>
</g>
<g id="clust31" class="cluster">
<title>outer_cluster_String&#45;5</title>
</g>
<g id="clust32" class="cluster">
<title>cluster_String&#45;5</title>
<path fill="#fb8072" stroke="black" stroke-dasharray="5,2" d="M167,-90C167,-90 311,-90 311,-90 317,-90 323,-96 323,-102 323,-102 323,-120 323,-120 323,-126 317,-132 311,-132 311,-132 167,-132 167,-132 161,-132 155,-126 155,-120 155,-120 155,-102 155,-102 155,-96 161,-90 167,-90"/>
</g>
<g id="clust34" class="cluster">
<title>outer_cluster_String&#45;2</title>
</g>
<g id="clust35" class="cluster">
<title>cluster_String&#45;2</title>
<path fill="#fb8072" stroke="black" stroke-dasharray="5,2" d="M535,-90C535,-90 573,-90 573,-90 579,-90 585,-96 585,-102 585,-102 585,-120 585,-120 585,-126 579,-132 573,-132 573,-132 535,-132 535,-132 529,-132 523,-126 523,-120 523,-120 523,-102 523,-102 523,-96 529,-90 535,-90"/>
</g>
<g id="clust37" class="cluster">
<title>outer_cluster_String&#45;3</title>
</g>
<g id="clust38" class="cluster">
<title>cluster_String&#45;3</title>
<path fill="#fb8072" stroke="black" stroke-dasharray="5,2" d="M431,-90C431,-90 505,-90 505,-90 511,-90 517,-96 517,-102 517,-102 517,-120 517,-120 517,-126 511,-132 505,-132 505,-132 431,-132 431,-132 425,-132 419,-126 419,-120 419,-120 419,-102 419,-102 419,-96 425,-90 431,-90"/>
</g>
<g id="clust40" class="cluster">
<title>outer_cluster_String&#45;4</title>
</g>
<g id="clust41" class="cluster">
<title>cluster_String&#45;4</title>
<path fill="#fb8072" stroke="black" stroke-dasharray="5,2" d="M311,-11C311,-11 433,-11 433,-11 439,-11 445,-17 445,-23 445,-23 445,-41 445,-41 445,-47 439,-53 433,-53 433,-53 311,-53 311,-53 305,-53 299,-47 299,-41 299,-41 299,-23 299,-23 299,-17 305,-11 311,-11"/>
</g>
<g id="clust43" class="cluster">
<title>outer_cluster_String&#45;1</title>
</g>
<g id="clust44" class="cluster">
<title>cluster_String&#45;1</title>
<path fill="#fb8072" stroke="black" stroke-dasharray="5,2" d="M99,-90C99,-90 137,-90 137,-90 143,-90 149,-96 149,-102 149,-102 149,-120 149,-120 149,-126 143,-132 137,-132 137,-132 99,-132 99,-132 93,-132 87,-126 87,-120 87,-120 87,-102 87,-102 87,-96 93,-90 99,-90"/>
</g>
<g id="clust46" class="cluster">
<title>outer_cluster_i64&#45;0</title>
</g>
<g id="clust47" class="cluster">
<title>cluster_i64&#45;0</title>
<path fill="#80b1d3" stroke="black" stroke-dasharray="5,2" d="M27,-90C27,-90 63,-90 63,-90 69,-90 75,-96 75,-102 75,-102 75,-120 75,-120 75,-126 69,-132 63,-132 63,-132 27,-132 27,-132 21,-132 15,-126 15,-120 15,-120 15,-102 15,-102 15,-96 21,-90 27,-90"/>
</g>
<!-- function&#45;0&#45;ImmVal&#45;&gt;primitive&#45;i64&#45;0 -->
<g id="edge1" class="edge">
<title>function&#45;0&#45;ImmVal:s&#45;&gt;primitive&#45;i64&#45;0</title>
<path fill="none" stroke="black" d="M45,-174C45,-160.84 45,-146.11 45,-134.3"/>
<polygon fill="black" stroke="black" points="46.75,-137 45,-132 43.25,-137 46.75,-137"/>
</g>
<!-- function&#45;2&#45;ImmLabel&#45;&gt;primitive&#45;String&#45;5 -->
<g id="edge2" class="edge">
<title>function&#45;2&#45;ImmLabel:s&#45;&gt;primitive&#45;String&#45;5</title>
<path fill="none" stroke="black" d="M253,-174C253,-160.48 249.79,-145.7 246.45,-133.97"/>
<polygon fill="black" stroke="black" points="249.38,-135.01 245.02,-132 246.55,-137.07 249.38,-135.01"/>
</g>
<!-- function&#45;1&#45;ImmLabel&#45;&gt;primitive&#45;String&#45;4 -->
<g id="edge3" class="edge">
<title>function&#45;1&#45;ImmLabel:s&#45;&gt;primitive&#45;String&#45;4</title>
<path fill="none" stroke="black" d="M372,-95C372,-81.84 372,-67.11 372,-55.3"/>
<polygon fill="black" stroke="black" points="373.75,-58 372,-53 370.25,-58 373.75,-58"/>
</g>
<!-- function&#45;0&#45;ImmLabel&#45;&gt;primitive&#45;String&#45;3 -->
<g id="edge4" class="edge">
<title>function&#45;0&#45;ImmLabel:s&#45;&gt;primitive&#45;String&#45;3</title>
<path fill="none" stroke="black" d="M469,-174C469,-160.84 468.77,-146.1 468.53,-134.3"/>
<polygon fill="black" stroke="black" points="470.41,-136.91 468.42,-132 466.91,-137.08 470.41,-136.91"/>
</g>
<!-- function&#45;1&#45;RegVal&#45;&gt;primitive&#45;String&#45;2 -->
<g id="edge5" class="edge">
<title>function&#45;1&#45;RegVal:s&#45;&gt;primitive&#45;String&#45;2</title>
<path fill="none" stroke="black" d="M552,-174C552,-160.83 552.46,-146.1 552.93,-134.3"/>
<polygon fill="black" stroke="black" points="554.42,-137.14 553.15,-132 550.94,-136.81 554.42,-137.14"/>
</g>
<!-- function&#45;0&#45;Addi&#45;&gt;function&#45;0&#45;ImmVal -->
<g id="edge7" class="edge">
<title>function&#45;0&#45;Addi:s&#45;&gt;function&#45;0&#45;ImmVal</title>
<path fill="none" stroke="black" d="M94,-253C94,-236.85 83.64,-222.45 72.45,-211.6"/>
<polygon fill="black" stroke="black" points="76.71,-212.55 71.64,-211 74.64,-215.37 76.71,-212.55"/>
</g>
<!-- function&#45;0&#45;Addi&#45;&gt;function&#45;0&#45;RegVal -->
<g id="edge6" class="edge">
<title>function&#45;0&#45;Addi:s&#45;&gt;function&#45;0&#45;RegVal</title>
<path fill="none" stroke="black" d="M74,-253C74,-237.48 83.21,-223.05 93.1,-212.02"/>
<polygon fill="black" stroke="black" points="91.42,-215.11 94.76,-211 89.58,-212.14 91.42,-215.11"/>
</g>
<!-- function&#45;0&#45;RegVal&#45;&gt;primitive&#45;String&#45;1 -->
<g id="edge13" class="edge">
<title>function&#45;0&#45;RegVal:s&#45;&gt;primitive&#45;String&#45;1</title>
<path fill="none" stroke="black" d="M118,-174C118,-160.84 118,-146.11 118,-134.3"/>
<polygon fill="black" stroke="black" points="119.75,-137 118,-132 116.25,-137 119.75,-137"/>
</g>
<!-- function&#45;0&#45;Auipc&#45;&gt;function&#45;1&#45;ImmLabel -->
<g id="edge8" class="edge">
<title>function&#45;0&#45;Auipc:s&#45;&gt;function&#45;1&#45;ImmLabel</title>
<path fill="none" stroke="black" d="M344,-174C344,-159.7 350.11,-144.97 356.52,-133.45"/>
<polygon fill="black" stroke="black" points="355.62,-136.69 358.08,-132 353.23,-134.14 355.62,-136.69"/>
</g>
<!-- function&#45;0&#45;Jalr&#45;&gt;function&#45;2&#45;ImmLabel -->
<g id="edge10" class="edge">
<title>function&#45;0&#45;Jalr:s&#45;&gt;function&#45;2&#45;ImmLabel</title>
<path fill="none" stroke="black" d="M313,-253C313,-235.76 300.86,-221.56 287.42,-211.12"/>
<polygon fill="black" stroke="black" points="292.39,-212.13 287.21,-211 290.56,-215.11 292.39,-212.13"/>
</g>
<!-- function&#45;0&#45;Jalr&#45;&gt;function&#45;0&#45;Auipc -->
<g id="edge9" class="edge">
<title>function&#45;0&#45;Jalr:s&#45;&gt;function&#45;0&#45;Auipc</title>
<path fill="none" stroke="black" d="M297,-253C297,-237.1 306.93,-222.72 317.67,-211.82"/>
<polygon fill="black" stroke="black" points="315.61,-214.78 319.33,-211 314.07,-211.64 315.61,-214.78"/>
</g>
<!-- function&#45;1&#45;Addi&#45;&gt;function&#45;0&#45;ImmLabel -->
<g id="edge12" class="edge">
<title>function&#45;1&#45;Addi:s&#45;&gt;function&#45;0&#45;ImmLabel</title>
<path fill="none" stroke="black" d="M517,-253C517,-236.85 506.64,-222.45 495.45,-211.6"/>
<polygon fill="black" stroke="black" points="499.71,-212.55 494.64,-211 497.64,-215.37 499.71,-212.55"/>
</g>
<!-- function&#45;1&#45;Addi&#45;&gt;function&#45;1&#45;RegVal -->
<g id="edge11" class="edge">
<title>function&#45;1&#45;Addi:s&#45;&gt;function&#45;1&#45;RegVal</title>
<path fill="none" stroke="black" d="M497,-253C497,-236.46 508.07,-222.18 520.18,-211.52"/>
<polygon fill="black" stroke="black" points="517.5,-214.67 521.32,-211 516.04,-211.49 517.5,-214.67"/>
</g>
<!-- function&#45;0&#45;ImmVal -->
<g id="node1" class="node">
<title>function&#45;0&#45;ImmVal</title>
<g id="a_node1"><a xlink:title="Imm&#45;2: function&#45;0&#45;ImmVal">
<path fill="white" stroke="transparent" d="M24.67,-174C24.67,-174 65.33,-174 65.33,-174 70.67,-174 76,-179.33 76,-184.67 76,-184.67 76,-195.33 76,-195.33 76,-200.67 70.67,-206 65.33,-206 65.33,-206 24.67,-206 24.67,-206 19.33,-206 14,-200.67 14,-195.33 14,-195.33 14,-184.67 14,-184.67 14,-179.33 19.33,-174 24.67,-174"/>
<text text-anchor="start" x="19" y="-186.3" font-family="Helvetica,sans-Serif" font-size="14.00">ImmVal</text>
<path fill="none" stroke="black" d="M24.67,-174C24.67,-174 65.33,-174 65.33,-174 70.67,-174 76,-179.33 76,-184.67 76,-184.67 76,-195.33 76,-195.33 76,-200.67 70.67,-206 65.33,-206 65.33,-206 24.67,-206 24.67,-206 19.33,-206 14,-200.67 14,-195.33 14,-195.33 14,-184.67 14,-184.67 14,-179.33 19.33,-174 24.67,-174"/>
</a>
</g>
</g>
<!-- primitive&#45;i64&#45;0 -->
<g id="node2" class="node">
<title>primitive&#45;i64&#45;0</title>
<g id="a_node2"><a xlink:title="i64&#45;0: primitive&#45;i64&#45;0">
<path fill="white" stroke="transparent" d="M39.67,-95C39.67,-95 50.33,-95 50.33,-95 55.67,-95 61,-100.33 61,-105.67 61,-105.67 61,-116.33 61,-116.33 61,-121.67 55.67,-127 50.33,-127 50.33,-127 39.67,-127 39.67,-127 34.33,-127 29,-121.67 29,-116.33 29,-116.33 29,-105.67 29,-105.67 29,-100.33 34.33,-95 39.67,-95"/>
<text text-anchor="start" x="40" y="-107.3" font-family="Helvetica,sans-Serif" font-size="14.00">0</text>
<path fill="none" stroke="black" d="M39.67,-95C39.67,-95 50.33,-95 50.33,-95 55.67,-95 61,-100.33 61,-105.67 61,-105.67 61,-116.33 61,-116.33 61,-121.67 55.67,-127 50.33,-127 50.33,-127 39.67,-127 39.67,-127 34.33,-127 29,-121.67 29,-116.33 29,-116.33 29,-105.67 29,-105.67 29,-100.33 34.33,-95 39.67,-95"/>
</a>
</g>
</g>
<!-- function&#45;2&#45;ImmLabel -->
<g id="node3" class="node">
<title>function&#45;2&#45;ImmLabel</title>
<g id="a_node3"><a xlink:title="Imm&#45;8: function&#45;2&#45;ImmLabel">
<path fill="white" stroke="transparent" d="M223.17,-174C223.17,-174 280.83,-174 280.83,-174 286.17,-174 291.5,-179.33 291.5,-184.67 291.5,-184.67 291.5,-195.33 291.5,-195.33 291.5,-200.67 286.17,-206 280.83,-206 280.83,-206 223.17,-206 223.17,-206 217.83,-206 212.5,-200.67 212.5,-195.33 212.5,-195.33 212.5,-184.67 212.5,-184.67 212.5,-179.33 217.83,-174 223.17,-174"/>
<text text-anchor="start" x="218" y="-186.3" font-family="Helvetica,sans-Serif" font-size="14.00">ImmLabel</text>
<path fill="none" stroke="black" d="M223.17,-174C223.17,-174 280.83,-174 280.83,-174 286.17,-174 291.5,-179.33 291.5,-184.67 291.5,-184.67 291.5,-195.33 291.5,-195.33 291.5,-200.67 286.17,-206 280.83,-206 280.83,-206 223.17,-206 223.17,-206 217.83,-206 212.5,-200.67 212.5,-195.33 212.5,-195.33 212.5,-184.67 212.5,-184.67 212.5,-179.33 217.83,-174 223.17,-174"/>
</a>
</g>
</g>
<!-- primitive&#45;String&#45;5 -->
<g id="node4" class="node">
<title>primitive&#45;String&#45;5</title>
<g id="a_node4"><a xlink:title="String&#45;5: primitive&#45;String&#45;5">
<path fill="white" stroke="transparent" d="M168.67,-95C168.67,-95 309.33,-95 309.33,-95 314.67,-95 320,-100.33 320,-105.67 320,-105.67 320,-116.33 320,-116.33 320,-121.67 314.67,-127 309.33,-127 309.33,-127 168.67,-127 168.67,-127 163.33,-127 158,-121.67 158,-116.33 158,-116.33 158,-105.67 158,-105.67 158,-100.33 163.33,-95 168.67,-95"/>
<text text-anchor="start" x="163" y="-107.3" font-family="Helvetica,sans-Serif" font-size="14.00">&quot;%pcrel_lo(.Lpcrel_9)&quot;</text>
<path fill="none" stroke="black" d="M168.67,-95C168.67,-95 309.33,-95 309.33,-95 314.67,-95 320,-100.33 320,-105.67 320,-105.67 320,-116.33 320,-116.33 320,-121.67 314.67,-127 309.33,-127 309.33,-127 168.67,-127 168.67,-127 163.33,-127 158,-121.67 158,-116.33 158,-116.33 158,-105.67 158,-105.67 158,-100.33 163.33,-95 168.67,-95"/>
</a>
</g>
</g>
<!-- function&#45;1&#45;ImmLabel -->
<g id="node5" class="node">
<title>function&#45;1&#45;ImmLabel</title>
<g id="a_node5"><a xlink:title="Imm&#45;6: function&#45;1&#45;ImmLabel">
<path fill="white" stroke="transparent" d="M342.17,-95C342.17,-95 399.83,-95 399.83,-95 405.17,-95 410.5,-100.33 410.5,-105.67 410.5,-105.67 410.5,-116.33 410.5,-116.33 410.5,-121.67 405.17,-127 399.83,-127 399.83,-127 342.17,-127 342.17,-127 336.83,-127 331.5,-121.67 331.5,-116.33 331.5,-116.33 331.5,-105.67 331.5,-105.67 331.5,-100.33 336.83,-95 342.17,-95"/>
<text text-anchor="start" x="337" y="-107.3" font-family="Helvetica,sans-Serif" font-size="14.00">ImmLabel</text>
<path fill="none" stroke="black" d="M342.17,-95C342.17,-95 399.83,-95 399.83,-95 405.17,-95 410.5,-100.33 410.5,-105.67 410.5,-105.67 410.5,-116.33 410.5,-116.33 410.5,-121.67 405.17,-127 399.83,-127 399.83,-127 342.17,-127 342.17,-127 336.83,-127 331.5,-121.67 331.5,-116.33 331.5,-116.33 331.5,-105.67 331.5,-105.67 331.5,-100.33 336.83,-95 342.17,-95"/>
</a>
</g>
</g>
<!-- primitive&#45;String&#45;4 -->
<g id="node6" class="node">
<title>primitive&#45;String&#45;4</title>
<g id="a_node6"><a xlink:title="String&#45;4: primitive&#45;String&#45;4">
<path fill="white" stroke="transparent" d="M312.67,-16C312.67,-16 431.33,-16 431.33,-16 436.67,-16 442,-21.33 442,-26.67 442,-26.67 442,-37.33 442,-37.33 442,-42.67 436.67,-48 431.33,-48 431.33,-48 312.67,-48 312.67,-48 307.33,-48 302,-42.67 302,-37.33 302,-37.33 302,-26.67 302,-26.67 302,-21.33 307.33,-16 312.67,-16"/>
<text text-anchor="start" x="307" y="-28.3" font-family="Helvetica,sans-Serif" font-size="14.00">&quot;%pcrel_hi(printf)&quot;</text>
<path fill="none" stroke="black" d="M312.67,-16C312.67,-16 431.33,-16 431.33,-16 436.67,-16 442,-21.33 442,-26.67 442,-26.67 442,-37.33 442,-37.33 442,-42.67 436.67,-48 431.33,-48 431.33,-48 312.67,-48 312.67,-48 307.33,-48 302,-42.67 302,-37.33 302,-37.33 302,-26.67 302,-26.67 302,-21.33 307.33,-16 312.67,-16"/>
</a>
</g>
</g>
<!-- function&#45;0&#45;ImmLabel -->
<g id="node7" class="node">
<title>function&#45;0&#45;ImmLabel</title>
<g id="a_node7"><a xlink:title="Imm&#45;4: function&#45;0&#45;ImmLabel">
<path fill="white" stroke="transparent" d="M439.17,-174C439.17,-174 496.83,-174 496.83,-174 502.17,-174 507.5,-179.33 507.5,-184.67 507.5,-184.67 507.5,-195.33 507.5,-195.33 507.5,-200.67 502.17,-206 496.83,-206 496.83,-206 439.17,-206 439.17,-206 433.83,-206 428.5,-200.67 428.5,-195.33 428.5,-195.33 428.5,-184.67 428.5,-184.67 428.5,-179.33 433.83,-174 439.17,-174"/>
<text text-anchor="start" x="434" y="-186.3" font-family="Helvetica,sans-Serif" font-size="14.00">ImmLabel</text>
<path fill="none" stroke="black" d="M439.17,-174C439.17,-174 496.83,-174 496.83,-174 502.17,-174 507.5,-179.33 507.5,-184.67 507.5,-184.67 507.5,-195.33 507.5,-195.33 507.5,-200.67 502.17,-206 496.83,-206 496.83,-206 439.17,-206 439.17,-206 433.83,-206 428.5,-200.67 428.5,-195.33 428.5,-195.33 428.5,-184.67 428.5,-184.67 428.5,-179.33 433.83,-174 439.17,-174"/>
</a>
</g>
</g>
<!-- primitive&#45;String&#45;3 -->
<g id="node8" class="node">
<title>primitive&#45;String&#45;3</title>
<g id="a_node8"><a xlink:title="String&#45;3: primitive&#45;String&#45;3">
<path fill="white" stroke="transparent" d="M433.17,-95C433.17,-95 502.83,-95 502.83,-95 508.17,-95 513.5,-100.33 513.5,-105.67 513.5,-105.67 513.5,-116.33 513.5,-116.33 513.5,-121.67 508.17,-127 502.83,-127 502.83,-127 433.17,-127 433.17,-127 427.83,-127 422.5,-121.67 422.5,-116.33 422.5,-116.33 422.5,-105.67 422.5,-105.67 422.5,-100.33 427.83,-95 433.17,-95"/>
<text text-anchor="start" x="428" y="-107.3" font-family="Helvetica,sans-Serif" font-size="14.00">&quot;%lo(.LC1)&quot;</text>
<path fill="none" stroke="black" d="M433.17,-95C433.17,-95 502.83,-95 502.83,-95 508.17,-95 513.5,-100.33 513.5,-105.67 513.5,-105.67 513.5,-116.33 513.5,-116.33 513.5,-121.67 508.17,-127 502.83,-127 502.83,-127 433.17,-127 433.17,-127 427.83,-127 422.5,-121.67 422.5,-116.33 422.5,-116.33 422.5,-105.67 422.5,-105.67 422.5,-100.33 427.83,-95 433.17,-95"/>
</a>
</g>
</g>
<!-- function&#45;1&#45;RegVal -->
<g id="node9" class="node">
<title>function&#45;1&#45;RegVal</title>
<g id="a_node9"><a xlink:title="Inst&#45;1: function&#45;1&#45;RegVal">
<path fill="white" stroke="transparent" d="M533.17,-174C533.17,-174 568.83,-174 568.83,-174 574.17,-174 579.5,-179.33 579.5,-184.67 579.5,-184.67 579.5,-195.33 579.5,-195.33 579.5,-200.67 574.17,-206 568.83,-206 568.83,-206 533.17,-206 533.17,-206 527.83,-206 522.5,-200.67 522.5,-195.33 522.5,-195.33 522.5,-184.67 522.5,-184.67 522.5,-179.33 527.83,-174 533.17,-174"/>
<text text-anchor="start" x="528" y="-186.3" font-family="Helvetica,sans-Serif" font-size="14.00">RegVal</text>
<path fill="none" stroke="black" d="M533.17,-174C533.17,-174 568.83,-174 568.83,-174 574.17,-174 579.5,-179.33 579.5,-184.67 579.5,-184.67 579.5,-195.33 579.5,-195.33 579.5,-200.67 574.17,-206 568.83,-206 568.83,-206 533.17,-206 533.17,-206 527.83,-206 522.5,-200.67 522.5,-195.33 522.5,-195.33 522.5,-184.67 522.5,-184.67 522.5,-179.33 527.83,-174 533.17,-174"/>
</a>
</g>
</g>
<!-- primitive&#45;String&#45;2 -->
<g id="node10" class="node">
<title>primitive&#45;String&#45;2</title>
<g id="a_node10"><a xlink:title="String&#45;2: primitive&#45;String&#45;2">
<path fill="white" stroke="transparent" d="M536.67,-95C536.67,-95 571.33,-95 571.33,-95 576.67,-95 582,-100.33 582,-105.67 582,-105.67 582,-116.33 582,-116.33 582,-121.67 576.67,-127 571.33,-127 571.33,-127 536.67,-127 536.67,-127 531.33,-127 526,-121.67 526,-116.33 526,-116.33 526,-105.67 526,-105.67 526,-100.33 531.33,-95 536.67,-95"/>
<text text-anchor="start" x="531" y="-107.3" font-family="Helvetica,sans-Serif" font-size="14.00">&quot;s3_0&quot;</text>
<path fill="none" stroke="black" d="M536.67,-95C536.67,-95 571.33,-95 571.33,-95 576.67,-95 582,-100.33 582,-105.67 582,-105.67 582,-116.33 582,-116.33 582,-121.67 576.67,-127 571.33,-127 571.33,-127 536.67,-127 536.67,-127 531.33,-127 526,-121.67 526,-116.33 526,-116.33 526,-105.67 526,-105.67 526,-100.33 531.33,-95 536.67,-95"/>
</a>
</g>
</g>
<!-- function&#45;0&#45;Addi -->
<g id="node11" class="node">
<title>function&#45;0&#45;Addi</title>
<g id="a_node11"><a xlink:title="Inst&#45;3: function&#45;0&#45;Addi">
<path fill="white" stroke="transparent" d="M74.17,-253C74.17,-253 93.83,-253 93.83,-253 99.17,-253 104.5,-258.33 104.5,-263.67 104.5,-263.67 104.5,-274.33 104.5,-274.33 104.5,-279.67 99.17,-285 93.83,-285 93.83,-285 74.17,-285 74.17,-285 68.83,-285 63.5,-279.67 63.5,-274.33 63.5,-274.33 63.5,-263.67 63.5,-263.67 63.5,-258.33 68.83,-253 74.17,-253"/>
<text text-anchor="start" x="69" y="-265.3" font-family="Helvetica,sans-Serif" font-size="14.00">Addi</text>
<path fill="none" stroke="black" d="M74.17,-253C74.17,-253 93.83,-253 93.83,-253 99.17,-253 104.5,-258.33 104.5,-263.67 104.5,-263.67 104.5,-274.33 104.5,-274.33 104.5,-279.67 99.17,-285 93.83,-285 93.83,-285 74.17,-285 74.17,-285 68.83,-285 63.5,-279.67 63.5,-274.33 63.5,-274.33 63.5,-263.67 63.5,-263.67 63.5,-258.33 68.83,-253 74.17,-253"/>
</a>
</g>
</g>
<!-- function&#45;0&#45;RegVal -->
<g id="node12" class="node">
<title>function&#45;0&#45;RegVal</title>
<g id="a_node12"><a xlink:title="Inst&#45;0: function&#45;0&#45;RegVal">
<path fill="white" stroke="transparent" d="M99.17,-174C99.17,-174 134.83,-174 134.83,-174 140.17,-174 145.5,-179.33 145.5,-184.67 145.5,-184.67 145.5,-195.33 145.5,-195.33 145.5,-200.67 140.17,-206 134.83,-206 134.83,-206 99.17,-206 99.17,-206 93.83,-206 88.5,-200.67 88.5,-195.33 88.5,-195.33 88.5,-184.67 88.5,-184.67 88.5,-179.33 93.83,-174 99.17,-174"/>
<text text-anchor="start" x="94" y="-186.3" font-family="Helvetica,sans-Serif" font-size="14.00">RegVal</text>
<path fill="none" stroke="black" d="M99.17,-174C99.17,-174 134.83,-174 134.83,-174 140.17,-174 145.5,-179.33 145.5,-184.67 145.5,-184.67 145.5,-195.33 145.5,-195.33 145.5,-200.67 140.17,-206 134.83,-206 134.83,-206 99.17,-206 99.17,-206 93.83,-206 88.5,-200.67 88.5,-195.33 88.5,-195.33 88.5,-184.67 88.5,-184.67 88.5,-179.33 93.83,-174 99.17,-174"/>
</a>
</g>
</g>
<!-- function&#45;0&#45;Auipc -->
<g id="node13" class="node">
<title>function&#45;0&#45;Auipc</title>
<g id="a_node13"><a xlink:title="Inst&#45;7: function&#45;0&#45;Auipc">
<path fill="white" stroke="transparent" d="M329.67,-174C329.67,-174 358.33,-174 358.33,-174 363.67,-174 369,-179.33 369,-184.67 369,-184.67 369,-195.33 369,-195.33 369,-200.67 363.67,-206 358.33,-206 358.33,-206 329.67,-206 329.67,-206 324.33,-206 319,-200.67 319,-195.33 319,-195.33 319,-184.67 319,-184.67 319,-179.33 324.33,-174 329.67,-174"/>
<text text-anchor="start" x="324" y="-186.3" font-family="Helvetica,sans-Serif" font-size="14.00">Auipc</text>
<path fill="none" stroke="black" d="M329.67,-174C329.67,-174 358.33,-174 358.33,-174 363.67,-174 369,-179.33 369,-184.67 369,-184.67 369,-195.33 369,-195.33 369,-200.67 363.67,-206 358.33,-206 358.33,-206 329.67,-206 329.67,-206 324.33,-206 319,-200.67 319,-195.33 319,-195.33 319,-184.67 319,-184.67 319,-179.33 324.33,-174 329.67,-174"/>
</a>
</g>
</g>
<!-- function&#45;0&#45;Jalr -->
<g id="node14" class="node">
<title>function&#45;0&#45;Jalr</title>
<g id="a_node14"><a xlink:title="Inst&#45;9: function&#45;0&#45;Jalr">
<path fill="white" stroke="transparent" d="M299.17,-253C299.17,-253 310.83,-253 310.83,-253 316.17,-253 321.5,-258.33 321.5,-263.67 321.5,-263.67 321.5,-274.33 321.5,-274.33 321.5,-279.67 316.17,-285 310.83,-285 310.83,-285 299.17,-285 299.17,-285 293.83,-285 288.5,-279.67 288.5,-274.33 288.5,-274.33 288.5,-263.67 288.5,-263.67 288.5,-258.33 293.83,-253 299.17,-253"/>
<text text-anchor="start" x="294" y="-265.3" font-family="Helvetica,sans-Serif" font-size="14.00">Jalr</text>
<path fill="none" stroke="black" d="M299.17,-253C299.17,-253 310.83,-253 310.83,-253 316.17,-253 321.5,-258.33 321.5,-263.67 321.5,-263.67 321.5,-274.33 321.5,-274.33 321.5,-279.67 316.17,-285 310.83,-285 310.83,-285 299.17,-285 299.17,-285 293.83,-285 288.5,-279.67 288.5,-274.33 288.5,-274.33 288.5,-263.67 288.5,-263.67 288.5,-258.33 293.83,-253 299.17,-253"/>
</a>
</g>
</g>
<!-- function&#45;1&#45;Addi -->
<g id="node15" class="node">
<title>function&#45;1&#45;Addi</title>
<g id="a_node15"><a xlink:title="Inst&#45;5: function&#45;1&#45;Addi">
<path fill="white" stroke="transparent" d="M497.17,-253C497.17,-253 516.83,-253 516.83,-253 522.17,-253 527.5,-258.33 527.5,-263.67 527.5,-263.67 527.5,-274.33 527.5,-274.33 527.5,-279.67 522.17,-285 516.83,-285 516.83,-285 497.17,-285 497.17,-285 491.83,-285 486.5,-279.67 486.5,-274.33 486.5,-274.33 486.5,-263.67 486.5,-263.67 486.5,-258.33 491.83,-253 497.17,-253"/>
<text text-anchor="start" x="492" y="-265.3" font-family="Helvetica,sans-Serif" font-size="14.00">Addi</text>
<path fill="none" stroke="black" d="M497.17,-253C497.17,-253 516.83,-253 516.83,-253 522.17,-253 527.5,-258.33 527.5,-263.67 527.5,-263.67 527.5,-274.33 527.5,-274.33 527.5,-279.67 522.17,-285 516.83,-285 516.83,-285 497.17,-285 497.17,-285 491.83,-285 486.5,-279.67 486.5,-274.33 486.5,-274.33 486.5,-263.67 486.5,-263.67 486.5,-258.33 491.83,-253 497.17,-253"/>
</a>
</g>
</g>
<!-- primitive&#45;String&#45;1 -->
<g id="node16" class="node">
<title>primitive&#45;String&#45;1</title>
<g id="a_node16"><a xlink:title="String&#45;1: primitive&#45;String&#45;1">
<path fill="white" stroke="transparent" d="M100.67,-95C100.67,-95 135.33,-95 135.33,-95 140.67,-95 146,-100.33 146,-105.67 146,-105.67 146,-116.33 146,-116.33 146,-121.67 140.67,-127 135.33,-127 135.33,-127 100.67,-127 100.67,-127 95.33,-127 90,-121.67 90,-116.33 90,-116.33 90,-105.67 90,-105.67 90,-100.33 95.33,-95 100.67,-95"/>
<text text-anchor="start" x="95" y="-107.3" font-family="Helvetica,sans-Serif" font-size="14.00">&quot;s1_0&quot;</text>
<path fill="none" stroke="black" d="M100.67,-95C100.67,-95 135.33,-95 135.33,-95 140.67,-95 146,-100.33 146,-105.67 146,-105.67 146,-116.33 146,-116.33 146,-121.67 140.67,-127 135.33,-127 135.33,-127 100.67,-127 100.67,-127 95.33,-127 90,-121.67 90,-116.33 90,-116.33 90,-105.67 90,-105.67 90,-100.33 95.33,-95 100.67,-95"/>
</a>
</g>
</g>
</g>
</svg>
