<?xml version="1.0" encoding="UTF-8" standalone="no"?>
<!DOCTYPE svg PUBLIC "-//W3C//DTD SVG 1.1//EN"
 "http://www.w3.org/Graphics/SVG/1.1/DTD/svg11.dtd">
<!-- Generated by graphviz version 2.43.0 (0)
 -->
<!-- Title: %3 Pages: 1 -->
<svg width="446pt" height="309pt"
 viewBox="0.00 0.00 446.00 309.00" xmlns="http://www.w3.org/2000/svg" xmlns:xlink="http://www.w3.org/1999/xlink">
<g id="graph0" class="graph" transform="scale(1 1) rotate(0) translate(4 305)">
<title>%3</title>
<polygon fill="white" stroke="#000000" points="-4,4 -4,-305 442,-305 442,4 -4,4"/>
<g id="clust1" class="cluster">
<title>outer_cluster_Imm&#45;5</title>
</g>
<g id="clust2" class="cluster">
<title>cluster_Imm&#45;5</title>
<path fill="#ffffb3" stroke="black" stroke-dasharray="5,2" d="M84,-169C84,-169 144,-169 144,-169 150,-169 156,-175 156,-181 156,-181 156,-199 156,-199 156,-205 150,-211 144,-211 144,-211 84,-211 84,-211 78,-211 72,-205 72,-199 72,-199 72,-181 72,-181 72,-175 78,-169 84,-169"/>
</g>
<g id="clust4" class="cluster">
<title>outer_cluster_Imm&#45;1</title>
</g>
<g id="clust5" class="cluster">
<title>cluster_Imm&#45;1</title>
<path fill="#ffffb3" stroke="black" stroke-dasharray="5,2" d="M293,-169C293,-169 337,-169 337,-169 343,-169 349,-175 349,-181 349,-181 349,-199 349,-199 349,-205 343,-211 337,-211 337,-211 293,-211 293,-211 287,-211 281,-205 281,-199 281,-199 281,-181 281,-181 281,-175 287,-169 293,-169"/>
</g>
<g id="clust7" class="cluster">
<title>outer_cluster_Imm&#45;3</title>
</g>
<g id="clust8" class="cluster">
<title>cluster_Imm&#45;3</title>
<path fill="#ffffb3" stroke="black" stroke-dasharray="5,2" d="M207,-90C207,-90 267,-90 267,-90 273,-90 279,-96 279,-102 279,-102 279,-120 279,-120 279,-126 273,-132 267,-132 267,-132 207,-132 207,-132 201,-132 195,-126 195,-120 195,-120 195,-102 195,-102 195,-96 201,-90 207,-90"/>
</g>
<g id="clust10" class="cluster">
<title>outer_cluster_Inst&#45;6</title>
</g>
<g id="clust11" class="cluster">
<title>cluster_Inst&#45;6</title>
<path fill="#bebada" stroke="black" stroke-dasharray="5,2" d="M150,-248C150,-248 186,-248 186,-248 192,-248 198,-254 198,-260 198,-260 198,-278 198,-278 198,-284 192,-290 186,-290 186,-290 150,-290 150,-290 144,-290 138,-284 138,-278 138,-278 138,-260 138,-260 138,-254 144,-248 150,-248"/>
</g>
<g id="clust13" class="cluster">
<title>outer_cluster_Inst&#45;4</title>
</g>
<g id="clust14" class="cluster">
<title>cluster_Inst&#45;4</title>
<path fill="#bebada" stroke="black" stroke-dasharray="5,2" d="M189,-169C189,-169 225,-169 225,-169 231,-169 237,-175 237,-181 237,-181 237,-199 237,-199 237,-205 231,-211 225,-211 225,-211 189,-211 189,-211 183,-211 177,-205 177,-199 177,-199 177,-181 177,-181 177,-175 183,-169 189,-169"/>
</g>
<g id="clust16" class="cluster">
<title>outer_cluster_Inst&#45;0</title>
</g>
<g id="clust17" class="cluster">
<title>cluster_Inst&#45;0</title>
<path fill="#bebada" stroke="black" stroke-dasharray="5,2" d="M367,-169C367,-169 407,-169 407,-169 413,-169 419,-175 419,-181 419,-181 419,-199 419,-199 419,-205 413,-211 407,-211 407,-211 367,-211 367,-211 361,-211 355,-205 355,-199 355,-199 355,-181 355,-181 355,-175 361,-169 367,-169"/>
</g>
<g id="clust19" class="cluster">
<title>outer_cluster_Inst&#45;2</title>
</g>
<g id="clust20" class="cluster">
<title>cluster_Inst&#45;2</title>
<path fill="#bebada" stroke="black" stroke-dasharray="5,2" d="M333,-248C333,-248 369,-248 369,-248 375,-248 381,-254 381,-260 381,-260 381,-278 381,-278 381,-284 375,-290 369,-290 369,-290 333,-290 333,-290 327,-290 321,-284 321,-278 321,-278 321,-260 321,-260 321,-254 327,-248 333,-248"/>
</g>
<g id="clust22" class="cluster">
<title>outer_cluster_String&#45;1</title>
</g>
<g id="clust23" class="cluster">
<title>cluster_String&#45;1</title>
<path fill="#fb8072" stroke="black" stroke-dasharray="5,2" d="M363,-90C363,-90 415,-90 415,-90 421,-90 427,-96 427,-102 427,-102 427,-120 427,-120 427,-126 421,-132 415,-132 415,-132 363,-132 363,-132 357,-132 351,-126 351,-120 351,-120 351,-102 351,-102 351,-96 357,-90 363,-90"/>
</g>
<g id="clust25" class="cluster">
<title>outer_cluster_String&#45;2</title>
</g>
<g id="clust26" class="cluster">
<title>cluster_String&#45;2</title>
<path fill="#fb8072" stroke="black" stroke-dasharray="5,2" d="M169,-11C169,-11 307,-11 307,-11 313,-11 319,-17 319,-23 319,-23 319,-41 319,-41 319,-47 313,-53 307,-53 307,-53 169,-53 169,-53 163,-53 157,-47 157,-41 157,-41 157,-23 157,-23 157,-17 163,-11 169,-11"/>
</g>
<g id="clust28" class="cluster">
<title>outer_cluster_String&#45;3</title>
</g>
<g id="clust29" class="cluster">
<title>cluster_String&#45;3</title>
<path fill="#fb8072" stroke="black" stroke-dasharray="5,2" d="M23,-90C23,-90 177,-90 177,-90 183,-90 189,-96 189,-102 189,-102 189,-120 189,-120 189,-126 183,-132 177,-132 177,-132 23,-132 23,-132 17,-132 11,-126 11,-120 11,-120 11,-102 11,-102 11,-96 17,-90 23,-90"/>
</g>
<g id="clust31" class="cluster">
<title>outer_cluster_i64&#45;10</title>
</g>
<g id="clust32" class="cluster">
<title>cluster_i64&#45;10</title>
<path fill="#80b1d3" stroke="black" stroke-dasharray="5,2" d="M297,-90C297,-90 333,-90 333,-90 339,-90 345,-96 345,-102 345,-102 345,-120 345,-120 345,-126 339,-132 333,-132 333,-132 297,-132 297,-132 291,-132 285,-126 285,-120 285,-120 285,-102 285,-102 285,-96 291,-90 297,-90"/>
</g>
<!-- function&#45;1&#45;ImmLabel&#45;&gt;primitive&#45;String&#45;3 -->
<g id="edge1" class="edge">
<title>function&#45;1&#45;ImmLabel:s&#45;&gt;primitive&#45;String&#45;3</title>
<path fill="none" stroke="black" d="M115,-174C115,-160.43 111.57,-145.65 107.98,-133.93"/>
<polygon fill="black" stroke="black" points="110.93,-134.82 106.45,-132 108.19,-137 110.93,-134.82"/>
</g>
<!-- function&#45;0&#45;ImmVal&#45;&gt;primitive&#45;i64&#45;10 -->
<g id="edge2" class="edge">
<title>function&#45;0&#45;ImmVal:s&#45;&gt;primitive&#45;i64&#45;10</title>
<path fill="none" stroke="black" d="M315,-174C315,-160.84 315,-146.11 315,-134.3"/>
<polygon fill="black" stroke="black" points="316.75,-137 315,-132 313.25,-137 316.75,-137"/>
</g>
<!-- function&#45;0&#45;ImmLabel&#45;&gt;primitive&#45;String&#45;2 -->
<g id="edge3" class="edge">
<title>function&#45;0&#45;ImmLabel:s&#45;&gt;primitive&#45;String&#45;2</title>
<path fill="none" stroke="black" d="M238,-95C238,-81.84 238,-67.11 238,-55.3"/>
<polygon fill="black" stroke="black" points="239.75,-58 238,-53 236.25,-58 239.75,-58"/>
</g>
<!-- function&#45;0&#45;Jalr&#45;&gt;function&#45;1&#45;ImmLabel -->
<g id="edge5" class="edge">
<title>function&#45;0&#45;Jalr:s&#45;&gt;function&#45;1&#45;ImmLabel</title>
<path fill="none" stroke="black" d="M176,-253C176,-235.76 163.86,-221.63 150.32,-211.24"/>
<polygon fill="black" stroke="black" points="154.33,-210.26 149.09,-211 153.65,-213.69 154.33,-210.26"/>
</g>
<!-- function&#45;0&#45;Jalr&#45;&gt;function&#45;0&#45;Auipc -->
<g id="edge4" class="edge">
<title>function&#45;0&#45;Jalr:s&#45;&gt;function&#45;0&#45;Auipc</title>
<path fill="none" stroke="black" d="M160,-253C160,-237.1 169.93,-222.72 180.67,-211.82"/>
<polygon fill="black" stroke="black" points="178.61,-214.78 182.33,-211 177.07,-211.64 178.61,-214.78"/>
</g>
<!-- function&#45;0&#45;Auipc&#45;&gt;function&#45;0&#45;ImmLabel -->
<g id="edge6" class="edge">
<title>function&#45;0&#45;Auipc:s&#45;&gt;function&#45;0&#45;ImmLabel</title>
<path fill="none" stroke="black" d="M207,-174C207,-159.54 213.7,-144.9 220.76,-133.48"/>
<polygon fill="black" stroke="black" points="219.81,-136.52 222.58,-132 217.6,-133.81 219.81,-136.52"/>
</g>
<!-- function&#45;0&#45;RegVal&#45;&gt;primitive&#45;String&#45;1 -->
<g id="edge7" class="edge">
<title>function&#45;0&#45;RegVal:s&#45;&gt;primitive&#45;String&#45;1</title>
<path fill="none" stroke="black" d="M388,-174C388,-160.84 388.23,-146.1 388.47,-134.3"/>
<polygon fill="black" stroke="black" points="390.09,-137.08 388.58,-132 386.59,-136.91 390.09,-137.08"/>
</g>
<!-- function&#45;0&#45;Addi&#45;&gt;function&#45;0&#45;ImmVal -->
<g id="edge9" class="edge">
<title>function&#45;0&#45;Addi:s&#45;&gt;function&#45;0&#45;ImmVal</title>
<path fill="none" stroke="black" d="M361,-253C361,-237.1 351.13,-222.63 340.53,-211.67"/>
<polygon fill="black" stroke="black" points="344.21,-211.32 338.92,-211 342.86,-214.54 344.21,-211.32"/>
</g>
<!-- function&#45;0&#45;Addi&#45;&gt;function&#45;0&#45;RegVal -->
<g id="edge8" class="edge">
<title>function&#45;0&#45;Addi:s&#45;&gt;function&#45;0&#45;RegVal</title>
<path fill="none" stroke="black" d="M341,-253C341,-237.1 350.87,-222.63 361.47,-211.67"/>
<polygon fill="black" stroke="black" points="359.14,-214.54 363.08,-211 357.79,-211.32 359.14,-214.54"/>
</g>
<!-- function&#45;1&#45;ImmLabel -->
<g id="node1" class="node">
<title>function&#45;1&#45;ImmLabel</title>
<g id="a_node1"><a xlink:title="Imm&#45;5: function&#45;1&#45;ImmLabel">
<path fill="white" stroke="transparent" d="M85.17,-174C85.17,-174 142.83,-174 142.83,-174 148.17,-174 153.5,-179.33 153.5,-184.67 153.5,-184.67 153.5,-195.33 153.5,-195.33 153.5,-200.67 148.17,-206 142.83,-206 142.83,-206 85.17,-206 85.17,-206 79.83,-206 74.5,-200.67 74.5,-195.33 74.5,-195.33 74.5,-184.67 74.5,-184.67 74.5,-179.33 79.83,-174 85.17,-174"/>
<text text-anchor="start" x="80" y="-186.3" font-family="Helvetica,sans-Serif" font-size="14.00">ImmLabel</text>
<path fill="none" stroke="black" d="M85.17,-174C85.17,-174 142.83,-174 142.83,-174 148.17,-174 153.5,-179.33 153.5,-184.67 153.5,-184.67 153.5,-195.33 153.5,-195.33 153.5,-200.67 148.17,-206 142.83,-206 142.83,-206 85.17,-206 85.17,-206 79.83,-206 74.5,-200.67 74.5,-195.33 74.5,-195.33 74.5,-184.67 74.5,-184.67 74.5,-179.33 79.83,-174 85.17,-174"/>
</a>
</g>
</g>
<!-- primitive&#45;String&#45;3 -->
<g id="node2" class="node">
<title>primitive&#45;String&#45;3</title>
<g id="a_node2"><a xlink:title="String&#45;3: primitive&#45;String&#45;3">
<path fill="white" stroke="transparent" d="M25.17,-95C25.17,-95 174.83,-95 174.83,-95 180.17,-95 185.5,-100.33 185.5,-105.67 185.5,-105.67 185.5,-116.33 185.5,-116.33 185.5,-121.67 180.17,-127 174.83,-127 174.83,-127 25.17,-127 25.17,-127 19.83,-127 14.5,-121.67 14.5,-116.33 14.5,-116.33 14.5,-105.67 14.5,-105.67 14.5,-100.33 19.83,-95 25.17,-95"/>
<text text-anchor="start" x="20" y="-107.3" font-family="Helvetica,sans-Serif" font-size="14.00">&quot;%pcrel_lo(.Lpcrel_10)&quot;</text>
<path fill="none" stroke="black" d="M25.17,-95C25.17,-95 174.83,-95 174.83,-95 180.17,-95 185.5,-100.33 185.5,-105.67 185.5,-105.67 185.5,-116.33 185.5,-116.33 185.5,-121.67 180.17,-127 174.83,-127 174.83,-127 25.17,-127 25.17,-127 19.83,-127 14.5,-121.67 14.5,-116.33 14.5,-116.33 14.5,-105.67 14.5,-105.67 14.5,-100.33 19.83,-95 25.17,-95"/>
</a>
</g>
</g>
<!-- function&#45;0&#45;ImmVal -->
<g id="node3" class="node">
<title>function&#45;0&#45;ImmVal</title>
<g id="a_node3"><a xlink:title="Imm&#45;1: function&#45;0&#45;ImmVal">
<path fill="white" stroke="transparent" d="M294.67,-174C294.67,-174 335.33,-174 335.33,-174 340.67,-174 346,-179.33 346,-184.67 346,-184.67 346,-195.33 346,-195.33 346,-200.67 340.67,-206 335.33,-206 335.33,-206 294.67,-206 294.67,-206 289.33,-206 284,-200.67 284,-195.33 284,-195.33 284,-184.67 284,-184.67 284,-179.33 289.33,-174 294.67,-174"/>
<text text-anchor="start" x="289" y="-186.3" font-family="Helvetica,sans-Serif" font-size="14.00">ImmVal</text>
<path fill="none" stroke="black" d="M294.67,-174C294.67,-174 335.33,-174 335.33,-174 340.67,-174 346,-179.33 346,-184.67 346,-184.67 346,-195.33 346,-195.33 346,-200.67 340.67,-206 335.33,-206 335.33,-206 294.67,-206 294.67,-206 289.33,-206 284,-200.67 284,-195.33 284,-195.33 284,-184.67 284,-184.67 284,-179.33 289.33,-174 294.67,-174"/>
</a>
</g>
</g>
<!-- primitive&#45;i64&#45;10 -->
<g id="node4" class="node">
<title>primitive&#45;i64&#45;10</title>
<g id="a_node4"><a xlink:title="i64&#45;10: primitive&#45;i64&#45;10">
<path fill="white" stroke="transparent" d="M309.67,-95C309.67,-95 320.33,-95 320.33,-95 325.67,-95 331,-100.33 331,-105.67 331,-105.67 331,-116.33 331,-116.33 331,-121.67 325.67,-127 320.33,-127 320.33,-127 309.67,-127 309.67,-127 304.33,-127 299,-121.67 299,-116.33 299,-116.33 299,-105.67 299,-105.67 299,-100.33 304.33,-95 309.67,-95"/>
<text text-anchor="start" x="305.5" y="-107.3" font-family="Helvetica,sans-Serif" font-size="14.00">10</text>
<path fill="none" stroke="black" d="M309.67,-95C309.67,-95 320.33,-95 320.33,-95 325.67,-95 331,-100.33 331,-105.67 331,-105.67 331,-116.33 331,-116.33 331,-121.67 325.67,-127 320.33,-127 320.33,-127 309.67,-127 309.67,-127 304.33,-127 299,-121.67 299,-116.33 299,-116.33 299,-105.67 299,-105.67 299,-100.33 304.33,-95 309.67,-95"/>
</a>
</g>
</g>
<!-- function&#45;0&#45;ImmLabel -->
<g id="node5" class="node">
<title>function&#45;0&#45;ImmLabel</title>
<g id="a_node5"><a xlink:title="Imm&#45;3: function&#45;0&#45;ImmLabel">
<path fill="white" stroke="transparent" d="M208.17,-95C208.17,-95 265.83,-95 265.83,-95 271.17,-95 276.5,-100.33 276.5,-105.67 276.5,-105.67 276.5,-116.33 276.5,-116.33 276.5,-121.67 271.17,-127 265.83,-127 265.83,-127 208.17,-127 208.17,-127 202.83,-127 197.5,-121.67 197.5,-116.33 197.5,-116.33 197.5,-105.67 197.5,-105.67 197.5,-100.33 202.83,-95 208.17,-95"/>
<text text-anchor="start" x="203" y="-107.3" font-family="Helvetica,sans-Serif" font-size="14.00">ImmLabel</text>
<path fill="none" stroke="black" d="M208.17,-95C208.17,-95 265.83,-95 265.83,-95 271.17,-95 276.5,-100.33 276.5,-105.67 276.5,-105.67 276.5,-116.33 276.5,-116.33 276.5,-121.67 271.17,-127 265.83,-127 265.83,-127 208.17,-127 208.17,-127 202.83,-127 197.5,-121.67 197.5,-116.33 197.5,-116.33 197.5,-105.67 197.5,-105.67 197.5,-100.33 202.83,-95 208.17,-95"/>
</a>
</g>
</g>
<!-- primitive&#45;String&#45;2 -->
<g id="node6" class="node">
<title>primitive&#45;String&#45;2</title>
<g id="a_node6"><a xlink:title="String&#45;2: primitive&#45;String&#45;2">
<path fill="white" stroke="transparent" d="M171.17,-16C171.17,-16 304.83,-16 304.83,-16 310.17,-16 315.5,-21.33 315.5,-26.67 315.5,-26.67 315.5,-37.33 315.5,-37.33 315.5,-42.67 310.17,-48 304.83,-48 304.83,-48 171.17,-48 171.17,-48 165.83,-48 160.5,-42.67 160.5,-37.33 160.5,-37.33 160.5,-26.67 160.5,-26.67 160.5,-21.33 165.83,-16 171.17,-16"/>
<text text-anchor="start" x="166" y="-28.3" font-family="Helvetica,sans-Serif" font-size="14.00">&quot;%pcrel_hi(putchar)&quot;</text>
<path fill="none" stroke="black" d="M171.17,-16C171.17,-16 304.83,-16 304.83,-16 310.17,-16 315.5,-21.33 315.5,-26.67 315.5,-26.67 315.5,-37.33 315.5,-37.33 315.5,-42.67 310.17,-48 304.83,-48 304.83,-48 171.17,-48 171.17,-48 165.83,-48 160.5,-42.67 160.5,-37.33 160.5,-37.33 160.5,-26.67 160.5,-26.67 160.5,-21.33 165.83,-16 171.17,-16"/>
</a>
</g>
</g>
<!-- function&#45;0&#45;Jalr -->
<g id="node7" class="node">
<title>function&#45;0&#45;Jalr</title>
<g id="a_node7"><a xlink:title="Inst&#45;6: function&#45;0&#45;Jalr">
<path fill="white" stroke="transparent" d="M162.17,-253C162.17,-253 173.83,-253 173.83,-253 179.17,-253 184.5,-258.33 184.5,-263.67 184.5,-263.67 184.5,-274.33 184.5,-274.33 184.5,-279.67 179.17,-285 173.83,-285 173.83,-285 162.17,-285 162.17,-285 156.83,-285 151.5,-279.67 151.5,-274.33 151.5,-274.33 151.5,-263.67 151.5,-263.67 151.5,-258.33 156.83,-253 162.17,-253"/>
<text text-anchor="start" x="157" y="-265.3" font-family="Helvetica,sans-Serif" font-size="14.00">Jalr</text>
<path fill="none" stroke="black" d="M162.17,-253C162.17,-253 173.83,-253 173.83,-253 179.17,-253 184.5,-258.33 184.5,-263.67 184.5,-263.67 184.5,-274.33 184.5,-274.33 184.5,-279.67 179.17,-285 173.83,-285 173.83,-285 162.17,-285 162.17,-285 156.83,-285 151.5,-279.67 151.5,-274.33 151.5,-274.33 151.5,-263.67 151.5,-263.67 151.5,-258.33 156.83,-253 162.17,-253"/>
</a>
</g>
</g>
<!-- function&#45;0&#45;Auipc -->
<g id="node8" class="node">
<title>function&#45;0&#45;Auipc</title>
<g id="a_node8"><a xlink:title="Inst&#45;4: function&#45;0&#45;Auipc">
<path fill="white" stroke="transparent" d="M192.67,-174C192.67,-174 221.33,-174 221.33,-174 226.67,-174 232,-179.33 232,-184.67 232,-184.67 232,-195.33 232,-195.33 232,-200.67 226.67,-206 221.33,-206 221.33,-206 192.67,-206 192.67,-206 187.33,-206 182,-200.67 182,-195.33 182,-195.33 182,-184.67 182,-184.67 182,-179.33 187.33,-174 192.67,-174"/>
<text text-anchor="start" x="187" y="-186.3" font-family="Helvetica,sans-Serif" font-size="14.00">Auipc</text>
<path fill="none" stroke="black" d="M192.67,-174C192.67,-174 221.33,-174 221.33,-174 226.67,-174 232,-179.33 232,-184.67 232,-184.67 232,-195.33 232,-195.33 232,-200.67 226.67,-206 221.33,-206 221.33,-206 192.67,-206 192.67,-206 187.33,-206 182,-200.67 182,-195.33 182,-195.33 182,-184.67 182,-184.67 182,-179.33 187.33,-174 192.67,-174"/>
</a>
</g>
</g>
<!-- function&#45;0&#45;RegVal -->
<g id="node9" class="node">
<title>function&#45;0&#45;RegVal</title>
<g id="a_node9"><a xlink:title="Inst&#45;0: function&#45;0&#45;RegVal">
<path fill="white" stroke="transparent" d="M369.17,-174C369.17,-174 404.83,-174 404.83,-174 410.17,-174 415.5,-179.33 415.5,-184.67 415.5,-184.67 415.5,-195.33 415.5,-195.33 415.5,-200.67 410.17,-206 404.83,-206 404.83,-206 369.17,-206 369.17,-206 363.83,-206 358.5,-200.67 358.5,-195.33 358.5,-195.33 358.5,-184.67 358.5,-184.67 358.5,-179.33 363.83,-174 369.17,-174"/>
<text text-anchor="start" x="364" y="-186.3" font-family="Helvetica,sans-Serif" font-size="14.00">RegVal</text>
<path fill="none" stroke="black" d="M369.17,-174C369.17,-174 404.83,-174 404.83,-174 410.17,-174 415.5,-179.33 415.5,-184.67 415.5,-184.67 415.5,-195.33 415.5,-195.33 415.5,-200.67 410.17,-206 404.83,-206 404.83,-206 369.17,-206 369.17,-206 363.83,-206 358.5,-200.67 358.5,-195.33 358.5,-195.33 358.5,-184.67 358.5,-184.67 358.5,-179.33 363.83,-174 369.17,-174"/>
</a>
</g>
</g>
<!-- primitive&#45;String&#45;1 -->
<g id="node10" class="node">
<title>primitive&#45;String&#45;1</title>
<g id="a_node10"><a xlink:title="String&#45;1: primitive&#45;String&#45;1">
<path fill="white" stroke="transparent" d="M365.17,-95C365.17,-95 412.83,-95 412.83,-95 418.17,-95 423.5,-100.33 423.5,-105.67 423.5,-105.67 423.5,-116.33 423.5,-116.33 423.5,-121.67 418.17,-127 412.83,-127 412.83,-127 365.17,-127 365.17,-127 359.83,-127 354.5,-121.67 354.5,-116.33 354.5,-116.33 354.5,-105.67 354.5,-105.67 354.5,-100.33 359.83,-95 365.17,-95"/>
<text text-anchor="start" x="360" y="-107.3" font-family="Helvetica,sans-Serif" font-size="14.00">&quot;zero_0&quot;</text>
<path fill="none" stroke="black" d="M365.17,-95C365.17,-95 412.83,-95 412.83,-95 418.17,-95 423.5,-100.33 423.5,-105.67 423.5,-105.67 423.5,-116.33 423.5,-116.33 423.5,-121.67 418.17,-127 412.83,-127 412.83,-127 365.17,-127 365.17,-127 359.83,-127 354.5,-121.67 354.5,-116.33 354.5,-116.33 354.5,-105.67 354.5,-105.67 354.5,-100.33 359.83,-95 365.17,-95"/>
</a>
</g>
</g>
<!-- function&#45;0&#45;Addi -->
<g id="node11" class="node">
<title>function&#45;0&#45;Addi</title>
<g id="a_node11"><a xlink:title="Inst&#45;2: function&#45;0&#45;Addi">
<path fill="white" stroke="transparent" d="M341.17,-253C341.17,-253 360.83,-253 360.83,-253 366.17,-253 371.5,-258.33 371.5,-263.67 371.5,-263.67 371.5,-274.33 371.5,-274.33 371.5,-279.67 366.17,-285 360.83,-285 360.83,-285 341.17,-285 341.17,-285 335.83,-285 330.5,-279.67 330.5,-274.33 330.5,-274.33 330.5,-263.67 330.5,-263.67 330.5,-258.33 335.83,-253 341.17,-253"/>
<text text-anchor="start" x="336" y="-265.3" font-family="Helvetica,sans-Serif" font-size="14.00">Addi</text>
<path fill="none" stroke="black" d="M341.17,-253C341.17,-253 360.83,-253 360.83,-253 366.17,-253 371.5,-258.33 371.5,-263.67 371.5,-263.67 371.5,-274.33 371.5,-274.33 371.5,-279.67 366.17,-285 360.83,-285 360.83,-285 341.17,-285 341.17,-285 335.83,-285 330.5,-279.67 330.5,-274.33 330.5,-274.33 330.5,-263.67 330.5,-263.67 330.5,-258.33 335.83,-253 341.17,-253"/>
</a>
</g>
</g>
</g>
</svg>
