<?xml version="1.0" encoding="UTF-8" standalone="no"?>
<!DOCTYPE svg PUBLIC "-//W3C//DTD SVG 1.1//EN"
 "http://www.w3.org/Graphics/SVG/1.1/DTD/svg11.dtd">
<!-- Generated by graphviz version 2.43.0 (0)
 -->
<!-- Title: %3 Pages: 1 -->
<svg width="489pt" height="309pt"
 viewBox="0.00 0.00 489.00 309.00" xmlns="http://www.w3.org/2000/svg" xmlns:xlink="http://www.w3.org/1999/xlink">
<g id="graph0" class="graph" transform="scale(1 1) rotate(0) translate(4 305)">
<title>%3</title>
<polygon fill="white" stroke="#000000" points="-4,4 -4,-305 485,-305 485,4 -4,4"/>
<g id="clust1" class="cluster">
<title>outer_cluster_Imm&#45;1</title>
</g>
<g id="clust2" class="cluster">
<title>cluster_Imm&#45;1</title>
<path fill="#ffffb3" stroke="black" stroke-dasharray="5,2" d="M23,-169C23,-169 67,-169 67,-169 73,-169 79,-175 79,-181 79,-181 79,-199 79,-199 79,-205 73,-211 67,-211 67,-211 23,-211 23,-211 17,-211 11,-205 11,-199 11,-199 11,-181 11,-181 11,-175 17,-169 23,-169"/>
</g>
<g id="clust4" class="cluster">
<title>outer_cluster_Imm&#45;5</title>
</g>
<g id="clust5" class="cluster">
<title>cluster_Imm&#45;5</title>
<path fill="#ffffb3" stroke="black" stroke-dasharray="5,2" d="M235,-169C235,-169 295,-169 295,-169 301,-169 307,-175 307,-181 307,-181 307,-199 307,-199 307,-205 301,-211 295,-211 295,-211 235,-211 235,-211 229,-211 223,-205 223,-199 223,-199 223,-181 223,-181 223,-175 229,-169 235,-169"/>
</g>
<g id="clust7" class="cluster">
<title>outer_cluster_Imm&#45;3</title>
</g>
<g id="clust8" class="cluster">
<title>cluster_Imm&#45;3</title>
<path fill="#ffffb3" stroke="black" stroke-dasharray="5,2" d="M358,-90C358,-90 418,-90 418,-90 424,-90 430,-96 430,-102 430,-102 430,-120 430,-120 430,-126 424,-132 418,-132 418,-132 358,-132 358,-132 352,-132 346,-126 346,-120 346,-120 346,-102 346,-102 346,-96 352,-90 358,-90"/>
</g>
<g id="clust10" class="cluster">
<title>outer_cluster_Inst&#45;4</title>
</g>
<g id="clust11" class="cluster">
<title>cluster_Inst&#45;4</title>
<path fill="#bebada" stroke="black" stroke-dasharray="5,2" d="M355,-169C355,-169 391,-169 391,-169 397,-169 403,-175 403,-181 403,-181 403,-199 403,-199 403,-205 397,-211 391,-211 391,-211 355,-211 355,-211 349,-211 343,-205 343,-199 343,-199 343,-181 343,-181 343,-175 349,-169 355,-169"/>
</g>
<g id="clust13" class="cluster">
<title>outer_cluster_Inst&#45;2</title>
</g>
<g id="clust14" class="cluster">
<title>cluster_Inst&#45;2</title>
<path fill="#bebada" stroke="black" stroke-dasharray="5,2" d="M66,-248C66,-248 102,-248 102,-248 108,-248 114,-254 114,-260 114,-260 114,-278 114,-278 114,-284 108,-290 102,-290 102,-290 66,-290 66,-290 60,-290 54,-284 54,-278 54,-278 54,-260 54,-260 54,-254 60,-248 66,-248"/>
</g>
<g id="clust16" class="cluster">
<title>outer_cluster_Inst&#45;0</title>
</g>
<g id="clust17" class="cluster">
<title>cluster_Inst&#45;0</title>
<path fill="#bebada" stroke="black" stroke-dasharray="5,2" d="M97,-169C97,-169 137,-169 137,-169 143,-169 149,-175 149,-181 149,-181 149,-199 149,-199 149,-205 143,-211 137,-211 137,-211 97,-211 97,-211 91,-211 85,-205 85,-199 85,-199 85,-181 85,-181 85,-175 91,-169 97,-169"/>
</g>
<g id="clust19" class="cluster">
<title>outer_cluster_Inst&#45;6</title>
</g>
<g id="clust20" class="cluster">
<title>cluster_Inst&#45;6</title>
<path fill="#bebada" stroke="black" stroke-dasharray="5,2" d="M301,-248C301,-248 337,-248 337,-248 343,-248 349,-254 349,-260 349,-260 349,-278 349,-278 349,-284 343,-290 337,-290 337,-290 301,-290 301,-290 295,-290 289,-284 289,-278 289,-278 289,-260 289,-260 289,-254 295,-248 301,-248"/>
</g>
<g id="clust22" class="cluster">
<title>outer_cluster_String&#45;1</title>
</g>
<g id="clust23" class="cluster">
<title>cluster_String&#45;1</title>
<path fill="#fb8072" stroke="black" stroke-dasharray="5,2" d="M92,-90C92,-90 144,-90 144,-90 150,-90 156,-96 156,-102 156,-102 156,-120 156,-120 156,-126 150,-132 144,-132 144,-132 92,-132 92,-132 86,-132 80,-126 80,-120 80,-120 80,-102 80,-102 80,-96 86,-90 92,-90"/>
</g>
<g id="clust25" class="cluster">
<title>outer_cluster_String&#45;3</title>
</g>
<g id="clust26" class="cluster">
<title>cluster_String&#45;3</title>
<path fill="#fb8072" stroke="black" stroke-dasharray="5,2" d="M174,-90C174,-90 328,-90 328,-90 334,-90 340,-96 340,-102 340,-102 340,-120 340,-120 340,-126 334,-132 328,-132 328,-132 174,-132 174,-132 168,-132 162,-126 162,-120 162,-120 162,-102 162,-102 162,-96 168,-90 174,-90"/>
</g>
<g id="clust28" class="cluster">
<title>outer_cluster_String&#45;2</title>
</g>
<g id="clust29" class="cluster">
<title>cluster_String&#45;2</title>
<path fill="#fb8072" stroke="black" stroke-dasharray="5,2" d="M320,-11C320,-11 458,-11 458,-11 464,-11 470,-17 470,-23 470,-23 470,-41 470,-41 470,-47 464,-53 458,-53 458,-53 320,-53 320,-53 314,-53 308,-47 308,-41 308,-41 308,-23 308,-23 308,-17 314,-11 320,-11"/>
</g>
<g id="clust31" class="cluster">
<title>outer_cluster_i64&#45;10</title>
</g>
<g id="clust32" class="cluster">
<title>cluster_i64&#45;10</title>
<path fill="#80b1d3" stroke="black" stroke-dasharray="5,2" d="M26,-90C26,-90 62,-90 62,-90 68,-90 74,-96 74,-102 74,-102 74,-120 74,-120 74,-126 68,-132 62,-132 62,-132 26,-132 26,-132 20,-132 14,-126 14,-120 14,-120 14,-102 14,-102 14,-96 20,-90 26,-90"/>
</g>
<!-- function&#45;0&#45;ImmVal&#45;&gt;primitive&#45;i64&#45;10 -->
<g id="edge1" class="edge">
<title>function&#45;0&#45;ImmVal:s&#45;&gt;primitive&#45;i64&#45;10</title>
<path fill="none" stroke="black" d="M45,-174C45,-160.84 44.77,-146.1 44.53,-134.3"/>
<polygon fill="black" stroke="black" points="46.41,-136.91 44.42,-132 42.91,-137.08 46.41,-136.91"/>
</g>
<!-- function&#45;1&#45;ImmLabel&#45;&gt;primitive&#45;String&#45;3 -->
<g id="edge2" class="edge">
<title>function&#45;1&#45;ImmLabel:s&#45;&gt;primitive&#45;String&#45;3</title>
<path fill="none" stroke="black" d="M266,-174C266,-160.43 262.57,-145.65 258.98,-133.93"/>
<polygon fill="black" stroke="black" points="261.93,-134.82 257.45,-132 259.19,-137 261.93,-134.82"/>
</g>
<!-- function&#45;0&#45;ImmLabel&#45;&gt;primitive&#45;String&#45;2 -->
<g id="edge3" class="edge">
<title>function&#45;0&#45;ImmLabel:s&#45;&gt;primitive&#45;String&#45;2</title>
<path fill="none" stroke="black" d="M389,-95C389,-81.84 389,-67.11 389,-55.3"/>
<polygon fill="black" stroke="black" points="390.75,-58 389,-53 387.25,-58 390.75,-58"/>
</g>
<!-- function&#45;0&#45;Auipc&#45;&gt;function&#45;0&#45;ImmLabel -->
<g id="edge4" class="edge">
<title>function&#45;0&#45;Auipc:s&#45;&gt;function&#45;0&#45;ImmLabel</title>
<path fill="none" stroke="black" d="M373,-174C373,-160.43 376.43,-145.65 380.02,-133.93"/>
<polygon fill="black" stroke="black" points="379.81,-137 381.55,-132 377.07,-134.82 379.81,-137"/>
</g>
<!-- function&#45;0&#45;Addi&#45;&gt;function&#45;0&#45;ImmVal -->
<g id="edge6" class="edge">
<title>function&#45;0&#45;Addi:s&#45;&gt;function&#45;0&#45;ImmVal</title>
<path fill="none" stroke="black" d="M94,-253C94,-236.85 83.64,-222.45 72.45,-211.6"/>
<polygon fill="black" stroke="black" points="76.71,-212.55 71.64,-211 74.64,-215.37 76.71,-212.55"/>
</g>
<!-- function&#45;0&#45;Addi&#45;&gt;function&#45;0&#45;RegVal -->
<g id="edge5" class="edge">
<title>function&#45;0&#45;Addi:s&#45;&gt;function&#45;0&#45;RegVal</title>
<path fill="none" stroke="black" d="M74,-253C74,-237.48 83.21,-223.05 93.1,-212.02"/>
<polygon fill="black" stroke="black" points="91.42,-215.11 94.76,-211 89.58,-212.14 91.42,-215.11"/>
</g>
<!-- function&#45;0&#45;RegVal&#45;&gt;primitive&#45;String&#45;1 -->
<g id="edge7" class="edge">
<title>function&#45;0&#45;RegVal:s&#45;&gt;primitive&#45;String&#45;1</title>
<path fill="none" stroke="black" d="M118,-174C118,-160.84 118,-146.11 118,-134.3"/>
<polygon fill="black" stroke="black" points="119.75,-137 118,-132 116.25,-137 119.75,-137"/>
</g>
<!-- function&#45;0&#45;Jalr&#45;&gt;function&#45;1&#45;ImmLabel -->
<g id="edge9" class="edge">
<title>function&#45;0&#45;Jalr:s&#45;&gt;function&#45;1&#45;ImmLabel</title>
<path fill="none" stroke="black" d="M327,-253C327,-235.76 314.86,-221.63 301.32,-211.24"/>
<polygon fill="black" stroke="black" points="305.33,-210.26 300.09,-211 304.65,-213.69 305.33,-210.26"/>
</g>
<!-- function&#45;0&#45;Jalr&#45;&gt;function&#45;0&#45;Auipc -->
<g id="edge8" class="edge">
<title>function&#45;0&#45;Jalr:s&#45;&gt;function&#45;0&#45;Auipc</title>
<path fill="none" stroke="black" d="M311,-253C311,-233.66 326.27,-218.24 341.66,-207.62"/>
<polygon fill="black" stroke="black" points="341.5,-210.84 343,-205.75 338.66,-208.79 341.5,-210.84"/>
</g>
<!-- function&#45;0&#45;ImmVal -->
<g id="node1" class="node">
<title>function&#45;0&#45;ImmVal</title>
<g id="a_node1"><a xlink:title="Imm&#45;1: function&#45;0&#45;ImmVal">
<path fill="white" stroke="transparent" d="M24.67,-174C24.67,-174 65.33,-174 65.33,-174 70.67,-174 76,-179.33 76,-184.67 76,-184.67 76,-195.33 76,-195.33 76,-200.67 70.67,-206 65.33,-206 65.33,-206 24.67,-206 24.67,-206 19.33,-206 14,-200.67 14,-195.33 14,-195.33 14,-184.67 14,-184.67 14,-179.33 19.33,-174 24.67,-174"/>
<text text-anchor="start" x="19" y="-186.3" font-family="Helvetica,sans-Serif" font-size="14.00">ImmVal</text>
<path fill="none" stroke="black" d="M24.67,-174C24.67,-174 65.33,-174 65.33,-174 70.67,-174 76,-179.33 76,-184.67 76,-184.67 76,-195.33 76,-195.33 76,-200.67 70.67,-206 65.33,-206 65.33,-206 24.67,-206 24.67,-206 19.33,-206 14,-200.67 14,-195.33 14,-195.33 14,-184.67 14,-184.67 14,-179.33 19.33,-174 24.67,-174"/>
</a>
</g>
</g>
<!-- primitive&#45;i64&#45;10 -->
<g id="node2" class="node">
<title>primitive&#45;i64&#45;10</title>
<g id="a_node2"><a xlink:title="i64&#45;10: primitive&#45;i64&#45;10">
<path fill="white" stroke="transparent" d="M38.67,-95C38.67,-95 49.33,-95 49.33,-95 54.67,-95 60,-100.33 60,-105.67 60,-105.67 60,-116.33 60,-116.33 60,-121.67 54.67,-127 49.33,-127 49.33,-127 38.67,-127 38.67,-127 33.33,-127 28,-121.67 28,-116.33 28,-116.33 28,-105.67 28,-105.67 28,-100.33 33.33,-95 38.67,-95"/>
<text text-anchor="start" x="34.5" y="-107.3" font-family="Helvetica,sans-Serif" font-size="14.00">10</text>
<path fill="none" stroke="black" d="M38.67,-95C38.67,-95 49.33,-95 49.33,-95 54.67,-95 60,-100.33 60,-105.67 60,-105.67 60,-116.33 60,-116.33 60,-121.67 54.67,-127 49.33,-127 49.33,-127 38.67,-127 38.67,-127 33.33,-127 28,-121.67 28,-116.33 28,-116.33 28,-105.67 28,-105.67 28,-100.33 33.33,-95 38.67,-95"/>
</a>
</g>
</g>
<!-- function&#45;1&#45;ImmLabel -->
<g id="node3" class="node">
<title>function&#45;1&#45;ImmLabel</title>
<g id="a_node3"><a xlink:title="Imm&#45;5: function&#45;1&#45;ImmLabel">
<path fill="white" stroke="transparent" d="M236.17,-174C236.17,-174 293.83,-174 293.83,-174 299.17,-174 304.5,-179.33 304.5,-184.67 304.5,-184.67 304.5,-195.33 304.5,-195.33 304.5,-200.67 299.17,-206 293.83,-206 293.83,-206 236.17,-206 236.17,-206 230.83,-206 225.5,-200.67 225.5,-195.33 225.5,-195.33 225.5,-184.67 225.5,-184.67 225.5,-179.33 230.83,-174 236.17,-174"/>
<text text-anchor="start" x="231" y="-186.3" font-family="Helvetica,sans-Serif" font-size="14.00">ImmLabel</text>
<path fill="none" stroke="black" d="M236.17,-174C236.17,-174 293.83,-174 293.83,-174 299.17,-174 304.5,-179.33 304.5,-184.67 304.5,-184.67 304.5,-195.33 304.5,-195.33 304.5,-200.67 299.17,-206 293.83,-206 293.83,-206 236.17,-206 236.17,-206 230.83,-206 225.5,-200.67 225.5,-195.33 225.5,-195.33 225.5,-184.67 225.5,-184.67 225.5,-179.33 230.83,-174 236.17,-174"/>
</a>
</g>
</g>
<!-- primitive&#45;String&#45;3 -->
<g id="node4" class="node">
<title>primitive&#45;String&#45;3</title>
<g id="a_node4"><a xlink:title="String&#45;3: primitive&#45;String&#45;3">
<path fill="white" stroke="transparent" d="M176.17,-95C176.17,-95 325.83,-95 325.83,-95 331.17,-95 336.5,-100.33 336.5,-105.67 336.5,-105.67 336.5,-116.33 336.5,-116.33 336.5,-121.67 331.17,-127 325.83,-127 325.83,-127 176.17,-127 176.17,-127 170.83,-127 165.5,-121.67 165.5,-116.33 165.5,-116.33 165.5,-105.67 165.5,-105.67 165.5,-100.33 170.83,-95 176.17,-95"/>
<text text-anchor="start" x="171" y="-107.3" font-family="Helvetica,sans-Serif" font-size="14.00">&quot;%pcrel_lo(.Lpcrel_10)&quot;</text>
<path fill="none" stroke="black" d="M176.17,-95C176.17,-95 325.83,-95 325.83,-95 331.17,-95 336.5,-100.33 336.5,-105.67 336.5,-105.67 336.5,-116.33 336.5,-116.33 336.5,-121.67 331.17,-127 325.83,-127 325.83,-127 176.17,-127 176.17,-127 170.83,-127 165.5,-121.67 165.5,-116.33 165.5,-116.33 165.5,-105.67 165.5,-105.67 165.5,-100.33 170.83,-95 176.17,-95"/>
</a>
</g>
</g>
<!-- function&#45;0&#45;ImmLabel -->
<g id="node5" class="node">
<title>function&#45;0&#45;ImmLabel</title>
<g id="a_node5"><a xlink:title="Imm&#45;3: function&#45;0&#45;ImmLabel">
<path fill="white" stroke="transparent" d="M359.17,-95C359.17,-95 416.83,-95 416.83,-95 422.17,-95 427.5,-100.33 427.5,-105.67 427.5,-105.67 427.5,-116.33 427.5,-116.33 427.5,-121.67 422.17,-127 416.83,-127 416.83,-127 359.17,-127 359.17,-127 353.83,-127 348.5,-121.67 348.5,-116.33 348.5,-116.33 348.5,-105.67 348.5,-105.67 348.5,-100.33 353.83,-95 359.17,-95"/>
<text text-anchor="start" x="354" y="-107.3" font-family="Helvetica,sans-Serif" font-size="14.00">ImmLabel</text>
<path fill="none" stroke="black" d="M359.17,-95C359.17,-95 416.83,-95 416.83,-95 422.17,-95 427.5,-100.33 427.5,-105.67 427.5,-105.67 427.5,-116.33 427.5,-116.33 427.5,-121.67 422.17,-127 416.83,-127 416.83,-127 359.17,-127 359.17,-127 353.83,-127 348.5,-121.67 348.5,-116.33 348.5,-116.33 348.5,-105.67 348.5,-105.67 348.5,-100.33 353.83,-95 359.17,-95"/>
</a>
</g>
</g>
<!-- primitive&#45;String&#45;2 -->
<g id="node6" class="node">
<title>primitive&#45;String&#45;2</title>
<g id="a_node6"><a xlink:title="String&#45;2: primitive&#45;String&#45;2">
<path fill="white" stroke="transparent" d="M322.17,-16C322.17,-16 455.83,-16 455.83,-16 461.17,-16 466.5,-21.33 466.5,-26.67 466.5,-26.67 466.5,-37.33 466.5,-37.33 466.5,-42.67 461.17,-48 455.83,-48 455.83,-48 322.17,-48 322.17,-48 316.83,-48 311.5,-42.67 311.5,-37.33 311.5,-37.33 311.5,-26.67 311.5,-26.67 311.5,-21.33 316.83,-16 322.17,-16"/>
<text text-anchor="start" x="317" y="-28.3" font-family="Helvetica,sans-Serif" font-size="14.00">&quot;%pcrel_hi(putchar)&quot;</text>
<path fill="none" stroke="black" d="M322.17,-16C322.17,-16 455.83,-16 455.83,-16 461.17,-16 466.5,-21.33 466.5,-26.67 466.5,-26.67 466.5,-37.33 466.5,-37.33 466.5,-42.67 461.17,-48 455.83,-48 455.83,-48 322.17,-48 322.17,-48 316.83,-48 311.5,-42.67 311.5,-37.33 311.5,-37.33 311.5,-26.67 311.5,-26.67 311.5,-21.33 316.83,-16 322.17,-16"/>
</a>
</g>
</g>
<!-- function&#45;0&#45;Auipc -->
<g id="node7" class="node">
<title>function&#45;0&#45;Auipc</title>
<g id="a_node7"><a xlink:title="Inst&#45;4: function&#45;0&#45;Auipc">
<path fill="white" stroke="transparent" d="M358.67,-174C358.67,-174 387.33,-174 387.33,-174 392.67,-174 398,-179.33 398,-184.67 398,-184.67 398,-195.33 398,-195.33 398,-200.67 392.67,-206 387.33,-206 387.33,-206 358.67,-206 358.67,-206 353.33,-206 348,-200.67 348,-195.33 348,-195.33 348,-184.67 348,-184.67 348,-179.33 353.33,-174 358.67,-174"/>
<text text-anchor="start" x="353" y="-186.3" font-family="Helvetica,sans-Serif" font-size="14.00">Auipc</text>
<path fill="none" stroke="black" d="M358.67,-174C358.67,-174 387.33,-174 387.33,-174 392.67,-174 398,-179.33 398,-184.67 398,-184.67 398,-195.33 398,-195.33 398,-200.67 392.67,-206 387.33,-206 387.33,-206 358.67,-206 358.67,-206 353.33,-206 348,-200.67 348,-195.33 348,-195.33 348,-184.67 348,-184.67 348,-179.33 353.33,-174 358.67,-174"/>
</a>
</g>
</g>
<!-- function&#45;0&#45;Addi -->
<g id="node8" class="node">
<title>function&#45;0&#45;Addi</title>
<g id="a_node8"><a xlink:title="Inst&#45;2: function&#45;0&#45;Addi">
<path fill="white" stroke="transparent" d="M74.17,-253C74.17,-253 93.83,-253 93.83,-253 99.17,-253 104.5,-258.33 104.5,-263.67 104.5,-263.67 104.5,-274.33 104.5,-274.33 104.5,-279.67 99.17,-285 93.83,-285 93.83,-285 74.17,-285 74.17,-285 68.83,-285 63.5,-279.67 63.5,-274.33 63.5,-274.33 63.5,-263.67 63.5,-263.67 63.5,-258.33 68.83,-253 74.17,-253"/>
<text text-anchor="start" x="69" y="-265.3" font-family="Helvetica,sans-Serif" font-size="14.00">Addi</text>
<path fill="none" stroke="black" d="M74.17,-253C74.17,-253 93.83,-253 93.83,-253 99.17,-253 104.5,-258.33 104.5,-263.67 104.5,-263.67 104.5,-274.33 104.5,-274.33 104.5,-279.67 99.17,-285 93.83,-285 93.83,-285 74.17,-285 74.17,-285 68.83,-285 63.5,-279.67 63.5,-274.33 63.5,-274.33 63.5,-263.67 63.5,-263.67 63.5,-258.33 68.83,-253 74.17,-253"/>
</a>
</g>
</g>
<!-- function&#45;0&#45;RegVal -->
<g id="node9" class="node">
<title>function&#45;0&#45;RegVal</title>
<g id="a_node9"><a xlink:title="Inst&#45;0: function&#45;0&#45;RegVal">
<path fill="white" stroke="transparent" d="M99.17,-174C99.17,-174 134.83,-174 134.83,-174 140.17,-174 145.5,-179.33 145.5,-184.67 145.5,-184.67 145.5,-195.33 145.5,-195.33 145.5,-200.67 140.17,-206 134.83,-206 134.83,-206 99.17,-206 99.17,-206 93.83,-206 88.5,-200.67 88.5,-195.33 88.5,-195.33 88.5,-184.67 88.5,-184.67 88.5,-179.33 93.83,-174 99.17,-174"/>
<text text-anchor="start" x="94" y="-186.3" font-family="Helvetica,sans-Serif" font-size="14.00">RegVal</text>
<path fill="none" stroke="black" d="M99.17,-174C99.17,-174 134.83,-174 134.83,-174 140.17,-174 145.5,-179.33 145.5,-184.67 145.5,-184.67 145.5,-195.33 145.5,-195.33 145.5,-200.67 140.17,-206 134.83,-206 134.83,-206 99.17,-206 99.17,-206 93.83,-206 88.5,-200.67 88.5,-195.33 88.5,-195.33 88.5,-184.67 88.5,-184.67 88.5,-179.33 93.83,-174 99.17,-174"/>
</a>
</g>
</g>
<!-- primitive&#45;String&#45;1 -->
<g id="node10" class="node">
<title>primitive&#45;String&#45;1</title>
<g id="a_node10"><a xlink:title="String&#45;1: primitive&#45;String&#45;1">
<path fill="white" stroke="transparent" d="M94.17,-95C94.17,-95 141.83,-95 141.83,-95 147.17,-95 152.5,-100.33 152.5,-105.67 152.5,-105.67 152.5,-116.33 152.5,-116.33 152.5,-121.67 147.17,-127 141.83,-127 141.83,-127 94.17,-127 94.17,-127 88.83,-127 83.5,-121.67 83.5,-116.33 83.5,-116.33 83.5,-105.67 83.5,-105.67 83.5,-100.33 88.83,-95 94.17,-95"/>
<text text-anchor="start" x="89" y="-107.3" font-family="Helvetica,sans-Serif" font-size="14.00">&quot;zero_0&quot;</text>
<path fill="none" stroke="black" d="M94.17,-95C94.17,-95 141.83,-95 141.83,-95 147.17,-95 152.5,-100.33 152.5,-105.67 152.5,-105.67 152.5,-116.33 152.5,-116.33 152.5,-121.67 147.17,-127 141.83,-127 141.83,-127 94.17,-127 94.17,-127 88.83,-127 83.5,-121.67 83.5,-116.33 83.5,-116.33 83.5,-105.67 83.5,-105.67 83.5,-100.33 88.83,-95 94.17,-95"/>
</a>
</g>
</g>
<!-- function&#45;0&#45;Jalr -->
<g id="node11" class="node">
<title>function&#45;0&#45;Jalr</title>
<g id="a_node11"><a xlink:title="Inst&#45;6: function&#45;0&#45;Jalr">
<path fill="white" stroke="transparent" d="M313.17,-253C313.17,-253 324.83,-253 324.83,-253 330.17,-253 335.5,-258.33 335.5,-263.67 335.5,-263.67 335.5,-274.33 335.5,-274.33 335.5,-279.67 330.17,-285 324.83,-285 324.83,-285 313.17,-285 313.17,-285 307.83,-285 302.5,-279.67 302.5,-274.33 302.5,-274.33 302.5,-263.67 302.5,-263.67 302.5,-258.33 307.83,-253 313.17,-253"/>
<text text-anchor="start" x="308" y="-265.3" font-family="Helvetica,sans-Serif" font-size="14.00">Jalr</text>
<path fill="none" stroke="black" d="M313.17,-253C313.17,-253 324.83,-253 324.83,-253 330.17,-253 335.5,-258.33 335.5,-263.67 335.5,-263.67 335.5,-274.33 335.5,-274.33 335.5,-279.67 330.17,-285 324.83,-285 324.83,-285 313.17,-285 313.17,-285 307.83,-285 302.5,-279.67 302.5,-274.33 302.5,-274.33 302.5,-263.67 302.5,-263.67 302.5,-258.33 307.83,-253 313.17,-253"/>
</a>
</g>
</g>
</g>
</svg>
