<?xml version="1.0" encoding="UTF-8" standalone="no"?>
<!DOCTYPE svg PUBLIC "-//W3C//DTD SVG 1.1//EN"
 "http://www.w3.org/Graphics/SVG/1.1/DTD/svg11.dtd">
<!-- Generated by graphviz version 2.43.0 (0)
 -->
<!-- Title: %3 Pages: 1 -->
<svg width="970pt" height="309pt"
 viewBox="0.00 0.00 970.00 309.00" xmlns="http://www.w3.org/2000/svg" xmlns:xlink="http://www.w3.org/1999/xlink">
<g id="graph0" class="graph" transform="scale(1 1) rotate(0) translate(4 305)">
<title>%3</title>
<polygon fill="white" stroke="#000000" points="-4,4 -4,-305 966,-305 966,4 -4,4"/>
<g id="clust1" class="cluster">
<title>outer_cluster_Imm&#45;13</title>
</g>
<g id="clust2" class="cluster">
<title>cluster_Imm&#45;13</title>
<path fill="#ffffb3" stroke="black" stroke-dasharray="5,2" d="M49,-169C49,-169 109,-169 109,-169 115,-169 121,-175 121,-181 121,-181 121,-199 121,-199 121,-205 115,-211 109,-211 109,-211 49,-211 49,-211 43,-211 37,-205 37,-199 37,-199 37,-181 37,-181 37,-175 43,-169 49,-169"/>
</g>
<g id="clust4" class="cluster">
<title>outer_cluster_Imm&#45;11</title>
</g>
<g id="clust5" class="cluster">
<title>cluster_Imm&#45;11</title>
<path fill="#ffffb3" stroke="black" stroke-dasharray="5,2" d="M163,-169C163,-169 207,-169 207,-169 213,-169 219,-175 219,-181 219,-181 219,-199 219,-199 219,-205 213,-211 207,-211 207,-211 163,-211 163,-211 157,-211 151,-205 151,-199 151,-199 151,-181 151,-181 151,-175 157,-169 163,-169"/>
</g>
<g id="clust7" class="cluster">
<title>outer_cluster_Imm&#45;7</title>
</g>
<g id="clust8" class="cluster">
<title>cluster_Imm&#45;7</title>
<path fill="#ffffb3" stroke="black" stroke-dasharray="5,2" d="M629,-90C629,-90 689,-90 689,-90 695,-90 701,-96 701,-102 701,-102 701,-120 701,-120 701,-126 695,-132 689,-132 689,-132 629,-132 629,-132 623,-132 617,-126 617,-120 617,-120 617,-102 617,-102 617,-96 623,-90 629,-90"/>
</g>
<g id="clust10" class="cluster">
<title>outer_cluster_Imm&#45;9</title>
</g>
<g id="clust11" class="cluster">
<title>cluster_Imm&#45;9</title>
<path fill="#ffffb3" stroke="black" stroke-dasharray="5,2" d="M539,-169C539,-169 599,-169 599,-169 605,-169 611,-175 611,-181 611,-181 611,-199 611,-199 611,-205 605,-211 599,-211 599,-211 539,-211 539,-211 533,-211 527,-205 527,-199 527,-199 527,-181 527,-181 527,-175 533,-169 539,-169"/>
</g>
<g id="clust13" class="cluster">
<title>outer_cluster_Imm&#45;3</title>
</g>
<g id="clust14" class="cluster">
<title>cluster_Imm&#45;3</title>
<path fill="#ffffb3" stroke="black" stroke-dasharray="5,2" d="M455,-169C455,-169 499,-169 499,-169 505,-169 511,-175 511,-181 511,-181 511,-199 511,-199 511,-205 505,-211 499,-211 499,-211 455,-211 455,-211 449,-211 443,-205 443,-199 443,-199 443,-181 443,-181 443,-175 449,-169 455,-169"/>
</g>
<g id="clust16" class="cluster">
<title>outer_cluster_Imm&#45;1</title>
</g>
<g id="clust17" class="cluster">
<title>cluster_Imm&#45;1</title>
<path fill="#ffffb3" stroke="black" stroke-dasharray="5,2" d="M237,-169C237,-169 281,-169 281,-169 287,-169 293,-175 293,-181 293,-181 293,-199 293,-199 293,-205 287,-211 281,-211 281,-211 237,-211 237,-211 231,-211 225,-205 225,-199 225,-199 225,-181 225,-181 225,-175 231,-169 237,-169"/>
</g>
<g id="clust19" class="cluster">
<title>outer_cluster_Imm&#45;5</title>
</g>
<g id="clust20" class="cluster">
<title>cluster_Imm&#45;5</title>
<path fill="#ffffb3" stroke="black" stroke-dasharray="5,2" d="M381,-169C381,-169 425,-169 425,-169 431,-169 437,-175 437,-181 437,-181 437,-199 437,-199 437,-205 431,-211 425,-211 425,-211 381,-211 381,-211 375,-211 369,-205 369,-199 369,-199 369,-181 369,-181 369,-175 375,-169 381,-169"/>
</g>
<g id="clust22" class="cluster">
<title>outer_cluster_Imm&#45;16</title>
</g>
<g id="clust23" class="cluster">
<title>cluster_Imm&#45;16</title>
<path fill="#ffffb3" stroke="black" stroke-dasharray="5,2" d="M709,-169C709,-169 769,-169 769,-169 775,-169 781,-175 781,-181 781,-181 781,-199 781,-199 781,-205 775,-211 769,-211 769,-211 709,-211 709,-211 703,-211 697,-205 697,-199 697,-199 697,-181 697,-181 697,-175 703,-169 709,-169"/>
</g>
<g id="clust25" class="cluster">
<title>outer_cluster_Inst&#45;14</title>
</g>
<g id="clust26" class="cluster">
<title>cluster_Inst&#45;14</title>
<path fill="#bebada" stroke="black" stroke-dasharray="5,2" d="M61,-248C61,-248 97,-248 97,-248 103,-248 109,-254 109,-260 109,-260 109,-278 109,-278 109,-284 103,-290 97,-290 97,-290 61,-290 61,-290 55,-290 49,-284 49,-278 49,-278 49,-260 49,-260 49,-254 55,-248 61,-248"/>
</g>
<g id="clust28" class="cluster">
<title>outer_cluster_Inst&#45;2</title>
</g>
<g id="clust29" class="cluster">
<title>cluster_Inst&#45;2</title>
<path fill="#bebada" stroke="black" stroke-dasharray="5,2" d="M252,-248C252,-248 288,-248 288,-248 294,-248 300,-254 300,-260 300,-260 300,-278 300,-278 300,-284 294,-290 288,-290 288,-290 252,-290 252,-290 246,-290 240,-284 240,-278 240,-278 240,-260 240,-260 240,-254 246,-248 252,-248"/>
</g>
<g id="clust31" class="cluster">
<title>outer_cluster_Inst&#45;6</title>
</g>
<g id="clust32" class="cluster">
<title>cluster_Inst&#45;6</title>
<path fill="#bebada" stroke="black" stroke-dasharray="5,2" d="M337,-248C337,-248 373,-248 373,-248 379,-248 385,-254 385,-260 385,-260 385,-278 385,-278 385,-284 379,-290 373,-290 373,-290 337,-290 337,-290 331,-290 325,-284 325,-278 325,-278 325,-260 325,-260 325,-254 331,-248 337,-248"/>
</g>
<g id="clust34" class="cluster">
<title>outer_cluster_Inst&#45;8</title>
</g>
<g id="clust35" class="cluster">
<title>cluster_Inst&#45;8</title>
<path fill="#bebada" stroke="black" stroke-dasharray="5,2" d="M638,-169C638,-169 674,-169 674,-169 680,-169 686,-175 686,-181 686,-181 686,-199 686,-199 686,-205 680,-211 674,-211 674,-211 638,-211 638,-211 632,-211 626,-205 626,-199 626,-199 626,-181 626,-181 626,-175 632,-169 638,-169"/>
</g>
<g id="clust37" class="cluster">
<title>outer_cluster_Inst&#45;4</title>
</g>
<g id="clust38" class="cluster">
<title>cluster_Inst&#45;4</title>
<path fill="#bebada" stroke="black" stroke-dasharray="5,2" d="M419,-248C419,-248 455,-248 455,-248 461,-248 467,-254 467,-260 467,-260 467,-278 467,-278 467,-284 461,-290 455,-290 455,-290 419,-290 419,-290 413,-290 407,-284 407,-278 407,-278 407,-260 407,-260 407,-254 413,-248 419,-248"/>
</g>
<g id="clust40" class="cluster">
<title>outer_cluster_Inst&#45;12</title>
</g>
<g id="clust41" class="cluster">
<title>cluster_Inst&#45;12</title>
<path fill="#bebada" stroke="black" stroke-dasharray="5,2" d="M162,-248C162,-248 198,-248 198,-248 204,-248 210,-254 210,-260 210,-260 210,-278 210,-278 210,-284 204,-290 198,-290 198,-290 162,-290 162,-290 156,-290 150,-284 150,-278 150,-278 150,-260 150,-260 150,-254 156,-248 162,-248"/>
</g>
<g id="clust43" class="cluster">
<title>outer_cluster_Inst&#45;0</title>
</g>
<g id="clust44" class="cluster">
<title>cluster_Inst&#45;0</title>
<path fill="#bebada" stroke="black" stroke-dasharray="5,2" d="M311,-169C311,-169 351,-169 351,-169 357,-169 363,-175 363,-181 363,-181 363,-199 363,-199 363,-205 357,-211 351,-211 351,-211 311,-211 311,-211 305,-211 299,-205 299,-199 299,-199 299,-181 299,-181 299,-175 305,-169 311,-169"/>
</g>
<g id="clust46" class="cluster">
<title>outer_cluster_Inst&#45;15</title>
</g>
<g id="clust47" class="cluster">
<title>cluster_Inst&#45;15</title>
<path fill="#bebada" stroke="black" stroke-dasharray="5,2" d="M821,-169C821,-169 861,-169 861,-169 867,-169 873,-175 873,-181 873,-181 873,-199 873,-199 873,-205 867,-211 861,-211 861,-211 821,-211 821,-211 815,-211 809,-205 809,-199 809,-199 809,-181 809,-181 809,-175 815,-169 821,-169"/>
</g>
<g id="clust49" class="cluster">
<title>outer_cluster_Inst&#45;10</title>
</g>
<g id="clust50" class="cluster">
<title>cluster_Inst&#45;10</title>
<path fill="#bebada" stroke="black" stroke-dasharray="5,2" d="M594,-248C594,-248 630,-248 630,-248 636,-248 642,-254 642,-260 642,-260 642,-278 642,-278 642,-284 636,-290 630,-290 630,-290 594,-290 594,-290 588,-290 582,-284 582,-278 582,-278 582,-260 582,-260 582,-254 588,-248 594,-248"/>
</g>
<g id="clust52" class="cluster">
<title>outer_cluster_Inst&#45;17</title>
</g>
<g id="clust53" class="cluster">
<title>cluster_Inst&#45;17</title>
<path fill="#bebada" stroke="black" stroke-dasharray="5,2" d="M772,-248C772,-248 808,-248 808,-248 814,-248 820,-254 820,-260 820,-260 820,-278 820,-278 820,-284 814,-290 808,-290 808,-290 772,-290 772,-290 766,-290 760,-284 760,-278 760,-278 760,-260 760,-260 760,-254 766,-248 772,-248"/>
</g>
<g id="clust55" class="cluster">
<title>outer_cluster_String&#45;0</title>
</g>
<g id="clust56" class="cluster">
<title>cluster_String&#45;0</title>
<path fill="#fb8072" stroke="black" stroke-dasharray="5,2" d="M313,-90C313,-90 351,-90 351,-90 357,-90 363,-96 363,-102 363,-102 363,-120 363,-120 363,-126 357,-132 351,-132 351,-132 313,-132 313,-132 307,-132 301,-126 301,-120 301,-120 301,-102 301,-102 301,-96 307,-90 313,-90"/>
</g>
<g id="clust58" class="cluster">
<title>outer_cluster_String&#45;5</title>
</g>
<g id="clust59" class="cluster">
<title>cluster_String&#45;5</title>
<path fill="#fb8072" stroke="black" stroke-dasharray="5,2" d="M719,-90C719,-90 755,-90 755,-90 761,-90 767,-96 767,-102 767,-102 767,-120 767,-120 767,-126 761,-132 755,-132 755,-132 719,-132 719,-132 713,-132 707,-126 707,-120 707,-120 707,-102 707,-102 707,-96 713,-90 719,-90"/>
</g>
<g id="clust61" class="cluster">
<title>outer_cluster_String&#45;2</title>
</g>
<g id="clust62" class="cluster">
<title>cluster_String&#45;2</title>
<path fill="#fb8072" stroke="black" stroke-dasharray="5,2" d="M525,-90C525,-90 599,-90 599,-90 605,-90 611,-96 611,-102 611,-102 611,-120 611,-120 611,-126 605,-132 599,-132 599,-132 525,-132 525,-132 519,-132 513,-126 513,-120 513,-120 513,-102 513,-102 513,-96 519,-90 525,-90"/>
</g>
<g id="clust64" class="cluster">
<title>outer_cluster_String&#45;1</title>
</g>
<g id="clust65" class="cluster">
<title>cluster_String&#45;1</title>
<path fill="#fb8072" stroke="black" stroke-dasharray="5,2" d="M623,-11C623,-11 697,-11 697,-11 703,-11 709,-17 709,-23 709,-23 709,-41 709,-41 709,-47 703,-53 697,-53 697,-53 623,-53 623,-53 617,-53 611,-47 611,-41 611,-41 611,-23 611,-23 611,-17 617,-11 623,-11"/>
</g>
<g id="clust67" class="cluster">
<title>outer_cluster_String&#45;3</title>
</g>
<g id="clust68" class="cluster">
<title>cluster_String&#45;3</title>
<path fill="#fb8072" stroke="black" stroke-dasharray="5,2" d="M23,-90C23,-90 137,-90 137,-90 143,-90 149,-96 149,-102 149,-102 149,-120 149,-120 149,-126 143,-132 137,-132 137,-132 23,-132 23,-132 17,-132 11,-126 11,-120 11,-120 11,-102 11,-102 11,-96 17,-90 23,-90"/>
</g>
<g id="clust70" class="cluster">
<title>outer_cluster_String&#45;4</title>
</g>
<g id="clust71" class="cluster">
<title>cluster_String&#45;4</title>
<path fill="#fb8072" stroke="black" stroke-dasharray="5,2" d="M785,-90C785,-90 939,-90 939,-90 945,-90 951,-96 951,-102 951,-102 951,-120 951,-120 951,-126 945,-132 939,-132 939,-132 785,-132 785,-132 779,-132 773,-126 773,-120 773,-120 773,-102 773,-102 773,-96 779,-90 785,-90"/>
</g>
<g id="clust73" class="cluster">
<title>outer_cluster_i64&#45;72</title>
</g>
<g id="clust74" class="cluster">
<title>cluster_i64&#45;72</title>
<path fill="#80b1d3" stroke="black" stroke-dasharray="5,2" d="M241,-90C241,-90 277,-90 277,-90 283,-90 289,-96 289,-102 289,-102 289,-120 289,-120 289,-126 283,-132 277,-132 277,-132 241,-132 241,-132 235,-132 229,-126 229,-120 229,-120 229,-102 229,-102 229,-96 235,-90 241,-90"/>
</g>
<g id="clust76" class="cluster">
<title>outer_cluster_i64&#45;80</title>
</g>
<g id="clust77" class="cluster">
<title>cluster_i64&#45;80</title>
<path fill="#80b1d3" stroke="black" stroke-dasharray="5,2" d="M167,-90C167,-90 203,-90 203,-90 209,-90 215,-96 215,-102 215,-102 215,-120 215,-120 215,-126 209,-132 203,-132 203,-132 167,-132 167,-132 161,-132 155,-126 155,-120 155,-120 155,-102 155,-102 155,-96 161,-90 167,-90"/>
</g>
<g id="clust79" class="cluster">
<title>outer_cluster_i64&#45;52</title>
</g>
<g id="clust80" class="cluster">
<title>cluster_i64&#45;52</title>
<path fill="#80b1d3" stroke="black" stroke-dasharray="5,2" d="M385,-90C385,-90 421,-90 421,-90 427,-90 433,-96 433,-102 433,-102 433,-120 433,-120 433,-126 427,-132 421,-132 421,-132 385,-132 385,-132 379,-132 373,-126 373,-120 373,-120 373,-102 373,-102 373,-96 379,-90 385,-90"/>
</g>
<g id="clust82" class="cluster">
<title>outer_cluster_i64&#45;76</title>
</g>
<g id="clust83" class="cluster">
<title>cluster_i64&#45;76</title>
<path fill="#80b1d3" stroke="black" stroke-dasharray="5,2" d="M459,-90C459,-90 495,-90 495,-90 501,-90 507,-96 507,-102 507,-102 507,-120 507,-120 507,-126 501,-132 495,-132 495,-132 459,-132 459,-132 453,-132 447,-126 447,-120 447,-120 447,-102 447,-102 447,-96 453,-90 459,-90"/>
</g>
<!-- function&#45;2&#45;ImmLabel&#45;&gt;primitive&#45;String&#45;3 -->
<g id="edge1" class="edge">
<title>function&#45;2&#45;ImmLabel:s&#45;&gt;primitive&#45;String&#45;3</title>
<path fill="none" stroke="black" d="M80,-174C80,-160.84 80,-146.11 80,-134.3"/>
<polygon fill="black" stroke="black" points="81.75,-137 80,-132 78.25,-137 81.75,-137"/>
</g>
<!-- function&#45;3&#45;ImmVal&#45;&gt;primitive&#45;i64&#45;80 -->
<g id="edge2" class="edge">
<title>function&#45;3&#45;ImmVal:s&#45;&gt;primitive&#45;i64&#45;80</title>
<path fill="none" stroke="black" d="M185,-174C185,-160.84 185,-146.11 185,-134.3"/>
<polygon fill="black" stroke="black" points="186.75,-137 185,-132 183.25,-137 186.75,-137"/>
</g>
<!-- function&#45;0&#45;ImmLabel&#45;&gt;primitive&#45;String&#45;1 -->
<g id="edge3" class="edge">
<title>function&#45;0&#45;ImmLabel:s&#45;&gt;primitive&#45;String&#45;1</title>
<path fill="none" stroke="black" d="M660,-95C660,-81.84 660,-67.11 660,-55.3"/>
<polygon fill="black" stroke="black" points="661.75,-58 660,-53 658.25,-58 661.75,-58"/>
</g>
<!-- function&#45;1&#45;ImmLabel&#45;&gt;primitive&#45;String&#45;2 -->
<g id="edge4" class="edge">
<title>function&#45;1&#45;ImmLabel:s&#45;&gt;primitive&#45;String&#45;2</title>
<path fill="none" stroke="black" d="M570,-174C570,-160.73 568.17,-145.99 566.27,-134.22"/>
<polygon fill="black" stroke="black" points="568.86,-136.01 565.39,-132 565.6,-137.29 568.86,-136.01"/>
</g>
<!-- function&#45;1&#45;ImmVal&#45;&gt;primitive&#45;i64&#45;76 -->
<g id="edge5" class="edge">
<title>function&#45;1&#45;ImmVal:s&#45;&gt;primitive&#45;i64&#45;76</title>
<path fill="none" stroke="black" d="M477,-174C477,-160.84 477,-146.11 477,-134.3"/>
<polygon fill="black" stroke="black" points="478.75,-137 477,-132 475.25,-137 478.75,-137"/>
</g>
<!-- function&#45;0&#45;ImmVal&#45;&gt;primitive&#45;i64&#45;72 -->
<g id="edge6" class="edge">
<title>function&#45;0&#45;ImmVal:s&#45;&gt;primitive&#45;i64&#45;72</title>
<path fill="none" stroke="black" d="M259,-174C259,-160.84 259,-146.11 259,-134.3"/>
<polygon fill="black" stroke="black" points="260.75,-137 259,-132 257.25,-137 260.75,-137"/>
</g>
<!-- function&#45;2&#45;ImmVal&#45;&gt;primitive&#45;i64&#45;52 -->
<g id="edge7" class="edge">
<title>function&#45;2&#45;ImmVal:s&#45;&gt;primitive&#45;i64&#45;52</title>
<path fill="none" stroke="black" d="M403,-174C403,-160.84 403,-146.11 403,-134.3"/>
<polygon fill="black" stroke="black" points="404.75,-137 403,-132 401.25,-137 404.75,-137"/>
</g>
<!-- function&#45;3&#45;ImmLabel&#45;&gt;primitive&#45;String&#45;5 -->
<g id="edge8" class="edge">
<title>function&#45;3&#45;ImmLabel:s&#45;&gt;primitive&#45;String&#45;5</title>
<path fill="none" stroke="black" d="M740,-174C740,-160.82 739.32,-146.09 738.6,-134.29"/>
<polygon fill="black" stroke="black" points="740.71,-136.7 738.27,-132 737.25,-137.2 740.71,-136.7"/>
</g>
<!-- function&#45;0&#45;Auipc&#45;&gt;function&#45;2&#45;ImmLabel -->
<g id="edge9" class="edge">
<title>function&#45;0&#45;Auipc:s&#45;&gt;function&#45;2&#45;ImmLabel</title>
<path fill="none" stroke="black" d="M79,-253C79,-239.84 79,-225.11 79,-213.3"/>
<polygon fill="black" stroke="black" points="80.75,-216 79,-211 77.25,-216 80.75,-216"/>
</g>
<!-- function&#45;0&#45;Lw&#45;&gt;function&#45;0&#45;ImmVal -->
<g id="edge11" class="edge">
<title>function&#45;0&#45;Lw:s&#45;&gt;function&#45;0&#45;ImmVal</title>
<path fill="none" stroke="black" d="M278,-253C278,-239.31 273.71,-224.63 269.21,-213"/>
<polygon fill="black" stroke="black" points="271.98,-214.79 268.28,-211 268.81,-216.27 271.98,-214.79"/>
</g>
<!-- function&#45;0&#45;Lw&#45;&gt;function&#45;0&#45;RegVal -->
<g id="edge10" class="edge">
<title>function&#45;0&#45;Lw:s&#45;&gt;function&#45;0&#45;RegVal</title>
<path fill="none" stroke="black" d="M262,-253C262,-241.85 282.2,-224.61 300.75,-211.14"/>
<polygon fill="black" stroke="black" points="297.16,-213.33 301.91,-211 296.74,-209.85 297.16,-213.33"/>
</g>
<!-- function&#45;0&#45;RegVal&#45;&gt;primitive&#45;String&#45;0 -->
<g id="edge19" class="edge">
<title>function&#45;0&#45;RegVal:s&#45;&gt;primitive&#45;String&#45;0</title>
<path fill="none" stroke="black" d="M332,-174C332,-160.84 332,-146.11 332,-134.3"/>
<polygon fill="black" stroke="black" points="333.75,-137 332,-132 330.25,-137 333.75,-137"/>
</g>
<!-- function&#45;2&#45;Lw&#45;&gt;function&#45;2&#45;ImmVal -->
<g id="edge13" class="edge">
<title>function&#45;2&#45;Lw:s&#45;&gt;function&#45;2&#45;ImmVal</title>
<path fill="none" stroke="black" d="M363,-253C363,-237.71 371.69,-223.2 380.97,-212.07"/>
<polygon fill="black" stroke="black" points="379.45,-215.4 382.41,-211 377.35,-212.6 379.45,-215.4"/>
</g>
<!-- function&#45;2&#45;Lw&#45;&gt;function&#45;0&#45;RegVal -->
<g id="edge12" class="edge">
<title>function&#45;2&#45;Lw:s&#45;&gt;function&#45;0&#45;RegVal</title>
<path fill="none" stroke="black" d="M347,-253C347,-239.38 343.34,-224.6 339.52,-212.89"/>
<polygon fill="black" stroke="black" points="342.48,-213.63 337.88,-211 339.83,-215.92 342.48,-213.63"/>
</g>
<!-- function&#45;0&#45;Lui&#45;&gt;function&#45;0&#45;ImmLabel -->
<g id="edge14" class="edge">
<title>function&#45;0&#45;Lui:s&#45;&gt;function&#45;0&#45;ImmLabel</title>
<path fill="none" stroke="black" d="M656,-174C656,-160.82 656.68,-146.09 657.4,-134.29"/>
<polygon fill="black" stroke="black" points="658.75,-137.2 657.73,-132 655.29,-136.7 658.75,-137.2"/>
</g>
<!-- function&#45;1&#45;Lw&#45;&gt;function&#45;1&#45;ImmVal -->
<g id="edge16" class="edge">
<title>function&#45;1&#45;Lw:s&#45;&gt;function&#45;1&#45;ImmVal</title>
<path fill="none" stroke="black" d="M445,-253C445,-238.46 452.04,-223.92 459.51,-212.58"/>
<polygon fill="black" stroke="black" points="458.67,-215.48 461.5,-211 456.5,-212.74 458.67,-215.48"/>
</g>
<!-- function&#45;1&#45;Lw&#45;&gt;function&#45;0&#45;RegVal -->
<g id="edge15" class="edge">
<title>function&#45;1&#45;Lw:s&#45;&gt;function&#45;0&#45;RegVal</title>
<path fill="none" stroke="black" d="M429,-253C429,-252.53 395.26,-231.26 367.37,-213.77"/>
<polygon fill="black" stroke="black" points="368.12,-212.17 362.95,-211 366.26,-215.14 368.12,-212.17"/>
</g>
<!-- function&#45;1&#45;Addi&#45;&gt;function&#45;3&#45;ImmVal -->
<g id="edge18" class="edge">
<title>function&#45;1&#45;Addi:s&#45;&gt;function&#45;3&#45;ImmVal</title>
<path fill="none" stroke="black" d="M190,-253C190,-239.8 188.86,-225.06 187.67,-213.27"/>
<polygon fill="black" stroke="black" points="189.99,-215.45 187.12,-211 186.59,-216.27 189.99,-215.45"/>
</g>
<!-- function&#45;1&#45;Addi&#45;&gt;function&#45;0&#45;RegVal -->
<g id="edge17" class="edge">
<title>function&#45;1&#45;Addi:s&#45;&gt;function&#45;0&#45;RegVal</title>
<path fill="none" stroke="black" d="M170,-253C170,-195.23 241.5,-238.11 294,-214 294.5,-213.77 295.01,-213.53 295.51,-213.29"/>
<polygon fill="black" stroke="black" points="296.39,-214.81 300.07,-211 294.82,-211.68 296.39,-214.81"/>
</g>
<!-- function&#45;1&#45;RegVal&#45;&gt;primitive&#45;String&#45;4 -->
<g id="edge20" class="edge">
<title>function&#45;1&#45;RegVal:s&#45;&gt;primitive&#45;String&#45;4</title>
<path fill="none" stroke="black" d="M842,-174C842,-160.24 846.51,-145.56 851.25,-133.94"/>
<polygon fill="black" stroke="black" points="851.49,-137.24 852.29,-132 848.4,-135.6 851.49,-137.24"/>
</g>
<!-- function&#45;0&#45;Addi&#45;&gt;function&#45;1&#45;ImmLabel -->
<g id="edge22" class="edge">
<title>function&#45;0&#45;Addi:s&#45;&gt;function&#45;1&#45;ImmLabel</title>
<path fill="none" stroke="black" d="M622,-253C622,-236.59 611.14,-222.33 599.25,-211.64"/>
<polygon fill="black" stroke="black" points="603.38,-212.08 598.19,-211 601.57,-215.08 603.38,-212.08"/>
</g>
<!-- function&#45;0&#45;Addi&#45;&gt;function&#45;0&#45;Lui -->
<g id="edge21" class="edge">
<title>function&#45;0&#45;Addi:s&#45;&gt;function&#45;0&#45;Lui</title>
<path fill="none" stroke="black" d="M602,-253C602,-236.46 613.07,-222.18 625.18,-211.52"/>
<polygon fill="black" stroke="black" points="625.11,-215.26 626,-210.04 622.05,-213.57 625.11,-215.26"/>
</g>
<!-- function&#45;0&#45;Jalr&#45;&gt;function&#45;3&#45;ImmLabel -->
<g id="edge24" class="edge">
<title>function&#45;0&#45;Jalr:s&#45;&gt;function&#45;3&#45;ImmLabel</title>
<path fill="none" stroke="black" d="M798,-253C798,-236.03 786.26,-221.87 773.26,-211.38"/>
<polygon fill="black" stroke="black" points="777.49,-211.03 772.19,-211 776.32,-214.32 777.49,-211.03"/>
</g>
<!-- function&#45;0&#45;Jalr&#45;&gt;function&#45;1&#45;RegVal -->
<g id="edge23" class="edge">
<title>function&#45;0&#45;Jalr:s&#45;&gt;function&#45;1&#45;RegVal</title>
<path fill="none" stroke="black" d="M782,-253C782,-235.49 794.5,-220.97 807.99,-210.39"/>
<polygon fill="black" stroke="black" points="807.02,-214.15 809,-209.24 804.39,-211.84 807.02,-214.15"/>
</g>
<!-- function&#45;2&#45;ImmLabel -->
<g id="node1" class="node">
<title>function&#45;2&#45;ImmLabel</title>
<g id="a_node1"><a xlink:title="Imm&#45;13: function&#45;2&#45;ImmLabel">
<path fill="white" stroke="transparent" d="M50.17,-174C50.17,-174 107.83,-174 107.83,-174 113.17,-174 118.5,-179.33 118.5,-184.67 118.5,-184.67 118.5,-195.33 118.5,-195.33 118.5,-200.67 113.17,-206 107.83,-206 107.83,-206 50.17,-206 50.17,-206 44.83,-206 39.5,-200.67 39.5,-195.33 39.5,-195.33 39.5,-184.67 39.5,-184.67 39.5,-179.33 44.83,-174 50.17,-174"/>
<text text-anchor="start" x="45" y="-186.3" font-family="Helvetica,sans-Serif" font-size="14.00">ImmLabel</text>
<path fill="none" stroke="black" d="M50.17,-174C50.17,-174 107.83,-174 107.83,-174 113.17,-174 118.5,-179.33 118.5,-184.67 118.5,-184.67 118.5,-195.33 118.5,-195.33 118.5,-200.67 113.17,-206 107.83,-206 107.83,-206 50.17,-206 50.17,-206 44.83,-206 39.5,-200.67 39.5,-195.33 39.5,-195.33 39.5,-184.67 39.5,-184.67 39.5,-179.33 44.83,-174 50.17,-174"/>
</a>
</g>
</g>
<!-- primitive&#45;String&#45;3 -->
<g id="node2" class="node">
<title>primitive&#45;String&#45;3</title>
<g id="a_node2"><a xlink:title="String&#45;3: primitive&#45;String&#45;3">
<path fill="white" stroke="transparent" d="M24.67,-95C24.67,-95 135.33,-95 135.33,-95 140.67,-95 146,-100.33 146,-105.67 146,-105.67 146,-116.33 146,-116.33 146,-121.67 140.67,-127 135.33,-127 135.33,-127 24.67,-127 24.67,-127 19.33,-127 14,-121.67 14,-116.33 14,-116.33 14,-105.67 14,-105.67 14,-100.33 19.33,-95 24.67,-95"/>
<text text-anchor="start" x="19" y="-107.3" font-family="Helvetica,sans-Serif" font-size="14.00">&quot;%pcrel_hi(puts)&quot;</text>
<path fill="none" stroke="black" d="M24.67,-95C24.67,-95 135.33,-95 135.33,-95 140.67,-95 146,-100.33 146,-105.67 146,-105.67 146,-116.33 146,-116.33 146,-121.67 140.67,-127 135.33,-127 135.33,-127 24.67,-127 24.67,-127 19.33,-127 14,-121.67 14,-116.33 14,-116.33 14,-105.67 14,-105.67 14,-100.33 19.33,-95 24.67,-95"/>
</a>
</g>
</g>
<!-- function&#45;3&#45;ImmVal -->
<g id="node3" class="node">
<title>function&#45;3&#45;ImmVal</title>
<g id="a_node3"><a xlink:title="Imm&#45;11: function&#45;3&#45;ImmVal">
<path fill="white" stroke="transparent" d="M164.67,-174C164.67,-174 205.33,-174 205.33,-174 210.67,-174 216,-179.33 216,-184.67 216,-184.67 216,-195.33 216,-195.33 216,-200.67 210.67,-206 205.33,-206 205.33,-206 164.67,-206 164.67,-206 159.33,-206 154,-200.67 154,-195.33 154,-195.33 154,-184.67 154,-184.67 154,-179.33 159.33,-174 164.67,-174"/>
<text text-anchor="start" x="159" y="-186.3" font-family="Helvetica,sans-Serif" font-size="14.00">ImmVal</text>
<path fill="none" stroke="black" d="M164.67,-174C164.67,-174 205.33,-174 205.33,-174 210.67,-174 216,-179.33 216,-184.67 216,-184.67 216,-195.33 216,-195.33 216,-200.67 210.67,-206 205.33,-206 205.33,-206 164.67,-206 164.67,-206 159.33,-206 154,-200.67 154,-195.33 154,-195.33 154,-184.67 154,-184.67 154,-179.33 159.33,-174 164.67,-174"/>
</a>
</g>
</g>
<!-- primitive&#45;i64&#45;80 -->
<g id="node4" class="node">
<title>primitive&#45;i64&#45;80</title>
<g id="a_node4"><a xlink:title="i64&#45;80: primitive&#45;i64&#45;80">
<path fill="white" stroke="transparent" d="M179.67,-95C179.67,-95 190.33,-95 190.33,-95 195.67,-95 201,-100.33 201,-105.67 201,-105.67 201,-116.33 201,-116.33 201,-121.67 195.67,-127 190.33,-127 190.33,-127 179.67,-127 179.67,-127 174.33,-127 169,-121.67 169,-116.33 169,-116.33 169,-105.67 169,-105.67 169,-100.33 174.33,-95 179.67,-95"/>
<text text-anchor="start" x="175.5" y="-107.3" font-family="Helvetica,sans-Serif" font-size="14.00">80</text>
<path fill="none" stroke="black" d="M179.67,-95C179.67,-95 190.33,-95 190.33,-95 195.67,-95 201,-100.33 201,-105.67 201,-105.67 201,-116.33 201,-116.33 201,-121.67 195.67,-127 190.33,-127 190.33,-127 179.67,-127 179.67,-127 174.33,-127 169,-121.67 169,-116.33 169,-116.33 169,-105.67 169,-105.67 169,-100.33 174.33,-95 179.67,-95"/>
</a>
</g>
</g>
<!-- function&#45;0&#45;ImmLabel -->
<g id="node5" class="node">
<title>function&#45;0&#45;ImmLabel</title>
<g id="a_node5"><a xlink:title="Imm&#45;7: function&#45;0&#45;ImmLabel">
<path fill="white" stroke="transparent" d="M630.17,-95C630.17,-95 687.83,-95 687.83,-95 693.17,-95 698.5,-100.33 698.5,-105.67 698.5,-105.67 698.5,-116.33 698.5,-116.33 698.5,-121.67 693.17,-127 687.83,-127 687.83,-127 630.17,-127 630.17,-127 624.83,-127 619.5,-121.67 619.5,-116.33 619.5,-116.33 619.5,-105.67 619.5,-105.67 619.5,-100.33 624.83,-95 630.17,-95"/>
<text text-anchor="start" x="625" y="-107.3" font-family="Helvetica,sans-Serif" font-size="14.00">ImmLabel</text>
<path fill="none" stroke="black" d="M630.17,-95C630.17,-95 687.83,-95 687.83,-95 693.17,-95 698.5,-100.33 698.5,-105.67 698.5,-105.67 698.5,-116.33 698.5,-116.33 698.5,-121.67 693.17,-127 687.83,-127 687.83,-127 630.17,-127 630.17,-127 624.83,-127 619.5,-121.67 619.5,-116.33 619.5,-116.33 619.5,-105.67 619.5,-105.67 619.5,-100.33 624.83,-95 630.17,-95"/>
</a>
</g>
</g>
<!-- primitive&#45;String&#45;1 -->
<g id="node6" class="node">
<title>primitive&#45;String&#45;1</title>
<g id="a_node6"><a xlink:title="String&#45;1: primitive&#45;String&#45;1">
<path fill="white" stroke="transparent" d="M624.67,-16C624.67,-16 695.33,-16 695.33,-16 700.67,-16 706,-21.33 706,-26.67 706,-26.67 706,-37.33 706,-37.33 706,-42.67 700.67,-48 695.33,-48 695.33,-48 624.67,-48 624.67,-48 619.33,-48 614,-42.67 614,-37.33 614,-37.33 614,-26.67 614,-26.67 614,-21.33 619.33,-16 624.67,-16"/>
<text text-anchor="start" x="619" y="-28.3" font-family="Helvetica,sans-Serif" font-size="14.00">&quot;%hi(.LC2)&quot;</text>
<path fill="none" stroke="black" d="M624.67,-16C624.67,-16 695.33,-16 695.33,-16 700.67,-16 706,-21.33 706,-26.67 706,-26.67 706,-37.33 706,-37.33 706,-42.67 700.67,-48 695.33,-48 695.33,-48 624.67,-48 624.67,-48 619.33,-48 614,-42.67 614,-37.33 614,-37.33 614,-26.67 614,-26.67 614,-21.33 619.33,-16 624.67,-16"/>
</a>
</g>
</g>
<!-- function&#45;1&#45;ImmLabel -->
<g id="node7" class="node">
<title>function&#45;1&#45;ImmLabel</title>
<g id="a_node7"><a xlink:title="Imm&#45;9: function&#45;1&#45;ImmLabel">
<path fill="white" stroke="transparent" d="M540.17,-174C540.17,-174 597.83,-174 597.83,-174 603.17,-174 608.5,-179.33 608.5,-184.67 608.5,-184.67 608.5,-195.33 608.5,-195.33 608.5,-200.67 603.17,-206 597.83,-206 597.83,-206 540.17,-206 540.17,-206 534.83,-206 529.5,-200.67 529.5,-195.33 529.5,-195.33 529.5,-184.67 529.5,-184.67 529.5,-179.33 534.83,-174 540.17,-174"/>
<text text-anchor="start" x="535" y="-186.3" font-family="Helvetica,sans-Serif" font-size="14.00">ImmLabel</text>
<path fill="none" stroke="black" d="M540.17,-174C540.17,-174 597.83,-174 597.83,-174 603.17,-174 608.5,-179.33 608.5,-184.67 608.5,-184.67 608.5,-195.33 608.5,-195.33 608.5,-200.67 603.17,-206 597.83,-206 597.83,-206 540.17,-206 540.17,-206 534.83,-206 529.5,-200.67 529.5,-195.33 529.5,-195.33 529.5,-184.67 529.5,-184.67 529.5,-179.33 534.83,-174 540.17,-174"/>
</a>
</g>
</g>
<!-- primitive&#45;String&#45;2 -->
<g id="node8" class="node">
<title>primitive&#45;String&#45;2</title>
<g id="a_node8"><a xlink:title="String&#45;2: primitive&#45;String&#45;2">
<path fill="white" stroke="transparent" d="M527.17,-95C527.17,-95 596.83,-95 596.83,-95 602.17,-95 607.5,-100.33 607.5,-105.67 607.5,-105.67 607.5,-116.33 607.5,-116.33 607.5,-121.67 602.17,-127 596.83,-127 596.83,-127 527.17,-127 527.17,-127 521.83,-127 516.5,-121.67 516.5,-116.33 516.5,-116.33 516.5,-105.67 516.5,-105.67 516.5,-100.33 521.83,-95 527.17,-95"/>
<text text-anchor="start" x="522" y="-107.3" font-family="Helvetica,sans-Serif" font-size="14.00">&quot;%lo(.LC2)&quot;</text>
<path fill="none" stroke="black" d="M527.17,-95C527.17,-95 596.83,-95 596.83,-95 602.17,-95 607.5,-100.33 607.5,-105.67 607.5,-105.67 607.5,-116.33 607.5,-116.33 607.5,-121.67 602.17,-127 596.83,-127 596.83,-127 527.17,-127 527.17,-127 521.83,-127 516.5,-121.67 516.5,-116.33 516.5,-116.33 516.5,-105.67 516.5,-105.67 516.5,-100.33 521.83,-95 527.17,-95"/>
</a>
</g>
</g>
<!-- function&#45;1&#45;ImmVal -->
<g id="node9" class="node">
<title>function&#45;1&#45;ImmVal</title>
<g id="a_node9"><a xlink:title="Imm&#45;3: function&#45;1&#45;ImmVal">
<path fill="white" stroke="transparent" d="M456.67,-174C456.67,-174 497.33,-174 497.33,-174 502.67,-174 508,-179.33 508,-184.67 508,-184.67 508,-195.33 508,-195.33 508,-200.67 502.67,-206 497.33,-206 497.33,-206 456.67,-206 456.67,-206 451.33,-206 446,-200.67 446,-195.33 446,-195.33 446,-184.67 446,-184.67 446,-179.33 451.33,-174 456.67,-174"/>
<text text-anchor="start" x="451" y="-186.3" font-family="Helvetica,sans-Serif" font-size="14.00">ImmVal</text>
<path fill="none" stroke="black" d="M456.67,-174C456.67,-174 497.33,-174 497.33,-174 502.67,-174 508,-179.33 508,-184.67 508,-184.67 508,-195.33 508,-195.33 508,-200.67 502.67,-206 497.33,-206 497.33,-206 456.67,-206 456.67,-206 451.33,-206 446,-200.67 446,-195.33 446,-195.33 446,-184.67 446,-184.67 446,-179.33 451.33,-174 456.67,-174"/>
</a>
</g>
</g>
<!-- primitive&#45;i64&#45;76 -->
<g id="node10" class="node">
<title>primitive&#45;i64&#45;76</title>
<g id="a_node10"><a xlink:title="i64&#45;76: primitive&#45;i64&#45;76">
<path fill="white" stroke="transparent" d="M471.67,-95C471.67,-95 482.33,-95 482.33,-95 487.67,-95 493,-100.33 493,-105.67 493,-105.67 493,-116.33 493,-116.33 493,-121.67 487.67,-127 482.33,-127 482.33,-127 471.67,-127 471.67,-127 466.33,-127 461,-121.67 461,-116.33 461,-116.33 461,-105.67 461,-105.67 461,-100.33 466.33,-95 471.67,-95"/>
<text text-anchor="start" x="467.5" y="-107.3" font-family="Helvetica,sans-Serif" font-size="14.00">76</text>
<path fill="none" stroke="black" d="M471.67,-95C471.67,-95 482.33,-95 482.33,-95 487.67,-95 493,-100.33 493,-105.67 493,-105.67 493,-116.33 493,-116.33 493,-121.67 487.67,-127 482.33,-127 482.33,-127 471.67,-127 471.67,-127 466.33,-127 461,-121.67 461,-116.33 461,-116.33 461,-105.67 461,-105.67 461,-100.33 466.33,-95 471.67,-95"/>
</a>
</g>
</g>
<!-- function&#45;0&#45;ImmVal -->
<g id="node11" class="node">
<title>function&#45;0&#45;ImmVal</title>
<g id="a_node11"><a xlink:title="Imm&#45;1: function&#45;0&#45;ImmVal">
<path fill="white" stroke="transparent" d="M238.67,-174C238.67,-174 279.33,-174 279.33,-174 284.67,-174 290,-179.33 290,-184.67 290,-184.67 290,-195.33 290,-195.33 290,-200.67 284.67,-206 279.33,-206 279.33,-206 238.67,-206 238.67,-206 233.33,-206 228,-200.67 228,-195.33 228,-195.33 228,-184.67 228,-184.67 228,-179.33 233.33,-174 238.67,-174"/>
<text text-anchor="start" x="233" y="-186.3" font-family="Helvetica,sans-Serif" font-size="14.00">ImmVal</text>
<path fill="none" stroke="black" d="M238.67,-174C238.67,-174 279.33,-174 279.33,-174 284.67,-174 290,-179.33 290,-184.67 290,-184.67 290,-195.33 290,-195.33 290,-200.67 284.67,-206 279.33,-206 279.33,-206 238.67,-206 238.67,-206 233.33,-206 228,-200.67 228,-195.33 228,-195.33 228,-184.67 228,-184.67 228,-179.33 233.33,-174 238.67,-174"/>
</a>
</g>
</g>
<!-- primitive&#45;i64&#45;72 -->
<g id="node12" class="node">
<title>primitive&#45;i64&#45;72</title>
<g id="a_node12"><a xlink:title="i64&#45;72: primitive&#45;i64&#45;72">
<path fill="white" stroke="transparent" d="M253.67,-95C253.67,-95 264.33,-95 264.33,-95 269.67,-95 275,-100.33 275,-105.67 275,-105.67 275,-116.33 275,-116.33 275,-121.67 269.67,-127 264.33,-127 264.33,-127 253.67,-127 253.67,-127 248.33,-127 243,-121.67 243,-116.33 243,-116.33 243,-105.67 243,-105.67 243,-100.33 248.33,-95 253.67,-95"/>
<text text-anchor="start" x="249.5" y="-107.3" font-family="Helvetica,sans-Serif" font-size="14.00">72</text>
<path fill="none" stroke="black" d="M253.67,-95C253.67,-95 264.33,-95 264.33,-95 269.67,-95 275,-100.33 275,-105.67 275,-105.67 275,-116.33 275,-116.33 275,-121.67 269.67,-127 264.33,-127 264.33,-127 253.67,-127 253.67,-127 248.33,-127 243,-121.67 243,-116.33 243,-116.33 243,-105.67 243,-105.67 243,-100.33 248.33,-95 253.67,-95"/>
</a>
</g>
</g>
<!-- function&#45;2&#45;ImmVal -->
<g id="node13" class="node">
<title>function&#45;2&#45;ImmVal</title>
<g id="a_node13"><a xlink:title="Imm&#45;5: function&#45;2&#45;ImmVal">
<path fill="white" stroke="transparent" d="M382.67,-174C382.67,-174 423.33,-174 423.33,-174 428.67,-174 434,-179.33 434,-184.67 434,-184.67 434,-195.33 434,-195.33 434,-200.67 428.67,-206 423.33,-206 423.33,-206 382.67,-206 382.67,-206 377.33,-206 372,-200.67 372,-195.33 372,-195.33 372,-184.67 372,-184.67 372,-179.33 377.33,-174 382.67,-174"/>
<text text-anchor="start" x="377" y="-186.3" font-family="Helvetica,sans-Serif" font-size="14.00">ImmVal</text>
<path fill="none" stroke="black" d="M382.67,-174C382.67,-174 423.33,-174 423.33,-174 428.67,-174 434,-179.33 434,-184.67 434,-184.67 434,-195.33 434,-195.33 434,-200.67 428.67,-206 423.33,-206 423.33,-206 382.67,-206 382.67,-206 377.33,-206 372,-200.67 372,-195.33 372,-195.33 372,-184.67 372,-184.67 372,-179.33 377.33,-174 382.67,-174"/>
</a>
</g>
</g>
<!-- primitive&#45;i64&#45;52 -->
<g id="node14" class="node">
<title>primitive&#45;i64&#45;52</title>
<g id="a_node14"><a xlink:title="i64&#45;52: primitive&#45;i64&#45;52">
<path fill="white" stroke="transparent" d="M397.67,-95C397.67,-95 408.33,-95 408.33,-95 413.67,-95 419,-100.33 419,-105.67 419,-105.67 419,-116.33 419,-116.33 419,-121.67 413.67,-127 408.33,-127 408.33,-127 397.67,-127 397.67,-127 392.33,-127 387,-121.67 387,-116.33 387,-116.33 387,-105.67 387,-105.67 387,-100.33 392.33,-95 397.67,-95"/>
<text text-anchor="start" x="393.5" y="-107.3" font-family="Helvetica,sans-Serif" font-size="14.00">52</text>
<path fill="none" stroke="black" d="M397.67,-95C397.67,-95 408.33,-95 408.33,-95 413.67,-95 419,-100.33 419,-105.67 419,-105.67 419,-116.33 419,-116.33 419,-121.67 413.67,-127 408.33,-127 408.33,-127 397.67,-127 397.67,-127 392.33,-127 387,-121.67 387,-116.33 387,-116.33 387,-105.67 387,-105.67 387,-100.33 392.33,-95 397.67,-95"/>
</a>
</g>
</g>
<!-- function&#45;3&#45;ImmLabel -->
<g id="node15" class="node">
<title>function&#45;3&#45;ImmLabel</title>
<g id="a_node15"><a xlink:title="Imm&#45;16: function&#45;3&#45;ImmLabel">
<path fill="white" stroke="transparent" d="M710.17,-174C710.17,-174 767.83,-174 767.83,-174 773.17,-174 778.5,-179.33 778.5,-184.67 778.5,-184.67 778.5,-195.33 778.5,-195.33 778.5,-200.67 773.17,-206 767.83,-206 767.83,-206 710.17,-206 710.17,-206 704.83,-206 699.5,-200.67 699.5,-195.33 699.5,-195.33 699.5,-184.67 699.5,-184.67 699.5,-179.33 704.83,-174 710.17,-174"/>
<text text-anchor="start" x="705" y="-186.3" font-family="Helvetica,sans-Serif" font-size="14.00">ImmLabel</text>
<path fill="none" stroke="black" d="M710.17,-174C710.17,-174 767.83,-174 767.83,-174 773.17,-174 778.5,-179.33 778.5,-184.67 778.5,-184.67 778.5,-195.33 778.5,-195.33 778.5,-200.67 773.17,-206 767.83,-206 767.83,-206 710.17,-206 710.17,-206 704.83,-206 699.5,-200.67 699.5,-195.33 699.5,-195.33 699.5,-184.67 699.5,-184.67 699.5,-179.33 704.83,-174 710.17,-174"/>
</a>
</g>
</g>
<!-- primitive&#45;String&#45;5 -->
<g id="node16" class="node">
<title>primitive&#45;String&#45;5</title>
<g id="a_node16"><a xlink:title="String&#45;5: primitive&#45;String&#45;5">
<path fill="white" stroke="transparent" d="M720.67,-95C720.67,-95 753.33,-95 753.33,-95 758.67,-95 764,-100.33 764,-105.67 764,-105.67 764,-116.33 764,-116.33 764,-121.67 758.67,-127 753.33,-127 753.33,-127 720.67,-127 720.67,-127 715.33,-127 710,-121.67 710,-116.33 710,-116.33 710,-105.67 710,-105.67 710,-100.33 715.33,-95 720.67,-95"/>
<text text-anchor="start" x="715" y="-107.3" font-family="Helvetica,sans-Serif" font-size="14.00">&quot;t1_0&quot;</text>
<path fill="none" stroke="black" d="M720.67,-95C720.67,-95 753.33,-95 753.33,-95 758.67,-95 764,-100.33 764,-105.67 764,-105.67 764,-116.33 764,-116.33 764,-121.67 758.67,-127 753.33,-127 753.33,-127 720.67,-127 720.67,-127 715.33,-127 710,-121.67 710,-116.33 710,-116.33 710,-105.67 710,-105.67 710,-100.33 715.33,-95 720.67,-95"/>
</a>
</g>
</g>
<!-- function&#45;0&#45;Auipc -->
<g id="node17" class="node">
<title>function&#45;0&#45;Auipc</title>
<g id="a_node17"><a xlink:title="Inst&#45;14: function&#45;0&#45;Auipc">
<path fill="white" stroke="transparent" d="M64.67,-253C64.67,-253 93.33,-253 93.33,-253 98.67,-253 104,-258.33 104,-263.67 104,-263.67 104,-274.33 104,-274.33 104,-279.67 98.67,-285 93.33,-285 93.33,-285 64.67,-285 64.67,-285 59.33,-285 54,-279.67 54,-274.33 54,-274.33 54,-263.67 54,-263.67 54,-258.33 59.33,-253 64.67,-253"/>
<text text-anchor="start" x="59" y="-265.3" font-family="Helvetica,sans-Serif" font-size="14.00">Auipc</text>
<path fill="none" stroke="black" d="M64.67,-253C64.67,-253 93.33,-253 93.33,-253 98.67,-253 104,-258.33 104,-263.67 104,-263.67 104,-274.33 104,-274.33 104,-279.67 98.67,-285 93.33,-285 93.33,-285 64.67,-285 64.67,-285 59.33,-285 54,-279.67 54,-274.33 54,-274.33 54,-263.67 54,-263.67 54,-258.33 59.33,-253 64.67,-253"/>
</a>
</g>
</g>
<!-- function&#45;0&#45;Lw -->
<g id="node18" class="node">
<title>function&#45;0&#45;Lw</title>
<g id="a_node18"><a xlink:title="Inst&#45;2: function&#45;0&#45;Lw">
<path fill="white" stroke="transparent" d="M264.67,-253C264.67,-253 275.33,-253 275.33,-253 280.67,-253 286,-258.33 286,-263.67 286,-263.67 286,-274.33 286,-274.33 286,-279.67 280.67,-285 275.33,-285 275.33,-285 264.67,-285 264.67,-285 259.33,-285 254,-279.67 254,-274.33 254,-274.33 254,-263.67 254,-263.67 254,-258.33 259.33,-253 264.67,-253"/>
<text text-anchor="start" x="260.5" y="-265.3" font-family="Helvetica,sans-Serif" font-size="14.00">Lw</text>
<path fill="none" stroke="black" d="M264.67,-253C264.67,-253 275.33,-253 275.33,-253 280.67,-253 286,-258.33 286,-263.67 286,-263.67 286,-274.33 286,-274.33 286,-279.67 280.67,-285 275.33,-285 275.33,-285 264.67,-285 264.67,-285 259.33,-285 254,-279.67 254,-274.33 254,-274.33 254,-263.67 254,-263.67 254,-258.33 259.33,-253 264.67,-253"/>
</a>
</g>
</g>
<!-- function&#45;0&#45;RegVal -->
<g id="node19" class="node">
<title>function&#45;0&#45;RegVal</title>
<g id="a_node19"><a xlink:title="Inst&#45;0: function&#45;0&#45;RegVal">
<path fill="white" stroke="transparent" d="M313.17,-174C313.17,-174 348.83,-174 348.83,-174 354.17,-174 359.5,-179.33 359.5,-184.67 359.5,-184.67 359.5,-195.33 359.5,-195.33 359.5,-200.67 354.17,-206 348.83,-206 348.83,-206 313.17,-206 313.17,-206 307.83,-206 302.5,-200.67 302.5,-195.33 302.5,-195.33 302.5,-184.67 302.5,-184.67 302.5,-179.33 307.83,-174 313.17,-174"/>
<text text-anchor="start" x="308" y="-186.3" font-family="Helvetica,sans-Serif" font-size="14.00">RegVal</text>
<path fill="none" stroke="black" d="M313.17,-174C313.17,-174 348.83,-174 348.83,-174 354.17,-174 359.5,-179.33 359.5,-184.67 359.5,-184.67 359.5,-195.33 359.5,-195.33 359.5,-200.67 354.17,-206 348.83,-206 348.83,-206 313.17,-206 313.17,-206 307.83,-206 302.5,-200.67 302.5,-195.33 302.5,-195.33 302.5,-184.67 302.5,-184.67 302.5,-179.33 307.83,-174 313.17,-174"/>
</a>
</g>
</g>
<!-- function&#45;2&#45;Lw -->
<g id="node20" class="node">
<title>function&#45;2&#45;Lw</title>
<g id="a_node20"><a xlink:title="Inst&#45;6: function&#45;2&#45;Lw">
<path fill="white" stroke="transparent" d="M349.67,-253C349.67,-253 360.33,-253 360.33,-253 365.67,-253 371,-258.33 371,-263.67 371,-263.67 371,-274.33 371,-274.33 371,-279.67 365.67,-285 360.33,-285 360.33,-285 349.67,-285 349.67,-285 344.33,-285 339,-279.67 339,-274.33 339,-274.33 339,-263.67 339,-263.67 339,-258.33 344.33,-253 349.67,-253"/>
<text text-anchor="start" x="345.5" y="-265.3" font-family="Helvetica,sans-Serif" font-size="14.00">Lw</text>
<path fill="none" stroke="black" d="M349.67,-253C349.67,-253 360.33,-253 360.33,-253 365.67,-253 371,-258.33 371,-263.67 371,-263.67 371,-274.33 371,-274.33 371,-279.67 365.67,-285 360.33,-285 360.33,-285 349.67,-285 349.67,-285 344.33,-285 339,-279.67 339,-274.33 339,-274.33 339,-263.67 339,-263.67 339,-258.33 344.33,-253 349.67,-253"/>
</a>
</g>
</g>
<!-- function&#45;0&#45;Lui -->
<g id="node21" class="node">
<title>function&#45;0&#45;Lui</title>
<g id="a_node21"><a xlink:title="Inst&#45;8: function&#45;0&#45;Lui">
<path fill="white" stroke="transparent" d="M650.67,-174C650.67,-174 661.33,-174 661.33,-174 666.67,-174 672,-179.33 672,-184.67 672,-184.67 672,-195.33 672,-195.33 672,-200.67 666.67,-206 661.33,-206 661.33,-206 650.67,-206 650.67,-206 645.33,-206 640,-200.67 640,-195.33 640,-195.33 640,-184.67 640,-184.67 640,-179.33 645.33,-174 650.67,-174"/>
<text text-anchor="start" x="645.5" y="-186.3" font-family="Helvetica,sans-Serif" font-size="14.00">Lui</text>
<path fill="none" stroke="black" d="M650.67,-174C650.67,-174 661.33,-174 661.33,-174 666.67,-174 672,-179.33 672,-184.67 672,-184.67 672,-195.33 672,-195.33 672,-200.67 666.67,-206 661.33,-206 661.33,-206 650.67,-206 650.67,-206 645.33,-206 640,-200.67 640,-195.33 640,-195.33 640,-184.67 640,-184.67 640,-179.33 645.33,-174 650.67,-174"/>
</a>
</g>
</g>
<!-- function&#45;1&#45;Lw -->
<g id="node22" class="node">
<title>function&#45;1&#45;Lw</title>
<g id="a_node22"><a xlink:title="Inst&#45;4: function&#45;1&#45;Lw">
<path fill="white" stroke="transparent" d="M431.67,-253C431.67,-253 442.33,-253 442.33,-253 447.67,-253 453,-258.33 453,-263.67 453,-263.67 453,-274.33 453,-274.33 453,-279.67 447.67,-285 442.33,-285 442.33,-285 431.67,-285 431.67,-285 426.33,-285 421,-279.67 421,-274.33 421,-274.33 421,-263.67 421,-263.67 421,-258.33 426.33,-253 431.67,-253"/>
<text text-anchor="start" x="427.5" y="-265.3" font-family="Helvetica,sans-Serif" font-size="14.00">Lw</text>
<path fill="none" stroke="black" d="M431.67,-253C431.67,-253 442.33,-253 442.33,-253 447.67,-253 453,-258.33 453,-263.67 453,-263.67 453,-274.33 453,-274.33 453,-279.67 447.67,-285 442.33,-285 442.33,-285 431.67,-285 431.67,-285 426.33,-285 421,-279.67 421,-274.33 421,-274.33 421,-263.67 421,-263.67 421,-258.33 426.33,-253 431.67,-253"/>
</a>
</g>
</g>
<!-- function&#45;1&#45;Addi -->
<g id="node23" class="node">
<title>function&#45;1&#45;Addi</title>
<g id="a_node23"><a xlink:title="Inst&#45;12: function&#45;1&#45;Addi">
<path fill="white" stroke="transparent" d="M170.17,-253C170.17,-253 189.83,-253 189.83,-253 195.17,-253 200.5,-258.33 200.5,-263.67 200.5,-263.67 200.5,-274.33 200.5,-274.33 200.5,-279.67 195.17,-285 189.83,-285 189.83,-285 170.17,-285 170.17,-285 164.83,-285 159.5,-279.67 159.5,-274.33 159.5,-274.33 159.5,-263.67 159.5,-263.67 159.5,-258.33 164.83,-253 170.17,-253"/>
<text text-anchor="start" x="165" y="-265.3" font-family="Helvetica,sans-Serif" font-size="14.00">Addi</text>
<path fill="none" stroke="black" d="M170.17,-253C170.17,-253 189.83,-253 189.83,-253 195.17,-253 200.5,-258.33 200.5,-263.67 200.5,-263.67 200.5,-274.33 200.5,-274.33 200.5,-279.67 195.17,-285 189.83,-285 189.83,-285 170.17,-285 170.17,-285 164.83,-285 159.5,-279.67 159.5,-274.33 159.5,-274.33 159.5,-263.67 159.5,-263.67 159.5,-258.33 164.83,-253 170.17,-253"/>
</a>
</g>
</g>
<!-- primitive&#45;String&#45;0 -->
<g id="node24" class="node">
<title>primitive&#45;String&#45;0</title>
<g id="a_node24"><a xlink:title="String&#45;0: primitive&#45;String&#45;0">
<path fill="white" stroke="transparent" d="M314.67,-95C314.67,-95 349.33,-95 349.33,-95 354.67,-95 360,-100.33 360,-105.67 360,-105.67 360,-116.33 360,-116.33 360,-121.67 354.67,-127 349.33,-127 349.33,-127 314.67,-127 314.67,-127 309.33,-127 304,-121.67 304,-116.33 304,-116.33 304,-105.67 304,-105.67 304,-100.33 309.33,-95 314.67,-95"/>
<text text-anchor="start" x="309" y="-107.3" font-family="Helvetica,sans-Serif" font-size="14.00">&quot;sp_0&quot;</text>
<path fill="none" stroke="black" d="M314.67,-95C314.67,-95 349.33,-95 349.33,-95 354.67,-95 360,-100.33 360,-105.67 360,-105.67 360,-116.33 360,-116.33 360,-121.67 354.67,-127 349.33,-127 349.33,-127 314.67,-127 314.67,-127 309.33,-127 304,-121.67 304,-116.33 304,-116.33 304,-105.67 304,-105.67 304,-100.33 309.33,-95 314.67,-95"/>
</a>
</g>
</g>
<!-- function&#45;1&#45;RegVal -->
<g id="node25" class="node">
<title>function&#45;1&#45;RegVal</title>
<g id="a_node25"><a xlink:title="Inst&#45;15: function&#45;1&#45;RegVal">
<path fill="white" stroke="transparent" d="M823.17,-174C823.17,-174 858.83,-174 858.83,-174 864.17,-174 869.5,-179.33 869.5,-184.67 869.5,-184.67 869.5,-195.33 869.5,-195.33 869.5,-200.67 864.17,-206 858.83,-206 858.83,-206 823.17,-206 823.17,-206 817.83,-206 812.5,-200.67 812.5,-195.33 812.5,-195.33 812.5,-184.67 812.5,-184.67 812.5,-179.33 817.83,-174 823.17,-174"/>
<text text-anchor="start" x="818" y="-186.3" font-family="Helvetica,sans-Serif" font-size="14.00">RegVal</text>
<path fill="none" stroke="black" d="M823.17,-174C823.17,-174 858.83,-174 858.83,-174 864.17,-174 869.5,-179.33 869.5,-184.67 869.5,-184.67 869.5,-195.33 869.5,-195.33 869.5,-200.67 864.17,-206 858.83,-206 858.83,-206 823.17,-206 823.17,-206 817.83,-206 812.5,-200.67 812.5,-195.33 812.5,-195.33 812.5,-184.67 812.5,-184.67 812.5,-179.33 817.83,-174 823.17,-174"/>
</a>
</g>
</g>
<!-- primitive&#45;String&#45;4 -->
<g id="node26" class="node">
<title>primitive&#45;String&#45;4</title>
<g id="a_node26"><a xlink:title="String&#45;4: primitive&#45;String&#45;4">
<path fill="white" stroke="transparent" d="M787.17,-95C787.17,-95 936.83,-95 936.83,-95 942.17,-95 947.5,-100.33 947.5,-105.67 947.5,-105.67 947.5,-116.33 947.5,-116.33 947.5,-121.67 942.17,-127 936.83,-127 936.83,-127 787.17,-127 787.17,-127 781.83,-127 776.5,-121.67 776.5,-116.33 776.5,-116.33 776.5,-105.67 776.5,-105.67 776.5,-100.33 781.83,-95 787.17,-95"/>
<text text-anchor="start" x="782" y="-107.3" font-family="Helvetica,sans-Serif" font-size="14.00">&quot;%pcrel_lo(.Lpcrel_12)&quot;</text>
<path fill="none" stroke="black" d="M787.17,-95C787.17,-95 936.83,-95 936.83,-95 942.17,-95 947.5,-100.33 947.5,-105.67 947.5,-105.67 947.5,-116.33 947.5,-116.33 947.5,-121.67 942.17,-127 936.83,-127 936.83,-127 787.17,-127 787.17,-127 781.83,-127 776.5,-121.67 776.5,-116.33 776.5,-116.33 776.5,-105.67 776.5,-105.67 776.5,-100.33 781.83,-95 787.17,-95"/>
</a>
</g>
</g>
<!-- function&#45;0&#45;Addi -->
<g id="node27" class="node">
<title>function&#45;0&#45;Addi</title>
<g id="a_node27"><a xlink:title="Inst&#45;10: function&#45;0&#45;Addi">
<path fill="white" stroke="transparent" d="M602.17,-253C602.17,-253 621.83,-253 621.83,-253 627.17,-253 632.5,-258.33 632.5,-263.67 632.5,-263.67 632.5,-274.33 632.5,-274.33 632.5,-279.67 627.17,-285 621.83,-285 621.83,-285 602.17,-285 602.17,-285 596.83,-285 591.5,-279.67 591.5,-274.33 591.5,-274.33 591.5,-263.67 591.5,-263.67 591.5,-258.33 596.83,-253 602.17,-253"/>
<text text-anchor="start" x="597" y="-265.3" font-family="Helvetica,sans-Serif" font-size="14.00">Addi</text>
<path fill="none" stroke="black" d="M602.17,-253C602.17,-253 621.83,-253 621.83,-253 627.17,-253 632.5,-258.33 632.5,-263.67 632.5,-263.67 632.5,-274.33 632.5,-274.33 632.5,-279.67 627.17,-285 621.83,-285 621.83,-285 602.17,-285 602.17,-285 596.83,-285 591.5,-279.67 591.5,-274.33 591.5,-274.33 591.5,-263.67 591.5,-263.67 591.5,-258.33 596.83,-253 602.17,-253"/>
</a>
</g>
</g>
<!-- function&#45;0&#45;Jalr -->
<g id="node28" class="node">
<title>function&#45;0&#45;Jalr</title>
<g id="a_node28"><a xlink:title="Inst&#45;17: function&#45;0&#45;Jalr">
<path fill="white" stroke="transparent" d="M784.17,-253C784.17,-253 795.83,-253 795.83,-253 801.17,-253 806.5,-258.33 806.5,-263.67 806.5,-263.67 806.5,-274.33 806.5,-274.33 806.5,-279.67 801.17,-285 795.83,-285 795.83,-285 784.17,-285 784.17,-285 778.83,-285 773.5,-279.67 773.5,-274.33 773.5,-274.33 773.5,-263.67 773.5,-263.67 773.5,-258.33 778.83,-253 784.17,-253"/>
<text text-anchor="start" x="779" y="-265.3" font-family="Helvetica,sans-Serif" font-size="14.00">Jalr</text>
<path fill="none" stroke="black" d="M784.17,-253C784.17,-253 795.83,-253 795.83,-253 801.17,-253 806.5,-258.33 806.5,-263.67 806.5,-263.67 806.5,-274.33 806.5,-274.33 806.5,-279.67 801.17,-285 795.83,-285 795.83,-285 784.17,-285 784.17,-285 778.83,-285 773.5,-279.67 773.5,-274.33 773.5,-274.33 773.5,-263.67 773.5,-263.67 773.5,-258.33 778.83,-253 784.17,-253"/>
</a>
</g>
</g>
</g>
</svg>
