<?xml version="1.0" encoding="UTF-8" standalone="no"?>
<!DOCTYPE svg PUBLIC "-//W3C//DTD SVG 1.1//EN"
 "http://www.w3.org/Graphics/SVG/1.1/DTD/svg11.dtd">
<!-- Generated by graphviz version 2.43.0 (0)
 -->
<!-- Title: %3 Pages: 1 -->
<svg width="882pt" height="309pt"
 viewBox="0.00 0.00 882.00 309.00" xmlns="http://www.w3.org/2000/svg" xmlns:xlink="http://www.w3.org/1999/xlink">
<g id="graph0" class="graph" transform="scale(1 1) rotate(0) translate(4 305)">
<title>%3</title>
<polygon fill="white" stroke="#000000" points="-4,4 -4,-305 878,-305 878,4 -4,4"/>
<g id="clust1" class="cluster">
<title>outer_cluster_Imm&#45;11</title>
</g>
<g id="clust2" class="cluster">
<title>cluster_Imm&#45;11</title>
<path fill="#ffffb3" stroke="black" stroke-dasharray="5,2" d="M23,-169C23,-169 67,-169 67,-169 73,-169 79,-175 79,-181 79,-181 79,-199 79,-199 79,-205 73,-211 67,-211 67,-211 23,-211 23,-211 17,-211 11,-205 11,-199 11,-199 11,-181 11,-181 11,-175 17,-169 23,-169"/>
</g>
<g id="clust4" class="cluster">
<title>outer_cluster_Imm&#45;7</title>
</g>
<g id="clust5" class="cluster">
<title>cluster_Imm&#45;7</title>
<path fill="#ffffb3" stroke="black" stroke-dasharray="5,2" d="M489,-90C489,-90 549,-90 549,-90 555,-90 561,-96 561,-102 561,-102 561,-120 561,-120 561,-126 555,-132 549,-132 549,-132 489,-132 489,-132 483,-132 477,-126 477,-120 477,-120 477,-102 477,-102 477,-96 483,-90 489,-90"/>
</g>
<g id="clust7" class="cluster">
<title>outer_cluster_Imm&#45;15</title>
</g>
<g id="clust8" class="cluster">
<title>cluster_Imm&#45;15</title>
<path fill="#ffffb3" stroke="black" stroke-dasharray="5,2" d="M640,-169C640,-169 700,-169 700,-169 706,-169 712,-175 712,-181 712,-181 712,-199 712,-199 712,-205 706,-211 700,-211 700,-211 640,-211 640,-211 634,-211 628,-205 628,-199 628,-199 628,-181 628,-181 628,-175 634,-169 640,-169"/>
</g>
<g id="clust10" class="cluster">
<title>outer_cluster_Imm&#45;9</title>
</g>
<g id="clust11" class="cluster">
<title>cluster_Imm&#45;9</title>
<path fill="#ffffb3" stroke="black" stroke-dasharray="5,2" d="M396,-169C396,-169 456,-169 456,-169 462,-169 468,-175 468,-181 468,-181 468,-199 468,-199 468,-205 462,-211 456,-211 456,-211 396,-211 396,-211 390,-211 384,-205 384,-199 384,-199 384,-181 384,-181 384,-175 390,-169 396,-169"/>
</g>
<g id="clust13" class="cluster">
<title>outer_cluster_Imm&#45;13</title>
</g>
<g id="clust14" class="cluster">
<title>cluster_Imm&#45;13</title>
<path fill="#ffffb3" stroke="black" stroke-dasharray="5,2" d="M763,-90C763,-90 823,-90 823,-90 829,-90 835,-96 835,-102 835,-102 835,-120 835,-120 835,-126 829,-132 823,-132 823,-132 763,-132 763,-132 757,-132 751,-126 751,-120 751,-120 751,-102 751,-102 751,-96 757,-90 763,-90"/>
</g>
<g id="clust16" class="cluster">
<title>outer_cluster_Imm&#45;3</title>
</g>
<g id="clust17" class="cluster">
<title>cluster_Imm&#45;3</title>
<path fill="#ffffb3" stroke="black" stroke-dasharray="5,2" d="M97,-169C97,-169 141,-169 141,-169 147,-169 153,-175 153,-181 153,-181 153,-199 153,-199 153,-205 147,-211 141,-211 141,-211 97,-211 97,-211 91,-211 85,-205 85,-199 85,-199 85,-181 85,-181 85,-175 91,-169 97,-169"/>
</g>
<g id="clust19" class="cluster">
<title>outer_cluster_Imm&#45;5</title>
</g>
<g id="clust20" class="cluster">
<title>cluster_Imm&#45;5</title>
<path fill="#ffffb3" stroke="black" stroke-dasharray="5,2" d="M241,-169C241,-169 285,-169 285,-169 291,-169 297,-175 297,-181 297,-181 297,-199 297,-199 297,-205 291,-211 285,-211 285,-211 241,-211 241,-211 235,-211 229,-205 229,-199 229,-199 229,-181 229,-181 229,-175 235,-169 241,-169"/>
</g>
<g id="clust22" class="cluster">
<title>outer_cluster_Imm&#45;1</title>
</g>
<g id="clust23" class="cluster">
<title>cluster_Imm&#45;1</title>
<path fill="#ffffb3" stroke="black" stroke-dasharray="5,2" d="M315,-169C315,-169 359,-169 359,-169 365,-169 371,-175 371,-181 371,-181 371,-199 371,-199 371,-205 365,-211 359,-211 359,-211 315,-211 315,-211 309,-211 303,-205 303,-199 303,-199 303,-181 303,-181 303,-175 309,-169 315,-169"/>
</g>
<g id="clust25" class="cluster">
<title>outer_cluster_Inst&#45;4</title>
</g>
<g id="clust26" class="cluster">
<title>cluster_Inst&#45;4</title>
<path fill="#bebada" stroke="black" stroke-dasharray="5,2" d="M112,-248C112,-248 148,-248 148,-248 154,-248 160,-254 160,-260 160,-260 160,-278 160,-278 160,-284 154,-290 148,-290 148,-290 112,-290 112,-290 106,-290 100,-284 100,-278 100,-278 100,-260 100,-260 100,-254 106,-248 112,-248"/>
</g>
<g id="clust28" class="cluster">
<title>outer_cluster_Inst&#45;12</title>
</g>
<g id="clust29" class="cluster">
<title>cluster_Inst&#45;12</title>
<path fill="#bebada" stroke="black" stroke-dasharray="5,2" d="M44,-248C44,-248 80,-248 80,-248 86,-248 92,-254 92,-260 92,-260 92,-278 92,-278 92,-284 86,-290 80,-290 80,-290 44,-290 44,-290 38,-290 32,-284 32,-278 32,-278 32,-260 32,-260 32,-254 38,-248 44,-248"/>
</g>
<g id="clust31" class="cluster">
<title>outer_cluster_Inst&#45;0</title>
</g>
<g id="clust32" class="cluster">
<title>cluster_Inst&#45;0</title>
<path fill="#bebada" stroke="black" stroke-dasharray="5,2" d="M171,-169C171,-169 211,-169 211,-169 217,-169 223,-175 223,-181 223,-181 223,-199 223,-199 223,-205 217,-211 211,-211 211,-211 171,-211 171,-211 165,-211 159,-205 159,-199 159,-199 159,-181 159,-181 159,-175 165,-169 171,-169"/>
</g>
<g id="clust34" class="cluster">
<title>outer_cluster_Inst&#45;6</title>
</g>
<g id="clust35" class="cluster">
<title>cluster_Inst&#45;6</title>
<path fill="#bebada" stroke="black" stroke-dasharray="5,2" d="M197,-248C197,-248 233,-248 233,-248 239,-248 245,-254 245,-260 245,-260 245,-278 245,-278 245,-284 239,-290 233,-290 233,-290 197,-290 197,-290 191,-290 185,-284 185,-278 185,-278 185,-260 185,-260 185,-254 191,-248 197,-248"/>
</g>
<g id="clust37" class="cluster">
<title>outer_cluster_Inst&#45;2</title>
</g>
<g id="clust38" class="cluster">
<title>cluster_Inst&#45;2</title>
<path fill="#bebada" stroke="black" stroke-dasharray="5,2" d="M279,-248C279,-248 315,-248 315,-248 321,-248 327,-254 327,-260 327,-260 327,-278 327,-278 327,-284 321,-290 315,-290 315,-290 279,-290 279,-290 273,-290 267,-284 267,-278 267,-278 267,-260 267,-260 267,-254 273,-248 279,-248"/>
</g>
<g id="clust40" class="cluster">
<title>outer_cluster_Inst&#45;16</title>
</g>
<g id="clust41" class="cluster">
<title>cluster_Inst&#45;16</title>
<path fill="#bebada" stroke="black" stroke-dasharray="5,2" d="M706,-248C706,-248 742,-248 742,-248 748,-248 754,-254 754,-260 754,-260 754,-278 754,-278 754,-284 748,-290 742,-290 742,-290 706,-290 706,-290 700,-290 694,-284 694,-278 694,-278 694,-260 694,-260 694,-254 700,-248 706,-248"/>
</g>
<g id="clust43" class="cluster">
<title>outer_cluster_Inst&#45;10</title>
</g>
<g id="clust44" class="cluster">
<title>cluster_Inst&#45;10</title>
<path fill="#bebada" stroke="black" stroke-dasharray="5,2" d="M452,-248C452,-248 488,-248 488,-248 494,-248 500,-254 500,-260 500,-260 500,-278 500,-278 500,-284 494,-290 488,-290 488,-290 452,-290 452,-290 446,-290 440,-284 440,-278 440,-278 440,-260 440,-260 440,-254 446,-248 452,-248"/>
</g>
<g id="clust46" class="cluster">
<title>outer_cluster_Inst&#45;14</title>
</g>
<g id="clust47" class="cluster">
<title>cluster_Inst&#45;14</title>
<path fill="#bebada" stroke="black" stroke-dasharray="5,2" d="M760,-169C760,-169 796,-169 796,-169 802,-169 808,-175 808,-181 808,-181 808,-199 808,-199 808,-205 802,-211 796,-211 796,-211 760,-211 760,-211 754,-211 748,-205 748,-199 748,-199 748,-181 748,-181 748,-175 754,-169 760,-169"/>
</g>
<g id="clust49" class="cluster">
<title>outer_cluster_Inst&#45;8</title>
</g>
<g id="clust50" class="cluster">
<title>cluster_Inst&#45;8</title>
<path fill="#bebada" stroke="black" stroke-dasharray="5,2" d="M496,-169C496,-169 532,-169 532,-169 538,-169 544,-175 544,-181 544,-181 544,-199 544,-199 544,-205 538,-211 532,-211 532,-211 496,-211 496,-211 490,-211 484,-205 484,-199 484,-199 484,-181 484,-181 484,-175 490,-169 496,-169"/>
</g>
<g id="clust52" class="cluster">
<title>outer_cluster_String&#45;3</title>
</g>
<g id="clust53" class="cluster">
<title>cluster_String&#45;3</title>
<path fill="#fb8072" stroke="black" stroke-dasharray="5,2" d="M385,-90C385,-90 459,-90 459,-90 465,-90 471,-96 471,-102 471,-102 471,-120 471,-120 471,-126 465,-132 459,-132 459,-132 385,-132 385,-132 379,-132 373,-126 373,-120 373,-120 373,-102 373,-102 373,-96 379,-90 385,-90"/>
</g>
<g id="clust55" class="cluster">
<title>outer_cluster_String&#45;5</title>
</g>
<g id="clust56" class="cluster">
<title>cluster_String&#45;5</title>
<path fill="#fb8072" stroke="black" stroke-dasharray="5,2" d="M579,-90C579,-90 733,-90 733,-90 739,-90 745,-96 745,-102 745,-102 745,-120 745,-120 745,-126 739,-132 733,-132 733,-132 579,-132 579,-132 573,-132 567,-126 567,-120 567,-120 567,-102 567,-102 567,-96 573,-90 579,-90"/>
</g>
<g id="clust58" class="cluster">
<title>outer_cluster_String&#45;1</title>
</g>
<g id="clust59" class="cluster">
<title>cluster_String&#45;1</title>
<path fill="#fb8072" stroke="black" stroke-dasharray="5,2" d="M173,-90C173,-90 211,-90 211,-90 217,-90 223,-96 223,-102 223,-102 223,-120 223,-120 223,-126 217,-132 211,-132 211,-132 173,-132 173,-132 167,-132 161,-126 161,-120 161,-120 161,-102 161,-102 161,-96 167,-90 173,-90"/>
</g>
<g id="clust61" class="cluster">
<title>outer_cluster_String&#45;4</title>
</g>
<g id="clust62" class="cluster">
<title>cluster_String&#45;4</title>
<path fill="#fb8072" stroke="black" stroke-dasharray="5,2" d="M737,-11C737,-11 851,-11 851,-11 857,-11 863,-17 863,-23 863,-23 863,-41 863,-41 863,-47 857,-53 851,-53 851,-53 737,-53 737,-53 731,-53 725,-47 725,-41 725,-41 725,-23 725,-23 725,-17 731,-11 737,-11"/>
</g>
<g id="clust64" class="cluster">
<title>outer_cluster_String&#45;2</title>
</g>
<g id="clust65" class="cluster">
<title>cluster_String&#45;2</title>
<path fill="#fb8072" stroke="black" stroke-dasharray="5,2" d="M483,-11C483,-11 557,-11 557,-11 563,-11 569,-17 569,-23 569,-23 569,-41 569,-41 569,-47 563,-53 557,-53 557,-53 483,-53 483,-53 477,-53 471,-47 471,-41 471,-41 471,-23 471,-23 471,-17 477,-11 483,-11"/>
</g>
<g id="clust67" class="cluster">
<title>outer_cluster_i64&#45;76</title>
</g>
<g id="clust68" class="cluster">
<title>cluster_i64&#45;76</title>
<path fill="#80b1d3" stroke="black" stroke-dasharray="5,2" d="M101,-90C101,-90 137,-90 137,-90 143,-90 149,-96 149,-102 149,-102 149,-120 149,-120 149,-126 143,-132 137,-132 137,-132 101,-132 101,-132 95,-132 89,-126 89,-120 89,-120 89,-102 89,-102 89,-96 95,-90 101,-90"/>
</g>
<g id="clust70" class="cluster">
<title>outer_cluster_i64&#45;80</title>
</g>
<g id="clust71" class="cluster">
<title>cluster_i64&#45;80</title>
<path fill="#80b1d3" stroke="black" stroke-dasharray="5,2" d="M27,-90C27,-90 63,-90 63,-90 69,-90 75,-96 75,-102 75,-102 75,-120 75,-120 75,-126 69,-132 63,-132 63,-132 27,-132 27,-132 21,-132 15,-126 15,-120 15,-120 15,-102 15,-102 15,-96 21,-90 27,-90"/>
</g>
<g id="clust73" class="cluster">
<title>outer_cluster_i64&#45;72</title>
</g>
<g id="clust74" class="cluster">
<title>cluster_i64&#45;72</title>
<path fill="#80b1d3" stroke="black" stroke-dasharray="5,2" d="M319,-90C319,-90 355,-90 355,-90 361,-90 367,-96 367,-102 367,-102 367,-120 367,-120 367,-126 361,-132 355,-132 355,-132 319,-132 319,-132 313,-132 307,-126 307,-120 307,-120 307,-102 307,-102 307,-96 313,-90 319,-90"/>
</g>
<g id="clust76" class="cluster">
<title>outer_cluster_i64&#45;52</title>
</g>
<g id="clust77" class="cluster">
<title>cluster_i64&#45;52</title>
<path fill="#80b1d3" stroke="black" stroke-dasharray="5,2" d="M245,-90C245,-90 281,-90 281,-90 287,-90 293,-96 293,-102 293,-102 293,-120 293,-120 293,-126 287,-132 281,-132 281,-132 245,-132 245,-132 239,-132 233,-126 233,-120 233,-120 233,-102 233,-102 233,-96 239,-90 245,-90"/>
</g>
<!-- function&#45;3&#45;ImmVal&#45;&gt;primitive&#45;i64&#45;80 -->
<g id="edge1" class="edge">
<title>function&#45;3&#45;ImmVal:s&#45;&gt;primitive&#45;i64&#45;80</title>
<path fill="none" stroke="black" d="M45,-174C45,-160.84 45,-146.11 45,-134.3"/>
<polygon fill="black" stroke="black" points="46.75,-137 45,-132 43.25,-137 46.75,-137"/>
</g>
<!-- function&#45;0&#45;ImmLabel&#45;&gt;primitive&#45;String&#45;2 -->
<g id="edge2" class="edge">
<title>function&#45;0&#45;ImmLabel:s&#45;&gt;primitive&#45;String&#45;2</title>
<path fill="none" stroke="black" d="M520,-95C520,-81.84 520,-67.11 520,-55.3"/>
<polygon fill="black" stroke="black" points="521.75,-58 520,-53 518.25,-58 521.75,-58"/>
</g>
<!-- function&#45;3&#45;ImmLabel&#45;&gt;primitive&#45;String&#45;5 -->
<g id="edge3" class="edge">
<title>function&#45;3&#45;ImmLabel:s&#45;&gt;primitive&#45;String&#45;5</title>
<path fill="none" stroke="black" d="M671,-174C671,-160.43 667.57,-145.65 663.98,-133.93"/>
<polygon fill="black" stroke="black" points="666.93,-134.82 662.45,-132 664.19,-137 666.93,-134.82"/>
</g>
<!-- function&#45;1&#45;ImmLabel&#45;&gt;primitive&#45;String&#45;3 -->
<g id="edge4" class="edge">
<title>function&#45;1&#45;ImmLabel:s&#45;&gt;primitive&#45;String&#45;3</title>
<path fill="none" stroke="black" d="M427,-174C427,-160.8 425.86,-146.06 424.67,-134.27"/>
<polygon fill="black" stroke="black" points="426.99,-136.45 424.12,-132 423.59,-137.27 426.99,-136.45"/>
</g>
<!-- function&#45;2&#45;ImmLabel&#45;&gt;primitive&#45;String&#45;4 -->
<g id="edge5" class="edge">
<title>function&#45;2&#45;ImmLabel:s&#45;&gt;primitive&#45;String&#45;4</title>
<path fill="none" stroke="black" d="M794,-95C794,-81.84 794,-67.11 794,-55.3"/>
<polygon fill="black" stroke="black" points="795.75,-58 794,-53 792.25,-58 795.75,-58"/>
</g>
<!-- function&#45;1&#45;ImmVal&#45;&gt;primitive&#45;i64&#45;76 -->
<g id="edge6" class="edge">
<title>function&#45;1&#45;ImmVal:s&#45;&gt;primitive&#45;i64&#45;76</title>
<path fill="none" stroke="black" d="M119,-174C119,-160.84 119,-146.11 119,-134.3"/>
<polygon fill="black" stroke="black" points="120.75,-137 119,-132 117.25,-137 120.75,-137"/>
</g>
<!-- function&#45;2&#45;ImmVal&#45;&gt;primitive&#45;i64&#45;52 -->
<g id="edge7" class="edge">
<title>function&#45;2&#45;ImmVal:s&#45;&gt;primitive&#45;i64&#45;52</title>
<path fill="none" stroke="black" d="M263,-174C263,-160.84 263,-146.11 263,-134.3"/>
<polygon fill="black" stroke="black" points="264.75,-137 263,-132 261.25,-137 264.75,-137"/>
</g>
<!-- function&#45;0&#45;ImmVal&#45;&gt;primitive&#45;i64&#45;72 -->
<g id="edge8" class="edge">
<title>function&#45;0&#45;ImmVal:s&#45;&gt;primitive&#45;i64&#45;72</title>
<path fill="none" stroke="black" d="M337,-174C337,-160.84 337,-146.11 337,-134.3"/>
<polygon fill="black" stroke="black" points="338.75,-137 337,-132 335.25,-137 338.75,-137"/>
</g>
<!-- function&#45;1&#45;Lw&#45;&gt;function&#45;1&#45;ImmVal -->
<g id="edge10" class="edge">
<title>function&#45;1&#45;Lw:s&#45;&gt;function&#45;1&#45;ImmVal</title>
<path fill="none" stroke="black" d="M138,-253C138,-239.31 133.71,-224.63 129.21,-213"/>
<polygon fill="black" stroke="black" points="131.98,-214.79 128.28,-211 128.81,-216.27 131.98,-214.79"/>
</g>
<!-- function&#45;1&#45;Lw&#45;&gt;function&#45;0&#45;RegVal -->
<g id="edge9" class="edge">
<title>function&#45;1&#45;Lw:s&#45;&gt;function&#45;0&#45;RegVal</title>
<path fill="none" stroke="black" d="M122,-253C122,-241.85 142.2,-224.61 160.75,-211.14"/>
<polygon fill="black" stroke="black" points="157.16,-213.33 161.91,-211 156.74,-209.85 157.16,-213.33"/>
</g>
<!-- function&#45;0&#45;RegVal&#45;&gt;primitive&#45;String&#45;1 -->
<g id="edge13" class="edge">
<title>function&#45;0&#45;RegVal:s&#45;&gt;primitive&#45;String&#45;1</title>
<path fill="none" stroke="black" d="M192,-174C192,-160.84 192,-146.11 192,-134.3"/>
<polygon fill="black" stroke="black" points="193.75,-137 192,-132 190.25,-137 193.75,-137"/>
</g>
<!-- function&#45;1&#45;Addi&#45;&gt;function&#45;3&#45;ImmVal -->
<g id="edge12" class="edge">
<title>function&#45;1&#45;Addi:s&#45;&gt;function&#45;3&#45;ImmVal</title>
<path fill="none" stroke="black" d="M72,-253C72,-238.7 65.89,-223.97 59.48,-212.45"/>
<polygon fill="black" stroke="black" points="62.77,-213.14 57.92,-211 60.38,-215.69 62.77,-213.14"/>
</g>
<!-- function&#45;1&#45;Addi&#45;&gt;function&#45;0&#45;RegVal -->
<g id="edge11" class="edge">
<title>function&#45;1&#45;Addi:s&#45;&gt;function&#45;0&#45;RegVal</title>
<path fill="none" stroke="black" d="M52,-253C52,-204.47 110.53,-235.58 154,-214 154.36,-213.82 154.71,-213.64 155.07,-213.46"/>
<polygon fill="black" stroke="black" points="156.14,-214.88 159.74,-211 154.51,-211.78 156.14,-214.88"/>
</g>
<!-- function&#45;2&#45;Lw&#45;&gt;function&#45;2&#45;ImmVal -->
<g id="edge15" class="edge">
<title>function&#45;2&#45;Lw:s&#45;&gt;function&#45;2&#45;ImmVal</title>
<path fill="none" stroke="black" d="M223,-253C223,-237.71 231.69,-223.2 240.97,-212.07"/>
<polygon fill="black" stroke="black" points="239.45,-215.4 242.41,-211 237.35,-212.6 239.45,-215.4"/>
</g>
<!-- function&#45;2&#45;Lw&#45;&gt;function&#45;0&#45;RegVal -->
<g id="edge14" class="edge">
<title>function&#45;2&#45;Lw:s&#45;&gt;function&#45;0&#45;RegVal</title>
<path fill="none" stroke="black" d="M207,-253C207,-239.38 203.34,-224.6 199.52,-212.89"/>
<polygon fill="black" stroke="black" points="202.48,-213.63 197.88,-211 199.83,-215.92 202.48,-213.63"/>
</g>
<!-- function&#45;0&#45;Lw&#45;&gt;function&#45;0&#45;ImmVal -->
<g id="edge17" class="edge">
<title>function&#45;0&#45;Lw:s&#45;&gt;function&#45;0&#45;ImmVal</title>
<path fill="none" stroke="black" d="M305,-253C305,-238.46 312.04,-223.92 319.51,-212.58"/>
<polygon fill="black" stroke="black" points="318.67,-215.48 321.5,-211 316.5,-212.74 318.67,-215.48"/>
</g>
<!-- function&#45;0&#45;Lw&#45;&gt;function&#45;0&#45;RegVal -->
<g id="edge16" class="edge">
<title>function&#45;0&#45;Lw:s&#45;&gt;function&#45;0&#45;RegVal</title>
<path fill="none" stroke="black" d="M289,-253C289,-252.53 255.26,-231.26 227.37,-213.77"/>
<polygon fill="black" stroke="black" points="228.12,-212.17 222.95,-211 226.26,-215.14 228.12,-212.17"/>
</g>
<!-- function&#45;0&#45;Jalr&#45;&gt;function&#45;3&#45;ImmLabel -->
<g id="edge19" class="edge">
<title>function&#45;0&#45;Jalr:s&#45;&gt;function&#45;3&#45;ImmLabel</title>
<path fill="none" stroke="black" d="M732,-253C732,-235.76 719.86,-221.63 706.32,-211.24"/>
<polygon fill="black" stroke="black" points="710.33,-210.26 705.09,-211 709.65,-213.69 710.33,-210.26"/>
</g>
<!-- function&#45;0&#45;Jalr&#45;&gt;function&#45;0&#45;Auipc -->
<g id="edge18" class="edge">
<title>function&#45;0&#45;Jalr:s&#45;&gt;function&#45;0&#45;Auipc</title>
<path fill="none" stroke="black" d="M716,-253C716,-233.66 731.27,-218.24 746.66,-207.62"/>
<polygon fill="black" stroke="black" points="746.5,-210.84 748,-205.75 743.66,-208.79 746.5,-210.84"/>
</g>
<!-- function&#45;0&#45;Auipc&#45;&gt;function&#45;2&#45;ImmLabel -->
<g id="edge22" class="edge">
<title>function&#45;0&#45;Auipc:s&#45;&gt;function&#45;2&#45;ImmLabel</title>
<path fill="none" stroke="black" d="M778,-174C778,-160.43 781.43,-145.65 785.02,-133.93"/>
<polygon fill="black" stroke="black" points="784.81,-137 786.55,-132 782.07,-134.82 784.81,-137"/>
</g>
<!-- function&#45;0&#45;Addi&#45;&gt;function&#45;1&#45;ImmLabel -->
<g id="edge21" class="edge">
<title>function&#45;0&#45;Addi:s&#45;&gt;function&#45;1&#45;ImmLabel</title>
<path fill="none" stroke="black" d="M480,-253C480,-236.46 468.93,-222.18 456.82,-211.52"/>
<polygon fill="black" stroke="black" points="460.96,-211.49 455.68,-211 459.5,-214.67 460.96,-211.49"/>
</g>
<!-- function&#45;0&#45;Addi&#45;&gt;function&#45;0&#45;Lui -->
<g id="edge20" class="edge">
<title>function&#45;0&#45;Addi:s&#45;&gt;function&#45;0&#45;Lui</title>
<path fill="none" stroke="black" d="M460,-253C460,-236.46 471.07,-222.18 483.18,-211.52"/>
<polygon fill="black" stroke="black" points="483.11,-215.26 484,-210.04 480.05,-213.57 483.11,-215.26"/>
</g>
<!-- function&#45;0&#45;Lui&#45;&gt;function&#45;0&#45;ImmLabel -->
<g id="edge23" class="edge">
<title>function&#45;0&#45;Lui:s&#45;&gt;function&#45;0&#45;ImmLabel</title>
<path fill="none" stroke="black" d="M514,-174C514,-160.8 515.14,-146.06 516.33,-134.27"/>
<polygon fill="black" stroke="black" points="517.41,-137.27 516.88,-132 514.01,-136.45 517.41,-137.27"/>
</g>
<!-- function&#45;3&#45;ImmVal -->
<g id="node1" class="node">
<title>function&#45;3&#45;ImmVal</title>
<g id="a_node1"><a xlink:title="Imm&#45;11: function&#45;3&#45;ImmVal">
<path fill="white" stroke="transparent" d="M24.67,-174C24.67,-174 65.33,-174 65.33,-174 70.67,-174 76,-179.33 76,-184.67 76,-184.67 76,-195.33 76,-195.33 76,-200.67 70.67,-206 65.33,-206 65.33,-206 24.67,-206 24.67,-206 19.33,-206 14,-200.67 14,-195.33 14,-195.33 14,-184.67 14,-184.67 14,-179.33 19.33,-174 24.67,-174"/>
<text text-anchor="start" x="19" y="-186.3" font-family="Helvetica,sans-Serif" font-size="14.00">ImmVal</text>
<path fill="none" stroke="black" d="M24.67,-174C24.67,-174 65.33,-174 65.33,-174 70.67,-174 76,-179.33 76,-184.67 76,-184.67 76,-195.33 76,-195.33 76,-200.67 70.67,-206 65.33,-206 65.33,-206 24.67,-206 24.67,-206 19.33,-206 14,-200.67 14,-195.33 14,-195.33 14,-184.67 14,-184.67 14,-179.33 19.33,-174 24.67,-174"/>
</a>
</g>
</g>
<!-- primitive&#45;i64&#45;80 -->
<g id="node2" class="node">
<title>primitive&#45;i64&#45;80</title>
<g id="a_node2"><a xlink:title="i64&#45;80: primitive&#45;i64&#45;80">
<path fill="white" stroke="transparent" d="M39.67,-95C39.67,-95 50.33,-95 50.33,-95 55.67,-95 61,-100.33 61,-105.67 61,-105.67 61,-116.33 61,-116.33 61,-121.67 55.67,-127 50.33,-127 50.33,-127 39.67,-127 39.67,-127 34.33,-127 29,-121.67 29,-116.33 29,-116.33 29,-105.67 29,-105.67 29,-100.33 34.33,-95 39.67,-95"/>
<text text-anchor="start" x="35.5" y="-107.3" font-family="Helvetica,sans-Serif" font-size="14.00">80</text>
<path fill="none" stroke="black" d="M39.67,-95C39.67,-95 50.33,-95 50.33,-95 55.67,-95 61,-100.33 61,-105.67 61,-105.67 61,-116.33 61,-116.33 61,-121.67 55.67,-127 50.33,-127 50.33,-127 39.67,-127 39.67,-127 34.33,-127 29,-121.67 29,-116.33 29,-116.33 29,-105.67 29,-105.67 29,-100.33 34.33,-95 39.67,-95"/>
</a>
</g>
</g>
<!-- function&#45;0&#45;ImmLabel -->
<g id="node3" class="node">
<title>function&#45;0&#45;ImmLabel</title>
<g id="a_node3"><a xlink:title="Imm&#45;7: function&#45;0&#45;ImmLabel">
<path fill="white" stroke="transparent" d="M490.17,-95C490.17,-95 547.83,-95 547.83,-95 553.17,-95 558.5,-100.33 558.5,-105.67 558.5,-105.67 558.5,-116.33 558.5,-116.33 558.5,-121.67 553.17,-127 547.83,-127 547.83,-127 490.17,-127 490.17,-127 484.83,-127 479.5,-121.67 479.5,-116.33 479.5,-116.33 479.5,-105.67 479.5,-105.67 479.5,-100.33 484.83,-95 490.17,-95"/>
<text text-anchor="start" x="485" y="-107.3" font-family="Helvetica,sans-Serif" font-size="14.00">ImmLabel</text>
<path fill="none" stroke="black" d="M490.17,-95C490.17,-95 547.83,-95 547.83,-95 553.17,-95 558.5,-100.33 558.5,-105.67 558.5,-105.67 558.5,-116.33 558.5,-116.33 558.5,-121.67 553.17,-127 547.83,-127 547.83,-127 490.17,-127 490.17,-127 484.83,-127 479.5,-121.67 479.5,-116.33 479.5,-116.33 479.5,-105.67 479.5,-105.67 479.5,-100.33 484.83,-95 490.17,-95"/>
</a>
</g>
</g>
<!-- primitive&#45;String&#45;2 -->
<g id="node4" class="node">
<title>primitive&#45;String&#45;2</title>
<g id="a_node4"><a xlink:title="String&#45;2: primitive&#45;String&#45;2">
<path fill="white" stroke="transparent" d="M484.67,-16C484.67,-16 555.33,-16 555.33,-16 560.67,-16 566,-21.33 566,-26.67 566,-26.67 566,-37.33 566,-37.33 566,-42.67 560.67,-48 555.33,-48 555.33,-48 484.67,-48 484.67,-48 479.33,-48 474,-42.67 474,-37.33 474,-37.33 474,-26.67 474,-26.67 474,-21.33 479.33,-16 484.67,-16"/>
<text text-anchor="start" x="479" y="-28.3" font-family="Helvetica,sans-Serif" font-size="14.00">&quot;%hi(.LC2)&quot;</text>
<path fill="none" stroke="black" d="M484.67,-16C484.67,-16 555.33,-16 555.33,-16 560.67,-16 566,-21.33 566,-26.67 566,-26.67 566,-37.33 566,-37.33 566,-42.67 560.67,-48 555.33,-48 555.33,-48 484.67,-48 484.67,-48 479.33,-48 474,-42.67 474,-37.33 474,-37.33 474,-26.67 474,-26.67 474,-21.33 479.33,-16 484.67,-16"/>
</a>
</g>
</g>
<!-- function&#45;3&#45;ImmLabel -->
<g id="node5" class="node">
<title>function&#45;3&#45;ImmLabel</title>
<g id="a_node5"><a xlink:title="Imm&#45;15: function&#45;3&#45;ImmLabel">
<path fill="white" stroke="transparent" d="M641.17,-174C641.17,-174 698.83,-174 698.83,-174 704.17,-174 709.5,-179.33 709.5,-184.67 709.5,-184.67 709.5,-195.33 709.5,-195.33 709.5,-200.67 704.17,-206 698.83,-206 698.83,-206 641.17,-206 641.17,-206 635.83,-206 630.5,-200.67 630.5,-195.33 630.5,-195.33 630.5,-184.67 630.5,-184.67 630.5,-179.33 635.83,-174 641.17,-174"/>
<text text-anchor="start" x="636" y="-186.3" font-family="Helvetica,sans-Serif" font-size="14.00">ImmLabel</text>
<path fill="none" stroke="black" d="M641.17,-174C641.17,-174 698.83,-174 698.83,-174 704.17,-174 709.5,-179.33 709.5,-184.67 709.5,-184.67 709.5,-195.33 709.5,-195.33 709.5,-200.67 704.17,-206 698.83,-206 698.83,-206 641.17,-206 641.17,-206 635.83,-206 630.5,-200.67 630.5,-195.33 630.5,-195.33 630.5,-184.67 630.5,-184.67 630.5,-179.33 635.83,-174 641.17,-174"/>
</a>
</g>
</g>
<!-- primitive&#45;String&#45;5 -->
<g id="node6" class="node">
<title>primitive&#45;String&#45;5</title>
<g id="a_node6"><a xlink:title="String&#45;5: primitive&#45;String&#45;5">
<path fill="white" stroke="transparent" d="M581.17,-95C581.17,-95 730.83,-95 730.83,-95 736.17,-95 741.5,-100.33 741.5,-105.67 741.5,-105.67 741.5,-116.33 741.5,-116.33 741.5,-121.67 736.17,-127 730.83,-127 730.83,-127 581.17,-127 581.17,-127 575.83,-127 570.5,-121.67 570.5,-116.33 570.5,-116.33 570.5,-105.67 570.5,-105.67 570.5,-100.33 575.83,-95 581.17,-95"/>
<text text-anchor="start" x="576" y="-107.3" font-family="Helvetica,sans-Serif" font-size="14.00">&quot;%pcrel_lo(.Lpcrel_12)&quot;</text>
<path fill="none" stroke="black" d="M581.17,-95C581.17,-95 730.83,-95 730.83,-95 736.17,-95 741.5,-100.33 741.5,-105.67 741.5,-105.67 741.5,-116.33 741.5,-116.33 741.5,-121.67 736.17,-127 730.83,-127 730.83,-127 581.17,-127 581.17,-127 575.83,-127 570.5,-121.67 570.5,-116.33 570.5,-116.33 570.5,-105.67 570.5,-105.67 570.5,-100.33 575.83,-95 581.17,-95"/>
</a>
</g>
</g>
<!-- function&#45;1&#45;ImmLabel -->
<g id="node7" class="node">
<title>function&#45;1&#45;ImmLabel</title>
<g id="a_node7"><a xlink:title="Imm&#45;9: function&#45;1&#45;ImmLabel">
<path fill="white" stroke="transparent" d="M397.17,-174C397.17,-174 454.83,-174 454.83,-174 460.17,-174 465.5,-179.33 465.5,-184.67 465.5,-184.67 465.5,-195.33 465.5,-195.33 465.5,-200.67 460.17,-206 454.83,-206 454.83,-206 397.17,-206 397.17,-206 391.83,-206 386.5,-200.67 386.5,-195.33 386.5,-195.33 386.5,-184.67 386.5,-184.67 386.5,-179.33 391.83,-174 397.17,-174"/>
<text text-anchor="start" x="392" y="-186.3" font-family="Helvetica,sans-Serif" font-size="14.00">ImmLabel</text>
<path fill="none" stroke="black" d="M397.17,-174C397.17,-174 454.83,-174 454.83,-174 460.17,-174 465.5,-179.33 465.5,-184.67 465.5,-184.67 465.5,-195.33 465.5,-195.33 465.5,-200.67 460.17,-206 454.83,-206 454.83,-206 397.17,-206 397.17,-206 391.83,-206 386.5,-200.67 386.5,-195.33 386.5,-195.33 386.5,-184.67 386.5,-184.67 386.5,-179.33 391.83,-174 397.17,-174"/>
</a>
</g>
</g>
<!-- primitive&#45;String&#45;3 -->
<g id="node8" class="node">
<title>primitive&#45;String&#45;3</title>
<g id="a_node8"><a xlink:title="String&#45;3: primitive&#45;String&#45;3">
<path fill="white" stroke="transparent" d="M387.17,-95C387.17,-95 456.83,-95 456.83,-95 462.17,-95 467.5,-100.33 467.5,-105.67 467.5,-105.67 467.5,-116.33 467.5,-116.33 467.5,-121.67 462.17,-127 456.83,-127 456.83,-127 387.17,-127 387.17,-127 381.83,-127 376.5,-121.67 376.5,-116.33 376.5,-116.33 376.5,-105.67 376.5,-105.67 376.5,-100.33 381.83,-95 387.17,-95"/>
<text text-anchor="start" x="382" y="-107.3" font-family="Helvetica,sans-Serif" font-size="14.00">&quot;%lo(.LC2)&quot;</text>
<path fill="none" stroke="black" d="M387.17,-95C387.17,-95 456.83,-95 456.83,-95 462.17,-95 467.5,-100.33 467.5,-105.67 467.5,-105.67 467.5,-116.33 467.5,-116.33 467.5,-121.67 462.17,-127 456.83,-127 456.83,-127 387.17,-127 387.17,-127 381.83,-127 376.5,-121.67 376.5,-116.33 376.5,-116.33 376.5,-105.67 376.5,-105.67 376.5,-100.33 381.83,-95 387.17,-95"/>
</a>
</g>
</g>
<!-- function&#45;2&#45;ImmLabel -->
<g id="node9" class="node">
<title>function&#45;2&#45;ImmLabel</title>
<g id="a_node9"><a xlink:title="Imm&#45;13: function&#45;2&#45;ImmLabel">
<path fill="white" stroke="transparent" d="M764.17,-95C764.17,-95 821.83,-95 821.83,-95 827.17,-95 832.5,-100.33 832.5,-105.67 832.5,-105.67 832.5,-116.33 832.5,-116.33 832.5,-121.67 827.17,-127 821.83,-127 821.83,-127 764.17,-127 764.17,-127 758.83,-127 753.5,-121.67 753.5,-116.33 753.5,-116.33 753.5,-105.67 753.5,-105.67 753.5,-100.33 758.83,-95 764.17,-95"/>
<text text-anchor="start" x="759" y="-107.3" font-family="Helvetica,sans-Serif" font-size="14.00">ImmLabel</text>
<path fill="none" stroke="black" d="M764.17,-95C764.17,-95 821.83,-95 821.83,-95 827.17,-95 832.5,-100.33 832.5,-105.67 832.5,-105.67 832.5,-116.33 832.5,-116.33 832.5,-121.67 827.17,-127 821.83,-127 821.83,-127 764.17,-127 764.17,-127 758.83,-127 753.5,-121.67 753.5,-116.33 753.5,-116.33 753.5,-105.67 753.5,-105.67 753.5,-100.33 758.83,-95 764.17,-95"/>
</a>
</g>
</g>
<!-- primitive&#45;String&#45;4 -->
<g id="node10" class="node">
<title>primitive&#45;String&#45;4</title>
<g id="a_node10"><a xlink:title="String&#45;4: primitive&#45;String&#45;4">
<path fill="white" stroke="transparent" d="M738.67,-16C738.67,-16 849.33,-16 849.33,-16 854.67,-16 860,-21.33 860,-26.67 860,-26.67 860,-37.33 860,-37.33 860,-42.67 854.67,-48 849.33,-48 849.33,-48 738.67,-48 738.67,-48 733.33,-48 728,-42.67 728,-37.33 728,-37.33 728,-26.67 728,-26.67 728,-21.33 733.33,-16 738.67,-16"/>
<text text-anchor="start" x="733" y="-28.3" font-family="Helvetica,sans-Serif" font-size="14.00">&quot;%pcrel_hi(puts)&quot;</text>
<path fill="none" stroke="black" d="M738.67,-16C738.67,-16 849.33,-16 849.33,-16 854.67,-16 860,-21.33 860,-26.67 860,-26.67 860,-37.33 860,-37.33 860,-42.67 854.67,-48 849.33,-48 849.33,-48 738.67,-48 738.67,-48 733.33,-48 728,-42.67 728,-37.33 728,-37.33 728,-26.67 728,-26.67 728,-21.33 733.33,-16 738.67,-16"/>
</a>
</g>
</g>
<!-- function&#45;1&#45;ImmVal -->
<g id="node11" class="node">
<title>function&#45;1&#45;ImmVal</title>
<g id="a_node11"><a xlink:title="Imm&#45;3: function&#45;1&#45;ImmVal">
<path fill="white" stroke="transparent" d="M98.67,-174C98.67,-174 139.33,-174 139.33,-174 144.67,-174 150,-179.33 150,-184.67 150,-184.67 150,-195.33 150,-195.33 150,-200.67 144.67,-206 139.33,-206 139.33,-206 98.67,-206 98.67,-206 93.33,-206 88,-200.67 88,-195.33 88,-195.33 88,-184.67 88,-184.67 88,-179.33 93.33,-174 98.67,-174"/>
<text text-anchor="start" x="93" y="-186.3" font-family="Helvetica,sans-Serif" font-size="14.00">ImmVal</text>
<path fill="none" stroke="black" d="M98.67,-174C98.67,-174 139.33,-174 139.33,-174 144.67,-174 150,-179.33 150,-184.67 150,-184.67 150,-195.33 150,-195.33 150,-200.67 144.67,-206 139.33,-206 139.33,-206 98.67,-206 98.67,-206 93.33,-206 88,-200.67 88,-195.33 88,-195.33 88,-184.67 88,-184.67 88,-179.33 93.33,-174 98.67,-174"/>
</a>
</g>
</g>
<!-- primitive&#45;i64&#45;76 -->
<g id="node12" class="node">
<title>primitive&#45;i64&#45;76</title>
<g id="a_node12"><a xlink:title="i64&#45;76: primitive&#45;i64&#45;76">
<path fill="white" stroke="transparent" d="M113.67,-95C113.67,-95 124.33,-95 124.33,-95 129.67,-95 135,-100.33 135,-105.67 135,-105.67 135,-116.33 135,-116.33 135,-121.67 129.67,-127 124.33,-127 124.33,-127 113.67,-127 113.67,-127 108.33,-127 103,-121.67 103,-116.33 103,-116.33 103,-105.67 103,-105.67 103,-100.33 108.33,-95 113.67,-95"/>
<text text-anchor="start" x="109.5" y="-107.3" font-family="Helvetica,sans-Serif" font-size="14.00">76</text>
<path fill="none" stroke="black" d="M113.67,-95C113.67,-95 124.33,-95 124.33,-95 129.67,-95 135,-100.33 135,-105.67 135,-105.67 135,-116.33 135,-116.33 135,-121.67 129.67,-127 124.33,-127 124.33,-127 113.67,-127 113.67,-127 108.33,-127 103,-121.67 103,-116.33 103,-116.33 103,-105.67 103,-105.67 103,-100.33 108.33,-95 113.67,-95"/>
</a>
</g>
</g>
<!-- function&#45;2&#45;ImmVal -->
<g id="node13" class="node">
<title>function&#45;2&#45;ImmVal</title>
<g id="a_node13"><a xlink:title="Imm&#45;5: function&#45;2&#45;ImmVal">
<path fill="white" stroke="transparent" d="M242.67,-174C242.67,-174 283.33,-174 283.33,-174 288.67,-174 294,-179.33 294,-184.67 294,-184.67 294,-195.33 294,-195.33 294,-200.67 288.67,-206 283.33,-206 283.33,-206 242.67,-206 242.67,-206 237.33,-206 232,-200.67 232,-195.33 232,-195.33 232,-184.67 232,-184.67 232,-179.33 237.33,-174 242.67,-174"/>
<text text-anchor="start" x="237" y="-186.3" font-family="Helvetica,sans-Serif" font-size="14.00">ImmVal</text>
<path fill="none" stroke="black" d="M242.67,-174C242.67,-174 283.33,-174 283.33,-174 288.67,-174 294,-179.33 294,-184.67 294,-184.67 294,-195.33 294,-195.33 294,-200.67 288.67,-206 283.33,-206 283.33,-206 242.67,-206 242.67,-206 237.33,-206 232,-200.67 232,-195.33 232,-195.33 232,-184.67 232,-184.67 232,-179.33 237.33,-174 242.67,-174"/>
</a>
</g>
</g>
<!-- primitive&#45;i64&#45;52 -->
<g id="node14" class="node">
<title>primitive&#45;i64&#45;52</title>
<g id="a_node14"><a xlink:title="i64&#45;52: primitive&#45;i64&#45;52">
<path fill="white" stroke="transparent" d="M257.67,-95C257.67,-95 268.33,-95 268.33,-95 273.67,-95 279,-100.33 279,-105.67 279,-105.67 279,-116.33 279,-116.33 279,-121.67 273.67,-127 268.33,-127 268.33,-127 257.67,-127 257.67,-127 252.33,-127 247,-121.67 247,-116.33 247,-116.33 247,-105.67 247,-105.67 247,-100.33 252.33,-95 257.67,-95"/>
<text text-anchor="start" x="253.5" y="-107.3" font-family="Helvetica,sans-Serif" font-size="14.00">52</text>
<path fill="none" stroke="black" d="M257.67,-95C257.67,-95 268.33,-95 268.33,-95 273.67,-95 279,-100.33 279,-105.67 279,-105.67 279,-116.33 279,-116.33 279,-121.67 273.67,-127 268.33,-127 268.33,-127 257.67,-127 257.67,-127 252.33,-127 247,-121.67 247,-116.33 247,-116.33 247,-105.67 247,-105.67 247,-100.33 252.33,-95 257.67,-95"/>
</a>
</g>
</g>
<!-- function&#45;0&#45;ImmVal -->
<g id="node15" class="node">
<title>function&#45;0&#45;ImmVal</title>
<g id="a_node15"><a xlink:title="Imm&#45;1: function&#45;0&#45;ImmVal">
<path fill="white" stroke="transparent" d="M316.67,-174C316.67,-174 357.33,-174 357.33,-174 362.67,-174 368,-179.33 368,-184.67 368,-184.67 368,-195.33 368,-195.33 368,-200.67 362.67,-206 357.33,-206 357.33,-206 316.67,-206 316.67,-206 311.33,-206 306,-200.67 306,-195.33 306,-195.33 306,-184.67 306,-184.67 306,-179.33 311.33,-174 316.67,-174"/>
<text text-anchor="start" x="311" y="-186.3" font-family="Helvetica,sans-Serif" font-size="14.00">ImmVal</text>
<path fill="none" stroke="black" d="M316.67,-174C316.67,-174 357.33,-174 357.33,-174 362.67,-174 368,-179.33 368,-184.67 368,-184.67 368,-195.33 368,-195.33 368,-200.67 362.67,-206 357.33,-206 357.33,-206 316.67,-206 316.67,-206 311.33,-206 306,-200.67 306,-195.33 306,-195.33 306,-184.67 306,-184.67 306,-179.33 311.33,-174 316.67,-174"/>
</a>
</g>
</g>
<!-- primitive&#45;i64&#45;72 -->
<g id="node16" class="node">
<title>primitive&#45;i64&#45;72</title>
<g id="a_node16"><a xlink:title="i64&#45;72: primitive&#45;i64&#45;72">
<path fill="white" stroke="transparent" d="M331.67,-95C331.67,-95 342.33,-95 342.33,-95 347.67,-95 353,-100.33 353,-105.67 353,-105.67 353,-116.33 353,-116.33 353,-121.67 347.67,-127 342.33,-127 342.33,-127 331.67,-127 331.67,-127 326.33,-127 321,-121.67 321,-116.33 321,-116.33 321,-105.67 321,-105.67 321,-100.33 326.33,-95 331.67,-95"/>
<text text-anchor="start" x="327.5" y="-107.3" font-family="Helvetica,sans-Serif" font-size="14.00">72</text>
<path fill="none" stroke="black" d="M331.67,-95C331.67,-95 342.33,-95 342.33,-95 347.67,-95 353,-100.33 353,-105.67 353,-105.67 353,-116.33 353,-116.33 353,-121.67 347.67,-127 342.33,-127 342.33,-127 331.67,-127 331.67,-127 326.33,-127 321,-121.67 321,-116.33 321,-116.33 321,-105.67 321,-105.67 321,-100.33 326.33,-95 331.67,-95"/>
</a>
</g>
</g>
<!-- function&#45;1&#45;Lw -->
<g id="node17" class="node">
<title>function&#45;1&#45;Lw</title>
<g id="a_node17"><a xlink:title="Inst&#45;4: function&#45;1&#45;Lw">
<path fill="white" stroke="transparent" d="M124.67,-253C124.67,-253 135.33,-253 135.33,-253 140.67,-253 146,-258.33 146,-263.67 146,-263.67 146,-274.33 146,-274.33 146,-279.67 140.67,-285 135.33,-285 135.33,-285 124.67,-285 124.67,-285 119.33,-285 114,-279.67 114,-274.33 114,-274.33 114,-263.67 114,-263.67 114,-258.33 119.33,-253 124.67,-253"/>
<text text-anchor="start" x="120.5" y="-265.3" font-family="Helvetica,sans-Serif" font-size="14.00">Lw</text>
<path fill="none" stroke="black" d="M124.67,-253C124.67,-253 135.33,-253 135.33,-253 140.67,-253 146,-258.33 146,-263.67 146,-263.67 146,-274.33 146,-274.33 146,-279.67 140.67,-285 135.33,-285 135.33,-285 124.67,-285 124.67,-285 119.33,-285 114,-279.67 114,-274.33 114,-274.33 114,-263.67 114,-263.67 114,-258.33 119.33,-253 124.67,-253"/>
</a>
</g>
</g>
<!-- function&#45;0&#45;RegVal -->
<g id="node18" class="node">
<title>function&#45;0&#45;RegVal</title>
<g id="a_node18"><a xlink:title="Inst&#45;0: function&#45;0&#45;RegVal">
<path fill="white" stroke="transparent" d="M173.17,-174C173.17,-174 208.83,-174 208.83,-174 214.17,-174 219.5,-179.33 219.5,-184.67 219.5,-184.67 219.5,-195.33 219.5,-195.33 219.5,-200.67 214.17,-206 208.83,-206 208.83,-206 173.17,-206 173.17,-206 167.83,-206 162.5,-200.67 162.5,-195.33 162.5,-195.33 162.5,-184.67 162.5,-184.67 162.5,-179.33 167.83,-174 173.17,-174"/>
<text text-anchor="start" x="168" y="-186.3" font-family="Helvetica,sans-Serif" font-size="14.00">RegVal</text>
<path fill="none" stroke="black" d="M173.17,-174C173.17,-174 208.83,-174 208.83,-174 214.17,-174 219.5,-179.33 219.5,-184.67 219.5,-184.67 219.5,-195.33 219.5,-195.33 219.5,-200.67 214.17,-206 208.83,-206 208.83,-206 173.17,-206 173.17,-206 167.83,-206 162.5,-200.67 162.5,-195.33 162.5,-195.33 162.5,-184.67 162.5,-184.67 162.5,-179.33 167.83,-174 173.17,-174"/>
</a>
</g>
</g>
<!-- function&#45;1&#45;Addi -->
<g id="node19" class="node">
<title>function&#45;1&#45;Addi</title>
<g id="a_node19"><a xlink:title="Inst&#45;12: function&#45;1&#45;Addi">
<path fill="white" stroke="transparent" d="M52.17,-253C52.17,-253 71.83,-253 71.83,-253 77.17,-253 82.5,-258.33 82.5,-263.67 82.5,-263.67 82.5,-274.33 82.5,-274.33 82.5,-279.67 77.17,-285 71.83,-285 71.83,-285 52.17,-285 52.17,-285 46.83,-285 41.5,-279.67 41.5,-274.33 41.5,-274.33 41.5,-263.67 41.5,-263.67 41.5,-258.33 46.83,-253 52.17,-253"/>
<text text-anchor="start" x="47" y="-265.3" font-family="Helvetica,sans-Serif" font-size="14.00">Addi</text>
<path fill="none" stroke="black" d="M52.17,-253C52.17,-253 71.83,-253 71.83,-253 77.17,-253 82.5,-258.33 82.5,-263.67 82.5,-263.67 82.5,-274.33 82.5,-274.33 82.5,-279.67 77.17,-285 71.83,-285 71.83,-285 52.17,-285 52.17,-285 46.83,-285 41.5,-279.67 41.5,-274.33 41.5,-274.33 41.5,-263.67 41.5,-263.67 41.5,-258.33 46.83,-253 52.17,-253"/>
</a>
</g>
</g>
<!-- primitive&#45;String&#45;1 -->
<g id="node20" class="node">
<title>primitive&#45;String&#45;1</title>
<g id="a_node20"><a xlink:title="String&#45;1: primitive&#45;String&#45;1">
<path fill="white" stroke="transparent" d="M174.67,-95C174.67,-95 209.33,-95 209.33,-95 214.67,-95 220,-100.33 220,-105.67 220,-105.67 220,-116.33 220,-116.33 220,-121.67 214.67,-127 209.33,-127 209.33,-127 174.67,-127 174.67,-127 169.33,-127 164,-121.67 164,-116.33 164,-116.33 164,-105.67 164,-105.67 164,-100.33 169.33,-95 174.67,-95"/>
<text text-anchor="start" x="169" y="-107.3" font-family="Helvetica,sans-Serif" font-size="14.00">&quot;sp_0&quot;</text>
<path fill="none" stroke="black" d="M174.67,-95C174.67,-95 209.33,-95 209.33,-95 214.67,-95 220,-100.33 220,-105.67 220,-105.67 220,-116.33 220,-116.33 220,-121.67 214.67,-127 209.33,-127 209.33,-127 174.67,-127 174.67,-127 169.33,-127 164,-121.67 164,-116.33 164,-116.33 164,-105.67 164,-105.67 164,-100.33 169.33,-95 174.67,-95"/>
</a>
</g>
</g>
<!-- function&#45;2&#45;Lw -->
<g id="node21" class="node">
<title>function&#45;2&#45;Lw</title>
<g id="a_node21"><a xlink:title="Inst&#45;6: function&#45;2&#45;Lw">
<path fill="white" stroke="transparent" d="M209.67,-253C209.67,-253 220.33,-253 220.33,-253 225.67,-253 231,-258.33 231,-263.67 231,-263.67 231,-274.33 231,-274.33 231,-279.67 225.67,-285 220.33,-285 220.33,-285 209.67,-285 209.67,-285 204.33,-285 199,-279.67 199,-274.33 199,-274.33 199,-263.67 199,-263.67 199,-258.33 204.33,-253 209.67,-253"/>
<text text-anchor="start" x="205.5" y="-265.3" font-family="Helvetica,sans-Serif" font-size="14.00">Lw</text>
<path fill="none" stroke="black" d="M209.67,-253C209.67,-253 220.33,-253 220.33,-253 225.67,-253 231,-258.33 231,-263.67 231,-263.67 231,-274.33 231,-274.33 231,-279.67 225.67,-285 220.33,-285 220.33,-285 209.67,-285 209.67,-285 204.33,-285 199,-279.67 199,-274.33 199,-274.33 199,-263.67 199,-263.67 199,-258.33 204.33,-253 209.67,-253"/>
</a>
</g>
</g>
<!-- function&#45;0&#45;Lw -->
<g id="node22" class="node">
<title>function&#45;0&#45;Lw</title>
<g id="a_node22"><a xlink:title="Inst&#45;2: function&#45;0&#45;Lw">
<path fill="white" stroke="transparent" d="M291.67,-253C291.67,-253 302.33,-253 302.33,-253 307.67,-253 313,-258.33 313,-263.67 313,-263.67 313,-274.33 313,-274.33 313,-279.67 307.67,-285 302.33,-285 302.33,-285 291.67,-285 291.67,-285 286.33,-285 281,-279.67 281,-274.33 281,-274.33 281,-263.67 281,-263.67 281,-258.33 286.33,-253 291.67,-253"/>
<text text-anchor="start" x="287.5" y="-265.3" font-family="Helvetica,sans-Serif" font-size="14.00">Lw</text>
<path fill="none" stroke="black" d="M291.67,-253C291.67,-253 302.33,-253 302.33,-253 307.67,-253 313,-258.33 313,-263.67 313,-263.67 313,-274.33 313,-274.33 313,-279.67 307.67,-285 302.33,-285 302.33,-285 291.67,-285 291.67,-285 286.33,-285 281,-279.67 281,-274.33 281,-274.33 281,-263.67 281,-263.67 281,-258.33 286.33,-253 291.67,-253"/>
</a>
</g>
</g>
<!-- function&#45;0&#45;Jalr -->
<g id="node23" class="node">
<title>function&#45;0&#45;Jalr</title>
<g id="a_node23"><a xlink:title="Inst&#45;16: function&#45;0&#45;Jalr">
<path fill="white" stroke="transparent" d="M718.17,-253C718.17,-253 729.83,-253 729.83,-253 735.17,-253 740.5,-258.33 740.5,-263.67 740.5,-263.67 740.5,-274.33 740.5,-274.33 740.5,-279.67 735.17,-285 729.83,-285 729.83,-285 718.17,-285 718.17,-285 712.83,-285 707.5,-279.67 707.5,-274.33 707.5,-274.33 707.5,-263.67 707.5,-263.67 707.5,-258.33 712.83,-253 718.17,-253"/>
<text text-anchor="start" x="713" y="-265.3" font-family="Helvetica,sans-Serif" font-size="14.00">Jalr</text>
<path fill="none" stroke="black" d="M718.17,-253C718.17,-253 729.83,-253 729.83,-253 735.17,-253 740.5,-258.33 740.5,-263.67 740.5,-263.67 740.5,-274.33 740.5,-274.33 740.5,-279.67 735.17,-285 729.83,-285 729.83,-285 718.17,-285 718.17,-285 712.83,-285 707.5,-279.67 707.5,-274.33 707.5,-274.33 707.5,-263.67 707.5,-263.67 707.5,-258.33 712.83,-253 718.17,-253"/>
</a>
</g>
</g>
<!-- function&#45;0&#45;Auipc -->
<g id="node24" class="node">
<title>function&#45;0&#45;Auipc</title>
<g id="a_node24"><a xlink:title="Inst&#45;14: function&#45;0&#45;Auipc">
<path fill="white" stroke="transparent" d="M763.67,-174C763.67,-174 792.33,-174 792.33,-174 797.67,-174 803,-179.33 803,-184.67 803,-184.67 803,-195.33 803,-195.33 803,-200.67 797.67,-206 792.33,-206 792.33,-206 763.67,-206 763.67,-206 758.33,-206 753,-200.67 753,-195.33 753,-195.33 753,-184.67 753,-184.67 753,-179.33 758.33,-174 763.67,-174"/>
<text text-anchor="start" x="758" y="-186.3" font-family="Helvetica,sans-Serif" font-size="14.00">Auipc</text>
<path fill="none" stroke="black" d="M763.67,-174C763.67,-174 792.33,-174 792.33,-174 797.67,-174 803,-179.33 803,-184.67 803,-184.67 803,-195.33 803,-195.33 803,-200.67 797.67,-206 792.33,-206 792.33,-206 763.67,-206 763.67,-206 758.33,-206 753,-200.67 753,-195.33 753,-195.33 753,-184.67 753,-184.67 753,-179.33 758.33,-174 763.67,-174"/>
</a>
</g>
</g>
<!-- function&#45;0&#45;Addi -->
<g id="node25" class="node">
<title>function&#45;0&#45;Addi</title>
<g id="a_node25"><a xlink:title="Inst&#45;10: function&#45;0&#45;Addi">
<path fill="white" stroke="transparent" d="M460.17,-253C460.17,-253 479.83,-253 479.83,-253 485.17,-253 490.5,-258.33 490.5,-263.67 490.5,-263.67 490.5,-274.33 490.5,-274.33 490.5,-279.67 485.17,-285 479.83,-285 479.83,-285 460.17,-285 460.17,-285 454.83,-285 449.5,-279.67 449.5,-274.33 449.5,-274.33 449.5,-263.67 449.5,-263.67 449.5,-258.33 454.83,-253 460.17,-253"/>
<text text-anchor="start" x="455" y="-265.3" font-family="Helvetica,sans-Serif" font-size="14.00">Addi</text>
<path fill="none" stroke="black" d="M460.17,-253C460.17,-253 479.83,-253 479.83,-253 485.17,-253 490.5,-258.33 490.5,-263.67 490.5,-263.67 490.5,-274.33 490.5,-274.33 490.5,-279.67 485.17,-285 479.83,-285 479.83,-285 460.17,-285 460.17,-285 454.83,-285 449.5,-279.67 449.5,-274.33 449.5,-274.33 449.5,-263.67 449.5,-263.67 449.5,-258.33 454.83,-253 460.17,-253"/>
</a>
</g>
</g>
<!-- function&#45;0&#45;Lui -->
<g id="node26" class="node">
<title>function&#45;0&#45;Lui</title>
<g id="a_node26"><a xlink:title="Inst&#45;8: function&#45;0&#45;Lui">
<path fill="white" stroke="transparent" d="M508.67,-174C508.67,-174 519.33,-174 519.33,-174 524.67,-174 530,-179.33 530,-184.67 530,-184.67 530,-195.33 530,-195.33 530,-200.67 524.67,-206 519.33,-206 519.33,-206 508.67,-206 508.67,-206 503.33,-206 498,-200.67 498,-195.33 498,-195.33 498,-184.67 498,-184.67 498,-179.33 503.33,-174 508.67,-174"/>
<text text-anchor="start" x="503.5" y="-186.3" font-family="Helvetica,sans-Serif" font-size="14.00">Lui</text>
<path fill="none" stroke="black" d="M508.67,-174C508.67,-174 519.33,-174 519.33,-174 524.67,-174 530,-179.33 530,-184.67 530,-184.67 530,-195.33 530,-195.33 530,-200.67 524.67,-206 519.33,-206 519.33,-206 508.67,-206 508.67,-206 503.33,-206 498,-200.67 498,-195.33 498,-195.33 498,-184.67 498,-184.67 498,-179.33 503.33,-174 508.67,-174"/>
</a>
</g>
</g>
</g>
</svg>
