<?xml version="1.0" encoding="UTF-8" standalone="no"?>
<!DOCTYPE svg PUBLIC "-//W3C//DTD SVG 1.1//EN"
 "http://www.w3.org/Graphics/SVG/1.1/DTD/svg11.dtd">
<!-- Generated by graphviz version 2.43.0 (0)
 -->
<!-- Title: %3 Pages: 1 -->
<svg width="664pt" height="309pt"
 viewBox="0.00 0.00 664.00 309.00" xmlns="http://www.w3.org/2000/svg" xmlns:xlink="http://www.w3.org/1999/xlink">
<g id="graph0" class="graph" transform="scale(1 1) rotate(0) translate(4 305)">
<title>%3</title>
<polygon fill="white" stroke="#000000" points="-4,4 -4,-305 660,-305 660,4 -4,4"/>
<g id="clust1" class="cluster">
<title>outer_cluster_Imm&#45;1</title>
</g>
<g id="clust2" class="cluster">
<title>cluster_Imm&#45;1</title>
<path fill="#ffffb3" stroke="black" stroke-dasharray="5,2" d="M127,-90C127,-90 187,-90 187,-90 193,-90 199,-96 199,-102 199,-102 199,-120 199,-120 199,-126 193,-132 187,-132 187,-132 127,-132 127,-132 121,-132 115,-126 115,-120 115,-120 115,-102 115,-102 115,-96 121,-90 127,-90"/>
</g>
<g id="clust4" class="cluster">
<title>outer_cluster_Imm&#45;5</title>
</g>
<g id="clust5" class="cluster">
<title>cluster_Imm&#45;5</title>
<path fill="#ffffb3" stroke="black" stroke-dasharray="5,2" d="M34,-169C34,-169 94,-169 94,-169 100,-169 106,-175 106,-181 106,-181 106,-199 106,-199 106,-205 100,-211 94,-211 94,-211 34,-211 34,-211 28,-211 22,-205 22,-199 22,-199 22,-181 22,-181 22,-175 28,-169 34,-169"/>
</g>
<g id="clust7" class="cluster">
<title>outer_cluster_Imm&#45;3</title>
</g>
<g id="clust8" class="cluster">
<title>cluster_Imm&#45;3</title>
<path fill="#ffffb3" stroke="black" stroke-dasharray="5,2" d="M213,-169C213,-169 257,-169 257,-169 263,-169 269,-175 269,-181 269,-181 269,-199 269,-199 269,-205 263,-211 257,-211 257,-211 213,-211 213,-211 207,-211 201,-205 201,-199 201,-199 201,-181 201,-181 201,-175 207,-169 213,-169"/>
</g>
<g id="clust10" class="cluster">
<title>outer_cluster_Imm&#45;7</title>
</g>
<g id="clust11" class="cluster">
<title>cluster_Imm&#45;7</title>
<path fill="#ffffb3" stroke="black" stroke-dasharray="5,2" d="M541,-90C541,-90 601,-90 601,-90 607,-90 613,-96 613,-102 613,-102 613,-120 613,-120 613,-126 607,-132 601,-132 601,-132 541,-132 541,-132 535,-132 529,-126 529,-120 529,-120 529,-102 529,-102 529,-96 535,-90 541,-90"/>
</g>
<g id="clust13" class="cluster">
<title>outer_cluster_Imm&#45;9</title>
</g>
<g id="clust14" class="cluster">
<title>cluster_Imm&#45;9</title>
<path fill="#ffffb3" stroke="black" stroke-dasharray="5,2" d="M418,-169C418,-169 478,-169 478,-169 484,-169 490,-175 490,-181 490,-181 490,-199 490,-199 490,-205 484,-211 478,-211 478,-211 418,-211 418,-211 412,-211 406,-205 406,-199 406,-199 406,-181 406,-181 406,-175 412,-169 418,-169"/>
</g>
<g id="clust16" class="cluster">
<title>outer_cluster_Inst&#45;8</title>
</g>
<g id="clust17" class="cluster">
<title>cluster_Inst&#45;8</title>
<path fill="#bebada" stroke="black" stroke-dasharray="5,2" d="M538,-169C538,-169 574,-169 574,-169 580,-169 586,-175 586,-181 586,-181 586,-199 586,-199 586,-205 580,-211 574,-211 574,-211 538,-211 538,-211 532,-211 526,-205 526,-199 526,-199 526,-181 526,-181 526,-175 532,-169 538,-169"/>
</g>
<g id="clust19" class="cluster">
<title>outer_cluster_Inst&#45;10</title>
</g>
<g id="clust20" class="cluster">
<title>cluster_Inst&#45;10</title>
<path fill="#bebada" stroke="black" stroke-dasharray="5,2" d="M484,-248C484,-248 520,-248 520,-248 526,-248 532,-254 532,-260 532,-260 532,-278 532,-278 532,-284 526,-290 520,-290 520,-290 484,-290 484,-290 478,-290 472,-284 472,-278 472,-278 472,-260 472,-260 472,-254 478,-248 484,-248"/>
</g>
<g id="clust22" class="cluster">
<title>outer_cluster_Inst&#45;6</title>
</g>
<g id="clust23" class="cluster">
<title>cluster_Inst&#45;6</title>
<path fill="#bebada" stroke="black" stroke-dasharray="5,2" d="M90,-248C90,-248 126,-248 126,-248 132,-248 138,-254 138,-260 138,-260 138,-278 138,-278 138,-284 132,-290 126,-290 126,-290 90,-290 90,-290 84,-290 78,-284 78,-278 78,-278 78,-260 78,-260 78,-254 84,-248 90,-248"/>
</g>
<g id="clust25" class="cluster">
<title>outer_cluster_Inst&#45;2</title>
</g>
<g id="clust26" class="cluster">
<title>cluster_Inst&#45;2</title>
<path fill="#bebada" stroke="black" stroke-dasharray="5,2" d="M129,-169C129,-169 165,-169 165,-169 171,-169 177,-175 177,-181 177,-181 177,-199 177,-199 177,-205 171,-211 165,-211 165,-211 129,-211 129,-211 123,-211 117,-205 117,-199 117,-199 117,-181 117,-181 117,-175 123,-169 129,-169"/>
</g>
<g id="clust28" class="cluster">
<title>outer_cluster_Inst&#45;0</title>
</g>
<g id="clust29" class="cluster">
<title>cluster_Inst&#45;0</title>
<path fill="#bebada" stroke="black" stroke-dasharray="5,2" d="M287,-169C287,-169 327,-169 327,-169 333,-169 339,-175 339,-181 339,-181 339,-199 339,-199 339,-205 333,-211 327,-211 327,-211 287,-211 287,-211 281,-211 275,-205 275,-199 275,-199 275,-181 275,-181 275,-175 281,-169 287,-169"/>
</g>
<g id="clust31" class="cluster">
<title>outer_cluster_Inst&#45;4</title>
</g>
<g id="clust32" class="cluster">
<title>cluster_Inst&#45;4</title>
<path fill="#bebada" stroke="black" stroke-dasharray="5,2" d="M253,-248C253,-248 289,-248 289,-248 295,-248 301,-254 301,-260 301,-260 301,-278 301,-278 301,-284 295,-290 289,-290 289,-290 253,-290 253,-290 247,-290 241,-284 241,-278 241,-278 241,-260 241,-260 241,-254 247,-248 253,-248"/>
</g>
<g id="clust34" class="cluster">
<title>outer_cluster_String&#45;1</title>
</g>
<g id="clust35" class="cluster">
<title>cluster_String&#45;1</title>
<path fill="#fb8072" stroke="black" stroke-dasharray="5,2" d="M289,-90C289,-90 327,-90 327,-90 333,-90 339,-96 339,-102 339,-102 339,-120 339,-120 339,-126 333,-132 327,-132 327,-132 289,-132 289,-132 283,-132 277,-126 277,-120 277,-120 277,-102 277,-102 277,-96 283,-90 289,-90"/>
</g>
<g id="clust37" class="cluster">
<title>outer_cluster_String&#45;3</title>
</g>
<g id="clust38" class="cluster">
<title>cluster_String&#45;3</title>
<path fill="#fb8072" stroke="black" stroke-dasharray="5,2" d="M23,-90C23,-90 97,-90 97,-90 103,-90 109,-96 109,-102 109,-102 109,-120 109,-120 109,-126 103,-132 97,-132 97,-132 23,-132 23,-132 17,-132 11,-126 11,-120 11,-120 11,-102 11,-102 11,-96 17,-90 23,-90"/>
</g>
<g id="clust40" class="cluster">
<title>outer_cluster_String&#45;5</title>
</g>
<g id="clust41" class="cluster">
<title>cluster_String&#45;5</title>
<path fill="#fb8072" stroke="black" stroke-dasharray="5,2" d="M357,-90C357,-90 511,-90 511,-90 517,-90 523,-96 523,-102 523,-102 523,-120 523,-120 523,-126 517,-132 511,-132 511,-132 357,-132 357,-132 351,-132 345,-126 345,-120 345,-120 345,-102 345,-102 345,-96 351,-90 357,-90"/>
</g>
<g id="clust43" class="cluster">
<title>outer_cluster_String&#45;2</title>
</g>
<g id="clust44" class="cluster">
<title>cluster_String&#45;2</title>
<path fill="#fb8072" stroke="black" stroke-dasharray="5,2" d="M121,-11C121,-11 195,-11 195,-11 201,-11 207,-17 207,-23 207,-23 207,-41 207,-41 207,-47 201,-53 195,-53 195,-53 121,-53 121,-53 115,-53 109,-47 109,-41 109,-41 109,-23 109,-23 109,-17 115,-11 121,-11"/>
</g>
<g id="clust46" class="cluster">
<title>outer_cluster_String&#45;4</title>
</g>
<g id="clust47" class="cluster">
<title>cluster_String&#45;4</title>
<path fill="#fb8072" stroke="black" stroke-dasharray="5,2" d="M511,-11C511,-11 633,-11 633,-11 639,-11 645,-17 645,-23 645,-23 645,-41 645,-41 645,-47 639,-53 633,-53 633,-53 511,-53 511,-53 505,-53 499,-47 499,-41 499,-41 499,-23 499,-23 499,-17 505,-11 511,-11"/>
</g>
<g id="clust49" class="cluster">
<title>outer_cluster_i64&#45;0</title>
</g>
<g id="clust50" class="cluster">
<title>cluster_i64&#45;0</title>
<path fill="#80b1d3" stroke="black" stroke-dasharray="5,2" d="M217,-90C217,-90 253,-90 253,-90 259,-90 265,-96 265,-102 265,-102 265,-120 265,-120 265,-126 259,-132 253,-132 253,-132 217,-132 217,-132 211,-132 205,-126 205,-120 205,-120 205,-102 205,-102 205,-96 211,-90 217,-90"/>
</g>
<!-- function&#45;0&#45;ImmLabel&#45;&gt;primitive&#45;String&#45;2 -->
<g id="edge1" class="edge">
<title>function&#45;0&#45;ImmLabel:s&#45;&gt;primitive&#45;String&#45;2</title>
<path fill="none" stroke="black" d="M158,-95C158,-81.84 158,-67.11 158,-55.3"/>
<polygon fill="black" stroke="black" points="159.75,-58 158,-53 156.25,-58 159.75,-58"/>
</g>
<!-- function&#45;1&#45;ImmLabel&#45;&gt;primitive&#45;String&#45;3 -->
<g id="edge2" class="edge">
<title>function&#45;1&#45;ImmLabel:s&#45;&gt;primitive&#45;String&#45;3</title>
<path fill="none" stroke="black" d="M65,-174C65,-160.8 63.86,-146.06 62.67,-134.27"/>
<polygon fill="black" stroke="black" points="64.99,-136.45 62.12,-132 61.59,-137.27 64.99,-136.45"/>
</g>
<!-- function&#45;0&#45;ImmVal&#45;&gt;primitive&#45;i64&#45;0 -->
<g id="edge3" class="edge">
<title>function&#45;0&#45;ImmVal:s&#45;&gt;primitive&#45;i64&#45;0</title>
<path fill="none" stroke="black" d="M235,-174C235,-160.84 235,-146.11 235,-134.3"/>
<polygon fill="black" stroke="black" points="236.75,-137 235,-132 233.25,-137 236.75,-137"/>
</g>
<!-- function&#45;2&#45;ImmLabel&#45;&gt;primitive&#45;String&#45;4 -->
<g id="edge4" class="edge">
<title>function&#45;2&#45;ImmLabel:s&#45;&gt;primitive&#45;String&#45;4</title>
<path fill="none" stroke="black" d="M572,-95C572,-81.84 572,-67.11 572,-55.3"/>
<polygon fill="black" stroke="black" points="573.75,-58 572,-53 570.25,-58 573.75,-58"/>
</g>
<!-- function&#45;3&#45;ImmLabel&#45;&gt;primitive&#45;String&#45;5 -->
<g id="edge5" class="edge">
<title>function&#45;3&#45;ImmLabel:s&#45;&gt;primitive&#45;String&#45;5</title>
<path fill="none" stroke="black" d="M449,-174C449,-160.43 445.57,-145.65 441.98,-133.93"/>
<polygon fill="black" stroke="black" points="444.93,-134.82 440.45,-132 442.19,-137 444.93,-134.82"/>
</g>
<!-- function&#45;0&#45;Auipc&#45;&gt;function&#45;2&#45;ImmLabel -->
<g id="edge6" class="edge">
<title>function&#45;0&#45;Auipc:s&#45;&gt;function&#45;2&#45;ImmLabel</title>
<path fill="none" stroke="black" d="M556,-174C556,-160.43 559.43,-145.65 563.02,-133.93"/>
<polygon fill="black" stroke="black" points="562.81,-137 564.55,-132 560.07,-134.82 562.81,-137"/>
</g>
<!-- function&#45;0&#45;Jalr&#45;&gt;function&#45;3&#45;ImmLabel -->
<g id="edge8" class="edge">
<title>function&#45;0&#45;Jalr:s&#45;&gt;function&#45;3&#45;ImmLabel</title>
<path fill="none" stroke="black" d="M510,-253C510,-235.76 497.86,-221.63 484.32,-211.24"/>
<polygon fill="black" stroke="black" points="488.33,-210.26 483.09,-211 487.65,-213.69 488.33,-210.26"/>
</g>
<!-- function&#45;0&#45;Jalr&#45;&gt;function&#45;0&#45;Auipc -->
<g id="edge7" class="edge">
<title>function&#45;0&#45;Jalr:s&#45;&gt;function&#45;0&#45;Auipc</title>
<path fill="none" stroke="black" d="M494,-253C494,-233.66 509.27,-218.24 524.66,-207.62"/>
<polygon fill="black" stroke="black" points="524.5,-210.84 526,-205.75 521.66,-208.79 524.5,-210.84"/>
</g>
<!-- function&#45;1&#45;Addi&#45;&gt;function&#45;1&#45;ImmLabel -->
<g id="edge10" class="edge">
<title>function&#45;1&#45;Addi:s&#45;&gt;function&#45;1&#45;ImmLabel</title>
<path fill="none" stroke="black" d="M118,-253C118,-236.46 106.93,-222.18 94.82,-211.52"/>
<polygon fill="black" stroke="black" points="98.96,-211.49 93.68,-211 97.5,-214.67 98.96,-211.49"/>
</g>
<!-- function&#45;1&#45;Addi&#45;&gt;function&#45;0&#45;Lui -->
<g id="edge9" class="edge">
<title>function&#45;1&#45;Addi:s&#45;&gt;function&#45;0&#45;Lui</title>
<path fill="none" stroke="black" d="M98,-253C98,-236.85 108.36,-222.45 119.55,-211.6"/>
<polygon fill="black" stroke="black" points="117.36,-215.37 120.36,-211 115.29,-212.55 117.36,-215.37"/>
</g>
<!-- function&#45;0&#45;Lui&#45;&gt;function&#45;0&#45;ImmLabel -->
<g id="edge11" class="edge">
<title>function&#45;0&#45;Lui:s&#45;&gt;function&#45;0&#45;ImmLabel</title>
<path fill="none" stroke="black" d="M147,-174C147,-160.76 149.25,-146.14 151.61,-134.42"/>
<polygon fill="black" stroke="black" points="152.25,-137.28 152.7,-132 149.05,-135.84 152.25,-137.28"/>
</g>
<!-- function&#45;0&#45;RegVal&#45;&gt;primitive&#45;String&#45;1 -->
<g id="edge12" class="edge">
<title>function&#45;0&#45;RegVal:s&#45;&gt;primitive&#45;String&#45;1</title>
<path fill="none" stroke="black" d="M308,-174C308,-160.84 308,-146.11 308,-134.3"/>
<polygon fill="black" stroke="black" points="309.75,-137 308,-132 306.25,-137 309.75,-137"/>
</g>
<!-- function&#45;0&#45;Addi&#45;&gt;function&#45;0&#45;ImmVal -->
<g id="edge14" class="edge">
<title>function&#45;0&#45;Addi:s&#45;&gt;function&#45;0&#45;ImmVal</title>
<path fill="none" stroke="black" d="M281,-253C281,-237.1 271.13,-222.63 260.53,-211.67"/>
<polygon fill="black" stroke="black" points="264.21,-211.32 258.92,-211 262.86,-214.54 264.21,-211.32"/>
</g>
<!-- function&#45;0&#45;Addi&#45;&gt;function&#45;0&#45;RegVal -->
<g id="edge13" class="edge">
<title>function&#45;0&#45;Addi:s&#45;&gt;function&#45;0&#45;RegVal</title>
<path fill="none" stroke="black" d="M261,-253C261,-237.1 270.87,-222.63 281.47,-211.67"/>
<polygon fill="black" stroke="black" points="279.14,-214.54 283.08,-211 277.79,-211.32 279.14,-214.54"/>
</g>
<!-- function&#45;0&#45;ImmLabel -->
<g id="node1" class="node">
<title>function&#45;0&#45;ImmLabel</title>
<g id="a_node1"><a xlink:title="Imm&#45;1: function&#45;0&#45;ImmLabel">
<path fill="white" stroke="transparent" d="M128.17,-95C128.17,-95 185.83,-95 185.83,-95 191.17,-95 196.5,-100.33 196.5,-105.67 196.5,-105.67 196.5,-116.33 196.5,-116.33 196.5,-121.67 191.17,-127 185.83,-127 185.83,-127 128.17,-127 128.17,-127 122.83,-127 117.5,-121.67 117.5,-116.33 117.5,-116.33 117.5,-105.67 117.5,-105.67 117.5,-100.33 122.83,-95 128.17,-95"/>
<text text-anchor="start" x="123" y="-107.3" font-family="Helvetica,sans-Serif" font-size="14.00">ImmLabel</text>
<path fill="none" stroke="black" d="M128.17,-95C128.17,-95 185.83,-95 185.83,-95 191.17,-95 196.5,-100.33 196.5,-105.67 196.5,-105.67 196.5,-116.33 196.5,-116.33 196.5,-121.67 191.17,-127 185.83,-127 185.83,-127 128.17,-127 128.17,-127 122.83,-127 117.5,-121.67 117.5,-116.33 117.5,-116.33 117.5,-105.67 117.5,-105.67 117.5,-100.33 122.83,-95 128.17,-95"/>
</a>
</g>
</g>
<!-- primitive&#45;String&#45;2 -->
<g id="node2" class="node">
<title>primitive&#45;String&#45;2</title>
<g id="a_node2"><a xlink:title="String&#45;2: primitive&#45;String&#45;2">
<path fill="white" stroke="transparent" d="M122.67,-16C122.67,-16 193.33,-16 193.33,-16 198.67,-16 204,-21.33 204,-26.67 204,-26.67 204,-37.33 204,-37.33 204,-42.67 198.67,-48 193.33,-48 193.33,-48 122.67,-48 122.67,-48 117.33,-48 112,-42.67 112,-37.33 112,-37.33 112,-26.67 112,-26.67 112,-21.33 117.33,-16 122.67,-16"/>
<text text-anchor="start" x="117" y="-28.3" font-family="Helvetica,sans-Serif" font-size="14.00">&quot;%hi(.LC1)&quot;</text>
<path fill="none" stroke="black" d="M122.67,-16C122.67,-16 193.33,-16 193.33,-16 198.67,-16 204,-21.33 204,-26.67 204,-26.67 204,-37.33 204,-37.33 204,-42.67 198.67,-48 193.33,-48 193.33,-48 122.67,-48 122.67,-48 117.33,-48 112,-42.67 112,-37.33 112,-37.33 112,-26.67 112,-26.67 112,-21.33 117.33,-16 122.67,-16"/>
</a>
</g>
</g>
<!-- function&#45;1&#45;ImmLabel -->
<g id="node3" class="node">
<title>function&#45;1&#45;ImmLabel</title>
<g id="a_node3"><a xlink:title="Imm&#45;5: function&#45;1&#45;ImmLabel">
<path fill="white" stroke="transparent" d="M35.17,-174C35.17,-174 92.83,-174 92.83,-174 98.17,-174 103.5,-179.33 103.5,-184.67 103.5,-184.67 103.5,-195.33 103.5,-195.33 103.5,-200.67 98.17,-206 92.83,-206 92.83,-206 35.17,-206 35.17,-206 29.83,-206 24.5,-200.67 24.5,-195.33 24.5,-195.33 24.5,-184.67 24.5,-184.67 24.5,-179.33 29.83,-174 35.17,-174"/>
<text text-anchor="start" x="30" y="-186.3" font-family="Helvetica,sans-Serif" font-size="14.00">ImmLabel</text>
<path fill="none" stroke="black" d="M35.17,-174C35.17,-174 92.83,-174 92.83,-174 98.17,-174 103.5,-179.33 103.5,-184.67 103.5,-184.67 103.5,-195.33 103.5,-195.33 103.5,-200.67 98.17,-206 92.83,-206 92.83,-206 35.17,-206 35.17,-206 29.83,-206 24.5,-200.67 24.5,-195.33 24.5,-195.33 24.5,-184.67 24.5,-184.67 24.5,-179.33 29.83,-174 35.17,-174"/>
</a>
</g>
</g>
<!-- primitive&#45;String&#45;3 -->
<g id="node4" class="node">
<title>primitive&#45;String&#45;3</title>
<g id="a_node4"><a xlink:title="String&#45;3: primitive&#45;String&#45;3">
<path fill="white" stroke="transparent" d="M25.17,-95C25.17,-95 94.83,-95 94.83,-95 100.17,-95 105.5,-100.33 105.5,-105.67 105.5,-105.67 105.5,-116.33 105.5,-116.33 105.5,-121.67 100.17,-127 94.83,-127 94.83,-127 25.17,-127 25.17,-127 19.83,-127 14.5,-121.67 14.5,-116.33 14.5,-116.33 14.5,-105.67 14.5,-105.67 14.5,-100.33 19.83,-95 25.17,-95"/>
<text text-anchor="start" x="20" y="-107.3" font-family="Helvetica,sans-Serif" font-size="14.00">&quot;%lo(.LC1)&quot;</text>
<path fill="none" stroke="black" d="M25.17,-95C25.17,-95 94.83,-95 94.83,-95 100.17,-95 105.5,-100.33 105.5,-105.67 105.5,-105.67 105.5,-116.33 105.5,-116.33 105.5,-121.67 100.17,-127 94.83,-127 94.83,-127 25.17,-127 25.17,-127 19.83,-127 14.5,-121.67 14.5,-116.33 14.5,-116.33 14.5,-105.67 14.5,-105.67 14.5,-100.33 19.83,-95 25.17,-95"/>
</a>
</g>
</g>
<!-- function&#45;0&#45;ImmVal -->
<g id="node5" class="node">
<title>function&#45;0&#45;ImmVal</title>
<g id="a_node5"><a xlink:title="Imm&#45;3: function&#45;0&#45;ImmVal">
<path fill="white" stroke="transparent" d="M214.67,-174C214.67,-174 255.33,-174 255.33,-174 260.67,-174 266,-179.33 266,-184.67 266,-184.67 266,-195.33 266,-195.33 266,-200.67 260.67,-206 255.33,-206 255.33,-206 214.67,-206 214.67,-206 209.33,-206 204,-200.67 204,-195.33 204,-195.33 204,-184.67 204,-184.67 204,-179.33 209.33,-174 214.67,-174"/>
<text text-anchor="start" x="209" y="-186.3" font-family="Helvetica,sans-Serif" font-size="14.00">ImmVal</text>
<path fill="none" stroke="black" d="M214.67,-174C214.67,-174 255.33,-174 255.33,-174 260.67,-174 266,-179.33 266,-184.67 266,-184.67 266,-195.33 266,-195.33 266,-200.67 260.67,-206 255.33,-206 255.33,-206 214.67,-206 214.67,-206 209.33,-206 204,-200.67 204,-195.33 204,-195.33 204,-184.67 204,-184.67 204,-179.33 209.33,-174 214.67,-174"/>
</a>
</g>
</g>
<!-- primitive&#45;i64&#45;0 -->
<g id="node6" class="node">
<title>primitive&#45;i64&#45;0</title>
<g id="a_node6"><a xlink:title="i64&#45;0: primitive&#45;i64&#45;0">
<path fill="white" stroke="transparent" d="M229.67,-95C229.67,-95 240.33,-95 240.33,-95 245.67,-95 251,-100.33 251,-105.67 251,-105.67 251,-116.33 251,-116.33 251,-121.67 245.67,-127 240.33,-127 240.33,-127 229.67,-127 229.67,-127 224.33,-127 219,-121.67 219,-116.33 219,-116.33 219,-105.67 219,-105.67 219,-100.33 224.33,-95 229.67,-95"/>
<text text-anchor="start" x="230" y="-107.3" font-family="Helvetica,sans-Serif" font-size="14.00">0</text>
<path fill="none" stroke="black" d="M229.67,-95C229.67,-95 240.33,-95 240.33,-95 245.67,-95 251,-100.33 251,-105.67 251,-105.67 251,-116.33 251,-116.33 251,-121.67 245.67,-127 240.33,-127 240.33,-127 229.67,-127 229.67,-127 224.33,-127 219,-121.67 219,-116.33 219,-116.33 219,-105.67 219,-105.67 219,-100.33 224.33,-95 229.67,-95"/>
</a>
</g>
</g>
<!-- function&#45;2&#45;ImmLabel -->
<g id="node7" class="node">
<title>function&#45;2&#45;ImmLabel</title>
<g id="a_node7"><a xlink:title="Imm&#45;7: function&#45;2&#45;ImmLabel">
<path fill="white" stroke="transparent" d="M542.17,-95C542.17,-95 599.83,-95 599.83,-95 605.17,-95 610.5,-100.33 610.5,-105.67 610.5,-105.67 610.5,-116.33 610.5,-116.33 610.5,-121.67 605.17,-127 599.83,-127 599.83,-127 542.17,-127 542.17,-127 536.83,-127 531.5,-121.67 531.5,-116.33 531.5,-116.33 531.5,-105.67 531.5,-105.67 531.5,-100.33 536.83,-95 542.17,-95"/>
<text text-anchor="start" x="537" y="-107.3" font-family="Helvetica,sans-Serif" font-size="14.00">ImmLabel</text>
<path fill="none" stroke="black" d="M542.17,-95C542.17,-95 599.83,-95 599.83,-95 605.17,-95 610.5,-100.33 610.5,-105.67 610.5,-105.67 610.5,-116.33 610.5,-116.33 610.5,-121.67 605.17,-127 599.83,-127 599.83,-127 542.17,-127 542.17,-127 536.83,-127 531.5,-121.67 531.5,-116.33 531.5,-116.33 531.5,-105.67 531.5,-105.67 531.5,-100.33 536.83,-95 542.17,-95"/>
</a>
</g>
</g>
<!-- primitive&#45;String&#45;4 -->
<g id="node8" class="node">
<title>primitive&#45;String&#45;4</title>
<g id="a_node8"><a xlink:title="String&#45;4: primitive&#45;String&#45;4">
<path fill="white" stroke="transparent" d="M512.67,-16C512.67,-16 631.33,-16 631.33,-16 636.67,-16 642,-21.33 642,-26.67 642,-26.67 642,-37.33 642,-37.33 642,-42.67 636.67,-48 631.33,-48 631.33,-48 512.67,-48 512.67,-48 507.33,-48 502,-42.67 502,-37.33 502,-37.33 502,-26.67 502,-26.67 502,-21.33 507.33,-16 512.67,-16"/>
<text text-anchor="start" x="507" y="-28.3" font-family="Helvetica,sans-Serif" font-size="14.00">&quot;%pcrel_hi(printf)&quot;</text>
<path fill="none" stroke="black" d="M512.67,-16C512.67,-16 631.33,-16 631.33,-16 636.67,-16 642,-21.33 642,-26.67 642,-26.67 642,-37.33 642,-37.33 642,-42.67 636.67,-48 631.33,-48 631.33,-48 512.67,-48 512.67,-48 507.33,-48 502,-42.67 502,-37.33 502,-37.33 502,-26.67 502,-26.67 502,-21.33 507.33,-16 512.67,-16"/>
</a>
</g>
</g>
<!-- function&#45;3&#45;ImmLabel -->
<g id="node9" class="node">
<title>function&#45;3&#45;ImmLabel</title>
<g id="a_node9"><a xlink:title="Imm&#45;9: function&#45;3&#45;ImmLabel">
<path fill="white" stroke="transparent" d="M419.17,-174C419.17,-174 476.83,-174 476.83,-174 482.17,-174 487.5,-179.33 487.5,-184.67 487.5,-184.67 487.5,-195.33 487.5,-195.33 487.5,-200.67 482.17,-206 476.83,-206 476.83,-206 419.17,-206 419.17,-206 413.83,-206 408.5,-200.67 408.5,-195.33 408.5,-195.33 408.5,-184.67 408.5,-184.67 408.5,-179.33 413.83,-174 419.17,-174"/>
<text text-anchor="start" x="414" y="-186.3" font-family="Helvetica,sans-Serif" font-size="14.00">ImmLabel</text>
<path fill="none" stroke="black" d="M419.17,-174C419.17,-174 476.83,-174 476.83,-174 482.17,-174 487.5,-179.33 487.5,-184.67 487.5,-184.67 487.5,-195.33 487.5,-195.33 487.5,-200.67 482.17,-206 476.83,-206 476.83,-206 419.17,-206 419.17,-206 413.83,-206 408.5,-200.67 408.5,-195.33 408.5,-195.33 408.5,-184.67 408.5,-184.67 408.5,-179.33 413.83,-174 419.17,-174"/>
</a>
</g>
</g>
<!-- primitive&#45;String&#45;5 -->
<g id="node10" class="node">
<title>primitive&#45;String&#45;5</title>
<g id="a_node10"><a xlink:title="String&#45;5: primitive&#45;String&#45;5">
<path fill="white" stroke="transparent" d="M359.17,-95C359.17,-95 508.83,-95 508.83,-95 514.17,-95 519.5,-100.33 519.5,-105.67 519.5,-105.67 519.5,-116.33 519.5,-116.33 519.5,-121.67 514.17,-127 508.83,-127 508.83,-127 359.17,-127 359.17,-127 353.83,-127 348.5,-121.67 348.5,-116.33 348.5,-116.33 348.5,-105.67 348.5,-105.67 348.5,-100.33 353.83,-95 359.17,-95"/>
<text text-anchor="start" x="354" y="-107.3" font-family="Helvetica,sans-Serif" font-size="14.00">&quot;%pcrel_lo(.Lpcrel_14)&quot;</text>
<path fill="none" stroke="black" d="M359.17,-95C359.17,-95 508.83,-95 508.83,-95 514.17,-95 519.5,-100.33 519.5,-105.67 519.5,-105.67 519.5,-116.33 519.5,-116.33 519.5,-121.67 514.17,-127 508.83,-127 508.83,-127 359.17,-127 359.17,-127 353.83,-127 348.5,-121.67 348.5,-116.33 348.5,-116.33 348.5,-105.67 348.5,-105.67 348.5,-100.33 353.83,-95 359.17,-95"/>
</a>
</g>
</g>
<!-- function&#45;0&#45;Auipc -->
<g id="node11" class="node">
<title>function&#45;0&#45;Auipc</title>
<g id="a_node11"><a xlink:title="Inst&#45;8: function&#45;0&#45;Auipc">
<path fill="white" stroke="transparent" d="M541.67,-174C541.67,-174 570.33,-174 570.33,-174 575.67,-174 581,-179.33 581,-184.67 581,-184.67 581,-195.33 581,-195.33 581,-200.67 575.67,-206 570.33,-206 570.33,-206 541.67,-206 541.67,-206 536.33,-206 531,-200.67 531,-195.33 531,-195.33 531,-184.67 531,-184.67 531,-179.33 536.33,-174 541.67,-174"/>
<text text-anchor="start" x="536" y="-186.3" font-family="Helvetica,sans-Serif" font-size="14.00">Auipc</text>
<path fill="none" stroke="black" d="M541.67,-174C541.67,-174 570.33,-174 570.33,-174 575.67,-174 581,-179.33 581,-184.67 581,-184.67 581,-195.33 581,-195.33 581,-200.67 575.67,-206 570.33,-206 570.33,-206 541.67,-206 541.67,-206 536.33,-206 531,-200.67 531,-195.33 531,-195.33 531,-184.67 531,-184.67 531,-179.33 536.33,-174 541.67,-174"/>
</a>
</g>
</g>
<!-- function&#45;0&#45;Jalr -->
<g id="node12" class="node">
<title>function&#45;0&#45;Jalr</title>
<g id="a_node12"><a xlink:title="Inst&#45;10: function&#45;0&#45;Jalr">
<path fill="white" stroke="transparent" d="M496.17,-253C496.17,-253 507.83,-253 507.83,-253 513.17,-253 518.5,-258.33 518.5,-263.67 518.5,-263.67 518.5,-274.33 518.5,-274.33 518.5,-279.67 513.17,-285 507.83,-285 507.83,-285 496.17,-285 496.17,-285 490.83,-285 485.5,-279.67 485.5,-274.33 485.5,-274.33 485.5,-263.67 485.5,-263.67 485.5,-258.33 490.83,-253 496.17,-253"/>
<text text-anchor="start" x="491" y="-265.3" font-family="Helvetica,sans-Serif" font-size="14.00">Jalr</text>
<path fill="none" stroke="black" d="M496.17,-253C496.17,-253 507.83,-253 507.83,-253 513.17,-253 518.5,-258.33 518.5,-263.67 518.5,-263.67 518.5,-274.33 518.5,-274.33 518.5,-279.67 513.17,-285 507.83,-285 507.83,-285 496.17,-285 496.17,-285 490.83,-285 485.5,-279.67 485.5,-274.33 485.5,-274.33 485.5,-263.67 485.5,-263.67 485.5,-258.33 490.83,-253 496.17,-253"/>
</a>
</g>
</g>
<!-- function&#45;1&#45;Addi -->
<g id="node13" class="node">
<title>function&#45;1&#45;Addi</title>
<g id="a_node13"><a xlink:title="Inst&#45;6: function&#45;1&#45;Addi">
<path fill="white" stroke="transparent" d="M98.17,-253C98.17,-253 117.83,-253 117.83,-253 123.17,-253 128.5,-258.33 128.5,-263.67 128.5,-263.67 128.5,-274.33 128.5,-274.33 128.5,-279.67 123.17,-285 117.83,-285 117.83,-285 98.17,-285 98.17,-285 92.83,-285 87.5,-279.67 87.5,-274.33 87.5,-274.33 87.5,-263.67 87.5,-263.67 87.5,-258.33 92.83,-253 98.17,-253"/>
<text text-anchor="start" x="93" y="-265.3" font-family="Helvetica,sans-Serif" font-size="14.00">Addi</text>
<path fill="none" stroke="black" d="M98.17,-253C98.17,-253 117.83,-253 117.83,-253 123.17,-253 128.5,-258.33 128.5,-263.67 128.5,-263.67 128.5,-274.33 128.5,-274.33 128.5,-279.67 123.17,-285 117.83,-285 117.83,-285 98.17,-285 98.17,-285 92.83,-285 87.5,-279.67 87.5,-274.33 87.5,-274.33 87.5,-263.67 87.5,-263.67 87.5,-258.33 92.83,-253 98.17,-253"/>
</a>
</g>
</g>
<!-- function&#45;0&#45;Lui -->
<g id="node14" class="node">
<title>function&#45;0&#45;Lui</title>
<g id="a_node14"><a xlink:title="Inst&#45;2: function&#45;0&#45;Lui">
<path fill="white" stroke="transparent" d="M141.67,-174C141.67,-174 152.33,-174 152.33,-174 157.67,-174 163,-179.33 163,-184.67 163,-184.67 163,-195.33 163,-195.33 163,-200.67 157.67,-206 152.33,-206 152.33,-206 141.67,-206 141.67,-206 136.33,-206 131,-200.67 131,-195.33 131,-195.33 131,-184.67 131,-184.67 131,-179.33 136.33,-174 141.67,-174"/>
<text text-anchor="start" x="136.5" y="-186.3" font-family="Helvetica,sans-Serif" font-size="14.00">Lui</text>
<path fill="none" stroke="black" d="M141.67,-174C141.67,-174 152.33,-174 152.33,-174 157.67,-174 163,-179.33 163,-184.67 163,-184.67 163,-195.33 163,-195.33 163,-200.67 157.67,-206 152.33,-206 152.33,-206 141.67,-206 141.67,-206 136.33,-206 131,-200.67 131,-195.33 131,-195.33 131,-184.67 131,-184.67 131,-179.33 136.33,-174 141.67,-174"/>
</a>
</g>
</g>
<!-- function&#45;0&#45;RegVal -->
<g id="node15" class="node">
<title>function&#45;0&#45;RegVal</title>
<g id="a_node15"><a xlink:title="Inst&#45;0: function&#45;0&#45;RegVal">
<path fill="white" stroke="transparent" d="M289.17,-174C289.17,-174 324.83,-174 324.83,-174 330.17,-174 335.5,-179.33 335.5,-184.67 335.5,-184.67 335.5,-195.33 335.5,-195.33 335.5,-200.67 330.17,-206 324.83,-206 324.83,-206 289.17,-206 289.17,-206 283.83,-206 278.5,-200.67 278.5,-195.33 278.5,-195.33 278.5,-184.67 278.5,-184.67 278.5,-179.33 283.83,-174 289.17,-174"/>
<text text-anchor="start" x="284" y="-186.3" font-family="Helvetica,sans-Serif" font-size="14.00">RegVal</text>
<path fill="none" stroke="black" d="M289.17,-174C289.17,-174 324.83,-174 324.83,-174 330.17,-174 335.5,-179.33 335.5,-184.67 335.5,-184.67 335.5,-195.33 335.5,-195.33 335.5,-200.67 330.17,-206 324.83,-206 324.83,-206 289.17,-206 289.17,-206 283.83,-206 278.5,-200.67 278.5,-195.33 278.5,-195.33 278.5,-184.67 278.5,-184.67 278.5,-179.33 283.83,-174 289.17,-174"/>
</a>
</g>
</g>
<!-- primitive&#45;String&#45;1 -->
<g id="node16" class="node">
<title>primitive&#45;String&#45;1</title>
<g id="a_node16"><a xlink:title="String&#45;1: primitive&#45;String&#45;1">
<path fill="white" stroke="transparent" d="M290.67,-95C290.67,-95 325.33,-95 325.33,-95 330.67,-95 336,-100.33 336,-105.67 336,-105.67 336,-116.33 336,-116.33 336,-121.67 330.67,-127 325.33,-127 325.33,-127 290.67,-127 290.67,-127 285.33,-127 280,-121.67 280,-116.33 280,-116.33 280,-105.67 280,-105.67 280,-100.33 285.33,-95 290.67,-95"/>
<text text-anchor="start" x="285" y="-107.3" font-family="Helvetica,sans-Serif" font-size="14.00">&quot;s4_0&quot;</text>
<path fill="none" stroke="black" d="M290.67,-95C290.67,-95 325.33,-95 325.33,-95 330.67,-95 336,-100.33 336,-105.67 336,-105.67 336,-116.33 336,-116.33 336,-121.67 330.67,-127 325.33,-127 325.33,-127 290.67,-127 290.67,-127 285.33,-127 280,-121.67 280,-116.33 280,-116.33 280,-105.67 280,-105.67 280,-100.33 285.33,-95 290.67,-95"/>
</a>
</g>
</g>
<!-- function&#45;0&#45;Addi -->
<g id="node17" class="node">
<title>function&#45;0&#45;Addi</title>
<g id="a_node17"><a xlink:title="Inst&#45;4: function&#45;0&#45;Addi">
<path fill="white" stroke="transparent" d="M261.17,-253C261.17,-253 280.83,-253 280.83,-253 286.17,-253 291.5,-258.33 291.5,-263.67 291.5,-263.67 291.5,-274.33 291.5,-274.33 291.5,-279.67 286.17,-285 280.83,-285 280.83,-285 261.17,-285 261.17,-285 255.83,-285 250.5,-279.67 250.5,-274.33 250.5,-274.33 250.5,-263.67 250.5,-263.67 250.5,-258.33 255.83,-253 261.17,-253"/>
<text text-anchor="start" x="256" y="-265.3" font-family="Helvetica,sans-Serif" font-size="14.00">Addi</text>
<path fill="none" stroke="black" d="M261.17,-253C261.17,-253 280.83,-253 280.83,-253 286.17,-253 291.5,-258.33 291.5,-263.67 291.5,-263.67 291.5,-274.33 291.5,-274.33 291.5,-279.67 286.17,-285 280.83,-285 280.83,-285 261.17,-285 261.17,-285 255.83,-285 250.5,-279.67 250.5,-274.33 250.5,-274.33 250.5,-263.67 250.5,-263.67 250.5,-258.33 255.83,-253 261.17,-253"/>
</a>
</g>
</g>
</g>
</svg>
