<?xml version="1.0" encoding="UTF-8" standalone="no"?>
<!DOCTYPE svg PUBLIC "-//W3C//DTD SVG 1.1//EN"
 "http://www.w3.org/Graphics/SVG/1.1/DTD/svg11.dtd">
<!-- Generated by graphviz version 2.43.0 (0)
 -->
<!-- Title: %3 Pages: 1 -->
<svg width="632pt" height="309pt"
 viewBox="0.00 0.00 632.00 309.00" xmlns="http://www.w3.org/2000/svg" xmlns:xlink="http://www.w3.org/1999/xlink">
<g id="graph0" class="graph" transform="scale(1 1) rotate(0) translate(4 305)">
<title>%3</title>
<polygon fill="white" stroke="#000000" points="-4,4 -4,-305 628,-305 628,4 -4,4"/>
<g id="clust1" class="cluster">
<title>outer_cluster_Imm&#45;1</title>
</g>
<g id="clust2" class="cluster">
<title>cluster_Imm&#45;1</title>
<path fill="#ffffb3" stroke="black" stroke-dasharray="5,2" d="M127,-90C127,-90 187,-90 187,-90 193,-90 199,-96 199,-102 199,-102 199,-120 199,-120 199,-126 193,-132 187,-132 187,-132 127,-132 127,-132 121,-132 115,-126 115,-120 115,-120 115,-102 115,-102 115,-96 121,-90 127,-90"/>
</g>
<g id="clust4" class="cluster">
<title>outer_cluster_Imm&#45;5</title>
</g>
<g id="clust5" class="cluster">
<title>cluster_Imm&#45;5</title>
<path fill="#ffffb3" stroke="black" stroke-dasharray="5,2" d="M34,-169C34,-169 94,-169 94,-169 100,-169 106,-175 106,-181 106,-181 106,-199 106,-199 106,-205 100,-211 94,-211 94,-211 34,-211 34,-211 28,-211 22,-205 22,-199 22,-199 22,-181 22,-181 22,-175 28,-169 34,-169"/>
</g>
<g id="clust7" class="cluster">
<title>outer_cluster_Imm&#45;9</title>
</g>
<g id="clust8" class="cluster">
<title>cluster_Imm&#45;9</title>
<path fill="#ffffb3" stroke="black" stroke-dasharray="5,2" d="M278,-169C278,-169 338,-169 338,-169 344,-169 350,-175 350,-181 350,-181 350,-199 350,-199 350,-205 344,-211 338,-211 338,-211 278,-211 278,-211 272,-211 266,-205 266,-199 266,-199 266,-181 266,-181 266,-175 272,-169 278,-169"/>
</g>
<g id="clust10" class="cluster">
<title>outer_cluster_Imm&#45;3</title>
</g>
<g id="clust11" class="cluster">
<title>cluster_Imm&#45;3</title>
<path fill="#ffffb3" stroke="black" stroke-dasharray="5,2" d="M487,-169C487,-169 531,-169 531,-169 537,-169 543,-175 543,-181 543,-181 543,-199 543,-199 543,-205 537,-211 531,-211 531,-211 487,-211 487,-211 481,-211 475,-205 475,-199 475,-199 475,-181 475,-181 475,-175 481,-169 487,-169"/>
</g>
<g id="clust13" class="cluster">
<title>outer_cluster_Imm&#45;7</title>
</g>
<g id="clust14" class="cluster">
<title>cluster_Imm&#45;7</title>
<path fill="#ffffb3" stroke="black" stroke-dasharray="5,2" d="M401,-90C401,-90 461,-90 461,-90 467,-90 473,-96 473,-102 473,-102 473,-120 473,-120 473,-126 467,-132 461,-132 461,-132 401,-132 401,-132 395,-132 389,-126 389,-120 389,-120 389,-102 389,-102 389,-96 395,-90 401,-90"/>
</g>
<g id="clust16" class="cluster">
<title>outer_cluster_Inst&#45;2</title>
</g>
<g id="clust17" class="cluster">
<title>cluster_Inst&#45;2</title>
<path fill="#bebada" stroke="black" stroke-dasharray="5,2" d="M129,-169C129,-169 165,-169 165,-169 171,-169 177,-175 177,-181 177,-181 177,-199 177,-199 177,-205 171,-211 165,-211 165,-211 129,-211 129,-211 123,-211 117,-205 117,-199 117,-199 117,-181 117,-181 117,-175 123,-169 129,-169"/>
</g>
<g id="clust19" class="cluster">
<title>outer_cluster_Inst&#45;4</title>
</g>
<g id="clust20" class="cluster">
<title>cluster_Inst&#45;4</title>
<path fill="#bebada" stroke="black" stroke-dasharray="5,2" d="M523,-248C523,-248 559,-248 559,-248 565,-248 571,-254 571,-260 571,-260 571,-278 571,-278 571,-284 565,-290 559,-290 559,-290 523,-290 523,-290 517,-290 511,-284 511,-278 511,-278 511,-260 511,-260 511,-254 517,-248 523,-248"/>
</g>
<g id="clust22" class="cluster">
<title>outer_cluster_Inst&#45;6</title>
</g>
<g id="clust23" class="cluster">
<title>cluster_Inst&#45;6</title>
<path fill="#bebada" stroke="black" stroke-dasharray="5,2" d="M90,-248C90,-248 126,-248 126,-248 132,-248 138,-254 138,-260 138,-260 138,-278 138,-278 138,-284 132,-290 126,-290 126,-290 90,-290 90,-290 84,-290 78,-284 78,-278 78,-278 78,-260 78,-260 78,-254 84,-248 90,-248"/>
</g>
<g id="clust25" class="cluster">
<title>outer_cluster_Inst&#45;0</title>
</g>
<g id="clust26" class="cluster">
<title>cluster_Inst&#45;0</title>
<path fill="#bebada" stroke="black" stroke-dasharray="5,2" d="M561,-169C561,-169 601,-169 601,-169 607,-169 613,-175 613,-181 613,-181 613,-199 613,-199 613,-205 607,-211 601,-211 601,-211 561,-211 561,-211 555,-211 549,-205 549,-199 549,-199 549,-181 549,-181 549,-175 555,-169 561,-169"/>
</g>
<g id="clust28" class="cluster">
<title>outer_cluster_Inst&#45;8</title>
</g>
<g id="clust29" class="cluster">
<title>cluster_Inst&#45;8</title>
<path fill="#bebada" stroke="black" stroke-dasharray="5,2" d="M383,-169C383,-169 419,-169 419,-169 425,-169 431,-175 431,-181 431,-181 431,-199 431,-199 431,-205 425,-211 419,-211 419,-211 383,-211 383,-211 377,-211 371,-205 371,-199 371,-199 371,-181 371,-181 371,-175 377,-169 383,-169"/>
</g>
<g id="clust31" class="cluster">
<title>outer_cluster_Inst&#45;10</title>
</g>
<g id="clust32" class="cluster">
<title>cluster_Inst&#45;10</title>
<path fill="#bebada" stroke="black" stroke-dasharray="5,2" d="M344,-248C344,-248 380,-248 380,-248 386,-248 392,-254 392,-260 392,-260 392,-278 392,-278 392,-284 386,-290 380,-290 380,-290 344,-290 344,-290 338,-290 332,-284 332,-278 332,-278 332,-260 332,-260 332,-254 338,-248 344,-248"/>
</g>
<g id="clust34" class="cluster">
<title>outer_cluster_String&#45;3</title>
</g>
<g id="clust35" class="cluster">
<title>cluster_String&#45;3</title>
<path fill="#fb8072" stroke="black" stroke-dasharray="5,2" d="M23,-90C23,-90 97,-90 97,-90 103,-90 109,-96 109,-102 109,-102 109,-120 109,-120 109,-126 103,-132 97,-132 97,-132 23,-132 23,-132 17,-132 11,-126 11,-120 11,-120 11,-102 11,-102 11,-96 17,-90 23,-90"/>
</g>
<g id="clust37" class="cluster">
<title>outer_cluster_String&#45;5</title>
</g>
<g id="clust38" class="cluster">
<title>cluster_String&#45;5</title>
<path fill="#fb8072" stroke="black" stroke-dasharray="5,2" d="M217,-90C217,-90 371,-90 371,-90 377,-90 383,-96 383,-102 383,-102 383,-120 383,-120 383,-126 377,-132 371,-132 371,-132 217,-132 217,-132 211,-132 205,-126 205,-120 205,-120 205,-102 205,-102 205,-96 211,-90 217,-90"/>
</g>
<g id="clust40" class="cluster">
<title>outer_cluster_String&#45;4</title>
</g>
<g id="clust41" class="cluster">
<title>cluster_String&#45;4</title>
<path fill="#fb8072" stroke="black" stroke-dasharray="5,2" d="M371,-11C371,-11 493,-11 493,-11 499,-11 505,-17 505,-23 505,-23 505,-41 505,-41 505,-47 499,-53 493,-53 493,-53 371,-53 371,-53 365,-53 359,-47 359,-41 359,-41 359,-23 359,-23 359,-17 365,-11 371,-11"/>
</g>
<g id="clust43" class="cluster">
<title>outer_cluster_String&#45;2</title>
</g>
<g id="clust44" class="cluster">
<title>cluster_String&#45;2</title>
<path fill="#fb8072" stroke="black" stroke-dasharray="5,2" d="M121,-11C121,-11 195,-11 195,-11 201,-11 207,-17 207,-23 207,-23 207,-41 207,-41 207,-47 201,-53 195,-53 195,-53 121,-53 121,-53 115,-53 109,-47 109,-41 109,-41 109,-23 109,-23 109,-17 115,-11 121,-11"/>
</g>
<g id="clust46" class="cluster">
<title>outer_cluster_String&#45;1</title>
</g>
<g id="clust47" class="cluster">
<title>cluster_String&#45;1</title>
<path fill="#fb8072" stroke="black" stroke-dasharray="5,2" d="M563,-90C563,-90 601,-90 601,-90 607,-90 613,-96 613,-102 613,-102 613,-120 613,-120 613,-126 607,-132 601,-132 601,-132 563,-132 563,-132 557,-132 551,-126 551,-120 551,-120 551,-102 551,-102 551,-96 557,-90 563,-90"/>
</g>
<g id="clust49" class="cluster">
<title>outer_cluster_i64&#45;0</title>
</g>
<g id="clust50" class="cluster">
<title>cluster_i64&#45;0</title>
<path fill="#80b1d3" stroke="black" stroke-dasharray="5,2" d="M491,-90C491,-90 527,-90 527,-90 533,-90 539,-96 539,-102 539,-102 539,-120 539,-120 539,-126 533,-132 527,-132 527,-132 491,-132 491,-132 485,-132 479,-126 479,-120 479,-120 479,-102 479,-102 479,-96 485,-90 491,-90"/>
</g>
<!-- function&#45;0&#45;ImmLabel&#45;&gt;primitive&#45;String&#45;2 -->
<g id="edge1" class="edge">
<title>function&#45;0&#45;ImmLabel:s&#45;&gt;primitive&#45;String&#45;2</title>
<path fill="none" stroke="black" d="M158,-95C158,-81.84 158,-67.11 158,-55.3"/>
<polygon fill="black" stroke="black" points="159.75,-58 158,-53 156.25,-58 159.75,-58"/>
</g>
<!-- function&#45;1&#45;ImmLabel&#45;&gt;primitive&#45;String&#45;3 -->
<g id="edge2" class="edge">
<title>function&#45;1&#45;ImmLabel:s&#45;&gt;primitive&#45;String&#45;3</title>
<path fill="none" stroke="black" d="M65,-174C65,-160.8 63.86,-146.06 62.67,-134.27"/>
<polygon fill="black" stroke="black" points="64.99,-136.45 62.12,-132 61.59,-137.27 64.99,-136.45"/>
</g>
<!-- function&#45;3&#45;ImmLabel&#45;&gt;primitive&#45;String&#45;5 -->
<g id="edge3" class="edge">
<title>function&#45;3&#45;ImmLabel:s&#45;&gt;primitive&#45;String&#45;5</title>
<path fill="none" stroke="black" d="M309,-174C309,-160.43 305.57,-145.65 301.98,-133.93"/>
<polygon fill="black" stroke="black" points="304.93,-134.82 300.45,-132 302.19,-137 304.93,-134.82"/>
</g>
<!-- function&#45;0&#45;ImmVal&#45;&gt;primitive&#45;i64&#45;0 -->
<g id="edge4" class="edge">
<title>function&#45;0&#45;ImmVal:s&#45;&gt;primitive&#45;i64&#45;0</title>
<path fill="none" stroke="black" d="M509,-174C509,-160.84 509,-146.11 509,-134.3"/>
<polygon fill="black" stroke="black" points="510.75,-137 509,-132 507.25,-137 510.75,-137"/>
</g>
<!-- function&#45;2&#45;ImmLabel&#45;&gt;primitive&#45;String&#45;4 -->
<g id="edge5" class="edge">
<title>function&#45;2&#45;ImmLabel:s&#45;&gt;primitive&#45;String&#45;4</title>
<path fill="none" stroke="black" d="M432,-95C432,-81.84 432,-67.11 432,-55.3"/>
<polygon fill="black" stroke="black" points="433.75,-58 432,-53 430.25,-58 433.75,-58"/>
</g>
<!-- function&#45;0&#45;Lui&#45;&gt;function&#45;0&#45;ImmLabel -->
<g id="edge6" class="edge">
<title>function&#45;0&#45;Lui:s&#45;&gt;function&#45;0&#45;ImmLabel</title>
<path fill="none" stroke="black" d="M147,-174C147,-160.76 149.25,-146.14 151.61,-134.42"/>
<polygon fill="black" stroke="black" points="152.25,-137.28 152.7,-132 149.05,-135.84 152.25,-137.28"/>
</g>
<!-- function&#45;0&#45;Addi&#45;&gt;function&#45;0&#45;ImmVal -->
<g id="edge8" class="edge">
<title>function&#45;0&#45;Addi:s&#45;&gt;function&#45;0&#45;ImmVal</title>
<path fill="none" stroke="black" d="M551,-253C551,-237.6 542.01,-223.18 532.35,-212.12"/>
<polygon fill="black" stroke="black" points="535.86,-212.48 530.77,-211 533.82,-215.33 535.86,-212.48"/>
</g>
<!-- function&#45;0&#45;Addi&#45;&gt;function&#45;0&#45;RegVal -->
<g id="edge7" class="edge">
<title>function&#45;0&#45;Addi:s&#45;&gt;function&#45;0&#45;RegVal</title>
<path fill="none" stroke="black" d="M531,-253C531,-236.85 541.41,-222.53 552.73,-211.73"/>
<polygon fill="black" stroke="black" points="550.92,-215.58 553.59,-211 548.65,-212.91 550.92,-215.58"/>
</g>
<!-- function&#45;0&#45;RegVal&#45;&gt;primitive&#45;String&#45;1 -->
<g id="edge11" class="edge">
<title>function&#45;0&#45;RegVal:s&#45;&gt;primitive&#45;String&#45;1</title>
<path fill="none" stroke="black" d="M582,-174C582,-160.84 582,-146.11 582,-134.3"/>
<polygon fill="black" stroke="black" points="583.75,-137 582,-132 580.25,-137 583.75,-137"/>
</g>
<!-- function&#45;1&#45;Addi&#45;&gt;function&#45;1&#45;ImmLabel -->
<g id="edge10" class="edge">
<title>function&#45;1&#45;Addi:s&#45;&gt;function&#45;1&#45;ImmLabel</title>
<path fill="none" stroke="black" d="M118,-253C118,-236.46 106.93,-222.18 94.82,-211.52"/>
<polygon fill="black" stroke="black" points="98.96,-211.49 93.68,-211 97.5,-214.67 98.96,-211.49"/>
</g>
<!-- function&#45;1&#45;Addi&#45;&gt;function&#45;0&#45;Lui -->
<g id="edge9" class="edge">
<title>function&#45;1&#45;Addi:s&#45;&gt;function&#45;0&#45;Lui</title>
<path fill="none" stroke="black" d="M98,-253C98,-236.85 108.36,-222.45 119.55,-211.6"/>
<polygon fill="black" stroke="black" points="117.36,-215.37 120.36,-211 115.29,-212.55 117.36,-215.37"/>
</g>
<!-- function&#45;0&#45;Auipc&#45;&gt;function&#45;2&#45;ImmLabel -->
<g id="edge12" class="edge">
<title>function&#45;0&#45;Auipc:s&#45;&gt;function&#45;2&#45;ImmLabel</title>
<path fill="none" stroke="black" d="M401,-174C401,-159.54 407.7,-144.9 414.76,-133.48"/>
<polygon fill="black" stroke="black" points="413.81,-136.52 416.58,-132 411.6,-133.81 413.81,-136.52"/>
</g>
<!-- function&#45;0&#45;Jalr&#45;&gt;function&#45;3&#45;ImmLabel -->
<g id="edge14" class="edge">
<title>function&#45;0&#45;Jalr:s&#45;&gt;function&#45;3&#45;ImmLabel</title>
<path fill="none" stroke="black" d="M370,-253C370,-235.76 357.86,-221.63 344.32,-211.24"/>
<polygon fill="black" stroke="black" points="348.33,-210.26 343.09,-211 347.65,-213.69 348.33,-210.26"/>
</g>
<!-- function&#45;0&#45;Jalr&#45;&gt;function&#45;0&#45;Auipc -->
<g id="edge13" class="edge">
<title>function&#45;0&#45;Jalr:s&#45;&gt;function&#45;0&#45;Auipc</title>
<path fill="none" stroke="black" d="M354,-253C354,-237.1 363.93,-222.72 374.67,-211.82"/>
<polygon fill="black" stroke="black" points="372.61,-214.78 376.33,-211 371.07,-211.64 372.61,-214.78"/>
</g>
<!-- function&#45;0&#45;ImmLabel -->
<g id="node1" class="node">
<title>function&#45;0&#45;ImmLabel</title>
<g id="a_node1"><a xlink:title="Imm&#45;1: function&#45;0&#45;ImmLabel">
<path fill="white" stroke="transparent" d="M128.17,-95C128.17,-95 185.83,-95 185.83,-95 191.17,-95 196.5,-100.33 196.5,-105.67 196.5,-105.67 196.5,-116.33 196.5,-116.33 196.5,-121.67 191.17,-127 185.83,-127 185.83,-127 128.17,-127 128.17,-127 122.83,-127 117.5,-121.67 117.5,-116.33 117.5,-116.33 117.5,-105.67 117.5,-105.67 117.5,-100.33 122.83,-95 128.17,-95"/>
<text text-anchor="start" x="123" y="-107.3" font-family="Helvetica,sans-Serif" font-size="14.00">ImmLabel</text>
<path fill="none" stroke="black" d="M128.17,-95C128.17,-95 185.83,-95 185.83,-95 191.17,-95 196.5,-100.33 196.5,-105.67 196.5,-105.67 196.5,-116.33 196.5,-116.33 196.5,-121.67 191.17,-127 185.83,-127 185.83,-127 128.17,-127 128.17,-127 122.83,-127 117.5,-121.67 117.5,-116.33 117.5,-116.33 117.5,-105.67 117.5,-105.67 117.5,-100.33 122.83,-95 128.17,-95"/>
</a>
</g>
</g>
<!-- primitive&#45;String&#45;2 -->
<g id="node2" class="node">
<title>primitive&#45;String&#45;2</title>
<g id="a_node2"><a xlink:title="String&#45;2: primitive&#45;String&#45;2">
<path fill="white" stroke="transparent" d="M122.67,-16C122.67,-16 193.33,-16 193.33,-16 198.67,-16 204,-21.33 204,-26.67 204,-26.67 204,-37.33 204,-37.33 204,-42.67 198.67,-48 193.33,-48 193.33,-48 122.67,-48 122.67,-48 117.33,-48 112,-42.67 112,-37.33 112,-37.33 112,-26.67 112,-26.67 112,-21.33 117.33,-16 122.67,-16"/>
<text text-anchor="start" x="117" y="-28.3" font-family="Helvetica,sans-Serif" font-size="14.00">&quot;%hi(.LC1)&quot;</text>
<path fill="none" stroke="black" d="M122.67,-16C122.67,-16 193.33,-16 193.33,-16 198.67,-16 204,-21.33 204,-26.67 204,-26.67 204,-37.33 204,-37.33 204,-42.67 198.67,-48 193.33,-48 193.33,-48 122.67,-48 122.67,-48 117.33,-48 112,-42.67 112,-37.33 112,-37.33 112,-26.67 112,-26.67 112,-21.33 117.33,-16 122.67,-16"/>
</a>
</g>
</g>
<!-- function&#45;1&#45;ImmLabel -->
<g id="node3" class="node">
<title>function&#45;1&#45;ImmLabel</title>
<g id="a_node3"><a xlink:title="Imm&#45;5: function&#45;1&#45;ImmLabel">
<path fill="white" stroke="transparent" d="M35.17,-174C35.17,-174 92.83,-174 92.83,-174 98.17,-174 103.5,-179.33 103.5,-184.67 103.5,-184.67 103.5,-195.33 103.5,-195.33 103.5,-200.67 98.17,-206 92.83,-206 92.83,-206 35.17,-206 35.17,-206 29.83,-206 24.5,-200.67 24.5,-195.33 24.5,-195.33 24.5,-184.67 24.5,-184.67 24.5,-179.33 29.83,-174 35.17,-174"/>
<text text-anchor="start" x="30" y="-186.3" font-family="Helvetica,sans-Serif" font-size="14.00">ImmLabel</text>
<path fill="none" stroke="black" d="M35.17,-174C35.17,-174 92.83,-174 92.83,-174 98.17,-174 103.5,-179.33 103.5,-184.67 103.5,-184.67 103.5,-195.33 103.5,-195.33 103.5,-200.67 98.17,-206 92.83,-206 92.83,-206 35.17,-206 35.17,-206 29.83,-206 24.5,-200.67 24.5,-195.33 24.5,-195.33 24.5,-184.67 24.5,-184.67 24.5,-179.33 29.83,-174 35.17,-174"/>
</a>
</g>
</g>
<!-- primitive&#45;String&#45;3 -->
<g id="node4" class="node">
<title>primitive&#45;String&#45;3</title>
<g id="a_node4"><a xlink:title="String&#45;3: primitive&#45;String&#45;3">
<path fill="white" stroke="transparent" d="M25.17,-95C25.17,-95 94.83,-95 94.83,-95 100.17,-95 105.5,-100.33 105.5,-105.67 105.5,-105.67 105.5,-116.33 105.5,-116.33 105.5,-121.67 100.17,-127 94.83,-127 94.83,-127 25.17,-127 25.17,-127 19.83,-127 14.5,-121.67 14.5,-116.33 14.5,-116.33 14.5,-105.67 14.5,-105.67 14.5,-100.33 19.83,-95 25.17,-95"/>
<text text-anchor="start" x="20" y="-107.3" font-family="Helvetica,sans-Serif" font-size="14.00">&quot;%lo(.LC1)&quot;</text>
<path fill="none" stroke="black" d="M25.17,-95C25.17,-95 94.83,-95 94.83,-95 100.17,-95 105.5,-100.33 105.5,-105.67 105.5,-105.67 105.5,-116.33 105.5,-116.33 105.5,-121.67 100.17,-127 94.83,-127 94.83,-127 25.17,-127 25.17,-127 19.83,-127 14.5,-121.67 14.5,-116.33 14.5,-116.33 14.5,-105.67 14.5,-105.67 14.5,-100.33 19.83,-95 25.17,-95"/>
</a>
</g>
</g>
<!-- function&#45;3&#45;ImmLabel -->
<g id="node5" class="node">
<title>function&#45;3&#45;ImmLabel</title>
<g id="a_node5"><a xlink:title="Imm&#45;9: function&#45;3&#45;ImmLabel">
<path fill="white" stroke="transparent" d="M279.17,-174C279.17,-174 336.83,-174 336.83,-174 342.17,-174 347.5,-179.33 347.5,-184.67 347.5,-184.67 347.5,-195.33 347.5,-195.33 347.5,-200.67 342.17,-206 336.83,-206 336.83,-206 279.17,-206 279.17,-206 273.83,-206 268.5,-200.67 268.5,-195.33 268.5,-195.33 268.5,-184.67 268.5,-184.67 268.5,-179.33 273.83,-174 279.17,-174"/>
<text text-anchor="start" x="274" y="-186.3" font-family="Helvetica,sans-Serif" font-size="14.00">ImmLabel</text>
<path fill="none" stroke="black" d="M279.17,-174C279.17,-174 336.83,-174 336.83,-174 342.17,-174 347.5,-179.33 347.5,-184.67 347.5,-184.67 347.5,-195.33 347.5,-195.33 347.5,-200.67 342.17,-206 336.83,-206 336.83,-206 279.17,-206 279.17,-206 273.83,-206 268.5,-200.67 268.5,-195.33 268.5,-195.33 268.5,-184.67 268.5,-184.67 268.5,-179.33 273.83,-174 279.17,-174"/>
</a>
</g>
</g>
<!-- primitive&#45;String&#45;5 -->
<g id="node6" class="node">
<title>primitive&#45;String&#45;5</title>
<g id="a_node6"><a xlink:title="String&#45;5: primitive&#45;String&#45;5">
<path fill="white" stroke="transparent" d="M219.17,-95C219.17,-95 368.83,-95 368.83,-95 374.17,-95 379.5,-100.33 379.5,-105.67 379.5,-105.67 379.5,-116.33 379.5,-116.33 379.5,-121.67 374.17,-127 368.83,-127 368.83,-127 219.17,-127 219.17,-127 213.83,-127 208.5,-121.67 208.5,-116.33 208.5,-116.33 208.5,-105.67 208.5,-105.67 208.5,-100.33 213.83,-95 219.17,-95"/>
<text text-anchor="start" x="214" y="-107.3" font-family="Helvetica,sans-Serif" font-size="14.00">&quot;%pcrel_lo(.Lpcrel_14)&quot;</text>
<path fill="none" stroke="black" d="M219.17,-95C219.17,-95 368.83,-95 368.83,-95 374.17,-95 379.5,-100.33 379.5,-105.67 379.5,-105.67 379.5,-116.33 379.5,-116.33 379.5,-121.67 374.17,-127 368.83,-127 368.83,-127 219.17,-127 219.17,-127 213.83,-127 208.5,-121.67 208.5,-116.33 208.5,-116.33 208.5,-105.67 208.5,-105.67 208.5,-100.33 213.83,-95 219.17,-95"/>
</a>
</g>
</g>
<!-- function&#45;0&#45;ImmVal -->
<g id="node7" class="node">
<title>function&#45;0&#45;ImmVal</title>
<g id="a_node7"><a xlink:title="Imm&#45;3: function&#45;0&#45;ImmVal">
<path fill="white" stroke="transparent" d="M488.67,-174C488.67,-174 529.33,-174 529.33,-174 534.67,-174 540,-179.33 540,-184.67 540,-184.67 540,-195.33 540,-195.33 540,-200.67 534.67,-206 529.33,-206 529.33,-206 488.67,-206 488.67,-206 483.33,-206 478,-200.67 478,-195.33 478,-195.33 478,-184.67 478,-184.67 478,-179.33 483.33,-174 488.67,-174"/>
<text text-anchor="start" x="483" y="-186.3" font-family="Helvetica,sans-Serif" font-size="14.00">ImmVal</text>
<path fill="none" stroke="black" d="M488.67,-174C488.67,-174 529.33,-174 529.33,-174 534.67,-174 540,-179.33 540,-184.67 540,-184.67 540,-195.33 540,-195.33 540,-200.67 534.67,-206 529.33,-206 529.33,-206 488.67,-206 488.67,-206 483.33,-206 478,-200.67 478,-195.33 478,-195.33 478,-184.67 478,-184.67 478,-179.33 483.33,-174 488.67,-174"/>
</a>
</g>
</g>
<!-- primitive&#45;i64&#45;0 -->
<g id="node8" class="node">
<title>primitive&#45;i64&#45;0</title>
<g id="a_node8"><a xlink:title="i64&#45;0: primitive&#45;i64&#45;0">
<path fill="white" stroke="transparent" d="M503.67,-95C503.67,-95 514.33,-95 514.33,-95 519.67,-95 525,-100.33 525,-105.67 525,-105.67 525,-116.33 525,-116.33 525,-121.67 519.67,-127 514.33,-127 514.33,-127 503.67,-127 503.67,-127 498.33,-127 493,-121.67 493,-116.33 493,-116.33 493,-105.67 493,-105.67 493,-100.33 498.33,-95 503.67,-95"/>
<text text-anchor="start" x="504" y="-107.3" font-family="Helvetica,sans-Serif" font-size="14.00">0</text>
<path fill="none" stroke="black" d="M503.67,-95C503.67,-95 514.33,-95 514.33,-95 519.67,-95 525,-100.33 525,-105.67 525,-105.67 525,-116.33 525,-116.33 525,-121.67 519.67,-127 514.33,-127 514.33,-127 503.67,-127 503.67,-127 498.33,-127 493,-121.67 493,-116.33 493,-116.33 493,-105.67 493,-105.67 493,-100.33 498.33,-95 503.67,-95"/>
</a>
</g>
</g>
<!-- function&#45;2&#45;ImmLabel -->
<g id="node9" class="node">
<title>function&#45;2&#45;ImmLabel</title>
<g id="a_node9"><a xlink:title="Imm&#45;7: function&#45;2&#45;ImmLabel">
<path fill="white" stroke="transparent" d="M402.17,-95C402.17,-95 459.83,-95 459.83,-95 465.17,-95 470.5,-100.33 470.5,-105.67 470.5,-105.67 470.5,-116.33 470.5,-116.33 470.5,-121.67 465.17,-127 459.83,-127 459.83,-127 402.17,-127 402.17,-127 396.83,-127 391.5,-121.67 391.5,-116.33 391.5,-116.33 391.5,-105.67 391.5,-105.67 391.5,-100.33 396.83,-95 402.17,-95"/>
<text text-anchor="start" x="397" y="-107.3" font-family="Helvetica,sans-Serif" font-size="14.00">ImmLabel</text>
<path fill="none" stroke="black" d="M402.17,-95C402.17,-95 459.83,-95 459.83,-95 465.17,-95 470.5,-100.33 470.5,-105.67 470.5,-105.67 470.5,-116.33 470.5,-116.33 470.5,-121.67 465.17,-127 459.83,-127 459.83,-127 402.17,-127 402.17,-127 396.83,-127 391.5,-121.67 391.5,-116.33 391.5,-116.33 391.5,-105.67 391.5,-105.67 391.5,-100.33 396.83,-95 402.17,-95"/>
</a>
</g>
</g>
<!-- primitive&#45;String&#45;4 -->
<g id="node10" class="node">
<title>primitive&#45;String&#45;4</title>
<g id="a_node10"><a xlink:title="String&#45;4: primitive&#45;String&#45;4">
<path fill="white" stroke="transparent" d="M372.67,-16C372.67,-16 491.33,-16 491.33,-16 496.67,-16 502,-21.33 502,-26.67 502,-26.67 502,-37.33 502,-37.33 502,-42.67 496.67,-48 491.33,-48 491.33,-48 372.67,-48 372.67,-48 367.33,-48 362,-42.67 362,-37.33 362,-37.33 362,-26.67 362,-26.67 362,-21.33 367.33,-16 372.67,-16"/>
<text text-anchor="start" x="367" y="-28.3" font-family="Helvetica,sans-Serif" font-size="14.00">&quot;%pcrel_hi(printf)&quot;</text>
<path fill="none" stroke="black" d="M372.67,-16C372.67,-16 491.33,-16 491.33,-16 496.67,-16 502,-21.33 502,-26.67 502,-26.67 502,-37.33 502,-37.33 502,-42.67 496.67,-48 491.33,-48 491.33,-48 372.67,-48 372.67,-48 367.33,-48 362,-42.67 362,-37.33 362,-37.33 362,-26.67 362,-26.67 362,-21.33 367.33,-16 372.67,-16"/>
</a>
</g>
</g>
<!-- function&#45;0&#45;Lui -->
<g id="node11" class="node">
<title>function&#45;0&#45;Lui</title>
<g id="a_node11"><a xlink:title="Inst&#45;2: function&#45;0&#45;Lui">
<path fill="white" stroke="transparent" d="M141.67,-174C141.67,-174 152.33,-174 152.33,-174 157.67,-174 163,-179.33 163,-184.67 163,-184.67 163,-195.33 163,-195.33 163,-200.67 157.67,-206 152.33,-206 152.33,-206 141.67,-206 141.67,-206 136.33,-206 131,-200.67 131,-195.33 131,-195.33 131,-184.67 131,-184.67 131,-179.33 136.33,-174 141.67,-174"/>
<text text-anchor="start" x="136.5" y="-186.3" font-family="Helvetica,sans-Serif" font-size="14.00">Lui</text>
<path fill="none" stroke="black" d="M141.67,-174C141.67,-174 152.33,-174 152.33,-174 157.67,-174 163,-179.33 163,-184.67 163,-184.67 163,-195.33 163,-195.33 163,-200.67 157.67,-206 152.33,-206 152.33,-206 141.67,-206 141.67,-206 136.33,-206 131,-200.67 131,-195.33 131,-195.33 131,-184.67 131,-184.67 131,-179.33 136.33,-174 141.67,-174"/>
</a>
</g>
</g>
<!-- function&#45;0&#45;Addi -->
<g id="node12" class="node">
<title>function&#45;0&#45;Addi</title>
<g id="a_node12"><a xlink:title="Inst&#45;4: function&#45;0&#45;Addi">
<path fill="white" stroke="transparent" d="M531.17,-253C531.17,-253 550.83,-253 550.83,-253 556.17,-253 561.5,-258.33 561.5,-263.67 561.5,-263.67 561.5,-274.33 561.5,-274.33 561.5,-279.67 556.17,-285 550.83,-285 550.83,-285 531.17,-285 531.17,-285 525.83,-285 520.5,-279.67 520.5,-274.33 520.5,-274.33 520.5,-263.67 520.5,-263.67 520.5,-258.33 525.83,-253 531.17,-253"/>
<text text-anchor="start" x="526" y="-265.3" font-family="Helvetica,sans-Serif" font-size="14.00">Addi</text>
<path fill="none" stroke="black" d="M531.17,-253C531.17,-253 550.83,-253 550.83,-253 556.17,-253 561.5,-258.33 561.5,-263.67 561.5,-263.67 561.5,-274.33 561.5,-274.33 561.5,-279.67 556.17,-285 550.83,-285 550.83,-285 531.17,-285 531.17,-285 525.83,-285 520.5,-279.67 520.5,-274.33 520.5,-274.33 520.5,-263.67 520.5,-263.67 520.5,-258.33 525.83,-253 531.17,-253"/>
</a>
</g>
</g>
<!-- function&#45;0&#45;RegVal -->
<g id="node13" class="node">
<title>function&#45;0&#45;RegVal</title>
<g id="a_node13"><a xlink:title="Inst&#45;0: function&#45;0&#45;RegVal">
<path fill="white" stroke="transparent" d="M563.17,-174C563.17,-174 598.83,-174 598.83,-174 604.17,-174 609.5,-179.33 609.5,-184.67 609.5,-184.67 609.5,-195.33 609.5,-195.33 609.5,-200.67 604.17,-206 598.83,-206 598.83,-206 563.17,-206 563.17,-206 557.83,-206 552.5,-200.67 552.5,-195.33 552.5,-195.33 552.5,-184.67 552.5,-184.67 552.5,-179.33 557.83,-174 563.17,-174"/>
<text text-anchor="start" x="558" y="-186.3" font-family="Helvetica,sans-Serif" font-size="14.00">RegVal</text>
<path fill="none" stroke="black" d="M563.17,-174C563.17,-174 598.83,-174 598.83,-174 604.17,-174 609.5,-179.33 609.5,-184.67 609.5,-184.67 609.5,-195.33 609.5,-195.33 609.5,-200.67 604.17,-206 598.83,-206 598.83,-206 563.17,-206 563.17,-206 557.83,-206 552.5,-200.67 552.5,-195.33 552.5,-195.33 552.5,-184.67 552.5,-184.67 552.5,-179.33 557.83,-174 563.17,-174"/>
</a>
</g>
</g>
<!-- function&#45;1&#45;Addi -->
<g id="node14" class="node">
<title>function&#45;1&#45;Addi</title>
<g id="a_node14"><a xlink:title="Inst&#45;6: function&#45;1&#45;Addi">
<path fill="white" stroke="transparent" d="M98.17,-253C98.17,-253 117.83,-253 117.83,-253 123.17,-253 128.5,-258.33 128.5,-263.67 128.5,-263.67 128.5,-274.33 128.5,-274.33 128.5,-279.67 123.17,-285 117.83,-285 117.83,-285 98.17,-285 98.17,-285 92.83,-285 87.5,-279.67 87.5,-274.33 87.5,-274.33 87.5,-263.67 87.5,-263.67 87.5,-258.33 92.83,-253 98.17,-253"/>
<text text-anchor="start" x="93" y="-265.3" font-family="Helvetica,sans-Serif" font-size="14.00">Addi</text>
<path fill="none" stroke="black" d="M98.17,-253C98.17,-253 117.83,-253 117.83,-253 123.17,-253 128.5,-258.33 128.5,-263.67 128.5,-263.67 128.5,-274.33 128.5,-274.33 128.5,-279.67 123.17,-285 117.83,-285 117.83,-285 98.17,-285 98.17,-285 92.83,-285 87.5,-279.67 87.5,-274.33 87.5,-274.33 87.5,-263.67 87.5,-263.67 87.5,-258.33 92.83,-253 98.17,-253"/>
</a>
</g>
</g>
<!-- primitive&#45;String&#45;1 -->
<g id="node15" class="node">
<title>primitive&#45;String&#45;1</title>
<g id="a_node15"><a xlink:title="String&#45;1: primitive&#45;String&#45;1">
<path fill="white" stroke="transparent" d="M564.67,-95C564.67,-95 599.33,-95 599.33,-95 604.67,-95 610,-100.33 610,-105.67 610,-105.67 610,-116.33 610,-116.33 610,-121.67 604.67,-127 599.33,-127 599.33,-127 564.67,-127 564.67,-127 559.33,-127 554,-121.67 554,-116.33 554,-116.33 554,-105.67 554,-105.67 554,-100.33 559.33,-95 564.67,-95"/>
<text text-anchor="start" x="559" y="-107.3" font-family="Helvetica,sans-Serif" font-size="14.00">&quot;s4_0&quot;</text>
<path fill="none" stroke="black" d="M564.67,-95C564.67,-95 599.33,-95 599.33,-95 604.67,-95 610,-100.33 610,-105.67 610,-105.67 610,-116.33 610,-116.33 610,-121.67 604.67,-127 599.33,-127 599.33,-127 564.67,-127 564.67,-127 559.33,-127 554,-121.67 554,-116.33 554,-116.33 554,-105.67 554,-105.67 554,-100.33 559.33,-95 564.67,-95"/>
</a>
</g>
</g>
<!-- function&#45;0&#45;Auipc -->
<g id="node16" class="node">
<title>function&#45;0&#45;Auipc</title>
<g id="a_node16"><a xlink:title="Inst&#45;8: function&#45;0&#45;Auipc">
<path fill="white" stroke="transparent" d="M386.67,-174C386.67,-174 415.33,-174 415.33,-174 420.67,-174 426,-179.33 426,-184.67 426,-184.67 426,-195.33 426,-195.33 426,-200.67 420.67,-206 415.33,-206 415.33,-206 386.67,-206 386.67,-206 381.33,-206 376,-200.67 376,-195.33 376,-195.33 376,-184.67 376,-184.67 376,-179.33 381.33,-174 386.67,-174"/>
<text text-anchor="start" x="381" y="-186.3" font-family="Helvetica,sans-Serif" font-size="14.00">Auipc</text>
<path fill="none" stroke="black" d="M386.67,-174C386.67,-174 415.33,-174 415.33,-174 420.67,-174 426,-179.33 426,-184.67 426,-184.67 426,-195.33 426,-195.33 426,-200.67 420.67,-206 415.33,-206 415.33,-206 386.67,-206 386.67,-206 381.33,-206 376,-200.67 376,-195.33 376,-195.33 376,-184.67 376,-184.67 376,-179.33 381.33,-174 386.67,-174"/>
</a>
</g>
</g>
<!-- function&#45;0&#45;Jalr -->
<g id="node17" class="node">
<title>function&#45;0&#45;Jalr</title>
<g id="a_node17"><a xlink:title="Inst&#45;10: function&#45;0&#45;Jalr">
<path fill="white" stroke="transparent" d="M356.17,-253C356.17,-253 367.83,-253 367.83,-253 373.17,-253 378.5,-258.33 378.5,-263.67 378.5,-263.67 378.5,-274.33 378.5,-274.33 378.5,-279.67 373.17,-285 367.83,-285 367.83,-285 356.17,-285 356.17,-285 350.83,-285 345.5,-279.67 345.5,-274.33 345.5,-274.33 345.5,-263.67 345.5,-263.67 345.5,-258.33 350.83,-253 356.17,-253"/>
<text text-anchor="start" x="351" y="-265.3" font-family="Helvetica,sans-Serif" font-size="14.00">Jalr</text>
<path fill="none" stroke="black" d="M356.17,-253C356.17,-253 367.83,-253 367.83,-253 373.17,-253 378.5,-258.33 378.5,-263.67 378.5,-263.67 378.5,-274.33 378.5,-274.33 378.5,-279.67 373.17,-285 367.83,-285 367.83,-285 356.17,-285 356.17,-285 350.83,-285 345.5,-279.67 345.5,-274.33 345.5,-274.33 345.5,-263.67 345.5,-263.67 345.5,-258.33 350.83,-253 356.17,-253"/>
</a>
</g>
</g>
</g>
</svg>
