<?xml version="1.0" encoding="UTF-8" standalone="no"?>
<!DOCTYPE svg PUBLIC "-//W3C//DTD SVG 1.1//EN"
 "http://www.w3.org/Graphics/SVG/1.1/DTD/svg11.dtd">
<!-- Generated by graphviz version 2.43.0 (0)
 -->
<!-- Title: %3 Pages: 1 -->
<svg width="790pt" height="309pt"
 viewBox="0.00 0.00 790.00 309.00" xmlns="http://www.w3.org/2000/svg" xmlns:xlink="http://www.w3.org/1999/xlink">
<g id="graph0" class="graph" transform="scale(1 1) rotate(0) translate(4 305)">
<title>%3</title>
<polygon fill="white" stroke="#000000" points="-4,4 -4,-305 786,-305 786,4 -4,4"/>
<g id="clust1" class="cluster">
<title>outer_cluster_Imm&#45;3</title>
</g>
<g id="clust2" class="cluster">
<title>cluster_Imm&#45;3</title>
<path fill="#ffffb3" stroke="black" stroke-dasharray="5,2" d="M97,-90C97,-90 141,-90 141,-90 147,-90 153,-96 153,-102 153,-102 153,-120 153,-120 153,-126 147,-132 141,-132 141,-132 97,-132 97,-132 91,-132 85,-126 85,-120 85,-120 85,-102 85,-102 85,-96 91,-90 97,-90"/>
</g>
<g id="clust4" class="cluster">
<title>outer_cluster_Imm&#45;8</title>
</g>
<g id="clust5" class="cluster">
<title>cluster_Imm&#45;8</title>
<path fill="#ffffb3" stroke="black" stroke-dasharray="5,2" d="M384,-169C384,-169 444,-169 444,-169 450,-169 456,-175 456,-181 456,-181 456,-199 456,-199 456,-205 450,-211 444,-211 444,-211 384,-211 384,-211 378,-211 372,-205 372,-199 372,-199 372,-181 372,-181 372,-175 378,-169 384,-169"/>
</g>
<g id="clust7" class="cluster">
<title>outer_cluster_Imm&#45;14</title>
</g>
<g id="clust8" class="cluster">
<title>cluster_Imm&#45;14</title>
<path fill="#ffffb3" stroke="black" stroke-dasharray="5,2" d="M548,-169C548,-169 608,-169 608,-169 614,-169 620,-175 620,-181 620,-181 620,-199 620,-199 620,-205 614,-211 608,-211 608,-211 548,-211 548,-211 542,-211 536,-205 536,-199 536,-199 536,-181 536,-181 536,-175 542,-169 548,-169"/>
</g>
<g id="clust10" class="cluster">
<title>outer_cluster_Imm&#45;12</title>
</g>
<g id="clust11" class="cluster">
<title>cluster_Imm&#45;12</title>
<path fill="#ffffb3" stroke="black" stroke-dasharray="5,2" d="M667,-90C667,-90 727,-90 727,-90 733,-90 739,-96 739,-102 739,-102 739,-120 739,-120 739,-126 733,-132 727,-132 727,-132 667,-132 667,-132 661,-132 655,-126 655,-120 655,-120 655,-102 655,-102 655,-96 661,-90 667,-90"/>
</g>
<g id="clust13" class="cluster">
<title>outer_cluster_Imm&#45;10</title>
</g>
<g id="clust14" class="cluster">
<title>cluster_Imm&#45;10</title>
<path fill="#ffffb3" stroke="black" stroke-dasharray="5,2" d="M241,-90C241,-90 285,-90 285,-90 291,-90 297,-96 297,-102 297,-102 297,-120 297,-120 297,-126 291,-132 285,-132 285,-132 241,-132 241,-132 235,-132 229,-126 229,-120 229,-120 229,-102 229,-102 229,-96 235,-90 241,-90"/>
</g>
<g id="clust16" class="cluster">
<title>outer_cluster_Imm&#45;5</title>
</g>
<g id="clust17" class="cluster">
<title>cluster_Imm&#45;5</title>
<path fill="#ffffb3" stroke="black" stroke-dasharray="5,2" d="M315,-90C315,-90 359,-90 359,-90 365,-90 371,-96 371,-102 371,-102 371,-120 371,-120 371,-126 365,-132 359,-132 359,-132 315,-132 315,-132 309,-132 303,-126 303,-120 303,-120 303,-102 303,-102 303,-96 309,-90 315,-90"/>
</g>
<g id="clust19" class="cluster">
<title>outer_cluster_Imm&#45;1</title>
</g>
<g id="clust20" class="cluster">
<title>cluster_Imm&#45;1</title>
<path fill="#ffffb3" stroke="black" stroke-dasharray="5,2" d="M23,-90C23,-90 67,-90 67,-90 73,-90 79,-96 79,-102 79,-102 79,-120 79,-120 79,-126 73,-132 67,-132 67,-132 23,-132 23,-132 17,-132 11,-126 11,-120 11,-120 11,-102 11,-102 11,-96 17,-90 23,-90"/>
</g>
<g id="clust22" class="cluster">
<title>outer_cluster_Inst&#45;2</title>
</g>
<g id="clust23" class="cluster">
<title>cluster_Inst&#45;2</title>
<path fill="#bebada" stroke="black" stroke-dasharray="5,2" d="M62,-169C62,-169 98,-169 98,-169 104,-169 110,-175 110,-181 110,-181 110,-199 110,-199 110,-205 104,-211 98,-211 98,-211 62,-211 62,-211 56,-211 50,-205 50,-199 50,-199 50,-181 50,-181 50,-175 56,-169 62,-169"/>
</g>
<g id="clust25" class="cluster">
<title>outer_cluster_Inst&#45;7</title>
</g>
<g id="clust26" class="cluster">
<title>cluster_Inst&#45;7</title>
<path fill="#bebada" stroke="black" stroke-dasharray="5,2" d="M81,-248C81,-248 117,-248 117,-248 123,-248 129,-254 129,-260 129,-260 129,-278 129,-278 129,-284 123,-290 117,-290 117,-290 81,-290 81,-290 75,-290 69,-284 69,-278 69,-278 69,-260 69,-260 69,-254 75,-248 81,-248"/>
</g>
<g id="clust28" class="cluster">
<title>outer_cluster_Inst&#45;4</title>
</g>
<g id="clust29" class="cluster">
<title>cluster_Inst&#45;4</title>
<path fill="#bebada" stroke="black" stroke-dasharray="5,2" d="M169,-169C169,-169 205,-169 205,-169 211,-169 217,-175 217,-181 217,-181 217,-199 217,-199 217,-205 211,-211 205,-211 205,-211 169,-211 169,-211 163,-211 157,-205 157,-199 157,-199 157,-181 157,-181 157,-175 163,-169 169,-169"/>
</g>
<g id="clust31" class="cluster">
<title>outer_cluster_Inst&#45;15</title>
</g>
<g id="clust32" class="cluster">
<title>cluster_Inst&#45;15</title>
<path fill="#bebada" stroke="black" stroke-dasharray="5,2" d="M612,-248C612,-248 648,-248 648,-248 654,-248 660,-254 660,-260 660,-260 660,-278 660,-278 660,-284 654,-290 648,-290 648,-290 612,-290 612,-290 606,-290 600,-284 600,-278 600,-278 600,-260 600,-260 600,-254 606,-248 612,-248"/>
</g>
<g id="clust34" class="cluster">
<title>outer_cluster_Inst&#45;11</title>
</g>
<g id="clust35" class="cluster">
<title>cluster_Inst&#45;11</title>
<path fill="#bebada" stroke="black" stroke-dasharray="5,2" d="M235,-169C235,-169 271,-169 271,-169 277,-169 283,-175 283,-181 283,-181 283,-199 283,-199 283,-205 277,-211 271,-211 271,-211 235,-211 235,-211 229,-211 223,-205 223,-199 223,-199 223,-181 223,-181 223,-175 229,-169 235,-169"/>
</g>
<g id="clust37" class="cluster">
<title>outer_cluster_Inst&#45;13</title>
</g>
<g id="clust38" class="cluster">
<title>cluster_Inst&#45;13</title>
<path fill="#bebada" stroke="black" stroke-dasharray="5,2" d="M665,-169C665,-169 701,-169 701,-169 707,-169 713,-175 713,-181 713,-181 713,-199 713,-199 713,-205 707,-211 701,-211 701,-211 665,-211 665,-211 659,-211 653,-205 653,-199 653,-199 653,-181 653,-181 653,-175 659,-169 665,-169"/>
</g>
<g id="clust40" class="cluster">
<title>outer_cluster_Inst&#45;6</title>
</g>
<g id="clust41" class="cluster">
<title>cluster_Inst&#45;6</title>
<path fill="#bebada" stroke="black" stroke-dasharray="5,2" d="M306,-169C306,-169 342,-169 342,-169 348,-169 354,-175 354,-181 354,-181 354,-199 354,-199 354,-205 348,-211 342,-211 342,-211 306,-211 306,-211 300,-211 294,-205 294,-199 294,-199 294,-181 294,-181 294,-175 300,-169 306,-169"/>
</g>
<g id="clust43" class="cluster">
<title>outer_cluster_Inst&#45;9</title>
</g>
<g id="clust44" class="cluster">
<title>cluster_Inst&#45;9</title>
<path fill="#bebada" stroke="black" stroke-dasharray="5,2" d="M282,-248C282,-248 318,-248 318,-248 324,-248 330,-254 330,-260 330,-260 330,-278 330,-278 330,-284 324,-290 318,-290 318,-290 282,-290 282,-290 276,-290 270,-284 270,-278 270,-278 270,-260 270,-260 270,-254 276,-248 282,-248"/>
</g>
<g id="clust46" class="cluster">
<title>outer_cluster_Inst&#45;0</title>
</g>
<g id="clust47" class="cluster">
<title>cluster_Inst&#45;0</title>
<path fill="#bebada" stroke="black" stroke-dasharray="5,2" d="M171,-90C171,-90 211,-90 211,-90 217,-90 223,-96 223,-102 223,-102 223,-120 223,-120 223,-126 217,-132 211,-132 211,-132 171,-132 171,-132 165,-132 159,-126 159,-120 159,-120 159,-102 159,-102 159,-96 165,-90 171,-90"/>
</g>
<g id="clust49" class="cluster">
<title>outer_cluster_String&#45;2</title>
</g>
<g id="clust50" class="cluster">
<title>cluster_String&#45;2</title>
<path fill="#fb8072" stroke="black" stroke-dasharray="5,2" d="M389,-90C389,-90 463,-90 463,-90 469,-90 475,-96 475,-102 475,-102 475,-120 475,-120 475,-126 469,-132 463,-132 463,-132 389,-132 389,-132 383,-132 377,-126 377,-120 377,-120 377,-102 377,-102 377,-96 383,-90 389,-90"/>
</g>
<g id="clust52" class="cluster">
<title>outer_cluster_String&#45;1</title>
</g>
<g id="clust53" class="cluster">
<title>cluster_String&#45;1</title>
<path fill="#fb8072" stroke="black" stroke-dasharray="5,2" d="M173,-11C173,-11 211,-11 211,-11 217,-11 223,-17 223,-23 223,-23 223,-41 223,-41 223,-47 217,-53 211,-53 211,-53 173,-53 173,-53 167,-53 161,-47 161,-41 161,-41 161,-23 161,-23 161,-17 167,-11 173,-11"/>
</g>
<g id="clust55" class="cluster">
<title>outer_cluster_String&#45;4</title>
</g>
<g id="clust56" class="cluster">
<title>cluster_String&#45;4</title>
<path fill="#fb8072" stroke="black" stroke-dasharray="5,2" d="M493,-90C493,-90 637,-90 637,-90 643,-90 649,-96 649,-102 649,-102 649,-120 649,-120 649,-126 643,-132 637,-132 637,-132 493,-132 493,-132 487,-132 481,-126 481,-120 481,-120 481,-102 481,-102 481,-96 487,-90 493,-90"/>
</g>
<g id="clust58" class="cluster">
<title>outer_cluster_String&#45;3</title>
</g>
<g id="clust59" class="cluster">
<title>cluster_String&#45;3</title>
<path fill="#fb8072" stroke="black" stroke-dasharray="5,2" d="M637,-11C637,-11 759,-11 759,-11 765,-11 771,-17 771,-23 771,-23 771,-41 771,-41 771,-47 765,-53 759,-53 759,-53 637,-53 637,-53 631,-53 625,-47 625,-41 625,-41 625,-23 625,-23 625,-17 631,-11 637,-11"/>
</g>
<g id="clust61" class="cluster">
<title>outer_cluster_i64&#45;28</title>
</g>
<g id="clust62" class="cluster">
<title>cluster_i64&#45;28</title>
<path fill="#80b1d3" stroke="black" stroke-dasharray="5,2" d="M319,-11C319,-11 355,-11 355,-11 361,-11 367,-17 367,-23 367,-23 367,-41 367,-41 367,-47 361,-53 355,-53 355,-53 319,-53 319,-53 313,-53 307,-47 307,-41 307,-41 307,-23 307,-23 307,-17 313,-11 319,-11"/>
</g>
<g id="clust64" class="cluster">
<title>outer_cluster_i64&#45;32</title>
</g>
<g id="clust65" class="cluster">
<title>cluster_i64&#45;32</title>
<path fill="#80b1d3" stroke="black" stroke-dasharray="5,2" d="M245,-11C245,-11 281,-11 281,-11 287,-11 293,-17 293,-23 293,-23 293,-41 293,-41 293,-47 287,-53 281,-53 281,-53 245,-53 245,-53 239,-53 233,-47 233,-41 233,-41 233,-23 233,-23 233,-17 239,-11 245,-11"/>
</g>
<g id="clust67" class="cluster">
<title>outer_cluster_i64&#45;4</title>
</g>
<g id="clust68" class="cluster">
<title>cluster_i64&#45;4</title>
<path fill="#80b1d3" stroke="black" stroke-dasharray="5,2" d="M27,-11C27,-11 63,-11 63,-11 69,-11 75,-17 75,-23 75,-23 75,-41 75,-41 75,-47 69,-53 63,-53 63,-53 27,-53 27,-53 21,-53 15,-47 15,-41 15,-41 15,-23 15,-23 15,-17 21,-11 27,-11"/>
</g>
<g id="clust70" class="cluster">
<title>outer_cluster_i64&#45;0</title>
</g>
<g id="clust71" class="cluster">
<title>cluster_i64&#45;0</title>
<path fill="#80b1d3" stroke="black" stroke-dasharray="5,2" d="M101,-11C101,-11 137,-11 137,-11 143,-11 149,-17 149,-23 149,-23 149,-41 149,-41 149,-47 143,-53 137,-53 137,-53 101,-53 101,-53 95,-53 89,-47 89,-41 89,-41 89,-23 89,-23 89,-17 95,-11 101,-11"/>
</g>
<!-- function&#45;1&#45;ImmVal&#45;&gt;primitive&#45;i64&#45;0 -->
<g id="edge1" class="edge">
<title>function&#45;1&#45;ImmVal:s&#45;&gt;primitive&#45;i64&#45;0</title>
<path fill="none" stroke="black" d="M119,-95C119,-81.84 119,-67.11 119,-55.3"/>
<polygon fill="black" stroke="black" points="120.75,-58 119,-53 117.25,-58 120.75,-58"/>
</g>
<!-- function&#45;0&#45;ImmLabel&#45;&gt;primitive&#45;String&#45;2 -->
<g id="edge2" class="edge">
<title>function&#45;0&#45;ImmLabel:s&#45;&gt;primitive&#45;String&#45;2</title>
<path fill="none" stroke="black" d="M415,-174C415,-160.73 417.47,-146.1 420.08,-134.39"/>
<polygon fill="black" stroke="black" points="420.6,-137.25 421.27,-132 417.47,-135.69 420.6,-137.25"/>
</g>
<!-- function&#45;2&#45;ImmLabel&#45;&gt;primitive&#45;String&#45;4 -->
<g id="edge3" class="edge">
<title>function&#45;2&#45;ImmLabel:s&#45;&gt;primitive&#45;String&#45;4</title>
<path fill="none" stroke="black" d="M579,-174C579,-160.48 575.79,-145.7 572.45,-133.97"/>
<polygon fill="black" stroke="black" points="575.38,-135.01 571.02,-132 572.55,-137.07 575.38,-135.01"/>
</g>
<!-- function&#45;1&#45;ImmLabel&#45;&gt;primitive&#45;String&#45;3 -->
<g id="edge4" class="edge">
<title>function&#45;1&#45;ImmLabel:s&#45;&gt;primitive&#45;String&#45;3</title>
<path fill="none" stroke="black" d="M698,-95C698,-81.84 698,-67.11 698,-55.3"/>
<polygon fill="black" stroke="black" points="699.75,-58 698,-53 696.25,-58 699.75,-58"/>
</g>
<!-- function&#45;3&#45;ImmVal&#45;&gt;primitive&#45;i64&#45;32 -->
<g id="edge5" class="edge">
<title>function&#45;3&#45;ImmVal:s&#45;&gt;primitive&#45;i64&#45;32</title>
<path fill="none" stroke="black" d="M263,-95C263,-81.84 263,-67.11 263,-55.3"/>
<polygon fill="black" stroke="black" points="264.75,-58 263,-53 261.25,-58 264.75,-58"/>
</g>
<!-- function&#45;2&#45;ImmVal&#45;&gt;primitive&#45;i64&#45;28 -->
<g id="edge6" class="edge">
<title>function&#45;2&#45;ImmVal:s&#45;&gt;primitive&#45;i64&#45;28</title>
<path fill="none" stroke="black" d="M337,-95C337,-81.84 337,-67.11 337,-55.3"/>
<polygon fill="black" stroke="black" points="338.75,-58 337,-53 335.25,-58 338.75,-58"/>
</g>
<!-- function&#45;0&#45;ImmVal&#45;&gt;primitive&#45;i64&#45;4 -->
<g id="edge7" class="edge">
<title>function&#45;0&#45;ImmVal:s&#45;&gt;primitive&#45;i64&#45;4</title>
<path fill="none" stroke="black" d="M45,-95C45,-81.84 45,-67.11 45,-55.3"/>
<polygon fill="black" stroke="black" points="46.75,-58 45,-53 43.25,-58 46.75,-58"/>
</g>
<!-- function&#45;0&#45;Lw&#45;&gt;function&#45;0&#45;ImmVal -->
<g id="edge9" class="edge">
<title>function&#45;0&#45;Lw:s&#45;&gt;function&#45;0&#45;ImmVal</title>
<path fill="none" stroke="black" d="M88,-174C88,-158.48 78.79,-144.05 68.9,-133.02"/>
<polygon fill="black" stroke="black" points="72.42,-133.14 67.24,-132 70.58,-136.11 72.42,-133.14"/>
</g>
<!-- function&#45;0&#45;Lw&#45;&gt;function&#45;0&#45;RegVal -->
<g id="edge8" class="edge">
<title>function&#45;0&#45;Lw:s&#45;&gt;function&#45;0&#45;RegVal</title>
<path fill="none" stroke="black" d="M72,-174C72,-133.64 118.58,-154.35 154,-135 154.22,-134.88 154.44,-134.76 154.66,-134.64"/>
<polygon fill="black" stroke="black" points="155.85,-135.98 159.34,-132 154.13,-132.93 155.85,-135.98"/>
</g>
<!-- function&#45;0&#45;RegVal&#45;&gt;primitive&#45;String&#45;1 -->
<g id="edge23" class="edge">
<title>function&#45;0&#45;RegVal:s&#45;&gt;primitive&#45;String&#45;1</title>
<path fill="none" stroke="black" d="M192,-95C192,-81.84 192,-67.11 192,-55.3"/>
<polygon fill="black" stroke="black" points="193.75,-58 192,-53 190.25,-58 193.75,-58"/>
</g>
<!-- function&#45;0&#45;Addi&#45;&gt;function&#45;1&#45;ImmVal -->
<g id="edge11" class="edge">
<title>function&#45;0&#45;Addi:s&#45;&gt;function&#45;1&#45;ImmVal</title>
<path fill="none" stroke="black" d="M109,-253C109,-241.48 114.38,-171.01 117.25,-134.26"/>
<polygon fill="black" stroke="black" points="118.49,-137.23 117.65,-132 115.05,-136.61 118.49,-137.23"/>
</g>
<!-- function&#45;0&#45;Addi&#45;&gt;function&#45;0&#45;Lw -->
<g id="edge10" class="edge">
<title>function&#45;0&#45;Addi:s&#45;&gt;function&#45;0&#45;Lw</title>
<path fill="none" stroke="black" d="M89,-253C89,-239.7 86.95,-224.96 84.8,-213.19"/>
<polygon fill="black" stroke="black" points="87.46,-214.84 83.82,-211 84.27,-216.28 87.46,-214.84"/>
</g>
<!-- function&#45;1&#45;Lw&#45;&gt;function&#45;1&#45;ImmVal -->
<g id="edge13" class="edge">
<title>function&#45;1&#45;Lw:s&#45;&gt;function&#45;1&#45;ImmVal</title>
<path fill="none" stroke="black" d="M195,-174C195,-163.11 176.02,-147.62 157.03,-134.84"/>
<polygon fill="black" stroke="black" points="157.86,-133.3 152.73,-132 155.93,-136.22 157.86,-133.3"/>
</g>
<!-- function&#45;1&#45;Lw&#45;&gt;function&#45;0&#45;RegVal -->
<g id="edge12" class="edge">
<title>function&#45;1&#45;Lw:s&#45;&gt;function&#45;0&#45;RegVal</title>
<path fill="none" stroke="black" d="M179,-174C179,-160.69 181.7,-146.06 184.54,-134.36"/>
<polygon fill="black" stroke="black" points="184.95,-137.22 185.84,-132 181.89,-135.53 184.95,-137.22"/>
</g>
<!-- function&#45;0&#45;Jalr&#45;&gt;function&#45;2&#45;ImmLabel -->
<g id="edge15" class="edge">
<title>function&#45;0&#45;Jalr:s&#45;&gt;function&#45;2&#45;ImmLabel</title>
<path fill="none" stroke="black" d="M638,-253C638,-235.9 626.06,-221.71 612.84,-211.25"/>
<polygon fill="black" stroke="black" points="616.96,-210.38 611.7,-211 616.2,-213.79 616.96,-210.38"/>
</g>
<!-- function&#45;0&#45;Jalr&#45;&gt;function&#45;0&#45;Auipc -->
<g id="edge14" class="edge">
<title>function&#45;0&#45;Jalr:s&#45;&gt;function&#45;0&#45;Auipc</title>
<path fill="none" stroke="black" d="M622,-253C622,-234.09 636.6,-218.85 651.51,-208.2"/>
<polygon fill="black" stroke="black" points="651.26,-211.33 653,-206.33 648.52,-209.15 651.26,-211.33"/>
</g>
<!-- function&#45;0&#45;Auipc&#45;&gt;function&#45;1&#45;ImmLabel -->
<g id="edge18" class="edge">
<title>function&#45;0&#45;Auipc:s&#45;&gt;function&#45;1&#45;ImmLabel</title>
<path fill="none" stroke="black" d="M683,-174C683,-160.48 686.21,-145.7 689.55,-133.97"/>
<polygon fill="black" stroke="black" points="689.45,-137.07 690.98,-132 686.62,-135.01 689.45,-137.07"/>
</g>
<!-- function&#45;2&#45;Addi&#45;&gt;function&#45;3&#45;ImmVal -->
<g id="edge17" class="edge">
<title>function&#45;2&#45;Addi:s&#45;&gt;function&#45;3&#45;ImmVal</title>
<path fill="none" stroke="black" d="M263,-174C263,-160.84 263,-146.11 263,-134.3"/>
<polygon fill="black" stroke="black" points="264.75,-137 263,-132 261.25,-137 264.75,-137"/>
</g>
<!-- function&#45;2&#45;Addi&#45;&gt;function&#45;0&#45;RegVal -->
<g id="edge16" class="edge">
<title>function&#45;2&#45;Addi:s&#45;&gt;function&#45;0&#45;RegVal</title>
<path fill="none" stroke="black" d="M243,-174C243,-157.59 232.18,-143.25 220.4,-132.5"/>
<polygon fill="black" stroke="black" points="224.65,-132.66 219.39,-132 223.09,-135.8 224.65,-132.66"/>
</g>
<!-- function&#45;2&#45;Lw&#45;&gt;function&#45;2&#45;ImmVal -->
<g id="edge20" class="edge">
<title>function&#45;2&#45;Lw:s&#45;&gt;function&#45;2&#45;ImmVal</title>
<path fill="none" stroke="black" d="M332,-174C332,-160.8 333.14,-146.06 334.33,-134.27"/>
<polygon fill="black" stroke="black" points="335.41,-137.27 334.88,-132 332.01,-136.45 335.41,-137.27"/>
</g>
<!-- function&#45;2&#45;Lw&#45;&gt;function&#45;0&#45;RegVal -->
<g id="edge19" class="edge">
<title>function&#45;2&#45;Lw:s&#45;&gt;function&#45;0&#45;RegVal</title>
<path fill="none" stroke="black" d="M316,-174C316,-131.22 265.81,-155.01 228,-135 227.66,-134.82 227.32,-134.64 226.98,-134.46"/>
<polygon fill="black" stroke="black" points="227.75,-132.88 222.53,-132 226.06,-135.95 227.75,-132.88"/>
</g>
<!-- function&#45;1&#45;Addi&#45;&gt;function&#45;0&#45;ImmLabel -->
<g id="edge22" class="edge">
<title>function&#45;1&#45;Addi:s&#45;&gt;function&#45;0&#45;ImmLabel</title>
<path fill="none" stroke="black" d="M310,-253C310,-238.25 341.27,-221.03 369.52,-208.49"/>
<polygon fill="black" stroke="black" points="368.17,-211.02 372,-207.36 366.72,-207.84 368.17,-211.02"/>
</g>
<!-- function&#45;1&#45;Addi&#45;&gt;function&#45;1&#45;Lw -->
<g id="edge21" class="edge">
<title>function&#45;1&#45;Addi:s&#45;&gt;function&#45;1&#45;Lw</title>
<path fill="none" stroke="black" d="M290,-253C290,-218.16 251.68,-232.24 222,-214 221.79,-213.87 221.59,-213.75 221.38,-213.62"/>
<polygon fill="black" stroke="black" points="222.17,-212.05 217,-210.88 220.31,-215.01 222.17,-212.05"/>
</g>
<!-- function&#45;1&#45;ImmVal -->
<g id="node1" class="node">
<title>function&#45;1&#45;ImmVal</title>
<g id="a_node1"><a xlink:title="Imm&#45;3: function&#45;1&#45;ImmVal">
<path fill="white" stroke="transparent" d="M98.67,-95C98.67,-95 139.33,-95 139.33,-95 144.67,-95 150,-100.33 150,-105.67 150,-105.67 150,-116.33 150,-116.33 150,-121.67 144.67,-127 139.33,-127 139.33,-127 98.67,-127 98.67,-127 93.33,-127 88,-121.67 88,-116.33 88,-116.33 88,-105.67 88,-105.67 88,-100.33 93.33,-95 98.67,-95"/>
<text text-anchor="start" x="93" y="-107.3" font-family="Helvetica,sans-Serif" font-size="14.00">ImmVal</text>
<path fill="none" stroke="black" d="M98.67,-95C98.67,-95 139.33,-95 139.33,-95 144.67,-95 150,-100.33 150,-105.67 150,-105.67 150,-116.33 150,-116.33 150,-121.67 144.67,-127 139.33,-127 139.33,-127 98.67,-127 98.67,-127 93.33,-127 88,-121.67 88,-116.33 88,-116.33 88,-105.67 88,-105.67 88,-100.33 93.33,-95 98.67,-95"/>
</a>
</g>
</g>
<!-- primitive&#45;i64&#45;0 -->
<g id="node2" class="node">
<title>primitive&#45;i64&#45;0</title>
<g id="a_node2"><a xlink:title="i64&#45;0: primitive&#45;i64&#45;0">
<path fill="white" stroke="transparent" d="M113.67,-16C113.67,-16 124.33,-16 124.33,-16 129.67,-16 135,-21.33 135,-26.67 135,-26.67 135,-37.33 135,-37.33 135,-42.67 129.67,-48 124.33,-48 124.33,-48 113.67,-48 113.67,-48 108.33,-48 103,-42.67 103,-37.33 103,-37.33 103,-26.67 103,-26.67 103,-21.33 108.33,-16 113.67,-16"/>
<text text-anchor="start" x="114" y="-28.3" font-family="Helvetica,sans-Serif" font-size="14.00">0</text>
<path fill="none" stroke="black" d="M113.67,-16C113.67,-16 124.33,-16 124.33,-16 129.67,-16 135,-21.33 135,-26.67 135,-26.67 135,-37.33 135,-37.33 135,-42.67 129.67,-48 124.33,-48 124.33,-48 113.67,-48 113.67,-48 108.33,-48 103,-42.67 103,-37.33 103,-37.33 103,-26.67 103,-26.67 103,-21.33 108.33,-16 113.67,-16"/>
</a>
</g>
</g>
<!-- function&#45;0&#45;ImmLabel -->
<g id="node3" class="node">
<title>function&#45;0&#45;ImmLabel</title>
<g id="a_node3"><a xlink:title="Imm&#45;8: function&#45;0&#45;ImmLabel">
<path fill="white" stroke="transparent" d="M385.17,-174C385.17,-174 442.83,-174 442.83,-174 448.17,-174 453.5,-179.33 453.5,-184.67 453.5,-184.67 453.5,-195.33 453.5,-195.33 453.5,-200.67 448.17,-206 442.83,-206 442.83,-206 385.17,-206 385.17,-206 379.83,-206 374.5,-200.67 374.5,-195.33 374.5,-195.33 374.5,-184.67 374.5,-184.67 374.5,-179.33 379.83,-174 385.17,-174"/>
<text text-anchor="start" x="380" y="-186.3" font-family="Helvetica,sans-Serif" font-size="14.00">ImmLabel</text>
<path fill="none" stroke="black" d="M385.17,-174C385.17,-174 442.83,-174 442.83,-174 448.17,-174 453.5,-179.33 453.5,-184.67 453.5,-184.67 453.5,-195.33 453.5,-195.33 453.5,-200.67 448.17,-206 442.83,-206 442.83,-206 385.17,-206 385.17,-206 379.83,-206 374.5,-200.67 374.5,-195.33 374.5,-195.33 374.5,-184.67 374.5,-184.67 374.5,-179.33 379.83,-174 385.17,-174"/>
</a>
</g>
</g>
<!-- primitive&#45;String&#45;2 -->
<g id="node4" class="node">
<title>primitive&#45;String&#45;2</title>
<g id="a_node4"><a xlink:title="String&#45;2: primitive&#45;String&#45;2">
<path fill="white" stroke="transparent" d="M391.17,-95C391.17,-95 460.83,-95 460.83,-95 466.17,-95 471.5,-100.33 471.5,-105.67 471.5,-105.67 471.5,-116.33 471.5,-116.33 471.5,-121.67 466.17,-127 460.83,-127 460.83,-127 391.17,-127 391.17,-127 385.83,-127 380.5,-121.67 380.5,-116.33 380.5,-116.33 380.5,-105.67 380.5,-105.67 380.5,-100.33 385.83,-95 391.17,-95"/>
<text text-anchor="start" x="386" y="-107.3" font-family="Helvetica,sans-Serif" font-size="14.00">&quot;%lo(.LC1)&quot;</text>
<path fill="none" stroke="black" d="M391.17,-95C391.17,-95 460.83,-95 460.83,-95 466.17,-95 471.5,-100.33 471.5,-105.67 471.5,-105.67 471.5,-116.33 471.5,-116.33 471.5,-121.67 466.17,-127 460.83,-127 460.83,-127 391.17,-127 391.17,-127 385.83,-127 380.5,-121.67 380.5,-116.33 380.5,-116.33 380.5,-105.67 380.5,-105.67 380.5,-100.33 385.83,-95 391.17,-95"/>
</a>
</g>
</g>
<!-- function&#45;2&#45;ImmLabel -->
<g id="node5" class="node">
<title>function&#45;2&#45;ImmLabel</title>
<g id="a_node5"><a xlink:title="Imm&#45;14: function&#45;2&#45;ImmLabel">
<path fill="white" stroke="transparent" d="M549.17,-174C549.17,-174 606.83,-174 606.83,-174 612.17,-174 617.5,-179.33 617.5,-184.67 617.5,-184.67 617.5,-195.33 617.5,-195.33 617.5,-200.67 612.17,-206 606.83,-206 606.83,-206 549.17,-206 549.17,-206 543.83,-206 538.5,-200.67 538.5,-195.33 538.5,-195.33 538.5,-184.67 538.5,-184.67 538.5,-179.33 543.83,-174 549.17,-174"/>
<text text-anchor="start" x="544" y="-186.3" font-family="Helvetica,sans-Serif" font-size="14.00">ImmLabel</text>
<path fill="none" stroke="black" d="M549.17,-174C549.17,-174 606.83,-174 606.83,-174 612.17,-174 617.5,-179.33 617.5,-184.67 617.5,-184.67 617.5,-195.33 617.5,-195.33 617.5,-200.67 612.17,-206 606.83,-206 606.83,-206 549.17,-206 549.17,-206 543.83,-206 538.5,-200.67 538.5,-195.33 538.5,-195.33 538.5,-184.67 538.5,-184.67 538.5,-179.33 543.83,-174 549.17,-174"/>
</a>
</g>
</g>
<!-- primitive&#45;String&#45;4 -->
<g id="node6" class="node">
<title>primitive&#45;String&#45;4</title>
<g id="a_node6"><a xlink:title="String&#45;4: primitive&#45;String&#45;4">
<path fill="white" stroke="transparent" d="M494.67,-95C494.67,-95 635.33,-95 635.33,-95 640.67,-95 646,-100.33 646,-105.67 646,-105.67 646,-116.33 646,-116.33 646,-121.67 640.67,-127 635.33,-127 635.33,-127 494.67,-127 494.67,-127 489.33,-127 484,-121.67 484,-116.33 484,-116.33 484,-105.67 484,-105.67 484,-100.33 489.33,-95 494.67,-95"/>
<text text-anchor="start" x="489" y="-107.3" font-family="Helvetica,sans-Serif" font-size="14.00">&quot;%pcrel_lo(.Lpcrel_3)&quot;</text>
<path fill="none" stroke="black" d="M494.67,-95C494.67,-95 635.33,-95 635.33,-95 640.67,-95 646,-100.33 646,-105.67 646,-105.67 646,-116.33 646,-116.33 646,-121.67 640.67,-127 635.33,-127 635.33,-127 494.67,-127 494.67,-127 489.33,-127 484,-121.67 484,-116.33 484,-116.33 484,-105.67 484,-105.67 484,-100.33 489.33,-95 494.67,-95"/>
</a>
</g>
</g>
<!-- function&#45;1&#45;ImmLabel -->
<g id="node7" class="node">
<title>function&#45;1&#45;ImmLabel</title>
<g id="a_node7"><a xlink:title="Imm&#45;12: function&#45;1&#45;ImmLabel">
<path fill="white" stroke="transparent" d="M668.17,-95C668.17,-95 725.83,-95 725.83,-95 731.17,-95 736.5,-100.33 736.5,-105.67 736.5,-105.67 736.5,-116.33 736.5,-116.33 736.5,-121.67 731.17,-127 725.83,-127 725.83,-127 668.17,-127 668.17,-127 662.83,-127 657.5,-121.67 657.5,-116.33 657.5,-116.33 657.5,-105.67 657.5,-105.67 657.5,-100.33 662.83,-95 668.17,-95"/>
<text text-anchor="start" x="663" y="-107.3" font-family="Helvetica,sans-Serif" font-size="14.00">ImmLabel</text>
<path fill="none" stroke="black" d="M668.17,-95C668.17,-95 725.83,-95 725.83,-95 731.17,-95 736.5,-100.33 736.5,-105.67 736.5,-105.67 736.5,-116.33 736.5,-116.33 736.5,-121.67 731.17,-127 725.83,-127 725.83,-127 668.17,-127 668.17,-127 662.83,-127 657.5,-121.67 657.5,-116.33 657.5,-116.33 657.5,-105.67 657.5,-105.67 657.5,-100.33 662.83,-95 668.17,-95"/>
</a>
</g>
</g>
<!-- primitive&#45;String&#45;3 -->
<g id="node8" class="node">
<title>primitive&#45;String&#45;3</title>
<g id="a_node8"><a xlink:title="String&#45;3: primitive&#45;String&#45;3">
<path fill="white" stroke="transparent" d="M638.67,-16C638.67,-16 757.33,-16 757.33,-16 762.67,-16 768,-21.33 768,-26.67 768,-26.67 768,-37.33 768,-37.33 768,-42.67 762.67,-48 757.33,-48 757.33,-48 638.67,-48 638.67,-48 633.33,-48 628,-42.67 628,-37.33 628,-37.33 628,-26.67 628,-26.67 628,-21.33 633.33,-16 638.67,-16"/>
<text text-anchor="start" x="633" y="-28.3" font-family="Helvetica,sans-Serif" font-size="14.00">&quot;%pcrel_hi(printf)&quot;</text>
<path fill="none" stroke="black" d="M638.67,-16C638.67,-16 757.33,-16 757.33,-16 762.67,-16 768,-21.33 768,-26.67 768,-26.67 768,-37.33 768,-37.33 768,-42.67 762.67,-48 757.33,-48 757.33,-48 638.67,-48 638.67,-48 633.33,-48 628,-42.67 628,-37.33 628,-37.33 628,-26.67 628,-26.67 628,-21.33 633.33,-16 638.67,-16"/>
</a>
</g>
</g>
<!-- function&#45;3&#45;ImmVal -->
<g id="node9" class="node">
<title>function&#45;3&#45;ImmVal</title>
<g id="a_node9"><a xlink:title="Imm&#45;10: function&#45;3&#45;ImmVal">
<path fill="white" stroke="transparent" d="M242.67,-95C242.67,-95 283.33,-95 283.33,-95 288.67,-95 294,-100.33 294,-105.67 294,-105.67 294,-116.33 294,-116.33 294,-121.67 288.67,-127 283.33,-127 283.33,-127 242.67,-127 242.67,-127 237.33,-127 232,-121.67 232,-116.33 232,-116.33 232,-105.67 232,-105.67 232,-100.33 237.33,-95 242.67,-95"/>
<text text-anchor="start" x="237" y="-107.3" font-family="Helvetica,sans-Serif" font-size="14.00">ImmVal</text>
<path fill="none" stroke="black" d="M242.67,-95C242.67,-95 283.33,-95 283.33,-95 288.67,-95 294,-100.33 294,-105.67 294,-105.67 294,-116.33 294,-116.33 294,-121.67 288.67,-127 283.33,-127 283.33,-127 242.67,-127 242.67,-127 237.33,-127 232,-121.67 232,-116.33 232,-116.33 232,-105.67 232,-105.67 232,-100.33 237.33,-95 242.67,-95"/>
</a>
</g>
</g>
<!-- primitive&#45;i64&#45;32 -->
<g id="node10" class="node">
<title>primitive&#45;i64&#45;32</title>
<g id="a_node10"><a xlink:title="i64&#45;32: primitive&#45;i64&#45;32">
<path fill="white" stroke="transparent" d="M257.67,-16C257.67,-16 268.33,-16 268.33,-16 273.67,-16 279,-21.33 279,-26.67 279,-26.67 279,-37.33 279,-37.33 279,-42.67 273.67,-48 268.33,-48 268.33,-48 257.67,-48 257.67,-48 252.33,-48 247,-42.67 247,-37.33 247,-37.33 247,-26.67 247,-26.67 247,-21.33 252.33,-16 257.67,-16"/>
<text text-anchor="start" x="253.5" y="-28.3" font-family="Helvetica,sans-Serif" font-size="14.00">32</text>
<path fill="none" stroke="black" d="M257.67,-16C257.67,-16 268.33,-16 268.33,-16 273.67,-16 279,-21.33 279,-26.67 279,-26.67 279,-37.33 279,-37.33 279,-42.67 273.67,-48 268.33,-48 268.33,-48 257.67,-48 257.67,-48 252.33,-48 247,-42.67 247,-37.33 247,-37.33 247,-26.67 247,-26.67 247,-21.33 252.33,-16 257.67,-16"/>
</a>
</g>
</g>
<!-- function&#45;2&#45;ImmVal -->
<g id="node11" class="node">
<title>function&#45;2&#45;ImmVal</title>
<g id="a_node11"><a xlink:title="Imm&#45;5: function&#45;2&#45;ImmVal">
<path fill="white" stroke="transparent" d="M316.67,-95C316.67,-95 357.33,-95 357.33,-95 362.67,-95 368,-100.33 368,-105.67 368,-105.67 368,-116.33 368,-116.33 368,-121.67 362.67,-127 357.33,-127 357.33,-127 316.67,-127 316.67,-127 311.33,-127 306,-121.67 306,-116.33 306,-116.33 306,-105.67 306,-105.67 306,-100.33 311.33,-95 316.67,-95"/>
<text text-anchor="start" x="311" y="-107.3" font-family="Helvetica,sans-Serif" font-size="14.00">ImmVal</text>
<path fill="none" stroke="black" d="M316.67,-95C316.67,-95 357.33,-95 357.33,-95 362.67,-95 368,-100.33 368,-105.67 368,-105.67 368,-116.33 368,-116.33 368,-121.67 362.67,-127 357.33,-127 357.33,-127 316.67,-127 316.67,-127 311.33,-127 306,-121.67 306,-116.33 306,-116.33 306,-105.67 306,-105.67 306,-100.33 311.33,-95 316.67,-95"/>
</a>
</g>
</g>
<!-- primitive&#45;i64&#45;28 -->
<g id="node12" class="node">
<title>primitive&#45;i64&#45;28</title>
<g id="a_node12"><a xlink:title="i64&#45;28: primitive&#45;i64&#45;28">
<path fill="white" stroke="transparent" d="M331.67,-16C331.67,-16 342.33,-16 342.33,-16 347.67,-16 353,-21.33 353,-26.67 353,-26.67 353,-37.33 353,-37.33 353,-42.67 347.67,-48 342.33,-48 342.33,-48 331.67,-48 331.67,-48 326.33,-48 321,-42.67 321,-37.33 321,-37.33 321,-26.67 321,-26.67 321,-21.33 326.33,-16 331.67,-16"/>
<text text-anchor="start" x="327.5" y="-28.3" font-family="Helvetica,sans-Serif" font-size="14.00">28</text>
<path fill="none" stroke="black" d="M331.67,-16C331.67,-16 342.33,-16 342.33,-16 347.67,-16 353,-21.33 353,-26.67 353,-26.67 353,-37.33 353,-37.33 353,-42.67 347.67,-48 342.33,-48 342.33,-48 331.67,-48 331.67,-48 326.33,-48 321,-42.67 321,-37.33 321,-37.33 321,-26.67 321,-26.67 321,-21.33 326.33,-16 331.67,-16"/>
</a>
</g>
</g>
<!-- function&#45;0&#45;ImmVal -->
<g id="node13" class="node">
<title>function&#45;0&#45;ImmVal</title>
<g id="a_node13"><a xlink:title="Imm&#45;1: function&#45;0&#45;ImmVal">
<path fill="white" stroke="transparent" d="M24.67,-95C24.67,-95 65.33,-95 65.33,-95 70.67,-95 76,-100.33 76,-105.67 76,-105.67 76,-116.33 76,-116.33 76,-121.67 70.67,-127 65.33,-127 65.33,-127 24.67,-127 24.67,-127 19.33,-127 14,-121.67 14,-116.33 14,-116.33 14,-105.67 14,-105.67 14,-100.33 19.33,-95 24.67,-95"/>
<text text-anchor="start" x="19" y="-107.3" font-family="Helvetica,sans-Serif" font-size="14.00">ImmVal</text>
<path fill="none" stroke="black" d="M24.67,-95C24.67,-95 65.33,-95 65.33,-95 70.67,-95 76,-100.33 76,-105.67 76,-105.67 76,-116.33 76,-116.33 76,-121.67 70.67,-127 65.33,-127 65.33,-127 24.67,-127 24.67,-127 19.33,-127 14,-121.67 14,-116.33 14,-116.33 14,-105.67 14,-105.67 14,-100.33 19.33,-95 24.67,-95"/>
</a>
</g>
</g>
<!-- primitive&#45;i64&#45;4 -->
<g id="node14" class="node">
<title>primitive&#45;i64&#45;4</title>
<g id="a_node14"><a xlink:title="i64&#45;4: primitive&#45;i64&#45;4">
<path fill="white" stroke="transparent" d="M39.67,-16C39.67,-16 50.33,-16 50.33,-16 55.67,-16 61,-21.33 61,-26.67 61,-26.67 61,-37.33 61,-37.33 61,-42.67 55.67,-48 50.33,-48 50.33,-48 39.67,-48 39.67,-48 34.33,-48 29,-42.67 29,-37.33 29,-37.33 29,-26.67 29,-26.67 29,-21.33 34.33,-16 39.67,-16"/>
<text text-anchor="start" x="40" y="-28.3" font-family="Helvetica,sans-Serif" font-size="14.00">4</text>
<path fill="none" stroke="black" d="M39.67,-16C39.67,-16 50.33,-16 50.33,-16 55.67,-16 61,-21.33 61,-26.67 61,-26.67 61,-37.33 61,-37.33 61,-42.67 55.67,-48 50.33,-48 50.33,-48 39.67,-48 39.67,-48 34.33,-48 29,-42.67 29,-37.33 29,-37.33 29,-26.67 29,-26.67 29,-21.33 34.33,-16 39.67,-16"/>
</a>
</g>
</g>
<!-- function&#45;0&#45;Lw -->
<g id="node15" class="node">
<title>function&#45;0&#45;Lw</title>
<g id="a_node15"><a xlink:title="Inst&#45;2: function&#45;0&#45;Lw">
<path fill="white" stroke="transparent" d="M74.67,-174C74.67,-174 85.33,-174 85.33,-174 90.67,-174 96,-179.33 96,-184.67 96,-184.67 96,-195.33 96,-195.33 96,-200.67 90.67,-206 85.33,-206 85.33,-206 74.67,-206 74.67,-206 69.33,-206 64,-200.67 64,-195.33 64,-195.33 64,-184.67 64,-184.67 64,-179.33 69.33,-174 74.67,-174"/>
<text text-anchor="start" x="70.5" y="-186.3" font-family="Helvetica,sans-Serif" font-size="14.00">Lw</text>
<path fill="none" stroke="black" d="M74.67,-174C74.67,-174 85.33,-174 85.33,-174 90.67,-174 96,-179.33 96,-184.67 96,-184.67 96,-195.33 96,-195.33 96,-200.67 90.67,-206 85.33,-206 85.33,-206 74.67,-206 74.67,-206 69.33,-206 64,-200.67 64,-195.33 64,-195.33 64,-184.67 64,-184.67 64,-179.33 69.33,-174 74.67,-174"/>
</a>
</g>
</g>
<!-- function&#45;0&#45;RegVal -->
<g id="node16" class="node">
<title>function&#45;0&#45;RegVal</title>
<g id="a_node16"><a xlink:title="Inst&#45;0: function&#45;0&#45;RegVal">
<path fill="white" stroke="transparent" d="M173.17,-95C173.17,-95 208.83,-95 208.83,-95 214.17,-95 219.5,-100.33 219.5,-105.67 219.5,-105.67 219.5,-116.33 219.5,-116.33 219.5,-121.67 214.17,-127 208.83,-127 208.83,-127 173.17,-127 173.17,-127 167.83,-127 162.5,-121.67 162.5,-116.33 162.5,-116.33 162.5,-105.67 162.5,-105.67 162.5,-100.33 167.83,-95 173.17,-95"/>
<text text-anchor="start" x="168" y="-107.3" font-family="Helvetica,sans-Serif" font-size="14.00">RegVal</text>
<path fill="none" stroke="black" d="M173.17,-95C173.17,-95 208.83,-95 208.83,-95 214.17,-95 219.5,-100.33 219.5,-105.67 219.5,-105.67 219.5,-116.33 219.5,-116.33 219.5,-121.67 214.17,-127 208.83,-127 208.83,-127 173.17,-127 173.17,-127 167.83,-127 162.5,-121.67 162.5,-116.33 162.5,-116.33 162.5,-105.67 162.5,-105.67 162.5,-100.33 167.83,-95 173.17,-95"/>
</a>
</g>
</g>
<!-- function&#45;0&#45;Addi -->
<g id="node17" class="node">
<title>function&#45;0&#45;Addi</title>
<g id="a_node17"><a xlink:title="Inst&#45;7: function&#45;0&#45;Addi">
<path fill="white" stroke="transparent" d="M89.17,-253C89.17,-253 108.83,-253 108.83,-253 114.17,-253 119.5,-258.33 119.5,-263.67 119.5,-263.67 119.5,-274.33 119.5,-274.33 119.5,-279.67 114.17,-285 108.83,-285 108.83,-285 89.17,-285 89.17,-285 83.83,-285 78.5,-279.67 78.5,-274.33 78.5,-274.33 78.5,-263.67 78.5,-263.67 78.5,-258.33 83.83,-253 89.17,-253"/>
<text text-anchor="start" x="84" y="-265.3" font-family="Helvetica,sans-Serif" font-size="14.00">Addi</text>
<path fill="none" stroke="black" d="M89.17,-253C89.17,-253 108.83,-253 108.83,-253 114.17,-253 119.5,-258.33 119.5,-263.67 119.5,-263.67 119.5,-274.33 119.5,-274.33 119.5,-279.67 114.17,-285 108.83,-285 108.83,-285 89.17,-285 89.17,-285 83.83,-285 78.5,-279.67 78.5,-274.33 78.5,-274.33 78.5,-263.67 78.5,-263.67 78.5,-258.33 83.83,-253 89.17,-253"/>
</a>
</g>
</g>
<!-- function&#45;1&#45;Lw -->
<g id="node18" class="node">
<title>function&#45;1&#45;Lw</title>
<g id="a_node18"><a xlink:title="Inst&#45;4: function&#45;1&#45;Lw">
<path fill="white" stroke="transparent" d="M181.67,-174C181.67,-174 192.33,-174 192.33,-174 197.67,-174 203,-179.33 203,-184.67 203,-184.67 203,-195.33 203,-195.33 203,-200.67 197.67,-206 192.33,-206 192.33,-206 181.67,-206 181.67,-206 176.33,-206 171,-200.67 171,-195.33 171,-195.33 171,-184.67 171,-184.67 171,-179.33 176.33,-174 181.67,-174"/>
<text text-anchor="start" x="177.5" y="-186.3" font-family="Helvetica,sans-Serif" font-size="14.00">Lw</text>
<path fill="none" stroke="black" d="M181.67,-174C181.67,-174 192.33,-174 192.33,-174 197.67,-174 203,-179.33 203,-184.67 203,-184.67 203,-195.33 203,-195.33 203,-200.67 197.67,-206 192.33,-206 192.33,-206 181.67,-206 181.67,-206 176.33,-206 171,-200.67 171,-195.33 171,-195.33 171,-184.67 171,-184.67 171,-179.33 176.33,-174 181.67,-174"/>
</a>
</g>
</g>
<!-- function&#45;0&#45;Jalr -->
<g id="node19" class="node">
<title>function&#45;0&#45;Jalr</title>
<g id="a_node19"><a xlink:title="Inst&#45;15: function&#45;0&#45;Jalr">
<path fill="white" stroke="transparent" d="M624.17,-253C624.17,-253 635.83,-253 635.83,-253 641.17,-253 646.5,-258.33 646.5,-263.67 646.5,-263.67 646.5,-274.33 646.5,-274.33 646.5,-279.67 641.17,-285 635.83,-285 635.83,-285 624.17,-285 624.17,-285 618.83,-285 613.5,-279.67 613.5,-274.33 613.5,-274.33 613.5,-263.67 613.5,-263.67 613.5,-258.33 618.83,-253 624.17,-253"/>
<text text-anchor="start" x="619" y="-265.3" font-family="Helvetica,sans-Serif" font-size="14.00">Jalr</text>
<path fill="none" stroke="black" d="M624.17,-253C624.17,-253 635.83,-253 635.83,-253 641.17,-253 646.5,-258.33 646.5,-263.67 646.5,-263.67 646.5,-274.33 646.5,-274.33 646.5,-279.67 641.17,-285 635.83,-285 635.83,-285 624.17,-285 624.17,-285 618.83,-285 613.5,-279.67 613.5,-274.33 613.5,-274.33 613.5,-263.67 613.5,-263.67 613.5,-258.33 618.83,-253 624.17,-253"/>
</a>
</g>
</g>
<!-- function&#45;0&#45;Auipc -->
<g id="node20" class="node">
<title>function&#45;0&#45;Auipc</title>
<g id="a_node20"><a xlink:title="Inst&#45;13: function&#45;0&#45;Auipc">
<path fill="white" stroke="transparent" d="M668.67,-174C668.67,-174 697.33,-174 697.33,-174 702.67,-174 708,-179.33 708,-184.67 708,-184.67 708,-195.33 708,-195.33 708,-200.67 702.67,-206 697.33,-206 697.33,-206 668.67,-206 668.67,-206 663.33,-206 658,-200.67 658,-195.33 658,-195.33 658,-184.67 658,-184.67 658,-179.33 663.33,-174 668.67,-174"/>
<text text-anchor="start" x="663" y="-186.3" font-family="Helvetica,sans-Serif" font-size="14.00">Auipc</text>
<path fill="none" stroke="black" d="M668.67,-174C668.67,-174 697.33,-174 697.33,-174 702.67,-174 708,-179.33 708,-184.67 708,-184.67 708,-195.33 708,-195.33 708,-200.67 702.67,-206 697.33,-206 697.33,-206 668.67,-206 668.67,-206 663.33,-206 658,-200.67 658,-195.33 658,-195.33 658,-184.67 658,-184.67 658,-179.33 663.33,-174 668.67,-174"/>
</a>
</g>
</g>
<!-- function&#45;2&#45;Addi -->
<g id="node21" class="node">
<title>function&#45;2&#45;Addi</title>
<g id="a_node21"><a xlink:title="Inst&#45;11: function&#45;2&#45;Addi">
<path fill="white" stroke="transparent" d="M243.17,-174C243.17,-174 262.83,-174 262.83,-174 268.17,-174 273.5,-179.33 273.5,-184.67 273.5,-184.67 273.5,-195.33 273.5,-195.33 273.5,-200.67 268.17,-206 262.83,-206 262.83,-206 243.17,-206 243.17,-206 237.83,-206 232.5,-200.67 232.5,-195.33 232.5,-195.33 232.5,-184.67 232.5,-184.67 232.5,-179.33 237.83,-174 243.17,-174"/>
<text text-anchor="start" x="238" y="-186.3" font-family="Helvetica,sans-Serif" font-size="14.00">Addi</text>
<path fill="none" stroke="black" d="M243.17,-174C243.17,-174 262.83,-174 262.83,-174 268.17,-174 273.5,-179.33 273.5,-184.67 273.5,-184.67 273.5,-195.33 273.5,-195.33 273.5,-200.67 268.17,-206 262.83,-206 262.83,-206 243.17,-206 243.17,-206 237.83,-206 232.5,-200.67 232.5,-195.33 232.5,-195.33 232.5,-184.67 232.5,-184.67 232.5,-179.33 237.83,-174 243.17,-174"/>
</a>
</g>
</g>
<!-- function&#45;2&#45;Lw -->
<g id="node22" class="node">
<title>function&#45;2&#45;Lw</title>
<g id="a_node22"><a xlink:title="Inst&#45;6: function&#45;2&#45;Lw">
<path fill="white" stroke="transparent" d="M318.67,-174C318.67,-174 329.33,-174 329.33,-174 334.67,-174 340,-179.33 340,-184.67 340,-184.67 340,-195.33 340,-195.33 340,-200.67 334.67,-206 329.33,-206 329.33,-206 318.67,-206 318.67,-206 313.33,-206 308,-200.67 308,-195.33 308,-195.33 308,-184.67 308,-184.67 308,-179.33 313.33,-174 318.67,-174"/>
<text text-anchor="start" x="314.5" y="-186.3" font-family="Helvetica,sans-Serif" font-size="14.00">Lw</text>
<path fill="none" stroke="black" d="M318.67,-174C318.67,-174 329.33,-174 329.33,-174 334.67,-174 340,-179.33 340,-184.67 340,-184.67 340,-195.33 340,-195.33 340,-200.67 334.67,-206 329.33,-206 329.33,-206 318.67,-206 318.67,-206 313.33,-206 308,-200.67 308,-195.33 308,-195.33 308,-184.67 308,-184.67 308,-179.33 313.33,-174 318.67,-174"/>
</a>
</g>
</g>
<!-- function&#45;1&#45;Addi -->
<g id="node23" class="node">
<title>function&#45;1&#45;Addi</title>
<g id="a_node23"><a xlink:title="Inst&#45;9: function&#45;1&#45;Addi">
<path fill="white" stroke="transparent" d="M290.17,-253C290.17,-253 309.83,-253 309.83,-253 315.17,-253 320.5,-258.33 320.5,-263.67 320.5,-263.67 320.5,-274.33 320.5,-274.33 320.5,-279.67 315.17,-285 309.83,-285 309.83,-285 290.17,-285 290.17,-285 284.83,-285 279.5,-279.67 279.5,-274.33 279.5,-274.33 279.5,-263.67 279.5,-263.67 279.5,-258.33 284.83,-253 290.17,-253"/>
<text text-anchor="start" x="285" y="-265.3" font-family="Helvetica,sans-Serif" font-size="14.00">Addi</text>
<path fill="none" stroke="black" d="M290.17,-253C290.17,-253 309.83,-253 309.83,-253 315.17,-253 320.5,-258.33 320.5,-263.67 320.5,-263.67 320.5,-274.33 320.5,-274.33 320.5,-279.67 315.17,-285 309.83,-285 309.83,-285 290.17,-285 290.17,-285 284.83,-285 279.5,-279.67 279.5,-274.33 279.5,-274.33 279.5,-263.67 279.5,-263.67 279.5,-258.33 284.83,-253 290.17,-253"/>
</a>
</g>
</g>
<!-- primitive&#45;String&#45;1 -->
<g id="node24" class="node">
<title>primitive&#45;String&#45;1</title>
<g id="a_node24"><a xlink:title="String&#45;1: primitive&#45;String&#45;1">
<path fill="white" stroke="transparent" d="M174.67,-16C174.67,-16 209.33,-16 209.33,-16 214.67,-16 220,-21.33 220,-26.67 220,-26.67 220,-37.33 220,-37.33 220,-42.67 214.67,-48 209.33,-48 209.33,-48 174.67,-48 174.67,-48 169.33,-48 164,-42.67 164,-37.33 164,-37.33 164,-26.67 164,-26.67 164,-21.33 169.33,-16 174.67,-16"/>
<text text-anchor="start" x="169" y="-28.3" font-family="Helvetica,sans-Serif" font-size="14.00">&quot;sp_0&quot;</text>
<path fill="none" stroke="black" d="M174.67,-16C174.67,-16 209.33,-16 209.33,-16 214.67,-16 220,-21.33 220,-26.67 220,-26.67 220,-37.33 220,-37.33 220,-42.67 214.67,-48 209.33,-48 209.33,-48 174.67,-48 174.67,-48 169.33,-48 164,-42.67 164,-37.33 164,-37.33 164,-26.67 164,-26.67 164,-21.33 169.33,-16 174.67,-16"/>
</a>
</g>
</g>
</g>
</svg>
