<?xml version="1.0" encoding="UTF-8" standalone="no"?>
<!DOCTYPE svg PUBLIC "-//W3C//DTD SVG 1.1//EN"
 "http://www.w3.org/Graphics/SVG/1.1/DTD/svg11.dtd">
<!-- Generated by graphviz version 2.43.0 (0)
 -->
<!-- Title: %3 Pages: 1 -->
<svg width="903pt" height="388pt"
 viewBox="0.00 0.00 902.67 388.00" xmlns="http://www.w3.org/2000/svg" xmlns:xlink="http://www.w3.org/1999/xlink">
<g id="graph0" class="graph" transform="scale(1 1) rotate(0) translate(4 384)">
<title>%3</title>
<polygon fill="white" stroke="#000000" points="-4,4 -4,-384 898.67,-384 898.67,4 -4,4"/>
<g id="clust1" class="cluster">
<title>outer_cluster_Imm&#45;9</title>
</g>
<g id="clust2" class="cluster">
<title>cluster_Imm&#45;9</title>
<path fill="#ffffb3" stroke="black" stroke-dasharray="5,2" d="M827.67,-90C827.67,-90 871.67,-90 871.67,-90 877.67,-90 883.67,-96 883.67,-102 883.67,-102 883.67,-120 883.67,-120 883.67,-126 877.67,-132 871.67,-132 871.67,-132 827.67,-132 827.67,-132 821.67,-132 815.67,-126 815.67,-120 815.67,-120 815.67,-102 815.67,-102 815.67,-96 821.67,-90 827.67,-90"/>
</g>
<g id="clust4" class="cluster">
<title>outer_cluster_Imm&#45;5</title>
</g>
<g id="clust5" class="cluster">
<title>cluster_Imm&#45;5</title>
<path fill="#ffffb3" stroke="black" stroke-dasharray="5,2" d="M259.67,-90C259.67,-90 303.67,-90 303.67,-90 309.67,-90 315.67,-96 315.67,-102 315.67,-102 315.67,-120 315.67,-120 315.67,-126 309.67,-132 303.67,-132 303.67,-132 259.67,-132 259.67,-132 253.67,-132 247.67,-126 247.67,-120 247.67,-120 247.67,-102 247.67,-102 247.67,-96 253.67,-90 259.67,-90"/>
</g>
<g id="clust7" class="cluster">
<title>outer_cluster_Imm&#45;7</title>
</g>
<g id="clust8" class="cluster">
<title>cluster_Imm&#45;7</title>
<path fill="#ffffb3" stroke="black" stroke-dasharray="5,2" d="M750.67,-90C750.67,-90 794.67,-90 794.67,-90 800.67,-90 806.67,-96 806.67,-102 806.67,-102 806.67,-120 806.67,-120 806.67,-126 800.67,-132 794.67,-132 794.67,-132 750.67,-132 750.67,-132 744.67,-132 738.67,-126 738.67,-120 738.67,-120 738.67,-102 738.67,-102 738.67,-96 744.67,-90 750.67,-90"/>
</g>
<g id="clust10" class="cluster">
<title>outer_cluster_Imm&#45;18</title>
</g>
<g id="clust11" class="cluster">
<title>cluster_Imm&#45;18</title>
<path fill="#ffffb3" stroke="black" stroke-dasharray="5,2" d="M388.67,-169C388.67,-169 448.67,-169 448.67,-169 454.67,-169 460.67,-175 460.67,-181 460.67,-181 460.67,-199 460.67,-199 460.67,-205 454.67,-211 448.67,-211 448.67,-211 388.67,-211 388.67,-211 382.67,-211 376.67,-205 376.67,-199 376.67,-199 376.67,-181 376.67,-181 376.67,-175 382.67,-169 388.67,-169"/>
</g>
<g id="clust13" class="cluster">
<title>outer_cluster_Imm&#45;3</title>
</g>
<g id="clust14" class="cluster">
<title>cluster_Imm&#45;3</title>
<path fill="#ffffb3" stroke="black" stroke-dasharray="5,2" d="M674.67,-90C674.67,-90 718.67,-90 718.67,-90 724.67,-90 730.67,-96 730.67,-102 730.67,-102 730.67,-120 730.67,-120 730.67,-126 724.67,-132 718.67,-132 718.67,-132 674.67,-132 674.67,-132 668.67,-132 662.67,-126 662.67,-120 662.67,-120 662.67,-102 662.67,-102 662.67,-96 668.67,-90 674.67,-90"/>
</g>
<g id="clust16" class="cluster">
<title>outer_cluster_Imm&#45;15</title>
</g>
<g id="clust17" class="cluster">
<title>cluster_Imm&#45;15</title>
<path fill="#ffffb3" stroke="black" stroke-dasharray="5,2" d="M333.67,-90C333.67,-90 377.67,-90 377.67,-90 383.67,-90 389.67,-96 389.67,-102 389.67,-102 389.67,-120 389.67,-120 389.67,-126 383.67,-132 377.67,-132 377.67,-132 333.67,-132 333.67,-132 327.67,-132 321.67,-126 321.67,-120 321.67,-120 321.67,-102 321.67,-102 321.67,-96 327.67,-90 333.67,-90"/>
</g>
<g id="clust19" class="cluster">
<title>outer_cluster_Inst&#45;20</title>
</g>
<g id="clust20" class="cluster">
<title>cluster_Inst&#45;20</title>
<path fill="#bebada" stroke="black" stroke-dasharray="5,2" d="M214.67,-248C214.67,-248 366.67,-248 366.67,-248 372.67,-248 378.67,-254 378.67,-260 378.67,-260 378.67,-278 378.67,-278 378.67,-284 372.67,-290 366.67,-290 366.67,-290 214.67,-290 214.67,-290 208.67,-290 202.67,-284 202.67,-278 202.67,-278 202.67,-260 202.67,-260 202.67,-254 208.67,-248 214.67,-248"/>
</g>
<g id="clust22" class="cluster">
<title>outer_cluster_Inst&#45;1</title>
</g>
<g id="clust23" class="cluster">
<title>cluster_Inst&#45;1</title>
<path fill="#bebada" stroke="black" stroke-dasharray="5,2" d="M568.67,-169C568.67,-169 608.67,-169 608.67,-169 614.67,-169 620.67,-175 620.67,-181 620.67,-181 620.67,-199 620.67,-199 620.67,-205 614.67,-211 608.67,-211 608.67,-211 568.67,-211 568.67,-211 562.67,-211 556.67,-205 556.67,-199 556.67,-199 556.67,-181 556.67,-181 556.67,-175 562.67,-169 568.67,-169"/>
</g>
<g id="clust25" class="cluster">
<title>outer_cluster_Inst&#45;6</title>
</g>
<g id="clust26" class="cluster">
<title>cluster_Inst&#45;6</title>
<path fill="#bebada" stroke="black" stroke-dasharray="5,2" d="M490.67,-169C490.67,-169 526.67,-169 526.67,-169 532.67,-169 538.67,-175 538.67,-181 538.67,-181 538.67,-199 538.67,-199 538.67,-205 532.67,-211 526.67,-211 526.67,-211 490.67,-211 490.67,-211 484.67,-211 478.67,-205 478.67,-199 478.67,-199 478.67,-181 478.67,-181 478.67,-175 484.67,-169 490.67,-169"/>
</g>
<g id="clust28" class="cluster">
<title>outer_cluster_Inst&#45;22</title>
</g>
<g id="clust29" class="cluster">
<title>cluster_Inst&#45;22</title>
<path fill="#bebada" stroke="black" stroke-dasharray="5,2" d="M32.67,-248C32.67,-248 184.67,-248 184.67,-248 190.67,-248 196.67,-254 196.67,-260 196.67,-260 196.67,-278 196.67,-278 196.67,-284 190.67,-290 184.67,-290 184.67,-290 32.67,-290 32.67,-290 26.67,-290 20.67,-284 20.67,-278 20.67,-278 20.67,-260 20.67,-260 20.67,-254 26.67,-248 32.67,-248"/>
</g>
<g id="clust31" class="cluster">
<title>outer_cluster_Inst&#45;0</title>
</g>
<g id="clust32" class="cluster">
<title>cluster_Inst&#45;0</title>
<path fill="#bebada" stroke="black" stroke-dasharray="5,2" d="M39.67,-169C39.67,-169 79.67,-169 79.67,-169 85.67,-169 91.67,-175 91.67,-181 91.67,-181 91.67,-199 91.67,-199 91.67,-205 85.67,-211 79.67,-211 79.67,-211 39.67,-211 39.67,-211 33.67,-211 27.67,-205 27.67,-199 27.67,-199 27.67,-181 27.67,-181 27.67,-175 33.67,-169 39.67,-169"/>
</g>
<g id="clust34" class="cluster">
<title>outer_cluster_Inst&#45;4</title>
</g>
<g id="clust35" class="cluster">
<title>cluster_Inst&#45;4</title>
<path fill="#bebada" stroke="black" stroke-dasharray="5,2" d="M638.67,-169C638.67,-169 674.67,-169 674.67,-169 680.67,-169 686.67,-175 686.67,-181 686.67,-181 686.67,-199 686.67,-199 686.67,-205 680.67,-211 674.67,-211 674.67,-211 638.67,-211 638.67,-211 632.67,-211 626.67,-205 626.67,-199 626.67,-199 626.67,-181 626.67,-181 626.67,-175 632.67,-169 638.67,-169"/>
</g>
<g id="clust37" class="cluster">
<title>outer_cluster_Inst&#45;2</title>
</g>
<g id="clust38" class="cluster">
<title>cluster_Inst&#45;2</title>
<path fill="#bebada" stroke="black" stroke-dasharray="5,2" d="M604.67,-90C604.67,-90 644.67,-90 644.67,-90 650.67,-90 656.67,-96 656.67,-102 656.67,-102 656.67,-120 656.67,-120 656.67,-126 650.67,-132 644.67,-132 644.67,-132 604.67,-132 604.67,-132 598.67,-132 592.67,-126 592.67,-120 592.67,-120 592.67,-102 592.67,-102 592.67,-96 598.67,-90 604.67,-90"/>
</g>
<g id="clust40" class="cluster">
<title>outer_cluster_Inst&#45;21</title>
</g>
<g id="clust41" class="cluster">
<title>cluster_Inst&#45;21</title>
<path fill="#bebada" stroke="black" stroke-dasharray="5,2" d="M438.67,-248C438.67,-248 474.67,-248 474.67,-248 480.67,-248 486.67,-254 486.67,-260 486.67,-260 486.67,-278 486.67,-278 486.67,-284 480.67,-290 474.67,-290 474.67,-290 438.67,-290 438.67,-290 432.67,-290 426.67,-284 426.67,-278 426.67,-278 426.67,-260 426.67,-260 426.67,-254 432.67,-248 438.67,-248"/>
</g>
<g id="clust43" class="cluster">
<title>outer_cluster_Inst&#45;8</title>
</g>
<g id="clust44" class="cluster">
<title>cluster_Inst&#45;8</title>
<path fill="#bebada" stroke="black" stroke-dasharray="5,2" d="M716.67,-169C716.67,-169 752.67,-169 752.67,-169 758.67,-169 764.67,-175 764.67,-181 764.67,-181 764.67,-199 764.67,-199 764.67,-205 758.67,-211 752.67,-211 752.67,-211 716.67,-211 716.67,-211 710.67,-211 704.67,-205 704.67,-199 704.67,-199 704.67,-181 704.67,-181 704.67,-175 710.67,-169 716.67,-169"/>
</g>
<g id="clust46" class="cluster">
<title>outer_cluster_Inst&#45;10</title>
</g>
<g id="clust47" class="cluster">
<title>cluster_Inst&#45;10</title>
<path fill="#bebada" stroke="black" stroke-dasharray="5,2" d="M794.67,-169C794.67,-169 830.67,-169 830.67,-169 836.67,-169 842.67,-175 842.67,-181 842.67,-181 842.67,-199 842.67,-199 842.67,-205 836.67,-211 830.67,-211 830.67,-211 794.67,-211 794.67,-211 788.67,-211 782.67,-205 782.67,-199 782.67,-199 782.67,-181 782.67,-181 782.67,-175 788.67,-169 794.67,-169"/>
</g>
<g id="clust49" class="cluster">
<title>outer_cluster_Inst&#45;12</title>
</g>
<g id="clust50" class="cluster">
<title>cluster_Inst&#45;12</title>
<path fill="#bebada" stroke="black" stroke-dasharray="5,2" d="M504.67,-248C504.67,-248 540.67,-248 540.67,-248 546.67,-248 552.67,-254 552.67,-260 552.67,-260 552.67,-278 552.67,-278 552.67,-284 546.67,-290 540.67,-290 540.67,-290 504.67,-290 504.67,-290 498.67,-290 492.67,-284 492.67,-278 492.67,-278 492.67,-260 492.67,-260 492.67,-254 498.67,-248 504.67,-248"/>
</g>
<g id="clust52" class="cluster">
<title>outer_cluster_Inst&#45;23</title>
</g>
<g id="clust53" class="cluster">
<title>cluster_Inst&#45;23</title>
<path fill="#bebada" stroke="black" stroke-dasharray="5,2" d="M225.67,-169C225.67,-169 261.67,-169 261.67,-169 267.67,-169 273.67,-175 273.67,-181 273.67,-181 273.67,-199 273.67,-199 273.67,-205 267.67,-211 261.67,-211 261.67,-211 225.67,-211 225.67,-211 219.67,-211 213.67,-205 213.67,-199 213.67,-199 213.67,-181 213.67,-181 213.67,-175 219.67,-169 225.67,-169"/>
</g>
<g id="clust55" class="cluster">
<title>outer_cluster_Inst&#45;16</title>
</g>
<g id="clust56" class="cluster">
<title>cluster_Inst&#45;16</title>
<path fill="#bebada" stroke="black" stroke-dasharray="5,2" d="M322.67,-169C322.67,-169 358.67,-169 358.67,-169 364.67,-169 370.67,-175 370.67,-181 370.67,-181 370.67,-199 370.67,-199 370.67,-205 364.67,-211 358.67,-211 358.67,-211 322.67,-211 322.67,-211 316.67,-211 310.67,-205 310.67,-199 310.67,-199 310.67,-181 310.67,-181 310.67,-175 316.67,-169 322.67,-169"/>
</g>
<g id="clust58" class="cluster">
<title>outer_cluster_Inst&#45;11</title>
</g>
<g id="clust59" class="cluster">
<title>cluster_Inst&#45;11</title>
<path fill="#bebada" stroke="black" stroke-dasharray="5,2" d="M636.67,-248C636.67,-248 672.67,-248 672.67,-248 678.67,-248 684.67,-254 684.67,-260 684.67,-260 684.67,-278 684.67,-278 684.67,-284 678.67,-290 672.67,-290 672.67,-290 636.67,-290 636.67,-290 630.67,-290 624.67,-284 624.67,-278 624.67,-278 624.67,-260 624.67,-260 624.67,-254 630.67,-248 636.67,-248"/>
</g>
<g id="clust61" class="cluster">
<title>outer_cluster_Inst&#45;19</title>
</g>
<g id="clust62" class="cluster">
<title>cluster_Inst&#45;19</title>
<path fill="#bebada" stroke="black" stroke-dasharray="5,2" d="M318.67,-327C318.67,-327 470.67,-327 470.67,-327 476.67,-327 482.67,-333 482.67,-339 482.67,-339 482.67,-357 482.67,-357 482.67,-363 476.67,-369 470.67,-369 470.67,-369 318.67,-369 318.67,-369 312.67,-369 306.67,-363 306.67,-357 306.67,-357 306.67,-339 306.67,-339 306.67,-333 312.67,-327 318.67,-327"/>
</g>
<g id="clust64" class="cluster">
<title>outer_cluster_Inst&#45;13</title>
</g>
<g id="clust65" class="cluster">
<title>cluster_Inst&#45;13</title>
<path fill="#bebada" stroke="black" stroke-dasharray="5,2" d="M712.67,-248C712.67,-248 748.67,-248 748.67,-248 754.67,-248 760.67,-254 760.67,-260 760.67,-260 760.67,-278 760.67,-278 760.67,-284 754.67,-290 748.67,-290 748.67,-290 712.67,-290 712.67,-290 706.67,-290 700.67,-284 700.67,-278 700.67,-278 700.67,-260 700.67,-260 700.67,-254 706.67,-248 712.67,-248"/>
</g>
<g id="clust67" class="cluster">
<title>outer_cluster_Inst&#45;14</title>
</g>
<g id="clust68" class="cluster">
<title>cluster_Inst&#45;14</title>
<path fill="#bebada" stroke="black" stroke-dasharray="5,2" d="M790.67,-248C790.67,-248 826.67,-248 826.67,-248 832.67,-248 838.67,-254 838.67,-260 838.67,-260 838.67,-278 838.67,-278 838.67,-284 832.67,-290 826.67,-290 826.67,-290 790.67,-290 790.67,-290 784.67,-290 778.67,-284 778.67,-278 778.67,-278 778.67,-260 778.67,-260 778.67,-254 784.67,-248 790.67,-248"/>
</g>
<g id="clust70" class="cluster">
<title>outer_cluster_Inst&#45;17</title>
</g>
<g id="clust71" class="cluster">
<title>cluster_Inst&#45;17</title>
<path fill="#bebada" stroke="black" stroke-dasharray="5,2" d="M570.67,-248C570.67,-248 606.67,-248 606.67,-248 612.67,-248 618.67,-254 618.67,-260 618.67,-260 618.67,-278 618.67,-278 618.67,-284 612.67,-290 606.67,-290 606.67,-290 570.67,-290 570.67,-290 564.67,-290 558.67,-284 558.67,-278 558.67,-278 558.67,-260 558.67,-260 558.67,-254 564.67,-248 570.67,-248"/>
</g>
<g id="clust73" class="cluster">
<title>outer_cluster_String&#45;4</title>
</g>
<g id="clust74" class="cluster">
<title>cluster_String&#45;4</title>
<path fill="#fb8072" stroke="black" stroke-dasharray="5,2" d="M407.67,-90C407.67,-90 443.67,-90 443.67,-90 449.67,-90 455.67,-96 455.67,-102 455.67,-102 455.67,-120 455.67,-120 455.67,-126 449.67,-132 443.67,-132 443.67,-132 407.67,-132 407.67,-132 401.67,-132 395.67,-126 395.67,-120 395.67,-120 395.67,-102 395.67,-102 395.67,-96 401.67,-90 407.67,-90"/>
</g>
<g id="clust76" class="cluster">
<title>outer_cluster_String&#45;2</title>
</g>
<g id="clust77" class="cluster">
<title>cluster_String&#45;2</title>
<path fill="#fb8072" stroke="black" stroke-dasharray="5,2" d="M534.67,-90C534.67,-90 574.67,-90 574.67,-90 580.67,-90 586.67,-96 586.67,-102 586.67,-102 586.67,-120 586.67,-120 586.67,-126 580.67,-132 574.67,-132 574.67,-132 534.67,-132 534.67,-132 528.67,-132 522.67,-126 522.67,-120 522.67,-120 522.67,-102 522.67,-102 522.67,-96 528.67,-90 534.67,-90"/>
</g>
<g id="clust79" class="cluster">
<title>outer_cluster_String&#45;3</title>
</g>
<g id="clust80" class="cluster">
<title>cluster_String&#45;3</title>
<path fill="#fb8072" stroke="black" stroke-dasharray="5,2" d="M605.67,-11C605.67,-11 645.67,-11 645.67,-11 651.67,-11 657.67,-17 657.67,-23 657.67,-23 657.67,-41 657.67,-41 657.67,-47 651.67,-53 645.67,-53 645.67,-53 605.67,-53 605.67,-53 599.67,-53 593.67,-47 593.67,-41 593.67,-41 593.67,-23 593.67,-23 593.67,-17 599.67,-11 605.67,-11"/>
</g>
<g id="clust82" class="cluster">
<title>outer_cluster_String&#45;1</title>
</g>
<g id="clust83" class="cluster">
<title>cluster_String&#45;1</title>
<path fill="#fb8072" stroke="black" stroke-dasharray="5,2" d="M40.67,-90C40.67,-90 80.67,-90 80.67,-90 86.67,-90 92.67,-96 92.67,-102 92.67,-102 92.67,-120 92.67,-120 92.67,-126 86.67,-132 80.67,-132 80.67,-132 40.67,-132 40.67,-132 34.67,-132 28.67,-126 28.67,-120 28.67,-120 28.67,-102 28.67,-102 28.67,-96 34.67,-90 40.67,-90"/>
</g>
<g id="clust85" class="cluster">
<title>outer_cluster_i64&#45;16</title>
</g>
<g id="clust86" class="cluster">
<title>cluster_i64&#45;16</title>
<path fill="#80b1d3" stroke="black" stroke-dasharray="5,2" d="M337.67,-11C337.67,-11 373.67,-11 373.67,-11 379.67,-11 385.67,-17 385.67,-23 385.67,-23 385.67,-41 385.67,-41 385.67,-47 379.67,-53 373.67,-53 373.67,-53 337.67,-53 337.67,-53 331.67,-53 325.67,-47 325.67,-41 325.67,-41 325.67,-23 325.67,-23 325.67,-17 331.67,-11 337.67,-11"/>
</g>
<g id="clust88" class="cluster">
<title>outer_cluster_i64&#45;8</title>
</g>
<g id="clust89" class="cluster">
<title>cluster_i64&#45;8</title>
<path fill="#80b1d3" stroke="black" stroke-dasharray="5,2" d="M754.67,-11C754.67,-11 790.67,-11 790.67,-11 796.67,-11 802.67,-17 802.67,-23 802.67,-23 802.67,-41 802.67,-41 802.67,-47 796.67,-53 790.67,-53 790.67,-53 754.67,-53 754.67,-53 748.67,-53 742.67,-47 742.67,-41 742.67,-41 742.67,-23 742.67,-23 742.67,-17 748.67,-11 754.67,-11"/>
</g>
<g id="clust91" class="cluster">
<title>outer_cluster_i64&#45;0</title>
</g>
<g id="clust92" class="cluster">
<title>cluster_i64&#45;0</title>
<path fill="#80b1d3" stroke="black" stroke-dasharray="5,2" d="M678.67,-11C678.67,-11 714.67,-11 714.67,-11 720.67,-11 726.67,-17 726.67,-23 726.67,-23 726.67,-41 726.67,-41 726.67,-47 720.67,-53 714.67,-53 714.67,-53 678.67,-53 678.67,-53 672.67,-53 666.67,-47 666.67,-41 666.67,-41 666.67,-23 666.67,-23 666.67,-17 672.67,-11 678.67,-11"/>
</g>
<g id="clust94" class="cluster">
<title>outer_cluster_i64&#45;4</title>
</g>
<g id="clust95" class="cluster">
<title>cluster_i64&#45;4</title>
<path fill="#80b1d3" stroke="black" stroke-dasharray="5,2" d="M263.67,-11C263.67,-11 299.67,-11 299.67,-11 305.67,-11 311.67,-17 311.67,-23 311.67,-23 311.67,-41 311.67,-41 311.67,-47 305.67,-53 299.67,-53 299.67,-53 263.67,-53 263.67,-53 257.67,-53 251.67,-47 251.67,-41 251.67,-41 251.67,-23 251.67,-23 251.67,-17 257.67,-11 263.67,-11"/>
</g>
<g id="clust97" class="cluster">
<title>outer_cluster_i64&#45;12</title>
</g>
<g id="clust98" class="cluster">
<title>cluster_i64&#45;12</title>
<path fill="#80b1d3" stroke="black" stroke-dasharray="5,2" d="M831.67,-11C831.67,-11 867.67,-11 867.67,-11 873.67,-11 879.67,-17 879.67,-23 879.67,-23 879.67,-41 879.67,-41 879.67,-47 873.67,-53 867.67,-53 867.67,-53 831.67,-53 831.67,-53 825.67,-53 819.67,-47 819.67,-41 819.67,-41 819.67,-23 819.67,-23 819.67,-17 825.67,-11 831.67,-11"/>
</g>
<!-- function&#45;3&#45;ImmVal&#45;&gt;primitive&#45;i64&#45;12 -->
<g id="edge1" class="edge">
<title>function&#45;3&#45;ImmVal:s&#45;&gt;primitive&#45;i64&#45;12</title>
<path fill="none" stroke="black" d="M849.67,-95C849.67,-81.84 849.67,-67.11 849.67,-55.3"/>
<polygon fill="black" stroke="black" points="851.42,-58 849.67,-53 847.92,-58 851.42,-58"/>
</g>
<!-- function&#45;1&#45;ImmVal&#45;&gt;primitive&#45;i64&#45;4 -->
<g id="edge2" class="edge">
<title>function&#45;1&#45;ImmVal:s&#45;&gt;primitive&#45;i64&#45;4</title>
<path fill="none" stroke="black" d="M281.67,-95C281.67,-81.84 281.67,-67.11 281.67,-55.3"/>
<polygon fill="black" stroke="black" points="283.42,-58 281.67,-53 279.92,-58 283.42,-58"/>
</g>
<!-- function&#45;2&#45;ImmVal&#45;&gt;primitive&#45;i64&#45;8 -->
<g id="edge3" class="edge">
<title>function&#45;2&#45;ImmVal:s&#45;&gt;primitive&#45;i64&#45;8</title>
<path fill="none" stroke="black" d="M772.67,-95C772.67,-81.84 772.67,-67.11 772.67,-55.3"/>
<polygon fill="black" stroke="black" points="774.42,-58 772.67,-53 770.92,-58 774.42,-58"/>
</g>
<!-- function&#45;0&#45;ImmLabel&#45;&gt;primitive&#45;String&#45;4 -->
<g id="edge4" class="edge">
<title>function&#45;0&#45;ImmLabel:s&#45;&gt;primitive&#45;String&#45;4</title>
<path fill="none" stroke="black" d="M419.67,-174C419.67,-160.78 421.04,-146.04 422.47,-134.25"/>
<polygon fill="black" stroke="black" points="423.4,-137.29 423.12,-132 420.04,-136.31 423.4,-137.29"/>
</g>
<!-- function&#45;0&#45;ImmVal&#45;&gt;primitive&#45;i64&#45;0 -->
<g id="edge5" class="edge">
<title>function&#45;0&#45;ImmVal:s&#45;&gt;primitive&#45;i64&#45;0</title>
<path fill="none" stroke="black" d="M696.67,-95C696.67,-81.84 696.67,-67.11 696.67,-55.3"/>
<polygon fill="black" stroke="black" points="698.42,-58 696.67,-53 694.92,-58 698.42,-58"/>
</g>
<!-- function&#45;4&#45;ImmVal&#45;&gt;primitive&#45;i64&#45;16 -->
<g id="edge6" class="edge">
<title>function&#45;4&#45;ImmVal:s&#45;&gt;primitive&#45;i64&#45;16</title>
<path fill="none" stroke="black" d="M355.67,-95C355.67,-81.84 355.67,-67.11 355.67,-55.3"/>
<polygon fill="black" stroke="black" points="357.42,-58 355.67,-53 353.92,-58 357.42,-58"/>
</g>
<!-- function&#45;0&#45;Beq&#45;&gt;function&#45;1&#45;ImmVal -->
<g id="edge9" class="edge">
<title>function&#45;0&#45;Beq:s&#45;&gt;function&#45;1&#45;ImmVal</title>
<path fill="none" stroke="black" d="M304.67,-253C304.67,-235.21 298.88,-231.5 295.67,-214 290.64,-186.61 286.54,-154.78 284.11,-134.06"/>
<polygon fill="black" stroke="black" points="286.57,-136.33 283.53,-132 283.21,-137.29 286.57,-136.33"/>
</g>
<!-- function&#45;0&#45;Beq&#45;&gt;function&#45;0&#45;Addi -->
<g id="edge7" class="edge">
<title>function&#45;0&#45;Beq:s&#45;&gt;function&#45;0&#45;Addi</title>
<path fill="none" stroke="black" d="M281.67,-253C281.67,-234.82 295.14,-219.86 309.21,-209.19"/>
<polygon fill="black" stroke="black" points="307.87,-212.52 310.67,-208.02 305.68,-209.79 307.87,-212.52"/>
</g>
<!-- function&#45;0&#45;Beq&#45;&gt;function&#45;0&#45;RegVal -->
<g id="edge8" class="edge">
<title>function&#45;0&#45;Beq:s&#45;&gt;function&#45;0&#45;RegVal</title>
<path fill="none" stroke="black" d="M295.67,-253C295.67,-232.36 158.85,-207.2 93.56,-196.38"/>
<polygon fill="black" stroke="black" points="96.95,-195.94 91.67,-195.56 95.56,-199.15 96.95,-195.94"/>
</g>
<!-- function&#45;0&#45;Addi&#45;&gt;function&#45;4&#45;ImmVal -->
<g id="edge40" class="edge">
<title>function&#45;0&#45;Addi:s&#45;&gt;function&#45;4&#45;ImmVal</title>
<path fill="none" stroke="black" d="M350.67,-174C350.67,-160.8 351.81,-146.06 353,-134.27"/>
<polygon fill="black" stroke="black" points="354.08,-137.27 353.55,-132 350.67,-136.45 354.08,-137.27"/>
</g>
<!-- function&#45;0&#45;Addi&#45;&gt;function&#45;2&#45;RegVal -->
<g id="edge39" class="edge">
<title>function&#45;0&#45;Addi:s&#45;&gt;function&#45;2&#45;RegVal</title>
<path fill="none" stroke="black" d="M330.67,-174C330.67,-116.24 533.42,-154.84 587.67,-135 588.4,-134.73 589.13,-134.45 589.87,-134.15"/>
<polygon fill="black" stroke="black" points="590.84,-135.63 594.7,-132 589.42,-132.44 590.84,-135.63"/>
</g>
<!-- function&#45;0&#45;RegVal&#45;&gt;primitive&#45;String&#45;1 -->
<g id="edge26" class="edge">
<title>function&#45;0&#45;RegVal:s&#45;&gt;primitive&#45;String&#45;1</title>
<path fill="none" stroke="black" d="M60.67,-174C60.67,-160.84 60.67,-146.11 60.67,-134.3"/>
<polygon fill="black" stroke="black" points="62.42,-137 60.67,-132 58.92,-137 62.42,-137"/>
</g>
<!-- function&#45;1&#45;Beq&#45;&gt;function&#45;1&#45;ImmVal -->
<g id="edge12" class="edge">
<title>function&#45;1&#45;Beq:s&#45;&gt;function&#45;1&#45;ImmVal</title>
<path fill="none" stroke="black" d="M362.67,-253C362.67,-223.75 326.23,-238.1 309.67,-214 300.79,-201.09 291.31,-160.08 285.97,-134.16"/>
<polygon fill="black" stroke="black" points="288.67,-135.79 284.96,-132 285.5,-137.27 288.67,-135.79"/>
</g>
<!-- function&#45;1&#45;Beq&#45;&gt;function&#45;0&#45;Addi -->
<g id="edge11" class="edge">
<title>function&#45;1&#45;Beq:s&#45;&gt;function&#45;0&#45;Addi</title>
<path fill="none" stroke="black" d="M353.67,-253C353.67,-239.53 350.69,-224.75 347.59,-213.01"/>
<polygon fill="black" stroke="black" points="350.48,-214.2 346.26,-211 347.56,-216.13 350.48,-214.2"/>
</g>
<!-- function&#45;1&#45;Beq&#45;&gt;function&#45;0&#45;RegVal -->
<g id="edge10" class="edge">
<title>function&#45;1&#45;Beq:s&#45;&gt;function&#45;0&#45;RegVal</title>
<path fill="none" stroke="black" d="M339.67,-253C339.67,-240.53 168.02,-209.58 93.51,-196.73"/>
<polygon fill="black" stroke="black" points="96.93,-196.44 91.67,-195.84 95.4,-199.59 96.93,-196.44"/>
</g>
<!-- function&#45;1&#45;Seq2&#45;&gt;function&#45;2&#45;Bne -->
<g id="edge13" class="edge">
<title>function&#45;1&#45;Seq2:s&#45;&gt;function&#45;2&#45;Bne</title>
<path fill="none" stroke="black" d="M221.67,-253C221.67,-190.28 139.54,-195 83.67,-223.5 74.13,-228.36 66.71,-237.41 61.34,-246.17"/>
<polygon fill="black" stroke="black" points="61.79,-243.19 59.57,-248 64.3,-245.62 61.79,-243.19"/>
</g>
<!-- function&#45;1&#45;Seq2&#45;&gt;function&#45;1&#45;Jal -->
<g id="edge14" class="edge">
<title>function&#45;1&#45;Seq2:s&#45;&gt;function&#45;1&#45;Jal</title>
<path fill="none" stroke="black" d="M243.67,-253C243.67,-239.84 243.67,-225.11 243.67,-213.3"/>
<polygon fill="black" stroke="black" points="245.42,-216 243.67,-211 241.92,-216 245.42,-216"/>
</g>
<!-- function&#45;2&#45;Bne&#45;&gt;function&#45;1&#45;ImmVal -->
<g id="edge20" class="edge">
<title>function&#45;2&#45;Bne:s&#45;&gt;function&#45;1&#45;ImmVal</title>
<path fill="none" stroke="black" d="M64.67,-253C64.67,-239.01 144,-173.71 155.67,-166 183.89,-147.35 219.62,-132.76 245.82,-123.47"/>
<polygon fill="black" stroke="black" points="243.57,-126.16 247.67,-122.8 242.37,-122.87 243.57,-126.16"/>
</g>
<!-- function&#45;2&#45;Bne&#45;&gt;function&#45;0&#45;Addi -->
<g id="edge18" class="edge">
<title>function&#45;2&#45;Bne:s&#45;&gt;function&#45;0&#45;Addi</title>
<path fill="none" stroke="black" d="M41.67,-253C41.67,-200.5 223.77,-226.85 274.67,-214 285.89,-211.17 297.91,-207.25 308.58,-203.45"/>
<polygon fill="black" stroke="black" points="307.94,-206.26 310.67,-201.72 305.7,-203.57 307.94,-206.26"/>
</g>
<!-- function&#45;2&#45;Bne&#45;&gt;function&#45;0&#45;RegVal -->
<g id="edge19" class="edge">
<title>function&#45;2&#45;Bne:s&#45;&gt;function&#45;0&#45;RegVal</title>
<path fill="none" stroke="black" d="M55.67,-253C55.67,-239.81 56.58,-225.08 57.53,-213.28"/>
<polygon fill="black" stroke="black" points="58.75,-216.24 57.97,-211 55.31,-215.58 58.75,-216.24"/>
</g>
<!-- function&#45;1&#45;Jal&#45;&gt;function&#45;1&#45;ImmVal -->
<g id="edge38" class="edge">
<title>function&#45;1&#45;Jal:s&#45;&gt;function&#45;1&#45;ImmVal</title>
<path fill="none" stroke="black" d="M243.67,-174C243.67,-158.82 252.05,-144.22 260.94,-133.01"/>
<polygon fill="black" stroke="black" points="259.38,-136.47 262.22,-132 257.21,-133.72 259.38,-136.47"/>
</g>
<!-- function&#45;1&#45;RegVal&#45;&gt;primitive&#45;String&#45;2 -->
<g id="edge15" class="edge">
<title>function&#45;1&#45;RegVal:s&#45;&gt;primitive&#45;String&#45;2</title>
<path fill="none" stroke="black" d="M589.67,-174C589.67,-159.03 581.83,-144.34 573.58,-133.03"/>
<polygon fill="black" stroke="black" points="577.32,-134.25 572.53,-132 574.87,-136.75 577.32,-134.25"/>
</g>
<!-- function&#45;1&#45;Lw&#45;&gt;function&#45;1&#45;ImmVal -->
<g id="edge17" class="edge">
<title>function&#45;1&#45;Lw:s&#45;&gt;function&#45;1&#45;ImmVal</title>
<path fill="none" stroke="black" d="M516.67,-174C516.67,-129.59 362.16,-150.84 320.67,-135 319.94,-134.72 319.22,-134.43 318.49,-134.13"/>
<polygon fill="black" stroke="black" points="318.97,-132.43 313.69,-132 317.54,-135.63 318.97,-132.43"/>
</g>
<!-- function&#45;1&#45;Lw&#45;&gt;function&#45;2&#45;RegVal -->
<g id="edge16" class="edge">
<title>function&#45;1&#45;Lw:s&#45;&gt;function&#45;2&#45;RegVal</title>
<path fill="none" stroke="black" d="M500.67,-174C500.67,-131.63 550.25,-154.9 587.67,-135 588,-134.82 588.34,-134.64 588.68,-134.46"/>
<polygon fill="black" stroke="black" points="589.6,-135.95 593.12,-132 587.9,-132.89 589.6,-135.95"/>
</g>
<!-- function&#45;2&#45;RegVal&#45;&gt;primitive&#45;String&#45;3 -->
<g id="edge29" class="edge">
<title>function&#45;2&#45;RegVal:s&#45;&gt;primitive&#45;String&#45;3</title>
<path fill="none" stroke="black" d="M625.67,-95C625.67,-81.84 625.67,-67.11 625.67,-55.3"/>
<polygon fill="black" stroke="black" points="627.42,-58 625.67,-53 623.92,-58 627.42,-58"/>
</g>
<!-- function&#45;3&#45;Bne&#45;&gt;function&#45;1&#45;ImmVal -->
<g id="edge23" class="edge">
<title>function&#45;3&#45;Bne:s&#45;&gt;function&#45;1&#45;ImmVal</title>
<path fill="none" stroke="black" d="M122.67,-253C122.67,-235.54 209.59,-166.81 254.9,-132.18"/>
<polygon fill="black" stroke="black" points="251.28,-134.61 255.89,-132 250.65,-131.17 251.28,-134.61"/>
</g>
<!-- function&#45;3&#45;Bne&#45;&gt;function&#45;0&#45;Addi -->
<g id="edge22" class="edge">
<title>function&#45;3&#45;Bne:s&#45;&gt;function&#45;0&#45;Addi</title>
<path fill="none" stroke="black" d="M113.67,-253C113.67,-240.91 127.99,-248.13 139.67,-245 199.13,-229.05 215.51,-231.04 274.67,-214 285.89,-210.77 298,-206.71 308.75,-202.91"/>
<polygon fill="black" stroke="black" points="306.61,-205.6 310.67,-202.19 305.37,-202.32 306.61,-205.6"/>
</g>
<!-- function&#45;3&#45;Bne&#45;&gt;function&#45;0&#45;RegVal -->
<g id="edge21" class="edge">
<title>function&#45;3&#45;Bne:s&#45;&gt;function&#45;0&#45;RegVal</title>
<path fill="none" stroke="black" d="M99.67,-253C99.67,-237.71 90.97,-223.2 81.69,-212.07"/>
<polygon fill="black" stroke="black" points="85.31,-212.6 80.26,-211 83.22,-215.4 85.31,-212.6"/>
</g>
<!-- function&#45;2&#45;Seq2&#45;&gt;function&#45;1&#45;Seq2 -->
<g id="edge24" class="edge">
<title>function&#45;2&#45;Seq2:s&#45;&gt;function&#45;1&#45;Seq2</title>
<path fill="none" stroke="black" d="M155.67,-253C155.67,-232.44 179.75,-239.47 200.8,-249.89"/>
<polygon fill="black" stroke="black" points="197.62,-249.68 202.67,-251.3 199.73,-246.89 197.62,-249.68"/>
</g>
<!-- function&#45;2&#45;Seq2&#45;&gt;function&#45;1&#45;Jal -->
<g id="edge25" class="edge">
<title>function&#45;2&#45;Seq2:s&#45;&gt;function&#45;1&#45;Jal</title>
<path fill="none" stroke="black" d="M177.67,-253C177.67,-232.45 194.87,-216.72 211.72,-206.25"/>
<polygon fill="black" stroke="black" points="211.2,-209.12 213.67,-204.44 208.81,-206.56 211.2,-209.12"/>
</g>
<!-- function&#45;0&#45;Lw&#45;&gt;function&#45;0&#45;ImmVal -->
<g id="edge28" class="edge">
<title>function&#45;0&#45;Lw:s&#45;&gt;function&#45;0&#45;ImmVal</title>
<path fill="none" stroke="black" d="M664.67,-174C664.67,-159.46 671.71,-144.92 679.18,-133.58"/>
<polygon fill="black" stroke="black" points="678.34,-136.48 681.17,-132 676.16,-133.74 678.34,-136.48"/>
</g>
<!-- function&#45;0&#45;Lw&#45;&gt;function&#45;2&#45;RegVal -->
<g id="edge27" class="edge">
<title>function&#45;0&#45;Lw:s&#45;&gt;function&#45;2&#45;RegVal</title>
<path fill="none" stroke="black" d="M648.67,-174C648.67,-160.06 643.33,-145.48 637.69,-133.96"/>
<polygon fill="black" stroke="black" points="640.62,-135.02 636.26,-132 637.78,-137.08 640.62,-135.02"/>
</g>
<!-- function&#45;0&#45;Jal&#45;&gt;function&#45;0&#45;ImmLabel -->
<g id="edge30" class="edge">
<title>function&#45;0&#45;Jal:s&#45;&gt;function&#45;0&#45;ImmLabel</title>
<path fill="none" stroke="black" d="M456.67,-253C456.67,-237.82 448.28,-223.22 439.39,-212.01"/>
<polygon fill="black" stroke="black" points="443.12,-212.72 438.11,-211 440.96,-215.47 443.12,-212.72"/>
</g>
<!-- function&#45;2&#45;Lw&#45;&gt;function&#45;2&#45;ImmVal -->
<g id="edge32" class="edge">
<title>function&#45;2&#45;Lw:s&#45;&gt;function&#45;2&#45;ImmVal</title>
<path fill="none" stroke="black" d="M742.67,-174C742.67,-159.54 749.36,-144.9 756.43,-133.48"/>
<polygon fill="black" stroke="black" points="755.48,-136.52 758.25,-132 753.27,-133.81 755.48,-136.52"/>
</g>
<!-- function&#45;2&#45;Lw&#45;&gt;function&#45;2&#45;RegVal -->
<g id="edge31" class="edge">
<title>function&#45;2&#45;Lw:s&#45;&gt;function&#45;2&#45;RegVal</title>
<path fill="none" stroke="black" d="M726.67,-174C726.67,-140.31 690.42,-152.56 661.67,-135 661.46,-134.88 661.26,-134.75 661.05,-134.62"/>
<polygon fill="black" stroke="black" points="661.84,-133.06 656.67,-131.93 660.01,-136.04 661.84,-133.06"/>
</g>
<!-- function&#45;3&#45;Lw&#45;&gt;function&#45;3&#45;ImmVal -->
<g id="edge34" class="edge">
<title>function&#45;3&#45;Lw:s&#45;&gt;function&#45;3&#45;ImmVal</title>
<path fill="none" stroke="black" d="M820.67,-174C820.67,-159.63 827.14,-145 833.97,-133.56"/>
<polygon fill="black" stroke="black" points="833.16,-136.65 835.69,-132 830.81,-134.06 833.16,-136.65"/>
</g>
<!-- function&#45;3&#45;Lw&#45;&gt;function&#45;2&#45;RegVal -->
<g id="edge33" class="edge">
<title>function&#45;3&#45;Lw:s&#45;&gt;function&#45;2&#45;RegVal</title>
<path fill="none" stroke="black" d="M804.67,-174C804.67,-108.12 722.05,-161.33 661.67,-135 661.15,-134.77 660.62,-134.54 660.1,-134.3"/>
<polygon fill="black" stroke="black" points="660.65,-132.62 655.38,-132 659.11,-135.76 660.65,-132.62"/>
</g>
<!-- function&#45;1&#45;Sw&#45;&gt;function&#45;1&#45;ImmVal -->
<g id="edge37" class="edge">
<title>function&#45;1&#45;Sw:s&#45;&gt;function&#45;1&#45;ImmVal</title>
<path fill="none" stroke="black" d="M533.67,-253C533.67,-222.67 495.83,-238.29 477.67,-214 464.2,-195.99 478.38,-181.04 461.67,-166 413.97,-123.08 380.38,-158.48 320.67,-135 319.96,-134.72 319.25,-134.43 318.53,-134.13"/>
<polygon fill="black" stroke="black" points="319.1,-132.47 313.83,-132 317.66,-135.66 319.1,-132.47"/>
</g>
<!-- function&#45;1&#45;Sw&#45;&gt;function&#45;1&#45;RegVal -->
<g id="edge35" class="edge">
<title>function&#45;1&#45;Sw:s&#45;&gt;function&#45;1&#45;RegVal</title>
<path fill="none" stroke="black" d="M514.67,-253C514.67,-241.47 536.04,-224.42 555.82,-211.12"/>
<polygon fill="black" stroke="black" points="554.64,-215.07 556.67,-210.17 552.03,-212.74 554.64,-215.07"/>
</g>
<!-- function&#45;1&#45;Sw&#45;&gt;function&#45;1&#45;Lw -->
<g id="edge36" class="edge">
<title>function&#45;1&#45;Sw:s&#45;&gt;function&#45;1&#45;Lw</title>
<path fill="none" stroke="black" d="M526.67,-253C526.67,-239.37 522.6,-224.69 518.34,-213.05"/>
<polygon fill="black" stroke="black" points="521.01,-214.98 517.51,-211 517.77,-216.29 521.01,-214.98"/>
</g>
<!-- function&#45;0&#45;Sw&#45;&gt;function&#45;0&#45;ImmVal -->
<g id="edge43" class="edge">
<title>function&#45;0&#45;Sw:s&#45;&gt;function&#45;0&#45;ImmVal</title>
<path fill="none" stroke="black" d="M665.67,-253C665.67,-233.1 681.77,-233.01 687.67,-214 695.92,-187.39 697.44,-155.13 697.38,-134.12"/>
<polygon fill="black" stroke="black" points="699.19,-136.96 697.33,-132 695.69,-137.04 699.19,-136.96"/>
</g>
<!-- function&#45;0&#45;Sw&#45;&gt;function&#45;1&#45;RegVal -->
<g id="edge41" class="edge">
<title>function&#45;0&#45;Sw:s&#45;&gt;function&#45;1&#45;RegVal</title>
<path fill="none" stroke="black" d="M646.67,-253C646.67,-235.77 634.57,-221.35 621.43,-210.76"/>
<polygon fill="black" stroke="black" points="624.87,-212.82 620.67,-209.6 621.94,-214.74 624.87,-212.82"/>
</g>
<!-- function&#45;0&#45;Sw&#45;&gt;function&#45;0&#45;Lw -->
<g id="edge42" class="edge">
<title>function&#45;0&#45;Sw:s&#45;&gt;function&#45;0&#45;Lw</title>
<path fill="none" stroke="black" d="M658.67,-253C658.67,-239.83 658.21,-225.1 657.73,-213.3"/>
<polygon fill="black" stroke="black" points="659.73,-215.81 657.52,-211 656.25,-216.14 659.73,-215.81"/>
</g>
<!-- function&#45;0&#45;Bne&#45;&gt;function&#45;0&#45;ImmLabel -->
<g id="edge46" class="edge">
<title>function&#45;0&#45;Bne:s&#45;&gt;function&#45;0&#45;ImmLabel</title>
<path fill="none" stroke="black" d="M350.67,-332C350.67,-308.41 374.85,-313.42 386.67,-293 401.39,-267.57 410.14,-234.59 414.67,-213.12"/>
<polygon fill="black" stroke="black" points="415.11,-216.27 415.68,-211 411.95,-214.76 415.11,-216.27"/>
</g>
<!-- function&#45;0&#45;Bne&#45;&gt;function&#45;0&#45;Addi -->
<g id="edge44" class="edge">
<title>function&#45;0&#45;Bne:s&#45;&gt;function&#45;0&#45;Addi</title>
<path fill="none" stroke="black" d="M327.67,-332C327.67,-303.11 366.75,-318.84 379.67,-293 389.21,-273.92 386.23,-265.3 379.67,-245 375.84,-233.17 368.35,-221.75 360.94,-212.48"/>
<polygon fill="black" stroke="black" points="364.25,-213.46 359.56,-211 361.69,-215.85 364.25,-213.46"/>
</g>
<!-- function&#45;0&#45;Bne&#45;&gt;function&#45;0&#45;RegVal -->
<g id="edge45" class="edge">
<title>function&#45;0&#45;Bne:s&#45;&gt;function&#45;0&#45;RegVal</title>
<path fill="none" stroke="black" d="M341.67,-332C341.67,-257.49 58.19,-348.66 8.67,-293 -5.51,-277.06 0.79,-264.82 8.67,-245 13.76,-232.2 23.48,-220.68 33.08,-211.6"/>
<polygon fill="black" stroke="black" points="30.92,-215.39 33.89,-211 28.83,-212.58 30.92,-215.39"/>
</g>
<!-- function&#45;1&#45;Bne&#45;&gt;function&#45;0&#45;ImmLabel -->
<g id="edge49" class="edge">
<title>function&#45;1&#45;Bne:s&#45;&gt;function&#45;0&#45;ImmLabel</title>
<path fill="none" stroke="black" d="M408.67,-332C408.67,-320.48 414.05,-250.01 416.91,-213.26"/>
<polygon fill="black" stroke="black" points="418.16,-216.23 417.32,-211 414.71,-215.61 418.16,-216.23"/>
</g>
<!-- function&#45;1&#45;Bne&#45;&gt;function&#45;0&#45;Addi -->
<g id="edge48" class="edge">
<title>function&#45;1&#45;Bne:s&#45;&gt;function&#45;0&#45;Addi</title>
<path fill="none" stroke="black" d="M399.67,-332C399.67,-292.9 402.86,-280.59 386.67,-245 381.13,-232.84 372.03,-221.28 363.37,-212.01"/>
<polygon fill="black" stroke="black" points="366.89,-212.09 361.7,-211 365.08,-215.08 366.89,-212.09"/>
</g>
<!-- function&#45;1&#45;Bne&#45;&gt;function&#45;0&#45;RegVal -->
<g id="edge47" class="edge">
<title>function&#45;1&#45;Bne:s&#45;&gt;function&#45;0&#45;RegVal</title>
<path fill="none" stroke="black" d="M385.67,-332C385.67,-250.21 74.85,-353.38 19.67,-293 -1.35,-270 20.9,-234.67 39.66,-212.21"/>
<polygon fill="black" stroke="black" points="38.39,-215.55 41.11,-211 36.15,-212.86 38.39,-215.55"/>
</g>
<!-- function&#45;0&#45;Seq2&#45;&gt;function&#45;0&#45;Beq -->
<g id="edge50" class="edge">
<title>function&#45;0&#45;Seq2:s&#45;&gt;function&#45;0&#45;Beq</title>
<path fill="none" stroke="black" d="M441.67,-332C441.67,-275.92 371.68,-318.37 321.67,-293 321.33,-292.83 320.99,-292.66 320.66,-292.48"/>
<polygon fill="black" stroke="black" points="321.51,-290.95 316.29,-290 319.78,-293.99 321.51,-290.95"/>
</g>
<!-- function&#45;0&#45;Seq2&#45;&gt;function&#45;0&#45;Jal -->
<g id="edge51" class="edge">
<title>function&#45;0&#45;Seq2:s&#45;&gt;function&#45;0&#45;Jal</title>
<path fill="none" stroke="black" d="M463.67,-332C463.67,-318.76 462.07,-304.02 460.4,-292.24"/>
<polygon fill="black" stroke="black" points="462.91,-294.16 459.64,-290 459.6,-295.3 462.91,-294.16"/>
</g>
<!-- function&#45;2&#45;Sw&#45;&gt;function&#45;2&#45;ImmVal -->
<g id="edge54" class="edge">
<title>function&#45;2&#45;Sw:s&#45;&gt;function&#45;2&#45;ImmVal</title>
<path fill="none" stroke="black" d="M741.67,-253C741.67,-232.65 759.46,-233.38 765.67,-214 774.16,-187.51 774.87,-155.23 774.16,-134.17"/>
<polygon fill="black" stroke="black" points="776.17,-136.81 773.95,-132 772.68,-137.15 776.17,-136.81"/>
</g>
<!-- function&#45;2&#45;Sw&#45;&gt;function&#45;1&#45;RegVal -->
<g id="edge52" class="edge">
<title>function&#45;2&#45;Sw:s&#45;&gt;function&#45;1&#45;RegVal</title>
<path fill="none" stroke="black" d="M722.67,-253C722.67,-206.53 667.11,-235.01 625.67,-214 625.32,-213.82 624.97,-213.64 624.61,-213.46"/>
<polygon fill="black" stroke="black" points="625.25,-211.81 620.01,-211 623.59,-214.9 625.25,-211.81"/>
</g>
<!-- function&#45;2&#45;Sw&#45;&gt;function&#45;2&#45;Lw -->
<g id="edge53" class="edge">
<title>function&#45;2&#45;Sw:s&#45;&gt;function&#45;2&#45;Lw</title>
<path fill="none" stroke="black" d="M734.67,-253C734.67,-239.84 734.67,-225.11 734.67,-213.3"/>
<polygon fill="black" stroke="black" points="736.42,-216 734.67,-211 732.92,-216 736.42,-216"/>
</g>
<!-- function&#45;3&#45;Sw&#45;&gt;function&#45;3&#45;ImmVal -->
<g id="edge57" class="edge">
<title>function&#45;3&#45;Sw:s&#45;&gt;function&#45;3&#45;ImmVal</title>
<path fill="none" stroke="black" d="M819.67,-253C819.67,-232.65 837.55,-233.41 843.67,-214 852.02,-187.48 852.39,-155.21 851.43,-134.16"/>
<polygon fill="black" stroke="black" points="853.52,-136.74 851.16,-132 850.04,-137.18 853.52,-136.74"/>
</g>
<!-- function&#45;3&#45;Sw&#45;&gt;function&#45;1&#45;RegVal -->
<g id="edge55" class="edge">
<title>function&#45;3&#45;Sw:s&#45;&gt;function&#45;1&#45;RegVal</title>
<path fill="none" stroke="black" d="M800.67,-253C800.67,-213.16 662.55,-229.06 625.67,-214 625.12,-213.78 624.58,-213.55 624.03,-213.31"/>
<polygon fill="black" stroke="black" points="624.38,-211.54 619.11,-211 622.89,-214.71 624.38,-211.54"/>
</g>
<!-- function&#45;3&#45;Sw&#45;&gt;function&#45;3&#45;Lw -->
<g id="edge56" class="edge">
<title>function&#45;3&#45;Sw:s&#45;&gt;function&#45;3&#45;Lw</title>
<path fill="none" stroke="black" d="M812.67,-253C812.67,-239.84 812.67,-225.11 812.67,-213.3"/>
<polygon fill="black" stroke="black" points="814.42,-216 812.67,-211 810.92,-216 814.42,-216"/>
</g>
<!-- function&#45;1&#45;Addi&#45;&gt;function&#45;4&#45;ImmVal -->
<g id="edge59" class="edge">
<title>function&#45;1&#45;Addi:s&#45;&gt;function&#45;4&#45;ImmVal</title>
<path fill="none" stroke="black" d="M598.67,-253C598.67,-227.2 569.76,-235.61 555.67,-214 543.38,-195.16 556.43,-180.99 539.67,-166 490.55,-122.06 456.07,-158.94 394.67,-135 393.95,-134.72 393.24,-134.43 392.52,-134.13"/>
<polygon fill="black" stroke="black" points="393.06,-132.45 387.78,-132 391.62,-135.64 393.06,-132.45"/>
</g>
<!-- function&#45;1&#45;Addi&#45;&gt;function&#45;1&#45;RegVal -->
<g id="edge58" class="edge">
<title>function&#45;1&#45;Addi:s&#45;&gt;function&#45;1&#45;RegVal</title>
<path fill="none" stroke="black" d="M578.67,-253C578.67,-239.76 580.92,-225.14 583.28,-213.42"/>
<polygon fill="black" stroke="black" points="583.91,-216.28 584.37,-211 580.72,-214.84 583.91,-216.28"/>
</g>
<!-- function&#45;3&#45;ImmVal -->
<g id="node1" class="node">
<title>function&#45;3&#45;ImmVal</title>
<g id="a_node1"><a xlink:title="Imm&#45;9: function&#45;3&#45;ImmVal">
<path fill="white" stroke="transparent" d="M829.33,-95C829.33,-95 870,-95 870,-95 875.33,-95 880.67,-100.33 880.67,-105.67 880.67,-105.67 880.67,-116.33 880.67,-116.33 880.67,-121.67 875.33,-127 870,-127 870,-127 829.33,-127 829.33,-127 824,-127 818.67,-121.67 818.67,-116.33 818.67,-116.33 818.67,-105.67 818.67,-105.67 818.67,-100.33 824,-95 829.33,-95"/>
<text text-anchor="start" x="823.67" y="-107.3" font-family="Helvetica,sans-Serif" font-size="14.00">ImmVal</text>
<path fill="none" stroke="black" d="M829.33,-95C829.33,-95 870,-95 870,-95 875.33,-95 880.67,-100.33 880.67,-105.67 880.67,-105.67 880.67,-116.33 880.67,-116.33 880.67,-121.67 875.33,-127 870,-127 870,-127 829.33,-127 829.33,-127 824,-127 818.67,-121.67 818.67,-116.33 818.67,-116.33 818.67,-105.67 818.67,-105.67 818.67,-100.33 824,-95 829.33,-95"/>
</a>
</g>
</g>
<!-- primitive&#45;i64&#45;12 -->
<g id="node2" class="node">
<title>primitive&#45;i64&#45;12</title>
<g id="a_node2"><a xlink:title="i64&#45;12: primitive&#45;i64&#45;12">
<path fill="white" stroke="transparent" d="M844.33,-16C844.33,-16 855,-16 855,-16 860.33,-16 865.67,-21.33 865.67,-26.67 865.67,-26.67 865.67,-37.33 865.67,-37.33 865.67,-42.67 860.33,-48 855,-48 855,-48 844.33,-48 844.33,-48 839,-48 833.67,-42.67 833.67,-37.33 833.67,-37.33 833.67,-26.67 833.67,-26.67 833.67,-21.33 839,-16 844.33,-16"/>
<text text-anchor="start" x="840.17" y="-28.3" font-family="Helvetica,sans-Serif" font-size="14.00">12</text>
<path fill="none" stroke="black" d="M844.33,-16C844.33,-16 855,-16 855,-16 860.33,-16 865.67,-21.33 865.67,-26.67 865.67,-26.67 865.67,-37.33 865.67,-37.33 865.67,-42.67 860.33,-48 855,-48 855,-48 844.33,-48 844.33,-48 839,-48 833.67,-42.67 833.67,-37.33 833.67,-37.33 833.67,-26.67 833.67,-26.67 833.67,-21.33 839,-16 844.33,-16"/>
</a>
</g>
</g>
<!-- function&#45;1&#45;ImmVal -->
<g id="node3" class="node">
<title>function&#45;1&#45;ImmVal</title>
<g id="a_node3"><a xlink:title="Imm&#45;5: function&#45;1&#45;ImmVal">
<path fill="white" stroke="transparent" d="M261.33,-95C261.33,-95 302,-95 302,-95 307.33,-95 312.67,-100.33 312.67,-105.67 312.67,-105.67 312.67,-116.33 312.67,-116.33 312.67,-121.67 307.33,-127 302,-127 302,-127 261.33,-127 261.33,-127 256,-127 250.67,-121.67 250.67,-116.33 250.67,-116.33 250.67,-105.67 250.67,-105.67 250.67,-100.33 256,-95 261.33,-95"/>
<text text-anchor="start" x="255.67" y="-107.3" font-family="Helvetica,sans-Serif" font-size="14.00">ImmVal</text>
<path fill="none" stroke="black" d="M261.33,-95C261.33,-95 302,-95 302,-95 307.33,-95 312.67,-100.33 312.67,-105.67 312.67,-105.67 312.67,-116.33 312.67,-116.33 312.67,-121.67 307.33,-127 302,-127 302,-127 261.33,-127 261.33,-127 256,-127 250.67,-121.67 250.67,-116.33 250.67,-116.33 250.67,-105.67 250.67,-105.67 250.67,-100.33 256,-95 261.33,-95"/>
</a>
</g>
</g>
<!-- primitive&#45;i64&#45;4 -->
<g id="node4" class="node">
<title>primitive&#45;i64&#45;4</title>
<g id="a_node4"><a xlink:title="i64&#45;4: primitive&#45;i64&#45;4">
<path fill="white" stroke="transparent" d="M276.33,-16C276.33,-16 287,-16 287,-16 292.33,-16 297.67,-21.33 297.67,-26.67 297.67,-26.67 297.67,-37.33 297.67,-37.33 297.67,-42.67 292.33,-48 287,-48 287,-48 276.33,-48 276.33,-48 271,-48 265.67,-42.67 265.67,-37.33 265.67,-37.33 265.67,-26.67 265.67,-26.67 265.67,-21.33 271,-16 276.33,-16"/>
<text text-anchor="start" x="276.67" y="-28.3" font-family="Helvetica,sans-Serif" font-size="14.00">4</text>
<path fill="none" stroke="black" d="M276.33,-16C276.33,-16 287,-16 287,-16 292.33,-16 297.67,-21.33 297.67,-26.67 297.67,-26.67 297.67,-37.33 297.67,-37.33 297.67,-42.67 292.33,-48 287,-48 287,-48 276.33,-48 276.33,-48 271,-48 265.67,-42.67 265.67,-37.33 265.67,-37.33 265.67,-26.67 265.67,-26.67 265.67,-21.33 271,-16 276.33,-16"/>
</a>
</g>
</g>
<!-- function&#45;2&#45;ImmVal -->
<g id="node5" class="node">
<title>function&#45;2&#45;ImmVal</title>
<g id="a_node5"><a xlink:title="Imm&#45;7: function&#45;2&#45;ImmVal">
<path fill="white" stroke="transparent" d="M752.33,-95C752.33,-95 793,-95 793,-95 798.33,-95 803.67,-100.33 803.67,-105.67 803.67,-105.67 803.67,-116.33 803.67,-116.33 803.67,-121.67 798.33,-127 793,-127 793,-127 752.33,-127 752.33,-127 747,-127 741.67,-121.67 741.67,-116.33 741.67,-116.33 741.67,-105.67 741.67,-105.67 741.67,-100.33 747,-95 752.33,-95"/>
<text text-anchor="start" x="746.67" y="-107.3" font-family="Helvetica,sans-Serif" font-size="14.00">ImmVal</text>
<path fill="none" stroke="black" d="M752.33,-95C752.33,-95 793,-95 793,-95 798.33,-95 803.67,-100.33 803.67,-105.67 803.67,-105.67 803.67,-116.33 803.67,-116.33 803.67,-121.67 798.33,-127 793,-127 793,-127 752.33,-127 752.33,-127 747,-127 741.67,-121.67 741.67,-116.33 741.67,-116.33 741.67,-105.67 741.67,-105.67 741.67,-100.33 747,-95 752.33,-95"/>
</a>
</g>
</g>
<!-- primitive&#45;i64&#45;8 -->
<g id="node6" class="node">
<title>primitive&#45;i64&#45;8</title>
<g id="a_node6"><a xlink:title="i64&#45;8: primitive&#45;i64&#45;8">
<path fill="white" stroke="transparent" d="M767.33,-16C767.33,-16 778,-16 778,-16 783.33,-16 788.67,-21.33 788.67,-26.67 788.67,-26.67 788.67,-37.33 788.67,-37.33 788.67,-42.67 783.33,-48 778,-48 778,-48 767.33,-48 767.33,-48 762,-48 756.67,-42.67 756.67,-37.33 756.67,-37.33 756.67,-26.67 756.67,-26.67 756.67,-21.33 762,-16 767.33,-16"/>
<text text-anchor="start" x="767.67" y="-28.3" font-family="Helvetica,sans-Serif" font-size="14.00">8</text>
<path fill="none" stroke="black" d="M767.33,-16C767.33,-16 778,-16 778,-16 783.33,-16 788.67,-21.33 788.67,-26.67 788.67,-26.67 788.67,-37.33 788.67,-37.33 788.67,-42.67 783.33,-48 778,-48 778,-48 767.33,-48 767.33,-48 762,-48 756.67,-42.67 756.67,-37.33 756.67,-37.33 756.67,-26.67 756.67,-26.67 756.67,-21.33 762,-16 767.33,-16"/>
</a>
</g>
</g>
<!-- function&#45;0&#45;ImmLabel -->
<g id="node7" class="node">
<title>function&#45;0&#45;ImmLabel</title>
<g id="a_node7"><a xlink:title="Imm&#45;18: function&#45;0&#45;ImmLabel">
<path fill="white" stroke="transparent" d="M389.83,-174C389.83,-174 447.5,-174 447.5,-174 452.83,-174 458.17,-179.33 458.17,-184.67 458.17,-184.67 458.17,-195.33 458.17,-195.33 458.17,-200.67 452.83,-206 447.5,-206 447.5,-206 389.83,-206 389.83,-206 384.5,-206 379.17,-200.67 379.17,-195.33 379.17,-195.33 379.17,-184.67 379.17,-184.67 379.17,-179.33 384.5,-174 389.83,-174"/>
<text text-anchor="start" x="384.67" y="-186.3" font-family="Helvetica,sans-Serif" font-size="14.00">ImmLabel</text>
<path fill="none" stroke="black" d="M389.83,-174C389.83,-174 447.5,-174 447.5,-174 452.83,-174 458.17,-179.33 458.17,-184.67 458.17,-184.67 458.17,-195.33 458.17,-195.33 458.17,-200.67 452.83,-206 447.5,-206 447.5,-206 389.83,-206 389.83,-206 384.5,-206 379.17,-200.67 379.17,-195.33 379.17,-195.33 379.17,-184.67 379.17,-184.67 379.17,-179.33 384.5,-174 389.83,-174"/>
</a>
</g>
</g>
<!-- primitive&#45;String&#45;4 -->
<g id="node8" class="node">
<title>primitive&#45;String&#45;4</title>
<g id="a_node8"><a xlink:title="String&#45;4: primitive&#45;String&#45;4">
<path fill="white" stroke="transparent" d="M409.33,-95C409.33,-95 442,-95 442,-95 447.33,-95 452.67,-100.33 452.67,-105.67 452.67,-105.67 452.67,-116.33 452.67,-116.33 452.67,-121.67 447.33,-127 442,-127 442,-127 409.33,-127 409.33,-127 404,-127 398.67,-121.67 398.67,-116.33 398.67,-116.33 398.67,-105.67 398.67,-105.67 398.67,-100.33 404,-95 409.33,-95"/>
<text text-anchor="start" x="403.67" y="-107.3" font-family="Helvetica,sans-Serif" font-size="14.00">&quot;.L47&quot;</text>
<path fill="none" stroke="black" d="M409.33,-95C409.33,-95 442,-95 442,-95 447.33,-95 452.67,-100.33 452.67,-105.67 452.67,-105.67 452.67,-116.33 452.67,-116.33 452.67,-121.67 447.33,-127 442,-127 442,-127 409.33,-127 409.33,-127 404,-127 398.67,-121.67 398.67,-116.33 398.67,-116.33 398.67,-105.67 398.67,-105.67 398.67,-100.33 404,-95 409.33,-95"/>
</a>
</g>
</g>
<!-- function&#45;0&#45;ImmVal -->
<g id="node9" class="node">
<title>function&#45;0&#45;ImmVal</title>
<g id="a_node9"><a xlink:title="Imm&#45;3: function&#45;0&#45;ImmVal">
<path fill="white" stroke="transparent" d="M676.33,-95C676.33,-95 717,-95 717,-95 722.33,-95 727.67,-100.33 727.67,-105.67 727.67,-105.67 727.67,-116.33 727.67,-116.33 727.67,-121.67 722.33,-127 717,-127 717,-127 676.33,-127 676.33,-127 671,-127 665.67,-121.67 665.67,-116.33 665.67,-116.33 665.67,-105.67 665.67,-105.67 665.67,-100.33 671,-95 676.33,-95"/>
<text text-anchor="start" x="670.67" y="-107.3" font-family="Helvetica,sans-Serif" font-size="14.00">ImmVal</text>
<path fill="none" stroke="black" d="M676.33,-95C676.33,-95 717,-95 717,-95 722.33,-95 727.67,-100.33 727.67,-105.67 727.67,-105.67 727.67,-116.33 727.67,-116.33 727.67,-121.67 722.33,-127 717,-127 717,-127 676.33,-127 676.33,-127 671,-127 665.67,-121.67 665.67,-116.33 665.67,-116.33 665.67,-105.67 665.67,-105.67 665.67,-100.33 671,-95 676.33,-95"/>
</a>
</g>
</g>
<!-- primitive&#45;i64&#45;0 -->
<g id="node10" class="node">
<title>primitive&#45;i64&#45;0</title>
<g id="a_node10"><a xlink:title="i64&#45;0: primitive&#45;i64&#45;0">
<path fill="white" stroke="transparent" d="M691.33,-16C691.33,-16 702,-16 702,-16 707.33,-16 712.67,-21.33 712.67,-26.67 712.67,-26.67 712.67,-37.33 712.67,-37.33 712.67,-42.67 707.33,-48 702,-48 702,-48 691.33,-48 691.33,-48 686,-48 680.67,-42.67 680.67,-37.33 680.67,-37.33 680.67,-26.67 680.67,-26.67 680.67,-21.33 686,-16 691.33,-16"/>
<text text-anchor="start" x="691.67" y="-28.3" font-family="Helvetica,sans-Serif" font-size="14.00">0</text>
<path fill="none" stroke="black" d="M691.33,-16C691.33,-16 702,-16 702,-16 707.33,-16 712.67,-21.33 712.67,-26.67 712.67,-26.67 712.67,-37.33 712.67,-37.33 712.67,-42.67 707.33,-48 702,-48 702,-48 691.33,-48 691.33,-48 686,-48 680.67,-42.67 680.67,-37.33 680.67,-37.33 680.67,-26.67 680.67,-26.67 680.67,-21.33 686,-16 691.33,-16"/>
</a>
</g>
</g>
<!-- function&#45;4&#45;ImmVal -->
<g id="node11" class="node">
<title>function&#45;4&#45;ImmVal</title>
<g id="a_node11"><a xlink:title="Imm&#45;15: function&#45;4&#45;ImmVal">
<path fill="white" stroke="transparent" d="M335.33,-95C335.33,-95 376,-95 376,-95 381.33,-95 386.67,-100.33 386.67,-105.67 386.67,-105.67 386.67,-116.33 386.67,-116.33 386.67,-121.67 381.33,-127 376,-127 376,-127 335.33,-127 335.33,-127 330,-127 324.67,-121.67 324.67,-116.33 324.67,-116.33 324.67,-105.67 324.67,-105.67 324.67,-100.33 330,-95 335.33,-95"/>
<text text-anchor="start" x="329.67" y="-107.3" font-family="Helvetica,sans-Serif" font-size="14.00">ImmVal</text>
<path fill="none" stroke="black" d="M335.33,-95C335.33,-95 376,-95 376,-95 381.33,-95 386.67,-100.33 386.67,-105.67 386.67,-105.67 386.67,-116.33 386.67,-116.33 386.67,-121.67 381.33,-127 376,-127 376,-127 335.33,-127 335.33,-127 330,-127 324.67,-121.67 324.67,-116.33 324.67,-116.33 324.67,-105.67 324.67,-105.67 324.67,-100.33 330,-95 335.33,-95"/>
</a>
</g>
</g>
<!-- primitive&#45;i64&#45;16 -->
<g id="node12" class="node">
<title>primitive&#45;i64&#45;16</title>
<g id="a_node12"><a xlink:title="i64&#45;16: primitive&#45;i64&#45;16">
<path fill="white" stroke="transparent" d="M350.33,-16C350.33,-16 361,-16 361,-16 366.33,-16 371.67,-21.33 371.67,-26.67 371.67,-26.67 371.67,-37.33 371.67,-37.33 371.67,-42.67 366.33,-48 361,-48 361,-48 350.33,-48 350.33,-48 345,-48 339.67,-42.67 339.67,-37.33 339.67,-37.33 339.67,-26.67 339.67,-26.67 339.67,-21.33 345,-16 350.33,-16"/>
<text text-anchor="start" x="346.17" y="-28.3" font-family="Helvetica,sans-Serif" font-size="14.00">16</text>
<path fill="none" stroke="black" d="M350.33,-16C350.33,-16 361,-16 361,-16 366.33,-16 371.67,-21.33 371.67,-26.67 371.67,-26.67 371.67,-37.33 371.67,-37.33 371.67,-42.67 366.33,-48 361,-48 361,-48 350.33,-48 350.33,-48 345,-48 339.67,-42.67 339.67,-37.33 339.67,-37.33 339.67,-26.67 339.67,-26.67 339.67,-21.33 345,-16 350.33,-16"/>
</a>
</g>
</g>
<!-- function&#45;0&#45;Beq -->
<g id="node13" class="node">
<title>function&#45;0&#45;Beq</title>
<g id="a_node13"><a xlink:title="Inst&#45;20: function&#45;0&#45;Beq">
<path fill="white" stroke="transparent" d="M282.33,-253C282.33,-253 299,-253 299,-253 304.33,-253 309.67,-258.33 309.67,-263.67 309.67,-263.67 309.67,-274.33 309.67,-274.33 309.67,-279.67 304.33,-285 299,-285 299,-285 282.33,-285 282.33,-285 277,-285 271.67,-279.67 271.67,-274.33 271.67,-274.33 271.67,-263.67 271.67,-263.67 271.67,-258.33 277,-253 282.33,-253"/>
<text text-anchor="start" x="276.67" y="-265.3" font-family="Helvetica,sans-Serif" font-size="14.00">Beq</text>
<path fill="none" stroke="black" d="M282.33,-253C282.33,-253 299,-253 299,-253 304.33,-253 309.67,-258.33 309.67,-263.67 309.67,-263.67 309.67,-274.33 309.67,-274.33 309.67,-279.67 304.33,-285 299,-285 299,-285 282.33,-285 282.33,-285 277,-285 271.67,-279.67 271.67,-274.33 271.67,-274.33 271.67,-263.67 271.67,-263.67 271.67,-258.33 277,-253 282.33,-253"/>
</a>
</g>
</g>
<!-- function&#45;0&#45;Addi -->
<g id="node14" class="node">
<title>function&#45;0&#45;Addi</title>
<g id="a_node14"><a xlink:title="Inst&#45;16: function&#45;0&#45;Addi">
<path fill="white" stroke="transparent" d="M330.83,-174C330.83,-174 350.5,-174 350.5,-174 355.83,-174 361.17,-179.33 361.17,-184.67 361.17,-184.67 361.17,-195.33 361.17,-195.33 361.17,-200.67 355.83,-206 350.5,-206 350.5,-206 330.83,-206 330.83,-206 325.5,-206 320.17,-200.67 320.17,-195.33 320.17,-195.33 320.17,-184.67 320.17,-184.67 320.17,-179.33 325.5,-174 330.83,-174"/>
<text text-anchor="start" x="325.67" y="-186.3" font-family="Helvetica,sans-Serif" font-size="14.00">Addi</text>
<path fill="none" stroke="black" d="M330.83,-174C330.83,-174 350.5,-174 350.5,-174 355.83,-174 361.17,-179.33 361.17,-184.67 361.17,-184.67 361.17,-195.33 361.17,-195.33 361.17,-200.67 355.83,-206 350.5,-206 350.5,-206 330.83,-206 330.83,-206 325.5,-206 320.17,-200.67 320.17,-195.33 320.17,-195.33 320.17,-184.67 320.17,-184.67 320.17,-179.33 325.5,-174 330.83,-174"/>
</a>
</g>
</g>
<!-- function&#45;0&#45;RegVal -->
<g id="node15" class="node">
<title>function&#45;0&#45;RegVal</title>
<g id="a_node15"><a xlink:title="Inst&#45;0: function&#45;0&#45;RegVal">
<path fill="white" stroke="transparent" d="M41.83,-174C41.83,-174 77.5,-174 77.5,-174 82.83,-174 88.17,-179.33 88.17,-184.67 88.17,-184.67 88.17,-195.33 88.17,-195.33 88.17,-200.67 82.83,-206 77.5,-206 77.5,-206 41.83,-206 41.83,-206 36.5,-206 31.17,-200.67 31.17,-195.33 31.17,-195.33 31.17,-184.67 31.17,-184.67 31.17,-179.33 36.5,-174 41.83,-174"/>
<text text-anchor="start" x="36.67" y="-186.3" font-family="Helvetica,sans-Serif" font-size="14.00">RegVal</text>
<path fill="none" stroke="black" d="M41.83,-174C41.83,-174 77.5,-174 77.5,-174 82.83,-174 88.17,-179.33 88.17,-184.67 88.17,-184.67 88.17,-195.33 88.17,-195.33 88.17,-200.67 82.83,-206 77.5,-206 77.5,-206 41.83,-206 41.83,-206 36.5,-206 31.17,-200.67 31.17,-195.33 31.17,-195.33 31.17,-184.67 31.17,-184.67 31.17,-179.33 36.5,-174 41.83,-174"/>
</a>
</g>
</g>
<!-- function&#45;1&#45;Beq -->
<g id="node16" class="node">
<title>function&#45;1&#45;Beq</title>
<g id="a_node16"><a xlink:title="Inst&#45;20: function&#45;1&#45;Beq">
<path fill="white" stroke="transparent" d="M340.33,-253C340.33,-253 357,-253 357,-253 362.33,-253 367.67,-258.33 367.67,-263.67 367.67,-263.67 367.67,-274.33 367.67,-274.33 367.67,-279.67 362.33,-285 357,-285 357,-285 340.33,-285 340.33,-285 335,-285 329.67,-279.67 329.67,-274.33 329.67,-274.33 329.67,-263.67 329.67,-263.67 329.67,-258.33 335,-253 340.33,-253"/>
<text text-anchor="start" x="334.67" y="-265.3" font-family="Helvetica,sans-Serif" font-size="14.00">Beq</text>
<path fill="none" stroke="black" d="M340.33,-253C340.33,-253 357,-253 357,-253 362.33,-253 367.67,-258.33 367.67,-263.67 367.67,-263.67 367.67,-274.33 367.67,-274.33 367.67,-279.67 362.33,-285 357,-285 357,-285 340.33,-285 340.33,-285 335,-285 329.67,-279.67 329.67,-274.33 329.67,-274.33 329.67,-263.67 329.67,-263.67 329.67,-258.33 335,-253 340.33,-253"/>
</a>
</g>
</g>
<!-- function&#45;1&#45;Seq2 -->
<g id="node17" class="node">
<title>function&#45;1&#45;Seq2</title>
<g id="a_node17"><a xlink:title="Inst&#45;20: function&#45;1&#45;Seq2">
<path fill="white" stroke="transparent" d="M220.33,-253C220.33,-253 245,-253 245,-253 250.33,-253 255.67,-258.33 255.67,-263.67 255.67,-263.67 255.67,-274.33 255.67,-274.33 255.67,-279.67 250.33,-285 245,-285 245,-285 220.33,-285 220.33,-285 215,-285 209.67,-279.67 209.67,-274.33 209.67,-274.33 209.67,-263.67 209.67,-263.67 209.67,-258.33 215,-253 220.33,-253"/>
<text text-anchor="start" x="214.67" y="-265.3" font-family="Helvetica,sans-Serif" font-size="14.00">Seq2</text>
<path fill="none" stroke="black" d="M220.33,-253C220.33,-253 245,-253 245,-253 250.33,-253 255.67,-258.33 255.67,-263.67 255.67,-263.67 255.67,-274.33 255.67,-274.33 255.67,-279.67 250.33,-285 245,-285 245,-285 220.33,-285 220.33,-285 215,-285 209.67,-279.67 209.67,-274.33 209.67,-274.33 209.67,-263.67 209.67,-263.67 209.67,-258.33 215,-253 220.33,-253"/>
</a>
</g>
</g>
<!-- function&#45;2&#45;Bne -->
<g id="node18" class="node">
<title>function&#45;2&#45;Bne</title>
<g id="a_node18"><a xlink:title="Inst&#45;22: function&#45;2&#45;Bne">
<path fill="white" stroke="transparent" d="M42.33,-253C42.33,-253 59,-253 59,-253 64.33,-253 69.67,-258.33 69.67,-263.67 69.67,-263.67 69.67,-274.33 69.67,-274.33 69.67,-279.67 64.33,-285 59,-285 59,-285 42.33,-285 42.33,-285 37,-285 31.67,-279.67 31.67,-274.33 31.67,-274.33 31.67,-263.67 31.67,-263.67 31.67,-258.33 37,-253 42.33,-253"/>
<text text-anchor="start" x="36.67" y="-265.3" font-family="Helvetica,sans-Serif" font-size="14.00">Bne</text>
<path fill="none" stroke="black" d="M42.33,-253C42.33,-253 59,-253 59,-253 64.33,-253 69.67,-258.33 69.67,-263.67 69.67,-263.67 69.67,-274.33 69.67,-274.33 69.67,-279.67 64.33,-285 59,-285 59,-285 42.33,-285 42.33,-285 37,-285 31.67,-279.67 31.67,-274.33 31.67,-274.33 31.67,-263.67 31.67,-263.67 31.67,-258.33 37,-253 42.33,-253"/>
</a>
</g>
</g>
<!-- function&#45;1&#45;Jal -->
<g id="node19" class="node">
<title>function&#45;1&#45;Jal</title>
<g id="a_node19"><a xlink:title="Inst&#45;23: function&#45;1&#45;Jal">
<path fill="white" stroke="transparent" d="M238.33,-174C238.33,-174 249,-174 249,-174 254.33,-174 259.67,-179.33 259.67,-184.67 259.67,-184.67 259.67,-195.33 259.67,-195.33 259.67,-200.67 254.33,-206 249,-206 249,-206 238.33,-206 238.33,-206 233,-206 227.67,-200.67 227.67,-195.33 227.67,-195.33 227.67,-184.67 227.67,-184.67 227.67,-179.33 233,-174 238.33,-174"/>
<text text-anchor="start" x="235.17" y="-186.3" font-family="Helvetica,sans-Serif" font-size="14.00">Jal</text>
<path fill="none" stroke="black" d="M238.33,-174C238.33,-174 249,-174 249,-174 254.33,-174 259.67,-179.33 259.67,-184.67 259.67,-184.67 259.67,-195.33 259.67,-195.33 259.67,-200.67 254.33,-206 249,-206 249,-206 238.33,-206 238.33,-206 233,-206 227.67,-200.67 227.67,-195.33 227.67,-195.33 227.67,-184.67 227.67,-184.67 227.67,-179.33 233,-174 238.33,-174"/>
</a>
</g>
</g>
<!-- function&#45;1&#45;RegVal -->
<g id="node20" class="node">
<title>function&#45;1&#45;RegVal</title>
<g id="a_node20"><a xlink:title="Inst&#45;1: function&#45;1&#45;RegVal">
<path fill="white" stroke="transparent" d="M570.83,-174C570.83,-174 606.5,-174 606.5,-174 611.83,-174 617.17,-179.33 617.17,-184.67 617.17,-184.67 617.17,-195.33 617.17,-195.33 617.17,-200.67 611.83,-206 606.5,-206 606.5,-206 570.83,-206 570.83,-206 565.5,-206 560.17,-200.67 560.17,-195.33 560.17,-195.33 560.17,-184.67 560.17,-184.67 560.17,-179.33 565.5,-174 570.83,-174"/>
<text text-anchor="start" x="565.67" y="-186.3" font-family="Helvetica,sans-Serif" font-size="14.00">RegVal</text>
<path fill="none" stroke="black" d="M570.83,-174C570.83,-174 606.5,-174 606.5,-174 611.83,-174 617.17,-179.33 617.17,-184.67 617.17,-184.67 617.17,-195.33 617.17,-195.33 617.17,-200.67 611.83,-206 606.5,-206 606.5,-206 570.83,-206 570.83,-206 565.5,-206 560.17,-200.67 560.17,-195.33 560.17,-195.33 560.17,-184.67 560.17,-184.67 560.17,-179.33 565.5,-174 570.83,-174"/>
</a>
</g>
</g>
<!-- primitive&#45;String&#45;2 -->
<g id="node21" class="node">
<title>primitive&#45;String&#45;2</title>
<g id="a_node21"><a xlink:title="String&#45;2: primitive&#45;String&#45;2">
<path fill="white" stroke="transparent" d="M536.83,-95C536.83,-95 572.5,-95 572.5,-95 577.83,-95 583.17,-100.33 583.17,-105.67 583.17,-105.67 583.17,-116.33 583.17,-116.33 583.17,-121.67 577.83,-127 572.5,-127 572.5,-127 536.83,-127 536.83,-127 531.5,-127 526.17,-121.67 526.17,-116.33 526.17,-116.33 526.17,-105.67 526.17,-105.67 526.17,-100.33 531.5,-95 536.83,-95"/>
<text text-anchor="start" x="531.67" y="-107.3" font-family="Helvetica,sans-Serif" font-size="14.00">&quot;a4_0&quot;</text>
<path fill="none" stroke="black" d="M536.83,-95C536.83,-95 572.5,-95 572.5,-95 577.83,-95 583.17,-100.33 583.17,-105.67 583.17,-105.67 583.17,-116.33 583.17,-116.33 583.17,-121.67 577.83,-127 572.5,-127 572.5,-127 536.83,-127 536.83,-127 531.5,-127 526.17,-121.67 526.17,-116.33 526.17,-116.33 526.17,-105.67 526.17,-105.67 526.17,-100.33 531.5,-95 536.83,-95"/>
</a>
</g>
</g>
<!-- function&#45;1&#45;Lw -->
<g id="node22" class="node">
<title>function&#45;1&#45;Lw</title>
<g id="a_node22"><a xlink:title="Inst&#45;6: function&#45;1&#45;Lw">
<path fill="white" stroke="transparent" d="M503.33,-174C503.33,-174 514,-174 514,-174 519.33,-174 524.67,-179.33 524.67,-184.67 524.67,-184.67 524.67,-195.33 524.67,-195.33 524.67,-200.67 519.33,-206 514,-206 514,-206 503.33,-206 503.33,-206 498,-206 492.67,-200.67 492.67,-195.33 492.67,-195.33 492.67,-184.67 492.67,-184.67 492.67,-179.33 498,-174 503.33,-174"/>
<text text-anchor="start" x="499.17" y="-186.3" font-family="Helvetica,sans-Serif" font-size="14.00">Lw</text>
<path fill="none" stroke="black" d="M503.33,-174C503.33,-174 514,-174 514,-174 519.33,-174 524.67,-179.33 524.67,-184.67 524.67,-184.67 524.67,-195.33 524.67,-195.33 524.67,-200.67 519.33,-206 514,-206 514,-206 503.33,-206 503.33,-206 498,-206 492.67,-200.67 492.67,-195.33 492.67,-195.33 492.67,-184.67 492.67,-184.67 492.67,-179.33 498,-174 503.33,-174"/>
</a>
</g>
</g>
<!-- function&#45;2&#45;RegVal -->
<g id="node23" class="node">
<title>function&#45;2&#45;RegVal</title>
<g id="a_node23"><a xlink:title="Inst&#45;2: function&#45;2&#45;RegVal">
<path fill="white" stroke="transparent" d="M606.83,-95C606.83,-95 642.5,-95 642.5,-95 647.83,-95 653.17,-100.33 653.17,-105.67 653.17,-105.67 653.17,-116.33 653.17,-116.33 653.17,-121.67 647.83,-127 642.5,-127 642.5,-127 606.83,-127 606.83,-127 601.5,-127 596.17,-121.67 596.17,-116.33 596.17,-116.33 596.17,-105.67 596.17,-105.67 596.17,-100.33 601.5,-95 606.83,-95"/>
<text text-anchor="start" x="601.67" y="-107.3" font-family="Helvetica,sans-Serif" font-size="14.00">RegVal</text>
<path fill="none" stroke="black" d="M606.83,-95C606.83,-95 642.5,-95 642.5,-95 647.83,-95 653.17,-100.33 653.17,-105.67 653.17,-105.67 653.17,-116.33 653.17,-116.33 653.17,-121.67 647.83,-127 642.5,-127 642.5,-127 606.83,-127 606.83,-127 601.5,-127 596.17,-121.67 596.17,-116.33 596.17,-116.33 596.17,-105.67 596.17,-105.67 596.17,-100.33 601.5,-95 606.83,-95"/>
</a>
</g>
</g>
<!-- function&#45;3&#45;Bne -->
<g id="node24" class="node">
<title>function&#45;3&#45;Bne</title>
<g id="a_node24"><a xlink:title="Inst&#45;22: function&#45;3&#45;Bne">
<path fill="white" stroke="transparent" d="M100.33,-253C100.33,-253 117,-253 117,-253 122.33,-253 127.67,-258.33 127.67,-263.67 127.67,-263.67 127.67,-274.33 127.67,-274.33 127.67,-279.67 122.33,-285 117,-285 117,-285 100.33,-285 100.33,-285 95,-285 89.67,-279.67 89.67,-274.33 89.67,-274.33 89.67,-263.67 89.67,-263.67 89.67,-258.33 95,-253 100.33,-253"/>
<text text-anchor="start" x="94.67" y="-265.3" font-family="Helvetica,sans-Serif" font-size="14.00">Bne</text>
<path fill="none" stroke="black" d="M100.33,-253C100.33,-253 117,-253 117,-253 122.33,-253 127.67,-258.33 127.67,-263.67 127.67,-263.67 127.67,-274.33 127.67,-274.33 127.67,-279.67 122.33,-285 117,-285 117,-285 100.33,-285 100.33,-285 95,-285 89.67,-279.67 89.67,-274.33 89.67,-274.33 89.67,-263.67 89.67,-263.67 89.67,-258.33 95,-253 100.33,-253"/>
</a>
</g>
</g>
<!-- function&#45;2&#45;Seq2 -->
<g id="node25" class="node">
<title>function&#45;2&#45;Seq2</title>
<g id="a_node25"><a xlink:title="Inst&#45;22: function&#45;2&#45;Seq2">
<path fill="white" stroke="transparent" d="M154.33,-253C154.33,-253 179,-253 179,-253 184.33,-253 189.67,-258.33 189.67,-263.67 189.67,-263.67 189.67,-274.33 189.67,-274.33 189.67,-279.67 184.33,-285 179,-285 179,-285 154.33,-285 154.33,-285 149,-285 143.67,-279.67 143.67,-274.33 143.67,-274.33 143.67,-263.67 143.67,-263.67 143.67,-258.33 149,-253 154.33,-253"/>
<text text-anchor="start" x="148.67" y="-265.3" font-family="Helvetica,sans-Serif" font-size="14.00">Seq2</text>
<path fill="none" stroke="black" d="M154.33,-253C154.33,-253 179,-253 179,-253 184.33,-253 189.67,-258.33 189.67,-263.67 189.67,-263.67 189.67,-274.33 189.67,-274.33 189.67,-279.67 184.33,-285 179,-285 179,-285 154.33,-285 154.33,-285 149,-285 143.67,-279.67 143.67,-274.33 143.67,-274.33 143.67,-263.67 143.67,-263.67 143.67,-258.33 149,-253 154.33,-253"/>
</a>
</g>
</g>
<!-- primitive&#45;String&#45;1 -->
<g id="node26" class="node">
<title>primitive&#45;String&#45;1</title>
<g id="a_node26"><a xlink:title="String&#45;1: primitive&#45;String&#45;1">
<path fill="white" stroke="transparent" d="M42.83,-95C42.83,-95 78.5,-95 78.5,-95 83.83,-95 89.17,-100.33 89.17,-105.67 89.17,-105.67 89.17,-116.33 89.17,-116.33 89.17,-121.67 83.83,-127 78.5,-127 78.5,-127 42.83,-127 42.83,-127 37.5,-127 32.17,-121.67 32.17,-116.33 32.17,-116.33 32.17,-105.67 32.17,-105.67 32.17,-100.33 37.5,-95 42.83,-95"/>
<text text-anchor="start" x="37.67" y="-107.3" font-family="Helvetica,sans-Serif" font-size="14.00">&quot;a3_0&quot;</text>
<path fill="none" stroke="black" d="M42.83,-95C42.83,-95 78.5,-95 78.5,-95 83.83,-95 89.17,-100.33 89.17,-105.67 89.17,-105.67 89.17,-116.33 89.17,-116.33 89.17,-121.67 83.83,-127 78.5,-127 78.5,-127 42.83,-127 42.83,-127 37.5,-127 32.17,-121.67 32.17,-116.33 32.17,-116.33 32.17,-105.67 32.17,-105.67 32.17,-100.33 37.5,-95 42.83,-95"/>
</a>
</g>
</g>
<!-- function&#45;0&#45;Lw -->
<g id="node27" class="node">
<title>function&#45;0&#45;Lw</title>
<g id="a_node27"><a xlink:title="Inst&#45;4: function&#45;0&#45;Lw">
<path fill="white" stroke="transparent" d="M651.33,-174C651.33,-174 662,-174 662,-174 667.33,-174 672.67,-179.33 672.67,-184.67 672.67,-184.67 672.67,-195.33 672.67,-195.33 672.67,-200.67 667.33,-206 662,-206 662,-206 651.33,-206 651.33,-206 646,-206 640.67,-200.67 640.67,-195.33 640.67,-195.33 640.67,-184.67 640.67,-184.67 640.67,-179.33 646,-174 651.33,-174"/>
<text text-anchor="start" x="647.17" y="-186.3" font-family="Helvetica,sans-Serif" font-size="14.00">Lw</text>
<path fill="none" stroke="black" d="M651.33,-174C651.33,-174 662,-174 662,-174 667.33,-174 672.67,-179.33 672.67,-184.67 672.67,-184.67 672.67,-195.33 672.67,-195.33 672.67,-200.67 667.33,-206 662,-206 662,-206 651.33,-206 651.33,-206 646,-206 640.67,-200.67 640.67,-195.33 640.67,-195.33 640.67,-184.67 640.67,-184.67 640.67,-179.33 646,-174 651.33,-174"/>
</a>
</g>
</g>
<!-- primitive&#45;String&#45;3 -->
<g id="node28" class="node">
<title>primitive&#45;String&#45;3</title>
<g id="a_node28"><a xlink:title="String&#45;3: primitive&#45;String&#45;3">
<path fill="white" stroke="transparent" d="M607.83,-16C607.83,-16 643.5,-16 643.5,-16 648.83,-16 654.17,-21.33 654.17,-26.67 654.17,-26.67 654.17,-37.33 654.17,-37.33 654.17,-42.67 648.83,-48 643.5,-48 643.5,-48 607.83,-48 607.83,-48 602.5,-48 597.17,-42.67 597.17,-37.33 597.17,-37.33 597.17,-26.67 597.17,-26.67 597.17,-21.33 602.5,-16 607.83,-16"/>
<text text-anchor="start" x="602.67" y="-28.3" font-family="Helvetica,sans-Serif" font-size="14.00">&quot;a5_0&quot;</text>
<path fill="none" stroke="black" d="M607.83,-16C607.83,-16 643.5,-16 643.5,-16 648.83,-16 654.17,-21.33 654.17,-26.67 654.17,-26.67 654.17,-37.33 654.17,-37.33 654.17,-42.67 648.83,-48 643.5,-48 643.5,-48 607.83,-48 607.83,-48 602.5,-48 597.17,-42.67 597.17,-37.33 597.17,-37.33 597.17,-26.67 597.17,-26.67 597.17,-21.33 602.5,-16 607.83,-16"/>
</a>
</g>
</g>
<!-- function&#45;0&#45;Jal -->
<g id="node29" class="node">
<title>function&#45;0&#45;Jal</title>
<g id="a_node29"><a xlink:title="Inst&#45;21: function&#45;0&#45;Jal">
<path fill="white" stroke="transparent" d="M451.33,-253C451.33,-253 462,-253 462,-253 467.33,-253 472.67,-258.33 472.67,-263.67 472.67,-263.67 472.67,-274.33 472.67,-274.33 472.67,-279.67 467.33,-285 462,-285 462,-285 451.33,-285 451.33,-285 446,-285 440.67,-279.67 440.67,-274.33 440.67,-274.33 440.67,-263.67 440.67,-263.67 440.67,-258.33 446,-253 451.33,-253"/>
<text text-anchor="start" x="448.17" y="-265.3" font-family="Helvetica,sans-Serif" font-size="14.00">Jal</text>
<path fill="none" stroke="black" d="M451.33,-253C451.33,-253 462,-253 462,-253 467.33,-253 472.67,-258.33 472.67,-263.67 472.67,-263.67 472.67,-274.33 472.67,-274.33 472.67,-279.67 467.33,-285 462,-285 462,-285 451.33,-285 451.33,-285 446,-285 440.67,-279.67 440.67,-274.33 440.67,-274.33 440.67,-263.67 440.67,-263.67 440.67,-258.33 446,-253 451.33,-253"/>
</a>
</g>
</g>
<!-- function&#45;2&#45;Lw -->
<g id="node30" class="node">
<title>function&#45;2&#45;Lw</title>
<g id="a_node30"><a xlink:title="Inst&#45;8: function&#45;2&#45;Lw">
<path fill="white" stroke="transparent" d="M729.33,-174C729.33,-174 740,-174 740,-174 745.33,-174 750.67,-179.33 750.67,-184.67 750.67,-184.67 750.67,-195.33 750.67,-195.33 750.67,-200.67 745.33,-206 740,-206 740,-206 729.33,-206 729.33,-206 724,-206 718.67,-200.67 718.67,-195.33 718.67,-195.33 718.67,-184.67 718.67,-184.67 718.67,-179.33 724,-174 729.33,-174"/>
<text text-anchor="start" x="725.17" y="-186.3" font-family="Helvetica,sans-Serif" font-size="14.00">Lw</text>
<path fill="none" stroke="black" d="M729.33,-174C729.33,-174 740,-174 740,-174 745.33,-174 750.67,-179.33 750.67,-184.67 750.67,-184.67 750.67,-195.33 750.67,-195.33 750.67,-200.67 745.33,-206 740,-206 740,-206 729.33,-206 729.33,-206 724,-206 718.67,-200.67 718.67,-195.33 718.67,-195.33 718.67,-184.67 718.67,-184.67 718.67,-179.33 724,-174 729.33,-174"/>
</a>
</g>
</g>
<!-- function&#45;3&#45;Lw -->
<g id="node31" class="node">
<title>function&#45;3&#45;Lw</title>
<g id="a_node31"><a xlink:title="Inst&#45;10: function&#45;3&#45;Lw">
<path fill="white" stroke="transparent" d="M807.33,-174C807.33,-174 818,-174 818,-174 823.33,-174 828.67,-179.33 828.67,-184.67 828.67,-184.67 828.67,-195.33 828.67,-195.33 828.67,-200.67 823.33,-206 818,-206 818,-206 807.33,-206 807.33,-206 802,-206 796.67,-200.67 796.67,-195.33 796.67,-195.33 796.67,-184.67 796.67,-184.67 796.67,-179.33 802,-174 807.33,-174"/>
<text text-anchor="start" x="803.17" y="-186.3" font-family="Helvetica,sans-Serif" font-size="14.00">Lw</text>
<path fill="none" stroke="black" d="M807.33,-174C807.33,-174 818,-174 818,-174 823.33,-174 828.67,-179.33 828.67,-184.67 828.67,-184.67 828.67,-195.33 828.67,-195.33 828.67,-200.67 823.33,-206 818,-206 818,-206 807.33,-206 807.33,-206 802,-206 796.67,-200.67 796.67,-195.33 796.67,-195.33 796.67,-184.67 796.67,-184.67 796.67,-179.33 802,-174 807.33,-174"/>
</a>
</g>
</g>
<!-- function&#45;1&#45;Sw -->
<g id="node32" class="node">
<title>function&#45;1&#45;Sw</title>
<g id="a_node32"><a xlink:title="Inst&#45;12: function&#45;1&#45;Sw">
<path fill="white" stroke="transparent" d="M517.33,-253C517.33,-253 528,-253 528,-253 533.33,-253 538.67,-258.33 538.67,-263.67 538.67,-263.67 538.67,-274.33 538.67,-274.33 538.67,-279.67 533.33,-285 528,-285 528,-285 517.33,-285 517.33,-285 512,-285 506.67,-279.67 506.67,-274.33 506.67,-274.33 506.67,-263.67 506.67,-263.67 506.67,-258.33 512,-253 517.33,-253"/>
<text text-anchor="start" x="512.17" y="-265.3" font-family="Helvetica,sans-Serif" font-size="14.00">Sw</text>
<path fill="none" stroke="black" d="M517.33,-253C517.33,-253 528,-253 528,-253 533.33,-253 538.67,-258.33 538.67,-263.67 538.67,-263.67 538.67,-274.33 538.67,-274.33 538.67,-279.67 533.33,-285 528,-285 528,-285 517.33,-285 517.33,-285 512,-285 506.67,-279.67 506.67,-274.33 506.67,-274.33 506.67,-263.67 506.67,-263.67 506.67,-258.33 512,-253 517.33,-253"/>
</a>
</g>
</g>
<!-- function&#45;0&#45;Sw -->
<g id="node33" class="node">
<title>function&#45;0&#45;Sw</title>
<g id="a_node33"><a xlink:title="Inst&#45;11: function&#45;0&#45;Sw">
<path fill="white" stroke="transparent" d="M649.33,-253C649.33,-253 660,-253 660,-253 665.33,-253 670.67,-258.33 670.67,-263.67 670.67,-263.67 670.67,-274.33 670.67,-274.33 670.67,-279.67 665.33,-285 660,-285 660,-285 649.33,-285 649.33,-285 644,-285 638.67,-279.67 638.67,-274.33 638.67,-274.33 638.67,-263.67 638.67,-263.67 638.67,-258.33 644,-253 649.33,-253"/>
<text text-anchor="start" x="644.17" y="-265.3" font-family="Helvetica,sans-Serif" font-size="14.00">Sw</text>
<path fill="none" stroke="black" d="M649.33,-253C649.33,-253 660,-253 660,-253 665.33,-253 670.67,-258.33 670.67,-263.67 670.67,-263.67 670.67,-274.33 670.67,-274.33 670.67,-279.67 665.33,-285 660,-285 660,-285 649.33,-285 649.33,-285 644,-285 638.67,-279.67 638.67,-274.33 638.67,-274.33 638.67,-263.67 638.67,-263.67 638.67,-258.33 644,-253 649.33,-253"/>
</a>
</g>
</g>
<!-- function&#45;0&#45;Bne -->
<g id="node34" class="node">
<title>function&#45;0&#45;Bne</title>
<g id="a_node34"><a xlink:title="Inst&#45;19: function&#45;0&#45;Bne">
<path fill="white" stroke="transparent" d="M328.33,-332C328.33,-332 345,-332 345,-332 350.33,-332 355.67,-337.33 355.67,-342.67 355.67,-342.67 355.67,-353.33 355.67,-353.33 355.67,-358.67 350.33,-364 345,-364 345,-364 328.33,-364 328.33,-364 323,-364 317.67,-358.67 317.67,-353.33 317.67,-353.33 317.67,-342.67 317.67,-342.67 317.67,-337.33 323,-332 328.33,-332"/>
<text text-anchor="start" x="322.67" y="-344.3" font-family="Helvetica,sans-Serif" font-size="14.00">Bne</text>
<path fill="none" stroke="black" d="M328.33,-332C328.33,-332 345,-332 345,-332 350.33,-332 355.67,-337.33 355.67,-342.67 355.67,-342.67 355.67,-353.33 355.67,-353.33 355.67,-358.67 350.33,-364 345,-364 345,-364 328.33,-364 328.33,-364 323,-364 317.67,-358.67 317.67,-353.33 317.67,-353.33 317.67,-342.67 317.67,-342.67 317.67,-337.33 323,-332 328.33,-332"/>
</a>
</g>
</g>
<!-- function&#45;1&#45;Bne -->
<g id="node35" class="node">
<title>function&#45;1&#45;Bne</title>
<g id="a_node35"><a xlink:title="Inst&#45;19: function&#45;1&#45;Bne">
<path fill="white" stroke="transparent" d="M386.33,-332C386.33,-332 403,-332 403,-332 408.33,-332 413.67,-337.33 413.67,-342.67 413.67,-342.67 413.67,-353.33 413.67,-353.33 413.67,-358.67 408.33,-364 403,-364 403,-364 386.33,-364 386.33,-364 381,-364 375.67,-358.67 375.67,-353.33 375.67,-353.33 375.67,-342.67 375.67,-342.67 375.67,-337.33 381,-332 386.33,-332"/>
<text text-anchor="start" x="380.67" y="-344.3" font-family="Helvetica,sans-Serif" font-size="14.00">Bne</text>
<path fill="none" stroke="black" d="M386.33,-332C386.33,-332 403,-332 403,-332 408.33,-332 413.67,-337.33 413.67,-342.67 413.67,-342.67 413.67,-353.33 413.67,-353.33 413.67,-358.67 408.33,-364 403,-364 403,-364 386.33,-364 386.33,-364 381,-364 375.67,-358.67 375.67,-353.33 375.67,-353.33 375.67,-342.67 375.67,-342.67 375.67,-337.33 381,-332 386.33,-332"/>
</a>
</g>
</g>
<!-- function&#45;0&#45;Seq2 -->
<g id="node36" class="node">
<title>function&#45;0&#45;Seq2</title>
<g id="a_node36"><a xlink:title="Inst&#45;19: function&#45;0&#45;Seq2">
<path fill="white" stroke="transparent" d="M440.33,-332C440.33,-332 465,-332 465,-332 470.33,-332 475.67,-337.33 475.67,-342.67 475.67,-342.67 475.67,-353.33 475.67,-353.33 475.67,-358.67 470.33,-364 465,-364 465,-364 440.33,-364 440.33,-364 435,-364 429.67,-358.67 429.67,-353.33 429.67,-353.33 429.67,-342.67 429.67,-342.67 429.67,-337.33 435,-332 440.33,-332"/>
<text text-anchor="start" x="434.67" y="-344.3" font-family="Helvetica,sans-Serif" font-size="14.00">Seq2</text>
<path fill="none" stroke="black" d="M440.33,-332C440.33,-332 465,-332 465,-332 470.33,-332 475.67,-337.33 475.67,-342.67 475.67,-342.67 475.67,-353.33 475.67,-353.33 475.67,-358.67 470.33,-364 465,-364 465,-364 440.33,-364 440.33,-364 435,-364 429.67,-358.67 429.67,-353.33 429.67,-353.33 429.67,-342.67 429.67,-342.67 429.67,-337.33 435,-332 440.33,-332"/>
</a>
</g>
</g>
<!-- function&#45;2&#45;Sw -->
<g id="node37" class="node">
<title>function&#45;2&#45;Sw</title>
<g id="a_node37"><a xlink:title="Inst&#45;13: function&#45;2&#45;Sw">
<path fill="white" stroke="transparent" d="M725.33,-253C725.33,-253 736,-253 736,-253 741.33,-253 746.67,-258.33 746.67,-263.67 746.67,-263.67 746.67,-274.33 746.67,-274.33 746.67,-279.67 741.33,-285 736,-285 736,-285 725.33,-285 725.33,-285 720,-285 714.67,-279.67 714.67,-274.33 714.67,-274.33 714.67,-263.67 714.67,-263.67 714.67,-258.33 720,-253 725.33,-253"/>
<text text-anchor="start" x="720.17" y="-265.3" font-family="Helvetica,sans-Serif" font-size="14.00">Sw</text>
<path fill="none" stroke="black" d="M725.33,-253C725.33,-253 736,-253 736,-253 741.33,-253 746.67,-258.33 746.67,-263.67 746.67,-263.67 746.67,-274.33 746.67,-274.33 746.67,-279.67 741.33,-285 736,-285 736,-285 725.33,-285 725.33,-285 720,-285 714.67,-279.67 714.67,-274.33 714.67,-274.33 714.67,-263.67 714.67,-263.67 714.67,-258.33 720,-253 725.33,-253"/>
</a>
</g>
</g>
<!-- function&#45;3&#45;Sw -->
<g id="node38" class="node">
<title>function&#45;3&#45;Sw</title>
<g id="a_node38"><a xlink:title="Inst&#45;14: function&#45;3&#45;Sw">
<path fill="white" stroke="transparent" d="M803.33,-253C803.33,-253 814,-253 814,-253 819.33,-253 824.67,-258.33 824.67,-263.67 824.67,-263.67 824.67,-274.33 824.67,-274.33 824.67,-279.67 819.33,-285 814,-285 814,-285 803.33,-285 803.33,-285 798,-285 792.67,-279.67 792.67,-274.33 792.67,-274.33 792.67,-263.67 792.67,-263.67 792.67,-258.33 798,-253 803.33,-253"/>
<text text-anchor="start" x="798.17" y="-265.3" font-family="Helvetica,sans-Serif" font-size="14.00">Sw</text>
<path fill="none" stroke="black" d="M803.33,-253C803.33,-253 814,-253 814,-253 819.33,-253 824.67,-258.33 824.67,-263.67 824.67,-263.67 824.67,-274.33 824.67,-274.33 824.67,-279.67 819.33,-285 814,-285 814,-285 803.33,-285 803.33,-285 798,-285 792.67,-279.67 792.67,-274.33 792.67,-274.33 792.67,-263.67 792.67,-263.67 792.67,-258.33 798,-253 803.33,-253"/>
</a>
</g>
</g>
<!-- function&#45;1&#45;Addi -->
<g id="node39" class="node">
<title>function&#45;1&#45;Addi</title>
<g id="a_node39"><a xlink:title="Inst&#45;17: function&#45;1&#45;Addi">
<path fill="white" stroke="transparent" d="M578.83,-253C578.83,-253 598.5,-253 598.5,-253 603.83,-253 609.17,-258.33 609.17,-263.67 609.17,-263.67 609.17,-274.33 609.17,-274.33 609.17,-279.67 603.83,-285 598.5,-285 598.5,-285 578.83,-285 578.83,-285 573.5,-285 568.17,-279.67 568.17,-274.33 568.17,-274.33 568.17,-263.67 568.17,-263.67 568.17,-258.33 573.5,-253 578.83,-253"/>
<text text-anchor="start" x="573.67" y="-265.3" font-family="Helvetica,sans-Serif" font-size="14.00">Addi</text>
<path fill="none" stroke="black" d="M578.83,-253C578.83,-253 598.5,-253 598.5,-253 603.83,-253 609.17,-258.33 609.17,-263.67 609.17,-263.67 609.17,-274.33 609.17,-274.33 609.17,-279.67 603.83,-285 598.5,-285 598.5,-285 578.83,-285 578.83,-285 573.5,-285 568.17,-279.67 568.17,-274.33 568.17,-274.33 568.17,-263.67 568.17,-263.67 568.17,-258.33 573.5,-253 578.83,-253"/>
</a>
</g>
</g>
</g>
</svg>
