<?xml version="1.0" encoding="UTF-8" standalone="no"?>
<!DOCTYPE svg PUBLIC "-//W3C//DTD SVG 1.1//EN"
 "http://www.w3.org/Graphics/SVG/1.1/DTD/svg11.dtd">
<!-- Generated by graphviz version 2.43.0 (0)
 -->
<!-- Title: %3 Pages: 1 -->
<svg width="927pt" height="388pt"
 viewBox="0.00 0.00 927.00 388.00" xmlns="http://www.w3.org/2000/svg" xmlns:xlink="http://www.w3.org/1999/xlink">
<g id="graph0" class="graph" transform="scale(1 1) rotate(0) translate(4 384)">
<title>%3</title>
<polygon fill="white" stroke="#000000" points="-4,4 -4,-384 923,-384 923,4 -4,4"/>
<g id="clust1" class="cluster">
<title>outer_cluster_Imm&#45;9</title>
</g>
<g id="clust2" class="cluster">
<title>cluster_Imm&#45;9</title>
<path fill="#ffffb3" stroke="black" stroke-dasharray="5,2" d="M23,-90C23,-90 67,-90 67,-90 73,-90 79,-96 79,-102 79,-102 79,-120 79,-120 79,-126 73,-132 67,-132 67,-132 23,-132 23,-132 17,-132 11,-126 11,-120 11,-120 11,-102 11,-102 11,-96 17,-90 23,-90"/>
</g>
<g id="clust4" class="cluster">
<title>outer_cluster_Imm&#45;18</title>
</g>
<g id="clust5" class="cluster">
<title>cluster_Imm&#45;18</title>
<path fill="#ffffb3" stroke="black" stroke-dasharray="5,2" d="M442,-169C442,-169 502,-169 502,-169 508,-169 514,-175 514,-181 514,-181 514,-199 514,-199 514,-205 508,-211 502,-211 502,-211 442,-211 442,-211 436,-211 430,-205 430,-199 430,-199 430,-181 430,-181 430,-175 436,-169 442,-169"/>
</g>
<g id="clust7" class="cluster">
<title>outer_cluster_Imm&#45;3</title>
</g>
<g id="clust8" class="cluster">
<title>cluster_Imm&#45;3</title>
<path fill="#ffffb3" stroke="black" stroke-dasharray="5,2" d="M111,-90C111,-90 155,-90 155,-90 161,-90 167,-96 167,-102 167,-102 167,-120 167,-120 167,-126 161,-132 155,-132 155,-132 111,-132 111,-132 105,-132 99,-126 99,-120 99,-120 99,-102 99,-102 99,-96 105,-90 111,-90"/>
</g>
<g id="clust10" class="cluster">
<title>outer_cluster_Imm&#45;5</title>
</g>
<g id="clust11" class="cluster">
<title>cluster_Imm&#45;5</title>
<path fill="#ffffb3" stroke="black" stroke-dasharray="5,2" d="M668,-90C668,-90 712,-90 712,-90 718,-90 724,-96 724,-102 724,-102 724,-120 724,-120 724,-126 718,-132 712,-132 712,-132 668,-132 668,-132 662,-132 656,-126 656,-120 656,-120 656,-102 656,-102 656,-96 662,-90 668,-90"/>
</g>
<g id="clust13" class="cluster">
<title>outer_cluster_Imm&#45;7</title>
</g>
<g id="clust14" class="cluster">
<title>cluster_Imm&#45;7</title>
<path fill="#ffffb3" stroke="black" stroke-dasharray="5,2" d="M332,-90C332,-90 376,-90 376,-90 382,-90 388,-96 388,-102 388,-102 388,-120 388,-120 388,-126 382,-132 376,-132 376,-132 332,-132 332,-132 326,-132 320,-126 320,-120 320,-120 320,-102 320,-102 320,-96 326,-90 332,-90"/>
</g>
<g id="clust16" class="cluster">
<title>outer_cluster_Imm&#45;15</title>
</g>
<g id="clust17" class="cluster">
<title>cluster_Imm&#45;15</title>
<path fill="#ffffb3" stroke="black" stroke-dasharray="5,2" d="M523,-90C523,-90 567,-90 567,-90 573,-90 579,-96 579,-102 579,-102 579,-120 579,-120 579,-126 573,-132 567,-132 567,-132 523,-132 523,-132 517,-132 511,-126 511,-120 511,-120 511,-102 511,-102 511,-96 517,-90 523,-90"/>
</g>
<g id="clust19" class="cluster">
<title>outer_cluster_Inst&#45;19</title>
</g>
<g id="clust20" class="cluster">
<title>cluster_Inst&#45;19</title>
<path fill="#bebada" stroke="black" stroke-dasharray="5,2" d="M462,-327C462,-327 614,-327 614,-327 620,-327 626,-333 626,-339 626,-339 626,-357 626,-357 626,-363 620,-369 614,-369 614,-369 462,-369 462,-369 456,-369 450,-363 450,-357 450,-357 450,-339 450,-339 450,-333 456,-327 462,-327"/>
</g>
<g id="clust22" class="cluster">
<title>outer_cluster_Inst&#45;11</title>
</g>
<g id="clust23" class="cluster">
<title>cluster_Inst&#45;11</title>
<path fill="#bebada" stroke="black" stroke-dasharray="5,2" d="M136,-248C136,-248 172,-248 172,-248 178,-248 184,-254 184,-260 184,-260 184,-278 184,-278 184,-284 178,-290 172,-290 172,-290 136,-290 136,-290 130,-290 124,-284 124,-278 124,-278 124,-260 124,-260 124,-254 130,-248 136,-248"/>
</g>
<g id="clust25" class="cluster">
<title>outer_cluster_Inst&#45;17</title>
</g>
<g id="clust26" class="cluster">
<title>cluster_Inst&#45;17</title>
<path fill="#bebada" stroke="black" stroke-dasharray="5,2" d="M297,-248C297,-248 333,-248 333,-248 339,-248 345,-254 345,-260 345,-260 345,-278 345,-278 345,-284 339,-290 333,-290 333,-290 297,-290 297,-290 291,-290 285,-284 285,-278 285,-278 285,-260 285,-260 285,-254 291,-248 297,-248"/>
</g>
<g id="clust28" class="cluster">
<title>outer_cluster_Inst&#45;22</title>
</g>
<g id="clust29" class="cluster">
<title>cluster_Inst&#45;22</title>
<path fill="#bebada" stroke="black" stroke-dasharray="5,2" d="M562,-248C562,-248 714,-248 714,-248 720,-248 726,-254 726,-260 726,-260 726,-278 726,-278 726,-284 720,-290 714,-290 714,-290 562,-290 562,-290 556,-290 550,-284 550,-278 550,-278 550,-260 550,-260 550,-254 556,-248 562,-248"/>
</g>
<g id="clust31" class="cluster">
<title>outer_cluster_Inst&#45;21</title>
</g>
<g id="clust32" class="cluster">
<title>cluster_Inst&#45;21</title>
<path fill="#bebada" stroke="black" stroke-dasharray="5,2" d="M454,-248C454,-248 490,-248 490,-248 496,-248 502,-254 502,-260 502,-260 502,-278 502,-278 502,-284 496,-290 490,-290 490,-290 454,-290 454,-290 448,-290 442,-284 442,-278 442,-278 442,-260 442,-260 442,-254 448,-248 454,-248"/>
</g>
<g id="clust34" class="cluster">
<title>outer_cluster_Inst&#45;20</title>
</g>
<g id="clust35" class="cluster">
<title>cluster_Inst&#45;20</title>
<path fill="#bebada" stroke="black" stroke-dasharray="5,2" d="M744,-248C744,-248 896,-248 896,-248 902,-248 908,-254 908,-260 908,-260 908,-278 908,-278 908,-284 902,-290 896,-290 896,-290 744,-290 744,-290 738,-290 732,-284 732,-278 732,-278 732,-260 732,-260 732,-254 738,-248 744,-248"/>
</g>
<g id="clust37" class="cluster">
<title>outer_cluster_Inst&#45;0</title>
</g>
<g id="clust38" class="cluster">
<title>cluster_Inst&#45;0</title>
<path fill="#bebada" stroke="black" stroke-dasharray="5,2" d="M598,-169C598,-169 638,-169 638,-169 644,-169 650,-175 650,-181 650,-181 650,-199 650,-199 650,-205 644,-211 638,-211 638,-211 598,-211 598,-211 592,-211 586,-205 586,-199 586,-199 586,-181 586,-181 586,-175 592,-169 598,-169"/>
</g>
<g id="clust40" class="cluster">
<title>outer_cluster_Inst&#45;23</title>
</g>
<g id="clust41" class="cluster">
<title>cluster_Inst&#45;23</title>
<path fill="#bebada" stroke="black" stroke-dasharray="5,2" d="M690,-169C690,-169 726,-169 726,-169 732,-169 738,-175 738,-181 738,-181 738,-199 738,-199 738,-205 732,-211 726,-211 726,-211 690,-211 690,-211 684,-211 678,-205 678,-199 678,-199 678,-181 678,-181 678,-175 684,-169 690,-169"/>
</g>
<g id="clust43" class="cluster">
<title>outer_cluster_Inst&#45;1</title>
</g>
<g id="clust44" class="cluster">
<title>cluster_Inst&#45;1</title>
<path fill="#bebada" stroke="black" stroke-dasharray="5,2" d="M206,-169C206,-169 246,-169 246,-169 252,-169 258,-175 258,-181 258,-181 258,-199 258,-199 258,-205 252,-211 246,-211 246,-211 206,-211 206,-211 200,-211 194,-205 194,-199 194,-199 194,-181 194,-181 194,-175 200,-169 206,-169"/>
</g>
<g id="clust46" class="cluster">
<title>outer_cluster_Inst&#45;12</title>
</g>
<g id="clust47" class="cluster">
<title>cluster_Inst&#45;12</title>
<path fill="#bebada" stroke="black" stroke-dasharray="5,2" d="M363,-248C363,-248 399,-248 399,-248 405,-248 411,-254 411,-260 411,-260 411,-278 411,-278 411,-284 405,-290 399,-290 399,-290 363,-290 363,-290 357,-290 351,-284 351,-278 351,-278 351,-260 351,-260 351,-254 357,-248 363,-248"/>
</g>
<g id="clust49" class="cluster">
<title>outer_cluster_Inst&#45;4</title>
</g>
<g id="clust50" class="cluster">
<title>cluster_Inst&#45;4</title>
<path fill="#bebada" stroke="black" stroke-dasharray="5,2" d="M140,-169C140,-169 176,-169 176,-169 182,-169 188,-175 188,-181 188,-181 188,-199 188,-199 188,-205 182,-211 176,-211 176,-211 140,-211 140,-211 134,-211 128,-205 128,-199 128,-199 128,-181 128,-181 128,-175 134,-169 140,-169"/>
</g>
<g id="clust52" class="cluster">
<title>outer_cluster_Inst&#45;2</title>
</g>
<g id="clust53" class="cluster">
<title>cluster_Inst&#45;2</title>
<path fill="#bebada" stroke="black" stroke-dasharray="5,2" d="M262,-90C262,-90 302,-90 302,-90 308,-90 314,-96 314,-102 314,-102 314,-120 314,-120 314,-126 308,-132 302,-132 302,-132 262,-132 262,-132 256,-132 250,-126 250,-120 250,-120 250,-102 250,-102 250,-96 256,-90 262,-90"/>
</g>
<g id="clust55" class="cluster">
<title>outer_cluster_Inst&#45;13</title>
</g>
<g id="clust56" class="cluster">
<title>cluster_Inst&#45;13</title>
<path fill="#bebada" stroke="black" stroke-dasharray="5,2" d="M231,-248C231,-248 267,-248 267,-248 273,-248 279,-254 279,-260 279,-260 279,-278 279,-278 279,-284 273,-290 267,-290 267,-290 231,-290 231,-290 225,-290 219,-284 219,-278 219,-278 219,-260 219,-260 219,-254 225,-248 231,-248"/>
</g>
<g id="clust58" class="cluster">
<title>outer_cluster_Inst&#45;16</title>
</g>
<g id="clust59" class="cluster">
<title>cluster_Inst&#45;16</title>
<path fill="#bebada" stroke="black" stroke-dasharray="5,2" d="M532,-169C532,-169 568,-169 568,-169 574,-169 580,-175 580,-181 580,-181 580,-199 580,-199 580,-205 574,-211 568,-211 568,-211 532,-211 532,-211 526,-211 520,-205 520,-199 520,-199 520,-181 520,-181 520,-175 526,-169 532,-169"/>
</g>
<g id="clust61" class="cluster">
<title>outer_cluster_Inst&#45;14</title>
</g>
<g id="clust62" class="cluster">
<title>cluster_Inst&#45;14</title>
<path fill="#bebada" stroke="black" stroke-dasharray="5,2" d="M58,-248C58,-248 94,-248 94,-248 100,-248 106,-254 106,-260 106,-260 106,-278 106,-278 106,-284 100,-290 94,-290 94,-290 58,-290 58,-290 52,-290 46,-284 46,-278 46,-278 46,-260 46,-260 46,-254 52,-248 58,-248"/>
</g>
<g id="clust64" class="cluster">
<title>outer_cluster_Inst&#45;6</title>
</g>
<g id="clust65" class="cluster">
<title>cluster_Inst&#45;6</title>
<path fill="#bebada" stroke="black" stroke-dasharray="5,2" d="M364,-169C364,-169 400,-169 400,-169 406,-169 412,-175 412,-181 412,-181 412,-199 412,-199 412,-205 406,-211 400,-211 400,-211 364,-211 364,-211 358,-211 352,-205 352,-199 352,-199 352,-181 352,-181 352,-175 358,-169 364,-169"/>
</g>
<g id="clust67" class="cluster">
<title>outer_cluster_Inst&#45;8</title>
</g>
<g id="clust68" class="cluster">
<title>cluster_Inst&#45;8</title>
<path fill="#bebada" stroke="black" stroke-dasharray="5,2" d="M276,-169C276,-169 312,-169 312,-169 318,-169 324,-175 324,-181 324,-181 324,-199 324,-199 324,-205 318,-211 312,-211 312,-211 276,-211 276,-211 270,-211 264,-205 264,-199 264,-199 264,-181 264,-181 264,-175 270,-169 276,-169"/>
</g>
<g id="clust70" class="cluster">
<title>outer_cluster_Inst&#45;10</title>
</g>
<g id="clust71" class="cluster">
<title>cluster_Inst&#45;10</title>
<path fill="#bebada" stroke="black" stroke-dasharray="5,2" d="M62,-169C62,-169 98,-169 98,-169 104,-169 110,-175 110,-181 110,-181 110,-199 110,-199 110,-205 104,-211 98,-211 98,-211 62,-211 62,-211 56,-211 50,-205 50,-199 50,-199 50,-181 50,-181 50,-175 56,-169 62,-169"/>
</g>
<g id="clust73" class="cluster">
<title>outer_cluster_String&#45;4</title>
</g>
<g id="clust74" class="cluster">
<title>cluster_String&#45;4</title>
<path fill="#fb8072" stroke="black" stroke-dasharray="5,2" d="M455,-90C455,-90 491,-90 491,-90 497,-90 503,-96 503,-102 503,-102 503,-120 503,-120 503,-126 497,-132 491,-132 491,-132 455,-132 455,-132 449,-132 443,-126 443,-120 443,-120 443,-102 443,-102 443,-96 449,-90 455,-90"/>
</g>
<g id="clust76" class="cluster">
<title>outer_cluster_String&#45;3</title>
</g>
<g id="clust77" class="cluster">
<title>cluster_String&#45;3</title>
<path fill="#fb8072" stroke="black" stroke-dasharray="5,2" d="M263,-11C263,-11 303,-11 303,-11 309,-11 315,-17 315,-23 315,-23 315,-41 315,-41 315,-47 309,-53 303,-53 303,-53 263,-53 263,-53 257,-53 251,-47 251,-41 251,-41 251,-23 251,-23 251,-17 257,-11 263,-11"/>
</g>
<g id="clust79" class="cluster">
<title>outer_cluster_String&#45;1</title>
</g>
<g id="clust80" class="cluster">
<title>cluster_String&#45;1</title>
<path fill="#fb8072" stroke="black" stroke-dasharray="5,2" d="M598,-90C598,-90 638,-90 638,-90 644,-90 650,-96 650,-102 650,-102 650,-120 650,-120 650,-126 644,-132 638,-132 638,-132 598,-132 598,-132 592,-132 586,-126 586,-120 586,-120 586,-102 586,-102 586,-96 592,-90 598,-90"/>
</g>
<g id="clust82" class="cluster">
<title>outer_cluster_String&#45;2</title>
</g>
<g id="clust83" class="cluster">
<title>cluster_String&#45;2</title>
<path fill="#fb8072" stroke="black" stroke-dasharray="5,2" d="M192,-90C192,-90 232,-90 232,-90 238,-90 244,-96 244,-102 244,-102 244,-120 244,-120 244,-126 238,-132 232,-132 232,-132 192,-132 192,-132 186,-132 180,-126 180,-120 180,-120 180,-102 180,-102 180,-96 186,-90 192,-90"/>
</g>
<g id="clust85" class="cluster">
<title>outer_cluster_i64&#45;16</title>
</g>
<g id="clust86" class="cluster">
<title>cluster_i64&#45;16</title>
<path fill="#80b1d3" stroke="black" stroke-dasharray="5,2" d="M527,-11C527,-11 563,-11 563,-11 569,-11 575,-17 575,-23 575,-23 575,-41 575,-41 575,-47 569,-53 563,-53 563,-53 527,-53 527,-53 521,-53 515,-47 515,-41 515,-41 515,-23 515,-23 515,-17 521,-11 527,-11"/>
</g>
<g id="clust88" class="cluster">
<title>outer_cluster_i64&#45;0</title>
</g>
<g id="clust89" class="cluster">
<title>cluster_i64&#45;0</title>
<path fill="#80b1d3" stroke="black" stroke-dasharray="5,2" d="M115,-11C115,-11 151,-11 151,-11 157,-11 163,-17 163,-23 163,-23 163,-41 163,-41 163,-47 157,-53 151,-53 151,-53 115,-53 115,-53 109,-53 103,-47 103,-41 103,-41 103,-23 103,-23 103,-17 109,-11 115,-11"/>
</g>
<g id="clust91" class="cluster">
<title>outer_cluster_i64&#45;8</title>
</g>
<g id="clust92" class="cluster">
<title>cluster_i64&#45;8</title>
<path fill="#80b1d3" stroke="black" stroke-dasharray="5,2" d="M336,-11C336,-11 372,-11 372,-11 378,-11 384,-17 384,-23 384,-23 384,-41 384,-41 384,-47 378,-53 372,-53 372,-53 336,-53 336,-53 330,-53 324,-47 324,-41 324,-41 324,-23 324,-23 324,-17 330,-11 336,-11"/>
</g>
<g id="clust94" class="cluster">
<title>outer_cluster_i64&#45;12</title>
</g>
<g id="clust95" class="cluster">
<title>cluster_i64&#45;12</title>
<path fill="#80b1d3" stroke="black" stroke-dasharray="5,2" d="M27,-11C27,-11 63,-11 63,-11 69,-11 75,-17 75,-23 75,-23 75,-41 75,-41 75,-47 69,-53 63,-53 63,-53 27,-53 27,-53 21,-53 15,-47 15,-41 15,-41 15,-23 15,-23 15,-17 21,-11 27,-11"/>
</g>
<g id="clust97" class="cluster">
<title>outer_cluster_i64&#45;4</title>
</g>
<g id="clust98" class="cluster">
<title>cluster_i64&#45;4</title>
<path fill="#80b1d3" stroke="black" stroke-dasharray="5,2" d="M672,-11C672,-11 708,-11 708,-11 714,-11 720,-17 720,-23 720,-23 720,-41 720,-41 720,-47 714,-53 708,-53 708,-53 672,-53 672,-53 666,-53 660,-47 660,-41 660,-41 660,-23 660,-23 660,-17 666,-11 672,-11"/>
</g>
<!-- function&#45;3&#45;ImmVal&#45;&gt;primitive&#45;i64&#45;12 -->
<g id="edge1" class="edge">
<title>function&#45;3&#45;ImmVal:s&#45;&gt;primitive&#45;i64&#45;12</title>
<path fill="none" stroke="black" d="M45,-95C45,-81.84 45,-67.11 45,-55.3"/>
<polygon fill="black" stroke="black" points="46.75,-58 45,-53 43.25,-58 46.75,-58"/>
</g>
<!-- function&#45;0&#45;ImmLabel&#45;&gt;primitive&#45;String&#45;4 -->
<g id="edge2" class="edge">
<title>function&#45;0&#45;ImmLabel:s&#45;&gt;primitive&#45;String&#45;4</title>
<path fill="none" stroke="black" d="M473,-174C473,-160.84 473,-146.11 473,-134.3"/>
<polygon fill="black" stroke="black" points="474.75,-137 473,-132 471.25,-137 474.75,-137"/>
</g>
<!-- function&#45;0&#45;ImmVal&#45;&gt;primitive&#45;i64&#45;0 -->
<g id="edge3" class="edge">
<title>function&#45;0&#45;ImmVal:s&#45;&gt;primitive&#45;i64&#45;0</title>
<path fill="none" stroke="black" d="M133,-95C133,-81.84 133,-67.11 133,-55.3"/>
<polygon fill="black" stroke="black" points="134.75,-58 133,-53 131.25,-58 134.75,-58"/>
</g>
<!-- function&#45;1&#45;ImmVal&#45;&gt;primitive&#45;i64&#45;4 -->
<g id="edge4" class="edge">
<title>function&#45;1&#45;ImmVal:s&#45;&gt;primitive&#45;i64&#45;4</title>
<path fill="none" stroke="black" d="M690,-95C690,-81.84 690,-67.11 690,-55.3"/>
<polygon fill="black" stroke="black" points="691.75,-58 690,-53 688.25,-58 691.75,-58"/>
</g>
<!-- function&#45;2&#45;ImmVal&#45;&gt;primitive&#45;i64&#45;8 -->
<g id="edge5" class="edge">
<title>function&#45;2&#45;ImmVal:s&#45;&gt;primitive&#45;i64&#45;8</title>
<path fill="none" stroke="black" d="M354,-95C354,-81.84 354,-67.11 354,-55.3"/>
<polygon fill="black" stroke="black" points="355.75,-58 354,-53 352.25,-58 355.75,-58"/>
</g>
<!-- function&#45;4&#45;ImmVal&#45;&gt;primitive&#45;i64&#45;16 -->
<g id="edge6" class="edge">
<title>function&#45;4&#45;ImmVal:s&#45;&gt;primitive&#45;i64&#45;16</title>
<path fill="none" stroke="black" d="M545,-95C545,-81.84 545,-67.11 545,-55.3"/>
<polygon fill="black" stroke="black" points="546.75,-58 545,-53 543.25,-58 546.75,-58"/>
</g>
<!-- function&#45;0&#45;Bne&#45;&gt;function&#45;0&#45;ImmLabel -->
<g id="edge9" class="edge">
<title>function&#45;0&#45;Bne:s&#45;&gt;function&#45;0&#45;ImmLabel</title>
<path fill="none" stroke="black" d="M494,-332C494,-298.69 446.31,-322.04 430,-293 419.55,-274.4 423.08,-265.18 430,-245 434.18,-232.81 442.36,-221.25 450.4,-211.98"/>
<polygon fill="black" stroke="black" points="448.71,-215.28 451.83,-211 446.72,-212.4 448.71,-215.28"/>
</g>
<!-- function&#45;0&#45;Bne&#45;&gt;function&#45;0&#45;Addi -->
<g id="edge7" class="edge">
<title>function&#45;0&#45;Bne:s&#45;&gt;function&#45;0&#45;Addi</title>
<path fill="none" stroke="black" d="M471,-332C471,-309.58 492.35,-312.73 503,-293 513.62,-273.33 508.91,-265.42 518,-245 522.92,-233.95 529.59,-222.33 535.57,-212.71"/>
<polygon fill="black" stroke="black" points="534.99,-215.79 537.26,-211 532.5,-213.33 534.99,-215.79"/>
</g>
<!-- function&#45;0&#45;Bne&#45;&gt;function&#45;0&#45;RegVal -->
<g id="edge8" class="edge">
<title>function&#45;0&#45;Bne:s&#45;&gt;function&#45;0&#45;RegVal</title>
<path fill="none" stroke="black" d="M485,-332C485,-310.4 504.2,-312.25 514,-293 524.14,-273.08 515.15,-262.55 529,-245 545.67,-223.88 558.02,-227.99 581,-214 581.2,-213.88 581.41,-213.75 581.62,-213.62"/>
<polygon fill="black" stroke="black" points="582.65,-215.04 586,-210.94 580.83,-212.06 582.65,-215.04"/>
</g>
<!-- function&#45;0&#45;Addi&#45;&gt;function&#45;4&#45;ImmVal -->
<g id="edge50" class="edge">
<title>function&#45;0&#45;Addi:s&#45;&gt;function&#45;4&#45;ImmVal</title>
<path fill="none" stroke="black" d="M560,-174C560,-160.43 556.57,-145.65 552.98,-133.93"/>
<polygon fill="black" stroke="black" points="555.93,-134.82 551.45,-132 553.19,-137 555.93,-134.82"/>
</g>
<!-- function&#45;0&#45;Addi&#45;&gt;function&#45;2&#45;RegVal -->
<g id="edge49" class="edge">
<title>function&#45;0&#45;Addi:s&#45;&gt;function&#45;2&#45;RegVal</title>
<path fill="none" stroke="black" d="M540,-174C540,-162.33 526.35,-168.7 515,-166 429.19,-145.61 401.65,-165.78 319,-135 318.27,-134.73 317.55,-134.44 316.82,-134.15"/>
<polygon fill="black" stroke="black" points="317.32,-132.45 312.04,-132 315.89,-135.64 317.32,-132.45"/>
</g>
<!-- function&#45;0&#45;RegVal&#45;&gt;primitive&#45;String&#45;1 -->
<g id="edge37" class="edge">
<title>function&#45;0&#45;RegVal:s&#45;&gt;primitive&#45;String&#45;1</title>
<path fill="none" stroke="black" d="M619,-174C619,-160.84 618.77,-146.1 618.53,-134.3"/>
<polygon fill="black" stroke="black" points="620.41,-136.91 618.42,-132 616.91,-137.08 620.41,-136.91"/>
</g>
<!-- function&#45;1&#45;Bne&#45;&gt;function&#45;0&#45;ImmLabel -->
<g id="edge12" class="edge">
<title>function&#45;1&#45;Bne:s&#45;&gt;function&#45;0&#45;ImmLabel</title>
<path fill="none" stroke="black" d="M552,-332C552,-279.71 471.23,-335.66 441,-293 423.75,-268.65 440.53,-234.51 455.31,-212.57"/>
<polygon fill="black" stroke="black" points="454.47,-215.52 457.23,-211 452.25,-212.81 454.47,-215.52"/>
</g>
<!-- function&#45;1&#45;Bne&#45;&gt;function&#45;0&#45;Addi -->
<g id="edge11" class="edge">
<title>function&#45;1&#45;Bne:s&#45;&gt;function&#45;0&#45;Addi</title>
<path fill="none" stroke="black" d="M543,-332C543,-290.18 546.11,-241.47 548.18,-213.63"/>
<polygon fill="black" stroke="black" points="549.56,-216.21 548.58,-211 546.1,-215.68 549.56,-216.21"/>
</g>
<!-- function&#45;1&#45;Bne&#45;&gt;function&#45;0&#45;RegVal -->
<g id="edge10" class="edge">
<title>function&#45;1&#45;Bne:s&#45;&gt;function&#45;0&#45;RegVal</title>
<path fill="none" stroke="black" d="M529,-332C529,-292.32 527.71,-278.48 549,-245 554.34,-236.6 572.26,-222.67 588.5,-211.06"/>
<polygon fill="black" stroke="black" points="584.69,-213.03 589.59,-211 584.49,-209.54 584.69,-213.03"/>
</g>
<!-- function&#45;0&#45;Seq2&#45;&gt;function&#45;0&#45;Beq -->
<g id="edge13" class="edge">
<title>function&#45;0&#45;Seq2:s&#45;&gt;function&#45;0&#45;Beq</title>
<path fill="none" stroke="black" d="M585,-332C585,-266.55 667.37,-319.97 727,-293 727.5,-292.77 728,-292.54 728.51,-292.3"/>
<polygon fill="black" stroke="black" points="729.37,-293.83 733.03,-290 727.78,-290.71 729.37,-293.83"/>
</g>
<!-- function&#45;0&#45;Seq2&#45;&gt;function&#45;0&#45;Jal -->
<g id="edge14" class="edge">
<title>function&#45;0&#45;Seq2:s&#45;&gt;function&#45;0&#45;Jal</title>
<path fill="none" stroke="black" d="M607,-332C607,-320.72 543.99,-295.92 504.07,-281.33"/>
<polygon fill="black" stroke="black" points="506.96,-281.47 502,-279.61 504.72,-284.15 506.96,-281.47"/>
</g>
<!-- function&#45;0&#45;Beq&#45;&gt;function&#45;1&#45;ImmVal -->
<g id="edge31" class="edge">
<title>function&#45;0&#45;Beq:s&#45;&gt;function&#45;1&#45;ImmVal</title>
<path fill="none" stroke="black" d="M776,-253C776,-204.35 738.23,-158.26 712.75,-132.7"/>
<polygon fill="black" stroke="black" points="716.37,-132.32 711.09,-132 715.02,-135.55 716.37,-132.32"/>
</g>
<!-- function&#45;0&#45;Beq&#45;&gt;function&#45;0&#45;Addi -->
<g id="edge29" class="edge">
<title>function&#45;0&#45;Beq:s&#45;&gt;function&#45;0&#45;Addi</title>
<path fill="none" stroke="black" d="M753,-253C753,-176.35 655.66,-243.72 585,-214 584.47,-213.78 583.95,-213.55 583.42,-213.31"/>
<polygon fill="black" stroke="black" points="583.94,-211.62 578.68,-211 582.41,-214.76 583.94,-211.62"/>
</g>
<!-- function&#45;0&#45;Beq&#45;&gt;function&#45;0&#45;RegVal -->
<g id="edge30" class="edge">
<title>function&#45;0&#45;Beq:s&#45;&gt;function&#45;0&#45;RegVal</title>
<path fill="none" stroke="black" d="M767,-253C767,-249.89 695.34,-221.28 651.42,-204.03"/>
<polygon fill="black" stroke="black" points="655.19,-204.23 650,-203.19 653.41,-207.24 655.19,-204.23"/>
</g>
<!-- function&#45;0&#45;Jal&#45;&gt;function&#45;0&#45;ImmLabel -->
<g id="edge28" class="edge">
<title>function&#45;0&#45;Jal:s&#45;&gt;function&#45;0&#45;ImmLabel</title>
<path fill="none" stroke="black" d="M472,-253C472,-239.84 472,-225.11 472,-213.3"/>
<polygon fill="black" stroke="black" points="473.75,-216 472,-211 470.25,-216 473.75,-216"/>
</g>
<!-- function&#45;0&#45;Sw&#45;&gt;function&#45;0&#45;ImmVal -->
<g id="edge17" class="edge">
<title>function&#45;0&#45;Sw:s&#45;&gt;function&#45;0&#45;ImmVal</title>
<path fill="none" stroke="black" d="M165,-253C165,-228.8 136.12,-236.42 127,-214 116.48,-188.14 121.17,-155.52 126.33,-134.23"/>
<polygon fill="black" stroke="black" points="126.67,-137.22 127.58,-132 123.62,-135.52 126.67,-137.22"/>
</g>
<!-- function&#45;0&#45;Sw&#45;&gt;function&#45;1&#45;RegVal -->
<g id="edge15" class="edge">
<title>function&#45;0&#45;Sw:s&#45;&gt;function&#45;1&#45;RegVal</title>
<path fill="none" stroke="black" d="M146,-253C146,-246.47 173.01,-226.59 195.64,-211.09"/>
<polygon fill="black" stroke="black" points="192.23,-214.91 195.81,-211 190.57,-211.82 192.23,-214.91"/>
</g>
<!-- function&#45;0&#45;Sw&#45;&gt;function&#45;0&#45;Lw -->
<g id="edge16" class="edge">
<title>function&#45;0&#45;Sw:s&#45;&gt;function&#45;0&#45;Lw</title>
<path fill="none" stroke="black" d="M158,-253C158,-239.84 158,-225.11 158,-213.3"/>
<polygon fill="black" stroke="black" points="159.75,-216 158,-211 156.25,-216 159.75,-216"/>
</g>
<!-- function&#45;1&#45;RegVal&#45;&gt;primitive&#45;String&#45;2 -->
<g id="edge39" class="edge">
<title>function&#45;1&#45;RegVal:s&#45;&gt;primitive&#45;String&#45;2</title>
<path fill="none" stroke="black" d="M227,-174C227,-160.43 223.57,-145.65 219.98,-133.93"/>
<polygon fill="black" stroke="black" points="222.93,-134.82 218.45,-132 220.19,-137 222.93,-134.82"/>
</g>
<!-- function&#45;0&#45;Lw&#45;&gt;function&#45;0&#45;ImmVal -->
<g id="edge44" class="edge">
<title>function&#45;0&#45;Lw:s&#45;&gt;function&#45;0&#45;ImmVal</title>
<path fill="none" stroke="black" d="M166,-174C166,-159.36 158.74,-144.81 151.03,-133.5"/>
<polygon fill="black" stroke="black" points="154.3,-135.03 149.96,-132 151.46,-137.08 154.3,-135.03"/>
</g>
<!-- function&#45;0&#45;Lw&#45;&gt;function&#45;2&#45;RegVal -->
<g id="edge43" class="edge">
<title>function&#45;0&#45;Lw:s&#45;&gt;function&#45;2&#45;RegVal</title>
<path fill="none" stroke="black" d="M150,-174C150,-128.36 204.37,-155.79 245,-135 245.35,-134.82 245.69,-134.64 246.04,-134.46"/>
<polygon fill="black" stroke="black" points="247.04,-135.91 250.61,-132 245.38,-132.83 247.04,-135.91"/>
</g>
<!-- function&#45;1&#45;Addi&#45;&gt;function&#45;4&#45;ImmVal -->
<g id="edge19" class="edge">
<title>function&#45;1&#45;Addi:s&#45;&gt;function&#45;4&#45;ImmVal</title>
<path fill="none" stroke="black" d="M325,-253C325,-251.74 350.07,-166.85 351,-166 402.23,-119.21 438.96,-159.15 504,-135 504.75,-134.72 505.5,-134.43 506.25,-134.13"/>
<polygon fill="black" stroke="black" points="507.32,-135.58 511.22,-132 505.94,-132.36 507.32,-135.58"/>
</g>
<!-- function&#45;1&#45;Addi&#45;&gt;function&#45;1&#45;RegVal -->
<g id="edge18" class="edge">
<title>function&#45;1&#45;Addi:s&#45;&gt;function&#45;1&#45;RegVal</title>
<path fill="none" stroke="black" d="M305,-253C305,-246.52 278.33,-226.64 255.98,-211.12"/>
<polygon fill="black" stroke="black" points="260.02,-209.78 254.87,-211 259.66,-213.26 260.02,-209.78"/>
</g>
<!-- function&#45;2&#45;Bne&#45;&gt;function&#45;1&#45;ImmVal -->
<g id="edge22" class="edge">
<title>function&#45;2&#45;Bne:s&#45;&gt;function&#45;1&#45;ImmVal</title>
<path fill="none" stroke="black" d="M594,-253C594,-222.3 632.75,-238.68 651,-214 664.29,-196.03 658.11,-186.91 666,-166 670.04,-155.28 675.13,-143.63 679.58,-133.9"/>
<polygon fill="black" stroke="black" points="679.66,-137.2 680.7,-132 676.65,-135.41 679.66,-137.2"/>
</g>
<!-- function&#45;2&#45;Bne&#45;&gt;function&#45;0&#45;Addi -->
<g id="edge20" class="edge">
<title>function&#45;2&#45;Bne:s&#45;&gt;function&#45;0&#45;Addi</title>
<path fill="none" stroke="black" d="M571,-253C571,-239.18 566.26,-224.49 561.28,-212.89"/>
<polygon fill="black" stroke="black" points="564.22,-214.39 560.15,-211 561.22,-216.19 564.22,-214.39"/>
</g>
<!-- function&#45;2&#45;Bne&#45;&gt;function&#45;0&#45;RegVal -->
<g id="edge21" class="edge">
<title>function&#45;2&#45;Bne:s&#45;&gt;function&#45;0&#45;RegVal</title>
<path fill="none" stroke="black" d="M585,-253C585,-238.36 592.26,-223.81 599.97,-212.5"/>
<polygon fill="black" stroke="black" points="599.54,-216.08 601.04,-211 596.7,-214.03 599.54,-216.08"/>
</g>
<!-- function&#45;3&#45;Bne&#45;&gt;function&#45;1&#45;ImmVal -->
<g id="edge25" class="edge">
<title>function&#45;3&#45;Bne:s&#45;&gt;function&#45;1&#45;ImmVal</title>
<path fill="none" stroke="black" d="M652,-253C652,-249.97 673.14,-173.03 683.88,-134.11"/>
<polygon fill="black" stroke="black" points="683.99,-137.14 685.26,-132 681.06,-135.23 683.99,-137.14"/>
</g>
<!-- function&#45;3&#45;Bne&#45;&gt;function&#45;0&#45;Addi -->
<g id="edge24" class="edge">
<title>function&#45;3&#45;Bne:s&#45;&gt;function&#45;0&#45;Addi</title>
<path fill="none" stroke="black" d="M643,-253C643,-252.52 607.34,-228.86 580.18,-210.91"/>
<polygon fill="black" stroke="black" points="582.8,-214.59 580,-210.09 579.38,-215.35 582.8,-214.59"/>
</g>
<!-- function&#45;3&#45;Bne&#45;&gt;function&#45;0&#45;RegVal -->
<g id="edge23" class="edge">
<title>function&#45;3&#45;Bne:s&#45;&gt;function&#45;0&#45;RegVal</title>
<path fill="none" stroke="black" d="M629,-253C629,-239.73 626.53,-225.1 623.92,-213.39"/>
<polygon fill="black" stroke="black" points="626.53,-214.69 622.73,-211 623.4,-216.25 626.53,-214.69"/>
</g>
<!-- function&#45;2&#45;Seq2&#45;&gt;function&#45;1&#45;Seq2 -->
<g id="edge26" class="edge">
<title>function&#45;2&#45;Seq2:s&#45;&gt;function&#45;1&#45;Seq2</title>
<path fill="none" stroke="black" d="M685,-253C685,-178.07 807.84,-204.55 845,-223.5 854.53,-228.36 861.96,-237.41 867.33,-246.17"/>
<polygon fill="black" stroke="black" points="864.37,-245.62 869.1,-248 866.88,-243.19 864.37,-245.62"/>
</g>
<!-- function&#45;2&#45;Seq2&#45;&gt;function&#45;1&#45;Jal -->
<g id="edge27" class="edge">
<title>function&#45;2&#45;Seq2:s&#45;&gt;function&#45;1&#45;Jal</title>
<path fill="none" stroke="black" d="M707,-253C707,-239.84 707.23,-225.1 707.47,-213.3"/>
<polygon fill="black" stroke="black" points="709.09,-216.08 707.58,-211 705.59,-215.91 709.09,-216.08"/>
</g>
<!-- function&#45;1&#45;Seq2&#45;&gt;function&#45;2&#45;Bne -->
<g id="edge35" class="edge">
<title>function&#45;1&#45;Seq2:s&#45;&gt;function&#45;2&#45;Bne</title>
<path fill="none" stroke="black" d="M867,-253C867,-236.64 859.62,-230.83 845,-223.5 798.92,-200.38 658.93,-200.08 613,-223.5 603.47,-228.36 596.04,-237.41 590.67,-246.17"/>
<polygon fill="black" stroke="black" points="591.12,-243.19 588.9,-248 593.63,-245.62 591.12,-243.19"/>
</g>
<!-- function&#45;1&#45;Seq2&#45;&gt;function&#45;1&#45;Jal -->
<g id="edge36" class="edge">
<title>function&#45;1&#45;Seq2:s&#45;&gt;function&#45;1&#45;Jal</title>
<path fill="none" stroke="black" d="M889,-253C889,-221.93 792.34,-203.16 740.3,-195.31"/>
<polygon fill="black" stroke="black" points="743.3,-194.47 738,-194.54 742.18,-197.79 743.3,-194.47"/>
</g>
<!-- function&#45;1&#45;Jal&#45;&gt;function&#45;1&#45;ImmVal -->
<g id="edge38" class="edge">
<title>function&#45;1&#45;Jal:s&#45;&gt;function&#45;1&#45;ImmVal</title>
<path fill="none" stroke="black" d="M708,-174C708,-160.37 703.94,-145.69 699.67,-134.05"/>
<polygon fill="black" stroke="black" points="702.34,-135.98 698.84,-132 699.1,-137.29 702.34,-135.98"/>
</g>
<!-- function&#45;1&#45;Beq&#45;&gt;function&#45;1&#45;ImmVal -->
<g id="edge34" class="edge">
<title>function&#45;1&#45;Beq:s&#45;&gt;function&#45;1&#45;ImmVal</title>
<path fill="none" stroke="black" d="M834,-253C834,-192.57 768.46,-149.5 725.81,-127.88"/>
<polygon fill="black" stroke="black" points="729.09,-128.05 724,-126.6 727.08,-130.91 729.09,-128.05"/>
</g>
<!-- function&#45;1&#45;Beq&#45;&gt;function&#45;0&#45;Addi -->
<g id="edge33" class="edge">
<title>function&#45;1&#45;Beq:s&#45;&gt;function&#45;0&#45;Addi</title>
<path fill="none" stroke="black" d="M825,-253C825,-198.97 635.45,-233.34 585,-214 584.3,-213.73 583.6,-213.45 582.9,-213.15"/>
<polygon fill="black" stroke="black" points="583.58,-211.53 578.31,-211 582.09,-214.7 583.58,-211.53"/>
</g>
<!-- function&#45;1&#45;Beq&#45;&gt;function&#45;0&#45;RegVal -->
<g id="edge32" class="edge">
<title>function&#45;1&#45;Beq:s&#45;&gt;function&#45;0&#45;RegVal</title>
<path fill="none" stroke="black" d="M811,-253C811,-242.6 798.91,-248.17 789,-245 739.8,-229.27 726.01,-230.29 677,-214 668.71,-211.24 659.87,-207.98 651.64,-204.79"/>
<polygon fill="black" stroke="black" points="655.19,-204.87 650,-203.82 653.41,-207.88 655.19,-204.87"/>
</g>
<!-- function&#45;1&#45;Sw&#45;&gt;function&#45;1&#45;ImmVal -->
<g id="edge42" class="edge">
<title>function&#45;1&#45;Sw:s&#45;&gt;function&#45;1&#45;ImmVal</title>
<path fill="none" stroke="black" d="M392,-253C392,-233.31 405.19,-232.07 413,-214 421.92,-193.36 411.71,-180.38 429,-166 505.59,-102.29 556.94,-167.83 651,-135 651.92,-134.68 652.84,-134.33 653.77,-133.97"/>
<polygon fill="black" stroke="black" points="654.46,-135.58 658.37,-132 653.08,-132.36 654.46,-135.58"/>
</g>
<!-- function&#45;1&#45;Sw&#45;&gt;function&#45;1&#45;RegVal -->
<g id="edge40" class="edge">
<title>function&#45;1&#45;Sw:s&#45;&gt;function&#45;1&#45;RegVal</title>
<path fill="none" stroke="black" d="M373,-253C373,-201.13 309.74,-236.49 263,-214 262.64,-213.82 262.27,-213.65 261.91,-213.47"/>
<polygon fill="black" stroke="black" points="262.38,-211.74 257.13,-211 260.77,-214.85 262.38,-211.74"/>
</g>
<!-- function&#45;1&#45;Sw&#45;&gt;function&#45;1&#45;Lw -->
<g id="edge41" class="edge">
<title>function&#45;1&#45;Sw:s&#45;&gt;function&#45;1&#45;Lw</title>
<path fill="none" stroke="black" d="M385,-253C385,-239.82 384.32,-225.09 383.6,-213.29"/>
<polygon fill="black" stroke="black" points="385.71,-215.7 383.27,-211 382.25,-216.2 385.71,-215.7"/>
</g>
<!-- function&#45;1&#45;Lw&#45;&gt;function&#45;1&#45;ImmVal -->
<g id="edge55" class="edge">
<title>function&#45;1&#45;Lw:s&#45;&gt;function&#45;1&#45;ImmVal</title>
<path fill="none" stroke="black" d="M390,-174C390,-161.48 404.76,-168.61 417,-166 519.61,-144.14 551.83,-169.22 651,-135 651.93,-134.68 652.86,-134.34 653.79,-133.97"/>
<polygon fill="black" stroke="black" points="654.51,-135.57 658.43,-132 653.14,-132.35 654.51,-135.57"/>
</g>
<!-- function&#45;1&#45;Lw&#45;&gt;function&#45;2&#45;RegVal -->
<g id="edge54" class="edge">
<title>function&#45;1&#45;Lw:s&#45;&gt;function&#45;2&#45;RegVal</title>
<path fill="none" stroke="black" d="M374,-174C374,-172.22 343.32,-151.82 317.39,-134.9"/>
<polygon fill="black" stroke="black" points="318.09,-133.26 312.95,-132 316.18,-136.2 318.09,-133.26"/>
</g>
<!-- function&#45;2&#45;RegVal&#45;&gt;primitive&#45;String&#45;3 -->
<g id="edge45" class="edge">
<title>function&#45;2&#45;RegVal:s&#45;&gt;primitive&#45;String&#45;3</title>
<path fill="none" stroke="black" d="M283,-95C283,-81.84 283,-67.11 283,-55.3"/>
<polygon fill="black" stroke="black" points="284.75,-58 283,-53 281.25,-58 284.75,-58"/>
</g>
<!-- function&#45;2&#45;Sw&#45;&gt;function&#45;2&#45;ImmVal -->
<g id="edge48" class="edge">
<title>function&#45;2&#45;Sw:s&#45;&gt;function&#45;2&#45;ImmVal</title>
<path fill="none" stroke="black" d="M260,-253C260,-219.31 304.51,-240.74 325,-214 327.48,-210.77 340.39,-163.25 348.13,-134.23"/>
<polygon fill="black" stroke="black" points="348.36,-137.17 349.51,-132 345.39,-135.33 348.36,-137.17"/>
</g>
<!-- function&#45;2&#45;Sw&#45;&gt;function&#45;1&#45;RegVal -->
<g id="edge46" class="edge">
<title>function&#45;2&#45;Sw:s&#45;&gt;function&#45;1&#45;RegVal</title>
<path fill="none" stroke="black" d="M241,-253C241,-239.43 237.57,-224.65 233.98,-212.93"/>
<polygon fill="black" stroke="black" points="236.93,-213.82 232.45,-211 234.19,-216 236.93,-213.82"/>
</g>
<!-- function&#45;2&#45;Sw&#45;&gt;function&#45;2&#45;Lw -->
<g id="edge47" class="edge">
<title>function&#45;2&#45;Sw:s&#45;&gt;function&#45;2&#45;Lw</title>
<path fill="none" stroke="black" d="M253,-253C253,-237.6 261.91,-223.08 271.42,-211.97"/>
<polygon fill="black" stroke="black" points="269.68,-215.17 272.94,-211 267.79,-212.23 269.68,-215.17"/>
</g>
<!-- function&#45;2&#45;Lw&#45;&gt;function&#45;2&#45;ImmVal -->
<g id="edge57" class="edge">
<title>function&#45;2&#45;Lw:s&#45;&gt;function&#45;2&#45;ImmVal</title>
<path fill="none" stroke="black" d="M302,-174C302,-157.59 312.82,-143.25 324.6,-132.5"/>
<polygon fill="black" stroke="black" points="321.91,-135.8 325.61,-132 320.35,-132.66 321.91,-135.8"/>
</g>
<!-- function&#45;2&#45;Lw&#45;&gt;function&#45;2&#45;RegVal -->
<g id="edge56" class="edge">
<title>function&#45;2&#45;Lw:s&#45;&gt;function&#45;2&#45;RegVal</title>
<path fill="none" stroke="black" d="M286,-174C286,-160.81 285.09,-146.08 284.13,-134.28"/>
<polygon fill="black" stroke="black" points="286.36,-136.58 283.7,-132 282.92,-137.24 286.36,-136.58"/>
</g>
<!-- function&#45;3&#45;Sw&#45;&gt;function&#45;3&#45;ImmVal -->
<g id="edge53" class="edge">
<title>function&#45;3&#45;Sw:s&#45;&gt;function&#45;3&#45;ImmVal</title>
<path fill="none" stroke="black" d="M87,-253C87,-228.8 58.55,-236.24 49,-214 37.97,-188.33 39.01,-155.6 41.43,-134.23"/>
<polygon fill="black" stroke="black" points="42.38,-137.29 42.07,-132 39.01,-136.32 42.38,-137.29"/>
</g>
<!-- function&#45;3&#45;Sw&#45;&gt;function&#45;1&#45;RegVal -->
<g id="edge51" class="edge">
<title>function&#45;3&#45;Sw:s&#45;&gt;function&#45;1&#45;RegVal</title>
<path fill="none" stroke="black" d="M68,-253C68,-196.5 137.74,-237.76 189,-214 189.5,-213.77 190,-213.53 190.5,-213.29"/>
<polygon fill="black" stroke="black" points="191.35,-214.82 195.02,-211 189.77,-211.7 191.35,-214.82"/>
</g>
<!-- function&#45;3&#45;Sw&#45;&gt;function&#45;3&#45;Lw -->
<g id="edge52" class="edge">
<title>function&#45;3&#45;Sw:s&#45;&gt;function&#45;3&#45;Lw</title>
<path fill="none" stroke="black" d="M80,-253C80,-239.84 80,-225.11 80,-213.3"/>
<polygon fill="black" stroke="black" points="81.75,-216 80,-211 78.25,-216 81.75,-216"/>
</g>
<!-- function&#45;3&#45;Lw&#45;&gt;function&#45;3&#45;ImmVal -->
<g id="edge59" class="edge">
<title>function&#45;3&#45;Lw:s&#45;&gt;function&#45;3&#45;ImmVal</title>
<path fill="none" stroke="black" d="M88,-174C88,-158.48 78.79,-144.05 68.9,-133.02"/>
<polygon fill="black" stroke="black" points="72.42,-133.14 67.24,-132 70.58,-136.11 72.42,-133.14"/>
</g>
<!-- function&#45;3&#45;Lw&#45;&gt;function&#45;2&#45;RegVal -->
<g id="edge58" class="edge">
<title>function&#45;3&#45;Lw:s&#45;&gt;function&#45;2&#45;RegVal</title>
<path fill="none" stroke="black" d="M72,-174C72,-134.59 208.53,-149.94 245,-135 245.54,-134.78 246.09,-134.55 246.64,-134.31"/>
<polygon fill="black" stroke="black" points="247.77,-135.71 251.55,-132 246.28,-132.54 247.77,-135.71"/>
</g>
<!-- function&#45;3&#45;ImmVal -->
<g id="node1" class="node">
<title>function&#45;3&#45;ImmVal</title>
<g id="a_node1"><a xlink:title="Imm&#45;9: function&#45;3&#45;ImmVal">
<path fill="white" stroke="transparent" d="M24.67,-95C24.67,-95 65.33,-95 65.33,-95 70.67,-95 76,-100.33 76,-105.67 76,-105.67 76,-116.33 76,-116.33 76,-121.67 70.67,-127 65.33,-127 65.33,-127 24.67,-127 24.67,-127 19.33,-127 14,-121.67 14,-116.33 14,-116.33 14,-105.67 14,-105.67 14,-100.33 19.33,-95 24.67,-95"/>
<text text-anchor="start" x="19" y="-107.3" font-family="Helvetica,sans-Serif" font-size="14.00">ImmVal</text>
<path fill="none" stroke="black" d="M24.67,-95C24.67,-95 65.33,-95 65.33,-95 70.67,-95 76,-100.33 76,-105.67 76,-105.67 76,-116.33 76,-116.33 76,-121.67 70.67,-127 65.33,-127 65.33,-127 24.67,-127 24.67,-127 19.33,-127 14,-121.67 14,-116.33 14,-116.33 14,-105.67 14,-105.67 14,-100.33 19.33,-95 24.67,-95"/>
</a>
</g>
</g>
<!-- primitive&#45;i64&#45;12 -->
<g id="node2" class="node">
<title>primitive&#45;i64&#45;12</title>
<g id="a_node2"><a xlink:title="i64&#45;12: primitive&#45;i64&#45;12">
<path fill="white" stroke="transparent" d="M39.67,-16C39.67,-16 50.33,-16 50.33,-16 55.67,-16 61,-21.33 61,-26.67 61,-26.67 61,-37.33 61,-37.33 61,-42.67 55.67,-48 50.33,-48 50.33,-48 39.67,-48 39.67,-48 34.33,-48 29,-42.67 29,-37.33 29,-37.33 29,-26.67 29,-26.67 29,-21.33 34.33,-16 39.67,-16"/>
<text text-anchor="start" x="35.5" y="-28.3" font-family="Helvetica,sans-Serif" font-size="14.00">12</text>
<path fill="none" stroke="black" d="M39.67,-16C39.67,-16 50.33,-16 50.33,-16 55.67,-16 61,-21.33 61,-26.67 61,-26.67 61,-37.33 61,-37.33 61,-42.67 55.67,-48 50.33,-48 50.33,-48 39.67,-48 39.67,-48 34.33,-48 29,-42.67 29,-37.33 29,-37.33 29,-26.67 29,-26.67 29,-21.33 34.33,-16 39.67,-16"/>
</a>
</g>
</g>
<!-- function&#45;0&#45;ImmLabel -->
<g id="node3" class="node">
<title>function&#45;0&#45;ImmLabel</title>
<g id="a_node3"><a xlink:title="Imm&#45;18: function&#45;0&#45;ImmLabel">
<path fill="white" stroke="transparent" d="M443.17,-174C443.17,-174 500.83,-174 500.83,-174 506.17,-174 511.5,-179.33 511.5,-184.67 511.5,-184.67 511.5,-195.33 511.5,-195.33 511.5,-200.67 506.17,-206 500.83,-206 500.83,-206 443.17,-206 443.17,-206 437.83,-206 432.5,-200.67 432.5,-195.33 432.5,-195.33 432.5,-184.67 432.5,-184.67 432.5,-179.33 437.83,-174 443.17,-174"/>
<text text-anchor="start" x="438" y="-186.3" font-family="Helvetica,sans-Serif" font-size="14.00">ImmLabel</text>
<path fill="none" stroke="black" d="M443.17,-174C443.17,-174 500.83,-174 500.83,-174 506.17,-174 511.5,-179.33 511.5,-184.67 511.5,-184.67 511.5,-195.33 511.5,-195.33 511.5,-200.67 506.17,-206 500.83,-206 500.83,-206 443.17,-206 443.17,-206 437.83,-206 432.5,-200.67 432.5,-195.33 432.5,-195.33 432.5,-184.67 432.5,-184.67 432.5,-179.33 437.83,-174 443.17,-174"/>
</a>
</g>
</g>
<!-- primitive&#45;String&#45;4 -->
<g id="node4" class="node">
<title>primitive&#45;String&#45;4</title>
<g id="a_node4"><a xlink:title="String&#45;4: primitive&#45;String&#45;4">
<path fill="white" stroke="transparent" d="M456.67,-95C456.67,-95 489.33,-95 489.33,-95 494.67,-95 500,-100.33 500,-105.67 500,-105.67 500,-116.33 500,-116.33 500,-121.67 494.67,-127 489.33,-127 489.33,-127 456.67,-127 456.67,-127 451.33,-127 446,-121.67 446,-116.33 446,-116.33 446,-105.67 446,-105.67 446,-100.33 451.33,-95 456.67,-95"/>
<text text-anchor="start" x="451" y="-107.3" font-family="Helvetica,sans-Serif" font-size="14.00">&quot;.L47&quot;</text>
<path fill="none" stroke="black" d="M456.67,-95C456.67,-95 489.33,-95 489.33,-95 494.67,-95 500,-100.33 500,-105.67 500,-105.67 500,-116.33 500,-116.33 500,-121.67 494.67,-127 489.33,-127 489.33,-127 456.67,-127 456.67,-127 451.33,-127 446,-121.67 446,-116.33 446,-116.33 446,-105.67 446,-105.67 446,-100.33 451.33,-95 456.67,-95"/>
</a>
</g>
</g>
<!-- function&#45;0&#45;ImmVal -->
<g id="node5" class="node">
<title>function&#45;0&#45;ImmVal</title>
<g id="a_node5"><a xlink:title="Imm&#45;3: function&#45;0&#45;ImmVal">
<path fill="white" stroke="transparent" d="M112.67,-95C112.67,-95 153.33,-95 153.33,-95 158.67,-95 164,-100.33 164,-105.67 164,-105.67 164,-116.33 164,-116.33 164,-121.67 158.67,-127 153.33,-127 153.33,-127 112.67,-127 112.67,-127 107.33,-127 102,-121.67 102,-116.33 102,-116.33 102,-105.67 102,-105.67 102,-100.33 107.33,-95 112.67,-95"/>
<text text-anchor="start" x="107" y="-107.3" font-family="Helvetica,sans-Serif" font-size="14.00">ImmVal</text>
<path fill="none" stroke="black" d="M112.67,-95C112.67,-95 153.33,-95 153.33,-95 158.67,-95 164,-100.33 164,-105.67 164,-105.67 164,-116.33 164,-116.33 164,-121.67 158.67,-127 153.33,-127 153.33,-127 112.67,-127 112.67,-127 107.33,-127 102,-121.67 102,-116.33 102,-116.33 102,-105.67 102,-105.67 102,-100.33 107.33,-95 112.67,-95"/>
</a>
</g>
</g>
<!-- primitive&#45;i64&#45;0 -->
<g id="node6" class="node">
<title>primitive&#45;i64&#45;0</title>
<g id="a_node6"><a xlink:title="i64&#45;0: primitive&#45;i64&#45;0">
<path fill="white" stroke="transparent" d="M127.67,-16C127.67,-16 138.33,-16 138.33,-16 143.67,-16 149,-21.33 149,-26.67 149,-26.67 149,-37.33 149,-37.33 149,-42.67 143.67,-48 138.33,-48 138.33,-48 127.67,-48 127.67,-48 122.33,-48 117,-42.67 117,-37.33 117,-37.33 117,-26.67 117,-26.67 117,-21.33 122.33,-16 127.67,-16"/>
<text text-anchor="start" x="128" y="-28.3" font-family="Helvetica,sans-Serif" font-size="14.00">0</text>
<path fill="none" stroke="black" d="M127.67,-16C127.67,-16 138.33,-16 138.33,-16 143.67,-16 149,-21.33 149,-26.67 149,-26.67 149,-37.33 149,-37.33 149,-42.67 143.67,-48 138.33,-48 138.33,-48 127.67,-48 127.67,-48 122.33,-48 117,-42.67 117,-37.33 117,-37.33 117,-26.67 117,-26.67 117,-21.33 122.33,-16 127.67,-16"/>
</a>
</g>
</g>
<!-- function&#45;1&#45;ImmVal -->
<g id="node7" class="node">
<title>function&#45;1&#45;ImmVal</title>
<g id="a_node7"><a xlink:title="Imm&#45;5: function&#45;1&#45;ImmVal">
<path fill="white" stroke="transparent" d="M669.67,-95C669.67,-95 710.33,-95 710.33,-95 715.67,-95 721,-100.33 721,-105.67 721,-105.67 721,-116.33 721,-116.33 721,-121.67 715.67,-127 710.33,-127 710.33,-127 669.67,-127 669.67,-127 664.33,-127 659,-121.67 659,-116.33 659,-116.33 659,-105.67 659,-105.67 659,-100.33 664.33,-95 669.67,-95"/>
<text text-anchor="start" x="664" y="-107.3" font-family="Helvetica,sans-Serif" font-size="14.00">ImmVal</text>
<path fill="none" stroke="black" d="M669.67,-95C669.67,-95 710.33,-95 710.33,-95 715.67,-95 721,-100.33 721,-105.67 721,-105.67 721,-116.33 721,-116.33 721,-121.67 715.67,-127 710.33,-127 710.33,-127 669.67,-127 669.67,-127 664.33,-127 659,-121.67 659,-116.33 659,-116.33 659,-105.67 659,-105.67 659,-100.33 664.33,-95 669.67,-95"/>
</a>
</g>
</g>
<!-- primitive&#45;i64&#45;4 -->
<g id="node8" class="node">
<title>primitive&#45;i64&#45;4</title>
<g id="a_node8"><a xlink:title="i64&#45;4: primitive&#45;i64&#45;4">
<path fill="white" stroke="transparent" d="M684.67,-16C684.67,-16 695.33,-16 695.33,-16 700.67,-16 706,-21.33 706,-26.67 706,-26.67 706,-37.33 706,-37.33 706,-42.67 700.67,-48 695.33,-48 695.33,-48 684.67,-48 684.67,-48 679.33,-48 674,-42.67 674,-37.33 674,-37.33 674,-26.67 674,-26.67 674,-21.33 679.33,-16 684.67,-16"/>
<text text-anchor="start" x="685" y="-28.3" font-family="Helvetica,sans-Serif" font-size="14.00">4</text>
<path fill="none" stroke="black" d="M684.67,-16C684.67,-16 695.33,-16 695.33,-16 700.67,-16 706,-21.33 706,-26.67 706,-26.67 706,-37.33 706,-37.33 706,-42.67 700.67,-48 695.33,-48 695.33,-48 684.67,-48 684.67,-48 679.33,-48 674,-42.67 674,-37.33 674,-37.33 674,-26.67 674,-26.67 674,-21.33 679.33,-16 684.67,-16"/>
</a>
</g>
</g>
<!-- function&#45;2&#45;ImmVal -->
<g id="node9" class="node">
<title>function&#45;2&#45;ImmVal</title>
<g id="a_node9"><a xlink:title="Imm&#45;7: function&#45;2&#45;ImmVal">
<path fill="white" stroke="transparent" d="M333.67,-95C333.67,-95 374.33,-95 374.33,-95 379.67,-95 385,-100.33 385,-105.67 385,-105.67 385,-116.33 385,-116.33 385,-121.67 379.67,-127 374.33,-127 374.33,-127 333.67,-127 333.67,-127 328.33,-127 323,-121.67 323,-116.33 323,-116.33 323,-105.67 323,-105.67 323,-100.33 328.33,-95 333.67,-95"/>
<text text-anchor="start" x="328" y="-107.3" font-family="Helvetica,sans-Serif" font-size="14.00">ImmVal</text>
<path fill="none" stroke="black" d="M333.67,-95C333.67,-95 374.33,-95 374.33,-95 379.67,-95 385,-100.33 385,-105.67 385,-105.67 385,-116.33 385,-116.33 385,-121.67 379.67,-127 374.33,-127 374.33,-127 333.67,-127 333.67,-127 328.33,-127 323,-121.67 323,-116.33 323,-116.33 323,-105.67 323,-105.67 323,-100.33 328.33,-95 333.67,-95"/>
</a>
</g>
</g>
<!-- primitive&#45;i64&#45;8 -->
<g id="node10" class="node">
<title>primitive&#45;i64&#45;8</title>
<g id="a_node10"><a xlink:title="i64&#45;8: primitive&#45;i64&#45;8">
<path fill="white" stroke="transparent" d="M348.67,-16C348.67,-16 359.33,-16 359.33,-16 364.67,-16 370,-21.33 370,-26.67 370,-26.67 370,-37.33 370,-37.33 370,-42.67 364.67,-48 359.33,-48 359.33,-48 348.67,-48 348.67,-48 343.33,-48 338,-42.67 338,-37.33 338,-37.33 338,-26.67 338,-26.67 338,-21.33 343.33,-16 348.67,-16"/>
<text text-anchor="start" x="349" y="-28.3" font-family="Helvetica,sans-Serif" font-size="14.00">8</text>
<path fill="none" stroke="black" d="M348.67,-16C348.67,-16 359.33,-16 359.33,-16 364.67,-16 370,-21.33 370,-26.67 370,-26.67 370,-37.33 370,-37.33 370,-42.67 364.67,-48 359.33,-48 359.33,-48 348.67,-48 348.67,-48 343.33,-48 338,-42.67 338,-37.33 338,-37.33 338,-26.67 338,-26.67 338,-21.33 343.33,-16 348.67,-16"/>
</a>
</g>
</g>
<!-- function&#45;4&#45;ImmVal -->
<g id="node11" class="node">
<title>function&#45;4&#45;ImmVal</title>
<g id="a_node11"><a xlink:title="Imm&#45;15: function&#45;4&#45;ImmVal">
<path fill="white" stroke="transparent" d="M524.67,-95C524.67,-95 565.33,-95 565.33,-95 570.67,-95 576,-100.33 576,-105.67 576,-105.67 576,-116.33 576,-116.33 576,-121.67 570.67,-127 565.33,-127 565.33,-127 524.67,-127 524.67,-127 519.33,-127 514,-121.67 514,-116.33 514,-116.33 514,-105.67 514,-105.67 514,-100.33 519.33,-95 524.67,-95"/>
<text text-anchor="start" x="519" y="-107.3" font-family="Helvetica,sans-Serif" font-size="14.00">ImmVal</text>
<path fill="none" stroke="black" d="M524.67,-95C524.67,-95 565.33,-95 565.33,-95 570.67,-95 576,-100.33 576,-105.67 576,-105.67 576,-116.33 576,-116.33 576,-121.67 570.67,-127 565.33,-127 565.33,-127 524.67,-127 524.67,-127 519.33,-127 514,-121.67 514,-116.33 514,-116.33 514,-105.67 514,-105.67 514,-100.33 519.33,-95 524.67,-95"/>
</a>
</g>
</g>
<!-- primitive&#45;i64&#45;16 -->
<g id="node12" class="node">
<title>primitive&#45;i64&#45;16</title>
<g id="a_node12"><a xlink:title="i64&#45;16: primitive&#45;i64&#45;16">
<path fill="white" stroke="transparent" d="M539.67,-16C539.67,-16 550.33,-16 550.33,-16 555.67,-16 561,-21.33 561,-26.67 561,-26.67 561,-37.33 561,-37.33 561,-42.67 555.67,-48 550.33,-48 550.33,-48 539.67,-48 539.67,-48 534.33,-48 529,-42.67 529,-37.33 529,-37.33 529,-26.67 529,-26.67 529,-21.33 534.33,-16 539.67,-16"/>
<text text-anchor="start" x="535.5" y="-28.3" font-family="Helvetica,sans-Serif" font-size="14.00">16</text>
<path fill="none" stroke="black" d="M539.67,-16C539.67,-16 550.33,-16 550.33,-16 555.67,-16 561,-21.33 561,-26.67 561,-26.67 561,-37.33 561,-37.33 561,-42.67 555.67,-48 550.33,-48 550.33,-48 539.67,-48 539.67,-48 534.33,-48 529,-42.67 529,-37.33 529,-37.33 529,-26.67 529,-26.67 529,-21.33 534.33,-16 539.67,-16"/>
</a>
</g>
</g>
<!-- function&#45;0&#45;Bne -->
<g id="node13" class="node">
<title>function&#45;0&#45;Bne</title>
<g id="a_node13"><a xlink:title="Inst&#45;19: function&#45;0&#45;Bne">
<path fill="white" stroke="transparent" d="M471.67,-332C471.67,-332 488.33,-332 488.33,-332 493.67,-332 499,-337.33 499,-342.67 499,-342.67 499,-353.33 499,-353.33 499,-358.67 493.67,-364 488.33,-364 488.33,-364 471.67,-364 471.67,-364 466.33,-364 461,-358.67 461,-353.33 461,-353.33 461,-342.67 461,-342.67 461,-337.33 466.33,-332 471.67,-332"/>
<text text-anchor="start" x="466" y="-344.3" font-family="Helvetica,sans-Serif" font-size="14.00">Bne</text>
<path fill="none" stroke="black" d="M471.67,-332C471.67,-332 488.33,-332 488.33,-332 493.67,-332 499,-337.33 499,-342.67 499,-342.67 499,-353.33 499,-353.33 499,-358.67 493.67,-364 488.33,-364 488.33,-364 471.67,-364 471.67,-364 466.33,-364 461,-358.67 461,-353.33 461,-353.33 461,-342.67 461,-342.67 461,-337.33 466.33,-332 471.67,-332"/>
</a>
</g>
</g>
<!-- function&#45;0&#45;Addi -->
<g id="node14" class="node">
<title>function&#45;0&#45;Addi</title>
<g id="a_node14"><a xlink:title="Inst&#45;16: function&#45;0&#45;Addi">
<path fill="white" stroke="transparent" d="M540.17,-174C540.17,-174 559.83,-174 559.83,-174 565.17,-174 570.5,-179.33 570.5,-184.67 570.5,-184.67 570.5,-195.33 570.5,-195.33 570.5,-200.67 565.17,-206 559.83,-206 559.83,-206 540.17,-206 540.17,-206 534.83,-206 529.5,-200.67 529.5,-195.33 529.5,-195.33 529.5,-184.67 529.5,-184.67 529.5,-179.33 534.83,-174 540.17,-174"/>
<text text-anchor="start" x="535" y="-186.3" font-family="Helvetica,sans-Serif" font-size="14.00">Addi</text>
<path fill="none" stroke="black" d="M540.17,-174C540.17,-174 559.83,-174 559.83,-174 565.17,-174 570.5,-179.33 570.5,-184.67 570.5,-184.67 570.5,-195.33 570.5,-195.33 570.5,-200.67 565.17,-206 559.83,-206 559.83,-206 540.17,-206 540.17,-206 534.83,-206 529.5,-200.67 529.5,-195.33 529.5,-195.33 529.5,-184.67 529.5,-184.67 529.5,-179.33 534.83,-174 540.17,-174"/>
</a>
</g>
</g>
<!-- function&#45;0&#45;RegVal -->
<g id="node15" class="node">
<title>function&#45;0&#45;RegVal</title>
<g id="a_node15"><a xlink:title="Inst&#45;0: function&#45;0&#45;RegVal">
<path fill="white" stroke="transparent" d="M600.17,-174C600.17,-174 635.83,-174 635.83,-174 641.17,-174 646.5,-179.33 646.5,-184.67 646.5,-184.67 646.5,-195.33 646.5,-195.33 646.5,-200.67 641.17,-206 635.83,-206 635.83,-206 600.17,-206 600.17,-206 594.83,-206 589.5,-200.67 589.5,-195.33 589.5,-195.33 589.5,-184.67 589.5,-184.67 589.5,-179.33 594.83,-174 600.17,-174"/>
<text text-anchor="start" x="595" y="-186.3" font-family="Helvetica,sans-Serif" font-size="14.00">RegVal</text>
<path fill="none" stroke="black" d="M600.17,-174C600.17,-174 635.83,-174 635.83,-174 641.17,-174 646.5,-179.33 646.5,-184.67 646.5,-184.67 646.5,-195.33 646.5,-195.33 646.5,-200.67 641.17,-206 635.83,-206 635.83,-206 600.17,-206 600.17,-206 594.83,-206 589.5,-200.67 589.5,-195.33 589.5,-195.33 589.5,-184.67 589.5,-184.67 589.5,-179.33 594.83,-174 600.17,-174"/>
</a>
</g>
</g>
<!-- function&#45;1&#45;Bne -->
<g id="node16" class="node">
<title>function&#45;1&#45;Bne</title>
<g id="a_node16"><a xlink:title="Inst&#45;19: function&#45;1&#45;Bne">
<path fill="white" stroke="transparent" d="M529.67,-332C529.67,-332 546.33,-332 546.33,-332 551.67,-332 557,-337.33 557,-342.67 557,-342.67 557,-353.33 557,-353.33 557,-358.67 551.67,-364 546.33,-364 546.33,-364 529.67,-364 529.67,-364 524.33,-364 519,-358.67 519,-353.33 519,-353.33 519,-342.67 519,-342.67 519,-337.33 524.33,-332 529.67,-332"/>
<text text-anchor="start" x="524" y="-344.3" font-family="Helvetica,sans-Serif" font-size="14.00">Bne</text>
<path fill="none" stroke="black" d="M529.67,-332C529.67,-332 546.33,-332 546.33,-332 551.67,-332 557,-337.33 557,-342.67 557,-342.67 557,-353.33 557,-353.33 557,-358.67 551.67,-364 546.33,-364 546.33,-364 529.67,-364 529.67,-364 524.33,-364 519,-358.67 519,-353.33 519,-353.33 519,-342.67 519,-342.67 519,-337.33 524.33,-332 529.67,-332"/>
</a>
</g>
</g>
<!-- function&#45;0&#45;Seq2 -->
<g id="node17" class="node">
<title>function&#45;0&#45;Seq2</title>
<g id="a_node17"><a xlink:title="Inst&#45;19: function&#45;0&#45;Seq2">
<path fill="white" stroke="transparent" d="M583.67,-332C583.67,-332 608.33,-332 608.33,-332 613.67,-332 619,-337.33 619,-342.67 619,-342.67 619,-353.33 619,-353.33 619,-358.67 613.67,-364 608.33,-364 608.33,-364 583.67,-364 583.67,-364 578.33,-364 573,-358.67 573,-353.33 573,-353.33 573,-342.67 573,-342.67 573,-337.33 578.33,-332 583.67,-332"/>
<text text-anchor="start" x="578" y="-344.3" font-family="Helvetica,sans-Serif" font-size="14.00">Seq2</text>
<path fill="none" stroke="black" d="M583.67,-332C583.67,-332 608.33,-332 608.33,-332 613.67,-332 619,-337.33 619,-342.67 619,-342.67 619,-353.33 619,-353.33 619,-358.67 613.67,-364 608.33,-364 608.33,-364 583.67,-364 583.67,-364 578.33,-364 573,-358.67 573,-353.33 573,-353.33 573,-342.67 573,-342.67 573,-337.33 578.33,-332 583.67,-332"/>
</a>
</g>
</g>
<!-- function&#45;0&#45;Beq -->
<g id="node18" class="node">
<title>function&#45;0&#45;Beq</title>
<g id="a_node18"><a xlink:title="Inst&#45;20: function&#45;0&#45;Beq">
<path fill="white" stroke="transparent" d="M753.67,-253C753.67,-253 770.33,-253 770.33,-253 775.67,-253 781,-258.33 781,-263.67 781,-263.67 781,-274.33 781,-274.33 781,-279.67 775.67,-285 770.33,-285 770.33,-285 753.67,-285 753.67,-285 748.33,-285 743,-279.67 743,-274.33 743,-274.33 743,-263.67 743,-263.67 743,-258.33 748.33,-253 753.67,-253"/>
<text text-anchor="start" x="748" y="-265.3" font-family="Helvetica,sans-Serif" font-size="14.00">Beq</text>
<path fill="none" stroke="black" d="M753.67,-253C753.67,-253 770.33,-253 770.33,-253 775.67,-253 781,-258.33 781,-263.67 781,-263.67 781,-274.33 781,-274.33 781,-279.67 775.67,-285 770.33,-285 770.33,-285 753.67,-285 753.67,-285 748.33,-285 743,-279.67 743,-274.33 743,-274.33 743,-263.67 743,-263.67 743,-258.33 748.33,-253 753.67,-253"/>
</a>
</g>
</g>
<!-- function&#45;0&#45;Jal -->
<g id="node19" class="node">
<title>function&#45;0&#45;Jal</title>
<g id="a_node19"><a xlink:title="Inst&#45;21: function&#45;0&#45;Jal">
<path fill="white" stroke="transparent" d="M466.67,-253C466.67,-253 477.33,-253 477.33,-253 482.67,-253 488,-258.33 488,-263.67 488,-263.67 488,-274.33 488,-274.33 488,-279.67 482.67,-285 477.33,-285 477.33,-285 466.67,-285 466.67,-285 461.33,-285 456,-279.67 456,-274.33 456,-274.33 456,-263.67 456,-263.67 456,-258.33 461.33,-253 466.67,-253"/>
<text text-anchor="start" x="463.5" y="-265.3" font-family="Helvetica,sans-Serif" font-size="14.00">Jal</text>
<path fill="none" stroke="black" d="M466.67,-253C466.67,-253 477.33,-253 477.33,-253 482.67,-253 488,-258.33 488,-263.67 488,-263.67 488,-274.33 488,-274.33 488,-279.67 482.67,-285 477.33,-285 477.33,-285 466.67,-285 466.67,-285 461.33,-285 456,-279.67 456,-274.33 456,-274.33 456,-263.67 456,-263.67 456,-258.33 461.33,-253 466.67,-253"/>
</a>
</g>
</g>
<!-- function&#45;0&#45;Sw -->
<g id="node20" class="node">
<title>function&#45;0&#45;Sw</title>
<g id="a_node20"><a xlink:title="Inst&#45;11: function&#45;0&#45;Sw">
<path fill="white" stroke="transparent" d="M148.67,-253C148.67,-253 159.33,-253 159.33,-253 164.67,-253 170,-258.33 170,-263.67 170,-263.67 170,-274.33 170,-274.33 170,-279.67 164.67,-285 159.33,-285 159.33,-285 148.67,-285 148.67,-285 143.33,-285 138,-279.67 138,-274.33 138,-274.33 138,-263.67 138,-263.67 138,-258.33 143.33,-253 148.67,-253"/>
<text text-anchor="start" x="143.5" y="-265.3" font-family="Helvetica,sans-Serif" font-size="14.00">Sw</text>
<path fill="none" stroke="black" d="M148.67,-253C148.67,-253 159.33,-253 159.33,-253 164.67,-253 170,-258.33 170,-263.67 170,-263.67 170,-274.33 170,-274.33 170,-279.67 164.67,-285 159.33,-285 159.33,-285 148.67,-285 148.67,-285 143.33,-285 138,-279.67 138,-274.33 138,-274.33 138,-263.67 138,-263.67 138,-258.33 143.33,-253 148.67,-253"/>
</a>
</g>
</g>
<!-- function&#45;1&#45;RegVal -->
<g id="node21" class="node">
<title>function&#45;1&#45;RegVal</title>
<g id="a_node21"><a xlink:title="Inst&#45;1: function&#45;1&#45;RegVal">
<path fill="white" stroke="transparent" d="M208.17,-174C208.17,-174 243.83,-174 243.83,-174 249.17,-174 254.5,-179.33 254.5,-184.67 254.5,-184.67 254.5,-195.33 254.5,-195.33 254.5,-200.67 249.17,-206 243.83,-206 243.83,-206 208.17,-206 208.17,-206 202.83,-206 197.5,-200.67 197.5,-195.33 197.5,-195.33 197.5,-184.67 197.5,-184.67 197.5,-179.33 202.83,-174 208.17,-174"/>
<text text-anchor="start" x="203" y="-186.3" font-family="Helvetica,sans-Serif" font-size="14.00">RegVal</text>
<path fill="none" stroke="black" d="M208.17,-174C208.17,-174 243.83,-174 243.83,-174 249.17,-174 254.5,-179.33 254.5,-184.67 254.5,-184.67 254.5,-195.33 254.5,-195.33 254.5,-200.67 249.17,-206 243.83,-206 243.83,-206 208.17,-206 208.17,-206 202.83,-206 197.5,-200.67 197.5,-195.33 197.5,-195.33 197.5,-184.67 197.5,-184.67 197.5,-179.33 202.83,-174 208.17,-174"/>
</a>
</g>
</g>
<!-- function&#45;0&#45;Lw -->
<g id="node22" class="node">
<title>function&#45;0&#45;Lw</title>
<g id="a_node22"><a xlink:title="Inst&#45;4: function&#45;0&#45;Lw">
<path fill="white" stroke="transparent" d="M152.67,-174C152.67,-174 163.33,-174 163.33,-174 168.67,-174 174,-179.33 174,-184.67 174,-184.67 174,-195.33 174,-195.33 174,-200.67 168.67,-206 163.33,-206 163.33,-206 152.67,-206 152.67,-206 147.33,-206 142,-200.67 142,-195.33 142,-195.33 142,-184.67 142,-184.67 142,-179.33 147.33,-174 152.67,-174"/>
<text text-anchor="start" x="148.5" y="-186.3" font-family="Helvetica,sans-Serif" font-size="14.00">Lw</text>
<path fill="none" stroke="black" d="M152.67,-174C152.67,-174 163.33,-174 163.33,-174 168.67,-174 174,-179.33 174,-184.67 174,-184.67 174,-195.33 174,-195.33 174,-200.67 168.67,-206 163.33,-206 163.33,-206 152.67,-206 152.67,-206 147.33,-206 142,-200.67 142,-195.33 142,-195.33 142,-184.67 142,-184.67 142,-179.33 147.33,-174 152.67,-174"/>
</a>
</g>
</g>
<!-- function&#45;1&#45;Addi -->
<g id="node23" class="node">
<title>function&#45;1&#45;Addi</title>
<g id="a_node23"><a xlink:title="Inst&#45;17: function&#45;1&#45;Addi">
<path fill="white" stroke="transparent" d="M305.17,-253C305.17,-253 324.83,-253 324.83,-253 330.17,-253 335.5,-258.33 335.5,-263.67 335.5,-263.67 335.5,-274.33 335.5,-274.33 335.5,-279.67 330.17,-285 324.83,-285 324.83,-285 305.17,-285 305.17,-285 299.83,-285 294.5,-279.67 294.5,-274.33 294.5,-274.33 294.5,-263.67 294.5,-263.67 294.5,-258.33 299.83,-253 305.17,-253"/>
<text text-anchor="start" x="300" y="-265.3" font-family="Helvetica,sans-Serif" font-size="14.00">Addi</text>
<path fill="none" stroke="black" d="M305.17,-253C305.17,-253 324.83,-253 324.83,-253 330.17,-253 335.5,-258.33 335.5,-263.67 335.5,-263.67 335.5,-274.33 335.5,-274.33 335.5,-279.67 330.17,-285 324.83,-285 324.83,-285 305.17,-285 305.17,-285 299.83,-285 294.5,-279.67 294.5,-274.33 294.5,-274.33 294.5,-263.67 294.5,-263.67 294.5,-258.33 299.83,-253 305.17,-253"/>
</a>
</g>
</g>
<!-- function&#45;2&#45;Bne -->
<g id="node24" class="node">
<title>function&#45;2&#45;Bne</title>
<g id="a_node24"><a xlink:title="Inst&#45;22: function&#45;2&#45;Bne">
<path fill="white" stroke="transparent" d="M571.67,-253C571.67,-253 588.33,-253 588.33,-253 593.67,-253 599,-258.33 599,-263.67 599,-263.67 599,-274.33 599,-274.33 599,-279.67 593.67,-285 588.33,-285 588.33,-285 571.67,-285 571.67,-285 566.33,-285 561,-279.67 561,-274.33 561,-274.33 561,-263.67 561,-263.67 561,-258.33 566.33,-253 571.67,-253"/>
<text text-anchor="start" x="566" y="-265.3" font-family="Helvetica,sans-Serif" font-size="14.00">Bne</text>
<path fill="none" stroke="black" d="M571.67,-253C571.67,-253 588.33,-253 588.33,-253 593.67,-253 599,-258.33 599,-263.67 599,-263.67 599,-274.33 599,-274.33 599,-279.67 593.67,-285 588.33,-285 588.33,-285 571.67,-285 571.67,-285 566.33,-285 561,-279.67 561,-274.33 561,-274.33 561,-263.67 561,-263.67 561,-258.33 566.33,-253 571.67,-253"/>
</a>
</g>
</g>
<!-- function&#45;3&#45;Bne -->
<g id="node25" class="node">
<title>function&#45;3&#45;Bne</title>
<g id="a_node25"><a xlink:title="Inst&#45;22: function&#45;3&#45;Bne">
<path fill="white" stroke="transparent" d="M629.67,-253C629.67,-253 646.33,-253 646.33,-253 651.67,-253 657,-258.33 657,-263.67 657,-263.67 657,-274.33 657,-274.33 657,-279.67 651.67,-285 646.33,-285 646.33,-285 629.67,-285 629.67,-285 624.33,-285 619,-279.67 619,-274.33 619,-274.33 619,-263.67 619,-263.67 619,-258.33 624.33,-253 629.67,-253"/>
<text text-anchor="start" x="624" y="-265.3" font-family="Helvetica,sans-Serif" font-size="14.00">Bne</text>
<path fill="none" stroke="black" d="M629.67,-253C629.67,-253 646.33,-253 646.33,-253 651.67,-253 657,-258.33 657,-263.67 657,-263.67 657,-274.33 657,-274.33 657,-279.67 651.67,-285 646.33,-285 646.33,-285 629.67,-285 629.67,-285 624.33,-285 619,-279.67 619,-274.33 619,-274.33 619,-263.67 619,-263.67 619,-258.33 624.33,-253 629.67,-253"/>
</a>
</g>
</g>
<!-- function&#45;2&#45;Seq2 -->
<g id="node26" class="node">
<title>function&#45;2&#45;Seq2</title>
<g id="a_node26"><a xlink:title="Inst&#45;22: function&#45;2&#45;Seq2">
<path fill="white" stroke="transparent" d="M683.67,-253C683.67,-253 708.33,-253 708.33,-253 713.67,-253 719,-258.33 719,-263.67 719,-263.67 719,-274.33 719,-274.33 719,-279.67 713.67,-285 708.33,-285 708.33,-285 683.67,-285 683.67,-285 678.33,-285 673,-279.67 673,-274.33 673,-274.33 673,-263.67 673,-263.67 673,-258.33 678.33,-253 683.67,-253"/>
<text text-anchor="start" x="678" y="-265.3" font-family="Helvetica,sans-Serif" font-size="14.00">Seq2</text>
<path fill="none" stroke="black" d="M683.67,-253C683.67,-253 708.33,-253 708.33,-253 713.67,-253 719,-258.33 719,-263.67 719,-263.67 719,-274.33 719,-274.33 719,-279.67 713.67,-285 708.33,-285 708.33,-285 683.67,-285 683.67,-285 678.33,-285 673,-279.67 673,-274.33 673,-274.33 673,-263.67 673,-263.67 673,-258.33 678.33,-253 683.67,-253"/>
</a>
</g>
</g>
<!-- function&#45;1&#45;Seq2 -->
<g id="node27" class="node">
<title>function&#45;1&#45;Seq2</title>
<g id="a_node27"><a xlink:title="Inst&#45;20: function&#45;1&#45;Seq2">
<path fill="white" stroke="transparent" d="M865.67,-253C865.67,-253 890.33,-253 890.33,-253 895.67,-253 901,-258.33 901,-263.67 901,-263.67 901,-274.33 901,-274.33 901,-279.67 895.67,-285 890.33,-285 890.33,-285 865.67,-285 865.67,-285 860.33,-285 855,-279.67 855,-274.33 855,-274.33 855,-263.67 855,-263.67 855,-258.33 860.33,-253 865.67,-253"/>
<text text-anchor="start" x="860" y="-265.3" font-family="Helvetica,sans-Serif" font-size="14.00">Seq2</text>
<path fill="none" stroke="black" d="M865.67,-253C865.67,-253 890.33,-253 890.33,-253 895.67,-253 901,-258.33 901,-263.67 901,-263.67 901,-274.33 901,-274.33 901,-279.67 895.67,-285 890.33,-285 890.33,-285 865.67,-285 865.67,-285 860.33,-285 855,-279.67 855,-274.33 855,-274.33 855,-263.67 855,-263.67 855,-258.33 860.33,-253 865.67,-253"/>
</a>
</g>
</g>
<!-- function&#45;1&#45;Jal -->
<g id="node28" class="node">
<title>function&#45;1&#45;Jal</title>
<g id="a_node28"><a xlink:title="Inst&#45;23: function&#45;1&#45;Jal">
<path fill="white" stroke="transparent" d="M702.67,-174C702.67,-174 713.33,-174 713.33,-174 718.67,-174 724,-179.33 724,-184.67 724,-184.67 724,-195.33 724,-195.33 724,-200.67 718.67,-206 713.33,-206 713.33,-206 702.67,-206 702.67,-206 697.33,-206 692,-200.67 692,-195.33 692,-195.33 692,-184.67 692,-184.67 692,-179.33 697.33,-174 702.67,-174"/>
<text text-anchor="start" x="699.5" y="-186.3" font-family="Helvetica,sans-Serif" font-size="14.00">Jal</text>
<path fill="none" stroke="black" d="M702.67,-174C702.67,-174 713.33,-174 713.33,-174 718.67,-174 724,-179.33 724,-184.67 724,-184.67 724,-195.33 724,-195.33 724,-200.67 718.67,-206 713.33,-206 713.33,-206 702.67,-206 702.67,-206 697.33,-206 692,-200.67 692,-195.33 692,-195.33 692,-184.67 692,-184.67 692,-179.33 697.33,-174 702.67,-174"/>
</a>
</g>
</g>
<!-- function&#45;1&#45;Beq -->
<g id="node29" class="node">
<title>function&#45;1&#45;Beq</title>
<g id="a_node29"><a xlink:title="Inst&#45;20: function&#45;1&#45;Beq">
<path fill="white" stroke="transparent" d="M811.67,-253C811.67,-253 828.33,-253 828.33,-253 833.67,-253 839,-258.33 839,-263.67 839,-263.67 839,-274.33 839,-274.33 839,-279.67 833.67,-285 828.33,-285 828.33,-285 811.67,-285 811.67,-285 806.33,-285 801,-279.67 801,-274.33 801,-274.33 801,-263.67 801,-263.67 801,-258.33 806.33,-253 811.67,-253"/>
<text text-anchor="start" x="806" y="-265.3" font-family="Helvetica,sans-Serif" font-size="14.00">Beq</text>
<path fill="none" stroke="black" d="M811.67,-253C811.67,-253 828.33,-253 828.33,-253 833.67,-253 839,-258.33 839,-263.67 839,-263.67 839,-274.33 839,-274.33 839,-279.67 833.67,-285 828.33,-285 828.33,-285 811.67,-285 811.67,-285 806.33,-285 801,-279.67 801,-274.33 801,-274.33 801,-263.67 801,-263.67 801,-258.33 806.33,-253 811.67,-253"/>
</a>
</g>
</g>
<!-- primitive&#45;String&#45;1 -->
<g id="node30" class="node">
<title>primitive&#45;String&#45;1</title>
<g id="a_node30"><a xlink:title="String&#45;1: primitive&#45;String&#45;1">
<path fill="white" stroke="transparent" d="M600.17,-95C600.17,-95 635.83,-95 635.83,-95 641.17,-95 646.5,-100.33 646.5,-105.67 646.5,-105.67 646.5,-116.33 646.5,-116.33 646.5,-121.67 641.17,-127 635.83,-127 635.83,-127 600.17,-127 600.17,-127 594.83,-127 589.5,-121.67 589.5,-116.33 589.5,-116.33 589.5,-105.67 589.5,-105.67 589.5,-100.33 594.83,-95 600.17,-95"/>
<text text-anchor="start" x="595" y="-107.3" font-family="Helvetica,sans-Serif" font-size="14.00">&quot;a3_0&quot;</text>
<path fill="none" stroke="black" d="M600.17,-95C600.17,-95 635.83,-95 635.83,-95 641.17,-95 646.5,-100.33 646.5,-105.67 646.5,-105.67 646.5,-116.33 646.5,-116.33 646.5,-121.67 641.17,-127 635.83,-127 635.83,-127 600.17,-127 600.17,-127 594.83,-127 589.5,-121.67 589.5,-116.33 589.5,-116.33 589.5,-105.67 589.5,-105.67 589.5,-100.33 594.83,-95 600.17,-95"/>
</a>
</g>
</g>
<!-- primitive&#45;String&#45;2 -->
<g id="node31" class="node">
<title>primitive&#45;String&#45;2</title>
<g id="a_node31"><a xlink:title="String&#45;2: primitive&#45;String&#45;2">
<path fill="white" stroke="transparent" d="M194.17,-95C194.17,-95 229.83,-95 229.83,-95 235.17,-95 240.5,-100.33 240.5,-105.67 240.5,-105.67 240.5,-116.33 240.5,-116.33 240.5,-121.67 235.17,-127 229.83,-127 229.83,-127 194.17,-127 194.17,-127 188.83,-127 183.5,-121.67 183.5,-116.33 183.5,-116.33 183.5,-105.67 183.5,-105.67 183.5,-100.33 188.83,-95 194.17,-95"/>
<text text-anchor="start" x="189" y="-107.3" font-family="Helvetica,sans-Serif" font-size="14.00">&quot;a4_0&quot;</text>
<path fill="none" stroke="black" d="M194.17,-95C194.17,-95 229.83,-95 229.83,-95 235.17,-95 240.5,-100.33 240.5,-105.67 240.5,-105.67 240.5,-116.33 240.5,-116.33 240.5,-121.67 235.17,-127 229.83,-127 229.83,-127 194.17,-127 194.17,-127 188.83,-127 183.5,-121.67 183.5,-116.33 183.5,-116.33 183.5,-105.67 183.5,-105.67 183.5,-100.33 188.83,-95 194.17,-95"/>
</a>
</g>
</g>
<!-- function&#45;1&#45;Sw -->
<g id="node32" class="node">
<title>function&#45;1&#45;Sw</title>
<g id="a_node32"><a xlink:title="Inst&#45;12: function&#45;1&#45;Sw">
<path fill="white" stroke="transparent" d="M375.67,-253C375.67,-253 386.33,-253 386.33,-253 391.67,-253 397,-258.33 397,-263.67 397,-263.67 397,-274.33 397,-274.33 397,-279.67 391.67,-285 386.33,-285 386.33,-285 375.67,-285 375.67,-285 370.33,-285 365,-279.67 365,-274.33 365,-274.33 365,-263.67 365,-263.67 365,-258.33 370.33,-253 375.67,-253"/>
<text text-anchor="start" x="370.5" y="-265.3" font-family="Helvetica,sans-Serif" font-size="14.00">Sw</text>
<path fill="none" stroke="black" d="M375.67,-253C375.67,-253 386.33,-253 386.33,-253 391.67,-253 397,-258.33 397,-263.67 397,-263.67 397,-274.33 397,-274.33 397,-279.67 391.67,-285 386.33,-285 386.33,-285 375.67,-285 375.67,-285 370.33,-285 365,-279.67 365,-274.33 365,-274.33 365,-263.67 365,-263.67 365,-258.33 370.33,-253 375.67,-253"/>
</a>
</g>
</g>
<!-- function&#45;1&#45;Lw -->
<g id="node33" class="node">
<title>function&#45;1&#45;Lw</title>
<g id="a_node33"><a xlink:title="Inst&#45;6: function&#45;1&#45;Lw">
<path fill="white" stroke="transparent" d="M376.67,-174C376.67,-174 387.33,-174 387.33,-174 392.67,-174 398,-179.33 398,-184.67 398,-184.67 398,-195.33 398,-195.33 398,-200.67 392.67,-206 387.33,-206 387.33,-206 376.67,-206 376.67,-206 371.33,-206 366,-200.67 366,-195.33 366,-195.33 366,-184.67 366,-184.67 366,-179.33 371.33,-174 376.67,-174"/>
<text text-anchor="start" x="372.5" y="-186.3" font-family="Helvetica,sans-Serif" font-size="14.00">Lw</text>
<path fill="none" stroke="black" d="M376.67,-174C376.67,-174 387.33,-174 387.33,-174 392.67,-174 398,-179.33 398,-184.67 398,-184.67 398,-195.33 398,-195.33 398,-200.67 392.67,-206 387.33,-206 387.33,-206 376.67,-206 376.67,-206 371.33,-206 366,-200.67 366,-195.33 366,-195.33 366,-184.67 366,-184.67 366,-179.33 371.33,-174 376.67,-174"/>
</a>
</g>
</g>
<!-- function&#45;2&#45;RegVal -->
<g id="node34" class="node">
<title>function&#45;2&#45;RegVal</title>
<g id="a_node34"><a xlink:title="Inst&#45;2: function&#45;2&#45;RegVal">
<path fill="white" stroke="transparent" d="M264.17,-95C264.17,-95 299.83,-95 299.83,-95 305.17,-95 310.5,-100.33 310.5,-105.67 310.5,-105.67 310.5,-116.33 310.5,-116.33 310.5,-121.67 305.17,-127 299.83,-127 299.83,-127 264.17,-127 264.17,-127 258.83,-127 253.5,-121.67 253.5,-116.33 253.5,-116.33 253.5,-105.67 253.5,-105.67 253.5,-100.33 258.83,-95 264.17,-95"/>
<text text-anchor="start" x="259" y="-107.3" font-family="Helvetica,sans-Serif" font-size="14.00">RegVal</text>
<path fill="none" stroke="black" d="M264.17,-95C264.17,-95 299.83,-95 299.83,-95 305.17,-95 310.5,-100.33 310.5,-105.67 310.5,-105.67 310.5,-116.33 310.5,-116.33 310.5,-121.67 305.17,-127 299.83,-127 299.83,-127 264.17,-127 264.17,-127 258.83,-127 253.5,-121.67 253.5,-116.33 253.5,-116.33 253.5,-105.67 253.5,-105.67 253.5,-100.33 258.83,-95 264.17,-95"/>
</a>
</g>
</g>
<!-- primitive&#45;String&#45;3 -->
<g id="node35" class="node">
<title>primitive&#45;String&#45;3</title>
<g id="a_node35"><a xlink:title="String&#45;3: primitive&#45;String&#45;3">
<path fill="white" stroke="transparent" d="M265.17,-16C265.17,-16 300.83,-16 300.83,-16 306.17,-16 311.5,-21.33 311.5,-26.67 311.5,-26.67 311.5,-37.33 311.5,-37.33 311.5,-42.67 306.17,-48 300.83,-48 300.83,-48 265.17,-48 265.17,-48 259.83,-48 254.5,-42.67 254.5,-37.33 254.5,-37.33 254.5,-26.67 254.5,-26.67 254.5,-21.33 259.83,-16 265.17,-16"/>
<text text-anchor="start" x="260" y="-28.3" font-family="Helvetica,sans-Serif" font-size="14.00">&quot;a5_0&quot;</text>
<path fill="none" stroke="black" d="M265.17,-16C265.17,-16 300.83,-16 300.83,-16 306.17,-16 311.5,-21.33 311.5,-26.67 311.5,-26.67 311.5,-37.33 311.5,-37.33 311.5,-42.67 306.17,-48 300.83,-48 300.83,-48 265.17,-48 265.17,-48 259.83,-48 254.5,-42.67 254.5,-37.33 254.5,-37.33 254.5,-26.67 254.5,-26.67 254.5,-21.33 259.83,-16 265.17,-16"/>
</a>
</g>
</g>
<!-- function&#45;2&#45;Sw -->
<g id="node36" class="node">
<title>function&#45;2&#45;Sw</title>
<g id="a_node36"><a xlink:title="Inst&#45;13: function&#45;2&#45;Sw">
<path fill="white" stroke="transparent" d="M243.67,-253C243.67,-253 254.33,-253 254.33,-253 259.67,-253 265,-258.33 265,-263.67 265,-263.67 265,-274.33 265,-274.33 265,-279.67 259.67,-285 254.33,-285 254.33,-285 243.67,-285 243.67,-285 238.33,-285 233,-279.67 233,-274.33 233,-274.33 233,-263.67 233,-263.67 233,-258.33 238.33,-253 243.67,-253"/>
<text text-anchor="start" x="238.5" y="-265.3" font-family="Helvetica,sans-Serif" font-size="14.00">Sw</text>
<path fill="none" stroke="black" d="M243.67,-253C243.67,-253 254.33,-253 254.33,-253 259.67,-253 265,-258.33 265,-263.67 265,-263.67 265,-274.33 265,-274.33 265,-279.67 259.67,-285 254.33,-285 254.33,-285 243.67,-285 243.67,-285 238.33,-285 233,-279.67 233,-274.33 233,-274.33 233,-263.67 233,-263.67 233,-258.33 238.33,-253 243.67,-253"/>
</a>
</g>
</g>
<!-- function&#45;2&#45;Lw -->
<g id="node37" class="node">
<title>function&#45;2&#45;Lw</title>
<g id="a_node37"><a xlink:title="Inst&#45;8: function&#45;2&#45;Lw">
<path fill="white" stroke="transparent" d="M288.67,-174C288.67,-174 299.33,-174 299.33,-174 304.67,-174 310,-179.33 310,-184.67 310,-184.67 310,-195.33 310,-195.33 310,-200.67 304.67,-206 299.33,-206 299.33,-206 288.67,-206 288.67,-206 283.33,-206 278,-200.67 278,-195.33 278,-195.33 278,-184.67 278,-184.67 278,-179.33 283.33,-174 288.67,-174"/>
<text text-anchor="start" x="284.5" y="-186.3" font-family="Helvetica,sans-Serif" font-size="14.00">Lw</text>
<path fill="none" stroke="black" d="M288.67,-174C288.67,-174 299.33,-174 299.33,-174 304.67,-174 310,-179.33 310,-184.67 310,-184.67 310,-195.33 310,-195.33 310,-200.67 304.67,-206 299.33,-206 299.33,-206 288.67,-206 288.67,-206 283.33,-206 278,-200.67 278,-195.33 278,-195.33 278,-184.67 278,-184.67 278,-179.33 283.33,-174 288.67,-174"/>
</a>
</g>
</g>
<!-- function&#45;3&#45;Sw -->
<g id="node38" class="node">
<title>function&#45;3&#45;Sw</title>
<g id="a_node38"><a xlink:title="Inst&#45;14: function&#45;3&#45;Sw">
<path fill="white" stroke="transparent" d="M70.67,-253C70.67,-253 81.33,-253 81.33,-253 86.67,-253 92,-258.33 92,-263.67 92,-263.67 92,-274.33 92,-274.33 92,-279.67 86.67,-285 81.33,-285 81.33,-285 70.67,-285 70.67,-285 65.33,-285 60,-279.67 60,-274.33 60,-274.33 60,-263.67 60,-263.67 60,-258.33 65.33,-253 70.67,-253"/>
<text text-anchor="start" x="65.5" y="-265.3" font-family="Helvetica,sans-Serif" font-size="14.00">Sw</text>
<path fill="none" stroke="black" d="M70.67,-253C70.67,-253 81.33,-253 81.33,-253 86.67,-253 92,-258.33 92,-263.67 92,-263.67 92,-274.33 92,-274.33 92,-279.67 86.67,-285 81.33,-285 81.33,-285 70.67,-285 70.67,-285 65.33,-285 60,-279.67 60,-274.33 60,-274.33 60,-263.67 60,-263.67 60,-258.33 65.33,-253 70.67,-253"/>
</a>
</g>
</g>
<!-- function&#45;3&#45;Lw -->
<g id="node39" class="node">
<title>function&#45;3&#45;Lw</title>
<g id="a_node39"><a xlink:title="Inst&#45;10: function&#45;3&#45;Lw">
<path fill="white" stroke="transparent" d="M74.67,-174C74.67,-174 85.33,-174 85.33,-174 90.67,-174 96,-179.33 96,-184.67 96,-184.67 96,-195.33 96,-195.33 96,-200.67 90.67,-206 85.33,-206 85.33,-206 74.67,-206 74.67,-206 69.33,-206 64,-200.67 64,-195.33 64,-195.33 64,-184.67 64,-184.67 64,-179.33 69.33,-174 74.67,-174"/>
<text text-anchor="start" x="70.5" y="-186.3" font-family="Helvetica,sans-Serif" font-size="14.00">Lw</text>
<path fill="none" stroke="black" d="M74.67,-174C74.67,-174 85.33,-174 85.33,-174 90.67,-174 96,-179.33 96,-184.67 96,-184.67 96,-195.33 96,-195.33 96,-200.67 90.67,-206 85.33,-206 85.33,-206 74.67,-206 74.67,-206 69.33,-206 64,-200.67 64,-195.33 64,-195.33 64,-184.67 64,-184.67 64,-179.33 69.33,-174 74.67,-174"/>
</a>
</g>
</g>
</g>
</svg>
