<?xml version="1.0" encoding="UTF-8" standalone="no"?>
<!DOCTYPE svg PUBLIC "-//W3C//DTD SVG 1.1//EN"
 "http://www.w3.org/Graphics/SVG/1.1/DTD/svg11.dtd">
<!-- Generated by graphviz version 2.43.0 (0)
 -->
<!-- Title: %3 Pages: 1 -->
<svg width="886pt" height="388pt"
 viewBox="0.00 0.00 886.00 388.00" xmlns="http://www.w3.org/2000/svg" xmlns:xlink="http://www.w3.org/1999/xlink">
<g id="graph0" class="graph" transform="scale(1 1) rotate(0) translate(4 384)">
<title>%3</title>
<polygon fill="white" stroke="#000000" points="-4,4 -4,-384 882,-384 882,4 -4,4"/>
<g id="clust1" class="cluster">
<title>outer_cluster_Imm&#45;15</title>
</g>
<g id="clust2" class="cluster">
<title>cluster_Imm&#45;15</title>
<path fill="#ffffb3" stroke="black" stroke-dasharray="5,2" d="M411,-90C411,-90 455,-90 455,-90 461,-90 467,-96 467,-102 467,-102 467,-120 467,-120 467,-126 461,-132 455,-132 455,-132 411,-132 411,-132 405,-132 399,-126 399,-120 399,-120 399,-102 399,-102 399,-96 405,-90 411,-90"/>
</g>
<g id="clust4" class="cluster">
<title>outer_cluster_Imm&#45;9</title>
</g>
<g id="clust5" class="cluster">
<title>cluster_Imm&#45;9</title>
<path fill="#ffffb3" stroke="black" stroke-dasharray="5,2" d="M54,-90C54,-90 98,-90 98,-90 104,-90 110,-96 110,-102 110,-102 110,-120 110,-120 110,-126 104,-132 98,-132 98,-132 54,-132 54,-132 48,-132 42,-126 42,-120 42,-120 42,-102 42,-102 42,-96 48,-90 54,-90"/>
</g>
<g id="clust7" class="cluster">
<title>outer_cluster_Imm&#45;7</title>
</g>
<g id="clust8" class="cluster">
<title>cluster_Imm&#45;7</title>
<path fill="#ffffb3" stroke="black" stroke-dasharray="5,2" d="M811,-90C811,-90 855,-90 855,-90 861,-90 867,-96 867,-102 867,-102 867,-120 867,-120 867,-126 861,-132 855,-132 855,-132 811,-132 811,-132 805,-132 799,-126 799,-120 799,-120 799,-102 799,-102 799,-96 805,-90 811,-90"/>
</g>
<g id="clust10" class="cluster">
<title>outer_cluster_Imm&#45;18</title>
</g>
<g id="clust11" class="cluster">
<title>cluster_Imm&#45;18</title>
<path fill="#ffffb3" stroke="black" stroke-dasharray="5,2" d="M702,-169C702,-169 762,-169 762,-169 768,-169 774,-175 774,-181 774,-181 774,-199 774,-199 774,-205 768,-211 762,-211 762,-211 702,-211 702,-211 696,-211 690,-205 690,-199 690,-199 690,-181 690,-181 690,-175 696,-169 702,-169"/>
</g>
<g id="clust13" class="cluster">
<title>outer_cluster_Imm&#45;5</title>
</g>
<g id="clust14" class="cluster">
<title>cluster_Imm&#45;5</title>
<path fill="#ffffb3" stroke="black" stroke-dasharray="5,2" d="M337,-90C337,-90 381,-90 381,-90 387,-90 393,-96 393,-102 393,-102 393,-120 393,-120 393,-126 387,-132 381,-132 381,-132 337,-132 337,-132 331,-132 325,-126 325,-120 325,-120 325,-102 325,-102 325,-96 331,-90 337,-90"/>
</g>
<g id="clust16" class="cluster">
<title>outer_cluster_Imm&#45;3</title>
</g>
<g id="clust17" class="cluster">
<title>cluster_Imm&#45;3</title>
<path fill="#ffffb3" stroke="black" stroke-dasharray="5,2" d="M635,-90C635,-90 679,-90 679,-90 685,-90 691,-96 691,-102 691,-102 691,-120 691,-120 691,-126 685,-132 679,-132 679,-132 635,-132 635,-132 629,-132 623,-126 623,-120 623,-120 623,-102 623,-102 623,-96 629,-90 635,-90"/>
</g>
<g id="clust19" class="cluster">
<title>outer_cluster_Inst&#45;20</title>
</g>
<g id="clust20" class="cluster">
<title>cluster_Inst&#45;20</title>
<path fill="#bebada" stroke="black" stroke-dasharray="5,2" d="M293,-248C293,-248 445,-248 445,-248 451,-248 457,-254 457,-260 457,-260 457,-278 457,-278 457,-284 451,-290 445,-290 445,-290 293,-290 293,-290 287,-290 281,-284 281,-278 281,-278 281,-260 281,-260 281,-254 287,-248 293,-248"/>
</g>
<g id="clust22" class="cluster">
<title>outer_cluster_Inst&#45;19</title>
</g>
<g id="clust23" class="cluster">
<title>cluster_Inst&#45;19</title>
<path fill="#bebada" stroke="black" stroke-dasharray="5,2" d="M409,-327C409,-327 561,-327 561,-327 567,-327 573,-333 573,-339 573,-339 573,-357 573,-357 573,-363 567,-369 561,-369 561,-369 409,-369 409,-369 403,-369 397,-363 397,-357 397,-357 397,-339 397,-339 397,-333 403,-327 409,-327"/>
</g>
<g id="clust25" class="cluster">
<title>outer_cluster_Inst&#45;1</title>
</g>
<g id="clust26" class="cluster">
<title>cluster_Inst&#45;1</title>
<path fill="#bebada" stroke="black" stroke-dasharray="5,2" d="M554,-169C554,-169 594,-169 594,-169 600,-169 606,-175 606,-181 606,-181 606,-199 606,-199 606,-205 600,-211 594,-211 594,-211 554,-211 554,-211 548,-211 542,-205 542,-199 542,-199 542,-181 542,-181 542,-175 548,-169 554,-169"/>
</g>
<g id="clust28" class="cluster">
<title>outer_cluster_Inst&#45;23</title>
</g>
<g id="clust29" class="cluster">
<title>cluster_Inst&#45;23</title>
<path fill="#bebada" stroke="black" stroke-dasharray="5,2" d="M304,-169C304,-169 340,-169 340,-169 346,-169 352,-175 352,-181 352,-181 352,-199 352,-199 352,-205 346,-211 340,-211 340,-211 304,-211 304,-211 298,-211 292,-205 292,-199 292,-199 292,-181 292,-181 292,-175 298,-169 304,-169"/>
</g>
<g id="clust31" class="cluster">
<title>outer_cluster_Inst&#45;10</title>
</g>
<g id="clust32" class="cluster">
<title>cluster_Inst&#45;10</title>
<path fill="#bebada" stroke="black" stroke-dasharray="5,2" d="M73,-169C73,-169 109,-169 109,-169 115,-169 121,-175 121,-181 121,-181 121,-199 121,-199 121,-205 115,-211 109,-211 109,-211 73,-211 73,-211 67,-211 61,-205 61,-199 61,-199 61,-181 61,-181 61,-175 67,-169 73,-169"/>
</g>
<g id="clust34" class="cluster">
<title>outer_cluster_Inst&#45;0</title>
</g>
<g id="clust35" class="cluster">
<title>cluster_Inst&#45;0</title>
<path fill="#bebada" stroke="black" stroke-dasharray="5,2" d="M156,-169C156,-169 196,-169 196,-169 202,-169 208,-175 208,-181 208,-181 208,-199 208,-199 208,-205 202,-211 196,-211 196,-211 156,-211 156,-211 150,-211 144,-205 144,-199 144,-199 144,-181 144,-181 144,-175 150,-169 156,-169"/>
</g>
<g id="clust37" class="cluster">
<title>outer_cluster_Inst&#45;16</title>
</g>
<g id="clust38" class="cluster">
<title>cluster_Inst&#45;16</title>
<path fill="#bebada" stroke="black" stroke-dasharray="5,2" d="M398,-169C398,-169 434,-169 434,-169 440,-169 446,-175 446,-181 446,-181 446,-199 446,-199 446,-205 440,-211 434,-211 434,-211 398,-211 398,-211 392,-211 386,-205 386,-199 386,-199 386,-181 386,-181 386,-175 392,-169 398,-169"/>
</g>
<g id="clust40" class="cluster">
<title>outer_cluster_Inst&#45;12</title>
</g>
<g id="clust41" class="cluster">
<title>cluster_Inst&#45;12</title>
<path fill="#bebada" stroke="black" stroke-dasharray="5,2" d="M497,-248C497,-248 533,-248 533,-248 539,-248 545,-254 545,-260 545,-260 545,-278 545,-278 545,-284 539,-290 533,-290 533,-290 497,-290 497,-290 491,-290 485,-284 485,-278 485,-278 485,-260 485,-260 485,-254 491,-248 497,-248"/>
</g>
<g id="clust43" class="cluster">
<title>outer_cluster_Inst&#45;11</title>
</g>
<g id="clust44" class="cluster">
<title>cluster_Inst&#45;11</title>
<path fill="#bebada" stroke="black" stroke-dasharray="5,2" d="M629,-248C629,-248 665,-248 665,-248 671,-248 677,-254 677,-260 677,-260 677,-278 677,-278 677,-284 671,-290 665,-290 665,-290 629,-290 629,-290 623,-290 617,-284 617,-278 617,-278 617,-260 617,-260 617,-254 623,-248 629,-248"/>
</g>
<g id="clust46" class="cluster">
<title>outer_cluster_Inst&#45;8</title>
</g>
<g id="clust47" class="cluster">
<title>cluster_Inst&#45;8</title>
<path fill="#bebada" stroke="black" stroke-dasharray="5,2" d="M792,-169C792,-169 828,-169 828,-169 834,-169 840,-175 840,-181 840,-181 840,-199 840,-199 840,-205 834,-211 828,-211 828,-211 792,-211 792,-211 786,-211 780,-205 780,-199 780,-199 780,-181 780,-181 780,-175 786,-169 792,-169"/>
</g>
<g id="clust49" class="cluster">
<title>outer_cluster_Inst&#45;6</title>
</g>
<g id="clust50" class="cluster">
<title>cluster_Inst&#45;6</title>
<path fill="#bebada" stroke="black" stroke-dasharray="5,2" d="M476,-169C476,-169 512,-169 512,-169 518,-169 524,-175 524,-181 524,-181 524,-199 524,-199 524,-205 518,-211 512,-211 512,-211 476,-211 476,-211 470,-211 464,-205 464,-199 464,-199 464,-181 464,-181 464,-175 470,-169 476,-169"/>
</g>
<g id="clust52" class="cluster">
<title>outer_cluster_Inst&#45;22</title>
</g>
<g id="clust53" class="cluster">
<title>cluster_Inst&#45;22</title>
<path fill="#bebada" stroke="black" stroke-dasharray="5,2" d="M111,-248C111,-248 263,-248 263,-248 269,-248 275,-254 275,-260 275,-260 275,-278 275,-278 275,-284 269,-290 263,-290 263,-290 111,-290 111,-290 105,-290 99,-284 99,-278 99,-278 99,-260 99,-260 99,-254 105,-248 111,-248"/>
</g>
<g id="clust55" class="cluster">
<title>outer_cluster_Inst&#45;4</title>
</g>
<g id="clust56" class="cluster">
<title>cluster_Inst&#45;4</title>
<path fill="#bebada" stroke="black" stroke-dasharray="5,2" d="M624,-169C624,-169 660,-169 660,-169 666,-169 672,-175 672,-181 672,-181 672,-199 672,-199 672,-205 666,-211 660,-211 660,-211 624,-211 624,-211 618,-211 612,-205 612,-199 612,-199 612,-181 612,-181 612,-175 618,-169 624,-169"/>
</g>
<g id="clust58" class="cluster">
<title>outer_cluster_Inst&#45;17</title>
</g>
<g id="clust59" class="cluster">
<title>cluster_Inst&#45;17</title>
<path fill="#bebada" stroke="black" stroke-dasharray="5,2" d="M563,-248C563,-248 599,-248 599,-248 605,-248 611,-254 611,-260 611,-260 611,-278 611,-278 611,-284 605,-290 599,-290 599,-290 563,-290 563,-290 557,-290 551,-284 551,-278 551,-278 551,-260 551,-260 551,-254 557,-248 563,-248"/>
</g>
<g id="clust61" class="cluster">
<title>outer_cluster_Inst&#45;21</title>
</g>
<g id="clust62" class="cluster">
<title>cluster_Inst&#45;21</title>
<path fill="#bebada" stroke="black" stroke-dasharray="5,2" d="M695,-248C695,-248 731,-248 731,-248 737,-248 743,-254 743,-260 743,-260 743,-278 743,-278 743,-284 737,-290 731,-290 731,-290 695,-290 695,-290 689,-290 683,-284 683,-278 683,-278 683,-260 683,-260 683,-254 689,-248 695,-248"/>
</g>
<g id="clust64" class="cluster">
<title>outer_cluster_Inst&#45;14</title>
</g>
<g id="clust65" class="cluster">
<title>cluster_Inst&#45;14</title>
<path fill="#bebada" stroke="black" stroke-dasharray="5,2" d="M23,-248C23,-248 59,-248 59,-248 65,-248 71,-254 71,-260 71,-260 71,-278 71,-278 71,-284 65,-290 59,-290 59,-290 23,-290 23,-290 17,-290 11,-284 11,-278 11,-278 11,-260 11,-260 11,-254 17,-248 23,-248"/>
</g>
<g id="clust67" class="cluster">
<title>outer_cluster_Inst&#45;2</title>
</g>
<g id="clust68" class="cluster">
<title>cluster_Inst&#45;2</title>
<path fill="#bebada" stroke="black" stroke-dasharray="5,2" d="M485,-90C485,-90 525,-90 525,-90 531,-90 537,-96 537,-102 537,-102 537,-120 537,-120 537,-126 531,-132 525,-132 525,-132 485,-132 485,-132 479,-132 473,-126 473,-120 473,-120 473,-102 473,-102 473,-96 479,-90 485,-90"/>
</g>
<g id="clust70" class="cluster">
<title>outer_cluster_Inst&#45;13</title>
</g>
<g id="clust71" class="cluster">
<title>cluster_Inst&#45;13</title>
<path fill="#bebada" stroke="black" stroke-dasharray="5,2" d="M788,-248C788,-248 824,-248 824,-248 830,-248 836,-254 836,-260 836,-260 836,-278 836,-278 836,-284 830,-290 824,-290 824,-290 788,-290 788,-290 782,-290 776,-284 776,-278 776,-278 776,-260 776,-260 776,-254 782,-248 788,-248"/>
</g>
<g id="clust73" class="cluster">
<title>outer_cluster_String&#45;2</title>
</g>
<g id="clust74" class="cluster">
<title>cluster_String&#45;2</title>
<path fill="#fb8072" stroke="black" stroke-dasharray="5,2" d="M486,-11C486,-11 526,-11 526,-11 532,-11 538,-17 538,-23 538,-23 538,-41 538,-41 538,-47 532,-53 526,-53 526,-53 486,-53 486,-53 480,-53 474,-47 474,-41 474,-41 474,-23 474,-23 474,-17 480,-11 486,-11"/>
</g>
<g id="clust76" class="cluster">
<title>outer_cluster_String&#45;0</title>
</g>
<g id="clust77" class="cluster">
<title>cluster_String&#45;0</title>
<path fill="#fb8072" stroke="black" stroke-dasharray="5,2" d="M157,-90C157,-90 197,-90 197,-90 203,-90 209,-96 209,-102 209,-102 209,-120 209,-120 209,-126 203,-132 197,-132 197,-132 157,-132 157,-132 151,-132 145,-126 145,-120 145,-120 145,-102 145,-102 145,-96 151,-90 157,-90"/>
</g>
<g id="clust79" class="cluster">
<title>outer_cluster_String&#45;3</title>
</g>
<g id="clust80" class="cluster">
<title>cluster_String&#45;3</title>
<path fill="#fb8072" stroke="black" stroke-dasharray="5,2" d="M715,-90C715,-90 751,-90 751,-90 757,-90 763,-96 763,-102 763,-102 763,-120 763,-120 763,-126 757,-132 751,-132 751,-132 715,-132 715,-132 709,-132 703,-126 703,-120 703,-120 703,-102 703,-102 703,-96 709,-90 715,-90"/>
</g>
<g id="clust82" class="cluster">
<title>outer_cluster_String&#45;1</title>
</g>
<g id="clust83" class="cluster">
<title>cluster_String&#45;1</title>
<path fill="#fb8072" stroke="black" stroke-dasharray="5,2" d="M555,-90C555,-90 595,-90 595,-90 601,-90 607,-96 607,-102 607,-102 607,-120 607,-120 607,-126 601,-132 595,-132 595,-132 555,-132 555,-132 549,-132 543,-126 543,-120 543,-120 543,-102 543,-102 543,-96 549,-90 555,-90"/>
</g>
<g id="clust85" class="cluster">
<title>outer_cluster_i64&#45;0</title>
</g>
<g id="clust86" class="cluster">
<title>cluster_i64&#45;0</title>
<path fill="#80b1d3" stroke="black" stroke-dasharray="5,2" d="M639,-11C639,-11 675,-11 675,-11 681,-11 687,-17 687,-23 687,-23 687,-41 687,-41 687,-47 681,-53 675,-53 675,-53 639,-53 639,-53 633,-53 627,-47 627,-41 627,-41 627,-23 627,-23 627,-17 633,-11 639,-11"/>
</g>
<g id="clust88" class="cluster">
<title>outer_cluster_i64&#45;4</title>
</g>
<g id="clust89" class="cluster">
<title>cluster_i64&#45;4</title>
<path fill="#80b1d3" stroke="black" stroke-dasharray="5,2" d="M341,-11C341,-11 377,-11 377,-11 383,-11 389,-17 389,-23 389,-23 389,-41 389,-41 389,-47 383,-53 377,-53 377,-53 341,-53 341,-53 335,-53 329,-47 329,-41 329,-41 329,-23 329,-23 329,-17 335,-11 341,-11"/>
</g>
<g id="clust91" class="cluster">
<title>outer_cluster_i64&#45;8</title>
</g>
<g id="clust92" class="cluster">
<title>cluster_i64&#45;8</title>
<path fill="#80b1d3" stroke="black" stroke-dasharray="5,2" d="M815,-11C815,-11 851,-11 851,-11 857,-11 863,-17 863,-23 863,-23 863,-41 863,-41 863,-47 857,-53 851,-53 851,-53 815,-53 815,-53 809,-53 803,-47 803,-41 803,-41 803,-23 803,-23 803,-17 809,-11 815,-11"/>
</g>
<g id="clust94" class="cluster">
<title>outer_cluster_i64&#45;12</title>
</g>
<g id="clust95" class="cluster">
<title>cluster_i64&#45;12</title>
<path fill="#80b1d3" stroke="black" stroke-dasharray="5,2" d="M58,-11C58,-11 94,-11 94,-11 100,-11 106,-17 106,-23 106,-23 106,-41 106,-41 106,-47 100,-53 94,-53 94,-53 58,-53 58,-53 52,-53 46,-47 46,-41 46,-41 46,-23 46,-23 46,-17 52,-11 58,-11"/>
</g>
<g id="clust97" class="cluster">
<title>outer_cluster_i64&#45;16</title>
</g>
<g id="clust98" class="cluster">
<title>cluster_i64&#45;16</title>
<path fill="#80b1d3" stroke="black" stroke-dasharray="5,2" d="M415,-11C415,-11 451,-11 451,-11 457,-11 463,-17 463,-23 463,-23 463,-41 463,-41 463,-47 457,-53 451,-53 451,-53 415,-53 415,-53 409,-53 403,-47 403,-41 403,-41 403,-23 403,-23 403,-17 409,-11 415,-11"/>
</g>
<!-- function&#45;4&#45;ImmVal&#45;&gt;primitive&#45;i64&#45;16 -->
<g id="edge1" class="edge">
<title>function&#45;4&#45;ImmVal:s&#45;&gt;primitive&#45;i64&#45;16</title>
<path fill="none" stroke="black" d="M433,-95C433,-81.84 433,-67.11 433,-55.3"/>
<polygon fill="black" stroke="black" points="434.75,-58 433,-53 431.25,-58 434.75,-58"/>
</g>
<!-- function&#45;3&#45;ImmVal&#45;&gt;primitive&#45;i64&#45;12 -->
<g id="edge2" class="edge">
<title>function&#45;3&#45;ImmVal:s&#45;&gt;primitive&#45;i64&#45;12</title>
<path fill="none" stroke="black" d="M76,-95C76,-81.84 76,-67.11 76,-55.3"/>
<polygon fill="black" stroke="black" points="77.75,-58 76,-53 74.25,-58 77.75,-58"/>
</g>
<!-- function&#45;2&#45;ImmVal&#45;&gt;primitive&#45;i64&#45;8 -->
<g id="edge3" class="edge">
<title>function&#45;2&#45;ImmVal:s&#45;&gt;primitive&#45;i64&#45;8</title>
<path fill="none" stroke="black" d="M833,-95C833,-81.84 833,-67.11 833,-55.3"/>
<polygon fill="black" stroke="black" points="834.75,-58 833,-53 831.25,-58 834.75,-58"/>
</g>
<!-- function&#45;0&#45;ImmLabel&#45;&gt;primitive&#45;String&#45;3 -->
<g id="edge4" class="edge">
<title>function&#45;0&#45;ImmLabel:s&#45;&gt;primitive&#45;String&#45;3</title>
<path fill="none" stroke="black" d="M733,-174C733,-160.84 733,-146.11 733,-134.3"/>
<polygon fill="black" stroke="black" points="734.75,-137 733,-132 731.25,-137 734.75,-137"/>
</g>
<!-- function&#45;1&#45;ImmVal&#45;&gt;primitive&#45;i64&#45;4 -->
<g id="edge5" class="edge">
<title>function&#45;1&#45;ImmVal:s&#45;&gt;primitive&#45;i64&#45;4</title>
<path fill="none" stroke="black" d="M359,-95C359,-81.84 359,-67.11 359,-55.3"/>
<polygon fill="black" stroke="black" points="360.75,-58 359,-53 357.25,-58 360.75,-58"/>
</g>
<!-- function&#45;0&#45;ImmVal&#45;&gt;primitive&#45;i64&#45;0 -->
<g id="edge6" class="edge">
<title>function&#45;0&#45;ImmVal:s&#45;&gt;primitive&#45;i64&#45;0</title>
<path fill="none" stroke="black" d="M657,-95C657,-81.84 657,-67.11 657,-55.3"/>
<polygon fill="black" stroke="black" points="658.75,-58 657,-53 655.25,-58 658.75,-58"/>
</g>
<!-- function&#45;0&#45;Beq&#45;&gt;function&#45;1&#45;ImmVal -->
<g id="edge9" class="edge">
<title>function&#45;0&#45;Beq:s&#45;&gt;function&#45;1&#45;ImmVal</title>
<path fill="none" stroke="black" d="M441,-253C441,-222.67 402.28,-238.93 385,-214 376.12,-201.19 367.53,-160.14 362.78,-134.19"/>
<polygon fill="black" stroke="black" points="365.4,-135.97 361.89,-132 362.16,-137.29 365.4,-135.97"/>
</g>
<!-- function&#45;0&#45;Beq&#45;&gt;function&#45;0&#45;Addi -->
<g id="edge7" class="edge">
<title>function&#45;0&#45;Beq:s&#45;&gt;function&#45;0&#45;Addi</title>
<path fill="none" stroke="black" d="M418,-253C418,-239.83 417.54,-225.1 417.07,-213.3"/>
<polygon fill="black" stroke="black" points="419.06,-215.81 416.85,-211 415.58,-216.14 419.06,-215.81"/>
</g>
<!-- function&#45;0&#45;Beq&#45;&gt;function&#45;0&#45;RegVal -->
<g id="edge8" class="edge">
<title>function&#45;0&#45;Beq:s&#45;&gt;function&#45;0&#45;RegVal</title>
<path fill="none" stroke="black" d="M432,-253C432,-247.36 279.85,-213.57 210.14,-198.38"/>
<polygon fill="black" stroke="black" points="213.23,-198.05 208,-197.23 211.58,-201.14 213.23,-198.05"/>
</g>
<!-- function&#45;0&#45;Addi&#45;&gt;function&#45;4&#45;ImmVal -->
<g id="edge29" class="edge">
<title>function&#45;0&#45;Addi:s&#45;&gt;function&#45;4&#45;ImmVal</title>
<path fill="none" stroke="black" d="M426,-174C426,-160.76 427.6,-146.02 429.27,-134.24"/>
<polygon fill="black" stroke="black" points="430.07,-137.3 430.03,-132 426.76,-136.16 430.07,-137.3"/>
</g>
<!-- function&#45;0&#45;Addi&#45;&gt;function&#45;2&#45;RegVal -->
<g id="edge28" class="edge">
<title>function&#45;0&#45;Addi:s&#45;&gt;function&#45;2&#45;RegVal</title>
<path fill="none" stroke="black" d="M406,-174C406,-173.76 440.31,-152.32 468.53,-134.72"/>
<polygon fill="black" stroke="black" points="469.68,-136.06 473,-131.93 467.83,-133.09 469.68,-136.06"/>
</g>
<!-- function&#45;0&#45;RegVal&#45;&gt;primitive&#45;String&#45;0 -->
<g id="edge27" class="edge">
<title>function&#45;0&#45;RegVal:s&#45;&gt;primitive&#45;String&#45;0</title>
<path fill="none" stroke="black" d="M177,-174C177,-160.84 177,-146.11 177,-134.3"/>
<polygon fill="black" stroke="black" points="178.75,-137 177,-132 175.25,-137 178.75,-137"/>
</g>
<!-- function&#45;1&#45;Beq&#45;&gt;function&#45;1&#45;ImmVal -->
<g id="edge12" class="edge">
<title>function&#45;1&#45;Beq:s&#45;&gt;function&#45;1&#45;ImmVal</title>
<path fill="none" stroke="black" d="M383,-253C383,-234.86 374.74,-231.75 371,-214 365.27,-186.82 362.07,-154.94 360.44,-134.15"/>
<polygon fill="black" stroke="black" points="362.65,-136.62 360.06,-132 359.21,-137.23 362.65,-136.62"/>
</g>
<!-- function&#45;1&#45;Beq&#45;&gt;function&#45;0&#45;Addi -->
<g id="edge11" class="edge">
<title>function&#45;1&#45;Beq:s&#45;&gt;function&#45;0&#45;Addi</title>
<path fill="none" stroke="black" d="M374,-253C374,-237.6 382.99,-223.18 392.65,-212.12"/>
<polygon fill="black" stroke="black" points="391.18,-215.33 394.23,-211 389.14,-212.48 391.18,-215.33"/>
</g>
<!-- function&#45;1&#45;Beq&#45;&gt;function&#45;0&#45;RegVal -->
<g id="edge10" class="edge">
<title>function&#45;1&#45;Beq:s&#45;&gt;function&#45;0&#45;RegVal</title>
<path fill="none" stroke="black" d="M360,-253C360,-237.33 262.87,-211.7 209.75,-198.86"/>
<polygon fill="black" stroke="black" points="213.11,-199.04 208,-197.65 211.13,-201.93 213.11,-199.04"/>
</g>
<!-- function&#45;1&#45;Seq2&#45;&gt;function&#45;2&#45;Bne -->
<g id="edge13" class="edge">
<title>function&#45;1&#45;Seq2:s&#45;&gt;function&#45;2&#45;Bne</title>
<path fill="none" stroke="black" d="M300,-253C300,-215.1 253.76,-206.28 220,-223.5 210.47,-228.36 203.04,-237.41 197.67,-246.17"/>
<polygon fill="black" stroke="black" points="198.12,-243.19 195.9,-248 200.63,-245.62 198.12,-243.19"/>
</g>
<!-- function&#45;1&#45;Seq2&#45;&gt;function&#45;1&#45;Jal -->
<g id="edge14" class="edge">
<title>function&#45;1&#45;Seq2:s&#45;&gt;function&#45;1&#45;Jal</title>
<path fill="none" stroke="black" d="M322,-253C322,-239.84 322,-225.11 322,-213.3"/>
<polygon fill="black" stroke="black" points="323.75,-216 322,-211 320.25,-216 323.75,-216"/>
</g>
<!-- function&#45;2&#45;Bne&#45;&gt;function&#45;1&#45;ImmVal -->
<g id="edge42" class="edge">
<title>function&#45;2&#45;Bne:s&#45;&gt;function&#45;1&#45;ImmVal</title>
<path fill="none" stroke="black" d="M201,-253C201,-235.64 287.03,-167.12 332.13,-132.4"/>
<polygon fill="black" stroke="black" points="329.15,-135.21 333.36,-132 328.07,-131.88 329.15,-135.21"/>
</g>
<!-- function&#45;2&#45;Bne&#45;&gt;function&#45;0&#45;Addi -->
<g id="edge40" class="edge">
<title>function&#45;2&#45;Bne:s&#45;&gt;function&#45;0&#45;Addi</title>
<path fill="none" stroke="black" d="M178,-253C178,-213.16 314.76,-225.19 353,-214 363.28,-210.99 374.3,-207.18 384.2,-203.53"/>
<polygon fill="black" stroke="black" points="382.11,-206.34 386,-202.75 380.72,-203.13 382.11,-206.34"/>
</g>
<!-- function&#45;2&#45;Bne&#45;&gt;function&#45;0&#45;RegVal -->
<g id="edge41" class="edge">
<title>function&#45;2&#45;Bne:s&#45;&gt;function&#45;0&#45;RegVal</title>
<path fill="none" stroke="black" d="M192,-253C192,-239.38 188.34,-224.6 184.52,-212.89"/>
<polygon fill="black" stroke="black" points="187.48,-213.63 182.88,-211 184.83,-215.92 187.48,-213.63"/>
</g>
<!-- function&#45;1&#45;Jal&#45;&gt;function&#45;1&#45;ImmVal -->
<g id="edge24" class="edge">
<title>function&#45;1&#45;Jal:s&#45;&gt;function&#45;1&#45;ImmVal</title>
<path fill="none" stroke="black" d="M322,-174C322,-158.93 330.16,-144.34 338.82,-133.1"/>
<polygon fill="black" stroke="black" points="337.52,-136.67 340.02,-132 335.15,-134.1 337.52,-136.67"/>
</g>
<!-- function&#45;0&#45;Bne&#45;&gt;function&#45;0&#45;ImmLabel -->
<g id="edge17" class="edge">
<title>function&#45;0&#45;Bne:s&#45;&gt;function&#45;0&#45;ImmLabel</title>
<path fill="none" stroke="black" d="M441,-332C441,-264.11 698.66,-343.52 744,-293 763.46,-271.32 753.19,-235.77 743.22,-212.88"/>
<polygon fill="black" stroke="black" points="746.16,-214.41 742.1,-211 743.15,-216.19 746.16,-214.41"/>
</g>
<!-- function&#45;0&#45;Bne&#45;&gt;function&#45;0&#45;Addi -->
<g id="edge15" class="edge">
<title>function&#45;0&#45;Bne:s&#45;&gt;function&#45;0&#45;Addi</title>
<path fill="none" stroke="black" d="M418,-332C418,-307.17 448.35,-315.88 458,-293 466.29,-273.34 464.92,-265.18 458,-245 453.82,-232.81 445.64,-221.25 437.6,-211.98"/>
<polygon fill="black" stroke="black" points="441.28,-212.4 436.17,-211 439.29,-215.28 441.28,-212.4"/>
</g>
<!-- function&#45;0&#45;Bne&#45;&gt;function&#45;0&#45;RegVal -->
<g id="edge16" class="edge">
<title>function&#45;0&#45;Bne:s&#45;&gt;function&#45;0&#45;RegVal</title>
<path fill="none" stroke="black" d="M432,-332C432,-254.85 138.4,-350.54 87,-293 72.79,-277.09 76.53,-263.59 87,-245 93.29,-233.83 119.95,-218.45 142.47,-206.96"/>
<polygon fill="black" stroke="black" points="141.48,-210.23 144,-205.57 139.12,-207.64 141.48,-210.23"/>
</g>
<!-- function&#45;1&#45;Bne&#45;&gt;function&#45;0&#45;ImmLabel -->
<g id="edge20" class="edge">
<title>function&#45;1&#45;Bne:s&#45;&gt;function&#45;0&#45;ImmLabel</title>
<path fill="none" stroke="black" d="M557,-332C557,-242.31 698.04,-362.28 755,-293 773.81,-270.13 759.31,-234.99 746.31,-212.5"/>
<polygon fill="black" stroke="black" points="749.56,-213.19 744.74,-211 747.14,-215.72 749.56,-213.19"/>
</g>
<!-- function&#45;1&#45;Bne&#45;&gt;function&#45;0&#45;Addi -->
<g id="edge19" class="edge">
<title>function&#45;1&#45;Bne:s&#45;&gt;function&#45;0&#45;Addi</title>
<path fill="none" stroke="black" d="M548,-332C548,-298.69 505.69,-318.28 484,-293 468.95,-275.46 476.29,-264.57 464,-245 456.58,-233.18 446.55,-221.44 437.57,-211.94"/>
<polygon fill="black" stroke="black" points="441.23,-212.15 436.06,-211 439.38,-215.13 441.23,-212.15"/>
</g>
<!-- function&#45;1&#45;Bne&#45;&gt;function&#45;0&#45;RegVal -->
<g id="edge18" class="edge">
<title>function&#45;1&#45;Bne:s&#45;&gt;function&#45;0&#45;RegVal</title>
<path fill="none" stroke="black" d="M534,-332C534,-234.72 164.17,-364.31 98,-293 83.49,-277.36 88.1,-263.9 98,-245 107.43,-227 125.89,-213.8 142.49,-204.97"/>
<polygon fill="black" stroke="black" points="141.49,-208.25 144,-203.59 139.13,-205.66 141.49,-208.25"/>
</g>
<!-- function&#45;0&#45;Seq2&#45;&gt;function&#45;0&#45;Beq -->
<g id="edge21" class="edge">
<title>function&#45;0&#45;Seq2:s&#45;&gt;function&#45;0&#45;Beq</title>
<path fill="none" stroke="black" d="M474,-332C474,-316.1 464.07,-301.72 453.33,-290.82"/>
<polygon fill="black" stroke="black" points="456.93,-290.64 451.67,-290 455.39,-293.78 456.93,-290.64"/>
</g>
<!-- function&#45;0&#45;Seq2&#45;&gt;function&#45;0&#45;Jal -->
<g id="edge22" class="edge">
<title>function&#45;0&#45;Seq2:s&#45;&gt;function&#45;0&#45;Jal</title>
<path fill="none" stroke="black" d="M496,-332C496,-322.43 506.81,-326.69 516,-324 586.35,-303.4 610.07,-320.55 678,-293 678.54,-292.78 679.08,-292.55 679.62,-292.32"/>
<polygon fill="black" stroke="black" points="680.71,-293.74 684.47,-290 679.2,-290.58 680.71,-293.74"/>
</g>
<!-- function&#45;0&#45;Jal&#45;&gt;function&#45;0&#45;ImmLabel -->
<g id="edge52" class="edge">
<title>function&#45;0&#45;Jal:s&#45;&gt;function&#45;0&#45;ImmLabel</title>
<path fill="none" stroke="black" d="M713,-253C713,-239.31 717.29,-224.63 721.79,-213"/>
<polygon fill="black" stroke="black" points="722.19,-216.27 722.72,-211 719.02,-214.79 722.19,-216.27"/>
</g>
<!-- function&#45;1&#45;RegVal&#45;&gt;primitive&#45;String&#45;1 -->
<g id="edge23" class="edge">
<title>function&#45;1&#45;RegVal:s&#45;&gt;primitive&#45;String&#45;1</title>
<path fill="none" stroke="black" d="M575,-174C575,-160.84 575,-146.11 575,-134.3"/>
<polygon fill="black" stroke="black" points="576.75,-137 575,-132 573.25,-137 576.75,-137"/>
</g>
<!-- function&#45;3&#45;Lw&#45;&gt;function&#45;3&#45;ImmVal -->
<g id="edge26" class="edge">
<title>function&#45;3&#45;Lw:s&#45;&gt;function&#45;3&#45;ImmVal</title>
<path fill="none" stroke="black" d="M99,-174C99,-160.04 93.81,-145.35 88.36,-133.77"/>
<polygon fill="black" stroke="black" points="91.43,-134.94 87.02,-132 88.64,-137.05 91.43,-134.94"/>
</g>
<!-- function&#45;3&#45;Lw&#45;&gt;function&#45;2&#45;RegVal -->
<g id="edge25" class="edge">
<title>function&#45;3&#45;Lw:s&#45;&gt;function&#45;2&#45;RegVal</title>
<path fill="none" stroke="black" d="M83,-174C83,-147.1 116.27,-169.06 143,-166 287.16,-149.52 330.53,-181.42 468,-135 468.92,-134.69 469.85,-134.35 470.77,-133.99"/>
<polygon fill="black" stroke="black" points="471.47,-135.59 475.36,-132 470.07,-132.38 471.47,-135.59"/>
</g>
<!-- function&#45;2&#45;RegVal&#45;&gt;primitive&#45;String&#45;2 -->
<g id="edge56" class="edge">
<title>function&#45;2&#45;RegVal:s&#45;&gt;primitive&#45;String&#45;2</title>
<path fill="none" stroke="black" d="M506,-95C506,-81.84 506,-67.11 506,-55.3"/>
<polygon fill="black" stroke="black" points="507.75,-58 506,-53 504.25,-58 507.75,-58"/>
</g>
<!-- function&#45;1&#45;Sw&#45;&gt;function&#45;1&#45;ImmVal -->
<g id="edge32" class="edge">
<title>function&#45;1&#45;Sw:s&#45;&gt;function&#45;1&#45;ImmVal</title>
<path fill="none" stroke="black" d="M526,-253C526,-220.07 483.43,-239.83 463,-214 449.05,-196.36 460.98,-183.61 447,-166 445.1,-163.6 420.15,-148.38 397.31,-134.71"/>
<polygon fill="black" stroke="black" points="397.97,-133.06 392.78,-132 396.17,-136.06 397.97,-133.06"/>
</g>
<!-- function&#45;1&#45;Sw&#45;&gt;function&#45;1&#45;RegVal -->
<g id="edge30" class="edge">
<title>function&#45;1&#45;Sw:s&#45;&gt;function&#45;1&#45;RegVal</title>
<path fill="none" stroke="black" d="M507,-253C507,-232.72 523.74,-217.22 540.49,-206.79"/>
<polygon fill="black" stroke="black" points="540.13,-209.94 542,-204.99 537.45,-207.7 540.13,-209.94"/>
</g>
<!-- function&#45;1&#45;Sw&#45;&gt;function&#45;1&#45;Lw -->
<g id="edge31" class="edge">
<title>function&#45;1&#45;Sw:s&#45;&gt;function&#45;1&#45;Lw</title>
<path fill="none" stroke="black" d="M519,-253C519,-238.86 513.34,-224.14 507.4,-212.59"/>
<polygon fill="black" stroke="black" points="510.62,-213.65 506.04,-211 507.97,-215.93 510.62,-213.65"/>
</g>
<!-- function&#45;1&#45;Lw&#45;&gt;function&#45;1&#45;ImmVal -->
<g id="edge39" class="edge">
<title>function&#45;1&#45;Lw:s&#45;&gt;function&#45;1&#45;ImmVal</title>
<path fill="none" stroke="black" d="M502,-174C502,-124.63 442.54,-156.29 398,-135 397.51,-134.76 397.01,-134.52 396.52,-134.28"/>
<polygon fill="black" stroke="black" points="397.27,-132.7 392.02,-132 395.69,-135.82 397.27,-132.7"/>
</g>
<!-- function&#45;1&#45;Lw&#45;&gt;function&#45;2&#45;RegVal -->
<g id="edge38" class="edge">
<title>function&#45;1&#45;Lw:s&#45;&gt;function&#45;2&#45;RegVal</title>
<path fill="none" stroke="black" d="M486,-174C486,-160.31 490.29,-145.63 494.79,-134"/>
<polygon fill="black" stroke="black" points="495.19,-137.27 495.72,-132 492.02,-135.79 495.19,-137.27"/>
</g>
<!-- function&#45;0&#45;Sw&#45;&gt;function&#45;0&#45;ImmVal -->
<g id="edge35" class="edge">
<title>function&#45;0&#45;Sw:s&#45;&gt;function&#45;0&#45;ImmVal</title>
<path fill="none" stroke="black" d="M658,-253C658,-234.43 669.61,-232.26 673,-214 676.89,-193.03 676.06,-187.11 673,-166 671.45,-155.29 668.24,-143.74 665.11,-134.09"/>
<polygon fill="black" stroke="black" points="667.94,-134.87 663.49,-132 665.18,-137.02 667.94,-134.87"/>
</g>
<!-- function&#45;0&#45;Sw&#45;&gt;function&#45;1&#45;RegVal -->
<g id="edge33" class="edge">
<title>function&#45;0&#45;Sw:s&#45;&gt;function&#45;1&#45;RegVal</title>
<path fill="none" stroke="black" d="M639,-253C639,-242.22 620.03,-224.99 602.59,-211.43"/>
<polygon fill="black" stroke="black" points="606.5,-210.82 601.2,-211 605.46,-214.16 606.5,-210.82"/>
</g>
<!-- function&#45;0&#45;Sw&#45;&gt;function&#45;0&#45;Lw -->
<g id="edge34" class="edge">
<title>function&#45;0&#45;Sw:s&#45;&gt;function&#45;0&#45;Lw</title>
<path fill="none" stroke="black" d="M651,-253C651,-239.7 648.95,-224.96 646.8,-213.19"/>
<polygon fill="black" stroke="black" points="649.46,-214.84 645.82,-211 646.27,-216.28 649.46,-214.84"/>
</g>
<!-- function&#45;0&#45;Lw&#45;&gt;function&#45;0&#45;ImmVal -->
<g id="edge49" class="edge">
<title>function&#45;0&#45;Lw:s&#45;&gt;function&#45;0&#45;ImmVal</title>
<path fill="none" stroke="black" d="M650,-174C650,-160.76 651.6,-146.02 653.27,-134.24"/>
<polygon fill="black" stroke="black" points="654.07,-137.3 654.03,-132 650.76,-136.16 654.07,-137.3"/>
</g>
<!-- function&#45;0&#45;Lw&#45;&gt;function&#45;2&#45;RegVal -->
<g id="edge48" class="edge">
<title>function&#45;0&#45;Lw:s&#45;&gt;function&#45;2&#45;RegVal</title>
<path fill="none" stroke="black" d="M634,-174C634,-129.59 581.42,-155.45 542,-135 541.66,-134.82 541.31,-134.64 540.97,-134.46"/>
<polygon fill="black" stroke="black" points="541.67,-132.85 536.44,-132 540,-135.92 541.67,-132.85"/>
</g>
<!-- function&#45;2&#45;Lw&#45;&gt;function&#45;2&#45;ImmVal -->
<g id="edge37" class="edge">
<title>function&#45;2&#45;Lw:s&#45;&gt;function&#45;2&#45;ImmVal</title>
<path fill="none" stroke="black" d="M818,-174C818,-160.43 821.43,-145.65 825.02,-133.93"/>
<polygon fill="black" stroke="black" points="824.81,-137 826.55,-132 822.07,-134.82 824.81,-137"/>
</g>
<!-- function&#45;2&#45;Lw&#45;&gt;function&#45;2&#45;RegVal -->
<g id="edge36" class="edge">
<title>function&#45;2&#45;Lw:s&#45;&gt;function&#45;2&#45;RegVal</title>
<path fill="none" stroke="black" d="M802,-174C802,-161.48 787.24,-168.61 775,-166 672.83,-144.21 640.34,-170.25 542,-135 541.26,-134.73 540.51,-134.45 539.77,-134.15"/>
<polygon fill="black" stroke="black" points="540.17,-132.42 534.89,-132 538.76,-135.62 540.17,-132.42"/>
</g>
<!-- function&#45;3&#45;Bne&#45;&gt;function&#45;1&#45;ImmVal -->
<g id="edge45" class="edge">
<title>function&#45;3&#45;Bne:s&#45;&gt;function&#45;1&#45;ImmVal</title>
<path fill="none" stroke="black" d="M143,-253C143,-218.93 185.56,-238.73 209,-214 225.55,-196.54 216.39,-182.38 234,-166 259.1,-142.66 295.86,-128.44 323.02,-120.49"/>
<polygon fill="black" stroke="black" points="321.95,-123.41 325,-119.08 319.91,-120.56 321.95,-123.41"/>
</g>
<!-- function&#45;3&#45;Bne&#45;&gt;function&#45;0&#45;Addi -->
<g id="edge44" class="edge">
<title>function&#45;3&#45;Bne:s&#45;&gt;function&#45;0&#45;Addi</title>
<path fill="none" stroke="black" d="M134,-253C134,-240.91 148.23,-247.74 160,-245 244.61,-225.29 268.92,-235.89 353,-214 363.26,-211.33 374.2,-207.65 384.03,-204.01"/>
<polygon fill="black" stroke="black" points="381.99,-206.7 386,-203.23 380.71,-203.44 381.99,-206.7"/>
</g>
<!-- function&#45;3&#45;Bne&#45;&gt;function&#45;0&#45;RegVal -->
<g id="edge43" class="edge">
<title>function&#45;3&#45;Bne:s&#45;&gt;function&#45;0&#45;RegVal</title>
<path fill="none" stroke="black" d="M120,-253C120,-236.17 131.5,-221.87 144.07,-211.25"/>
<polygon fill="black" stroke="black" points="140.63,-214 145,-211 139.72,-210.62 140.63,-214"/>
</g>
<!-- function&#45;2&#45;Seq2&#45;&gt;function&#45;1&#45;Seq2 -->
<g id="edge46" class="edge">
<title>function&#45;2&#45;Seq2:s&#45;&gt;function&#45;1&#45;Seq2</title>
<path fill="none" stroke="black" d="M234,-253C234,-232.44 258.08,-239.47 279.13,-249.89"/>
<polygon fill="black" stroke="black" points="275.96,-249.68 281,-251.3 278.07,-246.89 275.96,-249.68"/>
</g>
<!-- function&#45;2&#45;Seq2&#45;&gt;function&#45;1&#45;Jal -->
<g id="edge47" class="edge">
<title>function&#45;2&#45;Seq2:s&#45;&gt;function&#45;1&#45;Jal</title>
<path fill="none" stroke="black" d="M256,-253C256,-232.45 273.21,-216.72 290.05,-206.25"/>
<polygon fill="black" stroke="black" points="289.53,-209.12 292,-204.44 287.15,-206.56 289.53,-209.12"/>
</g>
<!-- function&#45;1&#45;Addi&#45;&gt;function&#45;4&#45;ImmVal -->
<g id="edge51" class="edge">
<title>function&#45;1&#45;Addi:s&#45;&gt;function&#45;4&#45;ImmVal</title>
<path fill="none" stroke="black" d="M591,-253C591,-224.82 557.26,-237.02 541,-214 528.02,-195.63 539.17,-183.46 525,-166 507.81,-144.81 495.53,-148.82 472,-135 471.79,-134.88 471.58,-134.75 471.37,-134.63"/>
<polygon fill="black" stroke="black" points="472.09,-133.03 466.9,-132 470.32,-136.04 472.09,-133.03"/>
</g>
<!-- function&#45;1&#45;Addi&#45;&gt;function&#45;1&#45;RegVal -->
<g id="edge50" class="edge">
<title>function&#45;1&#45;Addi:s&#45;&gt;function&#45;1&#45;RegVal</title>
<path fill="none" stroke="black" d="M571,-253C571,-239.82 571.68,-225.09 572.4,-213.29"/>
<polygon fill="black" stroke="black" points="573.75,-216.2 572.73,-211 570.29,-215.7 573.75,-216.2"/>
</g>
<!-- function&#45;3&#45;Sw&#45;&gt;function&#45;3&#45;ImmVal -->
<g id="edge55" class="edge">
<title>function&#45;3&#45;Sw:s&#45;&gt;function&#45;3&#45;ImmVal</title>
<path fill="none" stroke="black" d="M52,-253C52,-214.17 52.67,-204.13 60,-166 62.04,-155.37 65.31,-143.84 68.36,-134.17"/>
<polygon fill="black" stroke="black" points="68.42,-137.08 69.93,-132 65.58,-135.02 68.42,-137.08"/>
</g>
<!-- function&#45;3&#45;Sw&#45;&gt;function&#45;1&#45;RegVal -->
<g id="edge53" class="edge">
<title>function&#45;3&#45;Sw:s&#45;&gt;function&#45;1&#45;RegVal</title>
<path fill="none" stroke="black" d="M33,-253C33,-223.89 69.03,-247.83 98,-245 287.37,-226.48 340.91,-262.12 525,-214 530.22,-212.64 535.56,-210.73 540.71,-208.58"/>
<polygon fill="black" stroke="black" points="539.18,-212.04 542,-207.56 537,-209.3 539.18,-212.04"/>
</g>
<!-- function&#45;3&#45;Sw&#45;&gt;function&#45;3&#45;Lw -->
<g id="edge54" class="edge">
<title>function&#45;3&#45;Sw:s&#45;&gt;function&#45;3&#45;Lw</title>
<path fill="none" stroke="black" d="M45,-253C45,-237.1 54.87,-222.63 65.47,-211.67"/>
<polygon fill="black" stroke="black" points="63.14,-214.54 67.08,-211 61.79,-211.32 63.14,-214.54"/>
</g>
<!-- function&#45;2&#45;Sw&#45;&gt;function&#45;2&#45;ImmVal -->
<g id="edge59" class="edge">
<title>function&#45;2&#45;Sw:s&#45;&gt;function&#45;2&#45;ImmVal</title>
<path fill="none" stroke="black" d="M817,-253C817,-232.65 835.46,-233.58 841,-214 848.54,-187.37 843.94,-155.38 839.18,-134.41"/>
<polygon fill="black" stroke="black" points="841.78,-135.69 837.98,-132 838.65,-137.25 841.78,-135.69"/>
</g>
<!-- function&#45;2&#45;Sw&#45;&gt;function&#45;1&#45;RegVal -->
<g id="edge57" class="edge">
<title>function&#45;2&#45;Sw:s&#45;&gt;function&#45;1&#45;RegVal</title>
<path fill="none" stroke="black" d="M798,-253C798,-210.55 650.41,-229.78 611,-214 610.31,-213.72 609.62,-213.43 608.92,-213.13"/>
<polygon fill="black" stroke="black" points="609.62,-211.53 604.35,-211 608.14,-214.7 609.62,-211.53"/>
</g>
<!-- function&#45;2&#45;Sw&#45;&gt;function&#45;2&#45;Lw -->
<g id="edge58" class="edge">
<title>function&#45;2&#45;Sw:s&#45;&gt;function&#45;2&#45;Lw</title>
<path fill="none" stroke="black" d="M810,-253C810,-239.84 810,-225.11 810,-213.3"/>
<polygon fill="black" stroke="black" points="811.75,-216 810,-211 808.25,-216 811.75,-216"/>
</g>
<!-- function&#45;4&#45;ImmVal -->
<g id="node1" class="node">
<title>function&#45;4&#45;ImmVal</title>
<g id="a_node1"><a xlink:title="Imm&#45;15: function&#45;4&#45;ImmVal">
<path fill="white" stroke="transparent" d="M412.67,-95C412.67,-95 453.33,-95 453.33,-95 458.67,-95 464,-100.33 464,-105.67 464,-105.67 464,-116.33 464,-116.33 464,-121.67 458.67,-127 453.33,-127 453.33,-127 412.67,-127 412.67,-127 407.33,-127 402,-121.67 402,-116.33 402,-116.33 402,-105.67 402,-105.67 402,-100.33 407.33,-95 412.67,-95"/>
<text text-anchor="start" x="407" y="-107.3" font-family="Helvetica,sans-Serif" font-size="14.00">ImmVal</text>
<path fill="none" stroke="black" d="M412.67,-95C412.67,-95 453.33,-95 453.33,-95 458.67,-95 464,-100.33 464,-105.67 464,-105.67 464,-116.33 464,-116.33 464,-121.67 458.67,-127 453.33,-127 453.33,-127 412.67,-127 412.67,-127 407.33,-127 402,-121.67 402,-116.33 402,-116.33 402,-105.67 402,-105.67 402,-100.33 407.33,-95 412.67,-95"/>
</a>
</g>
</g>
<!-- primitive&#45;i64&#45;16 -->
<g id="node2" class="node">
<title>primitive&#45;i64&#45;16</title>
<g id="a_node2"><a xlink:title="i64&#45;16: primitive&#45;i64&#45;16">
<path fill="white" stroke="transparent" d="M427.67,-16C427.67,-16 438.33,-16 438.33,-16 443.67,-16 449,-21.33 449,-26.67 449,-26.67 449,-37.33 449,-37.33 449,-42.67 443.67,-48 438.33,-48 438.33,-48 427.67,-48 427.67,-48 422.33,-48 417,-42.67 417,-37.33 417,-37.33 417,-26.67 417,-26.67 417,-21.33 422.33,-16 427.67,-16"/>
<text text-anchor="start" x="423.5" y="-28.3" font-family="Helvetica,sans-Serif" font-size="14.00">16</text>
<path fill="none" stroke="black" d="M427.67,-16C427.67,-16 438.33,-16 438.33,-16 443.67,-16 449,-21.33 449,-26.67 449,-26.67 449,-37.33 449,-37.33 449,-42.67 443.67,-48 438.33,-48 438.33,-48 427.67,-48 427.67,-48 422.33,-48 417,-42.67 417,-37.33 417,-37.33 417,-26.67 417,-26.67 417,-21.33 422.33,-16 427.67,-16"/>
</a>
</g>
</g>
<!-- function&#45;3&#45;ImmVal -->
<g id="node3" class="node">
<title>function&#45;3&#45;ImmVal</title>
<g id="a_node3"><a xlink:title="Imm&#45;9: function&#45;3&#45;ImmVal">
<path fill="white" stroke="transparent" d="M55.67,-95C55.67,-95 96.33,-95 96.33,-95 101.67,-95 107,-100.33 107,-105.67 107,-105.67 107,-116.33 107,-116.33 107,-121.67 101.67,-127 96.33,-127 96.33,-127 55.67,-127 55.67,-127 50.33,-127 45,-121.67 45,-116.33 45,-116.33 45,-105.67 45,-105.67 45,-100.33 50.33,-95 55.67,-95"/>
<text text-anchor="start" x="50" y="-107.3" font-family="Helvetica,sans-Serif" font-size="14.00">ImmVal</text>
<path fill="none" stroke="black" d="M55.67,-95C55.67,-95 96.33,-95 96.33,-95 101.67,-95 107,-100.33 107,-105.67 107,-105.67 107,-116.33 107,-116.33 107,-121.67 101.67,-127 96.33,-127 96.33,-127 55.67,-127 55.67,-127 50.33,-127 45,-121.67 45,-116.33 45,-116.33 45,-105.67 45,-105.67 45,-100.33 50.33,-95 55.67,-95"/>
</a>
</g>
</g>
<!-- primitive&#45;i64&#45;12 -->
<g id="node4" class="node">
<title>primitive&#45;i64&#45;12</title>
<g id="a_node4"><a xlink:title="i64&#45;12: primitive&#45;i64&#45;12">
<path fill="white" stroke="transparent" d="M70.67,-16C70.67,-16 81.33,-16 81.33,-16 86.67,-16 92,-21.33 92,-26.67 92,-26.67 92,-37.33 92,-37.33 92,-42.67 86.67,-48 81.33,-48 81.33,-48 70.67,-48 70.67,-48 65.33,-48 60,-42.67 60,-37.33 60,-37.33 60,-26.67 60,-26.67 60,-21.33 65.33,-16 70.67,-16"/>
<text text-anchor="start" x="66.5" y="-28.3" font-family="Helvetica,sans-Serif" font-size="14.00">12</text>
<path fill="none" stroke="black" d="M70.67,-16C70.67,-16 81.33,-16 81.33,-16 86.67,-16 92,-21.33 92,-26.67 92,-26.67 92,-37.33 92,-37.33 92,-42.67 86.67,-48 81.33,-48 81.33,-48 70.67,-48 70.67,-48 65.33,-48 60,-42.67 60,-37.33 60,-37.33 60,-26.67 60,-26.67 60,-21.33 65.33,-16 70.67,-16"/>
</a>
</g>
</g>
<!-- function&#45;2&#45;ImmVal -->
<g id="node5" class="node">
<title>function&#45;2&#45;ImmVal</title>
<g id="a_node5"><a xlink:title="Imm&#45;7: function&#45;2&#45;ImmVal">
<path fill="white" stroke="transparent" d="M812.67,-95C812.67,-95 853.33,-95 853.33,-95 858.67,-95 864,-100.33 864,-105.67 864,-105.67 864,-116.33 864,-116.33 864,-121.67 858.67,-127 853.33,-127 853.33,-127 812.67,-127 812.67,-127 807.33,-127 802,-121.67 802,-116.33 802,-116.33 802,-105.67 802,-105.67 802,-100.33 807.33,-95 812.67,-95"/>
<text text-anchor="start" x="807" y="-107.3" font-family="Helvetica,sans-Serif" font-size="14.00">ImmVal</text>
<path fill="none" stroke="black" d="M812.67,-95C812.67,-95 853.33,-95 853.33,-95 858.67,-95 864,-100.33 864,-105.67 864,-105.67 864,-116.33 864,-116.33 864,-121.67 858.67,-127 853.33,-127 853.33,-127 812.67,-127 812.67,-127 807.33,-127 802,-121.67 802,-116.33 802,-116.33 802,-105.67 802,-105.67 802,-100.33 807.33,-95 812.67,-95"/>
</a>
</g>
</g>
<!-- primitive&#45;i64&#45;8 -->
<g id="node6" class="node">
<title>primitive&#45;i64&#45;8</title>
<g id="a_node6"><a xlink:title="i64&#45;8: primitive&#45;i64&#45;8">
<path fill="white" stroke="transparent" d="M827.67,-16C827.67,-16 838.33,-16 838.33,-16 843.67,-16 849,-21.33 849,-26.67 849,-26.67 849,-37.33 849,-37.33 849,-42.67 843.67,-48 838.33,-48 838.33,-48 827.67,-48 827.67,-48 822.33,-48 817,-42.67 817,-37.33 817,-37.33 817,-26.67 817,-26.67 817,-21.33 822.33,-16 827.67,-16"/>
<text text-anchor="start" x="828" y="-28.3" font-family="Helvetica,sans-Serif" font-size="14.00">8</text>
<path fill="none" stroke="black" d="M827.67,-16C827.67,-16 838.33,-16 838.33,-16 843.67,-16 849,-21.33 849,-26.67 849,-26.67 849,-37.33 849,-37.33 849,-42.67 843.67,-48 838.33,-48 838.33,-48 827.67,-48 827.67,-48 822.33,-48 817,-42.67 817,-37.33 817,-37.33 817,-26.67 817,-26.67 817,-21.33 822.33,-16 827.67,-16"/>
</a>
</g>
</g>
<!-- function&#45;0&#45;ImmLabel -->
<g id="node7" class="node">
<title>function&#45;0&#45;ImmLabel</title>
<g id="a_node7"><a xlink:title="Imm&#45;18: function&#45;0&#45;ImmLabel">
<path fill="white" stroke="transparent" d="M703.17,-174C703.17,-174 760.83,-174 760.83,-174 766.17,-174 771.5,-179.33 771.5,-184.67 771.5,-184.67 771.5,-195.33 771.5,-195.33 771.5,-200.67 766.17,-206 760.83,-206 760.83,-206 703.17,-206 703.17,-206 697.83,-206 692.5,-200.67 692.5,-195.33 692.5,-195.33 692.5,-184.67 692.5,-184.67 692.5,-179.33 697.83,-174 703.17,-174"/>
<text text-anchor="start" x="698" y="-186.3" font-family="Helvetica,sans-Serif" font-size="14.00">ImmLabel</text>
<path fill="none" stroke="black" d="M703.17,-174C703.17,-174 760.83,-174 760.83,-174 766.17,-174 771.5,-179.33 771.5,-184.67 771.5,-184.67 771.5,-195.33 771.5,-195.33 771.5,-200.67 766.17,-206 760.83,-206 760.83,-206 703.17,-206 703.17,-206 697.83,-206 692.5,-200.67 692.5,-195.33 692.5,-195.33 692.5,-184.67 692.5,-184.67 692.5,-179.33 697.83,-174 703.17,-174"/>
</a>
</g>
</g>
<!-- primitive&#45;String&#45;3 -->
<g id="node8" class="node">
<title>primitive&#45;String&#45;3</title>
<g id="a_node8"><a xlink:title="String&#45;3: primitive&#45;String&#45;3">
<path fill="white" stroke="transparent" d="M716.67,-95C716.67,-95 749.33,-95 749.33,-95 754.67,-95 760,-100.33 760,-105.67 760,-105.67 760,-116.33 760,-116.33 760,-121.67 754.67,-127 749.33,-127 749.33,-127 716.67,-127 716.67,-127 711.33,-127 706,-121.67 706,-116.33 706,-116.33 706,-105.67 706,-105.67 706,-100.33 711.33,-95 716.67,-95"/>
<text text-anchor="start" x="711" y="-107.3" font-family="Helvetica,sans-Serif" font-size="14.00">&quot;.L47&quot;</text>
<path fill="none" stroke="black" d="M716.67,-95C716.67,-95 749.33,-95 749.33,-95 754.67,-95 760,-100.33 760,-105.67 760,-105.67 760,-116.33 760,-116.33 760,-121.67 754.67,-127 749.33,-127 749.33,-127 716.67,-127 716.67,-127 711.33,-127 706,-121.67 706,-116.33 706,-116.33 706,-105.67 706,-105.67 706,-100.33 711.33,-95 716.67,-95"/>
</a>
</g>
</g>
<!-- function&#45;1&#45;ImmVal -->
<g id="node9" class="node">
<title>function&#45;1&#45;ImmVal</title>
<g id="a_node9"><a xlink:title="Imm&#45;5: function&#45;1&#45;ImmVal">
<path fill="white" stroke="transparent" d="M338.67,-95C338.67,-95 379.33,-95 379.33,-95 384.67,-95 390,-100.33 390,-105.67 390,-105.67 390,-116.33 390,-116.33 390,-121.67 384.67,-127 379.33,-127 379.33,-127 338.67,-127 338.67,-127 333.33,-127 328,-121.67 328,-116.33 328,-116.33 328,-105.67 328,-105.67 328,-100.33 333.33,-95 338.67,-95"/>
<text text-anchor="start" x="333" y="-107.3" font-family="Helvetica,sans-Serif" font-size="14.00">ImmVal</text>
<path fill="none" stroke="black" d="M338.67,-95C338.67,-95 379.33,-95 379.33,-95 384.67,-95 390,-100.33 390,-105.67 390,-105.67 390,-116.33 390,-116.33 390,-121.67 384.67,-127 379.33,-127 379.33,-127 338.67,-127 338.67,-127 333.33,-127 328,-121.67 328,-116.33 328,-116.33 328,-105.67 328,-105.67 328,-100.33 333.33,-95 338.67,-95"/>
</a>
</g>
</g>
<!-- primitive&#45;i64&#45;4 -->
<g id="node10" class="node">
<title>primitive&#45;i64&#45;4</title>
<g id="a_node10"><a xlink:title="i64&#45;4: primitive&#45;i64&#45;4">
<path fill="white" stroke="transparent" d="M353.67,-16C353.67,-16 364.33,-16 364.33,-16 369.67,-16 375,-21.33 375,-26.67 375,-26.67 375,-37.33 375,-37.33 375,-42.67 369.67,-48 364.33,-48 364.33,-48 353.67,-48 353.67,-48 348.33,-48 343,-42.67 343,-37.33 343,-37.33 343,-26.67 343,-26.67 343,-21.33 348.33,-16 353.67,-16"/>
<text text-anchor="start" x="354" y="-28.3" font-family="Helvetica,sans-Serif" font-size="14.00">4</text>
<path fill="none" stroke="black" d="M353.67,-16C353.67,-16 364.33,-16 364.33,-16 369.67,-16 375,-21.33 375,-26.67 375,-26.67 375,-37.33 375,-37.33 375,-42.67 369.67,-48 364.33,-48 364.33,-48 353.67,-48 353.67,-48 348.33,-48 343,-42.67 343,-37.33 343,-37.33 343,-26.67 343,-26.67 343,-21.33 348.33,-16 353.67,-16"/>
</a>
</g>
</g>
<!-- function&#45;0&#45;ImmVal -->
<g id="node11" class="node">
<title>function&#45;0&#45;ImmVal</title>
<g id="a_node11"><a xlink:title="Imm&#45;3: function&#45;0&#45;ImmVal">
<path fill="white" stroke="transparent" d="M636.67,-95C636.67,-95 677.33,-95 677.33,-95 682.67,-95 688,-100.33 688,-105.67 688,-105.67 688,-116.33 688,-116.33 688,-121.67 682.67,-127 677.33,-127 677.33,-127 636.67,-127 636.67,-127 631.33,-127 626,-121.67 626,-116.33 626,-116.33 626,-105.67 626,-105.67 626,-100.33 631.33,-95 636.67,-95"/>
<text text-anchor="start" x="631" y="-107.3" font-family="Helvetica,sans-Serif" font-size="14.00">ImmVal</text>
<path fill="none" stroke="black" d="M636.67,-95C636.67,-95 677.33,-95 677.33,-95 682.67,-95 688,-100.33 688,-105.67 688,-105.67 688,-116.33 688,-116.33 688,-121.67 682.67,-127 677.33,-127 677.33,-127 636.67,-127 636.67,-127 631.33,-127 626,-121.67 626,-116.33 626,-116.33 626,-105.67 626,-105.67 626,-100.33 631.33,-95 636.67,-95"/>
</a>
</g>
</g>
<!-- primitive&#45;i64&#45;0 -->
<g id="node12" class="node">
<title>primitive&#45;i64&#45;0</title>
<g id="a_node12"><a xlink:title="i64&#45;0: primitive&#45;i64&#45;0">
<path fill="white" stroke="transparent" d="M651.67,-16C651.67,-16 662.33,-16 662.33,-16 667.67,-16 673,-21.33 673,-26.67 673,-26.67 673,-37.33 673,-37.33 673,-42.67 667.67,-48 662.33,-48 662.33,-48 651.67,-48 651.67,-48 646.33,-48 641,-42.67 641,-37.33 641,-37.33 641,-26.67 641,-26.67 641,-21.33 646.33,-16 651.67,-16"/>
<text text-anchor="start" x="652" y="-28.3" font-family="Helvetica,sans-Serif" font-size="14.00">0</text>
<path fill="none" stroke="black" d="M651.67,-16C651.67,-16 662.33,-16 662.33,-16 667.67,-16 673,-21.33 673,-26.67 673,-26.67 673,-37.33 673,-37.33 673,-42.67 667.67,-48 662.33,-48 662.33,-48 651.67,-48 651.67,-48 646.33,-48 641,-42.67 641,-37.33 641,-37.33 641,-26.67 641,-26.67 641,-21.33 646.33,-16 651.67,-16"/>
</a>
</g>
</g>
<!-- function&#45;0&#45;Beq -->
<g id="node13" class="node">
<title>function&#45;0&#45;Beq</title>
<g id="a_node13"><a xlink:title="Inst&#45;20: function&#45;0&#45;Beq">
<path fill="white" stroke="transparent" d="M418.67,-253C418.67,-253 435.33,-253 435.33,-253 440.67,-253 446,-258.33 446,-263.67 446,-263.67 446,-274.33 446,-274.33 446,-279.67 440.67,-285 435.33,-285 435.33,-285 418.67,-285 418.67,-285 413.33,-285 408,-279.67 408,-274.33 408,-274.33 408,-263.67 408,-263.67 408,-258.33 413.33,-253 418.67,-253"/>
<text text-anchor="start" x="413" y="-265.3" font-family="Helvetica,sans-Serif" font-size="14.00">Beq</text>
<path fill="none" stroke="black" d="M418.67,-253C418.67,-253 435.33,-253 435.33,-253 440.67,-253 446,-258.33 446,-263.67 446,-263.67 446,-274.33 446,-274.33 446,-279.67 440.67,-285 435.33,-285 435.33,-285 418.67,-285 418.67,-285 413.33,-285 408,-279.67 408,-274.33 408,-274.33 408,-263.67 408,-263.67 408,-258.33 413.33,-253 418.67,-253"/>
</a>
</g>
</g>
<!-- function&#45;0&#45;Addi -->
<g id="node14" class="node">
<title>function&#45;0&#45;Addi</title>
<g id="a_node14"><a xlink:title="Inst&#45;16: function&#45;0&#45;Addi">
<path fill="white" stroke="transparent" d="M406.17,-174C406.17,-174 425.83,-174 425.83,-174 431.17,-174 436.5,-179.33 436.5,-184.67 436.5,-184.67 436.5,-195.33 436.5,-195.33 436.5,-200.67 431.17,-206 425.83,-206 425.83,-206 406.17,-206 406.17,-206 400.83,-206 395.5,-200.67 395.5,-195.33 395.5,-195.33 395.5,-184.67 395.5,-184.67 395.5,-179.33 400.83,-174 406.17,-174"/>
<text text-anchor="start" x="401" y="-186.3" font-family="Helvetica,sans-Serif" font-size="14.00">Addi</text>
<path fill="none" stroke="black" d="M406.17,-174C406.17,-174 425.83,-174 425.83,-174 431.17,-174 436.5,-179.33 436.5,-184.67 436.5,-184.67 436.5,-195.33 436.5,-195.33 436.5,-200.67 431.17,-206 425.83,-206 425.83,-206 406.17,-206 406.17,-206 400.83,-206 395.5,-200.67 395.5,-195.33 395.5,-195.33 395.5,-184.67 395.5,-184.67 395.5,-179.33 400.83,-174 406.17,-174"/>
</a>
</g>
</g>
<!-- function&#45;0&#45;RegVal -->
<g id="node15" class="node">
<title>function&#45;0&#45;RegVal</title>
<g id="a_node15"><a xlink:title="Inst&#45;0: function&#45;0&#45;RegVal">
<path fill="white" stroke="transparent" d="M158.17,-174C158.17,-174 193.83,-174 193.83,-174 199.17,-174 204.5,-179.33 204.5,-184.67 204.5,-184.67 204.5,-195.33 204.5,-195.33 204.5,-200.67 199.17,-206 193.83,-206 193.83,-206 158.17,-206 158.17,-206 152.83,-206 147.5,-200.67 147.5,-195.33 147.5,-195.33 147.5,-184.67 147.5,-184.67 147.5,-179.33 152.83,-174 158.17,-174"/>
<text text-anchor="start" x="153" y="-186.3" font-family="Helvetica,sans-Serif" font-size="14.00">RegVal</text>
<path fill="none" stroke="black" d="M158.17,-174C158.17,-174 193.83,-174 193.83,-174 199.17,-174 204.5,-179.33 204.5,-184.67 204.5,-184.67 204.5,-195.33 204.5,-195.33 204.5,-200.67 199.17,-206 193.83,-206 193.83,-206 158.17,-206 158.17,-206 152.83,-206 147.5,-200.67 147.5,-195.33 147.5,-195.33 147.5,-184.67 147.5,-184.67 147.5,-179.33 152.83,-174 158.17,-174"/>
</a>
</g>
</g>
<!-- function&#45;1&#45;Beq -->
<g id="node16" class="node">
<title>function&#45;1&#45;Beq</title>
<g id="a_node16"><a xlink:title="Inst&#45;20: function&#45;1&#45;Beq">
<path fill="white" stroke="transparent" d="M360.67,-253C360.67,-253 377.33,-253 377.33,-253 382.67,-253 388,-258.33 388,-263.67 388,-263.67 388,-274.33 388,-274.33 388,-279.67 382.67,-285 377.33,-285 377.33,-285 360.67,-285 360.67,-285 355.33,-285 350,-279.67 350,-274.33 350,-274.33 350,-263.67 350,-263.67 350,-258.33 355.33,-253 360.67,-253"/>
<text text-anchor="start" x="355" y="-265.3" font-family="Helvetica,sans-Serif" font-size="14.00">Beq</text>
<path fill="none" stroke="black" d="M360.67,-253C360.67,-253 377.33,-253 377.33,-253 382.67,-253 388,-258.33 388,-263.67 388,-263.67 388,-274.33 388,-274.33 388,-279.67 382.67,-285 377.33,-285 377.33,-285 360.67,-285 360.67,-285 355.33,-285 350,-279.67 350,-274.33 350,-274.33 350,-263.67 350,-263.67 350,-258.33 355.33,-253 360.67,-253"/>
</a>
</g>
</g>
<!-- function&#45;1&#45;Seq2 -->
<g id="node17" class="node">
<title>function&#45;1&#45;Seq2</title>
<g id="a_node17"><a xlink:title="Inst&#45;20: function&#45;1&#45;Seq2">
<path fill="white" stroke="transparent" d="M298.67,-253C298.67,-253 323.33,-253 323.33,-253 328.67,-253 334,-258.33 334,-263.67 334,-263.67 334,-274.33 334,-274.33 334,-279.67 328.67,-285 323.33,-285 323.33,-285 298.67,-285 298.67,-285 293.33,-285 288,-279.67 288,-274.33 288,-274.33 288,-263.67 288,-263.67 288,-258.33 293.33,-253 298.67,-253"/>
<text text-anchor="start" x="293" y="-265.3" font-family="Helvetica,sans-Serif" font-size="14.00">Seq2</text>
<path fill="none" stroke="black" d="M298.67,-253C298.67,-253 323.33,-253 323.33,-253 328.67,-253 334,-258.33 334,-263.67 334,-263.67 334,-274.33 334,-274.33 334,-279.67 328.67,-285 323.33,-285 323.33,-285 298.67,-285 298.67,-285 293.33,-285 288,-279.67 288,-274.33 288,-274.33 288,-263.67 288,-263.67 288,-258.33 293.33,-253 298.67,-253"/>
</a>
</g>
</g>
<!-- function&#45;2&#45;Bne -->
<g id="node18" class="node">
<title>function&#45;2&#45;Bne</title>
<g id="a_node18"><a xlink:title="Inst&#45;22: function&#45;2&#45;Bne">
<path fill="white" stroke="transparent" d="M178.67,-253C178.67,-253 195.33,-253 195.33,-253 200.67,-253 206,-258.33 206,-263.67 206,-263.67 206,-274.33 206,-274.33 206,-279.67 200.67,-285 195.33,-285 195.33,-285 178.67,-285 178.67,-285 173.33,-285 168,-279.67 168,-274.33 168,-274.33 168,-263.67 168,-263.67 168,-258.33 173.33,-253 178.67,-253"/>
<text text-anchor="start" x="173" y="-265.3" font-family="Helvetica,sans-Serif" font-size="14.00">Bne</text>
<path fill="none" stroke="black" d="M178.67,-253C178.67,-253 195.33,-253 195.33,-253 200.67,-253 206,-258.33 206,-263.67 206,-263.67 206,-274.33 206,-274.33 206,-279.67 200.67,-285 195.33,-285 195.33,-285 178.67,-285 178.67,-285 173.33,-285 168,-279.67 168,-274.33 168,-274.33 168,-263.67 168,-263.67 168,-258.33 173.33,-253 178.67,-253"/>
</a>
</g>
</g>
<!-- function&#45;1&#45;Jal -->
<g id="node19" class="node">
<title>function&#45;1&#45;Jal</title>
<g id="a_node19"><a xlink:title="Inst&#45;23: function&#45;1&#45;Jal">
<path fill="white" stroke="transparent" d="M316.67,-174C316.67,-174 327.33,-174 327.33,-174 332.67,-174 338,-179.33 338,-184.67 338,-184.67 338,-195.33 338,-195.33 338,-200.67 332.67,-206 327.33,-206 327.33,-206 316.67,-206 316.67,-206 311.33,-206 306,-200.67 306,-195.33 306,-195.33 306,-184.67 306,-184.67 306,-179.33 311.33,-174 316.67,-174"/>
<text text-anchor="start" x="313.5" y="-186.3" font-family="Helvetica,sans-Serif" font-size="14.00">Jal</text>
<path fill="none" stroke="black" d="M316.67,-174C316.67,-174 327.33,-174 327.33,-174 332.67,-174 338,-179.33 338,-184.67 338,-184.67 338,-195.33 338,-195.33 338,-200.67 332.67,-206 327.33,-206 327.33,-206 316.67,-206 316.67,-206 311.33,-206 306,-200.67 306,-195.33 306,-195.33 306,-184.67 306,-184.67 306,-179.33 311.33,-174 316.67,-174"/>
</a>
</g>
</g>
<!-- function&#45;0&#45;Bne -->
<g id="node20" class="node">
<title>function&#45;0&#45;Bne</title>
<g id="a_node20"><a xlink:title="Inst&#45;19: function&#45;0&#45;Bne">
<path fill="white" stroke="transparent" d="M418.67,-332C418.67,-332 435.33,-332 435.33,-332 440.67,-332 446,-337.33 446,-342.67 446,-342.67 446,-353.33 446,-353.33 446,-358.67 440.67,-364 435.33,-364 435.33,-364 418.67,-364 418.67,-364 413.33,-364 408,-358.67 408,-353.33 408,-353.33 408,-342.67 408,-342.67 408,-337.33 413.33,-332 418.67,-332"/>
<text text-anchor="start" x="413" y="-344.3" font-family="Helvetica,sans-Serif" font-size="14.00">Bne</text>
<path fill="none" stroke="black" d="M418.67,-332C418.67,-332 435.33,-332 435.33,-332 440.67,-332 446,-337.33 446,-342.67 446,-342.67 446,-353.33 446,-353.33 446,-358.67 440.67,-364 435.33,-364 435.33,-364 418.67,-364 418.67,-364 413.33,-364 408,-358.67 408,-353.33 408,-353.33 408,-342.67 408,-342.67 408,-337.33 413.33,-332 418.67,-332"/>
</a>
</g>
</g>
<!-- function&#45;1&#45;Bne -->
<g id="node21" class="node">
<title>function&#45;1&#45;Bne</title>
<g id="a_node21"><a xlink:title="Inst&#45;19: function&#45;1&#45;Bne">
<path fill="white" stroke="transparent" d="M534.67,-332C534.67,-332 551.33,-332 551.33,-332 556.67,-332 562,-337.33 562,-342.67 562,-342.67 562,-353.33 562,-353.33 562,-358.67 556.67,-364 551.33,-364 551.33,-364 534.67,-364 534.67,-364 529.33,-364 524,-358.67 524,-353.33 524,-353.33 524,-342.67 524,-342.67 524,-337.33 529.33,-332 534.67,-332"/>
<text text-anchor="start" x="529" y="-344.3" font-family="Helvetica,sans-Serif" font-size="14.00">Bne</text>
<path fill="none" stroke="black" d="M534.67,-332C534.67,-332 551.33,-332 551.33,-332 556.67,-332 562,-337.33 562,-342.67 562,-342.67 562,-353.33 562,-353.33 562,-358.67 556.67,-364 551.33,-364 551.33,-364 534.67,-364 534.67,-364 529.33,-364 524,-358.67 524,-353.33 524,-353.33 524,-342.67 524,-342.67 524,-337.33 529.33,-332 534.67,-332"/>
</a>
</g>
</g>
<!-- function&#45;0&#45;Seq2 -->
<g id="node22" class="node">
<title>function&#45;0&#45;Seq2</title>
<g id="a_node22"><a xlink:title="Inst&#45;19: function&#45;0&#45;Seq2">
<path fill="white" stroke="transparent" d="M472.67,-332C472.67,-332 497.33,-332 497.33,-332 502.67,-332 508,-337.33 508,-342.67 508,-342.67 508,-353.33 508,-353.33 508,-358.67 502.67,-364 497.33,-364 497.33,-364 472.67,-364 472.67,-364 467.33,-364 462,-358.67 462,-353.33 462,-353.33 462,-342.67 462,-342.67 462,-337.33 467.33,-332 472.67,-332"/>
<text text-anchor="start" x="467" y="-344.3" font-family="Helvetica,sans-Serif" font-size="14.00">Seq2</text>
<path fill="none" stroke="black" d="M472.67,-332C472.67,-332 497.33,-332 497.33,-332 502.67,-332 508,-337.33 508,-342.67 508,-342.67 508,-353.33 508,-353.33 508,-358.67 502.67,-364 497.33,-364 497.33,-364 472.67,-364 472.67,-364 467.33,-364 462,-358.67 462,-353.33 462,-353.33 462,-342.67 462,-342.67 462,-337.33 467.33,-332 472.67,-332"/>
</a>
</g>
</g>
<!-- function&#45;0&#45;Jal -->
<g id="node23" class="node">
<title>function&#45;0&#45;Jal</title>
<g id="a_node23"><a xlink:title="Inst&#45;21: function&#45;0&#45;Jal">
<path fill="white" stroke="transparent" d="M707.67,-253C707.67,-253 718.33,-253 718.33,-253 723.67,-253 729,-258.33 729,-263.67 729,-263.67 729,-274.33 729,-274.33 729,-279.67 723.67,-285 718.33,-285 718.33,-285 707.67,-285 707.67,-285 702.33,-285 697,-279.67 697,-274.33 697,-274.33 697,-263.67 697,-263.67 697,-258.33 702.33,-253 707.67,-253"/>
<text text-anchor="start" x="704.5" y="-265.3" font-family="Helvetica,sans-Serif" font-size="14.00">Jal</text>
<path fill="none" stroke="black" d="M707.67,-253C707.67,-253 718.33,-253 718.33,-253 723.67,-253 729,-258.33 729,-263.67 729,-263.67 729,-274.33 729,-274.33 729,-279.67 723.67,-285 718.33,-285 718.33,-285 707.67,-285 707.67,-285 702.33,-285 697,-279.67 697,-274.33 697,-274.33 697,-263.67 697,-263.67 697,-258.33 702.33,-253 707.67,-253"/>
</a>
</g>
</g>
<!-- function&#45;1&#45;RegVal -->
<g id="node24" class="node">
<title>function&#45;1&#45;RegVal</title>
<g id="a_node24"><a xlink:title="Inst&#45;1: function&#45;1&#45;RegVal">
<path fill="white" stroke="transparent" d="M556.17,-174C556.17,-174 591.83,-174 591.83,-174 597.17,-174 602.5,-179.33 602.5,-184.67 602.5,-184.67 602.5,-195.33 602.5,-195.33 602.5,-200.67 597.17,-206 591.83,-206 591.83,-206 556.17,-206 556.17,-206 550.83,-206 545.5,-200.67 545.5,-195.33 545.5,-195.33 545.5,-184.67 545.5,-184.67 545.5,-179.33 550.83,-174 556.17,-174"/>
<text text-anchor="start" x="551" y="-186.3" font-family="Helvetica,sans-Serif" font-size="14.00">RegVal</text>
<path fill="none" stroke="black" d="M556.17,-174C556.17,-174 591.83,-174 591.83,-174 597.17,-174 602.5,-179.33 602.5,-184.67 602.5,-184.67 602.5,-195.33 602.5,-195.33 602.5,-200.67 597.17,-206 591.83,-206 591.83,-206 556.17,-206 556.17,-206 550.83,-206 545.5,-200.67 545.5,-195.33 545.5,-195.33 545.5,-184.67 545.5,-184.67 545.5,-179.33 550.83,-174 556.17,-174"/>
</a>
</g>
</g>
<!-- primitive&#45;String&#45;1 -->
<g id="node25" class="node">
<title>primitive&#45;String&#45;1</title>
<g id="a_node25"><a xlink:title="String&#45;1: primitive&#45;String&#45;1">
<path fill="white" stroke="transparent" d="M557.17,-95C557.17,-95 592.83,-95 592.83,-95 598.17,-95 603.5,-100.33 603.5,-105.67 603.5,-105.67 603.5,-116.33 603.5,-116.33 603.5,-121.67 598.17,-127 592.83,-127 592.83,-127 557.17,-127 557.17,-127 551.83,-127 546.5,-121.67 546.5,-116.33 546.5,-116.33 546.5,-105.67 546.5,-105.67 546.5,-100.33 551.83,-95 557.17,-95"/>
<text text-anchor="start" x="552" y="-107.3" font-family="Helvetica,sans-Serif" font-size="14.00">&quot;a4_0&quot;</text>
<path fill="none" stroke="black" d="M557.17,-95C557.17,-95 592.83,-95 592.83,-95 598.17,-95 603.5,-100.33 603.5,-105.67 603.5,-105.67 603.5,-116.33 603.5,-116.33 603.5,-121.67 598.17,-127 592.83,-127 592.83,-127 557.17,-127 557.17,-127 551.83,-127 546.5,-121.67 546.5,-116.33 546.5,-116.33 546.5,-105.67 546.5,-105.67 546.5,-100.33 551.83,-95 557.17,-95"/>
</a>
</g>
</g>
<!-- function&#45;3&#45;Lw -->
<g id="node26" class="node">
<title>function&#45;3&#45;Lw</title>
<g id="a_node26"><a xlink:title="Inst&#45;10: function&#45;3&#45;Lw">
<path fill="white" stroke="transparent" d="M85.67,-174C85.67,-174 96.33,-174 96.33,-174 101.67,-174 107,-179.33 107,-184.67 107,-184.67 107,-195.33 107,-195.33 107,-200.67 101.67,-206 96.33,-206 96.33,-206 85.67,-206 85.67,-206 80.33,-206 75,-200.67 75,-195.33 75,-195.33 75,-184.67 75,-184.67 75,-179.33 80.33,-174 85.67,-174"/>
<text text-anchor="start" x="81.5" y="-186.3" font-family="Helvetica,sans-Serif" font-size="14.00">Lw</text>
<path fill="none" stroke="black" d="M85.67,-174C85.67,-174 96.33,-174 96.33,-174 101.67,-174 107,-179.33 107,-184.67 107,-184.67 107,-195.33 107,-195.33 107,-200.67 101.67,-206 96.33,-206 96.33,-206 85.67,-206 85.67,-206 80.33,-206 75,-200.67 75,-195.33 75,-195.33 75,-184.67 75,-184.67 75,-179.33 80.33,-174 85.67,-174"/>
</a>
</g>
</g>
<!-- function&#45;2&#45;RegVal -->
<g id="node27" class="node">
<title>function&#45;2&#45;RegVal</title>
<g id="a_node27"><a xlink:title="Inst&#45;2: function&#45;2&#45;RegVal">
<path fill="white" stroke="transparent" d="M487.17,-95C487.17,-95 522.83,-95 522.83,-95 528.17,-95 533.5,-100.33 533.5,-105.67 533.5,-105.67 533.5,-116.33 533.5,-116.33 533.5,-121.67 528.17,-127 522.83,-127 522.83,-127 487.17,-127 487.17,-127 481.83,-127 476.5,-121.67 476.5,-116.33 476.5,-116.33 476.5,-105.67 476.5,-105.67 476.5,-100.33 481.83,-95 487.17,-95"/>
<text text-anchor="start" x="482" y="-107.3" font-family="Helvetica,sans-Serif" font-size="14.00">RegVal</text>
<path fill="none" stroke="black" d="M487.17,-95C487.17,-95 522.83,-95 522.83,-95 528.17,-95 533.5,-100.33 533.5,-105.67 533.5,-105.67 533.5,-116.33 533.5,-116.33 533.5,-121.67 528.17,-127 522.83,-127 522.83,-127 487.17,-127 487.17,-127 481.83,-127 476.5,-121.67 476.5,-116.33 476.5,-116.33 476.5,-105.67 476.5,-105.67 476.5,-100.33 481.83,-95 487.17,-95"/>
</a>
</g>
</g>
<!-- primitive&#45;String&#45;0 -->
<g id="node28" class="node">
<title>primitive&#45;String&#45;0</title>
<g id="a_node28"><a xlink:title="String&#45;0: primitive&#45;String&#45;0">
<path fill="white" stroke="transparent" d="M159.17,-95C159.17,-95 194.83,-95 194.83,-95 200.17,-95 205.5,-100.33 205.5,-105.67 205.5,-105.67 205.5,-116.33 205.5,-116.33 205.5,-121.67 200.17,-127 194.83,-127 194.83,-127 159.17,-127 159.17,-127 153.83,-127 148.5,-121.67 148.5,-116.33 148.5,-116.33 148.5,-105.67 148.5,-105.67 148.5,-100.33 153.83,-95 159.17,-95"/>
<text text-anchor="start" x="154" y="-107.3" font-family="Helvetica,sans-Serif" font-size="14.00">&quot;a3_0&quot;</text>
<path fill="none" stroke="black" d="M159.17,-95C159.17,-95 194.83,-95 194.83,-95 200.17,-95 205.5,-100.33 205.5,-105.67 205.5,-105.67 205.5,-116.33 205.5,-116.33 205.5,-121.67 200.17,-127 194.83,-127 194.83,-127 159.17,-127 159.17,-127 153.83,-127 148.5,-121.67 148.5,-116.33 148.5,-116.33 148.5,-105.67 148.5,-105.67 148.5,-100.33 153.83,-95 159.17,-95"/>
</a>
</g>
</g>
<!-- function&#45;1&#45;Sw -->
<g id="node29" class="node">
<title>function&#45;1&#45;Sw</title>
<g id="a_node29"><a xlink:title="Inst&#45;12: function&#45;1&#45;Sw">
<path fill="white" stroke="transparent" d="M509.67,-253C509.67,-253 520.33,-253 520.33,-253 525.67,-253 531,-258.33 531,-263.67 531,-263.67 531,-274.33 531,-274.33 531,-279.67 525.67,-285 520.33,-285 520.33,-285 509.67,-285 509.67,-285 504.33,-285 499,-279.67 499,-274.33 499,-274.33 499,-263.67 499,-263.67 499,-258.33 504.33,-253 509.67,-253"/>
<text text-anchor="start" x="504.5" y="-265.3" font-family="Helvetica,sans-Serif" font-size="14.00">Sw</text>
<path fill="none" stroke="black" d="M509.67,-253C509.67,-253 520.33,-253 520.33,-253 525.67,-253 531,-258.33 531,-263.67 531,-263.67 531,-274.33 531,-274.33 531,-279.67 525.67,-285 520.33,-285 520.33,-285 509.67,-285 509.67,-285 504.33,-285 499,-279.67 499,-274.33 499,-274.33 499,-263.67 499,-263.67 499,-258.33 504.33,-253 509.67,-253"/>
</a>
</g>
</g>
<!-- function&#45;1&#45;Lw -->
<g id="node30" class="node">
<title>function&#45;1&#45;Lw</title>
<g id="a_node30"><a xlink:title="Inst&#45;6: function&#45;1&#45;Lw">
<path fill="white" stroke="transparent" d="M488.67,-174C488.67,-174 499.33,-174 499.33,-174 504.67,-174 510,-179.33 510,-184.67 510,-184.67 510,-195.33 510,-195.33 510,-200.67 504.67,-206 499.33,-206 499.33,-206 488.67,-206 488.67,-206 483.33,-206 478,-200.67 478,-195.33 478,-195.33 478,-184.67 478,-184.67 478,-179.33 483.33,-174 488.67,-174"/>
<text text-anchor="start" x="484.5" y="-186.3" font-family="Helvetica,sans-Serif" font-size="14.00">Lw</text>
<path fill="none" stroke="black" d="M488.67,-174C488.67,-174 499.33,-174 499.33,-174 504.67,-174 510,-179.33 510,-184.67 510,-184.67 510,-195.33 510,-195.33 510,-200.67 504.67,-206 499.33,-206 499.33,-206 488.67,-206 488.67,-206 483.33,-206 478,-200.67 478,-195.33 478,-195.33 478,-184.67 478,-184.67 478,-179.33 483.33,-174 488.67,-174"/>
</a>
</g>
</g>
<!-- function&#45;0&#45;Sw -->
<g id="node31" class="node">
<title>function&#45;0&#45;Sw</title>
<g id="a_node31"><a xlink:title="Inst&#45;11: function&#45;0&#45;Sw">
<path fill="white" stroke="transparent" d="M641.67,-253C641.67,-253 652.33,-253 652.33,-253 657.67,-253 663,-258.33 663,-263.67 663,-263.67 663,-274.33 663,-274.33 663,-279.67 657.67,-285 652.33,-285 652.33,-285 641.67,-285 641.67,-285 636.33,-285 631,-279.67 631,-274.33 631,-274.33 631,-263.67 631,-263.67 631,-258.33 636.33,-253 641.67,-253"/>
<text text-anchor="start" x="636.5" y="-265.3" font-family="Helvetica,sans-Serif" font-size="14.00">Sw</text>
<path fill="none" stroke="black" d="M641.67,-253C641.67,-253 652.33,-253 652.33,-253 657.67,-253 663,-258.33 663,-263.67 663,-263.67 663,-274.33 663,-274.33 663,-279.67 657.67,-285 652.33,-285 652.33,-285 641.67,-285 641.67,-285 636.33,-285 631,-279.67 631,-274.33 631,-274.33 631,-263.67 631,-263.67 631,-258.33 636.33,-253 641.67,-253"/>
</a>
</g>
</g>
<!-- function&#45;0&#45;Lw -->
<g id="node32" class="node">
<title>function&#45;0&#45;Lw</title>
<g id="a_node32"><a xlink:title="Inst&#45;4: function&#45;0&#45;Lw">
<path fill="white" stroke="transparent" d="M636.67,-174C636.67,-174 647.33,-174 647.33,-174 652.67,-174 658,-179.33 658,-184.67 658,-184.67 658,-195.33 658,-195.33 658,-200.67 652.67,-206 647.33,-206 647.33,-206 636.67,-206 636.67,-206 631.33,-206 626,-200.67 626,-195.33 626,-195.33 626,-184.67 626,-184.67 626,-179.33 631.33,-174 636.67,-174"/>
<text text-anchor="start" x="632.5" y="-186.3" font-family="Helvetica,sans-Serif" font-size="14.00">Lw</text>
<path fill="none" stroke="black" d="M636.67,-174C636.67,-174 647.33,-174 647.33,-174 652.67,-174 658,-179.33 658,-184.67 658,-184.67 658,-195.33 658,-195.33 658,-200.67 652.67,-206 647.33,-206 647.33,-206 636.67,-206 636.67,-206 631.33,-206 626,-200.67 626,-195.33 626,-195.33 626,-184.67 626,-184.67 626,-179.33 631.33,-174 636.67,-174"/>
</a>
</g>
</g>
<!-- function&#45;2&#45;Lw -->
<g id="node33" class="node">
<title>function&#45;2&#45;Lw</title>
<g id="a_node33"><a xlink:title="Inst&#45;8: function&#45;2&#45;Lw">
<path fill="white" stroke="transparent" d="M804.67,-174C804.67,-174 815.33,-174 815.33,-174 820.67,-174 826,-179.33 826,-184.67 826,-184.67 826,-195.33 826,-195.33 826,-200.67 820.67,-206 815.33,-206 815.33,-206 804.67,-206 804.67,-206 799.33,-206 794,-200.67 794,-195.33 794,-195.33 794,-184.67 794,-184.67 794,-179.33 799.33,-174 804.67,-174"/>
<text text-anchor="start" x="800.5" y="-186.3" font-family="Helvetica,sans-Serif" font-size="14.00">Lw</text>
<path fill="none" stroke="black" d="M804.67,-174C804.67,-174 815.33,-174 815.33,-174 820.67,-174 826,-179.33 826,-184.67 826,-184.67 826,-195.33 826,-195.33 826,-200.67 820.67,-206 815.33,-206 815.33,-206 804.67,-206 804.67,-206 799.33,-206 794,-200.67 794,-195.33 794,-195.33 794,-184.67 794,-184.67 794,-179.33 799.33,-174 804.67,-174"/>
</a>
</g>
</g>
<!-- function&#45;3&#45;Bne -->
<g id="node34" class="node">
<title>function&#45;3&#45;Bne</title>
<g id="a_node34"><a xlink:title="Inst&#45;22: function&#45;3&#45;Bne">
<path fill="white" stroke="transparent" d="M120.67,-253C120.67,-253 137.33,-253 137.33,-253 142.67,-253 148,-258.33 148,-263.67 148,-263.67 148,-274.33 148,-274.33 148,-279.67 142.67,-285 137.33,-285 137.33,-285 120.67,-285 120.67,-285 115.33,-285 110,-279.67 110,-274.33 110,-274.33 110,-263.67 110,-263.67 110,-258.33 115.33,-253 120.67,-253"/>
<text text-anchor="start" x="115" y="-265.3" font-family="Helvetica,sans-Serif" font-size="14.00">Bne</text>
<path fill="none" stroke="black" d="M120.67,-253C120.67,-253 137.33,-253 137.33,-253 142.67,-253 148,-258.33 148,-263.67 148,-263.67 148,-274.33 148,-274.33 148,-279.67 142.67,-285 137.33,-285 137.33,-285 120.67,-285 120.67,-285 115.33,-285 110,-279.67 110,-274.33 110,-274.33 110,-263.67 110,-263.67 110,-258.33 115.33,-253 120.67,-253"/>
</a>
</g>
</g>
<!-- function&#45;2&#45;Seq2 -->
<g id="node35" class="node">
<title>function&#45;2&#45;Seq2</title>
<g id="a_node35"><a xlink:title="Inst&#45;22: function&#45;2&#45;Seq2">
<path fill="white" stroke="transparent" d="M232.67,-253C232.67,-253 257.33,-253 257.33,-253 262.67,-253 268,-258.33 268,-263.67 268,-263.67 268,-274.33 268,-274.33 268,-279.67 262.67,-285 257.33,-285 257.33,-285 232.67,-285 232.67,-285 227.33,-285 222,-279.67 222,-274.33 222,-274.33 222,-263.67 222,-263.67 222,-258.33 227.33,-253 232.67,-253"/>
<text text-anchor="start" x="227" y="-265.3" font-family="Helvetica,sans-Serif" font-size="14.00">Seq2</text>
<path fill="none" stroke="black" d="M232.67,-253C232.67,-253 257.33,-253 257.33,-253 262.67,-253 268,-258.33 268,-263.67 268,-263.67 268,-274.33 268,-274.33 268,-279.67 262.67,-285 257.33,-285 257.33,-285 232.67,-285 232.67,-285 227.33,-285 222,-279.67 222,-274.33 222,-274.33 222,-263.67 222,-263.67 222,-258.33 227.33,-253 232.67,-253"/>
</a>
</g>
</g>
<!-- function&#45;1&#45;Addi -->
<g id="node36" class="node">
<title>function&#45;1&#45;Addi</title>
<g id="a_node36"><a xlink:title="Inst&#45;17: function&#45;1&#45;Addi">
<path fill="white" stroke="transparent" d="M571.17,-253C571.17,-253 590.83,-253 590.83,-253 596.17,-253 601.5,-258.33 601.5,-263.67 601.5,-263.67 601.5,-274.33 601.5,-274.33 601.5,-279.67 596.17,-285 590.83,-285 590.83,-285 571.17,-285 571.17,-285 565.83,-285 560.5,-279.67 560.5,-274.33 560.5,-274.33 560.5,-263.67 560.5,-263.67 560.5,-258.33 565.83,-253 571.17,-253"/>
<text text-anchor="start" x="566" y="-265.3" font-family="Helvetica,sans-Serif" font-size="14.00">Addi</text>
<path fill="none" stroke="black" d="M571.17,-253C571.17,-253 590.83,-253 590.83,-253 596.17,-253 601.5,-258.33 601.5,-263.67 601.5,-263.67 601.5,-274.33 601.5,-274.33 601.5,-279.67 596.17,-285 590.83,-285 590.83,-285 571.17,-285 571.17,-285 565.83,-285 560.5,-279.67 560.5,-274.33 560.5,-274.33 560.5,-263.67 560.5,-263.67 560.5,-258.33 565.83,-253 571.17,-253"/>
</a>
</g>
</g>
<!-- function&#45;3&#45;Sw -->
<g id="node37" class="node">
<title>function&#45;3&#45;Sw</title>
<g id="a_node37"><a xlink:title="Inst&#45;14: function&#45;3&#45;Sw">
<path fill="white" stroke="transparent" d="M35.67,-253C35.67,-253 46.33,-253 46.33,-253 51.67,-253 57,-258.33 57,-263.67 57,-263.67 57,-274.33 57,-274.33 57,-279.67 51.67,-285 46.33,-285 46.33,-285 35.67,-285 35.67,-285 30.33,-285 25,-279.67 25,-274.33 25,-274.33 25,-263.67 25,-263.67 25,-258.33 30.33,-253 35.67,-253"/>
<text text-anchor="start" x="30.5" y="-265.3" font-family="Helvetica,sans-Serif" font-size="14.00">Sw</text>
<path fill="none" stroke="black" d="M35.67,-253C35.67,-253 46.33,-253 46.33,-253 51.67,-253 57,-258.33 57,-263.67 57,-263.67 57,-274.33 57,-274.33 57,-279.67 51.67,-285 46.33,-285 46.33,-285 35.67,-285 35.67,-285 30.33,-285 25,-279.67 25,-274.33 25,-274.33 25,-263.67 25,-263.67 25,-258.33 30.33,-253 35.67,-253"/>
</a>
</g>
</g>
<!-- primitive&#45;String&#45;2 -->
<g id="node38" class="node">
<title>primitive&#45;String&#45;2</title>
<g id="a_node38"><a xlink:title="String&#45;2: primitive&#45;String&#45;2">
<path fill="white" stroke="transparent" d="M488.17,-16C488.17,-16 523.83,-16 523.83,-16 529.17,-16 534.5,-21.33 534.5,-26.67 534.5,-26.67 534.5,-37.33 534.5,-37.33 534.5,-42.67 529.17,-48 523.83,-48 523.83,-48 488.17,-48 488.17,-48 482.83,-48 477.5,-42.67 477.5,-37.33 477.5,-37.33 477.5,-26.67 477.5,-26.67 477.5,-21.33 482.83,-16 488.17,-16"/>
<text text-anchor="start" x="483" y="-28.3" font-family="Helvetica,sans-Serif" font-size="14.00">&quot;a5_0&quot;</text>
<path fill="none" stroke="black" d="M488.17,-16C488.17,-16 523.83,-16 523.83,-16 529.17,-16 534.5,-21.33 534.5,-26.67 534.5,-26.67 534.5,-37.33 534.5,-37.33 534.5,-42.67 529.17,-48 523.83,-48 523.83,-48 488.17,-48 488.17,-48 482.83,-48 477.5,-42.67 477.5,-37.33 477.5,-37.33 477.5,-26.67 477.5,-26.67 477.5,-21.33 482.83,-16 488.17,-16"/>
</a>
</g>
</g>
<!-- function&#45;2&#45;Sw -->
<g id="node39" class="node">
<title>function&#45;2&#45;Sw</title>
<g id="a_node39"><a xlink:title="Inst&#45;13: function&#45;2&#45;Sw">
<path fill="white" stroke="transparent" d="M800.67,-253C800.67,-253 811.33,-253 811.33,-253 816.67,-253 822,-258.33 822,-263.67 822,-263.67 822,-274.33 822,-274.33 822,-279.67 816.67,-285 811.33,-285 811.33,-285 800.67,-285 800.67,-285 795.33,-285 790,-279.67 790,-274.33 790,-274.33 790,-263.67 790,-263.67 790,-258.33 795.33,-253 800.67,-253"/>
<text text-anchor="start" x="795.5" y="-265.3" font-family="Helvetica,sans-Serif" font-size="14.00">Sw</text>
<path fill="none" stroke="black" d="M800.67,-253C800.67,-253 811.33,-253 811.33,-253 816.67,-253 822,-258.33 822,-263.67 822,-263.67 822,-274.33 822,-274.33 822,-279.67 816.67,-285 811.33,-285 811.33,-285 800.67,-285 800.67,-285 795.33,-285 790,-279.67 790,-274.33 790,-274.33 790,-263.67 790,-263.67 790,-258.33 795.33,-253 800.67,-253"/>
</a>
</g>
</g>
</g>
</svg>
