<?xml version="1.0" encoding="UTF-8" standalone="no"?>
<!DOCTYPE svg PUBLIC "-//W3C//DTD SVG 1.1//EN"
 "http://www.w3.org/Graphics/SVG/1.1/DTD/svg11.dtd">
<!-- Generated by graphviz version 2.43.0 (0)
 -->
<!-- Title: %3 Pages: 1 -->
<svg width="981pt" height="388pt"
 viewBox="0.00 0.00 980.77 388.00" xmlns="http://www.w3.org/2000/svg" xmlns:xlink="http://www.w3.org/1999/xlink">
<g id="graph0" class="graph" transform="scale(1 1) rotate(0) translate(4 384)">
<title>%3</title>
<polygon fill="white" stroke="#000000" points="-4,4 -4,-384 976.77,-384 976.77,4 -4,4"/>
<g id="clust1" class="cluster">
<title>outer_cluster_Imm&#45;3</title>
</g>
<g id="clust2" class="cluster">
<title>cluster_Imm&#45;3</title>
<path fill="#ffffb3" stroke="black" stroke-dasharray="5,2" d="M905.77,-90C905.77,-90 949.77,-90 949.77,-90 955.77,-90 961.77,-96 961.77,-102 961.77,-102 961.77,-120 961.77,-120 961.77,-126 955.77,-132 949.77,-132 949.77,-132 905.77,-132 905.77,-132 899.77,-132 893.77,-126 893.77,-120 893.77,-120 893.77,-102 893.77,-102 893.77,-96 899.77,-90 905.77,-90"/>
</g>
<g id="clust4" class="cluster">
<title>outer_cluster_Imm&#45;7</title>
</g>
<g id="clust5" class="cluster">
<title>cluster_Imm&#45;7</title>
<path fill="#ffffb3" stroke="black" stroke-dasharray="5,2" d="M275.77,-90C275.77,-90 319.77,-90 319.77,-90 325.77,-90 331.77,-96 331.77,-102 331.77,-102 331.77,-120 331.77,-120 331.77,-126 325.77,-132 319.77,-132 319.77,-132 275.77,-132 275.77,-132 269.77,-132 263.77,-126 263.77,-120 263.77,-120 263.77,-102 263.77,-102 263.77,-96 269.77,-90 275.77,-90"/>
</g>
<g id="clust7" class="cluster">
<title>outer_cluster_Imm&#45;5</title>
</g>
<g id="clust8" class="cluster">
<title>cluster_Imm&#45;5</title>
<path fill="#ffffb3" stroke="black" stroke-dasharray="5,2" d="M770.77,-90C770.77,-90 814.77,-90 814.77,-90 820.77,-90 826.77,-96 826.77,-102 826.77,-102 826.77,-120 826.77,-120 826.77,-126 820.77,-132 814.77,-132 814.77,-132 770.77,-132 770.77,-132 764.77,-132 758.77,-126 758.77,-120 758.77,-120 758.77,-102 758.77,-102 758.77,-96 764.77,-90 770.77,-90"/>
</g>
<g id="clust10" class="cluster">
<title>outer_cluster_Imm&#45;12</title>
</g>
<g id="clust11" class="cluster">
<title>cluster_Imm&#45;12</title>
<path fill="#ffffb3" stroke="black" stroke-dasharray="5,2" d="M668.77,-169C668.77,-169 712.77,-169 712.77,-169 718.77,-169 724.77,-175 724.77,-181 724.77,-181 724.77,-199 724.77,-199 724.77,-205 718.77,-211 712.77,-211 712.77,-211 668.77,-211 668.77,-211 662.77,-211 656.77,-205 656.77,-199 656.77,-199 656.77,-181 656.77,-181 656.77,-175 662.77,-169 668.77,-169"/>
</g>
<g id="clust13" class="cluster">
<title>outer_cluster_Imm&#45;14</title>
</g>
<g id="clust14" class="cluster">
<title>cluster_Imm&#45;14</title>
<path fill="#ffffb3" stroke="black" stroke-dasharray="5,2" d="M349.77,-90C349.77,-90 393.77,-90 393.77,-90 399.77,-90 405.77,-96 405.77,-102 405.77,-102 405.77,-120 405.77,-120 405.77,-126 399.77,-132 393.77,-132 393.77,-132 349.77,-132 349.77,-132 343.77,-132 337.77,-126 337.77,-120 337.77,-120 337.77,-102 337.77,-102 337.77,-96 343.77,-90 349.77,-90"/>
</g>
<g id="clust16" class="cluster">
<title>outer_cluster_Imm&#45;17</title>
</g>
<g id="clust17" class="cluster">
<title>cluster_Imm&#45;17</title>
<path fill="#ffffb3" stroke="black" stroke-dasharray="5,2" d="M806.77,-248C806.77,-248 850.77,-248 850.77,-248 856.77,-248 862.77,-254 862.77,-260 862.77,-260 862.77,-278 862.77,-278 862.77,-284 856.77,-290 850.77,-290 850.77,-290 806.77,-290 806.77,-290 800.77,-290 794.77,-284 794.77,-278 794.77,-278 794.77,-260 794.77,-260 794.77,-254 800.77,-248 806.77,-248"/>
</g>
<g id="clust19" class="cluster">
<title>outer_cluster_Imm&#45;19</title>
</g>
<g id="clust20" class="cluster">
<title>cluster_Imm&#45;19</title>
<path fill="#ffffb3" stroke="black" stroke-dasharray="5,2" d="M406.77,-169C406.77,-169 466.77,-169 466.77,-169 472.77,-169 478.77,-175 478.77,-181 478.77,-181 478.77,-199 478.77,-199 478.77,-205 472.77,-211 466.77,-211 466.77,-211 406.77,-211 406.77,-211 400.77,-211 394.77,-205 394.77,-199 394.77,-199 394.77,-181 394.77,-181 394.77,-175 400.77,-169 406.77,-169"/>
</g>
<g id="clust22" class="cluster">
<title>outer_cluster_Inst&#45;24</title>
</g>
<g id="clust23" class="cluster">
<title>cluster_Inst&#45;24</title>
<path fill="#bebada" stroke="black" stroke-dasharray="5,2" d="M225.77,-169C225.77,-169 261.77,-169 261.77,-169 267.77,-169 273.77,-175 273.77,-181 273.77,-181 273.77,-199 273.77,-199 273.77,-205 267.77,-211 261.77,-211 261.77,-211 225.77,-211 225.77,-211 219.77,-211 213.77,-205 213.77,-199 213.77,-199 213.77,-181 213.77,-181 213.77,-175 219.77,-169 225.77,-169"/>
</g>
<g id="clust25" class="cluster">
<title>outer_cluster_Inst&#45;2</title>
</g>
<g id="clust26" class="cluster">
<title>cluster_Inst&#45;2</title>
<path fill="#bebada" stroke="black" stroke-dasharray="5,2" d="M627.77,-90C627.77,-90 667.77,-90 667.77,-90 673.77,-90 679.77,-96 679.77,-102 679.77,-102 679.77,-120 679.77,-120 679.77,-126 673.77,-132 667.77,-132 667.77,-132 627.77,-132 627.77,-132 621.77,-132 615.77,-126 615.77,-120 615.77,-120 615.77,-102 615.77,-102 615.77,-96 621.77,-90 627.77,-90"/>
</g>
<g id="clust28" class="cluster">
<title>outer_cluster_Inst&#45;15</title>
</g>
<g id="clust29" class="cluster">
<title>cluster_Inst&#45;15</title>
<path fill="#bebada" stroke="black" stroke-dasharray="5,2" d="M338.77,-169C338.77,-169 374.77,-169 374.77,-169 380.77,-169 386.77,-175 386.77,-181 386.77,-181 386.77,-199 386.77,-199 386.77,-205 380.77,-211 374.77,-211 374.77,-211 338.77,-211 338.77,-211 332.77,-211 326.77,-205 326.77,-199 326.77,-199 326.77,-181 326.77,-181 326.77,-175 332.77,-169 338.77,-169"/>
</g>
<g id="clust31" class="cluster">
<title>outer_cluster_Inst&#45;11</title>
</g>
<g id="clust32" class="cluster">
<title>cluster_Inst&#45;11</title>
<path fill="#bebada" stroke="black" stroke-dasharray="5,2" d="M506.77,-248C506.77,-248 542.77,-248 542.77,-248 548.77,-248 554.77,-254 554.77,-260 554.77,-260 554.77,-278 554.77,-278 554.77,-284 548.77,-290 542.77,-290 542.77,-290 506.77,-290 506.77,-290 500.77,-290 494.77,-284 494.77,-278 494.77,-278 494.77,-260 494.77,-260 494.77,-254 500.77,-248 506.77,-248"/>
</g>
<g id="clust34" class="cluster">
<title>outer_cluster_Inst&#45;8</title>
</g>
<g id="clust35" class="cluster">
<title>cluster_Inst&#45;8</title>
<path fill="#bebada" stroke="black" stroke-dasharray="5,2" d="M508.77,-169C508.77,-169 544.77,-169 544.77,-169 550.77,-169 556.77,-175 556.77,-181 556.77,-181 556.77,-199 556.77,-199 556.77,-205 550.77,-211 544.77,-211 544.77,-211 508.77,-211 508.77,-211 502.77,-211 496.77,-205 496.77,-199 496.77,-199 496.77,-181 496.77,-181 496.77,-175 502.77,-169 508.77,-169"/>
</g>
<g id="clust37" class="cluster">
<title>outer_cluster_Inst&#45;4</title>
</g>
<g id="clust38" class="cluster">
<title>cluster_Inst&#45;4</title>
<path fill="#bebada" stroke="black" stroke-dasharray="5,2" d="M886.77,-169C886.77,-169 922.77,-169 922.77,-169 928.77,-169 934.77,-175 934.77,-181 934.77,-181 934.77,-199 934.77,-199 934.77,-205 928.77,-211 922.77,-211 922.77,-211 886.77,-211 886.77,-211 880.77,-211 874.77,-205 874.77,-199 874.77,-199 874.77,-181 874.77,-181 874.77,-175 880.77,-169 886.77,-169"/>
</g>
<g id="clust40" class="cluster">
<title>outer_cluster_Inst&#45;20</title>
</g>
<g id="clust41" class="cluster">
<title>cluster_Inst&#45;20</title>
<path fill="#bebada" stroke="black" stroke-dasharray="5,2" d="M321.77,-327C321.77,-327 473.77,-327 473.77,-327 479.77,-327 485.77,-333 485.77,-339 485.77,-339 485.77,-357 485.77,-357 485.77,-363 479.77,-369 473.77,-369 473.77,-369 321.77,-369 321.77,-369 315.77,-369 309.77,-363 309.77,-357 309.77,-357 309.77,-339 309.77,-339 309.77,-333 315.77,-327 321.77,-327"/>
</g>
<g id="clust43" class="cluster">
<title>outer_cluster_Inst&#45;10</title>
</g>
<g id="clust44" class="cluster">
<title>cluster_Inst&#45;10</title>
<path fill="#bebada" stroke="black" stroke-dasharray="5,2" d="M738.77,-248C738.77,-248 774.77,-248 774.77,-248 780.77,-248 786.77,-254 786.77,-260 786.77,-260 786.77,-278 786.77,-278 786.77,-284 780.77,-290 774.77,-290 774.77,-290 738.77,-290 738.77,-290 732.77,-290 726.77,-284 726.77,-278 726.77,-278 726.77,-260 726.77,-260 726.77,-254 732.77,-248 738.77,-248"/>
</g>
<g id="clust46" class="cluster">
<title>outer_cluster_Inst&#45;1</title>
</g>
<g id="clust47" class="cluster">
<title>cluster_Inst&#45;1</title>
<path fill="#bebada" stroke="black" stroke-dasharray="5,2" d="M586.77,-169C586.77,-169 626.77,-169 626.77,-169 632.77,-169 638.77,-175 638.77,-181 638.77,-181 638.77,-199 638.77,-199 638.77,-205 632.77,-211 626.77,-211 626.77,-211 586.77,-211 586.77,-211 580.77,-211 574.77,-205 574.77,-199 574.77,-199 574.77,-181 574.77,-181 574.77,-175 580.77,-169 586.77,-169"/>
</g>
<g id="clust49" class="cluster">
<title>outer_cluster_Inst&#45;22</title>
</g>
<g id="clust50" class="cluster">
<title>cluster_Inst&#45;22</title>
<path fill="#bebada" stroke="black" stroke-dasharray="5,2" d="M418.77,-248C418.77,-248 454.77,-248 454.77,-248 460.77,-248 466.77,-254 466.77,-260 466.77,-260 466.77,-278 466.77,-278 466.77,-284 460.77,-290 454.77,-290 454.77,-290 418.77,-290 418.77,-290 412.77,-290 406.77,-284 406.77,-278 406.77,-278 406.77,-260 406.77,-260 406.77,-254 412.77,-248 418.77,-248"/>
</g>
<g id="clust52" class="cluster">
<title>outer_cluster_Inst&#45;6</title>
</g>
<g id="clust53" class="cluster">
<title>cluster_Inst&#45;6</title>
<path fill="#bebada" stroke="black" stroke-dasharray="5,2" d="M742.77,-169C742.77,-169 778.77,-169 778.77,-169 784.77,-169 790.77,-175 790.77,-181 790.77,-181 790.77,-199 790.77,-199 790.77,-205 784.77,-211 778.77,-211 778.77,-211 742.77,-211 742.77,-211 736.77,-211 730.77,-205 730.77,-199 730.77,-199 730.77,-181 730.77,-181 730.77,-175 736.77,-169 742.77,-169"/>
</g>
<g id="clust55" class="cluster">
<title>outer_cluster_Inst&#45;21</title>
</g>
<g id="clust56" class="cluster">
<title>cluster_Inst&#45;21</title>
<path fill="#bebada" stroke="black" stroke-dasharray="5,2" d="M214.77,-248C214.77,-248 366.77,-248 366.77,-248 372.77,-248 378.77,-254 378.77,-260 378.77,-260 378.77,-278 378.77,-278 378.77,-284 372.77,-290 366.77,-290 366.77,-290 214.77,-290 214.77,-290 208.77,-290 202.77,-284 202.77,-278 202.77,-278 202.77,-260 202.77,-260 202.77,-254 208.77,-248 214.77,-248"/>
</g>
<g id="clust58" class="cluster">
<title>outer_cluster_Inst&#45;13</title>
</g>
<g id="clust59" class="cluster">
<title>cluster_Inst&#45;13</title>
<path fill="#bebada" stroke="black" stroke-dasharray="5,2" d="M664.77,-248C664.77,-248 700.77,-248 700.77,-248 706.77,-248 712.77,-254 712.77,-260 712.77,-260 712.77,-278 712.77,-278 712.77,-284 706.77,-290 700.77,-290 700.77,-290 664.77,-290 664.77,-290 658.77,-290 652.77,-284 652.77,-278 652.77,-278 652.77,-260 652.77,-260 652.77,-254 658.77,-248 664.77,-248"/>
</g>
<g id="clust61" class="cluster">
<title>outer_cluster_Inst&#45;23</title>
</g>
<g id="clust62" class="cluster">
<title>cluster_Inst&#45;23</title>
<path fill="#bebada" stroke="black" stroke-dasharray="5,2" d="M32.77,-248C32.77,-248 184.77,-248 184.77,-248 190.77,-248 196.77,-254 196.77,-260 196.77,-260 196.77,-278 196.77,-278 196.77,-284 190.77,-290 184.77,-290 184.77,-290 32.77,-290 32.77,-290 26.77,-290 20.77,-284 20.77,-278 20.77,-278 20.77,-260 20.77,-260 20.77,-254 26.77,-248 32.77,-248"/>
</g>
<g id="clust64" class="cluster">
<title>outer_cluster_Inst&#45;9</title>
</g>
<g id="clust65" class="cluster">
<title>cluster_Inst&#45;9</title>
<path fill="#bebada" stroke="black" stroke-dasharray="5,2" d="M882.77,-248C882.77,-248 918.77,-248 918.77,-248 924.77,-248 930.77,-254 930.77,-260 930.77,-260 930.77,-278 930.77,-278 930.77,-284 924.77,-290 918.77,-290 918.77,-290 882.77,-290 882.77,-290 876.77,-290 870.77,-284 870.77,-278 870.77,-278 870.77,-260 870.77,-260 870.77,-254 876.77,-248 882.77,-248"/>
</g>
<g id="clust67" class="cluster">
<title>outer_cluster_Inst&#45;18</title>
</g>
<g id="clust68" class="cluster">
<title>cluster_Inst&#45;18</title>
<path fill="#bebada" stroke="black" stroke-dasharray="5,2" d="M660.77,-327C660.77,-327 696.77,-327 696.77,-327 702.77,-327 708.77,-333 708.77,-339 708.77,-339 708.77,-357 708.77,-357 708.77,-363 702.77,-369 696.77,-369 696.77,-369 660.77,-369 660.77,-369 654.77,-369 648.77,-363 648.77,-357 648.77,-357 648.77,-339 648.77,-339 648.77,-333 654.77,-327 660.77,-327"/>
</g>
<g id="clust70" class="cluster">
<title>outer_cluster_Inst&#45;16</title>
</g>
<g id="clust71" class="cluster">
<title>cluster_Inst&#45;16</title>
<path fill="#bebada" stroke="black" stroke-dasharray="5,2" d="M598.77,-248C598.77,-248 634.77,-248 634.77,-248 640.77,-248 646.77,-254 646.77,-260 646.77,-260 646.77,-278 646.77,-278 646.77,-284 640.77,-290 634.77,-290 634.77,-290 598.77,-290 598.77,-290 592.77,-290 586.77,-284 586.77,-278 586.77,-278 586.77,-260 586.77,-260 586.77,-254 592.77,-248 598.77,-248"/>
</g>
<g id="clust73" class="cluster">
<title>outer_cluster_Inst&#45;0</title>
</g>
<g id="clust74" class="cluster">
<title>cluster_Inst&#45;0</title>
<path fill="#bebada" stroke="black" stroke-dasharray="5,2" d="M39.77,-169C39.77,-169 79.77,-169 79.77,-169 85.77,-169 91.77,-175 91.77,-181 91.77,-181 91.77,-199 91.77,-199 91.77,-205 85.77,-211 79.77,-211 79.77,-211 39.77,-211 39.77,-211 33.77,-211 27.77,-205 27.77,-199 27.77,-199 27.77,-181 27.77,-181 27.77,-175 33.77,-169 39.77,-169"/>
</g>
<g id="clust76" class="cluster">
<title>outer_cluster_String&#45;4</title>
</g>
<g id="clust77" class="cluster">
<title>cluster_String&#45;4</title>
<path fill="#fb8072" stroke="black" stroke-dasharray="5,2" d="M423.77,-90C423.77,-90 459.77,-90 459.77,-90 465.77,-90 471.77,-96 471.77,-102 471.77,-102 471.77,-120 471.77,-120 471.77,-126 465.77,-132 459.77,-132 459.77,-132 423.77,-132 423.77,-132 417.77,-132 411.77,-126 411.77,-120 411.77,-120 411.77,-102 411.77,-102 411.77,-96 417.77,-90 423.77,-90"/>
</g>
<g id="clust79" class="cluster">
<title>outer_cluster_String&#45;2</title>
</g>
<g id="clust80" class="cluster">
<title>cluster_String&#45;2</title>
<path fill="#fb8072" stroke="black" stroke-dasharray="5,2" d="M557.77,-90C557.77,-90 597.77,-90 597.77,-90 603.77,-90 609.77,-96 609.77,-102 609.77,-102 609.77,-120 609.77,-120 609.77,-126 603.77,-132 597.77,-132 597.77,-132 557.77,-132 557.77,-132 551.77,-132 545.77,-126 545.77,-120 545.77,-120 545.77,-102 545.77,-102 545.77,-96 551.77,-90 557.77,-90"/>
</g>
<g id="clust82" class="cluster">
<title>outer_cluster_String&#45;3</title>
</g>
<g id="clust83" class="cluster">
<title>cluster_String&#45;3</title>
<path fill="#fb8072" stroke="black" stroke-dasharray="5,2" d="M628.77,-11C628.77,-11 668.77,-11 668.77,-11 674.77,-11 680.77,-17 680.77,-23 680.77,-23 680.77,-41 680.77,-41 680.77,-47 674.77,-53 668.77,-53 668.77,-53 628.77,-53 628.77,-53 622.77,-53 616.77,-47 616.77,-41 616.77,-41 616.77,-23 616.77,-23 616.77,-17 622.77,-11 628.77,-11"/>
</g>
<g id="clust85" class="cluster">
<title>outer_cluster_String&#45;1</title>
</g>
<g id="clust86" class="cluster">
<title>cluster_String&#45;1</title>
<path fill="#fb8072" stroke="black" stroke-dasharray="5,2" d="M40.77,-90C40.77,-90 80.77,-90 80.77,-90 86.77,-90 92.77,-96 92.77,-102 92.77,-102 92.77,-120 92.77,-120 92.77,-126 86.77,-132 80.77,-132 80.77,-132 40.77,-132 40.77,-132 34.77,-132 28.77,-126 28.77,-120 28.77,-120 28.77,-102 28.77,-102 28.77,-96 34.77,-90 40.77,-90"/>
</g>
<g id="clust88" class="cluster">
<title>outer_cluster_i64&#45;4</title>
</g>
<g id="clust89" class="cluster">
<title>cluster_i64&#45;4</title>
<path fill="#80b1d3" stroke="black" stroke-dasharray="5,2" d="M279.77,-11C279.77,-11 315.77,-11 315.77,-11 321.77,-11 327.77,-17 327.77,-23 327.77,-23 327.77,-41 327.77,-41 327.77,-47 321.77,-53 315.77,-53 315.77,-53 279.77,-53 279.77,-53 273.77,-53 267.77,-47 267.77,-41 267.77,-41 267.77,-23 267.77,-23 267.77,-17 273.77,-11 279.77,-11"/>
</g>
<g id="clust91" class="cluster">
<title>outer_cluster_i64&#45;12</title>
</g>
<g id="clust92" class="cluster">
<title>cluster_i64&#45;12</title>
<path fill="#80b1d3" stroke="black" stroke-dasharray="5,2" d="M697.77,-90C697.77,-90 733.77,-90 733.77,-90 739.77,-90 745.77,-96 745.77,-102 745.77,-102 745.77,-120 745.77,-120 745.77,-126 739.77,-132 733.77,-132 733.77,-132 697.77,-132 697.77,-132 691.77,-132 685.77,-126 685.77,-120 685.77,-120 685.77,-102 685.77,-102 685.77,-96 691.77,-90 697.77,-90"/>
</g>
<g id="clust94" class="cluster">
<title>outer_cluster_i64&#45;16</title>
</g>
<g id="clust95" class="cluster">
<title>cluster_i64&#45;16</title>
<path fill="#80b1d3" stroke="black" stroke-dasharray="5,2" d="M353.77,-11C353.77,-11 389.77,-11 389.77,-11 395.77,-11 401.77,-17 401.77,-23 401.77,-23 401.77,-41 401.77,-41 401.77,-47 395.77,-53 389.77,-53 389.77,-53 353.77,-53 353.77,-53 347.77,-53 341.77,-47 341.77,-41 341.77,-41 341.77,-23 341.77,-23 341.77,-17 347.77,-11 353.77,-11"/>
</g>
<g id="clust97" class="cluster">
<title>outer_cluster_i64&#45;2147483649</title>
</g>
<g id="clust98" class="cluster">
<title>cluster_i64&#45;2147483649</title>
<path fill="#80b1d3" stroke="black" stroke-dasharray="5,2" d="M820.77,-169C820.77,-169 856.77,-169 856.77,-169 862.77,-169 868.77,-175 868.77,-181 868.77,-181 868.77,-199 868.77,-199 868.77,-205 862.77,-211 856.77,-211 856.77,-211 820.77,-211 820.77,-211 814.77,-211 808.77,-205 808.77,-199 808.77,-199 808.77,-181 808.77,-181 808.77,-175 814.77,-169 820.77,-169"/>
</g>
<g id="clust100" class="cluster">
<title>outer_cluster_i64&#45;0</title>
</g>
<g id="clust101" class="cluster">
<title>cluster_i64&#45;0</title>
<path fill="#80b1d3" stroke="black" stroke-dasharray="5,2" d="M774.77,-11C774.77,-11 810.77,-11 810.77,-11 816.77,-11 822.77,-17 822.77,-23 822.77,-23 822.77,-41 822.77,-41 822.77,-47 816.77,-53 810.77,-53 810.77,-53 774.77,-53 774.77,-53 768.77,-53 762.77,-47 762.77,-41 762.77,-41 762.77,-23 762.77,-23 762.77,-17 768.77,-11 774.77,-11"/>
</g>
<g id="clust103" class="cluster">
<title>outer_cluster_i64&#45;8</title>
</g>
<g id="clust104" class="cluster">
<title>cluster_i64&#45;8</title>
<path fill="#80b1d3" stroke="black" stroke-dasharray="5,2" d="M909.77,-11C909.77,-11 945.77,-11 945.77,-11 951.77,-11 957.77,-17 957.77,-23 957.77,-23 957.77,-41 957.77,-41 957.77,-47 951.77,-53 945.77,-53 945.77,-53 909.77,-53 909.77,-53 903.77,-53 897.77,-47 897.77,-41 897.77,-41 897.77,-23 897.77,-23 897.77,-17 903.77,-11 909.77,-11"/>
</g>
<!-- function&#45;0&#45;ImmVal&#45;&gt;primitive&#45;i64&#45;8 -->
<g id="edge1" class="edge">
<title>function&#45;0&#45;ImmVal:s&#45;&gt;primitive&#45;i64&#45;8</title>
<path fill="none" stroke="black" d="M927.77,-95C927.77,-81.84 927.77,-67.11 927.77,-55.3"/>
<polygon fill="black" stroke="black" points="929.52,-58 927.77,-53 926.02,-58 929.52,-58"/>
</g>
<!-- function&#45;2&#45;ImmVal&#45;&gt;primitive&#45;i64&#45;4 -->
<g id="edge2" class="edge">
<title>function&#45;2&#45;ImmVal:s&#45;&gt;primitive&#45;i64&#45;4</title>
<path fill="none" stroke="black" d="M297.77,-95C297.77,-81.84 297.77,-67.11 297.77,-55.3"/>
<polygon fill="black" stroke="black" points="299.52,-58 297.77,-53 296.02,-58 299.52,-58"/>
</g>
<!-- function&#45;1&#45;ImmVal&#45;&gt;primitive&#45;i64&#45;0 -->
<g id="edge3" class="edge">
<title>function&#45;1&#45;ImmVal:s&#45;&gt;primitive&#45;i64&#45;0</title>
<path fill="none" stroke="black" d="M792.77,-95C792.77,-81.84 792.77,-67.11 792.77,-55.3"/>
<polygon fill="black" stroke="black" points="794.52,-58 792.77,-53 791.02,-58 794.52,-58"/>
</g>
<!-- function&#45;3&#45;ImmVal&#45;&gt;primitive&#45;i64&#45;12 -->
<g id="edge4" class="edge">
<title>function&#45;3&#45;ImmVal:s&#45;&gt;primitive&#45;i64&#45;12</title>
<path fill="none" stroke="black" d="M690.77,-174C690.77,-159.86 696.43,-145.14 702.37,-133.59"/>
<polygon fill="black" stroke="black" points="701.8,-136.93 703.73,-132 699.15,-134.65 701.8,-136.93"/>
</g>
<!-- function&#45;4&#45;ImmVal&#45;&gt;primitive&#45;i64&#45;16 -->
<g id="edge5" class="edge">
<title>function&#45;4&#45;ImmVal:s&#45;&gt;primitive&#45;i64&#45;16</title>
<path fill="none" stroke="black" d="M371.77,-95C371.77,-81.84 371.77,-67.11 371.77,-55.3"/>
<polygon fill="black" stroke="black" points="373.52,-58 371.77,-53 370.02,-58 373.52,-58"/>
</g>
<!-- function&#45;5&#45;ImmVal&#45;&gt;primitive&#45;i64&#45;2147483649 -->
<g id="edge6" class="edge">
<title>function&#45;5&#45;ImmVal:s&#45;&gt;primitive&#45;i64&#45;2147483649</title>
<path fill="none" stroke="black" d="M828.77,-253C828.77,-239.76 831.02,-225.14 833.39,-213.42"/>
<polygon fill="black" stroke="black" points="834.02,-216.28 834.47,-211 830.83,-214.84 834.02,-216.28"/>
</g>
<!-- function&#45;0&#45;ImmLabel&#45;&gt;primitive&#45;String&#45;4 -->
<g id="edge7" class="edge">
<title>function&#45;0&#45;ImmLabel:s&#45;&gt;primitive&#45;String&#45;4</title>
<path fill="none" stroke="black" d="M437.77,-174C437.77,-160.81 438.68,-146.08 439.64,-134.28"/>
<polygon fill="black" stroke="black" points="440.85,-137.24 440.08,-132 437.41,-136.58 440.85,-137.24"/>
</g>
<!-- function&#45;1&#45;Jal&#45;&gt;function&#45;2&#45;ImmVal -->
<g id="edge8" class="edge">
<title>function&#45;1&#45;Jal:s&#45;&gt;function&#45;2&#45;ImmVal</title>
<path fill="none" stroke="black" d="M243.77,-174C243.77,-157.46 254.84,-143.18 266.95,-132.52"/>
<polygon fill="black" stroke="black" points="264.27,-135.67 268.09,-132 262.81,-132.49 264.27,-135.67"/>
</g>
<!-- function&#45;2&#45;RegVal&#45;&gt;primitive&#45;String&#45;3 -->
<g id="edge9" class="edge">
<title>function&#45;2&#45;RegVal:s&#45;&gt;primitive&#45;String&#45;3</title>
<path fill="none" stroke="black" d="M648.77,-95C648.77,-81.84 648.77,-67.11 648.77,-55.3"/>
<polygon fill="black" stroke="black" points="650.52,-58 648.77,-53 647.02,-58 650.52,-58"/>
</g>
<!-- function&#45;0&#45;Addi&#45;&gt;function&#45;4&#45;ImmVal -->
<g id="edge11" class="edge">
<title>function&#45;0&#45;Addi:s&#45;&gt;function&#45;4&#45;ImmVal</title>
<path fill="none" stroke="black" d="M366.77,-174C366.77,-160.8 367.91,-146.06 369.1,-134.27"/>
<polygon fill="black" stroke="black" points="370.18,-137.27 369.65,-132 366.78,-136.45 370.18,-137.27"/>
</g>
<!-- function&#45;0&#45;Addi&#45;&gt;function&#45;2&#45;RegVal -->
<g id="edge10" class="edge">
<title>function&#45;0&#45;Addi:s&#45;&gt;function&#45;2&#45;RegVal</title>
<path fill="none" stroke="black" d="M346.77,-174C346.77,-114.7 555.04,-155.28 610.77,-135 611.51,-134.73 612.24,-134.45 612.98,-134.15"/>
<polygon fill="black" stroke="black" points="613.96,-135.63 617.82,-132 612.54,-132.43 613.96,-135.63"/>
</g>
<!-- function&#45;2&#45;Sw&#45;&gt;function&#45;2&#45;ImmVal -->
<g id="edge14" class="edge">
<title>function&#45;2&#45;Sw:s&#45;&gt;function&#45;2&#45;ImmVal</title>
<path fill="none" stroke="black" d="M535.77,-253C535.77,-228.17 508.96,-235.04 495.77,-214 483.83,-194.95 496.51,-181.02 479.77,-166 431.37,-122.57 397.33,-158.71 336.77,-135 336.06,-134.72 335.34,-134.43 334.63,-134.13"/>
<polygon fill="black" stroke="black" points="335.18,-132.46 329.9,-132 333.74,-135.65 335.18,-132.46"/>
</g>
<!-- function&#45;2&#45;Sw&#45;&gt;function&#45;1&#45;RegVal -->
<g id="edge12" class="edge">
<title>function&#45;2&#45;Sw:s&#45;&gt;function&#45;1&#45;RegVal</title>
<path fill="none" stroke="black" d="M516.77,-253C516.77,-238.8 547.54,-220.01 573.1,-206.85"/>
<polygon fill="black" stroke="black" points="572.04,-210 574.77,-205.46 569.81,-207.31 572.04,-210"/>
</g>
<!-- function&#45;2&#45;Sw&#45;&gt;function&#45;2&#45;Lw -->
<g id="edge13" class="edge">
<title>function&#45;2&#45;Sw:s&#45;&gt;function&#45;2&#45;Lw</title>
<path fill="none" stroke="black" d="M528.77,-253C528.77,-239.83 528.32,-225.1 527.84,-213.3"/>
<polygon fill="black" stroke="black" points="529.84,-215.81 527.62,-211 526.35,-216.14 529.84,-215.81"/>
</g>
<!-- function&#45;1&#45;RegVal&#45;&gt;primitive&#45;String&#45;2 -->
<g id="edge30" class="edge">
<title>function&#45;1&#45;RegVal:s&#45;&gt;primitive&#45;String&#45;2</title>
<path fill="none" stroke="black" d="M607.77,-174C607.77,-159.54 601.08,-144.9 594.01,-133.48"/>
<polygon fill="black" stroke="black" points="597.17,-133.81 592.19,-132 594.96,-136.52 597.17,-133.81"/>
</g>
<!-- function&#45;2&#45;Lw&#45;&gt;function&#45;2&#45;ImmVal -->
<g id="edge16" class="edge">
<title>function&#45;2&#45;Lw:s&#45;&gt;function&#45;2&#45;ImmVal</title>
<path fill="none" stroke="black" d="M534.77,-174C534.77,-129.15 378.68,-150.95 336.77,-135 336.05,-134.72 335.32,-134.43 334.59,-134.13"/>
<polygon fill="black" stroke="black" points="335.06,-132.43 329.78,-132 333.64,-135.63 335.06,-132.43"/>
</g>
<!-- function&#45;2&#45;Lw&#45;&gt;function&#45;2&#45;RegVal -->
<g id="edge15" class="edge">
<title>function&#45;2&#45;Lw:s&#45;&gt;function&#45;2&#45;RegVal</title>
<path fill="none" stroke="black" d="M518.77,-174C518.77,-129.59 571.35,-155.45 610.77,-135 611.11,-134.82 611.46,-134.64 611.8,-134.46"/>
<polygon fill="black" stroke="black" points="612.77,-135.92 616.33,-132 611.1,-132.85 612.77,-135.92"/>
</g>
<!-- function&#45;0&#45;Lw&#45;&gt;function&#45;0&#45;ImmVal -->
<g id="edge18" class="edge">
<title>function&#45;0&#45;Lw:s&#45;&gt;function&#45;0&#45;ImmVal</title>
<path fill="none" stroke="black" d="M912.77,-174C912.77,-160.43 916.21,-145.65 919.79,-133.93"/>
<polygon fill="black" stroke="black" points="919.58,-137 921.32,-132 916.84,-134.82 919.58,-137"/>
</g>
<!-- function&#45;0&#45;Lw&#45;&gt;function&#45;2&#45;RegVal -->
<g id="edge17" class="edge">
<title>function&#45;0&#45;Lw:s&#45;&gt;function&#45;2&#45;RegVal</title>
<path fill="none" stroke="black" d="M896.77,-174C896.77,-126.1 729.58,-151.92 684.77,-135 684.05,-134.73 683.33,-134.44 682.61,-134.14"/>
<polygon fill="black" stroke="black" points="683.15,-132.47 677.88,-132 681.71,-135.65 683.15,-132.47"/>
</g>
<!-- function&#45;0&#45;Bne&#45;&gt;function&#45;0&#45;ImmLabel -->
<g id="edge21" class="edge">
<title>function&#45;0&#45;Bne:s&#45;&gt;function&#45;0&#45;ImmLabel</title>
<path fill="none" stroke="black" d="M469.77,-332C469.77,-314.21 476.76,-310.67 478.77,-293 481.19,-271.8 485.7,-265.18 478.77,-245 474.59,-232.81 466.41,-221.25 458.37,-211.98"/>
<polygon fill="black" stroke="black" points="462.05,-212.4 456.94,-211 460.07,-215.28 462.05,-212.4"/>
</g>
<!-- function&#45;0&#45;Bne&#45;&gt;function&#45;0&#45;Addi -->
<g id="edge19" class="edge">
<title>function&#45;0&#45;Bne:s&#45;&gt;function&#45;0&#45;Addi</title>
<path fill="none" stroke="black" d="M446.77,-332C446.77,-306.85 419.26,-314.23 405.77,-293 393.71,-274.02 399.25,-265.39 389.77,-245 384.63,-233.94 377.74,-222.32 371.59,-212.7"/>
<polygon fill="black" stroke="black" points="374.64,-213.21 369.83,-211 372.21,-215.73 374.64,-213.21"/>
</g>
<!-- function&#45;0&#45;Bne&#45;&gt;function&#45;0&#45;RegVal -->
<g id="edge20" class="edge">
<title>function&#45;0&#45;Bne:s&#45;&gt;function&#45;0&#45;RegVal</title>
<path fill="none" stroke="black" d="M460.77,-332C460.77,-233.62 86.63,-365.17 19.77,-293 -1.4,-270.14 20.9,-234.78 39.71,-212.27"/>
<polygon fill="black" stroke="black" points="38.53,-215.6 41.17,-211 36.24,-212.95 38.53,-215.6"/>
</g>
<!-- function&#45;0&#45;RegVal&#45;&gt;primitive&#45;String&#45;1 -->
<g id="edge60" class="edge">
<title>function&#45;0&#45;RegVal:s&#45;&gt;primitive&#45;String&#45;1</title>
<path fill="none" stroke="black" d="M60.77,-174C60.77,-160.84 60.77,-146.11 60.77,-134.3"/>
<polygon fill="black" stroke="black" points="62.52,-137 60.77,-132 59.02,-137 62.52,-137"/>
</g>
<!-- function&#45;1&#45;Bne&#45;&gt;function&#45;0&#45;ImmLabel -->
<g id="edge24" class="edge">
<title>function&#45;1&#45;Bne:s&#45;&gt;function&#45;0&#45;ImmLabel</title>
<path fill="none" stroke="black" d="M411.77,-332C411.77,-301.67 453.73,-319.89 467.77,-293 481.37,-266.96 466.19,-234 452.69,-212.72"/>
<polygon fill="black" stroke="black" points="455.7,-213.12 450.85,-211 453.32,-215.69 455.7,-213.12"/>
</g>
<!-- function&#45;1&#45;Bne&#45;&gt;function&#45;0&#45;Addi -->
<g id="edge23" class="edge">
<title>function&#45;1&#45;Bne:s&#45;&gt;function&#45;0&#45;Addi</title>
<path fill="none" stroke="black" d="M402.77,-332C402.77,-322 383.02,-254.46 379.77,-245 376.08,-234.23 371.23,-222.58 366.93,-212.86"/>
<polygon fill="black" stroke="black" points="369.87,-214.49 365.88,-211 366.82,-216.21 369.87,-214.49"/>
</g>
<!-- function&#45;1&#45;Bne&#45;&gt;function&#45;0&#45;RegVal -->
<g id="edge22" class="edge">
<title>function&#45;1&#45;Bne:s&#45;&gt;function&#45;0&#45;RegVal</title>
<path fill="none" stroke="black" d="M388.77,-332C388.77,-247.11 66.15,-355.56 8.77,-293 -5.65,-277.28 0.89,-264.82 8.77,-245 13.86,-232.2 23.58,-220.68 33.18,-211.6"/>
<polygon fill="black" stroke="black" points="31.03,-215.39 33.99,-211 28.94,-212.58 31.03,-215.39"/>
</g>
<!-- function&#45;0&#45;Seq2&#45;&gt;function&#45;0&#45;Beq -->
<g id="edge25" class="edge">
<title>function&#45;0&#45;Seq2:s&#45;&gt;function&#45;0&#45;Beq</title>
<path fill="none" stroke="black" d="M328.77,-332C328.77,-318.24 333.29,-303.56 338.03,-291.94"/>
<polygon fill="black" stroke="black" points="338.26,-295.24 339.06,-290 335.17,-293.6 338.26,-295.24"/>
</g>
<!-- function&#45;0&#45;Seq2&#45;&gt;function&#45;0&#45;Jal -->
<g id="edge26" class="edge">
<title>function&#45;0&#45;Seq2:s&#45;&gt;function&#45;0&#45;Jal</title>
<path fill="none" stroke="black" d="M350.77,-332C350.77,-318.14 380.54,-299.12 405.05,-285.82"/>
<polygon fill="black" stroke="black" points="404.03,-288.94 406.77,-284.41 401.8,-286.23 404.03,-288.94"/>
</g>
<!-- function&#45;0&#45;Beq&#45;&gt;function&#45;2&#45;ImmVal -->
<g id="edge36" class="edge">
<title>function&#45;0&#45;Beq:s&#45;&gt;function&#45;2&#45;ImmVal</title>
<path fill="none" stroke="black" d="M362.77,-253C362.77,-229.11 337.51,-234.81 325.77,-214 311.49,-188.68 304.17,-155.67 300.65,-134.16"/>
<polygon fill="black" stroke="black" points="303.21,-136.12 299.88,-132 299.92,-137.3 303.21,-136.12"/>
</g>
<!-- function&#45;0&#45;Beq&#45;&gt;function&#45;0&#45;Addi -->
<g id="edge34" class="edge">
<title>function&#45;0&#45;Beq:s&#45;&gt;function&#45;0&#45;Addi</title>
<path fill="none" stroke="black" d="M339.77,-253C339.77,-239.33 343.66,-224.54 347.72,-212.84"/>
<polygon fill="black" stroke="black" points="348.23,-216.29 348.46,-211 344.98,-214.99 348.23,-216.29"/>
</g>
<!-- function&#45;0&#45;Beq&#45;&gt;function&#45;0&#45;RegVal -->
<g id="edge35" class="edge">
<title>function&#45;0&#45;Beq:s&#45;&gt;function&#45;0&#45;RegVal</title>
<path fill="none" stroke="black" d="M353.77,-253C353.77,-239.85 171.34,-208.95 93.89,-196.42"/>
<polygon fill="black" stroke="black" points="97.06,-195.83 91.77,-195.55 95.73,-199.07 97.06,-195.83"/>
</g>
<!-- function&#45;0&#45;Jal&#45;&gt;function&#45;0&#45;ImmLabel -->
<g id="edge31" class="edge">
<title>function&#45;0&#45;Jal:s&#45;&gt;function&#45;0&#45;ImmLabel</title>
<path fill="none" stroke="black" d="M436.77,-253C436.77,-239.84 436.77,-225.11 436.77,-213.3"/>
<polygon fill="black" stroke="black" points="438.52,-216 436.77,-211 435.02,-216 438.52,-216"/>
</g>
<!-- function&#45;1&#45;Sw&#45;&gt;function&#45;1&#45;ImmVal -->
<g id="edge29" class="edge">
<title>function&#45;1&#45;Sw:s&#45;&gt;function&#45;1&#45;ImmVal</title>
<path fill="none" stroke="black" d="M767.77,-253C767.77,-232.65 786.13,-233.56 791.77,-214 799.46,-187.33 798.11,-155.09 795.91,-134.09"/>
<polygon fill="black" stroke="black" points="798.34,-136.36 795.33,-132 794.97,-137.28 798.34,-136.36"/>
</g>
<!-- function&#45;1&#45;Sw&#45;&gt;function&#45;1&#45;RegVal -->
<g id="edge27" class="edge">
<title>function&#45;1&#45;Sw:s&#45;&gt;function&#45;1&#45;RegVal</title>
<path fill="none" stroke="black" d="M748.77,-253C748.77,-208.18 696.73,-232.19 655.77,-214 650.71,-211.75 645.38,-209.32 640.17,-206.91"/>
<polygon fill="black" stroke="black" points="643.7,-207.63 638.77,-205.7 641.42,-210.29 643.7,-207.63"/>
</g>
<!-- function&#45;1&#45;Sw&#45;&gt;function&#45;1&#45;Lw -->
<g id="edge28" class="edge">
<title>function&#45;1&#45;Sw:s&#45;&gt;function&#45;1&#45;Lw</title>
<path fill="none" stroke="black" d="M760.77,-253C760.77,-239.84 760.77,-225.11 760.77,-213.3"/>
<polygon fill="black" stroke="black" points="762.52,-216 760.77,-211 759.02,-216 762.52,-216"/>
</g>
<!-- function&#45;1&#45;Lw&#45;&gt;function&#45;1&#45;ImmVal -->
<g id="edge33" class="edge">
<title>function&#45;1&#45;Lw:s&#45;&gt;function&#45;1&#45;ImmVal</title>
<path fill="none" stroke="black" d="M768.77,-174C768.77,-160.06 774.11,-145.48 779.75,-133.96"/>
<polygon fill="black" stroke="black" points="779.66,-137.08 781.17,-132 776.82,-135.02 779.66,-137.08"/>
</g>
<!-- function&#45;1&#45;Lw&#45;&gt;function&#45;2&#45;RegVal -->
<g id="edge32" class="edge">
<title>function&#45;1&#45;Lw:s&#45;&gt;function&#45;2&#45;RegVal</title>
<path fill="none" stroke="black" d="M752.77,-174C752.77,-139.16 714.68,-152.87 684.77,-135 684.57,-134.88 684.36,-134.75 684.16,-134.63"/>
<polygon fill="black" stroke="black" points="684.96,-133.07 679.77,-131.99 683.15,-136.07 684.96,-133.07"/>
</g>
<!-- function&#45;1&#45;Beq&#45;&gt;function&#45;2&#45;ImmVal -->
<g id="edge39" class="edge">
<title>function&#45;1&#45;Beq:s&#45;&gt;function&#45;2&#45;ImmVal</title>
<path fill="none" stroke="black" d="M304.77,-253C304.77,-211.18 301.66,-162.47 299.59,-134.63"/>
<polygon fill="black" stroke="black" points="301.67,-136.68 299.19,-132 298.21,-137.21 301.67,-136.68"/>
</g>
<!-- function&#45;1&#45;Beq&#45;&gt;function&#45;0&#45;Addi -->
<g id="edge38" class="edge">
<title>function&#45;1&#45;Beq:s&#45;&gt;function&#45;0&#45;Addi</title>
<path fill="none" stroke="black" d="M295.77,-253C295.77,-234.09 310.37,-218.85 325.28,-208.2"/>
<polygon fill="black" stroke="black" points="325.03,-211.33 326.77,-206.33 322.29,-209.15 325.03,-211.33"/>
</g>
<!-- function&#45;1&#45;Beq&#45;&gt;function&#45;0&#45;RegVal -->
<g id="edge37" class="edge">
<title>function&#45;1&#45;Beq:s&#45;&gt;function&#45;0&#45;RegVal</title>
<path fill="none" stroke="black" d="M281.77,-253C281.77,-233.68 155.5,-208.24 93.42,-196.9"/>
<polygon fill="black" stroke="black" points="96.99,-196.89 91.77,-195.97 95.28,-199.94 96.99,-196.89"/>
</g>
<!-- function&#45;1&#45;Seq2&#45;&gt;function&#45;1&#45;Jal -->
<g id="edge41" class="edge">
<title>function&#45;1&#45;Seq2:s&#45;&gt;function&#45;1&#45;Jal</title>
<path fill="none" stroke="black" d="M243.77,-253C243.77,-239.84 243.77,-225.11 243.77,-213.3"/>
<polygon fill="black" stroke="black" points="245.52,-216 243.77,-211 242.02,-216 245.52,-216"/>
</g>
<!-- function&#45;1&#45;Seq2&#45;&gt;function&#45;2&#45;Bne -->
<g id="edge40" class="edge">
<title>function&#45;1&#45;Seq2:s&#45;&gt;function&#45;2&#45;Bne</title>
<path fill="none" stroke="black" d="M221.77,-253C221.77,-190.28 139.64,-195 83.77,-223.5 74.24,-228.36 66.81,-237.41 61.44,-246.17"/>
<polygon fill="black" stroke="black" points="61.89,-243.19 59.67,-248 64.41,-245.62 61.89,-243.19"/>
</g>
<!-- function&#45;2&#45;Bne&#45;&gt;function&#45;2&#45;ImmVal -->
<g id="edge46" class="edge">
<title>function&#45;2&#45;Bne:s&#45;&gt;function&#45;2&#45;ImmVal</title>
<path fill="none" stroke="black" d="M64.77,-253C64.77,-238.93 144.86,-173.49 156.77,-166 189.8,-145.22 232.11,-130.34 261.72,-121.53"/>
<polygon fill="black" stroke="black" points="260.73,-124.4 263.77,-120.07 258.69,-121.56 260.73,-124.4"/>
</g>
<!-- function&#45;2&#45;Bne&#45;&gt;function&#45;0&#45;Addi -->
<g id="edge44" class="edge">
<title>function&#45;2&#45;Bne:s&#45;&gt;function&#45;0&#45;Addi</title>
<path fill="none" stroke="black" d="M41.77,-253C41.77,-234.87 63.93,-248.22 81.77,-245 167.27,-229.59 189.92,-232.65 274.77,-214 291.38,-210.35 309.61,-205.34 324.66,-200.92"/>
<polygon fill="black" stroke="black" points="323.67,-203.75 326.77,-199.45 321.67,-200.88 323.67,-203.75"/>
</g>
<!-- function&#45;2&#45;Bne&#45;&gt;function&#45;0&#45;RegVal -->
<g id="edge45" class="edge">
<title>function&#45;2&#45;Bne:s&#45;&gt;function&#45;0&#45;RegVal</title>
<path fill="none" stroke="black" d="M55.77,-253C55.77,-239.81 56.68,-225.08 57.64,-213.28"/>
<polygon fill="black" stroke="black" points="58.85,-216.24 58.08,-211 55.41,-215.58 58.85,-216.24"/>
</g>
<!-- function&#45;3&#45;Lw&#45;&gt;function&#45;3&#45;ImmVal -->
<g id="edge43" class="edge">
<title>function&#45;3&#45;Lw:s&#45;&gt;function&#45;3&#45;ImmVal</title>
<path fill="none" stroke="black" d="M690.77,-253C690.77,-239.84 690.77,-225.11 690.77,-213.3"/>
<polygon fill="black" stroke="black" points="692.52,-216 690.77,-211 689.02,-216 692.52,-216"/>
</g>
<!-- function&#45;3&#45;Lw&#45;&gt;function&#45;2&#45;RegVal -->
<g id="edge42" class="edge">
<title>function&#45;3&#45;Lw:s&#45;&gt;function&#45;2&#45;RegVal</title>
<path fill="none" stroke="black" d="M674.77,-253C674.77,-233.72 660.84,-232.6 655.77,-214 648.5,-187.3 647.12,-155.32 647.15,-134.38"/>
<polygon fill="black" stroke="black" points="648.86,-137.03 647.18,-132 645.36,-136.97 648.86,-137.03"/>
</g>
<!-- function&#45;3&#45;Bne&#45;&gt;function&#45;2&#45;ImmVal -->
<g id="edge49" class="edge">
<title>function&#45;3&#45;Bne:s&#45;&gt;function&#45;2&#45;ImmVal</title>
<path fill="none" stroke="black" d="M122.77,-253C122.77,-239.09 201.85,-174.61 212.77,-166 228.59,-153.54 247.38,-141.36 263.26,-131.73"/>
<polygon fill="black" stroke="black" points="262.06,-136.1 263.77,-131.09 259.31,-133.94 262.06,-136.1"/>
</g>
<!-- function&#45;3&#45;Bne&#45;&gt;function&#45;0&#45;Addi -->
<g id="edge48" class="edge">
<title>function&#45;3&#45;Bne:s&#45;&gt;function&#45;0&#45;Addi</title>
<path fill="none" stroke="black" d="M113.77,-253C113.77,-240.91 128.09,-248.13 139.77,-245 199.23,-229.05 215.12,-229.21 274.77,-214 291.25,-209.8 309.47,-204.73 324.54,-200.42"/>
<polygon fill="black" stroke="black" points="323.51,-203.17 326.77,-198.99 321.62,-200.22 323.51,-203.17"/>
</g>
<!-- function&#45;3&#45;Bne&#45;&gt;function&#45;0&#45;RegVal -->
<g id="edge47" class="edge">
<title>function&#45;3&#45;Bne:s&#45;&gt;function&#45;0&#45;RegVal</title>
<path fill="none" stroke="black" d="M99.77,-253C99.77,-237.71 91.08,-223.2 81.8,-212.07"/>
<polygon fill="black" stroke="black" points="85.42,-212.6 80.37,-211 83.32,-215.4 85.42,-212.6"/>
</g>
<!-- function&#45;2&#45;Seq2&#45;&gt;function&#45;1&#45;Jal -->
<g id="edge51" class="edge">
<title>function&#45;2&#45;Seq2:s&#45;&gt;function&#45;1&#45;Jal</title>
<path fill="none" stroke="black" d="M177.77,-253C177.77,-232.45 194.98,-216.72 211.82,-206.25"/>
<polygon fill="black" stroke="black" points="211.3,-209.12 213.77,-204.44 208.92,-206.56 211.3,-209.12"/>
</g>
<!-- function&#45;2&#45;Seq2&#45;&gt;function&#45;1&#45;Seq2 -->
<g id="edge50" class="edge">
<title>function&#45;2&#45;Seq2:s&#45;&gt;function&#45;1&#45;Seq2</title>
<path fill="none" stroke="black" d="M155.77,-253C155.77,-232.44 179.85,-239.47 200.9,-249.89"/>
<polygon fill="black" stroke="black" points="197.73,-249.68 202.77,-251.3 199.84,-246.89 197.73,-249.68"/>
</g>
<!-- function&#45;0&#45;Sw&#45;&gt;function&#45;0&#45;ImmVal -->
<g id="edge54" class="edge">
<title>function&#45;0&#45;Sw:s&#45;&gt;function&#45;0&#45;ImmVal</title>
<path fill="none" stroke="black" d="M911.77,-253C911.77,-232.65 930.23,-233.58 935.77,-214 943.31,-187.37 938.71,-155.38 933.95,-134.41"/>
<polygon fill="black" stroke="black" points="936.55,-135.69 932.75,-132 933.42,-137.25 936.55,-135.69"/>
</g>
<!-- function&#45;0&#45;Sw&#45;&gt;function&#45;1&#45;RegVal -->
<g id="edge52" class="edge">
<title>function&#45;0&#45;Sw:s&#45;&gt;function&#45;1&#45;RegVal</title>
<path fill="none" stroke="black" d="M892.77,-253C892.77,-239.63 876.85,-247.77 863.77,-245 772.33,-225.65 745.24,-241.03 655.77,-214 650.61,-212.44 645.29,-210.42 640.16,-208.23"/>
<polygon fill="black" stroke="black" points="643.81,-208.81 638.77,-207.18 641.69,-211.6 643.81,-208.81"/>
</g>
<!-- function&#45;0&#45;Sw&#45;&gt;function&#45;0&#45;Lw -->
<g id="edge53" class="edge">
<title>function&#45;0&#45;Sw:s&#45;&gt;function&#45;0&#45;Lw</title>
<path fill="none" stroke="black" d="M904.77,-253C904.77,-239.84 904.77,-225.11 904.77,-213.3"/>
<polygon fill="black" stroke="black" points="906.52,-216 904.77,-211 903.02,-216 906.52,-216"/>
</g>
<!-- function&#45;3&#45;Sw&#45;&gt;function&#45;5&#45;ImmVal -->
<g id="edge57" class="edge">
<title>function&#45;3&#45;Sw:s&#45;&gt;function&#45;5&#45;ImmVal</title>
<path fill="none" stroke="black" d="M689.77,-332C689.77,-285.12 745.46,-313.18 787.77,-293 790.05,-291.92 792.37,-290.76 794.69,-289.56"/>
<polygon fill="black" stroke="black" points="795.73,-294.27 794.77,-289.06 792.27,-293.73 795.73,-294.27"/>
</g>
<!-- function&#45;3&#45;Sw&#45;&gt;function&#45;3&#45;Lw -->
<g id="edge56" class="edge">
<title>function&#45;3&#45;Sw:s&#45;&gt;function&#45;3&#45;Lw</title>
<path fill="none" stroke="black" d="M682.77,-332C682.77,-318.84 682.77,-304.11 682.77,-292.3"/>
<polygon fill="black" stroke="black" points="684.52,-295 682.77,-290 681.02,-295 684.52,-295"/>
</g>
<!-- function&#45;3&#45;Sw&#45;&gt;function&#45;1&#45;Addi -->
<g id="edge55" class="edge">
<title>function&#45;3&#45;Sw:s&#45;&gt;function&#45;1&#45;Addi</title>
<path fill="none" stroke="black" d="M670.77,-332C670.77,-315.46 659.7,-301.18 647.59,-290.52"/>
<polygon fill="black" stroke="black" points="650.72,-292.57 646.77,-289.04 647.66,-294.26 650.72,-292.57"/>
</g>
<!-- function&#45;1&#45;Addi&#45;&gt;function&#45;4&#45;ImmVal -->
<g id="edge59" class="edge">
<title>function&#45;1&#45;Addi:s&#45;&gt;function&#45;4&#45;ImmVal</title>
<path fill="none" stroke="black" d="M626.77,-253C626.77,-223.75 590.98,-237.65 573.77,-214 560.54,-195.82 574.55,-180.97 557.77,-166 507.95,-121.55 473.02,-159.17 410.77,-135 410.05,-134.72 409.34,-134.43 408.62,-134.13"/>
<polygon fill="black" stroke="black" points="409.14,-132.45 403.87,-132 407.71,-135.64 409.14,-132.45"/>
</g>
<!-- function&#45;1&#45;Addi&#45;&gt;function&#45;1&#45;RegVal -->
<g id="edge58" class="edge">
<title>function&#45;1&#45;Addi:s&#45;&gt;function&#45;1&#45;RegVal</title>
<path fill="none" stroke="black" d="M606.77,-253C606.77,-239.84 606.77,-225.11 606.77,-213.3"/>
<polygon fill="black" stroke="black" points="608.52,-216 606.77,-211 605.02,-216 608.52,-216"/>
</g>
<!-- function&#45;0&#45;ImmVal -->
<g id="node1" class="node">
<title>function&#45;0&#45;ImmVal</title>
<g id="a_node1"><a xlink:title="Imm&#45;3: function&#45;0&#45;ImmVal">
<path fill="white" stroke="transparent" d="M907.44,-95C907.44,-95 948.1,-95 948.1,-95 953.44,-95 958.77,-100.33 958.77,-105.67 958.77,-105.67 958.77,-116.33 958.77,-116.33 958.77,-121.67 953.44,-127 948.1,-127 948.1,-127 907.44,-127 907.44,-127 902.1,-127 896.77,-121.67 896.77,-116.33 896.77,-116.33 896.77,-105.67 896.77,-105.67 896.77,-100.33 902.1,-95 907.44,-95"/>
<text text-anchor="start" x="901.77" y="-107.3" font-family="Helvetica,sans-Serif" font-size="14.00">ImmVal</text>
<path fill="none" stroke="black" d="M907.44,-95C907.44,-95 948.1,-95 948.1,-95 953.44,-95 958.77,-100.33 958.77,-105.67 958.77,-105.67 958.77,-116.33 958.77,-116.33 958.77,-121.67 953.44,-127 948.1,-127 948.1,-127 907.44,-127 907.44,-127 902.1,-127 896.77,-121.67 896.77,-116.33 896.77,-116.33 896.77,-105.67 896.77,-105.67 896.77,-100.33 902.1,-95 907.44,-95"/>
</a>
</g>
</g>
<!-- primitive&#45;i64&#45;8 -->
<g id="node2" class="node">
<title>primitive&#45;i64&#45;8</title>
<g id="a_node2"><a xlink:title="i64&#45;8: primitive&#45;i64&#45;8">
<path fill="white" stroke="transparent" d="M922.44,-16C922.44,-16 933.1,-16 933.1,-16 938.44,-16 943.77,-21.33 943.77,-26.67 943.77,-26.67 943.77,-37.33 943.77,-37.33 943.77,-42.67 938.44,-48 933.1,-48 933.1,-48 922.44,-48 922.44,-48 917.1,-48 911.77,-42.67 911.77,-37.33 911.77,-37.33 911.77,-26.67 911.77,-26.67 911.77,-21.33 917.1,-16 922.44,-16"/>
<text text-anchor="start" x="922.77" y="-28.3" font-family="Helvetica,sans-Serif" font-size="14.00">8</text>
<path fill="none" stroke="black" d="M922.44,-16C922.44,-16 933.1,-16 933.1,-16 938.44,-16 943.77,-21.33 943.77,-26.67 943.77,-26.67 943.77,-37.33 943.77,-37.33 943.77,-42.67 938.44,-48 933.1,-48 933.1,-48 922.44,-48 922.44,-48 917.1,-48 911.77,-42.67 911.77,-37.33 911.77,-37.33 911.77,-26.67 911.77,-26.67 911.77,-21.33 917.1,-16 922.44,-16"/>
</a>
</g>
</g>
<!-- function&#45;2&#45;ImmVal -->
<g id="node3" class="node">
<title>function&#45;2&#45;ImmVal</title>
<g id="a_node3"><a xlink:title="Imm&#45;7: function&#45;2&#45;ImmVal">
<path fill="white" stroke="transparent" d="M277.44,-95C277.44,-95 318.1,-95 318.1,-95 323.44,-95 328.77,-100.33 328.77,-105.67 328.77,-105.67 328.77,-116.33 328.77,-116.33 328.77,-121.67 323.44,-127 318.1,-127 318.1,-127 277.44,-127 277.44,-127 272.1,-127 266.77,-121.67 266.77,-116.33 266.77,-116.33 266.77,-105.67 266.77,-105.67 266.77,-100.33 272.1,-95 277.44,-95"/>
<text text-anchor="start" x="271.77" y="-107.3" font-family="Helvetica,sans-Serif" font-size="14.00">ImmVal</text>
<path fill="none" stroke="black" d="M277.44,-95C277.44,-95 318.1,-95 318.1,-95 323.44,-95 328.77,-100.33 328.77,-105.67 328.77,-105.67 328.77,-116.33 328.77,-116.33 328.77,-121.67 323.44,-127 318.1,-127 318.1,-127 277.44,-127 277.44,-127 272.1,-127 266.77,-121.67 266.77,-116.33 266.77,-116.33 266.77,-105.67 266.77,-105.67 266.77,-100.33 272.1,-95 277.44,-95"/>
</a>
</g>
</g>
<!-- primitive&#45;i64&#45;4 -->
<g id="node4" class="node">
<title>primitive&#45;i64&#45;4</title>
<g id="a_node4"><a xlink:title="i64&#45;4: primitive&#45;i64&#45;4">
<path fill="white" stroke="transparent" d="M292.44,-16C292.44,-16 303.1,-16 303.1,-16 308.44,-16 313.77,-21.33 313.77,-26.67 313.77,-26.67 313.77,-37.33 313.77,-37.33 313.77,-42.67 308.44,-48 303.1,-48 303.1,-48 292.44,-48 292.44,-48 287.1,-48 281.77,-42.67 281.77,-37.33 281.77,-37.33 281.77,-26.67 281.77,-26.67 281.77,-21.33 287.1,-16 292.44,-16"/>
<text text-anchor="start" x="292.77" y="-28.3" font-family="Helvetica,sans-Serif" font-size="14.00">4</text>
<path fill="none" stroke="black" d="M292.44,-16C292.44,-16 303.1,-16 303.1,-16 308.44,-16 313.77,-21.33 313.77,-26.67 313.77,-26.67 313.77,-37.33 313.77,-37.33 313.77,-42.67 308.44,-48 303.1,-48 303.1,-48 292.44,-48 292.44,-48 287.1,-48 281.77,-42.67 281.77,-37.33 281.77,-37.33 281.77,-26.67 281.77,-26.67 281.77,-21.33 287.1,-16 292.44,-16"/>
</a>
</g>
</g>
<!-- function&#45;1&#45;ImmVal -->
<g id="node5" class="node">
<title>function&#45;1&#45;ImmVal</title>
<g id="a_node5"><a xlink:title="Imm&#45;5: function&#45;1&#45;ImmVal">
<path fill="white" stroke="transparent" d="M772.44,-95C772.44,-95 813.1,-95 813.1,-95 818.44,-95 823.77,-100.33 823.77,-105.67 823.77,-105.67 823.77,-116.33 823.77,-116.33 823.77,-121.67 818.44,-127 813.1,-127 813.1,-127 772.44,-127 772.44,-127 767.1,-127 761.77,-121.67 761.77,-116.33 761.77,-116.33 761.77,-105.67 761.77,-105.67 761.77,-100.33 767.1,-95 772.44,-95"/>
<text text-anchor="start" x="766.77" y="-107.3" font-family="Helvetica,sans-Serif" font-size="14.00">ImmVal</text>
<path fill="none" stroke="black" d="M772.44,-95C772.44,-95 813.1,-95 813.1,-95 818.44,-95 823.77,-100.33 823.77,-105.67 823.77,-105.67 823.77,-116.33 823.77,-116.33 823.77,-121.67 818.44,-127 813.1,-127 813.1,-127 772.44,-127 772.44,-127 767.1,-127 761.77,-121.67 761.77,-116.33 761.77,-116.33 761.77,-105.67 761.77,-105.67 761.77,-100.33 767.1,-95 772.44,-95"/>
</a>
</g>
</g>
<!-- primitive&#45;i64&#45;0 -->
<g id="node6" class="node">
<title>primitive&#45;i64&#45;0</title>
<g id="a_node6"><a xlink:title="i64&#45;0: primitive&#45;i64&#45;0">
<path fill="white" stroke="transparent" d="M787.44,-16C787.44,-16 798.1,-16 798.1,-16 803.44,-16 808.77,-21.33 808.77,-26.67 808.77,-26.67 808.77,-37.33 808.77,-37.33 808.77,-42.67 803.44,-48 798.1,-48 798.1,-48 787.44,-48 787.44,-48 782.1,-48 776.77,-42.67 776.77,-37.33 776.77,-37.33 776.77,-26.67 776.77,-26.67 776.77,-21.33 782.1,-16 787.44,-16"/>
<text text-anchor="start" x="787.77" y="-28.3" font-family="Helvetica,sans-Serif" font-size="14.00">0</text>
<path fill="none" stroke="black" d="M787.44,-16C787.44,-16 798.1,-16 798.1,-16 803.44,-16 808.77,-21.33 808.77,-26.67 808.77,-26.67 808.77,-37.33 808.77,-37.33 808.77,-42.67 803.44,-48 798.1,-48 798.1,-48 787.44,-48 787.44,-48 782.1,-48 776.77,-42.67 776.77,-37.33 776.77,-37.33 776.77,-26.67 776.77,-26.67 776.77,-21.33 782.1,-16 787.44,-16"/>
</a>
</g>
</g>
<!-- function&#45;3&#45;ImmVal -->
<g id="node7" class="node">
<title>function&#45;3&#45;ImmVal</title>
<g id="a_node7"><a xlink:title="Imm&#45;12: function&#45;3&#45;ImmVal">
<path fill="white" stroke="transparent" d="M670.44,-174C670.44,-174 711.1,-174 711.1,-174 716.44,-174 721.77,-179.33 721.77,-184.67 721.77,-184.67 721.77,-195.33 721.77,-195.33 721.77,-200.67 716.44,-206 711.1,-206 711.1,-206 670.44,-206 670.44,-206 665.1,-206 659.77,-200.67 659.77,-195.33 659.77,-195.33 659.77,-184.67 659.77,-184.67 659.77,-179.33 665.1,-174 670.44,-174"/>
<text text-anchor="start" x="664.77" y="-186.3" font-family="Helvetica,sans-Serif" font-size="14.00">ImmVal</text>
<path fill="none" stroke="black" d="M670.44,-174C670.44,-174 711.1,-174 711.1,-174 716.44,-174 721.77,-179.33 721.77,-184.67 721.77,-184.67 721.77,-195.33 721.77,-195.33 721.77,-200.67 716.44,-206 711.1,-206 711.1,-206 670.44,-206 670.44,-206 665.1,-206 659.77,-200.67 659.77,-195.33 659.77,-195.33 659.77,-184.67 659.77,-184.67 659.77,-179.33 665.1,-174 670.44,-174"/>
</a>
</g>
</g>
<!-- primitive&#45;i64&#45;12 -->
<g id="node8" class="node">
<title>primitive&#45;i64&#45;12</title>
<g id="a_node8"><a xlink:title="i64&#45;12: primitive&#45;i64&#45;12">
<path fill="white" stroke="transparent" d="M710.44,-95C710.44,-95 721.1,-95 721.1,-95 726.44,-95 731.77,-100.33 731.77,-105.67 731.77,-105.67 731.77,-116.33 731.77,-116.33 731.77,-121.67 726.44,-127 721.1,-127 721.1,-127 710.44,-127 710.44,-127 705.1,-127 699.77,-121.67 699.77,-116.33 699.77,-116.33 699.77,-105.67 699.77,-105.67 699.77,-100.33 705.1,-95 710.44,-95"/>
<text text-anchor="start" x="706.27" y="-107.3" font-family="Helvetica,sans-Serif" font-size="14.00">12</text>
<path fill="none" stroke="black" d="M710.44,-95C710.44,-95 721.1,-95 721.1,-95 726.44,-95 731.77,-100.33 731.77,-105.67 731.77,-105.67 731.77,-116.33 731.77,-116.33 731.77,-121.67 726.44,-127 721.1,-127 721.1,-127 710.44,-127 710.44,-127 705.1,-127 699.77,-121.67 699.77,-116.33 699.77,-116.33 699.77,-105.67 699.77,-105.67 699.77,-100.33 705.1,-95 710.44,-95"/>
</a>
</g>
</g>
<!-- function&#45;4&#45;ImmVal -->
<g id="node9" class="node">
<title>function&#45;4&#45;ImmVal</title>
<g id="a_node9"><a xlink:title="Imm&#45;14: function&#45;4&#45;ImmVal">
<path fill="white" stroke="transparent" d="M351.44,-95C351.44,-95 392.1,-95 392.1,-95 397.44,-95 402.77,-100.33 402.77,-105.67 402.77,-105.67 402.77,-116.33 402.77,-116.33 402.77,-121.67 397.44,-127 392.1,-127 392.1,-127 351.44,-127 351.44,-127 346.1,-127 340.77,-121.67 340.77,-116.33 340.77,-116.33 340.77,-105.67 340.77,-105.67 340.77,-100.33 346.1,-95 351.44,-95"/>
<text text-anchor="start" x="345.77" y="-107.3" font-family="Helvetica,sans-Serif" font-size="14.00">ImmVal</text>
<path fill="none" stroke="black" d="M351.44,-95C351.44,-95 392.1,-95 392.1,-95 397.44,-95 402.77,-100.33 402.77,-105.67 402.77,-105.67 402.77,-116.33 402.77,-116.33 402.77,-121.67 397.44,-127 392.1,-127 392.1,-127 351.44,-127 351.44,-127 346.1,-127 340.77,-121.67 340.77,-116.33 340.77,-116.33 340.77,-105.67 340.77,-105.67 340.77,-100.33 346.1,-95 351.44,-95"/>
</a>
</g>
</g>
<!-- primitive&#45;i64&#45;16 -->
<g id="node10" class="node">
<title>primitive&#45;i64&#45;16</title>
<g id="a_node10"><a xlink:title="i64&#45;16: primitive&#45;i64&#45;16">
<path fill="white" stroke="transparent" d="M366.44,-16C366.44,-16 377.1,-16 377.1,-16 382.44,-16 387.77,-21.33 387.77,-26.67 387.77,-26.67 387.77,-37.33 387.77,-37.33 387.77,-42.67 382.44,-48 377.1,-48 377.1,-48 366.44,-48 366.44,-48 361.1,-48 355.77,-42.67 355.77,-37.33 355.77,-37.33 355.77,-26.67 355.77,-26.67 355.77,-21.33 361.1,-16 366.44,-16"/>
<text text-anchor="start" x="362.27" y="-28.3" font-family="Helvetica,sans-Serif" font-size="14.00">16</text>
<path fill="none" stroke="black" d="M366.44,-16C366.44,-16 377.1,-16 377.1,-16 382.44,-16 387.77,-21.33 387.77,-26.67 387.77,-26.67 387.77,-37.33 387.77,-37.33 387.77,-42.67 382.44,-48 377.1,-48 377.1,-48 366.44,-48 366.44,-48 361.1,-48 355.77,-42.67 355.77,-37.33 355.77,-37.33 355.77,-26.67 355.77,-26.67 355.77,-21.33 361.1,-16 366.44,-16"/>
</a>
</g>
</g>
<!-- function&#45;5&#45;ImmVal -->
<g id="node11" class="node">
<title>function&#45;5&#45;ImmVal</title>
<g id="a_node11"><a xlink:title="Imm&#45;17: function&#45;5&#45;ImmVal">
<path fill="white" stroke="transparent" d="M808.44,-253C808.44,-253 849.1,-253 849.1,-253 854.44,-253 859.77,-258.33 859.77,-263.67 859.77,-263.67 859.77,-274.33 859.77,-274.33 859.77,-279.67 854.44,-285 849.1,-285 849.1,-285 808.44,-285 808.44,-285 803.1,-285 797.77,-279.67 797.77,-274.33 797.77,-274.33 797.77,-263.67 797.77,-263.67 797.77,-258.33 803.1,-253 808.44,-253"/>
<text text-anchor="start" x="802.77" y="-265.3" font-family="Helvetica,sans-Serif" font-size="14.00">ImmVal</text>
<path fill="none" stroke="black" d="M808.44,-253C808.44,-253 849.1,-253 849.1,-253 854.44,-253 859.77,-258.33 859.77,-263.67 859.77,-263.67 859.77,-274.33 859.77,-274.33 859.77,-279.67 854.44,-285 849.1,-285 849.1,-285 808.44,-285 808.44,-285 803.1,-285 797.77,-279.67 797.77,-274.33 797.77,-274.33 797.77,-263.67 797.77,-263.67 797.77,-258.33 803.1,-253 808.44,-253"/>
</a>
</g>
</g>
<!-- primitive&#45;i64&#45;2147483649 -->
<g id="node12" class="node">
<title>primitive&#45;i64&#45;2147483649</title>
<g id="a_node12"><a xlink:title="i64&#45;2147483649: primitive&#45;i64&#45;2147483649">
<path fill="white" stroke="transparent" d="M833.44,-174C833.44,-174 844.1,-174 844.1,-174 849.44,-174 854.77,-179.33 854.77,-184.67 854.77,-184.67 854.77,-195.33 854.77,-195.33 854.77,-200.67 849.44,-206 844.1,-206 844.1,-206 833.44,-206 833.44,-206 828.1,-206 822.77,-200.67 822.77,-195.33 822.77,-195.33 822.77,-184.67 822.77,-184.67 822.77,-179.33 828.1,-174 833.44,-174"/>
<text text-anchor="start" x="831.27" y="-186.3" font-family="Helvetica,sans-Serif" font-size="14.00">&#45;4</text>
<path fill="none" stroke="black" d="M833.44,-174C833.44,-174 844.1,-174 844.1,-174 849.44,-174 854.77,-179.33 854.77,-184.67 854.77,-184.67 854.77,-195.33 854.77,-195.33 854.77,-200.67 849.44,-206 844.1,-206 844.1,-206 833.44,-206 833.44,-206 828.1,-206 822.77,-200.67 822.77,-195.33 822.77,-195.33 822.77,-184.67 822.77,-184.67 822.77,-179.33 828.1,-174 833.44,-174"/>
</a>
</g>
</g>
<!-- function&#45;0&#45;ImmLabel -->
<g id="node13" class="node">
<title>function&#45;0&#45;ImmLabel</title>
<g id="a_node13"><a xlink:title="Imm&#45;19: function&#45;0&#45;ImmLabel">
<path fill="white" stroke="transparent" d="M407.94,-174C407.94,-174 465.6,-174 465.6,-174 470.94,-174 476.27,-179.33 476.27,-184.67 476.27,-184.67 476.27,-195.33 476.27,-195.33 476.27,-200.67 470.94,-206 465.6,-206 465.6,-206 407.94,-206 407.94,-206 402.6,-206 397.27,-200.67 397.27,-195.33 397.27,-195.33 397.27,-184.67 397.27,-184.67 397.27,-179.33 402.6,-174 407.94,-174"/>
<text text-anchor="start" x="402.77" y="-186.3" font-family="Helvetica,sans-Serif" font-size="14.00">ImmLabel</text>
<path fill="none" stroke="black" d="M407.94,-174C407.94,-174 465.6,-174 465.6,-174 470.94,-174 476.27,-179.33 476.27,-184.67 476.27,-184.67 476.27,-195.33 476.27,-195.33 476.27,-200.67 470.94,-206 465.6,-206 465.6,-206 407.94,-206 407.94,-206 402.6,-206 397.27,-200.67 397.27,-195.33 397.27,-195.33 397.27,-184.67 397.27,-184.67 397.27,-179.33 402.6,-174 407.94,-174"/>
</a>
</g>
</g>
<!-- primitive&#45;String&#45;4 -->
<g id="node14" class="node">
<title>primitive&#45;String&#45;4</title>
<g id="a_node14"><a xlink:title="String&#45;4: primitive&#45;String&#45;4">
<path fill="white" stroke="transparent" d="M425.44,-95C425.44,-95 458.1,-95 458.1,-95 463.44,-95 468.77,-100.33 468.77,-105.67 468.77,-105.67 468.77,-116.33 468.77,-116.33 468.77,-121.67 463.44,-127 458.1,-127 458.1,-127 425.44,-127 425.44,-127 420.1,-127 414.77,-121.67 414.77,-116.33 414.77,-116.33 414.77,-105.67 414.77,-105.67 414.77,-100.33 420.1,-95 425.44,-95"/>
<text text-anchor="start" x="419.77" y="-107.3" font-family="Helvetica,sans-Serif" font-size="14.00">&quot;.L48&quot;</text>
<path fill="none" stroke="black" d="M425.44,-95C425.44,-95 458.1,-95 458.1,-95 463.44,-95 468.77,-100.33 468.77,-105.67 468.77,-105.67 468.77,-116.33 468.77,-116.33 468.77,-121.67 463.44,-127 458.1,-127 458.1,-127 425.44,-127 425.44,-127 420.1,-127 414.77,-121.67 414.77,-116.33 414.77,-116.33 414.77,-105.67 414.77,-105.67 414.77,-100.33 420.1,-95 425.44,-95"/>
</a>
</g>
</g>
<!-- function&#45;1&#45;Jal -->
<g id="node15" class="node">
<title>function&#45;1&#45;Jal</title>
<g id="a_node15"><a xlink:title="Inst&#45;24: function&#45;1&#45;Jal">
<path fill="white" stroke="transparent" d="M238.44,-174C238.44,-174 249.1,-174 249.1,-174 254.44,-174 259.77,-179.33 259.77,-184.67 259.77,-184.67 259.77,-195.33 259.77,-195.33 259.77,-200.67 254.44,-206 249.1,-206 249.1,-206 238.44,-206 238.44,-206 233.1,-206 227.77,-200.67 227.77,-195.33 227.77,-195.33 227.77,-184.67 227.77,-184.67 227.77,-179.33 233.1,-174 238.44,-174"/>
<text text-anchor="start" x="235.27" y="-186.3" font-family="Helvetica,sans-Serif" font-size="14.00">Jal</text>
<path fill="none" stroke="black" d="M238.44,-174C238.44,-174 249.1,-174 249.1,-174 254.44,-174 259.77,-179.33 259.77,-184.67 259.77,-184.67 259.77,-195.33 259.77,-195.33 259.77,-200.67 254.44,-206 249.1,-206 249.1,-206 238.44,-206 238.44,-206 233.1,-206 227.77,-200.67 227.77,-195.33 227.77,-195.33 227.77,-184.67 227.77,-184.67 227.77,-179.33 233.1,-174 238.44,-174"/>
</a>
</g>
</g>
<!-- function&#45;2&#45;RegVal -->
<g id="node16" class="node">
<title>function&#45;2&#45;RegVal</title>
<g id="a_node16"><a xlink:title="Inst&#45;2: function&#45;2&#45;RegVal">
<path fill="white" stroke="transparent" d="M629.94,-95C629.94,-95 665.6,-95 665.6,-95 670.94,-95 676.27,-100.33 676.27,-105.67 676.27,-105.67 676.27,-116.33 676.27,-116.33 676.27,-121.67 670.94,-127 665.6,-127 665.6,-127 629.94,-127 629.94,-127 624.6,-127 619.27,-121.67 619.27,-116.33 619.27,-116.33 619.27,-105.67 619.27,-105.67 619.27,-100.33 624.6,-95 629.94,-95"/>
<text text-anchor="start" x="624.77" y="-107.3" font-family="Helvetica,sans-Serif" font-size="14.00">RegVal</text>
<path fill="none" stroke="black" d="M629.94,-95C629.94,-95 665.6,-95 665.6,-95 670.94,-95 676.27,-100.33 676.27,-105.67 676.27,-105.67 676.27,-116.33 676.27,-116.33 676.27,-121.67 670.94,-127 665.6,-127 665.6,-127 629.94,-127 629.94,-127 624.6,-127 619.27,-121.67 619.27,-116.33 619.27,-116.33 619.27,-105.67 619.27,-105.67 619.27,-100.33 624.6,-95 629.94,-95"/>
</a>
</g>
</g>
<!-- primitive&#45;String&#45;3 -->
<g id="node17" class="node">
<title>primitive&#45;String&#45;3</title>
<g id="a_node17"><a xlink:title="String&#45;3: primitive&#45;String&#45;3">
<path fill="white" stroke="transparent" d="M630.94,-16C630.94,-16 666.6,-16 666.6,-16 671.94,-16 677.27,-21.33 677.27,-26.67 677.27,-26.67 677.27,-37.33 677.27,-37.33 677.27,-42.67 671.94,-48 666.6,-48 666.6,-48 630.94,-48 630.94,-48 625.6,-48 620.27,-42.67 620.27,-37.33 620.27,-37.33 620.27,-26.67 620.27,-26.67 620.27,-21.33 625.6,-16 630.94,-16"/>
<text text-anchor="start" x="625.77" y="-28.3" font-family="Helvetica,sans-Serif" font-size="14.00">&quot;a5_0&quot;</text>
<path fill="none" stroke="black" d="M630.94,-16C630.94,-16 666.6,-16 666.6,-16 671.94,-16 677.27,-21.33 677.27,-26.67 677.27,-26.67 677.27,-37.33 677.27,-37.33 677.27,-42.67 671.94,-48 666.6,-48 666.6,-48 630.94,-48 630.94,-48 625.6,-48 620.27,-42.67 620.27,-37.33 620.27,-37.33 620.27,-26.67 620.27,-26.67 620.27,-21.33 625.6,-16 630.94,-16"/>
</a>
</g>
</g>
<!-- function&#45;0&#45;Addi -->
<g id="node18" class="node">
<title>function&#45;0&#45;Addi</title>
<g id="a_node18"><a xlink:title="Inst&#45;15: function&#45;0&#45;Addi">
<path fill="white" stroke="transparent" d="M346.94,-174C346.94,-174 366.6,-174 366.6,-174 371.94,-174 377.27,-179.33 377.27,-184.67 377.27,-184.67 377.27,-195.33 377.27,-195.33 377.27,-200.67 371.94,-206 366.6,-206 366.6,-206 346.94,-206 346.94,-206 341.6,-206 336.27,-200.67 336.27,-195.33 336.27,-195.33 336.27,-184.67 336.27,-184.67 336.27,-179.33 341.6,-174 346.94,-174"/>
<text text-anchor="start" x="341.77" y="-186.3" font-family="Helvetica,sans-Serif" font-size="14.00">Addi</text>
<path fill="none" stroke="black" d="M346.94,-174C346.94,-174 366.6,-174 366.6,-174 371.94,-174 377.27,-179.33 377.27,-184.67 377.27,-184.67 377.27,-195.33 377.27,-195.33 377.27,-200.67 371.94,-206 366.6,-206 366.6,-206 346.94,-206 346.94,-206 341.6,-206 336.27,-200.67 336.27,-195.33 336.27,-195.33 336.27,-184.67 336.27,-184.67 336.27,-179.33 341.6,-174 346.94,-174"/>
</a>
</g>
</g>
<!-- function&#45;2&#45;Sw -->
<g id="node19" class="node">
<title>function&#45;2&#45;Sw</title>
<g id="a_node19"><a xlink:title="Inst&#45;11: function&#45;2&#45;Sw">
<path fill="white" stroke="transparent" d="M519.44,-253C519.44,-253 530.1,-253 530.1,-253 535.44,-253 540.77,-258.33 540.77,-263.67 540.77,-263.67 540.77,-274.33 540.77,-274.33 540.77,-279.67 535.44,-285 530.1,-285 530.1,-285 519.44,-285 519.44,-285 514.1,-285 508.77,-279.67 508.77,-274.33 508.77,-274.33 508.77,-263.67 508.77,-263.67 508.77,-258.33 514.1,-253 519.44,-253"/>
<text text-anchor="start" x="514.27" y="-265.3" font-family="Helvetica,sans-Serif" font-size="14.00">Sw</text>
<path fill="none" stroke="black" d="M519.44,-253C519.44,-253 530.1,-253 530.1,-253 535.44,-253 540.77,-258.33 540.77,-263.67 540.77,-263.67 540.77,-274.33 540.77,-274.33 540.77,-279.67 535.44,-285 530.1,-285 530.1,-285 519.44,-285 519.44,-285 514.1,-285 508.77,-279.67 508.77,-274.33 508.77,-274.33 508.77,-263.67 508.77,-263.67 508.77,-258.33 514.1,-253 519.44,-253"/>
</a>
</g>
</g>
<!-- function&#45;1&#45;RegVal -->
<g id="node20" class="node">
<title>function&#45;1&#45;RegVal</title>
<g id="a_node20"><a xlink:title="Inst&#45;1: function&#45;1&#45;RegVal">
<path fill="white" stroke="transparent" d="M588.94,-174C588.94,-174 624.6,-174 624.6,-174 629.94,-174 635.27,-179.33 635.27,-184.67 635.27,-184.67 635.27,-195.33 635.27,-195.33 635.27,-200.67 629.94,-206 624.6,-206 624.6,-206 588.94,-206 588.94,-206 583.6,-206 578.27,-200.67 578.27,-195.33 578.27,-195.33 578.27,-184.67 578.27,-184.67 578.27,-179.33 583.6,-174 588.94,-174"/>
<text text-anchor="start" x="583.77" y="-186.3" font-family="Helvetica,sans-Serif" font-size="14.00">RegVal</text>
<path fill="none" stroke="black" d="M588.94,-174C588.94,-174 624.6,-174 624.6,-174 629.94,-174 635.27,-179.33 635.27,-184.67 635.27,-184.67 635.27,-195.33 635.27,-195.33 635.27,-200.67 629.94,-206 624.6,-206 624.6,-206 588.94,-206 588.94,-206 583.6,-206 578.27,-200.67 578.27,-195.33 578.27,-195.33 578.27,-184.67 578.27,-184.67 578.27,-179.33 583.6,-174 588.94,-174"/>
</a>
</g>
</g>
<!-- function&#45;2&#45;Lw -->
<g id="node21" class="node">
<title>function&#45;2&#45;Lw</title>
<g id="a_node21"><a xlink:title="Inst&#45;8: function&#45;2&#45;Lw">
<path fill="white" stroke="transparent" d="M521.44,-174C521.44,-174 532.1,-174 532.1,-174 537.44,-174 542.77,-179.33 542.77,-184.67 542.77,-184.67 542.77,-195.33 542.77,-195.33 542.77,-200.67 537.44,-206 532.1,-206 532.1,-206 521.44,-206 521.44,-206 516.1,-206 510.77,-200.67 510.77,-195.33 510.77,-195.33 510.77,-184.67 510.77,-184.67 510.77,-179.33 516.1,-174 521.44,-174"/>
<text text-anchor="start" x="517.27" y="-186.3" font-family="Helvetica,sans-Serif" font-size="14.00">Lw</text>
<path fill="none" stroke="black" d="M521.44,-174C521.44,-174 532.1,-174 532.1,-174 537.44,-174 542.77,-179.33 542.77,-184.67 542.77,-184.67 542.77,-195.33 542.77,-195.33 542.77,-200.67 537.44,-206 532.1,-206 532.1,-206 521.44,-206 521.44,-206 516.1,-206 510.77,-200.67 510.77,-195.33 510.77,-195.33 510.77,-184.67 510.77,-184.67 510.77,-179.33 516.1,-174 521.44,-174"/>
</a>
</g>
</g>
<!-- function&#45;0&#45;Lw -->
<g id="node22" class="node">
<title>function&#45;0&#45;Lw</title>
<g id="a_node22"><a xlink:title="Inst&#45;4: function&#45;0&#45;Lw">
<path fill="white" stroke="transparent" d="M899.44,-174C899.44,-174 910.1,-174 910.1,-174 915.44,-174 920.77,-179.33 920.77,-184.67 920.77,-184.67 920.77,-195.33 920.77,-195.33 920.77,-200.67 915.44,-206 910.1,-206 910.1,-206 899.44,-206 899.44,-206 894.1,-206 888.77,-200.67 888.77,-195.33 888.77,-195.33 888.77,-184.67 888.77,-184.67 888.77,-179.33 894.1,-174 899.44,-174"/>
<text text-anchor="start" x="895.27" y="-186.3" font-family="Helvetica,sans-Serif" font-size="14.00">Lw</text>
<path fill="none" stroke="black" d="M899.44,-174C899.44,-174 910.1,-174 910.1,-174 915.44,-174 920.77,-179.33 920.77,-184.67 920.77,-184.67 920.77,-195.33 920.77,-195.33 920.77,-200.67 915.44,-206 910.1,-206 910.1,-206 899.44,-206 899.44,-206 894.1,-206 888.77,-200.67 888.77,-195.33 888.77,-195.33 888.77,-184.67 888.77,-184.67 888.77,-179.33 894.1,-174 899.44,-174"/>
</a>
</g>
</g>
<!-- function&#45;0&#45;Bne -->
<g id="node23" class="node">
<title>function&#45;0&#45;Bne</title>
<g id="a_node23"><a xlink:title="Inst&#45;20: function&#45;0&#45;Bne">
<path fill="white" stroke="transparent" d="M447.44,-332C447.44,-332 464.1,-332 464.1,-332 469.44,-332 474.77,-337.33 474.77,-342.67 474.77,-342.67 474.77,-353.33 474.77,-353.33 474.77,-358.67 469.44,-364 464.1,-364 464.1,-364 447.44,-364 447.44,-364 442.1,-364 436.77,-358.67 436.77,-353.33 436.77,-353.33 436.77,-342.67 436.77,-342.67 436.77,-337.33 442.1,-332 447.44,-332"/>
<text text-anchor="start" x="441.77" y="-344.3" font-family="Helvetica,sans-Serif" font-size="14.00">Bne</text>
<path fill="none" stroke="black" d="M447.44,-332C447.44,-332 464.1,-332 464.1,-332 469.44,-332 474.77,-337.33 474.77,-342.67 474.77,-342.67 474.77,-353.33 474.77,-353.33 474.77,-358.67 469.44,-364 464.1,-364 464.1,-364 447.44,-364 447.44,-364 442.1,-364 436.77,-358.67 436.77,-353.33 436.77,-353.33 436.77,-342.67 436.77,-342.67 436.77,-337.33 442.1,-332 447.44,-332"/>
</a>
</g>
</g>
<!-- function&#45;0&#45;RegVal -->
<g id="node24" class="node">
<title>function&#45;0&#45;RegVal</title>
<g id="a_node24"><a xlink:title="Inst&#45;0: function&#45;0&#45;RegVal">
<path fill="white" stroke="transparent" d="M41.94,-174C41.94,-174 77.6,-174 77.6,-174 82.94,-174 88.27,-179.33 88.27,-184.67 88.27,-184.67 88.27,-195.33 88.27,-195.33 88.27,-200.67 82.94,-206 77.6,-206 77.6,-206 41.94,-206 41.94,-206 36.6,-206 31.27,-200.67 31.27,-195.33 31.27,-195.33 31.27,-184.67 31.27,-184.67 31.27,-179.33 36.6,-174 41.94,-174"/>
<text text-anchor="start" x="36.77" y="-186.3" font-family="Helvetica,sans-Serif" font-size="14.00">RegVal</text>
<path fill="none" stroke="black" d="M41.94,-174C41.94,-174 77.6,-174 77.6,-174 82.94,-174 88.27,-179.33 88.27,-184.67 88.27,-184.67 88.27,-195.33 88.27,-195.33 88.27,-200.67 82.94,-206 77.6,-206 77.6,-206 41.94,-206 41.94,-206 36.6,-206 31.27,-200.67 31.27,-195.33 31.27,-195.33 31.27,-184.67 31.27,-184.67 31.27,-179.33 36.6,-174 41.94,-174"/>
</a>
</g>
</g>
<!-- function&#45;1&#45;Bne -->
<g id="node25" class="node">
<title>function&#45;1&#45;Bne</title>
<g id="a_node25"><a xlink:title="Inst&#45;20: function&#45;1&#45;Bne">
<path fill="white" stroke="transparent" d="M389.44,-332C389.44,-332 406.1,-332 406.1,-332 411.44,-332 416.77,-337.33 416.77,-342.67 416.77,-342.67 416.77,-353.33 416.77,-353.33 416.77,-358.67 411.44,-364 406.1,-364 406.1,-364 389.44,-364 389.44,-364 384.1,-364 378.77,-358.67 378.77,-353.33 378.77,-353.33 378.77,-342.67 378.77,-342.67 378.77,-337.33 384.1,-332 389.44,-332"/>
<text text-anchor="start" x="383.77" y="-344.3" font-family="Helvetica,sans-Serif" font-size="14.00">Bne</text>
<path fill="none" stroke="black" d="M389.44,-332C389.44,-332 406.1,-332 406.1,-332 411.44,-332 416.77,-337.33 416.77,-342.67 416.77,-342.67 416.77,-353.33 416.77,-353.33 416.77,-358.67 411.44,-364 406.1,-364 406.1,-364 389.44,-364 389.44,-364 384.1,-364 378.77,-358.67 378.77,-353.33 378.77,-353.33 378.77,-342.67 378.77,-342.67 378.77,-337.33 384.1,-332 389.44,-332"/>
</a>
</g>
</g>
<!-- function&#45;0&#45;Seq2 -->
<g id="node26" class="node">
<title>function&#45;0&#45;Seq2</title>
<g id="a_node26"><a xlink:title="Inst&#45;20: function&#45;0&#45;Seq2">
<path fill="white" stroke="transparent" d="M327.44,-332C327.44,-332 352.1,-332 352.1,-332 357.44,-332 362.77,-337.33 362.77,-342.67 362.77,-342.67 362.77,-353.33 362.77,-353.33 362.77,-358.67 357.44,-364 352.1,-364 352.1,-364 327.44,-364 327.44,-364 322.1,-364 316.77,-358.67 316.77,-353.33 316.77,-353.33 316.77,-342.67 316.77,-342.67 316.77,-337.33 322.1,-332 327.44,-332"/>
<text text-anchor="start" x="321.77" y="-344.3" font-family="Helvetica,sans-Serif" font-size="14.00">Seq2</text>
<path fill="none" stroke="black" d="M327.44,-332C327.44,-332 352.1,-332 352.1,-332 357.44,-332 362.77,-337.33 362.77,-342.67 362.77,-342.67 362.77,-353.33 362.77,-353.33 362.77,-358.67 357.44,-364 352.1,-364 352.1,-364 327.44,-364 327.44,-364 322.1,-364 316.77,-358.67 316.77,-353.33 316.77,-353.33 316.77,-342.67 316.77,-342.67 316.77,-337.33 322.1,-332 327.44,-332"/>
</a>
</g>
</g>
<!-- function&#45;0&#45;Beq -->
<g id="node27" class="node">
<title>function&#45;0&#45;Beq</title>
<g id="a_node27"><a xlink:title="Inst&#45;21: function&#45;0&#45;Beq">
<path fill="white" stroke="transparent" d="M340.44,-253C340.44,-253 357.1,-253 357.1,-253 362.44,-253 367.77,-258.33 367.77,-263.67 367.77,-263.67 367.77,-274.33 367.77,-274.33 367.77,-279.67 362.44,-285 357.1,-285 357.1,-285 340.44,-285 340.44,-285 335.1,-285 329.77,-279.67 329.77,-274.33 329.77,-274.33 329.77,-263.67 329.77,-263.67 329.77,-258.33 335.1,-253 340.44,-253"/>
<text text-anchor="start" x="334.77" y="-265.3" font-family="Helvetica,sans-Serif" font-size="14.00">Beq</text>
<path fill="none" stroke="black" d="M340.44,-253C340.44,-253 357.1,-253 357.1,-253 362.44,-253 367.77,-258.33 367.77,-263.67 367.77,-263.67 367.77,-274.33 367.77,-274.33 367.77,-279.67 362.44,-285 357.1,-285 357.1,-285 340.44,-285 340.44,-285 335.1,-285 329.77,-279.67 329.77,-274.33 329.77,-274.33 329.77,-263.67 329.77,-263.67 329.77,-258.33 335.1,-253 340.44,-253"/>
</a>
</g>
</g>
<!-- function&#45;0&#45;Jal -->
<g id="node28" class="node">
<title>function&#45;0&#45;Jal</title>
<g id="a_node28"><a xlink:title="Inst&#45;22: function&#45;0&#45;Jal">
<path fill="white" stroke="transparent" d="M431.44,-253C431.44,-253 442.1,-253 442.1,-253 447.44,-253 452.77,-258.33 452.77,-263.67 452.77,-263.67 452.77,-274.33 452.77,-274.33 452.77,-279.67 447.44,-285 442.1,-285 442.1,-285 431.44,-285 431.44,-285 426.1,-285 420.77,-279.67 420.77,-274.33 420.77,-274.33 420.77,-263.67 420.77,-263.67 420.77,-258.33 426.1,-253 431.44,-253"/>
<text text-anchor="start" x="428.27" y="-265.3" font-family="Helvetica,sans-Serif" font-size="14.00">Jal</text>
<path fill="none" stroke="black" d="M431.44,-253C431.44,-253 442.1,-253 442.1,-253 447.44,-253 452.77,-258.33 452.77,-263.67 452.77,-263.67 452.77,-274.33 452.77,-274.33 452.77,-279.67 447.44,-285 442.1,-285 442.1,-285 431.44,-285 431.44,-285 426.1,-285 420.77,-279.67 420.77,-274.33 420.77,-274.33 420.77,-263.67 420.77,-263.67 420.77,-258.33 426.1,-253 431.44,-253"/>
</a>
</g>
</g>
<!-- function&#45;1&#45;Sw -->
<g id="node29" class="node">
<title>function&#45;1&#45;Sw</title>
<g id="a_node29"><a xlink:title="Inst&#45;10: function&#45;1&#45;Sw">
<path fill="white" stroke="transparent" d="M751.44,-253C751.44,-253 762.1,-253 762.1,-253 767.44,-253 772.77,-258.33 772.77,-263.67 772.77,-263.67 772.77,-274.33 772.77,-274.33 772.77,-279.67 767.44,-285 762.1,-285 762.1,-285 751.44,-285 751.44,-285 746.1,-285 740.77,-279.67 740.77,-274.33 740.77,-274.33 740.77,-263.67 740.77,-263.67 740.77,-258.33 746.1,-253 751.44,-253"/>
<text text-anchor="start" x="746.27" y="-265.3" font-family="Helvetica,sans-Serif" font-size="14.00">Sw</text>
<path fill="none" stroke="black" d="M751.44,-253C751.44,-253 762.1,-253 762.1,-253 767.44,-253 772.77,-258.33 772.77,-263.67 772.77,-263.67 772.77,-274.33 772.77,-274.33 772.77,-279.67 767.44,-285 762.1,-285 762.1,-285 751.44,-285 751.44,-285 746.1,-285 740.77,-279.67 740.77,-274.33 740.77,-274.33 740.77,-263.67 740.77,-263.67 740.77,-258.33 746.1,-253 751.44,-253"/>
</a>
</g>
</g>
<!-- function&#45;1&#45;Lw -->
<g id="node30" class="node">
<title>function&#45;1&#45;Lw</title>
<g id="a_node30"><a xlink:title="Inst&#45;6: function&#45;1&#45;Lw">
<path fill="white" stroke="transparent" d="M755.44,-174C755.44,-174 766.1,-174 766.1,-174 771.44,-174 776.77,-179.33 776.77,-184.67 776.77,-184.67 776.77,-195.33 776.77,-195.33 776.77,-200.67 771.44,-206 766.1,-206 766.1,-206 755.44,-206 755.44,-206 750.1,-206 744.77,-200.67 744.77,-195.33 744.77,-195.33 744.77,-184.67 744.77,-184.67 744.77,-179.33 750.1,-174 755.44,-174"/>
<text text-anchor="start" x="751.27" y="-186.3" font-family="Helvetica,sans-Serif" font-size="14.00">Lw</text>
<path fill="none" stroke="black" d="M755.44,-174C755.44,-174 766.1,-174 766.1,-174 771.44,-174 776.77,-179.33 776.77,-184.67 776.77,-184.67 776.77,-195.33 776.77,-195.33 776.77,-200.67 771.44,-206 766.1,-206 766.1,-206 755.44,-206 755.44,-206 750.1,-206 744.77,-200.67 744.77,-195.33 744.77,-195.33 744.77,-184.67 744.77,-184.67 744.77,-179.33 750.1,-174 755.44,-174"/>
</a>
</g>
</g>
<!-- primitive&#45;String&#45;2 -->
<g id="node31" class="node">
<title>primitive&#45;String&#45;2</title>
<g id="a_node31"><a xlink:title="String&#45;2: primitive&#45;String&#45;2">
<path fill="white" stroke="transparent" d="M559.94,-95C559.94,-95 595.6,-95 595.6,-95 600.94,-95 606.27,-100.33 606.27,-105.67 606.27,-105.67 606.27,-116.33 606.27,-116.33 606.27,-121.67 600.94,-127 595.6,-127 595.6,-127 559.94,-127 559.94,-127 554.6,-127 549.27,-121.67 549.27,-116.33 549.27,-116.33 549.27,-105.67 549.27,-105.67 549.27,-100.33 554.6,-95 559.94,-95"/>
<text text-anchor="start" x="554.77" y="-107.3" font-family="Helvetica,sans-Serif" font-size="14.00">&quot;a4_0&quot;</text>
<path fill="none" stroke="black" d="M559.94,-95C559.94,-95 595.6,-95 595.6,-95 600.94,-95 606.27,-100.33 606.27,-105.67 606.27,-105.67 606.27,-116.33 606.27,-116.33 606.27,-121.67 600.94,-127 595.6,-127 595.6,-127 559.94,-127 559.94,-127 554.6,-127 549.27,-121.67 549.27,-116.33 549.27,-116.33 549.27,-105.67 549.27,-105.67 549.27,-100.33 554.6,-95 559.94,-95"/>
</a>
</g>
</g>
<!-- function&#45;1&#45;Beq -->
<g id="node32" class="node">
<title>function&#45;1&#45;Beq</title>
<g id="a_node32"><a xlink:title="Inst&#45;21: function&#45;1&#45;Beq">
<path fill="white" stroke="transparent" d="M282.44,-253C282.44,-253 299.1,-253 299.1,-253 304.44,-253 309.77,-258.33 309.77,-263.67 309.77,-263.67 309.77,-274.33 309.77,-274.33 309.77,-279.67 304.44,-285 299.1,-285 299.1,-285 282.44,-285 282.44,-285 277.1,-285 271.77,-279.67 271.77,-274.33 271.77,-274.33 271.77,-263.67 271.77,-263.67 271.77,-258.33 277.1,-253 282.44,-253"/>
<text text-anchor="start" x="276.77" y="-265.3" font-family="Helvetica,sans-Serif" font-size="14.00">Beq</text>
<path fill="none" stroke="black" d="M282.44,-253C282.44,-253 299.1,-253 299.1,-253 304.44,-253 309.77,-258.33 309.77,-263.67 309.77,-263.67 309.77,-274.33 309.77,-274.33 309.77,-279.67 304.44,-285 299.1,-285 299.1,-285 282.44,-285 282.44,-285 277.1,-285 271.77,-279.67 271.77,-274.33 271.77,-274.33 271.77,-263.67 271.77,-263.67 271.77,-258.33 277.1,-253 282.44,-253"/>
</a>
</g>
</g>
<!-- function&#45;1&#45;Seq2 -->
<g id="node33" class="node">
<title>function&#45;1&#45;Seq2</title>
<g id="a_node33"><a xlink:title="Inst&#45;21: function&#45;1&#45;Seq2">
<path fill="white" stroke="transparent" d="M220.44,-253C220.44,-253 245.1,-253 245.1,-253 250.44,-253 255.77,-258.33 255.77,-263.67 255.77,-263.67 255.77,-274.33 255.77,-274.33 255.77,-279.67 250.44,-285 245.1,-285 245.1,-285 220.44,-285 220.44,-285 215.1,-285 209.77,-279.67 209.77,-274.33 209.77,-274.33 209.77,-263.67 209.77,-263.67 209.77,-258.33 215.1,-253 220.44,-253"/>
<text text-anchor="start" x="214.77" y="-265.3" font-family="Helvetica,sans-Serif" font-size="14.00">Seq2</text>
<path fill="none" stroke="black" d="M220.44,-253C220.44,-253 245.1,-253 245.1,-253 250.44,-253 255.77,-258.33 255.77,-263.67 255.77,-263.67 255.77,-274.33 255.77,-274.33 255.77,-279.67 250.44,-285 245.1,-285 245.1,-285 220.44,-285 220.44,-285 215.1,-285 209.77,-279.67 209.77,-274.33 209.77,-274.33 209.77,-263.67 209.77,-263.67 209.77,-258.33 215.1,-253 220.44,-253"/>
</a>
</g>
</g>
<!-- function&#45;2&#45;Bne -->
<g id="node34" class="node">
<title>function&#45;2&#45;Bne</title>
<g id="a_node34"><a xlink:title="Inst&#45;23: function&#45;2&#45;Bne">
<path fill="white" stroke="transparent" d="M42.44,-253C42.44,-253 59.1,-253 59.1,-253 64.44,-253 69.77,-258.33 69.77,-263.67 69.77,-263.67 69.77,-274.33 69.77,-274.33 69.77,-279.67 64.44,-285 59.1,-285 59.1,-285 42.44,-285 42.44,-285 37.1,-285 31.77,-279.67 31.77,-274.33 31.77,-274.33 31.77,-263.67 31.77,-263.67 31.77,-258.33 37.1,-253 42.44,-253"/>
<text text-anchor="start" x="36.77" y="-265.3" font-family="Helvetica,sans-Serif" font-size="14.00">Bne</text>
<path fill="none" stroke="black" d="M42.44,-253C42.44,-253 59.1,-253 59.1,-253 64.44,-253 69.77,-258.33 69.77,-263.67 69.77,-263.67 69.77,-274.33 69.77,-274.33 69.77,-279.67 64.44,-285 59.1,-285 59.1,-285 42.44,-285 42.44,-285 37.1,-285 31.77,-279.67 31.77,-274.33 31.77,-274.33 31.77,-263.67 31.77,-263.67 31.77,-258.33 37.1,-253 42.44,-253"/>
</a>
</g>
</g>
<!-- function&#45;3&#45;Lw -->
<g id="node35" class="node">
<title>function&#45;3&#45;Lw</title>
<g id="a_node35"><a xlink:title="Inst&#45;13: function&#45;3&#45;Lw">
<path fill="white" stroke="transparent" d="M677.44,-253C677.44,-253 688.1,-253 688.1,-253 693.44,-253 698.77,-258.33 698.77,-263.67 698.77,-263.67 698.77,-274.33 698.77,-274.33 698.77,-279.67 693.44,-285 688.1,-285 688.1,-285 677.44,-285 677.44,-285 672.1,-285 666.77,-279.67 666.77,-274.33 666.77,-274.33 666.77,-263.67 666.77,-263.67 666.77,-258.33 672.1,-253 677.44,-253"/>
<text text-anchor="start" x="673.27" y="-265.3" font-family="Helvetica,sans-Serif" font-size="14.00">Lw</text>
<path fill="none" stroke="black" d="M677.44,-253C677.44,-253 688.1,-253 688.1,-253 693.44,-253 698.77,-258.33 698.77,-263.67 698.77,-263.67 698.77,-274.33 698.77,-274.33 698.77,-279.67 693.44,-285 688.1,-285 688.1,-285 677.44,-285 677.44,-285 672.1,-285 666.77,-279.67 666.77,-274.33 666.77,-274.33 666.77,-263.67 666.77,-263.67 666.77,-258.33 672.1,-253 677.44,-253"/>
</a>
</g>
</g>
<!-- function&#45;3&#45;Bne -->
<g id="node36" class="node">
<title>function&#45;3&#45;Bne</title>
<g id="a_node36"><a xlink:title="Inst&#45;23: function&#45;3&#45;Bne">
<path fill="white" stroke="transparent" d="M100.44,-253C100.44,-253 117.1,-253 117.1,-253 122.44,-253 127.77,-258.33 127.77,-263.67 127.77,-263.67 127.77,-274.33 127.77,-274.33 127.77,-279.67 122.44,-285 117.1,-285 117.1,-285 100.44,-285 100.44,-285 95.1,-285 89.77,-279.67 89.77,-274.33 89.77,-274.33 89.77,-263.67 89.77,-263.67 89.77,-258.33 95.1,-253 100.44,-253"/>
<text text-anchor="start" x="94.77" y="-265.3" font-family="Helvetica,sans-Serif" font-size="14.00">Bne</text>
<path fill="none" stroke="black" d="M100.44,-253C100.44,-253 117.1,-253 117.1,-253 122.44,-253 127.77,-258.33 127.77,-263.67 127.77,-263.67 127.77,-274.33 127.77,-274.33 127.77,-279.67 122.44,-285 117.1,-285 117.1,-285 100.44,-285 100.44,-285 95.1,-285 89.77,-279.67 89.77,-274.33 89.77,-274.33 89.77,-263.67 89.77,-263.67 89.77,-258.33 95.1,-253 100.44,-253"/>
</a>
</g>
</g>
<!-- function&#45;2&#45;Seq2 -->
<g id="node37" class="node">
<title>function&#45;2&#45;Seq2</title>
<g id="a_node37"><a xlink:title="Inst&#45;23: function&#45;2&#45;Seq2">
<path fill="white" stroke="transparent" d="M154.44,-253C154.44,-253 179.1,-253 179.1,-253 184.44,-253 189.77,-258.33 189.77,-263.67 189.77,-263.67 189.77,-274.33 189.77,-274.33 189.77,-279.67 184.44,-285 179.1,-285 179.1,-285 154.44,-285 154.44,-285 149.1,-285 143.77,-279.67 143.77,-274.33 143.77,-274.33 143.77,-263.67 143.77,-263.67 143.77,-258.33 149.1,-253 154.44,-253"/>
<text text-anchor="start" x="148.77" y="-265.3" font-family="Helvetica,sans-Serif" font-size="14.00">Seq2</text>
<path fill="none" stroke="black" d="M154.44,-253C154.44,-253 179.1,-253 179.1,-253 184.44,-253 189.77,-258.33 189.77,-263.67 189.77,-263.67 189.77,-274.33 189.77,-274.33 189.77,-279.67 184.44,-285 179.1,-285 179.1,-285 154.44,-285 154.44,-285 149.1,-285 143.77,-279.67 143.77,-274.33 143.77,-274.33 143.77,-263.67 143.77,-263.67 143.77,-258.33 149.1,-253 154.44,-253"/>
</a>
</g>
</g>
<!-- function&#45;0&#45;Sw -->
<g id="node38" class="node">
<title>function&#45;0&#45;Sw</title>
<g id="a_node38"><a xlink:title="Inst&#45;9: function&#45;0&#45;Sw">
<path fill="white" stroke="transparent" d="M895.44,-253C895.44,-253 906.1,-253 906.1,-253 911.44,-253 916.77,-258.33 916.77,-263.67 916.77,-263.67 916.77,-274.33 916.77,-274.33 916.77,-279.67 911.44,-285 906.1,-285 906.1,-285 895.44,-285 895.44,-285 890.1,-285 884.77,-279.67 884.77,-274.33 884.77,-274.33 884.77,-263.67 884.77,-263.67 884.77,-258.33 890.1,-253 895.44,-253"/>
<text text-anchor="start" x="890.27" y="-265.3" font-family="Helvetica,sans-Serif" font-size="14.00">Sw</text>
<path fill="none" stroke="black" d="M895.44,-253C895.44,-253 906.1,-253 906.1,-253 911.44,-253 916.77,-258.33 916.77,-263.67 916.77,-263.67 916.77,-274.33 916.77,-274.33 916.77,-279.67 911.44,-285 906.1,-285 906.1,-285 895.44,-285 895.44,-285 890.1,-285 884.77,-279.67 884.77,-274.33 884.77,-274.33 884.77,-263.67 884.77,-263.67 884.77,-258.33 890.1,-253 895.44,-253"/>
</a>
</g>
</g>
<!-- function&#45;3&#45;Sw -->
<g id="node39" class="node">
<title>function&#45;3&#45;Sw</title>
<g id="a_node39"><a xlink:title="Inst&#45;18: function&#45;3&#45;Sw">
<path fill="white" stroke="transparent" d="M673.44,-332C673.44,-332 684.1,-332 684.1,-332 689.44,-332 694.77,-337.33 694.77,-342.67 694.77,-342.67 694.77,-353.33 694.77,-353.33 694.77,-358.67 689.44,-364 684.1,-364 684.1,-364 673.44,-364 673.44,-364 668.1,-364 662.77,-358.67 662.77,-353.33 662.77,-353.33 662.77,-342.67 662.77,-342.67 662.77,-337.33 668.1,-332 673.44,-332"/>
<text text-anchor="start" x="668.27" y="-344.3" font-family="Helvetica,sans-Serif" font-size="14.00">Sw</text>
<path fill="none" stroke="black" d="M673.44,-332C673.44,-332 684.1,-332 684.1,-332 689.44,-332 694.77,-337.33 694.77,-342.67 694.77,-342.67 694.77,-353.33 694.77,-353.33 694.77,-358.67 689.44,-364 684.1,-364 684.1,-364 673.44,-364 673.44,-364 668.1,-364 662.77,-358.67 662.77,-353.33 662.77,-353.33 662.77,-342.67 662.77,-342.67 662.77,-337.33 668.1,-332 673.44,-332"/>
</a>
</g>
</g>
<!-- function&#45;1&#45;Addi -->
<g id="node40" class="node">
<title>function&#45;1&#45;Addi</title>
<g id="a_node40"><a xlink:title="Inst&#45;16: function&#45;1&#45;Addi">
<path fill="white" stroke="transparent" d="M606.94,-253C606.94,-253 626.6,-253 626.6,-253 631.94,-253 637.27,-258.33 637.27,-263.67 637.27,-263.67 637.27,-274.33 637.27,-274.33 637.27,-279.67 631.94,-285 626.6,-285 626.6,-285 606.94,-285 606.94,-285 601.6,-285 596.27,-279.67 596.27,-274.33 596.27,-274.33 596.27,-263.67 596.27,-263.67 596.27,-258.33 601.6,-253 606.94,-253"/>
<text text-anchor="start" x="601.77" y="-265.3" font-family="Helvetica,sans-Serif" font-size="14.00">Addi</text>
<path fill="none" stroke="black" d="M606.94,-253C606.94,-253 626.6,-253 626.6,-253 631.94,-253 637.27,-258.33 637.27,-263.67 637.27,-263.67 637.27,-274.33 637.27,-274.33 637.27,-279.67 631.94,-285 626.6,-285 626.6,-285 606.94,-285 606.94,-285 601.6,-285 596.27,-279.67 596.27,-274.33 596.27,-274.33 596.27,-263.67 596.27,-263.67 596.27,-258.33 601.6,-253 606.94,-253"/>
</a>
</g>
</g>
<!-- primitive&#45;String&#45;1 -->
<g id="node41" class="node">
<title>primitive&#45;String&#45;1</title>
<g id="a_node41"><a xlink:title="String&#45;1: primitive&#45;String&#45;1">
<path fill="white" stroke="transparent" d="M42.94,-95C42.94,-95 78.6,-95 78.6,-95 83.94,-95 89.27,-100.33 89.27,-105.67 89.27,-105.67 89.27,-116.33 89.27,-116.33 89.27,-121.67 83.94,-127 78.6,-127 78.6,-127 42.94,-127 42.94,-127 37.6,-127 32.27,-121.67 32.27,-116.33 32.27,-116.33 32.27,-105.67 32.27,-105.67 32.27,-100.33 37.6,-95 42.94,-95"/>
<text text-anchor="start" x="37.77" y="-107.3" font-family="Helvetica,sans-Serif" font-size="14.00">&quot;a3_0&quot;</text>
<path fill="none" stroke="black" d="M42.94,-95C42.94,-95 78.6,-95 78.6,-95 83.94,-95 89.27,-100.33 89.27,-105.67 89.27,-105.67 89.27,-116.33 89.27,-116.33 89.27,-121.67 83.94,-127 78.6,-127 78.6,-127 42.94,-127 42.94,-127 37.6,-127 32.27,-121.67 32.27,-116.33 32.27,-116.33 32.27,-105.67 32.27,-105.67 32.27,-100.33 37.6,-95 42.94,-95"/>
</a>
</g>
</g>
</g>
</svg>
