<?xml version="1.0" encoding="UTF-8" standalone="no"?>
<!DOCTYPE svg PUBLIC "-//W3C//DTD SVG 1.1//EN"
 "http://www.w3.org/Graphics/SVG/1.1/DTD/svg11.dtd">
<!-- Generated by graphviz version 2.43.0 (0)
 -->
<!-- Title: %3 Pages: 1 -->
<svg width="1012pt" height="388pt"
 viewBox="0.00 0.00 1012.00 388.00" xmlns="http://www.w3.org/2000/svg" xmlns:xlink="http://www.w3.org/1999/xlink">
<g id="graph0" class="graph" transform="scale(1 1) rotate(0) translate(4 384)">
<title>%3</title>
<polygon fill="white" stroke="#000000" points="-4,4 -4,-384 1008,-384 1008,4 -4,4"/>
<g id="clust1" class="cluster">
<title>outer_cluster_Imm&#45;5</title>
</g>
<g id="clust2" class="cluster">
<title>cluster_Imm&#45;5</title>
<path fill="#ffffb3" stroke="black" stroke-dasharray="5,2" d="M937,-90C937,-90 981,-90 981,-90 987,-90 993,-96 993,-102 993,-102 993,-120 993,-120 993,-126 987,-132 981,-132 981,-132 937,-132 937,-132 931,-132 925,-126 925,-120 925,-120 925,-102 925,-102 925,-96 931,-90 937,-90"/>
</g>
<g id="clust4" class="cluster">
<title>outer_cluster_Imm&#45;12</title>
</g>
<g id="clust5" class="cluster">
<title>cluster_Imm&#45;12</title>
<path fill="#ffffb3" stroke="black" stroke-dasharray="5,2" d="M664,-169C664,-169 708,-169 708,-169 714,-169 720,-175 720,-181 720,-181 720,-199 720,-199 720,-205 714,-211 708,-211 708,-211 664,-211 664,-211 658,-211 652,-205 652,-199 652,-199 652,-181 652,-181 652,-175 658,-169 664,-169"/>
</g>
<g id="clust7" class="cluster">
<title>outer_cluster_Imm&#45;14</title>
</g>
<g id="clust8" class="cluster">
<title>cluster_Imm&#45;14</title>
<path fill="#ffffb3" stroke="black" stroke-dasharray="5,2" d="M635,-90C635,-90 679,-90 679,-90 685,-90 691,-96 691,-102 691,-102 691,-120 691,-120 691,-126 685,-132 679,-132 679,-132 635,-132 635,-132 629,-132 623,-126 623,-120 623,-120 623,-102 623,-102 623,-96 629,-90 635,-90"/>
</g>
<g id="clust10" class="cluster">
<title>outer_cluster_Imm&#45;19</title>
</g>
<g id="clust11" class="cluster">
<title>cluster_Imm&#45;19</title>
<path fill="#ffffb3" stroke="black" stroke-dasharray="5,2" d="M80,-169C80,-169 140,-169 140,-169 146,-169 152,-175 152,-181 152,-181 152,-199 152,-199 152,-205 146,-211 140,-211 140,-211 80,-211 80,-211 74,-211 68,-205 68,-199 68,-199 68,-181 68,-181 68,-175 74,-169 80,-169"/>
</g>
<g id="clust13" class="cluster">
<title>outer_cluster_Imm&#45;17</title>
</g>
<g id="clust14" class="cluster">
<title>cluster_Imm&#45;17</title>
<path fill="#ffffb3" stroke="black" stroke-dasharray="5,2" d="M537,-248C537,-248 581,-248 581,-248 587,-248 593,-254 593,-260 593,-260 593,-278 593,-278 593,-284 587,-290 581,-290 581,-290 537,-290 537,-290 531,-290 525,-284 525,-278 525,-278 525,-260 525,-260 525,-254 531,-248 537,-248"/>
</g>
<g id="clust16" class="cluster">
<title>outer_cluster_Imm&#45;3</title>
</g>
<g id="clust17" class="cluster">
<title>cluster_Imm&#45;3</title>
<path fill="#ffffb3" stroke="black" stroke-dasharray="5,2" d="M857,-90C857,-90 901,-90 901,-90 907,-90 913,-96 913,-102 913,-102 913,-120 913,-120 913,-126 907,-132 901,-132 901,-132 857,-132 857,-132 851,-132 845,-126 845,-120 845,-120 845,-102 845,-102 845,-96 851,-90 857,-90"/>
</g>
<g id="clust19" class="cluster">
<title>outer_cluster_Imm&#45;7</title>
</g>
<g id="clust20" class="cluster">
<title>cluster_Imm&#45;7</title>
<path fill="#ffffb3" stroke="black" stroke-dasharray="5,2" d="M401,-90C401,-90 445,-90 445,-90 451,-90 457,-96 457,-102 457,-102 457,-120 457,-120 457,-126 451,-132 445,-132 445,-132 401,-132 401,-132 395,-132 389,-126 389,-120 389,-120 389,-102 389,-102 389,-96 395,-90 401,-90"/>
</g>
<g id="clust22" class="cluster">
<title>outer_cluster_Inst&#45;1</title>
</g>
<g id="clust23" class="cluster">
<title>cluster_Inst&#45;1</title>
<path fill="#bebada" stroke="black" stroke-dasharray="5,2" d="M760,-169C760,-169 800,-169 800,-169 806,-169 812,-175 812,-181 812,-181 812,-199 812,-199 812,-205 806,-211 800,-211 800,-211 760,-211 760,-211 754,-211 748,-205 748,-199 748,-199 748,-181 748,-181 748,-175 754,-169 760,-169"/>
</g>
<g id="clust25" class="cluster">
<title>outer_cluster_Inst&#45;13</title>
</g>
<g id="clust26" class="cluster">
<title>cluster_Inst&#45;13</title>
<path fill="#bebada" stroke="black" stroke-dasharray="5,2" d="M677,-248C677,-248 713,-248 713,-248 719,-248 725,-254 725,-260 725,-260 725,-278 725,-278 725,-284 719,-290 713,-290 713,-290 677,-290 677,-290 671,-290 665,-284 665,-278 665,-278 665,-260 665,-260 665,-254 671,-248 677,-248"/>
</g>
<g id="clust28" class="cluster">
<title>outer_cluster_Inst&#45;20</title>
</g>
<g id="clust29" class="cluster">
<title>cluster_Inst&#45;20</title>
<path fill="#bebada" stroke="black" stroke-dasharray="5,2" d="M23,-327C23,-327 175,-327 175,-327 181,-327 187,-333 187,-339 187,-339 187,-357 187,-357 187,-363 181,-369 175,-369 175,-369 23,-369 23,-369 17,-369 11,-363 11,-357 11,-357 11,-339 11,-339 11,-333 17,-327 23,-327"/>
</g>
<g id="clust31" class="cluster">
<title>outer_cluster_Inst&#45;22</title>
</g>
<g id="clust32" class="cluster">
<title>cluster_Inst&#45;22</title>
<path fill="#bebada" stroke="black" stroke-dasharray="5,2" d="M37,-248C37,-248 73,-248 73,-248 79,-248 85,-254 85,-260 85,-260 85,-278 85,-278 85,-284 79,-290 73,-290 73,-290 37,-290 37,-290 31,-290 25,-284 25,-278 25,-278 25,-260 25,-260 25,-254 31,-248 37,-248"/>
</g>
<g id="clust34" class="cluster">
<title>outer_cluster_Inst&#45;6</title>
</g>
<g id="clust35" class="cluster">
<title>cluster_Inst&#45;6</title>
<path fill="#bebada" stroke="black" stroke-dasharray="5,2" d="M908,-169C908,-169 944,-169 944,-169 950,-169 956,-175 956,-181 956,-181 956,-199 956,-199 956,-205 950,-211 944,-211 944,-211 908,-211 908,-211 902,-211 896,-205 896,-199 896,-199 896,-181 896,-181 896,-175 902,-169 908,-169"/>
</g>
<g id="clust37" class="cluster">
<title>outer_cluster_Inst&#45;0</title>
</g>
<g id="clust38" class="cluster">
<title>cluster_Inst&#45;0</title>
<path fill="#bebada" stroke="black" stroke-dasharray="5,2" d="M184,-169C184,-169 224,-169 224,-169 230,-169 236,-175 236,-181 236,-181 236,-199 236,-199 236,-205 230,-211 224,-211 224,-211 184,-211 184,-211 178,-211 172,-205 172,-199 172,-199 172,-181 172,-181 172,-175 178,-169 184,-169"/>
</g>
<g id="clust40" class="cluster">
<title>outer_cluster_Inst&#45;9</title>
</g>
<g id="clust41" class="cluster">
<title>cluster_Inst&#45;9</title>
<path fill="#bebada" stroke="black" stroke-dasharray="5,2" d="M826,-248C826,-248 862,-248 862,-248 868,-248 874,-254 874,-260 874,-260 874,-278 874,-278 874,-284 868,-290 862,-290 862,-290 826,-290 826,-290 820,-290 814,-284 814,-278 814,-278 814,-260 814,-260 814,-254 820,-248 826,-248"/>
</g>
<g id="clust43" class="cluster">
<title>outer_cluster_Inst&#45;21</title>
</g>
<g id="clust44" class="cluster">
<title>cluster_Inst&#45;21</title>
<path fill="#bebada" stroke="black" stroke-dasharray="5,2" d="M333,-248C333,-248 485,-248 485,-248 491,-248 497,-254 497,-260 497,-260 497,-278 497,-278 497,-284 491,-290 485,-290 485,-290 333,-290 333,-290 327,-290 321,-284 321,-278 321,-278 321,-260 321,-260 321,-254 327,-248 333,-248"/>
</g>
<g id="clust46" class="cluster">
<title>outer_cluster_Inst&#45;11</title>
</g>
<g id="clust47" class="cluster">
<title>cluster_Inst&#45;11</title>
<path fill="#bebada" stroke="black" stroke-dasharray="5,2" d="M611,-248C611,-248 647,-248 647,-248 653,-248 659,-254 659,-260 659,-260 659,-278 659,-278 659,-284 653,-290 647,-290 647,-290 611,-290 611,-290 605,-290 599,-284 599,-278 599,-278 599,-260 599,-260 599,-254 605,-248 611,-248"/>
</g>
<g id="clust49" class="cluster">
<title>outer_cluster_Inst&#45;23</title>
</g>
<g id="clust50" class="cluster">
<title>cluster_Inst&#45;23</title>
<path fill="#bebada" stroke="black" stroke-dasharray="5,2" d="M151,-248C151,-248 303,-248 303,-248 309,-248 315,-254 315,-260 315,-260 315,-278 315,-278 315,-284 309,-290 303,-290 303,-290 151,-290 151,-290 145,-290 139,-284 139,-278 139,-278 139,-260 139,-260 139,-254 145,-248 151,-248"/>
</g>
<g id="clust52" class="cluster">
<title>outer_cluster_Inst&#45;16</title>
</g>
<g id="clust53" class="cluster">
<title>cluster_Inst&#45;16</title>
<path fill="#bebada" stroke="black" stroke-dasharray="5,2" d="M743,-248C743,-248 779,-248 779,-248 785,-248 791,-254 791,-260 791,-260 791,-278 791,-278 791,-284 785,-290 779,-290 779,-290 743,-290 743,-290 737,-290 731,-284 731,-278 731,-278 731,-260 731,-260 731,-254 737,-248 743,-248"/>
</g>
<g id="clust55" class="cluster">
<title>outer_cluster_Inst&#45;18</title>
</g>
<g id="clust56" class="cluster">
<title>cluster_Inst&#45;18</title>
<path fill="#bebada" stroke="black" stroke-dasharray="5,2" d="M673,-327C673,-327 709,-327 709,-327 715,-327 721,-333 721,-339 721,-339 721,-357 721,-357 721,-363 715,-369 709,-369 709,-369 673,-369 673,-369 667,-369 661,-363 661,-357 661,-357 661,-339 661,-339 661,-333 667,-327 673,-327"/>
</g>
<g id="clust58" class="cluster">
<title>outer_cluster_Inst&#45;8</title>
</g>
<g id="clust59" class="cluster">
<title>cluster_Inst&#45;8</title>
<path fill="#bebada" stroke="black" stroke-dasharray="5,2" d="M598,-169C598,-169 634,-169 634,-169 640,-169 646,-175 646,-181 646,-181 646,-199 646,-199 646,-205 640,-211 634,-211 634,-211 598,-211 598,-211 592,-211 586,-205 586,-199 586,-199 586,-181 586,-181 586,-175 592,-169 598,-169"/>
</g>
<g id="clust61" class="cluster">
<title>outer_cluster_Inst&#45;15</title>
</g>
<g id="clust62" class="cluster">
<title>cluster_Inst&#45;15</title>
<path fill="#bebada" stroke="black" stroke-dasharray="5,2" d="M454,-169C454,-169 490,-169 490,-169 496,-169 502,-175 502,-181 502,-181 502,-199 502,-199 502,-205 496,-211 490,-211 490,-211 454,-211 454,-211 448,-211 442,-205 442,-199 442,-199 442,-181 442,-181 442,-175 448,-169 454,-169"/>
</g>
<g id="clust64" class="cluster">
<title>outer_cluster_Inst&#45;10</title>
</g>
<g id="clust65" class="cluster">
<title>cluster_Inst&#45;10</title>
<path fill="#bebada" stroke="black" stroke-dasharray="5,2" d="M904,-248C904,-248 940,-248 940,-248 946,-248 952,-254 952,-260 952,-260 952,-278 952,-278 952,-284 946,-290 940,-290 940,-290 904,-290 904,-290 898,-290 892,-284 892,-278 892,-278 892,-260 892,-260 892,-254 898,-248 904,-248"/>
</g>
<g id="clust67" class="cluster">
<title>outer_cluster_Inst&#45;24</title>
</g>
<g id="clust68" class="cluster">
<title>cluster_Inst&#45;24</title>
<path fill="#bebada" stroke="black" stroke-dasharray="5,2" d="M344,-169C344,-169 380,-169 380,-169 386,-169 392,-175 392,-181 392,-181 392,-199 392,-199 392,-205 386,-211 380,-211 380,-211 344,-211 344,-211 338,-211 332,-205 332,-199 332,-199 332,-181 332,-181 332,-175 338,-169 344,-169"/>
</g>
<g id="clust70" class="cluster">
<title>outer_cluster_Inst&#45;4</title>
</g>
<g id="clust71" class="cluster">
<title>cluster_Inst&#45;4</title>
<path fill="#bebada" stroke="black" stroke-dasharray="5,2" d="M830,-169C830,-169 866,-169 866,-169 872,-169 878,-175 878,-181 878,-181 878,-199 878,-199 878,-205 872,-211 866,-211 866,-211 830,-211 830,-211 824,-211 818,-205 818,-199 818,-199 818,-181 818,-181 818,-175 824,-169 830,-169"/>
</g>
<g id="clust73" class="cluster">
<title>outer_cluster_Inst&#45;2</title>
</g>
<g id="clust74" class="cluster">
<title>cluster_Inst&#45;2</title>
<path fill="#bebada" stroke="black" stroke-dasharray="5,2" d="M709,-90C709,-90 749,-90 749,-90 755,-90 761,-96 761,-102 761,-102 761,-120 761,-120 761,-126 755,-132 749,-132 749,-132 709,-132 709,-132 703,-132 697,-126 697,-120 697,-120 697,-102 697,-102 697,-96 703,-90 709,-90"/>
</g>
<g id="clust76" class="cluster">
<title>outer_cluster_String&#45;3</title>
</g>
<g id="clust77" class="cluster">
<title>cluster_String&#45;3</title>
<path fill="#fb8072" stroke="black" stroke-dasharray="5,2" d="M93,-90C93,-90 129,-90 129,-90 135,-90 141,-96 141,-102 141,-102 141,-120 141,-120 141,-126 135,-132 129,-132 129,-132 93,-132 93,-132 87,-132 81,-126 81,-120 81,-120 81,-102 81,-102 81,-96 87,-90 93,-90"/>
</g>
<g id="clust79" class="cluster">
<title>outer_cluster_String&#45;1</title>
</g>
<g id="clust80" class="cluster">
<title>cluster_String&#45;1</title>
<path fill="#fb8072" stroke="black" stroke-dasharray="5,2" d="M779,-90C779,-90 819,-90 819,-90 825,-90 831,-96 831,-102 831,-102 831,-120 831,-120 831,-126 825,-132 819,-132 819,-132 779,-132 779,-132 773,-132 767,-126 767,-120 767,-120 767,-102 767,-102 767,-96 773,-90 779,-90"/>
</g>
<g id="clust82" class="cluster">
<title>outer_cluster_String&#45;2</title>
</g>
<g id="clust83" class="cluster">
<title>cluster_String&#45;2</title>
<path fill="#fb8072" stroke="black" stroke-dasharray="5,2" d="M710,-11C710,-11 750,-11 750,-11 756,-11 762,-17 762,-23 762,-23 762,-41 762,-41 762,-47 756,-53 750,-53 750,-53 710,-53 710,-53 704,-53 698,-47 698,-41 698,-41 698,-23 698,-23 698,-17 704,-11 710,-11"/>
</g>
<g id="clust85" class="cluster">
<title>outer_cluster_String&#45;0</title>
</g>
<g id="clust86" class="cluster">
<title>cluster_String&#45;0</title>
<path fill="#fb8072" stroke="black" stroke-dasharray="5,2" d="M185,-90C185,-90 225,-90 225,-90 231,-90 237,-96 237,-102 237,-102 237,-120 237,-120 237,-126 231,-132 225,-132 225,-132 185,-132 185,-132 179,-132 173,-126 173,-120 173,-120 173,-102 173,-102 173,-96 179,-90 185,-90"/>
</g>
<g id="clust88" class="cluster">
<title>outer_cluster_i64&#45;4</title>
</g>
<g id="clust89" class="cluster">
<title>cluster_i64&#45;4</title>
<path fill="#80b1d3" stroke="black" stroke-dasharray="5,2" d="M405,-11C405,-11 441,-11 441,-11 447,-11 453,-17 453,-23 453,-23 453,-41 453,-41 453,-47 447,-53 441,-53 441,-53 405,-53 405,-53 399,-53 393,-47 393,-41 393,-41 393,-23 393,-23 393,-17 399,-11 405,-11"/>
</g>
<g id="clust91" class="cluster">
<title>outer_cluster_i64&#45;16</title>
</g>
<g id="clust92" class="cluster">
<title>cluster_i64&#45;16</title>
<path fill="#80b1d3" stroke="black" stroke-dasharray="5,2" d="M639,-11C639,-11 675,-11 675,-11 681,-11 687,-17 687,-23 687,-23 687,-41 687,-41 687,-47 681,-53 675,-53 675,-53 639,-53 639,-53 633,-53 627,-47 627,-41 627,-41 627,-23 627,-23 627,-17 633,-11 639,-11"/>
</g>
<g id="clust94" class="cluster">
<title>outer_cluster_i64&#45;8</title>
</g>
<g id="clust95" class="cluster">
<title>cluster_i64&#45;8</title>
<path fill="#80b1d3" stroke="black" stroke-dasharray="5,2" d="M861,-11C861,-11 897,-11 897,-11 903,-11 909,-17 909,-23 909,-23 909,-41 909,-41 909,-47 903,-53 897,-53 897,-53 861,-53 861,-53 855,-53 849,-47 849,-41 849,-41 849,-23 849,-23 849,-17 855,-11 861,-11"/>
</g>
<g id="clust97" class="cluster">
<title>outer_cluster_i64&#45;12</title>
</g>
<g id="clust98" class="cluster">
<title>cluster_i64&#45;12</title>
<path fill="#80b1d3" stroke="black" stroke-dasharray="5,2" d="M569,-90C569,-90 605,-90 605,-90 611,-90 617,-96 617,-102 617,-102 617,-120 617,-120 617,-126 611,-132 605,-132 605,-132 569,-132 569,-132 563,-132 557,-126 557,-120 557,-120 557,-102 557,-102 557,-96 563,-90 569,-90"/>
</g>
<g id="clust100" class="cluster">
<title>outer_cluster_i64&#45;0</title>
</g>
<g id="clust101" class="cluster">
<title>cluster_i64&#45;0</title>
<path fill="#80b1d3" stroke="black" stroke-dasharray="5,2" d="M941,-11C941,-11 977,-11 977,-11 983,-11 989,-17 989,-23 989,-23 989,-41 989,-41 989,-47 983,-53 977,-53 977,-53 941,-53 941,-53 935,-53 929,-47 929,-41 929,-41 929,-23 929,-23 929,-17 935,-11 941,-11"/>
</g>
<g id="clust103" class="cluster">
<title>outer_cluster_i64&#45;2147483649</title>
</g>
<g id="clust104" class="cluster">
<title>cluster_i64&#45;2147483649</title>
<path fill="#80b1d3" stroke="black" stroke-dasharray="5,2" d="M520,-169C520,-169 556,-169 556,-169 562,-169 568,-175 568,-181 568,-181 568,-199 568,-199 568,-205 562,-211 556,-211 556,-211 520,-211 520,-211 514,-211 508,-205 508,-199 508,-199 508,-181 508,-181 508,-175 514,-169 520,-169"/>
</g>
<!-- function&#45;1&#45;ImmVal&#45;&gt;primitive&#45;i64&#45;0 -->
<g id="edge1" class="edge">
<title>function&#45;1&#45;ImmVal:s&#45;&gt;primitive&#45;i64&#45;0</title>
<path fill="none" stroke="black" d="M959,-95C959,-81.84 959,-67.11 959,-55.3"/>
<polygon fill="black" stroke="black" points="960.75,-58 959,-53 957.25,-58 960.75,-58"/>
</g>
<!-- function&#45;3&#45;ImmVal&#45;&gt;primitive&#45;i64&#45;12 -->
<g id="edge2" class="edge">
<title>function&#45;3&#45;ImmVal:s&#45;&gt;primitive&#45;i64&#45;12</title>
<path fill="none" stroke="black" d="M686,-174C686,-140.69 650.14,-152.82 622,-135 620.43,-134.01 618.83,-132.99 617.22,-131.95"/>
<polygon fill="black" stroke="black" points="620.04,-135.52 617,-131.18 616.68,-136.47 620.04,-135.52"/>
</g>
<!-- function&#45;4&#45;ImmVal&#45;&gt;primitive&#45;i64&#45;16 -->
<g id="edge3" class="edge">
<title>function&#45;4&#45;ImmVal:s&#45;&gt;primitive&#45;i64&#45;16</title>
<path fill="none" stroke="black" d="M657,-95C657,-81.84 657,-67.11 657,-55.3"/>
<polygon fill="black" stroke="black" points="658.75,-58 657,-53 655.25,-58 658.75,-58"/>
</g>
<!-- function&#45;0&#45;ImmLabel&#45;&gt;primitive&#45;String&#45;3 -->
<g id="edge4" class="edge">
<title>function&#45;0&#45;ImmLabel:s&#45;&gt;primitive&#45;String&#45;3</title>
<path fill="none" stroke="black" d="M111,-174C111,-160.84 111,-146.11 111,-134.3"/>
<polygon fill="black" stroke="black" points="112.75,-137 111,-132 109.25,-137 112.75,-137"/>
</g>
<!-- function&#45;5&#45;ImmVal&#45;&gt;primitive&#45;i64&#45;2147483649 -->
<g id="edge5" class="edge">
<title>function&#45;5&#45;ImmVal:s&#45;&gt;primitive&#45;i64&#45;2147483649</title>
<path fill="none" stroke="black" d="M559,-253C559,-239.18 554.26,-224.49 549.28,-212.89"/>
<polygon fill="black" stroke="black" points="552.22,-214.39 548.15,-211 549.22,-216.19 552.22,-214.39"/>
</g>
<!-- function&#45;0&#45;ImmVal&#45;&gt;primitive&#45;i64&#45;8 -->
<g id="edge6" class="edge">
<title>function&#45;0&#45;ImmVal:s&#45;&gt;primitive&#45;i64&#45;8</title>
<path fill="none" stroke="black" d="M879,-95C879,-81.84 879,-67.11 879,-55.3"/>
<polygon fill="black" stroke="black" points="880.75,-58 879,-53 877.25,-58 880.75,-58"/>
</g>
<!-- function&#45;2&#45;ImmVal&#45;&gt;primitive&#45;i64&#45;4 -->
<g id="edge7" class="edge">
<title>function&#45;2&#45;ImmVal:s&#45;&gt;primitive&#45;i64&#45;4</title>
<path fill="none" stroke="black" d="M423,-95C423,-81.84 423,-67.11 423,-55.3"/>
<polygon fill="black" stroke="black" points="424.75,-58 423,-53 421.25,-58 424.75,-58"/>
</g>
<!-- function&#45;1&#45;RegVal&#45;&gt;primitive&#45;String&#45;1 -->
<g id="edge8" class="edge">
<title>function&#45;1&#45;RegVal:s&#45;&gt;primitive&#45;String&#45;1</title>
<path fill="none" stroke="black" d="M781,-174C781,-160.37 785.06,-145.69 789.33,-134.05"/>
<polygon fill="black" stroke="black" points="789.9,-137.29 790.16,-132 786.66,-135.98 789.9,-137.29"/>
</g>
<!-- function&#45;3&#45;Lw&#45;&gt;function&#45;3&#45;ImmVal -->
<g id="edge10" class="edge">
<title>function&#45;3&#45;Lw:s&#45;&gt;function&#45;3&#45;ImmVal</title>
<path fill="none" stroke="black" d="M703,-253C703,-239.33 699.11,-224.54 695.05,-212.84"/>
<polygon fill="black" stroke="black" points="697.79,-214.99 694.31,-211 694.55,-216.29 697.79,-214.99"/>
</g>
<!-- function&#45;3&#45;Lw&#45;&gt;function&#45;2&#45;RegVal -->
<g id="edge9" class="edge">
<title>function&#45;3&#45;Lw:s&#45;&gt;function&#45;2&#45;RegVal</title>
<path fill="none" stroke="black" d="M687,-253C687,-230 712.1,-235.2 721,-214 731.84,-188.18 732.37,-155.48 731.17,-134.17"/>
<polygon fill="black" stroke="black" points="733.33,-136.67 730.83,-132 729.87,-137.21 733.33,-136.67"/>
</g>
<!-- function&#45;2&#45;RegVal&#45;&gt;primitive&#45;String&#45;2 -->
<g id="edge60" class="edge">
<title>function&#45;2&#45;RegVal:s&#45;&gt;primitive&#45;String&#45;2</title>
<path fill="none" stroke="black" d="M730,-95C730,-81.84 730,-67.11 730,-55.3"/>
<polygon fill="black" stroke="black" points="731.75,-58 730,-53 728.25,-58 731.75,-58"/>
</g>
<!-- function&#45;0&#45;Bne&#45;&gt;function&#45;0&#45;ImmLabel -->
<g id="edge13" class="edge">
<title>function&#45;0&#45;Bne:s&#45;&gt;function&#45;0&#45;ImmLabel</title>
<path fill="none" stroke="black" d="M113,-332C113,-290.22 111.67,-241.5 110.78,-213.65"/>
<polygon fill="black" stroke="black" points="112.68,-215.88 110.61,-211 109.18,-216.1 112.68,-215.88"/>
</g>
<!-- function&#45;0&#45;Bne&#45;&gt;function&#45;0&#45;Addi -->
<g id="edge11" class="edge">
<title>function&#45;0&#45;Bne:s&#45;&gt;function&#45;0&#45;Addi</title>
<path fill="none" stroke="black" d="M90,-332C90,-240.92 436.36,-360.05 498,-293 518.29,-270.93 501.9,-235.25 487.5,-212.48"/>
<polygon fill="black" stroke="black" points="490.66,-212.76 485.66,-211 488.47,-215.49 490.66,-212.76"/>
</g>
<!-- function&#45;0&#45;Bne&#45;&gt;function&#45;0&#45;RegVal -->
<g id="edge12" class="edge">
<title>function&#45;0&#45;Bne:s&#45;&gt;function&#45;0&#45;RegVal</title>
<path fill="none" stroke="black" d="M104,-332C104,-291.24 109.28,-278.14 133,-245 142.96,-231.08 157.55,-219.12 170.92,-210.01"/>
<polygon fill="black" stroke="black" points="169.46,-213.69 172,-209.04 167.12,-211.09 169.46,-213.69"/>
</g>
<!-- function&#45;0&#45;Addi&#45;&gt;function&#45;4&#45;ImmVal -->
<g id="edge53" class="edge">
<title>function&#45;0&#45;Addi:s&#45;&gt;function&#45;4&#45;ImmVal</title>
<path fill="none" stroke="black" d="M482,-174C482,-111.12 560.15,-159.64 618,-135 618.54,-134.77 619.08,-134.54 619.62,-134.3"/>
<polygon fill="black" stroke="black" points="620.71,-135.71 624.49,-132 619.22,-132.55 620.71,-135.71"/>
</g>
<!-- function&#45;0&#45;Addi&#45;&gt;function&#45;2&#45;RegVal -->
<g id="edge52" class="edge">
<title>function&#45;0&#45;Addi:s&#45;&gt;function&#45;2&#45;RegVal</title>
<path fill="none" stroke="black" d="M462,-174C462,-122.16 643.5,-153.32 692,-135 692.72,-134.73 693.44,-134.44 694.16,-134.14"/>
<polygon fill="black" stroke="black" points="695.06,-135.65 698.9,-132 693.62,-132.47 695.06,-135.65"/>
</g>
<!-- function&#45;0&#45;RegVal&#45;&gt;primitive&#45;String&#45;0 -->
<g id="edge22" class="edge">
<title>function&#45;0&#45;RegVal:s&#45;&gt;primitive&#45;String&#45;0</title>
<path fill="none" stroke="black" d="M205,-174C205,-160.84 205,-146.11 205,-134.3"/>
<polygon fill="black" stroke="black" points="206.75,-137 205,-132 203.25,-137 206.75,-137"/>
</g>
<!-- function&#45;1&#45;Bne&#45;&gt;function&#45;0&#45;ImmLabel -->
<g id="edge16" class="edge">
<title>function&#45;1&#45;Bne:s&#45;&gt;function&#45;0&#45;ImmLabel</title>
<path fill="none" stroke="black" d="M171,-332C171,-309.29 148.59,-313.09 138,-293 124.5,-267.39 117.01,-234.64 113.25,-213.26"/>
<polygon fill="black" stroke="black" points="115.81,-215.03 112.37,-211 112.55,-216.29 115.81,-215.03"/>
</g>
<!-- function&#45;1&#45;Bne&#45;&gt;function&#45;0&#45;Addi -->
<g id="edge15" class="edge">
<title>function&#45;1&#45;Bne:s&#45;&gt;function&#45;0&#45;Addi</title>
<path fill="none" stroke="black" d="M162,-332C162,-254.4 457.29,-350.85 509,-293 529.56,-269.99 508.66,-234.67 490.94,-212.21"/>
<polygon fill="black" stroke="black" points="494.5,-213.19 489.68,-211 492.08,-215.72 494.5,-213.19"/>
</g>
<!-- function&#45;1&#45;Bne&#45;&gt;function&#45;0&#45;RegVal -->
<g id="edge14" class="edge">
<title>function&#45;1&#45;Bne:s&#45;&gt;function&#45;0&#45;RegVal</title>
<path fill="none" stroke="black" d="M148,-332C148,-314.11 140.24,-310.75 138,-293 135.33,-271.83 128.86,-264.28 138,-245 145.01,-230.22 158.26,-218.13 171.07,-209.17"/>
<polygon fill="black" stroke="black" points="169.66,-213.01 172,-208.26 167.21,-210.51 169.66,-213.01"/>
</g>
<!-- function&#45;0&#45;Seq2&#45;&gt;function&#45;0&#45;Beq -->
<g id="edge17" class="edge">
<title>function&#45;0&#45;Seq2:s&#45;&gt;function&#45;0&#45;Beq</title>
<path fill="none" stroke="black" d="M30,-332C30,-293.09 341.72,-307.06 378,-293 378.54,-292.79 379.07,-292.57 379.61,-292.34"/>
<polygon fill="black" stroke="black" points="380.65,-293.78 384.36,-290 379.1,-290.64 380.65,-293.78"/>
</g>
<!-- function&#45;0&#45;Seq2&#45;&gt;function&#45;0&#45;Jal -->
<g id="edge18" class="edge">
<title>function&#45;0&#45;Seq2:s&#45;&gt;function&#45;0&#45;Jal</title>
<path fill="none" stroke="black" d="M52,-332C52,-318.82 52.68,-304.09 53.4,-292.29"/>
<polygon fill="black" stroke="black" points="54.75,-295.2 53.73,-290 51.29,-294.7 54.75,-295.2"/>
</g>
<!-- function&#45;0&#45;Beq&#45;&gt;function&#45;2&#45;ImmVal -->
<g id="edge28" class="edge">
<title>function&#45;0&#45;Beq:s&#45;&gt;function&#45;2&#45;ImmVal</title>
<path fill="none" stroke="black" d="M423,-253C423,-211.23 423,-162.51 423,-134.65"/>
<polygon fill="black" stroke="black" points="424.75,-137 423,-132 421.25,-137 424.75,-137"/>
</g>
<!-- function&#45;0&#45;Beq&#45;&gt;function&#45;0&#45;Addi -->
<g id="edge26" class="edge">
<title>function&#45;0&#45;Beq:s&#45;&gt;function&#45;0&#45;Addi</title>
<path fill="none" stroke="black" d="M400,-253C400,-241.57 421.08,-224.36 440.43,-210.97"/>
<polygon fill="black" stroke="black" points="440.25,-214 442,-209 437.51,-211.82 440.25,-214"/>
</g>
<!-- function&#45;0&#45;Beq&#45;&gt;function&#45;0&#45;RegVal -->
<g id="edge27" class="edge">
<title>function&#45;0&#45;Beq:s&#45;&gt;function&#45;0&#45;RegVal</title>
<path fill="none" stroke="black" d="M414,-253C414,-234.87 297.42,-209.34 237.98,-197.5"/>
<polygon fill="black" stroke="black" points="241.24,-197.23 236,-196.46 239.62,-200.33 241.24,-197.23"/>
</g>
<!-- function&#45;0&#45;Jal&#45;&gt;function&#45;0&#45;ImmLabel -->
<g id="edge19" class="edge">
<title>function&#45;0&#45;Jal:s&#45;&gt;function&#45;0&#45;ImmLabel</title>
<path fill="none" stroke="black" d="M55,-253C55,-236.31 66.29,-222.01 78.64,-211.37"/>
<polygon fill="black" stroke="black" points="75.61,-214.6 79.5,-211 74.22,-211.38 75.61,-214.6"/>
</g>
<!-- function&#45;1&#45;Lw&#45;&gt;function&#45;1&#45;ImmVal -->
<g id="edge21" class="edge">
<title>function&#45;1&#45;Lw:s&#45;&gt;function&#45;1&#45;ImmVal</title>
<path fill="none" stroke="black" d="M934,-174C934,-159.86 939.66,-145.14 945.6,-133.59"/>
<polygon fill="black" stroke="black" points="945.03,-136.93 946.96,-132 942.38,-134.65 945.03,-136.93"/>
</g>
<!-- function&#45;1&#45;Lw&#45;&gt;function&#45;2&#45;RegVal -->
<g id="edge20" class="edge">
<title>function&#45;1&#45;Lw:s&#45;&gt;function&#45;2&#45;RegVal</title>
<path fill="none" stroke="black" d="M918,-174C918,-104.26 830.14,-162.39 766,-135 765.47,-134.77 764.94,-134.54 764.41,-134.3"/>
<polygon fill="black" stroke="black" points="764.89,-132.59 759.63,-132 763.37,-135.74 764.89,-132.59"/>
</g>
<!-- function&#45;0&#45;Sw&#45;&gt;function&#45;0&#45;ImmVal -->
<g id="edge25" class="edge">
<title>function&#45;0&#45;Sw:s&#45;&gt;function&#45;0&#45;ImmVal</title>
<path fill="none" stroke="black" d="M855,-253C855,-232.65 873.46,-233.58 879,-214 886.51,-187.45 884.88,-155.44 882.45,-134.45"/>
<polygon fill="black" stroke="black" points="884.76,-136.41 881.82,-132 881.38,-137.28 884.76,-136.41"/>
</g>
<!-- function&#45;0&#45;Sw&#45;&gt;function&#45;1&#45;RegVal -->
<g id="edge23" class="edge">
<title>function&#45;0&#45;Sw:s&#45;&gt;function&#45;1&#45;RegVal</title>
<path fill="none" stroke="black" d="M836,-253C836,-236.17 824.5,-221.87 811.93,-211.25"/>
<polygon fill="black" stroke="black" points="816.28,-210.62 811,-211 815.37,-214 816.28,-210.62"/>
</g>
<!-- function&#45;0&#45;Sw&#45;&gt;function&#45;0&#45;Lw -->
<g id="edge24" class="edge">
<title>function&#45;0&#45;Sw:s&#45;&gt;function&#45;0&#45;Lw</title>
<path fill="none" stroke="black" d="M848,-253C848,-239.84 848,-225.11 848,-213.3"/>
<polygon fill="black" stroke="black" points="849.75,-216 848,-211 846.25,-216 849.75,-216"/>
</g>
<!-- function&#45;0&#45;Lw&#45;&gt;function&#45;0&#45;ImmVal -->
<g id="edge59" class="edge">
<title>function&#45;0&#45;Lw:s&#45;&gt;function&#45;0&#45;ImmVal</title>
<path fill="none" stroke="black" d="M856,-174C856,-160.04 861.19,-145.35 866.64,-133.77"/>
<polygon fill="black" stroke="black" points="866.36,-137.05 867.98,-132 863.57,-134.94 866.36,-137.05"/>
</g>
<!-- function&#45;0&#45;Lw&#45;&gt;function&#45;2&#45;RegVal -->
<g id="edge58" class="edge">
<title>function&#45;0&#45;Lw:s&#45;&gt;function&#45;2&#45;RegVal</title>
<path fill="none" stroke="black" d="M840,-174C840,-136.82 798.25,-153.49 766,-135 765.79,-134.88 765.58,-134.76 765.36,-134.63"/>
<polygon fill="black" stroke="black" points="766.05,-133.01 760.85,-132 764.28,-136.03 766.05,-133.01"/>
</g>
<!-- function&#45;1&#45;Beq&#45;&gt;function&#45;2&#45;ImmVal -->
<g id="edge31" class="edge">
<title>function&#45;1&#45;Beq:s&#45;&gt;function&#45;2&#45;ImmVal</title>
<path fill="none" stroke="black" d="M481,-253C481,-228.17 452.61,-235.95 441,-214 427.75,-188.94 423.99,-156.07 423.06,-134.5"/>
<polygon fill="black" stroke="black" points="424.99,-136.86 422.88,-132 421.5,-137.11 424.99,-136.86"/>
</g>
<!-- function&#45;1&#45;Beq&#45;&gt;function&#45;0&#45;Addi -->
<g id="edge30" class="edge">
<title>function&#45;1&#45;Beq:s&#45;&gt;function&#45;0&#45;Addi</title>
<path fill="none" stroke="black" d="M472,-253C472,-239.84 472,-225.11 472,-213.3"/>
<polygon fill="black" stroke="black" points="473.75,-216 472,-211 470.25,-216 473.75,-216"/>
</g>
<!-- function&#45;1&#45;Beq&#45;&gt;function&#45;0&#45;RegVal -->
<g id="edge29" class="edge">
<title>function&#45;1&#45;Beq:s&#45;&gt;function&#45;0&#45;RegVal</title>
<path fill="none" stroke="black" d="M458,-253C458,-241.8 307.04,-211.02 237.88,-197.51"/>
<polygon fill="black" stroke="black" points="241.23,-197.34 236,-196.49 239.56,-200.41 241.23,-197.34"/>
</g>
<!-- function&#45;1&#45;Seq2&#45;&gt;function&#45;2&#45;Bne -->
<g id="edge32" class="edge">
<title>function&#45;1&#45;Seq2:s&#45;&gt;function&#45;2&#45;Bne</title>
<path fill="none" stroke="black" d="M340,-253C340,-190.28 257.87,-195 202,-223.5 192.47,-228.36 185.04,-237.41 179.67,-246.17"/>
<polygon fill="black" stroke="black" points="180.12,-243.19 177.9,-248 182.63,-245.62 180.12,-243.19"/>
</g>
<!-- function&#45;1&#45;Seq2&#45;&gt;function&#45;1&#45;Jal -->
<g id="edge33" class="edge">
<title>function&#45;1&#45;Seq2:s&#45;&gt;function&#45;1&#45;Jal</title>
<path fill="none" stroke="black" d="M362,-253C362,-239.84 362,-225.11 362,-213.3"/>
<polygon fill="black" stroke="black" points="363.75,-216 362,-211 360.25,-216 363.75,-216"/>
</g>
<!-- function&#45;2&#45;Bne&#45;&gt;function&#45;2&#45;ImmVal -->
<g id="edge39" class="edge">
<title>function&#45;2&#45;Bne:s&#45;&gt;function&#45;2&#45;ImmVal</title>
<path fill="none" stroke="black" d="M183,-253C183,-223.4 215,-233.81 237,-214 258.29,-194.84 256.37,-182.19 280,-166 312.91,-143.46 356.47,-128.77 386.83,-120.49"/>
<polygon fill="black" stroke="black" points="385.71,-123.26 389,-119.11 383.84,-120.3 385.71,-123.26"/>
</g>
<!-- function&#45;2&#45;Bne&#45;&gt;function&#45;0&#45;Addi -->
<g id="edge37" class="edge">
<title>function&#45;2&#45;Bne:s&#45;&gt;function&#45;0&#45;Addi</title>
<path fill="none" stroke="black" d="M160,-253C160,-234.87 182.16,-248.22 200,-245 285.5,-229.59 308.24,-233.07 393,-214 408.52,-210.51 425.48,-205.71 439.69,-201.39"/>
<polygon fill="black" stroke="black" points="438.84,-204.08 442,-199.83 436.88,-201.18 438.84,-204.08"/>
</g>
<!-- function&#45;2&#45;Bne&#45;&gt;function&#45;0&#45;RegVal -->
<g id="edge38" class="edge">
<title>function&#45;2&#45;Bne:s&#45;&gt;function&#45;0&#45;RegVal</title>
<path fill="none" stroke="black" d="M174,-253C174,-238.54 180.7,-223.9 187.76,-212.48"/>
<polygon fill="black" stroke="black" points="186.81,-215.52 189.58,-211 184.6,-212.81 186.81,-215.52"/>
</g>
<!-- function&#45;1&#45;Jal&#45;&gt;function&#45;2&#45;ImmVal -->
<g id="edge57" class="edge">
<title>function&#45;1&#45;Jal:s&#45;&gt;function&#45;2&#45;ImmVal</title>
<path fill="none" stroke="black" d="M362,-174C362,-156.76 374.14,-142.56 387.58,-132.12"/>
<polygon fill="black" stroke="black" points="386.16,-135.48 389,-131.01 383.99,-132.73 386.16,-135.48"/>
</g>
<!-- function&#45;2&#45;Sw&#45;&gt;function&#45;2&#45;ImmVal -->
<g id="edge36" class="edge">
<title>function&#45;2&#45;Sw:s&#45;&gt;function&#45;2&#45;ImmVal</title>
<path fill="none" stroke="black" d="M640,-253C640,-223.03 602.84,-238.07 585,-214 571.61,-195.93 584.64,-182.16 569,-166 539.74,-135.77 492.08,-122.34 459.21,-116.45"/>
<polygon fill="black" stroke="black" points="462.29,-115.79 457,-115.57 461,-119.05 462.29,-115.79"/>
</g>
<!-- function&#45;2&#45;Sw&#45;&gt;function&#45;1&#45;RegVal -->
<g id="edge34" class="edge">
<title>function&#45;2&#45;Sw:s&#45;&gt;function&#45;1&#45;RegVal</title>
<path fill="none" stroke="black" d="M621,-253C621,-253 699.88,-222.24 746.52,-204.06"/>
<polygon fill="black" stroke="black" points="744.49,-207.19 748,-203.23 742.78,-204.14 744.49,-207.19"/>
</g>
<!-- function&#45;2&#45;Sw&#45;&gt;function&#45;2&#45;Lw -->
<g id="edge35" class="edge">
<title>function&#45;2&#45;Sw:s&#45;&gt;function&#45;2&#45;Lw</title>
<path fill="none" stroke="black" d="M633,-253C633,-239.33 629.11,-224.54 625.05,-212.84"/>
<polygon fill="black" stroke="black" points="627.79,-214.99 624.31,-211 624.55,-216.29 627.79,-214.99"/>
</g>
<!-- function&#45;2&#45;Lw&#45;&gt;function&#45;2&#45;ImmVal -->
<g id="edge51" class="edge">
<title>function&#45;2&#45;Lw:s&#45;&gt;function&#45;2&#45;ImmVal</title>
<path fill="none" stroke="black" d="M624,-174C624,-156.98 517.47,-131.88 459.52,-119.49"/>
<polygon fill="black" stroke="black" points="462.28,-118.78 457,-118.4 460.9,-121.99 462.28,-118.78"/>
</g>
<!-- function&#45;2&#45;Lw&#45;&gt;function&#45;2&#45;RegVal -->
<g id="edge50" class="edge">
<title>function&#45;2&#45;Lw:s&#45;&gt;function&#45;2&#45;RegVal</title>
<path fill="none" stroke="black" d="M608,-174C608,-132.84 655.79,-154.57 692,-135 692.33,-134.82 692.67,-134.64 693,-134.46"/>
<polygon fill="black" stroke="black" points="693.88,-135.97 697.39,-132 692.17,-132.92 693.88,-135.97"/>
</g>
<!-- function&#45;3&#45;Bne&#45;&gt;function&#45;2&#45;ImmVal -->
<g id="edge42" class="edge">
<title>function&#45;3&#45;Bne:s&#45;&gt;function&#45;2&#45;ImmVal</title>
<path fill="none" stroke="black" d="M241,-253C241,-246.05 325.46,-170.21 331,-166 348.39,-152.79 369.28,-140.29 386.75,-130.65"/>
<polygon fill="black" stroke="black" points="385.99,-133.38 389,-129.01 383.93,-130.55 385.99,-133.38"/>
</g>
<!-- function&#45;3&#45;Bne&#45;&gt;function&#45;0&#45;Addi -->
<g id="edge41" class="edge">
<title>function&#45;3&#45;Bne:s&#45;&gt;function&#45;0&#45;Addi</title>
<path fill="none" stroke="black" d="M232,-253C232,-240.91 246.32,-248.13 258,-245 317.46,-229.05 333.42,-229.5 393,-214 408.39,-210 425.34,-205.12 439.57,-200.9"/>
<polygon fill="black" stroke="black" points="438.7,-203.51 442,-199.37 436.84,-200.55 438.7,-203.51"/>
</g>
<!-- function&#45;3&#45;Bne&#45;&gt;function&#45;0&#45;RegVal -->
<g id="edge40" class="edge">
<title>function&#45;3&#45;Bne:s&#45;&gt;function&#45;0&#45;RegVal</title>
<path fill="none" stroke="black" d="M218,-253C218,-239.48 214.79,-224.7 211.45,-212.97"/>
<polygon fill="black" stroke="black" points="214.38,-214.01 210.02,-211 211.55,-216.07 214.38,-214.01"/>
</g>
<!-- function&#45;2&#45;Seq2&#45;&gt;function&#45;1&#45;Seq2 -->
<g id="edge43" class="edge">
<title>function&#45;2&#45;Seq2:s&#45;&gt;function&#45;1&#45;Seq2</title>
<path fill="none" stroke="black" d="M274,-253C274,-232.44 298.08,-239.47 319.13,-249.89"/>
<polygon fill="black" stroke="black" points="315.96,-249.68 321,-251.3 318.07,-246.89 315.96,-249.68"/>
</g>
<!-- function&#45;2&#45;Seq2&#45;&gt;function&#45;1&#45;Jal -->
<g id="edge44" class="edge">
<title>function&#45;2&#45;Seq2:s&#45;&gt;function&#45;1&#45;Jal</title>
<path fill="none" stroke="black" d="M296,-253C296,-232.45 313.21,-216.72 330.05,-206.25"/>
<polygon fill="black" stroke="black" points="329.53,-209.12 332,-204.44 327.15,-206.56 329.53,-209.12"/>
</g>
<!-- function&#45;1&#45;Addi&#45;&gt;function&#45;4&#45;ImmVal -->
<g id="edge46" class="edge">
<title>function&#45;1&#45;Addi:s&#45;&gt;function&#45;4&#45;ImmVal</title>
<path fill="none" stroke="black" d="M771,-253C771,-232.65 757.18,-231.62 747,-214 734.86,-192.99 736.32,-184.82 721,-166 710.78,-153.44 697.33,-141.58 685.4,-132.2"/>
<polygon fill="black" stroke="black" points="689.67,-131.28 684.42,-132 688.97,-134.71 689.67,-131.28"/>
</g>
<!-- function&#45;1&#45;Addi&#45;&gt;function&#45;1&#45;RegVal -->
<g id="edge45" class="edge">
<title>function&#45;1&#45;Addi:s&#45;&gt;function&#45;1&#45;RegVal</title>
<path fill="none" stroke="black" d="M751,-253C751,-238.63 757.47,-224 764.3,-212.56"/>
<polygon fill="black" stroke="black" points="763.49,-215.65 766.03,-211 761.15,-213.06 763.49,-215.65"/>
</g>
<!-- function&#45;3&#45;Sw&#45;&gt;function&#45;5&#45;ImmVal -->
<g id="edge49" class="edge">
<title>function&#45;3&#45;Sw:s&#45;&gt;function&#45;5&#45;ImmVal</title>
<path fill="none" stroke="black" d="M702,-332C702,-282.63 642.54,-314.29 598,-293 597.51,-292.76 597.01,-292.52 596.52,-292.28"/>
<polygon fill="black" stroke="black" points="597.27,-290.7 592.02,-290 595.69,-293.82 597.27,-290.7"/>
</g>
<!-- function&#45;3&#45;Sw&#45;&gt;function&#45;3&#45;Lw -->
<g id="edge48" class="edge">
<title>function&#45;3&#45;Sw:s&#45;&gt;function&#45;3&#45;Lw</title>
<path fill="none" stroke="black" d="M695,-332C695,-318.84 695,-304.11 695,-292.3"/>
<polygon fill="black" stroke="black" points="696.75,-295 695,-290 693.25,-295 696.75,-295"/>
</g>
<!-- function&#45;3&#45;Sw&#45;&gt;function&#45;1&#45;Addi -->
<g id="edge47" class="edge">
<title>function&#45;3&#45;Sw:s&#45;&gt;function&#45;1&#45;Addi</title>
<path fill="none" stroke="black" d="M683,-332C683,-325.59 709.11,-305.84 731.12,-290.34"/>
<polygon fill="black" stroke="black" points="728.04,-292.92 732.46,-290 727.18,-289.52 728.04,-292.92"/>
</g>
<!-- function&#45;1&#45;Sw&#45;&gt;function&#45;1&#45;ImmVal -->
<g id="edge56" class="edge">
<title>function&#45;1&#45;Sw:s&#45;&gt;function&#45;1&#45;ImmVal</title>
<path fill="none" stroke="black" d="M933,-253C933,-232.65 951.27,-233.53 957,-214 964.82,-187.37 963.82,-155.12 961.86,-134.11"/>
<polygon fill="black" stroke="black" points="964.23,-136.44 961.35,-132 960.83,-137.27 964.23,-136.44"/>
</g>
<!-- function&#45;1&#45;Sw&#45;&gt;function&#45;1&#45;RegVal -->
<g id="edge54" class="edge">
<title>function&#45;1&#45;Sw:s&#45;&gt;function&#45;1&#45;RegVal</title>
<path fill="none" stroke="black" d="M914,-253C914,-206.53 858.44,-235.01 817,-214 816.65,-213.82 816.3,-213.64 815.95,-213.46"/>
<polygon fill="black" stroke="black" points="816.58,-211.81 811.35,-211 814.93,-214.9 816.58,-211.81"/>
</g>
<!-- function&#45;1&#45;Sw&#45;&gt;function&#45;1&#45;Lw -->
<g id="edge55" class="edge">
<title>function&#45;1&#45;Sw:s&#45;&gt;function&#45;1&#45;Lw</title>
<path fill="none" stroke="black" d="M926,-253C926,-239.84 926,-225.11 926,-213.3"/>
<polygon fill="black" stroke="black" points="927.75,-216 926,-211 924.25,-216 927.75,-216"/>
</g>
<!-- function&#45;1&#45;ImmVal -->
<g id="node1" class="node">
<title>function&#45;1&#45;ImmVal</title>
<g id="a_node1"><a xlink:title="Imm&#45;5: function&#45;1&#45;ImmVal">
<path fill="white" stroke="transparent" d="M938.67,-95C938.67,-95 979.33,-95 979.33,-95 984.67,-95 990,-100.33 990,-105.67 990,-105.67 990,-116.33 990,-116.33 990,-121.67 984.67,-127 979.33,-127 979.33,-127 938.67,-127 938.67,-127 933.33,-127 928,-121.67 928,-116.33 928,-116.33 928,-105.67 928,-105.67 928,-100.33 933.33,-95 938.67,-95"/>
<text text-anchor="start" x="933" y="-107.3" font-family="Helvetica,sans-Serif" font-size="14.00">ImmVal</text>
<path fill="none" stroke="black" d="M938.67,-95C938.67,-95 979.33,-95 979.33,-95 984.67,-95 990,-100.33 990,-105.67 990,-105.67 990,-116.33 990,-116.33 990,-121.67 984.67,-127 979.33,-127 979.33,-127 938.67,-127 938.67,-127 933.33,-127 928,-121.67 928,-116.33 928,-116.33 928,-105.67 928,-105.67 928,-100.33 933.33,-95 938.67,-95"/>
</a>
</g>
</g>
<!-- primitive&#45;i64&#45;0 -->
<g id="node2" class="node">
<title>primitive&#45;i64&#45;0</title>
<g id="a_node2"><a xlink:title="i64&#45;0: primitive&#45;i64&#45;0">
<path fill="white" stroke="transparent" d="M953.67,-16C953.67,-16 964.33,-16 964.33,-16 969.67,-16 975,-21.33 975,-26.67 975,-26.67 975,-37.33 975,-37.33 975,-42.67 969.67,-48 964.33,-48 964.33,-48 953.67,-48 953.67,-48 948.33,-48 943,-42.67 943,-37.33 943,-37.33 943,-26.67 943,-26.67 943,-21.33 948.33,-16 953.67,-16"/>
<text text-anchor="start" x="954" y="-28.3" font-family="Helvetica,sans-Serif" font-size="14.00">0</text>
<path fill="none" stroke="black" d="M953.67,-16C953.67,-16 964.33,-16 964.33,-16 969.67,-16 975,-21.33 975,-26.67 975,-26.67 975,-37.33 975,-37.33 975,-42.67 969.67,-48 964.33,-48 964.33,-48 953.67,-48 953.67,-48 948.33,-48 943,-42.67 943,-37.33 943,-37.33 943,-26.67 943,-26.67 943,-21.33 948.33,-16 953.67,-16"/>
</a>
</g>
</g>
<!-- function&#45;3&#45;ImmVal -->
<g id="node3" class="node">
<title>function&#45;3&#45;ImmVal</title>
<g id="a_node3"><a xlink:title="Imm&#45;12: function&#45;3&#45;ImmVal">
<path fill="white" stroke="transparent" d="M665.67,-174C665.67,-174 706.33,-174 706.33,-174 711.67,-174 717,-179.33 717,-184.67 717,-184.67 717,-195.33 717,-195.33 717,-200.67 711.67,-206 706.33,-206 706.33,-206 665.67,-206 665.67,-206 660.33,-206 655,-200.67 655,-195.33 655,-195.33 655,-184.67 655,-184.67 655,-179.33 660.33,-174 665.67,-174"/>
<text text-anchor="start" x="660" y="-186.3" font-family="Helvetica,sans-Serif" font-size="14.00">ImmVal</text>
<path fill="none" stroke="black" d="M665.67,-174C665.67,-174 706.33,-174 706.33,-174 711.67,-174 717,-179.33 717,-184.67 717,-184.67 717,-195.33 717,-195.33 717,-200.67 711.67,-206 706.33,-206 706.33,-206 665.67,-206 665.67,-206 660.33,-206 655,-200.67 655,-195.33 655,-195.33 655,-184.67 655,-184.67 655,-179.33 660.33,-174 665.67,-174"/>
</a>
</g>
</g>
<!-- primitive&#45;i64&#45;12 -->
<g id="node4" class="node">
<title>primitive&#45;i64&#45;12</title>
<g id="a_node4"><a xlink:title="i64&#45;12: primitive&#45;i64&#45;12">
<path fill="white" stroke="transparent" d="M581.67,-95C581.67,-95 592.33,-95 592.33,-95 597.67,-95 603,-100.33 603,-105.67 603,-105.67 603,-116.33 603,-116.33 603,-121.67 597.67,-127 592.33,-127 592.33,-127 581.67,-127 581.67,-127 576.33,-127 571,-121.67 571,-116.33 571,-116.33 571,-105.67 571,-105.67 571,-100.33 576.33,-95 581.67,-95"/>
<text text-anchor="start" x="577.5" y="-107.3" font-family="Helvetica,sans-Serif" font-size="14.00">12</text>
<path fill="none" stroke="black" d="M581.67,-95C581.67,-95 592.33,-95 592.33,-95 597.67,-95 603,-100.33 603,-105.67 603,-105.67 603,-116.33 603,-116.33 603,-121.67 597.67,-127 592.33,-127 592.33,-127 581.67,-127 581.67,-127 576.33,-127 571,-121.67 571,-116.33 571,-116.33 571,-105.67 571,-105.67 571,-100.33 576.33,-95 581.67,-95"/>
</a>
</g>
</g>
<!-- function&#45;4&#45;ImmVal -->
<g id="node5" class="node">
<title>function&#45;4&#45;ImmVal</title>
<g id="a_node5"><a xlink:title="Imm&#45;14: function&#45;4&#45;ImmVal">
<path fill="white" stroke="transparent" d="M636.67,-95C636.67,-95 677.33,-95 677.33,-95 682.67,-95 688,-100.33 688,-105.67 688,-105.67 688,-116.33 688,-116.33 688,-121.67 682.67,-127 677.33,-127 677.33,-127 636.67,-127 636.67,-127 631.33,-127 626,-121.67 626,-116.33 626,-116.33 626,-105.67 626,-105.67 626,-100.33 631.33,-95 636.67,-95"/>
<text text-anchor="start" x="631" y="-107.3" font-family="Helvetica,sans-Serif" font-size="14.00">ImmVal</text>
<path fill="none" stroke="black" d="M636.67,-95C636.67,-95 677.33,-95 677.33,-95 682.67,-95 688,-100.33 688,-105.67 688,-105.67 688,-116.33 688,-116.33 688,-121.67 682.67,-127 677.33,-127 677.33,-127 636.67,-127 636.67,-127 631.33,-127 626,-121.67 626,-116.33 626,-116.33 626,-105.67 626,-105.67 626,-100.33 631.33,-95 636.67,-95"/>
</a>
</g>
</g>
<!-- primitive&#45;i64&#45;16 -->
<g id="node6" class="node">
<title>primitive&#45;i64&#45;16</title>
<g id="a_node6"><a xlink:title="i64&#45;16: primitive&#45;i64&#45;16">
<path fill="white" stroke="transparent" d="M651.67,-16C651.67,-16 662.33,-16 662.33,-16 667.67,-16 673,-21.33 673,-26.67 673,-26.67 673,-37.33 673,-37.33 673,-42.67 667.67,-48 662.33,-48 662.33,-48 651.67,-48 651.67,-48 646.33,-48 641,-42.67 641,-37.33 641,-37.33 641,-26.67 641,-26.67 641,-21.33 646.33,-16 651.67,-16"/>
<text text-anchor="start" x="647.5" y="-28.3" font-family="Helvetica,sans-Serif" font-size="14.00">16</text>
<path fill="none" stroke="black" d="M651.67,-16C651.67,-16 662.33,-16 662.33,-16 667.67,-16 673,-21.33 673,-26.67 673,-26.67 673,-37.33 673,-37.33 673,-42.67 667.67,-48 662.33,-48 662.33,-48 651.67,-48 651.67,-48 646.33,-48 641,-42.67 641,-37.33 641,-37.33 641,-26.67 641,-26.67 641,-21.33 646.33,-16 651.67,-16"/>
</a>
</g>
</g>
<!-- function&#45;0&#45;ImmLabel -->
<g id="node7" class="node">
<title>function&#45;0&#45;ImmLabel</title>
<g id="a_node7"><a xlink:title="Imm&#45;19: function&#45;0&#45;ImmLabel">
<path fill="white" stroke="transparent" d="M81.17,-174C81.17,-174 138.83,-174 138.83,-174 144.17,-174 149.5,-179.33 149.5,-184.67 149.5,-184.67 149.5,-195.33 149.5,-195.33 149.5,-200.67 144.17,-206 138.83,-206 138.83,-206 81.17,-206 81.17,-206 75.83,-206 70.5,-200.67 70.5,-195.33 70.5,-195.33 70.5,-184.67 70.5,-184.67 70.5,-179.33 75.83,-174 81.17,-174"/>
<text text-anchor="start" x="76" y="-186.3" font-family="Helvetica,sans-Serif" font-size="14.00">ImmLabel</text>
<path fill="none" stroke="black" d="M81.17,-174C81.17,-174 138.83,-174 138.83,-174 144.17,-174 149.5,-179.33 149.5,-184.67 149.5,-184.67 149.5,-195.33 149.5,-195.33 149.5,-200.67 144.17,-206 138.83,-206 138.83,-206 81.17,-206 81.17,-206 75.83,-206 70.5,-200.67 70.5,-195.33 70.5,-195.33 70.5,-184.67 70.5,-184.67 70.5,-179.33 75.83,-174 81.17,-174"/>
</a>
</g>
</g>
<!-- primitive&#45;String&#45;3 -->
<g id="node8" class="node">
<title>primitive&#45;String&#45;3</title>
<g id="a_node8"><a xlink:title="String&#45;3: primitive&#45;String&#45;3">
<path fill="white" stroke="transparent" d="M94.67,-95C94.67,-95 127.33,-95 127.33,-95 132.67,-95 138,-100.33 138,-105.67 138,-105.67 138,-116.33 138,-116.33 138,-121.67 132.67,-127 127.33,-127 127.33,-127 94.67,-127 94.67,-127 89.33,-127 84,-121.67 84,-116.33 84,-116.33 84,-105.67 84,-105.67 84,-100.33 89.33,-95 94.67,-95"/>
<text text-anchor="start" x="89" y="-107.3" font-family="Helvetica,sans-Serif" font-size="14.00">&quot;.L48&quot;</text>
<path fill="none" stroke="black" d="M94.67,-95C94.67,-95 127.33,-95 127.33,-95 132.67,-95 138,-100.33 138,-105.67 138,-105.67 138,-116.33 138,-116.33 138,-121.67 132.67,-127 127.33,-127 127.33,-127 94.67,-127 94.67,-127 89.33,-127 84,-121.67 84,-116.33 84,-116.33 84,-105.67 84,-105.67 84,-100.33 89.33,-95 94.67,-95"/>
</a>
</g>
</g>
<!-- function&#45;5&#45;ImmVal -->
<g id="node9" class="node">
<title>function&#45;5&#45;ImmVal</title>
<g id="a_node9"><a xlink:title="Imm&#45;17: function&#45;5&#45;ImmVal">
<path fill="white" stroke="transparent" d="M538.67,-253C538.67,-253 579.33,-253 579.33,-253 584.67,-253 590,-258.33 590,-263.67 590,-263.67 590,-274.33 590,-274.33 590,-279.67 584.67,-285 579.33,-285 579.33,-285 538.67,-285 538.67,-285 533.33,-285 528,-279.67 528,-274.33 528,-274.33 528,-263.67 528,-263.67 528,-258.33 533.33,-253 538.67,-253"/>
<text text-anchor="start" x="533" y="-265.3" font-family="Helvetica,sans-Serif" font-size="14.00">ImmVal</text>
<path fill="none" stroke="black" d="M538.67,-253C538.67,-253 579.33,-253 579.33,-253 584.67,-253 590,-258.33 590,-263.67 590,-263.67 590,-274.33 590,-274.33 590,-279.67 584.67,-285 579.33,-285 579.33,-285 538.67,-285 538.67,-285 533.33,-285 528,-279.67 528,-274.33 528,-274.33 528,-263.67 528,-263.67 528,-258.33 533.33,-253 538.67,-253"/>
</a>
</g>
</g>
<!-- primitive&#45;i64&#45;2147483649 -->
<g id="node10" class="node">
<title>primitive&#45;i64&#45;2147483649</title>
<g id="a_node10"><a xlink:title="i64&#45;2147483649: primitive&#45;i64&#45;2147483649">
<path fill="white" stroke="transparent" d="M532.67,-174C532.67,-174 543.33,-174 543.33,-174 548.67,-174 554,-179.33 554,-184.67 554,-184.67 554,-195.33 554,-195.33 554,-200.67 548.67,-206 543.33,-206 543.33,-206 532.67,-206 532.67,-206 527.33,-206 522,-200.67 522,-195.33 522,-195.33 522,-184.67 522,-184.67 522,-179.33 527.33,-174 532.67,-174"/>
<text text-anchor="start" x="530.5" y="-186.3" font-family="Helvetica,sans-Serif" font-size="14.00">&#45;4</text>
<path fill="none" stroke="black" d="M532.67,-174C532.67,-174 543.33,-174 543.33,-174 548.67,-174 554,-179.33 554,-184.67 554,-184.67 554,-195.33 554,-195.33 554,-200.67 548.67,-206 543.33,-206 543.33,-206 532.67,-206 532.67,-206 527.33,-206 522,-200.67 522,-195.33 522,-195.33 522,-184.67 522,-184.67 522,-179.33 527.33,-174 532.67,-174"/>
</a>
</g>
</g>
<!-- function&#45;0&#45;ImmVal -->
<g id="node11" class="node">
<title>function&#45;0&#45;ImmVal</title>
<g id="a_node11"><a xlink:title="Imm&#45;3: function&#45;0&#45;ImmVal">
<path fill="white" stroke="transparent" d="M858.67,-95C858.67,-95 899.33,-95 899.33,-95 904.67,-95 910,-100.33 910,-105.67 910,-105.67 910,-116.33 910,-116.33 910,-121.67 904.67,-127 899.33,-127 899.33,-127 858.67,-127 858.67,-127 853.33,-127 848,-121.67 848,-116.33 848,-116.33 848,-105.67 848,-105.67 848,-100.33 853.33,-95 858.67,-95"/>
<text text-anchor="start" x="853" y="-107.3" font-family="Helvetica,sans-Serif" font-size="14.00">ImmVal</text>
<path fill="none" stroke="black" d="M858.67,-95C858.67,-95 899.33,-95 899.33,-95 904.67,-95 910,-100.33 910,-105.67 910,-105.67 910,-116.33 910,-116.33 910,-121.67 904.67,-127 899.33,-127 899.33,-127 858.67,-127 858.67,-127 853.33,-127 848,-121.67 848,-116.33 848,-116.33 848,-105.67 848,-105.67 848,-100.33 853.33,-95 858.67,-95"/>
</a>
</g>
</g>
<!-- primitive&#45;i64&#45;8 -->
<g id="node12" class="node">
<title>primitive&#45;i64&#45;8</title>
<g id="a_node12"><a xlink:title="i64&#45;8: primitive&#45;i64&#45;8">
<path fill="white" stroke="transparent" d="M873.67,-16C873.67,-16 884.33,-16 884.33,-16 889.67,-16 895,-21.33 895,-26.67 895,-26.67 895,-37.33 895,-37.33 895,-42.67 889.67,-48 884.33,-48 884.33,-48 873.67,-48 873.67,-48 868.33,-48 863,-42.67 863,-37.33 863,-37.33 863,-26.67 863,-26.67 863,-21.33 868.33,-16 873.67,-16"/>
<text text-anchor="start" x="874" y="-28.3" font-family="Helvetica,sans-Serif" font-size="14.00">8</text>
<path fill="none" stroke="black" d="M873.67,-16C873.67,-16 884.33,-16 884.33,-16 889.67,-16 895,-21.33 895,-26.67 895,-26.67 895,-37.33 895,-37.33 895,-42.67 889.67,-48 884.33,-48 884.33,-48 873.67,-48 873.67,-48 868.33,-48 863,-42.67 863,-37.33 863,-37.33 863,-26.67 863,-26.67 863,-21.33 868.33,-16 873.67,-16"/>
</a>
</g>
</g>
<!-- function&#45;2&#45;ImmVal -->
<g id="node13" class="node">
<title>function&#45;2&#45;ImmVal</title>
<g id="a_node13"><a xlink:title="Imm&#45;7: function&#45;2&#45;ImmVal">
<path fill="white" stroke="transparent" d="M402.67,-95C402.67,-95 443.33,-95 443.33,-95 448.67,-95 454,-100.33 454,-105.67 454,-105.67 454,-116.33 454,-116.33 454,-121.67 448.67,-127 443.33,-127 443.33,-127 402.67,-127 402.67,-127 397.33,-127 392,-121.67 392,-116.33 392,-116.33 392,-105.67 392,-105.67 392,-100.33 397.33,-95 402.67,-95"/>
<text text-anchor="start" x="397" y="-107.3" font-family="Helvetica,sans-Serif" font-size="14.00">ImmVal</text>
<path fill="none" stroke="black" d="M402.67,-95C402.67,-95 443.33,-95 443.33,-95 448.67,-95 454,-100.33 454,-105.67 454,-105.67 454,-116.33 454,-116.33 454,-121.67 448.67,-127 443.33,-127 443.33,-127 402.67,-127 402.67,-127 397.33,-127 392,-121.67 392,-116.33 392,-116.33 392,-105.67 392,-105.67 392,-100.33 397.33,-95 402.67,-95"/>
</a>
</g>
</g>
<!-- primitive&#45;i64&#45;4 -->
<g id="node14" class="node">
<title>primitive&#45;i64&#45;4</title>
<g id="a_node14"><a xlink:title="i64&#45;4: primitive&#45;i64&#45;4">
<path fill="white" stroke="transparent" d="M417.67,-16C417.67,-16 428.33,-16 428.33,-16 433.67,-16 439,-21.33 439,-26.67 439,-26.67 439,-37.33 439,-37.33 439,-42.67 433.67,-48 428.33,-48 428.33,-48 417.67,-48 417.67,-48 412.33,-48 407,-42.67 407,-37.33 407,-37.33 407,-26.67 407,-26.67 407,-21.33 412.33,-16 417.67,-16"/>
<text text-anchor="start" x="418" y="-28.3" font-family="Helvetica,sans-Serif" font-size="14.00">4</text>
<path fill="none" stroke="black" d="M417.67,-16C417.67,-16 428.33,-16 428.33,-16 433.67,-16 439,-21.33 439,-26.67 439,-26.67 439,-37.33 439,-37.33 439,-42.67 433.67,-48 428.33,-48 428.33,-48 417.67,-48 417.67,-48 412.33,-48 407,-42.67 407,-37.33 407,-37.33 407,-26.67 407,-26.67 407,-21.33 412.33,-16 417.67,-16"/>
</a>
</g>
</g>
<!-- function&#45;1&#45;RegVal -->
<g id="node15" class="node">
<title>function&#45;1&#45;RegVal</title>
<g id="a_node15"><a xlink:title="Inst&#45;1: function&#45;1&#45;RegVal">
<path fill="white" stroke="transparent" d="M762.17,-174C762.17,-174 797.83,-174 797.83,-174 803.17,-174 808.5,-179.33 808.5,-184.67 808.5,-184.67 808.5,-195.33 808.5,-195.33 808.5,-200.67 803.17,-206 797.83,-206 797.83,-206 762.17,-206 762.17,-206 756.83,-206 751.5,-200.67 751.5,-195.33 751.5,-195.33 751.5,-184.67 751.5,-184.67 751.5,-179.33 756.83,-174 762.17,-174"/>
<text text-anchor="start" x="757" y="-186.3" font-family="Helvetica,sans-Serif" font-size="14.00">RegVal</text>
<path fill="none" stroke="black" d="M762.17,-174C762.17,-174 797.83,-174 797.83,-174 803.17,-174 808.5,-179.33 808.5,-184.67 808.5,-184.67 808.5,-195.33 808.5,-195.33 808.5,-200.67 803.17,-206 797.83,-206 797.83,-206 762.17,-206 762.17,-206 756.83,-206 751.5,-200.67 751.5,-195.33 751.5,-195.33 751.5,-184.67 751.5,-184.67 751.5,-179.33 756.83,-174 762.17,-174"/>
</a>
</g>
</g>
<!-- primitive&#45;String&#45;1 -->
<g id="node16" class="node">
<title>primitive&#45;String&#45;1</title>
<g id="a_node16"><a xlink:title="String&#45;1: primitive&#45;String&#45;1">
<path fill="white" stroke="transparent" d="M781.17,-95C781.17,-95 816.83,-95 816.83,-95 822.17,-95 827.5,-100.33 827.5,-105.67 827.5,-105.67 827.5,-116.33 827.5,-116.33 827.5,-121.67 822.17,-127 816.83,-127 816.83,-127 781.17,-127 781.17,-127 775.83,-127 770.5,-121.67 770.5,-116.33 770.5,-116.33 770.5,-105.67 770.5,-105.67 770.5,-100.33 775.83,-95 781.17,-95"/>
<text text-anchor="start" x="776" y="-107.3" font-family="Helvetica,sans-Serif" font-size="14.00">&quot;a4_0&quot;</text>
<path fill="none" stroke="black" d="M781.17,-95C781.17,-95 816.83,-95 816.83,-95 822.17,-95 827.5,-100.33 827.5,-105.67 827.5,-105.67 827.5,-116.33 827.5,-116.33 827.5,-121.67 822.17,-127 816.83,-127 816.83,-127 781.17,-127 781.17,-127 775.83,-127 770.5,-121.67 770.5,-116.33 770.5,-116.33 770.5,-105.67 770.5,-105.67 770.5,-100.33 775.83,-95 781.17,-95"/>
</a>
</g>
</g>
<!-- function&#45;3&#45;Lw -->
<g id="node17" class="node">
<title>function&#45;3&#45;Lw</title>
<g id="a_node17"><a xlink:title="Inst&#45;13: function&#45;3&#45;Lw">
<path fill="white" stroke="transparent" d="M689.67,-253C689.67,-253 700.33,-253 700.33,-253 705.67,-253 711,-258.33 711,-263.67 711,-263.67 711,-274.33 711,-274.33 711,-279.67 705.67,-285 700.33,-285 700.33,-285 689.67,-285 689.67,-285 684.33,-285 679,-279.67 679,-274.33 679,-274.33 679,-263.67 679,-263.67 679,-258.33 684.33,-253 689.67,-253"/>
<text text-anchor="start" x="685.5" y="-265.3" font-family="Helvetica,sans-Serif" font-size="14.00">Lw</text>
<path fill="none" stroke="black" d="M689.67,-253C689.67,-253 700.33,-253 700.33,-253 705.67,-253 711,-258.33 711,-263.67 711,-263.67 711,-274.33 711,-274.33 711,-279.67 705.67,-285 700.33,-285 700.33,-285 689.67,-285 689.67,-285 684.33,-285 679,-279.67 679,-274.33 679,-274.33 679,-263.67 679,-263.67 679,-258.33 684.33,-253 689.67,-253"/>
</a>
</g>
</g>
<!-- function&#45;2&#45;RegVal -->
<g id="node18" class="node">
<title>function&#45;2&#45;RegVal</title>
<g id="a_node18"><a xlink:title="Inst&#45;2: function&#45;2&#45;RegVal">
<path fill="white" stroke="transparent" d="M711.17,-95C711.17,-95 746.83,-95 746.83,-95 752.17,-95 757.5,-100.33 757.5,-105.67 757.5,-105.67 757.5,-116.33 757.5,-116.33 757.5,-121.67 752.17,-127 746.83,-127 746.83,-127 711.17,-127 711.17,-127 705.83,-127 700.5,-121.67 700.5,-116.33 700.5,-116.33 700.5,-105.67 700.5,-105.67 700.5,-100.33 705.83,-95 711.17,-95"/>
<text text-anchor="start" x="706" y="-107.3" font-family="Helvetica,sans-Serif" font-size="14.00">RegVal</text>
<path fill="none" stroke="black" d="M711.17,-95C711.17,-95 746.83,-95 746.83,-95 752.17,-95 757.5,-100.33 757.5,-105.67 757.5,-105.67 757.5,-116.33 757.5,-116.33 757.5,-121.67 752.17,-127 746.83,-127 746.83,-127 711.17,-127 711.17,-127 705.83,-127 700.5,-121.67 700.5,-116.33 700.5,-116.33 700.5,-105.67 700.5,-105.67 700.5,-100.33 705.83,-95 711.17,-95"/>
</a>
</g>
</g>
<!-- function&#45;0&#45;Bne -->
<g id="node19" class="node">
<title>function&#45;0&#45;Bne</title>
<g id="a_node19"><a xlink:title="Inst&#45;20: function&#45;0&#45;Bne">
<path fill="white" stroke="transparent" d="M90.67,-332C90.67,-332 107.33,-332 107.33,-332 112.67,-332 118,-337.33 118,-342.67 118,-342.67 118,-353.33 118,-353.33 118,-358.67 112.67,-364 107.33,-364 107.33,-364 90.67,-364 90.67,-364 85.33,-364 80,-358.67 80,-353.33 80,-353.33 80,-342.67 80,-342.67 80,-337.33 85.33,-332 90.67,-332"/>
<text text-anchor="start" x="85" y="-344.3" font-family="Helvetica,sans-Serif" font-size="14.00">Bne</text>
<path fill="none" stroke="black" d="M90.67,-332C90.67,-332 107.33,-332 107.33,-332 112.67,-332 118,-337.33 118,-342.67 118,-342.67 118,-353.33 118,-353.33 118,-358.67 112.67,-364 107.33,-364 107.33,-364 90.67,-364 90.67,-364 85.33,-364 80,-358.67 80,-353.33 80,-353.33 80,-342.67 80,-342.67 80,-337.33 85.33,-332 90.67,-332"/>
</a>
</g>
</g>
<!-- function&#45;0&#45;Addi -->
<g id="node20" class="node">
<title>function&#45;0&#45;Addi</title>
<g id="a_node20"><a xlink:title="Inst&#45;15: function&#45;0&#45;Addi">
<path fill="white" stroke="transparent" d="M462.17,-174C462.17,-174 481.83,-174 481.83,-174 487.17,-174 492.5,-179.33 492.5,-184.67 492.5,-184.67 492.5,-195.33 492.5,-195.33 492.5,-200.67 487.17,-206 481.83,-206 481.83,-206 462.17,-206 462.17,-206 456.83,-206 451.5,-200.67 451.5,-195.33 451.5,-195.33 451.5,-184.67 451.5,-184.67 451.5,-179.33 456.83,-174 462.17,-174"/>
<text text-anchor="start" x="457" y="-186.3" font-family="Helvetica,sans-Serif" font-size="14.00">Addi</text>
<path fill="none" stroke="black" d="M462.17,-174C462.17,-174 481.83,-174 481.83,-174 487.17,-174 492.5,-179.33 492.5,-184.67 492.5,-184.67 492.5,-195.33 492.5,-195.33 492.5,-200.67 487.17,-206 481.83,-206 481.83,-206 462.17,-206 462.17,-206 456.83,-206 451.5,-200.67 451.5,-195.33 451.5,-195.33 451.5,-184.67 451.5,-184.67 451.5,-179.33 456.83,-174 462.17,-174"/>
</a>
</g>
</g>
<!-- function&#45;0&#45;RegVal -->
<g id="node21" class="node">
<title>function&#45;0&#45;RegVal</title>
<g id="a_node21"><a xlink:title="Inst&#45;0: function&#45;0&#45;RegVal">
<path fill="white" stroke="transparent" d="M186.17,-174C186.17,-174 221.83,-174 221.83,-174 227.17,-174 232.5,-179.33 232.5,-184.67 232.5,-184.67 232.5,-195.33 232.5,-195.33 232.5,-200.67 227.17,-206 221.83,-206 221.83,-206 186.17,-206 186.17,-206 180.83,-206 175.5,-200.67 175.5,-195.33 175.5,-195.33 175.5,-184.67 175.5,-184.67 175.5,-179.33 180.83,-174 186.17,-174"/>
<text text-anchor="start" x="181" y="-186.3" font-family="Helvetica,sans-Serif" font-size="14.00">RegVal</text>
<path fill="none" stroke="black" d="M186.17,-174C186.17,-174 221.83,-174 221.83,-174 227.17,-174 232.5,-179.33 232.5,-184.67 232.5,-184.67 232.5,-195.33 232.5,-195.33 232.5,-200.67 227.17,-206 221.83,-206 221.83,-206 186.17,-206 186.17,-206 180.83,-206 175.5,-200.67 175.5,-195.33 175.5,-195.33 175.5,-184.67 175.5,-184.67 175.5,-179.33 180.83,-174 186.17,-174"/>
</a>
</g>
</g>
<!-- function&#45;1&#45;Bne -->
<g id="node22" class="node">
<title>function&#45;1&#45;Bne</title>
<g id="a_node22"><a xlink:title="Inst&#45;20: function&#45;1&#45;Bne">
<path fill="white" stroke="transparent" d="M148.67,-332C148.67,-332 165.33,-332 165.33,-332 170.67,-332 176,-337.33 176,-342.67 176,-342.67 176,-353.33 176,-353.33 176,-358.67 170.67,-364 165.33,-364 165.33,-364 148.67,-364 148.67,-364 143.33,-364 138,-358.67 138,-353.33 138,-353.33 138,-342.67 138,-342.67 138,-337.33 143.33,-332 148.67,-332"/>
<text text-anchor="start" x="143" y="-344.3" font-family="Helvetica,sans-Serif" font-size="14.00">Bne</text>
<path fill="none" stroke="black" d="M148.67,-332C148.67,-332 165.33,-332 165.33,-332 170.67,-332 176,-337.33 176,-342.67 176,-342.67 176,-353.33 176,-353.33 176,-358.67 170.67,-364 165.33,-364 165.33,-364 148.67,-364 148.67,-364 143.33,-364 138,-358.67 138,-353.33 138,-353.33 138,-342.67 138,-342.67 138,-337.33 143.33,-332 148.67,-332"/>
</a>
</g>
</g>
<!-- function&#45;0&#45;Seq2 -->
<g id="node23" class="node">
<title>function&#45;0&#45;Seq2</title>
<g id="a_node23"><a xlink:title="Inst&#45;20: function&#45;0&#45;Seq2">
<path fill="white" stroke="transparent" d="M28.67,-332C28.67,-332 53.33,-332 53.33,-332 58.67,-332 64,-337.33 64,-342.67 64,-342.67 64,-353.33 64,-353.33 64,-358.67 58.67,-364 53.33,-364 53.33,-364 28.67,-364 28.67,-364 23.33,-364 18,-358.67 18,-353.33 18,-353.33 18,-342.67 18,-342.67 18,-337.33 23.33,-332 28.67,-332"/>
<text text-anchor="start" x="23" y="-344.3" font-family="Helvetica,sans-Serif" font-size="14.00">Seq2</text>
<path fill="none" stroke="black" d="M28.67,-332C28.67,-332 53.33,-332 53.33,-332 58.67,-332 64,-337.33 64,-342.67 64,-342.67 64,-353.33 64,-353.33 64,-358.67 58.67,-364 53.33,-364 53.33,-364 28.67,-364 28.67,-364 23.33,-364 18,-358.67 18,-353.33 18,-353.33 18,-342.67 18,-342.67 18,-337.33 23.33,-332 28.67,-332"/>
</a>
</g>
</g>
<!-- function&#45;0&#45;Beq -->
<g id="node24" class="node">
<title>function&#45;0&#45;Beq</title>
<g id="a_node24"><a xlink:title="Inst&#45;21: function&#45;0&#45;Beq">
<path fill="white" stroke="transparent" d="M400.67,-253C400.67,-253 417.33,-253 417.33,-253 422.67,-253 428,-258.33 428,-263.67 428,-263.67 428,-274.33 428,-274.33 428,-279.67 422.67,-285 417.33,-285 417.33,-285 400.67,-285 400.67,-285 395.33,-285 390,-279.67 390,-274.33 390,-274.33 390,-263.67 390,-263.67 390,-258.33 395.33,-253 400.67,-253"/>
<text text-anchor="start" x="395" y="-265.3" font-family="Helvetica,sans-Serif" font-size="14.00">Beq</text>
<path fill="none" stroke="black" d="M400.67,-253C400.67,-253 417.33,-253 417.33,-253 422.67,-253 428,-258.33 428,-263.67 428,-263.67 428,-274.33 428,-274.33 428,-279.67 422.67,-285 417.33,-285 417.33,-285 400.67,-285 400.67,-285 395.33,-285 390,-279.67 390,-274.33 390,-274.33 390,-263.67 390,-263.67 390,-258.33 395.33,-253 400.67,-253"/>
</a>
</g>
</g>
<!-- function&#45;0&#45;Jal -->
<g id="node25" class="node">
<title>function&#45;0&#45;Jal</title>
<g id="a_node25"><a xlink:title="Inst&#45;22: function&#45;0&#45;Jal">
<path fill="white" stroke="transparent" d="M49.67,-253C49.67,-253 60.33,-253 60.33,-253 65.67,-253 71,-258.33 71,-263.67 71,-263.67 71,-274.33 71,-274.33 71,-279.67 65.67,-285 60.33,-285 60.33,-285 49.67,-285 49.67,-285 44.33,-285 39,-279.67 39,-274.33 39,-274.33 39,-263.67 39,-263.67 39,-258.33 44.33,-253 49.67,-253"/>
<text text-anchor="start" x="46.5" y="-265.3" font-family="Helvetica,sans-Serif" font-size="14.00">Jal</text>
<path fill="none" stroke="black" d="M49.67,-253C49.67,-253 60.33,-253 60.33,-253 65.67,-253 71,-258.33 71,-263.67 71,-263.67 71,-274.33 71,-274.33 71,-279.67 65.67,-285 60.33,-285 60.33,-285 49.67,-285 49.67,-285 44.33,-285 39,-279.67 39,-274.33 39,-274.33 39,-263.67 39,-263.67 39,-258.33 44.33,-253 49.67,-253"/>
</a>
</g>
</g>
<!-- function&#45;1&#45;Lw -->
<g id="node26" class="node">
<title>function&#45;1&#45;Lw</title>
<g id="a_node26"><a xlink:title="Inst&#45;6: function&#45;1&#45;Lw">
<path fill="white" stroke="transparent" d="M920.67,-174C920.67,-174 931.33,-174 931.33,-174 936.67,-174 942,-179.33 942,-184.67 942,-184.67 942,-195.33 942,-195.33 942,-200.67 936.67,-206 931.33,-206 931.33,-206 920.67,-206 920.67,-206 915.33,-206 910,-200.67 910,-195.33 910,-195.33 910,-184.67 910,-184.67 910,-179.33 915.33,-174 920.67,-174"/>
<text text-anchor="start" x="916.5" y="-186.3" font-family="Helvetica,sans-Serif" font-size="14.00">Lw</text>
<path fill="none" stroke="black" d="M920.67,-174C920.67,-174 931.33,-174 931.33,-174 936.67,-174 942,-179.33 942,-184.67 942,-184.67 942,-195.33 942,-195.33 942,-200.67 936.67,-206 931.33,-206 931.33,-206 920.67,-206 920.67,-206 915.33,-206 910,-200.67 910,-195.33 910,-195.33 910,-184.67 910,-184.67 910,-179.33 915.33,-174 920.67,-174"/>
</a>
</g>
</g>
<!-- primitive&#45;String&#45;0 -->
<g id="node27" class="node">
<title>primitive&#45;String&#45;0</title>
<g id="a_node27"><a xlink:title="String&#45;0: primitive&#45;String&#45;0">
<path fill="white" stroke="transparent" d="M187.17,-95C187.17,-95 222.83,-95 222.83,-95 228.17,-95 233.5,-100.33 233.5,-105.67 233.5,-105.67 233.5,-116.33 233.5,-116.33 233.5,-121.67 228.17,-127 222.83,-127 222.83,-127 187.17,-127 187.17,-127 181.83,-127 176.5,-121.67 176.5,-116.33 176.5,-116.33 176.5,-105.67 176.5,-105.67 176.5,-100.33 181.83,-95 187.17,-95"/>
<text text-anchor="start" x="182" y="-107.3" font-family="Helvetica,sans-Serif" font-size="14.00">&quot;a3_0&quot;</text>
<path fill="none" stroke="black" d="M187.17,-95C187.17,-95 222.83,-95 222.83,-95 228.17,-95 233.5,-100.33 233.5,-105.67 233.5,-105.67 233.5,-116.33 233.5,-116.33 233.5,-121.67 228.17,-127 222.83,-127 222.83,-127 187.17,-127 187.17,-127 181.83,-127 176.5,-121.67 176.5,-116.33 176.5,-116.33 176.5,-105.67 176.5,-105.67 176.5,-100.33 181.83,-95 187.17,-95"/>
</a>
</g>
</g>
<!-- function&#45;0&#45;Sw -->
<g id="node28" class="node">
<title>function&#45;0&#45;Sw</title>
<g id="a_node28"><a xlink:title="Inst&#45;9: function&#45;0&#45;Sw">
<path fill="white" stroke="transparent" d="M838.67,-253C838.67,-253 849.33,-253 849.33,-253 854.67,-253 860,-258.33 860,-263.67 860,-263.67 860,-274.33 860,-274.33 860,-279.67 854.67,-285 849.33,-285 849.33,-285 838.67,-285 838.67,-285 833.33,-285 828,-279.67 828,-274.33 828,-274.33 828,-263.67 828,-263.67 828,-258.33 833.33,-253 838.67,-253"/>
<text text-anchor="start" x="833.5" y="-265.3" font-family="Helvetica,sans-Serif" font-size="14.00">Sw</text>
<path fill="none" stroke="black" d="M838.67,-253C838.67,-253 849.33,-253 849.33,-253 854.67,-253 860,-258.33 860,-263.67 860,-263.67 860,-274.33 860,-274.33 860,-279.67 854.67,-285 849.33,-285 849.33,-285 838.67,-285 838.67,-285 833.33,-285 828,-279.67 828,-274.33 828,-274.33 828,-263.67 828,-263.67 828,-258.33 833.33,-253 838.67,-253"/>
</a>
</g>
</g>
<!-- function&#45;0&#45;Lw -->
<g id="node29" class="node">
<title>function&#45;0&#45;Lw</title>
<g id="a_node29"><a xlink:title="Inst&#45;4: function&#45;0&#45;Lw">
<path fill="white" stroke="transparent" d="M842.67,-174C842.67,-174 853.33,-174 853.33,-174 858.67,-174 864,-179.33 864,-184.67 864,-184.67 864,-195.33 864,-195.33 864,-200.67 858.67,-206 853.33,-206 853.33,-206 842.67,-206 842.67,-206 837.33,-206 832,-200.67 832,-195.33 832,-195.33 832,-184.67 832,-184.67 832,-179.33 837.33,-174 842.67,-174"/>
<text text-anchor="start" x="838.5" y="-186.3" font-family="Helvetica,sans-Serif" font-size="14.00">Lw</text>
<path fill="none" stroke="black" d="M842.67,-174C842.67,-174 853.33,-174 853.33,-174 858.67,-174 864,-179.33 864,-184.67 864,-184.67 864,-195.33 864,-195.33 864,-200.67 858.67,-206 853.33,-206 853.33,-206 842.67,-206 842.67,-206 837.33,-206 832,-200.67 832,-195.33 832,-195.33 832,-184.67 832,-184.67 832,-179.33 837.33,-174 842.67,-174"/>
</a>
</g>
</g>
<!-- function&#45;1&#45;Beq -->
<g id="node30" class="node">
<title>function&#45;1&#45;Beq</title>
<g id="a_node30"><a xlink:title="Inst&#45;21: function&#45;1&#45;Beq">
<path fill="white" stroke="transparent" d="M458.67,-253C458.67,-253 475.33,-253 475.33,-253 480.67,-253 486,-258.33 486,-263.67 486,-263.67 486,-274.33 486,-274.33 486,-279.67 480.67,-285 475.33,-285 475.33,-285 458.67,-285 458.67,-285 453.33,-285 448,-279.67 448,-274.33 448,-274.33 448,-263.67 448,-263.67 448,-258.33 453.33,-253 458.67,-253"/>
<text text-anchor="start" x="453" y="-265.3" font-family="Helvetica,sans-Serif" font-size="14.00">Beq</text>
<path fill="none" stroke="black" d="M458.67,-253C458.67,-253 475.33,-253 475.33,-253 480.67,-253 486,-258.33 486,-263.67 486,-263.67 486,-274.33 486,-274.33 486,-279.67 480.67,-285 475.33,-285 475.33,-285 458.67,-285 458.67,-285 453.33,-285 448,-279.67 448,-274.33 448,-274.33 448,-263.67 448,-263.67 448,-258.33 453.33,-253 458.67,-253"/>
</a>
</g>
</g>
<!-- function&#45;1&#45;Seq2 -->
<g id="node31" class="node">
<title>function&#45;1&#45;Seq2</title>
<g id="a_node31"><a xlink:title="Inst&#45;21: function&#45;1&#45;Seq2">
<path fill="white" stroke="transparent" d="M338.67,-253C338.67,-253 363.33,-253 363.33,-253 368.67,-253 374,-258.33 374,-263.67 374,-263.67 374,-274.33 374,-274.33 374,-279.67 368.67,-285 363.33,-285 363.33,-285 338.67,-285 338.67,-285 333.33,-285 328,-279.67 328,-274.33 328,-274.33 328,-263.67 328,-263.67 328,-258.33 333.33,-253 338.67,-253"/>
<text text-anchor="start" x="333" y="-265.3" font-family="Helvetica,sans-Serif" font-size="14.00">Seq2</text>
<path fill="none" stroke="black" d="M338.67,-253C338.67,-253 363.33,-253 363.33,-253 368.67,-253 374,-258.33 374,-263.67 374,-263.67 374,-274.33 374,-274.33 374,-279.67 368.67,-285 363.33,-285 363.33,-285 338.67,-285 338.67,-285 333.33,-285 328,-279.67 328,-274.33 328,-274.33 328,-263.67 328,-263.67 328,-258.33 333.33,-253 338.67,-253"/>
</a>
</g>
</g>
<!-- function&#45;2&#45;Bne -->
<g id="node32" class="node">
<title>function&#45;2&#45;Bne</title>
<g id="a_node32"><a xlink:title="Inst&#45;23: function&#45;2&#45;Bne">
<path fill="white" stroke="transparent" d="M160.67,-253C160.67,-253 177.33,-253 177.33,-253 182.67,-253 188,-258.33 188,-263.67 188,-263.67 188,-274.33 188,-274.33 188,-279.67 182.67,-285 177.33,-285 177.33,-285 160.67,-285 160.67,-285 155.33,-285 150,-279.67 150,-274.33 150,-274.33 150,-263.67 150,-263.67 150,-258.33 155.33,-253 160.67,-253"/>
<text text-anchor="start" x="155" y="-265.3" font-family="Helvetica,sans-Serif" font-size="14.00">Bne</text>
<path fill="none" stroke="black" d="M160.67,-253C160.67,-253 177.33,-253 177.33,-253 182.67,-253 188,-258.33 188,-263.67 188,-263.67 188,-274.33 188,-274.33 188,-279.67 182.67,-285 177.33,-285 177.33,-285 160.67,-285 160.67,-285 155.33,-285 150,-279.67 150,-274.33 150,-274.33 150,-263.67 150,-263.67 150,-258.33 155.33,-253 160.67,-253"/>
</a>
</g>
</g>
<!-- function&#45;1&#45;Jal -->
<g id="node33" class="node">
<title>function&#45;1&#45;Jal</title>
<g id="a_node33"><a xlink:title="Inst&#45;24: function&#45;1&#45;Jal">
<path fill="white" stroke="transparent" d="M356.67,-174C356.67,-174 367.33,-174 367.33,-174 372.67,-174 378,-179.33 378,-184.67 378,-184.67 378,-195.33 378,-195.33 378,-200.67 372.67,-206 367.33,-206 367.33,-206 356.67,-206 356.67,-206 351.33,-206 346,-200.67 346,-195.33 346,-195.33 346,-184.67 346,-184.67 346,-179.33 351.33,-174 356.67,-174"/>
<text text-anchor="start" x="353.5" y="-186.3" font-family="Helvetica,sans-Serif" font-size="14.00">Jal</text>
<path fill="none" stroke="black" d="M356.67,-174C356.67,-174 367.33,-174 367.33,-174 372.67,-174 378,-179.33 378,-184.67 378,-184.67 378,-195.33 378,-195.33 378,-200.67 372.67,-206 367.33,-206 367.33,-206 356.67,-206 356.67,-206 351.33,-206 346,-200.67 346,-195.33 346,-195.33 346,-184.67 346,-184.67 346,-179.33 351.33,-174 356.67,-174"/>
</a>
</g>
</g>
<!-- function&#45;2&#45;Sw -->
<g id="node34" class="node">
<title>function&#45;2&#45;Sw</title>
<g id="a_node34"><a xlink:title="Inst&#45;11: function&#45;2&#45;Sw">
<path fill="white" stroke="transparent" d="M623.67,-253C623.67,-253 634.33,-253 634.33,-253 639.67,-253 645,-258.33 645,-263.67 645,-263.67 645,-274.33 645,-274.33 645,-279.67 639.67,-285 634.33,-285 634.33,-285 623.67,-285 623.67,-285 618.33,-285 613,-279.67 613,-274.33 613,-274.33 613,-263.67 613,-263.67 613,-258.33 618.33,-253 623.67,-253"/>
<text text-anchor="start" x="618.5" y="-265.3" font-family="Helvetica,sans-Serif" font-size="14.00">Sw</text>
<path fill="none" stroke="black" d="M623.67,-253C623.67,-253 634.33,-253 634.33,-253 639.67,-253 645,-258.33 645,-263.67 645,-263.67 645,-274.33 645,-274.33 645,-279.67 639.67,-285 634.33,-285 634.33,-285 623.67,-285 623.67,-285 618.33,-285 613,-279.67 613,-274.33 613,-274.33 613,-263.67 613,-263.67 613,-258.33 618.33,-253 623.67,-253"/>
</a>
</g>
</g>
<!-- function&#45;2&#45;Lw -->
<g id="node35" class="node">
<title>function&#45;2&#45;Lw</title>
<g id="a_node35"><a xlink:title="Inst&#45;8: function&#45;2&#45;Lw">
<path fill="white" stroke="transparent" d="M610.67,-174C610.67,-174 621.33,-174 621.33,-174 626.67,-174 632,-179.33 632,-184.67 632,-184.67 632,-195.33 632,-195.33 632,-200.67 626.67,-206 621.33,-206 621.33,-206 610.67,-206 610.67,-206 605.33,-206 600,-200.67 600,-195.33 600,-195.33 600,-184.67 600,-184.67 600,-179.33 605.33,-174 610.67,-174"/>
<text text-anchor="start" x="606.5" y="-186.3" font-family="Helvetica,sans-Serif" font-size="14.00">Lw</text>
<path fill="none" stroke="black" d="M610.67,-174C610.67,-174 621.33,-174 621.33,-174 626.67,-174 632,-179.33 632,-184.67 632,-184.67 632,-195.33 632,-195.33 632,-200.67 626.67,-206 621.33,-206 621.33,-206 610.67,-206 610.67,-206 605.33,-206 600,-200.67 600,-195.33 600,-195.33 600,-184.67 600,-184.67 600,-179.33 605.33,-174 610.67,-174"/>
</a>
</g>
</g>
<!-- function&#45;3&#45;Bne -->
<g id="node36" class="node">
<title>function&#45;3&#45;Bne</title>
<g id="a_node36"><a xlink:title="Inst&#45;23: function&#45;3&#45;Bne">
<path fill="white" stroke="transparent" d="M218.67,-253C218.67,-253 235.33,-253 235.33,-253 240.67,-253 246,-258.33 246,-263.67 246,-263.67 246,-274.33 246,-274.33 246,-279.67 240.67,-285 235.33,-285 235.33,-285 218.67,-285 218.67,-285 213.33,-285 208,-279.67 208,-274.33 208,-274.33 208,-263.67 208,-263.67 208,-258.33 213.33,-253 218.67,-253"/>
<text text-anchor="start" x="213" y="-265.3" font-family="Helvetica,sans-Serif" font-size="14.00">Bne</text>
<path fill="none" stroke="black" d="M218.67,-253C218.67,-253 235.33,-253 235.33,-253 240.67,-253 246,-258.33 246,-263.67 246,-263.67 246,-274.33 246,-274.33 246,-279.67 240.67,-285 235.33,-285 235.33,-285 218.67,-285 218.67,-285 213.33,-285 208,-279.67 208,-274.33 208,-274.33 208,-263.67 208,-263.67 208,-258.33 213.33,-253 218.67,-253"/>
</a>
</g>
</g>
<!-- function&#45;2&#45;Seq2 -->
<g id="node37" class="node">
<title>function&#45;2&#45;Seq2</title>
<g id="a_node37"><a xlink:title="Inst&#45;23: function&#45;2&#45;Seq2">
<path fill="white" stroke="transparent" d="M272.67,-253C272.67,-253 297.33,-253 297.33,-253 302.67,-253 308,-258.33 308,-263.67 308,-263.67 308,-274.33 308,-274.33 308,-279.67 302.67,-285 297.33,-285 297.33,-285 272.67,-285 272.67,-285 267.33,-285 262,-279.67 262,-274.33 262,-274.33 262,-263.67 262,-263.67 262,-258.33 267.33,-253 272.67,-253"/>
<text text-anchor="start" x="267" y="-265.3" font-family="Helvetica,sans-Serif" font-size="14.00">Seq2</text>
<path fill="none" stroke="black" d="M272.67,-253C272.67,-253 297.33,-253 297.33,-253 302.67,-253 308,-258.33 308,-263.67 308,-263.67 308,-274.33 308,-274.33 308,-279.67 302.67,-285 297.33,-285 297.33,-285 272.67,-285 272.67,-285 267.33,-285 262,-279.67 262,-274.33 262,-274.33 262,-263.67 262,-263.67 262,-258.33 267.33,-253 272.67,-253"/>
</a>
</g>
</g>
<!-- function&#45;1&#45;Addi -->
<g id="node38" class="node">
<title>function&#45;1&#45;Addi</title>
<g id="a_node38"><a xlink:title="Inst&#45;16: function&#45;1&#45;Addi">
<path fill="white" stroke="transparent" d="M751.17,-253C751.17,-253 770.83,-253 770.83,-253 776.17,-253 781.5,-258.33 781.5,-263.67 781.5,-263.67 781.5,-274.33 781.5,-274.33 781.5,-279.67 776.17,-285 770.83,-285 770.83,-285 751.17,-285 751.17,-285 745.83,-285 740.5,-279.67 740.5,-274.33 740.5,-274.33 740.5,-263.67 740.5,-263.67 740.5,-258.33 745.83,-253 751.17,-253"/>
<text text-anchor="start" x="746" y="-265.3" font-family="Helvetica,sans-Serif" font-size="14.00">Addi</text>
<path fill="none" stroke="black" d="M751.17,-253C751.17,-253 770.83,-253 770.83,-253 776.17,-253 781.5,-258.33 781.5,-263.67 781.5,-263.67 781.5,-274.33 781.5,-274.33 781.5,-279.67 776.17,-285 770.83,-285 770.83,-285 751.17,-285 751.17,-285 745.83,-285 740.5,-279.67 740.5,-274.33 740.5,-274.33 740.5,-263.67 740.5,-263.67 740.5,-258.33 745.83,-253 751.17,-253"/>
</a>
</g>
</g>
<!-- function&#45;3&#45;Sw -->
<g id="node39" class="node">
<title>function&#45;3&#45;Sw</title>
<g id="a_node39"><a xlink:title="Inst&#45;18: function&#45;3&#45;Sw">
<path fill="white" stroke="transparent" d="M685.67,-332C685.67,-332 696.33,-332 696.33,-332 701.67,-332 707,-337.33 707,-342.67 707,-342.67 707,-353.33 707,-353.33 707,-358.67 701.67,-364 696.33,-364 696.33,-364 685.67,-364 685.67,-364 680.33,-364 675,-358.67 675,-353.33 675,-353.33 675,-342.67 675,-342.67 675,-337.33 680.33,-332 685.67,-332"/>
<text text-anchor="start" x="680.5" y="-344.3" font-family="Helvetica,sans-Serif" font-size="14.00">Sw</text>
<path fill="none" stroke="black" d="M685.67,-332C685.67,-332 696.33,-332 696.33,-332 701.67,-332 707,-337.33 707,-342.67 707,-342.67 707,-353.33 707,-353.33 707,-358.67 701.67,-364 696.33,-364 696.33,-364 685.67,-364 685.67,-364 680.33,-364 675,-358.67 675,-353.33 675,-353.33 675,-342.67 675,-342.67 675,-337.33 680.33,-332 685.67,-332"/>
</a>
</g>
</g>
<!-- function&#45;1&#45;Sw -->
<g id="node40" class="node">
<title>function&#45;1&#45;Sw</title>
<g id="a_node40"><a xlink:title="Inst&#45;10: function&#45;1&#45;Sw">
<path fill="white" stroke="transparent" d="M916.67,-253C916.67,-253 927.33,-253 927.33,-253 932.67,-253 938,-258.33 938,-263.67 938,-263.67 938,-274.33 938,-274.33 938,-279.67 932.67,-285 927.33,-285 927.33,-285 916.67,-285 916.67,-285 911.33,-285 906,-279.67 906,-274.33 906,-274.33 906,-263.67 906,-263.67 906,-258.33 911.33,-253 916.67,-253"/>
<text text-anchor="start" x="911.5" y="-265.3" font-family="Helvetica,sans-Serif" font-size="14.00">Sw</text>
<path fill="none" stroke="black" d="M916.67,-253C916.67,-253 927.33,-253 927.33,-253 932.67,-253 938,-258.33 938,-263.67 938,-263.67 938,-274.33 938,-274.33 938,-279.67 932.67,-285 927.33,-285 927.33,-285 916.67,-285 916.67,-285 911.33,-285 906,-279.67 906,-274.33 906,-274.33 906,-263.67 906,-263.67 906,-258.33 911.33,-253 916.67,-253"/>
</a>
</g>
</g>
<!-- primitive&#45;String&#45;2 -->
<g id="node41" class="node">
<title>primitive&#45;String&#45;2</title>
<g id="a_node41"><a xlink:title="String&#45;2: primitive&#45;String&#45;2">
<path fill="white" stroke="transparent" d="M712.17,-16C712.17,-16 747.83,-16 747.83,-16 753.17,-16 758.5,-21.33 758.5,-26.67 758.5,-26.67 758.5,-37.33 758.5,-37.33 758.5,-42.67 753.17,-48 747.83,-48 747.83,-48 712.17,-48 712.17,-48 706.83,-48 701.5,-42.67 701.5,-37.33 701.5,-37.33 701.5,-26.67 701.5,-26.67 701.5,-21.33 706.83,-16 712.17,-16"/>
<text text-anchor="start" x="707" y="-28.3" font-family="Helvetica,sans-Serif" font-size="14.00">&quot;a5_0&quot;</text>
<path fill="none" stroke="black" d="M712.17,-16C712.17,-16 747.83,-16 747.83,-16 753.17,-16 758.5,-21.33 758.5,-26.67 758.5,-26.67 758.5,-37.33 758.5,-37.33 758.5,-42.67 753.17,-48 747.83,-48 747.83,-48 712.17,-48 712.17,-48 706.83,-48 701.5,-42.67 701.5,-37.33 701.5,-37.33 701.5,-26.67 701.5,-26.67 701.5,-21.33 706.83,-16 712.17,-16"/>
</a>
</g>
</g>
</g>
</svg>
