<?xml version="1.0" encoding="UTF-8" standalone="no"?>
<!DOCTYPE svg PUBLIC "-//W3C//DTD SVG 1.1//EN"
 "http://www.w3.org/Graphics/SVG/1.1/DTD/svg11.dtd">
<!-- Generated by graphviz version 2.43.0 (0)
 -->
<!-- Title: %3 Pages: 1 -->
<svg width="555pt" height="309pt"
 viewBox="0.00 0.00 555.00 309.00" xmlns="http://www.w3.org/2000/svg" xmlns:xlink="http://www.w3.org/1999/xlink">
<g id="graph0" class="graph" transform="scale(1 1) rotate(0) translate(4 305)">
<title>%3</title>
<polygon fill="white" stroke="#000000" points="-4,4 -4,-305 551,-305 551,4 -4,4"/>
<g id="clust1" class="cluster">
<title>outer_cluster_Imm&#45;1</title>
</g>
<g id="clust2" class="cluster">
<title>cluster_Imm&#45;1</title>
<path fill="#ffffb3" stroke="black" stroke-dasharray="5,2" d="M93,-90C93,-90 137,-90 137,-90 143,-90 149,-96 149,-102 149,-102 149,-120 149,-120 149,-126 143,-132 137,-132 137,-132 93,-132 93,-132 87,-132 81,-126 81,-120 81,-120 81,-102 81,-102 81,-96 87,-90 93,-90"/>
</g>
<g id="clust4" class="cluster">
<title>outer_cluster_Imm&#45;3</title>
</g>
<g id="clust5" class="cluster">
<title>cluster_Imm&#45;3</title>
<path fill="#ffffb3" stroke="black" stroke-dasharray="5,2" d="M23,-169C23,-169 67,-169 67,-169 73,-169 79,-175 79,-181 79,-181 79,-199 79,-199 79,-205 73,-211 67,-211 67,-211 23,-211 23,-211 17,-211 11,-205 11,-199 11,-199 11,-181 11,-181 11,-175 17,-169 23,-169"/>
</g>
<g id="clust7" class="cluster">
<title>outer_cluster_Imm&#45;5</title>
</g>
<g id="clust8" class="cluster">
<title>cluster_Imm&#45;5</title>
<path fill="#ffffb3" stroke="black" stroke-dasharray="5,2" d="M188,-169C188,-169 232,-169 232,-169 238,-169 244,-175 244,-181 244,-181 244,-199 244,-199 244,-205 238,-211 232,-211 232,-211 188,-211 188,-211 182,-211 176,-205 176,-199 176,-199 176,-181 176,-181 176,-175 182,-169 188,-169"/>
</g>
<g id="clust10" class="cluster">
<title>outer_cluster_Imm&#45;7</title>
</g>
<g id="clust11" class="cluster">
<title>cluster_Imm&#45;7</title>
<path fill="#ffffb3" stroke="black" stroke-dasharray="5,2" d="M262,-169C262,-169 306,-169 306,-169 312,-169 318,-175 318,-181 318,-181 318,-199 318,-199 318,-205 312,-211 306,-211 306,-211 262,-211 262,-211 256,-211 250,-205 250,-199 250,-199 250,-181 250,-181 250,-175 256,-169 262,-169"/>
</g>
<g id="clust13" class="cluster">
<title>outer_cluster_Imm&#45;9</title>
</g>
<g id="clust14" class="cluster">
<title>cluster_Imm&#45;9</title>
<path fill="#ffffb3" stroke="black" stroke-dasharray="5,2" d="M480,-169C480,-169 524,-169 524,-169 530,-169 536,-175 536,-181 536,-181 536,-199 536,-199 536,-205 530,-211 524,-211 524,-211 480,-211 480,-211 474,-211 468,-205 468,-199 468,-199 468,-181 468,-181 468,-175 474,-169 480,-169"/>
</g>
<g id="clust16" class="cluster">
<title>outer_cluster_Imm&#45;11</title>
</g>
<g id="clust17" class="cluster">
<title>cluster_Imm&#45;11</title>
<path fill="#ffffb3" stroke="black" stroke-dasharray="5,2" d="M406,-169C406,-169 450,-169 450,-169 456,-169 462,-175 462,-181 462,-181 462,-199 462,-199 462,-205 456,-211 450,-211 450,-211 406,-211 406,-211 400,-211 394,-205 394,-199 394,-199 394,-181 394,-181 394,-175 400,-169 406,-169"/>
</g>
<g id="clust19" class="cluster">
<title>outer_cluster_Inst&#45;8</title>
</g>
<g id="clust20" class="cluster">
<title>cluster_Inst&#45;8</title>
<path fill="#bebada" stroke="black" stroke-dasharray="5,2" d="M276,-248C276,-248 312,-248 312,-248 318,-248 324,-254 324,-260 324,-260 324,-278 324,-278 324,-284 318,-290 312,-290 312,-290 276,-290 276,-290 270,-290 264,-284 264,-278 264,-278 264,-260 264,-260 264,-254 270,-248 276,-248"/>
</g>
<g id="clust22" class="cluster">
<title>outer_cluster_Inst&#45;0</title>
</g>
<g id="clust23" class="cluster">
<title>cluster_Inst&#45;0</title>
<path fill="#bebada" stroke="black" stroke-dasharray="5,2" d="M336,-169C336,-169 376,-169 376,-169 382,-169 388,-175 388,-181 388,-181 388,-199 388,-199 388,-205 382,-211 376,-211 376,-211 336,-211 336,-211 330,-211 324,-205 324,-199 324,-199 324,-181 324,-181 324,-175 330,-169 336,-169"/>
</g>
<g id="clust25" class="cluster">
<title>outer_cluster_Inst&#45;2</title>
</g>
<g id="clust26" class="cluster">
<title>cluster_Inst&#45;2</title>
<path fill="#bebada" stroke="black" stroke-dasharray="5,2" d="M97,-169C97,-169 133,-169 133,-169 139,-169 145,-175 145,-181 145,-181 145,-199 145,-199 145,-205 139,-211 133,-211 133,-211 97,-211 97,-211 91,-211 85,-205 85,-199 85,-199 85,-181 85,-181 85,-175 91,-169 97,-169"/>
</g>
<g id="clust28" class="cluster">
<title>outer_cluster_Inst&#45;12</title>
</g>
<g id="clust29" class="cluster">
<title>cluster_Inst&#45;12</title>
<path fill="#bebada" stroke="black" stroke-dasharray="5,2" d="M363,-248C363,-248 399,-248 399,-248 405,-248 411,-254 411,-260 411,-260 411,-278 411,-278 411,-284 405,-290 399,-290 399,-290 363,-290 363,-290 357,-290 351,-284 351,-278 351,-278 351,-260 351,-260 351,-254 357,-248 363,-248"/>
</g>
<g id="clust31" class="cluster">
<title>outer_cluster_Inst&#45;4</title>
</g>
<g id="clust32" class="cluster">
<title>cluster_Inst&#45;4</title>
<path fill="#bebada" stroke="black" stroke-dasharray="5,2" d="M86,-248C86,-248 122,-248 122,-248 128,-248 134,-254 134,-260 134,-260 134,-278 134,-278 134,-284 128,-290 122,-290 122,-290 86,-290 86,-290 80,-290 74,-284 74,-278 74,-278 74,-260 74,-260 74,-254 80,-248 86,-248"/>
</g>
<g id="clust34" class="cluster">
<title>outer_cluster_Inst&#45;6</title>
</g>
<g id="clust35" class="cluster">
<title>cluster_Inst&#45;6</title>
<path fill="#bebada" stroke="black" stroke-dasharray="5,2" d="M186,-248C186,-248 222,-248 222,-248 228,-248 234,-254 234,-260 234,-260 234,-278 234,-278 234,-284 228,-290 222,-290 222,-290 186,-290 186,-290 180,-290 174,-284 174,-278 174,-278 174,-260 174,-260 174,-254 180,-248 186,-248"/>
</g>
<g id="clust37" class="cluster">
<title>outer_cluster_Inst&#45;10</title>
</g>
<g id="clust38" class="cluster">
<title>cluster_Inst&#45;10</title>
<path fill="#bebada" stroke="black" stroke-dasharray="5,2" d="M459,-248C459,-248 495,-248 495,-248 501,-248 507,-254 507,-260 507,-260 507,-278 507,-278 507,-284 501,-290 495,-290 495,-290 459,-290 459,-290 453,-290 447,-284 447,-278 447,-278 447,-260 447,-260 447,-254 453,-248 459,-248"/>
</g>
<g id="clust40" class="cluster">
<title>outer_cluster_String&#45;0</title>
</g>
<g id="clust41" class="cluster">
<title>cluster_String&#45;0</title>
<path fill="#fb8072" stroke="black" stroke-dasharray="5,2" d="M331,-90C331,-90 383,-90 383,-90 389,-90 395,-96 395,-102 395,-102 395,-120 395,-120 395,-126 389,-132 383,-132 383,-132 331,-132 331,-132 325,-132 319,-126 319,-120 319,-120 319,-102 319,-102 319,-96 325,-90 331,-90"/>
</g>
<g id="clust43" class="cluster">
<title>outer_cluster_i64&#45;100</title>
</g>
<g id="clust44" class="cluster">
<title>cluster_i64&#45;100</title>
<path fill="#80b1d3" stroke="black" stroke-dasharray="5,2" d="M484,-90C484,-90 520,-90 520,-90 526,-90 532,-96 532,-102 532,-102 532,-120 532,-120 532,-126 526,-132 520,-132 520,-132 484,-132 484,-132 478,-132 472,-126 472,-120 472,-120 472,-102 472,-102 472,-96 478,-90 484,-90"/>
</g>
<g id="clust46" class="cluster">
<title>outer_cluster_i64&#45;335544</title>
</g>
<g id="clust47" class="cluster">
<title>cluster_i64&#45;335544</title>
<path fill="#80b1d3" stroke="black" stroke-dasharray="5,2" d="M91,-11C91,-11 139,-11 139,-11 145,-11 151,-17 151,-23 151,-23 151,-41 151,-41 151,-47 145,-53 139,-53 139,-53 91,-53 91,-53 85,-53 79,-47 79,-41 79,-41 79,-23 79,-23 79,-17 85,-11 91,-11"/>
</g>
<g id="clust49" class="cluster">
<title>outer_cluster_i64&#45;0</title>
</g>
<g id="clust50" class="cluster">
<title>cluster_i64&#45;0</title>
<path fill="#80b1d3" stroke="black" stroke-dasharray="5,2" d="M265,-90C265,-90 301,-90 301,-90 307,-90 313,-96 313,-102 313,-102 313,-120 313,-120 313,-126 307,-132 301,-132 301,-132 265,-132 265,-132 259,-132 253,-126 253,-120 253,-120 253,-102 253,-102 253,-96 259,-90 265,-90"/>
</g>
<g id="clust52" class="cluster">
<title>outer_cluster_i64&#45;50</title>
</g>
<g id="clust53" class="cluster">
<title>cluster_i64&#45;50</title>
<path fill="#80b1d3" stroke="black" stroke-dasharray="5,2" d="M192,-90C192,-90 228,-90 228,-90 234,-90 240,-96 240,-102 240,-102 240,-120 240,-120 240,-126 234,-132 228,-132 228,-132 192,-132 192,-132 186,-132 180,-126 180,-120 180,-120 180,-102 180,-102 180,-96 186,-90 192,-90"/>
</g>
<g id="clust55" class="cluster">
<title>outer_cluster_i64&#45;1311</title>
</g>
<g id="clust56" class="cluster">
<title>cluster_i64&#45;1311</title>
<path fill="#80b1d3" stroke="black" stroke-dasharray="5,2" d="M27,-90C27,-90 63,-90 63,-90 69,-90 75,-96 75,-102 75,-102 75,-120 75,-120 75,-126 69,-132 63,-132 63,-132 27,-132 27,-132 21,-132 15,-126 15,-120 15,-120 15,-102 15,-102 15,-96 21,-90 27,-90"/>
</g>
<g id="clust58" class="cluster">
<title>outer_cluster_i64&#45;20</title>
</g>
<g id="clust59" class="cluster">
<title>cluster_i64&#45;20</title>
<path fill="#80b1d3" stroke="black" stroke-dasharray="5,2" d="M413,-90C413,-90 449,-90 449,-90 455,-90 461,-96 461,-102 461,-102 461,-120 461,-120 461,-126 455,-132 449,-132 449,-132 413,-132 413,-132 407,-132 401,-126 401,-120 401,-120 401,-102 401,-102 401,-96 407,-90 413,-90"/>
</g>
<!-- function&#45;0&#45;ImmVal&#45;&gt;primitive&#45;i64&#45;335544 -->
<g id="edge1" class="edge">
<title>function&#45;0&#45;ImmVal:s&#45;&gt;primitive&#45;i64&#45;335544</title>
<path fill="none" stroke="black" d="M115,-95C115,-81.84 115,-67.11 115,-55.3"/>
<polygon fill="black" stroke="black" points="116.75,-58 115,-53 113.25,-58 116.75,-58"/>
</g>
<!-- function&#45;1&#45;ImmVal&#45;&gt;primitive&#45;i64&#45;1311 -->
<g id="edge2" class="edge">
<title>function&#45;1&#45;ImmVal:s&#45;&gt;primitive&#45;i64&#45;1311</title>
<path fill="none" stroke="black" d="M45,-174C45,-160.84 45,-146.11 45,-134.3"/>
<polygon fill="black" stroke="black" points="46.75,-137 45,-132 43.25,-137 46.75,-137"/>
</g>
<!-- function&#45;2&#45;ImmVal&#45;&gt;primitive&#45;i64&#45;50 -->
<g id="edge3" class="edge">
<title>function&#45;2&#45;ImmVal:s&#45;&gt;primitive&#45;i64&#45;50</title>
<path fill="none" stroke="black" d="M210,-174C210,-160.84 210,-146.11 210,-134.3"/>
<polygon fill="black" stroke="black" points="211.75,-137 210,-132 208.25,-137 211.75,-137"/>
</g>
<!-- function&#45;3&#45;ImmVal&#45;&gt;primitive&#45;i64&#45;0 -->
<g id="edge4" class="edge">
<title>function&#45;3&#45;ImmVal:s&#45;&gt;primitive&#45;i64&#45;0</title>
<path fill="none" stroke="black" d="M284,-174C284,-160.84 283.77,-146.1 283.53,-134.3"/>
<polygon fill="black" stroke="black" points="285.41,-136.91 283.42,-132 281.91,-137.08 285.41,-136.91"/>
</g>
<!-- function&#45;4&#45;ImmVal&#45;&gt;primitive&#45;i64&#45;100 -->
<g id="edge5" class="edge">
<title>function&#45;4&#45;ImmVal:s&#45;&gt;primitive&#45;i64&#45;100</title>
<path fill="none" stroke="black" d="M502,-174C502,-160.84 502,-146.11 502,-134.3"/>
<polygon fill="black" stroke="black" points="503.75,-137 502,-132 500.25,-137 503.75,-137"/>
</g>
<!-- function&#45;5&#45;ImmVal&#45;&gt;primitive&#45;i64&#45;20 -->
<g id="edge6" class="edge">
<title>function&#45;5&#45;ImmVal:s&#45;&gt;primitive&#45;i64&#45;20</title>
<path fill="none" stroke="black" d="M428,-174C428,-160.82 428.68,-146.09 429.4,-134.29"/>
<polygon fill="black" stroke="black" points="430.75,-137.2 429.73,-132 427.29,-136.7 430.75,-137.2"/>
</g>
<!-- function&#45;2&#45;Addi&#45;&gt;function&#45;3&#45;ImmVal -->
<g id="edge8" class="edge">
<title>function&#45;2&#45;Addi:s&#45;&gt;function&#45;3&#45;ImmVal</title>
<path fill="none" stroke="black" d="M304,-253C304,-239.24 299.49,-224.56 294.75,-212.94"/>
<polygon fill="black" stroke="black" points="297.6,-214.6 293.71,-211 294.51,-216.24 297.6,-214.6"/>
</g>
<!-- function&#45;2&#45;Addi&#45;&gt;function&#45;0&#45;RegVal -->
<g id="edge7" class="edge">
<title>function&#45;2&#45;Addi:s&#45;&gt;function&#45;0&#45;RegVal</title>
<path fill="none" stroke="black" d="M284,-253C284,-241.65 304.8,-224.59 324.04,-211.24"/>
<polygon fill="black" stroke="black" points="320.76,-213.6 325.37,-211 320.14,-210.16 320.76,-213.6"/>
</g>
<!-- function&#45;0&#45;RegVal&#45;&gt;primitive&#45;String&#45;0 -->
<g id="edge9" class="edge">
<title>function&#45;0&#45;RegVal:s&#45;&gt;primitive&#45;String&#45;0</title>
<path fill="none" stroke="black" d="M357,-174C357,-160.84 357,-146.11 357,-134.3"/>
<polygon fill="black" stroke="black" points="358.75,-137 357,-132 355.25,-137 358.75,-137"/>
</g>
<!-- function&#45;0&#45;Lui&#45;&gt;function&#45;0&#45;ImmVal -->
<g id="edge10" class="edge">
<title>function&#45;0&#45;Lui:s&#45;&gt;function&#45;0&#45;ImmVal</title>
<path fill="none" stroke="black" d="M115,-174C115,-160.84 115,-146.11 115,-134.3"/>
<polygon fill="black" stroke="black" points="116.75,-137 115,-132 113.25,-137 116.75,-137"/>
</g>
<!-- function&#45;4&#45;Addi&#45;&gt;function&#45;5&#45;ImmVal -->
<g id="edge12" class="edge">
<title>function&#45;4&#45;Addi:s&#45;&gt;function&#45;5&#45;ImmVal</title>
<path fill="none" stroke="black" d="M391,-253C391,-237.93 399.16,-223.34 407.82,-212.1"/>
<polygon fill="black" stroke="black" points="406.52,-215.67 409.02,-211 404.15,-213.1 406.52,-215.67"/>
</g>
<!-- function&#45;4&#45;Addi&#45;&gt;function&#45;0&#45;RegVal -->
<g id="edge11" class="edge">
<title>function&#45;4&#45;Addi:s&#45;&gt;function&#45;0&#45;RegVal</title>
<path fill="none" stroke="black" d="M371,-253C371,-239.43 367.57,-224.65 363.98,-212.93"/>
<polygon fill="black" stroke="black" points="366.93,-213.82 362.45,-211 364.19,-216 366.93,-213.82"/>
</g>
<!-- function&#45;0&#45;Addi&#45;&gt;function&#45;1&#45;ImmVal -->
<g id="edge14" class="edge">
<title>function&#45;0&#45;Addi:s&#45;&gt;function&#45;1&#45;ImmVal</title>
<path fill="none" stroke="black" d="M114,-253C114,-241.85 93.8,-224.61 75.25,-211.14"/>
<polygon fill="black" stroke="black" points="79.26,-209.85 74.09,-211 78.84,-213.33 79.26,-209.85"/>
</g>
<!-- function&#45;0&#45;Addi&#45;&gt;function&#45;0&#45;Lui -->
<g id="edge13" class="edge">
<title>function&#45;0&#45;Addi:s&#45;&gt;function&#45;0&#45;Lui</title>
<path fill="none" stroke="black" d="M94,-253C94,-239.18 98.74,-224.49 103.72,-212.89"/>
<polygon fill="black" stroke="black" points="103.78,-216.19 104.85,-211 100.78,-214.39 103.78,-216.19"/>
</g>
<!-- function&#45;1&#45;Addi&#45;&gt;function&#45;2&#45;ImmVal -->
<g id="edge16" class="edge">
<title>function&#45;1&#45;Addi:s&#45;&gt;function&#45;2&#45;ImmVal</title>
<path fill="none" stroke="black" d="M214,-253C214,-239.81 213.09,-225.08 212.13,-213.28"/>
<polygon fill="black" stroke="black" points="214.36,-215.58 211.7,-211 210.92,-216.24 214.36,-215.58"/>
</g>
<!-- function&#45;1&#45;Addi&#45;&gt;function&#45;0&#45;RegVal -->
<g id="edge15" class="edge">
<title>function&#45;1&#45;Addi:s&#45;&gt;function&#45;0&#45;RegVal</title>
<path fill="none" stroke="black" d="M194,-253C194,-194.8 266.08,-238.22 319,-214 319.5,-213.77 320.01,-213.53 320.51,-213.29"/>
<polygon fill="black" stroke="black" points="321.4,-214.81 325.08,-211 319.83,-211.68 321.4,-214.81"/>
</g>
<!-- function&#45;3&#45;Addi&#45;&gt;function&#45;4&#45;ImmVal -->
<g id="edge18" class="edge">
<title>function&#45;3&#45;Addi:s&#45;&gt;function&#45;4&#45;ImmVal</title>
<path fill="none" stroke="black" d="M487,-253C487,-239.43 490.43,-224.65 494.02,-212.93"/>
<polygon fill="black" stroke="black" points="493.81,-216 495.55,-211 491.07,-213.82 493.81,-216"/>
</g>
<!-- function&#45;3&#45;Addi&#45;&gt;function&#45;0&#45;RegVal -->
<g id="edge17" class="edge">
<title>function&#45;3&#45;Addi:s&#45;&gt;function&#45;0&#45;RegVal</title>
<path fill="none" stroke="black" d="M467,-253C467,-215.82 425.25,-232.49 393,-214 392.79,-213.88 392.58,-213.76 392.36,-213.63"/>
<polygon fill="black" stroke="black" points="393.05,-212.01 387.85,-211 391.28,-215.03 393.05,-212.01"/>
</g>
<!-- function&#45;0&#45;ImmVal -->
<g id="node1" class="node">
<title>function&#45;0&#45;ImmVal</title>
<g id="a_node1"><a xlink:title="Imm&#45;1: function&#45;0&#45;ImmVal">
<path fill="white" stroke="transparent" d="M94.67,-95C94.67,-95 135.33,-95 135.33,-95 140.67,-95 146,-100.33 146,-105.67 146,-105.67 146,-116.33 146,-116.33 146,-121.67 140.67,-127 135.33,-127 135.33,-127 94.67,-127 94.67,-127 89.33,-127 84,-121.67 84,-116.33 84,-116.33 84,-105.67 84,-105.67 84,-100.33 89.33,-95 94.67,-95"/>
<text text-anchor="start" x="89" y="-107.3" font-family="Helvetica,sans-Serif" font-size="14.00">ImmVal</text>
<path fill="none" stroke="black" d="M94.67,-95C94.67,-95 135.33,-95 135.33,-95 140.67,-95 146,-100.33 146,-105.67 146,-105.67 146,-116.33 146,-116.33 146,-121.67 140.67,-127 135.33,-127 135.33,-127 94.67,-127 94.67,-127 89.33,-127 84,-121.67 84,-116.33 84,-116.33 84,-105.67 84,-105.67 84,-100.33 89.33,-95 94.67,-95"/>
</a>
</g>
</g>
<!-- primitive&#45;i64&#45;335544 -->
<g id="node2" class="node">
<title>primitive&#45;i64&#45;335544</title>
<g id="a_node2"><a xlink:title="i64&#45;335544: primitive&#45;i64&#45;335544">
<path fill="white" stroke="transparent" d="M93.17,-16C93.17,-16 136.83,-16 136.83,-16 142.17,-16 147.5,-21.33 147.5,-26.67 147.5,-26.67 147.5,-37.33 147.5,-37.33 147.5,-42.67 142.17,-48 136.83,-48 136.83,-48 93.17,-48 93.17,-48 87.83,-48 82.5,-42.67 82.5,-37.33 82.5,-37.33 82.5,-26.67 82.5,-26.67 82.5,-21.33 87.83,-16 93.17,-16"/>
<text text-anchor="start" x="88" y="-28.3" font-family="Helvetica,sans-Serif" font-size="14.00">335544</text>
<path fill="none" stroke="black" d="M93.17,-16C93.17,-16 136.83,-16 136.83,-16 142.17,-16 147.5,-21.33 147.5,-26.67 147.5,-26.67 147.5,-37.33 147.5,-37.33 147.5,-42.67 142.17,-48 136.83,-48 136.83,-48 93.17,-48 93.17,-48 87.83,-48 82.5,-42.67 82.5,-37.33 82.5,-37.33 82.5,-26.67 82.5,-26.67 82.5,-21.33 87.83,-16 93.17,-16"/>
</a>
</g>
</g>
<!-- function&#45;1&#45;ImmVal -->
<g id="node3" class="node">
<title>function&#45;1&#45;ImmVal</title>
<g id="a_node3"><a xlink:title="Imm&#45;3: function&#45;1&#45;ImmVal">
<path fill="white" stroke="transparent" d="M24.67,-174C24.67,-174 65.33,-174 65.33,-174 70.67,-174 76,-179.33 76,-184.67 76,-184.67 76,-195.33 76,-195.33 76,-200.67 70.67,-206 65.33,-206 65.33,-206 24.67,-206 24.67,-206 19.33,-206 14,-200.67 14,-195.33 14,-195.33 14,-184.67 14,-184.67 14,-179.33 19.33,-174 24.67,-174"/>
<text text-anchor="start" x="19" y="-186.3" font-family="Helvetica,sans-Serif" font-size="14.00">ImmVal</text>
<path fill="none" stroke="black" d="M24.67,-174C24.67,-174 65.33,-174 65.33,-174 70.67,-174 76,-179.33 76,-184.67 76,-184.67 76,-195.33 76,-195.33 76,-200.67 70.67,-206 65.33,-206 65.33,-206 24.67,-206 24.67,-206 19.33,-206 14,-200.67 14,-195.33 14,-195.33 14,-184.67 14,-184.67 14,-179.33 19.33,-174 24.67,-174"/>
</a>
</g>
</g>
<!-- primitive&#45;i64&#45;1311 -->
<g id="node4" class="node">
<title>primitive&#45;i64&#45;1311</title>
<g id="a_node4"><a xlink:title="i64&#45;1311: primitive&#45;i64&#45;1311">
<path fill="white" stroke="transparent" d="M32.17,-95C32.17,-95 57.83,-95 57.83,-95 63.17,-95 68.5,-100.33 68.5,-105.67 68.5,-105.67 68.5,-116.33 68.5,-116.33 68.5,-121.67 63.17,-127 57.83,-127 57.83,-127 32.17,-127 32.17,-127 26.83,-127 21.5,-121.67 21.5,-116.33 21.5,-116.33 21.5,-105.67 21.5,-105.67 21.5,-100.33 26.83,-95 32.17,-95"/>
<text text-anchor="start" x="27" y="-107.3" font-family="Helvetica,sans-Serif" font-size="14.00">1311</text>
<path fill="none" stroke="black" d="M32.17,-95C32.17,-95 57.83,-95 57.83,-95 63.17,-95 68.5,-100.33 68.5,-105.67 68.5,-105.67 68.5,-116.33 68.5,-116.33 68.5,-121.67 63.17,-127 57.83,-127 57.83,-127 32.17,-127 32.17,-127 26.83,-127 21.5,-121.67 21.5,-116.33 21.5,-116.33 21.5,-105.67 21.5,-105.67 21.5,-100.33 26.83,-95 32.17,-95"/>
</a>
</g>
</g>
<!-- function&#45;2&#45;ImmVal -->
<g id="node5" class="node">
<title>function&#45;2&#45;ImmVal</title>
<g id="a_node5"><a xlink:title="Imm&#45;5: function&#45;2&#45;ImmVal">
<path fill="white" stroke="transparent" d="M189.67,-174C189.67,-174 230.33,-174 230.33,-174 235.67,-174 241,-179.33 241,-184.67 241,-184.67 241,-195.33 241,-195.33 241,-200.67 235.67,-206 230.33,-206 230.33,-206 189.67,-206 189.67,-206 184.33,-206 179,-200.67 179,-195.33 179,-195.33 179,-184.67 179,-184.67 179,-179.33 184.33,-174 189.67,-174"/>
<text text-anchor="start" x="184" y="-186.3" font-family="Helvetica,sans-Serif" font-size="14.00">ImmVal</text>
<path fill="none" stroke="black" d="M189.67,-174C189.67,-174 230.33,-174 230.33,-174 235.67,-174 241,-179.33 241,-184.67 241,-184.67 241,-195.33 241,-195.33 241,-200.67 235.67,-206 230.33,-206 230.33,-206 189.67,-206 189.67,-206 184.33,-206 179,-200.67 179,-195.33 179,-195.33 179,-184.67 179,-184.67 179,-179.33 184.33,-174 189.67,-174"/>
</a>
</g>
</g>
<!-- primitive&#45;i64&#45;50 -->
<g id="node6" class="node">
<title>primitive&#45;i64&#45;50</title>
<g id="a_node6"><a xlink:title="i64&#45;50: primitive&#45;i64&#45;50">
<path fill="white" stroke="transparent" d="M204.67,-95C204.67,-95 215.33,-95 215.33,-95 220.67,-95 226,-100.33 226,-105.67 226,-105.67 226,-116.33 226,-116.33 226,-121.67 220.67,-127 215.33,-127 215.33,-127 204.67,-127 204.67,-127 199.33,-127 194,-121.67 194,-116.33 194,-116.33 194,-105.67 194,-105.67 194,-100.33 199.33,-95 204.67,-95"/>
<text text-anchor="start" x="200.5" y="-107.3" font-family="Helvetica,sans-Serif" font-size="14.00">50</text>
<path fill="none" stroke="black" d="M204.67,-95C204.67,-95 215.33,-95 215.33,-95 220.67,-95 226,-100.33 226,-105.67 226,-105.67 226,-116.33 226,-116.33 226,-121.67 220.67,-127 215.33,-127 215.33,-127 204.67,-127 204.67,-127 199.33,-127 194,-121.67 194,-116.33 194,-116.33 194,-105.67 194,-105.67 194,-100.33 199.33,-95 204.67,-95"/>
</a>
</g>
</g>
<!-- function&#45;3&#45;ImmVal -->
<g id="node7" class="node">
<title>function&#45;3&#45;ImmVal</title>
<g id="a_node7"><a xlink:title="Imm&#45;7: function&#45;3&#45;ImmVal">
<path fill="white" stroke="transparent" d="M263.67,-174C263.67,-174 304.33,-174 304.33,-174 309.67,-174 315,-179.33 315,-184.67 315,-184.67 315,-195.33 315,-195.33 315,-200.67 309.67,-206 304.33,-206 304.33,-206 263.67,-206 263.67,-206 258.33,-206 253,-200.67 253,-195.33 253,-195.33 253,-184.67 253,-184.67 253,-179.33 258.33,-174 263.67,-174"/>
<text text-anchor="start" x="258" y="-186.3" font-family="Helvetica,sans-Serif" font-size="14.00">ImmVal</text>
<path fill="none" stroke="black" d="M263.67,-174C263.67,-174 304.33,-174 304.33,-174 309.67,-174 315,-179.33 315,-184.67 315,-184.67 315,-195.33 315,-195.33 315,-200.67 309.67,-206 304.33,-206 304.33,-206 263.67,-206 263.67,-206 258.33,-206 253,-200.67 253,-195.33 253,-195.33 253,-184.67 253,-184.67 253,-179.33 258.33,-174 263.67,-174"/>
</a>
</g>
</g>
<!-- primitive&#45;i64&#45;0 -->
<g id="node8" class="node">
<title>primitive&#45;i64&#45;0</title>
<g id="a_node8"><a xlink:title="i64&#45;0: primitive&#45;i64&#45;0">
<path fill="white" stroke="transparent" d="M277.67,-95C277.67,-95 288.33,-95 288.33,-95 293.67,-95 299,-100.33 299,-105.67 299,-105.67 299,-116.33 299,-116.33 299,-121.67 293.67,-127 288.33,-127 288.33,-127 277.67,-127 277.67,-127 272.33,-127 267,-121.67 267,-116.33 267,-116.33 267,-105.67 267,-105.67 267,-100.33 272.33,-95 277.67,-95"/>
<text text-anchor="start" x="278" y="-107.3" font-family="Helvetica,sans-Serif" font-size="14.00">0</text>
<path fill="none" stroke="black" d="M277.67,-95C277.67,-95 288.33,-95 288.33,-95 293.67,-95 299,-100.33 299,-105.67 299,-105.67 299,-116.33 299,-116.33 299,-121.67 293.67,-127 288.33,-127 288.33,-127 277.67,-127 277.67,-127 272.33,-127 267,-121.67 267,-116.33 267,-116.33 267,-105.67 267,-105.67 267,-100.33 272.33,-95 277.67,-95"/>
</a>
</g>
</g>
<!-- function&#45;4&#45;ImmVal -->
<g id="node9" class="node">
<title>function&#45;4&#45;ImmVal</title>
<g id="a_node9"><a xlink:title="Imm&#45;9: function&#45;4&#45;ImmVal">
<path fill="white" stroke="transparent" d="M481.67,-174C481.67,-174 522.33,-174 522.33,-174 527.67,-174 533,-179.33 533,-184.67 533,-184.67 533,-195.33 533,-195.33 533,-200.67 527.67,-206 522.33,-206 522.33,-206 481.67,-206 481.67,-206 476.33,-206 471,-200.67 471,-195.33 471,-195.33 471,-184.67 471,-184.67 471,-179.33 476.33,-174 481.67,-174"/>
<text text-anchor="start" x="476" y="-186.3" font-family="Helvetica,sans-Serif" font-size="14.00">ImmVal</text>
<path fill="none" stroke="black" d="M481.67,-174C481.67,-174 522.33,-174 522.33,-174 527.67,-174 533,-179.33 533,-184.67 533,-184.67 533,-195.33 533,-195.33 533,-200.67 527.67,-206 522.33,-206 522.33,-206 481.67,-206 481.67,-206 476.33,-206 471,-200.67 471,-195.33 471,-195.33 471,-184.67 471,-184.67 471,-179.33 476.33,-174 481.67,-174"/>
</a>
</g>
</g>
<!-- primitive&#45;i64&#45;100 -->
<g id="node10" class="node">
<title>primitive&#45;i64&#45;100</title>
<g id="a_node10"><a xlink:title="i64&#45;100: primitive&#45;i64&#45;100">
<path fill="white" stroke="transparent" d="M493.67,-95C493.67,-95 510.33,-95 510.33,-95 515.67,-95 521,-100.33 521,-105.67 521,-105.67 521,-116.33 521,-116.33 521,-121.67 515.67,-127 510.33,-127 510.33,-127 493.67,-127 493.67,-127 488.33,-127 483,-121.67 483,-116.33 483,-116.33 483,-105.67 483,-105.67 483,-100.33 488.33,-95 493.67,-95"/>
<text text-anchor="start" x="488" y="-107.3" font-family="Helvetica,sans-Serif" font-size="14.00">100</text>
<path fill="none" stroke="black" d="M493.67,-95C493.67,-95 510.33,-95 510.33,-95 515.67,-95 521,-100.33 521,-105.67 521,-105.67 521,-116.33 521,-116.33 521,-121.67 515.67,-127 510.33,-127 510.33,-127 493.67,-127 493.67,-127 488.33,-127 483,-121.67 483,-116.33 483,-116.33 483,-105.67 483,-105.67 483,-100.33 488.33,-95 493.67,-95"/>
</a>
</g>
</g>
<!-- function&#45;5&#45;ImmVal -->
<g id="node11" class="node">
<title>function&#45;5&#45;ImmVal</title>
<g id="a_node11"><a xlink:title="Imm&#45;11: function&#45;5&#45;ImmVal">
<path fill="white" stroke="transparent" d="M407.67,-174C407.67,-174 448.33,-174 448.33,-174 453.67,-174 459,-179.33 459,-184.67 459,-184.67 459,-195.33 459,-195.33 459,-200.67 453.67,-206 448.33,-206 448.33,-206 407.67,-206 407.67,-206 402.33,-206 397,-200.67 397,-195.33 397,-195.33 397,-184.67 397,-184.67 397,-179.33 402.33,-174 407.67,-174"/>
<text text-anchor="start" x="402" y="-186.3" font-family="Helvetica,sans-Serif" font-size="14.00">ImmVal</text>
<path fill="none" stroke="black" d="M407.67,-174C407.67,-174 448.33,-174 448.33,-174 453.67,-174 459,-179.33 459,-184.67 459,-184.67 459,-195.33 459,-195.33 459,-200.67 453.67,-206 448.33,-206 448.33,-206 407.67,-206 407.67,-206 402.33,-206 397,-200.67 397,-195.33 397,-195.33 397,-184.67 397,-184.67 397,-179.33 402.33,-174 407.67,-174"/>
</a>
</g>
</g>
<!-- primitive&#45;i64&#45;20 -->
<g id="node12" class="node">
<title>primitive&#45;i64&#45;20</title>
<g id="a_node12"><a xlink:title="i64&#45;20: primitive&#45;i64&#45;20">
<path fill="white" stroke="transparent" d="M425.67,-95C425.67,-95 436.33,-95 436.33,-95 441.67,-95 447,-100.33 447,-105.67 447,-105.67 447,-116.33 447,-116.33 447,-121.67 441.67,-127 436.33,-127 436.33,-127 425.67,-127 425.67,-127 420.33,-127 415,-121.67 415,-116.33 415,-116.33 415,-105.67 415,-105.67 415,-100.33 420.33,-95 425.67,-95"/>
<text text-anchor="start" x="421.5" y="-107.3" font-family="Helvetica,sans-Serif" font-size="14.00">20</text>
<path fill="none" stroke="black" d="M425.67,-95C425.67,-95 436.33,-95 436.33,-95 441.67,-95 447,-100.33 447,-105.67 447,-105.67 447,-116.33 447,-116.33 447,-121.67 441.67,-127 436.33,-127 436.33,-127 425.67,-127 425.67,-127 420.33,-127 415,-121.67 415,-116.33 415,-116.33 415,-105.67 415,-105.67 415,-100.33 420.33,-95 425.67,-95"/>
</a>
</g>
</g>
<!-- function&#45;2&#45;Addi -->
<g id="node13" class="node">
<title>function&#45;2&#45;Addi</title>
<g id="a_node13"><a xlink:title="Inst&#45;8: function&#45;2&#45;Addi">
<path fill="white" stroke="transparent" d="M284.17,-253C284.17,-253 303.83,-253 303.83,-253 309.17,-253 314.5,-258.33 314.5,-263.67 314.5,-263.67 314.5,-274.33 314.5,-274.33 314.5,-279.67 309.17,-285 303.83,-285 303.83,-285 284.17,-285 284.17,-285 278.83,-285 273.5,-279.67 273.5,-274.33 273.5,-274.33 273.5,-263.67 273.5,-263.67 273.5,-258.33 278.83,-253 284.17,-253"/>
<text text-anchor="start" x="279" y="-265.3" font-family="Helvetica,sans-Serif" font-size="14.00">Addi</text>
<path fill="none" stroke="black" d="M284.17,-253C284.17,-253 303.83,-253 303.83,-253 309.17,-253 314.5,-258.33 314.5,-263.67 314.5,-263.67 314.5,-274.33 314.5,-274.33 314.5,-279.67 309.17,-285 303.83,-285 303.83,-285 284.17,-285 284.17,-285 278.83,-285 273.5,-279.67 273.5,-274.33 273.5,-274.33 273.5,-263.67 273.5,-263.67 273.5,-258.33 278.83,-253 284.17,-253"/>
</a>
</g>
</g>
<!-- function&#45;0&#45;RegVal -->
<g id="node14" class="node">
<title>function&#45;0&#45;RegVal</title>
<g id="a_node14"><a xlink:title="Inst&#45;0: function&#45;0&#45;RegVal">
<path fill="white" stroke="transparent" d="M338.17,-174C338.17,-174 373.83,-174 373.83,-174 379.17,-174 384.5,-179.33 384.5,-184.67 384.5,-184.67 384.5,-195.33 384.5,-195.33 384.5,-200.67 379.17,-206 373.83,-206 373.83,-206 338.17,-206 338.17,-206 332.83,-206 327.5,-200.67 327.5,-195.33 327.5,-195.33 327.5,-184.67 327.5,-184.67 327.5,-179.33 332.83,-174 338.17,-174"/>
<text text-anchor="start" x="333" y="-186.3" font-family="Helvetica,sans-Serif" font-size="14.00">RegVal</text>
<path fill="none" stroke="black" d="M338.17,-174C338.17,-174 373.83,-174 373.83,-174 379.17,-174 384.5,-179.33 384.5,-184.67 384.5,-184.67 384.5,-195.33 384.5,-195.33 384.5,-200.67 379.17,-206 373.83,-206 373.83,-206 338.17,-206 338.17,-206 332.83,-206 327.5,-200.67 327.5,-195.33 327.5,-195.33 327.5,-184.67 327.5,-184.67 327.5,-179.33 332.83,-174 338.17,-174"/>
</a>
</g>
</g>
<!-- primitive&#45;String&#45;0 -->
<g id="node15" class="node">
<title>primitive&#45;String&#45;0</title>
<g id="a_node15"><a xlink:title="String&#45;0: primitive&#45;String&#45;0">
<path fill="white" stroke="transparent" d="M333.17,-95C333.17,-95 380.83,-95 380.83,-95 386.17,-95 391.5,-100.33 391.5,-105.67 391.5,-105.67 391.5,-116.33 391.5,-116.33 391.5,-121.67 386.17,-127 380.83,-127 380.83,-127 333.17,-127 333.17,-127 327.83,-127 322.5,-121.67 322.5,-116.33 322.5,-116.33 322.5,-105.67 322.5,-105.67 322.5,-100.33 327.83,-95 333.17,-95"/>
<text text-anchor="start" x="328" y="-107.3" font-family="Helvetica,sans-Serif" font-size="14.00">&quot;zero_0&quot;</text>
<path fill="none" stroke="black" d="M333.17,-95C333.17,-95 380.83,-95 380.83,-95 386.17,-95 391.5,-100.33 391.5,-105.67 391.5,-105.67 391.5,-116.33 391.5,-116.33 391.5,-121.67 386.17,-127 380.83,-127 380.83,-127 333.17,-127 333.17,-127 327.83,-127 322.5,-121.67 322.5,-116.33 322.5,-116.33 322.5,-105.67 322.5,-105.67 322.5,-100.33 327.83,-95 333.17,-95"/>
</a>
</g>
</g>
<!-- function&#45;0&#45;Lui -->
<g id="node16" class="node">
<title>function&#45;0&#45;Lui</title>
<g id="a_node16"><a xlink:title="Inst&#45;2: function&#45;0&#45;Lui">
<path fill="white" stroke="transparent" d="M109.67,-174C109.67,-174 120.33,-174 120.33,-174 125.67,-174 131,-179.33 131,-184.67 131,-184.67 131,-195.33 131,-195.33 131,-200.67 125.67,-206 120.33,-206 120.33,-206 109.67,-206 109.67,-206 104.33,-206 99,-200.67 99,-195.33 99,-195.33 99,-184.67 99,-184.67 99,-179.33 104.33,-174 109.67,-174"/>
<text text-anchor="start" x="104.5" y="-186.3" font-family="Helvetica,sans-Serif" font-size="14.00">Lui</text>
<path fill="none" stroke="black" d="M109.67,-174C109.67,-174 120.33,-174 120.33,-174 125.67,-174 131,-179.33 131,-184.67 131,-184.67 131,-195.33 131,-195.33 131,-200.67 125.67,-206 120.33,-206 120.33,-206 109.67,-206 109.67,-206 104.33,-206 99,-200.67 99,-195.33 99,-195.33 99,-184.67 99,-184.67 99,-179.33 104.33,-174 109.67,-174"/>
</a>
</g>
</g>
<!-- function&#45;4&#45;Addi -->
<g id="node17" class="node">
<title>function&#45;4&#45;Addi</title>
<g id="a_node17"><a xlink:title="Inst&#45;12: function&#45;4&#45;Addi">
<path fill="white" stroke="transparent" d="M371.17,-253C371.17,-253 390.83,-253 390.83,-253 396.17,-253 401.5,-258.33 401.5,-263.67 401.5,-263.67 401.5,-274.33 401.5,-274.33 401.5,-279.67 396.17,-285 390.83,-285 390.83,-285 371.17,-285 371.17,-285 365.83,-285 360.5,-279.67 360.5,-274.33 360.5,-274.33 360.5,-263.67 360.5,-263.67 360.5,-258.33 365.83,-253 371.17,-253"/>
<text text-anchor="start" x="366" y="-265.3" font-family="Helvetica,sans-Serif" font-size="14.00">Addi</text>
<path fill="none" stroke="black" d="M371.17,-253C371.17,-253 390.83,-253 390.83,-253 396.17,-253 401.5,-258.33 401.5,-263.67 401.5,-263.67 401.5,-274.33 401.5,-274.33 401.5,-279.67 396.17,-285 390.83,-285 390.83,-285 371.17,-285 371.17,-285 365.83,-285 360.5,-279.67 360.5,-274.33 360.5,-274.33 360.5,-263.67 360.5,-263.67 360.5,-258.33 365.83,-253 371.17,-253"/>
</a>
</g>
</g>
<!-- function&#45;0&#45;Addi -->
<g id="node18" class="node">
<title>function&#45;0&#45;Addi</title>
<g id="a_node18"><a xlink:title="Inst&#45;4: function&#45;0&#45;Addi">
<path fill="white" stroke="transparent" d="M94.17,-253C94.17,-253 113.83,-253 113.83,-253 119.17,-253 124.5,-258.33 124.5,-263.67 124.5,-263.67 124.5,-274.33 124.5,-274.33 124.5,-279.67 119.17,-285 113.83,-285 113.83,-285 94.17,-285 94.17,-285 88.83,-285 83.5,-279.67 83.5,-274.33 83.5,-274.33 83.5,-263.67 83.5,-263.67 83.5,-258.33 88.83,-253 94.17,-253"/>
<text text-anchor="start" x="89" y="-265.3" font-family="Helvetica,sans-Serif" font-size="14.00">Addi</text>
<path fill="none" stroke="black" d="M94.17,-253C94.17,-253 113.83,-253 113.83,-253 119.17,-253 124.5,-258.33 124.5,-263.67 124.5,-263.67 124.5,-274.33 124.5,-274.33 124.5,-279.67 119.17,-285 113.83,-285 113.83,-285 94.17,-285 94.17,-285 88.83,-285 83.5,-279.67 83.5,-274.33 83.5,-274.33 83.5,-263.67 83.5,-263.67 83.5,-258.33 88.83,-253 94.17,-253"/>
</a>
</g>
</g>
<!-- function&#45;1&#45;Addi -->
<g id="node19" class="node">
<title>function&#45;1&#45;Addi</title>
<g id="a_node19"><a xlink:title="Inst&#45;6: function&#45;1&#45;Addi">
<path fill="white" stroke="transparent" d="M194.17,-253C194.17,-253 213.83,-253 213.83,-253 219.17,-253 224.5,-258.33 224.5,-263.67 224.5,-263.67 224.5,-274.33 224.5,-274.33 224.5,-279.67 219.17,-285 213.83,-285 213.83,-285 194.17,-285 194.17,-285 188.83,-285 183.5,-279.67 183.5,-274.33 183.5,-274.33 183.5,-263.67 183.5,-263.67 183.5,-258.33 188.83,-253 194.17,-253"/>
<text text-anchor="start" x="189" y="-265.3" font-family="Helvetica,sans-Serif" font-size="14.00">Addi</text>
<path fill="none" stroke="black" d="M194.17,-253C194.17,-253 213.83,-253 213.83,-253 219.17,-253 224.5,-258.33 224.5,-263.67 224.5,-263.67 224.5,-274.33 224.5,-274.33 224.5,-279.67 219.17,-285 213.83,-285 213.83,-285 194.17,-285 194.17,-285 188.83,-285 183.5,-279.67 183.5,-274.33 183.5,-274.33 183.5,-263.67 183.5,-263.67 183.5,-258.33 188.83,-253 194.17,-253"/>
</a>
</g>
</g>
<!-- function&#45;3&#45;Addi -->
<g id="node20" class="node">
<title>function&#45;3&#45;Addi</title>
<g id="a_node20"><a xlink:title="Inst&#45;10: function&#45;3&#45;Addi">
<path fill="white" stroke="transparent" d="M467.17,-253C467.17,-253 486.83,-253 486.83,-253 492.17,-253 497.5,-258.33 497.5,-263.67 497.5,-263.67 497.5,-274.33 497.5,-274.33 497.5,-279.67 492.17,-285 486.83,-285 486.83,-285 467.17,-285 467.17,-285 461.83,-285 456.5,-279.67 456.5,-274.33 456.5,-274.33 456.5,-263.67 456.5,-263.67 456.5,-258.33 461.83,-253 467.17,-253"/>
<text text-anchor="start" x="462" y="-265.3" font-family="Helvetica,sans-Serif" font-size="14.00">Addi</text>
<path fill="none" stroke="black" d="M467.17,-253C467.17,-253 486.83,-253 486.83,-253 492.17,-253 497.5,-258.33 497.5,-263.67 497.5,-263.67 497.5,-274.33 497.5,-274.33 497.5,-279.67 492.17,-285 486.83,-285 486.83,-285 467.17,-285 467.17,-285 461.83,-285 456.5,-279.67 456.5,-274.33 456.5,-274.33 456.5,-263.67 456.5,-263.67 456.5,-258.33 461.83,-253 467.17,-253"/>
</a>
</g>
</g>
</g>
</svg>
