<?xml version="1.0" encoding="UTF-8" standalone="no"?>
<!DOCTYPE svg PUBLIC "-//W3C//DTD SVG 1.1//EN"
 "http://www.w3.org/Graphics/SVG/1.1/DTD/svg11.dtd">
<!-- Generated by graphviz version 2.43.0 (0)
 -->
<!-- Title: %3 Pages: 1 -->
<svg width="536pt" height="309pt"
 viewBox="0.00 0.00 536.00 309.00" xmlns="http://www.w3.org/2000/svg" xmlns:xlink="http://www.w3.org/1999/xlink">
<g id="graph0" class="graph" transform="scale(1 1) rotate(0) translate(4 305)">
<title>%3</title>
<polygon fill="white" stroke="#000000" points="-4,4 -4,-305 532,-305 532,4 -4,4"/>
<g id="clust1" class="cluster">
<title>outer_cluster_Imm&#45;11</title>
</g>
<g id="clust2" class="cluster">
<title>cluster_Imm&#45;11</title>
<path fill="#ffffb3" stroke="black" stroke-dasharray="5,2" d="M23,-169C23,-169 67,-169 67,-169 73,-169 79,-175 79,-181 79,-181 79,-199 79,-199 79,-205 73,-211 67,-211 67,-211 23,-211 23,-211 17,-211 11,-205 11,-199 11,-199 11,-181 11,-181 11,-175 17,-169 23,-169"/>
</g>
<g id="clust4" class="cluster">
<title>outer_cluster_Imm&#45;5</title>
</g>
<g id="clust5" class="cluster">
<title>cluster_Imm&#45;5</title>
<path fill="#ffffb3" stroke="black" stroke-dasharray="5,2" d="M315,-169C315,-169 359,-169 359,-169 365,-169 371,-175 371,-181 371,-181 371,-199 371,-199 371,-205 365,-211 359,-211 359,-211 315,-211 315,-211 309,-211 303,-205 303,-199 303,-199 303,-181 303,-181 303,-175 309,-169 315,-169"/>
</g>
<g id="clust7" class="cluster">
<title>outer_cluster_Imm&#45;1</title>
</g>
<g id="clust8" class="cluster">
<title>cluster_Imm&#45;1</title>
<path fill="#ffffb3" stroke="black" stroke-dasharray="5,2" d="M459,-90C459,-90 503,-90 503,-90 509,-90 515,-96 515,-102 515,-102 515,-120 515,-120 515,-126 509,-132 503,-132 503,-132 459,-132 459,-132 453,-132 447,-126 447,-120 447,-120 447,-102 447,-102 447,-96 453,-90 459,-90"/>
</g>
<g id="clust10" class="cluster">
<title>outer_cluster_Imm&#45;3</title>
</g>
<g id="clust11" class="cluster">
<title>cluster_Imm&#45;3</title>
<path fill="#ffffb3" stroke="black" stroke-dasharray="5,2" d="M389,-169C389,-169 433,-169 433,-169 439,-169 445,-175 445,-181 445,-181 445,-199 445,-199 445,-205 439,-211 433,-211 433,-211 389,-211 389,-211 383,-211 377,-205 377,-199 377,-199 377,-181 377,-181 377,-175 383,-169 389,-169"/>
</g>
<g id="clust13" class="cluster">
<title>outer_cluster_Imm&#45;9</title>
</g>
<g id="clust14" class="cluster">
<title>cluster_Imm&#45;9</title>
<path fill="#ffffb3" stroke="black" stroke-dasharray="5,2" d="M241,-169C241,-169 285,-169 285,-169 291,-169 297,-175 297,-181 297,-181 297,-199 297,-199 297,-205 291,-211 285,-211 285,-211 241,-211 241,-211 235,-211 229,-205 229,-199 229,-199 229,-181 229,-181 229,-175 235,-169 241,-169"/>
</g>
<g id="clust16" class="cluster">
<title>outer_cluster_Imm&#45;7</title>
</g>
<g id="clust17" class="cluster">
<title>cluster_Imm&#45;7</title>
<path fill="#ffffb3" stroke="black" stroke-dasharray="5,2" d="M97,-169C97,-169 141,-169 141,-169 147,-169 153,-175 153,-181 153,-181 153,-199 153,-199 153,-205 147,-211 141,-211 141,-211 97,-211 97,-211 91,-211 85,-205 85,-199 85,-199 85,-181 85,-181 85,-175 91,-169 97,-169"/>
</g>
<g id="clust19" class="cluster">
<title>outer_cluster_Inst&#45;2</title>
</g>
<g id="clust20" class="cluster">
<title>cluster_Inst&#45;2</title>
<path fill="#bebada" stroke="black" stroke-dasharray="5,2" d="M463,-169C463,-169 499,-169 499,-169 505,-169 511,-175 511,-181 511,-181 511,-199 511,-199 511,-205 505,-211 499,-211 499,-211 463,-211 463,-211 457,-211 451,-205 451,-199 451,-199 451,-181 451,-181 451,-175 457,-169 463,-169"/>
</g>
<g id="clust22" class="cluster">
<title>outer_cluster_Inst&#45;4</title>
</g>
<g id="clust23" class="cluster">
<title>cluster_Inst&#45;4</title>
<path fill="#bebada" stroke="black" stroke-dasharray="5,2" d="M426,-248C426,-248 462,-248 462,-248 468,-248 474,-254 474,-260 474,-260 474,-278 474,-278 474,-284 468,-290 462,-290 462,-290 426,-290 426,-290 420,-290 414,-284 414,-278 414,-278 414,-260 414,-260 414,-254 420,-248 426,-248"/>
</g>
<g id="clust25" class="cluster">
<title>outer_cluster_Inst&#45;8</title>
</g>
<g id="clust26" class="cluster">
<title>cluster_Inst&#45;8</title>
<path fill="#bebada" stroke="black" stroke-dasharray="5,2" d="M111,-248C111,-248 147,-248 147,-248 153,-248 159,-254 159,-260 159,-260 159,-278 159,-278 159,-284 153,-290 147,-290 147,-290 111,-290 111,-290 105,-290 99,-284 99,-278 99,-278 99,-260 99,-260 99,-254 105,-248 111,-248"/>
</g>
<g id="clust28" class="cluster">
<title>outer_cluster_Inst&#45;10</title>
</g>
<g id="clust29" class="cluster">
<title>cluster_Inst&#45;10</title>
<path fill="#bebada" stroke="black" stroke-dasharray="5,2" d="M198,-248C198,-248 234,-248 234,-248 240,-248 246,-254 246,-260 246,-260 246,-278 246,-278 246,-284 240,-290 234,-290 234,-290 198,-290 198,-290 192,-290 186,-284 186,-278 186,-278 186,-260 186,-260 186,-254 192,-248 198,-248"/>
</g>
<g id="clust31" class="cluster">
<title>outer_cluster_Inst&#45;12</title>
</g>
<g id="clust32" class="cluster">
<title>cluster_Inst&#45;12</title>
<path fill="#bebada" stroke="black" stroke-dasharray="5,2" d="M44,-248C44,-248 80,-248 80,-248 86,-248 92,-254 92,-260 92,-260 92,-278 92,-278 92,-284 86,-290 80,-290 80,-290 44,-290 44,-290 38,-290 32,-284 32,-278 32,-278 32,-260 32,-260 32,-254 38,-248 44,-248"/>
</g>
<g id="clust34" class="cluster">
<title>outer_cluster_Inst&#45;0</title>
</g>
<g id="clust35" class="cluster">
<title>cluster_Inst&#45;0</title>
<path fill="#bebada" stroke="black" stroke-dasharray="5,2" d="M171,-169C171,-169 211,-169 211,-169 217,-169 223,-175 223,-181 223,-181 223,-199 223,-199 223,-205 217,-211 211,-211 211,-211 171,-211 171,-211 165,-211 159,-205 159,-199 159,-199 159,-181 159,-181 159,-175 165,-169 171,-169"/>
</g>
<g id="clust37" class="cluster">
<title>outer_cluster_Inst&#45;6</title>
</g>
<g id="clust38" class="cluster">
<title>cluster_Inst&#45;6</title>
<path fill="#bebada" stroke="black" stroke-dasharray="5,2" d="M279,-248C279,-248 315,-248 315,-248 321,-248 327,-254 327,-260 327,-260 327,-278 327,-278 327,-284 321,-290 315,-290 315,-290 279,-290 279,-290 273,-290 267,-284 267,-278 267,-278 267,-260 267,-260 267,-254 273,-248 279,-248"/>
</g>
<g id="clust40" class="cluster">
<title>outer_cluster_String&#45;1</title>
</g>
<g id="clust41" class="cluster">
<title>cluster_String&#45;1</title>
<path fill="#fb8072" stroke="black" stroke-dasharray="5,2" d="M166,-90C166,-90 218,-90 218,-90 224,-90 230,-96 230,-102 230,-102 230,-120 230,-120 230,-126 224,-132 218,-132 218,-132 166,-132 166,-132 160,-132 154,-126 154,-120 154,-120 154,-102 154,-102 154,-96 160,-90 166,-90"/>
</g>
<g id="clust43" class="cluster">
<title>outer_cluster_i64&#45;1311</title>
</g>
<g id="clust44" class="cluster">
<title>cluster_i64&#45;1311</title>
<path fill="#80b1d3" stroke="black" stroke-dasharray="5,2" d="M393,-90C393,-90 429,-90 429,-90 435,-90 441,-96 441,-102 441,-102 441,-120 441,-120 441,-126 435,-132 429,-132 429,-132 393,-132 393,-132 387,-132 381,-126 381,-120 381,-120 381,-102 381,-102 381,-96 387,-90 393,-90"/>
</g>
<g id="clust46" class="cluster">
<title>outer_cluster_i64&#45;20</title>
</g>
<g id="clust47" class="cluster">
<title>cluster_i64&#45;20</title>
<path fill="#80b1d3" stroke="black" stroke-dasharray="5,2" d="M27,-90C27,-90 63,-90 63,-90 69,-90 75,-96 75,-102 75,-102 75,-120 75,-120 75,-126 69,-132 63,-132 63,-132 27,-132 27,-132 21,-132 15,-126 15,-120 15,-120 15,-102 15,-102 15,-96 21,-90 27,-90"/>
</g>
<g id="clust49" class="cluster">
<title>outer_cluster_i64&#45;100</title>
</g>
<g id="clust50" class="cluster">
<title>cluster_i64&#45;100</title>
<path fill="#80b1d3" stroke="black" stroke-dasharray="5,2" d="M248,-90C248,-90 284,-90 284,-90 290,-90 296,-96 296,-102 296,-102 296,-120 296,-120 296,-126 290,-132 284,-132 284,-132 248,-132 248,-132 242,-132 236,-126 236,-120 236,-120 236,-102 236,-102 236,-96 242,-90 248,-90"/>
</g>
<g id="clust52" class="cluster">
<title>outer_cluster_i64&#45;335544</title>
</g>
<g id="clust53" class="cluster">
<title>cluster_i64&#45;335544</title>
<path fill="#80b1d3" stroke="black" stroke-dasharray="5,2" d="M457,-11C457,-11 505,-11 505,-11 511,-11 517,-17 517,-23 517,-23 517,-41 517,-41 517,-47 511,-53 505,-53 505,-53 457,-53 457,-53 451,-53 445,-47 445,-41 445,-41 445,-23 445,-23 445,-17 451,-11 457,-11"/>
</g>
<g id="clust55" class="cluster">
<title>outer_cluster_i64&#45;50</title>
</g>
<g id="clust56" class="cluster">
<title>cluster_i64&#45;50</title>
<path fill="#80b1d3" stroke="black" stroke-dasharray="5,2" d="M319,-90C319,-90 355,-90 355,-90 361,-90 367,-96 367,-102 367,-102 367,-120 367,-120 367,-126 361,-132 355,-132 355,-132 319,-132 319,-132 313,-132 307,-126 307,-120 307,-120 307,-102 307,-102 307,-96 313,-90 319,-90"/>
</g>
<g id="clust58" class="cluster">
<title>outer_cluster_i64&#45;0</title>
</g>
<g id="clust59" class="cluster">
<title>cluster_i64&#45;0</title>
<path fill="#80b1d3" stroke="black" stroke-dasharray="5,2" d="M100,-90C100,-90 136,-90 136,-90 142,-90 148,-96 148,-102 148,-102 148,-120 148,-120 148,-126 142,-132 136,-132 136,-132 100,-132 100,-132 94,-132 88,-126 88,-120 88,-120 88,-102 88,-102 88,-96 94,-90 100,-90"/>
</g>
<!-- function&#45;5&#45;ImmVal&#45;&gt;primitive&#45;i64&#45;20 -->
<g id="edge1" class="edge">
<title>function&#45;5&#45;ImmVal:s&#45;&gt;primitive&#45;i64&#45;20</title>
<path fill="none" stroke="black" d="M45,-174C45,-160.84 45,-146.11 45,-134.3"/>
<polygon fill="black" stroke="black" points="46.75,-137 45,-132 43.25,-137 46.75,-137"/>
</g>
<!-- function&#45;2&#45;ImmVal&#45;&gt;primitive&#45;i64&#45;50 -->
<g id="edge2" class="edge">
<title>function&#45;2&#45;ImmVal:s&#45;&gt;primitive&#45;i64&#45;50</title>
<path fill="none" stroke="black" d="M337,-174C337,-160.84 337,-146.11 337,-134.3"/>
<polygon fill="black" stroke="black" points="338.75,-137 337,-132 335.25,-137 338.75,-137"/>
</g>
<!-- function&#45;0&#45;ImmVal&#45;&gt;primitive&#45;i64&#45;335544 -->
<g id="edge3" class="edge">
<title>function&#45;0&#45;ImmVal:s&#45;&gt;primitive&#45;i64&#45;335544</title>
<path fill="none" stroke="black" d="M481,-95C481,-81.84 481,-67.11 481,-55.3"/>
<polygon fill="black" stroke="black" points="482.75,-58 481,-53 479.25,-58 482.75,-58"/>
</g>
<!-- function&#45;1&#45;ImmVal&#45;&gt;primitive&#45;i64&#45;1311 -->
<g id="edge4" class="edge">
<title>function&#45;1&#45;ImmVal:s&#45;&gt;primitive&#45;i64&#45;1311</title>
<path fill="none" stroke="black" d="M411,-174C411,-160.84 411,-146.11 411,-134.3"/>
<polygon fill="black" stroke="black" points="412.75,-137 411,-132 409.25,-137 412.75,-137"/>
</g>
<!-- function&#45;4&#45;ImmVal&#45;&gt;primitive&#45;i64&#45;100 -->
<g id="edge5" class="edge">
<title>function&#45;4&#45;ImmVal:s&#45;&gt;primitive&#45;i64&#45;100</title>
<path fill="none" stroke="black" d="M263,-174C263,-160.82 263.68,-146.09 264.4,-134.29"/>
<polygon fill="black" stroke="black" points="265.75,-137.2 264.73,-132 262.29,-136.7 265.75,-137.2"/>
</g>
<!-- function&#45;3&#45;ImmVal&#45;&gt;primitive&#45;i64&#45;0 -->
<g id="edge6" class="edge">
<title>function&#45;3&#45;ImmVal:s&#45;&gt;primitive&#45;i64&#45;0</title>
<path fill="none" stroke="black" d="M119,-174C119,-160.84 118.77,-146.1 118.53,-134.3"/>
<polygon fill="black" stroke="black" points="120.41,-136.91 118.42,-132 116.91,-137.08 120.41,-136.91"/>
</g>
<!-- function&#45;0&#45;Lui&#45;&gt;function&#45;0&#45;ImmVal -->
<g id="edge7" class="edge">
<title>function&#45;0&#45;Lui:s&#45;&gt;function&#45;0&#45;ImmVal</title>
<path fill="none" stroke="black" d="M481,-174C481,-160.84 481,-146.11 481,-134.3"/>
<polygon fill="black" stroke="black" points="482.75,-137 481,-132 479.25,-137 482.75,-137"/>
</g>
<!-- function&#45;0&#45;Addi&#45;&gt;function&#45;1&#45;ImmVal -->
<g id="edge9" class="edge">
<title>function&#45;0&#45;Addi:s&#45;&gt;function&#45;1&#45;ImmVal</title>
<path fill="none" stroke="black" d="M454,-253C454,-237.48 444.79,-223.05 434.9,-212.02"/>
<polygon fill="black" stroke="black" points="438.42,-212.14 433.24,-211 436.58,-215.11 438.42,-212.14"/>
</g>
<!-- function&#45;0&#45;Addi&#45;&gt;function&#45;0&#45;Lui -->
<g id="edge8" class="edge">
<title>function&#45;0&#45;Addi:s&#45;&gt;function&#45;0&#45;Lui</title>
<path fill="none" stroke="black" d="M434,-253C434,-237.1 443.93,-222.72 454.67,-211.82"/>
<polygon fill="black" stroke="black" points="452.61,-214.78 456.33,-211 451.07,-211.64 452.61,-214.78"/>
</g>
<!-- function&#45;2&#45;Addi&#45;&gt;function&#45;3&#45;ImmVal -->
<g id="edge11" class="edge">
<title>function&#45;2&#45;Addi:s&#45;&gt;function&#45;3&#45;ImmVal</title>
<path fill="none" stroke="black" d="M139,-253C139,-239.24 134.49,-224.56 129.75,-212.94"/>
<polygon fill="black" stroke="black" points="132.6,-214.6 128.71,-211 129.51,-216.24 132.6,-214.6"/>
</g>
<!-- function&#45;2&#45;Addi&#45;&gt;function&#45;0&#45;RegVal -->
<g id="edge10" class="edge">
<title>function&#45;2&#45;Addi:s&#45;&gt;function&#45;0&#45;RegVal</title>
<path fill="none" stroke="black" d="M119,-253C119,-241.65 139.8,-224.59 159.04,-211.24"/>
<polygon fill="black" stroke="black" points="155.76,-213.6 160.37,-211 155.14,-210.16 155.76,-213.6"/>
</g>
<!-- function&#45;0&#45;RegVal&#45;&gt;primitive&#45;String&#45;1 -->
<g id="edge16" class="edge">
<title>function&#45;0&#45;RegVal:s&#45;&gt;primitive&#45;String&#45;1</title>
<path fill="none" stroke="black" d="M192,-174C192,-160.84 192,-146.11 192,-134.3"/>
<polygon fill="black" stroke="black" points="193.75,-137 192,-132 190.25,-137 193.75,-137"/>
</g>
<!-- function&#45;3&#45;Addi&#45;&gt;function&#45;4&#45;ImmVal -->
<g id="edge13" class="edge">
<title>function&#45;3&#45;Addi:s&#45;&gt;function&#45;4&#45;ImmVal</title>
<path fill="none" stroke="black" d="M226,-253C226,-237.93 234.16,-223.34 242.82,-212.1"/>
<polygon fill="black" stroke="black" points="241.52,-215.67 244.02,-211 239.15,-213.1 241.52,-215.67"/>
</g>
<!-- function&#45;3&#45;Addi&#45;&gt;function&#45;0&#45;RegVal -->
<g id="edge12" class="edge">
<title>function&#45;3&#45;Addi:s&#45;&gt;function&#45;0&#45;RegVal</title>
<path fill="none" stroke="black" d="M206,-253C206,-239.43 202.57,-224.65 198.98,-212.93"/>
<polygon fill="black" stroke="black" points="201.93,-213.82 197.45,-211 199.19,-216 201.93,-213.82"/>
</g>
<!-- function&#45;4&#45;Addi&#45;&gt;function&#45;5&#45;ImmVal -->
<g id="edge15" class="edge">
<title>function&#45;4&#45;Addi:s&#45;&gt;function&#45;5&#45;ImmVal</title>
<path fill="none" stroke="black" d="M72,-253C72,-238.7 65.89,-223.97 59.48,-212.45"/>
<polygon fill="black" stroke="black" points="62.77,-213.14 57.92,-211 60.38,-215.69 62.77,-213.14"/>
</g>
<!-- function&#45;4&#45;Addi&#45;&gt;function&#45;0&#45;RegVal -->
<g id="edge14" class="edge">
<title>function&#45;4&#45;Addi:s&#45;&gt;function&#45;0&#45;RegVal</title>
<path fill="none" stroke="black" d="M52,-253C52,-204.47 110.53,-235.58 154,-214 154.36,-213.82 154.71,-213.64 155.07,-213.46"/>
<polygon fill="black" stroke="black" points="156.14,-214.88 159.74,-211 154.51,-211.78 156.14,-214.88"/>
</g>
<!-- function&#45;1&#45;Addi&#45;&gt;function&#45;2&#45;ImmVal -->
<g id="edge18" class="edge">
<title>function&#45;1&#45;Addi:s&#45;&gt;function&#45;2&#45;ImmVal</title>
<path fill="none" stroke="black" d="M307,-253C307,-238.54 313.7,-223.9 320.76,-212.48"/>
<polygon fill="black" stroke="black" points="319.81,-215.52 322.58,-211 317.6,-212.81 319.81,-215.52"/>
</g>
<!-- function&#45;1&#45;Addi&#45;&gt;function&#45;0&#45;RegVal -->
<g id="edge17" class="edge">
<title>function&#45;1&#45;Addi:s&#45;&gt;function&#45;0&#45;RegVal</title>
<path fill="none" stroke="black" d="M287,-253C287,-252.07 254.21,-231.05 226.96,-213.74"/>
<polygon fill="black" stroke="black" points="227.8,-212.2 222.64,-211 225.92,-215.16 227.8,-212.2"/>
</g>
<!-- function&#45;5&#45;ImmVal -->
<g id="node1" class="node">
<title>function&#45;5&#45;ImmVal</title>
<g id="a_node1"><a xlink:title="Imm&#45;11: function&#45;5&#45;ImmVal">
<path fill="white" stroke="transparent" d="M24.67,-174C24.67,-174 65.33,-174 65.33,-174 70.67,-174 76,-179.33 76,-184.67 76,-184.67 76,-195.33 76,-195.33 76,-200.67 70.67,-206 65.33,-206 65.33,-206 24.67,-206 24.67,-206 19.33,-206 14,-200.67 14,-195.33 14,-195.33 14,-184.67 14,-184.67 14,-179.33 19.33,-174 24.67,-174"/>
<text text-anchor="start" x="19" y="-186.3" font-family="Helvetica,sans-Serif" font-size="14.00">ImmVal</text>
<path fill="none" stroke="black" d="M24.67,-174C24.67,-174 65.33,-174 65.33,-174 70.67,-174 76,-179.33 76,-184.67 76,-184.67 76,-195.33 76,-195.33 76,-200.67 70.67,-206 65.33,-206 65.33,-206 24.67,-206 24.67,-206 19.33,-206 14,-200.67 14,-195.33 14,-195.33 14,-184.67 14,-184.67 14,-179.33 19.33,-174 24.67,-174"/>
</a>
</g>
</g>
<!-- primitive&#45;i64&#45;20 -->
<g id="node2" class="node">
<title>primitive&#45;i64&#45;20</title>
<g id="a_node2"><a xlink:title="i64&#45;20: primitive&#45;i64&#45;20">
<path fill="white" stroke="transparent" d="M39.67,-95C39.67,-95 50.33,-95 50.33,-95 55.67,-95 61,-100.33 61,-105.67 61,-105.67 61,-116.33 61,-116.33 61,-121.67 55.67,-127 50.33,-127 50.33,-127 39.67,-127 39.67,-127 34.33,-127 29,-121.67 29,-116.33 29,-116.33 29,-105.67 29,-105.67 29,-100.33 34.33,-95 39.67,-95"/>
<text text-anchor="start" x="35.5" y="-107.3" font-family="Helvetica,sans-Serif" font-size="14.00">20</text>
<path fill="none" stroke="black" d="M39.67,-95C39.67,-95 50.33,-95 50.33,-95 55.67,-95 61,-100.33 61,-105.67 61,-105.67 61,-116.33 61,-116.33 61,-121.67 55.67,-127 50.33,-127 50.33,-127 39.67,-127 39.67,-127 34.33,-127 29,-121.67 29,-116.33 29,-116.33 29,-105.67 29,-105.67 29,-100.33 34.33,-95 39.67,-95"/>
</a>
</g>
</g>
<!-- function&#45;2&#45;ImmVal -->
<g id="node3" class="node">
<title>function&#45;2&#45;ImmVal</title>
<g id="a_node3"><a xlink:title="Imm&#45;5: function&#45;2&#45;ImmVal">
<path fill="white" stroke="transparent" d="M316.67,-174C316.67,-174 357.33,-174 357.33,-174 362.67,-174 368,-179.33 368,-184.67 368,-184.67 368,-195.33 368,-195.33 368,-200.67 362.67,-206 357.33,-206 357.33,-206 316.67,-206 316.67,-206 311.33,-206 306,-200.67 306,-195.33 306,-195.33 306,-184.67 306,-184.67 306,-179.33 311.33,-174 316.67,-174"/>
<text text-anchor="start" x="311" y="-186.3" font-family="Helvetica,sans-Serif" font-size="14.00">ImmVal</text>
<path fill="none" stroke="black" d="M316.67,-174C316.67,-174 357.33,-174 357.33,-174 362.67,-174 368,-179.33 368,-184.67 368,-184.67 368,-195.33 368,-195.33 368,-200.67 362.67,-206 357.33,-206 357.33,-206 316.67,-206 316.67,-206 311.33,-206 306,-200.67 306,-195.33 306,-195.33 306,-184.67 306,-184.67 306,-179.33 311.33,-174 316.67,-174"/>
</a>
</g>
</g>
<!-- primitive&#45;i64&#45;50 -->
<g id="node4" class="node">
<title>primitive&#45;i64&#45;50</title>
<g id="a_node4"><a xlink:title="i64&#45;50: primitive&#45;i64&#45;50">
<path fill="white" stroke="transparent" d="M331.67,-95C331.67,-95 342.33,-95 342.33,-95 347.67,-95 353,-100.33 353,-105.67 353,-105.67 353,-116.33 353,-116.33 353,-121.67 347.67,-127 342.33,-127 342.33,-127 331.67,-127 331.67,-127 326.33,-127 321,-121.67 321,-116.33 321,-116.33 321,-105.67 321,-105.67 321,-100.33 326.33,-95 331.67,-95"/>
<text text-anchor="start" x="327.5" y="-107.3" font-family="Helvetica,sans-Serif" font-size="14.00">50</text>
<path fill="none" stroke="black" d="M331.67,-95C331.67,-95 342.33,-95 342.33,-95 347.67,-95 353,-100.33 353,-105.67 353,-105.67 353,-116.33 353,-116.33 353,-121.67 347.67,-127 342.33,-127 342.33,-127 331.67,-127 331.67,-127 326.33,-127 321,-121.67 321,-116.33 321,-116.33 321,-105.67 321,-105.67 321,-100.33 326.33,-95 331.67,-95"/>
</a>
</g>
</g>
<!-- function&#45;0&#45;ImmVal -->
<g id="node5" class="node">
<title>function&#45;0&#45;ImmVal</title>
<g id="a_node5"><a xlink:title="Imm&#45;1: function&#45;0&#45;ImmVal">
<path fill="white" stroke="transparent" d="M460.67,-95C460.67,-95 501.33,-95 501.33,-95 506.67,-95 512,-100.33 512,-105.67 512,-105.67 512,-116.33 512,-116.33 512,-121.67 506.67,-127 501.33,-127 501.33,-127 460.67,-127 460.67,-127 455.33,-127 450,-121.67 450,-116.33 450,-116.33 450,-105.67 450,-105.67 450,-100.33 455.33,-95 460.67,-95"/>
<text text-anchor="start" x="455" y="-107.3" font-family="Helvetica,sans-Serif" font-size="14.00">ImmVal</text>
<path fill="none" stroke="black" d="M460.67,-95C460.67,-95 501.33,-95 501.33,-95 506.67,-95 512,-100.33 512,-105.67 512,-105.67 512,-116.33 512,-116.33 512,-121.67 506.67,-127 501.33,-127 501.33,-127 460.67,-127 460.67,-127 455.33,-127 450,-121.67 450,-116.33 450,-116.33 450,-105.67 450,-105.67 450,-100.33 455.33,-95 460.67,-95"/>
</a>
</g>
</g>
<!-- primitive&#45;i64&#45;335544 -->
<g id="node6" class="node">
<title>primitive&#45;i64&#45;335544</title>
<g id="a_node6"><a xlink:title="i64&#45;335544: primitive&#45;i64&#45;335544">
<path fill="white" stroke="transparent" d="M459.17,-16C459.17,-16 502.83,-16 502.83,-16 508.17,-16 513.5,-21.33 513.5,-26.67 513.5,-26.67 513.5,-37.33 513.5,-37.33 513.5,-42.67 508.17,-48 502.83,-48 502.83,-48 459.17,-48 459.17,-48 453.83,-48 448.5,-42.67 448.5,-37.33 448.5,-37.33 448.5,-26.67 448.5,-26.67 448.5,-21.33 453.83,-16 459.17,-16"/>
<text text-anchor="start" x="454" y="-28.3" font-family="Helvetica,sans-Serif" font-size="14.00">335544</text>
<path fill="none" stroke="black" d="M459.17,-16C459.17,-16 502.83,-16 502.83,-16 508.17,-16 513.5,-21.33 513.5,-26.67 513.5,-26.67 513.5,-37.33 513.5,-37.33 513.5,-42.67 508.17,-48 502.83,-48 502.83,-48 459.17,-48 459.17,-48 453.83,-48 448.5,-42.67 448.5,-37.33 448.5,-37.33 448.5,-26.67 448.5,-26.67 448.5,-21.33 453.83,-16 459.17,-16"/>
</a>
</g>
</g>
<!-- function&#45;1&#45;ImmVal -->
<g id="node7" class="node">
<title>function&#45;1&#45;ImmVal</title>
<g id="a_node7"><a xlink:title="Imm&#45;3: function&#45;1&#45;ImmVal">
<path fill="white" stroke="transparent" d="M390.67,-174C390.67,-174 431.33,-174 431.33,-174 436.67,-174 442,-179.33 442,-184.67 442,-184.67 442,-195.33 442,-195.33 442,-200.67 436.67,-206 431.33,-206 431.33,-206 390.67,-206 390.67,-206 385.33,-206 380,-200.67 380,-195.33 380,-195.33 380,-184.67 380,-184.67 380,-179.33 385.33,-174 390.67,-174"/>
<text text-anchor="start" x="385" y="-186.3" font-family="Helvetica,sans-Serif" font-size="14.00">ImmVal</text>
<path fill="none" stroke="black" d="M390.67,-174C390.67,-174 431.33,-174 431.33,-174 436.67,-174 442,-179.33 442,-184.67 442,-184.67 442,-195.33 442,-195.33 442,-200.67 436.67,-206 431.33,-206 431.33,-206 390.67,-206 390.67,-206 385.33,-206 380,-200.67 380,-195.33 380,-195.33 380,-184.67 380,-184.67 380,-179.33 385.33,-174 390.67,-174"/>
</a>
</g>
</g>
<!-- primitive&#45;i64&#45;1311 -->
<g id="node8" class="node">
<title>primitive&#45;i64&#45;1311</title>
<g id="a_node8"><a xlink:title="i64&#45;1311: primitive&#45;i64&#45;1311">
<path fill="white" stroke="transparent" d="M398.17,-95C398.17,-95 423.83,-95 423.83,-95 429.17,-95 434.5,-100.33 434.5,-105.67 434.5,-105.67 434.5,-116.33 434.5,-116.33 434.5,-121.67 429.17,-127 423.83,-127 423.83,-127 398.17,-127 398.17,-127 392.83,-127 387.5,-121.67 387.5,-116.33 387.5,-116.33 387.5,-105.67 387.5,-105.67 387.5,-100.33 392.83,-95 398.17,-95"/>
<text text-anchor="start" x="393" y="-107.3" font-family="Helvetica,sans-Serif" font-size="14.00">1311</text>
<path fill="none" stroke="black" d="M398.17,-95C398.17,-95 423.83,-95 423.83,-95 429.17,-95 434.5,-100.33 434.5,-105.67 434.5,-105.67 434.5,-116.33 434.5,-116.33 434.5,-121.67 429.17,-127 423.83,-127 423.83,-127 398.17,-127 398.17,-127 392.83,-127 387.5,-121.67 387.5,-116.33 387.5,-116.33 387.5,-105.67 387.5,-105.67 387.5,-100.33 392.83,-95 398.17,-95"/>
</a>
</g>
</g>
<!-- function&#45;4&#45;ImmVal -->
<g id="node9" class="node">
<title>function&#45;4&#45;ImmVal</title>
<g id="a_node9"><a xlink:title="Imm&#45;9: function&#45;4&#45;ImmVal">
<path fill="white" stroke="transparent" d="M242.67,-174C242.67,-174 283.33,-174 283.33,-174 288.67,-174 294,-179.33 294,-184.67 294,-184.67 294,-195.33 294,-195.33 294,-200.67 288.67,-206 283.33,-206 283.33,-206 242.67,-206 242.67,-206 237.33,-206 232,-200.67 232,-195.33 232,-195.33 232,-184.67 232,-184.67 232,-179.33 237.33,-174 242.67,-174"/>
<text text-anchor="start" x="237" y="-186.3" font-family="Helvetica,sans-Serif" font-size="14.00">ImmVal</text>
<path fill="none" stroke="black" d="M242.67,-174C242.67,-174 283.33,-174 283.33,-174 288.67,-174 294,-179.33 294,-184.67 294,-184.67 294,-195.33 294,-195.33 294,-200.67 288.67,-206 283.33,-206 283.33,-206 242.67,-206 242.67,-206 237.33,-206 232,-200.67 232,-195.33 232,-195.33 232,-184.67 232,-184.67 232,-179.33 237.33,-174 242.67,-174"/>
</a>
</g>
</g>
<!-- primitive&#45;i64&#45;100 -->
<g id="node10" class="node">
<title>primitive&#45;i64&#45;100</title>
<g id="a_node10"><a xlink:title="i64&#45;100: primitive&#45;i64&#45;100">
<path fill="white" stroke="transparent" d="M257.67,-95C257.67,-95 274.33,-95 274.33,-95 279.67,-95 285,-100.33 285,-105.67 285,-105.67 285,-116.33 285,-116.33 285,-121.67 279.67,-127 274.33,-127 274.33,-127 257.67,-127 257.67,-127 252.33,-127 247,-121.67 247,-116.33 247,-116.33 247,-105.67 247,-105.67 247,-100.33 252.33,-95 257.67,-95"/>
<text text-anchor="start" x="252" y="-107.3" font-family="Helvetica,sans-Serif" font-size="14.00">100</text>
<path fill="none" stroke="black" d="M257.67,-95C257.67,-95 274.33,-95 274.33,-95 279.67,-95 285,-100.33 285,-105.67 285,-105.67 285,-116.33 285,-116.33 285,-121.67 279.67,-127 274.33,-127 274.33,-127 257.67,-127 257.67,-127 252.33,-127 247,-121.67 247,-116.33 247,-116.33 247,-105.67 247,-105.67 247,-100.33 252.33,-95 257.67,-95"/>
</a>
</g>
</g>
<!-- function&#45;3&#45;ImmVal -->
<g id="node11" class="node">
<title>function&#45;3&#45;ImmVal</title>
<g id="a_node11"><a xlink:title="Imm&#45;7: function&#45;3&#45;ImmVal">
<path fill="white" stroke="transparent" d="M98.67,-174C98.67,-174 139.33,-174 139.33,-174 144.67,-174 150,-179.33 150,-184.67 150,-184.67 150,-195.33 150,-195.33 150,-200.67 144.67,-206 139.33,-206 139.33,-206 98.67,-206 98.67,-206 93.33,-206 88,-200.67 88,-195.33 88,-195.33 88,-184.67 88,-184.67 88,-179.33 93.33,-174 98.67,-174"/>
<text text-anchor="start" x="93" y="-186.3" font-family="Helvetica,sans-Serif" font-size="14.00">ImmVal</text>
<path fill="none" stroke="black" d="M98.67,-174C98.67,-174 139.33,-174 139.33,-174 144.67,-174 150,-179.33 150,-184.67 150,-184.67 150,-195.33 150,-195.33 150,-200.67 144.67,-206 139.33,-206 139.33,-206 98.67,-206 98.67,-206 93.33,-206 88,-200.67 88,-195.33 88,-195.33 88,-184.67 88,-184.67 88,-179.33 93.33,-174 98.67,-174"/>
</a>
</g>
</g>
<!-- primitive&#45;i64&#45;0 -->
<g id="node12" class="node">
<title>primitive&#45;i64&#45;0</title>
<g id="a_node12"><a xlink:title="i64&#45;0: primitive&#45;i64&#45;0">
<path fill="white" stroke="transparent" d="M112.67,-95C112.67,-95 123.33,-95 123.33,-95 128.67,-95 134,-100.33 134,-105.67 134,-105.67 134,-116.33 134,-116.33 134,-121.67 128.67,-127 123.33,-127 123.33,-127 112.67,-127 112.67,-127 107.33,-127 102,-121.67 102,-116.33 102,-116.33 102,-105.67 102,-105.67 102,-100.33 107.33,-95 112.67,-95"/>
<text text-anchor="start" x="113" y="-107.3" font-family="Helvetica,sans-Serif" font-size="14.00">0</text>
<path fill="none" stroke="black" d="M112.67,-95C112.67,-95 123.33,-95 123.33,-95 128.67,-95 134,-100.33 134,-105.67 134,-105.67 134,-116.33 134,-116.33 134,-121.67 128.67,-127 123.33,-127 123.33,-127 112.67,-127 112.67,-127 107.33,-127 102,-121.67 102,-116.33 102,-116.33 102,-105.67 102,-105.67 102,-100.33 107.33,-95 112.67,-95"/>
</a>
</g>
</g>
<!-- function&#45;0&#45;Lui -->
<g id="node13" class="node">
<title>function&#45;0&#45;Lui</title>
<g id="a_node13"><a xlink:title="Inst&#45;2: function&#45;0&#45;Lui">
<path fill="white" stroke="transparent" d="M475.67,-174C475.67,-174 486.33,-174 486.33,-174 491.67,-174 497,-179.33 497,-184.67 497,-184.67 497,-195.33 497,-195.33 497,-200.67 491.67,-206 486.33,-206 486.33,-206 475.67,-206 475.67,-206 470.33,-206 465,-200.67 465,-195.33 465,-195.33 465,-184.67 465,-184.67 465,-179.33 470.33,-174 475.67,-174"/>
<text text-anchor="start" x="470.5" y="-186.3" font-family="Helvetica,sans-Serif" font-size="14.00">Lui</text>
<path fill="none" stroke="black" d="M475.67,-174C475.67,-174 486.33,-174 486.33,-174 491.67,-174 497,-179.33 497,-184.67 497,-184.67 497,-195.33 497,-195.33 497,-200.67 491.67,-206 486.33,-206 486.33,-206 475.67,-206 475.67,-206 470.33,-206 465,-200.67 465,-195.33 465,-195.33 465,-184.67 465,-184.67 465,-179.33 470.33,-174 475.67,-174"/>
</a>
</g>
</g>
<!-- function&#45;0&#45;Addi -->
<g id="node14" class="node">
<title>function&#45;0&#45;Addi</title>
<g id="a_node14"><a xlink:title="Inst&#45;4: function&#45;0&#45;Addi">
<path fill="white" stroke="transparent" d="M434.17,-253C434.17,-253 453.83,-253 453.83,-253 459.17,-253 464.5,-258.33 464.5,-263.67 464.5,-263.67 464.5,-274.33 464.5,-274.33 464.5,-279.67 459.17,-285 453.83,-285 453.83,-285 434.17,-285 434.17,-285 428.83,-285 423.5,-279.67 423.5,-274.33 423.5,-274.33 423.5,-263.67 423.5,-263.67 423.5,-258.33 428.83,-253 434.17,-253"/>
<text text-anchor="start" x="429" y="-265.3" font-family="Helvetica,sans-Serif" font-size="14.00">Addi</text>
<path fill="none" stroke="black" d="M434.17,-253C434.17,-253 453.83,-253 453.83,-253 459.17,-253 464.5,-258.33 464.5,-263.67 464.5,-263.67 464.5,-274.33 464.5,-274.33 464.5,-279.67 459.17,-285 453.83,-285 453.83,-285 434.17,-285 434.17,-285 428.83,-285 423.5,-279.67 423.5,-274.33 423.5,-274.33 423.5,-263.67 423.5,-263.67 423.5,-258.33 428.83,-253 434.17,-253"/>
</a>
</g>
</g>
<!-- function&#45;2&#45;Addi -->
<g id="node15" class="node">
<title>function&#45;2&#45;Addi</title>
<g id="a_node15"><a xlink:title="Inst&#45;8: function&#45;2&#45;Addi">
<path fill="white" stroke="transparent" d="M119.17,-253C119.17,-253 138.83,-253 138.83,-253 144.17,-253 149.5,-258.33 149.5,-263.67 149.5,-263.67 149.5,-274.33 149.5,-274.33 149.5,-279.67 144.17,-285 138.83,-285 138.83,-285 119.17,-285 119.17,-285 113.83,-285 108.5,-279.67 108.5,-274.33 108.5,-274.33 108.5,-263.67 108.5,-263.67 108.5,-258.33 113.83,-253 119.17,-253"/>
<text text-anchor="start" x="114" y="-265.3" font-family="Helvetica,sans-Serif" font-size="14.00">Addi</text>
<path fill="none" stroke="black" d="M119.17,-253C119.17,-253 138.83,-253 138.83,-253 144.17,-253 149.5,-258.33 149.5,-263.67 149.5,-263.67 149.5,-274.33 149.5,-274.33 149.5,-279.67 144.17,-285 138.83,-285 138.83,-285 119.17,-285 119.17,-285 113.83,-285 108.5,-279.67 108.5,-274.33 108.5,-274.33 108.5,-263.67 108.5,-263.67 108.5,-258.33 113.83,-253 119.17,-253"/>
</a>
</g>
</g>
<!-- function&#45;0&#45;RegVal -->
<g id="node16" class="node">
<title>function&#45;0&#45;RegVal</title>
<g id="a_node16"><a xlink:title="Inst&#45;0: function&#45;0&#45;RegVal">
<path fill="white" stroke="transparent" d="M173.17,-174C173.17,-174 208.83,-174 208.83,-174 214.17,-174 219.5,-179.33 219.5,-184.67 219.5,-184.67 219.5,-195.33 219.5,-195.33 219.5,-200.67 214.17,-206 208.83,-206 208.83,-206 173.17,-206 173.17,-206 167.83,-206 162.5,-200.67 162.5,-195.33 162.5,-195.33 162.5,-184.67 162.5,-184.67 162.5,-179.33 167.83,-174 173.17,-174"/>
<text text-anchor="start" x="168" y="-186.3" font-family="Helvetica,sans-Serif" font-size="14.00">RegVal</text>
<path fill="none" stroke="black" d="M173.17,-174C173.17,-174 208.83,-174 208.83,-174 214.17,-174 219.5,-179.33 219.5,-184.67 219.5,-184.67 219.5,-195.33 219.5,-195.33 219.5,-200.67 214.17,-206 208.83,-206 208.83,-206 173.17,-206 173.17,-206 167.83,-206 162.5,-200.67 162.5,-195.33 162.5,-195.33 162.5,-184.67 162.5,-184.67 162.5,-179.33 167.83,-174 173.17,-174"/>
</a>
</g>
</g>
<!-- function&#45;3&#45;Addi -->
<g id="node17" class="node">
<title>function&#45;3&#45;Addi</title>
<g id="a_node17"><a xlink:title="Inst&#45;10: function&#45;3&#45;Addi">
<path fill="white" stroke="transparent" d="M206.17,-253C206.17,-253 225.83,-253 225.83,-253 231.17,-253 236.5,-258.33 236.5,-263.67 236.5,-263.67 236.5,-274.33 236.5,-274.33 236.5,-279.67 231.17,-285 225.83,-285 225.83,-285 206.17,-285 206.17,-285 200.83,-285 195.5,-279.67 195.5,-274.33 195.5,-274.33 195.5,-263.67 195.5,-263.67 195.5,-258.33 200.83,-253 206.17,-253"/>
<text text-anchor="start" x="201" y="-265.3" font-family="Helvetica,sans-Serif" font-size="14.00">Addi</text>
<path fill="none" stroke="black" d="M206.17,-253C206.17,-253 225.83,-253 225.83,-253 231.17,-253 236.5,-258.33 236.5,-263.67 236.5,-263.67 236.5,-274.33 236.5,-274.33 236.5,-279.67 231.17,-285 225.83,-285 225.83,-285 206.17,-285 206.17,-285 200.83,-285 195.5,-279.67 195.5,-274.33 195.5,-274.33 195.5,-263.67 195.5,-263.67 195.5,-258.33 200.83,-253 206.17,-253"/>
</a>
</g>
</g>
<!-- function&#45;4&#45;Addi -->
<g id="node18" class="node">
<title>function&#45;4&#45;Addi</title>
<g id="a_node18"><a xlink:title="Inst&#45;12: function&#45;4&#45;Addi">
<path fill="white" stroke="transparent" d="M52.17,-253C52.17,-253 71.83,-253 71.83,-253 77.17,-253 82.5,-258.33 82.5,-263.67 82.5,-263.67 82.5,-274.33 82.5,-274.33 82.5,-279.67 77.17,-285 71.83,-285 71.83,-285 52.17,-285 52.17,-285 46.83,-285 41.5,-279.67 41.5,-274.33 41.5,-274.33 41.5,-263.67 41.5,-263.67 41.5,-258.33 46.83,-253 52.17,-253"/>
<text text-anchor="start" x="47" y="-265.3" font-family="Helvetica,sans-Serif" font-size="14.00">Addi</text>
<path fill="none" stroke="black" d="M52.17,-253C52.17,-253 71.83,-253 71.83,-253 77.17,-253 82.5,-258.33 82.5,-263.67 82.5,-263.67 82.5,-274.33 82.5,-274.33 82.5,-279.67 77.17,-285 71.83,-285 71.83,-285 52.17,-285 52.17,-285 46.83,-285 41.5,-279.67 41.5,-274.33 41.5,-274.33 41.5,-263.67 41.5,-263.67 41.5,-258.33 46.83,-253 52.17,-253"/>
</a>
</g>
</g>
<!-- primitive&#45;String&#45;1 -->
<g id="node19" class="node">
<title>primitive&#45;String&#45;1</title>
<g id="a_node19"><a xlink:title="String&#45;1: primitive&#45;String&#45;1">
<path fill="white" stroke="transparent" d="M168.17,-95C168.17,-95 215.83,-95 215.83,-95 221.17,-95 226.5,-100.33 226.5,-105.67 226.5,-105.67 226.5,-116.33 226.5,-116.33 226.5,-121.67 221.17,-127 215.83,-127 215.83,-127 168.17,-127 168.17,-127 162.83,-127 157.5,-121.67 157.5,-116.33 157.5,-116.33 157.5,-105.67 157.5,-105.67 157.5,-100.33 162.83,-95 168.17,-95"/>
<text text-anchor="start" x="163" y="-107.3" font-family="Helvetica,sans-Serif" font-size="14.00">&quot;zero_0&quot;</text>
<path fill="none" stroke="black" d="M168.17,-95C168.17,-95 215.83,-95 215.83,-95 221.17,-95 226.5,-100.33 226.5,-105.67 226.5,-105.67 226.5,-116.33 226.5,-116.33 226.5,-121.67 221.17,-127 215.83,-127 215.83,-127 168.17,-127 168.17,-127 162.83,-127 157.5,-121.67 157.5,-116.33 157.5,-116.33 157.5,-105.67 157.5,-105.67 157.5,-100.33 162.83,-95 168.17,-95"/>
</a>
</g>
</g>
<!-- function&#45;1&#45;Addi -->
<g id="node20" class="node">
<title>function&#45;1&#45;Addi</title>
<g id="a_node20"><a xlink:title="Inst&#45;6: function&#45;1&#45;Addi">
<path fill="white" stroke="transparent" d="M287.17,-253C287.17,-253 306.83,-253 306.83,-253 312.17,-253 317.5,-258.33 317.5,-263.67 317.5,-263.67 317.5,-274.33 317.5,-274.33 317.5,-279.67 312.17,-285 306.83,-285 306.83,-285 287.17,-285 287.17,-285 281.83,-285 276.5,-279.67 276.5,-274.33 276.5,-274.33 276.5,-263.67 276.5,-263.67 276.5,-258.33 281.83,-253 287.17,-253"/>
<text text-anchor="start" x="282" y="-265.3" font-family="Helvetica,sans-Serif" font-size="14.00">Addi</text>
<path fill="none" stroke="black" d="M287.17,-253C287.17,-253 306.83,-253 306.83,-253 312.17,-253 317.5,-258.33 317.5,-263.67 317.5,-263.67 317.5,-274.33 317.5,-274.33 317.5,-279.67 312.17,-285 306.83,-285 306.83,-285 287.17,-285 287.17,-285 281.83,-285 276.5,-279.67 276.5,-274.33 276.5,-274.33 276.5,-263.67 276.5,-263.67 276.5,-258.33 281.83,-253 287.17,-253"/>
</a>
</g>
</g>
</g>
</svg>
