<?xml version="1.0" encoding="UTF-8" standalone="no"?>
<!DOCTYPE svg PUBLIC "-//W3C//DTD SVG 1.1//EN"
 "http://www.w3.org/Graphics/SVG/1.1/DTD/svg11.dtd">
<!-- Generated by graphviz version 2.43.0 (0)
 -->
<!-- Title: %3 Pages: 1 -->
<svg width="955pt" height="862pt"
 viewBox="0.00 0.00 955.00 862.00" xmlns="http://www.w3.org/2000/svg" xmlns:xlink="http://www.w3.org/1999/xlink">
<g id="graph0" class="graph" transform="scale(1 1) rotate(0) translate(4 858)">
<title>%3</title>
<polygon fill="white" stroke="#000000" points="-4,4 -4,-858 951,-858 951,4 -4,4"/>
<g id="clust1" class="cluster">
<title>outer_cluster_Imm&#45;11</title>
</g>
<g id="clust2" class="cluster">
<title>cluster_Imm&#45;11</title>
<path fill="#ffffb3" stroke="black" stroke-dasharray="5,2" d="M281,-248C281,-248 325,-248 325,-248 331,-248 337,-254 337,-260 337,-260 337,-278 337,-278 337,-284 331,-290 325,-290 325,-290 281,-290 281,-290 275,-290 269,-284 269,-278 269,-278 269,-260 269,-260 269,-254 275,-248 281,-248"/>
</g>
<g id="clust4" class="cluster">
<title>outer_cluster_Imm&#45;17</title>
</g>
<g id="clust5" class="cluster">
<title>cluster_Imm&#45;17</title>
<path fill="#ffffb3" stroke="black" stroke-dasharray="5,2" d="M575,-722C575,-722 635,-722 635,-722 641,-722 647,-728 647,-734 647,-734 647,-752 647,-752 647,-758 641,-764 635,-764 635,-764 575,-764 575,-764 569,-764 563,-758 563,-752 563,-752 563,-734 563,-734 563,-728 569,-722 575,-722"/>
</g>
<g id="clust7" class="cluster">
<title>outer_cluster_Imm&#45;20</title>
</g>
<g id="clust8" class="cluster">
<title>cluster_Imm&#45;20</title>
<path fill="#ffffb3" stroke="black" stroke-dasharray="5,2" d="M702,-722C702,-722 762,-722 762,-722 768,-722 774,-728 774,-734 774,-734 774,-752 774,-752 774,-758 768,-764 762,-764 762,-764 702,-764 702,-764 696,-764 690,-758 690,-752 690,-752 690,-734 690,-734 690,-728 696,-722 702,-722"/>
</g>
<g id="clust10" class="cluster">
<title>outer_cluster_Imm&#45;5</title>
</g>
<g id="clust11" class="cluster">
<title>cluster_Imm&#45;5</title>
<path fill="#ffffb3" stroke="black" stroke-dasharray="5,2" d="M365,-90C365,-90 409,-90 409,-90 415,-90 421,-96 421,-102 421,-102 421,-120 421,-120 421,-126 415,-132 409,-132 409,-132 365,-132 365,-132 359,-132 353,-126 353,-120 353,-120 353,-102 353,-102 353,-96 359,-90 365,-90"/>
</g>
<g id="clust13" class="cluster">
<title>outer_cluster_Imm&#45;7</title>
</g>
<g id="clust14" class="cluster">
<title>cluster_Imm&#45;7</title>
<path fill="#ffffb3" stroke="black" stroke-dasharray="5,2" d="M23,-722C23,-722 67,-722 67,-722 73,-722 79,-728 79,-734 79,-734 79,-752 79,-752 79,-758 73,-764 67,-764 67,-764 23,-764 23,-764 17,-764 11,-758 11,-752 11,-752 11,-734 11,-734 11,-728 17,-722 23,-722"/>
</g>
<g id="clust16" class="cluster">
<title>outer_cluster_Imm&#45;22</title>
</g>
<g id="clust17" class="cluster">
<title>cluster_Imm&#45;22</title>
<path fill="#ffffb3" stroke="black" stroke-dasharray="5,2" d="M434,-169C434,-169 478,-169 478,-169 484,-169 490,-175 490,-181 490,-181 490,-199 490,-199 490,-205 484,-211 478,-211 478,-211 434,-211 434,-211 428,-211 422,-205 422,-199 422,-199 422,-181 422,-181 422,-175 428,-169 434,-169"/>
</g>
<g id="clust19" class="cluster">
<title>outer_cluster_Imm&#45;9</title>
</g>
<g id="clust20" class="cluster">
<title>cluster_Imm&#45;9</title>
<path fill="#ffffb3" stroke="black" stroke-dasharray="5,2" d="M501,-248C501,-248 545,-248 545,-248 551,-248 557,-254 557,-260 557,-260 557,-278 557,-278 557,-284 551,-290 545,-290 545,-290 501,-290 501,-290 495,-290 489,-284 489,-278 489,-278 489,-260 489,-260 489,-254 495,-248 501,-248"/>
</g>
<g id="clust22" class="cluster">
<title>outer_cluster_Inst&#45;4</title>
</g>
<g id="clust23" class="cluster">
<title>cluster_Inst&#45;4</title>
<path fill="#bebada" stroke="black" stroke-dasharray="5,2" d="M215,-248C215,-248 251,-248 251,-248 257,-248 263,-254 263,-260 263,-260 263,-278 263,-278 263,-284 257,-290 251,-290 251,-290 215,-290 215,-290 209,-290 203,-284 203,-278 203,-278 203,-260 203,-260 203,-254 209,-248 215,-248"/>
</g>
<g id="clust25" class="cluster">
<title>outer_cluster_Inst&#45;0</title>
</g>
<g id="clust26" class="cluster">
<title>cluster_Inst&#45;0</title>
<path fill="#bebada" stroke="black" stroke-dasharray="5,2" d="M169,-90C169,-90 209,-90 209,-90 215,-90 221,-96 221,-102 221,-102 221,-120 221,-120 221,-126 215,-132 209,-132 209,-132 169,-132 169,-132 163,-132 157,-126 157,-120 157,-120 157,-102 157,-102 157,-96 163,-90 169,-90"/>
</g>
<g id="clust28" class="cluster">
<title>outer_cluster_Inst&#45;3</title>
</g>
<g id="clust29" class="cluster">
<title>cluster_Inst&#45;3</title>
<path fill="#bebada" stroke="black" stroke-dasharray="5,2" d="M415,-406C415,-406 455,-406 455,-406 461,-406 467,-412 467,-418 467,-418 467,-436 467,-436 467,-442 461,-448 455,-448 455,-448 415,-448 415,-448 409,-448 403,-442 403,-436 403,-436 403,-418 403,-418 403,-412 409,-406 415,-406"/>
</g>
<g id="clust31" class="cluster">
<title>outer_cluster_Inst&#45;23</title>
</g>
<g id="clust32" class="cluster">
<title>cluster_Inst&#45;23</title>
<path fill="#bebada" stroke="black" stroke-dasharray="5,2" d="M370,-248C370,-248 406,-248 406,-248 412,-248 418,-254 418,-260 418,-260 418,-278 418,-278 418,-284 412,-290 406,-290 406,-290 370,-290 370,-290 364,-290 358,-284 358,-278 358,-278 358,-260 358,-260 358,-254 364,-248 370,-248"/>
</g>
<g id="clust34" class="cluster">
<title>outer_cluster_Inst&#45;21</title>
</g>
<g id="clust35" class="cluster">
<title>cluster_Inst&#45;21</title>
<path fill="#bebada" stroke="black" stroke-dasharray="5,2" d="M765,-801C765,-801 801,-801 801,-801 807,-801 813,-807 813,-813 813,-813 813,-831 813,-831 813,-837 807,-843 801,-843 801,-843 765,-843 765,-843 759,-843 753,-837 753,-831 753,-831 753,-813 753,-813 753,-807 759,-801 765,-801"/>
</g>
<g id="clust37" class="cluster">
<title>outer_cluster_Inst&#45;13</title>
</g>
<g id="clust38" class="cluster">
<title>cluster_Inst&#45;13</title>
<path fill="#bebada" stroke="black" stroke-dasharray="5,2" d="M233,-406C233,-406 385,-406 385,-406 391,-406 397,-412 397,-418 397,-418 397,-436 397,-436 397,-442 391,-448 385,-448 385,-448 233,-448 233,-448 227,-448 221,-442 221,-436 221,-436 221,-418 221,-418 221,-412 227,-406 233,-406"/>
</g>
<g id="clust40" class="cluster">
<title>outer_cluster_Inst&#45;10</title>
</g>
<g id="clust41" class="cluster">
<title>cluster_Inst&#45;10</title>
<path fill="#bebada" stroke="black" stroke-dasharray="5,2" d="M379,-801C379,-801 415,-801 415,-801 421,-801 427,-807 427,-813 427,-813 427,-831 427,-831 427,-837 421,-843 415,-843 415,-843 379,-843 379,-843 373,-843 367,-837 367,-831 367,-831 367,-813 367,-813 367,-807 373,-801 379,-801"/>
</g>
<g id="clust43" class="cluster">
<title>outer_cluster_Inst&#45;24</title>
</g>
<g id="clust44" class="cluster">
<title>cluster_Inst&#45;24</title>
<path fill="#bebada" stroke="black" stroke-dasharray="5,2" d="M308,-564C308,-564 344,-564 344,-564 350,-564 356,-570 356,-576 356,-576 356,-594 356,-594 356,-600 350,-606 344,-606 344,-606 308,-606 308,-606 302,-606 296,-600 296,-594 296,-594 296,-576 296,-576 296,-570 302,-564 308,-564"/>
</g>
<g id="clust46" class="cluster">
<title>outer_cluster_Inst&#45;19</title>
</g>
<g id="clust47" class="cluster">
<title>cluster_Inst&#45;19</title>
<path fill="#bebada" stroke="black" stroke-dasharray="5,2" d="M814,-722C814,-722 854,-722 854,-722 860,-722 866,-728 866,-734 866,-734 866,-752 866,-752 866,-758 860,-764 854,-764 854,-764 814,-764 814,-764 808,-764 802,-758 802,-752 802,-752 802,-734 802,-734 802,-728 808,-722 814,-722"/>
</g>
<g id="clust49" class="cluster">
<title>outer_cluster_Inst&#45;16</title>
</g>
<g id="clust50" class="cluster">
<title>cluster_Inst&#45;16</title>
<path fill="#bebada" stroke="black" stroke-dasharray="5,2" d="M184,-801C184,-801 220,-801 220,-801 226,-801 232,-807 232,-813 232,-813 232,-831 232,-831 232,-837 226,-843 220,-843 220,-843 184,-843 184,-843 178,-843 172,-837 172,-831 172,-831 172,-813 172,-813 172,-807 178,-801 184,-801"/>
</g>
<g id="clust52" class="cluster">
<title>outer_cluster_Inst&#45;2</title>
</g>
<g id="clust53" class="cluster">
<title>cluster_Inst&#45;2</title>
<path fill="#bebada" stroke="black" stroke-dasharray="5,2" d="M225,-169C225,-169 265,-169 265,-169 271,-169 277,-175 277,-181 277,-181 277,-199 277,-199 277,-205 271,-211 265,-211 265,-211 225,-211 225,-211 219,-211 213,-205 213,-199 213,-199 213,-181 213,-181 213,-175 219,-169 225,-169"/>
</g>
<g id="clust55" class="cluster">
<title>outer_cluster_Inst&#45;14</title>
</g>
<g id="clust56" class="cluster">
<title>cluster_Inst&#45;14</title>
<path fill="#bebada" stroke="black" stroke-dasharray="5,2" d="M241,-485C241,-485 335,-485 335,-485 341,-485 347,-491 347,-497 347,-497 347,-515 347,-515 347,-521 341,-527 335,-527 335,-527 241,-527 241,-527 235,-527 229,-521 229,-515 229,-515 229,-497 229,-497 229,-491 235,-485 241,-485"/>
</g>
<g id="clust58" class="cluster">
<title>outer_cluster_Inst&#45;1</title>
</g>
<g id="clust59" class="cluster">
<title>cluster_Inst&#45;1</title>
<path fill="#bebada" stroke="black" stroke-dasharray="5,2" d="M97,-722C97,-722 137,-722 137,-722 143,-722 149,-728 149,-734 149,-734 149,-752 149,-752 149,-758 143,-764 137,-764 137,-764 97,-764 97,-764 91,-764 85,-758 85,-752 85,-752 85,-734 85,-734 85,-728 91,-722 97,-722"/>
</g>
<g id="clust61" class="cluster">
<title>outer_cluster_Inst&#45;15</title>
</g>
<g id="clust62" class="cluster">
<title>cluster_Inst&#45;15</title>
<path fill="#bebada" stroke="black" stroke-dasharray="5,2" d="M167,-722C167,-722 319,-722 319,-722 325,-722 331,-728 331,-734 331,-734 331,-752 331,-752 331,-758 325,-764 319,-764 319,-764 167,-764 167,-764 161,-764 155,-758 155,-752 155,-752 155,-734 155,-734 155,-728 161,-722 167,-722"/>
</g>
<g id="clust64" class="cluster">
<title>outer_cluster_Inst&#45;8</title>
</g>
<g id="clust65" class="cluster">
<title>cluster_Inst&#45;8</title>
<path fill="#bebada" stroke="black" stroke-dasharray="5,2" d="M66,-801C66,-801 102,-801 102,-801 108,-801 114,-807 114,-813 114,-813 114,-831 114,-831 114,-837 108,-843 102,-843 102,-843 66,-843 66,-843 60,-843 54,-837 54,-831 54,-831 54,-813 54,-813 54,-807 60,-801 66,-801"/>
</g>
<g id="clust67" class="cluster">
<title>outer_cluster_Inst&#45;25</title>
</g>
<g id="clust68" class="cluster">
<title>cluster_Inst&#45;25</title>
<path fill="#bebada" stroke="black" stroke-dasharray="5,2" d="M355,-327C355,-327 391,-327 391,-327 397,-327 403,-333 403,-339 403,-339 403,-357 403,-357 403,-363 397,-369 391,-369 391,-369 355,-369 355,-369 349,-369 343,-363 343,-357 343,-357 343,-339 343,-339 343,-333 349,-327 355,-327"/>
</g>
<g id="clust70" class="cluster">
<title>outer_cluster_Inst&#45;26</title>
</g>
<g id="clust71" class="cluster">
<title>cluster_Inst&#45;26</title>
<path fill="#bebada" stroke="black" stroke-dasharray="5,2" d="M305,-643C305,-643 341,-643 341,-643 347,-643 353,-649 353,-655 353,-655 353,-673 353,-673 353,-679 347,-685 341,-685 341,-685 305,-685 305,-685 299,-685 293,-679 293,-673 293,-673 293,-655 293,-655 293,-649 299,-643 305,-643"/>
</g>
<g id="clust73" class="cluster">
<title>outer_cluster_Inst&#45;18</title>
</g>
<g id="clust74" class="cluster">
<title>cluster_Inst&#45;18</title>
<path fill="#bebada" stroke="black" stroke-dasharray="5,2" d="M587,-801C587,-801 623,-801 623,-801 629,-801 635,-807 635,-813 635,-813 635,-831 635,-831 635,-837 629,-843 623,-843 623,-843 587,-843 587,-843 581,-843 575,-837 575,-831 575,-831 575,-813 575,-813 575,-807 581,-801 587,-801"/>
</g>
<g id="clust76" class="cluster">
<title>outer_cluster_Inst&#45;6</title>
</g>
<g id="clust77" class="cluster">
<title>cluster_Inst&#45;6</title>
<path fill="#bebada" stroke="black" stroke-dasharray="5,2" d="M361,-169C361,-169 397,-169 397,-169 403,-169 409,-175 409,-181 409,-181 409,-199 409,-199 409,-205 403,-211 397,-211 397,-211 361,-211 361,-211 355,-211 349,-205 349,-199 349,-199 349,-181 349,-181 349,-175 355,-169 361,-169"/>
</g>
<g id="clust79" class="cluster">
<title>outer_cluster_Inst&#45;12</title>
</g>
<g id="clust80" class="cluster">
<title>cluster_Inst&#45;12</title>
<path fill="#bebada" stroke="black" stroke-dasharray="5,2" d="M276,-327C276,-327 312,-327 312,-327 318,-327 324,-333 324,-339 324,-339 324,-357 324,-357 324,-363 318,-369 312,-369 312,-369 276,-369 276,-369 270,-369 264,-363 264,-357 264,-357 264,-339 264,-339 264,-333 270,-327 276,-327"/>
</g>
<g id="clust82" class="cluster">
<title>outer_cluster_String&#45;5</title>
</g>
<g id="clust83" class="cluster">
<title>cluster_String&#45;5</title>
<path fill="#fb8072" stroke="black" stroke-dasharray="5,2" d="M770,-643C770,-643 924,-643 924,-643 930,-643 936,-649 936,-655 936,-655 936,-673 936,-673 936,-679 930,-685 924,-685 924,-685 770,-685 770,-685 764,-685 758,-679 758,-673 758,-673 758,-655 758,-655 758,-649 764,-643 770,-643"/>
</g>
<g id="clust85" class="cluster">
<title>outer_cluster_String&#45;4</title>
</g>
<g id="clust86" class="cluster">
<title>cluster_String&#45;4</title>
<path fill="#fb8072" stroke="black" stroke-dasharray="5,2" d="M538,-643C538,-643 674,-643 674,-643 680,-643 686,-649 686,-655 686,-655 686,-673 686,-673 686,-679 680,-685 674,-685 674,-685 538,-685 538,-685 532,-685 526,-679 526,-673 526,-673 526,-655 526,-655 526,-649 532,-643 538,-643"/>
</g>
<g id="clust88" class="cluster">
<title>outer_cluster_String&#45;6</title>
</g>
<g id="clust89" class="cluster">
<title>cluster_String&#45;6</title>
<path fill="#fb8072" stroke="black" stroke-dasharray="5,2" d="M704,-643C704,-643 740,-643 740,-643 746,-643 752,-649 752,-655 752,-655 752,-673 752,-673 752,-679 746,-685 740,-685 740,-685 704,-685 704,-685 698,-685 692,-679 692,-673 692,-673 692,-655 692,-655 692,-649 698,-643 704,-643"/>
</g>
<g id="clust91" class="cluster">
<title>outer_cluster_String&#45;0</title>
</g>
<g id="clust92" class="cluster">
<title>cluster_String&#45;0</title>
<path fill="#fb8072" stroke="black" stroke-dasharray="5,2" d="M170,-11C170,-11 210,-11 210,-11 216,-11 222,-17 222,-23 222,-23 222,-41 222,-41 222,-47 216,-53 210,-53 210,-53 170,-53 170,-53 164,-53 158,-47 158,-41 158,-41 158,-23 158,-23 158,-17 164,-11 170,-11"/>
</g>
<g id="clust94" class="cluster">
<title>outer_cluster_String&#45;3</title>
</g>
<g id="clust95" class="cluster">
<title>cluster_String&#45;3</title>
<path fill="#fb8072" stroke="black" stroke-dasharray="5,2" d="M421,-327C421,-327 459,-327 459,-327 465,-327 471,-333 471,-339 471,-339 471,-357 471,-357 471,-363 465,-369 459,-369 459,-369 421,-369 421,-369 415,-369 409,-363 409,-357 409,-357 409,-339 409,-339 409,-333 415,-327 421,-327"/>
</g>
<g id="clust97" class="cluster">
<title>outer_cluster_String&#45;2</title>
</g>
<g id="clust98" class="cluster">
<title>cluster_String&#45;2</title>
<path fill="#fb8072" stroke="black" stroke-dasharray="5,2" d="M239,-90C239,-90 277,-90 277,-90 283,-90 289,-96 289,-102 289,-102 289,-120 289,-120 289,-126 283,-132 277,-132 277,-132 239,-132 239,-132 233,-132 227,-126 227,-120 227,-120 227,-102 227,-102 227,-96 233,-90 239,-90"/>
</g>
<g id="clust100" class="cluster">
<title>outer_cluster_String&#45;1</title>
</g>
<g id="clust101" class="cluster">
<title>cluster_String&#45;1</title>
<path fill="#fb8072" stroke="black" stroke-dasharray="5,2" d="M99,-643C99,-643 137,-643 137,-643 143,-643 149,-649 149,-655 149,-655 149,-673 149,-673 149,-679 143,-685 137,-685 137,-685 99,-685 99,-685 93,-685 87,-679 87,-673 87,-673 87,-655 87,-655 87,-649 93,-643 99,-643"/>
</g>
<g id="clust103" class="cluster">
<title>outer_cluster_i64&#45;5</title>
</g>
<g id="clust104" class="cluster">
<title>cluster_i64&#45;5</title>
<path fill="#80b1d3" stroke="black" stroke-dasharray="5,2" d="M295,-169C295,-169 331,-169 331,-169 337,-169 343,-175 343,-181 343,-181 343,-199 343,-199 343,-205 337,-211 331,-211 331,-211 295,-211 295,-211 289,-211 283,-205 283,-199 283,-199 283,-181 283,-181 283,-175 289,-169 295,-169"/>
</g>
<g id="clust106" class="cluster">
<title>outer_cluster_i64&#45;2147483648</title>
</g>
<g id="clust107" class="cluster">
<title>cluster_i64&#45;2147483648</title>
<path fill="#80b1d3" stroke="black" stroke-dasharray="5,2" d="M439,-90C439,-90 475,-90 475,-90 481,-90 487,-96 487,-102 487,-102 487,-120 487,-120 487,-126 481,-132 475,-132 475,-132 439,-132 439,-132 433,-132 427,-126 427,-120 427,-120 427,-102 427,-102 427,-96 433,-90 439,-90"/>
</g>
<g id="clust109" class="cluster">
<title>outer_cluster_i64&#45;0</title>
</g>
<g id="clust110" class="cluster">
<title>cluster_i64&#45;0</title>
<path fill="#80b1d3" stroke="black" stroke-dasharray="5,2" d="M27,-643C27,-643 63,-643 63,-643 69,-643 75,-649 75,-655 75,-655 75,-673 75,-673 75,-679 69,-685 63,-685 63,-685 27,-685 27,-685 21,-685 15,-679 15,-673 15,-673 15,-655 15,-655 15,-649 21,-643 27,-643"/>
</g>
<g id="clust112" class="cluster">
<title>outer_cluster_i64&#45;31</title>
</g>
<g id="clust113" class="cluster">
<title>cluster_i64&#45;31</title>
<path fill="#80b1d3" stroke="black" stroke-dasharray="5,2" d="M369,-11C369,-11 405,-11 405,-11 411,-11 417,-17 417,-23 417,-23 417,-41 417,-41 417,-47 411,-53 405,-53 405,-53 369,-53 369,-53 363,-53 357,-47 357,-41 357,-41 357,-23 357,-23 357,-17 363,-11 369,-11"/>
</g>
<g id="clust115" class="cluster">
<title>outer_cluster_i64&#45;1</title>
</g>
<g id="clust116" class="cluster">
<title>cluster_i64&#45;1</title>
<path fill="#80b1d3" stroke="black" stroke-dasharray="5,2" d="M508,-169C508,-169 544,-169 544,-169 550,-169 556,-175 556,-181 556,-181 556,-199 556,-199 556,-205 550,-211 544,-211 544,-211 508,-211 508,-211 502,-211 496,-205 496,-199 496,-199 496,-181 496,-181 496,-175 502,-169 508,-169"/>
</g>
<!-- function&#45;3&#45;ImmVal&#45;&gt;primitive&#45;i64&#45;5 -->
<g id="edge1" class="edge">
<title>function&#45;3&#45;ImmVal:s&#45;&gt;primitive&#45;i64&#45;5</title>
<path fill="none" stroke="black" d="M303,-253C303,-239.76 305.25,-225.14 307.61,-213.42"/>
<polygon fill="black" stroke="black" points="308.25,-216.28 308.7,-211 305.05,-214.84 308.25,-216.28"/>
</g>
<!-- function&#45;0&#45;ImmLabel&#45;&gt;primitive&#45;String&#45;4 -->
<g id="edge2" class="edge">
<title>function&#45;0&#45;ImmLabel:s&#45;&gt;primitive&#45;String&#45;4</title>
<path fill="none" stroke="black" d="M606,-727C606,-713.84 606,-699.11 606,-687.3"/>
<polygon fill="black" stroke="black" points="607.75,-690 606,-685 604.25,-690 607.75,-690"/>
</g>
<!-- function&#45;1&#45;ImmLabel&#45;&gt;primitive&#45;String&#45;6 -->
<g id="edge3" class="edge">
<title>function&#45;1&#45;ImmLabel:s&#45;&gt;primitive&#45;String&#45;6</title>
<path fill="none" stroke="black" d="M733,-727C733,-713.73 730.53,-699.1 727.92,-687.39"/>
<polygon fill="black" stroke="black" points="730.53,-688.69 726.73,-685 727.4,-690.25 730.53,-688.69"/>
</g>
<!-- function&#45;0&#45;ImmVal&#45;&gt;primitive&#45;i64&#45;31 -->
<g id="edge4" class="edge">
<title>function&#45;0&#45;ImmVal:s&#45;&gt;primitive&#45;i64&#45;31</title>
<path fill="none" stroke="black" d="M387,-95C387,-81.84 387,-67.11 387,-55.3"/>
<polygon fill="black" stroke="black" points="388.75,-58 387,-53 385.25,-58 388.75,-58"/>
</g>
<!-- function&#45;1&#45;ImmVal&#45;&gt;primitive&#45;i64&#45;0 -->
<g id="edge5" class="edge">
<title>function&#45;1&#45;ImmVal:s&#45;&gt;primitive&#45;i64&#45;0</title>
<path fill="none" stroke="black" d="M45,-727C45,-713.84 45,-699.11 45,-687.3"/>
<polygon fill="black" stroke="black" points="46.75,-690 45,-685 43.25,-690 46.75,-690"/>
</g>
<!-- function&#45;4&#45;ImmVal&#45;&gt;primitive&#45;i64&#45;2147483648 -->
<g id="edge6" class="edge">
<title>function&#45;4&#45;ImmVal:s&#45;&gt;primitive&#45;i64&#45;2147483648</title>
<path fill="none" stroke="black" d="M456,-174C456,-160.84 456.23,-146.1 456.47,-134.3"/>
<polygon fill="black" stroke="black" points="458.09,-137.08 456.58,-132 454.59,-136.91 458.09,-137.08"/>
</g>
<!-- function&#45;2&#45;ImmVal&#45;&gt;primitive&#45;i64&#45;1 -->
<g id="edge7" class="edge">
<title>function&#45;2&#45;ImmVal:s&#45;&gt;primitive&#45;i64&#45;1</title>
<path fill="none" stroke="black" d="M523,-253C523,-239.82 523.68,-225.09 524.4,-213.29"/>
<polygon fill="black" stroke="black" points="525.75,-216.2 524.73,-211 522.29,-215.7 525.75,-216.2"/>
</g>
<!-- function&#45;0&#45;Mulh&#45;&gt;function&#45;0&#45;RegVal -->
<g id="edge8" class="edge">
<title>function&#45;0&#45;Mulh:s&#45;&gt;function&#45;0&#45;RegVal</title>
<path fill="none" stroke="black" d="M222,-253C222,-235.11 216.19,-231.4 212,-214 205.38,-186.5 198.3,-154.7 193.77,-134.01"/>
<polygon fill="black" stroke="black" points="196.6,-135.56 192.67,-132 193.53,-137.23 196.6,-135.56"/>
</g>
<!-- function&#45;0&#45;Mulh&#45;&gt;function&#45;2&#45;RegVal -->
<g id="edge9" class="edge">
<title>function&#45;0&#45;Mulh:s&#45;&gt;function&#45;2&#45;RegVal</title>
<path fill="none" stroke="black" d="M244,-253C244,-239.84 244.23,-225.1 244.47,-213.3"/>
<polygon fill="black" stroke="black" points="246.09,-216.08 244.58,-211 242.59,-215.91 246.09,-216.08"/>
</g>
<!-- function&#45;0&#45;RegVal&#45;&gt;primitive&#45;String&#45;0 -->
<g id="edge10" class="edge">
<title>function&#45;0&#45;RegVal:s&#45;&gt;primitive&#45;String&#45;0</title>
<path fill="none" stroke="black" d="M190,-95C190,-81.84 190,-67.11 190,-55.3"/>
<polygon fill="black" stroke="black" points="191.75,-58 190,-53 188.25,-58 191.75,-58"/>
</g>
<!-- function&#45;2&#45;RegVal&#45;&gt;primitive&#45;String&#45;2 -->
<g id="edge29" class="edge">
<title>function&#45;2&#45;RegVal:s&#45;&gt;primitive&#45;String&#45;2</title>
<path fill="none" stroke="black" d="M246,-174C246,-160.69 248.7,-146.06 251.54,-134.36"/>
<polygon fill="black" stroke="black" points="251.95,-137.22 252.84,-132 248.89,-135.53 251.95,-137.22"/>
</g>
<!-- function&#45;3&#45;RegVal&#45;&gt;primitive&#45;String&#45;3 -->
<g id="edge11" class="edge">
<title>function&#45;3&#45;RegVal:s&#45;&gt;primitive&#45;String&#45;3</title>
<path fill="none" stroke="black" d="M436,-411C436,-397.81 436.91,-383.08 437.87,-371.28"/>
<polygon fill="black" stroke="black" points="439.08,-374.24 438.3,-369 435.64,-373.58 439.08,-374.24"/>
</g>
<!-- function&#45;0&#45;Xori&#45;&gt;function&#45;4&#45;ImmVal -->
<g id="edge13" class="edge">
<title>function&#45;0&#45;Xori:s&#45;&gt;function&#45;4&#45;ImmVal</title>
<path fill="none" stroke="black" d="M397,-253C397,-236.03 408.74,-221.87 421.74,-211.38"/>
<polygon fill="black" stroke="black" points="422.61,-215.51 422,-210.24 419.19,-214.73 422.61,-215.51"/>
</g>
<!-- function&#45;0&#45;Xori&#45;&gt;function&#45;0&#45;Srai -->
<g id="edge12" class="edge">
<title>function&#45;0&#45;Xori:s&#45;&gt;function&#45;0&#45;Srai</title>
<path fill="none" stroke="black" d="M379,-253C379,-239.84 379,-225.11 379,-213.3"/>
<polygon fill="black" stroke="black" points="380.75,-216 379,-211 377.25,-216 380.75,-216"/>
</g>
<!-- function&#45;0&#45;Srai&#45;&gt;function&#45;0&#45;ImmVal -->
<g id="edge49" class="edge">
<title>function&#45;0&#45;Srai:s&#45;&gt;function&#45;0&#45;ImmVal</title>
<path fill="none" stroke="black" d="M388,-174C388,-160.84 387.77,-146.1 387.53,-134.3"/>
<polygon fill="black" stroke="black" points="389.41,-136.91 387.42,-132 385.91,-137.08 389.41,-136.91"/>
</g>
<!-- function&#45;0&#45;Srai&#45;&gt;function&#45;0&#45;RegVal -->
<g id="edge48" class="edge">
<title>function&#45;0&#45;Srai:s&#45;&gt;function&#45;0&#45;RegVal</title>
<path fill="none" stroke="black" d="M370,-174C370,-107.69 286.9,-161.22 226,-135 225.47,-134.77 224.95,-134.54 224.42,-134.3"/>
<polygon fill="black" stroke="black" points="224.92,-132.6 219.66,-132 223.4,-135.75 224.92,-132.6"/>
</g>
<!-- function&#45;0&#45;Jalr&#45;&gt;function&#45;1&#45;ImmLabel -->
<g id="edge15" class="edge">
<title>function&#45;0&#45;Jalr:s&#45;&gt;function&#45;1&#45;ImmLabel</title>
<path fill="none" stroke="black" d="M791,-806C791,-789.03 779.26,-774.87 766.26,-764.38"/>
<polygon fill="black" stroke="black" points="770.49,-764.03 765.19,-764 769.32,-767.32 770.49,-764.03"/>
</g>
<!-- function&#45;0&#45;Jalr&#45;&gt;function&#45;4&#45;RegVal -->
<g id="edge14" class="edge">
<title>function&#45;0&#45;Jalr:s&#45;&gt;function&#45;4&#45;RegVal</title>
<path fill="none" stroke="black" d="M775,-806C775,-788.49 787.5,-773.97 800.99,-763.39"/>
<polygon fill="black" stroke="black" points="800.02,-767.15 802,-762.24 797.39,-764.84 800.02,-767.15"/>
</g>
<!-- function&#45;4&#45;RegVal&#45;&gt;primitive&#45;String&#45;5 -->
<g id="edge26" class="edge">
<title>function&#45;4&#45;RegVal:s&#45;&gt;primitive&#45;String&#45;5</title>
<path fill="none" stroke="black" d="M835,-727C835,-713.69 837.7,-699.06 840.54,-687.36"/>
<polygon fill="black" stroke="black" points="840.95,-690.22 841.84,-685 837.89,-688.53 840.95,-690.22"/>
</g>
<!-- function&#45;0&#45;Add&#45;&gt;function&#45;1&#45;Srai -->
<g id="edge16" class="edge">
<title>function&#45;0&#45;Add:s&#45;&gt;function&#45;1&#45;Srai</title>
<path fill="none" stroke="black" d="M358,-411C358,-391.06 341.78,-375.48 325.67,-364.93"/>
<polygon fill="black" stroke="black" points="328.65,-365.62 324,-363.09 326.06,-367.97 328.65,-365.62"/>
</g>
<!-- function&#45;0&#45;Add&#45;&gt;function&#45;3&#45;Addi -->
<g id="edge17" class="edge">
<title>function&#45;0&#45;Add:s&#45;&gt;function&#45;3&#45;Addi</title>
<path fill="none" stroke="black" d="M376,-411C376,-397.82 375.32,-383.09 374.6,-371.29"/>
<polygon fill="black" stroke="black" points="376.71,-373.7 374.27,-369 373.25,-374.2 376.71,-373.7"/>
</g>
<!-- function&#45;1&#45;Srai&#45;&gt;function&#45;3&#45;ImmVal -->
<g id="edge51" class="edge">
<title>function&#45;1&#45;Srai:s&#45;&gt;function&#45;3&#45;ImmVal</title>
<path fill="none" stroke="black" d="M303,-332C303,-318.84 303,-304.11 303,-292.3"/>
<polygon fill="black" stroke="black" points="304.75,-295 303,-290 301.25,-295 304.75,-295"/>
</g>
<!-- function&#45;1&#45;Srai&#45;&gt;function&#45;0&#45;Mulh -->
<g id="edge50" class="edge">
<title>function&#45;1&#45;Srai:s&#45;&gt;function&#45;0&#45;Mulh</title>
<path fill="none" stroke="black" d="M285,-332C285,-315.59 274.18,-301.25 262.4,-290.5"/>
<polygon fill="black" stroke="black" points="266.65,-290.66 261.39,-290 265.09,-293.8 266.65,-290.66"/>
</g>
<!-- function&#45;3&#45;Addi&#45;&gt;function&#45;2&#45;ImmVal -->
<g id="edge44" class="edge">
<title>function&#45;3&#45;Addi:s&#45;&gt;function&#45;2&#45;ImmVal</title>
<path fill="none" stroke="black" d="M383,-332C383,-309.27 445.5,-289.23 486.98,-278.44"/>
<polygon fill="black" stroke="black" points="485.7,-281.31 489,-277.17 483.84,-278.35 485.7,-281.31"/>
</g>
<!-- function&#45;3&#45;Addi&#45;&gt;function&#45;0&#45;Xori -->
<g id="edge43" class="edge">
<title>function&#45;3&#45;Addi:s&#45;&gt;function&#45;0&#45;Xori</title>
<path fill="none" stroke="black" d="M363,-332C363,-317.86 368.66,-303.14 374.6,-291.59"/>
<polygon fill="black" stroke="black" points="374.03,-294.93 375.96,-290 371.38,-292.65 374.03,-294.93"/>
</g>
<!-- function&#45;2&#45;Add&#45;&gt;function&#45;1&#45;Srai -->
<g id="edge19" class="edge">
<title>function&#45;2&#45;Add:s&#45;&gt;function&#45;1&#45;Srai</title>
<path fill="none" stroke="black" d="M260,-411C260,-396.26 267.48,-381.71 275.42,-370.41"/>
<polygon fill="black" stroke="black" points="274.75,-373.97 276.59,-369 272.05,-371.73 274.75,-373.97"/>
</g>
<!-- function&#45;2&#45;Add&#45;&gt;function&#45;3&#45;Addi -->
<g id="edge18" class="edge">
<title>function&#45;2&#45;Add:s&#45;&gt;function&#45;3&#45;Addi</title>
<path fill="none" stroke="black" d="M242,-411C242,-370.24 288.18,-389.47 325,-372 330.28,-369.49 335.89,-366.82 341.33,-364.22"/>
<polygon fill="black" stroke="black" points="339.9,-367.35 343,-363.05 337.9,-364.48 339.9,-367.35"/>
</g>
<!-- function&#45;0&#45;Sub&#45;&gt;function&#45;0&#45;Srai -->
<g id="edge21" class="edge">
<title>function&#45;0&#45;Sub:s&#45;&gt;function&#45;0&#45;Srai</title>
<path fill="none" stroke="black" d="M318,-411C318,-401.53 354.12,-254.03 357,-245 360.44,-234.23 365.06,-222.57 369.19,-212.86"/>
<polygon fill="black" stroke="black" points="369.39,-216.24 370.16,-211 366.29,-214.61 369.39,-216.24"/>
</g>
<!-- function&#45;0&#45;Sub&#45;&gt;function&#45;1&#45;Srai -->
<g id="edge20" class="edge">
<title>function&#45;0&#45;Sub:s&#45;&gt;function&#45;1&#45;Srai</title>
<path fill="none" stroke="black" d="M300,-411C300,-397.78 298.63,-383.04 297.2,-371.25"/>
<polygon fill="black" stroke="black" points="299.62,-373.31 296.54,-369 296.26,-374.29 299.62,-373.31"/>
</g>
<!-- function&#45;1&#45;Addi&#45;&gt;function&#45;2&#45;ImmVal -->
<g id="edge23" class="edge">
<title>function&#45;1&#45;Addi:s&#45;&gt;function&#45;2&#45;ImmVal</title>
<path fill="none" stroke="black" d="M407,-806C407,-726.52 517,-744.48 517,-665 517,-665 517,-665 517,-426 517,-378.54 519.81,-323.02 521.58,-292.67"/>
<polygon fill="black" stroke="black" points="523.05,-295.17 521.9,-290 519.57,-294.76 523.05,-295.17"/>
</g>
<!-- function&#45;1&#45;Addi&#45;&gt;function&#45;1&#45;RegVal -->
<g id="edge22" class="edge">
<title>function&#45;1&#45;Addi:s&#45;&gt;function&#45;1&#45;RegVal</title>
<path fill="none" stroke="black" d="M387,-806C387,-753.5 203.11,-785.54 154,-767 153.28,-766.73 152.56,-766.44 151.84,-766.14"/>
<polygon fill="black" stroke="black" points="152.38,-764.47 147.1,-764 150.94,-767.65 152.38,-764.47"/>
</g>
<!-- function&#45;1&#45;RegVal&#45;&gt;primitive&#45;String&#45;1 -->
<g id="edge34" class="edge">
<title>function&#45;1&#45;RegVal:s&#45;&gt;primitive&#45;String&#45;1</title>
<path fill="none" stroke="black" d="M118,-727C118,-713.84 118,-699.11 118,-687.3"/>
<polygon fill="black" stroke="black" points="119.75,-690 118,-685 116.25,-690 119.75,-690"/>
</g>
<!-- function&#45;1&#45;Xori&#45;&gt;function&#45;4&#45;ImmVal -->
<g id="edge25" class="edge">
<title>function&#45;1&#45;Xori:s&#45;&gt;function&#45;4&#45;ImmVal</title>
<path fill="none" stroke="black" d="M335,-569C335,-479.11 480,-517.89 480,-428 480,-428 480,-428 480,-347 480,-298.82 468.68,-243.23 461.59,-213.14"/>
<polygon fill="black" stroke="black" points="464.35,-214.53 460.4,-211 461.29,-216.22 464.35,-214.53"/>
</g>
<!-- function&#45;1&#45;Xori&#45;&gt;function&#45;1&#45;Mul -->
<g id="edge24" class="edge">
<title>function&#45;1&#45;Xori:s&#45;&gt;function&#45;1&#45;Mul</title>
<path fill="none" stroke="black" d="M317,-569C317,-555.84 317,-541.11 317,-529.3"/>
<polygon fill="black" stroke="black" points="318.75,-532 317,-527 315.25,-532 318.75,-532"/>
</g>
<!-- function&#45;1&#45;Mul&#45;&gt;function&#45;3&#45;RegVal -->
<g id="edge32" class="edge">
<title>function&#45;1&#45;Mul:s&#45;&gt;function&#45;3&#45;RegVal</title>
<path fill="none" stroke="black" d="M309,-490C309,-446.81 359.79,-471.12 398,-451 398.34,-450.82 398.68,-450.64 399.02,-450.46"/>
<polygon fill="black" stroke="black" points="399.96,-451.94 403.5,-448 398.27,-448.87 399.96,-451.94"/>
</g>
<!-- function&#45;1&#45;Mul&#45;&gt;function&#45;0&#45;Sub -->
<g id="edge33" class="edge">
<title>function&#45;1&#45;Mul:s&#45;&gt;function&#45;0&#45;Sub</title>
<path fill="none" stroke="black" d="M326,-490C326,-476.33 322.11,-461.54 318.05,-449.84"/>
<polygon fill="black" stroke="black" points="320.79,-451.99 317.31,-448 317.55,-453.29 320.79,-451.99"/>
</g>
<!-- function&#45;2&#45;Addi&#45;&gt;function&#45;1&#45;ImmVal -->
<g id="edge28" class="edge">
<title>function&#45;2&#45;Addi:s&#45;&gt;function&#45;1&#45;ImmVal</title>
<path fill="none" stroke="black" d="M212,-806C212,-746.53 138.44,-790.94 84,-767 83.48,-766.77 82.95,-766.53 82.42,-766.29"/>
<polygon fill="black" stroke="black" points="82.91,-764.59 77.65,-764 81.4,-767.74 82.91,-764.59"/>
</g>
<!-- function&#45;2&#45;Addi&#45;&gt;function&#45;3&#45;Add -->
<g id="edge27" class="edge">
<title>function&#45;2&#45;Addi:s&#45;&gt;function&#45;3&#45;Add</title>
<path fill="none" stroke="black" d="M192,-806C192,-796.32 207.02,-778.88 220.76,-764.96"/>
<polygon fill="black" stroke="black" points="218.98,-767.88 222.59,-764 217.35,-764.78 218.98,-767.88"/>
</g>
<!-- function&#45;3&#45;Add&#45;&gt;function&#45;0&#45;RegVal -->
<g id="edge38" class="edge">
<title>function&#45;3&#45;Add:s&#45;&gt;function&#45;0&#45;RegVal</title>
<path fill="none" stroke="black" d="M252,-727C252,-698.11 214.89,-712.76 200,-688 176.35,-648.68 184,-631.89 184,-586 184,-586 184,-586 184,-268 184,-220.55 186.34,-165.03 187.82,-134.67"/>
<polygon fill="black" stroke="black" points="189.33,-137.15 188.08,-132 185.85,-136.8 189.33,-137.15"/>
</g>
<!-- function&#45;3&#45;Add&#45;&gt;function&#45;4&#45;Addi -->
<g id="edge37" class="edge">
<title>function&#45;3&#45;Add:s&#45;&gt;function&#45;4&#45;Addi</title>
<path fill="none" stroke="black" d="M234,-727C234,-698.4 265.32,-681.91 290.81,-673.23"/>
<polygon fill="black" stroke="black" points="290.03,-675.99 293,-671.6 287.94,-673.18 290.03,-675.99"/>
</g>
<!-- function&#45;0&#45;Mul&#45;&gt;function&#45;3&#45;RegVal -->
<g id="edge31" class="edge">
<title>function&#45;0&#45;Mul:s&#45;&gt;function&#45;3&#45;RegVal</title>
<path fill="none" stroke="black" d="M268,-490C268,-429.68 342.87,-475.48 398,-451 398.51,-450.77 399.03,-450.54 399.55,-450.3"/>
<polygon fill="black" stroke="black" points="400.5,-451.78 404.21,-448 398.95,-448.64 400.5,-451.78"/>
</g>
<!-- function&#45;0&#45;Mul&#45;&gt;function&#45;2&#45;Add -->
<g id="edge30" class="edge">
<title>function&#45;0&#45;Mul:s&#45;&gt;function&#45;2&#45;Add</title>
<path fill="none" stroke="black" d="M251,-490C251,-476.84 251,-462.11 251,-450.3"/>
<polygon fill="black" stroke="black" points="252.75,-453 251,-448 249.25,-453 252.75,-453"/>
</g>
<!-- function&#45;1&#45;Add&#45;&gt;function&#45;0&#45;RegVal -->
<g id="edge35" class="edge">
<title>function&#45;1&#45;Add:s&#45;&gt;function&#45;0&#45;RegVal</title>
<path fill="none" stroke="black" d="M292,-727C292,-634.94 247.34,-620.01 228,-530 205.74,-426.4 211.58,-398.53 202,-293 196.83,-235.97 192.44,-168.67 190.34,-134.44"/>
<polygon fill="black" stroke="black" points="192.4,-136.73 190.02,-132 188.93,-137.18 192.4,-136.73"/>
</g>
<!-- function&#45;1&#45;Add&#45;&gt;function&#45;4&#45;Addi -->
<g id="edge36" class="edge">
<title>function&#45;1&#45;Add:s&#45;&gt;function&#45;4&#45;Addi</title>
<path fill="none" stroke="black" d="M310,-727C310,-713.53 312.98,-698.75 316.08,-687.01"/>
<polygon fill="black" stroke="black" points="316.11,-690.13 317.41,-685 313.19,-688.2 316.11,-690.13"/>
</g>
<!-- function&#45;4&#45;Addi&#45;&gt;function&#45;2&#45;ImmVal -->
<g id="edge46" class="edge">
<title>function&#45;4&#45;Addi:s&#45;&gt;function&#45;2&#45;ImmVal</title>
<path fill="none" stroke="black" d="M333,-648C333,-599.26 501,-555.74 501,-507 501,-507 501,-507 501,-426 501,-377.91 511.38,-322.29 517.88,-292.17"/>
<polygon fill="black" stroke="black" points="518.29,-295.25 518.96,-290 515.16,-293.69 518.29,-295.25"/>
</g>
<!-- function&#45;4&#45;Addi&#45;&gt;function&#45;1&#45;Xori -->
<g id="edge45" class="edge">
<title>function&#45;4&#45;Addi:s&#45;&gt;function&#45;1&#45;Xori</title>
<path fill="none" stroke="black" d="M313,-648C313,-634.53 315.98,-619.75 319.08,-608.01"/>
<polygon fill="black" stroke="black" points="319.11,-611.13 320.41,-606 316.19,-609.2 319.11,-611.13"/>
</g>
<!-- function&#45;1&#45;Sub&#45;&gt;function&#45;0&#45;RegVal -->
<g id="edge39" class="edge">
<title>function&#45;1&#45;Sub:s&#45;&gt;function&#45;0&#45;RegVal</title>
<path fill="none" stroke="black" d="M176,-727C176,-664.33 174,-648.67 174,-586 174,-586 174,-586 174,-268 174,-222.56 176.11,-211.18 181,-166 182.12,-155.66 183.75,-144.27 185.24,-134.63"/>
<polygon fill="black" stroke="black" points="186.25,-137.29 186.06,-132 182.91,-136.26 186.25,-137.29"/>
</g>
<!-- function&#45;1&#45;Sub&#45;&gt;function&#45;0&#45;Mul -->
<g id="edge40" class="edge">
<title>function&#45;1&#45;Sub:s&#45;&gt;function&#45;0&#45;Mul</title>
<path fill="none" stroke="black" d="M194,-727C194,-651.91 229.25,-568.1 247.84,-529.14"/>
<polygon fill="black" stroke="black" points="247.97,-532.14 249.23,-527 245.03,-530.23 247.97,-532.14"/>
</g>
<!-- function&#45;0&#45;Addi&#45;&gt;function&#45;1&#45;ImmVal -->
<g id="edge42" class="edge">
<title>function&#45;0&#45;Addi:s&#45;&gt;function&#45;1&#45;ImmVal</title>
<path fill="none" stroke="black" d="M94,-806C94,-789.85 83.64,-775.45 72.45,-764.6"/>
<polygon fill="black" stroke="black" points="76.71,-765.55 71.64,-764 74.64,-768.37 76.71,-765.55"/>
</g>
<!-- function&#45;0&#45;Addi&#45;&gt;function&#45;1&#45;RegVal -->
<g id="edge41" class="edge">
<title>function&#45;0&#45;Addi:s&#45;&gt;function&#45;1&#45;RegVal</title>
<path fill="none" stroke="black" d="M74,-806C74,-790.48 83.21,-776.05 93.1,-765.02"/>
<polygon fill="black" stroke="black" points="91.42,-768.11 94.76,-764 89.58,-765.14 91.42,-768.11"/>
</g>
<!-- function&#45;0&#45;Auipc&#45;&gt;function&#45;0&#45;ImmLabel -->
<g id="edge47" class="edge">
<title>function&#45;0&#45;Auipc:s&#45;&gt;function&#45;0&#45;ImmLabel</title>
<path fill="none" stroke="black" d="M605,-806C605,-792.84 605,-778.11 605,-766.3"/>
<polygon fill="black" stroke="black" points="606.75,-769 605,-764 603.25,-769 606.75,-769"/>
</g>
<!-- function&#45;3&#45;ImmVal -->
<g id="node1" class="node">
<title>function&#45;3&#45;ImmVal</title>
<g id="a_node1"><a xlink:title="Imm&#45;11: function&#45;3&#45;ImmVal">
<path fill="white" stroke="transparent" d="M282.67,-253C282.67,-253 323.33,-253 323.33,-253 328.67,-253 334,-258.33 334,-263.67 334,-263.67 334,-274.33 334,-274.33 334,-279.67 328.67,-285 323.33,-285 323.33,-285 282.67,-285 282.67,-285 277.33,-285 272,-279.67 272,-274.33 272,-274.33 272,-263.67 272,-263.67 272,-258.33 277.33,-253 282.67,-253"/>
<text text-anchor="start" x="277" y="-265.3" font-family="Helvetica,sans-Serif" font-size="14.00">ImmVal</text>
<path fill="none" stroke="black" d="M282.67,-253C282.67,-253 323.33,-253 323.33,-253 328.67,-253 334,-258.33 334,-263.67 334,-263.67 334,-274.33 334,-274.33 334,-279.67 328.67,-285 323.33,-285 323.33,-285 282.67,-285 282.67,-285 277.33,-285 272,-279.67 272,-274.33 272,-274.33 272,-263.67 272,-263.67 272,-258.33 277.33,-253 282.67,-253"/>
</a>
</g>
</g>
<!-- primitive&#45;i64&#45;5 -->
<g id="node2" class="node">
<title>primitive&#45;i64&#45;5</title>
<g id="a_node2"><a xlink:title="i64&#45;5: primitive&#45;i64&#45;5">
<path fill="white" stroke="transparent" d="M307.67,-174C307.67,-174 318.33,-174 318.33,-174 323.67,-174 329,-179.33 329,-184.67 329,-184.67 329,-195.33 329,-195.33 329,-200.67 323.67,-206 318.33,-206 318.33,-206 307.67,-206 307.67,-206 302.33,-206 297,-200.67 297,-195.33 297,-195.33 297,-184.67 297,-184.67 297,-179.33 302.33,-174 307.67,-174"/>
<text text-anchor="start" x="308" y="-186.3" font-family="Helvetica,sans-Serif" font-size="14.00">5</text>
<path fill="none" stroke="black" d="M307.67,-174C307.67,-174 318.33,-174 318.33,-174 323.67,-174 329,-179.33 329,-184.67 329,-184.67 329,-195.33 329,-195.33 329,-200.67 323.67,-206 318.33,-206 318.33,-206 307.67,-206 307.67,-206 302.33,-206 297,-200.67 297,-195.33 297,-195.33 297,-184.67 297,-184.67 297,-179.33 302.33,-174 307.67,-174"/>
</a>
</g>
</g>
<!-- function&#45;0&#45;ImmLabel -->
<g id="node3" class="node">
<title>function&#45;0&#45;ImmLabel</title>
<g id="a_node3"><a xlink:title="Imm&#45;17: function&#45;0&#45;ImmLabel">
<path fill="white" stroke="transparent" d="M576.17,-727C576.17,-727 633.83,-727 633.83,-727 639.17,-727 644.5,-732.33 644.5,-737.67 644.5,-737.67 644.5,-748.33 644.5,-748.33 644.5,-753.67 639.17,-759 633.83,-759 633.83,-759 576.17,-759 576.17,-759 570.83,-759 565.5,-753.67 565.5,-748.33 565.5,-748.33 565.5,-737.67 565.5,-737.67 565.5,-732.33 570.83,-727 576.17,-727"/>
<text text-anchor="start" x="571" y="-739.3" font-family="Helvetica,sans-Serif" font-size="14.00">ImmLabel</text>
<path fill="none" stroke="black" d="M576.17,-727C576.17,-727 633.83,-727 633.83,-727 639.17,-727 644.5,-732.33 644.5,-737.67 644.5,-737.67 644.5,-748.33 644.5,-748.33 644.5,-753.67 639.17,-759 633.83,-759 633.83,-759 576.17,-759 576.17,-759 570.83,-759 565.5,-753.67 565.5,-748.33 565.5,-748.33 565.5,-737.67 565.5,-737.67 565.5,-732.33 570.83,-727 576.17,-727"/>
</a>
</g>
</g>
<!-- primitive&#45;String&#45;4 -->
<g id="node4" class="node">
<title>primitive&#45;String&#45;4</title>
<g id="a_node4"><a xlink:title="String&#45;4: primitive&#45;String&#45;4">
<path fill="white" stroke="transparent" d="M540.17,-648C540.17,-648 671.83,-648 671.83,-648 677.17,-648 682.5,-653.33 682.5,-658.67 682.5,-658.67 682.5,-669.33 682.5,-669.33 682.5,-674.67 677.17,-680 671.83,-680 671.83,-680 540.17,-680 540.17,-680 534.83,-680 529.5,-674.67 529.5,-669.33 529.5,-669.33 529.5,-658.67 529.5,-658.67 529.5,-653.33 534.83,-648 540.17,-648"/>
<text text-anchor="start" x="535" y="-660.3" font-family="Helvetica,sans-Serif" font-size="14.00">&quot;%pcrel_hi(dijkstra)&quot;</text>
<path fill="none" stroke="black" d="M540.17,-648C540.17,-648 671.83,-648 671.83,-648 677.17,-648 682.5,-653.33 682.5,-658.67 682.5,-658.67 682.5,-669.33 682.5,-669.33 682.5,-674.67 677.17,-680 671.83,-680 671.83,-680 540.17,-680 540.17,-680 534.83,-680 529.5,-674.67 529.5,-669.33 529.5,-669.33 529.5,-658.67 529.5,-658.67 529.5,-653.33 534.83,-648 540.17,-648"/>
</a>
</g>
</g>
<!-- function&#45;1&#45;ImmLabel -->
<g id="node5" class="node">
<title>function&#45;1&#45;ImmLabel</title>
<g id="a_node5"><a xlink:title="Imm&#45;20: function&#45;1&#45;ImmLabel">
<path fill="white" stroke="transparent" d="M703.17,-727C703.17,-727 760.83,-727 760.83,-727 766.17,-727 771.5,-732.33 771.5,-737.67 771.5,-737.67 771.5,-748.33 771.5,-748.33 771.5,-753.67 766.17,-759 760.83,-759 760.83,-759 703.17,-759 703.17,-759 697.83,-759 692.5,-753.67 692.5,-748.33 692.5,-748.33 692.5,-737.67 692.5,-737.67 692.5,-732.33 697.83,-727 703.17,-727"/>
<text text-anchor="start" x="698" y="-739.3" font-family="Helvetica,sans-Serif" font-size="14.00">ImmLabel</text>
<path fill="none" stroke="black" d="M703.17,-727C703.17,-727 760.83,-727 760.83,-727 766.17,-727 771.5,-732.33 771.5,-737.67 771.5,-737.67 771.5,-748.33 771.5,-748.33 771.5,-753.67 766.17,-759 760.83,-759 760.83,-759 703.17,-759 703.17,-759 697.83,-759 692.5,-753.67 692.5,-748.33 692.5,-748.33 692.5,-737.67 692.5,-737.67 692.5,-732.33 697.83,-727 703.17,-727"/>
</a>
</g>
</g>
<!-- primitive&#45;String&#45;6 -->
<g id="node6" class="node">
<title>primitive&#45;String&#45;6</title>
<g id="a_node6"><a xlink:title="String&#45;6: primitive&#45;String&#45;6">
<path fill="white" stroke="transparent" d="M705.67,-648C705.67,-648 738.33,-648 738.33,-648 743.67,-648 749,-653.33 749,-658.67 749,-658.67 749,-669.33 749,-669.33 749,-674.67 743.67,-680 738.33,-680 738.33,-680 705.67,-680 705.67,-680 700.33,-680 695,-674.67 695,-669.33 695,-669.33 695,-658.67 695,-658.67 695,-653.33 700.33,-648 705.67,-648"/>
<text text-anchor="start" x="700" y="-660.3" font-family="Helvetica,sans-Serif" font-size="14.00">&quot;ra_0&quot;</text>
<path fill="none" stroke="black" d="M705.67,-648C705.67,-648 738.33,-648 738.33,-648 743.67,-648 749,-653.33 749,-658.67 749,-658.67 749,-669.33 749,-669.33 749,-674.67 743.67,-680 738.33,-680 738.33,-680 705.67,-680 705.67,-680 700.33,-680 695,-674.67 695,-669.33 695,-669.33 695,-658.67 695,-658.67 695,-653.33 700.33,-648 705.67,-648"/>
</a>
</g>
</g>
<!-- function&#45;0&#45;ImmVal -->
<g id="node7" class="node">
<title>function&#45;0&#45;ImmVal</title>
<g id="a_node7"><a xlink:title="Imm&#45;5: function&#45;0&#45;ImmVal">
<path fill="white" stroke="transparent" d="M366.67,-95C366.67,-95 407.33,-95 407.33,-95 412.67,-95 418,-100.33 418,-105.67 418,-105.67 418,-116.33 418,-116.33 418,-121.67 412.67,-127 407.33,-127 407.33,-127 366.67,-127 366.67,-127 361.33,-127 356,-121.67 356,-116.33 356,-116.33 356,-105.67 356,-105.67 356,-100.33 361.33,-95 366.67,-95"/>
<text text-anchor="start" x="361" y="-107.3" font-family="Helvetica,sans-Serif" font-size="14.00">ImmVal</text>
<path fill="none" stroke="black" d="M366.67,-95C366.67,-95 407.33,-95 407.33,-95 412.67,-95 418,-100.33 418,-105.67 418,-105.67 418,-116.33 418,-116.33 418,-121.67 412.67,-127 407.33,-127 407.33,-127 366.67,-127 366.67,-127 361.33,-127 356,-121.67 356,-116.33 356,-116.33 356,-105.67 356,-105.67 356,-100.33 361.33,-95 366.67,-95"/>
</a>
</g>
</g>
<!-- primitive&#45;i64&#45;31 -->
<g id="node8" class="node">
<title>primitive&#45;i64&#45;31</title>
<g id="a_node8"><a xlink:title="i64&#45;31: primitive&#45;i64&#45;31">
<path fill="white" stroke="transparent" d="M381.67,-16C381.67,-16 392.33,-16 392.33,-16 397.67,-16 403,-21.33 403,-26.67 403,-26.67 403,-37.33 403,-37.33 403,-42.67 397.67,-48 392.33,-48 392.33,-48 381.67,-48 381.67,-48 376.33,-48 371,-42.67 371,-37.33 371,-37.33 371,-26.67 371,-26.67 371,-21.33 376.33,-16 381.67,-16"/>
<text text-anchor="start" x="377.5" y="-28.3" font-family="Helvetica,sans-Serif" font-size="14.00">31</text>
<path fill="none" stroke="black" d="M381.67,-16C381.67,-16 392.33,-16 392.33,-16 397.67,-16 403,-21.33 403,-26.67 403,-26.67 403,-37.33 403,-37.33 403,-42.67 397.67,-48 392.33,-48 392.33,-48 381.67,-48 381.67,-48 376.33,-48 371,-42.67 371,-37.33 371,-37.33 371,-26.67 371,-26.67 371,-21.33 376.33,-16 381.67,-16"/>
</a>
</g>
</g>
<!-- function&#45;1&#45;ImmVal -->
<g id="node9" class="node">
<title>function&#45;1&#45;ImmVal</title>
<g id="a_node9"><a xlink:title="Imm&#45;7: function&#45;1&#45;ImmVal">
<path fill="white" stroke="transparent" d="M24.67,-727C24.67,-727 65.33,-727 65.33,-727 70.67,-727 76,-732.33 76,-737.67 76,-737.67 76,-748.33 76,-748.33 76,-753.67 70.67,-759 65.33,-759 65.33,-759 24.67,-759 24.67,-759 19.33,-759 14,-753.67 14,-748.33 14,-748.33 14,-737.67 14,-737.67 14,-732.33 19.33,-727 24.67,-727"/>
<text text-anchor="start" x="19" y="-739.3" font-family="Helvetica,sans-Serif" font-size="14.00">ImmVal</text>
<path fill="none" stroke="black" d="M24.67,-727C24.67,-727 65.33,-727 65.33,-727 70.67,-727 76,-732.33 76,-737.67 76,-737.67 76,-748.33 76,-748.33 76,-753.67 70.67,-759 65.33,-759 65.33,-759 24.67,-759 24.67,-759 19.33,-759 14,-753.67 14,-748.33 14,-748.33 14,-737.67 14,-737.67 14,-732.33 19.33,-727 24.67,-727"/>
</a>
</g>
</g>
<!-- primitive&#45;i64&#45;0 -->
<g id="node10" class="node">
<title>primitive&#45;i64&#45;0</title>
<g id="a_node10"><a xlink:title="i64&#45;0: primitive&#45;i64&#45;0">
<path fill="white" stroke="transparent" d="M39.67,-648C39.67,-648 50.33,-648 50.33,-648 55.67,-648 61,-653.33 61,-658.67 61,-658.67 61,-669.33 61,-669.33 61,-674.67 55.67,-680 50.33,-680 50.33,-680 39.67,-680 39.67,-680 34.33,-680 29,-674.67 29,-669.33 29,-669.33 29,-658.67 29,-658.67 29,-653.33 34.33,-648 39.67,-648"/>
<text text-anchor="start" x="40" y="-660.3" font-family="Helvetica,sans-Serif" font-size="14.00">0</text>
<path fill="none" stroke="black" d="M39.67,-648C39.67,-648 50.33,-648 50.33,-648 55.67,-648 61,-653.33 61,-658.67 61,-658.67 61,-669.33 61,-669.33 61,-674.67 55.67,-680 50.33,-680 50.33,-680 39.67,-680 39.67,-680 34.33,-680 29,-674.67 29,-669.33 29,-669.33 29,-658.67 29,-658.67 29,-653.33 34.33,-648 39.67,-648"/>
</a>
</g>
</g>
<!-- function&#45;4&#45;ImmVal -->
<g id="node11" class="node">
<title>function&#45;4&#45;ImmVal</title>
<g id="a_node11"><a xlink:title="Imm&#45;22: function&#45;4&#45;ImmVal">
<path fill="white" stroke="transparent" d="M435.67,-174C435.67,-174 476.33,-174 476.33,-174 481.67,-174 487,-179.33 487,-184.67 487,-184.67 487,-195.33 487,-195.33 487,-200.67 481.67,-206 476.33,-206 476.33,-206 435.67,-206 435.67,-206 430.33,-206 425,-200.67 425,-195.33 425,-195.33 425,-184.67 425,-184.67 425,-179.33 430.33,-174 435.67,-174"/>
<text text-anchor="start" x="430" y="-186.3" font-family="Helvetica,sans-Serif" font-size="14.00">ImmVal</text>
<path fill="none" stroke="black" d="M435.67,-174C435.67,-174 476.33,-174 476.33,-174 481.67,-174 487,-179.33 487,-184.67 487,-184.67 487,-195.33 487,-195.33 487,-200.67 481.67,-206 476.33,-206 476.33,-206 435.67,-206 435.67,-206 430.33,-206 425,-200.67 425,-195.33 425,-195.33 425,-184.67 425,-184.67 425,-179.33 430.33,-174 435.67,-174"/>
</a>
</g>
</g>
<!-- primitive&#45;i64&#45;2147483648 -->
<g id="node12" class="node">
<title>primitive&#45;i64&#45;2147483648</title>
<g id="a_node12"><a xlink:title="i64&#45;2147483648: primitive&#45;i64&#45;2147483648">
<path fill="white" stroke="transparent" d="M451.67,-95C451.67,-95 462.33,-95 462.33,-95 467.67,-95 473,-100.33 473,-105.67 473,-105.67 473,-116.33 473,-116.33 473,-121.67 467.67,-127 462.33,-127 462.33,-127 451.67,-127 451.67,-127 446.33,-127 441,-121.67 441,-116.33 441,-116.33 441,-105.67 441,-105.67 441,-100.33 446.33,-95 451.67,-95"/>
<text text-anchor="start" x="449.5" y="-107.3" font-family="Helvetica,sans-Serif" font-size="14.00">&#45;1</text>
<path fill="none" stroke="black" d="M451.67,-95C451.67,-95 462.33,-95 462.33,-95 467.67,-95 473,-100.33 473,-105.67 473,-105.67 473,-116.33 473,-116.33 473,-121.67 467.67,-127 462.33,-127 462.33,-127 451.67,-127 451.67,-127 446.33,-127 441,-121.67 441,-116.33 441,-116.33 441,-105.67 441,-105.67 441,-100.33 446.33,-95 451.67,-95"/>
</a>
</g>
</g>
<!-- function&#45;2&#45;ImmVal -->
<g id="node13" class="node">
<title>function&#45;2&#45;ImmVal</title>
<g id="a_node13"><a xlink:title="Imm&#45;9: function&#45;2&#45;ImmVal">
<path fill="white" stroke="transparent" d="M502.67,-253C502.67,-253 543.33,-253 543.33,-253 548.67,-253 554,-258.33 554,-263.67 554,-263.67 554,-274.33 554,-274.33 554,-279.67 548.67,-285 543.33,-285 543.33,-285 502.67,-285 502.67,-285 497.33,-285 492,-279.67 492,-274.33 492,-274.33 492,-263.67 492,-263.67 492,-258.33 497.33,-253 502.67,-253"/>
<text text-anchor="start" x="497" y="-265.3" font-family="Helvetica,sans-Serif" font-size="14.00">ImmVal</text>
<path fill="none" stroke="black" d="M502.67,-253C502.67,-253 543.33,-253 543.33,-253 548.67,-253 554,-258.33 554,-263.67 554,-263.67 554,-274.33 554,-274.33 554,-279.67 548.67,-285 543.33,-285 543.33,-285 502.67,-285 502.67,-285 497.33,-285 492,-279.67 492,-274.33 492,-274.33 492,-263.67 492,-263.67 492,-258.33 497.33,-253 502.67,-253"/>
</a>
</g>
</g>
<!-- primitive&#45;i64&#45;1 -->
<g id="node14" class="node">
<title>primitive&#45;i64&#45;1</title>
<g id="a_node14"><a xlink:title="i64&#45;1: primitive&#45;i64&#45;1">
<path fill="white" stroke="transparent" d="M520.67,-174C520.67,-174 531.33,-174 531.33,-174 536.67,-174 542,-179.33 542,-184.67 542,-184.67 542,-195.33 542,-195.33 542,-200.67 536.67,-206 531.33,-206 531.33,-206 520.67,-206 520.67,-206 515.33,-206 510,-200.67 510,-195.33 510,-195.33 510,-184.67 510,-184.67 510,-179.33 515.33,-174 520.67,-174"/>
<text text-anchor="start" x="521" y="-186.3" font-family="Helvetica,sans-Serif" font-size="14.00">1</text>
<path fill="none" stroke="black" d="M520.67,-174C520.67,-174 531.33,-174 531.33,-174 536.67,-174 542,-179.33 542,-184.67 542,-184.67 542,-195.33 542,-195.33 542,-200.67 536.67,-206 531.33,-206 531.33,-206 520.67,-206 520.67,-206 515.33,-206 510,-200.67 510,-195.33 510,-195.33 510,-184.67 510,-184.67 510,-179.33 515.33,-174 520.67,-174"/>
</a>
</g>
</g>
<!-- function&#45;0&#45;Mulh -->
<g id="node15" class="node">
<title>function&#45;0&#45;Mulh</title>
<g id="a_node15"><a xlink:title="Inst&#45;4: function&#45;0&#45;Mulh">
<path fill="white" stroke="transparent" d="M221.67,-253C221.67,-253 244.33,-253 244.33,-253 249.67,-253 255,-258.33 255,-263.67 255,-263.67 255,-274.33 255,-274.33 255,-279.67 249.67,-285 244.33,-285 244.33,-285 221.67,-285 221.67,-285 216.33,-285 211,-279.67 211,-274.33 211,-274.33 211,-263.67 211,-263.67 211,-258.33 216.33,-253 221.67,-253"/>
<text text-anchor="start" x="216" y="-265.3" font-family="Helvetica,sans-Serif" font-size="14.00">Mulh</text>
<path fill="none" stroke="black" d="M221.67,-253C221.67,-253 244.33,-253 244.33,-253 249.67,-253 255,-258.33 255,-263.67 255,-263.67 255,-274.33 255,-274.33 255,-279.67 249.67,-285 244.33,-285 244.33,-285 221.67,-285 221.67,-285 216.33,-285 211,-279.67 211,-274.33 211,-274.33 211,-263.67 211,-263.67 211,-258.33 216.33,-253 221.67,-253"/>
</a>
</g>
</g>
<!-- function&#45;0&#45;RegVal -->
<g id="node16" class="node">
<title>function&#45;0&#45;RegVal</title>
<g id="a_node16"><a xlink:title="Inst&#45;0: function&#45;0&#45;RegVal">
<path fill="white" stroke="transparent" d="M171.17,-95C171.17,-95 206.83,-95 206.83,-95 212.17,-95 217.5,-100.33 217.5,-105.67 217.5,-105.67 217.5,-116.33 217.5,-116.33 217.5,-121.67 212.17,-127 206.83,-127 206.83,-127 171.17,-127 171.17,-127 165.83,-127 160.5,-121.67 160.5,-116.33 160.5,-116.33 160.5,-105.67 160.5,-105.67 160.5,-100.33 165.83,-95 171.17,-95"/>
<text text-anchor="start" x="166" y="-107.3" font-family="Helvetica,sans-Serif" font-size="14.00">RegVal</text>
<path fill="none" stroke="black" d="M171.17,-95C171.17,-95 206.83,-95 206.83,-95 212.17,-95 217.5,-100.33 217.5,-105.67 217.5,-105.67 217.5,-116.33 217.5,-116.33 217.5,-121.67 212.17,-127 206.83,-127 206.83,-127 171.17,-127 171.17,-127 165.83,-127 160.5,-121.67 160.5,-116.33 160.5,-116.33 160.5,-105.67 160.5,-105.67 160.5,-100.33 165.83,-95 171.17,-95"/>
</a>
</g>
</g>
<!-- function&#45;2&#45;RegVal -->
<g id="node17" class="node">
<title>function&#45;2&#45;RegVal</title>
<g id="a_node17"><a xlink:title="Inst&#45;2: function&#45;2&#45;RegVal">
<path fill="white" stroke="transparent" d="M227.17,-174C227.17,-174 262.83,-174 262.83,-174 268.17,-174 273.5,-179.33 273.5,-184.67 273.5,-184.67 273.5,-195.33 273.5,-195.33 273.5,-200.67 268.17,-206 262.83,-206 262.83,-206 227.17,-206 227.17,-206 221.83,-206 216.5,-200.67 216.5,-195.33 216.5,-195.33 216.5,-184.67 216.5,-184.67 216.5,-179.33 221.83,-174 227.17,-174"/>
<text text-anchor="start" x="222" y="-186.3" font-family="Helvetica,sans-Serif" font-size="14.00">RegVal</text>
<path fill="none" stroke="black" d="M227.17,-174C227.17,-174 262.83,-174 262.83,-174 268.17,-174 273.5,-179.33 273.5,-184.67 273.5,-184.67 273.5,-195.33 273.5,-195.33 273.5,-200.67 268.17,-206 262.83,-206 262.83,-206 227.17,-206 227.17,-206 221.83,-206 216.5,-200.67 216.5,-195.33 216.5,-195.33 216.5,-184.67 216.5,-184.67 216.5,-179.33 221.83,-174 227.17,-174"/>
</a>
</g>
</g>
<!-- primitive&#45;String&#45;0 -->
<g id="node18" class="node">
<title>primitive&#45;String&#45;0</title>
<g id="a_node18"><a xlink:title="String&#45;0: primitive&#45;String&#45;0">
<path fill="white" stroke="transparent" d="M172.17,-16C172.17,-16 207.83,-16 207.83,-16 213.17,-16 218.5,-21.33 218.5,-26.67 218.5,-26.67 218.5,-37.33 218.5,-37.33 218.5,-42.67 213.17,-48 207.83,-48 207.83,-48 172.17,-48 172.17,-48 166.83,-48 161.5,-42.67 161.5,-37.33 161.5,-37.33 161.5,-26.67 161.5,-26.67 161.5,-21.33 166.83,-16 172.17,-16"/>
<text text-anchor="start" x="167" y="-28.3" font-family="Helvetica,sans-Serif" font-size="14.00">&quot;a5_0&quot;</text>
<path fill="none" stroke="black" d="M172.17,-16C172.17,-16 207.83,-16 207.83,-16 213.17,-16 218.5,-21.33 218.5,-26.67 218.5,-26.67 218.5,-37.33 218.5,-37.33 218.5,-42.67 213.17,-48 207.83,-48 207.83,-48 172.17,-48 172.17,-48 166.83,-48 161.5,-42.67 161.5,-37.33 161.5,-37.33 161.5,-26.67 161.5,-26.67 161.5,-21.33 166.83,-16 172.17,-16"/>
</a>
</g>
</g>
<!-- function&#45;3&#45;RegVal -->
<g id="node19" class="node">
<title>function&#45;3&#45;RegVal</title>
<g id="a_node19"><a xlink:title="Inst&#45;3: function&#45;3&#45;RegVal">
<path fill="white" stroke="transparent" d="M417.17,-411C417.17,-411 452.83,-411 452.83,-411 458.17,-411 463.5,-416.33 463.5,-421.67 463.5,-421.67 463.5,-432.33 463.5,-432.33 463.5,-437.67 458.17,-443 452.83,-443 452.83,-443 417.17,-443 417.17,-443 411.83,-443 406.5,-437.67 406.5,-432.33 406.5,-432.33 406.5,-421.67 406.5,-421.67 406.5,-416.33 411.83,-411 417.17,-411"/>
<text text-anchor="start" x="412" y="-423.3" font-family="Helvetica,sans-Serif" font-size="14.00">RegVal</text>
<path fill="none" stroke="black" d="M417.17,-411C417.17,-411 452.83,-411 452.83,-411 458.17,-411 463.5,-416.33 463.5,-421.67 463.5,-421.67 463.5,-432.33 463.5,-432.33 463.5,-437.67 458.17,-443 452.83,-443 452.83,-443 417.17,-443 417.17,-443 411.83,-443 406.5,-437.67 406.5,-432.33 406.5,-432.33 406.5,-421.67 406.5,-421.67 406.5,-416.33 411.83,-411 417.17,-411"/>
</a>
</g>
</g>
<!-- primitive&#45;String&#45;3 -->
<g id="node20" class="node">
<title>primitive&#45;String&#45;3</title>
<g id="a_node20"><a xlink:title="String&#45;3: primitive&#45;String&#45;3">
<path fill="white" stroke="transparent" d="M422.67,-332C422.67,-332 457.33,-332 457.33,-332 462.67,-332 468,-337.33 468,-342.67 468,-342.67 468,-353.33 468,-353.33 468,-358.67 462.67,-364 457.33,-364 457.33,-364 422.67,-364 422.67,-364 417.33,-364 412,-358.67 412,-353.33 412,-353.33 412,-342.67 412,-342.67 412,-337.33 417.33,-332 422.67,-332"/>
<text text-anchor="start" x="417" y="-344.3" font-family="Helvetica,sans-Serif" font-size="14.00">&quot;s4_0&quot;</text>
<path fill="none" stroke="black" d="M422.67,-332C422.67,-332 457.33,-332 457.33,-332 462.67,-332 468,-337.33 468,-342.67 468,-342.67 468,-353.33 468,-353.33 468,-358.67 462.67,-364 457.33,-364 457.33,-364 422.67,-364 422.67,-364 417.33,-364 412,-358.67 412,-353.33 412,-353.33 412,-342.67 412,-342.67 412,-337.33 417.33,-332 422.67,-332"/>
</a>
</g>
</g>
<!-- function&#45;0&#45;Xori -->
<g id="node21" class="node">
<title>function&#45;0&#45;Xori</title>
<g id="a_node21"><a xlink:title="Inst&#45;23: function&#45;0&#45;Xori">
<path fill="white" stroke="transparent" d="M379.67,-253C379.67,-253 396.33,-253 396.33,-253 401.67,-253 407,-258.33 407,-263.67 407,-263.67 407,-274.33 407,-274.33 407,-279.67 401.67,-285 396.33,-285 396.33,-285 379.67,-285 379.67,-285 374.33,-285 369,-279.67 369,-274.33 369,-274.33 369,-263.67 369,-263.67 369,-258.33 374.33,-253 379.67,-253"/>
<text text-anchor="start" x="374" y="-265.3" font-family="Helvetica,sans-Serif" font-size="14.00">Xori</text>
<path fill="none" stroke="black" d="M379.67,-253C379.67,-253 396.33,-253 396.33,-253 401.67,-253 407,-258.33 407,-263.67 407,-263.67 407,-274.33 407,-274.33 407,-279.67 401.67,-285 396.33,-285 396.33,-285 379.67,-285 379.67,-285 374.33,-285 369,-279.67 369,-274.33 369,-274.33 369,-263.67 369,-263.67 369,-258.33 374.33,-253 379.67,-253"/>
</a>
</g>
</g>
<!-- function&#45;0&#45;Srai -->
<g id="node22" class="node">
<title>function&#45;0&#45;Srai</title>
<g id="a_node22"><a xlink:title="Inst&#45;6: function&#45;0&#45;Srai">
<path fill="white" stroke="transparent" d="M370.67,-174C370.67,-174 387.33,-174 387.33,-174 392.67,-174 398,-179.33 398,-184.67 398,-184.67 398,-195.33 398,-195.33 398,-200.67 392.67,-206 387.33,-206 387.33,-206 370.67,-206 370.67,-206 365.33,-206 360,-200.67 360,-195.33 360,-195.33 360,-184.67 360,-184.67 360,-179.33 365.33,-174 370.67,-174"/>
<text text-anchor="start" x="365" y="-186.3" font-family="Helvetica,sans-Serif" font-size="14.00">Srai</text>
<path fill="none" stroke="black" d="M370.67,-174C370.67,-174 387.33,-174 387.33,-174 392.67,-174 398,-179.33 398,-184.67 398,-184.67 398,-195.33 398,-195.33 398,-200.67 392.67,-206 387.33,-206 387.33,-206 370.67,-206 370.67,-206 365.33,-206 360,-200.67 360,-195.33 360,-195.33 360,-184.67 360,-184.67 360,-179.33 365.33,-174 370.67,-174"/>
</a>
</g>
</g>
<!-- function&#45;0&#45;Jalr -->
<g id="node23" class="node">
<title>function&#45;0&#45;Jalr</title>
<g id="a_node23"><a xlink:title="Inst&#45;21: function&#45;0&#45;Jalr">
<path fill="white" stroke="transparent" d="M777.17,-806C777.17,-806 788.83,-806 788.83,-806 794.17,-806 799.5,-811.33 799.5,-816.67 799.5,-816.67 799.5,-827.33 799.5,-827.33 799.5,-832.67 794.17,-838 788.83,-838 788.83,-838 777.17,-838 777.17,-838 771.83,-838 766.5,-832.67 766.5,-827.33 766.5,-827.33 766.5,-816.67 766.5,-816.67 766.5,-811.33 771.83,-806 777.17,-806"/>
<text text-anchor="start" x="772" y="-818.3" font-family="Helvetica,sans-Serif" font-size="14.00">Jalr</text>
<path fill="none" stroke="black" d="M777.17,-806C777.17,-806 788.83,-806 788.83,-806 794.17,-806 799.5,-811.33 799.5,-816.67 799.5,-816.67 799.5,-827.33 799.5,-827.33 799.5,-832.67 794.17,-838 788.83,-838 788.83,-838 777.17,-838 777.17,-838 771.83,-838 766.5,-832.67 766.5,-827.33 766.5,-827.33 766.5,-816.67 766.5,-816.67 766.5,-811.33 771.83,-806 777.17,-806"/>
</a>
</g>
</g>
<!-- function&#45;4&#45;RegVal -->
<g id="node24" class="node">
<title>function&#45;4&#45;RegVal</title>
<g id="a_node24"><a xlink:title="Inst&#45;19: function&#45;4&#45;RegVal">
<path fill="white" stroke="transparent" d="M816.17,-727C816.17,-727 851.83,-727 851.83,-727 857.17,-727 862.5,-732.33 862.5,-737.67 862.5,-737.67 862.5,-748.33 862.5,-748.33 862.5,-753.67 857.17,-759 851.83,-759 851.83,-759 816.17,-759 816.17,-759 810.83,-759 805.5,-753.67 805.5,-748.33 805.5,-748.33 805.5,-737.67 805.5,-737.67 805.5,-732.33 810.83,-727 816.17,-727"/>
<text text-anchor="start" x="811" y="-739.3" font-family="Helvetica,sans-Serif" font-size="14.00">RegVal</text>
<path fill="none" stroke="black" d="M816.17,-727C816.17,-727 851.83,-727 851.83,-727 857.17,-727 862.5,-732.33 862.5,-737.67 862.5,-737.67 862.5,-748.33 862.5,-748.33 862.5,-753.67 857.17,-759 851.83,-759 851.83,-759 816.17,-759 816.17,-759 810.83,-759 805.5,-753.67 805.5,-748.33 805.5,-748.33 805.5,-737.67 805.5,-737.67 805.5,-732.33 810.83,-727 816.17,-727"/>
</a>
</g>
</g>
<!-- function&#45;0&#45;Add -->
<g id="node25" class="node">
<title>function&#45;0&#45;Add</title>
<g id="a_node25"><a xlink:title="Inst&#45;13: function&#45;0&#45;Add">
<path fill="white" stroke="transparent" d="M358.67,-411C358.67,-411 375.33,-411 375.33,-411 380.67,-411 386,-416.33 386,-421.67 386,-421.67 386,-432.33 386,-432.33 386,-437.67 380.67,-443 375.33,-443 375.33,-443 358.67,-443 358.67,-443 353.33,-443 348,-437.67 348,-432.33 348,-432.33 348,-421.67 348,-421.67 348,-416.33 353.33,-411 358.67,-411"/>
<text text-anchor="start" x="353" y="-423.3" font-family="Helvetica,sans-Serif" font-size="14.00">Add</text>
<path fill="none" stroke="black" d="M358.67,-411C358.67,-411 375.33,-411 375.33,-411 380.67,-411 386,-416.33 386,-421.67 386,-421.67 386,-432.33 386,-432.33 386,-437.67 380.67,-443 375.33,-443 375.33,-443 358.67,-443 358.67,-443 353.33,-443 348,-437.67 348,-432.33 348,-432.33 348,-421.67 348,-421.67 348,-416.33 353.33,-411 358.67,-411"/>
</a>
</g>
</g>
<!-- function&#45;1&#45;Srai -->
<g id="node26" class="node">
<title>function&#45;1&#45;Srai</title>
<g id="a_node26"><a xlink:title="Inst&#45;12: function&#45;1&#45;Srai">
<path fill="white" stroke="transparent" d="M285.67,-332C285.67,-332 302.33,-332 302.33,-332 307.67,-332 313,-337.33 313,-342.67 313,-342.67 313,-353.33 313,-353.33 313,-358.67 307.67,-364 302.33,-364 302.33,-364 285.67,-364 285.67,-364 280.33,-364 275,-358.67 275,-353.33 275,-353.33 275,-342.67 275,-342.67 275,-337.33 280.33,-332 285.67,-332"/>
<text text-anchor="start" x="280" y="-344.3" font-family="Helvetica,sans-Serif" font-size="14.00">Srai</text>
<path fill="none" stroke="black" d="M285.67,-332C285.67,-332 302.33,-332 302.33,-332 307.67,-332 313,-337.33 313,-342.67 313,-342.67 313,-353.33 313,-353.33 313,-358.67 307.67,-364 302.33,-364 302.33,-364 285.67,-364 285.67,-364 280.33,-364 275,-358.67 275,-353.33 275,-353.33 275,-342.67 275,-342.67 275,-337.33 280.33,-332 285.67,-332"/>
</a>
</g>
</g>
<!-- function&#45;3&#45;Addi -->
<g id="node27" class="node">
<title>function&#45;3&#45;Addi</title>
<g id="a_node27"><a xlink:title="Inst&#45;25: function&#45;3&#45;Addi">
<path fill="white" stroke="transparent" d="M363.17,-332C363.17,-332 382.83,-332 382.83,-332 388.17,-332 393.5,-337.33 393.5,-342.67 393.5,-342.67 393.5,-353.33 393.5,-353.33 393.5,-358.67 388.17,-364 382.83,-364 382.83,-364 363.17,-364 363.17,-364 357.83,-364 352.5,-358.67 352.5,-353.33 352.5,-353.33 352.5,-342.67 352.5,-342.67 352.5,-337.33 357.83,-332 363.17,-332"/>
<text text-anchor="start" x="358" y="-344.3" font-family="Helvetica,sans-Serif" font-size="14.00">Addi</text>
<path fill="none" stroke="black" d="M363.17,-332C363.17,-332 382.83,-332 382.83,-332 388.17,-332 393.5,-337.33 393.5,-342.67 393.5,-342.67 393.5,-353.33 393.5,-353.33 393.5,-358.67 388.17,-364 382.83,-364 382.83,-364 363.17,-364 363.17,-364 357.83,-364 352.5,-358.67 352.5,-353.33 352.5,-353.33 352.5,-342.67 352.5,-342.67 352.5,-337.33 357.83,-332 363.17,-332"/>
</a>
</g>
</g>
<!-- function&#45;2&#45;Add -->
<g id="node28" class="node">
<title>function&#45;2&#45;Add</title>
<g id="a_node28"><a xlink:title="Inst&#45;13: function&#45;2&#45;Add">
<path fill="white" stroke="transparent" d="M242.67,-411C242.67,-411 259.33,-411 259.33,-411 264.67,-411 270,-416.33 270,-421.67 270,-421.67 270,-432.33 270,-432.33 270,-437.67 264.67,-443 259.33,-443 259.33,-443 242.67,-443 242.67,-443 237.33,-443 232,-437.67 232,-432.33 232,-432.33 232,-421.67 232,-421.67 232,-416.33 237.33,-411 242.67,-411"/>
<text text-anchor="start" x="237" y="-423.3" font-family="Helvetica,sans-Serif" font-size="14.00">Add</text>
<path fill="none" stroke="black" d="M242.67,-411C242.67,-411 259.33,-411 259.33,-411 264.67,-411 270,-416.33 270,-421.67 270,-421.67 270,-432.33 270,-432.33 270,-437.67 264.67,-443 259.33,-443 259.33,-443 242.67,-443 242.67,-443 237.33,-443 232,-437.67 232,-432.33 232,-432.33 232,-421.67 232,-421.67 232,-416.33 237.33,-411 242.67,-411"/>
</a>
</g>
</g>
<!-- function&#45;0&#45;Sub -->
<g id="node29" class="node">
<title>function&#45;0&#45;Sub</title>
<g id="a_node29"><a xlink:title="Inst&#45;13: function&#45;0&#45;Sub">
<path fill="white" stroke="transparent" d="M300.67,-411C300.67,-411 317.33,-411 317.33,-411 322.67,-411 328,-416.33 328,-421.67 328,-421.67 328,-432.33 328,-432.33 328,-437.67 322.67,-443 317.33,-443 317.33,-443 300.67,-443 300.67,-443 295.33,-443 290,-437.67 290,-432.33 290,-432.33 290,-421.67 290,-421.67 290,-416.33 295.33,-411 300.67,-411"/>
<text text-anchor="start" x="295" y="-423.3" font-family="Helvetica,sans-Serif" font-size="14.00">Sub</text>
<path fill="none" stroke="black" d="M300.67,-411C300.67,-411 317.33,-411 317.33,-411 322.67,-411 328,-416.33 328,-421.67 328,-421.67 328,-432.33 328,-432.33 328,-437.67 322.67,-443 317.33,-443 317.33,-443 300.67,-443 300.67,-443 295.33,-443 290,-437.67 290,-432.33 290,-432.33 290,-421.67 290,-421.67 290,-416.33 295.33,-411 300.67,-411"/>
</a>
</g>
</g>
<!-- function&#45;1&#45;Addi -->
<g id="node30" class="node">
<title>function&#45;1&#45;Addi</title>
<g id="a_node30"><a xlink:title="Inst&#45;10: function&#45;1&#45;Addi">
<path fill="white" stroke="transparent" d="M387.17,-806C387.17,-806 406.83,-806 406.83,-806 412.17,-806 417.5,-811.33 417.5,-816.67 417.5,-816.67 417.5,-827.33 417.5,-827.33 417.5,-832.67 412.17,-838 406.83,-838 406.83,-838 387.17,-838 387.17,-838 381.83,-838 376.5,-832.67 376.5,-827.33 376.5,-827.33 376.5,-816.67 376.5,-816.67 376.5,-811.33 381.83,-806 387.17,-806"/>
<text text-anchor="start" x="382" y="-818.3" font-family="Helvetica,sans-Serif" font-size="14.00">Addi</text>
<path fill="none" stroke="black" d="M387.17,-806C387.17,-806 406.83,-806 406.83,-806 412.17,-806 417.5,-811.33 417.5,-816.67 417.5,-816.67 417.5,-827.33 417.5,-827.33 417.5,-832.67 412.17,-838 406.83,-838 406.83,-838 387.17,-838 387.17,-838 381.83,-838 376.5,-832.67 376.5,-827.33 376.5,-827.33 376.5,-816.67 376.5,-816.67 376.5,-811.33 381.83,-806 387.17,-806"/>
</a>
</g>
</g>
<!-- function&#45;1&#45;RegVal -->
<g id="node31" class="node">
<title>function&#45;1&#45;RegVal</title>
<g id="a_node31"><a xlink:title="Inst&#45;1: function&#45;1&#45;RegVal">
<path fill="white" stroke="transparent" d="M99.17,-727C99.17,-727 134.83,-727 134.83,-727 140.17,-727 145.5,-732.33 145.5,-737.67 145.5,-737.67 145.5,-748.33 145.5,-748.33 145.5,-753.67 140.17,-759 134.83,-759 134.83,-759 99.17,-759 99.17,-759 93.83,-759 88.5,-753.67 88.5,-748.33 88.5,-748.33 88.5,-737.67 88.5,-737.67 88.5,-732.33 93.83,-727 99.17,-727"/>
<text text-anchor="start" x="94" y="-739.3" font-family="Helvetica,sans-Serif" font-size="14.00">RegVal</text>
<path fill="none" stroke="black" d="M99.17,-727C99.17,-727 134.83,-727 134.83,-727 140.17,-727 145.5,-732.33 145.5,-737.67 145.5,-737.67 145.5,-748.33 145.5,-748.33 145.5,-753.67 140.17,-759 134.83,-759 134.83,-759 99.17,-759 99.17,-759 93.83,-759 88.5,-753.67 88.5,-748.33 88.5,-748.33 88.5,-737.67 88.5,-737.67 88.5,-732.33 93.83,-727 99.17,-727"/>
</a>
</g>
</g>
<!-- function&#45;1&#45;Xori -->
<g id="node32" class="node">
<title>function&#45;1&#45;Xori</title>
<g id="a_node32"><a xlink:title="Inst&#45;24: function&#45;1&#45;Xori">
<path fill="white" stroke="transparent" d="M317.67,-569C317.67,-569 334.33,-569 334.33,-569 339.67,-569 345,-574.33 345,-579.67 345,-579.67 345,-590.33 345,-590.33 345,-595.67 339.67,-601 334.33,-601 334.33,-601 317.67,-601 317.67,-601 312.33,-601 307,-595.67 307,-590.33 307,-590.33 307,-579.67 307,-579.67 307,-574.33 312.33,-569 317.67,-569"/>
<text text-anchor="start" x="312" y="-581.3" font-family="Helvetica,sans-Serif" font-size="14.00">Xori</text>
<path fill="none" stroke="black" d="M317.67,-569C317.67,-569 334.33,-569 334.33,-569 339.67,-569 345,-574.33 345,-579.67 345,-579.67 345,-590.33 345,-590.33 345,-595.67 339.67,-601 334.33,-601 334.33,-601 317.67,-601 317.67,-601 312.33,-601 307,-595.67 307,-590.33 307,-590.33 307,-579.67 307,-579.67 307,-574.33 312.33,-569 317.67,-569"/>
</a>
</g>
</g>
<!-- function&#45;1&#45;Mul -->
<g id="node33" class="node">
<title>function&#45;1&#45;Mul</title>
<g id="a_node33"><a xlink:title="Inst&#45;14: function&#45;1&#45;Mul">
<path fill="white" stroke="transparent" d="M310.17,-490C310.17,-490 323.83,-490 323.83,-490 329.17,-490 334.5,-495.33 334.5,-500.67 334.5,-500.67 334.5,-511.33 334.5,-511.33 334.5,-516.67 329.17,-522 323.83,-522 323.83,-522 310.17,-522 310.17,-522 304.83,-522 299.5,-516.67 299.5,-511.33 299.5,-511.33 299.5,-500.67 299.5,-500.67 299.5,-495.33 304.83,-490 310.17,-490"/>
<text text-anchor="start" x="305" y="-502.3" font-family="Helvetica,sans-Serif" font-size="14.00">Mul</text>
<path fill="none" stroke="black" d="M310.17,-490C310.17,-490 323.83,-490 323.83,-490 329.17,-490 334.5,-495.33 334.5,-500.67 334.5,-500.67 334.5,-511.33 334.5,-511.33 334.5,-516.67 329.17,-522 323.83,-522 323.83,-522 310.17,-522 310.17,-522 304.83,-522 299.5,-516.67 299.5,-511.33 299.5,-511.33 299.5,-500.67 299.5,-500.67 299.5,-495.33 304.83,-490 310.17,-490"/>
</a>
</g>
</g>
<!-- primitive&#45;String&#45;5 -->
<g id="node34" class="node">
<title>primitive&#45;String&#45;5</title>
<g id="a_node34"><a xlink:title="String&#45;5: primitive&#45;String&#45;5">
<path fill="white" stroke="transparent" d="M772.17,-648C772.17,-648 921.83,-648 921.83,-648 927.17,-648 932.5,-653.33 932.5,-658.67 932.5,-658.67 932.5,-669.33 932.5,-669.33 932.5,-674.67 927.17,-680 921.83,-680 921.83,-680 772.17,-680 772.17,-680 766.83,-680 761.5,-674.67 761.5,-669.33 761.5,-669.33 761.5,-658.67 761.5,-658.67 761.5,-653.33 766.83,-648 772.17,-648"/>
<text text-anchor="start" x="767" y="-660.3" font-family="Helvetica,sans-Serif" font-size="14.00">&quot;%pcrel_lo(.Lpcrel_15)&quot;</text>
<path fill="none" stroke="black" d="M772.17,-648C772.17,-648 921.83,-648 921.83,-648 927.17,-648 932.5,-653.33 932.5,-658.67 932.5,-658.67 932.5,-669.33 932.5,-669.33 932.5,-674.67 927.17,-680 921.83,-680 921.83,-680 772.17,-680 772.17,-680 766.83,-680 761.5,-674.67 761.5,-669.33 761.5,-669.33 761.5,-658.67 761.5,-658.67 761.5,-653.33 766.83,-648 772.17,-648"/>
</a>
</g>
</g>
<!-- function&#45;2&#45;Addi -->
<g id="node35" class="node">
<title>function&#45;2&#45;Addi</title>
<g id="a_node35"><a xlink:title="Inst&#45;16: function&#45;2&#45;Addi">
<path fill="white" stroke="transparent" d="M192.17,-806C192.17,-806 211.83,-806 211.83,-806 217.17,-806 222.5,-811.33 222.5,-816.67 222.5,-816.67 222.5,-827.33 222.5,-827.33 222.5,-832.67 217.17,-838 211.83,-838 211.83,-838 192.17,-838 192.17,-838 186.83,-838 181.5,-832.67 181.5,-827.33 181.5,-827.33 181.5,-816.67 181.5,-816.67 181.5,-811.33 186.83,-806 192.17,-806"/>
<text text-anchor="start" x="187" y="-818.3" font-family="Helvetica,sans-Serif" font-size="14.00">Addi</text>
<path fill="none" stroke="black" d="M192.17,-806C192.17,-806 211.83,-806 211.83,-806 217.17,-806 222.5,-811.33 222.5,-816.67 222.5,-816.67 222.5,-827.33 222.5,-827.33 222.5,-832.67 217.17,-838 211.83,-838 211.83,-838 192.17,-838 192.17,-838 186.83,-838 181.5,-832.67 181.5,-827.33 181.5,-827.33 181.5,-816.67 181.5,-816.67 181.5,-811.33 186.83,-806 192.17,-806"/>
</a>
</g>
</g>
<!-- function&#45;3&#45;Add -->
<g id="node36" class="node">
<title>function&#45;3&#45;Add</title>
<g id="a_node36"><a xlink:title="Inst&#45;15: function&#45;3&#45;Add">
<path fill="white" stroke="transparent" d="M234.67,-727C234.67,-727 251.33,-727 251.33,-727 256.67,-727 262,-732.33 262,-737.67 262,-737.67 262,-748.33 262,-748.33 262,-753.67 256.67,-759 251.33,-759 251.33,-759 234.67,-759 234.67,-759 229.33,-759 224,-753.67 224,-748.33 224,-748.33 224,-737.67 224,-737.67 224,-732.33 229.33,-727 234.67,-727"/>
<text text-anchor="start" x="229" y="-739.3" font-family="Helvetica,sans-Serif" font-size="14.00">Add</text>
<path fill="none" stroke="black" d="M234.67,-727C234.67,-727 251.33,-727 251.33,-727 256.67,-727 262,-732.33 262,-737.67 262,-737.67 262,-748.33 262,-748.33 262,-753.67 256.67,-759 251.33,-759 251.33,-759 234.67,-759 234.67,-759 229.33,-759 224,-753.67 224,-748.33 224,-748.33 224,-737.67 224,-737.67 224,-732.33 229.33,-727 234.67,-727"/>
</a>
</g>
</g>
<!-- primitive&#45;String&#45;2 -->
<g id="node37" class="node">
<title>primitive&#45;String&#45;2</title>
<g id="a_node37"><a xlink:title="String&#45;2: primitive&#45;String&#45;2">
<path fill="white" stroke="transparent" d="M240.67,-95C240.67,-95 275.33,-95 275.33,-95 280.67,-95 286,-100.33 286,-105.67 286,-105.67 286,-116.33 286,-116.33 286,-121.67 280.67,-127 275.33,-127 275.33,-127 240.67,-127 240.67,-127 235.33,-127 230,-121.67 230,-116.33 230,-116.33 230,-105.67 230,-105.67 230,-100.33 235.33,-95 240.67,-95"/>
<text text-anchor="start" x="235" y="-107.3" font-family="Helvetica,sans-Serif" font-size="14.00">&quot;s2_0&quot;</text>
<path fill="none" stroke="black" d="M240.67,-95C240.67,-95 275.33,-95 275.33,-95 280.67,-95 286,-100.33 286,-105.67 286,-105.67 286,-116.33 286,-116.33 286,-121.67 280.67,-127 275.33,-127 275.33,-127 240.67,-127 240.67,-127 235.33,-127 230,-121.67 230,-116.33 230,-116.33 230,-105.67 230,-105.67 230,-100.33 235.33,-95 240.67,-95"/>
</a>
</g>
</g>
<!-- function&#45;0&#45;Mul -->
<g id="node38" class="node">
<title>function&#45;0&#45;Mul</title>
<g id="a_node38"><a xlink:title="Inst&#45;14: function&#45;0&#45;Mul">
<path fill="white" stroke="transparent" d="M252.17,-490C252.17,-490 265.83,-490 265.83,-490 271.17,-490 276.5,-495.33 276.5,-500.67 276.5,-500.67 276.5,-511.33 276.5,-511.33 276.5,-516.67 271.17,-522 265.83,-522 265.83,-522 252.17,-522 252.17,-522 246.83,-522 241.5,-516.67 241.5,-511.33 241.5,-511.33 241.5,-500.67 241.5,-500.67 241.5,-495.33 246.83,-490 252.17,-490"/>
<text text-anchor="start" x="247" y="-502.3" font-family="Helvetica,sans-Serif" font-size="14.00">Mul</text>
<path fill="none" stroke="black" d="M252.17,-490C252.17,-490 265.83,-490 265.83,-490 271.17,-490 276.5,-495.33 276.5,-500.67 276.5,-500.67 276.5,-511.33 276.5,-511.33 276.5,-516.67 271.17,-522 265.83,-522 265.83,-522 252.17,-522 252.17,-522 246.83,-522 241.5,-516.67 241.5,-511.33 241.5,-511.33 241.5,-500.67 241.5,-500.67 241.5,-495.33 246.83,-490 252.17,-490"/>
</a>
</g>
</g>
<!-- primitive&#45;String&#45;1 -->
<g id="node39" class="node">
<title>primitive&#45;String&#45;1</title>
<g id="a_node39"><a xlink:title="String&#45;1: primitive&#45;String&#45;1">
<path fill="white" stroke="transparent" d="M100.67,-648C100.67,-648 135.33,-648 135.33,-648 140.67,-648 146,-653.33 146,-658.67 146,-658.67 146,-669.33 146,-669.33 146,-674.67 140.67,-680 135.33,-680 135.33,-680 100.67,-680 100.67,-680 95.33,-680 90,-674.67 90,-669.33 90,-669.33 90,-658.67 90,-658.67 90,-653.33 95.33,-648 100.67,-648"/>
<text text-anchor="start" x="95" y="-660.3" font-family="Helvetica,sans-Serif" font-size="14.00">&quot;s1_0&quot;</text>
<path fill="none" stroke="black" d="M100.67,-648C100.67,-648 135.33,-648 135.33,-648 140.67,-648 146,-653.33 146,-658.67 146,-658.67 146,-669.33 146,-669.33 146,-674.67 140.67,-680 135.33,-680 135.33,-680 100.67,-680 100.67,-680 95.33,-680 90,-674.67 90,-669.33 90,-669.33 90,-658.67 90,-658.67 90,-653.33 95.33,-648 100.67,-648"/>
</a>
</g>
</g>
<!-- function&#45;1&#45;Add -->
<g id="node40" class="node">
<title>function&#45;1&#45;Add</title>
<g id="a_node40"><a xlink:title="Inst&#45;15: function&#45;1&#45;Add">
<path fill="white" stroke="transparent" d="M292.67,-727C292.67,-727 309.33,-727 309.33,-727 314.67,-727 320,-732.33 320,-737.67 320,-737.67 320,-748.33 320,-748.33 320,-753.67 314.67,-759 309.33,-759 309.33,-759 292.67,-759 292.67,-759 287.33,-759 282,-753.67 282,-748.33 282,-748.33 282,-737.67 282,-737.67 282,-732.33 287.33,-727 292.67,-727"/>
<text text-anchor="start" x="287" y="-739.3" font-family="Helvetica,sans-Serif" font-size="14.00">Add</text>
<path fill="none" stroke="black" d="M292.67,-727C292.67,-727 309.33,-727 309.33,-727 314.67,-727 320,-732.33 320,-737.67 320,-737.67 320,-748.33 320,-748.33 320,-753.67 314.67,-759 309.33,-759 309.33,-759 292.67,-759 292.67,-759 287.33,-759 282,-753.67 282,-748.33 282,-748.33 282,-737.67 282,-737.67 282,-732.33 287.33,-727 292.67,-727"/>
</a>
</g>
</g>
<!-- function&#45;4&#45;Addi -->
<g id="node41" class="node">
<title>function&#45;4&#45;Addi</title>
<g id="a_node41"><a xlink:title="Inst&#45;26: function&#45;4&#45;Addi">
<path fill="white" stroke="transparent" d="M313.17,-648C313.17,-648 332.83,-648 332.83,-648 338.17,-648 343.5,-653.33 343.5,-658.67 343.5,-658.67 343.5,-669.33 343.5,-669.33 343.5,-674.67 338.17,-680 332.83,-680 332.83,-680 313.17,-680 313.17,-680 307.83,-680 302.5,-674.67 302.5,-669.33 302.5,-669.33 302.5,-658.67 302.5,-658.67 302.5,-653.33 307.83,-648 313.17,-648"/>
<text text-anchor="start" x="308" y="-660.3" font-family="Helvetica,sans-Serif" font-size="14.00">Addi</text>
<path fill="none" stroke="black" d="M313.17,-648C313.17,-648 332.83,-648 332.83,-648 338.17,-648 343.5,-653.33 343.5,-658.67 343.5,-658.67 343.5,-669.33 343.5,-669.33 343.5,-674.67 338.17,-680 332.83,-680 332.83,-680 313.17,-680 313.17,-680 307.83,-680 302.5,-674.67 302.5,-669.33 302.5,-669.33 302.5,-658.67 302.5,-658.67 302.5,-653.33 307.83,-648 313.17,-648"/>
</a>
</g>
</g>
<!-- function&#45;1&#45;Sub -->
<g id="node42" class="node">
<title>function&#45;1&#45;Sub</title>
<g id="a_node42"><a xlink:title="Inst&#45;15: function&#45;1&#45;Sub">
<path fill="white" stroke="transparent" d="M176.67,-727C176.67,-727 193.33,-727 193.33,-727 198.67,-727 204,-732.33 204,-737.67 204,-737.67 204,-748.33 204,-748.33 204,-753.67 198.67,-759 193.33,-759 193.33,-759 176.67,-759 176.67,-759 171.33,-759 166,-753.67 166,-748.33 166,-748.33 166,-737.67 166,-737.67 166,-732.33 171.33,-727 176.67,-727"/>
<text text-anchor="start" x="171" y="-739.3" font-family="Helvetica,sans-Serif" font-size="14.00">Sub</text>
<path fill="none" stroke="black" d="M176.67,-727C176.67,-727 193.33,-727 193.33,-727 198.67,-727 204,-732.33 204,-737.67 204,-737.67 204,-748.33 204,-748.33 204,-753.67 198.67,-759 193.33,-759 193.33,-759 176.67,-759 176.67,-759 171.33,-759 166,-753.67 166,-748.33 166,-748.33 166,-737.67 166,-737.67 166,-732.33 171.33,-727 176.67,-727"/>
</a>
</g>
</g>
<!-- function&#45;0&#45;Addi -->
<g id="node43" class="node">
<title>function&#45;0&#45;Addi</title>
<g id="a_node43"><a xlink:title="Inst&#45;8: function&#45;0&#45;Addi">
<path fill="white" stroke="transparent" d="M74.17,-806C74.17,-806 93.83,-806 93.83,-806 99.17,-806 104.5,-811.33 104.5,-816.67 104.5,-816.67 104.5,-827.33 104.5,-827.33 104.5,-832.67 99.17,-838 93.83,-838 93.83,-838 74.17,-838 74.17,-838 68.83,-838 63.5,-832.67 63.5,-827.33 63.5,-827.33 63.5,-816.67 63.5,-816.67 63.5,-811.33 68.83,-806 74.17,-806"/>
<text text-anchor="start" x="69" y="-818.3" font-family="Helvetica,sans-Serif" font-size="14.00">Addi</text>
<path fill="none" stroke="black" d="M74.17,-806C74.17,-806 93.83,-806 93.83,-806 99.17,-806 104.5,-811.33 104.5,-816.67 104.5,-816.67 104.5,-827.33 104.5,-827.33 104.5,-832.67 99.17,-838 93.83,-838 93.83,-838 74.17,-838 74.17,-838 68.83,-838 63.5,-832.67 63.5,-827.33 63.5,-827.33 63.5,-816.67 63.5,-816.67 63.5,-811.33 68.83,-806 74.17,-806"/>
</a>
</g>
</g>
<!-- function&#45;0&#45;Auipc -->
<g id="node44" class="node">
<title>function&#45;0&#45;Auipc</title>
<g id="a_node44"><a xlink:title="Inst&#45;18: function&#45;0&#45;Auipc">
<path fill="white" stroke="transparent" d="M590.67,-806C590.67,-806 619.33,-806 619.33,-806 624.67,-806 630,-811.33 630,-816.67 630,-816.67 630,-827.33 630,-827.33 630,-832.67 624.67,-838 619.33,-838 619.33,-838 590.67,-838 590.67,-838 585.33,-838 580,-832.67 580,-827.33 580,-827.33 580,-816.67 580,-816.67 580,-811.33 585.33,-806 590.67,-806"/>
<text text-anchor="start" x="585" y="-818.3" font-family="Helvetica,sans-Serif" font-size="14.00">Auipc</text>
<path fill="none" stroke="black" d="M590.67,-806C590.67,-806 619.33,-806 619.33,-806 624.67,-806 630,-811.33 630,-816.67 630,-816.67 630,-827.33 630,-827.33 630,-832.67 624.67,-838 619.33,-838 619.33,-838 590.67,-838 590.67,-838 585.33,-838 580,-832.67 580,-827.33 580,-827.33 580,-816.67 580,-816.67 580,-811.33 585.33,-806 590.67,-806"/>
</a>
</g>
</g>
</g>
</svg>
