<?xml version="1.0" encoding="UTF-8" standalone="no"?>
<!DOCTYPE svg PUBLIC "-//W3C//DTD SVG 1.1//EN"
 "http://www.w3.org/Graphics/SVG/1.1/DTD/svg11.dtd">
<!-- Generated by graphviz version 2.43.0 (0)
 -->
<!-- Title: %3 Pages: 1 -->
<svg width="659pt" height="388pt"
 viewBox="0.00 0.00 659.22 388.00" xmlns="http://www.w3.org/2000/svg" xmlns:xlink="http://www.w3.org/1999/xlink">
<g id="graph0" class="graph" transform="scale(1 1) rotate(0) translate(4 384)">
<title>%3</title>
<polygon fill="white" stroke="#000000" points="-4,4 -4,-384 655.22,-384 655.22,4 -4,4"/>
<g id="clust1" class="cluster">
<title>outer_cluster_Imm&#45;3</title>
</g>
<g id="clust2" class="cluster">
<title>cluster_Imm&#45;3</title>
<path fill="#ffffb3" stroke="black" stroke-dasharray="5,2" d="M23,-248C23,-248 67,-248 67,-248 73,-248 79,-254 79,-260 79,-260 79,-278 79,-278 79,-284 73,-290 67,-290 67,-290 23,-290 23,-290 17,-290 11,-284 11,-278 11,-278 11,-260 11,-260 11,-254 17,-248 23,-248"/>
</g>
<g id="clust4" class="cluster">
<title>outer_cluster_Imm&#45;5</title>
</g>
<g id="clust5" class="cluster">
<title>cluster_Imm&#45;5</title>
<path fill="#ffffb3" stroke="black" stroke-dasharray="5,2" d="M203,-169C203,-169 263,-169 263,-169 269,-169 275,-175 275,-181 275,-181 275,-199 275,-199 275,-205 269,-211 263,-211 263,-211 203,-211 203,-211 197,-211 191,-205 191,-199 191,-199 191,-181 191,-181 191,-175 197,-169 203,-169"/>
</g>
<g id="clust7" class="cluster">
<title>outer_cluster_Imm&#45;7</title>
</g>
<g id="clust8" class="cluster">
<title>cluster_Imm&#45;7</title>
<path fill="#ffffb3" stroke="black" stroke-dasharray="5,2" d="M421,-90C421,-90 465,-90 465,-90 471,-90 477,-96 477,-102 477,-102 477,-120 477,-120 477,-126 471,-132 465,-132 465,-132 421,-132 421,-132 415,-132 409,-126 409,-120 409,-120 409,-102 409,-102 409,-96 415,-90 421,-90"/>
</g>
<g id="clust10" class="cluster">
<title>outer_cluster_Inst&#45;8</title>
</g>
<g id="clust11" class="cluster">
<title>cluster_Inst&#45;8</title>
<path fill="#bebada" stroke="black" stroke-dasharray="5,2" d="M284,-248C284,-248 436,-248 436,-248 442,-248 448,-254 448,-260 448,-260 448,-278 448,-278 448,-284 442,-290 436,-290 436,-290 284,-290 284,-290 278,-290 272,-284 272,-278 272,-278 272,-260 272,-260 272,-254 278,-248 284,-248"/>
</g>
<g id="clust13" class="cluster">
<title>outer_cluster_Inst&#45;10</title>
</g>
<g id="clust14" class="cluster">
<title>cluster_Inst&#45;10</title>
<path fill="#bebada" stroke="black" stroke-dasharray="5,2" d="M466,-248C466,-248 618,-248 618,-248 624,-248 630,-254 630,-260 630,-260 630,-278 630,-278 630,-284 624,-290 618,-290 618,-290 466,-290 466,-290 460,-290 454,-284 454,-278 454,-278 454,-260 454,-260 454,-254 460,-248 466,-248"/>
</g>
<g id="clust16" class="cluster">
<title>outer_cluster_Inst&#45;11</title>
</g>
<g id="clust17" class="cluster">
<title>cluster_Inst&#45;11</title>
<path fill="#bebada" stroke="black" stroke-dasharray="5,2" d="M425,-169C425,-169 461,-169 461,-169 467,-169 473,-175 473,-181 473,-181 473,-199 473,-199 473,-205 467,-211 461,-211 461,-211 425,-211 425,-211 419,-211 413,-205 413,-199 413,-199 413,-181 413,-181 413,-175 419,-169 425,-169"/>
</g>
<g id="clust19" class="cluster">
<title>outer_cluster_Inst&#45;9</title>
</g>
<g id="clust20" class="cluster">
<title>cluster_Inst&#45;9</title>
<path fill="#bebada" stroke="black" stroke-dasharray="5,2" d="M176,-248C176,-248 212,-248 212,-248 218,-248 224,-254 224,-260 224,-260 224,-278 224,-278 224,-284 218,-290 212,-290 212,-290 176,-290 176,-290 170,-290 164,-284 164,-278 164,-278 164,-260 164,-260 164,-254 170,-248 176,-248"/>
</g>
<g id="clust22" class="cluster">
<title>outer_cluster_Inst&#45;4</title>
</g>
<g id="clust23" class="cluster">
<title>cluster_Inst&#45;4</title>
<path fill="#bebada" stroke="black" stroke-dasharray="5,2" d="M66,-327C66,-327 102,-327 102,-327 108,-327 114,-333 114,-339 114,-339 114,-357 114,-357 114,-363 108,-369 102,-369 102,-369 66,-369 66,-369 60,-369 54,-363 54,-357 54,-357 54,-339 54,-339 54,-333 60,-327 66,-327"/>
</g>
<g id="clust25" class="cluster">
<title>outer_cluster_Inst&#45;1</title>
</g>
<g id="clust26" class="cluster">
<title>cluster_Inst&#45;1</title>
<path fill="#bebada" stroke="black" stroke-dasharray="5,2" d="M306,-169C306,-169 346,-169 346,-169 352,-169 358,-175 358,-181 358,-181 358,-199 358,-199 358,-205 352,-211 346,-211 346,-211 306,-211 306,-211 300,-211 294,-205 294,-199 294,-199 294,-181 294,-181 294,-175 300,-169 306,-169"/>
</g>
<g id="clust28" class="cluster">
<title>outer_cluster_Inst&#45;6</title>
</g>
<g id="clust29" class="cluster">
<title>cluster_Inst&#45;6</title>
<path fill="#bebada" stroke="black" stroke-dasharray="5,2" d="M170,-327C170,-327 322,-327 322,-327 328,-327 334,-333 334,-339 334,-339 334,-357 334,-357 334,-363 328,-369 322,-369 322,-369 170,-369 170,-369 164,-369 158,-363 158,-357 158,-357 158,-339 158,-339 158,-333 164,-327 170,-327"/>
</g>
<g id="clust31" class="cluster">
<title>outer_cluster_Inst&#45;2</title>
</g>
<g id="clust32" class="cluster">
<title>cluster_Inst&#45;2</title>
<path fill="#bebada" stroke="black" stroke-dasharray="5,2" d="M549,-169C549,-169 589,-169 589,-169 595,-169 601,-175 601,-181 601,-181 601,-199 601,-199 601,-205 595,-211 589,-211 589,-211 549,-211 549,-211 543,-211 537,-205 537,-199 537,-199 537,-181 537,-181 537,-175 543,-169 549,-169"/>
</g>
<g id="clust34" class="cluster">
<title>outer_cluster_Inst&#45;0</title>
</g>
<g id="clust35" class="cluster">
<title>cluster_Inst&#45;0</title>
<path fill="#bebada" stroke="black" stroke-dasharray="5,2" d="M97,-248C97,-248 137,-248 137,-248 143,-248 149,-254 149,-260 149,-260 149,-278 149,-278 149,-284 143,-290 137,-290 137,-290 97,-290 97,-290 91,-290 85,-284 85,-278 85,-278 85,-260 85,-260 85,-254 91,-248 97,-248"/>
</g>
<g id="clust37" class="cluster">
<title>outer_cluster_String&#45;4</title>
</g>
<g id="clust38" class="cluster">
<title>cluster_String&#45;4</title>
<path fill="#fb8072" stroke="black" stroke-dasharray="5,2" d="M216,-90C216,-90 252,-90 252,-90 258,-90 264,-96 264,-102 264,-102 264,-120 264,-120 264,-126 258,-132 252,-132 252,-132 216,-132 216,-132 210,-132 204,-126 204,-120 204,-120 204,-102 204,-102 204,-96 210,-90 216,-90"/>
</g>
<g id="clust40" class="cluster">
<title>outer_cluster_String&#45;1</title>
</g>
<g id="clust41" class="cluster">
<title>cluster_String&#45;1</title>
<path fill="#fb8072" stroke="black" stroke-dasharray="5,2" d="M99,-169C99,-169 137,-169 137,-169 143,-169 149,-175 149,-181 149,-181 149,-199 149,-199 149,-205 143,-211 137,-211 137,-211 99,-211 99,-211 93,-211 87,-205 87,-199 87,-199 87,-181 87,-181 87,-175 93,-169 99,-169"/>
</g>
<g id="clust43" class="cluster">
<title>outer_cluster_String&#45;2</title>
</g>
<g id="clust44" class="cluster">
<title>cluster_String&#45;2</title>
<path fill="#fb8072" stroke="black" stroke-dasharray="5,2" d="M308,-90C308,-90 346,-90 346,-90 352,-90 358,-96 358,-102 358,-102 358,-120 358,-120 358,-126 352,-132 346,-132 346,-132 308,-132 308,-132 302,-132 296,-126 296,-120 296,-120 296,-102 296,-102 296,-96 302,-90 308,-90"/>
</g>
<g id="clust46" class="cluster">
<title>outer_cluster_String&#45;3</title>
</g>
<g id="clust47" class="cluster">
<title>cluster_String&#45;3</title>
<path fill="#fb8072" stroke="black" stroke-dasharray="5,2" d="M551,-90C551,-90 589,-90 589,-90 595,-90 601,-96 601,-102 601,-102 601,-120 601,-120 601,-126 595,-132 589,-132 589,-132 551,-132 551,-132 545,-132 539,-126 539,-120 539,-120 539,-102 539,-102 539,-96 545,-90 551,-90"/>
</g>
<g id="clust49" class="cluster">
<title>outer_cluster_i64&#45;4</title>
</g>
<g id="clust50" class="cluster">
<title>cluster_i64&#45;4</title>
<path fill="#80b1d3" stroke="black" stroke-dasharray="5,2" d="M425,-11C425,-11 461,-11 461,-11 467,-11 473,-17 473,-23 473,-23 473,-41 473,-41 473,-47 467,-53 461,-53 461,-53 425,-53 425,-53 419,-53 413,-47 413,-41 413,-41 413,-23 413,-23 413,-17 419,-11 425,-11"/>
</g>
<g id="clust52" class="cluster">
<title>outer_cluster_i64&#45;1</title>
</g>
<g id="clust53" class="cluster">
<title>cluster_i64&#45;1</title>
<path fill="#80b1d3" stroke="black" stroke-dasharray="5,2" d="M27,-169C27,-169 63,-169 63,-169 69,-169 75,-175 75,-181 75,-181 75,-199 75,-199 75,-205 69,-211 63,-211 63,-211 27,-211 27,-211 21,-211 15,-205 15,-199 15,-199 15,-181 15,-181 15,-175 21,-169 27,-169"/>
</g>
<!-- function&#45;0&#45;ImmVal&#45;&gt;primitive&#45;i64&#45;1 -->
<g id="edge1" class="edge">
<title>function&#45;0&#45;ImmVal:s&#45;&gt;primitive&#45;i64&#45;1</title>
<path fill="none" stroke="black" d="M45,-253C45,-239.84 45,-225.11 45,-213.3"/>
<polygon fill="black" stroke="black" points="46.75,-216 45,-211 43.25,-216 46.75,-216"/>
</g>
<!-- function&#45;0&#45;ImmLabel&#45;&gt;primitive&#45;String&#45;4 -->
<g id="edge2" class="edge">
<title>function&#45;0&#45;ImmLabel:s&#45;&gt;primitive&#45;String&#45;4</title>
<path fill="none" stroke="black" d="M234,-174C234,-160.84 234,-146.11 234,-134.3"/>
<polygon fill="black" stroke="black" points="235.75,-137 234,-132 232.25,-137 235.75,-137"/>
</g>
<!-- function&#45;1&#45;ImmVal&#45;&gt;primitive&#45;i64&#45;4 -->
<g id="edge3" class="edge">
<title>function&#45;1&#45;ImmVal:s&#45;&gt;primitive&#45;i64&#45;4</title>
<path fill="none" stroke="black" d="M443,-95C443,-81.84 443,-67.11 443,-55.3"/>
<polygon fill="black" stroke="black" points="444.75,-58 443,-53 441.25,-58 444.75,-58"/>
</g>
<!-- function&#45;0&#45;Beq&#45;&gt;function&#45;1&#45;ImmVal -->
<g id="edge6" class="edge">
<title>function&#45;0&#45;Beq:s&#45;&gt;function&#45;1&#45;ImmVal</title>
<path fill="none" stroke="black" d="M316,-253C316,-227.2 342.02,-233.43 359,-214 376.04,-194.51 375.73,-186.14 392,-166 401.16,-154.67 412.17,-142.82 421.61,-133.11"/>
<polygon fill="black" stroke="black" points="420.09,-136.23 423.28,-132 418.15,-133.32 420.09,-136.23"/>
</g>
<!-- function&#45;0&#45;Beq&#45;&gt;function&#45;1&#45;RegVal -->
<g id="edge4" class="edge">
<title>function&#45;0&#45;Beq:s&#45;&gt;function&#45;1&#45;RegVal</title>
<path fill="none" stroke="black" d="M293,-253C293,-238.36 300.26,-223.81 307.97,-212.5"/>
<polygon fill="black" stroke="black" points="307.54,-216.08 309.04,-211 304.7,-214.03 307.54,-216.08"/>
</g>
<!-- function&#45;0&#45;Beq&#45;&gt;function&#45;2&#45;RegVal -->
<g id="edge5" class="edge">
<title>function&#45;0&#45;Beq:s&#45;&gt;function&#45;2&#45;RegVal</title>
<path fill="none" stroke="black" d="M307,-253C307,-240.91 321.31,-248.08 333,-245 395.05,-228.66 411.48,-228.44 474,-214 494.4,-209.29 517.21,-203.77 535.36,-199.33"/>
<polygon fill="black" stroke="black" points="534.04,-202.5 537,-198.1 531.95,-199.69 534.04,-202.5"/>
</g>
<!-- function&#45;1&#45;RegVal&#45;&gt;primitive&#45;String&#45;2 -->
<g id="edge24" class="edge">
<title>function&#45;1&#45;RegVal:s&#45;&gt;primitive&#45;String&#45;2</title>
<path fill="none" stroke="black" d="M327,-174C327,-160.84 327,-146.11 327,-134.3"/>
<polygon fill="black" stroke="black" points="328.75,-137 327,-132 325.25,-137 328.75,-137"/>
</g>
<!-- function&#45;2&#45;RegVal&#45;&gt;primitive&#45;String&#45;3 -->
<g id="edge33" class="edge">
<title>function&#45;2&#45;RegVal:s&#45;&gt;primitive&#45;String&#45;3</title>
<path fill="none" stroke="black" d="M570,-174C570,-160.84 570,-146.11 570,-134.3"/>
<polygon fill="black" stroke="black" points="571.75,-137 570,-132 568.25,-137 571.75,-137"/>
</g>
<!-- function&#45;1&#45;Beq&#45;&gt;function&#45;1&#45;ImmVal -->
<g id="edge9" class="edge">
<title>function&#45;1&#45;Beq:s&#45;&gt;function&#45;1&#45;ImmVal</title>
<path fill="none" stroke="black" d="M374,-253C374,-247.73 409.63,-170.71 412,-166 417.48,-155.12 424.15,-143.35 429.89,-133.58"/>
<polygon fill="black" stroke="black" points="429.18,-136.78 431.46,-132 426.69,-134.32 429.18,-136.78"/>
</g>
<!-- function&#45;1&#45;Beq&#45;&gt;function&#45;1&#45;RegVal -->
<g id="edge8" class="edge">
<title>function&#45;1&#45;Beq:s&#45;&gt;function&#45;1&#45;RegVal</title>
<path fill="none" stroke="black" d="M365,-253C365,-237.82 356.52,-223.32 347.48,-212.17"/>
<polygon fill="black" stroke="black" points="351.05,-212.95 346.13,-211 348.76,-215.6 351.05,-212.95"/>
</g>
<!-- function&#45;1&#45;Beq&#45;&gt;function&#45;2&#45;RegVal -->
<g id="edge7" class="edge">
<title>function&#45;1&#45;Beq:s&#45;&gt;function&#45;2&#45;RegVal</title>
<path fill="none" stroke="black" d="M351,-253C351,-248.28 473.75,-215.73 535.03,-199.78"/>
<polygon fill="black" stroke="black" points="533.8,-202.69 537,-198.47 531.87,-199.78 533.8,-202.69"/>
</g>
<!-- function&#45;1&#45;Seq2&#45;&gt;function&#45;2&#45;Bne -->
<g id="edge10" class="edge">
<title>function&#45;1&#45;Seq2:s&#45;&gt;function&#45;2&#45;Bne</title>
<path fill="none" stroke="black" d="M407,-253C407,-205.81 466.96,-202.06 509,-223.5 518.53,-228.36 525.96,-237.41 531.33,-246.17"/>
<polygon fill="black" stroke="black" points="528.37,-245.62 533.1,-248 530.88,-243.19 528.37,-245.62"/>
</g>
<!-- function&#45;1&#45;Seq2&#45;&gt;function&#45;1&#45;Jal -->
<g id="edge11" class="edge">
<title>function&#45;1&#45;Seq2:s&#45;&gt;function&#45;1&#45;Jal</title>
<path fill="none" stroke="black" d="M429,-253C429,-239.48 432.21,-224.7 435.55,-212.97"/>
<polygon fill="black" stroke="black" points="435.45,-216.07 436.98,-211 432.62,-214.01 435.45,-216.07"/>
</g>
<!-- function&#45;2&#45;Bne&#45;&gt;function&#45;1&#45;ImmVal -->
<g id="edge14" class="edge">
<title>function&#45;2&#45;Bne:s&#45;&gt;function&#45;1&#45;ImmVal</title>
<path fill="none" stroke="black" d="M556,-253C556,-228.49 532.91,-232.65 517,-214 494.46,-187.59 471.42,-154.72 457.17,-133.55"/>
<polygon fill="black" stroke="black" points="460.25,-133.81 455.27,-132 458.04,-136.52 460.25,-133.81"/>
</g>
<!-- function&#45;2&#45;Bne&#45;&gt;function&#45;1&#45;RegVal -->
<g id="edge12" class="edge">
<title>function&#45;2&#45;Bne:s&#45;&gt;function&#45;1&#45;RegVal</title>
<path fill="none" stroke="black" d="M533,-253C533,-248.54 418.67,-216.46 359.94,-200.28"/>
<polygon fill="black" stroke="black" points="363.07,-200.4 358,-198.86 361,-203.23 363.07,-200.4"/>
</g>
<!-- function&#45;2&#45;Bne&#45;&gt;function&#45;2&#45;RegVal -->
<g id="edge13" class="edge">
<title>function&#45;2&#45;Bne:s&#45;&gt;function&#45;2&#45;RegVal</title>
<path fill="none" stroke="black" d="M547,-253C547,-239.11 551.97,-224.42 557.18,-212.83"/>
<polygon fill="black" stroke="black" points="557.07,-216.12 558.41,-211 554.17,-214.17 557.07,-216.12"/>
</g>
<!-- function&#45;1&#45;Jal&#45;&gt;function&#45;1&#45;ImmVal -->
<g id="edge20" class="edge">
<title>function&#45;1&#45;Jal:s&#45;&gt;function&#45;1&#45;ImmVal</title>
<path fill="none" stroke="black" d="M443,-174C443,-160.84 443,-146.11 443,-134.3"/>
<polygon fill="black" stroke="black" points="444.75,-137 443,-132 441.25,-137 444.75,-137"/>
</g>
<!-- function&#45;3&#45;Bne&#45;&gt;function&#45;1&#45;ImmVal -->
<g id="edge17" class="edge">
<title>function&#45;3&#45;Bne:s&#45;&gt;function&#45;1&#45;ImmVal</title>
<path fill="none" stroke="black" d="M614,-253C614,-214.24 565.42,-239.24 536,-214 516.16,-196.98 519.3,-185.6 502,-166 491.53,-154.13 478.68,-142.12 467.65,-132.46"/>
<polygon fill="black" stroke="black" points="471.95,-132.54 466.68,-132 470.47,-135.71 471.95,-132.54"/>
</g>
<!-- function&#45;3&#45;Bne&#45;&gt;function&#45;1&#45;RegVal -->
<g id="edge16" class="edge">
<title>function&#45;3&#45;Bne:s&#45;&gt;function&#45;1&#45;RegVal</title>
<path fill="none" stroke="black" d="M605,-253C605,-236.61 585.04,-248.37 569,-245 499.39,-230.4 481.28,-230.09 412,-214 394.69,-209.98 375.57,-204.93 359.77,-200.59"/>
<polygon fill="black" stroke="black" points="362.98,-200.95 358,-199.14 360.77,-203.66 362.98,-200.95"/>
</g>
<!-- function&#45;3&#45;Bne&#45;&gt;function&#45;2&#45;RegVal -->
<g id="edge15" class="edge">
<title>function&#45;3&#45;Bne:s&#45;&gt;function&#45;2&#45;RegVal</title>
<path fill="none" stroke="black" d="M591,-253C591,-239.11 586.03,-224.42 580.82,-212.83"/>
<polygon fill="black" stroke="black" points="583.83,-214.17 579.59,-211 580.93,-216.12 583.83,-214.17"/>
</g>
<!-- function&#45;2&#45;Seq2&#45;&gt;function&#45;1&#45;Seq2 -->
<g id="edge18" class="edge">
<title>function&#45;2&#45;Seq2:s&#45;&gt;function&#45;1&#45;Seq2</title>
<path fill="none" stroke="black" d="M473,-253C473,-241.59 461.78,-243.91 449.57,-249.8"/>
<polygon fill="black" stroke="black" points="450.71,-246.57 448,-251.12 452.96,-249.26 450.71,-246.57"/>
</g>
<!-- function&#45;2&#45;Seq2&#45;&gt;function&#45;1&#45;Jal -->
<g id="edge19" class="edge">
<title>function&#45;2&#45;Seq2:s&#45;&gt;function&#45;1&#45;Jal</title>
<path fill="none" stroke="black" d="M495,-253C495,-236.59 484.18,-222.25 472.4,-211.5"/>
<polygon fill="black" stroke="black" points="476.65,-211.66 471.39,-211 475.09,-214.8 476.65,-211.66"/>
</g>
<!-- function&#45;0&#45;Jal&#45;&gt;function&#45;0&#45;ImmLabel -->
<g id="edge21" class="edge">
<title>function&#45;0&#45;Jal:s&#45;&gt;function&#45;0&#45;ImmLabel</title>
<path fill="none" stroke="black" d="M194,-253C194,-237.82 202.48,-223.32 211.52,-212.17"/>
<polygon fill="black" stroke="black" points="210.24,-215.6 212.87,-211 207.95,-212.95 210.24,-215.6"/>
</g>
<!-- function&#45;0&#45;Addi&#45;&gt;function&#45;0&#45;ImmVal -->
<g id="edge23" class="edge">
<title>function&#45;0&#45;Addi:s&#45;&gt;function&#45;0&#45;ImmVal</title>
<path fill="none" stroke="black" d="M94,-332C94,-315.85 83.64,-301.45 72.45,-290.6"/>
<polygon fill="black" stroke="black" points="76.71,-291.55 71.64,-290 74.64,-294.37 76.71,-291.55"/>
</g>
<!-- function&#45;0&#45;Addi&#45;&gt;function&#45;0&#45;RegVal -->
<g id="edge22" class="edge">
<title>function&#45;0&#45;Addi:s&#45;&gt;function&#45;0&#45;RegVal</title>
<path fill="none" stroke="black" d="M74,-332C74,-316.48 83.21,-302.05 93.1,-291.02"/>
<polygon fill="black" stroke="black" points="91.42,-294.11 94.76,-290 89.58,-291.14 91.42,-294.11"/>
</g>
<!-- function&#45;0&#45;RegVal&#45;&gt;primitive&#45;String&#45;1 -->
<g id="edge34" class="edge">
<title>function&#45;0&#45;RegVal:s&#45;&gt;primitive&#45;String&#45;1</title>
<path fill="none" stroke="black" d="M118,-253C118,-239.84 118,-225.11 118,-213.3"/>
<polygon fill="black" stroke="black" points="119.75,-216 118,-211 116.25,-216 119.75,-216"/>
</g>
<!-- function&#45;0&#45;Bne&#45;&gt;function&#45;0&#45;ImmLabel -->
<g id="edge27" class="edge">
<title>function&#45;0&#45;Bne:s&#45;&gt;function&#45;0&#45;ImmLabel</title>
<path fill="none" stroke="black" d="M260,-332C260,-312.52 245.22,-311.77 240,-293 232.59,-266.36 231.61,-234.36 231.97,-213.4"/>
<polygon fill="black" stroke="black" points="233.59,-216.08 232.09,-211 230.1,-215.91 233.59,-216.08"/>
</g>
<!-- function&#45;0&#45;Bne&#45;&gt;function&#45;1&#45;RegVal -->
<g id="edge25" class="edge">
<title>function&#45;0&#45;Bne:s&#45;&gt;function&#45;1&#45;RegVal</title>
<path fill="none" stroke="black" d="M237,-332C237,-291.64 241.01,-278.84 263,-245 271.46,-231.98 283.96,-220.36 295.6,-211.26"/>
<polygon fill="black" stroke="black" points="292.3,-213.72 296.84,-211 291.59,-210.3 292.3,-213.72"/>
</g>
<!-- function&#45;0&#45;Bne&#45;&gt;function&#45;2&#45;RegVal -->
<g id="edge26" class="edge">
<title>function&#45;0&#45;Bne:s&#45;&gt;function&#45;2&#45;RegVal</title>
<path fill="none" stroke="black" d="M251,-332C251,-247.11 573.65,-355.59 631,-293 645.41,-277.27 639.84,-264.42 631,-245 624.79,-231.35 613.22,-219.8 601.75,-210.94"/>
<polygon fill="black" stroke="black" points="605.21,-213 601,-209.79 602.29,-214.93 605.21,-213"/>
</g>
<!-- function&#45;1&#45;Bne&#45;&gt;function&#45;0&#45;ImmLabel -->
<g id="edge30" class="edge">
<title>function&#45;1&#45;Bne:s&#45;&gt;function&#45;0&#45;ImmLabel</title>
<path fill="none" stroke="black" d="M318,-332C318,-304.86 286.71,-315.13 271,-293 253.58,-268.46 243.13,-234.99 237.72,-213.19"/>
<polygon fill="black" stroke="black" points="240.46,-214.53 236.51,-211 237.39,-216.22 240.46,-214.53"/>
</g>
<!-- function&#45;1&#45;Bne&#45;&gt;function&#45;1&#45;RegVal -->
<g id="edge29" class="edge">
<title>function&#45;1&#45;Bne:s&#45;&gt;function&#45;1&#45;RegVal</title>
<path fill="none" stroke="black" d="M309,-332C309,-307.8 280.12,-315.42 271,-293 262.96,-273.24 262.75,-264.67 271,-245 276.44,-232.04 286.68,-220.62 296.86,-211.66"/>
<polygon fill="black" stroke="black" points="294.62,-215.16 297.9,-211 292.74,-212.21 294.62,-215.16"/>
</g>
<!-- function&#45;1&#45;Bne&#45;&gt;function&#45;2&#45;RegVal -->
<g id="edge28" class="edge">
<title>function&#45;1&#45;Bne:s&#45;&gt;function&#45;2&#45;RegVal</title>
<path fill="none" stroke="black" d="M295,-332C295,-254.4 590.29,-350.85 642,-293 656.22,-277.09 651.6,-264.05 642,-245 633.58,-228.29 617.26,-215.46 602.19,-206.51"/>
<polygon fill="black" stroke="black" points="605.35,-207.89 601,-204.86 602.51,-209.94 605.35,-207.89"/>
</g>
<!-- function&#45;0&#45;Seq2&#45;&gt;function&#45;0&#45;Beq -->
<g id="edge31" class="edge">
<title>function&#45;0&#45;Seq2:s&#45;&gt;function&#45;0&#45;Beq</title>
<path fill="none" stroke="black" d="M177,-332C177,-311.25 232.97,-290.51 270.01,-279.05"/>
<polygon fill="black" stroke="black" points="269.04,-281.96 272,-277.57 266.95,-279.16 269.04,-281.96"/>
</g>
<!-- function&#45;0&#45;Seq2&#45;&gt;function&#45;0&#45;Jal -->
<g id="edge32" class="edge">
<title>function&#45;0&#45;Seq2:s&#45;&gt;function&#45;0&#45;Jal</title>
<path fill="none" stroke="black" d="M199,-332C199,-318.8 197.86,-304.06 196.67,-292.27"/>
<polygon fill="black" stroke="black" points="198.99,-294.45 196.12,-290 195.59,-295.27 198.99,-294.45"/>
</g>
<!-- function&#45;0&#45;ImmVal -->
<g id="node1" class="node">
<title>function&#45;0&#45;ImmVal</title>
<g id="a_node1"><a xlink:title="Imm&#45;3: function&#45;0&#45;ImmVal">
<path fill="white" stroke="transparent" d="M24.67,-253C24.67,-253 65.33,-253 65.33,-253 70.67,-253 76,-258.33 76,-263.67 76,-263.67 76,-274.33 76,-274.33 76,-279.67 70.67,-285 65.33,-285 65.33,-285 24.67,-285 24.67,-285 19.33,-285 14,-279.67 14,-274.33 14,-274.33 14,-263.67 14,-263.67 14,-258.33 19.33,-253 24.67,-253"/>
<text text-anchor="start" x="19" y="-265.3" font-family="Helvetica,sans-Serif" font-size="14.00">ImmVal</text>
<path fill="none" stroke="black" d="M24.67,-253C24.67,-253 65.33,-253 65.33,-253 70.67,-253 76,-258.33 76,-263.67 76,-263.67 76,-274.33 76,-274.33 76,-279.67 70.67,-285 65.33,-285 65.33,-285 24.67,-285 24.67,-285 19.33,-285 14,-279.67 14,-274.33 14,-274.33 14,-263.67 14,-263.67 14,-258.33 19.33,-253 24.67,-253"/>
</a>
</g>
</g>
<!-- primitive&#45;i64&#45;1 -->
<g id="node2" class="node">
<title>primitive&#45;i64&#45;1</title>
<g id="a_node2"><a xlink:title="i64&#45;1: primitive&#45;i64&#45;1">
<path fill="white" stroke="transparent" d="M39.67,-174C39.67,-174 50.33,-174 50.33,-174 55.67,-174 61,-179.33 61,-184.67 61,-184.67 61,-195.33 61,-195.33 61,-200.67 55.67,-206 50.33,-206 50.33,-206 39.67,-206 39.67,-206 34.33,-206 29,-200.67 29,-195.33 29,-195.33 29,-184.67 29,-184.67 29,-179.33 34.33,-174 39.67,-174"/>
<text text-anchor="start" x="40" y="-186.3" font-family="Helvetica,sans-Serif" font-size="14.00">1</text>
<path fill="none" stroke="black" d="M39.67,-174C39.67,-174 50.33,-174 50.33,-174 55.67,-174 61,-179.33 61,-184.67 61,-184.67 61,-195.33 61,-195.33 61,-200.67 55.67,-206 50.33,-206 50.33,-206 39.67,-206 39.67,-206 34.33,-206 29,-200.67 29,-195.33 29,-195.33 29,-184.67 29,-184.67 29,-179.33 34.33,-174 39.67,-174"/>
</a>
</g>
</g>
<!-- function&#45;0&#45;ImmLabel -->
<g id="node3" class="node">
<title>function&#45;0&#45;ImmLabel</title>
<g id="a_node3"><a xlink:title="Imm&#45;5: function&#45;0&#45;ImmLabel">
<path fill="white" stroke="transparent" d="M204.17,-174C204.17,-174 261.83,-174 261.83,-174 267.17,-174 272.5,-179.33 272.5,-184.67 272.5,-184.67 272.5,-195.33 272.5,-195.33 272.5,-200.67 267.17,-206 261.83,-206 261.83,-206 204.17,-206 204.17,-206 198.83,-206 193.5,-200.67 193.5,-195.33 193.5,-195.33 193.5,-184.67 193.5,-184.67 193.5,-179.33 198.83,-174 204.17,-174"/>
<text text-anchor="start" x="199" y="-186.3" font-family="Helvetica,sans-Serif" font-size="14.00">ImmLabel</text>
<path fill="none" stroke="black" d="M204.17,-174C204.17,-174 261.83,-174 261.83,-174 267.17,-174 272.5,-179.33 272.5,-184.67 272.5,-184.67 272.5,-195.33 272.5,-195.33 272.5,-200.67 267.17,-206 261.83,-206 261.83,-206 204.17,-206 204.17,-206 198.83,-206 193.5,-200.67 193.5,-195.33 193.5,-195.33 193.5,-184.67 193.5,-184.67 193.5,-179.33 198.83,-174 204.17,-174"/>
</a>
</g>
</g>
<!-- primitive&#45;String&#45;4 -->
<g id="node4" class="node">
<title>primitive&#45;String&#45;4</title>
<g id="a_node4"><a xlink:title="String&#45;4: primitive&#45;String&#45;4">
<path fill="white" stroke="transparent" d="M217.67,-95C217.67,-95 250.33,-95 250.33,-95 255.67,-95 261,-100.33 261,-105.67 261,-105.67 261,-116.33 261,-116.33 261,-121.67 255.67,-127 250.33,-127 250.33,-127 217.67,-127 217.67,-127 212.33,-127 207,-121.67 207,-116.33 207,-116.33 207,-105.67 207,-105.67 207,-100.33 212.33,-95 217.67,-95"/>
<text text-anchor="start" x="212" y="-107.3" font-family="Helvetica,sans-Serif" font-size="14.00">&quot;.L49&quot;</text>
<path fill="none" stroke="black" d="M217.67,-95C217.67,-95 250.33,-95 250.33,-95 255.67,-95 261,-100.33 261,-105.67 261,-105.67 261,-116.33 261,-116.33 261,-121.67 255.67,-127 250.33,-127 250.33,-127 217.67,-127 217.67,-127 212.33,-127 207,-121.67 207,-116.33 207,-116.33 207,-105.67 207,-105.67 207,-100.33 212.33,-95 217.67,-95"/>
</a>
</g>
</g>
<!-- function&#45;1&#45;ImmVal -->
<g id="node5" class="node">
<title>function&#45;1&#45;ImmVal</title>
<g id="a_node5"><a xlink:title="Imm&#45;7: function&#45;1&#45;ImmVal">
<path fill="white" stroke="transparent" d="M422.67,-95C422.67,-95 463.33,-95 463.33,-95 468.67,-95 474,-100.33 474,-105.67 474,-105.67 474,-116.33 474,-116.33 474,-121.67 468.67,-127 463.33,-127 463.33,-127 422.67,-127 422.67,-127 417.33,-127 412,-121.67 412,-116.33 412,-116.33 412,-105.67 412,-105.67 412,-100.33 417.33,-95 422.67,-95"/>
<text text-anchor="start" x="417" y="-107.3" font-family="Helvetica,sans-Serif" font-size="14.00">ImmVal</text>
<path fill="none" stroke="black" d="M422.67,-95C422.67,-95 463.33,-95 463.33,-95 468.67,-95 474,-100.33 474,-105.67 474,-105.67 474,-116.33 474,-116.33 474,-121.67 468.67,-127 463.33,-127 463.33,-127 422.67,-127 422.67,-127 417.33,-127 412,-121.67 412,-116.33 412,-116.33 412,-105.67 412,-105.67 412,-100.33 417.33,-95 422.67,-95"/>
</a>
</g>
</g>
<!-- primitive&#45;i64&#45;4 -->
<g id="node6" class="node">
<title>primitive&#45;i64&#45;4</title>
<g id="a_node6"><a xlink:title="i64&#45;4: primitive&#45;i64&#45;4">
<path fill="white" stroke="transparent" d="M437.67,-16C437.67,-16 448.33,-16 448.33,-16 453.67,-16 459,-21.33 459,-26.67 459,-26.67 459,-37.33 459,-37.33 459,-42.67 453.67,-48 448.33,-48 448.33,-48 437.67,-48 437.67,-48 432.33,-48 427,-42.67 427,-37.33 427,-37.33 427,-26.67 427,-26.67 427,-21.33 432.33,-16 437.67,-16"/>
<text text-anchor="start" x="438" y="-28.3" font-family="Helvetica,sans-Serif" font-size="14.00">4</text>
<path fill="none" stroke="black" d="M437.67,-16C437.67,-16 448.33,-16 448.33,-16 453.67,-16 459,-21.33 459,-26.67 459,-26.67 459,-37.33 459,-37.33 459,-42.67 453.67,-48 448.33,-48 448.33,-48 437.67,-48 437.67,-48 432.33,-48 427,-42.67 427,-37.33 427,-37.33 427,-26.67 427,-26.67 427,-21.33 432.33,-16 437.67,-16"/>
</a>
</g>
</g>
<!-- function&#45;0&#45;Beq -->
<g id="node7" class="node">
<title>function&#45;0&#45;Beq</title>
<g id="a_node7"><a xlink:title="Inst&#45;8: function&#45;0&#45;Beq">
<path fill="white" stroke="transparent" d="M293.67,-253C293.67,-253 310.33,-253 310.33,-253 315.67,-253 321,-258.33 321,-263.67 321,-263.67 321,-274.33 321,-274.33 321,-279.67 315.67,-285 310.33,-285 310.33,-285 293.67,-285 293.67,-285 288.33,-285 283,-279.67 283,-274.33 283,-274.33 283,-263.67 283,-263.67 283,-258.33 288.33,-253 293.67,-253"/>
<text text-anchor="start" x="288" y="-265.3" font-family="Helvetica,sans-Serif" font-size="14.00">Beq</text>
<path fill="none" stroke="black" d="M293.67,-253C293.67,-253 310.33,-253 310.33,-253 315.67,-253 321,-258.33 321,-263.67 321,-263.67 321,-274.33 321,-274.33 321,-279.67 315.67,-285 310.33,-285 310.33,-285 293.67,-285 293.67,-285 288.33,-285 283,-279.67 283,-274.33 283,-274.33 283,-263.67 283,-263.67 283,-258.33 288.33,-253 293.67,-253"/>
</a>
</g>
</g>
<!-- function&#45;1&#45;RegVal -->
<g id="node8" class="node">
<title>function&#45;1&#45;RegVal</title>
<g id="a_node8"><a xlink:title="Inst&#45;1: function&#45;1&#45;RegVal">
<path fill="white" stroke="transparent" d="M308.17,-174C308.17,-174 343.83,-174 343.83,-174 349.17,-174 354.5,-179.33 354.5,-184.67 354.5,-184.67 354.5,-195.33 354.5,-195.33 354.5,-200.67 349.17,-206 343.83,-206 343.83,-206 308.17,-206 308.17,-206 302.83,-206 297.5,-200.67 297.5,-195.33 297.5,-195.33 297.5,-184.67 297.5,-184.67 297.5,-179.33 302.83,-174 308.17,-174"/>
<text text-anchor="start" x="303" y="-186.3" font-family="Helvetica,sans-Serif" font-size="14.00">RegVal</text>
<path fill="none" stroke="black" d="M308.17,-174C308.17,-174 343.83,-174 343.83,-174 349.17,-174 354.5,-179.33 354.5,-184.67 354.5,-184.67 354.5,-195.33 354.5,-195.33 354.5,-200.67 349.17,-206 343.83,-206 343.83,-206 308.17,-206 308.17,-206 302.83,-206 297.5,-200.67 297.5,-195.33 297.5,-195.33 297.5,-184.67 297.5,-184.67 297.5,-179.33 302.83,-174 308.17,-174"/>
</a>
</g>
</g>
<!-- function&#45;2&#45;RegVal -->
<g id="node9" class="node">
<title>function&#45;2&#45;RegVal</title>
<g id="a_node9"><a xlink:title="Inst&#45;2: function&#45;2&#45;RegVal">
<path fill="white" stroke="transparent" d="M551.17,-174C551.17,-174 586.83,-174 586.83,-174 592.17,-174 597.5,-179.33 597.5,-184.67 597.5,-184.67 597.5,-195.33 597.5,-195.33 597.5,-200.67 592.17,-206 586.83,-206 586.83,-206 551.17,-206 551.17,-206 545.83,-206 540.5,-200.67 540.5,-195.33 540.5,-195.33 540.5,-184.67 540.5,-184.67 540.5,-179.33 545.83,-174 551.17,-174"/>
<text text-anchor="start" x="546" y="-186.3" font-family="Helvetica,sans-Serif" font-size="14.00">RegVal</text>
<path fill="none" stroke="black" d="M551.17,-174C551.17,-174 586.83,-174 586.83,-174 592.17,-174 597.5,-179.33 597.5,-184.67 597.5,-184.67 597.5,-195.33 597.5,-195.33 597.5,-200.67 592.17,-206 586.83,-206 586.83,-206 551.17,-206 551.17,-206 545.83,-206 540.5,-200.67 540.5,-195.33 540.5,-195.33 540.5,-184.67 540.5,-184.67 540.5,-179.33 545.83,-174 551.17,-174"/>
</a>
</g>
</g>
<!-- function&#45;1&#45;Beq -->
<g id="node10" class="node">
<title>function&#45;1&#45;Beq</title>
<g id="a_node10"><a xlink:title="Inst&#45;8: function&#45;1&#45;Beq">
<path fill="white" stroke="transparent" d="M351.67,-253C351.67,-253 368.33,-253 368.33,-253 373.67,-253 379,-258.33 379,-263.67 379,-263.67 379,-274.33 379,-274.33 379,-279.67 373.67,-285 368.33,-285 368.33,-285 351.67,-285 351.67,-285 346.33,-285 341,-279.67 341,-274.33 341,-274.33 341,-263.67 341,-263.67 341,-258.33 346.33,-253 351.67,-253"/>
<text text-anchor="start" x="346" y="-265.3" font-family="Helvetica,sans-Serif" font-size="14.00">Beq</text>
<path fill="none" stroke="black" d="M351.67,-253C351.67,-253 368.33,-253 368.33,-253 373.67,-253 379,-258.33 379,-263.67 379,-263.67 379,-274.33 379,-274.33 379,-279.67 373.67,-285 368.33,-285 368.33,-285 351.67,-285 351.67,-285 346.33,-285 341,-279.67 341,-274.33 341,-274.33 341,-263.67 341,-263.67 341,-258.33 346.33,-253 351.67,-253"/>
</a>
</g>
</g>
<!-- function&#45;1&#45;Seq2 -->
<g id="node11" class="node">
<title>function&#45;1&#45;Seq2</title>
<g id="a_node11"><a xlink:title="Inst&#45;8: function&#45;1&#45;Seq2">
<path fill="white" stroke="transparent" d="M405.67,-253C405.67,-253 430.33,-253 430.33,-253 435.67,-253 441,-258.33 441,-263.67 441,-263.67 441,-274.33 441,-274.33 441,-279.67 435.67,-285 430.33,-285 430.33,-285 405.67,-285 405.67,-285 400.33,-285 395,-279.67 395,-274.33 395,-274.33 395,-263.67 395,-263.67 395,-258.33 400.33,-253 405.67,-253"/>
<text text-anchor="start" x="400" y="-265.3" font-family="Helvetica,sans-Serif" font-size="14.00">Seq2</text>
<path fill="none" stroke="black" d="M405.67,-253C405.67,-253 430.33,-253 430.33,-253 435.67,-253 441,-258.33 441,-263.67 441,-263.67 441,-274.33 441,-274.33 441,-279.67 435.67,-285 430.33,-285 430.33,-285 405.67,-285 405.67,-285 400.33,-285 395,-279.67 395,-274.33 395,-274.33 395,-263.67 395,-263.67 395,-258.33 400.33,-253 405.67,-253"/>
</a>
</g>
</g>
<!-- function&#45;2&#45;Bne -->
<g id="node12" class="node">
<title>function&#45;2&#45;Bne</title>
<g id="a_node12"><a xlink:title="Inst&#45;10: function&#45;2&#45;Bne">
<path fill="white" stroke="transparent" d="M533.67,-253C533.67,-253 550.33,-253 550.33,-253 555.67,-253 561,-258.33 561,-263.67 561,-263.67 561,-274.33 561,-274.33 561,-279.67 555.67,-285 550.33,-285 550.33,-285 533.67,-285 533.67,-285 528.33,-285 523,-279.67 523,-274.33 523,-274.33 523,-263.67 523,-263.67 523,-258.33 528.33,-253 533.67,-253"/>
<text text-anchor="start" x="528" y="-265.3" font-family="Helvetica,sans-Serif" font-size="14.00">Bne</text>
<path fill="none" stroke="black" d="M533.67,-253C533.67,-253 550.33,-253 550.33,-253 555.67,-253 561,-258.33 561,-263.67 561,-263.67 561,-274.33 561,-274.33 561,-279.67 555.67,-285 550.33,-285 550.33,-285 533.67,-285 533.67,-285 528.33,-285 523,-279.67 523,-274.33 523,-274.33 523,-263.67 523,-263.67 523,-258.33 528.33,-253 533.67,-253"/>
</a>
</g>
</g>
<!-- function&#45;1&#45;Jal -->
<g id="node13" class="node">
<title>function&#45;1&#45;Jal</title>
<g id="a_node13"><a xlink:title="Inst&#45;11: function&#45;1&#45;Jal">
<path fill="white" stroke="transparent" d="M437.67,-174C437.67,-174 448.33,-174 448.33,-174 453.67,-174 459,-179.33 459,-184.67 459,-184.67 459,-195.33 459,-195.33 459,-200.67 453.67,-206 448.33,-206 448.33,-206 437.67,-206 437.67,-206 432.33,-206 427,-200.67 427,-195.33 427,-195.33 427,-184.67 427,-184.67 427,-179.33 432.33,-174 437.67,-174"/>
<text text-anchor="start" x="434.5" y="-186.3" font-family="Helvetica,sans-Serif" font-size="14.00">Jal</text>
<path fill="none" stroke="black" d="M437.67,-174C437.67,-174 448.33,-174 448.33,-174 453.67,-174 459,-179.33 459,-184.67 459,-184.67 459,-195.33 459,-195.33 459,-200.67 453.67,-206 448.33,-206 448.33,-206 437.67,-206 437.67,-206 432.33,-206 427,-200.67 427,-195.33 427,-195.33 427,-184.67 427,-184.67 427,-179.33 432.33,-174 437.67,-174"/>
</a>
</g>
</g>
<!-- function&#45;3&#45;Bne -->
<g id="node14" class="node">
<title>function&#45;3&#45;Bne</title>
<g id="a_node14"><a xlink:title="Inst&#45;10: function&#45;3&#45;Bne">
<path fill="white" stroke="transparent" d="M591.67,-253C591.67,-253 608.33,-253 608.33,-253 613.67,-253 619,-258.33 619,-263.67 619,-263.67 619,-274.33 619,-274.33 619,-279.67 613.67,-285 608.33,-285 608.33,-285 591.67,-285 591.67,-285 586.33,-285 581,-279.67 581,-274.33 581,-274.33 581,-263.67 581,-263.67 581,-258.33 586.33,-253 591.67,-253"/>
<text text-anchor="start" x="586" y="-265.3" font-family="Helvetica,sans-Serif" font-size="14.00">Bne</text>
<path fill="none" stroke="black" d="M591.67,-253C591.67,-253 608.33,-253 608.33,-253 613.67,-253 619,-258.33 619,-263.67 619,-263.67 619,-274.33 619,-274.33 619,-279.67 613.67,-285 608.33,-285 608.33,-285 591.67,-285 591.67,-285 586.33,-285 581,-279.67 581,-274.33 581,-274.33 581,-263.67 581,-263.67 581,-258.33 586.33,-253 591.67,-253"/>
</a>
</g>
</g>
<!-- function&#45;2&#45;Seq2 -->
<g id="node15" class="node">
<title>function&#45;2&#45;Seq2</title>
<g id="a_node15"><a xlink:title="Inst&#45;10: function&#45;2&#45;Seq2">
<path fill="white" stroke="transparent" d="M471.67,-253C471.67,-253 496.33,-253 496.33,-253 501.67,-253 507,-258.33 507,-263.67 507,-263.67 507,-274.33 507,-274.33 507,-279.67 501.67,-285 496.33,-285 496.33,-285 471.67,-285 471.67,-285 466.33,-285 461,-279.67 461,-274.33 461,-274.33 461,-263.67 461,-263.67 461,-258.33 466.33,-253 471.67,-253"/>
<text text-anchor="start" x="466" y="-265.3" font-family="Helvetica,sans-Serif" font-size="14.00">Seq2</text>
<path fill="none" stroke="black" d="M471.67,-253C471.67,-253 496.33,-253 496.33,-253 501.67,-253 507,-258.33 507,-263.67 507,-263.67 507,-274.33 507,-274.33 507,-279.67 501.67,-285 496.33,-285 496.33,-285 471.67,-285 471.67,-285 466.33,-285 461,-279.67 461,-274.33 461,-274.33 461,-263.67 461,-263.67 461,-258.33 466.33,-253 471.67,-253"/>
</a>
</g>
</g>
<!-- function&#45;0&#45;Jal -->
<g id="node16" class="node">
<title>function&#45;0&#45;Jal</title>
<g id="a_node16"><a xlink:title="Inst&#45;9: function&#45;0&#45;Jal">
<path fill="white" stroke="transparent" d="M188.67,-253C188.67,-253 199.33,-253 199.33,-253 204.67,-253 210,-258.33 210,-263.67 210,-263.67 210,-274.33 210,-274.33 210,-279.67 204.67,-285 199.33,-285 199.33,-285 188.67,-285 188.67,-285 183.33,-285 178,-279.67 178,-274.33 178,-274.33 178,-263.67 178,-263.67 178,-258.33 183.33,-253 188.67,-253"/>
<text text-anchor="start" x="185.5" y="-265.3" font-family="Helvetica,sans-Serif" font-size="14.00">Jal</text>
<path fill="none" stroke="black" d="M188.67,-253C188.67,-253 199.33,-253 199.33,-253 204.67,-253 210,-258.33 210,-263.67 210,-263.67 210,-274.33 210,-274.33 210,-279.67 204.67,-285 199.33,-285 199.33,-285 188.67,-285 188.67,-285 183.33,-285 178,-279.67 178,-274.33 178,-274.33 178,-263.67 178,-263.67 178,-258.33 183.33,-253 188.67,-253"/>
</a>
</g>
</g>
<!-- function&#45;0&#45;Addi -->
<g id="node17" class="node">
<title>function&#45;0&#45;Addi</title>
<g id="a_node17"><a xlink:title="Inst&#45;4: function&#45;0&#45;Addi">
<path fill="white" stroke="transparent" d="M74.17,-332C74.17,-332 93.83,-332 93.83,-332 99.17,-332 104.5,-337.33 104.5,-342.67 104.5,-342.67 104.5,-353.33 104.5,-353.33 104.5,-358.67 99.17,-364 93.83,-364 93.83,-364 74.17,-364 74.17,-364 68.83,-364 63.5,-358.67 63.5,-353.33 63.5,-353.33 63.5,-342.67 63.5,-342.67 63.5,-337.33 68.83,-332 74.17,-332"/>
<text text-anchor="start" x="69" y="-344.3" font-family="Helvetica,sans-Serif" font-size="14.00">Addi</text>
<path fill="none" stroke="black" d="M74.17,-332C74.17,-332 93.83,-332 93.83,-332 99.17,-332 104.5,-337.33 104.5,-342.67 104.5,-342.67 104.5,-353.33 104.5,-353.33 104.5,-358.67 99.17,-364 93.83,-364 93.83,-364 74.17,-364 74.17,-364 68.83,-364 63.5,-358.67 63.5,-353.33 63.5,-353.33 63.5,-342.67 63.5,-342.67 63.5,-337.33 68.83,-332 74.17,-332"/>
</a>
</g>
</g>
<!-- function&#45;0&#45;RegVal -->
<g id="node18" class="node">
<title>function&#45;0&#45;RegVal</title>
<g id="a_node18"><a xlink:title="Inst&#45;0: function&#45;0&#45;RegVal">
<path fill="white" stroke="transparent" d="M99.17,-253C99.17,-253 134.83,-253 134.83,-253 140.17,-253 145.5,-258.33 145.5,-263.67 145.5,-263.67 145.5,-274.33 145.5,-274.33 145.5,-279.67 140.17,-285 134.83,-285 134.83,-285 99.17,-285 99.17,-285 93.83,-285 88.5,-279.67 88.5,-274.33 88.5,-274.33 88.5,-263.67 88.5,-263.67 88.5,-258.33 93.83,-253 99.17,-253"/>
<text text-anchor="start" x="94" y="-265.3" font-family="Helvetica,sans-Serif" font-size="14.00">RegVal</text>
<path fill="none" stroke="black" d="M99.17,-253C99.17,-253 134.83,-253 134.83,-253 140.17,-253 145.5,-258.33 145.5,-263.67 145.5,-263.67 145.5,-274.33 145.5,-274.33 145.5,-279.67 140.17,-285 134.83,-285 134.83,-285 99.17,-285 99.17,-285 93.83,-285 88.5,-279.67 88.5,-274.33 88.5,-274.33 88.5,-263.67 88.5,-263.67 88.5,-258.33 93.83,-253 99.17,-253"/>
</a>
</g>
</g>
<!-- primitive&#45;String&#45;2 -->
<g id="node19" class="node">
<title>primitive&#45;String&#45;2</title>
<g id="a_node19"><a xlink:title="String&#45;2: primitive&#45;String&#45;2">
<path fill="white" stroke="transparent" d="M309.67,-95C309.67,-95 344.33,-95 344.33,-95 349.67,-95 355,-100.33 355,-105.67 355,-105.67 355,-116.33 355,-116.33 355,-121.67 349.67,-127 344.33,-127 344.33,-127 309.67,-127 309.67,-127 304.33,-127 299,-121.67 299,-116.33 299,-116.33 299,-105.67 299,-105.67 299,-100.33 304.33,-95 309.67,-95"/>
<text text-anchor="start" x="304" y="-107.3" font-family="Helvetica,sans-Serif" font-size="14.00">&quot;s1_0&quot;</text>
<path fill="none" stroke="black" d="M309.67,-95C309.67,-95 344.33,-95 344.33,-95 349.67,-95 355,-100.33 355,-105.67 355,-105.67 355,-116.33 355,-116.33 355,-121.67 349.67,-127 344.33,-127 344.33,-127 309.67,-127 309.67,-127 304.33,-127 299,-121.67 299,-116.33 299,-116.33 299,-105.67 299,-105.67 299,-100.33 304.33,-95 309.67,-95"/>
</a>
</g>
</g>
<!-- function&#45;0&#45;Bne -->
<g id="node20" class="node">
<title>function&#45;0&#45;Bne</title>
<g id="a_node20"><a xlink:title="Inst&#45;6: function&#45;0&#45;Bne">
<path fill="white" stroke="transparent" d="M237.67,-332C237.67,-332 254.33,-332 254.33,-332 259.67,-332 265,-337.33 265,-342.67 265,-342.67 265,-353.33 265,-353.33 265,-358.67 259.67,-364 254.33,-364 254.33,-364 237.67,-364 237.67,-364 232.33,-364 227,-358.67 227,-353.33 227,-353.33 227,-342.67 227,-342.67 227,-337.33 232.33,-332 237.67,-332"/>
<text text-anchor="start" x="232" y="-344.3" font-family="Helvetica,sans-Serif" font-size="14.00">Bne</text>
<path fill="none" stroke="black" d="M237.67,-332C237.67,-332 254.33,-332 254.33,-332 259.67,-332 265,-337.33 265,-342.67 265,-342.67 265,-353.33 265,-353.33 265,-358.67 259.67,-364 254.33,-364 254.33,-364 237.67,-364 237.67,-364 232.33,-364 227,-358.67 227,-353.33 227,-353.33 227,-342.67 227,-342.67 227,-337.33 232.33,-332 237.67,-332"/>
</a>
</g>
</g>
<!-- function&#45;1&#45;Bne -->
<g id="node21" class="node">
<title>function&#45;1&#45;Bne</title>
<g id="a_node21"><a xlink:title="Inst&#45;6: function&#45;1&#45;Bne">
<path fill="white" stroke="transparent" d="M295.67,-332C295.67,-332 312.33,-332 312.33,-332 317.67,-332 323,-337.33 323,-342.67 323,-342.67 323,-353.33 323,-353.33 323,-358.67 317.67,-364 312.33,-364 312.33,-364 295.67,-364 295.67,-364 290.33,-364 285,-358.67 285,-353.33 285,-353.33 285,-342.67 285,-342.67 285,-337.33 290.33,-332 295.67,-332"/>
<text text-anchor="start" x="290" y="-344.3" font-family="Helvetica,sans-Serif" font-size="14.00">Bne</text>
<path fill="none" stroke="black" d="M295.67,-332C295.67,-332 312.33,-332 312.33,-332 317.67,-332 323,-337.33 323,-342.67 323,-342.67 323,-353.33 323,-353.33 323,-358.67 317.67,-364 312.33,-364 312.33,-364 295.67,-364 295.67,-364 290.33,-364 285,-358.67 285,-353.33 285,-353.33 285,-342.67 285,-342.67 285,-337.33 290.33,-332 295.67,-332"/>
</a>
</g>
</g>
<!-- function&#45;0&#45;Seq2 -->
<g id="node22" class="node">
<title>function&#45;0&#45;Seq2</title>
<g id="a_node22"><a xlink:title="Inst&#45;6: function&#45;0&#45;Seq2">
<path fill="white" stroke="transparent" d="M175.67,-332C175.67,-332 200.33,-332 200.33,-332 205.67,-332 211,-337.33 211,-342.67 211,-342.67 211,-353.33 211,-353.33 211,-358.67 205.67,-364 200.33,-364 200.33,-364 175.67,-364 175.67,-364 170.33,-364 165,-358.67 165,-353.33 165,-353.33 165,-342.67 165,-342.67 165,-337.33 170.33,-332 175.67,-332"/>
<text text-anchor="start" x="170" y="-344.3" font-family="Helvetica,sans-Serif" font-size="14.00">Seq2</text>
<path fill="none" stroke="black" d="M175.67,-332C175.67,-332 200.33,-332 200.33,-332 205.67,-332 211,-337.33 211,-342.67 211,-342.67 211,-353.33 211,-353.33 211,-358.67 205.67,-364 200.33,-364 200.33,-364 175.67,-364 175.67,-364 170.33,-364 165,-358.67 165,-353.33 165,-353.33 165,-342.67 165,-342.67 165,-337.33 170.33,-332 175.67,-332"/>
</a>
</g>
</g>
<!-- primitive&#45;String&#45;3 -->
<g id="node23" class="node">
<title>primitive&#45;String&#45;3</title>
<g id="a_node23"><a xlink:title="String&#45;3: primitive&#45;String&#45;3">
<path fill="white" stroke="transparent" d="M552.67,-95C552.67,-95 587.33,-95 587.33,-95 592.67,-95 598,-100.33 598,-105.67 598,-105.67 598,-116.33 598,-116.33 598,-121.67 592.67,-127 587.33,-127 587.33,-127 552.67,-127 552.67,-127 547.33,-127 542,-121.67 542,-116.33 542,-116.33 542,-105.67 542,-105.67 542,-100.33 547.33,-95 552.67,-95"/>
<text text-anchor="start" x="547" y="-107.3" font-family="Helvetica,sans-Serif" font-size="14.00">&quot;s3_0&quot;</text>
<path fill="none" stroke="black" d="M552.67,-95C552.67,-95 587.33,-95 587.33,-95 592.67,-95 598,-100.33 598,-105.67 598,-105.67 598,-116.33 598,-116.33 598,-121.67 592.67,-127 587.33,-127 587.33,-127 552.67,-127 552.67,-127 547.33,-127 542,-121.67 542,-116.33 542,-116.33 542,-105.67 542,-105.67 542,-100.33 547.33,-95 552.67,-95"/>
</a>
</g>
</g>
<!-- primitive&#45;String&#45;1 -->
<g id="node24" class="node">
<title>primitive&#45;String&#45;1</title>
<g id="a_node24"><a xlink:title="String&#45;1: primitive&#45;String&#45;1">
<path fill="white" stroke="transparent" d="M100.67,-174C100.67,-174 135.33,-174 135.33,-174 140.67,-174 146,-179.33 146,-184.67 146,-184.67 146,-195.33 146,-195.33 146,-200.67 140.67,-206 135.33,-206 135.33,-206 100.67,-206 100.67,-206 95.33,-206 90,-200.67 90,-195.33 90,-195.33 90,-184.67 90,-184.67 90,-179.33 95.33,-174 100.67,-174"/>
<text text-anchor="start" x="95" y="-186.3" font-family="Helvetica,sans-Serif" font-size="14.00">&quot;s0_0&quot;</text>
<path fill="none" stroke="black" d="M100.67,-174C100.67,-174 135.33,-174 135.33,-174 140.67,-174 146,-179.33 146,-184.67 146,-184.67 146,-195.33 146,-195.33 146,-200.67 140.67,-206 135.33,-206 135.33,-206 100.67,-206 100.67,-206 95.33,-206 90,-200.67 90,-195.33 90,-195.33 90,-184.67 90,-184.67 90,-179.33 95.33,-174 100.67,-174"/>
</a>
</g>
</g>
</g>
</svg>
