<?xml version="1.0" encoding="UTF-8" standalone="no"?>
<!DOCTYPE svg PUBLIC "-//W3C//DTD SVG 1.1//EN"
 "http://www.w3.org/Graphics/SVG/1.1/DTD/svg11.dtd">
<!-- Generated by graphviz version 2.43.0 (0)
 -->
<!-- Title: %3 Pages: 1 -->
<svg width="707pt" height="388pt"
 viewBox="0.00 0.00 707.25 388.00" xmlns="http://www.w3.org/2000/svg" xmlns:xlink="http://www.w3.org/1999/xlink">
<g id="graph0" class="graph" transform="scale(1 1) rotate(0) translate(4 384)">
<title>%3</title>
<polygon fill="white" stroke="#000000" points="-4,4 -4,-384 703.25,-384 703.25,4 -4,4"/>
<g id="clust1" class="cluster">
<title>outer_cluster_Imm&#45;3</title>
</g>
<g id="clust2" class="cluster">
<title>cluster_Imm&#45;3</title>
<path fill="#ffffb3" stroke="black" stroke-dasharray="5,2" d="M23,-248C23,-248 67,-248 67,-248 73,-248 79,-254 79,-260 79,-260 79,-278 79,-278 79,-284 73,-290 67,-290 67,-290 23,-290 23,-290 17,-290 11,-284 11,-278 11,-278 11,-260 11,-260 11,-254 17,-248 23,-248"/>
</g>
<g id="clust4" class="cluster">
<title>outer_cluster_Imm&#45;5</title>
</g>
<g id="clust5" class="cluster">
<title>cluster_Imm&#45;5</title>
<path fill="#ffffb3" stroke="black" stroke-dasharray="5,2" d="M193,-169C193,-169 253,-169 253,-169 259,-169 265,-175 265,-181 265,-181 265,-199 265,-199 265,-205 259,-211 253,-211 253,-211 193,-211 193,-211 187,-211 181,-205 181,-199 181,-199 181,-181 181,-181 181,-175 187,-169 193,-169"/>
</g>
<g id="clust7" class="cluster">
<title>outer_cluster_Imm&#45;7</title>
</g>
<g id="clust8" class="cluster">
<title>cluster_Imm&#45;7</title>
<path fill="#ffffb3" stroke="black" stroke-dasharray="5,2" d="M469,-90C469,-90 513,-90 513,-90 519,-90 525,-96 525,-102 525,-102 525,-120 525,-120 525,-126 519,-132 513,-132 513,-132 469,-132 469,-132 463,-132 457,-126 457,-120 457,-120 457,-102 457,-102 457,-96 463,-90 469,-90"/>
</g>
<g id="clust10" class="cluster">
<title>outer_cluster_Inst&#45;10</title>
</g>
<g id="clust11" class="cluster">
<title>cluster_Inst&#45;10</title>
<path fill="#bebada" stroke="black" stroke-dasharray="5,2" d="M332,-248C332,-248 484,-248 484,-248 490,-248 496,-254 496,-260 496,-260 496,-278 496,-278 496,-284 490,-290 484,-290 484,-290 332,-290 332,-290 326,-290 320,-284 320,-278 320,-278 320,-260 320,-260 320,-254 326,-248 332,-248"/>
</g>
<g id="clust13" class="cluster">
<title>outer_cluster_Inst&#45;6</title>
</g>
<g id="clust14" class="cluster">
<title>cluster_Inst&#45;6</title>
<path fill="#bebada" stroke="black" stroke-dasharray="5,2" d="M194,-327C194,-327 346,-327 346,-327 352,-327 358,-333 358,-339 358,-339 358,-357 358,-357 358,-363 352,-369 346,-369 346,-369 194,-369 194,-369 188,-369 182,-363 182,-357 182,-357 182,-339 182,-339 182,-333 188,-327 194,-327"/>
</g>
<g id="clust16" class="cluster">
<title>outer_cluster_Inst&#45;2</title>
</g>
<g id="clust17" class="cluster">
<title>cluster_Inst&#45;2</title>
<path fill="#bebada" stroke="black" stroke-dasharray="5,2" d="M597,-169C597,-169 637,-169 637,-169 643,-169 649,-175 649,-181 649,-181 649,-199 649,-199 649,-205 643,-211 637,-211 637,-211 597,-211 597,-211 591,-211 585,-205 585,-199 585,-199 585,-181 585,-181 585,-175 591,-169 597,-169"/>
</g>
<g id="clust19" class="cluster">
<title>outer_cluster_Inst&#45;9</title>
</g>
<g id="clust20" class="cluster">
<title>cluster_Inst&#45;9</title>
<path fill="#bebada" stroke="black" stroke-dasharray="5,2" d="M244,-248C244,-248 280,-248 280,-248 286,-248 292,-254 292,-260 292,-260 292,-278 292,-278 292,-284 286,-290 280,-290 280,-290 244,-290 244,-290 238,-290 232,-284 232,-278 232,-278 232,-260 232,-260 232,-254 238,-248 244,-248"/>
</g>
<g id="clust22" class="cluster">
<title>outer_cluster_Inst&#45;4</title>
</g>
<g id="clust23" class="cluster">
<title>cluster_Inst&#45;4</title>
<path fill="#bebada" stroke="black" stroke-dasharray="5,2" d="M95,-327C95,-327 131,-327 131,-327 137,-327 143,-333 143,-339 143,-339 143,-357 143,-357 143,-363 137,-369 131,-369 131,-369 95,-369 95,-369 89,-369 83,-363 83,-357 83,-357 83,-339 83,-339 83,-333 89,-327 95,-327"/>
</g>
<g id="clust25" class="cluster">
<title>outer_cluster_Inst&#45;8</title>
</g>
<g id="clust26" class="cluster">
<title>cluster_Inst&#45;8</title>
<path fill="#bebada" stroke="black" stroke-dasharray="5,2" d="M514,-248C514,-248 666,-248 666,-248 672,-248 678,-254 678,-260 678,-260 678,-278 678,-278 678,-284 672,-290 666,-290 666,-290 514,-290 514,-290 508,-290 502,-284 502,-278 502,-278 502,-260 502,-260 502,-254 508,-248 514,-248"/>
</g>
<g id="clust28" class="cluster">
<title>outer_cluster_Inst&#45;0</title>
</g>
<g id="clust29" class="cluster">
<title>cluster_Inst&#45;0</title>
<path fill="#bebada" stroke="black" stroke-dasharray="5,2" d="M97,-248C97,-248 137,-248 137,-248 143,-248 149,-254 149,-260 149,-260 149,-278 149,-278 149,-284 143,-290 137,-290 137,-290 97,-290 97,-290 91,-290 85,-284 85,-278 85,-278 85,-260 85,-260 85,-254 91,-248 97,-248"/>
</g>
<g id="clust31" class="cluster">
<title>outer_cluster_Inst&#45;1</title>
</g>
<g id="clust32" class="cluster">
<title>cluster_Inst&#45;1</title>
<path fill="#bebada" stroke="black" stroke-dasharray="5,2" d="M328,-169C328,-169 368,-169 368,-169 374,-169 380,-175 380,-181 380,-181 380,-199 380,-199 380,-205 374,-211 368,-211 368,-211 328,-211 328,-211 322,-211 316,-205 316,-199 316,-199 316,-181 316,-181 316,-175 322,-169 328,-169"/>
</g>
<g id="clust34" class="cluster">
<title>outer_cluster_Inst&#45;11</title>
</g>
<g id="clust35" class="cluster">
<title>cluster_Inst&#45;11</title>
<path fill="#bebada" stroke="black" stroke-dasharray="5,2" d="M473,-169C473,-169 509,-169 509,-169 515,-169 521,-175 521,-181 521,-181 521,-199 521,-199 521,-205 515,-211 509,-211 509,-211 473,-211 473,-211 467,-211 461,-205 461,-199 461,-199 461,-181 461,-181 461,-175 467,-169 473,-169"/>
</g>
<g id="clust37" class="cluster">
<title>outer_cluster_String&#45;2</title>
</g>
<g id="clust38" class="cluster">
<title>cluster_String&#45;2</title>
<path fill="#fb8072" stroke="black" stroke-dasharray="5,2" d="M330,-90C330,-90 368,-90 368,-90 374,-90 380,-96 380,-102 380,-102 380,-120 380,-120 380,-126 374,-132 368,-132 368,-132 330,-132 330,-132 324,-132 318,-126 318,-120 318,-120 318,-102 318,-102 318,-96 324,-90 330,-90"/>
</g>
<g id="clust40" class="cluster">
<title>outer_cluster_String&#45;4</title>
</g>
<g id="clust41" class="cluster">
<title>cluster_String&#45;4</title>
<path fill="#fb8072" stroke="black" stroke-dasharray="5,2" d="M206,-90C206,-90 242,-90 242,-90 248,-90 254,-96 254,-102 254,-102 254,-120 254,-120 254,-126 248,-132 242,-132 242,-132 206,-132 206,-132 200,-132 194,-126 194,-120 194,-120 194,-102 194,-102 194,-96 200,-90 206,-90"/>
</g>
<g id="clust43" class="cluster">
<title>outer_cluster_String&#45;3</title>
</g>
<g id="clust44" class="cluster">
<title>cluster_String&#45;3</title>
<path fill="#fb8072" stroke="black" stroke-dasharray="5,2" d="M599,-90C599,-90 637,-90 637,-90 643,-90 649,-96 649,-102 649,-102 649,-120 649,-120 649,-126 643,-132 637,-132 637,-132 599,-132 599,-132 593,-132 587,-126 587,-120 587,-120 587,-102 587,-102 587,-96 593,-90 599,-90"/>
</g>
<g id="clust46" class="cluster">
<title>outer_cluster_String&#45;1</title>
</g>
<g id="clust47" class="cluster">
<title>cluster_String&#45;1</title>
<path fill="#fb8072" stroke="black" stroke-dasharray="5,2" d="M99,-169C99,-169 137,-169 137,-169 143,-169 149,-175 149,-181 149,-181 149,-199 149,-199 149,-205 143,-211 137,-211 137,-211 99,-211 99,-211 93,-211 87,-205 87,-199 87,-199 87,-181 87,-181 87,-175 93,-169 99,-169"/>
</g>
<g id="clust49" class="cluster">
<title>outer_cluster_i64&#45;4</title>
</g>
<g id="clust50" class="cluster">
<title>cluster_i64&#45;4</title>
<path fill="#80b1d3" stroke="black" stroke-dasharray="5,2" d="M473,-11C473,-11 509,-11 509,-11 515,-11 521,-17 521,-23 521,-23 521,-41 521,-41 521,-47 515,-53 509,-53 509,-53 473,-53 473,-53 467,-53 461,-47 461,-41 461,-41 461,-23 461,-23 461,-17 467,-11 473,-11"/>
</g>
<g id="clust52" class="cluster">
<title>outer_cluster_i64&#45;1</title>
</g>
<g id="clust53" class="cluster">
<title>cluster_i64&#45;1</title>
<path fill="#80b1d3" stroke="black" stroke-dasharray="5,2" d="M27,-169C27,-169 63,-169 63,-169 69,-169 75,-175 75,-181 75,-181 75,-199 75,-199 75,-205 69,-211 63,-211 63,-211 27,-211 27,-211 21,-211 15,-205 15,-199 15,-199 15,-181 15,-181 15,-175 21,-169 27,-169"/>
</g>
<!-- function&#45;0&#45;ImmVal&#45;&gt;primitive&#45;i64&#45;1 -->
<g id="edge1" class="edge">
<title>function&#45;0&#45;ImmVal:s&#45;&gt;primitive&#45;i64&#45;1</title>
<path fill="none" stroke="black" d="M45,-253C45,-239.84 45,-225.11 45,-213.3"/>
<polygon fill="black" stroke="black" points="46.75,-216 45,-211 43.25,-216 46.75,-216"/>
</g>
<!-- function&#45;0&#45;ImmLabel&#45;&gt;primitive&#45;String&#45;4 -->
<g id="edge2" class="edge">
<title>function&#45;0&#45;ImmLabel:s&#45;&gt;primitive&#45;String&#45;4</title>
<path fill="none" stroke="black" d="M224,-174C224,-160.84 224,-146.11 224,-134.3"/>
<polygon fill="black" stroke="black" points="225.75,-137 224,-132 222.25,-137 225.75,-137"/>
</g>
<!-- function&#45;1&#45;ImmVal&#45;&gt;primitive&#45;i64&#45;4 -->
<g id="edge3" class="edge">
<title>function&#45;1&#45;ImmVal:s&#45;&gt;primitive&#45;i64&#45;4</title>
<path fill="none" stroke="black" d="M491,-95C491,-81.84 491,-67.11 491,-55.3"/>
<polygon fill="black" stroke="black" points="492.75,-58 491,-53 489.25,-58 492.75,-58"/>
</g>
<!-- function&#45;2&#45;Bne&#45;&gt;function&#45;1&#45;ImmVal -->
<g id="edge6" class="edge">
<title>function&#45;2&#45;Bne:s&#45;&gt;function&#45;1&#45;ImmVal</title>
<path fill="none" stroke="black" d="M364,-253C364,-229 411.67,-183.59 428,-166 439.18,-153.95 452.91,-141.92 464.7,-132.28"/>
<polygon fill="black" stroke="black" points="461.33,-135.12 465.61,-132 460.32,-131.77 461.33,-135.12"/>
</g>
<!-- function&#45;2&#45;Bne&#45;&gt;function&#45;1&#45;RegVal -->
<g id="edge4" class="edge">
<title>function&#45;2&#45;Bne:s&#45;&gt;function&#45;1&#45;RegVal</title>
<path fill="none" stroke="black" d="M341,-253C341,-239.76 342.6,-225.02 344.27,-213.24"/>
<polygon fill="black" stroke="black" points="345.07,-216.3 345.03,-211 341.76,-215.16 345.07,-216.3"/>
</g>
<!-- function&#45;2&#45;Bne&#45;&gt;function&#45;2&#45;RegVal -->
<g id="edge5" class="edge">
<title>function&#45;2&#45;Bne:s&#45;&gt;function&#45;2&#45;RegVal</title>
<path fill="none" stroke="black" d="M355,-253C355,-240.91 369.31,-248.08 381,-245 443.05,-228.66 459.48,-228.44 522,-214 542.4,-209.29 565.21,-203.77 583.36,-199.33"/>
<polygon fill="black" stroke="black" points="582.04,-202.5 585,-198.1 579.95,-199.69 582.04,-202.5"/>
</g>
<!-- function&#45;1&#45;RegVal&#45;&gt;primitive&#45;String&#45;2 -->
<g id="edge33" class="edge">
<title>function&#45;1&#45;RegVal:s&#45;&gt;primitive&#45;String&#45;2</title>
<path fill="none" stroke="black" d="M349,-174C349,-160.84 349,-146.11 349,-134.3"/>
<polygon fill="black" stroke="black" points="350.75,-137 349,-132 347.25,-137 350.75,-137"/>
</g>
<!-- function&#45;2&#45;RegVal&#45;&gt;primitive&#45;String&#45;3 -->
<g id="edge20" class="edge">
<title>function&#45;2&#45;RegVal:s&#45;&gt;primitive&#45;String&#45;3</title>
<path fill="none" stroke="black" d="M618,-174C618,-160.84 618,-146.11 618,-134.3"/>
<polygon fill="black" stroke="black" points="619.75,-137 618,-132 616.25,-137 619.75,-137"/>
</g>
<!-- function&#45;3&#45;Bne&#45;&gt;function&#45;1&#45;ImmVal -->
<g id="edge9" class="edge">
<title>function&#45;3&#45;Bne:s&#45;&gt;function&#45;1&#45;ImmVal</title>
<path fill="none" stroke="black" d="M422,-253C422,-206.69 452.4,-159.74 472.84,-133.4"/>
<polygon fill="black" stroke="black" points="472.13,-136.95 474.03,-132 469.46,-134.68 472.13,-136.95"/>
</g>
<!-- function&#45;3&#45;Bne&#45;&gt;function&#45;1&#45;RegVal -->
<g id="edge8" class="edge">
<title>function&#45;3&#45;Bne:s&#45;&gt;function&#45;1&#45;RegVal</title>
<path fill="none" stroke="black" d="M413,-253C413,-233.33 397.22,-217.99 381.21,-207.49"/>
<polygon fill="black" stroke="black" points="385.11,-208.05 380,-206.66 383.12,-210.94 385.11,-208.05"/>
</g>
<!-- function&#45;3&#45;Bne&#45;&gt;function&#45;2&#45;RegVal -->
<g id="edge7" class="edge">
<title>function&#45;3&#45;Bne:s&#45;&gt;function&#45;2&#45;RegVal</title>
<path fill="none" stroke="black" d="M399,-253C399,-248.28 521.75,-215.73 583.03,-199.78"/>
<polygon fill="black" stroke="black" points="581.8,-202.69 585,-198.47 579.87,-199.78 581.8,-202.69"/>
</g>
<!-- function&#45;2&#45;Seq2&#45;&gt;function&#45;1&#45;Seq2 -->
<g id="edge10" class="edge">
<title>function&#45;2&#45;Seq2:s&#45;&gt;function&#45;1&#45;Seq2</title>
<path fill="none" stroke="black" d="M455,-253C455,-232.44 479.08,-239.47 500.13,-249.89"/>
<polygon fill="black" stroke="black" points="496.96,-249.68 502,-251.3 499.07,-246.89 496.96,-249.68"/>
</g>
<!-- function&#45;2&#45;Seq2&#45;&gt;function&#45;1&#45;Jal -->
<g id="edge11" class="edge">
<title>function&#45;2&#45;Seq2:s&#45;&gt;function&#45;1&#45;Jal</title>
<path fill="none" stroke="black" d="M477,-253C477,-239.48 480.21,-224.7 483.55,-212.97"/>
<polygon fill="black" stroke="black" points="483.45,-216.07 484.98,-211 480.62,-214.01 483.45,-216.07"/>
</g>
<!-- function&#45;1&#45;Seq2&#45;&gt;function&#45;2&#45;Bne -->
<g id="edge30" class="edge">
<title>function&#45;1&#45;Seq2:s&#45;&gt;function&#45;2&#45;Bne</title>
<path fill="none" stroke="black" d="M521,-253C521,-190.28 438.87,-195 383,-223.5 373.47,-228.36 366.04,-237.41 360.67,-246.17"/>
<polygon fill="black" stroke="black" points="361.12,-243.19 358.9,-248 363.63,-245.62 361.12,-243.19"/>
</g>
<!-- function&#45;1&#45;Seq2&#45;&gt;function&#45;1&#45;Jal -->
<g id="edge31" class="edge">
<title>function&#45;1&#45;Seq2:s&#45;&gt;function&#45;1&#45;Jal</title>
<path fill="none" stroke="black" d="M543,-253C543,-236.59 532.18,-222.25 520.4,-211.5"/>
<polygon fill="black" stroke="black" points="524.65,-211.66 519.39,-211 523.09,-214.8 524.65,-211.66"/>
</g>
<!-- function&#45;1&#45;Jal&#45;&gt;function&#45;1&#45;ImmVal -->
<g id="edge34" class="edge">
<title>function&#45;1&#45;Jal:s&#45;&gt;function&#45;1&#45;ImmVal</title>
<path fill="none" stroke="black" d="M491,-174C491,-160.84 491,-146.11 491,-134.3"/>
<polygon fill="black" stroke="black" points="492.75,-137 491,-132 489.25,-137 492.75,-137"/>
</g>
<!-- function&#45;0&#45;Bne&#45;&gt;function&#45;0&#45;ImmLabel -->
<g id="edge14" class="edge">
<title>function&#45;0&#45;Bne:s&#45;&gt;function&#45;0&#45;ImmLabel</title>
<path fill="none" stroke="black" d="M226,-332C226,-314.46 221.34,-310.49 220,-293 218.37,-271.73 219.41,-266.33 220,-245 220.29,-234.55 220.9,-222.97 221.49,-213.22"/>
<polygon fill="black" stroke="black" points="222.82,-216.2 221.81,-211 219.36,-215.69 222.82,-216.2"/>
</g>
<!-- function&#45;0&#45;Bne&#45;&gt;function&#45;1&#45;RegVal -->
<g id="edge12" class="edge">
<title>function&#45;0&#45;Bne:s&#45;&gt;function&#45;1&#45;RegVal</title>
<path fill="none" stroke="black" d="M203,-332C203,-288.41 262.12,-323.77 293,-293 309.49,-276.56 303.1,-265.58 314,-245 319.85,-233.96 327.14,-222.18 333.47,-212.44"/>
<polygon fill="black" stroke="black" points="332.45,-215.46 335.3,-211 330.28,-212.71 332.45,-215.46"/>
</g>
<!-- function&#45;0&#45;Bne&#45;&gt;function&#45;2&#45;RegVal -->
<g id="edge13" class="edge">
<title>function&#45;0&#45;Bne:s&#45;&gt;function&#45;2&#45;RegVal</title>
<path fill="none" stroke="black" d="M217,-332C217,-280.48 643.89,-330.7 679,-293 693.54,-277.39 687.84,-264.42 679,-245 672.79,-231.35 661.22,-219.8 649.75,-210.94"/>
<polygon fill="black" stroke="black" points="653.21,-213 649,-209.79 650.29,-214.93 653.21,-213"/>
</g>
<!-- function&#45;1&#45;Bne&#45;&gt;function&#45;0&#45;ImmLabel -->
<g id="edge17" class="edge">
<title>function&#45;1&#45;Bne:s&#45;&gt;function&#45;0&#45;ImmLabel</title>
<path fill="none" stroke="black" d="M342,-332C342,-279.71 262.88,-334.45 231,-293 213.56,-270.32 214.9,-235.8 218.29,-213.31"/>
<polygon fill="black" stroke="black" points="219.06,-216.3 219.14,-211 215.77,-215.09 219.06,-216.3"/>
</g>
<!-- function&#45;1&#45;Bne&#45;&gt;function&#45;1&#45;RegVal -->
<g id="edge16" class="edge">
<title>function&#45;1&#45;Bne:s&#45;&gt;function&#45;1&#45;RegVal</title>
<path fill="none" stroke="black" d="M333,-332C333,-313.58 322.16,-311.14 319,-293 315.34,-271.98 313.8,-265.69 319,-245 321.86,-233.65 327.61,-222.08 333.25,-212.58"/>
<polygon fill="black" stroke="black" points="332.46,-215.65 334.99,-211 330.11,-213.06 332.46,-215.65"/>
</g>
<!-- function&#45;1&#45;Bne&#45;&gt;function&#45;2&#45;RegVal -->
<g id="edge15" class="edge">
<title>function&#45;1&#45;Bne:s&#45;&gt;function&#45;2&#45;RegVal</title>
<path fill="none" stroke="black" d="M319,-332C319,-249.1 634.53,-354.61 690,-293 704.27,-277.15 699.6,-264.05 690,-245 681.58,-228.29 665.26,-215.46 650.19,-206.51"/>
<polygon fill="black" stroke="black" points="653.35,-207.89 649,-204.86 650.51,-209.94 653.35,-207.89"/>
</g>
<!-- function&#45;0&#45;Seq2&#45;&gt;function&#45;0&#45;Beq -->
<g id="edge18" class="edge">
<title>function&#45;0&#45;Seq2:s&#45;&gt;function&#45;0&#45;Beq</title>
<path fill="none" stroke="black" d="M259,-332C259,-264.77 496.54,-317.87 559,-293 559.53,-292.79 560.05,-292.57 560.58,-292.34"/>
<polygon fill="black" stroke="black" points="561.57,-293.8 565.26,-290 560,-290.67 561.57,-293.8"/>
</g>
<!-- function&#45;0&#45;Seq2&#45;&gt;function&#45;0&#45;Jal -->
<g id="edge19" class="edge">
<title>function&#45;0&#45;Seq2:s&#45;&gt;function&#45;0&#45;Jal</title>
<path fill="none" stroke="black" d="M281,-332C281,-318.31 276.71,-303.63 272.21,-292"/>
<polygon fill="black" stroke="black" points="274.98,-293.79 271.28,-290 271.81,-295.27 274.98,-293.79"/>
</g>
<!-- function&#45;0&#45;Beq&#45;&gt;function&#45;1&#45;ImmVal -->
<g id="edge26" class="edge">
<title>function&#45;0&#45;Beq:s&#45;&gt;function&#45;1&#45;ImmVal</title>
<path fill="none" stroke="black" d="M604,-253C604,-228.49 580.91,-232.65 565,-214 542.46,-187.59 519.42,-154.72 505.17,-133.55"/>
<polygon fill="black" stroke="black" points="508.25,-133.81 503.27,-132 506.04,-136.52 508.25,-133.81"/>
</g>
<!-- function&#45;0&#45;Beq&#45;&gt;function&#45;1&#45;RegVal -->
<g id="edge24" class="edge">
<title>function&#45;0&#45;Beq:s&#45;&gt;function&#45;1&#45;RegVal</title>
<path fill="none" stroke="black" d="M581,-253C581,-242.8 445.92,-212.19 381.46,-198.16"/>
<polygon fill="black" stroke="black" points="385.07,-198.62 380,-197.1 383.02,-201.46 385.07,-198.62"/>
</g>
<!-- function&#45;0&#45;Beq&#45;&gt;function&#45;2&#45;RegVal -->
<g id="edge25" class="edge">
<title>function&#45;0&#45;Beq:s&#45;&gt;function&#45;2&#45;RegVal</title>
<path fill="none" stroke="black" d="M595,-253C595,-239.11 599.97,-224.42 605.18,-212.83"/>
<polygon fill="black" stroke="black" points="605.07,-216.12 606.41,-211 602.17,-214.17 605.07,-216.12"/>
</g>
<!-- function&#45;0&#45;Jal&#45;&gt;function&#45;0&#45;ImmLabel -->
<g id="edge21" class="edge">
<title>function&#45;0&#45;Jal:s&#45;&gt;function&#45;0&#45;ImmLabel</title>
<path fill="none" stroke="black" d="M262,-253C262,-237.82 253.52,-223.32 244.48,-212.17"/>
<polygon fill="black" stroke="black" points="248.05,-212.95 243.13,-211 245.76,-215.6 248.05,-212.95"/>
</g>
<!-- function&#45;0&#45;Addi&#45;&gt;function&#45;0&#45;ImmVal -->
<g id="edge23" class="edge">
<title>function&#45;0&#45;Addi:s&#45;&gt;function&#45;0&#45;ImmVal</title>
<path fill="none" stroke="black" d="M123,-332C123,-325.59 96.89,-305.84 74.88,-290.34"/>
<polygon fill="black" stroke="black" points="78.82,-289.52 73.54,-290 77.96,-292.92 78.82,-289.52"/>
</g>
<!-- function&#45;0&#45;Addi&#45;&gt;function&#45;0&#45;RegVal -->
<g id="edge22" class="edge">
<title>function&#45;0&#45;Addi:s&#45;&gt;function&#45;0&#45;RegVal</title>
<path fill="none" stroke="black" d="M103,-332C103,-318.48 106.21,-303.7 109.55,-291.97"/>
<polygon fill="black" stroke="black" points="109.45,-295.07 110.98,-290 106.62,-293.01 109.45,-295.07"/>
</g>
<!-- function&#45;0&#45;RegVal&#45;&gt;primitive&#45;String&#45;1 -->
<g id="edge32" class="edge">
<title>function&#45;0&#45;RegVal:s&#45;&gt;primitive&#45;String&#45;1</title>
<path fill="none" stroke="black" d="M118,-253C118,-239.84 118,-225.11 118,-213.3"/>
<polygon fill="black" stroke="black" points="119.75,-216 118,-211 116.25,-216 119.75,-216"/>
</g>
<!-- function&#45;1&#45;Beq&#45;&gt;function&#45;1&#45;ImmVal -->
<g id="edge29" class="edge">
<title>function&#45;1&#45;Beq:s&#45;&gt;function&#45;1&#45;ImmVal</title>
<path fill="none" stroke="black" d="M662,-253C662,-214.24 613.42,-239.24 584,-214 564.16,-196.98 567.3,-185.6 550,-166 539.53,-154.13 526.68,-142.12 515.65,-132.46"/>
<polygon fill="black" stroke="black" points="519.95,-132.54 514.68,-132 518.47,-135.71 519.95,-132.54"/>
</g>
<!-- function&#45;1&#45;Beq&#45;&gt;function&#45;1&#45;RegVal -->
<g id="edge28" class="edge">
<title>function&#45;1&#45;Beq:s&#45;&gt;function&#45;1&#45;RegVal</title>
<path fill="none" stroke="black" d="M653,-253C653,-236.61 633.04,-248.37 617,-245 547.39,-230.4 529.72,-228.04 460,-214 433.59,-208.68 403.7,-202.54 381.44,-197.94"/>
<polygon fill="black" stroke="black" points="385.1,-198.37 380,-196.92 383.08,-201.23 385.1,-198.37"/>
</g>
<!-- function&#45;1&#45;Beq&#45;&gt;function&#45;2&#45;RegVal -->
<g id="edge27" class="edge">
<title>function&#45;1&#45;Beq:s&#45;&gt;function&#45;2&#45;RegVal</title>
<path fill="none" stroke="black" d="M639,-253C639,-239.11 634.03,-224.42 628.82,-212.83"/>
<polygon fill="black" stroke="black" points="631.83,-214.17 627.59,-211 628.93,-216.12 631.83,-214.17"/>
</g>
<!-- function&#45;0&#45;ImmVal -->
<g id="node1" class="node">
<title>function&#45;0&#45;ImmVal</title>
<g id="a_node1"><a xlink:title="Imm&#45;3: function&#45;0&#45;ImmVal">
<path fill="white" stroke="transparent" d="M24.67,-253C24.67,-253 65.33,-253 65.33,-253 70.67,-253 76,-258.33 76,-263.67 76,-263.67 76,-274.33 76,-274.33 76,-279.67 70.67,-285 65.33,-285 65.33,-285 24.67,-285 24.67,-285 19.33,-285 14,-279.67 14,-274.33 14,-274.33 14,-263.67 14,-263.67 14,-258.33 19.33,-253 24.67,-253"/>
<text text-anchor="start" x="19" y="-265.3" font-family="Helvetica,sans-Serif" font-size="14.00">ImmVal</text>
<path fill="none" stroke="black" d="M24.67,-253C24.67,-253 65.33,-253 65.33,-253 70.67,-253 76,-258.33 76,-263.67 76,-263.67 76,-274.33 76,-274.33 76,-279.67 70.67,-285 65.33,-285 65.33,-285 24.67,-285 24.67,-285 19.33,-285 14,-279.67 14,-274.33 14,-274.33 14,-263.67 14,-263.67 14,-258.33 19.33,-253 24.67,-253"/>
</a>
</g>
</g>
<!-- primitive&#45;i64&#45;1 -->
<g id="node2" class="node">
<title>primitive&#45;i64&#45;1</title>
<g id="a_node2"><a xlink:title="i64&#45;1: primitive&#45;i64&#45;1">
<path fill="white" stroke="transparent" d="M39.67,-174C39.67,-174 50.33,-174 50.33,-174 55.67,-174 61,-179.33 61,-184.67 61,-184.67 61,-195.33 61,-195.33 61,-200.67 55.67,-206 50.33,-206 50.33,-206 39.67,-206 39.67,-206 34.33,-206 29,-200.67 29,-195.33 29,-195.33 29,-184.67 29,-184.67 29,-179.33 34.33,-174 39.67,-174"/>
<text text-anchor="start" x="40" y="-186.3" font-family="Helvetica,sans-Serif" font-size="14.00">1</text>
<path fill="none" stroke="black" d="M39.67,-174C39.67,-174 50.33,-174 50.33,-174 55.67,-174 61,-179.33 61,-184.67 61,-184.67 61,-195.33 61,-195.33 61,-200.67 55.67,-206 50.33,-206 50.33,-206 39.67,-206 39.67,-206 34.33,-206 29,-200.67 29,-195.33 29,-195.33 29,-184.67 29,-184.67 29,-179.33 34.33,-174 39.67,-174"/>
</a>
</g>
</g>
<!-- function&#45;0&#45;ImmLabel -->
<g id="node3" class="node">
<title>function&#45;0&#45;ImmLabel</title>
<g id="a_node3"><a xlink:title="Imm&#45;5: function&#45;0&#45;ImmLabel">
<path fill="white" stroke="transparent" d="M194.17,-174C194.17,-174 251.83,-174 251.83,-174 257.17,-174 262.5,-179.33 262.5,-184.67 262.5,-184.67 262.5,-195.33 262.5,-195.33 262.5,-200.67 257.17,-206 251.83,-206 251.83,-206 194.17,-206 194.17,-206 188.83,-206 183.5,-200.67 183.5,-195.33 183.5,-195.33 183.5,-184.67 183.5,-184.67 183.5,-179.33 188.83,-174 194.17,-174"/>
<text text-anchor="start" x="189" y="-186.3" font-family="Helvetica,sans-Serif" font-size="14.00">ImmLabel</text>
<path fill="none" stroke="black" d="M194.17,-174C194.17,-174 251.83,-174 251.83,-174 257.17,-174 262.5,-179.33 262.5,-184.67 262.5,-184.67 262.5,-195.33 262.5,-195.33 262.5,-200.67 257.17,-206 251.83,-206 251.83,-206 194.17,-206 194.17,-206 188.83,-206 183.5,-200.67 183.5,-195.33 183.5,-195.33 183.5,-184.67 183.5,-184.67 183.5,-179.33 188.83,-174 194.17,-174"/>
</a>
</g>
</g>
<!-- primitive&#45;String&#45;4 -->
<g id="node4" class="node">
<title>primitive&#45;String&#45;4</title>
<g id="a_node4"><a xlink:title="String&#45;4: primitive&#45;String&#45;4">
<path fill="white" stroke="transparent" d="M207.67,-95C207.67,-95 240.33,-95 240.33,-95 245.67,-95 251,-100.33 251,-105.67 251,-105.67 251,-116.33 251,-116.33 251,-121.67 245.67,-127 240.33,-127 240.33,-127 207.67,-127 207.67,-127 202.33,-127 197,-121.67 197,-116.33 197,-116.33 197,-105.67 197,-105.67 197,-100.33 202.33,-95 207.67,-95"/>
<text text-anchor="start" x="202" y="-107.3" font-family="Helvetica,sans-Serif" font-size="14.00">&quot;.L49&quot;</text>
<path fill="none" stroke="black" d="M207.67,-95C207.67,-95 240.33,-95 240.33,-95 245.67,-95 251,-100.33 251,-105.67 251,-105.67 251,-116.33 251,-116.33 251,-121.67 245.67,-127 240.33,-127 240.33,-127 207.67,-127 207.67,-127 202.33,-127 197,-121.67 197,-116.33 197,-116.33 197,-105.67 197,-105.67 197,-100.33 202.33,-95 207.67,-95"/>
</a>
</g>
</g>
<!-- function&#45;1&#45;ImmVal -->
<g id="node5" class="node">
<title>function&#45;1&#45;ImmVal</title>
<g id="a_node5"><a xlink:title="Imm&#45;7: function&#45;1&#45;ImmVal">
<path fill="white" stroke="transparent" d="M470.67,-95C470.67,-95 511.33,-95 511.33,-95 516.67,-95 522,-100.33 522,-105.67 522,-105.67 522,-116.33 522,-116.33 522,-121.67 516.67,-127 511.33,-127 511.33,-127 470.67,-127 470.67,-127 465.33,-127 460,-121.67 460,-116.33 460,-116.33 460,-105.67 460,-105.67 460,-100.33 465.33,-95 470.67,-95"/>
<text text-anchor="start" x="465" y="-107.3" font-family="Helvetica,sans-Serif" font-size="14.00">ImmVal</text>
<path fill="none" stroke="black" d="M470.67,-95C470.67,-95 511.33,-95 511.33,-95 516.67,-95 522,-100.33 522,-105.67 522,-105.67 522,-116.33 522,-116.33 522,-121.67 516.67,-127 511.33,-127 511.33,-127 470.67,-127 470.67,-127 465.33,-127 460,-121.67 460,-116.33 460,-116.33 460,-105.67 460,-105.67 460,-100.33 465.33,-95 470.67,-95"/>
</a>
</g>
</g>
<!-- primitive&#45;i64&#45;4 -->
<g id="node6" class="node">
<title>primitive&#45;i64&#45;4</title>
<g id="a_node6"><a xlink:title="i64&#45;4: primitive&#45;i64&#45;4">
<path fill="white" stroke="transparent" d="M485.67,-16C485.67,-16 496.33,-16 496.33,-16 501.67,-16 507,-21.33 507,-26.67 507,-26.67 507,-37.33 507,-37.33 507,-42.67 501.67,-48 496.33,-48 496.33,-48 485.67,-48 485.67,-48 480.33,-48 475,-42.67 475,-37.33 475,-37.33 475,-26.67 475,-26.67 475,-21.33 480.33,-16 485.67,-16"/>
<text text-anchor="start" x="486" y="-28.3" font-family="Helvetica,sans-Serif" font-size="14.00">4</text>
<path fill="none" stroke="black" d="M485.67,-16C485.67,-16 496.33,-16 496.33,-16 501.67,-16 507,-21.33 507,-26.67 507,-26.67 507,-37.33 507,-37.33 507,-42.67 501.67,-48 496.33,-48 496.33,-48 485.67,-48 485.67,-48 480.33,-48 475,-42.67 475,-37.33 475,-37.33 475,-26.67 475,-26.67 475,-21.33 480.33,-16 485.67,-16"/>
</a>
</g>
</g>
<!-- function&#45;2&#45;Bne -->
<g id="node7" class="node">
<title>function&#45;2&#45;Bne</title>
<g id="a_node7"><a xlink:title="Inst&#45;10: function&#45;2&#45;Bne">
<path fill="white" stroke="transparent" d="M341.67,-253C341.67,-253 358.33,-253 358.33,-253 363.67,-253 369,-258.33 369,-263.67 369,-263.67 369,-274.33 369,-274.33 369,-279.67 363.67,-285 358.33,-285 358.33,-285 341.67,-285 341.67,-285 336.33,-285 331,-279.67 331,-274.33 331,-274.33 331,-263.67 331,-263.67 331,-258.33 336.33,-253 341.67,-253"/>
<text text-anchor="start" x="336" y="-265.3" font-family="Helvetica,sans-Serif" font-size="14.00">Bne</text>
<path fill="none" stroke="black" d="M341.67,-253C341.67,-253 358.33,-253 358.33,-253 363.67,-253 369,-258.33 369,-263.67 369,-263.67 369,-274.33 369,-274.33 369,-279.67 363.67,-285 358.33,-285 358.33,-285 341.67,-285 341.67,-285 336.33,-285 331,-279.67 331,-274.33 331,-274.33 331,-263.67 331,-263.67 331,-258.33 336.33,-253 341.67,-253"/>
</a>
</g>
</g>
<!-- function&#45;1&#45;RegVal -->
<g id="node8" class="node">
<title>function&#45;1&#45;RegVal</title>
<g id="a_node8"><a xlink:title="Inst&#45;1: function&#45;1&#45;RegVal">
<path fill="white" stroke="transparent" d="M330.17,-174C330.17,-174 365.83,-174 365.83,-174 371.17,-174 376.5,-179.33 376.5,-184.67 376.5,-184.67 376.5,-195.33 376.5,-195.33 376.5,-200.67 371.17,-206 365.83,-206 365.83,-206 330.17,-206 330.17,-206 324.83,-206 319.5,-200.67 319.5,-195.33 319.5,-195.33 319.5,-184.67 319.5,-184.67 319.5,-179.33 324.83,-174 330.17,-174"/>
<text text-anchor="start" x="325" y="-186.3" font-family="Helvetica,sans-Serif" font-size="14.00">RegVal</text>
<path fill="none" stroke="black" d="M330.17,-174C330.17,-174 365.83,-174 365.83,-174 371.17,-174 376.5,-179.33 376.5,-184.67 376.5,-184.67 376.5,-195.33 376.5,-195.33 376.5,-200.67 371.17,-206 365.83,-206 365.83,-206 330.17,-206 330.17,-206 324.83,-206 319.5,-200.67 319.5,-195.33 319.5,-195.33 319.5,-184.67 319.5,-184.67 319.5,-179.33 324.83,-174 330.17,-174"/>
</a>
</g>
</g>
<!-- function&#45;2&#45;RegVal -->
<g id="node9" class="node">
<title>function&#45;2&#45;RegVal</title>
<g id="a_node9"><a xlink:title="Inst&#45;2: function&#45;2&#45;RegVal">
<path fill="white" stroke="transparent" d="M599.17,-174C599.17,-174 634.83,-174 634.83,-174 640.17,-174 645.5,-179.33 645.5,-184.67 645.5,-184.67 645.5,-195.33 645.5,-195.33 645.5,-200.67 640.17,-206 634.83,-206 634.83,-206 599.17,-206 599.17,-206 593.83,-206 588.5,-200.67 588.5,-195.33 588.5,-195.33 588.5,-184.67 588.5,-184.67 588.5,-179.33 593.83,-174 599.17,-174"/>
<text text-anchor="start" x="594" y="-186.3" font-family="Helvetica,sans-Serif" font-size="14.00">RegVal</text>
<path fill="none" stroke="black" d="M599.17,-174C599.17,-174 634.83,-174 634.83,-174 640.17,-174 645.5,-179.33 645.5,-184.67 645.5,-184.67 645.5,-195.33 645.5,-195.33 645.5,-200.67 640.17,-206 634.83,-206 634.83,-206 599.17,-206 599.17,-206 593.83,-206 588.5,-200.67 588.5,-195.33 588.5,-195.33 588.5,-184.67 588.5,-184.67 588.5,-179.33 593.83,-174 599.17,-174"/>
</a>
</g>
</g>
<!-- function&#45;3&#45;Bne -->
<g id="node10" class="node">
<title>function&#45;3&#45;Bne</title>
<g id="a_node10"><a xlink:title="Inst&#45;10: function&#45;3&#45;Bne">
<path fill="white" stroke="transparent" d="M399.67,-253C399.67,-253 416.33,-253 416.33,-253 421.67,-253 427,-258.33 427,-263.67 427,-263.67 427,-274.33 427,-274.33 427,-279.67 421.67,-285 416.33,-285 416.33,-285 399.67,-285 399.67,-285 394.33,-285 389,-279.67 389,-274.33 389,-274.33 389,-263.67 389,-263.67 389,-258.33 394.33,-253 399.67,-253"/>
<text text-anchor="start" x="394" y="-265.3" font-family="Helvetica,sans-Serif" font-size="14.00">Bne</text>
<path fill="none" stroke="black" d="M399.67,-253C399.67,-253 416.33,-253 416.33,-253 421.67,-253 427,-258.33 427,-263.67 427,-263.67 427,-274.33 427,-274.33 427,-279.67 421.67,-285 416.33,-285 416.33,-285 399.67,-285 399.67,-285 394.33,-285 389,-279.67 389,-274.33 389,-274.33 389,-263.67 389,-263.67 389,-258.33 394.33,-253 399.67,-253"/>
</a>
</g>
</g>
<!-- function&#45;2&#45;Seq2 -->
<g id="node11" class="node">
<title>function&#45;2&#45;Seq2</title>
<g id="a_node11"><a xlink:title="Inst&#45;10: function&#45;2&#45;Seq2">
<path fill="white" stroke="transparent" d="M453.67,-253C453.67,-253 478.33,-253 478.33,-253 483.67,-253 489,-258.33 489,-263.67 489,-263.67 489,-274.33 489,-274.33 489,-279.67 483.67,-285 478.33,-285 478.33,-285 453.67,-285 453.67,-285 448.33,-285 443,-279.67 443,-274.33 443,-274.33 443,-263.67 443,-263.67 443,-258.33 448.33,-253 453.67,-253"/>
<text text-anchor="start" x="448" y="-265.3" font-family="Helvetica,sans-Serif" font-size="14.00">Seq2</text>
<path fill="none" stroke="black" d="M453.67,-253C453.67,-253 478.33,-253 478.33,-253 483.67,-253 489,-258.33 489,-263.67 489,-263.67 489,-274.33 489,-274.33 489,-279.67 483.67,-285 478.33,-285 478.33,-285 453.67,-285 453.67,-285 448.33,-285 443,-279.67 443,-274.33 443,-274.33 443,-263.67 443,-263.67 443,-258.33 448.33,-253 453.67,-253"/>
</a>
</g>
</g>
<!-- function&#45;1&#45;Seq2 -->
<g id="node12" class="node">
<title>function&#45;1&#45;Seq2</title>
<g id="a_node12"><a xlink:title="Inst&#45;8: function&#45;1&#45;Seq2">
<path fill="white" stroke="transparent" d="M519.67,-253C519.67,-253 544.33,-253 544.33,-253 549.67,-253 555,-258.33 555,-263.67 555,-263.67 555,-274.33 555,-274.33 555,-279.67 549.67,-285 544.33,-285 544.33,-285 519.67,-285 519.67,-285 514.33,-285 509,-279.67 509,-274.33 509,-274.33 509,-263.67 509,-263.67 509,-258.33 514.33,-253 519.67,-253"/>
<text text-anchor="start" x="514" y="-265.3" font-family="Helvetica,sans-Serif" font-size="14.00">Seq2</text>
<path fill="none" stroke="black" d="M519.67,-253C519.67,-253 544.33,-253 544.33,-253 549.67,-253 555,-258.33 555,-263.67 555,-263.67 555,-274.33 555,-274.33 555,-279.67 549.67,-285 544.33,-285 544.33,-285 519.67,-285 519.67,-285 514.33,-285 509,-279.67 509,-274.33 509,-274.33 509,-263.67 509,-263.67 509,-258.33 514.33,-253 519.67,-253"/>
</a>
</g>
</g>
<!-- function&#45;1&#45;Jal -->
<g id="node13" class="node">
<title>function&#45;1&#45;Jal</title>
<g id="a_node13"><a xlink:title="Inst&#45;11: function&#45;1&#45;Jal">
<path fill="white" stroke="transparent" d="M485.67,-174C485.67,-174 496.33,-174 496.33,-174 501.67,-174 507,-179.33 507,-184.67 507,-184.67 507,-195.33 507,-195.33 507,-200.67 501.67,-206 496.33,-206 496.33,-206 485.67,-206 485.67,-206 480.33,-206 475,-200.67 475,-195.33 475,-195.33 475,-184.67 475,-184.67 475,-179.33 480.33,-174 485.67,-174"/>
<text text-anchor="start" x="482.5" y="-186.3" font-family="Helvetica,sans-Serif" font-size="14.00">Jal</text>
<path fill="none" stroke="black" d="M485.67,-174C485.67,-174 496.33,-174 496.33,-174 501.67,-174 507,-179.33 507,-184.67 507,-184.67 507,-195.33 507,-195.33 507,-200.67 501.67,-206 496.33,-206 496.33,-206 485.67,-206 485.67,-206 480.33,-206 475,-200.67 475,-195.33 475,-195.33 475,-184.67 475,-184.67 475,-179.33 480.33,-174 485.67,-174"/>
</a>
</g>
</g>
<!-- function&#45;0&#45;Bne -->
<g id="node14" class="node">
<title>function&#45;0&#45;Bne</title>
<g id="a_node14"><a xlink:title="Inst&#45;6: function&#45;0&#45;Bne">
<path fill="white" stroke="transparent" d="M203.67,-332C203.67,-332 220.33,-332 220.33,-332 225.67,-332 231,-337.33 231,-342.67 231,-342.67 231,-353.33 231,-353.33 231,-358.67 225.67,-364 220.33,-364 220.33,-364 203.67,-364 203.67,-364 198.33,-364 193,-358.67 193,-353.33 193,-353.33 193,-342.67 193,-342.67 193,-337.33 198.33,-332 203.67,-332"/>
<text text-anchor="start" x="198" y="-344.3" font-family="Helvetica,sans-Serif" font-size="14.00">Bne</text>
<path fill="none" stroke="black" d="M203.67,-332C203.67,-332 220.33,-332 220.33,-332 225.67,-332 231,-337.33 231,-342.67 231,-342.67 231,-353.33 231,-353.33 231,-358.67 225.67,-364 220.33,-364 220.33,-364 203.67,-364 203.67,-364 198.33,-364 193,-358.67 193,-353.33 193,-353.33 193,-342.67 193,-342.67 193,-337.33 198.33,-332 203.67,-332"/>
</a>
</g>
</g>
<!-- function&#45;1&#45;Bne -->
<g id="node15" class="node">
<title>function&#45;1&#45;Bne</title>
<g id="a_node15"><a xlink:title="Inst&#45;6: function&#45;1&#45;Bne">
<path fill="white" stroke="transparent" d="M319.67,-332C319.67,-332 336.33,-332 336.33,-332 341.67,-332 347,-337.33 347,-342.67 347,-342.67 347,-353.33 347,-353.33 347,-358.67 341.67,-364 336.33,-364 336.33,-364 319.67,-364 319.67,-364 314.33,-364 309,-358.67 309,-353.33 309,-353.33 309,-342.67 309,-342.67 309,-337.33 314.33,-332 319.67,-332"/>
<text text-anchor="start" x="314" y="-344.3" font-family="Helvetica,sans-Serif" font-size="14.00">Bne</text>
<path fill="none" stroke="black" d="M319.67,-332C319.67,-332 336.33,-332 336.33,-332 341.67,-332 347,-337.33 347,-342.67 347,-342.67 347,-353.33 347,-353.33 347,-358.67 341.67,-364 336.33,-364 336.33,-364 319.67,-364 319.67,-364 314.33,-364 309,-358.67 309,-353.33 309,-353.33 309,-342.67 309,-342.67 309,-337.33 314.33,-332 319.67,-332"/>
</a>
</g>
</g>
<!-- function&#45;0&#45;Seq2 -->
<g id="node16" class="node">
<title>function&#45;0&#45;Seq2</title>
<g id="a_node16"><a xlink:title="Inst&#45;6: function&#45;0&#45;Seq2">
<path fill="white" stroke="transparent" d="M257.67,-332C257.67,-332 282.33,-332 282.33,-332 287.67,-332 293,-337.33 293,-342.67 293,-342.67 293,-353.33 293,-353.33 293,-358.67 287.67,-364 282.33,-364 282.33,-364 257.67,-364 257.67,-364 252.33,-364 247,-358.67 247,-353.33 247,-353.33 247,-342.67 247,-342.67 247,-337.33 252.33,-332 257.67,-332"/>
<text text-anchor="start" x="252" y="-344.3" font-family="Helvetica,sans-Serif" font-size="14.00">Seq2</text>
<path fill="none" stroke="black" d="M257.67,-332C257.67,-332 282.33,-332 282.33,-332 287.67,-332 293,-337.33 293,-342.67 293,-342.67 293,-353.33 293,-353.33 293,-358.67 287.67,-364 282.33,-364 282.33,-364 257.67,-364 257.67,-364 252.33,-364 247,-358.67 247,-353.33 247,-353.33 247,-342.67 247,-342.67 247,-337.33 252.33,-332 257.67,-332"/>
</a>
</g>
</g>
<!-- function&#45;0&#45;Beq -->
<g id="node17" class="node">
<title>function&#45;0&#45;Beq</title>
<g id="a_node17"><a xlink:title="Inst&#45;8: function&#45;0&#45;Beq">
<path fill="white" stroke="transparent" d="M581.67,-253C581.67,-253 598.33,-253 598.33,-253 603.67,-253 609,-258.33 609,-263.67 609,-263.67 609,-274.33 609,-274.33 609,-279.67 603.67,-285 598.33,-285 598.33,-285 581.67,-285 581.67,-285 576.33,-285 571,-279.67 571,-274.33 571,-274.33 571,-263.67 571,-263.67 571,-258.33 576.33,-253 581.67,-253"/>
<text text-anchor="start" x="576" y="-265.3" font-family="Helvetica,sans-Serif" font-size="14.00">Beq</text>
<path fill="none" stroke="black" d="M581.67,-253C581.67,-253 598.33,-253 598.33,-253 603.67,-253 609,-258.33 609,-263.67 609,-263.67 609,-274.33 609,-274.33 609,-279.67 603.67,-285 598.33,-285 598.33,-285 581.67,-285 581.67,-285 576.33,-285 571,-279.67 571,-274.33 571,-274.33 571,-263.67 571,-263.67 571,-258.33 576.33,-253 581.67,-253"/>
</a>
</g>
</g>
<!-- function&#45;0&#45;Jal -->
<g id="node18" class="node">
<title>function&#45;0&#45;Jal</title>
<g id="a_node18"><a xlink:title="Inst&#45;9: function&#45;0&#45;Jal">
<path fill="white" stroke="transparent" d="M256.67,-253C256.67,-253 267.33,-253 267.33,-253 272.67,-253 278,-258.33 278,-263.67 278,-263.67 278,-274.33 278,-274.33 278,-279.67 272.67,-285 267.33,-285 267.33,-285 256.67,-285 256.67,-285 251.33,-285 246,-279.67 246,-274.33 246,-274.33 246,-263.67 246,-263.67 246,-258.33 251.33,-253 256.67,-253"/>
<text text-anchor="start" x="253.5" y="-265.3" font-family="Helvetica,sans-Serif" font-size="14.00">Jal</text>
<path fill="none" stroke="black" d="M256.67,-253C256.67,-253 267.33,-253 267.33,-253 272.67,-253 278,-258.33 278,-263.67 278,-263.67 278,-274.33 278,-274.33 278,-279.67 272.67,-285 267.33,-285 267.33,-285 256.67,-285 256.67,-285 251.33,-285 246,-279.67 246,-274.33 246,-274.33 246,-263.67 246,-263.67 246,-258.33 251.33,-253 256.67,-253"/>
</a>
</g>
</g>
<!-- primitive&#45;String&#45;3 -->
<g id="node19" class="node">
<title>primitive&#45;String&#45;3</title>
<g id="a_node19"><a xlink:title="String&#45;3: primitive&#45;String&#45;3">
<path fill="white" stroke="transparent" d="M600.67,-95C600.67,-95 635.33,-95 635.33,-95 640.67,-95 646,-100.33 646,-105.67 646,-105.67 646,-116.33 646,-116.33 646,-121.67 640.67,-127 635.33,-127 635.33,-127 600.67,-127 600.67,-127 595.33,-127 590,-121.67 590,-116.33 590,-116.33 590,-105.67 590,-105.67 590,-100.33 595.33,-95 600.67,-95"/>
<text text-anchor="start" x="595" y="-107.3" font-family="Helvetica,sans-Serif" font-size="14.00">&quot;s3_0&quot;</text>
<path fill="none" stroke="black" d="M600.67,-95C600.67,-95 635.33,-95 635.33,-95 640.67,-95 646,-100.33 646,-105.67 646,-105.67 646,-116.33 646,-116.33 646,-121.67 640.67,-127 635.33,-127 635.33,-127 600.67,-127 600.67,-127 595.33,-127 590,-121.67 590,-116.33 590,-116.33 590,-105.67 590,-105.67 590,-100.33 595.33,-95 600.67,-95"/>
</a>
</g>
</g>
<!-- function&#45;0&#45;Addi -->
<g id="node20" class="node">
<title>function&#45;0&#45;Addi</title>
<g id="a_node20"><a xlink:title="Inst&#45;4: function&#45;0&#45;Addi">
<path fill="white" stroke="transparent" d="M103.17,-332C103.17,-332 122.83,-332 122.83,-332 128.17,-332 133.5,-337.33 133.5,-342.67 133.5,-342.67 133.5,-353.33 133.5,-353.33 133.5,-358.67 128.17,-364 122.83,-364 122.83,-364 103.17,-364 103.17,-364 97.83,-364 92.5,-358.67 92.5,-353.33 92.5,-353.33 92.5,-342.67 92.5,-342.67 92.5,-337.33 97.83,-332 103.17,-332"/>
<text text-anchor="start" x="98" y="-344.3" font-family="Helvetica,sans-Serif" font-size="14.00">Addi</text>
<path fill="none" stroke="black" d="M103.17,-332C103.17,-332 122.83,-332 122.83,-332 128.17,-332 133.5,-337.33 133.5,-342.67 133.5,-342.67 133.5,-353.33 133.5,-353.33 133.5,-358.67 128.17,-364 122.83,-364 122.83,-364 103.17,-364 103.17,-364 97.83,-364 92.5,-358.67 92.5,-353.33 92.5,-353.33 92.5,-342.67 92.5,-342.67 92.5,-337.33 97.83,-332 103.17,-332"/>
</a>
</g>
</g>
<!-- function&#45;0&#45;RegVal -->
<g id="node21" class="node">
<title>function&#45;0&#45;RegVal</title>
<g id="a_node21"><a xlink:title="Inst&#45;0: function&#45;0&#45;RegVal">
<path fill="white" stroke="transparent" d="M99.17,-253C99.17,-253 134.83,-253 134.83,-253 140.17,-253 145.5,-258.33 145.5,-263.67 145.5,-263.67 145.5,-274.33 145.5,-274.33 145.5,-279.67 140.17,-285 134.83,-285 134.83,-285 99.17,-285 99.17,-285 93.83,-285 88.5,-279.67 88.5,-274.33 88.5,-274.33 88.5,-263.67 88.5,-263.67 88.5,-258.33 93.83,-253 99.17,-253"/>
<text text-anchor="start" x="94" y="-265.3" font-family="Helvetica,sans-Serif" font-size="14.00">RegVal</text>
<path fill="none" stroke="black" d="M99.17,-253C99.17,-253 134.83,-253 134.83,-253 140.17,-253 145.5,-258.33 145.5,-263.67 145.5,-263.67 145.5,-274.33 145.5,-274.33 145.5,-279.67 140.17,-285 134.83,-285 134.83,-285 99.17,-285 99.17,-285 93.83,-285 88.5,-279.67 88.5,-274.33 88.5,-274.33 88.5,-263.67 88.5,-263.67 88.5,-258.33 93.83,-253 99.17,-253"/>
</a>
</g>
</g>
<!-- function&#45;1&#45;Beq -->
<g id="node22" class="node">
<title>function&#45;1&#45;Beq</title>
<g id="a_node22"><a xlink:title="Inst&#45;8: function&#45;1&#45;Beq">
<path fill="white" stroke="transparent" d="M639.67,-253C639.67,-253 656.33,-253 656.33,-253 661.67,-253 667,-258.33 667,-263.67 667,-263.67 667,-274.33 667,-274.33 667,-279.67 661.67,-285 656.33,-285 656.33,-285 639.67,-285 639.67,-285 634.33,-285 629,-279.67 629,-274.33 629,-274.33 629,-263.67 629,-263.67 629,-258.33 634.33,-253 639.67,-253"/>
<text text-anchor="start" x="634" y="-265.3" font-family="Helvetica,sans-Serif" font-size="14.00">Beq</text>
<path fill="none" stroke="black" d="M639.67,-253C639.67,-253 656.33,-253 656.33,-253 661.67,-253 667,-258.33 667,-263.67 667,-263.67 667,-274.33 667,-274.33 667,-279.67 661.67,-285 656.33,-285 656.33,-285 639.67,-285 639.67,-285 634.33,-285 629,-279.67 629,-274.33 629,-274.33 629,-263.67 629,-263.67 629,-258.33 634.33,-253 639.67,-253"/>
</a>
</g>
</g>
<!-- primitive&#45;String&#45;1 -->
<g id="node23" class="node">
<title>primitive&#45;String&#45;1</title>
<g id="a_node23"><a xlink:title="String&#45;1: primitive&#45;String&#45;1">
<path fill="white" stroke="transparent" d="M100.67,-174C100.67,-174 135.33,-174 135.33,-174 140.67,-174 146,-179.33 146,-184.67 146,-184.67 146,-195.33 146,-195.33 146,-200.67 140.67,-206 135.33,-206 135.33,-206 100.67,-206 100.67,-206 95.33,-206 90,-200.67 90,-195.33 90,-195.33 90,-184.67 90,-184.67 90,-179.33 95.33,-174 100.67,-174"/>
<text text-anchor="start" x="95" y="-186.3" font-family="Helvetica,sans-Serif" font-size="14.00">&quot;s0_0&quot;</text>
<path fill="none" stroke="black" d="M100.67,-174C100.67,-174 135.33,-174 135.33,-174 140.67,-174 146,-179.33 146,-184.67 146,-184.67 146,-195.33 146,-195.33 146,-200.67 140.67,-206 135.33,-206 135.33,-206 100.67,-206 100.67,-206 95.33,-206 90,-200.67 90,-195.33 90,-195.33 90,-184.67 90,-184.67 90,-179.33 95.33,-174 100.67,-174"/>
</a>
</g>
</g>
<!-- primitive&#45;String&#45;2 -->
<g id="node24" class="node">
<title>primitive&#45;String&#45;2</title>
<g id="a_node24"><a xlink:title="String&#45;2: primitive&#45;String&#45;2">
<path fill="white" stroke="transparent" d="M331.67,-95C331.67,-95 366.33,-95 366.33,-95 371.67,-95 377,-100.33 377,-105.67 377,-105.67 377,-116.33 377,-116.33 377,-121.67 371.67,-127 366.33,-127 366.33,-127 331.67,-127 331.67,-127 326.33,-127 321,-121.67 321,-116.33 321,-116.33 321,-105.67 321,-105.67 321,-100.33 326.33,-95 331.67,-95"/>
<text text-anchor="start" x="326" y="-107.3" font-family="Helvetica,sans-Serif" font-size="14.00">&quot;s1_0&quot;</text>
<path fill="none" stroke="black" d="M331.67,-95C331.67,-95 366.33,-95 366.33,-95 371.67,-95 377,-100.33 377,-105.67 377,-105.67 377,-116.33 377,-116.33 377,-121.67 371.67,-127 366.33,-127 366.33,-127 331.67,-127 331.67,-127 326.33,-127 321,-121.67 321,-116.33 321,-116.33 321,-105.67 321,-105.67 321,-100.33 326.33,-95 331.67,-95"/>
</a>
</g>
</g>
</g>
</svg>
