<?xml version="1.0" encoding="UTF-8" standalone="no"?>
<!DOCTYPE svg PUBLIC "-//W3C//DTD SVG 1.1//EN"
 "http://www.w3.org/Graphics/SVG/1.1/DTD/svg11.dtd">
<!-- Generated by graphviz version 2.43.0 (0)
 -->
<!-- Title: %3 Pages: 1 -->
<svg width="1204pt" height="467pt"
 viewBox="0.00 0.00 1204.00 467.00" xmlns="http://www.w3.org/2000/svg" xmlns:xlink="http://www.w3.org/1999/xlink">
<g id="graph0" class="graph" transform="scale(1 1) rotate(0) translate(4 463)">
<title>%3</title>
<polygon fill="white" stroke="#000000" points="-4,4 -4,-463 1200,-463 1200,4 -4,4"/>
<g id="clust1" class="cluster">
<title>outer_cluster_Imm&#45;15</title>
</g>
<g id="clust2" class="cluster">
<title>cluster_Imm&#45;15</title>
<path fill="#ffffb3" stroke="black" stroke-dasharray="5,2" d="M23,-327C23,-327 67,-327 67,-327 73,-327 79,-333 79,-339 79,-339 79,-357 79,-357 79,-363 73,-369 67,-369 67,-369 23,-369 23,-369 17,-369 11,-363 11,-357 11,-357 11,-339 11,-339 11,-333 17,-327 23,-327"/>
</g>
<g id="clust4" class="cluster">
<title>outer_cluster_Imm&#45;23</title>
</g>
<g id="clust5" class="cluster">
<title>cluster_Imm&#45;23</title>
<path fill="#ffffb3" stroke="black" stroke-dasharray="5,2" d="M665,-327C665,-327 709,-327 709,-327 715,-327 721,-333 721,-339 721,-339 721,-357 721,-357 721,-363 715,-369 709,-369 709,-369 665,-369 665,-369 659,-369 653,-363 653,-357 653,-357 653,-339 653,-339 653,-333 659,-327 665,-327"/>
</g>
<g id="clust7" class="cluster">
<title>outer_cluster_Imm&#45;8</title>
</g>
<g id="clust8" class="cluster">
<title>cluster_Imm&#45;8</title>
<path fill="#ffffb3" stroke="black" stroke-dasharray="5,2" d="M735,-248C735,-248 795,-248 795,-248 801,-248 807,-254 807,-260 807,-260 807,-278 807,-278 807,-284 801,-290 795,-290 795,-290 735,-290 735,-290 729,-290 723,-284 723,-278 723,-278 723,-260 723,-260 723,-254 729,-248 735,-248"/>
</g>
<g id="clust10" class="cluster">
<title>outer_cluster_Imm&#45;11</title>
</g>
<g id="clust11" class="cluster">
<title>cluster_Imm&#45;11</title>
<path fill="#ffffb3" stroke="black" stroke-dasharray="5,2" d="M517,-327C517,-327 561,-327 561,-327 567,-327 573,-333 573,-339 573,-339 573,-357 573,-357 573,-363 567,-369 561,-369 561,-369 517,-369 517,-369 511,-369 505,-363 505,-357 505,-357 505,-339 505,-339 505,-333 511,-327 517,-327"/>
</g>
<g id="clust13" class="cluster">
<title>outer_cluster_Imm&#45;2</title>
</g>
<g id="clust14" class="cluster">
<title>cluster_Imm&#45;2</title>
<path fill="#ffffb3" stroke="black" stroke-dasharray="5,2" d="M385,-90C385,-90 429,-90 429,-90 435,-90 441,-96 441,-102 441,-102 441,-120 441,-120 441,-126 435,-132 429,-132 429,-132 385,-132 385,-132 379,-132 373,-126 373,-120 373,-120 373,-102 373,-102 373,-96 379,-90 385,-90"/>
</g>
<g id="clust16" class="cluster">
<title>outer_cluster_Imm&#45;17</title>
</g>
<g id="clust17" class="cluster">
<title>cluster_Imm&#45;17</title>
<path fill="#ffffb3" stroke="black" stroke-dasharray="5,2" d="M369,-327C369,-327 413,-327 413,-327 419,-327 425,-333 425,-339 425,-339 425,-357 425,-357 425,-363 419,-369 413,-369 413,-369 369,-369 369,-369 363,-369 357,-363 357,-357 357,-357 357,-339 357,-339 357,-333 363,-327 369,-327"/>
</g>
<g id="clust19" class="cluster">
<title>outer_cluster_Imm&#45;6</title>
</g>
<g id="clust20" class="cluster">
<title>cluster_Imm&#45;6</title>
<path fill="#ffffb3" stroke="black" stroke-dasharray="5,2" d="M315,-169C315,-169 359,-169 359,-169 365,-169 371,-175 371,-181 371,-181 371,-199 371,-199 371,-205 365,-211 359,-211 359,-211 315,-211 315,-211 309,-211 303,-205 303,-199 303,-199 303,-181 303,-181 303,-175 309,-169 315,-169"/>
</g>
<g id="clust22" class="cluster">
<title>outer_cluster_Imm&#45;4</title>
</g>
<g id="clust23" class="cluster">
<title>cluster_Imm&#45;4</title>
<path fill="#ffffb3" stroke="black" stroke-dasharray="5,2" d="M936,-327C936,-327 996,-327 996,-327 1002,-327 1008,-333 1008,-339 1008,-339 1008,-357 1008,-357 1008,-363 1002,-369 996,-369 996,-369 936,-369 936,-369 930,-369 924,-363 924,-357 924,-357 924,-339 924,-339 924,-333 930,-327 936,-327"/>
</g>
<g id="clust25" class="cluster">
<title>outer_cluster_Imm&#45;25</title>
</g>
<g id="clust26" class="cluster">
<title>cluster_Imm&#45;25</title>
<path fill="#ffffb3" stroke="black" stroke-dasharray="5,2" d="M171,-327C171,-327 215,-327 215,-327 221,-327 227,-333 227,-339 227,-339 227,-357 227,-357 227,-363 221,-369 215,-369 215,-369 171,-369 171,-369 165,-369 159,-363 159,-357 159,-357 159,-339 159,-339 159,-333 165,-327 171,-327"/>
</g>
<g id="clust28" class="cluster">
<title>outer_cluster_Imm&#45;28</title>
</g>
<g id="clust29" class="cluster">
<title>cluster_Imm&#45;28</title>
<path fill="#ffffb3" stroke="black" stroke-dasharray="5,2" d="M1043,-327C1043,-327 1103,-327 1103,-327 1109,-327 1115,-333 1115,-339 1115,-339 1115,-357 1115,-357 1115,-363 1109,-369 1103,-369 1103,-369 1043,-369 1043,-369 1037,-369 1031,-363 1031,-357 1031,-357 1031,-339 1031,-339 1031,-333 1037,-327 1043,-327"/>
</g>
<g id="clust31" class="cluster">
<title>outer_cluster_Imm&#45;21</title>
</g>
<g id="clust32" class="cluster">
<title>cluster_Imm&#45;21</title>
<path fill="#ffffb3" stroke="black" stroke-dasharray="5,2" d="M591,-327C591,-327 635,-327 635,-327 641,-327 647,-333 647,-339 647,-339 647,-357 647,-357 647,-363 641,-369 635,-369 635,-369 591,-369 591,-369 585,-369 579,-363 579,-357 579,-357 579,-339 579,-339 579,-333 585,-327 591,-327"/>
</g>
<g id="clust34" class="cluster">
<title>outer_cluster_Imm&#45;13</title>
</g>
<g id="clust35" class="cluster">
<title>cluster_Imm&#45;13</title>
<path fill="#ffffb3" stroke="black" stroke-dasharray="5,2" d="M97,-327C97,-327 141,-327 141,-327 147,-327 153,-333 153,-339 153,-339 153,-357 153,-357 153,-363 147,-369 141,-369 141,-369 97,-369 97,-369 91,-369 85,-363 85,-357 85,-357 85,-339 85,-339 85,-333 91,-327 97,-327"/>
</g>
<g id="clust37" class="cluster">
<title>outer_cluster_Imm&#45;19</title>
</g>
<g id="clust38" class="cluster">
<title>cluster_Imm&#45;19</title>
<path fill="#ffffb3" stroke="black" stroke-dasharray="5,2" d="M443,-327C443,-327 487,-327 487,-327 493,-327 499,-333 499,-339 499,-339 499,-357 499,-357 499,-363 493,-369 487,-369 487,-369 443,-369 443,-369 437,-369 431,-363 431,-357 431,-357 431,-339 431,-339 431,-333 437,-327 443,-327"/>
</g>
<g id="clust40" class="cluster">
<title>outer_cluster_Inst&#45;27</title>
</g>
<g id="clust41" class="cluster">
<title>cluster_Inst&#45;27</title>
<path fill="#bebada" stroke="black" stroke-dasharray="5,2" d="M1133,-327C1133,-327 1173,-327 1173,-327 1179,-327 1185,-333 1185,-339 1185,-339 1185,-357 1185,-357 1185,-363 1179,-369 1173,-369 1173,-369 1133,-369 1133,-369 1127,-369 1121,-363 1121,-357 1121,-357 1121,-339 1121,-339 1121,-333 1127,-327 1133,-327"/>
</g>
<g id="clust43" class="cluster">
<title>outer_cluster_Inst&#45;14</title>
</g>
<g id="clust44" class="cluster">
<title>cluster_Inst&#45;14</title>
<path fill="#bebada" stroke="black" stroke-dasharray="5,2" d="M118,-406C118,-406 154,-406 154,-406 160,-406 166,-412 166,-418 166,-418 166,-436 166,-436 166,-442 160,-448 154,-448 154,-448 118,-448 118,-448 112,-448 106,-442 106,-436 106,-436 106,-418 106,-418 106,-412 112,-406 118,-406"/>
</g>
<g id="clust46" class="cluster">
<title>outer_cluster_Inst&#45;0</title>
</g>
<g id="clust47" class="cluster">
<title>cluster_Inst&#45;0</title>
<path fill="#bebada" stroke="black" stroke-dasharray="5,2" d="M838,-248C838,-248 878,-248 878,-248 884,-248 890,-254 890,-260 890,-260 890,-278 890,-278 890,-284 884,-290 878,-290 878,-290 838,-290 838,-290 832,-290 826,-284 826,-278 826,-278 826,-260 826,-260 826,-254 832,-248 838,-248"/>
</g>
<g id="clust49" class="cluster">
<title>outer_cluster_Inst&#45;7</title>
</g>
<g id="clust50" class="cluster">
<title>cluster_Inst&#45;7</title>
<path fill="#bebada" stroke="black" stroke-dasharray="5,2" d="M312,-248C312,-248 348,-248 348,-248 354,-248 360,-254 360,-260 360,-260 360,-278 360,-278 360,-284 354,-290 348,-290 348,-290 312,-290 312,-290 306,-290 300,-284 300,-278 300,-278 300,-260 300,-260 300,-254 306,-248 312,-248"/>
</g>
<g id="clust52" class="cluster">
<title>outer_cluster_Inst&#45;5</title>
</g>
<g id="clust53" class="cluster">
<title>cluster_Inst&#45;5</title>
<path fill="#bebada" stroke="black" stroke-dasharray="5,2" d="M948,-406C948,-406 984,-406 984,-406 990,-406 996,-412 996,-418 996,-418 996,-436 996,-436 996,-442 990,-448 984,-448 984,-448 948,-448 948,-448 942,-448 936,-442 936,-436 936,-436 936,-418 936,-418 936,-412 942,-406 948,-406"/>
</g>
<g id="clust55" class="cluster">
<title>outer_cluster_Inst&#45;26</title>
</g>
<g id="clust56" class="cluster">
<title>cluster_Inst&#45;26</title>
<path fill="#bebada" stroke="black" stroke-dasharray="5,2" d="M210,-406C210,-406 246,-406 246,-406 252,-406 258,-412 258,-418 258,-418 258,-436 258,-436 258,-442 252,-448 246,-448 246,-448 210,-448 210,-448 204,-448 198,-442 198,-436 198,-436 198,-418 198,-418 198,-412 204,-406 210,-406"/>
</g>
<g id="clust58" class="cluster">
<title>outer_cluster_Inst&#45;10</title>
</g>
<g id="clust59" class="cluster">
<title>cluster_Inst&#45;10</title>
<path fill="#bebada" stroke="black" stroke-dasharray="5,2" d="M245,-327C245,-327 339,-327 339,-327 345,-327 351,-333 351,-339 351,-339 351,-357 351,-357 351,-363 345,-369 339,-369 339,-369 245,-369 245,-369 239,-369 233,-363 233,-357 233,-357 233,-339 233,-339 233,-333 239,-327 245,-327"/>
</g>
<g id="clust61" class="cluster">
<title>outer_cluster_Inst&#45;18</title>
</g>
<g id="clust62" class="cluster">
<title>cluster_Inst&#45;18</title>
<path fill="#bebada" stroke="black" stroke-dasharray="5,2" d="M326,-406C326,-406 362,-406 362,-406 368,-406 374,-412 374,-418 374,-418 374,-436 374,-436 374,-442 368,-448 362,-448 362,-448 326,-448 326,-448 320,-448 314,-442 314,-436 314,-436 314,-418 314,-418 314,-412 320,-406 326,-406"/>
</g>
<g id="clust64" class="cluster">
<title>outer_cluster_Inst&#45;20</title>
</g>
<g id="clust65" class="cluster">
<title>cluster_Inst&#45;20</title>
<path fill="#bebada" stroke="black" stroke-dasharray="5,2" d="M408,-406C408,-406 444,-406 444,-406 450,-406 456,-412 456,-418 456,-418 456,-436 456,-436 456,-442 450,-448 444,-448 444,-448 408,-448 408,-448 402,-448 396,-442 396,-436 396,-436 396,-418 396,-418 396,-412 402,-406 408,-406"/>
</g>
<g id="clust67" class="cluster">
<title>outer_cluster_Inst&#45;9</title>
</g>
<g id="clust68" class="cluster">
<title>cluster_Inst&#45;9</title>
<path fill="#bebada" stroke="black" stroke-dasharray="5,2" d="M739,-327C739,-327 775,-327 775,-327 781,-327 787,-333 787,-339 787,-339 787,-357 787,-357 787,-363 781,-369 775,-369 775,-369 739,-369 739,-369 733,-369 727,-363 727,-357 727,-357 727,-339 727,-339 727,-333 733,-327 739,-327"/>
</g>
<g id="clust70" class="cluster">
<title>outer_cluster_Inst&#45;16</title>
</g>
<g id="clust71" class="cluster">
<title>cluster_Inst&#45;16</title>
<path fill="#bebada" stroke="black" stroke-dasharray="5,2" d="M50,-406C50,-406 86,-406 86,-406 92,-406 98,-412 98,-418 98,-418 98,-436 98,-436 98,-442 92,-448 86,-448 86,-448 50,-448 50,-448 44,-448 38,-442 38,-436 38,-436 38,-418 38,-418 38,-412 44,-406 50,-406"/>
</g>
<g id="clust73" class="cluster">
<title>outer_cluster_Inst&#45;12</title>
</g>
<g id="clust74" class="cluster">
<title>cluster_Inst&#45;12</title>
<path fill="#bebada" stroke="black" stroke-dasharray="5,2" d="M494,-406C494,-406 530,-406 530,-406 536,-406 542,-412 542,-418 542,-418 542,-436 542,-436 542,-442 536,-448 530,-448 530,-448 494,-448 494,-448 488,-448 482,-442 482,-436 482,-436 482,-418 482,-418 482,-412 488,-406 494,-406"/>
</g>
<g id="clust76" class="cluster">
<title>outer_cluster_Inst&#45;22</title>
</g>
<g id="clust77" class="cluster">
<title>cluster_Inst&#45;22</title>
<path fill="#bebada" stroke="black" stroke-dasharray="5,2" d="M574,-406C574,-406 610,-406 610,-406 616,-406 622,-412 622,-418 622,-418 622,-436 622,-436 622,-442 616,-448 610,-448 610,-448 574,-448 574,-448 568,-448 562,-442 562,-436 562,-436 562,-418 562,-418 562,-412 568,-406 574,-406"/>
</g>
<g id="clust79" class="cluster">
<title>outer_cluster_Inst&#45;3</title>
</g>
<g id="clust80" class="cluster">
<title>cluster_Inst&#45;3</title>
<path fill="#bebada" stroke="black" stroke-dasharray="5,2" d="M389,-169C389,-169 425,-169 425,-169 431,-169 437,-175 437,-181 437,-181 437,-199 437,-199 437,-205 431,-211 425,-211 425,-211 389,-211 389,-211 383,-211 377,-205 377,-199 377,-199 377,-181 377,-181 377,-175 383,-169 389,-169"/>
</g>
<g id="clust82" class="cluster">
<title>outer_cluster_Inst&#45;24</title>
</g>
<g id="clust83" class="cluster">
<title>cluster_Inst&#45;24</title>
<path fill="#bebada" stroke="black" stroke-dasharray="5,2" d="M704,-406C704,-406 740,-406 740,-406 746,-406 752,-412 752,-418 752,-418 752,-436 752,-436 752,-442 746,-448 740,-448 740,-448 704,-448 704,-448 698,-448 692,-442 692,-436 692,-436 692,-418 692,-418 692,-412 698,-406 704,-406"/>
</g>
<g id="clust85" class="cluster">
<title>outer_cluster_Inst&#45;29</title>
</g>
<g id="clust86" class="cluster">
<title>cluster_Inst&#45;29</title>
<path fill="#bebada" stroke="black" stroke-dasharray="5,2" d="M1092,-406C1092,-406 1128,-406 1128,-406 1134,-406 1140,-412 1140,-418 1140,-418 1140,-436 1140,-436 1140,-442 1134,-448 1128,-448 1128,-448 1092,-448 1092,-448 1086,-448 1080,-442 1080,-436 1080,-436 1080,-418 1080,-418 1080,-412 1086,-406 1092,-406"/>
</g>
<g id="clust88" class="cluster">
<title>outer_cluster_Inst&#45;1</title>
</g>
<g id="clust89" class="cluster">
<title>cluster_Inst&#45;1</title>
<path fill="#bebada" stroke="black" stroke-dasharray="5,2" d="M242,-248C242,-248 282,-248 282,-248 288,-248 294,-254 294,-260 294,-260 294,-278 294,-278 294,-284 288,-290 282,-290 282,-290 242,-290 242,-290 236,-290 230,-284 230,-278 230,-278 230,-260 230,-260 230,-254 236,-248 242,-248"/>
</g>
<g id="clust91" class="cluster">
<title>outer_cluster_String&#45;4</title>
</g>
<g id="clust92" class="cluster">
<title>cluster_String&#45;4</title>
<path fill="#fb8072" stroke="black" stroke-dasharray="5,2" d="M1136,-248C1136,-248 1172,-248 1172,-248 1178,-248 1184,-254 1184,-260 1184,-260 1184,-278 1184,-278 1184,-284 1178,-290 1172,-290 1172,-290 1136,-290 1136,-290 1130,-290 1124,-284 1124,-278 1124,-278 1124,-260 1124,-260 1124,-254 1130,-248 1136,-248"/>
</g>
<g id="clust94" class="cluster">
<title>outer_cluster_String&#45;2</title>
</g>
<g id="clust95" class="cluster">
<title>cluster_String&#45;2</title>
<path fill="#fb8072" stroke="black" stroke-dasharray="5,2" d="M908,-248C908,-248 1026,-248 1026,-248 1032,-248 1038,-254 1038,-260 1038,-260 1038,-278 1038,-278 1038,-284 1032,-290 1026,-290 1026,-290 908,-290 908,-290 902,-290 896,-284 896,-278 896,-278 896,-260 896,-260 896,-254 902,-248 908,-248"/>
</g>
<g id="clust97" class="cluster">
<title>outer_cluster_String&#45;3</title>
</g>
<g id="clust98" class="cluster">
<title>cluster_String&#45;3</title>
<path fill="#fb8072" stroke="black" stroke-dasharray="5,2" d="M701,-169C701,-169 817,-169 817,-169 823,-169 829,-175 829,-181 829,-181 829,-199 829,-199 829,-205 823,-211 817,-211 817,-211 701,-211 701,-211 695,-211 689,-205 689,-199 689,-199 689,-181 689,-181 689,-175 695,-169 701,-169"/>
</g>
<g id="clust100" class="cluster">
<title>outer_cluster_String&#45;0</title>
</g>
<g id="clust101" class="cluster">
<title>cluster_String&#45;0</title>
<path fill="#fb8072" stroke="black" stroke-dasharray="5,2" d="M847,-169C847,-169 883,-169 883,-169 889,-169 895,-175 895,-181 895,-181 895,-199 895,-199 895,-205 889,-211 883,-211 883,-211 847,-211 847,-211 841,-211 835,-205 835,-199 835,-199 835,-181 835,-181 835,-175 841,-169 847,-169"/>
</g>
<g id="clust103" class="cluster">
<title>outer_cluster_String&#45;5</title>
</g>
<g id="clust104" class="cluster">
<title>cluster_String&#45;5</title>
<path fill="#fb8072" stroke="black" stroke-dasharray="5,2" d="M1056,-248C1056,-248 1092,-248 1092,-248 1098,-248 1104,-254 1104,-260 1104,-260 1104,-278 1104,-278 1104,-284 1098,-290 1092,-290 1092,-290 1056,-290 1056,-290 1050,-290 1044,-284 1044,-278 1044,-278 1044,-260 1044,-260 1044,-254 1050,-248 1056,-248"/>
</g>
<g id="clust106" class="cluster">
<title>outer_cluster_String&#45;1</title>
</g>
<g id="clust107" class="cluster">
<title>cluster_String&#45;1</title>
<path fill="#fb8072" stroke="black" stroke-dasharray="5,2" d="M244,-169C244,-169 282,-169 282,-169 288,-169 294,-175 294,-181 294,-181 294,-199 294,-199 294,-205 288,-211 282,-211 282,-211 244,-211 244,-211 238,-211 232,-205 232,-199 232,-199 232,-181 232,-181 232,-175 238,-169 244,-169"/>
</g>
<g id="clust109" class="cluster">
<title>outer_cluster_i64&#45;1136</title>
</g>
<g id="clust110" class="cluster">
<title>cluster_i64&#45;1136</title>
<path fill="#80b1d3" stroke="black" stroke-dasharray="5,2" d="M319,-90C319,-90 355,-90 355,-90 361,-90 367,-96 367,-102 367,-102 367,-120 367,-120 367,-126 361,-132 355,-132 355,-132 319,-132 319,-132 313,-132 307,-126 307,-120 307,-120 307,-102 307,-102 307,-96 313,-90 319,-90"/>
</g>
<g id="clust112" class="cluster">
<title>outer_cluster_i64&#45;2024</title>
</g>
<g id="clust113" class="cluster">
<title>cluster_i64&#45;2024</title>
<path fill="#80b1d3" stroke="black" stroke-dasharray="5,2" d="M101,-248C101,-248 137,-248 137,-248 143,-248 149,-254 149,-260 149,-260 149,-278 149,-278 149,-284 143,-290 137,-290 137,-290 101,-290 101,-290 95,-290 89,-284 89,-278 89,-278 89,-260 89,-260 89,-254 95,-248 101,-248"/>
</g>
<g id="clust115" class="cluster">
<title>outer_cluster_i64&#45;2020</title>
</g>
<g id="clust116" class="cluster">
<title>cluster_i64&#45;2020</title>
<path fill="#80b1d3" stroke="black" stroke-dasharray="5,2" d="M27,-248C27,-248 63,-248 63,-248 69,-248 75,-254 75,-260 75,-260 75,-278 75,-278 75,-284 69,-290 63,-290 63,-290 27,-290 27,-290 21,-290 15,-284 15,-278 15,-278 15,-260 15,-260 15,-254 21,-248 27,-248"/>
</g>
<g id="clust118" class="cluster">
<title>outer_cluster_i64&#45;2008</title>
</g>
<g id="clust119" class="cluster">
<title>cluster_i64&#45;2008</title>
<path fill="#80b1d3" stroke="black" stroke-dasharray="5,2" d="M595,-248C595,-248 631,-248 631,-248 637,-248 643,-254 643,-260 643,-260 643,-278 643,-278 643,-284 637,-290 631,-290 631,-290 595,-290 595,-290 589,-290 583,-284 583,-278 583,-278 583,-260 583,-260 583,-254 589,-248 595,-248"/>
</g>
<g id="clust121" class="cluster">
<title>outer_cluster_i64&#45;1</title>
</g>
<g id="clust122" class="cluster">
<title>cluster_i64&#45;1</title>
<path fill="#80b1d3" stroke="black" stroke-dasharray="5,2" d="M669,-248C669,-248 705,-248 705,-248 711,-248 717,-254 717,-260 717,-260 717,-278 717,-278 717,-284 711,-290 705,-290 705,-290 669,-290 669,-290 663,-290 657,-284 657,-278 657,-278 657,-260 657,-260 657,-254 663,-248 669,-248"/>
</g>
<g id="clust124" class="cluster">
<title>outer_cluster_i64&#45;2032</title>
</g>
<g id="clust125" class="cluster">
<title>cluster_i64&#45;2032</title>
<path fill="#80b1d3" stroke="black" stroke-dasharray="5,2" d="M175,-248C175,-248 211,-248 211,-248 217,-248 223,-254 223,-260 223,-260 223,-278 223,-278 223,-284 217,-290 211,-290 211,-290 175,-290 175,-290 169,-290 163,-284 163,-278 163,-278 163,-260 163,-260 163,-254 169,-248 175,-248"/>
</g>
<g id="clust127" class="cluster">
<title>outer_cluster_i64&#45;9</title>
</g>
<g id="clust128" class="cluster">
<title>cluster_i64&#45;9</title>
<path fill="#80b1d3" stroke="black" stroke-dasharray="5,2" d="M389,-11C389,-11 425,-11 425,-11 431,-11 437,-17 437,-23 437,-23 437,-41 437,-41 437,-47 431,-53 425,-53 425,-53 389,-53 389,-53 383,-53 377,-47 377,-41 377,-41 377,-23 377,-23 377,-17 383,-11 389,-11"/>
</g>
<g id="clust130" class="cluster">
<title>outer_cluster_i64&#45;2028</title>
</g>
<g id="clust131" class="cluster">
<title>cluster_i64&#45;2028</title>
<path fill="#80b1d3" stroke="black" stroke-dasharray="5,2" d="M521,-248C521,-248 557,-248 557,-248 563,-248 569,-254 569,-260 569,-260 569,-278 569,-278 569,-284 563,-290 557,-290 557,-290 521,-290 521,-290 515,-290 509,-284 509,-278 509,-278 509,-260 509,-260 509,-254 515,-248 521,-248"/>
</g>
<g id="clust133" class="cluster">
<title>outer_cluster_i64&#45;2016</title>
</g>
<g id="clust134" class="cluster">
<title>cluster_i64&#45;2016</title>
<path fill="#80b1d3" stroke="black" stroke-dasharray="5,2" d="M378,-248C378,-248 414,-248 414,-248 420,-248 426,-254 426,-260 426,-260 426,-278 426,-278 426,-284 420,-290 414,-290 414,-290 378,-290 378,-290 372,-290 366,-284 366,-278 366,-278 366,-260 366,-260 366,-254 372,-248 378,-248"/>
</g>
<g id="clust136" class="cluster">
<title>outer_cluster_i64&#45;2012</title>
</g>
<g id="clust137" class="cluster">
<title>cluster_i64&#45;2012</title>
<path fill="#80b1d3" stroke="black" stroke-dasharray="5,2" d="M447,-248C447,-248 483,-248 483,-248 489,-248 495,-254 495,-260 495,-260 495,-278 495,-278 495,-284 489,-290 483,-290 483,-290 447,-290 447,-290 441,-290 435,-284 435,-278 435,-278 435,-260 435,-260 435,-254 441,-248 447,-248"/>
</g>
<!-- function&#45;4&#45;ImmVal&#45;&gt;primitive&#45;i64&#45;2020 -->
<g id="edge1" class="edge">
<title>function&#45;4&#45;ImmVal:s&#45;&gt;primitive&#45;i64&#45;2020</title>
<path fill="none" stroke="black" d="M45,-332C45,-318.84 45,-304.11 45,-292.3"/>
<polygon fill="black" stroke="black" points="46.75,-295 45,-290 43.25,-295 46.75,-295"/>
</g>
<!-- function&#45;8&#45;ImmVal&#45;&gt;primitive&#45;i64&#45;1 -->
<g id="edge2" class="edge">
<title>function&#45;8&#45;ImmVal:s&#45;&gt;primitive&#45;i64&#45;1</title>
<path fill="none" stroke="black" d="M687,-332C687,-318.84 687,-304.11 687,-292.3"/>
<polygon fill="black" stroke="black" points="688.75,-295 687,-290 685.25,-295 688.75,-295"/>
</g>
<!-- function&#45;1&#45;ImmLabel&#45;&gt;primitive&#45;String&#45;3 -->
<g id="edge3" class="edge">
<title>function&#45;1&#45;ImmLabel:s&#45;&gt;primitive&#45;String&#45;3</title>
<path fill="none" stroke="black" d="M766,-253C766,-239.76 764.4,-225.02 762.73,-213.24"/>
<polygon fill="black" stroke="black" points="765.24,-215.16 761.97,-211 761.93,-216.3 765.24,-215.16"/>
</g>
<!-- function&#45;2&#45;ImmVal&#45;&gt;primitive&#45;i64&#45;2028 -->
<g id="edge4" class="edge">
<title>function&#45;2&#45;ImmVal:s&#45;&gt;primitive&#45;i64&#45;2028</title>
<path fill="none" stroke="black" d="M539,-332C539,-318.84 539,-304.11 539,-292.3"/>
<polygon fill="black" stroke="black" points="540.75,-295 539,-290 537.25,-295 540.75,-295"/>
</g>
<!-- function&#45;0&#45;ImmVal&#45;&gt;primitive&#45;i64&#45;9 -->
<g id="edge5" class="edge">
<title>function&#45;0&#45;ImmVal:s&#45;&gt;primitive&#45;i64&#45;9</title>
<path fill="none" stroke="black" d="M407,-95C407,-81.84 407,-67.11 407,-55.3"/>
<polygon fill="black" stroke="black" points="408.75,-58 407,-53 405.25,-58 408.75,-58"/>
</g>
<!-- function&#45;5&#45;ImmVal&#45;&gt;primitive&#45;i64&#45;2016 -->
<g id="edge6" class="edge">
<title>function&#45;5&#45;ImmVal:s&#45;&gt;primitive&#45;i64&#45;2016</title>
<path fill="none" stroke="black" d="M391,-332C391,-318.8 392.14,-304.06 393.33,-292.27"/>
<polygon fill="black" stroke="black" points="394.41,-295.27 393.88,-290 391.01,-294.45 394.41,-295.27"/>
</g>
<!-- function&#45;1&#45;ImmVal&#45;&gt;primitive&#45;i64&#45;1136 -->
<g id="edge7" class="edge">
<title>function&#45;1&#45;ImmVal:s&#45;&gt;primitive&#45;i64&#45;1136</title>
<path fill="none" stroke="black" d="M337,-174C337,-160.84 337,-146.11 337,-134.3"/>
<polygon fill="black" stroke="black" points="338.75,-137 337,-132 335.25,-137 338.75,-137"/>
</g>
<!-- function&#45;0&#45;ImmLabel&#45;&gt;primitive&#45;String&#45;2 -->
<g id="edge8" class="edge">
<title>function&#45;0&#45;ImmLabel:s&#45;&gt;primitive&#45;String&#45;2</title>
<path fill="none" stroke="black" d="M967,-332C967,-318.84 967,-304.11 967,-292.3"/>
<polygon fill="black" stroke="black" points="968.75,-295 967,-290 965.25,-295 968.75,-295"/>
</g>
<!-- function&#45;9&#45;ImmVal&#45;&gt;primitive&#45;i64&#45;2032 -->
<g id="edge9" class="edge">
<title>function&#45;9&#45;ImmVal:s&#45;&gt;primitive&#45;i64&#45;2032</title>
<path fill="none" stroke="black" d="M193,-332C193,-318.84 193,-304.11 193,-292.3"/>
<polygon fill="black" stroke="black" points="194.75,-295 193,-290 191.25,-295 194.75,-295"/>
</g>
<!-- function&#45;2&#45;ImmLabel&#45;&gt;primitive&#45;String&#45;5 -->
<g id="edge10" class="edge">
<title>function&#45;2&#45;ImmLabel:s&#45;&gt;primitive&#45;String&#45;5</title>
<path fill="none" stroke="black" d="M1074,-332C1074,-318.84 1074,-304.11 1074,-292.3"/>
<polygon fill="black" stroke="black" points="1075.75,-295 1074,-290 1072.25,-295 1075.75,-295"/>
</g>
<!-- function&#45;7&#45;ImmVal&#45;&gt;primitive&#45;i64&#45;2008 -->
<g id="edge11" class="edge">
<title>function&#45;7&#45;ImmVal:s&#45;&gt;primitive&#45;i64&#45;2008</title>
<path fill="none" stroke="black" d="M613,-332C613,-318.84 613,-304.11 613,-292.3"/>
<polygon fill="black" stroke="black" points="614.75,-295 613,-290 611.25,-295 614.75,-295"/>
</g>
<!-- function&#45;3&#45;ImmVal&#45;&gt;primitive&#45;i64&#45;2024 -->
<g id="edge12" class="edge">
<title>function&#45;3&#45;ImmVal:s&#45;&gt;primitive&#45;i64&#45;2024</title>
<path fill="none" stroke="black" d="M119,-332C119,-318.84 119,-304.11 119,-292.3"/>
<polygon fill="black" stroke="black" points="120.75,-295 119,-290 117.25,-295 120.75,-295"/>
</g>
<!-- function&#45;6&#45;ImmVal&#45;&gt;primitive&#45;i64&#45;2012 -->
<g id="edge13" class="edge">
<title>function&#45;6&#45;ImmVal:s&#45;&gt;primitive&#45;i64&#45;2012</title>
<path fill="none" stroke="black" d="M465,-332C465,-318.84 465,-304.11 465,-292.3"/>
<polygon fill="black" stroke="black" points="466.75,-295 465,-290 463.25,-295 466.75,-295"/>
</g>
<!-- function&#45;2&#45;RegVal&#45;&gt;primitive&#45;String&#45;4 -->
<g id="edge14" class="edge">
<title>function&#45;2&#45;RegVal:s&#45;&gt;primitive&#45;String&#45;4</title>
<path fill="none" stroke="black" d="M1154,-332C1154,-318.84 1154,-304.11 1154,-292.3"/>
<polygon fill="black" stroke="black" points="1155.75,-295 1154,-290 1152.25,-295 1155.75,-295"/>
</g>
<!-- function&#45;2&#45;Lw&#45;&gt;function&#45;3&#45;ImmVal -->
<g id="edge16" class="edge">
<title>function&#45;2&#45;Lw:s&#45;&gt;function&#45;3&#45;ImmVal</title>
<path fill="none" stroke="black" d="M144,-411C144,-396.86 138.34,-382.14 132.4,-370.59"/>
<polygon fill="black" stroke="black" points="135.62,-371.65 131.04,-369 132.97,-373.93 135.62,-371.65"/>
</g>
<!-- function&#45;2&#45;Lw&#45;&gt;function&#45;0&#45;Add -->
<g id="edge15" class="edge">
<title>function&#45;2&#45;Lw:s&#45;&gt;function&#45;0&#45;Add</title>
<path fill="none" stroke="black" d="M128,-411C128,-336.94 222.91,-403.36 290,-372 290.36,-371.83 290.71,-371.66 291.07,-371.49"/>
<polygon fill="black" stroke="black" points="292.11,-372.92 295.67,-369 290.44,-369.84 292.11,-372.92"/>
</g>
<!-- function&#45;0&#45;Add&#45;&gt;function&#45;0&#45;Addi -->
<g id="edge24" class="edge">
<title>function&#45;0&#45;Add:s&#45;&gt;function&#45;0&#45;Addi</title>
<path fill="none" stroke="black" d="M330,-332C330,-318.84 330,-304.11 330,-292.3"/>
<polygon fill="black" stroke="black" points="331.75,-295 330,-290 328.25,-295 331.75,-295"/>
</g>
<!-- function&#45;0&#45;Add&#45;&gt;function&#45;1&#45;RegVal -->
<g id="edge23" class="edge">
<title>function&#45;0&#45;Add:s&#45;&gt;function&#45;1&#45;RegVal</title>
<path fill="none" stroke="black" d="M312,-332C312,-315.85 301.59,-301.53 290.27,-290.73"/>
<polygon fill="black" stroke="black" points="294.35,-291.91 289.41,-290 292.08,-294.58 294.35,-291.91"/>
</g>
<!-- function&#45;0&#45;RegVal&#45;&gt;primitive&#45;String&#45;0 -->
<g id="edge17" class="edge">
<title>function&#45;0&#45;RegVal:s&#45;&gt;primitive&#45;String&#45;0</title>
<path fill="none" stroke="black" d="M859,-253C859,-239.78 860.37,-225.04 861.8,-213.25"/>
<polygon fill="black" stroke="black" points="862.74,-216.29 862.46,-211 859.38,-215.31 862.74,-216.29"/>
</g>
<!-- function&#45;0&#45;Addi&#45;&gt;function&#45;1&#45;ImmVal -->
<g id="edge19" class="edge">
<title>function&#45;0&#45;Addi:s&#45;&gt;function&#45;1&#45;ImmVal</title>
<path fill="none" stroke="black" d="M340,-253C340,-239.82 339.32,-225.09 338.6,-213.29"/>
<polygon fill="black" stroke="black" points="340.71,-215.7 338.27,-211 337.25,-216.2 340.71,-215.7"/>
</g>
<!-- function&#45;0&#45;Addi&#45;&gt;function&#45;0&#45;Lui -->
<g id="edge18" class="edge">
<title>function&#45;0&#45;Addi:s&#45;&gt;function&#45;0&#45;Lui</title>
<path fill="none" stroke="black" d="M320,-253C320,-249.43 351.52,-227.69 376.61,-210.96"/>
<polygon fill="black" stroke="black" points="376.52,-215.38 377,-210.11 373.34,-213.93 376.52,-215.38"/>
</g>
<!-- function&#45;0&#45;Lui&#45;&gt;function&#45;0&#45;ImmVal -->
<g id="edge39" class="edge">
<title>function&#45;0&#45;Lui:s&#45;&gt;function&#45;0&#45;ImmVal</title>
<path fill="none" stroke="black" d="M407,-174C407,-160.84 407,-146.11 407,-134.3"/>
<polygon fill="black" stroke="black" points="408.75,-137 407,-132 405.25,-137 408.75,-137"/>
</g>
<!-- function&#45;1&#45;Lui&#45;&gt;function&#45;0&#45;ImmLabel -->
<g id="edge20" class="edge">
<title>function&#45;1&#45;Lui:s&#45;&gt;function&#45;0&#45;ImmLabel</title>
<path fill="none" stroke="black" d="M966,-411C966,-397.84 966,-383.11 966,-371.3"/>
<polygon fill="black" stroke="black" points="967.75,-374 966,-369 964.25,-374 967.75,-374"/>
</g>
<!-- function&#45;1&#45;Addi&#45;&gt;function&#45;9&#45;ImmVal -->
<g id="edge22" class="edge">
<title>function&#45;1&#45;Addi:s&#45;&gt;function&#45;9&#45;ImmVal</title>
<path fill="none" stroke="black" d="M238,-411C238,-395.23 228.34,-380.76 217.98,-369.78"/>
<polygon fill="black" stroke="black" points="221.7,-369.71 216.45,-369 220.11,-372.83 221.7,-369.71"/>
</g>
<!-- function&#45;1&#45;Addi&#45;&gt;function&#45;1&#45;Add -->
<g id="edge21" class="edge">
<title>function&#45;1&#45;Addi:s&#45;&gt;function&#45;1&#45;Add</title>
<path fill="none" stroke="black" d="M218,-411C218,-395.23 227.66,-380.76 238.02,-369.78"/>
<polygon fill="black" stroke="black" points="235.89,-372.83 239.55,-369 234.3,-369.71 235.89,-372.83"/>
</g>
<!-- function&#45;1&#45;Add&#45;&gt;function&#45;0&#45;Addi -->
<g id="edge25" class="edge">
<title>function&#45;1&#45;Add:s&#45;&gt;function&#45;0&#45;Addi</title>
<path fill="none" stroke="black" d="M254,-332C254,-325.65 279.77,-305.68 301.29,-290.1"/>
<polygon fill="black" stroke="black" points="297.54,-293.48 301.53,-290 296.24,-290.23 297.54,-293.48"/>
</g>
<!-- function&#45;1&#45;Add&#45;&gt;function&#45;1&#45;RegVal -->
<g id="edge26" class="edge">
<title>function&#45;1&#45;Add:s&#45;&gt;function&#45;1&#45;RegVal</title>
<path fill="none" stroke="black" d="M272,-332C272,-318.76 269.75,-304.14 267.39,-292.42"/>
<polygon fill="black" stroke="black" points="269.95,-293.84 266.3,-290 266.75,-295.28 269.95,-293.84"/>
</g>
<!-- function&#45;1&#45;RegVal&#45;&gt;primitive&#45;String&#45;1 -->
<g id="edge44" class="edge">
<title>function&#45;1&#45;RegVal:s&#45;&gt;primitive&#45;String&#45;1</title>
<path fill="none" stroke="black" d="M263,-253C263,-239.84 263,-225.11 263,-213.3"/>
<polygon fill="black" stroke="black" points="264.75,-216 263,-211 261.25,-216 264.75,-216"/>
</g>
<!-- function&#45;4&#45;Lw&#45;&gt;function&#45;5&#45;ImmVal -->
<g id="edge28" class="edge">
<title>function&#45;4&#45;Lw:s&#45;&gt;function&#45;5&#45;ImmVal</title>
<path fill="none" stroke="black" d="M352,-411C352,-395.82 360.48,-381.32 369.52,-370.17"/>
<polygon fill="black" stroke="black" points="368.24,-373.6 370.87,-369 365.95,-370.95 368.24,-373.6"/>
</g>
<!-- function&#45;4&#45;Lw&#45;&gt;function&#45;0&#45;Add -->
<g id="edge27" class="edge">
<title>function&#45;4&#45;Lw:s&#45;&gt;function&#45;0&#45;Add</title>
<path fill="none" stroke="black" d="M336,-411C336,-397.43 332.57,-382.65 328.98,-370.93"/>
<polygon fill="black" stroke="black" points="331.93,-371.82 327.45,-369 329.19,-374 331.93,-371.82"/>
</g>
<!-- function&#45;5&#45;Lw&#45;&gt;function&#45;6&#45;ImmVal -->
<g id="edge30" class="edge">
<title>function&#45;5&#45;Lw:s&#45;&gt;function&#45;6&#45;ImmVal</title>
<path fill="none" stroke="black" d="M434,-411C434,-396.44 440.92,-381.8 448.22,-370.41"/>
<polygon fill="black" stroke="black" points="447.14,-373.37 450.13,-369 445.07,-370.55 447.14,-373.37"/>
</g>
<!-- function&#45;5&#45;Lw&#45;&gt;function&#45;1&#45;Add -->
<g id="edge29" class="edge">
<title>function&#45;5&#45;Lw:s&#45;&gt;function&#45;1&#45;Add</title>
<path fill="none" stroke="black" d="M418,-411C418,-353.23 345.47,-398.24 294,-372 293.66,-371.83 293.33,-371.65 292.99,-371.48"/>
<polygon fill="black" stroke="black" points="293.85,-369.95 288.64,-369 292.12,-372.99 293.85,-369.95"/>
</g>
<!-- function&#45;0&#45;Lw&#45;&gt;function&#45;1&#45;ImmLabel -->
<g id="edge32" class="edge">
<title>function&#45;0&#45;Lw:s&#45;&gt;function&#45;1&#45;ImmLabel</title>
<path fill="none" stroke="black" d="M765,-332C765,-318.84 765,-304.11 765,-292.3"/>
<polygon fill="black" stroke="black" points="766.75,-295 765,-290 763.25,-295 766.75,-295"/>
</g>
<!-- function&#45;0&#45;Lw&#45;&gt;function&#45;0&#45;RegVal -->
<g id="edge31" class="edge">
<title>function&#45;0&#45;Lw:s&#45;&gt;function&#45;0&#45;RegVal</title>
<path fill="none" stroke="black" d="M749,-332C749,-323.18 792.67,-300.69 824.72,-285.36"/>
<polygon fill="black" stroke="black" points="823.57,-288.86 826,-284.16 821.16,-286.32 823.57,-288.86"/>
</g>
<!-- function&#45;3&#45;Lw&#45;&gt;function&#45;4&#45;ImmVal -->
<g id="edge34" class="edge">
<title>function&#45;3&#45;Lw:s&#45;&gt;function&#45;4&#45;ImmVal</title>
<path fill="none" stroke="black" d="M76,-411C76,-396.44 69.08,-381.8 61.78,-370.41"/>
<polygon fill="black" stroke="black" points="64.93,-370.55 59.87,-369 62.86,-373.37 64.93,-370.55"/>
</g>
<!-- function&#45;3&#45;Lw&#45;&gt;function&#45;1&#45;Add -->
<g id="edge33" class="edge">
<title>function&#45;3&#45;Lw:s&#45;&gt;function&#45;1&#45;Add</title>
<path fill="none" stroke="black" d="M60,-411C60,-334.35 157.54,-402.18 228,-372 228.52,-371.78 229.04,-371.55 229.56,-371.31"/>
<polygon fill="black" stroke="black" points="230.54,-372.78 234.25,-369 228.99,-369.64 230.54,-372.78"/>
</g>
<!-- function&#45;1&#45;Lw&#45;&gt;function&#45;2&#45;ImmVal -->
<g id="edge36" class="edge">
<title>function&#45;1&#45;Lw:s&#45;&gt;function&#45;2&#45;ImmVal</title>
<path fill="none" stroke="black" d="M520,-411C520,-397.31 524.29,-382.63 528.79,-371"/>
<polygon fill="black" stroke="black" points="529.19,-374.27 529.72,-369 526.02,-372.79 529.19,-374.27"/>
</g>
<!-- function&#45;1&#45;Lw&#45;&gt;function&#45;1&#45;Add -->
<g id="edge35" class="edge">
<title>function&#45;1&#45;Lw:s&#45;&gt;function&#45;1&#45;Add</title>
<path fill="none" stroke="black" d="M504,-411C504,-363.54 337.51,-390.96 294,-372 293.5,-371.78 293,-371.56 292.51,-371.32"/>
<polygon fill="black" stroke="black" points="293.32,-369.77 288.07,-369 291.69,-372.87 293.32,-369.77"/>
</g>
<!-- function&#45;6&#45;Lw&#45;&gt;function&#45;7&#45;ImmVal -->
<g id="edge38" class="edge">
<title>function&#45;6&#45;Lw:s&#45;&gt;function&#45;7&#45;ImmVal</title>
<path fill="none" stroke="black" d="M600,-411C600,-397.53 602.98,-382.75 606.08,-371.01"/>
<polygon fill="black" stroke="black" points="606.11,-374.13 607.41,-369 603.19,-372.2 606.11,-374.13"/>
</g>
<!-- function&#45;6&#45;Lw&#45;&gt;function&#45;0&#45;Add -->
<g id="edge37" class="edge">
<title>function&#45;6&#45;Lw:s&#45;&gt;function&#45;0&#45;Add</title>
<path fill="none" stroke="black" d="M584,-411C584,-359.6 403.87,-390.72 356,-372 355.31,-371.73 354.62,-371.44 353.93,-371.15"/>
<polygon fill="black" stroke="black" points="354.65,-369.55 349.39,-369 353.16,-372.72 354.65,-369.55"/>
</g>
<!-- function&#45;0&#45;Slti&#45;&gt;function&#45;8&#45;ImmVal -->
<g id="edge41" class="edge">
<title>function&#45;0&#45;Slti:s&#45;&gt;function&#45;8&#45;ImmVal</title>
<path fill="none" stroke="black" d="M730,-411C730,-395.48 720.79,-381.05 710.9,-370.02"/>
<polygon fill="black" stroke="black" points="714.42,-370.14 709.24,-369 712.58,-373.11 714.42,-370.14"/>
</g>
<!-- function&#45;0&#45;Slti&#45;&gt;function&#45;0&#45;Lw -->
<g id="edge40" class="edge">
<title>function&#45;0&#45;Slti:s&#45;&gt;function&#45;0&#45;Lw</title>
<path fill="none" stroke="black" d="M714,-411C714,-395.48 723.21,-381.05 733.1,-370.02"/>
<polygon fill="black" stroke="black" points="731.42,-373.11 734.76,-369 729.58,-370.14 731.42,-373.11"/>
</g>
<!-- function&#45;0&#45;Jalr&#45;&gt;function&#45;2&#45;ImmLabel -->
<g id="edge43" class="edge">
<title>function&#45;0&#45;Jalr:s&#45;&gt;function&#45;2&#45;ImmLabel</title>
<path fill="none" stroke="black" d="M1118,-411C1118,-395.23 1108.34,-380.76 1097.98,-369.78"/>
<polygon fill="black" stroke="black" points="1101.7,-369.71 1096.45,-369 1100.11,-372.83 1101.7,-369.71"/>
</g>
<!-- function&#45;0&#45;Jalr&#45;&gt;function&#45;2&#45;RegVal -->
<g id="edge42" class="edge">
<title>function&#45;0&#45;Jalr:s&#45;&gt;function&#45;2&#45;RegVal</title>
<path fill="none" stroke="black" d="M1102,-411C1102,-394.72 1112.62,-380.39 1124.16,-369.62"/>
<polygon fill="black" stroke="black" points="1121.89,-373.22 1125.1,-369 1119.96,-370.3 1121.89,-373.22"/>
</g>
<!-- function&#45;4&#45;ImmVal -->
<g id="node1" class="node">
<title>function&#45;4&#45;ImmVal</title>
<g id="a_node1"><a xlink:title="Imm&#45;15: function&#45;4&#45;ImmVal">
<path fill="white" stroke="transparent" d="M24.67,-332C24.67,-332 65.33,-332 65.33,-332 70.67,-332 76,-337.33 76,-342.67 76,-342.67 76,-353.33 76,-353.33 76,-358.67 70.67,-364 65.33,-364 65.33,-364 24.67,-364 24.67,-364 19.33,-364 14,-358.67 14,-353.33 14,-353.33 14,-342.67 14,-342.67 14,-337.33 19.33,-332 24.67,-332"/>
<text text-anchor="start" x="19" y="-344.3" font-family="Helvetica,sans-Serif" font-size="14.00">ImmVal</text>
<path fill="none" stroke="black" d="M24.67,-332C24.67,-332 65.33,-332 65.33,-332 70.67,-332 76,-337.33 76,-342.67 76,-342.67 76,-353.33 76,-353.33 76,-358.67 70.67,-364 65.33,-364 65.33,-364 24.67,-364 24.67,-364 19.33,-364 14,-358.67 14,-353.33 14,-353.33 14,-342.67 14,-342.67 14,-337.33 19.33,-332 24.67,-332"/>
</a>
</g>
</g>
<!-- primitive&#45;i64&#45;2020 -->
<g id="node2" class="node">
<title>primitive&#45;i64&#45;2020</title>
<g id="a_node2"><a xlink:title="i64&#45;2020: primitive&#45;i64&#45;2020">
<path fill="white" stroke="transparent" d="M32.17,-253C32.17,-253 57.83,-253 57.83,-253 63.17,-253 68.5,-258.33 68.5,-263.67 68.5,-263.67 68.5,-274.33 68.5,-274.33 68.5,-279.67 63.17,-285 57.83,-285 57.83,-285 32.17,-285 32.17,-285 26.83,-285 21.5,-279.67 21.5,-274.33 21.5,-274.33 21.5,-263.67 21.5,-263.67 21.5,-258.33 26.83,-253 32.17,-253"/>
<text text-anchor="start" x="27" y="-265.3" font-family="Helvetica,sans-Serif" font-size="14.00">2020</text>
<path fill="none" stroke="black" d="M32.17,-253C32.17,-253 57.83,-253 57.83,-253 63.17,-253 68.5,-258.33 68.5,-263.67 68.5,-263.67 68.5,-274.33 68.5,-274.33 68.5,-279.67 63.17,-285 57.83,-285 57.83,-285 32.17,-285 32.17,-285 26.83,-285 21.5,-279.67 21.5,-274.33 21.5,-274.33 21.5,-263.67 21.5,-263.67 21.5,-258.33 26.83,-253 32.17,-253"/>
</a>
</g>
</g>
<!-- function&#45;8&#45;ImmVal -->
<g id="node3" class="node">
<title>function&#45;8&#45;ImmVal</title>
<g id="a_node3"><a xlink:title="Imm&#45;23: function&#45;8&#45;ImmVal">
<path fill="white" stroke="transparent" d="M666.67,-332C666.67,-332 707.33,-332 707.33,-332 712.67,-332 718,-337.33 718,-342.67 718,-342.67 718,-353.33 718,-353.33 718,-358.67 712.67,-364 707.33,-364 707.33,-364 666.67,-364 666.67,-364 661.33,-364 656,-358.67 656,-353.33 656,-353.33 656,-342.67 656,-342.67 656,-337.33 661.33,-332 666.67,-332"/>
<text text-anchor="start" x="661" y="-344.3" font-family="Helvetica,sans-Serif" font-size="14.00">ImmVal</text>
<path fill="none" stroke="black" d="M666.67,-332C666.67,-332 707.33,-332 707.33,-332 712.67,-332 718,-337.33 718,-342.67 718,-342.67 718,-353.33 718,-353.33 718,-358.67 712.67,-364 707.33,-364 707.33,-364 666.67,-364 666.67,-364 661.33,-364 656,-358.67 656,-353.33 656,-353.33 656,-342.67 656,-342.67 656,-337.33 661.33,-332 666.67,-332"/>
</a>
</g>
</g>
<!-- primitive&#45;i64&#45;1 -->
<g id="node4" class="node">
<title>primitive&#45;i64&#45;1</title>
<g id="a_node4"><a xlink:title="i64&#45;1: primitive&#45;i64&#45;1">
<path fill="white" stroke="transparent" d="M681.67,-253C681.67,-253 692.33,-253 692.33,-253 697.67,-253 703,-258.33 703,-263.67 703,-263.67 703,-274.33 703,-274.33 703,-279.67 697.67,-285 692.33,-285 692.33,-285 681.67,-285 681.67,-285 676.33,-285 671,-279.67 671,-274.33 671,-274.33 671,-263.67 671,-263.67 671,-258.33 676.33,-253 681.67,-253"/>
<text text-anchor="start" x="682" y="-265.3" font-family="Helvetica,sans-Serif" font-size="14.00">1</text>
<path fill="none" stroke="black" d="M681.67,-253C681.67,-253 692.33,-253 692.33,-253 697.67,-253 703,-258.33 703,-263.67 703,-263.67 703,-274.33 703,-274.33 703,-279.67 697.67,-285 692.33,-285 692.33,-285 681.67,-285 681.67,-285 676.33,-285 671,-279.67 671,-274.33 671,-274.33 671,-263.67 671,-263.67 671,-258.33 676.33,-253 681.67,-253"/>
</a>
</g>
</g>
<!-- function&#45;1&#45;ImmLabel -->
<g id="node5" class="node">
<title>function&#45;1&#45;ImmLabel</title>
<g id="a_node5"><a xlink:title="Imm&#45;8: function&#45;1&#45;ImmLabel">
<path fill="white" stroke="transparent" d="M736.17,-253C736.17,-253 793.83,-253 793.83,-253 799.17,-253 804.5,-258.33 804.5,-263.67 804.5,-263.67 804.5,-274.33 804.5,-274.33 804.5,-279.67 799.17,-285 793.83,-285 793.83,-285 736.17,-285 736.17,-285 730.83,-285 725.5,-279.67 725.5,-274.33 725.5,-274.33 725.5,-263.67 725.5,-263.67 725.5,-258.33 730.83,-253 736.17,-253"/>
<text text-anchor="start" x="731" y="-265.3" font-family="Helvetica,sans-Serif" font-size="14.00">ImmLabel</text>
<path fill="none" stroke="black" d="M736.17,-253C736.17,-253 793.83,-253 793.83,-253 799.17,-253 804.5,-258.33 804.5,-263.67 804.5,-263.67 804.5,-274.33 804.5,-274.33 804.5,-279.67 799.17,-285 793.83,-285 793.83,-285 736.17,-285 736.17,-285 730.83,-285 725.5,-279.67 725.5,-274.33 725.5,-274.33 725.5,-263.67 725.5,-263.67 725.5,-258.33 730.83,-253 736.17,-253"/>
</a>
</g>
</g>
<!-- primitive&#45;String&#45;3 -->
<g id="node6" class="node">
<title>primitive&#45;String&#45;3</title>
<g id="a_node6"><a xlink:title="String&#45;3: primitive&#45;String&#45;3">
<path fill="white" stroke="transparent" d="M702.67,-174C702.67,-174 815.33,-174 815.33,-174 820.67,-174 826,-179.33 826,-184.67 826,-184.67 826,-195.33 826,-195.33 826,-200.67 820.67,-206 815.33,-206 815.33,-206 702.67,-206 702.67,-206 697.33,-206 692,-200.67 692,-195.33 692,-195.33 692,-184.67 692,-184.67 692,-179.33 697.33,-174 702.67,-174"/>
<text text-anchor="start" x="697" y="-186.3" font-family="Helvetica,sans-Serif" font-size="14.00">&quot;%lo(result_sink)&quot;</text>
<path fill="none" stroke="black" d="M702.67,-174C702.67,-174 815.33,-174 815.33,-174 820.67,-174 826,-179.33 826,-184.67 826,-184.67 826,-195.33 826,-195.33 826,-200.67 820.67,-206 815.33,-206 815.33,-206 702.67,-206 702.67,-206 697.33,-206 692,-200.67 692,-195.33 692,-195.33 692,-184.67 692,-184.67 692,-179.33 697.33,-174 702.67,-174"/>
</a>
</g>
</g>
<!-- function&#45;2&#45;ImmVal -->
<g id="node7" class="node">
<title>function&#45;2&#45;ImmVal</title>
<g id="a_node7"><a xlink:title="Imm&#45;11: function&#45;2&#45;ImmVal">
<path fill="white" stroke="transparent" d="M518.67,-332C518.67,-332 559.33,-332 559.33,-332 564.67,-332 570,-337.33 570,-342.67 570,-342.67 570,-353.33 570,-353.33 570,-358.67 564.67,-364 559.33,-364 559.33,-364 518.67,-364 518.67,-364 513.33,-364 508,-358.67 508,-353.33 508,-353.33 508,-342.67 508,-342.67 508,-337.33 513.33,-332 518.67,-332"/>
<text text-anchor="start" x="513" y="-344.3" font-family="Helvetica,sans-Serif" font-size="14.00">ImmVal</text>
<path fill="none" stroke="black" d="M518.67,-332C518.67,-332 559.33,-332 559.33,-332 564.67,-332 570,-337.33 570,-342.67 570,-342.67 570,-353.33 570,-353.33 570,-358.67 564.67,-364 559.33,-364 559.33,-364 518.67,-364 518.67,-364 513.33,-364 508,-358.67 508,-353.33 508,-353.33 508,-342.67 508,-342.67 508,-337.33 513.33,-332 518.67,-332"/>
</a>
</g>
</g>
<!-- primitive&#45;i64&#45;2028 -->
<g id="node8" class="node">
<title>primitive&#45;i64&#45;2028</title>
<g id="a_node8"><a xlink:title="i64&#45;2028: primitive&#45;i64&#45;2028">
<path fill="white" stroke="transparent" d="M526.17,-253C526.17,-253 551.83,-253 551.83,-253 557.17,-253 562.5,-258.33 562.5,-263.67 562.5,-263.67 562.5,-274.33 562.5,-274.33 562.5,-279.67 557.17,-285 551.83,-285 551.83,-285 526.17,-285 526.17,-285 520.83,-285 515.5,-279.67 515.5,-274.33 515.5,-274.33 515.5,-263.67 515.5,-263.67 515.5,-258.33 520.83,-253 526.17,-253"/>
<text text-anchor="start" x="521" y="-265.3" font-family="Helvetica,sans-Serif" font-size="14.00">2028</text>
<path fill="none" stroke="black" d="M526.17,-253C526.17,-253 551.83,-253 551.83,-253 557.17,-253 562.5,-258.33 562.5,-263.67 562.5,-263.67 562.5,-274.33 562.5,-274.33 562.5,-279.67 557.17,-285 551.83,-285 551.83,-285 526.17,-285 526.17,-285 520.83,-285 515.5,-279.67 515.5,-274.33 515.5,-274.33 515.5,-263.67 515.5,-263.67 515.5,-258.33 520.83,-253 526.17,-253"/>
</a>
</g>
</g>
<!-- function&#45;0&#45;ImmVal -->
<g id="node9" class="node">
<title>function&#45;0&#45;ImmVal</title>
<g id="a_node9"><a xlink:title="Imm&#45;2: function&#45;0&#45;ImmVal">
<path fill="white" stroke="transparent" d="M386.67,-95C386.67,-95 427.33,-95 427.33,-95 432.67,-95 438,-100.33 438,-105.67 438,-105.67 438,-116.33 438,-116.33 438,-121.67 432.67,-127 427.33,-127 427.33,-127 386.67,-127 386.67,-127 381.33,-127 376,-121.67 376,-116.33 376,-116.33 376,-105.67 376,-105.67 376,-100.33 381.33,-95 386.67,-95"/>
<text text-anchor="start" x="381" y="-107.3" font-family="Helvetica,sans-Serif" font-size="14.00">ImmVal</text>
<path fill="none" stroke="black" d="M386.67,-95C386.67,-95 427.33,-95 427.33,-95 432.67,-95 438,-100.33 438,-105.67 438,-105.67 438,-116.33 438,-116.33 438,-121.67 432.67,-127 427.33,-127 427.33,-127 386.67,-127 386.67,-127 381.33,-127 376,-121.67 376,-116.33 376,-116.33 376,-105.67 376,-105.67 376,-100.33 381.33,-95 386.67,-95"/>
</a>
</g>
</g>
<!-- primitive&#45;i64&#45;9 -->
<g id="node10" class="node">
<title>primitive&#45;i64&#45;9</title>
<g id="a_node10"><a xlink:title="i64&#45;9: primitive&#45;i64&#45;9">
<path fill="white" stroke="transparent" d="M401.67,-16C401.67,-16 412.33,-16 412.33,-16 417.67,-16 423,-21.33 423,-26.67 423,-26.67 423,-37.33 423,-37.33 423,-42.67 417.67,-48 412.33,-48 412.33,-48 401.67,-48 401.67,-48 396.33,-48 391,-42.67 391,-37.33 391,-37.33 391,-26.67 391,-26.67 391,-21.33 396.33,-16 401.67,-16"/>
<text text-anchor="start" x="402" y="-28.3" font-family="Helvetica,sans-Serif" font-size="14.00">9</text>
<path fill="none" stroke="black" d="M401.67,-16C401.67,-16 412.33,-16 412.33,-16 417.67,-16 423,-21.33 423,-26.67 423,-26.67 423,-37.33 423,-37.33 423,-42.67 417.67,-48 412.33,-48 412.33,-48 401.67,-48 401.67,-48 396.33,-48 391,-42.67 391,-37.33 391,-37.33 391,-26.67 391,-26.67 391,-21.33 396.33,-16 401.67,-16"/>
</a>
</g>
</g>
<!-- function&#45;5&#45;ImmVal -->
<g id="node11" class="node">
<title>function&#45;5&#45;ImmVal</title>
<g id="a_node11"><a xlink:title="Imm&#45;17: function&#45;5&#45;ImmVal">
<path fill="white" stroke="transparent" d="M370.67,-332C370.67,-332 411.33,-332 411.33,-332 416.67,-332 422,-337.33 422,-342.67 422,-342.67 422,-353.33 422,-353.33 422,-358.67 416.67,-364 411.33,-364 411.33,-364 370.67,-364 370.67,-364 365.33,-364 360,-358.67 360,-353.33 360,-353.33 360,-342.67 360,-342.67 360,-337.33 365.33,-332 370.67,-332"/>
<text text-anchor="start" x="365" y="-344.3" font-family="Helvetica,sans-Serif" font-size="14.00">ImmVal</text>
<path fill="none" stroke="black" d="M370.67,-332C370.67,-332 411.33,-332 411.33,-332 416.67,-332 422,-337.33 422,-342.67 422,-342.67 422,-353.33 422,-353.33 422,-358.67 416.67,-364 411.33,-364 411.33,-364 370.67,-364 370.67,-364 365.33,-364 360,-358.67 360,-353.33 360,-353.33 360,-342.67 360,-342.67 360,-337.33 365.33,-332 370.67,-332"/>
</a>
</g>
</g>
<!-- primitive&#45;i64&#45;2016 -->
<g id="node12" class="node">
<title>primitive&#45;i64&#45;2016</title>
<g id="a_node12"><a xlink:title="i64&#45;2016: primitive&#45;i64&#45;2016">
<path fill="white" stroke="transparent" d="M383.17,-253C383.17,-253 408.83,-253 408.83,-253 414.17,-253 419.5,-258.33 419.5,-263.67 419.5,-263.67 419.5,-274.33 419.5,-274.33 419.5,-279.67 414.17,-285 408.83,-285 408.83,-285 383.17,-285 383.17,-285 377.83,-285 372.5,-279.67 372.5,-274.33 372.5,-274.33 372.5,-263.67 372.5,-263.67 372.5,-258.33 377.83,-253 383.17,-253"/>
<text text-anchor="start" x="378" y="-265.3" font-family="Helvetica,sans-Serif" font-size="14.00">2016</text>
<path fill="none" stroke="black" d="M383.17,-253C383.17,-253 408.83,-253 408.83,-253 414.17,-253 419.5,-258.33 419.5,-263.67 419.5,-263.67 419.5,-274.33 419.5,-274.33 419.5,-279.67 414.17,-285 408.83,-285 408.83,-285 383.17,-285 383.17,-285 377.83,-285 372.5,-279.67 372.5,-274.33 372.5,-274.33 372.5,-263.67 372.5,-263.67 372.5,-258.33 377.83,-253 383.17,-253"/>
</a>
</g>
</g>
<!-- function&#45;1&#45;ImmVal -->
<g id="node13" class="node">
<title>function&#45;1&#45;ImmVal</title>
<g id="a_node13"><a xlink:title="Imm&#45;6: function&#45;1&#45;ImmVal">
<path fill="white" stroke="transparent" d="M316.67,-174C316.67,-174 357.33,-174 357.33,-174 362.67,-174 368,-179.33 368,-184.67 368,-184.67 368,-195.33 368,-195.33 368,-200.67 362.67,-206 357.33,-206 357.33,-206 316.67,-206 316.67,-206 311.33,-206 306,-200.67 306,-195.33 306,-195.33 306,-184.67 306,-184.67 306,-179.33 311.33,-174 316.67,-174"/>
<text text-anchor="start" x="311" y="-186.3" font-family="Helvetica,sans-Serif" font-size="14.00">ImmVal</text>
<path fill="none" stroke="black" d="M316.67,-174C316.67,-174 357.33,-174 357.33,-174 362.67,-174 368,-179.33 368,-184.67 368,-184.67 368,-195.33 368,-195.33 368,-200.67 362.67,-206 357.33,-206 357.33,-206 316.67,-206 316.67,-206 311.33,-206 306,-200.67 306,-195.33 306,-195.33 306,-184.67 306,-184.67 306,-179.33 311.33,-174 316.67,-174"/>
</a>
</g>
</g>
<!-- primitive&#45;i64&#45;1136 -->
<g id="node14" class="node">
<title>primitive&#45;i64&#45;1136</title>
<g id="a_node14"><a xlink:title="i64&#45;1136: primitive&#45;i64&#45;1136">
<path fill="white" stroke="transparent" d="M324.17,-95C324.17,-95 349.83,-95 349.83,-95 355.17,-95 360.5,-100.33 360.5,-105.67 360.5,-105.67 360.5,-116.33 360.5,-116.33 360.5,-121.67 355.17,-127 349.83,-127 349.83,-127 324.17,-127 324.17,-127 318.83,-127 313.5,-121.67 313.5,-116.33 313.5,-116.33 313.5,-105.67 313.5,-105.67 313.5,-100.33 318.83,-95 324.17,-95"/>
<text text-anchor="start" x="319" y="-107.3" font-family="Helvetica,sans-Serif" font-size="14.00">1136</text>
<path fill="none" stroke="black" d="M324.17,-95C324.17,-95 349.83,-95 349.83,-95 355.17,-95 360.5,-100.33 360.5,-105.67 360.5,-105.67 360.5,-116.33 360.5,-116.33 360.5,-121.67 355.17,-127 349.83,-127 349.83,-127 324.17,-127 324.17,-127 318.83,-127 313.5,-121.67 313.5,-116.33 313.5,-116.33 313.5,-105.67 313.5,-105.67 313.5,-100.33 318.83,-95 324.17,-95"/>
</a>
</g>
</g>
<!-- function&#45;0&#45;ImmLabel -->
<g id="node15" class="node">
<title>function&#45;0&#45;ImmLabel</title>
<g id="a_node15"><a xlink:title="Imm&#45;4: function&#45;0&#45;ImmLabel">
<path fill="white" stroke="transparent" d="M937.17,-332C937.17,-332 994.83,-332 994.83,-332 1000.17,-332 1005.5,-337.33 1005.5,-342.67 1005.5,-342.67 1005.5,-353.33 1005.5,-353.33 1005.5,-358.67 1000.17,-364 994.83,-364 994.83,-364 937.17,-364 937.17,-364 931.83,-364 926.5,-358.67 926.5,-353.33 926.5,-353.33 926.5,-342.67 926.5,-342.67 926.5,-337.33 931.83,-332 937.17,-332"/>
<text text-anchor="start" x="932" y="-344.3" font-family="Helvetica,sans-Serif" font-size="14.00">ImmLabel</text>
<path fill="none" stroke="black" d="M937.17,-332C937.17,-332 994.83,-332 994.83,-332 1000.17,-332 1005.5,-337.33 1005.5,-342.67 1005.5,-342.67 1005.5,-353.33 1005.5,-353.33 1005.5,-358.67 1000.17,-364 994.83,-364 994.83,-364 937.17,-364 937.17,-364 931.83,-364 926.5,-358.67 926.5,-353.33 926.5,-353.33 926.5,-342.67 926.5,-342.67 926.5,-337.33 931.83,-332 937.17,-332"/>
</a>
</g>
</g>
<!-- primitive&#45;String&#45;2 -->
<g id="node16" class="node">
<title>primitive&#45;String&#45;2</title>
<g id="a_node16"><a xlink:title="String&#45;2: primitive&#45;String&#45;2">
<path fill="white" stroke="transparent" d="M910.17,-253C910.17,-253 1023.83,-253 1023.83,-253 1029.17,-253 1034.5,-258.33 1034.5,-263.67 1034.5,-263.67 1034.5,-274.33 1034.5,-274.33 1034.5,-279.67 1029.17,-285 1023.83,-285 1023.83,-285 910.17,-285 910.17,-285 904.83,-285 899.5,-279.67 899.5,-274.33 899.5,-274.33 899.5,-263.67 899.5,-263.67 899.5,-258.33 904.83,-253 910.17,-253"/>
<text text-anchor="start" x="905" y="-265.3" font-family="Helvetica,sans-Serif" font-size="14.00">&quot;%hi(result_sink)&quot;</text>
<path fill="none" stroke="black" d="M910.17,-253C910.17,-253 1023.83,-253 1023.83,-253 1029.17,-253 1034.5,-258.33 1034.5,-263.67 1034.5,-263.67 1034.5,-274.33 1034.5,-274.33 1034.5,-279.67 1029.17,-285 1023.83,-285 1023.83,-285 910.17,-285 910.17,-285 904.83,-285 899.5,-279.67 899.5,-274.33 899.5,-274.33 899.5,-263.67 899.5,-263.67 899.5,-258.33 904.83,-253 910.17,-253"/>
</a>
</g>
</g>
<!-- function&#45;9&#45;ImmVal -->
<g id="node17" class="node">
<title>function&#45;9&#45;ImmVal</title>
<g id="a_node17"><a xlink:title="Imm&#45;25: function&#45;9&#45;ImmVal">
<path fill="white" stroke="transparent" d="M172.67,-332C172.67,-332 213.33,-332 213.33,-332 218.67,-332 224,-337.33 224,-342.67 224,-342.67 224,-353.33 224,-353.33 224,-358.67 218.67,-364 213.33,-364 213.33,-364 172.67,-364 172.67,-364 167.33,-364 162,-358.67 162,-353.33 162,-353.33 162,-342.67 162,-342.67 162,-337.33 167.33,-332 172.67,-332"/>
<text text-anchor="start" x="167" y="-344.3" font-family="Helvetica,sans-Serif" font-size="14.00">ImmVal</text>
<path fill="none" stroke="black" d="M172.67,-332C172.67,-332 213.33,-332 213.33,-332 218.67,-332 224,-337.33 224,-342.67 224,-342.67 224,-353.33 224,-353.33 224,-358.67 218.67,-364 213.33,-364 213.33,-364 172.67,-364 172.67,-364 167.33,-364 162,-358.67 162,-353.33 162,-353.33 162,-342.67 162,-342.67 162,-337.33 167.33,-332 172.67,-332"/>
</a>
</g>
</g>
<!-- primitive&#45;i64&#45;2032 -->
<g id="node18" class="node">
<title>primitive&#45;i64&#45;2032</title>
<g id="a_node18"><a xlink:title="i64&#45;2032: primitive&#45;i64&#45;2032">
<path fill="white" stroke="transparent" d="M180.17,-253C180.17,-253 205.83,-253 205.83,-253 211.17,-253 216.5,-258.33 216.5,-263.67 216.5,-263.67 216.5,-274.33 216.5,-274.33 216.5,-279.67 211.17,-285 205.83,-285 205.83,-285 180.17,-285 180.17,-285 174.83,-285 169.5,-279.67 169.5,-274.33 169.5,-274.33 169.5,-263.67 169.5,-263.67 169.5,-258.33 174.83,-253 180.17,-253"/>
<text text-anchor="start" x="175" y="-265.3" font-family="Helvetica,sans-Serif" font-size="14.00">2032</text>
<path fill="none" stroke="black" d="M180.17,-253C180.17,-253 205.83,-253 205.83,-253 211.17,-253 216.5,-258.33 216.5,-263.67 216.5,-263.67 216.5,-274.33 216.5,-274.33 216.5,-279.67 211.17,-285 205.83,-285 205.83,-285 180.17,-285 180.17,-285 174.83,-285 169.5,-279.67 169.5,-274.33 169.5,-274.33 169.5,-263.67 169.5,-263.67 169.5,-258.33 174.83,-253 180.17,-253"/>
</a>
</g>
</g>
<!-- function&#45;2&#45;ImmLabel -->
<g id="node19" class="node">
<title>function&#45;2&#45;ImmLabel</title>
<g id="a_node19"><a xlink:title="Imm&#45;28: function&#45;2&#45;ImmLabel">
<path fill="white" stroke="transparent" d="M1044.17,-332C1044.17,-332 1101.83,-332 1101.83,-332 1107.17,-332 1112.5,-337.33 1112.5,-342.67 1112.5,-342.67 1112.5,-353.33 1112.5,-353.33 1112.5,-358.67 1107.17,-364 1101.83,-364 1101.83,-364 1044.17,-364 1044.17,-364 1038.83,-364 1033.5,-358.67 1033.5,-353.33 1033.5,-353.33 1033.5,-342.67 1033.5,-342.67 1033.5,-337.33 1038.83,-332 1044.17,-332"/>
<text text-anchor="start" x="1039" y="-344.3" font-family="Helvetica,sans-Serif" font-size="14.00">ImmLabel</text>
<path fill="none" stroke="black" d="M1044.17,-332C1044.17,-332 1101.83,-332 1101.83,-332 1107.17,-332 1112.5,-337.33 1112.5,-342.67 1112.5,-342.67 1112.5,-353.33 1112.5,-353.33 1112.5,-358.67 1107.17,-364 1101.83,-364 1101.83,-364 1044.17,-364 1044.17,-364 1038.83,-364 1033.5,-358.67 1033.5,-353.33 1033.5,-353.33 1033.5,-342.67 1033.5,-342.67 1033.5,-337.33 1038.83,-332 1044.17,-332"/>
</a>
</g>
</g>
<!-- primitive&#45;String&#45;5 -->
<g id="node20" class="node">
<title>primitive&#45;String&#45;5</title>
<g id="a_node20"><a xlink:title="String&#45;5: primitive&#45;String&#45;5">
<path fill="white" stroke="transparent" d="M1057.67,-253C1057.67,-253 1090.33,-253 1090.33,-253 1095.67,-253 1101,-258.33 1101,-263.67 1101,-263.67 1101,-274.33 1101,-274.33 1101,-279.67 1095.67,-285 1090.33,-285 1090.33,-285 1057.67,-285 1057.67,-285 1052.33,-285 1047,-279.67 1047,-274.33 1047,-274.33 1047,-263.67 1047,-263.67 1047,-258.33 1052.33,-253 1057.67,-253"/>
<text text-anchor="start" x="1052" y="-265.3" font-family="Helvetica,sans-Serif" font-size="14.00">&quot;ra_0&quot;</text>
<path fill="none" stroke="black" d="M1057.67,-253C1057.67,-253 1090.33,-253 1090.33,-253 1095.67,-253 1101,-258.33 1101,-263.67 1101,-263.67 1101,-274.33 1101,-274.33 1101,-279.67 1095.67,-285 1090.33,-285 1090.33,-285 1057.67,-285 1057.67,-285 1052.33,-285 1047,-279.67 1047,-274.33 1047,-274.33 1047,-263.67 1047,-263.67 1047,-258.33 1052.33,-253 1057.67,-253"/>
</a>
</g>
</g>
<!-- function&#45;7&#45;ImmVal -->
<g id="node21" class="node">
<title>function&#45;7&#45;ImmVal</title>
<g id="a_node21"><a xlink:title="Imm&#45;21: function&#45;7&#45;ImmVal">
<path fill="white" stroke="transparent" d="M592.67,-332C592.67,-332 633.33,-332 633.33,-332 638.67,-332 644,-337.33 644,-342.67 644,-342.67 644,-353.33 644,-353.33 644,-358.67 638.67,-364 633.33,-364 633.33,-364 592.67,-364 592.67,-364 587.33,-364 582,-358.67 582,-353.33 582,-353.33 582,-342.67 582,-342.67 582,-337.33 587.33,-332 592.67,-332"/>
<text text-anchor="start" x="587" y="-344.3" font-family="Helvetica,sans-Serif" font-size="14.00">ImmVal</text>
<path fill="none" stroke="black" d="M592.67,-332C592.67,-332 633.33,-332 633.33,-332 638.67,-332 644,-337.33 644,-342.67 644,-342.67 644,-353.33 644,-353.33 644,-358.67 638.67,-364 633.33,-364 633.33,-364 592.67,-364 592.67,-364 587.33,-364 582,-358.67 582,-353.33 582,-353.33 582,-342.67 582,-342.67 582,-337.33 587.33,-332 592.67,-332"/>
</a>
</g>
</g>
<!-- primitive&#45;i64&#45;2008 -->
<g id="node22" class="node">
<title>primitive&#45;i64&#45;2008</title>
<g id="a_node22"><a xlink:title="i64&#45;2008: primitive&#45;i64&#45;2008">
<path fill="white" stroke="transparent" d="M600.17,-253C600.17,-253 625.83,-253 625.83,-253 631.17,-253 636.5,-258.33 636.5,-263.67 636.5,-263.67 636.5,-274.33 636.5,-274.33 636.5,-279.67 631.17,-285 625.83,-285 625.83,-285 600.17,-285 600.17,-285 594.83,-285 589.5,-279.67 589.5,-274.33 589.5,-274.33 589.5,-263.67 589.5,-263.67 589.5,-258.33 594.83,-253 600.17,-253"/>
<text text-anchor="start" x="595" y="-265.3" font-family="Helvetica,sans-Serif" font-size="14.00">2008</text>
<path fill="none" stroke="black" d="M600.17,-253C600.17,-253 625.83,-253 625.83,-253 631.17,-253 636.5,-258.33 636.5,-263.67 636.5,-263.67 636.5,-274.33 636.5,-274.33 636.5,-279.67 631.17,-285 625.83,-285 625.83,-285 600.17,-285 600.17,-285 594.83,-285 589.5,-279.67 589.5,-274.33 589.5,-274.33 589.5,-263.67 589.5,-263.67 589.5,-258.33 594.83,-253 600.17,-253"/>
</a>
</g>
</g>
<!-- function&#45;3&#45;ImmVal -->
<g id="node23" class="node">
<title>function&#45;3&#45;ImmVal</title>
<g id="a_node23"><a xlink:title="Imm&#45;13: function&#45;3&#45;ImmVal">
<path fill="white" stroke="transparent" d="M98.67,-332C98.67,-332 139.33,-332 139.33,-332 144.67,-332 150,-337.33 150,-342.67 150,-342.67 150,-353.33 150,-353.33 150,-358.67 144.67,-364 139.33,-364 139.33,-364 98.67,-364 98.67,-364 93.33,-364 88,-358.67 88,-353.33 88,-353.33 88,-342.67 88,-342.67 88,-337.33 93.33,-332 98.67,-332"/>
<text text-anchor="start" x="93" y="-344.3" font-family="Helvetica,sans-Serif" font-size="14.00">ImmVal</text>
<path fill="none" stroke="black" d="M98.67,-332C98.67,-332 139.33,-332 139.33,-332 144.67,-332 150,-337.33 150,-342.67 150,-342.67 150,-353.33 150,-353.33 150,-358.67 144.67,-364 139.33,-364 139.33,-364 98.67,-364 98.67,-364 93.33,-364 88,-358.67 88,-353.33 88,-353.33 88,-342.67 88,-342.67 88,-337.33 93.33,-332 98.67,-332"/>
</a>
</g>
</g>
<!-- primitive&#45;i64&#45;2024 -->
<g id="node24" class="node">
<title>primitive&#45;i64&#45;2024</title>
<g id="a_node24"><a xlink:title="i64&#45;2024: primitive&#45;i64&#45;2024">
<path fill="white" stroke="transparent" d="M106.17,-253C106.17,-253 131.83,-253 131.83,-253 137.17,-253 142.5,-258.33 142.5,-263.67 142.5,-263.67 142.5,-274.33 142.5,-274.33 142.5,-279.67 137.17,-285 131.83,-285 131.83,-285 106.17,-285 106.17,-285 100.83,-285 95.5,-279.67 95.5,-274.33 95.5,-274.33 95.5,-263.67 95.5,-263.67 95.5,-258.33 100.83,-253 106.17,-253"/>
<text text-anchor="start" x="101" y="-265.3" font-family="Helvetica,sans-Serif" font-size="14.00">2024</text>
<path fill="none" stroke="black" d="M106.17,-253C106.17,-253 131.83,-253 131.83,-253 137.17,-253 142.5,-258.33 142.5,-263.67 142.5,-263.67 142.5,-274.33 142.5,-274.33 142.5,-279.67 137.17,-285 131.83,-285 131.83,-285 106.17,-285 106.17,-285 100.83,-285 95.5,-279.67 95.5,-274.33 95.5,-274.33 95.5,-263.67 95.5,-263.67 95.5,-258.33 100.83,-253 106.17,-253"/>
</a>
</g>
</g>
<!-- function&#45;6&#45;ImmVal -->
<g id="node25" class="node">
<title>function&#45;6&#45;ImmVal</title>
<g id="a_node25"><a xlink:title="Imm&#45;19: function&#45;6&#45;ImmVal">
<path fill="white" stroke="transparent" d="M444.67,-332C444.67,-332 485.33,-332 485.33,-332 490.67,-332 496,-337.33 496,-342.67 496,-342.67 496,-353.33 496,-353.33 496,-358.67 490.67,-364 485.33,-364 485.33,-364 444.67,-364 444.67,-364 439.33,-364 434,-358.67 434,-353.33 434,-353.33 434,-342.67 434,-342.67 434,-337.33 439.33,-332 444.67,-332"/>
<text text-anchor="start" x="439" y="-344.3" font-family="Helvetica,sans-Serif" font-size="14.00">ImmVal</text>
<path fill="none" stroke="black" d="M444.67,-332C444.67,-332 485.33,-332 485.33,-332 490.67,-332 496,-337.33 496,-342.67 496,-342.67 496,-353.33 496,-353.33 496,-358.67 490.67,-364 485.33,-364 485.33,-364 444.67,-364 444.67,-364 439.33,-364 434,-358.67 434,-353.33 434,-353.33 434,-342.67 434,-342.67 434,-337.33 439.33,-332 444.67,-332"/>
</a>
</g>
</g>
<!-- primitive&#45;i64&#45;2012 -->
<g id="node26" class="node">
<title>primitive&#45;i64&#45;2012</title>
<g id="a_node26"><a xlink:title="i64&#45;2012: primitive&#45;i64&#45;2012">
<path fill="white" stroke="transparent" d="M452.17,-253C452.17,-253 477.83,-253 477.83,-253 483.17,-253 488.5,-258.33 488.5,-263.67 488.5,-263.67 488.5,-274.33 488.5,-274.33 488.5,-279.67 483.17,-285 477.83,-285 477.83,-285 452.17,-285 452.17,-285 446.83,-285 441.5,-279.67 441.5,-274.33 441.5,-274.33 441.5,-263.67 441.5,-263.67 441.5,-258.33 446.83,-253 452.17,-253"/>
<text text-anchor="start" x="447" y="-265.3" font-family="Helvetica,sans-Serif" font-size="14.00">2012</text>
<path fill="none" stroke="black" d="M452.17,-253C452.17,-253 477.83,-253 477.83,-253 483.17,-253 488.5,-258.33 488.5,-263.67 488.5,-263.67 488.5,-274.33 488.5,-274.33 488.5,-279.67 483.17,-285 477.83,-285 477.83,-285 452.17,-285 452.17,-285 446.83,-285 441.5,-279.67 441.5,-274.33 441.5,-274.33 441.5,-263.67 441.5,-263.67 441.5,-258.33 446.83,-253 452.17,-253"/>
</a>
</g>
</g>
<!-- function&#45;2&#45;RegVal -->
<g id="node27" class="node">
<title>function&#45;2&#45;RegVal</title>
<g id="a_node27"><a xlink:title="Inst&#45;27: function&#45;2&#45;RegVal">
<path fill="white" stroke="transparent" d="M1135.17,-332C1135.17,-332 1170.83,-332 1170.83,-332 1176.17,-332 1181.5,-337.33 1181.5,-342.67 1181.5,-342.67 1181.5,-353.33 1181.5,-353.33 1181.5,-358.67 1176.17,-364 1170.83,-364 1170.83,-364 1135.17,-364 1135.17,-364 1129.83,-364 1124.5,-358.67 1124.5,-353.33 1124.5,-353.33 1124.5,-342.67 1124.5,-342.67 1124.5,-337.33 1129.83,-332 1135.17,-332"/>
<text text-anchor="start" x="1130" y="-344.3" font-family="Helvetica,sans-Serif" font-size="14.00">RegVal</text>
<path fill="none" stroke="black" d="M1135.17,-332C1135.17,-332 1170.83,-332 1170.83,-332 1176.17,-332 1181.5,-337.33 1181.5,-342.67 1181.5,-342.67 1181.5,-353.33 1181.5,-353.33 1181.5,-358.67 1176.17,-364 1170.83,-364 1170.83,-364 1135.17,-364 1135.17,-364 1129.83,-364 1124.5,-358.67 1124.5,-353.33 1124.5,-353.33 1124.5,-342.67 1124.5,-342.67 1124.5,-337.33 1129.83,-332 1135.17,-332"/>
</a>
</g>
</g>
<!-- primitive&#45;String&#45;4 -->
<g id="node28" class="node">
<title>primitive&#45;String&#45;4</title>
<g id="a_node28"><a xlink:title="String&#45;4: primitive&#45;String&#45;4">
<path fill="white" stroke="transparent" d="M1148.17,-253C1148.17,-253 1159.83,-253 1159.83,-253 1165.17,-253 1170.5,-258.33 1170.5,-263.67 1170.5,-263.67 1170.5,-274.33 1170.5,-274.33 1170.5,-279.67 1165.17,-285 1159.83,-285 1159.83,-285 1148.17,-285 1148.17,-285 1142.83,-285 1137.5,-279.67 1137.5,-274.33 1137.5,-274.33 1137.5,-263.67 1137.5,-263.67 1137.5,-258.33 1142.83,-253 1148.17,-253"/>
<text text-anchor="start" x="1143" y="-265.3" font-family="Helvetica,sans-Serif" font-size="14.00">&quot;0&quot;</text>
<path fill="none" stroke="black" d="M1148.17,-253C1148.17,-253 1159.83,-253 1159.83,-253 1165.17,-253 1170.5,-258.33 1170.5,-263.67 1170.5,-263.67 1170.5,-274.33 1170.5,-274.33 1170.5,-279.67 1165.17,-285 1159.83,-285 1159.83,-285 1148.17,-285 1148.17,-285 1142.83,-285 1137.5,-279.67 1137.5,-274.33 1137.5,-274.33 1137.5,-263.67 1137.5,-263.67 1137.5,-258.33 1142.83,-253 1148.17,-253"/>
</a>
</g>
</g>
<!-- function&#45;2&#45;Lw -->
<g id="node29" class="node">
<title>function&#45;2&#45;Lw</title>
<g id="a_node29"><a xlink:title="Inst&#45;14: function&#45;2&#45;Lw">
<path fill="white" stroke="transparent" d="M130.67,-411C130.67,-411 141.33,-411 141.33,-411 146.67,-411 152,-416.33 152,-421.67 152,-421.67 152,-432.33 152,-432.33 152,-437.67 146.67,-443 141.33,-443 141.33,-443 130.67,-443 130.67,-443 125.33,-443 120,-437.67 120,-432.33 120,-432.33 120,-421.67 120,-421.67 120,-416.33 125.33,-411 130.67,-411"/>
<text text-anchor="start" x="126.5" y="-423.3" font-family="Helvetica,sans-Serif" font-size="14.00">Lw</text>
<path fill="none" stroke="black" d="M130.67,-411C130.67,-411 141.33,-411 141.33,-411 146.67,-411 152,-416.33 152,-421.67 152,-421.67 152,-432.33 152,-432.33 152,-437.67 146.67,-443 141.33,-443 141.33,-443 130.67,-443 130.67,-443 125.33,-443 120,-437.67 120,-432.33 120,-432.33 120,-421.67 120,-421.67 120,-416.33 125.33,-411 130.67,-411"/>
</a>
</g>
</g>
<!-- function&#45;0&#45;Add -->
<g id="node30" class="node">
<title>function&#45;0&#45;Add</title>
<g id="a_node30"><a xlink:title="Inst&#45;10: function&#45;0&#45;Add">
<path fill="white" stroke="transparent" d="M312.67,-332C312.67,-332 329.33,-332 329.33,-332 334.67,-332 340,-337.33 340,-342.67 340,-342.67 340,-353.33 340,-353.33 340,-358.67 334.67,-364 329.33,-364 329.33,-364 312.67,-364 312.67,-364 307.33,-364 302,-358.67 302,-353.33 302,-353.33 302,-342.67 302,-342.67 302,-337.33 307.33,-332 312.67,-332"/>
<text text-anchor="start" x="307" y="-344.3" font-family="Helvetica,sans-Serif" font-size="14.00">Add</text>
<path fill="none" stroke="black" d="M312.67,-332C312.67,-332 329.33,-332 329.33,-332 334.67,-332 340,-337.33 340,-342.67 340,-342.67 340,-353.33 340,-353.33 340,-358.67 334.67,-364 329.33,-364 329.33,-364 312.67,-364 312.67,-364 307.33,-364 302,-358.67 302,-353.33 302,-353.33 302,-342.67 302,-342.67 302,-337.33 307.33,-332 312.67,-332"/>
</a>
</g>
</g>
<!-- function&#45;0&#45;RegVal -->
<g id="node31" class="node">
<title>function&#45;0&#45;RegVal</title>
<g id="a_node31"><a xlink:title="Inst&#45;0: function&#45;0&#45;RegVal">
<path fill="white" stroke="transparent" d="M840.17,-253C840.17,-253 875.83,-253 875.83,-253 881.17,-253 886.5,-258.33 886.5,-263.67 886.5,-263.67 886.5,-274.33 886.5,-274.33 886.5,-279.67 881.17,-285 875.83,-285 875.83,-285 840.17,-285 840.17,-285 834.83,-285 829.5,-279.67 829.5,-274.33 829.5,-274.33 829.5,-263.67 829.5,-263.67 829.5,-258.33 834.83,-253 840.17,-253"/>
<text text-anchor="start" x="835" y="-265.3" font-family="Helvetica,sans-Serif" font-size="14.00">RegVal</text>
<path fill="none" stroke="black" d="M840.17,-253C840.17,-253 875.83,-253 875.83,-253 881.17,-253 886.5,-258.33 886.5,-263.67 886.5,-263.67 886.5,-274.33 886.5,-274.33 886.5,-279.67 881.17,-285 875.83,-285 875.83,-285 840.17,-285 840.17,-285 834.83,-285 829.5,-279.67 829.5,-274.33 829.5,-274.33 829.5,-263.67 829.5,-263.67 829.5,-258.33 834.83,-253 840.17,-253"/>
</a>
</g>
</g>
<!-- primitive&#45;String&#45;0 -->
<g id="node32" class="node">
<title>primitive&#45;String&#45;0</title>
<g id="a_node32"><a xlink:title="String&#45;0: primitive&#45;String&#45;0">
<path fill="white" stroke="transparent" d="M855.17,-174C855.17,-174 874.83,-174 874.83,-174 880.17,-174 885.5,-179.33 885.5,-184.67 885.5,-184.67 885.5,-195.33 885.5,-195.33 885.5,-200.67 880.17,-206 874.83,-206 874.83,-206 855.17,-206 855.17,-206 849.83,-206 844.5,-200.67 844.5,-195.33 844.5,-195.33 844.5,-184.67 844.5,-184.67 844.5,-179.33 849.83,-174 855.17,-174"/>
<text text-anchor="start" x="850" y="-186.3" font-family="Helvetica,sans-Serif" font-size="14.00">&quot;a5&quot;</text>
<path fill="none" stroke="black" d="M855.17,-174C855.17,-174 874.83,-174 874.83,-174 880.17,-174 885.5,-179.33 885.5,-184.67 885.5,-184.67 885.5,-195.33 885.5,-195.33 885.5,-200.67 880.17,-206 874.83,-206 874.83,-206 855.17,-206 855.17,-206 849.83,-206 844.5,-200.67 844.5,-195.33 844.5,-195.33 844.5,-184.67 844.5,-184.67 844.5,-179.33 849.83,-174 855.17,-174"/>
</a>
</g>
</g>
<!-- function&#45;0&#45;Addi -->
<g id="node33" class="node">
<title>function&#45;0&#45;Addi</title>
<g id="a_node33"><a xlink:title="Inst&#45;7: function&#45;0&#45;Addi">
<path fill="white" stroke="transparent" d="M320.17,-253C320.17,-253 339.83,-253 339.83,-253 345.17,-253 350.5,-258.33 350.5,-263.67 350.5,-263.67 350.5,-274.33 350.5,-274.33 350.5,-279.67 345.17,-285 339.83,-285 339.83,-285 320.17,-285 320.17,-285 314.83,-285 309.5,-279.67 309.5,-274.33 309.5,-274.33 309.5,-263.67 309.5,-263.67 309.5,-258.33 314.83,-253 320.17,-253"/>
<text text-anchor="start" x="315" y="-265.3" font-family="Helvetica,sans-Serif" font-size="14.00">Addi</text>
<path fill="none" stroke="black" d="M320.17,-253C320.17,-253 339.83,-253 339.83,-253 345.17,-253 350.5,-258.33 350.5,-263.67 350.5,-263.67 350.5,-274.33 350.5,-274.33 350.5,-279.67 345.17,-285 339.83,-285 339.83,-285 320.17,-285 320.17,-285 314.83,-285 309.5,-279.67 309.5,-274.33 309.5,-274.33 309.5,-263.67 309.5,-263.67 309.5,-258.33 314.83,-253 320.17,-253"/>
</a>
</g>
</g>
<!-- function&#45;0&#45;Lui -->
<g id="node34" class="node">
<title>function&#45;0&#45;Lui</title>
<g id="a_node34"><a xlink:title="Inst&#45;3: function&#45;0&#45;Lui">
<path fill="white" stroke="transparent" d="M401.67,-174C401.67,-174 412.33,-174 412.33,-174 417.67,-174 423,-179.33 423,-184.67 423,-184.67 423,-195.33 423,-195.33 423,-200.67 417.67,-206 412.33,-206 412.33,-206 401.67,-206 401.67,-206 396.33,-206 391,-200.67 391,-195.33 391,-195.33 391,-184.67 391,-184.67 391,-179.33 396.33,-174 401.67,-174"/>
<text text-anchor="start" x="396.5" y="-186.3" font-family="Helvetica,sans-Serif" font-size="14.00">Lui</text>
<path fill="none" stroke="black" d="M401.67,-174C401.67,-174 412.33,-174 412.33,-174 417.67,-174 423,-179.33 423,-184.67 423,-184.67 423,-195.33 423,-195.33 423,-200.67 417.67,-206 412.33,-206 412.33,-206 401.67,-206 401.67,-206 396.33,-206 391,-200.67 391,-195.33 391,-195.33 391,-184.67 391,-184.67 391,-179.33 396.33,-174 401.67,-174"/>
</a>
</g>
</g>
<!-- function&#45;1&#45;Lui -->
<g id="node35" class="node">
<title>function&#45;1&#45;Lui</title>
<g id="a_node35"><a xlink:title="Inst&#45;5: function&#45;1&#45;Lui">
<path fill="white" stroke="transparent" d="M960.67,-411C960.67,-411 971.33,-411 971.33,-411 976.67,-411 982,-416.33 982,-421.67 982,-421.67 982,-432.33 982,-432.33 982,-437.67 976.67,-443 971.33,-443 971.33,-443 960.67,-443 960.67,-443 955.33,-443 950,-437.67 950,-432.33 950,-432.33 950,-421.67 950,-421.67 950,-416.33 955.33,-411 960.67,-411"/>
<text text-anchor="start" x="955.5" y="-423.3" font-family="Helvetica,sans-Serif" font-size="14.00">Lui</text>
<path fill="none" stroke="black" d="M960.67,-411C960.67,-411 971.33,-411 971.33,-411 976.67,-411 982,-416.33 982,-421.67 982,-421.67 982,-432.33 982,-432.33 982,-437.67 976.67,-443 971.33,-443 971.33,-443 960.67,-443 960.67,-443 955.33,-443 950,-437.67 950,-432.33 950,-432.33 950,-421.67 950,-421.67 950,-416.33 955.33,-411 960.67,-411"/>
</a>
</g>
</g>
<!-- function&#45;1&#45;Addi -->
<g id="node36" class="node">
<title>function&#45;1&#45;Addi</title>
<g id="a_node36"><a xlink:title="Inst&#45;26: function&#45;1&#45;Addi">
<path fill="white" stroke="transparent" d="M218.17,-411C218.17,-411 237.83,-411 237.83,-411 243.17,-411 248.5,-416.33 248.5,-421.67 248.5,-421.67 248.5,-432.33 248.5,-432.33 248.5,-437.67 243.17,-443 237.83,-443 237.83,-443 218.17,-443 218.17,-443 212.83,-443 207.5,-437.67 207.5,-432.33 207.5,-432.33 207.5,-421.67 207.5,-421.67 207.5,-416.33 212.83,-411 218.17,-411"/>
<text text-anchor="start" x="213" y="-423.3" font-family="Helvetica,sans-Serif" font-size="14.00">Addi</text>
<path fill="none" stroke="black" d="M218.17,-411C218.17,-411 237.83,-411 237.83,-411 243.17,-411 248.5,-416.33 248.5,-421.67 248.5,-421.67 248.5,-432.33 248.5,-432.33 248.5,-437.67 243.17,-443 237.83,-443 237.83,-443 218.17,-443 218.17,-443 212.83,-443 207.5,-437.67 207.5,-432.33 207.5,-432.33 207.5,-421.67 207.5,-421.67 207.5,-416.33 212.83,-411 218.17,-411"/>
</a>
</g>
</g>
<!-- function&#45;1&#45;Add -->
<g id="node37" class="node">
<title>function&#45;1&#45;Add</title>
<g id="a_node37"><a xlink:title="Inst&#45;10: function&#45;1&#45;Add">
<path fill="white" stroke="transparent" d="M254.67,-332C254.67,-332 271.33,-332 271.33,-332 276.67,-332 282,-337.33 282,-342.67 282,-342.67 282,-353.33 282,-353.33 282,-358.67 276.67,-364 271.33,-364 271.33,-364 254.67,-364 254.67,-364 249.33,-364 244,-358.67 244,-353.33 244,-353.33 244,-342.67 244,-342.67 244,-337.33 249.33,-332 254.67,-332"/>
<text text-anchor="start" x="249" y="-344.3" font-family="Helvetica,sans-Serif" font-size="14.00">Add</text>
<path fill="none" stroke="black" d="M254.67,-332C254.67,-332 271.33,-332 271.33,-332 276.67,-332 282,-337.33 282,-342.67 282,-342.67 282,-353.33 282,-353.33 282,-358.67 276.67,-364 271.33,-364 271.33,-364 254.67,-364 254.67,-364 249.33,-364 244,-358.67 244,-353.33 244,-353.33 244,-342.67 244,-342.67 244,-337.33 249.33,-332 254.67,-332"/>
</a>
</g>
</g>
<!-- function&#45;1&#45;RegVal -->
<g id="node38" class="node">
<title>function&#45;1&#45;RegVal</title>
<g id="a_node38"><a xlink:title="Inst&#45;1: function&#45;1&#45;RegVal">
<path fill="white" stroke="transparent" d="M244.17,-253C244.17,-253 279.83,-253 279.83,-253 285.17,-253 290.5,-258.33 290.5,-263.67 290.5,-263.67 290.5,-274.33 290.5,-274.33 290.5,-279.67 285.17,-285 279.83,-285 279.83,-285 244.17,-285 244.17,-285 238.83,-285 233.5,-279.67 233.5,-274.33 233.5,-274.33 233.5,-263.67 233.5,-263.67 233.5,-258.33 238.83,-253 244.17,-253"/>
<text text-anchor="start" x="239" y="-265.3" font-family="Helvetica,sans-Serif" font-size="14.00">RegVal</text>
<path fill="none" stroke="black" d="M244.17,-253C244.17,-253 279.83,-253 279.83,-253 285.17,-253 290.5,-258.33 290.5,-263.67 290.5,-263.67 290.5,-274.33 290.5,-274.33 290.5,-279.67 285.17,-285 279.83,-285 279.83,-285 244.17,-285 244.17,-285 238.83,-285 233.5,-279.67 233.5,-274.33 233.5,-274.33 233.5,-263.67 233.5,-263.67 233.5,-258.33 238.83,-253 244.17,-253"/>
</a>
</g>
</g>
<!-- function&#45;4&#45;Lw -->
<g id="node39" class="node">
<title>function&#45;4&#45;Lw</title>
<g id="a_node39"><a xlink:title="Inst&#45;18: function&#45;4&#45;Lw">
<path fill="white" stroke="transparent" d="M338.67,-411C338.67,-411 349.33,-411 349.33,-411 354.67,-411 360,-416.33 360,-421.67 360,-421.67 360,-432.33 360,-432.33 360,-437.67 354.67,-443 349.33,-443 349.33,-443 338.67,-443 338.67,-443 333.33,-443 328,-437.67 328,-432.33 328,-432.33 328,-421.67 328,-421.67 328,-416.33 333.33,-411 338.67,-411"/>
<text text-anchor="start" x="334.5" y="-423.3" font-family="Helvetica,sans-Serif" font-size="14.00">Lw</text>
<path fill="none" stroke="black" d="M338.67,-411C338.67,-411 349.33,-411 349.33,-411 354.67,-411 360,-416.33 360,-421.67 360,-421.67 360,-432.33 360,-432.33 360,-437.67 354.67,-443 349.33,-443 349.33,-443 338.67,-443 338.67,-443 333.33,-443 328,-437.67 328,-432.33 328,-432.33 328,-421.67 328,-421.67 328,-416.33 333.33,-411 338.67,-411"/>
</a>
</g>
</g>
<!-- function&#45;5&#45;Lw -->
<g id="node40" class="node">
<title>function&#45;5&#45;Lw</title>
<g id="a_node40"><a xlink:title="Inst&#45;20: function&#45;5&#45;Lw">
<path fill="white" stroke="transparent" d="M420.67,-411C420.67,-411 431.33,-411 431.33,-411 436.67,-411 442,-416.33 442,-421.67 442,-421.67 442,-432.33 442,-432.33 442,-437.67 436.67,-443 431.33,-443 431.33,-443 420.67,-443 420.67,-443 415.33,-443 410,-437.67 410,-432.33 410,-432.33 410,-421.67 410,-421.67 410,-416.33 415.33,-411 420.67,-411"/>
<text text-anchor="start" x="416.5" y="-423.3" font-family="Helvetica,sans-Serif" font-size="14.00">Lw</text>
<path fill="none" stroke="black" d="M420.67,-411C420.67,-411 431.33,-411 431.33,-411 436.67,-411 442,-416.33 442,-421.67 442,-421.67 442,-432.33 442,-432.33 442,-437.67 436.67,-443 431.33,-443 431.33,-443 420.67,-443 420.67,-443 415.33,-443 410,-437.67 410,-432.33 410,-432.33 410,-421.67 410,-421.67 410,-416.33 415.33,-411 420.67,-411"/>
</a>
</g>
</g>
<!-- function&#45;0&#45;Lw -->
<g id="node41" class="node">
<title>function&#45;0&#45;Lw</title>
<g id="a_node41"><a xlink:title="Inst&#45;9: function&#45;0&#45;Lw">
<path fill="white" stroke="transparent" d="M751.67,-332C751.67,-332 762.33,-332 762.33,-332 767.67,-332 773,-337.33 773,-342.67 773,-342.67 773,-353.33 773,-353.33 773,-358.67 767.67,-364 762.33,-364 762.33,-364 751.67,-364 751.67,-364 746.33,-364 741,-358.67 741,-353.33 741,-353.33 741,-342.67 741,-342.67 741,-337.33 746.33,-332 751.67,-332"/>
<text text-anchor="start" x="747.5" y="-344.3" font-family="Helvetica,sans-Serif" font-size="14.00">Lw</text>
<path fill="none" stroke="black" d="M751.67,-332C751.67,-332 762.33,-332 762.33,-332 767.67,-332 773,-337.33 773,-342.67 773,-342.67 773,-353.33 773,-353.33 773,-358.67 767.67,-364 762.33,-364 762.33,-364 751.67,-364 751.67,-364 746.33,-364 741,-358.67 741,-353.33 741,-353.33 741,-342.67 741,-342.67 741,-337.33 746.33,-332 751.67,-332"/>
</a>
</g>
</g>
<!-- function&#45;3&#45;Lw -->
<g id="node42" class="node">
<title>function&#45;3&#45;Lw</title>
<g id="a_node42"><a xlink:title="Inst&#45;16: function&#45;3&#45;Lw">
<path fill="white" stroke="transparent" d="M62.67,-411C62.67,-411 73.33,-411 73.33,-411 78.67,-411 84,-416.33 84,-421.67 84,-421.67 84,-432.33 84,-432.33 84,-437.67 78.67,-443 73.33,-443 73.33,-443 62.67,-443 62.67,-443 57.33,-443 52,-437.67 52,-432.33 52,-432.33 52,-421.67 52,-421.67 52,-416.33 57.33,-411 62.67,-411"/>
<text text-anchor="start" x="58.5" y="-423.3" font-family="Helvetica,sans-Serif" font-size="14.00">Lw</text>
<path fill="none" stroke="black" d="M62.67,-411C62.67,-411 73.33,-411 73.33,-411 78.67,-411 84,-416.33 84,-421.67 84,-421.67 84,-432.33 84,-432.33 84,-437.67 78.67,-443 73.33,-443 73.33,-443 62.67,-443 62.67,-443 57.33,-443 52,-437.67 52,-432.33 52,-432.33 52,-421.67 52,-421.67 52,-416.33 57.33,-411 62.67,-411"/>
</a>
</g>
</g>
<!-- function&#45;1&#45;Lw -->
<g id="node43" class="node">
<title>function&#45;1&#45;Lw</title>
<g id="a_node43"><a xlink:title="Inst&#45;12: function&#45;1&#45;Lw">
<path fill="white" stroke="transparent" d="M506.67,-411C506.67,-411 517.33,-411 517.33,-411 522.67,-411 528,-416.33 528,-421.67 528,-421.67 528,-432.33 528,-432.33 528,-437.67 522.67,-443 517.33,-443 517.33,-443 506.67,-443 506.67,-443 501.33,-443 496,-437.67 496,-432.33 496,-432.33 496,-421.67 496,-421.67 496,-416.33 501.33,-411 506.67,-411"/>
<text text-anchor="start" x="502.5" y="-423.3" font-family="Helvetica,sans-Serif" font-size="14.00">Lw</text>
<path fill="none" stroke="black" d="M506.67,-411C506.67,-411 517.33,-411 517.33,-411 522.67,-411 528,-416.33 528,-421.67 528,-421.67 528,-432.33 528,-432.33 528,-437.67 522.67,-443 517.33,-443 517.33,-443 506.67,-443 506.67,-443 501.33,-443 496,-437.67 496,-432.33 496,-432.33 496,-421.67 496,-421.67 496,-416.33 501.33,-411 506.67,-411"/>
</a>
</g>
</g>
<!-- function&#45;6&#45;Lw -->
<g id="node44" class="node">
<title>function&#45;6&#45;Lw</title>
<g id="a_node44"><a xlink:title="Inst&#45;22: function&#45;6&#45;Lw">
<path fill="white" stroke="transparent" d="M586.67,-411C586.67,-411 597.33,-411 597.33,-411 602.67,-411 608,-416.33 608,-421.67 608,-421.67 608,-432.33 608,-432.33 608,-437.67 602.67,-443 597.33,-443 597.33,-443 586.67,-443 586.67,-443 581.33,-443 576,-437.67 576,-432.33 576,-432.33 576,-421.67 576,-421.67 576,-416.33 581.33,-411 586.67,-411"/>
<text text-anchor="start" x="582.5" y="-423.3" font-family="Helvetica,sans-Serif" font-size="14.00">Lw</text>
<path fill="none" stroke="black" d="M586.67,-411C586.67,-411 597.33,-411 597.33,-411 602.67,-411 608,-416.33 608,-421.67 608,-421.67 608,-432.33 608,-432.33 608,-437.67 602.67,-443 597.33,-443 597.33,-443 586.67,-443 586.67,-443 581.33,-443 576,-437.67 576,-432.33 576,-432.33 576,-421.67 576,-421.67 576,-416.33 581.33,-411 586.67,-411"/>
</a>
</g>
</g>
<!-- function&#45;0&#45;Slti -->
<g id="node45" class="node">
<title>function&#45;0&#45;Slti</title>
<g id="a_node45"><a xlink:title="Inst&#45;24: function&#45;0&#45;Slti">
<path fill="white" stroke="transparent" d="M716.67,-411C716.67,-411 727.33,-411 727.33,-411 732.67,-411 738,-416.33 738,-421.67 738,-421.67 738,-432.33 738,-432.33 738,-437.67 732.67,-443 727.33,-443 727.33,-443 716.67,-443 716.67,-443 711.33,-443 706,-437.67 706,-432.33 706,-432.33 706,-421.67 706,-421.67 706,-416.33 711.33,-411 716.67,-411"/>
<text text-anchor="start" x="711" y="-423.3" font-family="Helvetica,sans-Serif" font-size="14.00">Slti</text>
<path fill="none" stroke="black" d="M716.67,-411C716.67,-411 727.33,-411 727.33,-411 732.67,-411 738,-416.33 738,-421.67 738,-421.67 738,-432.33 738,-432.33 738,-437.67 732.67,-443 727.33,-443 727.33,-443 716.67,-443 716.67,-443 711.33,-443 706,-437.67 706,-432.33 706,-432.33 706,-421.67 706,-421.67 706,-416.33 711.33,-411 716.67,-411"/>
</a>
</g>
</g>
<!-- function&#45;0&#45;Jalr -->
<g id="node46" class="node">
<title>function&#45;0&#45;Jalr</title>
<g id="a_node46"><a xlink:title="Inst&#45;29: function&#45;0&#45;Jalr">
<path fill="white" stroke="transparent" d="M1104.17,-411C1104.17,-411 1115.83,-411 1115.83,-411 1121.17,-411 1126.5,-416.33 1126.5,-421.67 1126.5,-421.67 1126.5,-432.33 1126.5,-432.33 1126.5,-437.67 1121.17,-443 1115.83,-443 1115.83,-443 1104.17,-443 1104.17,-443 1098.83,-443 1093.5,-437.67 1093.5,-432.33 1093.5,-432.33 1093.5,-421.67 1093.5,-421.67 1093.5,-416.33 1098.83,-411 1104.17,-411"/>
<text text-anchor="start" x="1099" y="-423.3" font-family="Helvetica,sans-Serif" font-size="14.00">Jalr</text>
<path fill="none" stroke="black" d="M1104.17,-411C1104.17,-411 1115.83,-411 1115.83,-411 1121.17,-411 1126.5,-416.33 1126.5,-421.67 1126.5,-421.67 1126.5,-432.33 1126.5,-432.33 1126.5,-437.67 1121.17,-443 1115.83,-443 1115.83,-443 1104.17,-443 1104.17,-443 1098.83,-443 1093.5,-437.67 1093.5,-432.33 1093.5,-432.33 1093.5,-421.67 1093.5,-421.67 1093.5,-416.33 1098.83,-411 1104.17,-411"/>
</a>
</g>
</g>
<!-- primitive&#45;String&#45;1 -->
<g id="node47" class="node">
<title>primitive&#45;String&#45;1</title>
<g id="a_node47"><a xlink:title="String&#45;1: primitive&#45;String&#45;1">
<path fill="white" stroke="transparent" d="M245.67,-174C245.67,-174 280.33,-174 280.33,-174 285.67,-174 291,-179.33 291,-184.67 291,-184.67 291,-195.33 291,-195.33 291,-200.67 285.67,-206 280.33,-206 280.33,-206 245.67,-206 245.67,-206 240.33,-206 235,-200.67 235,-195.33 235,-195.33 235,-184.67 235,-184.67 235,-179.33 240.33,-174 245.67,-174"/>
<text text-anchor="start" x="240" y="-186.3" font-family="Helvetica,sans-Serif" font-size="14.00">&quot;sp_0&quot;</text>
<path fill="none" stroke="black" d="M245.67,-174C245.67,-174 280.33,-174 280.33,-174 285.67,-174 291,-179.33 291,-184.67 291,-184.67 291,-195.33 291,-195.33 291,-200.67 285.67,-206 280.33,-206 280.33,-206 245.67,-206 245.67,-206 240.33,-206 235,-200.67 235,-195.33 235,-195.33 235,-184.67 235,-184.67 235,-179.33 240.33,-174 245.67,-174"/>
</a>
</g>
</g>
</g>
</svg>
