<?xml version="1.0" encoding="UTF-8" standalone="no"?>
<!DOCTYPE svg PUBLIC "-//W3C//DTD SVG 1.1//EN"
 "http://www.w3.org/Graphics/SVG/1.1/DTD/svg11.dtd">
<!-- Generated by graphviz version 2.43.0 (0)
 -->
<!-- Title: %3 Pages: 1 -->
<svg width="954pt" height="309pt"
 viewBox="0.00 0.00 954.00 309.00" xmlns="http://www.w3.org/2000/svg" xmlns:xlink="http://www.w3.org/1999/xlink">
<g id="graph0" class="graph" transform="scale(1 1) rotate(0) translate(4 305)">
<title>%3</title>
<polygon fill="white" stroke="#000000" points="-4,4 -4,-305 950,-305 950,4 -4,4"/>
<g id="clust1" class="cluster">
<title>outer_cluster_Imm&#45;14</title>
</g>
<g id="clust2" class="cluster">
<title>cluster_Imm&#45;14</title>
<path fill="#ffffb3" stroke="black" stroke-dasharray="5,2" d="M197,-90C197,-90 257,-90 257,-90 263,-90 269,-96 269,-102 269,-102 269,-120 269,-120 269,-126 263,-132 257,-132 257,-132 197,-132 197,-132 191,-132 185,-126 185,-120 185,-120 185,-102 185,-102 185,-96 191,-90 197,-90"/>
</g>
<g id="clust4" class="cluster">
<title>outer_cluster_Imm&#45;7</title>
</g>
<g id="clust5" class="cluster">
<title>cluster_Imm&#45;7</title>
<path fill="#ffffb3" stroke="black" stroke-dasharray="5,2" d="M356,-169C356,-169 400,-169 400,-169 406,-169 412,-175 412,-181 412,-181 412,-199 412,-199 412,-205 406,-211 400,-211 400,-211 356,-211 356,-211 350,-211 344,-205 344,-199 344,-199 344,-181 344,-181 344,-175 350,-169 356,-169"/>
</g>
<g id="clust7" class="cluster">
<title>outer_cluster_Imm&#45;9</title>
</g>
<g id="clust8" class="cluster">
<title>cluster_Imm&#45;9</title>
<path fill="#ffffb3" stroke="black" stroke-dasharray="5,2" d="M665,-169C665,-169 709,-169 709,-169 715,-169 721,-175 721,-181 721,-181 721,-199 721,-199 721,-205 715,-211 709,-211 709,-211 665,-211 665,-211 659,-211 653,-205 653,-199 653,-199 653,-181 653,-181 653,-175 659,-169 665,-169"/>
</g>
<g id="clust10" class="cluster">
<title>outer_cluster_Imm&#45;11</title>
</g>
<g id="clust11" class="cluster">
<title>cluster_Imm&#45;11</title>
<path fill="#ffffb3" stroke="black" stroke-dasharray="5,2" d="M879,-169C879,-169 923,-169 923,-169 929,-169 935,-175 935,-181 935,-181 935,-199 935,-199 935,-205 929,-211 923,-211 923,-211 879,-211 879,-211 873,-211 867,-205 867,-199 867,-199 867,-181 867,-181 867,-175 873,-169 879,-169"/>
</g>
<g id="clust13" class="cluster">
<title>outer_cluster_Imm&#45;5</title>
</g>
<g id="clust14" class="cluster">
<title>cluster_Imm&#45;5</title>
<path fill="#ffffb3" stroke="black" stroke-dasharray="5,2" d="M501,-169C501,-169 561,-169 561,-169 567,-169 573,-175 573,-181 573,-181 573,-199 573,-199 573,-205 567,-211 561,-211 561,-211 501,-211 501,-211 495,-211 489,-205 489,-199 489,-199 489,-181 489,-181 489,-175 495,-169 501,-169"/>
</g>
<g id="clust16" class="cluster">
<title>outer_cluster_Imm&#45;16</title>
</g>
<g id="clust17" class="cluster">
<title>cluster_Imm&#45;16</title>
<path fill="#ffffb3" stroke="black" stroke-dasharray="5,2" d="M78,-169C78,-169 138,-169 138,-169 144,-169 150,-175 150,-181 150,-181 150,-199 150,-199 150,-205 144,-211 138,-211 138,-211 78,-211 78,-211 72,-211 66,-205 66,-199 66,-199 66,-181 66,-181 66,-175 72,-169 78,-169"/>
</g>
<g id="clust19" class="cluster">
<title>outer_cluster_Inst&#45;0</title>
</g>
<g id="clust20" class="cluster">
<title>cluster_Inst&#45;0</title>
<path fill="#bebada" stroke="black" stroke-dasharray="5,2" d="M809,-169C809,-169 849,-169 849,-169 855,-169 861,-175 861,-181 861,-181 861,-199 861,-199 861,-205 855,-211 849,-211 849,-211 809,-211 809,-211 803,-211 797,-205 797,-199 797,-199 797,-181 797,-181 797,-175 803,-169 809,-169"/>
</g>
<g id="clust22" class="cluster">
<title>outer_cluster_Inst&#45;15</title>
</g>
<g id="clust23" class="cluster">
<title>cluster_Inst&#45;15</title>
<path fill="#bebada" stroke="black" stroke-dasharray="5,2" d="M182,-169C182,-169 218,-169 218,-169 224,-169 230,-175 230,-181 230,-181 230,-199 230,-199 230,-205 224,-211 218,-211 218,-211 182,-211 182,-211 176,-211 170,-205 170,-199 170,-199 170,-181 170,-181 170,-175 176,-169 182,-169"/>
</g>
<g id="clust25" class="cluster">
<title>outer_cluster_Inst&#45;17</title>
</g>
<g id="clust26" class="cluster">
<title>cluster_Inst&#45;17</title>
<path fill="#bebada" stroke="black" stroke-dasharray="5,2" d="M143,-248C143,-248 179,-248 179,-248 185,-248 191,-254 191,-260 191,-260 191,-278 191,-278 191,-284 185,-290 179,-290 179,-290 143,-290 143,-290 137,-290 131,-284 131,-278 131,-278 131,-260 131,-260 131,-254 137,-248 143,-248"/>
</g>
<g id="clust28" class="cluster">
<title>outer_cluster_Inst&#45;6</title>
</g>
<g id="clust29" class="cluster">
<title>cluster_Inst&#45;6</title>
<path fill="#bebada" stroke="black" stroke-dasharray="5,2" d="M499,-248C499,-248 535,-248 535,-248 541,-248 547,-254 547,-260 547,-260 547,-278 547,-278 547,-284 541,-290 535,-290 535,-290 499,-290 499,-290 493,-290 487,-284 487,-278 487,-278 487,-260 487,-260 487,-254 493,-248 499,-248"/>
</g>
<g id="clust31" class="cluster">
<title>outer_cluster_Inst&#45;10</title>
</g>
<g id="clust32" class="cluster">
<title>cluster_Inst&#45;10</title>
<path fill="#bebada" stroke="black" stroke-dasharray="5,2" d="M658,-248C658,-248 694,-248 694,-248 700,-248 706,-254 706,-260 706,-260 706,-278 706,-278 706,-284 700,-290 694,-290 694,-290 658,-290 658,-290 652,-290 646,-284 646,-278 646,-278 646,-260 646,-260 646,-254 652,-248 658,-248"/>
</g>
<g id="clust34" class="cluster">
<title>outer_cluster_Inst&#45;1</title>
</g>
<g id="clust35" class="cluster">
<title>cluster_Inst&#45;1</title>
<path fill="#bebada" stroke="black" stroke-dasharray="5,2" d="M739,-169C739,-169 779,-169 779,-169 785,-169 791,-175 791,-181 791,-181 791,-199 791,-199 791,-205 785,-211 779,-211 779,-211 739,-211 739,-211 733,-211 727,-205 727,-199 727,-199 727,-181 727,-181 727,-175 733,-169 739,-169"/>
</g>
<g id="clust37" class="cluster">
<title>outer_cluster_Inst&#45;8</title>
</g>
<g id="clust38" class="cluster">
<title>cluster_Inst&#45;8</title>
<path fill="#bebada" stroke="black" stroke-dasharray="5,2" d="M324,-248C324,-248 360,-248 360,-248 366,-248 372,-254 372,-260 372,-260 372,-278 372,-278 372,-284 366,-290 360,-290 360,-290 324,-290 324,-290 318,-290 312,-284 312,-278 312,-278 312,-260 312,-260 312,-254 318,-248 324,-248"/>
</g>
<g id="clust40" class="cluster">
<title>outer_cluster_Inst&#45;2</title>
</g>
<g id="clust41" class="cluster">
<title>cluster_Inst&#45;2</title>
<path fill="#bebada" stroke="black" stroke-dasharray="5,2" d="M431,-169C431,-169 471,-169 471,-169 477,-169 483,-175 483,-181 483,-181 483,-199 483,-199 483,-205 477,-211 471,-211 471,-211 431,-211 431,-211 425,-211 419,-205 419,-199 419,-199 419,-181 419,-181 419,-175 425,-169 431,-169"/>
</g>
<g id="clust43" class="cluster">
<title>outer_cluster_Inst&#45;12</title>
</g>
<g id="clust44" class="cluster">
<title>cluster_Inst&#45;12</title>
<path fill="#bebada" stroke="black" stroke-dasharray="5,2" d="M807,-248C807,-248 843,-248 843,-248 849,-248 855,-254 855,-260 855,-260 855,-278 855,-278 855,-284 849,-290 843,-290 843,-290 807,-290 807,-290 801,-290 795,-284 795,-278 795,-278 795,-260 795,-260 795,-254 801,-248 807,-248"/>
</g>
<g id="clust46" class="cluster">
<title>outer_cluster_Inst&#45;13</title>
</g>
<g id="clust47" class="cluster">
<title>cluster_Inst&#45;13</title>
<path fill="#bebada" stroke="black" stroke-dasharray="5,2" d="M429,-248C429,-248 465,-248 465,-248 471,-248 477,-254 477,-260 477,-260 477,-278 477,-278 477,-284 471,-290 465,-290 465,-290 429,-290 429,-290 423,-290 417,-284 417,-278 417,-278 417,-260 417,-260 417,-254 423,-248 429,-248"/>
</g>
<g id="clust49" class="cluster">
<title>outer_cluster_Inst&#45;3</title>
</g>
<g id="clust50" class="cluster">
<title>cluster_Inst&#45;3</title>
<path fill="#bebada" stroke="black" stroke-dasharray="5,2" d="M286,-169C286,-169 326,-169 326,-169 332,-169 338,-175 338,-181 338,-181 338,-199 338,-199 338,-205 332,-211 326,-211 326,-211 286,-211 286,-211 280,-211 274,-205 274,-199 274,-199 274,-181 274,-181 274,-175 280,-169 286,-169"/>
</g>
<g id="clust52" class="cluster">
<title>outer_cluster_Inst&#45;4</title>
</g>
<g id="clust53" class="cluster">
<title>cluster_Inst&#45;4</title>
<path fill="#bebada" stroke="black" stroke-dasharray="5,2" d="M595,-169C595,-169 635,-169 635,-169 641,-169 647,-175 647,-181 647,-181 647,-199 647,-199 647,-205 641,-211 635,-211 635,-211 595,-211 595,-211 589,-211 583,-205 583,-199 583,-199 583,-181 583,-181 583,-175 589,-169 595,-169"/>
</g>
<g id="clust55" class="cluster">
<title>outer_cluster_String&#45;5</title>
</g>
<g id="clust56" class="cluster">
<title>cluster_String&#45;5</title>
<path fill="#fb8072" stroke="black" stroke-dasharray="5,2" d="M599,-90C599,-90 637,-90 637,-90 643,-90 649,-96 649,-102 649,-102 649,-120 649,-120 649,-126 643,-132 637,-132 637,-132 599,-132 599,-132 593,-132 587,-126 587,-120 587,-120 587,-102 587,-102 587,-96 593,-90 599,-90"/>
</g>
<g id="clust58" class="cluster">
<title>outer_cluster_String&#45;2</title>
</g>
<g id="clust59" class="cluster">
<title>cluster_String&#45;2</title>
<path fill="#fb8072" stroke="black" stroke-dasharray="5,2" d="M740,-90C740,-90 780,-90 780,-90 786,-90 792,-96 792,-102 792,-102 792,-120 792,-120 792,-126 786,-132 780,-132 780,-132 740,-132 740,-132 734,-132 728,-126 728,-120 728,-120 728,-102 728,-102 728,-96 734,-90 740,-90"/>
</g>
<g id="clust61" class="cluster">
<title>outer_cluster_String&#45;7</title>
</g>
<g id="clust62" class="cluster">
<title>cluster_String&#45;7</title>
<path fill="#fb8072" stroke="black" stroke-dasharray="5,2" d="M167,-11C167,-11 289,-11 289,-11 295,-11 301,-17 301,-23 301,-23 301,-41 301,-41 301,-47 295,-53 289,-53 289,-53 167,-53 167,-53 161,-53 155,-47 155,-41 155,-41 155,-23 155,-23 155,-17 161,-11 167,-11"/>
</g>
<g id="clust64" class="cluster">
<title>outer_cluster_String&#45;6</title>
</g>
<g id="clust65" class="cluster">
<title>cluster_String&#45;6</title>
<path fill="#fb8072" stroke="black" stroke-dasharray="5,2" d="M495,-90C495,-90 569,-90 569,-90 575,-90 581,-96 581,-102 581,-102 581,-120 581,-120 581,-126 575,-132 569,-132 569,-132 495,-132 495,-132 489,-132 483,-126 483,-120 483,-120 483,-102 483,-102 483,-96 489,-90 495,-90"/>
</g>
<g id="clust67" class="cluster">
<title>outer_cluster_String&#45;3</title>
</g>
<g id="clust68" class="cluster">
<title>cluster_String&#45;3</title>
<path fill="#fb8072" stroke="black" stroke-dasharray="5,2" d="M425,-90C425,-90 465,-90 465,-90 471,-90 477,-96 477,-102 477,-102 477,-120 477,-120 477,-126 471,-132 465,-132 465,-132 425,-132 425,-132 419,-132 413,-126 413,-120 413,-120 413,-102 413,-102 413,-96 419,-90 425,-90"/>
</g>
<g id="clust70" class="cluster">
<title>outer_cluster_String&#45;4</title>
</g>
<g id="clust71" class="cluster">
<title>cluster_String&#45;4</title>
<path fill="#fb8072" stroke="black" stroke-dasharray="5,2" d="M287,-90C287,-90 327,-90 327,-90 333,-90 339,-96 339,-102 339,-102 339,-120 339,-120 339,-126 333,-132 327,-132 327,-132 287,-132 287,-132 281,-132 275,-126 275,-120 275,-120 275,-102 275,-102 275,-96 281,-90 287,-90"/>
</g>
<g id="clust73" class="cluster">
<title>outer_cluster_String&#45;8</title>
</g>
<g id="clust74" class="cluster">
<title>cluster_String&#45;8</title>
<path fill="#fb8072" stroke="black" stroke-dasharray="5,2" d="M23,-90C23,-90 167,-90 167,-90 173,-90 179,-96 179,-102 179,-102 179,-120 179,-120 179,-126 173,-132 167,-132 167,-132 23,-132 23,-132 17,-132 11,-126 11,-120 11,-120 11,-102 11,-102 11,-96 17,-90 23,-90"/>
</g>
<g id="clust76" class="cluster">
<title>outer_cluster_String&#45;1</title>
</g>
<g id="clust77" class="cluster">
<title>cluster_String&#45;1</title>
<path fill="#fb8072" stroke="black" stroke-dasharray="5,2" d="M810,-90C810,-90 850,-90 850,-90 856,-90 862,-96 862,-102 862,-102 862,-120 862,-120 862,-126 856,-132 850,-132 850,-132 810,-132 810,-132 804,-132 798,-126 798,-120 798,-120 798,-102 798,-102 798,-96 804,-90 810,-90"/>
</g>
<g id="clust79" class="cluster">
<title>outer_cluster_i64&#45;8</title>
</g>
<g id="clust80" class="cluster">
<title>cluster_i64&#45;8</title>
<path fill="#80b1d3" stroke="black" stroke-dasharray="5,2" d="M669,-90C669,-90 705,-90 705,-90 711,-90 717,-96 717,-102 717,-102 717,-120 717,-120 717,-126 711,-132 705,-132 705,-132 669,-132 669,-132 663,-132 657,-126 657,-120 657,-120 657,-102 657,-102 657,-96 663,-90 669,-90"/>
</g>
<g id="clust82" class="cluster">
<title>outer_cluster_i64&#45;4</title>
</g>
<g id="clust83" class="cluster">
<title>cluster_i64&#45;4</title>
<path fill="#80b1d3" stroke="black" stroke-dasharray="5,2" d="M883,-90C883,-90 919,-90 919,-90 925,-90 931,-96 931,-102 931,-102 931,-120 931,-120 931,-126 925,-132 919,-132 919,-132 883,-132 883,-132 877,-132 871,-126 871,-120 871,-120 871,-102 871,-102 871,-96 877,-90 883,-90"/>
</g>
<g id="clust85" class="cluster">
<title>outer_cluster_i64&#45;0</title>
</g>
<g id="clust86" class="cluster">
<title>cluster_i64&#45;0</title>
<path fill="#80b1d3" stroke="black" stroke-dasharray="5,2" d="M359,-90C359,-90 395,-90 395,-90 401,-90 407,-96 407,-102 407,-102 407,-120 407,-120 407,-126 401,-132 395,-132 395,-132 359,-132 359,-132 353,-132 347,-126 347,-120 347,-120 347,-102 347,-102 347,-96 353,-90 359,-90"/>
</g>
<!-- function&#45;1&#45;ImmLabel&#45;&gt;primitive&#45;String&#45;7 -->
<g id="edge1" class="edge">
<title>function&#45;1&#45;ImmLabel:s&#45;&gt;primitive&#45;String&#45;7</title>
<path fill="none" stroke="black" d="M228,-95C228,-81.84 228,-67.11 228,-55.3"/>
<polygon fill="black" stroke="black" points="229.75,-58 228,-53 226.25,-58 229.75,-58"/>
</g>
<!-- function&#45;0&#45;ImmVal&#45;&gt;primitive&#45;i64&#45;0 -->
<g id="edge2" class="edge">
<title>function&#45;0&#45;ImmVal:s&#45;&gt;primitive&#45;i64&#45;0</title>
<path fill="none" stroke="black" d="M378,-174C378,-160.84 377.77,-146.1 377.53,-134.3"/>
<polygon fill="black" stroke="black" points="379.41,-136.91 377.42,-132 375.91,-137.08 379.41,-136.91"/>
</g>
<!-- function&#45;1&#45;ImmVal&#45;&gt;primitive&#45;i64&#45;8 -->
<g id="edge3" class="edge">
<title>function&#45;1&#45;ImmVal:s&#45;&gt;primitive&#45;i64&#45;8</title>
<path fill="none" stroke="black" d="M687,-174C687,-160.84 687,-146.11 687,-134.3"/>
<polygon fill="black" stroke="black" points="688.75,-137 687,-132 685.25,-137 688.75,-137"/>
</g>
<!-- function&#45;2&#45;ImmVal&#45;&gt;primitive&#45;i64&#45;4 -->
<g id="edge4" class="edge">
<title>function&#45;2&#45;ImmVal:s&#45;&gt;primitive&#45;i64&#45;4</title>
<path fill="none" stroke="black" d="M901,-174C901,-160.84 901,-146.11 901,-134.3"/>
<polygon fill="black" stroke="black" points="902.75,-137 901,-132 899.25,-137 902.75,-137"/>
</g>
<!-- function&#45;0&#45;ImmLabel&#45;&gt;primitive&#45;String&#45;6 -->
<g id="edge5" class="edge">
<title>function&#45;0&#45;ImmLabel:s&#45;&gt;primitive&#45;String&#45;6</title>
<path fill="none" stroke="black" d="M532,-174C532,-160.84 532,-146.11 532,-134.3"/>
<polygon fill="black" stroke="black" points="533.75,-137 532,-132 530.25,-137 533.75,-137"/>
</g>
<!-- function&#45;2&#45;ImmLabel&#45;&gt;primitive&#45;String&#45;8 -->
<g id="edge6" class="edge">
<title>function&#45;2&#45;ImmLabel:s&#45;&gt;primitive&#45;String&#45;8</title>
<path fill="none" stroke="black" d="M109,-174C109,-160.48 105.79,-145.7 102.45,-133.97"/>
<polygon fill="black" stroke="black" points="105.38,-135.01 101.02,-132 102.55,-137.07 105.38,-135.01"/>
</g>
<!-- function&#45;0&#45;RegVal&#45;&gt;primitive&#45;String&#45;1 -->
<g id="edge7" class="edge">
<title>function&#45;0&#45;RegVal:s&#45;&gt;primitive&#45;String&#45;1</title>
<path fill="none" stroke="black" d="M830,-174C830,-160.84 830,-146.11 830,-134.3"/>
<polygon fill="black" stroke="black" points="831.75,-137 830,-132 828.25,-137 831.75,-137"/>
</g>
<!-- function&#45;0&#45;Auipc&#45;&gt;function&#45;1&#45;ImmLabel -->
<g id="edge8" class="edge">
<title>function&#45;0&#45;Auipc:s&#45;&gt;function&#45;1&#45;ImmLabel</title>
<path fill="none" stroke="black" d="M200,-174C200,-159.7 206.11,-144.97 212.52,-133.45"/>
<polygon fill="black" stroke="black" points="211.62,-136.69 214.08,-132 209.23,-134.14 211.62,-136.69"/>
</g>
<!-- function&#45;0&#45;Jalr&#45;&gt;function&#45;2&#45;ImmLabel -->
<g id="edge10" class="edge">
<title>function&#45;0&#45;Jalr:s&#45;&gt;function&#45;2&#45;ImmLabel</title>
<path fill="none" stroke="black" d="M169,-253C169,-235.76 156.86,-221.56 143.42,-211.12"/>
<polygon fill="black" stroke="black" points="148.39,-212.13 143.21,-211 146.56,-215.11 148.39,-212.13"/>
</g>
<!-- function&#45;0&#45;Jalr&#45;&gt;function&#45;0&#45;Auipc -->
<g id="edge9" class="edge">
<title>function&#45;0&#45;Jalr:s&#45;&gt;function&#45;0&#45;Auipc</title>
<path fill="none" stroke="black" d="M153,-253C153,-237.1 162.93,-222.72 173.67,-211.82"/>
<polygon fill="black" stroke="black" points="171.61,-214.78 175.33,-211 170.07,-211.64 171.61,-214.78"/>
</g>
<!-- function&#45;0&#45;Addi&#45;&gt;function&#45;0&#45;ImmLabel -->
<g id="edge12" class="edge">
<title>function&#45;0&#45;Addi:s&#45;&gt;function&#45;0&#45;ImmLabel</title>
<path fill="none" stroke="black" d="M527,-253C527,-239.81 527.91,-225.08 528.87,-213.28"/>
<polygon fill="black" stroke="black" points="530.08,-216.24 529.3,-211 526.64,-215.58 530.08,-216.24"/>
</g>
<!-- function&#45;0&#45;Addi&#45;&gt;function&#45;2&#45;RegVal -->
<g id="edge11" class="edge">
<title>function&#45;0&#45;Addi:s&#45;&gt;function&#45;2&#45;RegVal</title>
<path fill="none" stroke="black" d="M507,-253C507,-236.17 495.5,-221.87 482.93,-211.25"/>
<polygon fill="black" stroke="black" points="487.28,-210.62 482,-211 486.37,-214 487.28,-210.62"/>
</g>
<!-- function&#45;2&#45;RegVal&#45;&gt;primitive&#45;String&#45;3 -->
<g id="edge19" class="edge">
<title>function&#45;2&#45;RegVal:s&#45;&gt;primitive&#45;String&#45;3</title>
<path fill="none" stroke="black" d="M452,-174C452,-160.76 450.4,-146.02 448.73,-134.24"/>
<polygon fill="black" stroke="black" points="451.24,-136.16 447.97,-132 447.93,-137.3 451.24,-136.16"/>
</g>
<!-- function&#45;0&#45;Sw&#45;&gt;function&#45;1&#45;ImmVal -->
<g id="edge15" class="edge">
<title>function&#45;0&#45;Sw:s&#45;&gt;function&#45;1&#45;ImmVal</title>
<path fill="none" stroke="black" d="M687,-253C687,-239.84 687,-225.11 687,-213.3"/>
<polygon fill="black" stroke="black" points="688.75,-216 687,-211 685.25,-216 688.75,-216"/>
</g>
<!-- function&#45;0&#45;Sw&#45;&gt;function&#45;4&#45;RegVal -->
<g id="edge13" class="edge">
<title>function&#45;0&#45;Sw:s&#45;&gt;function&#45;4&#45;RegVal</title>
<path fill="none" stroke="black" d="M668,-253C668,-236.59 657.14,-222.33 645.25,-211.64"/>
<polygon fill="black" stroke="black" points="649.38,-212.08 644.19,-211 647.57,-215.08 649.38,-212.08"/>
</g>
<!-- function&#45;0&#45;Sw&#45;&gt;function&#45;1&#45;RegVal -->
<g id="edge14" class="edge">
<title>function&#45;0&#45;Sw:s&#45;&gt;function&#45;1&#45;RegVal</title>
<path fill="none" stroke="black" d="M680,-253C680,-246.52 706.67,-226.64 729.02,-211.12"/>
<polygon fill="black" stroke="black" points="725.34,-213.26 730.13,-211 724.98,-209.78 725.34,-213.26"/>
</g>
<!-- function&#45;4&#45;RegVal&#45;&gt;primitive&#45;String&#45;5 -->
<g id="edge27" class="edge">
<title>function&#45;4&#45;RegVal:s&#45;&gt;primitive&#45;String&#45;5</title>
<path fill="none" stroke="black" d="M616,-174C616,-160.83 616.46,-146.1 616.93,-134.3"/>
<polygon fill="black" stroke="black" points="618.42,-137.14 617.15,-132 614.94,-136.81 618.42,-137.14"/>
</g>
<!-- function&#45;1&#45;RegVal&#45;&gt;primitive&#45;String&#45;2 -->
<g id="edge16" class="edge">
<title>function&#45;1&#45;RegVal:s&#45;&gt;primitive&#45;String&#45;2</title>
<path fill="none" stroke="black" d="M760,-174C760,-160.84 760,-146.11 760,-134.3"/>
<polygon fill="black" stroke="black" points="761.75,-137 760,-132 758.25,-137 761.75,-137"/>
</g>
<!-- function&#45;1&#45;Addi&#45;&gt;function&#45;0&#45;ImmVal -->
<g id="edge18" class="edge">
<title>function&#45;1&#45;Addi:s&#45;&gt;function&#45;0&#45;ImmVal</title>
<path fill="none" stroke="black" d="M352,-253C352,-238.78 357.89,-224.05 364.06,-212.52"/>
<polygon fill="black" stroke="black" points="363.32,-215.82 365.52,-211 360.8,-213.4 363.32,-215.82"/>
</g>
<!-- function&#45;1&#45;Addi&#45;&gt;function&#45;3&#45;RegVal -->
<g id="edge17" class="edge">
<title>function&#45;1&#45;Addi:s&#45;&gt;function&#45;3&#45;RegVal</title>
<path fill="none" stroke="black" d="M332,-253C332,-238.78 326.11,-224.05 319.94,-212.52"/>
<polygon fill="black" stroke="black" points="323.2,-213.4 318.48,-211 320.68,-215.82 323.2,-213.4"/>
</g>
<!-- function&#45;3&#45;RegVal&#45;&gt;primitive&#45;String&#45;4 -->
<g id="edge26" class="edge">
<title>function&#45;3&#45;RegVal:s&#45;&gt;primitive&#45;String&#45;4</title>
<path fill="none" stroke="black" d="M307,-174C307,-160.84 307,-146.11 307,-134.3"/>
<polygon fill="black" stroke="black" points="308.75,-137 307,-132 305.25,-137 308.75,-137"/>
</g>
<!-- function&#45;1&#45;Sw&#45;&gt;function&#45;2&#45;ImmVal -->
<g id="edge22" class="edge">
<title>function&#45;1&#45;Sw:s&#45;&gt;function&#45;2&#45;ImmVal</title>
<path fill="none" stroke="black" d="M836,-253C836,-242.22 854.97,-224.99 872.41,-211.43"/>
<polygon fill="black" stroke="black" points="869.54,-214.16 873.8,-211 868.5,-210.82 869.54,-214.16"/>
</g>
<!-- function&#45;1&#45;Sw&#45;&gt;function&#45;0&#45;RegVal -->
<g id="edge21" class="edge">
<title>function&#45;1&#45;Sw:s&#45;&gt;function&#45;0&#45;RegVal</title>
<path fill="none" stroke="black" d="M829,-253C829,-239.84 829,-225.11 829,-213.3"/>
<polygon fill="black" stroke="black" points="830.75,-216 829,-211 827.25,-216 830.75,-216"/>
</g>
<!-- function&#45;1&#45;Sw&#45;&gt;function&#45;4&#45;RegVal -->
<g id="edge20" class="edge">
<title>function&#45;1&#45;Sw:s&#45;&gt;function&#45;4&#45;RegVal</title>
<path fill="none" stroke="black" d="M817,-253C817,-177.65 721.58,-242.94 652,-214 651.46,-213.78 650.92,-213.54 650.38,-213.31"/>
<polygon fill="black" stroke="black" points="650.79,-211.56 645.52,-211 649.29,-214.72 650.79,-211.56"/>
</g>
<!-- function&#45;2&#45;Sw&#45;&gt;function&#45;0&#45;ImmVal -->
<g id="edge25" class="edge">
<title>function&#45;2&#45;Sw:s&#45;&gt;function&#45;0&#45;ImmVal</title>
<path fill="none" stroke="black" d="M458,-253C458,-246.47 430.99,-226.59 408.36,-211.09"/>
<polygon fill="black" stroke="black" points="413.43,-211.82 408.19,-211 411.77,-214.91 413.43,-211.82"/>
</g>
<!-- function&#45;2&#45;Sw&#45;&gt;function&#45;2&#45;RegVal -->
<g id="edge24" class="edge">
<title>function&#45;2&#45;Sw:s&#45;&gt;function&#45;2&#45;RegVal</title>
<path fill="none" stroke="black" d="M451,-253C451,-239.84 451,-225.11 451,-213.3"/>
<polygon fill="black" stroke="black" points="452.75,-216 451,-211 449.25,-216 452.75,-216"/>
</g>
<!-- function&#45;2&#45;Sw&#45;&gt;function&#45;4&#45;RegVal -->
<g id="edge23" class="edge">
<title>function&#45;2&#45;Sw:s&#45;&gt;function&#45;4&#45;RegVal</title>
<path fill="none" stroke="black" d="M439,-253C439,-190.55 516.39,-238.1 574,-214 576.54,-212.94 579.12,-211.75 581.7,-210.5"/>
<polygon fill="black" stroke="black" points="580.73,-213.97 583,-209.18 578.24,-211.51 580.73,-213.97"/>
</g>
<!-- function&#45;1&#45;ImmLabel -->
<g id="node1" class="node">
<title>function&#45;1&#45;ImmLabel</title>
<g id="a_node1"><a xlink:title="Imm&#45;14: function&#45;1&#45;ImmLabel">
<path fill="white" stroke="transparent" d="M198.17,-95C198.17,-95 255.83,-95 255.83,-95 261.17,-95 266.5,-100.33 266.5,-105.67 266.5,-105.67 266.5,-116.33 266.5,-116.33 266.5,-121.67 261.17,-127 255.83,-127 255.83,-127 198.17,-127 198.17,-127 192.83,-127 187.5,-121.67 187.5,-116.33 187.5,-116.33 187.5,-105.67 187.5,-105.67 187.5,-100.33 192.83,-95 198.17,-95"/>
<text text-anchor="start" x="193" y="-107.3" font-family="Helvetica,sans-Serif" font-size="14.00">ImmLabel</text>
<path fill="none" stroke="black" d="M198.17,-95C198.17,-95 255.83,-95 255.83,-95 261.17,-95 266.5,-100.33 266.5,-105.67 266.5,-105.67 266.5,-116.33 266.5,-116.33 266.5,-121.67 261.17,-127 255.83,-127 255.83,-127 198.17,-127 198.17,-127 192.83,-127 187.5,-121.67 187.5,-116.33 187.5,-116.33 187.5,-105.67 187.5,-105.67 187.5,-100.33 192.83,-95 198.17,-95"/>
</a>
</g>
</g>
<!-- primitive&#45;String&#45;7 -->
<g id="node2" class="node">
<title>primitive&#45;String&#45;7</title>
<g id="a_node2"><a xlink:title="String&#45;7: primitive&#45;String&#45;7">
<path fill="white" stroke="transparent" d="M168.67,-16C168.67,-16 287.33,-16 287.33,-16 292.67,-16 298,-21.33 298,-26.67 298,-26.67 298,-37.33 298,-37.33 298,-42.67 292.67,-48 287.33,-48 287.33,-48 168.67,-48 168.67,-48 163.33,-48 158,-42.67 158,-37.33 158,-37.33 158,-26.67 158,-26.67 158,-21.33 163.33,-16 168.67,-16"/>
<text text-anchor="start" x="163" y="-28.3" font-family="Helvetica,sans-Serif" font-size="14.00">&quot;%pcrel_hi(printf)&quot;</text>
<path fill="none" stroke="black" d="M168.67,-16C168.67,-16 287.33,-16 287.33,-16 292.67,-16 298,-21.33 298,-26.67 298,-26.67 298,-37.33 298,-37.33 298,-42.67 292.67,-48 287.33,-48 287.33,-48 168.67,-48 168.67,-48 163.33,-48 158,-42.67 158,-37.33 158,-37.33 158,-26.67 158,-26.67 158,-21.33 163.33,-16 168.67,-16"/>
</a>
</g>
</g>
<!-- function&#45;0&#45;ImmVal -->
<g id="node3" class="node">
<title>function&#45;0&#45;ImmVal</title>
<g id="a_node3"><a xlink:title="Imm&#45;7: function&#45;0&#45;ImmVal">
<path fill="white" stroke="transparent" d="M357.67,-174C357.67,-174 398.33,-174 398.33,-174 403.67,-174 409,-179.33 409,-184.67 409,-184.67 409,-195.33 409,-195.33 409,-200.67 403.67,-206 398.33,-206 398.33,-206 357.67,-206 357.67,-206 352.33,-206 347,-200.67 347,-195.33 347,-195.33 347,-184.67 347,-184.67 347,-179.33 352.33,-174 357.67,-174"/>
<text text-anchor="start" x="352" y="-186.3" font-family="Helvetica,sans-Serif" font-size="14.00">ImmVal</text>
<path fill="none" stroke="black" d="M357.67,-174C357.67,-174 398.33,-174 398.33,-174 403.67,-174 409,-179.33 409,-184.67 409,-184.67 409,-195.33 409,-195.33 409,-200.67 403.67,-206 398.33,-206 398.33,-206 357.67,-206 357.67,-206 352.33,-206 347,-200.67 347,-195.33 347,-195.33 347,-184.67 347,-184.67 347,-179.33 352.33,-174 357.67,-174"/>
</a>
</g>
</g>
<!-- primitive&#45;i64&#45;0 -->
<g id="node4" class="node">
<title>primitive&#45;i64&#45;0</title>
<g id="a_node4"><a xlink:title="i64&#45;0: primitive&#45;i64&#45;0">
<path fill="white" stroke="transparent" d="M371.67,-95C371.67,-95 382.33,-95 382.33,-95 387.67,-95 393,-100.33 393,-105.67 393,-105.67 393,-116.33 393,-116.33 393,-121.67 387.67,-127 382.33,-127 382.33,-127 371.67,-127 371.67,-127 366.33,-127 361,-121.67 361,-116.33 361,-116.33 361,-105.67 361,-105.67 361,-100.33 366.33,-95 371.67,-95"/>
<text text-anchor="start" x="372" y="-107.3" font-family="Helvetica,sans-Serif" font-size="14.00">0</text>
<path fill="none" stroke="black" d="M371.67,-95C371.67,-95 382.33,-95 382.33,-95 387.67,-95 393,-100.33 393,-105.67 393,-105.67 393,-116.33 393,-116.33 393,-121.67 387.67,-127 382.33,-127 382.33,-127 371.67,-127 371.67,-127 366.33,-127 361,-121.67 361,-116.33 361,-116.33 361,-105.67 361,-105.67 361,-100.33 366.33,-95 371.67,-95"/>
</a>
</g>
</g>
<!-- function&#45;1&#45;ImmVal -->
<g id="node5" class="node">
<title>function&#45;1&#45;ImmVal</title>
<g id="a_node5"><a xlink:title="Imm&#45;9: function&#45;1&#45;ImmVal">
<path fill="white" stroke="transparent" d="M666.67,-174C666.67,-174 707.33,-174 707.33,-174 712.67,-174 718,-179.33 718,-184.67 718,-184.67 718,-195.33 718,-195.33 718,-200.67 712.67,-206 707.33,-206 707.33,-206 666.67,-206 666.67,-206 661.33,-206 656,-200.67 656,-195.33 656,-195.33 656,-184.67 656,-184.67 656,-179.33 661.33,-174 666.67,-174"/>
<text text-anchor="start" x="661" y="-186.3" font-family="Helvetica,sans-Serif" font-size="14.00">ImmVal</text>
<path fill="none" stroke="black" d="M666.67,-174C666.67,-174 707.33,-174 707.33,-174 712.67,-174 718,-179.33 718,-184.67 718,-184.67 718,-195.33 718,-195.33 718,-200.67 712.67,-206 707.33,-206 707.33,-206 666.67,-206 666.67,-206 661.33,-206 656,-200.67 656,-195.33 656,-195.33 656,-184.67 656,-184.67 656,-179.33 661.33,-174 666.67,-174"/>
</a>
</g>
</g>
<!-- primitive&#45;i64&#45;8 -->
<g id="node6" class="node">
<title>primitive&#45;i64&#45;8</title>
<g id="a_node6"><a xlink:title="i64&#45;8: primitive&#45;i64&#45;8">
<path fill="white" stroke="transparent" d="M681.67,-95C681.67,-95 692.33,-95 692.33,-95 697.67,-95 703,-100.33 703,-105.67 703,-105.67 703,-116.33 703,-116.33 703,-121.67 697.67,-127 692.33,-127 692.33,-127 681.67,-127 681.67,-127 676.33,-127 671,-121.67 671,-116.33 671,-116.33 671,-105.67 671,-105.67 671,-100.33 676.33,-95 681.67,-95"/>
<text text-anchor="start" x="682" y="-107.3" font-family="Helvetica,sans-Serif" font-size="14.00">8</text>
<path fill="none" stroke="black" d="M681.67,-95C681.67,-95 692.33,-95 692.33,-95 697.67,-95 703,-100.33 703,-105.67 703,-105.67 703,-116.33 703,-116.33 703,-121.67 697.67,-127 692.33,-127 692.33,-127 681.67,-127 681.67,-127 676.33,-127 671,-121.67 671,-116.33 671,-116.33 671,-105.67 671,-105.67 671,-100.33 676.33,-95 681.67,-95"/>
</a>
</g>
</g>
<!-- function&#45;2&#45;ImmVal -->
<g id="node7" class="node">
<title>function&#45;2&#45;ImmVal</title>
<g id="a_node7"><a xlink:title="Imm&#45;11: function&#45;2&#45;ImmVal">
<path fill="white" stroke="transparent" d="M880.67,-174C880.67,-174 921.33,-174 921.33,-174 926.67,-174 932,-179.33 932,-184.67 932,-184.67 932,-195.33 932,-195.33 932,-200.67 926.67,-206 921.33,-206 921.33,-206 880.67,-206 880.67,-206 875.33,-206 870,-200.67 870,-195.33 870,-195.33 870,-184.67 870,-184.67 870,-179.33 875.33,-174 880.67,-174"/>
<text text-anchor="start" x="875" y="-186.3" font-family="Helvetica,sans-Serif" font-size="14.00">ImmVal</text>
<path fill="none" stroke="black" d="M880.67,-174C880.67,-174 921.33,-174 921.33,-174 926.67,-174 932,-179.33 932,-184.67 932,-184.67 932,-195.33 932,-195.33 932,-200.67 926.67,-206 921.33,-206 921.33,-206 880.67,-206 880.67,-206 875.33,-206 870,-200.67 870,-195.33 870,-195.33 870,-184.67 870,-184.67 870,-179.33 875.33,-174 880.67,-174"/>
</a>
</g>
</g>
<!-- primitive&#45;i64&#45;4 -->
<g id="node8" class="node">
<title>primitive&#45;i64&#45;4</title>
<g id="a_node8"><a xlink:title="i64&#45;4: primitive&#45;i64&#45;4">
<path fill="white" stroke="transparent" d="M895.67,-95C895.67,-95 906.33,-95 906.33,-95 911.67,-95 917,-100.33 917,-105.67 917,-105.67 917,-116.33 917,-116.33 917,-121.67 911.67,-127 906.33,-127 906.33,-127 895.67,-127 895.67,-127 890.33,-127 885,-121.67 885,-116.33 885,-116.33 885,-105.67 885,-105.67 885,-100.33 890.33,-95 895.67,-95"/>
<text text-anchor="start" x="896" y="-107.3" font-family="Helvetica,sans-Serif" font-size="14.00">4</text>
<path fill="none" stroke="black" d="M895.67,-95C895.67,-95 906.33,-95 906.33,-95 911.67,-95 917,-100.33 917,-105.67 917,-105.67 917,-116.33 917,-116.33 917,-121.67 911.67,-127 906.33,-127 906.33,-127 895.67,-127 895.67,-127 890.33,-127 885,-121.67 885,-116.33 885,-116.33 885,-105.67 885,-105.67 885,-100.33 890.33,-95 895.67,-95"/>
</a>
</g>
</g>
<!-- function&#45;0&#45;ImmLabel -->
<g id="node9" class="node">
<title>function&#45;0&#45;ImmLabel</title>
<g id="a_node9"><a xlink:title="Imm&#45;5: function&#45;0&#45;ImmLabel">
<path fill="white" stroke="transparent" d="M502.17,-174C502.17,-174 559.83,-174 559.83,-174 565.17,-174 570.5,-179.33 570.5,-184.67 570.5,-184.67 570.5,-195.33 570.5,-195.33 570.5,-200.67 565.17,-206 559.83,-206 559.83,-206 502.17,-206 502.17,-206 496.83,-206 491.5,-200.67 491.5,-195.33 491.5,-195.33 491.5,-184.67 491.5,-184.67 491.5,-179.33 496.83,-174 502.17,-174"/>
<text text-anchor="start" x="497" y="-186.3" font-family="Helvetica,sans-Serif" font-size="14.00">ImmLabel</text>
<path fill="none" stroke="black" d="M502.17,-174C502.17,-174 559.83,-174 559.83,-174 565.17,-174 570.5,-179.33 570.5,-184.67 570.5,-184.67 570.5,-195.33 570.5,-195.33 570.5,-200.67 565.17,-206 559.83,-206 559.83,-206 502.17,-206 502.17,-206 496.83,-206 491.5,-200.67 491.5,-195.33 491.5,-195.33 491.5,-184.67 491.5,-184.67 491.5,-179.33 496.83,-174 502.17,-174"/>
</a>
</g>
</g>
<!-- primitive&#45;String&#45;6 -->
<g id="node10" class="node">
<title>primitive&#45;String&#45;6</title>
<g id="a_node10"><a xlink:title="String&#45;6: primitive&#45;String&#45;6">
<path fill="white" stroke="transparent" d="M497.17,-95C497.17,-95 566.83,-95 566.83,-95 572.17,-95 577.5,-100.33 577.5,-105.67 577.5,-105.67 577.5,-116.33 577.5,-116.33 577.5,-121.67 572.17,-127 566.83,-127 566.83,-127 497.17,-127 497.17,-127 491.83,-127 486.5,-121.67 486.5,-116.33 486.5,-116.33 486.5,-105.67 486.5,-105.67 486.5,-100.33 491.83,-95 497.17,-95"/>
<text text-anchor="start" x="492" y="-107.3" font-family="Helvetica,sans-Serif" font-size="14.00">&quot;%lo(.LC1)&quot;</text>
<path fill="none" stroke="black" d="M497.17,-95C497.17,-95 566.83,-95 566.83,-95 572.17,-95 577.5,-100.33 577.5,-105.67 577.5,-105.67 577.5,-116.33 577.5,-116.33 577.5,-121.67 572.17,-127 566.83,-127 566.83,-127 497.17,-127 497.17,-127 491.83,-127 486.5,-121.67 486.5,-116.33 486.5,-116.33 486.5,-105.67 486.5,-105.67 486.5,-100.33 491.83,-95 497.17,-95"/>
</a>
</g>
</g>
<!-- function&#45;2&#45;ImmLabel -->
<g id="node11" class="node">
<title>function&#45;2&#45;ImmLabel</title>
<g id="a_node11"><a xlink:title="Imm&#45;16: function&#45;2&#45;ImmLabel">
<path fill="white" stroke="transparent" d="M79.17,-174C79.17,-174 136.83,-174 136.83,-174 142.17,-174 147.5,-179.33 147.5,-184.67 147.5,-184.67 147.5,-195.33 147.5,-195.33 147.5,-200.67 142.17,-206 136.83,-206 136.83,-206 79.17,-206 79.17,-206 73.83,-206 68.5,-200.67 68.5,-195.33 68.5,-195.33 68.5,-184.67 68.5,-184.67 68.5,-179.33 73.83,-174 79.17,-174"/>
<text text-anchor="start" x="74" y="-186.3" font-family="Helvetica,sans-Serif" font-size="14.00">ImmLabel</text>
<path fill="none" stroke="black" d="M79.17,-174C79.17,-174 136.83,-174 136.83,-174 142.17,-174 147.5,-179.33 147.5,-184.67 147.5,-184.67 147.5,-195.33 147.5,-195.33 147.5,-200.67 142.17,-206 136.83,-206 136.83,-206 79.17,-206 79.17,-206 73.83,-206 68.5,-200.67 68.5,-195.33 68.5,-195.33 68.5,-184.67 68.5,-184.67 68.5,-179.33 73.83,-174 79.17,-174"/>
</a>
</g>
</g>
<!-- primitive&#45;String&#45;8 -->
<g id="node12" class="node">
<title>primitive&#45;String&#45;8</title>
<g id="a_node12"><a xlink:title="String&#45;8: primitive&#45;String&#45;8">
<path fill="white" stroke="transparent" d="M24.67,-95C24.67,-95 165.33,-95 165.33,-95 170.67,-95 176,-100.33 176,-105.67 176,-105.67 176,-116.33 176,-116.33 176,-121.67 170.67,-127 165.33,-127 165.33,-127 24.67,-127 24.67,-127 19.33,-127 14,-121.67 14,-116.33 14,-116.33 14,-105.67 14,-105.67 14,-100.33 19.33,-95 24.67,-95"/>
<text text-anchor="start" x="19" y="-107.3" font-family="Helvetica,sans-Serif" font-size="14.00">&quot;%pcrel_lo(.Lpcrel_4)&quot;</text>
<path fill="none" stroke="black" d="M24.67,-95C24.67,-95 165.33,-95 165.33,-95 170.67,-95 176,-100.33 176,-105.67 176,-105.67 176,-116.33 176,-116.33 176,-121.67 170.67,-127 165.33,-127 165.33,-127 24.67,-127 24.67,-127 19.33,-127 14,-121.67 14,-116.33 14,-116.33 14,-105.67 14,-105.67 14,-100.33 19.33,-95 24.67,-95"/>
</a>
</g>
</g>
<!-- function&#45;0&#45;RegVal -->
<g id="node13" class="node">
<title>function&#45;0&#45;RegVal</title>
<g id="a_node13"><a xlink:title="Inst&#45;0: function&#45;0&#45;RegVal">
<path fill="white" stroke="transparent" d="M811.17,-174C811.17,-174 846.83,-174 846.83,-174 852.17,-174 857.5,-179.33 857.5,-184.67 857.5,-184.67 857.5,-195.33 857.5,-195.33 857.5,-200.67 852.17,-206 846.83,-206 846.83,-206 811.17,-206 811.17,-206 805.83,-206 800.5,-200.67 800.5,-195.33 800.5,-195.33 800.5,-184.67 800.5,-184.67 800.5,-179.33 805.83,-174 811.17,-174"/>
<text text-anchor="start" x="806" y="-186.3" font-family="Helvetica,sans-Serif" font-size="14.00">RegVal</text>
<path fill="none" stroke="black" d="M811.17,-174C811.17,-174 846.83,-174 846.83,-174 852.17,-174 857.5,-179.33 857.5,-184.67 857.5,-184.67 857.5,-195.33 857.5,-195.33 857.5,-200.67 852.17,-206 846.83,-206 846.83,-206 811.17,-206 811.17,-206 805.83,-206 800.5,-200.67 800.5,-195.33 800.5,-195.33 800.5,-184.67 800.5,-184.67 800.5,-179.33 805.83,-174 811.17,-174"/>
</a>
</g>
</g>
<!-- primitive&#45;String&#45;1 -->
<g id="node14" class="node">
<title>primitive&#45;String&#45;1</title>
<g id="a_node14"><a xlink:title="String&#45;1: primitive&#45;String&#45;1">
<path fill="white" stroke="transparent" d="M812.17,-95C812.17,-95 847.83,-95 847.83,-95 853.17,-95 858.5,-100.33 858.5,-105.67 858.5,-105.67 858.5,-116.33 858.5,-116.33 858.5,-121.67 853.17,-127 847.83,-127 847.83,-127 812.17,-127 812.17,-127 806.83,-127 801.5,-121.67 801.5,-116.33 801.5,-116.33 801.5,-105.67 801.5,-105.67 801.5,-100.33 806.83,-95 812.17,-95"/>
<text text-anchor="start" x="807" y="-107.3" font-family="Helvetica,sans-Serif" font-size="14.00">&quot;a2_0&quot;</text>
<path fill="none" stroke="black" d="M812.17,-95C812.17,-95 847.83,-95 847.83,-95 853.17,-95 858.5,-100.33 858.5,-105.67 858.5,-105.67 858.5,-116.33 858.5,-116.33 858.5,-121.67 853.17,-127 847.83,-127 847.83,-127 812.17,-127 812.17,-127 806.83,-127 801.5,-121.67 801.5,-116.33 801.5,-116.33 801.5,-105.67 801.5,-105.67 801.5,-100.33 806.83,-95 812.17,-95"/>
</a>
</g>
</g>
<!-- function&#45;0&#45;Auipc -->
<g id="node15" class="node">
<title>function&#45;0&#45;Auipc</title>
<g id="a_node15"><a xlink:title="Inst&#45;15: function&#45;0&#45;Auipc">
<path fill="white" stroke="transparent" d="M185.67,-174C185.67,-174 214.33,-174 214.33,-174 219.67,-174 225,-179.33 225,-184.67 225,-184.67 225,-195.33 225,-195.33 225,-200.67 219.67,-206 214.33,-206 214.33,-206 185.67,-206 185.67,-206 180.33,-206 175,-200.67 175,-195.33 175,-195.33 175,-184.67 175,-184.67 175,-179.33 180.33,-174 185.67,-174"/>
<text text-anchor="start" x="180" y="-186.3" font-family="Helvetica,sans-Serif" font-size="14.00">Auipc</text>
<path fill="none" stroke="black" d="M185.67,-174C185.67,-174 214.33,-174 214.33,-174 219.67,-174 225,-179.33 225,-184.67 225,-184.67 225,-195.33 225,-195.33 225,-200.67 219.67,-206 214.33,-206 214.33,-206 185.67,-206 185.67,-206 180.33,-206 175,-200.67 175,-195.33 175,-195.33 175,-184.67 175,-184.67 175,-179.33 180.33,-174 185.67,-174"/>
</a>
</g>
</g>
<!-- function&#45;0&#45;Jalr -->
<g id="node16" class="node">
<title>function&#45;0&#45;Jalr</title>
<g id="a_node16"><a xlink:title="Inst&#45;17: function&#45;0&#45;Jalr">
<path fill="white" stroke="transparent" d="M155.17,-253C155.17,-253 166.83,-253 166.83,-253 172.17,-253 177.5,-258.33 177.5,-263.67 177.5,-263.67 177.5,-274.33 177.5,-274.33 177.5,-279.67 172.17,-285 166.83,-285 166.83,-285 155.17,-285 155.17,-285 149.83,-285 144.5,-279.67 144.5,-274.33 144.5,-274.33 144.5,-263.67 144.5,-263.67 144.5,-258.33 149.83,-253 155.17,-253"/>
<text text-anchor="start" x="150" y="-265.3" font-family="Helvetica,sans-Serif" font-size="14.00">Jalr</text>
<path fill="none" stroke="black" d="M155.17,-253C155.17,-253 166.83,-253 166.83,-253 172.17,-253 177.5,-258.33 177.5,-263.67 177.5,-263.67 177.5,-274.33 177.5,-274.33 177.5,-279.67 172.17,-285 166.83,-285 166.83,-285 155.17,-285 155.17,-285 149.83,-285 144.5,-279.67 144.5,-274.33 144.5,-274.33 144.5,-263.67 144.5,-263.67 144.5,-258.33 149.83,-253 155.17,-253"/>
</a>
</g>
</g>
<!-- function&#45;0&#45;Addi -->
<g id="node17" class="node">
<title>function&#45;0&#45;Addi</title>
<g id="a_node17"><a xlink:title="Inst&#45;6: function&#45;0&#45;Addi">
<path fill="white" stroke="transparent" d="M507.17,-253C507.17,-253 526.83,-253 526.83,-253 532.17,-253 537.5,-258.33 537.5,-263.67 537.5,-263.67 537.5,-274.33 537.5,-274.33 537.5,-279.67 532.17,-285 526.83,-285 526.83,-285 507.17,-285 507.17,-285 501.83,-285 496.5,-279.67 496.5,-274.33 496.5,-274.33 496.5,-263.67 496.5,-263.67 496.5,-258.33 501.83,-253 507.17,-253"/>
<text text-anchor="start" x="502" y="-265.3" font-family="Helvetica,sans-Serif" font-size="14.00">Addi</text>
<path fill="none" stroke="black" d="M507.17,-253C507.17,-253 526.83,-253 526.83,-253 532.17,-253 537.5,-258.33 537.5,-263.67 537.5,-263.67 537.5,-274.33 537.5,-274.33 537.5,-279.67 532.17,-285 526.83,-285 526.83,-285 507.17,-285 507.17,-285 501.83,-285 496.5,-279.67 496.5,-274.33 496.5,-274.33 496.5,-263.67 496.5,-263.67 496.5,-258.33 501.83,-253 507.17,-253"/>
</a>
</g>
</g>
<!-- function&#45;2&#45;RegVal -->
<g id="node18" class="node">
<title>function&#45;2&#45;RegVal</title>
<g id="a_node18"><a xlink:title="Inst&#45;2: function&#45;2&#45;RegVal">
<path fill="white" stroke="transparent" d="M433.17,-174C433.17,-174 468.83,-174 468.83,-174 474.17,-174 479.5,-179.33 479.5,-184.67 479.5,-184.67 479.5,-195.33 479.5,-195.33 479.5,-200.67 474.17,-206 468.83,-206 468.83,-206 433.17,-206 433.17,-206 427.83,-206 422.5,-200.67 422.5,-195.33 422.5,-195.33 422.5,-184.67 422.5,-184.67 422.5,-179.33 427.83,-174 433.17,-174"/>
<text text-anchor="start" x="428" y="-186.3" font-family="Helvetica,sans-Serif" font-size="14.00">RegVal</text>
<path fill="none" stroke="black" d="M433.17,-174C433.17,-174 468.83,-174 468.83,-174 474.17,-174 479.5,-179.33 479.5,-184.67 479.5,-184.67 479.5,-195.33 479.5,-195.33 479.5,-200.67 474.17,-206 468.83,-206 468.83,-206 433.17,-206 433.17,-206 427.83,-206 422.5,-200.67 422.5,-195.33 422.5,-195.33 422.5,-184.67 422.5,-184.67 422.5,-179.33 427.83,-174 433.17,-174"/>
</a>
</g>
</g>
<!-- function&#45;0&#45;Sw -->
<g id="node19" class="node">
<title>function&#45;0&#45;Sw</title>
<g id="a_node19"><a xlink:title="Inst&#45;10: function&#45;0&#45;Sw">
<path fill="white" stroke="transparent" d="M670.67,-253C670.67,-253 681.33,-253 681.33,-253 686.67,-253 692,-258.33 692,-263.67 692,-263.67 692,-274.33 692,-274.33 692,-279.67 686.67,-285 681.33,-285 681.33,-285 670.67,-285 670.67,-285 665.33,-285 660,-279.67 660,-274.33 660,-274.33 660,-263.67 660,-263.67 660,-258.33 665.33,-253 670.67,-253"/>
<text text-anchor="start" x="665.5" y="-265.3" font-family="Helvetica,sans-Serif" font-size="14.00">Sw</text>
<path fill="none" stroke="black" d="M670.67,-253C670.67,-253 681.33,-253 681.33,-253 686.67,-253 692,-258.33 692,-263.67 692,-263.67 692,-274.33 692,-274.33 692,-279.67 686.67,-285 681.33,-285 681.33,-285 670.67,-285 670.67,-285 665.33,-285 660,-279.67 660,-274.33 660,-274.33 660,-263.67 660,-263.67 660,-258.33 665.33,-253 670.67,-253"/>
</a>
</g>
</g>
<!-- function&#45;4&#45;RegVal -->
<g id="node20" class="node">
<title>function&#45;4&#45;RegVal</title>
<g id="a_node20"><a xlink:title="Inst&#45;4: function&#45;4&#45;RegVal">
<path fill="white" stroke="transparent" d="M597.17,-174C597.17,-174 632.83,-174 632.83,-174 638.17,-174 643.5,-179.33 643.5,-184.67 643.5,-184.67 643.5,-195.33 643.5,-195.33 643.5,-200.67 638.17,-206 632.83,-206 632.83,-206 597.17,-206 597.17,-206 591.83,-206 586.5,-200.67 586.5,-195.33 586.5,-195.33 586.5,-184.67 586.5,-184.67 586.5,-179.33 591.83,-174 597.17,-174"/>
<text text-anchor="start" x="592" y="-186.3" font-family="Helvetica,sans-Serif" font-size="14.00">RegVal</text>
<path fill="none" stroke="black" d="M597.17,-174C597.17,-174 632.83,-174 632.83,-174 638.17,-174 643.5,-179.33 643.5,-184.67 643.5,-184.67 643.5,-195.33 643.5,-195.33 643.5,-200.67 638.17,-206 632.83,-206 632.83,-206 597.17,-206 597.17,-206 591.83,-206 586.5,-200.67 586.5,-195.33 586.5,-195.33 586.5,-184.67 586.5,-184.67 586.5,-179.33 591.83,-174 597.17,-174"/>
</a>
</g>
</g>
<!-- function&#45;1&#45;RegVal -->
<g id="node21" class="node">
<title>function&#45;1&#45;RegVal</title>
<g id="a_node21"><a xlink:title="Inst&#45;1: function&#45;1&#45;RegVal">
<path fill="white" stroke="transparent" d="M741.17,-174C741.17,-174 776.83,-174 776.83,-174 782.17,-174 787.5,-179.33 787.5,-184.67 787.5,-184.67 787.5,-195.33 787.5,-195.33 787.5,-200.67 782.17,-206 776.83,-206 776.83,-206 741.17,-206 741.17,-206 735.83,-206 730.5,-200.67 730.5,-195.33 730.5,-195.33 730.5,-184.67 730.5,-184.67 730.5,-179.33 735.83,-174 741.17,-174"/>
<text text-anchor="start" x="736" y="-186.3" font-family="Helvetica,sans-Serif" font-size="14.00">RegVal</text>
<path fill="none" stroke="black" d="M741.17,-174C741.17,-174 776.83,-174 776.83,-174 782.17,-174 787.5,-179.33 787.5,-184.67 787.5,-184.67 787.5,-195.33 787.5,-195.33 787.5,-200.67 782.17,-206 776.83,-206 776.83,-206 741.17,-206 741.17,-206 735.83,-206 730.5,-200.67 730.5,-195.33 730.5,-195.33 730.5,-184.67 730.5,-184.67 730.5,-179.33 735.83,-174 741.17,-174"/>
</a>
</g>
</g>
<!-- primitive&#45;String&#45;2 -->
<g id="node22" class="node">
<title>primitive&#45;String&#45;2</title>
<g id="a_node22"><a xlink:title="String&#45;2: primitive&#45;String&#45;2">
<path fill="white" stroke="transparent" d="M742.17,-95C742.17,-95 777.83,-95 777.83,-95 783.17,-95 788.5,-100.33 788.5,-105.67 788.5,-105.67 788.5,-116.33 788.5,-116.33 788.5,-121.67 783.17,-127 777.83,-127 777.83,-127 742.17,-127 742.17,-127 736.83,-127 731.5,-121.67 731.5,-116.33 731.5,-116.33 731.5,-105.67 731.5,-105.67 731.5,-100.33 736.83,-95 742.17,-95"/>
<text text-anchor="start" x="737" y="-107.3" font-family="Helvetica,sans-Serif" font-size="14.00">&quot;a3_0&quot;</text>
<path fill="none" stroke="black" d="M742.17,-95C742.17,-95 777.83,-95 777.83,-95 783.17,-95 788.5,-100.33 788.5,-105.67 788.5,-105.67 788.5,-116.33 788.5,-116.33 788.5,-121.67 783.17,-127 777.83,-127 777.83,-127 742.17,-127 742.17,-127 736.83,-127 731.5,-121.67 731.5,-116.33 731.5,-116.33 731.5,-105.67 731.5,-105.67 731.5,-100.33 736.83,-95 742.17,-95"/>
</a>
</g>
</g>
<!-- function&#45;1&#45;Addi -->
<g id="node23" class="node">
<title>function&#45;1&#45;Addi</title>
<g id="a_node23"><a xlink:title="Inst&#45;8: function&#45;1&#45;Addi">
<path fill="white" stroke="transparent" d="M332.17,-253C332.17,-253 351.83,-253 351.83,-253 357.17,-253 362.5,-258.33 362.5,-263.67 362.5,-263.67 362.5,-274.33 362.5,-274.33 362.5,-279.67 357.17,-285 351.83,-285 351.83,-285 332.17,-285 332.17,-285 326.83,-285 321.5,-279.67 321.5,-274.33 321.5,-274.33 321.5,-263.67 321.5,-263.67 321.5,-258.33 326.83,-253 332.17,-253"/>
<text text-anchor="start" x="327" y="-265.3" font-family="Helvetica,sans-Serif" font-size="14.00">Addi</text>
<path fill="none" stroke="black" d="M332.17,-253C332.17,-253 351.83,-253 351.83,-253 357.17,-253 362.5,-258.33 362.5,-263.67 362.5,-263.67 362.5,-274.33 362.5,-274.33 362.5,-279.67 357.17,-285 351.83,-285 351.83,-285 332.17,-285 332.17,-285 326.83,-285 321.5,-279.67 321.5,-274.33 321.5,-274.33 321.5,-263.67 321.5,-263.67 321.5,-258.33 326.83,-253 332.17,-253"/>
</a>
</g>
</g>
<!-- function&#45;3&#45;RegVal -->
<g id="node24" class="node">
<title>function&#45;3&#45;RegVal</title>
<g id="a_node24"><a xlink:title="Inst&#45;3: function&#45;3&#45;RegVal">
<path fill="white" stroke="transparent" d="M288.17,-174C288.17,-174 323.83,-174 323.83,-174 329.17,-174 334.5,-179.33 334.5,-184.67 334.5,-184.67 334.5,-195.33 334.5,-195.33 334.5,-200.67 329.17,-206 323.83,-206 323.83,-206 288.17,-206 288.17,-206 282.83,-206 277.5,-200.67 277.5,-195.33 277.5,-195.33 277.5,-184.67 277.5,-184.67 277.5,-179.33 282.83,-174 288.17,-174"/>
<text text-anchor="start" x="283" y="-186.3" font-family="Helvetica,sans-Serif" font-size="14.00">RegVal</text>
<path fill="none" stroke="black" d="M288.17,-174C288.17,-174 323.83,-174 323.83,-174 329.17,-174 334.5,-179.33 334.5,-184.67 334.5,-184.67 334.5,-195.33 334.5,-195.33 334.5,-200.67 329.17,-206 323.83,-206 323.83,-206 288.17,-206 288.17,-206 282.83,-206 277.5,-200.67 277.5,-195.33 277.5,-195.33 277.5,-184.67 277.5,-184.67 277.5,-179.33 282.83,-174 288.17,-174"/>
</a>
</g>
</g>
<!-- primitive&#45;String&#45;3 -->
<g id="node25" class="node">
<title>primitive&#45;String&#45;3</title>
<g id="a_node25"><a xlink:title="String&#45;3: primitive&#45;String&#45;3">
<path fill="white" stroke="transparent" d="M427.17,-95C427.17,-95 462.83,-95 462.83,-95 468.17,-95 473.5,-100.33 473.5,-105.67 473.5,-105.67 473.5,-116.33 473.5,-116.33 473.5,-121.67 468.17,-127 462.83,-127 462.83,-127 427.17,-127 427.17,-127 421.83,-127 416.5,-121.67 416.5,-116.33 416.5,-116.33 416.5,-105.67 416.5,-105.67 416.5,-100.33 421.83,-95 427.17,-95"/>
<text text-anchor="start" x="422" y="-107.3" font-family="Helvetica,sans-Serif" font-size="14.00">&quot;a5_0&quot;</text>
<path fill="none" stroke="black" d="M427.17,-95C427.17,-95 462.83,-95 462.83,-95 468.17,-95 473.5,-100.33 473.5,-105.67 473.5,-105.67 473.5,-116.33 473.5,-116.33 473.5,-121.67 468.17,-127 462.83,-127 462.83,-127 427.17,-127 427.17,-127 421.83,-127 416.5,-121.67 416.5,-116.33 416.5,-116.33 416.5,-105.67 416.5,-105.67 416.5,-100.33 421.83,-95 427.17,-95"/>
</a>
</g>
</g>
<!-- function&#45;1&#45;Sw -->
<g id="node26" class="node">
<title>function&#45;1&#45;Sw</title>
<g id="a_node26"><a xlink:title="Inst&#45;12: function&#45;1&#45;Sw">
<path fill="white" stroke="transparent" d="M819.67,-253C819.67,-253 830.33,-253 830.33,-253 835.67,-253 841,-258.33 841,-263.67 841,-263.67 841,-274.33 841,-274.33 841,-279.67 835.67,-285 830.33,-285 830.33,-285 819.67,-285 819.67,-285 814.33,-285 809,-279.67 809,-274.33 809,-274.33 809,-263.67 809,-263.67 809,-258.33 814.33,-253 819.67,-253"/>
<text text-anchor="start" x="814.5" y="-265.3" font-family="Helvetica,sans-Serif" font-size="14.00">Sw</text>
<path fill="none" stroke="black" d="M819.67,-253C819.67,-253 830.33,-253 830.33,-253 835.67,-253 841,-258.33 841,-263.67 841,-263.67 841,-274.33 841,-274.33 841,-279.67 835.67,-285 830.33,-285 830.33,-285 819.67,-285 819.67,-285 814.33,-285 809,-279.67 809,-274.33 809,-274.33 809,-263.67 809,-263.67 809,-258.33 814.33,-253 819.67,-253"/>
</a>
</g>
</g>
<!-- function&#45;2&#45;Sw -->
<g id="node27" class="node">
<title>function&#45;2&#45;Sw</title>
<g id="a_node27"><a xlink:title="Inst&#45;13: function&#45;2&#45;Sw">
<path fill="white" stroke="transparent" d="M441.67,-253C441.67,-253 452.33,-253 452.33,-253 457.67,-253 463,-258.33 463,-263.67 463,-263.67 463,-274.33 463,-274.33 463,-279.67 457.67,-285 452.33,-285 452.33,-285 441.67,-285 441.67,-285 436.33,-285 431,-279.67 431,-274.33 431,-274.33 431,-263.67 431,-263.67 431,-258.33 436.33,-253 441.67,-253"/>
<text text-anchor="start" x="436.5" y="-265.3" font-family="Helvetica,sans-Serif" font-size="14.00">Sw</text>
<path fill="none" stroke="black" d="M441.67,-253C441.67,-253 452.33,-253 452.33,-253 457.67,-253 463,-258.33 463,-263.67 463,-263.67 463,-274.33 463,-274.33 463,-279.67 457.67,-285 452.33,-285 452.33,-285 441.67,-285 441.67,-285 436.33,-285 431,-279.67 431,-274.33 431,-274.33 431,-263.67 431,-263.67 431,-258.33 436.33,-253 441.67,-253"/>
</a>
</g>
</g>
<!-- primitive&#45;String&#45;4 -->
<g id="node28" class="node">
<title>primitive&#45;String&#45;4</title>
<g id="a_node28"><a xlink:title="String&#45;4: primitive&#45;String&#45;4">
<path fill="white" stroke="transparent" d="M289.17,-95C289.17,-95 324.83,-95 324.83,-95 330.17,-95 335.5,-100.33 335.5,-105.67 335.5,-105.67 335.5,-116.33 335.5,-116.33 335.5,-121.67 330.17,-127 324.83,-127 324.83,-127 289.17,-127 289.17,-127 283.83,-127 278.5,-121.67 278.5,-116.33 278.5,-116.33 278.5,-105.67 278.5,-105.67 278.5,-100.33 283.83,-95 289.17,-95"/>
<text text-anchor="start" x="284" y="-107.3" font-family="Helvetica,sans-Serif" font-size="14.00">&quot;a6_0&quot;</text>
<path fill="none" stroke="black" d="M289.17,-95C289.17,-95 324.83,-95 324.83,-95 330.17,-95 335.5,-100.33 335.5,-105.67 335.5,-105.67 335.5,-116.33 335.5,-116.33 335.5,-121.67 330.17,-127 324.83,-127 324.83,-127 289.17,-127 289.17,-127 283.83,-127 278.5,-121.67 278.5,-116.33 278.5,-116.33 278.5,-105.67 278.5,-105.67 278.5,-100.33 283.83,-95 289.17,-95"/>
</a>
</g>
</g>
<!-- primitive&#45;String&#45;5 -->
<g id="node29" class="node">
<title>primitive&#45;String&#45;5</title>
<g id="a_node29"><a xlink:title="String&#45;5: primitive&#45;String&#45;5">
<path fill="white" stroke="transparent" d="M600.67,-95C600.67,-95 635.33,-95 635.33,-95 640.67,-95 646,-100.33 646,-105.67 646,-105.67 646,-116.33 646,-116.33 646,-121.67 640.67,-127 635.33,-127 635.33,-127 600.67,-127 600.67,-127 595.33,-127 590,-121.67 590,-116.33 590,-116.33 590,-105.67 590,-105.67 590,-100.33 595.33,-95 600.67,-95"/>
<text text-anchor="start" x="595" y="-107.3" font-family="Helvetica,sans-Serif" font-size="14.00">&quot;sp_0&quot;</text>
<path fill="none" stroke="black" d="M600.67,-95C600.67,-95 635.33,-95 635.33,-95 640.67,-95 646,-100.33 646,-105.67 646,-105.67 646,-116.33 646,-116.33 646,-121.67 640.67,-127 635.33,-127 635.33,-127 600.67,-127 600.67,-127 595.33,-127 590,-121.67 590,-116.33 590,-116.33 590,-105.67 590,-105.67 590,-100.33 595.33,-95 600.67,-95"/>
</a>
</g>
</g>
</g>
</svg>
