<?xml version="1.0" encoding="UTF-8" standalone="no"?>
<!DOCTYPE svg PUBLIC "-//W3C//DTD SVG 1.1//EN"
 "http://www.w3.org/Graphics/SVG/1.1/DTD/svg11.dtd">
<!-- Generated by graphviz version 2.43.0 (0)
 -->
<!-- Title: %3 Pages: 1 -->
<svg width="406pt" height="230pt"
 viewBox="0.00 0.00 406.00 230.00" xmlns="http://www.w3.org/2000/svg" xmlns:xlink="http://www.w3.org/1999/xlink">
<g id="graph0" class="graph" transform="scale(1 1) rotate(0) translate(4 226)">
<title>%3</title>
<polygon fill="white" stroke="#000000" points="-4,4 -4,-226 402,-226 402,4 -4,4"/>
<g id="clust1" class="cluster">
<title>outer_cluster_Imm&#45;1</title>
</g>
<g id="clust2" class="cluster">
<title>cluster_Imm&#45;1</title>
<path fill="#ffffb3" stroke="black" stroke-dasharray="5,2" d="M23,-90C23,-90 67,-90 67,-90 73,-90 79,-96 79,-102 79,-102 79,-120 79,-120 79,-126 73,-132 67,-132 67,-132 23,-132 23,-132 17,-132 11,-126 11,-120 11,-120 11,-102 11,-102 11,-96 17,-90 23,-90"/>
</g>
<g id="clust4" class="cluster">
<title>outer_cluster_Imm&#45;3</title>
</g>
<g id="clust5" class="cluster">
<title>cluster_Imm&#45;3</title>
<path fill="#ffffb3" stroke="black" stroke-dasharray="5,2" d="M241,-90C241,-90 285,-90 285,-90 291,-90 297,-96 297,-102 297,-102 297,-120 297,-120 297,-126 291,-132 285,-132 285,-132 241,-132 241,-132 235,-132 229,-126 229,-120 229,-120 229,-102 229,-102 229,-96 235,-90 241,-90"/>
</g>
<g id="clust7" class="cluster">
<title>outer_cluster_Imm&#45;7</title>
</g>
<g id="clust8" class="cluster">
<title>cluster_Imm&#45;7</title>
<path fill="#ffffb3" stroke="black" stroke-dasharray="5,2" d="M315,-90C315,-90 375,-90 375,-90 381,-90 387,-96 387,-102 387,-102 387,-120 387,-120 387,-126 381,-132 375,-132 375,-132 315,-132 315,-132 309,-132 303,-126 303,-120 303,-120 303,-102 303,-102 303,-96 309,-90 315,-90"/>
</g>
<g id="clust10" class="cluster">
<title>outer_cluster_Imm&#45;5</title>
</g>
<g id="clust11" class="cluster">
<title>cluster_Imm&#45;5</title>
<path fill="#ffffb3" stroke="black" stroke-dasharray="5,2" d="M167,-90C167,-90 211,-90 211,-90 217,-90 223,-96 223,-102 223,-102 223,-120 223,-120 223,-126 217,-132 211,-132 211,-132 167,-132 167,-132 161,-132 155,-126 155,-120 155,-120 155,-102 155,-102 155,-96 161,-90 167,-90"/>
</g>
<g id="clust13" class="cluster">
<title>outer_cluster_Inst&#45;0</title>
</g>
<g id="clust14" class="cluster">
<title>cluster_Inst&#45;0</title>
<path fill="#bebada" stroke="black" stroke-dasharray="5,2" d="M97,-90C97,-90 137,-90 137,-90 143,-90 149,-96 149,-102 149,-102 149,-120 149,-120 149,-126 143,-132 137,-132 137,-132 97,-132 97,-132 91,-132 85,-126 85,-120 85,-120 85,-102 85,-102 85,-96 91,-90 97,-90"/>
</g>
<g id="clust16" class="cluster">
<title>outer_cluster_Inst&#45;2</title>
</g>
<g id="clust17" class="cluster">
<title>cluster_Inst&#45;2</title>
<path fill="#bebada" stroke="black" stroke-dasharray="5,2" d="M48,-169C48,-169 84,-169 84,-169 90,-169 96,-175 96,-181 96,-181 96,-199 96,-199 96,-205 90,-211 84,-211 84,-211 48,-211 48,-211 42,-211 36,-205 36,-199 36,-199 36,-181 36,-181 36,-175 42,-169 48,-169"/>
</g>
<g id="clust19" class="cluster">
<title>outer_cluster_Inst&#45;8</title>
</g>
<g id="clust20" class="cluster">
<title>cluster_Inst&#45;8</title>
<path fill="#bebada" stroke="black" stroke-dasharray="5,2" d="M327,-169C327,-169 363,-169 363,-169 369,-169 375,-175 375,-181 375,-181 375,-199 375,-199 375,-205 369,-211 363,-211 363,-211 327,-211 327,-211 321,-211 315,-205 315,-199 315,-199 315,-181 315,-181 315,-175 321,-169 327,-169"/>
</g>
<g id="clust22" class="cluster">
<title>outer_cluster_Inst&#45;6</title>
</g>
<g id="clust23" class="cluster">
<title>cluster_Inst&#45;6</title>
<path fill="#bebada" stroke="black" stroke-dasharray="5,2" d="M123,-169C123,-169 159,-169 159,-169 165,-169 171,-175 171,-181 171,-181 171,-199 171,-199 171,-205 165,-211 159,-211 159,-211 123,-211 123,-211 117,-211 111,-205 111,-199 111,-199 111,-181 111,-181 111,-175 117,-169 123,-169"/>
</g>
<g id="clust25" class="cluster">
<title>outer_cluster_Inst&#45;4</title>
</g>
<g id="clust26" class="cluster">
<title>cluster_Inst&#45;4</title>
<path fill="#bebada" stroke="black" stroke-dasharray="5,2" d="M205,-169C205,-169 241,-169 241,-169 247,-169 253,-175 253,-181 253,-181 253,-199 253,-199 253,-205 247,-211 241,-211 241,-211 205,-211 205,-211 199,-211 193,-205 193,-199 193,-199 193,-181 193,-181 193,-175 199,-169 205,-169"/>
</g>
<g id="clust28" class="cluster">
<title>outer_cluster_String&#45;2</title>
</g>
<g id="clust29" class="cluster">
<title>cluster_String&#45;2</title>
<path fill="#fb8072" stroke="black" stroke-dasharray="5,2" d="M328,-11C328,-11 364,-11 364,-11 370,-11 376,-17 376,-23 376,-23 376,-41 376,-41 376,-47 370,-53 364,-53 364,-53 328,-53 328,-53 322,-53 316,-47 316,-41 316,-41 316,-23 316,-23 316,-17 322,-11 328,-11"/>
</g>
<g id="clust31" class="cluster">
<title>outer_cluster_String&#45;1</title>
</g>
<g id="clust32" class="cluster">
<title>cluster_String&#45;1</title>
<path fill="#fb8072" stroke="black" stroke-dasharray="5,2" d="M99,-11C99,-11 137,-11 137,-11 143,-11 149,-17 149,-23 149,-23 149,-41 149,-41 149,-47 143,-53 137,-53 137,-53 99,-53 99,-53 93,-53 87,-47 87,-41 87,-41 87,-23 87,-23 87,-17 93,-11 99,-11"/>
</g>
<g id="clust34" class="cluster">
<title>outer_cluster_i64&#45;4</title>
</g>
<g id="clust35" class="cluster">
<title>cluster_i64&#45;4</title>
<path fill="#80b1d3" stroke="black" stroke-dasharray="5,2" d="M245,-11C245,-11 281,-11 281,-11 287,-11 293,-17 293,-23 293,-23 293,-41 293,-41 293,-47 287,-53 281,-53 281,-53 245,-53 245,-53 239,-53 233,-47 233,-41 233,-41 233,-23 233,-23 233,-17 239,-11 245,-11"/>
</g>
<g id="clust37" class="cluster">
<title>outer_cluster_i64&#45;8</title>
</g>
<g id="clust38" class="cluster">
<title>cluster_i64&#45;8</title>
<path fill="#80b1d3" stroke="black" stroke-dasharray="5,2" d="M27,-11C27,-11 63,-11 63,-11 69,-11 75,-17 75,-23 75,-23 75,-41 75,-41 75,-47 69,-53 63,-53 63,-53 27,-53 27,-53 21,-53 15,-47 15,-41 15,-41 15,-23 15,-23 15,-17 21,-11 27,-11"/>
</g>
<g id="clust40" class="cluster">
<title>outer_cluster_i64&#45;0</title>
</g>
<g id="clust41" class="cluster">
<title>cluster_i64&#45;0</title>
<path fill="#80b1d3" stroke="black" stroke-dasharray="5,2" d="M171,-11C171,-11 207,-11 207,-11 213,-11 219,-17 219,-23 219,-23 219,-41 219,-41 219,-47 213,-53 207,-53 207,-53 171,-53 171,-53 165,-53 159,-47 159,-41 159,-41 159,-23 159,-23 159,-17 165,-11 171,-11"/>
</g>
<!-- function&#45;0&#45;ImmVal&#45;&gt;primitive&#45;i64&#45;8 -->
<g id="edge1" class="edge">
<title>function&#45;0&#45;ImmVal:s&#45;&gt;primitive&#45;i64&#45;8</title>
<path fill="none" stroke="black" d="M45,-95C45,-81.84 45,-67.11 45,-55.3"/>
<polygon fill="black" stroke="black" points="46.75,-58 45,-53 43.25,-58 46.75,-58"/>
</g>
<!-- function&#45;1&#45;ImmVal&#45;&gt;primitive&#45;i64&#45;4 -->
<g id="edge2" class="edge">
<title>function&#45;1&#45;ImmVal:s&#45;&gt;primitive&#45;i64&#45;4</title>
<path fill="none" stroke="black" d="M263,-95C263,-81.84 263,-67.11 263,-55.3"/>
<polygon fill="black" stroke="black" points="264.75,-58 263,-53 261.25,-58 264.75,-58"/>
</g>
<!-- function&#45;0&#45;ImmLabel&#45;&gt;primitive&#45;String&#45;2 -->
<g id="edge3" class="edge">
<title>function&#45;0&#45;ImmLabel:s&#45;&gt;primitive&#45;String&#45;2</title>
<path fill="none" stroke="black" d="M346,-95C346,-81.84 346,-67.11 346,-55.3"/>
<polygon fill="black" stroke="black" points="347.75,-58 346,-53 344.25,-58 347.75,-58"/>
</g>
<!-- function&#45;2&#45;ImmVal&#45;&gt;primitive&#45;i64&#45;0 -->
<g id="edge4" class="edge">
<title>function&#45;2&#45;ImmVal:s&#45;&gt;primitive&#45;i64&#45;0</title>
<path fill="none" stroke="black" d="M189,-95C189,-81.84 189,-67.11 189,-55.3"/>
<polygon fill="black" stroke="black" points="190.75,-58 189,-53 187.25,-58 190.75,-58"/>
</g>
<!-- function&#45;0&#45;RegVal&#45;&gt;primitive&#45;String&#45;1 -->
<g id="edge5" class="edge">
<title>function&#45;0&#45;RegVal:s&#45;&gt;primitive&#45;String&#45;1</title>
<path fill="none" stroke="black" d="M118,-95C118,-81.84 118,-67.11 118,-55.3"/>
<polygon fill="black" stroke="black" points="119.75,-58 118,-53 116.25,-58 119.75,-58"/>
</g>
<!-- function&#45;0&#45;Lw&#45;&gt;function&#45;0&#45;ImmVal -->
<g id="edge7" class="edge">
<title>function&#45;0&#45;Lw:s&#45;&gt;function&#45;0&#45;ImmVal</title>
<path fill="none" stroke="black" d="M74,-174C74,-159.63 67.53,-145 60.7,-133.56"/>
<polygon fill="black" stroke="black" points="63.85,-134.06 58.97,-132 61.51,-136.65 63.85,-134.06"/>
</g>
<!-- function&#45;0&#45;Lw&#45;&gt;function&#45;0&#45;RegVal -->
<g id="edge6" class="edge">
<title>function&#45;0&#45;Lw:s&#45;&gt;function&#45;0&#45;RegVal</title>
<path fill="none" stroke="black" d="M58,-174C58,-163.66 75.44,-146.23 91.36,-132.48"/>
<polygon fill="black" stroke="black" points="88.62,-135.75 92.37,-132 87.1,-132.59 88.62,-135.75"/>
</g>
<!-- function&#45;0&#45;Jal&#45;&gt;function&#45;0&#45;ImmLabel -->
<g id="edge8" class="edge">
<title>function&#45;0&#45;Jal:s&#45;&gt;function&#45;0&#45;ImmLabel</title>
<path fill="none" stroke="black" d="M345,-174C345,-160.84 345,-146.11 345,-134.3"/>
<polygon fill="black" stroke="black" points="346.75,-137 345,-132 343.25,-137 346.75,-137"/>
</g>
<!-- function&#45;2&#45;Lw&#45;&gt;function&#45;2&#45;ImmVal -->
<g id="edge10" class="edge">
<title>function&#45;2&#45;Lw:s&#45;&gt;function&#45;2&#45;ImmVal</title>
<path fill="none" stroke="black" d="M149,-174C149,-158.71 157.69,-144.2 166.97,-133.07"/>
<polygon fill="black" stroke="black" points="165.45,-136.4 168.41,-132 163.35,-133.6 165.45,-136.4"/>
</g>
<!-- function&#45;2&#45;Lw&#45;&gt;function&#45;0&#45;RegVal -->
<g id="edge9" class="edge">
<title>function&#45;2&#45;Lw:s&#45;&gt;function&#45;0&#45;RegVal</title>
<path fill="none" stroke="black" d="M133,-174C133,-160.38 129.34,-145.6 125.52,-133.89"/>
<polygon fill="black" stroke="black" points="128.48,-134.63 123.88,-132 125.83,-136.92 128.48,-134.63"/>
</g>
<!-- function&#45;1&#45;Lw&#45;&gt;function&#45;1&#45;ImmVal -->
<g id="edge12" class="edge">
<title>function&#45;1&#45;Lw:s&#45;&gt;function&#45;1&#45;ImmVal</title>
<path fill="none" stroke="black" d="M231,-174C231,-159.46 238.04,-144.92 245.51,-133.58"/>
<polygon fill="black" stroke="black" points="244.67,-136.48 247.5,-132 242.5,-133.74 244.67,-136.48"/>
</g>
<!-- function&#45;1&#45;Lw&#45;&gt;function&#45;0&#45;RegVal -->
<g id="edge11" class="edge">
<title>function&#45;1&#45;Lw:s&#45;&gt;function&#45;0&#45;RegVal</title>
<path fill="none" stroke="black" d="M215,-174C215,-173.53 181.26,-152.26 153.37,-134.77"/>
<polygon fill="black" stroke="black" points="154.12,-133.17 148.95,-132 152.26,-136.14 154.12,-133.17"/>
</g>
<!-- function&#45;0&#45;ImmVal -->
<g id="node1" class="node">
<title>function&#45;0&#45;ImmVal</title>
<g id="a_node1"><a xlink:title="Imm&#45;1: function&#45;0&#45;ImmVal">
<path fill="white" stroke="transparent" d="M24.67,-95C24.67,-95 65.33,-95 65.33,-95 70.67,-95 76,-100.33 76,-105.67 76,-105.67 76,-116.33 76,-116.33 76,-121.67 70.67,-127 65.33,-127 65.33,-127 24.67,-127 24.67,-127 19.33,-127 14,-121.67 14,-116.33 14,-116.33 14,-105.67 14,-105.67 14,-100.33 19.33,-95 24.67,-95"/>
<text text-anchor="start" x="19" y="-107.3" font-family="Helvetica,sans-Serif" font-size="14.00">ImmVal</text>
<path fill="none" stroke="black" d="M24.67,-95C24.67,-95 65.33,-95 65.33,-95 70.67,-95 76,-100.33 76,-105.67 76,-105.67 76,-116.33 76,-116.33 76,-121.67 70.67,-127 65.33,-127 65.33,-127 24.67,-127 24.67,-127 19.33,-127 14,-121.67 14,-116.33 14,-116.33 14,-105.67 14,-105.67 14,-100.33 19.33,-95 24.67,-95"/>
</a>
</g>
</g>
<!-- primitive&#45;i64&#45;8 -->
<g id="node2" class="node">
<title>primitive&#45;i64&#45;8</title>
<g id="a_node2"><a xlink:title="i64&#45;8: primitive&#45;i64&#45;8">
<path fill="white" stroke="transparent" d="M39.67,-16C39.67,-16 50.33,-16 50.33,-16 55.67,-16 61,-21.33 61,-26.67 61,-26.67 61,-37.33 61,-37.33 61,-42.67 55.67,-48 50.33,-48 50.33,-48 39.67,-48 39.67,-48 34.33,-48 29,-42.67 29,-37.33 29,-37.33 29,-26.67 29,-26.67 29,-21.33 34.33,-16 39.67,-16"/>
<text text-anchor="start" x="40" y="-28.3" font-family="Helvetica,sans-Serif" font-size="14.00">8</text>
<path fill="none" stroke="black" d="M39.67,-16C39.67,-16 50.33,-16 50.33,-16 55.67,-16 61,-21.33 61,-26.67 61,-26.67 61,-37.33 61,-37.33 61,-42.67 55.67,-48 50.33,-48 50.33,-48 39.67,-48 39.67,-48 34.33,-48 29,-42.67 29,-37.33 29,-37.33 29,-26.67 29,-26.67 29,-21.33 34.33,-16 39.67,-16"/>
</a>
</g>
</g>
<!-- function&#45;1&#45;ImmVal -->
<g id="node3" class="node">
<title>function&#45;1&#45;ImmVal</title>
<g id="a_node3"><a xlink:title="Imm&#45;3: function&#45;1&#45;ImmVal">
<path fill="white" stroke="transparent" d="M242.67,-95C242.67,-95 283.33,-95 283.33,-95 288.67,-95 294,-100.33 294,-105.67 294,-105.67 294,-116.33 294,-116.33 294,-121.67 288.67,-127 283.33,-127 283.33,-127 242.67,-127 242.67,-127 237.33,-127 232,-121.67 232,-116.33 232,-116.33 232,-105.67 232,-105.67 232,-100.33 237.33,-95 242.67,-95"/>
<text text-anchor="start" x="237" y="-107.3" font-family="Helvetica,sans-Serif" font-size="14.00">ImmVal</text>
<path fill="none" stroke="black" d="M242.67,-95C242.67,-95 283.33,-95 283.33,-95 288.67,-95 294,-100.33 294,-105.67 294,-105.67 294,-116.33 294,-116.33 294,-121.67 288.67,-127 283.33,-127 283.33,-127 242.67,-127 242.67,-127 237.33,-127 232,-121.67 232,-116.33 232,-116.33 232,-105.67 232,-105.67 232,-100.33 237.33,-95 242.67,-95"/>
</a>
</g>
</g>
<!-- primitive&#45;i64&#45;4 -->
<g id="node4" class="node">
<title>primitive&#45;i64&#45;4</title>
<g id="a_node4"><a xlink:title="i64&#45;4: primitive&#45;i64&#45;4">
<path fill="white" stroke="transparent" d="M257.67,-16C257.67,-16 268.33,-16 268.33,-16 273.67,-16 279,-21.33 279,-26.67 279,-26.67 279,-37.33 279,-37.33 279,-42.67 273.67,-48 268.33,-48 268.33,-48 257.67,-48 257.67,-48 252.33,-48 247,-42.67 247,-37.33 247,-37.33 247,-26.67 247,-26.67 247,-21.33 252.33,-16 257.67,-16"/>
<text text-anchor="start" x="258" y="-28.3" font-family="Helvetica,sans-Serif" font-size="14.00">4</text>
<path fill="none" stroke="black" d="M257.67,-16C257.67,-16 268.33,-16 268.33,-16 273.67,-16 279,-21.33 279,-26.67 279,-26.67 279,-37.33 279,-37.33 279,-42.67 273.67,-48 268.33,-48 268.33,-48 257.67,-48 257.67,-48 252.33,-48 247,-42.67 247,-37.33 247,-37.33 247,-26.67 247,-26.67 247,-21.33 252.33,-16 257.67,-16"/>
</a>
</g>
</g>
<!-- function&#45;0&#45;ImmLabel -->
<g id="node5" class="node">
<title>function&#45;0&#45;ImmLabel</title>
<g id="a_node5"><a xlink:title="Imm&#45;7: function&#45;0&#45;ImmLabel">
<path fill="white" stroke="transparent" d="M316.17,-95C316.17,-95 373.83,-95 373.83,-95 379.17,-95 384.5,-100.33 384.5,-105.67 384.5,-105.67 384.5,-116.33 384.5,-116.33 384.5,-121.67 379.17,-127 373.83,-127 373.83,-127 316.17,-127 316.17,-127 310.83,-127 305.5,-121.67 305.5,-116.33 305.5,-116.33 305.5,-105.67 305.5,-105.67 305.5,-100.33 310.83,-95 316.17,-95"/>
<text text-anchor="start" x="311" y="-107.3" font-family="Helvetica,sans-Serif" font-size="14.00">ImmLabel</text>
<path fill="none" stroke="black" d="M316.17,-95C316.17,-95 373.83,-95 373.83,-95 379.17,-95 384.5,-100.33 384.5,-105.67 384.5,-105.67 384.5,-116.33 384.5,-116.33 384.5,-121.67 379.17,-127 373.83,-127 373.83,-127 316.17,-127 316.17,-127 310.83,-127 305.5,-121.67 305.5,-116.33 305.5,-116.33 305.5,-105.67 305.5,-105.67 305.5,-100.33 310.83,-95 316.17,-95"/>
</a>
</g>
</g>
<!-- primitive&#45;String&#45;2 -->
<g id="node6" class="node">
<title>primitive&#45;String&#45;2</title>
<g id="a_node6"><a xlink:title="String&#45;2: primitive&#45;String&#45;2">
<path fill="white" stroke="transparent" d="M334.17,-16C334.17,-16 357.83,-16 357.83,-16 363.17,-16 368.5,-21.33 368.5,-26.67 368.5,-26.67 368.5,-37.33 368.5,-37.33 368.5,-42.67 363.17,-48 357.83,-48 357.83,-48 334.17,-48 334.17,-48 328.83,-48 323.5,-42.67 323.5,-37.33 323.5,-37.33 323.5,-26.67 323.5,-26.67 323.5,-21.33 328.83,-16 334.17,-16"/>
<text text-anchor="start" x="329" y="-28.3" font-family="Helvetica,sans-Serif" font-size="14.00">&quot;.L3&quot;</text>
<path fill="none" stroke="black" d="M334.17,-16C334.17,-16 357.83,-16 357.83,-16 363.17,-16 368.5,-21.33 368.5,-26.67 368.5,-26.67 368.5,-37.33 368.5,-37.33 368.5,-42.67 363.17,-48 357.83,-48 357.83,-48 334.17,-48 334.17,-48 328.83,-48 323.5,-42.67 323.5,-37.33 323.5,-37.33 323.5,-26.67 323.5,-26.67 323.5,-21.33 328.83,-16 334.17,-16"/>
</a>
</g>
</g>
<!-- function&#45;2&#45;ImmVal -->
<g id="node7" class="node">
<title>function&#45;2&#45;ImmVal</title>
<g id="a_node7"><a xlink:title="Imm&#45;5: function&#45;2&#45;ImmVal">
<path fill="white" stroke="transparent" d="M168.67,-95C168.67,-95 209.33,-95 209.33,-95 214.67,-95 220,-100.33 220,-105.67 220,-105.67 220,-116.33 220,-116.33 220,-121.67 214.67,-127 209.33,-127 209.33,-127 168.67,-127 168.67,-127 163.33,-127 158,-121.67 158,-116.33 158,-116.33 158,-105.67 158,-105.67 158,-100.33 163.33,-95 168.67,-95"/>
<text text-anchor="start" x="163" y="-107.3" font-family="Helvetica,sans-Serif" font-size="14.00">ImmVal</text>
<path fill="none" stroke="black" d="M168.67,-95C168.67,-95 209.33,-95 209.33,-95 214.67,-95 220,-100.33 220,-105.67 220,-105.67 220,-116.33 220,-116.33 220,-121.67 214.67,-127 209.33,-127 209.33,-127 168.67,-127 168.67,-127 163.33,-127 158,-121.67 158,-116.33 158,-116.33 158,-105.67 158,-105.67 158,-100.33 163.33,-95 168.67,-95"/>
</a>
</g>
</g>
<!-- primitive&#45;i64&#45;0 -->
<g id="node8" class="node">
<title>primitive&#45;i64&#45;0</title>
<g id="a_node8"><a xlink:title="i64&#45;0: primitive&#45;i64&#45;0">
<path fill="white" stroke="transparent" d="M183.67,-16C183.67,-16 194.33,-16 194.33,-16 199.67,-16 205,-21.33 205,-26.67 205,-26.67 205,-37.33 205,-37.33 205,-42.67 199.67,-48 194.33,-48 194.33,-48 183.67,-48 183.67,-48 178.33,-48 173,-42.67 173,-37.33 173,-37.33 173,-26.67 173,-26.67 173,-21.33 178.33,-16 183.67,-16"/>
<text text-anchor="start" x="184" y="-28.3" font-family="Helvetica,sans-Serif" font-size="14.00">0</text>
<path fill="none" stroke="black" d="M183.67,-16C183.67,-16 194.33,-16 194.33,-16 199.67,-16 205,-21.33 205,-26.67 205,-26.67 205,-37.33 205,-37.33 205,-42.67 199.67,-48 194.33,-48 194.33,-48 183.67,-48 183.67,-48 178.33,-48 173,-42.67 173,-37.33 173,-37.33 173,-26.67 173,-26.67 173,-21.33 178.33,-16 183.67,-16"/>
</a>
</g>
</g>
<!-- function&#45;0&#45;RegVal -->
<g id="node9" class="node">
<title>function&#45;0&#45;RegVal</title>
<g id="a_node9"><a xlink:title="Inst&#45;0: function&#45;0&#45;RegVal">
<path fill="white" stroke="transparent" d="M99.17,-95C99.17,-95 134.83,-95 134.83,-95 140.17,-95 145.5,-100.33 145.5,-105.67 145.5,-105.67 145.5,-116.33 145.5,-116.33 145.5,-121.67 140.17,-127 134.83,-127 134.83,-127 99.17,-127 99.17,-127 93.83,-127 88.5,-121.67 88.5,-116.33 88.5,-116.33 88.5,-105.67 88.5,-105.67 88.5,-100.33 93.83,-95 99.17,-95"/>
<text text-anchor="start" x="94" y="-107.3" font-family="Helvetica,sans-Serif" font-size="14.00">RegVal</text>
<path fill="none" stroke="black" d="M99.17,-95C99.17,-95 134.83,-95 134.83,-95 140.17,-95 145.5,-100.33 145.5,-105.67 145.5,-105.67 145.5,-116.33 145.5,-116.33 145.5,-121.67 140.17,-127 134.83,-127 134.83,-127 99.17,-127 99.17,-127 93.83,-127 88.5,-121.67 88.5,-116.33 88.5,-116.33 88.5,-105.67 88.5,-105.67 88.5,-100.33 93.83,-95 99.17,-95"/>
</a>
</g>
</g>
<!-- primitive&#45;String&#45;1 -->
<g id="node10" class="node">
<title>primitive&#45;String&#45;1</title>
<g id="a_node10"><a xlink:title="String&#45;1: primitive&#45;String&#45;1">
<path fill="white" stroke="transparent" d="M100.67,-16C100.67,-16 135.33,-16 135.33,-16 140.67,-16 146,-21.33 146,-26.67 146,-26.67 146,-37.33 146,-37.33 146,-42.67 140.67,-48 135.33,-48 135.33,-48 100.67,-48 100.67,-48 95.33,-48 90,-42.67 90,-37.33 90,-37.33 90,-26.67 90,-26.67 90,-21.33 95.33,-16 100.67,-16"/>
<text text-anchor="start" x="95" y="-28.3" font-family="Helvetica,sans-Serif" font-size="14.00">&quot;sp_0&quot;</text>
<path fill="none" stroke="black" d="M100.67,-16C100.67,-16 135.33,-16 135.33,-16 140.67,-16 146,-21.33 146,-26.67 146,-26.67 146,-37.33 146,-37.33 146,-42.67 140.67,-48 135.33,-48 135.33,-48 100.67,-48 100.67,-48 95.33,-48 90,-42.67 90,-37.33 90,-37.33 90,-26.67 90,-26.67 90,-21.33 95.33,-16 100.67,-16"/>
</a>
</g>
</g>
<!-- function&#45;0&#45;Lw -->
<g id="node11" class="node">
<title>function&#45;0&#45;Lw</title>
<g id="a_node11"><a xlink:title="Inst&#45;2: function&#45;0&#45;Lw">
<path fill="white" stroke="transparent" d="M60.67,-174C60.67,-174 71.33,-174 71.33,-174 76.67,-174 82,-179.33 82,-184.67 82,-184.67 82,-195.33 82,-195.33 82,-200.67 76.67,-206 71.33,-206 71.33,-206 60.67,-206 60.67,-206 55.33,-206 50,-200.67 50,-195.33 50,-195.33 50,-184.67 50,-184.67 50,-179.33 55.33,-174 60.67,-174"/>
<text text-anchor="start" x="56.5" y="-186.3" font-family="Helvetica,sans-Serif" font-size="14.00">Lw</text>
<path fill="none" stroke="black" d="M60.67,-174C60.67,-174 71.33,-174 71.33,-174 76.67,-174 82,-179.33 82,-184.67 82,-184.67 82,-195.33 82,-195.33 82,-200.67 76.67,-206 71.33,-206 71.33,-206 60.67,-206 60.67,-206 55.33,-206 50,-200.67 50,-195.33 50,-195.33 50,-184.67 50,-184.67 50,-179.33 55.33,-174 60.67,-174"/>
</a>
</g>
</g>
<!-- function&#45;0&#45;Jal -->
<g id="node12" class="node">
<title>function&#45;0&#45;Jal</title>
<g id="a_node12"><a xlink:title="Inst&#45;8: function&#45;0&#45;Jal">
<path fill="white" stroke="transparent" d="M339.67,-174C339.67,-174 350.33,-174 350.33,-174 355.67,-174 361,-179.33 361,-184.67 361,-184.67 361,-195.33 361,-195.33 361,-200.67 355.67,-206 350.33,-206 350.33,-206 339.67,-206 339.67,-206 334.33,-206 329,-200.67 329,-195.33 329,-195.33 329,-184.67 329,-184.67 329,-179.33 334.33,-174 339.67,-174"/>
<text text-anchor="start" x="336.5" y="-186.3" font-family="Helvetica,sans-Serif" font-size="14.00">Jal</text>
<path fill="none" stroke="black" d="M339.67,-174C339.67,-174 350.33,-174 350.33,-174 355.67,-174 361,-179.33 361,-184.67 361,-184.67 361,-195.33 361,-195.33 361,-200.67 355.67,-206 350.33,-206 350.33,-206 339.67,-206 339.67,-206 334.33,-206 329,-200.67 329,-195.33 329,-195.33 329,-184.67 329,-184.67 329,-179.33 334.33,-174 339.67,-174"/>
</a>
</g>
</g>
<!-- function&#45;2&#45;Lw -->
<g id="node13" class="node">
<title>function&#45;2&#45;Lw</title>
<g id="a_node13"><a xlink:title="Inst&#45;6: function&#45;2&#45;Lw">
<path fill="white" stroke="transparent" d="M135.67,-174C135.67,-174 146.33,-174 146.33,-174 151.67,-174 157,-179.33 157,-184.67 157,-184.67 157,-195.33 157,-195.33 157,-200.67 151.67,-206 146.33,-206 146.33,-206 135.67,-206 135.67,-206 130.33,-206 125,-200.67 125,-195.33 125,-195.33 125,-184.67 125,-184.67 125,-179.33 130.33,-174 135.67,-174"/>
<text text-anchor="start" x="131.5" y="-186.3" font-family="Helvetica,sans-Serif" font-size="14.00">Lw</text>
<path fill="none" stroke="black" d="M135.67,-174C135.67,-174 146.33,-174 146.33,-174 151.67,-174 157,-179.33 157,-184.67 157,-184.67 157,-195.33 157,-195.33 157,-200.67 151.67,-206 146.33,-206 146.33,-206 135.67,-206 135.67,-206 130.33,-206 125,-200.67 125,-195.33 125,-195.33 125,-184.67 125,-184.67 125,-179.33 130.33,-174 135.67,-174"/>
</a>
</g>
</g>
<!-- function&#45;1&#45;Lw -->
<g id="node14" class="node">
<title>function&#45;1&#45;Lw</title>
<g id="a_node14"><a xlink:title="Inst&#45;4: function&#45;1&#45;Lw">
<path fill="white" stroke="transparent" d="M217.67,-174C217.67,-174 228.33,-174 228.33,-174 233.67,-174 239,-179.33 239,-184.67 239,-184.67 239,-195.33 239,-195.33 239,-200.67 233.67,-206 228.33,-206 228.33,-206 217.67,-206 217.67,-206 212.33,-206 207,-200.67 207,-195.33 207,-195.33 207,-184.67 207,-184.67 207,-179.33 212.33,-174 217.67,-174"/>
<text text-anchor="start" x="213.5" y="-186.3" font-family="Helvetica,sans-Serif" font-size="14.00">Lw</text>
<path fill="none" stroke="black" d="M217.67,-174C217.67,-174 228.33,-174 228.33,-174 233.67,-174 239,-179.33 239,-184.67 239,-184.67 239,-195.33 239,-195.33 239,-200.67 233.67,-206 228.33,-206 228.33,-206 217.67,-206 217.67,-206 212.33,-206 207,-200.67 207,-195.33 207,-195.33 207,-184.67 207,-184.67 207,-179.33 212.33,-174 217.67,-174"/>
</a>
</g>
</g>
</g>
</svg>
