<?xml version="1.0" encoding="UTF-8" standalone="no"?>
<!DOCTYPE svg PUBLIC "-//W3C//DTD SVG 1.1//EN"
 "http://www.w3.org/Graphics/SVG/1.1/DTD/svg11.dtd">
<!-- Generated by graphviz version 2.43.0 (0)
 -->
<!-- Title: %3 Pages: 1 -->
<svg width="547pt" height="467pt"
 viewBox="0.00 0.00 547.00 467.00" xmlns="http://www.w3.org/2000/svg" xmlns:xlink="http://www.w3.org/1999/xlink">
<g id="graph0" class="graph" transform="scale(1 1) rotate(0) translate(4 463)">
<title>%3</title>
<polygon fill="white" stroke="#000000" points="-4,4 -4,-463 543,-463 543,4 -4,4"/>
<g id="clust1" class="cluster">
<title>outer_cluster_Imm&#45;5</title>
</g>
<g id="clust2" class="cluster">
<title>cluster_Imm&#45;5</title>
<path fill="#ffffb3" stroke="black" stroke-dasharray="5,2" d="M257,-90C257,-90 301,-90 301,-90 307,-90 313,-96 313,-102 313,-102 313,-120 313,-120 313,-126 307,-132 301,-132 301,-132 257,-132 257,-132 251,-132 245,-126 245,-120 245,-120 245,-102 245,-102 245,-96 251,-90 257,-90"/>
</g>
<g id="clust4" class="cluster">
<title>outer_cluster_Imm&#45;7</title>
</g>
<g id="clust5" class="cluster">
<title>cluster_Imm&#45;7</title>
<path fill="#ffffb3" stroke="black" stroke-dasharray="5,2" d="M188,-248C188,-248 248,-248 248,-248 254,-248 260,-254 260,-260 260,-260 260,-278 260,-278 260,-284 254,-290 248,-290 248,-290 188,-290 188,-290 182,-290 176,-284 176,-278 176,-278 176,-260 176,-260 176,-254 182,-248 188,-248"/>
</g>
<g id="clust7" class="cluster">
<title>outer_cluster_Imm&#45;9</title>
</g>
<g id="clust8" class="cluster">
<title>cluster_Imm&#45;9</title>
<path fill="#ffffb3" stroke="black" stroke-dasharray="5,2" d="M402,-248C402,-248 446,-248 446,-248 452,-248 458,-254 458,-260 458,-260 458,-278 458,-278 458,-284 452,-290 446,-290 446,-290 402,-290 402,-290 396,-290 390,-284 390,-278 390,-278 390,-260 390,-260 390,-254 396,-248 402,-248"/>
</g>
<g id="clust10" class="cluster">
<title>outer_cluster_Inst&#45;12</title>
</g>
<g id="clust11" class="cluster">
<title>cluster_Inst&#45;12</title>
<path fill="#bebada" stroke="black" stroke-dasharray="5,2" d="M187,-90C187,-90 227,-90 227,-90 233,-90 239,-96 239,-102 239,-102 239,-120 239,-120 239,-126 233,-132 227,-132 227,-132 187,-132 187,-132 181,-132 175,-126 175,-120 175,-120 175,-102 175,-102 175,-96 181,-90 187,-90"/>
</g>
<g id="clust13" class="cluster">
<title>outer_cluster_Inst&#45;13</title>
</g>
<g id="clust14" class="cluster">
<title>cluster_Inst&#45;13</title>
<path fill="#bebada" stroke="black" stroke-dasharray="5,2" d="M116,-169C116,-169 152,-169 152,-169 158,-169 164,-175 164,-181 164,-181 164,-199 164,-199 164,-205 158,-211 152,-211 152,-211 116,-211 116,-211 110,-211 104,-205 104,-199 104,-199 104,-181 104,-181 104,-175 110,-169 116,-169"/>
</g>
<g id="clust16" class="cluster">
<title>outer_cluster_Inst&#45;8</title>
</g>
<g id="clust17" class="cluster">
<title>cluster_Inst&#45;8</title>
<path fill="#bebada" stroke="black" stroke-dasharray="5,2" d="M229,-406C229,-406 323,-406 323,-406 329,-406 335,-412 335,-418 335,-418 335,-436 335,-436 335,-442 329,-448 323,-448 323,-448 229,-448 229,-448 223,-448 217,-442 217,-436 217,-436 217,-418 217,-418 217,-412 223,-406 229,-406"/>
</g>
<g id="clust19" class="cluster">
<title>outer_cluster_Inst&#45;14</title>
</g>
<g id="clust20" class="cluster">
<title>cluster_Inst&#45;14</title>
<path fill="#bebada" stroke="black" stroke-dasharray="5,2" d="M249,-169C249,-169 285,-169 285,-169 291,-169 297,-175 297,-181 297,-181 297,-199 297,-199 297,-205 291,-211 285,-211 285,-211 249,-211 249,-211 243,-211 237,-205 237,-199 237,-199 237,-181 237,-181 237,-175 243,-169 249,-169"/>
</g>
<g id="clust22" class="cluster">
<title>outer_cluster_Inst&#45;2</title>
</g>
<g id="clust23" class="cluster">
<title>cluster_Inst&#45;2</title>
<path fill="#bebada" stroke="black" stroke-dasharray="5,2" d="M476,-248C476,-248 516,-248 516,-248 522,-248 528,-254 528,-260 528,-260 528,-278 528,-278 528,-284 522,-290 516,-290 516,-290 476,-290 476,-290 470,-290 464,-284 464,-278 464,-278 464,-260 464,-260 464,-254 470,-248 476,-248"/>
</g>
<g id="clust25" class="cluster">
<title>outer_cluster_Inst&#45;11</title>
</g>
<g id="clust26" class="cluster">
<title>cluster_Inst&#45;11</title>
<path fill="#bebada" stroke="black" stroke-dasharray="5,2" d="M219,-327C219,-327 255,-327 255,-327 261,-327 267,-333 267,-339 267,-339 267,-357 267,-357 267,-363 261,-369 255,-369 255,-369 219,-369 219,-369 213,-369 207,-363 207,-357 207,-357 207,-339 207,-339 207,-333 213,-327 219,-327"/>
</g>
<g id="clust28" class="cluster">
<title>outer_cluster_Inst&#45;0</title>
</g>
<g id="clust29" class="cluster">
<title>cluster_Inst&#45;0</title>
<path fill="#bebada" stroke="black" stroke-dasharray="5,2" d="M117,-90C117,-90 157,-90 157,-90 163,-90 169,-96 169,-102 169,-102 169,-120 169,-120 169,-126 163,-132 157,-132 157,-132 117,-132 117,-132 111,-132 105,-126 105,-120 105,-120 105,-102 105,-102 105,-96 111,-90 117,-90"/>
</g>
<g id="clust31" class="cluster">
<title>outer_cluster_Inst&#45;3</title>
</g>
<g id="clust32" class="cluster">
<title>cluster_Inst&#45;3</title>
<path fill="#bebada" stroke="black" stroke-dasharray="5,2" d="M34,-169C34,-169 74,-169 74,-169 80,-169 86,-175 86,-181 86,-181 86,-199 86,-199 86,-205 80,-211 74,-211 74,-211 34,-211 34,-211 28,-211 22,-205 22,-199 22,-199 22,-181 22,-181 22,-175 28,-169 34,-169"/>
</g>
<g id="clust34" class="cluster">
<title>outer_cluster_Inst&#45;10</title>
</g>
<g id="clust35" class="cluster">
<title>cluster_Inst&#45;10</title>
<path fill="#bebada" stroke="black" stroke-dasharray="5,2" d="M368,-327C368,-327 404,-327 404,-327 410,-327 416,-333 416,-339 416,-339 416,-357 416,-357 416,-363 410,-369 404,-369 404,-369 368,-369 368,-369 362,-369 356,-363 356,-357 356,-357 356,-339 356,-339 356,-333 362,-327 368,-327"/>
</g>
<g id="clust37" class="cluster">
<title>outer_cluster_Inst&#45;4</title>
</g>
<g id="clust38" class="cluster">
<title>cluster_Inst&#45;4</title>
<path fill="#bebada" stroke="black" stroke-dasharray="5,2" d="M38,-248C38,-248 132,-248 132,-248 138,-248 144,-254 144,-260 144,-260 144,-278 144,-278 144,-284 138,-290 132,-290 132,-290 38,-290 38,-290 32,-290 26,-284 26,-278 26,-278 26,-260 26,-260 26,-254 32,-248 38,-248"/>
</g>
<g id="clust40" class="cluster">
<title>outer_cluster_Inst&#45;1</title>
</g>
<g id="clust41" class="cluster">
<title>cluster_Inst&#45;1</title>
<path fill="#bebada" stroke="black" stroke-dasharray="5,2" d="M327,-169C327,-169 367,-169 367,-169 373,-169 379,-175 379,-181 379,-181 379,-199 379,-199 379,-205 373,-211 367,-211 367,-211 327,-211 327,-211 321,-211 315,-205 315,-199 315,-199 315,-181 315,-181 315,-175 321,-169 327,-169"/>
</g>
<g id="clust43" class="cluster">
<title>outer_cluster_Inst&#45;6</title>
</g>
<g id="clust44" class="cluster">
<title>cluster_Inst&#45;6</title>
<path fill="#bebada" stroke="black" stroke-dasharray="5,2" d="M278,-248C278,-248 372,-248 372,-248 378,-248 384,-254 384,-260 384,-260 384,-278 384,-278 384,-284 378,-290 372,-290 372,-290 278,-290 278,-290 272,-290 266,-284 266,-278 266,-278 266,-260 266,-260 266,-254 272,-248 278,-248"/>
</g>
<g id="clust46" class="cluster">
<title>outer_cluster_String&#45;0</title>
</g>
<g id="clust47" class="cluster">
<title>cluster_String&#45;0</title>
<path fill="#fb8072" stroke="black" stroke-dasharray="5,2" d="M190,-11C190,-11 226,-11 226,-11 232,-11 238,-17 238,-23 238,-23 238,-41 238,-41 238,-47 232,-53 226,-53 226,-53 190,-53 190,-53 184,-53 178,-47 178,-41 178,-41 178,-23 178,-23 178,-17 184,-11 190,-11"/>
</g>
<g id="clust49" class="cluster">
<title>outer_cluster_String&#45;3</title>
</g>
<g id="clust50" class="cluster">
<title>cluster_String&#45;3</title>
<path fill="#fb8072" stroke="black" stroke-dasharray="5,2" d="M479,-169C479,-169 515,-169 515,-169 521,-169 527,-175 527,-181 527,-181 527,-199 527,-199 527,-205 521,-211 515,-211 515,-211 479,-211 479,-211 473,-211 467,-205 467,-199 467,-199 467,-181 467,-181 467,-175 473,-169 479,-169"/>
</g>
<g id="clust52" class="cluster">
<title>outer_cluster_String&#45;2</title>
</g>
<g id="clust53" class="cluster">
<title>cluster_String&#45;2</title>
<path fill="#fb8072" stroke="black" stroke-dasharray="5,2" d="M331,-90C331,-90 367,-90 367,-90 373,-90 379,-96 379,-102 379,-102 379,-120 379,-120 379,-126 373,-132 367,-132 367,-132 331,-132 331,-132 325,-132 319,-126 319,-120 319,-120 319,-102 319,-102 319,-96 325,-90 331,-90"/>
</g>
<g id="clust55" class="cluster">
<title>outer_cluster_String&#45;1</title>
</g>
<g id="clust56" class="cluster">
<title>cluster_String&#45;1</title>
<path fill="#fb8072" stroke="black" stroke-dasharray="5,2" d="M118,-11C118,-11 158,-11 158,-11 164,-11 170,-17 170,-23 170,-23 170,-41 170,-41 170,-47 164,-53 158,-53 158,-53 118,-53 118,-53 112,-53 106,-47 106,-41 106,-41 106,-23 106,-23 106,-17 112,-11 118,-11"/>
</g>
<g id="clust58" class="cluster">
<title>outer_cluster_String&#45;5</title>
</g>
<g id="clust59" class="cluster">
<title>cluster_String&#45;5</title>
<path fill="#fb8072" stroke="black" stroke-dasharray="5,2" d="M183,-169C183,-169 219,-169 219,-169 225,-169 231,-175 231,-181 231,-181 231,-199 231,-199 231,-205 225,-211 219,-211 219,-211 183,-211 183,-211 177,-211 171,-205 171,-199 171,-199 171,-181 171,-181 171,-175 177,-169 183,-169"/>
</g>
<g id="clust61" class="cluster">
<title>outer_cluster_String&#45;4</title>
</g>
<g id="clust62" class="cluster">
<title>cluster_String&#45;4</title>
<path fill="#fb8072" stroke="black" stroke-dasharray="5,2" d="M23,-90C23,-90 87,-90 87,-90 93,-90 99,-96 99,-102 99,-102 99,-120 99,-120 99,-126 93,-132 87,-132 87,-132 23,-132 23,-132 17,-132 11,-126 11,-120 11,-120 11,-102 11,-102 11,-96 17,-90 23,-90"/>
</g>
<g id="clust64" class="cluster">
<title>outer_cluster_i64&#45;8</title>
</g>
<g id="clust65" class="cluster">
<title>cluster_i64&#45;8</title>
<path fill="#80b1d3" stroke="black" stroke-dasharray="5,2" d="M406,-169C406,-169 442,-169 442,-169 448,-169 454,-175 454,-181 454,-181 454,-199 454,-199 454,-205 448,-211 442,-211 442,-211 406,-211 406,-211 400,-211 394,-205 394,-199 394,-199 394,-181 394,-181 394,-175 400,-169 406,-169"/>
</g>
<g id="clust67" class="cluster">
<title>outer_cluster_i64&#45;2147483648</title>
</g>
<g id="clust68" class="cluster">
<title>cluster_i64&#45;2147483648</title>
<path fill="#80b1d3" stroke="black" stroke-dasharray="5,2" d="M261,-11C261,-11 297,-11 297,-11 303,-11 309,-17 309,-23 309,-23 309,-41 309,-41 309,-47 303,-53 297,-53 297,-53 261,-53 261,-53 255,-53 249,-47 249,-41 249,-41 249,-23 249,-23 249,-17 255,-11 261,-11"/>
</g>
<!-- function&#45;0&#45;ImmVal&#45;&gt;primitive&#45;i64&#45;2147483648 -->
<g id="edge1" class="edge">
<title>function&#45;0&#45;ImmVal:s&#45;&gt;primitive&#45;i64&#45;2147483648</title>
<path fill="none" stroke="black" d="M279,-95C279,-81.84 279,-67.11 279,-55.3"/>
<polygon fill="black" stroke="black" points="280.75,-58 279,-53 277.25,-58 280.75,-58"/>
</g>
<!-- function&#45;0&#45;ImmLabel&#45;&gt;primitive&#45;String&#45;5 -->
<g id="edge2" class="edge">
<title>function&#45;0&#45;ImmLabel:s&#45;&gt;primitive&#45;String&#45;5</title>
<path fill="none" stroke="black" d="M219,-253C219,-239.37 214.94,-224.69 210.67,-213.05"/>
<polygon fill="black" stroke="black" points="213.34,-214.98 209.84,-211 210.1,-216.29 213.34,-214.98"/>
</g>
<!-- function&#45;1&#45;ImmVal&#45;&gt;primitive&#45;i64&#45;8 -->
<g id="edge3" class="edge">
<title>function&#45;1&#45;ImmVal:s&#45;&gt;primitive&#45;i64&#45;8</title>
<path fill="none" stroke="black" d="M424,-253C424,-239.84 424,-225.11 424,-213.3"/>
<polygon fill="black" stroke="black" points="425.75,-216 424,-211 422.25,-216 425.75,-216"/>
</g>
<!-- function&#45;4&#45;RegVal&#45;&gt;primitive&#45;String&#45;0 -->
<g id="edge4" class="edge">
<title>function&#45;4&#45;RegVal:s&#45;&gt;primitive&#45;String&#45;0</title>
<path fill="none" stroke="black" d="M208,-95C208,-81.84 208,-67.11 208,-55.3"/>
<polygon fill="black" stroke="black" points="209.75,-58 208,-53 206.25,-58 209.75,-58"/>
</g>
<!-- function&#45;0&#45;Sub&#45;&gt;function&#45;4&#45;RegVal -->
<g id="edge5" class="edge">
<title>function&#45;0&#45;Sub:s&#45;&gt;function&#45;4&#45;RegVal</title>
<path fill="none" stroke="black" d="M125,-174C125,-167.36 152.68,-147.51 175.88,-132.04"/>
<polygon fill="black" stroke="black" points="171.42,-134.39 176.15,-132 170.96,-130.92 171.42,-134.39"/>
</g>
<!-- function&#45;0&#45;Sub&#45;&gt;function&#45;0&#45;RegVal -->
<g id="edge6" class="edge">
<title>function&#45;0&#45;Sub:s&#45;&gt;function&#45;0&#45;RegVal</title>
<path fill="none" stroke="black" d="M143,-174C143,-160.78 141.63,-146.04 140.2,-134.25"/>
<polygon fill="black" stroke="black" points="142.62,-136.31 139.54,-132 139.26,-137.29 142.62,-136.31"/>
</g>
<!-- function&#45;0&#45;RegVal&#45;&gt;primitive&#45;String&#45;1 -->
<g id="edge16" class="edge">
<title>function&#45;0&#45;RegVal:s&#45;&gt;primitive&#45;String&#45;1</title>
<path fill="none" stroke="black" d="M138,-95C138,-81.84 138,-67.11 138,-55.3"/>
<polygon fill="black" stroke="black" points="139.75,-58 138,-53 136.25,-58 139.75,-58"/>
</g>
<!-- function&#45;0&#45;Bne&#45;&gt;function&#45;0&#45;ImmLabel -->
<g id="edge9" class="edge">
<title>function&#45;0&#45;Bne:s&#45;&gt;function&#45;0&#45;ImmLabel</title>
<path fill="none" stroke="black" d="M319,-411C319,-360.28 275.28,-315.26 245.37,-290.4"/>
<polygon fill="black" stroke="black" points="249.71,-290.36 244.43,-290 248.33,-293.58 249.71,-290.36"/>
</g>
<!-- function&#45;0&#45;Bne&#45;&gt;function&#45;0&#45;Addi -->
<g id="edge7" class="edge">
<title>function&#45;0&#45;Bne:s&#45;&gt;function&#45;0&#45;Addi</title>
<path fill="none" stroke="black" d="M296,-411C296,-369.23 296,-320.51 296,-292.65"/>
<polygon fill="black" stroke="black" points="297.75,-295 296,-290 294.25,-295 297.75,-295"/>
</g>
<!-- function&#45;0&#45;Bne&#45;&gt;function&#45;2&#45;RegVal -->
<g id="edge8" class="edge">
<title>function&#45;0&#45;Bne:s&#45;&gt;function&#45;2&#45;RegVal</title>
<path fill="none" stroke="black" d="M310,-411C310,-360.38 376.12,-401.85 417,-372 446.68,-350.33 470.76,-314.54 484.23,-291.63"/>
<polygon fill="black" stroke="black" points="483.61,-294.83 485.79,-290 481.07,-292.42 483.61,-294.83"/>
</g>
<!-- function&#45;0&#45;Addi&#45;&gt;function&#45;0&#45;ImmVal -->
<g id="edge27" class="edge">
<title>function&#45;0&#45;Addi:s&#45;&gt;function&#45;0&#45;ImmVal</title>
<path fill="none" stroke="black" d="M306,-253C306,-214.17 306.28,-203.94 298,-166 295.65,-155.25 291.78,-143.7 288.15,-134.05"/>
<polygon fill="black" stroke="black" points="290.84,-135.92 287.27,-132 287.62,-137.29 290.84,-135.92"/>
</g>
<!-- function&#45;0&#45;Addi&#45;&gt;function&#45;1&#45;RegVal -->
<g id="edge26" class="edge">
<title>function&#45;0&#45;Addi:s&#45;&gt;function&#45;1&#45;RegVal</title>
<path fill="none" stroke="black" d="M286,-253C286,-242.56 303.8,-225.31 320.17,-211.65"/>
<polygon fill="black" stroke="black" points="317.84,-215.03 321.29,-211 316.08,-212 317.84,-215.03"/>
</g>
<!-- function&#45;2&#45;RegVal&#45;&gt;primitive&#45;String&#45;3 -->
<g id="edge14" class="edge">
<title>function&#45;2&#45;RegVal:s&#45;&gt;primitive&#45;String&#45;3</title>
<path fill="none" stroke="black" d="M497,-253C497,-239.84 497,-225.11 497,-213.3"/>
<polygon fill="black" stroke="black" points="498.75,-216 497,-211 495.25,-216 498.75,-216"/>
</g>
<!-- function&#45;0&#45;Seq2&#45;&gt;function&#45;0&#45;Beq -->
<g id="edge10" class="edge">
<title>function&#45;0&#45;Seq2:s&#45;&gt;function&#45;0&#45;Beq</title>
<path fill="none" stroke="black" d="M236,-411C236,-385.7 309.81,-365.39 353.88,-355.51"/>
<polygon fill="black" stroke="black" points="352.36,-358.27 356,-354.42 350.75,-355.16 352.36,-358.27"/>
</g>
<!-- function&#45;0&#45;Seq2&#45;&gt;function&#45;0&#45;Jal -->
<g id="edge11" class="edge">
<title>function&#45;0&#45;Seq2:s&#45;&gt;function&#45;0&#45;Jal</title>
<path fill="none" stroke="black" d="M258,-411C258,-397.18 253.26,-382.49 248.28,-370.89"/>
<polygon fill="black" stroke="black" points="251.22,-372.39 247.15,-369 248.22,-374.19 251.22,-372.39"/>
</g>
<!-- function&#45;0&#45;Beq&#45;&gt;function&#45;1&#45;ImmVal -->
<g id="edge20" class="edge">
<title>function&#45;0&#45;Beq:s&#45;&gt;function&#45;1&#45;ImmVal</title>
<path fill="none" stroke="black" d="M400,-332C400,-318.06 405.34,-303.48 410.98,-291.96"/>
<polygon fill="black" stroke="black" points="410.88,-295.08 412.4,-290 408.05,-293.02 410.88,-295.08"/>
</g>
<!-- function&#45;0&#45;Beq&#45;&gt;function&#45;2&#45;RegVal -->
<g id="edge19" class="edge">
<title>function&#45;0&#45;Beq:s&#45;&gt;function&#45;2&#45;RegVal</title>
<path fill="none" stroke="black" d="M391,-332C391,-297.16 429.09,-310.87 459,-293 459.2,-292.88 459.41,-292.75 459.62,-292.63"/>
<polygon fill="black" stroke="black" points="460.62,-294.07 464,-289.99 458.81,-291.07 460.62,-294.07"/>
</g>
<!-- function&#45;0&#45;Beq&#45;&gt;function&#45;1&#45;Add -->
<g id="edge18" class="edge">
<title>function&#45;0&#45;Beq:s&#45;&gt;function&#45;1&#45;Add</title>
<path fill="none" stroke="black" d="M377,-332C377,-318.04 371.81,-303.35 366.36,-291.77"/>
<polygon fill="black" stroke="black" points="369.43,-292.94 365.02,-290 366.64,-295.05 369.43,-292.94"/>
</g>
<!-- function&#45;0&#45;Jal&#45;&gt;function&#45;0&#45;ImmLabel -->
<g id="edge15" class="edge">
<title>function&#45;0&#45;Jal:s&#45;&gt;function&#45;0&#45;ImmLabel</title>
<path fill="none" stroke="black" d="M237,-332C237,-318.31 232.71,-303.63 228.21,-292"/>
<polygon fill="black" stroke="black" points="230.98,-293.79 227.28,-290 227.81,-295.27 230.98,-293.79"/>
</g>
<!-- function&#45;0&#45;Ori&#45;&gt;function&#45;0&#45;ImmVal -->
<g id="edge13" class="edge">
<title>function&#45;0&#45;Ori:s&#45;&gt;function&#45;0&#45;ImmVal</title>
<path fill="none" stroke="black" d="M275,-174C275,-160.81 275.91,-146.08 276.87,-134.28"/>
<polygon fill="black" stroke="black" points="278.08,-137.24 277.3,-132 274.64,-136.58 278.08,-137.24"/>
</g>
<!-- function&#45;0&#45;Ori&#45;&gt;function&#45;4&#45;RegVal -->
<g id="edge12" class="edge">
<title>function&#45;0&#45;Ori:s&#45;&gt;function&#45;4&#45;RegVal</title>
<path fill="none" stroke="black" d="M259,-174C259,-157.59 248.18,-143.25 236.4,-132.5"/>
<polygon fill="black" stroke="black" points="240.65,-132.66 235.39,-132 239.09,-135.8 240.65,-132.66"/>
</g>
<!-- function&#45;3&#45;RegVal&#45;&gt;primitive&#45;String&#45;4 -->
<g id="edge17" class="edge">
<title>function&#45;3&#45;RegVal:s&#45;&gt;primitive&#45;String&#45;4</title>
<path fill="none" stroke="black" d="M55,-174C55,-160.84 55,-146.11 55,-134.3"/>
<polygon fill="black" stroke="black" points="56.75,-137 55,-132 53.25,-137 56.75,-137"/>
</g>
<!-- function&#45;1&#45;Add&#45;&gt;function&#45;0&#45;Ori -->
<g id="edge29" class="edge">
<title>function&#45;1&#45;Add:s&#45;&gt;function&#45;0&#45;Ori</title>
<path fill="none" stroke="black" d="M363,-253C363,-245.18 326.63,-223.5 298.66,-207.98"/>
<polygon fill="black" stroke="black" points="301.93,-208.49 297,-206.55 299.64,-211.14 301.93,-208.49"/>
</g>
<!-- function&#45;1&#45;Add&#45;&gt;function&#45;1&#45;RegVal -->
<g id="edge28" class="edge">
<title>function&#45;1&#45;Add:s&#45;&gt;function&#45;1&#45;RegVal</title>
<path fill="none" stroke="black" d="M345,-253C345,-239.83 345.46,-225.1 345.93,-213.3"/>
<polygon fill="black" stroke="black" points="347.42,-216.14 346.15,-211 343.94,-215.81 347.42,-216.14"/>
</g>
<!-- function&#45;0&#45;Add&#45;&gt;function&#45;0&#45;RegVal -->
<g id="edge21" class="edge">
<title>function&#45;0&#45;Add:s&#45;&gt;function&#45;0&#45;RegVal</title>
<path fill="none" stroke="black" d="M47,-253C47,-228.17 73.81,-235.04 87,-214 98.94,-194.95 93.38,-186.33 103,-166 108.26,-154.88 115.35,-143.26 121.69,-133.65"/>
<polygon fill="black" stroke="black" points="120.97,-136.63 123.55,-132 118.65,-134.02 120.97,-136.63"/>
</g>
<!-- function&#45;0&#45;Add&#45;&gt;function&#45;3&#45;RegVal -->
<g id="edge22" class="edge">
<title>function&#45;0&#45;Add:s&#45;&gt;function&#45;3&#45;RegVal</title>
<path fill="none" stroke="black" d="M65,-253C65,-239.73 62.53,-225.1 59.92,-213.39"/>
<polygon fill="black" stroke="black" points="62.53,-214.69 58.73,-211 59.4,-216.25 62.53,-214.69"/>
</g>
<!-- function&#45;1&#45;Sub&#45;&gt;function&#45;0&#45;Sub -->
<g id="edge24" class="edge">
<title>function&#45;1&#45;Sub:s&#45;&gt;function&#45;0&#45;Sub</title>
<path fill="none" stroke="black" d="M123,-253C123,-239.73 125.47,-225.1 128.08,-213.39"/>
<polygon fill="black" stroke="black" points="128.6,-216.25 129.27,-211 125.47,-214.69 128.6,-216.25"/>
</g>
<!-- function&#45;1&#45;Sub&#45;&gt;function&#45;3&#45;RegVal -->
<g id="edge23" class="edge">
<title>function&#45;1&#45;Sub:s&#45;&gt;function&#45;3&#45;RegVal</title>
<path fill="none" stroke="black" d="M105,-253C105,-236.72 94.38,-222.39 82.84,-211.62"/>
<polygon fill="black" stroke="black" points="87.04,-212.3 81.9,-211 85.11,-215.22 87.04,-212.3"/>
</g>
<!-- function&#45;1&#45;RegVal&#45;&gt;primitive&#45;String&#45;2 -->
<g id="edge25" class="edge">
<title>function&#45;1&#45;RegVal:s&#45;&gt;primitive&#45;String&#45;2</title>
<path fill="none" stroke="black" d="M348,-174C348,-160.84 348.23,-146.1 348.47,-134.3"/>
<polygon fill="black" stroke="black" points="350.09,-137.08 348.58,-132 346.59,-136.91 350.09,-137.08"/>
</g>
<!-- function&#45;0&#45;ImmVal -->
<g id="node1" class="node">
<title>function&#45;0&#45;ImmVal</title>
<g id="a_node1"><a xlink:title="Imm&#45;5: function&#45;0&#45;ImmVal">
<path fill="white" stroke="transparent" d="M258.67,-95C258.67,-95 299.33,-95 299.33,-95 304.67,-95 310,-100.33 310,-105.67 310,-105.67 310,-116.33 310,-116.33 310,-121.67 304.67,-127 299.33,-127 299.33,-127 258.67,-127 258.67,-127 253.33,-127 248,-121.67 248,-116.33 248,-116.33 248,-105.67 248,-105.67 248,-100.33 253.33,-95 258.67,-95"/>
<text text-anchor="start" x="253" y="-107.3" font-family="Helvetica,sans-Serif" font-size="14.00">ImmVal</text>
<path fill="none" stroke="black" d="M258.67,-95C258.67,-95 299.33,-95 299.33,-95 304.67,-95 310,-100.33 310,-105.67 310,-105.67 310,-116.33 310,-116.33 310,-121.67 304.67,-127 299.33,-127 299.33,-127 258.67,-127 258.67,-127 253.33,-127 248,-121.67 248,-116.33 248,-116.33 248,-105.67 248,-105.67 248,-100.33 253.33,-95 258.67,-95"/>
</a>
</g>
</g>
<!-- primitive&#45;i64&#45;2147483648 -->
<g id="node2" class="node">
<title>primitive&#45;i64&#45;2147483648</title>
<g id="a_node2"><a xlink:title="i64&#45;2147483648: primitive&#45;i64&#45;2147483648">
<path fill="white" stroke="transparent" d="M273.67,-16C273.67,-16 284.33,-16 284.33,-16 289.67,-16 295,-21.33 295,-26.67 295,-26.67 295,-37.33 295,-37.33 295,-42.67 289.67,-48 284.33,-48 284.33,-48 273.67,-48 273.67,-48 268.33,-48 263,-42.67 263,-37.33 263,-37.33 263,-26.67 263,-26.67 263,-21.33 268.33,-16 273.67,-16"/>
<text text-anchor="start" x="271.5" y="-28.3" font-family="Helvetica,sans-Serif" font-size="14.00">&#45;1</text>
<path fill="none" stroke="black" d="M273.67,-16C273.67,-16 284.33,-16 284.33,-16 289.67,-16 295,-21.33 295,-26.67 295,-26.67 295,-37.33 295,-37.33 295,-42.67 289.67,-48 284.33,-48 284.33,-48 273.67,-48 273.67,-48 268.33,-48 263,-42.67 263,-37.33 263,-37.33 263,-26.67 263,-26.67 263,-21.33 268.33,-16 273.67,-16"/>
</a>
</g>
</g>
<!-- function&#45;0&#45;ImmLabel -->
<g id="node3" class="node">
<title>function&#45;0&#45;ImmLabel</title>
<g id="a_node3"><a xlink:title="Imm&#45;7: function&#45;0&#45;ImmLabel">
<path fill="white" stroke="transparent" d="M189.17,-253C189.17,-253 246.83,-253 246.83,-253 252.17,-253 257.5,-258.33 257.5,-263.67 257.5,-263.67 257.5,-274.33 257.5,-274.33 257.5,-279.67 252.17,-285 246.83,-285 246.83,-285 189.17,-285 189.17,-285 183.83,-285 178.5,-279.67 178.5,-274.33 178.5,-274.33 178.5,-263.67 178.5,-263.67 178.5,-258.33 183.83,-253 189.17,-253"/>
<text text-anchor="start" x="184" y="-265.3" font-family="Helvetica,sans-Serif" font-size="14.00">ImmLabel</text>
<path fill="none" stroke="black" d="M189.17,-253C189.17,-253 246.83,-253 246.83,-253 252.17,-253 257.5,-258.33 257.5,-263.67 257.5,-263.67 257.5,-274.33 257.5,-274.33 257.5,-279.67 252.17,-285 246.83,-285 246.83,-285 189.17,-285 189.17,-285 183.83,-285 178.5,-279.67 178.5,-274.33 178.5,-274.33 178.5,-263.67 178.5,-263.67 178.5,-258.33 183.83,-253 189.17,-253"/>
</a>
</g>
</g>
<!-- primitive&#45;String&#45;5 -->
<g id="node4" class="node">
<title>primitive&#45;String&#45;5</title>
<g id="a_node4"><a xlink:title="String&#45;5: primitive&#45;String&#45;5">
<path fill="white" stroke="transparent" d="M189.17,-174C189.17,-174 212.83,-174 212.83,-174 218.17,-174 223.5,-179.33 223.5,-184.67 223.5,-184.67 223.5,-195.33 223.5,-195.33 223.5,-200.67 218.17,-206 212.83,-206 212.83,-206 189.17,-206 189.17,-206 183.83,-206 178.5,-200.67 178.5,-195.33 178.5,-195.33 178.5,-184.67 178.5,-184.67 178.5,-179.33 183.83,-174 189.17,-174"/>
<text text-anchor="start" x="184" y="-186.3" font-family="Helvetica,sans-Serif" font-size="14.00">&quot;.L0&quot;</text>
<path fill="none" stroke="black" d="M189.17,-174C189.17,-174 212.83,-174 212.83,-174 218.17,-174 223.5,-179.33 223.5,-184.67 223.5,-184.67 223.5,-195.33 223.5,-195.33 223.5,-200.67 218.17,-206 212.83,-206 212.83,-206 189.17,-206 189.17,-206 183.83,-206 178.5,-200.67 178.5,-195.33 178.5,-195.33 178.5,-184.67 178.5,-184.67 178.5,-179.33 183.83,-174 189.17,-174"/>
</a>
</g>
</g>
<!-- function&#45;1&#45;ImmVal -->
<g id="node5" class="node">
<title>function&#45;1&#45;ImmVal</title>
<g id="a_node5"><a xlink:title="Imm&#45;9: function&#45;1&#45;ImmVal">
<path fill="white" stroke="transparent" d="M403.67,-253C403.67,-253 444.33,-253 444.33,-253 449.67,-253 455,-258.33 455,-263.67 455,-263.67 455,-274.33 455,-274.33 455,-279.67 449.67,-285 444.33,-285 444.33,-285 403.67,-285 403.67,-285 398.33,-285 393,-279.67 393,-274.33 393,-274.33 393,-263.67 393,-263.67 393,-258.33 398.33,-253 403.67,-253"/>
<text text-anchor="start" x="398" y="-265.3" font-family="Helvetica,sans-Serif" font-size="14.00">ImmVal</text>
<path fill="none" stroke="black" d="M403.67,-253C403.67,-253 444.33,-253 444.33,-253 449.67,-253 455,-258.33 455,-263.67 455,-263.67 455,-274.33 455,-274.33 455,-279.67 449.67,-285 444.33,-285 444.33,-285 403.67,-285 403.67,-285 398.33,-285 393,-279.67 393,-274.33 393,-274.33 393,-263.67 393,-263.67 393,-258.33 398.33,-253 403.67,-253"/>
</a>
</g>
</g>
<!-- primitive&#45;i64&#45;8 -->
<g id="node6" class="node">
<title>primitive&#45;i64&#45;8</title>
<g id="a_node6"><a xlink:title="i64&#45;8: primitive&#45;i64&#45;8">
<path fill="white" stroke="transparent" d="M418.67,-174C418.67,-174 429.33,-174 429.33,-174 434.67,-174 440,-179.33 440,-184.67 440,-184.67 440,-195.33 440,-195.33 440,-200.67 434.67,-206 429.33,-206 429.33,-206 418.67,-206 418.67,-206 413.33,-206 408,-200.67 408,-195.33 408,-195.33 408,-184.67 408,-184.67 408,-179.33 413.33,-174 418.67,-174"/>
<text text-anchor="start" x="419" y="-186.3" font-family="Helvetica,sans-Serif" font-size="14.00">8</text>
<path fill="none" stroke="black" d="M418.67,-174C418.67,-174 429.33,-174 429.33,-174 434.67,-174 440,-179.33 440,-184.67 440,-184.67 440,-195.33 440,-195.33 440,-200.67 434.67,-206 429.33,-206 429.33,-206 418.67,-206 418.67,-206 413.33,-206 408,-200.67 408,-195.33 408,-195.33 408,-184.67 408,-184.67 408,-179.33 413.33,-174 418.67,-174"/>
</a>
</g>
</g>
<!-- function&#45;4&#45;RegVal -->
<g id="node7" class="node">
<title>function&#45;4&#45;RegVal</title>
<g id="a_node7"><a xlink:title="Inst&#45;12: function&#45;4&#45;RegVal">
<path fill="white" stroke="transparent" d="M189.17,-95C189.17,-95 224.83,-95 224.83,-95 230.17,-95 235.5,-100.33 235.5,-105.67 235.5,-105.67 235.5,-116.33 235.5,-116.33 235.5,-121.67 230.17,-127 224.83,-127 224.83,-127 189.17,-127 189.17,-127 183.83,-127 178.5,-121.67 178.5,-116.33 178.5,-116.33 178.5,-105.67 178.5,-105.67 178.5,-100.33 183.83,-95 189.17,-95"/>
<text text-anchor="start" x="184" y="-107.3" font-family="Helvetica,sans-Serif" font-size="14.00">RegVal</text>
<path fill="none" stroke="black" d="M189.17,-95C189.17,-95 224.83,-95 224.83,-95 230.17,-95 235.5,-100.33 235.5,-105.67 235.5,-105.67 235.5,-116.33 235.5,-116.33 235.5,-121.67 230.17,-127 224.83,-127 224.83,-127 189.17,-127 189.17,-127 183.83,-127 178.5,-121.67 178.5,-116.33 178.5,-116.33 178.5,-105.67 178.5,-105.67 178.5,-100.33 183.83,-95 189.17,-95"/>
</a>
</g>
</g>
<!-- primitive&#45;String&#45;0 -->
<g id="node8" class="node">
<title>primitive&#45;String&#45;0</title>
<g id="a_node8"><a xlink:title="String&#45;0: primitive&#45;String&#45;0">
<path fill="white" stroke="transparent" d="M198.17,-16C198.17,-16 217.83,-16 217.83,-16 223.17,-16 228.5,-21.33 228.5,-26.67 228.5,-26.67 228.5,-37.33 228.5,-37.33 228.5,-42.67 223.17,-48 217.83,-48 217.83,-48 198.17,-48 198.17,-48 192.83,-48 187.5,-42.67 187.5,-37.33 187.5,-37.33 187.5,-26.67 187.5,-26.67 187.5,-21.33 192.83,-16 198.17,-16"/>
<text text-anchor="start" x="193" y="-28.3" font-family="Helvetica,sans-Serif" font-size="14.00">&quot;x0&quot;</text>
<path fill="none" stroke="black" d="M198.17,-16C198.17,-16 217.83,-16 217.83,-16 223.17,-16 228.5,-21.33 228.5,-26.67 228.5,-26.67 228.5,-37.33 228.5,-37.33 228.5,-42.67 223.17,-48 217.83,-48 217.83,-48 198.17,-48 198.17,-48 192.83,-48 187.5,-42.67 187.5,-37.33 187.5,-37.33 187.5,-26.67 187.5,-26.67 187.5,-21.33 192.83,-16 198.17,-16"/>
</a>
</g>
</g>
<!-- function&#45;0&#45;Sub -->
<g id="node9" class="node">
<title>function&#45;0&#45;Sub</title>
<g id="a_node9"><a xlink:title="Inst&#45;13: function&#45;0&#45;Sub">
<path fill="white" stroke="transparent" d="M125.67,-174C125.67,-174 142.33,-174 142.33,-174 147.67,-174 153,-179.33 153,-184.67 153,-184.67 153,-195.33 153,-195.33 153,-200.67 147.67,-206 142.33,-206 142.33,-206 125.67,-206 125.67,-206 120.33,-206 115,-200.67 115,-195.33 115,-195.33 115,-184.67 115,-184.67 115,-179.33 120.33,-174 125.67,-174"/>
<text text-anchor="start" x="120" y="-186.3" font-family="Helvetica,sans-Serif" font-size="14.00">Sub</text>
<path fill="none" stroke="black" d="M125.67,-174C125.67,-174 142.33,-174 142.33,-174 147.67,-174 153,-179.33 153,-184.67 153,-184.67 153,-195.33 153,-195.33 153,-200.67 147.67,-206 142.33,-206 142.33,-206 125.67,-206 125.67,-206 120.33,-206 115,-200.67 115,-195.33 115,-195.33 115,-184.67 115,-184.67 115,-179.33 120.33,-174 125.67,-174"/>
</a>
</g>
</g>
<!-- function&#45;0&#45;RegVal -->
<g id="node10" class="node">
<title>function&#45;0&#45;RegVal</title>
<g id="a_node10"><a xlink:title="Inst&#45;0: function&#45;0&#45;RegVal">
<path fill="white" stroke="transparent" d="M119.17,-95C119.17,-95 154.83,-95 154.83,-95 160.17,-95 165.5,-100.33 165.5,-105.67 165.5,-105.67 165.5,-116.33 165.5,-116.33 165.5,-121.67 160.17,-127 154.83,-127 154.83,-127 119.17,-127 119.17,-127 113.83,-127 108.5,-121.67 108.5,-116.33 108.5,-116.33 108.5,-105.67 108.5,-105.67 108.5,-100.33 113.83,-95 119.17,-95"/>
<text text-anchor="start" x="114" y="-107.3" font-family="Helvetica,sans-Serif" font-size="14.00">RegVal</text>
<path fill="none" stroke="black" d="M119.17,-95C119.17,-95 154.83,-95 154.83,-95 160.17,-95 165.5,-100.33 165.5,-105.67 165.5,-105.67 165.5,-116.33 165.5,-116.33 165.5,-121.67 160.17,-127 154.83,-127 154.83,-127 119.17,-127 119.17,-127 113.83,-127 108.5,-121.67 108.5,-116.33 108.5,-116.33 108.5,-105.67 108.5,-105.67 108.5,-100.33 113.83,-95 119.17,-95"/>
</a>
</g>
</g>
<!-- function&#45;0&#45;Bne -->
<g id="node11" class="node">
<title>function&#45;0&#45;Bne</title>
<g id="a_node11"><a xlink:title="Inst&#45;8: function&#45;0&#45;Bne">
<path fill="white" stroke="transparent" d="M296.67,-411C296.67,-411 313.33,-411 313.33,-411 318.67,-411 324,-416.33 324,-421.67 324,-421.67 324,-432.33 324,-432.33 324,-437.67 318.67,-443 313.33,-443 313.33,-443 296.67,-443 296.67,-443 291.33,-443 286,-437.67 286,-432.33 286,-432.33 286,-421.67 286,-421.67 286,-416.33 291.33,-411 296.67,-411"/>
<text text-anchor="start" x="291" y="-423.3" font-family="Helvetica,sans-Serif" font-size="14.00">Bne</text>
<path fill="none" stroke="black" d="M296.67,-411C296.67,-411 313.33,-411 313.33,-411 318.67,-411 324,-416.33 324,-421.67 324,-421.67 324,-432.33 324,-432.33 324,-437.67 318.67,-443 313.33,-443 313.33,-443 296.67,-443 296.67,-443 291.33,-443 286,-437.67 286,-432.33 286,-432.33 286,-421.67 286,-421.67 286,-416.33 291.33,-411 296.67,-411"/>
</a>
</g>
</g>
<!-- function&#45;0&#45;Addi -->
<g id="node12" class="node">
<title>function&#45;0&#45;Addi</title>
<g id="a_node12"><a xlink:title="Inst&#45;6: function&#45;0&#45;Addi">
<path fill="white" stroke="transparent" d="M286.17,-253C286.17,-253 305.83,-253 305.83,-253 311.17,-253 316.5,-258.33 316.5,-263.67 316.5,-263.67 316.5,-274.33 316.5,-274.33 316.5,-279.67 311.17,-285 305.83,-285 305.83,-285 286.17,-285 286.17,-285 280.83,-285 275.5,-279.67 275.5,-274.33 275.5,-274.33 275.5,-263.67 275.5,-263.67 275.5,-258.33 280.83,-253 286.17,-253"/>
<text text-anchor="start" x="281" y="-265.3" font-family="Helvetica,sans-Serif" font-size="14.00">Addi</text>
<path fill="none" stroke="black" d="M286.17,-253C286.17,-253 305.83,-253 305.83,-253 311.17,-253 316.5,-258.33 316.5,-263.67 316.5,-263.67 316.5,-274.33 316.5,-274.33 316.5,-279.67 311.17,-285 305.83,-285 305.83,-285 286.17,-285 286.17,-285 280.83,-285 275.5,-279.67 275.5,-274.33 275.5,-274.33 275.5,-263.67 275.5,-263.67 275.5,-258.33 280.83,-253 286.17,-253"/>
</a>
</g>
</g>
<!-- function&#45;2&#45;RegVal -->
<g id="node13" class="node">
<title>function&#45;2&#45;RegVal</title>
<g id="a_node13"><a xlink:title="Inst&#45;2: function&#45;2&#45;RegVal">
<path fill="white" stroke="transparent" d="M478.17,-253C478.17,-253 513.83,-253 513.83,-253 519.17,-253 524.5,-258.33 524.5,-263.67 524.5,-263.67 524.5,-274.33 524.5,-274.33 524.5,-279.67 519.17,-285 513.83,-285 513.83,-285 478.17,-285 478.17,-285 472.83,-285 467.5,-279.67 467.5,-274.33 467.5,-274.33 467.5,-263.67 467.5,-263.67 467.5,-258.33 472.83,-253 478.17,-253"/>
<text text-anchor="start" x="473" y="-265.3" font-family="Helvetica,sans-Serif" font-size="14.00">RegVal</text>
<path fill="none" stroke="black" d="M478.17,-253C478.17,-253 513.83,-253 513.83,-253 519.17,-253 524.5,-258.33 524.5,-263.67 524.5,-263.67 524.5,-274.33 524.5,-274.33 524.5,-279.67 519.17,-285 513.83,-285 513.83,-285 478.17,-285 478.17,-285 472.83,-285 467.5,-279.67 467.5,-274.33 467.5,-274.33 467.5,-263.67 467.5,-263.67 467.5,-258.33 472.83,-253 478.17,-253"/>
</a>
</g>
</g>
<!-- function&#45;0&#45;Seq2 -->
<g id="node14" class="node">
<title>function&#45;0&#45;Seq2</title>
<g id="a_node14"><a xlink:title="Inst&#45;8: function&#45;0&#45;Seq2">
<path fill="white" stroke="transparent" d="M234.67,-411C234.67,-411 259.33,-411 259.33,-411 264.67,-411 270,-416.33 270,-421.67 270,-421.67 270,-432.33 270,-432.33 270,-437.67 264.67,-443 259.33,-443 259.33,-443 234.67,-443 234.67,-443 229.33,-443 224,-437.67 224,-432.33 224,-432.33 224,-421.67 224,-421.67 224,-416.33 229.33,-411 234.67,-411"/>
<text text-anchor="start" x="229" y="-423.3" font-family="Helvetica,sans-Serif" font-size="14.00">Seq2</text>
<path fill="none" stroke="black" d="M234.67,-411C234.67,-411 259.33,-411 259.33,-411 264.67,-411 270,-416.33 270,-421.67 270,-421.67 270,-432.33 270,-432.33 270,-437.67 264.67,-443 259.33,-443 259.33,-443 234.67,-443 234.67,-443 229.33,-443 224,-437.67 224,-432.33 224,-432.33 224,-421.67 224,-421.67 224,-416.33 229.33,-411 234.67,-411"/>
</a>
</g>
</g>
<!-- function&#45;0&#45;Beq -->
<g id="node15" class="node">
<title>function&#45;0&#45;Beq</title>
<g id="a_node15"><a xlink:title="Inst&#45;10: function&#45;0&#45;Beq">
<path fill="white" stroke="transparent" d="M377.67,-332C377.67,-332 394.33,-332 394.33,-332 399.67,-332 405,-337.33 405,-342.67 405,-342.67 405,-353.33 405,-353.33 405,-358.67 399.67,-364 394.33,-364 394.33,-364 377.67,-364 377.67,-364 372.33,-364 367,-358.67 367,-353.33 367,-353.33 367,-342.67 367,-342.67 367,-337.33 372.33,-332 377.67,-332"/>
<text text-anchor="start" x="372" y="-344.3" font-family="Helvetica,sans-Serif" font-size="14.00">Beq</text>
<path fill="none" stroke="black" d="M377.67,-332C377.67,-332 394.33,-332 394.33,-332 399.67,-332 405,-337.33 405,-342.67 405,-342.67 405,-353.33 405,-353.33 405,-358.67 399.67,-364 394.33,-364 394.33,-364 377.67,-364 377.67,-364 372.33,-364 367,-358.67 367,-353.33 367,-353.33 367,-342.67 367,-342.67 367,-337.33 372.33,-332 377.67,-332"/>
</a>
</g>
</g>
<!-- function&#45;0&#45;Jal -->
<g id="node16" class="node">
<title>function&#45;0&#45;Jal</title>
<g id="a_node16"><a xlink:title="Inst&#45;11: function&#45;0&#45;Jal">
<path fill="white" stroke="transparent" d="M231.67,-332C231.67,-332 242.33,-332 242.33,-332 247.67,-332 253,-337.33 253,-342.67 253,-342.67 253,-353.33 253,-353.33 253,-358.67 247.67,-364 242.33,-364 242.33,-364 231.67,-364 231.67,-364 226.33,-364 221,-358.67 221,-353.33 221,-353.33 221,-342.67 221,-342.67 221,-337.33 226.33,-332 231.67,-332"/>
<text text-anchor="start" x="228.5" y="-344.3" font-family="Helvetica,sans-Serif" font-size="14.00">Jal</text>
<path fill="none" stroke="black" d="M231.67,-332C231.67,-332 242.33,-332 242.33,-332 247.67,-332 253,-337.33 253,-342.67 253,-342.67 253,-353.33 253,-353.33 253,-358.67 247.67,-364 242.33,-364 242.33,-364 231.67,-364 231.67,-364 226.33,-364 221,-358.67 221,-353.33 221,-353.33 221,-342.67 221,-342.67 221,-337.33 226.33,-332 231.67,-332"/>
</a>
</g>
</g>
<!-- function&#45;0&#45;Ori -->
<g id="node17" class="node">
<title>function&#45;0&#45;Ori</title>
<g id="a_node17"><a xlink:title="Inst&#45;14: function&#45;0&#45;Ori">
<path fill="white" stroke="transparent" d="M261.67,-174C261.67,-174 272.33,-174 272.33,-174 277.67,-174 283,-179.33 283,-184.67 283,-184.67 283,-195.33 283,-195.33 283,-200.67 277.67,-206 272.33,-206 272.33,-206 261.67,-206 261.67,-206 256.33,-206 251,-200.67 251,-195.33 251,-195.33 251,-184.67 251,-184.67 251,-179.33 256.33,-174 261.67,-174"/>
<text text-anchor="start" x="256" y="-186.3" font-family="Helvetica,sans-Serif" font-size="14.00">Ori</text>
<path fill="none" stroke="black" d="M261.67,-174C261.67,-174 272.33,-174 272.33,-174 277.67,-174 283,-179.33 283,-184.67 283,-184.67 283,-195.33 283,-195.33 283,-200.67 277.67,-206 272.33,-206 272.33,-206 261.67,-206 261.67,-206 256.33,-206 251,-200.67 251,-195.33 251,-195.33 251,-184.67 251,-184.67 251,-179.33 256.33,-174 261.67,-174"/>
</a>
</g>
</g>
<!-- primitive&#45;String&#45;3 -->
<g id="node18" class="node">
<title>primitive&#45;String&#45;3</title>
<g id="a_node18"><a xlink:title="String&#45;3: primitive&#45;String&#45;3">
<path fill="white" stroke="transparent" d="M481.17,-174C481.17,-174 512.83,-174 512.83,-174 518.17,-174 523.5,-179.33 523.5,-184.67 523.5,-184.67 523.5,-195.33 523.5,-195.33 523.5,-200.67 518.17,-206 512.83,-206 512.83,-206 481.17,-206 481.17,-206 475.83,-206 470.5,-200.67 470.5,-195.33 470.5,-195.33 470.5,-184.67 470.5,-184.67 470.5,-179.33 475.83,-174 481.17,-174"/>
<text text-anchor="start" x="476" y="-186.3" font-family="Helvetica,sans-Serif" font-size="14.00">&quot;zero&quot;</text>
<path fill="none" stroke="black" d="M481.17,-174C481.17,-174 512.83,-174 512.83,-174 518.17,-174 523.5,-179.33 523.5,-184.67 523.5,-184.67 523.5,-195.33 523.5,-195.33 523.5,-200.67 518.17,-206 512.83,-206 512.83,-206 481.17,-206 481.17,-206 475.83,-206 470.5,-200.67 470.5,-195.33 470.5,-195.33 470.5,-184.67 470.5,-184.67 470.5,-179.33 475.83,-174 481.17,-174"/>
</a>
</g>
</g>
<!-- primitive&#45;String&#45;1 -->
<g id="node19" class="node">
<title>primitive&#45;String&#45;1</title>
<g id="a_node19"><a xlink:title="String&#45;1: primitive&#45;String&#45;1">
<path fill="white" stroke="transparent" d="M120.17,-16C120.17,-16 155.83,-16 155.83,-16 161.17,-16 166.5,-21.33 166.5,-26.67 166.5,-26.67 166.5,-37.33 166.5,-37.33 166.5,-42.67 161.17,-48 155.83,-48 155.83,-48 120.17,-48 120.17,-48 114.83,-48 109.5,-42.67 109.5,-37.33 109.5,-37.33 109.5,-26.67 109.5,-26.67 109.5,-21.33 114.83,-16 120.17,-16"/>
<text text-anchor="start" x="115" y="-28.3" font-family="Helvetica,sans-Serif" font-size="14.00">&quot;a1_0&quot;</text>
<path fill="none" stroke="black" d="M120.17,-16C120.17,-16 155.83,-16 155.83,-16 161.17,-16 166.5,-21.33 166.5,-26.67 166.5,-26.67 166.5,-37.33 166.5,-37.33 166.5,-42.67 161.17,-48 155.83,-48 155.83,-48 120.17,-48 120.17,-48 114.83,-48 109.5,-42.67 109.5,-37.33 109.5,-37.33 109.5,-26.67 109.5,-26.67 109.5,-21.33 114.83,-16 120.17,-16"/>
</a>
</g>
</g>
<!-- function&#45;3&#45;RegVal -->
<g id="node20" class="node">
<title>function&#45;3&#45;RegVal</title>
<g id="a_node20"><a xlink:title="Inst&#45;3: function&#45;3&#45;RegVal">
<path fill="white" stroke="transparent" d="M36.17,-174C36.17,-174 71.83,-174 71.83,-174 77.17,-174 82.5,-179.33 82.5,-184.67 82.5,-184.67 82.5,-195.33 82.5,-195.33 82.5,-200.67 77.17,-206 71.83,-206 71.83,-206 36.17,-206 36.17,-206 30.83,-206 25.5,-200.67 25.5,-195.33 25.5,-195.33 25.5,-184.67 25.5,-184.67 25.5,-179.33 30.83,-174 36.17,-174"/>
<text text-anchor="start" x="31" y="-186.3" font-family="Helvetica,sans-Serif" font-size="14.00">RegVal</text>
<path fill="none" stroke="black" d="M36.17,-174C36.17,-174 71.83,-174 71.83,-174 77.17,-174 82.5,-179.33 82.5,-184.67 82.5,-184.67 82.5,-195.33 82.5,-195.33 82.5,-200.67 77.17,-206 71.83,-206 71.83,-206 36.17,-206 36.17,-206 30.83,-206 25.5,-200.67 25.5,-195.33 25.5,-195.33 25.5,-184.67 25.5,-184.67 25.5,-179.33 30.83,-174 36.17,-174"/>
</a>
</g>
</g>
<!-- primitive&#45;String&#45;4 -->
<g id="node21" class="node">
<title>primitive&#45;String&#45;4</title>
<g id="a_node21"><a xlink:title="String&#45;4: primitive&#45;String&#45;4">
<path fill="white" stroke="transparent" d="M25.17,-95C25.17,-95 84.83,-95 84.83,-95 90.17,-95 95.5,-100.33 95.5,-105.67 95.5,-105.67 95.5,-116.33 95.5,-116.33 95.5,-121.67 90.17,-127 84.83,-127 84.83,-127 25.17,-127 25.17,-127 19.83,-127 14.5,-121.67 14.5,-116.33 14.5,-116.33 14.5,-105.67 14.5,-105.67 14.5,-100.33 19.83,-95 25.17,-95"/>
<text text-anchor="start" x="20" y="-107.3" font-family="Helvetica,sans-Serif" font-size="14.00">&quot;t2_0_val&quot;</text>
<path fill="none" stroke="black" d="M25.17,-95C25.17,-95 84.83,-95 84.83,-95 90.17,-95 95.5,-100.33 95.5,-105.67 95.5,-105.67 95.5,-116.33 95.5,-116.33 95.5,-121.67 90.17,-127 84.83,-127 84.83,-127 25.17,-127 25.17,-127 19.83,-127 14.5,-121.67 14.5,-116.33 14.5,-116.33 14.5,-105.67 14.5,-105.67 14.5,-100.33 19.83,-95 25.17,-95"/>
</a>
</g>
</g>
<!-- function&#45;1&#45;Add -->
<g id="node22" class="node">
<title>function&#45;1&#45;Add</title>
<g id="a_node22"><a xlink:title="Inst&#45;6: function&#45;1&#45;Add">
<path fill="white" stroke="transparent" d="M345.67,-253C345.67,-253 362.33,-253 362.33,-253 367.67,-253 373,-258.33 373,-263.67 373,-263.67 373,-274.33 373,-274.33 373,-279.67 367.67,-285 362.33,-285 362.33,-285 345.67,-285 345.67,-285 340.33,-285 335,-279.67 335,-274.33 335,-274.33 335,-263.67 335,-263.67 335,-258.33 340.33,-253 345.67,-253"/>
<text text-anchor="start" x="340" y="-265.3" font-family="Helvetica,sans-Serif" font-size="14.00">Add</text>
<path fill="none" stroke="black" d="M345.67,-253C345.67,-253 362.33,-253 362.33,-253 367.67,-253 373,-258.33 373,-263.67 373,-263.67 373,-274.33 373,-274.33 373,-279.67 367.67,-285 362.33,-285 362.33,-285 345.67,-285 345.67,-285 340.33,-285 335,-279.67 335,-274.33 335,-274.33 335,-263.67 335,-263.67 335,-258.33 340.33,-253 345.67,-253"/>
</a>
</g>
</g>
<!-- function&#45;0&#45;Add -->
<g id="node23" class="node">
<title>function&#45;0&#45;Add</title>
<g id="a_node23"><a xlink:title="Inst&#45;4: function&#45;0&#45;Add">
<path fill="white" stroke="transparent" d="M47.67,-253C47.67,-253 64.33,-253 64.33,-253 69.67,-253 75,-258.33 75,-263.67 75,-263.67 75,-274.33 75,-274.33 75,-279.67 69.67,-285 64.33,-285 64.33,-285 47.67,-285 47.67,-285 42.33,-285 37,-279.67 37,-274.33 37,-274.33 37,-263.67 37,-263.67 37,-258.33 42.33,-253 47.67,-253"/>
<text text-anchor="start" x="42" y="-265.3" font-family="Helvetica,sans-Serif" font-size="14.00">Add</text>
<path fill="none" stroke="black" d="M47.67,-253C47.67,-253 64.33,-253 64.33,-253 69.67,-253 75,-258.33 75,-263.67 75,-263.67 75,-274.33 75,-274.33 75,-279.67 69.67,-285 64.33,-285 64.33,-285 47.67,-285 47.67,-285 42.33,-285 37,-279.67 37,-274.33 37,-274.33 37,-263.67 37,-263.67 37,-258.33 42.33,-253 47.67,-253"/>
</a>
</g>
</g>
<!-- function&#45;1&#45;Sub -->
<g id="node24" class="node">
<title>function&#45;1&#45;Sub</title>
<g id="a_node24"><a xlink:title="Inst&#45;4: function&#45;1&#45;Sub">
<path fill="white" stroke="transparent" d="M105.67,-253C105.67,-253 122.33,-253 122.33,-253 127.67,-253 133,-258.33 133,-263.67 133,-263.67 133,-274.33 133,-274.33 133,-279.67 127.67,-285 122.33,-285 122.33,-285 105.67,-285 105.67,-285 100.33,-285 95,-279.67 95,-274.33 95,-274.33 95,-263.67 95,-263.67 95,-258.33 100.33,-253 105.67,-253"/>
<text text-anchor="start" x="100" y="-265.3" font-family="Helvetica,sans-Serif" font-size="14.00">Sub</text>
<path fill="none" stroke="black" d="M105.67,-253C105.67,-253 122.33,-253 122.33,-253 127.67,-253 133,-258.33 133,-263.67 133,-263.67 133,-274.33 133,-274.33 133,-279.67 127.67,-285 122.33,-285 122.33,-285 105.67,-285 105.67,-285 100.33,-285 95,-279.67 95,-274.33 95,-274.33 95,-263.67 95,-263.67 95,-258.33 100.33,-253 105.67,-253"/>
</a>
</g>
</g>
<!-- function&#45;1&#45;RegVal -->
<g id="node25" class="node">
<title>function&#45;1&#45;RegVal</title>
<g id="a_node25"><a xlink:title="Inst&#45;1: function&#45;1&#45;RegVal">
<path fill="white" stroke="transparent" d="M329.17,-174C329.17,-174 364.83,-174 364.83,-174 370.17,-174 375.5,-179.33 375.5,-184.67 375.5,-184.67 375.5,-195.33 375.5,-195.33 375.5,-200.67 370.17,-206 364.83,-206 364.83,-206 329.17,-206 329.17,-206 323.83,-206 318.5,-200.67 318.5,-195.33 318.5,-195.33 318.5,-184.67 318.5,-184.67 318.5,-179.33 323.83,-174 329.17,-174"/>
<text text-anchor="start" x="324" y="-186.3" font-family="Helvetica,sans-Serif" font-size="14.00">RegVal</text>
<path fill="none" stroke="black" d="M329.17,-174C329.17,-174 364.83,-174 364.83,-174 370.17,-174 375.5,-179.33 375.5,-184.67 375.5,-184.67 375.5,-195.33 375.5,-195.33 375.5,-200.67 370.17,-206 364.83,-206 364.83,-206 329.17,-206 329.17,-206 323.83,-206 318.5,-200.67 318.5,-195.33 318.5,-195.33 318.5,-184.67 318.5,-184.67 318.5,-179.33 323.83,-174 329.17,-174"/>
</a>
</g>
</g>
<!-- primitive&#45;String&#45;2 -->
<g id="node26" class="node">
<title>primitive&#45;String&#45;2</title>
<g id="a_node26"><a xlink:title="String&#45;2: primitive&#45;String&#45;2">
<path fill="white" stroke="transparent" d="M332.67,-95C332.67,-95 365.33,-95 365.33,-95 370.67,-95 376,-100.33 376,-105.67 376,-105.67 376,-116.33 376,-116.33 376,-121.67 370.67,-127 365.33,-127 365.33,-127 332.67,-127 332.67,-127 327.33,-127 322,-121.67 322,-116.33 322,-116.33 322,-105.67 322,-105.67 322,-100.33 327.33,-95 332.67,-95"/>
<text text-anchor="start" x="327" y="-107.3" font-family="Helvetica,sans-Serif" font-size="14.00">&quot;t0_0&quot;</text>
<path fill="none" stroke="black" d="M332.67,-95C332.67,-95 365.33,-95 365.33,-95 370.67,-95 376,-100.33 376,-105.67 376,-105.67 376,-116.33 376,-116.33 376,-121.67 370.67,-127 365.33,-127 365.33,-127 332.67,-127 332.67,-127 327.33,-127 322,-121.67 322,-116.33 322,-116.33 322,-105.67 322,-105.67 322,-100.33 327.33,-95 332.67,-95"/>
</a>
</g>
</g>
</g>
</svg>
