<?xml version="1.0" encoding="UTF-8" standalone="no"?>
<!DOCTYPE svg PUBLIC "-//W3C//DTD SVG 1.1//EN"
 "http://www.w3.org/Graphics/SVG/1.1/DTD/svg11.dtd">
<!-- Generated by graphviz version 2.43.0 (0)
 -->
<!-- Title: %3 Pages: 1 -->
<svg width="535pt" height="783pt"
 viewBox="0.00 0.00 535.00 783.00" xmlns="http://www.w3.org/2000/svg" xmlns:xlink="http://www.w3.org/1999/xlink">
<g id="graph0" class="graph" transform="scale(1 1) rotate(0) translate(4 779)">
<title>%3</title>
<polygon fill="white" stroke="#000000" points="-4,4 -4,-779 531,-779 531,4 -4,4"/>
<g id="clust1" class="cluster">
<title>outer_cluster_Imm&#45;13</title>
</g>
<g id="clust2" class="cluster">
<title>cluster_Imm&#45;13</title>
<path fill="#ffffb3" stroke="black" stroke-dasharray="5,2" d="M329,-248C329,-248 373,-248 373,-248 379,-248 385,-254 385,-260 385,-260 385,-278 385,-278 385,-284 379,-290 373,-290 373,-290 329,-290 329,-290 323,-290 317,-284 317,-278 317,-278 317,-260 317,-260 317,-254 323,-248 329,-248"/>
</g>
<g id="clust4" class="cluster">
<title>outer_cluster_Inst&#45;10</title>
</g>
<g id="clust5" class="cluster">
<title>cluster_Inst&#45;10</title>
<path fill="#bebada" stroke="black" stroke-dasharray="5,2" d="M171,-169C171,-169 207,-169 207,-169 213,-169 219,-175 219,-181 219,-181 219,-199 219,-199 219,-205 213,-211 207,-211 207,-211 171,-211 171,-211 165,-211 159,-205 159,-199 159,-199 159,-181 159,-181 159,-175 165,-169 171,-169"/>
</g>
<g id="clust7" class="cluster">
<title>outer_cluster_Inst&#45;18</title>
</g>
<g id="clust8" class="cluster">
<title>cluster_Inst&#45;18</title>
<path fill="#bebada" stroke="black" stroke-dasharray="5,2" d="M330,-643C330,-643 366,-643 366,-643 372,-643 378,-649 378,-655 378,-655 378,-673 378,-673 378,-679 372,-685 366,-685 366,-685 330,-685 330,-685 324,-685 318,-679 318,-673 318,-673 318,-655 318,-655 318,-649 324,-643 330,-643"/>
</g>
<g id="clust10" class="cluster">
<title>outer_cluster_Inst&#45;5</title>
</g>
<g id="clust11" class="cluster">
<title>cluster_Inst&#45;5</title>
<path fill="#bebada" stroke="black" stroke-dasharray="5,2" d="M456,-169C456,-169 492,-169 492,-169 498,-169 504,-175 504,-181 504,-181 504,-199 504,-199 504,-205 498,-211 492,-211 492,-211 456,-211 456,-211 450,-211 444,-205 444,-199 444,-199 444,-181 444,-181 444,-175 450,-169 456,-169"/>
</g>
<g id="clust13" class="cluster">
<title>outer_cluster_Inst&#45;8</title>
</g>
<g id="clust14" class="cluster">
<title>cluster_Inst&#45;8</title>
<path fill="#bebada" stroke="black" stroke-dasharray="5,2" d="M153,-327C153,-327 189,-327 189,-327 195,-327 201,-333 201,-339 201,-339 201,-357 201,-357 201,-363 195,-369 189,-369 189,-369 153,-369 153,-369 147,-369 141,-363 141,-357 141,-357 141,-339 141,-339 141,-333 147,-327 153,-327"/>
</g>
<g id="clust16" class="cluster">
<title>outer_cluster_Inst&#45;20</title>
</g>
<g id="clust17" class="cluster">
<title>cluster_Inst&#45;20</title>
<path fill="#bebada" stroke="black" stroke-dasharray="5,2" d="M234,-564C234,-564 270,-564 270,-564 276,-564 282,-570 282,-576 282,-576 282,-594 282,-594 282,-600 276,-606 270,-606 270,-606 234,-606 234,-606 228,-606 222,-600 222,-594 222,-594 222,-576 222,-576 222,-570 228,-564 234,-564"/>
</g>
<g id="clust19" class="cluster">
<title>outer_cluster_Inst&#45;0</title>
</g>
<g id="clust20" class="cluster">
<title>cluster_Inst&#45;0</title>
<path fill="#bebada" stroke="black" stroke-dasharray="5,2" d="M294,-90C294,-90 334,-90 334,-90 340,-90 346,-96 346,-102 346,-102 346,-120 346,-120 346,-126 340,-132 334,-132 334,-132 294,-132 294,-132 288,-132 282,-126 282,-120 282,-120 282,-102 282,-102 282,-96 288,-90 294,-90"/>
</g>
<g id="clust22" class="cluster">
<title>outer_cluster_Inst&#45;11</title>
</g>
<g id="clust23" class="cluster">
<title>cluster_Inst&#45;11</title>
<path fill="#bebada" stroke="black" stroke-dasharray="5,2" d="M237,-169C237,-169 273,-169 273,-169 279,-169 285,-175 285,-181 285,-181 285,-199 285,-199 285,-205 279,-211 273,-211 273,-211 237,-211 237,-211 231,-211 225,-205 225,-199 225,-199 225,-181 225,-181 225,-175 231,-169 237,-169"/>
</g>
<g id="clust25" class="cluster">
<title>outer_cluster_Inst&#45;1</title>
</g>
<g id="clust26" class="cluster">
<title>cluster_Inst&#45;1</title>
<path fill="#bebada" stroke="black" stroke-dasharray="5,2" d="M145,-90C145,-90 185,-90 185,-90 191,-90 197,-96 197,-102 197,-102 197,-120 197,-120 197,-126 191,-132 185,-132 185,-132 145,-132 145,-132 139,-132 133,-126 133,-120 133,-120 133,-102 133,-102 133,-96 139,-90 145,-90"/>
</g>
<g id="clust28" class="cluster">
<title>outer_cluster_Inst&#45;4</title>
</g>
<g id="clust29" class="cluster">
<title>cluster_Inst&#45;4</title>
<path fill="#bebada" stroke="black" stroke-dasharray="5,2" d="M100,-248C100,-248 252,-248 252,-248 258,-248 264,-254 264,-260 264,-260 264,-278 264,-278 264,-284 258,-290 252,-290 252,-290 100,-290 100,-290 94,-290 88,-284 88,-278 88,-278 88,-260 88,-260 88,-254 94,-248 100,-248"/>
</g>
<g id="clust31" class="cluster">
<title>outer_cluster_Inst&#45;12</title>
</g>
<g id="clust32" class="cluster">
<title>cluster_Inst&#45;12</title>
<path fill="#bebada" stroke="black" stroke-dasharray="5,2" d="M105,-169C105,-169 141,-169 141,-169 147,-169 153,-175 153,-181 153,-181 153,-199 153,-199 153,-205 147,-211 141,-211 141,-211 105,-211 105,-211 99,-211 93,-205 93,-199 93,-199 93,-181 93,-181 93,-175 99,-169 105,-169"/>
</g>
<g id="clust34" class="cluster">
<title>outer_cluster_Inst&#45;19</title>
</g>
<g id="clust35" class="cluster">
<title>cluster_Inst&#45;19</title>
<path fill="#bebada" stroke="black" stroke-dasharray="5,2" d="M378,-564C378,-564 414,-564 414,-564 420,-564 426,-570 426,-576 426,-576 426,-594 426,-594 426,-600 420,-606 414,-606 414,-606 378,-606 378,-606 372,-606 366,-600 366,-594 366,-594 366,-576 366,-576 366,-570 372,-564 378,-564"/>
</g>
<g id="clust37" class="cluster">
<title>outer_cluster_Inst&#45;16</title>
</g>
<g id="clust38" class="cluster">
<title>cluster_Inst&#45;16</title>
<path fill="#bebada" stroke="black" stroke-dasharray="5,2" d="M84,-406C84,-406 120,-406 120,-406 126,-406 132,-412 132,-418 132,-418 132,-436 132,-436 132,-442 126,-448 120,-448 120,-448 84,-448 84,-448 78,-448 72,-442 72,-436 72,-436 72,-418 72,-418 72,-412 78,-406 84,-406"/>
</g>
<g id="clust40" class="cluster">
<title>outer_cluster_Inst&#45;17</title>
</g>
<g id="clust41" class="cluster">
<title>cluster_Inst&#45;17</title>
<path fill="#bebada" stroke="black" stroke-dasharray="5,2" d="M300,-564C300,-564 336,-564 336,-564 342,-564 348,-570 348,-576 348,-576 348,-594 348,-594 348,-600 342,-606 336,-606 336,-606 300,-606 300,-606 294,-606 288,-600 288,-594 288,-594 288,-576 288,-576 288,-570 294,-564 300,-564"/>
</g>
<g id="clust43" class="cluster">
<title>outer_cluster_Inst&#45;9</title>
</g>
<g id="clust44" class="cluster">
<title>cluster_Inst&#45;9</title>
<path fill="#bebada" stroke="black" stroke-dasharray="5,2" d="M75,-327C75,-327 111,-327 111,-327 117,-327 123,-333 123,-339 123,-339 123,-357 123,-357 123,-363 117,-369 111,-369 111,-369 75,-369 75,-369 69,-369 63,-363 63,-357 63,-357 63,-339 63,-339 63,-333 69,-327 75,-327"/>
</g>
<g id="clust46" class="cluster">
<title>outer_cluster_Inst&#45;7</title>
</g>
<g id="clust47" class="cluster">
<title>cluster_Inst&#45;7</title>
<path fill="#bebada" stroke="black" stroke-dasharray="5,2" d="M264,-722C264,-722 416,-722 416,-722 422,-722 428,-728 428,-734 428,-734 428,-752 428,-752 428,-758 422,-764 416,-764 416,-764 264,-764 264,-764 258,-764 252,-758 252,-752 252,-752 252,-734 252,-734 252,-728 258,-722 264,-722"/>
</g>
<g id="clust49" class="cluster">
<title>outer_cluster_Inst&#45;2</title>
</g>
<g id="clust50" class="cluster">
<title>cluster_Inst&#45;2</title>
<path fill="#bebada" stroke="black" stroke-dasharray="5,2" d="M463,-90C463,-90 503,-90 503,-90 509,-90 515,-96 515,-102 515,-102 515,-120 515,-120 515,-126 509,-132 503,-132 503,-132 463,-132 463,-132 457,-132 451,-126 451,-120 451,-120 451,-102 451,-102 451,-96 457,-90 463,-90"/>
</g>
<g id="clust52" class="cluster">
<title>outer_cluster_Inst&#45;3</title>
</g>
<g id="clust53" class="cluster">
<title>cluster_Inst&#45;3</title>
<path fill="#bebada" stroke="black" stroke-dasharray="5,2" d="M30,-248C30,-248 70,-248 70,-248 76,-248 82,-254 82,-260 82,-260 82,-278 82,-278 82,-284 76,-290 70,-290 70,-290 30,-290 30,-290 24,-290 18,-284 18,-278 18,-278 18,-260 18,-260 18,-254 24,-248 30,-248"/>
</g>
<g id="clust55" class="cluster">
<title>outer_cluster_Inst&#45;14</title>
</g>
<g id="clust56" class="cluster">
<title>cluster_Inst&#45;14</title>
<path fill="#bebada" stroke="black" stroke-dasharray="5,2" d="M251,-327C251,-327 287,-327 287,-327 293,-327 299,-333 299,-339 299,-339 299,-357 299,-357 299,-363 293,-369 287,-369 287,-369 251,-369 251,-369 245,-369 239,-363 239,-357 239,-357 239,-339 239,-339 239,-333 245,-327 251,-327"/>
</g>
<g id="clust58" class="cluster">
<title>outer_cluster_Inst&#45;6</title>
</g>
<g id="clust59" class="cluster">
<title>cluster_Inst&#45;6</title>
<path fill="#bebada" stroke="black" stroke-dasharray="5,2" d="M76,-485C76,-485 286,-485 286,-485 292,-485 298,-491 298,-497 298,-497 298,-515 298,-515 298,-521 292,-527 286,-527 286,-527 76,-527 76,-527 70,-527 64,-521 64,-515 64,-515 64,-497 64,-497 64,-491 70,-485 76,-485"/>
</g>
<g id="clust61" class="cluster">
<title>outer_cluster_Inst&#45;15</title>
</g>
<g id="clust62" class="cluster">
<title>cluster_Inst&#45;15</title>
<path fill="#bebada" stroke="black" stroke-dasharray="5,2" d="M251,-406C251,-406 287,-406 287,-406 293,-406 299,-412 299,-418 299,-418 299,-436 299,-436 299,-442 293,-448 287,-448 287,-448 251,-448 251,-448 245,-448 239,-442 239,-436 239,-436 239,-418 239,-418 239,-412 245,-406 251,-406"/>
</g>
<g id="clust64" class="cluster">
<title>outer_cluster_String&#45;3</title>
</g>
<g id="clust65" class="cluster">
<title>cluster_String&#45;3</title>
<path fill="#fb8072" stroke="black" stroke-dasharray="5,2" d="M464,-11C464,-11 504,-11 504,-11 510,-11 516,-17 516,-23 516,-23 516,-41 516,-41 516,-47 510,-53 504,-53 504,-53 464,-53 464,-53 458,-53 452,-47 452,-41 452,-41 452,-23 452,-23 452,-17 458,-11 464,-11"/>
</g>
<g id="clust67" class="cluster">
<title>outer_cluster_String&#45;1</title>
</g>
<g id="clust68" class="cluster">
<title>cluster_String&#45;1</title>
<path fill="#fb8072" stroke="black" stroke-dasharray="5,2" d="M295,-11C295,-11 335,-11 335,-11 341,-11 347,-17 347,-23 347,-23 347,-41 347,-41 347,-47 341,-53 335,-53 335,-53 295,-53 295,-53 289,-53 283,-47 283,-41 283,-41 283,-23 283,-23 283,-17 289,-11 295,-11"/>
</g>
<g id="clust70" class="cluster">
<title>outer_cluster_String&#45;4</title>
</g>
<g id="clust71" class="cluster">
<title>cluster_String&#45;4</title>
<path fill="#fb8072" stroke="black" stroke-dasharray="5,2" d="M23,-169C23,-169 63,-169 63,-169 69,-169 75,-175 75,-181 75,-181 75,-199 75,-199 75,-205 69,-211 63,-211 63,-211 23,-211 23,-211 17,-211 11,-205 11,-199 11,-199 11,-181 11,-181 11,-175 17,-169 23,-169"/>
</g>
<g id="clust73" class="cluster">
<title>outer_cluster_String&#45;2</title>
</g>
<g id="clust74" class="cluster">
<title>cluster_String&#45;2</title>
<path fill="#fb8072" stroke="black" stroke-dasharray="5,2" d="M146,-11C146,-11 186,-11 186,-11 192,-11 198,-17 198,-23 198,-23 198,-41 198,-41 198,-47 192,-53 186,-53 186,-53 146,-53 146,-53 140,-53 134,-47 134,-41 134,-41 134,-23 134,-23 134,-17 140,-11 146,-11"/>
</g>
<g id="clust76" class="cluster">
<title>outer_cluster_i64&#45;2147483648</title>
</g>
<g id="clust77" class="cluster">
<title>cluster_i64&#45;2147483648</title>
<path fill="#80b1d3" stroke="black" stroke-dasharray="5,2" d="M335,-169C335,-169 371,-169 371,-169 377,-169 383,-175 383,-181 383,-181 383,-199 383,-199 383,-205 377,-211 371,-211 371,-211 335,-211 335,-211 329,-211 323,-205 323,-199 323,-199 323,-181 323,-181 323,-175 329,-169 335,-169"/>
</g>
<!-- function&#45;0&#45;ImmVal&#45;&gt;primitive&#45;i64&#45;2147483648 -->
<g id="edge1" class="edge">
<title>function&#45;0&#45;ImmVal:s&#45;&gt;primitive&#45;i64&#45;2147483648</title>
<path fill="none" stroke="black" d="M351,-253C351,-239.83 351.46,-225.1 351.93,-213.3"/>
<polygon fill="black" stroke="black" points="353.42,-216.14 352.15,-211 349.94,-215.81 353.42,-216.14"/>
</g>
<!-- function&#45;1&#45;Or&#45;&gt;function&#45;0&#45;RegVal -->
<g id="edge2" class="edge">
<title>function&#45;1&#45;Or:s&#45;&gt;function&#45;0&#45;RegVal</title>
<path fill="none" stroke="black" d="M181,-174C181,-130.24 240.89,-117.29 280.29,-113.51"/>
<polygon fill="black" stroke="black" points="277.62,-116.03 282,-113.05 276.72,-112.65 277.62,-116.03"/>
</g>
<!-- function&#45;1&#45;Or&#45;&gt;function&#45;1&#45;RegVal -->
<g id="edge3" class="edge">
<title>function&#45;1&#45;Or:s&#45;&gt;function&#45;1&#45;RegVal</title>
<path fill="none" stroke="black" d="M197,-174C197,-159.46 189.96,-144.92 182.49,-133.58"/>
<polygon fill="black" stroke="black" points="185.5,-133.74 180.5,-132 183.33,-136.48 185.5,-133.74"/>
</g>
<!-- function&#45;0&#45;RegVal&#45;&gt;primitive&#45;String&#45;1 -->
<g id="edge12" class="edge">
<title>function&#45;0&#45;RegVal:s&#45;&gt;primitive&#45;String&#45;1</title>
<path fill="none" stroke="black" d="M315,-95C315,-81.84 315,-67.11 315,-55.3"/>
<polygon fill="black" stroke="black" points="316.75,-58 315,-53 313.25,-58 316.75,-58"/>
</g>
<!-- function&#45;1&#45;RegVal&#45;&gt;primitive&#45;String&#45;2 -->
<g id="edge15" class="edge">
<title>function&#45;1&#45;RegVal:s&#45;&gt;primitive&#45;String&#45;2</title>
<path fill="none" stroke="black" d="M166,-95C166,-81.84 166,-67.11 166,-55.3"/>
<polygon fill="black" stroke="black" points="167.75,-58 166,-53 164.25,-58 167.75,-58"/>
</g>
<!-- function&#45;1&#45;Xori&#45;&gt;function&#45;0&#45;ImmVal -->
<g id="edge5" class="edge">
<title>function&#45;1&#45;Xori:s&#45;&gt;function&#45;0&#45;ImmVal</title>
<path fill="none" stroke="black" d="M357,-648C357,-585.33 357,-569.67 357,-507 357,-507 357,-507 357,-426 357,-378.54 354.19,-323.02 352.42,-292.67"/>
<polygon fill="black" stroke="black" points="354.43,-294.76 352.1,-290 350.95,-295.17 354.43,-294.76"/>
</g>
<!-- function&#45;1&#45;Xori&#45;&gt;function&#45;3&#45;And -->
<g id="edge4" class="edge">
<title>function&#45;1&#45;Xori:s&#45;&gt;function&#45;3&#45;And</title>
<path fill="none" stroke="black" d="M339,-648C339,-634.18 334.26,-619.49 329.28,-607.89"/>
<polygon fill="black" stroke="black" points="332.22,-609.39 328.15,-606 329.22,-611.19 332.22,-609.39"/>
</g>
<!-- function&#45;3&#45;And&#45;&gt;function&#45;0&#45;RegVal -->
<g id="edge28" class="edge">
<title>function&#45;3&#45;And:s&#45;&gt;function&#45;0&#45;RegVal</title>
<path fill="none" stroke="black" d="M309,-569C309,-505.32 377.36,-356.09 386,-293 388.89,-271.86 386.27,-266.33 386,-245 385.56,-209.88 399.89,-197.32 384,-166 376.01,-150.25 361.05,-137.74 347.01,-128.75"/>
<polygon fill="black" stroke="black" points="351.13,-129.4 346,-128.07 349.18,-132.31 351.13,-129.4"/>
</g>
<!-- function&#45;3&#45;And&#45;&gt;function&#45;0&#45;Or -->
<g id="edge29" class="edge">
<title>function&#45;3&#45;And:s&#45;&gt;function&#45;0&#45;Or</title>
<path fill="none" stroke="black" d="M327,-569C327,-523.28 166.85,-548.41 125,-530 124.63,-529.84 124.26,-529.67 123.89,-529.49"/>
<polygon fill="black" stroke="black" points="124.35,-527.76 119.1,-527 122.73,-530.86 124.35,-527.76"/>
</g>
<!-- function&#45;0&#45;Sub&#45;&gt;function&#45;0&#45;RegVal -->
<g id="edge6" class="edge">
<title>function&#45;0&#45;Sub:s&#45;&gt;function&#45;0&#45;RegVal</title>
<path fill="none" stroke="black" d="M465,-174C465,-123.65 392.28,-113.33 347.77,-111.72"/>
<polygon fill="black" stroke="black" points="351.13,-110.25 346,-111.57 350.84,-113.73 351.13,-110.25"/>
</g>
<!-- function&#45;0&#45;Sub&#45;&gt;function&#45;2&#45;RegVal -->
<g id="edge7" class="edge">
<title>function&#45;0&#45;Sub:s&#45;&gt;function&#45;2&#45;RegVal</title>
<path fill="none" stroke="black" d="M483,-174C483,-160.84 483,-146.11 483,-134.3"/>
<polygon fill="black" stroke="black" points="484.75,-137 483,-132 481.25,-137 484.75,-137"/>
</g>
<!-- function&#45;2&#45;RegVal&#45;&gt;primitive&#45;String&#45;3 -->
<g id="edge38" class="edge">
<title>function&#45;2&#45;RegVal:s&#45;&gt;primitive&#45;String&#45;3</title>
<path fill="none" stroke="black" d="M484,-95C484,-81.84 484,-67.11 484,-55.3"/>
<polygon fill="black" stroke="black" points="485.75,-58 484,-53 482.25,-58 485.75,-58"/>
</g>
<!-- function&#45;1&#45;Xor&#45;&gt;function&#45;0&#45;And -->
<g id="edge8" class="edge">
<title>function&#45;1&#45;Xor:s&#45;&gt;function&#45;0&#45;And</title>
<path fill="none" stroke="black" d="M163,-332C163,-318.53 165.98,-303.75 169.08,-292.01"/>
<polygon fill="black" stroke="black" points="169.11,-295.13 170.41,-290 166.19,-293.2 169.11,-295.13"/>
</g>
<!-- function&#45;1&#45;Xor&#45;&gt;function&#45;3&#45;RegVal -->
<g id="edge9" class="edge">
<title>function&#45;1&#45;Xor:s&#45;&gt;function&#45;3&#45;RegVal</title>
<path fill="none" stroke="black" d="M180,-332C180,-287.18 126.83,-313.56 87,-293 86.66,-292.82 86.31,-292.64 85.96,-292.46"/>
<polygon fill="black" stroke="black" points="86.65,-290.84 81.42,-290 84.98,-293.92 86.65,-290.84"/>
</g>
<!-- function&#45;0&#45;And&#45;&gt;function&#45;0&#45;RegVal -->
<g id="edge20" class="edge">
<title>function&#45;0&#45;And:s&#45;&gt;function&#45;0&#45;RegVal</title>
<path fill="none" stroke="black" d="M167,-253C167,-192.68 257.12,-259.26 297,-214 307.18,-202.45 311.35,-160.57 312.99,-134.2"/>
<polygon fill="black" stroke="black" points="314.36,-137.19 313.29,-132 310.89,-136.72 314.36,-137.19"/>
</g>
<!-- function&#45;0&#45;And&#45;&gt;function&#45;1&#45;RegVal -->
<g id="edge21" class="edge">
<title>function&#45;0&#45;And:s&#45;&gt;function&#45;1&#45;RegVal</title>
<path fill="none" stroke="black" d="M185,-253C185,-208.18 116.82,-251.32 92,-214 80.19,-196.24 82.4,-185.05 92,-166 100.42,-149.29 116.74,-136.46 131.81,-127.51"/>
<polygon fill="black" stroke="black" points="131.49,-130.94 133,-125.86 128.65,-128.89 131.49,-130.94"/>
</g>
<!-- function&#45;3&#45;RegVal&#45;&gt;primitive&#45;String&#45;4 -->
<g id="edge39" class="edge">
<title>function&#45;3&#45;RegVal:s&#45;&gt;primitive&#45;String&#45;4</title>
<path fill="none" stroke="black" d="M51,-253C51,-239.73 49.17,-224.99 47.27,-213.22"/>
<polygon fill="black" stroke="black" points="49.86,-215.01 46.39,-211 46.6,-216.29 49.86,-215.01"/>
</g>
<!-- function&#45;5&#45;And&#45;&gt;function&#45;0&#45;RegVal -->
<g id="edge11" class="edge">
<title>function&#45;5&#45;And:s&#45;&gt;function&#45;0&#45;RegVal</title>
<path fill="none" stroke="black" d="M261,-569C261,-544.8 288.91,-552 299,-530 317.98,-488.64 308,-473.51 308,-428 308,-428 308,-428 308,-347 308,-268.72 311.37,-175.83 313.06,-134.16"/>
<polygon fill="black" stroke="black" points="314.53,-137.14 313.26,-132 311.04,-136.81 314.53,-137.14"/>
</g>
<!-- function&#45;5&#45;And&#45;&gt;function&#45;0&#45;Add -->
<g id="edge10" class="edge">
<title>function&#45;5&#45;And:s&#45;&gt;function&#45;0&#45;Add</title>
<path fill="none" stroke="black" d="M243,-569C243,-554.86 248.66,-540.14 254.6,-528.59"/>
<polygon fill="black" stroke="black" points="254.03,-531.93 255.96,-527 251.38,-529.65 254.03,-531.93"/>
</g>
<!-- function&#45;0&#45;Add&#45;&gt;function&#45;0&#45;And -->
<g id="edge43" class="edge">
<title>function&#45;0&#45;Add:s&#45;&gt;function&#45;0&#45;And</title>
<path fill="none" stroke="black" d="M277,-490C277,-465.49 250.41,-472.14 238,-451 208.3,-400.4 222.8,-378.86 202,-324 197.88,-313.13 192.4,-301.46 187.54,-291.77"/>
<polygon fill="black" stroke="black" points="190.61,-292.94 186.21,-290 187.82,-295.05 190.61,-292.94"/>
</g>
<!-- function&#45;0&#45;Add&#45;&gt;function&#45;2&#45;And -->
<g id="edge42" class="edge">
<title>function&#45;0&#45;Add:s&#45;&gt;function&#45;2&#45;And</title>
<path fill="none" stroke="black" d="M259,-490C259,-476.76 261.25,-462.14 263.61,-450.42"/>
<polygon fill="black" stroke="black" points="264.25,-453.28 264.7,-448 261.05,-451.84 264.25,-453.28"/>
</g>
<!-- function&#45;3&#45;Xor&#45;&gt;function&#45;0&#45;RegVal -->
<g id="edge13" class="edge">
<title>function&#45;3&#45;Xor:s&#45;&gt;function&#45;0&#45;RegVal</title>
<path fill="none" stroke="black" d="M247,-174C247,-153.72 263.74,-138.22 280.49,-127.79"/>
<polygon fill="black" stroke="black" points="280.13,-130.94 282,-125.99 277.45,-128.7 280.13,-130.94"/>
</g>
<!-- function&#45;3&#45;Xor&#45;&gt;function&#45;1&#45;RegVal -->
<g id="edge14" class="edge">
<title>function&#45;3&#45;Xor:s&#45;&gt;function&#45;1&#45;RegVal</title>
<path fill="none" stroke="black" d="M264,-174C264,-142.37 227.25,-126.27 198.53,-118.51"/>
<polygon fill="black" stroke="black" points="201.97,-119.08 197,-117.25 199.74,-121.78 201.97,-119.08"/>
</g>
<!-- function&#45;2&#45;Sub&#45;&gt;function&#45;0&#45;RegVal -->
<g id="edge16" class="edge">
<title>function&#45;2&#45;Sub:s&#45;&gt;function&#45;0&#45;RegVal</title>
<path fill="none" stroke="black" d="M109,-253C109,-172.45 227.61,-269.49 286,-214 288.96,-211.19 301.3,-163.12 308.58,-133.99"/>
<polygon fill="black" stroke="black" points="308.69,-137.18 309.78,-132 305.69,-135.37 308.69,-137.18"/>
</g>
<!-- function&#45;2&#45;Sub&#45;&gt;function&#45;1&#45;Sub -->
<g id="edge17" class="edge">
<title>function&#45;2&#45;Sub:s&#45;&gt;function&#45;1&#45;Sub</title>
<path fill="none" stroke="black" d="M127,-253C127,-239.81 126.09,-225.08 125.13,-213.28"/>
<polygon fill="black" stroke="black" points="127.36,-215.58 124.7,-211 123.92,-216.24 127.36,-215.58"/>
</g>
<!-- function&#45;1&#45;Sub&#45;&gt;function&#45;1&#45;Or -->
<g id="edge22" class="edge">
<title>function&#45;1&#45;Sub:s&#45;&gt;function&#45;1&#45;Or</title>
<path fill="none" stroke="black" d="M114,-174C114,-154.19 136.85,-160.72 157.15,-170.77"/>
<polygon fill="black" stroke="black" points="153.92,-170.6 159,-172.1 155.96,-167.76 153.92,-170.6"/>
</g>
<!-- function&#45;1&#45;Sub&#45;&gt;function&#45;1&#45;RegVal -->
<g id="edge23" class="edge">
<title>function&#45;1&#45;Sub:s&#45;&gt;function&#45;1&#45;RegVal</title>
<path fill="none" stroke="black" d="M132,-174C132,-159.36 139.26,-144.81 146.97,-133.5"/>
<polygon fill="black" stroke="black" points="146.54,-137.08 148.04,-132 143.7,-135.03 146.54,-137.08"/>
</g>
<!-- function&#45;4&#45;Xor&#45;&gt;function&#45;1&#45;Or -->
<g id="edge18" class="edge">
<title>function&#45;4&#45;Xor:s&#45;&gt;function&#45;1&#45;Or</title>
<path fill="none" stroke="black" d="M226,-253C226,-237.93 217.84,-223.34 209.18,-212.1"/>
<polygon fill="black" stroke="black" points="212.85,-213.1 207.98,-211 210.48,-215.67 212.85,-213.1"/>
</g>
<!-- function&#45;4&#45;Xor&#45;&gt;function&#45;3&#45;Xor -->
<g id="edge19" class="edge">
<title>function&#45;4&#45;Xor:s&#45;&gt;function&#45;3&#45;Xor</title>
<path fill="none" stroke="black" d="M243,-253C243,-239.69 245.7,-225.06 248.54,-213.36"/>
<polygon fill="black" stroke="black" points="248.95,-216.22 249.84,-211 245.89,-214.53 248.95,-216.22"/>
</g>
<!-- function&#45;2&#45;Or&#45;&gt;function&#45;0&#45;RegVal -->
<g id="edge25" class="edge">
<title>function&#45;2&#45;Or:s&#45;&gt;function&#45;0&#45;RegVal</title>
<path fill="none" stroke="black" d="M404,-569C404,-506.33 404,-490.67 404,-428 404,-428 404,-428 404,-268 404,-222.3 414.61,-205.13 391,-166 380.82,-149.13 363.13,-136.17 347.27,-127.18"/>
<polygon fill="black" stroke="black" points="350.63,-128.32 346,-125.75 348.02,-130.64 350.63,-128.32"/>
</g>
<!-- function&#45;2&#45;Or&#45;&gt;function&#45;2&#45;Xor -->
<g id="edge24" class="edge">
<title>function&#45;2&#45;Or:s&#45;&gt;function&#45;2&#45;Xor</title>
<path fill="none" stroke="black" d="M388,-569C388,-501.41 301.9,-559.33 241,-530 240.65,-529.83 240.3,-529.66 239.95,-529.48"/>
<polygon fill="black" stroke="black" points="240.66,-527.88 235.44,-527 238.98,-530.94 240.66,-527.88"/>
</g>
<!-- function&#45;2&#45;Xor&#45;&gt;function&#45;1&#45;Xor -->
<g id="edge46" class="edge">
<title>function&#45;2&#45;Xor:s&#45;&gt;function&#45;1&#45;Xor</title>
<path fill="none" stroke="black" d="M202,-490C202,-447.06 188.11,-398.44 178.93,-370.97"/>
<polygon fill="black" stroke="black" points="181.83,-371.71 177.27,-369 179.15,-373.96 181.83,-371.71"/>
</g>
<!-- function&#45;2&#45;Xor&#45;&gt;function&#45;1&#45;And -->
<g id="edge47" class="edge">
<title>function&#45;2&#45;Xor:s&#45;&gt;function&#45;1&#45;And</title>
<path fill="none" stroke="black" d="M219,-490C219,-459.91 154.39,-400.61 117.7,-369.37"/>
<polygon fill="black" stroke="black" points="122.1,-369.27 116.81,-369 120.77,-372.51 122.1,-369.27"/>
</g>
<!-- function&#45;3&#45;Sub&#45;&gt;function&#45;3&#45;RegVal -->
<g id="edge27" class="edge">
<title>function&#45;3&#45;Sub:s&#45;&gt;function&#45;3&#45;RegVal</title>
<path fill="none" stroke="black" d="M111,-411C111,-383.17 75.54,-396.32 62,-372 48.25,-347.3 46.93,-314.06 47.92,-292.34"/>
<polygon fill="black" stroke="black" points="49.32,-295.18 48.21,-290 45.85,-294.74 49.32,-295.18"/>
</g>
<!-- function&#45;3&#45;Sub&#45;&gt;function&#45;1&#45;And -->
<g id="edge26" class="edge">
<title>function&#45;3&#45;Sub:s&#45;&gt;function&#45;1&#45;And</title>
<path fill="none" stroke="black" d="M93,-411C93,-397.84 93,-383.11 93,-371.3"/>
<polygon fill="black" stroke="black" points="94.75,-374 93,-369 91.25,-374 94.75,-374"/>
</g>
<!-- function&#45;1&#45;And&#45;&gt;function&#45;3&#45;RegVal -->
<g id="edge31" class="edge">
<title>function&#45;1&#45;And:s&#45;&gt;function&#45;3&#45;RegVal</title>
<path fill="none" stroke="black" d="M102,-332C102,-315.59 91.18,-301.25 79.4,-290.5"/>
<polygon fill="black" stroke="black" points="83.65,-290.66 78.39,-290 82.09,-293.8 83.65,-290.66"/>
</g>
<!-- function&#45;1&#45;And&#45;&gt;function&#45;2&#45;Sub -->
<g id="edge30" class="edge">
<title>function&#45;1&#45;And:s&#45;&gt;function&#45;2&#45;Sub</title>
<path fill="none" stroke="black" d="M84,-332C84,-317.26 91.48,-302.71 99.42,-291.41"/>
<polygon fill="black" stroke="black" points="98.75,-294.97 100.59,-290 96.05,-292.73 98.75,-294.97"/>
</g>
<!-- function&#45;0&#45;Or&#45;&gt;function&#45;3&#45;RegVal -->
<g id="edge49" class="edge">
<title>function&#45;0&#45;Or:s&#45;&gt;function&#45;3&#45;RegVal</title>
<path fill="none" stroke="black" d="M102,-490C102,-467.86 80.83,-470.84 71,-451 54.93,-418.54 55.65,-407.92 51,-372 47.45,-344.64 47.85,-312.8 48.71,-292.07"/>
<polygon fill="black" stroke="black" points="50.13,-295.16 48.94,-290 46.65,-294.78 50.13,-295.16"/>
</g>
<!-- function&#45;0&#45;Or&#45;&gt;function&#45;4&#45;Xor -->
<g id="edge48" class="edge">
<title>function&#45;0&#45;Or:s&#45;&gt;function&#45;4&#45;Xor</title>
<path fill="none" stroke="black" d="M86,-490C86,-462.86 113.57,-469.95 133,-451 166.38,-418.46 179.2,-412.66 202,-372 216.37,-346.37 225.2,-313.43 229.85,-292.03"/>
<polygon fill="black" stroke="black" points="230.17,-295.25 230.89,-290 227.06,-293.65 230.17,-295.25"/>
</g>
<!-- function&#45;5&#45;Sub&#45;&gt;function&#45;5&#45;And -->
<g id="edge33" class="edge">
<title>function&#45;5&#45;Sub:s&#45;&gt;function&#45;5&#45;And</title>
<path fill="none" stroke="black" d="M291,-727C291,-683.72 273.72,-635.59 262.17,-608.24"/>
<polygon fill="black" stroke="black" points="264.84,-609.73 261.08,-606 261.69,-611.26 264.84,-609.73"/>
</g>
<!-- function&#45;5&#45;Sub&#45;&gt;function&#45;2&#45;Or -->
<g id="edge32" class="edge">
<title>function&#45;5&#45;Sub:s&#45;&gt;function&#45;2&#45;Or</title>
<path fill="none" stroke="black" d="M273,-727C273,-676.8 346.98,-726.66 379,-688 397.45,-665.73 399.41,-631.1 398.33,-608.48"/>
<polygon fill="black" stroke="black" points="400.38,-610.74 398.02,-606 396.9,-611.18 400.38,-610.74"/>
</g>
<!-- function&#45;0&#45;Xor&#45;&gt;function&#45;0&#45;RegVal -->
<g id="edge34" class="edge">
<title>function&#45;0&#45;Xor:s&#45;&gt;function&#45;0&#45;RegVal</title>
<path fill="none" stroke="black" d="M332,-727C332,-695.57 370.58,-711.9 391,-688 423.08,-650.47 435,-635.37 435,-586 435,-586 435,-586 435,-268 435,-220.35 431.46,-203.45 402,-166 387.8,-147.95 365.76,-134.44 347.3,-125.45"/>
<polygon fill="black" stroke="black" points="350.87,-126.34 346,-124.26 348.51,-128.93 350.87,-126.34"/>
</g>
<!-- function&#45;0&#45;Xor&#45;&gt;function&#45;0&#45;Or -->
<g id="edge35" class="edge">
<title>function&#45;0&#45;Xor:s&#45;&gt;function&#45;0&#45;Or</title>
<path fill="none" stroke="black" d="M349,-727C349,-711.98 184.7,-579.33 119.87,-527.56"/>
<polygon fill="black" stroke="black" points="124,-527.67 118.74,-527 122.43,-530.8 124,-527.67"/>
</g>
<!-- function&#45;4&#45;And&#45;&gt;function&#45;1&#45;Xori -->
<g id="edge36" class="edge">
<title>function&#45;4&#45;And:s&#45;&gt;function&#45;1&#45;Xori</title>
<path fill="none" stroke="black" d="M389,-727C389,-711.6 380.09,-697.08 370.58,-685.97"/>
<polygon fill="black" stroke="black" points="374.21,-686.23 369.06,-685 372.32,-689.17 374.21,-686.23"/>
</g>
<!-- function&#45;4&#45;And&#45;&gt;function&#45;2&#45;Or -->
<g id="edge37" class="edge">
<title>function&#45;4&#45;And:s&#45;&gt;function&#45;2&#45;Or</title>
<path fill="none" stroke="black" d="M407,-727C407,-685.11 402.11,-636.42 398.85,-608.61"/>
<polygon fill="black" stroke="black" points="401.1,-610.45 398.23,-606 397.7,-611.27 401.1,-610.45"/>
</g>
<!-- function&#45;0&#45;Xori&#45;&gt;function&#45;0&#45;ImmVal -->
<g id="edge41" class="edge">
<title>function&#45;0&#45;Xori:s&#45;&gt;function&#45;0&#45;ImmVal</title>
<path fill="none" stroke="black" d="M278,-332C278,-310.54 296.55,-294.96 314.95,-284.78"/>
<polygon fill="black" stroke="black" points="313.96,-287.65 317,-283.31 311.92,-284.81 313.96,-287.65"/>
</g>
<!-- function&#45;0&#45;Xori&#45;&gt;function&#45;4&#45;Xor -->
<g id="edge40" class="edge">
<title>function&#45;0&#45;Xori:s&#45;&gt;function&#45;4&#45;Xor</title>
<path fill="none" stroke="black" d="M260,-332C260,-317.78 254.11,-303.05 247.94,-291.52"/>
<polygon fill="black" stroke="black" points="251.2,-292.4 246.48,-290 248.68,-294.82 251.2,-292.4"/>
</g>
<!-- function&#45;2&#45;And&#45;&gt;function&#45;3&#45;RegVal -->
<g id="edge50" class="edge">
<title>function&#45;2&#45;And:s&#45;&gt;function&#45;3&#45;RegVal</title>
<path fill="none" stroke="black" d="M260,-411C260,-354.92 179.8,-411.5 140,-372 124.04,-356.16 137.27,-342.16 124,-324 117.86,-315.6 98.65,-301.67 81.34,-290.06"/>
<polygon fill="black" stroke="black" points="86.21,-289.12 80.99,-290 85.62,-292.57 86.21,-289.12"/>
</g>
<!-- function&#45;2&#45;And&#45;&gt;function&#45;0&#45;Xori -->
<g id="edge51" class="edge">
<title>function&#45;2&#45;And:s&#45;&gt;function&#45;0&#45;Xori</title>
<path fill="none" stroke="black" d="M278,-411C278,-397.7 275.95,-382.96 273.8,-371.19"/>
<polygon fill="black" stroke="black" points="276.46,-372.84 272.82,-369 273.27,-374.28 276.46,-372.84"/>
</g>
<!-- function&#45;4&#45;Sub&#45;&gt;function&#45;4&#45;Xor -->
<g id="edge44" class="edge">
<title>function&#45;4&#45;Sub:s&#45;&gt;function&#45;4&#45;Xor</title>
<path fill="none" stroke="black" d="M143,-490C143,-461.47 178.43,-474.92 194,-451 226.54,-401 232.93,-328.5 233.98,-292.31"/>
<polygon fill="black" stroke="black" points="235.59,-295.08 234.1,-290 232.09,-294.9 235.59,-295.08"/>
</g>
<!-- function&#45;4&#45;Sub&#45;&gt;function&#45;3&#45;Sub -->
<g id="edge45" class="edge">
<title>function&#45;4&#45;Sub:s&#45;&gt;function&#45;3&#45;Sub</title>
<path fill="none" stroke="black" d="M161,-490C161,-471.82 147.52,-456.86 133.45,-446.19"/>
<polygon fill="black" stroke="black" points="136.99,-446.79 132,-445.02 134.79,-449.52 136.99,-446.79"/>
</g>
<!-- function&#45;0&#45;ImmVal -->
<g id="node1" class="node">
<title>function&#45;0&#45;ImmVal</title>
<g id="a_node1"><a xlink:title="Imm&#45;13: function&#45;0&#45;ImmVal">
<path fill="white" stroke="transparent" d="M330.67,-253C330.67,-253 371.33,-253 371.33,-253 376.67,-253 382,-258.33 382,-263.67 382,-263.67 382,-274.33 382,-274.33 382,-279.67 376.67,-285 371.33,-285 371.33,-285 330.67,-285 330.67,-285 325.33,-285 320,-279.67 320,-274.33 320,-274.33 320,-263.67 320,-263.67 320,-258.33 325.33,-253 330.67,-253"/>
<text text-anchor="start" x="325" y="-265.3" font-family="Helvetica,sans-Serif" font-size="14.00">ImmVal</text>
<path fill="none" stroke="black" d="M330.67,-253C330.67,-253 371.33,-253 371.33,-253 376.67,-253 382,-258.33 382,-263.67 382,-263.67 382,-274.33 382,-274.33 382,-279.67 376.67,-285 371.33,-285 371.33,-285 330.67,-285 330.67,-285 325.33,-285 320,-279.67 320,-274.33 320,-274.33 320,-263.67 320,-263.67 320,-258.33 325.33,-253 330.67,-253"/>
</a>
</g>
</g>
<!-- primitive&#45;i64&#45;2147483648 -->
<g id="node2" class="node">
<title>primitive&#45;i64&#45;2147483648</title>
<g id="a_node2"><a xlink:title="i64&#45;2147483648: primitive&#45;i64&#45;2147483648">
<path fill="white" stroke="transparent" d="M347.67,-174C347.67,-174 358.33,-174 358.33,-174 363.67,-174 369,-179.33 369,-184.67 369,-184.67 369,-195.33 369,-195.33 369,-200.67 363.67,-206 358.33,-206 358.33,-206 347.67,-206 347.67,-206 342.33,-206 337,-200.67 337,-195.33 337,-195.33 337,-184.67 337,-184.67 337,-179.33 342.33,-174 347.67,-174"/>
<text text-anchor="start" x="345.5" y="-186.3" font-family="Helvetica,sans-Serif" font-size="14.00">&#45;1</text>
<path fill="none" stroke="black" d="M347.67,-174C347.67,-174 358.33,-174 358.33,-174 363.67,-174 369,-179.33 369,-184.67 369,-184.67 369,-195.33 369,-195.33 369,-200.67 363.67,-206 358.33,-206 358.33,-206 347.67,-206 347.67,-206 342.33,-206 337,-200.67 337,-195.33 337,-195.33 337,-184.67 337,-184.67 337,-179.33 342.33,-174 347.67,-174"/>
</a>
</g>
</g>
<!-- function&#45;1&#45;Or -->
<g id="node3" class="node">
<title>function&#45;1&#45;Or</title>
<g id="a_node3"><a xlink:title="Inst&#45;10: function&#45;1&#45;Or">
<path fill="white" stroke="transparent" d="M183.67,-174C183.67,-174 194.33,-174 194.33,-174 199.67,-174 205,-179.33 205,-184.67 205,-184.67 205,-195.33 205,-195.33 205,-200.67 199.67,-206 194.33,-206 194.33,-206 183.67,-206 183.67,-206 178.33,-206 173,-200.67 173,-195.33 173,-195.33 173,-184.67 173,-184.67 173,-179.33 178.33,-174 183.67,-174"/>
<text text-anchor="start" x="180" y="-186.3" font-family="Helvetica,sans-Serif" font-size="14.00">Or</text>
<path fill="none" stroke="black" d="M183.67,-174C183.67,-174 194.33,-174 194.33,-174 199.67,-174 205,-179.33 205,-184.67 205,-184.67 205,-195.33 205,-195.33 205,-200.67 199.67,-206 194.33,-206 194.33,-206 183.67,-206 183.67,-206 178.33,-206 173,-200.67 173,-195.33 173,-195.33 173,-184.67 173,-184.67 173,-179.33 178.33,-174 183.67,-174"/>
</a>
</g>
</g>
<!-- function&#45;0&#45;RegVal -->
<g id="node4" class="node">
<title>function&#45;0&#45;RegVal</title>
<g id="a_node4"><a xlink:title="Inst&#45;0: function&#45;0&#45;RegVal">
<path fill="white" stroke="transparent" d="M296.17,-95C296.17,-95 331.83,-95 331.83,-95 337.17,-95 342.5,-100.33 342.5,-105.67 342.5,-105.67 342.5,-116.33 342.5,-116.33 342.5,-121.67 337.17,-127 331.83,-127 331.83,-127 296.17,-127 296.17,-127 290.83,-127 285.5,-121.67 285.5,-116.33 285.5,-116.33 285.5,-105.67 285.5,-105.67 285.5,-100.33 290.83,-95 296.17,-95"/>
<text text-anchor="start" x="291" y="-107.3" font-family="Helvetica,sans-Serif" font-size="14.00">RegVal</text>
<path fill="none" stroke="black" d="M296.17,-95C296.17,-95 331.83,-95 331.83,-95 337.17,-95 342.5,-100.33 342.5,-105.67 342.5,-105.67 342.5,-116.33 342.5,-116.33 342.5,-121.67 337.17,-127 331.83,-127 331.83,-127 296.17,-127 296.17,-127 290.83,-127 285.5,-121.67 285.5,-116.33 285.5,-116.33 285.5,-105.67 285.5,-105.67 285.5,-100.33 290.83,-95 296.17,-95"/>
</a>
</g>
</g>
<!-- function&#45;1&#45;RegVal -->
<g id="node5" class="node">
<title>function&#45;1&#45;RegVal</title>
<g id="a_node5"><a xlink:title="Inst&#45;1: function&#45;1&#45;RegVal">
<path fill="white" stroke="transparent" d="M147.17,-95C147.17,-95 182.83,-95 182.83,-95 188.17,-95 193.5,-100.33 193.5,-105.67 193.5,-105.67 193.5,-116.33 193.5,-116.33 193.5,-121.67 188.17,-127 182.83,-127 182.83,-127 147.17,-127 147.17,-127 141.83,-127 136.5,-121.67 136.5,-116.33 136.5,-116.33 136.5,-105.67 136.5,-105.67 136.5,-100.33 141.83,-95 147.17,-95"/>
<text text-anchor="start" x="142" y="-107.3" font-family="Helvetica,sans-Serif" font-size="14.00">RegVal</text>
<path fill="none" stroke="black" d="M147.17,-95C147.17,-95 182.83,-95 182.83,-95 188.17,-95 193.5,-100.33 193.5,-105.67 193.5,-105.67 193.5,-116.33 193.5,-116.33 193.5,-121.67 188.17,-127 182.83,-127 182.83,-127 147.17,-127 147.17,-127 141.83,-127 136.5,-121.67 136.5,-116.33 136.5,-116.33 136.5,-105.67 136.5,-105.67 136.5,-100.33 141.83,-95 147.17,-95"/>
</a>
</g>
</g>
<!-- function&#45;1&#45;Xori -->
<g id="node6" class="node">
<title>function&#45;1&#45;Xori</title>
<g id="a_node6"><a xlink:title="Inst&#45;18: function&#45;1&#45;Xori">
<path fill="white" stroke="transparent" d="M339.67,-648C339.67,-648 356.33,-648 356.33,-648 361.67,-648 367,-653.33 367,-658.67 367,-658.67 367,-669.33 367,-669.33 367,-674.67 361.67,-680 356.33,-680 356.33,-680 339.67,-680 339.67,-680 334.33,-680 329,-674.67 329,-669.33 329,-669.33 329,-658.67 329,-658.67 329,-653.33 334.33,-648 339.67,-648"/>
<text text-anchor="start" x="334" y="-660.3" font-family="Helvetica,sans-Serif" font-size="14.00">Xori</text>
<path fill="none" stroke="black" d="M339.67,-648C339.67,-648 356.33,-648 356.33,-648 361.67,-648 367,-653.33 367,-658.67 367,-658.67 367,-669.33 367,-669.33 367,-674.67 361.67,-680 356.33,-680 356.33,-680 339.67,-680 339.67,-680 334.33,-680 329,-674.67 329,-669.33 329,-669.33 329,-658.67 329,-658.67 329,-653.33 334.33,-648 339.67,-648"/>
</a>
</g>
</g>
<!-- function&#45;3&#45;And -->
<g id="node7" class="node">
<title>function&#45;3&#45;And</title>
<g id="a_node7"><a xlink:title="Inst&#45;17: function&#45;3&#45;And">
<path fill="white" stroke="transparent" d="M309.67,-569C309.67,-569 326.33,-569 326.33,-569 331.67,-569 337,-574.33 337,-579.67 337,-579.67 337,-590.33 337,-590.33 337,-595.67 331.67,-601 326.33,-601 326.33,-601 309.67,-601 309.67,-601 304.33,-601 299,-595.67 299,-590.33 299,-590.33 299,-579.67 299,-579.67 299,-574.33 304.33,-569 309.67,-569"/>
<text text-anchor="start" x="304" y="-581.3" font-family="Helvetica,sans-Serif" font-size="14.00">And</text>
<path fill="none" stroke="black" d="M309.67,-569C309.67,-569 326.33,-569 326.33,-569 331.67,-569 337,-574.33 337,-579.67 337,-579.67 337,-590.33 337,-590.33 337,-595.67 331.67,-601 326.33,-601 326.33,-601 309.67,-601 309.67,-601 304.33,-601 299,-595.67 299,-590.33 299,-590.33 299,-579.67 299,-579.67 299,-574.33 304.33,-569 309.67,-569"/>
</a>
</g>
</g>
<!-- function&#45;0&#45;Sub -->
<g id="node8" class="node">
<title>function&#45;0&#45;Sub</title>
<g id="a_node8"><a xlink:title="Inst&#45;5: function&#45;0&#45;Sub">
<path fill="white" stroke="transparent" d="M465.67,-174C465.67,-174 482.33,-174 482.33,-174 487.67,-174 493,-179.33 493,-184.67 493,-184.67 493,-195.33 493,-195.33 493,-200.67 487.67,-206 482.33,-206 482.33,-206 465.67,-206 465.67,-206 460.33,-206 455,-200.67 455,-195.33 455,-195.33 455,-184.67 455,-184.67 455,-179.33 460.33,-174 465.67,-174"/>
<text text-anchor="start" x="460" y="-186.3" font-family="Helvetica,sans-Serif" font-size="14.00">Sub</text>
<path fill="none" stroke="black" d="M465.67,-174C465.67,-174 482.33,-174 482.33,-174 487.67,-174 493,-179.33 493,-184.67 493,-184.67 493,-195.33 493,-195.33 493,-200.67 487.67,-206 482.33,-206 482.33,-206 465.67,-206 465.67,-206 460.33,-206 455,-200.67 455,-195.33 455,-195.33 455,-184.67 455,-184.67 455,-179.33 460.33,-174 465.67,-174"/>
</a>
</g>
</g>
<!-- function&#45;2&#45;RegVal -->
<g id="node9" class="node">
<title>function&#45;2&#45;RegVal</title>
<g id="a_node9"><a xlink:title="Inst&#45;2: function&#45;2&#45;RegVal">
<path fill="white" stroke="transparent" d="M465.17,-95C465.17,-95 500.83,-95 500.83,-95 506.17,-95 511.5,-100.33 511.5,-105.67 511.5,-105.67 511.5,-116.33 511.5,-116.33 511.5,-121.67 506.17,-127 500.83,-127 500.83,-127 465.17,-127 465.17,-127 459.83,-127 454.5,-121.67 454.5,-116.33 454.5,-116.33 454.5,-105.67 454.5,-105.67 454.5,-100.33 459.83,-95 465.17,-95"/>
<text text-anchor="start" x="460" y="-107.3" font-family="Helvetica,sans-Serif" font-size="14.00">RegVal</text>
<path fill="none" stroke="black" d="M465.17,-95C465.17,-95 500.83,-95 500.83,-95 506.17,-95 511.5,-100.33 511.5,-105.67 511.5,-105.67 511.5,-116.33 511.5,-116.33 511.5,-121.67 506.17,-127 500.83,-127 500.83,-127 465.17,-127 465.17,-127 459.83,-127 454.5,-121.67 454.5,-116.33 454.5,-116.33 454.5,-105.67 454.5,-105.67 454.5,-100.33 459.83,-95 465.17,-95"/>
</a>
</g>
</g>
<!-- function&#45;1&#45;Xor -->
<g id="node10" class="node">
<title>function&#45;1&#45;Xor</title>
<g id="a_node10"><a xlink:title="Inst&#45;8: function&#45;1&#45;Xor">
<path fill="white" stroke="transparent" d="M164.17,-332C164.17,-332 177.83,-332 177.83,-332 183.17,-332 188.5,-337.33 188.5,-342.67 188.5,-342.67 188.5,-353.33 188.5,-353.33 188.5,-358.67 183.17,-364 177.83,-364 177.83,-364 164.17,-364 164.17,-364 158.83,-364 153.5,-358.67 153.5,-353.33 153.5,-353.33 153.5,-342.67 153.5,-342.67 153.5,-337.33 158.83,-332 164.17,-332"/>
<text text-anchor="start" x="159" y="-344.3" font-family="Helvetica,sans-Serif" font-size="14.00">Xor</text>
<path fill="none" stroke="black" d="M164.17,-332C164.17,-332 177.83,-332 177.83,-332 183.17,-332 188.5,-337.33 188.5,-342.67 188.5,-342.67 188.5,-353.33 188.5,-353.33 188.5,-358.67 183.17,-364 177.83,-364 177.83,-364 164.17,-364 164.17,-364 158.83,-364 153.5,-358.67 153.5,-353.33 153.5,-353.33 153.5,-342.67 153.5,-342.67 153.5,-337.33 158.83,-332 164.17,-332"/>
</a>
</g>
</g>
<!-- function&#45;0&#45;And -->
<g id="node11" class="node">
<title>function&#45;0&#45;And</title>
<g id="a_node11"><a xlink:title="Inst&#45;4: function&#45;0&#45;And">
<path fill="white" stroke="transparent" d="M167.67,-253C167.67,-253 184.33,-253 184.33,-253 189.67,-253 195,-258.33 195,-263.67 195,-263.67 195,-274.33 195,-274.33 195,-279.67 189.67,-285 184.33,-285 184.33,-285 167.67,-285 167.67,-285 162.33,-285 157,-279.67 157,-274.33 157,-274.33 157,-263.67 157,-263.67 157,-258.33 162.33,-253 167.67,-253"/>
<text text-anchor="start" x="162" y="-265.3" font-family="Helvetica,sans-Serif" font-size="14.00">And</text>
<path fill="none" stroke="black" d="M167.67,-253C167.67,-253 184.33,-253 184.33,-253 189.67,-253 195,-258.33 195,-263.67 195,-263.67 195,-274.33 195,-274.33 195,-279.67 189.67,-285 184.33,-285 184.33,-285 167.67,-285 167.67,-285 162.33,-285 157,-279.67 157,-274.33 157,-274.33 157,-263.67 157,-263.67 157,-258.33 162.33,-253 167.67,-253"/>
</a>
</g>
</g>
<!-- function&#45;3&#45;RegVal -->
<g id="node12" class="node">
<title>function&#45;3&#45;RegVal</title>
<g id="a_node12"><a xlink:title="Inst&#45;3: function&#45;3&#45;RegVal">
<path fill="white" stroke="transparent" d="M32.17,-253C32.17,-253 67.83,-253 67.83,-253 73.17,-253 78.5,-258.33 78.5,-263.67 78.5,-263.67 78.5,-274.33 78.5,-274.33 78.5,-279.67 73.17,-285 67.83,-285 67.83,-285 32.17,-285 32.17,-285 26.83,-285 21.5,-279.67 21.5,-274.33 21.5,-274.33 21.5,-263.67 21.5,-263.67 21.5,-258.33 26.83,-253 32.17,-253"/>
<text text-anchor="start" x="27" y="-265.3" font-family="Helvetica,sans-Serif" font-size="14.00">RegVal</text>
<path fill="none" stroke="black" d="M32.17,-253C32.17,-253 67.83,-253 67.83,-253 73.17,-253 78.5,-258.33 78.5,-263.67 78.5,-263.67 78.5,-274.33 78.5,-274.33 78.5,-279.67 73.17,-285 67.83,-285 67.83,-285 32.17,-285 32.17,-285 26.83,-285 21.5,-279.67 21.5,-274.33 21.5,-274.33 21.5,-263.67 21.5,-263.67 21.5,-258.33 26.83,-253 32.17,-253"/>
</a>
</g>
</g>
<!-- function&#45;5&#45;And -->
<g id="node13" class="node">
<title>function&#45;5&#45;And</title>
<g id="a_node13"><a xlink:title="Inst&#45;20: function&#45;5&#45;And">
<path fill="white" stroke="transparent" d="M243.67,-569C243.67,-569 260.33,-569 260.33,-569 265.67,-569 271,-574.33 271,-579.67 271,-579.67 271,-590.33 271,-590.33 271,-595.67 265.67,-601 260.33,-601 260.33,-601 243.67,-601 243.67,-601 238.33,-601 233,-595.67 233,-590.33 233,-590.33 233,-579.67 233,-579.67 233,-574.33 238.33,-569 243.67,-569"/>
<text text-anchor="start" x="238" y="-581.3" font-family="Helvetica,sans-Serif" font-size="14.00">And</text>
<path fill="none" stroke="black" d="M243.67,-569C243.67,-569 260.33,-569 260.33,-569 265.67,-569 271,-574.33 271,-579.67 271,-579.67 271,-590.33 271,-590.33 271,-595.67 265.67,-601 260.33,-601 260.33,-601 243.67,-601 243.67,-601 238.33,-601 233,-595.67 233,-590.33 233,-590.33 233,-579.67 233,-579.67 233,-574.33 238.33,-569 243.67,-569"/>
</a>
</g>
</g>
<!-- function&#45;0&#45;Add -->
<g id="node14" class="node">
<title>function&#45;0&#45;Add</title>
<g id="a_node14"><a xlink:title="Inst&#45;6: function&#45;0&#45;Add">
<path fill="white" stroke="transparent" d="M259.67,-490C259.67,-490 276.33,-490 276.33,-490 281.67,-490 287,-495.33 287,-500.67 287,-500.67 287,-511.33 287,-511.33 287,-516.67 281.67,-522 276.33,-522 276.33,-522 259.67,-522 259.67,-522 254.33,-522 249,-516.67 249,-511.33 249,-511.33 249,-500.67 249,-500.67 249,-495.33 254.33,-490 259.67,-490"/>
<text text-anchor="start" x="254" y="-502.3" font-family="Helvetica,sans-Serif" font-size="14.00">Add</text>
<path fill="none" stroke="black" d="M259.67,-490C259.67,-490 276.33,-490 276.33,-490 281.67,-490 287,-495.33 287,-500.67 287,-500.67 287,-511.33 287,-511.33 287,-516.67 281.67,-522 276.33,-522 276.33,-522 259.67,-522 259.67,-522 254.33,-522 249,-516.67 249,-511.33 249,-511.33 249,-500.67 249,-500.67 249,-495.33 254.33,-490 259.67,-490"/>
</a>
</g>
</g>
<!-- primitive&#45;String&#45;1 -->
<g id="node15" class="node">
<title>primitive&#45;String&#45;1</title>
<g id="a_node15"><a xlink:title="String&#45;1: primitive&#45;String&#45;1">
<path fill="white" stroke="transparent" d="M297.17,-16C297.17,-16 332.83,-16 332.83,-16 338.17,-16 343.5,-21.33 343.5,-26.67 343.5,-26.67 343.5,-37.33 343.5,-37.33 343.5,-42.67 338.17,-48 332.83,-48 332.83,-48 297.17,-48 297.17,-48 291.83,-48 286.5,-42.67 286.5,-37.33 286.5,-37.33 286.5,-26.67 286.5,-26.67 286.5,-21.33 291.83,-16 297.17,-16"/>
<text text-anchor="start" x="292" y="-28.3" font-family="Helvetica,sans-Serif" font-size="14.00">&quot;a0_0&quot;</text>
<path fill="none" stroke="black" d="M297.17,-16C297.17,-16 332.83,-16 332.83,-16 338.17,-16 343.5,-21.33 343.5,-26.67 343.5,-26.67 343.5,-37.33 343.5,-37.33 343.5,-42.67 338.17,-48 332.83,-48 332.83,-48 297.17,-48 297.17,-48 291.83,-48 286.5,-42.67 286.5,-37.33 286.5,-37.33 286.5,-26.67 286.5,-26.67 286.5,-21.33 291.83,-16 297.17,-16"/>
</a>
</g>
</g>
<!-- function&#45;3&#45;Xor -->
<g id="node16" class="node">
<title>function&#45;3&#45;Xor</title>
<g id="a_node16"><a xlink:title="Inst&#45;11: function&#45;3&#45;Xor">
<path fill="white" stroke="transparent" d="M248.17,-174C248.17,-174 261.83,-174 261.83,-174 267.17,-174 272.5,-179.33 272.5,-184.67 272.5,-184.67 272.5,-195.33 272.5,-195.33 272.5,-200.67 267.17,-206 261.83,-206 261.83,-206 248.17,-206 248.17,-206 242.83,-206 237.5,-200.67 237.5,-195.33 237.5,-195.33 237.5,-184.67 237.5,-184.67 237.5,-179.33 242.83,-174 248.17,-174"/>
<text text-anchor="start" x="243" y="-186.3" font-family="Helvetica,sans-Serif" font-size="14.00">Xor</text>
<path fill="none" stroke="black" d="M248.17,-174C248.17,-174 261.83,-174 261.83,-174 267.17,-174 272.5,-179.33 272.5,-184.67 272.5,-184.67 272.5,-195.33 272.5,-195.33 272.5,-200.67 267.17,-206 261.83,-206 261.83,-206 248.17,-206 248.17,-206 242.83,-206 237.5,-200.67 237.5,-195.33 237.5,-195.33 237.5,-184.67 237.5,-184.67 237.5,-179.33 242.83,-174 248.17,-174"/>
</a>
</g>
</g>
<!-- primitive&#45;String&#45;2 -->
<g id="node17" class="node">
<title>primitive&#45;String&#45;2</title>
<g id="a_node17"><a xlink:title="String&#45;2: primitive&#45;String&#45;2">
<path fill="white" stroke="transparent" d="M148.17,-16C148.17,-16 183.83,-16 183.83,-16 189.17,-16 194.5,-21.33 194.5,-26.67 194.5,-26.67 194.5,-37.33 194.5,-37.33 194.5,-42.67 189.17,-48 183.83,-48 183.83,-48 148.17,-48 148.17,-48 142.83,-48 137.5,-42.67 137.5,-37.33 137.5,-37.33 137.5,-26.67 137.5,-26.67 137.5,-21.33 142.83,-16 148.17,-16"/>
<text text-anchor="start" x="143" y="-28.3" font-family="Helvetica,sans-Serif" font-size="14.00">&quot;a1_0&quot;</text>
<path fill="none" stroke="black" d="M148.17,-16C148.17,-16 183.83,-16 183.83,-16 189.17,-16 194.5,-21.33 194.5,-26.67 194.5,-26.67 194.5,-37.33 194.5,-37.33 194.5,-42.67 189.17,-48 183.83,-48 183.83,-48 148.17,-48 148.17,-48 142.83,-48 137.5,-42.67 137.5,-37.33 137.5,-37.33 137.5,-26.67 137.5,-26.67 137.5,-21.33 142.83,-16 148.17,-16"/>
</a>
</g>
</g>
<!-- function&#45;2&#45;Sub -->
<g id="node18" class="node">
<title>function&#45;2&#45;Sub</title>
<g id="a_node18"><a xlink:title="Inst&#45;4: function&#45;2&#45;Sub">
<path fill="white" stroke="transparent" d="M109.67,-253C109.67,-253 126.33,-253 126.33,-253 131.67,-253 137,-258.33 137,-263.67 137,-263.67 137,-274.33 137,-274.33 137,-279.67 131.67,-285 126.33,-285 126.33,-285 109.67,-285 109.67,-285 104.33,-285 99,-279.67 99,-274.33 99,-274.33 99,-263.67 99,-263.67 99,-258.33 104.33,-253 109.67,-253"/>
<text text-anchor="start" x="104" y="-265.3" font-family="Helvetica,sans-Serif" font-size="14.00">Sub</text>
<path fill="none" stroke="black" d="M109.67,-253C109.67,-253 126.33,-253 126.33,-253 131.67,-253 137,-258.33 137,-263.67 137,-263.67 137,-274.33 137,-274.33 137,-279.67 131.67,-285 126.33,-285 126.33,-285 109.67,-285 109.67,-285 104.33,-285 99,-279.67 99,-274.33 99,-274.33 99,-263.67 99,-263.67 99,-258.33 104.33,-253 109.67,-253"/>
</a>
</g>
</g>
<!-- function&#45;1&#45;Sub -->
<g id="node19" class="node">
<title>function&#45;1&#45;Sub</title>
<g id="a_node19"><a xlink:title="Inst&#45;12: function&#45;1&#45;Sub">
<path fill="white" stroke="transparent" d="M114.67,-174C114.67,-174 131.33,-174 131.33,-174 136.67,-174 142,-179.33 142,-184.67 142,-184.67 142,-195.33 142,-195.33 142,-200.67 136.67,-206 131.33,-206 131.33,-206 114.67,-206 114.67,-206 109.33,-206 104,-200.67 104,-195.33 104,-195.33 104,-184.67 104,-184.67 104,-179.33 109.33,-174 114.67,-174"/>
<text text-anchor="start" x="109" y="-186.3" font-family="Helvetica,sans-Serif" font-size="14.00">Sub</text>
<path fill="none" stroke="black" d="M114.67,-174C114.67,-174 131.33,-174 131.33,-174 136.67,-174 142,-179.33 142,-184.67 142,-184.67 142,-195.33 142,-195.33 142,-200.67 136.67,-206 131.33,-206 131.33,-206 114.67,-206 114.67,-206 109.33,-206 104,-200.67 104,-195.33 104,-195.33 104,-184.67 104,-184.67 104,-179.33 109.33,-174 114.67,-174"/>
</a>
</g>
</g>
<!-- function&#45;4&#45;Xor -->
<g id="node20" class="node">
<title>function&#45;4&#45;Xor</title>
<g id="a_node20"><a xlink:title="Inst&#45;4: function&#45;4&#45;Xor">
<path fill="white" stroke="transparent" d="M227.17,-253C227.17,-253 240.83,-253 240.83,-253 246.17,-253 251.5,-258.33 251.5,-263.67 251.5,-263.67 251.5,-274.33 251.5,-274.33 251.5,-279.67 246.17,-285 240.83,-285 240.83,-285 227.17,-285 227.17,-285 221.83,-285 216.5,-279.67 216.5,-274.33 216.5,-274.33 216.5,-263.67 216.5,-263.67 216.5,-258.33 221.83,-253 227.17,-253"/>
<text text-anchor="start" x="222" y="-265.3" font-family="Helvetica,sans-Serif" font-size="14.00">Xor</text>
<path fill="none" stroke="black" d="M227.17,-253C227.17,-253 240.83,-253 240.83,-253 246.17,-253 251.5,-258.33 251.5,-263.67 251.5,-263.67 251.5,-274.33 251.5,-274.33 251.5,-279.67 246.17,-285 240.83,-285 240.83,-285 227.17,-285 227.17,-285 221.83,-285 216.5,-279.67 216.5,-274.33 216.5,-274.33 216.5,-263.67 216.5,-263.67 216.5,-258.33 221.83,-253 227.17,-253"/>
</a>
</g>
</g>
<!-- function&#45;2&#45;Or -->
<g id="node21" class="node">
<title>function&#45;2&#45;Or</title>
<g id="a_node21"><a xlink:title="Inst&#45;19: function&#45;2&#45;Or">
<path fill="white" stroke="transparent" d="M390.67,-569C390.67,-569 401.33,-569 401.33,-569 406.67,-569 412,-574.33 412,-579.67 412,-579.67 412,-590.33 412,-590.33 412,-595.67 406.67,-601 401.33,-601 401.33,-601 390.67,-601 390.67,-601 385.33,-601 380,-595.67 380,-590.33 380,-590.33 380,-579.67 380,-579.67 380,-574.33 385.33,-569 390.67,-569"/>
<text text-anchor="start" x="387" y="-581.3" font-family="Helvetica,sans-Serif" font-size="14.00">Or</text>
<path fill="none" stroke="black" d="M390.67,-569C390.67,-569 401.33,-569 401.33,-569 406.67,-569 412,-574.33 412,-579.67 412,-579.67 412,-590.33 412,-590.33 412,-595.67 406.67,-601 401.33,-601 401.33,-601 390.67,-601 390.67,-601 385.33,-601 380,-595.67 380,-590.33 380,-590.33 380,-579.67 380,-579.67 380,-574.33 385.33,-569 390.67,-569"/>
</a>
</g>
</g>
<!-- function&#45;2&#45;Xor -->
<g id="node22" class="node">
<title>function&#45;2&#45;Xor</title>
<g id="a_node22"><a xlink:title="Inst&#45;6: function&#45;2&#45;Xor">
<path fill="white" stroke="transparent" d="M203.17,-490C203.17,-490 216.83,-490 216.83,-490 222.17,-490 227.5,-495.33 227.5,-500.67 227.5,-500.67 227.5,-511.33 227.5,-511.33 227.5,-516.67 222.17,-522 216.83,-522 216.83,-522 203.17,-522 203.17,-522 197.83,-522 192.5,-516.67 192.5,-511.33 192.5,-511.33 192.5,-500.67 192.5,-500.67 192.5,-495.33 197.83,-490 203.17,-490"/>
<text text-anchor="start" x="198" y="-502.3" font-family="Helvetica,sans-Serif" font-size="14.00">Xor</text>
<path fill="none" stroke="black" d="M203.17,-490C203.17,-490 216.83,-490 216.83,-490 222.17,-490 227.5,-495.33 227.5,-500.67 227.5,-500.67 227.5,-511.33 227.5,-511.33 227.5,-516.67 222.17,-522 216.83,-522 216.83,-522 203.17,-522 203.17,-522 197.83,-522 192.5,-516.67 192.5,-511.33 192.5,-511.33 192.5,-500.67 192.5,-500.67 192.5,-495.33 197.83,-490 203.17,-490"/>
</a>
</g>
</g>
<!-- function&#45;3&#45;Sub -->
<g id="node23" class="node">
<title>function&#45;3&#45;Sub</title>
<g id="a_node23"><a xlink:title="Inst&#45;16: function&#45;3&#45;Sub">
<path fill="white" stroke="transparent" d="M93.67,-411C93.67,-411 110.33,-411 110.33,-411 115.67,-411 121,-416.33 121,-421.67 121,-421.67 121,-432.33 121,-432.33 121,-437.67 115.67,-443 110.33,-443 110.33,-443 93.67,-443 93.67,-443 88.33,-443 83,-437.67 83,-432.33 83,-432.33 83,-421.67 83,-421.67 83,-416.33 88.33,-411 93.67,-411"/>
<text text-anchor="start" x="88" y="-423.3" font-family="Helvetica,sans-Serif" font-size="14.00">Sub</text>
<path fill="none" stroke="black" d="M93.67,-411C93.67,-411 110.33,-411 110.33,-411 115.67,-411 121,-416.33 121,-421.67 121,-421.67 121,-432.33 121,-432.33 121,-437.67 115.67,-443 110.33,-443 110.33,-443 93.67,-443 93.67,-443 88.33,-443 83,-437.67 83,-432.33 83,-432.33 83,-421.67 83,-421.67 83,-416.33 88.33,-411 93.67,-411"/>
</a>
</g>
</g>
<!-- function&#45;1&#45;And -->
<g id="node24" class="node">
<title>function&#45;1&#45;And</title>
<g id="a_node24"><a xlink:title="Inst&#45;9: function&#45;1&#45;And">
<path fill="white" stroke="transparent" d="M84.67,-332C84.67,-332 101.33,-332 101.33,-332 106.67,-332 112,-337.33 112,-342.67 112,-342.67 112,-353.33 112,-353.33 112,-358.67 106.67,-364 101.33,-364 101.33,-364 84.67,-364 84.67,-364 79.33,-364 74,-358.67 74,-353.33 74,-353.33 74,-342.67 74,-342.67 74,-337.33 79.33,-332 84.67,-332"/>
<text text-anchor="start" x="79" y="-344.3" font-family="Helvetica,sans-Serif" font-size="14.00">And</text>
<path fill="none" stroke="black" d="M84.67,-332C84.67,-332 101.33,-332 101.33,-332 106.67,-332 112,-337.33 112,-342.67 112,-342.67 112,-353.33 112,-353.33 112,-358.67 106.67,-364 101.33,-364 101.33,-364 84.67,-364 84.67,-364 79.33,-364 74,-358.67 74,-353.33 74,-353.33 74,-342.67 74,-342.67 74,-337.33 79.33,-332 84.67,-332"/>
</a>
</g>
</g>
<!-- function&#45;0&#45;Or -->
<g id="node25" class="node">
<title>function&#45;0&#45;Or</title>
<g id="a_node25"><a xlink:title="Inst&#45;6: function&#45;0&#45;Or">
<path fill="white" stroke="transparent" d="M88.67,-490C88.67,-490 99.33,-490 99.33,-490 104.67,-490 110,-495.33 110,-500.67 110,-500.67 110,-511.33 110,-511.33 110,-516.67 104.67,-522 99.33,-522 99.33,-522 88.67,-522 88.67,-522 83.33,-522 78,-516.67 78,-511.33 78,-511.33 78,-500.67 78,-500.67 78,-495.33 83.33,-490 88.67,-490"/>
<text text-anchor="start" x="85" y="-502.3" font-family="Helvetica,sans-Serif" font-size="14.00">Or</text>
<path fill="none" stroke="black" d="M88.67,-490C88.67,-490 99.33,-490 99.33,-490 104.67,-490 110,-495.33 110,-500.67 110,-500.67 110,-511.33 110,-511.33 110,-516.67 104.67,-522 99.33,-522 99.33,-522 88.67,-522 88.67,-522 83.33,-522 78,-516.67 78,-511.33 78,-511.33 78,-500.67 78,-500.67 78,-495.33 83.33,-490 88.67,-490"/>
</a>
</g>
</g>
<!-- function&#45;5&#45;Sub -->
<g id="node26" class="node">
<title>function&#45;5&#45;Sub</title>
<g id="a_node26"><a xlink:title="Inst&#45;7: function&#45;5&#45;Sub">
<path fill="white" stroke="transparent" d="M273.67,-727C273.67,-727 290.33,-727 290.33,-727 295.67,-727 301,-732.33 301,-737.67 301,-737.67 301,-748.33 301,-748.33 301,-753.67 295.67,-759 290.33,-759 290.33,-759 273.67,-759 273.67,-759 268.33,-759 263,-753.67 263,-748.33 263,-748.33 263,-737.67 263,-737.67 263,-732.33 268.33,-727 273.67,-727"/>
<text text-anchor="start" x="268" y="-739.3" font-family="Helvetica,sans-Serif" font-size="14.00">Sub</text>
<path fill="none" stroke="black" d="M273.67,-727C273.67,-727 290.33,-727 290.33,-727 295.67,-727 301,-732.33 301,-737.67 301,-737.67 301,-748.33 301,-748.33 301,-753.67 295.67,-759 290.33,-759 290.33,-759 273.67,-759 273.67,-759 268.33,-759 263,-753.67 263,-748.33 263,-748.33 263,-737.67 263,-737.67 263,-732.33 268.33,-727 273.67,-727"/>
</a>
</g>
</g>
<!-- function&#45;0&#45;Xor -->
<g id="node27" class="node">
<title>function&#45;0&#45;Xor</title>
<g id="a_node27"><a xlink:title="Inst&#45;7: function&#45;0&#45;Xor">
<path fill="white" stroke="transparent" d="M333.17,-727C333.17,-727 346.83,-727 346.83,-727 352.17,-727 357.5,-732.33 357.5,-737.67 357.5,-737.67 357.5,-748.33 357.5,-748.33 357.5,-753.67 352.17,-759 346.83,-759 346.83,-759 333.17,-759 333.17,-759 327.83,-759 322.5,-753.67 322.5,-748.33 322.5,-748.33 322.5,-737.67 322.5,-737.67 322.5,-732.33 327.83,-727 333.17,-727"/>
<text text-anchor="start" x="328" y="-739.3" font-family="Helvetica,sans-Serif" font-size="14.00">Xor</text>
<path fill="none" stroke="black" d="M333.17,-727C333.17,-727 346.83,-727 346.83,-727 352.17,-727 357.5,-732.33 357.5,-737.67 357.5,-737.67 357.5,-748.33 357.5,-748.33 357.5,-753.67 352.17,-759 346.83,-759 346.83,-759 333.17,-759 333.17,-759 327.83,-759 322.5,-753.67 322.5,-748.33 322.5,-748.33 322.5,-737.67 322.5,-737.67 322.5,-732.33 327.83,-727 333.17,-727"/>
</a>
</g>
</g>
<!-- function&#45;4&#45;And -->
<g id="node28" class="node">
<title>function&#45;4&#45;And</title>
<g id="a_node28"><a xlink:title="Inst&#45;7: function&#45;4&#45;And">
<path fill="white" stroke="transparent" d="M389.67,-727C389.67,-727 406.33,-727 406.33,-727 411.67,-727 417,-732.33 417,-737.67 417,-737.67 417,-748.33 417,-748.33 417,-753.67 411.67,-759 406.33,-759 406.33,-759 389.67,-759 389.67,-759 384.33,-759 379,-753.67 379,-748.33 379,-748.33 379,-737.67 379,-737.67 379,-732.33 384.33,-727 389.67,-727"/>
<text text-anchor="start" x="384" y="-739.3" font-family="Helvetica,sans-Serif" font-size="14.00">And</text>
<path fill="none" stroke="black" d="M389.67,-727C389.67,-727 406.33,-727 406.33,-727 411.67,-727 417,-732.33 417,-737.67 417,-737.67 417,-748.33 417,-748.33 417,-753.67 411.67,-759 406.33,-759 406.33,-759 389.67,-759 389.67,-759 384.33,-759 379,-753.67 379,-748.33 379,-748.33 379,-737.67 379,-737.67 379,-732.33 384.33,-727 389.67,-727"/>
</a>
</g>
</g>
<!-- primitive&#45;String&#45;3 -->
<g id="node29" class="node">
<title>primitive&#45;String&#45;3</title>
<g id="a_node29"><a xlink:title="String&#45;3: primitive&#45;String&#45;3">
<path fill="white" stroke="transparent" d="M466.17,-16C466.17,-16 501.83,-16 501.83,-16 507.17,-16 512.5,-21.33 512.5,-26.67 512.5,-26.67 512.5,-37.33 512.5,-37.33 512.5,-42.67 507.17,-48 501.83,-48 501.83,-48 466.17,-48 466.17,-48 460.83,-48 455.5,-42.67 455.5,-37.33 455.5,-37.33 455.5,-26.67 455.5,-26.67 455.5,-21.33 460.83,-16 466.17,-16"/>
<text text-anchor="start" x="461" y="-28.3" font-family="Helvetica,sans-Serif" font-size="14.00">&quot;a2_0&quot;</text>
<path fill="none" stroke="black" d="M466.17,-16C466.17,-16 501.83,-16 501.83,-16 507.17,-16 512.5,-21.33 512.5,-26.67 512.5,-26.67 512.5,-37.33 512.5,-37.33 512.5,-42.67 507.17,-48 501.83,-48 501.83,-48 466.17,-48 466.17,-48 460.83,-48 455.5,-42.67 455.5,-37.33 455.5,-37.33 455.5,-26.67 455.5,-26.67 455.5,-21.33 460.83,-16 466.17,-16"/>
</a>
</g>
</g>
<!-- primitive&#45;String&#45;4 -->
<g id="node30" class="node">
<title>primitive&#45;String&#45;4</title>
<g id="a_node30"><a xlink:title="String&#45;4: primitive&#45;String&#45;4">
<path fill="white" stroke="transparent" d="M25.17,-174C25.17,-174 60.83,-174 60.83,-174 66.17,-174 71.5,-179.33 71.5,-184.67 71.5,-184.67 71.5,-195.33 71.5,-195.33 71.5,-200.67 66.17,-206 60.83,-206 60.83,-206 25.17,-206 25.17,-206 19.83,-206 14.5,-200.67 14.5,-195.33 14.5,-195.33 14.5,-184.67 14.5,-184.67 14.5,-179.33 19.83,-174 25.17,-174"/>
<text text-anchor="start" x="20" y="-186.3" font-family="Helvetica,sans-Serif" font-size="14.00">&quot;a3_0&quot;</text>
<path fill="none" stroke="black" d="M25.17,-174C25.17,-174 60.83,-174 60.83,-174 66.17,-174 71.5,-179.33 71.5,-184.67 71.5,-184.67 71.5,-195.33 71.5,-195.33 71.5,-200.67 66.17,-206 60.83,-206 60.83,-206 25.17,-206 25.17,-206 19.83,-206 14.5,-200.67 14.5,-195.33 14.5,-195.33 14.5,-184.67 14.5,-184.67 14.5,-179.33 19.83,-174 25.17,-174"/>
</a>
</g>
</g>
<!-- function&#45;0&#45;Xori -->
<g id="node31" class="node">
<title>function&#45;0&#45;Xori</title>
<g id="a_node31"><a xlink:title="Inst&#45;14: function&#45;0&#45;Xori">
<path fill="white" stroke="transparent" d="M260.67,-332C260.67,-332 277.33,-332 277.33,-332 282.67,-332 288,-337.33 288,-342.67 288,-342.67 288,-353.33 288,-353.33 288,-358.67 282.67,-364 277.33,-364 277.33,-364 260.67,-364 260.67,-364 255.33,-364 250,-358.67 250,-353.33 250,-353.33 250,-342.67 250,-342.67 250,-337.33 255.33,-332 260.67,-332"/>
<text text-anchor="start" x="255" y="-344.3" font-family="Helvetica,sans-Serif" font-size="14.00">Xori</text>
<path fill="none" stroke="black" d="M260.67,-332C260.67,-332 277.33,-332 277.33,-332 282.67,-332 288,-337.33 288,-342.67 288,-342.67 288,-353.33 288,-353.33 288,-358.67 282.67,-364 277.33,-364 277.33,-364 260.67,-364 260.67,-364 255.33,-364 250,-358.67 250,-353.33 250,-353.33 250,-342.67 250,-342.67 250,-337.33 255.33,-332 260.67,-332"/>
</a>
</g>
</g>
<!-- function&#45;2&#45;And -->
<g id="node32" class="node">
<title>function&#45;2&#45;And</title>
<g id="a_node32"><a xlink:title="Inst&#45;15: function&#45;2&#45;And">
<path fill="white" stroke="transparent" d="M260.67,-411C260.67,-411 277.33,-411 277.33,-411 282.67,-411 288,-416.33 288,-421.67 288,-421.67 288,-432.33 288,-432.33 288,-437.67 282.67,-443 277.33,-443 277.33,-443 260.67,-443 260.67,-443 255.33,-443 250,-437.67 250,-432.33 250,-432.33 250,-421.67 250,-421.67 250,-416.33 255.33,-411 260.67,-411"/>
<text text-anchor="start" x="255" y="-423.3" font-family="Helvetica,sans-Serif" font-size="14.00">And</text>
<path fill="none" stroke="black" d="M260.67,-411C260.67,-411 277.33,-411 277.33,-411 282.67,-411 288,-416.33 288,-421.67 288,-421.67 288,-432.33 288,-432.33 288,-437.67 282.67,-443 277.33,-443 277.33,-443 260.67,-443 260.67,-443 255.33,-443 250,-437.67 250,-432.33 250,-432.33 250,-421.67 250,-421.67 250,-416.33 255.33,-411 260.67,-411"/>
</a>
</g>
</g>
<!-- function&#45;4&#45;Sub -->
<g id="node33" class="node">
<title>function&#45;4&#45;Sub</title>
<g id="a_node33"><a xlink:title="Inst&#45;6: function&#45;4&#45;Sub">
<path fill="white" stroke="transparent" d="M143.67,-490C143.67,-490 160.33,-490 160.33,-490 165.67,-490 171,-495.33 171,-500.67 171,-500.67 171,-511.33 171,-511.33 171,-516.67 165.67,-522 160.33,-522 160.33,-522 143.67,-522 143.67,-522 138.33,-522 133,-516.67 133,-511.33 133,-511.33 133,-500.67 133,-500.67 133,-495.33 138.33,-490 143.67,-490"/>
<text text-anchor="start" x="138" y="-502.3" font-family="Helvetica,sans-Serif" font-size="14.00">Sub</text>
<path fill="none" stroke="black" d="M143.67,-490C143.67,-490 160.33,-490 160.33,-490 165.67,-490 171,-495.33 171,-500.67 171,-500.67 171,-511.33 171,-511.33 171,-516.67 165.67,-522 160.33,-522 160.33,-522 143.67,-522 143.67,-522 138.33,-522 133,-516.67 133,-511.33 133,-511.33 133,-500.67 133,-500.67 133,-495.33 138.33,-490 143.67,-490"/>
</a>
</g>
</g>
</g>
</svg>
