<?xml version="1.0" encoding="UTF-8" standalone="no"?>
<!DOCTYPE svg PUBLIC "-//W3C//DTD SVG 1.1//EN"
 "http://www.w3.org/Graphics/SVG/1.1/DTD/svg11.dtd">
<!-- Generated by graphviz version 2.43.0 (0)
 -->
<!-- Title: %3 Pages: 1 -->
<svg width="531pt" height="388pt"
 viewBox="0.00 0.00 531.22 388.00" xmlns="http://www.w3.org/2000/svg" xmlns:xlink="http://www.w3.org/1999/xlink">
<g id="graph0" class="graph" transform="scale(1 1) rotate(0) translate(4 384)">
<title>%3</title>
<polygon fill="white" stroke="#000000" points="-4,4 -4,-384 527.22,-384 527.22,4 -4,4"/>
<g id="clust1" class="cluster">
<title>outer_cluster_Imm&#45;2</title>
</g>
<g id="clust2" class="cluster">
<title>cluster_Imm&#45;2</title>
<path fill="#ffffb3" stroke="black" stroke-dasharray="5,2" d="M25,-169C25,-169 69,-169 69,-169 75,-169 81,-175 81,-181 81,-181 81,-199 81,-199 81,-205 75,-211 69,-211 69,-211 25,-211 25,-211 19,-211 13,-205 13,-199 13,-199 13,-181 13,-181 13,-175 19,-169 25,-169"/>
</g>
<g id="clust4" class="cluster">
<title>outer_cluster_Imm&#45;4</title>
</g>
<g id="clust5" class="cluster">
<title>cluster_Imm&#45;4</title>
<path fill="#ffffb3" stroke="black" stroke-dasharray="5,2" d="M293,-90C293,-90 337,-90 337,-90 343,-90 349,-96 349,-102 349,-102 349,-120 349,-120 349,-126 343,-132 337,-132 337,-132 293,-132 293,-132 287,-132 281,-126 281,-120 281,-120 281,-102 281,-102 281,-96 287,-90 293,-90"/>
</g>
<g id="clust7" class="cluster">
<title>outer_cluster_Inst&#45;0</title>
</g>
<g id="clust8" class="cluster">
<title>cluster_Inst&#45;0</title>
<path fill="#bebada" stroke="black" stroke-dasharray="5,2" d="M177,-169C177,-169 217,-169 217,-169 223,-169 229,-175 229,-181 229,-181 229,-199 229,-199 229,-205 223,-211 217,-211 217,-211 177,-211 177,-211 171,-211 165,-205 165,-199 165,-199 165,-181 165,-181 165,-175 171,-169 177,-169"/>
</g>
<g id="clust10" class="cluster">
<title>outer_cluster_Inst&#45;5</title>
</g>
<g id="clust11" class="cluster">
<title>cluster_Inst&#45;5</title>
<path fill="#bebada" stroke="black" stroke-dasharray="5,2" d="M156,-248C156,-248 308,-248 308,-248 314,-248 320,-254 320,-260 320,-260 320,-278 320,-278 320,-284 314,-290 308,-290 308,-290 156,-290 156,-290 150,-290 144,-284 144,-278 144,-278 144,-260 144,-260 144,-254 150,-248 156,-248"/>
</g>
<g id="clust13" class="cluster">
<title>outer_cluster_Inst&#45;3</title>
</g>
<g id="clust14" class="cluster">
<title>cluster_Inst&#45;3</title>
<path fill="#bebada" stroke="black" stroke-dasharray="5,2" d="M57,-327C57,-327 209,-327 209,-327 215,-327 221,-333 221,-339 221,-339 221,-357 221,-357 221,-363 215,-369 209,-369 209,-369 57,-369 57,-369 51,-369 45,-363 45,-357 45,-357 45,-339 45,-339 45,-333 51,-327 57,-327"/>
</g>
<g id="clust16" class="cluster">
<title>outer_cluster_Inst&#45;8</title>
</g>
<g id="clust17" class="cluster">
<title>cluster_Inst&#45;8</title>
<path fill="#bebada" stroke="black" stroke-dasharray="5,2" d="M297,-169C297,-169 333,-169 333,-169 339,-169 345,-175 345,-181 345,-181 345,-199 345,-199 345,-205 339,-211 333,-211 333,-211 297,-211 297,-211 291,-211 285,-205 285,-199 285,-199 285,-181 285,-181 285,-175 291,-169 297,-169"/>
</g>
<g id="clust19" class="cluster">
<title>outer_cluster_Inst&#45;6</title>
</g>
<g id="clust20" class="cluster">
<title>cluster_Inst&#45;6</title>
<path fill="#bebada" stroke="black" stroke-dasharray="5,2" d="M68,-248C68,-248 104,-248 104,-248 110,-248 116,-254 116,-260 116,-260 116,-278 116,-278 116,-284 110,-290 104,-290 104,-290 68,-290 68,-290 62,-290 56,-284 56,-278 56,-278 56,-260 56,-260 56,-254 62,-248 68,-248"/>
</g>
<g id="clust22" class="cluster">
<title>outer_cluster_Inst&#45;7</title>
</g>
<g id="clust23" class="cluster">
<title>cluster_Inst&#45;7</title>
<path fill="#bebada" stroke="black" stroke-dasharray="5,2" d="M338,-248C338,-248 490,-248 490,-248 496,-248 502,-254 502,-260 502,-260 502,-278 502,-278 502,-284 496,-290 490,-290 490,-290 338,-290 338,-290 332,-290 326,-284 326,-278 326,-278 326,-260 326,-260 326,-254 332,-248 338,-248"/>
</g>
<g id="clust25" class="cluster">
<title>outer_cluster_Inst&#45;1</title>
</g>
<g id="clust26" class="cluster">
<title>cluster_Inst&#45;1</title>
<path fill="#bebada" stroke="black" stroke-dasharray="5,2" d="M420,-169C420,-169 460,-169 460,-169 466,-169 472,-175 472,-181 472,-181 472,-199 472,-199 472,-205 466,-211 460,-211 460,-211 420,-211 420,-211 414,-211 408,-205 408,-199 408,-199 408,-181 408,-181 408,-175 414,-169 420,-169"/>
</g>
<g id="clust28" class="cluster">
<title>outer_cluster_String&#45;0</title>
</g>
<g id="clust29" class="cluster">
<title>cluster_String&#45;0</title>
<path fill="#fb8072" stroke="black" stroke-dasharray="5,2" d="M178,-90C178,-90 218,-90 218,-90 224,-90 230,-96 230,-102 230,-102 230,-120 230,-120 230,-126 224,-132 218,-132 218,-132 178,-132 178,-132 172,-132 166,-126 166,-120 166,-120 166,-102 166,-102 166,-96 172,-90 178,-90"/>
</g>
<g id="clust31" class="cluster">
<title>outer_cluster_String&#45;1</title>
</g>
<g id="clust32" class="cluster">
<title>cluster_String&#45;1</title>
<path fill="#fb8072" stroke="black" stroke-dasharray="5,2" d="M415,-90C415,-90 467,-90 467,-90 473,-90 479,-96 479,-102 479,-102 479,-120 479,-120 479,-126 473,-132 467,-132 467,-132 415,-132 415,-132 409,-132 403,-126 403,-120 403,-120 403,-102 403,-102 403,-96 409,-90 415,-90"/>
</g>
<g id="clust34" class="cluster">
<title>outer_cluster_i64&#45;125564</title>
</g>
<g id="clust35" class="cluster">
<title>cluster_i64&#45;125564</title>
<path fill="#80b1d3" stroke="black" stroke-dasharray="5,2" d="M23,-90C23,-90 71,-90 71,-90 77,-90 83,-96 83,-102 83,-102 83,-120 83,-120 83,-126 77,-132 71,-132 71,-132 23,-132 23,-132 17,-132 11,-126 11,-120 11,-120 11,-102 11,-102 11,-96 17,-90 23,-90"/>
</g>
<g id="clust37" class="cluster">
<title>outer_cluster_i64&#45;4</title>
</g>
<g id="clust38" class="cluster">
<title>cluster_i64&#45;4</title>
<path fill="#80b1d3" stroke="black" stroke-dasharray="5,2" d="M297,-11C297,-11 333,-11 333,-11 339,-11 345,-17 345,-23 345,-23 345,-41 345,-41 345,-47 339,-53 333,-53 333,-53 297,-53 297,-53 291,-53 285,-47 285,-41 285,-41 285,-23 285,-23 285,-17 291,-11 297,-11"/>
</g>
<!-- function&#45;0&#45;ImmVal&#45;&gt;primitive&#45;i64&#45;125564 -->
<g id="edge1" class="edge">
<title>function&#45;0&#45;ImmVal:s&#45;&gt;primitive&#45;i64&#45;125564</title>
<path fill="none" stroke="black" d="M47,-174C47,-160.84 47,-146.11 47,-134.3"/>
<polygon fill="black" stroke="black" points="48.75,-137 47,-132 45.25,-137 48.75,-137"/>
</g>
<!-- function&#45;1&#45;ImmVal&#45;&gt;primitive&#45;i64&#45;4 -->
<g id="edge2" class="edge">
<title>function&#45;1&#45;ImmVal:s&#45;&gt;primitive&#45;i64&#45;4</title>
<path fill="none" stroke="black" d="M315,-95C315,-81.84 315,-67.11 315,-55.3"/>
<polygon fill="black" stroke="black" points="316.75,-58 315,-53 313.25,-58 316.75,-58"/>
</g>
<!-- function&#45;0&#45;RegVal&#45;&gt;primitive&#45;String&#45;0 -->
<g id="edge3" class="edge">
<title>function&#45;0&#45;RegVal:s&#45;&gt;primitive&#45;String&#45;0</title>
<path fill="none" stroke="black" d="M198,-174C198,-160.84 198,-146.11 198,-134.3"/>
<polygon fill="black" stroke="black" points="199.75,-137 198,-132 196.25,-137 199.75,-137"/>
</g>
<!-- function&#45;0&#45;Blt&#45;&gt;function&#45;1&#45;ImmVal -->
<g id="edge6" class="edge">
<title>function&#45;0&#45;Blt:s&#45;&gt;function&#45;1&#45;ImmVal</title>
<path fill="none" stroke="black" d="M185,-253C185,-226.53 212.65,-233.98 230,-214 246.65,-194.83 245.04,-185.76 261,-166 270.5,-154.24 282.24,-142.25 292.35,-132.56"/>
<polygon fill="black" stroke="black" points="290.37,-136.6 293,-132 288.07,-133.96 290.37,-136.6"/>
</g>
<!-- function&#45;0&#45;Blt&#45;&gt;function&#45;0&#45;RegVal -->
<g id="edge5" class="edge">
<title>function&#45;0&#45;Blt:s&#45;&gt;function&#45;0&#45;RegVal</title>
<path fill="none" stroke="black" d="M178,-253C178,-239.31 182.29,-224.63 186.79,-213"/>
<polygon fill="black" stroke="black" points="187.19,-216.27 187.72,-211 184.02,-214.79 187.19,-216.27"/>
</g>
<!-- function&#45;0&#45;Blt&#45;&gt;function&#45;1&#45;RegVal -->
<g id="edge4" class="edge">
<title>function&#45;0&#45;Blt:s&#45;&gt;function&#45;1&#45;RegVal</title>
<path fill="none" stroke="black" d="M166,-253C166,-212.07 306.12,-223.2 346,-214 366.05,-209.38 388.43,-203.91 406.33,-199.47"/>
<polygon fill="black" stroke="black" points="405,-202.61 408,-198.24 402.93,-199.79 405,-202.61"/>
</g>
<!-- function&#45;1&#45;RegVal&#45;&gt;primitive&#45;String&#45;1 -->
<g id="edge30" class="edge">
<title>function&#45;1&#45;RegVal:s&#45;&gt;primitive&#45;String&#45;1</title>
<path fill="none" stroke="black" d="M441,-174C441,-160.84 441,-146.11 441,-134.3"/>
<polygon fill="black" stroke="black" points="442.75,-137 441,-132 439.25,-137 442.75,-137"/>
</g>
<!-- function&#45;1&#45;Bge&#45;&gt;function&#45;1&#45;ImmVal -->
<g id="edge9" class="edge">
<title>function&#45;1&#45;Bge:s&#45;&gt;function&#45;1&#45;ImmVal</title>
<path fill="none" stroke="black" d="M246,-253C246,-231.9 274.51,-184.84 284,-166 289.48,-155.12 296.15,-143.35 301.89,-133.58"/>
<polygon fill="black" stroke="black" points="301.18,-136.78 303.46,-132 298.69,-134.32 301.18,-136.78"/>
</g>
<!-- function&#45;1&#45;Bge&#45;&gt;function&#45;0&#45;RegVal -->
<g id="edge7" class="edge">
<title>function&#45;1&#45;Bge:s&#45;&gt;function&#45;0&#45;RegVal</title>
<path fill="none" stroke="black" d="M223,-253C223,-238.78 217.11,-224.05 210.94,-212.52"/>
<polygon fill="black" stroke="black" points="214.2,-213.4 209.48,-211 211.68,-215.82 214.2,-213.4"/>
</g>
<!-- function&#45;1&#45;Bge&#45;&gt;function&#45;1&#45;RegVal -->
<g id="edge8" class="edge">
<title>function&#45;1&#45;Bge:s&#45;&gt;function&#45;1&#45;RegVal</title>
<path fill="none" stroke="black" d="M237,-253C237,-244.26 348.55,-214.41 406.27,-199.55"/>
<polygon fill="black" stroke="black" points="405.06,-202.65 408,-198.24 402.95,-199.86 405.06,-202.65"/>
</g>
<!-- function&#45;1&#45;Seq2&#45;&gt;function&#45;2&#45;Blt -->
<g id="edge10" class="edge">
<title>function&#45;1&#45;Seq2:s&#45;&gt;function&#45;2&#45;Blt</title>
<path fill="none" stroke="black" d="M279,-253C279,-205.81 338.96,-202.06 381,-223.5 390.53,-228.36 397.96,-237.41 403.33,-246.17"/>
<polygon fill="black" stroke="black" points="400.37,-245.62 405.1,-248 402.88,-243.19 400.37,-245.62"/>
</g>
<!-- function&#45;1&#45;Seq2&#45;&gt;function&#45;1&#45;Jal -->
<g id="edge11" class="edge">
<title>function&#45;1&#45;Seq2:s&#45;&gt;function&#45;1&#45;Jal</title>
<path fill="none" stroke="black" d="M301,-253C301,-239.48 304.21,-224.7 307.55,-212.97"/>
<polygon fill="black" stroke="black" points="307.45,-216.07 308.98,-211 304.62,-214.01 307.45,-216.07"/>
</g>
<!-- function&#45;2&#45;Blt&#45;&gt;function&#45;1&#45;ImmVal -->
<g id="edge24" class="edge">
<title>function&#45;2&#45;Blt:s&#45;&gt;function&#45;1&#45;ImmVal</title>
<path fill="none" stroke="black" d="M425,-253C425,-229.11 403.21,-232.43 388,-214 366,-187.35 343.22,-154.54 329.08,-133.45"/>
<polygon fill="black" stroke="black" points="332.23,-133.67 327.2,-132 330.09,-136.44 332.23,-133.67"/>
</g>
<!-- function&#45;2&#45;Blt&#45;&gt;function&#45;0&#45;RegVal -->
<g id="edge22" class="edge">
<title>function&#45;2&#45;Blt:s&#45;&gt;function&#45;0&#45;RegVal</title>
<path fill="none" stroke="black" d="M406,-253C406,-248.48 289.5,-216.15 230.46,-200.06"/>
<polygon fill="black" stroke="black" points="233.89,-200.79 229,-198.74 231.54,-203.39 233.89,-200.79"/>
</g>
<!-- function&#45;2&#45;Blt&#45;&gt;function&#45;1&#45;RegVal -->
<g id="edge23" class="edge">
<title>function&#45;2&#45;Blt:s&#45;&gt;function&#45;1&#45;RegVal</title>
<path fill="none" stroke="black" d="M418,-253C418,-239.11 422.97,-224.42 428.18,-212.83"/>
<polygon fill="black" stroke="black" points="428.07,-216.12 429.41,-211 425.17,-214.17 428.07,-216.12"/>
</g>
<!-- function&#45;1&#45;Jal&#45;&gt;function&#45;1&#45;ImmVal -->
<g id="edge20" class="edge">
<title>function&#45;1&#45;Jal:s&#45;&gt;function&#45;1&#45;ImmVal</title>
<path fill="none" stroke="black" d="M315,-174C315,-160.84 315,-146.11 315,-134.3"/>
<polygon fill="black" stroke="black" points="316.75,-137 315,-132 313.25,-137 316.75,-137"/>
</g>
<!-- function&#45;1&#45;Blt&#45;&gt;function&#45;0&#45;ImmVal -->
<g id="edge14" class="edge">
<title>function&#45;1&#45;Blt:s&#45;&gt;function&#45;0&#45;ImmVal</title>
<path fill="none" stroke="black" d="M144,-332C144,-284.3 70.92,-332.39 44,-293 27.92,-269.47 33.23,-235.25 39.4,-213.05"/>
<polygon fill="black" stroke="black" points="39.43,-216.11 40.81,-211 36.54,-214.14 39.43,-216.11"/>
</g>
<!-- function&#45;1&#45;Blt&#45;&gt;function&#45;0&#45;RegVal -->
<g id="edge12" class="edge">
<title>function&#45;1&#45;Blt:s&#45;&gt;function&#45;0&#45;RegVal</title>
<path fill="none" stroke="black" d="M125,-332C125,-293.08 116.88,-279.44 135,-245 141.99,-231.72 153.68,-220.25 165.05,-211.33"/>
<polygon fill="black" stroke="black" points="161.88,-214.05 166.21,-211 160.92,-210.69 161.88,-214.05"/>
</g>
<!-- function&#45;1&#45;Blt&#45;&gt;function&#45;1&#45;RegVal -->
<g id="edge13" class="edge">
<title>function&#45;1&#45;Blt:s&#45;&gt;function&#45;1&#45;RegVal</title>
<path fill="none" stroke="black" d="M137,-332C137,-250.21 447.86,-353.41 503,-293 517.38,-277.24 511.91,-264.38 503,-245 496.62,-231.13 484.73,-219.49 472.97,-210.61"/>
<polygon fill="black" stroke="black" points="476.57,-212.14 472,-209.46 473.91,-214.4 476.57,-212.14"/>
</g>
<!-- function&#45;0&#45;Bge&#45;&gt;function&#45;0&#45;ImmVal -->
<g id="edge17" class="edge">
<title>function&#45;0&#45;Bge:s&#45;&gt;function&#45;0&#45;ImmVal</title>
<path fill="none" stroke="black" d="M205,-332C205,-263.12 99.24,-345.8 55,-293 45.21,-281.32 44.95,-239.48 45.84,-213.16"/>
<polygon fill="black" stroke="black" points="47.34,-216.13 46.03,-211 43.85,-215.83 47.34,-216.13"/>
</g>
<!-- function&#45;0&#45;Bge&#45;&gt;function&#45;0&#45;RegVal -->
<g id="edge16" class="edge">
<title>function&#45;0&#45;Bge:s&#45;&gt;function&#45;0&#45;RegVal</title>
<path fill="none" stroke="black" d="M196,-332C196,-302.75 156.2,-319.1 143,-293 133.37,-273.96 134.84,-264.71 143,-245 148.37,-232.02 158.55,-220.54 168.63,-211.54"/>
<polygon fill="black" stroke="black" points="166.05,-214.91 169.63,-211 164.39,-211.82 166.05,-214.91"/>
</g>
<!-- function&#45;0&#45;Bge&#45;&gt;function&#45;1&#45;RegVal -->
<g id="edge15" class="edge">
<title>function&#45;0&#45;Bge:s&#45;&gt;function&#45;1&#45;RegVal</title>
<path fill="none" stroke="black" d="M182,-332C182,-257.71 464.63,-348.51 514,-293 528.18,-277.06 523.67,-264.02 514,-245 505.38,-228.04 488.66,-215.14 473.29,-206.21"/>
<polygon fill="black" stroke="black" points="476.46,-207.42 472,-204.56 473.7,-209.58 476.46,-207.42"/>
</g>
<!-- function&#45;0&#45;Seq2&#45;&gt;function&#45;0&#45;Blt -->
<g id="edge18" class="edge">
<title>function&#45;0&#45;Seq2:s&#45;&gt;function&#45;0&#45;Blt</title>
<path fill="none" stroke="black" d="M64,-332C64,-322.96 109.64,-299.85 142.12,-284.54"/>
<polygon fill="black" stroke="black" points="140.73,-287.5 144,-283.34 138.84,-284.55 140.73,-287.5"/>
</g>
<!-- function&#45;0&#45;Seq2&#45;&gt;function&#45;0&#45;Jal -->
<g id="edge19" class="edge">
<title>function&#45;0&#45;Seq2:s&#45;&gt;function&#45;0&#45;Jal</title>
<path fill="none" stroke="black" d="M86,-332C86,-318.84 86,-304.11 86,-292.3"/>
<polygon fill="black" stroke="black" points="87.75,-295 86,-290 84.25,-295 87.75,-295"/>
</g>
<!-- function&#45;0&#45;Jal&#45;&gt;function&#45;0&#45;ImmVal -->
<g id="edge21" class="edge">
<title>function&#45;0&#45;Jal:s&#45;&gt;function&#45;0&#45;ImmVal</title>
<path fill="none" stroke="black" d="M86,-253C86,-237.82 77.52,-223.32 68.48,-212.17"/>
<polygon fill="black" stroke="black" points="72.05,-212.95 67.13,-211 69.76,-215.6 72.05,-212.95"/>
</g>
<!-- function&#45;2&#45;Bge&#45;&gt;function&#45;1&#45;ImmVal -->
<g id="edge27" class="edge">
<title>function&#45;2&#45;Bge:s&#45;&gt;function&#45;1&#45;ImmVal</title>
<path fill="none" stroke="black" d="M486,-253C486,-213.84 436.6,-239.63 407,-214 387.43,-197.06 390.99,-185.53 374,-166 363.69,-154.15 350.97,-142.23 339.99,-132.61"/>
<polygon fill="black" stroke="black" points="344.18,-133.22 339.03,-132 342.3,-136.17 344.18,-133.22"/>
</g>
<!-- function&#45;2&#45;Bge&#45;&gt;function&#45;0&#45;RegVal -->
<g id="edge26" class="edge">
<title>function&#45;2&#45;Bge:s&#45;&gt;function&#45;0&#45;RegVal</title>
<path fill="none" stroke="black" d="M477,-253C477,-236.61 457.04,-248.37 441,-245 371.39,-230.4 353.31,-229.99 284,-214 266.34,-209.93 246.82,-204.82 230.76,-200.46"/>
<polygon fill="black" stroke="black" points="234.04,-200.75 229,-199.13 231.93,-203.54 234.04,-200.75"/>
</g>
<!-- function&#45;2&#45;Bge&#45;&gt;function&#45;1&#45;RegVal -->
<g id="edge25" class="edge">
<title>function&#45;2&#45;Bge:s&#45;&gt;function&#45;1&#45;RegVal</title>
<path fill="none" stroke="black" d="M463,-253C463,-239.04 457.81,-224.35 452.36,-212.77"/>
<polygon fill="black" stroke="black" points="455.43,-213.94 451.02,-211 452.64,-216.05 455.43,-213.94"/>
</g>
<!-- function&#45;2&#45;Seq2&#45;&gt;function&#45;1&#45;Seq2 -->
<g id="edge28" class="edge">
<title>function&#45;2&#45;Seq2:s&#45;&gt;function&#45;1&#45;Seq2</title>
<path fill="none" stroke="black" d="M345,-253C345,-241.59 333.78,-243.91 321.57,-249.8"/>
<polygon fill="black" stroke="black" points="322.71,-246.57 320,-251.12 324.96,-249.26 322.71,-246.57"/>
</g>
<!-- function&#45;2&#45;Seq2&#45;&gt;function&#45;1&#45;Jal -->
<g id="edge29" class="edge">
<title>function&#45;2&#45;Seq2:s&#45;&gt;function&#45;1&#45;Jal</title>
<path fill="none" stroke="black" d="M367,-253C367,-236.59 356.18,-222.25 344.4,-211.5"/>
<polygon fill="black" stroke="black" points="348.65,-211.66 343.39,-211 347.09,-214.8 348.65,-211.66"/>
</g>
<!-- function&#45;0&#45;ImmVal -->
<g id="node1" class="node">
<title>function&#45;0&#45;ImmVal</title>
<g id="a_node1"><a xlink:title="Imm&#45;2: function&#45;0&#45;ImmVal">
<path fill="white" stroke="transparent" d="M26.67,-174C26.67,-174 67.33,-174 67.33,-174 72.67,-174 78,-179.33 78,-184.67 78,-184.67 78,-195.33 78,-195.33 78,-200.67 72.67,-206 67.33,-206 67.33,-206 26.67,-206 26.67,-206 21.33,-206 16,-200.67 16,-195.33 16,-195.33 16,-184.67 16,-184.67 16,-179.33 21.33,-174 26.67,-174"/>
<text text-anchor="start" x="21" y="-186.3" font-family="Helvetica,sans-Serif" font-size="14.00">ImmVal</text>
<path fill="none" stroke="black" d="M26.67,-174C26.67,-174 67.33,-174 67.33,-174 72.67,-174 78,-179.33 78,-184.67 78,-184.67 78,-195.33 78,-195.33 78,-200.67 72.67,-206 67.33,-206 67.33,-206 26.67,-206 26.67,-206 21.33,-206 16,-200.67 16,-195.33 16,-195.33 16,-184.67 16,-184.67 16,-179.33 21.33,-174 26.67,-174"/>
</a>
</g>
</g>
<!-- primitive&#45;i64&#45;125564 -->
<g id="node2" class="node">
<title>primitive&#45;i64&#45;125564</title>
<g id="a_node2"><a xlink:title="i64&#45;125564: primitive&#45;i64&#45;125564">
<path fill="white" stroke="transparent" d="M25.17,-95C25.17,-95 68.83,-95 68.83,-95 74.17,-95 79.5,-100.33 79.5,-105.67 79.5,-105.67 79.5,-116.33 79.5,-116.33 79.5,-121.67 74.17,-127 68.83,-127 68.83,-127 25.17,-127 25.17,-127 19.83,-127 14.5,-121.67 14.5,-116.33 14.5,-116.33 14.5,-105.67 14.5,-105.67 14.5,-100.33 19.83,-95 25.17,-95"/>
<text text-anchor="start" x="20" y="-107.3" font-family="Helvetica,sans-Serif" font-size="14.00">125564</text>
<path fill="none" stroke="black" d="M25.17,-95C25.17,-95 68.83,-95 68.83,-95 74.17,-95 79.5,-100.33 79.5,-105.67 79.5,-105.67 79.5,-116.33 79.5,-116.33 79.5,-121.67 74.17,-127 68.83,-127 68.83,-127 25.17,-127 25.17,-127 19.83,-127 14.5,-121.67 14.5,-116.33 14.5,-116.33 14.5,-105.67 14.5,-105.67 14.5,-100.33 19.83,-95 25.17,-95"/>
</a>
</g>
</g>
<!-- function&#45;1&#45;ImmVal -->
<g id="node3" class="node">
<title>function&#45;1&#45;ImmVal</title>
<g id="a_node3"><a xlink:title="Imm&#45;4: function&#45;1&#45;ImmVal">
<path fill="white" stroke="transparent" d="M294.67,-95C294.67,-95 335.33,-95 335.33,-95 340.67,-95 346,-100.33 346,-105.67 346,-105.67 346,-116.33 346,-116.33 346,-121.67 340.67,-127 335.33,-127 335.33,-127 294.67,-127 294.67,-127 289.33,-127 284,-121.67 284,-116.33 284,-116.33 284,-105.67 284,-105.67 284,-100.33 289.33,-95 294.67,-95"/>
<text text-anchor="start" x="289" y="-107.3" font-family="Helvetica,sans-Serif" font-size="14.00">ImmVal</text>
<path fill="none" stroke="black" d="M294.67,-95C294.67,-95 335.33,-95 335.33,-95 340.67,-95 346,-100.33 346,-105.67 346,-105.67 346,-116.33 346,-116.33 346,-121.67 340.67,-127 335.33,-127 335.33,-127 294.67,-127 294.67,-127 289.33,-127 284,-121.67 284,-116.33 284,-116.33 284,-105.67 284,-105.67 284,-100.33 289.33,-95 294.67,-95"/>
</a>
</g>
</g>
<!-- primitive&#45;i64&#45;4 -->
<g id="node4" class="node">
<title>primitive&#45;i64&#45;4</title>
<g id="a_node4"><a xlink:title="i64&#45;4: primitive&#45;i64&#45;4">
<path fill="white" stroke="transparent" d="M309.67,-16C309.67,-16 320.33,-16 320.33,-16 325.67,-16 331,-21.33 331,-26.67 331,-26.67 331,-37.33 331,-37.33 331,-42.67 325.67,-48 320.33,-48 320.33,-48 309.67,-48 309.67,-48 304.33,-48 299,-42.67 299,-37.33 299,-37.33 299,-26.67 299,-26.67 299,-21.33 304.33,-16 309.67,-16"/>
<text text-anchor="start" x="310" y="-28.3" font-family="Helvetica,sans-Serif" font-size="14.00">4</text>
<path fill="none" stroke="black" d="M309.67,-16C309.67,-16 320.33,-16 320.33,-16 325.67,-16 331,-21.33 331,-26.67 331,-26.67 331,-37.33 331,-37.33 331,-42.67 325.67,-48 320.33,-48 320.33,-48 309.67,-48 309.67,-48 304.33,-48 299,-42.67 299,-37.33 299,-37.33 299,-26.67 299,-26.67 299,-21.33 304.33,-16 309.67,-16"/>
</a>
</g>
</g>
<!-- function&#45;0&#45;RegVal -->
<g id="node5" class="node">
<title>function&#45;0&#45;RegVal</title>
<g id="a_node5"><a xlink:title="Inst&#45;0: function&#45;0&#45;RegVal">
<path fill="white" stroke="transparent" d="M179.17,-174C179.17,-174 214.83,-174 214.83,-174 220.17,-174 225.5,-179.33 225.5,-184.67 225.5,-184.67 225.5,-195.33 225.5,-195.33 225.5,-200.67 220.17,-206 214.83,-206 214.83,-206 179.17,-206 179.17,-206 173.83,-206 168.5,-200.67 168.5,-195.33 168.5,-195.33 168.5,-184.67 168.5,-184.67 168.5,-179.33 173.83,-174 179.17,-174"/>
<text text-anchor="start" x="174" y="-186.3" font-family="Helvetica,sans-Serif" font-size="14.00">RegVal</text>
<path fill="none" stroke="black" d="M179.17,-174C179.17,-174 214.83,-174 214.83,-174 220.17,-174 225.5,-179.33 225.5,-184.67 225.5,-184.67 225.5,-195.33 225.5,-195.33 225.5,-200.67 220.17,-206 214.83,-206 214.83,-206 179.17,-206 179.17,-206 173.83,-206 168.5,-200.67 168.5,-195.33 168.5,-195.33 168.5,-184.67 168.5,-184.67 168.5,-179.33 173.83,-174 179.17,-174"/>
</a>
</g>
</g>
<!-- primitive&#45;String&#45;0 -->
<g id="node6" class="node">
<title>primitive&#45;String&#45;0</title>
<g id="a_node6"><a xlink:title="String&#45;0: primitive&#45;String&#45;0">
<path fill="white" stroke="transparent" d="M180.17,-95C180.17,-95 215.83,-95 215.83,-95 221.17,-95 226.5,-100.33 226.5,-105.67 226.5,-105.67 226.5,-116.33 226.5,-116.33 226.5,-121.67 221.17,-127 215.83,-127 215.83,-127 180.17,-127 180.17,-127 174.83,-127 169.5,-121.67 169.5,-116.33 169.5,-116.33 169.5,-105.67 169.5,-105.67 169.5,-100.33 174.83,-95 180.17,-95"/>
<text text-anchor="start" x="175" y="-107.3" font-family="Helvetica,sans-Serif" font-size="14.00">&quot;a4_0&quot;</text>
<path fill="none" stroke="black" d="M180.17,-95C180.17,-95 215.83,-95 215.83,-95 221.17,-95 226.5,-100.33 226.5,-105.67 226.5,-105.67 226.5,-116.33 226.5,-116.33 226.5,-121.67 221.17,-127 215.83,-127 215.83,-127 180.17,-127 180.17,-127 174.83,-127 169.5,-121.67 169.5,-116.33 169.5,-116.33 169.5,-105.67 169.5,-105.67 169.5,-100.33 174.83,-95 180.17,-95"/>
</a>
</g>
</g>
<!-- function&#45;0&#45;Blt -->
<g id="node7" class="node">
<title>function&#45;0&#45;Blt</title>
<g id="a_node7"><a xlink:title="Inst&#45;5: function&#45;0&#45;Blt">
<path fill="white" stroke="transparent" d="M168.67,-253C168.67,-253 179.33,-253 179.33,-253 184.67,-253 190,-258.33 190,-263.67 190,-263.67 190,-274.33 190,-274.33 190,-279.67 184.67,-285 179.33,-285 179.33,-285 168.67,-285 168.67,-285 163.33,-285 158,-279.67 158,-274.33 158,-274.33 158,-263.67 158,-263.67 158,-258.33 163.33,-253 168.67,-253"/>
<text text-anchor="start" x="164.5" y="-265.3" font-family="Helvetica,sans-Serif" font-size="14.00">Blt</text>
<path fill="none" stroke="black" d="M168.67,-253C168.67,-253 179.33,-253 179.33,-253 184.67,-253 190,-258.33 190,-263.67 190,-263.67 190,-274.33 190,-274.33 190,-279.67 184.67,-285 179.33,-285 179.33,-285 168.67,-285 168.67,-285 163.33,-285 158,-279.67 158,-274.33 158,-274.33 158,-263.67 158,-263.67 158,-258.33 163.33,-253 168.67,-253"/>
</a>
</g>
</g>
<!-- function&#45;1&#45;RegVal -->
<g id="node8" class="node">
<title>function&#45;1&#45;RegVal</title>
<g id="a_node8"><a xlink:title="Inst&#45;1: function&#45;1&#45;RegVal">
<path fill="white" stroke="transparent" d="M422.17,-174C422.17,-174 457.83,-174 457.83,-174 463.17,-174 468.5,-179.33 468.5,-184.67 468.5,-184.67 468.5,-195.33 468.5,-195.33 468.5,-200.67 463.17,-206 457.83,-206 457.83,-206 422.17,-206 422.17,-206 416.83,-206 411.5,-200.67 411.5,-195.33 411.5,-195.33 411.5,-184.67 411.5,-184.67 411.5,-179.33 416.83,-174 422.17,-174"/>
<text text-anchor="start" x="417" y="-186.3" font-family="Helvetica,sans-Serif" font-size="14.00">RegVal</text>
<path fill="none" stroke="black" d="M422.17,-174C422.17,-174 457.83,-174 457.83,-174 463.17,-174 468.5,-179.33 468.5,-184.67 468.5,-184.67 468.5,-195.33 468.5,-195.33 468.5,-200.67 463.17,-206 457.83,-206 457.83,-206 422.17,-206 422.17,-206 416.83,-206 411.5,-200.67 411.5,-195.33 411.5,-195.33 411.5,-184.67 411.5,-184.67 411.5,-179.33 416.83,-174 422.17,-174"/>
</a>
</g>
</g>
<!-- function&#45;1&#45;Bge -->
<g id="node9" class="node">
<title>function&#45;1&#45;Bge</title>
<g id="a_node9"><a xlink:title="Inst&#45;5: function&#45;1&#45;Bge">
<path fill="white" stroke="transparent" d="M223.67,-253C223.67,-253 240.33,-253 240.33,-253 245.67,-253 251,-258.33 251,-263.67 251,-263.67 251,-274.33 251,-274.33 251,-279.67 245.67,-285 240.33,-285 240.33,-285 223.67,-285 223.67,-285 218.33,-285 213,-279.67 213,-274.33 213,-274.33 213,-263.67 213,-263.67 213,-258.33 218.33,-253 223.67,-253"/>
<text text-anchor="start" x="218" y="-265.3" font-family="Helvetica,sans-Serif" font-size="14.00">Bge</text>
<path fill="none" stroke="black" d="M223.67,-253C223.67,-253 240.33,-253 240.33,-253 245.67,-253 251,-258.33 251,-263.67 251,-263.67 251,-274.33 251,-274.33 251,-279.67 245.67,-285 240.33,-285 240.33,-285 223.67,-285 223.67,-285 218.33,-285 213,-279.67 213,-274.33 213,-274.33 213,-263.67 213,-263.67 213,-258.33 218.33,-253 223.67,-253"/>
</a>
</g>
</g>
<!-- function&#45;1&#45;Seq2 -->
<g id="node10" class="node">
<title>function&#45;1&#45;Seq2</title>
<g id="a_node10"><a xlink:title="Inst&#45;5: function&#45;1&#45;Seq2">
<path fill="white" stroke="transparent" d="M277.67,-253C277.67,-253 302.33,-253 302.33,-253 307.67,-253 313,-258.33 313,-263.67 313,-263.67 313,-274.33 313,-274.33 313,-279.67 307.67,-285 302.33,-285 302.33,-285 277.67,-285 277.67,-285 272.33,-285 267,-279.67 267,-274.33 267,-274.33 267,-263.67 267,-263.67 267,-258.33 272.33,-253 277.67,-253"/>
<text text-anchor="start" x="272" y="-265.3" font-family="Helvetica,sans-Serif" font-size="14.00">Seq2</text>
<path fill="none" stroke="black" d="M277.67,-253C277.67,-253 302.33,-253 302.33,-253 307.67,-253 313,-258.33 313,-263.67 313,-263.67 313,-274.33 313,-274.33 313,-279.67 307.67,-285 302.33,-285 302.33,-285 277.67,-285 277.67,-285 272.33,-285 267,-279.67 267,-274.33 267,-274.33 267,-263.67 267,-263.67 267,-258.33 272.33,-253 277.67,-253"/>
</a>
</g>
</g>
<!-- function&#45;2&#45;Blt -->
<g id="node11" class="node">
<title>function&#45;2&#45;Blt</title>
<g id="a_node11"><a xlink:title="Inst&#45;7: function&#45;2&#45;Blt">
<path fill="white" stroke="transparent" d="M408.67,-253C408.67,-253 419.33,-253 419.33,-253 424.67,-253 430,-258.33 430,-263.67 430,-263.67 430,-274.33 430,-274.33 430,-279.67 424.67,-285 419.33,-285 419.33,-285 408.67,-285 408.67,-285 403.33,-285 398,-279.67 398,-274.33 398,-274.33 398,-263.67 398,-263.67 398,-258.33 403.33,-253 408.67,-253"/>
<text text-anchor="start" x="404.5" y="-265.3" font-family="Helvetica,sans-Serif" font-size="14.00">Blt</text>
<path fill="none" stroke="black" d="M408.67,-253C408.67,-253 419.33,-253 419.33,-253 424.67,-253 430,-258.33 430,-263.67 430,-263.67 430,-274.33 430,-274.33 430,-279.67 424.67,-285 419.33,-285 419.33,-285 408.67,-285 408.67,-285 403.33,-285 398,-279.67 398,-274.33 398,-274.33 398,-263.67 398,-263.67 398,-258.33 403.33,-253 408.67,-253"/>
</a>
</g>
</g>
<!-- function&#45;1&#45;Jal -->
<g id="node12" class="node">
<title>function&#45;1&#45;Jal</title>
<g id="a_node12"><a xlink:title="Inst&#45;8: function&#45;1&#45;Jal">
<path fill="white" stroke="transparent" d="M309.67,-174C309.67,-174 320.33,-174 320.33,-174 325.67,-174 331,-179.33 331,-184.67 331,-184.67 331,-195.33 331,-195.33 331,-200.67 325.67,-206 320.33,-206 320.33,-206 309.67,-206 309.67,-206 304.33,-206 299,-200.67 299,-195.33 299,-195.33 299,-184.67 299,-184.67 299,-179.33 304.33,-174 309.67,-174"/>
<text text-anchor="start" x="306.5" y="-186.3" font-family="Helvetica,sans-Serif" font-size="14.00">Jal</text>
<path fill="none" stroke="black" d="M309.67,-174C309.67,-174 320.33,-174 320.33,-174 325.67,-174 331,-179.33 331,-184.67 331,-184.67 331,-195.33 331,-195.33 331,-200.67 325.67,-206 320.33,-206 320.33,-206 309.67,-206 309.67,-206 304.33,-206 299,-200.67 299,-195.33 299,-195.33 299,-184.67 299,-184.67 299,-179.33 304.33,-174 309.67,-174"/>
</a>
</g>
</g>
<!-- function&#45;1&#45;Blt -->
<g id="node13" class="node">
<title>function&#45;1&#45;Blt</title>
<g id="a_node13"><a xlink:title="Inst&#45;3: function&#45;1&#45;Blt">
<path fill="white" stroke="transparent" d="M127.67,-332C127.67,-332 138.33,-332 138.33,-332 143.67,-332 149,-337.33 149,-342.67 149,-342.67 149,-353.33 149,-353.33 149,-358.67 143.67,-364 138.33,-364 138.33,-364 127.67,-364 127.67,-364 122.33,-364 117,-358.67 117,-353.33 117,-353.33 117,-342.67 117,-342.67 117,-337.33 122.33,-332 127.67,-332"/>
<text text-anchor="start" x="123.5" y="-344.3" font-family="Helvetica,sans-Serif" font-size="14.00">Blt</text>
<path fill="none" stroke="black" d="M127.67,-332C127.67,-332 138.33,-332 138.33,-332 143.67,-332 149,-337.33 149,-342.67 149,-342.67 149,-353.33 149,-353.33 149,-358.67 143.67,-364 138.33,-364 138.33,-364 127.67,-364 127.67,-364 122.33,-364 117,-358.67 117,-353.33 117,-353.33 117,-342.67 117,-342.67 117,-337.33 122.33,-332 127.67,-332"/>
</a>
</g>
</g>
<!-- function&#45;0&#45;Bge -->
<g id="node14" class="node">
<title>function&#45;0&#45;Bge</title>
<g id="a_node14"><a xlink:title="Inst&#45;3: function&#45;0&#45;Bge">
<path fill="white" stroke="transparent" d="M182.67,-332C182.67,-332 199.33,-332 199.33,-332 204.67,-332 210,-337.33 210,-342.67 210,-342.67 210,-353.33 210,-353.33 210,-358.67 204.67,-364 199.33,-364 199.33,-364 182.67,-364 182.67,-364 177.33,-364 172,-358.67 172,-353.33 172,-353.33 172,-342.67 172,-342.67 172,-337.33 177.33,-332 182.67,-332"/>
<text text-anchor="start" x="177" y="-344.3" font-family="Helvetica,sans-Serif" font-size="14.00">Bge</text>
<path fill="none" stroke="black" d="M182.67,-332C182.67,-332 199.33,-332 199.33,-332 204.67,-332 210,-337.33 210,-342.67 210,-342.67 210,-353.33 210,-353.33 210,-358.67 204.67,-364 199.33,-364 199.33,-364 182.67,-364 182.67,-364 177.33,-364 172,-358.67 172,-353.33 172,-353.33 172,-342.67 172,-342.67 172,-337.33 177.33,-332 182.67,-332"/>
</a>
</g>
</g>
<!-- function&#45;0&#45;Seq2 -->
<g id="node15" class="node">
<title>function&#45;0&#45;Seq2</title>
<g id="a_node15"><a xlink:title="Inst&#45;3: function&#45;0&#45;Seq2">
<path fill="white" stroke="transparent" d="M62.67,-332C62.67,-332 87.33,-332 87.33,-332 92.67,-332 98,-337.33 98,-342.67 98,-342.67 98,-353.33 98,-353.33 98,-358.67 92.67,-364 87.33,-364 87.33,-364 62.67,-364 62.67,-364 57.33,-364 52,-358.67 52,-353.33 52,-353.33 52,-342.67 52,-342.67 52,-337.33 57.33,-332 62.67,-332"/>
<text text-anchor="start" x="57" y="-344.3" font-family="Helvetica,sans-Serif" font-size="14.00">Seq2</text>
<path fill="none" stroke="black" d="M62.67,-332C62.67,-332 87.33,-332 87.33,-332 92.67,-332 98,-337.33 98,-342.67 98,-342.67 98,-353.33 98,-353.33 98,-358.67 92.67,-364 87.33,-364 87.33,-364 62.67,-364 62.67,-364 57.33,-364 52,-358.67 52,-353.33 52,-353.33 52,-342.67 52,-342.67 52,-337.33 57.33,-332 62.67,-332"/>
</a>
</g>
</g>
<!-- function&#45;0&#45;Jal -->
<g id="node16" class="node">
<title>function&#45;0&#45;Jal</title>
<g id="a_node16"><a xlink:title="Inst&#45;6: function&#45;0&#45;Jal">
<path fill="white" stroke="transparent" d="M80.67,-253C80.67,-253 91.33,-253 91.33,-253 96.67,-253 102,-258.33 102,-263.67 102,-263.67 102,-274.33 102,-274.33 102,-279.67 96.67,-285 91.33,-285 91.33,-285 80.67,-285 80.67,-285 75.33,-285 70,-279.67 70,-274.33 70,-274.33 70,-263.67 70,-263.67 70,-258.33 75.33,-253 80.67,-253"/>
<text text-anchor="start" x="77.5" y="-265.3" font-family="Helvetica,sans-Serif" font-size="14.00">Jal</text>
<path fill="none" stroke="black" d="M80.67,-253C80.67,-253 91.33,-253 91.33,-253 96.67,-253 102,-258.33 102,-263.67 102,-263.67 102,-274.33 102,-274.33 102,-279.67 96.67,-285 91.33,-285 91.33,-285 80.67,-285 80.67,-285 75.33,-285 70,-279.67 70,-274.33 70,-274.33 70,-263.67 70,-263.67 70,-258.33 75.33,-253 80.67,-253"/>
</a>
</g>
</g>
<!-- function&#45;2&#45;Bge -->
<g id="node17" class="node">
<title>function&#45;2&#45;Bge</title>
<g id="a_node17"><a xlink:title="Inst&#45;7: function&#45;2&#45;Bge">
<path fill="white" stroke="transparent" d="M463.67,-253C463.67,-253 480.33,-253 480.33,-253 485.67,-253 491,-258.33 491,-263.67 491,-263.67 491,-274.33 491,-274.33 491,-279.67 485.67,-285 480.33,-285 480.33,-285 463.67,-285 463.67,-285 458.33,-285 453,-279.67 453,-274.33 453,-274.33 453,-263.67 453,-263.67 453,-258.33 458.33,-253 463.67,-253"/>
<text text-anchor="start" x="458" y="-265.3" font-family="Helvetica,sans-Serif" font-size="14.00">Bge</text>
<path fill="none" stroke="black" d="M463.67,-253C463.67,-253 480.33,-253 480.33,-253 485.67,-253 491,-258.33 491,-263.67 491,-263.67 491,-274.33 491,-274.33 491,-279.67 485.67,-285 480.33,-285 480.33,-285 463.67,-285 463.67,-285 458.33,-285 453,-279.67 453,-274.33 453,-274.33 453,-263.67 453,-263.67 453,-258.33 458.33,-253 463.67,-253"/>
</a>
</g>
</g>
<!-- function&#45;2&#45;Seq2 -->
<g id="node18" class="node">
<title>function&#45;2&#45;Seq2</title>
<g id="a_node18"><a xlink:title="Inst&#45;7: function&#45;2&#45;Seq2">
<path fill="white" stroke="transparent" d="M343.67,-253C343.67,-253 368.33,-253 368.33,-253 373.67,-253 379,-258.33 379,-263.67 379,-263.67 379,-274.33 379,-274.33 379,-279.67 373.67,-285 368.33,-285 368.33,-285 343.67,-285 343.67,-285 338.33,-285 333,-279.67 333,-274.33 333,-274.33 333,-263.67 333,-263.67 333,-258.33 338.33,-253 343.67,-253"/>
<text text-anchor="start" x="338" y="-265.3" font-family="Helvetica,sans-Serif" font-size="14.00">Seq2</text>
<path fill="none" stroke="black" d="M343.67,-253C343.67,-253 368.33,-253 368.33,-253 373.67,-253 379,-258.33 379,-263.67 379,-263.67 379,-274.33 379,-274.33 379,-279.67 373.67,-285 368.33,-285 368.33,-285 343.67,-285 343.67,-285 338.33,-285 333,-279.67 333,-274.33 333,-274.33 333,-263.67 333,-263.67 333,-258.33 338.33,-253 343.67,-253"/>
</a>
</g>
</g>
<!-- primitive&#45;String&#45;1 -->
<g id="node19" class="node">
<title>primitive&#45;String&#45;1</title>
<g id="a_node19"><a xlink:title="String&#45;1: primitive&#45;String&#45;1">
<path fill="white" stroke="transparent" d="M417.17,-95C417.17,-95 464.83,-95 464.83,-95 470.17,-95 475.5,-100.33 475.5,-105.67 475.5,-105.67 475.5,-116.33 475.5,-116.33 475.5,-121.67 470.17,-127 464.83,-127 464.83,-127 417.17,-127 417.17,-127 411.83,-127 406.5,-121.67 406.5,-116.33 406.5,-116.33 406.5,-105.67 406.5,-105.67 406.5,-100.33 411.83,-95 417.17,-95"/>
<text text-anchor="start" x="412" y="-107.3" font-family="Helvetica,sans-Serif" font-size="14.00">&quot;zero_0&quot;</text>
<path fill="none" stroke="black" d="M417.17,-95C417.17,-95 464.83,-95 464.83,-95 470.17,-95 475.5,-100.33 475.5,-105.67 475.5,-105.67 475.5,-116.33 475.5,-116.33 475.5,-121.67 470.17,-127 464.83,-127 464.83,-127 417.17,-127 417.17,-127 411.83,-127 406.5,-121.67 406.5,-116.33 406.5,-116.33 406.5,-105.67 406.5,-105.67 406.5,-100.33 411.83,-95 417.17,-95"/>
</a>
</g>
</g>
</g>
</svg>
