<?xml version="1.0" encoding="UTF-8" standalone="no"?>
<!DOCTYPE svg PUBLIC "-//W3C//DTD SVG 1.1//EN"
 "http://www.w3.org/Graphics/SVG/1.1/DTD/svg11.dtd">
<!-- Generated by graphviz version 2.43.0 (0)
 -->
<!-- Title: %3 Pages: 1 -->
<svg width="518pt" height="388pt"
 viewBox="0.00 0.00 518.32 388.00" xmlns="http://www.w3.org/2000/svg" xmlns:xlink="http://www.w3.org/1999/xlink">
<g id="graph0" class="graph" transform="scale(1 1) rotate(0) translate(4 384)">
<title>%3</title>
<polygon fill="white" stroke="#000000" points="-4,4 -4,-384 514.32,-384 514.32,4 -4,4"/>
<g id="clust1" class="cluster">
<title>outer_cluster_Imm&#45;4</title>
</g>
<g id="clust2" class="cluster">
<title>cluster_Imm&#45;4</title>
<path fill="#ffffb3" stroke="black" stroke-dasharray="5,2" d="M70,-169C70,-169 114,-169 114,-169 120,-169 126,-175 126,-181 126,-181 126,-199 126,-199 126,-205 120,-211 114,-211 114,-211 70,-211 70,-211 64,-211 58,-205 58,-199 58,-199 58,-181 58,-181 58,-175 64,-169 70,-169"/>
</g>
<g id="clust4" class="cluster">
<title>outer_cluster_Imm&#45;2</title>
</g>
<g id="clust5" class="cluster">
<title>cluster_Imm&#45;2</title>
<path fill="#ffffb3" stroke="black" stroke-dasharray="5,2" d="M352,-90C352,-90 396,-90 396,-90 402,-90 408,-96 408,-102 408,-102 408,-120 408,-120 408,-126 402,-132 396,-132 396,-132 352,-132 352,-132 346,-132 340,-126 340,-120 340,-120 340,-102 340,-102 340,-96 346,-90 352,-90"/>
</g>
<g id="clust7" class="cluster">
<title>outer_cluster_Imm&#45;6</title>
</g>
<g id="clust8" class="cluster">
<title>cluster_Imm&#45;6</title>
<path fill="#ffffb3" stroke="black" stroke-dasharray="5,2" d="M270,-90C270,-90 314,-90 314,-90 320,-90 326,-96 326,-102 326,-102 326,-120 326,-120 326,-126 320,-132 314,-132 314,-132 270,-132 270,-132 264,-132 258,-126 258,-120 258,-120 258,-102 258,-102 258,-96 264,-90 270,-90"/>
</g>
<g id="clust10" class="cluster">
<title>outer_cluster_Inst&#45;8</title>
</g>
<g id="clust11" class="cluster">
<title>cluster_Inst&#45;8</title>
<path fill="#bebada" stroke="black" stroke-dasharray="5,2" d="M34,-248C34,-248 70,-248 70,-248 76,-248 82,-254 82,-260 82,-260 82,-278 82,-278 82,-284 76,-290 70,-290 70,-290 34,-290 34,-290 28,-290 22,-284 22,-278 22,-278 22,-260 22,-260 22,-254 28,-248 34,-248"/>
</g>
<g id="clust13" class="cluster">
<title>outer_cluster_Inst&#45;7</title>
</g>
<g id="clust14" class="cluster">
<title>cluster_Inst&#45;7</title>
<path fill="#bebada" stroke="black" stroke-dasharray="5,2" d="M143,-248C143,-248 295,-248 295,-248 301,-248 307,-254 307,-260 307,-260 307,-278 307,-278 307,-284 301,-290 295,-290 295,-290 143,-290 143,-290 137,-290 131,-284 131,-278 131,-278 131,-260 131,-260 131,-254 137,-248 143,-248"/>
</g>
<g id="clust16" class="cluster">
<title>outer_cluster_Inst&#45;1</title>
</g>
<g id="clust17" class="cluster">
<title>cluster_Inst&#45;1</title>
<path fill="#bebada" stroke="black" stroke-dasharray="5,2" d="M426,-90C426,-90 466,-90 466,-90 472,-90 478,-96 478,-102 478,-102 478,-120 478,-120 478,-126 472,-132 466,-132 466,-132 426,-132 426,-132 420,-132 414,-126 414,-120 414,-120 414,-102 414,-102 414,-96 420,-90 426,-90"/>
</g>
<g id="clust19" class="cluster">
<title>outer_cluster_Inst&#45;11</title>
</g>
<g id="clust20" class="cluster">
<title>cluster_Inst&#45;11</title>
<path fill="#bebada" stroke="black" stroke-dasharray="5,2" d="M274,-169C274,-169 310,-169 310,-169 316,-169 322,-175 322,-181 322,-181 322,-199 322,-199 322,-205 316,-211 310,-211 310,-211 274,-211 274,-211 268,-211 262,-205 262,-199 262,-199 262,-181 262,-181 262,-175 268,-169 274,-169"/>
</g>
<g id="clust22" class="cluster">
<title>outer_cluster_Inst&#45;10</title>
</g>
<g id="clust23" class="cluster">
<title>cluster_Inst&#45;10</title>
<path fill="#bebada" stroke="black" stroke-dasharray="5,2" d="M325,-248C325,-248 477,-248 477,-248 483,-248 489,-254 489,-260 489,-260 489,-278 489,-278 489,-284 483,-290 477,-290 477,-290 325,-290 325,-290 319,-290 313,-284 313,-278 313,-278 313,-260 313,-260 313,-254 319,-248 325,-248"/>
</g>
<g id="clust25" class="cluster">
<title>outer_cluster_Inst&#45;5</title>
</g>
<g id="clust26" class="cluster">
<title>cluster_Inst&#45;5</title>
<path fill="#bebada" stroke="black" stroke-dasharray="5,2" d="M23,-327C23,-327 175,-327 175,-327 181,-327 187,-333 187,-339 187,-339 187,-357 187,-357 187,-363 181,-369 175,-369 175,-369 23,-369 23,-369 17,-369 11,-363 11,-357 11,-357 11,-339 11,-339 11,-333 17,-327 23,-327"/>
</g>
<g id="clust28" class="cluster">
<title>outer_cluster_Inst&#45;0</title>
</g>
<g id="clust29" class="cluster">
<title>cluster_Inst&#45;0</title>
<path fill="#bebada" stroke="black" stroke-dasharray="5,2" d="M157,-169C157,-169 197,-169 197,-169 203,-169 209,-175 209,-181 209,-181 209,-199 209,-199 209,-205 203,-211 197,-211 197,-211 157,-211 157,-211 151,-211 145,-205 145,-199 145,-199 145,-181 145,-181 145,-175 151,-169 157,-169"/>
</g>
<g id="clust31" class="cluster">
<title>outer_cluster_Inst&#45;3</title>
</g>
<g id="clust32" class="cluster">
<title>cluster_Inst&#45;3</title>
<path fill="#bebada" stroke="black" stroke-dasharray="5,2" d="M404,-169C404,-169 440,-169 440,-169 446,-169 452,-175 452,-181 452,-181 452,-199 452,-199 452,-205 446,-211 440,-211 440,-211 404,-211 404,-211 398,-211 392,-205 392,-199 392,-199 392,-181 392,-181 392,-175 398,-169 404,-169"/>
</g>
<g id="clust34" class="cluster">
<title>outer_cluster_String&#45;0</title>
</g>
<g id="clust35" class="cluster">
<title>cluster_String&#45;0</title>
<path fill="#fb8072" stroke="black" stroke-dasharray="5,2" d="M158,-90C158,-90 198,-90 198,-90 204,-90 210,-96 210,-102 210,-102 210,-120 210,-120 210,-126 204,-132 198,-132 198,-132 158,-132 158,-132 152,-132 146,-126 146,-120 146,-120 146,-102 146,-102 146,-96 152,-90 158,-90"/>
</g>
<g id="clust37" class="cluster">
<title>outer_cluster_String&#45;1</title>
</g>
<g id="clust38" class="cluster">
<title>cluster_String&#45;1</title>
<path fill="#fb8072" stroke="black" stroke-dasharray="5,2" d="M421,-11C421,-11 473,-11 473,-11 479,-11 485,-17 485,-23 485,-23 485,-41 485,-41 485,-47 479,-53 473,-53 473,-53 421,-53 421,-53 415,-53 409,-47 409,-41 409,-41 409,-23 409,-23 409,-17 415,-11 421,-11"/>
</g>
<g id="clust40" class="cluster">
<title>outer_cluster_i64&#45;0</title>
</g>
<g id="clust41" class="cluster">
<title>cluster_i64&#45;0</title>
<path fill="#80b1d3" stroke="black" stroke-dasharray="5,2" d="M74,-90C74,-90 110,-90 110,-90 116,-90 122,-96 122,-102 122,-102 122,-120 122,-120 122,-126 116,-132 110,-132 110,-132 74,-132 74,-132 68,-132 62,-126 62,-120 62,-120 62,-102 62,-102 62,-96 68,-90 74,-90"/>
</g>
<g id="clust43" class="cluster">
<title>outer_cluster_i64&#45;56</title>
</g>
<g id="clust44" class="cluster">
<title>cluster_i64&#45;56</title>
<path fill="#80b1d3" stroke="black" stroke-dasharray="5,2" d="M355,-11C355,-11 391,-11 391,-11 397,-11 403,-17 403,-23 403,-23 403,-41 403,-41 403,-47 397,-53 391,-53 391,-53 355,-53 355,-53 349,-53 343,-47 343,-41 343,-41 343,-23 343,-23 343,-17 349,-11 355,-11"/>
</g>
<g id="clust46" class="cluster">
<title>outer_cluster_i64&#45;4</title>
</g>
<g id="clust47" class="cluster">
<title>cluster_i64&#45;4</title>
<path fill="#80b1d3" stroke="black" stroke-dasharray="5,2" d="M274,-11C274,-11 310,-11 310,-11 316,-11 322,-17 322,-23 322,-23 322,-41 322,-41 322,-47 316,-53 310,-53 310,-53 274,-53 274,-53 268,-53 262,-47 262,-41 262,-41 262,-23 262,-23 262,-17 268,-11 274,-11"/>
</g>
<!-- function&#45;1&#45;ImmVal&#45;&gt;primitive&#45;i64&#45;0 -->
<g id="edge1" class="edge">
<title>function&#45;1&#45;ImmVal:s&#45;&gt;primitive&#45;i64&#45;0</title>
<path fill="none" stroke="black" d="M92,-174C92,-160.84 92,-146.11 92,-134.3"/>
<polygon fill="black" stroke="black" points="93.75,-137 92,-132 90.25,-137 93.75,-137"/>
</g>
<!-- function&#45;0&#45;ImmVal&#45;&gt;primitive&#45;i64&#45;56 -->
<g id="edge2" class="edge">
<title>function&#45;0&#45;ImmVal:s&#45;&gt;primitive&#45;i64&#45;56</title>
<path fill="none" stroke="black" d="M374,-95C374,-81.84 373.77,-67.1 373.53,-55.3"/>
<polygon fill="black" stroke="black" points="375.41,-57.91 373.42,-53 371.91,-58.08 375.41,-57.91"/>
</g>
<!-- function&#45;2&#45;ImmVal&#45;&gt;primitive&#45;i64&#45;4 -->
<g id="edge3" class="edge">
<title>function&#45;2&#45;ImmVal:s&#45;&gt;primitive&#45;i64&#45;4</title>
<path fill="none" stroke="black" d="M292,-95C292,-81.84 292,-67.11 292,-55.3"/>
<polygon fill="black" stroke="black" points="293.75,-58 292,-53 290.25,-58 293.75,-58"/>
</g>
<!-- function&#45;0&#45;Jal&#45;&gt;function&#45;1&#45;ImmVal -->
<g id="edge4" class="edge">
<title>function&#45;0&#45;Jal:s&#45;&gt;function&#45;1&#45;ImmVal</title>
<path fill="none" stroke="black" d="M52,-253C52,-237.71 60.69,-223.2 69.97,-212.07"/>
<polygon fill="black" stroke="black" points="68.45,-215.4 71.41,-211 66.35,-212.6 68.45,-215.4"/>
</g>
<!-- function&#45;2&#45;Blt&#45;&gt;function&#45;2&#45;ImmVal -->
<g id="edge7" class="edge">
<title>function&#45;2&#45;Blt:s&#45;&gt;function&#45;2&#45;ImmVal</title>
<path fill="none" stroke="black" d="M172,-253C172,-228.8 195.35,-233.26 210,-214 224.95,-194.34 222.92,-185.56 238,-166 247.16,-154.12 258.76,-142.2 268.87,-132.59"/>
<polygon fill="black" stroke="black" points="267,-136.66 269.51,-132 264.64,-134.07 267,-136.66"/>
</g>
<!-- function&#45;2&#45;Blt&#45;&gt;function&#45;0&#45;RegVal -->
<g id="edge5" class="edge">
<title>function&#45;2&#45;Blt:s&#45;&gt;function&#45;0&#45;RegVal</title>
<path fill="none" stroke="black" d="M153,-253C153,-239.06 158.34,-224.48 163.98,-212.96"/>
<polygon fill="black" stroke="black" points="163.88,-216.08 165.4,-211 161.05,-214.02 163.88,-216.08"/>
</g>
<!-- function&#45;2&#45;Blt&#45;&gt;function&#45;0&#45;Addi -->
<g id="edge6" class="edge">
<title>function&#45;2&#45;Blt:s&#45;&gt;function&#45;0&#45;Addi</title>
<path fill="none" stroke="black" d="M165,-253C165,-240.48 179.9,-248.21 192,-245 201.62,-242.45 328.8,-212.74 389.8,-198.51"/>
<polygon fill="black" stroke="black" points="388.39,-201.23 392,-197.35 386.76,-198.13 388.39,-201.23"/>
</g>
<!-- function&#45;0&#45;RegVal&#45;&gt;primitive&#45;String&#45;0 -->
<g id="edge31" class="edge">
<title>function&#45;0&#45;RegVal:s&#45;&gt;primitive&#45;String&#45;0</title>
<path fill="none" stroke="black" d="M178,-174C178,-160.84 178,-146.11 178,-134.3"/>
<polygon fill="black" stroke="black" points="179.75,-137 178,-132 176.25,-137 179.75,-137"/>
</g>
<!-- function&#45;0&#45;Addi&#45;&gt;function&#45;0&#45;ImmVal -->
<g id="edge33" class="edge">
<title>function&#45;0&#45;Addi:s&#45;&gt;function&#45;0&#45;ImmVal</title>
<path fill="none" stroke="black" d="M432,-174C432,-157.04 420.28,-142.79 407.37,-132.25"/>
<polygon fill="black" stroke="black" points="411.61,-131.5 406.34,-132 410.78,-134.9 411.61,-131.5"/>
</g>
<!-- function&#45;0&#45;Addi&#45;&gt;function&#45;1&#45;RegVal -->
<g id="edge32" class="edge">
<title>function&#45;0&#45;Addi:s&#45;&gt;function&#45;1&#45;RegVal</title>
<path fill="none" stroke="black" d="M412,-174C412,-159.26 419.48,-144.71 427.42,-133.41"/>
<polygon fill="black" stroke="black" points="426.75,-136.97 428.59,-132 424.05,-134.73 426.75,-136.97"/>
</g>
<!-- function&#45;1&#45;Bge&#45;&gt;function&#45;2&#45;ImmVal -->
<g id="edge10" class="edge">
<title>function&#45;1&#45;Bge:s&#45;&gt;function&#45;2&#45;ImmVal</title>
<path fill="none" stroke="black" d="M233,-253C233,-207.85 259.07,-160.43 276.55,-133.7"/>
<polygon fill="black" stroke="black" points="275.88,-136.61 278.49,-132 273.57,-133.98 275.88,-136.61"/>
</g>
<!-- function&#45;1&#45;Bge&#45;&gt;function&#45;0&#45;RegVal -->
<g id="edge9" class="edge">
<title>function&#45;1&#45;Bge:s&#45;&gt;function&#45;0&#45;RegVal</title>
<path fill="none" stroke="black" d="M224,-253C224,-237.1 214.07,-222.72 203.33,-211.82"/>
<polygon fill="black" stroke="black" points="206.93,-211.64 201.67,-211 205.39,-214.78 206.93,-211.64"/>
</g>
<!-- function&#45;1&#45;Bge&#45;&gt;function&#45;0&#45;Addi -->
<g id="edge8" class="edge">
<title>function&#45;1&#45;Bge:s&#45;&gt;function&#45;0&#45;Addi</title>
<path fill="none" stroke="black" d="M210,-253C210,-243.76 330.1,-213.31 389.51,-198.81"/>
<polygon fill="black" stroke="black" points="388.34,-201.37 392,-197.54 386.75,-198.25 388.34,-201.37"/>
</g>
<!-- function&#45;1&#45;Seq2&#45;&gt;function&#45;1&#45;Blt -->
<g id="edge11" class="edge">
<title>function&#45;1&#45;Seq2:s&#45;&gt;function&#45;1&#45;Blt</title>
<path fill="none" stroke="black" d="M266,-253C266,-205.81 325.96,-202.06 368,-223.5 377.53,-228.36 384.96,-237.41 390.33,-246.17"/>
<polygon fill="black" stroke="black" points="387.37,-245.62 392.1,-248 389.88,-243.19 387.37,-245.62"/>
</g>
<!-- function&#45;1&#45;Seq2&#45;&gt;function&#45;1&#45;Jal -->
<g id="edge12" class="edge">
<title>function&#45;1&#45;Seq2:s&#45;&gt;function&#45;1&#45;Jal</title>
<path fill="none" stroke="black" d="M288,-253C288,-239.81 288.91,-225.08 289.87,-213.28"/>
<polygon fill="black" stroke="black" points="291.08,-216.24 290.3,-211 287.64,-215.58 291.08,-216.24"/>
</g>
<!-- function&#45;1&#45;Blt&#45;&gt;function&#45;2&#45;ImmVal -->
<g id="edge17" class="edge">
<title>function&#45;1&#45;Blt:s&#45;&gt;function&#45;2&#45;ImmVal</title>
<path fill="none" stroke="black" d="M412,-253C412,-229.11 390.77,-231.95 375,-214 351.12,-186.83 325.01,-154.22 308.57,-133.31"/>
<polygon fill="black" stroke="black" points="312.03,-134.6 307.42,-132 309.4,-136.91 312.03,-134.6"/>
</g>
<!-- function&#45;1&#45;Blt&#45;&gt;function&#45;0&#45;RegVal -->
<g id="edge16" class="edge">
<title>function&#45;1&#45;Blt:s&#45;&gt;function&#45;0&#45;RegVal</title>
<path fill="none" stroke="black" d="M405,-253C405,-186.69 324.98,-231.42 261,-214 244.48,-209.5 226.15,-204.49 210.83,-200.29"/>
<polygon fill="black" stroke="black" points="214.04,-200.52 209,-198.9 211.93,-203.31 214.04,-200.52"/>
</g>
<!-- function&#45;1&#45;Blt&#45;&gt;function&#45;0&#45;Addi -->
<g id="edge15" class="edge">
<title>function&#45;1&#45;Blt:s&#45;&gt;function&#45;0&#45;Addi</title>
<path fill="none" stroke="black" d="M393,-253C393,-238.63 399.47,-224 406.3,-212.56"/>
<polygon fill="black" stroke="black" points="405.49,-215.65 408.03,-211 403.15,-213.06 405.49,-215.65"/>
</g>
<!-- function&#45;1&#45;Jal&#45;&gt;function&#45;2&#45;ImmVal -->
<g id="edge14" class="edge">
<title>function&#45;1&#45;Jal:s&#45;&gt;function&#45;2&#45;ImmVal</title>
<path fill="none" stroke="black" d="M292,-174C292,-160.84 292,-146.11 292,-134.3"/>
<polygon fill="black" stroke="black" points="293.75,-137 292,-132 290.25,-137 293.75,-137"/>
</g>
<!-- function&#45;1&#45;RegVal&#45;&gt;primitive&#45;String&#45;1 -->
<g id="edge13" class="edge">
<title>function&#45;1&#45;RegVal:s&#45;&gt;primitive&#45;String&#45;1</title>
<path fill="none" stroke="black" d="M447,-95C447,-81.84 447,-67.11 447,-55.3"/>
<polygon fill="black" stroke="black" points="448.75,-58 447,-53 445.25,-58 448.75,-58"/>
</g>
<!-- function&#45;2&#45;Bge&#45;&gt;function&#45;2&#45;ImmVal -->
<g id="edge20" class="edge">
<title>function&#45;2&#45;Bge:s&#45;&gt;function&#45;2&#45;ImmVal</title>
<path fill="none" stroke="black" d="M473,-253C473,-212.64 421.52,-240.41 391,-214 371.61,-197.22 376.29,-184.93 359,-166 347.68,-153.61 333.4,-141.7 320.93,-132.23"/>
<polygon fill="black" stroke="black" points="325.03,-131.27 319.78,-132 324.34,-134.7 325.03,-131.27"/>
</g>
<!-- function&#45;2&#45;Bge&#45;&gt;function&#45;0&#45;RegVal -->
<g id="edge18" class="edge">
<title>function&#45;2&#45;Bge:s&#45;&gt;function&#45;0&#45;RegVal</title>
<path fill="none" stroke="black" d="M450,-253C450,-242.6 438.04,-247.74 428,-245 355.17,-225.14 334.58,-230.87 261,-214 244.32,-210.17 225.96,-205.23 210.68,-200.91"/>
<polygon fill="black" stroke="black" points="213.93,-201.4 209,-199.48 211.66,-204.06 213.93,-201.4"/>
</g>
<!-- function&#45;2&#45;Bge&#45;&gt;function&#45;0&#45;Addi -->
<g id="edge19" class="edge">
<title>function&#45;2&#45;Bge:s&#45;&gt;function&#45;0&#45;Addi</title>
<path fill="none" stroke="black" d="M464,-253C464,-237.6 455.01,-223.18 445.35,-212.12"/>
<polygon fill="black" stroke="black" points="448.86,-212.48 443.77,-211 446.82,-215.33 448.86,-212.48"/>
</g>
<!-- function&#45;2&#45;Seq2&#45;&gt;function&#45;1&#45;Seq2 -->
<g id="edge21" class="edge">
<title>function&#45;2&#45;Seq2:s&#45;&gt;function&#45;1&#45;Seq2</title>
<path fill="none" stroke="black" d="M332,-253C332,-241.59 320.78,-243.91 308.57,-249.8"/>
<polygon fill="black" stroke="black" points="309.71,-246.57 307,-251.12 311.96,-249.26 309.71,-246.57"/>
</g>
<!-- function&#45;2&#45;Seq2&#45;&gt;function&#45;1&#45;Jal -->
<g id="edge22" class="edge">
<title>function&#45;2&#45;Seq2:s&#45;&gt;function&#45;1&#45;Jal</title>
<path fill="none" stroke="black" d="M354,-253C354,-233.66 338.73,-218.24 323.34,-207.62"/>
<polygon fill="black" stroke="black" points="326.34,-208.79 322,-205.75 323.5,-210.84 326.34,-208.79"/>
</g>
<!-- function&#45;0&#45;Blt&#45;&gt;function&#45;1&#45;ImmVal -->
<g id="edge25" class="edge">
<title>function&#45;0&#45;Blt:s&#45;&gt;function&#45;1&#45;ImmVal</title>
<path fill="none" stroke="black" d="M110,-332C110,-313.99 102.08,-310.74 99,-293 94.27,-265.75 92.71,-233.89 92.21,-213.12"/>
<polygon fill="black" stroke="black" points="94.1,-215.91 92.1,-211 90.6,-216.08 94.1,-215.91"/>
</g>
<!-- function&#45;0&#45;Blt&#45;&gt;function&#45;0&#45;RegVal -->
<g id="edge24" class="edge">
<title>function&#45;0&#45;Blt:s&#45;&gt;function&#45;0&#45;RegVal</title>
<path fill="none" stroke="black" d="M103,-332C103,-292.22 104.71,-279.78 124,-245 130.92,-232.53 141.5,-220.92 151.4,-211.69"/>
<polygon fill="black" stroke="black" points="149.4,-215.44 152.29,-211 147.26,-212.66 149.4,-215.44"/>
</g>
<!-- function&#45;0&#45;Blt&#45;&gt;function&#45;0&#45;Addi -->
<g id="edge23" class="edge">
<title>function&#45;0&#45;Blt:s&#45;&gt;function&#45;0&#45;Addi</title>
<path fill="none" stroke="black" d="M91,-332C91,-242.91 429.77,-358.64 490,-293 504.42,-277.28 499.28,-264.21 490,-245 482.28,-229.01 467.26,-216.3 453.3,-207.24"/>
<polygon fill="black" stroke="black" points="456.43,-208.44 452,-205.54 453.66,-210.57 456.43,-208.44"/>
</g>
<!-- function&#45;0&#45;Bge&#45;&gt;function&#45;1&#45;ImmVal -->
<g id="edge28" class="edge">
<title>function&#45;0&#45;Bge:s&#45;&gt;function&#45;1&#45;ImmVal</title>
<path fill="none" stroke="black" d="M171,-332C171,-306.85 143.86,-313.99 130,-293 113.52,-268.03 102.89,-234.94 97.18,-213.32"/>
<polygon fill="black" stroke="black" points="99.85,-214.53 95.9,-211 96.78,-216.22 99.85,-214.53"/>
</g>
<!-- function&#45;0&#45;Bge&#45;&gt;function&#45;0&#45;RegVal -->
<g id="edge26" class="edge">
<title>function&#45;0&#45;Bge:s&#45;&gt;function&#45;0&#45;RegVal</title>
<path fill="none" stroke="black" d="M148,-332C148,-312.91 134.1,-311.65 130,-293 125.42,-272.16 122.52,-264.98 130,-245 134.65,-232.57 143.59,-221.12 152.44,-211.99"/>
<polygon fill="black" stroke="black" points="150.71,-214.97 154.22,-211 149,-211.91 150.71,-214.97"/>
</g>
<!-- function&#45;0&#45;Bge&#45;&gt;function&#45;0&#45;Addi -->
<g id="edge27" class="edge">
<title>function&#45;0&#45;Bge:s&#45;&gt;function&#45;0&#45;Addi</title>
<path fill="none" stroke="black" d="M162,-332C162,-256.17 450.54,-349.6 501,-293 515.2,-277.08 510.96,-263.87 501,-245 491.08,-226.2 471.33,-212.7 454.07,-203.9"/>
<polygon fill="black" stroke="black" points="457.14,-203.82 452,-202.54 455.22,-206.75 457.14,-203.82"/>
</g>
<!-- function&#45;0&#45;Seq2&#45;&gt;function&#45;0&#45;Jal -->
<g id="edge30" class="edge">
<title>function&#45;0&#45;Seq2:s&#45;&gt;function&#45;0&#45;Jal</title>
<path fill="none" stroke="black" d="M52,-332C52,-318.84 52,-304.11 52,-292.3"/>
<polygon fill="black" stroke="black" points="53.75,-295 52,-290 50.25,-295 53.75,-295"/>
</g>
<!-- function&#45;0&#45;Seq2&#45;&gt;function&#45;2&#45;Blt -->
<g id="edge29" class="edge">
<title>function&#45;0&#45;Seq2:s&#45;&gt;function&#45;2&#45;Blt</title>
<path fill="none" stroke="black" d="M30,-332C30,-310.21 89.98,-289.52 128.77,-278.42"/>
<polygon fill="black" stroke="black" points="127.74,-281.16 131,-276.98 125.85,-278.22 127.74,-281.16"/>
</g>
<!-- function&#45;1&#45;ImmVal -->
<g id="node1" class="node">
<title>function&#45;1&#45;ImmVal</title>
<g id="a_node1"><a xlink:title="Imm&#45;4: function&#45;1&#45;ImmVal">
<path fill="white" stroke="transparent" d="M71.67,-174C71.67,-174 112.33,-174 112.33,-174 117.67,-174 123,-179.33 123,-184.67 123,-184.67 123,-195.33 123,-195.33 123,-200.67 117.67,-206 112.33,-206 112.33,-206 71.67,-206 71.67,-206 66.33,-206 61,-200.67 61,-195.33 61,-195.33 61,-184.67 61,-184.67 61,-179.33 66.33,-174 71.67,-174"/>
<text text-anchor="start" x="66" y="-186.3" font-family="Helvetica,sans-Serif" font-size="14.00">ImmVal</text>
<path fill="none" stroke="black" d="M71.67,-174C71.67,-174 112.33,-174 112.33,-174 117.67,-174 123,-179.33 123,-184.67 123,-184.67 123,-195.33 123,-195.33 123,-200.67 117.67,-206 112.33,-206 112.33,-206 71.67,-206 71.67,-206 66.33,-206 61,-200.67 61,-195.33 61,-195.33 61,-184.67 61,-184.67 61,-179.33 66.33,-174 71.67,-174"/>
</a>
</g>
</g>
<!-- primitive&#45;i64&#45;0 -->
<g id="node2" class="node">
<title>primitive&#45;i64&#45;0</title>
<g id="a_node2"><a xlink:title="i64&#45;0: primitive&#45;i64&#45;0">
<path fill="white" stroke="transparent" d="M86.67,-95C86.67,-95 97.33,-95 97.33,-95 102.67,-95 108,-100.33 108,-105.67 108,-105.67 108,-116.33 108,-116.33 108,-121.67 102.67,-127 97.33,-127 97.33,-127 86.67,-127 86.67,-127 81.33,-127 76,-121.67 76,-116.33 76,-116.33 76,-105.67 76,-105.67 76,-100.33 81.33,-95 86.67,-95"/>
<text text-anchor="start" x="87" y="-107.3" font-family="Helvetica,sans-Serif" font-size="14.00">0</text>
<path fill="none" stroke="black" d="M86.67,-95C86.67,-95 97.33,-95 97.33,-95 102.67,-95 108,-100.33 108,-105.67 108,-105.67 108,-116.33 108,-116.33 108,-121.67 102.67,-127 97.33,-127 97.33,-127 86.67,-127 86.67,-127 81.33,-127 76,-121.67 76,-116.33 76,-116.33 76,-105.67 76,-105.67 76,-100.33 81.33,-95 86.67,-95"/>
</a>
</g>
</g>
<!-- function&#45;0&#45;ImmVal -->
<g id="node3" class="node">
<title>function&#45;0&#45;ImmVal</title>
<g id="a_node3"><a xlink:title="Imm&#45;2: function&#45;0&#45;ImmVal">
<path fill="white" stroke="transparent" d="M353.67,-95C353.67,-95 394.33,-95 394.33,-95 399.67,-95 405,-100.33 405,-105.67 405,-105.67 405,-116.33 405,-116.33 405,-121.67 399.67,-127 394.33,-127 394.33,-127 353.67,-127 353.67,-127 348.33,-127 343,-121.67 343,-116.33 343,-116.33 343,-105.67 343,-105.67 343,-100.33 348.33,-95 353.67,-95"/>
<text text-anchor="start" x="348" y="-107.3" font-family="Helvetica,sans-Serif" font-size="14.00">ImmVal</text>
<path fill="none" stroke="black" d="M353.67,-95C353.67,-95 394.33,-95 394.33,-95 399.67,-95 405,-100.33 405,-105.67 405,-105.67 405,-116.33 405,-116.33 405,-121.67 399.67,-127 394.33,-127 394.33,-127 353.67,-127 353.67,-127 348.33,-127 343,-121.67 343,-116.33 343,-116.33 343,-105.67 343,-105.67 343,-100.33 348.33,-95 353.67,-95"/>
</a>
</g>
</g>
<!-- primitive&#45;i64&#45;56 -->
<g id="node4" class="node">
<title>primitive&#45;i64&#45;56</title>
<g id="a_node4"><a xlink:title="i64&#45;56: primitive&#45;i64&#45;56">
<path fill="white" stroke="transparent" d="M367.67,-16C367.67,-16 378.33,-16 378.33,-16 383.67,-16 389,-21.33 389,-26.67 389,-26.67 389,-37.33 389,-37.33 389,-42.67 383.67,-48 378.33,-48 378.33,-48 367.67,-48 367.67,-48 362.33,-48 357,-42.67 357,-37.33 357,-37.33 357,-26.67 357,-26.67 357,-21.33 362.33,-16 367.67,-16"/>
<text text-anchor="start" x="363.5" y="-28.3" font-family="Helvetica,sans-Serif" font-size="14.00">56</text>
<path fill="none" stroke="black" d="M367.67,-16C367.67,-16 378.33,-16 378.33,-16 383.67,-16 389,-21.33 389,-26.67 389,-26.67 389,-37.33 389,-37.33 389,-42.67 383.67,-48 378.33,-48 378.33,-48 367.67,-48 367.67,-48 362.33,-48 357,-42.67 357,-37.33 357,-37.33 357,-26.67 357,-26.67 357,-21.33 362.33,-16 367.67,-16"/>
</a>
</g>
</g>
<!-- function&#45;2&#45;ImmVal -->
<g id="node5" class="node">
<title>function&#45;2&#45;ImmVal</title>
<g id="a_node5"><a xlink:title="Imm&#45;6: function&#45;2&#45;ImmVal">
<path fill="white" stroke="transparent" d="M271.67,-95C271.67,-95 312.33,-95 312.33,-95 317.67,-95 323,-100.33 323,-105.67 323,-105.67 323,-116.33 323,-116.33 323,-121.67 317.67,-127 312.33,-127 312.33,-127 271.67,-127 271.67,-127 266.33,-127 261,-121.67 261,-116.33 261,-116.33 261,-105.67 261,-105.67 261,-100.33 266.33,-95 271.67,-95"/>
<text text-anchor="start" x="266" y="-107.3" font-family="Helvetica,sans-Serif" font-size="14.00">ImmVal</text>
<path fill="none" stroke="black" d="M271.67,-95C271.67,-95 312.33,-95 312.33,-95 317.67,-95 323,-100.33 323,-105.67 323,-105.67 323,-116.33 323,-116.33 323,-121.67 317.67,-127 312.33,-127 312.33,-127 271.67,-127 271.67,-127 266.33,-127 261,-121.67 261,-116.33 261,-116.33 261,-105.67 261,-105.67 261,-100.33 266.33,-95 271.67,-95"/>
</a>
</g>
</g>
<!-- primitive&#45;i64&#45;4 -->
<g id="node6" class="node">
<title>primitive&#45;i64&#45;4</title>
<g id="a_node6"><a xlink:title="i64&#45;4: primitive&#45;i64&#45;4">
<path fill="white" stroke="transparent" d="M286.67,-16C286.67,-16 297.33,-16 297.33,-16 302.67,-16 308,-21.33 308,-26.67 308,-26.67 308,-37.33 308,-37.33 308,-42.67 302.67,-48 297.33,-48 297.33,-48 286.67,-48 286.67,-48 281.33,-48 276,-42.67 276,-37.33 276,-37.33 276,-26.67 276,-26.67 276,-21.33 281.33,-16 286.67,-16"/>
<text text-anchor="start" x="287" y="-28.3" font-family="Helvetica,sans-Serif" font-size="14.00">4</text>
<path fill="none" stroke="black" d="M286.67,-16C286.67,-16 297.33,-16 297.33,-16 302.67,-16 308,-21.33 308,-26.67 308,-26.67 308,-37.33 308,-37.33 308,-42.67 302.67,-48 297.33,-48 297.33,-48 286.67,-48 286.67,-48 281.33,-48 276,-42.67 276,-37.33 276,-37.33 276,-26.67 276,-26.67 276,-21.33 281.33,-16 286.67,-16"/>
</a>
</g>
</g>
<!-- function&#45;0&#45;Jal -->
<g id="node7" class="node">
<title>function&#45;0&#45;Jal</title>
<g id="a_node7"><a xlink:title="Inst&#45;8: function&#45;0&#45;Jal">
<path fill="white" stroke="transparent" d="M46.67,-253C46.67,-253 57.33,-253 57.33,-253 62.67,-253 68,-258.33 68,-263.67 68,-263.67 68,-274.33 68,-274.33 68,-279.67 62.67,-285 57.33,-285 57.33,-285 46.67,-285 46.67,-285 41.33,-285 36,-279.67 36,-274.33 36,-274.33 36,-263.67 36,-263.67 36,-258.33 41.33,-253 46.67,-253"/>
<text text-anchor="start" x="43.5" y="-265.3" font-family="Helvetica,sans-Serif" font-size="14.00">Jal</text>
<path fill="none" stroke="black" d="M46.67,-253C46.67,-253 57.33,-253 57.33,-253 62.67,-253 68,-258.33 68,-263.67 68,-263.67 68,-274.33 68,-274.33 68,-279.67 62.67,-285 57.33,-285 57.33,-285 46.67,-285 46.67,-285 41.33,-285 36,-279.67 36,-274.33 36,-274.33 36,-263.67 36,-263.67 36,-258.33 41.33,-253 46.67,-253"/>
</a>
</g>
</g>
<!-- function&#45;2&#45;Blt -->
<g id="node8" class="node">
<title>function&#45;2&#45;Blt</title>
<g id="a_node8"><a xlink:title="Inst&#45;7: function&#45;2&#45;Blt">
<path fill="white" stroke="transparent" d="M155.67,-253C155.67,-253 166.33,-253 166.33,-253 171.67,-253 177,-258.33 177,-263.67 177,-263.67 177,-274.33 177,-274.33 177,-279.67 171.67,-285 166.33,-285 166.33,-285 155.67,-285 155.67,-285 150.33,-285 145,-279.67 145,-274.33 145,-274.33 145,-263.67 145,-263.67 145,-258.33 150.33,-253 155.67,-253"/>
<text text-anchor="start" x="151.5" y="-265.3" font-family="Helvetica,sans-Serif" font-size="14.00">Blt</text>
<path fill="none" stroke="black" d="M155.67,-253C155.67,-253 166.33,-253 166.33,-253 171.67,-253 177,-258.33 177,-263.67 177,-263.67 177,-274.33 177,-274.33 177,-279.67 171.67,-285 166.33,-285 166.33,-285 155.67,-285 155.67,-285 150.33,-285 145,-279.67 145,-274.33 145,-274.33 145,-263.67 145,-263.67 145,-258.33 150.33,-253 155.67,-253"/>
</a>
</g>
</g>
<!-- function&#45;0&#45;RegVal -->
<g id="node9" class="node">
<title>function&#45;0&#45;RegVal</title>
<g id="a_node9"><a xlink:title="Inst&#45;0: function&#45;0&#45;RegVal">
<path fill="white" stroke="transparent" d="M159.17,-174C159.17,-174 194.83,-174 194.83,-174 200.17,-174 205.5,-179.33 205.5,-184.67 205.5,-184.67 205.5,-195.33 205.5,-195.33 205.5,-200.67 200.17,-206 194.83,-206 194.83,-206 159.17,-206 159.17,-206 153.83,-206 148.5,-200.67 148.5,-195.33 148.5,-195.33 148.5,-184.67 148.5,-184.67 148.5,-179.33 153.83,-174 159.17,-174"/>
<text text-anchor="start" x="154" y="-186.3" font-family="Helvetica,sans-Serif" font-size="14.00">RegVal</text>
<path fill="none" stroke="black" d="M159.17,-174C159.17,-174 194.83,-174 194.83,-174 200.17,-174 205.5,-179.33 205.5,-184.67 205.5,-184.67 205.5,-195.33 205.5,-195.33 205.5,-200.67 200.17,-206 194.83,-206 194.83,-206 159.17,-206 159.17,-206 153.83,-206 148.5,-200.67 148.5,-195.33 148.5,-195.33 148.5,-184.67 148.5,-184.67 148.5,-179.33 153.83,-174 159.17,-174"/>
</a>
</g>
</g>
<!-- function&#45;0&#45;Addi -->
<g id="node10" class="node">
<title>function&#45;0&#45;Addi</title>
<g id="a_node10"><a xlink:title="Inst&#45;3: function&#45;0&#45;Addi">
<path fill="white" stroke="transparent" d="M412.17,-174C412.17,-174 431.83,-174 431.83,-174 437.17,-174 442.5,-179.33 442.5,-184.67 442.5,-184.67 442.5,-195.33 442.5,-195.33 442.5,-200.67 437.17,-206 431.83,-206 431.83,-206 412.17,-206 412.17,-206 406.83,-206 401.5,-200.67 401.5,-195.33 401.5,-195.33 401.5,-184.67 401.5,-184.67 401.5,-179.33 406.83,-174 412.17,-174"/>
<text text-anchor="start" x="407" y="-186.3" font-family="Helvetica,sans-Serif" font-size="14.00">Addi</text>
<path fill="none" stroke="black" d="M412.17,-174C412.17,-174 431.83,-174 431.83,-174 437.17,-174 442.5,-179.33 442.5,-184.67 442.5,-184.67 442.5,-195.33 442.5,-195.33 442.5,-200.67 437.17,-206 431.83,-206 431.83,-206 412.17,-206 412.17,-206 406.83,-206 401.5,-200.67 401.5,-195.33 401.5,-195.33 401.5,-184.67 401.5,-184.67 401.5,-179.33 406.83,-174 412.17,-174"/>
</a>
</g>
</g>
<!-- function&#45;1&#45;Bge -->
<g id="node11" class="node">
<title>function&#45;1&#45;Bge</title>
<g id="a_node11"><a xlink:title="Inst&#45;7: function&#45;1&#45;Bge">
<path fill="white" stroke="transparent" d="M210.67,-253C210.67,-253 227.33,-253 227.33,-253 232.67,-253 238,-258.33 238,-263.67 238,-263.67 238,-274.33 238,-274.33 238,-279.67 232.67,-285 227.33,-285 227.33,-285 210.67,-285 210.67,-285 205.33,-285 200,-279.67 200,-274.33 200,-274.33 200,-263.67 200,-263.67 200,-258.33 205.33,-253 210.67,-253"/>
<text text-anchor="start" x="205" y="-265.3" font-family="Helvetica,sans-Serif" font-size="14.00">Bge</text>
<path fill="none" stroke="black" d="M210.67,-253C210.67,-253 227.33,-253 227.33,-253 232.67,-253 238,-258.33 238,-263.67 238,-263.67 238,-274.33 238,-274.33 238,-279.67 232.67,-285 227.33,-285 227.33,-285 210.67,-285 210.67,-285 205.33,-285 200,-279.67 200,-274.33 200,-274.33 200,-263.67 200,-263.67 200,-258.33 205.33,-253 210.67,-253"/>
</a>
</g>
</g>
<!-- function&#45;1&#45;Seq2 -->
<g id="node12" class="node">
<title>function&#45;1&#45;Seq2</title>
<g id="a_node12"><a xlink:title="Inst&#45;7: function&#45;1&#45;Seq2">
<path fill="white" stroke="transparent" d="M264.67,-253C264.67,-253 289.33,-253 289.33,-253 294.67,-253 300,-258.33 300,-263.67 300,-263.67 300,-274.33 300,-274.33 300,-279.67 294.67,-285 289.33,-285 289.33,-285 264.67,-285 264.67,-285 259.33,-285 254,-279.67 254,-274.33 254,-274.33 254,-263.67 254,-263.67 254,-258.33 259.33,-253 264.67,-253"/>
<text text-anchor="start" x="259" y="-265.3" font-family="Helvetica,sans-Serif" font-size="14.00">Seq2</text>
<path fill="none" stroke="black" d="M264.67,-253C264.67,-253 289.33,-253 289.33,-253 294.67,-253 300,-258.33 300,-263.67 300,-263.67 300,-274.33 300,-274.33 300,-279.67 294.67,-285 289.33,-285 289.33,-285 264.67,-285 264.67,-285 259.33,-285 254,-279.67 254,-274.33 254,-274.33 254,-263.67 254,-263.67 254,-258.33 259.33,-253 264.67,-253"/>
</a>
</g>
</g>
<!-- function&#45;1&#45;Blt -->
<g id="node13" class="node">
<title>function&#45;1&#45;Blt</title>
<g id="a_node13"><a xlink:title="Inst&#45;10: function&#45;1&#45;Blt">
<path fill="white" stroke="transparent" d="M395.67,-253C395.67,-253 406.33,-253 406.33,-253 411.67,-253 417,-258.33 417,-263.67 417,-263.67 417,-274.33 417,-274.33 417,-279.67 411.67,-285 406.33,-285 406.33,-285 395.67,-285 395.67,-285 390.33,-285 385,-279.67 385,-274.33 385,-274.33 385,-263.67 385,-263.67 385,-258.33 390.33,-253 395.67,-253"/>
<text text-anchor="start" x="391.5" y="-265.3" font-family="Helvetica,sans-Serif" font-size="14.00">Blt</text>
<path fill="none" stroke="black" d="M395.67,-253C395.67,-253 406.33,-253 406.33,-253 411.67,-253 417,-258.33 417,-263.67 417,-263.67 417,-274.33 417,-274.33 417,-279.67 411.67,-285 406.33,-285 406.33,-285 395.67,-285 395.67,-285 390.33,-285 385,-279.67 385,-274.33 385,-274.33 385,-263.67 385,-263.67 385,-258.33 390.33,-253 395.67,-253"/>
</a>
</g>
</g>
<!-- function&#45;1&#45;Jal -->
<g id="node14" class="node">
<title>function&#45;1&#45;Jal</title>
<g id="a_node14"><a xlink:title="Inst&#45;11: function&#45;1&#45;Jal">
<path fill="white" stroke="transparent" d="M286.67,-174C286.67,-174 297.33,-174 297.33,-174 302.67,-174 308,-179.33 308,-184.67 308,-184.67 308,-195.33 308,-195.33 308,-200.67 302.67,-206 297.33,-206 297.33,-206 286.67,-206 286.67,-206 281.33,-206 276,-200.67 276,-195.33 276,-195.33 276,-184.67 276,-184.67 276,-179.33 281.33,-174 286.67,-174"/>
<text text-anchor="start" x="283.5" y="-186.3" font-family="Helvetica,sans-Serif" font-size="14.00">Jal</text>
<path fill="none" stroke="black" d="M286.67,-174C286.67,-174 297.33,-174 297.33,-174 302.67,-174 308,-179.33 308,-184.67 308,-184.67 308,-195.33 308,-195.33 308,-200.67 302.67,-206 297.33,-206 297.33,-206 286.67,-206 286.67,-206 281.33,-206 276,-200.67 276,-195.33 276,-195.33 276,-184.67 276,-184.67 276,-179.33 281.33,-174 286.67,-174"/>
</a>
</g>
</g>
<!-- function&#45;1&#45;RegVal -->
<g id="node15" class="node">
<title>function&#45;1&#45;RegVal</title>
<g id="a_node15"><a xlink:title="Inst&#45;1: function&#45;1&#45;RegVal">
<path fill="white" stroke="transparent" d="M428.17,-95C428.17,-95 463.83,-95 463.83,-95 469.17,-95 474.5,-100.33 474.5,-105.67 474.5,-105.67 474.5,-116.33 474.5,-116.33 474.5,-121.67 469.17,-127 463.83,-127 463.83,-127 428.17,-127 428.17,-127 422.83,-127 417.5,-121.67 417.5,-116.33 417.5,-116.33 417.5,-105.67 417.5,-105.67 417.5,-100.33 422.83,-95 428.17,-95"/>
<text text-anchor="start" x="423" y="-107.3" font-family="Helvetica,sans-Serif" font-size="14.00">RegVal</text>
<path fill="none" stroke="black" d="M428.17,-95C428.17,-95 463.83,-95 463.83,-95 469.17,-95 474.5,-100.33 474.5,-105.67 474.5,-105.67 474.5,-116.33 474.5,-116.33 474.5,-121.67 469.17,-127 463.83,-127 463.83,-127 428.17,-127 428.17,-127 422.83,-127 417.5,-121.67 417.5,-116.33 417.5,-116.33 417.5,-105.67 417.5,-105.67 417.5,-100.33 422.83,-95 428.17,-95"/>
</a>
</g>
</g>
<!-- primitive&#45;String&#45;1 -->
<g id="node16" class="node">
<title>primitive&#45;String&#45;1</title>
<g id="a_node16"><a xlink:title="String&#45;1: primitive&#45;String&#45;1">
<path fill="white" stroke="transparent" d="M423.17,-16C423.17,-16 470.83,-16 470.83,-16 476.17,-16 481.5,-21.33 481.5,-26.67 481.5,-26.67 481.5,-37.33 481.5,-37.33 481.5,-42.67 476.17,-48 470.83,-48 470.83,-48 423.17,-48 423.17,-48 417.83,-48 412.5,-42.67 412.5,-37.33 412.5,-37.33 412.5,-26.67 412.5,-26.67 412.5,-21.33 417.83,-16 423.17,-16"/>
<text text-anchor="start" x="418" y="-28.3" font-family="Helvetica,sans-Serif" font-size="14.00">&quot;zero_0&quot;</text>
<path fill="none" stroke="black" d="M423.17,-16C423.17,-16 470.83,-16 470.83,-16 476.17,-16 481.5,-21.33 481.5,-26.67 481.5,-26.67 481.5,-37.33 481.5,-37.33 481.5,-42.67 476.17,-48 470.83,-48 470.83,-48 423.17,-48 423.17,-48 417.83,-48 412.5,-42.67 412.5,-37.33 412.5,-37.33 412.5,-26.67 412.5,-26.67 412.5,-21.33 417.83,-16 423.17,-16"/>
</a>
</g>
</g>
<!-- function&#45;2&#45;Bge -->
<g id="node17" class="node">
<title>function&#45;2&#45;Bge</title>
<g id="a_node17"><a xlink:title="Inst&#45;10: function&#45;2&#45;Bge">
<path fill="white" stroke="transparent" d="M450.67,-253C450.67,-253 467.33,-253 467.33,-253 472.67,-253 478,-258.33 478,-263.67 478,-263.67 478,-274.33 478,-274.33 478,-279.67 472.67,-285 467.33,-285 467.33,-285 450.67,-285 450.67,-285 445.33,-285 440,-279.67 440,-274.33 440,-274.33 440,-263.67 440,-263.67 440,-258.33 445.33,-253 450.67,-253"/>
<text text-anchor="start" x="445" y="-265.3" font-family="Helvetica,sans-Serif" font-size="14.00">Bge</text>
<path fill="none" stroke="black" d="M450.67,-253C450.67,-253 467.33,-253 467.33,-253 472.67,-253 478,-258.33 478,-263.67 478,-263.67 478,-274.33 478,-274.33 478,-279.67 472.67,-285 467.33,-285 467.33,-285 450.67,-285 450.67,-285 445.33,-285 440,-279.67 440,-274.33 440,-274.33 440,-263.67 440,-263.67 440,-258.33 445.33,-253 450.67,-253"/>
</a>
</g>
</g>
<!-- function&#45;2&#45;Seq2 -->
<g id="node18" class="node">
<title>function&#45;2&#45;Seq2</title>
<g id="a_node18"><a xlink:title="Inst&#45;10: function&#45;2&#45;Seq2">
<path fill="white" stroke="transparent" d="M330.67,-253C330.67,-253 355.33,-253 355.33,-253 360.67,-253 366,-258.33 366,-263.67 366,-263.67 366,-274.33 366,-274.33 366,-279.67 360.67,-285 355.33,-285 355.33,-285 330.67,-285 330.67,-285 325.33,-285 320,-279.67 320,-274.33 320,-274.33 320,-263.67 320,-263.67 320,-258.33 325.33,-253 330.67,-253"/>
<text text-anchor="start" x="325" y="-265.3" font-family="Helvetica,sans-Serif" font-size="14.00">Seq2</text>
<path fill="none" stroke="black" d="M330.67,-253C330.67,-253 355.33,-253 355.33,-253 360.67,-253 366,-258.33 366,-263.67 366,-263.67 366,-274.33 366,-274.33 366,-279.67 360.67,-285 355.33,-285 355.33,-285 330.67,-285 330.67,-285 325.33,-285 320,-279.67 320,-274.33 320,-274.33 320,-263.67 320,-263.67 320,-258.33 325.33,-253 330.67,-253"/>
</a>
</g>
</g>
<!-- function&#45;0&#45;Blt -->
<g id="node19" class="node">
<title>function&#45;0&#45;Blt</title>
<g id="a_node19"><a xlink:title="Inst&#45;5: function&#45;0&#45;Blt">
<path fill="white" stroke="transparent" d="M93.67,-332C93.67,-332 104.33,-332 104.33,-332 109.67,-332 115,-337.33 115,-342.67 115,-342.67 115,-353.33 115,-353.33 115,-358.67 109.67,-364 104.33,-364 104.33,-364 93.67,-364 93.67,-364 88.33,-364 83,-358.67 83,-353.33 83,-353.33 83,-342.67 83,-342.67 83,-337.33 88.33,-332 93.67,-332"/>
<text text-anchor="start" x="89.5" y="-344.3" font-family="Helvetica,sans-Serif" font-size="14.00">Blt</text>
<path fill="none" stroke="black" d="M93.67,-332C93.67,-332 104.33,-332 104.33,-332 109.67,-332 115,-337.33 115,-342.67 115,-342.67 115,-353.33 115,-353.33 115,-358.67 109.67,-364 104.33,-364 104.33,-364 93.67,-364 93.67,-364 88.33,-364 83,-358.67 83,-353.33 83,-353.33 83,-342.67 83,-342.67 83,-337.33 88.33,-332 93.67,-332"/>
</a>
</g>
</g>
<!-- function&#45;0&#45;Bge -->
<g id="node20" class="node">
<title>function&#45;0&#45;Bge</title>
<g id="a_node20"><a xlink:title="Inst&#45;5: function&#45;0&#45;Bge">
<path fill="white" stroke="transparent" d="M148.67,-332C148.67,-332 165.33,-332 165.33,-332 170.67,-332 176,-337.33 176,-342.67 176,-342.67 176,-353.33 176,-353.33 176,-358.67 170.67,-364 165.33,-364 165.33,-364 148.67,-364 148.67,-364 143.33,-364 138,-358.67 138,-353.33 138,-353.33 138,-342.67 138,-342.67 138,-337.33 143.33,-332 148.67,-332"/>
<text text-anchor="start" x="143" y="-344.3" font-family="Helvetica,sans-Serif" font-size="14.00">Bge</text>
<path fill="none" stroke="black" d="M148.67,-332C148.67,-332 165.33,-332 165.33,-332 170.67,-332 176,-337.33 176,-342.67 176,-342.67 176,-353.33 176,-353.33 176,-358.67 170.67,-364 165.33,-364 165.33,-364 148.67,-364 148.67,-364 143.33,-364 138,-358.67 138,-353.33 138,-353.33 138,-342.67 138,-342.67 138,-337.33 143.33,-332 148.67,-332"/>
</a>
</g>
</g>
<!-- function&#45;0&#45;Seq2 -->
<g id="node21" class="node">
<title>function&#45;0&#45;Seq2</title>
<g id="a_node21"><a xlink:title="Inst&#45;5: function&#45;0&#45;Seq2">
<path fill="white" stroke="transparent" d="M28.67,-332C28.67,-332 53.33,-332 53.33,-332 58.67,-332 64,-337.33 64,-342.67 64,-342.67 64,-353.33 64,-353.33 64,-358.67 58.67,-364 53.33,-364 53.33,-364 28.67,-364 28.67,-364 23.33,-364 18,-358.67 18,-353.33 18,-353.33 18,-342.67 18,-342.67 18,-337.33 23.33,-332 28.67,-332"/>
<text text-anchor="start" x="23" y="-344.3" font-family="Helvetica,sans-Serif" font-size="14.00">Seq2</text>
<path fill="none" stroke="black" d="M28.67,-332C28.67,-332 53.33,-332 53.33,-332 58.67,-332 64,-337.33 64,-342.67 64,-342.67 64,-353.33 64,-353.33 64,-358.67 58.67,-364 53.33,-364 53.33,-364 28.67,-364 28.67,-364 23.33,-364 18,-358.67 18,-353.33 18,-353.33 18,-342.67 18,-342.67 18,-337.33 23.33,-332 28.67,-332"/>
</a>
</g>
</g>
<!-- primitive&#45;String&#45;0 -->
<g id="node22" class="node">
<title>primitive&#45;String&#45;0</title>
<g id="a_node22"><a xlink:title="String&#45;0: primitive&#45;String&#45;0">
<path fill="white" stroke="transparent" d="M160.17,-95C160.17,-95 195.83,-95 195.83,-95 201.17,-95 206.5,-100.33 206.5,-105.67 206.5,-105.67 206.5,-116.33 206.5,-116.33 206.5,-121.67 201.17,-127 195.83,-127 195.83,-127 160.17,-127 160.17,-127 154.83,-127 149.5,-121.67 149.5,-116.33 149.5,-116.33 149.5,-105.67 149.5,-105.67 149.5,-100.33 154.83,-95 160.17,-95"/>
<text text-anchor="start" x="155" y="-107.3" font-family="Helvetica,sans-Serif" font-size="14.00">&quot;a4_0&quot;</text>
<path fill="none" stroke="black" d="M160.17,-95C160.17,-95 195.83,-95 195.83,-95 201.17,-95 206.5,-100.33 206.5,-105.67 206.5,-105.67 206.5,-116.33 206.5,-116.33 206.5,-121.67 201.17,-127 195.83,-127 195.83,-127 160.17,-127 160.17,-127 154.83,-127 149.5,-121.67 149.5,-116.33 149.5,-116.33 149.5,-105.67 149.5,-105.67 149.5,-100.33 154.83,-95 160.17,-95"/>
</a>
</g>
</g>
</g>
</svg>
