<?xml version="1.0" encoding="UTF-8" standalone="no"?>
<!DOCTYPE svg PUBLIC "-//W3C//DTD SVG 1.1//EN"
 "http://www.w3.org/Graphics/SVG/1.1/DTD/svg11.dtd">
<!-- Generated by graphviz version 2.43.0 (0)
 -->
<!-- Title: %3 Pages: 1 -->
<svg width="506pt" height="388pt"
 viewBox="0.00 0.00 505.58 388.00" xmlns="http://www.w3.org/2000/svg" xmlns:xlink="http://www.w3.org/1999/xlink">
<g id="graph0" class="graph" transform="scale(1 1) rotate(0) translate(4 384)">
<title>%3</title>
<polygon fill="white" stroke="#000000" points="-4,4 -4,-384 501.58,-384 501.58,4 -4,4"/>
<g id="clust1" class="cluster">
<title>outer_cluster_Imm&#45;4</title>
</g>
<g id="clust2" class="cluster">
<title>cluster_Imm&#45;4</title>
<path fill="#ffffb3" stroke="black" stroke-dasharray="5,2" d="M58,-169C58,-169 102,-169 102,-169 108,-169 114,-175 114,-181 114,-181 114,-199 114,-199 114,-205 108,-211 102,-211 102,-211 58,-211 58,-211 52,-211 46,-205 46,-199 46,-199 46,-181 46,-181 46,-175 52,-169 58,-169"/>
</g>
<g id="clust4" class="cluster">
<title>outer_cluster_Imm&#45;6</title>
</g>
<g id="clust5" class="cluster">
<title>cluster_Imm&#45;6</title>
<path fill="#ffffb3" stroke="black" stroke-dasharray="5,2" d="M288,-90C288,-90 332,-90 332,-90 338,-90 344,-96 344,-102 344,-102 344,-120 344,-120 344,-126 338,-132 332,-132 332,-132 288,-132 288,-132 282,-132 276,-126 276,-120 276,-120 276,-102 276,-102 276,-96 282,-90 288,-90"/>
</g>
<g id="clust7" class="cluster">
<title>outer_cluster_Imm&#45;2</title>
</g>
<g id="clust8" class="cluster">
<title>cluster_Imm&#45;2</title>
<path fill="#ffffb3" stroke="black" stroke-dasharray="5,2" d="M136,-90C136,-90 180,-90 180,-90 186,-90 192,-96 192,-102 192,-102 192,-120 192,-120 192,-126 186,-132 180,-132 180,-132 136,-132 136,-132 130,-132 124,-126 124,-120 124,-120 124,-102 124,-102 124,-96 130,-90 136,-90"/>
</g>
<g id="clust10" class="cluster">
<title>outer_cluster_Inst&#45;8</title>
</g>
<g id="clust11" class="cluster">
<title>cluster_Inst&#45;8</title>
<path fill="#bebada" stroke="black" stroke-dasharray="5,2" d="M23,-248C23,-248 59,-248 59,-248 65,-248 71,-254 71,-260 71,-260 71,-278 71,-278 71,-284 65,-290 59,-290 59,-290 23,-290 23,-290 17,-290 11,-284 11,-278 11,-278 11,-260 11,-260 11,-254 17,-248 23,-248"/>
</g>
<g id="clust13" class="cluster">
<title>outer_cluster_Inst&#45;5</title>
</g>
<g id="clust14" class="cluster">
<title>cluster_Inst&#45;5</title>
<path fill="#bebada" stroke="black" stroke-dasharray="5,2" d="M25,-327C25,-327 177,-327 177,-327 183,-327 189,-333 189,-339 189,-339 189,-357 189,-357 189,-363 183,-369 177,-369 177,-369 25,-369 25,-369 19,-369 13,-363 13,-357 13,-357 13,-339 13,-339 13,-333 19,-327 25,-327"/>
</g>
<g id="clust16" class="cluster">
<title>outer_cluster_Inst&#45;0</title>
</g>
<g id="clust17" class="cluster">
<title>cluster_Inst&#45;0</title>
<path fill="#bebada" stroke="black" stroke-dasharray="5,2" d="M421,-169C421,-169 461,-169 461,-169 467,-169 473,-175 473,-181 473,-181 473,-199 473,-199 473,-205 467,-211 461,-211 461,-211 421,-211 421,-211 415,-211 409,-205 409,-199 409,-199 409,-181 409,-181 409,-175 415,-169 421,-169"/>
</g>
<g id="clust19" class="cluster">
<title>outer_cluster_Inst&#45;10</title>
</g>
<g id="clust20" class="cluster">
<title>cluster_Inst&#45;10</title>
<path fill="#bebada" stroke="black" stroke-dasharray="5,2" d="M131,-248C131,-248 283,-248 283,-248 289,-248 295,-254 295,-260 295,-260 295,-278 295,-278 295,-284 289,-290 283,-290 283,-290 131,-290 131,-290 125,-290 119,-284 119,-278 119,-278 119,-260 119,-260 119,-254 125,-248 131,-248"/>
</g>
<g id="clust22" class="cluster">
<title>outer_cluster_Inst&#45;7</title>
</g>
<g id="clust23" class="cluster">
<title>cluster_Inst&#45;7</title>
<path fill="#bebada" stroke="black" stroke-dasharray="5,2" d="M313,-248C313,-248 465,-248 465,-248 471,-248 477,-254 477,-260 477,-260 477,-278 477,-278 477,-284 471,-290 465,-290 465,-290 313,-290 313,-290 307,-290 301,-284 301,-278 301,-278 301,-260 301,-260 301,-254 307,-248 313,-248"/>
</g>
<g id="clust25" class="cluster">
<title>outer_cluster_Inst&#45;1</title>
</g>
<g id="clust26" class="cluster">
<title>cluster_Inst&#45;1</title>
<path fill="#bebada" stroke="black" stroke-dasharray="5,2" d="M210,-90C210,-90 250,-90 250,-90 256,-90 262,-96 262,-102 262,-102 262,-120 262,-120 262,-126 256,-132 250,-132 250,-132 210,-132 210,-132 204,-132 198,-126 198,-120 198,-120 198,-102 198,-102 198,-96 204,-90 210,-90"/>
</g>
<g id="clust28" class="cluster">
<title>outer_cluster_Inst&#45;11</title>
</g>
<g id="clust29" class="cluster">
<title>cluster_Inst&#45;11</title>
<path fill="#bebada" stroke="black" stroke-dasharray="5,2" d="M292,-169C292,-169 328,-169 328,-169 334,-169 340,-175 340,-181 340,-181 340,-199 340,-199 340,-205 334,-211 328,-211 328,-211 292,-211 292,-211 286,-211 280,-205 280,-199 280,-199 280,-181 280,-181 280,-175 286,-169 292,-169"/>
</g>
<g id="clust31" class="cluster">
<title>outer_cluster_Inst&#45;3</title>
</g>
<g id="clust32" class="cluster">
<title>cluster_Inst&#45;3</title>
<path fill="#bebada" stroke="black" stroke-dasharray="5,2" d="M137,-169C137,-169 173,-169 173,-169 179,-169 185,-175 185,-181 185,-181 185,-199 185,-199 185,-205 179,-211 173,-211 173,-211 137,-211 137,-211 131,-211 125,-205 125,-199 125,-199 125,-181 125,-181 125,-175 131,-169 137,-169"/>
</g>
<g id="clust34" class="cluster">
<title>outer_cluster_String&#45;1</title>
</g>
<g id="clust35" class="cluster">
<title>cluster_String&#45;1</title>
<path fill="#fb8072" stroke="black" stroke-dasharray="5,2" d="M205,-11C205,-11 257,-11 257,-11 263,-11 269,-17 269,-23 269,-23 269,-41 269,-41 269,-47 263,-53 257,-53 257,-53 205,-53 205,-53 199,-53 193,-47 193,-41 193,-41 193,-23 193,-23 193,-17 199,-11 205,-11"/>
</g>
<g id="clust37" class="cluster">
<title>outer_cluster_String&#45;0</title>
</g>
<g id="clust38" class="cluster">
<title>cluster_String&#45;0</title>
<path fill="#fb8072" stroke="black" stroke-dasharray="5,2" d="M422,-90C422,-90 462,-90 462,-90 468,-90 474,-96 474,-102 474,-102 474,-120 474,-120 474,-126 468,-132 462,-132 462,-132 422,-132 422,-132 416,-132 410,-126 410,-120 410,-120 410,-102 410,-102 410,-96 416,-90 422,-90"/>
</g>
<g id="clust40" class="cluster">
<title>outer_cluster_i64&#45;4</title>
</g>
<g id="clust41" class="cluster">
<title>cluster_i64&#45;4</title>
<path fill="#80b1d3" stroke="black" stroke-dasharray="5,2" d="M292,-11C292,-11 328,-11 328,-11 334,-11 340,-17 340,-23 340,-23 340,-41 340,-41 340,-47 334,-53 328,-53 328,-53 292,-53 292,-53 286,-53 280,-47 280,-41 280,-41 280,-23 280,-23 280,-17 286,-11 292,-11"/>
</g>
<g id="clust43" class="cluster">
<title>outer_cluster_i64&#45;125552</title>
</g>
<g id="clust44" class="cluster">
<title>cluster_i64&#45;125552</title>
<path fill="#80b1d3" stroke="black" stroke-dasharray="5,2" d="M56,-90C56,-90 104,-90 104,-90 110,-90 116,-96 116,-102 116,-102 116,-120 116,-120 116,-126 110,-132 104,-132 104,-132 56,-132 56,-132 50,-132 44,-126 44,-120 44,-120 44,-102 44,-102 44,-96 50,-90 56,-90"/>
</g>
<g id="clust46" class="cluster">
<title>outer_cluster_i64&#45;56</title>
</g>
<g id="clust47" class="cluster">
<title>cluster_i64&#45;56</title>
<path fill="#80b1d3" stroke="black" stroke-dasharray="5,2" d="M139,-11C139,-11 175,-11 175,-11 181,-11 187,-17 187,-23 187,-23 187,-41 187,-41 187,-47 181,-53 175,-53 175,-53 139,-53 139,-53 133,-53 127,-47 127,-41 127,-41 127,-23 127,-23 127,-17 133,-11 139,-11"/>
</g>
<!-- function&#45;1&#45;ImmVal&#45;&gt;primitive&#45;i64&#45;125552 -->
<g id="edge1" class="edge">
<title>function&#45;1&#45;ImmVal:s&#45;&gt;primitive&#45;i64&#45;125552</title>
<path fill="none" stroke="black" d="M80,-174C80,-160.84 80,-146.11 80,-134.3"/>
<polygon fill="black" stroke="black" points="81.75,-137 80,-132 78.25,-137 81.75,-137"/>
</g>
<!-- function&#45;2&#45;ImmVal&#45;&gt;primitive&#45;i64&#45;4 -->
<g id="edge2" class="edge">
<title>function&#45;2&#45;ImmVal:s&#45;&gt;primitive&#45;i64&#45;4</title>
<path fill="none" stroke="black" d="M310,-95C310,-81.84 310,-67.11 310,-55.3"/>
<polygon fill="black" stroke="black" points="311.75,-58 310,-53 308.25,-58 311.75,-58"/>
</g>
<!-- function&#45;0&#45;ImmVal&#45;&gt;primitive&#45;i64&#45;56 -->
<g id="edge3" class="edge">
<title>function&#45;0&#45;ImmVal:s&#45;&gt;primitive&#45;i64&#45;56</title>
<path fill="none" stroke="black" d="M158,-95C158,-81.84 157.77,-67.1 157.53,-55.3"/>
<polygon fill="black" stroke="black" points="159.41,-57.91 157.42,-53 155.91,-58.08 159.41,-57.91"/>
</g>
<!-- function&#45;0&#45;Jal&#45;&gt;function&#45;1&#45;ImmVal -->
<g id="edge4" class="edge">
<title>function&#45;0&#45;Jal:s&#45;&gt;function&#45;1&#45;ImmVal</title>
<path fill="none" stroke="black" d="M41,-253C41,-237.82 49.48,-223.32 58.52,-212.17"/>
<polygon fill="black" stroke="black" points="57.24,-215.6 59.87,-211 54.95,-212.95 57.24,-215.6"/>
</g>
<!-- function&#45;0&#45;Blt&#45;&gt;function&#45;1&#45;ImmVal -->
<g id="edge7" class="edge">
<title>function&#45;0&#45;Blt:s&#45;&gt;function&#45;1&#45;ImmVal</title>
<path fill="none" stroke="black" d="M112,-332C112,-311.41 93.46,-312.55 87,-293 78.27,-266.59 77.6,-234.29 78.4,-213.21"/>
<polygon fill="black" stroke="black" points="79.85,-216.15 78.63,-211 76.37,-215.79 79.85,-216.15"/>
</g>
<!-- function&#45;0&#45;Blt&#45;&gt;function&#45;0&#45;Addi -->
<g id="edge5" class="edge">
<title>function&#45;0&#45;Blt:s&#45;&gt;function&#45;0&#45;Addi</title>
<path fill="none" stroke="black" d="M93,-332C93,-292.51 94.04,-280.66 111,-245 116.63,-233.15 125.4,-221.65 133.62,-212.32"/>
<polygon fill="black" stroke="black" points="132.54,-215.63 135.11,-211 130.21,-213.02 132.54,-215.63"/>
</g>
<!-- function&#45;0&#45;Blt&#45;&gt;function&#45;0&#45;RegVal -->
<g id="edge6" class="edge">
<title>function&#45;0&#45;Blt:s&#45;&gt;function&#45;0&#45;RegVal</title>
<path fill="none" stroke="black" d="M105,-332C105,-248.66 421.76,-354.5 478,-293 498.82,-270.23 477.85,-234.84 460.04,-212.3"/>
<polygon fill="black" stroke="black" points="463.52,-213.34 458.76,-211 461.02,-215.79 463.52,-213.34"/>
</g>
<!-- function&#45;0&#45;Addi&#45;&gt;function&#45;0&#45;ImmVal -->
<g id="edge33" class="edge">
<title>function&#45;0&#45;Addi:s&#45;&gt;function&#45;0&#45;ImmVal</title>
<path fill="none" stroke="black" d="M165,-174C165,-160.76 163.4,-146.02 161.73,-134.24"/>
<polygon fill="black" stroke="black" points="164.24,-136.16 160.97,-132 160.93,-137.3 164.24,-136.16"/>
</g>
<!-- function&#45;0&#45;Addi&#45;&gt;function&#45;1&#45;RegVal -->
<g id="edge32" class="edge">
<title>function&#45;0&#45;Addi:s&#45;&gt;function&#45;1&#45;RegVal</title>
<path fill="none" stroke="black" d="M145,-174C145,-167.21 173.7,-147.38 197.74,-131.95"/>
<polygon fill="black" stroke="black" points="198.17,-136.42 198,-131.13 194.83,-135.37 198.17,-136.42"/>
</g>
<!-- function&#45;0&#45;RegVal&#45;&gt;primitive&#45;String&#45;0 -->
<g id="edge13" class="edge">
<title>function&#45;0&#45;RegVal:s&#45;&gt;primitive&#45;String&#45;0</title>
<path fill="none" stroke="black" d="M442,-174C442,-160.84 442,-146.11 442,-134.3"/>
<polygon fill="black" stroke="black" points="443.75,-137 442,-132 440.25,-137 443.75,-137"/>
</g>
<!-- function&#45;0&#45;Bge&#45;&gt;function&#45;1&#45;ImmVal -->
<g id="edge10" class="edge">
<title>function&#45;0&#45;Bge:s&#45;&gt;function&#45;1&#45;ImmVal</title>
<path fill="none" stroke="black" d="M173,-332C173,-299.45 130.76,-318.87 111,-293 93.01,-269.44 85.4,-235.44 82.22,-213.28"/>
<polygon fill="black" stroke="black" points="84.65,-215.29 81.53,-211 81.29,-216.29 84.65,-215.29"/>
</g>
<!-- function&#45;0&#45;Bge&#45;&gt;function&#45;0&#45;Addi -->
<g id="edge9" class="edge">
<title>function&#45;0&#45;Bge:s&#45;&gt;function&#45;0&#45;Addi</title>
<path fill="none" stroke="black" d="M164,-332C164,-305.2 129.27,-317.32 118,-293 109.03,-273.64 111.69,-265.38 118,-245 121.67,-233.14 128.95,-221.56 136.09,-212.19"/>
<polygon fill="black" stroke="black" points="134.93,-215.71 137.34,-211 132.52,-213.18 134.93,-215.71"/>
</g>
<!-- function&#45;0&#45;Bge&#45;&gt;function&#45;0&#45;RegVal -->
<g id="edge8" class="edge">
<title>function&#45;0&#45;Bge:s&#45;&gt;function&#45;0&#45;RegVal</title>
<path fill="none" stroke="black" d="M150,-332C150,-256.17 438.54,-349.6 489,-293 503.2,-277.08 496.58,-264.94 489,-245 484.24,-232.48 475.11,-221.02 466.07,-211.9"/>
<polygon fill="black" stroke="black" points="469.48,-211.61 464.22,-211 467.95,-214.76 469.48,-211.61"/>
</g>
<!-- function&#45;0&#45;Seq2&#45;&gt;function&#45;0&#45;Jal -->
<g id="edge12" class="edge">
<title>function&#45;0&#45;Seq2:s&#45;&gt;function&#45;0&#45;Jal</title>
<path fill="none" stroke="black" d="M54,-332C54,-318.53 51.02,-303.75 47.92,-292.01"/>
<polygon fill="black" stroke="black" points="50.81,-293.2 46.59,-290 47.89,-295.13 50.81,-293.2"/>
</g>
<!-- function&#45;0&#45;Seq2&#45;&gt;function&#45;2&#45;Blt -->
<g id="edge11" class="edge">
<title>function&#45;0&#45;Seq2:s&#45;&gt;function&#45;2&#45;Blt</title>
<path fill="none" stroke="black" d="M32,-332C32,-259.04 290.07,-319.62 358,-293 358.53,-292.79 359.06,-292.57 359.6,-292.34"/>
<polygon fill="black" stroke="black" points="360.61,-293.79 364.31,-290 359.05,-290.65 360.61,-293.79"/>
</g>
<!-- function&#45;2&#45;Blt&#45;&gt;function&#45;2&#45;ImmVal -->
<g id="edge24" class="edge">
<title>function&#45;2&#45;Blt:s&#45;&gt;function&#45;2&#45;ImmVal</title>
<path fill="none" stroke="black" d="M400,-253C400,-239.33 351.28,-169.45 325.54,-133.47"/>
<polygon fill="black" stroke="black" points="328.59,-133.53 323.51,-132 326.52,-136.36 328.59,-133.53"/>
</g>
<!-- function&#45;2&#45;Blt&#45;&gt;function&#45;0&#45;Addi -->
<g id="edge23" class="edge">
<title>function&#45;2&#45;Blt:s&#45;&gt;function&#45;0&#45;Addi</title>
<path fill="none" stroke="black" d="M393,-253C393,-242.49 252.25,-211.48 187.23,-197.71"/>
<polygon fill="black" stroke="black" points="190.27,-197.2 185,-196.67 188.79,-200.38 190.27,-197.2"/>
</g>
<!-- function&#45;2&#45;Blt&#45;&gt;function&#45;0&#45;RegVal -->
<g id="edge22" class="edge">
<title>function&#45;2&#45;Blt:s&#45;&gt;function&#45;0&#45;RegVal</title>
<path fill="none" stroke="black" d="M381,-253C381,-235.08 394.1,-220.37 408.06,-209.78"/>
<polygon fill="black" stroke="black" points="407.2,-213.61 409,-208.63 404.48,-211.4 407.2,-213.61"/>
</g>
<!-- function&#45;1&#45;Blt&#45;&gt;function&#45;2&#45;ImmVal -->
<g id="edge16" class="edge">
<title>function&#45;1&#45;Blt:s&#45;&gt;function&#45;2&#45;ImmVal</title>
<path fill="none" stroke="black" d="M160,-253C160,-240.31 224.64,-174.57 234,-166 247.52,-153.61 263.95,-141.61 278.08,-132.09"/>
<polygon fill="black" stroke="black" points="274.04,-135.04 278.38,-132 273.09,-131.67 274.04,-135.04"/>
</g>
<!-- function&#45;1&#45;Blt&#45;&gt;function&#45;0&#45;Addi -->
<g id="edge14" class="edge">
<title>function&#45;1&#45;Blt:s&#45;&gt;function&#45;0&#45;Addi</title>
<path fill="none" stroke="black" d="M141,-253C141,-239.48 144.21,-224.7 147.55,-212.97"/>
<polygon fill="black" stroke="black" points="147.45,-216.07 148.98,-211 144.62,-214.01 147.45,-216.07"/>
</g>
<!-- function&#45;1&#45;Blt&#45;&gt;function&#45;0&#45;RegVal -->
<g id="edge15" class="edge">
<title>function&#45;1&#45;Blt:s&#45;&gt;function&#45;0&#45;RegVal</title>
<path fill="none" stroke="black" d="M153,-253C153,-240.48 167.84,-247.96 180,-245 250.8,-227.74 269.7,-229.06 341,-214 362.99,-209.36 387.58,-203.7 406.88,-199.17"/>
<polygon fill="black" stroke="black" points="405.58,-201.96 409,-197.92 403.8,-198.95 405.58,-201.96"/>
</g>
<!-- function&#45;2&#45;Bge&#45;&gt;function&#45;2&#45;ImmVal -->
<g id="edge19" class="edge">
<title>function&#45;2&#45;Bge:s&#45;&gt;function&#45;2&#45;ImmVal</title>
<path fill="none" stroke="black" d="M221,-253C221,-226.54 266.38,-165.98 292.33,-133.51"/>
<polygon fill="black" stroke="black" points="291.63,-136.87 293.7,-132 289.04,-134.52 291.63,-136.87"/>
</g>
<!-- function&#45;2&#45;Bge&#45;&gt;function&#45;0&#45;Addi -->
<g id="edge18" class="edge">
<title>function&#45;2&#45;Bge:s&#45;&gt;function&#45;0&#45;Addi</title>
<path fill="none" stroke="black" d="M212,-253C212,-235.51 199.55,-220.83 186.29,-210.15"/>
<polygon fill="black" stroke="black" points="189.87,-211.05 185,-208.96 187.51,-213.63 189.87,-211.05"/>
</g>
<!-- function&#45;2&#45;Bge&#45;&gt;function&#45;0&#45;RegVal -->
<g id="edge17" class="edge">
<title>function&#45;2&#45;Bge:s&#45;&gt;function&#45;0&#45;RegVal</title>
<path fill="none" stroke="black" d="M198,-253C198,-247.67 340.29,-214.19 407.11,-198.77"/>
<polygon fill="black" stroke="black" points="405.66,-201.71 409,-197.6 403.83,-198.73 405.66,-201.71"/>
</g>
<!-- function&#45;2&#45;Seq2&#45;&gt;function&#45;1&#45;Seq2 -->
<g id="edge20" class="edge">
<title>function&#45;2&#45;Seq2:s&#45;&gt;function&#45;1&#45;Seq2</title>
<path fill="none" stroke="black" d="M254,-253C254,-232.44 278.08,-239.47 299.13,-249.89"/>
<polygon fill="black" stroke="black" points="295.96,-249.68 301,-251.3 298.07,-246.89 295.96,-249.68"/>
</g>
<!-- function&#45;2&#45;Seq2&#45;&gt;function&#45;1&#45;Jal -->
<g id="edge21" class="edge">
<title>function&#45;2&#45;Seq2:s&#45;&gt;function&#45;1&#45;Jal</title>
<path fill="none" stroke="black" d="M276,-253C276,-238.26 283.48,-223.71 291.42,-212.41"/>
<polygon fill="black" stroke="black" points="290.75,-215.97 292.59,-211 288.05,-213.73 290.75,-215.97"/>
</g>
<!-- function&#45;1&#45;Seq2&#45;&gt;function&#45;1&#45;Blt -->
<g id="edge28" class="edge">
<title>function&#45;1&#45;Seq2:s&#45;&gt;function&#45;1&#45;Blt</title>
<path fill="none" stroke="black" d="M320,-253C320,-190.28 237.87,-195 182,-223.5 172.47,-228.36 165.04,-237.41 159.67,-246.17"/>
<polygon fill="black" stroke="black" points="160.12,-243.19 157.9,-248 162.63,-245.62 160.12,-243.19"/>
</g>
<!-- function&#45;1&#45;Seq2&#45;&gt;function&#45;1&#45;Jal -->
<g id="edge29" class="edge">
<title>function&#45;1&#45;Seq2:s&#45;&gt;function&#45;1&#45;Jal</title>
<path fill="none" stroke="black" d="M342,-253C342,-238.46 334.96,-223.92 327.49,-212.58"/>
<polygon fill="black" stroke="black" points="330.5,-212.74 325.5,-211 328.33,-215.48 330.5,-212.74"/>
</g>
<!-- function&#45;1&#45;Jal&#45;&gt;function&#45;2&#45;ImmVal -->
<g id="edge31" class="edge">
<title>function&#45;1&#45;Jal:s&#45;&gt;function&#45;2&#45;ImmVal</title>
<path fill="none" stroke="black" d="M310,-174C310,-160.84 310,-146.11 310,-134.3"/>
<polygon fill="black" stroke="black" points="311.75,-137 310,-132 308.25,-137 311.75,-137"/>
</g>
<!-- function&#45;1&#45;Bge&#45;&gt;function&#45;2&#45;ImmVal -->
<g id="edge27" class="edge">
<title>function&#45;1&#45;Bge:s&#45;&gt;function&#45;2&#45;ImmVal</title>
<path fill="none" stroke="black" d="M461,-253C461,-223.75 429.42,-233.92 408,-214 387.45,-194.89 386.32,-186.34 367,-166 356.13,-154.56 343.43,-142.42 332.79,-132.55"/>
<polygon fill="black" stroke="black" points="337.09,-133.34 331.96,-132 335.13,-136.25 337.09,-133.34"/>
</g>
<!-- function&#45;1&#45;Bge&#45;&gt;function&#45;0&#45;Addi -->
<g id="edge25" class="edge">
<title>function&#45;1&#45;Bge:s&#45;&gt;function&#45;0&#45;Addi</title>
<path fill="none" stroke="black" d="M438,-253C438,-242.6 426.01,-247.84 416,-245 373.22,-232.87 247.56,-208.51 187.58,-197.13"/>
<polygon fill="black" stroke="black" points="190.29,-196.3 185,-196.13 189.04,-199.57 190.29,-196.3"/>
</g>
<!-- function&#45;1&#45;Bge&#45;&gt;function&#45;0&#45;RegVal -->
<g id="edge26" class="edge">
<title>function&#45;1&#45;Bge:s&#45;&gt;function&#45;0&#45;RegVal</title>
<path fill="none" stroke="black" d="M452,-253C452,-239.73 449.53,-225.1 446.92,-213.39"/>
<polygon fill="black" stroke="black" points="449.53,-214.69 445.73,-211 446.4,-216.25 449.53,-214.69"/>
</g>
<!-- function&#45;1&#45;RegVal&#45;&gt;primitive&#45;String&#45;1 -->
<g id="edge30" class="edge">
<title>function&#45;1&#45;RegVal:s&#45;&gt;primitive&#45;String&#45;1</title>
<path fill="none" stroke="black" d="M231,-95C231,-81.84 231,-67.11 231,-55.3"/>
<polygon fill="black" stroke="black" points="232.75,-58 231,-53 229.25,-58 232.75,-58"/>
</g>
<!-- function&#45;1&#45;ImmVal -->
<g id="node1" class="node">
<title>function&#45;1&#45;ImmVal</title>
<g id="a_node1"><a xlink:title="Imm&#45;4: function&#45;1&#45;ImmVal">
<path fill="white" stroke="transparent" d="M59.67,-174C59.67,-174 100.33,-174 100.33,-174 105.67,-174 111,-179.33 111,-184.67 111,-184.67 111,-195.33 111,-195.33 111,-200.67 105.67,-206 100.33,-206 100.33,-206 59.67,-206 59.67,-206 54.33,-206 49,-200.67 49,-195.33 49,-195.33 49,-184.67 49,-184.67 49,-179.33 54.33,-174 59.67,-174"/>
<text text-anchor="start" x="54" y="-186.3" font-family="Helvetica,sans-Serif" font-size="14.00">ImmVal</text>
<path fill="none" stroke="black" d="M59.67,-174C59.67,-174 100.33,-174 100.33,-174 105.67,-174 111,-179.33 111,-184.67 111,-184.67 111,-195.33 111,-195.33 111,-200.67 105.67,-206 100.33,-206 100.33,-206 59.67,-206 59.67,-206 54.33,-206 49,-200.67 49,-195.33 49,-195.33 49,-184.67 49,-184.67 49,-179.33 54.33,-174 59.67,-174"/>
</a>
</g>
</g>
<!-- primitive&#45;i64&#45;125552 -->
<g id="node2" class="node">
<title>primitive&#45;i64&#45;125552</title>
<g id="a_node2"><a xlink:title="i64&#45;125552: primitive&#45;i64&#45;125552">
<path fill="white" stroke="transparent" d="M58.17,-95C58.17,-95 101.83,-95 101.83,-95 107.17,-95 112.5,-100.33 112.5,-105.67 112.5,-105.67 112.5,-116.33 112.5,-116.33 112.5,-121.67 107.17,-127 101.83,-127 101.83,-127 58.17,-127 58.17,-127 52.83,-127 47.5,-121.67 47.5,-116.33 47.5,-116.33 47.5,-105.67 47.5,-105.67 47.5,-100.33 52.83,-95 58.17,-95"/>
<text text-anchor="start" x="53" y="-107.3" font-family="Helvetica,sans-Serif" font-size="14.00">125552</text>
<path fill="none" stroke="black" d="M58.17,-95C58.17,-95 101.83,-95 101.83,-95 107.17,-95 112.5,-100.33 112.5,-105.67 112.5,-105.67 112.5,-116.33 112.5,-116.33 112.5,-121.67 107.17,-127 101.83,-127 101.83,-127 58.17,-127 58.17,-127 52.83,-127 47.5,-121.67 47.5,-116.33 47.5,-116.33 47.5,-105.67 47.5,-105.67 47.5,-100.33 52.83,-95 58.17,-95"/>
</a>
</g>
</g>
<!-- function&#45;2&#45;ImmVal -->
<g id="node3" class="node">
<title>function&#45;2&#45;ImmVal</title>
<g id="a_node3"><a xlink:title="Imm&#45;6: function&#45;2&#45;ImmVal">
<path fill="white" stroke="transparent" d="M289.67,-95C289.67,-95 330.33,-95 330.33,-95 335.67,-95 341,-100.33 341,-105.67 341,-105.67 341,-116.33 341,-116.33 341,-121.67 335.67,-127 330.33,-127 330.33,-127 289.67,-127 289.67,-127 284.33,-127 279,-121.67 279,-116.33 279,-116.33 279,-105.67 279,-105.67 279,-100.33 284.33,-95 289.67,-95"/>
<text text-anchor="start" x="284" y="-107.3" font-family="Helvetica,sans-Serif" font-size="14.00">ImmVal</text>
<path fill="none" stroke="black" d="M289.67,-95C289.67,-95 330.33,-95 330.33,-95 335.67,-95 341,-100.33 341,-105.67 341,-105.67 341,-116.33 341,-116.33 341,-121.67 335.67,-127 330.33,-127 330.33,-127 289.67,-127 289.67,-127 284.33,-127 279,-121.67 279,-116.33 279,-116.33 279,-105.67 279,-105.67 279,-100.33 284.33,-95 289.67,-95"/>
</a>
</g>
</g>
<!-- primitive&#45;i64&#45;4 -->
<g id="node4" class="node">
<title>primitive&#45;i64&#45;4</title>
<g id="a_node4"><a xlink:title="i64&#45;4: primitive&#45;i64&#45;4">
<path fill="white" stroke="transparent" d="M304.67,-16C304.67,-16 315.33,-16 315.33,-16 320.67,-16 326,-21.33 326,-26.67 326,-26.67 326,-37.33 326,-37.33 326,-42.67 320.67,-48 315.33,-48 315.33,-48 304.67,-48 304.67,-48 299.33,-48 294,-42.67 294,-37.33 294,-37.33 294,-26.67 294,-26.67 294,-21.33 299.33,-16 304.67,-16"/>
<text text-anchor="start" x="305" y="-28.3" font-family="Helvetica,sans-Serif" font-size="14.00">4</text>
<path fill="none" stroke="black" d="M304.67,-16C304.67,-16 315.33,-16 315.33,-16 320.67,-16 326,-21.33 326,-26.67 326,-26.67 326,-37.33 326,-37.33 326,-42.67 320.67,-48 315.33,-48 315.33,-48 304.67,-48 304.67,-48 299.33,-48 294,-42.67 294,-37.33 294,-37.33 294,-26.67 294,-26.67 294,-21.33 299.33,-16 304.67,-16"/>
</a>
</g>
</g>
<!-- function&#45;0&#45;ImmVal -->
<g id="node5" class="node">
<title>function&#45;0&#45;ImmVal</title>
<g id="a_node5"><a xlink:title="Imm&#45;2: function&#45;0&#45;ImmVal">
<path fill="white" stroke="transparent" d="M137.67,-95C137.67,-95 178.33,-95 178.33,-95 183.67,-95 189,-100.33 189,-105.67 189,-105.67 189,-116.33 189,-116.33 189,-121.67 183.67,-127 178.33,-127 178.33,-127 137.67,-127 137.67,-127 132.33,-127 127,-121.67 127,-116.33 127,-116.33 127,-105.67 127,-105.67 127,-100.33 132.33,-95 137.67,-95"/>
<text text-anchor="start" x="132" y="-107.3" font-family="Helvetica,sans-Serif" font-size="14.00">ImmVal</text>
<path fill="none" stroke="black" d="M137.67,-95C137.67,-95 178.33,-95 178.33,-95 183.67,-95 189,-100.33 189,-105.67 189,-105.67 189,-116.33 189,-116.33 189,-121.67 183.67,-127 178.33,-127 178.33,-127 137.67,-127 137.67,-127 132.33,-127 127,-121.67 127,-116.33 127,-116.33 127,-105.67 127,-105.67 127,-100.33 132.33,-95 137.67,-95"/>
</a>
</g>
</g>
<!-- primitive&#45;i64&#45;56 -->
<g id="node6" class="node">
<title>primitive&#45;i64&#45;56</title>
<g id="a_node6"><a xlink:title="i64&#45;56: primitive&#45;i64&#45;56">
<path fill="white" stroke="transparent" d="M151.67,-16C151.67,-16 162.33,-16 162.33,-16 167.67,-16 173,-21.33 173,-26.67 173,-26.67 173,-37.33 173,-37.33 173,-42.67 167.67,-48 162.33,-48 162.33,-48 151.67,-48 151.67,-48 146.33,-48 141,-42.67 141,-37.33 141,-37.33 141,-26.67 141,-26.67 141,-21.33 146.33,-16 151.67,-16"/>
<text text-anchor="start" x="147.5" y="-28.3" font-family="Helvetica,sans-Serif" font-size="14.00">56</text>
<path fill="none" stroke="black" d="M151.67,-16C151.67,-16 162.33,-16 162.33,-16 167.67,-16 173,-21.33 173,-26.67 173,-26.67 173,-37.33 173,-37.33 173,-42.67 167.67,-48 162.33,-48 162.33,-48 151.67,-48 151.67,-48 146.33,-48 141,-42.67 141,-37.33 141,-37.33 141,-26.67 141,-26.67 141,-21.33 146.33,-16 151.67,-16"/>
</a>
</g>
</g>
<!-- function&#45;0&#45;Jal -->
<g id="node7" class="node">
<title>function&#45;0&#45;Jal</title>
<g id="a_node7"><a xlink:title="Inst&#45;8: function&#45;0&#45;Jal">
<path fill="white" stroke="transparent" d="M35.67,-253C35.67,-253 46.33,-253 46.33,-253 51.67,-253 57,-258.33 57,-263.67 57,-263.67 57,-274.33 57,-274.33 57,-279.67 51.67,-285 46.33,-285 46.33,-285 35.67,-285 35.67,-285 30.33,-285 25,-279.67 25,-274.33 25,-274.33 25,-263.67 25,-263.67 25,-258.33 30.33,-253 35.67,-253"/>
<text text-anchor="start" x="32.5" y="-265.3" font-family="Helvetica,sans-Serif" font-size="14.00">Jal</text>
<path fill="none" stroke="black" d="M35.67,-253C35.67,-253 46.33,-253 46.33,-253 51.67,-253 57,-258.33 57,-263.67 57,-263.67 57,-274.33 57,-274.33 57,-279.67 51.67,-285 46.33,-285 46.33,-285 35.67,-285 35.67,-285 30.33,-285 25,-279.67 25,-274.33 25,-274.33 25,-263.67 25,-263.67 25,-258.33 30.33,-253 35.67,-253"/>
</a>
</g>
</g>
<!-- function&#45;0&#45;Blt -->
<g id="node8" class="node">
<title>function&#45;0&#45;Blt</title>
<g id="a_node8"><a xlink:title="Inst&#45;5: function&#45;0&#45;Blt">
<path fill="white" stroke="transparent" d="M95.67,-332C95.67,-332 106.33,-332 106.33,-332 111.67,-332 117,-337.33 117,-342.67 117,-342.67 117,-353.33 117,-353.33 117,-358.67 111.67,-364 106.33,-364 106.33,-364 95.67,-364 95.67,-364 90.33,-364 85,-358.67 85,-353.33 85,-353.33 85,-342.67 85,-342.67 85,-337.33 90.33,-332 95.67,-332"/>
<text text-anchor="start" x="91.5" y="-344.3" font-family="Helvetica,sans-Serif" font-size="14.00">Blt</text>
<path fill="none" stroke="black" d="M95.67,-332C95.67,-332 106.33,-332 106.33,-332 111.67,-332 117,-337.33 117,-342.67 117,-342.67 117,-353.33 117,-353.33 117,-358.67 111.67,-364 106.33,-364 106.33,-364 95.67,-364 95.67,-364 90.33,-364 85,-358.67 85,-353.33 85,-353.33 85,-342.67 85,-342.67 85,-337.33 90.33,-332 95.67,-332"/>
</a>
</g>
</g>
<!-- function&#45;0&#45;Addi -->
<g id="node9" class="node">
<title>function&#45;0&#45;Addi</title>
<g id="a_node9"><a xlink:title="Inst&#45;3: function&#45;0&#45;Addi">
<path fill="white" stroke="transparent" d="M145.17,-174C145.17,-174 164.83,-174 164.83,-174 170.17,-174 175.5,-179.33 175.5,-184.67 175.5,-184.67 175.5,-195.33 175.5,-195.33 175.5,-200.67 170.17,-206 164.83,-206 164.83,-206 145.17,-206 145.17,-206 139.83,-206 134.5,-200.67 134.5,-195.33 134.5,-195.33 134.5,-184.67 134.5,-184.67 134.5,-179.33 139.83,-174 145.17,-174"/>
<text text-anchor="start" x="140" y="-186.3" font-family="Helvetica,sans-Serif" font-size="14.00">Addi</text>
<path fill="none" stroke="black" d="M145.17,-174C145.17,-174 164.83,-174 164.83,-174 170.17,-174 175.5,-179.33 175.5,-184.67 175.5,-184.67 175.5,-195.33 175.5,-195.33 175.5,-200.67 170.17,-206 164.83,-206 164.83,-206 145.17,-206 145.17,-206 139.83,-206 134.5,-200.67 134.5,-195.33 134.5,-195.33 134.5,-184.67 134.5,-184.67 134.5,-179.33 139.83,-174 145.17,-174"/>
</a>
</g>
</g>
<!-- function&#45;0&#45;RegVal -->
<g id="node10" class="node">
<title>function&#45;0&#45;RegVal</title>
<g id="a_node10"><a xlink:title="Inst&#45;0: function&#45;0&#45;RegVal">
<path fill="white" stroke="transparent" d="M423.17,-174C423.17,-174 458.83,-174 458.83,-174 464.17,-174 469.5,-179.33 469.5,-184.67 469.5,-184.67 469.5,-195.33 469.5,-195.33 469.5,-200.67 464.17,-206 458.83,-206 458.83,-206 423.17,-206 423.17,-206 417.83,-206 412.5,-200.67 412.5,-195.33 412.5,-195.33 412.5,-184.67 412.5,-184.67 412.5,-179.33 417.83,-174 423.17,-174"/>
<text text-anchor="start" x="418" y="-186.3" font-family="Helvetica,sans-Serif" font-size="14.00">RegVal</text>
<path fill="none" stroke="black" d="M423.17,-174C423.17,-174 458.83,-174 458.83,-174 464.17,-174 469.5,-179.33 469.5,-184.67 469.5,-184.67 469.5,-195.33 469.5,-195.33 469.5,-200.67 464.17,-206 458.83,-206 458.83,-206 423.17,-206 423.17,-206 417.83,-206 412.5,-200.67 412.5,-195.33 412.5,-195.33 412.5,-184.67 412.5,-184.67 412.5,-179.33 417.83,-174 423.17,-174"/>
</a>
</g>
</g>
<!-- function&#45;0&#45;Bge -->
<g id="node11" class="node">
<title>function&#45;0&#45;Bge</title>
<g id="a_node11"><a xlink:title="Inst&#45;5: function&#45;0&#45;Bge">
<path fill="white" stroke="transparent" d="M150.67,-332C150.67,-332 167.33,-332 167.33,-332 172.67,-332 178,-337.33 178,-342.67 178,-342.67 178,-353.33 178,-353.33 178,-358.67 172.67,-364 167.33,-364 167.33,-364 150.67,-364 150.67,-364 145.33,-364 140,-358.67 140,-353.33 140,-353.33 140,-342.67 140,-342.67 140,-337.33 145.33,-332 150.67,-332"/>
<text text-anchor="start" x="145" y="-344.3" font-family="Helvetica,sans-Serif" font-size="14.00">Bge</text>
<path fill="none" stroke="black" d="M150.67,-332C150.67,-332 167.33,-332 167.33,-332 172.67,-332 178,-337.33 178,-342.67 178,-342.67 178,-353.33 178,-353.33 178,-358.67 172.67,-364 167.33,-364 167.33,-364 150.67,-364 150.67,-364 145.33,-364 140,-358.67 140,-353.33 140,-353.33 140,-342.67 140,-342.67 140,-337.33 145.33,-332 150.67,-332"/>
</a>
</g>
</g>
<!-- function&#45;0&#45;Seq2 -->
<g id="node12" class="node">
<title>function&#45;0&#45;Seq2</title>
<g id="a_node12"><a xlink:title="Inst&#45;5: function&#45;0&#45;Seq2">
<path fill="white" stroke="transparent" d="M30.67,-332C30.67,-332 55.33,-332 55.33,-332 60.67,-332 66,-337.33 66,-342.67 66,-342.67 66,-353.33 66,-353.33 66,-358.67 60.67,-364 55.33,-364 55.33,-364 30.67,-364 30.67,-364 25.33,-364 20,-358.67 20,-353.33 20,-353.33 20,-342.67 20,-342.67 20,-337.33 25.33,-332 30.67,-332"/>
<text text-anchor="start" x="25" y="-344.3" font-family="Helvetica,sans-Serif" font-size="14.00">Seq2</text>
<path fill="none" stroke="black" d="M30.67,-332C30.67,-332 55.33,-332 55.33,-332 60.67,-332 66,-337.33 66,-342.67 66,-342.67 66,-353.33 66,-353.33 66,-358.67 60.67,-364 55.33,-364 55.33,-364 30.67,-364 30.67,-364 25.33,-364 20,-358.67 20,-353.33 20,-353.33 20,-342.67 20,-342.67 20,-337.33 25.33,-332 30.67,-332"/>
</a>
</g>
</g>
<!-- function&#45;2&#45;Blt -->
<g id="node13" class="node">
<title>function&#45;2&#45;Blt</title>
<g id="a_node13"><a xlink:title="Inst&#45;7: function&#45;2&#45;Blt">
<path fill="white" stroke="transparent" d="M383.67,-253C383.67,-253 394.33,-253 394.33,-253 399.67,-253 405,-258.33 405,-263.67 405,-263.67 405,-274.33 405,-274.33 405,-279.67 399.67,-285 394.33,-285 394.33,-285 383.67,-285 383.67,-285 378.33,-285 373,-279.67 373,-274.33 373,-274.33 373,-263.67 373,-263.67 373,-258.33 378.33,-253 383.67,-253"/>
<text text-anchor="start" x="379.5" y="-265.3" font-family="Helvetica,sans-Serif" font-size="14.00">Blt</text>
<path fill="none" stroke="black" d="M383.67,-253C383.67,-253 394.33,-253 394.33,-253 399.67,-253 405,-258.33 405,-263.67 405,-263.67 405,-274.33 405,-274.33 405,-279.67 399.67,-285 394.33,-285 394.33,-285 383.67,-285 383.67,-285 378.33,-285 373,-279.67 373,-274.33 373,-274.33 373,-263.67 373,-263.67 373,-258.33 378.33,-253 383.67,-253"/>
</a>
</g>
</g>
<!-- primitive&#45;String&#45;0 -->
<g id="node14" class="node">
<title>primitive&#45;String&#45;0</title>
<g id="a_node14"><a xlink:title="String&#45;0: primitive&#45;String&#45;0">
<path fill="white" stroke="transparent" d="M424.17,-95C424.17,-95 459.83,-95 459.83,-95 465.17,-95 470.5,-100.33 470.5,-105.67 470.5,-105.67 470.5,-116.33 470.5,-116.33 470.5,-121.67 465.17,-127 459.83,-127 459.83,-127 424.17,-127 424.17,-127 418.83,-127 413.5,-121.67 413.5,-116.33 413.5,-116.33 413.5,-105.67 413.5,-105.67 413.5,-100.33 418.83,-95 424.17,-95"/>
<text text-anchor="start" x="419" y="-107.3" font-family="Helvetica,sans-Serif" font-size="14.00">&quot;a4_0&quot;</text>
<path fill="none" stroke="black" d="M424.17,-95C424.17,-95 459.83,-95 459.83,-95 465.17,-95 470.5,-100.33 470.5,-105.67 470.5,-105.67 470.5,-116.33 470.5,-116.33 470.5,-121.67 465.17,-127 459.83,-127 459.83,-127 424.17,-127 424.17,-127 418.83,-127 413.5,-121.67 413.5,-116.33 413.5,-116.33 413.5,-105.67 413.5,-105.67 413.5,-100.33 418.83,-95 424.17,-95"/>
</a>
</g>
</g>
<!-- function&#45;1&#45;Blt -->
<g id="node15" class="node">
<title>function&#45;1&#45;Blt</title>
<g id="a_node15"><a xlink:title="Inst&#45;10: function&#45;1&#45;Blt">
<path fill="white" stroke="transparent" d="M143.67,-253C143.67,-253 154.33,-253 154.33,-253 159.67,-253 165,-258.33 165,-263.67 165,-263.67 165,-274.33 165,-274.33 165,-279.67 159.67,-285 154.33,-285 154.33,-285 143.67,-285 143.67,-285 138.33,-285 133,-279.67 133,-274.33 133,-274.33 133,-263.67 133,-263.67 133,-258.33 138.33,-253 143.67,-253"/>
<text text-anchor="start" x="139.5" y="-265.3" font-family="Helvetica,sans-Serif" font-size="14.00">Blt</text>
<path fill="none" stroke="black" d="M143.67,-253C143.67,-253 154.33,-253 154.33,-253 159.67,-253 165,-258.33 165,-263.67 165,-263.67 165,-274.33 165,-274.33 165,-279.67 159.67,-285 154.33,-285 154.33,-285 143.67,-285 143.67,-285 138.33,-285 133,-279.67 133,-274.33 133,-274.33 133,-263.67 133,-263.67 133,-258.33 138.33,-253 143.67,-253"/>
</a>
</g>
</g>
<!-- function&#45;2&#45;Bge -->
<g id="node16" class="node">
<title>function&#45;2&#45;Bge</title>
<g id="a_node16"><a xlink:title="Inst&#45;10: function&#45;2&#45;Bge">
<path fill="white" stroke="transparent" d="M198.67,-253C198.67,-253 215.33,-253 215.33,-253 220.67,-253 226,-258.33 226,-263.67 226,-263.67 226,-274.33 226,-274.33 226,-279.67 220.67,-285 215.33,-285 215.33,-285 198.67,-285 198.67,-285 193.33,-285 188,-279.67 188,-274.33 188,-274.33 188,-263.67 188,-263.67 188,-258.33 193.33,-253 198.67,-253"/>
<text text-anchor="start" x="193" y="-265.3" font-family="Helvetica,sans-Serif" font-size="14.00">Bge</text>
<path fill="none" stroke="black" d="M198.67,-253C198.67,-253 215.33,-253 215.33,-253 220.67,-253 226,-258.33 226,-263.67 226,-263.67 226,-274.33 226,-274.33 226,-279.67 220.67,-285 215.33,-285 215.33,-285 198.67,-285 198.67,-285 193.33,-285 188,-279.67 188,-274.33 188,-274.33 188,-263.67 188,-263.67 188,-258.33 193.33,-253 198.67,-253"/>
</a>
</g>
</g>
<!-- function&#45;2&#45;Seq2 -->
<g id="node17" class="node">
<title>function&#45;2&#45;Seq2</title>
<g id="a_node17"><a xlink:title="Inst&#45;10: function&#45;2&#45;Seq2">
<path fill="white" stroke="transparent" d="M252.67,-253C252.67,-253 277.33,-253 277.33,-253 282.67,-253 288,-258.33 288,-263.67 288,-263.67 288,-274.33 288,-274.33 288,-279.67 282.67,-285 277.33,-285 277.33,-285 252.67,-285 252.67,-285 247.33,-285 242,-279.67 242,-274.33 242,-274.33 242,-263.67 242,-263.67 242,-258.33 247.33,-253 252.67,-253"/>
<text text-anchor="start" x="247" y="-265.3" font-family="Helvetica,sans-Serif" font-size="14.00">Seq2</text>
<path fill="none" stroke="black" d="M252.67,-253C252.67,-253 277.33,-253 277.33,-253 282.67,-253 288,-258.33 288,-263.67 288,-263.67 288,-274.33 288,-274.33 288,-279.67 282.67,-285 277.33,-285 277.33,-285 252.67,-285 252.67,-285 247.33,-285 242,-279.67 242,-274.33 242,-274.33 242,-263.67 242,-263.67 242,-258.33 247.33,-253 252.67,-253"/>
</a>
</g>
</g>
<!-- function&#45;1&#45;Seq2 -->
<g id="node18" class="node">
<title>function&#45;1&#45;Seq2</title>
<g id="a_node18"><a xlink:title="Inst&#45;7: function&#45;1&#45;Seq2">
<path fill="white" stroke="transparent" d="M318.67,-253C318.67,-253 343.33,-253 343.33,-253 348.67,-253 354,-258.33 354,-263.67 354,-263.67 354,-274.33 354,-274.33 354,-279.67 348.67,-285 343.33,-285 343.33,-285 318.67,-285 318.67,-285 313.33,-285 308,-279.67 308,-274.33 308,-274.33 308,-263.67 308,-263.67 308,-258.33 313.33,-253 318.67,-253"/>
<text text-anchor="start" x="313" y="-265.3" font-family="Helvetica,sans-Serif" font-size="14.00">Seq2</text>
<path fill="none" stroke="black" d="M318.67,-253C318.67,-253 343.33,-253 343.33,-253 348.67,-253 354,-258.33 354,-263.67 354,-263.67 354,-274.33 354,-274.33 354,-279.67 348.67,-285 343.33,-285 343.33,-285 318.67,-285 318.67,-285 313.33,-285 308,-279.67 308,-274.33 308,-274.33 308,-263.67 308,-263.67 308,-258.33 313.33,-253 318.67,-253"/>
</a>
</g>
</g>
<!-- function&#45;1&#45;Jal -->
<g id="node19" class="node">
<title>function&#45;1&#45;Jal</title>
<g id="a_node19"><a xlink:title="Inst&#45;11: function&#45;1&#45;Jal">
<path fill="white" stroke="transparent" d="M304.67,-174C304.67,-174 315.33,-174 315.33,-174 320.67,-174 326,-179.33 326,-184.67 326,-184.67 326,-195.33 326,-195.33 326,-200.67 320.67,-206 315.33,-206 315.33,-206 304.67,-206 304.67,-206 299.33,-206 294,-200.67 294,-195.33 294,-195.33 294,-184.67 294,-184.67 294,-179.33 299.33,-174 304.67,-174"/>
<text text-anchor="start" x="301.5" y="-186.3" font-family="Helvetica,sans-Serif" font-size="14.00">Jal</text>
<path fill="none" stroke="black" d="M304.67,-174C304.67,-174 315.33,-174 315.33,-174 320.67,-174 326,-179.33 326,-184.67 326,-184.67 326,-195.33 326,-195.33 326,-200.67 320.67,-206 315.33,-206 315.33,-206 304.67,-206 304.67,-206 299.33,-206 294,-200.67 294,-195.33 294,-195.33 294,-184.67 294,-184.67 294,-179.33 299.33,-174 304.67,-174"/>
</a>
</g>
</g>
<!-- function&#45;1&#45;Bge -->
<g id="node20" class="node">
<title>function&#45;1&#45;Bge</title>
<g id="a_node20"><a xlink:title="Inst&#45;7: function&#45;1&#45;Bge">
<path fill="white" stroke="transparent" d="M438.67,-253C438.67,-253 455.33,-253 455.33,-253 460.67,-253 466,-258.33 466,-263.67 466,-263.67 466,-274.33 466,-274.33 466,-279.67 460.67,-285 455.33,-285 455.33,-285 438.67,-285 438.67,-285 433.33,-285 428,-279.67 428,-274.33 428,-274.33 428,-263.67 428,-263.67 428,-258.33 433.33,-253 438.67,-253"/>
<text text-anchor="start" x="433" y="-265.3" font-family="Helvetica,sans-Serif" font-size="14.00">Bge</text>
<path fill="none" stroke="black" d="M438.67,-253C438.67,-253 455.33,-253 455.33,-253 460.67,-253 466,-258.33 466,-263.67 466,-263.67 466,-274.33 466,-274.33 466,-279.67 460.67,-285 455.33,-285 455.33,-285 438.67,-285 438.67,-285 433.33,-285 428,-279.67 428,-274.33 428,-274.33 428,-263.67 428,-263.67 428,-258.33 433.33,-253 438.67,-253"/>
</a>
</g>
</g>
<!-- function&#45;1&#45;RegVal -->
<g id="node21" class="node">
<title>function&#45;1&#45;RegVal</title>
<g id="a_node21"><a xlink:title="Inst&#45;1: function&#45;1&#45;RegVal">
<path fill="white" stroke="transparent" d="M212.17,-95C212.17,-95 247.83,-95 247.83,-95 253.17,-95 258.5,-100.33 258.5,-105.67 258.5,-105.67 258.5,-116.33 258.5,-116.33 258.5,-121.67 253.17,-127 247.83,-127 247.83,-127 212.17,-127 212.17,-127 206.83,-127 201.5,-121.67 201.5,-116.33 201.5,-116.33 201.5,-105.67 201.5,-105.67 201.5,-100.33 206.83,-95 212.17,-95"/>
<text text-anchor="start" x="207" y="-107.3" font-family="Helvetica,sans-Serif" font-size="14.00">RegVal</text>
<path fill="none" stroke="black" d="M212.17,-95C212.17,-95 247.83,-95 247.83,-95 253.17,-95 258.5,-100.33 258.5,-105.67 258.5,-105.67 258.5,-116.33 258.5,-116.33 258.5,-121.67 253.17,-127 247.83,-127 247.83,-127 212.17,-127 212.17,-127 206.83,-127 201.5,-121.67 201.5,-116.33 201.5,-116.33 201.5,-105.67 201.5,-105.67 201.5,-100.33 206.83,-95 212.17,-95"/>
</a>
</g>
</g>
<!-- primitive&#45;String&#45;1 -->
<g id="node22" class="node">
<title>primitive&#45;String&#45;1</title>
<g id="a_node22"><a xlink:title="String&#45;1: primitive&#45;String&#45;1">
<path fill="white" stroke="transparent" d="M207.17,-16C207.17,-16 254.83,-16 254.83,-16 260.17,-16 265.5,-21.33 265.5,-26.67 265.5,-26.67 265.5,-37.33 265.5,-37.33 265.5,-42.67 260.17,-48 254.83,-48 254.83,-48 207.17,-48 207.17,-48 201.83,-48 196.5,-42.67 196.5,-37.33 196.5,-37.33 196.5,-26.67 196.5,-26.67 196.5,-21.33 201.83,-16 207.17,-16"/>
<text text-anchor="start" x="202" y="-28.3" font-family="Helvetica,sans-Serif" font-size="14.00">&quot;zero_0&quot;</text>
<path fill="none" stroke="black" d="M207.17,-16C207.17,-16 254.83,-16 254.83,-16 260.17,-16 265.5,-21.33 265.5,-26.67 265.5,-26.67 265.5,-37.33 265.5,-37.33 265.5,-42.67 260.17,-48 254.83,-48 254.83,-48 207.17,-48 207.17,-48 201.83,-48 196.5,-42.67 196.5,-37.33 196.5,-37.33 196.5,-26.67 196.5,-26.67 196.5,-21.33 201.83,-16 207.17,-16"/>
</a>
</g>
</g>
</g>
</svg>
