<?xml version="1.0" encoding="UTF-8" standalone="no"?>
<!DOCTYPE svg PUBLIC "-//W3C//DTD SVG 1.1//EN"
 "http://www.w3.org/Graphics/SVG/1.1/DTD/svg11.dtd">
<!-- Generated by graphviz version 2.43.0 (0)
 -->
<!-- Title: %3 Pages: 1 -->
<svg width="513pt" height="388pt"
 viewBox="0.00 0.00 513.28 388.00" xmlns="http://www.w3.org/2000/svg" xmlns:xlink="http://www.w3.org/1999/xlink">
<g id="graph0" class="graph" transform="scale(1 1) rotate(0) translate(4 384)">
<title>%3</title>
<polygon fill="white" stroke="#000000" points="-4,4 -4,-384 509.28,-384 509.28,4 -4,4"/>
<g id="clust1" class="cluster">
<title>outer_cluster_Imm&#45;2</title>
</g>
<g id="clust2" class="cluster">
<title>cluster_Imm&#45;2</title>
<path fill="#ffffb3" stroke="black" stroke-dasharray="5,2" d="M65,-169C65,-169 109,-169 109,-169 115,-169 121,-175 121,-181 121,-181 121,-199 121,-199 121,-205 115,-211 109,-211 109,-211 65,-211 65,-211 59,-211 53,-205 53,-199 53,-199 53,-181 53,-181 53,-175 59,-169 65,-169"/>
</g>
<g id="clust4" class="cluster">
<title>outer_cluster_Imm&#45;4</title>
</g>
<g id="clust5" class="cluster">
<title>cluster_Imm&#45;4</title>
<path fill="#ffffb3" stroke="black" stroke-dasharray="5,2" d="M279,-90C279,-90 323,-90 323,-90 329,-90 335,-96 335,-102 335,-102 335,-120 335,-120 335,-126 329,-132 323,-132 323,-132 279,-132 279,-132 273,-132 267,-126 267,-120 267,-120 267,-102 267,-102 267,-96 273,-90 279,-90"/>
</g>
<g id="clust7" class="cluster">
<title>outer_cluster_Inst&#45;0</title>
</g>
<g id="clust8" class="cluster">
<title>cluster_Inst&#45;0</title>
<path fill="#bebada" stroke="black" stroke-dasharray="5,2" d="M145,-169C145,-169 185,-169 185,-169 191,-169 197,-175 197,-181 197,-181 197,-199 197,-199 197,-205 191,-211 185,-211 185,-211 145,-211 145,-211 139,-211 133,-205 133,-199 133,-199 133,-181 133,-181 133,-175 139,-169 145,-169"/>
</g>
<g id="clust10" class="cluster">
<title>outer_cluster_Inst&#45;6</title>
</g>
<g id="clust11" class="cluster">
<title>cluster_Inst&#45;6</title>
<path fill="#bebada" stroke="black" stroke-dasharray="5,2" d="M30,-248C30,-248 66,-248 66,-248 72,-248 78,-254 78,-260 78,-260 78,-278 78,-278 78,-284 72,-290 66,-290 66,-290 30,-290 30,-290 24,-290 18,-284 18,-278 18,-278 18,-260 18,-260 18,-254 24,-248 30,-248"/>
</g>
<g id="clust13" class="cluster">
<title>outer_cluster_Inst&#45;3</title>
</g>
<g id="clust14" class="cluster">
<title>cluster_Inst&#45;3</title>
<path fill="#bebada" stroke="black" stroke-dasharray="5,2" d="M23,-327C23,-327 175,-327 175,-327 181,-327 187,-333 187,-339 187,-339 187,-357 187,-357 187,-363 181,-369 175,-369 175,-369 23,-369 23,-369 17,-369 11,-363 11,-357 11,-357 11,-339 11,-339 11,-333 17,-327 23,-327"/>
</g>
<g id="clust16" class="cluster">
<title>outer_cluster_Inst&#45;8</title>
</g>
<g id="clust17" class="cluster">
<title>cluster_Inst&#45;8</title>
<path fill="#bebada" stroke="black" stroke-dasharray="5,2" d="M138,-248C138,-248 290,-248 290,-248 296,-248 302,-254 302,-260 302,-260 302,-278 302,-278 302,-284 296,-290 290,-290 290,-290 138,-290 138,-290 132,-290 126,-284 126,-278 126,-278 126,-260 126,-260 126,-254 132,-248 138,-248"/>
</g>
<g id="clust19" class="cluster">
<title>outer_cluster_Inst&#45;9</title>
</g>
<g id="clust20" class="cluster">
<title>cluster_Inst&#45;9</title>
<path fill="#bebada" stroke="black" stroke-dasharray="5,2" d="M283,-169C283,-169 319,-169 319,-169 325,-169 331,-175 331,-181 331,-181 331,-199 331,-199 331,-205 325,-211 319,-211 319,-211 283,-211 283,-211 277,-211 271,-205 271,-199 271,-199 271,-181 271,-181 271,-175 277,-169 283,-169"/>
</g>
<g id="clust22" class="cluster">
<title>outer_cluster_Inst&#45;1</title>
</g>
<g id="clust23" class="cluster">
<title>cluster_Inst&#45;1</title>
<path fill="#bebada" stroke="black" stroke-dasharray="5,2" d="M399,-169C399,-169 439,-169 439,-169 445,-169 451,-175 451,-181 451,-181 451,-199 451,-199 451,-205 445,-211 439,-211 439,-211 399,-211 399,-211 393,-211 387,-205 387,-199 387,-199 387,-181 387,-181 387,-175 393,-169 399,-169"/>
</g>
<g id="clust25" class="cluster">
<title>outer_cluster_Inst&#45;5</title>
</g>
<g id="clust26" class="cluster">
<title>cluster_Inst&#45;5</title>
<path fill="#bebada" stroke="black" stroke-dasharray="5,2" d="M320,-248C320,-248 472,-248 472,-248 478,-248 484,-254 484,-260 484,-260 484,-278 484,-278 484,-284 478,-290 472,-290 472,-290 320,-290 320,-290 314,-290 308,-284 308,-278 308,-278 308,-260 308,-260 308,-254 314,-248 320,-248"/>
</g>
<g id="clust28" class="cluster">
<title>outer_cluster_String&#45;0</title>
</g>
<g id="clust29" class="cluster">
<title>cluster_String&#45;0</title>
<path fill="#fb8072" stroke="black" stroke-dasharray="5,2" d="M146,-90C146,-90 186,-90 186,-90 192,-90 198,-96 198,-102 198,-102 198,-120 198,-120 198,-126 192,-132 186,-132 186,-132 146,-132 146,-132 140,-132 134,-126 134,-120 134,-120 134,-102 134,-102 134,-96 140,-90 146,-90"/>
</g>
<g id="clust31" class="cluster">
<title>outer_cluster_String&#45;1</title>
</g>
<g id="clust32" class="cluster">
<title>cluster_String&#45;1</title>
<path fill="#fb8072" stroke="black" stroke-dasharray="5,2" d="M400,-90C400,-90 440,-90 440,-90 446,-90 452,-96 452,-102 452,-102 452,-120 452,-120 452,-126 446,-132 440,-132 440,-132 400,-132 400,-132 394,-132 388,-126 388,-120 388,-120 388,-102 388,-102 388,-96 394,-90 400,-90"/>
</g>
<g id="clust34" class="cluster">
<title>outer_cluster_i64&#45;4</title>
</g>
<g id="clust35" class="cluster">
<title>cluster_i64&#45;4</title>
<path fill="#80b1d3" stroke="black" stroke-dasharray="5,2" d="M283,-11C283,-11 319,-11 319,-11 325,-11 331,-17 331,-23 331,-23 331,-41 331,-41 331,-47 325,-53 319,-53 319,-53 283,-53 283,-53 277,-53 271,-47 271,-41 271,-41 271,-23 271,-23 271,-17 277,-11 283,-11"/>
</g>
<g id="clust37" class="cluster">
<title>outer_cluster_i64&#45;0</title>
</g>
<g id="clust38" class="cluster">
<title>cluster_i64&#45;0</title>
<path fill="#80b1d3" stroke="black" stroke-dasharray="5,2" d="M69,-90C69,-90 105,-90 105,-90 111,-90 117,-96 117,-102 117,-102 117,-120 117,-120 117,-126 111,-132 105,-132 105,-132 69,-132 69,-132 63,-132 57,-126 57,-120 57,-120 57,-102 57,-102 57,-96 63,-90 69,-90"/>
</g>
<!-- function&#45;0&#45;ImmVal&#45;&gt;primitive&#45;i64&#45;0 -->
<g id="edge1" class="edge">
<title>function&#45;0&#45;ImmVal:s&#45;&gt;primitive&#45;i64&#45;0</title>
<path fill="none" stroke="black" d="M87,-174C87,-160.84 87,-146.11 87,-134.3"/>
<polygon fill="black" stroke="black" points="88.75,-137 87,-132 85.25,-137 88.75,-137"/>
</g>
<!-- function&#45;1&#45;ImmVal&#45;&gt;primitive&#45;i64&#45;4 -->
<g id="edge2" class="edge">
<title>function&#45;1&#45;ImmVal:s&#45;&gt;primitive&#45;i64&#45;4</title>
<path fill="none" stroke="black" d="M301,-95C301,-81.84 301,-67.11 301,-55.3"/>
<polygon fill="black" stroke="black" points="302.75,-58 301,-53 299.25,-58 302.75,-58"/>
</g>
<!-- function&#45;0&#45;RegVal&#45;&gt;primitive&#45;String&#45;0 -->
<g id="edge3" class="edge">
<title>function&#45;0&#45;RegVal:s&#45;&gt;primitive&#45;String&#45;0</title>
<path fill="none" stroke="black" d="M166,-174C166,-160.84 166,-146.11 166,-134.3"/>
<polygon fill="black" stroke="black" points="167.75,-137 166,-132 164.25,-137 167.75,-137"/>
</g>
<!-- function&#45;0&#45;Jal&#45;&gt;function&#45;0&#45;ImmVal -->
<g id="edge4" class="edge">
<title>function&#45;0&#45;Jal:s&#45;&gt;function&#45;0&#45;ImmVal</title>
<path fill="none" stroke="black" d="M48,-253C48,-237.82 56.48,-223.32 65.52,-212.17"/>
<polygon fill="black" stroke="black" points="64.24,-215.6 66.87,-211 61.95,-212.95 64.24,-215.6"/>
</g>
<!-- function&#45;0&#45;Beq&#45;&gt;function&#45;0&#45;ImmVal -->
<g id="edge7" class="edge">
<title>function&#45;0&#45;Beq:s&#45;&gt;function&#45;0&#45;ImmVal</title>
<path fill="none" stroke="black" d="M113,-332C113,-312.72 98.97,-311.63 94,-293 86.87,-266.28 85.82,-234.31 86.1,-213.37"/>
<polygon fill="black" stroke="black" points="87.74,-216.07 86.19,-211 84.24,-215.93 87.74,-216.07"/>
</g>
<!-- function&#45;0&#45;Beq&#45;&gt;function&#45;0&#45;RegVal -->
<g id="edge6" class="edge">
<title>function&#45;0&#45;Beq:s&#45;&gt;function&#45;0&#45;RegVal</title>
<path fill="none" stroke="black" d="M104,-332C104,-292.76 102.35,-280.53 119,-245 124.67,-232.9 133.8,-221.36 142.43,-212.07"/>
<polygon fill="black" stroke="black" points="140.84,-215.18 144.09,-211 138.94,-212.24 140.84,-215.18"/>
</g>
<!-- function&#45;0&#45;Beq&#45;&gt;function&#45;1&#45;RegVal -->
<g id="edge5" class="edge">
<title>function&#45;0&#45;Beq:s&#45;&gt;function&#45;1&#45;RegVal</title>
<path fill="none" stroke="black" d="M90,-332C90,-243.8 425.4,-358.03 485,-293 499.41,-277.27 494.14,-264.28 485,-245 477.99,-230.22 464.74,-218.13 451.93,-209.17"/>
<polygon fill="black" stroke="black" points="455.79,-210.51 451,-208.26 453.34,-213.01 455.79,-210.51"/>
</g>
<!-- function&#45;1&#45;RegVal&#45;&gt;primitive&#45;String&#45;1 -->
<g id="edge22" class="edge">
<title>function&#45;1&#45;RegVal:s&#45;&gt;primitive&#45;String&#45;1</title>
<path fill="none" stroke="black" d="M420,-174C420,-160.84 420,-146.11 420,-134.3"/>
<polygon fill="black" stroke="black" points="421.75,-137 420,-132 418.25,-137 421.75,-137"/>
</g>
<!-- function&#45;1&#45;Beq&#45;&gt;function&#45;0&#45;ImmVal -->
<g id="edge10" class="edge">
<title>function&#45;1&#45;Beq:s&#45;&gt;function&#45;0&#45;ImmVal</title>
<path fill="none" stroke="black" d="M171,-332C171,-303.11 135.68,-316.58 119,-293 101.93,-268.87 93.72,-235.3 89.94,-213.36"/>
<polygon fill="black" stroke="black" points="92.42,-215.14 89.12,-211 89.12,-216.3 92.42,-215.14"/>
</g>
<!-- function&#45;1&#45;Beq&#45;&gt;function&#45;0&#45;RegVal -->
<g id="edge8" class="edge">
<title>function&#45;1&#45;Beq:s&#45;&gt;function&#45;0&#45;RegVal</title>
<path fill="none" stroke="black" d="M148,-332C148,-311.88 130.3,-312.41 125,-293 119.38,-272.42 118.31,-265.26 125,-245 128.97,-232.98 136.76,-221.45 144.42,-212.15"/>
<polygon fill="black" stroke="black" points="143.16,-215.66 145.68,-211 140.8,-213.07 143.16,-215.66"/>
</g>
<!-- function&#45;1&#45;Beq&#45;&gt;function&#45;1&#45;RegVal -->
<g id="edge9" class="edge">
<title>function&#45;1&#45;Beq:s&#45;&gt;function&#45;1&#45;RegVal</title>
<path fill="none" stroke="black" d="M162,-332C162,-257.27 446.32,-348.82 496,-293 510.18,-277.06 505.84,-263.93 496,-245 486.7,-227.12 468.48,-213.94 452.09,-205.07"/>
<polygon fill="black" stroke="black" points="455.47,-206.53 451,-203.68 452.72,-208.69 455.47,-206.53"/>
</g>
<!-- function&#45;0&#45;Seq2&#45;&gt;function&#45;0&#45;Jal -->
<g id="edge12" class="edge">
<title>function&#45;0&#45;Seq2:s&#45;&gt;function&#45;0&#45;Jal</title>
<path fill="none" stroke="black" d="M52,-332C52,-318.81 51.09,-304.08 50.13,-292.28"/>
<polygon fill="black" stroke="black" points="52.36,-294.58 49.7,-290 48.92,-295.24 52.36,-294.58"/>
</g>
<!-- function&#45;0&#45;Seq2&#45;&gt;function&#45;0&#45;Bne -->
<g id="edge11" class="edge">
<title>function&#45;0&#45;Seq2:s&#45;&gt;function&#45;0&#45;Bne</title>
<path fill="none" stroke="black" d="M30,-332C30,-257.05 295.18,-320.23 365,-293 365.53,-292.79 366.07,-292.57 366.6,-292.34"/>
<polygon fill="black" stroke="black" points="367.63,-293.78 371.33,-290 366.07,-290.65 367.63,-293.78"/>
</g>
<!-- function&#45;0&#45;Bne&#45;&gt;function&#45;1&#45;ImmVal -->
<g id="edge25" class="edge">
<title>function&#45;0&#45;Bne:s&#45;&gt;function&#45;1&#45;ImmVal</title>
<path fill="none" stroke="black" d="M410,-253C410,-228.49 386.67,-232.85 371,-214 349.21,-187.79 327.54,-154.87 314.21,-133.64"/>
<polygon fill="black" stroke="black" points="317.31,-134.19 312.49,-132 314.9,-136.72 317.31,-134.19"/>
</g>
<!-- function&#45;0&#45;Bne&#45;&gt;function&#45;0&#45;RegVal -->
<g id="edge24" class="edge">
<title>function&#45;0&#45;Bne:s&#45;&gt;function&#45;0&#45;RegVal</title>
<path fill="none" stroke="black" d="M401,-253C401,-247.84 264.18,-214.59 198.89,-199.02"/>
<polygon fill="black" stroke="black" points="202.17,-199 197,-197.84 200.32,-201.97 202.17,-199"/>
</g>
<!-- function&#45;0&#45;Bne&#45;&gt;function&#45;1&#45;RegVal -->
<g id="edge23" class="edge">
<title>function&#45;0&#45;Bne:s&#45;&gt;function&#45;1&#45;RegVal</title>
<path fill="none" stroke="black" d="M387,-253C387,-238.46 394.04,-223.92 401.51,-212.58"/>
<polygon fill="black" stroke="black" points="400.67,-215.48 403.5,-211 398.5,-212.74 400.67,-215.48"/>
</g>
<!-- function&#45;2&#45;Beq&#45;&gt;function&#45;1&#45;ImmVal -->
<g id="edge15" class="edge">
<title>function&#45;2&#45;Beq:s&#45;&gt;function&#45;1&#45;ImmVal</title>
<path fill="none" stroke="black" d="M170,-253C170,-249.98 232.91,-168.18 235,-166 246.59,-153.89 260.83,-141.93 273.12,-132.36"/>
<polygon fill="black" stroke="black" points="270,-135.23 274.2,-132 268.91,-131.91 270,-135.23"/>
</g>
<!-- function&#45;2&#45;Beq&#45;&gt;function&#45;0&#45;RegVal -->
<g id="edge14" class="edge">
<title>function&#45;2&#45;Beq:s&#45;&gt;function&#45;0&#45;RegVal</title>
<path fill="none" stroke="black" d="M161,-253C161,-239.81 161.91,-225.08 162.87,-213.28"/>
<polygon fill="black" stroke="black" points="164.08,-216.24 163.3,-211 160.64,-215.58 164.08,-216.24"/>
</g>
<!-- function&#45;2&#45;Beq&#45;&gt;function&#45;1&#45;RegVal -->
<g id="edge13" class="edge">
<title>function&#45;2&#45;Beq:s&#45;&gt;function&#45;1&#45;RegVal</title>
<path fill="none" stroke="black" d="M147,-253C147,-210.99 291.12,-223.71 332,-214 349.77,-209.78 369.45,-204.62 385.6,-200.25"/>
<polygon fill="black" stroke="black" points="384.57,-203.63 387,-198.93 382.16,-201.09 384.57,-203.63"/>
</g>
<!-- function&#45;3&#45;Beq&#45;&gt;function&#45;1&#45;ImmVal -->
<g id="edge18" class="edge">
<title>function&#45;3&#45;Beq:s&#45;&gt;function&#45;1&#45;ImmVal</title>
<path fill="none" stroke="black" d="M228,-253C228,-206.16 260.16,-159.39 281.79,-133.22"/>
<polygon fill="black" stroke="black" points="280.59,-136.63 283.16,-132 278.26,-134.02 280.59,-136.63"/>
</g>
<!-- function&#45;3&#45;Beq&#45;&gt;function&#45;0&#45;RegVal -->
<g id="edge16" class="edge">
<title>function&#45;3&#45;Beq:s&#45;&gt;function&#45;0&#45;RegVal</title>
<path fill="none" stroke="black" d="M205,-253C205,-237.71 196.31,-223.2 187.03,-212.07"/>
<polygon fill="black" stroke="black" points="190.65,-212.6 185.59,-211 188.55,-215.4 190.65,-212.6"/>
</g>
<!-- function&#45;3&#45;Beq&#45;&gt;function&#45;1&#45;RegVal -->
<g id="edge17" class="edge">
<title>function&#45;3&#45;Beq:s&#45;&gt;function&#45;1&#45;RegVal</title>
<path fill="none" stroke="black" d="M219,-253C219,-244.4 328.34,-214.62 385.33,-199.68"/>
<polygon fill="black" stroke="black" points="384.15,-202.84 387,-198.37 381.99,-200.09 384.15,-202.84"/>
</g>
<!-- function&#45;2&#45;Seq2&#45;&gt;function&#45;1&#45;Seq2 -->
<g id="edge19" class="edge">
<title>function&#45;2&#45;Seq2:s&#45;&gt;function&#45;1&#45;Seq2</title>
<path fill="none" stroke="black" d="M261,-253C261,-232.44 285.08,-239.47 306.13,-249.89"/>
<polygon fill="black" stroke="black" points="302.96,-249.68 308,-251.3 305.07,-246.89 302.96,-249.68"/>
</g>
<!-- function&#45;2&#45;Seq2&#45;&gt;function&#45;1&#45;Jal -->
<g id="edge20" class="edge">
<title>function&#45;2&#45;Seq2:s&#45;&gt;function&#45;1&#45;Jal</title>
<path fill="none" stroke="black" d="M283,-253C283,-239.37 287.06,-224.69 291.33,-213.05"/>
<polygon fill="black" stroke="black" points="291.9,-216.29 292.16,-211 288.66,-214.98 291.9,-216.29"/>
</g>
<!-- function&#45;1&#45;Seq2&#45;&gt;function&#45;2&#45;Beq -->
<g id="edge29" class="edge">
<title>function&#45;1&#45;Seq2:s&#45;&gt;function&#45;2&#45;Beq</title>
<path fill="none" stroke="black" d="M327,-253C327,-190.28 244.87,-195 189,-223.5 179.47,-228.36 172.04,-237.41 166.67,-246.17"/>
<polygon fill="black" stroke="black" points="167.12,-243.19 164.9,-248 169.63,-245.62 167.12,-243.19"/>
</g>
<!-- function&#45;1&#45;Seq2&#45;&gt;function&#45;1&#45;Jal -->
<g id="edge30" class="edge">
<title>function&#45;1&#45;Seq2:s&#45;&gt;function&#45;1&#45;Jal</title>
<path fill="none" stroke="black" d="M349,-253C349,-236.98 338.85,-222.58 327.89,-211.71"/>
<polygon fill="black" stroke="black" points="331.45,-211.26 326.16,-211 330.13,-214.51 331.45,-211.26"/>
</g>
<!-- function&#45;1&#45;Jal&#45;&gt;function&#45;1&#45;ImmVal -->
<g id="edge21" class="edge">
<title>function&#45;1&#45;Jal:s&#45;&gt;function&#45;1&#45;ImmVal</title>
<path fill="none" stroke="black" d="M301,-174C301,-160.84 301,-146.11 301,-134.3"/>
<polygon fill="black" stroke="black" points="302.75,-137 301,-132 299.25,-137 302.75,-137"/>
</g>
<!-- function&#45;1&#45;Bne&#45;&gt;function&#45;1&#45;ImmVal -->
<g id="edge28" class="edge">
<title>function&#45;1&#45;Bne:s&#45;&gt;function&#45;1&#45;ImmVal</title>
<path fill="none" stroke="black" d="M468,-253C468,-212.64 415.92,-241.08 386,-214 367.52,-197.27 372.55,-185.48 357,-166 347.47,-154.06 335.43,-142.13 324.96,-132.53"/>
<polygon fill="black" stroke="black" points="329.3,-133.36 324.18,-132 327.33,-136.26 329.3,-133.36"/>
</g>
<!-- function&#45;1&#45;Bne&#45;&gt;function&#45;0&#45;RegVal -->
<g id="edge26" class="edge">
<title>function&#45;1&#45;Bne:s&#45;&gt;function&#45;0&#45;RegVal</title>
<path fill="none" stroke="black" d="M445,-253C445,-245.64 478.12,-257.88 270,-214 246.26,-209 219.56,-203.14 199.03,-198.6"/>
<polygon fill="black" stroke="black" points="202.22,-198.37 197,-197.47 200.52,-201.43 202.22,-198.37"/>
</g>
<!-- function&#45;1&#45;Bne&#45;&gt;function&#45;1&#45;RegVal -->
<g id="edge27" class="edge">
<title>function&#45;1&#45;Bne:s&#45;&gt;function&#45;1&#45;RegVal</title>
<path fill="none" stroke="black" d="M459,-253C459,-237.71 450.31,-223.2 441.03,-212.07"/>
<polygon fill="black" stroke="black" points="444.65,-212.6 439.59,-211 442.55,-215.4 444.65,-212.6"/>
</g>
<!-- function&#45;0&#45;ImmVal -->
<g id="node1" class="node">
<title>function&#45;0&#45;ImmVal</title>
<g id="a_node1"><a xlink:title="Imm&#45;2: function&#45;0&#45;ImmVal">
<path fill="white" stroke="transparent" d="M66.67,-174C66.67,-174 107.33,-174 107.33,-174 112.67,-174 118,-179.33 118,-184.67 118,-184.67 118,-195.33 118,-195.33 118,-200.67 112.67,-206 107.33,-206 107.33,-206 66.67,-206 66.67,-206 61.33,-206 56,-200.67 56,-195.33 56,-195.33 56,-184.67 56,-184.67 56,-179.33 61.33,-174 66.67,-174"/>
<text text-anchor="start" x="61" y="-186.3" font-family="Helvetica,sans-Serif" font-size="14.00">ImmVal</text>
<path fill="none" stroke="black" d="M66.67,-174C66.67,-174 107.33,-174 107.33,-174 112.67,-174 118,-179.33 118,-184.67 118,-184.67 118,-195.33 118,-195.33 118,-200.67 112.67,-206 107.33,-206 107.33,-206 66.67,-206 66.67,-206 61.33,-206 56,-200.67 56,-195.33 56,-195.33 56,-184.67 56,-184.67 56,-179.33 61.33,-174 66.67,-174"/>
</a>
</g>
</g>
<!-- primitive&#45;i64&#45;0 -->
<g id="node2" class="node">
<title>primitive&#45;i64&#45;0</title>
<g id="a_node2"><a xlink:title="i64&#45;0: primitive&#45;i64&#45;0">
<path fill="white" stroke="transparent" d="M81.67,-95C81.67,-95 92.33,-95 92.33,-95 97.67,-95 103,-100.33 103,-105.67 103,-105.67 103,-116.33 103,-116.33 103,-121.67 97.67,-127 92.33,-127 92.33,-127 81.67,-127 81.67,-127 76.33,-127 71,-121.67 71,-116.33 71,-116.33 71,-105.67 71,-105.67 71,-100.33 76.33,-95 81.67,-95"/>
<text text-anchor="start" x="82" y="-107.3" font-family="Helvetica,sans-Serif" font-size="14.00">0</text>
<path fill="none" stroke="black" d="M81.67,-95C81.67,-95 92.33,-95 92.33,-95 97.67,-95 103,-100.33 103,-105.67 103,-105.67 103,-116.33 103,-116.33 103,-121.67 97.67,-127 92.33,-127 92.33,-127 81.67,-127 81.67,-127 76.33,-127 71,-121.67 71,-116.33 71,-116.33 71,-105.67 71,-105.67 71,-100.33 76.33,-95 81.67,-95"/>
</a>
</g>
</g>
<!-- function&#45;1&#45;ImmVal -->
<g id="node3" class="node">
<title>function&#45;1&#45;ImmVal</title>
<g id="a_node3"><a xlink:title="Imm&#45;4: function&#45;1&#45;ImmVal">
<path fill="white" stroke="transparent" d="M280.67,-95C280.67,-95 321.33,-95 321.33,-95 326.67,-95 332,-100.33 332,-105.67 332,-105.67 332,-116.33 332,-116.33 332,-121.67 326.67,-127 321.33,-127 321.33,-127 280.67,-127 280.67,-127 275.33,-127 270,-121.67 270,-116.33 270,-116.33 270,-105.67 270,-105.67 270,-100.33 275.33,-95 280.67,-95"/>
<text text-anchor="start" x="275" y="-107.3" font-family="Helvetica,sans-Serif" font-size="14.00">ImmVal</text>
<path fill="none" stroke="black" d="M280.67,-95C280.67,-95 321.33,-95 321.33,-95 326.67,-95 332,-100.33 332,-105.67 332,-105.67 332,-116.33 332,-116.33 332,-121.67 326.67,-127 321.33,-127 321.33,-127 280.67,-127 280.67,-127 275.33,-127 270,-121.67 270,-116.33 270,-116.33 270,-105.67 270,-105.67 270,-100.33 275.33,-95 280.67,-95"/>
</a>
</g>
</g>
<!-- primitive&#45;i64&#45;4 -->
<g id="node4" class="node">
<title>primitive&#45;i64&#45;4</title>
<g id="a_node4"><a xlink:title="i64&#45;4: primitive&#45;i64&#45;4">
<path fill="white" stroke="transparent" d="M295.67,-16C295.67,-16 306.33,-16 306.33,-16 311.67,-16 317,-21.33 317,-26.67 317,-26.67 317,-37.33 317,-37.33 317,-42.67 311.67,-48 306.33,-48 306.33,-48 295.67,-48 295.67,-48 290.33,-48 285,-42.67 285,-37.33 285,-37.33 285,-26.67 285,-26.67 285,-21.33 290.33,-16 295.67,-16"/>
<text text-anchor="start" x="296" y="-28.3" font-family="Helvetica,sans-Serif" font-size="14.00">4</text>
<path fill="none" stroke="black" d="M295.67,-16C295.67,-16 306.33,-16 306.33,-16 311.67,-16 317,-21.33 317,-26.67 317,-26.67 317,-37.33 317,-37.33 317,-42.67 311.67,-48 306.33,-48 306.33,-48 295.67,-48 295.67,-48 290.33,-48 285,-42.67 285,-37.33 285,-37.33 285,-26.67 285,-26.67 285,-21.33 290.33,-16 295.67,-16"/>
</a>
</g>
</g>
<!-- function&#45;0&#45;RegVal -->
<g id="node5" class="node">
<title>function&#45;0&#45;RegVal</title>
<g id="a_node5"><a xlink:title="Inst&#45;0: function&#45;0&#45;RegVal">
<path fill="white" stroke="transparent" d="M147.17,-174C147.17,-174 182.83,-174 182.83,-174 188.17,-174 193.5,-179.33 193.5,-184.67 193.5,-184.67 193.5,-195.33 193.5,-195.33 193.5,-200.67 188.17,-206 182.83,-206 182.83,-206 147.17,-206 147.17,-206 141.83,-206 136.5,-200.67 136.5,-195.33 136.5,-195.33 136.5,-184.67 136.5,-184.67 136.5,-179.33 141.83,-174 147.17,-174"/>
<text text-anchor="start" x="142" y="-186.3" font-family="Helvetica,sans-Serif" font-size="14.00">RegVal</text>
<path fill="none" stroke="black" d="M147.17,-174C147.17,-174 182.83,-174 182.83,-174 188.17,-174 193.5,-179.33 193.5,-184.67 193.5,-184.67 193.5,-195.33 193.5,-195.33 193.5,-200.67 188.17,-206 182.83,-206 182.83,-206 147.17,-206 147.17,-206 141.83,-206 136.5,-200.67 136.5,-195.33 136.5,-195.33 136.5,-184.67 136.5,-184.67 136.5,-179.33 141.83,-174 147.17,-174"/>
</a>
</g>
</g>
<!-- primitive&#45;String&#45;0 -->
<g id="node6" class="node">
<title>primitive&#45;String&#45;0</title>
<g id="a_node6"><a xlink:title="String&#45;0: primitive&#45;String&#45;0">
<path fill="white" stroke="transparent" d="M148.17,-95C148.17,-95 183.83,-95 183.83,-95 189.17,-95 194.5,-100.33 194.5,-105.67 194.5,-105.67 194.5,-116.33 194.5,-116.33 194.5,-121.67 189.17,-127 183.83,-127 183.83,-127 148.17,-127 148.17,-127 142.83,-127 137.5,-121.67 137.5,-116.33 137.5,-116.33 137.5,-105.67 137.5,-105.67 137.5,-100.33 142.83,-95 148.17,-95"/>
<text text-anchor="start" x="143" y="-107.3" font-family="Helvetica,sans-Serif" font-size="14.00">&quot;a1_0&quot;</text>
<path fill="none" stroke="black" d="M148.17,-95C148.17,-95 183.83,-95 183.83,-95 189.17,-95 194.5,-100.33 194.5,-105.67 194.5,-105.67 194.5,-116.33 194.5,-116.33 194.5,-121.67 189.17,-127 183.83,-127 183.83,-127 148.17,-127 148.17,-127 142.83,-127 137.5,-121.67 137.5,-116.33 137.5,-116.33 137.5,-105.67 137.5,-105.67 137.5,-100.33 142.83,-95 148.17,-95"/>
</a>
</g>
</g>
<!-- function&#45;0&#45;Jal -->
<g id="node7" class="node">
<title>function&#45;0&#45;Jal</title>
<g id="a_node7"><a xlink:title="Inst&#45;6: function&#45;0&#45;Jal">
<path fill="white" stroke="transparent" d="M42.67,-253C42.67,-253 53.33,-253 53.33,-253 58.67,-253 64,-258.33 64,-263.67 64,-263.67 64,-274.33 64,-274.33 64,-279.67 58.67,-285 53.33,-285 53.33,-285 42.67,-285 42.67,-285 37.33,-285 32,-279.67 32,-274.33 32,-274.33 32,-263.67 32,-263.67 32,-258.33 37.33,-253 42.67,-253"/>
<text text-anchor="start" x="39.5" y="-265.3" font-family="Helvetica,sans-Serif" font-size="14.00">Jal</text>
<path fill="none" stroke="black" d="M42.67,-253C42.67,-253 53.33,-253 53.33,-253 58.67,-253 64,-258.33 64,-263.67 64,-263.67 64,-274.33 64,-274.33 64,-279.67 58.67,-285 53.33,-285 53.33,-285 42.67,-285 42.67,-285 37.33,-285 32,-279.67 32,-274.33 32,-274.33 32,-263.67 32,-263.67 32,-258.33 37.33,-253 42.67,-253"/>
</a>
</g>
</g>
<!-- function&#45;0&#45;Beq -->
<g id="node8" class="node">
<title>function&#45;0&#45;Beq</title>
<g id="a_node8"><a xlink:title="Inst&#45;3: function&#45;0&#45;Beq">
<path fill="white" stroke="transparent" d="M90.67,-332C90.67,-332 107.33,-332 107.33,-332 112.67,-332 118,-337.33 118,-342.67 118,-342.67 118,-353.33 118,-353.33 118,-358.67 112.67,-364 107.33,-364 107.33,-364 90.67,-364 90.67,-364 85.33,-364 80,-358.67 80,-353.33 80,-353.33 80,-342.67 80,-342.67 80,-337.33 85.33,-332 90.67,-332"/>
<text text-anchor="start" x="85" y="-344.3" font-family="Helvetica,sans-Serif" font-size="14.00">Beq</text>
<path fill="none" stroke="black" d="M90.67,-332C90.67,-332 107.33,-332 107.33,-332 112.67,-332 118,-337.33 118,-342.67 118,-342.67 118,-353.33 118,-353.33 118,-358.67 112.67,-364 107.33,-364 107.33,-364 90.67,-364 90.67,-364 85.33,-364 80,-358.67 80,-353.33 80,-353.33 80,-342.67 80,-342.67 80,-337.33 85.33,-332 90.67,-332"/>
</a>
</g>
</g>
<!-- function&#45;1&#45;RegVal -->
<g id="node9" class="node">
<title>function&#45;1&#45;RegVal</title>
<g id="a_node9"><a xlink:title="Inst&#45;1: function&#45;1&#45;RegVal">
<path fill="white" stroke="transparent" d="M401.17,-174C401.17,-174 436.83,-174 436.83,-174 442.17,-174 447.5,-179.33 447.5,-184.67 447.5,-184.67 447.5,-195.33 447.5,-195.33 447.5,-200.67 442.17,-206 436.83,-206 436.83,-206 401.17,-206 401.17,-206 395.83,-206 390.5,-200.67 390.5,-195.33 390.5,-195.33 390.5,-184.67 390.5,-184.67 390.5,-179.33 395.83,-174 401.17,-174"/>
<text text-anchor="start" x="396" y="-186.3" font-family="Helvetica,sans-Serif" font-size="14.00">RegVal</text>
<path fill="none" stroke="black" d="M401.17,-174C401.17,-174 436.83,-174 436.83,-174 442.17,-174 447.5,-179.33 447.5,-184.67 447.5,-184.67 447.5,-195.33 447.5,-195.33 447.5,-200.67 442.17,-206 436.83,-206 436.83,-206 401.17,-206 401.17,-206 395.83,-206 390.5,-200.67 390.5,-195.33 390.5,-195.33 390.5,-184.67 390.5,-184.67 390.5,-179.33 395.83,-174 401.17,-174"/>
</a>
</g>
</g>
<!-- function&#45;1&#45;Beq -->
<g id="node10" class="node">
<title>function&#45;1&#45;Beq</title>
<g id="a_node10"><a xlink:title="Inst&#45;3: function&#45;1&#45;Beq">
<path fill="white" stroke="transparent" d="M148.67,-332C148.67,-332 165.33,-332 165.33,-332 170.67,-332 176,-337.33 176,-342.67 176,-342.67 176,-353.33 176,-353.33 176,-358.67 170.67,-364 165.33,-364 165.33,-364 148.67,-364 148.67,-364 143.33,-364 138,-358.67 138,-353.33 138,-353.33 138,-342.67 138,-342.67 138,-337.33 143.33,-332 148.67,-332"/>
<text text-anchor="start" x="143" y="-344.3" font-family="Helvetica,sans-Serif" font-size="14.00">Beq</text>
<path fill="none" stroke="black" d="M148.67,-332C148.67,-332 165.33,-332 165.33,-332 170.67,-332 176,-337.33 176,-342.67 176,-342.67 176,-353.33 176,-353.33 176,-358.67 170.67,-364 165.33,-364 165.33,-364 148.67,-364 148.67,-364 143.33,-364 138,-358.67 138,-353.33 138,-353.33 138,-342.67 138,-342.67 138,-337.33 143.33,-332 148.67,-332"/>
</a>
</g>
</g>
<!-- function&#45;0&#45;Seq2 -->
<g id="node11" class="node">
<title>function&#45;0&#45;Seq2</title>
<g id="a_node11"><a xlink:title="Inst&#45;3: function&#45;0&#45;Seq2">
<path fill="white" stroke="transparent" d="M28.67,-332C28.67,-332 53.33,-332 53.33,-332 58.67,-332 64,-337.33 64,-342.67 64,-342.67 64,-353.33 64,-353.33 64,-358.67 58.67,-364 53.33,-364 53.33,-364 28.67,-364 28.67,-364 23.33,-364 18,-358.67 18,-353.33 18,-353.33 18,-342.67 18,-342.67 18,-337.33 23.33,-332 28.67,-332"/>
<text text-anchor="start" x="23" y="-344.3" font-family="Helvetica,sans-Serif" font-size="14.00">Seq2</text>
<path fill="none" stroke="black" d="M28.67,-332C28.67,-332 53.33,-332 53.33,-332 58.67,-332 64,-337.33 64,-342.67 64,-342.67 64,-353.33 64,-353.33 64,-358.67 58.67,-364 53.33,-364 53.33,-364 28.67,-364 28.67,-364 23.33,-364 18,-358.67 18,-353.33 18,-353.33 18,-342.67 18,-342.67 18,-337.33 23.33,-332 28.67,-332"/>
</a>
</g>
</g>
<!-- function&#45;0&#45;Bne -->
<g id="node12" class="node">
<title>function&#45;0&#45;Bne</title>
<g id="a_node12"><a xlink:title="Inst&#45;5: function&#45;0&#45;Bne">
<path fill="white" stroke="transparent" d="M387.67,-253C387.67,-253 404.33,-253 404.33,-253 409.67,-253 415,-258.33 415,-263.67 415,-263.67 415,-274.33 415,-274.33 415,-279.67 409.67,-285 404.33,-285 404.33,-285 387.67,-285 387.67,-285 382.33,-285 377,-279.67 377,-274.33 377,-274.33 377,-263.67 377,-263.67 377,-258.33 382.33,-253 387.67,-253"/>
<text text-anchor="start" x="382" y="-265.3" font-family="Helvetica,sans-Serif" font-size="14.00">Bne</text>
<path fill="none" stroke="black" d="M387.67,-253C387.67,-253 404.33,-253 404.33,-253 409.67,-253 415,-258.33 415,-263.67 415,-263.67 415,-274.33 415,-274.33 415,-279.67 409.67,-285 404.33,-285 404.33,-285 387.67,-285 387.67,-285 382.33,-285 377,-279.67 377,-274.33 377,-274.33 377,-263.67 377,-263.67 377,-258.33 382.33,-253 387.67,-253"/>
</a>
</g>
</g>
<!-- function&#45;2&#45;Beq -->
<g id="node13" class="node">
<title>function&#45;2&#45;Beq</title>
<g id="a_node13"><a xlink:title="Inst&#45;8: function&#45;2&#45;Beq">
<path fill="white" stroke="transparent" d="M147.67,-253C147.67,-253 164.33,-253 164.33,-253 169.67,-253 175,-258.33 175,-263.67 175,-263.67 175,-274.33 175,-274.33 175,-279.67 169.67,-285 164.33,-285 164.33,-285 147.67,-285 147.67,-285 142.33,-285 137,-279.67 137,-274.33 137,-274.33 137,-263.67 137,-263.67 137,-258.33 142.33,-253 147.67,-253"/>
<text text-anchor="start" x="142" y="-265.3" font-family="Helvetica,sans-Serif" font-size="14.00">Beq</text>
<path fill="none" stroke="black" d="M147.67,-253C147.67,-253 164.33,-253 164.33,-253 169.67,-253 175,-258.33 175,-263.67 175,-263.67 175,-274.33 175,-274.33 175,-279.67 169.67,-285 164.33,-285 164.33,-285 147.67,-285 147.67,-285 142.33,-285 137,-279.67 137,-274.33 137,-274.33 137,-263.67 137,-263.67 137,-258.33 142.33,-253 147.67,-253"/>
</a>
</g>
</g>
<!-- function&#45;3&#45;Beq -->
<g id="node14" class="node">
<title>function&#45;3&#45;Beq</title>
<g id="a_node14"><a xlink:title="Inst&#45;8: function&#45;3&#45;Beq">
<path fill="white" stroke="transparent" d="M205.67,-253C205.67,-253 222.33,-253 222.33,-253 227.67,-253 233,-258.33 233,-263.67 233,-263.67 233,-274.33 233,-274.33 233,-279.67 227.67,-285 222.33,-285 222.33,-285 205.67,-285 205.67,-285 200.33,-285 195,-279.67 195,-274.33 195,-274.33 195,-263.67 195,-263.67 195,-258.33 200.33,-253 205.67,-253"/>
<text text-anchor="start" x="200" y="-265.3" font-family="Helvetica,sans-Serif" font-size="14.00">Beq</text>
<path fill="none" stroke="black" d="M205.67,-253C205.67,-253 222.33,-253 222.33,-253 227.67,-253 233,-258.33 233,-263.67 233,-263.67 233,-274.33 233,-274.33 233,-279.67 227.67,-285 222.33,-285 222.33,-285 205.67,-285 205.67,-285 200.33,-285 195,-279.67 195,-274.33 195,-274.33 195,-263.67 195,-263.67 195,-258.33 200.33,-253 205.67,-253"/>
</a>
</g>
</g>
<!-- function&#45;2&#45;Seq2 -->
<g id="node15" class="node">
<title>function&#45;2&#45;Seq2</title>
<g id="a_node15"><a xlink:title="Inst&#45;8: function&#45;2&#45;Seq2">
<path fill="white" stroke="transparent" d="M259.67,-253C259.67,-253 284.33,-253 284.33,-253 289.67,-253 295,-258.33 295,-263.67 295,-263.67 295,-274.33 295,-274.33 295,-279.67 289.67,-285 284.33,-285 284.33,-285 259.67,-285 259.67,-285 254.33,-285 249,-279.67 249,-274.33 249,-274.33 249,-263.67 249,-263.67 249,-258.33 254.33,-253 259.67,-253"/>
<text text-anchor="start" x="254" y="-265.3" font-family="Helvetica,sans-Serif" font-size="14.00">Seq2</text>
<path fill="none" stroke="black" d="M259.67,-253C259.67,-253 284.33,-253 284.33,-253 289.67,-253 295,-258.33 295,-263.67 295,-263.67 295,-274.33 295,-274.33 295,-279.67 289.67,-285 284.33,-285 284.33,-285 259.67,-285 259.67,-285 254.33,-285 249,-279.67 249,-274.33 249,-274.33 249,-263.67 249,-263.67 249,-258.33 254.33,-253 259.67,-253"/>
</a>
</g>
</g>
<!-- function&#45;1&#45;Seq2 -->
<g id="node16" class="node">
<title>function&#45;1&#45;Seq2</title>
<g id="a_node16"><a xlink:title="Inst&#45;5: function&#45;1&#45;Seq2">
<path fill="white" stroke="transparent" d="M325.67,-253C325.67,-253 350.33,-253 350.33,-253 355.67,-253 361,-258.33 361,-263.67 361,-263.67 361,-274.33 361,-274.33 361,-279.67 355.67,-285 350.33,-285 350.33,-285 325.67,-285 325.67,-285 320.33,-285 315,-279.67 315,-274.33 315,-274.33 315,-263.67 315,-263.67 315,-258.33 320.33,-253 325.67,-253"/>
<text text-anchor="start" x="320" y="-265.3" font-family="Helvetica,sans-Serif" font-size="14.00">Seq2</text>
<path fill="none" stroke="black" d="M325.67,-253C325.67,-253 350.33,-253 350.33,-253 355.67,-253 361,-258.33 361,-263.67 361,-263.67 361,-274.33 361,-274.33 361,-279.67 355.67,-285 350.33,-285 350.33,-285 325.67,-285 325.67,-285 320.33,-285 315,-279.67 315,-274.33 315,-274.33 315,-263.67 315,-263.67 315,-258.33 320.33,-253 325.67,-253"/>
</a>
</g>
</g>
<!-- function&#45;1&#45;Jal -->
<g id="node17" class="node">
<title>function&#45;1&#45;Jal</title>
<g id="a_node17"><a xlink:title="Inst&#45;9: function&#45;1&#45;Jal">
<path fill="white" stroke="transparent" d="M295.67,-174C295.67,-174 306.33,-174 306.33,-174 311.67,-174 317,-179.33 317,-184.67 317,-184.67 317,-195.33 317,-195.33 317,-200.67 311.67,-206 306.33,-206 306.33,-206 295.67,-206 295.67,-206 290.33,-206 285,-200.67 285,-195.33 285,-195.33 285,-184.67 285,-184.67 285,-179.33 290.33,-174 295.67,-174"/>
<text text-anchor="start" x="292.5" y="-186.3" font-family="Helvetica,sans-Serif" font-size="14.00">Jal</text>
<path fill="none" stroke="black" d="M295.67,-174C295.67,-174 306.33,-174 306.33,-174 311.67,-174 317,-179.33 317,-184.67 317,-184.67 317,-195.33 317,-195.33 317,-200.67 311.67,-206 306.33,-206 306.33,-206 295.67,-206 295.67,-206 290.33,-206 285,-200.67 285,-195.33 285,-195.33 285,-184.67 285,-184.67 285,-179.33 290.33,-174 295.67,-174"/>
</a>
</g>
</g>
<!-- primitive&#45;String&#45;1 -->
<g id="node18" class="node">
<title>primitive&#45;String&#45;1</title>
<g id="a_node18"><a xlink:title="String&#45;1: primitive&#45;String&#45;1">
<path fill="white" stroke="transparent" d="M402.17,-95C402.17,-95 437.83,-95 437.83,-95 443.17,-95 448.5,-100.33 448.5,-105.67 448.5,-105.67 448.5,-116.33 448.5,-116.33 448.5,-121.67 443.17,-127 437.83,-127 437.83,-127 402.17,-127 402.17,-127 396.83,-127 391.5,-121.67 391.5,-116.33 391.5,-116.33 391.5,-105.67 391.5,-105.67 391.5,-100.33 396.83,-95 402.17,-95"/>
<text text-anchor="start" x="397" y="-107.3" font-family="Helvetica,sans-Serif" font-size="14.00">&quot;a4_0&quot;</text>
<path fill="none" stroke="black" d="M402.17,-95C402.17,-95 437.83,-95 437.83,-95 443.17,-95 448.5,-100.33 448.5,-105.67 448.5,-105.67 448.5,-116.33 448.5,-116.33 448.5,-121.67 443.17,-127 437.83,-127 437.83,-127 402.17,-127 402.17,-127 396.83,-127 391.5,-121.67 391.5,-116.33 391.5,-116.33 391.5,-105.67 391.5,-105.67 391.5,-100.33 396.83,-95 402.17,-95"/>
</a>
</g>
</g>
<!-- function&#45;1&#45;Bne -->
<g id="node19" class="node">
<title>function&#45;1&#45;Bne</title>
<g id="a_node19"><a xlink:title="Inst&#45;5: function&#45;1&#45;Bne">
<path fill="white" stroke="transparent" d="M445.67,-253C445.67,-253 462.33,-253 462.33,-253 467.67,-253 473,-258.33 473,-263.67 473,-263.67 473,-274.33 473,-274.33 473,-279.67 467.67,-285 462.33,-285 462.33,-285 445.67,-285 445.67,-285 440.33,-285 435,-279.67 435,-274.33 435,-274.33 435,-263.67 435,-263.67 435,-258.33 440.33,-253 445.67,-253"/>
<text text-anchor="start" x="440" y="-265.3" font-family="Helvetica,sans-Serif" font-size="14.00">Bne</text>
<path fill="none" stroke="black" d="M445.67,-253C445.67,-253 462.33,-253 462.33,-253 467.67,-253 473,-258.33 473,-263.67 473,-263.67 473,-274.33 473,-274.33 473,-279.67 467.67,-285 462.33,-285 462.33,-285 445.67,-285 445.67,-285 440.33,-285 435,-279.67 435,-274.33 435,-274.33 435,-263.67 435,-263.67 435,-258.33 440.33,-253 445.67,-253"/>
</a>
</g>
</g>
</g>
</svg>
