<?xml version="1.0" encoding="UTF-8" standalone="no"?>
<!DOCTYPE svg PUBLIC "-//W3C//DTD SVG 1.1//EN"
 "http://www.w3.org/Graphics/SVG/1.1/DTD/svg11.dtd">
<!-- Generated by graphviz version 2.43.0 (0)
 -->
<!-- Title: %3 Pages: 1 -->
<svg width="719pt" height="625pt"
 viewBox="0.00 0.00 719.00 625.00" xmlns="http://www.w3.org/2000/svg" xmlns:xlink="http://www.w3.org/1999/xlink">
<g id="graph0" class="graph" transform="scale(1 1) rotate(0) translate(4 621)">
<title>%3</title>
<polygon fill="white" stroke="#000000" points="-4,4 -4,-621 715,-621 715,4 -4,4"/>
<g id="clust1" class="cluster">
<title>outer_cluster_Imm&#45;14</title>
</g>
<g id="clust2" class="cluster">
<title>cluster_Imm&#45;14</title>
<path fill="#ffffb3" stroke="black" stroke-dasharray="5,2" d="M172,-90C172,-90 216,-90 216,-90 222,-90 228,-96 228,-102 228,-102 228,-120 228,-120 228,-126 222,-132 216,-132 216,-132 172,-132 172,-132 166,-132 160,-126 160,-120 160,-120 160,-102 160,-102 160,-96 166,-90 172,-90"/>
</g>
<g id="clust4" class="cluster">
<title>outer_cluster_Imm&#45;16</title>
</g>
<g id="clust5" class="cluster">
<title>cluster_Imm&#45;16</title>
<path fill="#ffffb3" stroke="black" stroke-dasharray="5,2" d="M93,-169C93,-169 137,-169 137,-169 143,-169 149,-175 149,-181 149,-181 149,-199 149,-199 149,-205 143,-211 137,-211 137,-211 93,-211 93,-211 87,-211 81,-205 81,-199 81,-199 81,-181 81,-181 81,-175 87,-169 93,-169"/>
</g>
<g id="clust7" class="cluster">
<title>outer_cluster_Inst&#45;11</title>
</g>
<g id="clust8" class="cluster">
<title>cluster_Inst&#45;11</title>
<path fill="#bebada" stroke="black" stroke-dasharray="5,2" d="M285,-564C285,-564 611,-564 611,-564 617,-564 623,-570 623,-576 623,-576 623,-594 623,-594 623,-600 617,-606 611,-606 611,-606 285,-606 285,-606 279,-606 273,-600 273,-594 273,-594 273,-576 273,-576 273,-570 279,-564 285,-564"/>
</g>
<g id="clust10" class="cluster">
<title>outer_cluster_Inst&#45;8</title>
</g>
<g id="clust11" class="cluster">
<title>cluster_Inst&#45;8</title>
<path fill="#bebada" stroke="black" stroke-dasharray="5,2" d="M165,-406C165,-406 201,-406 201,-406 207,-406 213,-412 213,-418 213,-418 213,-436 213,-436 213,-442 207,-448 201,-448 201,-448 165,-448 165,-448 159,-448 153,-442 153,-436 153,-436 153,-418 153,-418 153,-412 159,-406 165,-406"/>
</g>
<g id="clust13" class="cluster">
<title>outer_cluster_Inst&#45;5</title>
</g>
<g id="clust14" class="cluster">
<title>cluster_Inst&#45;5</title>
<path fill="#bebada" stroke="black" stroke-dasharray="5,2" d="M58,-327C58,-327 210,-327 210,-327 216,-327 222,-333 222,-339 222,-339 222,-357 222,-357 222,-363 216,-369 210,-369 210,-369 58,-369 58,-369 52,-369 46,-363 46,-357 46,-357 46,-339 46,-339 46,-333 52,-327 58,-327"/>
</g>
<g id="clust16" class="cluster">
<title>outer_cluster_Inst&#45;10</title>
</g>
<g id="clust17" class="cluster">
<title>cluster_Inst&#45;10</title>
<path fill="#bebada" stroke="black" stroke-dasharray="5,2" d="M489,-406C489,-406 529,-406 529,-406 535,-406 541,-412 541,-418 541,-418 541,-436 541,-436 541,-442 535,-448 529,-448 529,-448 489,-448 489,-448 483,-448 477,-442 477,-436 477,-436 477,-418 477,-418 477,-412 483,-406 489,-406"/>
</g>
<g id="clust19" class="cluster">
<title>outer_cluster_Inst&#45;1</title>
</g>
<g id="clust20" class="cluster">
<title>cluster_Inst&#45;1</title>
<path fill="#bebada" stroke="black" stroke-dasharray="5,2" d="M301,-90C301,-90 341,-90 341,-90 347,-90 353,-96 353,-102 353,-102 353,-120 353,-120 353,-126 347,-132 341,-132 341,-132 301,-132 301,-132 295,-132 289,-126 289,-120 289,-120 289,-102 289,-102 289,-96 295,-90 301,-90"/>
</g>
<g id="clust22" class="cluster">
<title>outer_cluster_Inst&#45;13</title>
</g>
<g id="clust23" class="cluster">
<title>cluster_Inst&#45;13</title>
<path fill="#bebada" stroke="black" stroke-dasharray="5,2" d="M462,-485C462,-485 556,-485 556,-485 562,-485 568,-491 568,-497 568,-497 568,-515 568,-515 568,-521 562,-527 556,-527 556,-527 462,-527 462,-527 456,-527 450,-521 450,-515 450,-515 450,-497 450,-497 450,-491 456,-485 462,-485"/>
</g>
<g id="clust25" class="cluster">
<title>outer_cluster_Inst&#45;17</title>
</g>
<g id="clust26" class="cluster">
<title>cluster_Inst&#45;17</title>
<path fill="#bebada" stroke="black" stroke-dasharray="5,2" d="M130,-248C130,-248 166,-248 166,-248 172,-248 178,-254 178,-260 178,-260 178,-278 178,-278 178,-284 172,-290 166,-290 166,-290 130,-290 130,-290 124,-290 118,-284 118,-278 118,-278 118,-260 118,-260 118,-254 124,-248 130,-248"/>
</g>
<g id="clust28" class="cluster">
<title>outer_cluster_Inst&#45;4</title>
</g>
<g id="clust29" class="cluster">
<title>cluster_Inst&#45;4</title>
<path fill="#bebada" stroke="black" stroke-dasharray="5,2" d="M641,-564C641,-564 681,-564 681,-564 687,-564 693,-570 693,-576 693,-576 693,-594 693,-594 693,-600 687,-606 681,-606 681,-606 641,-606 641,-606 635,-606 629,-600 629,-594 629,-594 629,-576 629,-576 629,-570 635,-564 641,-564"/>
</g>
<g id="clust31" class="cluster">
<title>outer_cluster_Inst&#45;3</title>
</g>
<g id="clust32" class="cluster">
<title>cluster_Inst&#45;3</title>
<path fill="#bebada" stroke="black" stroke-dasharray="5,2" d="M60,-248C60,-248 100,-248 100,-248 106,-248 112,-254 112,-260 112,-260 112,-278 112,-278 112,-284 106,-290 100,-290 100,-290 60,-290 60,-290 54,-290 48,-284 48,-278 48,-278 48,-260 48,-260 48,-254 54,-248 60,-248"/>
</g>
<g id="clust34" class="cluster">
<title>outer_cluster_Inst&#45;18</title>
</g>
<g id="clust35" class="cluster">
<title>cluster_Inst&#45;18</title>
<path fill="#bebada" stroke="black" stroke-dasharray="5,2" d="M326,-485C326,-485 420,-485 420,-485 426,-485 432,-491 432,-497 432,-497 432,-515 432,-515 432,-521 426,-527 420,-527 420,-527 326,-527 326,-527 320,-527 314,-521 314,-515 314,-515 314,-497 314,-497 314,-491 320,-485 326,-485"/>
</g>
<g id="clust37" class="cluster">
<title>outer_cluster_Inst&#45;6</title>
</g>
<g id="clust38" class="cluster">
<title>cluster_Inst&#45;6</title>
<path fill="#bebada" stroke="black" stroke-dasharray="5,2" d="M231,-406C231,-406 267,-406 267,-406 273,-406 279,-412 279,-418 279,-418 279,-436 279,-436 279,-442 273,-448 267,-448 267,-448 231,-448 231,-448 225,-448 219,-442 219,-436 219,-436 219,-418 219,-418 219,-412 225,-406 231,-406"/>
</g>
<g id="clust40" class="cluster">
<title>outer_cluster_Inst&#45;15</title>
</g>
<g id="clust41" class="cluster">
<title>cluster_Inst&#45;15</title>
<path fill="#bebada" stroke="black" stroke-dasharray="5,2" d="M167,-169C167,-169 203,-169 203,-169 209,-169 215,-175 215,-181 215,-181 215,-199 215,-199 215,-205 209,-211 203,-211 203,-211 167,-211 167,-211 161,-211 155,-205 155,-199 155,-199 155,-181 155,-181 155,-175 161,-169 167,-169"/>
</g>
<g id="clust43" class="cluster">
<title>outer_cluster_Inst&#45;0</title>
</g>
<g id="clust44" class="cluster">
<title>cluster_Inst&#45;0</title>
<path fill="#bebada" stroke="black" stroke-dasharray="5,2" d="M244,-327C244,-327 284,-327 284,-327 290,-327 296,-333 296,-339 296,-339 296,-357 296,-357 296,-363 290,-369 284,-369 284,-369 244,-369 244,-369 238,-369 232,-363 232,-357 232,-357 232,-339 232,-339 232,-333 238,-327 244,-327"/>
</g>
<g id="clust46" class="cluster">
<title>outer_cluster_Inst&#45;12</title>
</g>
<g id="clust47" class="cluster">
<title>cluster_Inst&#45;12</title>
<path fill="#bebada" stroke="black" stroke-dasharray="5,2" d="M363,-406C363,-406 399,-406 399,-406 405,-406 411,-412 411,-418 411,-418 411,-436 411,-436 411,-442 405,-448 399,-448 399,-448 363,-448 363,-448 357,-448 351,-442 351,-436 351,-436 351,-418 351,-418 351,-412 357,-406 363,-406"/>
</g>
<g id="clust49" class="cluster">
<title>outer_cluster_Inst&#45;7</title>
</g>
<g id="clust50" class="cluster">
<title>cluster_Inst&#45;7</title>
<path fill="#bebada" stroke="black" stroke-dasharray="5,2" d="M297,-406C297,-406 333,-406 333,-406 339,-406 345,-412 345,-418 345,-418 345,-436 345,-436 345,-442 339,-448 333,-448 333,-448 297,-448 297,-448 291,-448 285,-442 285,-436 285,-436 285,-418 285,-418 285,-412 291,-406 297,-406"/>
</g>
<g id="clust52" class="cluster">
<title>outer_cluster_Inst&#45;9</title>
</g>
<g id="clust53" class="cluster">
<title>cluster_Inst&#45;9</title>
<path fill="#bebada" stroke="black" stroke-dasharray="5,2" d="M190,-485C190,-485 284,-485 284,-485 290,-485 296,-491 296,-497 296,-497 296,-515 296,-515 296,-521 290,-527 284,-527 284,-527 190,-527 190,-527 184,-527 178,-521 178,-515 178,-515 178,-497 178,-497 178,-491 184,-485 190,-485"/>
</g>
<g id="clust55" class="cluster">
<title>outer_cluster_Inst&#45;2</title>
</g>
<g id="clust56" class="cluster">
<title>cluster_Inst&#45;2</title>
<path fill="#bebada" stroke="black" stroke-dasharray="5,2" d="M314,-327C314,-327 354,-327 354,-327 360,-327 366,-333 366,-339 366,-339 366,-357 366,-357 366,-363 360,-369 354,-369 354,-369 314,-369 314,-369 308,-369 302,-363 302,-357 302,-357 302,-339 302,-339 302,-333 308,-327 314,-327"/>
</g>
<g id="clust58" class="cluster">
<title>outer_cluster_String&#45;2</title>
</g>
<g id="clust59" class="cluster">
<title>cluster_String&#45;2</title>
<path fill="#fb8072" stroke="black" stroke-dasharray="5,2" d="M315,-248C315,-248 355,-248 355,-248 361,-248 367,-254 367,-260 367,-260 367,-278 367,-278 367,-284 361,-290 355,-290 355,-290 315,-290 315,-290 309,-290 303,-284 303,-278 303,-278 303,-260 303,-260 303,-254 309,-248 315,-248"/>
</g>
<g id="clust61" class="cluster">
<title>outer_cluster_String&#45;0</title>
</g>
<g id="clust62" class="cluster">
<title>cluster_String&#45;0</title>
<path fill="#fb8072" stroke="black" stroke-dasharray="5,2" d="M245,-248C245,-248 285,-248 285,-248 291,-248 297,-254 297,-260 297,-260 297,-278 297,-278 297,-284 291,-290 285,-290 285,-290 245,-290 245,-290 239,-290 233,-284 233,-278 233,-278 233,-260 233,-260 233,-254 239,-248 245,-248"/>
</g>
<g id="clust64" class="cluster">
<title>outer_cluster_String&#45;1</title>
</g>
<g id="clust65" class="cluster">
<title>cluster_String&#45;1</title>
<path fill="#fb8072" stroke="black" stroke-dasharray="5,2" d="M302,-11C302,-11 342,-11 342,-11 348,-11 354,-17 354,-23 354,-23 354,-41 354,-41 354,-47 348,-53 342,-53 342,-53 302,-53 302,-53 296,-53 290,-47 290,-41 290,-41 290,-23 290,-23 290,-17 296,-11 302,-11"/>
</g>
<g id="clust67" class="cluster">
<title>outer_cluster_String&#45;4</title>
</g>
<g id="clust68" class="cluster">
<title>cluster_String&#45;4</title>
<path fill="#fb8072" stroke="black" stroke-dasharray="5,2" d="M636,-485C636,-485 688,-485 688,-485 694,-485 700,-491 700,-497 700,-497 700,-515 700,-515 700,-521 694,-527 688,-527 688,-527 636,-527 636,-527 630,-527 624,-521 624,-515 624,-515 624,-497 624,-497 624,-491 630,-485 636,-485"/>
</g>
<g id="clust70" class="cluster">
<title>outer_cluster_String&#45;3</title>
</g>
<g id="clust71" class="cluster">
<title>cluster_String&#45;3</title>
<path fill="#fb8072" stroke="black" stroke-dasharray="5,2" d="M23,-169C23,-169 63,-169 63,-169 69,-169 75,-175 75,-181 75,-181 75,-199 75,-199 75,-205 69,-211 63,-211 63,-211 23,-211 23,-211 17,-211 11,-205 11,-199 11,-199 11,-181 11,-181 11,-175 17,-169 23,-169"/>
</g>
<g id="clust73" class="cluster">
<title>outer_cluster_String&#45;5</title>
</g>
<g id="clust74" class="cluster">
<title>cluster_String&#45;5</title>
<path fill="#fb8072" stroke="black" stroke-dasharray="5,2" d="M490,-327C490,-327 530,-327 530,-327 536,-327 542,-333 542,-339 542,-339 542,-357 542,-357 542,-363 536,-369 530,-369 530,-369 490,-369 490,-369 484,-369 478,-363 478,-357 478,-357 478,-339 478,-339 478,-333 484,-327 490,-327"/>
</g>
<g id="clust76" class="cluster">
<title>outer_cluster_i64&#45;2147483648</title>
</g>
<g id="clust77" class="cluster">
<title>cluster_i64&#45;2147483648</title>
<path fill="#80b1d3" stroke="black" stroke-dasharray="5,2" d="M176,-11C176,-11 212,-11 212,-11 218,-11 224,-17 224,-23 224,-23 224,-41 224,-41 224,-47 218,-53 212,-53 212,-53 176,-53 176,-53 170,-53 164,-47 164,-41 164,-41 164,-23 164,-23 164,-17 170,-11 176,-11"/>
</g>
<g id="clust79" class="cluster">
<title>outer_cluster_i64&#45;1</title>
</g>
<g id="clust80" class="cluster">
<title>cluster_i64&#45;1</title>
<path fill="#80b1d3" stroke="black" stroke-dasharray="5,2" d="M97,-90C97,-90 133,-90 133,-90 139,-90 145,-96 145,-102 145,-102 145,-120 145,-120 145,-126 139,-132 133,-132 133,-132 97,-132 97,-132 91,-132 85,-126 85,-120 85,-120 85,-102 85,-102 85,-96 91,-90 97,-90"/>
</g>
<!-- function&#45;0&#45;ImmVal&#45;&gt;primitive&#45;i64&#45;2147483648 -->
<g id="edge1" class="edge">
<title>function&#45;0&#45;ImmVal:s&#45;&gt;primitive&#45;i64&#45;2147483648</title>
<path fill="none" stroke="black" d="M194,-95C194,-81.84 194,-67.11 194,-55.3"/>
<polygon fill="black" stroke="black" points="195.75,-58 194,-53 192.25,-58 195.75,-58"/>
</g>
<!-- function&#45;1&#45;ImmVal&#45;&gt;primitive&#45;i64&#45;1 -->
<g id="edge2" class="edge">
<title>function&#45;1&#45;ImmVal:s&#45;&gt;primitive&#45;i64&#45;1</title>
<path fill="none" stroke="black" d="M115,-174C115,-160.84 115,-146.11 115,-134.3"/>
<polygon fill="black" stroke="black" points="116.75,-137 115,-132 113.25,-137 116.75,-137"/>
</g>
<!-- function&#45;1&#45;Or&#45;&gt;function&#45;0&#45;Or -->
<g id="edge3" class="edge">
<title>function&#45;1&#45;Or:s&#45;&gt;function&#45;0&#45;Or</title>
<path fill="none" stroke="black" d="M585,-569C585,-558.18 572.54,-563.46 562,-561 453.4,-535.65 419.88,-561.83 313,-530 308.04,-528.52 302.95,-526.56 298.05,-524.41"/>
<polygon fill="black" stroke="black" points="301.2,-524.23 296,-523.2 299.42,-527.24 301.2,-524.23"/>
</g>
<!-- function&#45;1&#45;Or&#45;&gt;function&#45;5&#45;RegVal -->
<g id="edge4" class="edge">
<title>function&#45;1&#45;Or:s&#45;&gt;function&#45;5&#45;RegVal</title>
<path fill="none" stroke="black" d="M601,-569C601,-528.77 598.25,-515.52 576,-482 567.17,-468.69 554.02,-457.08 541.71,-448.07"/>
<polygon fill="black" stroke="black" points="545.4,-450.07 541,-447.12 542.59,-452.17 545.4,-450.07"/>
</g>
<!-- function&#45;0&#45;Or&#45;&gt;function&#45;0&#45;Sll -->
<g id="edge46" class="edge">
<title>function&#45;0&#45;Or:s&#45;&gt;function&#45;0&#45;Sll</title>
<path fill="none" stroke="black" d="M258,-490C258,-476.7 255.95,-461.96 253.8,-450.19"/>
<polygon fill="black" stroke="black" points="256.46,-451.84 252.82,-448 253.27,-453.28 256.46,-451.84"/>
</g>
<!-- function&#45;0&#45;Or&#45;&gt;function&#45;0&#45;Srl -->
<g id="edge47" class="edge">
<title>function&#45;0&#45;Or:s&#45;&gt;function&#45;0&#45;Srl</title>
<path fill="none" stroke="black" d="M274,-490C274,-474.6 282.91,-460.08 292.42,-448.97"/>
<polygon fill="black" stroke="black" points="290.68,-452.17 293.94,-448 288.79,-449.23 290.68,-452.17"/>
</g>
<!-- function&#45;5&#45;RegVal&#45;&gt;primitive&#45;String&#45;5 -->
<g id="edge23" class="edge">
<title>function&#45;5&#45;RegVal:s&#45;&gt;primitive&#45;String&#45;5</title>
<path fill="none" stroke="black" d="M510,-411C510,-397.84 510,-383.11 510,-371.3"/>
<polygon fill="black" stroke="black" points="511.75,-374 510,-369 508.25,-374 511.75,-374"/>
</g>
<!-- function&#45;3&#45;Or&#45;&gt;function&#45;0&#45;Or -->
<g id="edge6" class="edge">
<title>function&#45;3&#45;Or:s&#45;&gt;function&#45;0&#45;Or</title>
<path fill="none" stroke="black" d="M543,-569C543,-517.16 362.4,-545.72 313,-530 308.07,-528.43 303,-526.42 298.1,-524.24"/>
<polygon fill="black" stroke="black" points="301.2,-524.02 296,-523.02 299.44,-527.05 301.2,-524.02"/>
</g>
<!-- function&#45;3&#45;Or&#45;&gt;function&#45;5&#45;RegVal -->
<g id="edge5" class="edge">
<title>function&#45;3&#45;Or:s&#45;&gt;function&#45;5&#45;RegVal</title>
<path fill="none" stroke="black" d="M527,-569C527,-543.53 558.82,-553.35 569,-530 577.53,-510.45 577.68,-501.49 569,-482 563.06,-468.66 552.01,-457.23 541,-448.37"/>
<polygon fill="black" stroke="black" points="545.26,-448.03 539.96,-448 544.08,-451.32 545.26,-448.03"/>
</g>
<!-- function&#45;5&#45;Or&#45;&gt;function&#45;0&#45;Sll -->
<g id="edge7" class="edge">
<title>function&#45;5&#45;Or:s&#45;&gt;function&#45;0&#45;Sll</title>
<path fill="none" stroke="black" d="M469,-569C469,-503.53 220.56,-578.87 177,-530 162.8,-514.07 167.46,-501.08 177,-482 179.45,-477.1 200.87,-461.33 219.71,-448.09"/>
<polygon fill="black" stroke="black" points="216,-451.55 219.93,-448 214.64,-448.32 216,-451.55"/>
</g>
<!-- function&#45;5&#45;Or&#45;&gt;function&#45;4&#45;Or -->
<g id="edge8" class="edge">
<title>function&#45;5&#45;Or:s&#45;&gt;function&#45;4&#45;Or</title>
<path fill="none" stroke="black" d="M485,-569C485,-559.16 500.61,-541.74 514.89,-527.87"/>
<polygon fill="black" stroke="black" points="513.28,-531.62 515.87,-527 510.96,-529 513.28,-531.62"/>
</g>
<!-- function&#45;0&#45;Sll&#45;&gt;function&#45;1&#45;Add -->
<g id="edge38" class="edge">
<title>function&#45;0&#45;Sll:s&#45;&gt;function&#45;1&#45;Add</title>
<path fill="none" stroke="black" d="M257,-411C257,-342.12 169.13,-401.73 107,-372 106.65,-371.83 106.3,-371.66 105.95,-371.48"/>
<polygon fill="black" stroke="black" points="106.64,-369.87 101.41,-369 104.96,-372.94 106.64,-369.87"/>
</g>
<!-- function&#45;0&#45;Sll&#45;&gt;function&#45;2&#45;RegVal -->
<g id="edge37" class="edge">
<title>function&#45;0&#45;Sll:s&#45;&gt;function&#45;2&#45;RegVal</title>
<path fill="none" stroke="black" d="M241,-411C241,-409.21 272.01,-388.81 298.21,-371.9"/>
<polygon fill="black" stroke="black" points="299.45,-373.18 302.71,-369 297.56,-370.24 299.45,-373.18"/>
</g>
<!-- function&#45;4&#45;Or&#45;&gt;function&#45;5&#45;RegVal -->
<g id="edge26" class="edge">
<title>function&#45;4&#45;Or:s&#45;&gt;function&#45;5&#45;RegVal</title>
<path fill="none" stroke="black" d="M546,-490C546,-474.93 537.84,-460.34 529.18,-449.1"/>
<polygon fill="black" stroke="black" points="532.85,-450.1 527.98,-448 530.48,-452.67 532.85,-450.1"/>
</g>
<!-- function&#45;4&#45;Or&#45;&gt;function&#45;0&#45;Srl -->
<g id="edge25" class="edge">
<title>function&#45;4&#45;Or:s&#45;&gt;function&#45;0&#45;Srl</title>
<path fill="none" stroke="black" d="M530,-490C530,-479.18 517.45,-484.83 507,-482 438.35,-463.38 415.83,-477.92 350,-451 349.46,-450.78 348.93,-450.55 348.39,-450.32"/>
<polygon fill="black" stroke="black" points="348.83,-448.59 343.57,-448 347.31,-451.74 348.83,-448.59"/>
</g>
<!-- function&#45;7&#45;Or&#45;&gt;function&#45;0&#45;Sll -->
<g id="edge10" class="edge">
<title>function&#45;7&#45;Or:s&#45;&gt;function&#45;0&#45;Sll</title>
<path fill="none" stroke="black" d="M369,-569C369,-477.13 224.62,-600.74 166,-530 152.39,-513.57 155.8,-500.74 166,-482 178.15,-459.7 192.72,-464.86 214,-451 215.55,-449.99 217.14,-448.95 218.75,-447.9"/>
<polygon fill="black" stroke="black" points="219.17,-452.4 219,-447.1 215.83,-451.35 219.17,-452.4"/>
</g>
<!-- function&#45;7&#45;Or&#45;&gt;function&#45;4&#45;Or -->
<g id="edge9" class="edge">
<title>function&#45;7&#45;Or:s&#45;&gt;function&#45;4&#45;Or</title>
<path fill="none" stroke="black" d="M353,-569C353,-498.39 443.22,-560.28 507,-530 507.35,-529.83 507.71,-529.66 508.06,-529.48"/>
<polygon fill="black" stroke="black" points="509.07,-530.93 512.62,-527 507.39,-527.85 509.07,-530.93"/>
</g>
<!-- function&#45;9&#45;Or&#45;&gt;function&#45;0&#45;Srl -->
<g id="edge11" class="edge">
<title>function&#45;9&#45;Or:s&#45;&gt;function&#45;0&#45;Srl</title>
<path fill="none" stroke="black" d="M295,-569C295,-526.64 303.96,-477.82 309.88,-450.17"/>
<polygon fill="black" stroke="black" points="310.31,-453.26 310.95,-448 307.17,-451.71 310.31,-453.26"/>
</g>
<!-- function&#45;9&#45;Or&#45;&gt;function&#45;8&#45;Or -->
<g id="edge12" class="edge">
<title>function&#45;9&#45;Or:s&#45;&gt;function&#45;8&#45;Or</title>
<path fill="none" stroke="black" d="M311,-569C311,-537.2 344.88,-548.15 371,-530 372.32,-529.08 373.67,-528.13 375.02,-527.17"/>
<polygon fill="black" stroke="black" points="371.43,-529.51 376.09,-527 370.88,-526.05 371.43,-529.51"/>
</g>
<!-- function&#45;0&#45;Srl&#45;&gt;function&#45;0&#45;RegVal -->
<g id="edge44" class="edge">
<title>function&#45;0&#45;Srl:s&#45;&gt;function&#45;0&#45;RegVal</title>
<path fill="none" stroke="black" d="M307,-411C307,-395.48 297.79,-381.05 287.9,-370.02"/>
<polygon fill="black" stroke="black" points="291.42,-370.14 286.24,-369 289.58,-373.11 291.42,-370.14"/>
</g>
<!-- function&#45;0&#45;Srl&#45;&gt;function&#45;1&#45;RegVal -->
<g id="edge45" class="edge">
<title>function&#45;0&#45;Srl:s&#45;&gt;function&#45;1&#45;RegVal</title>
<path fill="none" stroke="black" d="M323,-411C323,-384.87 356.13,-395.76 367,-372 390.49,-320.67 377.54,-300.63 368,-245 361.02,-204.33 342.87,-159.57 331.27,-133.73"/>
<polygon fill="black" stroke="black" points="334.32,-135.31 330.19,-132 331.36,-137.17 334.32,-135.31"/>
</g>
<!-- function&#45;8&#45;Or&#45;&gt;function&#45;5&#45;RegVal -->
<g id="edge34" class="edge">
<title>function&#45;8&#45;Or:s&#45;&gt;function&#45;5&#45;RegVal</title>
<path fill="none" stroke="black" d="M410,-490C410,-458.37 446.75,-442.27 475.47,-434.51"/>
<polygon fill="black" stroke="black" points="474.26,-437.78 477,-433.25 472.03,-435.08 474.26,-437.78"/>
</g>
<!-- function&#45;8&#45;Or&#45;&gt;function&#45;0&#45;Sll -->
<g id="edge33" class="edge">
<title>function&#45;8&#45;Or:s&#45;&gt;function&#45;0&#45;Sll</title>
<path fill="none" stroke="black" d="M394,-490C394,-438.13 330.45,-474.08 284,-451 283.65,-450.83 283.3,-450.65 282.95,-450.47"/>
<polygon fill="black" stroke="black" points="283.58,-448.82 278.35,-448 281.92,-451.91 283.58,-448.82"/>
</g>
<!-- function&#45;11&#45;Or&#45;&gt;function&#45;0&#45;Srl -->
<g id="edge14" class="edge">
<title>function&#45;11&#45;Or:s&#45;&gt;function&#45;0&#45;Srl</title>
<path fill="none" stroke="black" d="M427,-569C427,-530.24 455.1,-513.84 433,-482 410.55,-449.65 385.12,-468.81 350,-451 349.65,-450.82 349.31,-450.65 348.96,-450.47"/>
<polygon fill="black" stroke="black" points="349.66,-448.85 344.43,-448 347.98,-451.93 349.66,-448.85"/>
</g>
<!-- function&#45;11&#45;Or&#45;&gt;function&#45;8&#45;Or -->
<g id="edge13" class="edge">
<title>function&#45;11&#45;Or:s&#45;&gt;function&#45;8&#45;Or</title>
<path fill="none" stroke="black" d="M411,-569C411,-555.7 408.95,-540.96 406.8,-529.19"/>
<polygon fill="black" stroke="black" points="409.46,-530.84 405.82,-527 406.27,-532.28 409.46,-530.84"/>
</g>
<!-- function&#45;1&#45;Sll&#45;&gt;function&#45;0&#45;RegVal -->
<g id="edge15" class="edge">
<title>function&#45;1&#45;Sll:s&#45;&gt;function&#45;0&#45;RegVal</title>
<path fill="none" stroke="black" d="M175,-411C175,-403.92 205.68,-383.78 231.01,-368.36"/>
<polygon fill="black" stroke="black" points="228.72,-371.89 232,-367.73 226.84,-368.94 228.72,-371.89"/>
</g>
<!-- function&#45;1&#45;Sll&#45;&gt;function&#45;0&#45;Sub -->
<g id="edge16" class="edge">
<title>function&#45;1&#45;Sll:s&#45;&gt;function&#45;0&#45;Sub</title>
<path fill="none" stroke="black" d="M191,-411C191,-397.84 191.23,-383.1 191.47,-371.3"/>
<polygon fill="black" stroke="black" points="193.09,-374.08 191.58,-369 189.59,-373.91 193.09,-374.08"/>
</g>
<!-- function&#45;0&#45;RegVal&#45;&gt;primitive&#45;String&#45;0 -->
<g id="edge41" class="edge">
<title>function&#45;0&#45;RegVal:s&#45;&gt;primitive&#45;String&#45;0</title>
<path fill="none" stroke="black" d="M265,-332C265,-318.84 265,-304.11 265,-292.3"/>
<polygon fill="black" stroke="black" points="266.75,-295 265,-290 263.25,-295 266.75,-295"/>
</g>
<!-- function&#45;0&#45;Sub&#45;&gt;function&#45;3&#45;RegVal -->
<g id="edge21" class="edge">
<title>function&#45;0&#45;Sub:s&#45;&gt;function&#45;3&#45;RegVal</title>
<path fill="none" stroke="black" d="M183,-332C183,-297.93 146.14,-310.66 117,-293 116.8,-292.88 116.59,-292.75 116.38,-292.63"/>
<polygon fill="black" stroke="black" points="117.18,-291.06 112,-289.95 115.35,-294.05 117.18,-291.06"/>
</g>
<!-- function&#45;0&#45;Sub&#45;&gt;function&#45;1&#45;RegVal -->
<g id="edge22" class="edge">
<title>function&#45;0&#45;Sub:s&#45;&gt;function&#45;1&#45;RegVal</title>
<path fill="none" stroke="black" d="M201,-332C201,-250.14 265.82,-169.78 300.18,-132.92"/>
<polygon fill="black" stroke="black" points="298.32,-135.99 301.81,-132 296.59,-132.94 298.32,-135.99"/>
</g>
<!-- function&#45;0&#45;Add&#45;&gt;function&#45;3&#45;RegVal -->
<g id="edge17" class="edge">
<title>function&#45;0&#45;Add:s&#45;&gt;function&#45;3&#45;RegVal</title>
<path fill="none" stroke="black" d="M125,-332C125,-316.23 115.34,-301.76 104.98,-290.78"/>
<polygon fill="black" stroke="black" points="108.7,-290.71 103.45,-290 107.11,-293.83 108.7,-290.71"/>
</g>
<!-- function&#45;0&#45;Add&#45;&gt;function&#45;0&#45;Addi -->
<g id="edge18" class="edge">
<title>function&#45;0&#45;Add:s&#45;&gt;function&#45;0&#45;Addi</title>
<path fill="none" stroke="black" d="M143,-332C143,-318.8 144.14,-304.06 145.33,-292.27"/>
<polygon fill="black" stroke="black" points="146.41,-295.27 145.88,-290 143.01,-294.45 146.41,-295.27"/>
</g>
<!-- function&#45;3&#45;RegVal&#45;&gt;primitive&#45;String&#45;3 -->
<g id="edge32" class="edge">
<title>function&#45;3&#45;RegVal:s&#45;&gt;primitive&#45;String&#45;3</title>
<path fill="none" stroke="black" d="M81,-253C81,-237.82 72.62,-223.22 63.73,-212.01"/>
<polygon fill="black" stroke="black" points="67.45,-212.72 62.44,-211 65.29,-215.47 67.45,-212.72"/>
</g>
<!-- function&#45;0&#45;Addi&#45;&gt;function&#45;1&#45;ImmVal -->
<g id="edge30" class="edge">
<title>function&#45;0&#45;Addi:s&#45;&gt;function&#45;1&#45;ImmVal</title>
<path fill="none" stroke="black" d="M158,-253C158,-237.48 148.79,-223.05 138.9,-212.02"/>
<polygon fill="black" stroke="black" points="142.42,-212.14 137.24,-211 140.58,-215.11 142.42,-212.14"/>
</g>
<!-- function&#45;0&#45;Addi&#45;&gt;function&#45;0&#45;Xori -->
<g id="edge29" class="edge">
<title>function&#45;0&#45;Addi:s&#45;&gt;function&#45;0&#45;Xori</title>
<path fill="none" stroke="black" d="M138,-253C138,-237.1 147.93,-222.72 158.67,-211.82"/>
<polygon fill="black" stroke="black" points="156.61,-214.78 160.33,-211 155.07,-211.64 156.61,-214.78"/>
</g>
<!-- function&#45;1&#45;Add&#45;&gt;function&#45;3&#45;RegVal -->
<g id="edge20" class="edge">
<title>function&#45;1&#45;Add:s&#45;&gt;function&#45;3&#45;RegVal</title>
<path fill="none" stroke="black" d="M85,-332C85,-318.8 83.86,-304.06 82.67,-292.27"/>
<polygon fill="black" stroke="black" points="84.99,-294.45 82.12,-290 81.59,-295.27 84.99,-294.45"/>
</g>
<!-- function&#45;1&#45;Add&#45;&gt;function&#45;0&#45;Addi -->
<g id="edge19" class="edge">
<title>function&#45;1&#45;Add:s&#45;&gt;function&#45;0&#45;Addi</title>
<path fill="none" stroke="black" d="M67,-332C67,-328.6 96.1,-307 119.42,-290.24"/>
<polygon fill="black" stroke="black" points="116.11,-292.65 120.7,-290 115.46,-289.21 116.11,-292.65"/>
</g>
<!-- function&#45;1&#45;RegVal&#45;&gt;primitive&#45;String&#45;1 -->
<g id="edge24" class="edge">
<title>function&#45;1&#45;RegVal:s&#45;&gt;primitive&#45;String&#45;1</title>
<path fill="none" stroke="black" d="M322,-95C322,-81.84 322,-67.11 322,-55.3"/>
<polygon fill="black" stroke="black" points="323.75,-58 322,-53 320.25,-58 323.75,-58"/>
</g>
<!-- function&#45;6&#45;Or&#45;&gt;function&#45;5&#45;RegVal -->
<g id="edge27" class="edge">
<title>function&#45;6&#45;Or:s&#45;&gt;function&#45;5&#45;RegVal</title>
<path fill="none" stroke="black" d="M472,-490C472,-474.93 480.16,-460.34 488.82,-449.1"/>
<polygon fill="black" stroke="black" points="487.52,-452.67 490.02,-448 485.15,-450.1 487.52,-452.67"/>
</g>
<!-- function&#45;6&#45;Or&#45;&gt;function&#45;0&#45;Srl -->
<g id="edge28" class="edge">
<title>function&#45;6&#45;Or:s&#45;&gt;function&#45;0&#45;Srl</title>
<path fill="none" stroke="black" d="M488,-490C488,-426.26 407.98,-477.48 350,-451 349.5,-450.77 349,-450.54 348.5,-450.3"/>
<polygon fill="black" stroke="black" points="349.26,-448.72 344.01,-448 347.66,-451.83 349.26,-448.72"/>
</g>
<!-- function&#45;0&#45;Xori&#45;&gt;function&#45;0&#45;ImmVal -->
<g id="edge40" class="edge">
<title>function&#45;0&#45;Xori:s&#45;&gt;function&#45;0&#45;ImmVal</title>
<path fill="none" stroke="black" d="M194,-174C194,-160.84 194,-146.11 194,-134.3"/>
<polygon fill="black" stroke="black" points="195.75,-137 194,-132 192.25,-137 195.75,-137"/>
</g>
<!-- function&#45;0&#45;Xori&#45;&gt;function&#45;1&#45;RegVal -->
<g id="edge39" class="edge">
<title>function&#45;0&#45;Xori:s&#45;&gt;function&#45;1&#45;RegVal</title>
<path fill="none" stroke="black" d="M176,-174C176,-149.93 244.42,-129.67 287.26,-119.35"/>
<polygon fill="black" stroke="black" points="285.89,-122.43 289,-118.14 283.9,-119.56 285.89,-122.43"/>
</g>
<!-- function&#45;4&#45;RegVal&#45;&gt;primitive&#45;String&#45;4 -->
<g id="edge31" class="edge">
<title>function&#45;4&#45;RegVal:s&#45;&gt;primitive&#45;String&#45;4</title>
<path fill="none" stroke="black" d="M662,-569C662,-555.84 662,-541.11 662,-529.3"/>
<polygon fill="black" stroke="black" points="663.75,-532 662,-527 660.25,-532 663.75,-532"/>
</g>
<!-- function&#45;10&#45;Or&#45;&gt;function&#45;5&#45;RegVal -->
<g id="edge35" class="edge">
<title>function&#45;10&#45;Or:s&#45;&gt;function&#45;5&#45;RegVal</title>
<path fill="none" stroke="black" d="M336,-490C336,-475.35 425.07,-449.8 475.39,-436.54"/>
<polygon fill="black" stroke="black" points="474.25,-439.74 477,-435.22 472.03,-437.04 474.25,-439.74"/>
</g>
<!-- function&#45;10&#45;Or&#45;&gt;function&#45;0&#45;Sll -->
<g id="edge36" class="edge">
<title>function&#45;10&#45;Or:s&#45;&gt;function&#45;0&#45;Sll</title>
<path fill="none" stroke="black" d="M352,-490C352,-455.16 313.68,-469.24 284,-451 283.79,-450.87 283.59,-450.75 283.38,-450.62"/>
<polygon fill="black" stroke="black" points="284.17,-449.05 279,-447.88 282.31,-452.01 284.17,-449.05"/>
</g>
<!-- function&#45;2&#45;RegVal&#45;&gt;primitive&#45;String&#45;2 -->
<g id="edge50" class="edge">
<title>function&#45;2&#45;RegVal:s&#45;&gt;primitive&#45;String&#45;2</title>
<path fill="none" stroke="black" d="M335,-332C335,-318.84 335,-304.11 335,-292.3"/>
<polygon fill="black" stroke="black" points="336.75,-295 335,-290 333.25,-295 336.75,-295"/>
</g>
<!-- function&#45;1&#45;Srl&#45;&gt;function&#45;1&#45;RegVal -->
<g id="edge43" class="edge">
<title>function&#45;1&#45;Srl:s&#45;&gt;function&#45;1&#45;RegVal</title>
<path fill="none" stroke="black" d="M389,-411C389,-301.19 400.98,-266.62 357,-166 351.99,-154.54 344.56,-142.87 337.74,-133.32"/>
<polygon fill="black" stroke="black" points="341.19,-134.77 336.67,-132 338.48,-136.98 341.19,-134.77"/>
</g>
<!-- function&#45;1&#45;Srl&#45;&gt;function&#45;2&#45;RegVal -->
<g id="edge42" class="edge">
<title>function&#45;1&#45;Srl:s&#45;&gt;function&#45;2&#45;RegVal</title>
<path fill="none" stroke="black" d="M373,-411C373,-395.82 364.52,-381.32 355.48,-370.17"/>
<polygon fill="black" stroke="black" points="359.05,-370.95 354.13,-369 356.76,-373.6 359.05,-370.95"/>
</g>
<!-- function&#45;2&#45;Or&#45;&gt;function&#45;0&#45;Sll -->
<g id="edge49" class="edge">
<title>function&#45;2&#45;Or:s&#45;&gt;function&#45;0&#45;Sll</title>
<path fill="none" stroke="black" d="M216,-490C216,-475.36 223.26,-460.81 230.97,-449.5"/>
<polygon fill="black" stroke="black" points="230.54,-453.08 232.04,-448 227.7,-451.03 230.54,-453.08"/>
</g>
<!-- function&#45;2&#45;Or&#45;&gt;function&#45;0&#45;Srl -->
<g id="edge48" class="edge">
<title>function&#45;2&#45;Or:s&#45;&gt;function&#45;0&#45;Srl</title>
<path fill="none" stroke="black" d="M200,-490C200,-450.44 245.62,-470.57 280,-451 281.68,-450.04 283.39,-449.04 285.1,-448.01"/>
<polygon fill="black" stroke="black" points="280.64,-449.81 285.62,-448 280.6,-446.31 280.64,-449.81"/>
</g>
<!-- function&#45;0&#45;ImmVal -->
<g id="node1" class="node">
<title>function&#45;0&#45;ImmVal</title>
<g id="a_node1"><a xlink:title="Imm&#45;14: function&#45;0&#45;ImmVal">
<path fill="white" stroke="transparent" d="M173.67,-95C173.67,-95 214.33,-95 214.33,-95 219.67,-95 225,-100.33 225,-105.67 225,-105.67 225,-116.33 225,-116.33 225,-121.67 219.67,-127 214.33,-127 214.33,-127 173.67,-127 173.67,-127 168.33,-127 163,-121.67 163,-116.33 163,-116.33 163,-105.67 163,-105.67 163,-100.33 168.33,-95 173.67,-95"/>
<text text-anchor="start" x="168" y="-107.3" font-family="Helvetica,sans-Serif" font-size="14.00">ImmVal</text>
<path fill="none" stroke="black" d="M173.67,-95C173.67,-95 214.33,-95 214.33,-95 219.67,-95 225,-100.33 225,-105.67 225,-105.67 225,-116.33 225,-116.33 225,-121.67 219.67,-127 214.33,-127 214.33,-127 173.67,-127 173.67,-127 168.33,-127 163,-121.67 163,-116.33 163,-116.33 163,-105.67 163,-105.67 163,-100.33 168.33,-95 173.67,-95"/>
</a>
</g>
</g>
<!-- primitive&#45;i64&#45;2147483648 -->
<g id="node2" class="node">
<title>primitive&#45;i64&#45;2147483648</title>
<g id="a_node2"><a xlink:title="i64&#45;2147483648: primitive&#45;i64&#45;2147483648">
<path fill="white" stroke="transparent" d="M188.67,-16C188.67,-16 199.33,-16 199.33,-16 204.67,-16 210,-21.33 210,-26.67 210,-26.67 210,-37.33 210,-37.33 210,-42.67 204.67,-48 199.33,-48 199.33,-48 188.67,-48 188.67,-48 183.33,-48 178,-42.67 178,-37.33 178,-37.33 178,-26.67 178,-26.67 178,-21.33 183.33,-16 188.67,-16"/>
<text text-anchor="start" x="186.5" y="-28.3" font-family="Helvetica,sans-Serif" font-size="14.00">&#45;1</text>
<path fill="none" stroke="black" d="M188.67,-16C188.67,-16 199.33,-16 199.33,-16 204.67,-16 210,-21.33 210,-26.67 210,-26.67 210,-37.33 210,-37.33 210,-42.67 204.67,-48 199.33,-48 199.33,-48 188.67,-48 188.67,-48 183.33,-48 178,-42.67 178,-37.33 178,-37.33 178,-26.67 178,-26.67 178,-21.33 183.33,-16 188.67,-16"/>
</a>
</g>
</g>
<!-- function&#45;1&#45;ImmVal -->
<g id="node3" class="node">
<title>function&#45;1&#45;ImmVal</title>
<g id="a_node3"><a xlink:title="Imm&#45;16: function&#45;1&#45;ImmVal">
<path fill="white" stroke="transparent" d="M94.67,-174C94.67,-174 135.33,-174 135.33,-174 140.67,-174 146,-179.33 146,-184.67 146,-184.67 146,-195.33 146,-195.33 146,-200.67 140.67,-206 135.33,-206 135.33,-206 94.67,-206 94.67,-206 89.33,-206 84,-200.67 84,-195.33 84,-195.33 84,-184.67 84,-184.67 84,-179.33 89.33,-174 94.67,-174"/>
<text text-anchor="start" x="89" y="-186.3" font-family="Helvetica,sans-Serif" font-size="14.00">ImmVal</text>
<path fill="none" stroke="black" d="M94.67,-174C94.67,-174 135.33,-174 135.33,-174 140.67,-174 146,-179.33 146,-184.67 146,-184.67 146,-195.33 146,-195.33 146,-200.67 140.67,-206 135.33,-206 135.33,-206 94.67,-206 94.67,-206 89.33,-206 84,-200.67 84,-195.33 84,-195.33 84,-184.67 84,-184.67 84,-179.33 89.33,-174 94.67,-174"/>
</a>
</g>
</g>
<!-- primitive&#45;i64&#45;1 -->
<g id="node4" class="node">
<title>primitive&#45;i64&#45;1</title>
<g id="a_node4"><a xlink:title="i64&#45;1: primitive&#45;i64&#45;1">
<path fill="white" stroke="transparent" d="M109.67,-95C109.67,-95 120.33,-95 120.33,-95 125.67,-95 131,-100.33 131,-105.67 131,-105.67 131,-116.33 131,-116.33 131,-121.67 125.67,-127 120.33,-127 120.33,-127 109.67,-127 109.67,-127 104.33,-127 99,-121.67 99,-116.33 99,-116.33 99,-105.67 99,-105.67 99,-100.33 104.33,-95 109.67,-95"/>
<text text-anchor="start" x="110" y="-107.3" font-family="Helvetica,sans-Serif" font-size="14.00">1</text>
<path fill="none" stroke="black" d="M109.67,-95C109.67,-95 120.33,-95 120.33,-95 125.67,-95 131,-100.33 131,-105.67 131,-105.67 131,-116.33 131,-116.33 131,-121.67 125.67,-127 120.33,-127 120.33,-127 109.67,-127 109.67,-127 104.33,-127 99,-121.67 99,-116.33 99,-116.33 99,-105.67 99,-105.67 99,-100.33 104.33,-95 109.67,-95"/>
</a>
</g>
</g>
<!-- function&#45;1&#45;Or -->
<g id="node5" class="node">
<title>function&#45;1&#45;Or</title>
<g id="a_node5"><a xlink:title="Inst&#45;11: function&#45;1&#45;Or">
<path fill="white" stroke="transparent" d="M587.67,-569C587.67,-569 598.33,-569 598.33,-569 603.67,-569 609,-574.33 609,-579.67 609,-579.67 609,-590.33 609,-590.33 609,-595.67 603.67,-601 598.33,-601 598.33,-601 587.67,-601 587.67,-601 582.33,-601 577,-595.67 577,-590.33 577,-590.33 577,-579.67 577,-579.67 577,-574.33 582.33,-569 587.67,-569"/>
<text text-anchor="start" x="584" y="-581.3" font-family="Helvetica,sans-Serif" font-size="14.00">Or</text>
<path fill="none" stroke="black" d="M587.67,-569C587.67,-569 598.33,-569 598.33,-569 603.67,-569 609,-574.33 609,-579.67 609,-579.67 609,-590.33 609,-590.33 609,-595.67 603.67,-601 598.33,-601 598.33,-601 587.67,-601 587.67,-601 582.33,-601 577,-595.67 577,-590.33 577,-590.33 577,-579.67 577,-579.67 577,-574.33 582.33,-569 587.67,-569"/>
</a>
</g>
</g>
<!-- function&#45;0&#45;Or -->
<g id="node6" class="node">
<title>function&#45;0&#45;Or</title>
<g id="a_node6"><a xlink:title="Inst&#45;9: function&#45;0&#45;Or">
<path fill="white" stroke="transparent" d="M260.67,-490C260.67,-490 271.33,-490 271.33,-490 276.67,-490 282,-495.33 282,-500.67 282,-500.67 282,-511.33 282,-511.33 282,-516.67 276.67,-522 271.33,-522 271.33,-522 260.67,-522 260.67,-522 255.33,-522 250,-516.67 250,-511.33 250,-511.33 250,-500.67 250,-500.67 250,-495.33 255.33,-490 260.67,-490"/>
<text text-anchor="start" x="257" y="-502.3" font-family="Helvetica,sans-Serif" font-size="14.00">Or</text>
<path fill="none" stroke="black" d="M260.67,-490C260.67,-490 271.33,-490 271.33,-490 276.67,-490 282,-495.33 282,-500.67 282,-500.67 282,-511.33 282,-511.33 282,-516.67 276.67,-522 271.33,-522 271.33,-522 260.67,-522 260.67,-522 255.33,-522 250,-516.67 250,-511.33 250,-511.33 250,-500.67 250,-500.67 250,-495.33 255.33,-490 260.67,-490"/>
</a>
</g>
</g>
<!-- function&#45;5&#45;RegVal -->
<g id="node7" class="node">
<title>function&#45;5&#45;RegVal</title>
<g id="a_node7"><a xlink:title="Inst&#45;10: function&#45;5&#45;RegVal">
<path fill="white" stroke="transparent" d="M491.17,-411C491.17,-411 526.83,-411 526.83,-411 532.17,-411 537.5,-416.33 537.5,-421.67 537.5,-421.67 537.5,-432.33 537.5,-432.33 537.5,-437.67 532.17,-443 526.83,-443 526.83,-443 491.17,-443 491.17,-443 485.83,-443 480.5,-437.67 480.5,-432.33 480.5,-432.33 480.5,-421.67 480.5,-421.67 480.5,-416.33 485.83,-411 491.17,-411"/>
<text text-anchor="start" x="486" y="-423.3" font-family="Helvetica,sans-Serif" font-size="14.00">RegVal</text>
<path fill="none" stroke="black" d="M491.17,-411C491.17,-411 526.83,-411 526.83,-411 532.17,-411 537.5,-416.33 537.5,-421.67 537.5,-421.67 537.5,-432.33 537.5,-432.33 537.5,-437.67 532.17,-443 526.83,-443 526.83,-443 491.17,-443 491.17,-443 485.83,-443 480.5,-437.67 480.5,-432.33 480.5,-432.33 480.5,-421.67 480.5,-421.67 480.5,-416.33 485.83,-411 491.17,-411"/>
</a>
</g>
</g>
<!-- function&#45;3&#45;Or -->
<g id="node8" class="node">
<title>function&#45;3&#45;Or</title>
<g id="a_node8"><a xlink:title="Inst&#45;11: function&#45;3&#45;Or">
<path fill="white" stroke="transparent" d="M529.67,-569C529.67,-569 540.33,-569 540.33,-569 545.67,-569 551,-574.33 551,-579.67 551,-579.67 551,-590.33 551,-590.33 551,-595.67 545.67,-601 540.33,-601 540.33,-601 529.67,-601 529.67,-601 524.33,-601 519,-595.67 519,-590.33 519,-590.33 519,-579.67 519,-579.67 519,-574.33 524.33,-569 529.67,-569"/>
<text text-anchor="start" x="526" y="-581.3" font-family="Helvetica,sans-Serif" font-size="14.00">Or</text>
<path fill="none" stroke="black" d="M529.67,-569C529.67,-569 540.33,-569 540.33,-569 545.67,-569 551,-574.33 551,-579.67 551,-579.67 551,-590.33 551,-590.33 551,-595.67 545.67,-601 540.33,-601 540.33,-601 529.67,-601 529.67,-601 524.33,-601 519,-595.67 519,-590.33 519,-590.33 519,-579.67 519,-579.67 519,-574.33 524.33,-569 529.67,-569"/>
</a>
</g>
</g>
<!-- function&#45;5&#45;Or -->
<g id="node9" class="node">
<title>function&#45;5&#45;Or</title>
<g id="a_node9"><a xlink:title="Inst&#45;11: function&#45;5&#45;Or">
<path fill="white" stroke="transparent" d="M471.67,-569C471.67,-569 482.33,-569 482.33,-569 487.67,-569 493,-574.33 493,-579.67 493,-579.67 493,-590.33 493,-590.33 493,-595.67 487.67,-601 482.33,-601 482.33,-601 471.67,-601 471.67,-601 466.33,-601 461,-595.67 461,-590.33 461,-590.33 461,-579.67 461,-579.67 461,-574.33 466.33,-569 471.67,-569"/>
<text text-anchor="start" x="468" y="-581.3" font-family="Helvetica,sans-Serif" font-size="14.00">Or</text>
<path fill="none" stroke="black" d="M471.67,-569C471.67,-569 482.33,-569 482.33,-569 487.67,-569 493,-574.33 493,-579.67 493,-579.67 493,-590.33 493,-590.33 493,-595.67 487.67,-601 482.33,-601 482.33,-601 471.67,-601 471.67,-601 466.33,-601 461,-595.67 461,-590.33 461,-590.33 461,-579.67 461,-579.67 461,-574.33 466.33,-569 471.67,-569"/>
</a>
</g>
</g>
<!-- function&#45;0&#45;Sll -->
<g id="node10" class="node">
<title>function&#45;0&#45;Sll</title>
<g id="a_node10"><a xlink:title="Inst&#45;6: function&#45;0&#45;Sll">
<path fill="white" stroke="transparent" d="M243.67,-411C243.67,-411 254.33,-411 254.33,-411 259.67,-411 265,-416.33 265,-421.67 265,-421.67 265,-432.33 265,-432.33 265,-437.67 259.67,-443 254.33,-443 254.33,-443 243.67,-443 243.67,-443 238.33,-443 233,-437.67 233,-432.33 233,-432.33 233,-421.67 233,-421.67 233,-416.33 238.33,-411 243.67,-411"/>
<text text-anchor="start" x="240.5" y="-423.3" font-family="Helvetica,sans-Serif" font-size="14.00">Sll</text>
<path fill="none" stroke="black" d="M243.67,-411C243.67,-411 254.33,-411 254.33,-411 259.67,-411 265,-416.33 265,-421.67 265,-421.67 265,-432.33 265,-432.33 265,-437.67 259.67,-443 254.33,-443 254.33,-443 243.67,-443 243.67,-443 238.33,-443 233,-437.67 233,-432.33 233,-432.33 233,-421.67 233,-421.67 233,-416.33 238.33,-411 243.67,-411"/>
</a>
</g>
</g>
<!-- function&#45;4&#45;Or -->
<g id="node11" class="node">
<title>function&#45;4&#45;Or</title>
<g id="a_node11"><a xlink:title="Inst&#45;13: function&#45;4&#45;Or">
<path fill="white" stroke="transparent" d="M532.67,-490C532.67,-490 543.33,-490 543.33,-490 548.67,-490 554,-495.33 554,-500.67 554,-500.67 554,-511.33 554,-511.33 554,-516.67 548.67,-522 543.33,-522 543.33,-522 532.67,-522 532.67,-522 527.33,-522 522,-516.67 522,-511.33 522,-511.33 522,-500.67 522,-500.67 522,-495.33 527.33,-490 532.67,-490"/>
<text text-anchor="start" x="529" y="-502.3" font-family="Helvetica,sans-Serif" font-size="14.00">Or</text>
<path fill="none" stroke="black" d="M532.67,-490C532.67,-490 543.33,-490 543.33,-490 548.67,-490 554,-495.33 554,-500.67 554,-500.67 554,-511.33 554,-511.33 554,-516.67 548.67,-522 543.33,-522 543.33,-522 532.67,-522 532.67,-522 527.33,-522 522,-516.67 522,-511.33 522,-511.33 522,-500.67 522,-500.67 522,-495.33 527.33,-490 532.67,-490"/>
</a>
</g>
</g>
<!-- function&#45;7&#45;Or -->
<g id="node12" class="node">
<title>function&#45;7&#45;Or</title>
<g id="a_node12"><a xlink:title="Inst&#45;11: function&#45;7&#45;Or">
<path fill="white" stroke="transparent" d="M355.67,-569C355.67,-569 366.33,-569 366.33,-569 371.67,-569 377,-574.33 377,-579.67 377,-579.67 377,-590.33 377,-590.33 377,-595.67 371.67,-601 366.33,-601 366.33,-601 355.67,-601 355.67,-601 350.33,-601 345,-595.67 345,-590.33 345,-590.33 345,-579.67 345,-579.67 345,-574.33 350.33,-569 355.67,-569"/>
<text text-anchor="start" x="352" y="-581.3" font-family="Helvetica,sans-Serif" font-size="14.00">Or</text>
<path fill="none" stroke="black" d="M355.67,-569C355.67,-569 366.33,-569 366.33,-569 371.67,-569 377,-574.33 377,-579.67 377,-579.67 377,-590.33 377,-590.33 377,-595.67 371.67,-601 366.33,-601 366.33,-601 355.67,-601 355.67,-601 350.33,-601 345,-595.67 345,-590.33 345,-590.33 345,-579.67 345,-579.67 345,-574.33 350.33,-569 355.67,-569"/>
</a>
</g>
</g>
<!-- function&#45;9&#45;Or -->
<g id="node13" class="node">
<title>function&#45;9&#45;Or</title>
<g id="a_node13"><a xlink:title="Inst&#45;11: function&#45;9&#45;Or">
<path fill="white" stroke="transparent" d="M297.67,-569C297.67,-569 308.33,-569 308.33,-569 313.67,-569 319,-574.33 319,-579.67 319,-579.67 319,-590.33 319,-590.33 319,-595.67 313.67,-601 308.33,-601 308.33,-601 297.67,-601 297.67,-601 292.33,-601 287,-595.67 287,-590.33 287,-590.33 287,-579.67 287,-579.67 287,-574.33 292.33,-569 297.67,-569"/>
<text text-anchor="start" x="294" y="-581.3" font-family="Helvetica,sans-Serif" font-size="14.00">Or</text>
<path fill="none" stroke="black" d="M297.67,-569C297.67,-569 308.33,-569 308.33,-569 313.67,-569 319,-574.33 319,-579.67 319,-579.67 319,-590.33 319,-590.33 319,-595.67 313.67,-601 308.33,-601 308.33,-601 297.67,-601 297.67,-601 292.33,-601 287,-595.67 287,-590.33 287,-590.33 287,-579.67 287,-579.67 287,-574.33 292.33,-569 297.67,-569"/>
</a>
</g>
</g>
<!-- function&#45;0&#45;Srl -->
<g id="node14" class="node">
<title>function&#45;0&#45;Srl</title>
<g id="a_node14"><a xlink:title="Inst&#45;7: function&#45;0&#45;Srl">
<path fill="white" stroke="transparent" d="M309.67,-411C309.67,-411 320.33,-411 320.33,-411 325.67,-411 331,-416.33 331,-421.67 331,-421.67 331,-432.33 331,-432.33 331,-437.67 325.67,-443 320.33,-443 320.33,-443 309.67,-443 309.67,-443 304.33,-443 299,-437.67 299,-432.33 299,-432.33 299,-421.67 299,-421.67 299,-416.33 304.33,-411 309.67,-411"/>
<text text-anchor="start" x="305.5" y="-423.3" font-family="Helvetica,sans-Serif" font-size="14.00">Srl</text>
<path fill="none" stroke="black" d="M309.67,-411C309.67,-411 320.33,-411 320.33,-411 325.67,-411 331,-416.33 331,-421.67 331,-421.67 331,-432.33 331,-432.33 331,-437.67 325.67,-443 320.33,-443 320.33,-443 309.67,-443 309.67,-443 304.33,-443 299,-437.67 299,-432.33 299,-432.33 299,-421.67 299,-421.67 299,-416.33 304.33,-411 309.67,-411"/>
</a>
</g>
</g>
<!-- function&#45;8&#45;Or -->
<g id="node15" class="node">
<title>function&#45;8&#45;Or</title>
<g id="a_node15"><a xlink:title="Inst&#45;18: function&#45;8&#45;Or">
<path fill="white" stroke="transparent" d="M396.67,-490C396.67,-490 407.33,-490 407.33,-490 412.67,-490 418,-495.33 418,-500.67 418,-500.67 418,-511.33 418,-511.33 418,-516.67 412.67,-522 407.33,-522 407.33,-522 396.67,-522 396.67,-522 391.33,-522 386,-516.67 386,-511.33 386,-511.33 386,-500.67 386,-500.67 386,-495.33 391.33,-490 396.67,-490"/>
<text text-anchor="start" x="393" y="-502.3" font-family="Helvetica,sans-Serif" font-size="14.00">Or</text>
<path fill="none" stroke="black" d="M396.67,-490C396.67,-490 407.33,-490 407.33,-490 412.67,-490 418,-495.33 418,-500.67 418,-500.67 418,-511.33 418,-511.33 418,-516.67 412.67,-522 407.33,-522 407.33,-522 396.67,-522 396.67,-522 391.33,-522 386,-516.67 386,-511.33 386,-511.33 386,-500.67 386,-500.67 386,-495.33 391.33,-490 396.67,-490"/>
</a>
</g>
</g>
<!-- function&#45;11&#45;Or -->
<g id="node16" class="node">
<title>function&#45;11&#45;Or</title>
<g id="a_node16"><a xlink:title="Inst&#45;11: function&#45;11&#45;Or">
<path fill="white" stroke="transparent" d="M413.67,-569C413.67,-569 424.33,-569 424.33,-569 429.67,-569 435,-574.33 435,-579.67 435,-579.67 435,-590.33 435,-590.33 435,-595.67 429.67,-601 424.33,-601 424.33,-601 413.67,-601 413.67,-601 408.33,-601 403,-595.67 403,-590.33 403,-590.33 403,-579.67 403,-579.67 403,-574.33 408.33,-569 413.67,-569"/>
<text text-anchor="start" x="410" y="-581.3" font-family="Helvetica,sans-Serif" font-size="14.00">Or</text>
<path fill="none" stroke="black" d="M413.67,-569C413.67,-569 424.33,-569 424.33,-569 429.67,-569 435,-574.33 435,-579.67 435,-579.67 435,-590.33 435,-590.33 435,-595.67 429.67,-601 424.33,-601 424.33,-601 413.67,-601 413.67,-601 408.33,-601 403,-595.67 403,-590.33 403,-590.33 403,-579.67 403,-579.67 403,-574.33 408.33,-569 413.67,-569"/>
</a>
</g>
</g>
<!-- function&#45;1&#45;Sll -->
<g id="node17" class="node">
<title>function&#45;1&#45;Sll</title>
<g id="a_node17"><a xlink:title="Inst&#45;8: function&#45;1&#45;Sll">
<path fill="white" stroke="transparent" d="M177.67,-411C177.67,-411 188.33,-411 188.33,-411 193.67,-411 199,-416.33 199,-421.67 199,-421.67 199,-432.33 199,-432.33 199,-437.67 193.67,-443 188.33,-443 188.33,-443 177.67,-443 177.67,-443 172.33,-443 167,-437.67 167,-432.33 167,-432.33 167,-421.67 167,-421.67 167,-416.33 172.33,-411 177.67,-411"/>
<text text-anchor="start" x="174.5" y="-423.3" font-family="Helvetica,sans-Serif" font-size="14.00">Sll</text>
<path fill="none" stroke="black" d="M177.67,-411C177.67,-411 188.33,-411 188.33,-411 193.67,-411 199,-416.33 199,-421.67 199,-421.67 199,-432.33 199,-432.33 199,-437.67 193.67,-443 188.33,-443 188.33,-443 177.67,-443 177.67,-443 172.33,-443 167,-437.67 167,-432.33 167,-432.33 167,-421.67 167,-421.67 167,-416.33 172.33,-411 177.67,-411"/>
</a>
</g>
</g>
<!-- function&#45;0&#45;RegVal -->
<g id="node18" class="node">
<title>function&#45;0&#45;RegVal</title>
<g id="a_node18"><a xlink:title="Inst&#45;0: function&#45;0&#45;RegVal">
<path fill="white" stroke="transparent" d="M246.17,-332C246.17,-332 281.83,-332 281.83,-332 287.17,-332 292.5,-337.33 292.5,-342.67 292.5,-342.67 292.5,-353.33 292.5,-353.33 292.5,-358.67 287.17,-364 281.83,-364 281.83,-364 246.17,-364 246.17,-364 240.83,-364 235.5,-358.67 235.5,-353.33 235.5,-353.33 235.5,-342.67 235.5,-342.67 235.5,-337.33 240.83,-332 246.17,-332"/>
<text text-anchor="start" x="241" y="-344.3" font-family="Helvetica,sans-Serif" font-size="14.00">RegVal</text>
<path fill="none" stroke="black" d="M246.17,-332C246.17,-332 281.83,-332 281.83,-332 287.17,-332 292.5,-337.33 292.5,-342.67 292.5,-342.67 292.5,-353.33 292.5,-353.33 292.5,-358.67 287.17,-364 281.83,-364 281.83,-364 246.17,-364 246.17,-364 240.83,-364 235.5,-358.67 235.5,-353.33 235.5,-353.33 235.5,-342.67 235.5,-342.67 235.5,-337.33 240.83,-332 246.17,-332"/>
</a>
</g>
</g>
<!-- function&#45;0&#45;Sub -->
<g id="node19" class="node">
<title>function&#45;0&#45;Sub</title>
<g id="a_node19"><a xlink:title="Inst&#45;5: function&#45;0&#45;Sub">
<path fill="white" stroke="transparent" d="M183.67,-332C183.67,-332 200.33,-332 200.33,-332 205.67,-332 211,-337.33 211,-342.67 211,-342.67 211,-353.33 211,-353.33 211,-358.67 205.67,-364 200.33,-364 200.33,-364 183.67,-364 183.67,-364 178.33,-364 173,-358.67 173,-353.33 173,-353.33 173,-342.67 173,-342.67 173,-337.33 178.33,-332 183.67,-332"/>
<text text-anchor="start" x="178" y="-344.3" font-family="Helvetica,sans-Serif" font-size="14.00">Sub</text>
<path fill="none" stroke="black" d="M183.67,-332C183.67,-332 200.33,-332 200.33,-332 205.67,-332 211,-337.33 211,-342.67 211,-342.67 211,-353.33 211,-353.33 211,-358.67 205.67,-364 200.33,-364 200.33,-364 183.67,-364 183.67,-364 178.33,-364 173,-358.67 173,-353.33 173,-353.33 173,-342.67 173,-342.67 173,-337.33 178.33,-332 183.67,-332"/>
</a>
</g>
</g>
<!-- function&#45;0&#45;Add -->
<g id="node20" class="node">
<title>function&#45;0&#45;Add</title>
<g id="a_node20"><a xlink:title="Inst&#45;5: function&#45;0&#45;Add">
<path fill="white" stroke="transparent" d="M125.67,-332C125.67,-332 142.33,-332 142.33,-332 147.67,-332 153,-337.33 153,-342.67 153,-342.67 153,-353.33 153,-353.33 153,-358.67 147.67,-364 142.33,-364 142.33,-364 125.67,-364 125.67,-364 120.33,-364 115,-358.67 115,-353.33 115,-353.33 115,-342.67 115,-342.67 115,-337.33 120.33,-332 125.67,-332"/>
<text text-anchor="start" x="120" y="-344.3" font-family="Helvetica,sans-Serif" font-size="14.00">Add</text>
<path fill="none" stroke="black" d="M125.67,-332C125.67,-332 142.33,-332 142.33,-332 147.67,-332 153,-337.33 153,-342.67 153,-342.67 153,-353.33 153,-353.33 153,-358.67 147.67,-364 142.33,-364 142.33,-364 125.67,-364 125.67,-364 120.33,-364 115,-358.67 115,-353.33 115,-353.33 115,-342.67 115,-342.67 115,-337.33 120.33,-332 125.67,-332"/>
</a>
</g>
</g>
<!-- function&#45;3&#45;RegVal -->
<g id="node21" class="node">
<title>function&#45;3&#45;RegVal</title>
<g id="a_node21"><a xlink:title="Inst&#45;3: function&#45;3&#45;RegVal">
<path fill="white" stroke="transparent" d="M62.17,-253C62.17,-253 97.83,-253 97.83,-253 103.17,-253 108.5,-258.33 108.5,-263.67 108.5,-263.67 108.5,-274.33 108.5,-274.33 108.5,-279.67 103.17,-285 97.83,-285 97.83,-285 62.17,-285 62.17,-285 56.83,-285 51.5,-279.67 51.5,-274.33 51.5,-274.33 51.5,-263.67 51.5,-263.67 51.5,-258.33 56.83,-253 62.17,-253"/>
<text text-anchor="start" x="57" y="-265.3" font-family="Helvetica,sans-Serif" font-size="14.00">RegVal</text>
<path fill="none" stroke="black" d="M62.17,-253C62.17,-253 97.83,-253 97.83,-253 103.17,-253 108.5,-258.33 108.5,-263.67 108.5,-263.67 108.5,-274.33 108.5,-274.33 108.5,-279.67 103.17,-285 97.83,-285 97.83,-285 62.17,-285 62.17,-285 56.83,-285 51.5,-279.67 51.5,-274.33 51.5,-274.33 51.5,-263.67 51.5,-263.67 51.5,-258.33 56.83,-253 62.17,-253"/>
</a>
</g>
</g>
<!-- function&#45;0&#45;Addi -->
<g id="node22" class="node">
<title>function&#45;0&#45;Addi</title>
<g id="a_node22"><a xlink:title="Inst&#45;17: function&#45;0&#45;Addi">
<path fill="white" stroke="transparent" d="M138.17,-253C138.17,-253 157.83,-253 157.83,-253 163.17,-253 168.5,-258.33 168.5,-263.67 168.5,-263.67 168.5,-274.33 168.5,-274.33 168.5,-279.67 163.17,-285 157.83,-285 157.83,-285 138.17,-285 138.17,-285 132.83,-285 127.5,-279.67 127.5,-274.33 127.5,-274.33 127.5,-263.67 127.5,-263.67 127.5,-258.33 132.83,-253 138.17,-253"/>
<text text-anchor="start" x="133" y="-265.3" font-family="Helvetica,sans-Serif" font-size="14.00">Addi</text>
<path fill="none" stroke="black" d="M138.17,-253C138.17,-253 157.83,-253 157.83,-253 163.17,-253 168.5,-258.33 168.5,-263.67 168.5,-263.67 168.5,-274.33 168.5,-274.33 168.5,-279.67 163.17,-285 157.83,-285 157.83,-285 138.17,-285 138.17,-285 132.83,-285 127.5,-279.67 127.5,-274.33 127.5,-274.33 127.5,-263.67 127.5,-263.67 127.5,-258.33 132.83,-253 138.17,-253"/>
</a>
</g>
</g>
<!-- function&#45;1&#45;Add -->
<g id="node23" class="node">
<title>function&#45;1&#45;Add</title>
<g id="a_node23"><a xlink:title="Inst&#45;5: function&#45;1&#45;Add">
<path fill="white" stroke="transparent" d="M67.67,-332C67.67,-332 84.33,-332 84.33,-332 89.67,-332 95,-337.33 95,-342.67 95,-342.67 95,-353.33 95,-353.33 95,-358.67 89.67,-364 84.33,-364 84.33,-364 67.67,-364 67.67,-364 62.33,-364 57,-358.67 57,-353.33 57,-353.33 57,-342.67 57,-342.67 57,-337.33 62.33,-332 67.67,-332"/>
<text text-anchor="start" x="62" y="-344.3" font-family="Helvetica,sans-Serif" font-size="14.00">Add</text>
<path fill="none" stroke="black" d="M67.67,-332C67.67,-332 84.33,-332 84.33,-332 89.67,-332 95,-337.33 95,-342.67 95,-342.67 95,-353.33 95,-353.33 95,-358.67 89.67,-364 84.33,-364 84.33,-364 67.67,-364 67.67,-364 62.33,-364 57,-358.67 57,-353.33 57,-353.33 57,-342.67 57,-342.67 57,-337.33 62.33,-332 67.67,-332"/>
</a>
</g>
</g>
<!-- function&#45;1&#45;RegVal -->
<g id="node24" class="node">
<title>function&#45;1&#45;RegVal</title>
<g id="a_node24"><a xlink:title="Inst&#45;1: function&#45;1&#45;RegVal">
<path fill="white" stroke="transparent" d="M303.17,-95C303.17,-95 338.83,-95 338.83,-95 344.17,-95 349.5,-100.33 349.5,-105.67 349.5,-105.67 349.5,-116.33 349.5,-116.33 349.5,-121.67 344.17,-127 338.83,-127 338.83,-127 303.17,-127 303.17,-127 297.83,-127 292.5,-121.67 292.5,-116.33 292.5,-116.33 292.5,-105.67 292.5,-105.67 292.5,-100.33 297.83,-95 303.17,-95"/>
<text text-anchor="start" x="298" y="-107.3" font-family="Helvetica,sans-Serif" font-size="14.00">RegVal</text>
<path fill="none" stroke="black" d="M303.17,-95C303.17,-95 338.83,-95 338.83,-95 344.17,-95 349.5,-100.33 349.5,-105.67 349.5,-105.67 349.5,-116.33 349.5,-116.33 349.5,-121.67 344.17,-127 338.83,-127 338.83,-127 303.17,-127 303.17,-127 297.83,-127 292.5,-121.67 292.5,-116.33 292.5,-116.33 292.5,-105.67 292.5,-105.67 292.5,-100.33 297.83,-95 303.17,-95"/>
</a>
</g>
</g>
<!-- primitive&#45;String&#45;5 -->
<g id="node25" class="node">
<title>primitive&#45;String&#45;5</title>
<g id="a_node25"><a xlink:title="String&#45;5: primitive&#45;String&#45;5">
<path fill="white" stroke="transparent" d="M492.17,-332C492.17,-332 527.83,-332 527.83,-332 533.17,-332 538.5,-337.33 538.5,-342.67 538.5,-342.67 538.5,-353.33 538.5,-353.33 538.5,-358.67 533.17,-364 527.83,-364 527.83,-364 492.17,-364 492.17,-364 486.83,-364 481.5,-358.67 481.5,-353.33 481.5,-353.33 481.5,-342.67 481.5,-342.67 481.5,-337.33 486.83,-332 492.17,-332"/>
<text text-anchor="start" x="487" y="-344.3" font-family="Helvetica,sans-Serif" font-size="14.00">&quot;a7_3&quot;</text>
<path fill="none" stroke="black" d="M492.17,-332C492.17,-332 527.83,-332 527.83,-332 533.17,-332 538.5,-337.33 538.5,-342.67 538.5,-342.67 538.5,-353.33 538.5,-353.33 538.5,-358.67 533.17,-364 527.83,-364 527.83,-364 492.17,-364 492.17,-364 486.83,-364 481.5,-358.67 481.5,-353.33 481.5,-353.33 481.5,-342.67 481.5,-342.67 481.5,-337.33 486.83,-332 492.17,-332"/>
</a>
</g>
</g>
<!-- primitive&#45;String&#45;1 -->
<g id="node26" class="node">
<title>primitive&#45;String&#45;1</title>
<g id="a_node26"><a xlink:title="String&#45;1: primitive&#45;String&#45;1">
<path fill="white" stroke="transparent" d="M304.17,-16C304.17,-16 339.83,-16 339.83,-16 345.17,-16 350.5,-21.33 350.5,-26.67 350.5,-26.67 350.5,-37.33 350.5,-37.33 350.5,-42.67 345.17,-48 339.83,-48 339.83,-48 304.17,-48 304.17,-48 298.83,-48 293.5,-42.67 293.5,-37.33 293.5,-37.33 293.5,-26.67 293.5,-26.67 293.5,-21.33 298.83,-16 304.17,-16"/>
<text text-anchor="start" x="299" y="-28.3" font-family="Helvetica,sans-Serif" font-size="14.00">&quot;a4_0&quot;</text>
<path fill="none" stroke="black" d="M304.17,-16C304.17,-16 339.83,-16 339.83,-16 345.17,-16 350.5,-21.33 350.5,-26.67 350.5,-26.67 350.5,-37.33 350.5,-37.33 350.5,-42.67 345.17,-48 339.83,-48 339.83,-48 304.17,-48 304.17,-48 298.83,-48 293.5,-42.67 293.5,-37.33 293.5,-37.33 293.5,-26.67 293.5,-26.67 293.5,-21.33 298.83,-16 304.17,-16"/>
</a>
</g>
</g>
<!-- function&#45;6&#45;Or -->
<g id="node27" class="node">
<title>function&#45;6&#45;Or</title>
<g id="a_node27"><a xlink:title="Inst&#45;13: function&#45;6&#45;Or">
<path fill="white" stroke="transparent" d="M474.67,-490C474.67,-490 485.33,-490 485.33,-490 490.67,-490 496,-495.33 496,-500.67 496,-500.67 496,-511.33 496,-511.33 496,-516.67 490.67,-522 485.33,-522 485.33,-522 474.67,-522 474.67,-522 469.33,-522 464,-516.67 464,-511.33 464,-511.33 464,-500.67 464,-500.67 464,-495.33 469.33,-490 474.67,-490"/>
<text text-anchor="start" x="471" y="-502.3" font-family="Helvetica,sans-Serif" font-size="14.00">Or</text>
<path fill="none" stroke="black" d="M474.67,-490C474.67,-490 485.33,-490 485.33,-490 490.67,-490 496,-495.33 496,-500.67 496,-500.67 496,-511.33 496,-511.33 496,-516.67 490.67,-522 485.33,-522 485.33,-522 474.67,-522 474.67,-522 469.33,-522 464,-516.67 464,-511.33 464,-511.33 464,-500.67 464,-500.67 464,-495.33 469.33,-490 474.67,-490"/>
</a>
</g>
</g>
<!-- function&#45;0&#45;Xori -->
<g id="node28" class="node">
<title>function&#45;0&#45;Xori</title>
<g id="a_node28"><a xlink:title="Inst&#45;15: function&#45;0&#45;Xori">
<path fill="white" stroke="transparent" d="M176.67,-174C176.67,-174 193.33,-174 193.33,-174 198.67,-174 204,-179.33 204,-184.67 204,-184.67 204,-195.33 204,-195.33 204,-200.67 198.67,-206 193.33,-206 193.33,-206 176.67,-206 176.67,-206 171.33,-206 166,-200.67 166,-195.33 166,-195.33 166,-184.67 166,-184.67 166,-179.33 171.33,-174 176.67,-174"/>
<text text-anchor="start" x="171" y="-186.3" font-family="Helvetica,sans-Serif" font-size="14.00">Xori</text>
<path fill="none" stroke="black" d="M176.67,-174C176.67,-174 193.33,-174 193.33,-174 198.67,-174 204,-179.33 204,-184.67 204,-184.67 204,-195.33 204,-195.33 204,-200.67 198.67,-206 193.33,-206 193.33,-206 176.67,-206 176.67,-206 171.33,-206 166,-200.67 166,-195.33 166,-195.33 166,-184.67 166,-184.67 166,-179.33 171.33,-174 176.67,-174"/>
</a>
</g>
</g>
<!-- function&#45;4&#45;RegVal -->
<g id="node29" class="node">
<title>function&#45;4&#45;RegVal</title>
<g id="a_node29"><a xlink:title="Inst&#45;4: function&#45;4&#45;RegVal">
<path fill="white" stroke="transparent" d="M643.17,-569C643.17,-569 678.83,-569 678.83,-569 684.17,-569 689.5,-574.33 689.5,-579.67 689.5,-579.67 689.5,-590.33 689.5,-590.33 689.5,-595.67 684.17,-601 678.83,-601 678.83,-601 643.17,-601 643.17,-601 637.83,-601 632.5,-595.67 632.5,-590.33 632.5,-590.33 632.5,-579.67 632.5,-579.67 632.5,-574.33 637.83,-569 643.17,-569"/>
<text text-anchor="start" x="638" y="-581.3" font-family="Helvetica,sans-Serif" font-size="14.00">RegVal</text>
<path fill="none" stroke="black" d="M643.17,-569C643.17,-569 678.83,-569 678.83,-569 684.17,-569 689.5,-574.33 689.5,-579.67 689.5,-579.67 689.5,-590.33 689.5,-590.33 689.5,-595.67 684.17,-601 678.83,-601 678.83,-601 643.17,-601 643.17,-601 637.83,-601 632.5,-595.67 632.5,-590.33 632.5,-590.33 632.5,-579.67 632.5,-579.67 632.5,-574.33 637.83,-569 643.17,-569"/>
</a>
</g>
</g>
<!-- primitive&#45;String&#45;4 -->
<g id="node30" class="node">
<title>primitive&#45;String&#45;4</title>
<g id="a_node30"><a xlink:title="String&#45;4: primitive&#45;String&#45;4">
<path fill="white" stroke="transparent" d="M638.17,-490C638.17,-490 685.83,-490 685.83,-490 691.17,-490 696.5,-495.33 696.5,-500.67 696.5,-500.67 696.5,-511.33 696.5,-511.33 696.5,-516.67 691.17,-522 685.83,-522 685.83,-522 638.17,-522 638.17,-522 632.83,-522 627.5,-516.67 627.5,-511.33 627.5,-511.33 627.5,-500.67 627.5,-500.67 627.5,-495.33 632.83,-490 638.17,-490"/>
<text text-anchor="start" x="633" y="-502.3" font-family="Helvetica,sans-Serif" font-size="14.00">&quot;zero_0&quot;</text>
<path fill="none" stroke="black" d="M638.17,-490C638.17,-490 685.83,-490 685.83,-490 691.17,-490 696.5,-495.33 696.5,-500.67 696.5,-500.67 696.5,-511.33 696.5,-511.33 696.5,-516.67 691.17,-522 685.83,-522 685.83,-522 638.17,-522 638.17,-522 632.83,-522 627.5,-516.67 627.5,-511.33 627.5,-511.33 627.5,-500.67 627.5,-500.67 627.5,-495.33 632.83,-490 638.17,-490"/>
</a>
</g>
</g>
<!-- primitive&#45;String&#45;3 -->
<g id="node31" class="node">
<title>primitive&#45;String&#45;3</title>
<g id="a_node31"><a xlink:title="String&#45;3: primitive&#45;String&#45;3">
<path fill="white" stroke="transparent" d="M25.17,-174C25.17,-174 60.83,-174 60.83,-174 66.17,-174 71.5,-179.33 71.5,-184.67 71.5,-184.67 71.5,-195.33 71.5,-195.33 71.5,-200.67 66.17,-206 60.83,-206 60.83,-206 25.17,-206 25.17,-206 19.83,-206 14.5,-200.67 14.5,-195.33 14.5,-195.33 14.5,-184.67 14.5,-184.67 14.5,-179.33 19.83,-174 25.17,-174"/>
<text text-anchor="start" x="20" y="-186.3" font-family="Helvetica,sans-Serif" font-size="14.00">&quot;a7_0&quot;</text>
<path fill="none" stroke="black" d="M25.17,-174C25.17,-174 60.83,-174 60.83,-174 66.17,-174 71.5,-179.33 71.5,-184.67 71.5,-184.67 71.5,-195.33 71.5,-195.33 71.5,-200.67 66.17,-206 60.83,-206 60.83,-206 25.17,-206 25.17,-206 19.83,-206 14.5,-200.67 14.5,-195.33 14.5,-195.33 14.5,-184.67 14.5,-184.67 14.5,-179.33 19.83,-174 25.17,-174"/>
</a>
</g>
</g>
<!-- function&#45;10&#45;Or -->
<g id="node32" class="node">
<title>function&#45;10&#45;Or</title>
<g id="a_node32"><a xlink:title="Inst&#45;18: function&#45;10&#45;Or">
<path fill="white" stroke="transparent" d="M338.67,-490C338.67,-490 349.33,-490 349.33,-490 354.67,-490 360,-495.33 360,-500.67 360,-500.67 360,-511.33 360,-511.33 360,-516.67 354.67,-522 349.33,-522 349.33,-522 338.67,-522 338.67,-522 333.33,-522 328,-516.67 328,-511.33 328,-511.33 328,-500.67 328,-500.67 328,-495.33 333.33,-490 338.67,-490"/>
<text text-anchor="start" x="335" y="-502.3" font-family="Helvetica,sans-Serif" font-size="14.00">Or</text>
<path fill="none" stroke="black" d="M338.67,-490C338.67,-490 349.33,-490 349.33,-490 354.67,-490 360,-495.33 360,-500.67 360,-500.67 360,-511.33 360,-511.33 360,-516.67 354.67,-522 349.33,-522 349.33,-522 338.67,-522 338.67,-522 333.33,-522 328,-516.67 328,-511.33 328,-511.33 328,-500.67 328,-500.67 328,-495.33 333.33,-490 338.67,-490"/>
</a>
</g>
</g>
<!-- function&#45;2&#45;RegVal -->
<g id="node33" class="node">
<title>function&#45;2&#45;RegVal</title>
<g id="a_node33"><a xlink:title="Inst&#45;2: function&#45;2&#45;RegVal">
<path fill="white" stroke="transparent" d="M316.17,-332C316.17,-332 351.83,-332 351.83,-332 357.17,-332 362.5,-337.33 362.5,-342.67 362.5,-342.67 362.5,-353.33 362.5,-353.33 362.5,-358.67 357.17,-364 351.83,-364 351.83,-364 316.17,-364 316.17,-364 310.83,-364 305.5,-358.67 305.5,-353.33 305.5,-353.33 305.5,-342.67 305.5,-342.67 305.5,-337.33 310.83,-332 316.17,-332"/>
<text text-anchor="start" x="311" y="-344.3" font-family="Helvetica,sans-Serif" font-size="14.00">RegVal</text>
<path fill="none" stroke="black" d="M316.17,-332C316.17,-332 351.83,-332 351.83,-332 357.17,-332 362.5,-337.33 362.5,-342.67 362.5,-342.67 362.5,-353.33 362.5,-353.33 362.5,-358.67 357.17,-364 351.83,-364 351.83,-364 316.17,-364 316.17,-364 310.83,-364 305.5,-358.67 305.5,-353.33 305.5,-353.33 305.5,-342.67 305.5,-342.67 305.5,-337.33 310.83,-332 316.17,-332"/>
</a>
</g>
</g>
<!-- primitive&#45;String&#45;0 -->
<g id="node34" class="node">
<title>primitive&#45;String&#45;0</title>
<g id="a_node34"><a xlink:title="String&#45;0: primitive&#45;String&#45;0">
<path fill="white" stroke="transparent" d="M247.17,-253C247.17,-253 282.83,-253 282.83,-253 288.17,-253 293.5,-258.33 293.5,-263.67 293.5,-263.67 293.5,-274.33 293.5,-274.33 293.5,-279.67 288.17,-285 282.83,-285 282.83,-285 247.17,-285 247.17,-285 241.83,-285 236.5,-279.67 236.5,-274.33 236.5,-274.33 236.5,-263.67 236.5,-263.67 236.5,-258.33 241.83,-253 247.17,-253"/>
<text text-anchor="start" x="242" y="-265.3" font-family="Helvetica,sans-Serif" font-size="14.00">&quot;a2_0&quot;</text>
<path fill="none" stroke="black" d="M247.17,-253C247.17,-253 282.83,-253 282.83,-253 288.17,-253 293.5,-258.33 293.5,-263.67 293.5,-263.67 293.5,-274.33 293.5,-274.33 293.5,-279.67 288.17,-285 282.83,-285 282.83,-285 247.17,-285 247.17,-285 241.83,-285 236.5,-279.67 236.5,-274.33 236.5,-274.33 236.5,-263.67 236.5,-263.67 236.5,-258.33 241.83,-253 247.17,-253"/>
</a>
</g>
</g>
<!-- function&#45;1&#45;Srl -->
<g id="node35" class="node">
<title>function&#45;1&#45;Srl</title>
<g id="a_node35"><a xlink:title="Inst&#45;12: function&#45;1&#45;Srl">
<path fill="white" stroke="transparent" d="M375.67,-411C375.67,-411 386.33,-411 386.33,-411 391.67,-411 397,-416.33 397,-421.67 397,-421.67 397,-432.33 397,-432.33 397,-437.67 391.67,-443 386.33,-443 386.33,-443 375.67,-443 375.67,-443 370.33,-443 365,-437.67 365,-432.33 365,-432.33 365,-421.67 365,-421.67 365,-416.33 370.33,-411 375.67,-411"/>
<text text-anchor="start" x="371.5" y="-423.3" font-family="Helvetica,sans-Serif" font-size="14.00">Srl</text>
<path fill="none" stroke="black" d="M375.67,-411C375.67,-411 386.33,-411 386.33,-411 391.67,-411 397,-416.33 397,-421.67 397,-421.67 397,-432.33 397,-432.33 397,-437.67 391.67,-443 386.33,-443 386.33,-443 375.67,-443 375.67,-443 370.33,-443 365,-437.67 365,-432.33 365,-432.33 365,-421.67 365,-421.67 365,-416.33 370.33,-411 375.67,-411"/>
</a>
</g>
</g>
<!-- function&#45;2&#45;Or -->
<g id="node36" class="node">
<title>function&#45;2&#45;Or</title>
<g id="a_node36"><a xlink:title="Inst&#45;9: function&#45;2&#45;Or">
<path fill="white" stroke="transparent" d="M202.67,-490C202.67,-490 213.33,-490 213.33,-490 218.67,-490 224,-495.33 224,-500.67 224,-500.67 224,-511.33 224,-511.33 224,-516.67 218.67,-522 213.33,-522 213.33,-522 202.67,-522 202.67,-522 197.33,-522 192,-516.67 192,-511.33 192,-511.33 192,-500.67 192,-500.67 192,-495.33 197.33,-490 202.67,-490"/>
<text text-anchor="start" x="199" y="-502.3" font-family="Helvetica,sans-Serif" font-size="14.00">Or</text>
<path fill="none" stroke="black" d="M202.67,-490C202.67,-490 213.33,-490 213.33,-490 218.67,-490 224,-495.33 224,-500.67 224,-500.67 224,-511.33 224,-511.33 224,-516.67 218.67,-522 213.33,-522 213.33,-522 202.67,-522 202.67,-522 197.33,-522 192,-516.67 192,-511.33 192,-511.33 192,-500.67 192,-500.67 192,-495.33 197.33,-490 202.67,-490"/>
</a>
</g>
</g>
<!-- primitive&#45;String&#45;2 -->
<g id="node37" class="node">
<title>primitive&#45;String&#45;2</title>
<g id="a_node37"><a xlink:title="String&#45;2: primitive&#45;String&#45;2">
<path fill="white" stroke="transparent" d="M317.17,-253C317.17,-253 352.83,-253 352.83,-253 358.17,-253 363.5,-258.33 363.5,-263.67 363.5,-263.67 363.5,-274.33 363.5,-274.33 363.5,-279.67 358.17,-285 352.83,-285 352.83,-285 317.17,-285 317.17,-285 311.83,-285 306.5,-279.67 306.5,-274.33 306.5,-274.33 306.5,-263.67 306.5,-263.67 306.5,-258.33 311.83,-253 317.17,-253"/>
<text text-anchor="start" x="312" y="-265.3" font-family="Helvetica,sans-Serif" font-size="14.00">&quot;a6_0&quot;</text>
<path fill="none" stroke="black" d="M317.17,-253C317.17,-253 352.83,-253 352.83,-253 358.17,-253 363.5,-258.33 363.5,-263.67 363.5,-263.67 363.5,-274.33 363.5,-274.33 363.5,-279.67 358.17,-285 352.83,-285 352.83,-285 317.17,-285 317.17,-285 311.83,-285 306.5,-279.67 306.5,-274.33 306.5,-274.33 306.5,-263.67 306.5,-263.67 306.5,-258.33 311.83,-253 317.17,-253"/>
</a>
</g>
</g>
</g>
</svg>
